<?xml version="1.0" encoding="UTF-8" standalone="no"?>
<!DOCTYPE svg PUBLIC "-//W3C//DTD SVG 1.1//EN"
 "http://www.w3.org/Graphics/SVG/1.1/DTD/svg11.dtd">
<!-- Generated by graphviz version 2.38.0 (20140413.2041)
 -->
<!-- Title: ac_motor_valve_open Pages: 1 -->
<svg width="734pt" height="170pt"
 viewBox="0.00 0.00 734.00 170.00" xmlns="http://www.w3.org/2000/svg" xmlns:xlink="http://www.w3.org/1999/xlink">
<g id="graph0" class="graph" transform="scale(1 1) rotate(0) translate(4 166)">
<title>ac_motor_valve_open</title>
<polygon fill="white" stroke="none" points="-4,4 -4,-166 730,-166 730,4 -4,4"/>
<!-- Node10 -->
<g id="node1" class="node"><title>Node10</title>
<polygon fill="#bfbfbf" stroke="black" points="0,-90.5 0,-109.5 112,-109.5 112,-90.5 0,-90.5"/>
<text text-anchor="middle" x="56" y="-97.5" font-family="Helvetica,sans-Serif" font-size="10.00">ac_motor_valve_open</text>
</g>
<!-- Node11 -->
<g id="node2" class="node"><title>Node11</title>
<g id="a_node2"><a xlink:href="ac__out_8c.html#aaa0444bb417d9a634d5304b267f4fcda" target="_top" xlink:title="ac_off">
<polygon fill="white" stroke="black" points="163.5,-71.5 163.5,-90.5 207.5,-90.5 207.5,-71.5 163.5,-71.5"/>
<text text-anchor="middle" x="185.5" y="-78.5" font-family="Helvetica,sans-Serif" font-size="10.00">ac_off</text>
</a>
</g>
</g>
<!-- Node10&#45;&gt;Node11 -->
<g id="edge1" class="edge"><title>Node10&#45;&gt;Node11</title>
<path fill="none" stroke="midnightblue" d="M112.182,-91.7768C126.236,-89.6824 140.857,-87.5037 153.243,-85.6579"/>
<polygon fill="midnightblue" stroke="midnightblue" points="154.108,-89.0678 163.483,-84.132 153.076,-82.1442 154.108,-89.0678"/>
</g>
<!-- Node12 -->
<g id="node3" class="node"><title>Node12</title>
<g id="a_node3"><a xlink:href="ac__out_8c.html#a07e9d906599f62767ef1efb99d8fce11" target="_top" xlink:title="ac_out_off_timer_func">
<polygon fill="white" stroke="black" points="259,-76.5 259,-95.5 372,-95.5 372,-76.5 259,-76.5"/>
<text text-anchor="middle" x="315.5" y="-83.5" font-family="Helvetica,sans-Serif" font-size="10.00">ac_out_off_timer_func</text>
</a>
</g>
</g>
<!-- Node10&#45;&gt;Node12 -->
<g id="edge8" class="edge"><title>Node10&#45;&gt;Node12</title>
<path fill="none" stroke="midnightblue" d="M112.035,-102.09C144.393,-102.798 186.074,-102.809 223,-100 232.179,-99.3019 241.831,-98.2152 251.285,-96.9489"/>
<polygon fill="midnightblue" stroke="midnightblue" points="252.023,-100.379 261.435,-95.5141 251.043,-93.4484 252.023,-100.379"/>
</g>
<!-- Node13 -->
<g id="node4" class="node"><title>Node13</title>
<g id="a_node4"><a xlink:href="gpio_8h.html#a83bac74ff5b2158e0c86da73ada29718" target="_top" xlink:title="gpio_output_set">
<polygon fill="white" stroke="black" points="640,-90.5 640,-109.5 726,-109.5 726,-90.5 640,-90.5"/>
<text text-anchor="middle" x="683" y="-97.5" font-family="Helvetica,sans-Serif" font-size="10.00">gpio_output_set</text>
</a>
</g>
</g>
<!-- Node10&#45;&gt;Node13 -->
<g id="edge9" class="edge"><title>Node10&#45;&gt;Node13</title>
<path fill="none" stroke="midnightblue" d="M80.3316,-109.552C124.989,-126.943 225.984,-162 314.5,-162 314.5,-162 314.5,-162 466,-162 535.382,-162 612.604,-132.08 653.292,-113.81"/>
<polygon fill="midnightblue" stroke="midnightblue" points="654.953,-116.899 662.586,-109.552 652.037,-110.535 654.953,-116.899"/>
</g>
<!-- Node16 -->
<g id="node7" class="node"><title>Node16</title>
<g id="a_node7"><a xlink:href="led_8c.html#aa00afefe8ba48ccd7df635fbc7d4c9fc" target="_top" xlink:title="led_pattern_a">
<polygon fill="white" stroke="black" points="148,-24.5 148,-43.5 223,-43.5 223,-24.5 148,-24.5"/>
<text text-anchor="middle" x="185.5" y="-31.5" font-family="Helvetica,sans-Serif" font-size="10.00">led_pattern_a</text>
</a>
</g>
</g>
<!-- Node10&#45;&gt;Node16 -->
<g id="edge10" class="edge"><title>Node10&#45;&gt;Node16</title>
<path fill="none" stroke="midnightblue" d="M75.5396,-90.403C96.8799,-79.3563 132.146,-61.101 156.758,-48.3608"/>
<polygon fill="midnightblue" stroke="midnightblue" points="158.666,-51.3139 165.938,-43.6085 155.448,-45.0974 158.666,-51.3139"/>
</g>
<!-- Node11&#45;&gt;Node12 -->
<g id="edge2" class="edge"><title>Node11&#45;&gt;Node12</title>
<path fill="none" stroke="midnightblue" d="M207.637,-81.8256C219.002,-82.2696 233.706,-82.844 248.549,-83.4238"/>
<polygon fill="midnightblue" stroke="midnightblue" points="248.679,-86.9315 258.808,-83.8245 248.952,-79.9368 248.679,-86.9315"/>
</g>
<!-- Node12&#45;&gt;Node13 -->
<g id="edge3" class="edge"><title>Node12&#45;&gt;Node13</title>
<path fill="none" stroke="midnightblue" d="M372.104,-91.4465C383.942,-92.4421 396.377,-93.3653 408,-94 484.993,-98.2043 574.307,-99.4901 629.49,-99.8676"/>
<polygon fill="midnightblue" stroke="midnightblue" points="629.701,-103.369 639.722,-99.9298 629.744,-96.3689 629.701,-103.369"/>
</g>
<!-- Node14 -->
<g id="node5" class="node"><title>Node14</title>
<g id="a_node5"><a xlink:href="led_8c.html#a7cd1d03b4baad9cb20bf1a43046f61a2" target="_top" xlink:title="led_stop_pattern">
<polygon fill="white" stroke="black" points="420.5,-38.5 420.5,-57.5 509.5,-57.5 509.5,-38.5 420.5,-38.5"/>
<text text-anchor="middle" x="465" y="-45.5" font-family="Helvetica,sans-Serif" font-size="10.00">led_stop_pattern</text>
</a>
</g>
</g>
<!-- Node12&#45;&gt;Node14 -->
<g id="edge4" class="edge"><title>Node12&#45;&gt;Node14</title>
<path fill="none" stroke="midnightblue" d="M353.72,-76.411C373.009,-71.4417 396.758,-65.3233 417.271,-60.0387"/>
<polygon fill="midnightblue" stroke="midnightblue" points="418.237,-63.4043 427.047,-57.5201 416.49,-56.6256 418.237,-63.4043"/>
</g>
<!-- Node15 -->
<g id="node6" class="node"><title>Node15</title>
<g id="a_node6"><a xlink:href="led_8c.html#a7ef0b27e501c77cd25b8bb7a2de6d8bd" target="_top" xlink:title="led_off">
<polygon fill="white" stroke="black" points="558,-66.5 558,-85.5 604,-85.5 604,-66.5 558,-66.5"/>
<text text-anchor="middle" x="581" y="-73.5" font-family="Helvetica,sans-Serif" font-size="10.00">led_off</text>
</a>
</g>
</g>
<!-- Node12&#45;&gt;Node15 -->
<g id="edge7" class="edge"><title>Node12&#45;&gt;Node15</title>
<path fill="none" stroke="midnightblue" d="M372.06,-83.8915C425.345,-81.8693 503.964,-78.8856 547.679,-77.2266"/>
<polygon fill="midnightblue" stroke="midnightblue" points="547.886,-80.7214 557.746,-76.8445 547.621,-73.7264 547.886,-80.7214"/>
</g>
<!-- Node14&#45;&gt;Node15 -->
<g id="edge5" class="edge"><title>Node14&#45;&gt;Node15</title>
<path fill="none" stroke="midnightblue" d="M504.913,-57.5577C518.997,-61.0168 534.724,-64.8796 548.132,-68.1727"/>
<polygon fill="midnightblue" stroke="midnightblue" points="547.32,-71.5774 557.867,-70.5637 548.99,-64.7794 547.32,-71.5774"/>
</g>
<!-- Node15&#45;&gt;Node13 -->
<g id="edge6" class="edge"><title>Node15&#45;&gt;Node13</title>
<path fill="none" stroke="midnightblue" d="M604.193,-81.3264C612.565,-83.3357 622.463,-85.711 632.342,-88.0821"/>
<polygon fill="midnightblue" stroke="midnightblue" points="631.618,-91.5076 642.159,-90.4381 633.252,-84.7009 631.618,-91.5076"/>
</g>
<!-- Node17 -->
<g id="node8" class="node"><title>Node17</title>
<g id="a_node8"><a xlink:href="led_8c.html#af6a79b211d188e643a4f1cf7552ac7ee" target="_top" xlink:title="led_blinker_timer_func">
<polygon fill="white" stroke="black" points="408,-0.5 408,-19.5 522,-19.5 522,-0.5 408,-0.5"/>
<text text-anchor="middle" x="465" y="-7.5" font-family="Helvetica,sans-Serif" font-size="10.00">led_blinker_timer_func</text>
</a>
</g>
</g>
<!-- Node16&#45;&gt;Node17 -->
<g id="edge11" class="edge"><title>Node16&#45;&gt;Node17</title>
<path fill="none" stroke="midnightblue" d="M223.064,-30.8377C267.377,-27.0052 342.895,-20.474 397.591,-15.7435"/>
<polygon fill="midnightblue" stroke="midnightblue" points="398.232,-19.2012 407.893,-14.8525 397.629,-12.2273 398.232,-19.2012"/>
</g>
<!-- Node17&#45;&gt;Node15 -->
<g id="edge14" class="edge"><title>Node17&#45;&gt;Node15</title>
<path fill="none" stroke="midnightblue" d="M500.581,-19.5913C507.862,-22.1951 515.348,-25.3307 522,-29 536.831,-37.1806 551.635,-49.2575 562.574,-59.1205"/>
<polygon fill="midnightblue" stroke="midnightblue" points="560.413,-61.8902 570.123,-66.1302 565.177,-56.7608 560.413,-61.8902"/>
</g>
<!-- Node18 -->
<g id="node9" class="node"><title>Node18</title>
<g id="a_node9"><a xlink:href="led_8c.html#a0a23edee5e1db0cd2928c18a42ffe96f" target="_top" xlink:title="led_on">
<polygon fill="white" stroke="black" points="558.5,-9.5 558.5,-28.5 603.5,-28.5 603.5,-9.5 558.5,-9.5"/>
<text text-anchor="middle" x="581" y="-16.5" font-family="Helvetica,sans-Serif" font-size="10.00">led_on</text>
</a>
</g>
</g>
<!-- Node17&#45;&gt;Node18 -->
<g id="edge12" class="edge"><title>Node17&#45;&gt;Node18</title>
<path fill="none" stroke="midnightblue" d="M522.332,-14.4473C531.225,-15.1493 540.14,-15.8531 548.21,-16.4902"/>
<polygon fill="midnightblue" stroke="midnightblue" points="548.015,-19.9857 558.26,-17.2837 548.566,-13.0074 548.015,-19.9857"/>
</g>
<!-- Node18&#45;&gt;Node13 -->
<g id="edge13" class="edge"><title>Node18&#45;&gt;Node13</title>
<path fill="none" stroke="midnightblue" d="M593.864,-28.6098C610.704,-42.2504 641.754,-67.4008 662.14,-83.9134"/>
<polygon fill="midnightblue" stroke="midnightblue" points="660.178,-86.8281 670.151,-90.4027 664.584,-81.3887 660.178,-86.8281"/>
</g>
</g>
</svg>
