<?xml version="1.0" encoding="UTF-8" standalone="no"?>
<!DOCTYPE svg PUBLIC "-//W3C//DTD SVG 1.1//EN"
 "http://www.w3.org/Graphics/SVG/1.1/DTD/svg11.dtd">
<!-- Generated by graphviz version 2.38.0 (20140413.2041)
 -->
<!-- Title: user/crypto/aes.h Pages: 1 -->
<svg width="863pt" height="756pt"
 viewBox="0.00 0.00 863.04 756.00" xmlns="http://www.w3.org/2000/svg" xmlns:xlink="http://www.w3.org/1999/xlink">
<g id="graph0" class="graph" transform="scale(1 1) rotate(0) translate(4 752)">
<title>user/crypto/aes.h</title>
<polygon fill="white" stroke="none" points="-4,4 -4,-752 859.043,-752 859.043,4 -4,4"/>
<!-- Node0 -->
<g id="node1" class="node"><title>Node0</title>
<polygon fill="#bfbfbf" stroke="black" points="142,-728.5 142,-747.5 234,-747.5 234,-728.5 142,-728.5"/>
<text text-anchor="middle" x="188" y="-735.5" font-family="Helvetica,sans-Serif" font-size="10.00">user/crypto/aes.h</text>
</g>
<!-- Node1 -->
<g id="node2" class="node"><title>Node1</title>
<g id="a_node2"><a xlink:href="esp8266_8h.html" target="_top" xlink:title="esp8266.h">
<polygon fill="white" stroke="black" points="345,-672.5 345,-691.5 407,-691.5 407,-672.5 345,-672.5"/>
<text text-anchor="middle" x="376" y="-679.5" font-family="Helvetica,sans-Serif" font-size="10.00">esp8266.h</text>
</a>
</g>
</g>
<!-- Node0&#45;&gt;Node1 -->
<g id="edge1" class="edge"><title>Node0&#45;&gt;Node1</title>
<path fill="none" stroke="midnightblue" d="M217.789,-728.444C249.829,-719.241 300.933,-704.562 336.353,-694.388"/>
<polygon fill="midnightblue" stroke="midnightblue" points="337.705,-697.641 346.35,-691.516 335.773,-690.913 337.705,-697.641"/>
</g>
<!-- Node7 -->
<g id="node8" class="node"><title>Node7</title>
<polygon fill="white" stroke="#bfbfbf" points="134.5,-0.5 134.5,-19.5 183.5,-19.5 183.5,-0.5 134.5,-0.5"/>
<text text-anchor="middle" x="159" y="-7.5" font-family="Helvetica,sans-Serif" font-size="10.00">stdint.h</text>
</g>
<!-- Node0&#45;&gt;Node7 -->
<g id="edge43" class="edge"><title>Node0&#45;&gt;Node7</title>
<path fill="none" stroke="midnightblue" d="M141.528,-730.44C85.8559,-719.656 0,-692.421 0,-627 0,-627 0,-627 0,-121 0,-60.9583 77.6277,-31.1179 124.401,-18.5874"/>
<polygon fill="midnightblue" stroke="midnightblue" points="125.329,-21.963 134.156,-16.1036 123.602,-15.1794 125.329,-21.963"/>
</g>
<!-- Node2 -->
<g id="node3" class="node"><title>Node2</title>
<polygon fill="white" stroke="#bfbfbf" points="646.5,-616.5 646.5,-635.5 695.5,-635.5 695.5,-616.5 646.5,-616.5"/>
<text text-anchor="middle" x="671" y="-623.5" font-family="Helvetica,sans-Serif" font-size="10.00">ctype.h</text>
</g>
<!-- Node1&#45;&gt;Node2 -->
<g id="edge2" class="edge"><title>Node1&#45;&gt;Node2</title>
<path fill="none" stroke="midnightblue" d="M407.108,-676.543C454.432,-669.567 547.519,-655.078 636.224,-636.004"/>
<polygon fill="midnightblue" stroke="midnightblue" points="637.151,-639.385 646.179,-633.84 635.664,-632.545 637.151,-639.385"/>
</g>
<!-- Node3 -->
<g id="node4" class="node"><title>Node3</title>
<polygon fill="white" stroke="#bfbfbf" points="714,-616.5 714,-635.5 760,-635.5 760,-616.5 714,-616.5"/>
<text text-anchor="middle" x="737" y="-623.5" font-family="Helvetica,sans-Serif" font-size="10.00">stdio.h</text>
</g>
<!-- Node1&#45;&gt;Node3 -->
<g id="edge3" class="edge"><title>Node1&#45;&gt;Node3</title>
<path fill="none" stroke="midnightblue" d="M407.434,-678.061C464.453,-672.435 588.844,-658.809 703.643,-635.805"/>
<polygon fill="midnightblue" stroke="midnightblue" points="704.552,-639.192 713.654,-633.77 703.157,-632.332 704.552,-639.192"/>
</g>
<!-- Node4 -->
<g id="node5" class="node"><title>Node4</title>
<polygon fill="white" stroke="#bfbfbf" points="778,-616.5 778,-635.5 826,-635.5 826,-616.5 778,-616.5"/>
<text text-anchor="middle" x="802" y="-623.5" font-family="Helvetica,sans-Serif" font-size="10.00">stdlib.h</text>
</g>
<!-- Node1&#45;&gt;Node4 -->
<g id="edge4" class="edge"><title>Node1&#45;&gt;Node4</title>
<path fill="none" stroke="midnightblue" d="M407.069,-679.057C472.246,-674.637 628.109,-662.264 767.912,-635.934"/>
<polygon fill="midnightblue" stroke="midnightblue" points="768.784,-639.331 777.949,-634.014 767.469,-632.455 768.784,-639.331"/>
</g>
<!-- Node5 -->
<g id="node6" class="node"><title>Node5</title>
<polygon fill="white" stroke="#bfbfbf" points="250.5,-168.5 250.5,-187.5 299.5,-187.5 299.5,-168.5 250.5,-168.5"/>
<text text-anchor="middle" x="275" y="-175.5" font-family="Helvetica,sans-Serif" font-size="10.00">string.h</text>
</g>
<!-- Node1&#45;&gt;Node5 -->
<g id="edge5" class="edge"><title>Node1&#45;&gt;Node5</title>
<path fill="none" stroke="midnightblue" d="M344.981,-680.06C282.201,-676.332 146,-658.197 146,-571 146,-571 146,-571 146,-289 146,-239.151 202.462,-207.115 240.678,-191.14"/>
<polygon fill="midnightblue" stroke="midnightblue" points="242.446,-194.203 250.432,-187.241 239.848,-187.703 242.446,-194.203"/>
</g>
<!-- Node6 -->
<g id="node7" class="node"><title>Node6</title>
<g id="a_node7"><a xlink:href="c__types_8h.html" target="_top" xlink:title="c_types.h">
<polygon fill="white" stroke="black" points="358.5,-56.5 358.5,-75.5 417.5,-75.5 417.5,-56.5 358.5,-56.5"/>
<text text-anchor="middle" x="388" y="-63.5" font-family="Helvetica,sans-Serif" font-size="10.00">c_types.h</text>
</a>
</g>
</g>
<!-- Node1&#45;&gt;Node6 -->
<g id="edge6" class="edge"><title>Node1&#45;&gt;Node6</title>
<path fill="none" stroke="midnightblue" d="M407.031,-679.946C504.826,-676.354 802.096,-663.272 835,-636 858.173,-616.794 854,-601.098 854,-571 854,-571 854,-571 854,-177 854,-89.7272 540.493,-71.6165 427.769,-67.9253"/>
<polygon fill="midnightblue" stroke="midnightblue" points="427.606,-64.4188 417.504,-67.6113 427.392,-71.4156 427.606,-64.4188"/>
</g>
<!-- Node9 -->
<g id="node10" class="node"><title>Node9</title>
<g id="a_node10"><a xlink:href="ets__sys_8h.html" target="_top" xlink:title="ets_sys.h">
<polygon fill="white" stroke="black" points="317.5,-112.5 317.5,-131.5 376.5,-131.5 376.5,-112.5 317.5,-112.5"/>
<text text-anchor="middle" x="347" y="-119.5" font-family="Helvetica,sans-Serif" font-size="10.00">ets_sys.h</text>
</a>
</g>
</g>
<!-- Node1&#45;&gt;Node9 -->
<g id="edge9" class="edge"><title>Node1&#45;&gt;Node9</title>
<path fill="none" stroke="midnightblue" d="M344.836,-673.73C299.837,-661.168 222,-630.798 222,-571 222,-571 222,-571 222,-233 222,-202.902 220.999,-190.491 241,-168 258.166,-148.696 285.008,-137.415 307.384,-130.976"/>
<polygon fill="midnightblue" stroke="midnightblue" points="308.532,-134.292 317.301,-128.346 306.737,-127.526 308.532,-134.292"/>
</g>
<!-- Node11 -->
<g id="node12" class="node"><title>Node11</title>
<g id="a_node12"><a xlink:href="gpio_8h.html" target="_top" xlink:title="gpio.h">
<polygon fill="white" stroke="black" points="250.5,-560.5 250.5,-579.5 293.5,-579.5 293.5,-560.5 250.5,-560.5"/>
<text text-anchor="middle" x="272" y="-567.5" font-family="Helvetica,sans-Serif" font-size="10.00">gpio.h</text>
</a>
</g>
</g>
<!-- Node1&#45;&gt;Node11 -->
<g id="edge12" class="edge"><title>Node1&#45;&gt;Node11</title>
<path fill="none" stroke="midnightblue" d="M344.561,-674.923C322.522,-668.928 294.357,-657.426 279,-636 269.4,-622.606 268.438,-603.498 269.403,-589.465"/>
<polygon fill="midnightblue" stroke="midnightblue" points="272.885,-589.819 270.463,-579.505 265.925,-589.078 272.885,-589.819"/>
</g>
<!-- Node12 -->
<g id="node13" class="node"><title>Node12</title>
<g id="a_node13"><a xlink:href="sdk_2include_2mem_8h.html" target="_top" xlink:title="mem.h">
<polygon fill="white" stroke="black" points="70.5,-616.5 70.5,-635.5 117.5,-635.5 117.5,-616.5 70.5,-616.5"/>
<text text-anchor="middle" x="94" y="-623.5" font-family="Helvetica,sans-Serif" font-size="10.00">mem.h</text>
</a>
</g>
</g>
<!-- Node1&#45;&gt;Node12 -->
<g id="edge13" class="edge"><title>Node1&#45;&gt;Node12</title>
<path fill="none" stroke="midnightblue" d="M344.703,-675.746C298.179,-667.818 208.084,-652.015 132,-636 130.549,-635.695 129.068,-635.376 127.574,-635.048"/>
<polygon fill="midnightblue" stroke="midnightblue" points="128.202,-631.601 117.676,-632.801 126.653,-638.428 128.202,-631.601"/>
</g>
<!-- Node14 -->
<g id="node15" class="node"><title>Node14</title>
<g id="a_node15"><a xlink:href="osapi_8h.html" target="_top" xlink:title="osapi.h">
<polygon fill="white" stroke="black" points="250,-224.5 250,-243.5 298,-243.5 298,-224.5 250,-224.5"/>
<text text-anchor="middle" x="274" y="-231.5" font-family="Helvetica,sans-Serif" font-size="10.00">osapi.h</text>
</a>
</g>
</g>
<!-- Node1&#45;&gt;Node14 -->
<g id="edge16" class="edge"><title>Node1&#45;&gt;Node14</title>
<path fill="none" stroke="midnightblue" d="M344.701,-680.887C307.567,-679.084 245.927,-670.589 208,-636 185.246,-615.249 184,-601.795 184,-571 184,-571 184,-571 184,-345 184,-302.658 224.439,-267.655 251.104,-249.178"/>
<polygon fill="midnightblue" stroke="midnightblue" points="253.158,-252.015 259.54,-243.558 249.277,-246.189 253.158,-252.015"/>
</g>
<!-- Node17 -->
<g id="node18" class="node"><title>Node17</title>
<g id="a_node18"><a xlink:href="user__interface_8h.html" target="_top" xlink:title="user_interface.h">
<polygon fill="white" stroke="black" points="288,-616.5 288,-635.5 374,-635.5 374,-616.5 288,-616.5"/>
<text text-anchor="middle" x="331" y="-623.5" font-family="Helvetica,sans-Serif" font-size="10.00">user_interface.h</text>
</a>
</g>
</g>
<!-- Node1&#45;&gt;Node17 -->
<g id="edge21" class="edge"><title>Node1&#45;&gt;Node17</title>
<path fill="none" stroke="midnightblue" d="M368.569,-672.083C362.147,-664.377 352.694,-653.033 344.878,-643.653"/>
<polygon fill="midnightblue" stroke="midnightblue" points="347.383,-641.193 338.293,-635.751 342.006,-645.674 347.383,-641.193"/>
</g>
<!-- Node27 -->
<g id="node28" class="node"><title>Node27</title>
<g id="a_node28"><a xlink:href="upgrade_8h.html" target="_top" xlink:title="upgrade.h">
<polygon fill="white" stroke="black" points="392.5,-616.5 392.5,-635.5 451.5,-635.5 451.5,-616.5 392.5,-616.5"/>
<text text-anchor="middle" x="422" y="-623.5" font-family="Helvetica,sans-Serif" font-size="10.00">upgrade.h</text>
</a>
</g>
</g>
<!-- Node1&#45;&gt;Node27 -->
<g id="edge40" class="edge"><title>Node1&#45;&gt;Node27</title>
<path fill="none" stroke="midnightblue" d="M383.596,-672.083C390.227,-664.298 400.021,-652.801 408.058,-643.367"/>
<polygon fill="midnightblue" stroke="midnightblue" points="410.725,-645.633 414.545,-635.751 405.396,-641.094 410.725,-645.633"/>
</g>
<!-- Node28 -->
<g id="node29" class="node"><title>Node28</title>
<g id="a_node29"><a xlink:href="esp__sdk__ver_8h.html" target="_top" xlink:title="esp_sdk_ver.h">
<polygon fill="white" stroke="black" points="470,-616.5 470,-635.5 550,-635.5 550,-616.5 470,-616.5"/>
<text text-anchor="middle" x="510" y="-623.5" font-family="Helvetica,sans-Serif" font-size="10.00">esp_sdk_ver.h</text>
</a>
</g>
</g>
<!-- Node1&#45;&gt;Node28 -->
<g id="edge41" class="edge"><title>Node1&#45;&gt;Node28</title>
<path fill="none" stroke="midnightblue" d="M397.233,-672.444C419.384,-663.517 454.319,-649.439 479.436,-639.317"/>
<polygon fill="midnightblue" stroke="midnightblue" points="480.9,-642.501 488.867,-635.516 478.283,-636.008 480.9,-642.501"/>
</g>
<!-- Node29 -->
<g id="node30" class="node"><title>Node29</title>
<g id="a_node30"><a xlink:href="platform_8h.html" target="_top" xlink:title="platform.h">
<polygon fill="white" stroke="black" points="568,-616.5 568,-635.5 628,-635.5 628,-616.5 568,-616.5"/>
<text text-anchor="middle" x="598" y="-623.5" font-family="Helvetica,sans-Serif" font-size="10.00">platform.h</text>
</a>
</g>
</g>
<!-- Node1&#45;&gt;Node29 -->
<g id="edge42" class="edge"><title>Node1&#45;&gt;Node29</title>
<path fill="none" stroke="midnightblue" d="M407.336,-673.378C446.838,-663.769 514.79,-647.24 558.001,-636.729"/>
<polygon fill="midnightblue" stroke="midnightblue" points="559,-640.089 567.89,-634.324 557.346,-633.287 559,-640.089"/>
</g>
<!-- Node6&#45;&gt;Node7 -->
<g id="edge7" class="edge"><title>Node6&#45;&gt;Node7</title>
<path fill="none" stroke="midnightblue" d="M358.062,-57.9404C315.659,-47.9414 238.296,-29.6987 193.524,-19.1411"/>
<polygon fill="midnightblue" stroke="midnightblue" points="194.224,-15.7101 183.687,-16.8214 192.617,-22.5232 194.224,-15.7101"/>
</g>
<!-- Node8 -->
<g id="node9" class="node"><title>Node8</title>
<polygon fill="white" stroke="#bfbfbf" points="360,-0.5 360,-19.5 416,-19.5 416,-0.5 360,-0.5"/>
<text text-anchor="middle" x="388" y="-7.5" font-family="Helvetica,sans-Serif" font-size="10.00">stdbool.h</text>
</g>
<!-- Node6&#45;&gt;Node8 -->
<g id="edge8" class="edge"><title>Node6&#45;&gt;Node8</title>
<path fill="none" stroke="midnightblue" d="M388,-56.083C388,-49.0059 388,-38.8611 388,-29.9865"/>
<polygon fill="midnightblue" stroke="midnightblue" points="391.5,-29.751 388,-19.7511 384.5,-29.7511 391.5,-29.751"/>
</g>
<!-- Node9&#45;&gt;Node6 -->
<g id="edge10" class="edge"><title>Node9&#45;&gt;Node6</title>
<path fill="none" stroke="midnightblue" d="M353.77,-112.083C359.562,-104.455 368.058,-93.2645 375.138,-83.9408"/>
<polygon fill="midnightblue" stroke="midnightblue" points="378.096,-85.8321 381.356,-75.7511 372.521,-81.5991 378.096,-85.8321"/>
</g>
<!-- Node10 -->
<g id="node11" class="node"><title>Node10</title>
<g id="a_node11"><a xlink:href="eagle__soc_8h.html" target="_top" xlink:title="eagle_soc.h">
<polygon fill="white" stroke="black" points="271.5,-56.5 271.5,-75.5 340.5,-75.5 340.5,-56.5 271.5,-56.5"/>
<text text-anchor="middle" x="306" y="-63.5" font-family="Helvetica,sans-Serif" font-size="10.00">eagle_soc.h</text>
</a>
</g>
</g>
<!-- Node9&#45;&gt;Node10 -->
<g id="edge11" class="edge"><title>Node9&#45;&gt;Node10</title>
<path fill="none" stroke="midnightblue" d="M340.23,-112.083C334.438,-104.455 325.942,-93.2645 318.862,-83.9408"/>
<polygon fill="midnightblue" stroke="midnightblue" points="321.479,-81.5991 312.644,-75.7511 315.904,-85.8321 321.479,-81.5991"/>
</g>
<!-- Node12&#45;&gt;Node6 -->
<g id="edge15" class="edge"><title>Node12&#45;&gt;Node6</title>
<path fill="none" stroke="midnightblue" d="M95.8303,-616.489C99.6251,-598.075 108,-553.118 108,-515 108,-515 108,-515 108,-177 108,-151.477 271.25,-100.797 348.445,-78.2591"/>
<polygon fill="midnightblue" stroke="midnightblue" points="349.672,-81.5475 358.3,-75.3984 347.721,-74.825 349.672,-81.5475"/>
</g>
<!-- Node13 -->
<g id="node14" class="node"><title>Node13</title>
<polygon fill="white" stroke="#bfbfbf" points="28,-560.5 28,-579.5 80,-579.5 80,-560.5 28,-560.5"/>
<text text-anchor="middle" x="54" y="-567.5" font-family="Helvetica,sans-Serif" font-size="10.00">stddef.h</text>
</g>
<!-- Node12&#45;&gt;Node13 -->
<g id="edge14" class="edge"><title>Node12&#45;&gt;Node13</title>
<path fill="none" stroke="midnightblue" d="M87.3948,-616.083C81.7448,-608.455 73.4552,-597.264 66.5488,-587.941"/>
<polygon fill="midnightblue" stroke="midnightblue" points="69.2471,-585.703 60.4823,-579.751 63.6221,-589.87 69.2471,-585.703"/>
</g>
<!-- Node14&#45;&gt;Node5 -->
<g id="edge17" class="edge"><title>Node14&#45;&gt;Node5</title>
<path fill="none" stroke="midnightblue" d="M274.165,-224.083C274.296,-217.006 274.484,-206.861 274.648,-197.986"/>
<polygon fill="midnightblue" stroke="midnightblue" points="278.152,-197.814 274.838,-187.751 271.153,-197.685 278.152,-197.814"/>
</g>
<!-- Node15 -->
<g id="node16" class="node"><title>Node15</title>
<g id="a_node16"><a xlink:href="os__type_8h.html" target="_top" xlink:title="os_type.h">
<polygon fill="white" stroke="black" points="317.5,-168.5 317.5,-187.5 376.5,-187.5 376.5,-168.5 317.5,-168.5"/>
<text text-anchor="middle" x="347" y="-175.5" font-family="Helvetica,sans-Serif" font-size="10.00">os_type.h</text>
</a>
</g>
</g>
<!-- Node14&#45;&gt;Node15 -->
<g id="edge18" class="edge"><title>Node14&#45;&gt;Node15</title>
<path fill="none" stroke="midnightblue" d="M285.729,-224.324C296.837,-216.107 313.742,-203.602 326.983,-193.807"/>
<polygon fill="midnightblue" stroke="midnightblue" points="329.1,-196.595 335.058,-187.834 324.937,-190.967 329.1,-196.595"/>
</g>
<!-- Node16 -->
<g id="node17" class="node"><title>Node16</title>
<polygon fill="white" stroke="#bfbfbf" points="396.5,-168.5 396.5,-187.5 471.5,-187.5 471.5,-168.5 396.5,-168.5"/>
<text text-anchor="middle" x="434" y="-175.5" font-family="Helvetica,sans-Serif" font-size="10.00">user_config.h</text>
</g>
<!-- Node14&#45;&gt;Node16 -->
<g id="edge20" class="edge"><title>Node14&#45;&gt;Node16</title>
<path fill="none" stroke="midnightblue" d="M298.301,-224.799C325.083,-215.759 368.401,-201.14 398.876,-190.854"/>
<polygon fill="midnightblue" stroke="midnightblue" points="400.321,-194.061 408.677,-187.547 398.082,-187.428 400.321,-194.061"/>
</g>
<!-- Node15&#45;&gt;Node9 -->
<g id="edge19" class="edge"><title>Node15&#45;&gt;Node9</title>
<path fill="none" stroke="midnightblue" d="M347,-168.083C347,-161.006 347,-150.861 347,-141.986"/>
<polygon fill="midnightblue" stroke="midnightblue" points="350.5,-141.751 347,-131.751 343.5,-141.751 350.5,-141.751"/>
</g>
<!-- Node17&#45;&gt;Node11 -->
<g id="edge39" class="edge"><title>Node17&#45;&gt;Node11</title>
<path fill="none" stroke="midnightblue" d="M321.521,-616.324C312.799,-608.341 299.657,-596.313 289.102,-586.653"/>
<polygon fill="midnightblue" stroke="midnightblue" points="291.392,-584.004 281.652,-579.834 286.666,-589.167 291.392,-584.004"/>
</g>
<!-- Node17&#45;&gt;Node15 -->
<g id="edge22" class="edge"><title>Node17&#45;&gt;Node15</title>
<path fill="none" stroke="midnightblue" d="M329.823,-616.462C327.384,-597.994 322,-552.939 322,-515 322,-515 322,-515 322,-457 322,-358.928 337.625,-242.174 344.169,-197.57"/>
<polygon fill="midnightblue" stroke="midnightblue" points="347.64,-198.029 345.656,-187.622 340.716,-196.995 347.64,-198.029"/>
</g>
<!-- Node17&#45;&gt;Node16 -->
<g id="edge37" class="edge"><title>Node17&#45;&gt;Node16</title>
<path fill="none" stroke="midnightblue" d="M371.424,-616.432C416.923,-606.382 485.515,-589.848 493,-580 516.542,-549.027 455.381,-272.321 438.292,-197.551"/>
<polygon fill="midnightblue" stroke="midnightblue" points="441.677,-196.655 436.026,-187.694 434.855,-198.224 441.677,-196.655"/>
</g>
<!-- Node18 -->
<g id="node19" class="node"><title>Node18</title>
<g id="a_node19"><a xlink:href="esp-open-lwip_2include_2lwip_2ip__addr_8h.html" target="_top" xlink:title="lwip/ip_addr.h">
<polygon fill="white" stroke="black" points="540.5,-560.5 540.5,-579.5 617.5,-579.5 617.5,-560.5 540.5,-560.5"/>
<text text-anchor="middle" x="579" y="-567.5" font-family="Helvetica,sans-Serif" font-size="10.00">lwip/ip_addr.h</text>
</a>
</g>
</g>
<!-- Node17&#45;&gt;Node18 -->
<g id="edge23" class="edge"><title>Node17&#45;&gt;Node18</title>
<path fill="none" stroke="midnightblue" d="M370.296,-616.444C413.687,-606.996 483.582,-591.776 530.386,-581.585"/>
<polygon fill="midnightblue" stroke="midnightblue" points="531.269,-584.975 540.296,-579.428 529.78,-578.135 531.269,-584.975"/>
</g>
<!-- Node25 -->
<g id="node26" class="node"><title>Node25</title>
<g id="a_node26"><a xlink:href="esp-open-sdk_2sdk_2include_2queue_8h.html" target="_top" xlink:title="queue.h">
<polygon fill="white" stroke="black" points="350.5,-560.5 350.5,-579.5 401.5,-579.5 401.5,-560.5 350.5,-560.5"/>
<text text-anchor="middle" x="376" y="-567.5" font-family="Helvetica,sans-Serif" font-size="10.00">queue.h</text>
</a>
</g>
</g>
<!-- Node17&#45;&gt;Node25 -->
<g id="edge36" class="edge"><title>Node17&#45;&gt;Node25</title>
<path fill="none" stroke="midnightblue" d="M338.431,-616.083C344.853,-608.377 354.306,-597.033 362.122,-587.653"/>
<polygon fill="midnightblue" stroke="midnightblue" points="364.994,-589.674 368.707,-579.751 359.617,-585.193 364.994,-589.674"/>
</g>
<!-- Node26 -->
<g id="node27" class="node"><title>Node26</title>
<g id="a_node27"><a xlink:href="spi__flash_8h.html" target="_top" xlink:title="spi_flash.h">
<polygon fill="white" stroke="black" points="420,-560.5 420,-579.5 484,-579.5 484,-560.5 420,-560.5"/>
<text text-anchor="middle" x="452" y="-567.5" font-family="Helvetica,sans-Serif" font-size="10.00">spi_flash.h</text>
</a>
</g>
</g>
<!-- Node17&#45;&gt;Node26 -->
<g id="edge38" class="edge"><title>Node17&#45;&gt;Node26</title>
<path fill="none" stroke="midnightblue" d="M350.173,-616.444C369.909,-607.636 400.885,-593.812 423.493,-583.722"/>
<polygon fill="midnightblue" stroke="midnightblue" points="425.211,-586.788 432.917,-579.516 422.359,-580.396 425.211,-586.788"/>
</g>
<!-- Node19 -->
<g id="node20" class="node"><title>Node19</title>
<g id="a_node20"><a xlink:href="opt_8h.html" target="_top" xlink:title="lwip/opt.h">
<polygon fill="white" stroke="black" points="541.5,-448.5 541.5,-467.5 600.5,-467.5 600.5,-448.5 541.5,-448.5"/>
<text text-anchor="middle" x="571" y="-455.5" font-family="Helvetica,sans-Serif" font-size="10.00">lwip/opt.h</text>
</a>
</g>
</g>
<!-- Node18&#45;&gt;Node19 -->
<g id="edge24" class="edge"><title>Node18&#45;&gt;Node19</title>
<path fill="none" stroke="midnightblue" d="M578.372,-560.368C577.081,-542.617 574.103,-501.666 572.353,-477.597"/>
<polygon fill="midnightblue" stroke="midnightblue" points="575.841,-477.311 571.625,-467.591 568.859,-477.819 575.841,-477.311"/>
</g>
<!-- Node24 -->
<g id="node25" class="node"><title>Node24</title>
<g id="a_node25"><a xlink:href="def_8h.html" target="_top" xlink:title="lwip/def.h">
<polygon fill="white" stroke="black" points="599.5,-504.5 599.5,-523.5 658.5,-523.5 658.5,-504.5 599.5,-504.5"/>
<text text-anchor="middle" x="629" y="-511.5" font-family="Helvetica,sans-Serif" font-size="10.00">lwip/def.h</text>
</a>
</g>
</g>
<!-- Node18&#45;&gt;Node24 -->
<g id="edge33" class="edge"><title>Node18&#45;&gt;Node24</title>
<path fill="none" stroke="midnightblue" d="M587.256,-560.083C594.465,-552.298 605.11,-540.801 613.846,-531.367"/>
<polygon fill="midnightblue" stroke="midnightblue" points="616.671,-533.467 620.897,-523.751 611.535,-528.711 616.671,-533.467"/>
</g>
<!-- Node20 -->
<g id="node21" class="node"><title>Node20</title>
<g id="a_node21"><a xlink:href="lwipopts_8h.html" target="_top" xlink:title="lwipopts.h">
<polygon fill="white" stroke="black" points="491.5,-336.5 491.5,-355.5 552.5,-355.5 552.5,-336.5 491.5,-336.5"/>
<text text-anchor="middle" x="522" y="-343.5" font-family="Helvetica,sans-Serif" font-size="10.00">lwipopts.h</text>
</a>
</g>
</g>
<!-- Node19&#45;&gt;Node20 -->
<g id="edge25" class="edge"><title>Node19&#45;&gt;Node20</title>
<path fill="none" stroke="midnightblue" d="M558.17,-448.335C547.471,-440.304 532.9,-427.311 526,-412 519.467,-397.505 518.905,-379.321 519.724,-365.875"/>
<polygon fill="midnightblue" stroke="midnightblue" points="523.213,-366.156 520.637,-355.879 516.242,-365.519 523.213,-366.156"/>
</g>
<!-- Node21 -->
<g id="node22" class="node"><title>Node21</title>
<g id="a_node22"><a xlink:href="esp-open-sdk_2esp-open-lwip_2include_2lwip_2debug_8h.html" target="_top" xlink:title="lwip/debug.h">
<polygon fill="white" stroke="black" points="535.5,-392.5 535.5,-411.5 606.5,-411.5 606.5,-392.5 535.5,-392.5"/>
<text text-anchor="middle" x="571" y="-399.5" font-family="Helvetica,sans-Serif" font-size="10.00">lwip/debug.h</text>
</a>
</g>
</g>
<!-- Node19&#45;&gt;Node21 -->
<g id="edge26" class="edge"><title>Node19&#45;&gt;Node21</title>
<path fill="none" stroke="midnightblue" d="M571,-448.083C571,-441.006 571,-430.861 571,-421.986"/>
<polygon fill="midnightblue" stroke="midnightblue" points="574.5,-421.751 571,-411.751 567.5,-421.751 574.5,-421.751"/>
</g>
<!-- Node21&#45;&gt;Node20 -->
<g id="edge27" class="edge"><title>Node21&#45;&gt;Node20</title>
<path fill="none" stroke="midnightblue" d="M562.909,-392.083C555.845,-384.298 545.412,-372.801 536.851,-363.367"/>
<polygon fill="midnightblue" stroke="midnightblue" points="539.253,-360.805 529.941,-355.751 534.069,-365.509 539.253,-360.805"/>
</g>
<!-- Node22 -->
<g id="node23" class="node"><title>Node22</title>
<g id="a_node23"><a xlink:href="arch_8h.html" target="_top" xlink:title="lwip/arch.h">
<polygon fill="white" stroke="black" points="571,-336.5 571,-355.5 635,-355.5 635,-336.5 571,-336.5"/>
<text text-anchor="middle" x="603" y="-343.5" font-family="Helvetica,sans-Serif" font-size="10.00">lwip/arch.h</text>
</a>
</g>
</g>
<!-- Node21&#45;&gt;Node22 -->
<g id="edge28" class="edge"><title>Node21&#45;&gt;Node22</title>
<path fill="none" stroke="midnightblue" d="M576.284,-392.083C580.711,-384.613 587.163,-373.724 592.618,-364.52"/>
<polygon fill="midnightblue" stroke="midnightblue" points="595.727,-366.138 597.814,-355.751 589.705,-362.57 595.727,-366.138"/>
</g>
<!-- Node23 -->
<g id="node24" class="node"><title>Node23</title>
<g id="a_node24"><a xlink:href="cc_8h.html" target="_top" xlink:title="arch/cc.h">
<polygon fill="white" stroke="black" points="501.5,-280.5 501.5,-299.5 558.5,-299.5 558.5,-280.5 501.5,-280.5"/>
<text text-anchor="middle" x="530" y="-287.5" font-family="Helvetica,sans-Serif" font-size="10.00">arch/cc.h</text>
</a>
</g>
</g>
<!-- Node22&#45;&gt;Node23 -->
<g id="edge29" class="edge"><title>Node22&#45;&gt;Node23</title>
<path fill="none" stroke="midnightblue" d="M591.271,-336.324C580.163,-328.107 563.258,-315.602 550.017,-305.807"/>
<polygon fill="midnightblue" stroke="midnightblue" points="552.063,-302.967 541.942,-299.834 547.9,-308.595 552.063,-302.967"/>
</g>
<!-- Node23&#45;&gt;Node6 -->
<g id="edge30" class="edge"><title>Node23&#45;&gt;Node6</title>
<path fill="none" stroke="midnightblue" d="M530.234,-280.499C530.396,-259.434 528.234,-203.933 503,-168 477.182,-131.235 435.308,-98.9794 409.846,-81.312"/>
<polygon fill="midnightblue" stroke="midnightblue" points="411.814,-78.4179 401.577,-75.6877 407.877,-84.2059 411.814,-78.4179"/>
</g>
<!-- Node23&#45;&gt;Node9 -->
<g id="edge31" class="edge"><title>Node23&#45;&gt;Node9</title>
<path fill="none" stroke="midnightblue" d="M528.887,-280.299C525.614,-258.282 514.011,-199.85 480,-168 454.487,-144.108 415.828,-132.863 386.754,-127.593"/>
<polygon fill="midnightblue" stroke="midnightblue" points="386.954,-124.079 376.518,-125.909 385.818,-130.986 386.954,-124.079"/>
</g>
<!-- Node23&#45;&gt;Node14 -->
<g id="edge32" class="edge"><title>Node23&#45;&gt;Node14</title>
<path fill="none" stroke="midnightblue" d="M501.131,-282.91C453.543,-272.872 358.852,-252.898 308.062,-242.185"/>
<polygon fill="midnightblue" stroke="midnightblue" points="308.727,-238.748 298.22,-240.109 307.282,-245.598 308.727,-238.748"/>
</g>
<!-- Node24&#45;&gt;Node19 -->
<g id="edge35" class="edge"><title>Node24&#45;&gt;Node19</title>
<path fill="none" stroke="midnightblue" d="M619.681,-504.324C611.107,-496.341 598.188,-484.313 587.812,-474.653"/>
<polygon fill="midnightblue" stroke="midnightblue" points="590.192,-472.086 580.488,-467.834 585.422,-477.21 590.192,-472.086"/>
</g>
<!-- Node24&#45;&gt;Node22 -->
<g id="edge34" class="edge"><title>Node24&#45;&gt;Node22</title>
<path fill="none" stroke="midnightblue" d="M628.438,-504.427C627.042,-484.536 622.94,-433.758 615,-392 613.318,-383.153 610.828,-373.487 608.552,-365.388"/>
<polygon fill="midnightblue" stroke="midnightblue" points="611.839,-364.159 605.676,-355.541 605.12,-366.121 611.839,-364.159"/>
</g>
</g>
</svg>
