<?xml version="1.0" encoding="UTF-8" standalone="no"?>
<!DOCTYPE svg PUBLIC "-//W3C//DTD SVG 1.1//EN"
 "http://www.w3.org/Graphics/SVG/1.1/DTD/svg11.dtd">
<!-- Generated by graphviz version 2.38.0 (20140413.2041)
 -->
<!-- Title: ShiftRows Pages: 1 -->
<svg width="252pt" height="28pt"
 viewBox="0.00 0.00 252.00 28.00" xmlns="http://www.w3.org/2000/svg" xmlns:xlink="http://www.w3.org/1999/xlink">
<g id="graph0" class="graph" transform="scale(1 1) rotate(0) translate(4 24)">
<title>ShiftRows</title>
<polygon fill="white" stroke="none" points="-4,4 -4,-24 248,-24 248,4 -4,4"/>
<!-- Node75 -->
<g id="node1" class="node"><title>Node75</title>
<polygon fill="#bfbfbf" stroke="black" points="0,-0.5 0,-19.5 62,-19.5 62,-0.5 0,-0.5"/>
<text text-anchor="middle" x="31" y="-7.5" font-family="Helvetica,sans-Serif" font-size="10.00">ShiftRows</text>
</g>
<!-- Node76 -->
<g id="node2" class="node"><title>Node76</title>
<g id="a_node2"><a xlink:href="aes_8c.html#a67829edbdf3309d301104f56453e4e88" target="_top" xlink:title="Cipher">
<polygon fill="white" stroke="black" points="98,-0.5 98,-19.5 143,-19.5 143,-0.5 98,-0.5"/>
<text text-anchor="middle" x="120.5" y="-7.5" font-family="Helvetica,sans-Serif" font-size="10.00">Cipher</text>
</a>
</g>
</g>
<!-- Node75&#45;&gt;Node76 -->
<g id="edge1" class="edge"><title>Node75&#45;&gt;Node76</title>
<path fill="none" stroke="midnightblue" d="M72.2998,-10C81.1255,-10 90.1397,-10 97.8936,-10"/>
<polygon fill="midnightblue" stroke="midnightblue" points="72.1126,-6.5001 62.1125,-10 72.1125,-13.5001 72.1126,-6.5001"/>
</g>
<!-- Node77 -->
<g id="node3" class="node"><title>Node77</title>
<g id="a_node3"><a xlink:href="aes_8c.html#a4762f23548a6ee2e4c1ca5f5ce43c4a4" target="_top" xlink:title="BlockCopy">
<polygon fill="white" stroke="black" points="179,-0.5 179,-19.5 244,-19.5 244,-0.5 179,-0.5"/>
<text text-anchor="middle" x="211.5" y="-7.5" font-family="Helvetica,sans-Serif" font-size="10.00">BlockCopy</text>
</a>
</g>
</g>
<!-- Node76&#45;&gt;Node77 -->
<g id="edge2" class="edge"><title>Node76&#45;&gt;Node77</title>
<path fill="none" stroke="midnightblue" d="M153.121,-10C161.431,-10 170.396,-10 178.715,-10"/>
<polygon fill="midnightblue" stroke="midnightblue" points="153.044,-6.5001 143.044,-10 153.044,-13.5001 153.044,-6.5001"/>
</g>
</g>
</svg>
