<?xml version="1.0" encoding="UTF-8" standalone="no"?>
<!DOCTYPE svg PUBLIC "-//W3C//DTD SVG 1.1//EN"
 "http://www.w3.org/Graphics/SVG/1.1/DTD/svg11.dtd">
<!-- Generated by graphviz version 2.38.0 (20140413.2041)
 -->
<!-- Title: AddRoundKey Pages: 1 -->
<svg width="284pt" height="66pt"
 viewBox="0.00 0.00 284.00 66.00" xmlns="http://www.w3.org/2000/svg" xmlns:xlink="http://www.w3.org/1999/xlink">
<g id="graph0" class="graph" transform="scale(1 1) rotate(0) translate(4 62)">
<title>AddRoundKey</title>
<polygon fill="white" stroke="none" points="-4,4 -4,-62 280,-62 280,4 -4,4"/>
<!-- Node1 -->
<g id="node1" class="node"><title>Node1</title>
<polygon fill="#bfbfbf" stroke="black" points="0,-19.5 0,-38.5 80,-38.5 80,-19.5 0,-19.5"/>
<text text-anchor="middle" x="40" y="-26.5" font-family="Helvetica,sans-Serif" font-size="10.00">AddRoundKey</text>
</g>
<!-- Node2 -->
<g id="node2" class="node"><title>Node2</title>
<g id="a_node2"><a xlink:href="aes_8c.html#a67829edbdf3309d301104f56453e4e88" target="_top" xlink:title="Cipher">
<polygon fill="white" stroke="black" points="123,-38.5 123,-57.5 168,-57.5 168,-38.5 123,-38.5"/>
<text text-anchor="middle" x="145.5" y="-45.5" font-family="Helvetica,sans-Serif" font-size="10.00">Cipher</text>
</a>
</g>
</g>
<!-- Node1&#45;&gt;Node2 -->
<g id="edge1" class="edge"><title>Node1&#45;&gt;Node2</title>
<path fill="none" stroke="midnightblue" d="M90.0919,-38.012C101.544,-40.1144 113.171,-42.2488 122.72,-44.0018"/>
<polygon fill="midnightblue" stroke="midnightblue" points="90.5965,-34.5463 80.1289,-36.1831 89.3326,-41.4312 90.5965,-34.5463"/>
</g>
<!-- Node4 -->
<g id="node4" class="node"><title>Node4</title>
<g id="a_node4"><a xlink:href="aes_8c.html#a1c8b8be3915a4ec4ce9d2c0961f07c62" target="_top" xlink:title="InvCipher">
<polygon fill="white" stroke="black" points="116,-0.5 116,-19.5 175,-19.5 175,-0.5 116,-0.5"/>
<text text-anchor="middle" x="145.5" y="-7.5" font-family="Helvetica,sans-Serif" font-size="10.00">InvCipher</text>
</a>
</g>
</g>
<!-- Node1&#45;&gt;Node4 -->
<g id="edge3" class="edge"><title>Node1&#45;&gt;Node4</title>
<path fill="none" stroke="midnightblue" d="M90.0533,-19.995C98.933,-18.365 107.919,-16.7154 115.961,-15.239"/>
<polygon fill="midnightblue" stroke="midnightblue" points="89.3326,-16.5688 80.1289,-21.8169 90.5965,-23.4537 89.3326,-16.5688"/>
</g>
<!-- Node3 -->
<g id="node3" class="node"><title>Node3</title>
<g id="a_node3"><a xlink:href="aes_8c.html#a4762f23548a6ee2e4c1ca5f5ce43c4a4" target="_top" xlink:title="BlockCopy">
<polygon fill="white" stroke="black" points="211,-19.5 211,-38.5 276,-38.5 276,-19.5 211,-19.5"/>
<text text-anchor="middle" x="243.5" y="-26.5" font-family="Helvetica,sans-Serif" font-size="10.00">BlockCopy</text>
</a>
</g>
</g>
<!-- Node2&#45;&gt;Node3 -->
<g id="edge2" class="edge"><title>Node2&#45;&gt;Node3</title>
<path fill="none" stroke="midnightblue" d="M178.309,-41.7044C188.813,-39.6256 200.488,-37.3149 210.97,-35.2402"/>
<polygon fill="midnightblue" stroke="midnightblue" points="177.414,-38.3136 168.284,-43.6886 178.773,-45.1804 177.414,-38.3136"/>
</g>
<!-- Node4&#45;&gt;Node3 -->
<g id="edge4" class="edge"><title>Node4&#45;&gt;Node3</title>
<path fill="none" stroke="midnightblue" d="M184.895,-17.5991C193.516,-19.3053 202.569,-21.0969 210.877,-22.7413"/>
<polygon fill="midnightblue" stroke="midnightblue" points="185.533,-14.1574 175.043,-15.6492 184.173,-21.0242 185.533,-14.1574"/>
</g>
</g>
</svg>
