<?xml version="1.0" encoding="UTF-8" standalone="no"?>
<!DOCTYPE svg PUBLIC "-//W3C//DTD SVG 1.1//EN"
 "http://www.w3.org/Graphics/SVG/1.1/DTD/svg11.dtd">
<!-- Generated by graphviz version 2.38.0 (20140413.2041)
 -->
<!-- Title: Cipher Pages: 1 -->
<svg width="284pt" height="142pt"
 viewBox="0.00 0.00 284.00 142.00" xmlns="http://www.w3.org/2000/svg" xmlns:xlink="http://www.w3.org/1999/xlink">
<g id="graph0" class="graph" transform="scale(1 1) rotate(0) translate(4 138)">
<title>Cipher</title>
<polygon fill="white" stroke="none" points="-4,4 -4,-138 280,-138 280,4 -4,4"/>
<!-- Node24 -->
<g id="node1" class="node"><title>Node24</title>
<polygon fill="#bfbfbf" stroke="black" points="0,-57.5 0,-76.5 45,-76.5 45,-57.5 0,-57.5"/>
<text text-anchor="middle" x="22.5" y="-64.5" font-family="Helvetica,sans-Serif" font-size="10.00">Cipher</text>
</g>
<!-- Node25 -->
<g id="node2" class="node"><title>Node25</title>
<g id="a_node2"><a xlink:href="aes_8c.html#aada5c94b1e6645a191ed85010b3cce60" target="_top" xlink:title="AddRoundKey">
<polygon fill="white" stroke="black" points="81,-114.5 81,-133.5 161,-133.5 161,-114.5 81,-114.5"/>
<text text-anchor="middle" x="121" y="-121.5" font-family="Helvetica,sans-Serif" font-size="10.00">AddRoundKey</text>
</a>
</g>
</g>
<!-- Node24&#45;&gt;Node25 -->
<g id="edge1" class="edge"><title>Node24&#45;&gt;Node25</title>
<path fill="none" stroke="midnightblue" d="M36.8933,-76.5735C48.3502,-84.5856 65.412,-96.1027 81,-105 83.8781,-106.643 86.9189,-108.282 89.9815,-109.871"/>
<polygon fill="midnightblue" stroke="midnightblue" points="88.5854,-113.086 99.0938,-114.437 91.7214,-106.828 88.5854,-113.086"/>
</g>
<!-- Node26 -->
<g id="node3" class="node"><title>Node26</title>
<g id="a_node3"><a xlink:href="aes_8c.html#ad0479161202b7bb0070c937ae6989957" target="_top" xlink:title="MixColumns">
<polygon fill="white" stroke="black" points="85.5,-76.5 85.5,-95.5 156.5,-95.5 156.5,-76.5 85.5,-76.5"/>
<text text-anchor="middle" x="121" y="-83.5" font-family="Helvetica,sans-Serif" font-size="10.00">MixColumns</text>
</a>
</g>
</g>
<!-- Node24&#45;&gt;Node26 -->
<g id="edge2" class="edge"><title>Node24&#45;&gt;Node26</title>
<path fill="none" stroke="midnightblue" d="M45.3973,-71.3114C54.3312,-73.0704 65.0038,-75.1717 75.4443,-77.2274"/>
<polygon fill="midnightblue" stroke="midnightblue" points="74.8311,-80.6738 85.3189,-79.1716 76.1834,-73.8056 74.8311,-80.6738"/>
</g>
<!-- Node28 -->
<g id="node5" class="node"><title>Node28</title>
<g id="a_node5"><a xlink:href="aes_8c.html#a5dca34bf83e6ec2913409023a95475de" target="_top" xlink:title="ShiftRows">
<polygon fill="white" stroke="black" points="90,-38.5 90,-57.5 152,-57.5 152,-38.5 90,-38.5"/>
<text text-anchor="middle" x="121" y="-45.5" font-family="Helvetica,sans-Serif" font-size="10.00">ShiftRows</text>
</a>
</g>
</g>
<!-- Node24&#45;&gt;Node28 -->
<g id="edge4" class="edge"><title>Node24&#45;&gt;Node28</title>
<path fill="none" stroke="midnightblue" d="M45.3973,-62.6886C55.5476,-60.6901 67.9424,-58.2497 79.6912,-55.9364"/>
<polygon fill="midnightblue" stroke="midnightblue" points="80.6416,-59.3166 89.777,-53.9506 79.2892,-52.4485 80.6416,-59.3166"/>
</g>
<!-- Node29 -->
<g id="node6" class="node"><title>Node29</title>
<g id="a_node6"><a xlink:href="aes_8c.html#ab96f126cf8fc8e3d03543b3cfc50e382" target="_top" xlink:title="SubBytes">
<polygon fill="white" stroke="black" points="91.5,-0.5 91.5,-19.5 150.5,-19.5 150.5,-0.5 91.5,-0.5"/>
<text text-anchor="middle" x="121" y="-7.5" font-family="Helvetica,sans-Serif" font-size="10.00">SubBytes</text>
</a>
</g>
</g>
<!-- Node24&#45;&gt;Node29 -->
<g id="edge5" class="edge"><title>Node24&#45;&gt;Node29</title>
<path fill="none" stroke="midnightblue" d="M36.8933,-57.4265C48.3502,-49.4144 65.412,-37.8973 81,-29 83.8781,-27.3572 86.9189,-25.7179 89.9815,-24.1293"/>
<polygon fill="midnightblue" stroke="midnightblue" points="91.7214,-27.1724 99.0938,-19.5633 88.5854,-20.9141 91.7214,-27.1724"/>
</g>
<!-- Node27 -->
<g id="node4" class="node"><title>Node27</title>
<g id="a_node4"><a xlink:href="aes_8c.html#a47cae37bb58bd02d939a23b4e38b1bea" target="_top" xlink:title="xtime">
<polygon fill="white" stroke="black" points="216,-76.5 216,-95.5 257,-95.5 257,-76.5 216,-76.5"/>
<text text-anchor="middle" x="236.5" y="-83.5" font-family="Helvetica,sans-Serif" font-size="10.00">xtime</text>
</a>
</g>
</g>
<!-- Node26&#45;&gt;Node27 -->
<g id="edge3" class="edge"><title>Node26&#45;&gt;Node27</title>
<path fill="none" stroke="midnightblue" d="M156.67,-86C172.303,-86 190.584,-86 205.604,-86"/>
<polygon fill="midnightblue" stroke="midnightblue" points="205.88,-89.5001 215.88,-86 205.88,-82.5001 205.88,-89.5001"/>
</g>
<!-- Node30 -->
<g id="node7" class="node"><title>Node30</title>
<g id="a_node7"><a xlink:href="aes_8c.html#ac5c3dc7cd11bcf934f6c49d5f7bd025a" target="_top" xlink:title="getSBoxValue">
<polygon fill="white" stroke="black" points="197,-0.5 197,-19.5 276,-19.5 276,-0.5 197,-0.5"/>
<text text-anchor="middle" x="236.5" y="-7.5" font-family="Helvetica,sans-Serif" font-size="10.00">getSBoxValue</text>
</a>
</g>
</g>
<!-- Node29&#45;&gt;Node30 -->
<g id="edge6" class="edge"><title>Node29&#45;&gt;Node30</title>
<path fill="none" stroke="midnightblue" d="M150.641,-10C161.518,-10 174.237,-10 186.469,-10"/>
<polygon fill="midnightblue" stroke="midnightblue" points="186.579,-13.5001 196.579,-10 186.579,-6.5001 186.579,-13.5001"/>
</g>
</g>
</svg>
