<?xml version="1.0" encoding="UTF-8" standalone="no"?>
<!DOCTYPE svg PUBLIC "-//W3C//DTD SVG 1.1//EN"
 "http://www.w3.org/Graphics/SVG/1.1/DTD/svg11.dtd">
<!-- Generated by graphviz version 2.38.0 (20140413.2041)
 -->
<!-- Title: getSBoxInvert Pages: 1 -->
<svg width="392pt" height="28pt"
 viewBox="0.00 0.00 392.00 28.00" xmlns="http://www.w3.org/2000/svg" xmlns:xlink="http://www.w3.org/1999/xlink">
<g id="graph0" class="graph" transform="scale(1 1) rotate(0) translate(4 24)">
<title>getSBoxInvert</title>
<polygon fill="white" stroke="none" points="-4,4 -4,-24 388,-24 388,4 -4,4"/>
<!-- Node34 -->
<g id="node1" class="node"><title>Node34</title>
<polygon fill="#bfbfbf" stroke="black" points="0,-0.5 0,-19.5 79,-19.5 79,-0.5 0,-0.5"/>
<text text-anchor="middle" x="39.5" y="-7.5" font-family="Helvetica,sans-Serif" font-size="10.00">getSBoxInvert</text>
</g>
<!-- Node35 -->
<g id="node2" class="node"><title>Node35</title>
<g id="a_node2"><a xlink:href="aes_8c.html#a29daa1322d4129a0e3cc325bb12d772a" target="_top" xlink:title="InvSubBytes">
<polygon fill="white" stroke="black" points="115,-0.5 115,-19.5 188,-19.5 188,-0.5 115,-0.5"/>
<text text-anchor="middle" x="151.5" y="-7.5" font-family="Helvetica,sans-Serif" font-size="10.00">InvSubBytes</text>
</a>
</g>
</g>
<!-- Node34&#45;&gt;Node35 -->
<g id="edge1" class="edge"><title>Node34&#45;&gt;Node35</title>
<path fill="none" stroke="midnightblue" d="M89.4646,-10C97.9362,-10 106.601,-10 114.642,-10"/>
<polygon fill="midnightblue" stroke="midnightblue" points="89.2819,-6.5001 79.2819,-10 89.2819,-13.5001 89.2819,-6.5001"/>
</g>
<!-- Node36 -->
<g id="node3" class="node"><title>Node36</title>
<g id="a_node3"><a xlink:href="aes_8c.html#a1c8b8be3915a4ec4ce9d2c0961f07c62" target="_top" xlink:title="InvCipher">
<polygon fill="white" stroke="black" points="224,-0.5 224,-19.5 283,-19.5 283,-0.5 224,-0.5"/>
<text text-anchor="middle" x="253.5" y="-7.5" font-family="Helvetica,sans-Serif" font-size="10.00">InvCipher</text>
</a>
</g>
</g>
<!-- Node35&#45;&gt;Node36 -->
<g id="edge2" class="edge"><title>Node35&#45;&gt;Node36</title>
<path fill="none" stroke="midnightblue" d="M198.198,-10C206.978,-10 215.937,-10 223.98,-10"/>
<polygon fill="midnightblue" stroke="midnightblue" points="198.038,-6.5001 188.038,-10 198.038,-13.5001 198.038,-6.5001"/>
</g>
<!-- Node37 -->
<g id="node4" class="node"><title>Node37</title>
<g id="a_node4"><a xlink:href="aes_8c.html#a4762f23548a6ee2e4c1ca5f5ce43c4a4" target="_top" xlink:title="BlockCopy">
<polygon fill="white" stroke="black" points="319,-0.5 319,-19.5 384,-19.5 384,-0.5 319,-0.5"/>
<text text-anchor="middle" x="351.5" y="-7.5" font-family="Helvetica,sans-Serif" font-size="10.00">BlockCopy</text>
</a>
</g>
</g>
<!-- Node36&#45;&gt;Node37 -->
<g id="edge3" class="edge"><title>Node36&#45;&gt;Node37</title>
<path fill="none" stroke="midnightblue" d="M293.177,-10C301.713,-10 310.659,-10 318.877,-10"/>
<polygon fill="midnightblue" stroke="midnightblue" points="293.043,-6.5001 283.043,-10 293.043,-13.5001 293.043,-6.5001"/>
</g>
</g>
</svg>
