<?xml version="1.0" encoding="UTF-8" standalone="no"?>
<!DOCTYPE svg PUBLIC "-//W3C//DTD SVG 1.1//EN"
 "http://www.w3.org/Graphics/SVG/1.1/DTD/svg11.dtd">
<!-- Generated by graphviz version 2.38.0 (20140413.2041)
 -->
<!-- Title: InvMixColumns Pages: 1 -->
<svg width="289pt" height="28pt"
 viewBox="0.00 0.00 289.00 28.00" xmlns="http://www.w3.org/2000/svg" xmlns:xlink="http://www.w3.org/1999/xlink">
<g id="graph0" class="graph" transform="scale(1 1) rotate(0) translate(4 24)">
<title>InvMixColumns</title>
<polygon fill="white" stroke="none" points="-4,4 -4,-24 285,-24 285,4 -4,4"/>
<!-- Node53 -->
<g id="node1" class="node"><title>Node53</title>
<polygon fill="#bfbfbf" stroke="black" points="0,-0.5 0,-19.5 85,-19.5 85,-0.5 0,-0.5"/>
<text text-anchor="middle" x="42.5" y="-7.5" font-family="Helvetica,sans-Serif" font-size="10.00">InvMixColumns</text>
</g>
<!-- Node54 -->
<g id="node2" class="node"><title>Node54</title>
<g id="a_node2"><a xlink:href="aes_8c.html#a1c8b8be3915a4ec4ce9d2c0961f07c62" target="_top" xlink:title="InvCipher">
<polygon fill="white" stroke="black" points="121,-0.5 121,-19.5 180,-19.5 180,-0.5 121,-0.5"/>
<text text-anchor="middle" x="150.5" y="-7.5" font-family="Helvetica,sans-Serif" font-size="10.00">InvCipher</text>
</a>
</g>
</g>
<!-- Node53&#45;&gt;Node54 -->
<g id="edge1" class="edge"><title>Node53&#45;&gt;Node54</title>
<path fill="none" stroke="midnightblue" d="M95.3062,-10C104.075,-10 112.888,-10 120.783,-10"/>
<polygon fill="midnightblue" stroke="midnightblue" points="95.0898,-6.5001 85.0898,-10 95.0897,-13.5001 95.0898,-6.5001"/>
</g>
<!-- Node55 -->
<g id="node3" class="node"><title>Node55</title>
<g id="a_node3"><a xlink:href="aes_8c.html#a4762f23548a6ee2e4c1ca5f5ce43c4a4" target="_top" xlink:title="BlockCopy">
<polygon fill="white" stroke="black" points="216,-0.5 216,-19.5 281,-19.5 281,-0.5 216,-0.5"/>
<text text-anchor="middle" x="248.5" y="-7.5" font-family="Helvetica,sans-Serif" font-size="10.00">BlockCopy</text>
</a>
</g>
</g>
<!-- Node54&#45;&gt;Node55 -->
<g id="edge2" class="edge"><title>Node54&#45;&gt;Node55</title>
<path fill="none" stroke="midnightblue" d="M190.177,-10C198.713,-10 207.659,-10 215.877,-10"/>
<polygon fill="midnightblue" stroke="midnightblue" points="190.043,-6.5001 180.043,-10 190.043,-13.5001 190.043,-6.5001"/>
</g>
</g>
</svg>
