<?xml version="1.0" encoding="UTF-8" standalone="no"?>
<!DOCTYPE svg PUBLIC "-//W3C//DTD SVG 1.1//EN"
 "http://www.w3.org/Graphics/SVG/1.1/DTD/svg11.dtd">
<!-- Generated by graphviz version 2.38.0 (20140413.2041)
 -->
<!-- Title: setn16 Pages: 1 -->
<svg width="265pt" height="28pt"
 viewBox="0.00 0.00 265.00 28.00" xmlns="http://www.w3.org/2000/svg" xmlns:xlink="http://www.w3.org/1999/xlink">
<g id="graph0" class="graph" transform="scale(1 1) rotate(0) translate(4 24)">
<title>setn16</title>
<polygon fill="white" stroke="none" points="-4,4 -4,-24 261,-24 261,4 -4,4"/>
<!-- Node96 -->
<g id="node1" class="node"><title>Node96</title>
<polygon fill="#bfbfbf" stroke="black" points="0,-0.5 0,-19.5 46,-19.5 46,-0.5 0,-0.5"/>
<text text-anchor="middle" x="23" y="-7.5" font-family="Helvetica,sans-Serif" font-size="10.00">setn16</text>
</g>
<!-- Node97 -->
<g id="node2" class="node"><title>Node97</title>
<g id="a_node2"><a xlink:href="captdns_8c.html#a59c9a28ea1f015cff27b9d0c252d15f3" target="_top" xlink:title="captdnsRecv">
<polygon fill="white" stroke="black" points="82,-0.5 82,-19.5 156,-19.5 156,-0.5 82,-0.5"/>
<text text-anchor="middle" x="119" y="-7.5" font-family="Helvetica,sans-Serif" font-size="10.00">captdnsRecv</text>
</a>
</g>
</g>
<!-- Node96&#45;&gt;Node97 -->
<g id="edge1" class="edge"><title>Node96&#45;&gt;Node97</title>
<path fill="none" stroke="midnightblue" d="M56.2907,-10C64.5507,-10 73.4848,-10 81.9218,-10"/>
<polygon fill="midnightblue" stroke="midnightblue" points="56.2767,-6.5001 46.2767,-10 56.2767,-13.5001 56.2767,-6.5001"/>
</g>
<!-- Node98 -->
<g id="node3" class="node"><title>Node98</title>
<g id="a_node3"><a xlink:href="captdns_8h.html#a88f42288d1b84cab204cca9e7f7aa9a3" target="_top" xlink:title="captdnsInit">
<polygon fill="white" stroke="black" points="192,-0.5 192,-19.5 257,-19.5 257,-0.5 192,-0.5"/>
<text text-anchor="middle" x="224.5" y="-7.5" font-family="Helvetica,sans-Serif" font-size="10.00">captdnsInit</text>
</a>
</g>
</g>
<!-- Node97&#45;&gt;Node98 -->
<g id="edge2" class="edge"><title>Node97&#45;&gt;Node98</title>
<path fill="none" stroke="midnightblue" d="M166.252,-3.28397C174.948,-3.17613 183.854,-3.32502 191.972,-3.73064"/>
<polygon fill="midnightblue" stroke="midnightblue" points="166.111,0.213731 156.199,-3.5285 166.281,-6.7842 166.111,0.213731"/>
</g>
<!-- Node98&#45;&gt;Node97 -->
<g id="edge3" class="edge"><title>Node98&#45;&gt;Node97</title>
<path fill="none" stroke="midnightblue" d="M181.86,-16.6342C173.363,-16.8311 164.488,-16.7769 156.199,-16.4715"/>
<polygon fill="midnightblue" stroke="midnightblue" points="182.105,-20.1277 191.972,-16.2694 181.853,-13.1323 182.105,-20.1277"/>
</g>
</g>
</svg>
