<?xml version="1.0" encoding="UTF-8" standalone="no"?>
<!DOCTYPE svg PUBLIC "-//W3C//DTD SVG 1.1//EN"
 "http://www.w3.org/Graphics/SVG/1.1/DTD/svg11.dtd">
<!-- Generated by graphviz version 2.38.0 (20140413.2041)
 -->
<!-- Title: my_ntohs Pages: 1 -->
<svg width="375pt" height="47pt"
 viewBox="0.00 0.00 375.00 47.00" xmlns="http://www.w3.org/2000/svg" xmlns:xlink="http://www.w3.org/1999/xlink">
<g id="graph0" class="graph" transform="scale(1 1) rotate(0) translate(4 43)">
<title>my_ntohs</title>
<polygon fill="white" stroke="none" points="-4,4 -4,-43 371,-43 371,4 -4,4"/>
<!-- Node91 -->
<g id="node1" class="node"><title>Node91</title>
<polygon fill="#bfbfbf" stroke="black" points="0,-19.5 0,-38.5 59,-38.5 59,-19.5 0,-19.5"/>
<text text-anchor="middle" x="29.5" y="-26.5" font-family="Helvetica,sans-Serif" font-size="10.00">my_ntohs</text>
</g>
<!-- Node92 -->
<g id="node2" class="node"><title>Node92</title>
<g id="a_node2"><a xlink:href="captdns_8c.html#a59c9a28ea1f015cff27b9d0c252d15f3" target="_top" xlink:title="captdnsRecv">
<polygon fill="white" stroke="black" points="192,-19.5 192,-38.5 266,-38.5 266,-19.5 192,-19.5"/>
<text text-anchor="middle" x="229" y="-26.5" font-family="Helvetica,sans-Serif" font-size="10.00">captdnsRecv</text>
</a>
</g>
</g>
<!-- Node91&#45;&gt;Node92 -->
<g id="edge1" class="edge"><title>Node91&#45;&gt;Node92</title>
<path fill="none" stroke="midnightblue" d="M69.2319,-29C104.811,-29 157.136,-29 191.869,-29"/>
<polygon fill="midnightblue" stroke="midnightblue" points="69.2182,-25.5001 59.2182,-29 69.2182,-32.5001 69.2182,-25.5001"/>
</g>
<!-- Node94 -->
<g id="node4" class="node"><title>Node94</title>
<g id="a_node4"><a xlink:href="captdns_8c.html#a1cda566d8dc5035086e911607e45820b" target="_top" xlink:title="labelToStr">
<polygon fill="white" stroke="black" points="95,-0.5 95,-19.5 156,-19.5 156,-0.5 95,-0.5"/>
<text text-anchor="middle" x="125.5" y="-7.5" font-family="Helvetica,sans-Serif" font-size="10.00">labelToStr</text>
</a>
</g>
</g>
<!-- Node91&#45;&gt;Node94 -->
<g id="edge4" class="edge"><title>Node91&#45;&gt;Node94</title>
<path fill="none" stroke="midnightblue" d="M69.1065,-21.1966C77.749,-19.4497 86.7829,-17.6237 94.9875,-15.9653"/>
<polygon fill="midnightblue" stroke="midnightblue" points="68.3222,-17.7842 59.2139,-23.1961 69.7091,-24.6455 68.3222,-17.7842"/>
</g>
<!-- Node93 -->
<g id="node3" class="node"><title>Node93</title>
<g id="a_node3"><a xlink:href="captdns_8h.html#a88f42288d1b84cab204cca9e7f7aa9a3" target="_top" xlink:title="captdnsInit">
<polygon fill="white" stroke="black" points="302,-19.5 302,-38.5 367,-38.5 367,-19.5 302,-19.5"/>
<text text-anchor="middle" x="334.5" y="-26.5" font-family="Helvetica,sans-Serif" font-size="10.00">captdnsInit</text>
</a>
</g>
</g>
<!-- Node92&#45;&gt;Node93 -->
<g id="edge2" class="edge"><title>Node92&#45;&gt;Node93</title>
<path fill="none" stroke="midnightblue" d="M276.252,-22.284C284.948,-22.1761 293.854,-22.325 301.972,-22.7306"/>
<polygon fill="midnightblue" stroke="midnightblue" points="276.111,-18.7863 266.199,-22.5285 276.281,-25.7842 276.111,-18.7863"/>
</g>
<!-- Node93&#45;&gt;Node92 -->
<g id="edge3" class="edge"><title>Node93&#45;&gt;Node92</title>
<path fill="none" stroke="midnightblue" d="M291.86,-35.6342C283.363,-35.8311 274.488,-35.7769 266.199,-35.4715"/>
<polygon fill="midnightblue" stroke="midnightblue" points="292.105,-39.1277 301.972,-35.2694 291.853,-32.1323 292.105,-39.1277"/>
</g>
<!-- Node94&#45;&gt;Node92 -->
<g id="edge5" class="edge"><title>Node94&#45;&gt;Node92</title>
<path fill="none" stroke="midnightblue" d="M166.118,-17.4162C174.535,-18.9917 183.381,-20.6478 191.669,-22.199"/>
<polygon fill="midnightblue" stroke="midnightblue" points="166.604,-13.9465 156.131,-15.5467 165.316,-20.8269 166.604,-13.9465"/>
</g>
</g>
</svg>
