<?xml version="1.0" encoding="UTF-8" standalone="no"?>
<!DOCTYPE svg PUBLIC "-//W3C//DTD SVG 1.1//EN"
 "http://www.w3.org/Graphics/SVG/1.1/DTD/svg11.dtd">
<!-- Generated by graphviz version 2.38.0 (20140413.2041)
 -->
<!-- Title: captdnsRecv Pages: 1 -->
<svg width="183pt" height="28pt"
 viewBox="0.00 0.00 183.00 28.00" xmlns="http://www.w3.org/2000/svg" xmlns:xlink="http://www.w3.org/1999/xlink">
<g id="graph0" class="graph" transform="scale(1 1) rotate(0) translate(4 24)">
<title>captdnsRecv</title>
<polygon fill="white" stroke="none" points="-4,4 -4,-24 179,-24 179,4 -4,4"/>
<!-- Node76 -->
<g id="node1" class="node"><title>Node76</title>
<polygon fill="#bfbfbf" stroke="black" points="0,-0.5 0,-19.5 74,-19.5 74,-0.5 0,-0.5"/>
<text text-anchor="middle" x="37" y="-7.5" font-family="Helvetica,sans-Serif" font-size="10.00">captdnsRecv</text>
</g>
<!-- Node77 -->
<g id="node2" class="node"><title>Node77</title>
<g id="a_node2"><a xlink:href="captdns_8h.html#a88f42288d1b84cab204cca9e7f7aa9a3" target="_top" xlink:title="captdnsInit">
<polygon fill="white" stroke="black" points="110,-0.5 110,-19.5 175,-19.5 175,-0.5 110,-0.5"/>
<text text-anchor="middle" x="142.5" y="-7.5" font-family="Helvetica,sans-Serif" font-size="10.00">captdnsInit</text>
</a>
</g>
</g>
<!-- Node76&#45;&gt;Node77 -->
<g id="edge1" class="edge"><title>Node76&#45;&gt;Node77</title>
<path fill="none" stroke="midnightblue" d="M84.2521,-3.28397C92.9484,-3.17613 101.854,-3.32502 109.972,-3.73064"/>
<polygon fill="midnightblue" stroke="midnightblue" points="84.1112,0.213731 74.1993,-3.5285 84.2815,-6.7842 84.1112,0.213731"/>
</g>
<!-- Node77&#45;&gt;Node76 -->
<g id="edge2" class="edge"><title>Node77&#45;&gt;Node76</title>
<path fill="none" stroke="midnightblue" d="M99.8603,-16.6342C91.3633,-16.8311 82.4879,-16.7769 74.1993,-16.4715"/>
<polygon fill="midnightblue" stroke="midnightblue" points="100.105,-20.1277 109.972,-16.2694 99.8525,-13.1323 100.105,-20.1277"/>
</g>
</g>
</svg>
