<?xml version="1.0" encoding="UTF-8" standalone="no"?>
<!DOCTYPE svg PUBLIC "-//W3C//DTD SVG 1.1//EN"
 "http://www.w3.org/Graphics/SVG/1.1/DTD/svg11.dtd">
<!-- Generated by graphviz version 2.38.0 (20140413.2041)
 -->
<!-- Title: captdnsStop Pages: 1 -->
<svg width="449pt" height="66pt"
 viewBox="0.00 0.00 449.00 66.00" xmlns="http://www.w3.org/2000/svg" xmlns:xlink="http://www.w3.org/1999/xlink">
<g id="graph0" class="graph" transform="scale(1 1) rotate(0) translate(4 62)">
<title>captdnsStop</title>
<polygon fill="white" stroke="none" points="-4,4 -4,-62 445,-62 445,4 -4,4"/>
<!-- Node80 -->
<g id="node1" class="node"><title>Node80</title>
<polygon fill="#bfbfbf" stroke="black" points="0,-19.5 0,-38.5 71,-38.5 71,-19.5 0,-19.5"/>
<text text-anchor="middle" x="35.5" y="-26.5" font-family="Helvetica,sans-Serif" font-size="10.00">captdnsStop</text>
</g>
<!-- Node81 -->
<g id="node2" class="node"><title>Node81</title>
<g id="a_node2"><a xlink:href="utils_8h.html#abc584694613811efea7c661c9dcefe17" target="_top" xlink:title="system_restart_defered">
<polygon fill="white" stroke="black" points="107,-19.5 107,-38.5 226,-38.5 226,-19.5 107,-19.5"/>
<text text-anchor="middle" x="166.5" y="-26.5" font-family="Helvetica,sans-Serif" font-size="10.00">system_restart_defered</text>
</a>
</g>
</g>
<!-- Node80&#45;&gt;Node81 -->
<g id="edge1" class="edge"><title>Node80&#45;&gt;Node81</title>
<path fill="none" stroke="midnightblue" d="M81.2579,-29C89.5414,-29 98.3055,-29 106.927,-29"/>
<polygon fill="midnightblue" stroke="midnightblue" points="81.0697,-25.5001 71.0696,-29 81.0696,-32.5001 81.0697,-25.5001"/>
</g>
<!-- Node82 -->
<g id="node3" class="node"><title>Node82</title>
<g id="a_node3"><a xlink:href="cgiwifi_8c.html#a9d53126c0a5bdeb1318f081f1cca3a84" target="_top" xlink:title="resetTimerCb">
<polygon fill="white" stroke="black" points="268,-38.5 268,-57.5 344,-57.5 344,-38.5 268,-38.5"/>
<text text-anchor="middle" x="306" y="-45.5" font-family="Helvetica,sans-Serif" font-size="10.00">resetTimerCb</text>
</a>
</g>
</g>
<!-- Node81&#45;&gt;Node82 -->
<g id="edge2" class="edge"><title>Node81&#45;&gt;Node82</title>
<path fill="none" stroke="midnightblue" d="M236.232,-38.4975C247.178,-40.01 258.124,-41.5226 267.962,-42.882"/>
<polygon fill="midnightblue" stroke="midnightblue" points="236.596,-35.0147 226.211,-37.1128 235.638,-41.9488 236.596,-35.0147"/>
</g>
<!-- Node84 -->
<g id="node5" class="node"><title>Node84</title>
<g id="a_node5"><a xlink:href="mqtt__rpc_8h.html#ae3c71a438ecea4bb271bd1586af59452" target="_top" xlink:title="mqtt_rpc_restart">
<polygon fill="white" stroke="black" points="262,-0.5 262,-19.5 350,-19.5 350,-0.5 262,-0.5"/>
<text text-anchor="middle" x="306" y="-7.5" font-family="Helvetica,sans-Serif" font-size="10.00">mqtt_rpc_restart</text>
</a>
</g>
</g>
<!-- Node81&#45;&gt;Node84 -->
<g id="edge4" class="edge"><title>Node81&#45;&gt;Node84</title>
<path fill="none" stroke="midnightblue" d="M236.377,-19.4825C245.064,-18.2821 253.748,-17.0821 261.874,-15.9592"/>
<polygon fill="midnightblue" stroke="midnightblue" points="235.638,-16.0512 226.211,-20.8872 236.596,-22.9853 235.638,-16.0512"/>
</g>
<!-- Node83 -->
<g id="node4" class="node"><title>Node83</title>
<g id="a_node4"><a xlink:href="cgiwifi_8h.html#a7c655a56f56ecebad923c5c4daeb7f1a" target="_top" xlink:title="cgiSetup">
<polygon fill="white" stroke="black" points="386,-38.5 386,-57.5 441,-57.5 441,-38.5 386,-38.5"/>
<text text-anchor="middle" x="413.5" y="-45.5" font-family="Helvetica,sans-Serif" font-size="10.00">cgiSetup</text>
</a>
</g>
</g>
<!-- Node82&#45;&gt;Node83 -->
<g id="edge3" class="edge"><title>Node82&#45;&gt;Node83</title>
<path fill="none" stroke="midnightblue" d="M354.408,-48C365.219,-48 376.333,-48 385.908,-48"/>
<polygon fill="midnightblue" stroke="midnightblue" points="354.195,-44.5001 344.195,-48 354.195,-51.5001 354.195,-44.5001"/>
</g>
</g>
</svg>
