<?xml version="1.0" encoding="UTF-8" standalone="no"?>
<!DOCTYPE svg PUBLIC "-//W3C//DTD SVG 1.1//EN"
 "http://www.w3.org/Graphics/SVG/1.1/DTD/svg11.dtd">
<!-- Generated by graphviz version 2.38.0 (20140413.2041)
 -->
<!-- Title: __attribute__ Pages: 1 -->
<svg width="416pt" height="28pt"
 viewBox="0.00 0.00 416.00 28.00" xmlns="http://www.w3.org/2000/svg" xmlns:xlink="http://www.w3.org/1999/xlink">
<g id="graph0" class="graph" transform="scale(1 1) rotate(0) translate(4 24)">
<title>__attribute__</title>
<polygon fill="white" stroke="none" points="-4,4 -4,-24 412,-24 412,4 -4,4"/>
<!-- Node1 -->
<g id="node1" class="node"><title>Node1</title>
<polygon fill="#bfbfbf" stroke="black" points="0,-0.5 0,-19.5 73,-19.5 73,-0.5 0,-0.5"/>
<text text-anchor="middle" x="36.5" y="-7.5" font-family="Helvetica,sans-Serif" font-size="10.00">__attribute__</text>
</g>
<!-- Node2 -->
<g id="node2" class="node"><title>Node2</title>
<g id="a_node2"><a xlink:href="sdk_2include_2espconn_8h.html#a62219be0ac7e8dd6085915d5c0777476" target="_top" xlink:title="espconn_sendto">
<polygon fill="white" stroke="black" points="109,-0.5 109,-19.5 197,-19.5 197,-0.5 109,-0.5"/>
<text text-anchor="middle" x="153" y="-7.5" font-family="Helvetica,sans-Serif" font-size="10.00">espconn_sendto</text>
</a>
</g>
</g>
<!-- Node1&#45;&gt;Node2 -->
<g id="edge1" class="edge"><title>Node1&#45;&gt;Node2</title>
<path fill="none" stroke="midnightblue" d="M83.1708,-10C91.6116,-10 100.403,-10 108.769,-10"/>
<polygon fill="midnightblue" stroke="midnightblue" points="83.1009,-6.5001 73.1009,-10 83.1008,-13.5001 83.1009,-6.5001"/>
</g>
<!-- Node3 -->
<g id="node3" class="node"><title>Node3</title>
<g id="a_node3"><a xlink:href="captdns_8c.html#a59c9a28ea1f015cff27b9d0c252d15f3" target="_top" xlink:title="captdnsRecv">
<polygon fill="white" stroke="black" points="233,-0.5 233,-19.5 307,-19.5 307,-0.5 233,-0.5"/>
<text text-anchor="middle" x="270" y="-7.5" font-family="Helvetica,sans-Serif" font-size="10.00">captdnsRecv</text>
</a>
</g>
</g>
<!-- Node2&#45;&gt;Node3 -->
<g id="edge2" class="edge"><title>Node2&#45;&gt;Node3</title>
<path fill="none" stroke="midnightblue" d="M207.198,-10C215.85,-10 224.633,-10 232.756,-10"/>
<polygon fill="midnightblue" stroke="midnightblue" points="207.149,-6.5001 197.149,-10 207.149,-13.5001 207.149,-6.5001"/>
</g>
<!-- Node4 -->
<g id="node4" class="node"><title>Node4</title>
<g id="a_node4"><a xlink:href="captdns_8h.html#a88f42288d1b84cab204cca9e7f7aa9a3" target="_top" xlink:title="captdnsInit">
<polygon fill="white" stroke="black" points="343,-0.5 343,-19.5 408,-19.5 408,-0.5 343,-0.5"/>
<text text-anchor="middle" x="375.5" y="-7.5" font-family="Helvetica,sans-Serif" font-size="10.00">captdnsInit</text>
</a>
</g>
</g>
<!-- Node3&#45;&gt;Node4 -->
<g id="edge3" class="edge"><title>Node3&#45;&gt;Node4</title>
<path fill="none" stroke="midnightblue" d="M317.252,-3.28397C325.948,-3.17613 334.854,-3.32502 342.972,-3.73064"/>
<polygon fill="midnightblue" stroke="midnightblue" points="317.111,0.213731 307.199,-3.5285 317.281,-6.7842 317.111,0.213731"/>
</g>
<!-- Node4&#45;&gt;Node3 -->
<g id="edge4" class="edge"><title>Node4&#45;&gt;Node3</title>
<path fill="none" stroke="midnightblue" d="M332.86,-16.6342C324.363,-16.8311 315.488,-16.7769 307.199,-16.4715"/>
<polygon fill="midnightblue" stroke="midnightblue" points="333.105,-20.1277 342.972,-16.2694 332.853,-13.1323 333.105,-20.1277"/>
</g>
</g>
</svg>
