<?xml version="1.0" encoding="UTF-8" standalone="no"?>
<!DOCTYPE svg PUBLIC "-//W3C//DTD SVG 1.1//EN"
 "http://www.w3.org/Graphics/SVG/1.1/DTD/svg11.dtd">
<!-- Generated by graphviz version 2.38.0 (20140413.2041)
 -->
<!-- Title: cgiWifiSetMode Pages: 1 -->
<svg width="729pt" height="294pt"
 viewBox="0.00 0.00 729.00 294.00" xmlns="http://www.w3.org/2000/svg" xmlns:xlink="http://www.w3.org/1999/xlink">
<g id="graph0" class="graph" transform="scale(1 1) rotate(0) translate(4 290)">
<title>cgiWifiSetMode</title>
<polygon fill="white" stroke="none" points="-4,4 -4,-290 725,-290 725,4 -4,4"/>
<!-- Node86 -->
<g id="node1" class="node"><title>Node86</title>
<polygon fill="#bfbfbf" stroke="black" points="0,-133.5 0,-152.5 86,-152.5 86,-133.5 0,-133.5"/>
<text text-anchor="middle" x="43" y="-140.5" font-family="Helvetica,sans-Serif" font-size="10.00">cgiWifiSetMode</text>
</g>
<!-- Node87 -->
<g id="node2" class="node"><title>Node87</title>
<g id="a_node2"><a xlink:href="httpd_8c.html#a5024249acf005b3e40a1257a2267532b" target="_top" xlink:title="httpdFindArg">
<polygon fill="white" stroke="black" points="131,-190.5 131,-209.5 203,-209.5 203,-190.5 131,-190.5"/>
<text text-anchor="middle" x="167" y="-197.5" font-family="Helvetica,sans-Serif" font-size="10.00">httpdFindArg</text>
</a>
</g>
</g>
<!-- Node86&#45;&gt;Node87 -->
<g id="edge1" class="edge"><title>Node86&#45;&gt;Node87</title>
<path fill="none" stroke="midnightblue" d="M63.1165,-152.616C78.8362,-160.45 101.74,-171.697 122,-181 125.828,-182.758 129.863,-184.563 133.873,-186.329"/>
<polygon fill="midnightblue" stroke="midnightblue" points="132.509,-189.553 143.075,-190.336 135.304,-183.135 132.509,-189.553"/>
</g>
<!-- Node90 -->
<g id="node5" class="node"><title>Node90</title>
<g id="a_node5"><a xlink:href="httpd_8c.html#ab27493bff23508040d0c672a95ecd3b6" target="_top" xlink:title="httpdRedirect">
<polygon fill="white" stroke="black" points="129.5,-152.5 129.5,-171.5 204.5,-171.5 204.5,-152.5 129.5,-152.5"/>
<text text-anchor="middle" x="167" y="-159.5" font-family="Helvetica,sans-Serif" font-size="10.00">httpdRedirect</text>
</a>
</g>
</g>
<!-- Node86&#45;&gt;Node90 -->
<g id="edge4" class="edge"><title>Node86&#45;&gt;Node90</title>
<path fill="none" stroke="midnightblue" d="M86.3273,-149.592C96.9666,-151.249 108.445,-153.036 119.285,-154.725"/>
<polygon fill="midnightblue" stroke="midnightblue" points="119.015,-158.225 129.435,-156.305 120.092,-151.308 119.015,-158.225"/>
</g>
<!-- Node105 -->
<g id="node20" class="node"><title>Node105</title>
<g id="a_node20"><a xlink:href="user__interface_8h.html#a80e0119dbfcaaa43025fe2135d3d1efc" target="_top" xlink:title="system_restart">
<polygon fill="white" stroke="black" points="126,-114.5 126,-133.5 208,-133.5 208,-114.5 126,-114.5"/>
<text text-anchor="middle" x="167" y="-121.5" font-family="Helvetica,sans-Serif" font-size="10.00">system_restart</text>
</a>
</g>
</g>
<!-- Node86&#45;&gt;Node105 -->
<g id="edge22" class="edge"><title>Node86&#45;&gt;Node105</title>
<path fill="none" stroke="midnightblue" d="M86.3273,-136.408C95.8279,-134.928 105.997,-133.345 115.784,-131.821"/>
<polygon fill="midnightblue" stroke="midnightblue" points="116.458,-135.258 125.8,-130.261 115.381,-128.341 116.458,-135.258"/>
</g>
<!-- Node106 -->
<g id="node21" class="node"><title>Node106</title>
<g id="a_node21"><a xlink:href="user__interface_8h.html#a0c11c2ac27f7902a4729d3ec6a9365bb" target="_top" xlink:title="wifi_set_opmode">
<polygon fill="white" stroke="black" points="122,-76.5 122,-95.5 212,-95.5 212,-76.5 122,-76.5"/>
<text text-anchor="middle" x="167" y="-83.5" font-family="Helvetica,sans-Serif" font-size="10.00">wifi_set_opmode</text>
</a>
</g>
</g>
<!-- Node86&#45;&gt;Node106 -->
<g id="edge23" class="edge"><title>Node86&#45;&gt;Node106</title>
<path fill="none" stroke="midnightblue" d="M63.1165,-133.384C78.8362,-125.55 101.74,-114.303 122,-105 125.828,-103.242 129.863,-101.437 133.873,-99.6707"/>
<polygon fill="midnightblue" stroke="midnightblue" points="135.304,-102.865 143.075,-95.6642 132.509,-96.447 135.304,-102.865"/>
</g>
<!-- Node88 -->
<g id="node3" class="node"><title>Node88</title>
<g id="a_node3"><a xlink:href="httpd_8c.html#a45e5cfc52bcba530447be34fd5bae705" target="_top" xlink:title="httpdUrlDecode">
<polygon fill="white" stroke="black" points="248,-190.5 248,-209.5 333,-209.5 333,-190.5 248,-190.5"/>
<text text-anchor="middle" x="290.5" y="-197.5" font-family="Helvetica,sans-Serif" font-size="10.00">httpdUrlDecode</text>
</a>
</g>
</g>
<!-- Node87&#45;&gt;Node88 -->
<g id="edge2" class="edge"><title>Node87&#45;&gt;Node88</title>
<path fill="none" stroke="midnightblue" d="M203.143,-200C213.984,-200 226.157,-200 237.868,-200"/>
<polygon fill="midnightblue" stroke="midnightblue" points="237.995,-203.5 247.995,-200 237.995,-196.5 237.995,-203.5"/>
</g>
<!-- Node89 -->
<g id="node4" class="node"><title>Node89</title>
<g id="a_node4"><a xlink:href="httpd_8c.html#a635d1e810633b2b48d28d0be7357570a" target="_top" xlink:title="httpdHexVal">
<polygon fill="white" stroke="black" points="369,-190.5 369,-209.5 440,-209.5 440,-190.5 369,-190.5"/>
<text text-anchor="middle" x="404.5" y="-197.5" font-family="Helvetica,sans-Serif" font-size="10.00">httpdHexVal</text>
</a>
</g>
</g>
<!-- Node88&#45;&gt;Node89 -->
<g id="edge3" class="edge"><title>Node88&#45;&gt;Node89</title>
<path fill="none" stroke="midnightblue" d="M333.205,-200C341.517,-200 350.28,-200 358.692,-200"/>
<polygon fill="midnightblue" stroke="midnightblue" points="358.724,-203.5 368.724,-200 358.724,-196.5 358.724,-203.5"/>
</g>
<!-- Node91 -->
<g id="node6" class="node"><title>Node91</title>
<g id="a_node6"><a xlink:href="tinyprintf_8c.html#a9738cbc6c538d210941db282e240c7d6" target="_top" xlink:title="tfp_snprintf">
<polygon fill="white" stroke="black" points="258,-114.5 258,-133.5 323,-133.5 323,-114.5 258,-114.5"/>
<text text-anchor="middle" x="290.5" y="-121.5" font-family="Helvetica,sans-Serif" font-size="10.00">tfp_snprintf</text>
</a>
</g>
</g>
<!-- Node90&#45;&gt;Node91 -->
<g id="edge5" class="edge"><title>Node90&#45;&gt;Node91</title>
<path fill="none" stroke="midnightblue" d="M198.66,-152.411C213.912,-147.641 232.551,-141.811 248.967,-136.677"/>
<polygon fill="midnightblue" stroke="midnightblue" points="250.351,-139.911 258.85,-133.586 248.261,-133.231 250.351,-139.911"/>
</g>
<!-- Node104 -->
<g id="node19" class="node"><title>Node104</title>
<g id="a_node19"><a xlink:href="httpd_8c.html#a1a143f6c427d66e2561895cf193fc535" target="_top" xlink:title="httpdSend">
<polygon fill="white" stroke="black" points="260,-152.5 260,-171.5 321,-171.5 321,-152.5 260,-152.5"/>
<text text-anchor="middle" x="290.5" y="-159.5" font-family="Helvetica,sans-Serif" font-size="10.00">httpdSend</text>
</a>
</g>
</g>
<!-- Node90&#45;&gt;Node104 -->
<g id="edge21" class="edge"><title>Node90&#45;&gt;Node104</title>
<path fill="none" stroke="midnightblue" d="M204.784,-162C218.947,-162 235.18,-162 249.622,-162"/>
<polygon fill="midnightblue" stroke="midnightblue" points="249.766,-165.5 259.766,-162 249.766,-158.5 249.766,-165.5"/>
</g>
<!-- Node92 -->
<g id="node7" class="node"><title>Node92</title>
<g id="a_node7"><a xlink:href="tinyprintf_8c.html#ac8c8a66133cf0d7009c0d73b55311a44" target="_top" xlink:title="tfp_vsnprintf">
<polygon fill="white" stroke="black" points="369,-114.5 369,-133.5 440,-133.5 440,-114.5 369,-114.5"/>
<text text-anchor="middle" x="404.5" y="-121.5" font-family="Helvetica,sans-Serif" font-size="10.00">tfp_vsnprintf</text>
</a>
</g>
</g>
<!-- Node91&#45;&gt;Node92 -->
<g id="edge6" class="edge"><title>Node91&#45;&gt;Node92</title>
<path fill="none" stroke="midnightblue" d="M323.295,-124C334.299,-124 346.848,-124 358.699,-124"/>
<polygon fill="midnightblue" stroke="midnightblue" points="358.877,-127.5 368.877,-124 358.877,-120.5 358.877,-127.5"/>
</g>
<!-- Node93 -->
<g id="node8" class="node"><title>Node93</title>
<g id="a_node8"><a xlink:href="tinyprintf_8c.html#a5877e42444463efc71a91b5fe76a6145" target="_top" xlink:title="tfp_format">
<polygon fill="white" stroke="black" points="488.5,-133.5 488.5,-152.5 549.5,-152.5 549.5,-133.5 488.5,-133.5"/>
<text text-anchor="middle" x="519" y="-140.5" font-family="Helvetica,sans-Serif" font-size="10.00">tfp_format</text>
</a>
</g>
</g>
<!-- Node92&#45;&gt;Node93 -->
<g id="edge7" class="edge"><title>Node92&#45;&gt;Node93</title>
<path fill="none" stroke="midnightblue" d="M440.172,-129.856C452.176,-131.883 465.726,-134.171 478.115,-136.264"/>
<polygon fill="midnightblue" stroke="midnightblue" points="477.747,-139.751 488.19,-137.965 478.913,-132.849 477.747,-139.751"/>
</g>
<!-- Node103 -->
<g id="node18" class="node"><title>Node103</title>
<g id="a_node18"><a xlink:href="tinyprintf_8c.html#a919051024b2d729e34a54648b3f2462d" target="_top" xlink:title="_vsnprintf_putcf">
<polygon fill="white" stroke="black" points="476,-95.5 476,-114.5 562,-114.5 562,-95.5 476,-95.5"/>
<text text-anchor="middle" x="519" y="-102.5" font-family="Helvetica,sans-Serif" font-size="10.00">_vsnprintf_putcf</text>
</a>
</g>
</g>
<!-- Node92&#45;&gt;Node103 -->
<g id="edge20" class="edge"><title>Node92&#45;&gt;Node103</title>
<path fill="none" stroke="midnightblue" d="M440.172,-118.144C448.246,-116.781 457.019,-115.299 465.668,-113.838"/>
<polygon fill="midnightblue" stroke="midnightblue" points="466.438,-117.258 475.715,-112.141 465.272,-110.356 466.438,-117.258"/>
</g>
<!-- Node94 -->
<g id="node9" class="node"><title>Node94</title>
<g id="a_node9"><a xlink:href="tinyprintf_8c.html#aa97593a5e53af85b608ad0910db92d77" target="_top" xlink:title="a2u">
<polygon fill="white" stroke="black" points="606,-266.5 606,-285.5 638,-285.5 638,-266.5 606,-266.5"/>
<text text-anchor="middle" x="622" y="-273.5" font-family="Helvetica,sans-Serif" font-size="10.00">a2u</text>
</a>
</g>
</g>
<!-- Node93&#45;&gt;Node94 -->
<g id="edge8" class="edge"><title>Node93&#45;&gt;Node94</title>
<path fill="none" stroke="midnightblue" d="M526.24,-152.669C538.935,-172.115 569.025,-217.08 598,-252 599.935,-254.332 602.043,-256.716 604.173,-259.034"/>
<polygon fill="midnightblue" stroke="midnightblue" points="601.84,-261.659 611.273,-266.483 606.907,-256.83 601.84,-261.659"/>
</g>
<!-- Node96 -->
<g id="node11" class="node"><title>Node96</title>
<g id="a_node11"><a xlink:href="tinyprintf_8c.html#abcf035dd576671b0cc897de9dd8c75b0" target="_top" xlink:title="ulli2a">
<polygon fill="white" stroke="black" points="682,-209.5 682,-228.5 721,-228.5 721,-209.5 682,-209.5"/>
<text text-anchor="middle" x="701.5" y="-216.5" font-family="Helvetica,sans-Serif" font-size="10.00">ulli2a</text>
</a>
</g>
</g>
<!-- Node93&#45;&gt;Node96 -->
<g id="edge10" class="edge"><title>Node93&#45;&gt;Node96</title>
<path fill="none" stroke="midnightblue" d="M526.062,-152.58C537.593,-169.787 564.548,-205.397 598,-219 621.55,-228.576 650.737,-227.464 671.935,-224.611"/>
<polygon fill="midnightblue" stroke="midnightblue" points="672.585,-228.052 681.93,-223.059 671.511,-221.135 672.585,-228.052"/>
</g>
<!-- Node97 -->
<g id="node12" class="node"><title>Node97</title>
<g id="a_node12"><a xlink:href="tinyprintf_8c.html#a1d61347854a8c290d59b4a21efcefd75" target="_top" xlink:title="uli2a">
<polygon fill="white" stroke="black" points="683,-85.5 683,-104.5 720,-104.5 720,-85.5 683,-85.5"/>
<text text-anchor="middle" x="701.5" y="-92.5" font-family="Helvetica,sans-Serif" font-size="10.00">uli2a</text>
</a>
</g>
</g>
<!-- Node93&#45;&gt;Node97 -->
<g id="edge11" class="edge"><title>Node93&#45;&gt;Node97</title>
<path fill="none" stroke="midnightblue" d="M541.916,-133.388C548.419,-130.455 555.531,-127.167 562,-124 578.249,-116.046 580.671,-110.198 598,-105 622.5,-97.6504 651.628,-95.3923 672.56,-94.8303"/>
<polygon fill="midnightblue" stroke="midnightblue" points="672.746,-98.3279 682.691,-94.673 672.637,-91.3287 672.746,-98.3279"/>
</g>
<!-- Node98 -->
<g id="node13" class="node"><title>Node98</title>
<g id="a_node13"><a xlink:href="tinyprintf_8c.html#ac87ff66a592723f55692eaf8e3f19df8" target="_top" xlink:title="ui2a">
<polygon fill="white" stroke="black" points="684,-28.5 684,-47.5 719,-47.5 719,-28.5 684,-28.5"/>
<text text-anchor="middle" x="701.5" y="-35.5" font-family="Helvetica,sans-Serif" font-size="10.00">ui2a</text>
</a>
</g>
</g>
<!-- Node93&#45;&gt;Node98 -->
<g id="edge12" class="edge"><title>Node93&#45;&gt;Node98</title>
<path fill="none" stroke="midnightblue" d="M544.644,-133.35C550.514,-130.649 556.63,-127.486 562,-124 579.956,-112.345 580.402,-104.189 598,-92 622.663,-74.918 653.382,-59.4099 674.728,-49.4405"/>
<polygon fill="midnightblue" stroke="midnightblue" points="676.195,-52.6186 683.821,-45.264 673.273,-46.2575 676.195,-52.6186"/>
</g>
<!-- Node99 -->
<g id="node14" class="node"><title>Node99</title>
<g id="a_node14"><a xlink:href="tinyprintf_8c.html#a6252dbfebb2c8783c4e3107d551082dd" target="_top" xlink:title="putchw">
<polygon fill="white" stroke="black" points="598,-114.5 598,-133.5 646,-133.5 646,-114.5 598,-114.5"/>
<text text-anchor="middle" x="622" y="-121.5" font-family="Helvetica,sans-Serif" font-size="10.00">putchw</text>
</a>
</g>
</g>
<!-- Node93&#45;&gt;Node99 -->
<g id="edge13" class="edge"><title>Node93&#45;&gt;Node99</title>
<path fill="none" stroke="midnightblue" d="M549.757,-137.402C561.758,-135.144 575.652,-132.531 587.965,-130.215"/>
<polygon fill="midnightblue" stroke="midnightblue" points="588.68,-133.642 597.86,-128.353 587.386,-126.762 588.68,-133.642"/>
</g>
<!-- Node100 -->
<g id="node15" class="node"><title>Node100</title>
<g id="a_node15"><a xlink:href="tinyprintf_8c.html#a49c6d2b3d4088012f2c1fe344eef69f3" target="_top" xlink:title="lli2a">
<polygon fill="white" stroke="black" points="605,-190.5 605,-209.5 639,-209.5 639,-190.5 605,-190.5"/>
<text text-anchor="middle" x="622" y="-197.5" font-family="Helvetica,sans-Serif" font-size="10.00">lli2a</text>
</a>
</g>
</g>
<!-- Node93&#45;&gt;Node100 -->
<g id="edge14" class="edge"><title>Node93&#45;&gt;Node100</title>
<path fill="none" stroke="midnightblue" d="M537.133,-152.669C553.237,-161.757 577.533,-175.469 595.837,-185.799"/>
<polygon fill="midnightblue" stroke="midnightblue" points="594.358,-188.983 604.787,-190.85 597.798,-182.887 594.358,-188.983"/>
</g>
<!-- Node101 -->
<g id="node16" class="node"><title>Node101</title>
<g id="a_node16"><a xlink:href="tinyprintf_8c.html#afebb7696337c3f599b5e8db35c560684" target="_top" xlink:title="li2a">
<polygon fill="white" stroke="black" points="606,-152.5 606,-171.5 638,-171.5 638,-152.5 606,-152.5"/>
<text text-anchor="middle" x="622" y="-159.5" font-family="Helvetica,sans-Serif" font-size="10.00">li2a</text>
</a>
</g>
</g>
<!-- Node93&#45;&gt;Node101 -->
<g id="edge16" class="edge"><title>Node93&#45;&gt;Node101</title>
<path fill="none" stroke="midnightblue" d="M549.757,-148.598C564.41,-151.354 581.882,-154.641 595.856,-157.27"/>
<polygon fill="midnightblue" stroke="midnightblue" points="595.282,-160.723 605.756,-159.132 596.576,-153.844 595.282,-160.723"/>
</g>
<!-- Node102 -->
<g id="node17" class="node"><title>Node102</title>
<g id="a_node17"><a xlink:href="tinyprintf_8c.html#a90f9fd8f2133cda7f50be8d67823405c" target="_top" xlink:title="i2a">
<polygon fill="white" stroke="black" points="607.5,-0.5 607.5,-19.5 636.5,-19.5 636.5,-0.5 607.5,-0.5"/>
<text text-anchor="middle" x="622" y="-7.5" font-family="Helvetica,sans-Serif" font-size="10.00">i2a</text>
</a>
</g>
</g>
<!-- Node93&#45;&gt;Node102 -->
<g id="edge18" class="edge"><title>Node93&#45;&gt;Node102</title>
<path fill="none" stroke="midnightblue" d="M549.031,-133.445C553.789,-130.928 558.349,-127.817 562,-124 591.781,-92.8693 574.668,-70.2163 598,-34 599.477,-31.7077 601.192,-29.444 603.007,-27.2764"/>
<polygon fill="midnightblue" stroke="midnightblue" points="605.96,-29.2407 610.211,-19.536 600.836,-24.4716 605.96,-29.2407"/>
</g>
<!-- Node95 -->
<g id="node10" class="node"><title>Node95</title>
<g id="a_node10"><a xlink:href="tinyprintf_8c.html#aa853a0c5ba64fa2546d488b86192e7e3" target="_top" xlink:title="a2d">
<polygon fill="white" stroke="black" points="685.5,-266.5 685.5,-285.5 717.5,-285.5 717.5,-266.5 685.5,-266.5"/>
<text text-anchor="middle" x="701.5" y="-273.5" font-family="Helvetica,sans-Serif" font-size="10.00">a2d</text>
</a>
</g>
</g>
<!-- Node94&#45;&gt;Node95 -->
<g id="edge9" class="edge"><title>Node94&#45;&gt;Node95</title>
<path fill="none" stroke="midnightblue" d="M638.312,-276C648.888,-276 663.197,-276 675.423,-276"/>
<polygon fill="midnightblue" stroke="midnightblue" points="675.484,-279.5 685.484,-276 675.484,-272.5 675.484,-279.5"/>
</g>
<!-- Node100&#45;&gt;Node96 -->
<g id="edge15" class="edge"><title>Node100&#45;&gt;Node96</title>
<path fill="none" stroke="midnightblue" d="M639.058,-203.937C648.563,-206.267 660.88,-209.287 671.987,-212.01"/>
<polygon fill="midnightblue" stroke="midnightblue" points="671.187,-215.417 681.733,-214.399 672.854,-208.619 671.187,-215.417"/>
</g>
<!-- Node101&#45;&gt;Node97 -->
<g id="edge17" class="edge"><title>Node101&#45;&gt;Node97</title>
<path fill="none" stroke="midnightblue" d="M634.76,-152.405C638.385,-149.416 642.375,-146.092 646,-143 658.11,-132.669 671.531,-120.854 682.024,-111.531"/>
<polygon fill="midnightblue" stroke="midnightblue" points="684.593,-113.93 689.731,-104.664 679.936,-108.703 684.593,-113.93"/>
</g>
<!-- Node102&#45;&gt;Node98 -->
<g id="edge19" class="edge"><title>Node102&#45;&gt;Node98</title>
<path fill="none" stroke="midnightblue" d="M636.855,-15.0058C647.231,-18.7543 661.735,-23.9945 674.277,-28.5258"/>
<polygon fill="midnightblue" stroke="midnightblue" points="673.204,-31.8596 683.798,-31.9659 675.583,-25.2761 673.204,-31.8596"/>
</g>
</g>
</svg>
