<?xml version="1.0" encoding="UTF-8" standalone="no"?>
<!DOCTYPE svg PUBLIC "-//W3C//DTD SVG 1.1//EN"
 "http://www.w3.org/Graphics/SVG/1.1/DTD/svg11.dtd">
<!-- Generated by graphviz version 2.38.0 (20140413.2041)
 -->
<!-- Title: wifiScanDoneCb Pages: 1 -->
<svg width="521pt" height="66pt"
 viewBox="0.00 0.00 521.00 66.00" xmlns="http://www.w3.org/2000/svg" xmlns:xlink="http://www.w3.org/1999/xlink">
<g id="graph0" class="graph" transform="scale(1 1) rotate(0) translate(4 62)">
<title>wifiScanDoneCb</title>
<polygon fill="white" stroke="none" points="-4,4 -4,-62 517,-62 517,4 -4,4"/>
<!-- Node159 -->
<g id="node1" class="node"><title>Node159</title>
<polygon fill="#bfbfbf" stroke="black" points="0,-19.5 0,-38.5 90,-38.5 90,-19.5 0,-19.5"/>
<text text-anchor="middle" x="45" y="-26.5" font-family="Helvetica,sans-Serif" font-size="10.00">wifiScanDoneCb</text>
</g>
<!-- Node160 -->
<g id="node2" class="node"><title>Node160</title>
<g id="a_node2"><a xlink:href="cgiwifi_8c.html#ad14fc148ee7c69e5c3ba0357263016d7" target="_top" xlink:title="wifiStartScan">
<polygon fill="white" stroke="black" points="126,-19.5 126,-38.5 201,-38.5 201,-19.5 126,-19.5"/>
<text text-anchor="middle" x="163.5" y="-26.5" font-family="Helvetica,sans-Serif" font-size="10.00">wifiStartScan</text>
</a>
</g>
</g>
<!-- Node159&#45;&gt;Node160 -->
<g id="edge1" class="edge"><title>Node159&#45;&gt;Node160</title>
<path fill="none" stroke="midnightblue" d="M100.198,-29C108.937,-29 117.797,-29 125.988,-29"/>
<polygon fill="midnightblue" stroke="midnightblue" points="100.044,-25.5001 90.0437,-29 100.044,-32.5001 100.044,-25.5001"/>
</g>
<!-- Node161 -->
<g id="node3" class="node"><title>Node161</title>
<g id="a_node3"><a xlink:href="cgiwifi_8h.html#aa1b2a25d59b9eecb6f57b7d698686064" target="_top" xlink:title="cgiWiFiScan">
<polygon fill="white" stroke="black" points="237,-38.5 237,-57.5 309,-57.5 309,-38.5 237,-38.5"/>
<text text-anchor="middle" x="273" y="-45.5" font-family="Helvetica,sans-Serif" font-size="10.00">cgiWiFiScan</text>
</a>
</g>
</g>
<!-- Node160&#45;&gt;Node161 -->
<g id="edge2" class="edge"><title>Node160&#45;&gt;Node161</title>
<path fill="none" stroke="midnightblue" d="M211.169,-37.2485C219.81,-38.7757 228.699,-40.3468 236.923,-41.8003"/>
<polygon fill="midnightblue" stroke="midnightblue" points="211.651,-33.7795 201.195,-35.4856 210.433,-40.6727 211.651,-33.7795"/>
</g>
<!-- Node162 -->
<g id="node4" class="node"><title>Node162</title>
<g id="a_node4"><a xlink:href="cgiwifi_8h.html#af6b908224e83a205c09864b0d73019ae" target="_top" xlink:title="cgiWifiInit">
<polygon fill="white" stroke="black" points="243,-0.5 243,-19.5 303,-19.5 303,-0.5 243,-0.5"/>
<text text-anchor="middle" x="273" y="-7.5" font-family="Helvetica,sans-Serif" font-size="10.00">cgiWifiInit</text>
</a>
</g>
</g>
<!-- Node160&#45;&gt;Node162 -->
<g id="edge3" class="edge"><title>Node160&#45;&gt;Node162</title>
<path fill="none" stroke="midnightblue" d="M211.324,-20.7242C222.068,-18.8252 233.187,-16.8599 242.927,-15.1385"/>
<polygon fill="midnightblue" stroke="midnightblue" points="210.433,-17.3273 201.195,-22.5144 211.651,-24.2205 210.433,-17.3273"/>
</g>
<!-- Node163 -->
<g id="node5" class="node"><title>Node163</title>
<g id="a_node5"><a xlink:href="httpd_8h.html#a74eb356c950228c2f024f081f7beb830" target="_top" xlink:title="httpdInit">
<polygon fill="white" stroke="black" points="345,-0.5 345,-19.5 397,-19.5 397,-0.5 345,-0.5"/>
<text text-anchor="middle" x="371" y="-7.5" font-family="Helvetica,sans-Serif" font-size="10.00">httpdInit</text>
</a>
</g>
</g>
<!-- Node162&#45;&gt;Node163 -->
<g id="edge4" class="edge"><title>Node162&#45;&gt;Node163</title>
<path fill="none" stroke="midnightblue" d="M313.103,-10C323.848,-10 335.21,-10 344.931,-10"/>
<polygon fill="midnightblue" stroke="midnightblue" points="313.064,-6.5001 303.064,-10 313.064,-13.5001 313.064,-6.5001"/>
</g>
<!-- Node164 -->
<g id="node6" class="node"><title>Node164</title>
<g id="a_node6"><a xlink:href="httpd__user__init_8h.html#a6abf56883c8e03334f42bfb79aa8b095" target="_top" xlink:title="httpd_user_init">
<polygon fill="white" stroke="black" points="433,-0.5 433,-19.5 513,-19.5 513,-0.5 433,-0.5"/>
<text text-anchor="middle" x="473" y="-7.5" font-family="Helvetica,sans-Serif" font-size="10.00">httpd_user_init</text>
</a>
</g>
</g>
<!-- Node163&#45;&gt;Node164 -->
<g id="edge5" class="edge"><title>Node163&#45;&gt;Node164</title>
<path fill="none" stroke="midnightblue" d="M407.284,-10C415.526,-10 424.353,-10 432.755,-10"/>
<polygon fill="midnightblue" stroke="midnightblue" points="407.234,-6.5001 397.234,-10 407.234,-13.5001 407.234,-6.5001"/>
</g>
</g>
</svg>
