<?xml version="1.0" encoding="UTF-8" standalone="no"?>
<!DOCTYPE svg PUBLIC "-//W3C//DTD SVG 1.1//EN"
 "http://www.w3.org/Graphics/SVG/1.1/DTD/svg11.dtd">
<!-- Generated by graphviz version 2.38.0 (20140413.2041)
 -->
<!-- Title: wifiStartScan Pages: 1 -->
<svg width="395pt" height="66pt"
 viewBox="0.00 0.00 395.00 66.00" xmlns="http://www.w3.org/2000/svg" xmlns:xlink="http://www.w3.org/1999/xlink">
<g id="graph0" class="graph" transform="scale(1 1) rotate(0) translate(4 62)">
<title>wifiStartScan</title>
<polygon fill="white" stroke="none" points="-4,4 -4,-62 391,-62 391,4 -4,4"/>
<!-- Node168 -->
<g id="node1" class="node"><title>Node168</title>
<polygon fill="#bfbfbf" stroke="black" points="0,-19.5 0,-38.5 75,-38.5 75,-19.5 0,-19.5"/>
<text text-anchor="middle" x="37.5" y="-26.5" font-family="Helvetica,sans-Serif" font-size="10.00">wifiStartScan</text>
</g>
<!-- Node169 -->
<g id="node2" class="node"><title>Node169</title>
<g id="a_node2"><a xlink:href="cgiwifi_8h.html#af6b908224e83a205c09864b0d73019ae" target="_top" xlink:title="cgiWifiInit">
<polygon fill="white" stroke="black" points="117,-38.5 117,-57.5 177,-57.5 177,-38.5 117,-38.5"/>
<text text-anchor="middle" x="147" y="-45.5" font-family="Helvetica,sans-Serif" font-size="10.00">cgiWifiInit</text>
</a>
</g>
</g>
<!-- Node168&#45;&gt;Node169 -->
<g id="edge1" class="edge"><title>Node168&#45;&gt;Node169</title>
<path fill="none" stroke="midnightblue" d="M85.3235,-37.2758C96.0678,-39.1748 107.187,-41.1401 116.927,-42.8615"/>
<polygon fill="midnightblue" stroke="midnightblue" points="85.6513,-33.7795 75.1947,-35.4856 84.4329,-40.6727 85.6513,-33.7795"/>
</g>
<!-- Node172 -->
<g id="node5" class="node"><title>Node172</title>
<g id="a_node5"><a xlink:href="cgiwifi_8h.html#aa1b2a25d59b9eecb6f57b7d698686064" target="_top" xlink:title="cgiWiFiScan">
<polygon fill="white" stroke="black" points="111,-0.5 111,-19.5 183,-19.5 183,-0.5 111,-0.5"/>
<text text-anchor="middle" x="147" y="-7.5" font-family="Helvetica,sans-Serif" font-size="10.00">cgiWiFiScan</text>
</a>
</g>
</g>
<!-- Node168&#45;&gt;Node172 -->
<g id="edge4" class="edge"><title>Node168&#45;&gt;Node172</title>
<path fill="none" stroke="midnightblue" d="M85.1693,-20.7515C93.81,-19.2243 102.699,-17.6532 110.923,-16.1997"/>
<polygon fill="midnightblue" stroke="midnightblue" points="84.4329,-17.3273 75.1947,-22.5144 85.6513,-24.2205 84.4329,-17.3273"/>
</g>
<!-- Node170 -->
<g id="node3" class="node"><title>Node170</title>
<g id="a_node3"><a xlink:href="httpd_8h.html#a74eb356c950228c2f024f081f7beb830" target="_top" xlink:title="httpdInit">
<polygon fill="white" stroke="black" points="219,-38.5 219,-57.5 271,-57.5 271,-38.5 219,-38.5"/>
<text text-anchor="middle" x="245" y="-45.5" font-family="Helvetica,sans-Serif" font-size="10.00">httpdInit</text>
</a>
</g>
</g>
<!-- Node169&#45;&gt;Node170 -->
<g id="edge2" class="edge"><title>Node169&#45;&gt;Node170</title>
<path fill="none" stroke="midnightblue" d="M187.103,-48C197.848,-48 209.21,-48 218.931,-48"/>
<polygon fill="midnightblue" stroke="midnightblue" points="187.064,-44.5001 177.064,-48 187.064,-51.5001 187.064,-44.5001"/>
</g>
<!-- Node171 -->
<g id="node4" class="node"><title>Node171</title>
<g id="a_node4"><a xlink:href="httpd__user__init_8h.html#a6abf56883c8e03334f42bfb79aa8b095" target="_top" xlink:title="httpd_user_init">
<polygon fill="white" stroke="black" points="307,-38.5 307,-57.5 387,-57.5 387,-38.5 307,-38.5"/>
<text text-anchor="middle" x="347" y="-45.5" font-family="Helvetica,sans-Serif" font-size="10.00">httpd_user_init</text>
</a>
</g>
</g>
<!-- Node170&#45;&gt;Node171 -->
<g id="edge3" class="edge"><title>Node170&#45;&gt;Node171</title>
<path fill="none" stroke="midnightblue" d="M281.284,-48C289.526,-48 298.353,-48 306.755,-48"/>
<polygon fill="midnightblue" stroke="midnightblue" points="281.234,-44.5001 271.234,-48 281.234,-51.5001 281.234,-44.5001"/>
</g>
</g>
</svg>
