<?xml version="1.0" encoding="UTF-8" standalone="no"?>
<!DOCTYPE svg PUBLIC "-//W3C//DTD SVG 1.1//EN"
 "http://www.w3.org/Graphics/SVG/1.1/DTD/svg11.dtd">
<!-- Generated by graphviz version 2.38.0 (20140413.2041)
 -->
<!-- Title: user/cgiwifi.h Pages: 1 -->
<svg width="862pt" height="812pt"
 viewBox="0.00 0.00 862.00 812.00" xmlns="http://www.w3.org/2000/svg" xmlns:xlink="http://www.w3.org/1999/xlink">
<g id="graph0" class="graph" transform="scale(1 1) rotate(0) translate(4 808)">
<title>user/cgiwifi.h</title>
<polygon fill="white" stroke="none" points="-4,4 -4,-808 858,-808 858,4 -4,4"/>
<!-- Node0 -->
<g id="node1" class="node"><title>Node0</title>
<polygon fill="#bfbfbf" stroke="black" points="168,-784.5 168,-803.5 242,-803.5 242,-784.5 168,-784.5"/>
<text text-anchor="middle" x="205" y="-791.5" font-family="Helvetica,sans-Serif" font-size="10.00">user/cgiwifi.h</text>
</g>
<!-- Node1 -->
<g id="node2" class="node"><title>Node1</title>
<g id="a_node2"><a xlink:href="httpd_8h.html" target="_top" xlink:title="httpd.h">
<polygon fill="white" stroke="black" points="181.5,-728.5 181.5,-747.5 228.5,-747.5 228.5,-728.5 181.5,-728.5"/>
<text text-anchor="middle" x="205" y="-735.5" font-family="Helvetica,sans-Serif" font-size="10.00">httpd.h</text>
</a>
</g>
</g>
<!-- Node0&#45;&gt;Node1 -->
<g id="edge1" class="edge"><title>Node0&#45;&gt;Node1</title>
<path fill="none" stroke="midnightblue" d="M205,-784.083C205,-777.006 205,-766.861 205,-757.986"/>
<polygon fill="midnightblue" stroke="midnightblue" points="208.5,-757.751 205,-747.751 201.5,-757.751 208.5,-757.751"/>
</g>
<!-- Node2 -->
<g id="node3" class="node"><title>Node2</title>
<g id="a_node3"><a xlink:href="c__types_8h.html" target="_top" xlink:title="c_types.h">
<polygon fill="white" stroke="black" points="116.5,-56.5 116.5,-75.5 175.5,-75.5 175.5,-56.5 116.5,-56.5"/>
<text text-anchor="middle" x="146" y="-63.5" font-family="Helvetica,sans-Serif" font-size="10.00">c_types.h</text>
</a>
</g>
</g>
<!-- Node1&#45;&gt;Node2 -->
<g id="edge2" class="edge"><title>Node1&#45;&gt;Node2</title>
<path fill="none" stroke="midnightblue" d="M181.484,-735.272C127.637,-729.908 0,-708.588 0,-627 0,-627 0,-627 0,-177 0,-123.414 63.5131,-92.6623 106.758,-77.9346"/>
<polygon fill="midnightblue" stroke="midnightblue" points="108.027,-81.2022 116.455,-74.7814 105.863,-74.5453 108.027,-81.2022"/>
</g>
<!-- Node5 -->
<g id="node6" class="node"><title>Node5</title>
<g id="a_node6"><a xlink:href="esp8266_8h.html" target="_top" xlink:title="esp8266.h">
<polygon fill="white" stroke="black" points="379,-672.5 379,-691.5 441,-691.5 441,-672.5 379,-672.5"/>
<text text-anchor="middle" x="410" y="-679.5" font-family="Helvetica,sans-Serif" font-size="10.00">esp8266.h</text>
</a>
</g>
</g>
<!-- Node1&#45;&gt;Node5 -->
<g id="edge5" class="edge"><title>Node1&#45;&gt;Node5</title>
<path fill="none" stroke="midnightblue" d="M228.516,-730.806C262.788,-721.778 326.953,-704.876 369.075,-693.78"/>
<polygon fill="midnightblue" stroke="midnightblue" points="369.975,-697.163 378.753,-691.231 368.192,-690.394 369.975,-697.163"/>
</g>
<!-- Node3 -->
<g id="node4" class="node"><title>Node3</title>
<polygon fill="white" stroke="#bfbfbf" points="86.5,-0.5 86.5,-19.5 135.5,-19.5 135.5,-0.5 86.5,-0.5"/>
<text text-anchor="middle" x="111" y="-7.5" font-family="Helvetica,sans-Serif" font-size="10.00">stdint.h</text>
</g>
<!-- Node2&#45;&gt;Node3 -->
<g id="edge3" class="edge"><title>Node2&#45;&gt;Node3</title>
<path fill="none" stroke="midnightblue" d="M140.22,-56.083C135.328,-48.5341 128.173,-37.4948 122.167,-28.2298"/>
<polygon fill="midnightblue" stroke="midnightblue" points="125.048,-26.239 116.672,-19.7511 119.174,-30.0463 125.048,-26.239"/>
</g>
<!-- Node4 -->
<g id="node5" class="node"><title>Node4</title>
<polygon fill="white" stroke="#bfbfbf" points="154,-0.5 154,-19.5 210,-19.5 210,-0.5 154,-0.5"/>
<text text-anchor="middle" x="182" y="-7.5" font-family="Helvetica,sans-Serif" font-size="10.00">stdbool.h</text>
</g>
<!-- Node2&#45;&gt;Node4 -->
<g id="edge4" class="edge"><title>Node2&#45;&gt;Node4</title>
<path fill="none" stroke="midnightblue" d="M151.945,-56.083C156.977,-48.5341 164.337,-37.4948 170.513,-28.2298"/>
<polygon fill="midnightblue" stroke="midnightblue" points="173.531,-30.0131 176.166,-19.7511 167.707,-26.1301 173.531,-30.0131"/>
</g>
<!-- Node5&#45;&gt;Node2 -->
<g id="edge10" class="edge"><title>Node5&#45;&gt;Node2</title>
<path fill="none" stroke="midnightblue" d="M378.94,-681.77C309.153,-681.722 146,-670.926 146,-571 146,-571 146,-571 146,-177 146,-144.948 146,-107.643 146,-85.7489"/>
<polygon fill="midnightblue" stroke="midnightblue" points="149.5,-85.5577 146,-75.5578 142.5,-85.5578 149.5,-85.5577"/>
</g>
<!-- Node6 -->
<g id="node7" class="node"><title>Node6</title>
<polygon fill="white" stroke="#bfbfbf" points="212.5,-616.5 212.5,-635.5 261.5,-635.5 261.5,-616.5 212.5,-616.5"/>
<text text-anchor="middle" x="237" y="-623.5" font-family="Helvetica,sans-Serif" font-size="10.00">ctype.h</text>
</g>
<!-- Node5&#45;&gt;Node6 -->
<g id="edge6" class="edge"><title>Node5&#45;&gt;Node6</title>
<path fill="none" stroke="midnightblue" d="M382.588,-672.444C352.454,-663.038 303.993,-647.911 271.347,-637.721"/>
<polygon fill="midnightblue" stroke="midnightblue" points="272.35,-634.368 261.762,-634.729 270.264,-641.05 272.35,-634.368"/>
</g>
<!-- Node7 -->
<g id="node8" class="node"><title>Node7</title>
<polygon fill="white" stroke="#bfbfbf" points="280,-616.5 280,-635.5 326,-635.5 326,-616.5 280,-616.5"/>
<text text-anchor="middle" x="303" y="-623.5" font-family="Helvetica,sans-Serif" font-size="10.00">stdio.h</text>
</g>
<!-- Node5&#45;&gt;Node7 -->
<g id="edge7" class="edge"><title>Node5&#45;&gt;Node7</title>
<path fill="none" stroke="midnightblue" d="M392.809,-672.324C375.649,-663.664 349.054,-650.242 329.253,-640.249"/>
<polygon fill="midnightblue" stroke="midnightblue" points="330.653,-637.035 320.149,-635.655 327.499,-643.285 330.653,-637.035"/>
</g>
<!-- Node8 -->
<g id="node9" class="node"><title>Node8</title>
<polygon fill="white" stroke="#bfbfbf" points="344,-616.5 344,-635.5 392,-635.5 392,-616.5 344,-616.5"/>
<text text-anchor="middle" x="368" y="-623.5" font-family="Helvetica,sans-Serif" font-size="10.00">stdlib.h</text>
</g>
<!-- Node5&#45;&gt;Node8 -->
<g id="edge8" class="edge"><title>Node5&#45;&gt;Node8</title>
<path fill="none" stroke="midnightblue" d="M403.065,-672.083C397.071,-664.377 388.248,-653.033 380.952,-643.653"/>
<polygon fill="midnightblue" stroke="midnightblue" points="383.709,-641.496 374.806,-635.751 378.183,-645.793 383.709,-641.496"/>
</g>
<!-- Node9 -->
<g id="node10" class="node"><title>Node9</title>
<polygon fill="white" stroke="#bfbfbf" points="716.5,-168.5 716.5,-187.5 765.5,-187.5 765.5,-168.5 716.5,-168.5"/>
<text text-anchor="middle" x="741" y="-175.5" font-family="Helvetica,sans-Serif" font-size="10.00">string.h</text>
</g>
<!-- Node5&#45;&gt;Node9 -->
<g id="edge9" class="edge"><title>Node5&#45;&gt;Node9</title>
<path fill="none" stroke="midnightblue" d="M441.146,-681.179C525.523,-681.11 756.31,-677.075 818,-636 845.488,-617.698 854,-604.024 854,-571 854,-571 854,-571 854,-289 854,-242.402 804.053,-209.143 770.572,-192.083"/>
<polygon fill="midnightblue" stroke="midnightblue" points="771.724,-188.751 761.202,-187.508 768.652,-195.041 771.724,-188.751"/>
</g>
<!-- Node10 -->
<g id="node11" class="node"><title>Node10</title>
<g id="a_node11"><a xlink:href="ets__sys_8h.html" target="_top" xlink:title="ets_sys.h">
<polygon fill="white" stroke="black" points="256.5,-112.5 256.5,-131.5 315.5,-131.5 315.5,-112.5 256.5,-112.5"/>
<text text-anchor="middle" x="286" y="-119.5" font-family="Helvetica,sans-Serif" font-size="10.00">ets_sys.h</text>
</a>
</g>
</g>
<!-- Node5&#45;&gt;Node10 -->
<g id="edge11" class="edge"><title>Node5&#45;&gt;Node10</title>
<path fill="none" stroke="midnightblue" d="M378.887,-678.108C327.541,-672.72 228.222,-659.508 203,-636 180.983,-615.479 184,-601.098 184,-571 184,-571 184,-571 184,-233 184,-188.392 229.66,-154.234 259.881,-136.511"/>
<polygon fill="midnightblue" stroke="midnightblue" points="261.702,-139.503 268.697,-131.545 258.267,-133.404 261.702,-139.503"/>
</g>
<!-- Node12 -->
<g id="node13" class="node"><title>Node12</title>
<g id="a_node13"><a xlink:href="gpio_8h.html" target="_top" xlink:title="gpio.h">
<polygon fill="white" stroke="black" points="602.5,-560.5 602.5,-579.5 645.5,-579.5 645.5,-560.5 602.5,-560.5"/>
<text text-anchor="middle" x="624" y="-567.5" font-family="Helvetica,sans-Serif" font-size="10.00">gpio.h</text>
</a>
</g>
</g>
<!-- Node5&#45;&gt;Node12 -->
<g id="edge14" class="edge"><title>Node5&#45;&gt;Node12</title>
<path fill="none" stroke="midnightblue" d="M429.082,-672.353C448.377,-663.519 478.982,-649.254 505,-636 522.981,-626.84 570.251,-600.796 599.514,-584.591"/>
<polygon fill="midnightblue" stroke="midnightblue" points="601.273,-587.618 608.323,-579.709 597.88,-581.495 601.273,-587.618"/>
</g>
<!-- Node13 -->
<g id="node14" class="node"><title>Node13</title>
<g id="a_node14"><a xlink:href="sdk_2include_2mem_8h.html" target="_top" xlink:title="mem.h">
<polygon fill="white" stroke="black" points="68.5,-616.5 68.5,-635.5 115.5,-635.5 115.5,-616.5 68.5,-616.5"/>
<text text-anchor="middle" x="92" y="-623.5" font-family="Helvetica,sans-Serif" font-size="10.00">mem.h</text>
</a>
</g>
</g>
<!-- Node5&#45;&gt;Node13 -->
<g id="edge15" class="edge"><title>Node5&#45;&gt;Node13</title>
<path fill="none" stroke="midnightblue" d="M378.622,-676.557C327.012,-669.106 221.047,-653.208 132,-636 129.925,-635.599 127.794,-635.17 125.647,-634.725"/>
<polygon fill="midnightblue" stroke="midnightblue" points="126.152,-631.254 115.639,-632.569 124.678,-638.097 126.152,-631.254"/>
</g>
<!-- Node15 -->
<g id="node16" class="node"><title>Node15</title>
<g id="a_node16"><a xlink:href="osapi_8h.html" target="_top" xlink:title="osapi.h">
<polygon fill="white" stroke="black" points="498,-224.5 498,-243.5 546,-243.5 546,-224.5 498,-224.5"/>
<text text-anchor="middle" x="522" y="-231.5" font-family="Helvetica,sans-Serif" font-size="10.00">osapi.h</text>
</a>
</g>
</g>
<!-- Node5&#45;&gt;Node15 -->
<g id="edge18" class="edge"><title>Node5&#45;&gt;Node15</title>
<path fill="none" stroke="midnightblue" d="M441.228,-681.649C523.491,-682.709 743.504,-681.158 797,-636 819.999,-616.586 816,-601.098 816,-571 816,-571 816,-571 816,-345 816,-290.088 633.816,-253.465 556.276,-240.364"/>
<polygon fill="midnightblue" stroke="midnightblue" points="556.497,-236.853 546.059,-238.672 555.353,-243.759 556.497,-236.853"/>
</g>
<!-- Node18 -->
<g id="node19" class="node"><title>Node18</title>
<g id="a_node19"><a xlink:href="user__interface_8h.html" target="_top" xlink:title="user_interface.h">
<polygon fill="white" stroke="black" points="410,-616.5 410,-635.5 496,-635.5 496,-616.5 410,-616.5"/>
<text text-anchor="middle" x="453" y="-623.5" font-family="Helvetica,sans-Serif" font-size="10.00">user_interface.h</text>
</a>
</g>
</g>
<!-- Node5&#45;&gt;Node18 -->
<g id="edge23" class="edge"><title>Node5&#45;&gt;Node18</title>
<path fill="none" stroke="midnightblue" d="M417.101,-672.083C423.237,-664.377 432.27,-653.033 439.739,-643.653"/>
<polygon fill="midnightblue" stroke="midnightblue" points="442.54,-645.754 446.032,-635.751 437.064,-641.394 442.54,-645.754"/>
</g>
<!-- Node28 -->
<g id="node29" class="node"><title>Node28</title>
<g id="a_node29"><a xlink:href="upgrade_8h.html" target="_top" xlink:title="upgrade.h">
<polygon fill="white" stroke="black" points="552.5,-616.5 552.5,-635.5 611.5,-635.5 611.5,-616.5 552.5,-616.5"/>
<text text-anchor="middle" x="582" y="-623.5" font-family="Helvetica,sans-Serif" font-size="10.00">upgrade.h</text>
</a>
</g>
</g>
<!-- Node5&#45;&gt;Node28 -->
<g id="edge42" class="edge"><title>Node5&#45;&gt;Node28</title>
<path fill="none" stroke="midnightblue" d="M437.254,-672.444C466.441,-663.28 512.921,-648.688 545.309,-638.519"/>
<polygon fill="midnightblue" stroke="midnightblue" points="546.381,-641.851 554.874,-635.516 544.284,-635.173 546.381,-641.851"/>
</g>
<!-- Node29 -->
<g id="node30" class="node"><title>Node29</title>
<g id="a_node30"><a xlink:href="esp__sdk__ver_8h.html" target="_top" xlink:title="esp_sdk_ver.h">
<polygon fill="white" stroke="black" points="630,-616.5 630,-635.5 710,-635.5 710,-616.5 630,-616.5"/>
<text text-anchor="middle" x="670" y="-623.5" font-family="Helvetica,sans-Serif" font-size="10.00">esp_sdk_ver.h</text>
</a>
</g>
</g>
<!-- Node5&#45;&gt;Node29 -->
<g id="edge43" class="edge"><title>Node5&#45;&gt;Node29</title>
<path fill="none" stroke="midnightblue" d="M441.104,-674.54C485.424,-665.335 567.222,-648.346 620.082,-637.368"/>
<polygon fill="midnightblue" stroke="midnightblue" points="620.844,-640.784 629.924,-635.324 619.421,-633.93 620.844,-640.784"/>
</g>
<!-- Node30 -->
<g id="node31" class="node"><title>Node30</title>
<g id="a_node31"><a xlink:href="platform_8h.html" target="_top" xlink:title="platform.h">
<polygon fill="white" stroke="black" points="728,-616.5 728,-635.5 788,-635.5 788,-616.5 728,-616.5"/>
<text text-anchor="middle" x="758" y="-623.5" font-family="Helvetica,sans-Serif" font-size="10.00">platform.h</text>
</a>
</g>
</g>
<!-- Node5&#45;&gt;Node30 -->
<g id="edge44" class="edge"><title>Node5&#45;&gt;Node30</title>
<path fill="none" stroke="midnightblue" d="M441.281,-677.308C495.536,-670.718 610.78,-655.902 717.819,-636.093"/>
<polygon fill="midnightblue" stroke="midnightblue" points="718.632,-639.502 727.818,-634.223 717.345,-632.621 718.632,-639.502"/>
</g>
<!-- Node10&#45;&gt;Node2 -->
<g id="edge12" class="edge"><title>Node10&#45;&gt;Node2</title>
<path fill="none" stroke="midnightblue" d="M263.817,-112.444C240.572,-103.478 203.851,-89.314 177.585,-79.1827"/>
<polygon fill="midnightblue" stroke="midnightblue" points="178.669,-75.8497 168.08,-75.5164 176.15,-82.3807 178.669,-75.8497"/>
</g>
<!-- Node11 -->
<g id="node12" class="node"><title>Node11</title>
<g id="a_node12"><a xlink:href="eagle__soc_8h.html" target="_top" xlink:title="eagle_soc.h">
<polygon fill="white" stroke="black" points="251.5,-56.5 251.5,-75.5 320.5,-75.5 320.5,-56.5 251.5,-56.5"/>
<text text-anchor="middle" x="286" y="-63.5" font-family="Helvetica,sans-Serif" font-size="10.00">eagle_soc.h</text>
</a>
</g>
</g>
<!-- Node10&#45;&gt;Node11 -->
<g id="edge13" class="edge"><title>Node10&#45;&gt;Node11</title>
<path fill="none" stroke="midnightblue" d="M286,-112.083C286,-105.006 286,-94.8611 286,-85.9865"/>
<polygon fill="midnightblue" stroke="midnightblue" points="289.5,-85.751 286,-75.7511 282.5,-85.7511 289.5,-85.751"/>
</g>
<!-- Node13&#45;&gt;Node2 -->
<g id="edge17" class="edge"><title>Node13&#45;&gt;Node2</title>
<path fill="none" stroke="midnightblue" d="M83.6699,-616.386C75.7834,-607.801 64.12,-593.923 57,-580 43.2963,-553.203 38,-545.098 38,-515 38,-515 38,-515 38,-177 38,-131.206 86.2493,-97.486 118.249,-80.1584"/>
<polygon fill="midnightblue" stroke="midnightblue" points="119.93,-83.229 127.188,-75.5104 116.701,-77.0184 119.93,-83.229"/>
</g>
<!-- Node14 -->
<g id="node15" class="node"><title>Node14</title>
<polygon fill="white" stroke="#bfbfbf" points="66,-560.5 66,-579.5 118,-579.5 118,-560.5 66,-560.5"/>
<text text-anchor="middle" x="92" y="-567.5" font-family="Helvetica,sans-Serif" font-size="10.00">stddef.h</text>
</g>
<!-- Node13&#45;&gt;Node14 -->
<g id="edge16" class="edge"><title>Node13&#45;&gt;Node14</title>
<path fill="none" stroke="midnightblue" d="M92,-616.083C92,-609.006 92,-598.861 92,-589.986"/>
<polygon fill="midnightblue" stroke="midnightblue" points="95.5001,-589.751 92,-579.751 88.5001,-589.751 95.5001,-589.751"/>
</g>
<!-- Node15&#45;&gt;Node9 -->
<g id="edge19" class="edge"><title>Node15&#45;&gt;Node9</title>
<path fill="none" stroke="midnightblue" d="M546.274,-227.015C585.224,-217.41 661.828,-198.522 706.466,-187.515"/>
<polygon fill="midnightblue" stroke="midnightblue" points="707.411,-190.887 716.282,-185.095 705.735,-184.091 707.411,-190.887"/>
</g>
<!-- Node16 -->
<g id="node17" class="node"><title>Node16</title>
<g id="a_node17"><a xlink:href="os__type_8h.html" target="_top" xlink:title="os_type.h">
<polygon fill="white" stroke="black" points="525.5,-168.5 525.5,-187.5 584.5,-187.5 584.5,-168.5 525.5,-168.5"/>
<text text-anchor="middle" x="555" y="-175.5" font-family="Helvetica,sans-Serif" font-size="10.00">os_type.h</text>
</a>
</g>
</g>
<!-- Node15&#45;&gt;Node16 -->
<g id="edge20" class="edge"><title>Node15&#45;&gt;Node16</title>
<path fill="none" stroke="midnightblue" d="M527.449,-224.083C532.014,-216.613 538.668,-205.724 544.293,-196.52"/>
<polygon fill="midnightblue" stroke="midnightblue" points="547.424,-198.109 549.652,-187.751 541.451,-194.459 547.424,-198.109"/>
</g>
<!-- Node17 -->
<g id="node18" class="node"><title>Node17</title>
<polygon fill="white" stroke="#bfbfbf" points="432.5,-168.5 432.5,-187.5 507.5,-187.5 507.5,-168.5 432.5,-168.5"/>
<text text-anchor="middle" x="470" y="-175.5" font-family="Helvetica,sans-Serif" font-size="10.00">user_config.h</text>
</g>
<!-- Node15&#45;&gt;Node17 -->
<g id="edge22" class="edge"><title>Node15&#45;&gt;Node17</title>
<path fill="none" stroke="midnightblue" d="M513.413,-224.083C505.841,-216.22 494.622,-204.569 485.486,-195.081"/>
<polygon fill="midnightblue" stroke="midnightblue" points="487.885,-192.527 478.427,-187.751 482.842,-197.382 487.885,-192.527"/>
</g>
<!-- Node16&#45;&gt;Node10 -->
<g id="edge21" class="edge"><title>Node16&#45;&gt;Node10</title>
<path fill="none" stroke="midnightblue" d="M525.212,-170.018C522.105,-169.322 518.99,-168.637 516,-168 449.408,-153.806 371.596,-138.94 325.688,-130.346"/>
<polygon fill="midnightblue" stroke="midnightblue" points="326.311,-126.902 315.838,-128.507 325.026,-133.783 326.311,-126.902"/>
</g>
<!-- Node18&#45;&gt;Node12 -->
<g id="edge41" class="edge"><title>Node18&#45;&gt;Node12</title>
<path fill="none" stroke="midnightblue" d="M480.095,-616.444C510.687,-606.783 560.388,-591.088 592.635,-580.905"/>
<polygon fill="midnightblue" stroke="midnightblue" points="593.964,-584.156 602.446,-577.807 591.856,-577.48 593.964,-584.156"/>
</g>
<!-- Node18&#45;&gt;Node16 -->
<g id="edge24" class="edge"><title>Node18&#45;&gt;Node16</title>
<path fill="none" stroke="midnightblue" d="M475.759,-616.43C510.81,-601.579 574,-567.522 574,-515 574,-515 574,-515 574,-289 574,-256.489 565.841,-219.35 560.216,-197.61"/>
<polygon fill="midnightblue" stroke="midnightblue" points="563.541,-196.498 557.562,-187.751 556.782,-198.317 563.541,-196.498"/>
</g>
<!-- Node18&#45;&gt;Node17 -->
<g id="edge39" class="edge"><title>Node18&#45;&gt;Node17</title>
<path fill="none" stroke="midnightblue" d="M455.293,-616.231C459.933,-597.687 470,-553.068 470,-515 470,-515 470,-515 470,-289 470,-256.948 470,-219.643 470,-197.749"/>
<polygon fill="midnightblue" stroke="midnightblue" points="473.5,-197.558 470,-187.558 466.5,-197.558 473.5,-197.558"/>
</g>
<!-- Node19 -->
<g id="node20" class="node"><title>Node19</title>
<g id="a_node20"><a xlink:href="esp-open-lwip_2include_2lwip_2ip__addr_8h.html" target="_top" xlink:title="lwip/ip_addr.h">
<polygon fill="white" stroke="black" points="364.5,-560.5 364.5,-579.5 441.5,-579.5 441.5,-560.5 364.5,-560.5"/>
<text text-anchor="middle" x="403" y="-567.5" font-family="Helvetica,sans-Serif" font-size="10.00">lwip/ip_addr.h</text>
</a>
</g>
</g>
<!-- Node18&#45;&gt;Node19 -->
<g id="edge25" class="edge"><title>Node18&#45;&gt;Node19</title>
<path fill="none" stroke="midnightblue" d="M444.744,-616.083C437.535,-608.298 426.89,-596.801 418.154,-587.367"/>
<polygon fill="midnightblue" stroke="midnightblue" points="420.465,-584.711 411.103,-579.751 415.329,-589.467 420.465,-584.711"/>
</g>
<!-- Node26 -->
<g id="node27" class="node"><title>Node26</title>
<g id="a_node27"><a xlink:href="esp-open-sdk_2sdk_2include_2queue_8h.html" target="_top" xlink:title="queue.h">
<polygon fill="white" stroke="black" points="212.5,-560.5 212.5,-579.5 263.5,-579.5 263.5,-560.5 212.5,-560.5"/>
<text text-anchor="middle" x="238" y="-567.5" font-family="Helvetica,sans-Serif" font-size="10.00">queue.h</text>
</a>
</g>
</g>
<!-- Node18&#45;&gt;Node26 -->
<g id="edge38" class="edge"><title>Node18&#45;&gt;Node26</title>
<path fill="none" stroke="midnightblue" d="M418.476,-616.442C384.21,-607.932 329.93,-594.408 273.433,-580.097"/>
<polygon fill="midnightblue" stroke="midnightblue" points="274.163,-576.671 263.609,-577.606 272.442,-583.457 274.163,-576.671"/>
</g>
<!-- Node27 -->
<g id="node28" class="node"><title>Node27</title>
<g id="a_node28"><a xlink:href="spi__flash_8h.html" target="_top" xlink:title="spi_flash.h">
<polygon fill="white" stroke="black" points="282,-560.5 282,-579.5 346,-579.5 346,-560.5 282,-560.5"/>
<text text-anchor="middle" x="314" y="-567.5" font-family="Helvetica,sans-Serif" font-size="10.00">spi_flash.h</text>
</a>
</g>
</g>
<!-- Node18&#45;&gt;Node27 -->
<g id="edge40" class="edge"><title>Node18&#45;&gt;Node27</title>
<path fill="none" stroke="midnightblue" d="M430.975,-616.444C407.896,-607.478 371.438,-593.314 345.359,-583.183"/>
<polygon fill="midnightblue" stroke="midnightblue" points="346.511,-579.875 335.922,-579.516 343.976,-586.4 346.511,-579.875"/>
</g>
<!-- Node20 -->
<g id="node21" class="node"><title>Node20</title>
<g id="a_node21"><a xlink:href="opt_8h.html" target="_top" xlink:title="lwip/opt.h">
<polygon fill="white" stroke="black" points="344.5,-448.5 344.5,-467.5 403.5,-467.5 403.5,-448.5 344.5,-448.5"/>
<text text-anchor="middle" x="374" y="-455.5" font-family="Helvetica,sans-Serif" font-size="10.00">lwip/opt.h</text>
</a>
</g>
</g>
<!-- Node19&#45;&gt;Node20 -->
<g id="edge26" class="edge"><title>Node19&#45;&gt;Node20</title>
<path fill="none" stroke="midnightblue" d="M400.724,-560.368C396.023,-542.537 385.151,-501.295 378.817,-477.272"/>
<polygon fill="midnightblue" stroke="midnightblue" points="382.199,-476.369 376.265,-467.591 375.43,-478.153 382.199,-476.369"/>
</g>
<!-- Node25 -->
<g id="node26" class="node"><title>Node25</title>
<g id="a_node26"><a xlink:href="def_8h.html" target="_top" xlink:title="lwip/def.h">
<polygon fill="white" stroke="black" points="315.5,-504.5 315.5,-523.5 374.5,-523.5 374.5,-504.5 315.5,-504.5"/>
<text text-anchor="middle" x="345" y="-511.5" font-family="Helvetica,sans-Serif" font-size="10.00">lwip/def.h</text>
</a>
</g>
</g>
<!-- Node19&#45;&gt;Node25 -->
<g id="edge35" class="edge"><title>Node19&#45;&gt;Node25</title>
<path fill="none" stroke="midnightblue" d="M393.681,-560.324C385.107,-552.341 372.188,-540.313 361.812,-530.653"/>
<polygon fill="midnightblue" stroke="midnightblue" points="364.192,-528.086 354.488,-523.834 359.422,-533.21 364.192,-528.086"/>
</g>
<!-- Node21 -->
<g id="node22" class="node"><title>Node21</title>
<g id="a_node22"><a xlink:href="lwipopts_8h.html" target="_top" xlink:title="lwipopts.h">
<polygon fill="white" stroke="black" points="371.5,-336.5 371.5,-355.5 432.5,-355.5 432.5,-336.5 371.5,-336.5"/>
<text text-anchor="middle" x="402" y="-343.5" font-family="Helvetica,sans-Serif" font-size="10.00">lwipopts.h</text>
</a>
</g>
</g>
<!-- Node20&#45;&gt;Node21 -->
<g id="edge27" class="edge"><title>Node20&#45;&gt;Node21</title>
<path fill="none" stroke="midnightblue" d="M382.751,-448.286C390.563,-439.84 401.451,-426.246 406,-412 410.836,-396.854 409.152,-378.734 406.652,-365.478"/>
<polygon fill="midnightblue" stroke="midnightblue" points="410.058,-364.67 404.485,-355.659 403.222,-366.178 410.058,-364.67"/>
</g>
<!-- Node22 -->
<g id="node23" class="node"><title>Node22</title>
<g id="a_node23"><a xlink:href="esp-open-sdk_2esp-open-lwip_2include_2lwip_2debug_8h.html" target="_top" xlink:title="lwip/debug.h">
<polygon fill="white" stroke="black" points="326.5,-392.5 326.5,-411.5 397.5,-411.5 397.5,-392.5 326.5,-392.5"/>
<text text-anchor="middle" x="362" y="-399.5" font-family="Helvetica,sans-Serif" font-size="10.00">lwip/debug.h</text>
</a>
</g>
</g>
<!-- Node20&#45;&gt;Node22 -->
<g id="edge28" class="edge"><title>Node20&#45;&gt;Node22</title>
<path fill="none" stroke="midnightblue" d="M372.018,-448.083C370.428,-440.927 368.141,-430.635 366.154,-421.691"/>
<polygon fill="midnightblue" stroke="midnightblue" points="369.531,-420.754 363.945,-411.751 362.697,-422.272 369.531,-420.754"/>
</g>
<!-- Node22&#45;&gt;Node21 -->
<g id="edge29" class="edge"><title>Node22&#45;&gt;Node21</title>
<path fill="none" stroke="midnightblue" d="M368.605,-392.083C374.255,-384.455 382.545,-373.264 389.451,-363.941"/>
<polygon fill="midnightblue" stroke="midnightblue" points="392.378,-365.87 395.518,-355.751 386.753,-361.703 392.378,-365.87"/>
</g>
<!-- Node23 -->
<g id="node24" class="node"><title>Node23</title>
<g id="a_node24"><a xlink:href="arch_8h.html" target="_top" xlink:title="lwip/arch.h">
<polygon fill="white" stroke="black" points="266,-336.5 266,-355.5 330,-355.5 330,-336.5 266,-336.5"/>
<text text-anchor="middle" x="298" y="-343.5" font-family="Helvetica,sans-Serif" font-size="10.00">lwip/arch.h</text>
</a>
</g>
</g>
<!-- Node22&#45;&gt;Node23 -->
<g id="edge30" class="edge"><title>Node22&#45;&gt;Node23</title>
<path fill="none" stroke="midnightblue" d="M351.717,-392.324C342.164,-384.263 327.72,-372.077 316.216,-362.369"/>
<polygon fill="midnightblue" stroke="midnightblue" points="318.37,-359.608 308.47,-355.834 313.856,-364.958 318.37,-359.608"/>
</g>
<!-- Node24 -->
<g id="node25" class="node"><title>Node24</title>
<g id="a_node25"><a xlink:href="cc_8h.html" target="_top" xlink:title="arch/cc.h">
<polygon fill="white" stroke="black" points="269.5,-280.5 269.5,-299.5 326.5,-299.5 326.5,-280.5 269.5,-280.5"/>
<text text-anchor="middle" x="298" y="-287.5" font-family="Helvetica,sans-Serif" font-size="10.00">arch/cc.h</text>
</a>
</g>
</g>
<!-- Node23&#45;&gt;Node24 -->
<g id="edge31" class="edge"><title>Node23&#45;&gt;Node24</title>
<path fill="none" stroke="midnightblue" d="M298,-336.083C298,-329.006 298,-318.861 298,-309.986"/>
<polygon fill="midnightblue" stroke="midnightblue" points="301.5,-309.751 298,-299.751 294.5,-309.751 301.5,-309.751"/>
</g>
<!-- Node24&#45;&gt;Node2 -->
<g id="edge32" class="edge"><title>Node24&#45;&gt;Node2</title>
<path fill="none" stroke="midnightblue" d="M292.041,-280.297C269.392,-247.217 188.388,-128.909 157.804,-84.2407"/>
<polygon fill="midnightblue" stroke="midnightblue" points="160.62,-82.1577 152.083,-75.8837 154.844,-86.1124 160.62,-82.1577"/>
</g>
<!-- Node24&#45;&gt;Node10 -->
<g id="edge33" class="edge"><title>Node24&#45;&gt;Node10</title>
<path fill="none" stroke="midnightblue" d="M297.355,-280.075C295.466,-253.945 289.919,-177.211 287.343,-141.577"/>
<polygon fill="midnightblue" stroke="midnightblue" points="290.831,-141.29 286.619,-131.568 283.85,-141.794 290.831,-141.29"/>
</g>
<!-- Node24&#45;&gt;Node15 -->
<g id="edge34" class="edge"><title>Node24&#45;&gt;Node15</title>
<path fill="none" stroke="midnightblue" d="M326.826,-282.051C368.066,-272.109 443.776,-253.858 487.797,-243.245"/>
<polygon fill="midnightblue" stroke="midnightblue" points="488.838,-246.595 497.739,-240.849 487.198,-239.79 488.838,-246.595"/>
</g>
<!-- Node25&#45;&gt;Node20 -->
<g id="edge37" class="edge"><title>Node25&#45;&gt;Node20</title>
<path fill="none" stroke="midnightblue" d="M349.789,-504.083C353.758,-496.691 359.525,-485.953 364.435,-476.811"/>
<polygon fill="midnightblue" stroke="midnightblue" points="367.653,-478.217 369.3,-467.751 361.486,-474.905 367.653,-478.217"/>
</g>
<!-- Node25&#45;&gt;Node23 -->
<g id="edge36" class="edge"><title>Node25&#45;&gt;Node23</title>
<path fill="none" stroke="midnightblue" d="M342.473,-504.075C335.075,-477.945 313.349,-401.211 303.26,-365.577"/>
<polygon fill="midnightblue" stroke="midnightblue" points="306.518,-364.236 300.426,-355.568 299.783,-366.143 306.518,-364.236"/>
</g>
</g>
</svg>
