<?xml version="1.0" encoding="UTF-8" standalone="no"?>
<!DOCTYPE svg PUBLIC "-//W3C//DTD SVG 1.1//EN"
 "http://www.w3.org/Graphics/SVG/1.1/DTD/svg11.dtd">
<!-- Generated by graphviz version 2.38.0 (20140413.2041)
 -->
<!-- Title: cfg_save Pages: 1 -->
<svg width="770pt" height="484pt"
 viewBox="0.00 0.00 770.00 484.00" xmlns="http://www.w3.org/2000/svg" xmlns:xlink="http://www.w3.org/1999/xlink">
<g id="graph0" class="graph" transform="scale(1 1) rotate(0) translate(4 480)">
<title>cfg_save</title>
<polygon fill="white" stroke="none" points="-4,4 -4,-480 766,-480 766,4 -4,4"/>
<!-- Node72 -->
<g id="node1" class="node"><title>Node72</title>
<polygon fill="#bfbfbf" stroke="black" points="0,-209.5 0,-228.5 56,-228.5 56,-209.5 0,-209.5"/>
<text text-anchor="middle" x="28" y="-216.5" font-family="Helvetica,sans-Serif" font-size="10.00">cfg_save</text>
</g>
<!-- Node73 -->
<g id="node2" class="node"><title>Node73</title>
<g id="a_node2"><a xlink:href="config_8h.html#a92adb6c5103eed30e16185a9cd233e51" target="_top" xlink:title="cfg_load">
<polygon fill="white" stroke="black" points="125.5,-436.5 125.5,-455.5 178.5,-455.5 178.5,-436.5 125.5,-436.5"/>
<text text-anchor="middle" x="152" y="-443.5" font-family="Helvetica,sans-Serif" font-size="10.00">cfg_load</text>
</a>
</g>
</g>
<!-- Node72&#45;&gt;Node73 -->
<g id="edge1" class="edge"><title>Node72&#45;&gt;Node73</title>
<path fill="none" stroke="midnightblue" d="M29.4224,-238.576C31.5197,-278.186 42.0678,-367.189 92,-418 102.107,-428.285 117.799,-433.009 130.459,-436.466"/>
<polygon fill="midnightblue" stroke="midnightblue" points="32.9196,-238.432 29.0239,-228.579 25.9251,-238.711 32.9196,-238.432"/>
</g>
<!-- Node75 -->
<g id="node4" class="node"><title>Node75</title>
<g id="a_node4"><a xlink:href="config_8h.html#abc69a1c540768c7c86b5d56c6d4cabd7" target="_top" xlink:title="cfg_save_ssid_pwd">
<polygon fill="white" stroke="black" points="100.5,-342.5 100.5,-361.5 203.5,-361.5 203.5,-342.5 100.5,-342.5"/>
<text text-anchor="middle" x="152" y="-349.5" font-family="Helvetica,sans-Serif" font-size="10.00">cfg_save_ssid_pwd</text>
</a>
</g>
</g>
<!-- Node72&#45;&gt;Node75 -->
<g id="edge4" class="edge"><title>Node72&#45;&gt;Node75</title>
<path fill="none" stroke="midnightblue" d="M35.5259,-237.968C44.6642,-261.953 63.4285,-303.116 92,-328 99.088,-334.173 107.974,-338.893 116.682,-342.444"/>
<polygon fill="midnightblue" stroke="midnightblue" points="38.8097,-236.756 32.1008,-228.556 32.2318,-239.15 38.8097,-236.756"/>
</g>
<!-- Node76 -->
<g id="node5" class="node"><title>Node76</title>
<g id="a_node5"><a xlink:href="cron_8c.html#a2782af03df9b913cfa565a0770e1afe1" target="_top" xlink:title="minute_timer_func">
<polygon fill="white" stroke="black" points="572,-342.5 572,-361.5 669,-361.5 669,-342.5 572,-342.5"/>
<text text-anchor="middle" x="620.5" y="-349.5" font-family="Helvetica,sans-Serif" font-size="10.00">minute_timer_func</text>
</a>
</g>
</g>
<!-- Node72&#45;&gt;Node76 -->
<g id="edge25" class="edge"><title>Node72&#45;&gt;Node76</title>
<path fill="none" stroke="midnightblue" d="M65.035,-231.786C73.8008,-234.681 83.1893,-237.604 92,-240 266.811,-287.531 478.73,-327.197 571.786,-343.732"/>
<polygon fill="midnightblue" stroke="midnightblue" points="66.061,-228.439 55.4669,-228.559 63.8239,-235.072 66.061,-228.439"/>
</g>
<!-- Node79 -->
<g id="node8" class="node"><title>Node79</title>
<g id="a_node8"><a xlink:href="cgiwifi_8h.html#a7c655a56f56ecebad923c5c4daeb7f1a" target="_top" xlink:title="cgiSetup">
<polygon fill="white" stroke="black" points="124.5,-152.5 124.5,-171.5 179.5,-171.5 179.5,-152.5 124.5,-152.5"/>
<text text-anchor="middle" x="152" y="-159.5" font-family="Helvetica,sans-Serif" font-size="10.00">cgiSetup</text>
</a>
</g>
</g>
<!-- Node72&#45;&gt;Node79 -->
<g id="edge8" class="edge"><title>Node72&#45;&gt;Node79</title>
<path fill="none" stroke="midnightblue" d="M55.0311,-204.646C66.2774,-198.633 79.6622,-191.725 92,-186 103.034,-180.88 115.479,-175.729 126.085,-171.519"/>
<polygon fill="midnightblue" stroke="midnightblue" points="53.291,-201.608 46.1571,-209.441 56.6188,-207.766 53.291,-201.608"/>
</g>
<!-- Node80 -->
<g id="node9" class="node"><title>Node80</title>
<g id="a_node9"><a xlink:href="config_8h.html#a1e0d59e84f6bbc2564bcdf595b6972da" target="_top" xlink:title="config_save_timer_func">
<polygon fill="white" stroke="black" points="92,-380.5 92,-399.5 212,-399.5 212,-380.5 92,-380.5"/>
<text text-anchor="middle" x="152" y="-387.5" font-family="Helvetica,sans-Serif" font-size="10.00">config_save_timer_func</text>
</a>
</g>
</g>
<!-- Node72&#45;&gt;Node80 -->
<g id="edge9" class="edge"><title>Node72&#45;&gt;Node80</title>
<path fill="none" stroke="midnightblue" d="M31.7866,-238.769C37.3673,-271.024 52.9196,-334.977 92,-371 96.1936,-374.866 101.18,-377.945 106.45,-380.398"/>
<polygon fill="midnightblue" stroke="midnightblue" points="35.226,-238.11 30.2062,-228.78 28.3119,-239.204 35.226,-238.11"/>
</g>
<!-- Node84 -->
<g id="node13" class="node"><title>Node84</title>
<g id="a_node13"><a xlink:href="mqtt__rpc_8h.html#a44921185fc90cf7507f2eaf4fa48861a" target="_top" xlink:title="mqtt_rpc_open_until">
<polygon fill="white" stroke="black" points="568.5,-234.5 568.5,-253.5 672.5,-253.5 672.5,-234.5 568.5,-234.5"/>
<text text-anchor="middle" x="620.5" y="-241.5" font-family="Helvetica,sans-Serif" font-size="10.00">mqtt_rpc_open_until</text>
</a>
</g>
</g>
<!-- Node72&#45;&gt;Node84 -->
<g id="edge26" class="edge"><title>Node72&#45;&gt;Node84</title>
<path fill="none" stroke="midnightblue" d="M66.2696,-222.214C74.7249,-222.872 83.6679,-223.512 92,-224 266.515,-234.229 473.829,-240.318 568.174,-242.758"/>
<polygon fill="midnightblue" stroke="midnightblue" points="66.5198,-218.723 56.2718,-221.412 65.9596,-225.701 66.5198,-218.723"/>
</g>
<!-- Node85 -->
<g id="node14" class="node"><title>Node85</title>
<g id="a_node14"><a xlink:href="mqtt__rpc_8h.html#a37edc063b829348999e78221ed0f247e" target="_top" xlink:title="mqtt_rpc_open_until\l_delta">
<polygon fill="white" stroke="black" points="568.5,-185 568.5,-215 672.5,-215 672.5,-185 568.5,-185"/>
<text text-anchor="start" x="576.5" y="-203" font-family="Helvetica,sans-Serif" font-size="10.00">mqtt_rpc_open_until</text>
<text text-anchor="middle" x="620.5" y="-192" font-family="Helvetica,sans-Serif" font-size="10.00">_delta</text>
</a>
</g>
</g>
<!-- Node72&#45;&gt;Node85 -->
<g id="edge27" class="edge"><title>Node72&#45;&gt;Node85</title>
<path fill="none" stroke="midnightblue" d="M66.44,-217.795C168.542,-214.51 451.954,-205.391 568.472,-201.642"/>
<polygon fill="midnightblue" stroke="midnightblue" points="66.179,-214.302 56.2968,-218.122 66.4042,-221.298 66.179,-214.302"/>
</g>
<!-- Node92 -->
<g id="node21" class="node"><title>Node92</title>
<g id="a_node21"><a xlink:href="mqtt__rpc_8h.html#a3384f5aa84b17fa3902e2aad318913d8" target="_top" xlink:title="mqtt_rpc_set_pwd">
<polygon fill="white" stroke="black" points="103.5,-114.5 103.5,-133.5 200.5,-133.5 200.5,-114.5 103.5,-114.5"/>
<text text-anchor="middle" x="152" y="-121.5" font-family="Helvetica,sans-Serif" font-size="10.00">mqtt_rpc_set_pwd</text>
</a>
</g>
</g>
<!-- Node72&#45;&gt;Node92 -->
<g id="edge28" class="edge"><title>Node72&#45;&gt;Node92</title>
<path fill="none" stroke="midnightblue" d="M39.8163,-200.717C50.8859,-183.502 69.6075,-158.159 92,-143 97.7032,-139.139 104.242,-136.021 110.843,-133.516"/>
<polygon fill="midnightblue" stroke="midnightblue" points="36.7723,-198.985 34.4791,-209.328 42.7222,-202.672 36.7723,-198.985"/>
</g>
<!-- Node93 -->
<g id="node22" class="node"><title>Node93</title>
<g id="a_node22"><a xlink:href="mqtt__rpc_8h.html#aa3b038b94189cb8a82fdc7e5115d90c8" target="_top" xlink:title="mqtt_rpc_set_ssid">
<polygon fill="white" stroke="black" points="103.5,-76.5 103.5,-95.5 200.5,-95.5 200.5,-76.5 103.5,-76.5"/>
<text text-anchor="middle" x="152" y="-83.5" font-family="Helvetica,sans-Serif" font-size="10.00">mqtt_rpc_set_ssid</text>
</a>
</g>
</g>
<!-- Node72&#45;&gt;Node93 -->
<g id="edge29" class="edge"><title>Node72&#45;&gt;Node93</title>
<path fill="none" stroke="midnightblue" d="M34.6279,-199.916C43.0446,-174.629 61.2955,-130.277 92,-105 96.7356,-101.102 102.287,-97.9972 108.057,-95.5266"/>
<polygon fill="midnightblue" stroke="midnightblue" points="31.2831,-198.886 31.6152,-209.475 37.9593,-200.99 31.2831,-198.886"/>
</g>
<!-- Node94 -->
<g id="node23" class="node"><title>Node94</title>
<g id="a_node23"><a xlink:href="mqtt__rpc_8h.html#a1b7add080e121a194a82ca7fc1ac5d6a" target="_top" xlink:title="mqtt_rpc_start_ap">
<polygon fill="white" stroke="black" points="104.5,-38.5 104.5,-57.5 199.5,-57.5 199.5,-38.5 104.5,-38.5"/>
<text text-anchor="middle" x="152" y="-45.5" font-family="Helvetica,sans-Serif" font-size="10.00">mqtt_rpc_start_ap</text>
</a>
</g>
</g>
<!-- Node72&#45;&gt;Node94 -->
<g id="edge30" class="edge"><title>Node72&#45;&gt;Node94</title>
<path fill="none" stroke="midnightblue" d="M31.7866,-199.231C37.3673,-166.976 52.9196,-103.023 92,-67 96.1936,-63.1345 101.18,-60.0552 106.45,-57.6022"/>
<polygon fill="midnightblue" stroke="midnightblue" points="28.3119,-198.796 30.2062,-209.22 35.226,-199.89 28.3119,-198.796"/>
</g>
<!-- Node95 -->
<g id="node24" class="node"><title>Node95</title>
<g id="a_node24"><a xlink:href="mqtt__rpc_8h.html#a3430aad3243898c167f694b4ad6e5cfd" target="_top" xlink:title="mqtt_rpc_stop_ap">
<polygon fill="white" stroke="black" points="104.5,-0.5 104.5,-19.5 199.5,-19.5 199.5,-0.5 104.5,-0.5"/>
<text text-anchor="middle" x="152" y="-7.5" font-family="Helvetica,sans-Serif" font-size="10.00">mqtt_rpc_stop_ap</text>
</a>
</g>
</g>
<!-- Node72&#45;&gt;Node95 -->
<g id="edge31" class="edge"><title>Node72&#45;&gt;Node95</title>
<path fill="none" stroke="midnightblue" d="M29.9131,-198.741C32.7453,-160.26 44.3614,-76.2295 92,-29 95.8974,-25.1361 100.584,-22.0576 105.589,-19.605"/>
<polygon fill="midnightblue" stroke="midnightblue" points="26.395,-198.937 29.286,-209.13 33.3822,-199.359 26.395,-198.937"/>
</g>
<!-- Node73&#45;&gt;Node72 -->
<g id="edge2" class="edge"><title>Node73&#45;&gt;Node72</title>
<path fill="none" stroke="midnightblue" d="M115.276,-449.152C106.739,-446.646 98.2886,-442.399 92,-436 33.0249,-375.987 28.9908,-262.697 28.9308,-228.537"/>
<polygon fill="midnightblue" stroke="midnightblue" points="114.698,-452.608 125.214,-451.319 116.189,-445.768 114.698,-452.608"/>
</g>
<!-- Node74 -->
<g id="node3" class="node"><title>Node74</title>
<g id="a_node3"><a xlink:href="cgiwifi_8h.html#ace460e5ac8fd74afa8616bfc82561b26" target="_top" xlink:title="tplSetup">
<polygon fill="white" stroke="black" points="281.5,-456.5 281.5,-475.5 334.5,-475.5 334.5,-456.5 281.5,-456.5"/>
<text text-anchor="middle" x="308" y="-463.5" font-family="Helvetica,sans-Serif" font-size="10.00">tplSetup</text>
</a>
</g>
</g>
<!-- Node73&#45;&gt;Node74 -->
<g id="edge3" class="edge"><title>Node73&#45;&gt;Node74</title>
<path fill="none" stroke="midnightblue" d="M188.703,-450.637C217.072,-454.321 256.064,-459.385 281.396,-462.675"/>
<polygon fill="midnightblue" stroke="midnightblue" points="189.144,-447.165 178.776,-449.348 188.242,-454.106 189.144,-447.165"/>
</g>
<!-- Node75&#45;&gt;Node76 -->
<g id="edge5" class="edge"><title>Node75&#45;&gt;Node76</title>
<path fill="none" stroke="midnightblue" d="M214.029,-352C308.127,-352 486.663,-352 571.897,-352"/>
<polygon fill="midnightblue" stroke="midnightblue" points="213.812,-348.5 203.812,-352 213.812,-355.5 213.812,-348.5"/>
</g>
<!-- Node78 -->
<g id="node7" class="node"><title>Node78</title>
<g id="a_node7"><a xlink:href="mqtt__rpc_8h.html#a651f41878c47fd58b8ae08a49692d5d0" target="_top" xlink:title="mqtt_rpc_set_ssid_pwd">
<polygon fill="white" stroke="black" points="248,-380.5 248,-399.5 368,-399.5 368,-380.5 248,-380.5"/>
<text text-anchor="middle" x="308" y="-387.5" font-family="Helvetica,sans-Serif" font-size="10.00">mqtt_rpc_set_ssid_pwd</text>
</a>
</g>
</g>
<!-- Node75&#45;&gt;Node78 -->
<g id="edge7" class="edge"><title>Node75&#45;&gt;Node78</title>
<path fill="none" stroke="midnightblue" d="M201.794,-364.04C223.308,-369.349 248.232,-375.499 268.419,-380.48"/>
<polygon fill="midnightblue" stroke="midnightblue" points="202.408,-360.587 191.861,-361.589 200.731,-367.383 202.408,-360.587"/>
</g>
<!-- Node77 -->
<g id="node6" class="node"><title>Node77</title>
<g id="a_node6"><a xlink:href="cron_8h.html#ae130c5973bad35b56776750c7a34db12" target="_top" xlink:title="cron_init">
<polygon fill="white" stroke="black" points="709,-342.5 709,-361.5 762,-361.5 762,-342.5 709,-342.5"/>
<text text-anchor="middle" x="735.5" y="-349.5" font-family="Helvetica,sans-Serif" font-size="10.00">cron_init</text>
</a>
</g>
</g>
<!-- Node76&#45;&gt;Node77 -->
<g id="edge6" class="edge"><title>Node76&#45;&gt;Node77</title>
<path fill="none" stroke="midnightblue" d="M679.4,-352C689.736,-352 700.009,-352 708.835,-352"/>
<polygon fill="midnightblue" stroke="midnightblue" points="679.095,-348.5 669.095,-352 679.095,-355.5 679.095,-348.5"/>
</g>
<!-- Node80&#45;&gt;Node80 -->
<g id="edge24" class="edge"><title>Node80&#45;&gt;Node80</title>
<path fill="none" stroke="midnightblue" d="M128.935,-409.029C130.193,-414.128 137.881,-418 152,-418 174.039,-418 180.41,-408.565 171.112,-399.757"/>
<polygon fill="midnightblue" stroke="midnightblue" points="132.185,-410.329 132.888,-399.757 125.746,-407.583 132.185,-410.329"/>
</g>
<!-- Node81 -->
<g id="node10" class="node"><title>Node81</title>
<g id="a_node10"><a xlink:href="config_8h.html#ab4af9f95b39f096bb0fa8d73eb5a342e" target="_top" xlink:title="cfg_save_defered">
<polygon fill="white" stroke="black" points="261,-418.5 261,-437.5 355,-437.5 355,-418.5 261,-418.5"/>
<text text-anchor="middle" x="308" y="-425.5" font-family="Helvetica,sans-Serif" font-size="10.00">cfg_save_defered</text>
</a>
</g>
</g>
<!-- Node80&#45;&gt;Node81 -->
<g id="edge10" class="edge"><title>Node80&#45;&gt;Node81</title>
<path fill="none" stroke="midnightblue" d="M201.794,-402.04C223.308,-407.349 248.232,-413.499 268.419,-418.48"/>
<polygon fill="midnightblue" stroke="midnightblue" points="202.408,-398.587 191.861,-399.589 200.731,-405.383 202.408,-398.587"/>
</g>
<!-- Node82 -->
<g id="node11" class="node"><title>Node82</title>
<g id="a_node11"><a xlink:href="ac__out_8h.html#a1573f96ac038a6a1b29a6f21403a2341" target="_top" xlink:title="ac_thermo_open">
<polygon fill="white" stroke="black" points="423.5,-266.5 423.5,-285.5 512.5,-285.5 512.5,-266.5 423.5,-266.5"/>
<text text-anchor="middle" x="468" y="-273.5" font-family="Helvetica,sans-Serif" font-size="10.00">ac_thermo_open</text>
</a>
</g>
</g>
<!-- Node81&#45;&gt;Node82 -->
<g id="edge11" class="edge"><title>Node81&#45;&gt;Node82</title>
<path fill="none" stroke="midnightblue" d="M359.328,-414.268C362.366,-412.692 365.287,-410.942 368,-409 392.577,-391.408 443.451,-313.181 460.94,-285.636"/>
<polygon fill="midnightblue" stroke="midnightblue" points="357.627,-411.195 349.947,-418.494 360.503,-417.577 357.627,-411.195"/>
</g>
<!-- Node86 -->
<g id="node15" class="node"><title>Node86</title>
<g id="a_node15"><a xlink:href="ac__out_8h.html#a3bc674b019d5e2e4d15e7abe7c69029f" target="_top" xlink:title="ac_thermo_close">
<polygon fill="white" stroke="black" points="422.5,-380.5 422.5,-399.5 513.5,-399.5 513.5,-380.5 422.5,-380.5"/>
<text text-anchor="middle" x="468" y="-387.5" font-family="Helvetica,sans-Serif" font-size="10.00">ac_thermo_close</text>
</a>
</g>
</g>
<!-- Node81&#45;&gt;Node86 -->
<g id="edge16" class="edge"><title>Node81&#45;&gt;Node86</title>
<path fill="none" stroke="midnightblue" d="M358.762,-416.032C380.903,-410.707 406.612,-404.524 427.417,-399.52"/>
<polygon fill="midnightblue" stroke="midnightblue" points="357.774,-412.67 348.87,-418.411 359.411,-419.476 357.774,-412.67"/>
</g>
<!-- Node88 -->
<g id="node17" class="node"><title>Node88</title>
<g id="a_node17"><a xlink:href="cron_8h.html#abede8d12ed6e5d5f3412eda37b325d03" target="_top" xlink:title="add_cron_job_from_query">
<polygon fill="white" stroke="black" points="404,-456.5 404,-475.5 532,-475.5 532,-456.5 404,-456.5"/>
<text text-anchor="middle" x="468" y="-463.5" font-family="Helvetica,sans-Serif" font-size="10.00">add_cron_job_from_query</text>
</a>
</g>
</g>
<!-- Node81&#45;&gt;Node88 -->
<g id="edge19" class="edge"><title>Node81&#45;&gt;Node88</title>
<path fill="none" stroke="midnightblue" d="M358.762,-439.968C380.903,-445.293 406.612,-451.476 427.417,-456.48"/>
<polygon fill="midnightblue" stroke="midnightblue" points="359.411,-436.524 348.87,-437.589 357.774,-443.33 359.411,-436.524"/>
</g>
<!-- Node90 -->
<g id="node19" class="node"><title>Node90</title>
<g id="a_node19"><a xlink:href="cron_8h.html#ad014b7bf4eab144ea9fc5669d896714b" target="_top" xlink:title="clear_cron_jobs">
<polygon fill="white" stroke="black" points="425.5,-418.5 425.5,-437.5 510.5,-437.5 510.5,-418.5 425.5,-418.5"/>
<text text-anchor="middle" x="468" y="-425.5" font-family="Helvetica,sans-Serif" font-size="10.00">clear_cron_jobs</text>
</a>
</g>
</g>
<!-- Node81&#45;&gt;Node90 -->
<g id="edge21" class="edge"><title>Node81&#45;&gt;Node90</title>
<path fill="none" stroke="midnightblue" d="M365.272,-428C385.095,-428 407.006,-428 425.4,-428"/>
<polygon fill="midnightblue" stroke="midnightblue" points="365.125,-424.5 355.125,-428 365.125,-431.5 365.125,-424.5"/>
</g>
<!-- Node82&#45;&gt;Node76 -->
<g id="edge12" class="edge"><title>Node82&#45;&gt;Node76</title>
<path fill="none" stroke="midnightblue" d="M506.423,-289.04C514.949,-292.344 523.884,-296.078 532,-300 558.731,-312.915 588.06,-331.274 605.066,-342.369"/>
<polygon fill="midnightblue" stroke="midnightblue" points="507.627,-285.753 497.035,-285.504 505.16,-292.304 507.627,-285.753"/>
</g>
<!-- Node83 -->
<g id="node12" class="node"><title>Node83</title>
<g id="a_node12"><a xlink:href="mqtt__rpc_8h.html#ad2e0752f6412fe150ba20d806fe90e15" target="_top" xlink:title="mqtt_rpc_open">
<polygon fill="white" stroke="black" points="580,-272.5 580,-291.5 661,-291.5 661,-272.5 580,-272.5"/>
<text text-anchor="middle" x="620.5" y="-279.5" font-family="Helvetica,sans-Serif" font-size="10.00">mqtt_rpc_open</text>
</a>
</g>
</g>
<!-- Node82&#45;&gt;Node83 -->
<g id="edge13" class="edge"><title>Node82&#45;&gt;Node83</title>
<path fill="none" stroke="midnightblue" d="M522.77,-278.144C541.625,-278.895 562.444,-279.725 579.923,-280.422"/>
<polygon fill="midnightblue" stroke="midnightblue" points="522.662,-274.637 512.531,-277.735 522.383,-281.631 522.662,-274.637"/>
</g>
<!-- Node82&#45;&gt;Node84 -->
<g id="edge14" class="edge"><title>Node82&#45;&gt;Node84</title>
<path fill="none" stroke="midnightblue" d="M522.396,-264.647C539.528,-261.004 558.315,-257.01 574.76,-253.513"/>
<polygon fill="midnightblue" stroke="midnightblue" points="521.584,-261.241 512.531,-266.744 523.04,-268.088 521.584,-261.241"/>
</g>
<!-- Node82&#45;&gt;Node85 -->
<g id="edge15" class="edge"><title>Node82&#45;&gt;Node85</title>
<path fill="none" stroke="midnightblue" d="M496.251,-261.741C516.087,-251.416 543.63,-237.19 568,-225 574.489,-221.754 581.465,-218.327 588.122,-215.085"/>
<polygon fill="midnightblue" stroke="midnightblue" points="494.429,-258.743 487.18,-266.47 497.666,-264.95 494.429,-258.743"/>
</g>
<!-- Node86&#45;&gt;Node76 -->
<g id="edge17" class="edge"><title>Node86&#45;&gt;Node76</title>
<path fill="none" stroke="midnightblue" d="M516.685,-377.96C537.71,-372.651 562.067,-366.501 581.796,-361.52"/>
<polygon fill="midnightblue" stroke="midnightblue" points="515.816,-374.569 506.978,-380.411 517.53,-381.356 515.816,-374.569"/>
</g>
<!-- Node87 -->
<g id="node16" class="node"><title>Node87</title>
<g id="a_node16"><a xlink:href="mqtt__rpc_8h.html#a05494e7f22df36d57595a00a9386c871" target="_top" xlink:title="mqtt_rpc_close">
<polygon fill="white" stroke="black" points="579,-380.5 579,-399.5 662,-399.5 662,-380.5 579,-380.5"/>
<text text-anchor="middle" x="620.5" y="-387.5" font-family="Helvetica,sans-Serif" font-size="10.00">mqtt_rpc_close</text>
</a>
</g>
</g>
<!-- Node86&#45;&gt;Node87 -->
<g id="edge18" class="edge"><title>Node86&#45;&gt;Node87</title>
<path fill="none" stroke="midnightblue" d="M523.906,-390C542.046,-390 561.89,-390 578.774,-390"/>
<polygon fill="midnightblue" stroke="midnightblue" points="523.748,-386.5 513.747,-390 523.747,-393.5 523.748,-386.5"/>
</g>
<!-- Node89 -->
<g id="node18" class="node"><title>Node89</title>
<g id="a_node18"><a xlink:href="mqtt__rpc_8h.html#a5ede5df0880a2c3823a5c3757423678b" target="_top" xlink:title="mqtt_rpc_set_cron">
<polygon fill="white" stroke="black" points="571.5,-456.5 571.5,-475.5 669.5,-475.5 669.5,-456.5 571.5,-456.5"/>
<text text-anchor="middle" x="620.5" y="-463.5" font-family="Helvetica,sans-Serif" font-size="10.00">mqtt_rpc_set_cron</text>
</a>
</g>
</g>
<!-- Node88&#45;&gt;Node89 -->
<g id="edge20" class="edge"><title>Node88&#45;&gt;Node89</title>
<path fill="none" stroke="midnightblue" d="M542.524,-466C552.289,-466 562.093,-466 571.278,-466"/>
<polygon fill="midnightblue" stroke="midnightblue" points="542.389,-462.5 532.389,-466 542.389,-469.5 542.389,-462.5"/>
</g>
<!-- Node90&#45;&gt;Node76 -->
<g id="edge22" class="edge"><title>Node90&#45;&gt;Node76</title>
<path fill="none" stroke="midnightblue" d="M520.311,-415.045C524.385,-413.267 528.336,-411.26 532,-409 551.801,-396.787 548.578,-383.806 568,-371 573.649,-367.275 580.126,-364.155 586.537,-361.591"/>
<polygon fill="midnightblue" stroke="midnightblue" points="518.715,-411.91 510.66,-418.793 521.249,-418.435 518.715,-411.91"/>
</g>
<!-- Node91 -->
<g id="node20" class="node"><title>Node91</title>
<g id="a_node20"><a xlink:href="mqtt__rpc_8h.html#a023697ad978d1154228e256583a147c0" target="_top" xlink:title="mqtt_rpc_clear_cron">
<polygon fill="white" stroke="black" points="568,-418.5 568,-437.5 673,-437.5 673,-418.5 568,-418.5"/>
<text text-anchor="middle" x="620.5" y="-425.5" font-family="Helvetica,sans-Serif" font-size="10.00">mqtt_rpc_clear_cron</text>
</a>
</g>
</g>
<!-- Node90&#45;&gt;Node91 -->
<g id="edge23" class="edge"><title>Node90&#45;&gt;Node91</title>
<path fill="none" stroke="midnightblue" d="M520.805,-428C536.036,-428 552.69,-428 567.907,-428"/>
<polygon fill="midnightblue" stroke="midnightblue" points="520.523,-424.5 510.523,-428 520.523,-431.5 520.523,-424.5"/>
</g>
</g>
</svg>
