<?xml version="1.0" encoding="UTF-8" standalone="no"?>
<!DOCTYPE svg PUBLIC "-//W3C//DTD SVG 1.1//EN"
 "http://www.w3.org/Graphics/SVG/1.1/DTD/svg11.dtd">
<!-- Generated by graphviz version 2.38.0 (20140413.2041)
 -->
<!-- Title: config_save_timer_func Pages: 1 -->
<svg width="808pt" height="268pt"
 viewBox="0.00 0.00 808.00 268.00" xmlns="http://www.w3.org/2000/svg" xmlns:xlink="http://www.w3.org/1999/xlink">
<g id="graph0" class="graph" transform="scale(1 1) rotate(0) translate(4 264)">
<title>config_save_timer_func</title>
<polygon fill="white" stroke="none" points="-4,4 -4,-264 804,-264 804,4 -4,4"/>
<!-- Node187 -->
<g id="node1" class="node"><title>Node187</title>
<polygon fill="#bfbfbf" stroke="black" points="0,-145.5 0,-164.5 120,-164.5 120,-145.5 0,-145.5"/>
<text text-anchor="middle" x="60" y="-152.5" font-family="Helvetica,sans-Serif" font-size="10.00">config_save_timer_func</text>
</g>
<!-- Node188 -->
<g id="node2" class="node"><title>Node188</title>
<g id="a_node2"><a xlink:href="config_8h.html#ab4af9f95b39f096bb0fa8d73eb5a342e" target="_top" xlink:title="cfg_save_defered">
<polygon fill="white" stroke="black" points="312,-145.5 312,-164.5 406,-164.5 406,-145.5 312,-145.5"/>
<text text-anchor="middle" x="359" y="-152.5" font-family="Helvetica,sans-Serif" font-size="10.00">cfg_save_defered</text>
</a>
</g>
</g>
<!-- Node187&#45;&gt;Node188 -->
<g id="edge1" class="edge"><title>Node187&#45;&gt;Node188</title>
<path fill="none" stroke="midnightblue" d="M130.309,-162.332C138.951,-163.02 147.674,-163.606 156,-164 209.274,-166.518 222.746,-166.914 276,-164 287.583,-163.366 300.046,-162.233 311.671,-160.979"/>
<polygon fill="midnightblue" stroke="midnightblue" points="130.489,-158.834 120.23,-161.482 129.901,-165.81 130.489,-158.834"/>
</g>
<!-- Node201 -->
<g id="node15" class="node"><title>Node201</title>
<g id="a_node15"><a xlink:href="config_8h.html#a1e0d59e84f6bbc2564bcdf595b6972da" target="_top" xlink:title="config_save_timer_func">
<polygon fill="white" stroke="black" points="156,-117.5 156,-136.5 276,-136.5 276,-117.5 156,-117.5"/>
<text text-anchor="middle" x="216" y="-124.5" font-family="Helvetica,sans-Serif" font-size="10.00">config_save_timer_func</text>
</a>
</g>
</g>
<!-- Node187&#45;&gt;Node201 -->
<g id="edge16" class="edge"><title>Node187&#45;&gt;Node201</title>
<path fill="none" stroke="midnightblue" d="M123.78,-143.586C136.697,-141.237 150.168,-138.788 162.67,-136.515"/>
<polygon fill="midnightblue" stroke="midnightblue" points="122.78,-140.21 113.567,-145.442 124.032,-147.097 122.78,-140.21"/>
</g>
<!-- Node189 -->
<g id="node3" class="node"><title>Node189</title>
<g id="a_node3"><a xlink:href="ac__out_8h.html#a1573f96ac038a6a1b29a6f21403a2341" target="_top" xlink:title="ac_thermo_open">
<polygon fill="white" stroke="black" points="461.5,-126.5 461.5,-145.5 550.5,-145.5 550.5,-126.5 461.5,-126.5"/>
<text text-anchor="middle" x="506" y="-133.5" font-family="Helvetica,sans-Serif" font-size="10.00">ac_thermo_open</text>
</a>
</g>
</g>
<!-- Node188&#45;&gt;Node189 -->
<g id="edge2" class="edge"><title>Node188&#45;&gt;Node189</title>
<path fill="none" stroke="midnightblue" d="M416.379,-147.612C431.237,-145.666 447.046,-143.594 461.136,-141.748"/>
<polygon fill="midnightblue" stroke="midnightblue" points="415.738,-144.166 406.278,-148.936 416.648,-151.107 415.738,-144.166"/>
</g>
<!-- Node195 -->
<g id="node9" class="node"><title>Node195</title>
<g id="a_node9"><a xlink:href="ac__out_8h.html#a3bc674b019d5e2e4d15e7abe7c69029f" target="_top" xlink:title="ac_thermo_close">
<polygon fill="white" stroke="black" points="460.5,-202.5 460.5,-221.5 551.5,-221.5 551.5,-202.5 460.5,-202.5"/>
<text text-anchor="middle" x="506" y="-209.5" font-family="Helvetica,sans-Serif" font-size="10.00">ac_thermo_close</text>
</a>
</g>
</g>
<!-- Node188&#45;&gt;Node195 -->
<g id="edge8" class="edge"><title>Node188&#45;&gt;Node195</title>
<path fill="none" stroke="midnightblue" d="M387.712,-169.031C403.408,-176.675 423.54,-185.979 442,-193 450.969,-196.411 460.836,-199.63 470.044,-202.414"/>
<polygon fill="midnightblue" stroke="midnightblue" points="389.084,-165.805 378.567,-164.521 385.988,-172.083 389.084,-165.805"/>
</g>
<!-- Node197 -->
<g id="node11" class="node"><title>Node197</title>
<g id="a_node11"><a xlink:href="cron_8h.html#abede8d12ed6e5d5f3412eda37b325d03" target="_top" xlink:title="add_cron_job_from_query">
<polygon fill="white" stroke="black" points="442,-44.5 442,-63.5 570,-63.5 570,-44.5 442,-44.5"/>
<text text-anchor="middle" x="506" y="-51.5" font-family="Helvetica,sans-Serif" font-size="10.00">add_cron_job_from_query</text>
</a>
</g>
</g>
<!-- Node188&#45;&gt;Node197 -->
<g id="edge11" class="edge"><title>Node188&#45;&gt;Node197</title>
<path fill="none" stroke="midnightblue" d="M381.88,-139.76C412.195,-118.643 466.084,-81.1072 491.289,-63.5502"/>
<polygon fill="midnightblue" stroke="midnightblue" points="379.846,-136.911 373.641,-145.498 383.847,-142.654 379.846,-136.911"/>
</g>
<!-- Node199 -->
<g id="node13" class="node"><title>Node199</title>
<g id="a_node13"><a xlink:href="cron_8h.html#ad014b7bf4eab144ea9fc5669d896714b" target="_top" xlink:title="clear_cron_jobs">
<polygon fill="white" stroke="black" points="463.5,-164.5 463.5,-183.5 548.5,-183.5 548.5,-164.5 463.5,-164.5"/>
<text text-anchor="middle" x="506" y="-171.5" font-family="Helvetica,sans-Serif" font-size="10.00">clear_cron_jobs</text>
</a>
</g>
</g>
<!-- Node188&#45;&gt;Node199 -->
<g id="edge13" class="edge"><title>Node188&#45;&gt;Node199</title>
<path fill="none" stroke="midnightblue" d="M416.322,-162.38C431.886,-164.42 448.499,-166.596 463.087,-168.508"/>
<polygon fill="midnightblue" stroke="midnightblue" points="416.648,-158.893 406.278,-161.064 415.738,-165.834 416.648,-158.893"/>
</g>
<!-- Node190 -->
<g id="node4" class="node"><title>Node190</title>
<g id="a_node4"><a xlink:href="cron_8c.html#a2782af03df9b913cfa565a0770e1afe1" target="_top" xlink:title="minute_timer_func">
<polygon fill="white" stroke="black" points="610,-164.5 610,-183.5 707,-183.5 707,-164.5 610,-164.5"/>
<text text-anchor="middle" x="658.5" y="-171.5" font-family="Helvetica,sans-Serif" font-size="10.00">minute_timer_func</text>
</a>
</g>
</g>
<!-- Node189&#45;&gt;Node190 -->
<g id="edge3" class="edge"><title>Node189&#45;&gt;Node190</title>
<path fill="none" stroke="midnightblue" d="M554.685,-148.04C575.71,-153.349 600.067,-159.499 619.796,-164.48"/>
<polygon fill="midnightblue" stroke="midnightblue" points="555.53,-144.644 544.978,-145.589 553.816,-151.431 555.53,-144.644"/>
</g>
<!-- Node192 -->
<g id="node6" class="node"><title>Node192</title>
<g id="a_node6"><a xlink:href="mqtt__rpc_8h.html#ad2e0752f6412fe150ba20d806fe90e15" target="_top" xlink:title="mqtt_rpc_open">
<polygon fill="white" stroke="black" points="618,-126.5 618,-145.5 699,-145.5 699,-126.5 618,-126.5"/>
<text text-anchor="middle" x="658.5" y="-133.5" font-family="Helvetica,sans-Serif" font-size="10.00">mqtt_rpc_open</text>
</a>
</g>
</g>
<!-- Node189&#45;&gt;Node192 -->
<g id="edge5" class="edge"><title>Node189&#45;&gt;Node192</title>
<path fill="none" stroke="midnightblue" d="M560.77,-136C579.625,-136 600.444,-136 617.923,-136"/>
<polygon fill="midnightblue" stroke="midnightblue" points="560.531,-132.5 550.531,-136 560.531,-139.5 560.531,-132.5"/>
</g>
<!-- Node193 -->
<g id="node7" class="node"><title>Node193</title>
<g id="a_node7"><a xlink:href="mqtt__rpc_8h.html#a44921185fc90cf7507f2eaf4fa48861a" target="_top" xlink:title="mqtt_rpc_open_until">
<polygon fill="white" stroke="black" points="606.5,-88.5 606.5,-107.5 710.5,-107.5 710.5,-88.5 606.5,-88.5"/>
<text text-anchor="middle" x="658.5" y="-95.5" font-family="Helvetica,sans-Serif" font-size="10.00">mqtt_rpc_open_until</text>
</a>
</g>
</g>
<!-- Node189&#45;&gt;Node193 -->
<g id="edge6" class="edge"><title>Node189&#45;&gt;Node193</title>
<path fill="none" stroke="midnightblue" d="M554.685,-123.96C575.71,-118.651 600.067,-112.501 619.796,-107.52"/>
<polygon fill="midnightblue" stroke="midnightblue" points="553.816,-120.569 544.978,-126.411 555.53,-127.356 553.816,-120.569"/>
</g>
<!-- Node194 -->
<g id="node8" class="node"><title>Node194</title>
<g id="a_node8"><a xlink:href="mqtt__rpc_8h.html#a37edc063b829348999e78221ed0f247e" target="_top" xlink:title="mqtt_rpc_open_until\l_delta">
<polygon fill="white" stroke="black" points="606.5,-39 606.5,-69 710.5,-69 710.5,-39 606.5,-39"/>
<text text-anchor="start" x="614.5" y="-57" font-family="Helvetica,sans-Serif" font-size="10.00">mqtt_rpc_open_until</text>
<text text-anchor="middle" x="658.5" y="-46" font-family="Helvetica,sans-Serif" font-size="10.00">_delta</text>
</a>
</g>
</g>
<!-- Node189&#45;&gt;Node194 -->
<g id="edge7" class="edge"><title>Node189&#45;&gt;Node194</title>
<path fill="none" stroke="midnightblue" d="M531.646,-121.163C551.514,-109.361 580.28,-92.6253 606,-79 612.236,-75.6967 618.974,-72.3027 625.456,-69.1224"/>
<polygon fill="midnightblue" stroke="midnightblue" points="529.718,-118.238 522.924,-126.367 533.305,-124.249 529.718,-118.238"/>
</g>
<!-- Node191 -->
<g id="node5" class="node"><title>Node191</title>
<g id="a_node5"><a xlink:href="cron_8h.html#ae130c5973bad35b56776750c7a34db12" target="_top" xlink:title="cron_init">
<polygon fill="white" stroke="black" points="747,-164.5 747,-183.5 800,-183.5 800,-164.5 747,-164.5"/>
<text text-anchor="middle" x="773.5" y="-171.5" font-family="Helvetica,sans-Serif" font-size="10.00">cron_init</text>
</a>
</g>
</g>
<!-- Node190&#45;&gt;Node191 -->
<g id="edge4" class="edge"><title>Node190&#45;&gt;Node191</title>
<path fill="none" stroke="midnightblue" d="M717.4,-174C727.736,-174 738.009,-174 746.835,-174"/>
<polygon fill="midnightblue" stroke="midnightblue" points="717.095,-170.5 707.095,-174 717.095,-177.5 717.095,-170.5"/>
</g>
<!-- Node195&#45;&gt;Node190 -->
<g id="edge9" class="edge"><title>Node195&#45;&gt;Node190</title>
<path fill="none" stroke="midnightblue" d="M554.685,-199.96C575.71,-194.651 600.067,-188.501 619.796,-183.52"/>
<polygon fill="midnightblue" stroke="midnightblue" points="553.816,-196.569 544.978,-202.411 555.53,-203.356 553.816,-196.569"/>
</g>
<!-- Node196 -->
<g id="node10" class="node"><title>Node196</title>
<g id="a_node10"><a xlink:href="mqtt__rpc_8h.html#a05494e7f22df36d57595a00a9386c871" target="_top" xlink:title="mqtt_rpc_close">
<polygon fill="white" stroke="black" points="617,-240.5 617,-259.5 700,-259.5 700,-240.5 617,-240.5"/>
<text text-anchor="middle" x="658.5" y="-247.5" font-family="Helvetica,sans-Serif" font-size="10.00">mqtt_rpc_close</text>
</a>
</g>
</g>
<!-- Node195&#45;&gt;Node196 -->
<g id="edge10" class="edge"><title>Node195&#45;&gt;Node196</title>
<path fill="none" stroke="midnightblue" d="M554.685,-224.04C575.71,-229.349 600.067,-235.499 619.796,-240.48"/>
<polygon fill="midnightblue" stroke="midnightblue" points="555.53,-220.644 544.978,-221.589 553.816,-227.431 555.53,-220.644"/>
</g>
<!-- Node198 -->
<g id="node12" class="node"><title>Node198</title>
<g id="a_node12"><a xlink:href="mqtt__rpc_8h.html#a5ede5df0880a2c3823a5c3757423678b" target="_top" xlink:title="mqtt_rpc_set_cron">
<polygon fill="white" stroke="black" points="609.5,-0.5 609.5,-19.5 707.5,-19.5 707.5,-0.5 609.5,-0.5"/>
<text text-anchor="middle" x="658.5" y="-7.5" font-family="Helvetica,sans-Serif" font-size="10.00">mqtt_rpc_set_cron</text>
</a>
</g>
</g>
<!-- Node197&#45;&gt;Node198 -->
<g id="edge12" class="edge"><title>Node197&#45;&gt;Node198</title>
<path fill="none" stroke="midnightblue" d="M549.532,-41.5653C573.446,-34.574 602.833,-25.9823 624.907,-19.5287"/>
<polygon fill="midnightblue" stroke="midnightblue" points="548.272,-38.2871 539.656,-44.4527 550.237,-45.0058 548.272,-38.2871"/>
</g>
<!-- Node199&#45;&gt;Node190 -->
<g id="edge14" class="edge"><title>Node199&#45;&gt;Node190</title>
<path fill="none" stroke="midnightblue" d="M558.59,-174C575.164,-174 593.443,-174 609.731,-174"/>
<polygon fill="midnightblue" stroke="midnightblue" points="558.523,-170.5 548.523,-174 558.523,-177.5 558.523,-170.5"/>
</g>
<!-- Node200 -->
<g id="node14" class="node"><title>Node200</title>
<g id="a_node14"><a xlink:href="mqtt__rpc_8h.html#a023697ad978d1154228e256583a147c0" target="_top" xlink:title="mqtt_rpc_clear_cron">
<polygon fill="white" stroke="black" points="606,-202.5 606,-221.5 711,-221.5 711,-202.5 606,-202.5"/>
<text text-anchor="middle" x="658.5" y="-209.5" font-family="Helvetica,sans-Serif" font-size="10.00">mqtt_rpc_clear_cron</text>
</a>
</g>
</g>
<!-- Node199&#45;&gt;Node200 -->
<g id="edge15" class="edge"><title>Node199&#45;&gt;Node200</title>
<path fill="none" stroke="midnightblue" d="M554.685,-186.04C575.71,-191.349 600.067,-197.499 619.796,-202.48"/>
<polygon fill="midnightblue" stroke="midnightblue" points="555.53,-182.644 544.978,-183.589 553.816,-189.431 555.53,-182.644"/>
</g>
<!-- Node201&#45;&gt;Node188 -->
<g id="edge17" class="edge"><title>Node201&#45;&gt;Node188</title>
<path fill="none" stroke="midnightblue" d="M275.264,-138.57C287.512,-141.002 300.268,-143.535 311.991,-145.864"/>
<polygon fill="midnightblue" stroke="midnightblue" points="275.62,-135.073 265.13,-136.558 274.257,-141.939 275.62,-135.073"/>
</g>
<!-- Node201&#45;&gt;Node201 -->
<g id="edge18" class="edge"><title>Node201&#45;&gt;Node201</title>
<path fill="none" stroke="midnightblue" d="M189.494,-145.654C190.602,-150.937 199.437,-155 216,-155 241.238,-155 248.534,-145.565 237.886,-136.757"/>
<polygon fill="midnightblue" stroke="midnightblue" points="192.612,-147.245 194.114,-136.757 186.399,-144.019 192.612,-147.245"/>
</g>
</g>
</svg>
