<?xml version="1.0" encoding="UTF-8" standalone="no"?>
<!DOCTYPE svg PUBLIC "-//W3C//DTD SVG 1.1//EN"
 "http://www.w3.org/Graphics/SVG/1.1/DTD/svg11.dtd">
<!-- Generated by graphviz version 2.38.0 (20140413.2041)
 -->
<!-- Title: esp&#45;open&#45;lwip/include/lwip/app/dhcpserver.h Pages: 1 -->
<svg width="585pt" height="106pt"
 viewBox="0.00 0.00 584.50 106.00" xmlns="http://www.w3.org/2000/svg" xmlns:xlink="http://www.w3.org/1999/xlink">
<g id="graph0" class="graph" transform="scale(1 1) rotate(0) translate(4 102)">
<title>esp&#45;open&#45;lwip/include/lwip/app/dhcpserver.h</title>
<polygon fill="white" stroke="none" points="-4,4 -4,-102 580.5,-102 580.5,4 -4,4"/>
<!-- Node2 -->
<g id="node1" class="node"><title>Node2</title>
<polygon fill="#bfbfbf" stroke="black" points="212.5,-67.5 212.5,-97.5 327.5,-97.5 327.5,-67.5 212.5,-67.5"/>
<text text-anchor="start" x="220.5" y="-85.5" font-family="Helvetica,sans-Serif" font-size="10.00">esp&#45;open&#45;lwip/include</text>
<text text-anchor="middle" x="270" y="-74.5" font-family="Helvetica,sans-Serif" font-size="10.00">/lwip/app/dhcpserver.h</text>
</g>
<!-- Node3 -->
<g id="node2" class="node"><title>Node3</title>
<g id="a_node2"><a xlink:href="wifi_8c.html" target="_top" xlink:title="modules/wifi.c">
<polygon fill="white" stroke="black" points="0,-6 0,-25 80,-25 80,-6 0,-6"/>
<text text-anchor="middle" x="40" y="-13" font-family="Helvetica,sans-Serif" font-size="10.00">modules/wifi.c</text>
</a>
</g>
</g>
<!-- Node2&#45;&gt;Node3 -->
<g id="edge1" class="edge"><title>Node2&#45;&gt;Node3</title>
<path fill="none" stroke="midnightblue" d="M209.197,-64.7904C174.038,-55.0647 128.98,-42.492 89,-31 82.3494,-29.0883 75.2027,-26.9955 68.4795,-25.0094"/>
<polygon fill="midnightblue" stroke="midnightblue" points="208.267,-68.1647 218.838,-67.4548 210.132,-61.4176 208.267,-68.1647"/>
</g>
<!-- Node4 -->
<g id="node3" class="node"><title>Node4</title>
<g id="a_node3"><a xlink:href="mqtt_8c.html" target="_top" xlink:title="mqtt/mqtt.c">
<polygon fill="white" stroke="black" points="98.5,-6 98.5,-25 165.5,-25 165.5,-6 98.5,-6"/>
<text text-anchor="middle" x="132" y="-13" font-family="Helvetica,sans-Serif" font-size="10.00">mqtt/mqtt.c</text>
</a>
</g>
</g>
<!-- Node2&#45;&gt;Node4 -->
<g id="edge2" class="edge"><title>Node2&#45;&gt;Node4</title>
<path fill="none" stroke="midnightblue" d="M231.002,-63.1315C204.44,-50.6205 170.512,-34.6399 150.061,-25.007"/>
<polygon fill="midnightblue" stroke="midnightblue" points="229.518,-66.3011 240.056,-67.396 232.501,-59.9684 229.518,-66.3011"/>
</g>
<!-- Node5 -->
<g id="node4" class="node"><title>Node5</title>
<g id="a_node4"><a xlink:href="captdns_8c.html" target="_top" xlink:title="user/captdns.c">
<polygon fill="white" stroke="black" points="183.5,-6 183.5,-25 264.5,-25 264.5,-6 183.5,-6"/>
<text text-anchor="middle" x="224" y="-13" font-family="Helvetica,sans-Serif" font-size="10.00">user/captdns.c</text>
</a>
</g>
</g>
<!-- Node2&#45;&gt;Node5 -->
<g id="edge3" class="edge"><title>Node2&#45;&gt;Node5</title>
<path fill="none" stroke="midnightblue" d="M254.059,-58.9745C245.82,-47.332 236.242,-33.7985 230.153,-25.1945"/>
<polygon fill="midnightblue" stroke="midnightblue" points="251.385,-61.2551 260.019,-67.396 257.099,-57.2114 251.385,-61.2551"/>
</g>
<!-- Node6 -->
<g id="node5" class="node"><title>Node6</title>
<g id="a_node5"><a xlink:href="httpd_8c.html" target="_top" xlink:title="user/httpd.c">
<polygon fill="white" stroke="black" points="283,-6 283,-25 351,-25 351,-6 283,-6"/>
<text text-anchor="middle" x="317" y="-13" font-family="Helvetica,sans-Serif" font-size="10.00">user/httpd.c</text>
</a>
</g>
</g>
<!-- Node2&#45;&gt;Node6 -->
<g id="edge4" class="edge"><title>Node2&#45;&gt;Node6</title>
<path fill="none" stroke="midnightblue" d="M286.288,-58.9745C294.706,-47.332 304.492,-33.7985 310.713,-25.1945"/>
<polygon fill="midnightblue" stroke="midnightblue" points="283.222,-57.2416 280.198,-67.396 288.894,-61.3433 283.222,-57.2416"/>
</g>
<!-- Node7 -->
<g id="node6" class="node"><title>Node7</title>
<g id="a_node6"><a xlink:href="httpdespfs_8c.html" target="_top" xlink:title="user/httpdespfs.c">
<polygon fill="white" stroke="black" points="369,-6 369,-25 461,-25 461,-6 369,-6"/>
<text text-anchor="middle" x="415" y="-13" font-family="Helvetica,sans-Serif" font-size="10.00">user/httpdespfs.c</text>
</a>
</g>
</g>
<!-- Node2&#45;&gt;Node7 -->
<g id="edge5" class="edge"><title>Node2&#45;&gt;Node7</title>
<path fill="none" stroke="midnightblue" d="M310.611,-63.2952C338.574,-50.7602 374.44,-34.682 396.023,-25.007"/>
<polygon fill="midnightblue" stroke="midnightblue" points="309.156,-60.1116 301.463,-67.396 312.02,-66.4991 309.156,-60.1116"/>
</g>
<!-- Node8 -->
<g id="node7" class="node"><title>Node8</title>
<g id="a_node7"><a xlink:href="dhcpserver_8c.html" target="_top" xlink:title="esp&#45;open&#45;lwip/lwip\l/app/dhcpserver.c">
<polygon fill="white" stroke="black" points="479.5,-0.5 479.5,-30.5 576.5,-30.5 576.5,-0.5 479.5,-0.5"/>
<text text-anchor="start" x="487.5" y="-18.5" font-family="Helvetica,sans-Serif" font-size="10.00">esp&#45;open&#45;lwip/lwip</text>
<text text-anchor="middle" x="528" y="-7.5" font-family="Helvetica,sans-Serif" font-size="10.00">/app/dhcpserver.c</text>
</a>
</g>
</g>
<!-- Node2&#45;&gt;Node8 -->
<g id="edge6" class="edge"><title>Node2&#45;&gt;Node8</title>
<path fill="none" stroke="midnightblue" d="M335.58,-64.9779C380.368,-53.6942 438.733,-38.9897 479.388,-28.7473"/>
<polygon fill="midnightblue" stroke="midnightblue" points="334.506,-61.6389 325.665,-67.476 336.217,-68.4268 334.506,-61.6389"/>
</g>
</g>
</svg>
