<?xml version="1.0" encoding="UTF-8" standalone="no"?>
<!DOCTYPE svg PUBLIC "-//W3C//DTD SVG 1.1//EN"
 "http://www.w3.org/Graphics/SVG/1.1/DTD/svg11.dtd">
<!-- Generated by graphviz version 2.38.0 (20140413.2041)
 -->
<!-- Title: send_ack Pages: 1 -->
<svg width="278pt" height="28pt"
 viewBox="0.00 0.00 278.00 28.00" xmlns="http://www.w3.org/2000/svg" xmlns:xlink="http://www.w3.org/1999/xlink">
<g id="graph0" class="graph" transform="scale(1 1) rotate(0) translate(4 24)">
<title>send_ack</title>
<polygon fill="white" stroke="none" points="-4,4 -4,-24 274,-24 274,4 -4,4"/>
<!-- Node157 -->
<g id="node1" class="node"><title>Node157</title>
<polygon fill="#bfbfbf" stroke="black" points="0,-0.5 0,-19.5 59,-19.5 59,-0.5 0,-0.5"/>
<text text-anchor="middle" x="29.5" y="-7.5" font-family="Helvetica,sans-Serif" font-size="10.00">send_ack</text>
</g>
<!-- Node158 -->
<g id="node2" class="node"><title>Node158</title>
<g id="a_node2"><a xlink:href="dhcpserver_8c.html#a11489c1fab4206e65914c4c46850d183" target="_top" xlink:title="handle_dhcp">
<polygon fill="white" stroke="black" points="95,-0.5 95,-19.5 166,-19.5 166,-0.5 95,-0.5"/>
<text text-anchor="middle" x="130.5" y="-7.5" font-family="Helvetica,sans-Serif" font-size="10.00">handle_dhcp</text>
</a>
</g>
</g>
<!-- Node157&#45;&gt;Node158 -->
<g id="edge1" class="edge"><title>Node157&#45;&gt;Node158</title>
<path fill="none" stroke="midnightblue" d="M69.2061,-10C77.7029,-10 86.6457,-10 94.9658,-10"/>
<polygon fill="midnightblue" stroke="midnightblue" points="69.1349,-6.5001 59.1349,-10 69.1349,-13.5001 69.1349,-6.5001"/>
</g>
<!-- Node159 -->
<g id="node3" class="node"><title>Node159</title>
<g id="a_node3"><a xlink:href="dhcpserver_8c.html#aa4cf55564a805b8654630547d365edcd" target="_top" xlink:title="dhcps_start">
<polygon fill="white" stroke="black" points="202,-0.5 202,-19.5 270,-19.5 270,-0.5 202,-0.5"/>
<text text-anchor="middle" x="236" y="-7.5" font-family="Helvetica,sans-Serif" font-size="10.00">dhcps_start</text>
</a>
</g>
</g>
<!-- Node158&#45;&gt;Node159 -->
<g id="edge2" class="edge"><title>Node158&#45;&gt;Node159</title>
<path fill="none" stroke="midnightblue" d="M176.486,-10C185.03,-10 193.825,-10 201.916,-10"/>
<polygon fill="midnightblue" stroke="midnightblue" points="176.252,-6.5001 166.252,-10 176.252,-13.5001 176.252,-6.5001"/>
</g>
</g>
</svg>
