<?xml version="1.0" encoding="UTF-8" standalone="no"?>
<!DOCTYPE svg PUBLIC "-//W3C//DTD SVG 1.1//EN"
 "http://www.w3.org/Graphics/SVG/1.1/DTD/svg11.dtd">
<!-- Generated by graphviz version 2.38.0 (20140413.2041)
 -->
<!-- Title: handle_dhcp Pages: 1 -->
<svg width="708pt" height="370pt"
 viewBox="0.00 0.00 708.00 370.00" xmlns="http://www.w3.org/2000/svg" xmlns:xlink="http://www.w3.org/1999/xlink">
<g id="graph0" class="graph" transform="scale(1 1) rotate(0) translate(4 366)">
<title>handle_dhcp</title>
<polygon fill="white" stroke="none" points="-4,4 -4,-366 704,-366 704,4 -4,4"/>
<!-- Node77 -->
<g id="node1" class="node"><title>Node77</title>
<polygon fill="#bfbfbf" stroke="black" points="0,-152.5 0,-171.5 71,-171.5 71,-152.5 0,-152.5"/>
<text text-anchor="middle" x="35.5" y="-159.5" font-family="Helvetica,sans-Serif" font-size="10.00">handle_dhcp</text>
</g>
<!-- Node78 -->
<g id="node2" class="node"><title>Node78</title>
<g id="a_node2"><a xlink:href="dhcpserver_8c.html#a72c6ecdbccb7cf567c40b857523706bd" target="_top" xlink:title="parse_msg">
<polygon fill="white" stroke="black" points="107,-266.5 107,-285.5 172,-285.5 172,-266.5 107,-266.5"/>
<text text-anchor="middle" x="139.5" y="-273.5" font-family="Helvetica,sans-Serif" font-size="10.00">parse_msg</text>
</a>
</g>
</g>
<!-- Node77&#45;&gt;Node78 -->
<g id="edge1" class="edge"><title>Node77&#45;&gt;Node78</title>
<path fill="none" stroke="midnightblue" d="M45.1965,-171.72C62.4347,-190.986 101.148,-234.254 122.901,-258.566"/>
<polygon fill="midnightblue" stroke="midnightblue" points="120.549,-261.186 129.826,-266.305 125.766,-256.519 120.549,-261.186"/>
</g>
<!-- Node83 -->
<g id="node7" class="node"><title>Node83</title>
<g id="a_node7"><a xlink:href="pbuf_8h.html#a0d26e00e2cf975274139d27ddabd7ed3" target="_top" xlink:title="pbuf_free">
<polygon fill="white" stroke="black" points="249,-190.5 249,-209.5 306,-209.5 306,-190.5 249,-190.5"/>
<text text-anchor="middle" x="277.5" y="-197.5" font-family="Helvetica,sans-Serif" font-size="10.00">pbuf_free</text>
</a>
</g>
</g>
<!-- Node77&#45;&gt;Node83 -->
<g id="edge6" class="edge"><title>Node77&#45;&gt;Node83</title>
<path fill="none" stroke="midnightblue" d="M67.8492,-171.542C79.9837,-174.947 94.0476,-178.543 107,-181 151.821,-189.501 204.083,-194.651 238.597,-197.405"/>
<polygon fill="midnightblue" stroke="midnightblue" points="238.471,-200.906 248.71,-198.184 239.009,-193.926 238.471,-200.906"/>
</g>
<!-- Node87 -->
<g id="node11" class="node"><title>Node87</title>
<g id="a_node11"><a xlink:href="dhcpserver_8c.html#a024751b98d23fc209015b3ac5a76aae9" target="_top" xlink:title="send_ack">
<polygon fill="white" stroke="black" points="110,-76.5 110,-95.5 169,-95.5 169,-76.5 110,-76.5"/>
<text text-anchor="middle" x="139.5" y="-83.5" font-family="Helvetica,sans-Serif" font-size="10.00">send_ack</text>
</a>
</g>
</g>
<!-- Node77&#45;&gt;Node87 -->
<g id="edge10" class="edge"><title>Node77&#45;&gt;Node87</title>
<path fill="none" stroke="midnightblue" d="M47.6048,-152.223C61.1894,-140.454 85.0888,-120.358 107,-105 108.87,-103.69 110.831,-102.375 112.823,-101.082"/>
<polygon fill="midnightblue" stroke="midnightblue" points="114.918,-103.9 121.554,-95.6405 111.216,-97.9596 114.918,-103.9"/>
</g>
<!-- Node99 -->
<g id="node23" class="node"><title>Node99</title>
<g id="a_node23"><a xlink:href="dhcpserver_8c.html#a81ead8e0f00ecfc0037e83cae928019f" target="_top" xlink:title="send_nak">
<polygon fill="white" stroke="black" points="110,-152.5 110,-171.5 169,-171.5 169,-152.5 110,-152.5"/>
<text text-anchor="middle" x="139.5" y="-159.5" font-family="Helvetica,sans-Serif" font-size="10.00">send_nak</text>
</a>
</g>
</g>
<!-- Node77&#45;&gt;Node99 -->
<g id="edge25" class="edge"><title>Node77&#45;&gt;Node99</title>
<path fill="none" stroke="midnightblue" d="M71.0325,-162C80.1867,-162 90.1338,-162 99.5072,-162"/>
<polygon fill="midnightblue" stroke="midnightblue" points="99.7734,-165.5 109.773,-162 99.7734,-158.5 99.7734,-165.5"/>
</g>
<!-- Node100 -->
<g id="node24" class="node"><title>Node100</title>
<g id="a_node24"><a xlink:href="dhcpserver_8c.html#aa16cfa7bae7bd0fcb895a8b2513dd60f" target="_top" xlink:title="send_offer">
<polygon fill="white" stroke="black" points="108.5,-114.5 108.5,-133.5 170.5,-133.5 170.5,-114.5 108.5,-114.5"/>
<text text-anchor="middle" x="139.5" y="-121.5" font-family="Helvetica,sans-Serif" font-size="10.00">send_offer</text>
</a>
</g>
</g>
<!-- Node77&#45;&gt;Node100 -->
<g id="edge31" class="edge"><title>Node77&#45;&gt;Node100</title>
<path fill="none" stroke="midnightblue" d="M62.2389,-152.411C74.6813,-147.776 89.8075,-142.14 103.297,-137.115"/>
<polygon fill="midnightblue" stroke="midnightblue" points="104.62,-140.357 112.769,-133.586 102.177,-133.797 104.62,-140.357"/>
</g>
<!-- Node79 -->
<g id="node3" class="node"><title>Node79</title>
<g id="a_node3"><a xlink:href="dhcpserver_8c.html#a6575d1e13274b93e442ed73730c88e60" target="_top" xlink:title="node_insert_to_list">
<polygon fill="white" stroke="black" points="228.5,-266.5 228.5,-285.5 326.5,-285.5 326.5,-266.5 228.5,-266.5"/>
<text text-anchor="middle" x="277.5" y="-273.5" font-family="Helvetica,sans-Serif" font-size="10.00">node_insert_to_list</text>
</a>
</g>
</g>
<!-- Node78&#45;&gt;Node79 -->
<g id="edge2" class="edge"><title>Node78&#45;&gt;Node79</title>
<path fill="none" stroke="midnightblue" d="M172.043,-276C185.753,-276 202.271,-276 218.084,-276"/>
<polygon fill="midnightblue" stroke="midnightblue" points="218.336,-279.5 228.336,-276 218.336,-272.5 218.336,-279.5"/>
</g>
<!-- Node80 -->
<g id="node4" class="node"><title>Node80</title>
<g id="a_node4"><a xlink:href="user__interface_8h.html#a258edd68184bb78f062a3b375dca997c" target="_top" xlink:title="system_get_free_heap_size">
<polygon fill="white" stroke="black" points="208,-228.5 208,-247.5 347,-247.5 347,-228.5 208,-228.5"/>
<text text-anchor="middle" x="277.5" y="-235.5" font-family="Helvetica,sans-Serif" font-size="10.00">system_get_free_heap_size</text>
</a>
</g>
</g>
<!-- Node78&#45;&gt;Node80 -->
<g id="edge3" class="edge"><title>Node78&#45;&gt;Node80</title>
<path fill="none" stroke="midnightblue" d="M172.086,-267.082C183.41,-263.892 196.275,-260.276 208,-257 215.859,-254.804 224.227,-252.475 232.318,-250.228"/>
<polygon fill="midnightblue" stroke="midnightblue" points="233.296,-253.589 241.997,-247.543 231.425,-246.844 233.296,-253.589"/>
</g>
<!-- Node81 -->
<g id="node5" class="node"><title>Node81</title>
<g id="a_node5"><a xlink:href="dhcpserver_8c.html#a5189bbf95d6eed2474f4dac72c68d7b3" target="_top" xlink:title="node_remove_from_list">
<polygon fill="white" stroke="black" points="218.5,-342.5 218.5,-361.5 336.5,-361.5 336.5,-342.5 218.5,-342.5"/>
<text text-anchor="middle" x="277.5" y="-349.5" font-family="Helvetica,sans-Serif" font-size="10.00">node_remove_from_list</text>
</a>
</g>
</g>
<!-- Node78&#45;&gt;Node81 -->
<g id="edge4" class="edge"><title>Node78&#45;&gt;Node81</title>
<path fill="none" stroke="midnightblue" d="M149.162,-285.527C161.177,-298.179 184.13,-320.393 208,-333 212.276,-335.259 216.849,-337.271 221.526,-339.06"/>
<polygon fill="midnightblue" stroke="midnightblue" points="220.619,-342.449 231.214,-342.424 222.915,-335.837 220.619,-342.449"/>
</g>
<!-- Node82 -->
<g id="node6" class="node"><title>Node82</title>
<g id="a_node6"><a xlink:href="dhcpserver_8c.html#a8407521ea77d5ecc99ecd189eff6d393" target="_top" xlink:title="parse_options">
<polygon fill="white" stroke="black" points="239,-304.5 239,-323.5 316,-323.5 316,-304.5 239,-304.5"/>
<text text-anchor="middle" x="277.5" y="-311.5" font-family="Helvetica,sans-Serif" font-size="10.00">parse_options</text>
</a>
</g>
</g>
<!-- Node78&#45;&gt;Node82 -->
<g id="edge5" class="edge"><title>Node78&#45;&gt;Node82</title>
<path fill="none" stroke="midnightblue" d="M172.086,-284.918C183.41,-288.108 196.275,-291.724 208,-295 215.859,-297.196 224.227,-299.525 232.318,-301.772"/>
<polygon fill="midnightblue" stroke="midnightblue" points="231.425,-305.156 241.997,-304.457 233.296,-298.411 231.425,-305.156"/>
</g>
<!-- Node84 -->
<g id="node8" class="node"><title>Node84</title>
<g id="a_node8"><a xlink:href="esp-open-lwip_2include_2lwip_2mem_8h.html#ab270bbe39e1996d7095be3a139620ce0" target="_top" xlink:title="mem_free">
<polygon fill="white" stroke="black" points="522,-218.5 522,-237.5 582,-237.5 582,-218.5 522,-218.5"/>
<text text-anchor="middle" x="552" y="-225.5" font-family="Helvetica,sans-Serif" font-size="10.00">mem_free</text>
</a>
</g>
</g>
<!-- Node83&#45;&gt;Node84 -->
<g id="edge7" class="edge"><title>Node83&#45;&gt;Node84</title>
<path fill="none" stroke="midnightblue" d="M306.397,-204.124C327.42,-207.137 356.978,-211.174 383,-214 427.036,-218.782 477.721,-222.803 511.803,-225.291"/>
<polygon fill="midnightblue" stroke="midnightblue" points="511.596,-228.785 521.822,-226.013 512.099,-221.803 511.596,-228.785"/>
</g>
<!-- Node86 -->
<g id="node10" class="node"><title>Node86</title>
<g id="a_node10"><a xlink:href="memp_8h.html#a9d30a969401eb0626105950d6e63f3bf" target="_top" xlink:title="memp_free">
<polygon fill="white" stroke="black" points="519.5,-161.5 519.5,-180.5 584.5,-180.5 584.5,-161.5 519.5,-161.5"/>
<text text-anchor="middle" x="552" y="-168.5" font-family="Helvetica,sans-Serif" font-size="10.00">memp_free</text>
</a>
</g>
</g>
<!-- Node83&#45;&gt;Node86 -->
<g id="edge9" class="edge"><title>Node83&#45;&gt;Node86</title>
<path fill="none" stroke="midnightblue" d="M306.303,-197.356C343.09,-193.821 409.948,-187.271 467,-181 480.727,-179.491 495.703,-177.742 509.158,-176.132"/>
<polygon fill="midnightblue" stroke="midnightblue" points="509.595,-179.604 519.105,-174.934 508.759,-172.655 509.595,-179.604"/>
</g>
<!-- Node85 -->
<g id="node9" class="node"><title>Node85</title>
<g id="a_node9"><a xlink:href="mem_8c.html#a24221009a2c00e9c3fa63eaa9444a076" target="_top" xlink:title="plug_holes">
<polygon fill="white" stroke="black" points="637,-218.5 637,-237.5 700,-237.5 700,-218.5 637,-218.5"/>
<text text-anchor="middle" x="668.5" y="-225.5" font-family="Helvetica,sans-Serif" font-size="10.00">plug_holes</text>
</a>
</g>
</g>
<!-- Node84&#45;&gt;Node85 -->
<g id="edge8" class="edge"><title>Node84&#45;&gt;Node85</title>
<path fill="none" stroke="midnightblue" d="M582.189,-228C595.625,-228 611.8,-228 626.437,-228"/>
<polygon fill="midnightblue" stroke="midnightblue" points="626.762,-231.5 636.762,-228 626.762,-224.5 626.762,-231.5"/>
</g>
<!-- Node87&#45;&gt;Node83 -->
<g id="edge24" class="edge"><title>Node87&#45;&gt;Node83</title>
<path fill="none" stroke="midnightblue" d="M160.491,-95.6312C164.646,-98.2629 168.744,-101.4 172,-105 197.069,-132.721 179.401,-156.936 208,-181 216.748,-188.361 228.135,-192.883 239.106,-195.656"/>
<polygon fill="midnightblue" stroke="midnightblue" points="238.468,-199.098 248.976,-197.743 239.916,-192.25 238.468,-199.098"/>
</g>
<!-- Node88 -->
<g id="node12" class="node"><title>Node88</title>
<g id="a_node12"><a xlink:href="dhcpserver_8c.html#a424b9b8d671aa4c6550b25a5fb5c69cc" target="_top" xlink:title="create_msg">
<polygon fill="white" stroke="black" points="243.5,-114.5 243.5,-133.5 311.5,-133.5 311.5,-114.5 243.5,-114.5"/>
<text text-anchor="middle" x="277.5" y="-121.5" font-family="Helvetica,sans-Serif" font-size="10.00">create_msg</text>
</a>
</g>
</g>
<!-- Node87&#45;&gt;Node88 -->
<g id="edge11" class="edge"><title>Node87&#45;&gt;Node88</title>
<path fill="none" stroke="midnightblue" d="M169.067,-94.0672C181.086,-97.4543 195.22,-101.429 208,-105 216.287,-107.316 225.141,-109.779 233.638,-112.138"/>
<polygon fill="midnightblue" stroke="midnightblue" points="232.822,-115.544 243.394,-114.845 234.693,-108.799 232.822,-115.544"/>
</g>
<!-- Node89 -->
<g id="node13" class="node"><title>Node89</title>
<g id="a_node13"><a xlink:href="dhcpserver_8c.html#a11dbc1add0179422de532e78b1a8c6d8" target="_top" xlink:title="add_msg_type">
<polygon fill="white" stroke="black" points="237.5,-76.5 237.5,-95.5 317.5,-95.5 317.5,-76.5 237.5,-76.5"/>
<text text-anchor="middle" x="277.5" y="-83.5" font-family="Helvetica,sans-Serif" font-size="10.00">add_msg_type</text>
</a>
</g>
</g>
<!-- Node87&#45;&gt;Node89 -->
<g id="edge12" class="edge"><title>Node87&#45;&gt;Node89</title>
<path fill="none" stroke="midnightblue" d="M169.01,-86C185.924,-86 207.825,-86 227.442,-86"/>
<polygon fill="midnightblue" stroke="midnightblue" points="227.453,-89.5001 237.453,-86 227.453,-82.5001 227.453,-89.5001"/>
</g>
<!-- Node90 -->
<g id="node14" class="node"><title>Node90</title>
<g id="a_node14"><a xlink:href="dhcpserver_8c.html#a073fe00851b9b0c98ba76fe19bf6fa83" target="_top" xlink:title="add_offer_options">
<polygon fill="white" stroke="black" points="230.5,-0.5 230.5,-19.5 324.5,-19.5 324.5,-0.5 230.5,-0.5"/>
<text text-anchor="middle" x="277.5" y="-7.5" font-family="Helvetica,sans-Serif" font-size="10.00">add_offer_options</text>
</a>
</g>
</g>
<!-- Node87&#45;&gt;Node90 -->
<g id="edge13" class="edge"><title>Node87&#45;&gt;Node90</title>
<path fill="none" stroke="midnightblue" d="M149.162,-76.4733C161.177,-63.8209 184.13,-41.6072 208,-29 212.276,-26.7414 216.849,-24.729 221.526,-22.9405"/>
<polygon fill="midnightblue" stroke="midnightblue" points="222.915,-26.1632 231.214,-19.5763 220.619,-19.5506 222.915,-26.1632"/>
</g>
<!-- Node92 -->
<g id="node16" class="node"><title>Node92</title>
<g id="a_node16"><a xlink:href="dhcpserver_8c.html#aad9c2e8bfabe5431b4b0aa0e02cf46e2" target="_top" xlink:title="add_end">
<polygon fill="white" stroke="black" points="251,-38.5 251,-57.5 304,-57.5 304,-38.5 251,-38.5"/>
<text text-anchor="middle" x="277.5" y="-45.5" font-family="Helvetica,sans-Serif" font-size="10.00">add_end</text>
</a>
</g>
</g>
<!-- Node87&#45;&gt;Node92 -->
<g id="edge15" class="edge"><title>Node87&#45;&gt;Node92</title>
<path fill="none" stroke="midnightblue" d="M169.067,-77.9328C181.086,-74.5457 195.22,-70.5711 208,-67 218.719,-64.0049 230.386,-60.7622 241.004,-57.818"/>
<polygon fill="midnightblue" stroke="midnightblue" points="242.094,-61.1478 250.796,-55.1046 240.225,-54.402 242.094,-61.1478"/>
</g>
<!-- Node93 -->
<g id="node17" class="node"><title>Node93</title>
<g id="a_node17"><a xlink:href="pbuf_8h.html#ac6efc2aaeddfea6c95729dc86f785ba4" target="_top" xlink:title="pbuf_alloc">
<polygon fill="white" stroke="black" points="247,-152.5 247,-171.5 308,-171.5 308,-152.5 247,-152.5"/>
<text text-anchor="middle" x="277.5" y="-159.5" font-family="Helvetica,sans-Serif" font-size="10.00">pbuf_alloc</text>
</a>
</g>
</g>
<!-- Node87&#45;&gt;Node93 -->
<g id="edge16" class="edge"><title>Node87&#45;&gt;Node93</title>
<path fill="none" stroke="midnightblue" d="M158.391,-95.6509C162.992,-98.435 167.82,-101.637 172,-105 190.125,-119.585 188.064,-131.009 208,-143 216.804,-148.295 227.126,-152.156 237.048,-154.955"/>
<polygon fill="midnightblue" stroke="midnightblue" points="236.212,-158.354 246.765,-157.414 237.929,-151.568 236.212,-158.354"/>
</g>
<!-- Node91 -->
<g id="node15" class="node"><title>Node91</title>
<g id="a_node15"><a xlink:href="user__interface_8h.html#a70c442301412fe5d3711a8f0b8c7b7b5" target="_top" xlink:title="wifi_get_ip_info">
<polygon fill="white" stroke="black" points="383,-0.5 383,-19.5 467,-19.5 467,-0.5 383,-0.5"/>
<text text-anchor="middle" x="425" y="-7.5" font-family="Helvetica,sans-Serif" font-size="10.00">wifi_get_ip_info</text>
</a>
</g>
</g>
<!-- Node90&#45;&gt;Node91 -->
<g id="edge14" class="edge"><title>Node90&#45;&gt;Node91</title>
<path fill="none" stroke="midnightblue" d="M324.537,-10C339.835,-10 356.964,-10 372.638,-10"/>
<polygon fill="midnightblue" stroke="midnightblue" points="372.695,-13.5001 382.695,-10 372.695,-6.5001 372.695,-13.5001"/>
</g>
<!-- Node94 -->
<g id="node18" class="node"><title>Node94</title>
<g id="a_node18"><a xlink:href="esp-open-lwip_2include_2lwip_2mem_8h.html#a1cb005c6c44b685b8025b329a6d2bcd4" target="_top" xlink:title="mem_malloc">
<polygon fill="white" stroke="black" points="389,-76.5 389,-95.5 461,-95.5 461,-76.5 389,-76.5"/>
<text text-anchor="middle" x="425" y="-83.5" font-family="Helvetica,sans-Serif" font-size="10.00">mem_malloc</text>
</a>
</g>
</g>
<!-- Node93&#45;&gt;Node94 -->
<g id="edge17" class="edge"><title>Node93&#45;&gt;Node94</title>
<path fill="none" stroke="midnightblue" d="M308.235,-157.414C320.824,-154.57 335.261,-150.061 347,-143 366.936,-131.009 364.109,-118.578 383,-105 385.329,-103.326 387.829,-101.742 390.404,-100.258"/>
<polygon fill="midnightblue" stroke="midnightblue" points="392.066,-103.339 399.306,-95.6035 388.823,-97.1354 392.066,-103.339"/>
</g>
<!-- Node97 -->
<g id="node21" class="node"><title>Node97</title>
<g id="a_node21"><a xlink:href="memp_8h.html#a5b98c976852aa0eabda9fd588be56eb8" target="_top" xlink:title="memp_malloc">
<polygon fill="white" stroke="black" points="386.5,-114.5 386.5,-133.5 463.5,-133.5 463.5,-114.5 386.5,-114.5"/>
<text text-anchor="middle" x="425" y="-121.5" font-family="Helvetica,sans-Serif" font-size="10.00">memp_malloc</text>
</a>
</g>
</g>
<!-- Node93&#45;&gt;Node97 -->
<g id="edge20" class="edge"><title>Node93&#45;&gt;Node97</title>
<path fill="none" stroke="midnightblue" d="M308.295,-154.218C328.284,-148.998 355.013,-142.017 377.745,-136.08"/>
<polygon fill="midnightblue" stroke="midnightblue" points="378.748,-139.436 387.539,-133.522 376.98,-132.663 378.748,-139.436"/>
</g>
<!-- Node98 -->
<g id="node22" class="node"><title>Node98</title>
<g id="a_node22"><a xlink:href="pbuf_8c.html#ab0dd696fb4b6bc65e548944584f1738b" target="_top" xlink:title="pbuf_free">
<polygon fill="white" stroke="black" points="396.5,-152.5 396.5,-171.5 453.5,-171.5 453.5,-152.5 396.5,-152.5"/>
<text text-anchor="middle" x="425" y="-159.5" font-family="Helvetica,sans-Serif" font-size="10.00">pbuf_free</text>
</a>
</g>
</g>
<!-- Node93&#45;&gt;Node98 -->
<g id="edge21" class="edge"><title>Node93&#45;&gt;Node98</title>
<path fill="none" stroke="midnightblue" d="M308.295,-162C330.746,-162 361.701,-162 385.944,-162"/>
<polygon fill="midnightblue" stroke="midnightblue" points="386.216,-165.5 396.216,-162 386.216,-158.5 386.216,-165.5"/>
</g>
<!-- Node95 -->
<g id="node19" class="node"><title>Node95</title>
<g id="a_node19"><a xlink:href="sys_8h.html#a4d4eb9afe5965fa2661dd54ff55d616a" target="_top" xlink:title="sys_mutex_lock">
<polygon fill="white" stroke="black" points="508,-95.5 508,-114.5 596,-114.5 596,-95.5 508,-95.5"/>
<text text-anchor="middle" x="552" y="-102.5" font-family="Helvetica,sans-Serif" font-size="10.00">sys_mutex_lock</text>
</a>
</g>
</g>
<!-- Node94&#45;&gt;Node95 -->
<g id="edge18" class="edge"><title>Node94&#45;&gt;Node95</title>
<path fill="none" stroke="midnightblue" d="M461.152,-91.3431C472.435,-93.0581 485.199,-94.9983 497.49,-96.8664"/>
<polygon fill="midnightblue" stroke="midnightblue" points="497.247,-100.37 507.659,-98.4122 498.299,-93.4491 497.247,-100.37"/>
</g>
<!-- Node96 -->
<g id="node20" class="node"><title>Node96</title>
<g id="a_node20"><a xlink:href="sys_8h.html#a5568f68898fe9d5735f9ce2f665624fb" target="_top" xlink:title="sys_mutex_unlock">
<polygon fill="white" stroke="black" points="503,-57.5 503,-76.5 601,-76.5 601,-57.5 503,-57.5"/>
<text text-anchor="middle" x="552" y="-64.5" font-family="Helvetica,sans-Serif" font-size="10.00">sys_mutex_unlock</text>
</a>
</g>
</g>
<!-- Node94&#45;&gt;Node96 -->
<g id="edge19" class="edge"><title>Node94&#45;&gt;Node96</title>
<path fill="none" stroke="midnightblue" d="M461.152,-80.6569C470.893,-79.1763 481.737,-77.528 492.428,-75.903"/>
<polygon fill="midnightblue" stroke="midnightblue" points="493.229,-79.3215 502.589,-74.3584 492.177,-72.401 493.229,-79.3215"/>
</g>
<!-- Node98&#45;&gt;Node84 -->
<g id="edge23" class="edge"><title>Node98&#45;&gt;Node84</title>
<path fill="none" stroke="midnightblue" d="M444.176,-171.597C465.098,-182.644 499.672,-200.899 523.802,-213.639"/>
<polygon fill="midnightblue" stroke="midnightblue" points="522.325,-216.817 532.802,-218.391 525.593,-210.627 522.325,-216.817"/>
</g>
<!-- Node98&#45;&gt;Node86 -->
<g id="edge22" class="edge"><title>Node98&#45;&gt;Node86</title>
<path fill="none" stroke="midnightblue" d="M453.742,-163.997C470.051,-165.172 490.991,-166.679 509.261,-167.995"/>
<polygon fill="midnightblue" stroke="midnightblue" points="509.146,-171.495 519.371,-168.723 509.649,-164.514 509.146,-171.495"/>
</g>
<!-- Node99&#45;&gt;Node83 -->
<g id="edge30" class="edge"><title>Node99&#45;&gt;Node83</title>
<path fill="none" stroke="midnightblue" d="M169.067,-170.067C181.086,-173.454 195.22,-177.429 208,-181 218.073,-183.815 228.985,-186.848 239.075,-189.647"/>
<polygon fill="midnightblue" stroke="midnightblue" points="238.258,-193.053 248.83,-192.351 240.128,-186.307 238.258,-193.053"/>
</g>
<!-- Node99&#45;&gt;Node88 -->
<g id="edge26" class="edge"><title>Node99&#45;&gt;Node88</title>
<path fill="none" stroke="midnightblue" d="M169.067,-153.933C181.086,-150.546 195.22,-146.571 208,-143 216.287,-140.684 225.141,-138.221 233.638,-135.862"/>
<polygon fill="midnightblue" stroke="midnightblue" points="234.693,-139.201 243.394,-133.155 232.822,-132.456 234.693,-139.201"/>
</g>
<!-- Node99&#45;&gt;Node89 -->
<g id="edge27" class="edge"><title>Node99&#45;&gt;Node89</title>
<path fill="none" stroke="midnightblue" d="M158.391,-152.349C162.992,-149.565 167.82,-146.363 172,-143 190.125,-128.415 188.064,-116.991 208,-105 213.969,-101.41 220.635,-98.4795 227.401,-96.0922"/>
<polygon fill="midnightblue" stroke="midnightblue" points="228.829,-99.3119 237.316,-92.9695 226.727,-92.6352 228.829,-99.3119"/>
</g>
<!-- Node99&#45;&gt;Node92 -->
<g id="edge28" class="edge"><title>Node99&#45;&gt;Node92</title>
<path fill="none" stroke="midnightblue" d="M160.491,-152.369C164.646,-149.737 168.744,-146.6 172,-143 197.069,-115.279 179.401,-91.0636 208,-67 217.276,-59.1951 229.518,-54.5825 241.085,-51.8613"/>
<polygon fill="midnightblue" stroke="midnightblue" points="241.843,-55.2795 250.984,-49.9243 240.498,-48.4098 241.843,-55.2795"/>
</g>
<!-- Node99&#45;&gt;Node93 -->
<g id="edge29" class="edge"><title>Node99&#45;&gt;Node93</title>
<path fill="none" stroke="midnightblue" d="M169.01,-162C188.556,-162 214.762,-162 236.406,-162"/>
<polygon fill="midnightblue" stroke="midnightblue" points="236.615,-165.5 246.615,-162 236.615,-158.5 236.615,-165.5"/>
</g>
<!-- Node100&#45;&gt;Node83 -->
<g id="edge37" class="edge"><title>Node100&#45;&gt;Node83</title>
<path fill="none" stroke="midnightblue" d="M158.391,-133.651C162.992,-136.435 167.82,-139.637 172,-143 190.125,-157.585 188.064,-169.009 208,-181 217.377,-186.64 228.475,-190.652 238.978,-193.488"/>
<polygon fill="midnightblue" stroke="midnightblue" points="238.247,-196.912 248.79,-195.861 239.893,-190.108 238.247,-196.912"/>
</g>
<!-- Node100&#45;&gt;Node88 -->
<g id="edge32" class="edge"><title>Node100&#45;&gt;Node88</title>
<path fill="none" stroke="midnightblue" d="M170.683,-124C188.942,-124 212.535,-124 232.809,-124"/>
<polygon fill="midnightblue" stroke="midnightblue" points="233.062,-127.5 243.062,-124 233.062,-120.5 233.062,-127.5"/>
</g>
<!-- Node100&#45;&gt;Node89 -->
<g id="edge33" class="edge"><title>Node100&#45;&gt;Node89</title>
<path fill="none" stroke="midnightblue" d="M170.734,-115.463C182.379,-112.182 195.806,-108.407 208,-105 215.859,-102.804 224.227,-100.475 232.318,-98.2282"/>
<polygon fill="midnightblue" stroke="midnightblue" points="233.296,-101.589 241.997,-95.5427 231.425,-94.8439 233.296,-101.589"/>
</g>
<!-- Node100&#45;&gt;Node90 -->
<g id="edge34" class="edge"><title>Node100&#45;&gt;Node90</title>
<path fill="none" stroke="midnightblue" d="M160.491,-114.369C164.646,-111.737 168.744,-108.6 172,-105 197.069,-77.2789 179.401,-53.0636 208,-29 211.913,-25.7075 216.354,-22.983 221.05,-20.729"/>
<polygon fill="midnightblue" stroke="midnightblue" points="222.383,-23.9653 230.321,-16.9486 219.74,-17.4834 222.383,-23.9653"/>
</g>
<!-- Node100&#45;&gt;Node92 -->
<g id="edge35" class="edge"><title>Node100&#45;&gt;Node92</title>
<path fill="none" stroke="midnightblue" d="M158.391,-114.349C162.992,-111.565 167.82,-108.363 172,-105 190.125,-90.4152 188.064,-78.9909 208,-67 217.959,-61.0098 229.861,-56.8556 240.928,-53.9972"/>
<polygon fill="midnightblue" stroke="midnightblue" points="241.822,-57.3829 250.777,-51.721 240.246,-50.5626 241.822,-57.3829"/>
</g>
<!-- Node100&#45;&gt;Node93 -->
<g id="edge36" class="edge"><title>Node100&#45;&gt;Node93</title>
<path fill="none" stroke="midnightblue" d="M170.734,-132.537C182.379,-135.818 195.806,-139.593 208,-143 217.439,-145.638 227.614,-148.467 237.16,-151.116"/>
<polygon fill="midnightblue" stroke="midnightblue" points="236.25,-154.496 246.822,-153.795 238.121,-147.75 236.25,-154.496"/>
</g>
</g>
</svg>
