<?xml version="1.0" encoding="UTF-8" standalone="no"?>
<!DOCTYPE svg PUBLIC "-//W3C//DTD SVG 1.1//EN"
 "http://www.w3.org/Graphics/SVG/1.1/DTD/svg11.dtd">
<!-- Generated by graphviz version 2.38.0 (20140413.2041)
 -->
<!-- Title: node_remove_from_list Pages: 1 -->
<svg width="533pt" height="218pt"
 viewBox="0.00 0.00 533.00 218.00" xmlns="http://www.w3.org/2000/svg" xmlns:xlink="http://www.w3.org/1999/xlink">
<g id="graph0" class="graph" transform="scale(1 1) rotate(0) translate(4 214)">
<title>node_remove_from_list</title>
<polygon fill="white" stroke="none" points="-4,4 -4,-214 529,-214 529,4 -4,4"/>
<!-- Node117 -->
<g id="node1" class="node"><title>Node117</title>
<polygon fill="#bfbfbf" stroke="black" points="0,-95.5 0,-114.5 118,-114.5 118,-95.5 0,-95.5"/>
<text text-anchor="middle" x="59" y="-102.5" font-family="Helvetica,sans-Serif" font-size="10.00">node_remove_from_list</text>
</g>
<!-- Node118 -->
<g id="node2" class="node"><title>Node118</title>
<g id="a_node2"><a xlink:href="dhcpserver_8c.html#a5e5f582a876a86192e1168a6fe62aec5" target="_top" xlink:title="dhcps_coarse_tmr">
<polygon fill="white" stroke="black" points="164.5,-190.5 164.5,-209.5 261.5,-209.5 261.5,-190.5 164.5,-190.5"/>
<text text-anchor="middle" x="213" y="-197.5" font-family="Helvetica,sans-Serif" font-size="10.00">dhcps_coarse_tmr</text>
</a>
</g>
</g>
<!-- Node117&#45;&gt;Node118 -->
<g id="edge1" class="edge"><title>Node117&#45;&gt;Node118</title>
<path fill="none" stroke="midnightblue" d="M76.5803,-121.592C94.3658,-138.582 124.105,-164.737 154,-181 160.795,-184.696 168.43,-187.83 175.875,-190.42"/>
<polygon fill="midnightblue" stroke="midnightblue" points="78.8999,-118.966 69.2922,-114.5 74.0179,-123.983 78.8999,-118.966"/>
</g>
<!-- Node119 -->
<g id="node3" class="node"><title>Node119</title>
<g id="a_node3"><a xlink:href="dhcpserver_8c.html#a64b76b9033af6ccbb89b4963a70c9a22" target="_top" xlink:title="dhcps_stop">
<polygon fill="white" stroke="black" points="179.5,-152.5 179.5,-171.5 246.5,-171.5 246.5,-152.5 179.5,-152.5"/>
<text text-anchor="middle" x="213" y="-159.5" font-family="Helvetica,sans-Serif" font-size="10.00">dhcps_stop</text>
</a>
</g>
</g>
<!-- Node117&#45;&gt;Node119 -->
<g id="edge2" class="edge"><title>Node117&#45;&gt;Node119</title>
<path fill="none" stroke="midnightblue" d="M92.1069,-118.606C110.175,-126.104 133.215,-135.404 154,-143 162.857,-146.237 172.566,-149.52 181.464,-152.425"/>
<polygon fill="midnightblue" stroke="midnightblue" points="93.2032,-115.271 82.6267,-114.648 90.5062,-121.731 93.2032,-115.271"/>
</g>
<!-- Node120 -->
<g id="node4" class="node"><title>Node120</title>
<g id="a_node4"><a xlink:href="encdhcpserver_8c.html#a97a631ee00846a92992a246760d07641" target="_top" xlink:title="enc_dhcps_coarse_tmr">
<polygon fill="white" stroke="black" points="154,-114.5 154,-133.5 272,-133.5 272,-114.5 154,-114.5"/>
<text text-anchor="middle" x="213" y="-121.5" font-family="Helvetica,sans-Serif" font-size="10.00">enc_dhcps_coarse_tmr</text>
</a>
</g>
</g>
<!-- Node117&#45;&gt;Node120 -->
<g id="edge3" class="edge"><title>Node117&#45;&gt;Node120</title>
<path fill="none" stroke="midnightblue" d="M128.264,-113.533C136.798,-114.6 145.463,-115.683 153.824,-116.728"/>
<polygon fill="midnightblue" stroke="midnightblue" points="128.689,-110.059 118.332,-112.292 127.821,-117.005 128.689,-110.059"/>
</g>
<!-- Node121 -->
<g id="node5" class="node"><title>Node121</title>
<g id="a_node5"><a xlink:href="encdhcpserver_8c.html#a0fe212fc7ad0b1539e5716c206e56666" target="_top" xlink:title="enc_dhcps_stop">
<polygon fill="white" stroke="black" points="169,-76.5 169,-95.5 257,-95.5 257,-76.5 169,-76.5"/>
<text text-anchor="middle" x="213" y="-83.5" font-family="Helvetica,sans-Serif" font-size="10.00">enc_dhcps_stop</text>
</a>
</g>
</g>
<!-- Node117&#45;&gt;Node121 -->
<g id="edge4" class="edge"><title>Node117&#45;&gt;Node121</title>
<path fill="none" stroke="midnightblue" d="M128.256,-96.468C142.003,-94.7496 156.091,-92.9886 168.697,-91.4129"/>
<polygon fill="midnightblue" stroke="midnightblue" points="127.821,-92.995 118.332,-97.7084 128.689,-99.941 127.821,-92.995"/>
</g>
<!-- Node122 -->
<g id="node6" class="node"><title>Node122</title>
<g id="a_node6"><a xlink:href="encdhcpserver_8c.html#a6c1166c1c0b8f241a839569e81f7aee5" target="_top" xlink:title="enc_parse_msg">
<polygon fill="white" stroke="black" points="170,-38.5 170,-57.5 256,-57.5 256,-38.5 170,-38.5"/>
<text text-anchor="middle" x="213" y="-45.5" font-family="Helvetica,sans-Serif" font-size="10.00">enc_parse_msg</text>
</a>
</g>
</g>
<!-- Node117&#45;&gt;Node122 -->
<g id="edge5" class="edge"><title>Node117&#45;&gt;Node122</title>
<path fill="none" stroke="midnightblue" d="M92.1069,-91.3939C110.175,-83.8956 133.215,-74.5959 154,-67 162.857,-63.7631 172.566,-60.4804 181.464,-57.575"/>
<polygon fill="midnightblue" stroke="midnightblue" points="90.5062,-88.2693 82.6267,-95.352 93.2032,-94.7289 90.5062,-88.2693"/>
</g>
<!-- Node125 -->
<g id="node9" class="node"><title>Node125</title>
<g id="a_node9"><a xlink:href="dhcpserver_8c.html#a72c6ecdbccb7cf567c40b857523706bd" target="_top" xlink:title="parse_msg">
<polygon fill="white" stroke="black" points="180.5,-0.5 180.5,-19.5 245.5,-19.5 245.5,-0.5 180.5,-0.5"/>
<text text-anchor="middle" x="213" y="-7.5" font-family="Helvetica,sans-Serif" font-size="10.00">parse_msg</text>
</a>
</g>
</g>
<!-- Node117&#45;&gt;Node125 -->
<g id="edge8" class="edge"><title>Node117&#45;&gt;Node125</title>
<path fill="none" stroke="midnightblue" d="M76.5803,-88.4076C94.3658,-71.4184 124.105,-45.2632 154,-29 162.191,-24.544 171.604,-20.9064 180.431,-18.0511"/>
<polygon fill="midnightblue" stroke="midnightblue" points="74.0179,-86.0174 69.2922,-95.5 78.8999,-91.0341 74.0179,-86.0174"/>
</g>
<!-- Node123 -->
<g id="node7" class="node"><title>Node123</title>
<g id="a_node7"><a xlink:href="encdhcpserver_8c.html#a6c2868df935ea765caa130a2446127b1" target="_top" xlink:title="enc_handle_dhcp">
<polygon fill="white" stroke="black" points="308,-38.5 308,-57.5 400,-57.5 400,-38.5 308,-38.5"/>
<text text-anchor="middle" x="354" y="-45.5" font-family="Helvetica,sans-Serif" font-size="10.00">enc_handle_dhcp</text>
</a>
</g>
</g>
<!-- Node122&#45;&gt;Node123 -->
<g id="edge6" class="edge"><title>Node122&#45;&gt;Node123</title>
<path fill="none" stroke="midnightblue" d="M266.274,-48C279.891,-48 294.451,-48 307.676,-48"/>
<polygon fill="midnightblue" stroke="midnightblue" points="266.082,-44.5001 256.082,-48 266.082,-51.5001 266.082,-44.5001"/>
</g>
<!-- Node124 -->
<g id="node8" class="node"><title>Node124</title>
<g id="a_node8"><a xlink:href="encdhcpserver_8c.html#aeeb2ad7e2436d258c8ee145949300a9a" target="_top" xlink:title="enc_dhcps_start">
<polygon fill="white" stroke="black" points="436,-38.5 436,-57.5 525,-57.5 525,-38.5 436,-38.5"/>
<text text-anchor="middle" x="480.5" y="-45.5" font-family="Helvetica,sans-Serif" font-size="10.00">enc_dhcps_start</text>
</a>
</g>
</g>
<!-- Node123&#45;&gt;Node124 -->
<g id="edge7" class="edge"><title>Node123&#45;&gt;Node124</title>
<path fill="none" stroke="midnightblue" d="M410.477,-48C418.923,-48 427.538,-48 435.689,-48"/>
<polygon fill="midnightblue" stroke="midnightblue" points="410.3,-44.5001 400.3,-48 410.3,-51.5001 410.3,-44.5001"/>
</g>
<!-- Node126 -->
<g id="node10" class="node"><title>Node126</title>
<g id="a_node10"><a xlink:href="dhcpserver_8c.html#a11489c1fab4206e65914c4c46850d183" target="_top" xlink:title="handle_dhcp">
<polygon fill="white" stroke="black" points="318.5,-0.5 318.5,-19.5 389.5,-19.5 389.5,-0.5 318.5,-0.5"/>
<text text-anchor="middle" x="354" y="-7.5" font-family="Helvetica,sans-Serif" font-size="10.00">handle_dhcp</text>
</a>
</g>
</g>
<!-- Node125&#45;&gt;Node126 -->
<g id="edge9" class="edge"><title>Node125&#45;&gt;Node126</title>
<path fill="none" stroke="midnightblue" d="M255.595,-10C275.548,-10 299.179,-10 318.168,-10"/>
<polygon fill="midnightblue" stroke="midnightblue" points="255.541,-6.5001 245.541,-10 255.541,-13.5001 255.541,-6.5001"/>
</g>
<!-- Node127 -->
<g id="node11" class="node"><title>Node127</title>
<g id="a_node11"><a xlink:href="dhcpserver_8c.html#aa4cf55564a805b8654630547d365edcd" target="_top" xlink:title="dhcps_start">
<polygon fill="white" stroke="black" points="446.5,-0.5 446.5,-19.5 514.5,-19.5 514.5,-0.5 446.5,-0.5"/>
<text text-anchor="middle" x="480.5" y="-7.5" font-family="Helvetica,sans-Serif" font-size="10.00">dhcps_start</text>
</a>
</g>
</g>
<!-- Node126&#45;&gt;Node127 -->
<g id="edge10" class="edge"><title>Node126&#45;&gt;Node127</title>
<path fill="none" stroke="midnightblue" d="M399.979,-10C415.276,-10 432.085,-10 446.292,-10"/>
<polygon fill="midnightblue" stroke="midnightblue" points="399.68,-6.5001 389.68,-10 399.68,-13.5001 399.68,-6.5001"/>
</g>
</g>
</svg>
