<?xml version="1.0" encoding="UTF-8" standalone="no"?>
<!DOCTYPE svg PUBLIC "-//W3C//DTD SVG 1.1//EN"
 "http://www.w3.org/Graphics/SVG/1.1/DTD/svg11.dtd">
<!-- Generated by graphviz version 2.38.0 (20140413.2041)
 -->
<!-- Title: en61107_receive_timeout_timer_func Pages: 1 -->
<svg width="1107pt" height="193pt"
 viewBox="0.00 0.00 1107.00 193.44" xmlns="http://www.w3.org/2000/svg" xmlns:xlink="http://www.w3.org/1999/xlink">
<g id="graph0" class="graph" transform="scale(1 1) rotate(0) translate(4 189.44)">
<title>en61107_receive_timeout_timer_func</title>
<polygon fill="white" stroke="none" points="-4,4 -4,-189.44 1103,-189.44 1103,4 -4,4"/>
<!-- Node152 -->
<g id="node1" class="node"><title>Node152</title>
<polygon fill="#bfbfbf" stroke="black" points="0,-53.511 0,-83.511 128,-83.511 128,-53.511 0,-53.511"/>
<text text-anchor="start" x="8" y="-71.511" font-family="Helvetica,sans-Serif" font-size="10.00">en61107_receive_timeout</text>
<text text-anchor="middle" x="64" y="-60.511" font-family="Helvetica,sans-Serif" font-size="10.00">_timer_func</text>
</g>
<!-- Node153 -->
<g id="node2" class="node"><title>Node153</title>
<g id="a_node2"><a xlink:href="en61107__request_8h.html#a8b6b61143d95d3af3813f8be1aaf3447" target="_top" xlink:title="en61107_uart_send_en61107">
<polygon fill="white" stroke="black" points="655.5,-152.011 655.5,-171.011 798.5,-171.011 798.5,-152.011 655.5,-152.011"/>
<text text-anchor="middle" x="727" y="-159.011" font-family="Helvetica,sans-Serif" font-size="10.00">en61107_uart_send_en61107</text>
</a>
</g>
</g>
<!-- Node152&#45;&gt;Node153 -->
<g id="edge1" class="edge"><title>Node152&#45;&gt;Node153</title>
<path fill="none" stroke="midnightblue" d="M89.6996,-90.1667C108.704,-105.605 136.32,-125.503 164,-136.511 336.43,-205.085 562.483,-185.64 667.58,-171.056"/>
<polygon fill="midnightblue" stroke="midnightblue" points="91.7844,-87.3484 81.8563,-83.6493 87.3106,-92.7323 91.7844,-87.3484"/>
</g>
<!-- Node156 -->
<g id="node5" class="node"><title>Node156</title>
<g id="a_node5"><a xlink:href="en61107__request_8h.html#a353102f2f89ad4ed996501752c0ac59c" target="_top" xlink:title="en61107_uart_send_en61107\l_ident">
<polygon fill="white" stroke="black" points="164,-53.511 164,-83.511 307,-83.511 307,-53.511 164,-53.511"/>
<text text-anchor="start" x="172" y="-71.511" font-family="Helvetica,sans-Serif" font-size="10.00">en61107_uart_send_en61107</text>
<text text-anchor="middle" x="235.5" y="-60.511" font-family="Helvetica,sans-Serif" font-size="10.00">_ident</text>
</a>
</g>
</g>
<!-- Node152&#45;&gt;Node156 -->
<g id="edge4" class="edge"><title>Node152&#45;&gt;Node156</title>
<path fill="none" stroke="midnightblue" d="M138.36,-68.511C146.842,-68.511 155.478,-68.511 163.921,-68.511"/>
<polygon fill="midnightblue" stroke="midnightblue" points="138.116,-65.0111 128.116,-68.511 138.116,-72.0111 138.116,-65.0111"/>
</g>
<!-- Node158 -->
<g id="node7" class="node"><title>Node158</title>
<g id="a_node7"><a xlink:href="en61107__request_8h.html#afdb1795bdd4212fc7e028a9e5668fab4" target="_top" xlink:title="en61107_uart_send_standard\l_data_1">
<polygon fill="white" stroke="black" points="655,-102.511 655,-132.511 799,-132.511 799,-102.511 655,-102.511"/>
<text text-anchor="start" x="663" y="-120.511" font-family="Helvetica,sans-Serif" font-size="10.00">en61107_uart_send_standard</text>
<text text-anchor="middle" x="727" y="-109.511" font-family="Helvetica,sans-Serif" font-size="10.00">_data_1</text>
</a>
</g>
</g>
<!-- Node152&#45;&gt;Node158 -->
<g id="edge21" class="edge"><title>Node152&#45;&gt;Node158</title>
<path fill="none" stroke="midnightblue" d="M115.228,-86.8605C170.253,-105.909 261.544,-134.439 343,-145.511 464.569,-162.036 497.212,-155.333 619,-140.511 634.184,-138.663 650.398,-135.703 665.494,-132.513"/>
<polygon fill="midnightblue" stroke="midnightblue" points="116.313,-83.5324 105.718,-83.5379 114.004,-90.1406 116.313,-83.5324"/>
</g>
<!-- Node159 -->
<g id="node8" class="node"><title>Node159</title>
<g id="a_node8"><a xlink:href="en61107__request_8h.html#a10b80328698f459ae2251fe146cdc375" target="_top" xlink:title="en61107_uart_send_standard\l_data_2">
<polygon fill="white" stroke="black" points="655,-53.511 655,-83.511 799,-83.511 799,-53.511 655,-53.511"/>
<text text-anchor="start" x="663" y="-71.511" font-family="Helvetica,sans-Serif" font-size="10.00">en61107_uart_send_standard</text>
<text text-anchor="middle" x="727" y="-60.511" font-family="Helvetica,sans-Serif" font-size="10.00">_data_2</text>
</a>
</g>
</g>
<!-- Node152&#45;&gt;Node159 -->
<g id="edge22" class="edge"><title>Node152&#45;&gt;Node159</title>
<path fill="none" stroke="midnightblue" d="M124.169,-51.0378C137.177,-47.9091 150.963,-45.1317 164,-43.511 364.678,-18.5645 418.108,-20.3542 619,-43.511 636.625,-45.5426 655.565,-49.3974 672.539,-53.4827"/>
<polygon fill="midnightblue" stroke="midnightblue" points="123.249,-47.6602 114.399,-53.4854 124.95,-54.4504 123.249,-47.6602"/>
</g>
<!-- Node160 -->
<g id="node9" class="node"><title>Node160</title>
<g id="a_node9"><a xlink:href="en61107__request_8h.html#a74c2d949e6bb3b65cdf794a0643dd67d" target="_top" xlink:title="en61107_uart_send_inst\l_values">
<polygon fill="white" stroke="black" points="666,-4.51101 666,-34.511 788,-34.511 788,-4.51101 666,-4.51101"/>
<text text-anchor="start" x="674" y="-22.511" font-family="Helvetica,sans-Serif" font-size="10.00">en61107_uart_send_inst</text>
<text text-anchor="middle" x="727" y="-11.511" font-family="Helvetica,sans-Serif" font-size="10.00">_values</text>
</a>
</g>
</g>
<!-- Node152&#45;&gt;Node160 -->
<g id="edge20" class="edge"><title>Node152&#45;&gt;Node160</title>
<path fill="none" stroke="midnightblue" d="M100.898,-48.9036C119.212,-39.9543 142.179,-30.3001 164,-25.511 342.938,13.7616 561.695,-1.34351 665.619,-12.1889"/>
<polygon fill="midnightblue" stroke="midnightblue" points="99.138,-45.8708 91.7757,-53.4897 102.282,-52.1249 99.138,-45.8708"/>
</g>
<!-- Node154 -->
<g id="node3" class="node"><title>Node154</title>
<g id="a_node3"><a xlink:href="en61107__request_8c.html#aa3b162cf5364986ea19e831ac2b18f76" target="_top" xlink:title="en61107_received_task">
<polygon fill="white" stroke="black" points="835,-83.011 835,-102.011 954,-102.011 954,-83.011 835,-83.011"/>
<text text-anchor="middle" x="894.5" y="-90.011" font-family="Helvetica,sans-Serif" font-size="10.00">en61107_received_task</text>
</a>
</g>
</g>
<!-- Node153&#45;&gt;Node154 -->
<g id="edge2" class="edge"><title>Node153&#45;&gt;Node154</title>
<path fill="none" stroke="midnightblue" d="M777.417,-148.997C784.735,-146.74 792.122,-144.23 799,-141.511 827.701,-130.165 859.171,-112.77 877.583,-102.046"/>
<polygon fill="midnightblue" stroke="midnightblue" points="776.136,-145.725 767.536,-151.913 778.118,-152.439 776.136,-145.725"/>
</g>
<!-- Node155 -->
<g id="node4" class="node"><title>Node155</title>
<g id="a_node4"><a xlink:href="en61107__request_8h.html#acd43242675a3f25e7c3b530eac9d8b3a" target="_top" xlink:title="en61107_request_init">
<polygon fill="white" stroke="black" points="990,-83.011 990,-102.011 1099,-102.011 1099,-83.011 990,-83.011"/>
<text text-anchor="middle" x="1044.5" y="-90.011" font-family="Helvetica,sans-Serif" font-size="10.00">en61107_request_init</text>
</a>
</g>
</g>
<!-- Node154&#45;&gt;Node155 -->
<g id="edge3" class="edge"><title>Node154&#45;&gt;Node155</title>
<path fill="none" stroke="midnightblue" d="M964.585,-92.511C972.979,-92.511 981.456,-92.511 989.584,-92.511"/>
<polygon fill="midnightblue" stroke="midnightblue" points="964.419,-89.0111 954.419,-92.511 964.419,-96.0111 964.419,-89.0111"/>
</g>
<!-- Node157 -->
<g id="node6" class="node"><title>Node157</title>
<g id="a_node6"><a xlink:href="en61107__request_8h.html#a22f1fee248eec0eeacf220c69b878a28" target="_top" xlink:title="en61107_receive_timeout\l_timer_func">
<polygon fill="white" stroke="black" points="491,-53.511 491,-83.511 619,-83.511 619,-53.511 491,-53.511"/>
<text text-anchor="start" x="499" y="-71.511" font-family="Helvetica,sans-Serif" font-size="10.00">en61107_receive_timeout</text>
<text text-anchor="middle" x="555" y="-60.511" font-family="Helvetica,sans-Serif" font-size="10.00">_timer_func</text>
</a>
</g>
</g>
<!-- Node156&#45;&gt;Node157 -->
<g id="edge5" class="edge"><title>Node156&#45;&gt;Node157</title>
<path fill="none" stroke="midnightblue" d="M317.567,-62.5378C371.438,-61.367 441.149,-61.5197 490.889,-62.9959"/>
<polygon fill="midnightblue" stroke="midnightblue" points="317.272,-59.0438 307.358,-62.7807 317.438,-66.0418 317.272,-59.0438"/>
</g>
<!-- Node161 -->
<g id="node10" class="node"><title>Node161</title>
<g id="a_node10"><a xlink:href="en61107__request_8h.html#a2fa4e9967afddae0c1dedbc914dcee36" target="_top" xlink:title="en61107_meter_wake\l_up_timer_func">
<polygon fill="white" stroke="black" points="343,-106.511 343,-136.511 455,-136.511 455,-106.511 343,-106.511"/>
<text text-anchor="start" x="351" y="-124.511" font-family="Helvetica,sans-Serif" font-size="10.00">en61107_meter_wake</text>
<text text-anchor="middle" x="399" y="-113.511" font-family="Helvetica,sans-Serif" font-size="10.00">_up_timer_func</text>
</a>
</g>
</g>
<!-- Node156&#45;&gt;Node161 -->
<g id="edge17" class="edge"><title>Node156&#45;&gt;Node161</title>
<path fill="none" stroke="midnightblue" d="M292.048,-86.7403C311.606,-93.1589 333.358,-100.297 352.038,-106.427"/>
<polygon fill="midnightblue" stroke="midnightblue" points="292.94,-83.3496 282.347,-83.5569 290.758,-90.0006 292.94,-83.3496"/>
</g>
<!-- Node157&#45;&gt;Node153 -->
<g id="edge7" class="edge"><title>Node157&#45;&gt;Node153</title>
<path fill="none" stroke="midnightblue" d="M597.858,-88.5662C605.174,-92.7711 612.511,-97.4737 619,-102.511 637.633,-116.976 634.889,-129.182 655,-141.511 662.096,-145.862 670.167,-149.292 678.258,-151.99"/>
<polygon fill="midnightblue" stroke="midnightblue" points="599.119,-85.2654 588.669,-83.5184 595.748,-91.4007 599.119,-85.2654"/>
</g>
<!-- Node157&#45;&gt;Node156 -->
<g id="edge6" class="edge"><title>Node157&#45;&gt;Node156</title>
<path fill="none" stroke="midnightblue" d="M480.707,-74.3032C428.576,-75.6006 358.931,-75.58 307.358,-74.2413"/>
<polygon fill="midnightblue" stroke="midnightblue" points="480.988,-77.797 490.889,-74.0262 480.797,-70.7995 480.988,-77.797"/>
</g>
<!-- Node157&#45;&gt;Node158 -->
<g id="edge8" class="edge"><title>Node157&#45;&gt;Node158</title>
<path fill="none" stroke="midnightblue" d="M629.052,-82.8769C651.225,-89.0452 674.504,-96.1558 692.692,-102.422"/>
<polygon fill="midnightblue" stroke="midnightblue" points="629.871,-79.4723 619.302,-80.2062 628.022,-86.2236 629.871,-79.4723"/>
</g>
<!-- Node157&#45;&gt;Node159 -->
<g id="edge11" class="edge"><title>Node157&#45;&gt;Node159</title>
<path fill="none" stroke="midnightblue" d="M629.493,-61.8163C637.93,-61.7348 646.52,-61.7434 654.924,-61.8422"/>
<polygon fill="midnightblue" stroke="midnightblue" points="629.251,-58.3193 619.302,-61.9604 629.35,-65.3186 629.251,-58.3193"/>
</g>
<!-- Node157&#45;&gt;Node160 -->
<g id="edge14" class="edge"><title>Node157&#45;&gt;Node160</title>
<path fill="none" stroke="midnightblue" d="M598.758,-50.2402C619.029,-43.5568 643.597,-36.2942 665.719,-30.3964"/>
<polygon fill="midnightblue" stroke="midnightblue" points="597.541,-46.9568 589.181,-53.466 599.775,-53.5905 597.541,-46.9568"/>
</g>
<!-- Node158&#45;&gt;Node154 -->
<g id="edge10" class="edge"><title>Node158&#45;&gt;Node154</title>
<path fill="none" stroke="midnightblue" d="M809.256,-105.237C817.894,-103.932 826.554,-102.624 834.86,-101.369"/>
<polygon fill="midnightblue" stroke="midnightblue" points="808.512,-101.809 799.147,-106.764 809.558,-108.731 808.512,-101.809"/>
</g>
<!-- Node158&#45;&gt;Node157 -->
<g id="edge9" class="edge"><title>Node158&#45;&gt;Node157</title>
<path fill="none" stroke="midnightblue" d="M645.234,-100.974C625.416,-95.3315 605.291,-89.1102 589.181,-83.556"/>
<polygon fill="midnightblue" stroke="midnightblue" points="644.345,-104.36 654.919,-103.692 646.236,-97.6199 644.345,-104.36"/>
</g>
<!-- Node159&#45;&gt;Node154 -->
<g id="edge13" class="edge"><title>Node159&#45;&gt;Node154</title>
<path fill="none" stroke="midnightblue" d="M809.256,-80.2943C817.894,-81.547 826.554,-82.8029 834.86,-84.0073"/>
<polygon fill="midnightblue" stroke="midnightblue" points="809.546,-76.7999 799.147,-78.8285 808.542,-83.7274 809.546,-76.7999"/>
</g>
<!-- Node159&#45;&gt;Node157 -->
<g id="edge12" class="edge"><title>Node159&#45;&gt;Node157</title>
<path fill="none" stroke="midnightblue" d="M644.884,-75.2547C636.292,-75.2825 627.647,-75.2181 619.302,-75.0616"/>
<polygon fill="midnightblue" stroke="midnightblue" points="644.951,-78.7544 654.924,-75.1799 644.898,-71.7546 644.951,-78.7544"/>
</g>
<!-- Node160&#45;&gt;Node154 -->
<g id="edge16" class="edge"><title>Node160&#45;&gt;Node154</title>
<path fill="none" stroke="midnightblue" d="M785.324,-38.0418C789.984,-39.8043 794.592,-41.6362 799,-43.511 827.06,-55.4462 858.206,-72.3518 876.804,-82.8625"/>
<polygon fill="midnightblue" stroke="midnightblue" points="786.328,-34.6821 775.734,-34.5298 783.921,-41.2552 786.328,-34.6821"/>
</g>
<!-- Node160&#45;&gt;Node157 -->
<g id="edge15" class="edge"><title>Node160&#45;&gt;Node157</title>
<path fill="none" stroke="midnightblue" d="M682.981,-37.8678C663.681,-44.2244 640.524,-51.0967 619.302,-56.8158"/>
<polygon fill="midnightblue" stroke="midnightblue" points="684.331,-41.1066 692.692,-34.5996 682.098,-34.4722 684.331,-41.1066"/>
</g>
<!-- Node161&#45;&gt;Node157 -->
<g id="edge18" class="edge"><title>Node161&#45;&gt;Node157</title>
<path fill="none" stroke="midnightblue" d="M453.224,-103.194C471.808,-96.7979 492.441,-89.6969 510.172,-83.5945"/>
<polygon fill="midnightblue" stroke="midnightblue" points="452.035,-99.9013 443.718,-106.465 454.313,-106.52 452.035,-99.9013"/>
</g>
<!-- Node162 -->
<g id="node11" class="node"><title>Node162</title>
<g id="a_node11"><a xlink:href="en61107__request_8h.html#a7384d014eb9e833f64ecf4a9f86f87be" target="_top" xlink:title="en61107_request_send">
<polygon fill="white" stroke="black" points="496.5,-112.011 496.5,-131.011 613.5,-131.011 613.5,-112.011 496.5,-112.011"/>
<text text-anchor="middle" x="555" y="-119.011" font-family="Helvetica,sans-Serif" font-size="10.00">en61107_request_send</text>
</a>
</g>
</g>
<!-- Node161&#45;&gt;Node162 -->
<g id="edge19" class="edge"><title>Node161&#45;&gt;Node162</title>
<path fill="none" stroke="midnightblue" d="M465.347,-121.511C475.655,-121.511 486.248,-121.511 496.364,-121.511"/>
<polygon fill="midnightblue" stroke="midnightblue" points="465.163,-118.011 455.163,-121.511 465.163,-125.011 465.163,-118.011"/>
</g>
</g>
</svg>
