<?xml version="1.0" encoding="UTF-8" standalone="no"?>
<!DOCTYPE svg PUBLIC "-//W3C//DTD SVG 1.1//EN"
 "http://www.w3.org/Graphics/SVG/1.1/DTD/svg11.dtd">
<!-- Generated by graphviz version 2.38.0 (20140413.2041)
 -->
<!-- Title: en61107_uart_send_en61107 Pages: 1 -->
<svg width="451pt" height="28pt"
 viewBox="0.00 0.00 451.00 28.00" xmlns="http://www.w3.org/2000/svg" xmlns:xlink="http://www.w3.org/1999/xlink">
<g id="graph0" class="graph" transform="scale(1 1) rotate(0) translate(4 24)">
<title>en61107_uart_send_en61107</title>
<polygon fill="white" stroke="none" points="-4,4 -4,-24 447,-24 447,4 -4,4"/>
<!-- Node322 -->
<g id="node1" class="node"><title>Node322</title>
<polygon fill="#bfbfbf" stroke="black" points="0,-0.5 0,-19.5 143,-19.5 143,-0.5 0,-0.5"/>
<text text-anchor="middle" x="71.5" y="-7.5" font-family="Helvetica,sans-Serif" font-size="10.00">en61107_uart_send_en61107</text>
</g>
<!-- Node323 -->
<g id="node2" class="node"><title>Node323</title>
<g id="a_node2"><a xlink:href="en61107__request_8c.html#aa3b162cf5364986ea19e831ac2b18f76" target="_top" xlink:title="en61107_received_task">
<polygon fill="white" stroke="black" points="179,-0.5 179,-19.5 298,-19.5 298,-0.5 179,-0.5"/>
<text text-anchor="middle" x="238.5" y="-7.5" font-family="Helvetica,sans-Serif" font-size="10.00">en61107_received_task</text>
</a>
</g>
</g>
<!-- Node322&#45;&gt;Node323 -->
<g id="edge1" class="edge"><title>Node322&#45;&gt;Node323</title>
<path fill="none" stroke="midnightblue" d="M153.436,-10C161.985,-10 170.556,-10 178.783,-10"/>
<polygon fill="midnightblue" stroke="midnightblue" points="153.432,-6.5001 143.432,-10 153.432,-13.5001 153.432,-6.5001"/>
</g>
<!-- Node324 -->
<g id="node3" class="node"><title>Node324</title>
<g id="a_node3"><a xlink:href="en61107__request_8h.html#acd43242675a3f25e7c3b530eac9d8b3a" target="_top" xlink:title="en61107_request_init">
<polygon fill="white" stroke="black" points="334,-0.5 334,-19.5 443,-19.5 443,-0.5 334,-0.5"/>
<text text-anchor="middle" x="388.5" y="-7.5" font-family="Helvetica,sans-Serif" font-size="10.00">en61107_request_init</text>
</a>
</g>
</g>
<!-- Node323&#45;&gt;Node324 -->
<g id="edge2" class="edge"><title>Node323&#45;&gt;Node324</title>
<path fill="none" stroke="midnightblue" d="M308.585,-10C316.979,-10 325.456,-10 333.584,-10"/>
<polygon fill="midnightblue" stroke="midnightblue" points="308.419,-6.5001 298.419,-10 308.419,-13.5001 308.419,-6.5001"/>
</g>
</g>
</svg>
