<?xml version="1.0" encoding="UTF-8" standalone="no"?>
<!DOCTYPE svg PUBLIC "-//W3C//DTD SVG 1.1//EN"
 "http://www.w3.org/Graphics/SVG/1.1/DTD/svg11.dtd">
<!-- Generated by graphviz version 2.38.0 (20140413.2041)
 -->
<!-- Title: en61107_delayed_uart_change_setting_timer_func Pages: 1 -->
<svg width="402pt" height="66pt"
 viewBox="0.00 0.00 402.00 66.00" xmlns="http://www.w3.org/2000/svg" xmlns:xlink="http://www.w3.org/1999/xlink">
<g id="graph0" class="graph" transform="scale(1 1) rotate(0) translate(4 62)">
<title>en61107_delayed_uart_change_setting_timer_func</title>
<polygon fill="white" stroke="none" points="-4,4 -4,-62 398,-62 398,4 -4,4"/>
<!-- Node0 -->
<g id="node1" class="node"><title>Node0</title>
<polygon fill="#bfbfbf" stroke="black" points="0,-14 0,-44 139,-44 139,-14 0,-14"/>
<text text-anchor="start" x="8" y="-32" font-family="Helvetica,sans-Serif" font-size="10.00">en61107_delayed_uart</text>
<text text-anchor="middle" x="69.5" y="-21" font-family="Helvetica,sans-Serif" font-size="10.00">_change_setting_timer_func</text>
</g>
<!-- Node1 -->
<g id="node2" class="node"><title>Node1</title>
<g id="a_node2"><a xlink:href="uart_8c.html#a8f941077d51144c4c172f827b4f2072a" target="_top" xlink:title="uart_set_baudrate">
<polygon fill="white" stroke="black" points="176,-38.5 176,-57.5 271,-57.5 271,-38.5 176,-38.5"/>
<text text-anchor="middle" x="223.5" y="-45.5" font-family="Helvetica,sans-Serif" font-size="10.00">uart_set_baudrate</text>
</a>
</g>
</g>
<!-- Node0&#45;&gt;Node1 -->
<g id="edge1" class="edge"><title>Node0&#45;&gt;Node1</title>
<path fill="none" stroke="midnightblue" d="M139.384,-37.6105C148.096,-38.6995 156.933,-39.8042 165.433,-40.8667"/>
<polygon fill="midnightblue" stroke="midnightblue" points="165.246,-44.3704 175.603,-42.1379 166.114,-37.4245 165.246,-44.3704"/>
</g>
<!-- Node3 -->
<g id="node4" class="node"><title>Node3</title>
<g id="a_node4"><a xlink:href="uart_8c.html#a4db93f371dcd92498db4a4c7b82f3380" target="_top" xlink:title="uart_set_stop_bits">
<polygon fill="white" stroke="black" points="175,-0.5 175,-19.5 272,-19.5 272,-0.5 175,-0.5"/>
<text text-anchor="middle" x="223.5" y="-7.5" font-family="Helvetica,sans-Serif" font-size="10.00">uart_set_stop_bits</text>
</a>
</g>
</g>
<!-- Node0&#45;&gt;Node3 -->
<g id="edge3" class="edge"><title>Node0&#45;&gt;Node3</title>
<path fill="none" stroke="midnightblue" d="M139.384,-20.3895C147.873,-19.3284 156.48,-18.2525 164.779,-17.2152"/>
<polygon fill="midnightblue" stroke="midnightblue" points="165.23,-20.686 174.719,-15.9726 164.362,-13.7401 165.23,-20.686"/>
</g>
<!-- Node2 -->
<g id="node3" class="node"><title>Node2</title>
<g id="a_node3"><a xlink:href="user__interface_8h.html#a64a659f322c2201e95f73b0e735e29c8" target="_top" xlink:title="uart_div_modify">
<polygon fill="white" stroke="black" points="308,-38.5 308,-57.5 394,-57.5 394,-38.5 308,-38.5"/>
<text text-anchor="middle" x="351" y="-45.5" font-family="Helvetica,sans-Serif" font-size="10.00">uart_div_modify</text>
</a>
</g>
</g>
<!-- Node1&#45;&gt;Node2 -->
<g id="edge2" class="edge"><title>Node1&#45;&gt;Node2</title>
<path fill="none" stroke="midnightblue" d="M271.232,-48C279.847,-48 288.894,-48 297.662,-48"/>
<polygon fill="midnightblue" stroke="midnightblue" points="297.785,-51.5001 307.785,-48 297.785,-44.5001 297.785,-51.5001"/>
</g>
</g>
</svg>
