<?xml version="1.0" encoding="UTF-8" standalone="no"?>
<!DOCTYPE svg PUBLIC "-//W3C//DTD SVG 1.1//EN"
 "http://www.w3.org/Graphics/SVG/1.1/DTD/svg11.dtd">
<!-- Generated by graphviz version 2.38.0 (20140413.2041)
 -->
<!-- Title: user/en61107/en61107.h Pages: 1 -->
<svg width="307pt" height="162pt"
 viewBox="0.00 0.00 307.00 162.00" xmlns="http://www.w3.org/2000/svg" xmlns:xlink="http://www.w3.org/1999/xlink">
<g id="graph0" class="graph" transform="scale(1 1) rotate(0) translate(4 158)">
<title>user/en61107/en61107.h</title>
<polygon fill="white" stroke="none" points="-4,4 -4,-158 303,-158 303,4 -4,4"/>
<!-- Node1 -->
<g id="node1" class="node"><title>Node1</title>
<polygon fill="#bfbfbf" stroke="black" points="137,-134.5 137,-153.5 260,-153.5 260,-134.5 137,-134.5"/>
<text text-anchor="middle" x="198.5" y="-141.5" font-family="Helvetica,sans-Serif" font-size="10.00">user/en61107/en61107.h</text>
</g>
<!-- Node2 -->
<g id="node2" class="node"><title>Node2</title>
<g id="a_node2"><a xlink:href="en61107_8c.html" target="_top" xlink:title="user/en61107/en61107.c">
<polygon fill="white" stroke="black" points="0,-73 0,-92 123,-92 123,-73 0,-73"/>
<text text-anchor="middle" x="61.5" y="-80" font-family="Helvetica,sans-Serif" font-size="10.00">user/en61107/en61107.c</text>
</a>
</g>
</g>
<!-- Node1&#45;&gt;Node2 -->
<g id="edge1" class="edge"><title>Node1&#45;&gt;Node2</title>
<path fill="none" stroke="midnightblue" d="M169.671,-130.48C143.064,-118.924 104.271,-102.076 81.0923,-92.0091"/>
<polygon fill="midnightblue" stroke="midnightblue" points="168.305,-133.702 178.871,-134.475 171.093,-127.281 168.305,-133.702"/>
</g>
<!-- Node3 -->
<g id="node3" class="node"><title>Node3</title>
<g id="a_node3"><a xlink:href="en61107__request_8h.html" target="_top" xlink:title="user/en61107/en61107\l_request.h">
<polygon fill="white" stroke="black" points="141,-67.5 141,-97.5 256,-97.5 256,-67.5 141,-67.5"/>
<text text-anchor="start" x="149" y="-85.5" font-family="Helvetica,sans-Serif" font-size="10.00">user/en61107/en61107</text>
<text text-anchor="middle" x="198.5" y="-74.5" font-family="Helvetica,sans-Serif" font-size="10.00">_request.h</text>
</a>
</g>
</g>
<!-- Node1&#45;&gt;Node3 -->
<g id="edge2" class="edge"><title>Node1&#45;&gt;Node3</title>
<path fill="none" stroke="midnightblue" d="M198.5,-124.235C198.5,-115.586 198.5,-105.497 198.5,-97.523"/>
<polygon fill="midnightblue" stroke="midnightblue" points="195,-124.475 198.5,-134.475 202,-124.475 195,-124.475"/>
</g>
<!-- Node4 -->
<g id="node4" class="node"><title>Node4</title>
<g id="a_node4"><a xlink:href="en61107__request_8c.html" target="_top" xlink:title="user/en61107/en61107\l_request.c">
<polygon fill="white" stroke="black" points="184,-0.5 184,-30.5 299,-30.5 299,-0.5 184,-0.5"/>
<text text-anchor="start" x="192" y="-18.5" font-family="Helvetica,sans-Serif" font-size="10.00">user/en61107/en61107</text>
<text text-anchor="middle" x="241.5" y="-7.5" font-family="Helvetica,sans-Serif" font-size="10.00">_request.c</text>
</a>
</g>
</g>
<!-- Node1&#45;&gt;Node4 -->
<g id="edge4" class="edge"><title>Node1&#45;&gt;Node4</title>
<path fill="none" stroke="midnightblue" d="M230.342,-129.942C243.739,-122.665 257.95,-112.166 265.5,-98 277.224,-76.0018 263.01,-47.5299 251.994,-30.7185"/>
<polygon fill="midnightblue" stroke="midnightblue" points="228.666,-126.867 221.288,-134.471 231.798,-133.128 228.666,-126.867"/>
</g>
<!-- Node3&#45;&gt;Node4 -->
<g id="edge3" class="edge"><title>Node3&#45;&gt;Node4</title>
<path fill="none" stroke="midnightblue" d="M213.473,-58.8669C219.696,-49.4594 226.726,-38.8334 232.188,-30.5765"/>
<polygon fill="midnightblue" stroke="midnightblue" points="210.429,-57.1247 207.83,-67.396 216.267,-60.9869 210.429,-57.1247"/>
</g>
</g>
</svg>
