<?xml version="1.0" encoding="UTF-8" standalone="no"?>
<!DOCTYPE svg PUBLIC "-//W3C//DTD SVG 1.1//EN"
 "http://www.w3.org/Graphics/SVG/1.1/DTD/svg11.dtd">
<!-- Generated by graphviz version 2.38.0 (20140413.2041)
 -->
<!-- Title: en61107_uart_send_en61107_ident Pages: 1 -->
<svg width="925pt" height="513pt"
 viewBox="0.00 0.00 925.00 512.93" xmlns="http://www.w3.org/2000/svg" xmlns:xlink="http://www.w3.org/1999/xlink">
<g id="graph0" class="graph" transform="scale(1 1) rotate(0) translate(4 508.934)">
<title>en61107_uart_send_en61107_ident</title>
<polygon fill="white" stroke="none" points="-4,4 -4,-508.934 921,-508.934 921,4 -4,4"/>
<!-- Node403 -->
<g id="node1" class="node"><title>Node403</title>
<polygon fill="#bfbfbf" stroke="black" points="0,-283.5 0,-313.5 143,-313.5 143,-283.5 0,-283.5"/>
<text text-anchor="start" x="8" y="-301.5" font-family="Helvetica,sans-Serif" font-size="10.00">en61107_uart_send_en61107</text>
<text text-anchor="middle" x="71.5" y="-290.5" font-family="Helvetica,sans-Serif" font-size="10.00">_ident</text>
</g>
<!-- Node404 -->
<g id="node2" class="node"><title>Node404</title>
<g id="a_node2"><a xlink:href="en61107__request_8c.html#a8376fb3e6dfde4cc59e5fa0574a6e499" target="_top" xlink:title="en61107_delayed_uart\l_change_setting_timer_func">
<polygon fill="white" stroke="black" points="523,-354.5 523,-384.5 662,-384.5 662,-354.5 523,-354.5"/>
<text text-anchor="start" x="531" y="-372.5" font-family="Helvetica,sans-Serif" font-size="10.00">en61107_delayed_uart</text>
<text text-anchor="middle" x="592.5" y="-361.5" font-family="Helvetica,sans-Serif" font-size="10.00">_change_setting_timer_func</text>
</a>
</g>
</g>
<!-- Node403&#45;&gt;Node404 -->
<g id="edge1" class="edge"><title>Node403&#45;&gt;Node404</title>
<path fill="none" stroke="midnightblue" d="M95.0818,-313.562C116.184,-327.219 148.87,-347.324 179,-361.5 249.092,-394.477 266.69,-407.191 343,-420.5 406.048,-431.496 426.104,-440.191 487,-420.5 505.779,-414.428 505.565,-403.749 523,-394.5 526.944,-392.408 531.101,-390.418 535.338,-388.541"/>
<polygon fill="midnightblue" stroke="midnightblue" points="536.821,-391.715 544.689,-384.619 534.114,-385.26 536.821,-391.715"/>
</g>
<!-- Node405 -->
<g id="node3" class="node"><title>Node405</title>
<g id="a_node3"><a xlink:href="uart_8c.html#a8f941077d51144c4c172f827b4f2072a" target="_top" xlink:title="uart_set_baudrate">
<polygon fill="white" stroke="black" points="699,-278 699,-297 794,-297 794,-278 699,-278"/>
<text text-anchor="middle" x="746.5" y="-285" font-family="Helvetica,sans-Serif" font-size="10.00">uart_set_baudrate</text>
</a>
</g>
</g>
<!-- Node403&#45;&gt;Node405 -->
<g id="edge41" class="edge"><title>Node403&#45;&gt;Node405</title>
<path fill="none" stroke="midnightblue" d="M83.6797,-283.312C101.25,-260.658 137.622,-218.446 179,-197.5 317.605,-127.336 368.265,-149.333 523,-135.5 584.532,-129.999 611.163,-100.399 662,-135.5 699.156,-161.154 675.233,-191.508 698,-230.5 706.488,-245.038 718.689,-259.587 728.6,-270.348"/>
<polygon fill="midnightblue" stroke="midnightblue" points="726.215,-272.92 735.632,-277.775 731.298,-268.107 726.215,-272.92"/>
</g>
<!-- Node407 -->
<g id="node5" class="node"><title>Node407</title>
<g id="a_node5"><a xlink:href="uart_8c.html#a4db93f371dcd92498db4a4c7b82f3380" target="_top" xlink:title="uart_set_stop_bits">
<polygon fill="white" stroke="black" points="698,-360 698,-379 795,-379 795,-360 698,-360"/>
<text text-anchor="middle" x="746.5" y="-367" font-family="Helvetica,sans-Serif" font-size="10.00">uart_set_stop_bits</text>
</a>
</g>
</g>
<!-- Node403&#45;&gt;Node407 -->
<g id="edge43" class="edge"><title>Node403&#45;&gt;Node407</title>
<path fill="none" stroke="midnightblue" d="M78.9578,-313.619C92.5833,-343.489 127.331,-409.821 179,-440.5 311.843,-519.377 368.907,-479.36 523,-490.5 584.617,-494.955 607.3,-519.213 662,-490.5 703.08,-468.937 727.921,-416.988 738.873,-388.678"/>
<polygon fill="midnightblue" stroke="midnightblue" points="742.229,-389.691 742.395,-379.098 735.659,-387.276 742.229,-389.691"/>
</g>
<!-- Node408 -->
<g id="node6" class="node"><title>Node408</title>
<g id="a_node6"><a xlink:href="en61107__request_8c.html#a22f1fee248eec0eeacf220c69b878a28" target="_top" xlink:title="en61107_receive_timeout\l_timer_func">
<polygon fill="white" stroke="black" points="179,-283.5 179,-313.5 307,-313.5 307,-283.5 179,-283.5"/>
<text text-anchor="start" x="187" y="-301.5" font-family="Helvetica,sans-Serif" font-size="10.00">en61107_receive_timeout</text>
<text text-anchor="middle" x="243" y="-290.5" font-family="Helvetica,sans-Serif" font-size="10.00">_timer_func</text>
</a>
</g>
</g>
<!-- Node403&#45;&gt;Node408 -->
<g id="edge5" class="edge"><title>Node403&#45;&gt;Node408</title>
<path fill="none" stroke="midnightblue" d="M143.401,-291.831C151.785,-291.732 160.356,-291.724 168.771,-291.806"/>
<polygon fill="midnightblue" stroke="midnightblue" points="168.888,-295.308 178.937,-291.95 168.988,-288.308 168.888,-295.308"/>
</g>
<!-- Node411 -->
<g id="node9" class="node"><title>Node411</title>
<g id="a_node9"><a xlink:href="uart_8c.html#a6727906afe0321e8ee406028ad41f5e7" target="_top" xlink:title="uart_set_word_length">
<polygon fill="white" stroke="black" points="537.5,-404 537.5,-423 647.5,-423 647.5,-404 537.5,-404"/>
<text text-anchor="middle" x="592.5" y="-411" font-family="Helvetica,sans-Serif" font-size="10.00">uart_set_word_length</text>
</a>
</g>
</g>
<!-- Node403&#45;&gt;Node411 -->
<g id="edge44" class="edge"><title>Node403&#45;&gt;Node411</title>
<path fill="none" stroke="midnightblue" d="M83.7595,-313.706C101.434,-336.439 137.941,-379.012 179,-401.5 300.019,-467.783 350.119,-457.897 487,-440.5 509.161,-437.683 533.345,-431.634 552.861,-425.975"/>
<polygon fill="midnightblue" stroke="midnightblue" points="554.023,-429.281 562.606,-423.07 552.023,-422.572 554.023,-429.281"/>
</g>
<!-- Node412 -->
<g id="node10" class="node"><title>Node412</title>
<g id="a_node10"><a xlink:href="uart_8c.html#a67bf1971cc8eb81c79700658c287c7a4" target="_top" xlink:title="uart_set_parity">
<polygon fill="white" stroke="black" points="552,-240 552,-259 633,-259 633,-240 552,-240"/>
<text text-anchor="middle" x="592.5" y="-247" font-family="Helvetica,sans-Serif" font-size="10.00">uart_set_parity</text>
</a>
</g>
</g>
<!-- Node403&#45;&gt;Node412 -->
<g id="edge42" class="edge"><title>Node403&#45;&gt;Node412</title>
<path fill="none" stroke="midnightblue" d="M113.951,-283.427C166.425,-265.221 260.003,-235.648 343,-224.5 406.43,-215.98 423.441,-217.003 487,-224.5 508.043,-226.982 530.985,-232.183 549.998,-237.202"/>
<polygon fill="midnightblue" stroke="midnightblue" points="549.267,-240.63 559.835,-239.873 551.102,-233.875 549.267,-240.63"/>
</g>
<!-- Node413 -->
<g id="node11" class="node"><title>Node413</title>
<g id="a_node11"><a xlink:href="uart_8c.html#a87f1c1c2a25d4336eb804da28ed99f7e" target="_top" xlink:title="uart0_tx_buffer">
<polygon fill="white" stroke="black" points="551.5,-202 551.5,-221 633.5,-221 633.5,-202 551.5,-202"/>
<text text-anchor="middle" x="592.5" y="-209" font-family="Helvetica,sans-Serif" font-size="10.00">uart0_tx_buffer</text>
</a>
</g>
</g>
<!-- Node403&#45;&gt;Node413 -->
<g id="edge40" class="edge"><title>Node403&#45;&gt;Node413</title>
<path fill="none" stroke="midnightblue" d="M89.0969,-283.432C108.883,-266.48 143.725,-239.723 179,-227.5 303.433,-184.384 461.756,-194.92 541.211,-204.301"/>
<polygon fill="midnightblue" stroke="midnightblue" points="541.074,-207.811 551.426,-205.553 541.925,-200.862 541.074,-207.811"/>
</g>
<!-- Node404&#45;&gt;Node405 -->
<g id="edge2" class="edge"><title>Node404&#45;&gt;Node405</title>
<path fill="none" stroke="midnightblue" d="M621.379,-354.46C649.132,-339.488 691.429,-316.67 718.772,-301.919"/>
<polygon fill="midnightblue" stroke="midnightblue" points="720.632,-304.893 727.771,-297.064 717.308,-298.732 720.632,-304.893"/>
</g>
<!-- Node404&#45;&gt;Node407 -->
<g id="edge4" class="edge"><title>Node404&#45;&gt;Node407</title>
<path fill="none" stroke="midnightblue" d="M662.384,-369.5C670.779,-369.5 679.291,-369.5 687.505,-369.5"/>
<polygon fill="midnightblue" stroke="midnightblue" points="687.719,-373 697.719,-369.5 687.719,-366 687.719,-373"/>
</g>
<!-- Node406 -->
<g id="node4" class="node"><title>Node406</title>
<g id="a_node4"><a xlink:href="user__interface_8h.html#a64a659f322c2201e95f73b0e735e29c8" target="_top" xlink:title="uart_div_modify">
<polygon fill="white" stroke="black" points="831,-278 831,-297 917,-297 917,-278 831,-278"/>
<text text-anchor="middle" x="874" y="-285" font-family="Helvetica,sans-Serif" font-size="10.00">uart_div_modify</text>
</a>
</g>
</g>
<!-- Node405&#45;&gt;Node406 -->
<g id="edge3" class="edge"><title>Node405&#45;&gt;Node406</title>
<path fill="none" stroke="midnightblue" d="M794.232,-287.5C802.847,-287.5 811.894,-287.5 820.662,-287.5"/>
<polygon fill="midnightblue" stroke="midnightblue" points="820.785,-291 830.785,-287.5 820.785,-284 820.785,-291"/>
</g>
<!-- Node408&#45;&gt;Node403 -->
<g id="edge8" class="edge"><title>Node408&#45;&gt;Node403</title>
<path fill="none" stroke="midnightblue" d="M178.937,-305.05C170.613,-305.207 161.989,-305.271 153.418,-305.244"/>
<polygon fill="midnightblue" stroke="midnightblue" points="153.427,-301.744 143.401,-305.169 153.375,-308.744 153.427,-301.744"/>
</g>
<!-- Node409 -->
<g id="node7" class="node"><title>Node409</title>
<g id="a_node7"><a xlink:href="en61107__request_8c.html#a2fa4e9967afddae0c1dedbc914dcee36" target="_top" xlink:title="en61107_meter_wake\l_up_timer_func">
<polygon fill="white" stroke="black" points="359,-381.5 359,-411.5 471,-411.5 471,-381.5 359,-381.5"/>
<text text-anchor="start" x="367" y="-399.5" font-family="Helvetica,sans-Serif" font-size="10.00">en61107_meter_wake</text>
<text text-anchor="middle" x="415" y="-388.5" font-family="Helvetica,sans-Serif" font-size="10.00">_up_timer_func</text>
</a>
</g>
</g>
<!-- Node408&#45;&gt;Node409 -->
<g id="edge6" class="edge"><title>Node408&#45;&gt;Node409</title>
<path fill="none" stroke="midnightblue" d="M261.176,-313.658C280.124,-329.762 312.049,-355.112 343,-371.5 347.006,-373.621 351.23,-375.627 355.539,-377.509"/>
<polygon fill="midnightblue" stroke="midnightblue" points="354.479,-380.857 365.058,-381.428 357.144,-374.384 354.479,-380.857"/>
</g>
<!-- Node410 -->
<g id="node8" class="node"><title>Node410</title>
<g id="a_node8"><a xlink:href="en61107__request_8c.html#a74c2d949e6bb3b65cdf794a0643dd67d" target="_top" xlink:title="en61107_uart_send_inst\l_values">
<polygon fill="white" stroke="black" points="354,-234.5 354,-264.5 476,-264.5 476,-234.5 354,-234.5"/>
<text text-anchor="start" x="362" y="-252.5" font-family="Helvetica,sans-Serif" font-size="10.00">en61107_uart_send_inst</text>
<text text-anchor="middle" x="415" y="-241.5" font-family="Helvetica,sans-Serif" font-size="10.00">_values</text>
</a>
</g>
</g>
<!-- Node408&#45;&gt;Node410 -->
<g id="edge9" class="edge"><title>Node408&#45;&gt;Node410</title>
<path fill="none" stroke="midnightblue" d="M277.181,-283.455C296.205,-276.896 320.828,-269.407 343.932,-263.04"/>
<polygon fill="midnightblue" stroke="midnightblue" points="344.984,-266.381 353.719,-260.385 343.152,-259.625 344.984,-266.381"/>
</g>
<!-- Node415 -->
<g id="node13" class="node"><title>Node415</title>
<g id="a_node13"><a xlink:href="en61107__request_8c.html#afdb1795bdd4212fc7e028a9e5668fab4" target="_top" xlink:title="en61107_uart_send_standard\l_data_1">
<polygon fill="white" stroke="black" points="343,-332.5 343,-362.5 487,-362.5 487,-332.5 343,-332.5"/>
<text text-anchor="start" x="351" y="-350.5" font-family="Helvetica,sans-Serif" font-size="10.00">en61107_uart_send_standard</text>
<text text-anchor="middle" x="415" y="-339.5" font-family="Helvetica,sans-Serif" font-size="10.00">_data_1</text>
</a>
</g>
</g>
<!-- Node408&#45;&gt;Node415 -->
<g id="edge18" class="edge"><title>Node408&#45;&gt;Node415</title>
<path fill="none" stroke="midnightblue" d="M307.302,-310.195C328.524,-315.914 351.681,-322.787 370.981,-329.143"/>
<polygon fill="midnightblue" stroke="midnightblue" points="370.098,-332.539 380.692,-332.411 372.331,-325.904 370.098,-332.539"/>
</g>
<!-- Node416 -->
<g id="node14" class="node"><title>Node416</title>
<g id="a_node14"><a xlink:href="en61107__request_8c.html#a10b80328698f459ae2251fe146cdc375" target="_top" xlink:title="en61107_uart_send_standard\l_data_2">
<polygon fill="white" stroke="black" points="343,-283.5 343,-313.5 487,-313.5 487,-283.5 343,-283.5"/>
<text text-anchor="start" x="351" y="-301.5" font-family="Helvetica,sans-Serif" font-size="10.00">en61107_uart_send_standard</text>
<text text-anchor="middle" x="415" y="-290.5" font-family="Helvetica,sans-Serif" font-size="10.00">_data_2</text>
</a>
</g>
</g>
<!-- Node408&#45;&gt;Node416 -->
<g id="edge26" class="edge"><title>Node408&#45;&gt;Node416</title>
<path fill="none" stroke="midnightblue" d="M307.302,-291.949C315.647,-291.793 324.292,-291.729 332.884,-291.756"/>
<polygon fill="midnightblue" stroke="midnightblue" points="332.898,-295.256 342.924,-291.831 332.951,-288.257 332.898,-295.256"/>
</g>
<!-- Node417 -->
<g id="node15" class="node"><title>Node417</title>
<g id="a_node15"><a xlink:href="led_8c.html#af6d361c98a60a68683d2436f7ef9159a" target="_top" xlink:title="led_blink">
<polygon fill="white" stroke="black" points="387.5,-50 387.5,-69 442.5,-69 442.5,-50 387.5,-50"/>
<text text-anchor="middle" x="415" y="-57" font-family="Helvetica,sans-Serif" font-size="10.00">led_blink</text>
</a>
</g>
</g>
<!-- Node408&#45;&gt;Node417 -->
<g id="edge34" class="edge"><title>Node408&#45;&gt;Node417</title>
<path fill="none" stroke="midnightblue" d="M254.893,-283.186C284.99,-240.872 369.181,-122.511 401.315,-77.3331"/>
<polygon fill="midnightblue" stroke="midnightblue" points="404.237,-79.2642 407.181,-69.0866 398.533,-75.2068 404.237,-79.2642"/>
</g>
<!-- Node409&#45;&gt;Node403 -->
<g id="edge7" class="edge"><title>Node409&#45;&gt;Node403</title>
<path fill="none" stroke="midnightblue" d="M361.61,-381.466C300.576,-363.951 199.827,-335.039 134.828,-316.386"/>
<polygon fill="midnightblue" stroke="midnightblue" points="135.688,-312.992 125.111,-313.598 133.758,-319.72 135.688,-312.992"/>
</g>
<!-- Node410&#45;&gt;Node404 -->
<g id="edge17" class="edge"><title>Node410&#45;&gt;Node404</title>
<path fill="none" stroke="midnightblue" d="M468.684,-264.519C475.037,-267.134 481.29,-270.12 487,-273.5 520.461,-293.308 552.385,-325.183 571.948,-346.716"/>
<polygon fill="midnightblue" stroke="midnightblue" points="569.548,-349.284 578.818,-354.416 574.772,-344.624 569.548,-349.284"/>
</g>
<!-- Node410&#45;&gt;Node405 -->
<g id="edge10" class="edge"><title>Node410&#45;&gt;Node405</title>
<path fill="none" stroke="midnightblue" d="M427.838,-234.371C445.728,-212.882 481.951,-174.468 523,-159.5 581.04,-138.336 609.358,-127.169 662,-159.5 692.148,-178.016 678.552,-200.945 698,-230.5 707.367,-244.734 719.736,-259.478 729.504,-270.403"/>
<polygon fill="midnightblue" stroke="midnightblue" points="727.051,-272.908 736.374,-277.942 732.225,-268.193 727.051,-272.908"/>
</g>
<!-- Node410&#45;&gt;Node407 -->
<g id="edge13" class="edge"><title>Node410&#45;&gt;Node407</title>
<path fill="none" stroke="midnightblue" d="M437.033,-234.379C482.567,-203.662 591.81,-141.059 662,-192.5 704.856,-223.908 673.655,-259.273 698,-306.5 706.586,-323.156 719.559,-340 729.779,-352.076"/>
<polygon fill="midnightblue" stroke="midnightblue" points="727.429,-354.707 736.632,-359.955 732.71,-350.113 727.429,-354.707"/>
</g>
<!-- Node410&#45;&gt;Node408 -->
<g id="edge14" class="edge"><title>Node410&#45;&gt;Node408</title>
<path fill="none" stroke="midnightblue" d="M380.692,-264.589C362.504,-270.855 339.225,-277.966 317.052,-284.134"/>
<polygon fill="midnightblue" stroke="midnightblue" points="316.022,-280.787 307.302,-286.805 317.871,-287.539 316.022,-280.787"/>
</g>
<!-- Node410&#45;&gt;Node411 -->
<g id="edge11" class="edge"><title>Node410&#45;&gt;Node411</title>
<path fill="none" stroke="midnightblue" d="M475.636,-264.539C479.794,-267.075 483.655,-270.038 487,-273.5 525.688,-313.546 483.482,-354.273 523,-393.5 524.923,-395.409 527.018,-397.138 529.241,-398.704"/>
<polygon fill="midnightblue" stroke="midnightblue" points="527.948,-401.999 538.359,-403.968 531.448,-395.937 527.948,-401.999"/>
</g>
<!-- Node410&#45;&gt;Node412 -->
<g id="edge12" class="edge"><title>Node410&#45;&gt;Node412</title>
<path fill="none" stroke="midnightblue" d="M476.397,-249.5C497.772,-249.5 521.553,-249.5 541.925,-249.5"/>
<polygon fill="midnightblue" stroke="midnightblue" points="541.93,-253 551.93,-249.5 541.93,-246 541.93,-253"/>
</g>
<!-- Node410&#45;&gt;Node413 -->
<g id="edge15" class="edge"><title>Node410&#45;&gt;Node413</title>
<path fill="none" stroke="midnightblue" d="M476.397,-236.423C497.603,-231.831 521.176,-226.727 541.439,-222.339"/>
<polygon fill="midnightblue" stroke="midnightblue" points="542.366,-225.72 551.398,-220.183 540.884,-218.879 542.366,-225.72"/>
</g>
<!-- Node414 -->
<g id="node12" class="node"><title>Node414</title>
<g id="a_node12"><a xlink:href="uart_8c.html#a40bca7ca9b269f93bc9f17924a38fbe0" target="_top" xlink:title="uart_tx_one_char">
<polygon fill="white" stroke="black" points="700.5,-202 700.5,-221 792.5,-221 792.5,-202 700.5,-202"/>
<text text-anchor="middle" x="746.5" y="-209" font-family="Helvetica,sans-Serif" font-size="10.00">uart_tx_one_char</text>
</a>
</g>
</g>
<!-- Node413&#45;&gt;Node414 -->
<g id="edge16" class="edge"><title>Node413&#45;&gt;Node414</title>
<path fill="none" stroke="midnightblue" d="M633.834,-211.5C651.125,-211.5 671.6,-211.5 690.266,-211.5"/>
<polygon fill="midnightblue" stroke="midnightblue" points="690.418,-215 700.418,-211.5 690.418,-208 690.418,-215"/>
</g>
<!-- Node415&#45;&gt;Node404 -->
<g id="edge25" class="edge"><title>Node415&#45;&gt;Node404</title>
<path fill="none" stroke="midnightblue" d="M487.13,-356.417C495.598,-357.478 504.281,-358.567 512.846,-359.64"/>
<polygon fill="midnightblue" stroke="midnightblue" points="512.471,-363.12 522.828,-360.892 513.341,-356.175 512.471,-363.12"/>
</g>
<!-- Node415&#45;&gt;Node405 -->
<g id="edge19" class="edge"><title>Node415&#45;&gt;Node405</title>
<path fill="none" stroke="midnightblue" d="M472.999,-362.554C477.995,-365.096 482.757,-368.056 487,-371.5 511.442,-391.339 495.662,-416.89 523,-432.5 576.648,-463.133 610.276,-466.281 662,-432.5 695.324,-410.736 677.883,-384.844 698,-350.5 707.471,-334.331 720.383,-317.453 730.355,-305.241"/>
<polygon fill="midnightblue" stroke="midnightblue" points="733.298,-307.175 737.005,-297.25 727.918,-302.697 733.298,-307.175"/>
</g>
<!-- Node415&#45;&gt;Node407 -->
<g id="edge22" class="edge"><title>Node415&#45;&gt;Node407</title>
<path fill="none" stroke="midnightblue" d="M475.016,-362.617C479.364,-365.136 483.435,-368.074 487,-371.5 519.257,-402.498 486.141,-440.147 523,-465.5 573.899,-500.511 605.781,-491.111 662,-465.5 696.826,-449.635 722.757,-411.275 735.883,-388.134"/>
<polygon fill="midnightblue" stroke="midnightblue" points="739.007,-389.715 740.713,-379.258 732.859,-386.369 739.007,-389.715"/>
</g>
<!-- Node415&#45;&gt;Node408 -->
<g id="edge23" class="edge"><title>Node415&#45;&gt;Node408</title>
<path fill="none" stroke="midnightblue" d="M342.919,-333.681C323.852,-328.409 303.825,-322.397 286.817,-316.79"/>
<polygon fill="midnightblue" stroke="midnightblue" points="287.775,-313.42 277.181,-313.545 285.541,-320.054 287.775,-313.42"/>
</g>
<!-- Node415&#45;&gt;Node411 -->
<g id="edge20" class="edge"><title>Node415&#45;&gt;Node411</title>
<path fill="none" stroke="midnightblue" d="M465.449,-362.627C472.78,-365.325 480.163,-368.304 487,-371.5 503.987,-379.44 505.85,-385.917 523,-393.5 529.166,-396.227 535.807,-398.698 542.441,-400.899"/>
<polygon fill="midnightblue" stroke="midnightblue" points="541.511,-404.275 552.1,-403.929 543.606,-397.596 541.511,-404.275"/>
</g>
<!-- Node415&#45;&gt;Node412 -->
<g id="edge21" class="edge"><title>Node415&#45;&gt;Node412</title>
<path fill="none" stroke="midnightblue" d="M464.483,-332.417C472.164,-329.464 479.908,-326.14 487,-322.5 518.7,-306.232 551.859,-281.553 572.104,-265.476"/>
<polygon fill="midnightblue" stroke="midnightblue" points="574.353,-268.16 579.948,-259.163 569.964,-262.707 574.353,-268.16"/>
</g>
<!-- Node415&#45;&gt;Node413 -->
<g id="edge24" class="edge"><title>Node415&#45;&gt;Node413</title>
<path fill="none" stroke="midnightblue" d="M473.27,-332.488C478.272,-329.703 482.959,-326.404 487,-322.5 518.577,-291.992 490.404,-259.918 523,-230.5 528.417,-225.611 534.986,-221.967 541.885,-219.254"/>
<polygon fill="midnightblue" stroke="midnightblue" points="543.026,-222.563 551.421,-216.101 540.828,-215.917 543.026,-222.563"/>
</g>
<!-- Node416&#45;&gt;Node404 -->
<g id="edge33" class="edge"><title>Node416&#45;&gt;Node404</title>
<path fill="none" stroke="midnightblue" d="M463.255,-313.624C471.238,-316.421 479.398,-319.432 487,-322.5 503.408,-329.122 506.894,-332.172 523,-339.5 530.814,-343.055 539.162,-346.775 547.246,-350.338"/>
<polygon fill="midnightblue" stroke="midnightblue" points="546.004,-353.615 556.567,-354.429 548.817,-347.205 546.004,-353.615"/>
</g>
<!-- Node416&#45;&gt;Node405 -->
<g id="edge27" class="edge"><title>Node416&#45;&gt;Node405</title>
<path fill="none" stroke="midnightblue" d="M487.091,-296.127C547.468,-294.111 632.974,-291.257 688.825,-289.392"/>
<polygon fill="midnightblue" stroke="midnightblue" points="689.019,-292.888 698.896,-289.056 688.785,-285.892 689.019,-292.888"/>
</g>
<!-- Node416&#45;&gt;Node407 -->
<g id="edge30" class="edge"><title>Node416&#45;&gt;Node407</title>
<path fill="none" stroke="midnightblue" d="M487.206,-309.759C536.555,-318.063 603.624,-330.345 662,-344.5 676.674,-348.058 692.594,-352.64 706.56,-356.908"/>
<polygon fill="midnightblue" stroke="midnightblue" points="705.751,-360.321 716.339,-359.941 707.824,-353.636 705.751,-360.321"/>
</g>
<!-- Node416&#45;&gt;Node408 -->
<g id="edge31" class="edge"><title>Node416&#45;&gt;Node408</title>
<path fill="none" stroke="midnightblue" d="M342.924,-305.169C334.52,-305.268 325.93,-305.276 317.493,-305.195"/>
<polygon fill="midnightblue" stroke="midnightblue" points="317.35,-301.692 307.302,-305.051 317.251,-308.692 317.35,-301.692"/>
</g>
<!-- Node416&#45;&gt;Node411 -->
<g id="edge28" class="edge"><title>Node416&#45;&gt;Node411</title>
<path fill="none" stroke="midnightblue" d="M473.939,-313.648C478.628,-316.164 483.066,-319.093 487,-322.5 513.744,-345.662 495.776,-370.903 523,-393.5 525.703,-395.744 528.649,-397.736 531.749,-399.505"/>
<polygon fill="midnightblue" stroke="midnightblue" points="530.3,-402.693 540.823,-403.921 533.363,-396.398 530.3,-402.693"/>
</g>
<!-- Node416&#45;&gt;Node412 -->
<g id="edge29" class="edge"><title>Node416&#45;&gt;Node412</title>
<path fill="none" stroke="midnightblue" d="M470.088,-283.399C495.027,-276.435 524.243,-268.278 547.765,-261.711"/>
<polygon fill="midnightblue" stroke="midnightblue" points="548.777,-265.062 557.468,-259.002 546.895,-258.32 548.777,-265.062"/>
</g>
<!-- Node416&#45;&gt;Node413 -->
<g id="edge32" class="edge"><title>Node416&#45;&gt;Node413</title>
<path fill="none" stroke="midnightblue" d="M469.132,-283.386C475.41,-280.573 481.523,-277.297 487,-273.5 507.484,-259.3 502.045,-243.996 523,-230.5 528.716,-226.818 535.145,-223.842 541.714,-221.436"/>
<polygon fill="midnightblue" stroke="midnightblue" points="542.939,-224.719 551.374,-218.306 540.782,-218.06 542.939,-224.719"/>
</g>
<!-- Node418 -->
<g id="node16" class="node"><title>Node418</title>
<g id="a_node16"><a xlink:href="led_8c.html#a0a23edee5e1db0cd2928c18a42ffe96f" target="_top" xlink:title="led_on">
<polygon fill="white" stroke="black" points="724,-49 724,-68 769,-68 769,-49 724,-49"/>
<text text-anchor="middle" x="746.5" y="-56" font-family="Helvetica,sans-Serif" font-size="10.00">led_on</text>
</a>
</g>
</g>
<!-- Node417&#45;&gt;Node418 -->
<g id="edge35" class="edge"><title>Node417&#45;&gt;Node418</title>
<path fill="none" stroke="midnightblue" d="M442.685,-59.419C502.914,-59.2362 649.171,-58.7923 713.844,-58.5961"/>
<polygon fill="midnightblue" stroke="midnightblue" points="713.869,-62.0961 723.858,-58.5657 713.848,-55.0961 713.869,-62.0961"/>
</g>
<!-- Node420 -->
<g id="node18" class="node"><title>Node420</title>
<g id="a_node18"><a xlink:href="led_8c.html#af6e74a041f4ed0ac79f31a03c99733de" target="_top" xlink:title="led_single_blink_off\l_timer_func">
<polygon fill="white" stroke="black" points="541.5,-0.5 541.5,-30.5 643.5,-30.5 643.5,-0.5 541.5,-0.5"/>
<text text-anchor="start" x="549.5" y="-18.5" font-family="Helvetica,sans-Serif" font-size="10.00">led_single_blink_off</text>
<text text-anchor="middle" x="592.5" y="-7.5" font-family="Helvetica,sans-Serif" font-size="10.00">_timer_func</text>
</a>
</g>
</g>
<!-- Node417&#45;&gt;Node420 -->
<g id="edge37" class="edge"><title>Node417&#45;&gt;Node420</title>
<path fill="none" stroke="midnightblue" d="M442.655,-52.8173C466.088,-46.9424 501.06,-38.1743 531.219,-30.6133"/>
<polygon fill="midnightblue" stroke="midnightblue" points="532.389,-33.9281 541.238,-28.1013 530.687,-27.1383 532.389,-33.9281"/>
</g>
<!-- Node419 -->
<g id="node17" class="node"><title>Node419</title>
<g id="a_node17"><a xlink:href="gpio_8h.html#a83bac74ff5b2158e0c86da73ada29718" target="_top" xlink:title="gpio_output_set">
<polygon fill="white" stroke="black" points="831,-29 831,-48 917,-48 917,-29 831,-29"/>
<text text-anchor="middle" x="874" y="-36" font-family="Helvetica,sans-Serif" font-size="10.00">gpio_output_set</text>
</a>
</g>
</g>
<!-- Node418&#45;&gt;Node419 -->
<g id="edge36" class="edge"><title>Node418&#45;&gt;Node419</title>
<path fill="none" stroke="midnightblue" d="M769.074,-55.0619C783.384,-52.7814 802.809,-49.6858 820.994,-46.7879"/>
<polygon fill="midnightblue" stroke="midnightblue" points="821.604,-50.2349 830.928,-45.2047 820.502,-43.3222 821.604,-50.2349"/>
</g>
<!-- Node421 -->
<g id="node19" class="node"><title>Node421</title>
<g id="a_node19"><a xlink:href="led_8c.html#a7ef0b27e501c77cd25b8bb7a2de6d8bd" target="_top" xlink:title="led_off">
<polygon fill="white" stroke="black" points="723.5,-8 723.5,-27 769.5,-27 769.5,-8 723.5,-8"/>
<text text-anchor="middle" x="746.5" y="-15" font-family="Helvetica,sans-Serif" font-size="10.00">led_off</text>
</a>
</g>
</g>
<!-- Node420&#45;&gt;Node421 -->
<g id="edge38" class="edge"><title>Node420&#45;&gt;Node421</title>
<path fill="none" stroke="midnightblue" d="M643.692,-16.1604C666.561,-16.4613 692.969,-16.8088 713.157,-17.0744"/>
<polygon fill="midnightblue" stroke="midnightblue" points="713.337,-20.577 723.383,-17.209 713.43,-13.5776 713.337,-20.577"/>
</g>
<!-- Node421&#45;&gt;Node419 -->
<g id="edge39" class="edge"><title>Node421&#45;&gt;Node419</title>
<path fill="none" stroke="midnightblue" d="M769.648,-21.206C783.766,-23.5684 802.688,-26.7347 820.483,-29.7123"/>
<polygon fill="midnightblue" stroke="midnightblue" points="820.344,-33.2377 830.785,-31.4361 821.5,-26.3336 820.344,-33.2377"/>
</g>
</g>
</svg>
