<?xml version="1.0" encoding="UTF-8" standalone="no"?>
<!DOCTYPE svg PUBLIC "-//W3C//DTD SVG 1.1//EN"
 "http://www.w3.org/Graphics/SVG/1.1/DTD/svg11.dtd">
<!-- Generated by graphviz version 2.38.0 (20140413.2041)
 -->
<!-- Title: en61107_response_set_unit Pages: 1 -->
<svg width="635pt" height="294pt"
 viewBox="0.00 0.00 635.00 294.00" xmlns="http://www.w3.org/2000/svg" xmlns:xlink="http://www.w3.org/1999/xlink">
<g id="graph0" class="graph" transform="scale(1 1) rotate(0) translate(4 290)">
<title>en61107_response_set_unit</title>
<polygon fill="white" stroke="none" points="-4,4 -4,-290 631,-290 631,4 -4,4"/>
<!-- Node0 -->
<g id="node1" class="node"><title>Node0</title>
<polygon fill="#bfbfbf" stroke="black" points="0,-114.5 0,-133.5 138,-133.5 138,-114.5 0,-114.5"/>
<text text-anchor="middle" x="69" y="-121.5" font-family="Helvetica,sans-Serif" font-size="10.00">en61107_response_set_unit</text>
</g>
<!-- Node1 -->
<g id="node2" class="node"><title>Node1</title>
<g id="a_node2"><a xlink:href="tinyprintf_8c.html#a9738cbc6c538d210941db282e240c7d6" target="_top" xlink:title="tfp_snprintf">
<polygon fill="white" stroke="black" points="174,-114.5 174,-133.5 239,-133.5 239,-114.5 174,-114.5"/>
<text text-anchor="middle" x="206.5" y="-121.5" font-family="Helvetica,sans-Serif" font-size="10.00">tfp_snprintf</text>
</a>
</g>
</g>
<!-- Node0&#45;&gt;Node1 -->
<g id="edge1" class="edge"><title>Node0&#45;&gt;Node1</title>
<path fill="none" stroke="midnightblue" d="M138.147,-124C146.951,-124 155.746,-124 163.938,-124"/>
<polygon fill="midnightblue" stroke="midnightblue" points="163.946,-127.5 173.946,-124 163.946,-120.5 163.946,-127.5"/>
</g>
<!-- Node2 -->
<g id="node3" class="node"><title>Node2</title>
<g id="a_node3"><a xlink:href="tinyprintf_8c.html#ac8c8a66133cf0d7009c0d73b55311a44" target="_top" xlink:title="tfp_vsnprintf">
<polygon fill="white" stroke="black" points="275,-114.5 275,-133.5 346,-133.5 346,-114.5 275,-114.5"/>
<text text-anchor="middle" x="310.5" y="-121.5" font-family="Helvetica,sans-Serif" font-size="10.00">tfp_vsnprintf</text>
</a>
</g>
</g>
<!-- Node1&#45;&gt;Node2 -->
<g id="edge2" class="edge"><title>Node1&#45;&gt;Node2</title>
<path fill="none" stroke="midnightblue" d="M239.214,-124C247.369,-124 256.295,-124 264.967,-124"/>
<polygon fill="midnightblue" stroke="midnightblue" points="264.97,-127.5 274.97,-124 264.97,-120.5 264.97,-127.5"/>
</g>
<!-- Node3 -->
<g id="node4" class="node"><title>Node3</title>
<g id="a_node4"><a xlink:href="tinyprintf_8c.html#a5877e42444463efc71a91b5fe76a6145" target="_top" xlink:title="tfp_format">
<polygon fill="white" stroke="black" points="394.5,-133.5 394.5,-152.5 455.5,-152.5 455.5,-133.5 394.5,-133.5"/>
<text text-anchor="middle" x="425" y="-140.5" font-family="Helvetica,sans-Serif" font-size="10.00">tfp_format</text>
</a>
</g>
</g>
<!-- Node2&#45;&gt;Node3 -->
<g id="edge3" class="edge"><title>Node2&#45;&gt;Node3</title>
<path fill="none" stroke="midnightblue" d="M346.172,-129.856C358.176,-131.883 371.726,-134.171 384.115,-136.264"/>
<polygon fill="midnightblue" stroke="midnightblue" points="383.747,-139.751 394.19,-137.965 384.913,-132.849 383.747,-139.751"/>
</g>
<!-- Node13 -->
<g id="node14" class="node"><title>Node13</title>
<g id="a_node14"><a xlink:href="tinyprintf_8c.html#a919051024b2d729e34a54648b3f2462d" target="_top" xlink:title="_vsnprintf_putcf">
<polygon fill="white" stroke="black" points="382,-95.5 382,-114.5 468,-114.5 468,-95.5 382,-95.5"/>
<text text-anchor="middle" x="425" y="-102.5" font-family="Helvetica,sans-Serif" font-size="10.00">_vsnprintf_putcf</text>
</a>
</g>
</g>
<!-- Node2&#45;&gt;Node13 -->
<g id="edge16" class="edge"><title>Node2&#45;&gt;Node13</title>
<path fill="none" stroke="midnightblue" d="M346.172,-118.144C354.246,-116.781 363.019,-115.299 371.668,-113.838"/>
<polygon fill="midnightblue" stroke="midnightblue" points="372.438,-117.258 381.715,-112.141 371.272,-110.356 372.438,-117.258"/>
</g>
<!-- Node4 -->
<g id="node5" class="node"><title>Node4</title>
<g id="a_node5"><a xlink:href="tinyprintf_8c.html#aa97593a5e53af85b608ad0910db92d77" target="_top" xlink:title="a2u">
<polygon fill="white" stroke="black" points="512,-266.5 512,-285.5 544,-285.5 544,-266.5 512,-266.5"/>
<text text-anchor="middle" x="528" y="-273.5" font-family="Helvetica,sans-Serif" font-size="10.00">a2u</text>
</a>
</g>
</g>
<!-- Node3&#45;&gt;Node4 -->
<g id="edge4" class="edge"><title>Node3&#45;&gt;Node4</title>
<path fill="none" stroke="midnightblue" d="M432.24,-152.669C444.935,-172.115 475.025,-217.08 504,-252 505.935,-254.332 508.043,-256.716 510.173,-259.034"/>
<polygon fill="midnightblue" stroke="midnightblue" points="507.84,-261.659 517.273,-266.483 512.907,-256.83 507.84,-261.659"/>
</g>
<!-- Node6 -->
<g id="node7" class="node"><title>Node6</title>
<g id="a_node7"><a xlink:href="tinyprintf_8c.html#abcf035dd576671b0cc897de9dd8c75b0" target="_top" xlink:title="ulli2a">
<polygon fill="white" stroke="black" points="588,-209.5 588,-228.5 627,-228.5 627,-209.5 588,-209.5"/>
<text text-anchor="middle" x="607.5" y="-216.5" font-family="Helvetica,sans-Serif" font-size="10.00">ulli2a</text>
</a>
</g>
</g>
<!-- Node3&#45;&gt;Node6 -->
<g id="edge6" class="edge"><title>Node3&#45;&gt;Node6</title>
<path fill="none" stroke="midnightblue" d="M432.062,-152.58C443.593,-169.787 470.548,-205.397 504,-219 527.55,-228.576 556.737,-227.464 577.935,-224.611"/>
<polygon fill="midnightblue" stroke="midnightblue" points="578.585,-228.052 587.93,-223.059 577.511,-221.135 578.585,-228.052"/>
</g>
<!-- Node7 -->
<g id="node8" class="node"><title>Node7</title>
<g id="a_node8"><a xlink:href="tinyprintf_8c.html#a1d61347854a8c290d59b4a21efcefd75" target="_top" xlink:title="uli2a">
<polygon fill="white" stroke="black" points="589,-85.5 589,-104.5 626,-104.5 626,-85.5 589,-85.5"/>
<text text-anchor="middle" x="607.5" y="-92.5" font-family="Helvetica,sans-Serif" font-size="10.00">uli2a</text>
</a>
</g>
</g>
<!-- Node3&#45;&gt;Node7 -->
<g id="edge7" class="edge"><title>Node3&#45;&gt;Node7</title>
<path fill="none" stroke="midnightblue" d="M447.916,-133.388C454.419,-130.455 461.531,-127.167 468,-124 484.249,-116.046 486.671,-110.198 504,-105 528.5,-97.6504 557.628,-95.3923 578.56,-94.8303"/>
<polygon fill="midnightblue" stroke="midnightblue" points="578.746,-98.3279 588.691,-94.673 578.637,-91.3287 578.746,-98.3279"/>
</g>
<!-- Node8 -->
<g id="node9" class="node"><title>Node8</title>
<g id="a_node9"><a xlink:href="tinyprintf_8c.html#ac87ff66a592723f55692eaf8e3f19df8" target="_top" xlink:title="ui2a">
<polygon fill="white" stroke="black" points="590,-28.5 590,-47.5 625,-47.5 625,-28.5 590,-28.5"/>
<text text-anchor="middle" x="607.5" y="-35.5" font-family="Helvetica,sans-Serif" font-size="10.00">ui2a</text>
</a>
</g>
</g>
<!-- Node3&#45;&gt;Node8 -->
<g id="edge8" class="edge"><title>Node3&#45;&gt;Node8</title>
<path fill="none" stroke="midnightblue" d="M450.644,-133.35C456.514,-130.649 462.63,-127.486 468,-124 485.956,-112.345 486.402,-104.189 504,-92 528.663,-74.918 559.382,-59.4099 580.728,-49.4405"/>
<polygon fill="midnightblue" stroke="midnightblue" points="582.195,-52.6186 589.821,-45.264 579.273,-46.2575 582.195,-52.6186"/>
</g>
<!-- Node9 -->
<g id="node10" class="node"><title>Node9</title>
<g id="a_node10"><a xlink:href="tinyprintf_8c.html#a6252dbfebb2c8783c4e3107d551082dd" target="_top" xlink:title="putchw">
<polygon fill="white" stroke="black" points="504,-114.5 504,-133.5 552,-133.5 552,-114.5 504,-114.5"/>
<text text-anchor="middle" x="528" y="-121.5" font-family="Helvetica,sans-Serif" font-size="10.00">putchw</text>
</a>
</g>
</g>
<!-- Node3&#45;&gt;Node9 -->
<g id="edge9" class="edge"><title>Node3&#45;&gt;Node9</title>
<path fill="none" stroke="midnightblue" d="M455.757,-137.402C467.758,-135.144 481.652,-132.531 493.965,-130.215"/>
<polygon fill="midnightblue" stroke="midnightblue" points="494.68,-133.642 503.86,-128.353 493.386,-126.762 494.68,-133.642"/>
</g>
<!-- Node10 -->
<g id="node11" class="node"><title>Node10</title>
<g id="a_node11"><a xlink:href="tinyprintf_8c.html#a49c6d2b3d4088012f2c1fe344eef69f3" target="_top" xlink:title="lli2a">
<polygon fill="white" stroke="black" points="511,-190.5 511,-209.5 545,-209.5 545,-190.5 511,-190.5"/>
<text text-anchor="middle" x="528" y="-197.5" font-family="Helvetica,sans-Serif" font-size="10.00">lli2a</text>
</a>
</g>
</g>
<!-- Node3&#45;&gt;Node10 -->
<g id="edge10" class="edge"><title>Node3&#45;&gt;Node10</title>
<path fill="none" stroke="midnightblue" d="M443.133,-152.669C459.237,-161.757 483.533,-175.469 501.837,-185.799"/>
<polygon fill="midnightblue" stroke="midnightblue" points="500.358,-188.983 510.787,-190.85 503.798,-182.887 500.358,-188.983"/>
</g>
<!-- Node11 -->
<g id="node12" class="node"><title>Node11</title>
<g id="a_node12"><a xlink:href="tinyprintf_8c.html#afebb7696337c3f599b5e8db35c560684" target="_top" xlink:title="li2a">
<polygon fill="white" stroke="black" points="512,-152.5 512,-171.5 544,-171.5 544,-152.5 512,-152.5"/>
<text text-anchor="middle" x="528" y="-159.5" font-family="Helvetica,sans-Serif" font-size="10.00">li2a</text>
</a>
</g>
</g>
<!-- Node3&#45;&gt;Node11 -->
<g id="edge12" class="edge"><title>Node3&#45;&gt;Node11</title>
<path fill="none" stroke="midnightblue" d="M455.757,-148.598C470.41,-151.354 487.882,-154.641 501.856,-157.27"/>
<polygon fill="midnightblue" stroke="midnightblue" points="501.282,-160.723 511.756,-159.132 502.576,-153.844 501.282,-160.723"/>
</g>
<!-- Node12 -->
<g id="node13" class="node"><title>Node12</title>
<g id="a_node13"><a xlink:href="tinyprintf_8c.html#a90f9fd8f2133cda7f50be8d67823405c" target="_top" xlink:title="i2a">
<polygon fill="white" stroke="black" points="513.5,-0.5 513.5,-19.5 542.5,-19.5 542.5,-0.5 513.5,-0.5"/>
<text text-anchor="middle" x="528" y="-7.5" font-family="Helvetica,sans-Serif" font-size="10.00">i2a</text>
</a>
</g>
</g>
<!-- Node3&#45;&gt;Node12 -->
<g id="edge14" class="edge"><title>Node3&#45;&gt;Node12</title>
<path fill="none" stroke="midnightblue" d="M455.031,-133.445C459.789,-130.928 464.349,-127.817 468,-124 497.781,-92.8693 480.668,-70.2163 504,-34 505.477,-31.7077 507.192,-29.444 509.007,-27.2764"/>
<polygon fill="midnightblue" stroke="midnightblue" points="511.96,-29.2407 516.211,-19.536 506.836,-24.4716 511.96,-29.2407"/>
</g>
<!-- Node5 -->
<g id="node6" class="node"><title>Node5</title>
<g id="a_node6"><a xlink:href="tinyprintf_8c.html#aa853a0c5ba64fa2546d488b86192e7e3" target="_top" xlink:title="a2d">
<polygon fill="white" stroke="black" points="591.5,-266.5 591.5,-285.5 623.5,-285.5 623.5,-266.5 591.5,-266.5"/>
<text text-anchor="middle" x="607.5" y="-273.5" font-family="Helvetica,sans-Serif" font-size="10.00">a2d</text>
</a>
</g>
</g>
<!-- Node4&#45;&gt;Node5 -->
<g id="edge5" class="edge"><title>Node4&#45;&gt;Node5</title>
<path fill="none" stroke="midnightblue" d="M544.312,-276C554.888,-276 569.197,-276 581.423,-276"/>
<polygon fill="midnightblue" stroke="midnightblue" points="581.484,-279.5 591.484,-276 581.484,-272.5 581.484,-279.5"/>
</g>
<!-- Node10&#45;&gt;Node6 -->
<g id="edge11" class="edge"><title>Node10&#45;&gt;Node6</title>
<path fill="none" stroke="midnightblue" d="M545.058,-203.937C554.563,-206.267 566.88,-209.287 577.987,-212.01"/>
<polygon fill="midnightblue" stroke="midnightblue" points="577.187,-215.417 587.733,-214.399 578.854,-208.619 577.187,-215.417"/>
</g>
<!-- Node11&#45;&gt;Node7 -->
<g id="edge13" class="edge"><title>Node11&#45;&gt;Node7</title>
<path fill="none" stroke="midnightblue" d="M540.76,-152.405C544.385,-149.416 548.375,-146.092 552,-143 564.11,-132.669 577.531,-120.854 588.024,-111.531"/>
<polygon fill="midnightblue" stroke="midnightblue" points="590.593,-113.93 595.731,-104.664 585.936,-108.703 590.593,-113.93"/>
</g>
<!-- Node12&#45;&gt;Node8 -->
<g id="edge15" class="edge"><title>Node12&#45;&gt;Node8</title>
<path fill="none" stroke="midnightblue" d="M542.855,-15.0058C553.231,-18.7543 567.735,-23.9945 580.277,-28.5258"/>
<polygon fill="midnightblue" stroke="midnightblue" points="579.204,-31.8596 589.798,-31.9659 581.583,-25.2761 579.204,-31.8596"/>
</g>
</g>
</svg>
