<?xml version="1.0" encoding="UTF-8" standalone="no"?>
<!DOCTYPE svg PUBLIC "-//W3C//DTD SVG 1.1//EN"
 "http://www.w3.org/Graphics/SVG/1.1/DTD/svg11.dtd">
<!-- Generated by graphviz version 2.38.0 (20140413.2041)
 -->
<!-- Title: en61107_meter_wake_up_timer_func Pages: 1 -->
<svg width="1073pt" height="516pt"
 viewBox="0.00 0.00 1073.00 516.23" xmlns="http://www.w3.org/2000/svg" xmlns:xlink="http://www.w3.org/1999/xlink">
<g id="graph0" class="graph" transform="scale(1 1) rotate(0) translate(4 512.234)">
<title>en61107_meter_wake_up_timer_func</title>
<polygon fill="white" stroke="none" points="-4,4 -4,-512.234 1069,-512.234 1069,4 -4,4"/>
<!-- Node103 -->
<g id="node1" class="node"><title>Node103</title>
<polygon fill="#bfbfbf" stroke="black" points="0,-172.734 0,-202.734 112,-202.734 112,-172.734 0,-172.734"/>
<text text-anchor="start" x="8" y="-190.734" font-family="Helvetica,sans-Serif" font-size="10.00">en61107_meter_wake</text>
<text text-anchor="middle" x="56" y="-179.734" font-family="Helvetica,sans-Serif" font-size="10.00">_up_timer_func</text>
</g>
<!-- Node104 -->
<g id="node2" class="node"><title>Node104</title>
<g id="a_node2"><a xlink:href="en61107__request_8c.html#a353102f2f89ad4ed996501752c0ac59c" target="_top" xlink:title="en61107_uart_send_en61107\l_ident">
<polygon fill="white" stroke="black" points="148,-194.734 148,-224.734 291,-224.734 291,-194.734 148,-194.734"/>
<text text-anchor="start" x="156" y="-212.734" font-family="Helvetica,sans-Serif" font-size="10.00">en61107_uart_send_en61107</text>
<text text-anchor="middle" x="219.5" y="-201.734" font-family="Helvetica,sans-Serif" font-size="10.00">_ident</text>
</a>
</g>
</g>
<!-- Node103&#45;&gt;Node104 -->
<g id="edge1" class="edge"><title>Node103&#45;&gt;Node104</title>
<path fill="none" stroke="midnightblue" d="M112.127,-195.244C120.403,-196.371 129.079,-197.553 137.755,-198.735"/>
<polygon fill="midnightblue" stroke="midnightblue" points="137.534,-202.237 147.915,-200.119 138.479,-195.301 137.534,-202.237"/>
</g>
<!-- Node105 -->
<g id="node3" class="node"><title>Node105</title>
<g id="a_node3"><a xlink:href="uart_8c.html#a8f941077d51144c4c172f827b4f2072a" target="_top" xlink:title="uart_set_baudrate">
<polygon fill="white" stroke="black" points="847,-211.234 847,-230.234 942,-230.234 942,-211.234 847,-211.234"/>
<text text-anchor="middle" x="894.5" y="-218.234" font-family="Helvetica,sans-Serif" font-size="10.00">uart_set_baudrate</text>
</a>
</g>
</g>
<!-- Node104&#45;&gt;Node105 -->
<g id="edge2" class="edge"><title>Node104&#45;&gt;Node105</title>
<path fill="none" stroke="midnightblue" d="M232.833,-224.985C251.046,-246.401 287.295,-284.974 327,-304.734 466.524,-374.17 515.894,-357.551 671,-372.734 732.484,-378.753 756.83,-404.19 810,-372.734 858.891,-343.81 881.071,-274.958 889.356,-240.743"/>
<polygon fill="midnightblue" stroke="midnightblue" points="892.864,-241.1 891.652,-230.575 886.036,-239.559 892.864,-241.1"/>
</g>
<!-- Node107 -->
<g id="node5" class="node"><title>Node107</title>
<g id="a_node5"><a xlink:href="uart_8c.html#a6727906afe0321e8ee406028ad41f5e7" target="_top" xlink:title="uart_set_word_length">
<polygon fill="white" stroke="black" points="685.5,-249.234 685.5,-268.234 795.5,-268.234 795.5,-249.234 685.5,-249.234"/>
<text text-anchor="middle" x="740.5" y="-256.234" font-family="Helvetica,sans-Serif" font-size="10.00">uart_set_word_length</text>
</a>
</g>
</g>
<!-- Node104&#45;&gt;Node107 -->
<g id="edge4" class="edge"><title>Node104&#45;&gt;Node107</title>
<path fill="none" stroke="midnightblue" d="M262.428,-224.761C315.008,-242.735 408.303,-271.771 491,-282.734 554.445,-291.145 571.407,-289.943 635,-282.734 655.539,-280.406 677.921,-275.582 696.684,-270.865"/>
<polygon fill="midnightblue" stroke="midnightblue" points="697.612,-274.24 706.417,-268.348 695.859,-267.463 697.612,-274.24"/>
</g>
<!-- Node108 -->
<g id="node6" class="node"><title>Node108</title>
<g id="a_node6"><a xlink:href="uart_8c.html#a67bf1971cc8eb81c79700658c287c7a4" target="_top" xlink:title="uart_set_parity">
<polygon fill="white" stroke="black" points="700,-287.234 700,-306.234 781,-306.234 781,-287.234 700,-287.234"/>
<text text-anchor="middle" x="740.5" y="-294.234" font-family="Helvetica,sans-Serif" font-size="10.00">uart_set_parity</text>
</a>
</g>
</g>
<!-- Node104&#45;&gt;Node108 -->
<g id="edge5" class="edge"><title>Node104&#45;&gt;Node108</title>
<path fill="none" stroke="midnightblue" d="M239.643,-225.007C260.043,-240.429 293.898,-263.649 327,-275.734 451.094,-321.039 610.209,-312.013 689.673,-303.391"/>
<polygon fill="midnightblue" stroke="midnightblue" points="690.341,-306.838 699.885,-302.237 689.555,-299.882 690.341,-306.838"/>
</g>
<!-- Node109 -->
<g id="node7" class="node"><title>Node109</title>
<g id="a_node7"><a xlink:href="uart_8c.html#a4db93f371dcd92498db4a4c7b82f3380" target="_top" xlink:title="uart_set_stop_bits">
<polygon fill="white" stroke="black" points="846,-85.2341 846,-104.234 943,-104.234 943,-85.2341 846,-85.2341"/>
<text text-anchor="middle" x="894.5" y="-92.2341" font-family="Helvetica,sans-Serif" font-size="10.00">uart_set_stop_bits</text>
</a>
</g>
</g>
<!-- Node104&#45;&gt;Node109 -->
<g id="edge6" class="edge"><title>Node104&#45;&gt;Node109</title>
<path fill="none" stroke="midnightblue" d="M229.559,-194.703C245.742,-169.234 282.159,-117.827 327,-91.7341 462.331,-12.9844 515.349,-32.7233 671,-15.7341 732.413,-9.03088 756.241,14.7038 810,-15.7341 837.062,-31.0562 822.324,-55.5708 846,-75.7341 847.953,-77.3969 850.069,-78.9263 852.287,-80.3313"/>
<polygon fill="midnightblue" stroke="midnightblue" points="850.756,-83.4822 861.219,-85.1523 854.081,-77.3223 850.756,-83.4822"/>
</g>
<!-- Node110 -->
<g id="node8" class="node"><title>Node110</title>
<g id="a_node8"><a xlink:href="en61107__request_8c.html#a22f1fee248eec0eeacf220c69b878a28" target="_top" xlink:title="en61107_receive_timeout\l_timer_func">
<polygon fill="white" stroke="black" points="327,-194.734 327,-224.734 455,-224.734 455,-194.734 327,-194.734"/>
<text text-anchor="start" x="335" y="-212.734" font-family="Helvetica,sans-Serif" font-size="10.00">en61107_receive_timeout</text>
<text text-anchor="middle" x="391" y="-201.734" font-family="Helvetica,sans-Serif" font-size="10.00">_timer_func</text>
</a>
</g>
</g>
<!-- Node104&#45;&gt;Node110 -->
<g id="edge7" class="edge"><title>Node104&#45;&gt;Node110</title>
<path fill="none" stroke="midnightblue" d="M291.401,-203.065C299.785,-202.966 308.356,-202.958 316.771,-203.04"/>
<polygon fill="midnightblue" stroke="midnightblue" points="316.888,-206.542 326.937,-203.184 316.988,-199.542 316.888,-206.542"/>
</g>
<!-- Node117 -->
<g id="node15" class="node"><title>Node117</title>
<g id="a_node15"><a xlink:href="uart_8c.html#a87f1c1c2a25d4336eb804da28ed99f7e" target="_top" xlink:title="uart0_tx_buffer">
<polygon fill="white" stroke="black" points="699.5,-47.2341 699.5,-66.2341 781.5,-66.2341 781.5,-47.2341 699.5,-47.2341"/>
<text text-anchor="middle" x="740.5" y="-54.2341" font-family="Helvetica,sans-Serif" font-size="10.00">uart0_tx_buffer</text>
</a>
</g>
</g>
<!-- Node104&#45;&gt;Node117 -->
<g id="edge43" class="edge"><title>Node104&#45;&gt;Node117</title>
<path fill="none" stroke="midnightblue" d="M237.242,-194.713C257.165,-177.688 292.135,-150.402 327,-135.734 450.499,-83.776 609.229,-65.7055 688.987,-59.6441"/>
<polygon fill="midnightblue" stroke="midnightblue" points="689.523,-63.1145 699.243,-58.8983 689.015,-56.1329 689.523,-63.1145"/>
</g>
<!-- Node119 -->
<g id="node17" class="node"><title>Node119</title>
<g id="a_node17"><a xlink:href="en61107__request_8c.html#a8376fb3e6dfde4cc59e5fa0574a6e499" target="_top" xlink:title="en61107_delayed_uart\l_change_setting_timer_func">
<polygon fill="white" stroke="black" points="671,-161.734 671,-191.734 810,-191.734 810,-161.734 671,-161.734"/>
<text text-anchor="start" x="679" y="-179.734" font-family="Helvetica,sans-Serif" font-size="10.00">en61107_delayed_uart</text>
<text text-anchor="middle" x="740.5" y="-168.734" font-family="Helvetica,sans-Serif" font-size="10.00">_change_setting_timer_func</text>
</a>
</g>
</g>
<!-- Node104&#45;&gt;Node119 -->
<g id="edge44" class="edge"><title>Node104&#45;&gt;Node119</title>
<path fill="none" stroke="midnightblue" d="M255.755,-194.729C327.324,-166.19 494.76,-109.207 635,-135.734 657.443,-139.979 681.239,-148.931 700.445,-157.389"/>
<polygon fill="midnightblue" stroke="midnightblue" points="699.205,-160.67 709.758,-161.609 702.094,-154.294 699.205,-160.67"/>
</g>
<!-- Node106 -->
<g id="node4" class="node"><title>Node106</title>
<g id="a_node4"><a xlink:href="user__interface_8h.html#a64a659f322c2201e95f73b0e735e29c8" target="_top" xlink:title="uart_div_modify">
<polygon fill="white" stroke="black" points="979,-211.234 979,-230.234 1065,-230.234 1065,-211.234 979,-211.234"/>
<text text-anchor="middle" x="1022" y="-218.234" font-family="Helvetica,sans-Serif" font-size="10.00">uart_div_modify</text>
</a>
</g>
</g>
<!-- Node105&#45;&gt;Node106 -->
<g id="edge3" class="edge"><title>Node105&#45;&gt;Node106</title>
<path fill="none" stroke="midnightblue" d="M942.232,-220.734C950.847,-220.734 959.894,-220.734 968.662,-220.734"/>
<polygon fill="midnightblue" stroke="midnightblue" points="968.785,-224.234 978.785,-220.734 968.785,-217.234 968.785,-224.234"/>
</g>
<!-- Node110&#45;&gt;Node103 -->
<g id="edge42" class="edge"><title>Node110&#45;&gt;Node103</title>
<path fill="none" stroke="midnightblue" d="M340.601,-194.708C324.899,-190.623 307.36,-186.768 291,-184.734 234.282,-177.683 169.237,-179.288 122.145,-182.164"/>
<polygon fill="midnightblue" stroke="midnightblue" points="121.832,-178.677 112.079,-182.814 122.284,-185.662 121.832,-178.677"/>
</g>
<!-- Node110&#45;&gt;Node104 -->
<g id="edge14" class="edge"><title>Node110&#45;&gt;Node104</title>
<path fill="none" stroke="midnightblue" d="M326.937,-216.284C318.613,-216.441 309.989,-216.505 301.418,-216.478"/>
<polygon fill="midnightblue" stroke="midnightblue" points="301.427,-212.978 291.401,-216.403 301.375,-219.978 301.427,-212.978"/>
</g>
<!-- Node111 -->
<g id="node9" class="node"><title>Node111</title>
<g id="a_node9"><a xlink:href="led_8c.html#af6d361c98a60a68683d2436f7ef9159a" target="_top" xlink:title="led_blink">
<polygon fill="white" stroke="black" points="535.5,-439.234 535.5,-458.234 590.5,-458.234 590.5,-439.234 535.5,-439.234"/>
<text text-anchor="middle" x="563" y="-446.234" font-family="Helvetica,sans-Serif" font-size="10.00">led_blink</text>
</a>
</g>
</g>
<!-- Node110&#45;&gt;Node111 -->
<g id="edge8" class="edge"><title>Node110&#45;&gt;Node111</title>
<path fill="none" stroke="midnightblue" d="M402.893,-225.048C432.99,-267.362 517.181,-385.723 549.315,-430.901"/>
<polygon fill="midnightblue" stroke="midnightblue" points="546.533,-433.027 555.181,-439.147 552.237,-428.97 546.533,-433.027"/>
</g>
<!-- Node116 -->
<g id="node14" class="node"><title>Node116</title>
<g id="a_node14"><a xlink:href="en61107__request_8c.html#a74c2d949e6bb3b65cdf794a0643dd67d" target="_top" xlink:title="en61107_uart_send_inst\l_values">
<polygon fill="white" stroke="black" points="502,-145.734 502,-175.734 624,-175.734 624,-145.734 502,-145.734"/>
<text text-anchor="start" x="510" y="-163.734" font-family="Helvetica,sans-Serif" font-size="10.00">en61107_uart_send_inst</text>
<text text-anchor="middle" x="563" y="-152.734" font-family="Helvetica,sans-Serif" font-size="10.00">_values</text>
</a>
</g>
</g>
<!-- Node110&#45;&gt;Node116 -->
<g id="edge15" class="edge"><title>Node110&#45;&gt;Node116</title>
<path fill="none" stroke="midnightblue" d="M425.181,-194.689C444.205,-188.13 468.828,-180.641 491.932,-174.274"/>
<polygon fill="midnightblue" stroke="midnightblue" points="492.984,-177.615 501.719,-171.619 491.152,-170.859 492.984,-177.615"/>
</g>
<!-- Node120 -->
<g id="node18" class="node"><title>Node120</title>
<g id="a_node18"><a xlink:href="en61107__request_8c.html#afdb1795bdd4212fc7e028a9e5668fab4" target="_top" xlink:title="en61107_uart_send_standard\l_data_1">
<polygon fill="white" stroke="black" points="491,-243.734 491,-273.734 635,-273.734 635,-243.734 491,-243.734"/>
<text text-anchor="start" x="499" y="-261.734" font-family="Helvetica,sans-Serif" font-size="10.00">en61107_uart_send_standard</text>
<text text-anchor="middle" x="563" y="-250.734" font-family="Helvetica,sans-Serif" font-size="10.00">_data_1</text>
</a>
</g>
</g>
<!-- Node110&#45;&gt;Node120 -->
<g id="edge26" class="edge"><title>Node110&#45;&gt;Node120</title>
<path fill="none" stroke="midnightblue" d="M455.302,-221.429C476.524,-227.148 499.681,-234.021 518.981,-240.377"/>
<polygon fill="midnightblue" stroke="midnightblue" points="518.098,-243.773 528.692,-243.645 520.331,-237.138 518.098,-243.773"/>
</g>
<!-- Node121 -->
<g id="node19" class="node"><title>Node121</title>
<g id="a_node19"><a xlink:href="en61107__request_8c.html#a10b80328698f459ae2251fe146cdc375" target="_top" xlink:title="en61107_uart_send_standard\l_data_2">
<polygon fill="white" stroke="black" points="491,-194.734 491,-224.734 635,-224.734 635,-194.734 491,-194.734"/>
<text text-anchor="start" x="499" y="-212.734" font-family="Helvetica,sans-Serif" font-size="10.00">en61107_uart_send_standard</text>
<text text-anchor="middle" x="563" y="-201.734" font-family="Helvetica,sans-Serif" font-size="10.00">_data_2</text>
</a>
</g>
</g>
<!-- Node110&#45;&gt;Node121 -->
<g id="edge34" class="edge"><title>Node110&#45;&gt;Node121</title>
<path fill="none" stroke="midnightblue" d="M455.302,-203.183C463.647,-203.027 472.292,-202.963 480.884,-202.99"/>
<polygon fill="midnightblue" stroke="midnightblue" points="480.898,-206.49 490.924,-203.065 480.951,-199.491 480.898,-206.49"/>
</g>
<!-- Node112 -->
<g id="node10" class="node"><title>Node112</title>
<g id="a_node10"><a xlink:href="led_8c.html#a0a23edee5e1db0cd2928c18a42ffe96f" target="_top" xlink:title="led_on">
<polygon fill="white" stroke="black" points="872,-440.234 872,-459.234 917,-459.234 917,-440.234 872,-440.234"/>
<text text-anchor="middle" x="894.5" y="-447.234" font-family="Helvetica,sans-Serif" font-size="10.00">led_on</text>
</a>
</g>
</g>
<!-- Node111&#45;&gt;Node112 -->
<g id="edge9" class="edge"><title>Node111&#45;&gt;Node112</title>
<path fill="none" stroke="midnightblue" d="M590.685,-448.815C650.914,-448.998 797.171,-449.442 861.844,-449.638"/>
<polygon fill="midnightblue" stroke="midnightblue" points="861.848,-453.138 871.858,-449.668 861.869,-446.138 861.848,-453.138"/>
</g>
<!-- Node114 -->
<g id="node12" class="node"><title>Node114</title>
<g id="a_node12"><a xlink:href="led_8c.html#af6e74a041f4ed0ac79f31a03c99733de" target="_top" xlink:title="led_single_blink_off\l_timer_func">
<polygon fill="white" stroke="black" points="689.5,-477.734 689.5,-507.734 791.5,-507.734 791.5,-477.734 689.5,-477.734"/>
<text text-anchor="start" x="697.5" y="-495.734" font-family="Helvetica,sans-Serif" font-size="10.00">led_single_blink_off</text>
<text text-anchor="middle" x="740.5" y="-484.734" font-family="Helvetica,sans-Serif" font-size="10.00">_timer_func</text>
</a>
</g>
</g>
<!-- Node111&#45;&gt;Node114 -->
<g id="edge11" class="edge"><title>Node111&#45;&gt;Node114</title>
<path fill="none" stroke="midnightblue" d="M590.655,-455.417C614.088,-461.292 649.06,-470.06 679.219,-477.621"/>
<polygon fill="midnightblue" stroke="midnightblue" points="678.687,-481.096 689.238,-480.133 680.389,-474.306 678.687,-481.096"/>
</g>
<!-- Node113 -->
<g id="node11" class="node"><title>Node113</title>
<g id="a_node11"><a xlink:href="gpio_8h.html#a83bac74ff5b2158e0c86da73ada29718" target="_top" xlink:title="gpio_output_set">
<polygon fill="white" stroke="black" points="979,-460.234 979,-479.234 1065,-479.234 1065,-460.234 979,-460.234"/>
<text text-anchor="middle" x="1022" y="-467.234" font-family="Helvetica,sans-Serif" font-size="10.00">gpio_output_set</text>
</a>
</g>
</g>
<!-- Node112&#45;&gt;Node113 -->
<g id="edge10" class="edge"><title>Node112&#45;&gt;Node113</title>
<path fill="none" stroke="midnightblue" d="M917.074,-453.172C931.384,-455.453 950.809,-458.548 968.994,-461.446"/>
<polygon fill="midnightblue" stroke="midnightblue" points="968.502,-464.912 978.928,-463.029 969.604,-457.999 968.502,-464.912"/>
</g>
<!-- Node115 -->
<g id="node13" class="node"><title>Node115</title>
<g id="a_node13"><a xlink:href="led_8c.html#a7ef0b27e501c77cd25b8bb7a2de6d8bd" target="_top" xlink:title="led_off">
<polygon fill="white" stroke="black" points="871.5,-481.234 871.5,-500.234 917.5,-500.234 917.5,-481.234 871.5,-481.234"/>
<text text-anchor="middle" x="894.5" y="-488.234" font-family="Helvetica,sans-Serif" font-size="10.00">led_off</text>
</a>
</g>
</g>
<!-- Node114&#45;&gt;Node115 -->
<g id="edge12" class="edge"><title>Node114&#45;&gt;Node115</title>
<path fill="none" stroke="midnightblue" d="M791.692,-492.074C814.561,-491.773 840.969,-491.425 861.157,-491.16"/>
<polygon fill="midnightblue" stroke="midnightblue" points="861.43,-494.656 871.383,-491.025 861.337,-487.657 861.43,-494.656"/>
</g>
<!-- Node115&#45;&gt;Node113 -->
<g id="edge13" class="edge"><title>Node115&#45;&gt;Node113</title>
<path fill="none" stroke="midnightblue" d="M917.648,-487.028C931.766,-484.666 950.688,-481.499 968.483,-478.522"/>
<polygon fill="midnightblue" stroke="midnightblue" points="969.5,-481.9 978.785,-476.798 968.344,-474.996 969.5,-481.9"/>
</g>
<!-- Node116&#45;&gt;Node105 -->
<g id="edge16" class="edge"><title>Node116&#45;&gt;Node105</title>
<path fill="none" stroke="midnightblue" d="M624.066,-146.316C675.095,-136.901 749.477,-129.963 810,-151.734 838.437,-161.963 864.076,-186.54 879.224,-203.421"/>
<polygon fill="midnightblue" stroke="midnightblue" points="876.59,-205.726 885.784,-210.992 881.881,-201.142 876.59,-205.726"/>
</g>
<!-- Node116&#45;&gt;Node107 -->
<g id="edge17" class="edge"><title>Node116&#45;&gt;Node107</title>
<path fill="none" stroke="midnightblue" d="M614.405,-175.736C621.457,-178.419 628.507,-181.427 635,-184.734 667.066,-201.066 700.363,-226.331 720.512,-242.703"/>
<polygon fill="midnightblue" stroke="midnightblue" points="718.358,-245.463 728.301,-249.122 722.81,-240.061 718.358,-245.463"/>
</g>
<!-- Node116&#45;&gt;Node108 -->
<g id="edge18" class="edge"><title>Node116&#45;&gt;Node108</title>
<path fill="none" stroke="midnightblue" d="M623.002,-175.865C627.353,-178.381 631.429,-181.314 635,-184.734 667.013,-215.388 638.151,-247.979 671,-277.734 676.471,-282.69 683.125,-286.367 690.11,-289.092"/>
<polygon fill="midnightblue" stroke="midnightblue" points="689.168,-292.467 699.761,-292.25 691.345,-285.814 689.168,-292.467"/>
</g>
<!-- Node116&#45;&gt;Node109 -->
<g id="edge19" class="edge"><title>Node116&#45;&gt;Node109</title>
<path fill="none" stroke="midnightblue" d="M571.677,-145.306C586.455,-117.582 621.804,-60.1433 671,-37.7341 727.22,-12.1253 753.249,-13.3238 810,-37.7341 831.371,-46.9265 826.753,-62.666 846,-75.7341 848.719,-77.58 851.644,-79.2893 854.659,-80.8628"/>
<polygon fill="midnightblue" stroke="midnightblue" points="853.317,-84.0994 863.857,-85.177 856.29,-77.7618 853.317,-84.0994"/>
</g>
<!-- Node116&#45;&gt;Node110 -->
<g id="edge20" class="edge"><title>Node116&#45;&gt;Node110</title>
<path fill="none" stroke="midnightblue" d="M528.692,-175.823C510.504,-182.089 487.225,-189.2 465.052,-195.368"/>
<polygon fill="midnightblue" stroke="midnightblue" points="464.022,-192.021 455.302,-198.039 465.871,-198.773 464.022,-192.021"/>
</g>
<!-- Node116&#45;&gt;Node117 -->
<g id="edge21" class="edge"><title>Node116&#45;&gt;Node117</title>
<path fill="none" stroke="midnightblue" d="M580.687,-145.681C600.855,-128.126 636.405,-99.1647 671,-80.7341 678.919,-76.5153 687.732,-72.7867 696.329,-69.602"/>
<polygon fill="midnightblue" stroke="midnightblue" points="697.613,-72.8607 705.884,-66.2402 695.29,-66.2574 697.613,-72.8607"/>
</g>
<!-- Node116&#45;&gt;Node119 -->
<g id="edge23" class="edge"><title>Node116&#45;&gt;Node119</title>
<path fill="none" stroke="midnightblue" d="M624.397,-166.24C636.094,-167.307 648.511,-168.439 660.696,-169.55"/>
<polygon fill="midnightblue" stroke="midnightblue" points="660.579,-173.053 670.856,-170.476 661.215,-166.082 660.579,-173.053"/>
</g>
<!-- Node118 -->
<g id="node16" class="node"><title>Node118</title>
<g id="a_node16"><a xlink:href="uart_8c.html#a40bca7ca9b269f93bc9f17924a38fbe0" target="_top" xlink:title="uart_tx_one_char">
<polygon fill="white" stroke="black" points="848.5,-47.2341 848.5,-66.2341 940.5,-66.2341 940.5,-47.2341 848.5,-47.2341"/>
<text text-anchor="middle" x="894.5" y="-54.2341" font-family="Helvetica,sans-Serif" font-size="10.00">uart_tx_one_char</text>
</a>
</g>
</g>
<!-- Node117&#45;&gt;Node118 -->
<g id="edge22" class="edge"><title>Node117&#45;&gt;Node118</title>
<path fill="none" stroke="midnightblue" d="M781.834,-56.7341C799.125,-56.7341 819.6,-56.7341 838.266,-56.7341"/>
<polygon fill="midnightblue" stroke="midnightblue" points="838.418,-60.2342 848.418,-56.7341 838.418,-53.2342 838.418,-60.2342"/>
</g>
<!-- Node119&#45;&gt;Node105 -->
<g id="edge24" class="edge"><title>Node119&#45;&gt;Node105</title>
<path fill="none" stroke="midnightblue" d="M793.385,-191.753C811.933,-197.123 832.619,-203.111 850.351,-208.244"/>
<polygon fill="midnightblue" stroke="midnightblue" points="849.833,-211.737 860.411,-211.156 851.779,-205.013 849.833,-211.737"/>
</g>
<!-- Node119&#45;&gt;Node109 -->
<g id="edge25" class="edge"><title>Node119&#45;&gt;Node109</title>
<path fill="none" stroke="midnightblue" d="M769.379,-161.694C797.132,-146.722 839.429,-123.904 866.772,-109.153"/>
<polygon fill="midnightblue" stroke="midnightblue" points="868.632,-112.127 875.771,-104.298 865.308,-105.966 868.632,-112.127"/>
</g>
<!-- Node120&#45;&gt;Node105 -->
<g id="edge27" class="edge"><title>Node120&#45;&gt;Node105</title>
<path fill="none" stroke="midnightblue" d="M575.838,-273.863C593.728,-295.352 629.951,-333.766 671,-348.734 729.04,-369.898 755.678,-378.156 810,-348.734 852.804,-325.551 877.142,-269.853 887.498,-240.154"/>
<polygon fill="midnightblue" stroke="midnightblue" points="890.875,-241.089 890.689,-230.496 884.228,-238.893 890.875,-241.089"/>
</g>
<!-- Node120&#45;&gt;Node107 -->
<g id="edge28" class="edge"><title>Node120&#45;&gt;Node107</title>
<path fill="none" stroke="midnightblue" d="M635.13,-258.734C648.325,-258.734 662.041,-258.734 675.024,-258.734"/>
<polygon fill="midnightblue" stroke="midnightblue" points="675.255,-262.234 685.255,-258.734 675.255,-255.234 675.255,-262.234"/>
</g>
<!-- Node120&#45;&gt;Node108 -->
<g id="edge29" class="edge"><title>Node120&#45;&gt;Node108</title>
<path fill="none" stroke="midnightblue" d="M633.362,-273.753C652.264,-277.845 672.357,-282.196 689.918,-285.998"/>
<polygon fill="midnightblue" stroke="midnightblue" points="689.422,-289.472 699.937,-288.168 690.904,-282.631 689.422,-289.472"/>
</g>
<!-- Node120&#45;&gt;Node109 -->
<g id="edge30" class="edge"><title>Node120&#45;&gt;Node109</title>
<path fill="none" stroke="midnightblue" d="M585.033,-273.855C630.567,-304.572 739.81,-367.175 810,-315.734 852.856,-284.326 827.191,-251.427 846,-201.734 857.933,-170.207 874.342,-134.617 884.418,-113.464"/>
<polygon fill="midnightblue" stroke="midnightblue" points="887.635,-114.849 888.809,-104.32 881.325,-111.819 887.635,-114.849"/>
</g>
<!-- Node120&#45;&gt;Node110 -->
<g id="edge31" class="edge"><title>Node120&#45;&gt;Node110</title>
<path fill="none" stroke="midnightblue" d="M490.919,-244.915C471.852,-239.643 451.825,-233.631 434.817,-228.024"/>
<polygon fill="midnightblue" stroke="midnightblue" points="435.775,-224.654 425.181,-224.779 433.541,-231.288 435.775,-224.654"/>
</g>
<!-- Node120&#45;&gt;Node117 -->
<g id="edge32" class="edge"><title>Node120&#45;&gt;Node117</title>
<path fill="none" stroke="midnightblue" d="M621.107,-243.55C626.141,-240.798 630.88,-237.555 635,-233.734 664.181,-206.667 651.251,-186.291 671,-151.734 687.374,-123.082 710.519,-92.577 725.268,-74.084"/>
<polygon fill="midnightblue" stroke="midnightblue" points="728.028,-76.2371 731.583,-66.2566 722.58,-71.8415 728.028,-76.2371"/>
</g>
<!-- Node120&#45;&gt;Node119 -->
<g id="edge33" class="edge"><title>Node120&#45;&gt;Node119</title>
<path fill="none" stroke="midnightblue" d="M610.255,-243.66C618.585,-240.604 627.121,-237.243 635,-233.734 659.229,-222.944 685.43,-208.647 705.535,-197.07"/>
<polygon fill="midnightblue" stroke="midnightblue" points="707.429,-200.018 714.315,-191.965 703.91,-193.966 707.429,-200.018"/>
</g>
<!-- Node121&#45;&gt;Node105 -->
<g id="edge35" class="edge"><title>Node121&#45;&gt;Node105</title>
<path fill="none" stroke="midnightblue" d="M635.091,-212.107C695.468,-214.123 780.974,-216.978 836.825,-218.842"/>
<polygon fill="midnightblue" stroke="midnightblue" points="836.785,-222.343 846.896,-219.178 837.019,-215.346 836.785,-222.343"/>
</g>
<!-- Node121&#45;&gt;Node107 -->
<g id="edge36" class="edge"><title>Node121&#45;&gt;Node107</title>
<path fill="none" stroke="midnightblue" d="M618.088,-224.835C643.027,-231.799 672.243,-239.956 695.765,-246.523"/>
<polygon fill="midnightblue" stroke="midnightblue" points="694.895,-249.914 705.468,-249.232 696.777,-243.172 694.895,-249.914"/>
</g>
<!-- Node121&#45;&gt;Node108 -->
<g id="edge37" class="edge"><title>Node121&#45;&gt;Node108</title>
<path fill="none" stroke="midnightblue" d="M619.012,-224.81C624.634,-227.37 630.079,-230.327 635,-233.734 655.775,-248.116 649.835,-263.933 671,-277.734 676.765,-281.493 683.269,-284.516 689.916,-286.945"/>
<polygon fill="midnightblue" stroke="midnightblue" points="689.096,-290.358 699.688,-290.096 691.245,-283.696 689.096,-290.358"/>
</g>
<!-- Node121&#45;&gt;Node109 -->
<g id="edge38" class="edge"><title>Node121&#45;&gt;Node109</title>
<path fill="none" stroke="midnightblue" d="M614.802,-194.692C621.796,-191.812 628.724,-188.498 635,-184.734 653.614,-173.57 651.914,-162.071 671,-151.734 722.94,-123.604 789.269,-108.943 835.944,-101.583"/>
<polygon fill="midnightblue" stroke="midnightblue" points="836.524,-105.035 845.887,-100.078 835.476,-98.1136 836.524,-105.035"/>
</g>
<!-- Node121&#45;&gt;Node110 -->
<g id="edge39" class="edge"><title>Node121&#45;&gt;Node110</title>
<path fill="none" stroke="midnightblue" d="M490.924,-216.403C482.52,-216.502 473.93,-216.51 465.493,-216.429"/>
<polygon fill="midnightblue" stroke="midnightblue" points="465.35,-212.927 455.302,-216.285 465.251,-219.926 465.35,-212.927"/>
</g>
<!-- Node121&#45;&gt;Node117 -->
<g id="edge40" class="edge"><title>Node121&#45;&gt;Node117</title>
<path fill="none" stroke="midnightblue" d="M621.779,-194.69C626.618,-191.913 631.129,-188.625 635,-184.734 669.495,-150.056 636.478,-115.386 671,-80.7341 676.319,-75.3945 682.893,-71.24 689.843,-68.0081"/>
<polygon fill="midnightblue" stroke="midnightblue" points="691.493,-71.1176 699.473,-64.1483 688.889,-64.6201 691.493,-71.1176"/>
</g>
<!-- Node121&#45;&gt;Node119 -->
<g id="edge41" class="edge"><title>Node121&#45;&gt;Node119</title>
<path fill="none" stroke="midnightblue" d="M635.13,-196.359C643.598,-194.767 652.281,-193.134 660.846,-191.524"/>
<polygon fill="midnightblue" stroke="midnightblue" points="661.647,-194.934 670.828,-189.647 660.354,-188.055 661.647,-194.934"/>
</g>
</g>
</svg>
