<?xml version="1.0" encoding="UTF-8" standalone="no"?>
<!DOCTYPE svg PUBLIC "-//W3C//DTD SVG 1.1//EN"
 "http://www.w3.org/Graphics/SVG/1.1/DTD/svg11.dtd">
<!-- Generated by graphviz version 2.38.0 (20140413.2041)
 -->
<!-- Title: node_insert_to_list Pages: 1 -->
<svg width="520pt" height="142pt"
 viewBox="0.00 0.00 520.00 142.00" xmlns="http://www.w3.org/2000/svg" xmlns:xlink="http://www.w3.org/1999/xlink">
<g id="graph0" class="graph" transform="scale(1 1) rotate(0) translate(4 138)">
<title>node_insert_to_list</title>
<polygon fill="white" stroke="none" points="-4,4 -4,-138 516,-138 516,4 -4,4"/>
<!-- Node174 -->
<g id="node1" class="node"><title>Node174</title>
<polygon fill="#bfbfbf" stroke="black" points="0,-57.5 0,-76.5 98,-76.5 98,-57.5 0,-57.5"/>
<text text-anchor="middle" x="49" y="-64.5" font-family="Helvetica,sans-Serif" font-size="10.00">node_insert_to_list</text>
</g>
<!-- Node175 -->
<g id="node2" class="node"><title>Node175</title>
<g id="a_node2"><a xlink:href="dhcpserver_8c.html#ab12c56e5939c3cbb93842fc1e29b52aa" target="_top" xlink:title="dhcps_set_mapping">
<polygon fill="white" stroke="black" points="144.5,-114.5 144.5,-133.5 248.5,-133.5 248.5,-114.5 144.5,-114.5"/>
<text text-anchor="middle" x="196.5" y="-121.5" font-family="Helvetica,sans-Serif" font-size="10.00">dhcps_set_mapping</text>
</a>
</g>
</g>
<!-- Node174&#45;&gt;Node175 -->
<g id="edge1" class="edge"><title>Node174&#45;&gt;Node175</title>
<path fill="none" stroke="midnightblue" d="M78.7608,-81.0896C94.8097,-88.6769 115.284,-97.9073 134,-105 142.987,-108.406 152.876,-111.667 162.047,-114.497"/>
<polygon fill="midnightblue" stroke="midnightblue" points="79.9268,-77.7676 69.3952,-76.6115 76.9072,-84.0829 79.9268,-77.7676"/>
</g>
<!-- Node176 -->
<g id="node3" class="node"><title>Node176</title>
<g id="a_node3"><a xlink:href="encdhcpserver_8c.html#a26823e70d62a1709c1e75a83e118ca1d" target="_top" xlink:title="enc_dhcps_set_mapping">
<polygon fill="white" stroke="black" points="134,-76.5 134,-95.5 259,-95.5 259,-76.5 134,-76.5"/>
<text text-anchor="middle" x="196.5" y="-83.5" font-family="Helvetica,sans-Serif" font-size="10.00">enc_dhcps_set_mapping</text>
</a>
</g>
</g>
<!-- Node174&#45;&gt;Node176 -->
<g id="edge2" class="edge"><title>Node174&#45;&gt;Node176</title>
<path fill="none" stroke="midnightblue" d="M108.15,-74.5935C116.572,-75.6932 125.265,-76.8284 133.754,-77.9369"/>
<polygon fill="midnightblue" stroke="midnightblue" points="108.414,-71.0984 98.0454,-73.274 107.508,-78.0394 108.414,-71.0984"/>
</g>
<!-- Node177 -->
<g id="node4" class="node"><title>Node177</title>
<g id="a_node4"><a xlink:href="encdhcpserver_8c.html#a6c1166c1c0b8f241a839569e81f7aee5" target="_top" xlink:title="enc_parse_msg">
<polygon fill="white" stroke="black" points="153.5,-38.5 153.5,-57.5 239.5,-57.5 239.5,-38.5 153.5,-38.5"/>
<text text-anchor="middle" x="196.5" y="-45.5" font-family="Helvetica,sans-Serif" font-size="10.00">enc_parse_msg</text>
</a>
</g>
</g>
<!-- Node174&#45;&gt;Node177 -->
<g id="edge3" class="edge"><title>Node174&#45;&gt;Node177</title>
<path fill="none" stroke="midnightblue" d="M108.307,-59.386C123.377,-57.4181 139.309,-55.3377 153.373,-53.5012"/>
<polygon fill="midnightblue" stroke="midnightblue" points="107.508,-55.9606 98.0454,-60.726 108.414,-62.9016 107.508,-55.9606"/>
</g>
<!-- Node180 -->
<g id="node7" class="node"><title>Node180</title>
<g id="a_node7"><a xlink:href="dhcpserver_8c.html#a72c6ecdbccb7cf567c40b857523706bd" target="_top" xlink:title="parse_msg">
<polygon fill="white" stroke="black" points="164,-0.5 164,-19.5 229,-19.5 229,-0.5 164,-0.5"/>
<text text-anchor="middle" x="196.5" y="-7.5" font-family="Helvetica,sans-Serif" font-size="10.00">parse_msg</text>
</a>
</g>
</g>
<!-- Node174&#45;&gt;Node180 -->
<g id="edge6" class="edge"><title>Node174&#45;&gt;Node180</title>
<path fill="none" stroke="midnightblue" d="M78.7608,-52.9104C94.8097,-45.3231 115.284,-36.0927 134,-29 143.614,-25.3568 154.26,-21.8782 163.956,-18.9166"/>
<polygon fill="midnightblue" stroke="midnightblue" points="76.9072,-49.9171 69.3952,-57.3885 79.9268,-56.2324 76.9072,-49.9171"/>
</g>
<!-- Node178 -->
<g id="node5" class="node"><title>Node178</title>
<g id="a_node5"><a xlink:href="encdhcpserver_8c.html#a6c2868df935ea765caa130a2446127b1" target="_top" xlink:title="enc_handle_dhcp">
<polygon fill="white" stroke="black" points="295,-38.5 295,-57.5 387,-57.5 387,-38.5 295,-38.5"/>
<text text-anchor="middle" x="341" y="-45.5" font-family="Helvetica,sans-Serif" font-size="10.00">enc_handle_dhcp</text>
</a>
</g>
</g>
<!-- Node177&#45;&gt;Node178 -->
<g id="edge4" class="edge"><title>Node177&#45;&gt;Node178</title>
<path fill="none" stroke="midnightblue" d="M250.286,-48C264.917,-48 280.664,-48 294.818,-48"/>
<polygon fill="midnightblue" stroke="midnightblue" points="249.869,-44.5001 239.869,-48 249.869,-51.5001 249.869,-44.5001"/>
</g>
<!-- Node179 -->
<g id="node6" class="node"><title>Node179</title>
<g id="a_node6"><a xlink:href="encdhcpserver_8c.html#aeeb2ad7e2436d258c8ee145949300a9a" target="_top" xlink:title="enc_dhcps_start">
<polygon fill="white" stroke="black" points="423,-38.5 423,-57.5 512,-57.5 512,-38.5 423,-38.5"/>
<text text-anchor="middle" x="467.5" y="-45.5" font-family="Helvetica,sans-Serif" font-size="10.00">enc_dhcps_start</text>
</a>
</g>
</g>
<!-- Node178&#45;&gt;Node179 -->
<g id="edge5" class="edge"><title>Node178&#45;&gt;Node179</title>
<path fill="none" stroke="midnightblue" d="M397.477,-48C405.923,-48 414.538,-48 422.689,-48"/>
<polygon fill="midnightblue" stroke="midnightblue" points="397.3,-44.5001 387.3,-48 397.3,-51.5001 397.3,-44.5001"/>
</g>
<!-- Node181 -->
<g id="node8" class="node"><title>Node181</title>
<g id="a_node8"><a xlink:href="dhcpserver_8c.html#a11489c1fab4206e65914c4c46850d183" target="_top" xlink:title="handle_dhcp">
<polygon fill="white" stroke="black" points="305.5,-0.5 305.5,-19.5 376.5,-19.5 376.5,-0.5 305.5,-0.5"/>
<text text-anchor="middle" x="341" y="-7.5" font-family="Helvetica,sans-Serif" font-size="10.00">handle_dhcp</text>
</a>
</g>
</g>
<!-- Node180&#45;&gt;Node181 -->
<g id="edge7" class="edge"><title>Node180&#45;&gt;Node181</title>
<path fill="none" stroke="midnightblue" d="M239.383,-10C260.408,-10 285.569,-10 305.471,-10"/>
<polygon fill="midnightblue" stroke="midnightblue" points="239.125,-6.5001 229.125,-10 239.125,-13.5001 239.125,-6.5001"/>
</g>
<!-- Node182 -->
<g id="node9" class="node"><title>Node182</title>
<g id="a_node9"><a xlink:href="dhcpserver_8c.html#aa4cf55564a805b8654630547d365edcd" target="_top" xlink:title="dhcps_start">
<polygon fill="white" stroke="black" points="433.5,-0.5 433.5,-19.5 501.5,-19.5 501.5,-0.5 433.5,-0.5"/>
<text text-anchor="middle" x="467.5" y="-7.5" font-family="Helvetica,sans-Serif" font-size="10.00">dhcps_start</text>
</a>
</g>
</g>
<!-- Node181&#45;&gt;Node182 -->
<g id="edge8" class="edge"><title>Node181&#45;&gt;Node182</title>
<path fill="none" stroke="midnightblue" d="M386.979,-10C402.276,-10 419.085,-10 433.292,-10"/>
<polygon fill="midnightblue" stroke="midnightblue" points="386.68,-6.5001 376.68,-10 386.68,-13.5001 386.68,-6.5001"/>
</g>
</g>
</svg>
