<?xml version="1.0" encoding="UTF-8" standalone="no"?>
<!DOCTYPE svg PUBLIC "-//W3C//DTD SVG 1.1//EN"
 "http://www.w3.org/Graphics/SVG/1.1/DTD/svg11.dtd">
<!-- Generated by graphviz version 2.38.0 (20140413.2041)
 -->
<!-- Title: enc_create_msg Pages: 1 -->
<svg width="469pt" height="104pt"
 viewBox="0.00 0.00 469.00 104.00" xmlns="http://www.w3.org/2000/svg" xmlns:xlink="http://www.w3.org/1999/xlink">
<g id="graph0" class="graph" transform="scale(1 1) rotate(0) translate(4 100)">
<title>enc_create_msg</title>
<polygon fill="white" stroke="none" points="-4,4 -4,-100 465,-100 465,4 -4,4"/>
<!-- Node21 -->
<g id="node1" class="node"><title>Node21</title>
<polygon fill="#bfbfbf" stroke="black" points="0,-38.5 0,-57.5 89,-57.5 89,-38.5 0,-38.5"/>
<text text-anchor="middle" x="44.5" y="-45.5" font-family="Helvetica,sans-Serif" font-size="10.00">enc_create_msg</text>
</g>
<!-- Node22 -->
<g id="node2" class="node"><title>Node22</title>
<g id="a_node2"><a xlink:href="encdhcpserver_8c.html#ac3824653dcadb216498a0102c64a7a95" target="_top" xlink:title="enc_send_ack">
<polygon fill="white" stroke="black" points="126.5,-76.5 126.5,-95.5 206.5,-95.5 206.5,-76.5 126.5,-76.5"/>
<text text-anchor="middle" x="166.5" y="-83.5" font-family="Helvetica,sans-Serif" font-size="10.00">enc_send_ack</text>
</a>
</g>
</g>
<!-- Node21&#45;&gt;Node22 -->
<g id="edge1" class="edge"><title>Node21&#45;&gt;Node22</title>
<path fill="none" stroke="midnightblue" d="M85.5435,-60.6804C101.757,-65.8148 120.166,-71.6441 135.229,-76.4141"/>
<polygon fill="midnightblue" stroke="midnightblue" points="86.3711,-57.2713 75.7811,-57.589 84.2578,-63.9447 86.3711,-57.2713"/>
</g>
<!-- Node25 -->
<g id="node5" class="node"><title>Node25</title>
<g id="a_node5"><a xlink:href="encdhcpserver_8c.html#aba804f0d6ee22f1790a8589f6974f708" target="_top" xlink:title="enc_send_nak">
<polygon fill="white" stroke="black" points="126.5,-38.5 126.5,-57.5 206.5,-57.5 206.5,-38.5 126.5,-38.5"/>
<text text-anchor="middle" x="166.5" y="-45.5" font-family="Helvetica,sans-Serif" font-size="10.00">enc_send_nak</text>
</a>
</g>
</g>
<!-- Node21&#45;&gt;Node25 -->
<g id="edge4" class="edge"><title>Node21&#45;&gt;Node25</title>
<path fill="none" stroke="midnightblue" d="M99.3401,-48C108.468,-48 117.787,-48 126.442,-48"/>
<polygon fill="midnightblue" stroke="midnightblue" points="99.1622,-44.5001 89.1622,-48 99.1622,-51.5001 99.1622,-44.5001"/>
</g>
<!-- Node26 -->
<g id="node6" class="node"><title>Node26</title>
<g id="a_node6"><a xlink:href="encdhcpserver_8c.html#a3c75112029e9129f468d61866d004dee" target="_top" xlink:title="enc_send_offer">
<polygon fill="white" stroke="black" points="125,-0.5 125,-19.5 208,-19.5 208,-0.5 125,-0.5"/>
<text text-anchor="middle" x="166.5" y="-7.5" font-family="Helvetica,sans-Serif" font-size="10.00">enc_send_offer</text>
</a>
</g>
</g>
<!-- Node21&#45;&gt;Node26 -->
<g id="edge6" class="edge"><title>Node21&#45;&gt;Node26</title>
<path fill="none" stroke="midnightblue" d="M85.5435,-35.3196C101.757,-30.1852 120.166,-24.3559 135.229,-19.5859"/>
<polygon fill="midnightblue" stroke="midnightblue" points="84.2578,-32.0553 75.7811,-38.411 86.3711,-38.7287 84.2578,-32.0553"/>
</g>
<!-- Node23 -->
<g id="node3" class="node"><title>Node23</title>
<g id="a_node3"><a xlink:href="encdhcpserver_8c.html#a6c2868df935ea765caa130a2446127b1" target="_top" xlink:title="enc_handle_dhcp">
<polygon fill="white" stroke="black" points="244,-38.5 244,-57.5 336,-57.5 336,-38.5 244,-38.5"/>
<text text-anchor="middle" x="290" y="-45.5" font-family="Helvetica,sans-Serif" font-size="10.00">enc_handle_dhcp</text>
</a>
</g>
</g>
<!-- Node22&#45;&gt;Node23 -->
<g id="edge2" class="edge"><title>Node22&#45;&gt;Node23</title>
<path fill="none" stroke="midnightblue" d="M208.044,-73.3196C224.461,-68.1852 243.099,-62.3559 258.35,-57.5859"/>
<polygon fill="midnightblue" stroke="midnightblue" points="206.659,-70.0855 198.16,-76.411 208.748,-76.7664 206.659,-70.0855"/>
</g>
<!-- Node24 -->
<g id="node4" class="node"><title>Node24</title>
<g id="a_node4"><a xlink:href="encdhcpserver_8c.html#aeeb2ad7e2436d258c8ee145949300a9a" target="_top" xlink:title="enc_dhcps_start">
<polygon fill="white" stroke="black" points="372,-38.5 372,-57.5 461,-57.5 461,-38.5 372,-38.5"/>
<text text-anchor="middle" x="416.5" y="-45.5" font-family="Helvetica,sans-Serif" font-size="10.00">enc_dhcps_start</text>
</a>
</g>
</g>
<!-- Node23&#45;&gt;Node24 -->
<g id="edge3" class="edge"><title>Node23&#45;&gt;Node24</title>
<path fill="none" stroke="midnightblue" d="M346.477,-48C354.923,-48 363.538,-48 371.689,-48"/>
<polygon fill="midnightblue" stroke="midnightblue" points="346.3,-44.5001 336.3,-48 346.3,-51.5001 346.3,-44.5001"/>
</g>
<!-- Node25&#45;&gt;Node23 -->
<g id="edge5" class="edge"><title>Node25&#45;&gt;Node23</title>
<path fill="none" stroke="midnightblue" d="M216.812,-48C225.673,-48 234.871,-48 243.615,-48"/>
<polygon fill="midnightblue" stroke="midnightblue" points="216.612,-44.5001 206.612,-48 216.612,-51.5001 216.612,-44.5001"/>
</g>
<!-- Node26&#45;&gt;Node23 -->
<g id="edge7" class="edge"><title>Node26&#45;&gt;Node23</title>
<path fill="none" stroke="midnightblue" d="M208.044,-22.6804C224.461,-27.8148 243.099,-33.6441 258.35,-38.4141"/>
<polygon fill="midnightblue" stroke="midnightblue" points="208.748,-19.2336 198.16,-19.589 206.659,-25.9145 208.748,-19.2336"/>
</g>
</g>
</svg>
