<?xml version="1.0" encoding="UTF-8" standalone="no"?>
<!DOCTYPE svg PUBLIC "-//W3C//DTD SVG 1.1//EN"
 "http://www.w3.org/Graphics/SVG/1.1/DTD/svg11.dtd">
<!-- Generated by graphviz version 2.38.0 (20140413.2041)
 -->
<!-- Title: espconn_regist_sentcb Pages: 1 -->
<svg width="658pt" height="66pt"
 viewBox="0.00 0.00 658.00 66.00" xmlns="http://www.w3.org/2000/svg" xmlns:xlink="http://www.w3.org/1999/xlink">
<g id="graph0" class="graph" transform="scale(1 1) rotate(0) translate(4 62)">
<title>espconn_regist_sentcb</title>
<polygon fill="white" stroke="none" points="-4,4 -4,-62 654,-62 654,4 -4,4"/>
<!-- Node182 -->
<g id="node1" class="node"><title>Node182</title>
<polygon fill="#bfbfbf" stroke="black" points="0,-19.5 0,-38.5 117,-38.5 117,-19.5 0,-19.5"/>
<text text-anchor="middle" x="58.5" y="-26.5" font-family="Helvetica,sans-Serif" font-size="10.00">espconn_regist_sentcb</text>
</g>
<!-- Node183 -->
<g id="node2" class="node"><title>Node183</title>
<g id="a_node2"><a xlink:href="httpd_8c.html#a394ef39b684f0f7c1cf013dcb2b8300b" target="_top" xlink:title="httpdConnectCb">
<polygon fill="white" stroke="black" points="176,-38.5 176,-57.5 264,-57.5 264,-38.5 176,-38.5"/>
<text text-anchor="middle" x="220" y="-45.5" font-family="Helvetica,sans-Serif" font-size="10.00">httpdConnectCb</text>
</a>
</g>
</g>
<!-- Node182&#45;&gt;Node183 -->
<g id="edge1" class="edge"><title>Node182&#45;&gt;Node183</title>
<path fill="none" stroke="midnightblue" d="M127.162,-37.0601C143.535,-39.0105 160.604,-41.0437 175.521,-42.8207"/>
<polygon fill="midnightblue" stroke="midnightblue" points="127.427,-33.567 117.083,-35.8594 126.599,-40.5178 127.427,-33.567"/>
</g>
<!-- Node186 -->
<g id="node5" class="node"><title>Node186</title>
<g id="a_node5"><a xlink:href="mqtt_8c.html#a36ecd969af1b9c87856f01be064a98cc" target="_top" xlink:title="Tcp client connect success callback function. ">
<polygon fill="white" stroke="black" points="153,-0.5 153,-19.5 287,-19.5 287,-0.5 153,-0.5"/>
<text text-anchor="middle" x="220" y="-7.5" font-family="Helvetica,sans-Serif" font-size="10.00">mqtt_tcpclient_connect_cb</text>
</a>
</g>
</g>
<!-- Node182&#45;&gt;Node186 -->
<g id="edge4" class="edge"><title>Node182&#45;&gt;Node186</title>
<path fill="none" stroke="midnightblue" d="M127.287,-20.9251C135.748,-19.9172 144.393,-18.8873 152.83,-17.8823"/>
<polygon fill="midnightblue" stroke="midnightblue" points="126.599,-17.4822 117.083,-22.1406 127.427,-24.433 126.599,-17.4822"/>
</g>
<!-- Node184 -->
<g id="node3" class="node"><title>Node184</title>
<g id="a_node3"><a xlink:href="httpd_8h.html#a74eb356c950228c2f024f081f7beb830" target="_top" xlink:title="httpdInit">
<polygon fill="white" stroke="black" points="340,-38.5 340,-57.5 392,-57.5 392,-38.5 340,-38.5"/>
<text text-anchor="middle" x="366" y="-45.5" font-family="Helvetica,sans-Serif" font-size="10.00">httpdInit</text>
</a>
</g>
</g>
<!-- Node183&#45;&gt;Node184 -->
<g id="edge2" class="edge"><title>Node183&#45;&gt;Node184</title>
<path fill="none" stroke="midnightblue" d="M274.293,-48C296.723,-48 321.756,-48 339.832,-48"/>
<polygon fill="midnightblue" stroke="midnightblue" points="274.205,-44.5001 264.205,-48 274.205,-51.5001 274.205,-44.5001"/>
</g>
<!-- Node185 -->
<g id="node4" class="node"><title>Node185</title>
<g id="a_node4"><a xlink:href="httpd__user__init_8h.html#a6abf56883c8e03334f42bfb79aa8b095" target="_top" xlink:title="httpd_user_init">
<polygon fill="white" stroke="black" points="445,-38.5 445,-57.5 525,-57.5 525,-38.5 445,-38.5"/>
<text text-anchor="middle" x="485" y="-45.5" font-family="Helvetica,sans-Serif" font-size="10.00">httpd_user_init</text>
</a>
</g>
</g>
<!-- Node184&#45;&gt;Node185 -->
<g id="edge3" class="edge"><title>Node184&#45;&gt;Node185</title>
<path fill="none" stroke="midnightblue" d="M402.333,-48C415.691,-48 430.97,-48 444.672,-48"/>
<polygon fill="midnightblue" stroke="midnightblue" points="402.099,-44.5001 392.099,-48 402.099,-51.5001 402.099,-44.5001"/>
</g>
<!-- Node187 -->
<g id="node6" class="node"><title>Node187</title>
<g id="a_node6"><a xlink:href="mqtt_8c.html#ad34b681cb2f7473d8fc786c7ed468db5" target="_top" xlink:title="Begin connect to MQTT broker. ">
<polygon fill="white" stroke="black" points="323,-0.5 323,-19.5 409,-19.5 409,-0.5 323,-0.5"/>
<text text-anchor="middle" x="366" y="-7.5" font-family="Helvetica,sans-Serif" font-size="10.00">MQTT_Connect</text>
</a>
</g>
</g>
<!-- Node186&#45;&gt;Node187 -->
<g id="edge5" class="edge"><title>Node186&#45;&gt;Node187</title>
<path fill="none" stroke="midnightblue" d="M297.353,-10C306.08,-10 314.722,-10 322.762,-10"/>
<polygon fill="midnightblue" stroke="midnightblue" points="297.1,-6.5001 287.1,-10 297.1,-13.5001 297.1,-6.5001"/>
</g>
<!-- Node188 -->
<g id="node7" class="node"><title>Node188</title>
<g id="a_node7"><a xlink:href="mqtt_8c.html#a9d88fa6efb9163d4dbf9dc750a8d4ed0" target="_top" xlink:title="MQTT_Task">
<polygon fill="white" stroke="black" points="449.5,-0.5 449.5,-19.5 520.5,-19.5 520.5,-0.5 449.5,-0.5"/>
<text text-anchor="middle" x="485" y="-7.5" font-family="Helvetica,sans-Serif" font-size="10.00">MQTT_Task</text>
</a>
</g>
</g>
<!-- Node187&#45;&gt;Node188 -->
<g id="edge6" class="edge"><title>Node187&#45;&gt;Node188</title>
<path fill="none" stroke="midnightblue" d="M419.55,-10C429.574,-10 439.833,-10 449.134,-10"/>
<polygon fill="midnightblue" stroke="midnightblue" points="419.24,-6.5001 409.24,-10 419.24,-13.5001 419.24,-6.5001"/>
</g>
<!-- Node189 -->
<g id="node8" class="node"><title>Node189</title>
<g id="a_node8"><a xlink:href="mqtt_8c.html#a25cb7ac079d1d119250dac075c45acf1" target="_top" xlink:title="MQTT initialization mqtt client function. ">
<polygon fill="white" stroke="black" points="561,-0.5 561,-19.5 650,-19.5 650,-0.5 561,-0.5"/>
<text text-anchor="middle" x="605.5" y="-7.5" font-family="Helvetica,sans-Serif" font-size="10.00">MQTT_InitClient</text>
</a>
</g>
</g>
<!-- Node188&#45;&gt;Node189 -->
<g id="edge7" class="edge"><title>Node188&#45;&gt;Node189</title>
<path fill="none" stroke="midnightblue" d="M530.625,-10C540.5,-10 550.953,-10 560.79,-10"/>
<polygon fill="midnightblue" stroke="midnightblue" points="530.594,-6.5001 520.594,-10 530.594,-13.5001 530.594,-6.5001"/>
</g>
</g>
</svg>
