<?xml version="1.0" encoding="UTF-8" standalone="no"?>
<!DOCTYPE svg PUBLIC "-//W3C//DTD SVG 1.1//EN"
 "http://www.w3.org/Graphics/SVG/1.1/DTD/svg11.dtd">
<!-- Generated by graphviz version 2.38.0 (20140413.2041)
 -->
<!-- Title: espconn_connect Pages: 1 -->
<svg width="577pt" height="47pt"
 viewBox="0.00 0.00 577.00 47.00" xmlns="http://www.w3.org/2000/svg" xmlns:xlink="http://www.w3.org/1999/xlink">
<g id="graph0" class="graph" transform="scale(1 1) rotate(0) translate(4 43)">
<title>espconn_connect</title>
<polygon fill="white" stroke="none" points="-4,4 -4,-43 573,-43 573,4 -4,4"/>
<!-- Node5 -->
<g id="node1" class="node"><title>Node5</title>
<polygon fill="#bfbfbf" stroke="black" points="0,-19.5 0,-38.5 93,-38.5 93,-19.5 0,-19.5"/>
<text text-anchor="middle" x="46.5" y="-26.5" font-family="Helvetica,sans-Serif" font-size="10.00">espconn_connect</text>
</g>
<!-- Node6 -->
<g id="node2" class="node"><title>Node6</title>
<g id="a_node2"><a xlink:href="mqtt_8c.html#ad34b681cb2f7473d8fc786c7ed468db5" target="_top" xlink:title="Begin connect to MQTT broker. ">
<polygon fill="white" stroke="black" points="251,-19.5 251,-38.5 337,-38.5 337,-19.5 251,-19.5"/>
<text text-anchor="middle" x="294" y="-26.5" font-family="Helvetica,sans-Serif" font-size="10.00">MQTT_Connect</text>
</a>
</g>
</g>
<!-- Node5&#45;&gt;Node6 -->
<g id="edge1" class="edge"><title>Node5&#45;&gt;Node6</title>
<path fill="none" stroke="midnightblue" d="M103.251,-29C148.104,-29 210.162,-29 250.921,-29"/>
<polygon fill="midnightblue" stroke="midnightblue" points="103.101,-25.5001 93.1013,-29 103.101,-32.5001 103.101,-25.5001"/>
</g>
<!-- Node9 -->
<g id="node5" class="node"><title>Node9</title>
<g id="a_node5"><a xlink:href="mqtt_8c.html#a0952c450d8a1ecdb3d4887ddb485fb6a" target="_top" xlink:title="mqtt_dns_found">
<polygon fill="white" stroke="black" points="129,-0.5 129,-19.5 215,-19.5 215,-0.5 129,-0.5"/>
<text text-anchor="middle" x="172" y="-7.5" font-family="Helvetica,sans-Serif" font-size="10.00">mqtt_dns_found</text>
</a>
</g>
</g>
<!-- Node5&#45;&gt;Node9 -->
<g id="edge4" class="edge"><title>Node5&#45;&gt;Node9</title>
<path fill="none" stroke="midnightblue" d="M103.147,-20.4389C111.773,-19.1118 120.559,-17.7601 128.824,-16.4887"/>
<polygon fill="midnightblue" stroke="midnightblue" points="102.487,-16.9991 93.136,-21.9791 103.552,-23.9177 102.487,-16.9991"/>
</g>
<!-- Node7 -->
<g id="node3" class="node"><title>Node7</title>
<g id="a_node3"><a xlink:href="mqtt_8c.html#a9d88fa6efb9163d4dbf9dc750a8d4ed0" target="_top" xlink:title="MQTT_Task">
<polygon fill="white" stroke="black" points="373,-19.5 373,-38.5 444,-38.5 444,-19.5 373,-19.5"/>
<text text-anchor="middle" x="408.5" y="-26.5" font-family="Helvetica,sans-Serif" font-size="10.00">MQTT_Task</text>
</a>
</g>
</g>
<!-- Node6&#45;&gt;Node7 -->
<g id="edge2" class="edge"><title>Node6&#45;&gt;Node7</title>
<path fill="none" stroke="midnightblue" d="M347.258,-29C355.908,-29 364.684,-29 372.764,-29"/>
<polygon fill="midnightblue" stroke="midnightblue" points="347.211,-25.5001 337.211,-29 347.211,-32.5001 347.211,-25.5001"/>
</g>
<!-- Node8 -->
<g id="node4" class="node"><title>Node8</title>
<g id="a_node4"><a xlink:href="mqtt_8c.html#a25cb7ac079d1d119250dac075c45acf1" target="_top" xlink:title="MQTT initialization mqtt client function. ">
<polygon fill="white" stroke="black" points="480,-19.5 480,-38.5 569,-38.5 569,-19.5 480,-19.5"/>
<text text-anchor="middle" x="524.5" y="-26.5" font-family="Helvetica,sans-Serif" font-size="10.00">MQTT_InitClient</text>
</a>
</g>
</g>
<!-- Node7&#45;&gt;Node8 -->
<g id="edge3" class="edge"><title>Node7&#45;&gt;Node8</title>
<path fill="none" stroke="midnightblue" d="M454.085,-29C462.541,-29 471.381,-29 479.809,-29"/>
<polygon fill="midnightblue" stroke="midnightblue" points="454.013,-25.5001 444.013,-29 454.013,-32.5001 454.013,-25.5001"/>
</g>
<!-- Node9&#45;&gt;Node6 -->
<g id="edge5" class="edge"><title>Node9&#45;&gt;Node6</title>
<path fill="none" stroke="midnightblue" d="M225.447,-18.3041C233.879,-19.6392 242.514,-21.0064 250.67,-22.2978"/>
<polygon fill="midnightblue" stroke="midnightblue" points="225.732,-14.8057 215.308,-16.6987 224.637,-21.7196 225.732,-14.8057"/>
</g>
</g>
</svg>
