<?xml version="1.0" encoding="UTF-8" standalone="no"?>
<!DOCTYPE svg PUBLIC "-//W3C//DTD SVG 1.1//EN"
 "http://www.w3.org/Graphics/SVG/1.1/DTD/svg11.dtd">
<!-- Generated by graphviz version 2.38.0 (20140413.2041)
 -->
<!-- Title: esp&#45;open&#45;lwip/include/lwip/app/ping.h Pages: 1 -->
<svg width="468pt" height="767pt"
 viewBox="0.00 0.00 467.62 767.00" xmlns="http://www.w3.org/2000/svg" xmlns:xlink="http://www.w3.org/1999/xlink">
<g id="graph0" class="graph" transform="scale(1 1) rotate(0) translate(4 763)">
<title>esp&#45;open&#45;lwip/include/lwip/app/ping.h</title>
<polygon fill="white" stroke="none" points="-4,4 -4,-763 463.618,-763 463.618,4 -4,4"/>
<!-- Node0 -->
<g id="node1" class="node"><title>Node0</title>
<polygon fill="#bfbfbf" stroke="black" points="27.1177,-728.5 27.1177,-758.5 137.118,-758.5 137.118,-728.5 27.1177,-728.5"/>
<text text-anchor="start" x="35.1177" y="-746.5" font-family="Helvetica,sans-Serif" font-size="10.00">esp&#45;open&#45;lwip/include</text>
<text text-anchor="middle" x="82.1177" y="-735.5" font-family="Helvetica,sans-Serif" font-size="10.00">/lwip/app/ping.h</text>
</g>
<!-- Node1 -->
<g id="node2" class="node"><title>Node1</title>
<g id="a_node2"><a xlink:href="esp-open-lwip_2include_2lwip_2ip__addr_8h.html" target="_top" xlink:title="lwip/ip_addr.h">
<polygon fill="white" stroke="black" points="13.6177,-560.5 13.6177,-579.5 90.6177,-579.5 90.6177,-560.5 13.6177,-560.5"/>
<text text-anchor="middle" x="52.1177" y="-567.5" font-family="Helvetica,sans-Serif" font-size="10.00">lwip/ip_addr.h</text>
</a>
</g>
</g>
<!-- Node0&#45;&gt;Node1 -->
<g id="edge1" class="edge"><title>Node0&#45;&gt;Node1</title>
<path fill="none" stroke="midnightblue" d="M78.813,-728.396C76.5028,-718.293 73.4298,-704.348 71.1177,-692 64.3571,-655.897 58.0695,-613.426 54.6946,-589.617"/>
<polygon fill="midnightblue" stroke="midnightblue" points="58.1362,-588.956 53.2825,-579.538 51.2039,-589.927 58.1362,-588.956"/>
</g>
<!-- Node17 -->
<g id="node18" class="node"><title>Node17</title>
<g id="a_node18"><a xlink:href="icmp_8h.html" target="_top" xlink:title="lwip/icmp.h">
<polygon fill="white" stroke="black" points="80.1177,-672.5 80.1177,-691.5 146.118,-691.5 146.118,-672.5 80.1177,-672.5"/>
<text text-anchor="middle" x="113.118" y="-679.5" font-family="Helvetica,sans-Serif" font-size="10.00">lwip/icmp.h</text>
</a>
</g>
</g>
<!-- Node0&#45;&gt;Node17 -->
<g id="edge22" class="edge"><title>Node0&#45;&gt;Node17</title>
<path fill="none" stroke="midnightblue" d="M89.4642,-728.399C93.7831,-720.11 99.2827,-709.554 103.892,-700.708"/>
<polygon fill="midnightblue" stroke="midnightblue" points="107.09,-702.144 108.607,-691.658 100.882,-698.909 107.09,-702.144"/>
</g>
<!-- Node2 -->
<g id="node3" class="node"><title>Node2</title>
<g id="a_node3"><a xlink:href="opt_8h.html" target="_top" xlink:title="lwip/opt.h">
<polygon fill="white" stroke="black" points="86.6177,-448.5 86.6177,-467.5 145.618,-467.5 145.618,-448.5 86.6177,-448.5"/>
<text text-anchor="middle" x="116.118" y="-455.5" font-family="Helvetica,sans-Serif" font-size="10.00">lwip/opt.h</text>
</a>
</g>
</g>
<!-- Node1&#45;&gt;Node2 -->
<g id="edge2" class="edge"><title>Node1&#45;&gt;Node2</title>
<path fill="none" stroke="midnightblue" d="M56.0374,-560.392C61.8894,-547.76 73.4738,-523.58 85.1177,-504 90.8153,-494.419 97.8134,-484.153 103.718,-475.849"/>
<polygon fill="midnightblue" stroke="midnightblue" points="106.562,-477.89 109.582,-467.734 100.888,-473.789 106.562,-477.89"/>
</g>
<!-- Node16 -->
<g id="node17" class="node"><title>Node16</title>
<g id="a_node17"><a xlink:href="def_8h.html" target="_top" xlink:title="lwip/def.h">
<polygon fill="white" stroke="black" points="127.618,-504.5 127.618,-523.5 186.618,-523.5 186.618,-504.5 127.618,-504.5"/>
<text text-anchor="middle" x="157.118" y="-511.5" font-family="Helvetica,sans-Serif" font-size="10.00">lwip/def.h</text>
</a>
</g>
</g>
<!-- Node1&#45;&gt;Node16 -->
<g id="edge19" class="edge"><title>Node1&#45;&gt;Node16</title>
<path fill="none" stroke="midnightblue" d="M68.9877,-560.324C85.8264,-551.664 111.924,-538.242 131.356,-528.249"/>
<polygon fill="midnightblue" stroke="midnightblue" points="132.997,-531.341 140.289,-523.655 129.796,-525.116 132.997,-531.341"/>
</g>
<!-- Node3 -->
<g id="node4" class="node"><title>Node3</title>
<g id="a_node4"><a xlink:href="lwipopts_8h.html" target="_top" xlink:title="lwipopts.h">
<polygon fill="white" stroke="black" points="77.6177,-336.5 77.6177,-355.5 138.618,-355.5 138.618,-336.5 77.6177,-336.5"/>
<text text-anchor="middle" x="108.118" y="-343.5" font-family="Helvetica,sans-Serif" font-size="10.00">lwipopts.h</text>
</a>
</g>
</g>
<!-- Node2&#45;&gt;Node3 -->
<g id="edge3" class="edge"><title>Node2&#45;&gt;Node3</title>
<path fill="none" stroke="midnightblue" d="M112.774,-448.197C109.563,-439.24 104.941,-424.883 103.118,-412 100.934,-396.572 102.545,-378.939 104.501,-365.935"/>
<polygon fill="midnightblue" stroke="midnightblue" points="107.986,-366.317 106.222,-355.87 101.086,-365.137 107.986,-366.317"/>
</g>
<!-- Node4 -->
<g id="node5" class="node"><title>Node4</title>
<g id="a_node5"><a xlink:href="esp-open-sdk_2esp-open-lwip_2include_2lwip_2debug_8h.html" target="_top" xlink:title="lwip/debug.h">
<polygon fill="white" stroke="black" points="112.618,-392.5 112.618,-411.5 183.618,-411.5 183.618,-392.5 112.618,-392.5"/>
<text text-anchor="middle" x="148.118" y="-399.5" font-family="Helvetica,sans-Serif" font-size="10.00">lwip/debug.h</text>
</a>
</g>
</g>
<!-- Node2&#45;&gt;Node4 -->
<g id="edge4" class="edge"><title>Node2&#45;&gt;Node4</title>
<path fill="none" stroke="midnightblue" d="M121.402,-448.083C125.829,-440.613 132.281,-429.724 137.736,-420.52"/>
<polygon fill="midnightblue" stroke="midnightblue" points="140.845,-422.138 142.932,-411.751 134.823,-418.57 140.845,-422.138"/>
</g>
<!-- Node4&#45;&gt;Node3 -->
<g id="edge5" class="edge"><title>Node4&#45;&gt;Node3</title>
<path fill="none" stroke="midnightblue" d="M141.512,-392.083C135.862,-384.455 127.573,-373.264 120.666,-363.941"/>
<polygon fill="midnightblue" stroke="midnightblue" points="123.365,-361.703 114.6,-355.751 117.74,-365.87 123.365,-361.703"/>
</g>
<!-- Node5 -->
<g id="node6" class="node"><title>Node5</title>
<g id="a_node6"><a xlink:href="arch_8h.html" target="_top" xlink:title="lwip/arch.h">
<polygon fill="white" stroke="black" points="180.118,-336.5 180.118,-355.5 244.118,-355.5 244.118,-336.5 180.118,-336.5"/>
<text text-anchor="middle" x="212.118" y="-343.5" font-family="Helvetica,sans-Serif" font-size="10.00">lwip/arch.h</text>
</a>
</g>
</g>
<!-- Node4&#45;&gt;Node5 -->
<g id="edge6" class="edge"><title>Node4&#45;&gt;Node5</title>
<path fill="none" stroke="midnightblue" d="M158.4,-392.324C167.954,-384.263 182.397,-372.077 193.902,-362.369"/>
<polygon fill="midnightblue" stroke="midnightblue" points="196.262,-364.958 201.648,-355.834 191.748,-359.608 196.262,-364.958"/>
</g>
<!-- Node6 -->
<g id="node7" class="node"><title>Node6</title>
<g id="a_node7"><a xlink:href="cc_8h.html" target="_top" xlink:title="arch/cc.h">
<polygon fill="white" stroke="black" points="183.618,-280.5 183.618,-299.5 240.618,-299.5 240.618,-280.5 183.618,-280.5"/>
<text text-anchor="middle" x="212.118" y="-287.5" font-family="Helvetica,sans-Serif" font-size="10.00">arch/cc.h</text>
</a>
</g>
</g>
<!-- Node5&#45;&gt;Node6 -->
<g id="edge7" class="edge"><title>Node5&#45;&gt;Node6</title>
<path fill="none" stroke="midnightblue" d="M212.118,-336.083C212.118,-329.006 212.118,-318.861 212.118,-309.986"/>
<polygon fill="midnightblue" stroke="midnightblue" points="215.618,-309.751 212.118,-299.751 208.618,-309.751 215.618,-309.751"/>
</g>
<!-- Node7 -->
<g id="node8" class="node"><title>Node7</title>
<g id="a_node8"><a xlink:href="c__types_8h.html" target="_top" xlink:title="c_types.h">
<polygon fill="white" stroke="black" points="144.618,-56.5 144.618,-75.5 203.618,-75.5 203.618,-56.5 144.618,-56.5"/>
<text text-anchor="middle" x="174.118" y="-63.5" font-family="Helvetica,sans-Serif" font-size="10.00">c_types.h</text>
</a>
</g>
</g>
<!-- Node6&#45;&gt;Node7 -->
<g id="edge8" class="edge"><title>Node6&#45;&gt;Node7</title>
<path fill="none" stroke="midnightblue" d="M210.628,-280.297C205.037,-247.633 185.221,-131.866 177.363,-85.9573"/>
<polygon fill="midnightblue" stroke="midnightblue" points="180.775,-85.1499 175.638,-75.8837 173.876,-86.3309 180.775,-85.1499"/>
</g>
<!-- Node10 -->
<g id="node11" class="node"><title>Node10</title>
<g id="a_node11"><a xlink:href="ets__sys_8h.html" target="_top" xlink:title="ets_sys.h">
<polygon fill="white" stroke="black" points="214.618,-112.5 214.618,-131.5 273.618,-131.5 273.618,-112.5 214.618,-112.5"/>
<text text-anchor="middle" x="244.118" y="-119.5" font-family="Helvetica,sans-Serif" font-size="10.00">ets_sys.h</text>
</a>
</g>
</g>
<!-- Node6&#45;&gt;Node10 -->
<g id="edge11" class="edge"><title>Node6&#45;&gt;Node10</title>
<path fill="none" stroke="midnightblue" d="M213.089,-280.422C215.424,-260.522 221.853,-209.725 231.118,-168 233.103,-159.058 235.858,-149.273 238.321,-141.118"/>
<polygon fill="midnightblue" stroke="midnightblue" points="241.671,-142.133 241.302,-131.544 234.987,-140.052 241.671,-142.133"/>
</g>
<!-- Node12 -->
<g id="node13" class="node"><title>Node12</title>
<g id="a_node13"><a xlink:href="osapi_8h.html" target="_top" xlink:title="osapi.h">
<polygon fill="white" stroke="black" points="282.118,-224.5 282.118,-243.5 330.118,-243.5 330.118,-224.5 282.118,-224.5"/>
<text text-anchor="middle" x="306.118" y="-231.5" font-family="Helvetica,sans-Serif" font-size="10.00">osapi.h</text>
</a>
</g>
</g>
<!-- Node6&#45;&gt;Node12 -->
<g id="edge14" class="edge"><title>Node6&#45;&gt;Node12</title>
<path fill="none" stroke="midnightblue" d="M227.22,-280.324C242.021,-271.822 264.812,-258.729 282.1,-248.797"/>
<polygon fill="midnightblue" stroke="midnightblue" points="284.125,-251.671 291.052,-243.655 280.638,-245.601 284.125,-251.671"/>
</g>
<!-- Node8 -->
<g id="node9" class="node"><title>Node8</title>
<polygon fill="white" stroke="#bfbfbf" points="114.618,-0.5 114.618,-19.5 163.618,-19.5 163.618,-0.5 114.618,-0.5"/>
<text text-anchor="middle" x="139.118" y="-7.5" font-family="Helvetica,sans-Serif" font-size="10.00">stdint.h</text>
</g>
<!-- Node7&#45;&gt;Node8 -->
<g id="edge9" class="edge"><title>Node7&#45;&gt;Node8</title>
<path fill="none" stroke="midnightblue" d="M168.338,-56.083C163.445,-48.5341 156.29,-37.4948 150.285,-28.2298"/>
<polygon fill="midnightblue" stroke="midnightblue" points="153.166,-26.239 144.79,-19.7511 147.292,-30.0463 153.166,-26.239"/>
</g>
<!-- Node9 -->
<g id="node10" class="node"><title>Node9</title>
<polygon fill="white" stroke="#bfbfbf" points="182.118,-0.5 182.118,-19.5 238.118,-19.5 238.118,-0.5 182.118,-0.5"/>
<text text-anchor="middle" x="210.118" y="-7.5" font-family="Helvetica,sans-Serif" font-size="10.00">stdbool.h</text>
</g>
<!-- Node7&#45;&gt;Node9 -->
<g id="edge10" class="edge"><title>Node7&#45;&gt;Node9</title>
<path fill="none" stroke="midnightblue" d="M180.062,-56.083C185.095,-48.5341 192.454,-37.4948 198.631,-28.2298"/>
<polygon fill="midnightblue" stroke="midnightblue" points="201.649,-30.0131 204.284,-19.7511 195.824,-26.1301 201.649,-30.0131"/>
</g>
<!-- Node10&#45;&gt;Node7 -->
<g id="edge12" class="edge"><title>Node10&#45;&gt;Node7</title>
<path fill="none" stroke="midnightblue" d="M232.871,-112.324C222.32,-104.185 206.317,-91.8395 193.675,-82.0874"/>
<polygon fill="midnightblue" stroke="midnightblue" points="195.625,-79.1707 185.569,-75.8339 191.349,-84.7132 195.625,-79.1707"/>
</g>
<!-- Node11 -->
<g id="node12" class="node"><title>Node11</title>
<g id="a_node12"><a xlink:href="eagle__soc_8h.html" target="_top" xlink:title="eagle_soc.h">
<polygon fill="white" stroke="black" points="221.618,-56.5 221.618,-75.5 290.618,-75.5 290.618,-56.5 221.618,-56.5"/>
<text text-anchor="middle" x="256.118" y="-63.5" font-family="Helvetica,sans-Serif" font-size="10.00">eagle_soc.h</text>
</a>
</g>
</g>
<!-- Node10&#45;&gt;Node11 -->
<g id="edge13" class="edge"><title>Node10&#45;&gt;Node11</title>
<path fill="none" stroke="midnightblue" d="M246.099,-112.083C247.689,-104.927 249.976,-94.6353 251.964,-85.6911"/>
<polygon fill="midnightblue" stroke="midnightblue" points="255.42,-86.2722 254.173,-75.7511 248.587,-84.7537 255.42,-86.2722"/>
</g>
<!-- Node13 -->
<g id="node14" class="node"><title>Node13</title>
<polygon fill="white" stroke="#bfbfbf" points="317.618,-168.5 317.618,-187.5 366.618,-187.5 366.618,-168.5 317.618,-168.5"/>
<text text-anchor="middle" x="342.118" y="-175.5" font-family="Helvetica,sans-Serif" font-size="10.00">string.h</text>
</g>
<!-- Node12&#45;&gt;Node13 -->
<g id="edge15" class="edge"><title>Node12&#45;&gt;Node13</title>
<path fill="none" stroke="midnightblue" d="M312.062,-224.083C317.095,-216.534 324.454,-205.495 330.631,-196.23"/>
<polygon fill="midnightblue" stroke="midnightblue" points="333.649,-198.013 336.284,-187.751 327.824,-194.13 333.649,-198.013"/>
</g>
<!-- Node14 -->
<g id="node15" class="node"><title>Node14</title>
<g id="a_node15"><a xlink:href="os__type_8h.html" target="_top" xlink:title="os_type.h">
<polygon fill="white" stroke="black" points="240.618,-168.5 240.618,-187.5 299.618,-187.5 299.618,-168.5 240.618,-168.5"/>
<text text-anchor="middle" x="270.118" y="-175.5" font-family="Helvetica,sans-Serif" font-size="10.00">os_type.h</text>
</a>
</g>
</g>
<!-- Node12&#45;&gt;Node14 -->
<g id="edge16" class="edge"><title>Node12&#45;&gt;Node14</title>
<path fill="none" stroke="midnightblue" d="M300.173,-224.083C295.14,-216.534 287.781,-205.495 281.604,-196.23"/>
<polygon fill="midnightblue" stroke="midnightblue" points="284.411,-194.13 275.952,-187.751 278.587,-198.013 284.411,-194.13"/>
</g>
<!-- Node15 -->
<g id="node16" class="node"><title>Node15</title>
<polygon fill="white" stroke="#bfbfbf" points="384.618,-168.5 384.618,-187.5 459.618,-187.5 459.618,-168.5 384.618,-168.5"/>
<text text-anchor="middle" x="422.118" y="-175.5" font-family="Helvetica,sans-Serif" font-size="10.00">user_config.h</text>
</g>
<!-- Node12&#45;&gt;Node15 -->
<g id="edge18" class="edge"><title>Node12&#45;&gt;Node15</title>
<path fill="none" stroke="midnightblue" d="M324.498,-224.444C343.334,-215.675 372.849,-201.935 394.497,-191.858"/>
<polygon fill="midnightblue" stroke="midnightblue" points="396.234,-194.91 403.823,-187.516 393.28,-188.564 396.234,-194.91"/>
</g>
<!-- Node14&#45;&gt;Node10 -->
<g id="edge17" class="edge"><title>Node14&#45;&gt;Node10</title>
<path fill="none" stroke="midnightblue" d="M265.824,-168.083C262.265,-160.691 257.095,-149.953 252.693,-140.811"/>
<polygon fill="midnightblue" stroke="midnightblue" points="255.823,-139.243 248.331,-131.751 249.516,-142.279 255.823,-139.243"/>
</g>
<!-- Node16&#45;&gt;Node2 -->
<g id="edge21" class="edge"><title>Node16&#45;&gt;Node2</title>
<path fill="none" stroke="midnightblue" d="M150.347,-504.083C144.556,-496.455 136.059,-485.264 128.98,-475.941"/>
<polygon fill="midnightblue" stroke="midnightblue" points="131.597,-473.599 122.762,-467.751 126.022,-477.832 131.597,-473.599"/>
</g>
<!-- Node16&#45;&gt;Node5 -->
<g id="edge20" class="edge"><title>Node16&#45;&gt;Node5</title>
<path fill="none" stroke="midnightblue" d="M160.217,-504.388C166.45,-486.993 180.87,-446.395 192.118,-412 197.221,-396.394 202.681,-378.563 206.605,-365.529"/>
<polygon fill="midnightblue" stroke="midnightblue" points="209.984,-366.446 209.498,-355.862 203.278,-364.439 209.984,-366.446"/>
</g>
<!-- Node17&#45;&gt;Node1 -->
<g id="edge29" class="edge"><title>Node17&#45;&gt;Node1</title>
<path fill="none" stroke="midnightblue" d="M108.331,-672.368C98.3534,-654.376 75.1592,-612.55 61.8925,-588.627"/>
<polygon fill="midnightblue" stroke="midnightblue" points="64.7926,-586.639 56.882,-579.591 58.6709,-590.034 64.7926,-586.639"/>
</g>
<!-- Node17&#45;&gt;Node2 -->
<g id="edge23" class="edge"><title>Node17&#45;&gt;Node2</title>
<path fill="none" stroke="midnightblue" d="M93.9681,-672.382C57.0686,-654.438 -18.3454,-610.505 4.11766,-560 21.8216,-520.195 63.823,-489.468 91.0601,-472.832"/>
<polygon fill="midnightblue" stroke="midnightblue" points="93.1837,-475.643 100.014,-467.544 89.6241,-469.616 93.1837,-475.643"/>
</g>
<!-- Node18 -->
<g id="node19" class="node"><title>Node18</title>
<g id="a_node19"><a xlink:href="pbuf_8h.html" target="_top" xlink:title="lwip/pbuf.h">
<polygon fill="white" stroke="black" points="223.118,-560.5 223.118,-579.5 287.118,-579.5 287.118,-560.5 223.118,-560.5"/>
<text text-anchor="middle" x="255.118" y="-567.5" font-family="Helvetica,sans-Serif" font-size="10.00">lwip/pbuf.h</text>
</a>
</g>
</g>
<!-- Node17&#45;&gt;Node18 -->
<g id="edge24" class="edge"><title>Node17&#45;&gt;Node18</title>
<path fill="none" stroke="midnightblue" d="M133.377,-672.369C150.931,-664.36 176.516,-651.379 196.118,-636 214.019,-621.955 231.107,-602.185 242.242,-588.144"/>
<polygon fill="midnightblue" stroke="midnightblue" points="245.298,-589.913 248.648,-579.862 239.761,-585.63 245.298,-589.913"/>
</g>
<!-- Node20 -->
<g id="node21" class="node"><title>Node20</title>
<g id="a_node21"><a xlink:href="netif_8h.html" target="_top" xlink:title="lwip/netif.h">
<polygon fill="white" stroke="black" points="123.118,-616.5 123.118,-635.5 187.118,-635.5 187.118,-616.5 123.118,-616.5"/>
<text text-anchor="middle" x="155.118" y="-623.5" font-family="Helvetica,sans-Serif" font-size="10.00">lwip/netif.h</text>
</a>
</g>
</g>
<!-- Node17&#45;&gt;Node20 -->
<g id="edge30" class="edge"><title>Node17&#45;&gt;Node20</title>
<path fill="none" stroke="midnightblue" d="M120.053,-672.083C126.047,-664.377 134.87,-653.033 142.165,-643.653"/>
<polygon fill="midnightblue" stroke="midnightblue" points="144.935,-645.793 148.311,-635.751 139.409,-641.496 144.935,-645.793"/>
</g>
<!-- Node18&#45;&gt;Node2 -->
<g id="edge25" class="edge"><title>Node18&#45;&gt;Node2</title>
<path fill="none" stroke="midnightblue" d="M248.461,-560.206C238.093,-546.908 216.999,-521.392 195.118,-504 179.359,-491.475 159.696,-480.261 143.929,-472.161"/>
<polygon fill="midnightblue" stroke="midnightblue" points="145.194,-468.88 134.685,-467.535 142.062,-475.14 145.194,-468.88"/>
</g>
<!-- Node19 -->
<g id="node20" class="node"><title>Node19</title>
<g id="a_node20"><a xlink:href="err_8h.html" target="_top" xlink:title="lwip/err.h">
<polygon fill="white" stroke="black" points="243.118,-504.5 243.118,-523.5 299.118,-523.5 299.118,-504.5 243.118,-504.5"/>
<text text-anchor="middle" x="271.118" y="-511.5" font-family="Helvetica,sans-Serif" font-size="10.00">lwip/err.h</text>
</a>
</g>
</g>
<!-- Node18&#45;&gt;Node19 -->
<g id="edge26" class="edge"><title>Node18&#45;&gt;Node19</title>
<path fill="none" stroke="midnightblue" d="M257.76,-560.083C259.903,-552.849 262.997,-542.409 265.667,-533.397"/>
<polygon fill="midnightblue" stroke="midnightblue" points="269.04,-534.333 268.525,-523.751 262.328,-532.345 269.04,-534.333"/>
</g>
<!-- Node19&#45;&gt;Node2 -->
<g id="edge27" class="edge"><title>Node19&#45;&gt;Node2</title>
<path fill="none" stroke="midnightblue" d="M246.557,-504.444C220.595,-495.399 179.45,-481.064 150.321,-470.916"/>
<polygon fill="midnightblue" stroke="midnightblue" points="151.158,-467.501 140.563,-467.516 148.855,-474.112 151.158,-467.501"/>
</g>
<!-- Node19&#45;&gt;Node5 -->
<g id="edge28" class="edge"><title>Node19&#45;&gt;Node5</title>
<path fill="none" stroke="midnightblue" d="M267.946,-504.075C258.618,-477.832 231.149,-400.545 218.557,-365.117"/>
<polygon fill="midnightblue" stroke="midnightblue" points="221.81,-363.818 215.163,-355.568 215.214,-366.163 221.81,-363.818"/>
</g>
<!-- Node20&#45;&gt;Node1 -->
<g id="edge33" class="edge"><title>Node20&#45;&gt;Node1</title>
<path fill="none" stroke="midnightblue" d="M138.569,-616.324C122.126,-607.703 96.6828,-594.364 77.6493,-584.386"/>
<polygon fill="midnightblue" stroke="midnightblue" points="79.1071,-581.198 68.6253,-579.655 75.8568,-587.398 79.1071,-581.198"/>
</g>
<!-- Node20&#45;&gt;Node2 -->
<g id="edge31" class="edge"><title>Node20&#45;&gt;Node2</title>
<path fill="none" stroke="midnightblue" d="M150.868,-616.356C142.697,-599.231 124.994,-559.57 118.118,-524 115.134,-508.568 114.804,-490.697 115.124,-477.604"/>
<polygon fill="midnightblue" stroke="midnightblue" points="118.625,-477.639 115.522,-467.509 111.631,-477.364 118.625,-477.639"/>
</g>
<!-- Node20&#45;&gt;Node16 -->
<g id="edge34" class="edge"><title>Node20&#45;&gt;Node16</title>
<path fill="none" stroke="midnightblue" d="M155.275,-616.368C155.597,-598.617 156.342,-557.666 156.78,-533.597"/>
<polygon fill="midnightblue" stroke="midnightblue" points="160.279,-533.653 156.961,-523.591 153.28,-533.526 160.279,-533.653"/>
</g>
<!-- Node20&#45;&gt;Node18 -->
<g id="edge35" class="edge"><title>Node20&#45;&gt;Node18</title>
<path fill="none" stroke="midnightblue" d="M171.184,-616.324C187.075,-607.743 211.625,-594.486 230.076,-584.522"/>
<polygon fill="midnightblue" stroke="midnightblue" points="231.955,-587.486 239.091,-579.655 228.629,-581.326 231.955,-587.486"/>
</g>
<!-- Node20&#45;&gt;Node19 -->
<g id="edge32" class="edge"><title>Node20&#45;&gt;Node19</title>
<path fill="none" stroke="midnightblue" d="M162.328,-616.165C173.043,-603.25 194.065,-578.719 214.118,-560 225.608,-549.274 239.425,-538.322 250.578,-529.909"/>
<polygon fill="midnightblue" stroke="midnightblue" points="252.916,-532.532 258.856,-523.758 248.741,-526.913 252.916,-532.532"/>
</g>
</g>
</svg>
