<?xml version="1.0" encoding="UTF-8" standalone="no"?>
<!DOCTYPE svg PUBLIC "-//W3C//DTD SVG 1.1//EN"
 "http://www.w3.org/Graphics/SVG/1.1/DTD/svg11.dtd">
<!-- Generated by graphviz version 2.38.0 (20140413.2041)
 -->
<!-- Title: espconn_list_delete Pages: 1 -->
<svg width="403pt" height="142pt"
 viewBox="0.00 0.00 403.00 142.00" xmlns="http://www.w3.org/2000/svg" xmlns:xlink="http://www.w3.org/1999/xlink">
<g id="graph0" class="graph" transform="scale(1 1) rotate(0) translate(4 138)">
<title>espconn_list_delete</title>
<polygon fill="white" stroke="none" points="-4,4 -4,-138 399,-138 399,4 -4,4"/>
<!-- Node113 -->
<g id="node1" class="node"><title>Node113</title>
<polygon fill="#bfbfbf" stroke="black" points="0,-57.5 0,-76.5 103,-76.5 103,-57.5 0,-57.5"/>
<text text-anchor="middle" x="51.5" y="-64.5" font-family="Helvetica,sans-Serif" font-size="10.00">espconn_list_delete</text>
</g>
<!-- Node114 -->
<g id="node2" class="node"><title>Node114</title>
<g id="a_node2"><a xlink:href="espconn__tcp_8c.html#a658001fa320693943742066d8870a1b9" target="_top" xlink:title="espconn_Task">
<polygon fill="white" stroke="black" points="162.5,-114.5 162.5,-133.5 242.5,-133.5 242.5,-114.5 162.5,-114.5"/>
<text text-anchor="middle" x="202.5" y="-121.5" font-family="Helvetica,sans-Serif" font-size="10.00">espconn_Task</text>
</a>
</g>
</g>
<!-- Node113&#45;&gt;Node114 -->
<g id="edge1" class="edge"><title>Node113&#45;&gt;Node114</title>
<path fill="none" stroke="midnightblue" d="M81.6798,-80.8539C98.2842,-88.4744 119.583,-97.8126 139,-105 148.147,-108.386 158.201,-111.641 167.522,-114.471"/>
<polygon fill="midnightblue" stroke="midnightblue" points="83.0401,-77.6267 72.4956,-76.5947 80.0951,-83.9771 83.0401,-77.6267"/>
</g>
<!-- Node116 -->
<g id="node4" class="node"><title>Node116</title>
<g id="a_node4"><a xlink:href="espconn__tcp_8c.html#afe66d17cd3c4b5ca9959287aec4db38b" target="_top" xlink:title="espconn_tcp_client">
<polygon fill="white" stroke="black" points="152,-76.5 152,-95.5 253,-95.5 253,-76.5 152,-76.5"/>
<text text-anchor="middle" x="202.5" y="-83.5" font-family="Helvetica,sans-Serif" font-size="10.00">espconn_tcp_client</text>
</a>
</g>
</g>
<!-- Node113&#45;&gt;Node116 -->
<g id="edge3" class="edge"><title>Node113&#45;&gt;Node116</title>
<path fill="none" stroke="midnightblue" d="M113.462,-74.7736C126.241,-76.4032 139.571,-78.103 151.877,-79.6722"/>
<polygon fill="midnightblue" stroke="midnightblue" points="113.723,-71.2787 103.361,-73.4856 112.838,-78.2225 113.723,-71.2787"/>
</g>
<!-- Node118 -->
<g id="node6" class="node"><title>Node118</title>
<g id="a_node6"><a xlink:href="espconn__tcp_8c.html#a2dfab8a89f8e7a7e017b2b977654d2aa" target="_top" xlink:title="espconn_tcp_delete">
<polygon fill="white" stroke="black" points="150.5,-38.5 150.5,-57.5 254.5,-57.5 254.5,-38.5 150.5,-38.5"/>
<text text-anchor="middle" x="202.5" y="-45.5" font-family="Helvetica,sans-Serif" font-size="10.00">espconn_tcp_delete</text>
</a>
</g>
</g>
<!-- Node113&#45;&gt;Node118 -->
<g id="edge5" class="edge"><title>Node113&#45;&gt;Node118</title>
<path fill="none" stroke="midnightblue" d="M113.498,-59.2217C125.744,-57.6601 138.494,-56.0344 150.363,-54.5209"/>
<polygon fill="midnightblue" stroke="midnightblue" points="112.838,-55.7775 103.361,-60.5144 113.723,-62.7213 112.838,-55.7775"/>
</g>
<!-- Node120 -->
<g id="node8" class="node"><title>Node120</title>
<g id="a_node8"><a xlink:href="espconn__udp_8c.html#abf938536b11968226465f95681afc0f3" target="_top" xlink:title="espconn_udp_disconnect">
<polygon fill="white" stroke="black" points="139,-0.5 139,-19.5 266,-19.5 266,-0.5 139,-0.5"/>
<text text-anchor="middle" x="202.5" y="-7.5" font-family="Helvetica,sans-Serif" font-size="10.00">espconn_udp_disconnect</text>
</a>
</g>
</g>
<!-- Node113&#45;&gt;Node120 -->
<g id="edge7" class="edge"><title>Node113&#45;&gt;Node120</title>
<path fill="none" stroke="midnightblue" d="M81.6798,-53.1461C98.2842,-45.5256 119.583,-36.1874 139,-29 148.147,-25.6142 158.201,-22.359 167.522,-19.5288"/>
<polygon fill="midnightblue" stroke="midnightblue" points="80.0951,-50.0229 72.4956,-57.4053 83.0401,-56.3733 80.0951,-50.0229"/>
</g>
<!-- Node115 -->
<g id="node3" class="node"><title>Node115</title>
<g id="a_node3"><a xlink:href="espconn__tcp_8c.html#a86c6dca784d0ca2d55af8567a7968406" target="_top" xlink:title="espconn_init">
<polygon fill="white" stroke="black" points="313,-114.5 313,-133.5 384,-133.5 384,-114.5 313,-114.5"/>
<text text-anchor="middle" x="348.5" y="-121.5" font-family="Helvetica,sans-Serif" font-size="10.00">espconn_init</text>
</a>
</g>
</g>
<!-- Node114&#45;&gt;Node115 -->
<g id="edge2" class="edge"><title>Node114&#45;&gt;Node115</title>
<path fill="none" stroke="midnightblue" d="M252.864,-124C272.521,-124 294.685,-124 312.619,-124"/>
<polygon fill="midnightblue" stroke="midnightblue" points="252.849,-120.5 242.849,-124 252.849,-127.5 252.849,-120.5"/>
</g>
<!-- Node117 -->
<g id="node5" class="node"><title>Node117</title>
<g id="a_node5"><a xlink:href="sdk_2include_2espconn_8h.html#a949cd618667cea85b1b99d14b90dce7d" target="_top" xlink:title="espconn_connect">
<polygon fill="white" stroke="black" points="302,-76.5 302,-95.5 395,-95.5 395,-76.5 302,-76.5"/>
<text text-anchor="middle" x="348.5" y="-83.5" font-family="Helvetica,sans-Serif" font-size="10.00">espconn_connect</text>
</a>
</g>
</g>
<!-- Node116&#45;&gt;Node117 -->
<g id="edge4" class="edge"><title>Node116&#45;&gt;Node117</title>
<path fill="none" stroke="midnightblue" d="M263.225,-86C276.089,-86 289.491,-86 301.724,-86"/>
<polygon fill="midnightblue" stroke="midnightblue" points="263.057,-82.5001 253.057,-86 263.057,-89.5001 263.057,-82.5001"/>
</g>
<!-- Node119 -->
<g id="node7" class="node"><title>Node119</title>
<g id="a_node7"><a xlink:href="sdk_2include_2espconn_8h.html#a63d15dda14dfcd8da278c31f048910c3" target="_top" xlink:title="espconn_delete">
<polygon fill="white" stroke="black" points="306,-19.5 306,-38.5 391,-38.5 391,-19.5 306,-19.5"/>
<text text-anchor="middle" x="348.5" y="-26.5" font-family="Helvetica,sans-Serif" font-size="10.00">espconn_delete</text>
</a>
</g>
</g>
<!-- Node118&#45;&gt;Node119 -->
<g id="edge6" class="edge"><title>Node118&#45;&gt;Node119</title>
<path fill="none" stroke="midnightblue" d="M264.686,-39.9269C278.611,-38.0895 293.088,-36.1793 305.97,-34.4797"/>
<polygon fill="midnightblue" stroke="midnightblue" points="264.131,-36.4697 254.674,-41.2478 265.046,-43.4095 264.131,-36.4697"/>
</g>
<!-- Node120&#45;&gt;Node119 -->
<g id="edge8" class="edge"><title>Node120&#45;&gt;Node119</title>
<path fill="none" stroke="midnightblue" d="M276.298,-19.6052C286.376,-20.935 296.433,-22.262 305.68,-23.4821"/>
<polygon fill="midnightblue" stroke="midnightblue" points="276.614,-16.1167 266.242,-18.2784 275.698,-23.0565 276.614,-16.1167"/>
</g>
</g>
</svg>
