<?xml version="1.0" encoding="UTF-8" standalone="no"?>
<!DOCTYPE svg PUBLIC "-//W3C//DTD SVG 1.1//EN"
 "http://www.w3.org/Graphics/SVG/1.1/DTD/svg11.dtd">
<!-- Generated by graphviz version 2.38.0 (20140413.2041)
 -->
<!-- Title: esp&#45;open&#45;lwip/include/netif/driver/spi_register.h Pages: 1 -->
<svg width="317pt" height="173pt"
 viewBox="0.00 0.00 316.50 173.00" xmlns="http://www.w3.org/2000/svg" xmlns:xlink="http://www.w3.org/1999/xlink">
<g id="graph0" class="graph" transform="scale(1 1) rotate(0) translate(4 169)">
<title>esp&#45;open&#45;lwip/include/netif/driver/spi_register.h</title>
<polygon fill="white" stroke="none" points="-4,4 -4,-169 312.5,-169 312.5,4 -4,4"/>
<!-- Node1 -->
<g id="node1" class="node"><title>Node1</title>
<polygon fill="#bfbfbf" stroke="black" points="97.5,-134.5 97.5,-164.5 224.5,-164.5 224.5,-134.5 97.5,-134.5"/>
<text text-anchor="start" x="105.5" y="-152.5" font-family="Helvetica,sans-Serif" font-size="10.00">esp&#45;open&#45;lwip/include</text>
<text text-anchor="middle" x="161" y="-141.5" font-family="Helvetica,sans-Serif" font-size="10.00">/netif/driver/spi_register.h</text>
</g>
<!-- Node2 -->
<g id="node2" class="node"><title>Node2</title>
<g id="a_node2"><a xlink:href="esp-open-sdk_2esp-open-lwip_2include_2netif_2driver_2spi_8h.html" target="_top" xlink:title="esp&#45;open&#45;lwip/include\l/netif/driver/spi.h">
<polygon fill="white" stroke="black" points="106,-67.5 106,-97.5 216,-97.5 216,-67.5 106,-67.5"/>
<text text-anchor="start" x="114" y="-85.5" font-family="Helvetica,sans-Serif" font-size="10.00">esp&#45;open&#45;lwip/include</text>
<text text-anchor="middle" x="161" y="-74.5" font-family="Helvetica,sans-Serif" font-size="10.00">/netif/driver/spi.h</text>
</a>
</g>
</g>
<!-- Node1&#45;&gt;Node2 -->
<g id="edge1" class="edge"><title>Node1&#45;&gt;Node2</title>
<path fill="none" stroke="midnightblue" d="M161,-124.108C161,-115.154 161,-105.323 161,-97.5765"/>
<polygon fill="midnightblue" stroke="midnightblue" points="157.5,-124.396 161,-134.396 164.5,-124.396 157.5,-124.396"/>
</g>
<!-- Node3 -->
<g id="node3" class="node"><title>Node3</title>
<g id="a_node3"><a xlink:href="ext__spi__flash_8c.html" target="_top" xlink:title="driver/ext_spi_flash.c">
<polygon fill="white" stroke="black" points="0,-6 0,-25 110,-25 110,-6 0,-6"/>
<text text-anchor="middle" x="55" y="-13" font-family="Helvetica,sans-Serif" font-size="10.00">driver/ext_spi_flash.c</text>
</a>
</g>
</g>
<!-- Node2&#45;&gt;Node3 -->
<g id="edge2" class="edge"><title>Node2&#45;&gt;Node3</title>
<path fill="none" stroke="midnightblue" d="M129.43,-62.1411C109.284,-49.7874 84.1704,-34.3875 68.873,-25.007"/>
<polygon fill="midnightblue" stroke="midnightblue" points="127.645,-65.1521 138,-67.396 131.304,-59.1847 127.645,-65.1521"/>
</g>
<!-- Node4 -->
<g id="node4" class="node"><title>Node4</title>
<g id="a_node4"><a xlink:href="spi_8c.html" target="_top" xlink:title="driver/spi.c">
<polygon fill="white" stroke="black" points="128.5,-6 128.5,-25 193.5,-25 193.5,-6 128.5,-6"/>
<text text-anchor="middle" x="161" y="-13" font-family="Helvetica,sans-Serif" font-size="10.00">driver/spi.c</text>
</a>
</g>
</g>
<!-- Node2&#45;&gt;Node4 -->
<g id="edge3" class="edge"><title>Node2&#45;&gt;Node4</title>
<path fill="none" stroke="midnightblue" d="M161,-57.2495C161,-46.017 161,-33.3767 161,-25.1945"/>
<polygon fill="midnightblue" stroke="midnightblue" points="157.5,-57.3959 161,-67.396 164.5,-57.396 157.5,-57.3959"/>
</g>
<!-- Node5 -->
<g id="node5" class="node"><title>Node5</title>
<g id="a_node5"><a xlink:href="espenc_8c.html" target="_top" xlink:title="esp&#45;open&#45;lwip/lwip\l/netif/espenc.c">
<polygon fill="white" stroke="black" points="211.5,-0.5 211.5,-30.5 308.5,-30.5 308.5,-0.5 211.5,-0.5"/>
<text text-anchor="start" x="219.5" y="-18.5" font-family="Helvetica,sans-Serif" font-size="10.00">esp&#45;open&#45;lwip/lwip</text>
<text text-anchor="middle" x="260" y="-7.5" font-family="Helvetica,sans-Serif" font-size="10.00">/netif/espenc.c</text>
</a>
</g>
</g>
<!-- Node2&#45;&gt;Node5 -->
<g id="edge4" class="edge"><title>Node2&#45;&gt;Node5</title>
<path fill="none" stroke="midnightblue" d="M191.106,-61.7337C206.425,-51.6755 224.688,-39.6847 238.56,-30.5765"/>
<polygon fill="midnightblue" stroke="midnightblue" points="188.92,-58.9818 182.482,-67.396 192.762,-64.8333 188.92,-58.9818"/>
</g>
</g>
</svg>
