<?xml version="1.0" encoding="UTF-8" standalone="no"?>
<!DOCTYPE svg PUBLIC "-//W3C//DTD SVG 1.1//EN"
 "http://www.w3.org/Graphics/SVG/1.1/DTD/svg11.dtd">
<!-- Generated by graphviz version 2.38.0 (20140413.2041)
 -->
<!-- Title: espconn_data_sent Pages: 1 -->
<svg width="589pt" height="66pt"
 viewBox="0.00 0.00 589.00 66.00" xmlns="http://www.w3.org/2000/svg" xmlns:xlink="http://www.w3.org/1999/xlink">
<g id="graph0" class="graph" transform="scale(1 1) rotate(0) translate(4 62)">
<title>espconn_data_sent</title>
<polygon fill="white" stroke="none" points="-4,4 -4,-62 585,-62 585,4 -4,4"/>
<!-- Node18 -->
<g id="node1" class="node"><title>Node18</title>
<polygon fill="#bfbfbf" stroke="black" points="0,-19.5 0,-38.5 101,-38.5 101,-19.5 0,-19.5"/>
<text text-anchor="middle" x="50.5" y="-26.5" font-family="Helvetica,sans-Serif" font-size="10.00">espconn_data_sent</text>
</g>
<!-- Node19 -->
<g id="node2" class="node"><title>Node19</title>
<g id="a_node2"><a xlink:href="espconn__udp_8c.html#a01fa0df74518311e3eb03f2d955f9f26" target="_top" xlink:title="espconn_udp_sendto">
<polygon fill="white" stroke="black" points="137,-38.5 137,-57.5 246,-57.5 246,-38.5 137,-38.5"/>
<text text-anchor="middle" x="191.5" y="-45.5" font-family="Helvetica,sans-Serif" font-size="10.00">espconn_udp_sendto</text>
</a>
</g>
</g>
<!-- Node18&#45;&gt;Node19 -->
<g id="edge1" class="edge"><title>Node18&#45;&gt;Node19</title>
<path fill="none" stroke="midnightblue" d="M111.421,-30.4979C128.847,-32.6701 147.091,-35.5298 161.66,-38.4625"/>
<polygon fill="midnightblue" stroke="midnightblue" points="111.631,-26.9985 101.29,-29.3031 110.811,-33.9503 111.631,-26.9985"/>
</g>
<!-- Node23 -->
<g id="node6" class="node"><title>Node23</title>
<g id="a_node6"><a xlink:href="espconn__udp_8c.html#ac963eff73234530596d6c02e6bb05e09" target="_top" xlink:title="espconn_udp_sent">
<polygon fill="white" stroke="black" points="142.5,-0.5 142.5,-19.5 240.5,-19.5 240.5,-0.5 142.5,-0.5"/>
<text text-anchor="middle" x="191.5" y="-7.5" font-family="Helvetica,sans-Serif" font-size="10.00">espconn_udp_sent</text>
</a>
</g>
</g>
<!-- Node18&#45;&gt;Node23 -->
<g id="edge7" class="edge"><title>Node18&#45;&gt;Node23</title>
<path fill="none" stroke="midnightblue" d="M90.4355,-17.5451C106.53,-14.6516 125.354,-11.9694 142.307,-10.1278"/>
<polygon fill="midnightblue" stroke="midnightblue" points="89.4719,-14.1655 80.3009,-19.4705 90.7784,-21.0425 89.4719,-14.1655"/>
</g>
<!-- Node19&#45;&gt;Node18 -->
<g id="edge6" class="edge"><title>Node19&#45;&gt;Node18</title>
<path fill="none" stroke="midnightblue" d="M126.708,-46.0099C110.463,-43.9051 93.8006,-41.2484 80.3009,-38.5295"/>
<polygon fill="midnightblue" stroke="midnightblue" points="126.383,-49.4963 136.736,-47.2447 127.238,-42.5487 126.383,-49.4963"/>
</g>
<!-- Node20 -->
<g id="node3" class="node"><title>Node20</title>
<g id="a_node3"><a xlink:href="sdk_2include_2espconn_8h.html#a62219be0ac7e8dd6085915d5c0777476" target="_top" xlink:title="espconn_sendto">
<polygon fill="white" stroke="black" points="282,-38.5 282,-57.5 370,-57.5 370,-38.5 282,-38.5"/>
<text text-anchor="middle" x="326" y="-45.5" font-family="Helvetica,sans-Serif" font-size="10.00">espconn_sendto</text>
</a>
</g>
</g>
<!-- Node19&#45;&gt;Node20 -->
<g id="edge2" class="edge"><title>Node19&#45;&gt;Node20</title>
<path fill="none" stroke="midnightblue" d="M256.17,-48C264.879,-48 273.647,-48 281.871,-48"/>
<polygon fill="midnightblue" stroke="midnightblue" points="256.011,-44.5001 246.011,-48 256.011,-51.5001 256.011,-44.5001"/>
</g>
<!-- Node21 -->
<g id="node4" class="node"><title>Node21</title>
<g id="a_node4"><a xlink:href="captdns_8c.html#a59c9a28ea1f015cff27b9d0c252d15f3" target="_top" xlink:title="captdnsRecv">
<polygon fill="white" stroke="black" points="406,-38.5 406,-57.5 480,-57.5 480,-38.5 406,-38.5"/>
<text text-anchor="middle" x="443" y="-45.5" font-family="Helvetica,sans-Serif" font-size="10.00">captdnsRecv</text>
</a>
</g>
</g>
<!-- Node20&#45;&gt;Node21 -->
<g id="edge3" class="edge"><title>Node20&#45;&gt;Node21</title>
<path fill="none" stroke="midnightblue" d="M380.198,-48C388.85,-48 397.633,-48 405.756,-48"/>
<polygon fill="midnightblue" stroke="midnightblue" points="380.149,-44.5001 370.149,-48 380.149,-51.5001 380.149,-44.5001"/>
</g>
<!-- Node22 -->
<g id="node5" class="node"><title>Node22</title>
<g id="a_node5"><a xlink:href="captdns_8h.html#a88f42288d1b84cab204cca9e7f7aa9a3" target="_top" xlink:title="captdnsInit">
<polygon fill="white" stroke="black" points="516,-38.5 516,-57.5 581,-57.5 581,-38.5 516,-38.5"/>
<text text-anchor="middle" x="548.5" y="-45.5" font-family="Helvetica,sans-Serif" font-size="10.00">captdnsInit</text>
</a>
</g>
</g>
<!-- Node21&#45;&gt;Node22 -->
<g id="edge4" class="edge"><title>Node21&#45;&gt;Node22</title>
<path fill="none" stroke="midnightblue" d="M490.252,-41.284C498.948,-41.1761 507.854,-41.325 515.972,-41.7306"/>
<polygon fill="midnightblue" stroke="midnightblue" points="490.111,-37.7863 480.199,-41.5285 490.281,-44.7842 490.111,-37.7863"/>
</g>
<!-- Node22&#45;&gt;Node21 -->
<g id="edge5" class="edge"><title>Node22&#45;&gt;Node21</title>
<path fill="none" stroke="midnightblue" d="M505.86,-54.6342C497.363,-54.8311 488.488,-54.7769 480.199,-54.4715"/>
<polygon fill="midnightblue" stroke="midnightblue" points="506.105,-58.1277 515.972,-54.2694 505.853,-51.1323 506.105,-58.1277"/>
</g>
<!-- Node23&#45;&gt;Node18 -->
<g id="edge9" class="edge"><title>Node23&#45;&gt;Node18</title>
<path fill="none" stroke="midnightblue" d="M151.8,-21.4124C136.157,-24.2316 117.904,-26.8534 101.29,-28.6969"/>
<polygon fill="midnightblue" stroke="midnightblue" points="152.49,-24.8441 161.66,-19.5375 151.182,-17.9674 152.49,-24.8441"/>
</g>
<!-- Node24 -->
<g id="node7" class="node"><title>Node24</title>
<g id="a_node7"><a xlink:href="sdk_2include_2espconn_8h.html#a579e4f1c62f7c33be01398931617e988" target="_top" xlink:title="espconn_sent">
<polygon fill="white" stroke="black" points="287.5,-0.5 287.5,-19.5 364.5,-19.5 364.5,-0.5 287.5,-0.5"/>
<text text-anchor="middle" x="326" y="-7.5" font-family="Helvetica,sans-Serif" font-size="10.00">espconn_sent</text>
</a>
</g>
</g>
<!-- Node23&#45;&gt;Node24 -->
<g id="edge8" class="edge"><title>Node23&#45;&gt;Node24</title>
<path fill="none" stroke="midnightblue" d="M250.974,-10C263.341,-10 276.074,-10 287.418,-10"/>
<polygon fill="midnightblue" stroke="midnightblue" points="250.71,-6.5001 240.71,-10 250.71,-13.5001 250.71,-6.5001"/>
</g>
</g>
</svg>
