<?xml version="1.0" encoding="UTF-8" standalone="no"?>
<!DOCTYPE svg PUBLIC "-//W3C//DTD SVG 1.1//EN"
 "http://www.w3.org/Graphics/SVG/1.1/DTD/svg11.dtd">
<!-- Generated by graphviz version 2.38.0 (20140413.2041)
 -->
<!-- Title: espconn_get_connection_info Pages: 1 -->
<svg width="561pt" height="104pt"
 viewBox="0.00 0.00 561.00 104.00" xmlns="http://www.w3.org/2000/svg" xmlns:xlink="http://www.w3.org/1999/xlink">
<g id="graph0" class="graph" transform="scale(1 1) rotate(0) translate(4 100)">
<title>espconn_get_connection_info</title>
<polygon fill="white" stroke="none" points="-4,4 -4,-100 557,-100 557,4 -4,4"/>
<!-- Node185 -->
<g id="node1" class="node"><title>Node185</title>
<polygon fill="#bfbfbf" stroke="black" points="0,-38.5 0,-57.5 146,-57.5 146,-38.5 0,-38.5"/>
<text text-anchor="middle" x="73" y="-45.5" font-family="Helvetica,sans-Serif" font-size="10.00">espconn_get_connection_info</text>
</g>
<!-- Node186 -->
<g id="node2" class="node"><title>Node186</title>
<g id="a_node2"><a xlink:href="captdns_8c.html#a59c9a28ea1f015cff27b9d0c252d15f3" target="_top" xlink:title="captdnsRecv">
<polygon fill="white" stroke="black" points="198.5,-76.5 198.5,-95.5 272.5,-95.5 272.5,-76.5 198.5,-76.5"/>
<text text-anchor="middle" x="235.5" y="-83.5" font-family="Helvetica,sans-Serif" font-size="10.00">captdnsRecv</text>
</a>
</g>
</g>
<!-- Node185&#45;&gt;Node186 -->
<g id="edge1" class="edge"><title>Node185&#45;&gt;Node186</title>
<path fill="none" stroke="midnightblue" d="M124.496,-59.9554C148.478,-65.6335 176.591,-72.2894 198.393,-77.4513"/>
<polygon fill="midnightblue" stroke="midnightblue" points="125.038,-56.4871 114.501,-57.589 123.426,-63.2988 125.038,-56.4871"/>
</g>
<!-- Node188 -->
<g id="node4" class="node"><title>Node188</title>
<g id="a_node4"><a xlink:href="espconn__tcp_8c.html#acf0ecfba42ea8bcc55836b8dccabe511" target="_top" xlink:title="espconn_tcp_accept">
<polygon fill="white" stroke="black" points="182,-38.5 182,-57.5 289,-57.5 289,-38.5 182,-38.5"/>
<text text-anchor="middle" x="235.5" y="-45.5" font-family="Helvetica,sans-Serif" font-size="10.00">espconn_tcp_accept</text>
</a>
</g>
</g>
<!-- Node185&#45;&gt;Node188 -->
<g id="edge4" class="edge"><title>Node185&#45;&gt;Node188</title>
<path fill="none" stroke="midnightblue" d="M156.41,-48C165.057,-48 173.671,-48 181.849,-48"/>
<polygon fill="midnightblue" stroke="midnightblue" points="156.268,-44.5001 146.268,-48 156.268,-51.5001 156.268,-44.5001"/>
</g>
<!-- Node191 -->
<g id="node7" class="node"><title>Node191</title>
<g id="a_node7"><a xlink:href="espconn__tcp_8c.html#a2dfab8a89f8e7a7e017b2b977654d2aa" target="_top" xlink:title="espconn_tcp_delete">
<polygon fill="white" stroke="black" points="183.5,-0.5 183.5,-19.5 287.5,-19.5 287.5,-0.5 183.5,-0.5"/>
<text text-anchor="middle" x="235.5" y="-7.5" font-family="Helvetica,sans-Serif" font-size="10.00">espconn_tcp_delete</text>
</a>
</g>
</g>
<!-- Node185&#45;&gt;Node191 -->
<g id="edge7" class="edge"><title>Node185&#45;&gt;Node191</title>
<path fill="none" stroke="midnightblue" d="M124.245,-36.1039C146.805,-30.7626 173.061,-24.5463 194.29,-19.5201"/>
<polygon fill="midnightblue" stroke="midnightblue" points="123.426,-32.7012 114.501,-38.411 125.038,-39.5129 123.426,-32.7012"/>
</g>
<!-- Node187 -->
<g id="node3" class="node"><title>Node187</title>
<g id="a_node3"><a xlink:href="captdns_8h.html#a88f42288d1b84cab204cca9e7f7aa9a3" target="_top" xlink:title="captdnsInit">
<polygon fill="white" stroke="black" points="344.5,-76.5 344.5,-95.5 409.5,-95.5 409.5,-76.5 344.5,-76.5"/>
<text text-anchor="middle" x="377" y="-83.5" font-family="Helvetica,sans-Serif" font-size="10.00">captdnsInit</text>
</a>
</g>
</g>
<!-- Node186&#45;&gt;Node187 -->
<g id="edge2" class="edge"><title>Node186&#45;&gt;Node187</title>
<path fill="none" stroke="midnightblue" d="M282.986,-79.5954C303.072,-78.9775 326.066,-79.1886 344.167,-80.2289"/>
<polygon fill="midnightblue" stroke="midnightblue" points="282.643,-76.106 272.788,-79.9942 282.917,-83.1007 282.643,-76.106"/>
</g>
<!-- Node187&#45;&gt;Node186 -->
<g id="edge3" class="edge"><title>Node187&#45;&gt;Node186</title>
<path fill="none" stroke="midnightblue" d="M334.027,-92.2498C314.516,-92.99 291.538,-92.9087 272.788,-92.0058"/>
<polygon fill="midnightblue" stroke="midnightblue" points="334.343,-95.7389 344.167,-91.7711 334.013,-88.7467 334.343,-95.7389"/>
</g>
<!-- Node189 -->
<g id="node5" class="node"><title>Node189</title>
<g id="a_node5"><a xlink:href="espconn__tcp_8c.html#ace125fa28aced169fba2b955f1ce76fb" target="_top" xlink:title="espconn_tcp_server">
<polygon fill="white" stroke="black" points="325,-38.5 325,-57.5 429,-57.5 429,-38.5 325,-38.5"/>
<text text-anchor="middle" x="377" y="-45.5" font-family="Helvetica,sans-Serif" font-size="10.00">espconn_tcp_server</text>
</a>
</g>
</g>
<!-- Node188&#45;&gt;Node189 -->
<g id="edge5" class="edge"><title>Node188&#45;&gt;Node189</title>
<path fill="none" stroke="midnightblue" d="M299.409,-48C307.828,-48 316.382,-48 324.572,-48"/>
<polygon fill="midnightblue" stroke="midnightblue" points="299.239,-44.5001 289.239,-48 299.239,-51.5001 299.239,-44.5001"/>
</g>
<!-- Node190 -->
<g id="node6" class="node"><title>Node190</title>
<g id="a_node6"><a xlink:href="sdk_2include_2espconn_8h.html#abd44446e3fc4a61fdef77d473deb678b" target="_top" xlink:title="espconn_accept">
<polygon fill="white" stroke="black" points="465,-38.5 465,-57.5 553,-57.5 553,-38.5 465,-38.5"/>
<text text-anchor="middle" x="509" y="-45.5" font-family="Helvetica,sans-Serif" font-size="10.00">espconn_accept</text>
</a>
</g>
</g>
<!-- Node189&#45;&gt;Node190 -->
<g id="edge6" class="edge"><title>Node189&#45;&gt;Node190</title>
<path fill="none" stroke="midnightblue" d="M439.086,-48C447.74,-48 456.487,-48 464.71,-48"/>
<polygon fill="midnightblue" stroke="midnightblue" points="439.006,-44.5001 429.006,-48 439.006,-51.5001 439.006,-44.5001"/>
</g>
<!-- Node192 -->
<g id="node8" class="node"><title>Node192</title>
<g id="a_node8"><a xlink:href="sdk_2include_2espconn_8h.html#a63d15dda14dfcd8da278c31f048910c3" target="_top" xlink:title="espconn_delete">
<polygon fill="white" stroke="black" points="334.5,-0.5 334.5,-19.5 419.5,-19.5 419.5,-0.5 334.5,-0.5"/>
<text text-anchor="middle" x="377" y="-7.5" font-family="Helvetica,sans-Serif" font-size="10.00">espconn_delete</text>
</a>
</g>
</g>
<!-- Node191&#45;&gt;Node192 -->
<g id="edge8" class="edge"><title>Node191&#45;&gt;Node192</title>
<path fill="none" stroke="midnightblue" d="M297.909,-10C310.26,-10 322.964,-10 334.443,-10"/>
<polygon fill="midnightblue" stroke="midnightblue" points="297.653,-6.5001 287.653,-10 297.652,-13.5001 297.653,-6.5001"/>
</g>
</g>
</svg>
