<?xml version="1.0" encoding="UTF-8" standalone="no"?>
<!DOCTYPE svg PUBLIC "-//W3C//DTD SVG 1.1//EN"
 "http://www.w3.org/Graphics/SVG/1.1/DTD/svg11.dtd">
<!-- Generated by graphviz version 2.38.0 (20140413.2041)
 -->
<!-- Title: esp&#45;open&#45;lwip/lwip/app/espconn_mdns.c Pages: 1 -->
<svg width="342pt" height="599pt"
 viewBox="0.00 0.00 342.00 599.00" xmlns="http://www.w3.org/2000/svg" xmlns:xlink="http://www.w3.org/1999/xlink">
<g id="graph0" class="graph" transform="scale(1 1) rotate(0) translate(4 595)">
<title>esp&#45;open&#45;lwip/lwip/app/espconn_mdns.c</title>
<polygon fill="white" stroke="none" points="-4,4 -4,-595 338,-595 338,4 -4,4"/>
<!-- Node0 -->
<g id="node1" class="node"><title>Node0</title>
<polygon fill="#bfbfbf" stroke="black" points="1.5,-560.5 1.5,-590.5 114.5,-590.5 114.5,-560.5 1.5,-560.5"/>
<text text-anchor="start" x="9.5" y="-578.5" font-family="Helvetica,sans-Serif" font-size="10.00">esp&#45;open&#45;lwip/lwip</text>
<text text-anchor="middle" x="58" y="-567.5" font-family="Helvetica,sans-Serif" font-size="10.00">/app/espconn_mdns.c</text>
</g>
<!-- Node1 -->
<g id="node2" class="node"><title>Node1</title>
<g id="a_node2"><a xlink:href="ets__sys_8h.html" target="_top" xlink:title="ets_sys.h">
<polygon fill="white" stroke="black" points="71.5,-112.5 71.5,-131.5 130.5,-131.5 130.5,-112.5 71.5,-112.5"/>
<text text-anchor="middle" x="101" y="-119.5" font-family="Helvetica,sans-Serif" font-size="10.00">ets_sys.h</text>
</a>
</g>
</g>
<!-- Node0&#45;&gt;Node1 -->
<g id="edge1" class="edge"><title>Node0&#45;&gt;Node1</title>
<path fill="none" stroke="midnightblue" d="M45.4149,-560.339C28.3566,-539.63 0,-499.165 0,-459 0,-459 0,-459 0,-233 0,-202.902 0.153528,-191.467 19,-168 30.7048,-153.426 48.4624,-142.86 64.4632,-135.644"/>
<polygon fill="midnightblue" stroke="midnightblue" points="66.2683,-138.682 74.129,-131.579 63.5542,-132.23 66.2683,-138.682"/>
</g>
<!-- Node6 -->
<g id="node7" class="node"><title>Node6</title>
<g id="a_node7"><a xlink:href="os__type_8h.html" target="_top" xlink:title="os_type.h">
<polygon fill="white" stroke="black" points="28.5,-168.5 28.5,-187.5 87.5,-187.5 87.5,-168.5 28.5,-168.5"/>
<text text-anchor="middle" x="58" y="-175.5" font-family="Helvetica,sans-Serif" font-size="10.00">os_type.h</text>
</a>
</g>
</g>
<!-- Node0&#45;&gt;Node6 -->
<g id="edge6" class="edge"><title>Node0&#45;&gt;Node6</title>
<path fill="none" stroke="midnightblue" d="M58,-560.275C58,-538.476 58,-495.495 58,-459 58,-459 58,-459 58,-289 58,-256.948 58,-219.643 58,-197.749"/>
<polygon fill="midnightblue" stroke="midnightblue" points="61.5001,-197.558 58,-187.558 54.5001,-197.558 61.5001,-197.558"/>
</g>
<!-- Node7 -->
<g id="node8" class="node"><title>Node7</title>
<g id="a_node8"><a xlink:href="mdns_8h.html" target="_top" xlink:title="lwip/mdns.h">
<polygon fill="white" stroke="black" points="88.5,-504.5 88.5,-523.5 157.5,-523.5 157.5,-504.5 88.5,-504.5"/>
<text text-anchor="middle" x="123" y="-511.5" font-family="Helvetica,sans-Serif" font-size="10.00">lwip/mdns.h</text>
</a>
</g>
</g>
<!-- Node0&#45;&gt;Node7 -->
<g id="edge8" class="edge"><title>Node0&#45;&gt;Node7</title>
<path fill="none" stroke="midnightblue" d="M73.4041,-560.399C83.2389,-551.397 95.9935,-539.721 106.105,-530.465"/>
<polygon fill="midnightblue" stroke="midnightblue" points="108.529,-532.992 113.542,-523.658 103.802,-527.828 108.529,-532.992"/>
</g>
<!-- Node2 -->
<g id="node3" class="node"><title>Node2</title>
<g id="a_node3"><a xlink:href="c__types_8h.html" target="_top" xlink:title="c_types.h">
<polygon fill="white" stroke="black" points="240.5,-56.5 240.5,-75.5 299.5,-75.5 299.5,-56.5 240.5,-56.5"/>
<text text-anchor="middle" x="270" y="-63.5" font-family="Helvetica,sans-Serif" font-size="10.00">c_types.h</text>
</a>
</g>
</g>
<!-- Node1&#45;&gt;Node2 -->
<g id="edge2" class="edge"><title>Node1&#45;&gt;Node2</title>
<path fill="none" stroke="midnightblue" d="M127.779,-112.444C156.333,-103.32 201.733,-88.8133 233.537,-78.6509"/>
<polygon fill="midnightblue" stroke="midnightblue" points="234.886,-81.8941 243.347,-75.5164 232.756,-75.2262 234.886,-81.8941"/>
</g>
<!-- Node5 -->
<g id="node6" class="node"><title>Node5</title>
<g id="a_node6"><a xlink:href="eagle__soc_8h.html" target="_top" xlink:title="eagle_soc.h">
<polygon fill="white" stroke="black" points="66.5,-56.5 66.5,-75.5 135.5,-75.5 135.5,-56.5 66.5,-56.5"/>
<text text-anchor="middle" x="101" y="-63.5" font-family="Helvetica,sans-Serif" font-size="10.00">eagle_soc.h</text>
</a>
</g>
</g>
<!-- Node1&#45;&gt;Node5 -->
<g id="edge5" class="edge"><title>Node1&#45;&gt;Node5</title>
<path fill="none" stroke="midnightblue" d="M101,-112.083C101,-105.006 101,-94.8611 101,-85.9865"/>
<polygon fill="midnightblue" stroke="midnightblue" points="104.5,-85.751 101,-75.7511 97.5001,-85.7511 104.5,-85.751"/>
</g>
<!-- Node3 -->
<g id="node4" class="node"><title>Node3</title>
<polygon fill="white" stroke="#bfbfbf" points="210.5,-0.5 210.5,-19.5 259.5,-19.5 259.5,-0.5 210.5,-0.5"/>
<text text-anchor="middle" x="235" y="-7.5" font-family="Helvetica,sans-Serif" font-size="10.00">stdint.h</text>
</g>
<!-- Node2&#45;&gt;Node3 -->
<g id="edge3" class="edge"><title>Node2&#45;&gt;Node3</title>
<path fill="none" stroke="midnightblue" d="M264.22,-56.083C259.328,-48.5341 252.173,-37.4948 246.167,-28.2298"/>
<polygon fill="midnightblue" stroke="midnightblue" points="249.048,-26.239 240.672,-19.7511 243.174,-30.0463 249.048,-26.239"/>
</g>
<!-- Node4 -->
<g id="node5" class="node"><title>Node4</title>
<polygon fill="white" stroke="#bfbfbf" points="278,-0.5 278,-19.5 334,-19.5 334,-0.5 278,-0.5"/>
<text text-anchor="middle" x="306" y="-7.5" font-family="Helvetica,sans-Serif" font-size="10.00">stdbool.h</text>
</g>
<!-- Node2&#45;&gt;Node4 -->
<g id="edge4" class="edge"><title>Node2&#45;&gt;Node4</title>
<path fill="none" stroke="midnightblue" d="M275.945,-56.083C280.977,-48.5341 288.337,-37.4948 294.513,-28.2298"/>
<polygon fill="midnightblue" stroke="midnightblue" points="297.531,-30.0131 300.166,-19.7511 291.707,-26.1301 297.531,-30.0131"/>
</g>
<!-- Node6&#45;&gt;Node1 -->
<g id="edge7" class="edge"><title>Node6&#45;&gt;Node1</title>
<path fill="none" stroke="midnightblue" d="M65.1006,-168.083C71.237,-160.377 80.2697,-149.033 87.7392,-139.653"/>
<polygon fill="midnightblue" stroke="midnightblue" points="90.5402,-141.754 94.0315,-131.751 85.0643,-137.394 90.5402,-141.754"/>
</g>
<!-- Node8 -->
<g id="node9" class="node"><title>Node8</title>
<g id="a_node9"><a xlink:href="opt_8h.html" target="_top" xlink:title="lwip/opt.h">
<polygon fill="white" stroke="black" points="97.5,-448.5 97.5,-467.5 156.5,-467.5 156.5,-448.5 97.5,-448.5"/>
<text text-anchor="middle" x="127" y="-455.5" font-family="Helvetica,sans-Serif" font-size="10.00">lwip/opt.h</text>
</a>
</g>
</g>
<!-- Node7&#45;&gt;Node8 -->
<g id="edge9" class="edge"><title>Node7&#45;&gt;Node8</title>
<path fill="none" stroke="midnightblue" d="M123.661,-504.083C124.185,-497.006 124.936,-486.861 125.594,-477.986"/>
<polygon fill="midnightblue" stroke="midnightblue" points="129.103,-477.982 126.352,-467.751 122.123,-477.465 129.103,-477.982"/>
</g>
<!-- Node9 -->
<g id="node10" class="node"><title>Node9</title>
<g id="a_node10"><a xlink:href="lwipopts_8h.html" target="_top" xlink:title="lwipopts.h">
<polygon fill="white" stroke="black" points="128.5,-336.5 128.5,-355.5 189.5,-355.5 189.5,-336.5 128.5,-336.5"/>
<text text-anchor="middle" x="159" y="-343.5" font-family="Helvetica,sans-Serif" font-size="10.00">lwipopts.h</text>
</a>
</g>
</g>
<!-- Node8&#45;&gt;Node9 -->
<g id="edge10" class="edge"><title>Node8&#45;&gt;Node9</title>
<path fill="none" stroke="midnightblue" d="M129.511,-448.368C134.698,-430.537 146.696,-389.295 153.685,-365.272"/>
<polygon fill="midnightblue" stroke="midnightblue" points="157.068,-366.171 156.501,-355.591 150.347,-364.216 157.068,-366.171"/>
</g>
<!-- Node10 -->
<g id="node11" class="node"><title>Node10</title>
<g id="a_node11"><a xlink:href="esp-open-sdk_2esp-open-lwip_2include_2lwip_2debug_8h.html" target="_top" xlink:title="lwip/debug.h">
<polygon fill="white" stroke="black" points="155.5,-392.5 155.5,-411.5 226.5,-411.5 226.5,-392.5 155.5,-392.5"/>
<text text-anchor="middle" x="191" y="-399.5" font-family="Helvetica,sans-Serif" font-size="10.00">lwip/debug.h</text>
</a>
</g>
</g>
<!-- Node8&#45;&gt;Node10 -->
<g id="edge11" class="edge"><title>Node8&#45;&gt;Node10</title>
<path fill="none" stroke="midnightblue" d="M137.283,-448.324C146.836,-440.263 161.28,-428.077 172.784,-418.369"/>
<polygon fill="midnightblue" stroke="midnightblue" points="175.144,-420.958 180.53,-411.834 170.63,-415.608 175.144,-420.958"/>
</g>
<!-- Node10&#45;&gt;Node9 -->
<g id="edge12" class="edge"><title>Node10&#45;&gt;Node9</title>
<path fill="none" stroke="midnightblue" d="M185.716,-392.083C181.289,-384.613 174.837,-373.724 169.382,-364.52"/>
<polygon fill="midnightblue" stroke="midnightblue" points="172.295,-362.57 164.186,-355.751 166.273,-366.138 172.295,-362.57"/>
</g>
<!-- Node11 -->
<g id="node12" class="node"><title>Node11</title>
<g id="a_node12"><a xlink:href="arch_8h.html" target="_top" xlink:title="lwip/arch.h">
<polygon fill="white" stroke="black" points="208,-336.5 208,-355.5 272,-355.5 272,-336.5 208,-336.5"/>
<text text-anchor="middle" x="240" y="-343.5" font-family="Helvetica,sans-Serif" font-size="10.00">lwip/arch.h</text>
</a>
</g>
</g>
<!-- Node10&#45;&gt;Node11 -->
<g id="edge13" class="edge"><title>Node10&#45;&gt;Node11</title>
<path fill="none" stroke="midnightblue" d="M199.091,-392.083C206.155,-384.298 216.588,-372.801 225.149,-363.367"/>
<polygon fill="midnightblue" stroke="midnightblue" points="227.931,-365.509 232.059,-355.751 222.747,-360.805 227.931,-365.509"/>
</g>
<!-- Node12 -->
<g id="node13" class="node"><title>Node12</title>
<g id="a_node13"><a xlink:href="cc_8h.html" target="_top" xlink:title="arch/cc.h">
<polygon fill="white" stroke="black" points="211.5,-280.5 211.5,-299.5 268.5,-299.5 268.5,-280.5 211.5,-280.5"/>
<text text-anchor="middle" x="240" y="-287.5" font-family="Helvetica,sans-Serif" font-size="10.00">arch/cc.h</text>
</a>
</g>
</g>
<!-- Node11&#45;&gt;Node12 -->
<g id="edge14" class="edge"><title>Node11&#45;&gt;Node12</title>
<path fill="none" stroke="midnightblue" d="M240,-336.083C240,-329.006 240,-318.861 240,-309.986"/>
<polygon fill="midnightblue" stroke="midnightblue" points="243.5,-309.751 240,-299.751 236.5,-309.751 243.5,-309.751"/>
</g>
<!-- Node12&#45;&gt;Node1 -->
<g id="edge16" class="edge"><title>Node12&#45;&gt;Node1</title>
<path fill="none" stroke="midnightblue" d="M244.925,-280.329C256.385,-258.878 281.958,-202.566 256,-168 242.117,-149.513 181.729,-136.162 140.559,-129.007"/>
<polygon fill="midnightblue" stroke="midnightblue" points="140.988,-125.53 130.545,-127.322 139.826,-132.433 140.988,-125.53"/>
</g>
<!-- Node12&#45;&gt;Node2 -->
<g id="edge15" class="edge"><title>Node12&#45;&gt;Node2</title>
<path fill="none" stroke="midnightblue" d="M250.438,-280.245C259.424,-271.969 271.746,-258.663 277,-244 296.58,-189.357 283.483,-119.073 275.25,-85.9155"/>
<polygon fill="midnightblue" stroke="midnightblue" points="278.525,-84.6068 272.602,-75.8222 271.754,-86.383 278.525,-84.6068"/>
</g>
<!-- Node13 -->
<g id="node14" class="node"><title>Node13</title>
<g id="a_node14"><a xlink:href="osapi_8h.html" target="_top" xlink:title="osapi.h">
<polygon fill="white" stroke="black" points="185,-224.5 185,-243.5 233,-243.5 233,-224.5 185,-224.5"/>
<text text-anchor="middle" x="209" y="-231.5" font-family="Helvetica,sans-Serif" font-size="10.00">osapi.h</text>
</a>
</g>
</g>
<!-- Node12&#45;&gt;Node13 -->
<g id="edge17" class="edge"><title>Node12&#45;&gt;Node13</title>
<path fill="none" stroke="midnightblue" d="M234.881,-280.083C230.592,-272.613 224.342,-261.724 219.058,-252.52"/>
<polygon fill="midnightblue" stroke="midnightblue" points="222.038,-250.681 214.024,-243.751 215.967,-254.166 222.038,-250.681"/>
</g>
<!-- Node13&#45;&gt;Node6 -->
<g id="edge19" class="edge"><title>Node13&#45;&gt;Node6</title>
<path fill="none" stroke="midnightblue" d="M185.074,-224.444C159.781,-215.399 119.698,-201.064 91.3202,-190.916"/>
<polygon fill="midnightblue" stroke="midnightblue" points="92.4091,-187.588 81.8145,-187.516 90.0519,-194.179 92.4091,-187.588"/>
</g>
<!-- Node14 -->
<g id="node15" class="node"><title>Node14</title>
<polygon fill="white" stroke="#bfbfbf" points="105.5,-168.5 105.5,-187.5 154.5,-187.5 154.5,-168.5 105.5,-168.5"/>
<text text-anchor="middle" x="130" y="-175.5" font-family="Helvetica,sans-Serif" font-size="10.00">string.h</text>
</g>
<!-- Node13&#45;&gt;Node14 -->
<g id="edge18" class="edge"><title>Node13&#45;&gt;Node14</title>
<path fill="none" stroke="midnightblue" d="M196.307,-224.324C184.099,-215.979 165.422,-203.212 150.997,-193.352"/>
<polygon fill="midnightblue" stroke="midnightblue" points="152.892,-190.408 142.661,-187.655 148.942,-196.187 152.892,-190.408"/>
</g>
<!-- Node15 -->
<g id="node16" class="node"><title>Node15</title>
<polygon fill="white" stroke="#bfbfbf" points="172.5,-168.5 172.5,-187.5 247.5,-187.5 247.5,-168.5 172.5,-168.5"/>
<text text-anchor="middle" x="210" y="-175.5" font-family="Helvetica,sans-Serif" font-size="10.00">user_config.h</text>
</g>
<!-- Node13&#45;&gt;Node15 -->
<g id="edge20" class="edge"><title>Node13&#45;&gt;Node15</title>
<path fill="none" stroke="midnightblue" d="M209.165,-224.083C209.296,-217.006 209.484,-206.861 209.648,-197.986"/>
<polygon fill="midnightblue" stroke="midnightblue" points="213.152,-197.814 209.838,-187.751 206.153,-197.685 213.152,-197.814"/>
</g>
</g>
</svg>
