<?xml version="1.0" encoding="UTF-8" standalone="no"?>
<!DOCTYPE svg PUBLIC "-//W3C//DTD SVG 1.1//EN"
 "http://www.w3.org/Graphics/SVG/1.1/DTD/svg11.dtd">
<!-- Generated by graphviz version 2.38.0 (20140413.2041)
 -->
<!-- Title: espconn_udp_sent Pages: 1 -->
<svg width="863pt" height="275pt"
 viewBox="0.00 0.00 863.00 275.00" xmlns="http://www.w3.org/2000/svg" xmlns:xlink="http://www.w3.org/1999/xlink">
<g id="graph0" class="graph" transform="scale(1 1) rotate(0) translate(4 271)">
<title>espconn_udp_sent</title>
<polygon fill="white" stroke="none" points="-4,4 -4,-271 859,-271 859,4 -4,4"/>
<!-- Node33 -->
<g id="node1" class="node"><title>Node33</title>
<polygon fill="#bfbfbf" stroke="black" points="0,-114.5 0,-133.5 98,-133.5 98,-114.5 0,-114.5"/>
<text text-anchor="middle" x="49" y="-121.5" font-family="Helvetica,sans-Serif" font-size="10.00">espconn_udp_sent</text>
</g>
<!-- Node34 -->
<g id="node2" class="node"><title>Node34</title>
<g id="a_node2"><a xlink:href="wlan__lwip__if_8h.html#a7e70d2ab3f2caed091644850737a363e" target="_top" xlink:title="eagle_lwip_getif">
<polygon fill="white" stroke="black" points="421,-190.5 421,-209.5 507,-209.5 507,-190.5 421,-190.5"/>
<text text-anchor="middle" x="464" y="-197.5" font-family="Helvetica,sans-Serif" font-size="10.00">eagle_lwip_getif</text>
</a>
</g>
</g>
<!-- Node33&#45;&gt;Node34 -->
<g id="edge1" class="edge"><title>Node33&#45;&gt;Node34</title>
<path fill="none" stroke="midnightblue" d="M54.9058,-133.604C65.8726,-153.903 94.5448,-200.868 134,-220 233.616,-268.306 273.753,-244.938 383,-227 399.454,-224.298 417.08,-218.667 431.589,-213.243"/>
<polygon fill="midnightblue" stroke="midnightblue" points="433.026,-216.439 441.082,-209.559 430.493,-209.913 433.026,-216.439"/>
</g>
<!-- Node35 -->
<g id="node3" class="node"><title>Node35</title>
<g id="a_node3"><a xlink:href="espconn__udp_8c.html#ad90679652367797548ea650f09d14f7e" target="_top" xlink:title="espconn_data_sent">
<polygon fill="white" stroke="black" points="134,-114.5 134,-133.5 235,-133.5 235,-114.5 134,-114.5"/>
<text text-anchor="middle" x="184.5" y="-121.5" font-family="Helvetica,sans-Serif" font-size="10.00">espconn_data_sent</text>
</a>
</g>
</g>
<!-- Node33&#45;&gt;Node35 -->
<g id="edge2" class="edge"><title>Node33&#45;&gt;Node35</title>
<path fill="none" stroke="midnightblue" d="M98.1966,-124C106.374,-124 114.954,-124 123.392,-124"/>
<polygon fill="midnightblue" stroke="midnightblue" points="123.576,-127.5 133.576,-124 123.576,-120.5 123.576,-127.5"/>
</g>
<!-- Node38 -->
<g id="node6" class="node"><title>Node38</title>
<g id="a_node6"><a xlink:href="pbuf_8h.html#ac6efc2aaeddfea6c95729dc86f785ba4" target="_top" xlink:title="pbuf_alloc">
<polygon fill="white" stroke="black" points="433.5,-152.5 433.5,-171.5 494.5,-171.5 494.5,-152.5 433.5,-152.5"/>
<text text-anchor="middle" x="464" y="-159.5" font-family="Helvetica,sans-Serif" font-size="10.00">pbuf_alloc</text>
</a>
</g>
</g>
<!-- Node33&#45;&gt;Node38 -->
<g id="edge31" class="edge"><title>Node33&#45;&gt;Node38</title>
<path fill="none" stroke="midnightblue" d="M58.1383,-133.566C71.9354,-149.018 101.595,-179.045 134,-192 236.859,-233.122 276.366,-233.003 383,-203 401.05,-197.921 402.351,-189.627 419,-181 422.375,-179.251 425.947,-177.521 429.538,-175.859"/>
<polygon fill="midnightblue" stroke="midnightblue" points="431.26,-178.924 438.966,-171.653 428.407,-172.531 431.26,-178.924"/>
</g>
<!-- Node47 -->
<g id="node15" class="node"><title>Node47</title>
<g id="a_node15"><a xlink:href="user__interface_8h.html#a48d756265c0c1c35ba1fba102efe4d0a" target="_top" xlink:title="wifi_get_opmode">
<polygon fill="white" stroke="black" points="419,-76.5 419,-95.5 509,-95.5 509,-76.5 419,-76.5"/>
<text text-anchor="middle" x="464" y="-83.5" font-family="Helvetica,sans-Serif" font-size="10.00">wifi_get_opmode</text>
</a>
</g>
</g>
<!-- Node33&#45;&gt;Node47 -->
<g id="edge34" class="edge"><title>Node33&#45;&gt;Node47</title>
<path fill="none" stroke="midnightblue" d="M77.8149,-114.4C119.283,-100.647 200.048,-76.0026 271,-67 320.382,-60.7343 333.56,-61.2096 383,-67 395.406,-68.453 408.677,-71.1324 420.773,-74.0301"/>
<polygon fill="midnightblue" stroke="midnightblue" points="420.062,-77.46 430.612,-76.4934 421.762,-70.6695 420.062,-77.46"/>
</g>
<!-- Node48 -->
<g id="node16" class="node"><title>Node48</title>
<g id="a_node16"><a xlink:href="pbuf_8h.html#a5aed441d496f607ad88ae1db2084c2d6" target="_top" xlink:title="pbuf_copy">
<polygon fill="white" stroke="black" points="433,-38.5 433,-57.5 495,-57.5 495,-38.5 433,-38.5"/>
<text text-anchor="middle" x="464" y="-45.5" font-family="Helvetica,sans-Serif" font-size="10.00">pbuf_copy</text>
</a>
</g>
</g>
<!-- Node33&#45;&gt;Node48 -->
<g id="edge32" class="edge"><title>Node33&#45;&gt;Node48</title>
<path fill="none" stroke="midnightblue" d="M61.0132,-114.336C76.2292,-101.626 105.092,-79.7641 134,-70 233.463,-36.4055 359.259,-39.6531 422.617,-44.1978"/>
<polygon fill="midnightblue" stroke="midnightblue" points="422.731,-47.7168 432.969,-44.9928 423.267,-40.7373 422.731,-47.7168"/>
</g>
<!-- Node49 -->
<g id="node17" class="node"><title>Node49</title>
<g id="a_node17"><a xlink:href="netif_8h.html#adf60dd30848a63ce3a1339c98c098acc" target="_top" xlink:title="netif_set_default">
<polygon fill="white" stroke="black" points="419.5,-0.5 419.5,-19.5 508.5,-19.5 508.5,-0.5 419.5,-0.5"/>
<text text-anchor="middle" x="464" y="-7.5" font-family="Helvetica,sans-Serif" font-size="10.00">netif_set_default</text>
</a>
</g>
</g>
<!-- Node33&#45;&gt;Node49 -->
<g id="edge30" class="edge"><title>Node33&#45;&gt;Node49</title>
<path fill="none" stroke="midnightblue" d="M56.7401,-114.261C69.5022,-96.7107 99.0684,-60.1048 134,-44 223.901,-2.55203 341.924,-1.50967 409.421,-5.24902"/>
<polygon fill="midnightblue" stroke="midnightblue" points="409.211,-8.74263 419.405,-5.85788 409.637,-1.75561 409.211,-8.74263"/>
</g>
<!-- Node50 -->
<g id="node18" class="node"><title>Node50</title>
<g id="a_node18"><a xlink:href="pbuf_8h.html#a0d26e00e2cf975274139d27ddabd7ed3" target="_top" xlink:title="pbuf_free">
<polygon fill="white" stroke="black" points="435.5,-114.5 435.5,-133.5 492.5,-133.5 492.5,-114.5 435.5,-114.5"/>
<text text-anchor="middle" x="464" y="-121.5" font-family="Helvetica,sans-Serif" font-size="10.00">pbuf_free</text>
</a>
</g>
</g>
<!-- Node33&#45;&gt;Node50 -->
<g id="edge33" class="edge"><title>Node33&#45;&gt;Node50</title>
<path fill="none" stroke="midnightblue" d="M67.4315,-133.574C118.257,-160.134 269.851,-229.669 383,-181 404.371,-171.808 399.932,-156.328 419,-143 421.511,-141.245 424.209,-139.602 426.989,-138.075"/>
<polygon fill="midnightblue" stroke="midnightblue" points="428.615,-141.176 436.019,-133.597 425.505,-134.905 428.615,-141.176"/>
</g>
<!-- Node36 -->
<g id="node4" class="node"><title>Node36</title>
<g id="a_node4"><a xlink:href="espconn__udp_8c.html#acf012530a067499d3c1f70091f09427f" target="_top" xlink:title="espconn_data_sentcb">
<polygon fill="white" stroke="black" points="271,-152.5 271,-171.5 383,-171.5 383,-152.5 271,-152.5"/>
<text text-anchor="middle" x="327" y="-159.5" font-family="Helvetica,sans-Serif" font-size="10.00">espconn_data_sentcb</text>
</a>
</g>
</g>
<!-- Node35&#45;&gt;Node36 -->
<g id="edge3" class="edge"><title>Node35&#45;&gt;Node36</title>
<path fill="none" stroke="midnightblue" d="M220.954,-133.589C239.091,-138.494 261.368,-144.52 280.733,-149.757"/>
<polygon fill="midnightblue" stroke="midnightblue" points="279.99,-153.182 290.557,-152.414 281.818,-146.425 279.99,-153.182"/>
</g>
<!-- Node37 -->
<g id="node5" class="node"><title>Node37</title>
<g id="a_node5"><a xlink:href="espconn__udp_8c.html#ac963eff73234530596d6c02e6bb05e09" target="_top" xlink:title="espconn_udp_sent">
<polygon fill="white" stroke="black" points="278,-76.5 278,-95.5 376,-95.5 376,-76.5 278,-76.5"/>
<text text-anchor="middle" x="327" y="-83.5" font-family="Helvetica,sans-Serif" font-size="10.00">espconn_udp_sent</text>
</a>
</g>
</g>
<!-- Node35&#45;&gt;Node37 -->
<g id="edge4" class="edge"><title>Node35&#45;&gt;Node37</title>
<path fill="none" stroke="midnightblue" d="M203.58,-114.408C219.923,-108.332 244.894,-100.927 268.031,-95.0209"/>
<polygon fill="midnightblue" stroke="midnightblue" points="268.945,-98.4003 277.805,-92.5899 267.255,-91.6073 268.945,-98.4003"/>
</g>
<!-- Node51 -->
<g id="node19" class="node"><title>Node51</title>
<g id="a_node19"><a xlink:href="espconn__udp_8c.html#a01fa0df74518311e3eb03f2d955f9f26" target="_top" xlink:title="espconn_udp_sendto">
<polygon fill="white" stroke="black" points="272.5,-114.5 272.5,-133.5 381.5,-133.5 381.5,-114.5 272.5,-114.5"/>
<text text-anchor="middle" x="327" y="-121.5" font-family="Helvetica,sans-Serif" font-size="10.00">espconn_udp_sendto</text>
</a>
</g>
</g>
<!-- Node35&#45;&gt;Node51 -->
<g id="edge22" class="edge"><title>Node35&#45;&gt;Node51</title>
<path fill="none" stroke="midnightblue" d="M235.035,-117.518C243.76,-117.286 252.954,-117.205 262.007,-117.274"/>
<polygon fill="midnightblue" stroke="midnightblue" points="262.089,-120.775 272.137,-117.416 262.187,-113.776 262.089,-120.775"/>
</g>
<!-- Node37&#45;&gt;Node34 -->
<g id="edge14" class="edge"><title>Node37&#45;&gt;Node34</title>
<path fill="none" stroke="midnightblue" d="M368.259,-95.6284C373.605,-98.0845 378.711,-101.158 383,-105 410.838,-129.939 392.116,-155.034 419,-181 420.605,-182.55 422.356,-183.984 424.205,-185.308"/>
<polygon fill="midnightblue" stroke="midnightblue" points="422.414,-188.315 432.793,-190.442 426.006,-182.307 422.414,-188.315"/>
</g>
<!-- Node37&#45;&gt;Node35 -->
<g id="edge21" class="edge"><title>Node37&#45;&gt;Node35</title>
<path fill="none" stroke="midnightblue" d="M307.884,-95.6057C291.896,-101.547 267.668,-108.757 244.976,-114.593"/>
<polygon fill="midnightblue" stroke="midnightblue" points="243.884,-111.258 235.035,-117.085 245.586,-118.048 243.884,-111.258"/>
</g>
<!-- Node37&#45;&gt;Node38 -->
<g id="edge5" class="edge"><title>Node37&#45;&gt;Node38</title>
<path fill="none" stroke="midnightblue" d="M363.788,-95.5582C370.445,-98.1027 377.141,-101.224 383,-105 402.555,-117.604 399.932,-129.672 419,-143 421.511,-144.755 424.209,-146.398 426.989,-147.925"/>
<polygon fill="midnightblue" stroke="midnightblue" points="425.505,-151.095 436.019,-152.403 428.615,-144.824 425.505,-151.095"/>
</g>
<!-- Node37&#45;&gt;Node47 -->
<g id="edge15" class="edge"><title>Node37&#45;&gt;Node47</title>
<path fill="none" stroke="midnightblue" d="M376.357,-86C386.792,-86 397.892,-86 408.542,-86"/>
<polygon fill="midnightblue" stroke="midnightblue" points="408.578,-89.5001 418.578,-86 408.578,-82.5001 408.578,-89.5001"/>
</g>
<!-- Node37&#45;&gt;Node48 -->
<g id="edge16" class="edge"><title>Node37&#45;&gt;Node48</title>
<path fill="none" stroke="midnightblue" d="M362.066,-76.411C380.558,-71.206 403.528,-64.7404 422.881,-59.2926"/>
<polygon fill="midnightblue" stroke="midnightblue" points="423.952,-62.6273 432.63,-56.5487 422.055,-55.8892 423.952,-62.6273"/>
</g>
<!-- Node37&#45;&gt;Node49 -->
<g id="edge17" class="edge"><title>Node37&#45;&gt;Node49</title>
<path fill="none" stroke="midnightblue" d="M341.794,-76.4321C359.292,-64.5148 390.613,-43.9091 419,-29 422.366,-27.2324 425.931,-25.4905 429.518,-23.8216"/>
<polygon fill="midnightblue" stroke="midnightblue" points="431.242,-26.8846 438.942,-19.6062 428.384,-20.4948 431.242,-26.8846"/>
</g>
<!-- Node37&#45;&gt;Node50 -->
<g id="edge18" class="edge"><title>Node37&#45;&gt;Node50</title>
<path fill="none" stroke="midnightblue" d="M362.066,-95.589C381.444,-101.044 405.741,-107.883 425.64,-113.484"/>
<polygon fill="midnightblue" stroke="midnightblue" points="424.73,-116.864 435.304,-116.204 426.626,-110.125 424.73,-116.864"/>
</g>
<!-- Node39 -->
<g id="node7" class="node"><title>Node39</title>
<g id="a_node7"><a xlink:href="memp_8h.html#a5b98c976852aa0eabda9fd588be56eb8" target="_top" xlink:title="memp_malloc">
<polygon fill="white" stroke="black" points="545,-190.5 545,-209.5 622,-209.5 622,-190.5 545,-190.5"/>
<text text-anchor="middle" x="583.5" y="-197.5" font-family="Helvetica,sans-Serif" font-size="10.00">memp_malloc</text>
</a>
</g>
</g>
<!-- Node38&#45;&gt;Node39 -->
<g id="edge6" class="edge"><title>Node38&#45;&gt;Node39</title>
<path fill="none" stroke="midnightblue" d="M494.65,-171.589C509.401,-176.359 527.426,-182.189 543.301,-187.323"/>
<polygon fill="midnightblue" stroke="midnightblue" points="542.267,-190.667 552.859,-190.414 544.421,-184.007 542.267,-190.667"/>
</g>
<!-- Node40 -->
<g id="node8" class="node"><title>Node40</title>
<g id="a_node8"><a xlink:href="pbuf_8c.html#ab0dd696fb4b6bc65e548944584f1738b" target="_top" xlink:title="pbuf_free">
<polygon fill="white" stroke="black" points="555,-152.5 555,-171.5 612,-171.5 612,-152.5 555,-152.5"/>
<text text-anchor="middle" x="583.5" y="-159.5" font-family="Helvetica,sans-Serif" font-size="10.00">pbuf_free</text>
</a>
</g>
</g>
<!-- Node38&#45;&gt;Node40 -->
<g id="edge7" class="edge"><title>Node38&#45;&gt;Node40</title>
<path fill="none" stroke="midnightblue" d="M494.65,-162C509.819,-162 528.451,-162 544.647,-162"/>
<polygon fill="midnightblue" stroke="midnightblue" points="544.877,-165.5 554.877,-162 544.877,-158.5 544.877,-165.5"/>
</g>
<!-- Node44 -->
<g id="node12" class="node"><title>Node44</title>
<g id="a_node12"><a xlink:href="esp-open-lwip_2include_2lwip_2mem_8h.html#a1cb005c6c44b685b8025b329a6d2bcd4" target="_top" xlink:title="mem_malloc">
<polygon fill="white" stroke="black" points="547.5,-228.5 547.5,-247.5 619.5,-247.5 619.5,-228.5 547.5,-228.5"/>
<text text-anchor="middle" x="583.5" y="-235.5" font-family="Helvetica,sans-Serif" font-size="10.00">mem_malloc</text>
</a>
</g>
</g>
<!-- Node38&#45;&gt;Node44 -->
<g id="edge11" class="edge"><title>Node38&#45;&gt;Node44</title>
<path fill="none" stroke="midnightblue" d="M491.981,-171.597C497.833,-174.231 503.817,-177.377 509,-181 528.068,-194.328 526.349,-205.094 545,-219 547.048,-220.527 549.237,-221.991 551.49,-223.382"/>
<polygon fill="midnightblue" stroke="midnightblue" points="549.903,-226.505 560.335,-228.356 553.334,-220.404 549.903,-226.505"/>
</g>
<!-- Node41 -->
<g id="node9" class="node"><title>Node41</title>
<g id="a_node9"><a xlink:href="memp_8h.html#a9d30a969401eb0626105950d6e63f3bf" target="_top" xlink:title="memp_free">
<polygon fill="white" stroke="black" points="674.5,-95.5 674.5,-114.5 739.5,-114.5 739.5,-95.5 674.5,-95.5"/>
<text text-anchor="middle" x="707" y="-102.5" font-family="Helvetica,sans-Serif" font-size="10.00">memp_free</text>
</a>
</g>
</g>
<!-- Node40&#45;&gt;Node41 -->
<g id="edge8" class="edge"><title>Node40&#45;&gt;Node41</title>
<path fill="none" stroke="midnightblue" d="M601.781,-152.44C616.524,-144.437 638.388,-132.924 658,-124 662.15,-122.112 666.547,-120.223 670.927,-118.41"/>
<polygon fill="midnightblue" stroke="midnightblue" points="672.429,-121.578 680.391,-114.588 669.808,-115.087 672.429,-121.578"/>
</g>
<!-- Node42 -->
<g id="node10" class="node"><title>Node42</title>
<g id="a_node10"><a xlink:href="esp-open-lwip_2include_2lwip_2mem_8h.html#ab270bbe39e1996d7095be3a139620ce0" target="_top" xlink:title="mem_free">
<polygon fill="white" stroke="black" points="677,-133.5 677,-152.5 737,-152.5 737,-133.5 677,-133.5"/>
<text text-anchor="middle" x="707" y="-140.5" font-family="Helvetica,sans-Serif" font-size="10.00">mem_free</text>
</a>
</g>
</g>
<!-- Node40&#45;&gt;Node42 -->
<g id="edge9" class="edge"><title>Node40&#45;&gt;Node42</title>
<path fill="none" stroke="midnightblue" d="M612.07,-157.689C628.224,-155.163 648.893,-151.93 666.727,-149.141"/>
<polygon fill="midnightblue" stroke="midnightblue" points="667.505,-152.562 676.845,-147.559 666.424,-145.646 667.505,-152.562"/>
</g>
<!-- Node43 -->
<g id="node11" class="node"><title>Node43</title>
<g id="a_node11"><a xlink:href="mem_8c.html#a24221009a2c00e9c3fa63eaa9444a076" target="_top" xlink:title="plug_holes">
<polygon fill="white" stroke="black" points="792,-133.5 792,-152.5 855,-152.5 855,-133.5 792,-133.5"/>
<text text-anchor="middle" x="823.5" y="-140.5" font-family="Helvetica,sans-Serif" font-size="10.00">plug_holes</text>
</a>
</g>
</g>
<!-- Node42&#45;&gt;Node43 -->
<g id="edge10" class="edge"><title>Node42&#45;&gt;Node43</title>
<path fill="none" stroke="midnightblue" d="M737.189,-143C750.625,-143 766.8,-143 781.437,-143"/>
<polygon fill="midnightblue" stroke="midnightblue" points="781.762,-146.5 791.762,-143 781.762,-139.5 781.762,-146.5"/>
</g>
<!-- Node45 -->
<g id="node13" class="node"><title>Node45</title>
<g id="a_node13"><a xlink:href="sys_8h.html#a4d4eb9afe5965fa2661dd54ff55d616a" target="_top" xlink:title="sys_mutex_lock">
<polygon fill="white" stroke="black" points="663,-247.5 663,-266.5 751,-266.5 751,-247.5 663,-247.5"/>
<text text-anchor="middle" x="707" y="-254.5" font-family="Helvetica,sans-Serif" font-size="10.00">sys_mutex_lock</text>
</a>
</g>
</g>
<!-- Node44&#45;&gt;Node45 -->
<g id="edge12" class="edge"><title>Node44&#45;&gt;Node45</title>
<path fill="none" stroke="midnightblue" d="M619.643,-243.496C629.945,-245.107 641.451,-246.906 652.619,-248.652"/>
<polygon fill="midnightblue" stroke="midnightblue" points="652.315,-252.147 662.736,-250.234 653.397,-245.231 652.315,-252.147"/>
</g>
<!-- Node46 -->
<g id="node14" class="node"><title>Node46</title>
<g id="a_node14"><a xlink:href="sys_8h.html#a5568f68898fe9d5735f9ce2f665624fb" target="_top" xlink:title="sys_mutex_unlock">
<polygon fill="white" stroke="black" points="658,-209.5 658,-228.5 756,-228.5 756,-209.5 658,-209.5"/>
<text text-anchor="middle" x="707" y="-216.5" font-family="Helvetica,sans-Serif" font-size="10.00">sys_mutex_unlock</text>
</a>
</g>
</g>
<!-- Node44&#45;&gt;Node46 -->
<g id="edge13" class="edge"><title>Node44&#45;&gt;Node46</title>
<path fill="none" stroke="midnightblue" d="M619.643,-232.504C628.486,-231.122 638.214,-229.6 647.856,-228.093"/>
<polygon fill="midnightblue" stroke="midnightblue" points="648.491,-231.536 657.83,-226.533 647.409,-224.62 648.491,-231.536"/>
</g>
<!-- Node50&#45;&gt;Node41 -->
<g id="edge19" class="edge"><title>Node50&#45;&gt;Node41</title>
<path fill="none" stroke="midnightblue" d="M492.633,-118.166C507.983,-115.177 527.467,-111.797 545,-110 585.415,-105.857 631.809,-104.806 664.38,-104.672"/>
<polygon fill="midnightblue" stroke="midnightblue" points="664.45,-108.172 674.445,-104.658 664.44,-101.172 664.45,-108.172"/>
</g>
<!-- Node50&#45;&gt;Node42 -->
<g id="edge20" class="edge"><title>Node50&#45;&gt;Node42</title>
<path fill="none" stroke="midnightblue" d="M492.646,-126.18C535.38,-129.549 617.648,-136.034 666.598,-139.894"/>
<polygon fill="midnightblue" stroke="midnightblue" points="666.562,-143.402 676.806,-140.698 667.112,-136.423 666.562,-143.402"/>
</g>
<!-- Node51&#45;&gt;Node34 -->
<g id="edge24" class="edge"><title>Node51&#45;&gt;Node34</title>
<path fill="none" stroke="midnightblue" d="M363.788,-133.558C370.445,-136.103 377.141,-139.224 383,-143 402.555,-155.604 399.932,-167.672 419,-181 421.511,-182.755 424.209,-184.398 426.989,-185.925"/>
<polygon fill="midnightblue" stroke="midnightblue" points="425.505,-189.095 436.019,-190.403 428.615,-182.824 425.505,-189.095"/>
</g>
<!-- Node51&#45;&gt;Node35 -->
<g id="edge29" class="edge"><title>Node51&#45;&gt;Node35</title>
<path fill="none" stroke="midnightblue" d="M272.137,-130.584C263.275,-130.767 254.044,-130.799 245.053,-130.68"/>
<polygon fill="midnightblue" stroke="midnightblue" points="245.102,-127.18 235.035,-130.482 244.964,-134.179 245.102,-127.18"/>
</g>
<!-- Node51&#45;&gt;Node38 -->
<g id="edge23" class="edge"><title>Node51&#45;&gt;Node38</title>
<path fill="none" stroke="midnightblue" d="M362.066,-133.589C380.691,-138.831 403.858,-145.353 423.299,-150.825"/>
<polygon fill="midnightblue" stroke="midnightblue" points="422.507,-154.238 433.081,-153.578 424.403,-147.5 422.507,-154.238"/>
</g>
<!-- Node51&#45;&gt;Node47 -->
<g id="edge25" class="edge"><title>Node51&#45;&gt;Node47</title>
<path fill="none" stroke="midnightblue" d="M362.066,-114.411C379.413,-109.528 400.702,-103.536 419.249,-98.315"/>
<polygon fill="midnightblue" stroke="midnightblue" points="420.267,-101.665 428.945,-95.5859 418.37,-94.9265 420.267,-101.665"/>
</g>
<!-- Node51&#45;&gt;Node48 -->
<g id="edge26" class="edge"><title>Node51&#45;&gt;Node48</title>
<path fill="none" stroke="midnightblue" d="M363.788,-114.442C370.445,-111.897 377.141,-108.776 383,-105 402.555,-92.3965 399.932,-80.3279 419,-67 421.511,-65.2452 424.209,-63.6022 426.989,-62.0752"/>
<polygon fill="midnightblue" stroke="midnightblue" points="428.615,-65.1759 436.019,-57.5975 425.505,-58.9046 428.615,-65.1759"/>
</g>
<!-- Node51&#45;&gt;Node49 -->
<g id="edge27" class="edge"><title>Node51&#45;&gt;Node49</title>
<path fill="none" stroke="midnightblue" d="M368.259,-114.372C373.605,-111.915 378.711,-108.842 383,-105 410.838,-80.0608 392.116,-54.9655 419,-29 420.605,-27.4501 422.356,-26.0164 424.205,-24.6917"/>
<polygon fill="midnightblue" stroke="midnightblue" points="426.006,-27.6931 432.793,-19.5579 422.414,-21.6848 426.006,-27.6931"/>
</g>
<!-- Node51&#45;&gt;Node50 -->
<g id="edge28" class="edge"><title>Node51&#45;&gt;Node50</title>
<path fill="none" stroke="midnightblue" d="M381.743,-124C396.248,-124 411.638,-124 425.078,-124"/>
<polygon fill="midnightblue" stroke="midnightblue" points="425.384,-127.5 435.384,-124 425.384,-120.5 425.384,-127.5"/>
</g>
</g>
</svg>
