<?xml version="1.0" encoding="UTF-8" standalone="no"?>
<!DOCTYPE svg PUBLIC "-//W3C//DTD SVG 1.1//EN"
 "http://www.w3.org/Graphics/SVG/1.1/DTD/svg11.dtd">
<!-- Generated by graphviz version 2.38.0 (20140413.2041)
 -->
<!-- Title: espconn_kill_oldest Pages: 1 -->
<svg width="653pt" height="78pt"
 viewBox="0.00 0.00 653.00 77.50" xmlns="http://www.w3.org/2000/svg" xmlns:xlink="http://www.w3.org/1999/xlink">
<g id="graph0" class="graph" transform="scale(1 1) rotate(0) translate(4 73.5)">
<title>espconn_kill_oldest</title>
<polygon fill="white" stroke="none" points="-4,4 -4,-73.5 649,-73.5 649,4 -4,4"/>
<!-- Node89 -->
<g id="node1" class="node"><title>Node89</title>
<polygon fill="#bfbfbf" stroke="black" points="0,-28 0,-47 102,-47 102,-28 0,-28"/>
<text text-anchor="middle" x="51" y="-35" font-family="Helvetica,sans-Serif" font-size="10.00">espconn_kill_oldest</text>
</g>
<!-- Node90 -->
<g id="node2" class="node"><title>Node90</title>
<g id="a_node2"><a xlink:href="espconn__tcp_8c.html#adb05495795be756c94becac3022d61ae" target="_top" xlink:title="espconn_kill_oldest_pcb">
<polygon fill="white" stroke="black" points="138,-28 138,-47 261,-47 261,-28 138,-28"/>
<text text-anchor="middle" x="199.5" y="-35" font-family="Helvetica,sans-Serif" font-size="10.00">espconn_kill_oldest_pcb</text>
</a>
</g>
</g>
<!-- Node89&#45;&gt;Node90 -->
<g id="edge1" class="edge"><title>Node89&#45;&gt;Node90</title>
<path fill="none" stroke="midnightblue" d="M112.182,-37.5C120.647,-37.5 129.352,-37.5 137.826,-37.5"/>
<polygon fill="midnightblue" stroke="midnightblue" points="112.007,-34.0001 102.007,-37.5 112.007,-41.0001 112.007,-34.0001"/>
</g>
<!-- Node91 -->
<g id="node3" class="node"><title>Node91</title>
<g id="a_node3"><a xlink:href="espconn__tcp_8c.html#ae7340333afa97bbdba4ae018539f8a1a" target="_top" xlink:title="espconn_tcp_reconnect">
<polygon fill="white" stroke="black" points="299.5,-50 299.5,-69 419.5,-69 419.5,-50 299.5,-50"/>
<text text-anchor="middle" x="359.5" y="-57" font-family="Helvetica,sans-Serif" font-size="10.00">espconn_tcp_reconnect</text>
</a>
</g>
</g>
<!-- Node90&#45;&gt;Node91 -->
<g id="edge2" class="edge"><title>Node90&#45;&gt;Node91</title>
<path fill="none" stroke="midnightblue" d="M271.234,-47.349C280.621,-48.6561 290.166,-49.9851 299.33,-51.2611"/>
<polygon fill="midnightblue" stroke="midnightblue" points="271.522,-43.8555 261.135,-45.9429 270.557,-50.7886 271.522,-43.8555"/>
</g>
<!-- Node94 -->
<g id="node6" class="node"><title>Node94</title>
<g id="a_node6"><a xlink:href="espconn__tcp_8c.html#a20affdc6c469b20f65d27e24d6ba6bc1" target="_top" xlink:title="espconn_tcp_disconnect\l_successful">
<polygon fill="white" stroke="black" points="297,-0.5 297,-30.5 422,-30.5 422,-0.5 297,-0.5"/>
<text text-anchor="start" x="305" y="-18.5" font-family="Helvetica,sans-Serif" font-size="10.00">espconn_tcp_disconnect</text>
<text text-anchor="middle" x="359.5" y="-7.5" font-family="Helvetica,sans-Serif" font-size="10.00">_successful</text>
</a>
</g>
</g>
<!-- Node90&#45;&gt;Node94 -->
<g id="edge5" class="edge"><title>Node90&#45;&gt;Node94</title>
<path fill="none" stroke="midnightblue" d="M271.159,-27.6614C279.771,-26.4622 288.518,-25.2444 296.982,-24.0658"/>
<polygon fill="midnightblue" stroke="midnightblue" points="270.557,-24.2114 261.135,-29.0571 271.522,-31.1445 270.557,-24.2114"/>
</g>
<!-- Node92 -->
<g id="node4" class="node"><title>Node92</title>
<g id="a_node4"><a xlink:href="espconn__tcp_8c.html#a658001fa320693943742066d8870a1b9" target="_top" xlink:title="espconn_Task">
<polygon fill="white" stroke="black" points="458,-28 458,-47 538,-47 538,-28 458,-28"/>
<text text-anchor="middle" x="498" y="-35" font-family="Helvetica,sans-Serif" font-size="10.00">espconn_Task</text>
</a>
</g>
</g>
<!-- Node91&#45;&gt;Node92 -->
<g id="edge3" class="edge"><title>Node91&#45;&gt;Node92</title>
<path fill="none" stroke="midnightblue" d="M429.665,-48.3525C439.368,-46.7887 449.047,-45.2287 457.916,-43.7993"/>
<polygon fill="midnightblue" stroke="midnightblue" points="428.893,-44.9318 419.577,-49.9784 430.007,-51.8426 428.893,-44.9318"/>
</g>
<!-- Node93 -->
<g id="node5" class="node"><title>Node93</title>
<g id="a_node5"><a xlink:href="espconn__tcp_8c.html#a86c6dca784d0ca2d55af8567a7968406" target="_top" xlink:title="espconn_init">
<polygon fill="white" stroke="black" points="574,-28 574,-47 645,-47 645,-28 574,-28"/>
<text text-anchor="middle" x="609.5" y="-35" font-family="Helvetica,sans-Serif" font-size="10.00">espconn_init</text>
</a>
</g>
</g>
<!-- Node92&#45;&gt;Node93 -->
<g id="edge4" class="edge"><title>Node92&#45;&gt;Node93</title>
<path fill="none" stroke="midnightblue" d="M548.251,-37.5C556.911,-37.5 565.756,-37.5 573.909,-37.5"/>
<polygon fill="midnightblue" stroke="midnightblue" points="548.223,-34.0001 538.223,-37.5 548.223,-41.0001 548.223,-34.0001"/>
</g>
<!-- Node94&#45;&gt;Node92 -->
<g id="edge6" class="edge"><title>Node94&#45;&gt;Node92</title>
<path fill="none" stroke="midnightblue" d="M432.508,-27.1056C441.149,-28.4983 449.709,-29.8781 457.633,-31.1551"/>
<polygon fill="midnightblue" stroke="midnightblue" points="432.789,-23.606 422.36,-25.4701 431.676,-30.5168 432.789,-23.606"/>
</g>
</g>
</svg>
