<?xml version="1.0" encoding="UTF-8" standalone="no"?>
<!DOCTYPE svg PUBLIC "-//W3C//DTD SVG 1.1//EN"
 "http://www.w3.org/Graphics/SVG/1.1/DTD/svg11.dtd">
<!-- Generated by graphviz version 2.38.0 (20140413.2041)
 -->
<!-- Title: espconn_kill_oldest_pcb Pages: 1 -->
<svg width="370pt" height="28pt"
 viewBox="0.00 0.00 370.00 28.00" xmlns="http://www.w3.org/2000/svg" xmlns:xlink="http://www.w3.org/1999/xlink">
<g id="graph0" class="graph" transform="scale(1 1) rotate(0) translate(4 24)">
<title>espconn_kill_oldest_pcb</title>
<polygon fill="white" stroke="none" points="-4,4 -4,-24 366,-24 366,4 -4,4"/>
<!-- Node0 -->
<g id="node1" class="node"><title>Node0</title>
<polygon fill="#bfbfbf" stroke="black" points="0,-0.5 0,-19.5 123,-19.5 123,-0.5 0,-0.5"/>
<text text-anchor="middle" x="61.5" y="-7.5" font-family="Helvetica,sans-Serif" font-size="10.00">espconn_kill_oldest_pcb</text>
</g>
<!-- Node1 -->
<g id="node2" class="node"><title>Node1</title>
<g id="a_node2"><a xlink:href="espconn__tcp_8c.html#a8728693719a51cc1fbe3ef775ceaaa67" target="_top" xlink:title="espconn_kill_oldest">
<polygon fill="white" stroke="black" points="159,-0.5 159,-19.5 261,-19.5 261,-0.5 159,-0.5"/>
<text text-anchor="middle" x="210" y="-7.5" font-family="Helvetica,sans-Serif" font-size="10.00">espconn_kill_oldest</text>
</a>
</g>
</g>
<!-- Node0&#45;&gt;Node1 -->
<g id="edge1" class="edge"><title>Node0&#45;&gt;Node1</title>
<path fill="none" stroke="midnightblue" d="M123.356,-10C131.74,-10 140.347,-10 148.72,-10"/>
<polygon fill="midnightblue" stroke="midnightblue" points="148.786,-13.5001 158.786,-10 148.786,-6.5001 148.786,-13.5001"/>
</g>
<!-- Node2 -->
<g id="node3" class="node"><title>Node2</title>
<g id="a_node3"><a xlink:href="memp_8h.html#a9d30a969401eb0626105950d6e63f3bf" target="_top" xlink:title="memp_free">
<polygon fill="white" stroke="black" points="297,-0.5 297,-19.5 362,-19.5 362,-0.5 297,-0.5"/>
<text text-anchor="middle" x="329.5" y="-7.5" font-family="Helvetica,sans-Serif" font-size="10.00">memp_free</text>
</a>
</g>
</g>
<!-- Node1&#45;&gt;Node2 -->
<g id="edge2" class="edge"><title>Node1&#45;&gt;Node2</title>
<path fill="none" stroke="midnightblue" d="M261.171,-10C269.68,-10 278.433,-10 286.698,-10"/>
<polygon fill="midnightblue" stroke="midnightblue" points="286.849,-13.5001 296.849,-10 286.849,-6.5001 286.849,-13.5001"/>
</g>
</g>
</svg>
