<?xml version="1.0" encoding="UTF-8" standalone="no"?>
<!DOCTYPE svg PUBLIC "-//W3C//DTD SVG 1.1//EN"
 "http://www.w3.org/Graphics/SVG/1.1/DTD/svg11.dtd">
<!-- Generated by graphviz version 2.38.0 (20140413.2041)
 -->
<!-- Title: espconn_udp_sent Pages: 1 -->
<svg width="863pt" height="283pt"
 viewBox="0.00 0.00 863.00 283.00" xmlns="http://www.w3.org/2000/svg" xmlns:xlink="http://www.w3.org/1999/xlink">
<g id="graph0" class="graph" transform="scale(1 1) rotate(0) translate(4 278.998)">
<title>espconn_udp_sent</title>
<polygon fill="white" stroke="none" points="-4,4 -4,-278.998 859,-278.998 859,4 -4,4"/>
<!-- Node78 -->
<g id="node1" class="node"><title>Node78</title>
<polygon fill="#bfbfbf" stroke="black" points="0,-122.498 0,-141.498 98,-141.498 98,-122.498 0,-122.498"/>
<text text-anchor="middle" x="49" y="-129.498" font-family="Helvetica,sans-Serif" font-size="10.00">espconn_udp_sent</text>
</g>
<!-- Node79 -->
<g id="node2" class="node"><title>Node79</title>
<g id="a_node2"><a xlink:href="wlan__lwip__if_8h.html#a7e70d2ab3f2caed091644850737a363e" target="_top" xlink:title="eagle_lwip_getif">
<polygon fill="white" stroke="black" points="421,-255.498 421,-274.498 507,-274.498 507,-255.498 421,-255.498"/>
<text text-anchor="middle" x="464" y="-262.498" font-family="Helvetica,sans-Serif" font-size="10.00">eagle_lwip_getif</text>
</a>
</g>
</g>
<!-- Node78&#45;&gt;Node79 -->
<g id="edge1" class="edge"><title>Node78&#45;&gt;Node79</title>
<path fill="none" stroke="midnightblue" d="M57.3487,-141.681C70.637,-158.422 100.418,-192.557 134,-208.998 224.27,-253.192 343.268,-263.206 410.612,-265.069"/>
<polygon fill="midnightblue" stroke="midnightblue" points="410.888,-268.576 420.965,-265.302 411.046,-261.578 410.888,-268.576"/>
</g>
<!-- Node80 -->
<g id="node3" class="node"><title>Node80</title>
<g id="a_node3"><a xlink:href="espconn__udp_8c.html#ad90679652367797548ea650f09d14f7e" target="_top" xlink:title="espconn_data_sent">
<polygon fill="white" stroke="black" points="134,-122.498 134,-141.498 235,-141.498 235,-122.498 134,-122.498"/>
<text text-anchor="middle" x="184.5" y="-129.498" font-family="Helvetica,sans-Serif" font-size="10.00">espconn_data_sent</text>
</a>
</g>
</g>
<!-- Node78&#45;&gt;Node80 -->
<g id="edge2" class="edge"><title>Node78&#45;&gt;Node80</title>
<path fill="none" stroke="midnightblue" d="M98.1966,-125.485C106.374,-125.271 114.954,-125.202 123.392,-125.277"/>
<polygon fill="midnightblue" stroke="midnightblue" points="123.521,-128.78 133.576,-125.442 123.634,-121.781 123.521,-128.78"/>
</g>
<!-- Node83 -->
<g id="node6" class="node"><title>Node83</title>
<g id="a_node6"><a xlink:href="netif_8h.html#adf60dd30848a63ce3a1339c98c098acc" target="_top" xlink:title="netif_set_default">
<polygon fill="white" stroke="black" points="419.5,-160.498 419.5,-179.498 508.5,-179.498 508.5,-160.498 419.5,-160.498"/>
<text text-anchor="middle" x="464" y="-167.498" font-family="Helvetica,sans-Serif" font-size="10.00">netif_set_default</text>
</a>
</g>
</g>
<!-- Node78&#45;&gt;Node83 -->
<g id="edge23" class="edge"><title>Node78&#45;&gt;Node83</title>
<path fill="none" stroke="midnightblue" d="M77.8149,-141.598C119.283,-155.351 200.048,-179.995 271,-188.998 320.382,-195.263 333.56,-194.788 383,-188.998 395.406,-187.545 408.677,-184.865 420.773,-181.968"/>
<polygon fill="midnightblue" stroke="midnightblue" points="421.762,-185.328 430.612,-179.504 420.062,-178.538 421.762,-185.328"/>
</g>
<!-- Node84 -->
<g id="node7" class="node"><title>Node84</title>
<g id="a_node7"><a xlink:href="pbuf_8h.html#ac6efc2aaeddfea6c95729dc86f785ba4" target="_top" xlink:title="pbuf_alloc">
<polygon fill="white" stroke="black" points="433.5,-198.498 433.5,-217.498 494.5,-217.498 494.5,-198.498 433.5,-198.498"/>
<text text-anchor="middle" x="464" y="-205.498" font-family="Helvetica,sans-Serif" font-size="10.00">pbuf_alloc</text>
</a>
</g>
</g>
<!-- Node78&#45;&gt;Node84 -->
<g id="edge24" class="edge"><title>Node78&#45;&gt;Node84</title>
<path fill="none" stroke="midnightblue" d="M61.9845,-141.615C77.5861,-153.595 106.16,-173.734 134,-183.998 233.002,-220.496 359.912,-216.89 423.279,-212.001"/>
<polygon fill="midnightblue" stroke="midnightblue" points="423.577,-215.488 433.256,-211.179 423.002,-208.512 423.577,-215.488"/>
</g>
<!-- Node93 -->
<g id="node16" class="node"><title>Node93</title>
<g id="a_node16"><a xlink:href="pbuf_8h.html#a5aed441d496f607ad88ae1db2084c2d6" target="_top" xlink:title="pbuf_copy">
<polygon fill="white" stroke="black" points="433,-84.4977 433,-103.498 495,-103.498 495,-84.4977 433,-84.4977"/>
<text text-anchor="middle" x="464" y="-91.4977" font-family="Helvetica,sans-Serif" font-size="10.00">pbuf_copy</text>
</a>
</g>
</g>
<!-- Node78&#45;&gt;Node93 -->
<g id="edge25" class="edge"><title>Node78&#45;&gt;Node93</title>
<path fill="none" stroke="midnightblue" d="M86.1436,-122.451C100.885,-118.917 118.158,-115.231 134,-112.998 237.361,-98.4249 360.498,-94.9732 422.725,-94.1928"/>
<polygon fill="midnightblue" stroke="midnightblue" points="422.936,-97.6908 432.898,-94.0825 422.86,-90.6912 422.936,-97.6908"/>
</g>
<!-- Node94 -->
<g id="node17" class="node"><title>Node94</title>
<g id="a_node17"><a xlink:href="pbuf_8h.html#a0d26e00e2cf975274139d27ddabd7ed3" target="_top" xlink:title="pbuf_free">
<polygon fill="white" stroke="black" points="555,-122.498 555,-141.498 612,-141.498 612,-122.498 555,-122.498"/>
<text text-anchor="middle" x="583.5" y="-129.498" font-family="Helvetica,sans-Serif" font-size="10.00">pbuf_free</text>
</a>
</g>
</g>
<!-- Node78&#45;&gt;Node94 -->
<g id="edge26" class="edge"><title>Node78&#45;&gt;Node94</title>
<path fill="none" stroke="midnightblue" d="M60.4434,-122.282C75.45,-108.944 104.561,-85.3305 134,-73.9977 290.295,-13.8307 358.648,36.7753 509,-36.9977 541.144,-52.7699 563.234,-90.1214 574.296,-113.01"/>
<polygon fill="midnightblue" stroke="midnightblue" points="571.245,-114.752 578.599,-122.379 577.606,-111.831 571.245,-114.752"/>
</g>
<!-- Node95 -->
<g id="node18" class="node"><title>Node95</title>
<g id="a_node18"><a xlink:href="user__interface_8h.html#a48d756265c0c1c35ba1fba102efe4d0a" target="_top" xlink:title="wifi_get_opmode">
<polygon fill="white" stroke="black" points="419,-46.4977 419,-65.4977 509,-65.4977 509,-46.4977 419,-46.4977"/>
<text text-anchor="middle" x="464" y="-53.4977" font-family="Helvetica,sans-Serif" font-size="10.00">wifi_get_opmode</text>
</a>
</g>
</g>
<!-- Node78&#45;&gt;Node95 -->
<g id="edge27" class="edge"><title>Node78&#45;&gt;Node95</title>
<path fill="none" stroke="midnightblue" d="M69.5354,-122.408C86.2538,-114.615 111.169,-103.968 134,-97.9977 228.786,-73.2095 342.909,-62.8184 408.794,-58.6368"/>
<polygon fill="midnightblue" stroke="midnightblue" points="409.175,-62.1201 418.943,-58.0177 408.749,-55.1331 409.175,-62.1201"/>
</g>
<!-- Node80&#45;&gt;Node78 -->
<g id="edge22" class="edge"><title>Node80&#45;&gt;Node78</title>
<path fill="none" stroke="midnightblue" d="M133.576,-138.553C125.345,-138.747 116.749,-138.796 108.334,-138.7"/>
<polygon fill="midnightblue" stroke="midnightblue" points="108.26,-135.198 98.1966,-138.51 108.129,-142.197 108.26,-135.198"/>
</g>
<!-- Node81 -->
<g id="node4" class="node"><title>Node81</title>
<g id="a_node4"><a xlink:href="espconn__udp_8c.html#acf012530a067499d3c1f70091f09427f" target="_top" xlink:title="espconn_data_sentcb">
<polygon fill="white" stroke="black" points="271,-160.498 271,-179.498 383,-179.498 383,-160.498 271,-160.498"/>
<text text-anchor="middle" x="327" y="-167.498" font-family="Helvetica,sans-Serif" font-size="10.00">espconn_data_sentcb</text>
</a>
</g>
</g>
<!-- Node80&#45;&gt;Node81 -->
<g id="edge3" class="edge"><title>Node80&#45;&gt;Node81</title>
<path fill="none" stroke="midnightblue" d="M220.954,-141.587C239.091,-146.492 261.368,-152.517 280.733,-157.755"/>
<polygon fill="midnightblue" stroke="midnightblue" points="279.99,-161.179 290.557,-160.412 281.818,-154.422 279.99,-161.179"/>
</g>
<!-- Node82 -->
<g id="node5" class="node"><title>Node82</title>
<g id="a_node5"><a xlink:href="espconn__udp_8c.html#a01fa0df74518311e3eb03f2d955f9f26" target="_top" xlink:title="espconn_udp_sendto">
<polygon fill="white" stroke="black" points="272.5,-122.498 272.5,-141.498 381.5,-141.498 381.5,-122.498 272.5,-122.498"/>
<text text-anchor="middle" x="327" y="-129.498" font-family="Helvetica,sans-Serif" font-size="10.00">espconn_udp_sendto</text>
</a>
</g>
</g>
<!-- Node80&#45;&gt;Node82 -->
<g id="edge4" class="edge"><title>Node80&#45;&gt;Node82</title>
<path fill="none" stroke="midnightblue" d="M235.035,-125.516C243.76,-125.284 252.954,-125.202 262.007,-125.272"/>
<polygon fill="midnightblue" stroke="midnightblue" points="262.089,-128.773 272.137,-125.414 262.187,-121.774 262.089,-128.773"/>
</g>
<!-- Node82&#45;&gt;Node79 -->
<g id="edge5" class="edge"><title>Node82&#45;&gt;Node79</title>
<path fill="none" stroke="midnightblue" d="M368.259,-141.626C373.605,-144.082 378.711,-147.155 383,-150.998 410.838,-175.937 396.369,-197.253 419,-226.998 425.194,-235.138 433.379,-242.789 441.009,-249.062"/>
<polygon fill="midnightblue" stroke="midnightblue" points="438.919,-251.871 448.949,-255.285 443.237,-246.362 438.919,-251.871"/>
</g>
<!-- Node82&#45;&gt;Node80 -->
<g id="edge6" class="edge"><title>Node82&#45;&gt;Node80</title>
<path fill="none" stroke="midnightblue" d="M272.137,-138.582C263.275,-138.764 254.044,-138.796 245.053,-138.678"/>
<polygon fill="midnightblue" stroke="midnightblue" points="245.102,-135.178 235.035,-138.48 244.964,-142.177 245.102,-135.178"/>
</g>
<!-- Node82&#45;&gt;Node83 -->
<g id="edge7" class="edge"><title>Node82&#45;&gt;Node83</title>
<path fill="none" stroke="midnightblue" d="M362.066,-141.587C379.413,-146.47 400.702,-152.462 419.249,-157.683"/>
<polygon fill="midnightblue" stroke="midnightblue" points="418.37,-161.071 428.945,-160.412 420.267,-154.333 418.37,-161.071"/>
</g>
<!-- Node82&#45;&gt;Node84 -->
<g id="edge8" class="edge"><title>Node82&#45;&gt;Node84</title>
<path fill="none" stroke="midnightblue" d="M363.788,-141.556C370.445,-144.1 377.141,-147.221 383,-150.998 402.555,-163.601 399.932,-175.67 419,-188.998 421.511,-190.752 424.209,-192.395 426.989,-193.923"/>
<polygon fill="midnightblue" stroke="midnightblue" points="425.505,-197.093 436.019,-198.4 428.615,-190.822 425.505,-197.093"/>
</g>
<!-- Node82&#45;&gt;Node93 -->
<g id="edge17" class="edge"><title>Node82&#45;&gt;Node93</title>
<path fill="none" stroke="midnightblue" d="M362.066,-122.409C380.558,-117.204 403.528,-110.738 422.881,-105.29"/>
<polygon fill="midnightblue" stroke="midnightblue" points="423.952,-108.625 432.63,-102.546 422.055,-101.887 423.952,-108.625"/>
</g>
<!-- Node82&#45;&gt;Node94 -->
<g id="edge18" class="edge"><title>Node82&#45;&gt;Node94</title>
<path fill="none" stroke="midnightblue" d="M381.662,-131.998C430.568,-131.998 501.568,-131.998 544.74,-131.998"/>
<polygon fill="midnightblue" stroke="midnightblue" points="544.823,-135.498 554.823,-131.998 544.823,-128.498 544.823,-135.498"/>
</g>
<!-- Node82&#45;&gt;Node95 -->
<g id="edge21" class="edge"><title>Node82&#45;&gt;Node95</title>
<path fill="none" stroke="midnightblue" d="M341.794,-122.43C359.292,-110.513 390.613,-89.9068 419,-74.9977 422.366,-73.2301 425.931,-71.4882 429.518,-69.8193"/>
<polygon fill="midnightblue" stroke="midnightblue" points="431.242,-72.8823 438.942,-65.6039 428.384,-66.4925 431.242,-72.8823"/>
</g>
<!-- Node85 -->
<g id="node8" class="node"><title>Node85</title>
<g id="a_node8"><a xlink:href="esp-open-lwip_2include_2lwip_2mem_8h.html#a1cb005c6c44b685b8025b329a6d2bcd4" target="_top" xlink:title="mem_malloc">
<polygon fill="white" stroke="black" points="547.5,-198.498 547.5,-217.498 619.5,-217.498 619.5,-198.498 547.5,-198.498"/>
<text text-anchor="middle" x="583.5" y="-205.498" font-family="Helvetica,sans-Serif" font-size="10.00">mem_malloc</text>
</a>
</g>
</g>
<!-- Node84&#45;&gt;Node85 -->
<g id="edge9" class="edge"><title>Node84&#45;&gt;Node85</title>
<path fill="none" stroke="midnightblue" d="M494.65,-207.998C507.561,-207.998 522.98,-207.998 537.271,-207.998"/>
<polygon fill="midnightblue" stroke="midnightblue" points="537.425,-211.498 547.425,-207.998 537.425,-204.498 537.425,-211.498"/>
</g>
<!-- Node88 -->
<g id="node11" class="node"><title>Node88</title>
<g id="a_node11"><a xlink:href="memp_8h.html#a5b98c976852aa0eabda9fd588be56eb8" target="_top" xlink:title="memp_malloc">
<polygon fill="white" stroke="black" points="545,-236.498 545,-255.498 622,-255.498 622,-236.498 545,-236.498"/>
<text text-anchor="middle" x="583.5" y="-243.498" font-family="Helvetica,sans-Serif" font-size="10.00">memp_malloc</text>
</a>
</g>
</g>
<!-- Node84&#45;&gt;Node88 -->
<g id="edge12" class="edge"><title>Node84&#45;&gt;Node88</title>
<path fill="none" stroke="midnightblue" d="M494.65,-217.587C509.401,-222.357 527.426,-228.186 543.301,-233.321"/>
<polygon fill="midnightblue" stroke="midnightblue" points="542.267,-236.665 552.859,-236.412 544.421,-230.004 542.267,-236.665"/>
</g>
<!-- Node89 -->
<g id="node12" class="node"><title>Node89</title>
<g id="a_node12"><a xlink:href="pbuf_8c.html#ab0dd696fb4b6bc65e548944584f1738b" target="_top" xlink:title="pbuf_free">
<polygon fill="white" stroke="black" points="555,-160.498 555,-179.498 612,-179.498 612,-160.498 555,-160.498"/>
<text text-anchor="middle" x="583.5" y="-167.498" font-family="Helvetica,sans-Serif" font-size="10.00">pbuf_free</text>
</a>
</g>
</g>
<!-- Node84&#45;&gt;Node89 -->
<g id="edge13" class="edge"><title>Node84&#45;&gt;Node89</title>
<path fill="none" stroke="midnightblue" d="M494.65,-198.409C509.964,-193.456 528.806,-187.362 545.109,-182.09"/>
<polygon fill="midnightblue" stroke="midnightblue" points="546.439,-185.338 554.877,-178.931 544.285,-178.678 546.439,-185.338"/>
</g>
<!-- Node86 -->
<g id="node9" class="node"><title>Node86</title>
<g id="a_node9"><a xlink:href="sys_8h.html#a4d4eb9afe5965fa2661dd54ff55d616a" target="_top" xlink:title="sys_mutex_lock">
<polygon fill="white" stroke="black" points="663,-236.498 663,-255.498 751,-255.498 751,-236.498 663,-236.498"/>
<text text-anchor="middle" x="707" y="-243.498" font-family="Helvetica,sans-Serif" font-size="10.00">sys_mutex_lock</text>
</a>
</g>
</g>
<!-- Node85&#45;&gt;Node86 -->
<g id="edge10" class="edge"><title>Node85&#45;&gt;Node86</title>
<path fill="none" stroke="midnightblue" d="M615.16,-217.587C630.412,-222.357 649.051,-228.186 665.467,-233.321"/>
<polygon fill="midnightblue" stroke="midnightblue" points="664.761,-236.767 675.35,-236.412 666.851,-230.086 664.761,-236.767"/>
</g>
<!-- Node87 -->
<g id="node10" class="node"><title>Node87</title>
<g id="a_node10"><a xlink:href="sys_8h.html#a5568f68898fe9d5735f9ce2f665624fb" target="_top" xlink:title="sys_mutex_unlock">
<polygon fill="white" stroke="black" points="658,-198.498 658,-217.498 756,-217.498 756,-198.498 658,-198.498"/>
<text text-anchor="middle" x="707" y="-205.498" font-family="Helvetica,sans-Serif" font-size="10.00">sys_mutex_unlock</text>
</a>
</g>
</g>
<!-- Node85&#45;&gt;Node87 -->
<g id="edge11" class="edge"><title>Node85&#45;&gt;Node87</title>
<path fill="none" stroke="midnightblue" d="M619.643,-207.998C628.393,-207.998 638.01,-207.998 647.551,-207.998"/>
<polygon fill="midnightblue" stroke="midnightblue" points="647.83,-211.498 657.83,-207.998 647.83,-204.498 647.83,-211.498"/>
</g>
<!-- Node90 -->
<g id="node13" class="node"><title>Node90</title>
<g id="a_node13"><a xlink:href="memp_8h.html#a9d30a969401eb0626105950d6e63f3bf" target="_top" xlink:title="memp_free">
<polygon fill="white" stroke="black" points="674.5,-160.498 674.5,-179.498 739.5,-179.498 739.5,-160.498 674.5,-160.498"/>
<text text-anchor="middle" x="707" y="-167.498" font-family="Helvetica,sans-Serif" font-size="10.00">memp_free</text>
</a>
</g>
</g>
<!-- Node89&#45;&gt;Node90 -->
<g id="edge14" class="edge"><title>Node89&#45;&gt;Node90</title>
<path fill="none" stroke="midnightblue" d="M612.07,-169.998C627.377,-169.998 646.738,-169.998 663.9,-169.998"/>
<polygon fill="midnightblue" stroke="midnightblue" points="664.246,-173.498 674.246,-169.998 664.246,-166.498 664.246,-173.498"/>
</g>
<!-- Node91 -->
<g id="node14" class="node"><title>Node91</title>
<g id="a_node14"><a xlink:href="esp-open-lwip_2include_2lwip_2mem_8h.html#ab270bbe39e1996d7095be3a139620ce0" target="_top" xlink:title="mem_free">
<polygon fill="white" stroke="black" points="677,-122.498 677,-141.498 737,-141.498 737,-122.498 677,-122.498"/>
<text text-anchor="middle" x="707" y="-129.498" font-family="Helvetica,sans-Serif" font-size="10.00">mem_free</text>
</a>
</g>
</g>
<!-- Node89&#45;&gt;Node91 -->
<g id="edge15" class="edge"><title>Node89&#45;&gt;Node91</title>
<path fill="none" stroke="midnightblue" d="M612.07,-161.375C628.375,-156.276 649.279,-149.737 667.226,-144.124"/>
<polygon fill="midnightblue" stroke="midnightblue" points="668.345,-147.442 676.845,-141.116 666.256,-140.761 668.345,-147.442"/>
</g>
<!-- Node92 -->
<g id="node15" class="node"><title>Node92</title>
<g id="a_node15"><a xlink:href="mem_8c.html#a24221009a2c00e9c3fa63eaa9444a076" target="_top" xlink:title="plug_holes">
<polygon fill="white" stroke="black" points="792,-122.498 792,-141.498 855,-141.498 855,-122.498 792,-122.498"/>
<text text-anchor="middle" x="823.5" y="-129.498" font-family="Helvetica,sans-Serif" font-size="10.00">plug_holes</text>
</a>
</g>
</g>
<!-- Node91&#45;&gt;Node92 -->
<g id="edge16" class="edge"><title>Node91&#45;&gt;Node92</title>
<path fill="none" stroke="midnightblue" d="M737.189,-131.998C750.625,-131.998 766.8,-131.998 781.437,-131.998"/>
<polygon fill="midnightblue" stroke="midnightblue" points="781.762,-135.498 791.762,-131.998 781.762,-128.498 781.762,-135.498"/>
</g>
<!-- Node94&#45;&gt;Node90 -->
<g id="edge20" class="edge"><title>Node94&#45;&gt;Node90</title>
<path fill="none" stroke="midnightblue" d="M612.07,-140.62C627.873,-145.563 647.996,-151.857 665.56,-157.35"/>
<polygon fill="midnightblue" stroke="midnightblue" points="664.965,-160.831 675.554,-160.475 667.054,-154.15 664.965,-160.831"/>
</g>
<!-- Node94&#45;&gt;Node91 -->
<g id="edge19" class="edge"><title>Node94&#45;&gt;Node91</title>
<path fill="none" stroke="midnightblue" d="M612.07,-131.998C628.224,-131.998 648.893,-131.998 666.727,-131.998"/>
<polygon fill="midnightblue" stroke="midnightblue" points="666.845,-135.498 676.845,-131.998 666.845,-128.498 666.845,-135.498"/>
</g>
</g>
</svg>
