<?xml version="1.0" encoding="UTF-8" standalone="no"?>
<!DOCTYPE svg PUBLIC "-//W3C//DTD SVG 1.1//EN"
 "http://www.w3.org/Graphics/SVG/1.1/DTD/svg11.dtd">
<!-- Generated by graphviz version 2.38.0 (20140413.2041)
 -->
<!-- Title: espconn_list_creat Pages: 1 -->
<svg width="513pt" height="142pt"
 viewBox="0.00 0.00 513.00 142.00" xmlns="http://www.w3.org/2000/svg" xmlns:xlink="http://www.w3.org/1999/xlink">
<g id="graph0" class="graph" transform="scale(1 1) rotate(0) translate(4 138)">
<title>espconn_list_creat</title>
<polygon fill="white" stroke="none" points="-4,4 -4,-138 509,-138 509,4 -4,4"/>
<!-- Node202 -->
<g id="node1" class="node"><title>Node202</title>
<polygon fill="#bfbfbf" stroke="black" points="0,-57.5 0,-76.5 98,-76.5 98,-57.5 0,-57.5"/>
<text text-anchor="middle" x="49" y="-64.5" font-family="Helvetica,sans-Serif" font-size="10.00">espconn_list_creat</text>
</g>
<!-- Node203 -->
<g id="node2" class="node"><title>Node203</title>
<g id="a_node2"><a xlink:href="espconn__tcp_8c.html#acf0ecfba42ea8bcc55836b8dccabe511" target="_top" xlink:title="espconn_tcp_accept">
<polygon fill="white" stroke="black" points="134,-114.5 134,-133.5 241,-133.5 241,-114.5 134,-114.5"/>
<text text-anchor="middle" x="187.5" y="-121.5" font-family="Helvetica,sans-Serif" font-size="10.00">espconn_tcp_accept</text>
</a>
</g>
</g>
<!-- Node202&#45;&gt;Node203 -->
<g id="edge1" class="edge"><title>Node202&#45;&gt;Node203</title>
<path fill="none" stroke="midnightblue" d="M82.2793,-80.4793C107.284,-90.9208 141.308,-105.129 163.578,-114.428"/>
<polygon fill="midnightblue" stroke="midnightblue" points="83.4235,-77.1642 72.847,-76.5405 80.7261,-83.6237 83.4235,-77.1642"/>
</g>
<!-- Node204 -->
<g id="node3" class="node"><title>Node204</title>
<g id="a_node3"><a xlink:href="espconn__tcp_8c.html#ace125fa28aced169fba2b955f1ce76fb" target="_top" xlink:title="espconn_tcp_server">
<polygon fill="white" stroke="black" points="277,-95.5 277,-114.5 381,-114.5 381,-95.5 277,-95.5"/>
<text text-anchor="middle" x="329" y="-102.5" font-family="Helvetica,sans-Serif" font-size="10.00">espconn_tcp_server</text>
</a>
</g>
</g>
<!-- Node202&#45;&gt;Node204 -->
<g id="edge6" class="edge"><title>Node202&#45;&gt;Node204</title>
<path fill="none" stroke="midnightblue" d="M108.084,-74.9396C157.896,-81.7484 228.979,-91.4647 276.718,-97.9902"/>
<polygon fill="midnightblue" stroke="midnightblue" points="108.488,-71.4624 98.1065,-73.5757 107.54,-78.3979 108.488,-71.4624"/>
</g>
<!-- Node206 -->
<g id="node5" class="node"><title>Node206</title>
<g id="a_node5"><a xlink:href="espconn__tcp_8c.html#afe66d17cd3c4b5ca9959287aec4db38b" target="_top" xlink:title="espconn_tcp_client">
<polygon fill="white" stroke="black" points="137,-38.5 137,-57.5 238,-57.5 238,-38.5 137,-38.5"/>
<text text-anchor="middle" x="187.5" y="-45.5" font-family="Helvetica,sans-Serif" font-size="10.00">espconn_tcp_client</text>
</a>
</g>
</g>
<!-- Node202&#45;&gt;Node206 -->
<g id="edge4" class="edge"><title>Node202&#45;&gt;Node206</title>
<path fill="none" stroke="midnightblue" d="M108.332,-58.8805C117.867,-57.5533 127.667,-56.1892 136.964,-54.8951"/>
<polygon fill="midnightblue" stroke="midnightblue" points="107.547,-55.456 98.1248,-60.3013 108.512,-62.3892 107.547,-55.456"/>
</g>
<!-- Node208 -->
<g id="node7" class="node"><title>Node208</title>
<g id="a_node7"><a xlink:href="espconn__udp_8c.html#a9bec8b8f0b6b24ef4f29f4294e1f129c" target="_top" xlink:title="espconn_udp_server">
<polygon fill="white" stroke="black" points="134,-0.5 134,-19.5 241,-19.5 241,-0.5 134,-0.5"/>
<text text-anchor="middle" x="187.5" y="-7.5" font-family="Helvetica,sans-Serif" font-size="10.00">espconn_udp_server</text>
</a>
</g>
</g>
<!-- Node202&#45;&gt;Node208 -->
<g id="edge7" class="edge"><title>Node202&#45;&gt;Node208</title>
<path fill="none" stroke="midnightblue" d="M79.2177,-53.1096C95.2588,-45.6544 115.581,-36.4862 134,-29 141.992,-25.7518 150.772,-22.4657 158.827,-19.5606"/>
<polygon fill="midnightblue" stroke="midnightblue" points="77.4115,-50.0905 69.8383,-57.4998 80.379,-56.4304 77.4115,-50.0905"/>
</g>
<!-- Node203&#45;&gt;Node204 -->
<g id="edge2" class="edge"><title>Node203&#45;&gt;Node204</title>
<path fill="none" stroke="midnightblue" d="M251.409,-115.432C259.828,-114.285 268.382,-113.12 276.572,-112.004"/>
<polygon fill="midnightblue" stroke="midnightblue" points="250.675,-111.999 241.239,-116.817 251.62,-118.935 250.675,-111.999"/>
</g>
<!-- Node205 -->
<g id="node4" class="node"><title>Node205</title>
<g id="a_node4"><a xlink:href="sdk_2include_2espconn_8h.html#abd44446e3fc4a61fdef77d473deb678b" target="_top" xlink:title="espconn_accept">
<polygon fill="white" stroke="black" points="417,-95.5 417,-114.5 505,-114.5 505,-95.5 417,-95.5"/>
<text text-anchor="middle" x="461" y="-102.5" font-family="Helvetica,sans-Serif" font-size="10.00">espconn_accept</text>
</a>
</g>
</g>
<!-- Node204&#45;&gt;Node205 -->
<g id="edge3" class="edge"><title>Node204&#45;&gt;Node205</title>
<path fill="none" stroke="midnightblue" d="M391.086,-105C399.74,-105 408.487,-105 416.71,-105"/>
<polygon fill="midnightblue" stroke="midnightblue" points="391.006,-101.5 381.006,-105 391.006,-108.5 391.006,-101.5"/>
</g>
<!-- Node207 -->
<g id="node6" class="node"><title>Node207</title>
<g id="a_node6"><a xlink:href="sdk_2include_2espconn_8h.html#a949cd618667cea85b1b99d14b90dce7d" target="_top" xlink:title="espconn_connect">
<polygon fill="white" stroke="black" points="282.5,-38.5 282.5,-57.5 375.5,-57.5 375.5,-38.5 282.5,-38.5"/>
<text text-anchor="middle" x="329" y="-45.5" font-family="Helvetica,sans-Serif" font-size="10.00">espconn_connect</text>
</a>
</g>
</g>
<!-- Node206&#45;&gt;Node207 -->
<g id="edge5" class="edge"><title>Node206&#45;&gt;Node207</title>
<path fill="none" stroke="midnightblue" d="M248.379,-48C259.746,-48 271.47,-48 282.31,-48"/>
<polygon fill="midnightblue" stroke="midnightblue" points="248.075,-44.5001 238.075,-48 248.075,-51.5001 248.075,-44.5001"/>
</g>
<!-- Node209 -->
<g id="node8" class="node"><title>Node209</title>
<g id="a_node8"><a xlink:href="sdk_2include_2espconn_8h.html#ad55b9729c7629f40c8e7ae2d73f7f174" target="_top" xlink:title="espconn_create">
<polygon fill="white" stroke="black" points="286,-0.5 286,-19.5 372,-19.5 372,-0.5 286,-0.5"/>
<text text-anchor="middle" x="329" y="-7.5" font-family="Helvetica,sans-Serif" font-size="10.00">espconn_create</text>
</a>
</g>
</g>
<!-- Node208&#45;&gt;Node209 -->
<g id="edge8" class="edge"><title>Node208&#45;&gt;Node209</title>
<path fill="none" stroke="midnightblue" d="M251.335,-10C262.936,-10 274.794,-10 285.61,-10"/>
<polygon fill="midnightblue" stroke="midnightblue" points="251.239,-6.5001 241.239,-10 251.239,-13.5001 251.239,-6.5001"/>
</g>
</g>
</svg>
