<?xml version="1.0" encoding="UTF-8" standalone="no"?>
<!DOCTYPE svg PUBLIC "-//W3C//DTD SVG 1.1//EN"
 "http://www.w3.org/Graphics/SVG/1.1/DTD/svg11.dtd">
<!-- Generated by graphviz version 2.38.0 (20140413.2041)
 -->
<!-- Title: espconn_server_poll Pages: 1 -->
<svg width="785pt" height="123pt"
 viewBox="0.00 0.00 785.00 123.00" xmlns="http://www.w3.org/2000/svg" xmlns:xlink="http://www.w3.org/1999/xlink">
<g id="graph0" class="graph" transform="scale(1 1) rotate(0) translate(4 119)">
<title>espconn_server_poll</title>
<polygon fill="white" stroke="none" points="-4,4 -4,-119 781,-119 781,4 -4,4"/>
<!-- Node138 -->
<g id="node1" class="node"><title>Node138</title>
<polygon fill="#bfbfbf" stroke="black" points="0,-57.5 0,-76.5 106,-76.5 106,-57.5 0,-57.5"/>
<text text-anchor="middle" x="53" y="-64.5" font-family="Helvetica,sans-Serif" font-size="10.00">espconn_server_poll</text>
</g>
<!-- Node139 -->
<g id="node2" class="node"><title>Node139</title>
<g id="a_node2"><a xlink:href="espconn__tcp_8c.html#a1c87d6afab08e5f7f51a212a20547dee" target="_top" xlink:title="espconn_server_close">
<polygon fill="white" stroke="black" points="142,-57.5 142,-76.5 256,-76.5 256,-57.5 142,-57.5"/>
<text text-anchor="middle" x="199" y="-64.5" font-family="Helvetica,sans-Serif" font-size="10.00">espconn_server_close</text>
</a>
</g>
</g>
<!-- Node138&#45;&gt;Node139 -->
<g id="edge1" class="edge"><title>Node138&#45;&gt;Node139</title>
<path fill="none" stroke="midnightblue" d="M106.395,-67C114.513,-67 122.991,-67 131.372,-67"/>
<polygon fill="midnightblue" stroke="midnightblue" points="131.515,-70.5001 141.515,-67 131.515,-63.5001 131.515,-70.5001"/>
</g>
<!-- Node140 -->
<g id="node3" class="node"><title>Node140</title>
<g id="a_node3"><a xlink:href="espconn__tcp_8c.html#afc71eebe6b5059ad2b6503c328e8d8c5" target="_top" xlink:title="espconn_server_recv">
<polygon fill="white" stroke="black" points="292,-57.5 292,-76.5 402,-76.5 402,-57.5 292,-57.5"/>
<text text-anchor="middle" x="347" y="-64.5" font-family="Helvetica,sans-Serif" font-size="10.00">espconn_server_recv</text>
</a>
</g>
</g>
<!-- Node139&#45;&gt;Node140 -->
<g id="edge2" class="edge"><title>Node139&#45;&gt;Node140</title>
<path fill="none" stroke="midnightblue" d="M256.03,-60.4148C264.377,-60.25 273.037,-60.2088 281.541,-60.2912"/>
<polygon fill="midnightblue" stroke="midnightblue" points="281.75,-63.7949 291.804,-60.4531 281.86,-56.7957 281.75,-63.7949"/>
</g>
<!-- Node140&#45;&gt;Node139 -->
<g id="edge9" class="edge"><title>Node140&#45;&gt;Node139</title>
<path fill="none" stroke="midnightblue" d="M291.804,-73.5469C283.414,-73.7319 274.669,-73.7905 266.054,-73.7228"/>
<polygon fill="midnightblue" stroke="midnightblue" points="266.077,-70.2228 256.03,-73.5852 265.981,-77.2222 266.077,-70.2228"/>
</g>
<!-- Node141 -->
<g id="node4" class="node"><title>Node141</title>
<g id="a_node4"><a xlink:href="user__interface_8h.html#a258edd68184bb78f062a3b375dca997c" target="_top" xlink:title="system_get_free_heap_size">
<polygon fill="white" stroke="black" points="438,-95.5 438,-114.5 577,-114.5 577,-95.5 438,-95.5"/>
<text text-anchor="middle" x="507.5" y="-102.5" font-family="Helvetica,sans-Serif" font-size="10.00">system_get_free_heap_size</text>
</a>
</g>
</g>
<!-- Node140&#45;&gt;Node141 -->
<g id="edge3" class="edge"><title>Node140&#45;&gt;Node141</title>
<path fill="none" stroke="midnightblue" d="M387.996,-76.589C408.912,-81.6035 434.708,-87.7881 456.886,-93.1053"/>
<polygon fill="midnightblue" stroke="midnightblue" points="456.251,-96.552 466.791,-95.4799 457.883,-89.7449 456.251,-96.552"/>
</g>
<!-- Node142 -->
<g id="node5" class="node"><title>Node142</title>
<g id="a_node5"><a xlink:href="pbuf_8h.html#ab0a418a2392133e6b18c7b19f7c04500" target="_top" xlink:title="pbuf_copy_partial">
<polygon fill="white" stroke="black" points="461,-57.5 461,-76.5 554,-76.5 554,-57.5 461,-57.5"/>
<text text-anchor="middle" x="507.5" y="-64.5" font-family="Helvetica,sans-Serif" font-size="10.00">pbuf_copy_partial</text>
</a>
</g>
</g>
<!-- Node140&#45;&gt;Node142 -->
<g id="edge4" class="edge"><title>Node140&#45;&gt;Node142</title>
<path fill="none" stroke="midnightblue" d="M402.103,-67C417.773,-67 434.906,-67 450.678,-67"/>
<polygon fill="midnightblue" stroke="midnightblue" points="450.817,-70.5001 460.817,-67 450.817,-63.5001 450.817,-70.5001"/>
</g>
<!-- Node143 -->
<g id="node6" class="node"><title>Node143</title>
<g id="a_node6"><a xlink:href="pbuf_8h.html#a0d26e00e2cf975274139d27ddabd7ed3" target="_top" xlink:title="pbuf_free">
<polygon fill="white" stroke="black" points="479,-19.5 479,-38.5 536,-38.5 536,-19.5 479,-19.5"/>
<text text-anchor="middle" x="507.5" y="-26.5" font-family="Helvetica,sans-Serif" font-size="10.00">pbuf_free</text>
</a>
</g>
</g>
<!-- Node140&#45;&gt;Node143 -->
<g id="edge5" class="edge"><title>Node140&#45;&gt;Node143</title>
<path fill="none" stroke="midnightblue" d="M387.996,-57.411C412.872,-51.4471 444.651,-43.8282 469.037,-37.9818"/>
<polygon fill="midnightblue" stroke="midnightblue" points="470.085,-41.3297 478.993,-35.5947 468.453,-34.5226 470.085,-41.3297"/>
</g>
<!-- Node144 -->
<g id="node7" class="node"><title>Node144</title>
<g id="a_node7"><a xlink:href="esp-open-lwip_2include_2lwip_2mem_8h.html#ab270bbe39e1996d7095be3a139620ce0" target="_top" xlink:title="mem_free">
<polygon fill="white" stroke="black" points="615.5,-38.5 615.5,-57.5 675.5,-57.5 675.5,-38.5 615.5,-38.5"/>
<text text-anchor="middle" x="645.5" y="-45.5" font-family="Helvetica,sans-Serif" font-size="10.00">mem_free</text>
</a>
</g>
</g>
<!-- Node143&#45;&gt;Node144 -->
<g id="edge6" class="edge"><title>Node143&#45;&gt;Node144</title>
<path fill="none" stroke="midnightblue" d="M536.022,-32.8449C555.855,-35.6158 582.912,-39.3958 605.041,-42.4874"/>
<polygon fill="midnightblue" stroke="midnightblue" points="604.748,-45.9804 615.137,-43.8978 605.717,-39.0477 604.748,-45.9804"/>
</g>
<!-- Node146 -->
<g id="node9" class="node"><title>Node146</title>
<g id="a_node9"><a xlink:href="memp_8h.html#a9d30a969401eb0626105950d6e63f3bf" target="_top" xlink:title="memp_free">
<polygon fill="white" stroke="black" points="613,-0.5 613,-19.5 678,-19.5 678,-0.5 613,-0.5"/>
<text text-anchor="middle" x="645.5" y="-7.5" font-family="Helvetica,sans-Serif" font-size="10.00">memp_free</text>
</a>
</g>
</g>
<!-- Node143&#45;&gt;Node146 -->
<g id="edge8" class="edge"><title>Node143&#45;&gt;Node146</title>
<path fill="none" stroke="midnightblue" d="M536.022,-25.1551C555.185,-22.4778 581.092,-18.8585 602.782,-15.8282"/>
<polygon fill="midnightblue" stroke="midnightblue" points="603.307,-19.289 612.727,-14.4389 602.339,-12.3563 603.307,-19.289"/>
</g>
<!-- Node145 -->
<g id="node8" class="node"><title>Node145</title>
<g id="a_node8"><a xlink:href="mem_8c.html#a24221009a2c00e9c3fa63eaa9444a076" target="_top" xlink:title="plug_holes">
<polygon fill="white" stroke="black" points="714,-38.5 714,-57.5 777,-57.5 777,-38.5 714,-38.5"/>
<text text-anchor="middle" x="745.5" y="-45.5" font-family="Helvetica,sans-Serif" font-size="10.00">plug_holes</text>
</a>
</g>
</g>
<!-- Node144&#45;&gt;Node145 -->
<g id="edge7" class="edge"><title>Node144&#45;&gt;Node145</title>
<path fill="none" stroke="midnightblue" d="M675.638,-48C684.505,-48 694.416,-48 703.896,-48"/>
<polygon fill="midnightblue" stroke="midnightblue" points="703.942,-51.5001 713.942,-48 703.942,-44.5001 703.942,-51.5001"/>
</g>
</g>
</svg>
