<?xml version="1.0" encoding="UTF-8" standalone="no"?>
<!DOCTYPE svg PUBLIC "-//W3C//DTD SVG 1.1//EN"
 "http://www.w3.org/Graphics/SVG/1.1/DTD/svg11.dtd">
<!-- Generated by graphviz version 2.38.0 (20140413.2041)
 -->
<!-- Title: esponn_server_err Pages: 1 -->
<svg width="512pt" height="28pt"
 viewBox="0.00 0.00 512.00 28.00" xmlns="http://www.w3.org/2000/svg" xmlns:xlink="http://www.w3.org/1999/xlink">
<g id="graph0" class="graph" transform="scale(1 1) rotate(0) translate(4 24)">
<title>esponn_server_err</title>
<polygon fill="white" stroke="none" points="-4,4 -4,-24 508,-24 508,4 -4,4"/>
<!-- Node348 -->
<g id="node1" class="node"><title>Node348</title>
<polygon fill="#bfbfbf" stroke="black" points="0,-0.5 0,-19.5 97,-19.5 97,-0.5 0,-0.5"/>
<text text-anchor="middle" x="48.5" y="-7.5" font-family="Helvetica,sans-Serif" font-size="10.00">esponn_server_err</text>
</g>
<!-- Node349 -->
<g id="node2" class="node"><title>Node349</title>
<g id="a_node2"><a xlink:href="espconn__tcp_8c.html#acf0ecfba42ea8bcc55836b8dccabe511" target="_top" xlink:title="espconn_tcp_accept">
<polygon fill="white" stroke="black" points="133,-0.5 133,-19.5 240,-19.5 240,-0.5 133,-0.5"/>
<text text-anchor="middle" x="186.5" y="-7.5" font-family="Helvetica,sans-Serif" font-size="10.00">espconn_tcp_accept</text>
</a>
</g>
</g>
<!-- Node348&#45;&gt;Node349 -->
<g id="edge1" class="edge"><title>Node348&#45;&gt;Node349</title>
<path fill="none" stroke="midnightblue" d="M107.209,-10C115.642,-10 124.291,-10 132.621,-10"/>
<polygon fill="midnightblue" stroke="midnightblue" points="107.066,-6.5001 97.0662,-10 107.066,-13.5001 107.066,-6.5001"/>
</g>
<!-- Node350 -->
<g id="node3" class="node"><title>Node350</title>
<g id="a_node3"><a xlink:href="espconn__tcp_8c.html#ace125fa28aced169fba2b955f1ce76fb" target="_top" xlink:title="espconn_tcp_server">
<polygon fill="white" stroke="black" points="276,-0.5 276,-19.5 380,-19.5 380,-0.5 276,-0.5"/>
<text text-anchor="middle" x="328" y="-7.5" font-family="Helvetica,sans-Serif" font-size="10.00">espconn_tcp_server</text>
</a>
</g>
</g>
<!-- Node349&#45;&gt;Node350 -->
<g id="edge2" class="edge"><title>Node349&#45;&gt;Node350</title>
<path fill="none" stroke="midnightblue" d="M250.409,-10C258.828,-10 267.382,-10 275.572,-10"/>
<polygon fill="midnightblue" stroke="midnightblue" points="250.239,-6.5001 240.239,-10 250.239,-13.5001 250.239,-6.5001"/>
</g>
<!-- Node351 -->
<g id="node4" class="node"><title>Node351</title>
<g id="a_node4"><a xlink:href="sdk_2include_2espconn_8h.html#abd44446e3fc4a61fdef77d473deb678b" target="_top" xlink:title="espconn_accept">
<polygon fill="white" stroke="black" points="416,-0.5 416,-19.5 504,-19.5 504,-0.5 416,-0.5"/>
<text text-anchor="middle" x="460" y="-7.5" font-family="Helvetica,sans-Serif" font-size="10.00">espconn_accept</text>
</a>
</g>
</g>
<!-- Node350&#45;&gt;Node351 -->
<g id="edge3" class="edge"><title>Node350&#45;&gt;Node351</title>
<path fill="none" stroke="midnightblue" d="M390.086,-10C398.74,-10 407.487,-10 415.71,-10"/>
<polygon fill="midnightblue" stroke="midnightblue" points="390.006,-6.5001 380.006,-10 390.006,-13.5001 390.006,-6.5001"/>
</g>
</g>
</svg>
