<?xml version="1.0" encoding="UTF-8" standalone="no"?>
<!DOCTYPE svg PUBLIC "-//W3C//DTD SVG 1.1//EN"
 "http://www.w3.org/Graphics/SVG/1.1/DTD/svg11.dtd">
<!-- Generated by graphviz version 2.38.0 (20140413.2041)
 -->
<!-- Title: espconn_disconnect Pages: 1 -->
<svg width="787pt" height="180pt"
 viewBox="0.00 0.00 787.00 180.00" xmlns="http://www.w3.org/2000/svg" xmlns:xlink="http://www.w3.org/1999/xlink">
<g id="graph0" class="graph" transform="scale(1 1) rotate(0) translate(4 176)">
<title>espconn_disconnect</title>
<polygon fill="white" stroke="none" points="-4,4 -4,-176 783,-176 783,4 -4,4"/>
<!-- Node135 -->
<g id="node1" class="node"><title>Node135</title>
<polygon fill="#bfbfbf" stroke="black" points="0,-76.5 0,-95.5 106,-95.5 106,-76.5 0,-76.5"/>
<text text-anchor="middle" x="53" y="-83.5" font-family="Helvetica,sans-Serif" font-size="10.00">espconn_disconnect</text>
</g>
<!-- Node136 -->
<g id="node2" class="node"><title>Node136</title>
<g id="a_node2"><a xlink:href="httpd_8c.html#a394ef39b684f0f7c1cf013dcb2b8300b" target="_top" xlink:title="httpdConnectCb">
<polygon fill="white" stroke="black" points="303,-152.5 303,-171.5 391,-171.5 391,-152.5 303,-152.5"/>
<text text-anchor="middle" x="347" y="-159.5" font-family="Helvetica,sans-Serif" font-size="10.00">httpdConnectCb</text>
</a>
</g>
</g>
<!-- Node135&#45;&gt;Node136 -->
<g id="edge1" class="edge"><title>Node135&#45;&gt;Node136</title>
<path fill="none" stroke="midnightblue" d="M72.9683,-102.202C89.8822,-115.641 115.932,-133.96 142,-143 195.266,-161.473 260.774,-164.354 302.946,-163.87"/>
<polygon fill="midnightblue" stroke="midnightblue" points="74.9624,-99.3114 65.0045,-95.6935 70.5328,-104.732 74.9624,-99.3114"/>
</g>
<!-- Node139 -->
<g id="node5" class="node"><title>Node139</title>
<g id="a_node5"><a xlink:href="httpd_8c.html#a51c1039375e19643be3aaac1e8a1c937" target="_top" xlink:title="httpdSentCb">
<polygon fill="white" stroke="black" points="157.5,-114.5 157.5,-133.5 228.5,-133.5 228.5,-114.5 157.5,-114.5"/>
<text text-anchor="middle" x="193" y="-121.5" font-family="Helvetica,sans-Serif" font-size="10.00">httpdSentCb</text>
</a>
</g>
</g>
<!-- Node135&#45;&gt;Node139 -->
<g id="edge4" class="edge"><title>Node135&#45;&gt;Node139</title>
<path fill="none" stroke="midnightblue" d="M98.473,-98.2462C117.495,-103.484 139.375,-109.509 157.188,-114.414"/>
<polygon fill="midnightblue" stroke="midnightblue" points="99.3936,-94.8695 88.8232,-95.589 97.5352,-101.618 99.3936,-94.8695"/>
</g>
<!-- Node140 -->
<g id="node6" class="node"><title>Node140</title>
<g id="a_node6"><a xlink:href="httpd_8h.html#afec8778692d2ecc547295eb197fa6fcd" target="_top" xlink:title="httpdStop">
<polygon fill="white" stroke="black" points="163.5,-76.5 163.5,-95.5 222.5,-95.5 222.5,-76.5 163.5,-76.5"/>
<text text-anchor="middle" x="193" y="-83.5" font-family="Helvetica,sans-Serif" font-size="10.00">httpdStop</text>
</a>
</g>
</g>
<!-- Node135&#45;&gt;Node140 -->
<g id="edge6" class="edge"><title>Node135&#45;&gt;Node140</title>
<path fill="none" stroke="midnightblue" d="M116.302,-86C132.731,-86 149.672,-86 163.351,-86"/>
<polygon fill="midnightblue" stroke="midnightblue" points="116.172,-82.5001 106.172,-86 116.172,-89.5001 116.172,-82.5001"/>
</g>
<!-- Node146 -->
<g id="node12" class="node"><title>Node146</title>
<g id="a_node12"><a xlink:href="mqtt_8c.html#a9d88fa6efb9163d4dbf9dc750a8d4ed0" target="_top" xlink:title="MQTT_Task">
<polygon fill="white" stroke="black" points="578.5,-19.5 578.5,-38.5 649.5,-38.5 649.5,-19.5 578.5,-19.5"/>
<text text-anchor="middle" x="614" y="-26.5" font-family="Helvetica,sans-Serif" font-size="10.00">MQTT_Task</text>
</a>
</g>
</g>
<!-- Node135&#45;&gt;Node146 -->
<g id="edge13" class="edge"><title>Node135&#45;&gt;Node146</title>
<path fill="none" stroke="midnightblue" d="M102.733,-74.2777C115.453,-71.5485 129.189,-68.8913 142,-67 304.111,-43.067 499.997,-33.3471 578.254,-30.2312"/>
<polygon fill="midnightblue" stroke="midnightblue" points="101.799,-70.8995 92.7862,-76.4688 103.305,-77.7356 101.799,-70.8995"/>
</g>
<!-- Node148 -->
<g id="node14" class="node"><title>Node148</title>
<g id="a_node14"><a xlink:href="mqtt_8c.html#af470856972320b9c02da9fcb6f419fd0" target="_top" xlink:title="Client received callback function. ">
<polygon fill="white" stroke="black" points="142,-0.5 142,-19.5 244,-19.5 244,-0.5 142,-0.5"/>
<text text-anchor="middle" x="193" y="-7.5" font-family="Helvetica,sans-Serif" font-size="10.00">mqtt_tcpclient_recv</text>
</a>
</g>
</g>
<!-- Node135&#45;&gt;Node148 -->
<g id="edge15" class="edge"><title>Node135&#45;&gt;Node148</title>
<path fill="none" stroke="midnightblue" d="M78.3092,-70.8702C95.8008,-60.173 120.077,-45.7109 142,-34 151.342,-29.0096 161.888,-23.8766 170.877,-19.645"/>
<polygon fill="midnightblue" stroke="midnightblue" points="76.0303,-68.1629 69.3476,-76.3844 79.6987,-74.1247 76.0303,-68.1629"/>
</g>
<!-- Node137 -->
<g id="node3" class="node"><title>Node137</title>
<g id="a_node3"><a xlink:href="httpd_8h.html#a74eb356c950228c2f024f081f7beb830" target="_top" xlink:title="httpdInit">
<polygon fill="white" stroke="black" points="468,-152.5 468,-171.5 520,-171.5 520,-152.5 468,-152.5"/>
<text text-anchor="middle" x="494" y="-159.5" font-family="Helvetica,sans-Serif" font-size="10.00">httpdInit</text>
</a>
</g>
</g>
<!-- Node136&#45;&gt;Node137 -->
<g id="edge2" class="edge"><title>Node136&#45;&gt;Node137</title>
<path fill="none" stroke="midnightblue" d="M401.353,-162C424.136,-162 449.636,-162 467.942,-162"/>
<polygon fill="midnightblue" stroke="midnightblue" points="401.112,-158.5 391.112,-162 401.112,-165.5 401.112,-158.5"/>
</g>
<!-- Node138 -->
<g id="node4" class="node"><title>Node138</title>
<g id="a_node4"><a xlink:href="httpd__user__init_8h.html#a6abf56883c8e03334f42bfb79aa8b095" target="_top" xlink:title="httpd_user_init">
<polygon fill="white" stroke="black" points="574,-152.5 574,-171.5 654,-171.5 654,-152.5 574,-152.5"/>
<text text-anchor="middle" x="614" y="-159.5" font-family="Helvetica,sans-Serif" font-size="10.00">httpd_user_init</text>
</a>
</g>
</g>
<!-- Node137&#45;&gt;Node138 -->
<g id="edge3" class="edge"><title>Node137&#45;&gt;Node138</title>
<path fill="none" stroke="midnightblue" d="M530.036,-162C543.739,-162 559.52,-162 573.615,-162"/>
<polygon fill="midnightblue" stroke="midnightblue" points="530.025,-158.5 520.025,-162 530.025,-165.5 530.025,-158.5"/>
</g>
<!-- Node139&#45;&gt;Node136 -->
<g id="edge5" class="edge"><title>Node139&#45;&gt;Node136</title>
<path fill="none" stroke="midnightblue" d="M238.632,-135.158C260.598,-140.649 286.803,-147.201 307.826,-152.456"/>
<polygon fill="midnightblue" stroke="midnightblue" points="239.422,-131.748 228.872,-132.718 237.724,-138.539 239.422,-131.748"/>
</g>
<!-- Node141 -->
<g id="node7" class="node"><title>Node141</title>
<g id="a_node7"><a xlink:href="httpd_8c.html#aecb06813eefe322c349651aa5e1316f5" target="_top" xlink:title="httpdDisconnectTimerFunc">
<polygon fill="white" stroke="black" points="280,-114.5 280,-133.5 414,-133.5 414,-114.5 280,-114.5"/>
<text text-anchor="middle" x="347" y="-121.5" font-family="Helvetica,sans-Serif" font-size="10.00">httpdDisconnectTimerFunc</text>
</a>
</g>
</g>
<!-- Node140&#45;&gt;Node141 -->
<g id="edge7" class="edge"><title>Node140&#45;&gt;Node141</title>
<path fill="none" stroke="midnightblue" d="M232.742,-89.7154C262.785,-95.8589 303.15,-106.381 326.694,-114.495"/>
<polygon fill="midnightblue" stroke="midnightblue" points="233.075,-86.2145 222.59,-87.7361 231.735,-93.0851 233.075,-86.2145"/>
</g>
<!-- Node142 -->
<g id="node8" class="node"><title>Node142</title>
<g id="a_node8"><a xlink:href="utils_8h.html#abc584694613811efea7c661c9dcefe17" target="_top" xlink:title="system_restart_defered">
<polygon fill="white" stroke="black" points="287.5,-76.5 287.5,-95.5 406.5,-95.5 406.5,-76.5 287.5,-76.5"/>
<text text-anchor="middle" x="347" y="-83.5" font-family="Helvetica,sans-Serif" font-size="10.00">system_restart_defered</text>
</a>
</g>
</g>
<!-- Node140&#45;&gt;Node142 -->
<g id="edge9" class="edge"><title>Node140&#45;&gt;Node142</title>
<path fill="none" stroke="midnightblue" d="M232.958,-86C249.484,-86 269.104,-86 287.321,-86"/>
<polygon fill="midnightblue" stroke="midnightblue" points="232.59,-82.5001 222.59,-86 232.59,-89.5001 232.59,-82.5001"/>
</g>
<!-- Node141&#45;&gt;Node140 -->
<g id="edge8" class="edge"><title>Node141&#45;&gt;Node140</title>
<path fill="none" stroke="midnightblue" d="M271.289,-112.071C249.933,-106.761 228.44,-100.705 213.56,-95.5924"/>
<polygon fill="midnightblue" stroke="midnightblue" points="270.524,-115.487 281.068,-114.453 272.18,-108.686 270.524,-115.487"/>
</g>
<!-- Node143 -->
<g id="node9" class="node"><title>Node143</title>
<g id="a_node9"><a xlink:href="cgiwifi_8c.html#a9d53126c0a5bdeb1318f081f1cca3a84" target="_top" xlink:title="resetTimerCb">
<polygon fill="white" stroke="black" points="456,-114.5 456,-133.5 532,-133.5 532,-114.5 456,-114.5"/>
<text text-anchor="middle" x="494" y="-121.5" font-family="Helvetica,sans-Serif" font-size="10.00">resetTimerCb</text>
</a>
</g>
</g>
<!-- Node142&#45;&gt;Node143 -->
<g id="edge10" class="edge"><title>Node142&#45;&gt;Node143</title>
<path fill="none" stroke="midnightblue" d="M394.493,-98.1843C414.624,-103.46 437.838,-109.544 456.673,-114.48"/>
<polygon fill="midnightblue" stroke="midnightblue" points="395.15,-94.7385 384.59,-95.589 393.376,-101.51 395.15,-94.7385"/>
</g>
<!-- Node145 -->
<g id="node11" class="node"><title>Node145</title>
<g id="a_node11"><a xlink:href="mqtt__rpc_8h.html#ae3c71a438ecea4bb271bd1586af59452" target="_top" xlink:title="mqtt_rpc_restart">
<polygon fill="white" stroke="black" points="450,-76.5 450,-95.5 538,-95.5 538,-76.5 450,-76.5"/>
<text text-anchor="middle" x="494" y="-83.5" font-family="Helvetica,sans-Serif" font-size="10.00">mqtt_rpc_restart</text>
</a>
</g>
</g>
<!-- Node142&#45;&gt;Node145 -->
<g id="edge12" class="edge"><title>Node142&#45;&gt;Node145</title>
<path fill="none" stroke="midnightblue" d="M416.823,-86C428.07,-86 439.436,-86 449.833,-86"/>
<polygon fill="midnightblue" stroke="midnightblue" points="416.559,-82.5001 406.559,-86 416.559,-89.5001 416.559,-82.5001"/>
</g>
<!-- Node144 -->
<g id="node10" class="node"><title>Node144</title>
<g id="a_node10"><a xlink:href="cgiwifi_8h.html#a7c655a56f56ecebad923c5c4daeb7f1a" target="_top" xlink:title="cgiSetup">
<polygon fill="white" stroke="black" points="586.5,-114.5 586.5,-133.5 641.5,-133.5 641.5,-114.5 586.5,-114.5"/>
<text text-anchor="middle" x="614" y="-121.5" font-family="Helvetica,sans-Serif" font-size="10.00">cgiSetup</text>
</a>
</g>
</g>
<!-- Node143&#45;&gt;Node144 -->
<g id="edge11" class="edge"><title>Node143&#45;&gt;Node144</title>
<path fill="none" stroke="midnightblue" d="M542.167,-124C557.153,-124 573.201,-124 586.226,-124"/>
<polygon fill="midnightblue" stroke="midnightblue" points="542.012,-120.5 532.012,-124 542.012,-127.5 542.012,-120.5"/>
</g>
<!-- Node147 -->
<g id="node13" class="node"><title>Node147</title>
<g id="a_node13"><a xlink:href="mqtt_8c.html#a25cb7ac079d1d119250dac075c45acf1" target="_top" xlink:title="MQTT initialization mqtt client function. ">
<polygon fill="white" stroke="black" points="690,-19.5 690,-38.5 779,-38.5 779,-19.5 690,-19.5"/>
<text text-anchor="middle" x="734.5" y="-26.5" font-family="Helvetica,sans-Serif" font-size="10.00">MQTT_InitClient</text>
</a>
</g>
</g>
<!-- Node146&#45;&gt;Node147 -->
<g id="edge14" class="edge"><title>Node146&#45;&gt;Node147</title>
<path fill="none" stroke="midnightblue" d="M659.625,-29C669.5,-29 679.953,-29 689.79,-29"/>
<polygon fill="midnightblue" stroke="midnightblue" points="659.594,-25.5001 649.594,-29 659.594,-32.5001 659.594,-25.5001"/>
</g>
<!-- Node149 -->
<g id="node15" class="node"><title>Node149</title>
<g id="a_node15"><a xlink:href="mqtt_8c.html#a36ecd969af1b9c87856f01be064a98cc" target="_top" xlink:title="Tcp client connect success callback function. ">
<polygon fill="white" stroke="black" points="280,-0.5 280,-19.5 414,-19.5 414,-0.5 280,-0.5"/>
<text text-anchor="middle" x="347" y="-7.5" font-family="Helvetica,sans-Serif" font-size="10.00">mqtt_tcpclient_connect_cb</text>
</a>
</g>
</g>
<!-- Node148&#45;&gt;Node149 -->
<g id="edge16" class="edge"><title>Node148&#45;&gt;Node149</title>
<path fill="none" stroke="midnightblue" d="M254.282,-10C262.687,-10 271.36,-10 279.866,-10"/>
<polygon fill="midnightblue" stroke="midnightblue" points="254.192,-6.5001 244.192,-10 254.192,-13.5001 254.192,-6.5001"/>
</g>
<!-- Node150 -->
<g id="node16" class="node"><title>Node150</title>
<g id="a_node16"><a xlink:href="mqtt_8c.html#ad34b681cb2f7473d8fc786c7ed468db5" target="_top" xlink:title="Begin connect to MQTT broker. ">
<polygon fill="white" stroke="black" points="451,-0.5 451,-19.5 537,-19.5 537,-0.5 451,-0.5"/>
<text text-anchor="middle" x="494" y="-7.5" font-family="Helvetica,sans-Serif" font-size="10.00">MQTT_Connect</text>
</a>
</g>
</g>
<!-- Node149&#45;&gt;Node150 -->
<g id="edge17" class="edge"><title>Node149&#45;&gt;Node150</title>
<path fill="none" stroke="midnightblue" d="M424.332,-10C433.361,-10 442.31,-10 450.617,-10"/>
<polygon fill="midnightblue" stroke="midnightblue" points="424.135,-6.5001 414.135,-10 424.135,-13.5001 424.135,-6.5001"/>
</g>
<!-- Node150&#45;&gt;Node146 -->
<g id="edge18" class="edge"><title>Node150&#45;&gt;Node146</title>
<path fill="none" stroke="midnightblue" d="M547.248,-18.4129C557.798,-20.1116 568.64,-21.8574 578.401,-23.429"/>
<polygon fill="midnightblue" stroke="midnightblue" points="547.697,-14.9401 537.267,-16.8058 546.584,-21.851 547.697,-14.9401"/>
</g>
</g>
</svg>
