<?xml version="1.0" encoding="UTF-8" standalone="no"?>
<!DOCTYPE svg PUBLIC "-//W3C//DTD SVG 1.1//EN"
 "http://www.w3.org/Graphics/SVG/1.1/DTD/svg11.dtd">
<!-- Generated by graphviz version 2.38.0 (20140413.2041)
 -->
<!-- Title: espconn_client_recv Pages: 1 -->
<svg width="1085pt" height="104pt"
 viewBox="0.00 0.00 1085.00 104.00" xmlns="http://www.w3.org/2000/svg" xmlns:xlink="http://www.w3.org/1999/xlink">
<g id="graph0" class="graph" transform="scale(1 1) rotate(0) translate(4 100)">
<title>espconn_client_recv</title>
<polygon fill="white" stroke="none" points="-4,4 -4,-100 1081,-100 1081,4 -4,4"/>
<!-- Node48 -->
<g id="node1" class="node"><title>Node48</title>
<polygon fill="#bfbfbf" stroke="black" points="0,-38.5 0,-57.5 106,-57.5 106,-38.5 0,-38.5"/>
<text text-anchor="middle" x="53" y="-45.5" font-family="Helvetica,sans-Serif" font-size="10.00">espconn_client_recv</text>
</g>
<!-- Node49 -->
<g id="node2" class="node"><title>Node49</title>
<g id="a_node2"><a xlink:href="espconn__tcp_8c.html#a1bf4d2aa3261188fe87a4f3c631eee15" target="_top" xlink:title="espconn_client_close">
<polygon fill="white" stroke="black" points="148,-38.5 148,-57.5 258,-57.5 258,-38.5 148,-38.5"/>
<text text-anchor="middle" x="203" y="-45.5" font-family="Helvetica,sans-Serif" font-size="10.00">espconn_client_close</text>
</a>
</g>
</g>
<!-- Node48&#45;&gt;Node49 -->
<g id="edge1" class="edge"><title>Node48&#45;&gt;Node49</title>
<path fill="none" stroke="midnightblue" d="M116.458,-41.3235C126.873,-41.1899 137.601,-41.2384 147.788,-41.4692"/>
<polygon fill="midnightblue" stroke="midnightblue" points="116.111,-37.8294 106.179,-41.5179 116.244,-44.8281 116.111,-37.8294"/>
</g>
<!-- Node58 -->
<g id="node11" class="node"><title>Node58</title>
<g id="a_node11"><a xlink:href="espconn__tcp_8c.html#a86c46016b2975352fa63c06ef75d11dc" target="_top" xlink:title="espconn_client_connect">
<polygon fill="white" stroke="black" points="142,-0.5 142,-19.5 264,-19.5 264,-0.5 142,-0.5"/>
<text text-anchor="middle" x="203" y="-7.5" font-family="Helvetica,sans-Serif" font-size="10.00">espconn_client_connect</text>
</a>
</g>
</g>
<!-- Node48&#45;&gt;Node58 -->
<g id="edge13" class="edge"><title>Node48&#45;&gt;Node58</title>
<path fill="none" stroke="midnightblue" d="M101.173,-35.8879C121.786,-30.5956 145.609,-24.4787 164.922,-19.5201"/>
<polygon fill="midnightblue" stroke="midnightblue" points="100.162,-32.534 91.3466,-38.411 101.903,-39.3141 100.162,-32.534"/>
</g>
<!-- Node49&#45;&gt;Node48 -->
<g id="edge2" class="edge"><title>Node49&#45;&gt;Node48</title>
<path fill="none" stroke="midnightblue" d="M137.779,-54.6973C127.223,-54.8116 116.396,-54.7399 106.179,-54.4821"/>
<polygon fill="midnightblue" stroke="midnightblue" points="137.848,-58.1968 147.788,-54.5308 137.731,-51.1977 137.848,-58.1968"/>
</g>
<!-- Node50 -->
<g id="node3" class="node"><title>Node50</title>
<g id="a_node3"><a xlink:href="espconn__tcp_8c.html#ad1a7f8ed76cc477a4dd553c9a6d8e529" target="_top" xlink:title="espconn_tcp_disconnect">
<polygon fill="white" stroke="black" points="300,-38.5 300,-57.5 425,-57.5 425,-38.5 300,-38.5"/>
<text text-anchor="middle" x="362.5" y="-45.5" font-family="Helvetica,sans-Serif" font-size="10.00">espconn_tcp_disconnect</text>
</a>
</g>
</g>
<!-- Node49&#45;&gt;Node50 -->
<g id="edge3" class="edge"><title>Node49&#45;&gt;Node50</title>
<path fill="none" stroke="midnightblue" d="M268.45,-48C278.841,-48 289.575,-48 299.896,-48"/>
<polygon fill="midnightblue" stroke="midnightblue" points="268.203,-44.5001 258.203,-48 268.203,-51.5001 268.203,-44.5001"/>
</g>
<!-- Node51 -->
<g id="node4" class="node"><title>Node51</title>
<g id="a_node4"><a xlink:href="sdk_2include_2espconn_8h.html#a9969873c3b8ee86a34496a5166cf8bfc" target="_top" xlink:title="espconn_disconnect">
<polygon fill="white" stroke="black" points="461,-76.5 461,-95.5 567,-95.5 567,-76.5 461,-76.5"/>
<text text-anchor="middle" x="514" y="-83.5" font-family="Helvetica,sans-Serif" font-size="10.00">espconn_disconnect</text>
</a>
</g>
</g>
<!-- Node50&#45;&gt;Node51 -->
<g id="edge4" class="edge"><title>Node50&#45;&gt;Node51</title>
<path fill="none" stroke="midnightblue" d="M411.152,-60.1121C431.973,-65.4044 456.038,-71.5213 475.546,-76.4799"/>
<polygon fill="midnightblue" stroke="midnightblue" points="411.779,-56.6604 401.225,-57.589 410.055,-63.4447 411.779,-56.6604"/>
</g>
<!-- Node52 -->
<g id="node5" class="node"><title>Node52</title>
<g id="a_node5"><a xlink:href="sdk_2include_2espconn_8h.html#ad6b3d2d0f556e6da81c898a6b9fa5c53" target="_top" xlink:title="espconn_abort">
<polygon fill="white" stroke="black" points="474,-38.5 474,-57.5 554,-57.5 554,-38.5 474,-38.5"/>
<text text-anchor="middle" x="514" y="-45.5" font-family="Helvetica,sans-Serif" font-size="10.00">espconn_abort</text>
</a>
</g>
</g>
<!-- Node50&#45;&gt;Node52 -->
<g id="edge5" class="edge"><title>Node50&#45;&gt;Node52</title>
<path fill="none" stroke="midnightblue" d="M435.249,-48C448.497,-48 461.871,-48 473.702,-48"/>
<polygon fill="midnightblue" stroke="midnightblue" points="435.171,-44.5001 425.171,-48 435.17,-51.5001 435.171,-44.5001"/>
</g>
<!-- Node53 -->
<g id="node6" class="node"><title>Node53</title>
<g id="a_node6"><a xlink:href="mqtt_8c.html#a21ab01c5c7342eb954bdd128a5f4244b" target="_top" xlink:title="Delete tcp client and free all memory. ">
<polygon fill="white" stroke="black" points="603,-38.5 603,-57.5 713,-57.5 713,-38.5 603,-38.5"/>
<text text-anchor="middle" x="658" y="-45.5" font-family="Helvetica,sans-Serif" font-size="10.00">mqtt_tcpclient_delete</text>
</a>
</g>
</g>
<!-- Node52&#45;&gt;Node53 -->
<g id="edge6" class="edge"><title>Node52&#45;&gt;Node53</title>
<path fill="none" stroke="midnightblue" d="M564.343,-48C576.763,-48 590.16,-48 602.804,-48"/>
<polygon fill="midnightblue" stroke="midnightblue" points="564.178,-44.5001 554.178,-48 564.178,-51.5001 564.178,-44.5001"/>
</g>
<!-- Node54 -->
<g id="node7" class="node"><title>Node54</title>
<g id="a_node7"><a xlink:href="mqtt_8c.html#a9c9b677c6161329a3c3c6470a7182984" target="_top" xlink:title="Delete MQTT client and free all memory. ">
<polygon fill="white" stroke="black" points="749,-76.5 749,-95.5 845,-95.5 845,-76.5 749,-76.5"/>
<text text-anchor="middle" x="797" y="-83.5" font-family="Helvetica,sans-Serif" font-size="10.00">mqtt_client_delete</text>
</a>
</g>
</g>
<!-- Node53&#45;&gt;Node54 -->
<g id="edge7" class="edge"><title>Node53&#45;&gt;Node54</title>
<path fill="none" stroke="midnightblue" d="M703.411,-60.3183C722.234,-65.5393 743.838,-71.5316 761.44,-76.4141"/>
<polygon fill="midnightblue" stroke="midnightblue" points="704.143,-56.8892 693.571,-57.589 702.272,-63.6346 704.143,-56.8892"/>
</g>
<!-- Node55 -->
<g id="node8" class="node"><title>Node55</title>
<g id="a_node8"><a xlink:href="mqtt_8c.html#a9d88fa6efb9163d4dbf9dc750a8d4ed0" target="_top" xlink:title="MQTT_Task">
<polygon fill="white" stroke="black" points="881,-38.5 881,-57.5 952,-57.5 952,-38.5 881,-38.5"/>
<text text-anchor="middle" x="916.5" y="-45.5" font-family="Helvetica,sans-Serif" font-size="10.00">MQTT_Task</text>
</a>
</g>
</g>
<!-- Node53&#45;&gt;Node55 -->
<g id="edge10" class="edge"><title>Node53&#45;&gt;Node55</title>
<path fill="none" stroke="midnightblue" d="M723.138,-48C773.055,-48 840.417,-48 880.753,-48"/>
<polygon fill="midnightblue" stroke="midnightblue" points="723.084,-44.5001 713.084,-48 723.084,-51.5001 723.084,-44.5001"/>
</g>
<!-- Node57 -->
<g id="node10" class="node"><title>Node57</title>
<g id="a_node10"><a xlink:href="mqtt_8c.html#ad34b681cb2f7473d8fc786c7ed468db5" target="_top" xlink:title="Begin connect to MQTT broker. ">
<polygon fill="white" stroke="black" points="754,-0.5 754,-19.5 840,-19.5 840,-0.5 754,-0.5"/>
<text text-anchor="middle" x="797" y="-7.5" font-family="Helvetica,sans-Serif" font-size="10.00">MQTT_Connect</text>
</a>
</g>
</g>
<!-- Node53&#45;&gt;Node57 -->
<g id="edge11" class="edge"><title>Node53&#45;&gt;Node57</title>
<path fill="none" stroke="midnightblue" d="M703.411,-35.6817C722.234,-30.4607 743.838,-24.4684 761.44,-19.5859"/>
<polygon fill="midnightblue" stroke="midnightblue" points="702.272,-32.3654 693.571,-38.411 704.143,-39.1108 702.272,-32.3654"/>
</g>
<!-- Node54&#45;&gt;Node55 -->
<g id="edge8" class="edge"><title>Node54&#45;&gt;Node55</title>
<path fill="none" stroke="midnightblue" d="M837.209,-73.3196C853.085,-68.1852 871.11,-62.3559 885.859,-57.5859"/>
<polygon fill="midnightblue" stroke="midnightblue" points="836.088,-70.0036 827.65,-76.411 838.242,-76.664 836.088,-70.0036"/>
</g>
<!-- Node56 -->
<g id="node9" class="node"><title>Node56</title>
<g id="a_node9"><a xlink:href="mqtt_8c.html#a25cb7ac079d1d119250dac075c45acf1" target="_top" xlink:title="MQTT initialization mqtt client function. ">
<polygon fill="white" stroke="black" points="988,-38.5 988,-57.5 1077,-57.5 1077,-38.5 988,-38.5"/>
<text text-anchor="middle" x="1032.5" y="-45.5" font-family="Helvetica,sans-Serif" font-size="10.00">MQTT_InitClient</text>
</a>
</g>
</g>
<!-- Node55&#45;&gt;Node56 -->
<g id="edge9" class="edge"><title>Node55&#45;&gt;Node56</title>
<path fill="none" stroke="midnightblue" d="M962.085,-48C970.541,-48 979.381,-48 987.809,-48"/>
<polygon fill="midnightblue" stroke="midnightblue" points="962.013,-44.5001 952.013,-48 962.013,-51.5001 962.013,-44.5001"/>
</g>
<!-- Node57&#45;&gt;Node55 -->
<g id="edge12" class="edge"><title>Node57&#45;&gt;Node55</title>
<path fill="none" stroke="midnightblue" d="M837.209,-22.6804C853.085,-27.8148 871.11,-33.6441 885.859,-38.4141"/>
<polygon fill="midnightblue" stroke="midnightblue" points="838.242,-19.336 827.65,-19.589 836.088,-25.9964 838.242,-19.336"/>
</g>
<!-- Node59 -->
<g id="node12" class="node"><title>Node59</title>
<g id="a_node12"><a xlink:href="espconn__tcp_8c.html#afe66d17cd3c4b5ca9959287aec4db38b" target="_top" xlink:title="espconn_tcp_client">
<polygon fill="white" stroke="black" points="312,-0.5 312,-19.5 413,-19.5 413,-0.5 312,-0.5"/>
<text text-anchor="middle" x="362.5" y="-7.5" font-family="Helvetica,sans-Serif" font-size="10.00">espconn_tcp_client</text>
</a>
</g>
</g>
<!-- Node58&#45;&gt;Node59 -->
<g id="edge14" class="edge"><title>Node58&#45;&gt;Node59</title>
<path fill="none" stroke="midnightblue" d="M274.809,-10C287.257,-10 299.972,-10 311.693,-10"/>
<polygon fill="midnightblue" stroke="midnightblue" points="274.443,-6.5001 264.443,-10 274.443,-13.5001 274.443,-6.5001"/>
</g>
<!-- Node60 -->
<g id="node13" class="node"><title>Node60</title>
<g id="a_node13"><a xlink:href="sdk_2include_2espconn_8h.html#a949cd618667cea85b1b99d14b90dce7d" target="_top" xlink:title="espconn_connect">
<polygon fill="white" stroke="black" points="467.5,-0.5 467.5,-19.5 560.5,-19.5 560.5,-0.5 467.5,-0.5"/>
<text text-anchor="middle" x="514" y="-7.5" font-family="Helvetica,sans-Serif" font-size="10.00">espconn_connect</text>
</a>
</g>
</g>
<!-- Node59&#45;&gt;Node60 -->
<g id="edge15" class="edge"><title>Node59&#45;&gt;Node60</title>
<path fill="none" stroke="midnightblue" d="M423.312,-10C438.029,-10 453.551,-10 467.469,-10"/>
<polygon fill="midnightblue" stroke="midnightblue" points="423.281,-6.5001 413.281,-10 423.281,-13.5001 423.281,-6.5001"/>
</g>
</g>
</svg>
