<?xml version="1.0" encoding="UTF-8" standalone="no"?>
<!DOCTYPE svg PUBLIC "-//W3C//DTD SVG 1.1//EN"
 "http://www.w3.org/Graphics/SVG/1.1/DTD/svg11.dtd">
<!-- Generated by graphviz version 2.38.0 (20140413.2041)
 -->
<!-- Title: readRegByte Pages: 1 -->
<svg width="377pt" height="66pt"
 viewBox="0.00 0.00 377.00 66.00" xmlns="http://www.w3.org/2000/svg" xmlns:xlink="http://www.w3.org/1999/xlink">
<g id="graph0" class="graph" transform="scale(1 1) rotate(0) translate(4 62)">
<title>readRegByte</title>
<polygon fill="white" stroke="none" points="-4,4 -4,-62 373,-62 373,4 -4,4"/>
<!-- Node211 -->
<g id="node1" class="node"><title>Node211</title>
<polygon fill="#bfbfbf" stroke="black" points="0,-19.5 0,-38.5 74,-38.5 74,-19.5 0,-19.5"/>
<text text-anchor="middle" x="37" y="-26.5" font-family="Helvetica,sans-Serif" font-size="10.00">readRegByte</text>
</g>
<!-- Node212 -->
<g id="node2" class="node"><title>Node212</title>
<g id="a_node2"><a xlink:href="espenc_8c.html#a655fbec696cb6a8e30069f066615d830" target="_top" xlink:title="readOp">
<polygon fill="white" stroke="black" points="201,-38.5 201,-57.5 249,-57.5 249,-38.5 201,-38.5"/>
<text text-anchor="middle" x="225" y="-45.5" font-family="Helvetica,sans-Serif" font-size="10.00">readOp</text>
</a>
</g>
</g>
<!-- Node211&#45;&gt;Node212 -->
<g id="edge1" class="edge"><title>Node211&#45;&gt;Node212</title>
<path fill="none" stroke="midnightblue" d="M74.3042,-32.7085C108.17,-36.1679 158.256,-41.2842 191.01,-44.63"/>
<polygon fill="midnightblue" stroke="midnightblue" points="190.688,-48.1153 200.992,-45.6498 191.4,-41.1516 190.688,-48.1153"/>
</g>
<!-- Node214 -->
<g id="node4" class="node"><title>Node214</title>
<g id="a_node4"><a xlink:href="espenc_8c.html#a7e04e867e5a788903adaca29045aa118" target="_top" xlink:title="SetBank">
<polygon fill="white" stroke="black" points="110,-0.5 110,-19.5 164,-19.5 164,-0.5 110,-0.5"/>
<text text-anchor="middle" x="137" y="-7.5" font-family="Helvetica,sans-Serif" font-size="10.00">SetBank</text>
</a>
</g>
</g>
<!-- Node211&#45;&gt;Node214 -->
<g id="edge3" class="edge"><title>Node211&#45;&gt;Node214</title>
<path fill="none" stroke="midnightblue" d="M74.2131,-21.9791C82.5861,-20.3558 91.4946,-18.6286 99.8642,-17.0059"/>
<polygon fill="midnightblue" stroke="midnightblue" points="100.583,-20.4319 109.734,-15.0924 99.2504,-13.5598 100.583,-20.4319"/>
</g>
<!-- Node213 -->
<g id="node3" class="node"><title>Node213</title>
<g id="a_node3"><a xlink:href="spi_8c.html#acebb579091ca980f217d3e5f3bd1f1d5" target="_top" xlink:title="spi_transaction">
<polygon fill="white" stroke="black" points="286,-19.5 286,-38.5 369,-38.5 369,-19.5 286,-19.5"/>
<text text-anchor="middle" x="327.5" y="-26.5" font-family="Helvetica,sans-Serif" font-size="10.00">spi_transaction</text>
</a>
</g>
</g>
<!-- Node212&#45;&gt;Node213 -->
<g id="edge2" class="edge"><title>Node212&#45;&gt;Node213</title>
<path fill="none" stroke="midnightblue" d="M249.057,-43.641C257.058,-42.1284 266.375,-40.367 275.716,-38.6009"/>
<polygon fill="midnightblue" stroke="midnightblue" points="276.626,-41.991 285.802,-36.6942 275.325,-35.1129 276.626,-41.991"/>
</g>
<!-- Node215 -->
<g id="node5" class="node"><title>Node215</title>
<g id="a_node5"><a xlink:href="espenc_8c.html#aa384e05ea3543cb9fca318f6623952fc" target="_top" xlink:title="writeOp">
<polygon fill="white" stroke="black" points="200,-0.5 200,-19.5 250,-19.5 250,-0.5 200,-0.5"/>
<text text-anchor="middle" x="225" y="-7.5" font-family="Helvetica,sans-Serif" font-size="10.00">writeOp</text>
</a>
</g>
</g>
<!-- Node214&#45;&gt;Node215 -->
<g id="edge4" class="edge"><title>Node214&#45;&gt;Node215</title>
<path fill="none" stroke="midnightblue" d="M164.27,-10C172.347,-10 181.357,-10 189.881,-10"/>
<polygon fill="midnightblue" stroke="midnightblue" points="189.941,-13.5001 199.941,-10 189.941,-6.5001 189.941,-13.5001"/>
</g>
<!-- Node215&#45;&gt;Node213 -->
<g id="edge5" class="edge"><title>Node215&#45;&gt;Node213</title>
<path fill="none" stroke="midnightblue" d="M250.072,-14.551C257.836,-16.0187 266.755,-17.705 275.698,-19.3957"/>
<polygon fill="midnightblue" stroke="midnightblue" points="275.269,-22.8764 285.745,-21.2951 276.569,-15.9983 275.269,-22.8764"/>
</g>
</g>
</svg>
