<?xml version="1.0" encoding="UTF-8" standalone="no"?>
<!DOCTYPE svg PUBLIC "-//W3C//DTD SVG 1.1//EN"
 "http://www.w3.org/Graphics/SVG/1.1/DTD/svg11.dtd">
<!-- Generated by graphviz version 2.38.0 (20140413.2041)
 -->
<!-- Title: enc_scoop_packets Pages: 1 -->
<svg width="317pt" height="28pt"
 viewBox="0.00 0.00 317.00 28.00" xmlns="http://www.w3.org/2000/svg" xmlns:xlink="http://www.w3.org/1999/xlink">
<g id="graph0" class="graph" transform="scale(1 1) rotate(0) translate(4 24)">
<title>enc_scoop_packets</title>
<polygon fill="white" stroke="none" points="-4,4 -4,-24 313,-24 313,4 -4,4"/>
<!-- Node110 -->
<g id="node1" class="node"><title>Node110</title>
<polygon fill="#bfbfbf" stroke="black" points="0,-0.5 0,-19.5 104,-19.5 104,-0.5 0,-0.5"/>
<text text-anchor="middle" x="52" y="-7.5" font-family="Helvetica,sans-Serif" font-size="10.00">enc_scoop_packets</text>
</g>
<!-- Node111 -->
<g id="node2" class="node"><title>Node111</title>
<g id="a_node2"><a xlink:href="espenc_8c.html#a0f5c2a11efd2f3a3ba9dd104d632e594" target="_top" xlink:title="swint_Task">
<polygon fill="white" stroke="black" points="140,-0.5 140,-19.5 207,-19.5 207,-0.5 140,-0.5"/>
<text text-anchor="middle" x="173.5" y="-7.5" font-family="Helvetica,sans-Serif" font-size="10.00">swint_Task</text>
</a>
</g>
</g>
<!-- Node110&#45;&gt;Node111 -->
<g id="edge1" class="edge"><title>Node110&#45;&gt;Node111</title>
<path fill="none" stroke="midnightblue" d="M114.085,-10C123.018,-10 131.911,-10 139.965,-10"/>
<polygon fill="midnightblue" stroke="midnightblue" points="114.025,-6.5001 104.025,-10 114.025,-13.5001 114.025,-6.5001"/>
</g>
<!-- Node112 -->
<g id="node3" class="node"><title>Node112</title>
<g id="a_node3"><a xlink:href="espenc_8c.html#a193505f7e2d8f132ca9698a32783fe93" target="_top" xlink:title="espenc_init">
<polygon fill="white" stroke="black" points="243,-0.5 243,-19.5 309,-19.5 309,-0.5 243,-0.5"/>
<text text-anchor="middle" x="276" y="-7.5" font-family="Helvetica,sans-Serif" font-size="10.00">espenc_init</text>
</a>
</g>
</g>
<!-- Node111&#45;&gt;Node112 -->
<g id="edge2" class="edge"><title>Node111&#45;&gt;Node112</title>
<path fill="none" stroke="midnightblue" d="M217.353,-10C225.909,-10 234.758,-10 242.877,-10"/>
<polygon fill="midnightblue" stroke="midnightblue" points="217.13,-6.5001 207.129,-10 217.129,-13.5001 217.13,-6.5001"/>
</g>
</g>
</svg>
