<?xml version="1.0" encoding="UTF-8" standalone="no"?>
<!DOCTYPE svg PUBLIC "-//W3C//DTD SVG 1.1//EN"
 "http://www.w3.org/Graphics/SVG/1.1/DTD/svg11.dtd">
<!-- Generated by graphviz version 2.38.0 (20140413.2041)
 -->
<!-- Title: readPhyByte Pages: 1 -->
<svg width="437pt" height="47pt"
 viewBox="0.00 0.00 437.00 47.00" xmlns="http://www.w3.org/2000/svg" xmlns:xlink="http://www.w3.org/1999/xlink">
<g id="graph0" class="graph" transform="scale(1 1) rotate(0) translate(4 43)">
<title>readPhyByte</title>
<polygon fill="white" stroke="none" points="-4,4 -4,-43 433,-43 433,4 -4,4"/>
<!-- Node200 -->
<g id="node1" class="node"><title>Node200</title>
<polygon fill="#bfbfbf" stroke="black" points="0,-19.5 0,-38.5 73,-38.5 73,-19.5 0,-19.5"/>
<text text-anchor="middle" x="36.5" y="-26.5" font-family="Helvetica,sans-Serif" font-size="10.00">readPhyByte</text>
</g>
<!-- Node201 -->
<g id="node2" class="node"><title>Node201</title>
<g id="a_node2"><a xlink:href="espenc_8c.html#a81a1bda1746cf556eca33a6ab92ea851" target="_top" xlink:title="enc28j60_init">
<polygon fill="white" stroke="black" points="253,-19.5 253,-38.5 327,-38.5 327,-19.5 253,-19.5"/>
<text text-anchor="middle" x="290" y="-26.5" font-family="Helvetica,sans-Serif" font-size="10.00">enc28j60_init</text>
</a>
</g>
</g>
<!-- Node200&#45;&gt;Node201 -->
<g id="edge1" class="edge"><title>Node200&#45;&gt;Node201</title>
<path fill="none" stroke="midnightblue" d="M83.264,-29C132.007,-29 208.163,-29 252.866,-29"/>
<polygon fill="midnightblue" stroke="midnightblue" points="83.0004,-25.5001 73.0004,-29 83.0004,-32.5001 83.0004,-25.5001"/>
</g>
<!-- Node203 -->
<g id="node4" class="node"><title>Node203</title>
<g id="a_node4"><a xlink:href="espenc_8c.html#abc96fe33660001538919e64fc237796f" target="_top" xlink:title="enc28j60_link_output">
<polygon fill="white" stroke="black" points="109,-0.5 109,-19.5 217,-19.5 217,-0.5 109,-0.5"/>
<text text-anchor="middle" x="163" y="-7.5" font-family="Helvetica,sans-Serif" font-size="10.00">enc28j60_link_output</text>
</a>
</g>
</g>
<!-- Node200&#45;&gt;Node203 -->
<g id="edge3" class="edge"><title>Node200&#45;&gt;Node203</title>
<path fill="none" stroke="midnightblue" d="M83.0741,-22.0449C91.3992,-20.7744 100.154,-19.4384 108.68,-18.1372"/>
<polygon fill="midnightblue" stroke="midnightblue" points="82.5342,-18.5867 73.1767,-23.5554 83.5903,-25.5066 82.5342,-18.5867"/>
</g>
<!-- Node202 -->
<g id="node3" class="node"><title>Node202</title>
<g id="a_node3"><a xlink:href="espenc_8c.html#a193505f7e2d8f132ca9698a32783fe93" target="_top" xlink:title="espenc_init">
<polygon fill="white" stroke="black" points="363,-19.5 363,-38.5 429,-38.5 429,-19.5 363,-19.5"/>
<text text-anchor="middle" x="396" y="-26.5" font-family="Helvetica,sans-Serif" font-size="10.00">espenc_init</text>
</a>
</g>
</g>
<!-- Node201&#45;&gt;Node202 -->
<g id="edge2" class="edge"><title>Node201&#45;&gt;Node202</title>
<path fill="none" stroke="midnightblue" d="M337.103,-29C345.776,-29 354.67,-29 362.805,-29"/>
<polygon fill="midnightblue" stroke="midnightblue" points="337.082,-25.5001 327.082,-29 337.082,-32.5001 337.082,-25.5001"/>
</g>
<!-- Node203&#45;&gt;Node201 -->
<g id="edge4" class="edge"><title>Node203&#45;&gt;Node201</title>
<path fill="none" stroke="midnightblue" d="M227.016,-19.5785C235.907,-20.9298 244.783,-22.279 252.926,-23.5168"/>
<polygon fill="midnightblue" stroke="midnightblue" points="227.424,-16.1003 217.011,-18.0577 226.372,-23.0208 227.424,-16.1003"/>
</g>
</g>
</svg>
