<?xml version="1.0" encoding="UTF-8" standalone="no"?>
<!DOCTYPE svg PUBLIC "-//W3C//DTD SVG 1.1//EN"
 "http://www.w3.org/Graphics/SVG/1.1/DTD/svg11.dtd">
<!-- Generated by graphviz version 2.38.0 (20140413.2041)
 -->
<!-- Title: writeRegByte Pages: 1 -->
<svg width="379pt" height="47pt"
 viewBox="0.00 0.00 379.00 47.00" xmlns="http://www.w3.org/2000/svg" xmlns:xlink="http://www.w3.org/1999/xlink">
<g id="graph0" class="graph" transform="scale(1 1) rotate(0) translate(4 43)">
<title>writeRegByte</title>
<polygon fill="white" stroke="none" points="-4,4 -4,-43 375,-43 375,4 -4,4"/>
<!-- Node318 -->
<g id="node1" class="node"><title>Node318</title>
<polygon fill="#bfbfbf" stroke="black" points="0,-0.5 0,-19.5 76,-19.5 76,-0.5 0,-0.5"/>
<text text-anchor="middle" x="38" y="-7.5" font-family="Helvetica,sans-Serif" font-size="10.00">writeRegByte</text>
</g>
<!-- Node319 -->
<g id="node2" class="node"><title>Node319</title>
<g id="a_node2"><a xlink:href="espenc_8c.html#a7e04e867e5a788903adaca29045aa118" target="_top" xlink:title="SetBank">
<polygon fill="white" stroke="black" points="112,-19.5 112,-38.5 166,-38.5 166,-19.5 112,-19.5"/>
<text text-anchor="middle" x="139" y="-26.5" font-family="Helvetica,sans-Serif" font-size="10.00">SetBank</text>
</a>
</g>
</g>
<!-- Node318&#45;&gt;Node319 -->
<g id="edge1" class="edge"><title>Node318&#45;&gt;Node319</title>
<path fill="none" stroke="midnightblue" d="M76.1456,-17.129C84.571,-18.746 93.5066,-20.4609 101.888,-22.0695"/>
<polygon fill="midnightblue" stroke="midnightblue" points="101.286,-25.5176 111.766,-23.9652 102.605,-18.6431 101.286,-25.5176"/>
</g>
<!-- Node320 -->
<g id="node3" class="node"><title>Node320</title>
<g id="a_node3"><a xlink:href="espenc_8c.html#aa384e05ea3543cb9fca318f6623952fc" target="_top" xlink:title="writeOp">
<polygon fill="white" stroke="black" points="202,-0.5 202,-19.5 252,-19.5 252,-0.5 202,-0.5"/>
<text text-anchor="middle" x="227" y="-7.5" font-family="Helvetica,sans-Serif" font-size="10.00">writeOp</text>
</a>
</g>
</g>
<!-- Node318&#45;&gt;Node320 -->
<g id="edge4" class="edge"><title>Node318&#45;&gt;Node320</title>
<path fill="none" stroke="midnightblue" d="M76.3928,-10C109.909,-10 158.688,-10 191.34,-10"/>
<polygon fill="midnightblue" stroke="midnightblue" points="191.749,-13.5001 201.749,-10 191.749,-6.5001 191.749,-13.5001"/>
</g>
<!-- Node319&#45;&gt;Node320 -->
<g id="edge2" class="edge"><title>Node319&#45;&gt;Node320</title>
<path fill="none" stroke="midnightblue" d="M166.27,-23.1961C174.436,-21.392 183.556,-19.3773 192.162,-17.4759"/>
<polygon fill="midnightblue" stroke="midnightblue" points="192.931,-20.8904 201.941,-15.3155 191.421,-14.0552 192.931,-20.8904"/>
</g>
<!-- Node321 -->
<g id="node4" class="node"><title>Node321</title>
<g id="a_node4"><a xlink:href="spi_8c.html#acebb579091ca980f217d3e5f3bd1f1d5" target="_top" xlink:title="spi_transaction">
<polygon fill="white" stroke="black" points="288,-0.5 288,-19.5 371,-19.5 371,-0.5 288,-0.5"/>
<text text-anchor="middle" x="329.5" y="-7.5" font-family="Helvetica,sans-Serif" font-size="10.00">spi_transaction</text>
</a>
</g>
</g>
<!-- Node320&#45;&gt;Node321 -->
<g id="edge3" class="edge"><title>Node320&#45;&gt;Node321</title>
<path fill="none" stroke="midnightblue" d="M252.072,-10C259.836,-10 268.755,-10 277.698,-10"/>
<polygon fill="midnightblue" stroke="midnightblue" points="277.745,-13.5001 287.745,-10 277.745,-6.5001 277.745,-13.5001"/>
</g>
</g>
</svg>
