<?xml version="1.0" encoding="UTF-8" standalone="no"?>
<!DOCTYPE svg PUBLIC "-//W3C//DTD SVG 1.1//EN"
 "http://www.w3.org/Graphics/SVG/1.1/DTD/svg11.dtd">
<!-- Generated by graphviz version 2.38.0 (20140413.2041)
 -->
<!-- Title: readBuf Pages: 1 -->
<svg width="568pt" height="28pt"
 viewBox="0.00 0.00 568.00 28.00" xmlns="http://www.w3.org/2000/svg" xmlns:xlink="http://www.w3.org/1999/xlink">
<g id="graph0" class="graph" transform="scale(1 1) rotate(0) translate(4 24)">
<title>readBuf</title>
<polygon fill="white" stroke="none" points="-4,4 -4,-24 564,-24 564,4 -4,4"/>
<!-- Node175 -->
<g id="node1" class="node"><title>Node175</title>
<polygon fill="#bfbfbf" stroke="black" points="0,-0.5 0,-19.5 50,-19.5 50,-0.5 0,-0.5"/>
<text text-anchor="middle" x="25" y="-7.5" font-family="Helvetica,sans-Serif" font-size="10.00">readBuf</text>
</g>
<!-- Node176 -->
<g id="node2" class="node"><title>Node176</title>
<g id="a_node2"><a xlink:href="espenc_8c.html#abad8eb65a3bbaacff290a354199cd349" target="_top" xlink:title="enc28j60_handle_packets">
<polygon fill="white" stroke="black" points="86,-0.5 86,-19.5 215,-19.5 215,-0.5 86,-0.5"/>
<text text-anchor="middle" x="150.5" y="-7.5" font-family="Helvetica,sans-Serif" font-size="10.00">enc28j60_handle_packets</text>
</a>
</g>
</g>
<!-- Node175&#45;&gt;Node176 -->
<g id="edge1" class="edge"><title>Node175&#45;&gt;Node176</title>
<path fill="none" stroke="midnightblue" d="M60.1796,-10C68.2356,-10 77.0793,-10 85.9722,-10"/>
<polygon fill="midnightblue" stroke="midnightblue" points="60.1053,-6.5001 50.1052,-10 60.1052,-13.5001 60.1053,-6.5001"/>
</g>
<!-- Node177 -->
<g id="node3" class="node"><title>Node177</title>
<g id="a_node3"><a xlink:href="espenc_8c.html#a55dfa017402fc9454bf75d0536cb2425" target="_top" xlink:title="enc_scoop_packets">
<polygon fill="white" stroke="black" points="251,-0.5 251,-19.5 355,-19.5 355,-0.5 251,-0.5"/>
<text text-anchor="middle" x="303" y="-7.5" font-family="Helvetica,sans-Serif" font-size="10.00">enc_scoop_packets</text>
</a>
</g>
</g>
<!-- Node176&#45;&gt;Node177 -->
<g id="edge2" class="edge"><title>Node176&#45;&gt;Node177</title>
<path fill="none" stroke="midnightblue" d="M225.395,-10C234.005,-10 242.638,-10 250.844,-10"/>
<polygon fill="midnightblue" stroke="midnightblue" points="225.326,-6.5001 215.326,-10 225.326,-13.5001 225.326,-6.5001"/>
</g>
<!-- Node178 -->
<g id="node4" class="node"><title>Node178</title>
<g id="a_node4"><a xlink:href="espenc_8c.html#a0f5c2a11efd2f3a3ba9dd104d632e594" target="_top" xlink:title="swint_Task">
<polygon fill="white" stroke="black" points="391,-0.5 391,-19.5 458,-19.5 458,-0.5 391,-0.5"/>
<text text-anchor="middle" x="424.5" y="-7.5" font-family="Helvetica,sans-Serif" font-size="10.00">swint_Task</text>
</a>
</g>
</g>
<!-- Node177&#45;&gt;Node178 -->
<g id="edge3" class="edge"><title>Node177&#45;&gt;Node178</title>
<path fill="none" stroke="midnightblue" d="M365.085,-10C374.018,-10 382.911,-10 390.965,-10"/>
<polygon fill="midnightblue" stroke="midnightblue" points="365.025,-6.5001 355.025,-10 365.025,-13.5001 365.025,-6.5001"/>
</g>
<!-- Node179 -->
<g id="node5" class="node"><title>Node179</title>
<g id="a_node5"><a xlink:href="espenc_8c.html#a193505f7e2d8f132ca9698a32783fe93" target="_top" xlink:title="espenc_init">
<polygon fill="white" stroke="black" points="494,-0.5 494,-19.5 560,-19.5 560,-0.5 494,-0.5"/>
<text text-anchor="middle" x="527" y="-7.5" font-family="Helvetica,sans-Serif" font-size="10.00">espenc_init</text>
</a>
</g>
</g>
<!-- Node178&#45;&gt;Node179 -->
<g id="edge4" class="edge"><title>Node178&#45;&gt;Node179</title>
<path fill="none" stroke="midnightblue" d="M468.353,-10C476.909,-10 485.758,-10 493.877,-10"/>
<polygon fill="midnightblue" stroke="midnightblue" points="468.13,-6.5001 458.129,-10 468.129,-13.5001 468.13,-6.5001"/>
</g>
</g>
</svg>
