<?xml version="1.0" encoding="UTF-8" standalone="no"?>
<!DOCTYPE svg PUBLIC "-//W3C//DTD SVG 1.1//EN"
 "http://www.w3.org/Graphics/SVG/1.1/DTD/svg11.dtd">
<!-- Generated by graphviz version 2.38.0 (20140413.2041)
 -->
<!-- Title: enc28j60_handle_packets Pages: 1 -->
<svg width="482pt" height="28pt"
 viewBox="0.00 0.00 482.00 28.00" xmlns="http://www.w3.org/2000/svg" xmlns:xlink="http://www.w3.org/1999/xlink">
<g id="graph0" class="graph" transform="scale(1 1) rotate(0) translate(4 24)">
<title>enc28j60_handle_packets</title>
<polygon fill="white" stroke="none" points="-4,4 -4,-24 478,-24 478,4 -4,4"/>
<!-- Node39 -->
<g id="node1" class="node"><title>Node39</title>
<polygon fill="#bfbfbf" stroke="black" points="0,-0.5 0,-19.5 129,-19.5 129,-0.5 0,-0.5"/>
<text text-anchor="middle" x="64.5" y="-7.5" font-family="Helvetica,sans-Serif" font-size="10.00">enc28j60_handle_packets</text>
</g>
<!-- Node40 -->
<g id="node2" class="node"><title>Node40</title>
<g id="a_node2"><a xlink:href="espenc_8c.html#a55dfa017402fc9454bf75d0536cb2425" target="_top" xlink:title="enc_scoop_packets">
<polygon fill="white" stroke="black" points="165,-0.5 165,-19.5 269,-19.5 269,-0.5 165,-0.5"/>
<text text-anchor="middle" x="217" y="-7.5" font-family="Helvetica,sans-Serif" font-size="10.00">enc_scoop_packets</text>
</a>
</g>
</g>
<!-- Node39&#45;&gt;Node40 -->
<g id="edge1" class="edge"><title>Node39&#45;&gt;Node40</title>
<path fill="none" stroke="midnightblue" d="M139.395,-10C148.005,-10 156.638,-10 164.844,-10"/>
<polygon fill="midnightblue" stroke="midnightblue" points="139.326,-6.5001 129.326,-10 139.326,-13.5001 139.326,-6.5001"/>
</g>
<!-- Node41 -->
<g id="node3" class="node"><title>Node41</title>
<g id="a_node3"><a xlink:href="espenc_8c.html#a0f5c2a11efd2f3a3ba9dd104d632e594" target="_top" xlink:title="swint_Task">
<polygon fill="white" stroke="black" points="305,-0.5 305,-19.5 372,-19.5 372,-0.5 305,-0.5"/>
<text text-anchor="middle" x="338.5" y="-7.5" font-family="Helvetica,sans-Serif" font-size="10.00">swint_Task</text>
</a>
</g>
</g>
<!-- Node40&#45;&gt;Node41 -->
<g id="edge2" class="edge"><title>Node40&#45;&gt;Node41</title>
<path fill="none" stroke="midnightblue" d="M279.085,-10C288.018,-10 296.911,-10 304.965,-10"/>
<polygon fill="midnightblue" stroke="midnightblue" points="279.025,-6.5001 269.025,-10 279.025,-13.5001 279.025,-6.5001"/>
</g>
<!-- Node42 -->
<g id="node4" class="node"><title>Node42</title>
<g id="a_node4"><a xlink:href="espenc_8c.html#a193505f7e2d8f132ca9698a32783fe93" target="_top" xlink:title="espenc_init">
<polygon fill="white" stroke="black" points="408,-0.5 408,-19.5 474,-19.5 474,-0.5 408,-0.5"/>
<text text-anchor="middle" x="441" y="-7.5" font-family="Helvetica,sans-Serif" font-size="10.00">espenc_init</text>
</a>
</g>
</g>
<!-- Node41&#45;&gt;Node42 -->
<g id="edge3" class="edge"><title>Node41&#45;&gt;Node42</title>
<path fill="none" stroke="midnightblue" d="M382.353,-10C390.909,-10 399.758,-10 407.877,-10"/>
<polygon fill="midnightblue" stroke="midnightblue" points="382.13,-6.5001 372.129,-10 382.129,-13.5001 382.13,-6.5001"/>
</g>
</g>
</svg>
