<?xml version="1.0" encoding="UTF-8" standalone="no"?>
<!DOCTYPE svg PUBLIC "-//W3C//DTD SVG 1.1//EN"
 "http://www.w3.org/Graphics/SVG/1.1/DTD/svg11.dtd">
<!-- Generated by graphviz version 2.38.0 (20140413.2041)
 -->
<!-- Title: enc28j60_link_output Pages: 1 -->
<svg width="676pt" height="370pt"
 viewBox="0.00 0.00 676.00 370.00" xmlns="http://www.w3.org/2000/svg" xmlns:xlink="http://www.w3.org/1999/xlink">
<g id="graph0" class="graph" transform="scale(1 1) rotate(0) translate(4 366)">
<title>enc28j60_link_output</title>
<polygon fill="white" stroke="none" points="-4,4 -4,-366 672,-366 672,4 -4,4"/>
<!-- Node27 -->
<g id="node1" class="node"><title>Node27</title>
<polygon fill="#bfbfbf" stroke="black" points="0,-209.5 0,-228.5 108,-228.5 108,-209.5 0,-209.5"/>
<text text-anchor="middle" x="54" y="-216.5" font-family="Helvetica,sans-Serif" font-size="10.00">enc28j60_link_output</text>
</g>
<!-- Node28 -->
<g id="node2" class="node"><title>Node28</title>
<g id="a_node2"><a xlink:href="gpio_8h.html#a0adef8a3e9d5c302d96d1ddc360f7c79" target="_top" xlink:title="gpio_pin_intr_state_set">
<polygon fill="white" stroke="black" points="144,-342.5 144,-361.5 261,-361.5 261,-342.5 144,-342.5"/>
<text text-anchor="middle" x="202.5" y="-349.5" font-family="Helvetica,sans-Serif" font-size="10.00">gpio_pin_intr_state_set</text>
</a>
</g>
</g>
<!-- Node27&#45;&gt;Node28 -->
<g id="edge1" class="edge"><title>Node27&#45;&gt;Node28</title>
<path fill="none" stroke="midnightblue" d="M59.845,-228.501C71.4034,-250.236 102.736,-303.942 144,-333 146.708,-334.907 149.62,-336.632 152.645,-338.191"/>
<polygon fill="midnightblue" stroke="midnightblue" points="151.412,-341.475 161.967,-342.388 154.285,-335.092 151.412,-341.475"/>
</g>
<!-- Node29 -->
<g id="node3" class="node"><title>Node29</title>
<g id="a_node3"><a xlink:href="pbuf_8h.html#ab0a418a2392133e6b18c7b19f7c04500" target="_top" xlink:title="pbuf_copy_partial">
<polygon fill="white" stroke="black" points="156,-304.5 156,-323.5 249,-323.5 249,-304.5 156,-304.5"/>
<text text-anchor="middle" x="202.5" y="-311.5" font-family="Helvetica,sans-Serif" font-size="10.00">pbuf_copy_partial</text>
</a>
</g>
</g>
<!-- Node27&#45;&gt;Node29 -->
<g id="edge2" class="edge"><title>Node27&#45;&gt;Node29</title>
<path fill="none" stroke="midnightblue" d="M64.99,-228.533C80.768,-243.212 112.872,-271.577 144,-290 150.528,-293.863 157.794,-297.411 164.904,-300.526"/>
<polygon fill="midnightblue" stroke="midnightblue" points="163.842,-303.876 174.419,-304.495 166.537,-297.415 163.842,-303.876"/>
</g>
<!-- Node30 -->
<g id="node4" class="node"><title>Node30</title>
<g id="a_node4"><a xlink:href="espenc_8c.html#a6a6cf6fd5a57804e5c5f005babafbafd" target="_top" xlink:title="readPhyByte">
<polygon fill="white" stroke="black" points="166,-190.5 166,-209.5 239,-209.5 239,-190.5 166,-190.5"/>
<text text-anchor="middle" x="202.5" y="-197.5" font-family="Helvetica,sans-Serif" font-size="10.00">readPhyByte</text>
</a>
</g>
</g>
<!-- Node27&#45;&gt;Node30 -->
<g id="edge3" class="edge"><title>Node27&#45;&gt;Node30</title>
<path fill="none" stroke="midnightblue" d="M108.304,-212.087C123.859,-210.069 140.712,-207.884 155.755,-205.933"/>
<polygon fill="midnightblue" stroke="midnightblue" points="156.375,-209.382 165.842,-204.625 155.475,-202.44 156.375,-209.382"/>
</g>
<!-- Node32 -->
<g id="node6" class="node"><title>Node32</title>
<g id="a_node6"><a xlink:href="espenc_8c.html#a7e04e867e5a788903adaca29045aa118" target="_top" xlink:title="SetBank">
<polygon fill="white" stroke="black" points="409,-228.5 409,-247.5 463,-247.5 463,-228.5 409,-228.5"/>
<text text-anchor="middle" x="436" y="-235.5" font-family="Helvetica,sans-Serif" font-size="10.00">SetBank</text>
</a>
</g>
</g>
<!-- Node27&#45;&gt;Node32 -->
<g id="edge14" class="edge"><title>Node27&#45;&gt;Node32</title>
<path fill="none" stroke="midnightblue" d="M108.237,-221.662C186.762,-225.588 331.586,-232.829 398.878,-236.194"/>
<polygon fill="midnightblue" stroke="midnightblue" points="398.828,-239.696 408.99,-236.7 399.178,-232.704 398.828,-239.696"/>
</g>
<!-- Node33 -->
<g id="node7" class="node"><title>Node33</title>
<g id="a_node7"><a xlink:href="espenc_8c.html#aa384e05ea3543cb9fca318f6623952fc" target="_top" xlink:title="writeOp">
<polygon fill="white" stroke="black" points="499,-190.5 499,-209.5 549,-209.5 549,-190.5 499,-190.5"/>
<text text-anchor="middle" x="524" y="-197.5" font-family="Helvetica,sans-Serif" font-size="10.00">writeOp</text>
</a>
</g>
</g>
<!-- Node27&#45;&gt;Node33 -->
<g id="edge19" class="edge"><title>Node27&#45;&gt;Node33</title>
<path fill="none" stroke="midnightblue" d="M62.2575,-209.387C75.9681,-192.126 107.59,-156.431 144,-143 268.695,-97.0035 429.538,-157.487 494.204,-186.29"/>
<polygon fill="midnightblue" stroke="midnightblue" points="492.832,-189.511 503.385,-190.456 495.725,-183.136 492.832,-189.511"/>
</g>
<!-- Node35 -->
<g id="node9" class="node"><title>Node35</title>
<g id="a_node9"><a xlink:href="espenc_8c.html#af925f259879dbba7c5d7b0eab062b34b" target="_top" xlink:title="readRegByte">
<polygon fill="white" stroke="black" points="298,-266.5 298,-285.5 372,-285.5 372,-266.5 298,-266.5"/>
<text text-anchor="middle" x="335" y="-273.5" font-family="Helvetica,sans-Serif" font-size="10.00">readRegByte</text>
</a>
</g>
</g>
<!-- Node27&#45;&gt;Node35 -->
<g id="edge13" class="edge"><title>Node27&#45;&gt;Node35</title>
<path fill="none" stroke="midnightblue" d="M76.5072,-228.564C94.2667,-236.072 120.312,-246.194 144,-252 192.113,-263.793 248.58,-269.988 287.38,-273.107"/>
<polygon fill="midnightblue" stroke="midnightblue" points="287.596,-276.633 297.834,-273.907 288.13,-269.654 287.596,-276.633"/>
</g>
<!-- Node37 -->
<g id="node11" class="node"><title>Node37</title>
<g id="a_node11"><a xlink:href="espenc_8c.html#a921bffb078028c3ee1dd910fd41ec53e" target="_top" xlink:title="writeBuf">
<polygon fill="white" stroke="black" points="176,-57.5 176,-76.5 229,-76.5 229,-57.5 176,-57.5"/>
<text text-anchor="middle" x="202.5" y="-64.5" font-family="Helvetica,sans-Serif" font-size="10.00">writeBuf</text>
</a>
</g>
</g>
<!-- Node27&#45;&gt;Node37 -->
<g id="edge15" class="edge"><title>Node27&#45;&gt;Node37</title>
<path fill="none" stroke="midnightblue" d="M61.6777,-209.304C75.6239,-189.423 109.427,-143.13 144,-110 154.51,-99.9282 167.397,-90.0973 178.305,-82.3834"/>
<polygon fill="midnightblue" stroke="midnightblue" points="180.31,-85.2523 186.546,-76.6867 176.329,-79.4943 180.31,-85.2523"/>
</g>
<!-- Node40 -->
<g id="node14" class="node"><title>Node40</title>
<g id="a_node14"><a xlink:href="espenc_8c.html#af50077520ab35a01792daf94a89c5b9a" target="_top" xlink:title="writeReg">
<polygon fill="white" stroke="black" points="174.5,-152.5 174.5,-171.5 230.5,-171.5 230.5,-152.5 174.5,-152.5"/>
<text text-anchor="middle" x="202.5" y="-159.5" font-family="Helvetica,sans-Serif" font-size="10.00">writeReg</text>
</a>
</g>
</g>
<!-- Node27&#45;&gt;Node40 -->
<g id="edge20" class="edge"><title>Node27&#45;&gt;Node40</title>
<path fill="none" stroke="midnightblue" d="M76.0152,-209.433C93.9221,-201.424 120.426,-189.909 144,-181 150.608,-178.503 157.708,-176.008 164.586,-173.685"/>
<polygon fill="midnightblue" stroke="midnightblue" points="166.031,-176.894 174.423,-170.427 163.829,-170.249 166.031,-176.894"/>
</g>
<!-- Node31 -->
<g id="node5" class="node"><title>Node31</title>
<g id="a_node5"><a xlink:href="espenc_8c.html#a9dde37e22459a5eb9237e0b3bd7b2fa8" target="_top" xlink:title="writeRegByte">
<polygon fill="white" stroke="black" points="297,-190.5 297,-209.5 373,-209.5 373,-190.5 297,-190.5"/>
<text text-anchor="middle" x="335" y="-197.5" font-family="Helvetica,sans-Serif" font-size="10.00">writeRegByte</text>
</a>
</g>
</g>
<!-- Node30&#45;&gt;Node31 -->
<g id="edge4" class="edge"><title>Node30&#45;&gt;Node31</title>
<path fill="none" stroke="midnightblue" d="M239.16,-200C253.769,-200 270.89,-200 286.534,-200"/>
<polygon fill="midnightblue" stroke="midnightblue" points="286.56,-203.5 296.56,-200 286.56,-196.5 286.56,-203.5"/>
</g>
<!-- Node30&#45;&gt;Node35 -->
<g id="edge9" class="edge"><title>Node30&#45;&gt;Node35</title>
<path fill="none" stroke="midnightblue" d="M220.028,-209.625C242.385,-222.645 282.471,-245.991 308.649,-261.236"/>
<polygon fill="midnightblue" stroke="midnightblue" points="307.203,-264.445 317.606,-266.453 310.726,-258.396 307.203,-264.445"/>
</g>
<!-- Node31&#45;&gt;Node32 -->
<g id="edge5" class="edge"><title>Node31&#45;&gt;Node32</title>
<path fill="none" stroke="midnightblue" d="M360.982,-209.589C372.941,-214.179 387.455,-219.75 400.451,-224.739"/>
<polygon fill="midnightblue" stroke="midnightblue" points="399.436,-228.098 410.026,-228.414 401.944,-221.563 399.436,-228.098"/>
</g>
<!-- Node31&#45;&gt;Node33 -->
<g id="edge8" class="edge"><title>Node31&#45;&gt;Node33</title>
<path fill="none" stroke="midnightblue" d="M373.393,-200C406.909,-200 455.688,-200 488.34,-200"/>
<polygon fill="midnightblue" stroke="midnightblue" points="488.749,-203.5 498.749,-200 488.749,-196.5 488.749,-203.5"/>
</g>
<!-- Node32&#45;&gt;Node33 -->
<g id="edge6" class="edge"><title>Node32&#45;&gt;Node33</title>
<path fill="none" stroke="midnightblue" d="M458.701,-228.411C468.785,-223.956 480.958,-218.577 491.988,-213.703"/>
<polygon fill="midnightblue" stroke="midnightblue" points="493.573,-216.829 501.306,-209.586 490.744,-210.426 493.573,-216.829"/>
</g>
<!-- Node34 -->
<g id="node8" class="node"><title>Node34</title>
<g id="a_node8"><a xlink:href="spi_8c.html#acebb579091ca980f217d3e5f3bd1f1d5" target="_top" xlink:title="spi_transaction">
<polygon fill="white" stroke="black" points="585,-190.5 585,-209.5 668,-209.5 668,-190.5 585,-190.5"/>
<text text-anchor="middle" x="626.5" y="-197.5" font-family="Helvetica,sans-Serif" font-size="10.00">spi_transaction</text>
</a>
</g>
</g>
<!-- Node33&#45;&gt;Node34 -->
<g id="edge7" class="edge"><title>Node33&#45;&gt;Node34</title>
<path fill="none" stroke="midnightblue" d="M549.072,-200C556.836,-200 565.755,-200 574.698,-200"/>
<polygon fill="midnightblue" stroke="midnightblue" points="574.745,-203.5 584.745,-200 574.745,-196.5 574.745,-203.5"/>
</g>
<!-- Node35&#45;&gt;Node32 -->
<g id="edge10" class="edge"><title>Node35&#45;&gt;Node32</title>
<path fill="none" stroke="midnightblue" d="M360.982,-266.411C372.941,-261.821 387.455,-256.25 400.451,-251.261"/>
<polygon fill="midnightblue" stroke="midnightblue" points="401.944,-254.437 410.026,-247.586 399.436,-247.902 401.944,-254.437"/>
</g>
<!-- Node36 -->
<g id="node10" class="node"><title>Node36</title>
<g id="a_node10"><a xlink:href="espenc_8c.html#a655fbec696cb6a8e30069f066615d830" target="_top" xlink:title="readOp">
<polygon fill="white" stroke="black" points="500,-247.5 500,-266.5 548,-266.5 548,-247.5 500,-247.5"/>
<text text-anchor="middle" x="524" y="-254.5" font-family="Helvetica,sans-Serif" font-size="10.00">readOp</text>
</a>
</g>
</g>
<!-- Node35&#45;&gt;Node36 -->
<g id="edge11" class="edge"><title>Node35&#45;&gt;Node36</title>
<path fill="none" stroke="midnightblue" d="M372.055,-272.337C406.053,-268.882 456.595,-263.747 489.671,-260.386"/>
<polygon fill="midnightblue" stroke="midnightblue" points="490.158,-263.855 499.753,-259.362 489.451,-256.891 490.158,-263.855"/>
</g>
<!-- Node36&#45;&gt;Node34 -->
<g id="edge12" class="edge"><title>Node36&#45;&gt;Node34</title>
<path fill="none" stroke="midnightblue" d="M542.048,-247.331C557.881,-238.351 581.674,-224.857 599.808,-214.571"/>
<polygon fill="midnightblue" stroke="midnightblue" points="601.732,-217.504 608.703,-209.526 598.278,-211.415 601.732,-217.504"/>
</g>
<!-- Node37&#45;&gt;Node34 -->
<g id="edge17" class="edge"><title>Node37&#45;&gt;Node34</title>
<path fill="none" stroke="midnightblue" d="M229.263,-75.1195C300.354,-97.5252 499.678,-160.345 585.438,-187.374"/>
<polygon fill="midnightblue" stroke="midnightblue" points="584.486,-190.743 595.075,-190.411 586.59,-184.067 584.486,-190.743"/>
</g>
<!-- Node38 -->
<g id="node12" class="node"><title>Node38</title>
<g id="a_node12"><a xlink:href="espenc_8c.html#a2239a3e52452ed0f0cd757d4ce5e4c05" target="_top" xlink:title="chipEnable">
<polygon fill="white" stroke="black" points="302.5,-38.5 302.5,-57.5 367.5,-57.5 367.5,-38.5 302.5,-38.5"/>
<text text-anchor="middle" x="335" y="-45.5" font-family="Helvetica,sans-Serif" font-size="10.00">chipEnable</text>
</a>
</g>
</g>
<!-- Node37&#45;&gt;Node38 -->
<g id="edge16" class="edge"><title>Node37&#45;&gt;Node38</title>
<path fill="none" stroke="midnightblue" d="M229.283,-63.2462C247.202,-60.6372 271.483,-57.1021 292.153,-54.0927"/>
<polygon fill="midnightblue" stroke="midnightblue" points="292.88,-57.5238 302.272,-52.6195 291.872,-50.5968 292.88,-57.5238"/>
</g>
<!-- Node39 -->
<g id="node13" class="node"><title>Node39</title>
<g id="a_node13"><a xlink:href="espenc_8c.html#ab8597c7950c0283f785e57b4e02ad76f" target="_top" xlink:title="chipDisable">
<polygon fill="white" stroke="black" points="301,-0.5 301,-19.5 369,-19.5 369,-0.5 301,-0.5"/>
<text text-anchor="middle" x="335" y="-7.5" font-family="Helvetica,sans-Serif" font-size="10.00">chipDisable</text>
</a>
</g>
</g>
<!-- Node37&#45;&gt;Node39 -->
<g id="edge18" class="edge"><title>Node37&#45;&gt;Node39</title>
<path fill="none" stroke="midnightblue" d="M225.343,-57.4595C246.515,-48.2117 278.847,-34.0898 302.741,-23.6532"/>
<polygon fill="midnightblue" stroke="midnightblue" points="304.323,-26.7818 312.086,-19.5716 301.521,-20.367 304.323,-26.7818"/>
</g>
<!-- Node40&#45;&gt;Node31 -->
<g id="edge21" class="edge"><title>Node40&#45;&gt;Node31</title>
<path fill="none" stroke="midnightblue" d="M230.54,-169.874C248.039,-174.969 271.2,-181.713 291.171,-187.529"/>
<polygon fill="midnightblue" stroke="midnightblue" points="290.397,-190.949 300.977,-190.384 292.354,-184.228 290.397,-190.949"/>
</g>
</g>
</svg>
