<?xml version="1.0" encoding="UTF-8" standalone="no"?>
<!DOCTYPE svg PUBLIC "-//W3C//DTD SVG 1.1//EN"
 "http://www.w3.org/Graphics/SVG/1.1/DTD/svg11.dtd">
<!-- Generated by graphviz version 2.38.0 (20140413.2041)
 -->
<!-- Title: interrupt_handler Pages: 1 -->
<svg width="545pt" height="104pt"
 viewBox="0.00 0.00 545.00 104.00" xmlns="http://www.w3.org/2000/svg" xmlns:xlink="http://www.w3.org/1999/xlink">
<g id="graph0" class="graph" transform="scale(1 1) rotate(0) translate(4 100)">
<title>interrupt_handler</title>
<polygon fill="white" stroke="none" points="-4,4 -4,-100 541,-100 541,4 -4,4"/>
<!-- Node160 -->
<g id="node1" class="node"><title>Node160</title>
<polygon fill="#bfbfbf" stroke="black" points="0,-38.5 0,-57.5 89,-57.5 89,-38.5 0,-38.5"/>
<text text-anchor="middle" x="44.5" y="-45.5" font-family="Helvetica,sans-Serif" font-size="10.00">interrupt_handler</text>
</g>
<!-- Node161 -->
<g id="node2" class="node"><title>Node161</title>
<g id="a_node2"><a xlink:href="gpio_8h.html#a0adef8a3e9d5c302d96d1ddc360f7c79" target="_top" xlink:title="gpio_pin_intr_state_set">
<polygon fill="white" stroke="black" points="125,-76.5 125,-95.5 242,-95.5 242,-76.5 125,-76.5"/>
<text text-anchor="middle" x="183.5" y="-83.5" font-family="Helvetica,sans-Serif" font-size="10.00">gpio_pin_intr_state_set</text>
</a>
</g>
</g>
<!-- Node160&#45;&gt;Node161 -->
<g id="edge1" class="edge"><title>Node160&#45;&gt;Node161</title>
<path fill="none" stroke="midnightblue" d="M80.0709,-57.589C97.6752,-62.4719 119.279,-68.4643 138.101,-73.685"/>
<polygon fill="midnightblue" stroke="midnightblue" points="137.368,-77.1138 147.94,-76.4141 139.239,-70.3685 137.368,-77.1138"/>
</g>
<!-- Node162 -->
<g id="node3" class="node"><title>Node162</title>
<g id="a_node3"><a xlink:href="espenc_8c.html#af925f259879dbba7c5d7b0eab062b34b" target="_top" xlink:title="readRegByte">
<polygon fill="white" stroke="black" points="146.5,-38.5 146.5,-57.5 220.5,-57.5 220.5,-38.5 146.5,-38.5"/>
<text text-anchor="middle" x="183.5" y="-45.5" font-family="Helvetica,sans-Serif" font-size="10.00">readRegByte</text>
</a>
</g>
</g>
<!-- Node160&#45;&gt;Node162 -->
<g id="edge2" class="edge"><title>Node160&#45;&gt;Node162</title>
<path fill="none" stroke="midnightblue" d="M89.2243,-48C104.113,-48 120.806,-48 135.91,-48"/>
<polygon fill="midnightblue" stroke="midnightblue" points="136.072,-51.5001 146.072,-48 136.072,-44.5001 136.072,-51.5001"/>
</g>
<!-- Node167 -->
<g id="node8" class="node"><title>Node167</title>
<g id="a_node8"><a xlink:href="user__interface_8h.html#adab1155f3a463f2b05a9bde65b37514f" target="_top" xlink:title="system_os_post">
<polygon fill="white" stroke="black" points="139,-0.5 139,-19.5 228,-19.5 228,-0.5 139,-0.5"/>
<text text-anchor="middle" x="183.5" y="-7.5" font-family="Helvetica,sans-Serif" font-size="10.00">system_os_post</text>
</a>
</g>
</g>
<!-- Node160&#45;&gt;Node167 -->
<g id="edge8" class="edge"><title>Node160&#45;&gt;Node167</title>
<path fill="none" stroke="midnightblue" d="M80.0709,-38.411C97.6752,-33.5281 119.279,-27.5357 138.101,-22.315"/>
<polygon fill="midnightblue" stroke="midnightblue" points="139.239,-25.6315 147.94,-19.5859 137.368,-18.8862 139.239,-25.6315"/>
</g>
<!-- Node163 -->
<g id="node4" class="node"><title>Node163</title>
<g id="a_node4"><a xlink:href="espenc_8c.html#a7e04e867e5a788903adaca29045aa118" target="_top" xlink:title="SetBank">
<polygon fill="white" stroke="black" points="278,-57.5 278,-76.5 332,-76.5 332,-57.5 278,-57.5"/>
<text text-anchor="middle" x="305" y="-64.5" font-family="Helvetica,sans-Serif" font-size="10.00">SetBank</text>
</a>
</g>
</g>
<!-- Node162&#45;&gt;Node163 -->
<g id="edge3" class="edge"><title>Node162&#45;&gt;Node163</title>
<path fill="none" stroke="midnightblue" d="M220.678,-53.7522C235.637,-56.1305 252.942,-58.882 267.893,-61.2592"/>
<polygon fill="midnightblue" stroke="midnightblue" points="267.384,-64.7221 277.81,-62.8359 268.484,-57.809 267.384,-64.7221"/>
</g>
<!-- Node166 -->
<g id="node7" class="node"><title>Node166</title>
<g id="a_node7"><a xlink:href="espenc_8c.html#a655fbec696cb6a8e30069f066615d830" target="_top" xlink:title="readOp">
<polygon fill="white" stroke="black" points="369,-19.5 369,-38.5 417,-38.5 417,-19.5 369,-19.5"/>
<text text-anchor="middle" x="393" y="-26.5" font-family="Helvetica,sans-Serif" font-size="10.00">readOp</text>
</a>
</g>
</g>
<!-- Node162&#45;&gt;Node166 -->
<g id="edge6" class="edge"><title>Node162&#45;&gt;Node166</title>
<path fill="none" stroke="midnightblue" d="M220.644,-44.6905C259.595,-41.1238 321.065,-35.4952 358.825,-32.0378"/>
<polygon fill="midnightblue" stroke="midnightblue" points="359.168,-35.521 368.807,-31.1237 358.53,-28.5502 359.168,-35.521"/>
</g>
<!-- Node164 -->
<g id="node5" class="node"><title>Node164</title>
<g id="a_node5"><a xlink:href="espenc_8c.html#aa384e05ea3543cb9fca318f6623952fc" target="_top" xlink:title="writeOp">
<polygon fill="white" stroke="black" points="368,-57.5 368,-76.5 418,-76.5 418,-57.5 368,-57.5"/>
<text text-anchor="middle" x="393" y="-64.5" font-family="Helvetica,sans-Serif" font-size="10.00">writeOp</text>
</a>
</g>
</g>
<!-- Node163&#45;&gt;Node164 -->
<g id="edge4" class="edge"><title>Node163&#45;&gt;Node164</title>
<path fill="none" stroke="midnightblue" d="M332.27,-67C340.347,-67 349.357,-67 357.881,-67"/>
<polygon fill="midnightblue" stroke="midnightblue" points="357.941,-70.5001 367.941,-67 357.941,-63.5001 357.941,-70.5001"/>
</g>
<!-- Node165 -->
<g id="node6" class="node"><title>Node165</title>
<g id="a_node6"><a xlink:href="spi_8c.html#acebb579091ca980f217d3e5f3bd1f1d5" target="_top" xlink:title="spi_transaction">
<polygon fill="white" stroke="black" points="454,-38.5 454,-57.5 537,-57.5 537,-38.5 454,-38.5"/>
<text text-anchor="middle" x="495.5" y="-45.5" font-family="Helvetica,sans-Serif" font-size="10.00">spi_transaction</text>
</a>
</g>
</g>
<!-- Node164&#45;&gt;Node165 -->
<g id="edge5" class="edge"><title>Node164&#45;&gt;Node165</title>
<path fill="none" stroke="midnightblue" d="M418.072,-62.449C425.836,-60.9813 434.755,-59.295 443.698,-57.6043"/>
<polygon fill="midnightblue" stroke="midnightblue" points="444.569,-61.0017 453.745,-55.7049 443.269,-54.1236 444.569,-61.0017"/>
</g>
<!-- Node166&#45;&gt;Node165 -->
<g id="edge7" class="edge"><title>Node166&#45;&gt;Node165</title>
<path fill="none" stroke="midnightblue" d="M417.057,-33.359C425.058,-34.8716 434.375,-36.633 443.716,-38.3991"/>
<polygon fill="midnightblue" stroke="midnightblue" points="443.325,-41.8871 453.802,-40.3058 444.626,-35.009 443.325,-41.8871"/>
</g>
</g>
</svg>
