<?xml version="1.0" encoding="UTF-8" standalone="no"?>
<!DOCTYPE svg PUBLIC "-//W3C//DTD SVG 1.1//EN"
 "http://www.w3.org/Graphics/SVG/1.1/DTD/svg11.dtd">
<!-- Generated by graphviz version 2.38.0 (20140413.2041)
 -->
<!-- Title: chipDisable Pages: 1 -->
<svg width="683pt" height="66pt"
 viewBox="0.00 0.00 683.00 66.00" xmlns="http://www.w3.org/2000/svg" xmlns:xlink="http://www.w3.org/1999/xlink">
<g id="graph0" class="graph" transform="scale(1 1) rotate(0) translate(4 62)">
<title>chipDisable</title>
<polygon fill="white" stroke="none" points="-4,4 -4,-62 679,-62 679,4 -4,4"/>
<!-- Node1 -->
<g id="node1" class="node"><title>Node1</title>
<polygon fill="#bfbfbf" stroke="black" points="0,-19.5 0,-38.5 68,-38.5 68,-19.5 0,-19.5"/>
<text text-anchor="middle" x="34" y="-26.5" font-family="Helvetica,sans-Serif" font-size="10.00">chipDisable</text>
</g>
<!-- Node2 -->
<g id="node2" class="node"><title>Node2</title>
<g id="a_node2"><a xlink:href="espenc_8c.html#a89cd52367e9b45f6d73b2b562b5be92d" target="_top" xlink:title="readBuf">
<polygon fill="white" stroke="black" points="104,-38.5 104,-57.5 154,-57.5 154,-38.5 104,-38.5"/>
<text text-anchor="middle" x="129" y="-45.5" font-family="Helvetica,sans-Serif" font-size="10.00">readBuf</text>
</a>
</g>
</g>
<!-- Node1&#45;&gt;Node2 -->
<g id="edge1" class="edge"><title>Node1&#45;&gt;Node2</title>
<path fill="none" stroke="midnightblue" d="M77.9429,-37.7733C86.8325,-39.5894 95.8965,-41.4412 103.825,-43.0611"/>
<polygon fill="midnightblue" stroke="midnightblue" points="78.5484,-34.3248 68.0502,-35.7522 77.1472,-41.1831 78.5484,-34.3248"/>
</g>
<!-- Node7 -->
<g id="node7" class="node"><title>Node7</title>
<g id="a_node7"><a xlink:href="espenc_8c.html#a921bffb078028c3ee1dd910fd41ec53e" target="_top" xlink:title="writeBuf">
<polygon fill="white" stroke="black" points="228,-0.5 228,-19.5 281,-19.5 281,-0.5 228,-0.5"/>
<text text-anchor="middle" x="254.5" y="-7.5" font-family="Helvetica,sans-Serif" font-size="10.00">writeBuf</text>
</a>
</g>
</g>
<!-- Node1&#45;&gt;Node7 -->
<g id="edge6" class="edge"><title>Node1&#45;&gt;Node7</title>
<path fill="none" stroke="midnightblue" d="M78.1658,-25.2465C122.824,-21.3631 191.082,-15.4277 227.872,-12.2285"/>
<polygon fill="midnightblue" stroke="midnightblue" points="77.8446,-21.7611 68.1854,-26.1143 78.4511,-28.7348 77.8446,-21.7611"/>
</g>
<!-- Node3 -->
<g id="node3" class="node"><title>Node3</title>
<g id="a_node3"><a xlink:href="espenc_8c.html#abad8eb65a3bbaacff290a354199cd349" target="_top" xlink:title="enc28j60_handle_packets">
<polygon fill="white" stroke="black" points="190,-38.5 190,-57.5 319,-57.5 319,-38.5 190,-38.5"/>
<text text-anchor="middle" x="254.5" y="-45.5" font-family="Helvetica,sans-Serif" font-size="10.00">enc28j60_handle_packets</text>
</a>
</g>
</g>
<!-- Node2&#45;&gt;Node3 -->
<g id="edge2" class="edge"><title>Node2&#45;&gt;Node3</title>
<path fill="none" stroke="midnightblue" d="M164.18,-48C172.236,-48 181.079,-48 189.972,-48"/>
<polygon fill="midnightblue" stroke="midnightblue" points="164.105,-44.5001 154.105,-48 164.105,-51.5001 164.105,-44.5001"/>
</g>
<!-- Node4 -->
<g id="node4" class="node"><title>Node4</title>
<g id="a_node4"><a xlink:href="espenc_8c.html#a55dfa017402fc9454bf75d0536cb2425" target="_top" xlink:title="enc_scoop_packets">
<polygon fill="white" stroke="black" points="357,-38.5 357,-57.5 461,-57.5 461,-38.5 357,-38.5"/>
<text text-anchor="middle" x="409" y="-45.5" font-family="Helvetica,sans-Serif" font-size="10.00">enc_scoop_packets</text>
</a>
</g>
</g>
<!-- Node3&#45;&gt;Node4 -->
<g id="edge3" class="edge"><title>Node3&#45;&gt;Node4</title>
<path fill="none" stroke="midnightblue" d="M329.378,-48C338.716,-48 348.102,-48 356.975,-48"/>
<polygon fill="midnightblue" stroke="midnightblue" points="329.29,-44.5001 319.29,-48 329.29,-51.5001 329.29,-44.5001"/>
</g>
<!-- Node5 -->
<g id="node5" class="node"><title>Node5</title>
<g id="a_node5"><a xlink:href="espenc_8c.html#a0f5c2a11efd2f3a3ba9dd104d632e594" target="_top" xlink:title="swint_Task">
<polygon fill="white" stroke="black" points="502.5,-38.5 502.5,-57.5 569.5,-57.5 569.5,-38.5 502.5,-38.5"/>
<text text-anchor="middle" x="536" y="-45.5" font-family="Helvetica,sans-Serif" font-size="10.00">swint_Task</text>
</a>
</g>
</g>
<!-- Node4&#45;&gt;Node5 -->
<g id="edge4" class="edge"><title>Node4&#45;&gt;Node5</title>
<path fill="none" stroke="midnightblue" d="M471.389,-48C482.069,-48 492.793,-48 502.312,-48"/>
<polygon fill="midnightblue" stroke="midnightblue" points="471.203,-44.5001 461.203,-48 471.203,-51.5001 471.203,-44.5001"/>
</g>
<!-- Node6 -->
<g id="node6" class="node"><title>Node6</title>
<g id="a_node6"><a xlink:href="espenc_8c.html#a193505f7e2d8f132ca9698a32783fe93" target="_top" xlink:title="espenc_init">
<polygon fill="white" stroke="black" points="609,-19.5 609,-38.5 675,-38.5 675,-19.5 609,-19.5"/>
<text text-anchor="middle" x="642" y="-26.5" font-family="Helvetica,sans-Serif" font-size="10.00">espenc_init</text>
</a>
</g>
</g>
<!-- Node5&#45;&gt;Node6 -->
<g id="edge5" class="edge"><title>Node5&#45;&gt;Node6</title>
<path fill="none" stroke="midnightblue" d="M579.584,-40.2202C589.362,-38.4338 599.6,-36.5635 608.851,-34.8733"/>
<polygon fill="midnightblue" stroke="midnightblue" points="578.829,-36.8001 569.621,-42.0404 580.087,-43.6862 578.829,-36.8001"/>
</g>
<!-- Node8 -->
<g id="node8" class="node"><title>Node8</title>
<g id="a_node8"><a xlink:href="espenc_8c.html#abc96fe33660001538919e64fc237796f" target="_top" xlink:title="enc28j60_link_output">
<polygon fill="white" stroke="black" points="355,-0.5 355,-19.5 463,-19.5 463,-0.5 355,-0.5"/>
<text text-anchor="middle" x="409" y="-7.5" font-family="Helvetica,sans-Serif" font-size="10.00">enc28j60_link_output</text>
</a>
</g>
</g>
<!-- Node7&#45;&gt;Node8 -->
<g id="edge7" class="edge"><title>Node7&#45;&gt;Node8</title>
<path fill="none" stroke="midnightblue" d="M291.028,-10C309.999,-10 333.73,-10 354.849,-10"/>
<polygon fill="midnightblue" stroke="midnightblue" points="291.025,-6.5001 281.025,-10 291.025,-13.5001 291.025,-6.5001"/>
</g>
<!-- Node9 -->
<g id="node9" class="node"><title>Node9</title>
<g id="a_node9"><a xlink:href="espenc_8c.html#a81a1bda1746cf556eca33a6ab92ea851" target="_top" xlink:title="enc28j60_init">
<polygon fill="white" stroke="black" points="499,-0.5 499,-19.5 573,-19.5 573,-0.5 499,-0.5"/>
<text text-anchor="middle" x="536" y="-7.5" font-family="Helvetica,sans-Serif" font-size="10.00">enc28j60_init</text>
</a>
</g>
</g>
<!-- Node8&#45;&gt;Node9 -->
<g id="edge8" class="edge"><title>Node8&#45;&gt;Node9</title>
<path fill="none" stroke="midnightblue" d="M473.016,-10C481.907,-10 490.783,-10 498.926,-10"/>
<polygon fill="midnightblue" stroke="midnightblue" points="473.011,-6.5001 463.011,-10 473.011,-13.5001 473.011,-6.5001"/>
</g>
<!-- Node9&#45;&gt;Node6 -->
<g id="edge9" class="edge"><title>Node9&#45;&gt;Node6</title>
<path fill="none" stroke="midnightblue" d="M583.103,-18.4226C591.776,-20.0071 600.67,-21.6321 608.805,-23.1182"/>
<polygon fill="midnightblue" stroke="midnightblue" points="583.549,-14.9462 573.082,-16.592 582.29,-21.8322 583.549,-14.9462"/>
</g>
</g>
</svg>
