<?xml version="1.0" encoding="UTF-8" standalone="no"?>
<!DOCTYPE svg PUBLIC "-//W3C//DTD SVG 1.1//EN"
 "http://www.w3.org/Graphics/SVG/1.1/DTD/svg11.dtd">
<!-- Generated by graphviz version 2.38.0 (20140413.2041)
 -->
<!-- Title: print_reason Pages: 1 -->
<svg width="718pt" height="294pt"
 viewBox="0.00 0.00 718.00 294.00" xmlns="http://www.w3.org/2000/svg" xmlns:xlink="http://www.w3.org/1999/xlink">
<g id="graph0" class="graph" transform="scale(1 1) rotate(0) translate(4 290)">
<title>print_reason</title>
<polygon fill="white" stroke="none" points="-4,4 -4,-290 714,-290 714,4 -4,4"/>
<!-- Node75 -->
<g id="node1" class="node"><title>Node75</title>
<polygon fill="#bfbfbf" stroke="black" points="0,-95.5 0,-114.5 70,-114.5 70,-95.5 0,-95.5"/>
<text text-anchor="middle" x="35" y="-102.5" font-family="Helvetica,sans-Serif" font-size="10.00">print_reason</text>
</g>
<!-- Node76 -->
<g id="node2" class="node"><title>Node76</title>
<g id="a_node2"><a xlink:href="exception__handler_8c.html#a61e45a6ae4196917090e563540e80cd2" target="_top" xlink:title="getaregval">
<polygon fill="white" stroke="black" points="107.5,-152.5 107.5,-171.5 169.5,-171.5 169.5,-152.5 107.5,-152.5"/>
<text text-anchor="middle" x="138.5" y="-159.5" font-family="Helvetica,sans-Serif" font-size="10.00">getaregval</text>
</a>
</g>
</g>
<!-- Node75&#45;&gt;Node76 -->
<g id="edge1" class="edge"><title>Node75&#45;&gt;Node76</title>
<path fill="none" stroke="midnightblue" d="M53.2181,-114.669C69.2818,-123.69 93.4584,-137.267 111.804,-147.57"/>
<polygon fill="midnightblue" stroke="midnightblue" points="110.103,-150.629 120.536,-152.474 113.531,-144.525 110.103,-150.629"/>
</g>
<!-- Node77 -->
<g id="node3" class="node"><title>Node77</title>
<g id="a_node3"><a xlink:href="exception__handler_8c.html#a2e046011a1fec4843b394a30be788b81" target="_top" xlink:title="print_stack">
<polygon fill="white" stroke="black" points="106,-76.5 106,-95.5 171,-95.5 171,-76.5 106,-76.5"/>
<text text-anchor="middle" x="138.5" y="-83.5" font-family="Helvetica,sans-Serif" font-size="10.00">print_stack</text>
</a>
</g>
</g>
<!-- Node75&#45;&gt;Node77 -->
<g id="edge2" class="edge"><title>Node75&#45;&gt;Node77</title>
<path fill="none" stroke="midnightblue" d="M70.0804,-98.6204C78.3592,-97.0707 87.3037,-95.3964 95.8876,-93.7895"/>
<polygon fill="midnightblue" stroke="midnightblue" points="96.5519,-97.226 105.737,-91.9458 95.2638,-90.3456 96.5519,-97.226"/>
</g>
<!-- Node78 -->
<g id="node4" class="node"><title>Node78</title>
<g id="a_node4"><a xlink:href="tinyprintf_8c.html#a9738cbc6c538d210941db282e240c7d6" target="_top" xlink:title="tfp_snprintf">
<polygon fill="white" stroke="black" points="226.5,-114.5 226.5,-133.5 291.5,-133.5 291.5,-114.5 226.5,-114.5"/>
<text text-anchor="middle" x="259" y="-121.5" font-family="Helvetica,sans-Serif" font-size="10.00">tfp_snprintf</text>
</a>
</g>
</g>
<!-- Node75&#45;&gt;Node78 -->
<g id="edge24" class="edge"><title>Node75&#45;&gt;Node78</title>
<path fill="none" stroke="midnightblue" d="M70.201,-107.927C109.528,-111.293 174.081,-116.818 216.315,-120.432"/>
<polygon fill="midnightblue" stroke="midnightblue" points="216.017,-123.92 226.279,-121.285 216.614,-116.945 216.017,-123.92"/>
</g>
<!-- Node91 -->
<g id="node17" class="node"><title>Node91</title>
<g id="a_node17"><a xlink:href="exception__handler_8c.html#a55df0a6f3d7521b2d15e0ac2de68fb17" target="_top" xlink:title="stack_trace_append">
<polygon fill="white" stroke="black" points="207,-38.5 207,-57.5 311,-57.5 311,-38.5 207,-38.5"/>
<text text-anchor="middle" x="259" y="-45.5" font-family="Helvetica,sans-Serif" font-size="10.00">stack_trace_append</text>
</a>
</g>
</g>
<!-- Node75&#45;&gt;Node91 -->
<g id="edge23" class="edge"><title>Node75&#45;&gt;Node91</title>
<path fill="none" stroke="midnightblue" d="M49.7757,-95.4953C63.4097,-86.5914 85.1989,-73.6826 106,-67 134.977,-57.6907 168.424,-52.9076 196.552,-50.4644"/>
<polygon fill="midnightblue" stroke="midnightblue" points="196.964,-53.9429 206.657,-49.666 196.412,-46.9646 196.964,-53.9429"/>
</g>
<!-- Node77&#45;&gt;Node78 -->
<g id="edge3" class="edge"><title>Node77&#45;&gt;Node78</title>
<path fill="none" stroke="midnightblue" d="M169.403,-95.589C184.279,-100.359 202.457,-106.189 218.467,-111.323"/>
<polygon fill="midnightblue" stroke="midnightblue" points="217.516,-114.693 228.107,-114.414 219.653,-108.028 217.516,-114.693"/>
</g>
<!-- Node77&#45;&gt;Node91 -->
<g id="edge19" class="edge"><title>Node77&#45;&gt;Node91</title>
<path fill="none" stroke="midnightblue" d="M169.403,-76.411C184.279,-71.6406 202.457,-65.8112 218.467,-60.6771"/>
<polygon fill="midnightblue" stroke="midnightblue" points="219.653,-63.9724 228.107,-57.5859 217.516,-57.3068 219.653,-63.9724"/>
</g>
<!-- Node93 -->
<g id="node19" class="node"><title>Node93</title>
<g id="a_node19"><a xlink:href="exception__handler_8c.html#a6dd972687fcba7dedc66efa292a264f6" target="_top" xlink:title="stack_trace_last">
<polygon fill="white" stroke="black" points="214.5,-76.5 214.5,-95.5 303.5,-95.5 303.5,-76.5 214.5,-76.5"/>
<text text-anchor="middle" x="259" y="-83.5" font-family="Helvetica,sans-Serif" font-size="10.00">stack_trace_last</text>
</a>
</g>
</g>
<!-- Node77&#45;&gt;Node93 -->
<g id="edge21" class="edge"><title>Node77&#45;&gt;Node93</title>
<path fill="none" stroke="midnightblue" d="M171.256,-86C181.334,-86 192.775,-86 203.966,-86"/>
<polygon fill="midnightblue" stroke="midnightblue" points="204.128,-89.5001 214.128,-86 204.127,-82.5001 204.128,-89.5001"/>
</g>
<!-- Node79 -->
<g id="node5" class="node"><title>Node79</title>
<g id="a_node5"><a xlink:href="tinyprintf_8c.html#ac8c8a66133cf0d7009c0d73b55311a44" target="_top" xlink:title="tfp_vsnprintf">
<polygon fill="white" stroke="black" points="352.5,-114.5 352.5,-133.5 423.5,-133.5 423.5,-114.5 352.5,-114.5"/>
<text text-anchor="middle" x="388" y="-121.5" font-family="Helvetica,sans-Serif" font-size="10.00">tfp_vsnprintf</text>
</a>
</g>
</g>
<!-- Node78&#45;&gt;Node79 -->
<g id="edge4" class="edge"><title>Node78&#45;&gt;Node79</title>
<path fill="none" stroke="midnightblue" d="M291.72,-124C306.93,-124 325.419,-124 342.047,-124"/>
<polygon fill="midnightblue" stroke="midnightblue" points="342.114,-127.5 352.114,-124 342.114,-120.5 342.114,-127.5"/>
</g>
<!-- Node80 -->
<g id="node6" class="node"><title>Node80</title>
<g id="a_node6"><a xlink:href="tinyprintf_8c.html#a5877e42444463efc71a91b5fe76a6145" target="_top" xlink:title="tfp_format">
<polygon fill="white" stroke="black" points="477.5,-133.5 477.5,-152.5 538.5,-152.5 538.5,-133.5 477.5,-133.5"/>
<text text-anchor="middle" x="508" y="-140.5" font-family="Helvetica,sans-Serif" font-size="10.00">tfp_format</text>
</a>
</g>
</g>
<!-- Node79&#45;&gt;Node80 -->
<g id="edge5" class="edge"><title>Node79&#45;&gt;Node80</title>
<path fill="none" stroke="midnightblue" d="M423.766,-129.598C437.442,-131.8 453.221,-134.341 467.339,-136.614"/>
<polygon fill="midnightblue" stroke="midnightblue" points="466.842,-140.079 477.271,-138.213 467.955,-133.168 466.842,-140.079"/>
</g>
<!-- Node90 -->
<g id="node16" class="node"><title>Node90</title>
<g id="a_node16"><a xlink:href="tinyprintf_8c.html#a919051024b2d729e34a54648b3f2462d" target="_top" xlink:title="_vsnprintf_putcf">
<polygon fill="white" stroke="black" points="465,-95.5 465,-114.5 551,-114.5 551,-95.5 465,-95.5"/>
<text text-anchor="middle" x="508" y="-102.5" font-family="Helvetica,sans-Serif" font-size="10.00">_vsnprintf_putcf</text>
</a>
</g>
</g>
<!-- Node79&#45;&gt;Node90 -->
<g id="edge18" class="edge"><title>Node79&#45;&gt;Node90</title>
<path fill="none" stroke="midnightblue" d="M423.766,-118.402C433.554,-116.826 444.42,-115.076 454.982,-113.376"/>
<polygon fill="midnightblue" stroke="midnightblue" points="455.655,-116.813 464.972,-111.767 454.543,-109.902 455.655,-116.813"/>
</g>
<!-- Node81 -->
<g id="node7" class="node"><title>Node81</title>
<g id="a_node7"><a xlink:href="tinyprintf_8c.html#aa97593a5e53af85b608ad0910db92d77" target="_top" xlink:title="a2u">
<polygon fill="white" stroke="black" points="595,-266.5 595,-285.5 627,-285.5 627,-266.5 595,-266.5"/>
<text text-anchor="middle" x="611" y="-273.5" font-family="Helvetica,sans-Serif" font-size="10.00">a2u</text>
</a>
</g>
</g>
<!-- Node80&#45;&gt;Node81 -->
<g id="edge6" class="edge"><title>Node80&#45;&gt;Node81</title>
<path fill="none" stroke="midnightblue" d="M515.24,-152.669C527.935,-172.115 558.025,-217.08 587,-252 588.935,-254.332 591.043,-256.716 593.173,-259.034"/>
<polygon fill="midnightblue" stroke="midnightblue" points="590.84,-261.659 600.273,-266.483 595.907,-256.83 590.84,-261.659"/>
</g>
<!-- Node83 -->
<g id="node9" class="node"><title>Node83</title>
<g id="a_node9"><a xlink:href="tinyprintf_8c.html#abcf035dd576671b0cc897de9dd8c75b0" target="_top" xlink:title="ulli2a">
<polygon fill="white" stroke="black" points="671,-209.5 671,-228.5 710,-228.5 710,-209.5 671,-209.5"/>
<text text-anchor="middle" x="690.5" y="-216.5" font-family="Helvetica,sans-Serif" font-size="10.00">ulli2a</text>
</a>
</g>
</g>
<!-- Node80&#45;&gt;Node83 -->
<g id="edge8" class="edge"><title>Node80&#45;&gt;Node83</title>
<path fill="none" stroke="midnightblue" d="M515.062,-152.58C526.593,-169.787 553.548,-205.397 587,-219 610.55,-228.576 639.737,-227.464 660.935,-224.611"/>
<polygon fill="midnightblue" stroke="midnightblue" points="661.585,-228.052 670.93,-223.059 660.511,-221.135 661.585,-228.052"/>
</g>
<!-- Node84 -->
<g id="node10" class="node"><title>Node84</title>
<g id="a_node10"><a xlink:href="tinyprintf_8c.html#a1d61347854a8c290d59b4a21efcefd75" target="_top" xlink:title="uli2a">
<polygon fill="white" stroke="black" points="672,-85.5 672,-104.5 709,-104.5 709,-85.5 672,-85.5"/>
<text text-anchor="middle" x="690.5" y="-92.5" font-family="Helvetica,sans-Serif" font-size="10.00">uli2a</text>
</a>
</g>
</g>
<!-- Node80&#45;&gt;Node84 -->
<g id="edge9" class="edge"><title>Node80&#45;&gt;Node84</title>
<path fill="none" stroke="midnightblue" d="M530.916,-133.388C537.419,-130.455 544.531,-127.167 551,-124 567.249,-116.046 569.671,-110.198 587,-105 611.5,-97.6504 640.628,-95.3923 661.56,-94.8303"/>
<polygon fill="midnightblue" stroke="midnightblue" points="661.746,-98.3279 671.691,-94.673 661.637,-91.3287 661.746,-98.3279"/>
</g>
<!-- Node85 -->
<g id="node11" class="node"><title>Node85</title>
<g id="a_node11"><a xlink:href="tinyprintf_8c.html#ac87ff66a592723f55692eaf8e3f19df8" target="_top" xlink:title="ui2a">
<polygon fill="white" stroke="black" points="673,-28.5 673,-47.5 708,-47.5 708,-28.5 673,-28.5"/>
<text text-anchor="middle" x="690.5" y="-35.5" font-family="Helvetica,sans-Serif" font-size="10.00">ui2a</text>
</a>
</g>
</g>
<!-- Node80&#45;&gt;Node85 -->
<g id="edge10" class="edge"><title>Node80&#45;&gt;Node85</title>
<path fill="none" stroke="midnightblue" d="M533.644,-133.35C539.514,-130.649 545.63,-127.486 551,-124 568.956,-112.345 569.402,-104.189 587,-92 611.663,-74.918 642.382,-59.4099 663.728,-49.4405"/>
<polygon fill="midnightblue" stroke="midnightblue" points="665.195,-52.6186 672.821,-45.264 662.273,-46.2575 665.195,-52.6186"/>
</g>
<!-- Node86 -->
<g id="node12" class="node"><title>Node86</title>
<g id="a_node12"><a xlink:href="tinyprintf_8c.html#a6252dbfebb2c8783c4e3107d551082dd" target="_top" xlink:title="putchw">
<polygon fill="white" stroke="black" points="587,-114.5 587,-133.5 635,-133.5 635,-114.5 587,-114.5"/>
<text text-anchor="middle" x="611" y="-121.5" font-family="Helvetica,sans-Serif" font-size="10.00">putchw</text>
</a>
</g>
</g>
<!-- Node80&#45;&gt;Node86 -->
<g id="edge11" class="edge"><title>Node80&#45;&gt;Node86</title>
<path fill="none" stroke="midnightblue" d="M538.757,-137.402C550.758,-135.144 564.652,-132.531 576.965,-130.215"/>
<polygon fill="midnightblue" stroke="midnightblue" points="577.68,-133.642 586.86,-128.353 576.386,-126.762 577.68,-133.642"/>
</g>
<!-- Node87 -->
<g id="node13" class="node"><title>Node87</title>
<g id="a_node13"><a xlink:href="tinyprintf_8c.html#a49c6d2b3d4088012f2c1fe344eef69f3" target="_top" xlink:title="lli2a">
<polygon fill="white" stroke="black" points="594,-190.5 594,-209.5 628,-209.5 628,-190.5 594,-190.5"/>
<text text-anchor="middle" x="611" y="-197.5" font-family="Helvetica,sans-Serif" font-size="10.00">lli2a</text>
</a>
</g>
</g>
<!-- Node80&#45;&gt;Node87 -->
<g id="edge12" class="edge"><title>Node80&#45;&gt;Node87</title>
<path fill="none" stroke="midnightblue" d="M526.133,-152.669C542.237,-161.757 566.533,-175.469 584.837,-185.799"/>
<polygon fill="midnightblue" stroke="midnightblue" points="583.358,-188.983 593.787,-190.85 586.798,-182.887 583.358,-188.983"/>
</g>
<!-- Node88 -->
<g id="node14" class="node"><title>Node88</title>
<g id="a_node14"><a xlink:href="tinyprintf_8c.html#afebb7696337c3f599b5e8db35c560684" target="_top" xlink:title="li2a">
<polygon fill="white" stroke="black" points="595,-152.5 595,-171.5 627,-171.5 627,-152.5 595,-152.5"/>
<text text-anchor="middle" x="611" y="-159.5" font-family="Helvetica,sans-Serif" font-size="10.00">li2a</text>
</a>
</g>
</g>
<!-- Node80&#45;&gt;Node88 -->
<g id="edge14" class="edge"><title>Node80&#45;&gt;Node88</title>
<path fill="none" stroke="midnightblue" d="M538.757,-148.598C553.41,-151.354 570.882,-154.641 584.856,-157.27"/>
<polygon fill="midnightblue" stroke="midnightblue" points="584.282,-160.723 594.756,-159.132 585.576,-153.844 584.282,-160.723"/>
</g>
<!-- Node89 -->
<g id="node15" class="node"><title>Node89</title>
<g id="a_node15"><a xlink:href="tinyprintf_8c.html#a90f9fd8f2133cda7f50be8d67823405c" target="_top" xlink:title="i2a">
<polygon fill="white" stroke="black" points="596.5,-0.5 596.5,-19.5 625.5,-19.5 625.5,-0.5 596.5,-0.5"/>
<text text-anchor="middle" x="611" y="-7.5" font-family="Helvetica,sans-Serif" font-size="10.00">i2a</text>
</a>
</g>
</g>
<!-- Node80&#45;&gt;Node89 -->
<g id="edge16" class="edge"><title>Node80&#45;&gt;Node89</title>
<path fill="none" stroke="midnightblue" d="M538.031,-133.445C542.789,-130.928 547.349,-127.817 551,-124 580.781,-92.8693 563.668,-70.2163 587,-34 588.477,-31.7077 590.192,-29.444 592.007,-27.2764"/>
<polygon fill="midnightblue" stroke="midnightblue" points="594.96,-29.2407 599.211,-19.536 589.836,-24.4716 594.96,-29.2407"/>
</g>
<!-- Node82 -->
<g id="node8" class="node"><title>Node82</title>
<g id="a_node8"><a xlink:href="tinyprintf_8c.html#aa853a0c5ba64fa2546d488b86192e7e3" target="_top" xlink:title="a2d">
<polygon fill="white" stroke="black" points="674.5,-266.5 674.5,-285.5 706.5,-285.5 706.5,-266.5 674.5,-266.5"/>
<text text-anchor="middle" x="690.5" y="-273.5" font-family="Helvetica,sans-Serif" font-size="10.00">a2d</text>
</a>
</g>
</g>
<!-- Node81&#45;&gt;Node82 -->
<g id="edge7" class="edge"><title>Node81&#45;&gt;Node82</title>
<path fill="none" stroke="midnightblue" d="M627.312,-276C637.888,-276 652.197,-276 664.423,-276"/>
<polygon fill="midnightblue" stroke="midnightblue" points="664.484,-279.5 674.484,-276 664.484,-272.5 664.484,-279.5"/>
</g>
<!-- Node87&#45;&gt;Node83 -->
<g id="edge13" class="edge"><title>Node87&#45;&gt;Node83</title>
<path fill="none" stroke="midnightblue" d="M628.058,-203.937C637.563,-206.267 649.88,-209.287 660.987,-212.01"/>
<polygon fill="midnightblue" stroke="midnightblue" points="660.187,-215.417 670.733,-214.399 661.854,-208.619 660.187,-215.417"/>
</g>
<!-- Node88&#45;&gt;Node84 -->
<g id="edge15" class="edge"><title>Node88&#45;&gt;Node84</title>
<path fill="none" stroke="midnightblue" d="M623.76,-152.405C627.385,-149.416 631.375,-146.092 635,-143 647.11,-132.669 660.531,-120.854 671.024,-111.531"/>
<polygon fill="midnightblue" stroke="midnightblue" points="673.593,-113.93 678.731,-104.664 668.936,-108.703 673.593,-113.93"/>
</g>
<!-- Node89&#45;&gt;Node85 -->
<g id="edge17" class="edge"><title>Node89&#45;&gt;Node85</title>
<path fill="none" stroke="midnightblue" d="M625.855,-15.0058C636.231,-18.7543 650.735,-23.9945 663.277,-28.5258"/>
<polygon fill="midnightblue" stroke="midnightblue" points="662.204,-31.8596 672.798,-31.9659 664.583,-25.2761 662.204,-31.8596"/>
</g>
<!-- Node92 -->
<g id="node18" class="node"><title>Node92</title>
<g id="a_node18"><a xlink:href="spi__flash_8h.html#a97906813255238cdb0da4d21040abf90" target="_top" xlink:title="spi_flash_write">
<polygon fill="white" stroke="black" points="347,-57.5 347,-76.5 429,-76.5 429,-57.5 347,-57.5"/>
<text text-anchor="middle" x="388" y="-64.5" font-family="Helvetica,sans-Serif" font-size="10.00">spi_flash_write</text>
</a>
</g>
</g>
<!-- Node91&#45;&gt;Node92 -->
<g id="edge20" class="edge"><title>Node91&#45;&gt;Node92</title>
<path fill="none" stroke="midnightblue" d="M311.29,-55.6733C319.708,-56.9327 328.423,-58.2366 336.814,-59.4919"/>
<polygon fill="midnightblue" stroke="midnightblue" points="336.439,-62.9746 346.846,-60.9928 337.474,-56.0516 336.439,-62.9746"/>
</g>
<!-- Node93&#45;&gt;Node92 -->
<g id="edge22" class="edge"><title>Node93&#45;&gt;Node92</title>
<path fill="none" stroke="midnightblue" d="M303.706,-79.4613C314.255,-77.8832 325.613,-76.1839 336.446,-74.5632"/>
<polygon fill="midnightblue" stroke="midnightblue" points="337.256,-77.981 346.628,-73.0399 336.22,-71.0581 337.256,-77.981"/>
</g>
</g>
</svg>
