<?xml version="1.0" encoding="UTF-8" standalone="no"?>
<!DOCTYPE svg PUBLIC "-//W3C//DTD SVG 1.1//EN"
 "http://www.w3.org/Graphics/SVG/1.1/DTD/svg11.dtd">
<!-- Generated by graphviz version 2.38.0 (20140413.2041)
 -->
<!-- Title: print_reason Pages: 1 -->
<svg width="482pt" height="28pt"
 viewBox="0.00 0.00 482.00 28.00" xmlns="http://www.w3.org/2000/svg" xmlns:xlink="http://www.w3.org/1999/xlink">
<g id="graph0" class="graph" transform="scale(1 1) rotate(0) translate(4 24)">
<title>print_reason</title>
<polygon fill="white" stroke="none" points="-4,4 -4,-24 478,-24 478,4 -4,4"/>
<!-- Node94 -->
<g id="node1" class="node"><title>Node94</title>
<polygon fill="#bfbfbf" stroke="black" points="0,-0.5 0,-19.5 70,-19.5 70,-0.5 0,-0.5"/>
<text text-anchor="middle" x="35" y="-7.5" font-family="Helvetica,sans-Serif" font-size="10.00">print_reason</text>
</g>
<!-- Node95 -->
<g id="node2" class="node"><title>Node95</title>
<g id="a_node2"><a xlink:href="exception__handler_8c.html#a4ce27bb819b79646b07f435f96c7bf93" target="_top" xlink:title="exception_handler">
<polygon fill="white" stroke="black" points="106,-0.5 106,-19.5 201,-19.5 201,-0.5 106,-0.5"/>
<text text-anchor="middle" x="153.5" y="-7.5" font-family="Helvetica,sans-Serif" font-size="10.00">exception_handler</text>
</a>
</g>
</g>
<!-- Node94&#45;&gt;Node95 -->
<g id="edge1" class="edge"><title>Node94&#45;&gt;Node95</title>
<path fill="none" stroke="midnightblue" d="M80.2653,-10C88.5757,-10 97.2897,-10 105.675,-10"/>
<polygon fill="midnightblue" stroke="midnightblue" points="80.0098,-6.5001 70.0098,-10 80.0098,-13.5001 80.0098,-6.5001"/>
</g>
<!-- Node96 -->
<g id="node3" class="node"><title>Node96</title>
<g id="a_node3"><a xlink:href="exception__handler_8h.html#a2e398672b972b305c3c493fef388989f" target="_top" xlink:title="exception_handler_init">
<polygon fill="white" stroke="black" points="237,-0.5 237,-19.5 350,-19.5 350,-0.5 237,-0.5"/>
<text text-anchor="middle" x="293.5" y="-7.5" font-family="Helvetica,sans-Serif" font-size="10.00">exception_handler_init</text>
</a>
</g>
</g>
<!-- Node95&#45;&gt;Node96 -->
<g id="edge2" class="edge"><title>Node95&#45;&gt;Node96</title>
<path fill="none" stroke="midnightblue" d="M211.314,-10C219.719,-10 228.373,-10 236.755,-10"/>
<polygon fill="midnightblue" stroke="midnightblue" points="211.221,-6.5001 201.221,-10 211.22,-13.5001 211.221,-6.5001"/>
</g>
<!-- Node97 -->
<g id="node4" class="node"><title>Node97</title>
<g id="a_node4"><a xlink:href="mqtt__rpc_8h.html#ae3c71a438ecea4bb271bd1586af59452" target="_top" xlink:title="mqtt_rpc_restart">
<polygon fill="white" stroke="black" points="386,-0.5 386,-19.5 474,-19.5 474,-0.5 386,-0.5"/>
<text text-anchor="middle" x="430" y="-7.5" font-family="Helvetica,sans-Serif" font-size="10.00">mqtt_rpc_restart</text>
</a>
</g>
</g>
<!-- Node96&#45;&gt;Node97 -->
<g id="edge3" class="edge"><title>Node96&#45;&gt;Node97</title>
<path fill="none" stroke="midnightblue" d="M360.44,-10C369.057,-10 377.702,-10 385.81,-10"/>
<polygon fill="midnightblue" stroke="midnightblue" points="360.372,-6.5001 350.372,-10 360.372,-13.5001 360.372,-6.5001"/>
</g>
</g>
</svg>
