<?xml version="1.0" encoding="UTF-8" standalone="no"?>
<!DOCTYPE svg PUBLIC "-//W3C//DTD SVG 1.1//EN"
 "http://www.w3.org/Graphics/SVG/1.1/DTD/svg11.dtd">
<!-- Generated by graphviz version 2.38.0 (20140413.2041)
 -->
<!-- Title: ext_spi_flash_read Pages: 1 -->
<svg width="1059pt" height="484pt"
 viewBox="0.00 0.00 1059.00 484.00" xmlns="http://www.w3.org/2000/svg" xmlns:xlink="http://www.w3.org/1999/xlink">
<g id="graph0" class="graph" transform="scale(1 1) rotate(0) translate(4 480)">
<title>ext_spi_flash_read</title>
<polygon fill="white" stroke="none" points="-4,4 -4,-480 1055,-480 1055,4 -4,4"/>
<!-- Node37 -->
<g id="node1" class="node"><title>Node37</title>
<polygon fill="#bfbfbf" stroke="black" points="0,-152.5 0,-171.5 98,-171.5 98,-152.5 0,-152.5"/>
<text text-anchor="middle" x="49" y="-159.5" font-family="Helvetica,sans-Serif" font-size="10.00">ext_spi_flash_read</text>
</g>
<!-- Node38 -->
<g id="node2" class="node"><title>Node38</title>
<g id="a_node2"><a xlink:href="config_8h.html#a92adb6c5103eed30e16185a9cd233e51" target="_top" xlink:title="cfg_load">
<polygon fill="white" stroke="black" points="167,-152.5 167,-171.5 220,-171.5 220,-152.5 167,-152.5"/>
<text text-anchor="middle" x="193.5" y="-159.5" font-family="Helvetica,sans-Serif" font-size="10.00">cfg_load</text>
</a>
</g>
</g>
<!-- Node37&#45;&gt;Node38 -->
<g id="edge1" class="edge"><title>Node37&#45;&gt;Node38</title>
<path fill="none" stroke="midnightblue" d="M108.377,-162C128.677,-162 150.42,-162 166.715,-162"/>
<polygon fill="midnightblue" stroke="midnightblue" points="108.244,-158.5 98.244,-162 108.244,-165.5 108.244,-158.5"/>
</g>
<!-- Node39 -->
<g id="node3" class="node"><title>Node39</title>
<g id="a_node3"><a xlink:href="config_8h.html#a240b5d7105d7dbf1d7054ad65cb9df40" target="_top" xlink:title="cfg_save">
<polygon fill="white" stroke="black" points="289,-171.5 289,-190.5 345,-190.5 345,-171.5 289,-171.5"/>
<text text-anchor="middle" x="317" y="-178.5" font-family="Helvetica,sans-Serif" font-size="10.00">cfg_save</text>
</a>
</g>
</g>
<!-- Node37&#45;&gt;Node39 -->
<g id="edge33" class="edge"><title>Node37&#45;&gt;Node39</title>
<path fill="none" stroke="midnightblue" d="M93.9892,-173.884C106.792,-176.815 120.868,-179.533 134,-181 188.639,-187.102 253.083,-184.909 288.761,-182.878"/>
<polygon fill="midnightblue" stroke="midnightblue" points="94.5761,-170.426 84.0366,-171.508 92.9503,-177.234 94.5761,-170.426"/>
</g>
<!-- Node62 -->
<g id="node26" class="node"><title>Node62</title>
<g id="a_node26"><a xlink:href="ext__spi__flash_8h.html#a5ca58d3e387ebe3e9e6169caf3845d65" target="_top" xlink:title="ext_spi_flash_hexdump">
<polygon fill="white" stroke="black" points="134,-114.5 134,-133.5 253,-133.5 253,-114.5 134,-114.5"/>
<text text-anchor="middle" x="193.5" y="-121.5" font-family="Helvetica,sans-Serif" font-size="10.00">ext_spi_flash_hexdump</text>
</a>
</g>
</g>
<!-- Node37&#45;&gt;Node62 -->
<g id="edge34" class="edge"><title>Node37&#45;&gt;Node62</title>
<path fill="none" stroke="midnightblue" d="M95.6531,-149.826C115.358,-144.571 138.075,-138.513 156.553,-133.586"/>
<polygon fill="midnightblue" stroke="midnightblue" points="94.7193,-146.452 85.9588,-152.411 96.523,-153.216 94.7193,-146.452"/>
</g>
<!-- Node38&#45;&gt;Node39 -->
<g id="edge2" class="edge"><title>Node38&#45;&gt;Node39</title>
<path fill="none" stroke="midnightblue" d="M230.271,-161.379C249.674,-163.534 273.194,-167.416 290.687,-171.439"/>
<polygon fill="midnightblue" stroke="midnightblue" points="230.562,-157.891 220.267,-160.393 229.876,-164.857 230.562,-157.891"/>
</g>
<!-- Node61 -->
<g id="node25" class="node"><title>Node61</title>
<g id="a_node25"><a xlink:href="cgiwifi_8h.html#ace460e5ac8fd74afa8616bfc82561b26" target="_top" xlink:title="tplSetup">
<polygon fill="white" stroke="black" points="290.5,-133.5 290.5,-152.5 343.5,-152.5 343.5,-133.5 290.5,-133.5"/>
<text text-anchor="middle" x="317" y="-140.5" font-family="Helvetica,sans-Serif" font-size="10.00">tplSetup</text>
</a>
</g>
</g>
<!-- Node38&#45;&gt;Node61 -->
<g id="edge32" class="edge"><title>Node38&#45;&gt;Node61</title>
<path fill="none" stroke="midnightblue" d="M230.201,-156.417C249.464,-153.405 272.801,-149.755 290.27,-147.024"/>
<polygon fill="midnightblue" stroke="midnightblue" points="229.606,-152.968 220.267,-157.971 230.688,-159.883 229.606,-152.968"/>
</g>
<!-- Node39&#45;&gt;Node38 -->
<g id="edge3" class="edge"><title>Node39&#45;&gt;Node38</title>
<path fill="none" stroke="midnightblue" d="M278.555,-181.432C259.434,-179.238 236.683,-175.448 219.675,-171.53"/>
<polygon fill="midnightblue" stroke="midnightblue" points="278.44,-184.939 288.745,-182.478 279.154,-177.975 278.44,-184.939"/>
</g>
<!-- Node40 -->
<g id="node4" class="node"><title>Node40</title>
<g id="a_node4"><a xlink:href="config_8h.html#abc69a1c540768c7c86b5d56c6d4cabd7" target="_top" xlink:title="cfg_save_ssid_pwd">
<polygon fill="white" stroke="black" points="389.5,-266.5 389.5,-285.5 492.5,-285.5 492.5,-266.5 389.5,-266.5"/>
<text text-anchor="middle" x="441" y="-273.5" font-family="Helvetica,sans-Serif" font-size="10.00">cfg_save_ssid_pwd</text>
</a>
</g>
</g>
<!-- Node39&#45;&gt;Node40 -->
<g id="edge4" class="edge"><title>Node39&#45;&gt;Node40</title>
<path fill="none" stroke="midnightblue" d="M330.209,-198.91C341.737,-214.683 360.307,-237.362 381,-252 389.396,-257.939 399.478,-262.731 408.913,-266.424"/>
<polygon fill="midnightblue" stroke="midnightblue" points="332.911,-196.669 324.273,-190.534 327.2,-200.716 332.911,-196.669"/>
</g>
<!-- Node41 -->
<g id="node5" class="node"><title>Node41</title>
<g id="a_node5"><a xlink:href="cron_8c.html#a2782af03df9b913cfa565a0770e1afe1" target="_top" xlink:title="minute_timer_func">
<polygon fill="white" stroke="black" points="861,-342.5 861,-361.5 958,-361.5 958,-342.5 861,-342.5"/>
<text text-anchor="middle" x="909.5" y="-349.5" font-family="Helvetica,sans-Serif" font-size="10.00">minute_timer_func</text>
</a>
</g>
</g>
<!-- Node39&#45;&gt;Node41 -->
<g id="edge25" class="edge"><title>Node39&#45;&gt;Node41</title>
<path fill="none" stroke="midnightblue" d="M323.364,-200.416C331.483,-226.079 349.398,-270.855 381,-295 455.566,-351.973 745.585,-354.363 860.866,-352.966"/>
<polygon fill="midnightblue" stroke="midnightblue" points="326.681,-199.29 320.473,-190.704 319.972,-201.287 326.681,-199.29"/>
</g>
<!-- Node44 -->
<g id="node8" class="node"><title>Node44</title>
<g id="a_node8"><a xlink:href="config_8h.html#a1e0d59e84f6bbc2564bcdf595b6972da" target="_top" xlink:title="config_save_timer_func">
<polygon fill="white" stroke="black" points="381,-380.5 381,-399.5 501,-399.5 501,-380.5 381,-380.5"/>
<text text-anchor="middle" x="441" y="-387.5" font-family="Helvetica,sans-Serif" font-size="10.00">config_save_timer_func</text>
</a>
</g>
</g>
<!-- Node39&#45;&gt;Node44 -->
<g id="edge8" class="edge"><title>Node39&#45;&gt;Node44</title>
<path fill="none" stroke="midnightblue" d="M319.454,-200.949C323.192,-238.141 336.265,-318.586 381,-366 386.919,-372.274 394.709,-376.952 402.679,-380.426"/>
<polygon fill="midnightblue" stroke="midnightblue" points="322.931,-200.535 318.569,-190.88 315.958,-201.148 322.931,-200.535"/>
</g>
<!-- Node48 -->
<g id="node12" class="node"><title>Node48</title>
<g id="a_node12"><a xlink:href="mqtt__rpc_8h.html#a44921185fc90cf7507f2eaf4fa48861a" target="_top" xlink:title="mqtt_rpc_open_until">
<polygon fill="white" stroke="black" points="857.5,-234.5 857.5,-253.5 961.5,-253.5 961.5,-234.5 857.5,-234.5"/>
<text text-anchor="middle" x="909.5" y="-241.5" font-family="Helvetica,sans-Serif" font-size="10.00">mqtt_rpc_open_until</text>
</a>
</g>
</g>
<!-- Node39&#45;&gt;Node48 -->
<g id="edge30" class="edge"><title>Node39&#45;&gt;Node48</title>
<path fill="none" stroke="midnightblue" d="M354.763,-192.088C363.311,-194.34 372.421,-196.481 381,-198 553.891,-228.617 762.432,-239.154 857.186,-242.531"/>
<polygon fill="midnightblue" stroke="midnightblue" points="355.622,-188.695 345.052,-189.425 353.77,-195.445 355.622,-188.695"/>
</g>
<!-- Node49 -->
<g id="node13" class="node"><title>Node49</title>
<g id="a_node13"><a xlink:href="mqtt__rpc_8h.html#a37edc063b829348999e78221ed0f247e" target="_top" xlink:title="mqtt_rpc_open_until\l_delta">
<polygon fill="white" stroke="black" points="857.5,-185 857.5,-215 961.5,-215 961.5,-185 857.5,-185"/>
<text text-anchor="start" x="865.5" y="-203" font-family="Helvetica,sans-Serif" font-size="10.00">mqtt_rpc_open_until</text>
<text text-anchor="middle" x="909.5" y="-192" font-family="Helvetica,sans-Serif" font-size="10.00">_delta</text>
</a>
</g>
</g>
<!-- Node39&#45;&gt;Node49 -->
<g id="edge31" class="edge"><title>Node39&#45;&gt;Node49</title>
<path fill="none" stroke="midnightblue" d="M355.44,-182.205C457.542,-185.49 740.954,-194.609 857.472,-198.358"/>
<polygon fill="midnightblue" stroke="midnightblue" points="355.404,-178.702 345.297,-181.878 355.179,-185.698 355.404,-178.702"/>
</g>
<!-- Node56 -->
<g id="node20" class="node"><title>Node56</title>
<g id="a_node20"><a xlink:href="cgiwifi_8h.html#a7c655a56f56ecebad923c5c4daeb7f1a" target="_top" xlink:title="cgiSetup">
<polygon fill="white" stroke="black" points="413.5,-152.5 413.5,-171.5 468.5,-171.5 468.5,-152.5 413.5,-152.5"/>
<text text-anchor="middle" x="441" y="-159.5" font-family="Helvetica,sans-Serif" font-size="10.00">cgiSetup</text>
</a>
</g>
</g>
<!-- Node39&#45;&gt;Node56 -->
<g id="edge24" class="edge"><title>Node39&#45;&gt;Node56</title>
<path fill="none" stroke="midnightblue" d="M355.103,-175.222C373.922,-172.291 396.345,-168.799 413.42,-166.14"/>
<polygon fill="midnightblue" stroke="midnightblue" points="354.418,-171.786 345.076,-176.783 355.495,-178.703 354.418,-171.786"/>
</g>
<!-- Node57 -->
<g id="node21" class="node"><title>Node57</title>
<g id="a_node21"><a xlink:href="mqtt__rpc_8h.html#aa3b038b94189cb8a82fdc7e5115d90c8" target="_top" xlink:title="mqtt_rpc_set_ssid">
<polygon fill="white" stroke="black" points="392.5,-114.5 392.5,-133.5 489.5,-133.5 489.5,-114.5 392.5,-114.5"/>
<text text-anchor="middle" x="441" y="-121.5" font-family="Helvetica,sans-Serif" font-size="10.00">mqtt_rpc_set_ssid</text>
</a>
</g>
</g>
<!-- Node39&#45;&gt;Node57 -->
<g id="edge26" class="edge"><title>Node39&#45;&gt;Node57</title>
<path fill="none" stroke="midnightblue" d="M340.656,-165.586C352.35,-158.087 367.057,-149.347 381,-143 388.835,-139.434 397.535,-136.241 405.794,-133.536"/>
<polygon fill="midnightblue" stroke="midnightblue" points="338.439,-162.854 331.995,-171.263 342.277,-168.708 338.439,-162.854"/>
</g>
<!-- Node58 -->
<g id="node22" class="node"><title>Node58</title>
<g id="a_node22"><a xlink:href="mqtt__rpc_8h.html#a3384f5aa84b17fa3902e2aad318913d8" target="_top" xlink:title="mqtt_rpc_set_pwd">
<polygon fill="white" stroke="black" points="392.5,-76.5 392.5,-95.5 489.5,-95.5 489.5,-76.5 392.5,-76.5"/>
<text text-anchor="middle" x="441" y="-83.5" font-family="Helvetica,sans-Serif" font-size="10.00">mqtt_rpc_set_pwd</text>
</a>
</g>
</g>
<!-- Node39&#45;&gt;Node58 -->
<g id="edge27" class="edge"><title>Node39&#45;&gt;Node58</title>
<path fill="none" stroke="midnightblue" d="M342.119,-164.814C343.123,-163.897 344.089,-162.958 345,-162 365.652,-140.291 357.321,-123.359 381,-105 386.018,-101.11 391.856,-98.0034 397.871,-95.5264"/>
<polygon fill="midnightblue" stroke="midnightblue" points="339.604,-162.343 333.974,-171.319 343.972,-167.813 339.604,-162.343"/>
</g>
<!-- Node59 -->
<g id="node23" class="node"><title>Node59</title>
<g id="a_node23"><a xlink:href="mqtt__rpc_8h.html#a1b7add080e121a194a82ca7fc1ac5d6a" target="_top" xlink:title="mqtt_rpc_start_ap">
<polygon fill="white" stroke="black" points="393.5,-38.5 393.5,-57.5 488.5,-57.5 488.5,-38.5 393.5,-38.5"/>
<text text-anchor="middle" x="441" y="-45.5" font-family="Helvetica,sans-Serif" font-size="10.00">mqtt_rpc_start_ap</text>
</a>
</g>
</g>
<!-- Node39&#45;&gt;Node59 -->
<g id="edge28" class="edge"><title>Node39&#45;&gt;Node59</title>
<path fill="none" stroke="midnightblue" d="M342.8,-164.575C343.577,-163.742 344.315,-162.883 345,-162 372.68,-126.328 348.274,-98.1082 381,-67 385.056,-63.1447 389.898,-60.0717 395.04,-57.6222"/>
<polygon fill="midnightblue" stroke="midnightblue" points="340.275,-162.132 335.033,-171.34 344.872,-167.411 340.275,-162.132"/>
</g>
<!-- Node60 -->
<g id="node24" class="node"><title>Node60</title>
<g id="a_node24"><a xlink:href="mqtt__rpc_8h.html#a3430aad3243898c167f694b4ad6e5cfd" target="_top" xlink:title="mqtt_rpc_stop_ap">
<polygon fill="white" stroke="black" points="393.5,-0.5 393.5,-19.5 488.5,-19.5 488.5,-0.5 393.5,-0.5"/>
<text text-anchor="middle" x="441" y="-7.5" font-family="Helvetica,sans-Serif" font-size="10.00">mqtt_rpc_stop_ap</text>
</a>
</g>
</g>
<!-- Node39&#45;&gt;Node60 -->
<g id="edge29" class="edge"><title>Node39&#45;&gt;Node60</title>
<path fill="none" stroke="midnightblue" d="M342.97,-164.592C343.695,-163.756 344.375,-162.892 345,-162 380.13,-111.84 338.732,-73.3118 381,-29 384.714,-25.1067 389.228,-22.0093 394.087,-19.5457"/>
<polygon fill="midnightblue" stroke="midnightblue" points="340.612,-162.005 335.568,-171.321 345.321,-167.184 340.612,-162.005"/>
</g>
<!-- Node40&#45;&gt;Node41 -->
<g id="edge5" class="edge"><title>Node40&#45;&gt;Node41</title>
<path fill="none" stroke="midnightblue" d="M502.695,-279.175C545.907,-281.969 605.249,-286.887 657,-295 735.066,-307.239 825.036,-329.696 873.387,-342.464"/>
<polygon fill="midnightblue" stroke="midnightblue" points="502.825,-275.677 492.626,-278.544 502.387,-282.663 502.825,-275.677"/>
</g>
<!-- Node43 -->
<g id="node7" class="node"><title>Node43</title>
<g id="a_node7"><a xlink:href="mqtt__rpc_8h.html#a651f41878c47fd58b8ae08a49692d5d0" target="_top" xlink:title="mqtt_rpc_set_ssid_pwd">
<polygon fill="white" stroke="black" points="537,-304.5 537,-323.5 657,-323.5 657,-304.5 537,-304.5"/>
<text text-anchor="middle" x="597" y="-311.5" font-family="Helvetica,sans-Serif" font-size="10.00">mqtt_rpc_set_ssid_pwd</text>
</a>
</g>
</g>
<!-- Node40&#45;&gt;Node43 -->
<g id="edge7" class="edge"><title>Node40&#45;&gt;Node43</title>
<path fill="none" stroke="midnightblue" d="M490.794,-288.04C512.308,-293.349 537.232,-299.499 557.419,-304.48"/>
<polygon fill="midnightblue" stroke="midnightblue" points="491.408,-284.587 480.861,-285.589 489.731,-291.383 491.408,-284.587"/>
</g>
<!-- Node42 -->
<g id="node6" class="node"><title>Node42</title>
<g id="a_node6"><a xlink:href="cron_8h.html#ae130c5973bad35b56776750c7a34db12" target="_top" xlink:title="cron_init">
<polygon fill="white" stroke="black" points="998,-342.5 998,-361.5 1051,-361.5 1051,-342.5 998,-342.5"/>
<text text-anchor="middle" x="1024.5" y="-349.5" font-family="Helvetica,sans-Serif" font-size="10.00">cron_init</text>
</a>
</g>
</g>
<!-- Node41&#45;&gt;Node42 -->
<g id="edge6" class="edge"><title>Node41&#45;&gt;Node42</title>
<path fill="none" stroke="midnightblue" d="M968.4,-352C978.736,-352 989.009,-352 997.835,-352"/>
<polygon fill="midnightblue" stroke="midnightblue" points="968.095,-348.5 958.095,-352 968.095,-355.5 968.095,-348.5"/>
</g>
<!-- Node44&#45;&gt;Node44 -->
<g id="edge23" class="edge"><title>Node44&#45;&gt;Node44</title>
<path fill="none" stroke="midnightblue" d="M417.935,-409.029C419.193,-414.128 426.881,-418 441,-418 463.039,-418 469.41,-408.565 460.112,-399.757"/>
<polygon fill="midnightblue" stroke="midnightblue" points="421.185,-410.329 421.888,-399.757 414.746,-407.583 421.185,-410.329"/>
</g>
<!-- Node45 -->
<g id="node9" class="node"><title>Node45</title>
<g id="a_node9"><a xlink:href="config_8h.html#ab4af9f95b39f096bb0fa8d73eb5a342e" target="_top" xlink:title="cfg_save_defered">
<polygon fill="white" stroke="black" points="550,-380.5 550,-399.5 644,-399.5 644,-380.5 550,-380.5"/>
<text text-anchor="middle" x="597" y="-387.5" font-family="Helvetica,sans-Serif" font-size="10.00">cfg_save_defered</text>
</a>
</g>
</g>
<!-- Node44&#45;&gt;Node45 -->
<g id="edge9" class="edge"><title>Node44&#45;&gt;Node45</title>
<path fill="none" stroke="midnightblue" d="M511.418,-390C524.396,-390 537.665,-390 549.73,-390"/>
<polygon fill="midnightblue" stroke="midnightblue" points="511.1,-386.5 501.1,-390 511.1,-393.5 511.1,-386.5"/>
</g>
<!-- Node46 -->
<g id="node10" class="node"><title>Node46</title>
<g id="a_node10"><a xlink:href="ac__out_8h.html#a1573f96ac038a6a1b29a6f21403a2341" target="_top" xlink:title="ac_thermo_open">
<polygon fill="white" stroke="black" points="712.5,-266.5 712.5,-285.5 801.5,-285.5 801.5,-266.5 712.5,-266.5"/>
<text text-anchor="middle" x="757" y="-273.5" font-family="Helvetica,sans-Serif" font-size="10.00">ac_thermo_open</text>
</a>
</g>
</g>
<!-- Node45&#45;&gt;Node46 -->
<g id="edge10" class="edge"><title>Node45&#45;&gt;Node46</title>
<path fill="none" stroke="midnightblue" d="M619.726,-374.325C652.88,-350.403 715.131,-305.488 742.503,-285.738"/>
<polygon fill="midnightblue" stroke="midnightblue" points="617.261,-371.787 611.199,-380.477 621.357,-377.464 617.261,-371.787"/>
</g>
<!-- Node50 -->
<g id="node14" class="node"><title>Node50</title>
<g id="a_node14"><a xlink:href="ac__out_8h.html#a3bc674b019d5e2e4d15e7abe7c69029f" target="_top" xlink:title="ac_thermo_close">
<polygon fill="white" stroke="black" points="711.5,-380.5 711.5,-399.5 802.5,-399.5 802.5,-380.5 711.5,-380.5"/>
<text text-anchor="middle" x="757" y="-387.5" font-family="Helvetica,sans-Serif" font-size="10.00">ac_thermo_close</text>
</a>
</g>
</g>
<!-- Node45&#45;&gt;Node50 -->
<g id="edge15" class="edge"><title>Node45&#45;&gt;Node50</title>
<path fill="none" stroke="midnightblue" d="M654.325,-390C673.085,-390 693.709,-390 711.45,-390"/>
<polygon fill="midnightblue" stroke="midnightblue" points="654.125,-386.5 644.125,-390 654.125,-393.5 654.125,-386.5"/>
</g>
<!-- Node52 -->
<g id="node16" class="node"><title>Node52</title>
<g id="a_node16"><a xlink:href="cron_8h.html#abede8d12ed6e5d5f3412eda37b325d03" target="_top" xlink:title="add_cron_job_from_query">
<polygon fill="white" stroke="black" points="693,-456.5 693,-475.5 821,-475.5 821,-456.5 693,-456.5"/>
<text text-anchor="middle" x="757" y="-463.5" font-family="Helvetica,sans-Serif" font-size="10.00">add_cron_job_from_query</text>
</a>
</g>
</g>
<!-- Node45&#45;&gt;Node52 -->
<g id="edge18" class="edge"><title>Node45&#45;&gt;Node52</title>
<path fill="none" stroke="midnightblue" d="M619.981,-405.337C638.712,-417.871 666.7,-435.36 693,-447 701.148,-450.606 710.18,-453.779 718.8,-456.447"/>
<polygon fill="midnightblue" stroke="midnightblue" points="621.816,-402.352 611.577,-399.629 617.883,-408.143 621.816,-402.352"/>
</g>
<!-- Node54 -->
<g id="node18" class="node"><title>Node54</title>
<g id="a_node18"><a xlink:href="cron_8h.html#ad014b7bf4eab144ea9fc5669d896714b" target="_top" xlink:title="clear_cron_jobs">
<polygon fill="white" stroke="black" points="714.5,-418.5 714.5,-437.5 799.5,-437.5 799.5,-418.5 714.5,-418.5"/>
<text text-anchor="middle" x="757" y="-425.5" font-family="Helvetica,sans-Serif" font-size="10.00">clear_cron_jobs</text>
</a>
</g>
</g>
<!-- Node45&#45;&gt;Node54 -->
<g id="edge20" class="edge"><title>Node45&#45;&gt;Node54</title>
<path fill="none" stroke="midnightblue" d="M647.762,-401.968C669.903,-407.293 695.612,-413.476 716.417,-418.48"/>
<polygon fill="midnightblue" stroke="midnightblue" points="648.411,-398.524 637.87,-399.589 646.774,-405.33 648.411,-398.524"/>
</g>
<!-- Node46&#45;&gt;Node41 -->
<g id="edge11" class="edge"><title>Node46&#45;&gt;Node41</title>
<path fill="none" stroke="midnightblue" d="M795.423,-289.04C803.949,-292.344 812.884,-296.078 821,-300 847.731,-312.915 877.06,-331.274 894.066,-342.369"/>
<polygon fill="midnightblue" stroke="midnightblue" points="796.627,-285.753 786.035,-285.504 794.16,-292.304 796.627,-285.753"/>
</g>
<!-- Node47 -->
<g id="node11" class="node"><title>Node47</title>
<g id="a_node11"><a xlink:href="mqtt__rpc_8h.html#ad2e0752f6412fe150ba20d806fe90e15" target="_top" xlink:title="mqtt_rpc_open">
<polygon fill="white" stroke="black" points="869,-272.5 869,-291.5 950,-291.5 950,-272.5 869,-272.5"/>
<text text-anchor="middle" x="909.5" y="-279.5" font-family="Helvetica,sans-Serif" font-size="10.00">mqtt_rpc_open</text>
</a>
</g>
</g>
<!-- Node46&#45;&gt;Node47 -->
<g id="edge12" class="edge"><title>Node46&#45;&gt;Node47</title>
<path fill="none" stroke="midnightblue" d="M811.77,-278.144C830.625,-278.895 851.444,-279.725 868.923,-280.422"/>
<polygon fill="midnightblue" stroke="midnightblue" points="811.662,-274.637 801.531,-277.735 811.383,-281.631 811.662,-274.637"/>
</g>
<!-- Node46&#45;&gt;Node48 -->
<g id="edge13" class="edge"><title>Node46&#45;&gt;Node48</title>
<path fill="none" stroke="midnightblue" d="M811.396,-264.647C828.528,-261.004 847.315,-257.01 863.76,-253.513"/>
<polygon fill="midnightblue" stroke="midnightblue" points="810.584,-261.241 801.531,-266.744 812.04,-268.088 810.584,-261.241"/>
</g>
<!-- Node46&#45;&gt;Node49 -->
<g id="edge14" class="edge"><title>Node46&#45;&gt;Node49</title>
<path fill="none" stroke="midnightblue" d="M785.251,-261.741C805.087,-251.416 832.63,-237.19 857,-225 863.489,-221.754 870.465,-218.327 877.122,-215.085"/>
<polygon fill="midnightblue" stroke="midnightblue" points="783.429,-258.743 776.18,-266.47 786.666,-264.95 783.429,-258.743"/>
</g>
<!-- Node50&#45;&gt;Node41 -->
<g id="edge16" class="edge"><title>Node50&#45;&gt;Node41</title>
<path fill="none" stroke="midnightblue" d="M805.685,-377.96C826.71,-372.651 851.067,-366.501 870.796,-361.52"/>
<polygon fill="midnightblue" stroke="midnightblue" points="804.816,-374.569 795.978,-380.411 806.53,-381.356 804.816,-374.569"/>
</g>
<!-- Node51 -->
<g id="node15" class="node"><title>Node51</title>
<g id="a_node15"><a xlink:href="mqtt__rpc_8h.html#a05494e7f22df36d57595a00a9386c871" target="_top" xlink:title="mqtt_rpc_close">
<polygon fill="white" stroke="black" points="868,-380.5 868,-399.5 951,-399.5 951,-380.5 868,-380.5"/>
<text text-anchor="middle" x="909.5" y="-387.5" font-family="Helvetica,sans-Serif" font-size="10.00">mqtt_rpc_close</text>
</a>
</g>
</g>
<!-- Node50&#45;&gt;Node51 -->
<g id="edge17" class="edge"><title>Node50&#45;&gt;Node51</title>
<path fill="none" stroke="midnightblue" d="M812.906,-390C831.046,-390 850.89,-390 867.774,-390"/>
<polygon fill="midnightblue" stroke="midnightblue" points="812.748,-386.5 802.747,-390 812.747,-393.5 812.748,-386.5"/>
</g>
<!-- Node53 -->
<g id="node17" class="node"><title>Node53</title>
<g id="a_node17"><a xlink:href="mqtt__rpc_8h.html#a5ede5df0880a2c3823a5c3757423678b" target="_top" xlink:title="mqtt_rpc_set_cron">
<polygon fill="white" stroke="black" points="860.5,-456.5 860.5,-475.5 958.5,-475.5 958.5,-456.5 860.5,-456.5"/>
<text text-anchor="middle" x="909.5" y="-463.5" font-family="Helvetica,sans-Serif" font-size="10.00">mqtt_rpc_set_cron</text>
</a>
</g>
</g>
<!-- Node52&#45;&gt;Node53 -->
<g id="edge19" class="edge"><title>Node52&#45;&gt;Node53</title>
<path fill="none" stroke="midnightblue" d="M831.524,-466C841.289,-466 851.093,-466 860.278,-466"/>
<polygon fill="midnightblue" stroke="midnightblue" points="831.389,-462.5 821.389,-466 831.389,-469.5 831.389,-462.5"/>
</g>
<!-- Node54&#45;&gt;Node41 -->
<g id="edge21" class="edge"><title>Node54&#45;&gt;Node41</title>
<path fill="none" stroke="midnightblue" d="M809.311,-415.045C813.385,-413.267 817.336,-411.26 821,-409 840.801,-396.787 837.578,-383.806 857,-371 862.649,-367.275 869.126,-364.155 875.537,-361.591"/>
<polygon fill="midnightblue" stroke="midnightblue" points="807.715,-411.91 799.66,-418.793 810.249,-418.435 807.715,-411.91"/>
</g>
<!-- Node55 -->
<g id="node19" class="node"><title>Node55</title>
<g id="a_node19"><a xlink:href="mqtt__rpc_8h.html#a023697ad978d1154228e256583a147c0" target="_top" xlink:title="mqtt_rpc_clear_cron">
<polygon fill="white" stroke="black" points="857,-418.5 857,-437.5 962,-437.5 962,-418.5 857,-418.5"/>
<text text-anchor="middle" x="909.5" y="-425.5" font-family="Helvetica,sans-Serif" font-size="10.00">mqtt_rpc_clear_cron</text>
</a>
</g>
</g>
<!-- Node54&#45;&gt;Node55 -->
<g id="edge22" class="edge"><title>Node54&#45;&gt;Node55</title>
<path fill="none" stroke="midnightblue" d="M809.805,-428C825.036,-428 841.69,-428 856.907,-428"/>
<polygon fill="midnightblue" stroke="midnightblue" points="809.523,-424.5 799.523,-428 809.523,-431.5 809.523,-424.5"/>
</g>
</g>
</svg>
