<?xml version="1.0" encoding="UTF-8" standalone="no"?>
<!DOCTYPE svg PUBLIC "-//W3C//DTD SVG 1.1//EN"
 "http://www.w3.org/Graphics/SVG/1.1/DTD/svg11.dtd">
<!-- Generated by graphviz version 2.38.0 (20140413.2041)
 -->
<!-- Title: ext_spi_flash_write Pages: 1 -->
<svg width="907pt" height="484pt"
 viewBox="0.00 0.00 907.00 484.00" xmlns="http://www.w3.org/2000/svg" xmlns:xlink="http://www.w3.org/1999/xlink">
<g id="graph0" class="graph" transform="scale(1 1) rotate(0) translate(4 480)">
<title>ext_spi_flash_write</title>
<polygon fill="white" stroke="none" points="-4,4 -4,-480 903,-480 903,4 -4,4"/>
<!-- Node65 -->
<g id="node1" class="node"><title>Node65</title>
<polygon fill="#bfbfbf" stroke="black" points="0,-209.5 0,-228.5 101,-228.5 101,-209.5 0,-209.5"/>
<text text-anchor="middle" x="50.5" y="-216.5" font-family="Helvetica,sans-Serif" font-size="10.00">ext_spi_flash_write</text>
</g>
<!-- Node66 -->
<g id="node2" class="node"><title>Node66</title>
<g id="a_node2"><a xlink:href="config_8h.html#a240b5d7105d7dbf1d7054ad65cb9df40" target="_top" xlink:title="cfg_save">
<polygon fill="white" stroke="black" points="137,-209.5 137,-228.5 193,-228.5 193,-209.5 137,-209.5"/>
<text text-anchor="middle" x="165" y="-216.5" font-family="Helvetica,sans-Serif" font-size="10.00">cfg_save</text>
</a>
</g>
</g>
<!-- Node65&#45;&gt;Node66 -->
<g id="edge1" class="edge"><title>Node65&#45;&gt;Node66</title>
<path fill="none" stroke="midnightblue" d="M111.261,-219C120.196,-219 129.012,-219 136.803,-219"/>
<polygon fill="midnightblue" stroke="midnightblue" points="111.172,-215.5 101.172,-219 111.172,-222.5 111.172,-215.5"/>
</g>
<!-- Node67 -->
<g id="node3" class="node"><title>Node67</title>
<g id="a_node3"><a xlink:href="config_8h.html#a92adb6c5103eed30e16185a9cd233e51" target="_top" xlink:title="cfg_load">
<polygon fill="white" stroke="black" points="262.5,-436.5 262.5,-455.5 315.5,-455.5 315.5,-436.5 262.5,-436.5"/>
<text text-anchor="middle" x="289" y="-443.5" font-family="Helvetica,sans-Serif" font-size="10.00">cfg_load</text>
</a>
</g>
</g>
<!-- Node66&#45;&gt;Node67 -->
<g id="edge2" class="edge"><title>Node66&#45;&gt;Node67</title>
<path fill="none" stroke="midnightblue" d="M166.422,-238.576C168.52,-278.186 179.068,-367.189 229,-418 239.107,-428.285 254.799,-433.009 267.459,-436.466"/>
<polygon fill="midnightblue" stroke="midnightblue" points="169.92,-238.432 166.024,-228.579 162.925,-238.711 169.92,-238.432"/>
</g>
<!-- Node69 -->
<g id="node5" class="node"><title>Node69</title>
<g id="a_node5"><a xlink:href="config_8h.html#abc69a1c540768c7c86b5d56c6d4cabd7" target="_top" xlink:title="cfg_save_ssid_pwd">
<polygon fill="white" stroke="black" points="237.5,-342.5 237.5,-361.5 340.5,-361.5 340.5,-342.5 237.5,-342.5"/>
<text text-anchor="middle" x="289" y="-349.5" font-family="Helvetica,sans-Serif" font-size="10.00">cfg_save_ssid_pwd</text>
</a>
</g>
</g>
<!-- Node66&#45;&gt;Node69 -->
<g id="edge5" class="edge"><title>Node66&#45;&gt;Node69</title>
<path fill="none" stroke="midnightblue" d="M172.526,-237.968C181.664,-261.953 200.429,-303.116 229,-328 236.088,-334.173 244.974,-338.893 253.682,-342.444"/>
<polygon fill="midnightblue" stroke="midnightblue" points="175.81,-236.756 169.101,-228.556 169.232,-239.15 175.81,-236.756"/>
</g>
<!-- Node70 -->
<g id="node6" class="node"><title>Node70</title>
<g id="a_node6"><a xlink:href="cron_8c.html#a2782af03df9b913cfa565a0770e1afe1" target="_top" xlink:title="minute_timer_func">
<polygon fill="white" stroke="black" points="709,-342.5 709,-361.5 806,-361.5 806,-342.5 709,-342.5"/>
<text text-anchor="middle" x="757.5" y="-349.5" font-family="Helvetica,sans-Serif" font-size="10.00">minute_timer_func</text>
</a>
</g>
</g>
<!-- Node66&#45;&gt;Node70 -->
<g id="edge26" class="edge"><title>Node66&#45;&gt;Node70</title>
<path fill="none" stroke="midnightblue" d="M202.035,-231.786C210.801,-234.681 220.189,-237.604 229,-240 403.811,-287.531 615.73,-327.197 708.786,-343.732"/>
<polygon fill="midnightblue" stroke="midnightblue" points="203.061,-228.439 192.467,-228.559 200.824,-235.072 203.061,-228.439"/>
</g>
<!-- Node73 -->
<g id="node9" class="node"><title>Node73</title>
<g id="a_node9"><a xlink:href="config_8h.html#a1e0d59e84f6bbc2564bcdf595b6972da" target="_top" xlink:title="config_save_timer_func">
<polygon fill="white" stroke="black" points="229,-380.5 229,-399.5 349,-399.5 349,-380.5 229,-380.5"/>
<text text-anchor="middle" x="289" y="-387.5" font-family="Helvetica,sans-Serif" font-size="10.00">config_save_timer_func</text>
</a>
</g>
</g>
<!-- Node66&#45;&gt;Node73 -->
<g id="edge9" class="edge"><title>Node66&#45;&gt;Node73</title>
<path fill="none" stroke="midnightblue" d="M168.787,-238.769C174.367,-271.024 189.92,-334.977 229,-371 233.194,-374.866 238.18,-377.945 243.45,-380.398"/>
<polygon fill="midnightblue" stroke="midnightblue" points="172.226,-238.11 167.206,-228.78 165.312,-239.204 172.226,-238.11"/>
</g>
<!-- Node77 -->
<g id="node13" class="node"><title>Node77</title>
<g id="a_node13"><a xlink:href="mqtt__rpc_8h.html#a44921185fc90cf7507f2eaf4fa48861a" target="_top" xlink:title="mqtt_rpc_open_until">
<polygon fill="white" stroke="black" points="705.5,-234.5 705.5,-253.5 809.5,-253.5 809.5,-234.5 705.5,-234.5"/>
<text text-anchor="middle" x="757.5" y="-241.5" font-family="Helvetica,sans-Serif" font-size="10.00">mqtt_rpc_open_until</text>
</a>
</g>
</g>
<!-- Node66&#45;&gt;Node77 -->
<g id="edge31" class="edge"><title>Node66&#45;&gt;Node77</title>
<path fill="none" stroke="midnightblue" d="M203.27,-222.214C211.725,-222.872 220.668,-223.512 229,-224 403.515,-234.229 610.829,-240.318 705.174,-242.758"/>
<polygon fill="midnightblue" stroke="midnightblue" points="203.52,-218.723 193.272,-221.412 202.96,-225.701 203.52,-218.723"/>
</g>
<!-- Node78 -->
<g id="node14" class="node"><title>Node78</title>
<g id="a_node14"><a xlink:href="mqtt__rpc_8h.html#a37edc063b829348999e78221ed0f247e" target="_top" xlink:title="mqtt_rpc_open_until\l_delta">
<polygon fill="white" stroke="black" points="705.5,-185 705.5,-215 809.5,-215 809.5,-185 705.5,-185"/>
<text text-anchor="start" x="713.5" y="-203" font-family="Helvetica,sans-Serif" font-size="10.00">mqtt_rpc_open_until</text>
<text text-anchor="middle" x="757.5" y="-192" font-family="Helvetica,sans-Serif" font-size="10.00">_delta</text>
</a>
</g>
</g>
<!-- Node66&#45;&gt;Node78 -->
<g id="edge32" class="edge"><title>Node66&#45;&gt;Node78</title>
<path fill="none" stroke="midnightblue" d="M203.44,-217.795C305.542,-214.51 588.954,-205.391 705.472,-201.642"/>
<polygon fill="midnightblue" stroke="midnightblue" points="203.179,-214.302 193.297,-218.122 203.404,-221.298 203.179,-214.302"/>
</g>
<!-- Node85 -->
<g id="node21" class="node"><title>Node85</title>
<g id="a_node21"><a xlink:href="cgiwifi_8h.html#a7c655a56f56ecebad923c5c4daeb7f1a" target="_top" xlink:title="cgiSetup">
<polygon fill="white" stroke="black" points="261.5,-152.5 261.5,-171.5 316.5,-171.5 316.5,-152.5 261.5,-152.5"/>
<text text-anchor="middle" x="289" y="-159.5" font-family="Helvetica,sans-Serif" font-size="10.00">cgiSetup</text>
</a>
</g>
</g>
<!-- Node66&#45;&gt;Node85 -->
<g id="edge25" class="edge"><title>Node66&#45;&gt;Node85</title>
<path fill="none" stroke="midnightblue" d="M192.031,-204.646C203.277,-198.633 216.662,-191.725 229,-186 240.034,-180.88 252.479,-175.729 263.085,-171.519"/>
<polygon fill="midnightblue" stroke="midnightblue" points="190.291,-201.608 183.157,-209.441 193.619,-207.766 190.291,-201.608"/>
</g>
<!-- Node86 -->
<g id="node22" class="node"><title>Node86</title>
<g id="a_node22"><a xlink:href="mqtt__rpc_8h.html#aa3b038b94189cb8a82fdc7e5115d90c8" target="_top" xlink:title="mqtt_rpc_set_ssid">
<polygon fill="white" stroke="black" points="240.5,-114.5 240.5,-133.5 337.5,-133.5 337.5,-114.5 240.5,-114.5"/>
<text text-anchor="middle" x="289" y="-121.5" font-family="Helvetica,sans-Serif" font-size="10.00">mqtt_rpc_set_ssid</text>
</a>
</g>
</g>
<!-- Node66&#45;&gt;Node86 -->
<g id="edge27" class="edge"><title>Node66&#45;&gt;Node86</title>
<path fill="none" stroke="midnightblue" d="M176.816,-200.717C187.886,-183.502 206.607,-158.159 229,-143 234.703,-139.139 241.242,-136.021 247.843,-133.516"/>
<polygon fill="midnightblue" stroke="midnightblue" points="173.772,-198.985 171.479,-209.328 179.722,-202.672 173.772,-198.985"/>
</g>
<!-- Node87 -->
<g id="node23" class="node"><title>Node87</title>
<g id="a_node23"><a xlink:href="mqtt__rpc_8h.html#a3384f5aa84b17fa3902e2aad318913d8" target="_top" xlink:title="mqtt_rpc_set_pwd">
<polygon fill="white" stroke="black" points="240.5,-76.5 240.5,-95.5 337.5,-95.5 337.5,-76.5 240.5,-76.5"/>
<text text-anchor="middle" x="289" y="-83.5" font-family="Helvetica,sans-Serif" font-size="10.00">mqtt_rpc_set_pwd</text>
</a>
</g>
</g>
<!-- Node66&#45;&gt;Node87 -->
<g id="edge28" class="edge"><title>Node66&#45;&gt;Node87</title>
<path fill="none" stroke="midnightblue" d="M171.628,-199.916C180.045,-174.629 198.295,-130.277 229,-105 233.736,-101.102 239.287,-97.9972 245.057,-95.5266"/>
<polygon fill="midnightblue" stroke="midnightblue" points="168.283,-198.886 168.615,-209.475 174.959,-200.99 168.283,-198.886"/>
</g>
<!-- Node88 -->
<g id="node24" class="node"><title>Node88</title>
<g id="a_node24"><a xlink:href="mqtt__rpc_8h.html#a1b7add080e121a194a82ca7fc1ac5d6a" target="_top" xlink:title="mqtt_rpc_start_ap">
<polygon fill="white" stroke="black" points="241.5,-38.5 241.5,-57.5 336.5,-57.5 336.5,-38.5 241.5,-38.5"/>
<text text-anchor="middle" x="289" y="-45.5" font-family="Helvetica,sans-Serif" font-size="10.00">mqtt_rpc_start_ap</text>
</a>
</g>
</g>
<!-- Node66&#45;&gt;Node88 -->
<g id="edge29" class="edge"><title>Node66&#45;&gt;Node88</title>
<path fill="none" stroke="midnightblue" d="M168.787,-199.231C174.367,-166.976 189.92,-103.023 229,-67 233.194,-63.1345 238.18,-60.0552 243.45,-57.6022"/>
<polygon fill="midnightblue" stroke="midnightblue" points="165.312,-198.796 167.206,-209.22 172.226,-199.89 165.312,-198.796"/>
</g>
<!-- Node89 -->
<g id="node25" class="node"><title>Node89</title>
<g id="a_node25"><a xlink:href="mqtt__rpc_8h.html#a3430aad3243898c167f694b4ad6e5cfd" target="_top" xlink:title="mqtt_rpc_stop_ap">
<polygon fill="white" stroke="black" points="241.5,-0.5 241.5,-19.5 336.5,-19.5 336.5,-0.5 241.5,-0.5"/>
<text text-anchor="middle" x="289" y="-7.5" font-family="Helvetica,sans-Serif" font-size="10.00">mqtt_rpc_stop_ap</text>
</a>
</g>
</g>
<!-- Node66&#45;&gt;Node89 -->
<g id="edge30" class="edge"><title>Node66&#45;&gt;Node89</title>
<path fill="none" stroke="midnightblue" d="M166.913,-198.741C169.745,-160.26 181.361,-76.2295 229,-29 232.897,-25.1361 237.584,-22.0576 242.589,-19.605"/>
<polygon fill="midnightblue" stroke="midnightblue" points="163.395,-198.937 166.286,-209.13 170.382,-199.359 163.395,-198.937"/>
</g>
<!-- Node67&#45;&gt;Node66 -->
<g id="edge3" class="edge"><title>Node67&#45;&gt;Node66</title>
<path fill="none" stroke="midnightblue" d="M252.276,-449.152C243.739,-446.646 235.289,-442.399 229,-436 170.025,-375.987 165.991,-262.697 165.931,-228.537"/>
<polygon fill="midnightblue" stroke="midnightblue" points="251.698,-452.608 262.214,-451.319 253.189,-445.768 251.698,-452.608"/>
</g>
<!-- Node68 -->
<g id="node4" class="node"><title>Node68</title>
<g id="a_node4"><a xlink:href="cgiwifi_8h.html#ace460e5ac8fd74afa8616bfc82561b26" target="_top" xlink:title="tplSetup">
<polygon fill="white" stroke="black" points="418.5,-456.5 418.5,-475.5 471.5,-475.5 471.5,-456.5 418.5,-456.5"/>
<text text-anchor="middle" x="445" y="-463.5" font-family="Helvetica,sans-Serif" font-size="10.00">tplSetup</text>
</a>
</g>
</g>
<!-- Node67&#45;&gt;Node68 -->
<g id="edge4" class="edge"><title>Node67&#45;&gt;Node68</title>
<path fill="none" stroke="midnightblue" d="M325.703,-450.637C354.072,-454.321 393.064,-459.385 418.396,-462.675"/>
<polygon fill="midnightblue" stroke="midnightblue" points="326.144,-447.165 315.776,-449.348 325.242,-454.106 326.144,-447.165"/>
</g>
<!-- Node69&#45;&gt;Node70 -->
<g id="edge6" class="edge"><title>Node69&#45;&gt;Node70</title>
<path fill="none" stroke="midnightblue" d="M351.029,-352C445.127,-352 623.663,-352 708.897,-352"/>
<polygon fill="midnightblue" stroke="midnightblue" points="350.812,-348.5 340.812,-352 350.812,-355.5 350.812,-348.5"/>
</g>
<!-- Node72 -->
<g id="node8" class="node"><title>Node72</title>
<g id="a_node8"><a xlink:href="mqtt__rpc_8h.html#a651f41878c47fd58b8ae08a49692d5d0" target="_top" xlink:title="mqtt_rpc_set_ssid_pwd">
<polygon fill="white" stroke="black" points="385,-380.5 385,-399.5 505,-399.5 505,-380.5 385,-380.5"/>
<text text-anchor="middle" x="445" y="-387.5" font-family="Helvetica,sans-Serif" font-size="10.00">mqtt_rpc_set_ssid_pwd</text>
</a>
</g>
</g>
<!-- Node69&#45;&gt;Node72 -->
<g id="edge8" class="edge"><title>Node69&#45;&gt;Node72</title>
<path fill="none" stroke="midnightblue" d="M338.794,-364.04C360.308,-369.349 385.232,-375.499 405.419,-380.48"/>
<polygon fill="midnightblue" stroke="midnightblue" points="339.408,-360.587 328.861,-361.589 337.731,-367.383 339.408,-360.587"/>
</g>
<!-- Node71 -->
<g id="node7" class="node"><title>Node71</title>
<g id="a_node7"><a xlink:href="cron_8h.html#ae130c5973bad35b56776750c7a34db12" target="_top" xlink:title="cron_init">
<polygon fill="white" stroke="black" points="846,-342.5 846,-361.5 899,-361.5 899,-342.5 846,-342.5"/>
<text text-anchor="middle" x="872.5" y="-349.5" font-family="Helvetica,sans-Serif" font-size="10.00">cron_init</text>
</a>
</g>
</g>
<!-- Node70&#45;&gt;Node71 -->
<g id="edge7" class="edge"><title>Node70&#45;&gt;Node71</title>
<path fill="none" stroke="midnightblue" d="M816.4,-352C826.736,-352 837.009,-352 845.835,-352"/>
<polygon fill="midnightblue" stroke="midnightblue" points="816.095,-348.5 806.095,-352 816.095,-355.5 816.095,-348.5"/>
</g>
<!-- Node73&#45;&gt;Node73 -->
<g id="edge24" class="edge"><title>Node73&#45;&gt;Node73</title>
<path fill="none" stroke="midnightblue" d="M265.935,-409.029C267.193,-414.128 274.881,-418 289,-418 311.039,-418 317.41,-408.565 308.112,-399.757"/>
<polygon fill="midnightblue" stroke="midnightblue" points="269.185,-410.329 269.888,-399.757 262.746,-407.583 269.185,-410.329"/>
</g>
<!-- Node74 -->
<g id="node10" class="node"><title>Node74</title>
<g id="a_node10"><a xlink:href="config_8h.html#ab4af9f95b39f096bb0fa8d73eb5a342e" target="_top" xlink:title="cfg_save_defered">
<polygon fill="white" stroke="black" points="398,-418.5 398,-437.5 492,-437.5 492,-418.5 398,-418.5"/>
<text text-anchor="middle" x="445" y="-425.5" font-family="Helvetica,sans-Serif" font-size="10.00">cfg_save_defered</text>
</a>
</g>
</g>
<!-- Node73&#45;&gt;Node74 -->
<g id="edge10" class="edge"><title>Node73&#45;&gt;Node74</title>
<path fill="none" stroke="midnightblue" d="M338.794,-402.04C360.308,-407.349 385.232,-413.499 405.419,-418.48"/>
<polygon fill="midnightblue" stroke="midnightblue" points="339.408,-398.587 328.861,-399.589 337.731,-405.383 339.408,-398.587"/>
</g>
<!-- Node75 -->
<g id="node11" class="node"><title>Node75</title>
<g id="a_node11"><a xlink:href="ac__out_8h.html#a1573f96ac038a6a1b29a6f21403a2341" target="_top" xlink:title="ac_thermo_open">
<polygon fill="white" stroke="black" points="560.5,-266.5 560.5,-285.5 649.5,-285.5 649.5,-266.5 560.5,-266.5"/>
<text text-anchor="middle" x="605" y="-273.5" font-family="Helvetica,sans-Serif" font-size="10.00">ac_thermo_open</text>
</a>
</g>
</g>
<!-- Node74&#45;&gt;Node75 -->
<g id="edge11" class="edge"><title>Node74&#45;&gt;Node75</title>
<path fill="none" stroke="midnightblue" d="M496.328,-414.268C499.366,-412.692 502.287,-410.942 505,-409 529.577,-391.408 580.451,-313.181 597.94,-285.636"/>
<polygon fill="midnightblue" stroke="midnightblue" points="494.627,-411.195 486.947,-418.494 497.503,-417.577 494.627,-411.195"/>
</g>
<!-- Node79 -->
<g id="node15" class="node"><title>Node79</title>
<g id="a_node15"><a xlink:href="ac__out_8h.html#a3bc674b019d5e2e4d15e7abe7c69029f" target="_top" xlink:title="ac_thermo_close">
<polygon fill="white" stroke="black" points="559.5,-380.5 559.5,-399.5 650.5,-399.5 650.5,-380.5 559.5,-380.5"/>
<text text-anchor="middle" x="605" y="-387.5" font-family="Helvetica,sans-Serif" font-size="10.00">ac_thermo_close</text>
</a>
</g>
</g>
<!-- Node74&#45;&gt;Node79 -->
<g id="edge16" class="edge"><title>Node74&#45;&gt;Node79</title>
<path fill="none" stroke="midnightblue" d="M495.762,-416.032C517.903,-410.707 543.612,-404.524 564.417,-399.52"/>
<polygon fill="midnightblue" stroke="midnightblue" points="494.774,-412.67 485.87,-418.411 496.411,-419.476 494.774,-412.67"/>
</g>
<!-- Node81 -->
<g id="node17" class="node"><title>Node81</title>
<g id="a_node17"><a xlink:href="cron_8h.html#abede8d12ed6e5d5f3412eda37b325d03" target="_top" xlink:title="add_cron_job_from_query">
<polygon fill="white" stroke="black" points="541,-456.5 541,-475.5 669,-475.5 669,-456.5 541,-456.5"/>
<text text-anchor="middle" x="605" y="-463.5" font-family="Helvetica,sans-Serif" font-size="10.00">add_cron_job_from_query</text>
</a>
</g>
</g>
<!-- Node74&#45;&gt;Node81 -->
<g id="edge19" class="edge"><title>Node74&#45;&gt;Node81</title>
<path fill="none" stroke="midnightblue" d="M495.762,-439.968C517.903,-445.293 543.612,-451.476 564.417,-456.48"/>
<polygon fill="midnightblue" stroke="midnightblue" points="496.411,-436.524 485.87,-437.589 494.774,-443.33 496.411,-436.524"/>
</g>
<!-- Node83 -->
<g id="node19" class="node"><title>Node83</title>
<g id="a_node19"><a xlink:href="cron_8h.html#ad014b7bf4eab144ea9fc5669d896714b" target="_top" xlink:title="clear_cron_jobs">
<polygon fill="white" stroke="black" points="562.5,-418.5 562.5,-437.5 647.5,-437.5 647.5,-418.5 562.5,-418.5"/>
<text text-anchor="middle" x="605" y="-425.5" font-family="Helvetica,sans-Serif" font-size="10.00">clear_cron_jobs</text>
</a>
</g>
</g>
<!-- Node74&#45;&gt;Node83 -->
<g id="edge21" class="edge"><title>Node74&#45;&gt;Node83</title>
<path fill="none" stroke="midnightblue" d="M502.272,-428C522.095,-428 544.006,-428 562.4,-428"/>
<polygon fill="midnightblue" stroke="midnightblue" points="502.125,-424.5 492.125,-428 502.125,-431.5 502.125,-424.5"/>
</g>
<!-- Node75&#45;&gt;Node70 -->
<g id="edge12" class="edge"><title>Node75&#45;&gt;Node70</title>
<path fill="none" stroke="midnightblue" d="M643.423,-289.04C651.949,-292.344 660.884,-296.078 669,-300 695.731,-312.915 725.06,-331.274 742.066,-342.369"/>
<polygon fill="midnightblue" stroke="midnightblue" points="644.627,-285.753 634.035,-285.504 642.16,-292.304 644.627,-285.753"/>
</g>
<!-- Node76 -->
<g id="node12" class="node"><title>Node76</title>
<g id="a_node12"><a xlink:href="mqtt__rpc_8h.html#ad2e0752f6412fe150ba20d806fe90e15" target="_top" xlink:title="mqtt_rpc_open">
<polygon fill="white" stroke="black" points="717,-272.5 717,-291.5 798,-291.5 798,-272.5 717,-272.5"/>
<text text-anchor="middle" x="757.5" y="-279.5" font-family="Helvetica,sans-Serif" font-size="10.00">mqtt_rpc_open</text>
</a>
</g>
</g>
<!-- Node75&#45;&gt;Node76 -->
<g id="edge13" class="edge"><title>Node75&#45;&gt;Node76</title>
<path fill="none" stroke="midnightblue" d="M659.77,-278.144C678.625,-278.895 699.444,-279.725 716.923,-280.422"/>
<polygon fill="midnightblue" stroke="midnightblue" points="659.662,-274.637 649.531,-277.735 659.383,-281.631 659.662,-274.637"/>
</g>
<!-- Node75&#45;&gt;Node77 -->
<g id="edge14" class="edge"><title>Node75&#45;&gt;Node77</title>
<path fill="none" stroke="midnightblue" d="M659.396,-264.647C676.528,-261.004 695.315,-257.01 711.76,-253.513"/>
<polygon fill="midnightblue" stroke="midnightblue" points="658.584,-261.241 649.531,-266.744 660.04,-268.088 658.584,-261.241"/>
</g>
<!-- Node75&#45;&gt;Node78 -->
<g id="edge15" class="edge"><title>Node75&#45;&gt;Node78</title>
<path fill="none" stroke="midnightblue" d="M633.251,-261.741C653.087,-251.416 680.63,-237.19 705,-225 711.489,-221.754 718.465,-218.327 725.122,-215.085"/>
<polygon fill="midnightblue" stroke="midnightblue" points="631.429,-258.743 624.18,-266.47 634.666,-264.95 631.429,-258.743"/>
</g>
<!-- Node79&#45;&gt;Node70 -->
<g id="edge17" class="edge"><title>Node79&#45;&gt;Node70</title>
<path fill="none" stroke="midnightblue" d="M653.685,-377.96C674.71,-372.651 699.067,-366.501 718.796,-361.52"/>
<polygon fill="midnightblue" stroke="midnightblue" points="652.816,-374.569 643.978,-380.411 654.53,-381.356 652.816,-374.569"/>
</g>
<!-- Node80 -->
<g id="node16" class="node"><title>Node80</title>
<g id="a_node16"><a xlink:href="mqtt__rpc_8h.html#a05494e7f22df36d57595a00a9386c871" target="_top" xlink:title="mqtt_rpc_close">
<polygon fill="white" stroke="black" points="716,-380.5 716,-399.5 799,-399.5 799,-380.5 716,-380.5"/>
<text text-anchor="middle" x="757.5" y="-387.5" font-family="Helvetica,sans-Serif" font-size="10.00">mqtt_rpc_close</text>
</a>
</g>
</g>
<!-- Node79&#45;&gt;Node80 -->
<g id="edge18" class="edge"><title>Node79&#45;&gt;Node80</title>
<path fill="none" stroke="midnightblue" d="M660.906,-390C679.046,-390 698.89,-390 715.774,-390"/>
<polygon fill="midnightblue" stroke="midnightblue" points="660.748,-386.5 650.747,-390 660.747,-393.5 660.748,-386.5"/>
</g>
<!-- Node82 -->
<g id="node18" class="node"><title>Node82</title>
<g id="a_node18"><a xlink:href="mqtt__rpc_8h.html#a5ede5df0880a2c3823a5c3757423678b" target="_top" xlink:title="mqtt_rpc_set_cron">
<polygon fill="white" stroke="black" points="708.5,-456.5 708.5,-475.5 806.5,-475.5 806.5,-456.5 708.5,-456.5"/>
<text text-anchor="middle" x="757.5" y="-463.5" font-family="Helvetica,sans-Serif" font-size="10.00">mqtt_rpc_set_cron</text>
</a>
</g>
</g>
<!-- Node81&#45;&gt;Node82 -->
<g id="edge20" class="edge"><title>Node81&#45;&gt;Node82</title>
<path fill="none" stroke="midnightblue" d="M679.524,-466C689.289,-466 699.093,-466 708.278,-466"/>
<polygon fill="midnightblue" stroke="midnightblue" points="679.389,-462.5 669.389,-466 679.389,-469.5 679.389,-462.5"/>
</g>
<!-- Node83&#45;&gt;Node70 -->
<g id="edge22" class="edge"><title>Node83&#45;&gt;Node70</title>
<path fill="none" stroke="midnightblue" d="M657.311,-415.045C661.385,-413.267 665.336,-411.26 669,-409 688.801,-396.787 685.578,-383.806 705,-371 710.649,-367.275 717.126,-364.155 723.537,-361.591"/>
<polygon fill="midnightblue" stroke="midnightblue" points="655.715,-411.91 647.66,-418.793 658.249,-418.435 655.715,-411.91"/>
</g>
<!-- Node84 -->
<g id="node20" class="node"><title>Node84</title>
<g id="a_node20"><a xlink:href="mqtt__rpc_8h.html#a023697ad978d1154228e256583a147c0" target="_top" xlink:title="mqtt_rpc_clear_cron">
<polygon fill="white" stroke="black" points="705,-418.5 705,-437.5 810,-437.5 810,-418.5 705,-418.5"/>
<text text-anchor="middle" x="757.5" y="-425.5" font-family="Helvetica,sans-Serif" font-size="10.00">mqtt_rpc_clear_cron</text>
</a>
</g>
</g>
<!-- Node83&#45;&gt;Node84 -->
<g id="edge23" class="edge"><title>Node83&#45;&gt;Node84</title>
<path fill="none" stroke="midnightblue" d="M657.805,-428C673.036,-428 689.69,-428 704.907,-428"/>
<polygon fill="midnightblue" stroke="midnightblue" points="657.523,-424.5 647.523,-428 657.523,-431.5 657.523,-424.5"/>
</g>
</g>
</svg>
