<?xml version="1.0" encoding="UTF-8" standalone="no"?>
<!DOCTYPE svg PUBLIC "-//W3C//DTD SVG 1.1//EN"
 "http://www.w3.org/Graphics/SVG/1.1/DTD/svg11.dtd">
<!-- Generated by graphviz version 2.38.0 (20140413.2041)
 -->
<!-- Title: save_backlog Pages: 1 -->
<svg width="231pt" height="66pt"
 viewBox="0.00 0.00 231.00 66.00" xmlns="http://www.w3.org/2000/svg" xmlns:xlink="http://www.w3.org/1999/xlink">
<g id="graph0" class="graph" transform="scale(1 1) rotate(0) translate(4 62)">
<title>save_backlog</title>
<polygon fill="white" stroke="none" points="-4,4 -4,-62 227,-62 227,4 -4,4"/>
<!-- Node707 -->
<g id="node1" class="node"><title>Node707</title>
<polygon fill="#bfbfbf" stroke="black" points="0,-19.5 0,-38.5 77,-38.5 77,-19.5 0,-19.5"/>
<text text-anchor="middle" x="38.5" y="-26.5" font-family="Helvetica,sans-Serif" font-size="10.00">save_backlog</text>
</g>
<!-- Node708 -->
<g id="node2" class="node"><title>Node708</title>
<g id="a_node2"><a xlink:href="heatshrink__encoder_8c.html#a52bfbd33b20249a9f61813fc28c64e57" target="_top" xlink:title="backlog_is_partial">
<polygon fill="white" stroke="black" points="120.5,-38.5 120.5,-57.5 215.5,-57.5 215.5,-38.5 120.5,-38.5"/>
<text text-anchor="middle" x="168" y="-45.5" font-family="Helvetica,sans-Serif" font-size="10.00">backlog_is_partial</text>
</a>
</g>
</g>
<!-- Node707&#45;&gt;Node708 -->
<g id="edge1" class="edge"><title>Node707&#45;&gt;Node708</title>
<path fill="none" stroke="midnightblue" d="M77.0646,-34.5979C87.4127,-36.1399 98.8749,-37.848 110.055,-39.514"/>
<polygon fill="midnightblue" stroke="midnightblue" points="109.796,-43.014 120.203,-41.0263 110.828,-36.0905 109.796,-43.014"/>
</g>
<!-- Node709 -->
<g id="node3" class="node"><title>Node709</title>
<g id="a_node3"><a xlink:href="heatshrink__encoder_8c.html#a9b311bf2b76215ba61eb648d970a5f11" target="_top" xlink:title="get_input_buffer_size">
<polygon fill="white" stroke="black" points="113,-0.5 113,-19.5 223,-19.5 223,-0.5 113,-0.5"/>
<text text-anchor="middle" x="168" y="-7.5" font-family="Helvetica,sans-Serif" font-size="10.00">get_input_buffer_size</text>
</a>
</g>
</g>
<!-- Node707&#45;&gt;Node709 -->
<g id="edge2" class="edge"><title>Node707&#45;&gt;Node709</title>
<path fill="none" stroke="midnightblue" d="M77.0646,-23.4021C85.1769,-22.1933 93.9738,-20.8823 102.783,-19.5696"/>
<polygon fill="midnightblue" stroke="midnightblue" points="103.323,-23.0279 112.697,-18.0922 102.291,-16.1044 103.323,-23.0279"/>
</g>
</g>
</svg>
