<?xml version="1.0" encoding="UTF-8" standalone="no"?>
<!DOCTYPE svg PUBLIC "-//W3C//DTD SVG 1.1//EN"
 "http://www.w3.org/Graphics/SVG/1.1/DTD/svg11.dtd">
<!-- Generated by graphviz version 2.38.0 (20140413.2041)
 -->
<!-- Title: lib/heatshrink/heatshrink_decoder.h Pages: 1 -->
<svg width="538pt" height="106pt"
 viewBox="0.00 0.00 537.50 106.00" xmlns="http://www.w3.org/2000/svg" xmlns:xlink="http://www.w3.org/1999/xlink">
<g id="graph0" class="graph" transform="scale(1 1) rotate(0) translate(4 102)">
<title>lib/heatshrink/heatshrink_decoder.h</title>
<polygon fill="white" stroke="none" points="-4,4 -4,-102 533.5,-102 533.5,4 -4,4"/>
<!-- Node4 -->
<g id="node1" class="node"><title>Node4</title>
<polygon fill="#bfbfbf" stroke="black" points="218.5,-67.5 218.5,-97.5 340.5,-97.5 340.5,-67.5 218.5,-67.5"/>
<text text-anchor="start" x="226.5" y="-85.5" font-family="Helvetica,sans-Serif" font-size="10.00">lib/heatshrink/heatshrink</text>
<text text-anchor="middle" x="279.5" y="-74.5" font-family="Helvetica,sans-Serif" font-size="10.00">_decoder.h</text>
</g>
<!-- Node5 -->
<g id="node2" class="node"><title>Node5</title>
<g id="a_node2"><a xlink:href="heatshrink_8c.html" target="_top" xlink:title="lib/heatshrink/heatshrink.c">
<polygon fill="white" stroke="black" points="0,-6 0,-25 131,-25 131,-6 0,-6"/>
<text text-anchor="middle" x="65.5" y="-13" font-family="Helvetica,sans-Serif" font-size="10.00">lib/heatshrink/heatshrink.c</text>
</a>
</g>
</g>
<!-- Node4&#45;&gt;Node5 -->
<g id="edge1" class="edge"><title>Node4&#45;&gt;Node5</title>
<path fill="none" stroke="midnightblue" d="M223.564,-64.5102C181.801,-51.8251 126.48,-35.0219 93.579,-25.0287"/>
<polygon fill="midnightblue" stroke="midnightblue" points="222.743,-67.9186 233.329,-67.476 224.778,-61.2207 222.743,-67.9186"/>
</g>
<!-- Node6 -->
<g id="node3" class="node"><title>Node6</title>
<g id="a_node3"><a xlink:href="lib_2heatshrink_2heatshrink__decoder_8c.html" target="_top" xlink:title="lib/heatshrink/heatshrink\l_decoder.c">
<polygon fill="white" stroke="black" points="149.5,-0.5 149.5,-30.5 271.5,-30.5 271.5,-0.5 149.5,-0.5"/>
<text text-anchor="start" x="157.5" y="-18.5" font-family="Helvetica,sans-Serif" font-size="10.00">lib/heatshrink/heatshrink</text>
<text text-anchor="middle" x="210.5" y="-7.5" font-family="Helvetica,sans-Serif" font-size="10.00">_decoder.c</text>
</a>
</g>
</g>
<!-- Node4&#45;&gt;Node6 -->
<g id="edge2" class="edge"><title>Node4&#45;&gt;Node6</title>
<path fill="none" stroke="midnightblue" d="M257.008,-60.3115C246.657,-50.5612 234.66,-39.259 225.443,-30.5765"/>
<polygon fill="midnightblue" stroke="midnightblue" points="254.849,-63.0866 264.528,-67.396 259.649,-57.9914 254.849,-63.0866"/>
</g>
<!-- Node7 -->
<g id="node4" class="node"><title>Node7</title>
<g id="a_node4"><a xlink:href="test__heatshrink__dynamic_8c.html" target="_top" xlink:title="lib/heatshrink/test\l_heatshrink_dynamic.c">
<polygon fill="white" stroke="black" points="290,-0.5 290,-30.5 407,-30.5 407,-0.5 290,-0.5"/>
<text text-anchor="start" x="298" y="-18.5" font-family="Helvetica,sans-Serif" font-size="10.00">lib/heatshrink/test</text>
<text text-anchor="middle" x="348.5" y="-7.5" font-family="Helvetica,sans-Serif" font-size="10.00">_heatshrink_dynamic.c</text>
</a>
</g>
</g>
<!-- Node4&#45;&gt;Node7 -->
<g id="edge3" class="edge"><title>Node4&#45;&gt;Node7</title>
<path fill="none" stroke="midnightblue" d="M301.992,-60.3115C312.343,-50.5612 324.34,-39.259 333.557,-30.5765"/>
<polygon fill="midnightblue" stroke="midnightblue" points="299.351,-57.9914 294.472,-67.396 304.151,-63.0866 299.351,-57.9914"/>
</g>
<!-- Node8 -->
<g id="node5" class="node"><title>Node8</title>
<g id="a_node5"><a xlink:href="test__heatshrink__static_8c.html" target="_top" xlink:title="lib/heatshrink/test\l_heatshrink_static.c">
<polygon fill="white" stroke="black" points="425.5,-0.5 425.5,-30.5 529.5,-30.5 529.5,-0.5 425.5,-0.5"/>
<text text-anchor="start" x="433.5" y="-18.5" font-family="Helvetica,sans-Serif" font-size="10.00">lib/heatshrink/test</text>
<text text-anchor="middle" x="477.5" y="-7.5" font-family="Helvetica,sans-Serif" font-size="10.00">_heatshrink_static.c</text>
</a>
</g>
</g>
<!-- Node4&#45;&gt;Node8 -->
<g id="edge4" class="edge"><title>Node4&#45;&gt;Node8</title>
<path fill="none" stroke="midnightblue" d="M332.114,-64.2278C364.143,-53.7131 404.542,-40.4508 434.621,-30.5765"/>
<polygon fill="midnightblue" stroke="midnightblue" points="330.872,-60.9514 322.463,-67.396 333.056,-67.6022 330.872,-60.9514"/>
</g>
</g>
</svg>
