<?xml version="1.0" encoding="UTF-8" standalone="no"?>
<!DOCTYPE svg PUBLIC "-//W3C//DTD SVG 1.1//EN"
 "http://www.w3.org/Graphics/SVG/1.1/DTD/svg11.dtd">
<!-- Generated by graphviz version 2.38.0 (20140413.2041)
 -->
<!-- Title: handle_close Pages: 1 -->
<svg width="367pt" height="66pt"
 viewBox="0.00 0.00 367.00 66.00" xmlns="http://www.w3.org/2000/svg" xmlns:xlink="http://www.w3.org/1999/xlink">
<g id="graph0" class="graph" transform="scale(1 1) rotate(0) translate(4 62)">
<title>handle_close</title>
<polygon fill="white" stroke="none" points="-4,4 -4,-62 363,-62 363,4 -4,4"/>
<!-- Node136 -->
<g id="node1" class="node"><title>Node136</title>
<polygon fill="#bfbfbf" stroke="black" points="0,-19.5 0,-38.5 74,-38.5 74,-19.5 0,-19.5"/>
<text text-anchor="middle" x="37" y="-26.5" font-family="Helvetica,sans-Serif" font-size="10.00">handle_close</text>
</g>
<!-- Node137 -->
<g id="node2" class="node"><title>Node137</title>
<g id="a_node2"><a xlink:href="heatshrink_8c.html#ab458cc219445a92b0d1ba2bdbc4d5d6f" target="_top" xlink:title="close_and_report">
<polygon fill="white" stroke="black" points="110,-19.5 110,-38.5 201,-38.5 201,-19.5 110,-19.5"/>
<text text-anchor="middle" x="155.5" y="-26.5" font-family="Helvetica,sans-Serif" font-size="10.00">close_and_report</text>
</a>
</g>
</g>
<!-- Node136&#45;&gt;Node137 -->
<g id="edge1" class="edge"><title>Node136&#45;&gt;Node137</title>
<path fill="none" stroke="midnightblue" d="M84.225,-29C92.6069,-29 101.336,-29 109.677,-29"/>
<polygon fill="midnightblue" stroke="midnightblue" points="84.2228,-25.5001 74.2227,-29 84.2227,-32.5001 84.2228,-25.5001"/>
</g>
<!-- Node138 -->
<g id="node3" class="node"><title>Node138</title>
<g id="a_node3"><a xlink:href="heatshrink_8c.html#a92d9515cb2f33eea4832becaa17c11bb" target="_top" xlink:title="decode">
<polygon fill="white" stroke="black" points="237,-38.5 237,-57.5 285,-57.5 285,-38.5 237,-38.5"/>
<text text-anchor="middle" x="261" y="-45.5" font-family="Helvetica,sans-Serif" font-size="10.00">decode</text>
</a>
</g>
</g>
<!-- Node137&#45;&gt;Node138 -->
<g id="edge2" class="edge"><title>Node137&#45;&gt;Node138</title>
<path fill="none" stroke="midnightblue" d="M211.395,-39.0773C220.344,-40.7201 229.167,-42.3398 236.789,-43.739"/>
<polygon fill="midnightblue" stroke="midnightblue" points="211.762,-35.5864 201.295,-37.2232 210.498,-42.4713 211.762,-35.5864"/>
</g>
<!-- Node140 -->
<g id="node5" class="node"><title>Node140</title>
<g id="a_node5"><a xlink:href="heatshrink_8c.html#a37f19023beced8a782d3051bfd7a0bcb" target="_top" xlink:title="encode">
<polygon fill="white" stroke="black" points="237,-0.5 237,-19.5 285,-19.5 285,-0.5 237,-0.5"/>
<text text-anchor="middle" x="261" y="-7.5" font-family="Helvetica,sans-Serif" font-size="10.00">encode</text>
</a>
</g>
</g>
<!-- Node137&#45;&gt;Node140 -->
<g id="edge4" class="edge"><title>Node137&#45;&gt;Node140</title>
<path fill="none" stroke="midnightblue" d="M211.395,-18.9227C220.344,-17.2799 229.167,-15.6602 236.789,-14.261"/>
<polygon fill="midnightblue" stroke="midnightblue" points="210.498,-15.5287 201.295,-20.7768 211.762,-22.4136 210.498,-15.5287"/>
</g>
<!-- Node139 -->
<g id="node4" class="node"><title>Node139</title>
<g id="a_node4"><a xlink:href="heatshrink_8c.html#a3c04138a5bfe5d72780bb7e82a18e627" target="_top" xlink:title="main">
<polygon fill="white" stroke="black" points="321,-19.5 321,-38.5 359,-38.5 359,-19.5 321,-19.5"/>
<text text-anchor="middle" x="340" y="-26.5" font-family="Helvetica,sans-Serif" font-size="10.00">main</text>
</a>
</g>
</g>
<!-- Node138&#45;&gt;Node139 -->
<g id="edge3" class="edge"><title>Node138&#45;&gt;Node139</title>
<path fill="none" stroke="midnightblue" d="M295.067,-39.8406C303.798,-37.6862 312.91,-35.4379 320.557,-33.551"/>
<polygon fill="midnightblue" stroke="midnightblue" points="293.973,-36.5055 285.103,-42.2994 295.65,-43.3017 293.973,-36.5055"/>
</g>
<!-- Node140&#45;&gt;Node139 -->
<g id="edge5" class="edge"><title>Node140&#45;&gt;Node139</title>
<path fill="none" stroke="midnightblue" d="M295.067,-18.1594C303.798,-20.3138 312.91,-22.5621 320.557,-24.449"/>
<polygon fill="midnightblue" stroke="midnightblue" points="295.65,-14.6983 285.103,-15.7006 293.973,-21.4945 295.65,-14.6983"/>
</g>
</g>
</svg>
