<?xml version="1.0" encoding="UTF-8" standalone="no"?>
<!DOCTYPE svg PUBLIC "-//W3C//DTD SVG 1.1//EN"
 "http://www.w3.org/Graphics/SVG/1.1/DTD/svg11.dtd">
<!-- Generated by graphviz version 2.38.0 (20140413.2041)
 -->
<!-- Title: push_literal_byte Pages: 1 -->
<svg width="855pt" height="761pt"
 viewBox="0.00 0.00 855.00 760.50" xmlns="http://www.w3.org/2000/svg" xmlns:xlink="http://www.w3.org/1999/xlink">
<g id="graph0" class="graph" transform="scale(1 1) rotate(0) translate(4 756.5)">
<title>push_literal_byte</title>
<polygon fill="white" stroke="none" points="-4,4 -4,-756.5 851,-756.5 851,4 -4,4"/>
<!-- Node644 -->
<g id="node1" class="node"><title>Node644</title>
<polygon fill="#bfbfbf" stroke="black" points="0,-394 0,-413 90,-413 90,-394 0,-394"/>
<text text-anchor="middle" x="45" y="-401" font-family="Helvetica,sans-Serif" font-size="10.00">push_literal_byte</text>
</g>
<!-- Node645 -->
<g id="node2" class="node"><title>Node645</title>
<g id="a_node2"><a xlink:href="heatshrink__encoder_8c.html#a2fc159c7d9a01f00a26cbd49712aec82" target="_top" xlink:title="st_yield_literal">
<polygon fill="white" stroke="black" points="126,-394 126,-413 205,-413 205,-394 126,-394"/>
<text text-anchor="middle" x="165.5" y="-401" font-family="Helvetica,sans-Serif" font-size="10.00">st_yield_literal</text>
</a>
</g>
</g>
<!-- Node644&#45;&gt;Node645 -->
<g id="edge1" class="edge"><title>Node644&#45;&gt;Node645</title>
<path fill="none" stroke="midnightblue" d="M100.164,-403.5C108.81,-403.5 117.602,-403.5 125.796,-403.5"/>
<polygon fill="midnightblue" stroke="midnightblue" points="100.125,-400 90.125,-403.5 100.125,-407 100.125,-400"/>
</g>
<!-- Node646 -->
<g id="node3" class="node"><title>Node646</title>
<g id="a_node3"><a xlink:href="heatshrink__encoder_8h.html#aa1a92f13d1ef65546bb40ece94b2066e" target="_top" xlink:title="heatshrink_encoder_sink">
<polygon fill="white" stroke="black" points="241,-351 241,-370 366,-370 366,-351 241,-351"/>
<text text-anchor="middle" x="303.5" y="-358" font-family="Helvetica,sans-Serif" font-size="10.00">heatshrink_encoder_sink</text>
</a>
</g>
</g>
<!-- Node645&#45;&gt;Node646 -->
<g id="edge2" class="edge"><title>Node645&#45;&gt;Node646</title>
<path fill="none" stroke="midnightblue" d="M206.341,-390.903C227.453,-384.228 252.963,-376.162 272.402,-370.016"/>
<polygon fill="midnightblue" stroke="midnightblue" points="205.162,-387.605 196.683,-393.957 207.273,-394.279 205.162,-387.605"/>
</g>
<!-- Node671 -->
<g id="node28" class="node"><title>Node671</title>
<g id="a_node28"><a xlink:href="heatshrink__encoder_8h.html#a7de708b2cb0d016d9183b0addf6126f3" target="_top" xlink:title="heatshrink_encoder_poll">
<polygon fill="white" stroke="black" points="242.5,-438 242.5,-457 364.5,-457 364.5,-438 242.5,-438"/>
<text text-anchor="middle" x="303.5" y="-445" font-family="Helvetica,sans-Serif" font-size="10.00">heatshrink_encoder_poll</text>
</a>
</g>
</g>
<!-- Node645&#45;&gt;Node671 -->
<g id="edge41" class="edge"><title>Node645&#45;&gt;Node671</title>
<path fill="none" stroke="midnightblue" d="M205.805,-416.216C227.254,-423.156 253.367,-431.604 273.048,-437.971"/>
<polygon fill="midnightblue" stroke="midnightblue" points="206.602,-412.796 196.01,-413.047 204.447,-419.456 206.602,-412.796"/>
</g>
<!-- Node647 -->
<g id="node4" class="node"><title>Node647</title>
<g id="a_node4"><a xlink:href="heatshrink_8c.html#a593e86bba4eca0be280740fcf509bc12" target="_top" xlink:title="encoder_sink_read">
<polygon fill="white" stroke="black" points="427,-679 427,-698 525,-698 525,-679 427,-679"/>
<text text-anchor="middle" x="476" y="-686" font-family="Helvetica,sans-Serif" font-size="10.00">encoder_sink_read</text>
</a>
</g>
</g>
<!-- Node646&#45;&gt;Node647 -->
<g id="edge3" class="edge"><title>Node646&#45;&gt;Node647</title>
<path fill="none" stroke="midnightblue" d="M324.444,-376.759C338.444,-389.351 356.329,-408.051 366,-428.5 412.302,-526.403 329.599,-588.959 402,-669.5 408.566,-676.804 417.551,-681.46 426.973,-684.391"/>
<polygon fill="midnightblue" stroke="midnightblue" points="326.591,-373.988 316.742,-370.084 322.006,-379.278 326.591,-373.988"/>
</g>
<!-- Node650 -->
<g id="node7" class="node"><title>Node650</title>
<g id="a_node7"><a xlink:href="test__heatshrink__dynamic_8c.html#a9b30a495760400a59637e7d708e63ae0" target="_top" xlink:title="encoder_sink_should\l_reject_nulls">
<polygon fill="white" stroke="black" points="422,-0.5 422,-30.5 530,-30.5 530,-0.5 422,-0.5"/>
<text text-anchor="start" x="430" y="-18.5" font-family="Helvetica,sans-Serif" font-size="10.00">encoder_sink_should</text>
<text text-anchor="middle" x="476" y="-7.5" font-family="Helvetica,sans-Serif" font-size="10.00">_reject_nulls</text>
</a>
</g>
</g>
<!-- Node646&#45;&gt;Node650 -->
<g id="edge6" class="edge"><title>Node646&#45;&gt;Node650</title>
<path fill="none" stroke="midnightblue" d="M304.63,-340.657C306.08,-285.319 317.789,-127.642 402,-40.5 407.586,-34.7201 414.563,-30.2763 421.973,-26.8597"/>
<polygon fill="midnightblue" stroke="midnightblue" points="301.127,-340.791 304.454,-350.85 308.126,-340.912 301.127,-340.791"/>
</g>
<!-- Node652 -->
<g id="node9" class="node"><title>Node652</title>
<g id="a_node9"><a xlink:href="test__heatshrink__dynamic_8c.html#a1c4dab770a7df0935018c3a685f5b1ff" target="_top" xlink:title="encoder_sink_should\l_accept_input_when_it\l_will_fit">
<polygon fill="white" stroke="black" points="418,-110 418,-151 534,-151 534,-110 418,-110"/>
<text text-anchor="start" x="426" y="-139" font-family="Helvetica,sans-Serif" font-size="10.00">encoder_sink_should</text>
<text text-anchor="start" x="426" y="-128" font-family="Helvetica,sans-Serif" font-size="10.00">_accept_input_when_it</text>
<text text-anchor="middle" x="476" y="-117" font-family="Helvetica,sans-Serif" font-size="10.00">_will_fit</text>
</a>
</g>
</g>
<!-- Node646&#45;&gt;Node652 -->
<g id="edge8" class="edge"><title>Node646&#45;&gt;Node652</title>
<path fill="none" stroke="midnightblue" d="M309.083,-340.74C319.196,-301.28 347.014,-212.091 402,-160.5 406.696,-156.094 412.129,-152.294 417.869,-149.027"/>
<polygon fill="midnightblue" stroke="midnightblue" points="305.627,-340.138 306.644,-350.684 312.425,-341.805 305.627,-340.138"/>
</g>
<!-- Node653 -->
<g id="node10" class="node"><title>Node653</title>
<g id="a_node10"><a xlink:href="test__heatshrink__dynamic_8c.html#a73ee2ec6f21d5e0ce0e34902a1aebccb" target="_top" xlink:title="encoder_sink_should\l_accept_partial_input\l_when_some_will_fit">
<polygon fill="white" stroke="black" points="421.5,-50 421.5,-91 530.5,-91 530.5,-50 421.5,-50"/>
<text text-anchor="start" x="429.5" y="-79" font-family="Helvetica,sans-Serif" font-size="10.00">encoder_sink_should</text>
<text text-anchor="start" x="429.5" y="-68" font-family="Helvetica,sans-Serif" font-size="10.00">_accept_partial_input</text>
<text text-anchor="middle" x="476" y="-57" font-family="Helvetica,sans-Serif" font-size="10.00">_when_some_will_fit</text>
</a>
</g>
</g>
<!-- Node646&#45;&gt;Node653 -->
<g id="edge10" class="edge"><title>Node646&#45;&gt;Node653</title>
<path fill="none" stroke="midnightblue" d="M306.568,-340.563C312.535,-292.819 333.96,-170.693 402,-100.5 407.531,-94.7936 414.303,-90.1331 421.47,-86.3373"/>
<polygon fill="midnightblue" stroke="midnightblue" points="303.058,-340.45 305.389,-350.785 310.012,-341.251 303.058,-340.45"/>
</g>
<!-- Node654 -->
<g id="node11" class="node"><title>Node654</title>
<g id="a_node11"><a xlink:href="test__heatshrink__dynamic_8c.html#a5339595930b85317e810fcf251b86351" target="_top" xlink:title="encoder_should_emit\l_data_without_repetitions\l_as_literal_sequence">
<polygon fill="white" stroke="black" points="412,-170 412,-211 540,-211 540,-170 412,-170"/>
<text text-anchor="start" x="420" y="-199" font-family="Helvetica,sans-Serif" font-size="10.00">encoder_should_emit</text>
<text text-anchor="start" x="420" y="-188" font-family="Helvetica,sans-Serif" font-size="10.00">_data_without_repetitions</text>
<text text-anchor="middle" x="476" y="-177" font-family="Helvetica,sans-Serif" font-size="10.00">_as_literal_sequence</text>
</a>
</g>
</g>
<!-- Node646&#45;&gt;Node654 -->
<g id="edge12" class="edge"><title>Node646&#45;&gt;Node654</title>
<path fill="none" stroke="midnightblue" d="M313.147,-341.732C327.627,-312.18 359.43,-254.658 402,-220.5 406.275,-217.07 410.996,-213.979 415.92,-211.206"/>
<polygon fill="midnightblue" stroke="midnightblue" points="309.904,-340.402 308.759,-350.934 316.223,-343.415 309.904,-340.402"/>
</g>
<!-- Node655 -->
<g id="node12" class="node"><title>Node655</title>
<g id="a_node12"><a xlink:href="test__heatshrink__dynamic_8c.html#ae27157a664552fa0744d095239ee0d88" target="_top" xlink:title="encoder_should_emit\l_series_of_same_byte\l_as_literal_then_backref">
<polygon fill="white" stroke="black" points="415,-340 415,-381 537,-381 537,-340 415,-340"/>
<text text-anchor="start" x="423" y="-369" font-family="Helvetica,sans-Serif" font-size="10.00">encoder_should_emit</text>
<text text-anchor="start" x="423" y="-358" font-family="Helvetica,sans-Serif" font-size="10.00">_series_of_same_byte</text>
<text text-anchor="middle" x="476" y="-347" font-family="Helvetica,sans-Serif" font-size="10.00">_as_literal_then_backref</text>
</a>
</g>
</g>
<!-- Node646&#45;&gt;Node655 -->
<g id="edge14" class="edge"><title>Node646&#45;&gt;Node655</title>
<path fill="none" stroke="midnightblue" d="M376.272,-360.5C389.153,-360.5 402.456,-360.5 414.963,-360.5"/>
<polygon fill="midnightblue" stroke="midnightblue" points="376.054,-357 366.054,-360.5 376.054,-364 376.054,-357"/>
</g>
<!-- Node656 -->
<g id="node13" class="node"><title>Node656</title>
<g id="a_node13"><a xlink:href="test__heatshrink__dynamic_8c.html#a2d84dd546b011bb6cfc3b1e9a9a5616b" target="_top" xlink:title="encoder_poll_should\l_detect_repeated_substring">
<polygon fill="white" stroke="black" points="407.5,-290.5 407.5,-320.5 544.5,-320.5 544.5,-290.5 407.5,-290.5"/>
<text text-anchor="start" x="415.5" y="-308.5" font-family="Helvetica,sans-Serif" font-size="10.00">encoder_poll_should</text>
<text text-anchor="middle" x="476" y="-297.5" font-family="Helvetica,sans-Serif" font-size="10.00">_detect_repeated_substring</text>
</a>
</g>
</g>
<!-- Node646&#45;&gt;Node656 -->
<g id="edge16" class="edge"><title>Node646&#45;&gt;Node656</title>
<path fill="none" stroke="midnightblue" d="M343.791,-347.826C368.972,-339.702 401.785,-329.118 428.297,-320.565"/>
<polygon fill="midnightblue" stroke="midnightblue" points="342.641,-344.519 334.199,-350.92 344.79,-351.181 342.641,-344.519"/>
</g>
<!-- Node657 -->
<g id="node14" class="node"><title>Node657</title>
<g id="a_node14"><a xlink:href="test__heatshrink__dynamic_8c.html#ab068727669a416029bacc708b2aac5ac" target="_top" xlink:title="encoder_poll_should\l_detect_repeated_substring\l_and_preserve_trailing_literal">
<polygon fill="white" stroke="black" points="404.5,-230 404.5,-271 547.5,-271 547.5,-230 404.5,-230"/>
<text text-anchor="start" x="412.5" y="-259" font-family="Helvetica,sans-Serif" font-size="10.00">encoder_poll_should</text>
<text text-anchor="start" x="412.5" y="-248" font-family="Helvetica,sans-Serif" font-size="10.00">_detect_repeated_substring</text>
<text text-anchor="middle" x="476" y="-237" font-family="Helvetica,sans-Serif" font-size="10.00">_and_preserve_trailing_literal</text>
</a>
</g>
</g>
<!-- Node646&#45;&gt;Node657 -->
<g id="edge18" class="edge"><title>Node646&#45;&gt;Node657</title>
<path fill="none" stroke="midnightblue" d="M321.659,-343.71C340.252,-326.197 371.381,-298.792 402,-280.5 407.646,-277.127 413.741,-273.964 419.919,-271.051"/>
<polygon fill="midnightblue" stroke="midnightblue" points="319.08,-341.334 314.27,-350.774 323.917,-346.394 319.08,-341.334"/>
</g>
<!-- Node658 -->
<g id="node15" class="node"><title>Node658</title>
<g id="a_node15"><a xlink:href="test__heatshrink__dynamic_8c.html#a6627d0e00f7e636ae9294cc6255c7ffd" target="_top" xlink:title="gen">
<polygon fill="white" stroke="black" points="460,-717 460,-736 492,-736 492,-717 460,-717"/>
<text text-anchor="middle" x="476" y="-724" font-family="Helvetica,sans-Serif" font-size="10.00">gen</text>
</a>
</g>
</g>
<!-- Node646&#45;&gt;Node658 -->
<g id="edge20" class="edge"><title>Node646&#45;&gt;Node658</title>
<path fill="none" stroke="midnightblue" d="M324.565,-376.702C338.626,-389.266 356.534,-407.956 366,-428.5 418.323,-542.053 319.347,-613.689 402,-707.5 416.458,-723.91 443.118,-726.995 459.908,-727.157"/>
<polygon fill="midnightblue" stroke="midnightblue" points="326.689,-373.912 316.824,-370.046 322.124,-379.22 326.689,-373.912"/>
</g>
<!-- Node660 -->
<g id="node17" class="node"><title>Node660</title>
<g id="a_node17"><a xlink:href="test__heatshrink__dynamic_8c.html#ab9096be17a9dc8f301673949558e5bd6" target="_top" xlink:title="compress_and_expand\l_and_check">
<polygon fill="white" stroke="black" points="417.5,-509.5 417.5,-539.5 534.5,-539.5 534.5,-509.5 417.5,-509.5"/>
<text text-anchor="start" x="425.5" y="-527.5" font-family="Helvetica,sans-Serif" font-size="10.00">compress_and_expand</text>
<text text-anchor="middle" x="476" y="-516.5" font-family="Helvetica,sans-Serif" font-size="10.00">_and_check</text>
</a>
</g>
</g>
<!-- Node646&#45;&gt;Node660 -->
<g id="edge22" class="edge"><title>Node646&#45;&gt;Node660</title>
<path fill="none" stroke="midnightblue" d="M322.487,-377.742C335.566,-390.873 353.156,-409.816 366,-428.5 386.043,-457.655 375.302,-476.284 402,-499.5 406.549,-503.456 411.754,-506.793 417.245,-509.607"/>
<polygon fill="midnightblue" stroke="midnightblue" points="324.588,-374.899 315.009,-370.372 319.675,-379.884 324.588,-374.899"/>
</g>
<!-- Node669 -->
<g id="node26" class="node"><title>Node669</title>
<g id="a_node26"><a xlink:href="test__heatshrink__dynamic_8c.html#a9a102029b8375d4050406a2814f390ac" target="_top" xlink:title="data_without_duplication\l_should_match_with_absurdly\l_tiny_buffers">
<polygon fill="white" stroke="black" points="402,-619 402,-660 550,-660 550,-619 402,-619"/>
<text text-anchor="start" x="410" y="-648" font-family="Helvetica,sans-Serif" font-size="10.00">data_without_duplication</text>
<text text-anchor="start" x="410" y="-637" font-family="Helvetica,sans-Serif" font-size="10.00">_should_match_with_absurdly</text>
<text text-anchor="middle" x="476" y="-626" font-family="Helvetica,sans-Serif" font-size="10.00">_tiny_buffers</text>
</a>
</g>
</g>
<!-- Node646&#45;&gt;Node669 -->
<g id="edge37" class="edge"><title>Node646&#45;&gt;Node669</title>
<path fill="none" stroke="midnightblue" d="M324.154,-376.901C338.009,-389.563 355.841,-408.289 366,-428.5 402.838,-501.782 349.879,-546.17 402,-609.5 404.873,-612.991 408.219,-616.081 411.867,-618.815"/>
<polygon fill="midnightblue" stroke="midnightblue" points="326.356,-374.176 316.544,-370.181 321.723,-379.423 326.356,-374.176"/>
</g>
<!-- Node670 -->
<g id="node27" class="node"><title>Node670</title>
<g id="a_node27"><a xlink:href="test__heatshrink__dynamic_8c.html#acd64db79d79999a7c5436d35b74a7f40" target="_top" xlink:title="data_with_simple_repetition\l_should_match_with_absurdly\l_tiny_buffers">
<polygon fill="white" stroke="black" points="402,-559 402,-600 550,-600 550,-559 402,-559"/>
<text text-anchor="start" x="410" y="-588" font-family="Helvetica,sans-Serif" font-size="10.00">data_with_simple_repetition</text>
<text text-anchor="start" x="410" y="-577" font-family="Helvetica,sans-Serif" font-size="10.00">_should_match_with_absurdly</text>
<text text-anchor="middle" x="476" y="-566" font-family="Helvetica,sans-Serif" font-size="10.00">_tiny_buffers</text>
</a>
</g>
</g>
<!-- Node646&#45;&gt;Node670 -->
<g id="edge39" class="edge"><title>Node646&#45;&gt;Node670</title>
<path fill="none" stroke="midnightblue" d="M323.59,-377.201C337.164,-390.013 354.891,-408.795 366,-428.5 393.345,-477.004 364.854,-507.02 402,-548.5 405.491,-552.398 409.553,-555.821 413.941,-558.826"/>
<polygon fill="midnightblue" stroke="midnightblue" points="325.895,-374.565 316.159,-370.386 321.163,-379.724 325.895,-374.565"/>
</g>
<!-- Node648 -->
<g id="node5" class="node"><title>Node648</title>
<g id="a_node5"><a xlink:href="heatshrink_8c.html#a37f19023beced8a782d3051bfd7a0bcb" target="_top" xlink:title="encode">
<polygon fill="white" stroke="black" points="651,-695 651,-714 699,-714 699,-695 651,-695"/>
<text text-anchor="middle" x="675" y="-702" font-family="Helvetica,sans-Serif" font-size="10.00">encode</text>
</a>
</g>
</g>
<!-- Node647&#45;&gt;Node648 -->
<g id="edge4" class="edge"><title>Node647&#45;&gt;Node648</title>
<path fill="none" stroke="midnightblue" d="M535.314,-693.236C574.049,-696.382 622.791,-700.341 650.971,-702.63"/>
<polygon fill="midnightblue" stroke="midnightblue" points="535.442,-689.735 525.192,-692.414 534.875,-696.712 535.442,-689.735"/>
</g>
<!-- Node649 -->
<g id="node6" class="node"><title>Node649</title>
<g id="a_node6"><a xlink:href="heatshrink_8c.html#a3c04138a5bfe5d72780bb7e82a18e627" target="_top" xlink:title="main">
<polygon fill="white" stroke="black" points="804.5,-695 804.5,-714 842.5,-714 842.5,-695 804.5,-695"/>
<text text-anchor="middle" x="823.5" y="-702" font-family="Helvetica,sans-Serif" font-size="10.00">main</text>
</a>
</g>
</g>
<!-- Node648&#45;&gt;Node649 -->
<g id="edge5" class="edge"><title>Node648&#45;&gt;Node649</title>
<path fill="none" stroke="midnightblue" d="M709.47,-704.5C738.981,-704.5 780.857,-704.5 804.475,-704.5"/>
<polygon fill="midnightblue" stroke="midnightblue" points="709.213,-701 699.213,-704.5 709.213,-708 709.213,-701"/>
</g>
<!-- Node651 -->
<g id="node8" class="node"><title>Node651</title>
<g id="a_node8"><a xlink:href="test__heatshrink__dynamic_8c.html#ac4a70b7ac22f00448c1d17d2b29a1359" target="_top" xlink:title="SUITE">
<polygon fill="white" stroke="black" points="651.5,-235 651.5,-254 698.5,-254 698.5,-235 651.5,-235"/>
<text text-anchor="middle" x="675" y="-242" font-family="Helvetica,sans-Serif" font-size="10.00">SUITE</text>
</a>
</g>
</g>
<!-- Node650&#45;&gt;Node651 -->
<g id="edge7" class="edge"><title>Node650&#45;&gt;Node651</title>
<path fill="none" stroke="midnightblue" d="M539.369,-33.3564C543.127,-35.4833 546.712,-37.8555 550,-40.5 619.441,-96.3432 659.705,-202.276 670.82,-234.775"/>
<polygon fill="midnightblue" stroke="midnightblue" points="540.852,-30.1844 530.344,-28.8262 537.711,-36.4404 540.852,-30.1844"/>
</g>
<!-- Node652&#45;&gt;Node651 -->
<g id="edge9" class="edge"><title>Node652&#45;&gt;Node651</title>
<path fill="none" stroke="midnightblue" d="M539.874,-155.351C543.333,-157.024 546.729,-158.744 550,-160.5 593.071,-183.621 639.755,-218.085 661.518,-234.762"/>
<polygon fill="midnightblue" stroke="midnightblue" points="541.161,-152.09 530.618,-151.044 538.208,-158.436 541.161,-152.09"/>
</g>
<!-- Node653&#45;&gt;Node651 -->
<g id="edge11" class="edge"><title>Node653&#45;&gt;Node651</title>
<path fill="none" stroke="midnightblue" d="M539.806,-93.9522C543.352,-95.9948 546.779,-98.1766 550,-100.5 605.119,-140.259 651.824,-209.274 667.965,-234.716"/>
<polygon fill="midnightblue" stroke="midnightblue" points="541.271,-90.7671 530.798,-89.1606 537.983,-96.9471 541.271,-90.7671"/>
</g>
<!-- Node654&#45;&gt;Node651 -->
<g id="edge13" class="edge"><title>Node654&#45;&gt;Node651</title>
<path fill="none" stroke="midnightblue" d="M550.114,-210.541C585.975,-220.371 626.653,-231.522 651.309,-238.28"/>
<polygon fill="midnightblue" stroke="midnightblue" points="550.714,-207.077 540.145,-207.809 548.864,-213.828 550.714,-207.077"/>
</g>
<!-- Node655&#45;&gt;Node651 -->
<g id="edge15" class="edge"><title>Node655&#45;&gt;Node651</title>
<path fill="none" stroke="midnightblue" d="M544.522,-334.019C546.427,-332.584 548.26,-331.078 550,-329.5 574.753,-307.056 559.24,-283.509 586,-263.5 604.901,-249.367 632.122,-245.296 651.271,-244.334"/>
<polygon fill="midnightblue" stroke="midnightblue" points="542.136,-331.404 535.769,-339.873 546.027,-337.223 542.136,-331.404"/>
</g>
<!-- Node656&#45;&gt;Node651 -->
<g id="edge17" class="edge"><title>Node656&#45;&gt;Node651</title>
<path fill="none" stroke="midnightblue" d="M533.207,-286.959C538.912,-284.866 544.593,-282.695 550,-280.5 566.395,-273.846 569.243,-269.182 586,-263.5 607.611,-256.172 633.194,-251.023 651.19,-247.95"/>
<polygon fill="midnightblue" stroke="midnightblue" points="531.858,-283.725 523.628,-290.397 534.223,-290.313 531.858,-283.725"/>
</g>
<!-- Node657&#45;&gt;Node651 -->
<g id="edge19" class="edge"><title>Node657&#45;&gt;Node651</title>
<path fill="none" stroke="midnightblue" d="M557.94,-248.035C591.725,-247.006 628.358,-245.89 651.241,-245.193"/>
<polygon fill="midnightblue" stroke="midnightblue" points="557.454,-244.548 547.565,-248.351 557.667,-251.545 557.454,-244.548"/>
</g>
<!-- Node659 -->
<g id="node16" class="node"><title>Node659</title>
<g id="a_node16"><a xlink:href="test__heatshrink__dynamic_8c.html#adc66afa12a5eaae0cd12d5cc497f0f67" target="_top" xlink:title="SUITE">
<polygon fill="white" stroke="black" points="651.5,-733 651.5,-752 698.5,-752 698.5,-733 651.5,-733"/>
<text text-anchor="middle" x="675" y="-740" font-family="Helvetica,sans-Serif" font-size="10.00">SUITE</text>
</a>
</g>
</g>
<!-- Node658&#45;&gt;Node659 -->
<g id="edge21" class="edge"><title>Node658&#45;&gt;Node659</title>
<path fill="none" stroke="midnightblue" d="M502.548,-728.575C541.343,-731.726 614.494,-737.667 651.436,-740.667"/>
<polygon fill="midnightblue" stroke="midnightblue" points="502.382,-725.05 492.131,-727.729 501.815,-732.027 502.382,-725.05"/>
</g>
<!-- Node661 -->
<g id="node18" class="node"><title>Node661</title>
<g id="a_node18"><a xlink:href="test__heatshrink__dynamic_8c.html#a9d63746ee6a963338d09b8a19da82529" target="_top" xlink:title="data_without_duplication\l_should_match">
<polygon fill="white" stroke="black" points="613,-569.5 613,-599.5 737,-599.5 737,-569.5 613,-569.5"/>
<text text-anchor="start" x="621" y="-587.5" font-family="Helvetica,sans-Serif" font-size="10.00">data_without_duplication</text>
<text text-anchor="middle" x="675" y="-576.5" font-family="Helvetica,sans-Serif" font-size="10.00">_should_match</text>
</a>
</g>
</g>
<!-- Node660&#45;&gt;Node661 -->
<g id="edge23" class="edge"><title>Node660&#45;&gt;Node661</title>
<path fill="none" stroke="midnightblue" d="M532.598,-542.754C549.69,-548.257 568.586,-554.232 586,-559.5 596.945,-562.811 608.695,-566.237 619.931,-569.452"/>
<polygon fill="midnightblue" stroke="midnightblue" points="533.359,-539.321 522.767,-539.577 531.206,-545.982 533.359,-539.321"/>
</g>
<!-- Node663 -->
<g id="node20" class="node"><title>Node663</title>
<g id="a_node20"><a xlink:href="test__heatshrink__dynamic_8c.html#ae9d1425d6c89a652b9df2b4ddc7ac2a2" target="_top" xlink:title="data_with_simple_repetition\l_should_compress_and_decompress\l_properly">
<polygon fill="white" stroke="black" points="586,-509 586,-550 764,-550 764,-509 586,-509"/>
<text text-anchor="start" x="594" y="-538" font-family="Helvetica,sans-Serif" font-size="10.00">data_with_simple_repetition</text>
<text text-anchor="start" x="594" y="-527" font-family="Helvetica,sans-Serif" font-size="10.00">_should_compress_and_decompress</text>
<text text-anchor="middle" x="675" y="-516" font-family="Helvetica,sans-Serif" font-size="10.00">_properly</text>
</a>
</g>
</g>
<!-- Node660&#45;&gt;Node663 -->
<g id="edge25" class="edge"><title>Node660&#45;&gt;Node663</title>
<path fill="none" stroke="midnightblue" d="M544.858,-526.222C558.002,-526.556 571.955,-526.91 585.644,-527.257"/>
<polygon fill="midnightblue" stroke="midnightblue" points="544.596,-522.715 534.51,-525.96 544.418,-529.712 544.596,-522.715"/>
</g>
<!-- Node664 -->
<g id="node21" class="node"><title>Node664</title>
<g id="a_node21"><a xlink:href="test__heatshrink__dynamic_8c.html#a60c0e0c5bbb9715c7932ee82e706752d" target="_top" xlink:title="pseudorandom_data_should\l_match">
<polygon fill="white" stroke="black" points="606,-459.5 606,-489.5 744,-489.5 744,-459.5 606,-459.5"/>
<text text-anchor="start" x="614" y="-477.5" font-family="Helvetica,sans-Serif" font-size="10.00">pseudorandom_data_should</text>
<text text-anchor="middle" x="675" y="-466.5" font-family="Helvetica,sans-Serif" font-size="10.00">_match</text>
</a>
</g>
</g>
<!-- Node660&#45;&gt;Node664 -->
<g id="edge27" class="edge"><title>Node660&#45;&gt;Node664</title>
<path fill="none" stroke="midnightblue" d="M544.459,-507.378C567.278,-501.587 592.571,-495.167 614.708,-489.549"/>
<polygon fill="midnightblue" stroke="midnightblue" points="543.342,-504.051 534.51,-509.904 545.064,-510.836 543.342,-504.051"/>
</g>
<!-- Node665 -->
<g id="node22" class="node"><title>Node665</title>
<g id="a_node22"><a xlink:href="test__heatshrink__dynamic_8c.html#a20e1a72bba941f0c602b93b53d32d5db" target="_top" xlink:title="small_input_buffer\l_should_not_impact_decoder\l_correctness">
<polygon fill="white" stroke="black" points="603.5,-399 603.5,-440 746.5,-440 746.5,-399 603.5,-399"/>
<text text-anchor="start" x="611.5" y="-428" font-family="Helvetica,sans-Serif" font-size="10.00">small_input_buffer</text>
<text text-anchor="start" x="611.5" y="-417" font-family="Helvetica,sans-Serif" font-size="10.00">_should_not_impact_decoder</text>
<text text-anchor="middle" x="675" y="-406" font-family="Helvetica,sans-Serif" font-size="10.00">_correctness</text>
</a>
</g>
</g>
<!-- Node660&#45;&gt;Node665 -->
<g id="edge29" class="edge"><title>Node660&#45;&gt;Node665</title>
<path fill="none" stroke="midnightblue" d="M542.1,-504.684C544.85,-503.081 547.499,-501.356 550,-499.5 571.991,-483.183 563.998,-465.802 586,-449.5 591.317,-445.56 597.189,-442.113 603.3,-439.101"/>
<polygon fill="midnightblue" stroke="midnightblue" points="540.295,-501.678 533.036,-509.396 543.523,-507.888 540.295,-501.678"/>
</g>
<!-- Node666 -->
<g id="node23" class="node"><title>Node666</title>
<g id="a_node23"><a xlink:href="test__heatshrink__dynamic_8c.html#a462faeb904a3de1b1e009a04f7d171d8" target="_top" xlink:title="regression_backreference\l_counters_should_not_roll_over">
<polygon fill="white" stroke="black" points="598,-349.5 598,-379.5 752,-379.5 752,-349.5 598,-349.5"/>
<text text-anchor="start" x="606" y="-367.5" font-family="Helvetica,sans-Serif" font-size="10.00">regression_backreference</text>
<text text-anchor="middle" x="675" y="-356.5" font-family="Helvetica,sans-Serif" font-size="10.00">_counters_should_not_roll_over</text>
</a>
</g>
</g>
<!-- Node660&#45;&gt;Node666 -->
<g id="edge31" class="edge"><title>Node660&#45;&gt;Node666</title>
<path fill="none" stroke="midnightblue" d="M543.277,-505.289C545.671,-503.526 547.927,-501.601 550,-499.5 586.125,-462.878 548.915,-425.149 586,-389.5 590.008,-385.648 594.564,-382.381 599.445,-379.613"/>
<polygon fill="midnightblue" stroke="midnightblue" points="541.292,-502.403 534.681,-510.681 545.012,-508.332 541.292,-502.403"/>
</g>
<!-- Node667 -->
<g id="node24" class="node"><title>Node667</title>
<g id="a_node24"><a xlink:href="test__heatshrink__dynamic_8c.html#a2ed8ea21768d114fa96b07eb58475663" target="_top" xlink:title="regression_index_fail">
<polygon fill="white" stroke="black" points="621,-311 621,-330 729,-330 729,-311 621,-311"/>
<text text-anchor="middle" x="675" y="-318" font-family="Helvetica,sans-Serif" font-size="10.00">regression_index_fail</text>
</a>
</g>
</g>
<!-- Node660&#45;&gt;Node667 -->
<g id="edge33" class="edge"><title>Node660&#45;&gt;Node667</title>
<path fill="none" stroke="midnightblue" d="M543.385,-505.646C545.765,-503.786 547.988,-501.744 550,-499.5 598.666,-445.238 534.237,-390.816 586,-339.5 595.324,-330.257 608.003,-325.034 620.833,-322.188"/>
<polygon fill="midnightblue" stroke="midnightblue" points="541.213,-502.884 534.76,-511.288 545.045,-508.742 541.213,-502.884"/>
</g>
<!-- Node668 -->
<g id="node25" class="node"><title>Node668</title>
<g id="a_node25"><a xlink:href="test__heatshrink__dynamic_8c.html#a1bfe72da903d55a8610433a4f2a60d43" target="_top" xlink:title="sixty_four_k">
<polygon fill="white" stroke="black" points="640,-273 640,-292 710,-292 710,-273 640,-273"/>
<text text-anchor="middle" x="675" y="-280" font-family="Helvetica,sans-Serif" font-size="10.00">sixty_four_k</text>
</a>
</g>
</g>
<!-- Node660&#45;&gt;Node668 -->
<g id="edge35" class="edge"><title>Node660&#45;&gt;Node668</title>
<path fill="none" stroke="midnightblue" d="M543.355,-505.866C545.759,-503.948 547.994,-501.833 550,-499.5 608.326,-431.691 523.8,-365.774 586,-301.5 599.804,-287.236 621.569,-282.448 640,-281.245"/>
<polygon fill="midnightblue" stroke="midnightblue" points="541.011,-503.22 534.604,-511.658 544.875,-509.057 541.011,-503.22"/>
</g>
<!-- Node662 -->
<g id="node19" class="node"><title>Node662</title>
<g id="a_node19"><a xlink:href="test__heatshrink__dynamic_8c.html#a2f157eb23cb17a496326c14e12933b3b" target="_top" xlink:title="SUITE">
<polygon fill="white" stroke="black" points="800,-465 800,-484 847,-484 847,-465 800,-465"/>
<text text-anchor="middle" x="823.5" y="-472" font-family="Helvetica,sans-Serif" font-size="10.00">SUITE</text>
</a>
</g>
</g>
<!-- Node661&#45;&gt;Node662 -->
<g id="edge24" class="edge"><title>Node661&#45;&gt;Node662</title>
<path fill="none" stroke="midnightblue" d="M746.896,-569.189C752.945,-566.469 758.75,-563.267 764,-559.5 791.945,-539.448 810.879,-501.661 818.599,-484.021"/>
<polygon fill="midnightblue" stroke="midnightblue" points="745.201,-566.098 737.232,-573.079 747.815,-572.591 745.201,-566.098"/>
</g>
<!-- Node663&#45;&gt;Node662 -->
<g id="edge26" class="edge"><title>Node663&#45;&gt;Node662</title>
<path fill="none" stroke="midnightblue" d="M745.592,-505.352C751.831,-503.076 758.04,-500.771 764,-498.5 775.9,-493.966 789.027,-488.614 799.825,-484.115"/>
<polygon fill="midnightblue" stroke="midnightblue" points="744.007,-502.203 735.793,-508.895 746.387,-508.786 744.007,-502.203"/>
</g>
<!-- Node664&#45;&gt;Node662 -->
<g id="edge28" class="edge"><title>Node664&#45;&gt;Node662</title>
<path fill="none" stroke="midnightblue" d="M754.444,-474.5C771.027,-474.5 787.253,-474.5 799.7,-474.5"/>
<polygon fill="midnightblue" stroke="midnightblue" points="754.103,-471 744.103,-474.5 754.103,-478 754.103,-471"/>
</g>
<!-- Node665&#45;&gt;Node662 -->
<g id="edge30" class="edge"><title>Node665&#45;&gt;Node662</title>
<path fill="none" stroke="midnightblue" d="M748.018,-443.555C753.443,-445.519 758.819,-447.513 764,-449.5 776.478,-454.285 790.23,-460.132 801.263,-464.968"/>
<polygon fill="midnightblue" stroke="midnightblue" points="748.825,-440.127 738.23,-440.062 746.471,-446.72 748.825,-440.127"/>
</g>
<!-- Node666&#45;&gt;Node662 -->
<g id="edge32" class="edge"><title>Node666&#45;&gt;Node662</title>
<path fill="none" stroke="midnightblue" d="M755.47,-384.107C758.433,-385.762 761.29,-387.556 764,-389.5 791.945,-409.552 810.879,-447.339 818.599,-464.979"/>
<polygon fill="midnightblue" stroke="midnightblue" points="756.822,-380.871 746.31,-379.55 753.703,-387.138 756.822,-380.871"/>
</g>
<!-- Node667&#45;&gt;Node662 -->
<g id="edge34" class="edge"><title>Node667&#45;&gt;Node662</title>
<path fill="none" stroke="midnightblue" d="M739.25,-326.472C748.215,-329.418 756.813,-333.602 764,-339.5 804.674,-372.883 817.768,-439.956 821.332,-464.883"/>
<polygon fill="midnightblue" stroke="midnightblue" points="739.998,-323.047 729.426,-323.737 738.121,-329.791 739.998,-323.047"/>
</g>
<!-- Node668&#45;&gt;Node662 -->
<g id="edge36" class="edge"><title>Node668&#45;&gt;Node662</title>
<path fill="none" stroke="midnightblue" d="M720.065,-283.292C735.547,-285.657 752.043,-290.828 764,-301.5 814.146,-346.258 821.357,-435.527 822.354,-464.892"/>
<polygon fill="midnightblue" stroke="midnightblue" points="720.438,-279.812 710.096,-282.114 719.616,-286.764 720.438,-279.812"/>
</g>
<!-- Node669&#45;&gt;Node662 -->
<g id="edge38" class="edge"><title>Node669&#45;&gt;Node662</title>
<path fill="none" stroke="midnightblue" d="M560.205,-660.993C622.086,-671.863 705.58,-675.169 764,-633.5 814.526,-597.461 821.504,-512.816 822.396,-484.171"/>
<polygon fill="midnightblue" stroke="midnightblue" points="560.549,-657.497 550.079,-659.113 559.272,-664.38 560.549,-657.497"/>
</g>
<!-- Node670&#45;&gt;Node662 -->
<g id="edge40" class="edge"><title>Node670&#45;&gt;Node662</title>
<path fill="none" stroke="midnightblue" d="M553.017,-602.408C563.994,-604.929 575.222,-607.091 586,-608.5 664.443,-618.757 697.809,-651.827 764,-608.5 807.964,-579.722 819.079,-509.871 821.723,-484.186"/>
<polygon fill="midnightblue" stroke="midnightblue" points="553.568,-598.941 543.027,-600.003 551.929,-605.746 553.568,-598.941"/>
</g>
<!-- Node671&#45;&gt;Node647 -->
<g id="edge42" class="edge"><title>Node671&#45;&gt;Node647</title>
<path fill="none" stroke="midnightblue" d="M307.344,-467.404C314.646,-510.949 338.18,-615.11 402,-669.5 409.077,-675.531 417.843,-679.678 426.818,-682.523"/>
<polygon fill="midnightblue" stroke="midnightblue" points="310.761,-466.601 305.758,-457.262 303.845,-467.682 310.761,-466.601"/>
</g>
<!-- Node671&#45;&gt;Node654 -->
<g id="edge47" class="edge"><title>Node671&#45;&gt;Node654</title>
<path fill="none" stroke="midnightblue" d="M323.996,-431.019C337.773,-418.317 355.575,-399.575 366,-379.5 399.391,-315.198 355.225,-275.834 402,-220.5 405.008,-216.942 408.504,-213.8 412.306,-211.026"/>
<polygon fill="midnightblue" stroke="midnightblue" points="321.568,-428.495 316.436,-437.764 326.228,-433.718 321.568,-428.495"/>
</g>
<!-- Node671&#45;&gt;Node655 -->
<g id="edge48" class="edge"><title>Node671&#45;&gt;Node655</title>
<path fill="none" stroke="midnightblue" d="M327.839,-432.615C347.281,-420.521 375.905,-403.411 402,-390.5 408.509,-387.279 415.452,-384.107 422.37,-381.1"/>
<polygon fill="midnightblue" stroke="midnightblue" points="325.951,-429.668 319.34,-437.947 329.671,-435.598 325.951,-429.668"/>
</g>
<!-- Node671&#45;&gt;Node656 -->
<g id="edge49" class="edge"><title>Node671&#45;&gt;Node656</title>
<path fill="none" stroke="midnightblue" d="M321.168,-430.066C333.838,-416.58 351.499,-397.27 366,-379.5 383.085,-358.563 380.221,-346.498 402,-330.5 407.182,-326.693 412.988,-323.435 419,-320.654"/>
<polygon fill="midnightblue" stroke="midnightblue" points="318.328,-427.975 313.998,-437.644 323.413,-432.786 318.328,-427.975"/>
</g>
<!-- Node671&#45;&gt;Node657 -->
<g id="edge50" class="edge"><title>Node671&#45;&gt;Node657</title>
<path fill="none" stroke="midnightblue" d="M322.786,-431.058C336.249,-418.139 354.194,-399.106 366,-379.5 390.152,-339.392 369.582,-314.28 402,-280.5 405.415,-276.941 409.314,-273.79 413.492,-271.002"/>
<polygon fill="midnightblue" stroke="midnightblue" points="320.368,-428.528 315.457,-437.916 325.15,-433.639 320.368,-428.528"/>
</g>
<!-- Node671&#45;&gt;Node658 -->
<g id="edge51" class="edge"><title>Node671&#45;&gt;Node658</title>
<path fill="none" stroke="midnightblue" d="M305.881,-467.081C310.379,-515.489 328.886,-641.63 402,-707.5 418.054,-721.963 443.739,-725.675 459.971,-726.487"/>
<polygon fill="midnightblue" stroke="midnightblue" points="309.361,-466.686 305.049,-457.008 302.384,-467.262 309.361,-466.686"/>
</g>
<!-- Node671&#45;&gt;Node660 -->
<g id="edge52" class="edge"><title>Node671&#45;&gt;Node660</title>
<path fill="none" stroke="midnightblue" d="M329.457,-462.242C348.837,-473.334 376.598,-488.461 402,-499.5 410.109,-503.024 418.889,-506.392 427.455,-509.452"/>
<polygon fill="midnightblue" stroke="midnightblue" points="331.073,-459.133 320.664,-457.156 327.568,-465.192 331.073,-459.133"/>
</g>
<!-- Node671&#45;&gt;Node669 -->
<g id="edge53" class="edge"><title>Node671&#45;&gt;Node669</title>
<path fill="none" stroke="midnightblue" d="M311.451,-466.894C324.351,-500.345 355.031,-569.172 402,-609.5 406.054,-612.981 410.568,-616.098 415.306,-618.88"/>
<polygon fill="midnightblue" stroke="midnightblue" points="314.667,-465.5 307.889,-457.357 308.109,-467.95 314.667,-465.5"/>
</g>
<!-- Node671&#45;&gt;Node670 -->
<g id="edge54" class="edge"><title>Node671&#45;&gt;Node670</title>
<path fill="none" stroke="midnightblue" d="M317.866,-465.214C335.219,-487.206 367.403,-524.714 402,-548.5 407.56,-552.322 413.665,-555.817 419.905,-558.97"/>
<polygon fill="midnightblue" stroke="midnightblue" points="320.46,-462.847 311.57,-457.084 314.925,-467.133 320.46,-462.847"/>
</g>
<!-- Node672 -->
<g id="node29" class="node"><title>Node672</title>
<g id="a_node29"><a xlink:href="test__heatshrink__dynamic_8c.html#ade6da42ddec3e9a2d8fe58597792b843" target="_top" xlink:title="encoder_poll_should\l_reject_nulls">
<polygon fill="white" stroke="black" points="423.5,-460.5 423.5,-490.5 528.5,-490.5 528.5,-460.5 423.5,-460.5"/>
<text text-anchor="start" x="431.5" y="-478.5" font-family="Helvetica,sans-Serif" font-size="10.00">encoder_poll_should</text>
<text text-anchor="middle" x="476" y="-467.5" font-family="Helvetica,sans-Serif" font-size="10.00">_reject_nulls</text>
</a>
</g>
</g>
<!-- Node671&#45;&gt;Node672 -->
<g id="edge43" class="edge"><title>Node671&#45;&gt;Node672</title>
<path fill="none" stroke="midnightblue" d="M373.013,-458.751C389.802,-461.509 407.494,-464.414 423.342,-467.017"/>
<polygon fill="midnightblue" stroke="midnightblue" points="373.135,-455.225 362.7,-457.058 372,-462.132 373.135,-455.225"/>
</g>
<!-- Node673 -->
<g id="node30" class="node"><title>Node673</title>
<g id="a_node30"><a xlink:href="test__heatshrink__dynamic_8c.html#aa662e805dae6d002db06dc962e7440f9" target="_top" xlink:title="encoder_poll_should\l_indicate_when_no_input\l_is_provided">
<polygon fill="white" stroke="black" points="413,-400 413,-441 539,-441 539,-400 413,-400"/>
<text text-anchor="start" x="421" y="-429" font-family="Helvetica,sans-Serif" font-size="10.00">encoder_poll_should</text>
<text text-anchor="start" x="421" y="-418" font-family="Helvetica,sans-Serif" font-size="10.00">_indicate_when_no_input</text>
<text text-anchor="middle" x="476" y="-407" font-family="Helvetica,sans-Serif" font-size="10.00">_is_provided</text>
</a>
</g>
</g>
<!-- Node671&#45;&gt;Node673 -->
<g id="edge45" class="edge"><title>Node671&#45;&gt;Node673</title>
<path fill="none" stroke="midnightblue" d="M374.644,-436.392C387.304,-434.387 400.423,-432.31 412.836,-430.344"/>
<polygon fill="midnightblue" stroke="midnightblue" points="373.941,-432.96 364.612,-437.981 375.036,-439.874 373.941,-432.96"/>
</g>
<!-- Node672&#45;&gt;Node651 -->
<g id="edge44" class="edge"><title>Node672&#45;&gt;Node651</title>
<path fill="none" stroke="midnightblue" d="M537.837,-460.695C542.368,-457.869 546.519,-454.505 550,-450.5 605.523,-386.62 526.828,-324.016 586,-263.5 602.828,-246.29 631.255,-242.91 651.236,-242.949"/>
<polygon fill="midnightblue" stroke="midnightblue" points="535.948,-457.734 528.732,-465.492 539.211,-463.927 535.948,-457.734"/>
</g>
<!-- Node673&#45;&gt;Node651 -->
<g id="edge46" class="edge"><title>Node673&#45;&gt;Node651</title>
<path fill="none" stroke="midnightblue" d="M547.194,-393.421C548.165,-392.48 549.102,-391.506 550,-390.5 589.061,-346.725 543.218,-303.645 586,-263.5 603.438,-247.136 631.465,-243.546 651.196,-243.305"/>
<polygon fill="midnightblue" stroke="midnightblue" points="544.651,-390.98 539.141,-400.029 549.092,-396.391 544.651,-390.98"/>
</g>
</g>
</svg>
