<?xml version="1.0" encoding="UTF-8" standalone="no"?>
<!DOCTYPE svg PUBLIC "-//W3C//DTD SVG 1.1//EN"
 "http://www.w3.org/Graphics/SVG/1.1/DTD/svg11.dtd">
<!-- Generated by graphviz version 2.38.0 (20140413.2041)
 -->
<!-- Title: st_flush_bit_buffer Pages: 1 -->
<svg width="747pt" height="907pt"
 viewBox="0.00 0.00 747.00 906.50" xmlns="http://www.w3.org/2000/svg" xmlns:xlink="http://www.w3.org/1999/xlink">
<g id="graph0" class="graph" transform="scale(1 1) rotate(0) translate(4 902.5)">
<title>st_flush_bit_buffer</title>
<polygon fill="white" stroke="none" points="-4,4 -4,-902.5 743,-902.5 743,4 -4,4"/>
<!-- Node742 -->
<g id="node1" class="node"><title>Node742</title>
<polygon fill="#bfbfbf" stroke="black" points="0,-503.5 0,-522.5 97,-522.5 97,-503.5 0,-503.5"/>
<text text-anchor="middle" x="48.5" y="-510.5" font-family="Helvetica,sans-Serif" font-size="10.00">st_flush_bit_buffer</text>
</g>
<!-- Node743 -->
<g id="node2" class="node"><title>Node743</title>
<g id="a_node2"><a xlink:href="heatshrink__encoder_8h.html#a7de708b2cb0d016d9183b0addf6126f3" target="_top" xlink:title="heatshrink_encoder_poll">
<polygon fill="white" stroke="black" points="134.5,-457.5 134.5,-476.5 256.5,-476.5 256.5,-457.5 134.5,-457.5"/>
<text text-anchor="middle" x="195.5" y="-464.5" font-family="Helvetica,sans-Serif" font-size="10.00">heatshrink_encoder_poll</text>
</a>
</g>
</g>
<!-- Node742&#45;&gt;Node743 -->
<g id="edge1" class="edge"><title>Node742&#45;&gt;Node743</title>
<path fill="none" stroke="midnightblue" d="M89.3189,-500.368C113.066,-492.834 142.729,-483.424 164.494,-476.519"/>
<polygon fill="midnightblue" stroke="midnightblue" points="88.0176,-497.109 79.5441,-503.469 90.1343,-503.781 88.0176,-497.109"/>
</g>
<!-- Node767 -->
<g id="node26" class="node"><title>Node767</title>
<g id="a_node26"><a xlink:href="heatshrink__encoder_8h.html#aa1a92f13d1ef65546bb40ece94b2066e" target="_top" xlink:title="heatshrink_encoder_sink">
<polygon fill="white" stroke="black" points="133,-528.5 133,-547.5 258,-547.5 258,-528.5 133,-528.5"/>
<text text-anchor="middle" x="195.5" y="-535.5" font-family="Helvetica,sans-Serif" font-size="10.00">heatshrink_encoder_sink</text>
</a>
</g>
</g>
<!-- Node742&#45;&gt;Node767 -->
<g id="edge38" class="edge"><title>Node742&#45;&gt;Node767</title>
<path fill="none" stroke="midnightblue" d="M107.344,-522.973C117.908,-524.794 128.904,-526.69 139.385,-528.497"/>
<polygon fill="midnightblue" stroke="midnightblue" points="107.83,-519.505 97.3803,-521.255 106.64,-526.403 107.83,-519.505"/>
</g>
<!-- Node744 -->
<g id="node3" class="node"><title>Node744</title>
<g id="a_node3"><a xlink:href="heatshrink_8c.html#a593e86bba4eca0be280740fcf509bc12" target="_top" xlink:title="encoder_sink_read">
<polygon fill="white" stroke="black" points="319,-161.5 319,-180.5 417,-180.5 417,-161.5 319,-161.5"/>
<text text-anchor="middle" x="368" y="-168.5" font-family="Helvetica,sans-Serif" font-size="10.00">encoder_sink_read</text>
</a>
</g>
</g>
<!-- Node743&#45;&gt;Node744 -->
<g id="edge2" class="edge"><title>Node743&#45;&gt;Node744</title>
<path fill="none" stroke="midnightblue" d="M197.382,-447.189C200.747,-396.463 216.881,-260.911 294,-190 300.941,-183.618 309.752,-179.323 318.832,-176.446"/>
<polygon fill="midnightblue" stroke="midnightblue" points="193.874,-447.247 196.806,-457.428 200.863,-447.641 193.874,-447.247"/>
</g>
<!-- Node747 -->
<g id="node6" class="node"><title>Node747</title>
<g id="a_node6"><a xlink:href="test__heatshrink__dynamic_8c.html#ade6da42ddec3e9a2d8fe58597792b843" target="_top" xlink:title="encoder_poll_should\l_reject_nulls">
<polygon fill="white" stroke="black" points="315.5,-430 315.5,-460 420.5,-460 420.5,-430 315.5,-430"/>
<text text-anchor="start" x="323.5" y="-448" font-family="Helvetica,sans-Serif" font-size="10.00">encoder_poll_should</text>
<text text-anchor="middle" x="368" y="-437" font-family="Helvetica,sans-Serif" font-size="10.00">_reject_nulls</text>
</a>
</g>
</g>
<!-- Node743&#45;&gt;Node747 -->
<g id="edge5" class="edge"><title>Node743&#45;&gt;Node747</title>
<path fill="none" stroke="midnightblue" d="M266.642,-457.949C282.944,-455.846 300.008,-453.644 315.345,-451.665"/>
<polygon fill="midnightblue" stroke="midnightblue" points="266.082,-454.493 256.612,-459.244 266.978,-461.435 266.082,-454.493"/>
</g>
<!-- Node749 -->
<g id="node8" class="node"><title>Node749</title>
<g id="a_node8"><a xlink:href="test__heatshrink__dynamic_8c.html#aa662e805dae6d002db06dc962e7440f9" target="_top" xlink:title="encoder_poll_should\l_indicate_when_no_input\l_is_provided">
<polygon fill="white" stroke="black" points="305,-369.5 305,-410.5 431,-410.5 431,-369.5 305,-369.5"/>
<text text-anchor="start" x="313" y="-398.5" font-family="Helvetica,sans-Serif" font-size="10.00">encoder_poll_should</text>
<text text-anchor="start" x="313" y="-387.5" font-family="Helvetica,sans-Serif" font-size="10.00">_indicate_when_no_input</text>
<text text-anchor="middle" x="368" y="-376.5" font-family="Helvetica,sans-Serif" font-size="10.00">_is_provided</text>
</a>
</g>
</g>
<!-- Node743&#45;&gt;Node749 -->
<g id="edge7" class="edge"><title>Node743&#45;&gt;Node749</title>
<path fill="none" stroke="midnightblue" d="M224.567,-452.925C243.939,-443.346 270.363,-430.543 294,-420 301.008,-416.874 308.443,-413.681 315.783,-410.598"/>
<polygon fill="midnightblue" stroke="midnightblue" points="222.8,-449.895 215.4,-457.478 225.913,-456.164 222.8,-449.895"/>
</g>
<!-- Node750 -->
<g id="node9" class="node"><title>Node750</title>
<g id="a_node9"><a xlink:href="test__heatshrink__dynamic_8c.html#a5339595930b85317e810fcf251b86351" target="_top" xlink:title="encoder_should_emit\l_data_without_repetitions\l_as_literal_sequence">
<polygon fill="white" stroke="black" points="304,-687.5 304,-728.5 432,-728.5 432,-687.5 304,-687.5"/>
<text text-anchor="start" x="312" y="-716.5" font-family="Helvetica,sans-Serif" font-size="10.00">encoder_should_emit</text>
<text text-anchor="start" x="312" y="-705.5" font-family="Helvetica,sans-Serif" font-size="10.00">_data_without_repetitions</text>
<text text-anchor="middle" x="368" y="-694.5" font-family="Helvetica,sans-Serif" font-size="10.00">_as_literal_sequence</text>
</a>
</g>
</g>
<!-- Node743&#45;&gt;Node750 -->
<g id="edge9" class="edge"><title>Node743&#45;&gt;Node750</title>
<path fill="none" stroke="midnightblue" d="M221.416,-482.33C234.216,-491.454 248.977,-504.144 258,-519 295.611,-580.929 247.225,-622.666 294,-678 297.008,-681.558 300.504,-684.7 304.306,-687.474"/>
<polygon fill="midnightblue" stroke="midnightblue" points="223.204,-479.314 212.963,-476.6 219.277,-485.108 223.204,-479.314"/>
</g>
<!-- Node751 -->
<g id="node10" class="node"><title>Node751</title>
<g id="a_node10"><a xlink:href="test__heatshrink__dynamic_8c.html#ae27157a664552fa0744d095239ee0d88" target="_top" xlink:title="encoder_should_emit\l_series_of_same_byte\l_as_literal_then_backref">
<polygon fill="white" stroke="black" points="307,-627.5 307,-668.5 429,-668.5 429,-627.5 307,-627.5"/>
<text text-anchor="start" x="315" y="-656.5" font-family="Helvetica,sans-Serif" font-size="10.00">encoder_should_emit</text>
<text text-anchor="start" x="315" y="-645.5" font-family="Helvetica,sans-Serif" font-size="10.00">_series_of_same_byte</text>
<text text-anchor="middle" x="368" y="-634.5" font-family="Helvetica,sans-Serif" font-size="10.00">_as_literal_then_backref</text>
</a>
</g>
</g>
<!-- Node743&#45;&gt;Node751 -->
<g id="edge11" class="edge"><title>Node743&#45;&gt;Node751</title>
<path fill="none" stroke="midnightblue" d="M220.176,-482.456C232.859,-491.755 247.906,-504.572 258,-519 284.6,-557.02 262.012,-583.387 294,-617 297.797,-620.99 302.189,-624.489 306.899,-627.555"/>
<polygon fill="midnightblue" stroke="midnightblue" points="222.055,-479.498 211.863,-476.603 218.025,-485.222 222.055,-479.498"/>
</g>
<!-- Node752 -->
<g id="node11" class="node"><title>Node752</title>
<g id="a_node11"><a xlink:href="test__heatshrink__dynamic_8c.html#a2d84dd546b011bb6cfc3b1e9a9a5616b" target="_top" xlink:title="encoder_poll_should\l_detect_repeated_substring">
<polygon fill="white" stroke="black" points="299.5,-578 299.5,-608 436.5,-608 436.5,-578 299.5,-578"/>
<text text-anchor="start" x="307.5" y="-596" font-family="Helvetica,sans-Serif" font-size="10.00">encoder_poll_should</text>
<text text-anchor="middle" x="368" y="-585" font-family="Helvetica,sans-Serif" font-size="10.00">_detect_repeated_substring</text>
</a>
</g>
</g>
<!-- Node743&#45;&gt;Node752 -->
<g id="edge13" class="edge"><title>Node743&#45;&gt;Node752</title>
<path fill="none" stroke="midnightblue" d="M217.513,-482.737C229.928,-492.514 245.593,-505.716 258,-519 276.445,-538.749 272.221,-552.002 294,-568 299.182,-571.807 304.988,-575.065 311,-577.846"/>
<polygon fill="midnightblue" stroke="midnightblue" points="219.569,-479.903 209.517,-476.556 215.288,-485.441 219.569,-479.903"/>
</g>
<!-- Node753 -->
<g id="node12" class="node"><title>Node753</title>
<g id="a_node12"><a xlink:href="test__heatshrink__dynamic_8c.html#ab068727669a416029bacc708b2aac5ac" target="_top" xlink:title="encoder_poll_should\l_detect_repeated_substring\l_and_preserve_trailing_literal">
<polygon fill="white" stroke="black" points="296.5,-517.5 296.5,-558.5 439.5,-558.5 439.5,-517.5 296.5,-517.5"/>
<text text-anchor="start" x="304.5" y="-546.5" font-family="Helvetica,sans-Serif" font-size="10.00">encoder_poll_should</text>
<text text-anchor="start" x="304.5" y="-535.5" font-family="Helvetica,sans-Serif" font-size="10.00">_detect_repeated_substring</text>
<text text-anchor="middle" x="368" y="-524.5" font-family="Helvetica,sans-Serif" font-size="10.00">_and_preserve_trailing_literal</text>
</a>
</g>
</g>
<!-- Node743&#45;&gt;Node753 -->
<g id="edge15" class="edge"><title>Node743&#45;&gt;Node753</title>
<path fill="none" stroke="midnightblue" d="M228.712,-480.623C247.698,-488.633 272.197,-498.936 294,-508 301.338,-511.051 309.099,-514.259 316.713,-517.397"/>
<polygon fill="midnightblue" stroke="midnightblue" points="229.904,-477.327 219.33,-476.662 227.181,-483.776 229.904,-477.327"/>
</g>
<!-- Node754 -->
<g id="node13" class="node"><title>Node754</title>
<g id="a_node13"><a xlink:href="test__heatshrink__dynamic_8c.html#a6627d0e00f7e636ae9294cc6255c7ffd" target="_top" xlink:title="gen">
<polygon fill="white" stroke="black" points="352,-479.5 352,-498.5 384,-498.5 384,-479.5 352,-479.5"/>
<text text-anchor="middle" x="368" y="-486.5" font-family="Helvetica,sans-Serif" font-size="10.00">gen</text>
</a>
</g>
</g>
<!-- Node743&#45;&gt;Node754 -->
<g id="edge17" class="edge"><title>Node743&#45;&gt;Node754</title>
<path fill="none" stroke="midnightblue" d="M266.7,-476.058C298.145,-480.115 332.411,-484.537 351.647,-487.019"/>
<polygon fill="midnightblue" stroke="midnightblue" points="266.978,-472.565 256.612,-474.756 266.082,-479.507 266.978,-472.565"/>
</g>
<!-- Node756 -->
<g id="node15" class="node"><title>Node756</title>
<g id="a_node15"><a xlink:href="test__heatshrink__dynamic_8c.html#ab9096be17a9dc8f301673949558e5bd6" target="_top" xlink:title="compress_and_expand\l_and_check">
<polygon fill="white" stroke="black" points="309.5,-200 309.5,-230 426.5,-230 426.5,-200 309.5,-200"/>
<text text-anchor="start" x="317.5" y="-218" font-family="Helvetica,sans-Serif" font-size="10.00">compress_and_expand</text>
<text text-anchor="middle" x="368" y="-207" font-family="Helvetica,sans-Serif" font-size="10.00">_and_check</text>
</a>
</g>
</g>
<!-- Node743&#45;&gt;Node756 -->
<g id="edge19" class="edge"><title>Node743&#45;&gt;Node756</title>
<path fill="none" stroke="midnightblue" d="M199.467,-447.291C207.058,-403.665 231.208,-298.207 294,-240 298.519,-235.811 303.771,-232.32 309.347,-229.411"/>
<polygon fill="midnightblue" stroke="midnightblue" points="196.006,-446.772 197.847,-457.206 202.914,-447.901 196.006,-446.772"/>
</g>
<!-- Node765 -->
<g id="node24" class="node"><title>Node765</title>
<g id="a_node24"><a xlink:href="test__heatshrink__dynamic_8c.html#a9a102029b8375d4050406a2814f390ac" target="_top" xlink:title="data_without_duplication\l_should_match_with_absurdly\l_tiny_buffers">
<polygon fill="white" stroke="black" points="294,-309.5 294,-350.5 442,-350.5 442,-309.5 294,-309.5"/>
<text text-anchor="start" x="302" y="-338.5" font-family="Helvetica,sans-Serif" font-size="10.00">data_without_duplication</text>
<text text-anchor="start" x="302" y="-327.5" font-family="Helvetica,sans-Serif" font-size="10.00">_should_match_with_absurdly</text>
<text text-anchor="middle" x="368" y="-316.5" font-family="Helvetica,sans-Serif" font-size="10.00">_tiny_buffers</text>
</a>
</g>
</g>
<!-- Node743&#45;&gt;Node765 -->
<g id="edge34" class="edge"><title>Node743&#45;&gt;Node765</title>
<path fill="none" stroke="midnightblue" d="M208.845,-449.138C225.715,-425.87 258.015,-385.197 294,-360 298.939,-356.542 304.336,-353.386 309.889,-350.531"/>
<polygon fill="midnightblue" stroke="midnightblue" points="205.908,-447.228 202.969,-457.407 211.615,-451.282 205.908,-447.228"/>
</g>
<!-- Node766 -->
<g id="node25" class="node"><title>Node766</title>
<g id="a_node25"><a xlink:href="test__heatshrink__dynamic_8c.html#acd64db79d79999a7c5436d35b74a7f40" target="_top" xlink:title="data_with_simple_repetition\l_should_match_with_absurdly\l_tiny_buffers">
<polygon fill="white" stroke="black" points="294,-249.5 294,-290.5 442,-290.5 442,-249.5 294,-249.5"/>
<text text-anchor="start" x="302" y="-278.5" font-family="Helvetica,sans-Serif" font-size="10.00">data_with_simple_repetition</text>
<text text-anchor="start" x="302" y="-267.5" font-family="Helvetica,sans-Serif" font-size="10.00">_should_match_with_absurdly</text>
<text text-anchor="middle" x="368" y="-256.5" font-family="Helvetica,sans-Serif" font-size="10.00">_tiny_buffers</text>
</a>
</g>
</g>
<!-- Node743&#45;&gt;Node766 -->
<g id="edge36" class="edge"><title>Node743&#45;&gt;Node766</title>
<path fill="none" stroke="midnightblue" d="M203.106,-447.498C215.644,-413.199 246.01,-341.763 294,-300 298.031,-296.492 302.528,-293.356 307.256,-290.561"/>
<polygon fill="midnightblue" stroke="midnightblue" points="199.693,-446.65 199.661,-457.245 206.293,-448.982 199.693,-446.65"/>
</g>
<!-- Node745 -->
<g id="node4" class="node"><title>Node745</title>
<g id="a_node4"><a xlink:href="heatshrink_8c.html#a37f19023beced8a782d3051bfd7a0bcb" target="_top" xlink:title="encode">
<polygon fill="white" stroke="black" points="543,-0.5 543,-19.5 591,-19.5 591,-0.5 543,-0.5"/>
<text text-anchor="middle" x="567" y="-7.5" font-family="Helvetica,sans-Serif" font-size="10.00">encode</text>
</a>
</g>
</g>
<!-- Node744&#45;&gt;Node745 -->
<g id="edge3" class="edge"><title>Node744&#45;&gt;Node745</title>
<path fill="none" stroke="midnightblue" d="M378.043,-151.879C393.759,-120.855 429.165,-59.9161 478,-29 497.545,-16.6267 523.903,-12.2097 542.664,-10.685"/>
<polygon fill="midnightblue" stroke="midnightblue" points="374.748,-150.648 373.477,-161.167 381.03,-153.736 374.748,-150.648"/>
</g>
<!-- Node746 -->
<g id="node5" class="node"><title>Node746</title>
<g id="a_node5"><a xlink:href="heatshrink_8c.html#a3c04138a5bfe5d72780bb7e82a18e627" target="_top" xlink:title="main">
<polygon fill="white" stroke="black" points="696.5,-0.5 696.5,-19.5 734.5,-19.5 734.5,-0.5 696.5,-0.5"/>
<text text-anchor="middle" x="715.5" y="-7.5" font-family="Helvetica,sans-Serif" font-size="10.00">main</text>
</a>
</g>
</g>
<!-- Node745&#45;&gt;Node746 -->
<g id="edge4" class="edge"><title>Node745&#45;&gt;Node746</title>
<path fill="none" stroke="midnightblue" d="M601.47,-10C630.981,-10 672.857,-10 696.475,-10"/>
<polygon fill="midnightblue" stroke="midnightblue" points="601.213,-6.5001 591.213,-10 601.213,-13.5001 601.213,-6.5001"/>
</g>
<!-- Node748 -->
<g id="node7" class="node"><title>Node748</title>
<g id="a_node7"><a xlink:href="test__heatshrink__dynamic_8c.html#ac4a70b7ac22f00448c1d17d2b29a1359" target="_top" xlink:title="SUITE">
<polygon fill="white" stroke="black" points="543.5,-638.5 543.5,-657.5 590.5,-657.5 590.5,-638.5 543.5,-638.5"/>
<text text-anchor="middle" x="567" y="-645.5" font-family="Helvetica,sans-Serif" font-size="10.00">SUITE</text>
</a>
</g>
</g>
<!-- Node747&#45;&gt;Node748 -->
<g id="edge6" class="edge"><title>Node747&#45;&gt;Node748</title>
<path fill="none" stroke="midnightblue" d="M429.681,-462.294C434.026,-464.569 438.19,-467.126 442,-470 474.475,-494.491 540.426,-604.374 560.243,-638.115"/>
<polygon fill="midnightblue" stroke="midnightblue" points="431.104,-459.095 420.564,-458.013 428.129,-465.432 431.104,-459.095"/>
</g>
<!-- Node749&#45;&gt;Node748 -->
<g id="edge8" class="edge"><title>Node749&#45;&gt;Node748</title>
<path fill="none" stroke="midnightblue" d="M438.603,-416.84C439.777,-417.856 440.911,-418.909 442,-420 471.857,-449.904 458.684,-470.416 478,-508 504.377,-559.322 543.583,-616.358 559.212,-638.497"/>
<polygon fill="midnightblue" stroke="midnightblue" points="440.454,-413.853 430.353,-410.653 436.254,-419.453 440.454,-413.853"/>
</g>
<!-- Node750&#45;&gt;Node748 -->
<g id="edge10" class="edge"><title>Node750&#45;&gt;Node748</title>
<path fill="none" stroke="midnightblue" d="M442.114,-685.732C477.975,-674.81 518.653,-662.42 543.309,-654.911"/>
<polygon fill="midnightblue" stroke="midnightblue" points="440.691,-682.506 432.145,-688.768 442.731,-689.203 440.691,-682.506"/>
</g>
<!-- Node751&#45;&gt;Node748 -->
<g id="edge12" class="edge"><title>Node751&#45;&gt;Node748</title>
<path fill="none" stroke="midnightblue" d="M439.282,-648C475.702,-648 517.743,-648 543.076,-648"/>
<polygon fill="midnightblue" stroke="midnightblue" points="439.177,-644.5 429.177,-648 439.177,-651.5 439.177,-644.5"/>
</g>
<!-- Node752&#45;&gt;Node748 -->
<g id="edge14" class="edge"><title>Node752&#45;&gt;Node748</title>
<path fill="none" stroke="midnightblue" d="M432.786,-610.808C470.694,-621.392 516.468,-634.171 543.293,-641.661"/>
<polygon fill="midnightblue" stroke="midnightblue" points="433.404,-607.347 422.831,-608.029 431.522,-614.089 433.404,-607.347"/>
</g>
<!-- Node753&#45;&gt;Node748 -->
<g id="edge16" class="edge"><title>Node753&#45;&gt;Node748</title>
<path fill="none" stroke="midnightblue" d="M431.311,-562.695C434.959,-564.422 438.546,-566.196 442,-568 484.235,-590.066 530.556,-622.299 552.73,-638.276"/>
<polygon fill="midnightblue" stroke="midnightblue" points="432.707,-559.484 422.157,-558.504 429.793,-565.849 432.707,-559.484"/>
</g>
<!-- Node755 -->
<g id="node14" class="node"><title>Node755</title>
<g id="a_node14"><a xlink:href="test__heatshrink__dynamic_8c.html#adc66afa12a5eaae0cd12d5cc497f0f67" target="_top" xlink:title="SUITE">
<polygon fill="white" stroke="black" points="543.5,-479.5 543.5,-498.5 590.5,-498.5 590.5,-479.5 543.5,-479.5"/>
<text text-anchor="middle" x="567" y="-486.5" font-family="Helvetica,sans-Serif" font-size="10.00">SUITE</text>
</a>
</g>
</g>
<!-- Node754&#45;&gt;Node755 -->
<g id="edge18" class="edge"><title>Node754&#45;&gt;Node755</title>
<path fill="none" stroke="midnightblue" d="M394.548,-489C433.343,-489 506.494,-489 543.436,-489"/>
<polygon fill="midnightblue" stroke="midnightblue" points="394.131,-485.5 384.131,-489 394.131,-492.5 394.131,-485.5"/>
</g>
<!-- Node757 -->
<g id="node16" class="node"><title>Node757</title>
<g id="a_node16"><a xlink:href="test__heatshrink__dynamic_8c.html#a9d63746ee6a963338d09b8a19da82529" target="_top" xlink:title="data_without_duplication\l_should_match">
<polygon fill="white" stroke="black" points="505,-39 505,-69 629,-69 629,-39 505,-39"/>
<text text-anchor="start" x="513" y="-57" font-family="Helvetica,sans-Serif" font-size="10.00">data_without_duplication</text>
<text text-anchor="middle" x="567" y="-46" font-family="Helvetica,sans-Serif" font-size="10.00">_should_match</text>
</a>
</g>
</g>
<!-- Node756&#45;&gt;Node757 -->
<g id="edge20" class="edge"><title>Node756&#45;&gt;Node757</title>
<path fill="none" stroke="midnightblue" d="M435.284,-195.796C437.676,-194.031 439.93,-192.104 442,-190 478.372,-153.029 440.658,-114.991 478,-79 485.433,-71.8358 494.765,-66.698 504.552,-63.0193"/>
<polygon fill="midnightblue" stroke="midnightblue" points="433.298,-192.91 426.692,-201.193 437.022,-198.837 433.298,-192.91"/>
</g>
<!-- Node759 -->
<g id="node18" class="node"><title>Node759</title>
<g id="a_node18"><a xlink:href="test__heatshrink__dynamic_8c.html#ae9d1425d6c89a652b9df2b4ddc7ac2a2" target="_top" xlink:title="data_with_simple_repetition\l_should_compress_and_decompress\l_properly">
<polygon fill="white" stroke="black" points="478,-324.5 478,-365.5 656,-365.5 656,-324.5 478,-324.5"/>
<text text-anchor="start" x="486" y="-353.5" font-family="Helvetica,sans-Serif" font-size="10.00">data_with_simple_repetition</text>
<text text-anchor="start" x="486" y="-342.5" font-family="Helvetica,sans-Serif" font-size="10.00">_should_compress_and_decompress</text>
<text text-anchor="middle" x="567" y="-331.5" font-family="Helvetica,sans-Serif" font-size="10.00">_properly</text>
</a>
</g>
</g>
<!-- Node756&#45;&gt;Node759 -->
<g id="edge22" class="edge"><title>Node756&#45;&gt;Node759</title>
<path fill="none" stroke="midnightblue" d="M435.72,-235.113C437.92,-236.627 440.024,-238.253 442,-240 469.401,-264.226 450.706,-289.654 478,-314 482.352,-317.882 487.22,-321.284 492.373,-324.267"/>
<polygon fill="midnightblue" stroke="midnightblue" points="437.205,-231.924 426.822,-229.816 433.624,-237.939 437.205,-231.924"/>
</g>
<!-- Node760 -->
<g id="node19" class="node"><title>Node760</title>
<g id="a_node19"><a xlink:href="test__heatshrink__dynamic_8c.html#a60c0e0c5bbb9715c7932ee82e706752d" target="_top" xlink:title="pseudorandom_data_should\l_match">
<polygon fill="white" stroke="black" points="498,-275 498,-305 636,-305 636,-275 498,-275"/>
<text text-anchor="start" x="506" y="-293" font-family="Helvetica,sans-Serif" font-size="10.00">pseudorandom_data_should</text>
<text text-anchor="middle" x="567" y="-282" font-family="Helvetica,sans-Serif" font-size="10.00">_match</text>
</a>
</g>
</g>
<!-- Node756&#45;&gt;Node760 -->
<g id="edge24" class="edge"><title>Node756&#45;&gt;Node760</title>
<path fill="none" stroke="midnightblue" d="M428.686,-233.892C433.255,-235.806 437.742,-237.845 442,-240 459.381,-248.795 460.391,-256.67 478,-265 485.896,-268.736 494.461,-272.02 503.044,-274.875"/>
<polygon fill="midnightblue" stroke="midnightblue" points="429.824,-230.578 419.238,-230.142 427.241,-237.084 429.824,-230.578"/>
</g>
<!-- Node761 -->
<g id="node20" class="node"><title>Node761</title>
<g id="a_node20"><a xlink:href="test__heatshrink__dynamic_8c.html#a20e1a72bba941f0c602b93b53d32d5db" target="_top" xlink:title="small_input_buffer\l_should_not_impact_decoder\l_correctness">
<polygon fill="white" stroke="black" points="495.5,-214.5 495.5,-255.5 638.5,-255.5 638.5,-214.5 495.5,-214.5"/>
<text text-anchor="start" x="503.5" y="-243.5" font-family="Helvetica,sans-Serif" font-size="10.00">small_input_buffer</text>
<text text-anchor="start" x="503.5" y="-232.5" font-family="Helvetica,sans-Serif" font-size="10.00">_should_not_impact_decoder</text>
<text text-anchor="middle" x="567" y="-221.5" font-family="Helvetica,sans-Serif" font-size="10.00">_correctness</text>
</a>
</g>
</g>
<!-- Node756&#45;&gt;Node761 -->
<g id="edge26" class="edge"><title>Node756&#45;&gt;Node761</title>
<path fill="none" stroke="midnightblue" d="M436.576,-221.86C455.586,-223.79 476.307,-225.894 495.485,-227.841"/>
<polygon fill="midnightblue" stroke="midnightblue" points="436.813,-218.367 426.51,-220.839 436.105,-225.331 436.813,-218.367"/>
</g>
<!-- Node762 -->
<g id="node21" class="node"><title>Node762</title>
<g id="a_node21"><a xlink:href="test__heatshrink__dynamic_8c.html#a462faeb904a3de1b1e009a04f7d171d8" target="_top" xlink:title="regression_backreference\l_counters_should_not_roll_over">
<polygon fill="white" stroke="black" points="490,-165 490,-195 644,-195 644,-165 490,-165"/>
<text text-anchor="start" x="498" y="-183" font-family="Helvetica,sans-Serif" font-size="10.00">regression_backreference</text>
<text text-anchor="middle" x="567" y="-172" font-family="Helvetica,sans-Serif" font-size="10.00">_counters_should_not_roll_over</text>
</a>
</g>
</g>
<!-- Node756&#45;&gt;Node762 -->
<g id="edge28" class="edge"><title>Node756&#45;&gt;Node762</title>
<path fill="none" stroke="midnightblue" d="M436.434,-203.019C453.596,-199.97 472.159,-196.672 489.727,-193.551"/>
<polygon fill="midnightblue" stroke="midnightblue" points="435.744,-199.587 426.51,-204.782 436.968,-206.479 435.744,-199.587"/>
</g>
<!-- Node763 -->
<g id="node22" class="node"><title>Node763</title>
<g id="a_node22"><a xlink:href="test__heatshrink__dynamic_8c.html#a2ed8ea21768d114fa96b07eb58475663" target="_top" xlink:title="regression_index_fail">
<polygon fill="white" stroke="black" points="513,-126.5 513,-145.5 621,-145.5 621,-126.5 513,-126.5"/>
<text text-anchor="middle" x="567" y="-133.5" font-family="Helvetica,sans-Serif" font-size="10.00">regression_index_fail</text>
</a>
</g>
</g>
<!-- Node756&#45;&gt;Node763 -->
<g id="edge30" class="edge"><title>Node756&#45;&gt;Node763</title>
<path fill="none" stroke="midnightblue" d="M431.395,-195.781C435.064,-193.995 438.629,-192.07 442,-190 461.017,-178.324 458.331,-165.541 478,-155 488.608,-149.315 500.795,-145.331 512.653,-142.539"/>
<polygon fill="midnightblue" stroke="midnightblue" points="429.808,-192.657 422.111,-199.938 432.668,-199.045 429.808,-192.657"/>
</g>
<!-- Node764 -->
<g id="node23" class="node"><title>Node764</title>
<g id="a_node23"><a xlink:href="test__heatshrink__dynamic_8c.html#a1bfe72da903d55a8610433a4f2a60d43" target="_top" xlink:title="sixty_four_k">
<polygon fill="white" stroke="black" points="532,-88.5 532,-107.5 602,-107.5 602,-88.5 532,-88.5"/>
<text text-anchor="middle" x="567" y="-95.5" font-family="Helvetica,sans-Serif" font-size="10.00">sixty_four_k</text>
</a>
</g>
</g>
<!-- Node756&#45;&gt;Node764 -->
<g id="edge32" class="edge"><title>Node756&#45;&gt;Node764</title>
<path fill="none" stroke="midnightblue" d="M435.708,-194.873C437.912,-193.363 440.019,-191.742 442,-190 469.166,-166.111 449.481,-139.255 478,-117 493.156,-105.173 514.063,-100.325 531.696,-98.4795"/>
<polygon fill="midnightblue" stroke="midnightblue" points="433.614,-192.046 426.8,-200.159 437.186,-198.066 433.614,-192.046"/>
</g>
<!-- Node758 -->
<g id="node17" class="node"><title>Node758</title>
<g id="a_node17"><a xlink:href="test__heatshrink__dynamic_8c.html#a2f157eb23cb17a496326c14e12933b3b" target="_top" xlink:title="SUITE">
<polygon fill="white" stroke="black" points="692,-225.5 692,-244.5 739,-244.5 739,-225.5 692,-225.5"/>
<text text-anchor="middle" x="715.5" y="-232.5" font-family="Helvetica,sans-Serif" font-size="10.00">SUITE</text>
</a>
</g>
</g>
<!-- Node757&#45;&gt;Node758 -->
<g id="edge21" class="edge"><title>Node757&#45;&gt;Node758</title>
<path fill="none" stroke="midnightblue" d="M638.663,-67.367C644.977,-70.4769 650.899,-74.3005 656,-79 700.463,-119.959 711.317,-198.017 713.805,-225.298"/>
<polygon fill="midnightblue" stroke="midnightblue" points="639.752,-64.0258 629.182,-63.3026 636.994,-70.4596 639.752,-64.0258"/>
</g>
<!-- Node759&#45;&gt;Node758 -->
<g id="edge23" class="edge"><title>Node759&#45;&gt;Node758</title>
<path fill="none" stroke="midnightblue" d="M647.616,-319.572C650.521,-317.828 653.329,-315.973 656,-314 681.81,-294.941 701.261,-261.27 709.773,-244.727"/>
<polygon fill="midnightblue" stroke="midnightblue" points="645.74,-316.609 638.647,-324.478 649.1,-322.75 645.74,-316.609"/>
</g>
<!-- Node760&#45;&gt;Node758 -->
<g id="edge25" class="edge"><title>Node760&#45;&gt;Node758</title>
<path fill="none" stroke="midnightblue" d="M636.823,-271.871C643.362,-269.723 649.845,-267.425 656,-265 670.655,-259.226 686.509,-250.959 698.012,-244.565"/>
<polygon fill="midnightblue" stroke="midnightblue" points="635.708,-268.552 627.231,-274.908 637.821,-275.226 635.708,-268.552"/>
</g>
<!-- Node761&#45;&gt;Node758 -->
<g id="edge27" class="edge"><title>Node761&#45;&gt;Node758</title>
<path fill="none" stroke="midnightblue" d="M649.08,-235C664.854,-235 680.138,-235 691.96,-235"/>
<polygon fill="midnightblue" stroke="midnightblue" points="648.675,-231.5 638.675,-235 648.675,-238.5 648.675,-231.5"/>
</g>
<!-- Node762&#45;&gt;Node758 -->
<g id="edge29" class="edge"><title>Node762&#45;&gt;Node758</title>
<path fill="none" stroke="midnightblue" d="M636.823,-198.129C643.362,-200.277 649.845,-202.575 656,-205 670.655,-210.774 686.509,-219.041 698.012,-225.435"/>
<polygon fill="midnightblue" stroke="midnightblue" points="637.821,-194.774 627.231,-195.092 635.708,-201.448 637.821,-194.774"/>
</g>
<!-- Node763&#45;&gt;Node758 -->
<g id="edge31" class="edge"><title>Node763&#45;&gt;Node758</title>
<path fill="none" stroke="midnightblue" d="M630.845,-143.652C639.718,-146.385 648.395,-150.061 656,-155 683.416,-172.807 702.361,-208.249 710.307,-225.34"/>
<polygon fill="midnightblue" stroke="midnightblue" points="631.748,-140.271 621.181,-141.043 629.923,-147.029 631.748,-140.271"/>
</g>
<!-- Node764&#45;&gt;Node758 -->
<g id="edge33" class="edge"><title>Node764&#45;&gt;Node758</title>
<path fill="none" stroke="midnightblue" d="M612.497,-99.8748C627.563,-102.404 643.676,-107.403 656,-117 692.443,-145.377 707.798,-202.441 712.654,-225.252"/>
<polygon fill="midnightblue" stroke="midnightblue" points="612.674,-96.3668 602.294,-98.4924 611.734,-103.303 612.674,-96.3668"/>
</g>
<!-- Node765&#45;&gt;Node758 -->
<g id="edge35" class="edge"><title>Node765&#45;&gt;Node758</title>
<path fill="none" stroke="midnightblue" d="M436.2,-355.928C438.197,-357.231 440.136,-358.588 442,-360 462.693,-375.677 454.662,-394.629 478,-406 549.119,-440.651 591.64,-452.004 656,-406 710.371,-367.136 714.763,-274.565 714.705,-244.563"/>
<polygon fill="midnightblue" stroke="midnightblue" points="437.521,-352.643 427.134,-350.557 433.953,-358.665 437.521,-352.643"/>
</g>
<!-- Node766&#45;&gt;Node758 -->
<g id="edge37" class="edge"><title>Node766&#45;&gt;Node758</title>
<path fill="none" stroke="midnightblue" d="M438.044,-296.544C439.411,-297.652 440.733,-298.804 442,-300 468.887,-325.381 446.705,-355.308 478,-375 544.958,-417.132 590.153,-418.85 656,-375 701.605,-344.63 711.721,-271.189 713.911,-244.717"/>
<polygon fill="midnightblue" stroke="midnightblue" points="439.95,-293.605 429.772,-290.661 435.892,-299.309 439.95,-293.605"/>
</g>
<!-- Node767&#45;&gt;Node744 -->
<g id="edge39" class="edge"><title>Node767&#45;&gt;Node744</title>
<path fill="none" stroke="midnightblue" d="M222.279,-522.842C235.196,-513.832 249.798,-501.196 258,-486 320.95,-369.38 206.755,-289.755 294,-190 300.466,-182.607 309.409,-177.915 318.823,-174.976"/>
<polygon fill="midnightblue" stroke="midnightblue" points="220.132,-520.064 213.705,-528.487 223.982,-525.911 220.132,-520.064"/>
</g>
<!-- Node767&#45;&gt;Node750 -->
<g id="edge46" class="edge"><title>Node767&#45;&gt;Node750</title>
<path fill="none" stroke="midnightblue" d="M205.147,-556.768C219.627,-586.32 251.43,-643.842 294,-678 298.275,-681.43 302.996,-684.521 307.92,-687.294"/>
<polygon fill="midnightblue" stroke="midnightblue" points="208.223,-555.085 200.759,-547.566 201.904,-558.098 208.223,-555.085"/>
</g>
<!-- Node767&#45;&gt;Node751 -->
<g id="edge47" class="edge"><title>Node767&#45;&gt;Node751</title>
<path fill="none" stroke="midnightblue" d="M213.74,-554.492C232.4,-571.714 263.585,-598.715 294,-617 300.136,-620.689 306.792,-624.158 313.502,-627.345"/>
<polygon fill="midnightblue" stroke="midnightblue" points="216.014,-551.827 206.321,-547.549 211.231,-556.938 216.014,-551.827"/>
</g>
<!-- Node767&#45;&gt;Node752 -->
<g id="edge48" class="edge"><title>Node767&#45;&gt;Node752</title>
<path fill="none" stroke="midnightblue" d="M235.791,-550.674C260.972,-558.798 293.785,-569.382 320.297,-577.935"/>
<polygon fill="midnightblue" stroke="midnightblue" points="236.79,-547.319 226.199,-547.58 234.641,-553.981 236.79,-547.319"/>
</g>
<!-- Node767&#45;&gt;Node753 -->
<g id="edge49" class="edge"><title>Node767&#45;&gt;Node753</title>
<path fill="none" stroke="midnightblue" d="M268.068,-538C277.397,-538 286.951,-538 296.266,-538"/>
<polygon fill="midnightblue" stroke="midnightblue" points="268.054,-534.5 258.054,-538 268.054,-541.5 268.054,-534.5"/>
</g>
<!-- Node767&#45;&gt;Node754 -->
<g id="edge50" class="edge"><title>Node767&#45;&gt;Node754</title>
<path fill="none" stroke="midnightblue" d="M236.223,-525.345C253.865,-519.837 274.916,-513.417 294,-508 313.905,-502.35 337.047,-496.437 351.848,-492.737"/>
<polygon fill="midnightblue" stroke="midnightblue" points="234.763,-522.135 226.27,-528.469 236.859,-528.814 234.763,-522.135"/>
</g>
<!-- Node767&#45;&gt;Node756 -->
<g id="edge51" class="edge"><title>Node767&#45;&gt;Node756</title>
<path fill="none" stroke="midnightblue" d="M222.131,-522.761C235.006,-513.728 249.614,-501.095 258,-486 311.663,-389.408 223.402,-325.004 294,-240 298.194,-234.95 303.457,-230.918 309.226,-227.698"/>
<polygon fill="midnightblue" stroke="midnightblue" points="219.991,-519.98 213.593,-528.425 223.86,-525.814 219.991,-519.98"/>
</g>
<!-- Node767&#45;&gt;Node765 -->
<g id="edge52" class="edge"><title>Node767&#45;&gt;Node765</title>
<path fill="none" stroke="midnightblue" d="M220.842,-522.646C233.601,-513.448 248.506,-500.695 258,-486 289.605,-437.08 255.179,-403.416 294,-360 297.105,-356.527 300.673,-353.448 304.527,-350.718"/>
<polygon fill="midnightblue" stroke="midnightblue" points="218.697,-519.873 212.445,-528.427 222.666,-525.639 218.697,-519.873"/>
</g>
<!-- Node767&#45;&gt;Node766 -->
<g id="edge53" class="edge"><title>Node767&#45;&gt;Node766</title>
<path fill="none" stroke="midnightblue" d="M221.602,-522.782C234.457,-513.69 249.212,-500.997 258,-486 300.57,-413.353 240.661,-365.152 294,-300 296.864,-296.501 300.203,-293.406 303.847,-290.668"/>
<polygon fill="midnightblue" stroke="midnightblue" points="219.457,-520.006 213.103,-528.484 223.357,-525.819 219.457,-520.006"/>
</g>
<!-- Node768 -->
<g id="node27" class="node"><title>Node768</title>
<g id="a_node27"><a xlink:href="test__heatshrink__dynamic_8c.html#a9b30a495760400a59637e7d708e63ae0" target="_top" xlink:title="encoder_sink_should\l_reject_nulls">
<polygon fill="white" stroke="black" points="314,-868 314,-898 422,-898 422,-868 314,-868"/>
<text text-anchor="start" x="322" y="-886" font-family="Helvetica,sans-Serif" font-size="10.00">encoder_sink_should</text>
<text text-anchor="middle" x="368" y="-875" font-family="Helvetica,sans-Serif" font-size="10.00">_reject_nulls</text>
</a>
</g>
</g>
<!-- Node767&#45;&gt;Node768 -->
<g id="edge40" class="edge"><title>Node767&#45;&gt;Node768</title>
<path fill="none" stroke="midnightblue" d="M196.63,-557.843C198.08,-613.181 209.789,-770.858 294,-858 299.586,-863.78 306.563,-868.224 313.973,-871.64"/>
<polygon fill="midnightblue" stroke="midnightblue" points="200.126,-557.588 196.454,-547.65 193.127,-557.709 200.126,-557.588"/>
</g>
<!-- Node769 -->
<g id="node28" class="node"><title>Node769</title>
<g id="a_node28"><a xlink:href="test__heatshrink__dynamic_8c.html#a1c4dab770a7df0935018c3a685f5b1ff" target="_top" xlink:title="encoder_sink_should\l_accept_input_when_it\l_will_fit">
<polygon fill="white" stroke="black" points="310,-807.5 310,-848.5 426,-848.5 426,-807.5 310,-807.5"/>
<text text-anchor="start" x="318" y="-836.5" font-family="Helvetica,sans-Serif" font-size="10.00">encoder_sink_should</text>
<text text-anchor="start" x="318" y="-825.5" font-family="Helvetica,sans-Serif" font-size="10.00">_accept_input_when_it</text>
<text text-anchor="middle" x="368" y="-814.5" font-family="Helvetica,sans-Serif" font-size="10.00">_will_fit</text>
</a>
</g>
</g>
<!-- Node767&#45;&gt;Node769 -->
<g id="edge42" class="edge"><title>Node767&#45;&gt;Node769</title>
<path fill="none" stroke="midnightblue" d="M198.568,-557.937C204.535,-605.681 225.96,-727.807 294,-798 298.578,-802.723 304.005,-806.729 309.803,-810.121"/>
<polygon fill="midnightblue" stroke="midnightblue" points="202.012,-557.249 197.389,-547.715 195.058,-558.05 202.012,-557.249"/>
</g>
<!-- Node770 -->
<g id="node29" class="node"><title>Node770</title>
<g id="a_node29"><a xlink:href="test__heatshrink__dynamic_8c.html#a73ee2ec6f21d5e0ce0e34902a1aebccb" target="_top" xlink:title="encoder_sink_should\l_accept_partial_input\l_when_some_will_fit">
<polygon fill="white" stroke="black" points="313.5,-747.5 313.5,-788.5 422.5,-788.5 422.5,-747.5 313.5,-747.5"/>
<text text-anchor="start" x="321.5" y="-776.5" font-family="Helvetica,sans-Serif" font-size="10.00">encoder_sink_should</text>
<text text-anchor="start" x="321.5" y="-765.5" font-family="Helvetica,sans-Serif" font-size="10.00">_accept_partial_input</text>
<text text-anchor="middle" x="368" y="-754.5" font-family="Helvetica,sans-Serif" font-size="10.00">_when_some_will_fit</text>
</a>
</g>
</g>
<!-- Node767&#45;&gt;Node770 -->
<g id="edge44" class="edge"><title>Node767&#45;&gt;Node770</title>
<path fill="none" stroke="midnightblue" d="M201.083,-557.76C211.196,-597.22 239.014,-686.409 294,-738 299.596,-743.25 306.236,-747.639 313.197,-751.292"/>
<polygon fill="midnightblue" stroke="midnightblue" points="204.425,-556.695 198.644,-547.816 197.627,-558.362 204.425,-556.695"/>
</g>
<!-- Node768&#45;&gt;Node748 -->
<g id="edge41" class="edge"><title>Node768&#45;&gt;Node748</title>
<path fill="none" stroke="midnightblue" d="M431.208,-865.306C435.029,-863.139 438.67,-860.713 442,-858 512.9,-800.233 552.434,-690.446 563.057,-657.548"/>
<polygon fill="midnightblue" stroke="midnightblue" points="429.395,-862.3 422.023,-869.91 432.532,-868.558 429.395,-862.3"/>
</g>
<!-- Node769&#45;&gt;Node748 -->
<g id="edge43" class="edge"><title>Node769&#45;&gt;Node748</title>
<path fill="none" stroke="midnightblue" d="M435.375,-802.498C437.659,-801.063 439.876,-799.565 442,-798 498.309,-756.515 544.63,-684.045 560.299,-657.823"/>
<polygon fill="midnightblue" stroke="midnightblue" points="433.219,-799.7 426.286,-807.711 436.701,-805.772 433.219,-799.7"/>
</g>
<!-- Node770&#45;&gt;Node748 -->
<g id="edge45" class="edge"><title>Node770&#45;&gt;Node748</title>
<path fill="none" stroke="midnightblue" d="M431.944,-743.275C435.385,-741.571 438.758,-739.809 442,-738 486.369,-713.247 533.557,-675.331 554.659,-657.673"/>
<polygon fill="midnightblue" stroke="midnightblue" points="430.259,-740.2 422.723,-747.647 433.258,-746.526 430.259,-740.2"/>
</g>
</g>
</svg>
