<?xml version="1.0" encoding="UTF-8" standalone="no"?>
<!DOCTYPE svg PUBLIC "-//W3C//DTD SVG 1.1//EN"
 "http://www.w3.org/Graphics/SVG/1.1/DTD/svg11.dtd">
<!-- Generated by graphviz version 2.38.0 (20140413.2041)
 -->
<!-- Title: handle_sink Pages: 1 -->
<svg width="368pt" height="66pt"
 viewBox="0.00 0.00 368.00 66.00" xmlns="http://www.w3.org/2000/svg" xmlns:xlink="http://www.w3.org/1999/xlink">
<g id="graph0" class="graph" transform="scale(1 1) rotate(0) translate(4 62)">
<title>handle_sink</title>
<polygon fill="white" stroke="none" points="-4,4 -4,-62 364,-62 364,4 -4,4"/>
<!-- Node155 -->
<g id="node1" class="node"><title>Node155</title>
<polygon fill="#bfbfbf" stroke="black" points="0,-19.5 0,-38.5 68,-38.5 68,-19.5 0,-19.5"/>
<text text-anchor="middle" x="34" y="-26.5" font-family="Helvetica,sans-Serif" font-size="10.00">handle_sink</text>
</g>
<!-- Node156 -->
<g id="node2" class="node"><title>Node156</title>
<g id="a_node2"><a xlink:href="heatshrink_8c.html#a3f2b305cf4f4bf560265d00373a78bdd" target="_top" xlink:title="decoder_sink_read">
<polygon fill="white" stroke="black" points="104,-38.5 104,-57.5 202,-57.5 202,-38.5 104,-38.5"/>
<text text-anchor="middle" x="153" y="-45.5" font-family="Helvetica,sans-Serif" font-size="10.00">decoder_sink_read</text>
</a>
</g>
</g>
<!-- Node155&#45;&gt;Node156 -->
<g id="edge1" class="edge"><title>Node155&#45;&gt;Node156</title>
<path fill="none" stroke="midnightblue" d="M78.1477,-36.0069C86.516,-37.3658 95.3354,-38.7981 103.852,-40.1811"/>
<polygon fill="midnightblue" stroke="midnightblue" points="78.6463,-32.5421 68.2145,-34.3938 77.5242,-39.4516 78.6463,-32.5421"/>
</g>
<!-- Node159 -->
<g id="node5" class="node"><title>Node159</title>
<g id="a_node5"><a xlink:href="heatshrink_8c.html#a593e86bba4eca0be280740fcf509bc12" target="_top" xlink:title="encoder_sink_read">
<polygon fill="white" stroke="black" points="104,-0.5 104,-19.5 202,-19.5 202,-0.5 104,-0.5"/>
<text text-anchor="middle" x="153" y="-7.5" font-family="Helvetica,sans-Serif" font-size="10.00">encoder_sink_read</text>
</a>
</g>
</g>
<!-- Node155&#45;&gt;Node159 -->
<g id="edge4" class="edge"><title>Node155&#45;&gt;Node159</title>
<path fill="none" stroke="midnightblue" d="M78.1477,-21.9931C86.516,-20.6342 95.3354,-19.2019 103.852,-17.8189"/>
<polygon fill="midnightblue" stroke="midnightblue" points="77.5242,-18.5484 68.2145,-23.6062 78.6463,-25.4579 77.5242,-18.5484"/>
</g>
<!-- Node157 -->
<g id="node3" class="node"><title>Node157</title>
<g id="a_node3"><a xlink:href="heatshrink_8c.html#a92d9515cb2f33eea4832becaa17c11bb" target="_top" xlink:title="decode">
<polygon fill="white" stroke="black" points="238,-38.5 238,-57.5 286,-57.5 286,-38.5 238,-38.5"/>
<text text-anchor="middle" x="262" y="-45.5" font-family="Helvetica,sans-Serif" font-size="10.00">decode</text>
</a>
</g>
</g>
<!-- Node156&#45;&gt;Node157 -->
<g id="edge2" class="edge"><title>Node156&#45;&gt;Node157</title>
<path fill="none" stroke="midnightblue" d="M212.403,-48C221.436,-48 230.282,-48 237.898,-48"/>
<polygon fill="midnightblue" stroke="midnightblue" points="212.179,-44.5001 202.179,-48 212.179,-51.5001 212.179,-44.5001"/>
</g>
<!-- Node158 -->
<g id="node4" class="node"><title>Node158</title>
<g id="a_node4"><a xlink:href="heatshrink_8c.html#a3c04138a5bfe5d72780bb7e82a18e627" target="_top" xlink:title="main">
<polygon fill="white" stroke="black" points="322,-19.5 322,-38.5 360,-38.5 360,-19.5 322,-19.5"/>
<text text-anchor="middle" x="341" y="-26.5" font-family="Helvetica,sans-Serif" font-size="10.00">main</text>
</a>
</g>
</g>
<!-- Node157&#45;&gt;Node158 -->
<g id="edge3" class="edge"><title>Node157&#45;&gt;Node158</title>
<path fill="none" stroke="midnightblue" d="M296.067,-39.8406C304.798,-37.6862 313.91,-35.4379 321.557,-33.551"/>
<polygon fill="midnightblue" stroke="midnightblue" points="294.973,-36.5055 286.103,-42.2994 296.65,-43.3017 294.973,-36.5055"/>
</g>
<!-- Node160 -->
<g id="node6" class="node"><title>Node160</title>
<g id="a_node6"><a xlink:href="heatshrink_8c.html#a37f19023beced8a782d3051bfd7a0bcb" target="_top" xlink:title="encode">
<polygon fill="white" stroke="black" points="238,-0.5 238,-19.5 286,-19.5 286,-0.5 238,-0.5"/>
<text text-anchor="middle" x="262" y="-7.5" font-family="Helvetica,sans-Serif" font-size="10.00">encode</text>
</a>
</g>
</g>
<!-- Node159&#45;&gt;Node160 -->
<g id="edge5" class="edge"><title>Node159&#45;&gt;Node160</title>
<path fill="none" stroke="midnightblue" d="M212.403,-10C221.436,-10 230.282,-10 237.898,-10"/>
<polygon fill="midnightblue" stroke="midnightblue" points="212.179,-6.5001 202.179,-10 212.179,-13.5001 212.179,-6.5001"/>
</g>
<!-- Node160&#45;&gt;Node158 -->
<g id="edge6" class="edge"><title>Node160&#45;&gt;Node158</title>
<path fill="none" stroke="midnightblue" d="M296.067,-18.1594C304.798,-20.3138 313.91,-22.5621 321.557,-24.449"/>
<polygon fill="midnightblue" stroke="midnightblue" points="296.65,-14.6983 286.103,-15.7006 294.973,-21.4945 296.65,-14.6983"/>
</g>
</g>
</svg>
