<?xml version="1.0" encoding="UTF-8" standalone="no"?>
<!DOCTYPE svg PUBLIC "-//W3C//DTD SVG 1.1//EN"
 "http://www.w3.org/Graphics/SVG/1.1/DTD/svg11.dtd">
<!-- Generated by graphviz version 2.38.0 (20140413.2041)
 -->
<!-- Title: lib/heatshrink/heatshrink_config.h Pages: 1 -->
<svg width="677pt" height="184pt"
 viewBox="0.00 0.00 677.00 184.00" xmlns="http://www.w3.org/2000/svg" xmlns:xlink="http://www.w3.org/1999/xlink">
<g id="graph0" class="graph" transform="scale(1 1) rotate(0) translate(4 180)">
<title>lib/heatshrink/heatshrink_config.h</title>
<polygon fill="white" stroke="none" points="-4,4 -4,-180 673,-180 673,4 -4,4"/>
<!-- Node1 -->
<g id="node1" class="node"><title>Node1</title>
<polygon fill="#bfbfbf" stroke="black" points="351,-145.5 351,-175.5 473,-175.5 473,-145.5 351,-145.5"/>
<text text-anchor="start" x="359" y="-163.5" font-family="Helvetica,sans-Serif" font-size="10.00">lib/heatshrink/heatshrink</text>
<text text-anchor="middle" x="412" y="-152.5" font-family="Helvetica,sans-Serif" font-size="10.00">_config.h</text>
</g>
<!-- Node2 -->
<g id="node2" class="node"><title>Node2</title>
<g id="a_node2"><a xlink:href="heatshrink__encoder_8h.html" target="_top" xlink:title="lib/heatshrink/heatshrink\l_encoder.h">
<polygon fill="white" stroke="black" points="351,-73 351,-103 473,-103 473,-73 351,-73"/>
<text text-anchor="start" x="359" y="-91" font-family="Helvetica,sans-Serif" font-size="10.00">lib/heatshrink/heatshrink</text>
<text text-anchor="middle" x="412" y="-80" font-family="Helvetica,sans-Serif" font-size="10.00">_encoder.h</text>
</a>
</g>
</g>
<!-- Node1&#45;&gt;Node2 -->
<g id="edge1" class="edge"><title>Node1&#45;&gt;Node2</title>
<path fill="none" stroke="midnightblue" d="M412,-135.232C412,-124.568 412,-112.414 412,-103.246"/>
<polygon fill="midnightblue" stroke="midnightblue" points="408.5,-135.233 412,-145.233 415.5,-135.233 408.5,-135.233"/>
</g>
<!-- Node7 -->
<g id="node7" class="node"><title>Node7</title>
<g id="a_node7"><a xlink:href="heatshrink__decoder_8h.html" target="_top" xlink:title="lib/heatshrink/heatshrink\l_decoder.h">
<polygon fill="white" stroke="black" points="211,-73 211,-103 333,-103 333,-73 211,-73"/>
<text text-anchor="start" x="219" y="-91" font-family="Helvetica,sans-Serif" font-size="10.00">lib/heatshrink/heatshrink</text>
<text text-anchor="middle" x="272" y="-80" font-family="Helvetica,sans-Serif" font-size="10.00">_decoder.h</text>
</a>
</g>
</g>
<!-- Node1&#45;&gt;Node7 -->
<g id="edge6" class="edge"><title>Node1&#45;&gt;Node7</title>
<path fill="none" stroke="midnightblue" d="M375.01,-140.873C351.478,-129.023 321.49,-113.922 299.946,-103.073"/>
<polygon fill="midnightblue" stroke="midnightblue" points="373.5,-144.031 384.005,-145.403 376.648,-137.779 373.5,-144.031"/>
</g>
<!-- Node9 -->
<g id="node9" class="node"><title>Node9</title>
<g id="a_node9"><a xlink:href="test__heatshrink__dynamic__theft_8c.html" target="_top" xlink:title="lib/heatshrink/test\l_heatshrink_dynamic\l_theft.c">
<polygon fill="white" stroke="black" points="491.5,-67.5 491.5,-108.5 600.5,-108.5 600.5,-67.5 491.5,-67.5"/>
<text text-anchor="start" x="499.5" y="-96.5" font-family="Helvetica,sans-Serif" font-size="10.00">lib/heatshrink/test</text>
<text text-anchor="start" x="499.5" y="-85.5" font-family="Helvetica,sans-Serif" font-size="10.00">_heatshrink_dynamic</text>
<text text-anchor="middle" x="546" y="-74.5" font-family="Helvetica,sans-Serif" font-size="10.00">_theft.c</text>
</a>
</g>
</g>
<!-- Node1&#45;&gt;Node9 -->
<g id="edge11" class="edge"><title>Node1&#45;&gt;Node9</title>
<path fill="none" stroke="midnightblue" d="M447.686,-140.725C466.574,-130.788 489.745,-118.597 508.848,-108.546"/>
<polygon fill="midnightblue" stroke="midnightblue" points="446.015,-137.649 438.795,-145.403 449.274,-143.844 446.015,-137.649"/>
</g>
<!-- Node3 -->
<g id="node3" class="node"><title>Node3</title>
<g id="a_node3"><a xlink:href="heatshrink_8c.html" target="_top" xlink:title="lib/heatshrink/heatshrink.c">
<polygon fill="white" stroke="black" points="140.5,-6 140.5,-25 271.5,-25 271.5,-6 140.5,-6"/>
<text text-anchor="middle" x="206" y="-13" font-family="Helvetica,sans-Serif" font-size="10.00">lib/heatshrink/heatshrink.c</text>
</a>
</g>
</g>
<!-- Node2&#45;&gt;Node3 -->
<g id="edge2" class="edge"><title>Node2&#45;&gt;Node3</title>
<path fill="none" stroke="midnightblue" d="M361.165,-69.6027C319.763,-55.4333 263.081,-36.0351 230.935,-25.0336"/>
<polygon fill="midnightblue" stroke="midnightblue" points="360.213,-72.9761 370.808,-72.9027 362.48,-66.3532 360.213,-72.9761"/>
</g>
<!-- Node4 -->
<g id="node4" class="node"><title>Node4</title>
<g id="a_node4"><a xlink:href="heatshrink__encoder_8c.html" target="_top" xlink:title="lib/heatshrink/heatshrink\l_encoder.c">
<polygon fill="white" stroke="black" points="547,-0.5 547,-30.5 669,-30.5 669,-0.5 547,-0.5"/>
<text text-anchor="start" x="555" y="-18.5" font-family="Helvetica,sans-Serif" font-size="10.00">lib/heatshrink/heatshrink</text>
<text text-anchor="middle" x="608" y="-7.5" font-family="Helvetica,sans-Serif" font-size="10.00">_encoder.c</text>
</a>
</g>
</g>
<!-- Node2&#45;&gt;Node4 -->
<g id="edge3" class="edge"><title>Node2&#45;&gt;Node4</title>
<path fill="none" stroke="midnightblue" d="M460.751,-69.4645C494.119,-57.4622 537.78,-41.7576 568.875,-30.5729"/>
<polygon fill="midnightblue" stroke="midnightblue" points="459.418,-66.2246 451.192,-72.9027 461.787,-72.8114 459.418,-66.2246"/>
</g>
<!-- Node5 -->
<g id="node5" class="node"><title>Node5</title>
<g id="a_node5"><a xlink:href="test__heatshrink__dynamic_8c.html" target="_top" xlink:title="lib/heatshrink/test\l_heatshrink_dynamic.c">
<polygon fill="white" stroke="black" points="289.5,-0.5 289.5,-30.5 406.5,-30.5 406.5,-0.5 289.5,-0.5"/>
<text text-anchor="start" x="297.5" y="-18.5" font-family="Helvetica,sans-Serif" font-size="10.00">lib/heatshrink/test</text>
<text text-anchor="middle" x="348" y="-7.5" font-family="Helvetica,sans-Serif" font-size="10.00">_heatshrink_dynamic.c</text>
</a>
</g>
</g>
<!-- Node2&#45;&gt;Node5 -->
<g id="edge4" class="edge"><title>Node2&#45;&gt;Node5</title>
<path fill="none" stroke="midnightblue" d="M392.064,-65.0389C381.912,-53.8562 369.863,-40.5831 360.932,-30.7455"/>
<polygon fill="midnightblue" stroke="midnightblue" points="389.736,-67.6816 399.049,-72.7333 394.919,-62.9766 389.736,-67.6816"/>
</g>
<!-- Node6 -->
<g id="node6" class="node"><title>Node6</title>
<g id="a_node6"><a xlink:href="test__heatshrink__static_8c.html" target="_top" xlink:title="lib/heatshrink/test\l_heatshrink_static.c">
<polygon fill="white" stroke="black" points="425,-0.5 425,-30.5 529,-30.5 529,-0.5 425,-0.5"/>
<text text-anchor="start" x="433" y="-18.5" font-family="Helvetica,sans-Serif" font-size="10.00">lib/heatshrink/test</text>
<text text-anchor="middle" x="477" y="-7.5" font-family="Helvetica,sans-Serif" font-size="10.00">_heatshrink_static.c</text>
</a>
</g>
</g>
<!-- Node2&#45;&gt;Node6 -->
<g id="edge5" class="edge"><title>Node2&#45;&gt;Node6</title>
<path fill="none" stroke="midnightblue" d="M431.948,-65.3641C442.32,-54.1142 454.708,-40.6786 463.866,-30.7455"/>
<polygon fill="midnightblue" stroke="midnightblue" points="429.359,-63.0087 425.154,-72.7333 434.505,-67.7537 429.359,-63.0087"/>
</g>
<!-- Node7&#45;&gt;Node3 -->
<g id="edge7" class="edge"><title>Node7&#45;&gt;Node3</title>
<path fill="none" stroke="midnightblue" d="M251.649,-65.2615C239.088,-51.8439 223.646,-35.3487 214.326,-25.3932"/>
<polygon fill="midnightblue" stroke="midnightblue" points="249.255,-67.825 258.644,-72.7333 254.365,-63.041 249.255,-67.825"/>
</g>
<!-- Node7&#45;&gt;Node5 -->
<g id="edge9" class="edge"><title>Node7&#45;&gt;Node5</title>
<path fill="none" stroke="midnightblue" d="M295.027,-65.639C307.313,-54.2429 322.083,-40.5414 332.903,-30.5049"/>
<polygon fill="midnightblue" stroke="midnightblue" points="292.331,-63.3664 287.38,-72.7333 297.091,-68.4984 292.331,-63.3664"/>
</g>
<!-- Node7&#45;&gt;Node6 -->
<g id="edge10" class="edge"><title>Node7&#45;&gt;Node6</title>
<path fill="none" stroke="midnightblue" d="M322.541,-69.6188C357.498,-57.5971 403.416,-41.8056 436.079,-30.5729"/>
<polygon fill="midnightblue" stroke="midnightblue" points="321.31,-66.3408 312.992,-72.9027 323.587,-72.9603 321.31,-66.3408"/>
</g>
<!-- Node8 -->
<g id="node8" class="node"><title>Node8</title>
<g id="a_node8"><a xlink:href="lib_2heatshrink_2heatshrink__decoder_8c.html" target="_top" xlink:title="lib/heatshrink/heatshrink\l_decoder.c">
<polygon fill="white" stroke="black" points="0,-0.5 0,-30.5 122,-30.5 122,-0.5 0,-0.5"/>
<text text-anchor="start" x="8" y="-18.5" font-family="Helvetica,sans-Serif" font-size="10.00">lib/heatshrink/heatshrink</text>
<text text-anchor="middle" x="61" y="-7.5" font-family="Helvetica,sans-Serif" font-size="10.00">_decoder.c</text>
</a>
</g>
</g>
<!-- Node7&#45;&gt;Node8 -->
<g id="edge8" class="edge"><title>Node7&#45;&gt;Node8</title>
<path fill="none" stroke="midnightblue" d="M220.236,-69.7046C184.261,-57.6843 136.913,-41.8642 103.221,-30.6069"/>
<polygon fill="midnightblue" stroke="midnightblue" points="219.467,-73.1377 230.061,-72.9872 221.686,-66.4985 219.467,-73.1377"/>
</g>
</g>
</svg>
