<?xml version="1.0" encoding="UTF-8" standalone="no"?>
<!DOCTYPE svg PUBLIC "-//W3C//DTD SVG 1.1//EN"
 "http://www.w3.org/Graphics/SVG/1.1/DTD/svg11.dtd">
<!-- Generated by graphviz version 2.38.0 (20140413.2041)
 -->
<!-- Title: st_yield_literal Pages: 1 -->
<svg width="481pt" height="123pt"
 viewBox="0.00 0.00 481.00 123.00" xmlns="http://www.w3.org/2000/svg" xmlns:xlink="http://www.w3.org/1999/xlink">
<g id="graph0" class="graph" transform="scale(1 1) rotate(0) translate(4 119)">
<title>st_yield_literal</title>
<polygon fill="white" stroke="none" points="-4,4 -4,-119 477,-119 477,4 -4,4"/>
<!-- Node909 -->
<g id="node1" class="node"><title>Node909</title>
<polygon fill="#bfbfbf" stroke="black" points="0,-57.5 0,-76.5 79,-76.5 79,-57.5 0,-57.5"/>
<text text-anchor="middle" x="39.5" y="-64.5" font-family="Helvetica,sans-Serif" font-size="10.00">st_yield_literal</text>
</g>
<!-- Node910 -->
<g id="node2" class="node"><title>Node910</title>
<g id="a_node2"><a xlink:href="heatshrink__encoder_8c.html#ad075b2bdf7d816dbf4eb8b1e16d1586a" target="_top" xlink:title="can_take_byte">
<polygon fill="white" stroke="black" points="120,-95.5 120,-114.5 200,-114.5 200,-95.5 120,-95.5"/>
<text text-anchor="middle" x="160" y="-102.5" font-family="Helvetica,sans-Serif" font-size="10.00">can_take_byte</text>
</a>
</g>
</g>
<!-- Node909&#45;&gt;Node910 -->
<g id="edge1" class="edge"><title>Node909&#45;&gt;Node910</title>
<path fill="none" stroke="midnightblue" d="M70.4026,-76.589C85.2787,-81.3594 103.457,-87.1888 119.467,-92.3229"/>
<polygon fill="midnightblue" stroke="midnightblue" points="118.516,-95.6932 129.107,-95.4141 120.653,-89.0276 118.516,-95.6932"/>
</g>
<!-- Node911 -->
<g id="node3" class="node"><title>Node911</title>
<g id="a_node3"><a xlink:href="heatshrink__encoder_8c.html#a3609038125fab3c5b7a5914490d82fa2" target="_top" xlink:title="on_final_literal">
<polygon fill="white" stroke="black" points="120.5,-57.5 120.5,-76.5 199.5,-76.5 199.5,-57.5 120.5,-57.5"/>
<text text-anchor="middle" x="160" y="-64.5" font-family="Helvetica,sans-Serif" font-size="10.00">on_final_literal</text>
</a>
</g>
</g>
<!-- Node909&#45;&gt;Node911 -->
<g id="edge2" class="edge"><title>Node909&#45;&gt;Node911</title>
<path fill="none" stroke="midnightblue" d="M79.3013,-67C89.1225,-67 99.798,-67 110.049,-67"/>
<polygon fill="midnightblue" stroke="midnightblue" points="110.112,-70.5001 120.111,-67 110.111,-63.5001 110.112,-70.5001"/>
</g>
<!-- Node912 -->
<g id="node4" class="node"><title>Node912</title>
<g id="a_node4"><a xlink:href="heatshrink__encoder_8c.html#aa6b6e74207f47dbfc49a8d7c640ef9cd" target="_top" xlink:title="push_literal_byte">
<polygon fill="white" stroke="black" points="115,-19.5 115,-38.5 205,-38.5 205,-19.5 115,-19.5"/>
<text text-anchor="middle" x="160" y="-26.5" font-family="Helvetica,sans-Serif" font-size="10.00">push_literal_byte</text>
</a>
</g>
</g>
<!-- Node909&#45;&gt;Node912 -->
<g id="edge3" class="edge"><title>Node909&#45;&gt;Node912</title>
<path fill="none" stroke="midnightblue" d="M70.4026,-57.411C85.2787,-52.6406 103.457,-46.8112 119.467,-41.6771"/>
<polygon fill="midnightblue" stroke="midnightblue" points="120.653,-44.9724 129.107,-38.5859 118.516,-38.3068 120.653,-44.9724"/>
</g>
<!-- Node913 -->
<g id="node5" class="node"><title>Node913</title>
<g id="a_node5"><a xlink:href="heatshrink__encoder_8c.html#ae3f741c7a40be525778c6c92c4720518" target="_top" xlink:title="get_input_offset">
<polygon fill="white" stroke="black" points="241,-38.5 241,-57.5 327,-57.5 327,-38.5 241,-38.5"/>
<text text-anchor="middle" x="284" y="-45.5" font-family="Helvetica,sans-Serif" font-size="10.00">get_input_offset</text>
</a>
</g>
</g>
<!-- Node912&#45;&gt;Node913 -->
<g id="edge4" class="edge"><title>Node912&#45;&gt;Node913</title>
<path fill="none" stroke="midnightblue" d="M205.045,-35.8594C213.384,-37.1582 222.183,-38.5286 230.747,-39.8623"/>
<polygon fill="midnightblue" stroke="midnightblue" points="230.232,-43.3241 240.651,-41.4047 231.309,-36.4075 230.232,-43.3241"/>
</g>
<!-- Node915 -->
<g id="node7" class="node"><title>Node915</title>
<g id="a_node7"><a xlink:href="heatshrink__encoder_8c.html#a5219dc6b7b93fcd90ee72f9948c58f54" target="_top" xlink:title="push_bits">
<polygon fill="white" stroke="black" points="254.5,-0.5 254.5,-19.5 313.5,-19.5 313.5,-0.5 254.5,-0.5"/>
<text text-anchor="middle" x="284" y="-7.5" font-family="Helvetica,sans-Serif" font-size="10.00">push_bits</text>
</a>
</g>
</g>
<!-- Node912&#45;&gt;Node915 -->
<g id="edge6" class="edge"><title>Node912&#45;&gt;Node915</title>
<path fill="none" stroke="midnightblue" d="M205.045,-22.1406C217.842,-20.1475 231.721,-17.9861 244.173,-16.0468"/>
<polygon fill="midnightblue" stroke="midnightblue" points="244.9,-19.4759 254.242,-14.4787 243.823,-12.5593 244.9,-19.4759"/>
</g>
<!-- Node914 -->
<g id="node6" class="node"><title>Node914</title>
<g id="a_node6"><a xlink:href="heatshrink__encoder_8c.html#a9b311bf2b76215ba61eb648d970a5f11" target="_top" xlink:title="get_input_buffer_size">
<polygon fill="white" stroke="black" points="363,-38.5 363,-57.5 473,-57.5 473,-38.5 363,-38.5"/>
<text text-anchor="middle" x="418" y="-45.5" font-family="Helvetica,sans-Serif" font-size="10.00">get_input_buffer_size</text>
</a>
</g>
</g>
<!-- Node913&#45;&gt;Node914 -->
<g id="edge5" class="edge"><title>Node913&#45;&gt;Node914</title>
<path fill="none" stroke="midnightblue" d="M327.129,-48C335.263,-48 343.957,-48 352.613,-48"/>
<polygon fill="midnightblue" stroke="midnightblue" points="352.723,-51.5001 362.723,-48 352.723,-44.5001 352.723,-51.5001"/>
</g>
</g>
</svg>
