<?xml version="1.0" encoding="UTF-8" standalone="no"?>
<!DOCTYPE svg PUBLIC "-//W3C//DTD SVG 1.1//EN"
 "http://www.w3.org/Graphics/SVG/1.1/DTD/svg11.dtd">
<!-- Generated by graphviz version 2.38.0 (20140413.2041)
 -->
<!-- Title: heatshrink_encoder_poll Pages: 1 -->
<svg width="685pt" height="474pt"
 viewBox="0.00 0.00 685.00 474.00" xmlns="http://www.w3.org/2000/svg" xmlns:xlink="http://www.w3.org/1999/xlink">
<g id="graph0" class="graph" transform="scale(1 1) rotate(0) translate(4 470)">
<title>heatshrink_encoder_poll</title>
<polygon fill="white" stroke="none" points="-4,4 -4,-470 681,-470 681,4 -4,4"/>
<!-- Node411 -->
<g id="node1" class="node"><title>Node411</title>
<polygon fill="#bfbfbf" stroke="black" points="0,-133.5 0,-152.5 122,-152.5 122,-133.5 0,-133.5"/>
<text text-anchor="middle" x="61" y="-140.5" font-family="Helvetica,sans-Serif" font-size="10.00">heatshrink_encoder_poll</text>
</g>
<!-- Node412 -->
<g id="node2" class="node"><title>Node412</title>
<g id="a_node2"><a xlink:href="heatshrink__encoder_8c.html#a4d5eb19aee4b08addab0bdd80e1f62d8" target="_top" xlink:title="do_indexing">
<polygon fill="white" stroke="black" points="172.5,-190.5 172.5,-209.5 240.5,-209.5 240.5,-190.5 172.5,-190.5"/>
<text text-anchor="middle" x="206.5" y="-197.5" font-family="Helvetica,sans-Serif" font-size="10.00">do_indexing</text>
</a>
</g>
</g>
<!-- Node411&#45;&gt;Node412 -->
<g id="edge1" class="edge"><title>Node411&#45;&gt;Node412</title>
<path fill="none" stroke="midnightblue" d="M86.0187,-152.541C109.507,-161.87 145.486,-176.162 171.826,-186.624"/>
<polygon fill="midnightblue" stroke="midnightblue" points="170.817,-189.99 181.403,-190.428 173.401,-183.484 170.817,-189.99"/>
</g>
<!-- Node415 -->
<g id="node5" class="node"><title>Node415</title>
<g id="a_node5"><a xlink:href="heatshrink__encoder_8c.html#af02bd14a139872e09672fbadb61da8a1" target="_top" xlink:title="st_flush_bit_buffer">
<polygon fill="white" stroke="black" points="158,-76.5 158,-95.5 255,-95.5 255,-76.5 158,-76.5"/>
<text text-anchor="middle" x="206.5" y="-83.5" font-family="Helvetica,sans-Serif" font-size="10.00">st_flush_bit_buffer</text>
</a>
</g>
</g>
<!-- Node411&#45;&gt;Node415 -->
<g id="edge4" class="edge"><title>Node411&#45;&gt;Node415</title>
<path fill="none" stroke="midnightblue" d="M86.0187,-133.459C109.507,-124.13 145.486,-109.838 171.826,-99.3758"/>
<polygon fill="midnightblue" stroke="midnightblue" points="173.401,-102.516 181.403,-95.5716 170.817,-96.0105 173.401,-102.516"/>
</g>
<!-- Node417 -->
<g id="node7" class="node"><title>Node417</title>
<g id="a_node7"><a xlink:href="heatshrink__encoder_8c.html#ac2fd6f71c2f249ebc292fd45fbd83b65" target="_top" xlink:title="st_save_backlog">
<polygon fill="white" stroke="black" points="296.5,-389.5 296.5,-408.5 386.5,-408.5 386.5,-389.5 296.5,-389.5"/>
<text text-anchor="middle" x="341.5" y="-396.5" font-family="Helvetica,sans-Serif" font-size="10.00">st_save_backlog</text>
</a>
</g>
</g>
<!-- Node411&#45;&gt;Node417 -->
<g id="edge6" class="edge"><title>Node411&#45;&gt;Node417</title>
<path fill="none" stroke="midnightblue" d="M70.0847,-152.567C86.1315,-171.369 123.445,-214.162 158,-247 213.661,-299.895 284.912,-356.265 319.619,-383.066"/>
<polygon fill="midnightblue" stroke="midnightblue" points="317.564,-385.901 327.624,-389.223 321.831,-380.352 317.564,-385.901"/>
</g>
<!-- Node422 -->
<g id="node12" class="node"><title>Node422</title>
<g id="a_node12"><a xlink:href="heatshrink__encoder_8c.html#a8e16d6d715ab36d730a793591afe2324" target="_top" xlink:title="st_step_search">
<polygon fill="white" stroke="black" points="300,-247.5 300,-266.5 383,-266.5 383,-247.5 300,-247.5"/>
<text text-anchor="middle" x="341.5" y="-254.5" font-family="Helvetica,sans-Serif" font-size="10.00">st_step_search</text>
</a>
</g>
</g>
<!-- Node411&#45;&gt;Node422 -->
<g id="edge12" class="edge"><title>Node411&#45;&gt;Node422</title>
<path fill="none" stroke="midnightblue" d="M71.0594,-152.655C86.9952,-169.018 121.8,-202.07 158,-219 199.803,-238.55 251.658,-248.111 289.398,-252.745"/>
<polygon fill="midnightblue" stroke="midnightblue" points="289.314,-256.259 299.649,-253.926 290.115,-249.304 289.314,-256.259"/>
</g>
<!-- Node426 -->
<g id="node16" class="node"><title>Node426</title>
<g id="a_node16"><a xlink:href="heatshrink__encoder_8c.html#aa61e20c524c12e2672fd275b136d9848" target="_top" xlink:title="st_yield_br_index">
<polygon fill="white" stroke="black" points="160.5,-0.5 160.5,-19.5 252.5,-19.5 252.5,-0.5 160.5,-0.5"/>
<text text-anchor="middle" x="206.5" y="-7.5" font-family="Helvetica,sans-Serif" font-size="10.00">st_yield_br_index</text>
</a>
</g>
</g>
<!-- Node411&#45;&gt;Node426 -->
<g id="edge20" class="edge"><title>Node411&#45;&gt;Node426</title>
<path fill="none" stroke="midnightblue" d="M67.7501,-133.372C81.0553,-111.84 116.055,-59.3077 158,-29 160.511,-27.1859 163.219,-25.5134 166.024,-23.9777"/>
<polygon fill="midnightblue" stroke="midnightblue" points="167.721,-27.0447 175.192,-19.5322 164.667,-20.7462 167.721,-27.0447"/>
</g>
<!-- Node429 -->
<g id="node19" class="node"><title>Node429</title>
<g id="a_node19"><a xlink:href="heatshrink__encoder_8c.html#a00a38065f94d12a3ba3a04c9472b4216" target="_top" xlink:title="st_yield_br_length">
<polygon fill="white" stroke="black" points="159,-38.5 159,-57.5 254,-57.5 254,-38.5 159,-38.5"/>
<text text-anchor="middle" x="206.5" y="-45.5" font-family="Helvetica,sans-Serif" font-size="10.00">st_yield_br_length</text>
</a>
</g>
</g>
<!-- Node411&#45;&gt;Node429 -->
<g id="edge24" class="edge"><title>Node411&#45;&gt;Node429</title>
<path fill="none" stroke="midnightblue" d="M72.2046,-133.254C88.9907,-117.624 123.972,-86.7131 158,-67 161.266,-65.1078 164.757,-63.3202 168.308,-61.6547"/>
<polygon fill="midnightblue" stroke="midnightblue" points="169.968,-64.7491 177.735,-57.5428 167.17,-58.3329 169.968,-64.7491"/>
</g>
<!-- Node430 -->
<g id="node20" class="node"><title>Node430</title>
<g id="a_node20"><a xlink:href="heatshrink__encoder_8c.html#a2fc159c7d9a01f00a26cbd49712aec82" target="_top" xlink:title="st_yield_literal">
<polygon fill="white" stroke="black" points="167,-152.5 167,-171.5 246,-171.5 246,-152.5 167,-152.5"/>
<text text-anchor="middle" x="206.5" y="-159.5" font-family="Helvetica,sans-Serif" font-size="10.00">st_yield_literal</text>
</a>
</g>
</g>
<!-- Node411&#45;&gt;Node430 -->
<g id="edge27" class="edge"><title>Node411&#45;&gt;Node430</title>
<path fill="none" stroke="midnightblue" d="M122.025,-150.948C133.668,-152.489 145.734,-154.087 156.952,-155.572"/>
<polygon fill="midnightblue" stroke="midnightblue" points="156.607,-159.057 166.98,-156.9 157.526,-152.117 156.607,-159.057"/>
</g>
<!-- Node433 -->
<g id="node23" class="node"><title>Node433</title>
<g id="a_node23"><a xlink:href="heatshrink__encoder_8c.html#a0d4c5f8a5ea97aa1fbe657dd8a5109ba" target="_top" xlink:title="st_yield_tag_bit">
<polygon fill="white" stroke="black" points="164,-114.5 164,-133.5 249,-133.5 249,-114.5 164,-114.5"/>
<text text-anchor="middle" x="206.5" y="-121.5" font-family="Helvetica,sans-Serif" font-size="10.00">st_yield_tag_bit</text>
</a>
</g>
</g>
<!-- Node411&#45;&gt;Node433 -->
<g id="edge33" class="edge"><title>Node411&#45;&gt;Node433</title>
<path fill="none" stroke="midnightblue" d="M122.025,-135.052C132.509,-133.664 143.336,-132.231 153.578,-130.875"/>
<polygon fill="midnightblue" stroke="midnightblue" points="154.136,-134.331 163.59,-129.549 153.217,-127.392 154.136,-134.331"/>
</g>
<!-- Node413 -->
<g id="node3" class="node"><title>Node413</title>
<g id="a_node3"><a xlink:href="heatshrink__encoder_8c.html#ae3f741c7a40be525778c6c92c4720518" target="_top" xlink:title="get_input_offset">
<polygon fill="white" stroke="black" points="436.5,-142.5 436.5,-161.5 522.5,-161.5 522.5,-142.5 436.5,-142.5"/>
<text text-anchor="middle" x="479.5" y="-149.5" font-family="Helvetica,sans-Serif" font-size="10.00">get_input_offset</text>
</a>
</g>
</g>
<!-- Node412&#45;&gt;Node413 -->
<g id="edge2" class="edge"><title>Node412&#45;&gt;Node413</title>
<path fill="none" stroke="midnightblue" d="M240.505,-198.797C277.689,-196.936 339.755,-192.302 392,-181 409.948,-177.117 429.381,-170.803 445.272,-165.057"/>
<polygon fill="midnightblue" stroke="midnightblue" points="446.502,-168.334 454.664,-161.579 444.071,-161.769 446.502,-168.334"/>
</g>
<!-- Node414 -->
<g id="node4" class="node"><title>Node414</title>
<g id="a_node4"><a xlink:href="heatshrink__encoder_8c.html#a9b311bf2b76215ba61eb648d970a5f11" target="_top" xlink:title="get_input_buffer_size">
<polygon fill="white" stroke="black" points="567,-180.5 567,-199.5 677,-199.5 677,-180.5 567,-180.5"/>
<text text-anchor="middle" x="622" y="-187.5" font-family="Helvetica,sans-Serif" font-size="10.00">get_input_buffer_size</text>
</a>
</g>
</g>
<!-- Node413&#45;&gt;Node414 -->
<g id="edge3" class="edge"><title>Node413&#45;&gt;Node414</title>
<path fill="none" stroke="midnightblue" d="M515.954,-161.589C534.091,-166.494 556.368,-172.52 575.733,-177.757"/>
<polygon fill="midnightblue" stroke="midnightblue" points="574.99,-181.182 585.557,-180.414 576.818,-174.425 574.99,-181.182"/>
</g>
<!-- Node416 -->
<g id="node6" class="node"><title>Node416</title>
<g id="a_node6"><a xlink:href="heatshrink__encoder_8c.html#ad075b2bdf7d816dbf4eb8b1e16d1586a" target="_top" xlink:title="can_take_byte">
<polygon fill="white" stroke="black" points="301.5,-38.5 301.5,-57.5 381.5,-57.5 381.5,-38.5 301.5,-38.5"/>
<text text-anchor="middle" x="341.5" y="-45.5" font-family="Helvetica,sans-Serif" font-size="10.00">can_take_byte</text>
</a>
</g>
</g>
<!-- Node415&#45;&gt;Node416 -->
<g id="edge5" class="edge"><title>Node415&#45;&gt;Node416</title>
<path fill="none" stroke="midnightblue" d="M241.062,-76.411C258.073,-71.5506 278.932,-65.5909 297.145,-60.3873"/>
<polygon fill="midnightblue" stroke="midnightblue" points="298.296,-63.6986 306.949,-57.5859 296.372,-56.9679 298.296,-63.6986"/>
</g>
<!-- Node418 -->
<g id="node8" class="node"><title>Node418</title>
<g id="a_node8"><a xlink:href="heatshrink__encoder_8c.html#a323caf30937d6e75e99789f797957f0c" target="_top" xlink:title="is_finishing">
<polygon fill="white" stroke="black" points="447,-370.5 447,-389.5 512,-389.5 512,-370.5 447,-370.5"/>
<text text-anchor="middle" x="479.5" y="-377.5" font-family="Helvetica,sans-Serif" font-size="10.00">is_finishing</text>
</a>
</g>
</g>
<!-- Node417&#45;&gt;Node418 -->
<g id="edge7" class="edge"><title>Node417&#45;&gt;Node418</title>
<path fill="none" stroke="midnightblue" d="M386.655,-392.831C402.689,-390.591 420.747,-388.068 436.581,-385.856"/>
<polygon fill="midnightblue" stroke="midnightblue" points="437.203,-389.304 446.622,-384.454 436.234,-382.371 437.203,-389.304"/>
</g>
<!-- Node419 -->
<g id="node9" class="node"><title>Node419</title>
<g id="a_node9"><a xlink:href="heatshrink__encoder_8c.html#a5016697d0c014235c56cfc3c7131a604" target="_top" xlink:title="has_literal">
<polygon fill="white" stroke="black" points="449,-446.5 449,-465.5 510,-465.5 510,-446.5 449,-446.5"/>
<text text-anchor="middle" x="479.5" y="-453.5" font-family="Helvetica,sans-Serif" font-size="10.00">has_literal</text>
</a>
</g>
</g>
<!-- Node417&#45;&gt;Node419 -->
<g id="edge8" class="edge"><title>Node417&#45;&gt;Node419</title>
<path fill="none" stroke="midnightblue" d="M363.087,-408.555C380.315,-416.453 405.605,-427.82 428,-437 432.754,-438.949 437.788,-440.934 442.765,-442.852"/>
<polygon fill="midnightblue" stroke="midnightblue" points="441.585,-446.148 452.176,-446.427 444.071,-439.604 441.585,-446.148"/>
</g>
<!-- Node420 -->
<g id="node10" class="node"><title>Node420</title>
<g id="a_node10"><a xlink:href="heatshrink__encoder_8c.html#a20f6276833bfa75c34ca574dc4fac9b8" target="_top" xlink:title="save_backlog">
<polygon fill="white" stroke="black" points="441,-408.5 441,-427.5 518,-427.5 518,-408.5 441,-408.5"/>
<text text-anchor="middle" x="479.5" y="-415.5" font-family="Helvetica,sans-Serif" font-size="10.00">save_backlog</text>
</a>
</g>
</g>
<!-- Node417&#45;&gt;Node420 -->
<g id="edge9" class="edge"><title>Node417&#45;&gt;Node420</title>
<path fill="none" stroke="midnightblue" d="M386.655,-405.169C400.76,-407.139 416.433,-409.329 430.78,-411.333"/>
<polygon fill="midnightblue" stroke="midnightblue" points="430.563,-414.837 440.951,-412.754 431.531,-407.904 430.563,-414.837"/>
</g>
<!-- Node420&#45;&gt;Node414 -->
<g id="edge10" class="edge"><title>Node420&#45;&gt;Node414</title>
<path fill="none" stroke="midnightblue" d="M516.828,-408.465C522,-405.985 526.934,-402.88 531,-399 587.167,-345.4 610.137,-250.927 617.779,-209.922"/>
<polygon fill="midnightblue" stroke="midnightblue" points="621.265,-210.307 619.542,-199.853 614.369,-209.099 621.265,-210.307"/>
</g>
<!-- Node421 -->
<g id="node11" class="node"><title>Node421</title>
<g id="a_node11"><a xlink:href="heatshrink__encoder_8c.html#a52bfbd33b20249a9f61813fc28c64e57" target="_top" xlink:title="backlog_is_partial">
<polygon fill="white" stroke="black" points="574.5,-370.5 574.5,-389.5 669.5,-389.5 669.5,-370.5 574.5,-370.5"/>
<text text-anchor="middle" x="622" y="-377.5" font-family="Helvetica,sans-Serif" font-size="10.00">backlog_is_partial</text>
</a>
</g>
</g>
<!-- Node420&#45;&gt;Node421 -->
<g id="edge11" class="edge"><title>Node420&#45;&gt;Node421</title>
<path fill="none" stroke="midnightblue" d="M515.954,-408.411C534.091,-403.506 556.368,-397.48 575.733,-392.243"/>
<polygon fill="midnightblue" stroke="midnightblue" points="576.818,-395.575 585.557,-389.586 574.99,-388.818 576.818,-395.575"/>
</g>
<!-- Node422&#45;&gt;Node413 -->
<g id="edge16" class="edge"><title>Node422&#45;&gt;Node413</title>
<path fill="none" stroke="midnightblue" d="M354.184,-247.402C364.396,-238.883 379.504,-225.968 392,-214 408.801,-197.908 409.175,-189.669 428,-176 433.155,-172.257 438.985,-168.856 444.806,-165.868"/>
<polygon fill="midnightblue" stroke="midnightblue" points="446.351,-169.008 453.847,-161.521 443.318,-162.699 446.351,-169.008"/>
</g>
<!-- Node422&#45;&gt;Node414 -->
<g id="edge13" class="edge"><title>Node422&#45;&gt;Node414</title>
<path fill="none" stroke="midnightblue" d="M355.618,-247.329C371.749,-236.003 400.395,-217.686 428,-209 469.54,-195.93 518.37,-191.216 556.521,-189.752"/>
<polygon fill="midnightblue" stroke="midnightblue" points="557.099,-193.236 566.983,-189.421 556.878,-186.239 557.099,-193.236"/>
</g>
<!-- Node422&#45;&gt;Node418 -->
<g id="edge15" class="edge"><title>Node422&#45;&gt;Node418</title>
<path fill="none" stroke="midnightblue" d="M348.75,-266.613C361.604,-285.769 392.774,-329.163 428,-356 432.848,-359.693 438.355,-363.018 443.907,-365.934"/>
<polygon fill="midnightblue" stroke="midnightblue" points="442.659,-369.219 453.183,-370.447 445.722,-362.925 442.659,-369.219"/>
</g>
<!-- Node422&#45;&gt;Node421 -->
<g id="edge18" class="edge"><title>Node422&#45;&gt;Node421</title>
<path fill="none" stroke="midnightblue" d="M352.433,-266.699C367.549,-280.96 397.775,-307.56 428,-323 471.454,-345.198 524.938,-360.141 564.575,-369.137"/>
<polygon fill="midnightblue" stroke="midnightblue" points="563.82,-372.555 574.34,-371.297 565.332,-365.72 563.82,-372.555"/>
</g>
<!-- Node423 -->
<g id="node13" class="node"><title>Node423</title>
<g id="a_node13"><a xlink:href="heatshrink__encoder_8c.html#a69da5fdbae8296d5c7190ab953de134d" target="_top" xlink:title="get_lookahead_size">
<polygon fill="white" stroke="black" points="428,-294.5 428,-313.5 531,-313.5 531,-294.5 428,-294.5"/>
<text text-anchor="middle" x="479.5" y="-301.5" font-family="Helvetica,sans-Serif" font-size="10.00">get_lookahead_size</text>
</a>
</g>
</g>
<!-- Node422&#45;&gt;Node423 -->
<g id="edge14" class="edge"><title>Node422&#45;&gt;Node423</title>
<path fill="none" stroke="midnightblue" d="M370.022,-266.511C390.44,-273.568 418.515,-283.27 440.987,-291.036"/>
<polygon fill="midnightblue" stroke="midnightblue" points="439.958,-294.383 450.553,-294.342 442.244,-287.767 439.958,-294.383"/>
</g>
<!-- Node424 -->
<g id="node14" class="node"><title>Node424</title>
<g id="a_node14"><a xlink:href="heatshrink__encoder_8c.html#afb59e31aab4a22a8b9640824e9da7426" target="_top" xlink:title="backlog_is_filled">
<polygon fill="white" stroke="black" points="435,-256.5 435,-275.5 524,-275.5 524,-256.5 435,-256.5"/>
<text text-anchor="middle" x="479.5" y="-263.5" font-family="Helvetica,sans-Serif" font-size="10.00">backlog_is_filled</text>
</a>
</g>
</g>
<!-- Node422&#45;&gt;Node424 -->
<g id="edge17" class="edge"><title>Node422&#45;&gt;Node424</title>
<path fill="none" stroke="midnightblue" d="M383.304,-259.7C396.273,-260.559 410.822,-261.521 424.568,-262.431"/>
<polygon fill="midnightblue" stroke="midnightblue" points="424.675,-265.946 434.884,-263.114 425.137,-258.961 424.675,-265.946"/>
</g>
<!-- Node425 -->
<g id="node15" class="node"><title>Node425</title>
<g id="a_node15"><a xlink:href="heatshrink__encoder_8c.html#a48adb993f0964026473c63b9667f8191" target="_top" xlink:title="find_longest_match">
<polygon fill="white" stroke="black" points="429,-218.5 429,-237.5 530,-237.5 530,-218.5 429,-218.5"/>
<text text-anchor="middle" x="479.5" y="-225.5" font-family="Helvetica,sans-Serif" font-size="10.00">find_longest_match</text>
</a>
</g>
</g>
<!-- Node422&#45;&gt;Node425 -->
<g id="edge19" class="edge"><title>Node422&#45;&gt;Node425</title>
<path fill="none" stroke="midnightblue" d="M383.304,-248.299C396.024,-245.587 410.263,-242.551 423.774,-239.67"/>
<polygon fill="midnightblue" stroke="midnightblue" points="424.877,-243.013 433.927,-237.504 423.417,-236.167 424.877,-243.013"/>
</g>
<!-- Node426&#45;&gt;Node416 -->
<g id="edge21" class="edge"><title>Node426&#45;&gt;Node416</title>
<path fill="none" stroke="midnightblue" d="M241.062,-19.589C258.073,-24.4494 278.932,-30.4091 297.145,-35.6127"/>
<polygon fill="midnightblue" stroke="midnightblue" points="296.372,-39.0321 306.949,-38.4141 298.296,-32.3014 296.372,-39.0321"/>
</g>
<!-- Node427 -->
<g id="node17" class="node"><title>Node427</title>
<g id="a_node17"><a xlink:href="heatshrink__encoder_8c.html#ac7c4eed81d350c335b605fa016466f82" target="_top" xlink:title="push_outgoing_bits">
<polygon fill="white" stroke="black" points="291,-0.5 291,-19.5 392,-19.5 392,-0.5 291,-0.5"/>
<text text-anchor="middle" x="341.5" y="-7.5" font-family="Helvetica,sans-Serif" font-size="10.00">push_outgoing_bits</text>
</a>
</g>
</g>
<!-- Node426&#45;&gt;Node427 -->
<g id="edge22" class="edge"><title>Node426&#45;&gt;Node427</title>
<path fill="none" stroke="midnightblue" d="M252.528,-10C261.604,-10 271.278,-10 280.766,-10"/>
<polygon fill="midnightblue" stroke="midnightblue" points="280.952,-13.5001 290.952,-10 280.952,-6.5001 280.952,-13.5001"/>
</g>
<!-- Node428 -->
<g id="node18" class="node"><title>Node428</title>
<g id="a_node18"><a xlink:href="heatshrink__encoder_8c.html#a5219dc6b7b93fcd90ee72f9948c58f54" target="_top" xlink:title="push_bits">
<polygon fill="white" stroke="black" points="450,-76.5 450,-95.5 509,-95.5 509,-76.5 450,-76.5"/>
<text text-anchor="middle" x="479.5" y="-83.5" font-family="Helvetica,sans-Serif" font-size="10.00">push_bits</text>
</a>
</g>
</g>
<!-- Node427&#45;&gt;Node428 -->
<g id="edge23" class="edge"><title>Node427&#45;&gt;Node428</title>
<path fill="none" stroke="midnightblue" d="M370.453,-19.5202C377.612,-22.2841 385.204,-25.5087 392,-29 415.567,-41.1071 440.656,-58.1561 457.71,-70.4497"/>
<polygon fill="midnightblue" stroke="midnightblue" points="455.706,-73.3203 465.845,-76.3937 459.836,-67.6681 455.706,-73.3203"/>
</g>
<!-- Node429&#45;&gt;Node416 -->
<g id="edge25" class="edge"><title>Node429&#45;&gt;Node416</title>
<path fill="none" stroke="midnightblue" d="M254.017,-48C266.073,-48 279.094,-48 291.283,-48"/>
<polygon fill="midnightblue" stroke="midnightblue" points="291.287,-51.5001 301.287,-48 291.287,-44.5001 291.287,-51.5001"/>
</g>
<!-- Node429&#45;&gt;Node427 -->
<g id="edge26" class="edge"><title>Node429&#45;&gt;Node427</title>
<path fill="none" stroke="midnightblue" d="M241.062,-38.411C258.073,-33.5506 278.932,-27.5909 297.145,-22.3873"/>
<polygon fill="midnightblue" stroke="midnightblue" points="298.296,-25.6986 306.949,-19.5859 296.372,-18.9679 298.296,-25.6986"/>
</g>
<!-- Node430&#45;&gt;Node416 -->
<g id="edge28" class="edge"><title>Node430&#45;&gt;Node416</title>
<path fill="none" stroke="midnightblue" d="M241.078,-152.301C246.133,-149.831 250.988,-146.772 255,-143 282.233,-117.401 263.588,-92.4071 291,-67 292.7,-65.4239 294.545,-63.974 296.49,-62.6408"/>
<polygon fill="midnightblue" stroke="midnightblue" points="298.55,-65.496 305.515,-57.5126 295.092,-59.4099 298.55,-65.496"/>
</g>
<!-- Node431 -->
<g id="node21" class="node"><title>Node431</title>
<g id="a_node21"><a xlink:href="heatshrink__encoder_8c.html#aa6b6e74207f47dbfc49a8d7c640ef9cd" target="_top" xlink:title="push_literal_byte">
<polygon fill="white" stroke="black" points="296.5,-152.5 296.5,-171.5 386.5,-171.5 386.5,-152.5 296.5,-152.5"/>
<text text-anchor="middle" x="341.5" y="-159.5" font-family="Helvetica,sans-Serif" font-size="10.00">push_literal_byte</text>
</a>
</g>
</g>
<!-- Node430&#45;&gt;Node431 -->
<g id="edge29" class="edge"><title>Node430&#45;&gt;Node431</title>
<path fill="none" stroke="midnightblue" d="M246.327,-162C258.791,-162 272.834,-162 286.196,-162"/>
<polygon fill="midnightblue" stroke="midnightblue" points="286.245,-165.5 296.245,-162 286.245,-158.5 286.245,-165.5"/>
</g>
<!-- Node432 -->
<g id="node22" class="node"><title>Node432</title>
<g id="a_node22"><a xlink:href="heatshrink__encoder_8c.html#a3609038125fab3c5b7a5914490d82fa2" target="_top" xlink:title="on_final_literal">
<polygon fill="white" stroke="black" points="302,-114.5 302,-133.5 381,-133.5 381,-114.5 302,-114.5"/>
<text text-anchor="middle" x="341.5" y="-121.5" font-family="Helvetica,sans-Serif" font-size="10.00">on_final_literal</text>
</a>
</g>
</g>
<!-- Node430&#45;&gt;Node432 -->
<g id="edge32" class="edge"><title>Node430&#45;&gt;Node432</title>
<path fill="none" stroke="midnightblue" d="M241.062,-152.411C258.073,-147.551 278.932,-141.591 297.145,-136.387"/>
<polygon fill="midnightblue" stroke="midnightblue" points="298.296,-139.699 306.949,-133.586 296.372,-132.968 298.296,-139.699"/>
</g>
<!-- Node431&#45;&gt;Node413 -->
<g id="edge30" class="edge"><title>Node431&#45;&gt;Node413</title>
<path fill="none" stroke="midnightblue" d="M386.655,-158.753C399.263,-157.826 413.122,-156.807 426.168,-155.848"/>
<polygon fill="midnightblue" stroke="midnightblue" points="426.7,-159.318 436.416,-155.094 426.186,-152.337 426.7,-159.318"/>
</g>
<!-- Node431&#45;&gt;Node428 -->
<g id="edge31" class="edge"><title>Node431&#45;&gt;Node428</title>
<path fill="none" stroke="midnightblue" d="M370.453,-152.48C377.612,-149.716 385.204,-146.491 392,-143 415.567,-130.893 440.656,-113.844 457.71,-101.55"/>
<polygon fill="midnightblue" stroke="midnightblue" points="459.836,-104.332 465.845,-95.6063 455.706,-98.6797 459.836,-104.332"/>
</g>
<!-- Node433&#45;&gt;Node416 -->
<g id="edge34" class="edge"><title>Node433&#45;&gt;Node416</title>
<path fill="none" stroke="midnightblue" d="M237.143,-114.443C243.299,-111.837 249.562,-108.692 255,-105 274.247,-91.9319 271.662,-79.9329 291,-67 293.88,-65.0739 296.983,-63.3034 300.182,-61.6844"/>
<polygon fill="midnightblue" stroke="midnightblue" points="301.688,-64.8446 309.343,-57.5196 298.791,-58.4723 301.688,-64.8446"/>
</g>
<!-- Node434 -->
<g id="node24" class="node"><title>Node434</title>
<g id="a_node24"><a xlink:href="heatshrink__encoder_8c.html#a5d06eacaa1ca17bfe5537537dffa9d6e" target="_top" xlink:title="add_tag_bit">
<polygon fill="white" stroke="black" points="308,-76.5 308,-95.5 375,-95.5 375,-76.5 308,-76.5"/>
<text text-anchor="middle" x="341.5" y="-83.5" font-family="Helvetica,sans-Serif" font-size="10.00">add_tag_bit</text>
</a>
</g>
</g>
<!-- Node433&#45;&gt;Node434 -->
<g id="edge35" class="edge"><title>Node433&#45;&gt;Node434</title>
<path fill="none" stroke="midnightblue" d="M241.062,-114.411C258.413,-109.454 279.766,-103.352 298.232,-98.0765"/>
<polygon fill="midnightblue" stroke="midnightblue" points="299.215,-101.436 307.869,-95.3232 297.292,-94.7052 299.215,-101.436"/>
</g>
<!-- Node434&#45;&gt;Node428 -->
<g id="edge36" class="edge"><title>Node434&#45;&gt;Node428</title>
<path fill="none" stroke="midnightblue" d="M375.075,-86C394.482,-86 419.228,-86 439.649,-86"/>
<polygon fill="midnightblue" stroke="midnightblue" points="439.882,-89.5001 449.882,-86 439.882,-82.5001 439.882,-89.5001"/>
</g>
</g>
</svg>
