<?xml version="1.0" encoding="UTF-8" standalone="no"?>
<!DOCTYPE svg PUBLIC "-//W3C//DTD SVG 1.1//EN"
 "http://www.w3.org/Graphics/SVG/1.1/DTD/svg11.dtd">
<!-- Generated by graphviz version 2.38.0 (20140413.2041)
 -->
<!-- Title: user/crypto/hmac&#45;sha256.h Pages: 1 -->
<svg width="1022pt" height="868pt"
 viewBox="0.00 0.00 1022.00 868.00" xmlns="http://www.w3.org/2000/svg" xmlns:xlink="http://www.w3.org/1999/xlink">
<g id="graph0" class="graph" transform="scale(1 1) rotate(0) translate(4 864)">
<title>user/crypto/hmac&#45;sha256.h</title>
<polygon fill="white" stroke="none" points="-4,4 -4,-864 1018,-864 1018,4 -4,4"/>
<!-- Node0 -->
<g id="node1" class="node"><title>Node0</title>
<polygon fill="#bfbfbf" stroke="black" points="768.5,-840.5 768.5,-859.5 903.5,-859.5 903.5,-840.5 768.5,-840.5"/>
<text text-anchor="middle" x="836" y="-847.5" font-family="Helvetica,sans-Serif" font-size="10.00">user/crypto/hmac&#45;sha256.h</text>
</g>
<!-- Node1 -->
<g id="node2" class="node"><title>Node1</title>
<g id="a_node2"><a xlink:href="esp8266_8h.html" target="_top" xlink:title="esp8266.h">
<polygon fill="white" stroke="black" points="631,-672.5 631,-691.5 693,-691.5 693,-672.5 631,-672.5"/>
<text text-anchor="middle" x="662" y="-679.5" font-family="Helvetica,sans-Serif" font-size="10.00">esp8266.h</text>
</a>
</g>
</g>
<!-- Node0&#45;&gt;Node1 -->
<g id="edge1" class="edge"><title>Node0&#45;&gt;Node1</title>
<path fill="none" stroke="midnightblue" d="M812.403,-840.359C793.796,-832.752 767.918,-820.339 749,-804 713.736,-773.543 685.031,-726.055 671.11,-700.572"/>
<polygon fill="midnightblue" stroke="midnightblue" points="674.16,-698.855 666.366,-691.679 667.984,-702.149 674.16,-698.855"/>
</g>
<!-- Node7 -->
<g id="node8" class="node"><title>Node7</title>
<polygon fill="white" stroke="#bfbfbf" points="951.5,-0.5 951.5,-19.5 1000.5,-19.5 1000.5,-0.5 951.5,-0.5"/>
<text text-anchor="middle" x="976" y="-7.5" font-family="Helvetica,sans-Serif" font-size="10.00">stdint.h</text>
</g>
<!-- Node0&#45;&gt;Node7 -->
<g id="edge43" class="edge"><title>Node0&#45;&gt;Node7</title>
<path fill="none" stroke="midnightblue" d="M885.11,-840.467C937.797,-828.163 1014,-799.849 1014,-739 1014,-739 1014,-739 1014,-121 1014,-86.8131 997.4,-49.7639 986.143,-28.5707"/>
<polygon fill="midnightblue" stroke="midnightblue" points="989.181,-26.832 981.284,-19.769 983.053,-30.2151 989.181,-26.832"/>
</g>
<!-- Node30 -->
<g id="node31" class="node"><title>Node30</title>
<g id="a_node31"><a xlink:href="crypto_8h.html" target="_top" xlink:title="crypto/crypto.h">
<polygon fill="white" stroke="black" points="791,-728.5 791,-747.5 873,-747.5 873,-728.5 791,-728.5"/>
<text text-anchor="middle" x="832" y="-735.5" font-family="Helvetica,sans-Serif" font-size="10.00">crypto/crypto.h</text>
</a>
</g>
</g>
<!-- Node0&#45;&gt;Node30 -->
<g id="edge44" class="edge"><title>Node0&#45;&gt;Node30</title>
<path fill="none" stroke="midnightblue" d="M841.025,-840.22C847.521,-827.777 857.497,-804.27 853,-784 850.876,-774.426 846.493,-764.476 842.279,-756.374"/>
<polygon fill="midnightblue" stroke="midnightblue" points="845.298,-754.601 837.384,-747.557 839.178,-757.999 845.298,-754.601"/>
</g>
<!-- Node31 -->
<g id="node32" class="node"><title>Node31</title>
<g id="a_node32"><a xlink:href="sha256_8h.html" target="_top" xlink:title="crypto/sha256.h">
<polygon fill="white" stroke="black" points="758,-784.5 758,-803.5 844,-803.5 844,-784.5 758,-784.5"/>
<text text-anchor="middle" x="801" y="-791.5" font-family="Helvetica,sans-Serif" font-size="10.00">crypto/sha256.h</text>
</a>
</g>
</g>
<!-- Node0&#45;&gt;Node31 -->
<g id="edge47" class="edge"><title>Node0&#45;&gt;Node31</title>
<path fill="none" stroke="midnightblue" d="M830.22,-840.083C825.328,-832.534 818.173,-821.495 812.167,-812.23"/>
<polygon fill="midnightblue" stroke="midnightblue" points="815.048,-810.239 806.672,-803.751 809.174,-814.046 815.048,-810.239"/>
</g>
<!-- Node2 -->
<g id="node3" class="node"><title>Node2</title>
<polygon fill="white" stroke="#bfbfbf" points="296.5,-616.5 296.5,-635.5 345.5,-635.5 345.5,-616.5 296.5,-616.5"/>
<text text-anchor="middle" x="321" y="-623.5" font-family="Helvetica,sans-Serif" font-size="10.00">ctype.h</text>
</g>
<!-- Node1&#45;&gt;Node2 -->
<g id="edge2" class="edge"><title>Node1&#45;&gt;Node2</title>
<path fill="none" stroke="midnightblue" d="M630.997,-677.201C576.132,-670.296 458.434,-654.661 360,-636 358.549,-635.725 357.071,-635.434 355.579,-635.13"/>
<polygon fill="midnightblue" stroke="midnightblue" points="356.208,-631.686 345.696,-633.008 354.738,-638.53 356.208,-631.686"/>
</g>
<!-- Node3 -->
<g id="node4" class="node"><title>Node3</title>
<polygon fill="white" stroke="#bfbfbf" points="902,-616.5 902,-635.5 948,-635.5 948,-616.5 902,-616.5"/>
<text text-anchor="middle" x="925" y="-623.5" font-family="Helvetica,sans-Serif" font-size="10.00">stdio.h</text>
</g>
<!-- Node1&#45;&gt;Node3 -->
<g id="edge3" class="edge"><title>Node1&#45;&gt;Node3</title>
<path fill="none" stroke="midnightblue" d="M693.16,-675.225C736.828,-667.034 818.663,-651.329 888,-636 889.271,-635.719 890.565,-635.428 891.871,-635.13"/>
<polygon fill="midnightblue" stroke="midnightblue" points="893.006,-638.459 901.942,-632.767 891.407,-631.644 893.006,-638.459"/>
</g>
<!-- Node4 -->
<g id="node5" class="node"><title>Node4</title>
<polygon fill="white" stroke="#bfbfbf" points="440,-616.5 440,-635.5 488,-635.5 488,-616.5 440,-616.5"/>
<text text-anchor="middle" x="464" y="-623.5" font-family="Helvetica,sans-Serif" font-size="10.00">stdlib.h</text>
</g>
<!-- Node1&#45;&gt;Node4 -->
<g id="edge4" class="edge"><title>Node1&#45;&gt;Node4</title>
<path fill="none" stroke="midnightblue" d="M630.626,-672.444C594.445,-662.576 535.18,-646.413 497.945,-636.258"/>
<polygon fill="midnightblue" stroke="midnightblue" points="498.633,-632.818 488.065,-633.563 496.791,-639.571 498.633,-632.818"/>
</g>
<!-- Node5 -->
<g id="node6" class="node"><title>Node5</title>
<polygon fill="white" stroke="#bfbfbf" points="591.5,-168.5 591.5,-187.5 640.5,-187.5 640.5,-168.5 591.5,-168.5"/>
<text text-anchor="middle" x="616" y="-175.5" font-family="Helvetica,sans-Serif" font-size="10.00">string.h</text>
</g>
<!-- Node1&#45;&gt;Node5 -->
<g id="edge5" class="edge"><title>Node1&#45;&gt;Node5</title>
<path fill="none" stroke="midnightblue" d="M693.318,-674.104C713.599,-667.84 738.484,-656.353 751,-636 755.656,-628.428 751.993,-624.833 751,-616 745.857,-570.25 728,-561.038 728,-515 728,-515 728,-515 728,-289 728,-242.614 678.495,-209.285 645.31,-192.155"/>
<polygon fill="midnightblue" stroke="midnightblue" points="646.538,-188.857 636.023,-187.558 643.433,-195.131 646.538,-188.857"/>
</g>
<!-- Node6 -->
<g id="node7" class="node"><title>Node6</title>
<g id="a_node7"><a xlink:href="c__types_8h.html" target="_top" xlink:title="c_types.h">
<polygon fill="white" stroke="black" points="806.5,-56.5 806.5,-75.5 865.5,-75.5 865.5,-56.5 806.5,-56.5"/>
<text text-anchor="middle" x="836" y="-63.5" font-family="Helvetica,sans-Serif" font-size="10.00">c_types.h</text>
</a>
</g>
</g>
<!-- Node1&#45;&gt;Node6 -->
<g id="edge6" class="edge"><title>Node1&#45;&gt;Node6</title>
<path fill="none" stroke="midnightblue" d="M693.164,-677.475C741.379,-671.415 830.918,-657.557 854,-636 876.09,-615.369 874,-601.225 874,-571 874,-571 874,-571 874,-177 874,-142.813 857.4,-105.764 846.143,-84.5707"/>
<polygon fill="midnightblue" stroke="midnightblue" points="849.181,-82.832 841.284,-75.769 843.053,-86.2151 849.181,-82.832"/>
</g>
<!-- Node9 -->
<g id="node10" class="node"><title>Node9</title>
<g id="a_node10"><a xlink:href="ets__sys_8h.html" target="_top" xlink:title="ets_sys.h">
<polygon fill="white" stroke="black" points="232.5,-112.5 232.5,-131.5 291.5,-131.5 291.5,-112.5 232.5,-112.5"/>
<text text-anchor="middle" x="262" y="-119.5" font-family="Helvetica,sans-Serif" font-size="10.00">ets_sys.h</text>
</a>
</g>
</g>
<!-- Node1&#45;&gt;Node9 -->
<g id="edge9" class="edge"><title>Node1&#45;&gt;Node9</title>
<path fill="none" stroke="midnightblue" d="M630.768,-680.726C553.755,-679.478 348.971,-672.676 183,-636 98.7216,-617.376 0,-657.312 0,-571 0,-571 0,-571 0,-233 0,-137.785 148.926,-123.616 222.217,-122.408"/>
<polygon fill="midnightblue" stroke="midnightblue" points="222.487,-125.906 232.455,-122.316 222.423,-118.906 222.487,-125.906"/>
</g>
<!-- Node11 -->
<g id="node12" class="node"><title>Node11</title>
<g id="a_node12"><a xlink:href="gpio_8h.html" target="_top" xlink:title="gpio.h">
<polygon fill="white" stroke="black" points="352.5,-560.5 352.5,-579.5 395.5,-579.5 395.5,-560.5 352.5,-560.5"/>
<text text-anchor="middle" x="374" y="-567.5" font-family="Helvetica,sans-Serif" font-size="10.00">gpio.h</text>
</a>
</g>
</g>
<!-- Node1&#45;&gt;Node11 -->
<g id="edge12" class="edge"><title>Node1&#45;&gt;Node11</title>
<path fill="none" stroke="midnightblue" d="M630.594,-679.513C568.49,-675.967 432.966,-665.033 398,-636 384.283,-624.61 378.404,-604.62 375.886,-589.807"/>
<polygon fill="midnightblue" stroke="midnightblue" points="379.331,-589.166 374.541,-579.716 372.393,-590.091 379.331,-589.166"/>
</g>
<!-- Node12 -->
<g id="node13" class="node"><title>Node12</title>
<g id="a_node13"><a xlink:href="sdk_2include_2mem_8h.html" target="_top" xlink:title="mem.h">
<polygon fill="white" stroke="black" points="798.5,-616.5 798.5,-635.5 845.5,-635.5 845.5,-616.5 798.5,-616.5"/>
<text text-anchor="middle" x="822" y="-623.5" font-family="Helvetica,sans-Serif" font-size="10.00">mem.h</text>
</a>
</g>
</g>
<!-- Node1&#45;&gt;Node12 -->
<g id="edge13" class="edge"><title>Node1&#45;&gt;Node12</title>
<path fill="none" stroke="midnightblue" d="M687.352,-672.444C714.744,-663.199 758.509,-648.428 788.668,-638.25"/>
<polygon fill="midnightblue" stroke="midnightblue" points="789.975,-641.502 798.331,-634.988 787.737,-634.87 789.975,-641.502"/>
</g>
<!-- Node14 -->
<g id="node15" class="node"><title>Node14</title>
<g id="a_node15"><a xlink:href="osapi_8h.html" target="_top" xlink:title="osapi.h">
<polygon fill="white" stroke="black" points="367,-224.5 367,-243.5 415,-243.5 415,-224.5 367,-224.5"/>
<text text-anchor="middle" x="391" y="-231.5" font-family="Helvetica,sans-Serif" font-size="10.00">osapi.h</text>
</a>
</g>
</g>
<!-- Node1&#45;&gt;Node14 -->
<g id="edge16" class="edge"><title>Node1&#45;&gt;Node14</title>
<path fill="none" stroke="midnightblue" d="M630.859,-679.405C574.146,-675.81 457.417,-664.994 431,-636 405.003,-607.466 394.102,-330.111 391.589,-254.15"/>
<polygon fill="midnightblue" stroke="midnightblue" points="395.075,-253.64 391.257,-243.757 388.078,-253.864 395.075,-253.64"/>
</g>
<!-- Node17 -->
<g id="node18" class="node"><title>Node17</title>
<g id="a_node18"><a xlink:href="user__interface_8h.html" target="_top" xlink:title="user_interface.h">
<polygon fill="white" stroke="black" points="192,-616.5 192,-635.5 278,-635.5 278,-616.5 192,-616.5"/>
<text text-anchor="middle" x="235" y="-623.5" font-family="Helvetica,sans-Serif" font-size="10.00">user_interface.h</text>
</a>
</g>
</g>
<!-- Node1&#45;&gt;Node17 -->
<g id="edge21" class="edge"><title>Node1&#45;&gt;Node17</title>
<path fill="none" stroke="midnightblue" d="M630.814,-677.812C567.998,-671.271 421.546,-655.421 288.095,-636.095"/>
<polygon fill="midnightblue" stroke="midnightblue" points="288.503,-632.617 278.103,-634.638 287.493,-639.544 288.503,-632.617"/>
</g>
<!-- Node27 -->
<g id="node28" class="node"><title>Node27</title>
<g id="a_node28"><a xlink:href="upgrade_8h.html" target="_top" xlink:title="upgrade.h">
<polygon fill="white" stroke="black" points="506.5,-616.5 506.5,-635.5 565.5,-635.5 565.5,-616.5 506.5,-616.5"/>
<text text-anchor="middle" x="536" y="-623.5" font-family="Helvetica,sans-Serif" font-size="10.00">upgrade.h</text>
</a>
</g>
</g>
<!-- Node1&#45;&gt;Node27 -->
<g id="edge40" class="edge"><title>Node1&#45;&gt;Node27</title>
<path fill="none" stroke="midnightblue" d="M642.035,-672.444C621.391,-663.596 588.937,-649.687 565.368,-639.586"/>
<polygon fill="midnightblue" stroke="midnightblue" points="566.442,-636.239 555.872,-635.516 563.684,-642.673 566.442,-636.239"/>
</g>
<!-- Node28 -->
<g id="node29" class="node"><title>Node28</title>
<g id="a_node29"><a xlink:href="esp__sdk__ver_8h.html" target="_top" xlink:title="esp_sdk_ver.h">
<polygon fill="white" stroke="black" points="584,-616.5 584,-635.5 664,-635.5 664,-616.5 584,-616.5"/>
<text text-anchor="middle" x="624" y="-623.5" font-family="Helvetica,sans-Serif" font-size="10.00">esp_sdk_ver.h</text>
</a>
</g>
</g>
<!-- Node1&#45;&gt;Node28 -->
<g id="edge41" class="edge"><title>Node1&#45;&gt;Node28</title>
<path fill="none" stroke="midnightblue" d="M655.725,-672.083C650.358,-664.455 642.482,-653.264 635.921,-643.941"/>
<polygon fill="midnightblue" stroke="midnightblue" points="638.775,-641.915 630.158,-635.751 633.051,-645.943 638.775,-641.915"/>
</g>
<!-- Node29 -->
<g id="node30" class="node"><title>Node29</title>
<g id="a_node30"><a xlink:href="platform_8h.html" target="_top" xlink:title="platform.h">
<polygon fill="white" stroke="black" points="682,-616.5 682,-635.5 742,-635.5 742,-616.5 682,-616.5"/>
<text text-anchor="middle" x="712" y="-623.5" font-family="Helvetica,sans-Serif" font-size="10.00">platform.h</text>
</a>
</g>
</g>
<!-- Node1&#45;&gt;Node29 -->
<g id="edge42" class="edge"><title>Node1&#45;&gt;Node29</title>
<path fill="none" stroke="midnightblue" d="M670.256,-672.083C677.465,-664.298 688.11,-652.801 696.846,-643.367"/>
<polygon fill="midnightblue" stroke="midnightblue" points="699.671,-645.467 703.897,-635.751 694.535,-640.711 699.671,-645.467"/>
</g>
<!-- Node6&#45;&gt;Node7 -->
<g id="edge7" class="edge"><title>Node6&#45;&gt;Node7</title>
<path fill="none" stroke="midnightblue" d="M858.183,-56.4435C881.428,-47.4776 918.149,-33.314 944.415,-23.1827"/>
<polygon fill="midnightblue" stroke="midnightblue" points="945.85,-26.3807 953.92,-19.5164 943.331,-19.8497 945.85,-26.3807"/>
</g>
<!-- Node8 -->
<g id="node9" class="node"><title>Node8</title>
<polygon fill="white" stroke="#bfbfbf" points="808,-0.5 808,-19.5 864,-19.5 864,-0.5 808,-0.5"/>
<text text-anchor="middle" x="836" y="-7.5" font-family="Helvetica,sans-Serif" font-size="10.00">stdbool.h</text>
</g>
<!-- Node6&#45;&gt;Node8 -->
<g id="edge8" class="edge"><title>Node6&#45;&gt;Node8</title>
<path fill="none" stroke="midnightblue" d="M836,-56.083C836,-49.0059 836,-38.8611 836,-29.9865"/>
<polygon fill="midnightblue" stroke="midnightblue" points="839.5,-29.751 836,-19.7511 832.5,-29.7511 839.5,-29.751"/>
</g>
<!-- Node9&#45;&gt;Node6 -->
<g id="edge10" class="edge"><title>Node9&#45;&gt;Node6</title>
<path fill="none" stroke="midnightblue" d="M291.761,-116.411C302.25,-114.884 314.134,-113.254 325,-112 500.167,-91.7902 710.042,-75.9241 796.161,-69.7715"/>
<polygon fill="midnightblue" stroke="midnightblue" points="796.552,-73.2525 806.279,-69.0527 796.056,-66.2701 796.552,-73.2525"/>
</g>
<!-- Node10 -->
<g id="node11" class="node"><title>Node10</title>
<g id="a_node11"><a xlink:href="eagle__soc_8h.html" target="_top" xlink:title="eagle_soc.h">
<polygon fill="white" stroke="black" points="227.5,-56.5 227.5,-75.5 296.5,-75.5 296.5,-56.5 227.5,-56.5"/>
<text text-anchor="middle" x="262" y="-63.5" font-family="Helvetica,sans-Serif" font-size="10.00">eagle_soc.h</text>
</a>
</g>
</g>
<!-- Node9&#45;&gt;Node10 -->
<g id="edge11" class="edge"><title>Node9&#45;&gt;Node10</title>
<path fill="none" stroke="midnightblue" d="M262,-112.083C262,-105.006 262,-94.8611 262,-85.9865"/>
<polygon fill="midnightblue" stroke="midnightblue" points="265.5,-85.751 262,-75.7511 258.5,-85.7511 265.5,-85.751"/>
</g>
<!-- Node12&#45;&gt;Node6 -->
<g id="edge15" class="edge"><title>Node12&#45;&gt;Node6</title>
<path fill="none" stroke="midnightblue" d="M823.83,-616.489C827.625,-598.075 836,-553.118 836,-515 836,-515 836,-515 836,-177 836,-144.948 836,-107.643 836,-85.7489"/>
<polygon fill="midnightblue" stroke="midnightblue" points="839.5,-85.5577 836,-75.5578 832.5,-85.5578 839.5,-85.5577"/>
</g>
<!-- Node13 -->
<g id="node14" class="node"><title>Node13</title>
<polygon fill="white" stroke="#bfbfbf" points="756,-560.5 756,-579.5 808,-579.5 808,-560.5 756,-560.5"/>
<text text-anchor="middle" x="782" y="-567.5" font-family="Helvetica,sans-Serif" font-size="10.00">stddef.h</text>
</g>
<!-- Node12&#45;&gt;Node13 -->
<g id="edge14" class="edge"><title>Node12&#45;&gt;Node13</title>
<path fill="none" stroke="midnightblue" d="M815.395,-616.083C809.745,-608.455 801.455,-597.264 794.549,-587.941"/>
<polygon fill="midnightblue" stroke="midnightblue" points="797.247,-585.703 788.482,-579.751 791.622,-589.87 797.247,-585.703"/>
</g>
<!-- Node14&#45;&gt;Node5 -->
<g id="edge17" class="edge"><title>Node14&#45;&gt;Node5</title>
<path fill="none" stroke="midnightblue" d="M415.079,-227.221C455.129,-217.609 535.569,-198.303 581.593,-187.258"/>
<polygon fill="midnightblue" stroke="midnightblue" points="582.505,-190.638 591.412,-184.901 580.871,-183.832 582.505,-190.638"/>
</g>
<!-- Node15 -->
<g id="node16" class="node"><title>Node15</title>
<g id="a_node16"><a xlink:href="os__type_8h.html" target="_top" xlink:title="os_type.h">
<polygon fill="white" stroke="black" points="213.5,-168.5 213.5,-187.5 272.5,-187.5 272.5,-168.5 213.5,-168.5"/>
<text text-anchor="middle" x="243" y="-175.5" font-family="Helvetica,sans-Serif" font-size="10.00">os_type.h</text>
</a>
</g>
</g>
<!-- Node14&#45;&gt;Node15 -->
<g id="edge18" class="edge"><title>Node14&#45;&gt;Node15</title>
<path fill="none" stroke="midnightblue" d="M367.549,-224.444C342.867,-215.438 303.815,-201.189 276.023,-191.049"/>
<polygon fill="midnightblue" stroke="midnightblue" points="276.935,-187.656 266.341,-187.516 274.536,-194.232 276.935,-187.656"/>
</g>
<!-- Node16 -->
<g id="node17" class="node"><title>Node16</title>
<polygon fill="white" stroke="#bfbfbf" points="386.5,-168.5 386.5,-187.5 461.5,-187.5 461.5,-168.5 386.5,-168.5"/>
<text text-anchor="middle" x="424" y="-175.5" font-family="Helvetica,sans-Serif" font-size="10.00">user_config.h</text>
</g>
<!-- Node14&#45;&gt;Node16 -->
<g id="edge20" class="edge"><title>Node14&#45;&gt;Node16</title>
<path fill="none" stroke="midnightblue" d="M396.449,-224.083C401.014,-216.613 407.668,-205.724 413.293,-196.52"/>
<polygon fill="midnightblue" stroke="midnightblue" points="416.424,-198.109 418.652,-187.751 410.451,-194.459 416.424,-198.109"/>
</g>
<!-- Node15&#45;&gt;Node9 -->
<g id="edge19" class="edge"><title>Node15&#45;&gt;Node9</title>
<path fill="none" stroke="midnightblue" d="M246.137,-168.083C248.683,-160.849 252.356,-150.409 255.527,-141.397"/>
<polygon fill="midnightblue" stroke="midnightblue" points="258.903,-142.346 258.921,-131.751 252.3,-140.023 258.903,-142.346"/>
</g>
<!-- Node17&#45;&gt;Node11 -->
<g id="edge39" class="edge"><title>Node17&#45;&gt;Node11</title>
<path fill="none" stroke="midnightblue" d="M257.025,-616.444C280.104,-607.478 316.562,-593.314 342.641,-583.183"/>
<polygon fill="midnightblue" stroke="midnightblue" points="344.024,-586.4 352.078,-579.516 341.489,-579.875 344.024,-586.4"/>
</g>
<!-- Node17&#45;&gt;Node15 -->
<g id="edge22" class="edge"><title>Node17&#45;&gt;Node15</title>
<path fill="none" stroke="midnightblue" d="M191.894,-625.597C151.816,-623.787 93.0308,-614.73 57,-580 35.3301,-559.112 38,-545.098 38,-515 38,-515 38,-515 38,-289 38,-214.891 143.309,-190.507 202.971,-182.639"/>
<polygon fill="midnightblue" stroke="midnightblue" points="203.688,-186.078 213.191,-181.393 202.841,-179.129 203.688,-186.078"/>
</g>
<!-- Node17&#45;&gt;Node16 -->
<g id="edge37" class="edge"><title>Node17&#45;&gt;Node16</title>
<path fill="none" stroke="midnightblue" d="M251.412,-616.435C277.955,-601.601 329.68,-568.405 353,-524 412.692,-410.338 408.1,-371.394 424,-244 425.924,-228.584 425.779,-210.95 425.233,-197.942"/>
<polygon fill="midnightblue" stroke="midnightblue" points="428.724,-197.672 424.693,-187.874 421.734,-198.048 428.724,-197.672"/>
</g>
<!-- Node18 -->
<g id="node19" class="node"><title>Node18</title>
<g id="a_node19"><a xlink:href="esp-open-lwip_2include_2lwip_2ip__addr_8h.html" target="_top" xlink:title="lwip/ip_addr.h">
<polygon fill="white" stroke="black" points="218.5,-560.5 218.5,-579.5 295.5,-579.5 295.5,-560.5 218.5,-560.5"/>
<text text-anchor="middle" x="257" y="-567.5" font-family="Helvetica,sans-Serif" font-size="10.00">lwip/ip_addr.h</text>
</a>
</g>
</g>
<!-- Node17&#45;&gt;Node18 -->
<g id="edge23" class="edge"><title>Node17&#45;&gt;Node18</title>
<path fill="none" stroke="midnightblue" d="M238.633,-616.083C241.612,-608.77 245.926,-598.181 249.625,-589.103"/>
<polygon fill="midnightblue" stroke="midnightblue" points="252.903,-590.333 253.435,-579.751 246.42,-587.691 252.903,-590.333"/>
</g>
<!-- Node25 -->
<g id="node26" class="node"><title>Node25</title>
<g id="a_node26"><a xlink:href="esp-open-sdk_2sdk_2include_2queue_8h.html" target="_top" xlink:title="queue.h">
<polygon fill="white" stroke="black" points="66.5,-560.5 66.5,-579.5 117.5,-579.5 117.5,-560.5 66.5,-560.5"/>
<text text-anchor="middle" x="92" y="-567.5" font-family="Helvetica,sans-Serif" font-size="10.00">queue.h</text>
</a>
</g>
</g>
<!-- Node17&#45;&gt;Node25 -->
<g id="edge36" class="edge"><title>Node17&#45;&gt;Node25</title>
<path fill="none" stroke="midnightblue" d="M212.341,-616.444C188.598,-607.478 151.091,-593.314 124.262,-583.183"/>
<polygon fill="midnightblue" stroke="midnightblue" points="125.144,-579.775 114.553,-579.516 122.671,-586.324 125.144,-579.775"/>
</g>
<!-- Node26 -->
<g id="node27" class="node"><title>Node26</title>
<g id="a_node27"><a xlink:href="spi__flash_8h.html" target="_top" xlink:title="spi_flash.h">
<polygon fill="white" stroke="black" points="136,-560.5 136,-579.5 200,-579.5 200,-560.5 136,-560.5"/>
<text text-anchor="middle" x="168" y="-567.5" font-family="Helvetica,sans-Serif" font-size="10.00">spi_flash.h</text>
</a>
</g>
</g>
<!-- Node17&#45;&gt;Node26 -->
<g id="edge38" class="edge"><title>Node17&#45;&gt;Node26</title>
<path fill="none" stroke="midnightblue" d="M224.235,-616.324C214.234,-608.263 199.113,-596.077 187.07,-586.369"/>
<polygon fill="midnightblue" stroke="midnightblue" points="188.943,-583.384 178.961,-579.834 184.55,-588.834 188.943,-583.384"/>
</g>
<!-- Node19 -->
<g id="node20" class="node"><title>Node19</title>
<g id="a_node20"><a xlink:href="opt_8h.html" target="_top" xlink:title="lwip/opt.h">
<polygon fill="white" stroke="black" points="229.5,-448.5 229.5,-467.5 288.5,-467.5 288.5,-448.5 229.5,-448.5"/>
<text text-anchor="middle" x="259" y="-455.5" font-family="Helvetica,sans-Serif" font-size="10.00">lwip/opt.h</text>
</a>
</g>
</g>
<!-- Node18&#45;&gt;Node19 -->
<g id="edge24" class="edge"><title>Node18&#45;&gt;Node19</title>
<path fill="none" stroke="midnightblue" d="M257.157,-560.368C257.48,-542.617 258.224,-501.666 258.662,-477.597"/>
<polygon fill="midnightblue" stroke="midnightblue" points="262.161,-477.653 258.844,-467.591 255.162,-477.526 262.161,-477.653"/>
</g>
<!-- Node24 -->
<g id="node25" class="node"><title>Node24</title>
<g id="a_node25"><a xlink:href="def_8h.html" target="_top" xlink:title="lwip/def.h">
<polygon fill="white" stroke="black" points="285.5,-504.5 285.5,-523.5 344.5,-523.5 344.5,-504.5 285.5,-504.5"/>
<text text-anchor="middle" x="315" y="-511.5" font-family="Helvetica,sans-Serif" font-size="10.00">lwip/def.h</text>
</a>
</g>
</g>
<!-- Node18&#45;&gt;Node24 -->
<g id="edge33" class="edge"><title>Node18&#45;&gt;Node24</title>
<path fill="none" stroke="midnightblue" d="M266.319,-560.324C274.893,-552.341 287.812,-540.313 298.188,-530.653"/>
<polygon fill="midnightblue" stroke="midnightblue" points="300.578,-533.21 305.512,-523.834 295.808,-528.086 300.578,-533.21"/>
</g>
<!-- Node20 -->
<g id="node21" class="node"><title>Node20</title>
<g id="a_node21"><a xlink:href="lwipopts_8h.html" target="_top" xlink:title="lwipopts.h">
<polygon fill="white" stroke="black" points="189.5,-336.5 189.5,-355.5 250.5,-355.5 250.5,-336.5 189.5,-336.5"/>
<text text-anchor="middle" x="220" y="-343.5" font-family="Helvetica,sans-Serif" font-size="10.00">lwipopts.h</text>
</a>
</g>
</g>
<!-- Node19&#45;&gt;Node20 -->
<g id="edge25" class="edge"><title>Node19&#45;&gt;Node20</title>
<path fill="none" stroke="midnightblue" d="M246.219,-448.369C235.606,-440.36 221.269,-427.379 215,-412 208.992,-397.262 211.093,-379.102 214.208,-365.726"/>
<polygon fill="midnightblue" stroke="midnightblue" points="217.661,-366.365 216.906,-355.797 210.906,-364.529 217.661,-366.365"/>
</g>
<!-- Node21 -->
<g id="node22" class="node"><title>Node21</title>
<g id="a_node22"><a xlink:href="esp-open-sdk_2esp-open-lwip_2include_2lwip_2debug_8h.html" target="_top" xlink:title="lwip/debug.h">
<polygon fill="white" stroke="black" points="224.5,-392.5 224.5,-411.5 295.5,-411.5 295.5,-392.5 224.5,-392.5"/>
<text text-anchor="middle" x="260" y="-399.5" font-family="Helvetica,sans-Serif" font-size="10.00">lwip/debug.h</text>
</a>
</g>
</g>
<!-- Node19&#45;&gt;Node21 -->
<g id="edge26" class="edge"><title>Node19&#45;&gt;Node21</title>
<path fill="none" stroke="midnightblue" d="M259.165,-448.083C259.296,-441.006 259.484,-430.861 259.648,-421.986"/>
<polygon fill="midnightblue" stroke="midnightblue" points="263.152,-421.814 259.838,-411.751 256.153,-421.685 263.152,-421.814"/>
</g>
<!-- Node21&#45;&gt;Node20 -->
<g id="edge27" class="edge"><title>Node21&#45;&gt;Node20</title>
<path fill="none" stroke="midnightblue" d="M253.395,-392.083C247.745,-384.455 239.455,-373.264 232.549,-363.941"/>
<polygon fill="midnightblue" stroke="midnightblue" points="235.247,-361.703 226.482,-355.751 229.622,-365.87 235.247,-361.703"/>
</g>
<!-- Node22 -->
<g id="node23" class="node"><title>Node22</title>
<g id="a_node23"><a xlink:href="arch_8h.html" target="_top" xlink:title="lwip/arch.h">
<polygon fill="white" stroke="black" points="292,-336.5 292,-355.5 356,-355.5 356,-336.5 292,-336.5"/>
<text text-anchor="middle" x="324" y="-343.5" font-family="Helvetica,sans-Serif" font-size="10.00">lwip/arch.h</text>
</a>
</g>
</g>
<!-- Node21&#45;&gt;Node22 -->
<g id="edge28" class="edge"><title>Node21&#45;&gt;Node22</title>
<path fill="none" stroke="midnightblue" d="M270.283,-392.324C279.836,-384.263 294.28,-372.077 305.784,-362.369"/>
<polygon fill="midnightblue" stroke="midnightblue" points="308.144,-364.958 313.53,-355.834 303.63,-359.608 308.144,-364.958"/>
</g>
<!-- Node23 -->
<g id="node24" class="node"><title>Node23</title>
<g id="a_node24"><a xlink:href="cc_8h.html" target="_top" xlink:title="arch/cc.h">
<polygon fill="white" stroke="black" points="302.5,-280.5 302.5,-299.5 359.5,-299.5 359.5,-280.5 302.5,-280.5"/>
<text text-anchor="middle" x="331" y="-287.5" font-family="Helvetica,sans-Serif" font-size="10.00">arch/cc.h</text>
</a>
</g>
</g>
<!-- Node22&#45;&gt;Node23 -->
<g id="edge29" class="edge"><title>Node22&#45;&gt;Node23</title>
<path fill="none" stroke="midnightblue" d="M325.156,-336.083C326.084,-328.927 327.418,-318.635 328.577,-309.691"/>
<polygon fill="midnightblue" stroke="midnightblue" points="332.051,-310.118 329.866,-299.751 325.109,-309.218 332.051,-310.118"/>
</g>
<!-- Node23&#45;&gt;Node6 -->
<g id="edge30" class="edge"><title>Node23&#45;&gt;Node6</title>
<path fill="none" stroke="midnightblue" d="M331.568,-280.417C333.524,-258.166 341.953,-198.249 377,-168 440.322,-113.347 696.633,-81.4519 796.189,-70.9176"/>
<polygon fill="midnightblue" stroke="midnightblue" points="796.846,-74.3681 806.43,-69.851 796.121,-67.4057 796.846,-74.3681"/>
</g>
<!-- Node23&#45;&gt;Node9 -->
<g id="edge31" class="edge"><title>Node23&#45;&gt;Node9</title>
<path fill="none" stroke="midnightblue" d="M327.506,-280.482C319.39,-260.707 298.61,-210.157 281,-168 277.277,-159.087 273.105,-149.196 269.622,-140.963"/>
<polygon fill="midnightblue" stroke="midnightblue" points="272.786,-139.461 265.662,-131.619 266.341,-142.192 272.786,-139.461"/>
</g>
<!-- Node23&#45;&gt;Node14 -->
<g id="edge32" class="edge"><title>Node23&#45;&gt;Node14</title>
<path fill="none" stroke="midnightblue" d="M340.64,-280.324C349.51,-272.341 362.875,-260.313 373.608,-250.653"/>
<polygon fill="midnightblue" stroke="midnightblue" points="376.093,-253.125 381.185,-243.834 371.41,-247.922 376.093,-253.125"/>
</g>
<!-- Node24&#45;&gt;Node19 -->
<g id="edge35" class="edge"><title>Node24&#45;&gt;Node19</title>
<path fill="none" stroke="midnightblue" d="M306.003,-504.324C297.806,-496.42 285.494,-484.548 275.528,-474.938"/>
<polygon fill="midnightblue" stroke="midnightblue" points="277.789,-472.256 268.161,-467.834 272.93,-477.295 277.789,-472.256"/>
</g>
<!-- Node24&#45;&gt;Node22 -->
<g id="edge34" class="edge"><title>Node24&#45;&gt;Node22</title>
<path fill="none" stroke="midnightblue" d="M315.484,-504.075C316.901,-477.945 321.061,-401.211 322.993,-365.577"/>
<polygon fill="midnightblue" stroke="midnightblue" points="326.489,-365.743 323.535,-355.568 319.499,-365.364 326.489,-365.743"/>
</g>
<!-- Node30&#45;&gt;Node1 -->
<g id="edge45" class="edge"><title>Node30&#45;&gt;Node1</title>
<path fill="none" stroke="midnightblue" d="M805.063,-728.444C776.34,-719.32 730.671,-704.813 698.679,-694.651"/>
<polygon fill="midnightblue" stroke="midnightblue" points="699.401,-691.208 688.811,-691.516 697.282,-697.88 699.401,-691.208"/>
</g>
<!-- Node30&#45;&gt;Node3 -->
<g id="edge46" class="edge"><title>Node30&#45;&gt;Node3</title>
<path fill="none" stroke="midnightblue" d="M839.298,-728.368C854.781,-710.055 891.14,-667.049 911.166,-643.362"/>
<polygon fill="midnightblue" stroke="midnightblue" points="913.953,-645.488 917.736,-635.591 908.607,-640.968 913.953,-645.488"/>
</g>
<!-- Node31&#45;&gt;Node1 -->
<g id="edge48" class="edge"><title>Node31&#45;&gt;Node1</title>
<path fill="none" stroke="midnightblue" d="M790.093,-784.368C766.443,-765.653 710.209,-721.151 680.743,-697.832"/>
<polygon fill="midnightblue" stroke="midnightblue" points="682.87,-695.052 672.856,-691.591 678.526,-700.542 682.87,-695.052"/>
</g>
<!-- Node31&#45;&gt;Node7 -->
<g id="edge49" class="edge"><title>Node31&#45;&gt;Node7</title>
<path fill="none" stroke="midnightblue" d="M844.258,-785.387C896.081,-773.491 976,-745.082 976,-683 976,-683 976,-683 976,-121 976,-88.948 976,-51.6426 976,-29.7489"/>
<polygon fill="midnightblue" stroke="midnightblue" points="979.5,-29.5577 976,-19.5578 972.5,-29.5578 979.5,-29.5577"/>
</g>
<!-- Node31&#45;&gt;Node30 -->
<g id="edge50" class="edge"><title>Node31&#45;&gt;Node30</title>
<path fill="none" stroke="midnightblue" d="M806.119,-784.083C810.408,-776.613 816.658,-765.724 821.942,-756.52"/>
<polygon fill="midnightblue" stroke="midnightblue" points="825.033,-758.166 826.976,-747.751 818.962,-754.681 825.033,-758.166"/>
</g>
</g>
</svg>
