<?xml version="1.0" encoding="UTF-8" standalone="no"?>
<!DOCTYPE svg PUBLIC "-//W3C//DTD SVG 1.1//EN"
 "http://www.w3.org/Graphics/SVG/1.1/DTD/svg11.dtd">
<!-- Generated by graphviz version 2.38.0 (20140413.2041)
 -->
<!-- Title: httpd_user_init Pages: 1 -->
<svg width="763pt" height="389pt"
 viewBox="0.00 0.00 763.00 389.00" xmlns="http://www.w3.org/2000/svg" xmlns:xlink="http://www.w3.org/1999/xlink">
<g id="graph0" class="graph" transform="scale(1 1) rotate(0) translate(4 385)">
<title>httpd_user_init</title>
<polygon fill="white" stroke="none" points="-4,4 -4,-385 759,-385 759,4 -4,4"/>
<!-- Node0 -->
<g id="node1" class="node"><title>Node0</title>
<polygon fill="#bfbfbf" stroke="black" points="0,-256.5 0,-275.5 80,-275.5 80,-256.5 0,-256.5"/>
<text text-anchor="middle" x="40" y="-263.5" font-family="Helvetica,sans-Serif" font-size="10.00">httpd_user_init</text>
</g>
<!-- Node1 -->
<g id="node2" class="node"><title>Node1</title>
<g id="a_node2"><a xlink:href="httpd_8c.html#a74eb356c950228c2f024f081f7beb830" target="_top" xlink:title="httpdInit">
<polygon fill="white" stroke="black" points="116,-256.5 116,-275.5 168,-275.5 168,-256.5 116,-256.5"/>
<text text-anchor="middle" x="142" y="-263.5" font-family="Helvetica,sans-Serif" font-size="10.00">httpdInit</text>
</a>
</g>
</g>
<!-- Node0&#45;&gt;Node1 -->
<g id="edge1" class="edge"><title>Node0&#45;&gt;Node1</title>
<path fill="none" stroke="midnightblue" d="M80.2356,-266C88.6998,-266 97.596,-266 105.891,-266"/>
<polygon fill="midnightblue" stroke="midnightblue" points="105.998,-269.5 115.998,-266 105.998,-262.5 105.998,-269.5"/>
</g>
<!-- Node2 -->
<g id="node3" class="node"><title>Node2</title>
<g id="a_node3"><a xlink:href="cgiwifi_8c.html#ac3fbc269e79c7c7af001e215329ac0b0" target="_top" xlink:title="cgiWifiInit">
<polygon fill="white" stroke="black" points="240.5,-332.5 240.5,-351.5 300.5,-351.5 300.5,-332.5 240.5,-332.5"/>
<text text-anchor="middle" x="270.5" y="-339.5" font-family="Helvetica,sans-Serif" font-size="10.00">cgiWifiInit</text>
</a>
</g>
</g>
<!-- Node1&#45;&gt;Node2 -->
<g id="edge2" class="edge"><title>Node1&#45;&gt;Node2</title>
<path fill="none" stroke="midnightblue" d="M157.96,-275.502C170.26,-283.27 188.175,-294.484 204,-304 217.108,-311.882 231.83,-320.449 243.992,-327.449"/>
<polygon fill="midnightblue" stroke="midnightblue" points="242.308,-330.519 252.724,-332.46 245.792,-324.447 242.308,-330.519"/>
</g>
<!-- Node6 -->
<g id="node7" class="node"><title>Node6</title>
<g id="a_node7"><a xlink:href="esp-open-lwip_2include_2lwip_2app_2espconn_8h.html#abd44446e3fc4a61fdef77d473deb678b" target="_top" xlink:title="espconn_accept">
<polygon fill="white" stroke="black" points="226.5,-275.5 226.5,-294.5 314.5,-294.5 314.5,-275.5 226.5,-275.5"/>
<text text-anchor="middle" x="270.5" y="-282.5" font-family="Helvetica,sans-Serif" font-size="10.00">espconn_accept</text>
</a>
</g>
</g>
<!-- Node1&#45;&gt;Node6 -->
<g id="edge6" class="edge"><title>Node1&#45;&gt;Node6</title>
<path fill="none" stroke="midnightblue" d="M168.295,-269.799C182.028,-271.862 199.549,-274.494 216.14,-276.985"/>
<polygon fill="midnightblue" stroke="midnightblue" points="215.898,-280.488 226.307,-278.513 216.938,-273.566 215.898,-280.488"/>
</g>
<!-- Node7 -->
<g id="node8" class="node"><title>Node7</title>
<g id="a_node8"><a xlink:href="esp-open-lwip_2include_2lwip_2app_2espconn_8h.html#a233874487e43ccdacf772e47bcd9b976" target="_top" xlink:title="espconn_regist_connectcb">
<polygon fill="white" stroke="black" points="204,-237.5 204,-256.5 337,-256.5 337,-237.5 204,-237.5"/>
<text text-anchor="middle" x="270.5" y="-244.5" font-family="Helvetica,sans-Serif" font-size="10.00">espconn_regist_connectcb</text>
</a>
</g>
</g>
<!-- Node1&#45;&gt;Node7 -->
<g id="edge7" class="edge"><title>Node1&#45;&gt;Node7</title>
<path fill="none" stroke="midnightblue" d="M168.295,-262.201C176.515,-260.966 186.091,-259.528 196.013,-258.038"/>
<polygon fill="midnightblue" stroke="midnightblue" points="196.643,-261.482 206.013,-256.536 195.604,-254.56 196.643,-261.482"/>
</g>
<!-- Node8 -->
<g id="node9" class="node"><title>Node8</title>
<g id="a_node9"><a xlink:href="httpd_8c.html#a394ef39b684f0f7c1cf013dcb2b8300b" target="_top" xlink:title="httpdConnectCb">
<polygon fill="white" stroke="black" points="226.5,-161.5 226.5,-180.5 314.5,-180.5 314.5,-161.5 226.5,-161.5"/>
<text text-anchor="middle" x="270.5" y="-168.5" font-family="Helvetica,sans-Serif" font-size="10.00">httpdConnectCb</text>
</a>
</g>
</g>
<!-- Node1&#45;&gt;Node8 -->
<g id="edge8" class="edge"><title>Node1&#45;&gt;Node8</title>
<path fill="none" stroke="midnightblue" d="M156.061,-256.191C177.953,-239.751 222.233,-206.497 248.528,-186.749"/>
<polygon fill="midnightblue" stroke="midnightblue" points="250.804,-189.418 256.698,-180.614 246.6,-183.82 250.804,-189.418"/>
</g>
<!-- Node3 -->
<g id="node4" class="node"><title>Node3</title>
<g id="a_node4"><a xlink:href="cgiwifi_8c.html#ad14fc148ee7c69e5c3ba0357263016d7" target="_top" xlink:title="wifiStartScan">
<polygon fill="white" stroke="black" points="399,-342.5 399,-361.5 474,-361.5 474,-342.5 399,-342.5"/>
<text text-anchor="middle" x="436.5" y="-349.5" font-family="Helvetica,sans-Serif" font-size="10.00">wifiStartScan</text>
</a>
</g>
</g>
<!-- Node2&#45;&gt;Node3 -->
<g id="edge3" class="edge"><title>Node2&#45;&gt;Node3</title>
<path fill="none" stroke="midnightblue" d="M300.82,-343.788C325.273,-345.279 360.564,-347.431 388.886,-349.158"/>
<polygon fill="midnightblue" stroke="midnightblue" points="388.778,-352.658 398.973,-349.773 389.204,-345.67 388.778,-352.658"/>
</g>
<!-- Node4 -->
<g id="node5" class="node"><title>Node4</title>
<g id="a_node5"><a xlink:href="user__interface_8h.html#ac80b0607b1cb20c161c681581c998626" target="_top" xlink:title="wifi_station_scan">
<polygon fill="white" stroke="black" points="543,-361.5 543,-380.5 635,-380.5 635,-361.5 543,-361.5"/>
<text text-anchor="middle" x="589" y="-368.5" font-family="Helvetica,sans-Serif" font-size="10.00">wifi_station_scan</text>
</a>
</g>
</g>
<!-- Node3&#45;&gt;Node4 -->
<g id="edge4" class="edge"><title>Node3&#45;&gt;Node4</title>
<path fill="none" stroke="midnightblue" d="M474.316,-356.648C491.953,-358.875 513.441,-361.587 532.967,-364.052"/>
<polygon fill="midnightblue" stroke="midnightblue" points="532.608,-367.535 542.968,-365.315 533.485,-360.59 532.608,-367.535"/>
</g>
<!-- Node5 -->
<g id="node6" class="node"><title>Node5</title>
<g id="a_node6"><a xlink:href="cgiwifi_8c.html#a3accef2e486fb95241d855b6e4f5b88b" target="_top" xlink:title="wifiScanDoneCb">
<polygon fill="white" stroke="black" points="544,-323.5 544,-342.5 634,-342.5 634,-323.5 544,-323.5"/>
<text text-anchor="middle" x="589" y="-330.5" font-family="Helvetica,sans-Serif" font-size="10.00">wifiScanDoneCb</text>
</a>
</g>
</g>
<!-- Node3&#45;&gt;Node5 -->
<g id="edge5" class="edge"><title>Node3&#45;&gt;Node5</title>
<path fill="none" stroke="midnightblue" d="M474.316,-347.352C492.176,-345.097 513.983,-342.344 533.704,-339.855"/>
<polygon fill="midnightblue" stroke="midnightblue" points="534.312,-343.306 543.795,-338.581 533.435,-336.361 534.312,-343.306"/>
</g>
<!-- Node9 -->
<g id="node10" class="node"><title>Node9</title>
<g id="a_node10"><a xlink:href="esp-open-lwip_2include_2lwip_2app_2espconn_8h.html#a9969873c3b8ee86a34496a5166cf8bfc" target="_top" xlink:title="espconn_disconnect">
<polygon fill="white" stroke="black" points="536,-190.5 536,-209.5 642,-209.5 642,-190.5 536,-190.5"/>
<text text-anchor="middle" x="589" y="-197.5" font-family="Helvetica,sans-Serif" font-size="10.00">espconn_disconnect</text>
</a>
</g>
</g>
<!-- Node8&#45;&gt;Node9 -->
<g id="edge9" class="edge"><title>Node8&#45;&gt;Node9</title>
<path fill="none" stroke="midnightblue" d="M314.956,-175.378C332.92,-177.163 353.96,-179.221 373,-181 424.465,-185.809 482.891,-190.952 525.835,-194.673"/>
<polygon fill="midnightblue" stroke="midnightblue" points="525.588,-198.165 535.853,-195.539 526.191,-191.191 525.588,-198.165"/>
</g>
<!-- Node10 -->
<g id="node11" class="node"><title>Node10</title>
<g id="a_node11"><a xlink:href="esp-open-lwip_2include_2lwip_2app_2espconn_8h.html#af43c93f2f0cc14a1c1e95c38e9469b9f" target="_top" xlink:title="espconn_regist_disconcb">
<polygon fill="white" stroke="black" points="373,-0.5 373,-19.5 500,-19.5 500,-0.5 373,-0.5"/>
<text text-anchor="middle" x="436.5" y="-7.5" font-family="Helvetica,sans-Serif" font-size="10.00">espconn_regist_disconcb</text>
</a>
</g>
</g>
<!-- Node8&#45;&gt;Node10 -->
<g id="edge10" class="edge"><title>Node8&#45;&gt;Node10</title>
<path fill="none" stroke="midnightblue" d="M275.632,-161.405C287.131,-135.847 322.045,-65.5829 373,-29 375.718,-27.0488 378.639,-25.295 381.681,-23.7191"/>
<polygon fill="midnightblue" stroke="midnightblue" points="383.391,-26.7882 391.085,-19.5049 380.528,-20.4003 383.391,-26.7882"/>
</g>
<!-- Node11 -->
<g id="node12" class="node"><title>Node11</title>
<g id="a_node12"><a xlink:href="esp-open-lwip_2include_2lwip_2app_2espconn_8h.html#a771463177734012911e42931a10ee7a2" target="_top" xlink:title="espconn_regist_reconcb">
<polygon fill="white" stroke="black" points="375.5,-304.5 375.5,-323.5 497.5,-323.5 497.5,-304.5 375.5,-304.5"/>
<text text-anchor="middle" x="436.5" y="-311.5" font-family="Helvetica,sans-Serif" font-size="10.00">espconn_regist_reconcb</text>
</a>
</g>
</g>
<!-- Node8&#45;&gt;Node11 -->
<g id="edge11" class="edge"><title>Node8&#45;&gt;Node11</title>
<path fill="none" stroke="midnightblue" d="M285.082,-180.5C299.305,-190.941 321.667,-208.8 337,-228 358.094,-254.415 346.852,-273.576 373,-295 375.146,-296.759 377.454,-298.355 379.871,-299.803"/>
<polygon fill="midnightblue" stroke="midnightblue" points="378.514,-303.039 389.018,-304.429 381.674,-296.793 378.514,-303.039"/>
</g>
<!-- Node12 -->
<g id="node13" class="node"><title>Node12</title>
<g id="a_node13"><a xlink:href="esp-open-lwip_2include_2lwip_2app_2espconn_8h.html#a56d063a430d96d20b4ea5e28ba41011c" target="_top" xlink:title="espconn_regist_recvcb">
<polygon fill="white" stroke="black" points="378,-266.5 378,-285.5 495,-285.5 495,-266.5 378,-266.5"/>
<text text-anchor="middle" x="436.5" y="-273.5" font-family="Helvetica,sans-Serif" font-size="10.00">espconn_regist_recvcb</text>
</a>
</g>
</g>
<!-- Node8&#45;&gt;Node12 -->
<g id="edge12" class="edge"><title>Node8&#45;&gt;Node12</title>
<path fill="none" stroke="midnightblue" d="M282.836,-180.818C308.239,-202.79 367.905,-254.223 373,-257 376.972,-259.165 381.224,-261.117 385.572,-262.869"/>
<polygon fill="midnightblue" stroke="midnightblue" points="384.579,-266.233 395.173,-266.392 386.99,-259.661 384.579,-266.233"/>
</g>
<!-- Node13 -->
<g id="node14" class="node"><title>Node13</title>
<g id="a_node14"><a xlink:href="esp-open-lwip_2include_2lwip_2app_2espconn_8h.html#a438ded04b3f8a70948fcf8c551bce179" target="_top" xlink:title="espconn_regist_sentcb">
<polygon fill="white" stroke="black" points="378,-228.5 378,-247.5 495,-247.5 495,-228.5 378,-228.5"/>
<text text-anchor="middle" x="436.5" y="-235.5" font-family="Helvetica,sans-Serif" font-size="10.00">espconn_regist_sentcb</text>
</a>
</g>
</g>
<!-- Node8&#45;&gt;Node13 -->
<g id="edge13" class="edge"><title>Node8&#45;&gt;Node13</title>
<path fill="none" stroke="midnightblue" d="M293.586,-180.613C314.086,-189.475 345.493,-202.896 373,-214 381.865,-217.579 391.485,-221.335 400.46,-224.786"/>
<polygon fill="midnightblue" stroke="midnightblue" points="399.289,-228.085 409.88,-228.387 401.789,-221.547 399.289,-228.085"/>
</g>
<!-- Node14 -->
<g id="node15" class="node"><title>Node14</title>
<g id="a_node15"><a xlink:href="httpd_8c.html#a3a1968ecb0fa46d0cbeb07e9983494f4" target="_top" xlink:title="httpdDisconCb">
<polygon fill="white" stroke="black" points="395.5,-114.5 395.5,-133.5 477.5,-133.5 477.5,-114.5 395.5,-114.5"/>
<text text-anchor="middle" x="436.5" y="-121.5" font-family="Helvetica,sans-Serif" font-size="10.00">httpdDisconCb</text>
</a>
</g>
</g>
<!-- Node8&#45;&gt;Node14 -->
<g id="edge14" class="edge"><title>Node8&#45;&gt;Node14</title>
<path fill="none" stroke="midnightblue" d="M304.688,-161.489C329.946,-154.25 364.918,-144.228 392.348,-136.367"/>
<polygon fill="midnightblue" stroke="midnightblue" points="393.432,-139.697 402.08,-133.578 391.503,-132.968 393.432,-139.697"/>
</g>
<!-- Node17 -->
<g id="node18" class="node"><title>Node17</title>
<g id="a_node18"><a xlink:href="httpd_8c.html#aa93c97e6f6126a95a462afad3d3651ce" target="_top" xlink:title="httpdReconCb">
<polygon fill="white" stroke="black" points="396.5,-76.5 396.5,-95.5 476.5,-95.5 476.5,-76.5 396.5,-76.5"/>
<text text-anchor="middle" x="436.5" y="-83.5" font-family="Helvetica,sans-Serif" font-size="10.00">httpdReconCb</text>
</a>
</g>
</g>
<!-- Node8&#45;&gt;Node17 -->
<g id="edge17" class="edge"><title>Node8&#45;&gt;Node17</title>
<path fill="none" stroke="midnightblue" d="M283.65,-161.46C302.053,-147.404 338.512,-121.061 373,-105 377.761,-102.783 382.845,-100.746 387.98,-98.8966"/>
<polygon fill="midnightblue" stroke="midnightblue" points="389.484,-102.083 397.843,-95.5738 387.249,-95.4495 389.484,-102.083"/>
</g>
<!-- Node18 -->
<g id="node19" class="node"><title>Node18</title>
<g id="a_node19"><a xlink:href="httpd_8c.html#ad4f8c0a86c445f2f52156e8a328613e4" target="_top" xlink:title="httpdRecvCb">
<polygon fill="white" stroke="black" points="399.5,-38.5 399.5,-57.5 473.5,-57.5 473.5,-38.5 399.5,-38.5"/>
<text text-anchor="middle" x="436.5" y="-45.5" font-family="Helvetica,sans-Serif" font-size="10.00">httpdRecvCb</text>
</a>
</g>
</g>
<!-- Node8&#45;&gt;Node18 -->
<g id="edge19" class="edge"><title>Node8&#45;&gt;Node18</title>
<path fill="none" stroke="midnightblue" d="M278.197,-161.401C292.942,-140.974 330.318,-92.9545 373,-67 378.152,-63.8669 383.861,-61.2156 389.672,-58.9812"/>
<polygon fill="midnightblue" stroke="midnightblue" points="391.156,-62.1718 399.468,-55.6029 388.874,-55.5543 391.156,-62.1718"/>
</g>
<!-- Node24 -->
<g id="node25" class="node"><title>Node24</title>
<g id="a_node25"><a xlink:href="httpd_8c.html#a51c1039375e19643be3aaac1e8a1c937" target="_top" xlink:title="httpdSentCb">
<polygon fill="white" stroke="black" points="401,-152.5 401,-171.5 472,-171.5 472,-152.5 401,-152.5"/>
<text text-anchor="middle" x="436.5" y="-159.5" font-family="Helvetica,sans-Serif" font-size="10.00">httpdSentCb</text>
</a>
</g>
</g>
<!-- Node8&#45;&gt;Node24 -->
<g id="edge26" class="edge"><title>Node8&#45;&gt;Node24</title>
<path fill="none" stroke="midnightblue" d="M314.589,-168.635C338.067,-167.347 367.086,-165.754 390.809,-164.453"/>
<polygon fill="midnightblue" stroke="midnightblue" points="391.165,-167.938 400.958,-163.896 390.781,-160.949 391.165,-167.938"/>
</g>
<!-- Node15 -->
<g id="node16" class="node"><title>Node15</title>
<g id="a_node16"><a xlink:href="httpd_8c.html#afd1e497b9cd5f6934acaf57679bc21f8" target="_top" xlink:title="httpdFindConnData">
<polygon fill="white" stroke="black" points="538.5,-114.5 538.5,-133.5 639.5,-133.5 639.5,-114.5 538.5,-114.5"/>
<text text-anchor="middle" x="589" y="-121.5" font-family="Helvetica,sans-Serif" font-size="10.00">httpdFindConnData</text>
</a>
</g>
</g>
<!-- Node14&#45;&gt;Node15 -->
<g id="edge15" class="edge"><title>Node14&#45;&gt;Node15</title>
<path fill="none" stroke="midnightblue" d="M477.831,-124C493.262,-124 511.209,-124 528.083,-124"/>
<polygon fill="midnightblue" stroke="midnightblue" points="528.418,-127.5 538.418,-124 528.418,-120.5 528.418,-127.5"/>
</g>
<!-- Node16 -->
<g id="node17" class="node"><title>Node16</title>
<g id="a_node17"><a xlink:href="httpd_8c.html#ab7a09edc1f3de2b70bf21ed275c22c61" target="_top" xlink:title="httpdRetireConn">
<polygon fill="white" stroke="black" points="545,-152.5 545,-171.5 633,-171.5 633,-152.5 545,-152.5"/>
<text text-anchor="middle" x="589" y="-159.5" font-family="Helvetica,sans-Serif" font-size="10.00">httpdRetireConn</text>
</a>
</g>
</g>
<!-- Node14&#45;&gt;Node16 -->
<g id="edge16" class="edge"><title>Node14&#45;&gt;Node16</title>
<path fill="none" stroke="midnightblue" d="M475.478,-133.589C495.159,-138.558 519.391,-144.677 540.321,-149.961"/>
<polygon fill="midnightblue" stroke="midnightblue" points="539.743,-153.425 550.296,-152.48 541.457,-146.638 539.743,-153.425"/>
</g>
<!-- Node17&#45;&gt;Node15 -->
<g id="edge18" class="edge"><title>Node17&#45;&gt;Node15</title>
<path fill="none" stroke="midnightblue" d="M475.478,-95.589C495.159,-100.558 519.391,-106.677 540.321,-111.961"/>
<polygon fill="midnightblue" stroke="midnightblue" points="539.743,-115.425 550.296,-114.48 541.457,-108.638 539.743,-115.425"/>
</g>
<!-- Node18&#45;&gt;Node15 -->
<g id="edge20" class="edge"><title>Node18&#45;&gt;Node15</title>
<path fill="none" stroke="midnightblue" d="M473.582,-55.5213C482.609,-58.3121 491.994,-62.0497 500,-67 519.788,-79.2347 516.558,-92.2239 536,-105 538.941,-106.932 542.104,-108.701 545.365,-110.312"/>
<polygon fill="midnightblue" stroke="midnightblue" points="544.154,-113.604 554.716,-114.445 546.984,-107.201 544.154,-113.604"/>
</g>
<!-- Node19 -->
<g id="node20" class="node"><title>Node19</title>
<g id="a_node20"><a xlink:href="httpd_8c.html#afbbd7e804f055b233604a4a6e6fe5cee" target="_top" xlink:title="httpdParseHeader">
<polygon fill="white" stroke="black" points="541.5,-0.5 541.5,-19.5 636.5,-19.5 636.5,-0.5 541.5,-0.5"/>
<text text-anchor="middle" x="589" y="-7.5" font-family="Helvetica,sans-Serif" font-size="10.00">httpdParseHeader</text>
</a>
</g>
</g>
<!-- Node18&#45;&gt;Node19 -->
<g id="edge21" class="edge"><title>Node18&#45;&gt;Node19</title>
<path fill="none" stroke="midnightblue" d="M473.548,-38.8981C493.518,-33.856 518.597,-27.5238 540.185,-22.0728"/>
<polygon fill="midnightblue" stroke="midnightblue" points="541.307,-25.3996 550.145,-19.558 539.593,-18.6126 541.307,-25.3996"/>
</g>
<!-- Node20 -->
<g id="node21" class="node"><title>Node20</title>
<g id="a_node21"><a xlink:href="httpd_8c.html#a5aa7652c21a5a543311463ab0566ccc9" target="_top" xlink:title="httpdSendResp">
<polygon fill="white" stroke="black" points="547,-38.5 547,-57.5 631,-57.5 631,-38.5 547,-38.5"/>
<text text-anchor="middle" x="589" y="-45.5" font-family="Helvetica,sans-Serif" font-size="10.00">httpdSendResp</text>
</a>
</g>
</g>
<!-- Node18&#45;&gt;Node20 -->
<g id="edge22" class="edge"><title>Node18&#45;&gt;Node20</title>
<path fill="none" stroke="midnightblue" d="M473.548,-48C492.444,-48 515.915,-48 536.675,-48"/>
<polygon fill="midnightblue" stroke="midnightblue" points="536.93,-51.5001 546.93,-48 536.93,-44.5001 536.93,-51.5001"/>
</g>
<!-- Node22 -->
<g id="node23" class="node"><title>Node22</title>
<g id="a_node23"><a xlink:href="httpd_8c.html#a4638d3f885add9276ca7eaeca3ec67a9" target="_top" xlink:title="xmitSendBuff">
<polygon fill="white" stroke="black" points="551,-76.5 551,-95.5 627,-95.5 627,-76.5 551,-76.5"/>
<text text-anchor="middle" x="589" y="-83.5" font-family="Helvetica,sans-Serif" font-size="10.00">xmitSendBuff</text>
</a>
</g>
</g>
<!-- Node18&#45;&gt;Node22 -->
<g id="edge24" class="edge"><title>Node18&#45;&gt;Node22</title>
<path fill="none" stroke="midnightblue" d="M473.548,-57.1019C493.834,-62.2239 519.393,-68.6774 541.209,-74.1858"/>
<polygon fill="midnightblue" stroke="midnightblue" points="540.385,-77.5873 550.937,-76.642 542.098,-70.8003 540.385,-77.5873"/>
</g>
<!-- Node21 -->
<g id="node22" class="node"><title>Node21</title>
<g id="a_node22"><a xlink:href="httpd_8c.html#a1a143f6c427d66e2561895cf193fc535" target="_top" xlink:title="httpdSend">
<polygon fill="white" stroke="black" points="686,-38.5 686,-57.5 747,-57.5 747,-38.5 686,-38.5"/>
<text text-anchor="middle" x="716.5" y="-45.5" font-family="Helvetica,sans-Serif" font-size="10.00">httpdSend</text>
</a>
</g>
</g>
<!-- Node20&#45;&gt;Node21 -->
<g id="edge23" class="edge"><title>Node20&#45;&gt;Node21</title>
<path fill="none" stroke="midnightblue" d="M631.093,-48C645.474,-48 661.585,-48 675.846,-48"/>
<polygon fill="midnightblue" stroke="midnightblue" points="675.853,-51.5001 685.853,-48 675.853,-44.5001 675.853,-51.5001"/>
</g>
<!-- Node23 -->
<g id="node24" class="node"><title>Node23</title>
<g id="a_node24"><a xlink:href="esp-open-lwip_2include_2lwip_2app_2espconn_8h.html#a579e4f1c62f7c33be01398931617e988" target="_top" xlink:title="espconn_sent">
<polygon fill="white" stroke="black" points="678,-76.5 678,-95.5 755,-95.5 755,-76.5 678,-76.5"/>
<text text-anchor="middle" x="716.5" y="-83.5" font-family="Helvetica,sans-Serif" font-size="10.00">espconn_sent</text>
</a>
</g>
</g>
<!-- Node22&#45;&gt;Node23 -->
<g id="edge25" class="edge"><title>Node22&#45;&gt;Node23</title>
<path fill="none" stroke="midnightblue" d="M627.314,-86C639.857,-86 654.032,-86 667.291,-86"/>
<polygon fill="midnightblue" stroke="midnightblue" points="667.678,-89.5001 677.678,-86 667.678,-82.5001 667.678,-89.5001"/>
</g>
<!-- Node24&#45;&gt;Node9 -->
<g id="edge27" class="edge"><title>Node24&#45;&gt;Node9</title>
<path fill="none" stroke="midnightblue" d="M472.028,-170.718C492.272,-175.829 518.143,-182.362 540.311,-187.959"/>
<polygon fill="midnightblue" stroke="midnightblue" points="539.65,-191.402 550.202,-190.456 541.363,-184.615 539.65,-191.402"/>
</g>
<!-- Node24&#45;&gt;Node15 -->
<g id="edge28" class="edge"><title>Node24&#45;&gt;Node15</title>
<path fill="none" stroke="midnightblue" d="M472.028,-153.282C492.272,-148.171 518.143,-141.638 540.311,-136.041"/>
<polygon fill="midnightblue" stroke="midnightblue" points="541.363,-139.385 550.202,-133.544 539.65,-132.598 541.363,-139.385"/>
</g>
<!-- Node24&#45;&gt;Node16 -->
<g id="edge29" class="edge"><title>Node24&#45;&gt;Node16</title>
<path fill="none" stroke="midnightblue" d="M472.028,-162C490.598,-162 513.903,-162 534.741,-162"/>
<polygon fill="midnightblue" stroke="midnightblue" points="534.741,-165.5 544.741,-162 534.741,-158.5 534.741,-165.5"/>
</g>
<!-- Node24&#45;&gt;Node22 -->
<g id="edge30" class="edge"><title>Node24&#45;&gt;Node22</title>
<path fill="none" stroke="midnightblue" d="M472.279,-154.876C481.701,-152.045 491.608,-148.189 500,-143 519.788,-130.765 516.558,-117.776 536,-105 538.941,-103.068 542.104,-101.299 545.365,-99.6878"/>
<polygon fill="midnightblue" stroke="midnightblue" points="546.984,-102.799 554.716,-95.5549 544.154,-96.3965 546.984,-102.799"/>
</g>
</g>
</svg>
