<?xml version="1.0" encoding="UTF-8" standalone="no"?>
<!DOCTYPE svg PUBLIC "-//W3C//DTD SVG 1.1//EN"
 "http://www.w3.org/Graphics/SVG/1.1/DTD/svg11.dtd">
<!-- Generated by graphviz version 2.38.0 (20140413.2041)
 -->
<!-- Title: httpdSentCb Pages: 1 -->
<svg width="407pt" height="28pt"
 viewBox="0.00 0.00 407.00 28.00" xmlns="http://www.w3.org/2000/svg" xmlns:xlink="http://www.w3.org/1999/xlink">
<g id="graph0" class="graph" transform="scale(1 1) rotate(0) translate(4 24)">
<title>httpdSentCb</title>
<polygon fill="white" stroke="none" points="-4,4 -4,-24 403,-24 403,4 -4,4"/>
<!-- Node223 -->
<g id="node1" class="node"><title>Node223</title>
<polygon fill="#bfbfbf" stroke="black" points="0,-0.5 0,-19.5 71,-19.5 71,-0.5 0,-0.5"/>
<text text-anchor="middle" x="35.5" y="-7.5" font-family="Helvetica,sans-Serif" font-size="10.00">httpdSentCb</text>
</g>
<!-- Node224 -->
<g id="node2" class="node"><title>Node224</title>
<g id="a_node2"><a xlink:href="httpd_8c.html#a394ef39b684f0f7c1cf013dcb2b8300b" target="_top" xlink:title="httpdConnectCb">
<polygon fill="white" stroke="black" points="107,-0.5 107,-19.5 195,-19.5 195,-0.5 107,-0.5"/>
<text text-anchor="middle" x="151" y="-7.5" font-family="Helvetica,sans-Serif" font-size="10.00">httpdConnectCb</text>
</a>
</g>
</g>
<!-- Node223&#45;&gt;Node224 -->
<g id="edge1" class="edge"><title>Node223&#45;&gt;Node224</title>
<path fill="none" stroke="midnightblue" d="M81.1831,-10C89.5853,-10 98.3575,-10 106.716,-10"/>
<polygon fill="midnightblue" stroke="midnightblue" points="81.1705,-6.5001 71.1705,-10 81.1704,-13.5001 81.1705,-6.5001"/>
</g>
<!-- Node225 -->
<g id="node3" class="node"><title>Node225</title>
<g id="a_node3"><a xlink:href="httpd_8h.html#a74eb356c950228c2f024f081f7beb830" target="_top" xlink:title="httpdInit">
<polygon fill="white" stroke="black" points="231,-0.5 231,-19.5 283,-19.5 283,-0.5 231,-0.5"/>
<text text-anchor="middle" x="257" y="-7.5" font-family="Helvetica,sans-Serif" font-size="10.00">httpdInit</text>
</a>
</g>
</g>
<!-- Node224&#45;&gt;Node225 -->
<g id="edge2" class="edge"><title>Node224&#45;&gt;Node225</title>
<path fill="none" stroke="midnightblue" d="M205.274,-10C214.226,-10 223.127,-10 230.917,-10"/>
<polygon fill="midnightblue" stroke="midnightblue" points="205.202,-6.5001 195.202,-10 205.202,-13.5001 205.202,-6.5001"/>
</g>
<!-- Node226 -->
<g id="node4" class="node"><title>Node226</title>
<g id="a_node4"><a xlink:href="httpd__user__init_8h.html#a6abf56883c8e03334f42bfb79aa8b095" target="_top" xlink:title="httpd_user_init">
<polygon fill="white" stroke="black" points="319,-0.5 319,-19.5 399,-19.5 399,-0.5 319,-0.5"/>
<text text-anchor="middle" x="359" y="-7.5" font-family="Helvetica,sans-Serif" font-size="10.00">httpd_user_init</text>
</a>
</g>
</g>
<!-- Node225&#45;&gt;Node226 -->
<g id="edge3" class="edge"><title>Node225&#45;&gt;Node226</title>
<path fill="none" stroke="midnightblue" d="M293.284,-10C301.526,-10 310.353,-10 318.755,-10"/>
<polygon fill="midnightblue" stroke="midnightblue" points="293.234,-6.5001 283.234,-10 293.234,-13.5001 293.234,-6.5001"/>
</g>
</g>
</svg>
