<?xml version="1.0" encoding="UTF-8" standalone="no"?>
<!DOCTYPE svg PUBLIC "-//W3C//DTD SVG 1.1//EN"
 "http://www.w3.org/Graphics/SVG/1.1/DTD/svg11.dtd">
<!-- Generated by graphviz version 2.38.0 (20140413.2041)
 -->
<!-- Title: cgiRedirect Pages: 1 -->
<svg width="674pt" height="294pt"
 viewBox="0.00 0.00 674.00 294.00" xmlns="http://www.w3.org/2000/svg" xmlns:xlink="http://www.w3.org/1999/xlink">
<g id="graph0" class="graph" transform="scale(1 1) rotate(0) translate(4 290)">
<title>cgiRedirect</title>
<polygon fill="white" stroke="none" points="-4,4 -4,-290 670,-290 670,4 -4,4"/>
<!-- Node0 -->
<g id="node1" class="node"><title>Node0</title>
<polygon fill="#bfbfbf" stroke="black" points="0,-95.5 0,-114.5 66,-114.5 66,-95.5 0,-95.5"/>
<text text-anchor="middle" x="33" y="-102.5" font-family="Helvetica,sans-Serif" font-size="10.00">cgiRedirect</text>
</g>
<!-- Node1 -->
<g id="node2" class="node"><title>Node1</title>
<g id="a_node2"><a xlink:href="httpd_8c.html#ab27493bff23508040d0c672a95ecd3b6" target="_top" xlink:title="httpdRedirect">
<polygon fill="white" stroke="black" points="102,-95.5 102,-114.5 177,-114.5 177,-95.5 102,-95.5"/>
<text text-anchor="middle" x="139.5" y="-102.5" font-family="Helvetica,sans-Serif" font-size="10.00">httpdRedirect</text>
</a>
</g>
</g>
<!-- Node0&#45;&gt;Node1 -->
<g id="edge1" class="edge"><title>Node0&#45;&gt;Node1</title>
<path fill="none" stroke="midnightblue" d="M66.2061,-105C74.3096,-105 83.1711,-105 91.8263,-105"/>
<polygon fill="midnightblue" stroke="midnightblue" points="91.834,-108.5 101.834,-105 91.8339,-101.5 91.834,-108.5"/>
</g>
<!-- Node2 -->
<g id="node3" class="node"><title>Node2</title>
<g id="a_node3"><a xlink:href="tinyprintf_8c.html#a9738cbc6c538d210941db282e240c7d6" target="_top" xlink:title="tfp_snprintf">
<polygon fill="white" stroke="black" points="213,-114.5 213,-133.5 278,-133.5 278,-114.5 213,-114.5"/>
<text text-anchor="middle" x="245.5" y="-121.5" font-family="Helvetica,sans-Serif" font-size="10.00">tfp_snprintf</text>
</a>
</g>
</g>
<!-- Node1&#45;&gt;Node2 -->
<g id="edge2" class="edge"><title>Node1&#45;&gt;Node2</title>
<path fill="none" stroke="midnightblue" d="M177.167,-111.699C185.482,-113.218 194.372,-114.842 202.875,-116.395"/>
<polygon fill="midnightblue" stroke="midnightblue" points="202.526,-119.89 212.992,-118.244 203.784,-113.004 202.526,-119.89"/>
</g>
<!-- Node15 -->
<g id="node16" class="node"><title>Node15</title>
<g id="a_node16"><a xlink:href="httpd_8c.html#a1a143f6c427d66e2561895cf193fc535" target="_top" xlink:title="httpdSend">
<polygon fill="white" stroke="black" points="215,-76.5 215,-95.5 276,-95.5 276,-76.5 215,-76.5"/>
<text text-anchor="middle" x="245.5" y="-83.5" font-family="Helvetica,sans-Serif" font-size="10.00">httpdSend</text>
</a>
</g>
</g>
<!-- Node1&#45;&gt;Node15 -->
<g id="edge18" class="edge"><title>Node1&#45;&gt;Node15</title>
<path fill="none" stroke="midnightblue" d="M177.167,-98.3013C186.089,-96.6712 195.674,-94.9202 204.733,-93.2651"/>
<polygon fill="midnightblue" stroke="midnightblue" points="205.467,-96.6891 214.675,-91.4488 204.209,-89.8031 205.467,-96.6891"/>
</g>
<!-- Node3 -->
<g id="node4" class="node"><title>Node3</title>
<g id="a_node4"><a xlink:href="tinyprintf_8c.html#ac8c8a66133cf0d7009c0d73b55311a44" target="_top" xlink:title="tfp_vsnprintf">
<polygon fill="white" stroke="black" points="314,-114.5 314,-133.5 385,-133.5 385,-114.5 314,-114.5"/>
<text text-anchor="middle" x="349.5" y="-121.5" font-family="Helvetica,sans-Serif" font-size="10.00">tfp_vsnprintf</text>
</a>
</g>
</g>
<!-- Node2&#45;&gt;Node3 -->
<g id="edge3" class="edge"><title>Node2&#45;&gt;Node3</title>
<path fill="none" stroke="midnightblue" d="M278.214,-124C286.369,-124 295.295,-124 303.967,-124"/>
<polygon fill="midnightblue" stroke="midnightblue" points="303.97,-127.5 313.97,-124 303.97,-120.5 303.97,-127.5"/>
</g>
<!-- Node4 -->
<g id="node5" class="node"><title>Node4</title>
<g id="a_node5"><a xlink:href="tinyprintf_8c.html#a5877e42444463efc71a91b5fe76a6145" target="_top" xlink:title="tfp_format">
<polygon fill="white" stroke="black" points="433.5,-133.5 433.5,-152.5 494.5,-152.5 494.5,-133.5 433.5,-133.5"/>
<text text-anchor="middle" x="464" y="-140.5" font-family="Helvetica,sans-Serif" font-size="10.00">tfp_format</text>
</a>
</g>
</g>
<!-- Node3&#45;&gt;Node4 -->
<g id="edge4" class="edge"><title>Node3&#45;&gt;Node4</title>
<path fill="none" stroke="midnightblue" d="M385.172,-129.856C397.176,-131.883 410.726,-134.171 423.115,-136.264"/>
<polygon fill="midnightblue" stroke="midnightblue" points="422.747,-139.751 433.19,-137.965 423.913,-132.849 422.747,-139.751"/>
</g>
<!-- Node14 -->
<g id="node15" class="node"><title>Node14</title>
<g id="a_node15"><a xlink:href="tinyprintf_8c.html#a919051024b2d729e34a54648b3f2462d" target="_top" xlink:title="_vsnprintf_putcf">
<polygon fill="white" stroke="black" points="421,-95.5 421,-114.5 507,-114.5 507,-95.5 421,-95.5"/>
<text text-anchor="middle" x="464" y="-102.5" font-family="Helvetica,sans-Serif" font-size="10.00">_vsnprintf_putcf</text>
</a>
</g>
</g>
<!-- Node3&#45;&gt;Node14 -->
<g id="edge17" class="edge"><title>Node3&#45;&gt;Node14</title>
<path fill="none" stroke="midnightblue" d="M385.172,-118.144C393.246,-116.781 402.019,-115.299 410.668,-113.838"/>
<polygon fill="midnightblue" stroke="midnightblue" points="411.438,-117.258 420.715,-112.141 410.272,-110.356 411.438,-117.258"/>
</g>
<!-- Node5 -->
<g id="node6" class="node"><title>Node5</title>
<g id="a_node6"><a xlink:href="tinyprintf_8c.html#aa97593a5e53af85b608ad0910db92d77" target="_top" xlink:title="a2u">
<polygon fill="white" stroke="black" points="551,-266.5 551,-285.5 583,-285.5 583,-266.5 551,-266.5"/>
<text text-anchor="middle" x="567" y="-273.5" font-family="Helvetica,sans-Serif" font-size="10.00">a2u</text>
</a>
</g>
</g>
<!-- Node4&#45;&gt;Node5 -->
<g id="edge5" class="edge"><title>Node4&#45;&gt;Node5</title>
<path fill="none" stroke="midnightblue" d="M471.24,-152.669C483.935,-172.115 514.025,-217.08 543,-252 544.935,-254.332 547.043,-256.716 549.173,-259.034"/>
<polygon fill="midnightblue" stroke="midnightblue" points="546.84,-261.659 556.273,-266.483 551.907,-256.83 546.84,-261.659"/>
</g>
<!-- Node7 -->
<g id="node8" class="node"><title>Node7</title>
<g id="a_node8"><a xlink:href="tinyprintf_8c.html#abcf035dd576671b0cc897de9dd8c75b0" target="_top" xlink:title="ulli2a">
<polygon fill="white" stroke="black" points="627,-209.5 627,-228.5 666,-228.5 666,-209.5 627,-209.5"/>
<text text-anchor="middle" x="646.5" y="-216.5" font-family="Helvetica,sans-Serif" font-size="10.00">ulli2a</text>
</a>
</g>
</g>
<!-- Node4&#45;&gt;Node7 -->
<g id="edge7" class="edge"><title>Node4&#45;&gt;Node7</title>
<path fill="none" stroke="midnightblue" d="M471.062,-152.58C482.593,-169.787 509.548,-205.397 543,-219 566.55,-228.576 595.737,-227.464 616.935,-224.611"/>
<polygon fill="midnightblue" stroke="midnightblue" points="617.585,-228.052 626.93,-223.059 616.511,-221.135 617.585,-228.052"/>
</g>
<!-- Node8 -->
<g id="node9" class="node"><title>Node8</title>
<g id="a_node9"><a xlink:href="tinyprintf_8c.html#a1d61347854a8c290d59b4a21efcefd75" target="_top" xlink:title="uli2a">
<polygon fill="white" stroke="black" points="628,-85.5 628,-104.5 665,-104.5 665,-85.5 628,-85.5"/>
<text text-anchor="middle" x="646.5" y="-92.5" font-family="Helvetica,sans-Serif" font-size="10.00">uli2a</text>
</a>
</g>
</g>
<!-- Node4&#45;&gt;Node8 -->
<g id="edge8" class="edge"><title>Node4&#45;&gt;Node8</title>
<path fill="none" stroke="midnightblue" d="M486.916,-133.388C493.419,-130.455 500.531,-127.167 507,-124 523.249,-116.046 525.671,-110.198 543,-105 567.5,-97.6504 596.628,-95.3923 617.56,-94.8303"/>
<polygon fill="midnightblue" stroke="midnightblue" points="617.746,-98.3279 627.691,-94.673 617.637,-91.3287 617.746,-98.3279"/>
</g>
<!-- Node9 -->
<g id="node10" class="node"><title>Node9</title>
<g id="a_node10"><a xlink:href="tinyprintf_8c.html#ac87ff66a592723f55692eaf8e3f19df8" target="_top" xlink:title="ui2a">
<polygon fill="white" stroke="black" points="629,-28.5 629,-47.5 664,-47.5 664,-28.5 629,-28.5"/>
<text text-anchor="middle" x="646.5" y="-35.5" font-family="Helvetica,sans-Serif" font-size="10.00">ui2a</text>
</a>
</g>
</g>
<!-- Node4&#45;&gt;Node9 -->
<g id="edge9" class="edge"><title>Node4&#45;&gt;Node9</title>
<path fill="none" stroke="midnightblue" d="M489.644,-133.35C495.514,-130.649 501.63,-127.486 507,-124 524.956,-112.345 525.402,-104.189 543,-92 567.663,-74.918 598.382,-59.4099 619.728,-49.4405"/>
<polygon fill="midnightblue" stroke="midnightblue" points="621.195,-52.6186 628.821,-45.264 618.273,-46.2575 621.195,-52.6186"/>
</g>
<!-- Node10 -->
<g id="node11" class="node"><title>Node10</title>
<g id="a_node11"><a xlink:href="tinyprintf_8c.html#a6252dbfebb2c8783c4e3107d551082dd" target="_top" xlink:title="putchw">
<polygon fill="white" stroke="black" points="543,-114.5 543,-133.5 591,-133.5 591,-114.5 543,-114.5"/>
<text text-anchor="middle" x="567" y="-121.5" font-family="Helvetica,sans-Serif" font-size="10.00">putchw</text>
</a>
</g>
</g>
<!-- Node4&#45;&gt;Node10 -->
<g id="edge10" class="edge"><title>Node4&#45;&gt;Node10</title>
<path fill="none" stroke="midnightblue" d="M494.757,-137.402C506.758,-135.144 520.652,-132.531 532.965,-130.215"/>
<polygon fill="midnightblue" stroke="midnightblue" points="533.68,-133.642 542.86,-128.353 532.386,-126.762 533.68,-133.642"/>
</g>
<!-- Node11 -->
<g id="node12" class="node"><title>Node11</title>
<g id="a_node12"><a xlink:href="tinyprintf_8c.html#a49c6d2b3d4088012f2c1fe344eef69f3" target="_top" xlink:title="lli2a">
<polygon fill="white" stroke="black" points="550,-190.5 550,-209.5 584,-209.5 584,-190.5 550,-190.5"/>
<text text-anchor="middle" x="567" y="-197.5" font-family="Helvetica,sans-Serif" font-size="10.00">lli2a</text>
</a>
</g>
</g>
<!-- Node4&#45;&gt;Node11 -->
<g id="edge11" class="edge"><title>Node4&#45;&gt;Node11</title>
<path fill="none" stroke="midnightblue" d="M482.133,-152.669C498.237,-161.757 522.533,-175.469 540.837,-185.799"/>
<polygon fill="midnightblue" stroke="midnightblue" points="539.358,-188.983 549.787,-190.85 542.798,-182.887 539.358,-188.983"/>
</g>
<!-- Node12 -->
<g id="node13" class="node"><title>Node12</title>
<g id="a_node13"><a xlink:href="tinyprintf_8c.html#afebb7696337c3f599b5e8db35c560684" target="_top" xlink:title="li2a">
<polygon fill="white" stroke="black" points="551,-152.5 551,-171.5 583,-171.5 583,-152.5 551,-152.5"/>
<text text-anchor="middle" x="567" y="-159.5" font-family="Helvetica,sans-Serif" font-size="10.00">li2a</text>
</a>
</g>
</g>
<!-- Node4&#45;&gt;Node12 -->
<g id="edge13" class="edge"><title>Node4&#45;&gt;Node12</title>
<path fill="none" stroke="midnightblue" d="M494.757,-148.598C509.41,-151.354 526.882,-154.641 540.856,-157.27"/>
<polygon fill="midnightblue" stroke="midnightblue" points="540.282,-160.723 550.756,-159.132 541.576,-153.844 540.282,-160.723"/>
</g>
<!-- Node13 -->
<g id="node14" class="node"><title>Node13</title>
<g id="a_node14"><a xlink:href="tinyprintf_8c.html#a90f9fd8f2133cda7f50be8d67823405c" target="_top" xlink:title="i2a">
<polygon fill="white" stroke="black" points="552.5,-0.5 552.5,-19.5 581.5,-19.5 581.5,-0.5 552.5,-0.5"/>
<text text-anchor="middle" x="567" y="-7.5" font-family="Helvetica,sans-Serif" font-size="10.00">i2a</text>
</a>
</g>
</g>
<!-- Node4&#45;&gt;Node13 -->
<g id="edge15" class="edge"><title>Node4&#45;&gt;Node13</title>
<path fill="none" stroke="midnightblue" d="M494.031,-133.445C498.789,-130.928 503.349,-127.817 507,-124 536.781,-92.8693 519.668,-70.2163 543,-34 544.477,-31.7077 546.192,-29.444 548.007,-27.2764"/>
<polygon fill="midnightblue" stroke="midnightblue" points="550.96,-29.2407 555.211,-19.536 545.836,-24.4716 550.96,-29.2407"/>
</g>
<!-- Node6 -->
<g id="node7" class="node"><title>Node6</title>
<g id="a_node7"><a xlink:href="tinyprintf_8c.html#aa853a0c5ba64fa2546d488b86192e7e3" target="_top" xlink:title="a2d">
<polygon fill="white" stroke="black" points="630.5,-266.5 630.5,-285.5 662.5,-285.5 662.5,-266.5 630.5,-266.5"/>
<text text-anchor="middle" x="646.5" y="-273.5" font-family="Helvetica,sans-Serif" font-size="10.00">a2d</text>
</a>
</g>
</g>
<!-- Node5&#45;&gt;Node6 -->
<g id="edge6" class="edge"><title>Node5&#45;&gt;Node6</title>
<path fill="none" stroke="midnightblue" d="M583.312,-276C593.888,-276 608.197,-276 620.423,-276"/>
<polygon fill="midnightblue" stroke="midnightblue" points="620.484,-279.5 630.484,-276 620.484,-272.5 620.484,-279.5"/>
</g>
<!-- Node11&#45;&gt;Node7 -->
<g id="edge12" class="edge"><title>Node11&#45;&gt;Node7</title>
<path fill="none" stroke="midnightblue" d="M584.058,-203.937C593.563,-206.267 605.88,-209.287 616.987,-212.01"/>
<polygon fill="midnightblue" stroke="midnightblue" points="616.187,-215.417 626.733,-214.399 617.854,-208.619 616.187,-215.417"/>
</g>
<!-- Node12&#45;&gt;Node8 -->
<g id="edge14" class="edge"><title>Node12&#45;&gt;Node8</title>
<path fill="none" stroke="midnightblue" d="M579.76,-152.405C583.385,-149.416 587.375,-146.092 591,-143 603.11,-132.669 616.531,-120.854 627.024,-111.531"/>
<polygon fill="midnightblue" stroke="midnightblue" points="629.593,-113.93 634.731,-104.664 624.936,-108.703 629.593,-113.93"/>
</g>
<!-- Node13&#45;&gt;Node9 -->
<g id="edge16" class="edge"><title>Node13&#45;&gt;Node9</title>
<path fill="none" stroke="midnightblue" d="M581.855,-15.0058C592.231,-18.7543 606.735,-23.9945 619.277,-28.5258"/>
<polygon fill="midnightblue" stroke="midnightblue" points="618.204,-31.8596 628.798,-31.9659 620.583,-25.2761 618.204,-31.8596"/>
</g>
</g>
</svg>
