<?xml version="1.0" encoding="UTF-8" standalone="no"?>
<!DOCTYPE svg PUBLIC "-//W3C//DTD SVG 1.1//EN"
 "http://www.w3.org/Graphics/SVG/1.1/DTD/svg11.dtd">
<!-- Generated by graphviz version 2.38.0 (20140413.2041)
 -->
<!-- Title: ip_router Pages: 1 -->
<svg width="285pt" height="123pt"
 viewBox="0.00 0.00 285.00 123.00" xmlns="http://www.w3.org/2000/svg" xmlns:xlink="http://www.w3.org/1999/xlink">
<g id="graph0" class="graph" transform="scale(1 1) rotate(0) translate(4 119)">
<title>ip_router</title>
<polygon fill="white" stroke="none" points="-4,4 -4,-119 281,-119 281,4 -4,4"/>
<!-- Node37 -->
<g id="node1" class="node"><title>Node37</title>
<polygon fill="#bfbfbf" stroke="black" points="0,-38.5 0,-57.5 54,-57.5 54,-38.5 0,-38.5"/>
<text text-anchor="middle" x="27" y="-45.5" font-family="Helvetica,sans-Serif" font-size="10.00">ip_router</text>
</g>
<!-- Node38 -->
<g id="node2" class="node"><title>Node38</title>
<g id="a_node2"><a xlink:href="ip_8c.html#affb2e1bbfe28242fd8f1e7459e60736e" target="_top" xlink:title="ip_route">
<polygon fill="white" stroke="black" points="97,-76.5 97,-95.5 148,-95.5 148,-76.5 97,-76.5"/>
<text text-anchor="middle" x="122.5" y="-83.5" font-family="Helvetica,sans-Serif" font-size="10.00">ip_route</text>
</a>
</g>
</g>
<!-- Node37&#45;&gt;Node38 -->
<g id="edge1" class="edge"><title>Node37&#45;&gt;Node38</title>
<path fill="none" stroke="midnightblue" d="M51.594,-57.589C62.7781,-62.1344 76.3276,-67.6412 88.509,-72.5919"/>
<polygon fill="midnightblue" stroke="midnightblue" points="87.3316,-75.8913 97.9136,-76.4141 89.9672,-69.4065 87.3316,-75.8913"/>
</g>
<!-- Node41 -->
<g id="node5" class="node"><title>Node41</title>
<g id="a_node5"><a xlink:href="osapi_8h.html#a843dbb5381392162286905a08a14888e" target="_top" xlink:title="os_random">
<polygon fill="white" stroke="black" points="90,-38.5 90,-57.5 155,-57.5 155,-38.5 90,-38.5"/>
<text text-anchor="middle" x="122.5" y="-45.5" font-family="Helvetica,sans-Serif" font-size="10.00">os_random</text>
</a>
</g>
</g>
<!-- Node37&#45;&gt;Node41 -->
<g id="edge4" class="edge"><title>Node37&#45;&gt;Node41</title>
<path fill="none" stroke="midnightblue" d="M54.045,-48C62.0455,-48 71.0599,-48 79.8327,-48"/>
<polygon fill="midnightblue" stroke="midnightblue" points="79.945,-51.5001 89.945,-48 79.9449,-44.5001 79.945,-51.5001"/>
</g>
<!-- Node42 -->
<g id="node6" class="node"><title>Node42</title>
<g id="a_node6"><a xlink:href="sys_8h.html#a582e95102327aa0eb693bab81050c038" target="_top" xlink:title="sys_now">
<polygon fill="white" stroke="black" points="94.5,-0.5 94.5,-19.5 150.5,-19.5 150.5,-0.5 94.5,-0.5"/>
<text text-anchor="middle" x="122.5" y="-7.5" font-family="Helvetica,sans-Serif" font-size="10.00">sys_now</text>
</a>
</g>
</g>
<!-- Node37&#45;&gt;Node42 -->
<g id="edge5" class="edge"><title>Node37&#45;&gt;Node42</title>
<path fill="none" stroke="midnightblue" d="M51.594,-38.411C62.7781,-33.8656 76.3276,-28.3588 88.509,-23.4081"/>
<polygon fill="midnightblue" stroke="midnightblue" points="89.9672,-26.5935 97.9136,-19.5859 87.3316,-20.1087 89.9672,-26.5935"/>
</g>
<!-- Node39 -->
<g id="node3" class="node"><title>Node39</title>
<g id="a_node3"><a xlink:href="ip__route_8h.html#a9e642b6d90d9684da54de297207bc501" target="_top" xlink:title="ip_find_route">
<polygon fill="white" stroke="black" points="198,-95.5 198,-114.5 270,-114.5 270,-95.5 198,-95.5"/>
<text text-anchor="middle" x="234" y="-102.5" font-family="Helvetica,sans-Serif" font-size="10.00">ip_find_route</text>
</a>
</g>
</g>
<!-- Node38&#45;&gt;Node39 -->
<g id="edge2" class="edge"><title>Node38&#45;&gt;Node39</title>
<path fill="none" stroke="midnightblue" d="M148.074,-90.264C159.731,-92.2867 174.043,-94.77 187.572,-97.1175"/>
<polygon fill="midnightblue" stroke="midnightblue" points="187.257,-100.615 197.708,-98.8763 188.454,-93.7182 187.257,-100.615"/>
</g>
<!-- Node40 -->
<g id="node4" class="node"><title>Node40</title>
<g id="a_node4"><a xlink:href="wlan__lwip__if_8h.html#a7e70d2ab3f2caed091644850737a363e" target="_top" xlink:title="eagle_lwip_getif">
<polygon fill="white" stroke="black" points="191,-57.5 191,-76.5 277,-76.5 277,-57.5 191,-57.5"/>
<text text-anchor="middle" x="234" y="-64.5" font-family="Helvetica,sans-Serif" font-size="10.00">eagle_lwip_getif</text>
</a>
</g>
</g>
<!-- Node38&#45;&gt;Node40 -->
<g id="edge3" class="edge"><title>Node38&#45;&gt;Node40</title>
<path fill="none" stroke="midnightblue" d="M148.074,-81.736C157.828,-80.0436 169.44,-78.0287 180.897,-76.0407"/>
<polygon fill="midnightblue" stroke="midnightblue" points="181.621,-79.4675 190.875,-74.3094 180.424,-72.5706 181.621,-79.4675"/>
</g>
</g>
</svg>
