<?xml version="1.0" encoding="UTF-8" standalone="no"?>
<!DOCTYPE svg PUBLIC "-//W3C//DTD SVG 1.1//EN"
 "http://www.w3.org/Graphics/SVG/1.1/DTD/svg11.dtd">
<!-- Generated by graphviz version 2.38.0 (20140413.2041)
 -->
<!-- Title: ip_find_route Pages: 1 -->
<svg width="362pt" height="85pt"
 viewBox="0.00 0.00 362.00 85.00" xmlns="http://www.w3.org/2000/svg" xmlns:xlink="http://www.w3.org/1999/xlink">
<g id="graph0" class="graph" transform="scale(1 1) rotate(0) translate(4 81)">
<title>ip_find_route</title>
<polygon fill="white" stroke="none" points="-4,4 -4,-81 358,-81 358,4 -4,4"/>
<!-- Node5 -->
<g id="node1" class="node"><title>Node5</title>
<polygon fill="#bfbfbf" stroke="black" points="0,-19.5 0,-38.5 72,-38.5 72,-19.5 0,-19.5"/>
<text text-anchor="middle" x="36" y="-26.5" font-family="Helvetica,sans-Serif" font-size="10.00">ip_find_route</text>
</g>
<!-- Node6 -->
<g id="node2" class="node"><title>Node6</title>
<g id="a_node2"><a xlink:href="ip_8c.html#affb2e1bbfe28242fd8f1e7459e60736e" target="_top" xlink:title="ip_route">
<polygon fill="white" stroke="black" points="108,-19.5 108,-38.5 159,-38.5 159,-19.5 108,-19.5"/>
<text text-anchor="middle" x="133.5" y="-26.5" font-family="Helvetica,sans-Serif" font-size="10.00">ip_route</text>
</a>
</g>
</g>
<!-- Node5&#45;&gt;Node6 -->
<g id="edge1" class="edge"><title>Node5&#45;&gt;Node6</title>
<path fill="none" stroke="midnightblue" d="M82.2777,-29C91.1238,-29 100.083,-29 107.937,-29"/>
<polygon fill="midnightblue" stroke="midnightblue" points="82.0184,-25.5001 72.0184,-29 82.0184,-32.5001 82.0184,-25.5001"/>
</g>
<!-- Node7 -->
<g id="node3" class="node"><title>Node7</title>
<g id="a_node3"><a xlink:href="ip_8c.html#a67e0618e1375dc07b5a035522c3f603b" target="_top" xlink:title="ip_router">
<polygon fill="white" stroke="black" points="201.5,-57.5 201.5,-76.5 255.5,-76.5 255.5,-57.5 201.5,-57.5"/>
<text text-anchor="middle" x="228.5" y="-64.5" font-family="Helvetica,sans-Serif" font-size="10.00">ip_router</text>
</a>
</g>
</g>
<!-- Node6&#45;&gt;Node7 -->
<g id="edge2" class="edge"><title>Node6&#45;&gt;Node7</title>
<path fill="none" stroke="midnightblue" d="M167.323,-42.4114C179.44,-47.3624 192.916,-52.8691 204.04,-57.4141"/>
<polygon fill="midnightblue" stroke="midnightblue" points="168.549,-39.1315 157.968,-38.589 165.901,-45.6115 168.549,-39.1315"/>
</g>
<!-- Node8 -->
<g id="node4" class="node"><title>Node8</title>
<g id="a_node4"><a xlink:href="ip_8c.html#a4bb5579127e9d605d66c275c1393e114" target="_top" xlink:title="ip_output_if">
<polygon fill="white" stroke="black" points="195,-19.5 195,-38.5 262,-38.5 262,-19.5 195,-19.5"/>
<text text-anchor="middle" x="228.5" y="-26.5" font-family="Helvetica,sans-Serif" font-size="10.00">ip_output_if</text>
</a>
</g>
</g>
<!-- Node6&#45;&gt;Node8 -->
<g id="edge3" class="edge"><title>Node6&#45;&gt;Node8</title>
<path fill="none" stroke="midnightblue" d="M169.55,-29C177.832,-29 186.631,-29 194.804,-29"/>
<polygon fill="midnightblue" stroke="midnightblue" points="169.422,-25.5001 159.422,-29 169.422,-32.5001 169.422,-25.5001"/>
</g>
<!-- Node9 -->
<g id="node5" class="node"><title>Node9</title>
<g id="a_node5"><a xlink:href="ip_8c.html#aada620fb6df3b1116290a88cb85a85ab" target="_top" xlink:title="ip_output">
<polygon fill="white" stroke="black" points="298,-0.5 298,-19.5 354,-19.5 354,-0.5 298,-0.5"/>
<text text-anchor="middle" x="326" y="-7.5" font-family="Helvetica,sans-Serif" font-size="10.00">ip_output</text>
</a>
</g>
</g>
<!-- Node6&#45;&gt;Node9 -->
<g id="edge5" class="edge"><title>Node6&#45;&gt;Node9</title>
<path fill="none" stroke="midnightblue" d="M168.693,-16.2781C177.172,-13.678 186.318,-11.3312 195,-10 230.248,-4.59535 271.506,-5.86207 297.929,-7.62392"/>
<polygon fill="midnightblue" stroke="midnightblue" points="167.538,-12.9735 159.115,-19.4011 169.708,-19.6287 167.538,-12.9735"/>
</g>
<!-- Node8&#45;&gt;Node9 -->
<g id="edge4" class="edge"><title>Node8&#45;&gt;Node9</title>
<path fill="none" stroke="midnightblue" d="M271.909,-20.5625C280.75,-18.8037 289.838,-16.9956 297.941,-15.3835"/>
<polygon fill="midnightblue" stroke="midnightblue" points="271.223,-17.1303 262.099,-22.5144 272.589,-23.9958 271.223,-17.1303"/>
</g>
</g>
</svg>
