<?xml version="1.0" encoding="UTF-8" standalone="no"?>
<!DOCTYPE svg PUBLIC "-//W3C//DTD SVG 1.1//EN"
 "http://www.w3.org/Graphics/SVG/1.1/DTD/svg11.dtd">
<!-- Generated by graphviz version 2.38.0 (20140413.2041)
 -->
<!-- Title: kmp_get_register Pages: 1 -->
<svg width="687pt" height="78pt"
 viewBox="0.00 0.00 687.00 77.50" xmlns="http://www.w3.org/2000/svg" xmlns:xlink="http://www.w3.org/1999/xlink">
<g id="graph0" class="graph" transform="scale(1 1) rotate(0) translate(4 73.5)">
<title>kmp_get_register</title>
<polygon fill="white" stroke="none" points="-4,4 -4,-73.5 683,-73.5 683,4 -4,4"/>
<!-- Node40 -->
<g id="node1" class="node"><title>Node40</title>
<polygon fill="#bfbfbf" stroke="black" points="0,-6 0,-25 92,-25 92,-6 0,-6"/>
<text text-anchor="middle" x="46" y="-13" font-family="Helvetica,sans-Serif" font-size="10.00">kmp_get_register</text>
</g>
<!-- Node41 -->
<g id="node2" class="node"><title>Node41</title>
<g id="a_node2"><a xlink:href="kmp__request_8c.html#aeadc3768548ef2bed49c3f2fcaf57c20" target="_top" xlink:title="kmp_get_register_timer_func">
<polygon fill="white" stroke="black" points="128,-6 128,-25 271,-25 271,-6 128,-6"/>
<text text-anchor="middle" x="199.5" y="-13" font-family="Helvetica,sans-Serif" font-size="10.00">kmp_get_register_timer_func</text>
</a>
</g>
</g>
<!-- Node40&#45;&gt;Node41 -->
<g id="edge1" class="edge"><title>Node40&#45;&gt;Node41</title>
<path fill="none" stroke="midnightblue" d="M102.321,-15.5C110.608,-15.5 119.248,-15.5 127.802,-15.5"/>
<polygon fill="midnightblue" stroke="midnightblue" points="102.045,-12.0001 92.0448,-15.5 102.045,-19.0001 102.045,-12.0001"/>
</g>
<!-- Node42 -->
<g id="node3" class="node"><title>Node42</title>
<g id="a_node3"><a xlink:href="kmp__request_8h.html#a3b022dcdc832786eb06126b5e6879604" target="_top" xlink:title="kmp_request_send">
<polygon fill="white" stroke="black" points="307,-6 307,-25 406,-25 406,-6 307,-6"/>
<text text-anchor="middle" x="356.5" y="-13" font-family="Helvetica,sans-Serif" font-size="10.00">kmp_request_send</text>
</a>
</g>
</g>
<!-- Node41&#45;&gt;Node42 -->
<g id="edge2" class="edge"><title>Node41&#45;&gt;Node42</title>
<path fill="none" stroke="midnightblue" d="M281.328,-15.5C289.958,-15.5 298.534,-15.5 306.625,-15.5"/>
<polygon fill="midnightblue" stroke="midnightblue" points="281.196,-12.0001 271.196,-15.5 281.196,-19.0001 281.196,-12.0001"/>
</g>
<!-- Node43 -->
<g id="node4" class="node"><title>Node43</title>
<g id="a_node4"><a xlink:href="kmp__request_8c.html#a3f6b790a06b933b78f40ade5e9a16131" target="_top" xlink:title="kmp_received_task">
<polygon fill="white" stroke="black" points="446.5,-50 446.5,-69 547.5,-69 547.5,-50 446.5,-50"/>
<text text-anchor="middle" x="497" y="-57" font-family="Helvetica,sans-Serif" font-size="10.00">kmp_received_task</text>
</a>
</g>
</g>
<!-- Node42&#45;&gt;Node43 -->
<g id="edge3" class="edge"><title>Node42&#45;&gt;Node43</title>
<path fill="none" stroke="midnightblue" d="M397.232,-28.1224C419.13,-35.0793 445.873,-43.5753 466.006,-49.9713"/>
<polygon fill="midnightblue" stroke="midnightblue" points="398.143,-24.7395 387.552,-25.0473 396.023,-31.4109 398.143,-24.7395"/>
</g>
<!-- Node45 -->
<g id="node6" class="node"><title>Node45</title>
<g id="a_node6"><a xlink:href="kmp__request_8c.html#a0977a4640a97d389ac3b0fef0ba7a9b6" target="_top" xlink:title="kmp_receive_timeout\l_timer_func">
<polygon fill="white" stroke="black" points="442,-0.5 442,-30.5 552,-30.5 552,-0.5 442,-0.5"/>
<text text-anchor="start" x="450" y="-18.5" font-family="Helvetica,sans-Serif" font-size="10.00">kmp_receive_timeout</text>
<text text-anchor="middle" x="497" y="-7.5" font-family="Helvetica,sans-Serif" font-size="10.00">_timer_func</text>
</a>
</g>
</g>
<!-- Node42&#45;&gt;Node45 -->
<g id="edge5" class="edge"><title>Node42&#45;&gt;Node45</title>
<path fill="none" stroke="midnightblue" d="M416.498,-8.81618C424.948,-8.70637 433.606,-8.73321 441.953,-8.89672"/>
<polygon fill="midnightblue" stroke="midnightblue" points="416.259,-5.32015 406.33,-9.01789 416.397,-12.3188 416.259,-5.32015"/>
</g>
<!-- Node44 -->
<g id="node5" class="node"><title>Node44</title>
<g id="a_node5"><a xlink:href="kmp__request_8h.html#a048753ff9d6b448e2dcd8c85db0d6873" target="_top" xlink:title="kmp_request_init">
<polygon fill="white" stroke="black" points="588,-50 588,-69 679,-69 679,-50 588,-50"/>
<text text-anchor="middle" x="633.5" y="-57" font-family="Helvetica,sans-Serif" font-size="10.00">kmp_request_init</text>
</a>
</g>
</g>
<!-- Node43&#45;&gt;Node44 -->
<g id="edge4" class="edge"><title>Node43&#45;&gt;Node44</title>
<path fill="none" stroke="midnightblue" d="M557.725,-59.5C567.861,-59.5 578.228,-59.5 587.889,-59.5"/>
<polygon fill="midnightblue" stroke="midnightblue" points="557.701,-56.0001 547.701,-59.5 557.701,-63.0001 557.701,-56.0001"/>
</g>
<!-- Node45&#45;&gt;Node42 -->
<g id="edge6" class="edge"><title>Node45&#45;&gt;Node42</title>
<path fill="none" stroke="midnightblue" d="M431.933,-22.2332C423.327,-22.2892 414.614,-22.2055 406.33,-21.9821"/>
<polygon fill="midnightblue" stroke="midnightblue" points="432,-25.7327 441.953,-22.1033 431.909,-18.7333 432,-25.7327"/>
</g>
</g>
</svg>
