<?xml version="1.0" encoding="UTF-8" standalone="no"?>
<!DOCTYPE svg PUBLIC "-//W3C//DTD SVG 1.1//EN"
 "http://www.w3.org/Graphics/SVG/1.1/DTD/svg11.dtd">
<!-- Generated by graphviz version 2.38.0 (20140413.2041)
 -->
<!-- Title: kmp_decode_frame Pages: 1 -->
<svg width="339pt" height="66pt"
 viewBox="0.00 0.00 339.00 66.00" xmlns="http://www.w3.org/2000/svg" xmlns:xlink="http://www.w3.org/1999/xlink">
<g id="graph0" class="graph" transform="scale(1 1) rotate(0) translate(4 62)">
<title>kmp_decode_frame</title>
<polygon fill="white" stroke="none" points="-4,4 -4,-62 335,-62 335,4 -4,4"/>
<!-- Node29 -->
<g id="node1" class="node"><title>Node29</title>
<polygon fill="#bfbfbf" stroke="black" points="0,-19.5 0,-38.5 102,-38.5 102,-19.5 0,-19.5"/>
<text text-anchor="middle" x="51" y="-26.5" font-family="Helvetica,sans-Serif" font-size="10.00">kmp_decode_frame</text>
</g>
<!-- Node30 -->
<g id="node2" class="node"><title>Node30</title>
<g id="a_node2"><a xlink:href="kmp_8c.html#a18ce12e62eee31819986877fc2c1e9d1" target="_top" xlink:title="kmp_byte_unstuff">
<polygon fill="white" stroke="black" points="138,-38.5 138,-57.5 233,-57.5 233,-38.5 138,-38.5"/>
<text text-anchor="middle" x="185.5" y="-45.5" font-family="Helvetica,sans-Serif" font-size="10.00">kmp_byte_unstuff</text>
</a>
</g>
</g>
<!-- Node29&#45;&gt;Node30 -->
<g id="edge1" class="edge"><title>Node29&#45;&gt;Node30</title>
<path fill="none" stroke="midnightblue" d="M102.093,-36.1831C110.52,-37.3916 119.32,-38.6534 127.898,-39.8835"/>
<polygon fill="midnightblue" stroke="midnightblue" points="127.436,-43.353 137.832,-41.308 128.43,-36.4239 127.436,-43.353"/>
</g>
<!-- Node31 -->
<g id="node3" class="node"><title>Node31</title>
<g id="a_node3"><a xlink:href="kmp_8c.html#a5245dd3f5d04db2e46786675e7ae97f8" target="_top" xlink:title="kmp_crc16">
<polygon fill="white" stroke="black" points="153,-0.5 153,-19.5 218,-19.5 218,-0.5 153,-0.5"/>
<text text-anchor="middle" x="185.5" y="-7.5" font-family="Helvetica,sans-Serif" font-size="10.00">kmp_crc16</text>
</a>
</g>
</g>
<!-- Node29&#45;&gt;Node31 -->
<g id="edge2" class="edge"><title>Node29&#45;&gt;Node31</title>
<path fill="none" stroke="midnightblue" d="M102.093,-21.8169C115.508,-19.8932 129.865,-17.8344 142.776,-15.9831"/>
<polygon fill="midnightblue" stroke="midnightblue" points="143.372,-19.4336 152.773,-14.5495 142.378,-12.5044 143.372,-19.4336"/>
</g>
<!-- Node32 -->
<g id="node4" class="node"><title>Node32</title>
<g id="a_node4"><a xlink:href="utils_8c.html#a8d9e1de95e2d6d103108a4b0ebf4d923" target="_top" xlink:title="ccit_crc16">
<polygon fill="white" stroke="black" points="269,-0.5 269,-19.5 331,-19.5 331,-0.5 269,-0.5"/>
<text text-anchor="middle" x="300" y="-7.5" font-family="Helvetica,sans-Serif" font-size="10.00">ccit_crc16</text>
</a>
</g>
</g>
<!-- Node31&#45;&gt;Node32 -->
<g id="edge3" class="edge"><title>Node31&#45;&gt;Node32</title>
<path fill="none" stroke="midnightblue" d="M218.137,-10C230.649,-10 245.186,-10 258.455,-10"/>
<polygon fill="midnightblue" stroke="midnightblue" points="258.762,-13.5001 268.762,-10 258.762,-6.5001 258.762,-13.5001"/>
</g>
</g>
</svg>
