<?xml version="1.0" encoding="UTF-8" standalone="no"?>
<!DOCTYPE svg PUBLIC "-//W3C//DTD SVG 1.1//EN"
 "http://www.w3.org/Graphics/SVG/1.1/DTD/svg11.dtd">
<!-- Generated by graphviz version 2.38.0 (20140413.2041)
 -->
<!-- Title: kmp_byte_unstuff Pages: 1 -->
<svg width="505pt" height="28pt"
 viewBox="0.00 0.00 505.00 28.00" xmlns="http://www.w3.org/2000/svg" xmlns:xlink="http://www.w3.org/1999/xlink">
<g id="graph0" class="graph" transform="scale(1 1) rotate(0) translate(4 24)">
<title>kmp_byte_unstuff</title>
<polygon fill="white" stroke="none" points="-4,4 -4,-24 501,-24 501,4 -4,4"/>
<!-- Node12 -->
<g id="node1" class="node"><title>Node12</title>
<polygon fill="#bfbfbf" stroke="black" points="0,-0.5 0,-19.5 95,-19.5 95,-0.5 0,-0.5"/>
<text text-anchor="middle" x="47.5" y="-7.5" font-family="Helvetica,sans-Serif" font-size="10.00">kmp_byte_unstuff</text>
</g>
<!-- Node13 -->
<g id="node2" class="node"><title>Node13</title>
<g id="a_node2"><a xlink:href="kmp_8h.html#a34231e78fbbe5298fcb35be737edb9e3" target="_top" xlink:title="kmp_decode_frame">
<polygon fill="white" stroke="black" points="131,-0.5 131,-19.5 233,-19.5 233,-0.5 131,-0.5"/>
<text text-anchor="middle" x="182" y="-7.5" font-family="Helvetica,sans-Serif" font-size="10.00">kmp_decode_frame</text>
</a>
</g>
</g>
<!-- Node12&#45;&gt;Node13 -->
<g id="edge1" class="edge"><title>Node12&#45;&gt;Node13</title>
<path fill="none" stroke="midnightblue" d="M105.342,-10C113.76,-10 122.385,-10 130.658,-10"/>
<polygon fill="midnightblue" stroke="midnightblue" points="105.215,-6.5001 95.2145,-10 105.215,-13.5001 105.215,-6.5001"/>
</g>
<!-- Node14 -->
<g id="node3" class="node"><title>Node14</title>
<g id="a_node3"><a xlink:href="kmp__request_8c.html#a3f6b790a06b933b78f40ade5e9a16131" target="_top" xlink:title="kmp_received_task">
<polygon fill="white" stroke="black" points="269,-0.5 269,-19.5 370,-19.5 370,-0.5 269,-0.5"/>
<text text-anchor="middle" x="319.5" y="-7.5" font-family="Helvetica,sans-Serif" font-size="10.00">kmp_received_task</text>
</a>
</g>
</g>
<!-- Node13&#45;&gt;Node14 -->
<g id="edge2" class="edge"><title>Node13&#45;&gt;Node14</title>
<path fill="none" stroke="midnightblue" d="M243.289,-10C251.76,-10 260.388,-10 268.636,-10"/>
<polygon fill="midnightblue" stroke="midnightblue" points="243.07,-6.5001 233.07,-10 243.07,-13.5001 243.07,-6.5001"/>
</g>
<!-- Node15 -->
<g id="node4" class="node"><title>Node15</title>
<g id="a_node4"><a xlink:href="kmp__request_8h.html#a048753ff9d6b448e2dcd8c85db0d6873" target="_top" xlink:title="kmp_request_init">
<polygon fill="white" stroke="black" points="406,-0.5 406,-19.5 497,-19.5 497,-0.5 406,-0.5"/>
<text text-anchor="middle" x="451.5" y="-7.5" font-family="Helvetica,sans-Serif" font-size="10.00">kmp_request_init</text>
</a>
</g>
</g>
<!-- Node14&#45;&gt;Node15 -->
<g id="edge3" class="edge"><title>Node14&#45;&gt;Node15</title>
<path fill="none" stroke="midnightblue" d="M380.081,-10C388.734,-10 397.517,-10 405.81,-10"/>
<polygon fill="midnightblue" stroke="midnightblue" points="380.018,-6.5001 370.018,-10 380.018,-13.5001 380.018,-6.5001"/>
</g>
</g>
</svg>
