<?xml version="1.0" encoding="UTF-8" standalone="no"?>
<!DOCTYPE svg PUBLIC "-//W3C//DTD SVG 1.1//EN"
 "http://www.w3.org/Graphics/SVG/1.1/DTD/svg11.dtd">
<!-- Generated by graphviz version 2.38.0 (20140413.2041)
 -->
<!-- Title: kmp_get_serial_timer_func Pages: 1 -->
<svg width="550pt" height="78pt"
 viewBox="0.00 0.00 550.00 77.50" xmlns="http://www.w3.org/2000/svg" xmlns:xlink="http://www.w3.org/1999/xlink">
<g id="graph0" class="graph" transform="scale(1 1) rotate(0) translate(4 73.5)">
<title>kmp_get_serial_timer_func</title>
<polygon fill="white" stroke="none" points="-4,4 -4,-73.5 546,-73.5 546,4 -4,4"/>
<!-- Node69 -->
<g id="node1" class="node"><title>Node69</title>
<polygon fill="#bfbfbf" stroke="black" points="0,-6 0,-25 134,-25 134,-6 0,-6"/>
<text text-anchor="middle" x="67" y="-13" font-family="Helvetica,sans-Serif" font-size="10.00">kmp_get_serial_timer_func</text>
</g>
<!-- Node70 -->
<g id="node2" class="node"><title>Node70</title>
<g id="a_node2"><a xlink:href="kmp__request_8h.html#a3b022dcdc832786eb06126b5e6879604" target="_top" xlink:title="kmp_request_send">
<polygon fill="white" stroke="black" points="170,-6 170,-25 269,-25 269,-6 170,-6"/>
<text text-anchor="middle" x="219.5" y="-13" font-family="Helvetica,sans-Serif" font-size="10.00">kmp_request_send</text>
</a>
</g>
</g>
<!-- Node69&#45;&gt;Node70 -->
<g id="edge1" class="edge"><title>Node69&#45;&gt;Node70</title>
<path fill="none" stroke="midnightblue" d="M144.188,-15.5C152.875,-15.5 161.544,-15.5 169.734,-15.5"/>
<polygon fill="midnightblue" stroke="midnightblue" points="144.012,-12.0001 134.011,-15.5 144.011,-19.0001 144.012,-12.0001"/>
</g>
<!-- Node71 -->
<g id="node3" class="node"><title>Node71</title>
<g id="a_node3"><a xlink:href="kmp__request_8c.html#a3f6b790a06b933b78f40ade5e9a16131" target="_top" xlink:title="kmp_received_task">
<polygon fill="white" stroke="black" points="309.5,-50 309.5,-69 410.5,-69 410.5,-50 309.5,-50"/>
<text text-anchor="middle" x="360" y="-57" font-family="Helvetica,sans-Serif" font-size="10.00">kmp_received_task</text>
</a>
</g>
</g>
<!-- Node70&#45;&gt;Node71 -->
<g id="edge2" class="edge"><title>Node70&#45;&gt;Node71</title>
<path fill="none" stroke="midnightblue" d="M260.232,-28.1224C282.13,-35.0793 308.873,-43.5753 329.006,-49.9713"/>
<polygon fill="midnightblue" stroke="midnightblue" points="261.143,-24.7395 250.552,-25.0473 259.023,-31.4109 261.143,-24.7395"/>
</g>
<!-- Node73 -->
<g id="node5" class="node"><title>Node73</title>
<g id="a_node5"><a xlink:href="kmp__request_8c.html#a0977a4640a97d389ac3b0fef0ba7a9b6" target="_top" xlink:title="kmp_receive_timeout\l_timer_func">
<polygon fill="white" stroke="black" points="305,-0.5 305,-30.5 415,-30.5 415,-0.5 305,-0.5"/>
<text text-anchor="start" x="313" y="-18.5" font-family="Helvetica,sans-Serif" font-size="10.00">kmp_receive_timeout</text>
<text text-anchor="middle" x="360" y="-7.5" font-family="Helvetica,sans-Serif" font-size="10.00">_timer_func</text>
</a>
</g>
</g>
<!-- Node70&#45;&gt;Node73 -->
<g id="edge4" class="edge"><title>Node70&#45;&gt;Node73</title>
<path fill="none" stroke="midnightblue" d="M279.498,-8.81618C287.948,-8.70637 296.606,-8.73321 304.953,-8.89672"/>
<polygon fill="midnightblue" stroke="midnightblue" points="279.259,-5.32015 269.33,-9.01789 279.397,-12.3188 279.259,-5.32015"/>
</g>
<!-- Node72 -->
<g id="node4" class="node"><title>Node72</title>
<g id="a_node4"><a xlink:href="kmp__request_8h.html#a048753ff9d6b448e2dcd8c85db0d6873" target="_top" xlink:title="kmp_request_init">
<polygon fill="white" stroke="black" points="451,-50 451,-69 542,-69 542,-50 451,-50"/>
<text text-anchor="middle" x="496.5" y="-57" font-family="Helvetica,sans-Serif" font-size="10.00">kmp_request_init</text>
</a>
</g>
</g>
<!-- Node71&#45;&gt;Node72 -->
<g id="edge3" class="edge"><title>Node71&#45;&gt;Node72</title>
<path fill="none" stroke="midnightblue" d="M420.725,-59.5C430.861,-59.5 441.228,-59.5 450.889,-59.5"/>
<polygon fill="midnightblue" stroke="midnightblue" points="420.701,-56.0001 410.701,-59.5 420.701,-63.0001 420.701,-56.0001"/>
</g>
<!-- Node73&#45;&gt;Node70 -->
<g id="edge5" class="edge"><title>Node73&#45;&gt;Node70</title>
<path fill="none" stroke="midnightblue" d="M294.933,-22.2332C286.327,-22.2892 277.614,-22.2055 269.33,-21.9821"/>
<polygon fill="midnightblue" stroke="midnightblue" points="295,-25.7327 304.953,-22.1033 294.909,-18.7333 295,-25.7327"/>
</g>
</g>
</svg>
