<?xml version="1.0" encoding="UTF-8" standalone="no"?>
<!DOCTYPE svg PUBLIC "-//W3C//DTD SVG 1.1//EN"
 "http://www.w3.org/Graphics/SVG/1.1/DTD/svg11.dtd">
<!-- Generated by graphviz version 2.38.0 (20140413.2041)
 -->
<!-- Title: kmp_get_register_timer_func Pages: 1 -->
<svg width="505pt" height="104pt"
 viewBox="0.00 0.00 505.00 104.00" xmlns="http://www.w3.org/2000/svg" xmlns:xlink="http://www.w3.org/1999/xlink">
<g id="graph0" class="graph" transform="scale(1 1) rotate(0) translate(4 100)">
<title>kmp_get_register_timer_func</title>
<polygon fill="white" stroke="none" points="-4,4 -4,-100 501,-100 501,4 -4,4"/>
<!-- Node50 -->
<g id="node1" class="node"><title>Node50</title>
<polygon fill="#bfbfbf" stroke="black" points="0,-19.5 0,-38.5 143,-38.5 143,-19.5 0,-19.5"/>
<text text-anchor="middle" x="71.5" y="-26.5" font-family="Helvetica,sans-Serif" font-size="10.00">kmp_get_register_timer_func</text>
</g>
<!-- Node51 -->
<g id="node2" class="node"><title>Node51</title>
<g id="a_node2"><a xlink:href="kmp_8c.html#aff9c217307fb9210d301ba14bc2b5707" target="_top" xlink:title="kmp_get_register">
<polygon fill="white" stroke="black" points="179,-38.5 179,-57.5 271,-57.5 271,-38.5 179,-38.5"/>
<text text-anchor="middle" x="225" y="-45.5" font-family="Helvetica,sans-Serif" font-size="10.00">kmp_get_register</text>
</a>
</g>
</g>
<!-- Node50&#45;&gt;Node51 -->
<g id="edge1" class="edge"><title>Node50&#45;&gt;Node51</title>
<path fill="none" stroke="midnightblue" d="M143.371,-37.8881C151.818,-38.9474 160.346,-40.017 168.533,-41.0438"/>
<polygon fill="midnightblue" stroke="midnightblue" points="168.331,-44.5458 178.689,-42.3175 169.203,-37.6002 168.331,-44.5458"/>
</g>
<!-- Node55 -->
<g id="node6" class="node"><title>Node55</title>
<g id="a_node6"><a xlink:href="uart_8c.html#a87f1c1c2a25d4336eb804da28ed99f7e" target="_top" xlink:title="uart0_tx_buffer">
<polygon fill="white" stroke="black" points="184,-0.5 184,-19.5 266,-19.5 266,-0.5 184,-0.5"/>
<text text-anchor="middle" x="225" y="-7.5" font-family="Helvetica,sans-Serif" font-size="10.00">uart0_tx_buffer</text>
</a>
</g>
</g>
<!-- Node50&#45;&gt;Node55 -->
<g id="edge5" class="edge"><title>Node50&#45;&gt;Node55</title>
<path fill="none" stroke="midnightblue" d="M143.371,-20.1119C153.551,-18.8352 163.848,-17.5438 173.525,-16.3302"/>
<polygon fill="midnightblue" stroke="midnightblue" points="174.259,-19.7656 183.746,-15.0484 173.388,-12.8201 174.259,-19.7656"/>
</g>
<!-- Node52 -->
<g id="node3" class="node"><title>Node52</title>
<g id="a_node3"><a xlink:href="kmp_8c.html#a799f8c5be2e9dd312ca86e43206634b9" target="_top" xlink:title="kmp_byte_stuff">
<polygon fill="white" stroke="black" points="311,-76.5 311,-95.5 395,-95.5 395,-76.5 311,-76.5"/>
<text text-anchor="middle" x="353" y="-83.5" font-family="Helvetica,sans-Serif" font-size="10.00">kmp_byte_stuff</text>
</a>
</g>
</g>
<!-- Node51&#45;&gt;Node52 -->
<g id="edge2" class="edge"><title>Node51&#45;&gt;Node52</title>
<path fill="none" stroke="midnightblue" d="M257.795,-57.589C273.762,-62.4044 293.307,-68.2988 310.447,-73.468"/>
<polygon fill="midnightblue" stroke="midnightblue" points="309.63,-76.8775 320.215,-76.4141 311.652,-70.1756 309.63,-76.8775"/>
</g>
<!-- Node53 -->
<g id="node4" class="node"><title>Node53</title>
<g id="a_node4"><a xlink:href="kmp_8c.html#a5245dd3f5d04db2e46786675e7ae97f8" target="_top" xlink:title="kmp_crc16">
<polygon fill="white" stroke="black" points="320.5,-38.5 320.5,-57.5 385.5,-57.5 385.5,-38.5 320.5,-38.5"/>
<text text-anchor="middle" x="353" y="-45.5" font-family="Helvetica,sans-Serif" font-size="10.00">kmp_crc16</text>
</a>
</g>
</g>
<!-- Node51&#45;&gt;Node53 -->
<g id="edge3" class="edge"><title>Node51&#45;&gt;Node53</title>
<path fill="none" stroke="midnightblue" d="M271.133,-48C283.821,-48 297.564,-48 310.058,-48"/>
<polygon fill="midnightblue" stroke="midnightblue" points="310.209,-51.5001 320.209,-48 310.209,-44.5001 310.209,-51.5001"/>
</g>
<!-- Node54 -->
<g id="node5" class="node"><title>Node54</title>
<g id="a_node5"><a xlink:href="utils_8c.html#a8d9e1de95e2d6d103108a4b0ebf4d923" target="_top" xlink:title="ccit_crc16">
<polygon fill="white" stroke="black" points="435,-38.5 435,-57.5 497,-57.5 497,-38.5 435,-38.5"/>
<text text-anchor="middle" x="466" y="-45.5" font-family="Helvetica,sans-Serif" font-size="10.00">ccit_crc16</text>
</a>
</g>
</g>
<!-- Node53&#45;&gt;Node54 -->
<g id="edge4" class="edge"><title>Node53&#45;&gt;Node54</title>
<path fill="none" stroke="midnightblue" d="M385.511,-48C397.75,-48 411.917,-48 424.87,-48"/>
<polygon fill="midnightblue" stroke="midnightblue" points="424.939,-51.5001 434.939,-48 424.939,-44.5001 424.939,-51.5001"/>
</g>
<!-- Node56 -->
<g id="node7" class="node"><title>Node56</title>
<g id="a_node7"><a xlink:href="uart_8c.html#a40bca7ca9b269f93bc9f17924a38fbe0" target="_top" xlink:title="uart_tx_one_char">
<polygon fill="white" stroke="black" points="307,-0.5 307,-19.5 399,-19.5 399,-0.5 307,-0.5"/>
<text text-anchor="middle" x="353" y="-7.5" font-family="Helvetica,sans-Serif" font-size="10.00">uart_tx_one_char</text>
</a>
</g>
</g>
<!-- Node55&#45;&gt;Node56 -->
<g id="edge6" class="edge"><title>Node55&#45;&gt;Node56</title>
<path fill="none" stroke="midnightblue" d="M266.214,-10C275.936,-10 286.496,-10 296.775,-10"/>
<polygon fill="midnightblue" stroke="midnightblue" points="296.92,-13.5001 306.92,-10 296.92,-6.5001 296.92,-13.5001"/>
</g>
</g>
</svg>
