<?xml version="1.0" encoding="UTF-8" standalone="no"?>
<!DOCTYPE svg PUBLIC "-//W3C//DTD SVG 1.1//EN"
 "http://www.w3.org/Graphics/SVG/1.1/DTD/svg11.dtd">
<!-- Generated by graphviz version 2.38.0 (20140413.2041)
 -->
<!-- Title: kmp_get_serial Pages: 1 -->
<svg width="669pt" height="78pt"
 viewBox="0.00 0.00 669.00 77.50" xmlns="http://www.w3.org/2000/svg" xmlns:xlink="http://www.w3.org/1999/xlink">
<g id="graph0" class="graph" transform="scale(1 1) rotate(0) translate(4 73.5)">
<title>kmp_get_serial</title>
<polygon fill="white" stroke="none" points="-4,4 -4,-73.5 665,-73.5 665,4 -4,4"/>
<!-- Node50 -->
<g id="node1" class="node"><title>Node50</title>
<polygon fill="#bfbfbf" stroke="black" points="0,-6 0,-25 83,-25 83,-6 0,-6"/>
<text text-anchor="middle" x="41.5" y="-13" font-family="Helvetica,sans-Serif" font-size="10.00">kmp_get_serial</text>
</g>
<!-- Node51 -->
<g id="node2" class="node"><title>Node51</title>
<g id="a_node2"><a xlink:href="kmp__request_8c.html#a7e59cff48c3c08aed48914a3a843d4b8" target="_top" xlink:title="kmp_get_serial_timer_func">
<polygon fill="white" stroke="black" points="119,-6 119,-25 253,-25 253,-6 119,-6"/>
<text text-anchor="middle" x="186" y="-13" font-family="Helvetica,sans-Serif" font-size="10.00">kmp_get_serial_timer_func</text>
</a>
</g>
</g>
<!-- Node50&#45;&gt;Node51 -->
<g id="edge1" class="edge"><title>Node50&#45;&gt;Node51</title>
<path fill="none" stroke="midnightblue" d="M93.507,-15.5C101.733,-15.5 110.351,-15.5 118.871,-15.5"/>
<polygon fill="midnightblue" stroke="midnightblue" points="93.3348,-12.0001 83.3348,-15.5 93.3347,-19.0001 93.3348,-12.0001"/>
</g>
<!-- Node52 -->
<g id="node3" class="node"><title>Node52</title>
<g id="a_node3"><a xlink:href="kmp__request_8h.html#a3b022dcdc832786eb06126b5e6879604" target="_top" xlink:title="kmp_request_send">
<polygon fill="white" stroke="black" points="289,-6 289,-25 388,-25 388,-6 289,-6"/>
<text text-anchor="middle" x="338.5" y="-13" font-family="Helvetica,sans-Serif" font-size="10.00">kmp_request_send</text>
</a>
</g>
</g>
<!-- Node51&#45;&gt;Node52 -->
<g id="edge2" class="edge"><title>Node51&#45;&gt;Node52</title>
<path fill="none" stroke="midnightblue" d="M263.188,-15.5C271.875,-15.5 280.544,-15.5 288.734,-15.5"/>
<polygon fill="midnightblue" stroke="midnightblue" points="263.012,-12.0001 253.011,-15.5 263.011,-19.0001 263.012,-12.0001"/>
</g>
<!-- Node53 -->
<g id="node4" class="node"><title>Node53</title>
<g id="a_node4"><a xlink:href="kmp__request_8c.html#a3f6b790a06b933b78f40ade5e9a16131" target="_top" xlink:title="kmp_received_task">
<polygon fill="white" stroke="black" points="428.5,-50 428.5,-69 529.5,-69 529.5,-50 428.5,-50"/>
<text text-anchor="middle" x="479" y="-57" font-family="Helvetica,sans-Serif" font-size="10.00">kmp_received_task</text>
</a>
</g>
</g>
<!-- Node52&#45;&gt;Node53 -->
<g id="edge3" class="edge"><title>Node52&#45;&gt;Node53</title>
<path fill="none" stroke="midnightblue" d="M379.232,-28.1224C401.13,-35.0793 427.873,-43.5753 448.006,-49.9713"/>
<polygon fill="midnightblue" stroke="midnightblue" points="380.143,-24.7395 369.552,-25.0473 378.023,-31.4109 380.143,-24.7395"/>
</g>
<!-- Node55 -->
<g id="node6" class="node"><title>Node55</title>
<g id="a_node6"><a xlink:href="kmp__request_8c.html#a0977a4640a97d389ac3b0fef0ba7a9b6" target="_top" xlink:title="kmp_receive_timeout\l_timer_func">
<polygon fill="white" stroke="black" points="424,-0.5 424,-30.5 534,-30.5 534,-0.5 424,-0.5"/>
<text text-anchor="start" x="432" y="-18.5" font-family="Helvetica,sans-Serif" font-size="10.00">kmp_receive_timeout</text>
<text text-anchor="middle" x="479" y="-7.5" font-family="Helvetica,sans-Serif" font-size="10.00">_timer_func</text>
</a>
</g>
</g>
<!-- Node52&#45;&gt;Node55 -->
<g id="edge5" class="edge"><title>Node52&#45;&gt;Node55</title>
<path fill="none" stroke="midnightblue" d="M398.498,-8.81618C406.948,-8.70637 415.606,-8.73321 423.953,-8.89672"/>
<polygon fill="midnightblue" stroke="midnightblue" points="398.259,-5.32015 388.33,-9.01789 398.397,-12.3188 398.259,-5.32015"/>
</g>
<!-- Node54 -->
<g id="node5" class="node"><title>Node54</title>
<g id="a_node5"><a xlink:href="kmp__request_8h.html#a048753ff9d6b448e2dcd8c85db0d6873" target="_top" xlink:title="kmp_request_init">
<polygon fill="white" stroke="black" points="570,-50 570,-69 661,-69 661,-50 570,-50"/>
<text text-anchor="middle" x="615.5" y="-57" font-family="Helvetica,sans-Serif" font-size="10.00">kmp_request_init</text>
</a>
</g>
</g>
<!-- Node53&#45;&gt;Node54 -->
<g id="edge4" class="edge"><title>Node53&#45;&gt;Node54</title>
<path fill="none" stroke="midnightblue" d="M539.725,-59.5C549.861,-59.5 560.228,-59.5 569.889,-59.5"/>
<polygon fill="midnightblue" stroke="midnightblue" points="539.701,-56.0001 529.701,-59.5 539.701,-63.0001 539.701,-56.0001"/>
</g>
<!-- Node55&#45;&gt;Node52 -->
<g id="edge6" class="edge"><title>Node55&#45;&gt;Node52</title>
<path fill="none" stroke="midnightblue" d="M413.933,-22.2332C405.327,-22.2892 396.614,-22.2055 388.33,-21.9821"/>
<polygon fill="midnightblue" stroke="midnightblue" points="414,-25.7327 423.953,-22.1033 413.909,-18.7333 414,-25.7327"/>
</g>
</g>
</svg>
