<?xml version="1.0" encoding="UTF-8" standalone="no"?>
<!DOCTYPE svg PUBLIC "-//W3C//DTD SVG 1.1//EN"
 "http://www.w3.org/Graphics/SVG/1.1/DTD/svg11.dtd">
<!-- Generated by graphviz version 2.38.0 (20140413.2041)
 -->
<!-- Title: led_pattern_a Pages: 1 -->
<svg width="1221pt" height="232pt"
 viewBox="0.00 0.00 1221.00 232.44" xmlns="http://www.w3.org/2000/svg" xmlns:xlink="http://www.w3.org/1999/xlink">
<g id="graph0" class="graph" transform="scale(1 1) rotate(0) translate(4 228.44)">
<title>led_pattern_a</title>
<polygon fill="white" stroke="none" points="-4,4 -4,-228.44 1217,-228.44 1217,4 -4,4"/>
<!-- Node183 -->
<g id="node1" class="node"><title>Node183</title>
<polygon fill="#bfbfbf" stroke="black" points="0,-128.94 0,-147.94 75,-147.94 75,-128.94 0,-128.94"/>
<text text-anchor="middle" x="37.5" y="-135.94" font-family="Helvetica,sans-Serif" font-size="10.00">led_pattern_a</text>
</g>
<!-- Node184 -->
<g id="node2" class="node"><title>Node184</title>
<g id="a_node2"><a xlink:href="ac__out_8h.html#aa17a09f7811a797293e31a39906ec1b0" target="_top" xlink:title="ac_motor_valve_open">
<polygon fill="white" stroke="black" points="111,-204.94 111,-223.94 223,-223.94 223,-204.94 111,-204.94"/>
<text text-anchor="middle" x="167" y="-211.94" font-family="Helvetica,sans-Serif" font-size="10.00">ac_motor_valve_open</text>
</a>
</g>
</g>
<!-- Node183&#45;&gt;Node184 -->
<g id="edge1" class="edge"><title>Node183&#45;&gt;Node184</title>
<path fill="none" stroke="midnightblue" d="M58.3209,-154.401C72.4805,-165.359 92.2647,-179.792 111,-190.44 120.51,-195.845 131.472,-200.854 141.094,-204.882"/>
<polygon fill="midnightblue" stroke="midnightblue" points="60.3165,-151.517 50.291,-148.091 55.9916,-157.022 60.3165,-151.517"/>
</g>
<!-- Node185 -->
<g id="node3" class="node"><title>Node185</title>
<g id="a_node3"><a xlink:href="ac__out_8h.html#ad511e0e9abde1a9313a1843cef50f82a" target="_top" xlink:title="ac_test">
<polygon fill="white" stroke="black" points="289,-166.94 289,-185.94 338,-185.94 338,-166.94 289,-166.94"/>
<text text-anchor="middle" x="313.5" y="-173.94" font-family="Helvetica,sans-Serif" font-size="10.00">ac_test</text>
</a>
</g>
</g>
<!-- Node183&#45;&gt;Node185 -->
<g id="edge2" class="edge"><title>Node183&#45;&gt;Node185</title>
<path fill="none" stroke="midnightblue" d="M80.1279,-150.584C90.1671,-153.169 100.91,-155.654 111,-157.44 174.664,-168.707 250.906,-173.593 288.757,-175.45"/>
<polygon fill="midnightblue" stroke="midnightblue" points="80.9372,-147.178 70.3734,-147.988 79.1367,-153.942 80.9372,-147.178"/>
</g>
<!-- Node188 -->
<g id="node6" class="node"><title>Node188</title>
<g id="a_node6"><a xlink:href="ac__out_8c.html#aa4f3e08453187a0500d0e5441274c7a1" target="_top" xlink:title="ac_test_timer_func">
<polygon fill="white" stroke="black" points="117,-128.94 117,-147.94 217,-147.94 217,-128.94 117,-128.94"/>
<text text-anchor="middle" x="167" y="-135.94" font-family="Helvetica,sans-Serif" font-size="10.00">ac_test_timer_func</text>
</a>
</g>
</g>
<!-- Node183&#45;&gt;Node188 -->
<g id="edge5" class="edge"><title>Node183&#45;&gt;Node188</title>
<path fill="none" stroke="midnightblue" d="M85.0519,-138.44C95.3258,-138.44 106.244,-138.44 116.625,-138.44"/>
<polygon fill="midnightblue" stroke="midnightblue" points="85.0364,-134.94 75.0364,-138.44 85.0363,-141.94 85.0364,-134.94"/>
</g>
<!-- Node189 -->
<g id="node7" class="node"><title>Node189</title>
<g id="a_node7"><a xlink:href="ac__out_8h.html#a3bc674b019d5e2e4d15e7abe7c69029f" target="_top" xlink:title="ac_thermo_close">
<polygon fill="white" stroke="black" points="121.5,-90.9401 121.5,-109.94 212.5,-109.94 212.5,-90.9401 121.5,-90.9401"/>
<text text-anchor="middle" x="167" y="-97.9401" font-family="Helvetica,sans-Serif" font-size="10.00">ac_thermo_close</text>
</a>
</g>
</g>
<!-- Node183&#45;&gt;Node189 -->
<g id="edge7" class="edge"><title>Node183&#45;&gt;Node189</title>
<path fill="none" stroke="midnightblue" d="M80.5592,-125.905C97.9041,-120.735 117.681,-114.841 133.837,-110.026"/>
<polygon fill="midnightblue" stroke="midnightblue" points="79.2574,-122.641 70.6736,-128.851 81.2568,-129.349 79.2574,-122.641"/>
</g>
<!-- Node191 -->
<g id="node9" class="node"><title>Node191</title>
<g id="a_node9"><a xlink:href="wifi_8c.html#a1ef15ecd9e69811f6db10215c7196281" target="_top" xlink:title="wifi_scan_done_cb">
<polygon fill="white" stroke="black" points="117,-52.9401 117,-71.9401 217,-71.9401 217,-52.9401 117,-52.9401"/>
<text text-anchor="middle" x="167" y="-59.9401" font-family="Helvetica,sans-Serif" font-size="10.00">wifi_scan_done_cb</text>
</a>
</g>
</g>
<!-- Node183&#45;&gt;Node191 -->
<g id="edge10" class="edge"><title>Node183&#45;&gt;Node191</title>
<path fill="none" stroke="midnightblue" d="M55.9452,-121.973C69.9389,-109.474 90.5561,-92.594 111,-81.4401 117.74,-77.7629 125.325,-74.5945 132.66,-71.9569"/>
<polygon fill="midnightblue" stroke="midnightblue" points="53.5481,-119.422 48.5226,-128.749 58.2677,-124.592 53.5481,-119.422"/>
</g>
<!-- Node186 -->
<g id="node4" class="node"><title>Node186</title>
<g id="a_node4"><a xlink:href="cron_8c.html#a2782af03df9b913cfa565a0770e1afe1" target="_top" xlink:title="minute_timer_func">
<polygon fill="white" stroke="black" points="404,-147.94 404,-166.94 501,-166.94 501,-147.94 404,-147.94"/>
<text text-anchor="middle" x="452.5" y="-154.94" font-family="Helvetica,sans-Serif" font-size="10.00">minute_timer_func</text>
</a>
</g>
</g>
<!-- Node185&#45;&gt;Node186 -->
<g id="edge3" class="edge"><title>Node185&#45;&gt;Node186</title>
<path fill="none" stroke="midnightblue" d="M347.967,-171.799C364.781,-169.467 385.447,-166.601 403.881,-164.044"/>
<polygon fill="midnightblue" stroke="midnightblue" points="347.476,-168.333 338.051,-173.174 348.437,-175.267 347.476,-168.333"/>
</g>
<!-- Node187 -->
<g id="node5" class="node"><title>Node187</title>
<g id="a_node5"><a xlink:href="cron_8h.html#ae130c5973bad35b56776750c7a34db12" target="_top" xlink:title="cron_init">
<polygon fill="white" stroke="black" points="583.5,-147.94 583.5,-166.94 636.5,-166.94 636.5,-147.94 583.5,-147.94"/>
<text text-anchor="middle" x="610" y="-154.94" font-family="Helvetica,sans-Serif" font-size="10.00">cron_init</text>
</a>
</g>
</g>
<!-- Node186&#45;&gt;Node187 -->
<g id="edge4" class="edge"><title>Node186&#45;&gt;Node187</title>
<path fill="none" stroke="midnightblue" d="M511.091,-157.44C535.984,-157.44 563.838,-157.44 583.453,-157.44"/>
<polygon fill="midnightblue" stroke="midnightblue" points="511,-153.94 501,-157.44 511,-160.94 511,-153.94"/>
</g>
<!-- Node188&#45;&gt;Node185 -->
<g id="edge6" class="edge"><title>Node188&#45;&gt;Node185</title>
<path fill="none" stroke="midnightblue" d="M214.4,-150.642C239.174,-157.157 268.617,-164.9 288.74,-170.192"/>
<polygon fill="midnightblue" stroke="midnightblue" points="215.025,-147.188 204.463,-148.029 213.244,-153.957 215.025,-147.188"/>
</g>
<!-- Node189&#45;&gt;Node186 -->
<g id="edge8" class="edge"><title>Node189&#45;&gt;Node186</title>
<path fill="none" stroke="midnightblue" d="M223.082,-100.784C263.745,-102.208 320.105,-106.653 368,-119.44 392.313,-125.931 418.422,-138.885 434.848,-147.851"/>
<polygon fill="midnightblue" stroke="midnightblue" points="222.936,-97.2778 212.836,-100.477 222.726,-104.275 222.936,-97.2778"/>
</g>
<!-- Node190 -->
<g id="node8" class="node"><title>Node190</title>
<g id="a_node8"><a xlink:href="mqtt__rpc_8h.html#a05494e7f22df36d57595a00a9386c871" target="_top" xlink:title="mqtt_rpc_close">
<polygon fill="white" stroke="black" points="272,-128.94 272,-147.94 355,-147.94 355,-128.94 272,-128.94"/>
<text text-anchor="middle" x="313.5" y="-135.94" font-family="Helvetica,sans-Serif" font-size="10.00">mqtt_rpc_close</text>
</a>
</g>
</g>
<!-- Node189&#45;&gt;Node190 -->
<g id="edge9" class="edge"><title>Node189&#45;&gt;Node190</title>
<path fill="none" stroke="midnightblue" d="M214.333,-112.624C234.394,-117.9 257.529,-123.984 276.299,-128.92"/>
<polygon fill="midnightblue" stroke="midnightblue" points="215.025,-109.188 204.463,-110.029 213.244,-115.957 215.025,-109.188"/>
</g>
<!-- Node192 -->
<g id="node10" class="node"><title>Node192</title>
<g id="a_node10"><a xlink:href="wifi_8c.html#ae7011f25db54676b86fefe2caa450a4a" target="_top" xlink:title="wifi_scan_timer_func">
<polygon fill="white" stroke="black" points="259,-14.9401 259,-33.9401 368,-33.9401 368,-14.9401 259,-14.9401"/>
<text text-anchor="middle" x="313.5" y="-21.9401" font-family="Helvetica,sans-Serif" font-size="10.00">wifi_scan_timer_func</text>
</a>
</g>
</g>
<!-- Node191&#45;&gt;Node192 -->
<g id="edge11" class="edge"><title>Node191&#45;&gt;Node192</title>
<path fill="none" stroke="midnightblue" d="M214.333,-50.2558C234.394,-44.9801 257.529,-38.8963 276.299,-33.9602"/>
<polygon fill="midnightblue" stroke="midnightblue" points="213.244,-46.9228 204.463,-52.8511 215.025,-53.6927 213.244,-46.9228"/>
</g>
<!-- Node193 -->
<g id="node11" class="node"><title>Node193</title>
<g id="a_node11"><a xlink:href="wifi_8c.html#a0d197abbbedf42c0522e20b43884c920" target="_top" xlink:title="acl_check_packet">
<polygon fill="white" stroke="black" points="719,-14.9401 719,-33.9401 814,-33.9401 814,-14.9401 719,-14.9401"/>
<text text-anchor="middle" x="766.5" y="-21.9401" font-family="Helvetica,sans-Serif" font-size="10.00">acl_check_packet</text>
</a>
</g>
</g>
<!-- Node192&#45;&gt;Node193 -->
<g id="edge12" class="edge"><title>Node192&#45;&gt;Node193</title>
<path fill="none" stroke="midnightblue" d="M378.106,-14.832C451.712,-5.17808 576.463,6.6693 683,-5.44011 699.356,-7.29923 717.192,-11.1683 732.082,-14.9328"/>
<polygon fill="midnightblue" stroke="midnightblue" points="377.514,-11.38 368.067,-16.1769 378.443,-18.3181 377.514,-11.38"/>
</g>
<!-- Node197 -->
<g id="node15" class="node"><title>Node197</title>
<g id="a_node15"><a xlink:href="wifi_8c.html#a2d61a3854e1f7d67dcbcb0c7da23c8cc" target="_top" xlink:title="wifi_start_scan">
<polygon fill="white" stroke="black" points="411,-52.9401 411,-71.9401 494,-71.9401 494,-52.9401 411,-52.9401"/>
<text text-anchor="middle" x="452.5" y="-59.9401" font-family="Helvetica,sans-Serif" font-size="10.00">wifi_start_scan</text>
</a>
</g>
</g>
<!-- Node192&#45;&gt;Node197 -->
<g id="edge16" class="edge"><title>Node192&#45;&gt;Node197</title>
<path fill="none" stroke="midnightblue" d="M377.951,-35.306C398.523,-40.8788 419.705,-47.4367 434.023,-52.906"/>
<polygon fill="midnightblue" stroke="midnightblue" points="378.815,-31.9143 368.253,-32.7407 377.025,-38.6816 378.815,-31.9143"/>
</g>
<!-- Node194 -->
<g id="node12" class="node"><title>Node194</title>
<g id="a_node12"><a xlink:href="wifi_8c.html#a3cea38a15b267ddabc1e6d5cf72b5ae8" target="_top" xlink:title="my_input_ap">
<polygon fill="white" stroke="black" points="869,-14.9401 869,-33.9401 941,-33.9401 941,-14.9401 869,-14.9401"/>
<text text-anchor="middle" x="905" y="-21.9401" font-family="Helvetica,sans-Serif" font-size="10.00">my_input_ap</text>
</a>
</g>
</g>
<!-- Node193&#45;&gt;Node194 -->
<g id="edge13" class="edge"><title>Node193&#45;&gt;Node194</title>
<path fill="none" stroke="midnightblue" d="M824.369,-24.4401C839.442,-24.4401 855.277,-24.4401 868.82,-24.4401"/>
<polygon fill="midnightblue" stroke="midnightblue" points="824.094,-20.9402 814.094,-24.4401 824.094,-27.9402 824.094,-20.9402"/>
</g>
<!-- Node195 -->
<g id="node13" class="node"><title>Node195</title>
<g id="a_node13"><a xlink:href="wifi_8c.html#aa87c06c3cbab2aa762551fcec59dc8f0" target="_top" xlink:title="wifi_handle_event_cb">
<polygon fill="white" stroke="black" points="996,-14.9401 996,-33.9401 1106,-33.9401 1106,-14.9401 996,-14.9401"/>
<text text-anchor="middle" x="1051" y="-21.9401" font-family="Helvetica,sans-Serif" font-size="10.00">wifi_handle_event_cb</text>
</a>
</g>
</g>
<!-- Node194&#45;&gt;Node195 -->
<g id="edge14" class="edge"><title>Node194&#45;&gt;Node195</title>
<path fill="none" stroke="midnightblue" d="M951.61,-24.4401C965.64,-24.4401 981.222,-24.4401 995.771,-24.4401"/>
<polygon fill="midnightblue" stroke="midnightblue" points="951.226,-20.9402 941.226,-24.4401 951.226,-27.9402 951.226,-20.9402"/>
</g>
<!-- Node196 -->
<g id="node14" class="node"><title>Node196</title>
<g id="a_node14"><a xlink:href="wifi_8c.html#a574e5442f0b2b8f99c8d157836ab38ba" target="_top" xlink:title="wifi_connect">
<polygon fill="white" stroke="black" points="1142,-33.9401 1142,-52.9401 1213,-52.9401 1213,-33.9401 1142,-33.9401"/>
<text text-anchor="middle" x="1177.5" y="-40.9401" font-family="Helvetica,sans-Serif" font-size="10.00">wifi_connect</text>
</a>
</g>
</g>
<!-- Node195&#45;&gt;Node196 -->
<g id="edge15" class="edge"><title>Node195&#45;&gt;Node196</title>
<path fill="none" stroke="midnightblue" d="M1116.19,-34.2361C1125.01,-35.5824 1133.78,-36.9207 1141.79,-38.1428"/>
<polygon fill="midnightblue" stroke="midnightblue" points="1116.66,-30.7673 1106.25,-32.7185 1115.6,-37.6872 1116.66,-30.7673"/>
</g>
<!-- Node197&#45;&gt;Node191 -->
<g id="edge24" class="edge"><title>Node197&#45;&gt;Node191</title>
<path fill="none" stroke="midnightblue" d="M400.835,-62.4401C348.835,-62.4401 268.465,-62.4401 217.058,-62.4401"/>
<polygon fill="midnightblue" stroke="midnightblue" points="400.84,-65.9402 410.84,-62.4401 400.84,-58.9402 400.84,-65.9402"/>
</g>
<!-- Node197&#45;&gt;Node192 -->
<g id="edge28" class="edge"><title>Node197&#45;&gt;Node192</title>
<path fill="none" stroke="midnightblue" d="M401.159,-55.0116C376.974,-48.8896 349.534,-40.6677 332.13,-34.0325"/>
<polygon fill="midnightblue" stroke="midnightblue" points="400.389,-58.4265 410.936,-57.4128 402.059,-51.6285 400.389,-58.4265"/>
</g>
<!-- Node197&#45;&gt;Node196 -->
<g id="edge17" class="edge"><title>Node197&#45;&gt;Node196</title>
<path fill="none" stroke="midnightblue" d="M504.644,-62.4401C566.446,-62.4401 673.588,-62.4401 765.5,-62.4401 765.5,-62.4401 765.5,-62.4401 906,-62.4401 990.975,-62.4401 1090.6,-52.9945 1141.97,-47.4231"/>
<polygon fill="midnightblue" stroke="midnightblue" points="504.385,-58.9402 494.385,-62.4401 504.385,-65.9402 504.385,-58.9402"/>
</g>
<!-- Node198 -->
<g id="node16" class="node"><title>Node198</title>
<g id="a_node16"><a xlink:href="watchdog_8c.html#a47b6861ffbed37fef88aa644f10ba917" target="_top" xlink:title="wifi_reconnect_timer_func">
<polygon fill="white" stroke="black" points="544.5,-90.9401 544.5,-109.94 675.5,-109.94 675.5,-90.9401 544.5,-90.9401"/>
<text text-anchor="middle" x="610" y="-97.9401" font-family="Helvetica,sans-Serif" font-size="10.00">wifi_reconnect_timer_func</text>
</a>
</g>
</g>
<!-- Node197&#45;&gt;Node198 -->
<g id="edge18" class="edge"><title>Node197&#45;&gt;Node198</title>
<path fill="none" stroke="midnightblue" d="M502.474,-74.4081C524.265,-79.7332 549.567,-85.9163 570.043,-90.9201"/>
<polygon fill="midnightblue" stroke="midnightblue" points="503.284,-71.0031 492.739,-72.0291 501.622,-77.803 503.284,-71.0031"/>
</g>
<!-- Node204 -->
<g id="node22" class="node"><title>Node204</title>
<g id="a_node22"><a xlink:href="wifi_8c.html#a189ec83a0503a6fc45b102014a80403b" target="_top" xlink:title="wifi_scan_timeout_timer_func">
<polygon fill="white" stroke="black" points="537,-14.9401 537,-33.9401 683,-33.9401 683,-14.9401 537,-14.9401"/>
<text text-anchor="middle" x="610" y="-21.9401" font-family="Helvetica,sans-Serif" font-size="10.00">wifi_scan_timeout_timer_func</text>
</a>
</g>
</g>
<!-- Node197&#45;&gt;Node204 -->
<g id="edge25" class="edge"><title>Node197&#45;&gt;Node204</title>
<path fill="none" stroke="midnightblue" d="M502.474,-50.4721C524.265,-45.147 549.567,-38.9639 570.043,-33.9602"/>
<polygon fill="midnightblue" stroke="midnightblue" points="501.622,-47.0772 492.739,-52.8511 503.284,-53.8771 501.622,-47.0772"/>
</g>
<!-- Node199 -->
<g id="node17" class="node"><title>Node199</title>
<g id="a_node17"><a xlink:href="watchdog_8h.html#a98ac743883b75c5bf36e0d6b0fe982fa" target="_top" xlink:title="force_reset_wifi">
<polygon fill="white" stroke="black" points="723.5,-90.9401 723.5,-109.94 809.5,-109.94 809.5,-90.9401 723.5,-90.9401"/>
<text text-anchor="middle" x="766.5" y="-97.9401" font-family="Helvetica,sans-Serif" font-size="10.00">force_reset_wifi</text>
</a>
</g>
</g>
<!-- Node198&#45;&gt;Node199 -->
<g id="edge19" class="edge"><title>Node198&#45;&gt;Node199</title>
<path fill="none" stroke="midnightblue" d="M685.851,-100.44C698.657,-100.44 711.55,-100.44 723.123,-100.44"/>
<polygon fill="midnightblue" stroke="midnightblue" points="685.627,-96.9402 675.627,-100.44 685.627,-103.94 685.627,-96.9402"/>
</g>
<!-- Node200 -->
<g id="node18" class="node"><title>Node200</title>
<g id="a_node18"><a xlink:href="kmp__request_8c.html#a3f6b790a06b933b78f40ade5e9a16131" target="_top" xlink:title="kmp_received_task">
<polygon fill="white" stroke="black" points="854.5,-128.94 854.5,-147.94 955.5,-147.94 955.5,-128.94 854.5,-128.94"/>
<text text-anchor="middle" x="905" y="-135.94" font-family="Helvetica,sans-Serif" font-size="10.00">kmp_received_task</text>
</a>
</g>
</g>
<!-- Node199&#45;&gt;Node200 -->
<g id="edge20" class="edge"><title>Node199&#45;&gt;Node200</title>
<path fill="none" stroke="midnightblue" d="M811.749,-112.758C830.503,-117.979 852.028,-123.972 869.566,-128.854"/>
<polygon fill="midnightblue" stroke="midnightblue" points="812.517,-109.339 801.945,-110.029 810.64,-116.083 812.517,-109.339"/>
</g>
<!-- Node202 -->
<g id="node20" class="node"><title>Node202</title>
<g id="a_node20"><a xlink:href="watchdog_8c.html#aeb03c505b5b589ae4d89b2ae11dd1711" target="_top" xlink:title="watchdog_timer_func">
<polygon fill="white" stroke="black" points="850,-90.9401 850,-109.94 960,-109.94 960,-90.9401 850,-90.9401"/>
<text text-anchor="middle" x="905" y="-97.9401" font-family="Helvetica,sans-Serif" font-size="10.00">watchdog_timer_func</text>
</a>
</g>
</g>
<!-- Node199&#45;&gt;Node202 -->
<g id="edge22" class="edge"><title>Node199&#45;&gt;Node202</title>
<path fill="none" stroke="midnightblue" d="M819.63,-100.44C829.486,-100.44 839.818,-100.44 849.738,-100.44"/>
<polygon fill="midnightblue" stroke="midnightblue" points="819.568,-96.9402 809.568,-100.44 819.568,-103.94 819.568,-96.9402"/>
</g>
<!-- Node201 -->
<g id="node19" class="node"><title>Node201</title>
<g id="a_node19"><a xlink:href="kmp__request_8h.html#a048753ff9d6b448e2dcd8c85db0d6873" target="_top" xlink:title="kmp_request_init">
<polygon fill="white" stroke="black" points="1005.5,-128.94 1005.5,-147.94 1096.5,-147.94 1096.5,-128.94 1005.5,-128.94"/>
<text text-anchor="middle" x="1051" y="-135.94" font-family="Helvetica,sans-Serif" font-size="10.00">kmp_request_init</text>
</a>
</g>
</g>
<!-- Node200&#45;&gt;Node201 -->
<g id="edge21" class="edge"><title>Node200&#45;&gt;Node201</title>
<path fill="none" stroke="midnightblue" d="M965.938,-138.44C979.073,-138.44 992.759,-138.44 1005.18,-138.44"/>
<polygon fill="midnightblue" stroke="midnightblue" points="965.557,-134.94 955.557,-138.44 965.557,-141.94 965.557,-134.94"/>
</g>
<!-- Node203 -->
<g id="node21" class="node"><title>Node203</title>
<g id="a_node21"><a xlink:href="watchdog_8h.html#ab148f2150b52df5b60e312dded3a2934" target="_top" xlink:title="start_watchdog">
<polygon fill="white" stroke="black" points="1009.5,-90.9401 1009.5,-109.94 1092.5,-109.94 1092.5,-90.9401 1009.5,-90.9401"/>
<text text-anchor="middle" x="1051" y="-97.9401" font-family="Helvetica,sans-Serif" font-size="10.00">start_watchdog</text>
</a>
</g>
</g>
<!-- Node202&#45;&gt;Node203 -->
<g id="edge23" class="edge"><title>Node202&#45;&gt;Node203</title>
<path fill="none" stroke="midnightblue" d="M970.083,-100.44C983.361,-100.44 997.002,-100.44 1009.17,-100.44"/>
<polygon fill="midnightblue" stroke="midnightblue" points="970.03,-96.9402 960.03,-100.44 970.03,-103.94 970.03,-96.9402"/>
</g>
<!-- Node204&#45;&gt;Node192 -->
<g id="edge27" class="edge"><title>Node204&#45;&gt;Node192</title>
<path fill="none" stroke="midnightblue" d="M526.561,-24.4401C475.883,-24.4401 412.409,-24.4401 368.173,-24.4401"/>
<polygon fill="midnightblue" stroke="midnightblue" points="526.843,-27.9402 536.843,-24.4401 526.843,-20.9402 526.843,-27.9402"/>
</g>
<!-- Node204&#45;&gt;Node193 -->
<g id="edge26" class="edge"><title>Node204&#45;&gt;Node193</title>
<path fill="none" stroke="midnightblue" d="M693.491,-24.4401C702.182,-24.4401 710.784,-24.4401 718.855,-24.4401"/>
<polygon fill="midnightblue" stroke="midnightblue" points="693.274,-20.9402 683.274,-24.4401 693.274,-27.9402 693.274,-20.9402"/>
</g>
</g>
</svg>
