<?xml version="1.0" encoding="UTF-8" standalone="no"?>
<!DOCTYPE svg PUBLIC "-//W3C//DTD SVG 1.1//EN"
 "http://www.w3.org/Graphics/SVG/1.1/DTD/svg11.dtd">
<!-- Generated by graphviz version 2.38.0 (20140413.2041)
 -->
<!-- Title: led_stop_pattern Pages: 1 -->
<svg width="1263pt" height="309pt"
 viewBox="0.00 0.00 1263.00 308.89" xmlns="http://www.w3.org/2000/svg" xmlns:xlink="http://www.w3.org/1999/xlink">
<g id="graph0" class="graph" transform="scale(1 1) rotate(0) translate(4 304.891)">
<title>led_stop_pattern</title>
<polygon fill="white" stroke="none" points="-4,4 -4,-304.891 1259,-304.891 1259,4 -4,4"/>
<!-- Node250 -->
<g id="node1" class="node"><title>Node250</title>
<polygon fill="#bfbfbf" stroke="black" points="0,-129.391 0,-148.391 89,-148.391 89,-129.391 0,-129.391"/>
<text text-anchor="middle" x="44.5" y="-136.391" font-family="Helvetica,sans-Serif" font-size="10.00">led_stop_pattern</text>
</g>
<!-- Node251 -->
<g id="node2" class="node"><title>Node251</title>
<g id="a_node2"><a xlink:href="ac__out_8c.html#a07e9d906599f62767ef1efb99d8fce11" target="_top" xlink:title="ac_out_off_timer_func">
<polygon fill="white" stroke="black" points="125,-224.391 125,-243.391 238,-243.391 238,-224.391 125,-224.391"/>
<text text-anchor="middle" x="181.5" y="-231.391" font-family="Helvetica,sans-Serif" font-size="10.00">ac_out_off_timer_func</text>
</a>
</g>
</g>
<!-- Node250&#45;&gt;Node251 -->
<g id="edge1" class="edge"><title>Node250&#45;&gt;Node251</title>
<path fill="none" stroke="midnightblue" d="M66.8054,-154.356C82.7632,-165.894 105.167,-181.994 125,-195.891 138.963,-205.675 155.051,-216.659 166.299,-224.291"/>
<polygon fill="midnightblue" stroke="midnightblue" points="68.8128,-151.489 58.6604,-148.459 64.7076,-157.159 68.8128,-151.489"/>
</g>
<!-- Node257 -->
<g id="node8" class="node"><title>Node257</title>
<g id="a_node8"><a xlink:href="ac__out_8h.html#aa3b68ad0802843bd0874e86712d6fef4" target="_top" xlink:title="ac_thermo_pwm">
<polygon fill="white" stroke="black" points="137,-167.391 137,-186.391 226,-186.391 226,-167.391 137,-167.391"/>
<text text-anchor="middle" x="181.5" y="-174.391" font-family="Helvetica,sans-Serif" font-size="10.00">ac_thermo_pwm</text>
</a>
</g>
</g>
<!-- Node250&#45;&gt;Node257 -->
<g id="edge9" class="edge"><title>Node250&#45;&gt;Node257</title>
<path fill="none" stroke="midnightblue" d="M89.2625,-151.209C107.811,-156.43 129.099,-162.422 146.445,-167.305"/>
<polygon fill="midnightblue" stroke="midnightblue" points="90.1405,-147.82 79.5662,-148.48 88.2438,-154.559 90.1405,-147.82"/>
</g>
<!-- Node258 -->
<g id="node9" class="node"><title>Node258</title>
<g id="a_node9"><a xlink:href="led_8h.html#a4eae1e968117705e5b0009646c192a5c" target="_top" xlink:title="led_destroy">
<polygon fill="white" stroke="black" points="148,-129.391 148,-148.391 215,-148.391 215,-129.391 148,-129.391"/>
<text text-anchor="middle" x="181.5" y="-136.391" font-family="Helvetica,sans-Serif" font-size="10.00">led_destroy</text>
</a>
</g>
</g>
<!-- Node250&#45;&gt;Node258 -->
<g id="edge10" class="edge"><title>Node250&#45;&gt;Node258</title>
<path fill="none" stroke="midnightblue" d="M99.7748,-138.891C115.962,-138.891 133.206,-138.891 147.582,-138.891"/>
<polygon fill="midnightblue" stroke="midnightblue" points="99.3307,-135.391 89.3306,-138.891 99.3306,-142.391 99.3307,-135.391"/>
</g>
<!-- Node263 -->
<g id="node14" class="node"><title>Node263</title>
<g id="a_node14"><a xlink:href="watchdog_8c.html#a47b6861ffbed37fef88aa644f10ba917" target="_top" xlink:title="wifi_reconnect_timer_func">
<polygon fill="white" stroke="black" points="586.5,-91.3909 586.5,-110.391 717.5,-110.391 717.5,-91.3909 586.5,-91.3909"/>
<text text-anchor="middle" x="652" y="-98.3909" font-family="Helvetica,sans-Serif" font-size="10.00">wifi_reconnect_timer_func</text>
</a>
</g>
</g>
<!-- Node250&#45;&gt;Node263 -->
<g id="edge15" class="edge"><title>Node250&#45;&gt;Node263</title>
<path fill="none" stroke="midnightblue" d="M88.817,-126.894C100.478,-124.117 113.146,-121.505 125,-119.891 290.015,-97.4188 486.665,-97.3135 586.274,-99.1178"/>
<polygon fill="midnightblue" stroke="midnightblue" points="87.7404,-123.555 78.8749,-129.356 89.423,-130.349 87.7404,-123.555"/>
</g>
<!-- Node269 -->
<g id="node20" class="node"><title>Node269</title>
<g id="a_node20"><a xlink:href="wifi_8c.html#a1ef15ecd9e69811f6db10215c7196281" target="_top" xlink:title="wifi_scan_done_cb">
<polygon fill="white" stroke="black" points="131.5,-53.3909 131.5,-72.3909 231.5,-72.3909 231.5,-53.3909 131.5,-53.3909"/>
<text text-anchor="middle" x="181.5" y="-60.3909" font-family="Helvetica,sans-Serif" font-size="10.00">wifi_scan_done_cb</text>
</a>
</g>
</g>
<!-- Node250&#45;&gt;Node269 -->
<g id="edge21" class="edge"><title>Node250&#45;&gt;Node269</title>
<path fill="none" stroke="midnightblue" d="M67.0061,-123.378C82.661,-112.449 104.604,-97.8667 125,-86.8909 134.891,-81.5679 146.21,-76.5019 156.034,-72.4079"/>
<polygon fill="midnightblue" stroke="midnightblue" points="64.7217,-120.707 58.5746,-129.336 68.7613,-126.424 64.7217,-120.707"/>
</g>
<!-- Node252 -->
<g id="node3" class="node"><title>Node252</title>
<g id="a_node3"><a xlink:href="ac__out_8h.html#a483eac71fafd6926d6e16c08b87530ef" target="_top" xlink:title="ac_motor_valve_close">
<polygon fill="white" stroke="black" points="429,-281.391 429,-300.391 543,-300.391 543,-281.391 429,-281.391"/>
<text text-anchor="middle" x="486" y="-288.391" font-family="Helvetica,sans-Serif" font-size="10.00">ac_motor_valve_close</text>
</a>
</g>
</g>
<!-- Node251&#45;&gt;Node252 -->
<g id="edge2" class="edge"><title>Node251&#45;&gt;Node252</title>
<path fill="none" stroke="midnightblue" d="M210.063,-247.927C227.847,-256.325 251.736,-266.402 274,-271.891 325.424,-284.569 385.757,-288.996 428.707,-290.443"/>
<polygon fill="midnightblue" stroke="midnightblue" points="211.386,-244.679 200.86,-243.473 208.337,-250.98 211.386,-244.679"/>
</g>
<!-- Node253 -->
<g id="node4" class="node"><title>Node253</title>
<g id="a_node4"><a xlink:href="ac__out_8h.html#aa17a09f7811a797293e31a39906ec1b0" target="_top" xlink:title="ac_motor_valve_open">
<polygon fill="white" stroke="black" points="430,-205.391 430,-224.391 542,-224.391 542,-205.391 430,-205.391"/>
<text text-anchor="middle" x="486" y="-212.391" font-family="Helvetica,sans-Serif" font-size="10.00">ac_motor_valve_open</text>
</a>
</g>
</g>
<!-- Node251&#45;&gt;Node253 -->
<g id="edge3" class="edge"><title>Node251&#45;&gt;Node253</title>
<path fill="none" stroke="midnightblue" d="M248.538,-229.743C302.769,-226.337 378.692,-221.568 429.745,-218.361"/>
<polygon fill="midnightblue" stroke="midnightblue" points="248.097,-226.264 238.336,-230.384 248.535,-233.25 248.097,-226.264"/>
</g>
<!-- Node254 -->
<g id="node5" class="node"><title>Node254</title>
<g id="a_node5"><a xlink:href="ac__out_8h.html#aaa0444bb417d9a634d5304b267f4fcda" target="_top" xlink:title="ac_off">
<polygon fill="white" stroke="black" points="311.5,-243.391 311.5,-262.391 355.5,-262.391 355.5,-243.391 311.5,-243.391"/>
<text text-anchor="middle" x="333.5" y="-250.391" font-family="Helvetica,sans-Serif" font-size="10.00">ac_off</text>
</a>
</g>
</g>
<!-- Node251&#45;&gt;Node254 -->
<g id="edge4" class="edge"><title>Node251&#45;&gt;Node254</title>
<path fill="none" stroke="midnightblue" d="M248.341,-242.231C271.068,-245.109 294.933,-248.132 311.421,-250.221"/>
<polygon fill="midnightblue" stroke="midnightblue" points="248.715,-238.75 238.354,-240.966 247.835,-245.695 248.715,-238.75"/>
</g>
<!-- Node254&#45;&gt;Node252 -->
<g id="edge5" class="edge"><title>Node254&#45;&gt;Node252</title>
<path fill="none" stroke="midnightblue" d="M365.627,-260.75C389.347,-266.739 422.113,-275.012 447.316,-281.376"/>
<polygon fill="midnightblue" stroke="midnightblue" points="366.296,-257.309 355.744,-258.255 364.583,-264.096 366.296,-257.309"/>
</g>
<!-- Node254&#45;&gt;Node253 -->
<g id="edge6" class="edge"><title>Node254&#45;&gt;Node253</title>
<path fill="none" stroke="midnightblue" d="M365.627,-245.032C389.347,-239.042 422.113,-230.769 447.316,-224.406"/>
<polygon fill="midnightblue" stroke="midnightblue" points="364.583,-241.685 355.744,-247.527 366.296,-248.472 364.583,-241.685"/>
</g>
<!-- Node255 -->
<g id="node6" class="node"><title>Node255</title>
<g id="a_node6"><a xlink:href="cron_8c.html#a2782af03df9b913cfa565a0770e1afe1" target="_top" xlink:title="minute_timer_func">
<polygon fill="white" stroke="black" points="437.5,-243.391 437.5,-262.391 534.5,-262.391 534.5,-243.391 437.5,-243.391"/>
<text text-anchor="middle" x="486" y="-250.391" font-family="Helvetica,sans-Serif" font-size="10.00">minute_timer_func</text>
</a>
</g>
</g>
<!-- Node254&#45;&gt;Node255 -->
<g id="edge7" class="edge"><title>Node254&#45;&gt;Node255</title>
<path fill="none" stroke="midnightblue" d="M365.857,-252.891C386.484,-252.891 413.878,-252.891 437.197,-252.891"/>
<polygon fill="midnightblue" stroke="midnightblue" points="365.744,-249.391 355.744,-252.891 365.744,-256.391 365.744,-249.391"/>
</g>
<!-- Node256 -->
<g id="node7" class="node"><title>Node256</title>
<g id="a_node7"><a xlink:href="cron_8h.html#ae130c5973bad35b56776750c7a34db12" target="_top" xlink:title="cron_init">
<polygon fill="white" stroke="black" points="625.5,-243.391 625.5,-262.391 678.5,-262.391 678.5,-243.391 625.5,-243.391"/>
<text text-anchor="middle" x="652" y="-250.391" font-family="Helvetica,sans-Serif" font-size="10.00">cron_init</text>
</a>
</g>
</g>
<!-- Node255&#45;&gt;Node256 -->
<g id="edge8" class="edge"><title>Node255&#45;&gt;Node256</title>
<path fill="none" stroke="midnightblue" d="M545.149,-252.891C572.521,-252.891 603.778,-252.891 625.189,-252.891"/>
<polygon fill="midnightblue" stroke="midnightblue" points="544.876,-249.391 534.876,-252.891 544.876,-256.391 544.876,-249.391"/>
</g>
<!-- Node259 -->
<g id="node10" class="node"><title>Node259</title>
<g id="a_node10"><a xlink:href="utils_8h.html#abc584694613811efea7c661c9dcefe17" target="_top" xlink:title="system_restart_defered">
<polygon fill="white" stroke="black" points="274,-129.391 274,-148.391 393,-148.391 393,-129.391 274,-129.391"/>
<text text-anchor="middle" x="333.5" y="-136.391" font-family="Helvetica,sans-Serif" font-size="10.00">system_restart_defered</text>
</a>
</g>
</g>
<!-- Node258&#45;&gt;Node259 -->
<g id="edge11" class="edge"><title>Node258&#45;&gt;Node259</title>
<path fill="none" stroke="midnightblue" d="M225.119,-138.891C240.223,-138.891 257.497,-138.891 273.709,-138.891"/>
<polygon fill="midnightblue" stroke="midnightblue" points="225.048,-135.391 215.048,-138.891 225.048,-142.391 225.048,-135.391"/>
</g>
<!-- Node260 -->
<g id="node11" class="node"><title>Node260</title>
<g id="a_node11"><a xlink:href="cgiwifi_8c.html#a9d53126c0a5bdeb1318f081f1cca3a84" target="_top" xlink:title="resetTimerCb">
<polygon fill="white" stroke="black" points="448,-129.391 448,-148.391 524,-148.391 524,-129.391 448,-129.391"/>
<text text-anchor="middle" x="486" y="-136.391" font-family="Helvetica,sans-Serif" font-size="10.00">resetTimerCb</text>
</a>
</g>
</g>
<!-- Node259&#45;&gt;Node260 -->
<g id="edge12" class="edge"><title>Node259&#45;&gt;Node260</title>
<path fill="none" stroke="midnightblue" d="M403.54,-138.891C418.717,-138.891 434.232,-138.891 447.595,-138.891"/>
<polygon fill="midnightblue" stroke="midnightblue" points="403.118,-135.391 393.118,-138.891 403.118,-142.391 403.118,-135.391"/>
</g>
<!-- Node262 -->
<g id="node13" class="node"><title>Node262</title>
<g id="a_node13"><a xlink:href="mqtt__rpc_8h.html#ae3c71a438ecea4bb271bd1586af59452" target="_top" xlink:title="mqtt_rpc_restart">
<polygon fill="white" stroke="black" points="442,-167.391 442,-186.391 530,-186.391 530,-167.391 442,-167.391"/>
<text text-anchor="middle" x="486" y="-174.391" font-family="Helvetica,sans-Serif" font-size="10.00">mqtt_rpc_restart</text>
</a>
</g>
</g>
<!-- Node259&#45;&gt;Node262 -->
<g id="edge14" class="edge"><title>Node259&#45;&gt;Node262</title>
<path fill="none" stroke="midnightblue" d="M382.185,-150.931C403.21,-156.24 427.567,-162.39 447.296,-167.371"/>
<polygon fill="midnightblue" stroke="midnightblue" points="383.03,-147.535 372.478,-148.48 381.316,-154.322 383.03,-147.535"/>
</g>
<!-- Node261 -->
<g id="node12" class="node"><title>Node261</title>
<g id="a_node12"><a xlink:href="cgiwifi_8h.html#a7c655a56f56ecebad923c5c4daeb7f1a" target="_top" xlink:title="cgiSetup">
<polygon fill="white" stroke="black" points="624.5,-129.391 624.5,-148.391 679.5,-148.391 679.5,-129.391 624.5,-129.391"/>
<text text-anchor="middle" x="652" y="-136.391" font-family="Helvetica,sans-Serif" font-size="10.00">cgiSetup</text>
</a>
</g>
</g>
<!-- Node260&#45;&gt;Node261 -->
<g id="edge13" class="edge"><title>Node260&#45;&gt;Node261</title>
<path fill="none" stroke="midnightblue" d="M534.239,-138.891C563.528,-138.891 600.077,-138.891 624.404,-138.891"/>
<polygon fill="midnightblue" stroke="midnightblue" points="534.214,-135.391 524.214,-138.891 534.214,-142.391 534.214,-135.391"/>
</g>
<!-- Node264 -->
<g id="node15" class="node"><title>Node264</title>
<g id="a_node15"><a xlink:href="watchdog_8h.html#a98ac743883b75c5bf36e0d6b0fe982fa" target="_top" xlink:title="force_reset_wifi">
<polygon fill="white" stroke="black" points="765.5,-91.3909 765.5,-110.391 851.5,-110.391 851.5,-91.3909 765.5,-91.3909"/>
<text text-anchor="middle" x="808.5" y="-98.3909" font-family="Helvetica,sans-Serif" font-size="10.00">force_reset_wifi</text>
</a>
</g>
</g>
<!-- Node263&#45;&gt;Node264 -->
<g id="edge16" class="edge"><title>Node263&#45;&gt;Node264</title>
<path fill="none" stroke="midnightblue" d="M727.851,-100.891C740.657,-100.891 753.55,-100.891 765.123,-100.891"/>
<polygon fill="midnightblue" stroke="midnightblue" points="727.627,-97.391 717.627,-100.891 727.627,-104.391 727.627,-97.391"/>
</g>
<!-- Node265 -->
<g id="node16" class="node"><title>Node265</title>
<g id="a_node16"><a xlink:href="kmp__request_8c.html#a3f6b790a06b933b78f40ade5e9a16131" target="_top" xlink:title="kmp_received_task">
<polygon fill="white" stroke="black" points="896.5,-129.391 896.5,-148.391 997.5,-148.391 997.5,-129.391 896.5,-129.391"/>
<text text-anchor="middle" x="947" y="-136.391" font-family="Helvetica,sans-Serif" font-size="10.00">kmp_received_task</text>
</a>
</g>
</g>
<!-- Node264&#45;&gt;Node265 -->
<g id="edge17" class="edge"><title>Node264&#45;&gt;Node265</title>
<path fill="none" stroke="midnightblue" d="M853.749,-113.209C872.503,-118.43 894.028,-124.422 911.566,-129.305"/>
<polygon fill="midnightblue" stroke="midnightblue" points="854.517,-109.79 843.945,-110.48 852.64,-116.534 854.517,-109.79"/>
</g>
<!-- Node267 -->
<g id="node18" class="node"><title>Node267</title>
<g id="a_node18"><a xlink:href="watchdog_8c.html#aeb03c505b5b589ae4d89b2ae11dd1711" target="_top" xlink:title="watchdog_timer_func">
<polygon fill="white" stroke="black" points="892,-91.3909 892,-110.391 1002,-110.391 1002,-91.3909 892,-91.3909"/>
<text text-anchor="middle" x="947" y="-98.3909" font-family="Helvetica,sans-Serif" font-size="10.00">watchdog_timer_func</text>
</a>
</g>
</g>
<!-- Node264&#45;&gt;Node267 -->
<g id="edge19" class="edge"><title>Node264&#45;&gt;Node267</title>
<path fill="none" stroke="midnightblue" d="M861.63,-100.891C871.486,-100.891 881.818,-100.891 891.738,-100.891"/>
<polygon fill="midnightblue" stroke="midnightblue" points="861.568,-97.391 851.568,-100.891 861.568,-104.391 861.568,-97.391"/>
</g>
<!-- Node266 -->
<g id="node17" class="node"><title>Node266</title>
<g id="a_node17"><a xlink:href="kmp__request_8h.html#a048753ff9d6b448e2dcd8c85db0d6873" target="_top" xlink:title="kmp_request_init">
<polygon fill="white" stroke="black" points="1047.5,-129.391 1047.5,-148.391 1138.5,-148.391 1138.5,-129.391 1047.5,-129.391"/>
<text text-anchor="middle" x="1093" y="-136.391" font-family="Helvetica,sans-Serif" font-size="10.00">kmp_request_init</text>
</a>
</g>
</g>
<!-- Node265&#45;&gt;Node266 -->
<g id="edge18" class="edge"><title>Node265&#45;&gt;Node266</title>
<path fill="none" stroke="midnightblue" d="M1007.94,-138.891C1021.07,-138.891 1034.76,-138.891 1047.18,-138.891"/>
<polygon fill="midnightblue" stroke="midnightblue" points="1007.56,-135.391 997.557,-138.891 1007.56,-142.391 1007.56,-135.391"/>
</g>
<!-- Node268 -->
<g id="node19" class="node"><title>Node268</title>
<g id="a_node19"><a xlink:href="watchdog_8h.html#ab148f2150b52df5b60e312dded3a2934" target="_top" xlink:title="start_watchdog">
<polygon fill="white" stroke="black" points="1051.5,-91.3909 1051.5,-110.391 1134.5,-110.391 1134.5,-91.3909 1051.5,-91.3909"/>
<text text-anchor="middle" x="1093" y="-98.3909" font-family="Helvetica,sans-Serif" font-size="10.00">start_watchdog</text>
</a>
</g>
</g>
<!-- Node267&#45;&gt;Node268 -->
<g id="edge20" class="edge"><title>Node267&#45;&gt;Node268</title>
<path fill="none" stroke="midnightblue" d="M1012.08,-100.891C1025.36,-100.891 1039,-100.891 1051.17,-100.891"/>
<polygon fill="midnightblue" stroke="midnightblue" points="1012.03,-97.391 1002.03,-100.891 1012.03,-104.391 1012.03,-97.391"/>
</g>
<!-- Node270 -->
<g id="node21" class="node"><title>Node270</title>
<g id="a_node21"><a xlink:href="wifi_8c.html#ae7011f25db54676b86fefe2caa450a4a" target="_top" xlink:title="wifi_scan_timer_func">
<polygon fill="white" stroke="black" points="279,-15.3909 279,-34.3909 388,-34.3909 388,-15.3909 279,-15.3909"/>
<text text-anchor="middle" x="333.5" y="-22.3909" font-family="Helvetica,sans-Serif" font-size="10.00">wifi_scan_timer_func</text>
</a>
</g>
</g>
<!-- Node269&#45;&gt;Node270 -->
<g id="edge22" class="edge"><title>Node269&#45;&gt;Node270</title>
<path fill="none" stroke="midnightblue" d="M230.311,-50.7788C251.202,-45.4865 275.347,-39.3696 294.921,-34.4109"/>
<polygon fill="midnightblue" stroke="midnightblue" points="229.186,-47.4532 220.351,-53.3019 230.905,-54.2389 229.186,-47.4532"/>
</g>
<!-- Node271 -->
<g id="node22" class="node"><title>Node271</title>
<g id="a_node22"><a xlink:href="wifi_8c.html#a0d197abbbedf42c0522e20b43884c920" target="_top" xlink:title="acl_check_packet">
<polygon fill="white" stroke="black" points="761,-15.3909 761,-34.3909 856,-34.3909 856,-15.3909 761,-15.3909"/>
<text text-anchor="middle" x="808.5" y="-22.3909" font-family="Helvetica,sans-Serif" font-size="10.00">acl_check_packet</text>
</a>
</g>
</g>
<!-- Node270&#45;&gt;Node271 -->
<g id="edge23" class="edge"><title>Node270&#45;&gt;Node271</title>
<path fill="none" stroke="midnightblue" d="M398.13,-15.5066C475.59,-5.53064 610.274,7.14927 725,-5.89088 741.356,-7.74999 759.192,-11.6191 774.082,-15.3836"/>
<polygon fill="midnightblue" stroke="midnightblue" points="397.508,-12.0581 388.049,-16.8314 398.42,-18.9985 397.508,-12.0581"/>
</g>
<!-- Node275 -->
<g id="node26" class="node"><title>Node275</title>
<g id="a_node26"><a xlink:href="wifi_8c.html#a2d61a3854e1f7d67dcbcb0c7da23c8cc" target="_top" xlink:title="wifi_start_scan">
<polygon fill="white" stroke="black" points="444.5,-53.3909 444.5,-72.3909 527.5,-72.3909 527.5,-53.3909 444.5,-53.3909"/>
<text text-anchor="middle" x="486" y="-60.3909" font-family="Helvetica,sans-Serif" font-size="10.00">wifi_start_scan</text>
</a>
</g>
</g>
<!-- Node270&#45;&gt;Node275 -->
<g id="edge27" class="edge"><title>Node270&#45;&gt;Node275</title>
<path fill="none" stroke="midnightblue" d="M398.362,-34.3347C422.734,-40.1902 448.737,-47.4213 465.824,-53.3651"/>
<polygon fill="midnightblue" stroke="midnightblue" points="398.944,-30.8763 388.409,-31.9997 397.345,-37.6912 398.944,-30.8763"/>
</g>
<!-- Node272 -->
<g id="node23" class="node"><title>Node272</title>
<g id="a_node23"><a xlink:href="wifi_8c.html#a3cea38a15b267ddabc1e6d5cf72b5ae8" target="_top" xlink:title="my_input_ap">
<polygon fill="white" stroke="black" points="911,-15.3909 911,-34.3909 983,-34.3909 983,-15.3909 911,-15.3909"/>
<text text-anchor="middle" x="947" y="-22.3909" font-family="Helvetica,sans-Serif" font-size="10.00">my_input_ap</text>
</a>
</g>
</g>
<!-- Node271&#45;&gt;Node272 -->
<g id="edge24" class="edge"><title>Node271&#45;&gt;Node272</title>
<path fill="none" stroke="midnightblue" d="M866.369,-24.8909C881.442,-24.8909 897.277,-24.8909 910.82,-24.8909"/>
<polygon fill="midnightblue" stroke="midnightblue" points="866.094,-21.391 856.094,-24.8909 866.094,-28.391 866.094,-21.391"/>
</g>
<!-- Node273 -->
<g id="node24" class="node"><title>Node273</title>
<g id="a_node24"><a xlink:href="wifi_8c.html#aa87c06c3cbab2aa762551fcec59dc8f0" target="_top" xlink:title="wifi_handle_event_cb">
<polygon fill="white" stroke="black" points="1038,-15.3909 1038,-34.3909 1148,-34.3909 1148,-15.3909 1038,-15.3909"/>
<text text-anchor="middle" x="1093" y="-22.3909" font-family="Helvetica,sans-Serif" font-size="10.00">wifi_handle_event_cb</text>
</a>
</g>
</g>
<!-- Node272&#45;&gt;Node273 -->
<g id="edge25" class="edge"><title>Node272&#45;&gt;Node273</title>
<path fill="none" stroke="midnightblue" d="M993.61,-24.8909C1007.64,-24.8909 1023.22,-24.8909 1037.77,-24.8909"/>
<polygon fill="midnightblue" stroke="midnightblue" points="993.226,-21.391 983.226,-24.8909 993.226,-28.391 993.226,-21.391"/>
</g>
<!-- Node274 -->
<g id="node25" class="node"><title>Node274</title>
<g id="a_node25"><a xlink:href="wifi_8c.html#a574e5442f0b2b8f99c8d157836ab38ba" target="_top" xlink:title="wifi_connect">
<polygon fill="white" stroke="black" points="1184,-34.3909 1184,-53.3909 1255,-53.3909 1255,-34.3909 1184,-34.3909"/>
<text text-anchor="middle" x="1219.5" y="-41.3909" font-family="Helvetica,sans-Serif" font-size="10.00">wifi_connect</text>
</a>
</g>
</g>
<!-- Node273&#45;&gt;Node274 -->
<g id="edge26" class="edge"><title>Node273&#45;&gt;Node274</title>
<path fill="none" stroke="midnightblue" d="M1158.19,-34.6869C1167.01,-36.0331 1175.78,-37.3715 1183.79,-38.5936"/>
<polygon fill="midnightblue" stroke="midnightblue" points="1158.66,-31.2181 1148.25,-33.1693 1157.6,-38.1379 1158.66,-31.2181"/>
</g>
<!-- Node275&#45;&gt;Node263 -->
<g id="edge29" class="edge"><title>Node275&#45;&gt;Node263</title>
<path fill="none" stroke="midnightblue" d="M537.543,-74.602C560.727,-79.974 587.867,-86.2624 609.788,-91.3417"/>
<polygon fill="midnightblue" stroke="midnightblue" points="538.071,-71.1318 527.539,-72.2841 536.491,-77.9512 538.071,-71.1318"/>
</g>
<!-- Node275&#45;&gt;Node269 -->
<g id="edge30" class="edge"><title>Node275&#45;&gt;Node269</title>
<path fill="none" stroke="midnightblue" d="M434.362,-62.8909C378.012,-62.8909 287.568,-62.8909 231.775,-62.8909"/>
<polygon fill="midnightblue" stroke="midnightblue" points="434.471,-66.391 444.471,-62.8909 434.471,-59.391 434.471,-66.391"/>
</g>
<!-- Node275&#45;&gt;Node270 -->
<g id="edge34" class="edge"><title>Node275&#45;&gt;Node270</title>
<path fill="none" stroke="midnightblue" d="M434.55,-56.5656C406.874,-50.3562 374.16,-41.5259 353.867,-34.4832"/>
<polygon fill="midnightblue" stroke="midnightblue" points="433.97,-60.0213 444.485,-58.7265 435.458,-53.1812 433.97,-60.0213"/>
</g>
<!-- Node275&#45;&gt;Node274 -->
<g id="edge28" class="edge"><title>Node275&#45;&gt;Node274</title>
<path fill="none" stroke="midnightblue" d="M537.826,-62.8909C601.031,-62.8909 712.23,-62.8909 807.5,-62.8909 807.5,-62.8909 807.5,-62.8909 948,-62.8909 1032.97,-62.8909 1132.6,-53.4453 1183.97,-47.8739"/>
<polygon fill="midnightblue" stroke="midnightblue" points="537.727,-59.391 527.727,-62.8909 537.727,-66.391 537.727,-59.391"/>
</g>
<!-- Node276 -->
<g id="node27" class="node"><title>Node276</title>
<g id="a_node27"><a xlink:href="wifi_8c.html#a189ec83a0503a6fc45b102014a80403b" target="_top" xlink:title="wifi_scan_timeout_timer_func">
<polygon fill="white" stroke="black" points="579,-15.3909 579,-34.3909 725,-34.3909 725,-15.3909 579,-15.3909"/>
<text text-anchor="middle" x="652" y="-22.3909" font-family="Helvetica,sans-Serif" font-size="10.00">wifi_scan_timeout_timer_func</text>
</a>
</g>
</g>
<!-- Node275&#45;&gt;Node276 -->
<g id="edge31" class="edge"><title>Node275&#45;&gt;Node276</title>
<path fill="none" stroke="midnightblue" d="M537.543,-51.1798C560.727,-45.8077 587.867,-39.5194 609.788,-34.44"/>
<polygon fill="midnightblue" stroke="midnightblue" points="536.491,-47.8306 527.539,-53.4976 538.071,-54.6499 536.491,-47.8306"/>
</g>
<!-- Node276&#45;&gt;Node270 -->
<g id="edge33" class="edge"><title>Node276&#45;&gt;Node270</title>
<path fill="none" stroke="midnightblue" d="M568.833,-24.8909C511.885,-24.8909 437.687,-24.8909 388.19,-24.8909"/>
<polygon fill="midnightblue" stroke="midnightblue" points="568.895,-28.391 578.895,-24.8909 568.895,-21.391 568.895,-28.391"/>
</g>
<!-- Node276&#45;&gt;Node271 -->
<g id="edge32" class="edge"><title>Node276&#45;&gt;Node271</title>
<path fill="none" stroke="midnightblue" d="M735.491,-24.8909C744.182,-24.8909 752.784,-24.8909 760.855,-24.8909"/>
<polygon fill="midnightblue" stroke="midnightblue" points="735.274,-21.391 725.274,-24.8909 735.274,-28.391 735.274,-21.391"/>
</g>
</g>
</svg>
