<?xml version="1.0" encoding="UTF-8" standalone="no"?>
<!DOCTYPE svg PUBLIC "-//W3C//DTD SVG 1.1//EN"
 "http://www.w3.org/Graphics/SVG/1.1/DTD/svg11.dtd">
<!-- Generated by graphviz version 2.38.0 (20140413.2041)
 -->
<!-- Title: led_blinker_timer_func Pages: 1 -->
<svg width="1373pt" height="389pt"
 viewBox="0.00 0.00 1373.00 388.98" xmlns="http://www.w3.org/2000/svg" xmlns:xlink="http://www.w3.org/1999/xlink">
<g id="graph0" class="graph" transform="scale(1 1) rotate(0) translate(4 384.982)">
<title>led_blinker_timer_func</title>
<polygon fill="white" stroke="none" points="-4,4 -4,-384.982 1369,-384.982 1369,4 -4,4"/>
<!-- Node26 -->
<g id="node1" class="node"><title>Node26</title>
<polygon fill="#bfbfbf" stroke="black" points="0,-160.5 0,-179.5 114,-179.5 114,-160.5 0,-160.5"/>
<text text-anchor="middle" x="57" y="-167.5" font-family="Helvetica,sans-Serif" font-size="10.00">led_blinker_timer_func</text>
</g>
<!-- Node27 -->
<g id="node2" class="node"><title>Node27</title>
<g id="a_node2"><a xlink:href="led_8h.html#aa00afefe8ba48ccd7df635fbc7d4c9fc" target="_top" xlink:title="led_pattern_a">
<polygon fill="white" stroke="black" points="150,-208.5 150,-227.5 225,-227.5 225,-208.5 150,-208.5"/>
<text text-anchor="middle" x="187.5" y="-215.5" font-family="Helvetica,sans-Serif" font-size="10.00">led_pattern_a</text>
</a>
</g>
</g>
<!-- Node26&#45;&gt;Node27 -->
<g id="edge1" class="edge"><title>Node26&#45;&gt;Node27</title>
<path fill="none" stroke="midnightblue" d="M93.1038,-183.113C114.523,-191.114 141.426,-201.163 160.849,-208.418"/>
<polygon fill="midnightblue" stroke="midnightblue" points="94.2876,-179.819 83.6951,-179.598 91.8381,-186.376 94.2876,-179.819"/>
</g>
<!-- Node49 -->
<g id="node24" class="node"><title>Node49</title>
<g id="a_node24"><a xlink:href="led_8h.html#a6a83b60a5039ca4c8727fc1902630210" target="_top" xlink:title="led_pattern_b">
<polygon fill="white" stroke="black" points="150,-113.5 150,-132.5 225,-132.5 225,-113.5 150,-113.5"/>
<text text-anchor="middle" x="187.5" y="-120.5" font-family="Helvetica,sans-Serif" font-size="10.00">led_pattern_b</text>
</a>
</g>
</g>
<!-- Node26&#45;&gt;Node49 -->
<g id="edge30" class="edge"><title>Node26&#45;&gt;Node49</title>
<path fill="none" stroke="midnightblue" d="M93.574,-156.989C114.638,-149.284 140.875,-139.688 160.094,-132.658"/>
<polygon fill="midnightblue" stroke="midnightblue" points="92.1931,-153.767 84.0039,-160.489 94.5977,-160.341 92.1931,-153.767"/>
</g>
<!-- Node28 -->
<g id="node3" class="node"><title>Node28</title>
<g id="a_node3"><a xlink:href="wifi_8c.html#a1ef15ecd9e69811f6db10215c7196281" target="_top" xlink:title="wifi_scan_done_cb">
<polygon fill="white" stroke="black" points="268,-306.5 268,-325.5 368,-325.5 368,-306.5 268,-306.5"/>
<text text-anchor="middle" x="318" y="-313.5" font-family="Helvetica,sans-Serif" font-size="10.00">wifi_scan_done_cb</text>
</a>
</g>
</g>
<!-- Node27&#45;&gt;Node28 -->
<g id="edge2" class="edge"><title>Node27&#45;&gt;Node28</title>
<path fill="none" stroke="midnightblue" d="M201.627,-235.695C214.965,-252.623 237.027,-277.891 261,-294 268.456,-299.01 277.223,-303.137 285.577,-306.408"/>
<polygon fill="midnightblue" stroke="midnightblue" points="204.35,-233.495 195.483,-227.696 198.799,-237.759 204.35,-233.495"/>
</g>
<!-- Node42 -->
<g id="node17" class="node"><title>Node42</title>
<g id="a_node17"><a xlink:href="ac__out_8c.html#aa4f3e08453187a0500d0e5441274c7a1" target="_top" xlink:title="ac_test_timer_func">
<polygon fill="white" stroke="black" points="268,-151.5 268,-170.5 368,-170.5 368,-151.5 268,-151.5"/>
<text text-anchor="middle" x="318" y="-158.5" font-family="Helvetica,sans-Serif" font-size="10.00">ac_test_timer_func</text>
</a>
</g>
</g>
<!-- Node27&#45;&gt;Node42 -->
<g id="edge21" class="edge"><title>Node27&#45;&gt;Node42</title>
<path fill="none" stroke="midnightblue" d="M213.697,-203.555C227.429,-196.001 244.869,-186.914 261,-180 269.021,-176.562 277.889,-173.313 286.158,-170.505"/>
<polygon fill="midnightblue" stroke="midnightblue" points="211.872,-200.566 204.844,-208.494 215.282,-206.678 211.872,-200.566"/>
</g>
<!-- Node43 -->
<g id="node18" class="node"><title>Node43</title>
<g id="a_node18"><a xlink:href="ac__out_8h.html#ad511e0e9abde1a9313a1843cef50f82a" target="_top" xlink:title="ac_test">
<polygon fill="white" stroke="black" points="441,-192.5 441,-211.5 490,-211.5 490,-192.5 441,-192.5"/>
<text text-anchor="middle" x="465.5" y="-199.5" font-family="Helvetica,sans-Serif" font-size="10.00">ac_test</text>
</a>
</g>
</g>
<!-- Node27&#45;&gt;Node43 -->
<g id="edge25" class="edge"><title>Node27&#45;&gt;Node43</title>
<path fill="none" stroke="midnightblue" d="M235.228,-220.282C273.011,-221.579 327.537,-222.209 375,-218 397.484,-216.006 422.775,-211.247 440.722,-207.435"/>
<polygon fill="midnightblue" stroke="midnightblue" points="235.159,-216.777 225.035,-219.902 234.898,-223.773 235.159,-216.777"/>
</g>
<!-- Node46 -->
<g id="node21" class="node"><title>Node46</title>
<g id="a_node21"><a xlink:href="ac__out_8h.html#aa17a09f7811a797293e31a39906ec1b0" target="_top" xlink:title="ac_motor_valve_open">
<polygon fill="white" stroke="black" points="262,-189.5 262,-208.5 374,-208.5 374,-189.5 262,-189.5"/>
<text text-anchor="middle" x="318" y="-196.5" font-family="Helvetica,sans-Serif" font-size="10.00">ac_motor_valve_open</text>
</a>
</g>
</g>
<!-- Node27&#45;&gt;Node46 -->
<g id="edge26" class="edge"><title>Node27&#45;&gt;Node46</title>
<path fill="none" stroke="midnightblue" d="M235.255,-211.087C243.932,-209.804 253.07,-208.453 261.967,-207.137"/>
<polygon fill="midnightblue" stroke="midnightblue" points="234.703,-207.63 225.323,-212.555 235.727,-214.555 234.703,-207.63"/>
</g>
<!-- Node47 -->
<g id="node22" class="node"><title>Node47</title>
<g id="a_node22"><a xlink:href="ac__out_8h.html#a3bc674b019d5e2e4d15e7abe7c69029f" target="_top" xlink:title="ac_thermo_close">
<polygon fill="white" stroke="black" points="272.5,-265.5 272.5,-284.5 363.5,-284.5 363.5,-265.5 272.5,-265.5"/>
<text text-anchor="middle" x="318" y="-272.5" font-family="Helvetica,sans-Serif" font-size="10.00">ac_thermo_close</text>
</a>
</g>
</g>
<!-- Node27&#45;&gt;Node47 -->
<g id="edge27" class="edge"><title>Node27&#45;&gt;Node47</title>
<path fill="none" stroke="midnightblue" d="M218.498,-231.835C231.529,-237.798 246.988,-244.81 261,-251 271.933,-255.83 284.125,-261.072 294.335,-265.422"/>
<polygon fill="midnightblue" stroke="midnightblue" points="219.619,-228.499 209.07,-227.51 216.7,-234.861 219.619,-228.499"/>
</g>
<!-- Node29 -->
<g id="node4" class="node"><title>Node29</title>
<g id="a_node4"><a xlink:href="wifi_8c.html#ae7011f25db54676b86fefe2caa450a4a" target="_top" xlink:title="wifi_scan_timer_func">
<polygon fill="white" stroke="black" points="411,-344.5 411,-363.5 520,-363.5 520,-344.5 411,-344.5"/>
<text text-anchor="middle" x="465.5" y="-351.5" font-family="Helvetica,sans-Serif" font-size="10.00">wifi_scan_timer_func</text>
</a>
</g>
</g>
<!-- Node28&#45;&gt;Node29 -->
<g id="edge3" class="edge"><title>Node28&#45;&gt;Node29</title>
<path fill="none" stroke="midnightblue" d="M365.653,-328.184C385.853,-333.46 409.148,-339.544 428.048,-344.48"/>
<polygon fill="midnightblue" stroke="midnightblue" points="366.276,-324.73 355.716,-325.589 364.507,-331.502 366.276,-324.73"/>
</g>
<!-- Node30 -->
<g id="node5" class="node"><title>Node30</title>
<g id="a_node5"><a xlink:href="wifi_8c.html#a0d197abbbedf42c0522e20b43884c920" target="_top" xlink:title="acl_check_packet">
<polygon fill="white" stroke="black" points="871,-344.5 871,-363.5 966,-363.5 966,-344.5 871,-344.5"/>
<text text-anchor="middle" x="918.5" y="-351.5" font-family="Helvetica,sans-Serif" font-size="10.00">acl_check_packet</text>
</a>
</g>
</g>
<!-- Node29&#45;&gt;Node30 -->
<g id="edge4" class="edge"><title>Node29&#45;&gt;Node30</title>
<path fill="none" stroke="midnightblue" d="M530.338,-364.923C538.944,-366.12 547.674,-367.195 556,-368 679.444,-379.934 711.774,-387.006 835,-373 851.356,-371.141 869.192,-367.272 884.082,-363.507"/>
<polygon fill="midnightblue" stroke="midnightblue" points="530.723,-361.442 520.323,-363.469 529.717,-368.369 530.723,-361.442"/>
</g>
<!-- Node34 -->
<g id="node9" class="node"><title>Node34</title>
<g id="a_node9"><a xlink:href="wifi_8c.html#a2d61a3854e1f7d67dcbcb0c7da23c8cc" target="_top" xlink:title="wifi_start_scan">
<polygon fill="white" stroke="black" points="563,-306.5 563,-325.5 646,-325.5 646,-306.5 563,-306.5"/>
<text text-anchor="middle" x="604.5" y="-313.5" font-family="Helvetica,sans-Serif" font-size="10.00">wifi_start_scan</text>
</a>
</g>
</g>
<!-- Node29&#45;&gt;Node34 -->
<g id="edge8" class="edge"><title>Node29&#45;&gt;Node34</title>
<path fill="none" stroke="midnightblue" d="M493.743,-340.928C513.522,-334.082 540.616,-326.33 562.936,-321.027"/>
<polygon fill="midnightblue" stroke="midnightblue" points="492.341,-337.713 484.13,-344.408 494.724,-344.295 492.341,-337.713"/>
</g>
<!-- Node31 -->
<g id="node6" class="node"><title>Node31</title>
<g id="a_node6"><a xlink:href="wifi_8c.html#a3cea38a15b267ddabc1e6d5cf72b5ae8" target="_top" xlink:title="my_input_ap">
<polygon fill="white" stroke="black" points="1021,-344.5 1021,-363.5 1093,-363.5 1093,-344.5 1021,-344.5"/>
<text text-anchor="middle" x="1057" y="-351.5" font-family="Helvetica,sans-Serif" font-size="10.00">my_input_ap</text>
</a>
</g>
</g>
<!-- Node30&#45;&gt;Node31 -->
<g id="edge5" class="edge"><title>Node30&#45;&gt;Node31</title>
<path fill="none" stroke="midnightblue" d="M976.369,-354C991.442,-354 1007.28,-354 1020.82,-354"/>
<polygon fill="midnightblue" stroke="midnightblue" points="976.094,-350.5 966.094,-354 976.094,-357.5 976.094,-350.5"/>
</g>
<!-- Node32 -->
<g id="node7" class="node"><title>Node32</title>
<g id="a_node7"><a xlink:href="wifi_8c.html#aa87c06c3cbab2aa762551fcec59dc8f0" target="_top" xlink:title="wifi_handle_event_cb">
<polygon fill="white" stroke="black" points="1148,-344.5 1148,-363.5 1258,-363.5 1258,-344.5 1148,-344.5"/>
<text text-anchor="middle" x="1203" y="-351.5" font-family="Helvetica,sans-Serif" font-size="10.00">wifi_handle_event_cb</text>
</a>
</g>
</g>
<!-- Node31&#45;&gt;Node32 -->
<g id="edge6" class="edge"><title>Node31&#45;&gt;Node32</title>
<path fill="none" stroke="midnightblue" d="M1103.61,-354C1117.64,-354 1133.22,-354 1147.77,-354"/>
<polygon fill="midnightblue" stroke="midnightblue" points="1103.23,-350.5 1093.23,-354 1103.23,-357.5 1103.23,-350.5"/>
</g>
<!-- Node33 -->
<g id="node8" class="node"><title>Node33</title>
<g id="a_node8"><a xlink:href="wifi_8c.html#a574e5442f0b2b8f99c8d157836ab38ba" target="_top" xlink:title="wifi_connect">
<polygon fill="white" stroke="black" points="1294,-325.5 1294,-344.5 1365,-344.5 1365,-325.5 1294,-325.5"/>
<text text-anchor="middle" x="1329.5" y="-332.5" font-family="Helvetica,sans-Serif" font-size="10.00">wifi_connect</text>
</a>
</g>
</g>
<!-- Node32&#45;&gt;Node33 -->
<g id="edge7" class="edge"><title>Node32&#45;&gt;Node33</title>
<path fill="none" stroke="midnightblue" d="M1268.19,-344.204C1277.01,-342.858 1285.78,-341.519 1293.79,-340.297"/>
<polygon fill="midnightblue" stroke="midnightblue" points="1267.6,-340.753 1258.25,-345.722 1268.66,-347.673 1267.6,-340.753"/>
</g>
<!-- Node34&#45;&gt;Node28 -->
<g id="edge16" class="edge"><title>Node34&#45;&gt;Node28</title>
<path fill="none" stroke="midnightblue" d="M552.657,-316C500.473,-316 419.819,-316 368.231,-316"/>
<polygon fill="midnightblue" stroke="midnightblue" points="552.697,-319.5 562.697,-316 552.697,-312.5 552.697,-319.5"/>
</g>
<!-- Node34&#45;&gt;Node29 -->
<g id="edge20" class="edge"><title>Node34&#45;&gt;Node29</title>
<path fill="none" stroke="midnightblue" d="M576.258,-329.072C560.245,-334.614 539.439,-340.75 520.253,-345.699"/>
<polygon fill="midnightblue" stroke="midnightblue" points="577.813,-332.231 586.023,-325.534 575.429,-325.65 577.813,-332.231"/>
</g>
<!-- Node34&#45;&gt;Node33 -->
<g id="edge9" class="edge"><title>Node34&#45;&gt;Node33</title>
<path fill="none" stroke="midnightblue" d="M656.644,-316C718.446,-316 825.588,-316 917.5,-316 917.5,-316 917.5,-316 1058,-316 1142.97,-316 1242.6,-325.446 1293.97,-331.017"/>
<polygon fill="midnightblue" stroke="midnightblue" points="656.385,-312.5 646.385,-316 656.385,-319.5 656.385,-312.5"/>
</g>
<!-- Node35 -->
<g id="node10" class="node"><title>Node35</title>
<g id="a_node10"><a xlink:href="watchdog_8c.html#a47b6861ffbed37fef88aa644f10ba917" target="_top" xlink:title="wifi_reconnect_timer_func">
<polygon fill="white" stroke="black" points="696.5,-249.5 696.5,-268.5 827.5,-268.5 827.5,-249.5 696.5,-249.5"/>
<text text-anchor="middle" x="762" y="-256.5" font-family="Helvetica,sans-Serif" font-size="10.00">wifi_reconnect_timer_func</text>
</a>
</g>
</g>
<!-- Node34&#45;&gt;Node35 -->
<g id="edge10" class="edge"><title>Node34&#45;&gt;Node35</title>
<path fill="none" stroke="midnightblue" d="M641.144,-302.935C669.726,-292.457 709.181,-277.995 734.888,-268.572"/>
<polygon fill="midnightblue" stroke="midnightblue" points="639.712,-299.732 631.527,-306.459 642.121,-306.304 639.712,-299.732"/>
</g>
<!-- Node41 -->
<g id="node16" class="node"><title>Node41</title>
<g id="a_node16"><a xlink:href="wifi_8c.html#a189ec83a0503a6fc45b102014a80403b" target="_top" xlink:title="wifi_scan_timeout_timer_func">
<polygon fill="white" stroke="black" points="689,-344.5 689,-363.5 835,-363.5 835,-344.5 689,-344.5"/>
<text text-anchor="middle" x="762" y="-351.5" font-family="Helvetica,sans-Serif" font-size="10.00">wifi_scan_timeout_timer_func</text>
</a>
</g>
</g>
<!-- Node34&#45;&gt;Node41 -->
<g id="edge17" class="edge"><title>Node34&#45;&gt;Node41</title>
<path fill="none" stroke="midnightblue" d="M654.474,-327.968C676.265,-333.293 701.567,-339.476 722.043,-344.48"/>
<polygon fill="midnightblue" stroke="midnightblue" points="655.284,-324.563 644.739,-325.589 653.622,-331.363 655.284,-324.563"/>
</g>
<!-- Node36 -->
<g id="node11" class="node"><title>Node36</title>
<g id="a_node11"><a xlink:href="watchdog_8h.html#a98ac743883b75c5bf36e0d6b0fe982fa" target="_top" xlink:title="force_reset_wifi">
<polygon fill="white" stroke="black" points="875.5,-115.5 875.5,-134.5 961.5,-134.5 961.5,-115.5 875.5,-115.5"/>
<text text-anchor="middle" x="918.5" y="-122.5" font-family="Helvetica,sans-Serif" font-size="10.00">force_reset_wifi</text>
</a>
</g>
</g>
<!-- Node35&#45;&gt;Node36 -->
<g id="edge11" class="edge"><title>Node35&#45;&gt;Node36</title>
<path fill="none" stroke="midnightblue" d="M795.465,-245.096C808.434,-238.742 823.085,-230.503 835,-221 868.158,-194.554 898.211,-153.42 910.994,-134.776"/>
<polygon fill="midnightblue" stroke="midnightblue" points="793.933,-241.949 786.382,-249.381 796.92,-248.28 793.933,-241.949"/>
</g>
<!-- Node37 -->
<g id="node12" class="node"><title>Node37</title>
<g id="a_node12"><a xlink:href="kmp__request_8c.html#a3f6b790a06b933b78f40ade5e9a16131" target="_top" xlink:title="kmp_received_task">
<polygon fill="white" stroke="black" points="1006.5,-144.5 1006.5,-163.5 1107.5,-163.5 1107.5,-144.5 1006.5,-144.5"/>
<text text-anchor="middle" x="1057" y="-151.5" font-family="Helvetica,sans-Serif" font-size="10.00">kmp_received_task</text>
</a>
</g>
</g>
<!-- Node36&#45;&gt;Node37 -->
<g id="edge12" class="edge"><title>Node36&#45;&gt;Node37</title>
<path fill="none" stroke="midnightblue" d="M971.734,-136.097C984.674,-138.847 998.429,-141.769 1010.99,-144.438"/>
<polygon fill="midnightblue" stroke="midnightblue" points="972.077,-132.592 961.568,-133.938 970.623,-139.439 972.077,-132.592"/>
</g>
<!-- Node39 -->
<g id="node14" class="node"><title>Node39</title>
<g id="a_node14"><a xlink:href="watchdog_8c.html#aeb03c505b5b589ae4d89b2ae11dd1711" target="_top" xlink:title="watchdog_timer_func">
<polygon fill="white" stroke="black" points="1002,-106.5 1002,-125.5 1112,-125.5 1112,-106.5 1002,-106.5"/>
<text text-anchor="middle" x="1057" y="-113.5" font-family="Helvetica,sans-Serif" font-size="10.00">watchdog_timer_func</text>
</a>
</g>
</g>
<!-- Node36&#45;&gt;Node39 -->
<g id="edge14" class="edge"><title>Node36&#45;&gt;Node39</title>
<path fill="none" stroke="midnightblue" d="M971.63,-121.563C981.486,-120.913 991.818,-120.232 1001.74,-119.578"/>
<polygon fill="midnightblue" stroke="midnightblue" points="971.316,-118.076 961.568,-122.226 971.777,-125.061 971.316,-118.076"/>
</g>
<!-- Node38 -->
<g id="node13" class="node"><title>Node38</title>
<g id="a_node13"><a xlink:href="kmp__request_8h.html#a048753ff9d6b448e2dcd8c85db0d6873" target="_top" xlink:title="kmp_request_init">
<polygon fill="white" stroke="black" points="1157.5,-144.5 1157.5,-163.5 1248.5,-163.5 1248.5,-144.5 1157.5,-144.5"/>
<text text-anchor="middle" x="1203" y="-151.5" font-family="Helvetica,sans-Serif" font-size="10.00">kmp_request_init</text>
</a>
</g>
</g>
<!-- Node37&#45;&gt;Node38 -->
<g id="edge13" class="edge"><title>Node37&#45;&gt;Node38</title>
<path fill="none" stroke="midnightblue" d="M1117.94,-154C1131.07,-154 1144.76,-154 1157.18,-154"/>
<polygon fill="midnightblue" stroke="midnightblue" points="1117.56,-150.5 1107.56,-154 1117.56,-157.5 1117.56,-150.5"/>
</g>
<!-- Node40 -->
<g id="node15" class="node"><title>Node40</title>
<g id="a_node15"><a xlink:href="watchdog_8h.html#ab148f2150b52df5b60e312dded3a2934" target="_top" xlink:title="start_watchdog">
<polygon fill="white" stroke="black" points="1161.5,-106.5 1161.5,-125.5 1244.5,-125.5 1244.5,-106.5 1161.5,-106.5"/>
<text text-anchor="middle" x="1203" y="-113.5" font-family="Helvetica,sans-Serif" font-size="10.00">start_watchdog</text>
</a>
</g>
</g>
<!-- Node39&#45;&gt;Node40 -->
<g id="edge15" class="edge"><title>Node39&#45;&gt;Node40</title>
<path fill="none" stroke="midnightblue" d="M1122.08,-116C1135.36,-116 1149,-116 1161.17,-116"/>
<polygon fill="midnightblue" stroke="midnightblue" points="1122.03,-112.5 1112.03,-116 1122.03,-119.5 1122.03,-112.5"/>
</g>
<!-- Node41&#45;&gt;Node29 -->
<g id="edge19" class="edge"><title>Node41&#45;&gt;Node29</title>
<path fill="none" stroke="midnightblue" d="M678.561,-354C627.883,-354 564.409,-354 520.173,-354"/>
<polygon fill="midnightblue" stroke="midnightblue" points="678.843,-357.5 688.843,-354 678.843,-350.5 678.843,-357.5"/>
</g>
<!-- Node41&#45;&gt;Node30 -->
<g id="edge18" class="edge"><title>Node41&#45;&gt;Node30</title>
<path fill="none" stroke="midnightblue" d="M845.491,-354C854.182,-354 862.784,-354 870.855,-354"/>
<polygon fill="midnightblue" stroke="midnightblue" points="845.274,-350.5 835.274,-354 845.274,-357.5 845.274,-350.5"/>
</g>
<!-- Node42&#45;&gt;Node43 -->
<g id="edge22" class="edge"><title>Node42&#45;&gt;Node43</title>
<path fill="none" stroke="midnightblue" d="M362.632,-173.295C388.321,-180.534 419.812,-189.408 440.921,-195.356"/>
<polygon fill="midnightblue" stroke="midnightblue" points="363.321,-169.853 352.746,-170.509 361.422,-176.59 363.321,-169.853"/>
</g>
<!-- Node44 -->
<g id="node19" class="node"><title>Node44</title>
<g id="a_node19"><a xlink:href="cron_8c.html#a2782af03df9b913cfa565a0770e1afe1" target="_top" xlink:title="minute_timer_func">
<polygon fill="white" stroke="black" points="556,-192.5 556,-211.5 653,-211.5 653,-192.5 556,-192.5"/>
<text text-anchor="middle" x="604.5" y="-199.5" font-family="Helvetica,sans-Serif" font-size="10.00">minute_timer_func</text>
</a>
</g>
</g>
<!-- Node43&#45;&gt;Node44 -->
<g id="edge23" class="edge"><title>Node43&#45;&gt;Node44</title>
<path fill="none" stroke="midnightblue" d="M500.444,-202C517.17,-202 537.621,-202 555.881,-202"/>
<polygon fill="midnightblue" stroke="midnightblue" points="500.051,-198.5 490.051,-202 500.051,-205.5 500.051,-198.5"/>
</g>
<!-- Node45 -->
<g id="node20" class="node"><title>Node45</title>
<g id="a_node20"><a xlink:href="cron_8h.html#ae130c5973bad35b56776750c7a34db12" target="_top" xlink:title="cron_init">
<polygon fill="white" stroke="black" points="735.5,-192.5 735.5,-211.5 788.5,-211.5 788.5,-192.5 735.5,-192.5"/>
<text text-anchor="middle" x="762" y="-199.5" font-family="Helvetica,sans-Serif" font-size="10.00">cron_init</text>
</a>
</g>
</g>
<!-- Node44&#45;&gt;Node45 -->
<g id="edge24" class="edge"><title>Node44&#45;&gt;Node45</title>
<path fill="none" stroke="midnightblue" d="M663.091,-202C687.984,-202 715.838,-202 735.453,-202"/>
<polygon fill="midnightblue" stroke="midnightblue" points="663,-198.5 653,-202 663,-205.5 663,-198.5"/>
</g>
<!-- Node47&#45;&gt;Node44 -->
<g id="edge28" class="edge"><title>Node47&#45;&gt;Node44</title>
<path fill="none" stroke="midnightblue" d="M365.889,-262.969C422.015,-248.567 514.857,-224.745 566.297,-211.546"/>
<polygon fill="midnightblue" stroke="midnightblue" points="365.01,-259.581 356.193,-265.457 366.75,-266.361 365.01,-259.581"/>
</g>
<!-- Node48 -->
<g id="node23" class="node"><title>Node48</title>
<g id="a_node23"><a xlink:href="mqtt__rpc_8h.html#a05494e7f22df36d57595a00a9386c871" target="_top" xlink:title="mqtt_rpc_close">
<polygon fill="white" stroke="black" points="424,-268.5 424,-287.5 507,-287.5 507,-268.5 424,-268.5"/>
<text text-anchor="middle" x="465.5" y="-275.5" font-family="Helvetica,sans-Serif" font-size="10.00">mqtt_rpc_close</text>
</a>
</g>
</g>
<!-- Node47&#45;&gt;Node48 -->
<g id="edge29" class="edge"><title>Node47&#45;&gt;Node48</title>
<path fill="none" stroke="midnightblue" d="M373.892,-276.132C390.355,-276.471 408.119,-276.838 423.519,-277.155"/>
<polygon fill="midnightblue" stroke="midnightblue" points="373.912,-272.632 363.842,-275.925 373.768,-279.63 373.912,-272.632"/>
</g>
<!-- Node49&#45;&gt;Node36 -->
<g id="edge38" class="edge"><title>Node49&#45;&gt;Node36</title>
<path fill="none" stroke="midnightblue" d="M205.886,-106.424C219.848,-93.8658 240.451,-76.9592 261,-66 344.897,-21.2562 369.418,-0 464.5,-0 464.5,-0 464.5,-0 605.5,-0 729.498,-0 862.617,-86.1287 904.277,-115.399"/>
<polygon fill="midnightblue" stroke="midnightblue" points="203.471,-103.89 198.484,-113.237 208.212,-109.04 203.471,-103.89"/>
</g>
<!-- Node49&#45;&gt;Node42 -->
<g id="edge31" class="edge"><title>Node49&#45;&gt;Node42</title>
<path fill="none" stroke="midnightblue" d="M230.889,-135.535C248.37,-140.705 268.302,-146.599 284.584,-151.414"/>
<polygon fill="midnightblue" stroke="midnightblue" points="231.508,-132.069 220.926,-132.589 229.523,-138.781 231.508,-132.069"/>
</g>
<!-- Node50 -->
<g id="node25" class="node"><title>Node50</title>
<g id="a_node25"><a xlink:href="ac__out_8h.html#a483eac71fafd6926d6e16c08b87530ef" target="_top" xlink:title="ac_motor_valve_close">
<polygon fill="white" stroke="black" points="261,-113.5 261,-132.5 375,-132.5 375,-113.5 261,-113.5"/>
<text text-anchor="middle" x="318" y="-120.5" font-family="Helvetica,sans-Serif" font-size="10.00">ac_motor_valve_close</text>
</a>
</g>
</g>
<!-- Node49&#45;&gt;Node50 -->
<g id="edge32" class="edge"><title>Node49&#45;&gt;Node50</title>
<path fill="none" stroke="midnightblue" d="M235.402,-123C243.565,-123 252.131,-123 260.518,-123"/>
<polygon fill="midnightblue" stroke="midnightblue" points="235.323,-119.5 225.323,-123 235.323,-126.5 235.323,-119.5"/>
</g>
<!-- Node51 -->
<g id="node26" class="node"><title>Node51</title>
<g id="a_node26"><a xlink:href="ac__out_8h.html#a1573f96ac038a6a1b29a6f21403a2341" target="_top" xlink:title="ac_thermo_open">
<polygon fill="white" stroke="black" points="273.5,-75.5 273.5,-94.5 362.5,-94.5 362.5,-75.5 273.5,-75.5"/>
<text text-anchor="middle" x="318" y="-82.5" font-family="Helvetica,sans-Serif" font-size="10.00">ac_thermo_open</text>
</a>
</g>
</g>
<!-- Node49&#45;&gt;Node51 -->
<g id="edge33" class="edge"><title>Node49&#45;&gt;Node51</title>
<path fill="none" stroke="midnightblue" d="M230.889,-110.465C248.37,-105.295 268.302,-99.4009 284.584,-94.5859"/>
<polygon fill="midnightblue" stroke="midnightblue" points="229.523,-107.219 220.926,-113.411 231.508,-113.931 229.523,-107.219"/>
</g>
<!-- Node51&#45;&gt;Node44 -->
<g id="edge34" class="edge"><title>Node51&#45;&gt;Node44</title>
<path fill="none" stroke="midnightblue" d="M365.594,-98.6342C368.877,-100.247 372.05,-102.031 375,-104 395.168,-117.465 390.572,-131.933 411,-145 435.957,-160.964 512.657,-180.862 561.373,-192.429"/>
<polygon fill="midnightblue" stroke="midnightblue" points="366.712,-95.3044 356.146,-94.5315 363.924,-101.725 366.712,-95.3044"/>
</g>
<!-- Node52 -->
<g id="node27" class="node"><title>Node52</title>
<g id="a_node27"><a xlink:href="mqtt__rpc_8h.html#ad2e0752f6412fe150ba20d806fe90e15" target="_top" xlink:title="mqtt_rpc_open">
<polygon fill="white" stroke="black" points="425,-28.5 425,-47.5 506,-47.5 506,-28.5 425,-28.5"/>
<text text-anchor="middle" x="465.5" y="-35.5" font-family="Helvetica,sans-Serif" font-size="10.00">mqtt_rpc_open</text>
</a>
</g>
</g>
<!-- Node51&#45;&gt;Node52 -->
<g id="edge35" class="edge"><title>Node51&#45;&gt;Node52</title>
<path fill="none" stroke="midnightblue" d="M358.024,-72.3943C382.171,-64.5942 412.685,-54.7376 434.85,-47.5776"/>
<polygon fill="midnightblue" stroke="midnightblue" points="356.884,-69.0844 348.444,-75.4888 359.036,-75.7455 356.884,-69.0844"/>
</g>
<!-- Node53 -->
<g id="node28" class="node"><title>Node53</title>
<g id="a_node28"><a xlink:href="mqtt__rpc_8h.html#a44921185fc90cf7507f2eaf4fa48861a" target="_top" xlink:title="mqtt_rpc_open_until">
<polygon fill="white" stroke="black" points="413.5,-116.5 413.5,-135.5 517.5,-135.5 517.5,-116.5 413.5,-116.5"/>
<text text-anchor="middle" x="465.5" y="-123.5" font-family="Helvetica,sans-Serif" font-size="10.00">mqtt_rpc_open_until</text>
</a>
</g>
</g>
<!-- Node51&#45;&gt;Node53 -->
<g id="edge36" class="edge"><title>Node51&#45;&gt;Node53</title>
<path fill="none" stroke="midnightblue" d="M362.448,-97.2431C384.289,-103.398 410.361,-110.744 430.685,-116.471"/>
<polygon fill="midnightblue" stroke="midnightblue" points="363.321,-93.8528 352.746,-94.5093 361.422,-100.59 363.321,-93.8528"/>
</g>
<!-- Node54 -->
<g id="node29" class="node"><title>Node54</title>
<g id="a_node29"><a xlink:href="mqtt__rpc_8h.html#a37edc063b829348999e78221ed0f247e" target="_top" xlink:title="mqtt_rpc_open_until\l_delta">
<polygon fill="white" stroke="black" points="413.5,-67 413.5,-97 517.5,-97 517.5,-67 413.5,-67"/>
<text text-anchor="start" x="421.5" y="-85" font-family="Helvetica,sans-Serif" font-size="10.00">mqtt_rpc_open_until</text>
<text text-anchor="middle" x="465.5" y="-74" font-family="Helvetica,sans-Serif" font-size="10.00">_delta</text>
</a>
</g>
</g>
<!-- Node51&#45;&gt;Node54 -->
<g id="edge37" class="edge"><title>Node51&#45;&gt;Node54</title>
<path fill="none" stroke="midnightblue" d="M373.035,-83.8859C386.261,-83.6132 400.372,-83.3222 413.453,-83.0525"/>
<polygon fill="midnightblue" stroke="midnightblue" points="372.58,-80.3944 362.655,-84.0999 372.725,-87.3929 372.58,-80.3944"/>
</g>
</g>
</svg>
