<?xml version="1.0" encoding="UTF-8" standalone="no"?>
<!DOCTYPE svg PUBLIC "-//W3C//DTD SVG 1.1//EN"
 "http://www.w3.org/Graphics/SVG/1.1/DTD/svg11.dtd">
<!-- Generated by graphviz version 2.38.0 (20140413.2041)
 -->
<!-- Title: led_destroy Pages: 1 -->
<svg width="445pt" height="66pt"
 viewBox="0.00 0.00 445.00 66.00" xmlns="http://www.w3.org/2000/svg" xmlns:xlink="http://www.w3.org/1999/xlink">
<g id="graph0" class="graph" transform="scale(1 1) rotate(0) translate(4 62)">
<title>led_destroy</title>
<polygon fill="white" stroke="none" points="-4,4 -4,-62 441,-62 441,4 -4,4"/>
<!-- Node59 -->
<g id="node1" class="node"><title>Node59</title>
<polygon fill="#bfbfbf" stroke="black" points="0,-19.5 0,-38.5 67,-38.5 67,-19.5 0,-19.5"/>
<text text-anchor="middle" x="33.5" y="-26.5" font-family="Helvetica,sans-Serif" font-size="10.00">led_destroy</text>
</g>
<!-- Node60 -->
<g id="node2" class="node"><title>Node60</title>
<g id="a_node2"><a xlink:href="utils_8h.html#abc584694613811efea7c661c9dcefe17" target="_top" xlink:title="system_restart_defered">
<polygon fill="white" stroke="black" points="103,-19.5 103,-38.5 222,-38.5 222,-19.5 103,-19.5"/>
<text text-anchor="middle" x="162.5" y="-26.5" font-family="Helvetica,sans-Serif" font-size="10.00">system_restart_defered</text>
</a>
</g>
</g>
<!-- Node59&#45;&gt;Node60 -->
<g id="edge1" class="edge"><title>Node59&#45;&gt;Node60</title>
<path fill="none" stroke="midnightblue" d="M77.2659,-29C85.4646,-29 94.1814,-29 102.781,-29"/>
<polygon fill="midnightblue" stroke="midnightblue" points="77.2057,-25.5001 67.2057,-29 77.2056,-32.5001 77.2057,-25.5001"/>
</g>
<!-- Node61 -->
<g id="node3" class="node"><title>Node61</title>
<g id="a_node3"><a xlink:href="cgiwifi_8c.html#a9d53126c0a5bdeb1318f081f1cca3a84" target="_top" xlink:title="resetTimerCb">
<polygon fill="white" stroke="black" points="264,-38.5 264,-57.5 340,-57.5 340,-38.5 264,-38.5"/>
<text text-anchor="middle" x="302" y="-45.5" font-family="Helvetica,sans-Serif" font-size="10.00">resetTimerCb</text>
</a>
</g>
</g>
<!-- Node60&#45;&gt;Node61 -->
<g id="edge2" class="edge"><title>Node60&#45;&gt;Node61</title>
<path fill="none" stroke="midnightblue" d="M232.232,-38.4975C243.178,-40.01 254.124,-41.5226 263.962,-42.882"/>
<polygon fill="midnightblue" stroke="midnightblue" points="232.596,-35.0147 222.211,-37.1128 231.638,-41.9488 232.596,-35.0147"/>
</g>
<!-- Node63 -->
<g id="node5" class="node"><title>Node63</title>
<g id="a_node5"><a xlink:href="mqtt__rpc_8h.html#ae3c71a438ecea4bb271bd1586af59452" target="_top" xlink:title="mqtt_rpc_restart">
<polygon fill="white" stroke="black" points="258,-0.5 258,-19.5 346,-19.5 346,-0.5 258,-0.5"/>
<text text-anchor="middle" x="302" y="-7.5" font-family="Helvetica,sans-Serif" font-size="10.00">mqtt_rpc_restart</text>
</a>
</g>
</g>
<!-- Node60&#45;&gt;Node63 -->
<g id="edge4" class="edge"><title>Node60&#45;&gt;Node63</title>
<path fill="none" stroke="midnightblue" d="M232.377,-19.4825C241.064,-18.2821 249.748,-17.0821 257.874,-15.9592"/>
<polygon fill="midnightblue" stroke="midnightblue" points="231.638,-16.0512 222.211,-20.8872 232.596,-22.9853 231.638,-16.0512"/>
</g>
<!-- Node62 -->
<g id="node4" class="node"><title>Node62</title>
<g id="a_node4"><a xlink:href="cgiwifi_8h.html#a7c655a56f56ecebad923c5c4daeb7f1a" target="_top" xlink:title="cgiSetup">
<polygon fill="white" stroke="black" points="382,-38.5 382,-57.5 437,-57.5 437,-38.5 382,-38.5"/>
<text text-anchor="middle" x="409.5" y="-45.5" font-family="Helvetica,sans-Serif" font-size="10.00">cgiSetup</text>
</a>
</g>
</g>
<!-- Node61&#45;&gt;Node62 -->
<g id="edge3" class="edge"><title>Node61&#45;&gt;Node62</title>
<path fill="none" stroke="midnightblue" d="M350.408,-48C361.219,-48 372.333,-48 381.908,-48"/>
<polygon fill="midnightblue" stroke="midnightblue" points="350.195,-44.5001 340.195,-48 350.195,-51.5001 350.195,-44.5001"/>
</g>
</g>
</svg>
