<?xml version="1.0" encoding="UTF-8" standalone="no"?>
<!DOCTYPE svg PUBLIC "-//W3C//DTD SVG 1.1//EN"
 "http://www.w3.org/Graphics/SVG/1.1/DTD/svg11.dtd">
<!-- Generated by graphviz version 2.38.0 (20140413.2041)
 -->
<!-- Title: heatshrink_decoder_poll Pages: 1 -->
<svg width="619pt" height="1261pt"
 viewBox="0.00 0.00 619.00 1260.50" xmlns="http://www.w3.org/2000/svg" xmlns:xlink="http://www.w3.org/1999/xlink">
<g id="graph0" class="graph" transform="scale(1 1) rotate(0) translate(4 1256.5)">
<title>heatshrink_decoder_poll</title>
<polygon fill="white" stroke="none" points="-4,4 -4,-1256.5 615,-1256.5 615,4 -4,4"/>
<!-- Node145 -->
<g id="node1" class="node"><title>Node145</title>
<polygon fill="#bfbfbf" stroke="black" points="0,-503.5 0,-522.5 122,-522.5 122,-503.5 0,-503.5"/>
<text text-anchor="middle" x="61" y="-510.5" font-family="Helvetica,sans-Serif" font-size="10.00">heatshrink_decoder_poll</text>
</g>
<!-- Node146 -->
<g id="node2" class="node"><title>Node146</title>
<g id="a_node2"><a xlink:href="test__heatshrink__dynamic_8c.html#ab9096be17a9dc8f301673949558e5bd6" target="_top" xlink:title="compress_and_expand\l_and_check">
<polygon fill="white" stroke="black" points="177.5,-1030 177.5,-1060 294.5,-1060 294.5,-1030 177.5,-1030"/>
<text text-anchor="start" x="185.5" y="-1048" font-family="Helvetica,sans-Serif" font-size="10.00">compress_and_expand</text>
<text text-anchor="middle" x="236" y="-1037" font-family="Helvetica,sans-Serif" font-size="10.00">_and_check</text>
</a>
</g>
</g>
<!-- Node145&#45;&gt;Node146 -->
<g id="edge1" class="edge"><title>Node145&#45;&gt;Node146</title>
<path fill="none" stroke="midnightblue" d="M65.0863,-532.459C74.5807,-590.02 105.905,-763.938 158,-900 177.058,-949.777 209.36,-1004.2 225.388,-1029.93"/>
<polygon fill="midnightblue" stroke="midnightblue" points="68.5341,-531.855 63.4788,-522.544 61.6244,-532.975 68.5341,-531.855"/>
</g>
<!-- Node155 -->
<g id="node11" class="node"><title>Node155</title>
<g id="a_node11"><a xlink:href="test__heatshrink__dynamic_8c.html#acd64db79d79999a7c5436d35b74a7f40" target="_top" xlink:title="data_with_simple_repetition\l_should_match_with_absurdly\l_tiny_buffers">
<polygon fill="white" stroke="black" points="365,-865.5 365,-906.5 513,-906.5 513,-865.5 365,-865.5"/>
<text text-anchor="start" x="373" y="-894.5" font-family="Helvetica,sans-Serif" font-size="10.00">data_with_simple_repetition</text>
<text text-anchor="start" x="373" y="-883.5" font-family="Helvetica,sans-Serif" font-size="10.00">_should_match_with_absurdly</text>
<text text-anchor="middle" x="439" y="-872.5" font-family="Helvetica,sans-Serif" font-size="10.00">_tiny_buffers</text>
</a>
</g>
</g>
<!-- Node145&#45;&gt;Node155 -->
<g id="edge16" class="edge"><title>Node145&#45;&gt;Node155</title>
<path fill="none" stroke="midnightblue" d="M64.5209,-532.529C73.5381,-599.146 106.425,-815.723 158,-859 214.771,-906.637 302.624,-907.285 364.761,-899.914"/>
<polygon fill="midnightblue" stroke="midnightblue" points="67.9801,-531.989 63.1966,-522.535 61.0407,-532.908 67.9801,-531.989"/>
</g>
<!-- Node156 -->
<g id="node12" class="node"><title>Node156</title>
<g id="a_node12"><a xlink:href="test__heatshrink__dynamic_8c.html#a9a102029b8375d4050406a2814f390ac" target="_top" xlink:title="data_without_duplication\l_should_match_with_absurdly\l_tiny_buffers">
<polygon fill="white" stroke="black" points="365,-805.5 365,-846.5 513,-846.5 513,-805.5 365,-805.5"/>
<text text-anchor="start" x="373" y="-834.5" font-family="Helvetica,sans-Serif" font-size="10.00">data_without_duplication</text>
<text text-anchor="start" x="373" y="-823.5" font-family="Helvetica,sans-Serif" font-size="10.00">_should_match_with_absurdly</text>
<text text-anchor="middle" x="439" y="-812.5" font-family="Helvetica,sans-Serif" font-size="10.00">_tiny_buffers</text>
</a>
</g>
</g>
<!-- Node145&#45;&gt;Node156 -->
<g id="edge18" class="edge"><title>Node145&#45;&gt;Node156</title>
<path fill="none" stroke="midnightblue" d="M64.9048,-532.649C74.6992,-595.932 108.682,-792.439 158,-829 220.387,-875.25 313.946,-862.609 375.478,-846.567"/>
<polygon fill="midnightblue" stroke="midnightblue" points="68.3641,-532.117 63.4041,-522.755 61.4433,-533.166 68.3641,-532.117"/>
</g>
<!-- Node157 -->
<g id="node13" class="node"><title>Node157</title>
<g id="a_node13"><a xlink:href="test__heatshrink__dynamic_8c.html#a1f5bd6590b5a6d8ae285c99739e59839" target="_top" xlink:title="decoder_finish_should\l_note_when_done">
<polygon fill="white" stroke="black" points="179.5,-789 179.5,-819 292.5,-819 292.5,-789 179.5,-789"/>
<text text-anchor="start" x="187.5" y="-807" font-family="Helvetica,sans-Serif" font-size="10.00">decoder_finish_should</text>
<text text-anchor="middle" x="236" y="-796" font-family="Helvetica,sans-Serif" font-size="10.00">_note_when_done</text>
</a>
</g>
</g>
<!-- Node145&#45;&gt;Node157 -->
<g id="edge20" class="edge"><title>Node145&#45;&gt;Node157</title>
<path fill="none" stroke="midnightblue" d="M63.2828,-532.872C67.5347,-582.044 85.3839,-710.442 158,-780 164.067,-785.812 171.52,-790.217 179.376,-793.557"/>
<polygon fill="midnightblue" stroke="midnightblue" points="66.7531,-532.349 62.5012,-522.645 59.7735,-532.882 66.7531,-532.349"/>
</g>
<!-- Node159 -->
<g id="node15" class="node"><title>Node159</title>
<g id="a_node15"><a xlink:href="test__heatshrink__dynamic_8c.html#afb5cdb53efe5dca1a7a785f344a03655" target="_top" xlink:title="decoder_poll_should\l_expand_short_literal">
<polygon fill="white" stroke="black" points="181.5,-740 181.5,-770 290.5,-770 290.5,-740 181.5,-740"/>
<text text-anchor="start" x="189.5" y="-758" font-family="Helvetica,sans-Serif" font-size="10.00">decoder_poll_should</text>
<text text-anchor="middle" x="236" y="-747" font-family="Helvetica,sans-Serif" font-size="10.00">_expand_short_literal</text>
</a>
</g>
</g>
<!-- Node145&#45;&gt;Node159 -->
<g id="edge22" class="edge"><title>Node145&#45;&gt;Node159</title>
<path fill="none" stroke="midnightblue" d="M65.1913,-532.774C73.063,-575.145 97.3562,-675.278 158,-730 164.678,-736.026 172.83,-740.602 181.301,-744.075"/>
<polygon fill="midnightblue" stroke="midnightblue" points="68.6302,-532.12 63.4602,-522.872 61.7348,-533.325 68.6302,-532.12"/>
</g>
<!-- Node160 -->
<g id="node16" class="node"><title>Node160</title>
<g id="a_node16"><a xlink:href="test__heatshrink__dynamic_8c.html#a5f3328adb18355964bab2a3f026f4707" target="_top" xlink:title="decoder_poll_should\l_expand_short_literal\l_and_backref">
<polygon fill="white" stroke="black" points="181.5,-679.5 181.5,-720.5 290.5,-720.5 290.5,-679.5 181.5,-679.5"/>
<text text-anchor="start" x="189.5" y="-708.5" font-family="Helvetica,sans-Serif" font-size="10.00">decoder_poll_should</text>
<text text-anchor="start" x="189.5" y="-697.5" font-family="Helvetica,sans-Serif" font-size="10.00">_expand_short_literal</text>
<text text-anchor="middle" x="236" y="-686.5" font-family="Helvetica,sans-Serif" font-size="10.00">_and_backref</text>
</a>
</g>
</g>
<!-- Node145&#45;&gt;Node160 -->
<g id="edge24" class="edge"><title>Node145&#45;&gt;Node160</title>
<path fill="none" stroke="midnightblue" d="M69.0177,-532.307C81.8276,-565.013 111.991,-631.502 158,-670 164.822,-675.708 172.856,-680.411 181.115,-684.261"/>
<polygon fill="midnightblue" stroke="midnightblue" points="72.1563,-530.712 65.341,-522.6 65.6101,-533.191 72.1563,-530.712"/>
</g>
<!-- Node161 -->
<g id="node17" class="node"><title>Node161</title>
<g id="a_node17"><a xlink:href="test__heatshrink__dynamic_8c.html#aaf61f9d548405f6ea0b9cc6d4dd86589" target="_top" xlink:title="decoder_poll_should\l_expand_short_literal\l_and_backref_when_fed\l_input_byte_by_byte">
<polygon fill="white" stroke="black" points="175,-608 175,-660 297,-660 297,-608 175,-608"/>
<text text-anchor="start" x="183" y="-648" font-family="Helvetica,sans-Serif" font-size="10.00">decoder_poll_should</text>
<text text-anchor="start" x="183" y="-637" font-family="Helvetica,sans-Serif" font-size="10.00">_expand_short_literal</text>
<text text-anchor="start" x="183" y="-626" font-family="Helvetica,sans-Serif" font-size="10.00">_and_backref_when_fed</text>
<text text-anchor="middle" x="236" y="-615" font-family="Helvetica,sans-Serif" font-size="10.00">_input_byte_by_byte</text>
</a>
</g>
</g>
<!-- Node145&#45;&gt;Node161 -->
<g id="edge26" class="edge"><title>Node145&#45;&gt;Node161</title>
<path fill="none" stroke="midnightblue" d="M78.2486,-530.065C96.4282,-548.486 127.365,-577.884 158,-598 163.304,-601.483 168.999,-604.811 174.803,-607.939"/>
<polygon fill="midnightblue" stroke="midnightblue" points="80.54,-527.401 71.0582,-522.674 75.5225,-532.282 80.54,-527.401"/>
</g>
<!-- Node162 -->
<g id="node18" class="node"><title>Node162</title>
<g id="a_node18"><a xlink:href="test__heatshrink__dynamic_8c.html#a5f04d534aa5ff2bc1fb218feea741774" target="_top" xlink:title="decoder_poll_should\l_expand_short_self_overlapping\l_backref">
<polygon fill="white" stroke="black" points="158,-547.5 158,-588.5 314,-588.5 314,-547.5 158,-547.5"/>
<text text-anchor="start" x="166" y="-576.5" font-family="Helvetica,sans-Serif" font-size="10.00">decoder_poll_should</text>
<text text-anchor="start" x="166" y="-565.5" font-family="Helvetica,sans-Serif" font-size="10.00">_expand_short_self_overlapping</text>
<text text-anchor="middle" x="236" y="-554.5" font-family="Helvetica,sans-Serif" font-size="10.00">_backref</text>
</a>
</g>
</g>
<!-- Node145&#45;&gt;Node162 -->
<g id="edge28" class="edge"><title>Node145&#45;&gt;Node162</title>
<path fill="none" stroke="midnightblue" d="M101.703,-525.622C122.068,-532.097 147.384,-540.145 170.466,-547.483"/>
<polygon fill="midnightblue" stroke="midnightblue" points="102.725,-522.275 92.1343,-522.58 100.604,-528.946 102.725,-522.275"/>
</g>
<!-- Node163 -->
<g id="node19" class="node"><title>Node163</title>
<g id="a_node19"><a xlink:href="test__heatshrink__dynamic_8c.html#a289dd3f831fdabb987c0d206e5cf13d5" target="_top" xlink:title="decoder_poll_should\l_reject_null_hsd">
<polygon fill="white" stroke="black" points="183.5,-498 183.5,-528 288.5,-528 288.5,-498 183.5,-498"/>
<text text-anchor="start" x="191.5" y="-516" font-family="Helvetica,sans-Serif" font-size="10.00">decoder_poll_should</text>
<text text-anchor="middle" x="236" y="-505" font-family="Helvetica,sans-Serif" font-size="10.00">_reject_null_hsd</text>
</a>
</g>
</g>
<!-- Node145&#45;&gt;Node163 -->
<g id="edge30" class="edge"><title>Node145&#45;&gt;Node163</title>
<path fill="none" stroke="midnightblue" d="M132.498,-513C149.541,-513 167.443,-513 183.432,-513"/>
<polygon fill="midnightblue" stroke="midnightblue" points="132.022,-509.5 122.021,-513 132.021,-516.5 132.022,-509.5"/>
</g>
<!-- Node164 -->
<g id="node20" class="node"><title>Node164</title>
<g id="a_node20"><a xlink:href="test__heatshrink__dynamic_8c.html#af707dda355411d96de31c8bdaa687108" target="_top" xlink:title="decoder_poll_should\l_reject_null_output\l_buffer">
<polygon fill="white" stroke="black" points="183.5,-437.5 183.5,-478.5 288.5,-478.5 288.5,-437.5 183.5,-437.5"/>
<text text-anchor="start" x="191.5" y="-466.5" font-family="Helvetica,sans-Serif" font-size="10.00">decoder_poll_should</text>
<text text-anchor="start" x="191.5" y="-455.5" font-family="Helvetica,sans-Serif" font-size="10.00">_reject_null_output</text>
<text text-anchor="middle" x="236" y="-444.5" font-family="Helvetica,sans-Serif" font-size="10.00">_buffer</text>
</a>
</g>
</g>
<!-- Node145&#45;&gt;Node164 -->
<g id="edge32" class="edge"><title>Node145&#45;&gt;Node164</title>
<path fill="none" stroke="midnightblue" d="M101.704,-500.377C125.894,-492.687 157.071,-482.775 183.19,-474.472"/>
<polygon fill="midnightblue" stroke="midnightblue" points="100.604,-497.054 92.1343,-503.42 102.725,-503.725 100.604,-497.054"/>
</g>
<!-- Node165 -->
<g id="node21" class="node"><title>Node165</title>
<g id="a_node21"><a xlink:href="test__heatshrink__dynamic_8c.html#a0e70f90b221a1bee860235c1ad79f7f8" target="_top" xlink:title="decoder_poll_should\l_reject_null_output\l_size_pointer">
<polygon fill="white" stroke="black" points="183.5,-377.5 183.5,-418.5 288.5,-418.5 288.5,-377.5 183.5,-377.5"/>
<text text-anchor="start" x="191.5" y="-406.5" font-family="Helvetica,sans-Serif" font-size="10.00">decoder_poll_should</text>
<text text-anchor="start" x="191.5" y="-395.5" font-family="Helvetica,sans-Serif" font-size="10.00">_reject_null_output</text>
<text text-anchor="middle" x="236" y="-384.5" font-family="Helvetica,sans-Serif" font-size="10.00">_size_pointer</text>
</a>
</g>
</g>
<!-- Node145&#45;&gt;Node165 -->
<g id="edge34" class="edge"><title>Node145&#45;&gt;Node165</title>
<path fill="none" stroke="midnightblue" d="M77.7179,-495.842C95.6422,-477.101 126.554,-447.198 158,-428 165.837,-423.216 174.568,-418.948 183.256,-415.239"/>
<polygon fill="midnightblue" stroke="midnightblue" points="74.9521,-493.675 70.6541,-503.359 80.053,-498.469 74.9521,-493.675"/>
</g>
<!-- Node166 -->
<g id="node22" class="node"><title>Node166</title>
<g id="a_node22"><a xlink:href="test__heatshrink__dynamic_8c.html#a89837d79f51959fccccd28df0356fe37" target="_top" xlink:title="decoder_poll_should\l_return_empty_if_empty">
<polygon fill="white" stroke="black" points="175,-328 175,-358 297,-358 297,-328 175,-328"/>
<text text-anchor="start" x="183" y="-346" font-family="Helvetica,sans-Serif" font-size="10.00">decoder_poll_should</text>
<text text-anchor="middle" x="236" y="-335" font-family="Helvetica,sans-Serif" font-size="10.00">_return_empty_if_empty</text>
</a>
</g>
</g>
<!-- Node145&#45;&gt;Node166 -->
<g id="edge36" class="edge"><title>Node145&#45;&gt;Node166</title>
<path fill="none" stroke="midnightblue" d="M69.5853,-494.016C82.8817,-463.113 113.3,-401.978 158,-368 163.147,-364.087 168.931,-360.774 174.956,-357.97"/>
<polygon fill="midnightblue" stroke="midnightblue" points="66.3516,-492.676 65.7366,-503.253 72.8133,-495.369 66.3516,-492.676"/>
</g>
<!-- Node167 -->
<g id="node23" class="node"><title>Node167</title>
<g id="a_node23"><a xlink:href="test__heatshrink__dynamic_8c.html#a4c76ed65aa09f4c123ed378507c3ddbb" target="_top" xlink:title="decoder_poll_should\l_suspend_if_out_of_space\l_in_output_buffer_during\l_backref_expansion">
<polygon fill="white" stroke="black" points="169.5,-257 169.5,-309 302.5,-309 302.5,-257 169.5,-257"/>
<text text-anchor="start" x="177.5" y="-297" font-family="Helvetica,sans-Serif" font-size="10.00">decoder_poll_should</text>
<text text-anchor="start" x="177.5" y="-286" font-family="Helvetica,sans-Serif" font-size="10.00">_suspend_if_out_of_space</text>
<text text-anchor="start" x="177.5" y="-275" font-family="Helvetica,sans-Serif" font-size="10.00">_in_output_buffer_during</text>
<text text-anchor="middle" x="236" y="-264" font-family="Helvetica,sans-Serif" font-size="10.00">_backref_expansion</text>
</a>
</g>
</g>
<!-- Node145&#45;&gt;Node167 -->
<g id="edge38" class="edge"><title>Node145&#45;&gt;Node167</title>
<path fill="none" stroke="midnightblue" d="M66.9394,-493.113C77.452,-454.547 105.481,-368.923 158,-318 161.479,-314.627 165.34,-311.542 169.428,-308.726"/>
<polygon fill="midnightblue" stroke="midnightblue" points="63.477,-492.519 64.3316,-503.079 70.2491,-494.291 63.477,-492.519"/>
</g>
<!-- Node168 -->
<g id="node24" class="node"><title>Node168</title>
<g id="a_node24"><a xlink:href="test__heatshrink__dynamic_8c.html#aed41c11f7d13fb37749ce644efea3b76" target="_top" xlink:title="decoder_poll_should\l_suspend_if_out_of_space\l_in_output_buffer_during\l_literal_expansion">
<polygon fill="white" stroke="black" points="169.5,-186 169.5,-238 302.5,-238 302.5,-186 169.5,-186"/>
<text text-anchor="start" x="177.5" y="-226" font-family="Helvetica,sans-Serif" font-size="10.00">decoder_poll_should</text>
<text text-anchor="start" x="177.5" y="-215" font-family="Helvetica,sans-Serif" font-size="10.00">_suspend_if_out_of_space</text>
<text text-anchor="start" x="177.5" y="-204" font-family="Helvetica,sans-Serif" font-size="10.00">_in_output_buffer_during</text>
<text text-anchor="middle" x="236" y="-193" font-family="Helvetica,sans-Serif" font-size="10.00">_literal_expansion</text>
</a>
</g>
</g>
<!-- Node145&#45;&gt;Node168 -->
<g id="edge40" class="edge"><title>Node145&#45;&gt;Node168</title>
<path fill="none" stroke="midnightblue" d="M63.8934,-493.413C69.5122,-445.412 90.1871,-320.487 158,-247 161.386,-243.331 165.231,-240.019 169.352,-237.034"/>
<polygon fill="midnightblue" stroke="midnightblue" points="60.4079,-493.09 62.8158,-503.408 67.3676,-493.841 60.4079,-493.09"/>
</g>
<!-- Node169 -->
<g id="node25" class="node"><title>Node169</title>
<g id="a_node25"><a xlink:href="test__heatshrink__dynamic_8c.html#aeefae364c6a09c82a0228b02adf67236" target="_top" xlink:title="decoder_should_not\l_get_stuck_with_finish\l_yielding_MORE_but_0_bytes\l_output_from_poll">
<polygon fill="white" stroke="black" points="161.5,-115 161.5,-167 310.5,-167 310.5,-115 161.5,-115"/>
<text text-anchor="start" x="169.5" y="-155" font-family="Helvetica,sans-Serif" font-size="10.00">decoder_should_not</text>
<text text-anchor="start" x="169.5" y="-144" font-family="Helvetica,sans-Serif" font-size="10.00">_get_stuck_with_finish</text>
<text text-anchor="start" x="169.5" y="-133" font-family="Helvetica,sans-Serif" font-size="10.00">_yielding_MORE_but_0_bytes</text>
<text text-anchor="middle" x="236" y="-122" font-family="Helvetica,sans-Serif" font-size="10.00">_output_from_poll</text>
</a>
</g>
</g>
<!-- Node145&#45;&gt;Node169 -->
<g id="edge42" class="edge"><title>Node145&#45;&gt;Node169</title>
<path fill="none" stroke="midnightblue" d="M62.1194,-493.293C63.4917,-436.877 74.8187,-272.611 158,-176 160.779,-172.773 163.916,-169.828 167.294,-167.142"/>
<polygon fill="midnightblue" stroke="midnightblue" points="58.6188,-493.305 61.9573,-503.36 65.6179,-493.418 58.6188,-493.305"/>
</g>
<!-- Node170 -->
<g id="node26" class="node"><title>Node170</title>
<g id="a_node26"><a xlink:href="heatshrink_8c.html#a3f2b305cf4f4bf560265d00373a78bdd" target="_top" xlink:title="decoder_sink_read">
<polygon fill="white" stroke="black" points="187,-76.5 187,-95.5 285,-95.5 285,-76.5 187,-76.5"/>
<text text-anchor="middle" x="236" y="-83.5" font-family="Helvetica,sans-Serif" font-size="10.00">decoder_sink_read</text>
</a>
</g>
</g>
<!-- Node145&#45;&gt;Node170 -->
<g id="edge44" class="edge"><title>Node145&#45;&gt;Node170</title>
<path fill="none" stroke="midnightblue" d="M63.9462,-493.238C71.6035,-419.476 102.016,-161.594 158,-105 165.747,-97.169 176.171,-92.3769 186.843,-89.4892"/>
<polygon fill="midnightblue" stroke="midnightblue" points="60.4388,-493.135 62.9122,-503.437 67.4031,-493.841 60.4388,-493.135"/>
</g>
<!-- Node173 -->
<g id="node29" class="node"><title>Node173</title>
<g id="a_node29"><a xlink:href="espfs_8h.html#adb43e859351bc07f175ccc5e29ee6950" target="_top" xlink:title="espFsRead">
<polygon fill="white" stroke="black" points="202.5,-38.5 202.5,-57.5 269.5,-57.5 269.5,-38.5 202.5,-38.5"/>
<text text-anchor="middle" x="236" y="-45.5" font-family="Helvetica,sans-Serif" font-size="10.00">espFsRead</text>
</a>
</g>
</g>
<!-- Node145&#45;&gt;Node173 -->
<g id="edge47" class="edge"><title>Node145&#45;&gt;Node173</title>
<path fill="none" stroke="midnightblue" d="M63.5443,-492.941C69.9872,-414.474 97.2678,-129.576 158,-67 169.411,-55.242 186.852,-50.3098 202.251,-48.3981"/>
<polygon fill="midnightblue" stroke="midnightblue" points="60.0215,-493.088 62.7151,-503.335 66.9993,-493.645 60.0215,-493.088"/>
</g>
<!-- Node147 -->
<g id="node3" class="node"><title>Node147</title>
<g id="a_node3"><a xlink:href="test__heatshrink__dynamic_8c.html#a9d63746ee6a963338d09b8a19da82529" target="_top" xlink:title="data_without_duplication\l_should_match">
<polygon fill="white" stroke="black" points="377,-1222 377,-1252 501,-1252 501,-1222 377,-1222"/>
<text text-anchor="start" x="385" y="-1240" font-family="Helvetica,sans-Serif" font-size="10.00">data_without_duplication</text>
<text text-anchor="middle" x="439" y="-1229" font-family="Helvetica,sans-Serif" font-size="10.00">_should_match</text>
</a>
</g>
</g>
<!-- Node146&#45;&gt;Node147 -->
<g id="edge2" class="edge"><title>Node146&#45;&gt;Node147</title>
<path fill="none" stroke="midnightblue" d="M246.955,-1069.49C263.084,-1106.08 298.411,-1174.67 350,-1212 357.978,-1217.77 367.253,-1222.22 376.729,-1225.63"/>
<polygon fill="midnightblue" stroke="midnightblue" points="250.075,-1067.89 242.918,-1060.08 243.641,-1070.65 250.075,-1067.89"/>
</g>
<!-- Node149 -->
<g id="node5" class="node"><title>Node149</title>
<g id="a_node5"><a xlink:href="test__heatshrink__dynamic_8c.html#ae9d1425d6c89a652b9df2b4ddc7ac2a2" target="_top" xlink:title="data_with_simple_repetition\l_should_compress_and_decompress\l_properly">
<polygon fill="white" stroke="black" points="350,-1161.5 350,-1202.5 528,-1202.5 528,-1161.5 350,-1161.5"/>
<text text-anchor="start" x="358" y="-1190.5" font-family="Helvetica,sans-Serif" font-size="10.00">data_with_simple_repetition</text>
<text text-anchor="start" x="358" y="-1179.5" font-family="Helvetica,sans-Serif" font-size="10.00">_should_compress_and_decompress</text>
<text text-anchor="middle" x="439" y="-1168.5" font-family="Helvetica,sans-Serif" font-size="10.00">_properly</text>
</a>
</g>
</g>
<!-- Node146&#45;&gt;Node149 -->
<g id="edge4" class="edge"><title>Node146&#45;&gt;Node149</title>
<path fill="none" stroke="midnightblue" d="M256.054,-1068.18C276.885,-1092.17 312.349,-1129.26 350,-1152 355.665,-1155.42 361.772,-1158.52 368.035,-1161.3"/>
<polygon fill="midnightblue" stroke="midnightblue" points="258.47,-1065.62 249.316,-1060.28 253.145,-1070.16 258.47,-1065.62"/>
</g>
<!-- Node150 -->
<g id="node6" class="node"><title>Node150</title>
<g id="a_node6"><a xlink:href="test__heatshrink__dynamic_8c.html#a60c0e0c5bbb9715c7932ee82e706752d" target="_top" xlink:title="pseudorandom_data_should\l_match">
<polygon fill="white" stroke="black" points="370,-1112 370,-1142 508,-1142 508,-1112 370,-1112"/>
<text text-anchor="start" x="378" y="-1130" font-family="Helvetica,sans-Serif" font-size="10.00">pseudorandom_data_should</text>
<text text-anchor="middle" x="439" y="-1119" font-family="Helvetica,sans-Serif" font-size="10.00">_match</text>
</a>
</g>
</g>
<!-- Node146&#45;&gt;Node150 -->
<g id="edge6" class="edge"><title>Node146&#45;&gt;Node150</title>
<path fill="none" stroke="midnightblue" d="M272.209,-1064.95C294.113,-1076.8 323.133,-1091.52 350,-1102 359.322,-1105.64 369.385,-1109 379.26,-1112"/>
<polygon fill="midnightblue" stroke="midnightblue" points="273.737,-1061.79 263.284,-1060.06 270.376,-1067.93 273.737,-1061.79"/>
</g>
<!-- Node151 -->
<g id="node7" class="node"><title>Node151</title>
<g id="a_node7"><a xlink:href="test__heatshrink__dynamic_8c.html#a20e1a72bba941f0c602b93b53d32d5db" target="_top" xlink:title="small_input_buffer\l_should_not_impact_decoder\l_correctness">
<polygon fill="white" stroke="black" points="367.5,-1051.5 367.5,-1092.5 510.5,-1092.5 510.5,-1051.5 367.5,-1051.5"/>
<text text-anchor="start" x="375.5" y="-1080.5" font-family="Helvetica,sans-Serif" font-size="10.00">small_input_buffer</text>
<text text-anchor="start" x="375.5" y="-1069.5" font-family="Helvetica,sans-Serif" font-size="10.00">_should_not_impact_decoder</text>
<text text-anchor="middle" x="439" y="-1058.5" font-family="Helvetica,sans-Serif" font-size="10.00">_correctness</text>
</a>
</g>
</g>
<!-- Node146&#45;&gt;Node151 -->
<g id="edge8" class="edge"><title>Node146&#45;&gt;Node151</title>
<path fill="none" stroke="midnightblue" d="M304.613,-1054.08C324.74,-1056.79 346.845,-1059.76 367.171,-1062.49"/>
<polygon fill="midnightblue" stroke="midnightblue" points="304.976,-1050.6 294.599,-1052.74 304.044,-1057.54 304.976,-1050.6"/>
</g>
<!-- Node152 -->
<g id="node8" class="node"><title>Node152</title>
<g id="a_node8"><a xlink:href="test__heatshrink__dynamic_8c.html#a462faeb904a3de1b1e009a04f7d171d8" target="_top" xlink:title="regression_backreference\l_counters_should_not_roll_over">
<polygon fill="white" stroke="black" points="362,-1002 362,-1032 516,-1032 516,-1002 362,-1002"/>
<text text-anchor="start" x="370" y="-1020" font-family="Helvetica,sans-Serif" font-size="10.00">regression_backreference</text>
<text text-anchor="middle" x="439" y="-1009" font-family="Helvetica,sans-Serif" font-size="10.00">_counters_should_not_roll_over</text>
</a>
</g>
</g>
<!-- Node146&#45;&gt;Node152 -->
<g id="edge10" class="edge"><title>Node146&#45;&gt;Node152</title>
<path fill="none" stroke="midnightblue" d="M304.591,-1035.58C322.915,-1033.03 342.878,-1030.25 361.648,-1027.64"/>
<polygon fill="midnightblue" stroke="midnightblue" points="304.02,-1032.13 294.599,-1036.98 304.986,-1039.06 304.02,-1032.13"/>
</g>
<!-- Node153 -->
<g id="node9" class="node"><title>Node153</title>
<g id="a_node9"><a xlink:href="test__heatshrink__dynamic_8c.html#a2ed8ea21768d114fa96b07eb58475663" target="_top" xlink:title="regression_index_fail">
<polygon fill="white" stroke="black" points="385,-963.5 385,-982.5 493,-982.5 493,-963.5 385,-963.5"/>
<text text-anchor="middle" x="439" y="-970.5" font-family="Helvetica,sans-Serif" font-size="10.00">regression_index_fail</text>
</a>
</g>
</g>
<!-- Node146&#45;&gt;Node153 -->
<g id="edge12" class="edge"><title>Node146&#45;&gt;Node153</title>
<path fill="none" stroke="midnightblue" d="M274.733,-1025.24C296.322,-1014.55 324.172,-1001.77 350,-993 362.017,-988.919 375.239,-985.418 387.701,-982.539"/>
<polygon fill="midnightblue" stroke="midnightblue" points="272.955,-1022.21 265.587,-1029.83 276.095,-1028.47 272.955,-1022.21"/>
</g>
<!-- Node154 -->
<g id="node10" class="node"><title>Node154</title>
<g id="a_node10"><a xlink:href="test__heatshrink__dynamic_8c.html#a1bfe72da903d55a8610433a4f2a60d43" target="_top" xlink:title="sixty_four_k">
<polygon fill="white" stroke="black" points="404,-925.5 404,-944.5 474,-944.5 474,-925.5 404,-925.5"/>
<text text-anchor="middle" x="439" y="-932.5" font-family="Helvetica,sans-Serif" font-size="10.00">sixty_four_k</text>
</a>
</g>
</g>
<!-- Node146&#45;&gt;Node154 -->
<g id="edge14" class="edge"><title>Node146&#45;&gt;Node154</title>
<path fill="none" stroke="midnightblue" d="M258.355,-1022.6C279.615,-1001.65 314.165,-971.103 350,-954 366.786,-945.989 386.981,-941.32 403.789,-938.617"/>
<polygon fill="midnightblue" stroke="midnightblue" points="255.722,-1020.28 251.146,-1029.84 260.682,-1025.22 255.722,-1020.28"/>
</g>
<!-- Node148 -->
<g id="node4" class="node"><title>Node148</title>
<g id="a_node4"><a xlink:href="test__heatshrink__dynamic_8c.html#a2f157eb23cb17a496326c14e12933b3b" target="_top" xlink:title="SUITE">
<polygon fill="white" stroke="black" points="564,-1007.5 564,-1026.5 611,-1026.5 611,-1007.5 564,-1007.5"/>
<text text-anchor="middle" x="587.5" y="-1014.5" font-family="Helvetica,sans-Serif" font-size="10.00">SUITE</text>
</a>
</g>
</g>
<!-- Node147&#45;&gt;Node148 -->
<g id="edge3" class="edge"><title>Node147&#45;&gt;Node148</title>
<path fill="none" stroke="midnightblue" d="M510.706,-1224.13C517.065,-1220.92 522.984,-1216.94 528,-1212 581.875,-1158.91 586.557,-1058.32 586.643,-1026.74"/>
<polygon fill="midnightblue" stroke="midnightblue" points="508.908,-1221.09 501.13,-1228.29 511.697,-1227.51 508.908,-1221.09"/>
</g>
<!-- Node149&#45;&gt;Node148 -->
<g id="edge5" class="edge"><title>Node149&#45;&gt;Node148</title>
<path fill="none" stroke="midnightblue" d="M523.941,-1155.47C525.34,-1154.36 526.695,-1153.2 528,-1152 566.484,-1116.49 580.847,-1051.28 585.042,-1026.71"/>
<polygon fill="midnightblue" stroke="midnightblue" points="521.715,-1152.75 515.5,-1161.33 525.709,-1158.5 521.715,-1152.75"/>
</g>
<!-- Node150&#45;&gt;Node148 -->
<g id="edge7" class="edge"><title>Node150&#45;&gt;Node148</title>
<path fill="none" stroke="midnightblue" d="M517.148,-1108.65C520.943,-1106.66 524.588,-1104.45 528,-1102 555.945,-1081.95 574.879,-1044.16 582.599,-1026.52"/>
<polygon fill="midnightblue" stroke="midnightblue" points="515.625,-1105.5 508.063,-1112.92 518.602,-1111.83 515.625,-1105.5"/>
</g>
<!-- Node151&#45;&gt;Node148 -->
<g id="edge9" class="edge"><title>Node151&#45;&gt;Node148</title>
<path fill="none" stroke="midnightblue" d="M512.018,-1047.94C517.443,-1045.98 522.819,-1043.99 528,-1042 540.478,-1037.21 554.23,-1031.37 565.263,-1026.53"/>
<polygon fill="midnightblue" stroke="midnightblue" points="510.471,-1044.78 502.23,-1051.44 512.825,-1051.37 510.471,-1044.78"/>
</g>
<!-- Node152&#45;&gt;Node148 -->
<g id="edge11" class="edge"><title>Node152&#45;&gt;Node148</title>
<path fill="none" stroke="midnightblue" d="M526.383,-1017C540.178,-1017 553.331,-1017 563.796,-1017"/>
<polygon fill="midnightblue" stroke="midnightblue" points="526.254,-1013.5 516.254,-1017 526.254,-1020.5 526.254,-1013.5"/>
</g>
<!-- Node153&#45;&gt;Node148 -->
<g id="edge13" class="edge"><title>Node153&#45;&gt;Node148</title>
<path fill="none" stroke="midnightblue" d="M498.588,-984.886C508.481,-987.3 518.589,-990.023 528,-993 540.769,-997.04 554.654,-1002.68 565.691,-1007.48"/>
<polygon fill="midnightblue" stroke="midnightblue" points="499.338,-981.467 488.801,-982.577 497.731,-988.28 499.338,-981.467"/>
</g>
<!-- Node154&#45;&gt;Node148 -->
<g id="edge15" class="edge"><title>Node154&#45;&gt;Node148</title>
<path fill="none" stroke="midnightblue" d="M484.199,-939.161C498.836,-941.908 514.757,-946.461 528,-954 551.348,-967.292 570.784,-993.038 580.267,-1007.15"/>
<polygon fill="midnightblue" stroke="midnightblue" points="484.755,-935.706 474.319,-937.533 483.617,-942.612 484.755,-935.706"/>
</g>
<!-- Node155&#45;&gt;Node148 -->
<g id="edge17" class="edge"><title>Node155&#45;&gt;Node148</title>
<path fill="none" stroke="midnightblue" d="M522.304,-911.724C524.272,-913.078 526.175,-914.503 528,-916 558.859,-941.323 576.867,-987.482 583.528,-1007.41"/>
<polygon fill="midnightblue" stroke="midnightblue" points="523.672,-908.457 513.316,-906.22 520.017,-914.427 523.672,-908.457"/>
</g>
<!-- Node156&#45;&gt;Node148 -->
<g id="edge19" class="edge"><title>Node156&#45;&gt;Node148</title>
<path fill="none" stroke="midnightblue" d="M521.908,-850.71C524.045,-852.361 526.084,-854.122 528,-856 572.387,-899.509 583.29,-979.286 585.797,-1007.11"/>
<polygon fill="midnightblue" stroke="midnightblue" points="523.481,-847.549 513.23,-844.873 519.574,-853.358 523.481,-847.549"/>
</g>
<!-- Node158 -->
<g id="node14" class="node"><title>Node158</title>
<g id="a_node14"><a xlink:href="test__heatshrink__dynamic_8c.html#adc66afa12a5eaae0cd12d5cc497f0f67" target="_top" xlink:title="SUITE">
<polygon fill="white" stroke="black" points="415.5,-475.5 415.5,-494.5 462.5,-494.5 462.5,-475.5 415.5,-475.5"/>
<text text-anchor="middle" x="439" y="-482.5" font-family="Helvetica,sans-Serif" font-size="10.00">SUITE</text>
</a>
</g>
</g>
<!-- Node157&#45;&gt;Node158 -->
<g id="edge21" class="edge"><title>Node157&#45;&gt;Node158</title>
<path fill="none" stroke="midnightblue" d="M301.954,-788.598C306.291,-786.144 310.369,-783.298 314,-780 405.49,-696.877 431.615,-535.401 436.886,-494.563"/>
<polygon fill="midnightblue" stroke="midnightblue" points="300.193,-785.563 292.753,-793.106 303.273,-791.849 300.193,-785.563"/>
</g>
<!-- Node159&#45;&gt;Node158 -->
<g id="edge23" class="edge"><title>Node159&#45;&gt;Node158</title>
<path fill="none" stroke="midnightblue" d="M300.065,-739.324C305.064,-736.683 309.796,-733.599 314,-730 393.304,-662.098 427.67,-531.074 435.948,-494.619"/>
<polygon fill="midnightblue" stroke="midnightblue" points="298.428,-736.226 290.837,-743.617 301.38,-742.573 298.428,-736.226"/>
</g>
<!-- Node160&#45;&gt;Node158 -->
<g id="edge25" class="edge"><title>Node160&#45;&gt;Node158</title>
<path fill="none" stroke="midnightblue" d="M299.871,-679.368C304.875,-676.59 309.663,-673.478 314,-670 378.25,-618.477 421.426,-524.62 434.118,-494.544"/>
<polygon fill="midnightblue" stroke="midnightblue" points="298.028,-676.378 290.683,-684.014 301.186,-682.625 298.028,-676.378"/>
</g>
<!-- Node161&#45;&gt;Node158 -->
<g id="edge27" class="edge"><title>Node161&#45;&gt;Node158</title>
<path fill="none" stroke="midnightblue" d="M306.08,-602.994C308.792,-601.372 311.443,-599.705 314,-598 362.22,-565.841 410.402,-515.397 429.467,-494.529"/>
<polygon fill="midnightblue" stroke="midnightblue" points="304.21,-600.031 297.249,-608.018 307.671,-606.115 304.21,-600.031"/>
</g>
<!-- Node162&#45;&gt;Node158 -->
<g id="edge29" class="edge"><title>Node162&#45;&gt;Node158</title>
<path fill="none" stroke="midnightblue" d="M297.678,-543.666C303.201,-541.422 308.706,-539.176 314,-537 349.411,-522.448 390.341,-505.2 415.187,-494.682"/>
<polygon fill="midnightblue" stroke="midnightblue" points="296.354,-540.426 288.401,-547.425 298.983,-546.913 296.354,-540.426"/>
</g>
<!-- Node163&#45;&gt;Node158 -->
<g id="edge31" class="edge"><title>Node163&#45;&gt;Node158</title>
<path fill="none" stroke="midnightblue" d="M298.594,-504.42C338.144,-498.91 387.2,-492.077 415.321,-488.159"/>
<polygon fill="midnightblue" stroke="midnightblue" points="297.923,-500.979 288.501,-505.826 298.889,-507.912 297.923,-500.979"/>
</g>
<!-- Node164&#45;&gt;Node158 -->
<g id="edge33" class="edge"><title>Node164&#45;&gt;Node158</title>
<path fill="none" stroke="midnightblue" d="M298.594,-466.274C338.144,-471.586 387.2,-478.176 415.321,-481.954"/>
<polygon fill="midnightblue" stroke="midnightblue" points="298.878,-462.781 288.501,-464.918 297.946,-469.718 298.878,-462.781"/>
</g>
<!-- Node165&#45;&gt;Node158 -->
<g id="edge35" class="edge"><title>Node165&#45;&gt;Node158</title>
<path fill="none" stroke="midnightblue" d="M298.184,-421.455C303.549,-423.628 308.882,-425.829 314,-428 351.08,-443.73 393.595,-463.704 417.974,-475.349"/>
<polygon fill="midnightblue" stroke="midnightblue" points="299.115,-418.058 288.531,-417.589 296.512,-424.556 299.115,-418.058"/>
</g>
<!-- Node166&#45;&gt;Node158 -->
<g id="edge37" class="edge"><title>Node166&#45;&gt;Node158</title>
<path fill="none" stroke="midnightblue" d="M302.669,-362.057C306.587,-363.885 310.396,-365.863 314,-368 365.175,-398.339 412.431,-453.163 430.375,-475.32"/>
<polygon fill="midnightblue" stroke="midnightblue" points="303.947,-358.797 293.378,-358.063 301.183,-365.228 303.947,-358.797"/>
</g>
<!-- Node167&#45;&gt;Node158 -->
<g id="edge39" class="edge"><title>Node167&#45;&gt;Node158</title>
<path fill="none" stroke="midnightblue" d="M309.885,-314.842C311.291,-315.869 312.665,-316.922 314,-318 372.997,-365.647 418.643,-447.499 433.142,-475.377"/>
<polygon fill="midnightblue" stroke="midnightblue" points="311.778,-311.897 301.523,-309.235 307.88,-317.711 311.778,-311.897"/>
</g>
<!-- Node168&#45;&gt;Node158 -->
<g id="edge41" class="edge"><title>Node168&#45;&gt;Node158</title>
<path fill="none" stroke="midnightblue" d="M311.042,-244.334C312.054,-245.202 313.041,-246.091 314,-247 387.722,-316.867 425.806,-440.329 435.488,-475.443"/>
<polygon fill="midnightblue" stroke="midnightblue" points="312.926,-241.369 302.858,-238.072 308.673,-246.928 312.926,-241.369"/>
</g>
<!-- Node169&#45;&gt;Node158 -->
<g id="edge43" class="edge"><title>Node169&#45;&gt;Node158</title>
<path fill="none" stroke="midnightblue" d="M311.654,-173.661C312.456,-174.424 313.239,-175.204 314,-176 402.875,-268.967 430.93,-433.752 436.751,-475.287"/>
<polygon fill="midnightblue" stroke="midnightblue" points="313.875,-170.956 303.958,-167.226 309.384,-176.325 313.875,-170.956"/>
</g>
<!-- Node171 -->
<g id="node27" class="node"><title>Node171</title>
<g id="a_node27"><a xlink:href="heatshrink_8c.html#a92d9515cb2f33eea4832becaa17c11bb" target="_top" xlink:title="decode">
<polygon fill="white" stroke="black" points="415,-76.5 415,-95.5 463,-95.5 463,-76.5 415,-76.5"/>
<text text-anchor="middle" x="439" y="-83.5" font-family="Helvetica,sans-Serif" font-size="10.00">decode</text>
</a>
</g>
</g>
<!-- Node170&#45;&gt;Node171 -->
<g id="edge45" class="edge"><title>Node170&#45;&gt;Node171</title>
<path fill="none" stroke="midnightblue" d="M295.282,-86C335.127,-86 385.792,-86 414.793,-86"/>
<polygon fill="midnightblue" stroke="midnightblue" points="295.145,-82.5001 285.145,-86 295.144,-89.5001 295.145,-82.5001"/>
</g>
<!-- Node172 -->
<g id="node28" class="node"><title>Node172</title>
<g id="a_node28"><a xlink:href="heatshrink_8c.html#a3c04138a5bfe5d72780bb7e82a18e627" target="_top" xlink:title="main">
<polygon fill="white" stroke="black" points="568.5,-76.5 568.5,-95.5 606.5,-95.5 606.5,-76.5 568.5,-76.5"/>
<text text-anchor="middle" x="587.5" y="-83.5" font-family="Helvetica,sans-Serif" font-size="10.00">main</text>
</a>
</g>
</g>
<!-- Node171&#45;&gt;Node172 -->
<g id="edge46" class="edge"><title>Node171&#45;&gt;Node172</title>
<path fill="none" stroke="midnightblue" d="M473.47,-86C502.981,-86 544.857,-86 568.475,-86"/>
<polygon fill="midnightblue" stroke="midnightblue" points="473.213,-82.5001 463.213,-86 473.213,-89.5001 473.213,-82.5001"/>
</g>
<!-- Node174 -->
<g id="node30" class="node"><title>Node174</title>
<g id="a_node30"><a xlink:href="httpdespfs_8h.html#aa502116e50052d973b6eef02a6282dd3" target="_top" xlink:title="cgiEspFsHook">
<polygon fill="white" stroke="black" points="398.5,-38.5 398.5,-57.5 479.5,-57.5 479.5,-38.5 398.5,-38.5"/>
<text text-anchor="middle" x="439" y="-45.5" font-family="Helvetica,sans-Serif" font-size="10.00">cgiEspFsHook</text>
</a>
</g>
</g>
<!-- Node173&#45;&gt;Node174 -->
<g id="edge48" class="edge"><title>Node173&#45;&gt;Node174</title>
<path fill="none" stroke="midnightblue" d="M280.142,-48C315.206,-48 364.274,-48 398.36,-48"/>
<polygon fill="midnightblue" stroke="midnightblue" points="279.742,-44.5001 269.741,-48 279.741,-51.5001 279.742,-44.5001"/>
</g>
<!-- Node175 -->
<g id="node31" class="node"><title>Node175</title>
<g id="a_node31"><a xlink:href="httpdespfs_8h.html#abc9eb26f247094e9fc41db897f6ec030" target="_top" xlink:title="cgiEspFsTemplate">
<polygon fill="white" stroke="black" points="390,-0.5 390,-19.5 488,-19.5 488,-0.5 390,-0.5"/>
<text text-anchor="middle" x="439" y="-7.5" font-family="Helvetica,sans-Serif" font-size="10.00">cgiEspFsTemplate</text>
</a>
</g>
</g>
<!-- Node173&#45;&gt;Node175 -->
<g id="edge49" class="edge"><title>Node173&#45;&gt;Node175</title>
<path fill="none" stroke="midnightblue" d="M279.771,-39.914C312.051,-33.8112 356.355,-25.4355 389.872,-19.0987"/>
<polygon fill="midnightblue" stroke="midnightblue" points="278.917,-36.5133 269.741,-41.8101 280.218,-43.3914 278.917,-36.5133"/>
</g>
</g>
</svg>
