<?xml version="1.0" encoding="UTF-8" standalone="no"?>
<!DOCTYPE svg PUBLIC "-//W3C//DTD SVG 1.1//EN"
 "http://www.w3.org/Graphics/SVG/1.1/DTD/svg11.dtd">
<!-- Generated by graphviz version 2.38.0 (20140413.2041)
 -->
<!-- Title: st_backref_count_msb Pages: 1 -->
<svg width="771pt" height="1050pt"
 viewBox="0.00 0.00 771.00 1050.00" xmlns="http://www.w3.org/2000/svg" xmlns:xlink="http://www.w3.org/1999/xlink">
<g id="graph0" class="graph" transform="scale(1 1) rotate(0) translate(4 1046)">
<title>st_backref_count_msb</title>
<polygon fill="white" stroke="none" points="-4,4 -4,-1046 767,-1046 767,4 -4,4"/>
<!-- Node321 -->
<g id="node1" class="node"><title>Node321</title>
<polygon fill="#bfbfbf" stroke="black" points="0,-578.5 0,-597.5 116,-597.5 116,-578.5 0,-578.5"/>
<text text-anchor="middle" x="58" y="-585.5" font-family="Helvetica,sans-Serif" font-size="10.00">st_backref_count_msb</text>
</g>
<!-- Node322 -->
<g id="node2" class="node"><title>Node322</title>
<g id="a_node2"><a xlink:href="heatshrink__decoder_8h.html#a38406b03b9df8b993c6a3fa144675627" target="_top" xlink:title="heatshrink_decoder_poll">
<polygon fill="white" stroke="black" points="152,-578.5 152,-597.5 274,-597.5 274,-578.5 152,-578.5"/>
<text text-anchor="middle" x="213" y="-585.5" font-family="Helvetica,sans-Serif" font-size="10.00">heatshrink_decoder_poll</text>
</a>
</g>
</g>
<!-- Node321&#45;&gt;Node322 -->
<g id="edge1" class="edge"><title>Node321&#45;&gt;Node322</title>
<path fill="none" stroke="midnightblue" d="M126.61,-588C135.057,-588 143.651,-588 151.972,-588"/>
<polygon fill="midnightblue" stroke="midnightblue" points="126.407,-584.5 116.407,-588 126.407,-591.5 126.407,-584.5"/>
</g>
<!-- Node323 -->
<g id="node3" class="node"><title>Node323</title>
<g id="a_node3"><a xlink:href="heatshrink_8c.html#a3f2b305cf4f4bf560265d00373a78bdd" target="_top" xlink:title="decoder_sink_read">
<polygon fill="white" stroke="black" points="339,-1022.5 339,-1041.5 437,-1041.5 437,-1022.5 339,-1022.5"/>
<text text-anchor="middle" x="388" y="-1029.5" font-family="Helvetica,sans-Serif" font-size="10.00">decoder_sink_read</text>
</a>
</g>
</g>
<!-- Node322&#45;&gt;Node323 -->
<g id="edge2" class="edge"><title>Node322&#45;&gt;Node323</title>
<path fill="none" stroke="midnightblue" d="M215.732,-607.612C222.792,-683.104 251.821,-953.66 310,-1013 317.712,-1020.87 328.123,-1025.67 338.794,-1028.56"/>
<polygon fill="midnightblue" stroke="midnightblue" points="219.212,-607.224 214.818,-597.583 212.24,-607.859 219.212,-607.224"/>
</g>
<!-- Node326 -->
<g id="node6" class="node"><title>Node326</title>
<g id="a_node6"><a xlink:href="test__heatshrink__dynamic_8c.html#a89837d79f51959fccccd28df0356fe37" target="_top" xlink:title="decoder_poll_should\l_return_empty_if_empty">
<polygon fill="white" stroke="black" points="327,-973 327,-1003 449,-1003 449,-973 327,-973"/>
<text text-anchor="start" x="335" y="-991" font-family="Helvetica,sans-Serif" font-size="10.00">decoder_poll_should</text>
<text text-anchor="middle" x="388" y="-980" font-family="Helvetica,sans-Serif" font-size="10.00">_return_empty_if_empty</text>
</a>
</g>
</g>
<!-- Node322&#45;&gt;Node326 -->
<g id="edge5" class="edge"><title>Node322&#45;&gt;Node326</title>
<path fill="none" stroke="midnightblue" d="M216.511,-607.903C225.713,-677.846 259.695,-911 310,-964 314.723,-968.976 320.46,-972.927 326.648,-976.062"/>
<polygon fill="midnightblue" stroke="midnightblue" points="219.958,-607.267 215.206,-597.798 213.016,-608.164 219.958,-607.267"/>
</g>
<!-- Node328 -->
<g id="node8" class="node"><title>Node328</title>
<g id="a_node8"><a xlink:href="test__heatshrink__dynamic_8c.html#a289dd3f831fdabb987c0d206e5cf13d5" target="_top" xlink:title="decoder_poll_should\l_reject_null_hsd">
<polygon fill="white" stroke="black" points="335.5,-924 335.5,-954 440.5,-954 440.5,-924 335.5,-924"/>
<text text-anchor="start" x="343.5" y="-942" font-family="Helvetica,sans-Serif" font-size="10.00">decoder_poll_should</text>
<text text-anchor="middle" x="388" y="-931" font-family="Helvetica,sans-Serif" font-size="10.00">_reject_null_hsd</text>
</a>
</g>
</g>
<!-- Node322&#45;&gt;Node328 -->
<g id="edge7" class="edge"><title>Node322&#45;&gt;Node328</title>
<path fill="none" stroke="midnightblue" d="M213.824,-607.892C214.43,-664.067 223.964,-825.561 310,-914 316.958,-921.153 325.98,-926.261 335.385,-929.909"/>
<polygon fill="midnightblue" stroke="midnightblue" points="217.323,-607.561 213.805,-597.567 210.323,-607.574 217.323,-607.561"/>
</g>
<!-- Node329 -->
<g id="node9" class="node"><title>Node329</title>
<g id="a_node9"><a xlink:href="test__heatshrink__dynamic_8c.html#af707dda355411d96de31c8bdaa687108" target="_top" xlink:title="decoder_poll_should\l_reject_null_output\l_buffer">
<polygon fill="white" stroke="black" points="335.5,-863.5 335.5,-904.5 440.5,-904.5 440.5,-863.5 335.5,-863.5"/>
<text text-anchor="start" x="343.5" y="-892.5" font-family="Helvetica,sans-Serif" font-size="10.00">decoder_poll_should</text>
<text text-anchor="start" x="343.5" y="-881.5" font-family="Helvetica,sans-Serif" font-size="10.00">_reject_null_output</text>
<text text-anchor="middle" x="388" y="-870.5" font-family="Helvetica,sans-Serif" font-size="10.00">_buffer</text>
</a>
</g>
</g>
<!-- Node322&#45;&gt;Node329 -->
<g id="edge9" class="edge"><title>Node322&#45;&gt;Node329</title>
<path fill="none" stroke="midnightblue" d="M215.643,-607.825C220.695,-656.363 240.188,-782.409 310,-854 317.011,-861.19 325.946,-866.691 335.227,-870.889"/>
<polygon fill="midnightblue" stroke="midnightblue" points="219.113,-607.34 214.688,-597.714 212.144,-607.998 219.113,-607.34"/>
</g>
<!-- Node330 -->
<g id="node10" class="node"><title>Node330</title>
<g id="a_node10"><a xlink:href="test__heatshrink__dynamic_8c.html#a0e70f90b221a1bee860235c1ad79f7f8" target="_top" xlink:title="decoder_poll_should\l_reject_null_output\l_size_pointer">
<polygon fill="white" stroke="black" points="335.5,-803.5 335.5,-844.5 440.5,-844.5 440.5,-803.5 335.5,-803.5"/>
<text text-anchor="start" x="343.5" y="-832.5" font-family="Helvetica,sans-Serif" font-size="10.00">decoder_poll_should</text>
<text text-anchor="start" x="343.5" y="-821.5" font-family="Helvetica,sans-Serif" font-size="10.00">_reject_null_output</text>
<text text-anchor="middle" x="388" y="-810.5" font-family="Helvetica,sans-Serif" font-size="10.00">_size_pointer</text>
</a>
</g>
</g>
<!-- Node322&#45;&gt;Node330 -->
<g id="edge11" class="edge"><title>Node322&#45;&gt;Node330</title>
<path fill="none" stroke="midnightblue" d="M217.977,-607.604C227.139,-647.959 253.428,-740.968 310,-794 317.222,-800.77 326.145,-806.07 335.327,-810.201"/>
<polygon fill="midnightblue" stroke="midnightblue" points="221.369,-606.73 215.836,-597.695 214.527,-608.208 221.369,-606.73"/>
</g>
<!-- Node331 -->
<g id="node11" class="node"><title>Node331</title>
<g id="a_node11"><a xlink:href="test__heatshrink__dynamic_8c.html#afb5cdb53efe5dca1a7a785f344a03655" target="_top" xlink:title="decoder_poll_should\l_expand_short_literal">
<polygon fill="white" stroke="black" points="333.5,-754 333.5,-784 442.5,-784 442.5,-754 333.5,-754"/>
<text text-anchor="start" x="341.5" y="-772" font-family="Helvetica,sans-Serif" font-size="10.00">decoder_poll_should</text>
<text text-anchor="middle" x="388" y="-761" font-family="Helvetica,sans-Serif" font-size="10.00">_expand_short_literal</text>
</a>
</g>
</g>
<!-- Node322&#45;&gt;Node331 -->
<g id="edge13" class="edge"><title>Node322&#45;&gt;Node331</title>
<path fill="none" stroke="midnightblue" d="M220.821,-607.468C233.335,-640.392 263.067,-707.081 310,-744 316.849,-749.388 324.897,-753.632 333.161,-756.971"/>
<polygon fill="midnightblue" stroke="midnightblue" points="223.964,-605.874 217.237,-597.689 217.392,-608.282 223.964,-605.874"/>
</g>
<!-- Node332 -->
<g id="node12" class="node"><title>Node332</title>
<g id="a_node12"><a xlink:href="test__heatshrink__dynamic_8c.html#a5f3328adb18355964bab2a3f026f4707" target="_top" xlink:title="decoder_poll_should\l_expand_short_literal\l_and_backref">
<polygon fill="white" stroke="black" points="333.5,-693.5 333.5,-734.5 442.5,-734.5 442.5,-693.5 333.5,-693.5"/>
<text text-anchor="start" x="341.5" y="-722.5" font-family="Helvetica,sans-Serif" font-size="10.00">decoder_poll_should</text>
<text text-anchor="start" x="341.5" y="-711.5" font-family="Helvetica,sans-Serif" font-size="10.00">_expand_short_literal</text>
<text text-anchor="middle" x="388" y="-700.5" font-family="Helvetica,sans-Serif" font-size="10.00">_and_backref</text>
</a>
</g>
</g>
<!-- Node322&#45;&gt;Node332 -->
<g id="edge15" class="edge"><title>Node322&#45;&gt;Node332</title>
<path fill="none" stroke="midnightblue" d="M227.71,-605.617C244.937,-626.737 276.349,-662.027 310,-684 317.208,-688.706 325.266,-692.855 333.381,-696.448"/>
<polygon fill="midnightblue" stroke="midnightblue" points="230.408,-603.388 221.428,-597.766 224.943,-607.761 230.408,-603.388"/>
</g>
<!-- Node333 -->
<g id="node13" class="node"><title>Node333</title>
<g id="a_node13"><a xlink:href="test__heatshrink__dynamic_8c.html#a5f04d534aa5ff2bc1fb218feea741774" target="_top" xlink:title="decoder_poll_should\l_expand_short_self_overlapping\l_backref">
<polygon fill="white" stroke="black" points="310,-633.5 310,-674.5 466,-674.5 466,-633.5 310,-633.5"/>
<text text-anchor="start" x="318" y="-662.5" font-family="Helvetica,sans-Serif" font-size="10.00">decoder_poll_should</text>
<text text-anchor="start" x="318" y="-651.5" font-family="Helvetica,sans-Serif" font-size="10.00">_expand_short_self_overlapping</text>
<text text-anchor="middle" x="388" y="-640.5" font-family="Helvetica,sans-Serif" font-size="10.00">_backref</text>
</a>
</g>
</g>
<!-- Node322&#45;&gt;Node333 -->
<g id="edge17" class="edge"><title>Node322&#45;&gt;Node333</title>
<path fill="none" stroke="midnightblue" d="M248.637,-601.214C272.846,-610.45 305.648,-622.964 333.238,-633.49"/>
<polygon fill="midnightblue" stroke="midnightblue" points="249.746,-597.891 239.156,-597.597 247.251,-604.432 249.746,-597.891"/>
</g>
<!-- Node334 -->
<g id="node14" class="node"><title>Node334</title>
<g id="a_node14"><a xlink:href="test__heatshrink__dynamic_8c.html#aed41c11f7d13fb37749ce644efea3b76" target="_top" xlink:title="decoder_poll_should\l_suspend_if_out_of_space\l_in_output_buffer_during\l_literal_expansion">
<polygon fill="white" stroke="black" points="321.5,-562 321.5,-614 454.5,-614 454.5,-562 321.5,-562"/>
<text text-anchor="start" x="329.5" y="-602" font-family="Helvetica,sans-Serif" font-size="10.00">decoder_poll_should</text>
<text text-anchor="start" x="329.5" y="-591" font-family="Helvetica,sans-Serif" font-size="10.00">_suspend_if_out_of_space</text>
<text text-anchor="start" x="329.5" y="-580" font-family="Helvetica,sans-Serif" font-size="10.00">_in_output_buffer_during</text>
<text text-anchor="middle" x="388" y="-569" font-family="Helvetica,sans-Serif" font-size="10.00">_literal_expansion</text>
</a>
</g>
</g>
<!-- Node322&#45;&gt;Node334 -->
<g id="edge19" class="edge"><title>Node322&#45;&gt;Node334</title>
<path fill="none" stroke="midnightblue" d="M284.23,-588C296.537,-588 309.3,-588 321.474,-588"/>
<polygon fill="midnightblue" stroke="midnightblue" points="284.022,-584.5 274.021,-588 284.021,-591.5 284.022,-584.5"/>
</g>
<!-- Node335 -->
<g id="node15" class="node"><title>Node335</title>
<g id="a_node15"><a xlink:href="test__heatshrink__dynamic_8c.html#a4c76ed65aa09f4c123ed378507c3ddbb" target="_top" xlink:title="decoder_poll_should\l_suspend_if_out_of_space\l_in_output_buffer_during\l_backref_expansion">
<polygon fill="white" stroke="black" points="321.5,-491 321.5,-543 454.5,-543 454.5,-491 321.5,-491"/>
<text text-anchor="start" x="329.5" y="-531" font-family="Helvetica,sans-Serif" font-size="10.00">decoder_poll_should</text>
<text text-anchor="start" x="329.5" y="-520" font-family="Helvetica,sans-Serif" font-size="10.00">_suspend_if_out_of_space</text>
<text text-anchor="start" x="329.5" y="-509" font-family="Helvetica,sans-Serif" font-size="10.00">_in_output_buffer_during</text>
<text text-anchor="middle" x="388" y="-498" font-family="Helvetica,sans-Serif" font-size="10.00">_backref_expansion</text>
</a>
</g>
</g>
<!-- Node322&#45;&gt;Node335 -->
<g id="edge21" class="edge"><title>Node322&#45;&gt;Node335</title>
<path fill="none" stroke="midnightblue" d="M246.713,-574.574C268.355,-565.692 297.445,-553.754 323.523,-543.051"/>
<polygon fill="midnightblue" stroke="midnightblue" points="245.254,-571.39 237.332,-578.425 247.912,-577.866 245.254,-571.39"/>
</g>
<!-- Node336 -->
<g id="node16" class="node"><title>Node336</title>
<g id="a_node16"><a xlink:href="test__heatshrink__dynamic_8c.html#aaf61f9d548405f6ea0b9cc6d4dd86589" target="_top" xlink:title="decoder_poll_should\l_expand_short_literal\l_and_backref_when_fed\l_input_byte_by_byte">
<polygon fill="white" stroke="black" points="327,-420 327,-472 449,-472 449,-420 327,-420"/>
<text text-anchor="start" x="335" y="-460" font-family="Helvetica,sans-Serif" font-size="10.00">decoder_poll_should</text>
<text text-anchor="start" x="335" y="-449" font-family="Helvetica,sans-Serif" font-size="10.00">_expand_short_literal</text>
<text text-anchor="start" x="335" y="-438" font-family="Helvetica,sans-Serif" font-size="10.00">_and_backref_when_fed</text>
<text text-anchor="middle" x="388" y="-427" font-family="Helvetica,sans-Serif" font-size="10.00">_input_byte_by_byte</text>
</a>
</g>
</g>
<!-- Node322&#45;&gt;Node336 -->
<g id="edge23" class="edge"><title>Node322&#45;&gt;Node336</title>
<path fill="none" stroke="midnightblue" d="M226.488,-569.972C243.253,-546.85 275.007,-506.679 310,-481 315.209,-477.177 320.902,-473.635 326.759,-470.389"/>
<polygon fill="midnightblue" stroke="midnightblue" points="223.576,-568.027 220.631,-578.205 229.28,-572.085 223.576,-568.027"/>
</g>
<!-- Node337 -->
<g id="node17" class="node"><title>Node337</title>
<g id="a_node17"><a xlink:href="test__heatshrink__dynamic_8c.html#a1f5bd6590b5a6d8ae285c99739e59839" target="_top" xlink:title="decoder_finish_should\l_note_when_done">
<polygon fill="white" stroke="black" points="331.5,-371 331.5,-401 444.5,-401 444.5,-371 331.5,-371"/>
<text text-anchor="start" x="339.5" y="-389" font-family="Helvetica,sans-Serif" font-size="10.00">decoder_finish_should</text>
<text text-anchor="middle" x="388" y="-378" font-family="Helvetica,sans-Serif" font-size="10.00">_note_when_done</text>
</a>
</g>
</g>
<!-- Node322&#45;&gt;Node337 -->
<g id="edge25" class="edge"><title>Node322&#45;&gt;Node337</title>
<path fill="none" stroke="midnightblue" d="M219.224,-568.297C229.95,-531.661 257.939,-452.895 310,-410 316.268,-404.836 323.648,-400.78 331.315,-397.594"/>
<polygon fill="midnightblue" stroke="midnightblue" points="215.769,-567.654 216.442,-578.227 222.51,-569.542 215.769,-567.654"/>
</g>
<!-- Node338 -->
<g id="node18" class="node"><title>Node338</title>
<g id="a_node18"><a xlink:href="test__heatshrink__dynamic_8c.html#aeefae364c6a09c82a0228b02adf67236" target="_top" xlink:title="decoder_should_not\l_get_stuck_with_finish\l_yielding_MORE_but_0_bytes\l_output_from_poll">
<polygon fill="white" stroke="black" points="313.5,-300 313.5,-352 462.5,-352 462.5,-300 313.5,-300"/>
<text text-anchor="start" x="321.5" y="-340" font-family="Helvetica,sans-Serif" font-size="10.00">decoder_should_not</text>
<text text-anchor="start" x="321.5" y="-329" font-family="Helvetica,sans-Serif" font-size="10.00">_get_stuck_with_finish</text>
<text text-anchor="start" x="321.5" y="-318" font-family="Helvetica,sans-Serif" font-size="10.00">_yielding_MORE_but_0_bytes</text>
<text text-anchor="middle" x="388" y="-307" font-family="Helvetica,sans-Serif" font-size="10.00">_output_from_poll</text>
</a>
</g>
</g>
<!-- Node322&#45;&gt;Node338 -->
<g id="edge27" class="edge"><title>Node322&#45;&gt;Node338</title>
<path fill="none" stroke="midnightblue" d="M217.299,-568.452C225.486,-525.54 250.534,-422.065 310,-361 313.176,-357.739 316.712,-354.754 320.474,-352.027"/>
<polygon fill="midnightblue" stroke="midnightblue" points="213.829,-567.969 215.495,-578.432 220.718,-569.214 213.829,-567.969"/>
</g>
<!-- Node339 -->
<g id="node19" class="node"><title>Node339</title>
<g id="a_node19"><a xlink:href="test__heatshrink__dynamic_8c.html#ab9096be17a9dc8f301673949558e5bd6" target="_top" xlink:title="compress_and_expand\l_and_check">
<polygon fill="white" stroke="black" points="329.5,-251 329.5,-281 446.5,-281 446.5,-251 329.5,-251"/>
<text text-anchor="start" x="337.5" y="-269" font-family="Helvetica,sans-Serif" font-size="10.00">compress_and_expand</text>
<text text-anchor="middle" x="388" y="-258" font-family="Helvetica,sans-Serif" font-size="10.00">_and_check</text>
</a>
</g>
</g>
<!-- Node322&#45;&gt;Node339 -->
<g id="edge29" class="edge"><title>Node322&#45;&gt;Node339</title>
<path fill="none" stroke="midnightblue" d="M214.41,-568.351C216.595,-515.56 229.952,-369.291 310,-290 315.471,-284.58 322.146,-280.382 329.254,-277.129"/>
<polygon fill="midnightblue" stroke="midnightblue" points="210.91,-568.292 214.087,-578.399 217.907,-568.516 210.91,-568.292"/>
</g>
<!-- Node348 -->
<g id="node28" class="node"><title>Node348</title>
<g id="a_node28"><a xlink:href="test__heatshrink__dynamic_8c.html#a9a102029b8375d4050406a2814f390ac" target="_top" xlink:title="data_without_duplication\l_should_match_with_absurdly\l_tiny_buffers">
<polygon fill="white" stroke="black" points="517,-136.5 517,-177.5 665,-177.5 665,-136.5 517,-136.5"/>
<text text-anchor="start" x="525" y="-165.5" font-family="Helvetica,sans-Serif" font-size="10.00">data_without_duplication</text>
<text text-anchor="start" x="525" y="-154.5" font-family="Helvetica,sans-Serif" font-size="10.00">_should_match_with_absurdly</text>
<text text-anchor="middle" x="591" y="-143.5" font-family="Helvetica,sans-Serif" font-size="10.00">_tiny_buffers</text>
</a>
</g>
</g>
<!-- Node322&#45;&gt;Node348 -->
<g id="edge44" class="edge"><title>Node322&#45;&gt;Node348</title>
<path fill="none" stroke="midnightblue" d="M213.304,-568.289C212.356,-509.764 217.779,-335.23 310,-241 364.312,-185.505 453.718,-166.34 516.87,-159.901"/>
<polygon fill="midnightblue" stroke="midnightblue" points="209.808,-568.479 213.555,-578.389 216.805,-568.305 209.808,-568.479"/>
</g>
<!-- Node349 -->
<g id="node29" class="node"><title>Node349</title>
<g id="a_node29"><a xlink:href="test__heatshrink__dynamic_8c.html#acd64db79d79999a7c5436d35b74a7f40" target="_top" xlink:title="data_with_simple_repetition\l_should_match_with_absurdly\l_tiny_buffers">
<polygon fill="white" stroke="black" points="517,-76.5 517,-117.5 665,-117.5 665,-76.5 517,-76.5"/>
<text text-anchor="start" x="525" y="-105.5" font-family="Helvetica,sans-Serif" font-size="10.00">data_with_simple_repetition</text>
<text text-anchor="start" x="525" y="-94.5" font-family="Helvetica,sans-Serif" font-size="10.00">_should_match_with_absurdly</text>
<text text-anchor="middle" x="591" y="-83.5" font-family="Helvetica,sans-Serif" font-size="10.00">_tiny_buffers</text>
</a>
</g>
</g>
<!-- Node322&#45;&gt;Node349 -->
<g id="edge46" class="edge"><title>Node322&#45;&gt;Node349</title>
<path fill="none" stroke="midnightblue" d="M215.74,-568.473C222.826,-493.309 251.943,-223.938 310,-165 363.798,-110.385 453.527,-96.7899 516.888,-94.6751"/>
<polygon fill="midnightblue" stroke="midnightblue" points="212.252,-568.18 214.821,-578.459 219.222,-568.821 212.252,-568.18"/>
</g>
<!-- Node350 -->
<g id="node30" class="node"><title>Node350</title>
<g id="a_node30"><a xlink:href="espfs_8h.html#adb43e859351bc07f175ccc5e29ee6950" target="_top" xlink:title="espFsRead">
<polygon fill="white" stroke="black" points="354.5,-38.5 354.5,-57.5 421.5,-57.5 421.5,-38.5 354.5,-38.5"/>
<text text-anchor="middle" x="388" y="-45.5" font-family="Helvetica,sans-Serif" font-size="10.00">espFsRead</text>
</a>
</g>
</g>
<!-- Node322&#45;&gt;Node350 -->
<g id="edge48" class="edge"><title>Node322&#45;&gt;Node350</title>
<path fill="none" stroke="midnightblue" d="M213.351,-568.088C212.01,-499.144 215.131,-266.293 310,-110 324.338,-86.3787 351.097,-67.9461 368.982,-57.5186"/>
<polygon fill="midnightblue" stroke="midnightblue" points="209.859,-568.453 213.611,-578.361 216.856,-568.276 209.859,-568.453"/>
</g>
<!-- Node324 -->
<g id="node4" class="node"><title>Node324</title>
<g id="a_node4"><a xlink:href="heatshrink_8c.html#a92d9515cb2f33eea4832becaa17c11bb" target="_top" xlink:title="decode">
<polygon fill="white" stroke="black" points="567,-1022.5 567,-1041.5 615,-1041.5 615,-1022.5 567,-1022.5"/>
<text text-anchor="middle" x="591" y="-1029.5" font-family="Helvetica,sans-Serif" font-size="10.00">decode</text>
</a>
</g>
</g>
<!-- Node323&#45;&gt;Node324 -->
<g id="edge3" class="edge"><title>Node323&#45;&gt;Node324</title>
<path fill="none" stroke="midnightblue" d="M447.282,-1032C487.127,-1032 537.792,-1032 566.793,-1032"/>
<polygon fill="midnightblue" stroke="midnightblue" points="447.145,-1028.5 437.145,-1032 447.144,-1035.5 447.145,-1028.5"/>
</g>
<!-- Node325 -->
<g id="node5" class="node"><title>Node325</title>
<g id="a_node5"><a xlink:href="heatshrink_8c.html#a3c04138a5bfe5d72780bb7e82a18e627" target="_top" xlink:title="main">
<polygon fill="white" stroke="black" points="720.5,-1022.5 720.5,-1041.5 758.5,-1041.5 758.5,-1022.5 720.5,-1022.5"/>
<text text-anchor="middle" x="739.5" y="-1029.5" font-family="Helvetica,sans-Serif" font-size="10.00">main</text>
</a>
</g>
</g>
<!-- Node324&#45;&gt;Node325 -->
<g id="edge4" class="edge"><title>Node324&#45;&gt;Node325</title>
<path fill="none" stroke="midnightblue" d="M625.47,-1032C654.981,-1032 696.857,-1032 720.475,-1032"/>
<polygon fill="midnightblue" stroke="midnightblue" points="625.213,-1028.5 615.213,-1032 625.213,-1035.5 625.213,-1028.5"/>
</g>
<!-- Node327 -->
<g id="node7" class="node"><title>Node327</title>
<g id="a_node7"><a xlink:href="test__heatshrink__dynamic_8c.html#adc66afa12a5eaae0cd12d5cc497f0f67" target="_top" xlink:title="SUITE">
<polygon fill="white" stroke="black" points="567.5,-674.5 567.5,-693.5 614.5,-693.5 614.5,-674.5 567.5,-674.5"/>
<text text-anchor="middle" x="591" y="-681.5" font-family="Helvetica,sans-Serif" font-size="10.00">SUITE</text>
</a>
</g>
</g>
<!-- Node326&#45;&gt;Node327 -->
<g id="edge6" class="edge"><title>Node326&#45;&gt;Node327</title>
<path fill="none" stroke="midnightblue" d="M458.094,-969.988C460.889,-968.179 463.544,-966.19 466,-964 553.907,-885.643 582.524,-733.264 588.64,-693.616"/>
<polygon fill="midnightblue" stroke="midnightblue" points="456.36,-966.947 449.343,-974.886 459.779,-973.056 456.36,-966.947"/>
</g>
<!-- Node328&#45;&gt;Node327 -->
<g id="edge8" class="edge"><title>Node328&#45;&gt;Node327</title>
<path fill="none" stroke="midnightblue" d="M449.945,-924.23C455.706,-921.394 461.183,-918.017 466,-914 541.947,-850.66 578.466,-728.409 587.635,-693.512"/>
<polygon fill="midnightblue" stroke="midnightblue" points="448.478,-921.052 440.712,-928.259 451.278,-927.467 448.478,-921.052"/>
</g>
<!-- Node329&#45;&gt;Node327 -->
<g id="edge10" class="edge"><title>Node329&#45;&gt;Node327</title>
<path fill="none" stroke="midnightblue" d="M449.937,-864.135C455.614,-861.157 461.076,-857.791 466,-854 527.079,-806.981 571.711,-721.983 585.514,-693.553"/>
<polygon fill="midnightblue" stroke="midnightblue" points="448.373,-861.003 440.886,-868.499 451.414,-867.309 448.373,-861.003"/>
</g>
<!-- Node330&#45;&gt;Node327 -->
<g id="edge12" class="edge"><title>Node330&#45;&gt;Node327</title>
<path fill="none" stroke="midnightblue" d="M450.087,-802.553C455.594,-799.922 460.981,-797.067 466,-794 514.619,-764.287 562.208,-714.733 581.276,-693.805"/>
<polygon fill="midnightblue" stroke="midnightblue" points="448.423,-799.464 440.748,-806.768 451.302,-805.844 448.423,-799.464"/>
</g>
<!-- Node331&#45;&gt;Node327 -->
<g id="edge14" class="edge"><title>Node331&#45;&gt;Node327</title>
<path fill="none" stroke="midnightblue" d="M448.166,-750.704C454.231,-748.556 460.266,-746.305 466,-744 504.831,-728.387 548.518,-706.082 572.276,-693.53"/>
<polygon fill="midnightblue" stroke="midnightblue" points="446.964,-747.416 438.651,-753.985 449.246,-754.033 446.964,-747.416"/>
</g>
<!-- Node332&#45;&gt;Node327 -->
<g id="edge16" class="edge"><title>Node332&#45;&gt;Node327</title>
<path fill="none" stroke="midnightblue" d="M452.864,-704.468C491.992,-698.628 539.703,-691.507 567.293,-687.389"/>
<polygon fill="midnightblue" stroke="midnightblue" points="451.974,-701.062 442.6,-706 453.007,-707.985 451.974,-701.062"/>
</g>
<!-- Node333&#45;&gt;Node327 -->
<g id="edge18" class="edge"><title>Node333&#45;&gt;Node327</title>
<path fill="none" stroke="midnightblue" d="M476.383,-667.042C509.654,-672.008 544.877,-677.265 567.126,-680.586"/>
<polygon fill="midnightblue" stroke="midnightblue" points="476.544,-663.528 466.137,-665.513 475.511,-670.451 476.544,-663.528"/>
</g>
<!-- Node334&#45;&gt;Node327 -->
<g id="edge20" class="edge"><title>Node334&#45;&gt;Node327</title>
<path fill="none" stroke="midnightblue" d="M454.273,-618.444C458.244,-620.319 462.177,-622.182 466,-624 502.93,-641.567 545.851,-662.436 570.281,-674.358"/>
<polygon fill="midnightblue" stroke="midnightblue" points="455.513,-615.159 444.975,-614.064 452.53,-621.492 455.513,-615.159"/>
</g>
<!-- Node335&#45;&gt;Node327 -->
<g id="edge22" class="edge"><title>Node335&#45;&gt;Node327</title>
<path fill="none" stroke="midnightblue" d="M460.901,-548.519C462.641,-549.653 464.344,-550.813 466,-552 518.143,-589.354 565.924,-650.996 583.184,-674.497"/>
<polygon fill="midnightblue" stroke="midnightblue" points="462.305,-545.276 451.943,-543.071 458.669,-551.257 462.305,-545.276"/>
</g>
<!-- Node336&#45;&gt;Node327 -->
<g id="edge24" class="edge"><title>Node336&#45;&gt;Node327</title>
<path fill="none" stroke="midnightblue" d="M457.698,-474.453C460.606,-476.51 463.392,-478.692 466,-481 483.047,-496.089 562.722,-635.788 584.491,-674.242"/>
<polygon fill="midnightblue" stroke="midnightblue" points="459.523,-471.465 449.224,-468.978 455.724,-477.345 459.523,-471.465"/>
</g>
<!-- Node337&#45;&gt;Node327 -->
<g id="edge26" class="edge"><title>Node337&#45;&gt;Node327</title>
<path fill="none" stroke="midnightblue" d="M453.595,-400.5C458.132,-403.154 462.348,-406.292 466,-410 505.67,-450.278 479.68,-480.059 502,-532 526.439,-588.871 567.454,-651.126 583.389,-674.465"/>
<polygon fill="midnightblue" stroke="midnightblue" points="455.044,-397.312 444.535,-395.969 451.913,-403.572 455.044,-397.312"/>
</g>
<!-- Node338&#45;&gt;Node327 -->
<g id="edge28" class="edge"><title>Node338&#45;&gt;Node327</title>
<path fill="none" stroke="midnightblue" d="M464.516,-359.225C465.023,-359.807 465.518,-360.399 466,-361 514.584,-421.594 474.194,-459.482 502,-532 524.052,-589.512 566.094,-650.901 582.849,-674.241"/>
<polygon fill="midnightblue" stroke="midnightblue" points="466.92,-356.68 457.318,-352.202 462.031,-361.691 466.92,-356.68"/>
</g>
<!-- Node340 -->
<g id="node20" class="node"><title>Node340</title>
<g id="a_node20"><a xlink:href="test__heatshrink__dynamic_8c.html#a9d63746ee6a963338d09b8a19da82529" target="_top" xlink:title="data_without_duplication\l_should_match">
<polygon fill="white" stroke="black" points="529,-493 529,-523 653,-523 653,-493 529,-493"/>
<text text-anchor="start" x="537" y="-511" font-family="Helvetica,sans-Serif" font-size="10.00">data_without_duplication</text>
<text text-anchor="middle" x="591" y="-500" font-family="Helvetica,sans-Serif" font-size="10.00">_should_match</text>
</a>
</g>
</g>
<!-- Node339&#45;&gt;Node340 -->
<g id="edge30" class="edge"><title>Node339&#45;&gt;Node340</title>
<path fill="none" stroke="midnightblue" d="M455.52,-281.055C459.383,-283.592 462.935,-286.551 466,-290 523.963,-355.223 443.215,-418.516 502,-483 509.169,-490.864 518.613,-496.324 528.651,-500.1"/>
<polygon fill="midnightblue" stroke="midnightblue" points="457.082,-277.919 446.637,-276.145 453.696,-284.046 457.082,-277.919"/>
</g>
<!-- Node342 -->
<g id="node22" class="node"><title>Node342</title>
<g id="a_node22"><a xlink:href="test__heatshrink__dynamic_8c.html#ae9d1425d6c89a652b9df2b4ddc7ac2a2" target="_top" xlink:title="data_with_simple_repetition\l_should_compress_and_decompress\l_properly">
<polygon fill="white" stroke="black" points="502,-432.5 502,-473.5 680,-473.5 680,-432.5 502,-432.5"/>
<text text-anchor="start" x="510" y="-461.5" font-family="Helvetica,sans-Serif" font-size="10.00">data_with_simple_repetition</text>
<text text-anchor="start" x="510" y="-450.5" font-family="Helvetica,sans-Serif" font-size="10.00">_should_compress_and_decompress</text>
<text text-anchor="middle" x="591" y="-439.5" font-family="Helvetica,sans-Serif" font-size="10.00">_properly</text>
</a>
</g>
</g>
<!-- Node339&#45;&gt;Node342 -->
<g id="edge32" class="edge"><title>Node339&#45;&gt;Node342</title>
<path fill="none" stroke="midnightblue" d="M455.412,-281.477C459.27,-283.916 462.853,-286.737 466,-290 508.22,-333.763 460.587,-377.472 502,-422 505.64,-425.914 509.804,-429.334 514.297,-432.323"/>
<polygon fill="midnightblue" stroke="midnightblue" points="457.053,-278.386 446.59,-276.724 453.733,-284.548 457.053,-278.386"/>
</g>
<!-- Node343 -->
<g id="node23" class="node"><title>Node343</title>
<g id="a_node23"><a xlink:href="test__heatshrink__dynamic_8c.html#a60c0e0c5bbb9715c7932ee82e706752d" target="_top" xlink:title="pseudorandom_data_should\l_match">
<polygon fill="white" stroke="black" points="522,-383 522,-413 660,-413 660,-383 522,-383"/>
<text text-anchor="start" x="530" y="-401" font-family="Helvetica,sans-Serif" font-size="10.00">pseudorandom_data_should</text>
<text text-anchor="middle" x="591" y="-390" font-family="Helvetica,sans-Serif" font-size="10.00">_match</text>
</a>
</g>
</g>
<!-- Node339&#45;&gt;Node343 -->
<g id="edge34" class="edge"><title>Node339&#45;&gt;Node343</title>
<path fill="none" stroke="midnightblue" d="M455.632,-282.443C459.339,-284.652 462.836,-287.158 466,-290 495.913,-316.87 471.749,-346.512 502,-373 507.855,-378.127 514.693,-382.207 521.922,-385.453"/>
<polygon fill="midnightblue" stroke="midnightblue" points="457.151,-279.289 446.66,-277.809 453.938,-285.508 457.151,-279.289"/>
</g>
<!-- Node344 -->
<g id="node24" class="node"><title>Node344</title>
<g id="a_node24"><a xlink:href="test__heatshrink__dynamic_8c.html#a20e1a72bba941f0c602b93b53d32d5db" target="_top" xlink:title="small_input_buffer\l_should_not_impact_decoder\l_correctness">
<polygon fill="white" stroke="black" points="519.5,-322.5 519.5,-363.5 662.5,-363.5 662.5,-322.5 519.5,-322.5"/>
<text text-anchor="start" x="527.5" y="-351.5" font-family="Helvetica,sans-Serif" font-size="10.00">small_input_buffer</text>
<text text-anchor="start" x="527.5" y="-340.5" font-family="Helvetica,sans-Serif" font-size="10.00">_should_not_impact_decoder</text>
<text text-anchor="middle" x="591" y="-329.5" font-family="Helvetica,sans-Serif" font-size="10.00">_correctness</text>
</a>
</g>
</g>
<!-- Node339&#45;&gt;Node344 -->
<g id="edge36" class="edge"><title>Node339&#45;&gt;Node344</title>
<path fill="none" stroke="midnightblue" d="M453.164,-284.663C457.554,-286.348 461.871,-288.129 466,-290 483.08,-297.737 485.064,-303.952 502,-312 509.754,-315.685 518.069,-319.173 526.381,-322.387"/>
<polygon fill="midnightblue" stroke="midnightblue" points="454.074,-281.27 443.48,-281.133 451.676,-287.846 454.074,-281.27"/>
</g>
<!-- Node345 -->
<g id="node25" class="node"><title>Node345</title>
<g id="a_node25"><a xlink:href="test__heatshrink__dynamic_8c.html#a462faeb904a3de1b1e009a04f7d171d8" target="_top" xlink:title="regression_backreference\l_counters_should_not_roll_over">
<polygon fill="white" stroke="black" points="514,-273 514,-303 668,-303 668,-273 514,-273"/>
<text text-anchor="start" x="522" y="-291" font-family="Helvetica,sans-Serif" font-size="10.00">regression_backreference</text>
<text text-anchor="middle" x="591" y="-280" font-family="Helvetica,sans-Serif" font-size="10.00">_counters_should_not_roll_over</text>
</a>
</g>
</g>
<!-- Node339&#45;&gt;Node345 -->
<g id="edge38" class="edge"><title>Node339&#45;&gt;Node345</title>
<path fill="none" stroke="midnightblue" d="M456.591,-273.398C474.915,-275.404 494.878,-277.589 513.648,-279.643"/>
<polygon fill="midnightblue" stroke="midnightblue" points="456.92,-269.913 446.599,-272.304 456.158,-276.872 456.92,-269.913"/>
</g>
<!-- Node346 -->
<g id="node26" class="node"><title>Node346</title>
<g id="a_node26"><a xlink:href="test__heatshrink__dynamic_8c.html#a2ed8ea21768d114fa96b07eb58475663" target="_top" xlink:title="regression_index_fail">
<polygon fill="white" stroke="black" points="537,-234.5 537,-253.5 645,-253.5 645,-234.5 537,-234.5"/>
<text text-anchor="middle" x="591" y="-241.5" font-family="Helvetica,sans-Serif" font-size="10.00">regression_index_fail</text>
</a>
</g>
</g>
<!-- Node339&#45;&gt;Node346 -->
<g id="edge40" class="edge"><title>Node339&#45;&gt;Node346</title>
<path fill="none" stroke="midnightblue" d="M456.803,-258.579C482.916,-255.721 512.334,-252.501 536.868,-249.815"/>
<polygon fill="midnightblue" stroke="midnightblue" points="456.158,-255.128 446.599,-259.696 456.92,-262.087 456.158,-255.128"/>
</g>
<!-- Node347 -->
<g id="node27" class="node"><title>Node347</title>
<g id="a_node27"><a xlink:href="test__heatshrink__dynamic_8c.html#a1bfe72da903d55a8610433a4f2a60d43" target="_top" xlink:title="sixty_four_k">
<polygon fill="white" stroke="black" points="556,-196.5 556,-215.5 626,-215.5 626,-196.5 556,-196.5"/>
<text text-anchor="middle" x="591" y="-203.5" font-family="Helvetica,sans-Serif" font-size="10.00">sixty_four_k</text>
</a>
</g>
</g>
<!-- Node339&#45;&gt;Node347 -->
<g id="edge42" class="edge"><title>Node339&#45;&gt;Node347</title>
<path fill="none" stroke="midnightblue" d="M436.05,-247.313C456.161,-239.749 480.026,-231.327 502,-225 519.573,-219.94 539.464,-215.537 555.884,-212.246"/>
<polygon fill="midnightblue" stroke="midnightblue" points="434.606,-244.118 426.504,-250.945 437.095,-250.661 434.606,-244.118"/>
</g>
<!-- Node341 -->
<g id="node21" class="node"><title>Node341</title>
<g id="a_node21"><a xlink:href="test__heatshrink__dynamic_8c.html#a2f157eb23cb17a496326c14e12933b3b" target="_top" xlink:title="SUITE">
<polygon fill="white" stroke="black" points="716,-278.5 716,-297.5 763,-297.5 763,-278.5 716,-278.5"/>
<text text-anchor="middle" x="739.5" y="-285.5" font-family="Helvetica,sans-Serif" font-size="10.00">SUITE</text>
</a>
</g>
</g>
<!-- Node340&#45;&gt;Node341 -->
<g id="edge31" class="edge"><title>Node340&#45;&gt;Node341</title>
<path fill="none" stroke="midnightblue" d="M662.706,-495.128C669.065,-491.924 674.984,-487.943 680,-483 733.875,-429.909 738.557,-329.315 738.643,-297.737"/>
<polygon fill="midnightblue" stroke="midnightblue" points="660.908,-492.093 653.13,-499.287 663.697,-498.514 660.908,-492.093"/>
</g>
<!-- Node342&#45;&gt;Node341 -->
<g id="edge33" class="edge"><title>Node342&#45;&gt;Node341</title>
<path fill="none" stroke="midnightblue" d="M674.544,-426.594C676.441,-425.143 678.265,-423.613 680,-422 718.113,-386.57 732.699,-321.956 736.998,-297.617"/>
<polygon fill="midnightblue" stroke="midnightblue" points="672.155,-423.982 665.806,-432.463 676.059,-429.792 672.155,-423.982"/>
</g>
<!-- Node343&#45;&gt;Node341 -->
<g id="edge35" class="edge"><title>Node343&#45;&gt;Node341</title>
<path fill="none" stroke="midnightblue" d="M669.148,-379.65C672.943,-377.657 676.588,-375.448 680,-373 707.945,-352.948 726.879,-315.161 734.599,-297.521"/>
<polygon fill="midnightblue" stroke="midnightblue" points="667.625,-376.499 660.063,-383.92 670.602,-382.834 667.625,-376.499"/>
</g>
<!-- Node344&#45;&gt;Node341 -->
<g id="edge37" class="edge"><title>Node344&#45;&gt;Node341</title>
<path fill="none" stroke="midnightblue" d="M661.592,-318.852C667.831,-316.576 674.04,-314.271 680,-312 691.9,-307.466 705.027,-302.114 715.825,-297.615"/>
<polygon fill="midnightblue" stroke="midnightblue" points="660.007,-315.703 651.793,-322.395 662.387,-322.286 660.007,-315.703"/>
</g>
<!-- Node345&#45;&gt;Node341 -->
<g id="edge39" class="edge"><title>Node345&#45;&gt;Node341</title>
<path fill="none" stroke="midnightblue" d="M678.383,-288C692.178,-288 705.331,-288 715.796,-288"/>
<polygon fill="midnightblue" stroke="midnightblue" points="678.254,-284.5 668.254,-288 678.254,-291.5 678.254,-284.5"/>
</g>
<!-- Node346&#45;&gt;Node341 -->
<g id="edge41" class="edge"><title>Node346&#45;&gt;Node341</title>
<path fill="none" stroke="midnightblue" d="M653.964,-255.814C662.775,-257.946 671.668,-260.347 680,-263 693.26,-267.222 707.639,-273.344 718.823,-278.473"/>
<polygon fill="midnightblue" stroke="midnightblue" points="654.618,-252.373 644.085,-253.522 653.035,-259.192 654.618,-252.373"/>
</g>
<!-- Node347&#45;&gt;Node341 -->
<g id="edge43" class="edge"><title>Node347&#45;&gt;Node341</title>
<path fill="none" stroke="midnightblue" d="M636.199,-210.161C650.836,-212.908 666.757,-217.461 680,-225 703.348,-238.292 722.784,-264.038 732.267,-278.154"/>
<polygon fill="midnightblue" stroke="midnightblue" points="636.755,-206.706 626.319,-208.533 635.617,-213.612 636.755,-206.706"/>
</g>
<!-- Node348&#45;&gt;Node341 -->
<g id="edge45" class="edge"><title>Node348&#45;&gt;Node341</title>
<path fill="none" stroke="midnightblue" d="M674.304,-182.724C676.272,-184.078 678.175,-185.503 680,-187 710.859,-212.323 728.867,-258.482 735.528,-278.414"/>
<polygon fill="midnightblue" stroke="midnightblue" points="675.672,-179.457 665.316,-177.22 672.017,-185.427 675.672,-179.457"/>
</g>
<!-- Node349&#45;&gt;Node341 -->
<g id="edge47" class="edge"><title>Node349&#45;&gt;Node341</title>
<path fill="none" stroke="midnightblue" d="M673.908,-121.71C676.045,-123.361 678.084,-125.122 680,-127 724.387,-170.509 735.29,-250.286 737.797,-278.112"/>
<polygon fill="midnightblue" stroke="midnightblue" points="675.481,-118.549 665.23,-115.873 671.574,-124.358 675.481,-118.549"/>
</g>
<!-- Node351 -->
<g id="node31" class="node"><title>Node351</title>
<g id="a_node31"><a xlink:href="httpdespfs_8h.html#aa502116e50052d973b6eef02a6282dd3" target="_top" xlink:title="cgiEspFsHook">
<polygon fill="white" stroke="black" points="550.5,-38.5 550.5,-57.5 631.5,-57.5 631.5,-38.5 550.5,-38.5"/>
<text text-anchor="middle" x="591" y="-45.5" font-family="Helvetica,sans-Serif" font-size="10.00">cgiEspFsHook</text>
</a>
</g>
</g>
<!-- Node350&#45;&gt;Node351 -->
<g id="edge49" class="edge"><title>Node350&#45;&gt;Node351</title>
<path fill="none" stroke="midnightblue" d="M432.142,-48C467.206,-48 516.274,-48 550.36,-48"/>
<polygon fill="midnightblue" stroke="midnightblue" points="431.742,-44.5001 421.741,-48 431.741,-51.5001 431.742,-44.5001"/>
</g>
<!-- Node352 -->
<g id="node32" class="node"><title>Node352</title>
<g id="a_node32"><a xlink:href="httpdespfs_8h.html#abc9eb26f247094e9fc41db897f6ec030" target="_top" xlink:title="cgiEspFsTemplate">
<polygon fill="white" stroke="black" points="542,-0.5 542,-19.5 640,-19.5 640,-0.5 542,-0.5"/>
<text text-anchor="middle" x="591" y="-7.5" font-family="Helvetica,sans-Serif" font-size="10.00">cgiEspFsTemplate</text>
</a>
</g>
</g>
<!-- Node350&#45;&gt;Node352 -->
<g id="edge50" class="edge"><title>Node350&#45;&gt;Node352</title>
<path fill="none" stroke="midnightblue" d="M431.771,-39.914C464.051,-33.8112 508.355,-25.4355 541.872,-19.0987"/>
<polygon fill="midnightblue" stroke="midnightblue" points="430.917,-36.5133 421.741,-41.8101 432.218,-43.3914 430.917,-36.5133"/>
</g>
</g>
</svg>
