<?xml version="1.0" encoding="UTF-8" standalone="no"?>
<!DOCTYPE svg PUBLIC "-//W3C//DTD SVG 1.1//EN"
 "http://www.w3.org/Graphics/SVG/1.1/DTD/svg11.dtd">
<!-- Generated by graphviz version 2.38.0 (20140413.2041)
 -->
<!-- Title: st_yield_literal Pages: 1 -->
<svg width="734pt" height="1050pt"
 viewBox="0.00 0.00 734.00 1050.00" xmlns="http://www.w3.org/2000/svg" xmlns:xlink="http://www.w3.org/1999/xlink">
<g id="graph0" class="graph" transform="scale(1 1) rotate(0) translate(4 1046)">
<title>st_yield_literal</title>
<polygon fill="white" stroke="none" points="-4,4 -4,-1046 730,-1046 730,4 -4,4"/>
<!-- Node525 -->
<g id="node1" class="node"><title>Node525</title>
<polygon fill="#bfbfbf" stroke="black" points="0,-578.5 0,-597.5 79,-597.5 79,-578.5 0,-578.5"/>
<text text-anchor="middle" x="39.5" y="-585.5" font-family="Helvetica,sans-Serif" font-size="10.00">st_yield_literal</text>
</g>
<!-- Node526 -->
<g id="node2" class="node"><title>Node526</title>
<g id="a_node2"><a xlink:href="heatshrink__decoder_8h.html#a38406b03b9df8b993c6a3fa144675627" target="_top" xlink:title="heatshrink_decoder_poll">
<polygon fill="white" stroke="black" points="115,-578.5 115,-597.5 237,-597.5 237,-578.5 115,-578.5"/>
<text text-anchor="middle" x="176" y="-585.5" font-family="Helvetica,sans-Serif" font-size="10.00">heatshrink_decoder_poll</text>
</a>
</g>
</g>
<!-- Node525&#45;&gt;Node526 -->
<g id="edge1" class="edge"><title>Node525&#45;&gt;Node526</title>
<path fill="none" stroke="midnightblue" d="M89.3,-588C97.6032,-588 106.313,-588 114.868,-588"/>
<polygon fill="midnightblue" stroke="midnightblue" points="89.0423,-584.5 79.0423,-588 89.0423,-591.5 89.0423,-584.5"/>
</g>
<!-- Node527 -->
<g id="node3" class="node"><title>Node527</title>
<g id="a_node3"><a xlink:href="heatshrink_8c.html#a3f2b305cf4f4bf560265d00373a78bdd" target="_top" xlink:title="decoder_sink_read">
<polygon fill="white" stroke="black" points="302,-1022.5 302,-1041.5 400,-1041.5 400,-1022.5 302,-1022.5"/>
<text text-anchor="middle" x="351" y="-1029.5" font-family="Helvetica,sans-Serif" font-size="10.00">decoder_sink_read</text>
</a>
</g>
</g>
<!-- Node526&#45;&gt;Node527 -->
<g id="edge2" class="edge"><title>Node526&#45;&gt;Node527</title>
<path fill="none" stroke="midnightblue" d="M178.732,-607.612C185.792,-683.104 214.821,-953.66 273,-1013 280.712,-1020.87 291.123,-1025.67 301.794,-1028.56"/>
<polygon fill="midnightblue" stroke="midnightblue" points="182.212,-607.224 177.818,-597.583 175.24,-607.859 182.212,-607.224"/>
</g>
<!-- Node530 -->
<g id="node6" class="node"><title>Node530</title>
<g id="a_node6"><a xlink:href="test__heatshrink__dynamic_8c.html#a89837d79f51959fccccd28df0356fe37" target="_top" xlink:title="decoder_poll_should\l_return_empty_if_empty">
<polygon fill="white" stroke="black" points="290,-973 290,-1003 412,-1003 412,-973 290,-973"/>
<text text-anchor="start" x="298" y="-991" font-family="Helvetica,sans-Serif" font-size="10.00">decoder_poll_should</text>
<text text-anchor="middle" x="351" y="-980" font-family="Helvetica,sans-Serif" font-size="10.00">_return_empty_if_empty</text>
</a>
</g>
</g>
<!-- Node526&#45;&gt;Node530 -->
<g id="edge5" class="edge"><title>Node526&#45;&gt;Node530</title>
<path fill="none" stroke="midnightblue" d="M179.511,-607.903C188.713,-677.846 222.695,-911 273,-964 277.723,-968.976 283.46,-972.927 289.648,-976.062"/>
<polygon fill="midnightblue" stroke="midnightblue" points="182.958,-607.267 178.206,-597.798 176.016,-608.164 182.958,-607.267"/>
</g>
<!-- Node532 -->
<g id="node8" class="node"><title>Node532</title>
<g id="a_node8"><a xlink:href="test__heatshrink__dynamic_8c.html#a289dd3f831fdabb987c0d206e5cf13d5" target="_top" xlink:title="decoder_poll_should\l_reject_null_hsd">
<polygon fill="white" stroke="black" points="298.5,-924 298.5,-954 403.5,-954 403.5,-924 298.5,-924"/>
<text text-anchor="start" x="306.5" y="-942" font-family="Helvetica,sans-Serif" font-size="10.00">decoder_poll_should</text>
<text text-anchor="middle" x="351" y="-931" font-family="Helvetica,sans-Serif" font-size="10.00">_reject_null_hsd</text>
</a>
</g>
</g>
<!-- Node526&#45;&gt;Node532 -->
<g id="edge7" class="edge"><title>Node526&#45;&gt;Node532</title>
<path fill="none" stroke="midnightblue" d="M176.824,-607.892C177.43,-664.067 186.964,-825.561 273,-914 279.958,-921.153 288.98,-926.261 298.385,-929.909"/>
<polygon fill="midnightblue" stroke="midnightblue" points="180.323,-607.561 176.805,-597.567 173.323,-607.574 180.323,-607.561"/>
</g>
<!-- Node533 -->
<g id="node9" class="node"><title>Node533</title>
<g id="a_node9"><a xlink:href="test__heatshrink__dynamic_8c.html#af707dda355411d96de31c8bdaa687108" target="_top" xlink:title="decoder_poll_should\l_reject_null_output\l_buffer">
<polygon fill="white" stroke="black" points="298.5,-863.5 298.5,-904.5 403.5,-904.5 403.5,-863.5 298.5,-863.5"/>
<text text-anchor="start" x="306.5" y="-892.5" font-family="Helvetica,sans-Serif" font-size="10.00">decoder_poll_should</text>
<text text-anchor="start" x="306.5" y="-881.5" font-family="Helvetica,sans-Serif" font-size="10.00">_reject_null_output</text>
<text text-anchor="middle" x="351" y="-870.5" font-family="Helvetica,sans-Serif" font-size="10.00">_buffer</text>
</a>
</g>
</g>
<!-- Node526&#45;&gt;Node533 -->
<g id="edge9" class="edge"><title>Node526&#45;&gt;Node533</title>
<path fill="none" stroke="midnightblue" d="M178.643,-607.825C183.695,-656.363 203.188,-782.409 273,-854 280.011,-861.19 288.946,-866.691 298.227,-870.889"/>
<polygon fill="midnightblue" stroke="midnightblue" points="182.113,-607.34 177.688,-597.714 175.144,-607.998 182.113,-607.34"/>
</g>
<!-- Node534 -->
<g id="node10" class="node"><title>Node534</title>
<g id="a_node10"><a xlink:href="test__heatshrink__dynamic_8c.html#a0e70f90b221a1bee860235c1ad79f7f8" target="_top" xlink:title="decoder_poll_should\l_reject_null_output\l_size_pointer">
<polygon fill="white" stroke="black" points="298.5,-803.5 298.5,-844.5 403.5,-844.5 403.5,-803.5 298.5,-803.5"/>
<text text-anchor="start" x="306.5" y="-832.5" font-family="Helvetica,sans-Serif" font-size="10.00">decoder_poll_should</text>
<text text-anchor="start" x="306.5" y="-821.5" font-family="Helvetica,sans-Serif" font-size="10.00">_reject_null_output</text>
<text text-anchor="middle" x="351" y="-810.5" font-family="Helvetica,sans-Serif" font-size="10.00">_size_pointer</text>
</a>
</g>
</g>
<!-- Node526&#45;&gt;Node534 -->
<g id="edge11" class="edge"><title>Node526&#45;&gt;Node534</title>
<path fill="none" stroke="midnightblue" d="M180.977,-607.604C190.139,-647.959 216.428,-740.968 273,-794 280.222,-800.77 289.145,-806.07 298.327,-810.201"/>
<polygon fill="midnightblue" stroke="midnightblue" points="184.369,-606.73 178.836,-597.695 177.527,-608.208 184.369,-606.73"/>
</g>
<!-- Node535 -->
<g id="node11" class="node"><title>Node535</title>
<g id="a_node11"><a xlink:href="test__heatshrink__dynamic_8c.html#afb5cdb53efe5dca1a7a785f344a03655" target="_top" xlink:title="decoder_poll_should\l_expand_short_literal">
<polygon fill="white" stroke="black" points="296.5,-754 296.5,-784 405.5,-784 405.5,-754 296.5,-754"/>
<text text-anchor="start" x="304.5" y="-772" font-family="Helvetica,sans-Serif" font-size="10.00">decoder_poll_should</text>
<text text-anchor="middle" x="351" y="-761" font-family="Helvetica,sans-Serif" font-size="10.00">_expand_short_literal</text>
</a>
</g>
</g>
<!-- Node526&#45;&gt;Node535 -->
<g id="edge13" class="edge"><title>Node526&#45;&gt;Node535</title>
<path fill="none" stroke="midnightblue" d="M183.821,-607.468C196.335,-640.392 226.067,-707.081 273,-744 279.849,-749.388 287.897,-753.632 296.161,-756.971"/>
<polygon fill="midnightblue" stroke="midnightblue" points="186.964,-605.874 180.237,-597.689 180.392,-608.282 186.964,-605.874"/>
</g>
<!-- Node536 -->
<g id="node12" class="node"><title>Node536</title>
<g id="a_node12"><a xlink:href="test__heatshrink__dynamic_8c.html#a5f3328adb18355964bab2a3f026f4707" target="_top" xlink:title="decoder_poll_should\l_expand_short_literal\l_and_backref">
<polygon fill="white" stroke="black" points="296.5,-693.5 296.5,-734.5 405.5,-734.5 405.5,-693.5 296.5,-693.5"/>
<text text-anchor="start" x="304.5" y="-722.5" font-family="Helvetica,sans-Serif" font-size="10.00">decoder_poll_should</text>
<text text-anchor="start" x="304.5" y="-711.5" font-family="Helvetica,sans-Serif" font-size="10.00">_expand_short_literal</text>
<text text-anchor="middle" x="351" y="-700.5" font-family="Helvetica,sans-Serif" font-size="10.00">_and_backref</text>
</a>
</g>
</g>
<!-- Node526&#45;&gt;Node536 -->
<g id="edge15" class="edge"><title>Node526&#45;&gt;Node536</title>
<path fill="none" stroke="midnightblue" d="M190.71,-605.617C207.937,-626.737 239.349,-662.027 273,-684 280.208,-688.706 288.266,-692.855 296.381,-696.448"/>
<polygon fill="midnightblue" stroke="midnightblue" points="193.408,-603.388 184.428,-597.766 187.943,-607.761 193.408,-603.388"/>
</g>
<!-- Node537 -->
<g id="node13" class="node"><title>Node537</title>
<g id="a_node13"><a xlink:href="test__heatshrink__dynamic_8c.html#a5f04d534aa5ff2bc1fb218feea741774" target="_top" xlink:title="decoder_poll_should\l_expand_short_self_overlapping\l_backref">
<polygon fill="white" stroke="black" points="273,-633.5 273,-674.5 429,-674.5 429,-633.5 273,-633.5"/>
<text text-anchor="start" x="281" y="-662.5" font-family="Helvetica,sans-Serif" font-size="10.00">decoder_poll_should</text>
<text text-anchor="start" x="281" y="-651.5" font-family="Helvetica,sans-Serif" font-size="10.00">_expand_short_self_overlapping</text>
<text text-anchor="middle" x="351" y="-640.5" font-family="Helvetica,sans-Serif" font-size="10.00">_backref</text>
</a>
</g>
</g>
<!-- Node526&#45;&gt;Node537 -->
<g id="edge17" class="edge"><title>Node526&#45;&gt;Node537</title>
<path fill="none" stroke="midnightblue" d="M211.637,-601.214C235.846,-610.45 268.648,-622.964 296.238,-633.49"/>
<polygon fill="midnightblue" stroke="midnightblue" points="212.746,-597.891 202.156,-597.597 210.251,-604.432 212.746,-597.891"/>
</g>
<!-- Node538 -->
<g id="node14" class="node"><title>Node538</title>
<g id="a_node14"><a xlink:href="test__heatshrink__dynamic_8c.html#aed41c11f7d13fb37749ce644efea3b76" target="_top" xlink:title="decoder_poll_should\l_suspend_if_out_of_space\l_in_output_buffer_during\l_literal_expansion">
<polygon fill="white" stroke="black" points="284.5,-562 284.5,-614 417.5,-614 417.5,-562 284.5,-562"/>
<text text-anchor="start" x="292.5" y="-602" font-family="Helvetica,sans-Serif" font-size="10.00">decoder_poll_should</text>
<text text-anchor="start" x="292.5" y="-591" font-family="Helvetica,sans-Serif" font-size="10.00">_suspend_if_out_of_space</text>
<text text-anchor="start" x="292.5" y="-580" font-family="Helvetica,sans-Serif" font-size="10.00">_in_output_buffer_during</text>
<text text-anchor="middle" x="351" y="-569" font-family="Helvetica,sans-Serif" font-size="10.00">_literal_expansion</text>
</a>
</g>
</g>
<!-- Node526&#45;&gt;Node538 -->
<g id="edge19" class="edge"><title>Node526&#45;&gt;Node538</title>
<path fill="none" stroke="midnightblue" d="M247.23,-588C259.537,-588 272.3,-588 284.474,-588"/>
<polygon fill="midnightblue" stroke="midnightblue" points="247.022,-584.5 237.021,-588 247.021,-591.5 247.022,-584.5"/>
</g>
<!-- Node539 -->
<g id="node15" class="node"><title>Node539</title>
<g id="a_node15"><a xlink:href="test__heatshrink__dynamic_8c.html#a4c76ed65aa09f4c123ed378507c3ddbb" target="_top" xlink:title="decoder_poll_should\l_suspend_if_out_of_space\l_in_output_buffer_during\l_backref_expansion">
<polygon fill="white" stroke="black" points="284.5,-491 284.5,-543 417.5,-543 417.5,-491 284.5,-491"/>
<text text-anchor="start" x="292.5" y="-531" font-family="Helvetica,sans-Serif" font-size="10.00">decoder_poll_should</text>
<text text-anchor="start" x="292.5" y="-520" font-family="Helvetica,sans-Serif" font-size="10.00">_suspend_if_out_of_space</text>
<text text-anchor="start" x="292.5" y="-509" font-family="Helvetica,sans-Serif" font-size="10.00">_in_output_buffer_during</text>
<text text-anchor="middle" x="351" y="-498" font-family="Helvetica,sans-Serif" font-size="10.00">_backref_expansion</text>
</a>
</g>
</g>
<!-- Node526&#45;&gt;Node539 -->
<g id="edge21" class="edge"><title>Node526&#45;&gt;Node539</title>
<path fill="none" stroke="midnightblue" d="M209.713,-574.574C231.355,-565.692 260.445,-553.754 286.523,-543.051"/>
<polygon fill="midnightblue" stroke="midnightblue" points="208.254,-571.39 200.332,-578.425 210.912,-577.866 208.254,-571.39"/>
</g>
<!-- Node540 -->
<g id="node16" class="node"><title>Node540</title>
<g id="a_node16"><a xlink:href="test__heatshrink__dynamic_8c.html#aaf61f9d548405f6ea0b9cc6d4dd86589" target="_top" xlink:title="decoder_poll_should\l_expand_short_literal\l_and_backref_when_fed\l_input_byte_by_byte">
<polygon fill="white" stroke="black" points="290,-420 290,-472 412,-472 412,-420 290,-420"/>
<text text-anchor="start" x="298" y="-460" font-family="Helvetica,sans-Serif" font-size="10.00">decoder_poll_should</text>
<text text-anchor="start" x="298" y="-449" font-family="Helvetica,sans-Serif" font-size="10.00">_expand_short_literal</text>
<text text-anchor="start" x="298" y="-438" font-family="Helvetica,sans-Serif" font-size="10.00">_and_backref_when_fed</text>
<text text-anchor="middle" x="351" y="-427" font-family="Helvetica,sans-Serif" font-size="10.00">_input_byte_by_byte</text>
</a>
</g>
</g>
<!-- Node526&#45;&gt;Node540 -->
<g id="edge23" class="edge"><title>Node526&#45;&gt;Node540</title>
<path fill="none" stroke="midnightblue" d="M189.488,-569.972C206.253,-546.85 238.007,-506.679 273,-481 278.209,-477.177 283.902,-473.635 289.759,-470.389"/>
<polygon fill="midnightblue" stroke="midnightblue" points="186.576,-568.027 183.631,-578.205 192.28,-572.085 186.576,-568.027"/>
</g>
<!-- Node541 -->
<g id="node17" class="node"><title>Node541</title>
<g id="a_node17"><a xlink:href="test__heatshrink__dynamic_8c.html#a1f5bd6590b5a6d8ae285c99739e59839" target="_top" xlink:title="decoder_finish_should\l_note_when_done">
<polygon fill="white" stroke="black" points="294.5,-371 294.5,-401 407.5,-401 407.5,-371 294.5,-371"/>
<text text-anchor="start" x="302.5" y="-389" font-family="Helvetica,sans-Serif" font-size="10.00">decoder_finish_should</text>
<text text-anchor="middle" x="351" y="-378" font-family="Helvetica,sans-Serif" font-size="10.00">_note_when_done</text>
</a>
</g>
</g>
<!-- Node526&#45;&gt;Node541 -->
<g id="edge25" class="edge"><title>Node526&#45;&gt;Node541</title>
<path fill="none" stroke="midnightblue" d="M182.224,-568.297C192.95,-531.661 220.939,-452.895 273,-410 279.268,-404.836 286.648,-400.78 294.315,-397.594"/>
<polygon fill="midnightblue" stroke="midnightblue" points="178.769,-567.654 179.442,-578.227 185.51,-569.542 178.769,-567.654"/>
</g>
<!-- Node542 -->
<g id="node18" class="node"><title>Node542</title>
<g id="a_node18"><a xlink:href="test__heatshrink__dynamic_8c.html#aeefae364c6a09c82a0228b02adf67236" target="_top" xlink:title="decoder_should_not\l_get_stuck_with_finish\l_yielding_MORE_but_0_bytes\l_output_from_poll">
<polygon fill="white" stroke="black" points="276.5,-300 276.5,-352 425.5,-352 425.5,-300 276.5,-300"/>
<text text-anchor="start" x="284.5" y="-340" font-family="Helvetica,sans-Serif" font-size="10.00">decoder_should_not</text>
<text text-anchor="start" x="284.5" y="-329" font-family="Helvetica,sans-Serif" font-size="10.00">_get_stuck_with_finish</text>
<text text-anchor="start" x="284.5" y="-318" font-family="Helvetica,sans-Serif" font-size="10.00">_yielding_MORE_but_0_bytes</text>
<text text-anchor="middle" x="351" y="-307" font-family="Helvetica,sans-Serif" font-size="10.00">_output_from_poll</text>
</a>
</g>
</g>
<!-- Node526&#45;&gt;Node542 -->
<g id="edge27" class="edge"><title>Node526&#45;&gt;Node542</title>
<path fill="none" stroke="midnightblue" d="M180.299,-568.452C188.486,-525.54 213.534,-422.065 273,-361 276.176,-357.739 279.712,-354.754 283.474,-352.027"/>
<polygon fill="midnightblue" stroke="midnightblue" points="176.829,-567.969 178.495,-578.432 183.718,-569.214 176.829,-567.969"/>
</g>
<!-- Node543 -->
<g id="node19" class="node"><title>Node543</title>
<g id="a_node19"><a xlink:href="test__heatshrink__dynamic_8c.html#ab9096be17a9dc8f301673949558e5bd6" target="_top" xlink:title="compress_and_expand\l_and_check">
<polygon fill="white" stroke="black" points="292.5,-251 292.5,-281 409.5,-281 409.5,-251 292.5,-251"/>
<text text-anchor="start" x="300.5" y="-269" font-family="Helvetica,sans-Serif" font-size="10.00">compress_and_expand</text>
<text text-anchor="middle" x="351" y="-258" font-family="Helvetica,sans-Serif" font-size="10.00">_and_check</text>
</a>
</g>
</g>
<!-- Node526&#45;&gt;Node543 -->
<g id="edge29" class="edge"><title>Node526&#45;&gt;Node543</title>
<path fill="none" stroke="midnightblue" d="M177.41,-568.351C179.595,-515.56 192.952,-369.291 273,-290 278.471,-284.58 285.146,-280.382 292.254,-277.129"/>
<polygon fill="midnightblue" stroke="midnightblue" points="173.91,-568.292 177.087,-578.399 180.907,-568.516 173.91,-568.292"/>
</g>
<!-- Node552 -->
<g id="node28" class="node"><title>Node552</title>
<g id="a_node28"><a xlink:href="test__heatshrink__dynamic_8c.html#a9a102029b8375d4050406a2814f390ac" target="_top" xlink:title="data_without_duplication\l_should_match_with_absurdly\l_tiny_buffers">
<polygon fill="white" stroke="black" points="480,-136.5 480,-177.5 628,-177.5 628,-136.5 480,-136.5"/>
<text text-anchor="start" x="488" y="-165.5" font-family="Helvetica,sans-Serif" font-size="10.00">data_without_duplication</text>
<text text-anchor="start" x="488" y="-154.5" font-family="Helvetica,sans-Serif" font-size="10.00">_should_match_with_absurdly</text>
<text text-anchor="middle" x="554" y="-143.5" font-family="Helvetica,sans-Serif" font-size="10.00">_tiny_buffers</text>
</a>
</g>
</g>
<!-- Node526&#45;&gt;Node552 -->
<g id="edge44" class="edge"><title>Node526&#45;&gt;Node552</title>
<path fill="none" stroke="midnightblue" d="M176.304,-568.289C175.356,-509.764 180.779,-335.23 273,-241 327.312,-185.505 416.718,-166.34 479.87,-159.901"/>
<polygon fill="midnightblue" stroke="midnightblue" points="172.808,-568.479 176.555,-578.389 179.805,-568.305 172.808,-568.479"/>
</g>
<!-- Node553 -->
<g id="node29" class="node"><title>Node553</title>
<g id="a_node29"><a xlink:href="test__heatshrink__dynamic_8c.html#acd64db79d79999a7c5436d35b74a7f40" target="_top" xlink:title="data_with_simple_repetition\l_should_match_with_absurdly\l_tiny_buffers">
<polygon fill="white" stroke="black" points="480,-76.5 480,-117.5 628,-117.5 628,-76.5 480,-76.5"/>
<text text-anchor="start" x="488" y="-105.5" font-family="Helvetica,sans-Serif" font-size="10.00">data_with_simple_repetition</text>
<text text-anchor="start" x="488" y="-94.5" font-family="Helvetica,sans-Serif" font-size="10.00">_should_match_with_absurdly</text>
<text text-anchor="middle" x="554" y="-83.5" font-family="Helvetica,sans-Serif" font-size="10.00">_tiny_buffers</text>
</a>
</g>
</g>
<!-- Node526&#45;&gt;Node553 -->
<g id="edge46" class="edge"><title>Node526&#45;&gt;Node553</title>
<path fill="none" stroke="midnightblue" d="M178.74,-568.473C185.826,-493.309 214.943,-223.938 273,-165 326.798,-110.385 416.527,-96.7899 479.888,-94.6751"/>
<polygon fill="midnightblue" stroke="midnightblue" points="175.252,-568.18 177.821,-578.459 182.222,-568.821 175.252,-568.18"/>
</g>
<!-- Node554 -->
<g id="node30" class="node"><title>Node554</title>
<g id="a_node30"><a xlink:href="espfs_8h.html#adb43e859351bc07f175ccc5e29ee6950" target="_top" xlink:title="espFsRead">
<polygon fill="white" stroke="black" points="317.5,-38.5 317.5,-57.5 384.5,-57.5 384.5,-38.5 317.5,-38.5"/>
<text text-anchor="middle" x="351" y="-45.5" font-family="Helvetica,sans-Serif" font-size="10.00">espFsRead</text>
</a>
</g>
</g>
<!-- Node526&#45;&gt;Node554 -->
<g id="edge48" class="edge"><title>Node526&#45;&gt;Node554</title>
<path fill="none" stroke="midnightblue" d="M176.351,-568.088C175.01,-499.144 178.131,-266.293 273,-110 287.338,-86.3787 314.097,-67.9461 331.982,-57.5186"/>
<polygon fill="midnightblue" stroke="midnightblue" points="172.859,-568.453 176.611,-578.361 179.856,-568.276 172.859,-568.453"/>
</g>
<!-- Node528 -->
<g id="node4" class="node"><title>Node528</title>
<g id="a_node4"><a xlink:href="heatshrink_8c.html#a92d9515cb2f33eea4832becaa17c11bb" target="_top" xlink:title="decode">
<polygon fill="white" stroke="black" points="530,-1022.5 530,-1041.5 578,-1041.5 578,-1022.5 530,-1022.5"/>
<text text-anchor="middle" x="554" y="-1029.5" font-family="Helvetica,sans-Serif" font-size="10.00">decode</text>
</a>
</g>
</g>
<!-- Node527&#45;&gt;Node528 -->
<g id="edge3" class="edge"><title>Node527&#45;&gt;Node528</title>
<path fill="none" stroke="midnightblue" d="M410.282,-1032C450.127,-1032 500.792,-1032 529.793,-1032"/>
<polygon fill="midnightblue" stroke="midnightblue" points="410.145,-1028.5 400.145,-1032 410.144,-1035.5 410.145,-1028.5"/>
</g>
<!-- Node529 -->
<g id="node5" class="node"><title>Node529</title>
<g id="a_node5"><a xlink:href="heatshrink_8c.html#a3c04138a5bfe5d72780bb7e82a18e627" target="_top" xlink:title="main">
<polygon fill="white" stroke="black" points="683.5,-1022.5 683.5,-1041.5 721.5,-1041.5 721.5,-1022.5 683.5,-1022.5"/>
<text text-anchor="middle" x="702.5" y="-1029.5" font-family="Helvetica,sans-Serif" font-size="10.00">main</text>
</a>
</g>
</g>
<!-- Node528&#45;&gt;Node529 -->
<g id="edge4" class="edge"><title>Node528&#45;&gt;Node529</title>
<path fill="none" stroke="midnightblue" d="M588.47,-1032C617.981,-1032 659.857,-1032 683.475,-1032"/>
<polygon fill="midnightblue" stroke="midnightblue" points="588.213,-1028.5 578.213,-1032 588.213,-1035.5 588.213,-1028.5"/>
</g>
<!-- Node531 -->
<g id="node7" class="node"><title>Node531</title>
<g id="a_node7"><a xlink:href="test__heatshrink__dynamic_8c.html#adc66afa12a5eaae0cd12d5cc497f0f67" target="_top" xlink:title="SUITE">
<polygon fill="white" stroke="black" points="530.5,-674.5 530.5,-693.5 577.5,-693.5 577.5,-674.5 530.5,-674.5"/>
<text text-anchor="middle" x="554" y="-681.5" font-family="Helvetica,sans-Serif" font-size="10.00">SUITE</text>
</a>
</g>
</g>
<!-- Node530&#45;&gt;Node531 -->
<g id="edge6" class="edge"><title>Node530&#45;&gt;Node531</title>
<path fill="none" stroke="midnightblue" d="M421.094,-969.988C423.889,-968.179 426.544,-966.19 429,-964 516.907,-885.643 545.524,-733.264 551.64,-693.616"/>
<polygon fill="midnightblue" stroke="midnightblue" points="419.36,-966.947 412.343,-974.886 422.779,-973.056 419.36,-966.947"/>
</g>
<!-- Node532&#45;&gt;Node531 -->
<g id="edge8" class="edge"><title>Node532&#45;&gt;Node531</title>
<path fill="none" stroke="midnightblue" d="M412.945,-924.23C418.706,-921.394 424.183,-918.017 429,-914 504.947,-850.66 541.466,-728.409 550.635,-693.512"/>
<polygon fill="midnightblue" stroke="midnightblue" points="411.478,-921.052 403.712,-928.259 414.278,-927.467 411.478,-921.052"/>
</g>
<!-- Node533&#45;&gt;Node531 -->
<g id="edge10" class="edge"><title>Node533&#45;&gt;Node531</title>
<path fill="none" stroke="midnightblue" d="M412.937,-864.135C418.614,-861.157 424.076,-857.791 429,-854 490.079,-806.981 534.711,-721.983 548.514,-693.553"/>
<polygon fill="midnightblue" stroke="midnightblue" points="411.373,-861.003 403.886,-868.499 414.414,-867.309 411.373,-861.003"/>
</g>
<!-- Node534&#45;&gt;Node531 -->
<g id="edge12" class="edge"><title>Node534&#45;&gt;Node531</title>
<path fill="none" stroke="midnightblue" d="M413.087,-802.553C418.594,-799.922 423.981,-797.067 429,-794 477.619,-764.287 525.208,-714.733 544.276,-693.805"/>
<polygon fill="midnightblue" stroke="midnightblue" points="411.423,-799.464 403.748,-806.768 414.302,-805.844 411.423,-799.464"/>
</g>
<!-- Node535&#45;&gt;Node531 -->
<g id="edge14" class="edge"><title>Node535&#45;&gt;Node531</title>
<path fill="none" stroke="midnightblue" d="M411.166,-750.704C417.231,-748.556 423.266,-746.305 429,-744 467.831,-728.387 511.518,-706.082 535.276,-693.53"/>
<polygon fill="midnightblue" stroke="midnightblue" points="409.964,-747.416 401.651,-753.985 412.246,-754.033 409.964,-747.416"/>
</g>
<!-- Node536&#45;&gt;Node531 -->
<g id="edge16" class="edge"><title>Node536&#45;&gt;Node531</title>
<path fill="none" stroke="midnightblue" d="M415.864,-704.468C454.992,-698.628 502.703,-691.507 530.293,-687.389"/>
<polygon fill="midnightblue" stroke="midnightblue" points="414.974,-701.062 405.6,-706 416.007,-707.985 414.974,-701.062"/>
</g>
<!-- Node537&#45;&gt;Node531 -->
<g id="edge18" class="edge"><title>Node537&#45;&gt;Node531</title>
<path fill="none" stroke="midnightblue" d="M439.383,-667.042C472.654,-672.008 507.877,-677.265 530.126,-680.586"/>
<polygon fill="midnightblue" stroke="midnightblue" points="439.544,-663.528 429.137,-665.513 438.511,-670.451 439.544,-663.528"/>
</g>
<!-- Node538&#45;&gt;Node531 -->
<g id="edge20" class="edge"><title>Node538&#45;&gt;Node531</title>
<path fill="none" stroke="midnightblue" d="M417.273,-618.444C421.244,-620.319 425.177,-622.182 429,-624 465.93,-641.567 508.851,-662.436 533.281,-674.358"/>
<polygon fill="midnightblue" stroke="midnightblue" points="418.513,-615.159 407.975,-614.064 415.53,-621.492 418.513,-615.159"/>
</g>
<!-- Node539&#45;&gt;Node531 -->
<g id="edge22" class="edge"><title>Node539&#45;&gt;Node531</title>
<path fill="none" stroke="midnightblue" d="M423.901,-548.519C425.641,-549.653 427.344,-550.813 429,-552 481.143,-589.354 528.924,-650.996 546.184,-674.497"/>
<polygon fill="midnightblue" stroke="midnightblue" points="425.305,-545.276 414.943,-543.071 421.669,-551.257 425.305,-545.276"/>
</g>
<!-- Node540&#45;&gt;Node531 -->
<g id="edge24" class="edge"><title>Node540&#45;&gt;Node531</title>
<path fill="none" stroke="midnightblue" d="M420.698,-474.453C423.606,-476.51 426.392,-478.692 429,-481 446.047,-496.089 525.722,-635.788 547.491,-674.242"/>
<polygon fill="midnightblue" stroke="midnightblue" points="422.523,-471.465 412.224,-468.978 418.724,-477.345 422.523,-471.465"/>
</g>
<!-- Node541&#45;&gt;Node531 -->
<g id="edge26" class="edge"><title>Node541&#45;&gt;Node531</title>
<path fill="none" stroke="midnightblue" d="M416.595,-400.5C421.132,-403.154 425.348,-406.292 429,-410 468.67,-450.278 442.68,-480.059 465,-532 489.439,-588.871 530.454,-651.126 546.389,-674.465"/>
<polygon fill="midnightblue" stroke="midnightblue" points="418.044,-397.312 407.535,-395.969 414.913,-403.572 418.044,-397.312"/>
</g>
<!-- Node542&#45;&gt;Node531 -->
<g id="edge28" class="edge"><title>Node542&#45;&gt;Node531</title>
<path fill="none" stroke="midnightblue" d="M427.516,-359.225C428.023,-359.807 428.518,-360.399 429,-361 477.584,-421.594 437.194,-459.482 465,-532 487.052,-589.512 529.094,-650.901 545.849,-674.241"/>
<polygon fill="midnightblue" stroke="midnightblue" points="429.92,-356.68 420.318,-352.202 425.031,-361.691 429.92,-356.68"/>
</g>
<!-- Node544 -->
<g id="node20" class="node"><title>Node544</title>
<g id="a_node20"><a xlink:href="test__heatshrink__dynamic_8c.html#a9d63746ee6a963338d09b8a19da82529" target="_top" xlink:title="data_without_duplication\l_should_match">
<polygon fill="white" stroke="black" points="492,-493 492,-523 616,-523 616,-493 492,-493"/>
<text text-anchor="start" x="500" y="-511" font-family="Helvetica,sans-Serif" font-size="10.00">data_without_duplication</text>
<text text-anchor="middle" x="554" y="-500" font-family="Helvetica,sans-Serif" font-size="10.00">_should_match</text>
</a>
</g>
</g>
<!-- Node543&#45;&gt;Node544 -->
<g id="edge30" class="edge"><title>Node543&#45;&gt;Node544</title>
<path fill="none" stroke="midnightblue" d="M418.52,-281.055C422.383,-283.592 425.935,-286.551 429,-290 486.963,-355.223 406.215,-418.516 465,-483 472.169,-490.864 481.613,-496.324 491.651,-500.1"/>
<polygon fill="midnightblue" stroke="midnightblue" points="420.082,-277.919 409.637,-276.145 416.696,-284.046 420.082,-277.919"/>
</g>
<!-- Node546 -->
<g id="node22" class="node"><title>Node546</title>
<g id="a_node22"><a xlink:href="test__heatshrink__dynamic_8c.html#ae9d1425d6c89a652b9df2b4ddc7ac2a2" target="_top" xlink:title="data_with_simple_repetition\l_should_compress_and_decompress\l_properly">
<polygon fill="white" stroke="black" points="465,-432.5 465,-473.5 643,-473.5 643,-432.5 465,-432.5"/>
<text text-anchor="start" x="473" y="-461.5" font-family="Helvetica,sans-Serif" font-size="10.00">data_with_simple_repetition</text>
<text text-anchor="start" x="473" y="-450.5" font-family="Helvetica,sans-Serif" font-size="10.00">_should_compress_and_decompress</text>
<text text-anchor="middle" x="554" y="-439.5" font-family="Helvetica,sans-Serif" font-size="10.00">_properly</text>
</a>
</g>
</g>
<!-- Node543&#45;&gt;Node546 -->
<g id="edge32" class="edge"><title>Node543&#45;&gt;Node546</title>
<path fill="none" stroke="midnightblue" d="M418.412,-281.477C422.27,-283.916 425.853,-286.737 429,-290 471.22,-333.763 423.587,-377.472 465,-422 468.64,-425.914 472.804,-429.334 477.297,-432.323"/>
<polygon fill="midnightblue" stroke="midnightblue" points="420.053,-278.386 409.59,-276.724 416.733,-284.548 420.053,-278.386"/>
</g>
<!-- Node547 -->
<g id="node23" class="node"><title>Node547</title>
<g id="a_node23"><a xlink:href="test__heatshrink__dynamic_8c.html#a60c0e0c5bbb9715c7932ee82e706752d" target="_top" xlink:title="pseudorandom_data_should\l_match">
<polygon fill="white" stroke="black" points="485,-383 485,-413 623,-413 623,-383 485,-383"/>
<text text-anchor="start" x="493" y="-401" font-family="Helvetica,sans-Serif" font-size="10.00">pseudorandom_data_should</text>
<text text-anchor="middle" x="554" y="-390" font-family="Helvetica,sans-Serif" font-size="10.00">_match</text>
</a>
</g>
</g>
<!-- Node543&#45;&gt;Node547 -->
<g id="edge34" class="edge"><title>Node543&#45;&gt;Node547</title>
<path fill="none" stroke="midnightblue" d="M418.632,-282.443C422.339,-284.652 425.836,-287.158 429,-290 458.913,-316.87 434.749,-346.512 465,-373 470.855,-378.127 477.693,-382.207 484.922,-385.453"/>
<polygon fill="midnightblue" stroke="midnightblue" points="420.151,-279.289 409.66,-277.809 416.938,-285.508 420.151,-279.289"/>
</g>
<!-- Node548 -->
<g id="node24" class="node"><title>Node548</title>
<g id="a_node24"><a xlink:href="test__heatshrink__dynamic_8c.html#a20e1a72bba941f0c602b93b53d32d5db" target="_top" xlink:title="small_input_buffer\l_should_not_impact_decoder\l_correctness">
<polygon fill="white" stroke="black" points="482.5,-322.5 482.5,-363.5 625.5,-363.5 625.5,-322.5 482.5,-322.5"/>
<text text-anchor="start" x="490.5" y="-351.5" font-family="Helvetica,sans-Serif" font-size="10.00">small_input_buffer</text>
<text text-anchor="start" x="490.5" y="-340.5" font-family="Helvetica,sans-Serif" font-size="10.00">_should_not_impact_decoder</text>
<text text-anchor="middle" x="554" y="-329.5" font-family="Helvetica,sans-Serif" font-size="10.00">_correctness</text>
</a>
</g>
</g>
<!-- Node543&#45;&gt;Node548 -->
<g id="edge36" class="edge"><title>Node543&#45;&gt;Node548</title>
<path fill="none" stroke="midnightblue" d="M416.164,-284.663C420.554,-286.348 424.871,-288.129 429,-290 446.08,-297.737 448.064,-303.952 465,-312 472.754,-315.685 481.069,-319.173 489.381,-322.387"/>
<polygon fill="midnightblue" stroke="midnightblue" points="417.074,-281.27 406.48,-281.133 414.676,-287.846 417.074,-281.27"/>
</g>
<!-- Node549 -->
<g id="node25" class="node"><title>Node549</title>
<g id="a_node25"><a xlink:href="test__heatshrink__dynamic_8c.html#a462faeb904a3de1b1e009a04f7d171d8" target="_top" xlink:title="regression_backreference\l_counters_should_not_roll_over">
<polygon fill="white" stroke="black" points="477,-273 477,-303 631,-303 631,-273 477,-273"/>
<text text-anchor="start" x="485" y="-291" font-family="Helvetica,sans-Serif" font-size="10.00">regression_backreference</text>
<text text-anchor="middle" x="554" y="-280" font-family="Helvetica,sans-Serif" font-size="10.00">_counters_should_not_roll_over</text>
</a>
</g>
</g>
<!-- Node543&#45;&gt;Node549 -->
<g id="edge38" class="edge"><title>Node543&#45;&gt;Node549</title>
<path fill="none" stroke="midnightblue" d="M419.591,-273.398C437.915,-275.404 457.878,-277.589 476.648,-279.643"/>
<polygon fill="midnightblue" stroke="midnightblue" points="419.92,-269.913 409.599,-272.304 419.158,-276.872 419.92,-269.913"/>
</g>
<!-- Node550 -->
<g id="node26" class="node"><title>Node550</title>
<g id="a_node26"><a xlink:href="test__heatshrink__dynamic_8c.html#a2ed8ea21768d114fa96b07eb58475663" target="_top" xlink:title="regression_index_fail">
<polygon fill="white" stroke="black" points="500,-234.5 500,-253.5 608,-253.5 608,-234.5 500,-234.5"/>
<text text-anchor="middle" x="554" y="-241.5" font-family="Helvetica,sans-Serif" font-size="10.00">regression_index_fail</text>
</a>
</g>
</g>
<!-- Node543&#45;&gt;Node550 -->
<g id="edge40" class="edge"><title>Node543&#45;&gt;Node550</title>
<path fill="none" stroke="midnightblue" d="M419.803,-258.579C445.916,-255.721 475.334,-252.501 499.868,-249.815"/>
<polygon fill="midnightblue" stroke="midnightblue" points="419.158,-255.128 409.599,-259.696 419.92,-262.087 419.158,-255.128"/>
</g>
<!-- Node551 -->
<g id="node27" class="node"><title>Node551</title>
<g id="a_node27"><a xlink:href="test__heatshrink__dynamic_8c.html#a1bfe72da903d55a8610433a4f2a60d43" target="_top" xlink:title="sixty_four_k">
<polygon fill="white" stroke="black" points="519,-196.5 519,-215.5 589,-215.5 589,-196.5 519,-196.5"/>
<text text-anchor="middle" x="554" y="-203.5" font-family="Helvetica,sans-Serif" font-size="10.00">sixty_four_k</text>
</a>
</g>
</g>
<!-- Node543&#45;&gt;Node551 -->
<g id="edge42" class="edge"><title>Node543&#45;&gt;Node551</title>
<path fill="none" stroke="midnightblue" d="M399.05,-247.313C419.161,-239.749 443.026,-231.327 465,-225 482.573,-219.94 502.464,-215.537 518.884,-212.246"/>
<polygon fill="midnightblue" stroke="midnightblue" points="397.606,-244.118 389.504,-250.945 400.095,-250.661 397.606,-244.118"/>
</g>
<!-- Node545 -->
<g id="node21" class="node"><title>Node545</title>
<g id="a_node21"><a xlink:href="test__heatshrink__dynamic_8c.html#a2f157eb23cb17a496326c14e12933b3b" target="_top" xlink:title="SUITE">
<polygon fill="white" stroke="black" points="679,-278.5 679,-297.5 726,-297.5 726,-278.5 679,-278.5"/>
<text text-anchor="middle" x="702.5" y="-285.5" font-family="Helvetica,sans-Serif" font-size="10.00">SUITE</text>
</a>
</g>
</g>
<!-- Node544&#45;&gt;Node545 -->
<g id="edge31" class="edge"><title>Node544&#45;&gt;Node545</title>
<path fill="none" stroke="midnightblue" d="M625.706,-495.128C632.065,-491.924 637.984,-487.943 643,-483 696.875,-429.909 701.557,-329.315 701.643,-297.737"/>
<polygon fill="midnightblue" stroke="midnightblue" points="623.908,-492.093 616.13,-499.287 626.697,-498.514 623.908,-492.093"/>
</g>
<!-- Node546&#45;&gt;Node545 -->
<g id="edge33" class="edge"><title>Node546&#45;&gt;Node545</title>
<path fill="none" stroke="midnightblue" d="M637.544,-426.594C639.441,-425.143 641.265,-423.613 643,-422 681.113,-386.57 695.699,-321.956 699.998,-297.617"/>
<polygon fill="midnightblue" stroke="midnightblue" points="635.155,-423.982 628.806,-432.463 639.059,-429.792 635.155,-423.982"/>
</g>
<!-- Node547&#45;&gt;Node545 -->
<g id="edge35" class="edge"><title>Node547&#45;&gt;Node545</title>
<path fill="none" stroke="midnightblue" d="M632.148,-379.65C635.943,-377.657 639.588,-375.448 643,-373 670.945,-352.948 689.879,-315.161 697.599,-297.521"/>
<polygon fill="midnightblue" stroke="midnightblue" points="630.625,-376.499 623.063,-383.92 633.602,-382.834 630.625,-376.499"/>
</g>
<!-- Node548&#45;&gt;Node545 -->
<g id="edge37" class="edge"><title>Node548&#45;&gt;Node545</title>
<path fill="none" stroke="midnightblue" d="M624.592,-318.852C630.831,-316.576 637.04,-314.271 643,-312 654.9,-307.466 668.027,-302.114 678.825,-297.615"/>
<polygon fill="midnightblue" stroke="midnightblue" points="623.007,-315.703 614.793,-322.395 625.387,-322.286 623.007,-315.703"/>
</g>
<!-- Node549&#45;&gt;Node545 -->
<g id="edge39" class="edge"><title>Node549&#45;&gt;Node545</title>
<path fill="none" stroke="midnightblue" d="M641.383,-288C655.178,-288 668.331,-288 678.796,-288"/>
<polygon fill="midnightblue" stroke="midnightblue" points="641.254,-284.5 631.254,-288 641.254,-291.5 641.254,-284.5"/>
</g>
<!-- Node550&#45;&gt;Node545 -->
<g id="edge41" class="edge"><title>Node550&#45;&gt;Node545</title>
<path fill="none" stroke="midnightblue" d="M616.964,-255.814C625.775,-257.946 634.668,-260.347 643,-263 656.26,-267.222 670.639,-273.344 681.823,-278.473"/>
<polygon fill="midnightblue" stroke="midnightblue" points="617.618,-252.373 607.085,-253.522 616.035,-259.192 617.618,-252.373"/>
</g>
<!-- Node551&#45;&gt;Node545 -->
<g id="edge43" class="edge"><title>Node551&#45;&gt;Node545</title>
<path fill="none" stroke="midnightblue" d="M599.199,-210.161C613.836,-212.908 629.757,-217.461 643,-225 666.348,-238.292 685.784,-264.038 695.267,-278.154"/>
<polygon fill="midnightblue" stroke="midnightblue" points="599.755,-206.706 589.319,-208.533 598.617,-213.612 599.755,-206.706"/>
</g>
<!-- Node552&#45;&gt;Node545 -->
<g id="edge45" class="edge"><title>Node552&#45;&gt;Node545</title>
<path fill="none" stroke="midnightblue" d="M637.304,-182.724C639.272,-184.078 641.175,-185.503 643,-187 673.859,-212.323 691.867,-258.482 698.528,-278.414"/>
<polygon fill="midnightblue" stroke="midnightblue" points="638.672,-179.457 628.316,-177.22 635.017,-185.427 638.672,-179.457"/>
</g>
<!-- Node553&#45;&gt;Node545 -->
<g id="edge47" class="edge"><title>Node553&#45;&gt;Node545</title>
<path fill="none" stroke="midnightblue" d="M636.908,-121.71C639.045,-123.361 641.084,-125.122 643,-127 687.387,-170.509 698.29,-250.286 700.797,-278.112"/>
<polygon fill="midnightblue" stroke="midnightblue" points="638.481,-118.549 628.23,-115.873 634.574,-124.358 638.481,-118.549"/>
</g>
<!-- Node555 -->
<g id="node31" class="node"><title>Node555</title>
<g id="a_node31"><a xlink:href="httpdespfs_8h.html#aa502116e50052d973b6eef02a6282dd3" target="_top" xlink:title="cgiEspFsHook">
<polygon fill="white" stroke="black" points="513.5,-38.5 513.5,-57.5 594.5,-57.5 594.5,-38.5 513.5,-38.5"/>
<text text-anchor="middle" x="554" y="-45.5" font-family="Helvetica,sans-Serif" font-size="10.00">cgiEspFsHook</text>
</a>
</g>
</g>
<!-- Node554&#45;&gt;Node555 -->
<g id="edge49" class="edge"><title>Node554&#45;&gt;Node555</title>
<path fill="none" stroke="midnightblue" d="M395.142,-48C430.206,-48 479.274,-48 513.36,-48"/>
<polygon fill="midnightblue" stroke="midnightblue" points="394.742,-44.5001 384.741,-48 394.741,-51.5001 394.742,-44.5001"/>
</g>
<!-- Node556 -->
<g id="node32" class="node"><title>Node556</title>
<g id="a_node32"><a xlink:href="httpdespfs_8h.html#abc9eb26f247094e9fc41db897f6ec030" target="_top" xlink:title="cgiEspFsTemplate">
<polygon fill="white" stroke="black" points="505,-0.5 505,-19.5 603,-19.5 603,-0.5 505,-0.5"/>
<text text-anchor="middle" x="554" y="-7.5" font-family="Helvetica,sans-Serif" font-size="10.00">cgiEspFsTemplate</text>
</a>
</g>
</g>
<!-- Node554&#45;&gt;Node556 -->
<g id="edge50" class="edge"><title>Node554&#45;&gt;Node556</title>
<path fill="none" stroke="midnightblue" d="M394.771,-39.914C427.051,-33.8112 471.355,-25.4355 504.872,-19.0987"/>
<polygon fill="midnightblue" stroke="midnightblue" points="393.917,-36.5133 384.741,-41.8101 395.218,-43.3914 393.917,-36.5133"/>
</g>
</g>
</svg>
