<?xml version="1.0" encoding="UTF-8" standalone="no"?>
<!DOCTYPE svg PUBLIC "-//W3C//DTD SVG 1.1//EN"
 "http://www.w3.org/Graphics/SVG/1.1/DTD/svg11.dtd">
<!-- Generated by graphviz version 2.38.0 (20140413.2041)
 -->
<!-- Title: heatshrink_decoder_free Pages: 1 -->
<svg width="643pt" height="1465pt"
 viewBox="0.00 0.00 643.00 1464.50" xmlns="http://www.w3.org/2000/svg" xmlns:xlink="http://www.w3.org/1999/xlink">
<g id="graph0" class="graph" transform="scale(1 1) rotate(0) translate(4 1460.5)">
<title>heatshrink_decoder_free</title>
<polygon fill="white" stroke="none" points="-4,4 -4,-1460.5 639,-1460.5 639,4 -4,4"/>
<!-- Node100 -->
<g id="node1" class="node"><title>Node100</title>
<polygon fill="#bfbfbf" stroke="black" points="0,-599.5 0,-618.5 123,-618.5 123,-599.5 0,-599.5"/>
<text text-anchor="middle" x="61.5" y="-606.5" font-family="Helvetica,sans-Serif" font-size="10.00">heatshrink_decoder_free</text>
</g>
<!-- Node101 -->
<g id="node2" class="node"><title>Node101</title>
<g id="a_node2"><a xlink:href="test__heatshrink__dynamic_8c.html#ab9096be17a9dc8f301673949558e5bd6" target="_top" xlink:title="compress_and_expand\l_and_check">
<polygon fill="white" stroke="black" points="190,-1234 190,-1264 307,-1264 307,-1234 190,-1234"/>
<text text-anchor="start" x="198" y="-1252" font-family="Helvetica,sans-Serif" font-size="10.00">compress_and_expand</text>
<text text-anchor="middle" x="248.5" y="-1241" font-family="Helvetica,sans-Serif" font-size="10.00">_and_check</text>
</a>
</g>
</g>
<!-- Node100&#45;&gt;Node101 -->
<g id="edge1" class="edge"><title>Node100&#45;&gt;Node101</title>
<path fill="none" stroke="midnightblue" d="M63.9878,-628.77C69.5782,-696.458 92.5154,-924.354 159,-1099 179.116,-1151.84 217.066,-1207.52 236.062,-1233.7"/>
<polygon fill="midnightblue" stroke="midnightblue" points="67.4667,-628.365 63.1866,-618.673 60.4886,-628.918 67.4667,-628.365"/>
</g>
<!-- Node110 -->
<g id="node11" class="node"><title>Node110</title>
<g id="a_node11"><a xlink:href="test__heatshrink__dynamic_8c.html#acd64db79d79999a7c5436d35b74a7f40" target="_top" xlink:title="data_with_simple_repetition\l_should_match_with_absurdly\l_tiny_buffers">
<polygon fill="white" stroke="black" points="389,-1069.5 389,-1110.5 537,-1110.5 537,-1069.5 389,-1069.5"/>
<text text-anchor="start" x="397" y="-1098.5" font-family="Helvetica,sans-Serif" font-size="10.00">data_with_simple_repetition</text>
<text text-anchor="start" x="397" y="-1087.5" font-family="Helvetica,sans-Serif" font-size="10.00">_should_match_with_absurdly</text>
<text text-anchor="middle" x="463" y="-1076.5" font-family="Helvetica,sans-Serif" font-size="10.00">_tiny_buffers</text>
</a>
</g>
</g>
<!-- Node100&#45;&gt;Node110 -->
<g id="edge16" class="edge"><title>Node100&#45;&gt;Node110</title>
<path fill="none" stroke="midnightblue" d="M63.894,-629.09C69.7741,-707.645 95.2533,-992.568 159,-1051 220.482,-1107.36 320.758,-1109.19 388.971,-1102.22"/>
<polygon fill="midnightblue" stroke="midnightblue" points="67.3536,-628.403 63.1409,-618.682 60.3718,-628.909 67.3536,-628.403"/>
</g>
<!-- Node111 -->
<g id="node12" class="node"><title>Node111</title>
<g id="a_node12"><a xlink:href="test__heatshrink__dynamic_8c.html#a9a102029b8375d4050406a2814f390ac" target="_top" xlink:title="data_without_duplication\l_should_match_with_absurdly\l_tiny_buffers">
<polygon fill="white" stroke="black" points="389,-1009.5 389,-1050.5 537,-1050.5 537,-1009.5 389,-1009.5"/>
<text text-anchor="start" x="397" y="-1038.5" font-family="Helvetica,sans-Serif" font-size="10.00">data_without_duplication</text>
<text text-anchor="start" x="397" y="-1027.5" font-family="Helvetica,sans-Serif" font-size="10.00">_should_match_with_absurdly</text>
<text text-anchor="middle" x="463" y="-1016.5" font-family="Helvetica,sans-Serif" font-size="10.00">_tiny_buffers</text>
</a>
</g>
</g>
<!-- Node100&#45;&gt;Node111 -->
<g id="edge18" class="edge"><title>Node100&#45;&gt;Node111</title>
<path fill="none" stroke="midnightblue" d="M64.1331,-629.133C70.6709,-704.228 97.6234,-966.27 159,-1017 222.413,-1069.41 321.294,-1062.69 388.724,-1049.49"/>
<polygon fill="midnightblue" stroke="midnightblue" points="67.5853,-628.418 63.257,-618.747 60.6101,-629.006 67.5853,-628.418"/>
</g>
<!-- Node112 -->
<g id="node13" class="node"><title>Node112</title>
<g id="a_node13"><a xlink:href="heatshrink_8c.html#a92d9515cb2f33eea4832becaa17c11bb" target="_top" xlink:title="decode">
<polygon fill="white" stroke="black" points="224.5,-988.5 224.5,-1007.5 272.5,-1007.5 272.5,-988.5 224.5,-988.5"/>
<text text-anchor="middle" x="248.5" y="-995.5" font-family="Helvetica,sans-Serif" font-size="10.00">decode</text>
</a>
</g>
</g>
<!-- Node100&#45;&gt;Node112 -->
<g id="edge20" class="edge"><title>Node100&#45;&gt;Node112</title>
<path fill="none" stroke="midnightblue" d="M64.9232,-628.75C73.8329,-698.134 106.988,-929.21 159,-979 176.368,-995.626 204.588,-999.166 224.484,-999.322"/>
<polygon fill="midnightblue" stroke="midnightblue" points="68.3829,-628.21 63.6615,-618.725 61.4377,-629.084 68.3829,-628.21"/>
</g>
<!-- Node114 -->
<g id="node15" class="node"><title>Node114</title>
<g id="a_node15"><a xlink:href="test__heatshrink__dynamic_8c.html#a1f5bd6590b5a6d8ae285c99739e59839" target="_top" xlink:title="decoder_finish_should\l_note_when_done">
<polygon fill="white" stroke="black" points="192,-939 192,-969 305,-969 305,-939 192,-939"/>
<text text-anchor="start" x="200" y="-957" font-family="Helvetica,sans-Serif" font-size="10.00">decoder_finish_should</text>
<text text-anchor="middle" x="248.5" y="-946" font-family="Helvetica,sans-Serif" font-size="10.00">_note_when_done</text>
</a>
</g>
</g>
<!-- Node100&#45;&gt;Node114 -->
<g id="edge22" class="edge"><title>Node100&#45;&gt;Node114</title>
<path fill="none" stroke="midnightblue" d="M62.2491,-628.809C62.6649,-684.71 71.7852,-845.127 159,-930 167.899,-938.66 179.591,-944.271 191.548,-947.887"/>
<polygon fill="midnightblue" stroke="midnightblue" points="65.7495,-628.538 62.2675,-618.532 58.7495,-628.525 65.7495,-628.538"/>
</g>
<!-- Node116 -->
<g id="node17" class="node"><title>Node116</title>
<g id="a_node17"><a xlink:href="test__heatshrink__dynamic_8c.html#a21ce65ba23278144238616fed81cbd43" target="_top" xlink:title="decoder_finish_should\l_reject_null_input">
<polygon fill="white" stroke="black" points="192,-890 192,-920 305,-920 305,-890 192,-890"/>
<text text-anchor="start" x="200" y="-908" font-family="Helvetica,sans-Serif" font-size="10.00">decoder_finish_should</text>
<text text-anchor="middle" x="248.5" y="-897" font-family="Helvetica,sans-Serif" font-size="10.00">_reject_null_input</text>
</a>
</g>
</g>
<!-- Node100&#45;&gt;Node116 -->
<g id="edge24" class="edge"><title>Node100&#45;&gt;Node116</title>
<path fill="none" stroke="midnightblue" d="M63.4915,-628.75C67.0951,-678.725 83.6463,-811.174 159,-881 168.108,-889.44 179.882,-894.965 191.851,-898.567"/>
<polygon fill="midnightblue" stroke="midnightblue" points="66.977,-628.406 62.8634,-618.642 59.9904,-628.84 66.977,-628.406"/>
</g>
<!-- Node117 -->
<g id="node18" class="node"><title>Node117</title>
<g id="a_node18"><a xlink:href="test__heatshrink__dynamic_8c.html#afb5cdb53efe5dca1a7a785f344a03655" target="_top" xlink:title="decoder_poll_should\l_expand_short_literal">
<polygon fill="white" stroke="black" points="194,-841 194,-871 303,-871 303,-841 194,-841"/>
<text text-anchor="start" x="202" y="-859" font-family="Helvetica,sans-Serif" font-size="10.00">decoder_poll_should</text>
<text text-anchor="middle" x="248.5" y="-848" font-family="Helvetica,sans-Serif" font-size="10.00">_expand_short_literal</text>
</a>
</g>
</g>
<!-- Node100&#45;&gt;Node117 -->
<g id="edge26" class="edge"><title>Node100&#45;&gt;Node117</title>
<path fill="none" stroke="midnightblue" d="M65.3327,-628.803C72.595,-672.145 95.9545,-775.924 159,-831 168.739,-839.508 181.176,-845.135 193.627,-848.852"/>
<polygon fill="midnightblue" stroke="midnightblue" points="68.7574,-628.049 63.7547,-618.71 61.8415,-629.13 68.7574,-628.049"/>
</g>
<!-- Node118 -->
<g id="node19" class="node"><title>Node118</title>
<g id="a_node19"><a xlink:href="test__heatshrink__dynamic_8c.html#a5f3328adb18355964bab2a3f026f4707" target="_top" xlink:title="decoder_poll_should\l_expand_short_literal\l_and_backref">
<polygon fill="white" stroke="black" points="194,-780.5 194,-821.5 303,-821.5 303,-780.5 194,-780.5"/>
<text text-anchor="start" x="202" y="-809.5" font-family="Helvetica,sans-Serif" font-size="10.00">decoder_poll_should</text>
<text text-anchor="start" x="202" y="-798.5" font-family="Helvetica,sans-Serif" font-size="10.00">_expand_short_literal</text>
<text text-anchor="middle" x="248.5" y="-787.5" font-family="Helvetica,sans-Serif" font-size="10.00">_and_backref</text>
</a>
</g>
</g>
<!-- Node100&#45;&gt;Node118 -->
<g id="edge28" class="edge"><title>Node100&#45;&gt;Node118</title>
<path fill="none" stroke="midnightblue" d="M68.89,-628.221C81.0685,-661.968 110.772,-731.984 159,-771 169.09,-779.163 181.517,-785.154 193.834,-789.533"/>
<polygon fill="midnightblue" stroke="midnightblue" points="72.1426,-626.918 65.5505,-618.624 65.5314,-629.219 72.1426,-626.918"/>
</g>
<!-- Node119 -->
<g id="node20" class="node"><title>Node119</title>
<g id="a_node20"><a xlink:href="test__heatshrink__dynamic_8c.html#aaf61f9d548405f6ea0b9cc6d4dd86589" target="_top" xlink:title="decoder_poll_should\l_expand_short_literal\l_and_backref_when_fed\l_input_byte_by_byte">
<polygon fill="white" stroke="black" points="187.5,-709 187.5,-761 309.5,-761 309.5,-709 187.5,-709"/>
<text text-anchor="start" x="195.5" y="-749" font-family="Helvetica,sans-Serif" font-size="10.00">decoder_poll_should</text>
<text text-anchor="start" x="195.5" y="-738" font-family="Helvetica,sans-Serif" font-size="10.00">_expand_short_literal</text>
<text text-anchor="start" x="195.5" y="-727" font-family="Helvetica,sans-Serif" font-size="10.00">_and_backref_when_fed</text>
<text text-anchor="middle" x="248.5" y="-716" font-family="Helvetica,sans-Serif" font-size="10.00">_input_byte_by_byte</text>
</a>
</g>
</g>
<!-- Node100&#45;&gt;Node119 -->
<g id="edge30" class="edge"><title>Node100&#45;&gt;Node119</title>
<path fill="none" stroke="midnightblue" d="M77.3713,-626.248C95.1422,-645.996 126.566,-678.281 159,-699 167.807,-704.625 177.638,-709.662 187.457,-714.06"/>
<polygon fill="midnightblue" stroke="midnightblue" points="79.8743,-623.795 70.6279,-618.623 74.6305,-628.432 79.8743,-623.795"/>
</g>
<!-- Node120 -->
<g id="node21" class="node"><title>Node120</title>
<g id="a_node21"><a xlink:href="test__heatshrink__dynamic_8c.html#a5f04d534aa5ff2bc1fb218feea741774" target="_top" xlink:title="decoder_poll_should\l_expand_short_self_overlapping\l_backref">
<polygon fill="white" stroke="black" points="170.5,-648.5 170.5,-689.5 326.5,-689.5 326.5,-648.5 170.5,-648.5"/>
<text text-anchor="start" x="178.5" y="-677.5" font-family="Helvetica,sans-Serif" font-size="10.00">decoder_poll_should</text>
<text text-anchor="start" x="178.5" y="-666.5" font-family="Helvetica,sans-Serif" font-size="10.00">_expand_short_self_overlapping</text>
<text text-anchor="middle" x="248.5" y="-655.5" font-family="Helvetica,sans-Serif" font-size="10.00">_backref</text>
</a>
</g>
</g>
<!-- Node100&#45;&gt;Node120 -->
<g id="edge32" class="edge"><title>Node100&#45;&gt;Node120</title>
<path fill="none" stroke="midnightblue" d="M101.608,-621.684C125.575,-629.457 156.815,-639.589 184.235,-648.482"/>
<polygon fill="midnightblue" stroke="midnightblue" points="102.406,-618.263 91.8138,-618.507 100.246,-624.922 102.406,-618.263"/>
</g>
<!-- Node121 -->
<g id="node22" class="node"><title>Node121</title>
<g id="a_node22"><a xlink:href="test__heatshrink__dynamic_8c.html#af707dda355411d96de31c8bdaa687108" target="_top" xlink:title="decoder_poll_should\l_reject_null_output\l_buffer">
<polygon fill="white" stroke="black" points="196,-588.5 196,-629.5 301,-629.5 301,-588.5 196,-588.5"/>
<text text-anchor="start" x="204" y="-617.5" font-family="Helvetica,sans-Serif" font-size="10.00">decoder_poll_should</text>
<text text-anchor="start" x="204" y="-606.5" font-family="Helvetica,sans-Serif" font-size="10.00">_reject_null_output</text>
<text text-anchor="middle" x="248.5" y="-595.5" font-family="Helvetica,sans-Serif" font-size="10.00">_buffer</text>
</a>
</g>
</g>
<!-- Node100&#45;&gt;Node121 -->
<g id="edge34" class="edge"><title>Node100&#45;&gt;Node121</title>
<path fill="none" stroke="midnightblue" d="M133.156,-609C153.986,-609 176.383,-609 195.787,-609"/>
<polygon fill="midnightblue" stroke="midnightblue" points="133.076,-605.5 123.076,-609 133.076,-612.5 133.076,-605.5"/>
</g>
<!-- Node122 -->
<g id="node23" class="node"><title>Node122</title>
<g id="a_node23"><a xlink:href="test__heatshrink__dynamic_8c.html#a0e70f90b221a1bee860235c1ad79f7f8" target="_top" xlink:title="decoder_poll_should\l_reject_null_output\l_size_pointer">
<polygon fill="white" stroke="black" points="196,-528.5 196,-569.5 301,-569.5 301,-528.5 196,-528.5"/>
<text text-anchor="start" x="204" y="-557.5" font-family="Helvetica,sans-Serif" font-size="10.00">decoder_poll_should</text>
<text text-anchor="start" x="204" y="-546.5" font-family="Helvetica,sans-Serif" font-size="10.00">_reject_null_output</text>
<text text-anchor="middle" x="248.5" y="-535.5" font-family="Helvetica,sans-Serif" font-size="10.00">_size_pointer</text>
</a>
</g>
</g>
<!-- Node100&#45;&gt;Node122 -->
<g id="edge36" class="edge"><title>Node100&#45;&gt;Node122</title>
<path fill="none" stroke="midnightblue" d="M101.471,-596.361C128.946,-587.45 166.029,-575.423 195.95,-565.719"/>
<polygon fill="midnightblue" stroke="midnightblue" points="100.246,-593.078 91.8138,-599.493 102.406,-599.737 100.246,-593.078"/>
</g>
<!-- Node123 -->
<g id="node24" class="node"><title>Node123</title>
<g id="a_node24"><a xlink:href="test__heatshrink__dynamic_8c.html#a89837d79f51959fccccd28df0356fe37" target="_top" xlink:title="decoder_poll_should\l_return_empty_if_empty">
<polygon fill="white" stroke="black" points="187.5,-479 187.5,-509 309.5,-509 309.5,-479 187.5,-479"/>
<text text-anchor="start" x="195.5" y="-497" font-family="Helvetica,sans-Serif" font-size="10.00">decoder_poll_should</text>
<text text-anchor="middle" x="248.5" y="-486" font-family="Helvetica,sans-Serif" font-size="10.00">_return_empty_if_empty</text>
</a>
</g>
</g>
<!-- Node100&#45;&gt;Node123 -->
<g id="edge38" class="edge"><title>Node100&#45;&gt;Node123</title>
<path fill="none" stroke="midnightblue" d="M76.7107,-591.419C94.0626,-571.087 125.291,-537.985 159,-519 167.764,-514.064 177.574,-510.043 187.385,-506.786"/>
<polygon fill="midnightblue" stroke="midnightblue" points="73.8768,-589.353 70.1569,-599.273 79.2513,-593.838 73.8768,-589.353"/>
</g>
<!-- Node124 -->
<g id="node25" class="node"><title>Node124</title>
<g id="a_node25"><a xlink:href="test__heatshrink__dynamic_8c.html#a4c76ed65aa09f4c123ed378507c3ddbb" target="_top" xlink:title="decoder_poll_should\l_suspend_if_out_of_space\l_in_output_buffer_during\l_backref_expansion">
<polygon fill="white" stroke="black" points="182,-408 182,-460 315,-460 315,-408 182,-408"/>
<text text-anchor="start" x="190" y="-448" font-family="Helvetica,sans-Serif" font-size="10.00">decoder_poll_should</text>
<text text-anchor="start" x="190" y="-437" font-family="Helvetica,sans-Serif" font-size="10.00">_suspend_if_out_of_space</text>
<text text-anchor="start" x="190" y="-426" font-family="Helvetica,sans-Serif" font-size="10.00">_in_output_buffer_during</text>
<text text-anchor="middle" x="248.5" y="-415" font-family="Helvetica,sans-Serif" font-size="10.00">_backref_expansion</text>
</a>
</g>
</g>
<!-- Node100&#45;&gt;Node124 -->
<g id="edge40" class="edge"><title>Node100&#45;&gt;Node124</title>
<path fill="none" stroke="midnightblue" d="M70.9553,-590.163C85.1438,-560.515 116.428,-502.863 159,-469 165.853,-463.549 173.662,-458.854 181.737,-454.837"/>
<polygon fill="midnightblue" stroke="midnightblue" points="67.7042,-588.854 66.6592,-599.397 74.0509,-591.806 67.7042,-588.854"/>
</g>
<!-- Node125 -->
<g id="node26" class="node"><title>Node125</title>
<g id="a_node26"><a xlink:href="test__heatshrink__dynamic_8c.html#aed41c11f7d13fb37749ce644efea3b76" target="_top" xlink:title="decoder_poll_should\l_suspend_if_out_of_space\l_in_output_buffer_during\l_literal_expansion">
<polygon fill="white" stroke="black" points="182,-337 182,-389 315,-389 315,-337 182,-337"/>
<text text-anchor="start" x="190" y="-377" font-family="Helvetica,sans-Serif" font-size="10.00">decoder_poll_should</text>
<text text-anchor="start" x="190" y="-366" font-family="Helvetica,sans-Serif" font-size="10.00">_suspend_if_out_of_space</text>
<text text-anchor="start" x="190" y="-355" font-family="Helvetica,sans-Serif" font-size="10.00">_in_output_buffer_during</text>
<text text-anchor="middle" x="248.5" y="-344" font-family="Helvetica,sans-Serif" font-size="10.00">_literal_expansion</text>
</a>
</g>
</g>
<!-- Node100&#45;&gt;Node125 -->
<g id="edge42" class="edge"><title>Node100&#45;&gt;Node125</title>
<path fill="none" stroke="midnightblue" d="M66.35,-589.212C75.3378,-548.073 101.456,-452.609 159,-398 165.592,-391.745 173.436,-386.562 181.69,-382.279"/>
<polygon fill="midnightblue" stroke="midnightblue" points="62.9064,-588.582 64.2988,-599.085 69.76,-590.006 62.9064,-588.582"/>
</g>
<!-- Node126 -->
<g id="node27" class="node"><title>Node126</title>
<g id="a_node27"><a xlink:href="test__heatshrink__dynamic_8c.html#aeefae364c6a09c82a0228b02adf67236" target="_top" xlink:title="decoder_should_not\l_get_stuck_with_finish\l_yielding_MORE_but_0_bytes\l_output_from_poll">
<polygon fill="white" stroke="black" points="174,-266 174,-318 323,-318 323,-266 174,-266"/>
<text text-anchor="start" x="182" y="-306" font-family="Helvetica,sans-Serif" font-size="10.00">decoder_should_not</text>
<text text-anchor="start" x="182" y="-295" font-family="Helvetica,sans-Serif" font-size="10.00">_get_stuck_with_finish</text>
<text text-anchor="start" x="182" y="-284" font-family="Helvetica,sans-Serif" font-size="10.00">_yielding_MORE_but_0_bytes</text>
<text text-anchor="middle" x="248.5" y="-273" font-family="Helvetica,sans-Serif" font-size="10.00">_output_from_poll</text>
</a>
</g>
</g>
<!-- Node100&#45;&gt;Node126 -->
<g id="edge44" class="edge"><title>Node100&#45;&gt;Node126</title>
<path fill="none" stroke="midnightblue" d="M63.7429,-589.043C67.9369,-538.45 85.7601,-403.758 159,-327 163.334,-322.458 168.332,-318.492 173.7,-315.033"/>
<polygon fill="midnightblue" stroke="midnightblue" points="60.2339,-589.038 62.9912,-599.267 67.2151,-589.551 60.2339,-589.038"/>
</g>
<!-- Node127 -->
<g id="node28" class="node"><title>Node127</title>
<g id="a_node28"><a xlink:href="test__heatshrink__dynamic_8c.html#a30e017ea123daab9af1df395b9e0890c" target="_top" xlink:title="decoder_sink_should\l_reject_excessively\l_large_input">
<polygon fill="white" stroke="black" points="194.5,-205.5 194.5,-246.5 302.5,-246.5 302.5,-205.5 194.5,-205.5"/>
<text text-anchor="start" x="202.5" y="-234.5" font-family="Helvetica,sans-Serif" font-size="10.00">decoder_sink_should</text>
<text text-anchor="start" x="202.5" y="-223.5" font-family="Helvetica,sans-Serif" font-size="10.00">_reject_excessively</text>
<text text-anchor="middle" x="248.5" y="-212.5" font-family="Helvetica,sans-Serif" font-size="10.00">_large_input</text>
</a>
</g>
</g>
<!-- Node100&#45;&gt;Node127 -->
<g id="edge46" class="edge"><title>Node100&#45;&gt;Node127</title>
<path fill="none" stroke="midnightblue" d="M61.8768,-589.106C61.1366,-530.011 67.1204,-353.562 159,-256 168.454,-245.961 181.387,-239.281 194.446,-234.837"/>
<polygon fill="midnightblue" stroke="midnightblue" points="58.3817,-589.379 62.0911,-599.303 65.3801,-589.231 58.3817,-589.379"/>
</g>
<!-- Node128 -->
<g id="node29" class="node"><title>Node128</title>
<g id="a_node29"><a xlink:href="test__heatshrink__dynamic_8c.html#a288158a5d89bee603ec627a849699ffc" target="_top" xlink:title="decoder_sink_should\l_reject_null_count_pointer">
<polygon fill="white" stroke="black" points="183.5,-156 183.5,-186 313.5,-186 313.5,-156 183.5,-156"/>
<text text-anchor="start" x="191.5" y="-174" font-family="Helvetica,sans-Serif" font-size="10.00">decoder_sink_should</text>
<text text-anchor="middle" x="248.5" y="-163" font-family="Helvetica,sans-Serif" font-size="10.00">_reject_null_count_pointer</text>
</a>
</g>
</g>
<!-- Node100&#45;&gt;Node128 -->
<g id="edge48" class="edge"><title>Node100&#45;&gt;Node128</title>
<path fill="none" stroke="midnightblue" d="M64.4966,-589.057C72.3382,-514.609 103.359,-254.248 159,-196 165.727,-188.958 174.273,-183.852 183.39,-180.16"/>
<polygon fill="midnightblue" stroke="midnightblue" points="60.9795,-589.044 63.4369,-599.35 67.9427,-589.761 60.9795,-589.044"/>
</g>
<!-- Node129 -->
<g id="node30" class="node"><title>Node129</title>
<g id="a_node30"><a xlink:href="test__heatshrink__dynamic_8c.html#a9fbd2a0b8d8dafd461461172f8bf563e" target="_top" xlink:title="decoder_sink_should\l_reject_null_input_pointer">
<polygon fill="white" stroke="black" points="185,-107 185,-137 312,-137 312,-107 185,-107"/>
<text text-anchor="start" x="193" y="-125" font-family="Helvetica,sans-Serif" font-size="10.00">decoder_sink_should</text>
<text text-anchor="middle" x="248.5" y="-114" font-family="Helvetica,sans-Serif" font-size="10.00">_reject_null_input_pointer</text>
</a>
</g>
</g>
<!-- Node100&#45;&gt;Node129 -->
<g id="edge50" class="edge"><title>Node100&#45;&gt;Node129</title>
<path fill="none" stroke="midnightblue" d="M63.9184,-589.242C70.0381,-509.444 96.7398,-212.069 159,-146 165.987,-138.585 175.012,-133.378 184.619,-129.737"/>
<polygon fill="midnightblue" stroke="midnightblue" points="60.4156,-589.15 63.163,-599.383 67.3962,-589.67 60.4156,-589.15"/>
</g>
<!-- Node130 -->
<g id="node31" class="node"><title>Node130</title>
<g id="a_node31"><a xlink:href="test__heatshrink__dynamic_8c.html#a805b1155ea0d119009d7dfe43ea1baac" target="_top" xlink:title="decoder_sink_should\l_sink_data_when_preconditions_hold">
<polygon fill="white" stroke="black" points="159,-58 159,-88 338,-88 338,-58 159,-58"/>
<text text-anchor="start" x="167" y="-76" font-family="Helvetica,sans-Serif" font-size="10.00">decoder_sink_should</text>
<text text-anchor="middle" x="248.5" y="-65" font-family="Helvetica,sans-Serif" font-size="10.00">_sink_data_when_preconditions_hold</text>
</a>
</g>
</g>
<!-- Node100&#45;&gt;Node130 -->
<g id="edge52" class="edge"><title>Node100&#45;&gt;Node130</title>
<path fill="none" stroke="midnightblue" d="M63.4993,-589.088C68.1732,-503.886 90.6117,-170.981 159,-97 162.134,-93.6099 165.693,-90.6799 169.542,-88.1492"/>
<polygon fill="midnightblue" stroke="midnightblue" points="59.9967,-589.047 62.9647,-599.218 66.987,-589.416 59.9967,-589.047"/>
</g>
<!-- Node131 -->
<g id="node32" class="node"><title>Node131</title>
<g id="a_node32"><a xlink:href="espfs_8h.html#acfd5ee28c0dc286c6647c4f20ce89e5e" target="_top" xlink:title="espFsClose">
<polygon fill="white" stroke="black" points="214,-19.5 214,-38.5 283,-38.5 283,-19.5 214,-19.5"/>
<text text-anchor="middle" x="248.5" y="-26.5" font-family="Helvetica,sans-Serif" font-size="10.00">espFsClose</text>
</a>
</g>
</g>
<!-- Node100&#45;&gt;Node131 -->
<g id="edge54" class="edge"><title>Node100&#45;&gt;Node131</title>
<path fill="none" stroke="midnightblue" d="M63.0385,-589.126C65.8984,-498.809 82.222,-128.003 159,-48 172.928,-33.4872 195.053,-28.7372 213.696,-27.6154"/>
<polygon fill="midnightblue" stroke="midnightblue" points="59.5398,-589.032 62.7417,-599.131 66.5367,-589.239 59.5398,-589.032"/>
</g>
<!-- Node102 -->
<g id="node3" class="node"><title>Node102</title>
<g id="a_node3"><a xlink:href="test__heatshrink__dynamic_8c.html#a9d63746ee6a963338d09b8a19da82529" target="_top" xlink:title="data_without_duplication\l_should_match">
<polygon fill="white" stroke="black" points="401,-1426 401,-1456 525,-1456 525,-1426 401,-1426"/>
<text text-anchor="start" x="409" y="-1444" font-family="Helvetica,sans-Serif" font-size="10.00">data_without_duplication</text>
<text text-anchor="middle" x="463" y="-1433" font-family="Helvetica,sans-Serif" font-size="10.00">_should_match</text>
</a>
</g>
</g>
<!-- Node101&#45;&gt;Node102 -->
<g id="edge2" class="edge"><title>Node101&#45;&gt;Node102</title>
<path fill="none" stroke="midnightblue" d="M261.141,-1273.49C279.789,-1310.08 319.839,-1378.67 374,-1416 382.108,-1421.59 391.45,-1425.94 400.953,-1429.32"/>
<polygon fill="midnightblue" stroke="midnightblue" points="264.044,-1271.47 256.455,-1264.08 257.777,-1274.59 264.044,-1271.47"/>
</g>
<!-- Node104 -->
<g id="node5" class="node"><title>Node104</title>
<g id="a_node5"><a xlink:href="test__heatshrink__dynamic_8c.html#ae9d1425d6c89a652b9df2b4ddc7ac2a2" target="_top" xlink:title="data_with_simple_repetition\l_should_compress_and_decompress\l_properly">
<polygon fill="white" stroke="black" points="374,-1365.5 374,-1406.5 552,-1406.5 552,-1365.5 374,-1365.5"/>
<text text-anchor="start" x="382" y="-1394.5" font-family="Helvetica,sans-Serif" font-size="10.00">data_with_simple_repetition</text>
<text text-anchor="start" x="382" y="-1383.5" font-family="Helvetica,sans-Serif" font-size="10.00">_should_compress_and_decompress</text>
<text text-anchor="middle" x="463" y="-1372.5" font-family="Helvetica,sans-Serif" font-size="10.00">_properly</text>
</a>
</g>
</g>
<!-- Node101&#45;&gt;Node104 -->
<g id="edge4" class="edge"><title>Node101&#45;&gt;Node104</title>
<path fill="none" stroke="midnightblue" d="M270.362,-1271.44C293.629,-1295.31 333.364,-1332.77 374,-1356 380.026,-1359.44 386.51,-1362.58 393.129,-1365.41"/>
<polygon fill="midnightblue" stroke="midnightblue" points="272.858,-1268.99 263.406,-1264.2 267.811,-1273.84 272.858,-1268.99"/>
</g>
<!-- Node105 -->
<g id="node6" class="node"><title>Node105</title>
<g id="a_node6"><a xlink:href="test__heatshrink__dynamic_8c.html#a60c0e0c5bbb9715c7932ee82e706752d" target="_top" xlink:title="pseudorandom_data_should\l_match">
<polygon fill="white" stroke="black" points="394,-1316 394,-1346 532,-1346 532,-1316 394,-1316"/>
<text text-anchor="start" x="402" y="-1334" font-family="Helvetica,sans-Serif" font-size="10.00">pseudorandom_data_should</text>
<text text-anchor="middle" x="463" y="-1323" font-family="Helvetica,sans-Serif" font-size="10.00">_match</text>
</a>
</g>
</g>
<!-- Node101&#45;&gt;Node105 -->
<g id="edge6" class="edge"><title>Node101&#45;&gt;Node105</title>
<path fill="none" stroke="midnightblue" d="M288.363,-1268.65C312.6,-1280.44 344.659,-1295.19 374,-1306 383.687,-1309.57 394.128,-1312.94 404.315,-1315.98"/>
<polygon fill="midnightblue" stroke="midnightblue" points="289.669,-1265.39 279.15,-1264.13 286.585,-1271.68 289.669,-1265.39"/>
</g>
<!-- Node106 -->
<g id="node7" class="node"><title>Node106</title>
<g id="a_node7"><a xlink:href="test__heatshrink__dynamic_8c.html#a20e1a72bba941f0c602b93b53d32d5db" target="_top" xlink:title="small_input_buffer\l_should_not_impact_decoder\l_correctness">
<polygon fill="white" stroke="black" points="391.5,-1255.5 391.5,-1296.5 534.5,-1296.5 534.5,-1255.5 391.5,-1255.5"/>
<text text-anchor="start" x="399.5" y="-1284.5" font-family="Helvetica,sans-Serif" font-size="10.00">small_input_buffer</text>
<text text-anchor="start" x="399.5" y="-1273.5" font-family="Helvetica,sans-Serif" font-size="10.00">_should_not_impact_decoder</text>
<text text-anchor="middle" x="463" y="-1262.5" font-family="Helvetica,sans-Serif" font-size="10.00">_correctness</text>
</a>
</g>
</g>
<!-- Node101&#45;&gt;Node106 -->
<g id="edge8" class="edge"><title>Node101&#45;&gt;Node106</title>
<path fill="none" stroke="midnightblue" d="M316.947,-1257.57C340.606,-1260.58 367.241,-1263.96 391.17,-1267"/>
<polygon fill="midnightblue" stroke="midnightblue" points="317.367,-1254.1 307.006,-1256.31 316.485,-1261.04 317.367,-1254.1"/>
</g>
<!-- Node107 -->
<g id="node8" class="node"><title>Node107</title>
<g id="a_node8"><a xlink:href="test__heatshrink__dynamic_8c.html#a462faeb904a3de1b1e009a04f7d171d8" target="_top" xlink:title="regression_backreference\l_counters_should_not_roll_over">
<polygon fill="white" stroke="black" points="386,-1206 386,-1236 540,-1236 540,-1206 386,-1206"/>
<text text-anchor="start" x="394" y="-1224" font-family="Helvetica,sans-Serif" font-size="10.00">regression_backreference</text>
<text text-anchor="middle" x="463" y="-1213" font-family="Helvetica,sans-Serif" font-size="10.00">_counters_should_not_roll_over</text>
</a>
</g>
</g>
<!-- Node101&#45;&gt;Node107 -->
<g id="edge10" class="edge"><title>Node101&#45;&gt;Node107</title>
<path fill="none" stroke="midnightblue" d="M317.161,-1240.08C338.972,-1237.21 363.293,-1234.01 385.682,-1231.06"/>
<polygon fill="midnightblue" stroke="midnightblue" points="316.463,-1236.65 307.006,-1241.42 317.377,-1243.59 316.463,-1236.65"/>
</g>
<!-- Node108 -->
<g id="node9" class="node"><title>Node108</title>
<g id="a_node9"><a xlink:href="test__heatshrink__dynamic_8c.html#a2ed8ea21768d114fa96b07eb58475663" target="_top" xlink:title="regression_index_fail">
<polygon fill="white" stroke="black" points="409,-1167.5 409,-1186.5 517,-1186.5 517,-1167.5 409,-1167.5"/>
<text text-anchor="middle" x="463" y="-1174.5" font-family="Helvetica,sans-Serif" font-size="10.00">regression_index_fail</text>
</a>
</g>
</g>
<!-- Node101&#45;&gt;Node108 -->
<g id="edge12" class="edge"><title>Node101&#45;&gt;Node108</title>
<path fill="none" stroke="midnightblue" d="M290.327,-1229.85C314.313,-1219.14 345.441,-1206.13 374,-1197 386.535,-1192.99 400.319,-1189.46 413.182,-1186.52"/>
<polygon fill="midnightblue" stroke="midnightblue" points="288.849,-1226.68 281.175,-1233.99 291.73,-1233.06 288.849,-1226.68"/>
</g>
<!-- Node109 -->
<g id="node10" class="node"><title>Node109</title>
<g id="a_node10"><a xlink:href="test__heatshrink__dynamic_8c.html#a1bfe72da903d55a8610433a4f2a60d43" target="_top" xlink:title="sixty_four_k">
<polygon fill="white" stroke="black" points="428,-1129.5 428,-1148.5 498,-1148.5 498,-1129.5 428,-1129.5"/>
<text text-anchor="middle" x="463" y="-1136.5" font-family="Helvetica,sans-Serif" font-size="10.00">sixty_four_k</text>
</a>
</g>
</g>
<!-- Node101&#45;&gt;Node109 -->
<g id="edge14" class="edge"><title>Node101&#45;&gt;Node109</title>
<path fill="none" stroke="midnightblue" d="M273.15,-1226.95C296.867,-1206.06 335.327,-1175.36 374,-1158 390.968,-1150.38 411.177,-1145.74 427.946,-1142.96"/>
<polygon fill="midnightblue" stroke="midnightblue" points="270.512,-1224.61 265.4,-1233.89 275.183,-1229.83 270.512,-1224.61"/>
</g>
<!-- Node103 -->
<g id="node4" class="node"><title>Node103</title>
<g id="a_node4"><a xlink:href="test__heatshrink__dynamic_8c.html#a2f157eb23cb17a496326c14e12933b3b" target="_top" xlink:title="SUITE">
<polygon fill="white" stroke="black" points="588,-1211.5 588,-1230.5 635,-1230.5 635,-1211.5 588,-1211.5"/>
<text text-anchor="middle" x="611.5" y="-1218.5" font-family="Helvetica,sans-Serif" font-size="10.00">SUITE</text>
</a>
</g>
</g>
<!-- Node102&#45;&gt;Node103 -->
<g id="edge3" class="edge"><title>Node102&#45;&gt;Node103</title>
<path fill="none" stroke="midnightblue" d="M534.706,-1428.13C541.065,-1424.92 546.984,-1420.94 552,-1416 605.875,-1362.91 610.557,-1262.32 610.643,-1230.74"/>
<polygon fill="midnightblue" stroke="midnightblue" points="532.908,-1425.09 525.13,-1432.29 535.697,-1431.51 532.908,-1425.09"/>
</g>
<!-- Node104&#45;&gt;Node103 -->
<g id="edge5" class="edge"><title>Node104&#45;&gt;Node103</title>
<path fill="none" stroke="midnightblue" d="M547.941,-1359.47C549.34,-1358.36 550.695,-1357.2 552,-1356 590.484,-1320.49 604.847,-1255.28 609.042,-1230.71"/>
<polygon fill="midnightblue" stroke="midnightblue" points="545.715,-1356.75 539.5,-1365.33 549.709,-1362.5 545.715,-1356.75"/>
</g>
<!-- Node105&#45;&gt;Node103 -->
<g id="edge7" class="edge"><title>Node105&#45;&gt;Node103</title>
<path fill="none" stroke="midnightblue" d="M541.148,-1312.65C544.943,-1310.66 548.588,-1308.45 552,-1306 579.945,-1285.95 598.879,-1248.16 606.599,-1230.52"/>
<polygon fill="midnightblue" stroke="midnightblue" points="539.625,-1309.5 532.063,-1316.92 542.602,-1315.83 539.625,-1309.5"/>
</g>
<!-- Node106&#45;&gt;Node103 -->
<g id="edge9" class="edge"><title>Node106&#45;&gt;Node103</title>
<path fill="none" stroke="midnightblue" d="M536.018,-1251.94C541.443,-1249.98 546.819,-1247.99 552,-1246 564.478,-1241.21 578.23,-1235.37 589.263,-1230.53"/>
<polygon fill="midnightblue" stroke="midnightblue" points="534.471,-1248.78 526.23,-1255.44 536.825,-1255.37 534.471,-1248.78"/>
</g>
<!-- Node107&#45;&gt;Node103 -->
<g id="edge11" class="edge"><title>Node107&#45;&gt;Node103</title>
<path fill="none" stroke="midnightblue" d="M550.383,-1221C564.178,-1221 577.331,-1221 587.796,-1221"/>
<polygon fill="midnightblue" stroke="midnightblue" points="550.254,-1217.5 540.254,-1221 550.254,-1224.5 550.254,-1217.5"/>
</g>
<!-- Node108&#45;&gt;Node103 -->
<g id="edge13" class="edge"><title>Node108&#45;&gt;Node103</title>
<path fill="none" stroke="midnightblue" d="M522.588,-1188.89C532.481,-1191.3 542.589,-1194.02 552,-1197 564.769,-1201.04 578.654,-1206.68 589.691,-1211.48"/>
<polygon fill="midnightblue" stroke="midnightblue" points="523.338,-1185.47 512.801,-1186.58 521.731,-1192.28 523.338,-1185.47"/>
</g>
<!-- Node109&#45;&gt;Node103 -->
<g id="edge15" class="edge"><title>Node109&#45;&gt;Node103</title>
<path fill="none" stroke="midnightblue" d="M508.199,-1143.16C522.836,-1145.91 538.757,-1150.46 552,-1158 575.348,-1171.29 594.784,-1197.04 604.267,-1211.15"/>
<polygon fill="midnightblue" stroke="midnightblue" points="508.755,-1139.71 498.319,-1141.53 507.617,-1146.61 508.755,-1139.71"/>
</g>
<!-- Node110&#45;&gt;Node103 -->
<g id="edge17" class="edge"><title>Node110&#45;&gt;Node103</title>
<path fill="none" stroke="midnightblue" d="M546.304,-1115.72C548.272,-1117.08 550.175,-1118.5 552,-1120 582.859,-1145.32 600.867,-1191.48 607.528,-1211.41"/>
<polygon fill="midnightblue" stroke="midnightblue" points="547.672,-1112.46 537.316,-1110.22 544.017,-1118.43 547.672,-1112.46"/>
</g>
<!-- Node111&#45;&gt;Node103 -->
<g id="edge19" class="edge"><title>Node111&#45;&gt;Node103</title>
<path fill="none" stroke="midnightblue" d="M545.908,-1054.71C548.045,-1056.36 550.084,-1058.12 552,-1060 596.387,-1103.51 607.29,-1183.29 609.797,-1211.11"/>
<polygon fill="midnightblue" stroke="midnightblue" points="547.481,-1051.55 537.23,-1048.87 543.574,-1057.36 547.481,-1051.55"/>
</g>
<!-- Node113 -->
<g id="node14" class="node"><title>Node113</title>
<g id="a_node14"><a xlink:href="heatshrink_8c.html#a3c04138a5bfe5d72780bb7e82a18e627" target="_top" xlink:title="main">
<polygon fill="white" stroke="black" points="444,-971.5 444,-990.5 482,-990.5 482,-971.5 444,-971.5"/>
<text text-anchor="middle" x="463" y="-978.5" font-family="Helvetica,sans-Serif" font-size="10.00">main</text>
</a>
</g>
</g>
<!-- Node112&#45;&gt;Node113 -->
<g id="edge21" class="edge"><title>Node112&#45;&gt;Node113</title>
<path fill="none" stroke="midnightblue" d="M282.873,-995.33C328.316,-991.695 408.084,-985.313 443.805,-982.456"/>
<polygon fill="midnightblue" stroke="midnightblue" points="282.335,-991.862 272.646,-996.148 282.893,-998.84 282.335,-991.862"/>
</g>
<!-- Node115 -->
<g id="node16" class="node"><title>Node115</title>
<g id="a_node16"><a xlink:href="test__heatshrink__dynamic_8c.html#adc66afa12a5eaae0cd12d5cc497f0f67" target="_top" xlink:title="SUITE">
<polygon fill="white" stroke="black" points="439.5,-511.5 439.5,-530.5 486.5,-530.5 486.5,-511.5 439.5,-511.5"/>
<text text-anchor="middle" x="463" y="-518.5" font-family="Helvetica,sans-Serif" font-size="10.00">SUITE</text>
</a>
</g>
</g>
<!-- Node114&#45;&gt;Node115 -->
<g id="edge23" class="edge"><title>Node114&#45;&gt;Node115</title>
<path fill="none" stroke="midnightblue" d="M315.136,-944.438C323.583,-940.963 331.527,-936.284 338,-930 459.112,-812.416 462.894,-580.816 462.235,-530.707"/>
<polygon fill="midnightblue" stroke="midnightblue" points="313.696,-941.235 305.437,-947.872 316.032,-947.833 313.696,-941.235"/>
</g>
<!-- Node116&#45;&gt;Node115 -->
<g id="edge25" class="edge"><title>Node116&#45;&gt;Node115</title>
<path fill="none" stroke="midnightblue" d="M314.651,-895.327C323.229,-891.872 331.34,-887.229 338,-881 446.87,-779.18 460.155,-577.409 461.775,-530.777"/>
<polygon fill="midnightblue" stroke="midnightblue" points="313.491,-892.025 305.205,-898.628 315.8,-898.633 313.491,-892.025"/>
</g>
<!-- Node117&#45;&gt;Node115 -->
<g id="edge27" class="edge"><title>Node117&#45;&gt;Node115</title>
<path fill="none" stroke="midnightblue" d="M312.783,-845.898C321.987,-842.322 330.778,-837.5 338,-831 434.297,-744.335 456.965,-572.71 461.168,-530.53"/>
<polygon fill="midnightblue" stroke="midnightblue" points="311.433,-842.66 303.09,-849.19 313.684,-849.288 311.433,-842.66"/>
</g>
<!-- Node118&#45;&gt;Node115 -->
<g id="edge29" class="edge"><title>Node118&#45;&gt;Node115</title>
<path fill="none" stroke="midnightblue" d="M312.756,-786.464C321.885,-782.48 330.659,-777.421 338,-771 418.049,-700.991 451.988,-567.243 460.038,-530.528"/>
<polygon fill="midnightblue" stroke="midnightblue" points="311.185,-783.32 303.16,-790.237 313.747,-789.835 311.185,-783.32"/>
</g>
<!-- Node119&#45;&gt;Node115 -->
<g id="edge31" class="edge"><title>Node119&#45;&gt;Node115</title>
<path fill="none" stroke="midnightblue" d="M319.016,-711.368C325.745,-707.737 332.21,-703.628 338,-699 400.367,-649.147 444.477,-559.792 457.797,-530.549"/>
<polygon fill="midnightblue" stroke="midnightblue" points="317.091,-708.418 309.717,-716.026 320.225,-714.677 317.091,-708.418"/>
</g>
<!-- Node120&#45;&gt;Node115 -->
<g id="edge33" class="edge"><title>Node120&#45;&gt;Node115</title>
<path fill="none" stroke="midnightblue" d="M329.163,-643.914C332.196,-642.358 335.154,-640.721 338,-639 389.118,-608.099 436.407,-552.979 454.367,-530.721"/>
<polygon fill="midnightblue" stroke="midnightblue" points="327.393,-640.881 319.872,-648.343 330.405,-647.199 327.393,-640.881"/>
</g>
<!-- Node121&#45;&gt;Node115 -->
<g id="edge35" class="edge"><title>Node121&#45;&gt;Node115</title>
<path fill="none" stroke="midnightblue" d="M310.814,-589.201C319.987,-585.955 329.286,-582.503 338,-579 376.15,-563.667 419.366,-542.57 443.379,-530.502"/>
<polygon fill="midnightblue" stroke="midnightblue" points="309.623,-585.91 301.33,-592.503 311.924,-592.52 309.623,-585.91"/>
</g>
<!-- Node122&#45;&gt;Node115 -->
<g id="edge37" class="edge"><title>Node122&#45;&gt;Node115</title>
<path fill="none" stroke="midnightblue" d="M311.297,-540.857C354.258,-535.197 409.048,-527.977 439.322,-523.988"/>
<polygon fill="midnightblue" stroke="midnightblue" points="310.669,-537.41 301.212,-542.186 311.583,-544.35 310.669,-537.41"/>
</g>
<!-- Node123&#45;&gt;Node115 -->
<g id="edge39" class="edge"><title>Node123&#45;&gt;Node115</title>
<path fill="none" stroke="midnightblue" d="M319.618,-502.909C361.107,-508.181 410.941,-514.513 439.297,-518.115"/>
<polygon fill="midnightblue" stroke="midnightblue" points="319.903,-499.417 309.542,-501.629 319.021,-506.361 319.903,-499.417"/>
</g>
<!-- Node124&#45;&gt;Node115 -->
<g id="edge41" class="edge"><title>Node124&#45;&gt;Node115</title>
<path fill="none" stroke="midnightblue" d="M324.622,-463.586C329.152,-465.409 333.639,-467.223 338,-469 373.671,-483.531 414.872,-500.933 439.656,-511.468"/>
<polygon fill="midnightblue" stroke="midnightblue" points="325.871,-460.316 315.287,-459.844 323.267,-466.814 325.871,-460.316"/>
</g>
<!-- Node125&#45;&gt;Node115 -->
<g id="edge43" class="edge"><title>Node125&#45;&gt;Node115</title>
<path fill="none" stroke="midnightblue" d="M324.45,-390.071C329.143,-392.547 333.702,-395.19 338,-398 389.269,-431.515 436.834,-488.721 454.619,-511.364"/>
<polygon fill="midnightblue" stroke="midnightblue" points="325.806,-386.836 315.294,-385.516 322.688,-393.104 325.806,-386.836"/>
</g>
<!-- Node126&#45;&gt;Node115 -->
<g id="edge45" class="edge"><title>Node126&#45;&gt;Node115</title>
<path fill="none" stroke="midnightblue" d="M331.73,-322.246C333.896,-323.761 335.992,-325.345 338,-327 404.01,-381.407 446.31,-480.418 458.412,-511.441"/>
<polygon fill="midnightblue" stroke="midnightblue" points="333.388,-319.152 323.072,-316.736 329.63,-325.058 333.388,-319.152"/>
</g>
<!-- Node127&#45;&gt;Node115 -->
<g id="edge47" class="edge"><title>Node127&#45;&gt;Node115</title>
<path fill="none" stroke="midnightblue" d="M312.256,-240.116C321.595,-244.158 330.565,-249.347 338,-256 421.462,-330.689 453.142,-473.314 460.323,-511.434"/>
<polygon fill="midnightblue" stroke="midnightblue" points="313.426,-236.815 302.837,-236.443 310.883,-243.337 313.426,-236.815"/>
</g>
<!-- Node128&#45;&gt;Node115 -->
<g id="edge49" class="edge"><title>Node128&#45;&gt;Node115</title>
<path fill="none" stroke="midnightblue" d="M323.076,-185.65C328.48,-188.512 333.547,-191.927 338,-196 437.823,-287.296 457.893,-467.652 461.351,-511.315"/>
<polygon fill="midnightblue" stroke="midnightblue" points="324.262,-182.342 313.716,-181.334 321.332,-188.699 324.262,-182.342"/>
</g>
<!-- Node129&#45;&gt;Node115 -->
<g id="edge51" class="edge"><title>Node129&#45;&gt;Node115</title>
<path fill="none" stroke="midnightblue" d="M321.74,-134.779C327.677,-137.785 333.221,-141.475 338,-146 450.776,-252.788 461.06,-464.165 461.932,-511.463"/>
<polygon fill="midnightblue" stroke="midnightblue" points="322.707,-131.382 312.141,-130.597 319.911,-137.8 322.707,-131.382"/>
</g>
<!-- Node130&#45;&gt;Node115 -->
<g id="edge53" class="edge"><title>Node130&#45;&gt;Node115</title>
<path fill="none" stroke="midnightblue" d="M334.571,-93.9009C335.754,-94.8879 336.899,-95.9203 338,-97 462.859,-219.423 463.671,-460.102 462.355,-511.286"/>
<polygon fill="midnightblue" stroke="midnightblue" points="336.441,-90.9366 326.255,-88.0226 332.401,-96.6528 336.441,-90.9366"/>
</g>
<!-- Node132 -->
<g id="node33" class="node"><title>Node132</title>
<g id="a_node33"><a xlink:href="httpdespfs_8h.html#aa502116e50052d973b6eef02a6282dd3" target="_top" xlink:title="cgiEspFsHook">
<polygon fill="white" stroke="black" points="422.5,-38.5 422.5,-57.5 503.5,-57.5 503.5,-38.5 422.5,-38.5"/>
<text text-anchor="middle" x="463" y="-45.5" font-family="Helvetica,sans-Serif" font-size="10.00">cgiEspFsHook</text>
</a>
</g>
</g>
<!-- Node131&#45;&gt;Node132 -->
<g id="edge55" class="edge"><title>Node131&#45;&gt;Node132</title>
<path fill="none" stroke="midnightblue" d="M293.409,-32.9259C331.348,-36.3181 385.695,-41.1774 422.339,-44.4538"/>
<polygon fill="midnightblue" stroke="midnightblue" points="293.443,-29.4152 283.171,-32.0106 292.82,-36.3874 293.443,-29.4152"/>
</g>
<!-- Node133 -->
<g id="node34" class="node"><title>Node133</title>
<g id="a_node34"><a xlink:href="httpdespfs_8h.html#abc9eb26f247094e9fc41db897f6ec030" target="_top" xlink:title="cgiEspFsTemplate">
<polygon fill="white" stroke="black" points="414,-0.5 414,-19.5 512,-19.5 512,-0.5 414,-0.5"/>
<text text-anchor="middle" x="463" y="-7.5" font-family="Helvetica,sans-Serif" font-size="10.00">cgiEspFsTemplate</text>
</a>
</g>
</g>
<!-- Node131&#45;&gt;Node133 -->
<g id="edge56" class="edge"><title>Node131&#45;&gt;Node133</title>
<path fill="none" stroke="midnightblue" d="M293.133,-25.0987C328.263,-21.9576 377.592,-17.5471 413.867,-14.3037"/>
<polygon fill="midnightblue" stroke="midnightblue" points="292.82,-21.6126 283.171,-25.9894 293.443,-28.5848 292.82,-21.6126"/>
</g>
</g>
</svg>
