<?xml version="1.0" encoding="UTF-8" standalone="no"?>
<!DOCTYPE svg PUBLIC "-//W3C//DTD SVG 1.1//EN"
 "http://www.w3.org/Graphics/SVG/1.1/DTD/svg11.dtd">
<!-- Generated by graphviz version 2.38.0 (20140413.2041)
 -->
<!-- Title: st_backref_index_lsb Pages: 1 -->
<svg width="764pt" height="1050pt"
 viewBox="0.00 0.00 764.00 1050.00" xmlns="http://www.w3.org/2000/svg" xmlns:xlink="http://www.w3.org/1999/xlink">
<g id="graph0" class="graph" transform="scale(1 1) rotate(0) translate(4 1046)">
<title>st_backref_index_lsb</title>
<polygon fill="white" stroke="none" points="-4,4 -4,-1046 760,-1046 760,4 -4,4"/>
<!-- Node355 -->
<g id="node1" class="node"><title>Node355</title>
<polygon fill="#bfbfbf" stroke="black" points="0,-578.5 0,-597.5 109,-597.5 109,-578.5 0,-578.5"/>
<text text-anchor="middle" x="54.5" y="-585.5" font-family="Helvetica,sans-Serif" font-size="10.00">st_backref_index_lsb</text>
</g>
<!-- Node356 -->
<g id="node2" class="node"><title>Node356</title>
<g id="a_node2"><a xlink:href="heatshrink__decoder_8h.html#a38406b03b9df8b993c6a3fa144675627" target="_top" xlink:title="heatshrink_decoder_poll">
<polygon fill="white" stroke="black" points="145,-578.5 145,-597.5 267,-597.5 267,-578.5 145,-578.5"/>
<text text-anchor="middle" x="206" y="-585.5" font-family="Helvetica,sans-Serif" font-size="10.00">heatshrink_decoder_poll</text>
</a>
</g>
</g>
<!-- Node355&#45;&gt;Node356 -->
<g id="edge1" class="edge"><title>Node355&#45;&gt;Node356</title>
<path fill="none" stroke="midnightblue" d="M119.307,-588C127.819,-588 136.525,-588 144.969,-588"/>
<polygon fill="midnightblue" stroke="midnightblue" points="119.051,-584.5 109.051,-588 119.051,-591.5 119.051,-584.5"/>
</g>
<!-- Node357 -->
<g id="node3" class="node"><title>Node357</title>
<g id="a_node3"><a xlink:href="heatshrink_8c.html#a3f2b305cf4f4bf560265d00373a78bdd" target="_top" xlink:title="decoder_sink_read">
<polygon fill="white" stroke="black" points="332,-1022.5 332,-1041.5 430,-1041.5 430,-1022.5 332,-1022.5"/>
<text text-anchor="middle" x="381" y="-1029.5" font-family="Helvetica,sans-Serif" font-size="10.00">decoder_sink_read</text>
</a>
</g>
</g>
<!-- Node356&#45;&gt;Node357 -->
<g id="edge2" class="edge"><title>Node356&#45;&gt;Node357</title>
<path fill="none" stroke="midnightblue" d="M208.732,-607.612C215.792,-683.104 244.821,-953.66 303,-1013 310.712,-1020.87 321.123,-1025.67 331.794,-1028.56"/>
<polygon fill="midnightblue" stroke="midnightblue" points="212.212,-607.224 207.818,-597.583 205.24,-607.859 212.212,-607.224"/>
</g>
<!-- Node360 -->
<g id="node6" class="node"><title>Node360</title>
<g id="a_node6"><a xlink:href="test__heatshrink__dynamic_8c.html#a89837d79f51959fccccd28df0356fe37" target="_top" xlink:title="decoder_poll_should\l_return_empty_if_empty">
<polygon fill="white" stroke="black" points="320,-973 320,-1003 442,-1003 442,-973 320,-973"/>
<text text-anchor="start" x="328" y="-991" font-family="Helvetica,sans-Serif" font-size="10.00">decoder_poll_should</text>
<text text-anchor="middle" x="381" y="-980" font-family="Helvetica,sans-Serif" font-size="10.00">_return_empty_if_empty</text>
</a>
</g>
</g>
<!-- Node356&#45;&gt;Node360 -->
<g id="edge5" class="edge"><title>Node356&#45;&gt;Node360</title>
<path fill="none" stroke="midnightblue" d="M209.511,-607.903C218.713,-677.846 252.695,-911 303,-964 307.723,-968.976 313.46,-972.927 319.648,-976.062"/>
<polygon fill="midnightblue" stroke="midnightblue" points="212.958,-607.267 208.206,-597.798 206.016,-608.164 212.958,-607.267"/>
</g>
<!-- Node362 -->
<g id="node8" class="node"><title>Node362</title>
<g id="a_node8"><a xlink:href="test__heatshrink__dynamic_8c.html#a289dd3f831fdabb987c0d206e5cf13d5" target="_top" xlink:title="decoder_poll_should\l_reject_null_hsd">
<polygon fill="white" stroke="black" points="328.5,-924 328.5,-954 433.5,-954 433.5,-924 328.5,-924"/>
<text text-anchor="start" x="336.5" y="-942" font-family="Helvetica,sans-Serif" font-size="10.00">decoder_poll_should</text>
<text text-anchor="middle" x="381" y="-931" font-family="Helvetica,sans-Serif" font-size="10.00">_reject_null_hsd</text>
</a>
</g>
</g>
<!-- Node356&#45;&gt;Node362 -->
<g id="edge7" class="edge"><title>Node356&#45;&gt;Node362</title>
<path fill="none" stroke="midnightblue" d="M206.824,-607.892C207.43,-664.067 216.964,-825.561 303,-914 309.958,-921.153 318.98,-926.261 328.385,-929.909"/>
<polygon fill="midnightblue" stroke="midnightblue" points="210.323,-607.561 206.805,-597.567 203.323,-607.574 210.323,-607.561"/>
</g>
<!-- Node363 -->
<g id="node9" class="node"><title>Node363</title>
<g id="a_node9"><a xlink:href="test__heatshrink__dynamic_8c.html#af707dda355411d96de31c8bdaa687108" target="_top" xlink:title="decoder_poll_should\l_reject_null_output\l_buffer">
<polygon fill="white" stroke="black" points="328.5,-863.5 328.5,-904.5 433.5,-904.5 433.5,-863.5 328.5,-863.5"/>
<text text-anchor="start" x="336.5" y="-892.5" font-family="Helvetica,sans-Serif" font-size="10.00">decoder_poll_should</text>
<text text-anchor="start" x="336.5" y="-881.5" font-family="Helvetica,sans-Serif" font-size="10.00">_reject_null_output</text>
<text text-anchor="middle" x="381" y="-870.5" font-family="Helvetica,sans-Serif" font-size="10.00">_buffer</text>
</a>
</g>
</g>
<!-- Node356&#45;&gt;Node363 -->
<g id="edge9" class="edge"><title>Node356&#45;&gt;Node363</title>
<path fill="none" stroke="midnightblue" d="M208.643,-607.825C213.695,-656.363 233.188,-782.409 303,-854 310.011,-861.19 318.946,-866.691 328.227,-870.889"/>
<polygon fill="midnightblue" stroke="midnightblue" points="212.113,-607.34 207.688,-597.714 205.144,-607.998 212.113,-607.34"/>
</g>
<!-- Node364 -->
<g id="node10" class="node"><title>Node364</title>
<g id="a_node10"><a xlink:href="test__heatshrink__dynamic_8c.html#a0e70f90b221a1bee860235c1ad79f7f8" target="_top" xlink:title="decoder_poll_should\l_reject_null_output\l_size_pointer">
<polygon fill="white" stroke="black" points="328.5,-803.5 328.5,-844.5 433.5,-844.5 433.5,-803.5 328.5,-803.5"/>
<text text-anchor="start" x="336.5" y="-832.5" font-family="Helvetica,sans-Serif" font-size="10.00">decoder_poll_should</text>
<text text-anchor="start" x="336.5" y="-821.5" font-family="Helvetica,sans-Serif" font-size="10.00">_reject_null_output</text>
<text text-anchor="middle" x="381" y="-810.5" font-family="Helvetica,sans-Serif" font-size="10.00">_size_pointer</text>
</a>
</g>
</g>
<!-- Node356&#45;&gt;Node364 -->
<g id="edge11" class="edge"><title>Node356&#45;&gt;Node364</title>
<path fill="none" stroke="midnightblue" d="M210.977,-607.604C220.139,-647.959 246.428,-740.968 303,-794 310.222,-800.77 319.145,-806.07 328.327,-810.201"/>
<polygon fill="midnightblue" stroke="midnightblue" points="214.369,-606.73 208.836,-597.695 207.527,-608.208 214.369,-606.73"/>
</g>
<!-- Node365 -->
<g id="node11" class="node"><title>Node365</title>
<g id="a_node11"><a xlink:href="test__heatshrink__dynamic_8c.html#afb5cdb53efe5dca1a7a785f344a03655" target="_top" xlink:title="decoder_poll_should\l_expand_short_literal">
<polygon fill="white" stroke="black" points="326.5,-754 326.5,-784 435.5,-784 435.5,-754 326.5,-754"/>
<text text-anchor="start" x="334.5" y="-772" font-family="Helvetica,sans-Serif" font-size="10.00">decoder_poll_should</text>
<text text-anchor="middle" x="381" y="-761" font-family="Helvetica,sans-Serif" font-size="10.00">_expand_short_literal</text>
</a>
</g>
</g>
<!-- Node356&#45;&gt;Node365 -->
<g id="edge13" class="edge"><title>Node356&#45;&gt;Node365</title>
<path fill="none" stroke="midnightblue" d="M213.821,-607.468C226.335,-640.392 256.067,-707.081 303,-744 309.849,-749.388 317.897,-753.632 326.161,-756.971"/>
<polygon fill="midnightblue" stroke="midnightblue" points="216.964,-605.874 210.237,-597.689 210.392,-608.282 216.964,-605.874"/>
</g>
<!-- Node366 -->
<g id="node12" class="node"><title>Node366</title>
<g id="a_node12"><a xlink:href="test__heatshrink__dynamic_8c.html#a5f3328adb18355964bab2a3f026f4707" target="_top" xlink:title="decoder_poll_should\l_expand_short_literal\l_and_backref">
<polygon fill="white" stroke="black" points="326.5,-693.5 326.5,-734.5 435.5,-734.5 435.5,-693.5 326.5,-693.5"/>
<text text-anchor="start" x="334.5" y="-722.5" font-family="Helvetica,sans-Serif" font-size="10.00">decoder_poll_should</text>
<text text-anchor="start" x="334.5" y="-711.5" font-family="Helvetica,sans-Serif" font-size="10.00">_expand_short_literal</text>
<text text-anchor="middle" x="381" y="-700.5" font-family="Helvetica,sans-Serif" font-size="10.00">_and_backref</text>
</a>
</g>
</g>
<!-- Node356&#45;&gt;Node366 -->
<g id="edge15" class="edge"><title>Node356&#45;&gt;Node366</title>
<path fill="none" stroke="midnightblue" d="M220.71,-605.617C237.937,-626.737 269.349,-662.027 303,-684 310.208,-688.706 318.266,-692.855 326.381,-696.448"/>
<polygon fill="midnightblue" stroke="midnightblue" points="223.408,-603.388 214.428,-597.766 217.943,-607.761 223.408,-603.388"/>
</g>
<!-- Node367 -->
<g id="node13" class="node"><title>Node367</title>
<g id="a_node13"><a xlink:href="test__heatshrink__dynamic_8c.html#a5f04d534aa5ff2bc1fb218feea741774" target="_top" xlink:title="decoder_poll_should\l_expand_short_self_overlapping\l_backref">
<polygon fill="white" stroke="black" points="303,-633.5 303,-674.5 459,-674.5 459,-633.5 303,-633.5"/>
<text text-anchor="start" x="311" y="-662.5" font-family="Helvetica,sans-Serif" font-size="10.00">decoder_poll_should</text>
<text text-anchor="start" x="311" y="-651.5" font-family="Helvetica,sans-Serif" font-size="10.00">_expand_short_self_overlapping</text>
<text text-anchor="middle" x="381" y="-640.5" font-family="Helvetica,sans-Serif" font-size="10.00">_backref</text>
</a>
</g>
</g>
<!-- Node356&#45;&gt;Node367 -->
<g id="edge17" class="edge"><title>Node356&#45;&gt;Node367</title>
<path fill="none" stroke="midnightblue" d="M241.637,-601.214C265.846,-610.45 298.648,-622.964 326.238,-633.49"/>
<polygon fill="midnightblue" stroke="midnightblue" points="242.746,-597.891 232.156,-597.597 240.251,-604.432 242.746,-597.891"/>
</g>
<!-- Node368 -->
<g id="node14" class="node"><title>Node368</title>
<g id="a_node14"><a xlink:href="test__heatshrink__dynamic_8c.html#aed41c11f7d13fb37749ce644efea3b76" target="_top" xlink:title="decoder_poll_should\l_suspend_if_out_of_space\l_in_output_buffer_during\l_literal_expansion">
<polygon fill="white" stroke="black" points="314.5,-562 314.5,-614 447.5,-614 447.5,-562 314.5,-562"/>
<text text-anchor="start" x="322.5" y="-602" font-family="Helvetica,sans-Serif" font-size="10.00">decoder_poll_should</text>
<text text-anchor="start" x="322.5" y="-591" font-family="Helvetica,sans-Serif" font-size="10.00">_suspend_if_out_of_space</text>
<text text-anchor="start" x="322.5" y="-580" font-family="Helvetica,sans-Serif" font-size="10.00">_in_output_buffer_during</text>
<text text-anchor="middle" x="381" y="-569" font-family="Helvetica,sans-Serif" font-size="10.00">_literal_expansion</text>
</a>
</g>
</g>
<!-- Node356&#45;&gt;Node368 -->
<g id="edge19" class="edge"><title>Node356&#45;&gt;Node368</title>
<path fill="none" stroke="midnightblue" d="M277.23,-588C289.537,-588 302.3,-588 314.474,-588"/>
<polygon fill="midnightblue" stroke="midnightblue" points="277.022,-584.5 267.021,-588 277.021,-591.5 277.022,-584.5"/>
</g>
<!-- Node369 -->
<g id="node15" class="node"><title>Node369</title>
<g id="a_node15"><a xlink:href="test__heatshrink__dynamic_8c.html#a4c76ed65aa09f4c123ed378507c3ddbb" target="_top" xlink:title="decoder_poll_should\l_suspend_if_out_of_space\l_in_output_buffer_during\l_backref_expansion">
<polygon fill="white" stroke="black" points="314.5,-491 314.5,-543 447.5,-543 447.5,-491 314.5,-491"/>
<text text-anchor="start" x="322.5" y="-531" font-family="Helvetica,sans-Serif" font-size="10.00">decoder_poll_should</text>
<text text-anchor="start" x="322.5" y="-520" font-family="Helvetica,sans-Serif" font-size="10.00">_suspend_if_out_of_space</text>
<text text-anchor="start" x="322.5" y="-509" font-family="Helvetica,sans-Serif" font-size="10.00">_in_output_buffer_during</text>
<text text-anchor="middle" x="381" y="-498" font-family="Helvetica,sans-Serif" font-size="10.00">_backref_expansion</text>
</a>
</g>
</g>
<!-- Node356&#45;&gt;Node369 -->
<g id="edge21" class="edge"><title>Node356&#45;&gt;Node369</title>
<path fill="none" stroke="midnightblue" d="M239.713,-574.574C261.355,-565.692 290.445,-553.754 316.523,-543.051"/>
<polygon fill="midnightblue" stroke="midnightblue" points="238.254,-571.39 230.332,-578.425 240.912,-577.866 238.254,-571.39"/>
</g>
<!-- Node370 -->
<g id="node16" class="node"><title>Node370</title>
<g id="a_node16"><a xlink:href="test__heatshrink__dynamic_8c.html#aaf61f9d548405f6ea0b9cc6d4dd86589" target="_top" xlink:title="decoder_poll_should\l_expand_short_literal\l_and_backref_when_fed\l_input_byte_by_byte">
<polygon fill="white" stroke="black" points="320,-420 320,-472 442,-472 442,-420 320,-420"/>
<text text-anchor="start" x="328" y="-460" font-family="Helvetica,sans-Serif" font-size="10.00">decoder_poll_should</text>
<text text-anchor="start" x="328" y="-449" font-family="Helvetica,sans-Serif" font-size="10.00">_expand_short_literal</text>
<text text-anchor="start" x="328" y="-438" font-family="Helvetica,sans-Serif" font-size="10.00">_and_backref_when_fed</text>
<text text-anchor="middle" x="381" y="-427" font-family="Helvetica,sans-Serif" font-size="10.00">_input_byte_by_byte</text>
</a>
</g>
</g>
<!-- Node356&#45;&gt;Node370 -->
<g id="edge23" class="edge"><title>Node356&#45;&gt;Node370</title>
<path fill="none" stroke="midnightblue" d="M219.488,-569.972C236.253,-546.85 268.007,-506.679 303,-481 308.209,-477.177 313.902,-473.635 319.759,-470.389"/>
<polygon fill="midnightblue" stroke="midnightblue" points="216.576,-568.027 213.631,-578.205 222.28,-572.085 216.576,-568.027"/>
</g>
<!-- Node371 -->
<g id="node17" class="node"><title>Node371</title>
<g id="a_node17"><a xlink:href="test__heatshrink__dynamic_8c.html#a1f5bd6590b5a6d8ae285c99739e59839" target="_top" xlink:title="decoder_finish_should\l_note_when_done">
<polygon fill="white" stroke="black" points="324.5,-371 324.5,-401 437.5,-401 437.5,-371 324.5,-371"/>
<text text-anchor="start" x="332.5" y="-389" font-family="Helvetica,sans-Serif" font-size="10.00">decoder_finish_should</text>
<text text-anchor="middle" x="381" y="-378" font-family="Helvetica,sans-Serif" font-size="10.00">_note_when_done</text>
</a>
</g>
</g>
<!-- Node356&#45;&gt;Node371 -->
<g id="edge25" class="edge"><title>Node356&#45;&gt;Node371</title>
<path fill="none" stroke="midnightblue" d="M212.224,-568.297C222.95,-531.661 250.939,-452.895 303,-410 309.268,-404.836 316.648,-400.78 324.315,-397.594"/>
<polygon fill="midnightblue" stroke="midnightblue" points="208.769,-567.654 209.442,-578.227 215.51,-569.542 208.769,-567.654"/>
</g>
<!-- Node372 -->
<g id="node18" class="node"><title>Node372</title>
<g id="a_node18"><a xlink:href="test__heatshrink__dynamic_8c.html#aeefae364c6a09c82a0228b02adf67236" target="_top" xlink:title="decoder_should_not\l_get_stuck_with_finish\l_yielding_MORE_but_0_bytes\l_output_from_poll">
<polygon fill="white" stroke="black" points="306.5,-300 306.5,-352 455.5,-352 455.5,-300 306.5,-300"/>
<text text-anchor="start" x="314.5" y="-340" font-family="Helvetica,sans-Serif" font-size="10.00">decoder_should_not</text>
<text text-anchor="start" x="314.5" y="-329" font-family="Helvetica,sans-Serif" font-size="10.00">_get_stuck_with_finish</text>
<text text-anchor="start" x="314.5" y="-318" font-family="Helvetica,sans-Serif" font-size="10.00">_yielding_MORE_but_0_bytes</text>
<text text-anchor="middle" x="381" y="-307" font-family="Helvetica,sans-Serif" font-size="10.00">_output_from_poll</text>
</a>
</g>
</g>
<!-- Node356&#45;&gt;Node372 -->
<g id="edge27" class="edge"><title>Node356&#45;&gt;Node372</title>
<path fill="none" stroke="midnightblue" d="M210.299,-568.452C218.486,-525.54 243.534,-422.065 303,-361 306.176,-357.739 309.712,-354.754 313.474,-352.027"/>
<polygon fill="midnightblue" stroke="midnightblue" points="206.829,-567.969 208.495,-578.432 213.718,-569.214 206.829,-567.969"/>
</g>
<!-- Node373 -->
<g id="node19" class="node"><title>Node373</title>
<g id="a_node19"><a xlink:href="test__heatshrink__dynamic_8c.html#ab9096be17a9dc8f301673949558e5bd6" target="_top" xlink:title="compress_and_expand\l_and_check">
<polygon fill="white" stroke="black" points="322.5,-251 322.5,-281 439.5,-281 439.5,-251 322.5,-251"/>
<text text-anchor="start" x="330.5" y="-269" font-family="Helvetica,sans-Serif" font-size="10.00">compress_and_expand</text>
<text text-anchor="middle" x="381" y="-258" font-family="Helvetica,sans-Serif" font-size="10.00">_and_check</text>
</a>
</g>
</g>
<!-- Node356&#45;&gt;Node373 -->
<g id="edge29" class="edge"><title>Node356&#45;&gt;Node373</title>
<path fill="none" stroke="midnightblue" d="M207.41,-568.351C209.595,-515.56 222.952,-369.291 303,-290 308.471,-284.58 315.146,-280.382 322.254,-277.129"/>
<polygon fill="midnightblue" stroke="midnightblue" points="203.91,-568.292 207.087,-578.399 210.907,-568.516 203.91,-568.292"/>
</g>
<!-- Node382 -->
<g id="node28" class="node"><title>Node382</title>
<g id="a_node28"><a xlink:href="test__heatshrink__dynamic_8c.html#a9a102029b8375d4050406a2814f390ac" target="_top" xlink:title="data_without_duplication\l_should_match_with_absurdly\l_tiny_buffers">
<polygon fill="white" stroke="black" points="510,-136.5 510,-177.5 658,-177.5 658,-136.5 510,-136.5"/>
<text text-anchor="start" x="518" y="-165.5" font-family="Helvetica,sans-Serif" font-size="10.00">data_without_duplication</text>
<text text-anchor="start" x="518" y="-154.5" font-family="Helvetica,sans-Serif" font-size="10.00">_should_match_with_absurdly</text>
<text text-anchor="middle" x="584" y="-143.5" font-family="Helvetica,sans-Serif" font-size="10.00">_tiny_buffers</text>
</a>
</g>
</g>
<!-- Node356&#45;&gt;Node382 -->
<g id="edge44" class="edge"><title>Node356&#45;&gt;Node382</title>
<path fill="none" stroke="midnightblue" d="M206.304,-568.289C205.356,-509.764 210.779,-335.23 303,-241 357.312,-185.505 446.718,-166.34 509.87,-159.901"/>
<polygon fill="midnightblue" stroke="midnightblue" points="202.808,-568.479 206.555,-578.389 209.805,-568.305 202.808,-568.479"/>
</g>
<!-- Node383 -->
<g id="node29" class="node"><title>Node383</title>
<g id="a_node29"><a xlink:href="test__heatshrink__dynamic_8c.html#acd64db79d79999a7c5436d35b74a7f40" target="_top" xlink:title="data_with_simple_repetition\l_should_match_with_absurdly\l_tiny_buffers">
<polygon fill="white" stroke="black" points="510,-76.5 510,-117.5 658,-117.5 658,-76.5 510,-76.5"/>
<text text-anchor="start" x="518" y="-105.5" font-family="Helvetica,sans-Serif" font-size="10.00">data_with_simple_repetition</text>
<text text-anchor="start" x="518" y="-94.5" font-family="Helvetica,sans-Serif" font-size="10.00">_should_match_with_absurdly</text>
<text text-anchor="middle" x="584" y="-83.5" font-family="Helvetica,sans-Serif" font-size="10.00">_tiny_buffers</text>
</a>
</g>
</g>
<!-- Node356&#45;&gt;Node383 -->
<g id="edge46" class="edge"><title>Node356&#45;&gt;Node383</title>
<path fill="none" stroke="midnightblue" d="M208.74,-568.473C215.826,-493.309 244.943,-223.938 303,-165 356.798,-110.385 446.527,-96.7899 509.888,-94.6751"/>
<polygon fill="midnightblue" stroke="midnightblue" points="205.252,-568.18 207.821,-578.459 212.222,-568.821 205.252,-568.18"/>
</g>
<!-- Node384 -->
<g id="node30" class="node"><title>Node384</title>
<g id="a_node30"><a xlink:href="espfs_8h.html#adb43e859351bc07f175ccc5e29ee6950" target="_top" xlink:title="espFsRead">
<polygon fill="white" stroke="black" points="347.5,-38.5 347.5,-57.5 414.5,-57.5 414.5,-38.5 347.5,-38.5"/>
<text text-anchor="middle" x="381" y="-45.5" font-family="Helvetica,sans-Serif" font-size="10.00">espFsRead</text>
</a>
</g>
</g>
<!-- Node356&#45;&gt;Node384 -->
<g id="edge48" class="edge"><title>Node356&#45;&gt;Node384</title>
<path fill="none" stroke="midnightblue" d="M206.351,-568.088C205.01,-499.144 208.131,-266.293 303,-110 317.338,-86.3787 344.097,-67.9461 361.982,-57.5186"/>
<polygon fill="midnightblue" stroke="midnightblue" points="202.859,-568.453 206.611,-578.361 209.856,-568.276 202.859,-568.453"/>
</g>
<!-- Node358 -->
<g id="node4" class="node"><title>Node358</title>
<g id="a_node4"><a xlink:href="heatshrink_8c.html#a92d9515cb2f33eea4832becaa17c11bb" target="_top" xlink:title="decode">
<polygon fill="white" stroke="black" points="560,-1022.5 560,-1041.5 608,-1041.5 608,-1022.5 560,-1022.5"/>
<text text-anchor="middle" x="584" y="-1029.5" font-family="Helvetica,sans-Serif" font-size="10.00">decode</text>
</a>
</g>
</g>
<!-- Node357&#45;&gt;Node358 -->
<g id="edge3" class="edge"><title>Node357&#45;&gt;Node358</title>
<path fill="none" stroke="midnightblue" d="M440.282,-1032C480.127,-1032 530.792,-1032 559.793,-1032"/>
<polygon fill="midnightblue" stroke="midnightblue" points="440.145,-1028.5 430.145,-1032 440.144,-1035.5 440.145,-1028.5"/>
</g>
<!-- Node359 -->
<g id="node5" class="node"><title>Node359</title>
<g id="a_node5"><a xlink:href="heatshrink_8c.html#a3c04138a5bfe5d72780bb7e82a18e627" target="_top" xlink:title="main">
<polygon fill="white" stroke="black" points="713.5,-1022.5 713.5,-1041.5 751.5,-1041.5 751.5,-1022.5 713.5,-1022.5"/>
<text text-anchor="middle" x="732.5" y="-1029.5" font-family="Helvetica,sans-Serif" font-size="10.00">main</text>
</a>
</g>
</g>
<!-- Node358&#45;&gt;Node359 -->
<g id="edge4" class="edge"><title>Node358&#45;&gt;Node359</title>
<path fill="none" stroke="midnightblue" d="M618.47,-1032C647.981,-1032 689.857,-1032 713.475,-1032"/>
<polygon fill="midnightblue" stroke="midnightblue" points="618.213,-1028.5 608.213,-1032 618.213,-1035.5 618.213,-1028.5"/>
</g>
<!-- Node361 -->
<g id="node7" class="node"><title>Node361</title>
<g id="a_node7"><a xlink:href="test__heatshrink__dynamic_8c.html#adc66afa12a5eaae0cd12d5cc497f0f67" target="_top" xlink:title="SUITE">
<polygon fill="white" stroke="black" points="560.5,-674.5 560.5,-693.5 607.5,-693.5 607.5,-674.5 560.5,-674.5"/>
<text text-anchor="middle" x="584" y="-681.5" font-family="Helvetica,sans-Serif" font-size="10.00">SUITE</text>
</a>
</g>
</g>
<!-- Node360&#45;&gt;Node361 -->
<g id="edge6" class="edge"><title>Node360&#45;&gt;Node361</title>
<path fill="none" stroke="midnightblue" d="M451.094,-969.988C453.889,-968.179 456.544,-966.19 459,-964 546.907,-885.643 575.524,-733.264 581.64,-693.616"/>
<polygon fill="midnightblue" stroke="midnightblue" points="449.36,-966.947 442.343,-974.886 452.779,-973.056 449.36,-966.947"/>
</g>
<!-- Node362&#45;&gt;Node361 -->
<g id="edge8" class="edge"><title>Node362&#45;&gt;Node361</title>
<path fill="none" stroke="midnightblue" d="M442.945,-924.23C448.706,-921.394 454.183,-918.017 459,-914 534.947,-850.66 571.466,-728.409 580.635,-693.512"/>
<polygon fill="midnightblue" stroke="midnightblue" points="441.478,-921.052 433.712,-928.259 444.278,-927.467 441.478,-921.052"/>
</g>
<!-- Node363&#45;&gt;Node361 -->
<g id="edge10" class="edge"><title>Node363&#45;&gt;Node361</title>
<path fill="none" stroke="midnightblue" d="M442.937,-864.135C448.614,-861.157 454.076,-857.791 459,-854 520.079,-806.981 564.711,-721.983 578.514,-693.553"/>
<polygon fill="midnightblue" stroke="midnightblue" points="441.373,-861.003 433.886,-868.499 444.414,-867.309 441.373,-861.003"/>
</g>
<!-- Node364&#45;&gt;Node361 -->
<g id="edge12" class="edge"><title>Node364&#45;&gt;Node361</title>
<path fill="none" stroke="midnightblue" d="M443.087,-802.553C448.594,-799.922 453.981,-797.067 459,-794 507.619,-764.287 555.208,-714.733 574.276,-693.805"/>
<polygon fill="midnightblue" stroke="midnightblue" points="441.423,-799.464 433.748,-806.768 444.302,-805.844 441.423,-799.464"/>
</g>
<!-- Node365&#45;&gt;Node361 -->
<g id="edge14" class="edge"><title>Node365&#45;&gt;Node361</title>
<path fill="none" stroke="midnightblue" d="M441.166,-750.704C447.231,-748.556 453.266,-746.305 459,-744 497.831,-728.387 541.518,-706.082 565.276,-693.53"/>
<polygon fill="midnightblue" stroke="midnightblue" points="439.964,-747.416 431.651,-753.985 442.246,-754.033 439.964,-747.416"/>
</g>
<!-- Node366&#45;&gt;Node361 -->
<g id="edge16" class="edge"><title>Node366&#45;&gt;Node361</title>
<path fill="none" stroke="midnightblue" d="M445.864,-704.468C484.992,-698.628 532.703,-691.507 560.293,-687.389"/>
<polygon fill="midnightblue" stroke="midnightblue" points="444.974,-701.062 435.6,-706 446.007,-707.985 444.974,-701.062"/>
</g>
<!-- Node367&#45;&gt;Node361 -->
<g id="edge18" class="edge"><title>Node367&#45;&gt;Node361</title>
<path fill="none" stroke="midnightblue" d="M469.383,-667.042C502.654,-672.008 537.877,-677.265 560.126,-680.586"/>
<polygon fill="midnightblue" stroke="midnightblue" points="469.544,-663.528 459.137,-665.513 468.511,-670.451 469.544,-663.528"/>
</g>
<!-- Node368&#45;&gt;Node361 -->
<g id="edge20" class="edge"><title>Node368&#45;&gt;Node361</title>
<path fill="none" stroke="midnightblue" d="M447.273,-618.444C451.244,-620.319 455.177,-622.182 459,-624 495.93,-641.567 538.851,-662.436 563.281,-674.358"/>
<polygon fill="midnightblue" stroke="midnightblue" points="448.513,-615.159 437.975,-614.064 445.53,-621.492 448.513,-615.159"/>
</g>
<!-- Node369&#45;&gt;Node361 -->
<g id="edge22" class="edge"><title>Node369&#45;&gt;Node361</title>
<path fill="none" stroke="midnightblue" d="M453.901,-548.519C455.641,-549.653 457.344,-550.813 459,-552 511.143,-589.354 558.924,-650.996 576.184,-674.497"/>
<polygon fill="midnightblue" stroke="midnightblue" points="455.305,-545.276 444.943,-543.071 451.669,-551.257 455.305,-545.276"/>
</g>
<!-- Node370&#45;&gt;Node361 -->
<g id="edge24" class="edge"><title>Node370&#45;&gt;Node361</title>
<path fill="none" stroke="midnightblue" d="M450.698,-474.453C453.606,-476.51 456.392,-478.692 459,-481 476.047,-496.089 555.722,-635.788 577.491,-674.242"/>
<polygon fill="midnightblue" stroke="midnightblue" points="452.523,-471.465 442.224,-468.978 448.724,-477.345 452.523,-471.465"/>
</g>
<!-- Node371&#45;&gt;Node361 -->
<g id="edge26" class="edge"><title>Node371&#45;&gt;Node361</title>
<path fill="none" stroke="midnightblue" d="M446.595,-400.5C451.132,-403.154 455.348,-406.292 459,-410 498.67,-450.278 472.68,-480.059 495,-532 519.439,-588.871 560.454,-651.126 576.389,-674.465"/>
<polygon fill="midnightblue" stroke="midnightblue" points="448.044,-397.312 437.535,-395.969 444.913,-403.572 448.044,-397.312"/>
</g>
<!-- Node372&#45;&gt;Node361 -->
<g id="edge28" class="edge"><title>Node372&#45;&gt;Node361</title>
<path fill="none" stroke="midnightblue" d="M457.516,-359.225C458.023,-359.807 458.518,-360.399 459,-361 507.584,-421.594 467.194,-459.482 495,-532 517.052,-589.512 559.094,-650.901 575.849,-674.241"/>
<polygon fill="midnightblue" stroke="midnightblue" points="459.92,-356.68 450.318,-352.202 455.031,-361.691 459.92,-356.68"/>
</g>
<!-- Node374 -->
<g id="node20" class="node"><title>Node374</title>
<g id="a_node20"><a xlink:href="test__heatshrink__dynamic_8c.html#a9d63746ee6a963338d09b8a19da82529" target="_top" xlink:title="data_without_duplication\l_should_match">
<polygon fill="white" stroke="black" points="522,-493 522,-523 646,-523 646,-493 522,-493"/>
<text text-anchor="start" x="530" y="-511" font-family="Helvetica,sans-Serif" font-size="10.00">data_without_duplication</text>
<text text-anchor="middle" x="584" y="-500" font-family="Helvetica,sans-Serif" font-size="10.00">_should_match</text>
</a>
</g>
</g>
<!-- Node373&#45;&gt;Node374 -->
<g id="edge30" class="edge"><title>Node373&#45;&gt;Node374</title>
<path fill="none" stroke="midnightblue" d="M448.52,-281.055C452.383,-283.592 455.935,-286.551 459,-290 516.963,-355.223 436.215,-418.516 495,-483 502.169,-490.864 511.613,-496.324 521.651,-500.1"/>
<polygon fill="midnightblue" stroke="midnightblue" points="450.082,-277.919 439.637,-276.145 446.696,-284.046 450.082,-277.919"/>
</g>
<!-- Node376 -->
<g id="node22" class="node"><title>Node376</title>
<g id="a_node22"><a xlink:href="test__heatshrink__dynamic_8c.html#ae9d1425d6c89a652b9df2b4ddc7ac2a2" target="_top" xlink:title="data_with_simple_repetition\l_should_compress_and_decompress\l_properly">
<polygon fill="white" stroke="black" points="495,-432.5 495,-473.5 673,-473.5 673,-432.5 495,-432.5"/>
<text text-anchor="start" x="503" y="-461.5" font-family="Helvetica,sans-Serif" font-size="10.00">data_with_simple_repetition</text>
<text text-anchor="start" x="503" y="-450.5" font-family="Helvetica,sans-Serif" font-size="10.00">_should_compress_and_decompress</text>
<text text-anchor="middle" x="584" y="-439.5" font-family="Helvetica,sans-Serif" font-size="10.00">_properly</text>
</a>
</g>
</g>
<!-- Node373&#45;&gt;Node376 -->
<g id="edge32" class="edge"><title>Node373&#45;&gt;Node376</title>
<path fill="none" stroke="midnightblue" d="M448.412,-281.477C452.27,-283.916 455.853,-286.737 459,-290 501.22,-333.763 453.587,-377.472 495,-422 498.64,-425.914 502.804,-429.334 507.297,-432.323"/>
<polygon fill="midnightblue" stroke="midnightblue" points="450.053,-278.386 439.59,-276.724 446.733,-284.548 450.053,-278.386"/>
</g>
<!-- Node377 -->
<g id="node23" class="node"><title>Node377</title>
<g id="a_node23"><a xlink:href="test__heatshrink__dynamic_8c.html#a60c0e0c5bbb9715c7932ee82e706752d" target="_top" xlink:title="pseudorandom_data_should\l_match">
<polygon fill="white" stroke="black" points="515,-383 515,-413 653,-413 653,-383 515,-383"/>
<text text-anchor="start" x="523" y="-401" font-family="Helvetica,sans-Serif" font-size="10.00">pseudorandom_data_should</text>
<text text-anchor="middle" x="584" y="-390" font-family="Helvetica,sans-Serif" font-size="10.00">_match</text>
</a>
</g>
</g>
<!-- Node373&#45;&gt;Node377 -->
<g id="edge34" class="edge"><title>Node373&#45;&gt;Node377</title>
<path fill="none" stroke="midnightblue" d="M448.632,-282.443C452.339,-284.652 455.836,-287.158 459,-290 488.913,-316.87 464.749,-346.512 495,-373 500.855,-378.127 507.693,-382.207 514.922,-385.453"/>
<polygon fill="midnightblue" stroke="midnightblue" points="450.151,-279.289 439.66,-277.809 446.938,-285.508 450.151,-279.289"/>
</g>
<!-- Node378 -->
<g id="node24" class="node"><title>Node378</title>
<g id="a_node24"><a xlink:href="test__heatshrink__dynamic_8c.html#a20e1a72bba941f0c602b93b53d32d5db" target="_top" xlink:title="small_input_buffer\l_should_not_impact_decoder\l_correctness">
<polygon fill="white" stroke="black" points="512.5,-322.5 512.5,-363.5 655.5,-363.5 655.5,-322.5 512.5,-322.5"/>
<text text-anchor="start" x="520.5" y="-351.5" font-family="Helvetica,sans-Serif" font-size="10.00">small_input_buffer</text>
<text text-anchor="start" x="520.5" y="-340.5" font-family="Helvetica,sans-Serif" font-size="10.00">_should_not_impact_decoder</text>
<text text-anchor="middle" x="584" y="-329.5" font-family="Helvetica,sans-Serif" font-size="10.00">_correctness</text>
</a>
</g>
</g>
<!-- Node373&#45;&gt;Node378 -->
<g id="edge36" class="edge"><title>Node373&#45;&gt;Node378</title>
<path fill="none" stroke="midnightblue" d="M446.164,-284.663C450.554,-286.348 454.871,-288.129 459,-290 476.08,-297.737 478.064,-303.952 495,-312 502.754,-315.685 511.069,-319.173 519.381,-322.387"/>
<polygon fill="midnightblue" stroke="midnightblue" points="447.074,-281.27 436.48,-281.133 444.676,-287.846 447.074,-281.27"/>
</g>
<!-- Node379 -->
<g id="node25" class="node"><title>Node379</title>
<g id="a_node25"><a xlink:href="test__heatshrink__dynamic_8c.html#a462faeb904a3de1b1e009a04f7d171d8" target="_top" xlink:title="regression_backreference\l_counters_should_not_roll_over">
<polygon fill="white" stroke="black" points="507,-273 507,-303 661,-303 661,-273 507,-273"/>
<text text-anchor="start" x="515" y="-291" font-family="Helvetica,sans-Serif" font-size="10.00">regression_backreference</text>
<text text-anchor="middle" x="584" y="-280" font-family="Helvetica,sans-Serif" font-size="10.00">_counters_should_not_roll_over</text>
</a>
</g>
</g>
<!-- Node373&#45;&gt;Node379 -->
<g id="edge38" class="edge"><title>Node373&#45;&gt;Node379</title>
<path fill="none" stroke="midnightblue" d="M449.591,-273.398C467.915,-275.404 487.878,-277.589 506.648,-279.643"/>
<polygon fill="midnightblue" stroke="midnightblue" points="449.92,-269.913 439.599,-272.304 449.158,-276.872 449.92,-269.913"/>
</g>
<!-- Node380 -->
<g id="node26" class="node"><title>Node380</title>
<g id="a_node26"><a xlink:href="test__heatshrink__dynamic_8c.html#a2ed8ea21768d114fa96b07eb58475663" target="_top" xlink:title="regression_index_fail">
<polygon fill="white" stroke="black" points="530,-234.5 530,-253.5 638,-253.5 638,-234.5 530,-234.5"/>
<text text-anchor="middle" x="584" y="-241.5" font-family="Helvetica,sans-Serif" font-size="10.00">regression_index_fail</text>
</a>
</g>
</g>
<!-- Node373&#45;&gt;Node380 -->
<g id="edge40" class="edge"><title>Node373&#45;&gt;Node380</title>
<path fill="none" stroke="midnightblue" d="M449.803,-258.579C475.916,-255.721 505.334,-252.501 529.868,-249.815"/>
<polygon fill="midnightblue" stroke="midnightblue" points="449.158,-255.128 439.599,-259.696 449.92,-262.087 449.158,-255.128"/>
</g>
<!-- Node381 -->
<g id="node27" class="node"><title>Node381</title>
<g id="a_node27"><a xlink:href="test__heatshrink__dynamic_8c.html#a1bfe72da903d55a8610433a4f2a60d43" target="_top" xlink:title="sixty_four_k">
<polygon fill="white" stroke="black" points="549,-196.5 549,-215.5 619,-215.5 619,-196.5 549,-196.5"/>
<text text-anchor="middle" x="584" y="-203.5" font-family="Helvetica,sans-Serif" font-size="10.00">sixty_four_k</text>
</a>
</g>
</g>
<!-- Node373&#45;&gt;Node381 -->
<g id="edge42" class="edge"><title>Node373&#45;&gt;Node381</title>
<path fill="none" stroke="midnightblue" d="M429.05,-247.313C449.161,-239.749 473.026,-231.327 495,-225 512.573,-219.94 532.464,-215.537 548.884,-212.246"/>
<polygon fill="midnightblue" stroke="midnightblue" points="427.606,-244.118 419.504,-250.945 430.095,-250.661 427.606,-244.118"/>
</g>
<!-- Node375 -->
<g id="node21" class="node"><title>Node375</title>
<g id="a_node21"><a xlink:href="test__heatshrink__dynamic_8c.html#a2f157eb23cb17a496326c14e12933b3b" target="_top" xlink:title="SUITE">
<polygon fill="white" stroke="black" points="709,-278.5 709,-297.5 756,-297.5 756,-278.5 709,-278.5"/>
<text text-anchor="middle" x="732.5" y="-285.5" font-family="Helvetica,sans-Serif" font-size="10.00">SUITE</text>
</a>
</g>
</g>
<!-- Node374&#45;&gt;Node375 -->
<g id="edge31" class="edge"><title>Node374&#45;&gt;Node375</title>
<path fill="none" stroke="midnightblue" d="M655.706,-495.128C662.065,-491.924 667.984,-487.943 673,-483 726.875,-429.909 731.557,-329.315 731.643,-297.737"/>
<polygon fill="midnightblue" stroke="midnightblue" points="653.908,-492.093 646.13,-499.287 656.697,-498.514 653.908,-492.093"/>
</g>
<!-- Node376&#45;&gt;Node375 -->
<g id="edge33" class="edge"><title>Node376&#45;&gt;Node375</title>
<path fill="none" stroke="midnightblue" d="M667.544,-426.594C669.441,-425.143 671.265,-423.613 673,-422 711.113,-386.57 725.699,-321.956 729.998,-297.617"/>
<polygon fill="midnightblue" stroke="midnightblue" points="665.155,-423.982 658.806,-432.463 669.059,-429.792 665.155,-423.982"/>
</g>
<!-- Node377&#45;&gt;Node375 -->
<g id="edge35" class="edge"><title>Node377&#45;&gt;Node375</title>
<path fill="none" stroke="midnightblue" d="M662.148,-379.65C665.943,-377.657 669.588,-375.448 673,-373 700.945,-352.948 719.879,-315.161 727.599,-297.521"/>
<polygon fill="midnightblue" stroke="midnightblue" points="660.625,-376.499 653.063,-383.92 663.602,-382.834 660.625,-376.499"/>
</g>
<!-- Node378&#45;&gt;Node375 -->
<g id="edge37" class="edge"><title>Node378&#45;&gt;Node375</title>
<path fill="none" stroke="midnightblue" d="M654.592,-318.852C660.831,-316.576 667.04,-314.271 673,-312 684.9,-307.466 698.027,-302.114 708.825,-297.615"/>
<polygon fill="midnightblue" stroke="midnightblue" points="653.007,-315.703 644.793,-322.395 655.387,-322.286 653.007,-315.703"/>
</g>
<!-- Node379&#45;&gt;Node375 -->
<g id="edge39" class="edge"><title>Node379&#45;&gt;Node375</title>
<path fill="none" stroke="midnightblue" d="M671.383,-288C685.178,-288 698.331,-288 708.796,-288"/>
<polygon fill="midnightblue" stroke="midnightblue" points="671.254,-284.5 661.254,-288 671.254,-291.5 671.254,-284.5"/>
</g>
<!-- Node380&#45;&gt;Node375 -->
<g id="edge41" class="edge"><title>Node380&#45;&gt;Node375</title>
<path fill="none" stroke="midnightblue" d="M646.964,-255.814C655.775,-257.946 664.668,-260.347 673,-263 686.26,-267.222 700.639,-273.344 711.823,-278.473"/>
<polygon fill="midnightblue" stroke="midnightblue" points="647.618,-252.373 637.085,-253.522 646.035,-259.192 647.618,-252.373"/>
</g>
<!-- Node381&#45;&gt;Node375 -->
<g id="edge43" class="edge"><title>Node381&#45;&gt;Node375</title>
<path fill="none" stroke="midnightblue" d="M629.199,-210.161C643.836,-212.908 659.757,-217.461 673,-225 696.348,-238.292 715.784,-264.038 725.267,-278.154"/>
<polygon fill="midnightblue" stroke="midnightblue" points="629.755,-206.706 619.319,-208.533 628.617,-213.612 629.755,-206.706"/>
</g>
<!-- Node382&#45;&gt;Node375 -->
<g id="edge45" class="edge"><title>Node382&#45;&gt;Node375</title>
<path fill="none" stroke="midnightblue" d="M667.304,-182.724C669.272,-184.078 671.175,-185.503 673,-187 703.859,-212.323 721.867,-258.482 728.528,-278.414"/>
<polygon fill="midnightblue" stroke="midnightblue" points="668.672,-179.457 658.316,-177.22 665.017,-185.427 668.672,-179.457"/>
</g>
<!-- Node383&#45;&gt;Node375 -->
<g id="edge47" class="edge"><title>Node383&#45;&gt;Node375</title>
<path fill="none" stroke="midnightblue" d="M666.908,-121.71C669.045,-123.361 671.084,-125.122 673,-127 717.387,-170.509 728.29,-250.286 730.797,-278.112"/>
<polygon fill="midnightblue" stroke="midnightblue" points="668.481,-118.549 658.23,-115.873 664.574,-124.358 668.481,-118.549"/>
</g>
<!-- Node385 -->
<g id="node31" class="node"><title>Node385</title>
<g id="a_node31"><a xlink:href="httpdespfs_8h.html#aa502116e50052d973b6eef02a6282dd3" target="_top" xlink:title="cgiEspFsHook">
<polygon fill="white" stroke="black" points="543.5,-38.5 543.5,-57.5 624.5,-57.5 624.5,-38.5 543.5,-38.5"/>
<text text-anchor="middle" x="584" y="-45.5" font-family="Helvetica,sans-Serif" font-size="10.00">cgiEspFsHook</text>
</a>
</g>
</g>
<!-- Node384&#45;&gt;Node385 -->
<g id="edge49" class="edge"><title>Node384&#45;&gt;Node385</title>
<path fill="none" stroke="midnightblue" d="M425.142,-48C460.206,-48 509.274,-48 543.36,-48"/>
<polygon fill="midnightblue" stroke="midnightblue" points="424.742,-44.5001 414.741,-48 424.741,-51.5001 424.742,-44.5001"/>
</g>
<!-- Node386 -->
<g id="node32" class="node"><title>Node386</title>
<g id="a_node32"><a xlink:href="httpdespfs_8h.html#abc9eb26f247094e9fc41db897f6ec030" target="_top" xlink:title="cgiEspFsTemplate">
<polygon fill="white" stroke="black" points="535,-0.5 535,-19.5 633,-19.5 633,-0.5 535,-0.5"/>
<text text-anchor="middle" x="584" y="-7.5" font-family="Helvetica,sans-Serif" font-size="10.00">cgiEspFsTemplate</text>
</a>
</g>
</g>
<!-- Node384&#45;&gt;Node386 -->
<g id="edge50" class="edge"><title>Node384&#45;&gt;Node386</title>
<path fill="none" stroke="midnightblue" d="M424.771,-39.914C457.051,-33.8112 501.355,-25.4355 534.872,-19.0987"/>
<polygon fill="midnightblue" stroke="midnightblue" points="423.917,-36.5133 414.741,-41.8101 425.218,-43.3914 423.917,-36.5133"/>
</g>
</g>
</svg>
