<?xml version="1.0" encoding="UTF-8" standalone="no"?>
<!DOCTYPE svg PUBLIC "-//W3C//DTD SVG 1.1//EN"
 "http://www.w3.org/Graphics/SVG/1.1/DTD/svg11.dtd">
<!-- Generated by graphviz version 2.38.0 (20140413.2041)
 -->
<!-- Title: st_yield_literal Pages: 1 -->
<svg width="185pt" height="66pt"
 viewBox="0.00 0.00 185.00 66.00" xmlns="http://www.w3.org/2000/svg" xmlns:xlink="http://www.w3.org/1999/xlink">
<g id="graph0" class="graph" transform="scale(1 1) rotate(0) translate(4 62)">
<title>st_yield_literal</title>
<polygon fill="white" stroke="none" points="-4,4 -4,-62 181,-62 181,4 -4,4"/>
<!-- Node522 -->
<g id="node1" class="node"><title>Node522</title>
<polygon fill="#bfbfbf" stroke="black" points="0,-19.5 0,-38.5 79,-38.5 79,-19.5 0,-19.5"/>
<text text-anchor="middle" x="39.5" y="-26.5" font-family="Helvetica,sans-Serif" font-size="10.00">st_yield_literal</text>
</g>
<!-- Node523 -->
<g id="node2" class="node"><title>Node523</title>
<g id="a_node2"><a xlink:href="lib_2heatshrink_2heatshrink__decoder_8c.html#a63d6ed11f8d99df2898ad9f8b3ea7234" target="_top" xlink:title="get_bits">
<polygon fill="white" stroke="black" points="120.5,-38.5 120.5,-57.5 171.5,-57.5 171.5,-38.5 120.5,-38.5"/>
<text text-anchor="middle" x="146" y="-45.5" font-family="Helvetica,sans-Serif" font-size="10.00">get_bits</text>
</a>
</g>
</g>
<!-- Node522&#45;&gt;Node523 -->
<g id="edge1" class="edge"><title>Node522&#45;&gt;Node523</title>
<path fill="none" stroke="midnightblue" d="M79.115,-36.0209C89.3851,-37.8882 100.411,-39.8929 110.448,-41.7179"/>
<polygon fill="midnightblue" stroke="midnightblue" points="110.013,-45.196 120.478,-43.5414 111.265,-38.3089 110.013,-45.196"/>
</g>
<!-- Node524 -->
<g id="node3" class="node"><title>Node524</title>
<g id="a_node3"><a xlink:href="lib_2heatshrink_2heatshrink__decoder_8c.html#aa3cfafc3c68369e81aa88c97092bc631" target="_top" xlink:title="push_byte">
<polygon fill="white" stroke="black" points="115,-0.5 115,-19.5 177,-19.5 177,-0.5 115,-0.5"/>
<text text-anchor="middle" x="146" y="-7.5" font-family="Helvetica,sans-Serif" font-size="10.00">push_byte</text>
</a>
</g>
</g>
<!-- Node522&#45;&gt;Node524 -->
<g id="edge2" class="edge"><title>Node522&#45;&gt;Node524</title>
<path fill="none" stroke="midnightblue" d="M79.115,-21.9791C87.4646,-20.461 96.3137,-18.8521 104.725,-17.3227"/>
<polygon fill="midnightblue" stroke="midnightblue" points="105.493,-20.7406 114.705,-15.5081 104.24,-13.8535 105.493,-20.7406"/>
</g>
</g>
</svg>
