<?xml version="1.0" encoding="UTF-8" standalone="no"?>
<!DOCTYPE svg PUBLIC "-//W3C//DTD SVG 1.1//EN"
 "http://www.w3.org/Graphics/SVG/1.1/DTD/svg11.dtd">
<!-- Generated by graphviz version 2.38.0 (20140413.2041)
 -->
<!-- Title: memp_malloc Pages: 1 -->
<svg width="1008pt" height="528pt"
 viewBox="0.00 0.00 1008.00 528.00" xmlns="http://www.w3.org/2000/svg" xmlns:xlink="http://www.w3.org/1999/xlink">
<g id="graph0" class="graph" transform="scale(1 1) rotate(0) translate(4 524)">
<title>memp_malloc</title>
<polygon fill="white" stroke="none" points="-4,4 -4,-524 1004,-524 1004,4 -4,4"/>
<!-- Node78 -->
<g id="node1" class="node"><title>Node78</title>
<polygon fill="#bfbfbf" stroke="black" points="0,-44.5 0,-63.5 77,-63.5 77,-44.5 0,-44.5"/>
<text text-anchor="middle" x="38.5" y="-51.5" font-family="Helvetica,sans-Serif" font-size="10.00">memp_malloc</text>
</g>
<!-- Node79 -->
<g id="node2" class="node"><title>Node79</title>
<g id="a_node2"><a xlink:href="pbuf_8c.html#acfcb0a2af918658ba0afe36499c65f47" target="_top" xlink:title="pbuf_alloc">
<polygon fill="white" stroke="black" points="133.5,-272.5 133.5,-291.5 194.5,-291.5 194.5,-272.5 133.5,-272.5"/>
<text text-anchor="middle" x="164" y="-279.5" font-family="Helvetica,sans-Serif" font-size="10.00">pbuf_alloc</text>
</a>
</g>
</g>
<!-- Node78&#45;&gt;Node79 -->
<g id="edge1" class="edge"><title>Node78&#45;&gt;Node79</title>
<path fill="none" stroke="midnightblue" d="M49.4763,-72.4177C74.465,-118.551 139.079,-237.839 157.829,-272.453"/>
<polygon fill="midnightblue" stroke="midnightblue" points="52.4898,-70.6325 44.6494,-63.5066 46.3348,-73.9665 52.4898,-70.6325"/>
</g>
<!-- Node104 -->
<g id="node27" class="node"><title>Node104</title>
<g id="a_node27"><a xlink:href="tcpip_8c.html#ab1d3ef23817d7703fa75ed67bd45ea1d" target="_top" xlink:title="tcpip_callback_with\l_block">
<polygon fill="white" stroke="black" points="113,-39 113,-69 215,-69 215,-39 113,-39"/>
<text text-anchor="start" x="121" y="-57" font-family="Helvetica,sans-Serif" font-size="10.00">tcpip_callback_with</text>
<text text-anchor="middle" x="164" y="-46" font-family="Helvetica,sans-Serif" font-size="10.00">_block</text>
</a>
</g>
</g>
<!-- Node78&#45;&gt;Node104 -->
<g id="edge34" class="edge"><title>Node78&#45;&gt;Node104</title>
<path fill="none" stroke="midnightblue" d="M87.4898,-54C95.7786,-54 104.416,-54 112.762,-54"/>
<polygon fill="midnightblue" stroke="midnightblue" points="87.2252,-50.5001 77.2251,-54 87.2251,-57.5001 87.2252,-50.5001"/>
</g>
<!-- Node107 -->
<g id="node30" class="node"><title>Node107</title>
<g id="a_node30"><a xlink:href="tcpip_8c.html#ae510f195171bed8499ae94e264a92717" target="_top" xlink:title="tcpip_input">
<polygon fill="white" stroke="black" points="132,-0.5 132,-19.5 196,-19.5 196,-0.5 132,-0.5"/>
<text text-anchor="middle" x="164" y="-7.5" font-family="Helvetica,sans-Serif" font-size="10.00">tcpip_input</text>
</a>
</g>
</g>
<!-- Node78&#45;&gt;Node107 -->
<g id="edge37" class="edge"><title>Node78&#45;&gt;Node107</title>
<path fill="none" stroke="midnightblue" d="M75.7227,-41.0948C95.0989,-34.1915 118.545,-25.8383 136.255,-19.5287"/>
<polygon fill="midnightblue" stroke="midnightblue" points="74.543,-37.7995 66.2977,-44.4527 76.8923,-44.3935 74.543,-37.7995"/>
</g>
<!-- Node80 -->
<g id="node3" class="node"><title>Node80</title>
<g id="a_node3"><a xlink:href="dhcpserver_8c.html#aa16cfa7bae7bd0fcb895a8b2513dd60f" target="_top" xlink:title="send_offer">
<polygon fill="white" stroke="black" points="284.5,-500.5 284.5,-519.5 346.5,-519.5 346.5,-500.5 284.5,-500.5"/>
<text text-anchor="middle" x="315.5" y="-507.5" font-family="Helvetica,sans-Serif" font-size="10.00">send_offer</text>
</a>
</g>
</g>
<!-- Node79&#45;&gt;Node80 -->
<g id="edge2" class="edge"><title>Node79&#45;&gt;Node80</title>
<path fill="none" stroke="midnightblue" d="M167.425,-301.647C173.567,-342.902 193.562,-439.018 251,-491 260.129,-499.262 272.72,-503.937 284.284,-506.58"/>
<polygon fill="midnightblue" stroke="midnightblue" points="170.866,-300.98 166.04,-291.548 163.931,-301.931 170.866,-300.98"/>
</g>
<!-- Node83 -->
<g id="node6" class="node"><title>Node83</title>
<g id="a_node6"><a xlink:href="dhcpserver_8c.html#a81ead8e0f00ecfc0037e83cae928019f" target="_top" xlink:title="send_nak">
<polygon fill="white" stroke="black" points="286,-462.5 286,-481.5 345,-481.5 345,-462.5 286,-462.5"/>
<text text-anchor="middle" x="315.5" y="-469.5" font-family="Helvetica,sans-Serif" font-size="10.00">send_nak</text>
</a>
</g>
</g>
<!-- Node79&#45;&gt;Node83 -->
<g id="edge5" class="edge"><title>Node79&#45;&gt;Node83</title>
<path fill="none" stroke="midnightblue" d="M169.497,-301.926C178.582,-337.579 202.518,-412.349 251,-453 260.788,-461.207 274.026,-465.869 285.882,-468.517"/>
<polygon fill="midnightblue" stroke="midnightblue" points="172.806,-300.717 167.057,-291.818 166.001,-302.36 172.806,-300.717"/>
</g>
<!-- Node84 -->
<g id="node7" class="node"><title>Node84</title>
<g id="a_node7"><a xlink:href="dhcpserver_8c.html#a024751b98d23fc209015b3ac5a76aae9" target="_top" xlink:title="send_ack">
<polygon fill="white" stroke="black" points="286,-424.5 286,-443.5 345,-443.5 345,-424.5 286,-424.5"/>
<text text-anchor="middle" x="315.5" y="-431.5" font-family="Helvetica,sans-Serif" font-size="10.00">send_ack</text>
</a>
</g>
</g>
<!-- Node79&#45;&gt;Node84 -->
<g id="edge7" class="edge"><title>Node79&#45;&gt;Node84</title>
<path fill="none" stroke="midnightblue" d="M172.256,-301.109C184.223,-330.065 210.845,-384.867 251,-415 261.124,-422.597 274.272,-427.174 285.976,-429.923"/>
<polygon fill="midnightblue" stroke="midnightblue" points="175.462,-299.7 168.511,-291.704 168.958,-302.289 175.462,-299.7"/>
</g>
<!-- Node85 -->
<g id="node8" class="node"><title>Node85</title>
<g id="a_node8"><a xlink:href="encdhcpserver_8c.html#a3c75112029e9129f468d61866d004dee" target="_top" xlink:title="enc_send_offer">
<polygon fill="white" stroke="black" points="274,-386.5 274,-405.5 357,-405.5 357,-386.5 274,-386.5"/>
<text text-anchor="middle" x="315.5" y="-393.5" font-family="Helvetica,sans-Serif" font-size="10.00">enc_send_offer</text>
</a>
</g>
</g>
<!-- Node79&#45;&gt;Node85 -->
<g id="edge9" class="edge"><title>Node79&#45;&gt;Node85</title>
<path fill="none" stroke="midnightblue" d="M176.802,-300.179C191.63,-321.603 219.041,-356.833 251,-377 257.91,-381.36 265.871,-384.763 273.769,-387.404"/>
<polygon fill="midnightblue" stroke="midnightblue" points="179.561,-298.008 171.072,-291.668 173.754,-301.918 179.561,-298.008"/>
</g>
<!-- Node88 -->
<g id="node11" class="node"><title>Node88</title>
<g id="a_node11"><a xlink:href="encdhcpserver_8c.html#aba804f0d6ee22f1790a8589f6974f708" target="_top" xlink:title="enc_send_nak">
<polygon fill="white" stroke="black" points="275.5,-348.5 275.5,-367.5 355.5,-367.5 355.5,-348.5 275.5,-348.5"/>
<text text-anchor="middle" x="315.5" y="-355.5" font-family="Helvetica,sans-Serif" font-size="10.00">enc_send_nak</text>
</a>
</g>
</g>
<!-- Node79&#45;&gt;Node88 -->
<g id="edge12" class="edge"><title>Node79&#45;&gt;Node88</title>
<path fill="none" stroke="midnightblue" d="M184.838,-297.61C201.654,-310.222 226.827,-327.678 251,-339 258.816,-342.661 267.502,-345.807 275.878,-348.427"/>
<polygon fill="midnightblue" stroke="midnightblue" points="186.927,-294.802 176.855,-291.515 182.679,-300.366 186.927,-294.802"/>
</g>
<!-- Node89 -->
<g id="node12" class="node"><title>Node89</title>
<g id="a_node12"><a xlink:href="encdhcpserver_8c.html#ac3824653dcadb216498a0102c64a7a95" target="_top" xlink:title="enc_send_ack">
<polygon fill="white" stroke="black" points="275.5,-310.5 275.5,-329.5 355.5,-329.5 355.5,-310.5 275.5,-310.5"/>
<text text-anchor="middle" x="315.5" y="-317.5" font-family="Helvetica,sans-Serif" font-size="10.00">enc_send_ack</text>
</a>
</g>
</g>
<!-- Node79&#45;&gt;Node89 -->
<g id="edge14" class="edge"><title>Node79&#45;&gt;Node89</title>
<path fill="none" stroke="midnightblue" d="M204.433,-292.023C226.91,-297.736 254.917,-304.855 277.055,-310.482"/>
<polygon fill="midnightblue" stroke="midnightblue" points="205.09,-288.579 194.536,-289.508 203.366,-295.363 205.09,-288.579"/>
</g>
<!-- Node90 -->
<g id="node13" class="node"><title>Node90</title>
<g id="a_node13"><a xlink:href="espconn__udp_8c.html#ac963eff73234530596d6c02e6bb05e09" target="_top" xlink:title="espconn_udp_sent">
<polygon fill="white" stroke="black" points="266.5,-272.5 266.5,-291.5 364.5,-291.5 364.5,-272.5 266.5,-272.5"/>
<text text-anchor="middle" x="315.5" y="-279.5" font-family="Helvetica,sans-Serif" font-size="10.00">espconn_udp_sent</text>
</a>
</g>
</g>
<!-- Node79&#45;&gt;Node90 -->
<g id="edge16" class="edge"><title>Node79&#45;&gt;Node90</title>
<path fill="none" stroke="midnightblue" d="M204.639,-282C223.625,-282 246.523,-282 266.489,-282"/>
<polygon fill="midnightblue" stroke="midnightblue" points="204.536,-278.5 194.536,-282 204.536,-285.5 204.536,-278.5"/>
</g>
<!-- Node93 -->
<g id="node16" class="node"><title>Node93</title>
<g id="a_node16"><a xlink:href="espconn__udp_8c.html#a01fa0df74518311e3eb03f2d955f9f26" target="_top" xlink:title="espconn_udp_sendto">
<polygon fill="white" stroke="black" points="556,-272.5 556,-291.5 665,-291.5 665,-272.5 556,-272.5"/>
<text text-anchor="middle" x="610.5" y="-279.5" font-family="Helvetica,sans-Serif" font-size="10.00">espconn_udp_sendto</text>
</a>
</g>
</g>
<!-- Node79&#45;&gt;Node93 -->
<g id="edge26" class="edge"><title>Node79&#45;&gt;Node93</title>
<path fill="none" stroke="midnightblue" d="M204.698,-271.34C219.159,-267.959 235.711,-264.669 251,-263 369.85,-250.028 401.098,-250.518 520,-263 537.693,-264.857 557.036,-268.726 573.198,-272.491"/>
<polygon fill="midnightblue" stroke="midnightblue" points="203.477,-268.035 194.585,-273.795 205.129,-274.837 203.477,-268.035"/>
</g>
<!-- Node97 -->
<g id="node20" class="node"><title>Node97</title>
<g id="a_node20"><a xlink:href="netif_8c.html#a34e37a1e8e358760dc1c43887922c7db" target="_top" xlink:title="netif_set_link_down">
<polygon fill="white" stroke="black" points="264,-196.5 264,-215.5 367,-215.5 367,-196.5 264,-196.5"/>
<text text-anchor="middle" x="315.5" y="-203.5" font-family="Helvetica,sans-Serif" font-size="10.00">netif_set_link_down</text>
</a>
</g>
</g>
<!-- Node79&#45;&gt;Node97 -->
<g id="edge27" class="edge"><title>Node79&#45;&gt;Node97</title>
<path fill="none" stroke="midnightblue" d="M187.808,-266.636C204.78,-255.597 228.758,-240.815 251,-230 262.129,-224.589 274.811,-219.579 285.9,-215.551"/>
<polygon fill="midnightblue" stroke="midnightblue" points="185.581,-263.911 179.155,-272.335 189.432,-269.757 185.581,-263.911"/>
</g>
<!-- Node98 -->
<g id="node21" class="node"><title>Node98</title>
<g id="a_node21"><a xlink:href="pbuf_8c.html#a54ac7b116c6f53c704cbf74f35a8b35c" target="_top" xlink:title="pbuf_coalesce">
<polygon fill="white" stroke="black" points="275.5,-158.5 275.5,-177.5 355.5,-177.5 355.5,-158.5 275.5,-158.5"/>
<text text-anchor="middle" x="315.5" y="-165.5" font-family="Helvetica,sans-Serif" font-size="10.00">pbuf_coalesce</text>
</a>
</g>
</g>
<!-- Node79&#45;&gt;Node98 -->
<g id="edge28" class="edge"><title>Node79&#45;&gt;Node98</title>
<path fill="none" stroke="midnightblue" d="M176.802,-263.821C191.63,-242.397 219.041,-207.167 251,-187 258.396,-182.333 266.997,-178.762 275.436,-176.049"/>
<polygon fill="midnightblue" stroke="midnightblue" points="173.754,-262.082 171.072,-272.332 179.561,-265.992 173.754,-262.082"/>
</g>
<!-- Node99 -->
<g id="node22" class="node"><title>Node99</title>
<g id="a_node22"><a xlink:href="espenc_8c.html#abad8eb65a3bbaacff290a354199cd349" target="_top" xlink:title="enc28j60_handle_packets">
<polygon fill="white" stroke="black" points="251,-120.5 251,-139.5 380,-139.5 380,-120.5 251,-120.5"/>
<text text-anchor="middle" x="315.5" y="-127.5" font-family="Helvetica,sans-Serif" font-size="10.00">enc28j60_handle_packets</text>
</a>
</g>
</g>
<!-- Node79&#45;&gt;Node99 -->
<g id="edge29" class="edge"><title>Node79&#45;&gt;Node99</title>
<path fill="none" stroke="midnightblue" d="M172.256,-262.891C184.223,-233.935 210.845,-179.133 251,-149 256.154,-145.132 262.092,-142.047 268.224,-139.588"/>
<polygon fill="midnightblue" stroke="midnightblue" points="168.958,-261.711 168.511,-272.296 175.462,-264.3 168.958,-261.711"/>
</g>
<!-- Node103 -->
<g id="node26" class="node"><title>Node103</title>
<g id="a_node26"><a xlink:href="tunif_8c.html#a1f1889df58e9f36ec7d781fed7f0f4bc" target="_top" xlink:title="tunif_ready">
<polygon fill="white" stroke="black" points="283,-82.5 283,-101.5 348,-101.5 348,-82.5 283,-82.5"/>
<text text-anchor="middle" x="315.5" y="-89.5" font-family="Helvetica,sans-Serif" font-size="10.00">tunif_ready</text>
</a>
</g>
</g>
<!-- Node79&#45;&gt;Node103 -->
<g id="edge33" class="edge"><title>Node79&#45;&gt;Node103</title>
<path fill="none" stroke="midnightblue" d="M169.497,-262.074C178.582,-226.421 202.518,-151.651 251,-111 259.994,-103.459 271.902,-98.9104 282.973,-96.1675"/>
<polygon fill="midnightblue" stroke="midnightblue" points="166.001,-261.64 167.057,-272.182 172.806,-263.283 166.001,-261.64"/>
</g>
<!-- Node81 -->
<g id="node4" class="node"><title>Node81</title>
<g id="a_node4"><a xlink:href="dhcpserver_8c.html#a11489c1fab4206e65914c4c46850d183" target="_top" xlink:title="handle_dhcp">
<polygon fill="white" stroke="black" points="432.5,-462.5 432.5,-481.5 503.5,-481.5 503.5,-462.5 432.5,-462.5"/>
<text text-anchor="middle" x="468" y="-469.5" font-family="Helvetica,sans-Serif" font-size="10.00">handle_dhcp</text>
</a>
</g>
</g>
<!-- Node80&#45;&gt;Node81 -->
<g id="edge3" class="edge"><title>Node80&#45;&gt;Node81</title>
<path fill="none" stroke="midnightblue" d="M356.339,-499.941C380.032,-493.959 409.793,-486.444 432.482,-480.716"/>
<polygon fill="midnightblue" stroke="midnightblue" points="355.433,-496.56 346.594,-502.401 357.147,-503.347 355.433,-496.56"/>
</g>
<!-- Node82 -->
<g id="node5" class="node"><title>Node82</title>
<g id="a_node5"><a xlink:href="dhcpserver_8c.html#aa4cf55564a805b8654630547d365edcd" target="_top" xlink:title="dhcps_start">
<polygon fill="white" stroke="black" points="576.5,-462.5 576.5,-481.5 644.5,-481.5 644.5,-462.5 576.5,-462.5"/>
<text text-anchor="middle" x="610.5" y="-469.5" font-family="Helvetica,sans-Serif" font-size="10.00">dhcps_start</text>
</a>
</g>
</g>
<!-- Node81&#45;&gt;Node82 -->
<g id="edge4" class="edge"><title>Node81&#45;&gt;Node82</title>
<path fill="none" stroke="midnightblue" d="M513.951,-472C534.139,-472 557.544,-472 576.137,-472"/>
<polygon fill="midnightblue" stroke="midnightblue" points="513.73,-468.5 503.73,-472 513.73,-475.5 513.73,-468.5"/>
</g>
<!-- Node83&#45;&gt;Node81 -->
<g id="edge6" class="edge"><title>Node83&#45;&gt;Node81</title>
<path fill="none" stroke="midnightblue" d="M355.271,-472C379.094,-472 409.351,-472 432.368,-472"/>
<polygon fill="midnightblue" stroke="midnightblue" points="355.162,-468.5 345.162,-472 355.162,-475.5 355.162,-468.5"/>
</g>
<!-- Node84&#45;&gt;Node81 -->
<g id="edge8" class="edge"><title>Node84&#45;&gt;Node81</title>
<path fill="none" stroke="midnightblue" d="M354.951,-443.709C378.822,-449.736 409.248,-457.418 432.368,-463.256"/>
<polygon fill="midnightblue" stroke="midnightblue" points="355.715,-440.292 345.162,-441.237 354.001,-447.079 355.715,-440.292"/>
</g>
<!-- Node86 -->
<g id="node9" class="node"><title>Node86</title>
<g id="a_node9"><a xlink:href="encdhcpserver_8c.html#a6c2868df935ea765caa130a2446127b1" target="_top" xlink:title="enc_handle_dhcp">
<polygon fill="white" stroke="black" points="422,-348.5 422,-367.5 514,-367.5 514,-348.5 422,-348.5"/>
<text text-anchor="middle" x="468" y="-355.5" font-family="Helvetica,sans-Serif" font-size="10.00">enc_handle_dhcp</text>
</a>
</g>
</g>
<!-- Node85&#45;&gt;Node86 -->
<g id="edge10" class="edge"><title>Node85&#45;&gt;Node86</title>
<path fill="none" stroke="midnightblue" d="M364.185,-383.96C385.21,-378.651 409.567,-372.501 429.296,-367.52"/>
<polygon fill="midnightblue" stroke="midnightblue" points="363.316,-380.569 354.478,-386.411 365.03,-387.356 363.316,-380.569"/>
</g>
<!-- Node87 -->
<g id="node10" class="node"><title>Node87</title>
<g id="a_node10"><a xlink:href="encdhcpserver_8c.html#aeeb2ad7e2436d258c8ee145949300a9a" target="_top" xlink:title="enc_dhcps_start">
<polygon fill="white" stroke="black" points="566,-348.5 566,-367.5 655,-367.5 655,-348.5 566,-348.5"/>
<text text-anchor="middle" x="610.5" y="-355.5" font-family="Helvetica,sans-Serif" font-size="10.00">enc_dhcps_start</text>
</a>
</g>
</g>
<!-- Node86&#45;&gt;Node87 -->
<g id="edge11" class="edge"><title>Node86&#45;&gt;Node87</title>
<path fill="none" stroke="midnightblue" d="M524.525,-358C538.237,-358 552.733,-358 565.794,-358"/>
<polygon fill="midnightblue" stroke="midnightblue" points="524.228,-354.5 514.228,-358 524.228,-361.5 524.228,-354.5"/>
</g>
<!-- Node88&#45;&gt;Node86 -->
<g id="edge13" class="edge"><title>Node88&#45;&gt;Node86</title>
<path fill="none" stroke="midnightblue" d="M365.718,-358C383.816,-358 404.204,-358 421.919,-358"/>
<polygon fill="midnightblue" stroke="midnightblue" points="365.649,-354.5 355.649,-358 365.649,-361.5 365.649,-354.5"/>
</g>
<!-- Node89&#45;&gt;Node86 -->
<g id="edge15" class="edge"><title>Node89&#45;&gt;Node86</title>
<path fill="none" stroke="midnightblue" d="M364.185,-332.04C385.21,-337.349 409.567,-343.499 429.296,-348.48"/>
<polygon fill="midnightblue" stroke="midnightblue" points="365.03,-328.644 354.478,-329.589 363.316,-335.431 365.03,-328.644"/>
</g>
<!-- Node91 -->
<g id="node14" class="node"><title>Node91</title>
<g id="a_node14"><a xlink:href="sdk_2include_2espconn_8h.html#a579e4f1c62f7c33be01398931617e988" target="_top" xlink:title="espconn_sent">
<polygon fill="white" stroke="black" points="429.5,-310.5 429.5,-329.5 506.5,-329.5 506.5,-310.5 429.5,-310.5"/>
<text text-anchor="middle" x="468" y="-317.5" font-family="Helvetica,sans-Serif" font-size="10.00">espconn_sent</text>
</a>
</g>
</g>
<!-- Node90&#45;&gt;Node91 -->
<g id="edge17" class="edge"><title>Node90&#45;&gt;Node91</title>
<path fill="none" stroke="midnightblue" d="M364.185,-294.04C385.21,-299.349 409.567,-305.499 429.296,-310.48"/>
<polygon fill="midnightblue" stroke="midnightblue" points="365.03,-290.644 354.478,-291.589 363.316,-297.431 365.03,-290.644"/>
</g>
<!-- Node92 -->
<g id="node15" class="node"><title>Node92</title>
<g id="a_node15"><a xlink:href="espconn__udp_8c.html#ad90679652367797548ea650f09d14f7e" target="_top" xlink:title="espconn_data_sent">
<polygon fill="white" stroke="black" points="417.5,-272.5 417.5,-291.5 518.5,-291.5 518.5,-272.5 417.5,-272.5"/>
<text text-anchor="middle" x="468" y="-279.5" font-family="Helvetica,sans-Serif" font-size="10.00">espconn_data_sent</text>
</a>
</g>
</g>
<!-- Node90&#45;&gt;Node92 -->
<g id="edge18" class="edge"><title>Node90&#45;&gt;Node92</title>
<path fill="none" stroke="midnightblue" d="M374.623,-275.408C388.728,-275.144 403.68,-275.211 417.352,-275.61"/>
<polygon fill="midnightblue" stroke="midnightblue" points="374.443,-271.911 364.533,-275.659 374.617,-278.909 374.443,-271.911"/>
</g>
<!-- Node92&#45;&gt;Node90 -->
<g id="edge19" class="edge"><title>Node92&#45;&gt;Node90</title>
<path fill="none" stroke="midnightblue" d="M407.201,-288.622C393.033,-288.86 378.101,-288.766 364.533,-288.341"/>
<polygon fill="midnightblue" stroke="midnightblue" points="407.435,-292.118 417.352,-288.39 407.275,-285.119 407.435,-292.118"/>
</g>
<!-- Node92&#45;&gt;Node93 -->
<g id="edge20" class="edge"><title>Node92&#45;&gt;Node93</title>
<path fill="none" stroke="midnightblue" d="M528.553,-275.32C537.544,-275.201 546.775,-275.233 555.637,-275.416"/>
<polygon fill="midnightblue" stroke="midnightblue" points="528.464,-271.821 518.535,-275.518 528.602,-278.82 528.464,-271.821"/>
</g>
<!-- Node93&#45;&gt;Node92 -->
<g id="edge25" class="edge"><title>Node93&#45;&gt;Node92</title>
<path fill="none" stroke="midnightblue" d="M545.507,-288.726C536.454,-288.795 527.26,-288.714 518.535,-288.482"/>
<polygon fill="midnightblue" stroke="midnightblue" points="545.687,-292.224 555.637,-288.584 545.589,-285.225 545.687,-292.224"/>
</g>
<!-- Node94 -->
<g id="node17" class="node"><title>Node94</title>
<g id="a_node17"><a xlink:href="sdk_2include_2espconn_8h.html#a62219be0ac7e8dd6085915d5c0777476" target="_top" xlink:title="espconn_sendto">
<polygon fill="white" stroke="black" points="701,-272.5 701,-291.5 789,-291.5 789,-272.5 701,-272.5"/>
<text text-anchor="middle" x="745" y="-279.5" font-family="Helvetica,sans-Serif" font-size="10.00">espconn_sendto</text>
</a>
</g>
</g>
<!-- Node93&#45;&gt;Node94 -->
<g id="edge21" class="edge"><title>Node93&#45;&gt;Node94</title>
<path fill="none" stroke="midnightblue" d="M675.17,-282C683.879,-282 692.647,-282 700.871,-282"/>
<polygon fill="midnightblue" stroke="midnightblue" points="675.011,-278.5 665.011,-282 675.011,-285.5 675.011,-278.5"/>
</g>
<!-- Node95 -->
<g id="node18" class="node"><title>Node95</title>
<g id="a_node18"><a xlink:href="captdns_8c.html#a59c9a28ea1f015cff27b9d0c252d15f3" target="_top" xlink:title="captdnsRecv">
<polygon fill="white" stroke="black" points="825,-272.5 825,-291.5 899,-291.5 899,-272.5 825,-272.5"/>
<text text-anchor="middle" x="862" y="-279.5" font-family="Helvetica,sans-Serif" font-size="10.00">captdnsRecv</text>
</a>
</g>
</g>
<!-- Node94&#45;&gt;Node95 -->
<g id="edge22" class="edge"><title>Node94&#45;&gt;Node95</title>
<path fill="none" stroke="midnightblue" d="M799.198,-282C807.85,-282 816.633,-282 824.756,-282"/>
<polygon fill="midnightblue" stroke="midnightblue" points="799.149,-278.5 789.149,-282 799.149,-285.5 799.149,-278.5"/>
</g>
<!-- Node96 -->
<g id="node19" class="node"><title>Node96</title>
<g id="a_node19"><a xlink:href="captdns_8h.html#a88f42288d1b84cab204cca9e7f7aa9a3" target="_top" xlink:title="captdnsInit">
<polygon fill="white" stroke="black" points="935,-272.5 935,-291.5 1000,-291.5 1000,-272.5 935,-272.5"/>
<text text-anchor="middle" x="967.5" y="-279.5" font-family="Helvetica,sans-Serif" font-size="10.00">captdnsInit</text>
</a>
</g>
</g>
<!-- Node95&#45;&gt;Node96 -->
<g id="edge23" class="edge"><title>Node95&#45;&gt;Node96</title>
<path fill="none" stroke="midnightblue" d="M909.252,-275.284C917.948,-275.176 926.854,-275.325 934.972,-275.731"/>
<polygon fill="midnightblue" stroke="midnightblue" points="909.111,-271.786 899.199,-275.529 909.281,-278.784 909.111,-271.786"/>
</g>
<!-- Node96&#45;&gt;Node95 -->
<g id="edge24" class="edge"><title>Node96&#45;&gt;Node95</title>
<path fill="none" stroke="midnightblue" d="M924.86,-288.634C916.363,-288.831 907.488,-288.777 899.199,-288.471"/>
<polygon fill="midnightblue" stroke="midnightblue" points="925.105,-292.128 934.972,-288.269 924.853,-285.132 925.105,-292.128"/>
</g>
<!-- Node100 -->
<g id="node23" class="node"><title>Node100</title>
<g id="a_node23"><a xlink:href="espenc_8c.html#a55dfa017402fc9454bf75d0536cb2425" target="_top" xlink:title="enc_scoop_packets">
<polygon fill="white" stroke="black" points="416,-120.5 416,-139.5 520,-139.5 520,-120.5 416,-120.5"/>
<text text-anchor="middle" x="468" y="-127.5" font-family="Helvetica,sans-Serif" font-size="10.00">enc_scoop_packets</text>
</a>
</g>
</g>
<!-- Node99&#45;&gt;Node100 -->
<g id="edge30" class="edge"><title>Node99&#45;&gt;Node100</title>
<path fill="none" stroke="midnightblue" d="M390.395,-130C399.005,-130 407.638,-130 415.844,-130"/>
<polygon fill="midnightblue" stroke="midnightblue" points="390.326,-126.5 380.326,-130 390.326,-133.5 390.326,-126.5"/>
</g>
<!-- Node101 -->
<g id="node24" class="node"><title>Node101</title>
<g id="a_node24"><a xlink:href="espenc_8c.html#a0f5c2a11efd2f3a3ba9dd104d632e594" target="_top" xlink:title="swint_Task">
<polygon fill="white" stroke="black" points="577,-120.5 577,-139.5 644,-139.5 644,-120.5 577,-120.5"/>
<text text-anchor="middle" x="610.5" y="-127.5" font-family="Helvetica,sans-Serif" font-size="10.00">swint_Task</text>
</a>
</g>
</g>
<!-- Node100&#45;&gt;Node101 -->
<g id="edge31" class="edge"><title>Node100&#45;&gt;Node101</title>
<path fill="none" stroke="midnightblue" d="M530.517,-130C546.525,-130 563.147,-130 576.989,-130"/>
<polygon fill="midnightblue" stroke="midnightblue" points="530.121,-126.5 520.121,-130 530.121,-133.5 530.121,-126.5"/>
</g>
<!-- Node102 -->
<g id="node25" class="node"><title>Node102</title>
<g id="a_node25"><a xlink:href="espenc_8c.html#a193505f7e2d8f132ca9698a32783fe93" target="_top" xlink:title="espenc_init">
<polygon fill="white" stroke="black" points="712,-120.5 712,-139.5 778,-139.5 778,-120.5 712,-120.5"/>
<text text-anchor="middle" x="745" y="-127.5" font-family="Helvetica,sans-Serif" font-size="10.00">espenc_init</text>
</a>
</g>
</g>
<!-- Node101&#45;&gt;Node102 -->
<g id="edge32" class="edge"><title>Node101&#45;&gt;Node102</title>
<path fill="none" stroke="midnightblue" d="M654.262,-130C672.886,-130 694.356,-130 711.624,-130"/>
<polygon fill="midnightblue" stroke="midnightblue" points="654.253,-126.5 644.253,-130 654.253,-133.5 654.253,-126.5"/>
</g>
<!-- Node105 -->
<g id="node28" class="node"><title>Node105</title>
<g id="a_node28"><a xlink:href="tcpip_8c.html#a5cdcb6b784fe0e8736a5b31a5cfbed6c" target="_top" xlink:title="pbuf_free_callback">
<polygon fill="white" stroke="black" points="266.5,-44.5 266.5,-63.5 364.5,-63.5 364.5,-44.5 266.5,-44.5"/>
<text text-anchor="middle" x="315.5" y="-51.5" font-family="Helvetica,sans-Serif" font-size="10.00">pbuf_free_callback</text>
</a>
</g>
</g>
<!-- Node104&#45;&gt;Node105 -->
<g id="edge35" class="edge"><title>Node104&#45;&gt;Node105</title>
<path fill="none" stroke="midnightblue" d="M225.469,-54C239.11,-54 253.411,-54 266.46,-54"/>
<polygon fill="midnightblue" stroke="midnightblue" points="225.197,-50.5001 215.197,-54 225.197,-57.5001 225.197,-50.5001"/>
</g>
<!-- Node106 -->
<g id="node29" class="node"><title>Node106</title>
<g id="a_node29"><a xlink:href="tcpip_8c.html#a55b4de3765c6a37b3f2b26a11603771c" target="_top" xlink:title="mem_free_callback">
<polygon fill="white" stroke="black" points="265,-6.5 265,-25.5 366,-25.5 366,-6.5 265,-6.5"/>
<text text-anchor="middle" x="315.5" y="-13.5" font-family="Helvetica,sans-Serif" font-size="10.00">mem_free_callback</text>
</a>
</g>
</g>
<!-- Node104&#45;&gt;Node106 -->
<g id="edge36" class="edge"><title>Node104&#45;&gt;Node106</title>
<path fill="none" stroke="midnightblue" d="M225.321,-38.6677C242.78,-34.2298 261.331,-29.5144 276.966,-25.5403"/>
<polygon fill="midnightblue" stroke="midnightblue" points="224.027,-35.3852 215.197,-41.2408 225.751,-42.1694 224.027,-35.3852"/>
</g>
</g>
</svg>
