<?xml version="1.0" encoding="UTF-8" standalone="no"?>
<!DOCTYPE svg PUBLIC "-//W3C//DTD SVG 1.1//EN"
 "http://www.w3.org/Graphics/SVG/1.1/DTD/svg11.dtd">
<!-- Generated by graphviz version 2.38.0 (20140413.2041)
 -->
<!-- Title: mqtt_msg_pubrec Pages: 1 -->
<svg width="765pt" height="66pt"
 viewBox="0.00 0.00 765.00 66.00" xmlns="http://www.w3.org/2000/svg" xmlns:xlink="http://www.w3.org/1999/xlink">
<g id="graph0" class="graph" transform="scale(1 1) rotate(0) translate(4 62)">
<title>mqtt_msg_pubrec</title>
<polygon fill="white" stroke="none" points="-4,4 -4,-62 761,-62 761,4 -4,4"/>
<!-- Node387 -->
<g id="node1" class="node"><title>Node387</title>
<polygon fill="#bfbfbf" stroke="black" points="0,-19.5 0,-38.5 95,-38.5 95,-19.5 0,-19.5"/>
<text text-anchor="middle" x="47.5" y="-26.5" font-family="Helvetica,sans-Serif" font-size="10.00">mqtt_msg_pubrec</text>
</g>
<!-- Node388 -->
<g id="node2" class="node"><title>Node388</title>
<g id="a_node2"><a xlink:href="mqtt__msg_8h.html#affd61b4be51d1e29e51dfbc42489ba36" target="_top" xlink:title="mqtt_get_retain">
<polygon fill="white" stroke="black" points="140,-38.5 140,-57.5 224,-57.5 224,-38.5 140,-38.5"/>
<text text-anchor="middle" x="182" y="-45.5" font-family="Helvetica,sans-Serif" font-size="10.00">mqtt_get_retain</text>
</a>
</g>
</g>
<!-- Node387&#45;&gt;Node388 -->
<g id="edge1" class="edge"><title>Node387&#45;&gt;Node388</title>
<path fill="none" stroke="midnightblue" d="M105.317,-37.1474C116.972,-38.8186 129.025,-40.5469 139.992,-42.1196"/>
<polygon fill="midnightblue" stroke="midnightblue" points="105.61,-33.6537 95.2145,-35.6987 104.616,-40.5828 105.61,-33.6537"/>
</g>
<!-- Node389 -->
<g id="node3" class="node"><title>Node389</title>
<g id="a_node3"><a xlink:href="mqtt_8c.html#af470856972320b9c02da9fcb6f419fd0" target="_top" xlink:title="Client received callback function. ">
<polygon fill="white" stroke="black" points="131,-0.5 131,-19.5 233,-19.5 233,-0.5 131,-0.5"/>
<text text-anchor="middle" x="182" y="-7.5" font-family="Helvetica,sans-Serif" font-size="10.00">mqtt_tcpclient_recv</text>
</a>
</g>
</g>
<!-- Node387&#45;&gt;Node389 -->
<g id="edge2" class="edge"><title>Node387&#45;&gt;Node389</title>
<path fill="none" stroke="midnightblue" d="M105.342,-20.849C113.76,-19.6419 122.385,-18.4052 130.658,-17.2189"/>
<polygon fill="midnightblue" stroke="midnightblue" points="104.616,-17.4172 95.2145,-22.3013 105.61,-24.3463 104.616,-17.4172"/>
</g>
<!-- Node390 -->
<g id="node4" class="node"><title>Node390</title>
<g id="a_node4"><a xlink:href="mqtt_8c.html#a36ecd969af1b9c87856f01be064a98cc" target="_top" xlink:title="Tcp client connect success callback function. ">
<polygon fill="white" stroke="black" points="269,-0.5 269,-19.5 403,-19.5 403,-0.5 269,-0.5"/>
<text text-anchor="middle" x="336" y="-7.5" font-family="Helvetica,sans-Serif" font-size="10.00">mqtt_tcpclient_connect_cb</text>
</a>
</g>
</g>
<!-- Node389&#45;&gt;Node390 -->
<g id="edge3" class="edge"><title>Node389&#45;&gt;Node390</title>
<path fill="none" stroke="midnightblue" d="M243.282,-10C251.687,-10 260.36,-10 268.866,-10"/>
<polygon fill="midnightblue" stroke="midnightblue" points="243.192,-6.5001 233.192,-10 243.192,-13.5001 243.192,-6.5001"/>
</g>
<!-- Node391 -->
<g id="node5" class="node"><title>Node391</title>
<g id="a_node5"><a xlink:href="mqtt_8c.html#ad34b681cb2f7473d8fc786c7ed468db5" target="_top" xlink:title="Begin connect to MQTT broker. ">
<polygon fill="white" stroke="black" points="439,-0.5 439,-19.5 525,-19.5 525,-0.5 439,-0.5"/>
<text text-anchor="middle" x="482" y="-7.5" font-family="Helvetica,sans-Serif" font-size="10.00">MQTT_Connect</text>
</a>
</g>
</g>
<!-- Node390&#45;&gt;Node391 -->
<g id="edge4" class="edge"><title>Node390&#45;&gt;Node391</title>
<path fill="none" stroke="midnightblue" d="M413.353,-10C422.08,-10 430.722,-10 438.762,-10"/>
<polygon fill="midnightblue" stroke="midnightblue" points="413.1,-6.5001 403.1,-10 413.1,-13.5001 413.1,-6.5001"/>
</g>
<!-- Node392 -->
<g id="node6" class="node"><title>Node392</title>
<g id="a_node6"><a xlink:href="mqtt_8c.html#a9d88fa6efb9163d4dbf9dc750a8d4ed0" target="_top" xlink:title="MQTT_Task">
<polygon fill="white" stroke="black" points="561,-0.5 561,-19.5 632,-19.5 632,-0.5 561,-0.5"/>
<text text-anchor="middle" x="596.5" y="-7.5" font-family="Helvetica,sans-Serif" font-size="10.00">MQTT_Task</text>
</a>
</g>
</g>
<!-- Node391&#45;&gt;Node392 -->
<g id="edge5" class="edge"><title>Node391&#45;&gt;Node392</title>
<path fill="none" stroke="midnightblue" d="M535.258,-10C543.908,-10 552.684,-10 560.764,-10"/>
<polygon fill="midnightblue" stroke="midnightblue" points="535.211,-6.5001 525.211,-10 535.211,-13.5001 535.211,-6.5001"/>
</g>
<!-- Node393 -->
<g id="node7" class="node"><title>Node393</title>
<g id="a_node7"><a xlink:href="mqtt_8c.html#a25cb7ac079d1d119250dac075c45acf1" target="_top" xlink:title="MQTT initialization mqtt client function. ">
<polygon fill="white" stroke="black" points="668,-0.5 668,-19.5 757,-19.5 757,-0.5 668,-0.5"/>
<text text-anchor="middle" x="712.5" y="-7.5" font-family="Helvetica,sans-Serif" font-size="10.00">MQTT_InitClient</text>
</a>
</g>
</g>
<!-- Node392&#45;&gt;Node393 -->
<g id="edge6" class="edge"><title>Node392&#45;&gt;Node393</title>
<path fill="none" stroke="midnightblue" d="M642.085,-10C650.541,-10 659.381,-10 667.809,-10"/>
<polygon fill="midnightblue" stroke="midnightblue" points="642.013,-6.5001 632.013,-10 642.013,-13.5001 642.013,-6.5001"/>
</g>
</g>
</svg>
