<?xml version="1.0" encoding="UTF-8" standalone="no"?>
<!DOCTYPE svg PUBLIC "-//W3C//DTD SVG 1.1//EN"
 "http://www.w3.org/Graphics/SVG/1.1/DTD/svg11.dtd">
<!-- Generated by graphviz version 2.38.0 (20140413.2041)
 -->
<!-- Title: mqtt_rpc_restart Pages: 1 -->
<svg width="833pt" height="1128pt"
 viewBox="0.00 0.00 833.00 1128.00" xmlns="http://www.w3.org/2000/svg" xmlns:xlink="http://www.w3.org/1999/xlink">
<g id="graph0" class="graph" transform="scale(1 1) rotate(0) translate(4 1124)">
<title>mqtt_rpc_restart</title>
<polygon fill="white" stroke="none" points="-4,4 -4,-1124 829,-1124 829,4 -4,4"/>
<!-- Node563 -->
<g id="node1" class="node"><title>Node563</title>
<polygon fill="#bfbfbf" stroke="black" points="0,-677.5 0,-696.5 88,-696.5 88,-677.5 0,-677.5"/>
<text text-anchor="middle" x="44" y="-684.5" font-family="Helvetica,sans-Serif" font-size="10.00">mqtt_rpc_restart</text>
</g>
<!-- Node564 -->
<g id="node2" class="node"><title>Node564</title>
<g id="a_node2"><a xlink:href="en61107__request_8c.html#a2e53aff8d679705828aa9c3583340eaa" target="_top" xlink:title="en61107_get_received\l_serial">
<polygon fill="white" stroke="black" points="140,-861 140,-891 254,-891 254,-861 140,-861"/>
<text text-anchor="start" x="148" y="-879" font-family="Helvetica,sans-Serif" font-size="10.00">en61107_get_received</text>
<text text-anchor="middle" x="197" y="-868" font-family="Helvetica,sans-Serif" font-size="10.00">_serial</text>
</a>
</g>
</g>
<!-- Node563&#45;&gt;Node564 -->
<g id="edge1" class="edge"><title>Node563&#45;&gt;Node564</title>
<path fill="none" stroke="midnightblue" d="M47.2542,-696.659C54.073,-723.861 76.9615,-801.983 124,-846 128.017,-849.759 132.572,-853.08 137.393,-856.008"/>
<polygon fill="midnightblue" stroke="midnightblue" points="135.845,-859.151 146.301,-860.864 139.196,-853.004 135.845,-859.151"/>
</g>
<!-- Node567 -->
<g id="node5" class="node"><title>Node567</title>
<g id="a_node5"><a xlink:href="tinyprintf_8c.html#a9738cbc6c538d210941db282e240c7d6" target="_top" xlink:title="tfp_snprintf">
<polygon fill="white" stroke="black" points="644,-898.5 644,-917.5 709,-917.5 709,-898.5 644,-898.5"/>
<text text-anchor="middle" x="676.5" y="-905.5" font-family="Helvetica,sans-Serif" font-size="10.00">tfp_snprintf</text>
</a>
</g>
</g>
<!-- Node563&#45;&gt;Node567 -->
<g id="edge57" class="edge"><title>Node563&#45;&gt;Node567</title>
<path fill="none" stroke="midnightblue" d="M64.7981,-696.54C80.7728,-704.233 103.827,-715.327 124,-725 204.842,-763.765 220.066,-786.438 306,-812 431.918,-849.455 477.312,-801.499 599,-851 621.828,-860.286 643.964,-878.034 658.5,-891.27"/>
<polygon fill="midnightblue" stroke="midnightblue" points="656.445,-894.143 666.128,-898.444 661.241,-889.043 656.445,-894.143"/>
</g>
<!-- Node580 -->
<g id="node7" class="node"><title>Node580</title>
<g id="a_node7"><a xlink:href="crypto_8c.html#a7991ec94c8faa24921947687f2d587a0" target="_top" xlink:title="encrypt_aes_hmac_combined">
<polygon fill="white" stroke="black" points="124,-696.5 124,-715.5 270,-715.5 270,-696.5 124,-696.5"/>
<text text-anchor="middle" x="197" y="-703.5" font-family="Helvetica,sans-Serif" font-size="10.00">encrypt_aes_hmac_combined</text>
</a>
</g>
</g>
<!-- Node563&#45;&gt;Node580 -->
<g id="edge6" class="edge"><title>Node563&#45;&gt;Node580</title>
<path fill="none" stroke="midnightblue" d="M88.2705,-692.445C96.3754,-693.464 105.09,-694.561 113.926,-695.673"/>
<polygon fill="midnightblue" stroke="midnightblue" points="113.569,-699.155 123.927,-696.931 114.443,-692.21 113.569,-699.155"/>
</g>
<!-- Node591 -->
<g id="node17" class="node"><title>Node591</title>
<g id="a_node17"><a xlink:href="exception__handler_8c.html#a2e398672b972b305c3c493fef388989f" target="_top" xlink:title="exception_handler_init">
<polygon fill="white" stroke="black" points="140.5,-939.5 140.5,-958.5 253.5,-958.5 253.5,-939.5 140.5,-939.5"/>
<text text-anchor="middle" x="197" y="-946.5" font-family="Helvetica,sans-Serif" font-size="10.00">exception_handler_init</text>
</a>
</g>
</g>
<!-- Node563&#45;&gt;Node591 -->
<g id="edge22" class="edge"><title>Node563&#45;&gt;Node591</title>
<path fill="none" stroke="midnightblue" d="M46.4077,-696.502C51.535,-728.376 71.7282,-833.23 124,-900 135.239,-914.357 151.865,-926.06 166.31,-934.425"/>
<polygon fill="midnightblue" stroke="midnightblue" points="164.96,-937.677 175.408,-939.433 168.336,-931.545 164.96,-937.677"/>
</g>
<!-- Node604 -->
<g id="node25" class="node"><title>Node604</title>
<g id="a_node25"><a xlink:href="unix__time_8c.html#a36607dbd5be7bee11f8c20932b3df407" target="_top" xlink:title="get_unix_time">
<polygon fill="white" stroke="black" points="158.5,-658.5 158.5,-677.5 235.5,-677.5 235.5,-658.5 158.5,-658.5"/>
<text text-anchor="middle" x="197" y="-665.5" font-family="Helvetica,sans-Serif" font-size="10.00">get_unix_time</text>
</a>
</g>
</g>
<!-- Node563&#45;&gt;Node604 -->
<g id="edge31" class="edge"><title>Node563&#45;&gt;Node604</title>
<path fill="none" stroke="midnightblue" d="M88.2705,-681.555C107.034,-679.194 129.067,-676.422 148.302,-674.002"/>
<polygon fill="midnightblue" stroke="midnightblue" points="148.882,-677.457 158.366,-672.735 148.008,-670.511 148.882,-677.457"/>
</g>
<!-- Node606 -->
<g id="node27" class="node"><title>Node606</title>
<g id="a_node27"><a xlink:href="kmp__request_8c.html#ae812917b104be167131436ca730cdbe6" target="_top" xlink:title="kmp_get_received_serial">
<polygon fill="white" stroke="black" points="134.5,-620.5 134.5,-639.5 259.5,-639.5 259.5,-620.5 134.5,-620.5"/>
<text text-anchor="middle" x="197" y="-627.5" font-family="Helvetica,sans-Serif" font-size="10.00">kmp_get_received_serial</text>
</a>
</g>
</g>
<!-- Node563&#45;&gt;Node606 -->
<g id="edge33" class="edge"><title>Node563&#45;&gt;Node606</title>
<path fill="none" stroke="midnightblue" d="M62.4643,-677.407C78.2005,-669.054 102.151,-657.054 124,-649 130.52,-646.597 137.476,-644.365 144.398,-642.339"/>
<polygon fill="midnightblue" stroke="midnightblue" points="145.773,-645.588 154.459,-639.521 143.886,-638.847 145.773,-645.588"/>
</g>
<!-- Node607 -->
<g id="node28" class="node"><title>Node607</title>
<g id="a_node28"><a xlink:href="mqtt_8h.html#a848a6701c4c7ec3432e38ea57c003aad" target="_top" xlink:title="MQTT publish function. ">
<polygon fill="white" stroke="black" points="156,-506.5 156,-525.5 238,-525.5 238,-506.5 156,-506.5"/>
<text text-anchor="middle" x="197" y="-513.5" font-family="Helvetica,sans-Serif" font-size="10.00">MQTT_Publish</text>
</a>
</g>
</g>
<!-- Node563&#45;&gt;Node607 -->
<g id="edge34" class="edge"><title>Node563&#45;&gt;Node607</title>
<path fill="none" stroke="midnightblue" d="M53.5511,-677.316C78.1562,-649.452 149.375,-568.801 180.797,-533.216"/>
<polygon fill="midnightblue" stroke="midnightblue" points="183.547,-535.39 187.543,-525.577 178.3,-530.757 183.547,-535.39"/>
</g>
<!-- Node623 -->
<g id="node39" class="node"><title>Node623</title>
<g id="a_node39"><a xlink:href="utils_8c.html#abc584694613811efea7c661c9dcefe17" target="_top" xlink:title="system_restart_defered">
<polygon fill="white" stroke="black" points="137.5,-221.5 137.5,-240.5 256.5,-240.5 256.5,-221.5 137.5,-221.5"/>
<text text-anchor="middle" x="197" y="-228.5" font-family="Helvetica,sans-Serif" font-size="10.00">system_restart_defered</text>
</a>
</g>
</g>
<!-- Node563&#45;&gt;Node623 -->
<g id="edge45" class="edge"><title>Node563&#45;&gt;Node623</title>
<path fill="none" stroke="midnightblue" d="M48.1538,-677.476C66.8818,-620.92 163.543,-329.015 189.55,-250.477"/>
<polygon fill="midnightblue" stroke="midnightblue" points="192.915,-251.451 192.736,-240.858 186.269,-249.251 192.915,-251.451"/>
</g>
<!-- Node565 -->
<g id="node3" class="node"><title>Node565</title>
<g id="a_node3"><a xlink:href="utils_8c.html#a1191f72bae2076af31834d47faa7ee14" target="_top" xlink:title="multiply_str_by_1000">
<polygon fill="white" stroke="black" points="321.5,-866.5 321.5,-885.5 430.5,-885.5 430.5,-866.5 321.5,-866.5"/>
<text text-anchor="middle" x="376" y="-873.5" font-family="Helvetica,sans-Serif" font-size="10.00">multiply_str_by_1000</text>
</a>
</g>
</g>
<!-- Node564&#45;&gt;Node565 -->
<g id="edge2" class="edge"><title>Node564&#45;&gt;Node565</title>
<path fill="none" stroke="midnightblue" d="M254.004,-876C272.206,-876 292.538,-876 311.261,-876"/>
<polygon fill="midnightblue" stroke="midnightblue" points="311.474,-879.5 321.474,-876 311.474,-872.5 311.474,-879.5"/>
</g>
<!-- Node566 -->
<g id="node4" class="node"><title>Node566</title>
<g id="a_node4"><a xlink:href="utils_8c.html#af7f86262824738791bf4a3328d09aacf" target="_top" xlink:title="int_pow">
<polygon fill="white" stroke="black" points="515.5,-860.5 515.5,-879.5 565.5,-879.5 565.5,-860.5 515.5,-860.5"/>
<text text-anchor="middle" x="540.5" y="-867.5" font-family="Helvetica,sans-Serif" font-size="10.00">int_pow</text>
</a>
</g>
</g>
<!-- Node565&#45;&gt;Node566 -->
<g id="edge3" class="edge"><title>Node565&#45;&gt;Node566</title>
<path fill="none" stroke="midnightblue" d="M430.659,-874.019C455.287,-873.109 483.754,-872.058 505.396,-871.259"/>
<polygon fill="midnightblue" stroke="midnightblue" points="505.562,-874.756 515.426,-870.889 505.303,-867.76 505.562,-874.756"/>
</g>
<!-- Node565&#45;&gt;Node567 -->
<g id="edge4" class="edge"><title>Node565&#45;&gt;Node567</title>
<path fill="none" stroke="midnightblue" d="M430.655,-882.908C447.118,-884.957 465.296,-887.146 482,-889 534.355,-894.811 594.784,-900.597 633.989,-904.23"/>
<polygon fill="midnightblue" stroke="midnightblue" points="633.69,-907.717 643.97,-905.151 634.334,-900.747 633.69,-907.717"/>
</g>
<!-- Node568 -->
<g id="node6" class="node"><title>Node568</title>
<g id="a_node6"><a xlink:href="tinyprintf_8c.html#ac8c8a66133cf0d7009c0d73b55311a44" target="_top" xlink:title="tfp_vsnprintf">
<polygon fill="white" stroke="red" points="754,-898.5 754,-917.5 825,-917.5 825,-898.5 754,-898.5"/>
<text text-anchor="middle" x="789.5" y="-905.5" font-family="Helvetica,sans-Serif" font-size="10.00">tfp_vsnprintf</text>
</a>
</g>
</g>
<!-- Node567&#45;&gt;Node568 -->
<g id="edge5" class="edge"><title>Node567&#45;&gt;Node568</title>
<path fill="none" stroke="midnightblue" d="M709.011,-908C719.818,-908 732.128,-908 743.778,-908"/>
<polygon fill="midnightblue" stroke="midnightblue" points="743.793,-911.5 753.793,-908 743.793,-904.5 743.793,-911.5"/>
</g>
<!-- Node581 -->
<g id="node8" class="node"><title>Node581</title>
<g id="a_node8"><a xlink:href="aes_8h.html#a9cb9b4ad9fb6311391d669e54f718cf4" target="_top" xlink:title="AES128_CBC_encrypt\l_buffer">
<polygon fill="white" stroke="black" points="317.5,-773 317.5,-803 434.5,-803 434.5,-773 317.5,-773"/>
<text text-anchor="start" x="325.5" y="-791" font-family="Helvetica,sans-Serif" font-size="10.00">AES128_CBC_encrypt</text>
<text text-anchor="middle" x="376" y="-780" font-family="Helvetica,sans-Serif" font-size="10.00">_buffer</text>
</a>
</g>
</g>
<!-- Node580&#45;&gt;Node581 -->
<g id="edge7" class="edge"><title>Node580&#45;&gt;Node581</title>
<path fill="none" stroke="midnightblue" d="M217.404,-715.621C238.94,-726.235 274.781,-743.704 306,-758 313.853,-761.596 322.253,-765.336 330.393,-768.906"/>
<polygon fill="midnightblue" stroke="midnightblue" points="329.216,-772.211 339.782,-772.999 332.014,-765.794 329.216,-772.211"/>
</g>
<!-- Node582 -->
<g id="node9" class="node"><title>Node582</title>
<g id="a_node9"><a xlink:href="hmac-sha256_8c.html#a7fad664b062689148a6b1ee5d4bc790d" target="_top" xlink:title="hmac_sha256_final">
<polygon fill="white" stroke="black" points="490,-658.5 490,-677.5 591,-677.5 591,-658.5 490,-658.5"/>
<text text-anchor="middle" x="540.5" y="-665.5" font-family="Helvetica,sans-Serif" font-size="10.00">hmac_sha256_final</text>
</a>
</g>
</g>
<!-- Node580&#45;&gt;Node582 -->
<g id="edge8" class="edge"><title>Node580&#45;&gt;Node582</title>
<path fill="none" stroke="midnightblue" d="M246.508,-696.477C265.062,-693.095 286.456,-689.509 306,-687 364.818,-679.45 432.379,-674.337 479.645,-671.334"/>
<polygon fill="midnightblue" stroke="midnightblue" points="479.947,-674.822 489.71,-670.707 479.512,-667.835 479.947,-674.822"/>
</g>
<!-- Node587 -->
<g id="node13" class="node"><title>Node587</title>
<g id="a_node13"><a xlink:href="hmac-sha256_8c.html#a553a08d76959d7d64d25927fa418af1f" target="_top" xlink:title="hmac_sha256_init">
<polygon fill="white" stroke="black" points="328.5,-696.5 328.5,-715.5 423.5,-715.5 423.5,-696.5 328.5,-696.5"/>
<text text-anchor="middle" x="376" y="-703.5" font-family="Helvetica,sans-Serif" font-size="10.00">hmac_sha256_init</text>
</a>
</g>
</g>
<!-- Node580&#45;&gt;Node587 -->
<g id="edge12" class="edge"><title>Node580&#45;&gt;Node587</title>
<path fill="none" stroke="midnightblue" d="M270.248,-706C286.17,-706 302.818,-706 318.036,-706"/>
<polygon fill="midnightblue" stroke="midnightblue" points="318.316,-709.5 328.316,-706 318.316,-702.5 318.316,-709.5"/>
</g>
<!-- Node589 -->
<g id="node15" class="node"><title>Node589</title>
<g id="a_node15"><a xlink:href="hmac-sha256_8c.html#a604cda5243425d008a47d89401e7c987" target="_top" xlink:title="hmac_sha256_update">
<polygon fill="white" stroke="black" points="484.5,-772.5 484.5,-791.5 596.5,-791.5 596.5,-772.5 484.5,-772.5"/>
<text text-anchor="middle" x="540.5" y="-779.5" font-family="Helvetica,sans-Serif" font-size="10.00">hmac_sha256_update</text>
</a>
</g>
</g>
<!-- Node580&#45;&gt;Node589 -->
<g id="edge19" class="edge"><title>Node580&#45;&gt;Node589</title>
<path fill="none" stroke="midnightblue" d="M240.905,-715.548C303.355,-729.446 419.187,-755.225 486.759,-770.263"/>
<polygon fill="midnightblue" stroke="midnightblue" points="486.249,-773.735 496.77,-772.491 487.769,-766.902 486.249,-773.735"/>
</g>
<!-- Node590 -->
<g id="node16" class="node"><title>Node590</title>
<g id="a_node16"><a xlink:href="osapi_8h.html#a266983148ba59f7bac481c76b7540da2" target="_top" xlink:title="os_get_random">
<polygon fill="white" stroke="black" points="334.5,-620.5 334.5,-639.5 417.5,-639.5 417.5,-620.5 334.5,-620.5"/>
<text text-anchor="middle" x="376" y="-627.5" font-family="Helvetica,sans-Serif" font-size="10.00">os_get_random</text>
</a>
</g>
</g>
<!-- Node580&#45;&gt;Node590 -->
<g id="edge21" class="edge"><title>Node580&#45;&gt;Node590</title>
<path fill="none" stroke="midnightblue" d="M247.257,-696.424C255.116,-693.938 262.966,-690.843 270,-687 289.048,-676.594 287.365,-665.128 306,-654 313.122,-649.747 321.109,-646.1 329.054,-643.028"/>
<polygon fill="midnightblue" stroke="midnightblue" points="330.443,-646.248 338.663,-639.563 328.069,-639.663 330.443,-646.248"/>
</g>
<!-- Node583 -->
<g id="node10" class="node"><title>Node583</title>
<g id="a_node10"><a xlink:href="sha256_8c.html#a28a4e37e67f8b97b374c49d8b83d8167" target="_top" xlink:title="sha256_final">
<polygon fill="white" stroke="red" points="641,-696.5 641,-715.5 712,-715.5 712,-696.5 641,-696.5"/>
<text text-anchor="middle" x="676.5" y="-703.5" font-family="Helvetica,sans-Serif" font-size="10.00">sha256_final</text>
</a>
</g>
</g>
<!-- Node582&#45;&gt;Node583 -->
<g id="edge9" class="edge"><title>Node582&#45;&gt;Node583</title>
<path fill="none" stroke="midnightblue" d="M575.314,-677.589C592.533,-682.472 613.664,-688.464 632.073,-693.685"/>
<polygon fill="midnightblue" stroke="midnightblue" points="631.121,-697.053 641.697,-696.414 633.031,-690.319 631.121,-697.053"/>
</g>
<!-- Node585 -->
<g id="node11" class="node"><title>Node585</title>
<g id="a_node11"><a xlink:href="sha256_8c.html#ad1c794b2d7e8eba243628e45cb69ef94" target="_top" xlink:title="sha256_init">
<polygon fill="white" stroke="black" points="643.5,-658.5 643.5,-677.5 709.5,-677.5 709.5,-658.5 643.5,-658.5"/>
<text text-anchor="middle" x="676.5" y="-665.5" font-family="Helvetica,sans-Serif" font-size="10.00">sha256_init</text>
</a>
</g>
</g>
<!-- Node582&#45;&gt;Node585 -->
<g id="edge10" class="edge"><title>Node582&#45;&gt;Node585</title>
<path fill="none" stroke="midnightblue" d="M591.016,-668C604.782,-668 619.606,-668 632.935,-668"/>
<polygon fill="midnightblue" stroke="midnightblue" points="633.256,-671.5 643.256,-668 633.256,-664.5 633.256,-671.5"/>
</g>
<!-- Node586 -->
<g id="node12" class="node"><title>Node586</title>
<g id="a_node12"><a xlink:href="sha256_8c.html#a00647246fd4532c27d1aafd709d5973d" target="_top" xlink:title="sha256_update">
<polygon fill="white" stroke="red" points="635,-734.5 635,-753.5 718,-753.5 718,-734.5 635,-734.5"/>
<text text-anchor="middle" x="676.5" y="-741.5" font-family="Helvetica,sans-Serif" font-size="10.00">sha256_update</text>
</a>
</g>
</g>
<!-- Node582&#45;&gt;Node586 -->
<g id="edge11" class="edge"><title>Node582&#45;&gt;Node586</title>
<path fill="none" stroke="midnightblue" d="M579.523,-677.602C586.281,-680.123 593.054,-683.224 599,-687 618.639,-699.471 616.141,-711.378 635,-725 637.225,-726.607 639.608,-728.133 642.062,-729.569"/>
<polygon fill="midnightblue" stroke="midnightblue" points="640.636,-732.774 651.111,-734.361 643.912,-726.588 640.636,-732.774"/>
</g>
<!-- Node587&#45;&gt;Node585 -->
<g id="edge13" class="edge"><title>Node587&#45;&gt;Node585</title>
<path fill="none" stroke="midnightblue" d="M389.7,-696.341C408.603,-682.636 445.813,-658.189 482,-649 533.617,-635.893 595.104,-646.157 634.691,-655.964"/>
<polygon fill="midnightblue" stroke="midnightblue" points="633.953,-659.389 644.511,-658.499 635.703,-652.611 633.953,-659.389"/>
</g>
<!-- Node587&#45;&gt;Node586 -->
<g id="edge18" class="edge"><title>Node587&#45;&gt;Node586</title>
<path fill="none" stroke="midnightblue" d="M423.65,-715.28C441.81,-718.672 462.826,-722.328 482,-725 530.336,-731.735 585.794,-736.923 624.912,-740.163"/>
<polygon fill="midnightblue" stroke="midnightblue" points="624.74,-743.66 634.991,-740.985 625.308,-736.684 624.74,-743.66"/>
</g>
<!-- Node588 -->
<g id="node14" class="node"><title>Node588</title>
<g id="a_node14"><a xlink:href="sha256_8c.html#a7f22a0894ca55160852ddcdff7a1f2fc" target="_top" xlink:title="sha256_raw">
<polygon fill="white" stroke="black" points="506,-696.5 506,-715.5 575,-715.5 575,-696.5 506,-696.5"/>
<text text-anchor="middle" x="540.5" y="-703.5" font-family="Helvetica,sans-Serif" font-size="10.00">sha256_raw</text>
</a>
</g>
</g>
<!-- Node587&#45;&gt;Node588 -->
<g id="edge14" class="edge"><title>Node587&#45;&gt;Node588</title>
<path fill="none" stroke="midnightblue" d="M423.566,-706C446.236,-706 473.34,-706 495.64,-706"/>
<polygon fill="midnightblue" stroke="midnightblue" points="495.836,-709.5 505.836,-706 495.836,-702.5 495.836,-709.5"/>
</g>
<!-- Node588&#45;&gt;Node583 -->
<g id="edge15" class="edge"><title>Node588&#45;&gt;Node583</title>
<path fill="none" stroke="midnightblue" d="M575.314,-706C592.113,-706 612.637,-706 630.724,-706"/>
<polygon fill="midnightblue" stroke="midnightblue" points="630.763,-709.5 640.763,-706 630.763,-702.5 630.763,-709.5"/>
</g>
<!-- Node588&#45;&gt;Node585 -->
<g id="edge16" class="edge"><title>Node588&#45;&gt;Node585</title>
<path fill="none" stroke="midnightblue" d="M575.314,-696.411C592.927,-691.416 614.634,-685.261 633.334,-679.958"/>
<polygon fill="midnightblue" stroke="midnightblue" points="634.418,-683.288 643.084,-677.193 632.508,-676.554 634.418,-683.288"/>
</g>
<!-- Node588&#45;&gt;Node586 -->
<g id="edge17" class="edge"><title>Node588&#45;&gt;Node586</title>
<path fill="none" stroke="midnightblue" d="M575.314,-715.589C592.533,-720.472 613.664,-726.464 632.073,-731.685"/>
<polygon fill="midnightblue" stroke="midnightblue" points="631.121,-735.053 641.697,-734.414 633.031,-728.319 631.121,-735.053"/>
</g>
<!-- Node589&#45;&gt;Node586 -->
<g id="edge20" class="edge"><title>Node589&#45;&gt;Node586</title>
<path fill="none" stroke="midnightblue" d="M575.314,-772.411C592.533,-767.528 613.664,-761.536 632.073,-756.315"/>
<polygon fill="midnightblue" stroke="midnightblue" points="633.031,-759.681 641.697,-753.586 631.121,-752.947 633.031,-759.681"/>
</g>
<!-- Node592 -->
<g id="node18" class="node"><title>Node592</title>
<g id="a_node18"><a xlink:href="exception__handler_8c.html#a1c9b6a90ee9a9ad4fccb0ce94c6536c3" target="_top" xlink:title="_xtos_set_exception\l_handler">
<polygon fill="white" stroke="black" points="322.5,-934 322.5,-964 429.5,-964 429.5,-934 322.5,-934"/>
<text text-anchor="start" x="330.5" y="-952" font-family="Helvetica,sans-Serif" font-size="10.00">_xtos_set_exception</text>
<text text-anchor="middle" x="376" y="-941" font-family="Helvetica,sans-Serif" font-size="10.00">_handler</text>
</a>
</g>
</g>
<!-- Node591&#45;&gt;Node592 -->
<g id="edge23" class="edge"><title>Node591&#45;&gt;Node592</title>
<path fill="none" stroke="midnightblue" d="M253.518,-949C272.167,-949 293.095,-949 312.259,-949"/>
<polygon fill="midnightblue" stroke="midnightblue" points="312.397,-952.5 322.397,-949 312.397,-945.5 312.397,-952.5"/>
</g>
<!-- Node593 -->
<g id="node19" class="node"><title>Node593</title>
<g id="a_node19"><a xlink:href="exception__handler_8c.html#a4ce27bb819b79646b07f435f96c7bf93" target="_top" xlink:title="exception_handler">
<polygon fill="white" stroke="black" points="328.5,-993.5 328.5,-1012.5 423.5,-1012.5 423.5,-993.5 328.5,-993.5"/>
<text text-anchor="middle" x="376" y="-1000.5" font-family="Helvetica,sans-Serif" font-size="10.00">exception_handler</text>
</a>
</g>
</g>
<!-- Node591&#45;&gt;Node593 -->
<g id="edge24" class="edge"><title>Node591&#45;&gt;Node593</title>
<path fill="none" stroke="midnightblue" d="M229.237,-958.53C258.341,-967.409 301.926,-980.706 333.855,-990.447"/>
<polygon fill="midnightblue" stroke="midnightblue" points="333.192,-993.904 343.778,-993.475 335.235,-987.209 333.192,-993.904"/>
</g>
<!-- Node594 -->
<g id="node20" class="node"><title>Node594</title>
<g id="a_node20"><a xlink:href="exception__handler_8c.html#af8b076b97d7fd765618833c4125e3239" target="_top" xlink:title="ets_wdt_disable">
<polygon fill="white" stroke="black" points="497,-974.5 497,-993.5 584,-993.5 584,-974.5 497,-974.5"/>
<text text-anchor="middle" x="540.5" y="-981.5" font-family="Helvetica,sans-Serif" font-size="10.00">ets_wdt_disable</text>
</a>
</g>
</g>
<!-- Node593&#45;&gt;Node594 -->
<g id="edge25" class="edge"><title>Node593&#45;&gt;Node594</title>
<path fill="none" stroke="midnightblue" d="M423.566,-997.555C443.303,-995.248 466.401,-992.547 486.763,-990.166"/>
<polygon fill="midnightblue" stroke="midnightblue" points="487.294,-993.628 496.82,-988.99 486.481,-986.675 487.294,-993.628"/>
</g>
<!-- Node595 -->
<g id="node21" class="node"><title>Node595</title>
<g id="a_node21"><a xlink:href="exception__handler_8c.html#a49abdd9a7e4e115bab020597acd89f0a" target="_top" xlink:title="ets_wdt_enable">
<polygon fill="white" stroke="black" points="498,-1100.5 498,-1119.5 583,-1119.5 583,-1100.5 498,-1100.5"/>
<text text-anchor="middle" x="540.5" y="-1107.5" font-family="Helvetica,sans-Serif" font-size="10.00">ets_wdt_enable</text>
</a>
</g>
</g>
<!-- Node593&#45;&gt;Node595 -->
<g id="edge26" class="edge"><title>Node593&#45;&gt;Node595</title>
<path fill="none" stroke="midnightblue" d="M385.926,-1012.58C402.991,-1030.39 442.108,-1068.77 482,-1091 485.876,-1093.16 490.037,-1095.12 494.283,-1096.9"/>
<polygon fill="midnightblue" stroke="midnightblue" points="493.048,-1100.17 503.638,-1100.48 495.551,-1093.64 493.048,-1100.17"/>
</g>
<!-- Node596 -->
<g id="node22" class="node"><title>Node596</title>
<g id="a_node22"><a xlink:href="exception__handler_8c.html#ad7392f29fdb9ff04315bdc1ce1a81ad9" target="_top" xlink:title="print_reason">
<polygon fill="white" stroke="red" points="505.5,-936.5 505.5,-955.5 575.5,-955.5 575.5,-936.5 505.5,-936.5"/>
<text text-anchor="middle" x="540.5" y="-943.5" font-family="Helvetica,sans-Serif" font-size="10.00">print_reason</text>
</a>
</g>
</g>
<!-- Node593&#45;&gt;Node596 -->
<g id="edge27" class="edge"><title>Node593&#45;&gt;Node596</title>
<path fill="none" stroke="midnightblue" d="M402.818,-993.427C424.029,-985.618 454.886,-974.384 482,-965 487.998,-962.924 494.366,-960.77 500.594,-958.691"/>
<polygon fill="midnightblue" stroke="midnightblue" points="501.805,-961.977 510.195,-955.507 499.601,-955.333 501.805,-961.977"/>
</g>
<!-- Node602 -->
<g id="node23" class="node"><title>Node602</title>
<g id="a_node23"><a xlink:href="exception__handler_8c.html#a27a5f29786057530b64115aa0d469ebc" target="_top" xlink:title="save_extra_sfrs_for\l_exception">
<polygon fill="white" stroke="black" points="489,-1051 489,-1081 592,-1081 592,-1051 489,-1051"/>
<text text-anchor="start" x="497" y="-1069" font-family="Helvetica,sans-Serif" font-size="10.00">save_extra_sfrs_for</text>
<text text-anchor="middle" x="540.5" y="-1058" font-family="Helvetica,sans-Serif" font-size="10.00">_exception</text>
</a>
</g>
</g>
<!-- Node593&#45;&gt;Node602 -->
<g id="edge29" class="edge"><title>Node593&#45;&gt;Node602</title>
<path fill="none" stroke="midnightblue" d="M401.68,-1012.57C425.292,-1021.72 461.557,-1035.78 490.961,-1047.18"/>
<polygon fill="midnightblue" stroke="midnightblue" points="490.053,-1050.58 500.642,-1050.93 492.583,-1044.06 490.053,-1050.58"/>
</g>
<!-- Node603 -->
<g id="node24" class="node"><title>Node603</title>
<g id="a_node24"><a xlink:href="spi__flash_8h.html#a3210ddd52247977cff3d018bf34f9048" target="_top" xlink:title="spi_flash_erase_sector">
<polygon fill="white" stroke="black" points="482,-1012.5 482,-1031.5 599,-1031.5 599,-1012.5 482,-1012.5"/>
<text text-anchor="middle" x="540.5" y="-1019.5" font-family="Helvetica,sans-Serif" font-size="10.00">spi_flash_erase_sector</text>
</a>
</g>
</g>
<!-- Node593&#45;&gt;Node603 -->
<g id="edge30" class="edge"><title>Node593&#45;&gt;Node603</title>
<path fill="none" stroke="midnightblue" d="M423.566,-1008.44C438.633,-1010.21 455.66,-1012.2 471.932,-1014.1"/>
<polygon fill="midnightblue" stroke="midnightblue" points="471.604,-1017.59 481.942,-1015.27 472.417,-1010.63 471.604,-1017.59"/>
</g>
<!-- Node596&#45;&gt;Node567 -->
<g id="edge28" class="edge"><title>Node596&#45;&gt;Node567</title>
<path fill="none" stroke="midnightblue" d="M575.314,-936.411C593.19,-931.342 615.282,-925.077 634.169,-919.721"/>
<polygon fill="midnightblue" stroke="midnightblue" points="635.333,-923.029 643.998,-916.933 633.423,-916.294 635.333,-923.029"/>
</g>
<!-- Node605 -->
<g id="node26" class="node"><title>Node605</title>
<g id="a_node26"><a xlink:href="esp-open-lwip_2include_2lwip_2sntp_8h.html#a557f2d3fcbc53da30e4f1b51ea5842e7" target="_top" xlink:title="sntp_get_current_timestamp">
<polygon fill="white" stroke="black" points="306,-582.5 306,-601.5 446,-601.5 446,-582.5 306,-582.5"/>
<text text-anchor="middle" x="376" y="-589.5" font-family="Helvetica,sans-Serif" font-size="10.00">sntp_get_current_timestamp</text>
</a>
</g>
</g>
<!-- Node604&#45;&gt;Node605 -->
<g id="edge32" class="edge"><title>Node604&#45;&gt;Node605</title>
<path fill="none" stroke="midnightblue" d="M235.82,-662.159C247.328,-659.316 259.658,-655.132 270,-649 290.011,-637.135 286.053,-622.972 306,-611 309.596,-608.842 313.442,-606.923 317.412,-605.217"/>
<polygon fill="midnightblue" stroke="midnightblue" points="318.746,-608.454 326.835,-601.612 316.244,-601.916 318.746,-608.454"/>
</g>
<!-- Node608 -->
<g id="node29" class="node"><title>Node608</title>
<g id="a_node29"><a xlink:href="mqtt__msg_8h.html#af16842423fc1d5d802a7f329fc3a9ef9" target="_top" xlink:title="mqtt_msg_publish">
<polygon fill="white" stroke="black" points="328,-430.5 328,-449.5 424,-449.5 424,-430.5 328,-430.5"/>
<text text-anchor="middle" x="376" y="-437.5" font-family="Helvetica,sans-Serif" font-size="10.00">mqtt_msg_publish</text>
</a>
</g>
</g>
<!-- Node607&#45;&gt;Node608 -->
<g id="edge35" class="edge"><title>Node607&#45;&gt;Node608</title>
<path fill="none" stroke="midnightblue" d="M213.587,-506.384C234.135,-494.036 271.703,-472.586 306,-459 311.989,-456.628 318.382,-454.437 324.77,-452.452"/>
<polygon fill="midnightblue" stroke="midnightblue" points="326.146,-455.694 334.745,-449.504 324.163,-448.981 326.146,-455.694"/>
</g>
<!-- Node614 -->
<g id="node35" class="node"><title>Node614</title>
<g id="a_node35"><a xlink:href="_meter_logger_2mqtt_2include_2queue_8h.html#a2052c731d6aecfc43c9e18da8b58ee42" target="_top" xlink:title="QUEUE_Gets">
<polygon fill="white" stroke="black" points="336.5,-544.5 336.5,-563.5 415.5,-563.5 415.5,-544.5 336.5,-544.5"/>
<text text-anchor="middle" x="376" y="-551.5" font-family="Helvetica,sans-Serif" font-size="10.00">QUEUE_Gets</text>
</a>
</g>
</g>
<!-- Node607&#45;&gt;Node614 -->
<g id="edge41" class="edge"><title>Node607&#45;&gt;Node614</title>
<path fill="none" stroke="midnightblue" d="M238.164,-524.623C264.326,-530.24 298.618,-537.602 326.328,-543.551"/>
<polygon fill="midnightblue" stroke="midnightblue" points="325.699,-546.995 336.211,-545.672 327.169,-540.151 325.699,-546.995"/>
</g>
<!-- Node619 -->
<g id="node37" class="node"><title>Node619</title>
<g id="a_node37"><a xlink:href="_meter_logger_2mqtt_2include_2queue_8h.html#a6fd5d93b4c64bd836d706777defb5f80" target="_top" xlink:title="QUEUE_Puts">
<polygon fill="white" stroke="red" points="337,-506.5 337,-525.5 415,-525.5 415,-506.5 337,-506.5"/>
<text text-anchor="middle" x="376" y="-513.5" font-family="Helvetica,sans-Serif" font-size="10.00">QUEUE_Puts</text>
</a>
</g>
</g>
<!-- Node607&#45;&gt;Node619 -->
<g id="edge43" class="edge"><title>Node607&#45;&gt;Node619</title>
<path fill="none" stroke="midnightblue" d="M238.164,-516C264.392,-516 298.791,-516 326.538,-516"/>
<polygon fill="midnightblue" stroke="midnightblue" points="326.815,-519.5 336.815,-516 326.815,-512.5 326.815,-519.5"/>
</g>
<!-- Node622 -->
<g id="node38" class="node"><title>Node622</title>
<g id="a_node38"><a xlink:href="user__interface_8h.html#adab1155f3a463f2b05a9bde65b37514f" target="_top" xlink:title="system_os_post">
<polygon fill="white" stroke="black" points="331.5,-468.5 331.5,-487.5 420.5,-487.5 420.5,-468.5 331.5,-468.5"/>
<text text-anchor="middle" x="376" y="-475.5" font-family="Helvetica,sans-Serif" font-size="10.00">system_os_post</text>
</a>
</g>
</g>
<!-- Node607&#45;&gt;Node622 -->
<g id="edge44" class="edge"><title>Node607&#45;&gt;Node622</title>
<path fill="none" stroke="midnightblue" d="M238.164,-507.377C262.764,-502.096 294.553,-495.271 321.298,-489.529"/>
<polygon fill="midnightblue" stroke="midnightblue" points="322.233,-492.908 331.276,-487.387 320.764,-486.064 322.233,-492.908"/>
</g>
<!-- Node609 -->
<g id="node30" class="node"><title>Node609</title>
<g id="a_node30"><a xlink:href="mqtt__msg_8c.html#ac59e26babd30c6c0ace9a174e75786f3" target="_top" xlink:title="append_message_id">
<polygon fill="white" stroke="black" points="487.5,-468.5 487.5,-487.5 593.5,-487.5 593.5,-468.5 487.5,-468.5"/>
<text text-anchor="middle" x="540.5" y="-475.5" font-family="Helvetica,sans-Serif" font-size="10.00">append_message_id</text>
</a>
</g>
</g>
<!-- Node608&#45;&gt;Node609 -->
<g id="edge36" class="edge"><title>Node608&#45;&gt;Node609</title>
<path fill="none" stroke="midnightblue" d="M418.006,-449.589C439.546,-454.626 466.135,-460.844 488.941,-466.177"/>
<polygon fill="midnightblue" stroke="midnightblue" points="488.255,-469.611 498.789,-468.48 489.849,-462.795 488.255,-469.611"/>
</g>
<!-- Node610 -->
<g id="node31" class="node"><title>Node610</title>
<g id="a_node31"><a xlink:href="mqtt__msg_8c.html#a207c99e2058080b97c21a348d693a560" target="_top" xlink:title="append_string">
<polygon fill="white" stroke="black" points="502,-430.5 502,-449.5 579,-449.5 579,-430.5 502,-430.5"/>
<text text-anchor="middle" x="540.5" y="-437.5" font-family="Helvetica,sans-Serif" font-size="10.00">append_string</text>
</a>
</g>
</g>
<!-- Node608&#45;&gt;Node610 -->
<g id="edge37" class="edge"><title>Node608&#45;&gt;Node610</title>
<path fill="none" stroke="midnightblue" d="M424.002,-440C445.268,-440 470.366,-440 491.723,-440"/>
<polygon fill="midnightblue" stroke="midnightblue" points="491.875,-443.5 501.875,-440 491.875,-436.5 491.875,-443.5"/>
</g>
<!-- Node611 -->
<g id="node32" class="node"><title>Node611</title>
<g id="a_node32"><a xlink:href="mqtt__msg_8c.html#a9a2fb8c67ff4b104dd46e72c9e97b710" target="_top" xlink:title="fail_message">
<polygon fill="white" stroke="black" points="503.5,-392.5 503.5,-411.5 577.5,-411.5 577.5,-392.5 503.5,-392.5"/>
<text text-anchor="middle" x="540.5" y="-399.5" font-family="Helvetica,sans-Serif" font-size="10.00">fail_message</text>
</a>
</g>
</g>
<!-- Node608&#45;&gt;Node611 -->
<g id="edge38" class="edge"><title>Node608&#45;&gt;Node611</title>
<path fill="none" stroke="midnightblue" d="M418.006,-430.411C441.041,-425.024 469.85,-418.287 493.633,-412.726"/>
<polygon fill="midnightblue" stroke="midnightblue" points="494.546,-416.107 503.486,-410.422 492.952,-409.291 494.546,-416.107"/>
</g>
<!-- Node612 -->
<g id="node33" class="node"><title>Node612</title>
<g id="a_node33"><a xlink:href="mqtt__msg_8c.html#a356949afe8a334d5e91bddb4b2794921" target="_top" xlink:title="fini_message">
<polygon fill="white" stroke="black" points="503.5,-354.5 503.5,-373.5 577.5,-373.5 577.5,-354.5 503.5,-354.5"/>
<text text-anchor="middle" x="540.5" y="-361.5" font-family="Helvetica,sans-Serif" font-size="10.00">fini_message</text>
</a>
</g>
</g>
<!-- Node608&#45;&gt;Node612 -->
<g id="edge39" class="edge"><title>Node608&#45;&gt;Node612</title>
<path fill="none" stroke="midnightblue" d="M424.076,-430.754C431.701,-428.225 439.288,-425.028 446,-421 465.947,-409.028 462.361,-395.471 482,-383 485.644,-380.686 489.599,-378.625 493.671,-376.796"/>
<polygon fill="midnightblue" stroke="midnightblue" points="495.313,-379.909 503.292,-372.939 492.708,-373.411 495.313,-379.909"/>
</g>
<!-- Node613 -->
<g id="node34" class="node"><title>Node613</title>
<g id="a_node34"><a xlink:href="mqtt__msg_8c.html#aae7c66cc577ac90e9535edac4abc068c" target="_top" xlink:title="init_message">
<polygon fill="white" stroke="black" points="503.5,-506.5 503.5,-525.5 577.5,-525.5 577.5,-506.5 503.5,-506.5"/>
<text text-anchor="middle" x="540.5" y="-513.5" font-family="Helvetica,sans-Serif" font-size="10.00">init_message</text>
</a>
</g>
</g>
<!-- Node608&#45;&gt;Node613 -->
<g id="edge40" class="edge"><title>Node608&#45;&gt;Node613</title>
<path fill="none" stroke="midnightblue" d="M424.076,-449.246C431.701,-451.775 439.288,-454.972 446,-459 465.947,-470.972 462.361,-484.529 482,-497 485.644,-499.314 489.599,-501.375 493.671,-503.204"/>
<polygon fill="midnightblue" stroke="midnightblue" points="492.708,-506.589 503.292,-507.061 495.313,-500.091 492.708,-506.589"/>
</g>
<!-- Node615 -->
<g id="node36" class="node"><title>Node615</title>
<g id="a_node36"><a xlink:href="proto_8h.html#adf76f7a7dcf2e7e22af1a3235b9a808c" target="_top" xlink:title="PROTO_ParseRb">
<polygon fill="white" stroke="red" points="493,-544.5 493,-563.5 588,-563.5 588,-544.5 493,-544.5"/>
<text text-anchor="middle" x="540.5" y="-551.5" font-family="Helvetica,sans-Serif" font-size="10.00">PROTO_ParseRb</text>
</a>
</g>
</g>
<!-- Node614&#45;&gt;Node615 -->
<g id="edge42" class="edge"><title>Node614&#45;&gt;Node615</title>
<path fill="none" stroke="midnightblue" d="M415.51,-554C435.613,-554 460.597,-554 482.858,-554"/>
<polygon fill="midnightblue" stroke="midnightblue" points="482.868,-557.5 492.868,-554 482.868,-550.5 482.868,-557.5"/>
</g>
<!-- Node624 -->
<g id="node40" class="node"><title>Node624</title>
<g id="a_node40"><a xlink:href="httpd_8c.html#afec8778692d2ecc547295eb197fa6fcd" target="_top" xlink:title="httpdStop">
<polygon fill="white" stroke="red" points="346.5,-38.5 346.5,-57.5 405.5,-57.5 405.5,-38.5 346.5,-38.5"/>
<text text-anchor="middle" x="376" y="-45.5" font-family="Helvetica,sans-Serif" font-size="10.00">httpdStop</text>
</a>
</g>
</g>
<!-- Node623&#45;&gt;Node624 -->
<g id="edge46" class="edge"><title>Node623&#45;&gt;Node624</title>
<path fill="none" stroke="midnightblue" d="M201.445,-221.5C212.176,-193.281 247.816,-109.296 306,-67 314.911,-60.5224 325.926,-56.2526 336.519,-53.4383"/>
<polygon fill="midnightblue" stroke="midnightblue" points="337.497,-56.8051 346.464,-51.1615 335.935,-49.9817 337.497,-56.8051"/>
</g>
<!-- Node629 -->
<g id="node41" class="node"><title>Node629</title>
<g id="a_node41"><a xlink:href="captdns_8c.html#aa94930b306da4c43c4325612a8a538db" target="_top" xlink:title="captdnsStop">
<polygon fill="white" stroke="red" points="340.5,-0.5 340.5,-19.5 411.5,-19.5 411.5,-0.5 340.5,-0.5"/>
<text text-anchor="middle" x="376" y="-7.5" font-family="Helvetica,sans-Serif" font-size="10.00">captdnsStop</text>
</a>
</g>
</g>
<!-- Node623&#45;&gt;Node629 -->
<g id="edge47" class="edge"><title>Node623&#45;&gt;Node629</title>
<path fill="none" stroke="midnightblue" d="M200.284,-221.223C208.43,-188.576 239.21,-82.3788 306,-29 313.052,-23.3639 321.659,-19.3966 330.371,-16.6048"/>
<polygon fill="midnightblue" stroke="midnightblue" points="331.449,-19.9384 340.173,-13.9259 329.604,-13.186 331.449,-19.9384"/>
</g>
<!-- Node630 -->
<g id="node42" class="node"><title>Node630</title>
<g id="a_node42"><a xlink:href="wifi_8h.html#ad55b30fa5e69239ef162cc997e99dc7b" target="_top" xlink:title="wifi_destroy">
<polygon fill="white" stroke="black" points="341.5,-392.5 341.5,-411.5 410.5,-411.5 410.5,-392.5 341.5,-392.5"/>
<text text-anchor="middle" x="376" y="-399.5" font-family="Helvetica,sans-Serif" font-size="10.00">wifi_destroy</text>
</a>
</g>
</g>
<!-- Node623&#45;&gt;Node630 -->
<g id="edge48" class="edge"><title>Node623&#45;&gt;Node630</title>
<path fill="none" stroke="midnightblue" d="M201.98,-240.565C213.666,-267.44 250.579,-344.193 306,-383 313.624,-388.338 322.694,-392.179 331.711,-394.942"/>
<polygon fill="midnightblue" stroke="midnightblue" points="330.838,-398.332 341.403,-397.537 332.649,-391.57 330.838,-398.332"/>
</g>
<!-- Node631 -->
<g id="node43" class="node"><title>Node631</title>
<g id="a_node43"><a xlink:href="wifi_8h.html#ac81e93c618b4a9528fb7689c85188763" target="_top" xlink:title="set_my_auto_connect">
<polygon fill="white" stroke="black" points="319.5,-354.5 319.5,-373.5 432.5,-373.5 432.5,-354.5 319.5,-354.5"/>
<text text-anchor="middle" x="376" y="-361.5" font-family="Helvetica,sans-Serif" font-size="10.00">set_my_auto_connect</text>
</a>
</g>
</g>
<!-- Node623&#45;&gt;Node631 -->
<g id="edge49" class="edge"><title>Node623&#45;&gt;Node631</title>
<path fill="none" stroke="midnightblue" d="M204.307,-240.62C219.232,-262.605 259.015,-316.8 306,-345 309.596,-347.158 313.442,-349.077 317.412,-350.783"/>
<polygon fill="midnightblue" stroke="midnightblue" points="316.244,-354.084 326.835,-354.388 318.746,-347.546 316.244,-354.084"/>
</g>
<!-- Node632 -->
<g id="node44" class="node"><title>Node632</title>
<g id="a_node44"><a xlink:href="user__interface_8h.html#aba69e9646b1f29d8a72972787400f4f1" target="_top" xlink:title="wifi_station_disconnect">
<polygon fill="white" stroke="black" points="316.5,-316.5 316.5,-335.5 435.5,-335.5 435.5,-316.5 316.5,-316.5"/>
<text text-anchor="middle" x="376" y="-323.5" font-family="Helvetica,sans-Serif" font-size="10.00">wifi_station_disconnect</text>
</a>
</g>
</g>
<!-- Node623&#45;&gt;Node632 -->
<g id="edge50" class="edge"><title>Node623&#45;&gt;Node632</title>
<path fill="none" stroke="midnightblue" d="M208.858,-240.599C227.472,-256.583 267.227,-288.701 306,-307 310.986,-309.353 316.317,-311.462 321.723,-313.339"/>
<polygon fill="midnightblue" stroke="midnightblue" points="320.886,-316.746 331.477,-316.473 323.027,-310.082 320.886,-316.746"/>
</g>
<!-- Node633 -->
<g id="node45" class="node"><title>Node633</title>
<g id="a_node45"><a xlink:href="user__interface_8h.html#a77323412cda193d0b8f18652e4d08e77" target="_top" xlink:title="wifi_set_opmode_current">
<polygon fill="white" stroke="black" points="313.5,-278.5 313.5,-297.5 438.5,-297.5 438.5,-278.5 313.5,-278.5"/>
<text text-anchor="middle" x="376" y="-285.5" font-family="Helvetica,sans-Serif" font-size="10.00">wifi_set_opmode_current</text>
</a>
</g>
</g>
<!-- Node623&#45;&gt;Node633 -->
<g id="edge51" class="edge"><title>Node623&#45;&gt;Node633</title>
<path fill="none" stroke="midnightblue" d="M223.581,-240.566C245.359,-248.574 277.548,-260.089 306,-269 313.255,-271.272 320.984,-273.544 328.545,-275.685"/>
<polygon fill="midnightblue" stroke="midnightblue" points="327.763,-279.1 338.336,-278.414 329.643,-272.357 327.763,-279.1"/>
</g>
<!-- Node634 -->
<g id="node46" class="node"><title>Node634</title>
<g id="a_node46"><a xlink:href="led_8c.html#a4eae1e968117705e5b0009646c192a5c" target="_top" xlink:title="led_destroy">
<polygon fill="white" stroke="red" points="342.5,-240.5 342.5,-259.5 409.5,-259.5 409.5,-240.5 342.5,-240.5"/>
<text text-anchor="middle" x="376" y="-247.5" font-family="Helvetica,sans-Serif" font-size="10.00">led_destroy</text>
</a>
</g>
</g>
<!-- Node623&#45;&gt;Node634 -->
<g id="edge52" class="edge"><title>Node623&#45;&gt;Node634</title>
<path fill="none" stroke="midnightblue" d="M256.938,-237.327C281.619,-239.976 309.764,-242.997 332.382,-245.425"/>
<polygon fill="midnightblue" stroke="midnightblue" points="332.037,-248.908 342.353,-246.496 332.784,-241.948 332.037,-248.908"/>
</g>
<!-- Node638 -->
<g id="node47" class="node"><title>Node638</title>
<g id="a_node47"><a xlink:href="cron_8c.html#a969e116ae6a7f6d3f33d81dadcc29513" target="_top" xlink:title="cron_destroy">
<polygon fill="white" stroke="black" points="339.5,-202.5 339.5,-221.5 412.5,-221.5 412.5,-202.5 339.5,-202.5"/>
<text text-anchor="middle" x="376" y="-209.5" font-family="Helvetica,sans-Serif" font-size="10.00">cron_destroy</text>
</a>
</g>
</g>
<!-- Node623&#45;&gt;Node638 -->
<g id="edge53" class="edge"><title>Node623&#45;&gt;Node638</title>
<path fill="none" stroke="midnightblue" d="M256.938,-224.673C280.466,-222.148 307.142,-219.284 329.177,-216.919"/>
<polygon fill="midnightblue" stroke="midnightblue" points="329.697,-220.383 339.266,-215.836 328.95,-213.423 329.697,-220.383"/>
</g>
<!-- Node639 -->
<g id="node48" class="node"><title>Node639</title>
<g id="a_node48"><a xlink:href="unix__time_8c.html#af7a1ef4521ece2974392801501073cbc" target="_top" xlink:title="destroy_unix_time">
<polygon fill="white" stroke="red" points="328,-164.5 328,-183.5 424,-183.5 424,-164.5 328,-164.5"/>
<text text-anchor="middle" x="376" y="-171.5" font-family="Helvetica,sans-Serif" font-size="10.00">destroy_unix_time</text>
</a>
</g>
</g>
<!-- Node623&#45;&gt;Node639 -->
<g id="edge54" class="edge"><title>Node623&#45;&gt;Node639</title>
<path fill="none" stroke="midnightblue" d="M223.581,-221.434C245.359,-213.426 277.548,-201.911 306,-193 313.255,-190.728 320.984,-188.456 328.545,-186.315"/>
<polygon fill="midnightblue" stroke="midnightblue" points="329.643,-189.643 338.336,-183.586 327.763,-182.9 329.643,-189.643"/>
</g>
<!-- Node641 -->
<g id="node49" class="node"><title>Node641</title>
<g id="a_node49"><a xlink:href="watchdog_8c.html#a57afb5aead34fee681690fbf4eda2935" target="_top" xlink:title="stop_watchdog">
<polygon fill="white" stroke="black" points="334.5,-126.5 334.5,-145.5 417.5,-145.5 417.5,-126.5 334.5,-126.5"/>
<text text-anchor="middle" x="376" y="-133.5" font-family="Helvetica,sans-Serif" font-size="10.00">stop_watchdog</text>
</a>
</g>
</g>
<!-- Node623&#45;&gt;Node641 -->
<g id="edge55" class="edge"><title>Node623&#45;&gt;Node641</title>
<path fill="none" stroke="midnightblue" d="M208.858,-221.401C227.472,-205.417 267.227,-173.299 306,-155 311.825,-152.251 318.121,-149.836 324.458,-147.732"/>
<polygon fill="midnightblue" stroke="midnightblue" points="325.857,-150.964 334.388,-144.68 323.801,-144.273 325.857,-150.964"/>
</g>
<!-- Node642 -->
<g id="node50" class="node"><title>Node642</title>
<g id="a_node50"><a xlink:href="utils_8c.html#a4be4104f0ac51917937864a86cd6d6a6" target="_top" xlink:title="system_restart_defered\l_timer_func">
<polygon fill="white" stroke="red" points="316.5,-77 316.5,-107 435.5,-107 435.5,-77 316.5,-77"/>
<text text-anchor="start" x="324.5" y="-95" font-family="Helvetica,sans-Serif" font-size="10.00">system_restart_defered</text>
<text text-anchor="middle" x="376" y="-84" font-family="Helvetica,sans-Serif" font-size="10.00">_timer_func</text>
</a>
</g>
</g>
<!-- Node623&#45;&gt;Node642 -->
<g id="edge56" class="edge"><title>Node623&#45;&gt;Node642</title>
<path fill="none" stroke="midnightblue" d="M204.696,-221.311C220.128,-199.654 260.391,-146.882 306,-117 309.057,-114.997 312.296,-113.129 315.637,-111.39"/>
<polygon fill="midnightblue" stroke="midnightblue" points="317.142,-114.55 324.665,-107.089 314.132,-108.231 317.142,-114.55"/>
</g>
</g>
</svg>
