<?xml version="1.0" encoding="UTF-8" standalone="no"?>
<!DOCTYPE svg PUBLIC "-//W3C//DTD SVG 1.1//EN"
 "http://www.w3.org/Graphics/SVG/1.1/DTD/svg11.dtd">
<!-- Generated by graphviz version 2.38.0 (20140413.2041)
 -->
<!-- Title: mqtt_rpc_stop_ap Pages: 1 -->
<svg width="971pt" height="425pt"
 viewBox="0.00 0.00 971.00 424.50" xmlns="http://www.w3.org/2000/svg" xmlns:xlink="http://www.w3.org/1999/xlink">
<g id="graph0" class="graph" transform="scale(1 1) rotate(0) translate(4 420.5)">
<title>mqtt_rpc_stop_ap</title>
<polygon fill="white" stroke="none" points="-4,4 -4,-420.5 967,-420.5 967,4 -4,4"/>
<!-- Node1076 -->
<g id="node1" class="node"><title>Node1076</title>
<polygon fill="#bfbfbf" stroke="black" points="0,-80 0,-99 95,-99 95,-80 0,-80"/>
<text text-anchor="middle" x="47.5" y="-87" font-family="Helvetica,sans-Serif" font-size="10.00">mqtt_rpc_stop_ap</text>
</g>
<!-- Node1077 -->
<g id="node2" class="node"><title>Node1077</title>
<g id="a_node2"><a xlink:href="config_8c.html#a240b5d7105d7dbf1d7054ad65cb9df40" target="_top" xlink:title="cfg_save">
<polygon fill="white" stroke="black" points="165.5,-137 165.5,-156 221.5,-156 221.5,-137 165.5,-137"/>
<text text-anchor="middle" x="193.5" y="-144" font-family="Helvetica,sans-Serif" font-size="10.00">cfg_save</text>
</a>
</g>
</g>
<!-- Node1076&#45;&gt;Node1077 -->
<g id="edge1" class="edge"><title>Node1076&#45;&gt;Node1077</title>
<path fill="none" stroke="midnightblue" d="M67.5286,-99.1373C84.0553,-107.295 108.762,-118.986 131,-127.5 138.865,-130.511 147.428,-133.396 155.598,-135.968"/>
<polygon fill="midnightblue" stroke="midnightblue" points="154.708,-139.355 165.294,-138.937 156.758,-132.662 154.708,-139.355"/>
</g>
<!-- Node1100 -->
<g id="node25" class="node"><title>Node1100</title>
<g id="a_node25"><a xlink:href="esp-open-sdk_2esp-open-lwip_2user_2user__main_8c.html#aa0bdd8462bda388e0064486e29fd0976" target="_top" xlink:title="mqtt_flash_error">
<polygon fill="white" stroke="black" points="150,-99 150,-118 237,-118 237,-99 150,-99"/>
<text text-anchor="middle" x="193.5" y="-106" font-family="Helvetica,sans-Serif" font-size="10.00">mqtt_flash_error</text>
</a>
</g>
</g>
<!-- Node1076&#45;&gt;Node1100 -->
<g id="edge32" class="edge"><title>Node1076&#45;&gt;Node1100</title>
<path fill="none" stroke="midnightblue" d="M95.2527,-95.6688C109.532,-97.5528 125.328,-99.637 139.964,-101.568"/>
<polygon fill="midnightblue" stroke="midnightblue" points="139.506,-105.038 149.878,-102.876 140.422,-98.0982 139.506,-105.038"/>
</g>
<!-- Node1101 -->
<g id="node26" class="node"><title>Node1101</title>
<g id="a_node26"><a xlink:href="user__interface_8h.html#a48d756265c0c1c35ba1fba102efe4d0a" target="_top" xlink:title="wifi_get_opmode">
<polygon fill="white" stroke="black" points="148.5,-61 148.5,-80 238.5,-80 238.5,-61 148.5,-61"/>
<text text-anchor="middle" x="193.5" y="-68" font-family="Helvetica,sans-Serif" font-size="10.00">wifi_get_opmode</text>
</a>
</g>
</g>
<!-- Node1076&#45;&gt;Node1101 -->
<g id="edge33" class="edge"><title>Node1076&#45;&gt;Node1101</title>
<path fill="none" stroke="midnightblue" d="M95.2527,-83.3312C108.998,-81.5176 124.149,-79.5185 138.318,-77.649"/>
<polygon fill="midnightblue" stroke="midnightblue" points="138.971,-81.0933 148.427,-76.3152 138.055,-74.1535 138.971,-81.0933"/>
</g>
<!-- Node1102 -->
<g id="node27" class="node"><title>Node1102</title>
<g id="a_node27"><a xlink:href="user__interface_8h.html#a77323412cda193d0b8f18652e4d08e77" target="_top" xlink:title="wifi_set_opmode_current">
<polygon fill="white" stroke="black" points="131,-23 131,-42 256,-42 256,-23 131,-23"/>
<text text-anchor="middle" x="193.5" y="-30" font-family="Helvetica,sans-Serif" font-size="10.00">wifi_set_opmode_current</text>
</a>
</g>
</g>
<!-- Node1076&#45;&gt;Node1102 -->
<g id="edge34" class="edge"><title>Node1076&#45;&gt;Node1102</title>
<path fill="none" stroke="midnightblue" d="M67.5286,-79.8627C84.0553,-71.7047 108.762,-60.0138 131,-51.5 136.821,-49.2712 143.026,-47.1116 149.17,-45.0969"/>
<polygon fill="midnightblue" stroke="midnightblue" points="150.244,-48.4282 158.712,-42.061 148.121,-41.7577 150.244,-48.4282"/>
</g>
<!-- Node1078 -->
<g id="node3" class="node"><title>Node1078</title>
<g id="a_node3"><a xlink:href="utils_8c.html#a8d9e1de95e2d6d103108a4b0ebf4d923" target="_top" xlink:title="ccit_crc16">
<polygon fill="white" stroke="black" points="480,-283 480,-302 542,-302 542,-283 480,-283"/>
<text text-anchor="middle" x="511" y="-290" font-family="Helvetica,sans-Serif" font-size="10.00">ccit_crc16</text>
</a>
</g>
</g>
<!-- Node1077&#45;&gt;Node1078 -->
<g id="edge2" class="edge"><title>Node1077&#45;&gt;Node1078</title>
<path fill="none" stroke="midnightblue" d="M209.357,-156.019C228.185,-167.885 261.825,-188.438 292,-203.5 364.007,-239.443 384.166,-243.89 459,-273.5 463.872,-275.428 469.026,-277.412 474.112,-279.337"/>
<polygon fill="midnightblue" stroke="midnightblue" points="473.123,-282.704 483.715,-282.938 475.581,-276.15 473.123,-282.704"/>
</g>
<!-- Node1079 -->
<g id="node4" class="node"><title>Node1079</title>
<g id="a_node4"><a xlink:href="config_8c.html#a92adb6c5103eed30e16185a9cd233e51" target="_top" xlink:title="cfg_load">
<polygon fill="white" stroke="black" points="331,-175 331,-194 384,-194 384,-175 331,-175"/>
<text text-anchor="middle" x="357.5" y="-182" font-family="Helvetica,sans-Serif" font-size="10.00">cfg_load</text>
</a>
</g>
</g>
<!-- Node1077&#45;&gt;Node1079 -->
<g id="edge3" class="edge"><title>Node1077&#45;&gt;Node1079</title>
<path fill="none" stroke="midnightblue" d="M221.615,-147.669C250.424,-152.427 295.878,-163.013 325.937,-171.914"/>
<polygon fill="midnightblue" stroke="midnightblue" points="324.908,-175.259 335.495,-174.857 326.968,-168.569 324.908,-175.259"/>
</g>
<!-- Node1080 -->
<g id="node5" class="node"><title>Node1080</title>
<g id="a_node5"><a xlink:href="ext__spi__flash_8c.html#a094d4588aff8210b1bb94ae90fb58526" target="_top" xlink:title="ext_spi_flash_read">
<polygon fill="white" stroke="black" points="462,-131 462,-150 560,-150 560,-131 462,-131"/>
<text text-anchor="middle" x="511" y="-138" font-family="Helvetica,sans-Serif" font-size="10.00">ext_spi_flash_read</text>
</a>
</g>
</g>
<!-- Node1077&#45;&gt;Node1080 -->
<g id="edge28" class="edge"><title>Node1077&#45;&gt;Node1080</title>
<path fill="none" stroke="midnightblue" d="M221.672,-145.983C272.57,-145.015 383.301,-142.909 451.765,-141.607"/>
<polygon fill="midnightblue" stroke="midnightblue" points="452.029,-145.103 461.96,-141.414 451.896,-138.104 452.029,-145.103"/>
</g>
<!-- Node1097 -->
<g id="node22" class="node"><title>Node1097</title>
<g id="a_node22"><a xlink:href="ext__spi__flash_8c.html#ab4369189179b556a6b8e2155433c5f70" target="_top" xlink:title="ext_spi_flash_erase\l_sector">
<polygon fill="white" stroke="black" points="305.5,-49.5 305.5,-79.5 409.5,-79.5 409.5,-49.5 305.5,-49.5"/>
<text text-anchor="start" x="313.5" y="-67.5" font-family="Helvetica,sans-Serif" font-size="10.00">ext_spi_flash_erase</text>
<text text-anchor="middle" x="357.5" y="-56.5" font-family="Helvetica,sans-Serif" font-size="10.00">_sector</text>
</a>
</g>
</g>
<!-- Node1077&#45;&gt;Node1097 -->
<g id="edge26" class="edge"><title>Node1077&#45;&gt;Node1097</title>
<path fill="none" stroke="midnightblue" d="M221.506,-141.34C232.736,-138.409 245.559,-133.988 256,-127.5 275.76,-115.221 272.683,-102.465 292,-89.5 294.879,-87.5675 297.93,-85.7529 301.076,-84.0542"/>
<polygon fill="midnightblue" stroke="midnightblue" points="302.724,-87.144 310.134,-79.572 299.619,-80.8701 302.724,-87.144"/>
</g>
<!-- Node1098 -->
<g id="node23" class="node"><title>Node1098</title>
<g id="a_node23"><a xlink:href="ext__spi__flash_8c.html#a17e27ce44dd5aec4dd7a7de609093aae" target="_top" xlink:title="ext_spi_flash_write">
<polygon fill="white" stroke="black" points="307,-99 307,-118 408,-118 408,-99 307,-99"/>
<text text-anchor="middle" x="357.5" y="-106" font-family="Helvetica,sans-Serif" font-size="10.00">ext_spi_flash_write</text>
</a>
</g>
</g>
<!-- Node1077&#45;&gt;Node1098 -->
<g id="edge29" class="edge"><title>Node1077&#45;&gt;Node1098</title>
<path fill="none" stroke="midnightblue" d="M221.615,-140.14C244.558,-134.758 278.058,-126.9 305.931,-120.362"/>
<polygon fill="midnightblue" stroke="midnightblue" points="306.98,-123.711 315.916,-118.02 305.381,-116.896 306.98,-123.711"/>
</g>
<!-- Node1099 -->
<g id="node24" class="node"><title>Node1099</title>
<g id="a_node24"><a xlink:href="user__interface_8h.html#ae68a7b6345630e42fde3e827108571e0" target="_top" xlink:title="system_param_save_with\l_protect">
<polygon fill="white" stroke="black" points="292,-0.5 292,-30.5 423,-30.5 423,-0.5 292,-0.5"/>
<text text-anchor="start" x="300" y="-18.5" font-family="Helvetica,sans-Serif" font-size="10.00">system_param_save_with</text>
<text text-anchor="middle" x="357.5" y="-7.5" font-family="Helvetica,sans-Serif" font-size="10.00">_protect</text>
</a>
</g>
</g>
<!-- Node1077&#45;&gt;Node1099 -->
<g id="edge31" class="edge"><title>Node1077&#45;&gt;Node1099</title>
<path fill="none" stroke="midnightblue" d="M221.6,-143.386C233.378,-140.808 246.601,-136.1 256,-127.5 287.175,-98.9734 261.644,-68.897 292,-39.5 293.1,-38.435 294.251,-37.4166 295.446,-36.4426"/>
<polygon fill="midnightblue" stroke="midnightblue" points="297.625,-39.1913 303.88,-30.6393 293.657,-33.4245 297.625,-39.1913"/>
</g>
<!-- Node1079&#45;&gt;Node1077 -->
<g id="edge5" class="edge"><title>Node1079&#45;&gt;Node1077</title>
<path fill="none" stroke="midnightblue" d="M330.933,-183.584C302.227,-178.957 255.669,-168.148 225.065,-159.087"/>
<polygon fill="midnightblue" stroke="midnightblue" points="225.934,-155.692 215.347,-156.092 223.873,-162.382 225.934,-155.692"/>
</g>
<!-- Node1079&#45;&gt;Node1078 -->
<g id="edge4" class="edge"><title>Node1079&#45;&gt;Node1078</title>
<path fill="none" stroke="midnightblue" d="M369.033,-194.224C392.73,-216.044 448.959,-267.472 459,-273.5 462.6,-275.661 466.487,-277.645 470.452,-279.447"/>
<polygon fill="midnightblue" stroke="midnightblue" points="469.174,-282.706 479.751,-283.322 471.866,-276.244 469.174,-282.706"/>
</g>
<!-- Node1079&#45;&gt;Node1080 -->
<g id="edge6" class="edge"><title>Node1079&#45;&gt;Node1080</title>
<path fill="none" stroke="midnightblue" d="M384.2,-177.036C406.882,-170.449 440.4,-160.714 467.136,-152.949"/>
<polygon fill="midnightblue" stroke="midnightblue" points="468.387,-156.23 477.014,-150.08 466.435,-149.508 468.387,-156.23"/>
</g>
<!-- Node1082 -->
<g id="node7" class="node"><title>Node1082</title>
<g id="a_node7"><a xlink:href="user__interface_8h.html#a86228f8d572c91ec871684121dad0647" target="_top" xlink:title="system_get_chip_id">
<polygon fill="white" stroke="black" points="459,-207 459,-226 563,-226 563,-207 459,-207"/>
<text text-anchor="middle" x="511" y="-214" font-family="Helvetica,sans-Serif" font-size="10.00">system_get_chip_id</text>
</a>
</g>
</g>
<!-- Node1079&#45;&gt;Node1082 -->
<g id="edge8" class="edge"><title>Node1079&#45;&gt;Node1082</title>
<path fill="none" stroke="midnightblue" d="M384.2,-189.928C403.566,-194.019 430.831,-199.778 455.03,-204.889"/>
<polygon fill="midnightblue" stroke="midnightblue" points="454.321,-208.317 464.829,-206.959 455.768,-201.468 454.321,-208.317"/>
</g>
<!-- Node1083 -->
<g id="node8" class="node"><title>Node1083</title>
<g id="a_node8"><a xlink:href="user__interface_8h.html#a753aade115708d360f25bff422ef1f55" target="_top" xlink:title="system_param_load">
<polygon fill="white" stroke="black" points="459,-169 459,-188 563,-188 563,-169 459,-169"/>
<text text-anchor="middle" x="511" y="-176" font-family="Helvetica,sans-Serif" font-size="10.00">system_param_load</text>
</a>
</g>
</g>
<!-- Node1079&#45;&gt;Node1083 -->
<g id="edge9" class="edge"><title>Node1079&#45;&gt;Node1083</title>
<path fill="none" stroke="midnightblue" d="M384.2,-183.482C401.916,-182.781 426.244,-181.817 448.788,-180.924"/>
<polygon fill="midnightblue" stroke="midnightblue" points="449.136,-184.413 458.989,-180.52 448.859,-177.419 449.136,-184.413"/>
</g>
<!-- Node1084 -->
<g id="node9" class="node"><title>Node1084</title>
<g id="a_node9"><a xlink:href="tinyprintf_8c.html#a9738cbc6c538d210941db282e240c7d6" target="_top" xlink:title="tfp_snprintf">
<polygon fill="white" stroke="black" points="478.5,-245 478.5,-264 543.5,-264 543.5,-245 478.5,-245"/>
<text text-anchor="middle" x="511" y="-252" font-family="Helvetica,sans-Serif" font-size="10.00">tfp_snprintf</text>
</a>
</g>
</g>
<!-- Node1079&#45;&gt;Node1084 -->
<g id="edge10" class="edge"><title>Node1079&#45;&gt;Node1084</title>
<path fill="none" stroke="midnightblue" d="M376.001,-194.143C395.827,-204.888 429.253,-222.461 459,-235.5 463.47,-237.459 468.213,-239.402 472.936,-241.254"/>
<polygon fill="midnightblue" stroke="midnightblue" points="471.92,-244.612 482.51,-244.906 474.415,-238.072 471.92,-244.612"/>
</g>
<!-- Node1081 -->
<g id="node6" class="node"><title>Node1081</title>
<g id="a_node6"><a xlink:href="spi_8c.html#acebb579091ca980f217d3e5f3bd1f1d5" target="_top" xlink:title="spi_transaction">
<polygon fill="white" stroke="black" points="599,-93 599,-112 682,-112 682,-93 599,-93"/>
<text text-anchor="middle" x="640.5" y="-100" font-family="Helvetica,sans-Serif" font-size="10.00">spi_transaction</text>
</a>
</g>
</g>
<!-- Node1080&#45;&gt;Node1081 -->
<g id="edge7" class="edge"><title>Node1080&#45;&gt;Node1081</title>
<path fill="none" stroke="midnightblue" d="M544.174,-130.911C560.331,-126.096 580.108,-120.201 597.452,-115.032"/>
<polygon fill="midnightblue" stroke="midnightblue" points="598.753,-118.296 607.337,-112.086 596.754,-111.588 598.753,-118.296"/>
</g>
<!-- Node1085 -->
<g id="node10" class="node"><title>Node1085</title>
<g id="a_node10"><a xlink:href="tinyprintf_8c.html#ac8c8a66133cf0d7009c0d73b55311a44" target="_top" xlink:title="tfp_vsnprintf">
<polygon fill="white" stroke="black" points="605,-245 605,-264 676,-264 676,-245 605,-245"/>
<text text-anchor="middle" x="640.5" y="-252" font-family="Helvetica,sans-Serif" font-size="10.00">tfp_vsnprintf</text>
</a>
</g>
</g>
<!-- Node1084&#45;&gt;Node1085 -->
<g id="edge11" class="edge"><title>Node1084&#45;&gt;Node1085</title>
<path fill="none" stroke="midnightblue" d="M543.517,-254.5C558.906,-254.5 577.696,-254.5 594.558,-254.5"/>
<polygon fill="midnightblue" stroke="midnightblue" points="594.76,-258 604.76,-254.5 594.76,-251 594.76,-258"/>
</g>
<!-- Node1086 -->
<g id="node11" class="node"><title>Node1086</title>
<g id="a_node11"><a xlink:href="tinyprintf_8c.html#a5877e42444463efc71a91b5fe76a6145" target="_top" xlink:title="tfp_format">
<polygon fill="white" stroke="black" points="730.5,-264 730.5,-283 791.5,-283 791.5,-264 730.5,-264"/>
<text text-anchor="middle" x="761" y="-271" font-family="Helvetica,sans-Serif" font-size="10.00">tfp_format</text>
</a>
</g>
</g>
<!-- Node1085&#45;&gt;Node1086 -->
<g id="edge12" class="edge"><title>Node1085&#45;&gt;Node1086</title>
<path fill="none" stroke="midnightblue" d="M676.094,-260.047C689.947,-262.268 705.988,-264.84 720.311,-267.136"/>
<polygon fill="midnightblue" stroke="midnightblue" points="719.954,-270.624 730.382,-268.751 721.062,-263.712 719.954,-270.624"/>
</g>
<!-- Node1096 -->
<g id="node21" class="node"><title>Node1096</title>
<g id="a_node21"><a xlink:href="tinyprintf_8c.html#a919051024b2d729e34a54648b3f2462d" target="_top" xlink:title="_vsnprintf_putcf">
<polygon fill="white" stroke="black" points="718,-226 718,-245 804,-245 804,-226 718,-226"/>
<text text-anchor="middle" x="761" y="-233" font-family="Helvetica,sans-Serif" font-size="10.00">_vsnprintf_putcf</text>
</a>
</g>
</g>
<!-- Node1085&#45;&gt;Node1096 -->
<g id="edge25" class="edge"><title>Node1085&#45;&gt;Node1096</title>
<path fill="none" stroke="midnightblue" d="M676.094,-248.953C685.93,-247.376 696.869,-245.622 707.514,-243.915"/>
<polygon fill="midnightblue" stroke="midnightblue" points="708.264,-247.34 717.584,-242.301 707.156,-240.428 708.264,-247.34"/>
</g>
<!-- Node1087 -->
<g id="node12" class="node"><title>Node1087</title>
<g id="a_node12"><a xlink:href="tinyprintf_8c.html#aa97593a5e53af85b608ad0910db92d77" target="_top" xlink:title="a2u">
<polygon fill="white" stroke="black" points="848,-397 848,-416 880,-416 880,-397 848,-397"/>
<text text-anchor="middle" x="864" y="-404" font-family="Helvetica,sans-Serif" font-size="10.00">a2u</text>
</a>
</g>
</g>
<!-- Node1086&#45;&gt;Node1087 -->
<g id="edge13" class="edge"><title>Node1086&#45;&gt;Node1087</title>
<path fill="none" stroke="midnightblue" d="M768.24,-283.169C780.935,-302.615 811.025,-347.58 840,-382.5 841.935,-384.832 844.043,-387.216 846.173,-389.534"/>
<polygon fill="midnightblue" stroke="midnightblue" points="843.84,-392.159 853.273,-396.983 848.907,-387.33 843.84,-392.159"/>
</g>
<!-- Node1089 -->
<g id="node14" class="node"><title>Node1089</title>
<g id="a_node14"><a xlink:href="tinyprintf_8c.html#abcf035dd576671b0cc897de9dd8c75b0" target="_top" xlink:title="ulli2a">
<polygon fill="white" stroke="black" points="924,-340 924,-359 963,-359 963,-340 924,-340"/>
<text text-anchor="middle" x="943.5" y="-347" font-family="Helvetica,sans-Serif" font-size="10.00">ulli2a</text>
</a>
</g>
</g>
<!-- Node1086&#45;&gt;Node1089 -->
<g id="edge15" class="edge"><title>Node1086&#45;&gt;Node1089</title>
<path fill="none" stroke="midnightblue" d="M768.062,-283.08C779.593,-300.287 806.548,-335.897 840,-349.5 863.55,-359.076 892.737,-357.964 913.935,-355.111"/>
<polygon fill="midnightblue" stroke="midnightblue" points="914.585,-358.552 923.93,-353.559 913.511,-351.635 914.585,-358.552"/>
</g>
<!-- Node1090 -->
<g id="node15" class="node"><title>Node1090</title>
<g id="a_node15"><a xlink:href="tinyprintf_8c.html#a1d61347854a8c290d59b4a21efcefd75" target="_top" xlink:title="uli2a">
<polygon fill="white" stroke="black" points="925,-216 925,-235 962,-235 962,-216 925,-216"/>
<text text-anchor="middle" x="943.5" y="-223" font-family="Helvetica,sans-Serif" font-size="10.00">uli2a</text>
</a>
</g>
</g>
<!-- Node1086&#45;&gt;Node1090 -->
<g id="edge16" class="edge"><title>Node1086&#45;&gt;Node1090</title>
<path fill="none" stroke="midnightblue" d="M783.916,-263.888C790.419,-260.955 797.531,-257.667 804,-254.5 820.249,-246.546 822.671,-240.698 840,-235.5 864.5,-228.15 893.628,-225.892 914.56,-225.33"/>
<polygon fill="midnightblue" stroke="midnightblue" points="914.746,-228.828 924.691,-225.173 914.637,-221.829 914.746,-228.828"/>
</g>
<!-- Node1091 -->
<g id="node16" class="node"><title>Node1091</title>
<g id="a_node16"><a xlink:href="tinyprintf_8c.html#ac87ff66a592723f55692eaf8e3f19df8" target="_top" xlink:title="ui2a">
<polygon fill="white" stroke="black" points="926,-159 926,-178 961,-178 961,-159 926,-159"/>
<text text-anchor="middle" x="943.5" y="-166" font-family="Helvetica,sans-Serif" font-size="10.00">ui2a</text>
</a>
</g>
</g>
<!-- Node1086&#45;&gt;Node1091 -->
<g id="edge17" class="edge"><title>Node1086&#45;&gt;Node1091</title>
<path fill="none" stroke="midnightblue" d="M786.165,-263.991C792.17,-261.247 798.467,-258.03 804,-254.5 821.801,-243.144 822.594,-235.452 840,-223.5 864.832,-206.449 895.524,-190.597 916.817,-180.334"/>
<polygon fill="midnightblue" stroke="midnightblue" points="918.352,-183.48 925.884,-176.028 915.349,-177.156 918.352,-183.48"/>
</g>
<!-- Node1092 -->
<g id="node17" class="node"><title>Node1092</title>
<g id="a_node17"><a xlink:href="tinyprintf_8c.html#a6252dbfebb2c8783c4e3107d551082dd" target="_top" xlink:title="putchw">
<polygon fill="white" stroke="black" points="840,-245 840,-264 888,-264 888,-245 840,-245"/>
<text text-anchor="middle" x="864" y="-252" font-family="Helvetica,sans-Serif" font-size="10.00">putchw</text>
</a>
</g>
</g>
<!-- Node1086&#45;&gt;Node1092 -->
<g id="edge18" class="edge"><title>Node1086&#45;&gt;Node1092</title>
<path fill="none" stroke="midnightblue" d="M791.757,-267.902C803.758,-265.644 817.652,-263.031 829.965,-260.715"/>
<polygon fill="midnightblue" stroke="midnightblue" points="830.68,-264.142 839.86,-258.853 829.386,-257.262 830.68,-264.142"/>
</g>
<!-- Node1093 -->
<g id="node18" class="node"><title>Node1093</title>
<g id="a_node18"><a xlink:href="tinyprintf_8c.html#a49c6d2b3d4088012f2c1fe344eef69f3" target="_top" xlink:title="lli2a">
<polygon fill="white" stroke="black" points="847,-321 847,-340 881,-340 881,-321 847,-321"/>
<text text-anchor="middle" x="864" y="-328" font-family="Helvetica,sans-Serif" font-size="10.00">lli2a</text>
</a>
</g>
</g>
<!-- Node1086&#45;&gt;Node1093 -->
<g id="edge19" class="edge"><title>Node1086&#45;&gt;Node1093</title>
<path fill="none" stroke="midnightblue" d="M779.133,-283.169C795.237,-292.257 819.533,-305.969 837.837,-316.299"/>
<polygon fill="midnightblue" stroke="midnightblue" points="836.358,-319.483 846.787,-321.35 839.798,-313.387 836.358,-319.483"/>
</g>
<!-- Node1094 -->
<g id="node19" class="node"><title>Node1094</title>
<g id="a_node19"><a xlink:href="tinyprintf_8c.html#afebb7696337c3f599b5e8db35c560684" target="_top" xlink:title="li2a">
<polygon fill="white" stroke="black" points="848,-283 848,-302 880,-302 880,-283 848,-283"/>
<text text-anchor="middle" x="864" y="-290" font-family="Helvetica,sans-Serif" font-size="10.00">li2a</text>
</a>
</g>
</g>
<!-- Node1086&#45;&gt;Node1094 -->
<g id="edge21" class="edge"><title>Node1086&#45;&gt;Node1094</title>
<path fill="none" stroke="midnightblue" d="M791.757,-279.098C806.41,-281.854 823.882,-285.141 837.856,-287.77"/>
<polygon fill="midnightblue" stroke="midnightblue" points="837.282,-291.223 847.756,-289.632 838.576,-284.344 837.282,-291.223"/>
</g>
<!-- Node1095 -->
<g id="node20" class="node"><title>Node1095</title>
<g id="a_node20"><a xlink:href="tinyprintf_8c.html#a90f9fd8f2133cda7f50be8d67823405c" target="_top" xlink:title="i2a">
<polygon fill="white" stroke="black" points="849.5,-131 849.5,-150 878.5,-150 878.5,-131 849.5,-131"/>
<text text-anchor="middle" x="864" y="-138" font-family="Helvetica,sans-Serif" font-size="10.00">i2a</text>
</a>
</g>
</g>
<!-- Node1086&#45;&gt;Node1095 -->
<g id="edge23" class="edge"><title>Node1086&#45;&gt;Node1095</title>
<path fill="none" stroke="midnightblue" d="M791.031,-263.945C795.789,-261.428 800.349,-258.317 804,-254.5 833.781,-223.369 816.668,-200.716 840,-164.5 841.477,-162.208 843.192,-159.944 845.007,-157.776"/>
<polygon fill="midnightblue" stroke="midnightblue" points="847.96,-159.741 852.211,-150.036 842.836,-154.972 847.96,-159.741"/>
</g>
<!-- Node1088 -->
<g id="node13" class="node"><title>Node1088</title>
<g id="a_node13"><a xlink:href="tinyprintf_8c.html#aa853a0c5ba64fa2546d488b86192e7e3" target="_top" xlink:title="a2d">
<polygon fill="white" stroke="black" points="927.5,-397 927.5,-416 959.5,-416 959.5,-397 927.5,-397"/>
<text text-anchor="middle" x="943.5" y="-404" font-family="Helvetica,sans-Serif" font-size="10.00">a2d</text>
</a>
</g>
</g>
<!-- Node1087&#45;&gt;Node1088 -->
<g id="edge14" class="edge"><title>Node1087&#45;&gt;Node1088</title>
<path fill="none" stroke="midnightblue" d="M880.312,-406.5C890.888,-406.5 905.197,-406.5 917.423,-406.5"/>
<polygon fill="midnightblue" stroke="midnightblue" points="917.484,-410 927.484,-406.5 917.484,-403 917.484,-410"/>
</g>
<!-- Node1093&#45;&gt;Node1089 -->
<g id="edge20" class="edge"><title>Node1093&#45;&gt;Node1089</title>
<path fill="none" stroke="midnightblue" d="M881.058,-334.437C890.563,-336.767 902.88,-339.787 913.987,-342.51"/>
<polygon fill="midnightblue" stroke="midnightblue" points="913.187,-345.917 923.733,-344.899 914.854,-339.119 913.187,-345.917"/>
</g>
<!-- Node1094&#45;&gt;Node1090 -->
<g id="edge22" class="edge"><title>Node1094&#45;&gt;Node1090</title>
<path fill="none" stroke="midnightblue" d="M876.76,-282.905C880.385,-279.916 884.375,-276.592 888,-273.5 900.11,-263.169 913.531,-251.354 924.024,-242.031"/>
<polygon fill="midnightblue" stroke="midnightblue" points="926.593,-244.43 931.731,-235.164 921.936,-239.203 926.593,-244.43"/>
</g>
<!-- Node1095&#45;&gt;Node1091 -->
<g id="edge24" class="edge"><title>Node1095&#45;&gt;Node1091</title>
<path fill="none" stroke="midnightblue" d="M878.855,-145.506C889.231,-149.254 903.735,-154.494 916.277,-159.026"/>
<polygon fill="midnightblue" stroke="midnightblue" points="915.204,-162.36 925.798,-162.466 917.583,-155.776 915.204,-162.36"/>
</g>
<!-- Node1097&#45;&gt;Node1081 -->
<g id="edge27" class="edge"><title>Node1097&#45;&gt;Node1081</title>
<path fill="none" stroke="midnightblue" d="M409.713,-71.4256C460.511,-78.295 537.896,-88.76 588.588,-95.6151"/>
<polygon fill="midnightblue" stroke="midnightblue" points="588.289,-99.1064 598.668,-96.9782 589.227,-92.1696 588.289,-99.1064"/>
</g>
<!-- Node1098&#45;&gt;Node1081 -->
<g id="edge30" class="edge"><title>Node1098&#45;&gt;Node1081</title>
<path fill="none" stroke="midnightblue" d="M408.09,-107.441C458.797,-106.358 537.188,-104.685 588.427,-103.591"/>
<polygon fill="midnightblue" stroke="midnightblue" points="588.689,-107.086 598.612,-103.373 588.54,-100.087 588.689,-107.086"/>
</g>
</g>
</svg>
