<?xml version="1.0" encoding="UTF-8" standalone="no"?>
<!DOCTYPE svg PUBLIC "-//W3C//DTD SVG 1.1//EN"
 "http://www.w3.org/Graphics/SVG/1.1/DTD/svg11.dtd">
<!-- Generated by graphviz version 2.38.0 (20140413.2041)
 -->
<!-- Title: fini_message Pages: 1 -->
<svg width="945pt" height="1028pt"
 viewBox="0.00 0.00 945.00 1028.00" xmlns="http://www.w3.org/2000/svg" xmlns:xlink="http://www.w3.org/1999/xlink">
<g id="graph0" class="graph" transform="scale(1 1) rotate(0) translate(4 1024)">
<title>fini_message</title>
<polygon fill="white" stroke="none" points="-4,4 -4,-1024 941,-1024 941,4 -4,4"/>
<!-- Node138 -->
<g id="node1" class="node"><title>Node138</title>
<polygon fill="#bfbfbf" stroke="black" points="0,-696.5 0,-715.5 74,-715.5 74,-696.5 0,-696.5"/>
<text text-anchor="middle" x="37" y="-703.5" font-family="Helvetica,sans-Serif" font-size="10.00">fini_message</text>
</g>
<!-- Node139 -->
<g id="node2" class="node"><title>Node139</title>
<g id="a_node2"><a xlink:href="mqtt__msg_8c.html#a5e7a532d6f04c0d443701ba44fdf2e2d" target="_top" xlink:title="mqtt_msg_connect">
<polygon fill="white" stroke="black" points="119,-620.5 119,-639.5 219,-639.5 219,-620.5 119,-620.5"/>
<text text-anchor="middle" x="169" y="-627.5" font-family="Helvetica,sans-Serif" font-size="10.00">mqtt_msg_connect</text>
</a>
</g>
</g>
<!-- Node138&#45;&gt;Node139 -->
<g id="edge1" class="edge"><title>Node138&#45;&gt;Node139</title>
<path fill="none" stroke="midnightblue" d="M55.2555,-689.434C69.115,-676.881 89.5731,-659.977 110,-649 116.907,-645.288 124.667,-642.135 132.21,-639.527"/>
<polygon fill="midnightblue" stroke="midnightblue" points="52.8629,-686.879 47.9078,-696.244 57.6213,-692.013 52.8629,-686.879"/>
</g>
<!-- Node145 -->
<g id="node8" class="node"><title>Node145</title>
<g id="a_node8"><a xlink:href="mqtt__msg_8c.html#a73d5196990e37518bc236d279c85f226" target="_top" xlink:title="mqtt_msg_disconnect">
<polygon fill="white" stroke="black" points="112.5,-658.5 112.5,-677.5 225.5,-677.5 225.5,-658.5 112.5,-658.5"/>
<text text-anchor="middle" x="169" y="-665.5" font-family="Helvetica,sans-Serif" font-size="10.00">mqtt_msg_disconnect</text>
</a>
</g>
</g>
<!-- Node138&#45;&gt;Node145 -->
<g id="edge7" class="edge"><title>Node138&#45;&gt;Node145</title>
<path fill="none" stroke="midnightblue" d="M80.8839,-693.465C98.5689,-688.295 118.734,-682.401 135.206,-677.586"/>
<polygon fill="midnightblue" stroke="midnightblue" points="79.4208,-690.246 70.8045,-696.411 81.3848,-696.965 79.4208,-690.246"/>
</g>
<!-- Node146 -->
<g id="node9" class="node"><title>Node146</title>
<g id="a_node9"><a xlink:href="mqtt__msg_8c.html#ac73ae82d9f6a21f084802c1b0a8def42" target="_top" xlink:title="mqtt_msg_pingreq">
<polygon fill="white" stroke="black" points="120.5,-886.5 120.5,-905.5 217.5,-905.5 217.5,-886.5 120.5,-886.5"/>
<text text-anchor="middle" x="169" y="-893.5" font-family="Helvetica,sans-Serif" font-size="10.00">mqtt_msg_pingreq</text>
</a>
</g>
</g>
<!-- Node138&#45;&gt;Node146 -->
<g id="edge9" class="edge"><title>Node138&#45;&gt;Node146</title>
<path fill="none" stroke="midnightblue" d="M40.8751,-725.748C47.0554,-761.116 64.8934,-835.446 110,-877 114.208,-880.877 119.222,-883.963 124.514,-886.421"/>
<polygon fill="midnightblue" stroke="midnightblue" points="44.3062,-725.04 39.2583,-715.725 37.3955,-726.155 44.3062,-725.04"/>
</g>
<!-- Node149 -->
<g id="node12" class="node"><title>Node149</title>
<g id="a_node12"><a xlink:href="mqtt__msg_8c.html#a817f94301186a136c08abe582ca82401" target="_top" xlink:title="mqtt_msg_pingresp">
<polygon fill="white" stroke="black" points="118,-734.5 118,-753.5 220,-753.5 220,-734.5 118,-734.5"/>
<text text-anchor="middle" x="169" y="-741.5" font-family="Helvetica,sans-Serif" font-size="10.00">mqtt_msg_pingresp</text>
</a>
</g>
</g>
<!-- Node138&#45;&gt;Node149 -->
<g id="edge14" class="edge"><title>Node138&#45;&gt;Node149</title>
<path fill="none" stroke="midnightblue" d="M80.8839,-718.535C98.5689,-723.705 118.734,-729.599 135.206,-734.414"/>
<polygon fill="midnightblue" stroke="midnightblue" points="81.3848,-715.035 70.8045,-715.589 79.4208,-721.754 81.3848,-715.035"/>
</g>
<!-- Node151 -->
<g id="node14" class="node"><title>Node151</title>
<g id="a_node14"><a xlink:href="mqtt__msg_8c.html#a203f5abf687140e00cbe5ceb271ae2a9" target="_top" xlink:title="mqtt_msg_puback">
<polygon fill="white" stroke="black" points="120.5,-696.5 120.5,-715.5 217.5,-715.5 217.5,-696.5 120.5,-696.5"/>
<text text-anchor="middle" x="169" y="-703.5" font-family="Helvetica,sans-Serif" font-size="10.00">mqtt_msg_puback</text>
</a>
</g>
</g>
<!-- Node138&#45;&gt;Node151 -->
<g id="edge18" class="edge"><title>Node138&#45;&gt;Node151</title>
<path fill="none" stroke="midnightblue" d="M84.229,-706C95.9365,-706 108.533,-706 120.311,-706"/>
<polygon fill="midnightblue" stroke="midnightblue" points="84.2123,-702.5 74.2122,-706 84.2122,-709.5 84.2123,-702.5"/>
</g>
<!-- Node152 -->
<g id="node15" class="node"><title>Node152</title>
<g id="a_node15"><a xlink:href="mqtt__msg_8c.html#a6ddf7abb65c3c9006ffb1c4cf72f4980" target="_top" xlink:title="mqtt_msg_pubcomp">
<polygon fill="white" stroke="black" points="116.5,-848.5 116.5,-867.5 221.5,-867.5 221.5,-848.5 116.5,-848.5"/>
<text text-anchor="middle" x="169" y="-855.5" font-family="Helvetica,sans-Serif" font-size="10.00">mqtt_msg_pubcomp</text>
</a>
</g>
</g>
<!-- Node138&#45;&gt;Node152 -->
<g id="edge21" class="edge"><title>Node138&#45;&gt;Node152</title>
<path fill="none" stroke="midnightblue" d="M43.4076,-725.344C52.4516,-754.206 73.36,-808.414 110,-839 114.637,-842.87 120.084,-845.959 125.751,-848.423"/>
<polygon fill="midnightblue" stroke="midnightblue" points="46.7222,-724.211 40.5142,-715.625 40.0132,-726.208 46.7222,-724.211"/>
</g>
<!-- Node153 -->
<g id="node16" class="node"><title>Node153</title>
<g id="a_node16"><a xlink:href="mqtt__msg_8c.html#af16842423fc1d5d802a7f329fc3a9ef9" target="_top" xlink:title="mqtt_msg_publish">
<polygon fill="white" stroke="black" points="121,-582.5 121,-601.5 217,-601.5 217,-582.5 121,-582.5"/>
<text text-anchor="middle" x="169" y="-589.5" font-family="Helvetica,sans-Serif" font-size="10.00">mqtt_msg_publish</text>
</a>
</g>
</g>
<!-- Node138&#45;&gt;Node153 -->
<g id="edge24" class="edge"><title>Node138&#45;&gt;Node153</title>
<path fill="none" stroke="midnightblue" d="M47.5673,-687.326C59.4408,-665.93 81.6347,-631.225 110,-611 115.435,-607.124 121.708,-604.006 128.077,-601.506"/>
<polygon fill="midnightblue" stroke="midnightblue" points="44.3544,-685.912 42.7191,-696.379 50.5253,-689.216 44.3544,-685.912"/>
</g>
<!-- Node183 -->
<g id="node45" class="node"><title>Node183</title>
<g id="a_node45"><a xlink:href="mqtt__msg_8c.html#a9a9bb0b46778aeeea9ed48a37de31232" target="_top" xlink:title="mqtt_msg_pubrec">
<polygon fill="white" stroke="black" points="121.5,-810.5 121.5,-829.5 216.5,-829.5 216.5,-810.5 121.5,-810.5"/>
<text text-anchor="middle" x="169" y="-817.5" font-family="Helvetica,sans-Serif" font-size="10.00">mqtt_msg_pubrec</text>
</a>
</g>
</g>
<!-- Node138&#45;&gt;Node183 -->
<g id="edge55" class="edge"><title>Node138&#45;&gt;Node183</title>
<path fill="none" stroke="midnightblue" d="M47.5673,-724.674C59.4408,-746.07 81.6347,-780.775 110,-801 115.435,-804.876 121.708,-807.994 128.077,-810.494"/>
<polygon fill="midnightblue" stroke="midnightblue" points="50.5253,-722.784 42.7191,-715.621 44.3544,-726.088 50.5253,-722.784"/>
</g>
<!-- Node184 -->
<g id="node46" class="node"><title>Node184</title>
<g id="a_node46"><a xlink:href="mqtt__msg_8c.html#a144bc05ddeb251c82e48ed31d2cf16fb" target="_top" xlink:title="mqtt_msg_pubrel">
<polygon fill="white" stroke="black" points="123,-772.5 123,-791.5 215,-791.5 215,-772.5 123,-772.5"/>
<text text-anchor="middle" x="169" y="-779.5" font-family="Helvetica,sans-Serif" font-size="10.00">mqtt_msg_pubrel</text>
</a>
</g>
</g>
<!-- Node138&#45;&gt;Node184 -->
<g id="edge58" class="edge"><title>Node138&#45;&gt;Node184</title>
<path fill="none" stroke="midnightblue" d="M55.2555,-722.566C69.115,-735.119 89.5731,-752.023 110,-763 116.907,-766.712 124.667,-769.865 132.21,-772.473"/>
<polygon fill="midnightblue" stroke="midnightblue" points="57.6213,-719.987 47.9078,-715.756 52.8629,-725.121 57.6213,-719.987"/>
</g>
<!-- Node185 -->
<g id="node47" class="node"><title>Node185</title>
<g id="a_node47"><a xlink:href="mqtt__msg_8c.html#adff62ede8c5069101032913d4434baad" target="_top" xlink:title="mqtt_msg_subscribe">
<polygon fill="white" stroke="black" points="115.5,-544.5 115.5,-563.5 222.5,-563.5 222.5,-544.5 115.5,-544.5"/>
<text text-anchor="middle" x="169" y="-551.5" font-family="Helvetica,sans-Serif" font-size="10.00">mqtt_msg_subscribe</text>
</a>
</g>
</g>
<!-- Node138&#45;&gt;Node185 -->
<g id="edge61" class="edge"><title>Node138&#45;&gt;Node185</title>
<path fill="none" stroke="midnightblue" d="M43.4076,-686.656C52.4516,-657.794 73.36,-603.586 110,-573 114.637,-569.13 120.084,-566.041 125.751,-563.577"/>
<polygon fill="midnightblue" stroke="midnightblue" points="40.0132,-685.792 40.5142,-696.375 46.7222,-687.789 40.0132,-685.792"/>
</g>
<!-- Node187 -->
<g id="node49" class="node"><title>Node187</title>
<g id="a_node49"><a xlink:href="mqtt__msg_8c.html#a5b329f56f9757307102a494232b2cf92" target="_top" xlink:title="mqtt_msg_unsubscribe">
<polygon fill="white" stroke="black" points="110,-506.5 110,-525.5 228,-525.5 228,-506.5 110,-506.5"/>
<text text-anchor="middle" x="169" y="-513.5" font-family="Helvetica,sans-Serif" font-size="10.00">mqtt_msg_unsubscribe</text>
</a>
</g>
</g>
<!-- Node138&#45;&gt;Node187 -->
<g id="edge64" class="edge"><title>Node138&#45;&gt;Node187</title>
<path fill="none" stroke="midnightblue" d="M40.8751,-686.252C47.0554,-650.884 64.8934,-576.554 110,-535 114.208,-531.123 119.222,-528.037 124.514,-525.579"/>
<polygon fill="midnightblue" stroke="midnightblue" points="37.3955,-685.845 39.2583,-696.275 44.3062,-686.96 37.3955,-685.845"/>
</g>
<!-- Node140 -->
<g id="node3" class="node"><title>Node140</title>
<g id="a_node3"><a xlink:href="mqtt__msg_8h.html#affd61b4be51d1e29e51dfbc42489ba36" target="_top" xlink:title="mqtt_get_retain">
<polygon fill="white" stroke="black" points="275,-696.5 275,-715.5 359,-715.5 359,-696.5 275,-696.5"/>
<text text-anchor="middle" x="317" y="-703.5" font-family="Helvetica,sans-Serif" font-size="10.00">mqtt_get_retain</text>
</a>
</g>
</g>
<!-- Node139&#45;&gt;Node140 -->
<g id="edge2" class="edge"><title>Node139&#45;&gt;Node140</title>
<path fill="none" stroke="midnightblue" d="M213.515,-642.888C218.475,-644.757 223.397,-646.801 228,-649 256.579,-662.653 286.962,-684.079 303.494,-696.404"/>
<polygon fill="midnightblue" stroke="midnightblue" points="214.601,-639.56 204.007,-639.514 212.26,-646.157 214.601,-639.56"/>
</g>
<!-- Node141 -->
<g id="node4" class="node"><title>Node141</title>
<g id="a_node4"><a xlink:href="mqtt_8c.html#a36ecd969af1b9c87856f01be064a98cc" target="_top" xlink:title="Tcp client connect success callback function. ">
<polygon fill="white" stroke="black" points="406,-962.5 406,-981.5 540,-981.5 540,-962.5 406,-962.5"/>
<text text-anchor="middle" x="473" y="-969.5" font-family="Helvetica,sans-Serif" font-size="10.00">mqtt_tcpclient_connect_cb</text>
</a>
</g>
</g>
<!-- Node139&#45;&gt;Node141 -->
<g id="edge3" class="edge"><title>Node139&#45;&gt;Node141</title>
<path fill="none" stroke="midnightblue" d="M229.1,-630.391C274.553,-634.063 335.276,-646.914 370,-687 448.111,-777.173 328.009,-862.723 406,-953 409.352,-956.88 413.44,-959.992 417.922,-962.486"/>
<polygon fill="midnightblue" stroke="midnightblue" points="229.282,-626.895 219.067,-629.708 228.806,-633.879 229.282,-626.895"/>
</g>
<!-- Node142 -->
<g id="node5" class="node"><title>Node142</title>
<g id="a_node5"><a xlink:href="mqtt_8c.html#ad34b681cb2f7473d8fc786c7ed468db5" target="_top" xlink:title="Begin connect to MQTT broker. ">
<polygon fill="white" stroke="black" points="587.5,-962.5 587.5,-981.5 673.5,-981.5 673.5,-962.5 587.5,-962.5"/>
<text text-anchor="middle" x="630.5" y="-969.5" font-family="Helvetica,sans-Serif" font-size="10.00">MQTT_Connect</text>
</a>
</g>
</g>
<!-- Node141&#45;&gt;Node142 -->
<g id="edge4" class="edge"><title>Node141&#45;&gt;Node142</title>
<path fill="none" stroke="midnightblue" d="M550.487,-972C563.112,-972 575.781,-972 587.163,-972"/>
<polygon fill="midnightblue" stroke="midnightblue" points="550.397,-968.5 540.397,-972 550.397,-975.5 550.397,-968.5"/>
</g>
<!-- Node143 -->
<g id="node6" class="node"><title>Node143</title>
<g id="a_node6"><a xlink:href="mqtt_8c.html#a9d88fa6efb9163d4dbf9dc750a8d4ed0" target="_top" xlink:title="MQTT_Task">
<polygon fill="white" stroke="black" points="731,-981.5 731,-1000.5 802,-1000.5 802,-981.5 731,-981.5"/>
<text text-anchor="middle" x="766.5" y="-988.5" font-family="Helvetica,sans-Serif" font-size="10.00">MQTT_Task</text>
</a>
</g>
</g>
<!-- Node142&#45;&gt;Node143 -->
<g id="edge5" class="edge"><title>Node142&#45;&gt;Node143</title>
<path fill="none" stroke="midnightblue" d="M683.706,-979.402C699.503,-981.642 716.455,-984.046 730.807,-986.081"/>
<polygon fill="midnightblue" stroke="midnightblue" points="683.923,-975.898 673.531,-977.96 682.94,-982.829 683.923,-975.898"/>
</g>
<!-- Node144 -->
<g id="node7" class="node"><title>Node144</title>
<g id="a_node7"><a xlink:href="mqtt_8c.html#a25cb7ac079d1d119250dac075c45acf1" target="_top" xlink:title="MQTT initialization mqtt client function. ">
<polygon fill="white" stroke="black" points="848,-981.5 848,-1000.5 937,-1000.5 937,-981.5 848,-981.5"/>
<text text-anchor="middle" x="892.5" y="-988.5" font-family="Helvetica,sans-Serif" font-size="10.00">MQTT_InitClient</text>
</a>
</g>
</g>
<!-- Node143&#45;&gt;Node144 -->
<g id="edge6" class="edge"><title>Node143&#45;&gt;Node144</title>
<path fill="none" stroke="midnightblue" d="M812.362,-991C823.921,-991 836.343,-991 847.839,-991"/>
<polygon fill="midnightblue" stroke="midnightblue" points="812.041,-987.5 802.041,-991 812.041,-994.5 812.041,-987.5"/>
</g>
<!-- Node145&#45;&gt;Node140 -->
<g id="edge8" class="edge"><title>Node145&#45;&gt;Node140</title>
<path fill="none" stroke="midnightblue" d="M216.536,-680.112C236.87,-685.404 260.371,-691.521 279.423,-696.48"/>
<polygon fill="midnightblue" stroke="midnightblue" points="217.401,-676.721 206.842,-677.589 215.638,-683.495 217.401,-676.721"/>
</g>
<!-- Node146&#45;&gt;Node140 -->
<g id="edge10" class="edge"><title>Node146&#45;&gt;Node140</title>
<path fill="none" stroke="midnightblue" d="M222.687,-881.347C224.568,-880.021 226.35,-878.576 228,-877 260.648,-845.81 243.104,-822.026 264,-782 277.17,-756.773 297.165,-729.885 308.127,-715.841"/>
<polygon fill="midnightblue" stroke="midnightblue" points="220.814,-878.386 213.911,-886.424 224.32,-884.445 220.814,-878.386"/>
</g>
<!-- Node147 -->
<g id="node10" class="node"><title>Node147</title>
<g id="a_node10"><a xlink:href="mqtt_8c.html#ad8ba75844d580447adc10eee6aba039d" target="_top" xlink:title="mqtt_send_keepalive">
<polygon fill="white" stroke="black" points="576,-1000.5 576,-1019.5 685,-1019.5 685,-1000.5 576,-1000.5"/>
<text text-anchor="middle" x="630.5" y="-1007.5" font-family="Helvetica,sans-Serif" font-size="10.00">mqtt_send_keepalive</text>
</a>
</g>
</g>
<!-- Node146&#45;&gt;Node147 -->
<g id="edge11" class="edge"><title>Node146&#45;&gt;Node147</title>
<path fill="none" stroke="midnightblue" d="M197.341,-910.149C240.42,-931.712 327.308,-972.263 406,-991 463.014,-1004.58 530.237,-1008.76 575.961,-1009.9"/>
<polygon fill="midnightblue" stroke="midnightblue" points="198.844,-906.988 188.34,-905.601 195.686,-913.235 198.844,-906.988"/>
</g>
<!-- Node148 -->
<g id="node11" class="node"><title>Node148</title>
<g id="a_node11"><a xlink:href="mqtt_8c.html#a086502e2dd36681a7fb4d9a9018cfc88" target="_top" xlink:title="MQTT ping function. ">
<polygon fill="white" stroke="black" points="282.5,-886.5 282.5,-905.5 351.5,-905.5 351.5,-886.5 282.5,-886.5"/>
<text text-anchor="middle" x="317" y="-893.5" font-family="Helvetica,sans-Serif" font-size="10.00">MQTT_Ping</text>
</a>
</g>
</g>
<!-- Node146&#45;&gt;Node148 -->
<g id="edge13" class="edge"><title>Node146&#45;&gt;Node148</title>
<path fill="none" stroke="midnightblue" d="M227.911,-896C246.407,-896 266.254,-896 282.419,-896"/>
<polygon fill="midnightblue" stroke="midnightblue" points="227.806,-892.5 217.806,-896 227.806,-899.5 227.806,-892.5"/>
</g>
<!-- Node147&#45;&gt;Node143 -->
<g id="edge12" class="edge"><title>Node147&#45;&gt;Node143</title>
<path fill="none" stroke="midnightblue" d="M695.368,-1000.94C707.516,-999.222 719.802,-997.48 730.624,-995.945"/>
<polygon fill="midnightblue" stroke="midnightblue" points="694.64,-997.512 685.231,-1002.38 695.623,-1004.44 694.64,-997.512"/>
</g>
<!-- Node149&#45;&gt;Node140 -->
<g id="edge15" class="edge"><title>Node149&#45;&gt;Node140</title>
<path fill="none" stroke="midnightblue" d="M216.536,-731.888C236.87,-726.596 260.371,-720.479 279.423,-715.52"/>
<polygon fill="midnightblue" stroke="midnightblue" points="215.638,-728.505 206.842,-734.411 217.401,-735.279 215.638,-728.505"/>
</g>
<!-- Node150 -->
<g id="node13" class="node"><title>Node150</title>
<g id="a_node13"><a xlink:href="mqtt_8c.html#af470856972320b9c02da9fcb6f419fd0" target="_top" xlink:title="Client received callback function. ">
<polygon fill="white" stroke="black" points="266,-791.5 266,-810.5 368,-810.5 368,-791.5 266,-791.5"/>
<text text-anchor="middle" x="317" y="-798.5" font-family="Helvetica,sans-Serif" font-size="10.00">mqtt_tcpclient_recv</text>
</a>
</g>
</g>
<!-- Node149&#45;&gt;Node150 -->
<g id="edge16" class="edge"><title>Node149&#45;&gt;Node150</title>
<path fill="none" stroke="midnightblue" d="M210.611,-756.782C216.475,-758.778 222.414,-760.884 228,-763 251.343,-771.843 277.544,-783.369 295.239,-791.398"/>
<polygon fill="midnightblue" stroke="midnightblue" points="211.479,-753.382 200.885,-753.541 209.266,-760.023 211.479,-753.382"/>
</g>
<!-- Node150&#45;&gt;Node141 -->
<g id="edge17" class="edge"><title>Node150&#45;&gt;Node141</title>
<path fill="none" stroke="midnightblue" d="M331.429,-818.887C342.456,-833.967 358.134,-856.333 370,-877 388.611,-909.413 377.519,-928.798 406,-953 410.543,-956.861 415.829,-959.938 421.395,-962.391"/>
<polygon fill="midnightblue" stroke="midnightblue" points="334,-816.477 325.239,-810.519 328.372,-820.64 334,-816.477"/>
</g>
<!-- Node151&#45;&gt;Node140 -->
<g id="edge19" class="edge"><title>Node151&#45;&gt;Node140</title>
<path fill="none" stroke="midnightblue" d="M227.963,-706C243.682,-706 260.374,-706 274.948,-706"/>
<polygon fill="midnightblue" stroke="midnightblue" points="227.806,-702.5 217.806,-706 227.806,-709.5 227.806,-702.5"/>
</g>
<!-- Node151&#45;&gt;Node150 -->
<g id="edge20" class="edge"><title>Node151&#45;&gt;Node150</title>
<path fill="none" stroke="midnightblue" d="M216.162,-719.235C220.259,-720.969 224.264,-722.888 228,-725 260.863,-743.575 292.671,-775.566 307.43,-791.461"/>
<polygon fill="midnightblue" stroke="midnightblue" points="217.114,-715.85 206.524,-715.519 214.595,-722.382 217.114,-715.85"/>
</g>
<!-- Node152&#45;&gt;Node140 -->
<g id="edge22" class="edge"><title>Node152&#45;&gt;Node140</title>
<path fill="none" stroke="midnightblue" d="M220.599,-843.917C223.2,-842.435 225.689,-840.801 228,-839 251.633,-820.581 247.537,-807.035 264,-782 279.811,-757.956 299.096,-730.15 309.153,-715.76"/>
<polygon fill="midnightblue" stroke="midnightblue" points="218.875,-840.863 211.418,-848.39 221.941,-847.156 218.875,-840.863"/>
</g>
<!-- Node152&#45;&gt;Node150 -->
<g id="edge23" class="edge"><title>Node152&#45;&gt;Node150</title>
<path fill="none" stroke="midnightblue" d="M210.611,-845.218C216.475,-843.222 222.414,-841.116 228,-839 251.343,-830.157 277.544,-818.631 295.239,-810.602"/>
<polygon fill="midnightblue" stroke="midnightblue" points="209.266,-841.977 200.885,-848.459 211.479,-848.618 209.266,-841.977"/>
</g>
<!-- Node153&#45;&gt;Node140 -->
<g id="edge25" class="edge"><title>Node153&#45;&gt;Node140</title>
<path fill="none" stroke="midnightblue" d="M217.888,-605.474C221.412,-607.128 224.825,-608.964 228,-611 264.906,-634.661 296.647,-677.396 309.678,-696.419"/>
<polygon fill="midnightblue" stroke="midnightblue" points="218.965,-602.131 208.388,-601.512 216.27,-608.591 218.965,-602.131"/>
</g>
<!-- Node154 -->
<g id="node17" class="node"><title>Node154</title>
<g id="a_node17"><a xlink:href="mqtt_8c.html#a848a6701c4c7ec3432e38ea57c003aad" target="_top" xlink:title="MQTT publish function. ">
<polygon fill="white" stroke="black" points="276,-525.5 276,-544.5 358,-544.5 358,-525.5 276,-525.5"/>
<text text-anchor="middle" x="317" y="-532.5" font-family="Helvetica,sans-Serif" font-size="10.00">MQTT_Publish</text>
</a>
</g>
</g>
<!-- Node153&#45;&gt;Node154 -->
<g id="edge26" class="edge"><title>Node153&#45;&gt;Node154</title>
<path fill="none" stroke="midnightblue" d="M210.611,-579.218C216.475,-577.222 222.414,-575.116 228,-573 251.343,-564.157 277.544,-552.631 295.239,-544.602"/>
<polygon fill="midnightblue" stroke="midnightblue" points="209.266,-575.977 200.885,-582.459 211.479,-582.618 209.266,-575.977"/>
</g>
<!-- Node155 -->
<g id="node18" class="node"><title>Node155</title>
<g id="a_node18"><a xlink:href="en61107__request_8c.html#aa3b162cf5364986ea19e831ac2b18f76" target="_top" xlink:title="en61107_received_task">
<polygon fill="white" stroke="black" points="413.5,-696.5 413.5,-715.5 532.5,-715.5 532.5,-696.5 413.5,-696.5"/>
<text text-anchor="middle" x="473" y="-703.5" font-family="Helvetica,sans-Serif" font-size="10.00">en61107_received_task</text>
</a>
</g>
</g>
<!-- Node154&#45;&gt;Node155 -->
<g id="edge27" class="edge"><title>Node154&#45;&gt;Node155</title>
<path fill="none" stroke="midnightblue" d="M327.869,-553.813C348.264,-592.414 394.144,-677.738 406,-687 410.98,-690.89 416.727,-693.984 422.71,-696.445"/>
<polygon fill="midnightblue" stroke="midnightblue" points="330.812,-551.888 323.055,-544.671 324.618,-555.15 330.812,-551.888"/>
</g>
<!-- Node157 -->
<g id="node20" class="node"><title>Node157</title>
<g id="a_node20"><a xlink:href="en61107__request_8h.html#a7384d014eb9e833f64ecf4a9f86f87be" target="_top" xlink:title="en61107_request_send">
<polygon fill="white" stroke="black" points="414.5,-658.5 414.5,-677.5 531.5,-677.5 531.5,-658.5 414.5,-658.5"/>
<text text-anchor="middle" x="473" y="-665.5" font-family="Helvetica,sans-Serif" font-size="10.00">en61107_request_send</text>
</a>
</g>
</g>
<!-- Node154&#45;&gt;Node157 -->
<g id="edge29" class="edge"><title>Node154&#45;&gt;Node157</title>
<path fill="none" stroke="midnightblue" d="M327.407,-553.571C341.2,-578.926 369.305,-624.065 406,-649 411.72,-652.887 418.236,-655.988 424.894,-658.459"/>
<polygon fill="midnightblue" stroke="midnightblue" points="330.445,-551.827 322.685,-544.614 324.252,-555.092 330.445,-551.827"/>
</g>
<!-- Node158 -->
<g id="node21" class="node"><title>Node158</title>
<g id="a_node21"><a xlink:href="kmp__request_8c.html#a3f6b790a06b933b78f40ade5e9a16131" target="_top" xlink:title="kmp_received_task">
<polygon fill="white" stroke="black" points="580,-601.5 580,-620.5 681,-620.5 681,-601.5 580,-601.5"/>
<text text-anchor="middle" x="630.5" y="-608.5" font-family="Helvetica,sans-Serif" font-size="10.00">kmp_received_task</text>
</a>
</g>
</g>
<!-- Node154&#45;&gt;Node158 -->
<g id="edge30" class="edge"><title>Node154&#45;&gt;Node158</title>
<path fill="none" stroke="midnightblue" d="M346.063,-549.169C363.036,-557.216 385.326,-566.875 406,-573 464.493,-590.329 534.088,-600.604 579.898,-606.015"/>
<polygon fill="midnightblue" stroke="midnightblue" points="347.262,-545.861 336.736,-544.656 344.213,-552.162 347.262,-545.861"/>
</g>
<!-- Node160 -->
<g id="node23" class="node"><title>Node160</title>
<g id="a_node23"><a xlink:href="kmp__request_8h.html#a3b022dcdc832786eb06126b5e6879604" target="_top" xlink:title="kmp_request_send">
<polygon fill="white" stroke="red" points="423.5,-620.5 423.5,-639.5 522.5,-639.5 522.5,-620.5 423.5,-620.5"/>
<text text-anchor="middle" x="473" y="-627.5" font-family="Helvetica,sans-Serif" font-size="10.00">kmp_request_send</text>
</a>
</g>
</g>
<!-- Node154&#45;&gt;Node160 -->
<g id="edge32" class="edge"><title>Node154&#45;&gt;Node160</title>
<path fill="none" stroke="midnightblue" d="M335.175,-551.766C352.052,-567.501 379.115,-590.826 406,-606 416.299,-611.813 428.269,-616.666 439.165,-620.453"/>
<polygon fill="midnightblue" stroke="midnightblue" points="337.416,-549.067 327.754,-544.72 332.596,-554.144 337.416,-549.067"/>
</g>
<!-- Node162 -->
<g id="node24" class="node"><title>Node162</title>
<g id="a_node24"><a xlink:href="mqtt__rpc_8h.html#a7d1ed70e046b535e06c58675d4f1676b" target="_top" xlink:title="mqtt_rpc_ap_status">
<polygon fill="white" stroke="black" points="421.5,-544.5 421.5,-563.5 524.5,-563.5 524.5,-544.5 421.5,-544.5"/>
<text text-anchor="middle" x="473" y="-551.5" font-family="Helvetica,sans-Serif" font-size="10.00">mqtt_rpc_ap_status</text>
</a>
</g>
</g>
<!-- Node154&#45;&gt;Node162 -->
<g id="edge34" class="edge"><title>Node154&#45;&gt;Node162</title>
<path fill="none" stroke="midnightblue" d="M368.357,-541.213C385.363,-543.311 404.346,-545.653 421.372,-547.754"/>
<polygon fill="midnightblue" stroke="midnightblue" points="368.413,-537.693 358.06,-539.942 367.556,-544.641 368.413,-537.693"/>
</g>
<!-- Node163 -->
<g id="node25" class="node"><title>Node163</title>
<g id="a_node25"><a xlink:href="mqtt__rpc_8h.html#a023697ad978d1154228e256583a147c0" target="_top" xlink:title="mqtt_rpc_clear_cron">
<polygon fill="white" stroke="black" points="420.5,-506.5 420.5,-525.5 525.5,-525.5 525.5,-506.5 420.5,-506.5"/>
<text text-anchor="middle" x="473" y="-513.5" font-family="Helvetica,sans-Serif" font-size="10.00">mqtt_rpc_clear_cron</text>
</a>
</g>
</g>
<!-- Node154&#45;&gt;Node163 -->
<g id="edge35" class="edge"><title>Node154&#45;&gt;Node163</title>
<path fill="none" stroke="midnightblue" d="M368.162,-528.811C384.839,-526.754 403.436,-524.459 420.232,-522.387"/>
<polygon fill="midnightblue" stroke="midnightblue" points="367.556,-525.359 358.06,-530.058 368.413,-532.307 367.556,-525.359"/>
</g>
<!-- Node164 -->
<g id="node26" class="node"><title>Node164</title>
<g id="a_node26"><a xlink:href="mqtt__rpc_8h.html#a1e120184f7f332e637fc9481bcf5ce89" target="_top" xlink:title="mqtt_rpc_cron">
<polygon fill="white" stroke="black" points="433.5,-468.5 433.5,-487.5 512.5,-487.5 512.5,-468.5 433.5,-468.5"/>
<text text-anchor="middle" x="473" y="-475.5" font-family="Helvetica,sans-Serif" font-size="10.00">mqtt_rpc_cron</text>
</a>
</g>
</g>
<!-- Node154&#45;&gt;Node164 -->
<g id="edge36" class="edge"><title>Node154&#45;&gt;Node164</title>
<path fill="none" stroke="midnightblue" d="M355.995,-521.796C360.75,-519.945 365.515,-517.992 370,-516 386.534,-508.657 389.219,-503.76 406,-497 414.848,-493.436 424.611,-490.243 433.854,-487.539"/>
<polygon fill="midnightblue" stroke="midnightblue" points="354.469,-518.631 346.344,-525.431 356.936,-525.182 354.469,-518.631"/>
</g>
<!-- Node165 -->
<g id="node27" class="node"><title>Node165</title>
<g id="a_node27"><a xlink:href="mqtt__rpc_8h.html#afbd8a015cb20feb245dfc778416af7e9" target="_top" xlink:title="mqtt_rpc_crypto">
<polygon fill="white" stroke="black" points="429.5,-430.5 429.5,-449.5 516.5,-449.5 516.5,-430.5 429.5,-430.5"/>
<text text-anchor="middle" x="473" y="-437.5" font-family="Helvetica,sans-Serif" font-size="10.00">mqtt_rpc_crypto</text>
</a>
</g>
</g>
<!-- Node154&#45;&gt;Node165 -->
<g id="edge37" class="edge"><title>Node154&#45;&gt;Node165</title>
<path fill="none" stroke="midnightblue" d="M362.778,-520.955C365.324,-519.458 367.756,-517.811 370,-516 393.319,-497.185 382.037,-476.987 406,-459 412.866,-453.846 421.091,-450.089 429.366,-447.349"/>
<polygon fill="midnightblue" stroke="midnightblue" points="361.147,-517.857 353.796,-525.487 364.301,-524.107 361.147,-517.857"/>
</g>
<!-- Node166 -->
<g id="node28" class="node"><title>Node166</title>
<g id="a_node28"><a xlink:href="mqtt__rpc_8h.html#a29c5b0a22ebb1032363e20a1eb228d88" target="_top" xlink:title="mqtt_rpc_mem">
<polygon fill="white" stroke="black" points="432,-392.5 432,-411.5 514,-411.5 514,-392.5 432,-392.5"/>
<text text-anchor="middle" x="473" y="-399.5" font-family="Helvetica,sans-Serif" font-size="10.00">mqtt_rpc_mem</text>
</a>
</g>
</g>
<!-- Node154&#45;&gt;Node166 -->
<g id="edge38" class="edge"><title>Node154&#45;&gt;Node166</title>
<path fill="none" stroke="midnightblue" d="M365.29,-520.014C366.959,-518.779 368.539,-517.444 370,-516 402.117,-484.263 372.792,-451.593 406,-421 413.191,-414.375 422.547,-410.045 431.943,-407.219"/>
<polygon fill="midnightblue" stroke="midnightblue" points="363.118,-517.236 356.35,-525.387 366.724,-523.236 363.118,-517.236"/>
</g>
<!-- Node167 -->
<g id="node29" class="node"><title>Node167</title>
<g id="a_node29"><a xlink:href="mqtt__rpc_8h.html#a44921185fc90cf7507f2eaf4fa48861a" target="_top" xlink:title="mqtt_rpc_open_until">
<polygon fill="white" stroke="black" points="421,-354.5 421,-373.5 525,-373.5 525,-354.5 421,-354.5"/>
<text text-anchor="middle" x="473" y="-361.5" font-family="Helvetica,sans-Serif" font-size="10.00">mqtt_rpc_open_until</text>
</a>
</g>
</g>
<!-- Node154&#45;&gt;Node167 -->
<g id="edge39" class="edge"><title>Node154&#45;&gt;Node167</title>
<path fill="none" stroke="midnightblue" d="M365.643,-520.055C367.198,-518.809 368.66,-517.461 370,-516 411.401,-470.877 363.045,-426.646 406,-383 410.182,-378.751 415.248,-375.437 420.693,-372.854"/>
<polygon fill="midnightblue" stroke="midnightblue" points="363.748,-517.112 357.221,-525.458 367.528,-523.004 363.748,-517.112"/>
</g>
<!-- Node168 -->
<g id="node30" class="node"><title>Node168</title>
<g id="a_node30"><a xlink:href="mqtt__rpc_8h.html#a37edc063b829348999e78221ed0f247e" target="_top" xlink:title="mqtt_rpc_open_until\l_delta">
<polygon fill="white" stroke="black" points="421,-305 421,-335 525,-335 525,-305 421,-305"/>
<text text-anchor="start" x="429" y="-323" font-family="Helvetica,sans-Serif" font-size="10.00">mqtt_rpc_open_until</text>
<text text-anchor="middle" x="473" y="-312" font-family="Helvetica,sans-Serif" font-size="10.00">_delta</text>
</a>
</g>
</g>
<!-- Node154&#45;&gt;Node168 -->
<g id="edge40" class="edge"><title>Node154&#45;&gt;Node168</title>
<path fill="none" stroke="midnightblue" d="M366.279,-519.7C367.606,-518.555 368.853,-517.323 370,-516 420.86,-457.304 355.487,-403.995 406,-345 410.144,-340.16 415.328,-336.255 420.958,-333.105"/>
<polygon fill="midnightblue" stroke="midnightblue" points="364.245,-516.851 357.944,-525.368 368.181,-522.64 364.245,-516.851"/>
</g>
<!-- Node169 -->
<g id="node31" class="node"><title>Node169</title>
<g id="a_node31"><a xlink:href="mqtt__rpc_8h.html#a0e5c92a93eaf9b2e3c2cd98c0fcbe65f" target="_top" xlink:title="mqtt_rpc_ping">
<polygon fill="white" stroke="black" points="434,-266.5 434,-285.5 512,-285.5 512,-266.5 434,-266.5"/>
<text text-anchor="middle" x="473" y="-273.5" font-family="Helvetica,sans-Serif" font-size="10.00">mqtt_rpc_ping</text>
</a>
</g>
</g>
<!-- Node154&#45;&gt;Node169 -->
<g id="edge41" class="edge"><title>Node154&#45;&gt;Node169</title>
<path fill="none" stroke="midnightblue" d="M366.359,-519.768C367.664,-518.603 368.884,-517.349 370,-516 433.421,-439.31 339.933,-369.423 406,-295 413.124,-286.975 423.397,-282.244 433.723,-279.483"/>
<polygon fill="midnightblue" stroke="midnightblue" points="364.318,-516.924 358.112,-525.511 368.319,-522.668 364.318,-516.924"/>
</g>
<!-- Node170 -->
<g id="node32" class="node"><title>Node170</title>
<g id="a_node32"><a xlink:href="mqtt__rpc_8h.html#aa21aaf34522e1a100a4120d9f63d2dad" target="_top" xlink:title="mqtt_rpc_reset_reason">
<polygon fill="white" stroke="black" points="415,-228.5 415,-247.5 531,-247.5 531,-228.5 415,-228.5"/>
<text text-anchor="middle" x="473" y="-235.5" font-family="Helvetica,sans-Serif" font-size="10.00">mqtt_rpc_reset_reason</text>
</a>
</g>
</g>
<!-- Node154&#45;&gt;Node170 -->
<g id="edge42" class="edge"><title>Node154&#45;&gt;Node170</title>
<path fill="none" stroke="midnightblue" d="M366.4,-519.801C367.693,-518.627 368.9,-517.362 370,-516 443.013,-425.581 329.867,-344.808 406,-257 409.359,-253.126 413.451,-250.018 417.936,-247.527"/>
<polygon fill="midnightblue" stroke="midnightblue" points="364.356,-516.96 358.199,-525.582 368.389,-522.681 364.356,-516.96"/>
</g>
<!-- Node171 -->
<g id="node33" class="node"><title>Node171</title>
<g id="a_node33"><a xlink:href="mqtt__rpc_8h.html#ae3c71a438ecea4bb271bd1586af59452" target="_top" xlink:title="mqtt_rpc_restart">
<polygon fill="white" stroke="black" points="429,-190.5 429,-209.5 517,-209.5 517,-190.5 429,-190.5"/>
<text text-anchor="middle" x="473" y="-197.5" font-family="Helvetica,sans-Serif" font-size="10.00">mqtt_rpc_restart</text>
</a>
</g>
</g>
<!-- Node154&#45;&gt;Node171 -->
<g id="edge43" class="edge"><title>Node154&#45;&gt;Node171</title>
<path fill="none" stroke="midnightblue" d="M366.358,-519.893C367.67,-518.693 368.891,-517.398 370,-516 452.628,-411.824 319.777,-320.22 406,-219 411.876,-212.102 420.081,-207.625 428.712,-204.739"/>
<polygon fill="midnightblue" stroke="midnightblue" points="364.169,-517.154 358.011,-525.775 368.201,-522.876 364.169,-517.154"/>
</g>
<!-- Node172 -->
<g id="node34" class="node"><title>Node172</title>
<g id="a_node34"><a xlink:href="mqtt__rpc_8h.html#a9d2f80fe20656d22687c0414da46fcce" target="_top" xlink:title="mqtt_rpc_rssi">
<polygon fill="white" stroke="black" points="435,-152.5 435,-171.5 511,-171.5 511,-152.5 435,-152.5"/>
<text text-anchor="middle" x="473" y="-159.5" font-family="Helvetica,sans-Serif" font-size="10.00">mqtt_rpc_rssi</text>
</a>
</g>
</g>
<!-- Node154&#45;&gt;Node172 -->
<g id="edge44" class="edge"><title>Node154&#45;&gt;Node172</title>
<path fill="none" stroke="midnightblue" d="M366.383,-519.912C367.688,-518.707 368.901,-517.405 370,-516 462.257,-398.048 309.671,-295.65 406,-181 413.21,-172.419 424.024,-167.577 434.823,-164.887"/>
<polygon fill="midnightblue" stroke="midnightblue" points="364.192,-517.175 358.062,-525.816 368.243,-522.883 364.192,-517.175"/>
</g>
<!-- Node173 -->
<g id="node35" class="node"><title>Node173</title>
<g id="a_node35"><a xlink:href="mqtt__rpc_8h.html#a5ede5df0880a2c3823a5c3757423678b" target="_top" xlink:title="mqtt_rpc_set_cron">
<polygon fill="white" stroke="black" points="424,-114.5 424,-133.5 522,-133.5 522,-114.5 424,-114.5"/>
<text text-anchor="middle" x="473" y="-121.5" font-family="Helvetica,sans-Serif" font-size="10.00">mqtt_rpc_set_cron</text>
</a>
</g>
</g>
<!-- Node154&#45;&gt;Node173 -->
<g id="edge45" class="edge"><title>Node154&#45;&gt;Node173</title>
<path fill="none" stroke="midnightblue" d="M366.402,-519.927C367.702,-518.718 368.908,-517.411 370,-516 420.948,-450.13 352.778,-207.046 406,-143 410.725,-137.314 417.032,-133.268 423.879,-130.401"/>
<polygon fill="midnightblue" stroke="midnightblue" points="364.211,-517.191 358.104,-525.848 368.277,-522.889 364.211,-517.191"/>
</g>
<!-- Node174 -->
<g id="node36" class="node"><title>Node174</title>
<g id="a_node36"><a xlink:href="mqtt__rpc_8h.html#a3384f5aa84b17fa3902e2aad318913d8" target="_top" xlink:title="mqtt_rpc_set_pwd">
<polygon fill="white" stroke="black" points="424.5,-76.5 424.5,-95.5 521.5,-95.5 521.5,-76.5 424.5,-76.5"/>
<text text-anchor="middle" x="473" y="-83.5" font-family="Helvetica,sans-Serif" font-size="10.00">mqtt_rpc_set_pwd</text>
</a>
</g>
</g>
<!-- Node154&#45;&gt;Node174 -->
<g id="edge46" class="edge"><title>Node154&#45;&gt;Node174</title>
<path fill="none" stroke="midnightblue" d="M366.419,-519.94C367.713,-518.727 368.915,-517.416 370,-516 425.771,-443.231 347.716,-175.772 406,-105 410.851,-99.1093 417.402,-94.9765 424.499,-92.0907"/>
<polygon fill="midnightblue" stroke="midnightblue" points="364.227,-517.204 358.138,-525.874 368.305,-522.894 364.227,-517.204"/>
</g>
<!-- Node175 -->
<g id="node37" class="node"><title>Node175</title>
<g id="a_node37"><a xlink:href="mqtt__rpc_8h.html#aa3b038b94189cb8a82fdc7e5115d90c8" target="_top" xlink:title="mqtt_rpc_set_ssid">
<polygon fill="white" stroke="black" points="424.5,-38.5 424.5,-57.5 521.5,-57.5 521.5,-38.5 424.5,-38.5"/>
<text text-anchor="middle" x="473" y="-45.5" font-family="Helvetica,sans-Serif" font-size="10.00">mqtt_rpc_set_ssid</text>
</a>
</g>
</g>
<!-- Node154&#45;&gt;Node175 -->
<g id="edge47" class="edge"><title>Node154&#45;&gt;Node175</title>
<path fill="none" stroke="midnightblue" d="M366.432,-519.95C367.723,-518.734 368.92,-517.42 370,-516 430.597,-436.328 342.651,-144.502 406,-67 410.83,-61.0915 417.369,-56.9498 424.462,-54.0607"/>
<polygon fill="midnightblue" stroke="midnightblue" points="364.24,-517.215 358.166,-525.896 368.328,-522.898 364.24,-517.215"/>
</g>
<!-- Node176 -->
<g id="node38" class="node"><title>Node176</title>
<g id="a_node38"><a xlink:href="mqtt__rpc_8h.html#a651f41878c47fd58b8ae08a49692d5d0" target="_top" xlink:title="mqtt_rpc_set_ssid_pwd">
<polygon fill="white" stroke="black" points="413,-0.5 413,-19.5 533,-19.5 533,-0.5 413,-0.5"/>
<text text-anchor="middle" x="473" y="-7.5" font-family="Helvetica,sans-Serif" font-size="10.00">mqtt_rpc_set_ssid_pwd</text>
</a>
</g>
</g>
<!-- Node154&#45;&gt;Node176 -->
<g id="edge48" class="edge"><title>Node154&#45;&gt;Node176</title>
<path fill="none" stroke="midnightblue" d="M366.443,-519.959C367.731,-518.74 368.924,-517.423 370,-516 435.426,-429.423 337.584,-113.234 406,-29 409.082,-25.2053 412.87,-22.1387 417.058,-19.6643"/>
<polygon fill="midnightblue" stroke="midnightblue" points="364.251,-517.224 358.19,-525.914 368.347,-522.901 364.251,-517.224"/>
</g>
<!-- Node177 -->
<g id="node39" class="node"><title>Node177</title>
<g id="a_node39"><a xlink:href="mqtt__rpc_8h.html#a93655988d0f1c02f278b77ab1bb57573" target="_top" xlink:title="mqtt_rpc_ssid">
<polygon fill="white" stroke="black" points="434,-924.5 434,-943.5 512,-943.5 512,-924.5 434,-924.5"/>
<text text-anchor="middle" x="473" y="-931.5" font-family="Helvetica,sans-Serif" font-size="10.00">mqtt_rpc_ssid</text>
</a>
</g>
</g>
<!-- Node154&#45;&gt;Node177 -->
<g id="edge49" class="edge"><title>Node154&#45;&gt;Node177</title>
<path fill="none" stroke="midnightblue" d="M329.955,-553.16C342.119,-572.574 360.495,-604.672 370,-635 388.761,-694.864 365.146,-867.391 406,-915 413.066,-923.234 423.448,-928.015 433.896,-930.758"/>
<polygon fill="midnightblue" stroke="midnightblue" points="332.887,-551.248 324.548,-544.712 326.991,-555.021 332.887,-551.248"/>
</g>
<!-- Node178 -->
<g id="node40" class="node"><title>Node178</title>
<g id="a_node40"><a xlink:href="mqtt__rpc_8h.html#ab9db71238155955bc4dfbb2c7f93c9d2" target="_top" xlink:title="mqtt_rpc_status">
<polygon fill="white" stroke="black" points="429.5,-886.5 429.5,-905.5 516.5,-905.5 516.5,-886.5 429.5,-886.5"/>
<text text-anchor="middle" x="473" y="-893.5" font-family="Helvetica,sans-Serif" font-size="10.00">mqtt_rpc_status</text>
</a>
</g>
</g>
<!-- Node154&#45;&gt;Node178 -->
<g id="edge50" class="edge"><title>Node154&#45;&gt;Node178</title>
<path fill="none" stroke="midnightblue" d="M329.835,-553.198C341.9,-572.643 360.196,-604.767 370,-635 403.544,-738.436 334.374,-795.184 406,-877 412.048,-883.908 420.428,-888.379 429.191,-891.255"/>
<polygon fill="midnightblue" stroke="midnightblue" points="332.783,-551.312 324.477,-544.735 326.868,-555.056 332.783,-551.312"/>
</g>
<!-- Node179 -->
<g id="node41" class="node"><title>Node179</title>
<g id="a_node41"><a xlink:href="mqtt__rpc_8h.html#acd6cfd98c940051391eb8c0bd2bbeca9" target="_top" xlink:title="mqtt_rpc_uptime">
<polygon fill="white" stroke="black" points="428.5,-848.5 428.5,-867.5 517.5,-867.5 517.5,-848.5 428.5,-848.5"/>
<text text-anchor="middle" x="473" y="-855.5" font-family="Helvetica,sans-Serif" font-size="10.00">mqtt_rpc_uptime</text>
</a>
</g>
</g>
<!-- Node154&#45;&gt;Node179 -->
<g id="edge51" class="edge"><title>Node154&#45;&gt;Node179</title>
<path fill="none" stroke="midnightblue" d="M329.672,-553.252C341.602,-572.742 359.788,-604.902 370,-635 399.581,-722.186 344.426,-770.552 406,-839 411.901,-845.56 419.905,-849.915 428.304,-852.792"/>
<polygon fill="midnightblue" stroke="midnightblue" points="332.641,-551.4 324.379,-544.767 326.702,-555.104 332.641,-551.4"/>
</g>
<!-- Node180 -->
<g id="node42" class="node"><title>Node180</title>
<g id="a_node42"><a xlink:href="mqtt__rpc_8h.html#a550893f994cbbd9b6b745488f0c512ac" target="_top" xlink:title="mqtt_rpc_vdd">
<polygon fill="white" stroke="black" points="435,-810.5 435,-829.5 511,-829.5 511,-810.5 435,-810.5"/>
<text text-anchor="middle" x="473" y="-817.5" font-family="Helvetica,sans-Serif" font-size="10.00">mqtt_rpc_vdd</text>
</a>
</g>
</g>
<!-- Node154&#45;&gt;Node180 -->
<g id="edge52" class="edge"><title>Node154&#45;&gt;Node180</title>
<path fill="none" stroke="midnightblue" d="M329.412,-553.292C341.15,-572.845 359.197,-605.085 370,-635 395.641,-706.005 354.429,-745.867 406,-801 413.494,-809.011 424.125,-813.718 434.671,-816.461"/>
<polygon fill="midnightblue" stroke="midnightblue" points="332.267,-551.251 324.069,-544.54 326.293,-554.899 332.267,-551.251"/>
</g>
<!-- Node181 -->
<g id="node43" class="node"><title>Node181</title>
<g id="a_node43"><a xlink:href="mqtt__rpc_8h.html#a6c4d0371a5542aa2dc9543fc7b829436" target="_top" xlink:title="mqtt_rpc_version">
<polygon fill="white" stroke="black" points="427,-772.5 427,-791.5 519,-791.5 519,-772.5 427,-772.5"/>
<text text-anchor="middle" x="473" y="-779.5" font-family="Helvetica,sans-Serif" font-size="10.00">mqtt_rpc_version</text>
</a>
</g>
</g>
<!-- Node154&#45;&gt;Node181 -->
<g id="edge53" class="edge"><title>Node154&#45;&gt;Node181</title>
<path fill="none" stroke="midnightblue" d="M329.052,-553.428C340.492,-573.094 358.296,-605.426 370,-635 391.747,-689.949 364.341,-721.085 406,-763 411.716,-768.751 419.052,-772.787 426.744,-775.614"/>
<polygon fill="midnightblue" stroke="midnightblue" points="331.952,-551.456 323.859,-544.62 325.922,-555.011 331.952,-551.456"/>
</g>
<!-- Node182 -->
<g id="node44" class="node"><title>Node182</title>
<g id="a_node44"><a xlink:href="mqtt__rpc_8h.html#a482a5f229bd1fac0511a057bbf4363f2" target="_top" xlink:title="mqtt_rpc_wifi_status">
<polygon fill="white" stroke="black" points="419.5,-734.5 419.5,-753.5 526.5,-753.5 526.5,-734.5 419.5,-734.5"/>
<text text-anchor="middle" x="473" y="-741.5" font-family="Helvetica,sans-Serif" font-size="10.00">mqtt_rpc_wifi_status</text>
</a>
</g>
</g>
<!-- Node154&#45;&gt;Node182 -->
<g id="edge54" class="edge"><title>Node154&#45;&gt;Node182</title>
<path fill="none" stroke="midnightblue" d="M328.43,-553.694C339.356,-573.579 356.741,-606.09 370,-635 387.96,-674.159 374.049,-696.101 406,-725 410.245,-728.839 415.218,-731.907 420.497,-734.357"/>
<polygon fill="midnightblue" stroke="midnightblue" points="331.399,-551.831 323.496,-544.774 325.274,-555.219 331.399,-551.831"/>
</g>
<!-- Node156 -->
<g id="node19" class="node"><title>Node156</title>
<g id="a_node19"><a xlink:href="en61107__request_8h.html#acd43242675a3f25e7c3b530eac9d8b3a" target="_top" xlink:title="en61107_request_init">
<polygon fill="white" stroke="black" points="576,-696.5 576,-715.5 685,-715.5 685,-696.5 576,-696.5"/>
<text text-anchor="middle" x="630.5" y="-703.5" font-family="Helvetica,sans-Serif" font-size="10.00">en61107_request_init</text>
</a>
</g>
</g>
<!-- Node155&#45;&gt;Node156 -->
<g id="edge28" class="edge"><title>Node155&#45;&gt;Node156</title>
<path fill="none" stroke="midnightblue" d="M542.826,-706C553.858,-706 565.134,-706 575.748,-706"/>
<polygon fill="midnightblue" stroke="midnightblue" points="542.788,-702.5 532.788,-706 542.788,-709.5 542.788,-702.5"/>
</g>
<!-- Node159 -->
<g id="node22" class="node"><title>Node159</title>
<g id="a_node22"><a xlink:href="kmp__request_8h.html#a048753ff9d6b448e2dcd8c85db0d6873" target="_top" xlink:title="kmp_request_init">
<polygon fill="white" stroke="black" points="721,-601.5 721,-620.5 812,-620.5 812,-601.5 721,-601.5"/>
<text text-anchor="middle" x="766.5" y="-608.5" font-family="Helvetica,sans-Serif" font-size="10.00">kmp_request_init</text>
</a>
</g>
</g>
<!-- Node158&#45;&gt;Node159 -->
<g id="edge31" class="edge"><title>Node158&#45;&gt;Node159</title>
<path fill="none" stroke="midnightblue" d="M691.2,-611C701.082,-611 711.179,-611 720.616,-611"/>
<polygon fill="midnightblue" stroke="midnightblue" points="691.016,-607.5 681.016,-611 691.016,-614.5 691.016,-607.5"/>
</g>
<!-- Node160&#45;&gt;Node158 -->
<g id="edge33" class="edge"><title>Node160&#45;&gt;Node158</title>
<path fill="none" stroke="midnightblue" d="M532.78,-622.818C548.283,-620.924 564.857,-618.898 579.828,-617.069"/>
<polygon fill="midnightblue" stroke="midnightblue" points="532.276,-619.353 522.775,-624.04 533.125,-626.302 532.276,-619.353"/>
</g>
<!-- Node183&#45;&gt;Node140 -->
<g id="edge56" class="edge"><title>Node183&#45;&gt;Node140</title>
<path fill="none" stroke="midnightblue" d="M217.888,-806.526C221.412,-804.872 224.825,-803.036 228,-801 264.906,-777.339 296.647,-734.604 309.678,-715.581"/>
<polygon fill="midnightblue" stroke="midnightblue" points="216.27,-803.409 208.388,-810.488 218.965,-809.869 216.27,-803.409"/>
</g>
<!-- Node183&#45;&gt;Node150 -->
<g id="edge57" class="edge"><title>Node183&#45;&gt;Node150</title>
<path fill="none" stroke="midnightblue" d="M226.743,-812.616C239.626,-810.939 253.221,-809.17 265.809,-807.532"/>
<polygon fill="midnightblue" stroke="midnightblue" points="226.061,-809.175 216.597,-813.936 226.965,-816.116 226.061,-809.175"/>
</g>
<!-- Node184&#45;&gt;Node140 -->
<g id="edge59" class="edge"><title>Node184&#45;&gt;Node140</title>
<path fill="none" stroke="midnightblue" d="M213.515,-769.112C218.475,-767.243 223.397,-765.199 228,-763 256.579,-749.347 286.962,-727.921 303.494,-715.596"/>
<polygon fill="midnightblue" stroke="midnightblue" points="212.26,-765.843 204.007,-772.486 214.601,-772.44 212.26,-765.843"/>
</g>
<!-- Node184&#45;&gt;Node150 -->
<g id="edge60" class="edge"><title>Node184&#45;&gt;Node150</title>
<path fill="none" stroke="midnightblue" d="M225.363,-789.205C238.65,-790.934 252.767,-792.771 265.805,-794.468"/>
<polygon fill="midnightblue" stroke="midnightblue" points="225.763,-785.727 215.395,-787.908 224.86,-792.669 225.763,-785.727"/>
</g>
<!-- Node185&#45;&gt;Node140 -->
<g id="edge62" class="edge"><title>Node185&#45;&gt;Node140</title>
<path fill="none" stroke="midnightblue" d="M220.154,-567.919C222.911,-569.445 225.551,-571.133 228,-573 273.136,-607.414 302.414,-671.998 312.288,-696.365"/>
<polygon fill="midnightblue" stroke="midnightblue" points="221.578,-564.721 211.045,-563.579 218.567,-571.04 221.578,-564.721"/>
</g>
<!-- Node186 -->
<g id="node48" class="node"><title>Node186</title>
<g id="a_node48"><a xlink:href="mqtt_8c.html#a86f8adfe29d6ec8bb5070fd030540d2f" target="_top" xlink:title="MQTT subscibe function. ">
<polygon fill="white" stroke="black" points="270.5,-487.5 270.5,-506.5 363.5,-506.5 363.5,-487.5 270.5,-487.5"/>
<text text-anchor="middle" x="317" y="-494.5" font-family="Helvetica,sans-Serif" font-size="10.00">MQTT_Subscribe</text>
</a>
</g>
</g>
<!-- Node185&#45;&gt;Node186 -->
<g id="edge63" class="edge"><title>Node185&#45;&gt;Node186</title>
<path fill="none" stroke="midnightblue" d="M212.168,-541.118C217.548,-539.203 222.94,-537.146 228,-535 244.656,-527.937 247.466,-523.343 264,-516 271.554,-512.645 279.902,-509.4 287.656,-506.569"/>
<polygon fill="midnightblue" stroke="midnightblue" points="210.899,-537.853 202.57,-544.401 213.165,-544.476 210.899,-537.853"/>
</g>
<!-- Node187&#45;&gt;Node140 -->
<g id="edge65" class="edge"><title>Node187&#45;&gt;Node140</title>
<path fill="none" stroke="midnightblue" d="M221.662,-530.379C223.896,-531.78 226.025,-533.316 228,-535 281.607,-580.709 306.628,-667.236 313.768,-696.243"/>
<polygon fill="midnightblue" stroke="midnightblue" points="223.1,-527.181 212.621,-525.621 219.84,-533.375 223.1,-527.181"/>
</g>
<!-- Node188 -->
<g id="node50" class="node"><title>Node188</title>
<g id="a_node50"><a xlink:href="mqtt_8c.html#a7f28cd912dae4c1386c10026a267b579" target="_top" xlink:title="MQTT un&#45;subscibe function. ">
<polygon fill="white" stroke="black" points="264,-449.5 264,-468.5 370,-468.5 370,-449.5 264,-449.5"/>
<text text-anchor="middle" x="317" y="-456.5" font-family="Helvetica,sans-Serif" font-size="10.00">MQTT_UnSubscribe</text>
</a>
</g>
</g>
<!-- Node187&#45;&gt;Node188 -->
<g id="edge66" class="edge"><title>Node187&#45;&gt;Node188</title>
<path fill="none" stroke="midnightblue" d="M202.574,-502.516C220.617,-495.127 243.485,-485.892 264,-478 272.163,-474.86 281.094,-471.551 289.214,-468.591"/>
<polygon fill="midnightblue" stroke="midnightblue" points="201.012,-499.374 193.092,-506.411 203.672,-505.849 201.012,-499.374"/>
</g>
</g>
</svg>
