<?xml version="1.0" encoding="UTF-8" standalone="no"?>
<!DOCTYPE svg PUBLIC "-//W3C//DTD SVG 1.1//EN"
 "http://www.w3.org/Graphics/SVG/1.1/DTD/svg11.dtd">
<!-- Generated by graphviz version 2.38.0 (20140413.2041)
 -->
<!-- Title: mqtt_msg_unsubscribe Pages: 1 -->
<svg width="268pt" height="180pt"
 viewBox="0.00 0.00 268.00 180.00" xmlns="http://www.w3.org/2000/svg" xmlns:xlink="http://www.w3.org/1999/xlink">
<g id="graph0" class="graph" transform="scale(1 1) rotate(0) translate(4 176)">
<title>mqtt_msg_unsubscribe</title>
<polygon fill="white" stroke="none" points="-4,4 -4,-176 264,-176 264,4 -4,4"/>
<!-- Node415 -->
<g id="node1" class="node"><title>Node415</title>
<polygon fill="#bfbfbf" stroke="black" points="0,-76.5 0,-95.5 118,-95.5 118,-76.5 0,-76.5"/>
<text text-anchor="middle" x="59" y="-83.5" font-family="Helvetica,sans-Serif" font-size="10.00">mqtt_msg_unsubscribe</text>
</g>
<!-- Node416 -->
<g id="node2" class="node"><title>Node416</title>
<g id="a_node2"><a xlink:href="mqtt__msg_8c.html#ac59e26babd30c6c0ace9a174e75786f3" target="_top" xlink:title="append_message_id">
<polygon fill="white" stroke="black" points="154,-152.5 154,-171.5 260,-171.5 260,-152.5 154,-152.5"/>
<text text-anchor="middle" x="207" y="-159.5" font-family="Helvetica,sans-Serif" font-size="10.00">append_message_id</text>
</a>
</g>
</g>
<!-- Node415&#45;&gt;Node416 -->
<g id="edge1" class="edge"><title>Node415&#45;&gt;Node416</title>
<path fill="none" stroke="midnightblue" d="M73.8499,-95.5824C91.7722,-107.701 124.236,-128.707 154,-143 158.157,-144.997 162.583,-146.912 167.031,-148.707"/>
<polygon fill="midnightblue" stroke="midnightblue" points="166.116,-152.105 176.706,-152.428 168.629,-145.572 166.116,-152.105"/>
</g>
<!-- Node417 -->
<g id="node3" class="node"><title>Node417</title>
<g id="a_node3"><a xlink:href="mqtt__msg_8c.html#a207c99e2058080b97c21a348d693a560" target="_top" xlink:title="append_string">
<polygon fill="white" stroke="black" points="168.5,-114.5 168.5,-133.5 245.5,-133.5 245.5,-114.5 168.5,-114.5"/>
<text text-anchor="middle" x="207" y="-121.5" font-family="Helvetica,sans-Serif" font-size="10.00">append_string</text>
</a>
</g>
</g>
<!-- Node415&#45;&gt;Node417 -->
<g id="edge2" class="edge"><title>Node415&#45;&gt;Node417</title>
<path fill="none" stroke="midnightblue" d="M96.842,-95.589C115.848,-100.536 139.229,-106.621 159.469,-111.889"/>
<polygon fill="midnightblue" stroke="midnightblue" points="158.864,-115.348 169.423,-114.48 160.627,-108.574 158.864,-115.348"/>
</g>
<!-- Node418 -->
<g id="node4" class="node"><title>Node418</title>
<g id="a_node4"><a xlink:href="mqtt__msg_8c.html#a9a2fb8c67ff4b104dd46e72c9e97b710" target="_top" xlink:title="fail_message">
<polygon fill="white" stroke="black" points="170,-76.5 170,-95.5 244,-95.5 244,-76.5 170,-76.5"/>
<text text-anchor="middle" x="207" y="-83.5" font-family="Helvetica,sans-Serif" font-size="10.00">fail_message</text>
</a>
</g>
</g>
<!-- Node415&#45;&gt;Node418 -->
<g id="edge3" class="edge"><title>Node415&#45;&gt;Node418</title>
<path fill="none" stroke="midnightblue" d="M118.123,-86C131.927,-86 146.472,-86 159.67,-86"/>
<polygon fill="midnightblue" stroke="midnightblue" points="159.925,-89.5001 169.925,-86 159.925,-82.5001 159.925,-89.5001"/>
</g>
<!-- Node419 -->
<g id="node5" class="node"><title>Node419</title>
<g id="a_node5"><a xlink:href="mqtt__msg_8c.html#a356949afe8a334d5e91bddb4b2794921" target="_top" xlink:title="fini_message">
<polygon fill="white" stroke="black" points="170,-38.5 170,-57.5 244,-57.5 244,-38.5 170,-38.5"/>
<text text-anchor="middle" x="207" y="-45.5" font-family="Helvetica,sans-Serif" font-size="10.00">fini_message</text>
</a>
</g>
</g>
<!-- Node415&#45;&gt;Node419 -->
<g id="edge4" class="edge"><title>Node415&#45;&gt;Node419</title>
<path fill="none" stroke="midnightblue" d="M96.842,-76.411C116.08,-71.4039 139.8,-65.2301 160.209,-59.9182"/>
<polygon fill="midnightblue" stroke="midnightblue" points="161.132,-63.2947 169.928,-57.3887 159.368,-56.5204 161.132,-63.2947"/>
</g>
<!-- Node420 -->
<g id="node6" class="node"><title>Node420</title>
<g id="a_node6"><a xlink:href="mqtt__msg_8c.html#aae7c66cc577ac90e9535edac4abc068c" target="_top" xlink:title="init_message">
<polygon fill="white" stroke="black" points="170,-0.5 170,-19.5 244,-19.5 244,-0.5 170,-0.5"/>
<text text-anchor="middle" x="207" y="-7.5" font-family="Helvetica,sans-Serif" font-size="10.00">init_message</text>
</a>
</g>
</g>
<!-- Node415&#45;&gt;Node420 -->
<g id="edge5" class="edge"><title>Node415&#45;&gt;Node420</title>
<path fill="none" stroke="midnightblue" d="M73.8499,-76.4176C91.7722,-64.2991 124.236,-43.2934 154,-29 158.157,-27.0035 162.583,-25.0878 167.031,-23.2929"/>
<polygon fill="midnightblue" stroke="midnightblue" points="168.629,-26.4283 176.706,-19.5719 166.116,-19.8948 168.629,-26.4283"/>
</g>
</g>
</svg>
