<?xml version="1.0" encoding="UTF-8" standalone="no"?>
<!DOCTYPE svg PUBLIC "-//W3C//DTD SVG 1.1//EN"
 "http://www.w3.org/Graphics/SVG/1.1/DTD/svg11.dtd">
<!-- Generated by graphviz version 2.38.0 (20140413.2041)
 -->
<!-- Title: mqtt_get_publish_topic Pages: 1 -->
<svg width="907pt" height="66pt"
 viewBox="0.00 0.00 907.00 66.00" xmlns="http://www.w3.org/2000/svg" xmlns:xlink="http://www.w3.org/1999/xlink">
<g id="graph0" class="graph" transform="scale(1 1) rotate(0) translate(4 62)">
<title>mqtt_get_publish_topic</title>
<polygon fill="white" stroke="none" points="-4,4 -4,-62 903,-62 903,4 -4,4"/>
<!-- Node263 -->
<g id="node1" class="node"><title>Node263</title>
<polygon fill="#bfbfbf" stroke="black" points="0,-19.5 0,-38.5 117,-38.5 117,-19.5 0,-19.5"/>
<text text-anchor="middle" x="58.5" y="-26.5" font-family="Helvetica,sans-Serif" font-size="10.00">mqtt_get_publish_topic</text>
</g>
<!-- Node264 -->
<g id="node2" class="node"><title>Node264</title>
<g id="a_node2"><a xlink:href="mqtt_8c.html#aecca483fb1f2313abb9e1a905e54d6ac" target="_top" xlink:title="deliver_publish">
<polygon fill="white" stroke="black" points="154.5,-38.5 154.5,-57.5 235.5,-57.5 235.5,-38.5 154.5,-38.5"/>
<text text-anchor="middle" x="195" y="-45.5" font-family="Helvetica,sans-Serif" font-size="10.00">deliver_publish</text>
</a>
</g>
</g>
<!-- Node263&#45;&gt;Node264 -->
<g id="edge1" class="edge"><title>Node263&#45;&gt;Node264</title>
<path fill="none" stroke="midnightblue" d="M127.367,-38.5872C136.651,-39.8987 145.919,-41.2079 154.464,-42.4149"/>
<polygon fill="midnightblue" stroke="midnightblue" points="127.712,-35.1012 117.321,-37.168 126.733,-42.0324 127.712,-35.1012"/>
</g>
<!-- Node270 -->
<g id="node8" class="node"><title>Node270</title>
<g id="a_node8"><a xlink:href="mqtt__msg_8h.html#affd61b4be51d1e29e51dfbc42489ba36" target="_top" xlink:title="mqtt_get_retain">
<polygon fill="white" stroke="black" points="153,-0.5 153,-19.5 237,-19.5 237,-0.5 153,-0.5"/>
<text text-anchor="middle" x="195" y="-7.5" font-family="Helvetica,sans-Serif" font-size="10.00">mqtt_get_retain</text>
</a>
</g>
</g>
<!-- Node263&#45;&gt;Node270 -->
<g id="edge7" class="edge"><title>Node263&#45;&gt;Node270</title>
<path fill="none" stroke="midnightblue" d="M127.475,-19.3976C136.148,-18.1724 144.805,-16.9495 152.869,-15.8103"/>
<polygon fill="midnightblue" stroke="midnightblue" points="126.733,-15.9676 117.321,-20.832 127.712,-22.8988 126.733,-15.9676"/>
</g>
<!-- Node265 -->
<g id="node3" class="node"><title>Node265</title>
<g id="a_node3"><a xlink:href="mqtt_8c.html#af470856972320b9c02da9fcb6f419fd0" target="_top" xlink:title="Client received callback function. ">
<polygon fill="white" stroke="black" points="273,-38.5 273,-57.5 375,-57.5 375,-38.5 273,-38.5"/>
<text text-anchor="middle" x="324" y="-45.5" font-family="Helvetica,sans-Serif" font-size="10.00">mqtt_tcpclient_recv</text>
</a>
</g>
</g>
<!-- Node264&#45;&gt;Node265 -->
<g id="edge2" class="edge"><title>Node264&#45;&gt;Node265</title>
<path fill="none" stroke="midnightblue" d="M245.907,-48C254.664,-48 263.784,-48 272.555,-48"/>
<polygon fill="midnightblue" stroke="midnightblue" points="245.835,-44.5001 235.835,-48 245.835,-51.5001 245.835,-44.5001"/>
</g>
<!-- Node266 -->
<g id="node4" class="node"><title>Node266</title>
<g id="a_node4"><a xlink:href="mqtt_8c.html#a36ecd969af1b9c87856f01be064a98cc" target="_top" xlink:title="Tcp client connect success callback function. ">
<polygon fill="white" stroke="black" points="411,-38.5 411,-57.5 545,-57.5 545,-38.5 411,-38.5"/>
<text text-anchor="middle" x="478" y="-45.5" font-family="Helvetica,sans-Serif" font-size="10.00">mqtt_tcpclient_connect_cb</text>
</a>
</g>
</g>
<!-- Node265&#45;&gt;Node266 -->
<g id="edge3" class="edge"><title>Node265&#45;&gt;Node266</title>
<path fill="none" stroke="midnightblue" d="M385.282,-48C393.687,-48 402.36,-48 410.866,-48"/>
<polygon fill="midnightblue" stroke="midnightblue" points="385.192,-44.5001 375.192,-48 385.192,-51.5001 385.192,-44.5001"/>
</g>
<!-- Node267 -->
<g id="node5" class="node"><title>Node267</title>
<g id="a_node5"><a xlink:href="mqtt_8c.html#ad34b681cb2f7473d8fc786c7ed468db5" target="_top" xlink:title="Begin connect to MQTT broker. ">
<polygon fill="white" stroke="black" points="581,-38.5 581,-57.5 667,-57.5 667,-38.5 581,-38.5"/>
<text text-anchor="middle" x="624" y="-45.5" font-family="Helvetica,sans-Serif" font-size="10.00">MQTT_Connect</text>
</a>
</g>
</g>
<!-- Node266&#45;&gt;Node267 -->
<g id="edge4" class="edge"><title>Node266&#45;&gt;Node267</title>
<path fill="none" stroke="midnightblue" d="M555.353,-48C564.08,-48 572.722,-48 580.762,-48"/>
<polygon fill="midnightblue" stroke="midnightblue" points="555.1,-44.5001 545.1,-48 555.1,-51.5001 555.1,-44.5001"/>
</g>
<!-- Node268 -->
<g id="node6" class="node"><title>Node268</title>
<g id="a_node6"><a xlink:href="mqtt_8c.html#a9d88fa6efb9163d4dbf9dc750a8d4ed0" target="_top" xlink:title="MQTT_Task">
<polygon fill="white" stroke="black" points="703,-38.5 703,-57.5 774,-57.5 774,-38.5 703,-38.5"/>
<text text-anchor="middle" x="738.5" y="-45.5" font-family="Helvetica,sans-Serif" font-size="10.00">MQTT_Task</text>
</a>
</g>
</g>
<!-- Node267&#45;&gt;Node268 -->
<g id="edge5" class="edge"><title>Node267&#45;&gt;Node268</title>
<path fill="none" stroke="midnightblue" d="M677.258,-48C685.908,-48 694.684,-48 702.764,-48"/>
<polygon fill="midnightblue" stroke="midnightblue" points="677.211,-44.5001 667.211,-48 677.211,-51.5001 677.211,-44.5001"/>
</g>
<!-- Node269 -->
<g id="node7" class="node"><title>Node269</title>
<g id="a_node7"><a xlink:href="mqtt_8c.html#a25cb7ac079d1d119250dac075c45acf1" target="_top" xlink:title="MQTT initialization mqtt client function. ">
<polygon fill="white" stroke="black" points="810,-38.5 810,-57.5 899,-57.5 899,-38.5 810,-38.5"/>
<text text-anchor="middle" x="854.5" y="-45.5" font-family="Helvetica,sans-Serif" font-size="10.00">MQTT_InitClient</text>
</a>
</g>
</g>
<!-- Node268&#45;&gt;Node269 -->
<g id="edge6" class="edge"><title>Node268&#45;&gt;Node269</title>
<path fill="none" stroke="midnightblue" d="M784.085,-48C792.541,-48 801.381,-48 809.809,-48"/>
<polygon fill="midnightblue" stroke="midnightblue" points="784.013,-44.5001 774.013,-48 784.013,-51.5001 784.013,-44.5001"/>
</g>
</g>
</svg>
