<?xml version="1.0" encoding="UTF-8" standalone="no"?>
<!DOCTYPE svg PUBLIC "-//W3C//DTD SVG 1.1//EN"
 "http://www.w3.org/Graphics/SVG/1.1/DTD/svg11.dtd">
<!-- Generated by graphviz version 2.38.0 (20140413.2041)
 -->
<!-- Title: mqtt_rpc_wifi_status Pages: 1 -->
<svg width="1044pt" height="679pt"
 viewBox="0.00 0.00 1044.00 679.00" xmlns="http://www.w3.org/2000/svg" xmlns:xlink="http://www.w3.org/1999/xlink">
<g id="graph0" class="graph" transform="scale(1 1) rotate(0) translate(4 675)">
<title>mqtt_rpc_wifi_status</title>
<polygon fill="white" stroke="none" points="-4,4 -4,-675 1040,-675 1040,4 -4,4"/>
<!-- Node1252 -->
<g id="node1" class="node"><title>Node1252</title>
<polygon fill="#bfbfbf" stroke="black" points="0,-322.5 0,-341.5 107,-341.5 107,-322.5 0,-322.5"/>
<text text-anchor="middle" x="53.5" y="-329.5" font-family="Helvetica,sans-Serif" font-size="10.00">mqtt_rpc_wifi_status</text>
</g>
<!-- Node1253 -->
<g id="node2" class="node"><title>Node1253</title>
<g id="a_node2"><a xlink:href="en61107__request_8c.html#a2e53aff8d679705828aa9c3583340eaa" target="_top" xlink:title="en61107_get_received\l_serial">
<polygon fill="white" stroke="black" points="159,-573 159,-603 273,-603 273,-573 159,-573"/>
<text text-anchor="start" x="167" y="-591" font-family="Helvetica,sans-Serif" font-size="10.00">en61107_get_received</text>
<text text-anchor="middle" x="216" y="-580" font-family="Helvetica,sans-Serif" font-size="10.00">_serial</text>
</a>
</g>
</g>
<!-- Node1252&#45;&gt;Node1253 -->
<g id="edge1" class="edge"><title>Node1252&#45;&gt;Node1253</title>
<path fill="none" stroke="midnightblue" d="M55.5831,-341.587C59.9244,-375.703 79.0443,-492.651 143,-558 146.636,-561.715 150.801,-564.991 155.254,-567.876"/>
<polygon fill="midnightblue" stroke="midnightblue" points="153.694,-571.015 164.11,-572.953 157.175,-564.943 153.694,-571.015"/>
</g>
<!-- Node1256 -->
<g id="node5" class="node"><title>Node1256</title>
<g id="a_node5"><a xlink:href="tinyprintf_8c.html#a9738cbc6c538d210941db282e240c7d6" target="_top" xlink:title="tfp_snprintf">
<polygon fill="white" stroke="black" points="521.5,-537.5 521.5,-556.5 586.5,-556.5 586.5,-537.5 521.5,-537.5"/>
<text text-anchor="middle" x="554" y="-544.5" font-family="Helvetica,sans-Serif" font-size="10.00">tfp_snprintf</text>
</a>
</g>
</g>
<!-- Node1252&#45;&gt;Node1256 -->
<g id="edge57" class="edge"><title>Node1252&#45;&gt;Node1256</title>
<path fill="none" stroke="midnightblue" d="M62.8954,-341.545C77.9058,-358.277 110.797,-393.454 143,-418 217.626,-474.882 235.751,-496.033 325,-525 387.594,-545.316 464.536,-548.559 511.121,-548.313"/>
<polygon fill="midnightblue" stroke="midnightblue" points="511.189,-551.813 521.151,-548.203 511.113,-544.813 511.189,-551.813"/>
</g>
<!-- Node1269 -->
<g id="node18" class="node"><title>Node1269</title>
<g id="a_node18"><a xlink:href="crypto_8c.html#a7991ec94c8faa24921947687f2d587a0" target="_top" xlink:title="encrypt_aes_hmac_combined">
<polygon fill="white" stroke="black" points="143,-389.5 143,-408.5 289,-408.5 289,-389.5 143,-389.5"/>
<text text-anchor="middle" x="216" y="-396.5" font-family="Helvetica,sans-Serif" font-size="10.00">encrypt_aes_hmac_combined</text>
</a>
</g>
</g>
<!-- Node1252&#45;&gt;Node1269 -->
<g id="edge20" class="edge"><title>Node1252&#45;&gt;Node1269</title>
<path fill="none" stroke="midnightblue" d="M77.4957,-341.599C105.027,-353.092 151.318,-372.416 182.498,-385.432"/>
<polygon fill="midnightblue" stroke="midnightblue" points="181.47,-388.796 192.047,-389.418 184.167,-382.336 181.47,-388.796"/>
</g>
<!-- Node1280 -->
<g id="node29" class="node"><title>Node1280</title>
<g id="a_node29"><a xlink:href="unix__time_8c.html#a36607dbd5be7bee11f8c20932b3df407" target="_top" xlink:title="get_unix_time">
<polygon fill="white" stroke="black" points="177.5,-322.5 177.5,-341.5 254.5,-341.5 254.5,-322.5 177.5,-322.5"/>
<text text-anchor="middle" x="216" y="-329.5" font-family="Helvetica,sans-Serif" font-size="10.00">get_unix_time</text>
</a>
</g>
</g>
<!-- Node1252&#45;&gt;Node1280 -->
<g id="edge38" class="edge"><title>Node1252&#45;&gt;Node1280</title>
<path fill="none" stroke="midnightblue" d="M107.054,-332C126.415,-332 148.229,-332 167.153,-332"/>
<polygon fill="midnightblue" stroke="midnightblue" points="167.335,-335.5 177.335,-332 167.335,-328.5 167.335,-335.5"/>
</g>
<!-- Node1282 -->
<g id="node31" class="node"><title>Node1282</title>
<g id="a_node31"><a xlink:href="kmp__request_8c.html#ae812917b104be167131436ca730cdbe6" target="_top" xlink:title="kmp_get_received_serial">
<polygon fill="white" stroke="black" points="153.5,-284.5 153.5,-303.5 278.5,-303.5 278.5,-284.5 153.5,-284.5"/>
<text text-anchor="middle" x="216" y="-291.5" font-family="Helvetica,sans-Serif" font-size="10.00">kmp_get_received_serial</text>
</a>
</g>
</g>
<!-- Node1252&#45;&gt;Node1282 -->
<g id="edge40" class="edge"><title>Node1252&#45;&gt;Node1282</title>
<path fill="none" stroke="midnightblue" d="M95.0009,-322.411C116.181,-317.396 142.302,-311.212 164.76,-305.895"/>
<polygon fill="midnightblue" stroke="midnightblue" points="165.866,-309.23 174.79,-303.52 164.253,-302.418 165.866,-309.23"/>
</g>
<!-- Node1283 -->
<g id="node32" class="node"><title>Node1283</title>
<g id="a_node32"><a xlink:href="mqtt_8h.html#a848a6701c4c7ec3432e38ea57c003aad" target="_top" xlink:title="MQTT publish function. ">
<polygon fill="white" stroke="black" points="175,-161.5 175,-180.5 257,-180.5 257,-161.5 175,-161.5"/>
<text text-anchor="middle" x="216" y="-168.5" font-family="Helvetica,sans-Serif" font-size="10.00">MQTT_Publish</text>
</a>
</g>
</g>
<!-- Node1252&#45;&gt;Node1283 -->
<g id="edge41" class="edge"><title>Node1252&#45;&gt;Node1283</title>
<path fill="none" stroke="midnightblue" d="M64.0594,-322.411C90.4246,-295.963 164.438,-221.72 198.033,-188.02"/>
<polygon fill="midnightblue" stroke="midnightblue" points="200.706,-190.296 205.288,-180.742 195.749,-185.353 200.706,-190.296"/>
</g>
<!-- Node1299 -->
<g id="node48" class="node"><title>Node1299</title>
<g id="a_node48"><a xlink:href="wifi_8h.html#a903cdab3c497198fee864adb2a95b48c" target="_top" xlink:title="wifi_get_status">
<polygon fill="white" stroke="black" points="174.5,-123.5 174.5,-142.5 257.5,-142.5 257.5,-123.5 174.5,-123.5"/>
<text text-anchor="middle" x="216" y="-130.5" font-family="Helvetica,sans-Serif" font-size="10.00">wifi_get_status</text>
</a>
</g>
</g>
<!-- Node1252&#45;&gt;Node1299 -->
<g id="edge58" class="edge"><title>Node1252&#45;&gt;Node1299</title>
<path fill="none" stroke="midnightblue" d="M56.2937,-322.447C62.4516,-292.392 85.6025,-198.98 143,-152 149.33,-146.819 156.929,-143.038 164.784,-140.282"/>
<polygon fill="midnightblue" stroke="midnightblue" points="165.843,-143.619 174.423,-137.404 163.839,-136.912 165.843,-143.619"/>
</g>
<!-- Node1254 -->
<g id="node3" class="node"><title>Node1254</title>
<g id="a_node3"><a xlink:href="utils_8c.html#a1191f72bae2076af31834d47faa7ee14" target="_top" xlink:title="multiply_str_by_1000">
<polygon fill="white" stroke="black" points="340.5,-577.5 340.5,-596.5 449.5,-596.5 449.5,-577.5 340.5,-577.5"/>
<text text-anchor="middle" x="395" y="-584.5" font-family="Helvetica,sans-Serif" font-size="10.00">multiply_str_by_1000</text>
</a>
</g>
</g>
<!-- Node1253&#45;&gt;Node1254 -->
<g id="edge2" class="edge"><title>Node1253&#45;&gt;Node1254</title>
<path fill="none" stroke="midnightblue" d="M273.004,-587.684C291.206,-587.581 311.538,-587.466 330.261,-587.36"/>
<polygon fill="midnightblue" stroke="midnightblue" points="330.494,-590.859 340.474,-587.302 330.454,-583.859 330.494,-590.859"/>
</g>
<!-- Node1255 -->
<g id="node4" class="node"><title>Node1255</title>
<g id="a_node4"><a xlink:href="utils_8c.html#af7f86262824738791bf4a3328d09aacf" target="_top" xlink:title="int_pow">
<polygon fill="white" stroke="black" points="529,-577.5 529,-596.5 579,-596.5 579,-577.5 529,-577.5"/>
<text text-anchor="middle" x="554" y="-584.5" font-family="Helvetica,sans-Serif" font-size="10.00">int_pow</text>
</a>
</g>
</g>
<!-- Node1254&#45;&gt;Node1255 -->
<g id="edge3" class="edge"><title>Node1254&#45;&gt;Node1255</title>
<path fill="none" stroke="midnightblue" d="M449.591,-587C472.332,-587 498.183,-587 518.349,-587"/>
<polygon fill="midnightblue" stroke="midnightblue" points="518.621,-590.5 528.621,-587 518.621,-583.5 518.621,-590.5"/>
</g>
<!-- Node1254&#45;&gt;Node1256 -->
<g id="edge4" class="edge"><title>Node1254&#45;&gt;Node1256</title>
<path fill="none" stroke="midnightblue" d="M433.605,-577.419C457.022,-571.453 487.174,-563.771 511.318,-557.62"/>
<polygon fill="midnightblue" stroke="midnightblue" points="512.434,-560.947 521.26,-555.087 510.706,-554.164 512.434,-560.947"/>
</g>
<!-- Node1257 -->
<g id="node6" class="node"><title>Node1257</title>
<g id="a_node6"><a xlink:href="tinyprintf_8c.html#ac8c8a66133cf0d7009c0d73b55311a44" target="_top" xlink:title="tfp_vsnprintf">
<polygon fill="white" stroke="black" points="659,-537.5 659,-556.5 730,-556.5 730,-537.5 659,-537.5"/>
<text text-anchor="middle" x="694.5" y="-544.5" font-family="Helvetica,sans-Serif" font-size="10.00">tfp_vsnprintf</text>
</a>
</g>
</g>
<!-- Node1256&#45;&gt;Node1257 -->
<g id="edge5" class="edge"><title>Node1256&#45;&gt;Node1257</title>
<path fill="none" stroke="midnightblue" d="M586.775,-547C605.137,-547 628.53,-547 648.732,-547"/>
<polygon fill="midnightblue" stroke="midnightblue" points="648.962,-550.5 658.962,-547 648.962,-543.5 648.962,-550.5"/>
</g>
<!-- Node1258 -->
<g id="node7" class="node"><title>Node1258</title>
<g id="a_node7"><a xlink:href="tinyprintf_8c.html#a5877e42444463efc71a91b5fe76a6145" target="_top" xlink:title="tfp_format">
<polygon fill="white" stroke="black" points="799,-518.5 799,-537.5 860,-537.5 860,-518.5 799,-518.5"/>
<text text-anchor="middle" x="829.5" y="-525.5" font-family="Helvetica,sans-Serif" font-size="10.00">tfp_format</text>
</a>
</g>
</g>
<!-- Node1257&#45;&gt;Node1258 -->
<g id="edge6" class="edge"><title>Node1257&#45;&gt;Node1258</title>
<path fill="none" stroke="midnightblue" d="M730.097,-542.058C748.021,-539.497 769.997,-536.358 788.631,-533.696"/>
<polygon fill="midnightblue" stroke="midnightblue" points="789.188,-537.152 798.593,-532.272 788.198,-530.222 789.188,-537.152"/>
</g>
<!-- Node1268 -->
<g id="node17" class="node"><title>Node1268</title>
<g id="a_node17"><a xlink:href="tinyprintf_8c.html#a919051024b2d729e34a54648b3f2462d" target="_top" xlink:title="_vsnprintf_putcf">
<polygon fill="white" stroke="black" points="786.5,-556.5 786.5,-575.5 872.5,-575.5 872.5,-556.5 786.5,-556.5"/>
<text text-anchor="middle" x="829.5" y="-563.5" font-family="Helvetica,sans-Serif" font-size="10.00">_vsnprintf_putcf</text>
</a>
</g>
</g>
<!-- Node1257&#45;&gt;Node1268 -->
<g id="edge19" class="edge"><title>Node1257&#45;&gt;Node1268</title>
<path fill="none" stroke="midnightblue" d="M730.097,-551.942C744.24,-553.963 760.905,-556.344 776.462,-558.566"/>
<polygon fill="midnightblue" stroke="midnightblue" points="776.092,-562.049 786.486,-559.998 777.082,-555.119 776.092,-562.049"/>
</g>
<!-- Node1259 -->
<g id="node8" class="node"><title>Node1259</title>
<g id="a_node8"><a xlink:href="tinyprintf_8c.html#aa97593a5e53af85b608ad0910db92d77" target="_top" xlink:title="a2u">
<polygon fill="white" stroke="black" points="921,-651.5 921,-670.5 953,-670.5 953,-651.5 921,-651.5"/>
<text text-anchor="middle" x="937" y="-658.5" font-family="Helvetica,sans-Serif" font-size="10.00">a2u</text>
</a>
</g>
</g>
<!-- Node1258&#45;&gt;Node1259 -->
<g id="edge7" class="edge"><title>Node1258&#45;&gt;Node1259</title>
<path fill="none" stroke="midnightblue" d="M860.213,-535.994C866.336,-538.711 872.331,-542.296 877,-547 907.35,-577.575 889.668,-600.784 913,-637 914.477,-639.292 916.192,-641.556 918.007,-643.724"/>
<polygon fill="midnightblue" stroke="midnightblue" points="915.836,-646.528 925.211,-651.464 920.96,-641.759 915.836,-646.528"/>
</g>
<!-- Node1261 -->
<g id="node10" class="node"><title>Node1261</title>
<g id="a_node10"><a xlink:href="tinyprintf_8c.html#abcf035dd576671b0cc897de9dd8c75b0" target="_top" xlink:title="ulli2a">
<polygon fill="white" stroke="black" points="997,-594.5 997,-613.5 1036,-613.5 1036,-594.5 997,-594.5"/>
<text text-anchor="middle" x="1016.5" y="-601.5" font-family="Helvetica,sans-Serif" font-size="10.00">ulli2a</text>
</a>
</g>
</g>
<!-- Node1258&#45;&gt;Node1261 -->
<g id="edge9" class="edge"><title>Node1258&#45;&gt;Node1261</title>
<path fill="none" stroke="midnightblue" d="M860.091,-536.869C866.083,-539.517 872.055,-542.854 877,-547 899.961,-566.25 886.759,-589.537 913,-604 935.5,-616.402 965.223,-614.815 986.865,-611.074"/>
<polygon fill="midnightblue" stroke="midnightblue" points="987.641,-614.488 996.773,-609.116 986.284,-607.621 987.641,-614.488"/>
</g>
<!-- Node1262 -->
<g id="node11" class="node"><title>Node1262</title>
<g id="a_node11"><a xlink:href="tinyprintf_8c.html#a1d61347854a8c290d59b4a21efcefd75" target="_top" xlink:title="uli2a">
<polygon fill="white" stroke="black" points="998,-508.5 998,-527.5 1035,-527.5 1035,-508.5 998,-508.5"/>
<text text-anchor="middle" x="1016.5" y="-515.5" font-family="Helvetica,sans-Serif" font-size="10.00">uli2a</text>
</a>
</g>
</g>
<!-- Node1258&#45;&gt;Node1262 -->
<g id="edge10" class="edge"><title>Node1258&#45;&gt;Node1262</title>
<path fill="none" stroke="midnightblue" d="M860.112,-529.525C886.607,-530.527 926.479,-531.141 961,-528 969.854,-527.194 979.419,-525.667 988.026,-524.044"/>
<polygon fill="midnightblue" stroke="midnightblue" points="988.822,-527.455 997.94,-522.059 987.447,-520.591 988.822,-527.455"/>
</g>
<!-- Node1263 -->
<g id="node12" class="node"><title>Node1263</title>
<g id="a_node12"><a xlink:href="tinyprintf_8c.html#ac87ff66a592723f55692eaf8e3f19df8" target="_top" xlink:title="ui2a">
<polygon fill="white" stroke="black" points="999,-451.5 999,-470.5 1034,-470.5 1034,-451.5 999,-451.5"/>
<text text-anchor="middle" x="1016.5" y="-458.5" font-family="Helvetica,sans-Serif" font-size="10.00">ui2a</text>
</a>
</g>
</g>
<!-- Node1258&#45;&gt;Node1263 -->
<g id="edge11" class="edge"><title>Node1258&#45;&gt;Node1263</title>
<path fill="none" stroke="midnightblue" d="M849.151,-518.391C865.646,-510.142 890.514,-498.302 913,-490 938.379,-480.63 968.223,-472.499 989.142,-467.251"/>
<polygon fill="midnightblue" stroke="midnightblue" points="990.042,-470.634 998.916,-464.846 988.369,-463.837 990.042,-470.634"/>
</g>
<!-- Node1264 -->
<g id="node13" class="node"><title>Node1264</title>
<g id="a_node13"><a xlink:href="tinyprintf_8c.html#a6252dbfebb2c8783c4e3107d551082dd" target="_top" xlink:title="putchw">
<polygon fill="white" stroke="black" points="913,-385.5 913,-404.5 961,-404.5 961,-385.5 913,-385.5"/>
<text text-anchor="middle" x="937" y="-392.5" font-family="Helvetica,sans-Serif" font-size="10.00">putchw</text>
</a>
</g>
</g>
<!-- Node1258&#45;&gt;Node1264 -->
<g id="edge12" class="edge"><title>Node1258&#45;&gt;Node1264</title>
<path fill="none" stroke="midnightblue" d="M836.38,-518.219C848.969,-497.689 880.074,-449.103 913,-414 913.877,-413.065 914.799,-412.133 915.75,-411.213"/>
<polygon fill="midnightblue" stroke="midnightblue" points="918.149,-413.764 923.313,-404.513 913.507,-408.524 918.149,-413.764"/>
</g>
<!-- Node1265 -->
<g id="node14" class="node"><title>Node1265</title>
<g id="a_node14"><a xlink:href="tinyprintf_8c.html#a49c6d2b3d4088012f2c1fe344eef69f3" target="_top" xlink:title="lli2a">
<polygon fill="white" stroke="black" points="920,-575.5 920,-594.5 954,-594.5 954,-575.5 920,-575.5"/>
<text text-anchor="middle" x="937" y="-582.5" font-family="Helvetica,sans-Serif" font-size="10.00">lli2a</text>
</a>
</g>
</g>
<!-- Node1258&#45;&gt;Node1265 -->
<g id="edge13" class="edge"><title>Node1258&#45;&gt;Node1265</title>
<path fill="none" stroke="midnightblue" d="M856.467,-537.624C863.262,-540.408 870.502,-543.617 877,-547 889.664,-553.594 903.097,-562.114 913.941,-569.414"/>
<polygon fill="midnightblue" stroke="midnightblue" points="912.141,-572.424 922.368,-575.191 916.099,-566.65 912.141,-572.424"/>
</g>
<!-- Node1266 -->
<g id="node15" class="node"><title>Node1266</title>
<g id="a_node15"><a xlink:href="tinyprintf_8c.html#afebb7696337c3f599b5e8db35c560684" target="_top" xlink:title="li2a">
<polygon fill="white" stroke="black" points="921,-499.5 921,-518.5 953,-518.5 953,-499.5 921,-499.5"/>
<text text-anchor="middle" x="937" y="-506.5" font-family="Helvetica,sans-Serif" font-size="10.00">li2a</text>
</a>
</g>
</g>
<!-- Node1258&#45;&gt;Node1266 -->
<g id="edge15" class="edge"><title>Node1258&#45;&gt;Node1266</title>
<path fill="none" stroke="midnightblue" d="M860.168,-522.657C876.058,-519.795 895.428,-516.307 910.614,-513.572"/>
<polygon fill="midnightblue" stroke="midnightblue" points="911.602,-516.95 920.823,-511.733 910.361,-510.061 911.602,-516.95"/>
</g>
<!-- Node1267 -->
<g id="node16" class="node"><title>Node1267</title>
<g id="a_node16"><a xlink:href="tinyprintf_8c.html#a90f9fd8f2133cda7f50be8d67823405c" target="_top" xlink:title="i2a">
<polygon fill="white" stroke="black" points="922.5,-423.5 922.5,-442.5 951.5,-442.5 951.5,-423.5 922.5,-423.5"/>
<text text-anchor="middle" x="937" y="-430.5" font-family="Helvetica,sans-Serif" font-size="10.00">i2a</text>
</a>
</g>
</g>
<!-- Node1258&#45;&gt;Node1267 -->
<g id="edge17" class="edge"><title>Node1258&#45;&gt;Node1267</title>
<path fill="none" stroke="midnightblue" d="M841.393,-518.191C859.413,-501.965 895.619,-469.362 917.644,-449.529"/>
<polygon fill="midnightblue" stroke="midnightblue" points="920.234,-451.907 925.323,-442.614 915.55,-446.705 920.234,-451.907"/>
</g>
<!-- Node1260 -->
<g id="node9" class="node"><title>Node1260</title>
<g id="a_node9"><a xlink:href="tinyprintf_8c.html#aa853a0c5ba64fa2546d488b86192e7e3" target="_top" xlink:title="a2d">
<polygon fill="white" stroke="black" points="1000.5,-651.5 1000.5,-670.5 1032.5,-670.5 1032.5,-651.5 1000.5,-651.5"/>
<text text-anchor="middle" x="1016.5" y="-658.5" font-family="Helvetica,sans-Serif" font-size="10.00">a2d</text>
</a>
</g>
</g>
<!-- Node1259&#45;&gt;Node1260 -->
<g id="edge8" class="edge"><title>Node1259&#45;&gt;Node1260</title>
<path fill="none" stroke="midnightblue" d="M953.312,-661C963.888,-661 978.197,-661 990.423,-661"/>
<polygon fill="midnightblue" stroke="midnightblue" points="990.484,-664.5 1000.48,-661 990.484,-657.5 990.484,-664.5"/>
</g>
<!-- Node1265&#45;&gt;Node1261 -->
<g id="edge14" class="edge"><title>Node1265&#45;&gt;Node1261</title>
<path fill="none" stroke="midnightblue" d="M954.058,-588.937C963.563,-591.267 975.88,-594.287 986.987,-597.01"/>
<polygon fill="midnightblue" stroke="midnightblue" points="986.187,-600.417 996.733,-599.399 987.854,-593.619 986.187,-600.417"/>
</g>
<!-- Node1266&#45;&gt;Node1262 -->
<g id="edge16" class="edge"><title>Node1266&#45;&gt;Node1262</title>
<path fill="none" stroke="midnightblue" d="M953.312,-510.778C963.106,-511.916 976.101,-513.425 987.678,-514.769"/>
<polygon fill="midnightblue" stroke="midnightblue" points="987.442,-518.265 997.779,-515.942 988.25,-511.312 987.442,-518.265"/>
</g>
<!-- Node1267&#45;&gt;Node1263 -->
<g id="edge18" class="edge"><title>Node1267&#45;&gt;Node1263</title>
<path fill="none" stroke="midnightblue" d="M951.855,-438.006C962.231,-441.754 976.735,-446.994 989.277,-451.526"/>
<polygon fill="midnightblue" stroke="midnightblue" points="988.204,-454.86 998.798,-454.966 990.583,-448.276 988.204,-454.86"/>
</g>
<!-- Node1270 -->
<g id="node19" class="node"><title>Node1270</title>
<g id="a_node19"><a xlink:href="aes_8h.html#a9cb9b4ad9fb6311391d669e54f718cf4" target="_top" xlink:title="AES128_CBC_encrypt\l_buffer">
<polygon fill="white" stroke="black" points="336.5,-447 336.5,-477 453.5,-477 453.5,-447 336.5,-447"/>
<text text-anchor="start" x="344.5" y="-465" font-family="Helvetica,sans-Serif" font-size="10.00">AES128_CBC_encrypt</text>
<text text-anchor="middle" x="395" y="-454" font-family="Helvetica,sans-Serif" font-size="10.00">_buffer</text>
</a>
</g>
</g>
<!-- Node1269&#45;&gt;Node1270 -->
<g id="edge21" class="edge"><title>Node1269&#45;&gt;Node1270</title>
<path fill="none" stroke="midnightblue" d="M243.882,-408.568C269.825,-417.802 309.79,-432.027 341.964,-443.479"/>
<polygon fill="midnightblue" stroke="midnightblue" points="341.08,-446.879 351.674,-446.935 343.427,-440.284 341.08,-446.879"/>
</g>
<!-- Node1271 -->
<g id="node20" class="node"><title>Node1271</title>
<g id="a_node20"><a xlink:href="hmac-sha256_8c.html#a7fad664b062689148a6b1ee5d4bc790d" target="_top" xlink:title="hmac_sha256_final">
<polygon fill="white" stroke="black" points="503.5,-370.5 503.5,-389.5 604.5,-389.5 604.5,-370.5 503.5,-370.5"/>
<text text-anchor="middle" x="554" y="-377.5" font-family="Helvetica,sans-Serif" font-size="10.00">hmac_sha256_final</text>
</a>
</g>
</g>
<!-- Node1269&#45;&gt;Node1271 -->
<g id="edge22" class="edge"><title>Node1269&#45;&gt;Node1271</title>
<path fill="none" stroke="midnightblue" d="M289.08,-394.924C349.893,-391.485 435.922,-386.62 493.03,-383.391"/>
<polygon fill="midnightblue" stroke="midnightblue" points="493.558,-386.867 503.344,-382.808 493.163,-379.878 493.558,-386.867"/>
</g>
<!-- Node1276 -->
<g id="node25" class="node"><title>Node1276</title>
<g id="a_node25"><a xlink:href="hmac-sha256_8c.html#a553a08d76959d7d64d25927fa418af1f" target="_top" xlink:title="hmac_sha256_init">
<polygon fill="white" stroke="black" points="347.5,-332.5 347.5,-351.5 442.5,-351.5 442.5,-332.5 347.5,-332.5"/>
<text text-anchor="middle" x="395" y="-339.5" font-family="Helvetica,sans-Serif" font-size="10.00">hmac_sha256_init</text>
</a>
</g>
</g>
<!-- Node1269&#45;&gt;Node1276 -->
<g id="edge28" class="edge"><title>Node1269&#45;&gt;Node1276</title>
<path fill="none" stroke="midnightblue" d="M246.626,-389.459C276.236,-379.924 321.938,-365.206 354.594,-354.69"/>
<polygon fill="midnightblue" stroke="midnightblue" points="355.832,-357.969 364.278,-351.572 353.686,-351.306 355.832,-357.969"/>
</g>
<!-- Node1278 -->
<g id="node27" class="node"><title>Node1278</title>
<g id="a_node27"><a xlink:href="hmac-sha256_8c.html#a604cda5243425d008a47d89401e7c987" target="_top" xlink:title="hmac_sha256_update">
<polygon fill="white" stroke="black" points="339,-408.5 339,-427.5 451,-427.5 451,-408.5 339,-408.5"/>
<text text-anchor="middle" x="395" y="-415.5" font-family="Helvetica,sans-Serif" font-size="10.00">hmac_sha256_update</text>
</a>
</g>
</g>
<!-- Node1269&#45;&gt;Node1278 -->
<g id="edge35" class="edge"><title>Node1269&#45;&gt;Node1278</title>
<path fill="none" stroke="midnightblue" d="M289.248,-406.755C302.297,-408.156 315.834,-409.609 328.671,-410.987"/>
<polygon fill="midnightblue" stroke="midnightblue" points="328.477,-414.487 338.794,-412.074 329.224,-407.526 328.477,-414.487"/>
</g>
<!-- Node1279 -->
<g id="node28" class="node"><title>Node1279</title>
<g id="a_node28"><a xlink:href="osapi_8h.html#a266983148ba59f7bac481c76b7540da2" target="_top" xlink:title="os_get_random">
<polygon fill="white" stroke="black" points="353.5,-496.5 353.5,-515.5 436.5,-515.5 436.5,-496.5 353.5,-496.5"/>
<text text-anchor="middle" x="395" y="-503.5" font-family="Helvetica,sans-Serif" font-size="10.00">os_get_random</text>
</a>
</g>
</g>
<!-- Node1269&#45;&gt;Node1279 -->
<g id="edge37" class="edge"><title>Node1269&#45;&gt;Node1279</title>
<path fill="none" stroke="midnightblue" d="M226.137,-408.759C243.615,-426.856 283.729,-465.713 325,-487 330.725,-489.953 336.961,-492.489 343.266,-494.656"/>
<polygon fill="midnightblue" stroke="midnightblue" points="342.579,-498.109 353.168,-497.764 344.675,-491.43 342.579,-498.109"/>
</g>
<!-- Node1272 -->
<g id="node21" class="node"><title>Node1272</title>
<g id="a_node21"><a xlink:href="sha256_8c.html#a28a4e37e67f8b97b374c49d8b83d8167" target="_top" xlink:title="sha256_final">
<polygon fill="white" stroke="black" points="659,-370.5 659,-389.5 730,-389.5 730,-370.5 659,-370.5"/>
<text text-anchor="middle" x="694.5" y="-377.5" font-family="Helvetica,sans-Serif" font-size="10.00">sha256_final</text>
</a>
</g>
</g>
<!-- Node1271&#45;&gt;Node1272 -->
<g id="edge23" class="edge"><title>Node1271&#45;&gt;Node1272</title>
<path fill="none" stroke="midnightblue" d="M604.61,-380C618.96,-380 634.537,-380 648.583,-380"/>
<polygon fill="midnightblue" stroke="midnightblue" points="648.98,-383.5 658.98,-380 648.98,-376.5 648.98,-383.5"/>
</g>
<!-- Node1274 -->
<g id="node23" class="node"><title>Node1274</title>
<g id="a_node23"><a xlink:href="sha256_8c.html#ad1c794b2d7e8eba243628e45cb69ef94" target="_top" xlink:title="sha256_init">
<polygon fill="white" stroke="black" points="661.5,-332.5 661.5,-351.5 727.5,-351.5 727.5,-332.5 661.5,-332.5"/>
<text text-anchor="middle" x="694.5" y="-339.5" font-family="Helvetica,sans-Serif" font-size="10.00">sha256_init</text>
</a>
</g>
</g>
<!-- Node1271&#45;&gt;Node1274 -->
<g id="edge25" class="edge"><title>Node1271&#45;&gt;Node1274</title>
<path fill="none" stroke="midnightblue" d="M589.949,-370.411C608.733,-365.257 632.021,-358.868 651.753,-353.454"/>
<polygon fill="midnightblue" stroke="midnightblue" points="652.692,-356.826 661.41,-350.805 650.84,-350.075 652.692,-356.826"/>
</g>
<!-- Node1275 -->
<g id="node24" class="node"><title>Node1275</title>
<g id="a_node24"><a xlink:href="sha256_8c.html#a00647246fd4532c27d1aafd709d5973d" target="_top" xlink:title="sha256_update">
<polygon fill="white" stroke="black" points="653,-408.5 653,-427.5 736,-427.5 736,-408.5 653,-408.5"/>
<text text-anchor="middle" x="694.5" y="-415.5" font-family="Helvetica,sans-Serif" font-size="10.00">sha256_update</text>
</a>
</g>
</g>
<!-- Node1271&#45;&gt;Node1275 -->
<g id="edge26" class="edge"><title>Node1271&#45;&gt;Node1275</title>
<path fill="none" stroke="midnightblue" d="M589.949,-389.589C607.828,-394.494 629.788,-400.52 648.878,-405.757"/>
<polygon fill="midnightblue" stroke="midnightblue" points="647.992,-409.143 658.562,-408.414 649.844,-402.393 647.992,-409.143"/>
</g>
<!-- Node1273 -->
<g id="node22" class="node"><title>Node1273</title>
<g id="a_node22"><a xlink:href="sha256_8c.html#a97b828e7b6479297e92fb5ffc5225ee3" target="_top" xlink:title="sha256_transform">
<polygon fill="white" stroke="black" points="782,-389.5 782,-408.5 877,-408.5 877,-389.5 782,-389.5"/>
<text text-anchor="middle" x="829.5" y="-396.5" font-family="Helvetica,sans-Serif" font-size="10.00">sha256_transform</text>
</a>
</g>
</g>
<!-- Node1272&#45;&gt;Node1273 -->
<g id="edge24" class="edge"><title>Node1272&#45;&gt;Node1273</title>
<path fill="none" stroke="midnightblue" d="M730.097,-384.942C742.732,-386.747 757.38,-388.84 771.452,-390.85"/>
<polygon fill="midnightblue" stroke="midnightblue" points="771.165,-394.345 781.559,-392.294 772.155,-387.415 771.165,-394.345"/>
</g>
<!-- Node1275&#45;&gt;Node1273 -->
<g id="edge27" class="edge"><title>Node1275&#45;&gt;Node1273</title>
<path fill="none" stroke="midnightblue" d="M736.127,-412.196C747.347,-410.593 759.732,-408.824 771.689,-407.116"/>
<polygon fill="midnightblue" stroke="midnightblue" points="772.193,-410.579 781.597,-405.7 771.203,-403.65 772.193,-410.579"/>
</g>
<!-- Node1276&#45;&gt;Node1274 -->
<g id="edge29" class="edge"><title>Node1276&#45;&gt;Node1274</title>
<path fill="none" stroke="midnightblue" d="M438.677,-332.488C457.654,-328.723 480.335,-324.855 501,-323 547.923,-318.789 560.164,-317.917 607,-323 621.637,-324.589 637.427,-327.647 651.459,-330.854"/>
<polygon fill="midnightblue" stroke="midnightblue" points="650.786,-334.291 661.324,-333.196 652.403,-327.481 650.786,-334.291"/>
</g>
<!-- Node1276&#45;&gt;Node1275 -->
<g id="edge34" class="edge"><title>Node1276&#45;&gt;Node1275</title>
<path fill="none" stroke="midnightblue" d="M409.473,-351.632C428.729,-364.84 465.705,-388.165 501,-399 547.563,-413.295 603.155,-417.491 642.599,-418.442"/>
<polygon fill="midnightblue" stroke="midnightblue" points="642.707,-421.945 652.768,-418.625 642.833,-414.946 642.707,-421.945"/>
</g>
<!-- Node1277 -->
<g id="node26" class="node"><title>Node1277</title>
<g id="a_node26"><a xlink:href="sha256_8c.html#a7f22a0894ca55160852ddcdff7a1f2fc" target="_top" xlink:title="sha256_raw">
<polygon fill="white" stroke="black" points="519.5,-332.5 519.5,-351.5 588.5,-351.5 588.5,-332.5 519.5,-332.5"/>
<text text-anchor="middle" x="554" y="-339.5" font-family="Helvetica,sans-Serif" font-size="10.00">sha256_raw</text>
</a>
</g>
</g>
<!-- Node1276&#45;&gt;Node1277 -->
<g id="edge30" class="edge"><title>Node1276&#45;&gt;Node1277</title>
<path fill="none" stroke="midnightblue" d="M442.68,-342C463.713,-342 488.413,-342 509.104,-342"/>
<polygon fill="midnightblue" stroke="midnightblue" points="509.211,-345.5 519.211,-342 509.211,-338.5 509.211,-345.5"/>
</g>
<!-- Node1277&#45;&gt;Node1272 -->
<g id="edge31" class="edge"><title>Node1277&#45;&gt;Node1272</title>
<path fill="none" stroke="midnightblue" d="M588.527,-351.199C606.744,-356.197 629.504,-362.442 649.17,-367.837"/>
<polygon fill="midnightblue" stroke="midnightblue" points="648.266,-371.218 658.835,-370.489 650.118,-364.468 648.266,-371.218"/>
</g>
<!-- Node1277&#45;&gt;Node1274 -->
<g id="edge32" class="edge"><title>Node1277&#45;&gt;Node1274</title>
<path fill="none" stroke="midnightblue" d="M588.527,-342C607.343,-342 631.004,-342 651.098,-342"/>
<polygon fill="midnightblue" stroke="midnightblue" points="651.235,-345.5 661.235,-342 651.235,-338.5 651.235,-345.5"/>
</g>
<!-- Node1277&#45;&gt;Node1275 -->
<g id="edge33" class="edge"><title>Node1277&#45;&gt;Node1275</title>
<path fill="none" stroke="midnightblue" d="M588.284,-351.555C594.757,-354.122 601.297,-357.252 607,-361 626.442,-373.776 623.619,-386.131 643,-399 645.897,-400.924 649.016,-402.689 652.232,-404.301"/>
<polygon fill="midnightblue" stroke="midnightblue" points="650.889,-407.535 661.445,-408.445 653.761,-401.151 650.889,-407.535"/>
</g>
<!-- Node1278&#45;&gt;Node1275 -->
<g id="edge36" class="edge"><title>Node1278&#45;&gt;Node1275</title>
<path fill="none" stroke="midnightblue" d="M451.173,-426.753C467.2,-428.916 484.76,-430.922 501,-432 548.008,-435.12 560.04,-435.776 607,-432 618.611,-431.066 631.015,-429.439 642.698,-427.616"/>
<polygon fill="midnightblue" stroke="midnightblue" points="643.437,-431.042 652.742,-425.976 642.309,-424.133 643.437,-431.042"/>
</g>
<!-- Node1281 -->
<g id="node30" class="node"><title>Node1281</title>
<g id="a_node30"><a xlink:href="esp-open-lwip_2include_2lwip_2sntp_8h.html#a557f2d3fcbc53da30e4f1b51ea5842e7" target="_top" xlink:title="sntp_get_current_timestamp">
<polygon fill="white" stroke="black" points="325,-294.5 325,-313.5 465,-313.5 465,-294.5 325,-294.5"/>
<text text-anchor="middle" x="395" y="-301.5" font-family="Helvetica,sans-Serif" font-size="10.00">sntp_get_current_timestamp</text>
</a>
</g>
</g>
<!-- Node1280&#45;&gt;Node1281 -->
<g id="edge39" class="edge"><title>Node1280&#45;&gt;Node1281</title>
<path fill="none" stroke="midnightblue" d="M254.537,-326.062C274.693,-322.873 300.199,-318.839 323.871,-315.094"/>
<polygon fill="midnightblue" stroke="midnightblue" points="324.553,-318.53 333.883,-313.51 323.459,-311.616 324.553,-318.53"/>
</g>
<!-- Node1284 -->
<g id="node33" class="node"><title>Node1284</title>
<g id="a_node33"><a xlink:href="mqtt__msg_8h.html#af16842423fc1d5d802a7f329fc3a9ef9" target="_top" xlink:title="mqtt_msg_publish">
<polygon fill="white" stroke="black" points="347,-180.5 347,-199.5 443,-199.5 443,-180.5 347,-180.5"/>
<text text-anchor="middle" x="395" y="-187.5" font-family="Helvetica,sans-Serif" font-size="10.00">mqtt_msg_publish</text>
</a>
</g>
</g>
<!-- Node1283&#45;&gt;Node1284 -->
<g id="edge42" class="edge"><title>Node1283&#45;&gt;Node1284</title>
<path fill="none" stroke="midnightblue" d="M257.164,-175.311C280.666,-177.834 310.727,-181.061 336.685,-183.848"/>
<polygon fill="midnightblue" stroke="midnightblue" points="336.463,-187.344 346.78,-184.931 337.211,-180.384 336.463,-187.344"/>
</g>
<!-- Node1290 -->
<g id="node39" class="node"><title>Node1290</title>
<g id="a_node39"><a xlink:href="_meter_logger_2mqtt_2include_2queue_8h.html#a2052c731d6aecfc43c9e18da8b58ee42" target="_top" xlink:title="QUEUE_Gets">
<polygon fill="white" stroke="black" points="355.5,-142.5 355.5,-161.5 434.5,-161.5 434.5,-142.5 355.5,-142.5"/>
<text text-anchor="middle" x="395" y="-149.5" font-family="Helvetica,sans-Serif" font-size="10.00">QUEUE_Gets</text>
</a>
</g>
</g>
<!-- Node1283&#45;&gt;Node1290 -->
<g id="edge48" class="edge"><title>Node1283&#45;&gt;Node1290</title>
<path fill="none" stroke="midnightblue" d="M257.164,-166.689C283.212,-163.893 317.317,-160.231 344.963,-157.264"/>
<polygon fill="midnightblue" stroke="midnightblue" points="345.642,-160.711 355.211,-156.164 344.895,-153.751 345.642,-160.711"/>
</g>
<!-- Node1295 -->
<g id="node44" class="node"><title>Node1295</title>
<g id="a_node44"><a xlink:href="_meter_logger_2mqtt_2include_2queue_8h.html#a6fd5d93b4c64bd836d706777defb5f80" target="_top" xlink:title="QUEUE_Puts">
<polygon fill="white" stroke="black" points="356,-104.5 356,-123.5 434,-123.5 434,-104.5 356,-104.5"/>
<text text-anchor="middle" x="395" y="-111.5" font-family="Helvetica,sans-Serif" font-size="10.00">QUEUE_Puts</text>
</a>
</g>
</g>
<!-- Node1283&#45;&gt;Node1295 -->
<g id="edge53" class="edge"><title>Node1283&#45;&gt;Node1295</title>
<path fill="none" stroke="midnightblue" d="M257.13,-162.137C267.653,-159.347 278.883,-155.945 289,-152 305.855,-145.427 308.18,-139.663 325,-133 331.751,-130.326 339.015,-127.883 346.206,-125.704"/>
<polygon fill="midnightblue" stroke="midnightblue" points="347.276,-129.038 355.912,-122.901 345.334,-122.313 347.276,-129.038"/>
</g>
<!-- Node1298 -->
<g id="node47" class="node"><title>Node1298</title>
<g id="a_node47"><a xlink:href="user__interface_8h.html#adab1155f3a463f2b05a9bde65b37514f" target="_top" xlink:title="system_os_post">
<polygon fill="white" stroke="black" points="350.5,-66.5 350.5,-85.5 439.5,-85.5 439.5,-66.5 350.5,-66.5"/>
<text text-anchor="middle" x="395" y="-73.5" font-family="Helvetica,sans-Serif" font-size="10.00">system_os_post</text>
</a>
</g>
</g>
<!-- Node1283&#45;&gt;Node1298 -->
<g id="edge56" class="edge"><title>Node1283&#45;&gt;Node1298</title>
<path fill="none" stroke="midnightblue" d="M257.099,-165.979C268.192,-163.174 279.722,-158.804 289,-152 313.162,-134.281 300.933,-112.848 325,-95 329.731,-91.4914 335.076,-88.6307 340.646,-86.2983"/>
<polygon fill="midnightblue" stroke="midnightblue" points="341.952,-89.5477 350.162,-82.8506 339.567,-82.9664 341.952,-89.5477"/>
</g>
<!-- Node1285 -->
<g id="node34" class="node"><title>Node1285</title>
<g id="a_node34"><a xlink:href="mqtt__msg_8c.html#ac59e26babd30c6c0ace9a174e75786f3" target="_top" xlink:title="append_message_id">
<polygon fill="white" stroke="black" points="501,-180.5 501,-199.5 607,-199.5 607,-180.5 501,-180.5"/>
<text text-anchor="middle" x="554" y="-187.5" font-family="Helvetica,sans-Serif" font-size="10.00">append_message_id</text>
</a>
</g>
</g>
<!-- Node1284&#45;&gt;Node1285 -->
<g id="edge43" class="edge"><title>Node1284&#45;&gt;Node1285</title>
<path fill="none" stroke="midnightblue" d="M443.105,-190C458.072,-190 474.862,-190 490.727,-190"/>
<polygon fill="midnightblue" stroke="midnightblue" points="490.99,-193.5 500.99,-190 490.99,-186.5 490.99,-193.5"/>
</g>
<!-- Node1286 -->
<g id="node35" class="node"><title>Node1286</title>
<g id="a_node35"><a xlink:href="mqtt__msg_8c.html#a207c99e2058080b97c21a348d693a560" target="_top" xlink:title="append_string">
<polygon fill="white" stroke="black" points="515.5,-142.5 515.5,-161.5 592.5,-161.5 592.5,-142.5 515.5,-142.5"/>
<text text-anchor="middle" x="554" y="-149.5" font-family="Helvetica,sans-Serif" font-size="10.00">append_string</text>
</a>
</g>
</g>
<!-- Node1284&#45;&gt;Node1286 -->
<g id="edge44" class="edge"><title>Node1284&#45;&gt;Node1286</title>
<path fill="none" stroke="midnightblue" d="M435.618,-180.411C456.808,-175.282 483.056,-168.929 505.354,-163.532"/>
<polygon fill="midnightblue" stroke="midnightblue" points="506.393,-166.882 515.288,-161.128 504.746,-160.078 506.393,-166.882"/>
</g>
<!-- Node1287 -->
<g id="node36" class="node"><title>Node1287</title>
<g id="a_node36"><a xlink:href="mqtt__msg_8c.html#a9a2fb8c67ff4b104dd46e72c9e97b710" target="_top" xlink:title="fail_message">
<polygon fill="white" stroke="black" points="517,-104.5 517,-123.5 591,-123.5 591,-104.5 517,-104.5"/>
<text text-anchor="middle" x="554" y="-111.5" font-family="Helvetica,sans-Serif" font-size="10.00">fail_message</text>
</a>
</g>
</g>
<!-- Node1284&#45;&gt;Node1287 -->
<g id="edge45" class="edge"><title>Node1284&#45;&gt;Node1287</title>
<path fill="none" stroke="midnightblue" d="M443.076,-180.754C450.701,-178.225 458.288,-175.028 465,-171 484.947,-159.028 481.558,-145.776 501,-133 503.941,-131.068 507.104,-129.299 510.365,-127.688"/>
<polygon fill="midnightblue" stroke="midnightblue" points="511.984,-130.799 519.716,-123.555 509.154,-124.396 511.984,-130.799"/>
</g>
<!-- Node1288 -->
<g id="node37" class="node"><title>Node1288</title>
<g id="a_node37"><a xlink:href="mqtt__msg_8c.html#a356949afe8a334d5e91bddb4b2794921" target="_top" xlink:title="fini_message">
<polygon fill="white" stroke="black" points="517,-256.5 517,-275.5 591,-275.5 591,-256.5 517,-256.5"/>
<text text-anchor="middle" x="554" y="-263.5" font-family="Helvetica,sans-Serif" font-size="10.00">fini_message</text>
</a>
</g>
</g>
<!-- Node1284&#45;&gt;Node1288 -->
<g id="edge46" class="edge"><title>Node1284&#45;&gt;Node1288</title>
<path fill="none" stroke="midnightblue" d="M411.992,-199.644C432.26,-211.641 468.48,-232.328 501,-247 505.474,-249.018 510.231,-250.988 514.982,-252.847"/>
<polygon fill="midnightblue" stroke="midnightblue" points="514.038,-256.232 524.63,-256.489 516.511,-249.683 514.038,-256.232"/>
</g>
<!-- Node1289 -->
<g id="node38" class="node"><title>Node1289</title>
<g id="a_node38"><a xlink:href="mqtt__msg_8c.html#aae7c66cc577ac90e9535edac4abc068c" target="_top" xlink:title="init_message">
<polygon fill="white" stroke="black" points="517,-218.5 517,-237.5 591,-237.5 591,-218.5 517,-218.5"/>
<text text-anchor="middle" x="554" y="-225.5" font-family="Helvetica,sans-Serif" font-size="10.00">init_message</text>
</a>
</g>
</g>
<!-- Node1284&#45;&gt;Node1289 -->
<g id="edge47" class="edge"><title>Node1284&#45;&gt;Node1289</title>
<path fill="none" stroke="midnightblue" d="M435.618,-199.589C457.378,-204.856 484.472,-211.414 507.145,-216.901"/>
<polygon fill="midnightblue" stroke="midnightblue" points="506.346,-220.309 516.889,-219.26 507.993,-213.505 506.346,-220.309"/>
</g>
<!-- Node1291 -->
<g id="node40" class="node"><title>Node1291</title>
<g id="a_node40"><a xlink:href="proto_8h.html#adf76f7a7dcf2e7e22af1a3235b9a808c" target="_top" xlink:title="PROTO_ParseRb">
<polygon fill="white" stroke="black" points="506.5,-66.5 506.5,-85.5 601.5,-85.5 601.5,-66.5 506.5,-66.5"/>
<text text-anchor="middle" x="554" y="-73.5" font-family="Helvetica,sans-Serif" font-size="10.00">PROTO_ParseRb</text>
</a>
</g>
</g>
<!-- Node1290&#45;&gt;Node1291 -->
<g id="edge49" class="edge"><title>Node1290&#45;&gt;Node1291</title>
<path fill="none" stroke="midnightblue" d="M434.75,-145.267C445.045,-142.448 455.838,-138.499 465,-133 484.947,-121.028 481.558,-107.776 501,-95 503.941,-93.0676 507.104,-91.2994 510.365,-89.6878"/>
<polygon fill="midnightblue" stroke="midnightblue" points="511.984,-92.7989 519.716,-85.5549 509.154,-86.3965 511.984,-92.7989"/>
</g>
<!-- Node1292 -->
<g id="node41" class="node"><title>Node1292</title>
<g id="a_node41"><a xlink:href="proto_8c.html#aef0525e6fb0717f1ae3816f5a59fbd08" target="_top" xlink:title="PROTO_Init">
<polygon fill="white" stroke="black" points="659,-114.5 659,-133.5 730,-133.5 730,-114.5 659,-114.5"/>
<text text-anchor="middle" x="694.5" y="-121.5" font-family="Helvetica,sans-Serif" font-size="10.00">PROTO_Init</text>
</a>
</g>
</g>
<!-- Node1291&#45;&gt;Node1292 -->
<g id="edge50" class="edge"><title>Node1291&#45;&gt;Node1292</title>
<path fill="none" stroke="midnightblue" d="M582.695,-85.5982C603.831,-92.9234 633.164,-103.089 656.34,-111.121"/>
<polygon fill="midnightblue" stroke="midnightblue" points="655.259,-114.451 665.853,-114.418 657.551,-107.837 655.259,-114.451"/>
</g>
<!-- Node1293 -->
<g id="node42" class="node"><title>Node1293</title>
<g id="a_node42"><a xlink:href="proto_8c.html#a281b27f126b2495d977c300dc596c771" target="_top" xlink:title="PROTO_ParseByte">
<polygon fill="white" stroke="black" points="643,-76.5 643,-95.5 746,-95.5 746,-76.5 643,-76.5"/>
<text text-anchor="middle" x="694.5" y="-83.5" font-family="Helvetica,sans-Serif" font-size="10.00">PROTO_ParseByte</text>
</a>
</g>
</g>
<!-- Node1291&#45;&gt;Node1293 -->
<g id="edge51" class="edge"><title>Node1291&#45;&gt;Node1293</title>
<path fill="none" stroke="midnightblue" d="M601.504,-79.3577C611.406,-80.0726 622.005,-80.8379 632.36,-81.5855"/>
<polygon fill="midnightblue" stroke="midnightblue" points="632.371,-85.0954 642.598,-82.3247 632.876,-78.1136 632.371,-85.0954"/>
</g>
<!-- Node1294 -->
<g id="node43" class="node"><title>Node1294</title>
<g id="a_node43"><a xlink:href="ringbuf_8h.html#a55e63bf17009f5c5c653867a73a80556" target="_top" xlink:title="get a character from ring buffer ">
<polygon fill="white" stroke="black" points="653,-38.5 653,-57.5 736,-57.5 736,-38.5 653,-38.5"/>
<text text-anchor="middle" x="694.5" y="-45.5" font-family="Helvetica,sans-Serif" font-size="10.00">RINGBUF_Get</text>
</a>
</g>
</g>
<!-- Node1291&#45;&gt;Node1294 -->
<g id="edge52" class="edge"><title>Node1291&#45;&gt;Node1294</title>
<path fill="none" stroke="midnightblue" d="M601.504,-66.5985C614.78,-63.9146 629.311,-60.9769 642.823,-58.2452"/>
<polygon fill="midnightblue" stroke="midnightblue" points="643.811,-61.6163 652.919,-56.2041 642.424,-54.7551 643.811,-61.6163"/>
</g>
<!-- Node1296 -->
<g id="node45" class="node"><title>Node1296</title>
<g id="a_node45"><a xlink:href="proto_8h.html#a0048bb46c50a05ae94d1f1563909c046" target="_top" xlink:title="PROTO_AddRb">
<polygon fill="white" stroke="black" points="510.5,-19.5 510.5,-38.5 597.5,-38.5 597.5,-19.5 510.5,-19.5"/>
<text text-anchor="middle" x="554" y="-26.5" font-family="Helvetica,sans-Serif" font-size="10.00">PROTO_AddRb</text>
</a>
</g>
</g>
<!-- Node1295&#45;&gt;Node1296 -->
<g id="edge54" class="edge"><title>Node1295&#45;&gt;Node1296</title>
<path fill="none" stroke="midnightblue" d="M434.033,-107.462C444.542,-104.63 455.625,-100.627 465,-95 484.947,-83.0277 482.524,-71.1382 501,-57 507.584,-51.9616 515.197,-47.3125 522.531,-43.3096"/>
<polygon fill="midnightblue" stroke="midnightblue" points="524.319,-46.3248 531.575,-38.604 521.088,-40.1151 524.319,-46.3248"/>
</g>
<!-- Node1297 -->
<g id="node46" class="node"><title>Node1297</title>
<g id="a_node46"><a xlink:href="ringbuf_8h.html#a8b56edb0716a45312957960d4784f0b7" target="_top" xlink:title="put a character into ring buffer ">
<polygon fill="white" stroke="black" points="653,-0.5 653,-19.5 736,-19.5 736,-0.5 653,-0.5"/>
<text text-anchor="middle" x="694.5" y="-7.5" font-family="Helvetica,sans-Serif" font-size="10.00">RINGBUF_Put</text>
</a>
</g>
</g>
<!-- Node1296&#45;&gt;Node1297 -->
<g id="edge55" class="edge"><title>Node1296&#45;&gt;Node1297</title>
<path fill="none" stroke="midnightblue" d="M597.685,-23.1443C611.892,-21.1953 627.858,-19.0051 642.622,-16.9796"/>
<polygon fill="midnightblue" stroke="midnightblue" points="643.184,-20.4354 652.616,-15.6087 642.233,-13.5004 643.184,-20.4354"/>
</g>
</g>
</svg>
