<?xml version="1.0" encoding="UTF-8" standalone="no"?>
<!DOCTYPE svg PUBLIC "-//W3C//DTD SVG 1.1//EN"
 "http://www.w3.org/Graphics/SVG/1.1/DTD/svg11.dtd">
<!-- Generated by graphviz version 2.38.0 (20140413.2041)
 -->
<!-- Title: mqtt_msg_subscribe Pages: 1 -->
<svg width="244pt" height="66pt"
 viewBox="0.00 0.00 244.00 66.00" xmlns="http://www.w3.org/2000/svg" xmlns:xlink="http://www.w3.org/1999/xlink">
<g id="graph0" class="graph" transform="scale(1 1) rotate(0) translate(4 62)">
<title>mqtt_msg_subscribe</title>
<polygon fill="white" stroke="none" points="-4,4 -4,-62 240,-62 240,4 -4,4"/>
<!-- Node412 -->
<g id="node1" class="node"><title>Node412</title>
<polygon fill="#bfbfbf" stroke="black" points="0,-19.5 0,-38.5 107,-38.5 107,-19.5 0,-19.5"/>
<text text-anchor="middle" x="53.5" y="-26.5" font-family="Helvetica,sans-Serif" font-size="10.00">mqtt_msg_subscribe</text>
</g>
<!-- Node413 -->
<g id="node2" class="node"><title>Node413</title>
<g id="a_node2"><a xlink:href="mqtt__msg_8h.html#affd61b4be51d1e29e51dfbc42489ba36" target="_top" xlink:title="mqtt_get_retain">
<polygon fill="white" stroke="black" points="147.5,-38.5 147.5,-57.5 231.5,-57.5 231.5,-38.5 147.5,-38.5"/>
<text text-anchor="middle" x="189.5" y="-45.5" font-family="Helvetica,sans-Serif" font-size="10.00">mqtt_get_retain</text>
</a>
</g>
</g>
<!-- Node412&#45;&gt;Node413 -->
<g id="edge1" class="edge"><title>Node412&#45;&gt;Node413</title>
<path fill="none" stroke="midnightblue" d="M117.199,-37.8902C127.402,-39.3369 137.739,-40.8026 147.258,-42.1522"/>
<polygon fill="midnightblue" stroke="midnightblue" points="117.468,-34.3934 107.076,-36.4548 116.485,-41.3241 117.468,-34.3934"/>
</g>
<!-- Node414 -->
<g id="node3" class="node"><title>Node414</title>
<g id="a_node3"><a xlink:href="mqtt_8c.html#a86f8adfe29d6ec8bb5070fd030540d2f" target="_top" xlink:title="MQTT subscibe function. ">
<polygon fill="white" stroke="black" points="143,-0.5 143,-19.5 236,-19.5 236,-0.5 143,-0.5"/>
<text text-anchor="middle" x="189.5" y="-7.5" font-family="Helvetica,sans-Serif" font-size="10.00">MQTT_Subscribe</text>
</a>
</g>
</g>
<!-- Node412&#45;&gt;Node414 -->
<g id="edge2" class="edge"><title>Node412&#45;&gt;Node414</title>
<path fill="none" stroke="midnightblue" d="M117.087,-20.1257C125.682,-18.907 134.375,-17.6744 142.596,-16.5088"/>
<polygon fill="midnightblue" stroke="midnightblue" points="116.485,-16.6759 107.076,-21.5452 117.468,-23.6066 116.485,-16.6759"/>
</g>
</g>
</svg>
