<?xml version="1.0" encoding="UTF-8" standalone="no"?>
<!DOCTYPE svg PUBLIC "-//W3C//DTD SVG 1.1//EN"
 "http://www.w3.org/Graphics/SVG/1.1/DTD/svg11.dtd">
<!-- Generated by graphviz version 2.38.0 (20140413.2041)
 -->
<!-- Title: append_message_id Pages: 1 -->
<svg width="978pt" height="990pt"
 viewBox="0.00 0.00 978.00 990.00" xmlns="http://www.w3.org/2000/svg" xmlns:xlink="http://www.w3.org/1999/xlink">
<g id="graph0" class="graph" transform="scale(1 1) rotate(0) translate(4 986)">
<title>append_message_id</title>
<polygon fill="white" stroke="none" points="-4,4 -4,-986 974,-986 974,4 -4,4"/>
<!-- Node3 -->
<g id="node1" class="node"><title>Node3</title>
<polygon fill="#bfbfbf" stroke="black" points="0,-525.5 0,-544.5 106,-544.5 106,-525.5 0,-525.5"/>
<text text-anchor="middle" x="53" y="-532.5" font-family="Helvetica,sans-Serif" font-size="10.00">append_message_id</text>
</g>
<!-- Node4 -->
<g id="node2" class="node"><title>Node4</title>
<g id="a_node2"><a xlink:href="mqtt__msg_8c.html#a203f5abf687140e00cbe5ceb271ae2a9" target="_top" xlink:title="mqtt_msg_puback">
<polygon fill="white" stroke="black" points="152.5,-525.5 152.5,-544.5 249.5,-544.5 249.5,-525.5 152.5,-525.5"/>
<text text-anchor="middle" x="201" y="-532.5" font-family="Helvetica,sans-Serif" font-size="10.00">mqtt_msg_puback</text>
</a>
</g>
</g>
<!-- Node3&#45;&gt;Node4 -->
<g id="edge1" class="edge"><title>Node3&#45;&gt;Node4</title>
<path fill="none" stroke="midnightblue" d="M116.331,-535C128.424,-535 140.915,-535 152.44,-535"/>
<polygon fill="midnightblue" stroke="midnightblue" points="116.297,-531.5 106.297,-535 116.297,-538.5 116.297,-531.5"/>
</g>
<!-- Node11 -->
<g id="node9" class="node"><title>Node11</title>
<g id="a_node9"><a xlink:href="mqtt__msg_8c.html#a6ddf7abb65c3c9006ffb1c4cf72f4980" target="_top" xlink:title="mqtt_msg_pubcomp">
<polygon fill="white" stroke="black" points="148.5,-639.5 148.5,-658.5 253.5,-658.5 253.5,-639.5 148.5,-639.5"/>
<text text-anchor="middle" x="201" y="-646.5" font-family="Helvetica,sans-Serif" font-size="10.00">mqtt_msg_pubcomp</text>
</a>
</g>
</g>
<!-- Node3&#45;&gt;Node11 -->
<g id="edge8" class="edge"><title>Node3&#45;&gt;Node11</title>
<path fill="none" stroke="midnightblue" d="M66.2649,-553.028C81.622,-574.304 109.851,-609.389 142,-630 147.977,-633.832 154.798,-636.959 161.612,-639.488"/>
<polygon fill="midnightblue" stroke="midnightblue" points="68.9387,-550.745 60.3219,-544.581 63.2137,-554.773 68.9387,-550.745"/>
</g>
<!-- Node12 -->
<g id="node10" class="node"><title>Node12</title>
<g id="a_node10"><a xlink:href="mqtt__msg_8c.html#af16842423fc1d5d802a7f329fc3a9ef9" target="_top" xlink:title="mqtt_msg_publish">
<polygon fill="white" stroke="black" points="153,-487.5 153,-506.5 249,-506.5 249,-487.5 153,-487.5"/>
<text text-anchor="middle" x="201" y="-494.5" font-family="Helvetica,sans-Serif" font-size="10.00">mqtt_msg_publish</text>
</a>
</g>
</g>
<!-- Node3&#45;&gt;Node12 -->
<g id="edge11" class="edge"><title>Node3&#45;&gt;Node12</title>
<path fill="none" stroke="midnightblue" d="M100.536,-522.888C120.87,-517.596 144.371,-511.479 163.423,-506.52"/>
<polygon fill="midnightblue" stroke="midnightblue" points="99.6379,-519.505 90.842,-525.411 101.401,-526.279 99.6379,-519.505"/>
</g>
<!-- Node42 -->
<g id="node40" class="node"><title>Node42</title>
<g id="a_node40"><a xlink:href="mqtt__msg_8c.html#a9a9bb0b46778aeeea9ed48a37de31232" target="_top" xlink:title="mqtt_msg_pubrec">
<polygon fill="white" stroke="black" points="153.5,-601.5 153.5,-620.5 248.5,-620.5 248.5,-601.5 153.5,-601.5"/>
<text text-anchor="middle" x="201" y="-608.5" font-family="Helvetica,sans-Serif" font-size="10.00">mqtt_msg_pubrec</text>
</a>
</g>
</g>
<!-- Node3&#45;&gt;Node42 -->
<g id="edge44" class="edge"><title>Node3&#45;&gt;Node42</title>
<path fill="none" stroke="midnightblue" d="M74.7321,-550.631C92.0181,-563.111 117.663,-580.374 142,-592 149.553,-595.608 157.968,-598.799 165.993,-601.486"/>
<polygon fill="midnightblue" stroke="midnightblue" points="76.639,-547.689 66.5057,-544.596 72.4984,-553.333 76.639,-547.689"/>
</g>
<!-- Node43 -->
<g id="node41" class="node"><title>Node43</title>
<g id="a_node41"><a xlink:href="mqtt__msg_8c.html#a144bc05ddeb251c82e48ed31d2cf16fb" target="_top" xlink:title="mqtt_msg_pubrel">
<polygon fill="white" stroke="black" points="155,-563.5 155,-582.5 247,-582.5 247,-563.5 155,-563.5"/>
<text text-anchor="middle" x="201" y="-570.5" font-family="Helvetica,sans-Serif" font-size="10.00">mqtt_msg_pubrel</text>
</a>
</g>
</g>
<!-- Node3&#45;&gt;Node43 -->
<g id="edge47" class="edge"><title>Node3&#45;&gt;Node43</title>
<path fill="none" stroke="midnightblue" d="M100.536,-547.112C120.87,-552.404 144.371,-558.521 163.423,-563.48"/>
<polygon fill="midnightblue" stroke="midnightblue" points="101.401,-543.721 90.842,-544.589 99.6379,-550.495 101.401,-543.721"/>
</g>
<!-- Node44 -->
<g id="node42" class="node"><title>Node44</title>
<g id="a_node42"><a xlink:href="mqtt__msg_8c.html#adff62ede8c5069101032913d4434baad" target="_top" xlink:title="mqtt_msg_subscribe">
<polygon fill="white" stroke="black" points="147.5,-449.5 147.5,-468.5 254.5,-468.5 254.5,-449.5 147.5,-449.5"/>
<text text-anchor="middle" x="201" y="-456.5" font-family="Helvetica,sans-Serif" font-size="10.00">mqtt_msg_subscribe</text>
</a>
</g>
</g>
<!-- Node3&#45;&gt;Node44 -->
<g id="edge50" class="edge"><title>Node3&#45;&gt;Node44</title>
<path fill="none" stroke="midnightblue" d="M74.7321,-519.369C92.0181,-506.889 117.663,-489.626 142,-478 149.553,-474.392 157.968,-471.201 165.993,-468.514"/>
<polygon fill="midnightblue" stroke="midnightblue" points="72.4984,-516.667 66.5057,-525.404 76.639,-522.311 72.4984,-516.667"/>
</g>
<!-- Node46 -->
<g id="node44" class="node"><title>Node46</title>
<g id="a_node44"><a xlink:href="mqtt__msg_8c.html#a5b329f56f9757307102a494232b2cf92" target="_top" xlink:title="mqtt_msg_unsubscribe">
<polygon fill="white" stroke="black" points="142,-411.5 142,-430.5 260,-430.5 260,-411.5 142,-411.5"/>
<text text-anchor="middle" x="201" y="-418.5" font-family="Helvetica,sans-Serif" font-size="10.00">mqtt_msg_unsubscribe</text>
</a>
</g>
</g>
<!-- Node3&#45;&gt;Node46 -->
<g id="edge53" class="edge"><title>Node3&#45;&gt;Node46</title>
<path fill="none" stroke="midnightblue" d="M66.2649,-516.972C81.622,-495.696 109.851,-460.611 142,-440 147.977,-436.168 154.798,-433.041 161.612,-430.512"/>
<polygon fill="midnightblue" stroke="midnightblue" points="63.2137,-515.227 60.3219,-525.419 68.9387,-519.255 63.2137,-515.227"/>
</g>
<!-- Node5 -->
<g id="node3" class="node"><title>Node5</title>
<g id="a_node3"><a xlink:href="mqtt__msg_8h.html#affd61b4be51d1e29e51dfbc42489ba36" target="_top" xlink:title="mqtt_get_retain">
<polygon fill="white" stroke="black" points="307,-525.5 307,-544.5 391,-544.5 391,-525.5 307,-525.5"/>
<text text-anchor="middle" x="349" y="-532.5" font-family="Helvetica,sans-Serif" font-size="10.00">mqtt_get_retain</text>
</a>
</g>
</g>
<!-- Node4&#45;&gt;Node5 -->
<g id="edge2" class="edge"><title>Node4&#45;&gt;Node5</title>
<path fill="none" stroke="midnightblue" d="M259.963,-535C275.682,-535 292.374,-535 306.948,-535"/>
<polygon fill="midnightblue" stroke="midnightblue" points="259.806,-531.5 249.806,-535 259.806,-538.5 259.806,-531.5"/>
</g>
<!-- Node6 -->
<g id="node4" class="node"><title>Node6</title>
<g id="a_node4"><a xlink:href="mqtt_8c.html#af470856972320b9c02da9fcb6f419fd0" target="_top" xlink:title="Client received callback function. ">
<polygon fill="white" stroke="black" points="298,-601.5 298,-620.5 400,-620.5 400,-601.5 298,-601.5"/>
<text text-anchor="middle" x="349" y="-608.5" font-family="Helvetica,sans-Serif" font-size="10.00">mqtt_tcpclient_recv</text>
</a>
</g>
</g>
<!-- Node4&#45;&gt;Node6 -->
<g id="edge3" class="edge"><title>Node4&#45;&gt;Node6</title>
<path fill="none" stroke="midnightblue" d="M245.515,-547.888C250.475,-549.757 255.397,-551.801 260,-554 288.579,-567.653 318.962,-589.079 335.494,-601.404"/>
<polygon fill="midnightblue" stroke="midnightblue" points="246.601,-544.56 236.007,-544.514 244.26,-551.157 246.601,-544.56"/>
</g>
<!-- Node7 -->
<g id="node5" class="node"><title>Node7</title>
<g id="a_node5"><a xlink:href="mqtt_8c.html#a36ecd969af1b9c87856f01be064a98cc" target="_top" xlink:title="Tcp client connect success callback function. ">
<polygon fill="white" stroke="black" points="438,-962.5 438,-981.5 572,-981.5 572,-962.5 438,-962.5"/>
<text text-anchor="middle" x="505" y="-969.5" font-family="Helvetica,sans-Serif" font-size="10.00">mqtt_tcpclient_connect_cb</text>
</a>
</g>
</g>
<!-- Node6&#45;&gt;Node7 -->
<g id="edge4" class="edge"><title>Node6&#45;&gt;Node7</title>
<path fill="none" stroke="midnightblue" d="M352.503,-630.791C361.192,-696.469 392.046,-905.719 438,-953 441.74,-956.848 446.204,-959.93 451.023,-962.396"/>
<polygon fill="midnightblue" stroke="midnightblue" points="355.936,-630.047 351.18,-620.58 348.994,-630.947 355.936,-630.047"/>
</g>
<!-- Node8 -->
<g id="node6" class="node"><title>Node8</title>
<g id="a_node6"><a xlink:href="mqtt_8c.html#ad34b681cb2f7473d8fc786c7ed468db5" target="_top" xlink:title="Begin connect to MQTT broker. ">
<polygon fill="white" stroke="black" points="620,-962.5 620,-981.5 706,-981.5 706,-962.5 620,-962.5"/>
<text text-anchor="middle" x="663" y="-969.5" font-family="Helvetica,sans-Serif" font-size="10.00">MQTT_Connect</text>
</a>
</g>
</g>
<!-- Node7&#45;&gt;Node8 -->
<g id="edge5" class="edge"><title>Node7&#45;&gt;Node8</title>
<path fill="none" stroke="midnightblue" d="M582.418,-972C595.26,-972 608.16,-972 619.723,-972"/>
<polygon fill="midnightblue" stroke="midnightblue" points="582.158,-968.5 572.158,-972 582.158,-975.5 582.158,-968.5"/>
</g>
<!-- Node9 -->
<g id="node7" class="node"><title>Node9</title>
<g id="a_node7"><a xlink:href="mqtt_8c.html#a9d88fa6efb9163d4dbf9dc750a8d4ed0" target="_top" xlink:title="MQTT_Task">
<polygon fill="white" stroke="black" points="764,-962.5 764,-981.5 835,-981.5 835,-962.5 764,-962.5"/>
<text text-anchor="middle" x="799.5" y="-969.5" font-family="Helvetica,sans-Serif" font-size="10.00">MQTT_Task</text>
</a>
</g>
</g>
<!-- Node8&#45;&gt;Node9 -->
<g id="edge6" class="edge"><title>Node8&#45;&gt;Node9</title>
<path fill="none" stroke="midnightblue" d="M716.401,-972C732.257,-972 749.272,-972 763.677,-972"/>
<polygon fill="midnightblue" stroke="midnightblue" points="716.188,-968.5 706.188,-972 716.188,-975.5 716.188,-968.5"/>
</g>
<!-- Node10 -->
<g id="node8" class="node"><title>Node10</title>
<g id="a_node8"><a xlink:href="mqtt_8c.html#a25cb7ac079d1d119250dac075c45acf1" target="_top" xlink:title="MQTT initialization mqtt client function. ">
<polygon fill="white" stroke="black" points="881,-962.5 881,-981.5 970,-981.5 970,-962.5 881,-962.5"/>
<text text-anchor="middle" x="925.5" y="-969.5" font-family="Helvetica,sans-Serif" font-size="10.00">MQTT_InitClient</text>
</a>
</g>
</g>
<!-- Node9&#45;&gt;Node10 -->
<g id="edge7" class="edge"><title>Node9&#45;&gt;Node10</title>
<path fill="none" stroke="midnightblue" d="M845.362,-972C856.921,-972 869.343,-972 880.839,-972"/>
<polygon fill="midnightblue" stroke="midnightblue" points="845.041,-968.5 835.041,-972 845.041,-975.5 845.041,-968.5"/>
</g>
<!-- Node11&#45;&gt;Node5 -->
<g id="edge9" class="edge"><title>Node11&#45;&gt;Node5</title>
<path fill="none" stroke="midnightblue" d="M249.888,-635.526C253.412,-633.872 256.825,-632.036 260,-630 262.425,-628.445 317.396,-568.462 339.203,-544.624"/>
<polygon fill="midnightblue" stroke="midnightblue" points="248.27,-632.409 240.388,-639.488 250.965,-638.869 248.27,-632.409"/>
</g>
<!-- Node11&#45;&gt;Node6 -->
<g id="edge10" class="edge"><title>Node11&#45;&gt;Node6</title>
<path fill="none" stroke="midnightblue" d="M248.536,-636.888C268.87,-631.596 292.371,-625.479 311.423,-620.52"/>
<polygon fill="midnightblue" stroke="midnightblue" points="247.638,-633.505 238.842,-639.411 249.401,-640.279 247.638,-633.505"/>
</g>
<!-- Node12&#45;&gt;Node5 -->
<g id="edge12" class="edge"><title>Node12&#45;&gt;Node5</title>
<path fill="none" stroke="midnightblue" d="M248.536,-509.112C268.87,-514.404 292.371,-520.521 311.423,-525.48"/>
<polygon fill="midnightblue" stroke="midnightblue" points="249.401,-505.721 238.842,-506.589 247.638,-512.495 249.401,-505.721"/>
</g>
<!-- Node13 -->
<g id="node11" class="node"><title>Node13</title>
<g id="a_node11"><a xlink:href="mqtt_8c.html#a848a6701c4c7ec3432e38ea57c003aad" target="_top" xlink:title="MQTT publish function. ">
<polygon fill="white" stroke="black" points="308,-487.5 308,-506.5 390,-506.5 390,-487.5 308,-487.5"/>
<text text-anchor="middle" x="349" y="-494.5" font-family="Helvetica,sans-Serif" font-size="10.00">MQTT_Publish</text>
</a>
</g>
</g>
<!-- Node12&#45;&gt;Node13 -->
<g id="edge13" class="edge"><title>Node12&#45;&gt;Node13</title>
<path fill="none" stroke="midnightblue" d="M259.763,-497C275.807,-497 292.88,-497 307.69,-497"/>
<polygon fill="midnightblue" stroke="midnightblue" points="259.402,-493.5 249.402,-497 259.402,-500.5 259.402,-493.5"/>
</g>
<!-- Node14 -->
<g id="node12" class="node"><title>Node14</title>
<g id="a_node12"><a xlink:href="en61107__request_8c.html#aa3b162cf5364986ea19e831ac2b18f76" target="_top" xlink:title="en61107_received_task">
<polygon fill="white" stroke="black" points="445.5,-810.5 445.5,-829.5 564.5,-829.5 564.5,-810.5 445.5,-810.5"/>
<text text-anchor="middle" x="505" y="-817.5" font-family="Helvetica,sans-Serif" font-size="10.00">en61107_received_task</text>
</a>
</g>
</g>
<!-- Node13&#45;&gt;Node14 -->
<g id="edge14" class="edge"><title>Node13&#45;&gt;Node14</title>
<path fill="none" stroke="midnightblue" d="M398.422,-512.181C399.709,-513.36 400.908,-514.631 402,-516 481.59,-615.829 354.965,-704.017 438,-801 441.257,-804.804 445.222,-807.871 449.575,-810.341"/>
<polygon fill="midnightblue" stroke="midnightblue" points="400.427,-509.312 390.246,-506.38 396.376,-515.021 400.427,-509.312"/>
</g>
<!-- Node16 -->
<g id="node14" class="node"><title>Node16</title>
<g id="a_node14"><a xlink:href="en61107__request_8h.html#a7384d014eb9e833f64ecf4a9f86f87be" target="_top" xlink:title="en61107_request_send">
<polygon fill="white" stroke="black" points="446.5,-772.5 446.5,-791.5 563.5,-791.5 563.5,-772.5 446.5,-772.5"/>
<text text-anchor="middle" x="505" y="-779.5" font-family="Helvetica,sans-Serif" font-size="10.00">en61107_request_send</text>
</a>
</g>
</g>
<!-- Node13&#45;&gt;Node16 -->
<g id="edge16" class="edge"><title>Node13&#45;&gt;Node16</title>
<path fill="none" stroke="midnightblue" d="M398.383,-512.213C399.681,-513.383 400.893,-514.643 402,-516 470.719,-600.273 369.216,-673.78 438,-758 443.167,-764.327 450.151,-768.986 457.645,-772.417"/>
<polygon fill="midnightblue" stroke="midnightblue" points="400.36,-509.324 390.164,-506.447 396.34,-515.055 400.36,-509.324"/>
</g>
<!-- Node17 -->
<g id="node15" class="node"><title>Node17</title>
<g id="a_node15"><a xlink:href="kmp__request_8c.html#a3f6b790a06b933b78f40ade5e9a16131" target="_top" xlink:title="kmp_received_task">
<polygon fill="white" stroke="black" points="612.5,-737.5 612.5,-756.5 713.5,-756.5 713.5,-737.5 612.5,-737.5"/>
<text text-anchor="middle" x="663" y="-744.5" font-family="Helvetica,sans-Serif" font-size="10.00">kmp_received_task</text>
</a>
</g>
</g>
<!-- Node13&#45;&gt;Node17 -->
<g id="edge17" class="edge"><title>Node13&#45;&gt;Node17</title>
<path fill="none" stroke="midnightblue" d="M398.343,-512.246C399.652,-513.406 400.878,-514.656 402,-516 462.399,-588.362 368.973,-660.816 438,-725 486.648,-770.235 569.465,-765.094 619.617,-756.535"/>
<polygon fill="midnightblue" stroke="midnightblue" points="400.291,-509.337 390.079,-506.517 396.303,-515.09 400.291,-509.337"/>
</g>
<!-- Node19 -->
<g id="node17" class="node"><title>Node19</title>
<g id="a_node17"><a xlink:href="kmp__request_8h.html#a3b022dcdc832786eb06126b5e6879604" target="_top" xlink:title="kmp_request_send">
<polygon fill="white" stroke="black" points="455.5,-696.5 455.5,-715.5 554.5,-715.5 554.5,-696.5 455.5,-696.5"/>
<text text-anchor="middle" x="505" y="-703.5" font-family="Helvetica,sans-Serif" font-size="10.00">kmp_request_send</text>
</a>
</g>
</g>
<!-- Node13&#45;&gt;Node19 -->
<g id="edge19" class="edge"><title>Node13&#45;&gt;Node19</title>
<path fill="none" stroke="midnightblue" d="M398.279,-512.3C399.606,-513.445 400.853,-514.677 402,-516 452.86,-574.696 385.117,-630.12 438,-687 442.79,-692.152 448.878,-695.939 455.411,-698.716"/>
<polygon fill="midnightblue" stroke="midnightblue" points="400.181,-509.36 389.944,-506.632 396.245,-515.149 400.181,-509.36"/>
</g>
<!-- Node21 -->
<g id="node19" class="node"><title>Node21</title>
<g id="a_node19"><a xlink:href="mqtt__rpc_8h.html#a7d1ed70e046b535e06c58675d4f1676b" target="_top" xlink:title="mqtt_rpc_ap_status">
<polygon fill="white" stroke="black" points="453.5,-658.5 453.5,-677.5 556.5,-677.5 556.5,-658.5 453.5,-658.5"/>
<text text-anchor="middle" x="505" y="-665.5" font-family="Helvetica,sans-Serif" font-size="10.00">mqtt_rpc_ap_status</text>
</a>
</g>
</g>
<!-- Node13&#45;&gt;Node21 -->
<g id="edge23" class="edge"><title>Node13&#45;&gt;Node21</title>
<path fill="none" stroke="midnightblue" d="M397.643,-511.945C399.198,-513.191 400.66,-514.539 402,-516 443.401,-561.123 395.045,-605.354 438,-649 442.349,-653.419 447.655,-656.827 453.348,-659.452"/>
<polygon fill="midnightblue" stroke="midnightblue" points="399.528,-508.996 389.221,-506.542 395.748,-514.888 399.528,-508.996"/>
</g>
<!-- Node22 -->
<g id="node20" class="node"><title>Node22</title>
<g id="a_node20"><a xlink:href="mqtt__rpc_8h.html#a023697ad978d1154228e256583a147c0" target="_top" xlink:title="mqtt_rpc_clear_cron">
<polygon fill="white" stroke="black" points="452.5,-620.5 452.5,-639.5 557.5,-639.5 557.5,-620.5 452.5,-620.5"/>
<text text-anchor="middle" x="505" y="-627.5" font-family="Helvetica,sans-Serif" font-size="10.00">mqtt_rpc_clear_cron</text>
</a>
</g>
</g>
<!-- Node13&#45;&gt;Node22 -->
<g id="edge24" class="edge"><title>Node13&#45;&gt;Node22</title>
<path fill="none" stroke="midnightblue" d="M397.29,-511.986C398.959,-513.221 400.539,-514.556 402,-516 434.117,-547.737 404.792,-580.407 438,-611 442.209,-614.878 447.161,-617.97 452.427,-620.433"/>
<polygon fill="midnightblue" stroke="midnightblue" points="398.724,-508.764 388.35,-506.613 395.118,-514.764 398.724,-508.764"/>
</g>
<!-- Node23 -->
<g id="node21" class="node"><title>Node23</title>
<g id="a_node21"><a xlink:href="mqtt__rpc_8h.html#a1e120184f7f332e637fc9481bcf5ce89" target="_top" xlink:title="mqtt_rpc_cron">
<polygon fill="white" stroke="black" points="465.5,-582.5 465.5,-601.5 544.5,-601.5 544.5,-582.5 465.5,-582.5"/>
<text text-anchor="middle" x="505" y="-589.5" font-family="Helvetica,sans-Serif" font-size="10.00">mqtt_rpc_cron</text>
</a>
</g>
</g>
<!-- Node13&#45;&gt;Node23 -->
<g id="edge25" class="edge"><title>Node13&#45;&gt;Node23</title>
<path fill="none" stroke="midnightblue" d="M394.778,-511.045C397.324,-512.542 399.756,-514.189 402,-516 425.319,-534.815 414.037,-555.013 438,-573 445.915,-578.941 455.635,-583.027 465.159,-585.836"/>
<polygon fill="midnightblue" stroke="midnightblue" points="396.301,-507.893 385.796,-506.513 393.147,-514.143 396.301,-507.893"/>
</g>
<!-- Node24 -->
<g id="node22" class="node"><title>Node24</title>
<g id="a_node22"><a xlink:href="mqtt__rpc_8h.html#afbd8a015cb20feb245dfc778416af7e9" target="_top" xlink:title="mqtt_rpc_crypto">
<polygon fill="white" stroke="black" points="461.5,-544.5 461.5,-563.5 548.5,-563.5 548.5,-544.5 461.5,-544.5"/>
<text text-anchor="middle" x="505" y="-551.5" font-family="Helvetica,sans-Serif" font-size="10.00">mqtt_rpc_crypto</text>
</a>
</g>
</g>
<!-- Node13&#45;&gt;Node24 -->
<g id="edge26" class="edge"><title>Node13&#45;&gt;Node24</title>
<path fill="none" stroke="midnightblue" d="M387.995,-510.204C392.75,-512.055 397.515,-514.008 402,-516 418.534,-523.343 421.219,-528.24 438,-535 446.848,-538.564 456.611,-541.757 465.854,-544.461"/>
<polygon fill="midnightblue" stroke="midnightblue" points="388.936,-506.818 378.344,-506.569 386.469,-513.369 388.936,-506.818"/>
</g>
<!-- Node25 -->
<g id="node23" class="node"><title>Node25</title>
<g id="a_node23"><a xlink:href="mqtt__rpc_8h.html#a29c5b0a22ebb1032363e20a1eb228d88" target="_top" xlink:title="mqtt_rpc_mem">
<polygon fill="white" stroke="black" points="464,-506.5 464,-525.5 546,-525.5 546,-506.5 464,-506.5"/>
<text text-anchor="middle" x="505" y="-513.5" font-family="Helvetica,sans-Serif" font-size="10.00">mqtt_rpc_mem</text>
</a>
</g>
</g>
<!-- Node13&#45;&gt;Node25 -->
<g id="edge27" class="edge"><title>Node13&#45;&gt;Node25</title>
<path fill="none" stroke="midnightblue" d="M400.232,-503.197C420.863,-505.743 444.423,-508.65 463.874,-511.049"/>
<polygon fill="midnightblue" stroke="midnightblue" points="400.413,-499.693 390.06,-501.942 399.556,-506.641 400.413,-499.693"/>
</g>
<!-- Node26 -->
<g id="node24" class="node"><title>Node26</title>
<g id="a_node24"><a xlink:href="mqtt__rpc_8h.html#a44921185fc90cf7507f2eaf4fa48861a" target="_top" xlink:title="mqtt_rpc_open_until">
<polygon fill="white" stroke="black" points="453,-468.5 453,-487.5 557,-487.5 557,-468.5 453,-468.5"/>
<text text-anchor="middle" x="505" y="-475.5" font-family="Helvetica,sans-Serif" font-size="10.00">mqtt_rpc_open_until</text>
</a>
</g>
</g>
<!-- Node13&#45;&gt;Node26 -->
<g id="edge28" class="edge"><title>Node13&#45;&gt;Node26</title>
<path fill="none" stroke="midnightblue" d="M400.26,-490.799C417.101,-488.721 435.891,-486.403 452.803,-484.317"/>
<polygon fill="midnightblue" stroke="midnightblue" points="399.556,-487.359 390.06,-492.058 400.413,-494.307 399.556,-487.359"/>
</g>
<!-- Node27 -->
<g id="node25" class="node"><title>Node27</title>
<g id="a_node25"><a xlink:href="mqtt__rpc_8h.html#a37edc063b829348999e78221ed0f247e" target="_top" xlink:title="mqtt_rpc_open_until\l_delta">
<polygon fill="white" stroke="black" points="453,-419 453,-449 557,-449 557,-419 453,-419"/>
<text text-anchor="start" x="461" y="-437" font-family="Helvetica,sans-Serif" font-size="10.00">mqtt_rpc_open_until</text>
<text text-anchor="middle" x="505" y="-426" font-family="Helvetica,sans-Serif" font-size="10.00">_delta</text>
</a>
</g>
</g>
<!-- Node13&#45;&gt;Node27 -->
<g id="edge29" class="edge"><title>Node13&#45;&gt;Node27</title>
<path fill="none" stroke="midnightblue" d="M387.995,-483.796C392.75,-481.945 397.515,-479.992 402,-478 418.534,-470.657 421.509,-466.441 438,-459 445.595,-455.573 453.811,-452.203 461.784,-449.101"/>
<polygon fill="midnightblue" stroke="midnightblue" points="386.469,-480.631 378.344,-487.431 388.936,-487.182 386.469,-480.631"/>
</g>
<!-- Node28 -->
<g id="node26" class="node"><title>Node28</title>
<g id="a_node26"><a xlink:href="mqtt__rpc_8h.html#a0e5c92a93eaf9b2e3c2cd98c0fcbe65f" target="_top" xlink:title="mqtt_rpc_ping">
<polygon fill="white" stroke="black" points="466,-380.5 466,-399.5 544,-399.5 544,-380.5 466,-380.5"/>
<text text-anchor="middle" x="505" y="-387.5" font-family="Helvetica,sans-Serif" font-size="10.00">mqtt_rpc_ping</text>
</a>
</g>
</g>
<!-- Node13&#45;&gt;Node28 -->
<g id="edge30" class="edge"><title>Node13&#45;&gt;Node28</title>
<path fill="none" stroke="midnightblue" d="M395.781,-482.648C397.98,-481.237 400.072,-479.692 402,-478 428.002,-455.189 411.215,-430.887 438,-409 445.941,-402.512 455.994,-398.238 465.846,-395.424"/>
<polygon fill="midnightblue" stroke="midnightblue" points="394.016,-479.623 386.878,-487.452 397.34,-485.784 394.016,-479.623"/>
</g>
<!-- Node29 -->
<g id="node27" class="node"><title>Node29</title>
<g id="a_node27"><a xlink:href="mqtt__rpc_8h.html#aa21aaf34522e1a100a4120d9f63d2dad" target="_top" xlink:title="mqtt_rpc_reset_reason">
<polygon fill="white" stroke="black" points="447,-342.5 447,-361.5 563,-361.5 563,-342.5 447,-342.5"/>
<text text-anchor="middle" x="505" y="-349.5" font-family="Helvetica,sans-Serif" font-size="10.00">mqtt_rpc_reset_reason</text>
</a>
</g>
</g>
<!-- Node13&#45;&gt;Node29 -->
<g id="edge31" class="edge"><title>Node13&#45;&gt;Node29</title>
<path fill="none" stroke="midnightblue" d="M397.446,-482.017C399.064,-480.782 400.591,-479.446 402,-478 437.019,-442.067 401.745,-405.685 438,-371 442.049,-367.126 446.837,-364.034 451.954,-361.567"/>
<polygon fill="midnightblue" stroke="midnightblue" points="395.416,-479.157 388.745,-487.388 399.093,-485.113 395.416,-479.157"/>
</g>
<!-- Node30 -->
<g id="node28" class="node"><title>Node30</title>
<g id="a_node28"><a xlink:href="mqtt__rpc_8h.html#ae3c71a438ecea4bb271bd1586af59452" target="_top" xlink:title="mqtt_rpc_restart">
<polygon fill="white" stroke="black" points="461,-304.5 461,-323.5 549,-323.5 549,-304.5 461,-304.5"/>
<text text-anchor="middle" x="505" y="-311.5" font-family="Helvetica,sans-Serif" font-size="10.00">mqtt_rpc_restart</text>
</a>
</g>
</g>
<!-- Node13&#45;&gt;Node30 -->
<g id="edge32" class="edge"><title>Node13&#45;&gt;Node30</title>
<path fill="none" stroke="midnightblue" d="M398.142,-481.71C399.515,-480.562 400.808,-479.327 402,-478 446.376,-428.605 391.923,-380.812 438,-333 444.206,-326.561 452.44,-322.264 460.982,-319.406"/>
<polygon fill="midnightblue" stroke="midnightblue" points="395.965,-478.954 389.556,-487.391 399.827,-484.792 395.965,-478.954"/>
</g>
<!-- Node31 -->
<g id="node29" class="node"><title>Node31</title>
<g id="a_node29"><a xlink:href="mqtt__rpc_8h.html#a9d2f80fe20656d22687c0414da46fcce" target="_top" xlink:title="mqtt_rpc_rssi">
<polygon fill="white" stroke="black" points="467,-266.5 467,-285.5 543,-285.5 543,-266.5 467,-266.5"/>
<text text-anchor="middle" x="505" y="-273.5" font-family="Helvetica,sans-Serif" font-size="10.00">mqtt_rpc_rssi</text>
</a>
</g>
</g>
<!-- Node13&#45;&gt;Node31 -->
<g id="edge33" class="edge"><title>Node13&#45;&gt;Node31</title>
<path fill="none" stroke="midnightblue" d="M398.302,-481.72C399.623,-480.569 400.862,-479.331 402,-478 455.866,-414.995 381.962,-356.081 438,-295 445.497,-286.829 456.257,-282.087 466.92,-279.361"/>
<polygon fill="midnightblue" stroke="midnightblue" points="396.266,-478.872 389.992,-487.41 400.22,-484.648 396.266,-478.872"/>
</g>
<!-- Node32 -->
<g id="node30" class="node"><title>Node32</title>
<g id="a_node30"><a xlink:href="mqtt__rpc_8h.html#a5ede5df0880a2c3823a5c3757423678b" target="_top" xlink:title="mqtt_rpc_set_cron">
<polygon fill="white" stroke="black" points="456,-228.5 456,-247.5 554,-247.5 554,-228.5 456,-228.5"/>
<text text-anchor="middle" x="505" y="-235.5" font-family="Helvetica,sans-Serif" font-size="10.00">mqtt_rpc_set_cron</text>
</a>
</g>
</g>
<!-- Node13&#45;&gt;Node32 -->
<g id="edge34" class="edge"><title>Node13&#45;&gt;Node32</title>
<path fill="none" stroke="midnightblue" d="M398.359,-481.768C399.664,-480.603 400.884,-479.349 402,-478 465.421,-401.31 371.933,-331.423 438,-257 442.829,-251.561 449.103,-247.635 455.861,-244.81"/>
<polygon fill="midnightblue" stroke="midnightblue" points="396.318,-478.924 390.112,-487.511 400.319,-484.668 396.318,-478.924"/>
</g>
<!-- Node33 -->
<g id="node31" class="node"><title>Node33</title>
<g id="a_node31"><a xlink:href="mqtt__rpc_8h.html#a3384f5aa84b17fa3902e2aad318913d8" target="_top" xlink:title="mqtt_rpc_set_pwd">
<polygon fill="white" stroke="black" points="456.5,-190.5 456.5,-209.5 553.5,-209.5 553.5,-190.5 456.5,-190.5"/>
<text text-anchor="middle" x="505" y="-197.5" font-family="Helvetica,sans-Serif" font-size="10.00">mqtt_rpc_set_pwd</text>
</a>
</g>
</g>
<!-- Node13&#45;&gt;Node33 -->
<g id="edge35" class="edge"><title>Node13&#45;&gt;Node33</title>
<path fill="none" stroke="midnightblue" d="M398.4,-481.801C399.693,-480.627 400.9,-479.362 402,-478 475.013,-387.581 361.867,-306.808 438,-219 442.921,-213.324 449.417,-209.292 456.415,-206.437"/>
<polygon fill="midnightblue" stroke="midnightblue" points="396.356,-478.96 390.199,-487.582 400.389,-484.681 396.356,-478.96"/>
</g>
<!-- Node34 -->
<g id="node32" class="node"><title>Node34</title>
<g id="a_node32"><a xlink:href="mqtt__rpc_8h.html#aa3b038b94189cb8a82fdc7e5115d90c8" target="_top" xlink:title="mqtt_rpc_set_ssid">
<polygon fill="white" stroke="black" points="456.5,-152.5 456.5,-171.5 553.5,-171.5 553.5,-152.5 456.5,-152.5"/>
<text text-anchor="middle" x="505" y="-159.5" font-family="Helvetica,sans-Serif" font-size="10.00">mqtt_rpc_set_ssid</text>
</a>
</g>
</g>
<!-- Node13&#45;&gt;Node34 -->
<g id="edge36" class="edge"><title>Node13&#45;&gt;Node34</title>
<path fill="none" stroke="midnightblue" d="M398.358,-481.893C399.67,-480.693 400.891,-479.398 402,-478 484.628,-373.824 351.777,-282.22 438,-181 442.871,-175.282 449.342,-171.227 456.33,-168.364"/>
<polygon fill="midnightblue" stroke="midnightblue" points="396.169,-479.154 390.011,-487.775 400.201,-484.876 396.169,-479.154"/>
</g>
<!-- Node35 -->
<g id="node33" class="node"><title>Node35</title>
<g id="a_node33"><a xlink:href="mqtt__rpc_8h.html#a651f41878c47fd58b8ae08a49692d5d0" target="_top" xlink:title="mqtt_rpc_set_ssid_pwd">
<polygon fill="white" stroke="black" points="445,-114.5 445,-133.5 565,-133.5 565,-114.5 445,-114.5"/>
<text text-anchor="middle" x="505" y="-121.5" font-family="Helvetica,sans-Serif" font-size="10.00">mqtt_rpc_set_ssid_pwd</text>
</a>
</g>
</g>
<!-- Node13&#45;&gt;Node35 -->
<g id="edge37" class="edge"><title>Node13&#45;&gt;Node35</title>
<path fill="none" stroke="midnightblue" d="M398.383,-481.912C399.688,-480.707 400.901,-479.405 402,-478 494.257,-360.048 341.671,-257.65 438,-143 441.222,-139.166 445.162,-136.078 449.5,-133.596"/>
<polygon fill="midnightblue" stroke="midnightblue" points="396.192,-479.175 390.062,-487.816 400.243,-484.883 396.192,-479.175"/>
</g>
<!-- Node36 -->
<g id="node34" class="node"><title>Node36</title>
<g id="a_node34"><a xlink:href="mqtt__rpc_8h.html#a93655988d0f1c02f278b77ab1bb57573" target="_top" xlink:title="mqtt_rpc_ssid">
<polygon fill="white" stroke="black" points="466,-76.5 466,-95.5 544,-95.5 544,-76.5 466,-76.5"/>
<text text-anchor="middle" x="505" y="-83.5" font-family="Helvetica,sans-Serif" font-size="10.00">mqtt_rpc_ssid</text>
</a>
</g>
</g>
<!-- Node13&#45;&gt;Node36 -->
<g id="edge38" class="edge"><title>Node13&#45;&gt;Node36</title>
<path fill="none" stroke="midnightblue" d="M398.402,-481.927C399.702,-480.718 400.908,-479.411 402,-478 452.948,-412.13 384.778,-169.046 438,-105 444.935,-96.6548 455.279,-91.8417 465.733,-89.1041"/>
<polygon fill="midnightblue" stroke="midnightblue" points="396.211,-479.191 390.104,-487.848 400.277,-484.889 396.211,-479.191"/>
</g>
<!-- Node37 -->
<g id="node35" class="node"><title>Node37</title>
<g id="a_node35"><a xlink:href="mqtt__rpc_8h.html#ab9db71238155955bc4dfbb2c7f93c9d2" target="_top" xlink:title="mqtt_rpc_status">
<polygon fill="white" stroke="black" points="461.5,-38.5 461.5,-57.5 548.5,-57.5 548.5,-38.5 461.5,-38.5"/>
<text text-anchor="middle" x="505" y="-45.5" font-family="Helvetica,sans-Serif" font-size="10.00">mqtt_rpc_status</text>
</a>
</g>
</g>
<!-- Node13&#45;&gt;Node37 -->
<g id="edge39" class="edge"><title>Node13&#45;&gt;Node37</title>
<path fill="none" stroke="midnightblue" d="M398.419,-481.94C399.713,-480.727 400.915,-479.416 402,-478 457.771,-405.231 379.716,-137.772 438,-67 443.912,-59.8207 452.349,-55.2525 461.223,-52.3706"/>
<polygon fill="midnightblue" stroke="midnightblue" points="396.227,-479.204 390.138,-487.874 400.305,-484.894 396.227,-479.204"/>
</g>
<!-- Node38 -->
<g id="node36" class="node"><title>Node38</title>
<g id="a_node36"><a xlink:href="mqtt__rpc_8h.html#acd6cfd98c940051391eb8c0bd2bbeca9" target="_top" xlink:title="mqtt_rpc_uptime">
<polygon fill="white" stroke="black" points="460.5,-0.5 460.5,-19.5 549.5,-19.5 549.5,-0.5 460.5,-0.5"/>
<text text-anchor="middle" x="505" y="-7.5" font-family="Helvetica,sans-Serif" font-size="10.00">mqtt_rpc_uptime</text>
</a>
</g>
</g>
<!-- Node13&#45;&gt;Node38 -->
<g id="edge40" class="edge"><title>Node13&#45;&gt;Node38</title>
<path fill="none" stroke="midnightblue" d="M398.432,-481.95C399.723,-480.734 400.92,-479.42 402,-478 462.597,-398.328 374.651,-106.502 438,-29 443.66,-22.076 451.668,-17.5782 460.163,-14.6794"/>
<polygon fill="midnightblue" stroke="midnightblue" points="396.24,-479.215 390.166,-487.896 400.328,-484.898 396.24,-479.215"/>
</g>
<!-- Node39 -->
<g id="node37" class="node"><title>Node39</title>
<g id="a_node37"><a xlink:href="mqtt__rpc_8h.html#a550893f994cbbd9b6b745488f0c512ac" target="_top" xlink:title="mqtt_rpc_vdd">
<polygon fill="white" stroke="black" points="467,-924.5 467,-943.5 543,-943.5 543,-924.5 467,-924.5"/>
<text text-anchor="middle" x="505" y="-931.5" font-family="Helvetica,sans-Serif" font-size="10.00">mqtt_rpc_vdd</text>
</a>
</g>
</g>
<!-- Node13&#45;&gt;Node39 -->
<g id="edge41" class="edge"><title>Node13&#45;&gt;Node39</title>
<path fill="none" stroke="midnightblue" d="M398.414,-512.064C399.71,-513.276 400.913,-514.585 402,-516 456.248,-586.59 381.315,-846.352 438,-915 445.137,-923.643 455.931,-928.5 466.734,-931.187"/>
<polygon fill="midnightblue" stroke="midnightblue" points="400.297,-509.107 390.128,-506.134 396.222,-514.8 400.297,-509.107"/>
</g>
<!-- Node40 -->
<g id="node38" class="node"><title>Node40</title>
<g id="a_node38"><a xlink:href="mqtt__rpc_8h.html#a6c4d0371a5542aa2dc9543fc7b829436" target="_top" xlink:title="mqtt_rpc_version">
<polygon fill="white" stroke="black" points="459,-886.5 459,-905.5 551,-905.5 551,-886.5 459,-886.5"/>
<text text-anchor="middle" x="505" y="-893.5" font-family="Helvetica,sans-Serif" font-size="10.00">mqtt_rpc_version</text>
</a>
</g>
</g>
<!-- Node13&#45;&gt;Node40 -->
<g id="edge42" class="edge"><title>Node13&#45;&gt;Node40</title>
<path fill="none" stroke="midnightblue" d="M398.397,-512.077C399.698,-513.285 400.906,-514.59 402,-516 500.851,-643.385 334.751,-753.153 438,-877 443.421,-883.502 450.912,-887.86 458.907,-890.761"/>
<polygon fill="midnightblue" stroke="midnightblue" points="400.267,-509.112 390.091,-506.161 396.206,-514.814 400.267,-509.112"/>
</g>
<!-- Node41 -->
<g id="node39" class="node"><title>Node41</title>
<g id="a_node39"><a xlink:href="mqtt__rpc_8h.html#a482a5f229bd1fac0511a057bbf4363f2" target="_top" xlink:title="mqtt_rpc_wifi_status">
<polygon fill="white" stroke="black" points="451.5,-848.5 451.5,-867.5 558.5,-867.5 558.5,-848.5 451.5,-848.5"/>
<text text-anchor="middle" x="505" y="-855.5" font-family="Helvetica,sans-Serif" font-size="10.00">mqtt_rpc_wifi_status</text>
</a>
</g>
</g>
<!-- Node13&#45;&gt;Node41 -->
<g id="edge43" class="edge"><title>Node13&#45;&gt;Node41</title>
<path fill="none" stroke="midnightblue" d="M398.376,-512.094C399.682,-513.297 400.898,-514.597 402,-516 491.215,-629.6 344.864,-728.592 438,-839 441.69,-843.375 446.317,-846.777 451.399,-849.417"/>
<polygon fill="midnightblue" stroke="midnightblue" points="400.231,-509.119 390.047,-506.196 396.186,-514.832 400.231,-509.119"/>
</g>
<!-- Node15 -->
<g id="node13" class="node"><title>Node15</title>
<g id="a_node13"><a xlink:href="en61107__request_8h.html#acd43242675a3f25e7c3b530eac9d8b3a" target="_top" xlink:title="en61107_request_init">
<polygon fill="white" stroke="black" points="608.5,-810.5 608.5,-829.5 717.5,-829.5 717.5,-810.5 608.5,-810.5"/>
<text text-anchor="middle" x="663" y="-817.5" font-family="Helvetica,sans-Serif" font-size="10.00">en61107_request_init</text>
</a>
</g>
</g>
<!-- Node14&#45;&gt;Node15 -->
<g id="edge15" class="edge"><title>Node14&#45;&gt;Node15</title>
<path fill="none" stroke="midnightblue" d="M574.751,-820C585.987,-820 597.483,-820 608.288,-820"/>
<polygon fill="midnightblue" stroke="midnightblue" points="574.533,-816.5 564.532,-820 574.532,-823.5 574.533,-816.5"/>
</g>
<!-- Node18 -->
<g id="node16" class="node"><title>Node18</title>
<g id="a_node16"><a xlink:href="kmp__request_8h.html#a048753ff9d6b448e2dcd8c85db0d6873" target="_top" xlink:title="kmp_request_init">
<polygon fill="white" stroke="black" points="754,-737.5 754,-756.5 845,-756.5 845,-737.5 754,-737.5"/>
<text text-anchor="middle" x="799.5" y="-744.5" font-family="Helvetica,sans-Serif" font-size="10.00">kmp_request_init</text>
</a>
</g>
</g>
<!-- Node17&#45;&gt;Node18 -->
<g id="edge18" class="edge"><title>Node17&#45;&gt;Node18</title>
<path fill="none" stroke="midnightblue" d="M723.725,-747C733.861,-747 744.228,-747 753.889,-747"/>
<polygon fill="midnightblue" stroke="midnightblue" points="723.701,-743.5 713.701,-747 723.701,-750.5 723.701,-743.5"/>
</g>
<!-- Node19&#45;&gt;Node17 -->
<g id="edge20" class="edge"><title>Node19&#45;&gt;Node17</title>
<path fill="none" stroke="midnightblue" d="M551.952,-718.077C575.496,-724.265 603.758,-731.693 625.745,-737.471"/>
<polygon fill="midnightblue" stroke="midnightblue" points="552.743,-714.666 542.182,-715.509 550.964,-721.436 552.743,-714.666"/>
</g>
<!-- Node20 -->
<g id="node18" class="node"><title>Node20</title>
<g id="a_node18"><a xlink:href="kmp__request_8c.html#a0977a4640a97d389ac3b0fef0ba7a9b6" target="_top" xlink:title="kmp_receive_timeout\l_timer_func">
<polygon fill="white" stroke="black" points="608,-688 608,-718 718,-718 718,-688 608,-688"/>
<text text-anchor="start" x="616" y="-706" font-family="Helvetica,sans-Serif" font-size="10.00">kmp_receive_timeout</text>
<text text-anchor="middle" x="663" y="-695" font-family="Helvetica,sans-Serif" font-size="10.00">_timer_func</text>
</a>
</g>
</g>
<!-- Node19&#45;&gt;Node20 -->
<g id="edge21" class="edge"><title>Node19&#45;&gt;Node20</title>
<path fill="none" stroke="midnightblue" d="M564.628,-698.311C578.793,-697.758 593.867,-697.501 607.817,-697.58"/>
<polygon fill="midnightblue" stroke="midnightblue" points="564.337,-694.821 554.504,-698.766 564.651,-701.813 564.337,-694.821"/>
</g>
<!-- Node20&#45;&gt;Node19 -->
<g id="edge22" class="edge"><title>Node20&#45;&gt;Node19</title>
<path fill="none" stroke="midnightblue" d="M597.489,-710.9C583.113,-711.371 568.107,-711.54 554.504,-711.369"/>
<polygon fill="midnightblue" stroke="midnightblue" points="597.958,-714.385 607.817,-710.504 597.69,-707.39 597.958,-714.385"/>
</g>
<!-- Node42&#45;&gt;Node5 -->
<g id="edge45" class="edge"><title>Node42&#45;&gt;Node5</title>
<path fill="none" stroke="midnightblue" d="M245.515,-598.112C250.475,-596.243 255.397,-594.199 260,-592 288.579,-578.347 318.962,-556.921 335.494,-544.596"/>
<polygon fill="midnightblue" stroke="midnightblue" points="244.26,-594.843 236.007,-601.486 246.601,-601.44 244.26,-594.843"/>
</g>
<!-- Node42&#45;&gt;Node6 -->
<g id="edge46" class="edge"><title>Node42&#45;&gt;Node6</title>
<path fill="none" stroke="midnightblue" d="M258.743,-611C271.626,-611 285.221,-611 297.809,-611"/>
<polygon fill="midnightblue" stroke="midnightblue" points="258.597,-607.5 248.597,-611 258.597,-614.5 258.597,-607.5"/>
</g>
<!-- Node43&#45;&gt;Node5 -->
<g id="edge48" class="edge"><title>Node43&#45;&gt;Node5</title>
<path fill="none" stroke="midnightblue" d="M248.536,-560.888C268.87,-555.596 292.371,-549.479 311.423,-544.52"/>
<polygon fill="midnightblue" stroke="midnightblue" points="247.638,-557.505 238.842,-563.411 249.401,-564.279 247.638,-557.505"/>
</g>
<!-- Node43&#45;&gt;Node6 -->
<g id="edge49" class="edge"><title>Node43&#45;&gt;Node6</title>
<path fill="none" stroke="midnightblue" d="M248.536,-585.112C268.87,-590.404 292.371,-596.521 311.423,-601.48"/>
<polygon fill="midnightblue" stroke="midnightblue" points="249.401,-581.721 238.842,-582.589 247.638,-588.495 249.401,-581.721"/>
</g>
<!-- Node44&#45;&gt;Node5 -->
<g id="edge51" class="edge"><title>Node44&#45;&gt;Node5</title>
<path fill="none" stroke="midnightblue" d="M249.862,-472.513C253.392,-474.158 256.814,-475.982 260,-478 279.655,-490.446 276.558,-503.224 296,-516 301.703,-519.748 308.243,-522.878 314.716,-525.445"/>
<polygon fill="midnightblue" stroke="midnightblue" points="250.931,-469.168 240.353,-468.566 248.248,-475.633 250.931,-469.168"/>
</g>
<!-- Node45 -->
<g id="node43" class="node"><title>Node45</title>
<g id="a_node43"><a xlink:href="mqtt_8c.html#a86f8adfe29d6ec8bb5070fd030540d2f" target="_top" xlink:title="MQTT subscibe function. ">
<polygon fill="white" stroke="black" points="302.5,-449.5 302.5,-468.5 395.5,-468.5 395.5,-449.5 302.5,-449.5"/>
<text text-anchor="middle" x="349" y="-456.5" font-family="Helvetica,sans-Serif" font-size="10.00">MQTT_Subscribe</text>
</a>
</g>
</g>
<!-- Node44&#45;&gt;Node45 -->
<g id="edge52" class="edge"><title>Node44&#45;&gt;Node45</title>
<path fill="none" stroke="midnightblue" d="M265.052,-459C277.514,-459 290.37,-459 302.13,-459"/>
<polygon fill="midnightblue" stroke="midnightblue" points="264.709,-455.5 254.709,-459 264.709,-462.5 264.709,-455.5"/>
</g>
<!-- Node46&#45;&gt;Node5 -->
<g id="edge54" class="edge"><title>Node46&#45;&gt;Node5</title>
<path fill="none" stroke="midnightblue" d="M253.849,-435.376C256.022,-436.777 258.087,-438.314 260,-440 288.038,-464.715 268.383,-490.816 296,-516 300.261,-519.886 305.381,-522.994 310.724,-525.475"/>
<polygon fill="midnightblue" stroke="midnightblue" points="255.496,-432.288 245.034,-430.619 252.172,-438.448 255.496,-432.288"/>
</g>
<!-- Node47 -->
<g id="node45" class="node"><title>Node47</title>
<g id="a_node45"><a xlink:href="mqtt_8c.html#a7f28cd912dae4c1386c10026a267b579" target="_top" xlink:title="MQTT un&#45;subscibe function. ">
<polygon fill="white" stroke="black" points="296,-411.5 296,-430.5 402,-430.5 402,-411.5 296,-411.5"/>
<text text-anchor="middle" x="349" y="-418.5" font-family="Helvetica,sans-Serif" font-size="10.00">MQTT_UnSubscribe</text>
</a>
</g>
</g>
<!-- Node46&#45;&gt;Node47 -->
<g id="edge55" class="edge"><title>Node46&#45;&gt;Node47</title>
<path fill="none" stroke="midnightblue" d="M270.152,-421C278.755,-421 287.448,-421 295.751,-421"/>
<polygon fill="midnightblue" stroke="midnightblue" points="270.123,-417.5 260.123,-421 270.123,-424.5 270.123,-417.5"/>
</g>
</g>
</svg>
