<?xml version="1.0" encoding="UTF-8" standalone="no"?>
<!DOCTYPE svg PUBLIC "-//W3C//DTD SVG 1.1//EN"
 "http://www.w3.org/Graphics/SVG/1.1/DTD/svg11.dtd">
<!-- Generated by graphviz version 2.38.0 (20140413.2041)
 -->
<!-- Title: mqtt_tcpclient_connect_cb Pages: 1 -->
<svg width="765pt" height="864pt"
 viewBox="0.00 0.00 765.00 864.00" xmlns="http://www.w3.org/2000/svg" xmlns:xlink="http://www.w3.org/1999/xlink">
<g id="graph0" class="graph" transform="scale(1 1) rotate(0) translate(4 860)">
<title>mqtt_tcpclient_connect_cb</title>
<polygon fill="white" stroke="none" points="-4,4 -4,-860 761,-860 761,4 -4,4"/>
<!-- Node377 -->
<g id="node1" class="node"><title>Node377</title>
<polygon fill="#bfbfbf" stroke="black" points="0,-608.5 0,-627.5 134,-627.5 134,-608.5 0,-608.5"/>
<text text-anchor="middle" x="67" y="-615.5" font-family="Helvetica,sans-Serif" font-size="10.00">mqtt_tcpclient_connect_cb</text>
</g>
<!-- Node378 -->
<g id="node2" class="node"><title>Node378</title>
<g id="a_node2"><a xlink:href="esp-open-lwip_2include_2lwip_2app_2espconn_8h.html#af43c93f2f0cc14a1c1e95c38e9469b9f" target="_top" xlink:title="espconn_regist_disconcb">
<polygon fill="white" stroke="black" points="170.5,-836.5 170.5,-855.5 297.5,-855.5 297.5,-836.5 170.5,-836.5"/>
<text text-anchor="middle" x="234" y="-843.5" font-family="Helvetica,sans-Serif" font-size="10.00">espconn_regist_disconcb</text>
</a>
</g>
</g>
<!-- Node377&#45;&gt;Node378 -->
<g id="edge1" class="edge"><title>Node377&#45;&gt;Node378</title>
<path fill="none" stroke="midnightblue" d="M69.827,-627.575C76.6254,-660.552 103.57,-770.495 170,-827 171.98,-828.684 174.105,-830.219 176.335,-831.617"/>
<polygon fill="midnightblue" stroke="midnightblue" points="174.883,-834.808 185.362,-836.366 178.141,-828.613 174.883,-834.808"/>
</g>
<!-- Node379 -->
<g id="node3" class="node"><title>Node379</title>
<g id="a_node3"><a xlink:href="esp-open-lwip_2include_2lwip_2app_2espconn_8h.html#a56d063a430d96d20b4ea5e28ba41011c" target="_top" xlink:title="espconn_regist_recvcb">
<polygon fill="white" stroke="black" points="175.5,-798.5 175.5,-817.5 292.5,-817.5 292.5,-798.5 175.5,-798.5"/>
<text text-anchor="middle" x="234" y="-805.5" font-family="Helvetica,sans-Serif" font-size="10.00">espconn_regist_recvcb</text>
</a>
</g>
</g>
<!-- Node377&#45;&gt;Node379 -->
<g id="edge2" class="edge"><title>Node377&#45;&gt;Node379</title>
<path fill="none" stroke="midnightblue" d="M71.018,-627.833C80.4967,-657.052 112.511,-744.111 170,-789 172.321,-790.813 174.814,-792.453 177.42,-793.937"/>
<polygon fill="midnightblue" stroke="midnightblue" points="176.108,-797.191 186.633,-798.406 179.163,-790.892 176.108,-797.191"/>
</g>
<!-- Node380 -->
<g id="node4" class="node"><title>Node380</title>
<g id="a_node4"><a xlink:href="esp-open-lwip_2include_2lwip_2app_2espconn_8h.html#a438ded04b3f8a70948fcf8c551bce179" target="_top" xlink:title="espconn_regist_sentcb">
<polygon fill="white" stroke="black" points="175.5,-760.5 175.5,-779.5 292.5,-779.5 292.5,-760.5 175.5,-760.5"/>
<text text-anchor="middle" x="234" y="-767.5" font-family="Helvetica,sans-Serif" font-size="10.00">espconn_regist_sentcb</text>
</a>
</g>
</g>
<!-- Node377&#45;&gt;Node380 -->
<g id="edge3" class="edge"><title>Node377&#45;&gt;Node380</title>
<path fill="none" stroke="midnightblue" d="M72.6887,-627.694C85.0397,-652.201 120.926,-717.085 170,-751 172.908,-753.009 176.032,-754.811 179.28,-756.425"/>
<polygon fill="midnightblue" stroke="midnightblue" points="178.109,-759.732 188.676,-760.495 180.891,-753.308 178.109,-759.732"/>
</g>
<!-- Node381 -->
<g id="node5" class="node"><title>Node381</title>
<g id="a_node5"><a xlink:href="sdk_2include_2espconn_8h.html#a24a882073dc819568e90a962299ca530" target="_top" xlink:title="espconn_secure_send">
<polygon fill="white" stroke="black" points="177,-722.5 177,-741.5 291,-741.5 291,-722.5 177,-722.5"/>
<text text-anchor="middle" x="234" y="-729.5" font-family="Helvetica,sans-Serif" font-size="10.00">espconn_secure_send</text>
</a>
</g>
</g>
<!-- Node377&#45;&gt;Node381 -->
<g id="edge4" class="edge"><title>Node377&#45;&gt;Node381</title>
<path fill="none" stroke="midnightblue" d="M75.6443,-627.608C91.3178,-646.678 129.082,-689.496 170,-713 173.733,-715.145 177.733,-717.069 181.839,-718.793"/>
<polygon fill="midnightblue" stroke="midnightblue" points="180.948,-722.198 191.54,-722.457 183.422,-715.649 180.948,-722.198"/>
</g>
<!-- Node382 -->
<g id="node6" class="node"><title>Node382</title>
<g id="a_node6"><a xlink:href="espconn_8c.html#acd3f1a74cab83e02797bdb8d22b8f732" target="_top" xlink:title="espconn_send">
<polygon fill="white" stroke="black" points="194,-684.5 194,-703.5 274,-703.5 274,-684.5 194,-684.5"/>
<text text-anchor="middle" x="234" y="-691.5" font-family="Helvetica,sans-Serif" font-size="10.00">espconn_send</text>
</a>
</g>
</g>
<!-- Node377&#45;&gt;Node382 -->
<g id="edge5" class="edge"><title>Node377&#45;&gt;Node382</title>
<path fill="none" stroke="midnightblue" d="M85.4115,-627.602C105.498,-638.508 139.66,-656.534 170,-670 178.472,-673.76 187.732,-677.491 196.481,-680.85"/>
<polygon fill="midnightblue" stroke="midnightblue" points="195.481,-684.214 206.072,-684.467 197.951,-677.664 195.481,-684.214"/>
</g>
<!-- Node383 -->
<g id="node7" class="node"><title>Node383</title>
<g id="a_node7"><a xlink:href="mqtt__msg_8h.html#a978c9ffc0dda04260bdf808da49f7ba0" target="_top" xlink:title="mqtt_get_id">
<polygon fill="white" stroke="black" points="375.5,-570.5 375.5,-589.5 443.5,-589.5 443.5,-570.5 375.5,-570.5"/>
<text text-anchor="middle" x="409.5" y="-577.5" font-family="Helvetica,sans-Serif" font-size="10.00">mqtt_get_id</text>
</a>
</g>
</g>
<!-- Node377&#45;&gt;Node383 -->
<g id="edge6" class="edge"><title>Node377&#45;&gt;Node383</title>
<path fill="none" stroke="midnightblue" d="M74.4689,-608.283C88.78,-587.781 125.414,-540.547 170,-523 222.937,-502.166 244.981,-502.376 298,-523 318.229,-530.869 315.238,-545.087 334,-556 343.713,-561.649 354.923,-566.153 365.651,-569.662"/>
<polygon fill="midnightblue" stroke="midnightblue" points="364.724,-573.038 375.311,-572.609 366.767,-566.343 364.724,-573.038"/>
</g>
<!-- Node385 -->
<g id="node9" class="node"><title>Node385</title>
<g id="a_node9"><a xlink:href="mqtt__msg_8h.html#a6e8d943227c43545d9a0e253bfe4febd" target="_top" xlink:title="mqtt_get_type">
<polygon fill="white" stroke="black" points="540,-532.5 540,-551.5 619,-551.5 619,-532.5 540,-532.5"/>
<text text-anchor="middle" x="579.5" y="-539.5" font-family="Helvetica,sans-Serif" font-size="10.00">mqtt_get_type</text>
</a>
</g>
</g>
<!-- Node377&#45;&gt;Node385 -->
<g id="edge9" class="edge"><title>Node377&#45;&gt;Node385</title>
<path fill="none" stroke="midnightblue" d="M97.2895,-627.572C167.505,-648.81 349.642,-693.699 485,-637 522.144,-621.441 551.995,-583.136 567.304,-560.199"/>
<polygon fill="midnightblue" stroke="midnightblue" points="570.31,-561.995 572.784,-551.694 564.426,-558.204 570.31,-561.995"/>
</g>
<!-- Node386 -->
<g id="node10" class="node"><title>Node386</title>
<g id="a_node10"><a xlink:href="mqtt__msg_8h.html#a5e7a532d6f04c0d443701ba44fdf2e2d" target="_top" xlink:title="mqtt_msg_connect">
<polygon fill="white" stroke="black" points="359.5,-0.5 359.5,-19.5 459.5,-19.5 459.5,-0.5 359.5,-0.5"/>
<text text-anchor="middle" x="409.5" y="-7.5" font-family="Helvetica,sans-Serif" font-size="10.00">mqtt_msg_connect</text>
</a>
</g>
</g>
<!-- Node377&#45;&gt;Node386 -->
<g id="edge10" class="edge"><title>Node377&#45;&gt;Node386</title>
<path fill="none" stroke="midnightblue" d="M68.7224,-608.346C72.1268,-569.884 89.9519,-426.067 170,-352 213.557,-311.697 259.592,-359.237 298,-314 380.632,-216.674 249.491,-124.701 334,-29 338.349,-24.0755 343.779,-20.3422 349.714,-17.5241"/>
<polygon fill="midnightblue" stroke="midnightblue" points="351.297,-20.6656 359.374,-13.8095 348.784,-14.132 351.297,-20.6656"/>
</g>
<!-- Node391 -->
<g id="node15" class="node"><title>Node391</title>
<g id="a_node15"><a xlink:href="mqtt__msg_8h.html#ad957ce62c72a7be1d0bea7b6be191b70" target="_top" xlink:title="mqtt_msg_init">
<polygon fill="white" stroke="black" points="195,-285.5 195,-304.5 273,-304.5 273,-285.5 195,-285.5"/>
<text text-anchor="middle" x="234" y="-292.5" font-family="Helvetica,sans-Serif" font-size="10.00">mqtt_msg_init</text>
</a>
</g>
</g>
<!-- Node377&#45;&gt;Node391 -->
<g id="edge15" class="edge"><title>Node377&#45;&gt;Node391</title>
<path fill="none" stroke="midnightblue" d="M68.4286,-608.49C70.7657,-567.845 85.2413,-406.798 170,-319 174.428,-314.413 179.824,-310.692 185.575,-307.675"/>
<polygon fill="midnightblue" stroke="midnightblue" points="187.15,-310.804 194.817,-303.492 184.263,-304.427 187.15,-310.804"/>
</g>
<!-- Node392 -->
<g id="node16" class="node"><title>Node392</title>
<g id="a_node16"><a xlink:href="mqtt_8c.html#a91eaa7f7226c0c2dbe4712557dd5937f" target="_top" xlink:title="mqtt_tcpclient_discon_cb">
<polygon fill="white" stroke="black" points="170,-532.5 170,-551.5 298,-551.5 298,-532.5 170,-532.5"/>
<text text-anchor="middle" x="234" y="-539.5" font-family="Helvetica,sans-Serif" font-size="10.00">mqtt_tcpclient_discon_cb</text>
</a>
</g>
</g>
<!-- Node377&#45;&gt;Node392 -->
<g id="edge16" class="edge"><title>Node377&#45;&gt;Node392</title>
<path fill="none" stroke="midnightblue" d="M85.4115,-608.398C105.498,-597.492 139.66,-579.466 170,-566 178.472,-562.24 187.732,-558.509 196.481,-555.15"/>
<polygon fill="midnightblue" stroke="midnightblue" points="197.951,-558.336 206.072,-551.533 195.481,-551.786 197.951,-558.336"/>
</g>
<!-- Node393 -->
<g id="node17" class="node"><title>Node393</title>
<g id="a_node17"><a xlink:href="user__interface_8h.html#adab1155f3a463f2b05a9bde65b37514f" target="_top" xlink:title="system_os_post">
<polygon fill="white" stroke="black" points="365,-608.5 365,-627.5 454,-627.5 454,-608.5 365,-608.5"/>
<text text-anchor="middle" x="409.5" y="-615.5" font-family="Helvetica,sans-Serif" font-size="10.00">system_os_post</text>
</a>
</g>
</g>
<!-- Node377&#45;&gt;Node393 -->
<g id="edge60" class="edge"><title>Node377&#45;&gt;Node393</title>
<path fill="none" stroke="midnightblue" d="M109.444,-608.489C127.876,-604.724 149.911,-600.855 170,-599 226.648,-593.769 241.317,-594.162 298,-599 316.651,-600.592 336.881,-603.669 354.873,-606.89"/>
<polygon fill="midnightblue" stroke="midnightblue" points="354.427,-610.367 364.896,-608.74 355.697,-603.483 354.427,-610.367"/>
</g>
<!-- Node394 -->
<g id="node18" class="node"><title>Node394</title>
<g id="a_node18"><a xlink:href="mqtt_8c.html#af470856972320b9c02da9fcb6f419fd0" target="_top" xlink:title="Client received callback function. ">
<polygon fill="white" stroke="black" points="183,-361.5 183,-380.5 285,-380.5 285,-361.5 183,-361.5"/>
<text text-anchor="middle" x="234" y="-368.5" font-family="Helvetica,sans-Serif" font-size="10.00">mqtt_tcpclient_recv</text>
</a>
</g>
</g>
<!-- Node377&#45;&gt;Node394 -->
<g id="edge18" class="edge"><title>Node377&#45;&gt;Node394</title>
<path fill="none" stroke="midnightblue" d="M74.4682,-608.317C99.2135,-571.274 188.124,-438.178 220.822,-389.23"/>
<polygon fill="midnightblue" stroke="midnightblue" points="223.932,-390.875 226.577,-380.616 218.111,-386.987 223.932,-390.875"/>
</g>
<!-- Node412 -->
<g id="node36" class="node"><title>Node412</title>
<g id="a_node36"><a xlink:href="mqtt_8c.html#aa5738eea4ea5cc1152e55c28280a8956" target="_top" xlink:title="Client send over callback function. ">
<polygon fill="white" stroke="black" points="175,-608.5 175,-627.5 293,-627.5 293,-608.5 175,-608.5"/>
<text text-anchor="middle" x="234" y="-615.5" font-family="Helvetica,sans-Serif" font-size="10.00">mqtt_tcpclient_sent_cb</text>
</a>
</g>
</g>
<!-- Node377&#45;&gt;Node412 -->
<g id="edge58" class="edge"><title>Node377&#45;&gt;Node412</title>
<path fill="none" stroke="midnightblue" d="M134.161,-618C144.247,-618 154.673,-618 164.802,-618"/>
<polygon fill="midnightblue" stroke="midnightblue" points="164.809,-621.5 174.809,-618 164.809,-614.5 164.809,-621.5"/>
</g>
<!-- Node384 -->
<g id="node8" class="node"><title>Node384</title>
<g id="a_node8"><a xlink:href="mqtt__msg_8h.html#a2507d51683ee1cda6b2b584c16b4f695" target="_top" xlink:title="mqtt_get_qos">
<polygon fill="white" stroke="black" points="677.5,-494.5 677.5,-513.5 753.5,-513.5 753.5,-494.5 677.5,-494.5"/>
<text text-anchor="middle" x="715.5" y="-501.5" font-family="Helvetica,sans-Serif" font-size="10.00">mqtt_get_qos</text>
</a>
</g>
</g>
<!-- Node383&#45;&gt;Node384 -->
<g id="edge7" class="edge"><title>Node383&#45;&gt;Node384</title>
<path fill="none" stroke="midnightblue" d="M443.765,-582.806C489.224,-585.412 572.576,-585.763 638,-561 661.049,-552.276 683.148,-534.437 697.616,-521.026"/>
<polygon fill="midnightblue" stroke="midnightblue" points="700.411,-523.194 705.201,-513.744 695.563,-518.144 700.411,-523.194"/>
</g>
<!-- Node383&#45;&gt;Node385 -->
<g id="edge8" class="edge"><title>Node383&#45;&gt;Node385</title>
<path fill="none" stroke="midnightblue" d="M443.691,-572.492C468.305,-566.925 502.24,-559.249 529.905,-552.992"/>
<polygon fill="midnightblue" stroke="midnightblue" points="530.803,-556.377 539.784,-550.757 529.259,-549.55 530.803,-556.377"/>
</g>
<!-- Node387 -->
<g id="node11" class="node"><title>Node387</title>
<g id="a_node11"><a xlink:href="mqtt__msg_8c.html#a207c99e2058080b97c21a348d693a560" target="_top" xlink:title="append_string">
<polygon fill="white" stroke="black" points="541,-0.5 541,-19.5 618,-19.5 618,-0.5 541,-0.5"/>
<text text-anchor="middle" x="579.5" y="-7.5" font-family="Helvetica,sans-Serif" font-size="10.00">append_string</text>
</a>
</g>
</g>
<!-- Node386&#45;&gt;Node387 -->
<g id="edge11" class="edge"><title>Node386&#45;&gt;Node387</title>
<path fill="none" stroke="midnightblue" d="M459.544,-10C481.951,-10 508.398,-10 530.658,-10"/>
<polygon fill="midnightblue" stroke="midnightblue" points="530.886,-13.5001 540.886,-10 530.886,-6.5001 530.886,-13.5001"/>
</g>
<!-- Node388 -->
<g id="node12" class="node"><title>Node388</title>
<g id="a_node12"><a xlink:href="mqtt__msg_8c.html#a9a2fb8c67ff4b104dd46e72c9e97b710" target="_top" xlink:title="fail_message">
<polygon fill="white" stroke="black" points="542.5,-152.5 542.5,-171.5 616.5,-171.5 616.5,-152.5 542.5,-152.5"/>
<text text-anchor="middle" x="579.5" y="-159.5" font-family="Helvetica,sans-Serif" font-size="10.00">fail_message</text>
</a>
</g>
</g>
<!-- Node386&#45;&gt;Node388 -->
<g id="edge12" class="edge"><title>Node386&#45;&gt;Node388</title>
<path fill="none" stroke="midnightblue" d="M459.812,-15.1045C469.068,-18.0064 478.016,-22.3978 485,-29 523.611,-65.5009 483.679,-105.181 521,-143 524.464,-146.51 528.589,-149.372 533.016,-151.705"/>
<polygon fill="midnightblue" stroke="midnightblue" points="531.848,-155.013 542.414,-155.79 534.638,-148.593 531.848,-155.013"/>
</g>
<!-- Node389 -->
<g id="node13" class="node"><title>Node389</title>
<g id="a_node13"><a xlink:href="mqtt__msg_8c.html#a356949afe8a334d5e91bddb4b2794921" target="_top" xlink:title="fini_message">
<polygon fill="white" stroke="black" points="542.5,-76.5 542.5,-95.5 616.5,-95.5 616.5,-76.5 542.5,-76.5"/>
<text text-anchor="middle" x="579.5" y="-83.5" font-family="Helvetica,sans-Serif" font-size="10.00">fini_message</text>
</a>
</g>
</g>
<!-- Node386&#45;&gt;Node389 -->
<g id="edge13" class="edge"><title>Node386&#45;&gt;Node389</title>
<path fill="none" stroke="midnightblue" d="M456.909,-19.5558C466.375,-22.1351 476.143,-25.27 485,-29 511.35,-40.0967 539.009,-57.8271 557.345,-70.5674"/>
<polygon fill="midnightblue" stroke="midnightblue" points="555.365,-73.454 565.551,-76.3699 559.407,-67.7386 555.365,-73.454"/>
</g>
<!-- Node390 -->
<g id="node14" class="node"><title>Node390</title>
<g id="a_node14"><a xlink:href="mqtt__msg_8c.html#aae7c66cc577ac90e9535edac4abc068c" target="_top" xlink:title="init_message">
<polygon fill="white" stroke="black" points="542.5,-114.5 542.5,-133.5 616.5,-133.5 616.5,-114.5 542.5,-114.5"/>
<text text-anchor="middle" x="579.5" y="-121.5" font-family="Helvetica,sans-Serif" font-size="10.00">init_message</text>
</a>
</g>
</g>
<!-- Node386&#45;&gt;Node390 -->
<g id="edge14" class="edge"><title>Node386&#45;&gt;Node390</title>
<path fill="none" stroke="midnightblue" d="M459.527,-15.9858C468.697,-18.8295 477.685,-22.9743 485,-29 513.848,-52.7641 492.994,-80.249 521,-105 524.602,-108.183 528.751,-110.835 533.137,-113.045"/>
<polygon fill="midnightblue" stroke="midnightblue" points="531.802,-116.28 542.374,-116.986 534.55,-109.842 531.802,-116.28"/>
</g>
<!-- Node392&#45;&gt;Node393 -->
<g id="edge17" class="edge"><title>Node392&#45;&gt;Node393</title>
<path fill="none" stroke="midnightblue" d="M267.184,-551.608C277.423,-555.35 288.538,-560.16 298,-566 316.47,-577.4 314.909,-588.674 334,-599 340.538,-602.536 347.757,-605.433 355.051,-607.802"/>
<polygon fill="midnightblue" stroke="midnightblue" points="354.407,-611.26 364.987,-610.714 356.376,-604.543 354.407,-611.26"/>
</g>
<!-- Node394&#45;&gt;Node383 -->
<g id="edge21" class="edge"><title>Node394&#45;&gt;Node383</title>
<path fill="none" stroke="midnightblue" d="M240.072,-380.593C260.019,-418.305 332.073,-554.392 334,-556 343.037,-563.543 354.488,-568.729 365.685,-572.29"/>
<polygon fill="midnightblue" stroke="midnightblue" points="364.818,-575.682 375.393,-575.019 366.713,-568.943 364.818,-575.682"/>
</g>
<!-- Node394&#45;&gt;Node384 -->
<g id="edge20" class="edge"><title>Node394&#45;&gt;Node384</title>
<path fill="none" stroke="midnightblue" d="M239.82,-380.642C251.936,-403.678 286.15,-461.72 334,-485 391.425,-512.938 578.718,-509.539 667.282,-506.182"/>
<polygon fill="midnightblue" stroke="midnightblue" points="667.469,-509.678 677.323,-505.786 667.192,-502.683 667.469,-509.678"/>
</g>
<!-- Node394&#45;&gt;Node385 -->
<g id="edge19" class="edge"><title>Node394&#45;&gt;Node385</title>
<path fill="none" stroke="midnightblue" d="M238.201,-380.713C247.737,-407.923 278.776,-485.049 334,-518 394.092,-553.855 477.581,-553.611 529.798,-548.81"/>
<polygon fill="midnightblue" stroke="midnightblue" points="530.211,-552.287 539.808,-547.799 529.507,-545.322 530.211,-552.287"/>
</g>
<!-- Node394&#45;&gt;Node393 -->
<g id="edge57" class="edge"><title>Node394&#45;&gt;Node393</title>
<path fill="none" stroke="midnightblue" d="M238.938,-380.713C256.211,-423.231 324.821,-591.183 334,-599 340.074,-604.172 347.372,-607.965 354.992,-610.741"/>
<polygon fill="midnightblue" stroke="midnightblue" points="354.161,-614.147 364.748,-613.74 356.218,-607.456 354.161,-614.147"/>
</g>
<!-- Node395 -->
<g id="node19" class="node"><title>Node395</title>
<g id="a_node19"><a xlink:href="sdk_2include_2espconn_8h.html#aaa239bcd4abe60ed2e6e1688c9b1acfd" target="_top" xlink:title="espconn_secure_disconnect">
<polygon fill="white" stroke="black" points="339.5,-266.5 339.5,-285.5 479.5,-285.5 479.5,-266.5 339.5,-266.5"/>
<text text-anchor="middle" x="409.5" y="-273.5" font-family="Helvetica,sans-Serif" font-size="10.00">espconn_secure_disconnect</text>
</a>
</g>
</g>
<!-- Node394&#45;&gt;Node395 -->
<g id="edge22" class="edge"><title>Node394&#45;&gt;Node395</title>
<path fill="none" stroke="midnightblue" d="M271.294,-361.394C280.593,-357.843 290.169,-353.136 298,-347 320.126,-329.664 310.92,-311.045 334,-295 336.882,-292.996 339.958,-291.204 343.158,-289.6"/>
<polygon fill="midnightblue" stroke="midnightblue" points="344.67,-292.76 352.445,-285.563 341.879,-286.34 344.67,-292.76"/>
</g>
<!-- Node396 -->
<g id="node20" class="node"><title>Node396</title>
<g id="a_node20"><a xlink:href="esp-open-lwip_2include_2lwip_2app_2espconn_8h.html#a9969873c3b8ee86a34496a5166cf8bfc" target="_top" xlink:title="espconn_disconnect">
<polygon fill="white" stroke="black" points="356.5,-228.5 356.5,-247.5 462.5,-247.5 462.5,-228.5 356.5,-228.5"/>
<text text-anchor="middle" x="409.5" y="-235.5" font-family="Helvetica,sans-Serif" font-size="10.00">espconn_disconnect</text>
</a>
</g>
</g>
<!-- Node394&#45;&gt;Node396 -->
<g id="edge23" class="edge"><title>Node394&#45;&gt;Node396</title>
<path fill="none" stroke="midnightblue" d="M274.906,-361.477C283.315,-358.009 291.575,-353.32 298,-347 328.714,-316.79 301.611,-285.407 334,-257 337.914,-253.567 342.364,-250.74 347.097,-248.412"/>
<polygon fill="midnightblue" stroke="midnightblue" points="348.58,-251.586 356.479,-244.526 345.9,-245.119 348.58,-251.586"/>
</g>
<!-- Node397 -->
<g id="node21" class="node"><title>Node397</title>
<g id="a_node21"><a xlink:href="mqtt__msg_8h.html#a7f81b05d14bd1ccef30177c02f83d095" target="_top" xlink:title="mqtt_get_connect_return_code">
<polygon fill="white" stroke="black" points="334,-190.5 334,-209.5 485,-209.5 485,-190.5 334,-190.5"/>
<text text-anchor="middle" x="409.5" y="-197.5" font-family="Helvetica,sans-Serif" font-size="10.00">mqtt_get_connect_return_code</text>
</a>
</g>
</g>
<!-- Node394&#45;&gt;Node397 -->
<g id="edge24" class="edge"><title>Node394&#45;&gt;Node397</title>
<path fill="none" stroke="midnightblue" d="M276.717,-361.41C284.636,-357.968 292.236,-353.307 298,-347 337.869,-303.379 291.705,-260.273 334,-219 335.469,-217.567 337.03,-216.237 338.667,-215.004"/>
<polygon fill="midnightblue" stroke="midnightblue" points="340.739,-217.838 347.409,-209.606 337.061,-211.882 340.739,-217.838"/>
</g>
<!-- Node398 -->
<g id="node22" class="node"><title>Node398</title>
<g id="a_node22"><a xlink:href="mqtt__msg_8h.html#a909ec4dd399485d24351b39d64d7356c" target="_top" xlink:title="mqtt_get_total_length">
<polygon fill="white" stroke="black" points="354.5,-152.5 354.5,-171.5 464.5,-171.5 464.5,-152.5 354.5,-152.5"/>
<text text-anchor="middle" x="409.5" y="-159.5" font-family="Helvetica,sans-Serif" font-size="10.00">mqtt_get_total_length</text>
</a>
</g>
</g>
<!-- Node394&#45;&gt;Node398 -->
<g id="edge25" class="edge"><title>Node394&#45;&gt;Node398</title>
<path fill="none" stroke="midnightblue" d="M277.662,-361.386C285.323,-357.953 292.582,-353.301 298,-347 347.22,-289.758 281.592,-235.338 334,-181 337.214,-177.667 340.925,-174.889 344.939,-172.576"/>
<polygon fill="midnightblue" stroke="midnightblue" points="346.596,-175.664 354.136,-168.221 343.6,-169.338 346.596,-175.664"/>
</g>
<!-- Node399 -->
<g id="node23" class="node"><title>Node399</title>
<g id="a_node23"><a xlink:href="mqtt__msg_8h.html#a203f5abf687140e00cbe5ceb271ae2a9" target="_top" xlink:title="mqtt_msg_puback">
<polygon fill="white" stroke="black" points="361,-342.5 361,-361.5 458,-361.5 458,-342.5 361,-342.5"/>
<text text-anchor="middle" x="409.5" y="-349.5" font-family="Helvetica,sans-Serif" font-size="10.00">mqtt_msg_puback</text>
</a>
</g>
</g>
<!-- Node394&#45;&gt;Node399 -->
<g id="edge26" class="edge"><title>Node394&#45;&gt;Node399</title>
<path fill="none" stroke="midnightblue" d="M285.183,-365.504C305.653,-363.263 329.447,-360.657 350.643,-358.336"/>
<polygon fill="midnightblue" stroke="midnightblue" points="351.255,-361.79 360.814,-357.222 350.493,-354.832 351.255,-361.79"/>
</g>
<!-- Node401 -->
<g id="node25" class="node"><title>Node401</title>
<g id="a_node25"><a xlink:href="mqtt__msg_8h.html#a9a9bb0b46778aeeea9ed48a37de31232" target="_top" xlink:title="mqtt_msg_pubrec">
<polygon fill="white" stroke="black" points="362,-114.5 362,-133.5 457,-133.5 457,-114.5 362,-114.5"/>
<text text-anchor="middle" x="409.5" y="-121.5" font-family="Helvetica,sans-Serif" font-size="10.00">mqtt_msg_pubrec</text>
</a>
</g>
</g>
<!-- Node394&#45;&gt;Node401 -->
<g id="edge31" class="edge"><title>Node394&#45;&gt;Node401</title>
<path fill="none" stroke="midnightblue" d="M278.178,-361.403C285.705,-357.971 292.78,-353.315 298,-347 356.657,-276.037 271.386,-210.498 334,-143 339.055,-137.55 345.436,-133.573 352.327,-130.684"/>
<polygon fill="midnightblue" stroke="midnightblue" points="353.637,-133.936 361.964,-127.385 351.369,-127.313 353.637,-133.936"/>
</g>
<!-- Node402 -->
<g id="node26" class="node"><title>Node402</title>
<g id="a_node26"><a xlink:href="_meter_logger_2mqtt_2include_2queue_8h.html#a6fd5d93b4c64bd836d706777defb5f80" target="_top" xlink:title="QUEUE_Puts">
<polygon fill="white" stroke="black" points="370.5,-418.5 370.5,-437.5 448.5,-437.5 448.5,-418.5 370.5,-418.5"/>
<text text-anchor="middle" x="409.5" y="-425.5" font-family="Helvetica,sans-Serif" font-size="10.00">QUEUE_Puts</text>
</a>
</g>
</g>
<!-- Node394&#45;&gt;Node402 -->
<g id="edge36" class="edge"><title>Node394&#45;&gt;Node402</title>
<path fill="none" stroke="midnightblue" d="M257.539,-380.517C277.433,-388.709 307.334,-400.514 334,-409 342.502,-411.706 351.644,-414.294 360.511,-416.641"/>
<polygon fill="midnightblue" stroke="midnightblue" points="359.8,-420.072 370.357,-419.183 361.549,-413.295 359.8,-420.072"/>
</g>
<!-- Node405 -->
<g id="node29" class="node"><title>Node405</title>
<g id="a_node29"><a xlink:href="mqtt_8c.html#aecca483fb1f2313abb9e1a905e54d6ac" target="_top" xlink:title="deliver_publish">
<polygon fill="white" stroke="black" points="369,-456.5 369,-475.5 450,-475.5 450,-456.5 369,-456.5"/>
<text text-anchor="middle" x="409.5" y="-463.5" font-family="Helvetica,sans-Serif" font-size="10.00">deliver_publish</text>
</a>
</g>
</g>
<!-- Node394&#45;&gt;Node405 -->
<g id="edge39" class="edge"><title>Node394&#45;&gt;Node405</title>
<path fill="none" stroke="midnightblue" d="M244.756,-380.729C261.528,-396.903 297.554,-429.295 334,-447 341.767,-450.773 350.365,-453.852 358.879,-456.348"/>
<polygon fill="midnightblue" stroke="midnightblue" points="358.214,-459.793 368.78,-459.015 360.035,-453.034 358.214,-459.793"/>
</g>
<!-- Node408 -->
<g id="node32" class="node"><title>Node408</title>
<g id="a_node32"><a xlink:href="mqtt__msg_8h.html#a144bc05ddeb251c82e48ed31d2cf16fb" target="_top" xlink:title="mqtt_msg_pubrel">
<polygon fill="white" stroke="black" points="363.5,-76.5 363.5,-95.5 455.5,-95.5 455.5,-76.5 363.5,-76.5"/>
<text text-anchor="middle" x="409.5" y="-83.5" font-family="Helvetica,sans-Serif" font-size="10.00">mqtt_msg_pubrel</text>
</a>
</g>
</g>
<!-- Node394&#45;&gt;Node408 -->
<g id="edge43" class="edge"><title>Node394&#45;&gt;Node408</title>
<path fill="none" stroke="midnightblue" d="M278.636,-361.365C286.03,-357.938 292.939,-353.294 298,-347 366.141,-262.26 261.131,-185.711 334,-105 339.346,-99.0787 346.256,-94.8866 353.709,-91.9391"/>
<polygon fill="midnightblue" stroke="midnightblue" points="354.914,-95.2281 363.363,-88.8346 352.771,-88.5642 354.914,-95.2281"/>
</g>
<!-- Node409 -->
<g id="node33" class="node"><title>Node409</title>
<g id="a_node33"><a xlink:href="mqtt__msg_8h.html#a6ddf7abb65c3c9006ffb1c4cf72f4980" target="_top" xlink:title="mqtt_msg_pubcomp">
<polygon fill="white" stroke="black" points="357,-304.5 357,-323.5 462,-323.5 462,-304.5 357,-304.5"/>
<text text-anchor="middle" x="409.5" y="-311.5" font-family="Helvetica,sans-Serif" font-size="10.00">mqtt_msg_pubcomp</text>
</a>
</g>
</g>
<!-- Node394&#45;&gt;Node409 -->
<g id="edge48" class="edge"><title>Node394&#45;&gt;Node409</title>
<path fill="none" stroke="midnightblue" d="M260.153,-361.463C271.693,-357.077 285.548,-351.793 298,-347 314.021,-340.833 317.653,-338.242 334,-333 341.507,-330.593 349.516,-328.285 357.395,-326.159"/>
<polygon fill="midnightblue" stroke="midnightblue" points="358.475,-329.494 367.259,-323.569 356.698,-322.723 358.475,-329.494"/>
</g>
<!-- Node410 -->
<g id="node34" class="node"><title>Node410</title>
<g id="a_node34"><a xlink:href="mqtt__msg_8h.html#a817f94301186a136c08abe582ca82401" target="_top" xlink:title="mqtt_msg_pingresp">
<polygon fill="white" stroke="black" points="358.5,-38.5 358.5,-57.5 460.5,-57.5 460.5,-38.5 358.5,-38.5"/>
<text text-anchor="middle" x="409.5" y="-45.5" font-family="Helvetica,sans-Serif" font-size="10.00">mqtt_msg_pingresp</text>
</a>
</g>
</g>
<!-- Node394&#45;&gt;Node410 -->
<g id="edge53" class="edge"><title>Node394&#45;&gt;Node410</title>
<path fill="none" stroke="midnightblue" d="M278.736,-361.445C286.121,-358.011 293.002,-353.343 298,-347 375.653,-248.448 250.846,-160.957 334,-67 338.08,-62.3895 343.109,-58.8236 348.611,-56.0756"/>
<polygon fill="midnightblue" stroke="midnightblue" points="350.278,-59.1772 358.236,-52.1829 347.653,-52.6879 350.278,-59.1772"/>
</g>
<!-- Node411 -->
<g id="node35" class="node"><title>Node411</title>
<g id="a_node35"><a xlink:href="mqtt_8c.html#ac79b38dd4f91df357a851b3a51c6269a" target="_top" xlink:title="deliver_pingresp">
<polygon fill="white" stroke="black" points="366,-380.5 366,-399.5 453,-399.5 453,-380.5 366,-380.5"/>
<text text-anchor="middle" x="409.5" y="-387.5" font-family="Helvetica,sans-Serif" font-size="10.00">deliver_pingresp</text>
</a>
</g>
</g>
<!-- Node394&#45;&gt;Node411 -->
<g id="edge56" class="edge"><title>Node394&#45;&gt;Node411</title>
<path fill="none" stroke="midnightblue" d="M285.183,-376.496C307.314,-378.919 333.332,-381.768 355.75,-384.223"/>
<polygon fill="midnightblue" stroke="midnightblue" points="355.449,-387.711 365.771,-385.321 356.211,-380.753 355.449,-387.711"/>
</g>
<!-- Node399&#45;&gt;Node388 -->
<g id="edge28" class="edge"><title>Node399&#45;&gt;Node388</title>
<path fill="none" stroke="midnightblue" d="M458.367,-346.939C468.049,-344.062 477.534,-339.67 485,-333 518.672,-302.918 499.157,-277.517 521,-238 532.91,-216.454 550.401,-194.279 562.961,-179.485"/>
<polygon fill="midnightblue" stroke="midnightblue" points="565.81,-181.541 569.707,-171.688 560.517,-176.961 565.81,-181.541"/>
</g>
<!-- Node399&#45;&gt;Node389 -->
<g id="edge29" class="edge"><title>Node399&#45;&gt;Node389</title>
<path fill="none" stroke="midnightblue" d="M458.297,-348.38C468.334,-345.467 477.989,-340.697 485,-333 554.087,-257.162 454.587,-183.191 521,-105 524.359,-101.045 528.561,-97.9084 533.155,-95.4222"/>
<polygon fill="midnightblue" stroke="midnightblue" points="534.596,-98.6122 542.355,-91.398 531.791,-92.1988 534.596,-98.6122"/>
</g>
<!-- Node399&#45;&gt;Node390 -->
<g id="edge30" class="edge"><title>Node399&#45;&gt;Node390</title>
<path fill="none" stroke="midnightblue" d="M458.127,-348.223C468.171,-345.316 477.871,-340.588 485,-333 543.846,-270.358 464.363,-207.646 521,-143 524.42,-139.097 528.658,-135.992 533.273,-133.524"/>
<polygon fill="midnightblue" stroke="midnightblue" points="534.717,-136.713 542.494,-129.518 531.927,-130.292 534.717,-136.713"/>
</g>
<!-- Node400 -->
<g id="node24" class="node"><title>Node400</title>
<g id="a_node24"><a xlink:href="mqtt__msg_8c.html#ac59e26babd30c6c0ace9a174e75786f3" target="_top" xlink:title="append_message_id">
<polygon fill="white" stroke="black" points="526.5,-247.5 526.5,-266.5 632.5,-266.5 632.5,-247.5 526.5,-247.5"/>
<text text-anchor="middle" x="579.5" y="-254.5" font-family="Helvetica,sans-Serif" font-size="10.00">append_message_id</text>
</a>
</g>
</g>
<!-- Node399&#45;&gt;Node400 -->
<g id="edge27" class="edge"><title>Node399&#45;&gt;Node400</title>
<path fill="none" stroke="midnightblue" d="M458.117,-343.135C467.301,-340.523 476.653,-337.199 485,-333 515.304,-317.755 544.734,-291.328 562.237,-274.003"/>
<polygon fill="midnightblue" stroke="midnightblue" points="564.859,-276.328 569.4,-266.756 559.881,-271.407 564.859,-276.328"/>
</g>
<!-- Node401&#45;&gt;Node388 -->
<g id="edge33" class="edge"><title>Node401&#45;&gt;Node388</title>
<path fill="none" stroke="midnightblue" d="M452.893,-133.589C477.157,-139.077 507.616,-145.967 532.463,-151.587"/>
<polygon fill="midnightblue" stroke="midnightblue" points="531.857,-155.038 542.382,-153.831 533.401,-148.211 531.857,-155.038"/>
</g>
<!-- Node401&#45;&gt;Node389 -->
<g id="edge34" class="edge"><title>Node401&#45;&gt;Node389</title>
<path fill="none" stroke="midnightblue" d="M452.893,-114.411C477.157,-108.923 507.616,-102.033 532.463,-96.4132"/>
<polygon fill="midnightblue" stroke="midnightblue" points="533.401,-99.7895 542.382,-94.1695 531.857,-92.9619 533.401,-99.7895"/>
</g>
<!-- Node401&#45;&gt;Node390 -->
<g id="edge35" class="edge"><title>Node401&#45;&gt;Node390</title>
<path fill="none" stroke="midnightblue" d="M457.297,-124C480.724,-124 508.989,-124 532.329,-124"/>
<polygon fill="midnightblue" stroke="midnightblue" points="532.336,-127.5 542.336,-124 532.336,-120.5 532.336,-127.5"/>
</g>
<!-- Node401&#45;&gt;Node400 -->
<g id="edge32" class="edge"><title>Node401&#45;&gt;Node400</title>
<path fill="none" stroke="midnightblue" d="M457.289,-131.113C466.927,-133.871 476.667,-137.696 485,-143 495.22,-149.505 541.456,-208.731 564.852,-239.147"/>
<polygon fill="midnightblue" stroke="midnightblue" points="562.192,-241.43 571.056,-247.233 567.746,-237.169 562.192,-241.43"/>
</g>
<!-- Node403 -->
<g id="node27" class="node"><title>Node403</title>
<g id="a_node27"><a xlink:href="proto_8h.html#a0048bb46c50a05ae94d1f1563909c046" target="_top" xlink:title="PROTO_AddRb">
<polygon fill="white" stroke="black" points="536,-380.5 536,-399.5 623,-399.5 623,-380.5 536,-380.5"/>
<text text-anchor="middle" x="579.5" y="-387.5" font-family="Helvetica,sans-Serif" font-size="10.00">PROTO_AddRb</text>
</a>
</g>
</g>
<!-- Node402&#45;&gt;Node403 -->
<g id="edge37" class="edge"><title>Node402&#45;&gt;Node403</title>
<path fill="none" stroke="midnightblue" d="M448.622,-419.377C471.698,-414.158 501.436,-407.431 526.633,-401.732"/>
<polygon fill="midnightblue" stroke="midnightblue" points="527.42,-405.142 536.401,-399.522 525.875,-398.315 527.42,-405.142"/>
</g>
<!-- Node404 -->
<g id="node28" class="node"><title>Node404</title>
<g id="a_node28"><a xlink:href="ringbuf_8h.html#a8b56edb0716a45312957960d4784f0b7" target="_top" xlink:title="put a character into ring buffer ">
<polygon fill="white" stroke="black" points="674,-380.5 674,-399.5 757,-399.5 757,-380.5 674,-380.5"/>
<text text-anchor="middle" x="715.5" y="-387.5" font-family="Helvetica,sans-Serif" font-size="10.00">RINGBUF_Put</text>
</a>
</g>
</g>
<!-- Node403&#45;&gt;Node404 -->
<g id="edge38" class="edge"><title>Node403&#45;&gt;Node404</title>
<path fill="none" stroke="midnightblue" d="M623.267,-390C636.206,-390 650.54,-390 663.938,-390"/>
<polygon fill="midnightblue" stroke="midnightblue" points="663.963,-393.5 673.963,-390 663.963,-386.5 663.963,-393.5"/>
</g>
<!-- Node406 -->
<g id="node30" class="node"><title>Node406</title>
<g id="a_node30"><a xlink:href="mqtt__msg_8h.html#ad2fc8fef8cd7418255616ef63166c955" target="_top" xlink:title="mqtt_get_publish_data">
<polygon fill="white" stroke="black" points="522,-456.5 522,-475.5 637,-475.5 637,-456.5 522,-456.5"/>
<text text-anchor="middle" x="579.5" y="-463.5" font-family="Helvetica,sans-Serif" font-size="10.00">mqtt_get_publish_data</text>
</a>
</g>
</g>
<!-- Node405&#45;&gt;Node406 -->
<g id="edge40" class="edge"><title>Node405&#45;&gt;Node406</title>
<path fill="none" stroke="midnightblue" d="M450.314,-466C468.659,-466 490.934,-466 511.736,-466"/>
<polygon fill="midnightblue" stroke="midnightblue" points="511.806,-469.5 521.806,-466 511.806,-462.5 511.806,-469.5"/>
</g>
<!-- Node407 -->
<g id="node31" class="node"><title>Node407</title>
<g id="a_node31"><a xlink:href="mqtt__msg_8h.html#a5d19011be955cefc274da041bdbbd0e1" target="_top" xlink:title="mqtt_get_publish_topic">
<polygon fill="white" stroke="black" points="521,-418.5 521,-437.5 638,-437.5 638,-418.5 521,-418.5"/>
<text text-anchor="middle" x="579.5" y="-425.5" font-family="Helvetica,sans-Serif" font-size="10.00">mqtt_get_publish_topic</text>
</a>
</g>
</g>
<!-- Node405&#45;&gt;Node407 -->
<g id="edge42" class="edge"><title>Node405&#45;&gt;Node407</title>
<path fill="none" stroke="midnightblue" d="M450.314,-456.995C473.084,-451.844 501.909,-445.324 526.456,-439.772"/>
<polygon fill="midnightblue" stroke="midnightblue" points="527.35,-443.158 536.332,-437.538 525.806,-436.331 527.35,-443.158"/>
</g>
<!-- Node406&#45;&gt;Node384 -->
<g id="edge41" class="edge"><title>Node406&#45;&gt;Node384</title>
<path fill="none" stroke="midnightblue" d="M614.314,-475.589C631.533,-480.472 652.664,-486.464 671.073,-491.685"/>
<polygon fill="midnightblue" stroke="midnightblue" points="670.121,-495.053 680.697,-494.414 672.031,-488.319 670.121,-495.053"/>
</g>
<!-- Node408&#45;&gt;Node388 -->
<g id="edge45" class="edge"><title>Node408&#45;&gt;Node388</title>
<path fill="none" stroke="midnightblue" d="M455.836,-93.2426C465.867,-96.0018 476.138,-99.7947 485,-105 505.06,-116.782 501.361,-130.529 521,-143 524.644,-145.314 528.599,-147.375 532.671,-149.204"/>
<polygon fill="midnightblue" stroke="midnightblue" points="531.708,-152.589 542.292,-153.061 534.313,-146.091 531.708,-152.589"/>
</g>
<!-- Node408&#45;&gt;Node389 -->
<g id="edge46" class="edge"><title>Node408&#45;&gt;Node389</title>
<path fill="none" stroke="midnightblue" d="M455.521,-86C479.227,-86 508.256,-86 532.156,-86"/>
<polygon fill="midnightblue" stroke="midnightblue" points="532.395,-89.5001 542.395,-86 532.395,-82.5001 532.395,-89.5001"/>
</g>
<!-- Node408&#45;&gt;Node390 -->
<g id="edge47" class="edge"><title>Node408&#45;&gt;Node390</title>
<path fill="none" stroke="midnightblue" d="M452.893,-95.589C477.157,-101.077 507.616,-107.967 532.463,-113.587"/>
<polygon fill="midnightblue" stroke="midnightblue" points="531.857,-117.038 542.382,-115.831 533.401,-110.211 531.857,-117.038"/>
</g>
<!-- Node408&#45;&gt;Node400 -->
<g id="edge44" class="edge"><title>Node408&#45;&gt;Node400</title>
<path fill="none" stroke="midnightblue" d="M455.646,-90.86C466.132,-93.6993 476.655,-98.1256 485,-105 513.848,-128.764 501.623,-149.04 521,-181 533.764,-202.052 551.116,-224.307 563.41,-239.255"/>
<polygon fill="midnightblue" stroke="midnightblue" points="560.899,-241.708 569.991,-247.147 566.275,-237.225 560.899,-241.708"/>
</g>
<!-- Node409&#45;&gt;Node388 -->
<g id="edge50" class="edge"><title>Node409&#45;&gt;Node388</title>
<path fill="none" stroke="midnightblue" d="M462.087,-306.317C470.232,-303.606 478.198,-299.945 485,-295 509.236,-277.382 503.946,-262.636 521,-238 535.17,-217.531 552.547,-194.868 564.466,-179.662"/>
<polygon fill="midnightblue" stroke="midnightblue" points="567.345,-181.663 570.788,-171.643 561.848,-177.329 567.345,-181.663"/>
</g>
<!-- Node409&#45;&gt;Node389 -->
<g id="edge51" class="edge"><title>Node409&#45;&gt;Node389</title>
<path fill="none" stroke="midnightblue" d="M462.349,-308.881C470.856,-305.926 478.877,-301.518 485,-295 543.846,-232.358 464.363,-169.646 521,-105 524.42,-101.097 528.658,-97.9923 533.273,-95.5237"/>
<polygon fill="midnightblue" stroke="midnightblue" points="534.717,-98.7125 542.494,-91.5175 531.927,-92.2923 534.717,-98.7125"/>
</g>
<!-- Node409&#45;&gt;Node390 -->
<g id="edge52" class="edge"><title>Node409&#45;&gt;Node390</title>
<path fill="none" stroke="midnightblue" d="M462.111,-308.652C470.64,-305.719 478.731,-301.378 485,-295 533.668,-245.49 474.08,-194.169 521,-143 524.375,-139.319 528.477,-136.35 532.921,-133.956"/>
<polygon fill="midnightblue" stroke="midnightblue" points="534.642,-137.023 542.396,-129.803 531.832,-130.611 534.642,-137.023"/>
</g>
<!-- Node409&#45;&gt;Node400 -->
<g id="edge49" class="edge"><title>Node409&#45;&gt;Node400</title>
<path fill="none" stroke="midnightblue" d="M452.166,-304.441C462.945,-301.677 474.476,-298.463 485,-295 506.346,-287.977 529.771,-278.453 547.834,-270.697"/>
<polygon fill="midnightblue" stroke="midnightblue" points="549.493,-273.793 557.27,-266.597 546.704,-267.372 549.493,-273.793"/>
</g>
<!-- Node410&#45;&gt;Node389 -->
<g id="edge54" class="edge"><title>Node410&#45;&gt;Node389</title>
<path fill="none" stroke="midnightblue" d="M452.893,-57.589C477.157,-63.0771 507.616,-69.9666 532.463,-75.5868"/>
<polygon fill="midnightblue" stroke="midnightblue" points="531.857,-79.0381 542.382,-77.8305 533.401,-72.2105 531.857,-79.0381"/>
</g>
<!-- Node410&#45;&gt;Node390 -->
<g id="edge55" class="edge"><title>Node410&#45;&gt;Node390</title>
<path fill="none" stroke="midnightblue" d="M460.537,-56.6093C469.034,-59.2183 477.519,-62.6059 485,-67 505.06,-78.7823 501.361,-92.5285 521,-105 524.644,-107.314 528.599,-109.375 532.671,-111.204"/>
<polygon fill="midnightblue" stroke="midnightblue" points="531.708,-114.589 542.292,-115.061 534.313,-108.091 531.708,-114.589"/>
</g>
<!-- Node412&#45;&gt;Node393 -->
<g id="edge59" class="edge"><title>Node412&#45;&gt;Node393</title>
<path fill="none" stroke="midnightblue" d="M293.256,-618C313.116,-618 335.218,-618 354.711,-618"/>
<polygon fill="midnightblue" stroke="midnightblue" points="354.941,-621.5 364.941,-618 354.941,-614.5 354.941,-621.5"/>
</g>
</g>
</svg>
