<?xml version="1.0" encoding="UTF-8" standalone="no"?>
<!DOCTYPE svg PUBLIC "-//W3C//DTD SVG 1.1//EN"
 "http://www.w3.org/Graphics/SVG/1.1/DTD/svg11.dtd">
<!-- Generated by graphviz version 2.38.0 (20140413.2041)
 -->
<!-- Title: mqtt/include/mqtt_msg.h Pages: 1 -->
<svg width="194pt" height="140pt"
 viewBox="0.00 0.00 193.50 140.00" xmlns="http://www.w3.org/2000/svg" xmlns:xlink="http://www.w3.org/1999/xlink">
<g id="graph0" class="graph" transform="scale(1 1) rotate(0) translate(4 136)">
<title>mqtt/include/mqtt_msg.h</title>
<polygon fill="white" stroke="none" points="-4,4 -4,-136 189.5,-136 189.5,4 -4,4"/>
<!-- Node0 -->
<g id="node1" class="node"><title>Node0</title>
<polygon fill="#bfbfbf" stroke="black" points="17,-112.5 17,-131.5 142,-131.5 142,-112.5 17,-112.5"/>
<text text-anchor="middle" x="79.5" y="-119.5" font-family="Helvetica,sans-Serif" font-size="10.00">mqtt/include/mqtt_msg.h</text>
</g>
<!-- Node1 -->
<g id="node2" class="node"><title>Node1</title>
<polygon fill="white" stroke="#bfbfbf" points="-7.10543e-15,-56.5 -7.10543e-15,-75.5 75,-75.5 75,-56.5 -7.10543e-15,-56.5"/>
<text text-anchor="middle" x="37.5" y="-63.5" font-family="Helvetica,sans-Serif" font-size="10.00">user_config.h</text>
</g>
<!-- Node0&#45;&gt;Node1 -->
<g id="edge1" class="edge"><title>Node0&#45;&gt;Node1</title>
<path fill="none" stroke="midnightblue" d="M72.5646,-112.083C66.5708,-104.377 57.7482,-93.0333 50.4524,-83.6531"/>
<polygon fill="midnightblue" stroke="midnightblue" points="53.2086,-81.4958 44.3064,-75.7511 47.6831,-85.7934 53.2086,-81.4958"/>
</g>
<!-- Node2 -->
<g id="node3" class="node"><title>Node2</title>
<g id="a_node3"><a xlink:href="c__types_8h.html" target="_top" xlink:title="c_types.h">
<polygon fill="white" stroke="black" points="93,-56.5 93,-75.5 152,-75.5 152,-56.5 93,-56.5"/>
<text text-anchor="middle" x="122.5" y="-63.5" font-family="Helvetica,sans-Serif" font-size="10.00">c_types.h</text>
</a>
</g>
</g>
<!-- Node0&#45;&gt;Node2 -->
<g id="edge2" class="edge"><title>Node0&#45;&gt;Node2</title>
<path fill="none" stroke="midnightblue" d="M86.6006,-112.083C92.737,-104.377 101.77,-93.0333 109.239,-83.6531"/>
<polygon fill="midnightblue" stroke="midnightblue" points="112.04,-85.7542 115.532,-75.7511 106.564,-81.3936 112.04,-85.7542"/>
</g>
<!-- Node3 -->
<g id="node4" class="node"><title>Node3</title>
<polygon fill="white" stroke="#bfbfbf" points="62,-0.5 62,-19.5 111,-19.5 111,-0.5 62,-0.5"/>
<text text-anchor="middle" x="86.5" y="-7.5" font-family="Helvetica,sans-Serif" font-size="10.00">stdint.h</text>
</g>
<!-- Node2&#45;&gt;Node3 -->
<g id="edge3" class="edge"><title>Node2&#45;&gt;Node3</title>
<path fill="none" stroke="midnightblue" d="M116.555,-56.083C111.523,-48.5341 104.163,-37.4948 97.9865,-28.2298"/>
<polygon fill="midnightblue" stroke="midnightblue" points="100.793,-26.1301 92.3341,-19.7511 94.9689,-30.0131 100.793,-26.1301"/>
</g>
<!-- Node4 -->
<g id="node5" class="node"><title>Node4</title>
<polygon fill="white" stroke="#bfbfbf" points="129.5,-0.5 129.5,-19.5 185.5,-19.5 185.5,-0.5 129.5,-0.5"/>
<text text-anchor="middle" x="157.5" y="-7.5" font-family="Helvetica,sans-Serif" font-size="10.00">stdbool.h</text>
</g>
<!-- Node2&#45;&gt;Node4 -->
<g id="edge4" class="edge"><title>Node2&#45;&gt;Node4</title>
<path fill="none" stroke="midnightblue" d="M128.28,-56.083C133.172,-48.5341 140.327,-37.4948 146.333,-28.2298"/>
<polygon fill="midnightblue" stroke="midnightblue" points="149.326,-30.0463 151.828,-19.7511 143.452,-26.239 149.326,-30.0463"/>
</g>
</g>
</svg>
