<?xml version="1.0" encoding="UTF-8" standalone="no"?>
<!DOCTYPE svg PUBLIC "-//W3C//DTD SVG 1.1//EN"
 "http://www.w3.org/Graphics/SVG/1.1/DTD/svg11.dtd">
<!-- Generated by graphviz version 2.38.0 (20140413.2041)
 -->
<!-- Title: mqtt_rpc_close Pages: 1 -->
<svg width="1303pt" height="414pt"
 viewBox="0.00 0.00 1303.00 414.00" xmlns="http://www.w3.org/2000/svg" xmlns:xlink="http://www.w3.org/1999/xlink">
<g id="graph0" class="graph" transform="scale(1 1) rotate(0) translate(4 410)">
<title>mqtt_rpc_close</title>
<polygon fill="white" stroke="none" points="-4,4 -4,-410 1299,-410 1299,4 -4,4"/>
<!-- Node110 -->
<g id="node1" class="node"><title>Node110</title>
<polygon fill="#bfbfbf" stroke="black" points="0,-25.5 0,-44.5 83,-44.5 83,-25.5 0,-25.5"/>
<text text-anchor="middle" x="41.5" y="-32.5" font-family="Helvetica,sans-Serif" font-size="10.00">mqtt_rpc_close</text>
</g>
<!-- Node111 -->
<g id="node2" class="node"><title>Node111</title>
<g id="a_node2"><a xlink:href="ac__out_8c.html#a3bc674b019d5e2e4d15e7abe7c69029f" target="_top" xlink:title="ac_thermo_close">
<polygon fill="white" stroke="black" points="119,-25.5 119,-44.5 210,-44.5 210,-25.5 119,-25.5"/>
<text text-anchor="middle" x="164.5" y="-32.5" font-family="Helvetica,sans-Serif" font-size="10.00">ac_thermo_close</text>
</a>
</g>
</g>
<!-- Node110&#45;&gt;Node111 -->
<g id="edge1" class="edge"><title>Node110&#45;&gt;Node111</title>
<path fill="none" stroke="midnightblue" d="M83.1279,-35C91.2303,-35 99.8677,-35 108.363,-35"/>
<polygon fill="midnightblue" stroke="midnightblue" points="108.609,-38.5001 118.609,-35 108.609,-31.5001 108.609,-38.5001"/>
</g>
<!-- Node112 -->
<g id="node3" class="node"><title>Node112</title>
<g id="a_node3"><a xlink:href="config_8c.html#ab4af9f95b39f096bb0fa8d73eb5a342e" target="_top" xlink:title="cfg_save_defered">
<polygon fill="white" stroke="black" points="246,-88.5 246,-107.5 340,-107.5 340,-88.5 246,-88.5"/>
<text text-anchor="middle" x="293" y="-95.5" font-family="Helvetica,sans-Serif" font-size="10.00">cfg_save_defered</text>
</a>
</g>
</g>
<!-- Node111&#45;&gt;Node112 -->
<g id="edge2" class="edge"><title>Node111&#45;&gt;Node112</title>
<path fill="none" stroke="midnightblue" d="M184.713,-44.5683C205.703,-55.0219 239.538,-71.8726 263.596,-83.854"/>
<polygon fill="midnightblue" stroke="midnightblue" points="262.095,-87.0165 272.607,-88.3416 265.216,-80.7506 262.095,-87.0165"/>
</g>
<!-- Node137 -->
<g id="node28" class="node"><title>Node137</title>
<g id="a_node28"><a xlink:href="gpio_8h.html#a83bac74ff5b2158e0c86da73ada29718" target="_top" xlink:title="gpio_output_set">
<polygon fill="white" stroke="black" points="646.5,-0.5 646.5,-19.5 732.5,-19.5 732.5,-0.5 646.5,-0.5"/>
<text text-anchor="middle" x="689.5" y="-7.5" font-family="Helvetica,sans-Serif" font-size="10.00">gpio_output_set</text>
</a>
</g>
</g>
<!-- Node111&#45;&gt;Node137 -->
<g id="edge36" class="edge"><title>Node111&#45;&gt;Node137</title>
<path fill="none" stroke="midnightblue" d="M198.894,-25.452C213.264,-21.7789 230.33,-17.9909 246,-16 386.152,1.80727 553.272,-2.8717 636.306,-6.9209"/>
<polygon fill="midnightblue" stroke="midnightblue" points="636.326,-10.4263 646.49,-7.43518 636.679,-3.43518 636.326,-10.4263"/>
</g>
<!-- Node138 -->
<g id="node29" class="node"><title>Node138</title>
<g id="a_node29"><a xlink:href="led_8c.html#aa00afefe8ba48ccd7df635fbc7d4c9fc" target="_top" xlink:title="led_pattern_a">
<polygon fill="white" stroke="black" points="255.5,-25.5 255.5,-44.5 330.5,-44.5 330.5,-25.5 255.5,-25.5"/>
<text text-anchor="middle" x="293" y="-32.5" font-family="Helvetica,sans-Serif" font-size="10.00">led_pattern_a</text>
</a>
</g>
</g>
<!-- Node111&#45;&gt;Node138 -->
<g id="edge37" class="edge"><title>Node111&#45;&gt;Node138</title>
<path fill="none" stroke="midnightblue" d="M210.099,-35C221.427,-35 233.632,-35 245.071,-35"/>
<polygon fill="midnightblue" stroke="midnightblue" points="245.315,-38.5001 255.315,-35 245.315,-31.5001 245.315,-38.5001"/>
</g>
<!-- Node113 -->
<g id="node4" class="node"><title>Node113</title>
<g id="a_node4"><a xlink:href="config_8c.html#a1e0d59e84f6bbc2564bcdf595b6972da" target="_top" xlink:title="config_save_timer_func">
<polygon fill="white" stroke="black" points="376,-100.5 376,-119.5 496,-119.5 496,-100.5 376,-100.5"/>
<text text-anchor="middle" x="436" y="-107.5" font-family="Helvetica,sans-Serif" font-size="10.00">config_save_timer_func</text>
</a>
</g>
</g>
<!-- Node112&#45;&gt;Node113 -->
<g id="edge3" class="edge"><title>Node112&#45;&gt;Node113</title>
<path fill="none" stroke="midnightblue" d="M340.169,-101.929C348.366,-102.627 357.063,-103.367 365.736,-104.105"/>
<polygon fill="midnightblue" stroke="midnightblue" points="365.613,-107.607 375.874,-104.968 366.206,-100.632 365.613,-107.607"/>
</g>
<!-- Node113&#45;&gt;Node113 -->
<g id="edge35" class="edge"><title>Node113&#45;&gt;Node113</title>
<path fill="none" stroke="midnightblue" d="M416.888,-119.757C407.59,-128.565 413.961,-138 436,-138 450.119,-138 457.807,-134.128 459.065,-129.029"/>
<polygon fill="midnightblue" stroke="midnightblue" points="462.254,-127.583 455.112,-119.757 455.815,-130.329 462.254,-127.583"/>
</g>
<!-- Node114 -->
<g id="node5" class="node"><title>Node114</title>
<g id="a_node5"><a xlink:href="config_8c.html#a240b5d7105d7dbf1d7054ad65cb9df40" target="_top" xlink:title="cfg_save">
<polygon fill="white" stroke="black" points="532,-145.5 532,-164.5 588,-164.5 588,-145.5 532,-145.5"/>
<text text-anchor="middle" x="560" y="-152.5" font-family="Helvetica,sans-Serif" font-size="10.00">cfg_save</text>
</a>
</g>
</g>
<!-- Node113&#45;&gt;Node114 -->
<g id="edge4" class="edge"><title>Node113&#45;&gt;Node114</title>
<path fill="none" stroke="midnightblue" d="M462.873,-119.543C480.585,-126.076 504.289,-134.82 523.727,-141.99"/>
<polygon fill="midnightblue" stroke="midnightblue" points="522.571,-145.293 533.164,-145.47 524.993,-138.726 522.571,-145.293"/>
</g>
<!-- Node115 -->
<g id="node6" class="node"><title>Node115</title>
<g id="a_node6"><a xlink:href="utils_8c.html#a8d9e1de95e2d6d103108a4b0ebf4d923" target="_top" xlink:title="ccit_crc16">
<polygon fill="white" stroke="black" points="812,-272.5 812,-291.5 874,-291.5 874,-272.5 812,-272.5"/>
<text text-anchor="middle" x="843" y="-279.5" font-family="Helvetica,sans-Serif" font-size="10.00">ccit_crc16</text>
</a>
</g>
</g>
<!-- Node114&#45;&gt;Node115 -->
<g id="edge5" class="edge"><title>Node114&#45;&gt;Node115</title>
<path fill="none" stroke="midnightblue" d="M574.465,-164.504C586.864,-172.914 606.007,-185.05 624,-193 679.565,-217.551 701.693,-202.869 755,-232 773.528,-242.125 772.822,-252.257 791,-263 794.615,-265.136 798.511,-267.103 802.483,-268.896"/>
<polygon fill="midnightblue" stroke="midnightblue" points="801.211,-272.157 811.789,-272.758 803.894,-265.692 801.211,-272.157"/>
</g>
<!-- Node116 -->
<g id="node7" class="node"><title>Node116</title>
<g id="a_node7"><a xlink:href="config_8c.html#a92adb6c5103eed30e16185a9cd233e51" target="_top" xlink:title="cfg_load">
<polygon fill="white" stroke="black" points="663,-164.5 663,-183.5 716,-183.5 716,-164.5 663,-164.5"/>
<text text-anchor="middle" x="689.5" y="-171.5" font-family="Helvetica,sans-Serif" font-size="10.00">cfg_load</text>
</a>
</g>
</g>
<!-- Node114&#45;&gt;Node116 -->
<g id="edge6" class="edge"><title>Node114&#45;&gt;Node116</title>
<path fill="none" stroke="midnightblue" d="M588.039,-153.393C606.925,-154.91 632.33,-158.532 652.867,-162.561"/>
<polygon fill="midnightblue" stroke="midnightblue" points="652.3,-166.018 662.804,-164.63 653.727,-159.165 652.3,-166.018"/>
</g>
<!-- Node117 -->
<g id="node8" class="node"><title>Node117</title>
<g id="a_node8"><a xlink:href="ext__spi__flash_8c.html#a094d4588aff8210b1bb94ae90fb58526" target="_top" xlink:title="ext_spi_flash_read">
<polygon fill="white" stroke="black" points="794,-120.5 794,-139.5 892,-139.5 892,-120.5 794,-120.5"/>
<text text-anchor="middle" x="843" y="-127.5" font-family="Helvetica,sans-Serif" font-size="10.00">ext_spi_flash_read</text>
</a>
</g>
</g>
<!-- Node114&#45;&gt;Node117 -->
<g id="edge31" class="edge"><title>Node114&#45;&gt;Node117</title>
<path fill="none" stroke="midnightblue" d="M588.199,-152.58C633.119,-148.584 723.79,-140.517 783.702,-135.187"/>
<polygon fill="midnightblue" stroke="midnightblue" points="784.126,-138.663 793.776,-134.29 783.505,-131.69 784.126,-138.663"/>
</g>
<!-- Node134 -->
<g id="node25" class="node"><title>Node134</title>
<g id="a_node25"><a xlink:href="ext__spi__flash_8c.html#ab4369189179b556a6b8e2155433c5f70" target="_top" xlink:title="ext_spi_flash_erase\l_sector">
<polygon fill="white" stroke="black" points="637.5,-39 637.5,-69 741.5,-69 741.5,-39 637.5,-39"/>
<text text-anchor="start" x="645.5" y="-57" font-family="Helvetica,sans-Serif" font-size="10.00">ext_spi_flash_erase</text>
<text text-anchor="middle" x="689.5" y="-46" font-family="Helvetica,sans-Serif" font-size="10.00">_sector</text>
</a>
</g>
</g>
<!-- Node114&#45;&gt;Node134 -->
<g id="edge29" class="edge"><title>Node114&#45;&gt;Node134</title>
<path fill="none" stroke="midnightblue" d="M566.596,-145.495C576.366,-129.65 597.995,-97.7311 624,-79 626.631,-77.1048 629.425,-75.3313 632.317,-73.6749"/>
<polygon fill="midnightblue" stroke="midnightblue" points="633.963,-76.7641 641.228,-69.0524 630.74,-70.5504 633.963,-76.7641"/>
</g>
<!-- Node135 -->
<g id="node26" class="node"><title>Node135</title>
<g id="a_node26"><a xlink:href="ext__spi__flash_8c.html#a17e27ce44dd5aec4dd7a7de609093aae" target="_top" xlink:title="ext_spi_flash_write">
<polygon fill="white" stroke="black" points="639,-88.5 639,-107.5 740,-107.5 740,-88.5 639,-88.5"/>
<text text-anchor="middle" x="689.5" y="-95.5" font-family="Helvetica,sans-Serif" font-size="10.00">ext_spi_flash_write</text>
</a>
</g>
</g>
<!-- Node114&#45;&gt;Node135 -->
<g id="edge32" class="edge"><title>Node114&#45;&gt;Node135</title>
<path fill="none" stroke="midnightblue" d="M577.826,-145.443C590.354,-138.512 607.986,-129.139 624,-122 632.655,-118.141 642.138,-114.37 651.106,-111.002"/>
<polygon fill="midnightblue" stroke="midnightblue" points="652.393,-114.258 660.57,-107.521 649.977,-107.688 652.393,-114.258"/>
</g>
<!-- Node136 -->
<g id="node27" class="node"><title>Node136</title>
<g id="a_node27"><a xlink:href="user__interface_8h.html#ae68a7b6345630e42fde3e827108571e0" target="_top" xlink:title="system_param_save_with\l_protect">
<polygon fill="white" stroke="black" points="624,-241 624,-271 755,-271 755,-241 624,-241"/>
<text text-anchor="start" x="632" y="-259" font-family="Helvetica,sans-Serif" font-size="10.00">system_param_save_with</text>
<text text-anchor="middle" x="689.5" y="-248" font-family="Helvetica,sans-Serif" font-size="10.00">_protect</text>
</a>
</g>
</g>
<!-- Node114&#45;&gt;Node136 -->
<g id="edge34" class="edge"><title>Node114&#45;&gt;Node136</title>
<path fill="none" stroke="midnightblue" d="M567.72,-164.877C578.252,-179.757 599.947,-208.084 624,-226 629.005,-229.728 634.547,-233.153 640.219,-236.249"/>
<polygon fill="midnightblue" stroke="midnightblue" points="638.685,-239.396 649.181,-240.841 641.877,-233.166 638.685,-239.396"/>
</g>
<!-- Node116&#45;&gt;Node114 -->
<g id="edge8" class="edge"><title>Node116&#45;&gt;Node114</title>
<path fill="none" stroke="midnightblue" d="M662.986,-175.726C644.152,-174.301 618.256,-170.652 597.272,-166.564"/>
<polygon fill="midnightblue" stroke="midnightblue" points="597.919,-163.124 587.418,-164.53 596.504,-169.979 597.919,-163.124"/>
</g>
<!-- Node116&#45;&gt;Node115 -->
<g id="edge7" class="edge"><title>Node116&#45;&gt;Node115</title>
<path fill="none" stroke="midnightblue" d="M716.251,-179.116C729.033,-182.692 744.042,-188.57 755,-198 780.031,-219.541 765.974,-241.454 791,-263 794.436,-265.958 798.376,-268.475 802.509,-270.612"/>
<polygon fill="midnightblue" stroke="midnightblue" points="801.189,-273.855 811.749,-274.707 804.025,-267.455 801.189,-273.855"/>
</g>
<!-- Node116&#45;&gt;Node117 -->
<g id="edge9" class="edge"><title>Node116&#45;&gt;Node117</title>
<path fill="none" stroke="midnightblue" d="M716.2,-166.536C738.882,-159.949 772.4,-150.214 799.136,-142.449"/>
<polygon fill="midnightblue" stroke="midnightblue" points="800.387,-145.73 809.014,-139.58 798.435,-139.008 800.387,-145.73"/>
</g>
<!-- Node119 -->
<g id="node10" class="node"><title>Node119</title>
<g id="a_node10"><a xlink:href="user__interface_8h.html#a86228f8d572c91ec871684121dad0647" target="_top" xlink:title="system_get_chip_id">
<polygon fill="white" stroke="black" points="791,-196.5 791,-215.5 895,-215.5 895,-196.5 791,-196.5"/>
<text text-anchor="middle" x="843" y="-203.5" font-family="Helvetica,sans-Serif" font-size="10.00">system_get_chip_id</text>
</a>
</g>
</g>
<!-- Node116&#45;&gt;Node119 -->
<g id="edge11" class="edge"><title>Node116&#45;&gt;Node119</title>
<path fill="none" stroke="midnightblue" d="M716.2,-179.428C735.566,-183.519 762.831,-189.278 787.03,-194.389"/>
<polygon fill="midnightblue" stroke="midnightblue" points="786.321,-197.817 796.829,-196.459 787.768,-190.968 786.321,-197.817"/>
</g>
<!-- Node120 -->
<g id="node11" class="node"><title>Node120</title>
<g id="a_node11"><a xlink:href="user__interface_8h.html#a753aade115708d360f25bff422ef1f55" target="_top" xlink:title="system_param_load">
<polygon fill="white" stroke="black" points="791,-158.5 791,-177.5 895,-177.5 895,-158.5 791,-158.5"/>
<text text-anchor="middle" x="843" y="-165.5" font-family="Helvetica,sans-Serif" font-size="10.00">system_param_load</text>
</a>
</g>
</g>
<!-- Node116&#45;&gt;Node120 -->
<g id="edge12" class="edge"><title>Node116&#45;&gt;Node120</title>
<path fill="none" stroke="midnightblue" d="M716.2,-172.982C733.916,-172.281 758.244,-171.317 780.788,-170.424"/>
<polygon fill="midnightblue" stroke="midnightblue" points="781.136,-173.913 790.989,-170.02 780.859,-166.919 781.136,-173.913"/>
</g>
<!-- Node121 -->
<g id="node12" class="node"><title>Node121</title>
<g id="a_node12"><a xlink:href="tinyprintf_8c.html#a9738cbc6c538d210941db282e240c7d6" target="_top" xlink:title="tfp_snprintf">
<polygon fill="white" stroke="black" points="810.5,-234.5 810.5,-253.5 875.5,-253.5 875.5,-234.5 810.5,-234.5"/>
<text text-anchor="middle" x="843" y="-241.5" font-family="Helvetica,sans-Serif" font-size="10.00">tfp_snprintf</text>
</a>
</g>
</g>
<!-- Node116&#45;&gt;Node121 -->
<g id="edge13" class="edge"><title>Node116&#45;&gt;Node121</title>
<path fill="none" stroke="midnightblue" d="M716.046,-181.617C728.204,-185.711 742.731,-191.3 755,-198 772.553,-207.586 773.449,-215.41 791,-225 794.685,-227.013 798.627,-228.9 802.626,-230.644"/>
<polygon fill="midnightblue" stroke="midnightblue" points="801.385,-233.917 811.967,-234.444 804.023,-227.433 801.385,-233.917"/>
</g>
<!-- Node118 -->
<g id="node9" class="node"><title>Node118</title>
<g id="a_node9"><a xlink:href="spi_8c.html#acebb579091ca980f217d3e5f3bd1f1d5" target="_top" xlink:title="spi_transaction">
<polygon fill="white" stroke="black" points="931,-82.5 931,-101.5 1014,-101.5 1014,-82.5 931,-82.5"/>
<text text-anchor="middle" x="972.5" y="-89.5" font-family="Helvetica,sans-Serif" font-size="10.00">spi_transaction</text>
</a>
</g>
</g>
<!-- Node117&#45;&gt;Node118 -->
<g id="edge10" class="edge"><title>Node117&#45;&gt;Node118</title>
<path fill="none" stroke="midnightblue" d="M876.174,-120.411C892.331,-115.596 912.108,-109.701 929.452,-104.532"/>
<polygon fill="midnightblue" stroke="midnightblue" points="930.753,-107.796 939.337,-101.586 928.754,-101.088 930.753,-107.796"/>
</g>
<!-- Node122 -->
<g id="node13" class="node"><title>Node122</title>
<g id="a_node13"><a xlink:href="tinyprintf_8c.html#ac8c8a66133cf0d7009c0d73b55311a44" target="_top" xlink:title="tfp_vsnprintf">
<polygon fill="white" stroke="black" points="937,-234.5 937,-253.5 1008,-253.5 1008,-234.5 937,-234.5"/>
<text text-anchor="middle" x="972.5" y="-241.5" font-family="Helvetica,sans-Serif" font-size="10.00">tfp_vsnprintf</text>
</a>
</g>
</g>
<!-- Node121&#45;&gt;Node122 -->
<g id="edge14" class="edge"><title>Node121&#45;&gt;Node122</title>
<path fill="none" stroke="midnightblue" d="M875.517,-244C890.906,-244 909.696,-244 926.558,-244"/>
<polygon fill="midnightblue" stroke="midnightblue" points="926.76,-247.5 936.76,-244 926.76,-240.5 926.76,-247.5"/>
</g>
<!-- Node123 -->
<g id="node14" class="node"><title>Node123</title>
<g id="a_node14"><a xlink:href="tinyprintf_8c.html#a5877e42444463efc71a91b5fe76a6145" target="_top" xlink:title="tfp_format">
<polygon fill="white" stroke="black" points="1062.5,-253.5 1062.5,-272.5 1123.5,-272.5 1123.5,-253.5 1062.5,-253.5"/>
<text text-anchor="middle" x="1093" y="-260.5" font-family="Helvetica,sans-Serif" font-size="10.00">tfp_format</text>
</a>
</g>
</g>
<!-- Node122&#45;&gt;Node123 -->
<g id="edge15" class="edge"><title>Node122&#45;&gt;Node123</title>
<path fill="none" stroke="midnightblue" d="M1008.09,-249.547C1021.95,-251.768 1037.99,-254.34 1052.31,-256.636"/>
<polygon fill="midnightblue" stroke="midnightblue" points="1051.95,-260.124 1062.38,-258.251 1053.06,-253.212 1051.95,-260.124"/>
</g>
<!-- Node133 -->
<g id="node24" class="node"><title>Node133</title>
<g id="a_node24"><a xlink:href="tinyprintf_8c.html#a919051024b2d729e34a54648b3f2462d" target="_top" xlink:title="_vsnprintf_putcf">
<polygon fill="white" stroke="black" points="1050,-215.5 1050,-234.5 1136,-234.5 1136,-215.5 1050,-215.5"/>
<text text-anchor="middle" x="1093" y="-222.5" font-family="Helvetica,sans-Serif" font-size="10.00">_vsnprintf_putcf</text>
</a>
</g>
</g>
<!-- Node122&#45;&gt;Node133 -->
<g id="edge28" class="edge"><title>Node122&#45;&gt;Node133</title>
<path fill="none" stroke="midnightblue" d="M1008.09,-238.453C1017.93,-236.876 1028.87,-235.122 1039.51,-233.415"/>
<polygon fill="midnightblue" stroke="midnightblue" points="1040.26,-236.84 1049.58,-231.801 1039.16,-229.928 1040.26,-236.84"/>
</g>
<!-- Node124 -->
<g id="node15" class="node"><title>Node124</title>
<g id="a_node15"><a xlink:href="tinyprintf_8c.html#aa97593a5e53af85b608ad0910db92d77" target="_top" xlink:title="a2u">
<polygon fill="white" stroke="black" points="1180,-386.5 1180,-405.5 1212,-405.5 1212,-386.5 1180,-386.5"/>
<text text-anchor="middle" x="1196" y="-393.5" font-family="Helvetica,sans-Serif" font-size="10.00">a2u</text>
</a>
</g>
</g>
<!-- Node123&#45;&gt;Node124 -->
<g id="edge16" class="edge"><title>Node123&#45;&gt;Node124</title>
<path fill="none" stroke="midnightblue" d="M1100.24,-272.669C1112.93,-292.115 1143.02,-337.08 1172,-372 1173.93,-374.332 1176.04,-376.716 1178.17,-379.034"/>
<polygon fill="midnightblue" stroke="midnightblue" points="1175.84,-381.659 1185.27,-386.483 1180.91,-376.83 1175.84,-381.659"/>
</g>
<!-- Node126 -->
<g id="node17" class="node"><title>Node126</title>
<g id="a_node17"><a xlink:href="tinyprintf_8c.html#abcf035dd576671b0cc897de9dd8c75b0" target="_top" xlink:title="ulli2a">
<polygon fill="white" stroke="black" points="1256,-329.5 1256,-348.5 1295,-348.5 1295,-329.5 1256,-329.5"/>
<text text-anchor="middle" x="1275.5" y="-336.5" font-family="Helvetica,sans-Serif" font-size="10.00">ulli2a</text>
</a>
</g>
</g>
<!-- Node123&#45;&gt;Node126 -->
<g id="edge18" class="edge"><title>Node123&#45;&gt;Node126</title>
<path fill="none" stroke="midnightblue" d="M1100.06,-272.58C1111.59,-289.787 1138.55,-325.397 1172,-339 1195.55,-348.576 1224.74,-347.464 1245.94,-344.611"/>
<polygon fill="midnightblue" stroke="midnightblue" points="1246.59,-348.052 1255.93,-343.059 1245.51,-341.135 1246.59,-348.052"/>
</g>
<!-- Node127 -->
<g id="node18" class="node"><title>Node127</title>
<g id="a_node18"><a xlink:href="tinyprintf_8c.html#a1d61347854a8c290d59b4a21efcefd75" target="_top" xlink:title="uli2a">
<polygon fill="white" stroke="black" points="1257,-205.5 1257,-224.5 1294,-224.5 1294,-205.5 1257,-205.5"/>
<text text-anchor="middle" x="1275.5" y="-212.5" font-family="Helvetica,sans-Serif" font-size="10.00">uli2a</text>
</a>
</g>
</g>
<!-- Node123&#45;&gt;Node127 -->
<g id="edge19" class="edge"><title>Node123&#45;&gt;Node127</title>
<path fill="none" stroke="midnightblue" d="M1115.92,-253.388C1122.42,-250.455 1129.53,-247.167 1136,-244 1152.25,-236.046 1154.67,-230.198 1172,-225 1196.5,-217.65 1225.63,-215.392 1246.56,-214.83"/>
<polygon fill="midnightblue" stroke="midnightblue" points="1246.75,-218.328 1256.69,-214.673 1246.64,-211.329 1246.75,-218.328"/>
</g>
<!-- Node128 -->
<g id="node19" class="node"><title>Node128</title>
<g id="a_node19"><a xlink:href="tinyprintf_8c.html#ac87ff66a592723f55692eaf8e3f19df8" target="_top" xlink:title="ui2a">
<polygon fill="white" stroke="black" points="1258,-148.5 1258,-167.5 1293,-167.5 1293,-148.5 1258,-148.5"/>
<text text-anchor="middle" x="1275.5" y="-155.5" font-family="Helvetica,sans-Serif" font-size="10.00">ui2a</text>
</a>
</g>
</g>
<!-- Node123&#45;&gt;Node128 -->
<g id="edge20" class="edge"><title>Node123&#45;&gt;Node128</title>
<path fill="none" stroke="midnightblue" d="M1118.17,-253.491C1124.17,-250.747 1130.47,-247.53 1136,-244 1153.8,-232.644 1154.59,-224.952 1172,-213 1196.83,-195.949 1227.52,-180.097 1248.82,-169.834"/>
<polygon fill="midnightblue" stroke="midnightblue" points="1250.35,-172.98 1257.88,-165.528 1247.35,-166.656 1250.35,-172.98"/>
</g>
<!-- Node129 -->
<g id="node20" class="node"><title>Node129</title>
<g id="a_node20"><a xlink:href="tinyprintf_8c.html#a6252dbfebb2c8783c4e3107d551082dd" target="_top" xlink:title="putchw">
<polygon fill="white" stroke="black" points="1172,-234.5 1172,-253.5 1220,-253.5 1220,-234.5 1172,-234.5"/>
<text text-anchor="middle" x="1196" y="-241.5" font-family="Helvetica,sans-Serif" font-size="10.00">putchw</text>
</a>
</g>
</g>
<!-- Node123&#45;&gt;Node129 -->
<g id="edge21" class="edge"><title>Node123&#45;&gt;Node129</title>
<path fill="none" stroke="midnightblue" d="M1123.76,-257.402C1135.76,-255.144 1149.65,-252.531 1161.96,-250.215"/>
<polygon fill="midnightblue" stroke="midnightblue" points="1162.68,-253.642 1171.86,-248.353 1161.39,-246.762 1162.68,-253.642"/>
</g>
<!-- Node130 -->
<g id="node21" class="node"><title>Node130</title>
<g id="a_node21"><a xlink:href="tinyprintf_8c.html#a49c6d2b3d4088012f2c1fe344eef69f3" target="_top" xlink:title="lli2a">
<polygon fill="white" stroke="black" points="1179,-310.5 1179,-329.5 1213,-329.5 1213,-310.5 1179,-310.5"/>
<text text-anchor="middle" x="1196" y="-317.5" font-family="Helvetica,sans-Serif" font-size="10.00">lli2a</text>
</a>
</g>
</g>
<!-- Node123&#45;&gt;Node130 -->
<g id="edge22" class="edge"><title>Node123&#45;&gt;Node130</title>
<path fill="none" stroke="midnightblue" d="M1111.13,-272.669C1127.24,-281.757 1151.53,-295.469 1169.84,-305.799"/>
<polygon fill="midnightblue" stroke="midnightblue" points="1168.36,-308.983 1178.79,-310.85 1171.8,-302.887 1168.36,-308.983"/>
</g>
<!-- Node131 -->
<g id="node22" class="node"><title>Node131</title>
<g id="a_node22"><a xlink:href="tinyprintf_8c.html#afebb7696337c3f599b5e8db35c560684" target="_top" xlink:title="li2a">
<polygon fill="white" stroke="black" points="1180,-272.5 1180,-291.5 1212,-291.5 1212,-272.5 1180,-272.5"/>
<text text-anchor="middle" x="1196" y="-279.5" font-family="Helvetica,sans-Serif" font-size="10.00">li2a</text>
</a>
</g>
</g>
<!-- Node123&#45;&gt;Node131 -->
<g id="edge24" class="edge"><title>Node123&#45;&gt;Node131</title>
<path fill="none" stroke="midnightblue" d="M1123.76,-268.598C1138.41,-271.354 1155.88,-274.641 1169.86,-277.27"/>
<polygon fill="midnightblue" stroke="midnightblue" points="1169.28,-280.723 1179.76,-279.132 1170.58,-273.844 1169.28,-280.723"/>
</g>
<!-- Node132 -->
<g id="node23" class="node"><title>Node132</title>
<g id="a_node23"><a xlink:href="tinyprintf_8c.html#a90f9fd8f2133cda7f50be8d67823405c" target="_top" xlink:title="i2a">
<polygon fill="white" stroke="black" points="1181.5,-120.5 1181.5,-139.5 1210.5,-139.5 1210.5,-120.5 1181.5,-120.5"/>
<text text-anchor="middle" x="1196" y="-127.5" font-family="Helvetica,sans-Serif" font-size="10.00">i2a</text>
</a>
</g>
</g>
<!-- Node123&#45;&gt;Node132 -->
<g id="edge26" class="edge"><title>Node123&#45;&gt;Node132</title>
<path fill="none" stroke="midnightblue" d="M1123.03,-253.445C1127.79,-250.928 1132.35,-247.817 1136,-244 1165.78,-212.869 1148.67,-190.216 1172,-154 1173.48,-151.708 1175.19,-149.444 1177.01,-147.276"/>
<polygon fill="midnightblue" stroke="midnightblue" points="1179.96,-149.241 1184.21,-139.536 1174.84,-144.472 1179.96,-149.241"/>
</g>
<!-- Node125 -->
<g id="node16" class="node"><title>Node125</title>
<g id="a_node16"><a xlink:href="tinyprintf_8c.html#aa853a0c5ba64fa2546d488b86192e7e3" target="_top" xlink:title="a2d">
<polygon fill="white" stroke="black" points="1259.5,-386.5 1259.5,-405.5 1291.5,-405.5 1291.5,-386.5 1259.5,-386.5"/>
<text text-anchor="middle" x="1275.5" y="-393.5" font-family="Helvetica,sans-Serif" font-size="10.00">a2d</text>
</a>
</g>
</g>
<!-- Node124&#45;&gt;Node125 -->
<g id="edge17" class="edge"><title>Node124&#45;&gt;Node125</title>
<path fill="none" stroke="midnightblue" d="M1212.31,-396C1222.89,-396 1237.2,-396 1249.42,-396"/>
<polygon fill="midnightblue" stroke="midnightblue" points="1249.48,-399.5 1259.48,-396 1249.48,-392.5 1249.48,-399.5"/>
</g>
<!-- Node130&#45;&gt;Node126 -->
<g id="edge23" class="edge"><title>Node130&#45;&gt;Node126</title>
<path fill="none" stroke="midnightblue" d="M1213.06,-323.937C1222.56,-326.267 1234.88,-329.287 1245.99,-332.01"/>
<polygon fill="midnightblue" stroke="midnightblue" points="1245.19,-335.417 1255.73,-334.399 1246.85,-328.619 1245.19,-335.417"/>
</g>
<!-- Node131&#45;&gt;Node127 -->
<g id="edge25" class="edge"><title>Node131&#45;&gt;Node127</title>
<path fill="none" stroke="midnightblue" d="M1208.76,-272.405C1212.38,-269.416 1216.37,-266.092 1220,-263 1232.11,-252.669 1245.53,-240.854 1256.02,-231.531"/>
<polygon fill="midnightblue" stroke="midnightblue" points="1258.59,-233.93 1263.73,-224.664 1253.94,-228.703 1258.59,-233.93"/>
</g>
<!-- Node132&#45;&gt;Node128 -->
<g id="edge27" class="edge"><title>Node132&#45;&gt;Node128</title>
<path fill="none" stroke="midnightblue" d="M1210.86,-135.006C1221.23,-138.754 1235.73,-143.994 1248.28,-148.526"/>
<polygon fill="midnightblue" stroke="midnightblue" points="1247.2,-151.86 1257.8,-151.966 1249.58,-145.276 1247.2,-151.86"/>
</g>
<!-- Node134&#45;&gt;Node118 -->
<g id="edge30" class="edge"><title>Node134&#45;&gt;Node118</title>
<path fill="none" stroke="midnightblue" d="M741.713,-60.9256C792.511,-67.795 869.896,-78.26 920.588,-85.1151"/>
<polygon fill="midnightblue" stroke="midnightblue" points="920.289,-88.6064 930.668,-86.4782 921.227,-81.6696 920.289,-88.6064"/>
</g>
<!-- Node135&#45;&gt;Node118 -->
<g id="edge33" class="edge"><title>Node135&#45;&gt;Node118</title>
<path fill="none" stroke="midnightblue" d="M740.09,-96.9411C790.797,-95.8584 869.188,-94.1846 920.427,-93.0905"/>
<polygon fill="midnightblue" stroke="midnightblue" points="920.689,-96.5858 930.612,-92.8731 920.54,-89.5874 920.689,-96.5858"/>
</g>
<!-- Node139 -->
<g id="node30" class="node"><title>Node139</title>
<g id="a_node30"><a xlink:href="led_8c.html#af6a79b211d188e643a4f1cf7552ac7ee" target="_top" xlink:title="led_blinker_timer_func">
<polygon fill="white" stroke="black" points="379,-25.5 379,-44.5 493,-44.5 493,-25.5 379,-25.5"/>
<text text-anchor="middle" x="436" y="-32.5" font-family="Helvetica,sans-Serif" font-size="10.00">led_blinker_timer_func</text>
</a>
</g>
</g>
<!-- Node138&#45;&gt;Node139 -->
<g id="edge38" class="edge"><title>Node138&#45;&gt;Node139</title>
<path fill="none" stroke="midnightblue" d="M330.678,-35C342.267,-35 355.455,-35 368.462,-35"/>
<polygon fill="midnightblue" stroke="midnightblue" points="368.82,-38.5001 378.82,-35 368.82,-31.5001 368.82,-38.5001"/>
</g>
<!-- Node140 -->
<g id="node31" class="node"><title>Node140</title>
<g id="a_node31"><a xlink:href="led_8c.html#a7ef0b27e501c77cd25b8bb7a2de6d8bd" target="_top" xlink:title="led_off">
<polygon fill="white" stroke="black" points="537,-19.5 537,-38.5 583,-38.5 583,-19.5 537,-19.5"/>
<text text-anchor="middle" x="560" y="-26.5" font-family="Helvetica,sans-Serif" font-size="10.00">led_off</text>
</a>
</g>
</g>
<!-- Node139&#45;&gt;Node140 -->
<g id="edge39" class="edge"><title>Node139&#45;&gt;Node140</title>
<path fill="none" stroke="midnightblue" d="M493.001,-32.2458C504.531,-31.6788 516.3,-31.1 526.647,-30.5911"/>
<polygon fill="midnightblue" stroke="midnightblue" points="527.029,-34.0767 536.845,-30.0896 526.685,-27.0851 527.029,-34.0767"/>
</g>
<!-- Node141 -->
<g id="node32" class="node"><title>Node141</title>
<g id="a_node32"><a xlink:href="led_8c.html#a0a23edee5e1db0cd2928c18a42ffe96f" target="_top" xlink:title="led_on">
<polygon fill="white" stroke="black" points="537.5,-57.5 537.5,-76.5 582.5,-76.5 582.5,-57.5 537.5,-57.5"/>
<text text-anchor="middle" x="560" y="-64.5" font-family="Helvetica,sans-Serif" font-size="10.00">led_on</text>
</a>
</g>
</g>
<!-- Node139&#45;&gt;Node141 -->
<g id="edge41" class="edge"><title>Node139&#45;&gt;Node141</title>
<path fill="none" stroke="midnightblue" d="M473.274,-44.5144C490.491,-49.0304 510.872,-54.3762 527.441,-58.7221"/>
<polygon fill="midnightblue" stroke="midnightblue" points="526.641,-62.1308 537.202,-61.2825 528.417,-55.3598 526.641,-62.1308"/>
</g>
<!-- Node140&#45;&gt;Node137 -->
<g id="edge40" class="edge"><title>Node140&#45;&gt;Node137</title>
<path fill="none" stroke="midnightblue" d="M583.209,-25.6905C597.897,-23.5016 617.797,-20.5361 636.343,-17.7725"/>
<polygon fill="midnightblue" stroke="midnightblue" points="637.09,-21.1999 646.465,-16.2641 636.058,-14.2763 637.09,-21.1999"/>
</g>
<!-- Node141&#45;&gt;Node137 -->
<g id="edge42" class="edge"><title>Node141&#45;&gt;Node137</title>
<path fill="none" stroke="midnightblue" d="M574.46,-57.4833C586.855,-49.0658 605.996,-36.924 624,-29 629.142,-26.7369 634.63,-24.6532 640.152,-22.7615"/>
<polygon fill="midnightblue" stroke="midnightblue" points="641.619,-25.9662 650.062,-19.5664 639.471,-19.3039 641.619,-25.9662"/>
</g>
</g>
</svg>
