<?xml version="1.0" encoding="UTF-8" standalone="no"?>
<!DOCTYPE svg PUBLIC "-//W3C//DTD SVG 1.1//EN"
 "http://www.w3.org/Graphics/SVG/1.1/DTD/svg11.dtd">
<!-- Generated by graphviz version 2.38.0 (20140413.2041)
 -->
<!-- Title: mqtt/mqtt_msg.c Pages: 1 -->
<svg width="234pt" height="196pt"
 viewBox="0.00 0.00 233.50 196.00" xmlns="http://www.w3.org/2000/svg" xmlns:xlink="http://www.w3.org/1999/xlink">
<g id="graph0" class="graph" transform="scale(1 1) rotate(0) translate(4 192)">
<title>mqtt/mqtt_msg.c</title>
<polygon fill="white" stroke="none" points="-4,4 -4,-192 229.5,-192 229.5,4 -4,4"/>
<!-- Node0 -->
<g id="node1" class="node"><title>Node0</title>
<polygon fill="#bfbfbf" stroke="black" points="32,-168.5 32,-187.5 123,-187.5 123,-168.5 32,-168.5"/>
<text text-anchor="middle" x="77.5" y="-175.5" font-family="Helvetica,sans-Serif" font-size="10.00">mqtt/mqtt_msg.c</text>
</g>
<!-- Node1 -->
<g id="node2" class="node"><title>Node1</title>
<polygon fill="white" stroke="#bfbfbf" points="0,-112.5 0,-131.5 49,-131.5 49,-112.5 0,-112.5"/>
<text text-anchor="middle" x="24.5" y="-119.5" font-family="Helvetica,sans-Serif" font-size="10.00">string.h</text>
</g>
<!-- Node0&#45;&gt;Node1 -->
<g id="edge1" class="edge"><title>Node0&#45;&gt;Node1</title>
<path fill="none" stroke="midnightblue" d="M68.7481,-168.083C61.0303,-160.22 49.5953,-148.569 40.2835,-139.081"/>
<polygon fill="midnightblue" stroke="midnightblue" points="42.5916,-136.436 33.089,-131.751 37.5958,-141.34 42.5916,-136.436"/>
</g>
<!-- Node2 -->
<g id="node3" class="node"><title>Node2</title>
<g id="a_node3"><a xlink:href="mqtt__msg_8h.html" target="_top" xlink:title="mqtt_msg.h">
<polygon fill="white" stroke="black" points="105.5,-112.5 105.5,-131.5 173.5,-131.5 173.5,-112.5 105.5,-112.5"/>
<text text-anchor="middle" x="139.5" y="-119.5" font-family="Helvetica,sans-Serif" font-size="10.00">mqtt_msg.h</text>
</a>
</g>
</g>
<!-- Node0&#45;&gt;Node2 -->
<g id="edge2" class="edge"><title>Node0&#45;&gt;Node2</title>
<path fill="none" stroke="midnightblue" d="M87.4614,-168.324C96.6266,-160.341 110.437,-148.313 121.528,-138.653"/>
<polygon fill="midnightblue" stroke="midnightblue" points="124.115,-141.041 129.357,-131.834 119.518,-135.762 124.115,-141.041"/>
</g>
<!-- Node3 -->
<g id="node4" class="node"><title>Node3</title>
<polygon fill="white" stroke="#bfbfbf" points="40,-56.5 40,-75.5 115,-75.5 115,-56.5 40,-56.5"/>
<text text-anchor="middle" x="77.5" y="-63.5" font-family="Helvetica,sans-Serif" font-size="10.00">user_config.h</text>
</g>
<!-- Node0&#45;&gt;Node3 -->
<g id="edge7" class="edge"><title>Node0&#45;&gt;Node3</title>
<path fill="none" stroke="midnightblue" d="M77.5,-168.368C77.5,-150.617 77.5,-109.666 77.5,-85.5974"/>
<polygon fill="midnightblue" stroke="midnightblue" points="81.0001,-85.5914 77.5,-75.5914 74.0001,-85.5915 81.0001,-85.5914"/>
</g>
<!-- Node2&#45;&gt;Node3 -->
<g id="edge3" class="edge"><title>Node2&#45;&gt;Node3</title>
<path fill="none" stroke="midnightblue" d="M129.539,-112.324C120.373,-104.341 106.563,-92.3128 95.4718,-82.6529"/>
<polygon fill="midnightblue" stroke="midnightblue" points="97.4822,-79.7624 87.6426,-75.8339 92.8847,-85.041 97.4822,-79.7624"/>
</g>
<!-- Node4 -->
<g id="node5" class="node"><title>Node4</title>
<g id="a_node5"><a xlink:href="c__types_8h.html" target="_top" xlink:title="c_types.h">
<polygon fill="white" stroke="black" points="133,-56.5 133,-75.5 192,-75.5 192,-56.5 133,-56.5"/>
<text text-anchor="middle" x="162.5" y="-63.5" font-family="Helvetica,sans-Serif" font-size="10.00">c_types.h</text>
</a>
</g>
</g>
<!-- Node2&#45;&gt;Node4 -->
<g id="edge4" class="edge"><title>Node2&#45;&gt;Node4</title>
<path fill="none" stroke="midnightblue" d="M143.298,-112.083C146.413,-104.77 150.923,-94.1814 154.789,-85.1034"/>
<polygon fill="midnightblue" stroke="midnightblue" points="158.074,-86.3229 158.773,-75.7511 151.634,-83.5798 158.074,-86.3229"/>
</g>
<!-- Node5 -->
<g id="node6" class="node"><title>Node5</title>
<polygon fill="white" stroke="#bfbfbf" points="102,-0.5 102,-19.5 151,-19.5 151,-0.5 102,-0.5"/>
<text text-anchor="middle" x="126.5" y="-7.5" font-family="Helvetica,sans-Serif" font-size="10.00">stdint.h</text>
</g>
<!-- Node4&#45;&gt;Node5 -->
<g id="edge5" class="edge"><title>Node4&#45;&gt;Node5</title>
<path fill="none" stroke="midnightblue" d="M156.555,-56.083C151.523,-48.5341 144.163,-37.4948 137.987,-28.2298"/>
<polygon fill="midnightblue" stroke="midnightblue" points="140.793,-26.1301 132.334,-19.7511 134.969,-30.0131 140.793,-26.1301"/>
</g>
<!-- Node6 -->
<g id="node7" class="node"><title>Node6</title>
<polygon fill="white" stroke="#bfbfbf" points="169.5,-0.5 169.5,-19.5 225.5,-19.5 225.5,-0.5 169.5,-0.5"/>
<text text-anchor="middle" x="197.5" y="-7.5" font-family="Helvetica,sans-Serif" font-size="10.00">stdbool.h</text>
</g>
<!-- Node4&#45;&gt;Node6 -->
<g id="edge6" class="edge"><title>Node4&#45;&gt;Node6</title>
<path fill="none" stroke="midnightblue" d="M168.28,-56.083C173.172,-48.5341 180.327,-37.4948 186.333,-28.2298"/>
<polygon fill="midnightblue" stroke="midnightblue" points="189.326,-30.0463 191.828,-19.7511 183.452,-26.239 189.326,-30.0463"/>
</g>
</g>
</svg>
