<?xml version="1.0" encoding="UTF-8" standalone="no"?>
<!DOCTYPE svg PUBLIC "-//W3C//DTD SVG 1.1//EN"
 "http://www.w3.org/Graphics/SVG/1.1/DTD/svg11.dtd">
<!-- Generated by graphviz version 2.38.0 (20140413.2041)
 -->
<!-- Title: mqtt_msg_pingresp Pages: 1 -->
<svg width="772pt" height="66pt"
 viewBox="0.00 0.00 772.00 66.00" xmlns="http://www.w3.org/2000/svg" xmlns:xlink="http://www.w3.org/1999/xlink">
<g id="graph0" class="graph" transform="scale(1 1) rotate(0) translate(4 62)">
<title>mqtt_msg_pingresp</title>
<polygon fill="white" stroke="none" points="-4,4 -4,-62 768,-62 768,4 -4,4"/>
<!-- Node129 -->
<g id="node1" class="node"><title>Node129</title>
<polygon fill="#bfbfbf" stroke="black" points="0,-19.5 0,-38.5 102,-38.5 102,-19.5 0,-19.5"/>
<text text-anchor="middle" x="51" y="-26.5" font-family="Helvetica,sans-Serif" font-size="10.00">mqtt_msg_pingresp</text>
</g>
<!-- Node130 -->
<g id="node2" class="node"><title>Node130</title>
<g id="a_node2"><a xlink:href="mqtt__msg_8h.html#affd61b4be51d1e29e51dfbc42489ba36" target="_top" xlink:title="mqtt_get_retain">
<polygon fill="white" stroke="black" points="147,-38.5 147,-57.5 231,-57.5 231,-38.5 147,-38.5"/>
<text text-anchor="middle" x="189" y="-45.5" font-family="Helvetica,sans-Serif" font-size="10.00">mqtt_get_retain</text>
</a>
</g>
</g>
<!-- Node129&#45;&gt;Node130 -->
<g id="edge1" class="edge"><title>Node129&#45;&gt;Node130</title>
<path fill="none" stroke="midnightblue" d="M112.38,-37.4354C124.03,-39.063 135.982,-40.7328 146.845,-42.2504"/>
<polygon fill="midnightblue" stroke="midnightblue" points="112.643,-33.9383 102.255,-36.0209 111.675,-40.871 112.643,-33.9383"/>
</g>
<!-- Node131 -->
<g id="node3" class="node"><title>Node131</title>
<g id="a_node3"><a xlink:href="mqtt_8c.html#af470856972320b9c02da9fcb6f419fd0" target="_top" xlink:title="Client received callback function. ">
<polygon fill="white" stroke="black" points="138,-0.5 138,-19.5 240,-19.5 240,-0.5 138,-0.5"/>
<text text-anchor="middle" x="189" y="-7.5" font-family="Helvetica,sans-Serif" font-size="10.00">mqtt_tcpclient_recv</text>
</a>
</g>
</g>
<!-- Node129&#45;&gt;Node131 -->
<g id="edge2" class="edge"><title>Node129&#45;&gt;Node131</title>
<path fill="none" stroke="midnightblue" d="M112.231,-20.5854C120.823,-19.385 129.583,-18.1613 137.952,-16.9921"/>
<polygon fill="midnightblue" stroke="midnightblue" points="111.675,-17.129 102.255,-21.9791 112.643,-24.0617 111.675,-17.129"/>
</g>
<!-- Node132 -->
<g id="node4" class="node"><title>Node132</title>
<g id="a_node4"><a xlink:href="mqtt_8c.html#a36ecd969af1b9c87856f01be064a98cc" target="_top" xlink:title="Tcp client connect success callback function. ">
<polygon fill="white" stroke="black" points="276,-0.5 276,-19.5 410,-19.5 410,-0.5 276,-0.5"/>
<text text-anchor="middle" x="343" y="-7.5" font-family="Helvetica,sans-Serif" font-size="10.00">mqtt_tcpclient_connect_cb</text>
</a>
</g>
</g>
<!-- Node131&#45;&gt;Node132 -->
<g id="edge3" class="edge"><title>Node131&#45;&gt;Node132</title>
<path fill="none" stroke="midnightblue" d="M250.282,-10C258.687,-10 267.36,-10 275.866,-10"/>
<polygon fill="midnightblue" stroke="midnightblue" points="250.192,-6.5001 240.192,-10 250.192,-13.5001 250.192,-6.5001"/>
</g>
<!-- Node133 -->
<g id="node5" class="node"><title>Node133</title>
<g id="a_node5"><a xlink:href="mqtt_8c.html#ad34b681cb2f7473d8fc786c7ed468db5" target="_top" xlink:title="Begin connect to MQTT broker. ">
<polygon fill="white" stroke="black" points="446,-0.5 446,-19.5 532,-19.5 532,-0.5 446,-0.5"/>
<text text-anchor="middle" x="489" y="-7.5" font-family="Helvetica,sans-Serif" font-size="10.00">MQTT_Connect</text>
</a>
</g>
</g>
<!-- Node132&#45;&gt;Node133 -->
<g id="edge4" class="edge"><title>Node132&#45;&gt;Node133</title>
<path fill="none" stroke="midnightblue" d="M420.353,-10C429.08,-10 437.722,-10 445.762,-10"/>
<polygon fill="midnightblue" stroke="midnightblue" points="420.1,-6.5001 410.1,-10 420.1,-13.5001 420.1,-6.5001"/>
</g>
<!-- Node134 -->
<g id="node6" class="node"><title>Node134</title>
<g id="a_node6"><a xlink:href="mqtt_8c.html#a9d88fa6efb9163d4dbf9dc750a8d4ed0" target="_top" xlink:title="MQTT_Task">
<polygon fill="white" stroke="black" points="568,-0.5 568,-19.5 639,-19.5 639,-0.5 568,-0.5"/>
<text text-anchor="middle" x="603.5" y="-7.5" font-family="Helvetica,sans-Serif" font-size="10.00">MQTT_Task</text>
</a>
</g>
</g>
<!-- Node133&#45;&gt;Node134 -->
<g id="edge5" class="edge"><title>Node133&#45;&gt;Node134</title>
<path fill="none" stroke="midnightblue" d="M542.258,-10C550.908,-10 559.684,-10 567.764,-10"/>
<polygon fill="midnightblue" stroke="midnightblue" points="542.211,-6.5001 532.211,-10 542.211,-13.5001 542.211,-6.5001"/>
</g>
<!-- Node135 -->
<g id="node7" class="node"><title>Node135</title>
<g id="a_node7"><a xlink:href="mqtt_8c.html#a25cb7ac079d1d119250dac075c45acf1" target="_top" xlink:title="MQTT initialization mqtt client function. ">
<polygon fill="white" stroke="black" points="675,-0.5 675,-19.5 764,-19.5 764,-0.5 675,-0.5"/>
<text text-anchor="middle" x="719.5" y="-7.5" font-family="Helvetica,sans-Serif" font-size="10.00">MQTT_InitClient</text>
</a>
</g>
</g>
<!-- Node134&#45;&gt;Node135 -->
<g id="edge6" class="edge"><title>Node134&#45;&gt;Node135</title>
<path fill="none" stroke="midnightblue" d="M649.085,-10C657.541,-10 666.381,-10 674.809,-10"/>
<polygon fill="midnightblue" stroke="midnightblue" points="649.013,-6.5001 639.013,-10 649.013,-13.5001 649.013,-6.5001"/>
</g>
</g>
</svg>
