<?xml version="1.0" encoding="UTF-8" standalone="no"?>
<!DOCTYPE svg PUBLIC "-//W3C//DTD SVG 1.1//EN"
 "http://www.w3.org/Graphics/SVG/1.1/DTD/svg11.dtd">
<!-- Generated by graphviz version 2.38.0 (20140413.2041)
 -->
<!-- Title: mqtt_rpc_version Pages: 1 -->
<svg width="1029pt" height="679pt"
 viewBox="0.00 0.00 1029.00 679.00" xmlns="http://www.w3.org/2000/svg" xmlns:xlink="http://www.w3.org/1999/xlink">
<g id="graph0" class="graph" transform="scale(1 1) rotate(0) translate(4 675)">
<title>mqtt_rpc_version</title>
<polygon fill="white" stroke="none" points="-4,4 -4,-675 1025,-675 1025,4 -4,4"/>
<!-- Node1203 -->
<g id="node1" class="node"><title>Node1203</title>
<polygon fill="#bfbfbf" stroke="black" points="0,-322.5 0,-341.5 92,-341.5 92,-322.5 0,-322.5"/>
<text text-anchor="middle" x="46" y="-329.5" font-family="Helvetica,sans-Serif" font-size="10.00">mqtt_rpc_version</text>
</g>
<!-- Node1204 -->
<g id="node2" class="node"><title>Node1204</title>
<g id="a_node2"><a xlink:href="en61107__request_8c.html#a2e53aff8d679705828aa9c3583340eaa" target="_top" xlink:title="en61107_get_received\l_serial">
<polygon fill="white" stroke="black" points="144,-573 144,-603 258,-603 258,-573 144,-573"/>
<text text-anchor="start" x="152" y="-591" font-family="Helvetica,sans-Serif" font-size="10.00">en61107_get_received</text>
<text text-anchor="middle" x="201" y="-580" font-family="Helvetica,sans-Serif" font-size="10.00">_serial</text>
</a>
</g>
</g>
<!-- Node1203&#45;&gt;Node1204 -->
<g id="edge1" class="edge"><title>Node1203&#45;&gt;Node1204</title>
<path fill="none" stroke="midnightblue" d="M47.7282,-341.573C50.8132,-375.641 65.6851,-492.446 128,-558 131.525,-561.708 135.578,-564.975 139.926,-567.851"/>
<polygon fill="midnightblue" stroke="midnightblue" points="138.189,-570.89 148.59,-572.91 141.719,-564.845 138.189,-570.89"/>
</g>
<!-- Node1207 -->
<g id="node5" class="node"><title>Node1207</title>
<g id="a_node5"><a xlink:href="tinyprintf_8c.html#a9738cbc6c538d210941db282e240c7d6" target="_top" xlink:title="tfp_snprintf">
<polygon fill="white" stroke="black" points="506.5,-537.5 506.5,-556.5 571.5,-556.5 571.5,-537.5 506.5,-537.5"/>
<text text-anchor="middle" x="539" y="-544.5" font-family="Helvetica,sans-Serif" font-size="10.00">tfp_snprintf</text>
</a>
</g>
</g>
<!-- Node1203&#45;&gt;Node1207 -->
<g id="edge58" class="edge"><title>Node1203&#45;&gt;Node1207</title>
<path fill="none" stroke="midnightblue" d="M54.5137,-341.621C67.9888,-358.47 97.6976,-393.824 128,-418 201.349,-476.519 220.751,-496.033 310,-525 372.594,-545.316 449.536,-548.559 496.121,-548.313"/>
<polygon fill="midnightblue" stroke="midnightblue" points="496.189,-551.813 506.151,-548.203 496.113,-544.813 496.189,-551.813"/>
</g>
<!-- Node1220 -->
<g id="node18" class="node"><title>Node1220</title>
<g id="a_node18"><a xlink:href="crypto_8c.html#a7991ec94c8faa24921947687f2d587a0" target="_top" xlink:title="encrypt_aes_hmac_combined">
<polygon fill="white" stroke="black" points="128,-389.5 128,-408.5 274,-408.5 274,-389.5 128,-389.5"/>
<text text-anchor="middle" x="201" y="-396.5" font-family="Helvetica,sans-Serif" font-size="10.00">encrypt_aes_hmac_combined</text>
</a>
</g>
</g>
<!-- Node1203&#45;&gt;Node1220 -->
<g id="edge20" class="edge"><title>Node1203&#45;&gt;Node1220</title>
<path fill="none" stroke="midnightblue" d="M68.9212,-341.599C95.0525,-353.043 138.912,-372.249 168.63,-385.263"/>
<polygon fill="midnightblue" stroke="midnightblue" points="167.555,-388.613 178.119,-389.418 170.363,-382.201 167.555,-388.613"/>
</g>
<!-- Node1231 -->
<g id="node29" class="node"><title>Node1231</title>
<g id="a_node29"><a xlink:href="unix__time_8c.html#a36607dbd5be7bee11f8c20932b3df407" target="_top" xlink:title="get_unix_time">
<polygon fill="white" stroke="black" points="162.5,-322.5 162.5,-341.5 239.5,-341.5 239.5,-322.5 162.5,-322.5"/>
<text text-anchor="middle" x="201" y="-329.5" font-family="Helvetica,sans-Serif" font-size="10.00">get_unix_time</text>
</a>
</g>
</g>
<!-- Node1203&#45;&gt;Node1231 -->
<g id="edge38" class="edge"><title>Node1203&#45;&gt;Node1231</title>
<path fill="none" stroke="midnightblue" d="M92.0775,-332C111.056,-332 133.157,-332 152.399,-332"/>
<polygon fill="midnightblue" stroke="midnightblue" points="152.462,-335.5 162.462,-332 152.462,-328.5 152.462,-335.5"/>
</g>
<!-- Node1233 -->
<g id="node31" class="node"><title>Node1233</title>
<g id="a_node31"><a xlink:href="kmp__request_8c.html#ae812917b104be167131436ca730cdbe6" target="_top" xlink:title="kmp_get_received_serial">
<polygon fill="white" stroke="black" points="138.5,-284.5 138.5,-303.5 263.5,-303.5 263.5,-284.5 138.5,-284.5"/>
<text text-anchor="middle" x="201" y="-291.5" font-family="Helvetica,sans-Serif" font-size="10.00">kmp_get_received_serial</text>
</a>
</g>
</g>
<!-- Node1203&#45;&gt;Node1233 -->
<g id="edge40" class="edge"><title>Node1203&#45;&gt;Node1233</title>
<path fill="none" stroke="midnightblue" d="M85.6084,-322.411C105.707,-317.419 130.475,-311.268 151.819,-305.967"/>
<polygon fill="midnightblue" stroke="midnightblue" points="152.808,-309.327 161.669,-303.52 151.12,-302.534 152.808,-309.327"/>
</g>
<!-- Node1234 -->
<g id="node32" class="node"><title>Node1234</title>
<g id="a_node32"><a xlink:href="mqtt_8h.html#a848a6701c4c7ec3432e38ea57c003aad" target="_top" xlink:title="MQTT publish function. ">
<polygon fill="white" stroke="black" points="160,-161.5 160,-180.5 242,-180.5 242,-161.5 160,-161.5"/>
<text text-anchor="middle" x="201" y="-168.5" font-family="Helvetica,sans-Serif" font-size="10.00">MQTT_Publish</text>
</a>
</g>
</g>
<!-- Node1203&#45;&gt;Node1234 -->
<g id="edge41" class="edge"><title>Node1203&#45;&gt;Node1234</title>
<path fill="none" stroke="midnightblue" d="M56.1127,-322.411C81.2459,-295.963 151.8,-221.72 183.826,-188.02"/>
<polygon fill="midnightblue" stroke="midnightblue" points="186.39,-190.402 190.742,-180.742 181.316,-185.58 186.39,-190.402"/>
</g>
<!-- Node1250 -->
<g id="node48" class="node"><title>Node1250</title>
<g id="a_node48"><a xlink:href="user__interface_8h.html#a82dfc665528462dbaa945e45512b8c93" target="_top" xlink:title="system_get_sdk_version">
<polygon fill="white" stroke="black" points="138.5,-123.5 138.5,-142.5 263.5,-142.5 263.5,-123.5 138.5,-123.5"/>
<text text-anchor="middle" x="201" y="-130.5" font-family="Helvetica,sans-Serif" font-size="10.00">system_get_sdk_version</text>
</a>
</g>
</g>
<!-- Node1203&#45;&gt;Node1250 -->
<g id="edge57" class="edge"><title>Node1203&#45;&gt;Node1250</title>
<path fill="none" stroke="midnightblue" d="M48.3748,-322.465C53.2183,-292.462 72.3132,-199.188 128,-152 129.985,-150.318 132.103,-148.783 134.32,-147.382"/>
<polygon fill="midnightblue" stroke="midnightblue" points="136.105,-150.398 143.298,-142.619 132.824,-144.214 136.105,-150.398"/>
</g>
<!-- Node1205 -->
<g id="node3" class="node"><title>Node1205</title>
<g id="a_node3"><a xlink:href="utils_8c.html#a1191f72bae2076af31834d47faa7ee14" target="_top" xlink:title="multiply_str_by_1000">
<polygon fill="white" stroke="black" points="325.5,-577.5 325.5,-596.5 434.5,-596.5 434.5,-577.5 325.5,-577.5"/>
<text text-anchor="middle" x="380" y="-584.5" font-family="Helvetica,sans-Serif" font-size="10.00">multiply_str_by_1000</text>
</a>
</g>
</g>
<!-- Node1204&#45;&gt;Node1205 -->
<g id="edge2" class="edge"><title>Node1204&#45;&gt;Node1205</title>
<path fill="none" stroke="midnightblue" d="M258.004,-587.684C276.206,-587.581 296.538,-587.466 315.261,-587.36"/>
<polygon fill="midnightblue" stroke="midnightblue" points="315.494,-590.859 325.474,-587.302 315.454,-583.859 315.494,-590.859"/>
</g>
<!-- Node1206 -->
<g id="node4" class="node"><title>Node1206</title>
<g id="a_node4"><a xlink:href="utils_8c.html#af7f86262824738791bf4a3328d09aacf" target="_top" xlink:title="int_pow">
<polygon fill="white" stroke="black" points="514,-577.5 514,-596.5 564,-596.5 564,-577.5 514,-577.5"/>
<text text-anchor="middle" x="539" y="-584.5" font-family="Helvetica,sans-Serif" font-size="10.00">int_pow</text>
</a>
</g>
</g>
<!-- Node1205&#45;&gt;Node1206 -->
<g id="edge3" class="edge"><title>Node1205&#45;&gt;Node1206</title>
<path fill="none" stroke="midnightblue" d="M434.591,-587C457.332,-587 483.183,-587 503.349,-587"/>
<polygon fill="midnightblue" stroke="midnightblue" points="503.621,-590.5 513.621,-587 503.621,-583.5 503.621,-590.5"/>
</g>
<!-- Node1205&#45;&gt;Node1207 -->
<g id="edge4" class="edge"><title>Node1205&#45;&gt;Node1207</title>
<path fill="none" stroke="midnightblue" d="M418.605,-577.419C442.022,-571.453 472.174,-563.771 496.318,-557.62"/>
<polygon fill="midnightblue" stroke="midnightblue" points="497.434,-560.947 506.26,-555.087 495.706,-554.164 497.434,-560.947"/>
</g>
<!-- Node1208 -->
<g id="node6" class="node"><title>Node1208</title>
<g id="a_node6"><a xlink:href="tinyprintf_8c.html#ac8c8a66133cf0d7009c0d73b55311a44" target="_top" xlink:title="tfp_vsnprintf">
<polygon fill="white" stroke="black" points="644,-537.5 644,-556.5 715,-556.5 715,-537.5 644,-537.5"/>
<text text-anchor="middle" x="679.5" y="-544.5" font-family="Helvetica,sans-Serif" font-size="10.00">tfp_vsnprintf</text>
</a>
</g>
</g>
<!-- Node1207&#45;&gt;Node1208 -->
<g id="edge5" class="edge"><title>Node1207&#45;&gt;Node1208</title>
<path fill="none" stroke="midnightblue" d="M571.775,-547C590.137,-547 613.53,-547 633.732,-547"/>
<polygon fill="midnightblue" stroke="midnightblue" points="633.962,-550.5 643.962,-547 633.962,-543.5 633.962,-550.5"/>
</g>
<!-- Node1209 -->
<g id="node7" class="node"><title>Node1209</title>
<g id="a_node7"><a xlink:href="tinyprintf_8c.html#a5877e42444463efc71a91b5fe76a6145" target="_top" xlink:title="tfp_format">
<polygon fill="white" stroke="black" points="784,-518.5 784,-537.5 845,-537.5 845,-518.5 784,-518.5"/>
<text text-anchor="middle" x="814.5" y="-525.5" font-family="Helvetica,sans-Serif" font-size="10.00">tfp_format</text>
</a>
</g>
</g>
<!-- Node1208&#45;&gt;Node1209 -->
<g id="edge6" class="edge"><title>Node1208&#45;&gt;Node1209</title>
<path fill="none" stroke="midnightblue" d="M715.097,-542.058C733.021,-539.497 754.997,-536.358 773.631,-533.696"/>
<polygon fill="midnightblue" stroke="midnightblue" points="774.188,-537.152 783.593,-532.272 773.198,-530.222 774.188,-537.152"/>
</g>
<!-- Node1219 -->
<g id="node17" class="node"><title>Node1219</title>
<g id="a_node17"><a xlink:href="tinyprintf_8c.html#a919051024b2d729e34a54648b3f2462d" target="_top" xlink:title="_vsnprintf_putcf">
<polygon fill="white" stroke="black" points="771.5,-556.5 771.5,-575.5 857.5,-575.5 857.5,-556.5 771.5,-556.5"/>
<text text-anchor="middle" x="814.5" y="-563.5" font-family="Helvetica,sans-Serif" font-size="10.00">_vsnprintf_putcf</text>
</a>
</g>
</g>
<!-- Node1208&#45;&gt;Node1219 -->
<g id="edge19" class="edge"><title>Node1208&#45;&gt;Node1219</title>
<path fill="none" stroke="midnightblue" d="M715.097,-551.942C729.24,-553.963 745.905,-556.344 761.462,-558.566"/>
<polygon fill="midnightblue" stroke="midnightblue" points="761.092,-562.049 771.486,-559.998 762.082,-555.119 761.092,-562.049"/>
</g>
<!-- Node1210 -->
<g id="node8" class="node"><title>Node1210</title>
<g id="a_node8"><a xlink:href="tinyprintf_8c.html#aa97593a5e53af85b608ad0910db92d77" target="_top" xlink:title="a2u">
<polygon fill="white" stroke="black" points="906,-651.5 906,-670.5 938,-670.5 938,-651.5 906,-651.5"/>
<text text-anchor="middle" x="922" y="-658.5" font-family="Helvetica,sans-Serif" font-size="10.00">a2u</text>
</a>
</g>
</g>
<!-- Node1209&#45;&gt;Node1210 -->
<g id="edge7" class="edge"><title>Node1209&#45;&gt;Node1210</title>
<path fill="none" stroke="midnightblue" d="M845.213,-535.994C851.336,-538.711 857.331,-542.296 862,-547 892.35,-577.575 874.668,-600.784 898,-637 899.477,-639.292 901.192,-641.556 903.007,-643.724"/>
<polygon fill="midnightblue" stroke="midnightblue" points="900.836,-646.528 910.211,-651.464 905.96,-641.759 900.836,-646.528"/>
</g>
<!-- Node1212 -->
<g id="node10" class="node"><title>Node1212</title>
<g id="a_node10"><a xlink:href="tinyprintf_8c.html#abcf035dd576671b0cc897de9dd8c75b0" target="_top" xlink:title="ulli2a">
<polygon fill="white" stroke="black" points="982,-594.5 982,-613.5 1021,-613.5 1021,-594.5 982,-594.5"/>
<text text-anchor="middle" x="1001.5" y="-601.5" font-family="Helvetica,sans-Serif" font-size="10.00">ulli2a</text>
</a>
</g>
</g>
<!-- Node1209&#45;&gt;Node1212 -->
<g id="edge9" class="edge"><title>Node1209&#45;&gt;Node1212</title>
<path fill="none" stroke="midnightblue" d="M845.091,-536.869C851.083,-539.517 857.055,-542.854 862,-547 884.961,-566.25 871.759,-589.537 898,-604 920.5,-616.402 950.223,-614.815 971.865,-611.074"/>
<polygon fill="midnightblue" stroke="midnightblue" points="972.641,-614.488 981.773,-609.116 971.284,-607.621 972.641,-614.488"/>
</g>
<!-- Node1213 -->
<g id="node11" class="node"><title>Node1213</title>
<g id="a_node11"><a xlink:href="tinyprintf_8c.html#a1d61347854a8c290d59b4a21efcefd75" target="_top" xlink:title="uli2a">
<polygon fill="white" stroke="black" points="983,-508.5 983,-527.5 1020,-527.5 1020,-508.5 983,-508.5"/>
<text text-anchor="middle" x="1001.5" y="-515.5" font-family="Helvetica,sans-Serif" font-size="10.00">uli2a</text>
</a>
</g>
</g>
<!-- Node1209&#45;&gt;Node1213 -->
<g id="edge10" class="edge"><title>Node1209&#45;&gt;Node1213</title>
<path fill="none" stroke="midnightblue" d="M845.112,-529.525C871.607,-530.527 911.479,-531.141 946,-528 954.854,-527.194 964.419,-525.667 973.026,-524.044"/>
<polygon fill="midnightblue" stroke="midnightblue" points="973.822,-527.455 982.94,-522.059 972.447,-520.591 973.822,-527.455"/>
</g>
<!-- Node1214 -->
<g id="node12" class="node"><title>Node1214</title>
<g id="a_node12"><a xlink:href="tinyprintf_8c.html#ac87ff66a592723f55692eaf8e3f19df8" target="_top" xlink:title="ui2a">
<polygon fill="white" stroke="black" points="984,-451.5 984,-470.5 1019,-470.5 1019,-451.5 984,-451.5"/>
<text text-anchor="middle" x="1001.5" y="-458.5" font-family="Helvetica,sans-Serif" font-size="10.00">ui2a</text>
</a>
</g>
</g>
<!-- Node1209&#45;&gt;Node1214 -->
<g id="edge11" class="edge"><title>Node1209&#45;&gt;Node1214</title>
<path fill="none" stroke="midnightblue" d="M834.151,-518.391C850.646,-510.142 875.514,-498.302 898,-490 923.379,-480.63 953.223,-472.499 974.142,-467.251"/>
<polygon fill="midnightblue" stroke="midnightblue" points="975.042,-470.634 983.916,-464.846 973.369,-463.837 975.042,-470.634"/>
</g>
<!-- Node1215 -->
<g id="node13" class="node"><title>Node1215</title>
<g id="a_node13"><a xlink:href="tinyprintf_8c.html#a6252dbfebb2c8783c4e3107d551082dd" target="_top" xlink:title="putchw">
<polygon fill="white" stroke="black" points="898,-385.5 898,-404.5 946,-404.5 946,-385.5 898,-385.5"/>
<text text-anchor="middle" x="922" y="-392.5" font-family="Helvetica,sans-Serif" font-size="10.00">putchw</text>
</a>
</g>
</g>
<!-- Node1209&#45;&gt;Node1215 -->
<g id="edge12" class="edge"><title>Node1209&#45;&gt;Node1215</title>
<path fill="none" stroke="midnightblue" d="M821.38,-518.219C833.969,-497.689 865.074,-449.103 898,-414 898.877,-413.065 899.799,-412.133 900.75,-411.213"/>
<polygon fill="midnightblue" stroke="midnightblue" points="903.149,-413.764 908.313,-404.513 898.507,-408.524 903.149,-413.764"/>
</g>
<!-- Node1216 -->
<g id="node14" class="node"><title>Node1216</title>
<g id="a_node14"><a xlink:href="tinyprintf_8c.html#a49c6d2b3d4088012f2c1fe344eef69f3" target="_top" xlink:title="lli2a">
<polygon fill="white" stroke="black" points="905,-575.5 905,-594.5 939,-594.5 939,-575.5 905,-575.5"/>
<text text-anchor="middle" x="922" y="-582.5" font-family="Helvetica,sans-Serif" font-size="10.00">lli2a</text>
</a>
</g>
</g>
<!-- Node1209&#45;&gt;Node1216 -->
<g id="edge13" class="edge"><title>Node1209&#45;&gt;Node1216</title>
<path fill="none" stroke="midnightblue" d="M841.467,-537.624C848.262,-540.408 855.502,-543.617 862,-547 874.664,-553.594 888.097,-562.114 898.941,-569.414"/>
<polygon fill="midnightblue" stroke="midnightblue" points="897.141,-572.424 907.368,-575.191 901.099,-566.65 897.141,-572.424"/>
</g>
<!-- Node1217 -->
<g id="node15" class="node"><title>Node1217</title>
<g id="a_node15"><a xlink:href="tinyprintf_8c.html#afebb7696337c3f599b5e8db35c560684" target="_top" xlink:title="li2a">
<polygon fill="white" stroke="black" points="906,-499.5 906,-518.5 938,-518.5 938,-499.5 906,-499.5"/>
<text text-anchor="middle" x="922" y="-506.5" font-family="Helvetica,sans-Serif" font-size="10.00">li2a</text>
</a>
</g>
</g>
<!-- Node1209&#45;&gt;Node1217 -->
<g id="edge15" class="edge"><title>Node1209&#45;&gt;Node1217</title>
<path fill="none" stroke="midnightblue" d="M845.168,-522.657C861.058,-519.795 880.428,-516.307 895.614,-513.572"/>
<polygon fill="midnightblue" stroke="midnightblue" points="896.602,-516.95 905.823,-511.733 895.361,-510.061 896.602,-516.95"/>
</g>
<!-- Node1218 -->
<g id="node16" class="node"><title>Node1218</title>
<g id="a_node16"><a xlink:href="tinyprintf_8c.html#a90f9fd8f2133cda7f50be8d67823405c" target="_top" xlink:title="i2a">
<polygon fill="white" stroke="black" points="907.5,-423.5 907.5,-442.5 936.5,-442.5 936.5,-423.5 907.5,-423.5"/>
<text text-anchor="middle" x="922" y="-430.5" font-family="Helvetica,sans-Serif" font-size="10.00">i2a</text>
</a>
</g>
</g>
<!-- Node1209&#45;&gt;Node1218 -->
<g id="edge17" class="edge"><title>Node1209&#45;&gt;Node1218</title>
<path fill="none" stroke="midnightblue" d="M826.393,-518.191C844.413,-501.965 880.619,-469.362 902.644,-449.529"/>
<polygon fill="midnightblue" stroke="midnightblue" points="905.234,-451.907 910.323,-442.614 900.55,-446.705 905.234,-451.907"/>
</g>
<!-- Node1211 -->
<g id="node9" class="node"><title>Node1211</title>
<g id="a_node9"><a xlink:href="tinyprintf_8c.html#aa853a0c5ba64fa2546d488b86192e7e3" target="_top" xlink:title="a2d">
<polygon fill="white" stroke="black" points="985.5,-651.5 985.5,-670.5 1017.5,-670.5 1017.5,-651.5 985.5,-651.5"/>
<text text-anchor="middle" x="1001.5" y="-658.5" font-family="Helvetica,sans-Serif" font-size="10.00">a2d</text>
</a>
</g>
</g>
<!-- Node1210&#45;&gt;Node1211 -->
<g id="edge8" class="edge"><title>Node1210&#45;&gt;Node1211</title>
<path fill="none" stroke="midnightblue" d="M938.312,-661C948.888,-661 963.197,-661 975.423,-661"/>
<polygon fill="midnightblue" stroke="midnightblue" points="975.484,-664.5 985.484,-661 975.484,-657.5 975.484,-664.5"/>
</g>
<!-- Node1216&#45;&gt;Node1212 -->
<g id="edge14" class="edge"><title>Node1216&#45;&gt;Node1212</title>
<path fill="none" stroke="midnightblue" d="M939.058,-588.937C948.563,-591.267 960.88,-594.287 971.987,-597.01"/>
<polygon fill="midnightblue" stroke="midnightblue" points="971.187,-600.417 981.733,-599.399 972.854,-593.619 971.187,-600.417"/>
</g>
<!-- Node1217&#45;&gt;Node1213 -->
<g id="edge16" class="edge"><title>Node1217&#45;&gt;Node1213</title>
<path fill="none" stroke="midnightblue" d="M938.312,-510.778C948.106,-511.916 961.101,-513.425 972.678,-514.769"/>
<polygon fill="midnightblue" stroke="midnightblue" points="972.442,-518.265 982.779,-515.942 973.25,-511.312 972.442,-518.265"/>
</g>
<!-- Node1218&#45;&gt;Node1214 -->
<g id="edge18" class="edge"><title>Node1218&#45;&gt;Node1214</title>
<path fill="none" stroke="midnightblue" d="M936.855,-438.006C947.231,-441.754 961.735,-446.994 974.277,-451.526"/>
<polygon fill="midnightblue" stroke="midnightblue" points="973.204,-454.86 983.798,-454.966 975.583,-448.276 973.204,-454.86"/>
</g>
<!-- Node1221 -->
<g id="node19" class="node"><title>Node1221</title>
<g id="a_node19"><a xlink:href="aes_8h.html#a9cb9b4ad9fb6311391d669e54f718cf4" target="_top" xlink:title="AES128_CBC_encrypt\l_buffer">
<polygon fill="white" stroke="black" points="321.5,-447 321.5,-477 438.5,-477 438.5,-447 321.5,-447"/>
<text text-anchor="start" x="329.5" y="-465" font-family="Helvetica,sans-Serif" font-size="10.00">AES128_CBC_encrypt</text>
<text text-anchor="middle" x="380" y="-454" font-family="Helvetica,sans-Serif" font-size="10.00">_buffer</text>
</a>
</g>
</g>
<!-- Node1220&#45;&gt;Node1221 -->
<g id="edge21" class="edge"><title>Node1220&#45;&gt;Node1221</title>
<path fill="none" stroke="midnightblue" d="M228.882,-408.568C254.825,-417.802 294.79,-432.027 326.964,-443.479"/>
<polygon fill="midnightblue" stroke="midnightblue" points="326.08,-446.879 336.674,-446.935 328.427,-440.284 326.08,-446.879"/>
</g>
<!-- Node1222 -->
<g id="node20" class="node"><title>Node1222</title>
<g id="a_node20"><a xlink:href="hmac-sha256_8c.html#a7fad664b062689148a6b1ee5d4bc790d" target="_top" xlink:title="hmac_sha256_final">
<polygon fill="white" stroke="black" points="488.5,-370.5 488.5,-389.5 589.5,-389.5 589.5,-370.5 488.5,-370.5"/>
<text text-anchor="middle" x="539" y="-377.5" font-family="Helvetica,sans-Serif" font-size="10.00">hmac_sha256_final</text>
</a>
</g>
</g>
<!-- Node1220&#45;&gt;Node1222 -->
<g id="edge22" class="edge"><title>Node1220&#45;&gt;Node1222</title>
<path fill="none" stroke="midnightblue" d="M274.08,-394.924C334.893,-391.485 420.922,-386.62 478.03,-383.391"/>
<polygon fill="midnightblue" stroke="midnightblue" points="478.558,-386.867 488.344,-382.808 478.163,-379.878 478.558,-386.867"/>
</g>
<!-- Node1227 -->
<g id="node25" class="node"><title>Node1227</title>
<g id="a_node25"><a xlink:href="hmac-sha256_8c.html#a553a08d76959d7d64d25927fa418af1f" target="_top" xlink:title="hmac_sha256_init">
<polygon fill="white" stroke="black" points="332.5,-332.5 332.5,-351.5 427.5,-351.5 427.5,-332.5 332.5,-332.5"/>
<text text-anchor="middle" x="380" y="-339.5" font-family="Helvetica,sans-Serif" font-size="10.00">hmac_sha256_init</text>
</a>
</g>
</g>
<!-- Node1220&#45;&gt;Node1227 -->
<g id="edge28" class="edge"><title>Node1220&#45;&gt;Node1227</title>
<path fill="none" stroke="midnightblue" d="M231.626,-389.459C261.236,-379.924 306.938,-365.206 339.594,-354.69"/>
<polygon fill="midnightblue" stroke="midnightblue" points="340.832,-357.969 349.278,-351.572 338.686,-351.306 340.832,-357.969"/>
</g>
<!-- Node1229 -->
<g id="node27" class="node"><title>Node1229</title>
<g id="a_node27"><a xlink:href="hmac-sha256_8c.html#a604cda5243425d008a47d89401e7c987" target="_top" xlink:title="hmac_sha256_update">
<polygon fill="white" stroke="black" points="324,-408.5 324,-427.5 436,-427.5 436,-408.5 324,-408.5"/>
<text text-anchor="middle" x="380" y="-415.5" font-family="Helvetica,sans-Serif" font-size="10.00">hmac_sha256_update</text>
</a>
</g>
</g>
<!-- Node1220&#45;&gt;Node1229 -->
<g id="edge35" class="edge"><title>Node1220&#45;&gt;Node1229</title>
<path fill="none" stroke="midnightblue" d="M274.248,-406.755C287.297,-408.156 300.834,-409.609 313.671,-410.987"/>
<polygon fill="midnightblue" stroke="midnightblue" points="313.477,-414.487 323.794,-412.074 314.224,-407.526 313.477,-414.487"/>
</g>
<!-- Node1230 -->
<g id="node28" class="node"><title>Node1230</title>
<g id="a_node28"><a xlink:href="osapi_8h.html#a266983148ba59f7bac481c76b7540da2" target="_top" xlink:title="os_get_random">
<polygon fill="white" stroke="black" points="338.5,-496.5 338.5,-515.5 421.5,-515.5 421.5,-496.5 338.5,-496.5"/>
<text text-anchor="middle" x="380" y="-503.5" font-family="Helvetica,sans-Serif" font-size="10.00">os_get_random</text>
</a>
</g>
</g>
<!-- Node1220&#45;&gt;Node1230 -->
<g id="edge37" class="edge"><title>Node1220&#45;&gt;Node1230</title>
<path fill="none" stroke="midnightblue" d="M211.137,-408.759C228.615,-426.856 268.729,-465.713 310,-487 315.725,-489.953 321.961,-492.489 328.266,-494.656"/>
<polygon fill="midnightblue" stroke="midnightblue" points="327.579,-498.109 338.168,-497.764 329.675,-491.43 327.579,-498.109"/>
</g>
<!-- Node1223 -->
<g id="node21" class="node"><title>Node1223</title>
<g id="a_node21"><a xlink:href="sha256_8c.html#a28a4e37e67f8b97b374c49d8b83d8167" target="_top" xlink:title="sha256_final">
<polygon fill="white" stroke="black" points="644,-370.5 644,-389.5 715,-389.5 715,-370.5 644,-370.5"/>
<text text-anchor="middle" x="679.5" y="-377.5" font-family="Helvetica,sans-Serif" font-size="10.00">sha256_final</text>
</a>
</g>
</g>
<!-- Node1222&#45;&gt;Node1223 -->
<g id="edge23" class="edge"><title>Node1222&#45;&gt;Node1223</title>
<path fill="none" stroke="midnightblue" d="M589.61,-380C603.96,-380 619.537,-380 633.583,-380"/>
<polygon fill="midnightblue" stroke="midnightblue" points="633.98,-383.5 643.98,-380 633.98,-376.5 633.98,-383.5"/>
</g>
<!-- Node1225 -->
<g id="node23" class="node"><title>Node1225</title>
<g id="a_node23"><a xlink:href="sha256_8c.html#ad1c794b2d7e8eba243628e45cb69ef94" target="_top" xlink:title="sha256_init">
<polygon fill="white" stroke="black" points="646.5,-332.5 646.5,-351.5 712.5,-351.5 712.5,-332.5 646.5,-332.5"/>
<text text-anchor="middle" x="679.5" y="-339.5" font-family="Helvetica,sans-Serif" font-size="10.00">sha256_init</text>
</a>
</g>
</g>
<!-- Node1222&#45;&gt;Node1225 -->
<g id="edge25" class="edge"><title>Node1222&#45;&gt;Node1225</title>
<path fill="none" stroke="midnightblue" d="M574.949,-370.411C593.733,-365.257 617.021,-358.868 636.753,-353.454"/>
<polygon fill="midnightblue" stroke="midnightblue" points="637.692,-356.826 646.41,-350.805 635.84,-350.075 637.692,-356.826"/>
</g>
<!-- Node1226 -->
<g id="node24" class="node"><title>Node1226</title>
<g id="a_node24"><a xlink:href="sha256_8c.html#a00647246fd4532c27d1aafd709d5973d" target="_top" xlink:title="sha256_update">
<polygon fill="white" stroke="black" points="638,-408.5 638,-427.5 721,-427.5 721,-408.5 638,-408.5"/>
<text text-anchor="middle" x="679.5" y="-415.5" font-family="Helvetica,sans-Serif" font-size="10.00">sha256_update</text>
</a>
</g>
</g>
<!-- Node1222&#45;&gt;Node1226 -->
<g id="edge26" class="edge"><title>Node1222&#45;&gt;Node1226</title>
<path fill="none" stroke="midnightblue" d="M574.949,-389.589C592.828,-394.494 614.788,-400.52 633.878,-405.757"/>
<polygon fill="midnightblue" stroke="midnightblue" points="632.992,-409.143 643.562,-408.414 634.844,-402.393 632.992,-409.143"/>
</g>
<!-- Node1224 -->
<g id="node22" class="node"><title>Node1224</title>
<g id="a_node22"><a xlink:href="sha256_8c.html#a97b828e7b6479297e92fb5ffc5225ee3" target="_top" xlink:title="sha256_transform">
<polygon fill="white" stroke="black" points="767,-389.5 767,-408.5 862,-408.5 862,-389.5 767,-389.5"/>
<text text-anchor="middle" x="814.5" y="-396.5" font-family="Helvetica,sans-Serif" font-size="10.00">sha256_transform</text>
</a>
</g>
</g>
<!-- Node1223&#45;&gt;Node1224 -->
<g id="edge24" class="edge"><title>Node1223&#45;&gt;Node1224</title>
<path fill="none" stroke="midnightblue" d="M715.097,-384.942C727.732,-386.747 742.38,-388.84 756.452,-390.85"/>
<polygon fill="midnightblue" stroke="midnightblue" points="756.165,-394.345 766.559,-392.294 757.155,-387.415 756.165,-394.345"/>
</g>
<!-- Node1226&#45;&gt;Node1224 -->
<g id="edge27" class="edge"><title>Node1226&#45;&gt;Node1224</title>
<path fill="none" stroke="midnightblue" d="M721.127,-412.196C732.347,-410.593 744.732,-408.824 756.689,-407.116"/>
<polygon fill="midnightblue" stroke="midnightblue" points="757.193,-410.579 766.597,-405.7 756.203,-403.65 757.193,-410.579"/>
</g>
<!-- Node1227&#45;&gt;Node1225 -->
<g id="edge29" class="edge"><title>Node1227&#45;&gt;Node1225</title>
<path fill="none" stroke="midnightblue" d="M423.677,-332.488C442.654,-328.723 465.335,-324.855 486,-323 532.923,-318.789 545.164,-317.917 592,-323 606.637,-324.589 622.427,-327.647 636.459,-330.854"/>
<polygon fill="midnightblue" stroke="midnightblue" points="635.786,-334.291 646.324,-333.196 637.403,-327.481 635.786,-334.291"/>
</g>
<!-- Node1227&#45;&gt;Node1226 -->
<g id="edge34" class="edge"><title>Node1227&#45;&gt;Node1226</title>
<path fill="none" stroke="midnightblue" d="M394.473,-351.632C413.729,-364.84 450.705,-388.165 486,-399 532.563,-413.295 588.155,-417.491 627.599,-418.442"/>
<polygon fill="midnightblue" stroke="midnightblue" points="627.707,-421.945 637.768,-418.625 627.833,-414.946 627.707,-421.945"/>
</g>
<!-- Node1228 -->
<g id="node26" class="node"><title>Node1228</title>
<g id="a_node26"><a xlink:href="sha256_8c.html#a7f22a0894ca55160852ddcdff7a1f2fc" target="_top" xlink:title="sha256_raw">
<polygon fill="white" stroke="black" points="504.5,-332.5 504.5,-351.5 573.5,-351.5 573.5,-332.5 504.5,-332.5"/>
<text text-anchor="middle" x="539" y="-339.5" font-family="Helvetica,sans-Serif" font-size="10.00">sha256_raw</text>
</a>
</g>
</g>
<!-- Node1227&#45;&gt;Node1228 -->
<g id="edge30" class="edge"><title>Node1227&#45;&gt;Node1228</title>
<path fill="none" stroke="midnightblue" d="M427.68,-342C448.713,-342 473.413,-342 494.104,-342"/>
<polygon fill="midnightblue" stroke="midnightblue" points="494.211,-345.5 504.211,-342 494.211,-338.5 494.211,-345.5"/>
</g>
<!-- Node1228&#45;&gt;Node1223 -->
<g id="edge31" class="edge"><title>Node1228&#45;&gt;Node1223</title>
<path fill="none" stroke="midnightblue" d="M573.527,-351.199C591.744,-356.197 614.504,-362.442 634.17,-367.837"/>
<polygon fill="midnightblue" stroke="midnightblue" points="633.266,-371.218 643.835,-370.489 635.118,-364.468 633.266,-371.218"/>
</g>
<!-- Node1228&#45;&gt;Node1225 -->
<g id="edge32" class="edge"><title>Node1228&#45;&gt;Node1225</title>
<path fill="none" stroke="midnightblue" d="M573.527,-342C592.343,-342 616.004,-342 636.098,-342"/>
<polygon fill="midnightblue" stroke="midnightblue" points="636.235,-345.5 646.235,-342 636.235,-338.5 636.235,-345.5"/>
</g>
<!-- Node1228&#45;&gt;Node1226 -->
<g id="edge33" class="edge"><title>Node1228&#45;&gt;Node1226</title>
<path fill="none" stroke="midnightblue" d="M573.284,-351.555C579.757,-354.122 586.297,-357.252 592,-361 611.442,-373.776 608.619,-386.131 628,-399 630.897,-400.924 634.016,-402.689 637.232,-404.301"/>
<polygon fill="midnightblue" stroke="midnightblue" points="635.889,-407.535 646.445,-408.445 638.761,-401.151 635.889,-407.535"/>
</g>
<!-- Node1229&#45;&gt;Node1226 -->
<g id="edge36" class="edge"><title>Node1229&#45;&gt;Node1226</title>
<path fill="none" stroke="midnightblue" d="M436.173,-426.753C452.2,-428.916 469.76,-430.922 486,-432 533.008,-435.12 545.04,-435.776 592,-432 603.611,-431.066 616.015,-429.439 627.698,-427.616"/>
<polygon fill="midnightblue" stroke="midnightblue" points="628.437,-431.042 637.742,-425.976 627.309,-424.133 628.437,-431.042"/>
</g>
<!-- Node1232 -->
<g id="node30" class="node"><title>Node1232</title>
<g id="a_node30"><a xlink:href="esp-open-lwip_2include_2lwip_2sntp_8h.html#a557f2d3fcbc53da30e4f1b51ea5842e7" target="_top" xlink:title="sntp_get_current_timestamp">
<polygon fill="white" stroke="black" points="310,-294.5 310,-313.5 450,-313.5 450,-294.5 310,-294.5"/>
<text text-anchor="middle" x="380" y="-301.5" font-family="Helvetica,sans-Serif" font-size="10.00">sntp_get_current_timestamp</text>
</a>
</g>
</g>
<!-- Node1231&#45;&gt;Node1232 -->
<g id="edge39" class="edge"><title>Node1231&#45;&gt;Node1232</title>
<path fill="none" stroke="midnightblue" d="M239.537,-326.062C259.693,-322.873 285.199,-318.839 308.871,-315.094"/>
<polygon fill="midnightblue" stroke="midnightblue" points="309.553,-318.53 318.883,-313.51 308.459,-311.616 309.553,-318.53"/>
</g>
<!-- Node1235 -->
<g id="node33" class="node"><title>Node1235</title>
<g id="a_node33"><a xlink:href="mqtt__msg_8h.html#af16842423fc1d5d802a7f329fc3a9ef9" target="_top" xlink:title="mqtt_msg_publish">
<polygon fill="white" stroke="black" points="332,-180.5 332,-199.5 428,-199.5 428,-180.5 332,-180.5"/>
<text text-anchor="middle" x="380" y="-187.5" font-family="Helvetica,sans-Serif" font-size="10.00">mqtt_msg_publish</text>
</a>
</g>
</g>
<!-- Node1234&#45;&gt;Node1235 -->
<g id="edge42" class="edge"><title>Node1234&#45;&gt;Node1235</title>
<path fill="none" stroke="midnightblue" d="M242.164,-175.311C265.666,-177.834 295.727,-181.061 321.685,-183.848"/>
<polygon fill="midnightblue" stroke="midnightblue" points="321.463,-187.344 331.78,-184.931 322.211,-180.384 321.463,-187.344"/>
</g>
<!-- Node1241 -->
<g id="node39" class="node"><title>Node1241</title>
<g id="a_node39"><a xlink:href="_meter_logger_2mqtt_2include_2queue_8h.html#a2052c731d6aecfc43c9e18da8b58ee42" target="_top" xlink:title="QUEUE_Gets">
<polygon fill="white" stroke="black" points="340.5,-142.5 340.5,-161.5 419.5,-161.5 419.5,-142.5 340.5,-142.5"/>
<text text-anchor="middle" x="380" y="-149.5" font-family="Helvetica,sans-Serif" font-size="10.00">QUEUE_Gets</text>
</a>
</g>
</g>
<!-- Node1234&#45;&gt;Node1241 -->
<g id="edge48" class="edge"><title>Node1234&#45;&gt;Node1241</title>
<path fill="none" stroke="midnightblue" d="M242.164,-166.689C268.212,-163.893 302.317,-160.231 329.963,-157.264"/>
<polygon fill="midnightblue" stroke="midnightblue" points="330.642,-160.711 340.211,-156.164 329.895,-153.751 330.642,-160.711"/>
</g>
<!-- Node1246 -->
<g id="node44" class="node"><title>Node1246</title>
<g id="a_node44"><a xlink:href="_meter_logger_2mqtt_2include_2queue_8h.html#a6fd5d93b4c64bd836d706777defb5f80" target="_top" xlink:title="QUEUE_Puts">
<polygon fill="white" stroke="black" points="341,-104.5 341,-123.5 419,-123.5 419,-104.5 341,-104.5"/>
<text text-anchor="middle" x="380" y="-111.5" font-family="Helvetica,sans-Serif" font-size="10.00">QUEUE_Puts</text>
</a>
</g>
</g>
<!-- Node1234&#45;&gt;Node1246 -->
<g id="edge53" class="edge"><title>Node1234&#45;&gt;Node1246</title>
<path fill="none" stroke="midnightblue" d="M242.13,-162.137C252.653,-159.347 263.883,-155.945 274,-152 290.855,-145.427 293.18,-139.663 310,-133 316.751,-130.326 324.015,-127.883 331.206,-125.704"/>
<polygon fill="midnightblue" stroke="midnightblue" points="332.276,-129.038 340.912,-122.901 330.334,-122.313 332.276,-129.038"/>
</g>
<!-- Node1249 -->
<g id="node47" class="node"><title>Node1249</title>
<g id="a_node47"><a xlink:href="user__interface_8h.html#adab1155f3a463f2b05a9bde65b37514f" target="_top" xlink:title="system_os_post">
<polygon fill="white" stroke="black" points="335.5,-66.5 335.5,-85.5 424.5,-85.5 424.5,-66.5 335.5,-66.5"/>
<text text-anchor="middle" x="380" y="-73.5" font-family="Helvetica,sans-Serif" font-size="10.00">system_os_post</text>
</a>
</g>
</g>
<!-- Node1234&#45;&gt;Node1249 -->
<g id="edge56" class="edge"><title>Node1234&#45;&gt;Node1249</title>
<path fill="none" stroke="midnightblue" d="M242.099,-165.979C253.192,-163.174 264.722,-158.804 274,-152 298.162,-134.281 285.933,-112.848 310,-95 314.731,-91.4914 320.076,-88.6307 325.646,-86.2983"/>
<polygon fill="midnightblue" stroke="midnightblue" points="326.952,-89.5477 335.162,-82.8506 324.567,-82.9664 326.952,-89.5477"/>
</g>
<!-- Node1236 -->
<g id="node34" class="node"><title>Node1236</title>
<g id="a_node34"><a xlink:href="mqtt__msg_8c.html#ac59e26babd30c6c0ace9a174e75786f3" target="_top" xlink:title="append_message_id">
<polygon fill="white" stroke="black" points="486,-180.5 486,-199.5 592,-199.5 592,-180.5 486,-180.5"/>
<text text-anchor="middle" x="539" y="-187.5" font-family="Helvetica,sans-Serif" font-size="10.00">append_message_id</text>
</a>
</g>
</g>
<!-- Node1235&#45;&gt;Node1236 -->
<g id="edge43" class="edge"><title>Node1235&#45;&gt;Node1236</title>
<path fill="none" stroke="midnightblue" d="M428.105,-190C443.072,-190 459.862,-190 475.727,-190"/>
<polygon fill="midnightblue" stroke="midnightblue" points="475.99,-193.5 485.99,-190 475.99,-186.5 475.99,-193.5"/>
</g>
<!-- Node1237 -->
<g id="node35" class="node"><title>Node1237</title>
<g id="a_node35"><a xlink:href="mqtt__msg_8c.html#a207c99e2058080b97c21a348d693a560" target="_top" xlink:title="append_string">
<polygon fill="white" stroke="black" points="500.5,-142.5 500.5,-161.5 577.5,-161.5 577.5,-142.5 500.5,-142.5"/>
<text text-anchor="middle" x="539" y="-149.5" font-family="Helvetica,sans-Serif" font-size="10.00">append_string</text>
</a>
</g>
</g>
<!-- Node1235&#45;&gt;Node1237 -->
<g id="edge44" class="edge"><title>Node1235&#45;&gt;Node1237</title>
<path fill="none" stroke="midnightblue" d="M420.618,-180.411C441.808,-175.282 468.056,-168.929 490.354,-163.532"/>
<polygon fill="midnightblue" stroke="midnightblue" points="491.393,-166.882 500.288,-161.128 489.746,-160.078 491.393,-166.882"/>
</g>
<!-- Node1238 -->
<g id="node36" class="node"><title>Node1238</title>
<g id="a_node36"><a xlink:href="mqtt__msg_8c.html#a9a2fb8c67ff4b104dd46e72c9e97b710" target="_top" xlink:title="fail_message">
<polygon fill="white" stroke="black" points="502,-104.5 502,-123.5 576,-123.5 576,-104.5 502,-104.5"/>
<text text-anchor="middle" x="539" y="-111.5" font-family="Helvetica,sans-Serif" font-size="10.00">fail_message</text>
</a>
</g>
</g>
<!-- Node1235&#45;&gt;Node1238 -->
<g id="edge45" class="edge"><title>Node1235&#45;&gt;Node1238</title>
<path fill="none" stroke="midnightblue" d="M428.076,-180.754C435.701,-178.225 443.288,-175.028 450,-171 469.947,-159.028 466.558,-145.776 486,-133 488.941,-131.068 492.104,-129.299 495.365,-127.688"/>
<polygon fill="midnightblue" stroke="midnightblue" points="496.984,-130.799 504.716,-123.555 494.154,-124.396 496.984,-130.799"/>
</g>
<!-- Node1239 -->
<g id="node37" class="node"><title>Node1239</title>
<g id="a_node37"><a xlink:href="mqtt__msg_8c.html#a356949afe8a334d5e91bddb4b2794921" target="_top" xlink:title="fini_message">
<polygon fill="white" stroke="black" points="502,-256.5 502,-275.5 576,-275.5 576,-256.5 502,-256.5"/>
<text text-anchor="middle" x="539" y="-263.5" font-family="Helvetica,sans-Serif" font-size="10.00">fini_message</text>
</a>
</g>
</g>
<!-- Node1235&#45;&gt;Node1239 -->
<g id="edge46" class="edge"><title>Node1235&#45;&gt;Node1239</title>
<path fill="none" stroke="midnightblue" d="M396.992,-199.644C417.26,-211.641 453.48,-232.328 486,-247 490.474,-249.018 495.231,-250.988 499.982,-252.847"/>
<polygon fill="midnightblue" stroke="midnightblue" points="499.038,-256.232 509.63,-256.489 501.511,-249.683 499.038,-256.232"/>
</g>
<!-- Node1240 -->
<g id="node38" class="node"><title>Node1240</title>
<g id="a_node38"><a xlink:href="mqtt__msg_8c.html#aae7c66cc577ac90e9535edac4abc068c" target="_top" xlink:title="init_message">
<polygon fill="white" stroke="black" points="502,-218.5 502,-237.5 576,-237.5 576,-218.5 502,-218.5"/>
<text text-anchor="middle" x="539" y="-225.5" font-family="Helvetica,sans-Serif" font-size="10.00">init_message</text>
</a>
</g>
</g>
<!-- Node1235&#45;&gt;Node1240 -->
<g id="edge47" class="edge"><title>Node1235&#45;&gt;Node1240</title>
<path fill="none" stroke="midnightblue" d="M420.618,-199.589C442.378,-204.856 469.472,-211.414 492.145,-216.901"/>
<polygon fill="midnightblue" stroke="midnightblue" points="491.346,-220.309 501.889,-219.26 492.993,-213.505 491.346,-220.309"/>
</g>
<!-- Node1242 -->
<g id="node40" class="node"><title>Node1242</title>
<g id="a_node40"><a xlink:href="proto_8h.html#adf76f7a7dcf2e7e22af1a3235b9a808c" target="_top" xlink:title="PROTO_ParseRb">
<polygon fill="white" stroke="black" points="491.5,-66.5 491.5,-85.5 586.5,-85.5 586.5,-66.5 491.5,-66.5"/>
<text text-anchor="middle" x="539" y="-73.5" font-family="Helvetica,sans-Serif" font-size="10.00">PROTO_ParseRb</text>
</a>
</g>
</g>
<!-- Node1241&#45;&gt;Node1242 -->
<g id="edge49" class="edge"><title>Node1241&#45;&gt;Node1242</title>
<path fill="none" stroke="midnightblue" d="M419.75,-145.267C430.045,-142.448 440.838,-138.499 450,-133 469.947,-121.028 466.558,-107.776 486,-95 488.941,-93.0676 492.104,-91.2994 495.365,-89.6878"/>
<polygon fill="midnightblue" stroke="midnightblue" points="496.984,-92.7989 504.716,-85.5549 494.154,-86.3965 496.984,-92.7989"/>
</g>
<!-- Node1243 -->
<g id="node41" class="node"><title>Node1243</title>
<g id="a_node41"><a xlink:href="proto_8c.html#aef0525e6fb0717f1ae3816f5a59fbd08" target="_top" xlink:title="PROTO_Init">
<polygon fill="white" stroke="black" points="644,-114.5 644,-133.5 715,-133.5 715,-114.5 644,-114.5"/>
<text text-anchor="middle" x="679.5" y="-121.5" font-family="Helvetica,sans-Serif" font-size="10.00">PROTO_Init</text>
</a>
</g>
</g>
<!-- Node1242&#45;&gt;Node1243 -->
<g id="edge50" class="edge"><title>Node1242&#45;&gt;Node1243</title>
<path fill="none" stroke="midnightblue" d="M567.695,-85.5982C588.831,-92.9234 618.164,-103.089 641.34,-111.121"/>
<polygon fill="midnightblue" stroke="midnightblue" points="640.259,-114.451 650.853,-114.418 642.551,-107.837 640.259,-114.451"/>
</g>
<!-- Node1244 -->
<g id="node42" class="node"><title>Node1244</title>
<g id="a_node42"><a xlink:href="proto_8c.html#a281b27f126b2495d977c300dc596c771" target="_top" xlink:title="PROTO_ParseByte">
<polygon fill="white" stroke="black" points="628,-76.5 628,-95.5 731,-95.5 731,-76.5 628,-76.5"/>
<text text-anchor="middle" x="679.5" y="-83.5" font-family="Helvetica,sans-Serif" font-size="10.00">PROTO_ParseByte</text>
</a>
</g>
</g>
<!-- Node1242&#45;&gt;Node1244 -->
<g id="edge51" class="edge"><title>Node1242&#45;&gt;Node1244</title>
<path fill="none" stroke="midnightblue" d="M586.504,-79.3577C596.406,-80.0726 607.005,-80.8379 617.36,-81.5855"/>
<polygon fill="midnightblue" stroke="midnightblue" points="617.371,-85.0954 627.598,-82.3247 617.876,-78.1136 617.371,-85.0954"/>
</g>
<!-- Node1245 -->
<g id="node43" class="node"><title>Node1245</title>
<g id="a_node43"><a xlink:href="ringbuf_8h.html#a55e63bf17009f5c5c653867a73a80556" target="_top" xlink:title="get a character from ring buffer ">
<polygon fill="white" stroke="black" points="638,-38.5 638,-57.5 721,-57.5 721,-38.5 638,-38.5"/>
<text text-anchor="middle" x="679.5" y="-45.5" font-family="Helvetica,sans-Serif" font-size="10.00">RINGBUF_Get</text>
</a>
</g>
</g>
<!-- Node1242&#45;&gt;Node1245 -->
<g id="edge52" class="edge"><title>Node1242&#45;&gt;Node1245</title>
<path fill="none" stroke="midnightblue" d="M586.504,-66.5985C599.78,-63.9146 614.311,-60.9769 627.823,-58.2452"/>
<polygon fill="midnightblue" stroke="midnightblue" points="628.811,-61.6163 637.919,-56.2041 627.424,-54.7551 628.811,-61.6163"/>
</g>
<!-- Node1247 -->
<g id="node45" class="node"><title>Node1247</title>
<g id="a_node45"><a xlink:href="proto_8h.html#a0048bb46c50a05ae94d1f1563909c046" target="_top" xlink:title="PROTO_AddRb">
<polygon fill="white" stroke="black" points="495.5,-19.5 495.5,-38.5 582.5,-38.5 582.5,-19.5 495.5,-19.5"/>
<text text-anchor="middle" x="539" y="-26.5" font-family="Helvetica,sans-Serif" font-size="10.00">PROTO_AddRb</text>
</a>
</g>
</g>
<!-- Node1246&#45;&gt;Node1247 -->
<g id="edge54" class="edge"><title>Node1246&#45;&gt;Node1247</title>
<path fill="none" stroke="midnightblue" d="M419.033,-107.462C429.542,-104.63 440.625,-100.627 450,-95 469.947,-83.0277 467.524,-71.1382 486,-57 492.584,-51.9616 500.197,-47.3125 507.531,-43.3096"/>
<polygon fill="midnightblue" stroke="midnightblue" points="509.319,-46.3248 516.575,-38.604 506.088,-40.1151 509.319,-46.3248"/>
</g>
<!-- Node1248 -->
<g id="node46" class="node"><title>Node1248</title>
<g id="a_node46"><a xlink:href="ringbuf_8h.html#a8b56edb0716a45312957960d4784f0b7" target="_top" xlink:title="put a character into ring buffer ">
<polygon fill="white" stroke="black" points="638,-0.5 638,-19.5 721,-19.5 721,-0.5 638,-0.5"/>
<text text-anchor="middle" x="679.5" y="-7.5" font-family="Helvetica,sans-Serif" font-size="10.00">RINGBUF_Put</text>
</a>
</g>
</g>
<!-- Node1247&#45;&gt;Node1248 -->
<g id="edge55" class="edge"><title>Node1247&#45;&gt;Node1248</title>
<path fill="none" stroke="midnightblue" d="M582.685,-23.1443C596.892,-21.1953 612.858,-19.0051 627.622,-16.9796"/>
<polygon fill="midnightblue" stroke="midnightblue" points="628.184,-20.4354 637.616,-15.6087 627.233,-13.5004 628.184,-20.4354"/>
</g>
</g>
</svg>
