<?xml version="1.0" encoding="UTF-8" standalone="no"?>
<!DOCTYPE svg PUBLIC "-//W3C//DTD SVG 1.1//EN"
 "http://www.w3.org/Graphics/SVG/1.1/DTD/svg11.dtd">
<!-- Generated by graphviz version 2.38.0 (20140413.2041)
 -->
<!-- Title: mqtt_msg_pubcomp Pages: 1 -->
<svg width="255pt" height="142pt"
 viewBox="0.00 0.00 255.00 142.00" xmlns="http://www.w3.org/2000/svg" xmlns:xlink="http://www.w3.org/1999/xlink">
<g id="graph0" class="graph" transform="scale(1 1) rotate(0) translate(4 138)">
<title>mqtt_msg_pubcomp</title>
<polygon fill="white" stroke="none" points="-4,4 -4,-138 251,-138 251,4 -4,4"/>
<!-- Node148 -->
<g id="node1" class="node"><title>Node148</title>
<polygon fill="#bfbfbf" stroke="black" points="0,-57.5 0,-76.5 105,-76.5 105,-57.5 0,-57.5"/>
<text text-anchor="middle" x="52.5" y="-64.5" font-family="Helvetica,sans-Serif" font-size="10.00">mqtt_msg_pubcomp</text>
</g>
<!-- Node149 -->
<g id="node2" class="node"><title>Node149</title>
<g id="a_node2"><a xlink:href="mqtt__msg_8c.html#ac59e26babd30c6c0ace9a174e75786f3" target="_top" xlink:title="append_message_id">
<polygon fill="white" stroke="black" points="141,-114.5 141,-133.5 247,-133.5 247,-114.5 141,-114.5"/>
<text text-anchor="middle" x="194" y="-121.5" font-family="Helvetica,sans-Serif" font-size="10.00">append_message_id</text>
</a>
</g>
</g>
<!-- Node148&#45;&gt;Node149 -->
<g id="edge1" class="edge"><title>Node148&#45;&gt;Node149</title>
<path fill="none" stroke="midnightblue" d="M74.5696,-76.5689C92.2017,-84.4754 118.084,-95.8466 141,-105 145.895,-106.955 151.08,-108.945 156.205,-110.864"/>
<polygon fill="midnightblue" stroke="midnightblue" points="155.302,-114.262 165.895,-114.441 157.726,-107.695 155.302,-114.262"/>
</g>
<!-- Node150 -->
<g id="node3" class="node"><title>Node150</title>
<g id="a_node3"><a xlink:href="mqtt__msg_8c.html#a9a2fb8c67ff4b104dd46e72c9e97b710" target="_top" xlink:title="fail_message">
<polygon fill="white" stroke="black" points="157,-76.5 157,-95.5 231,-95.5 231,-76.5 157,-76.5"/>
<text text-anchor="middle" x="194" y="-83.5" font-family="Helvetica,sans-Serif" font-size="10.00">fail_message</text>
</a>
</g>
</g>
<!-- Node148&#45;&gt;Node150 -->
<g id="edge2" class="edge"><title>Node148&#45;&gt;Node150</title>
<path fill="none" stroke="midnightblue" d="M105.048,-74.0209C118.779,-75.891 133.521,-77.8989 146.936,-79.7261"/>
<polygon fill="midnightblue" stroke="midnightblue" points="146.517,-83.2012 156.898,-81.0829 147.462,-76.2653 146.517,-83.2012"/>
</g>
<!-- Node151 -->
<g id="node4" class="node"><title>Node151</title>
<g id="a_node4"><a xlink:href="mqtt__msg_8c.html#a356949afe8a334d5e91bddb4b2794921" target="_top" xlink:title="fini_message">
<polygon fill="white" stroke="black" points="157,-38.5 157,-57.5 231,-57.5 231,-38.5 157,-38.5"/>
<text text-anchor="middle" x="194" y="-45.5" font-family="Helvetica,sans-Serif" font-size="10.00">fini_message</text>
</a>
</g>
</g>
<!-- Node148&#45;&gt;Node151 -->
<g id="edge3" class="edge"><title>Node148&#45;&gt;Node151</title>
<path fill="none" stroke="midnightblue" d="M105.048,-59.9791C118.779,-58.109 133.521,-56.1011 146.936,-54.2739"/>
<polygon fill="midnightblue" stroke="midnightblue" points="147.462,-57.7347 156.898,-52.9171 146.517,-50.7988 147.462,-57.7347"/>
</g>
<!-- Node152 -->
<g id="node5" class="node"><title>Node152</title>
<g id="a_node5"><a xlink:href="mqtt__msg_8c.html#aae7c66cc577ac90e9535edac4abc068c" target="_top" xlink:title="init_message">
<polygon fill="white" stroke="black" points="157,-0.5 157,-19.5 231,-19.5 231,-0.5 157,-0.5"/>
<text text-anchor="middle" x="194" y="-7.5" font-family="Helvetica,sans-Serif" font-size="10.00">init_message</text>
</a>
</g>
</g>
<!-- Node148&#45;&gt;Node152 -->
<g id="edge4" class="edge"><title>Node148&#45;&gt;Node152</title>
<path fill="none" stroke="midnightblue" d="M74.5696,-57.4311C92.2017,-49.5246 118.084,-38.1534 141,-29 145.895,-27.0447 151.08,-25.0552 156.205,-23.1358"/>
<polygon fill="midnightblue" stroke="midnightblue" points="157.726,-26.3051 165.895,-19.5587 155.302,-19.7382 157.726,-26.3051"/>
</g>
</g>
</svg>
