<?xml version="1.0" encoding="UTF-8" standalone="no"?>
<!DOCTYPE svg PUBLIC "-//W3C//DTD SVG 1.1//EN"
 "http://www.w3.org/Graphics/SVG/1.1/DTD/svg11.dtd">
<!-- Generated by graphviz version 2.38.0 (20140413.2041)
 -->
<!-- Title: esp&#45;open&#45;lwip/include/lwip/netbuf.h Pages: 1 -->
<svg width="384pt" height="655pt"
 viewBox="0.00 0.00 384.00 655.00" xmlns="http://www.w3.org/2000/svg" xmlns:xlink="http://www.w3.org/1999/xlink">
<g id="graph0" class="graph" transform="scale(1 1) rotate(0) translate(4 651)">
<title>esp&#45;open&#45;lwip/include/lwip/netbuf.h</title>
<polygon fill="white" stroke="none" points="-4,4 -4,-651 380,-651 380,4 -4,4"/>
<!-- Node0 -->
<g id="node1" class="node"><title>Node0</title>
<polygon fill="#bfbfbf" stroke="black" points="70.5,-616.5 70.5,-646.5 180.5,-646.5 180.5,-616.5 70.5,-616.5"/>
<text text-anchor="start" x="78.5" y="-634.5" font-family="Helvetica,sans-Serif" font-size="10.00">esp&#45;open&#45;lwip/include</text>
<text text-anchor="middle" x="125.5" y="-623.5" font-family="Helvetica,sans-Serif" font-size="10.00">/lwip/netbuf.h</text>
</g>
<!-- Node1 -->
<g id="node2" class="node"><title>Node1</title>
<g id="a_node2"><a xlink:href="opt_8h.html" target="_top" xlink:title="lwip/opt.h">
<polygon fill="white" stroke="black" points="96,-448.5 96,-467.5 155,-467.5 155,-448.5 96,-448.5"/>
<text text-anchor="middle" x="125.5" y="-455.5" font-family="Helvetica,sans-Serif" font-size="10.00">lwip/opt.h</text>
</a>
</g>
</g>
<!-- Node0&#45;&gt;Node1 -->
<g id="edge1" class="edge"><title>Node0&#45;&gt;Node1</title>
<path fill="none" stroke="midnightblue" d="M125.5,-616.465C125.5,-585.704 125.5,-512.329 125.5,-477.7"/>
<polygon fill="midnightblue" stroke="midnightblue" points="129,-477.56 125.5,-467.56 122,-477.56 129,-477.56"/>
</g>
<!-- Node15 -->
<g id="node16" class="node"><title>Node15</title>
<g id="a_node16"><a xlink:href="pbuf_8h.html" target="_top" xlink:title="lwip/pbuf.h">
<polygon fill="white" stroke="black" points="153.5,-560.5 153.5,-579.5 217.5,-579.5 217.5,-560.5 153.5,-560.5"/>
<text text-anchor="middle" x="185.5" y="-567.5" font-family="Helvetica,sans-Serif" font-size="10.00">lwip/pbuf.h</text>
</a>
</g>
</g>
<!-- Node0&#45;&gt;Node15 -->
<g id="edge18" class="edge"><title>Node0&#45;&gt;Node15</title>
<path fill="none" stroke="midnightblue" d="M139.719,-616.399C148.708,-607.486 160.338,-595.952 169.627,-586.741"/>
<polygon fill="midnightblue" stroke="midnightblue" points="172.133,-589.184 176.769,-579.658 167.204,-584.214 172.133,-589.184"/>
</g>
<!-- Node17 -->
<g id="node18" class="node"><title>Node17</title>
<g id="a_node18"><a xlink:href="esp-open-lwip_2include_2lwip_2ip__addr_8h.html" target="_top" xlink:title="lwip/ip_addr.h">
<polygon fill="white" stroke="black" points="20,-560.5 20,-579.5 97,-579.5 97,-560.5 20,-560.5"/>
<text text-anchor="middle" x="58.5" y="-567.5" font-family="Helvetica,sans-Serif" font-size="10.00">lwip/ip_addr.h</text>
</a>
</g>
</g>
<!-- Node0&#45;&gt;Node17 -->
<g id="edge23" class="edge"><title>Node0&#45;&gt;Node17</title>
<path fill="none" stroke="midnightblue" d="M109.622,-616.399C99.4846,-607.397 86.3375,-595.721 75.9146,-586.465"/>
<polygon fill="midnightblue" stroke="midnightblue" points="78.0504,-583.681 68.2491,-579.658 73.4022,-588.915 78.0504,-583.681"/>
</g>
<!-- Node2 -->
<g id="node3" class="node"><title>Node2</title>
<g id="a_node3"><a xlink:href="lwipopts_8h.html" target="_top" xlink:title="lwipopts.h">
<polygon fill="white" stroke="black" points="7,-336.5 7,-355.5 68,-355.5 68,-336.5 7,-336.5"/>
<text text-anchor="middle" x="37.5" y="-343.5" font-family="Helvetica,sans-Serif" font-size="10.00">lwipopts.h</text>
</a>
</g>
</g>
<!-- Node1&#45;&gt;Node2 -->
<g id="edge2" class="edge"><title>Node1&#45;&gt;Node2</title>
<path fill="none" stroke="midnightblue" d="M116.766,-448.355C108.004,-439.522 94.2966,-425.259 83.5,-412 70.856,-396.473 57.7941,-377.708 48.8349,-364.34"/>
<polygon fill="midnightblue" stroke="midnightblue" points="51.541,-362.087 43.1009,-355.683 45.7051,-365.953 51.541,-362.087"/>
</g>
<!-- Node3 -->
<g id="node4" class="node"><title>Node3</title>
<g id="a_node4"><a xlink:href="esp-open-sdk_2esp-open-lwip_2include_2lwip_2debug_8h.html" target="_top" xlink:title="lwip/debug.h">
<polygon fill="white" stroke="black" points="93,-392.5 93,-411.5 164,-411.5 164,-392.5 93,-392.5"/>
<text text-anchor="middle" x="128.5" y="-399.5" font-family="Helvetica,sans-Serif" font-size="10.00">lwip/debug.h</text>
</a>
</g>
</g>
<!-- Node1&#45;&gt;Node3 -->
<g id="edge3" class="edge"><title>Node1&#45;&gt;Node3</title>
<path fill="none" stroke="midnightblue" d="M125.995,-448.083C126.389,-441.006 126.952,-430.861 127.445,-421.986"/>
<polygon fill="midnightblue" stroke="midnightblue" points="130.954,-421.93 128.014,-411.751 123.964,-421.542 130.954,-421.93"/>
</g>
<!-- Node3&#45;&gt;Node2 -->
<g id="edge4" class="edge"><title>Node3&#45;&gt;Node2</title>
<path fill="none" stroke="midnightblue" d="M113.879,-392.324C99.5511,-383.822 77.4875,-370.729 60.7513,-360.797"/>
<polygon fill="midnightblue" stroke="midnightblue" points="62.4704,-357.748 52.0844,-355.655 58.8982,-363.768 62.4704,-357.748"/>
</g>
<!-- Node4 -->
<g id="node5" class="node"><title>Node4</title>
<g id="a_node5"><a xlink:href="arch_8h.html" target="_top" xlink:title="lwip/arch.h">
<polygon fill="white" stroke="black" points="96.5,-336.5 96.5,-355.5 160.5,-355.5 160.5,-336.5 96.5,-336.5"/>
<text text-anchor="middle" x="128.5" y="-343.5" font-family="Helvetica,sans-Serif" font-size="10.00">lwip/arch.h</text>
</a>
</g>
</g>
<!-- Node3&#45;&gt;Node4 -->
<g id="edge5" class="edge"><title>Node3&#45;&gt;Node4</title>
<path fill="none" stroke="midnightblue" d="M128.5,-392.083C128.5,-385.006 128.5,-374.861 128.5,-365.986"/>
<polygon fill="midnightblue" stroke="midnightblue" points="132,-365.751 128.5,-355.751 125,-365.751 132,-365.751"/>
</g>
<!-- Node5 -->
<g id="node6" class="node"><title>Node5</title>
<g id="a_node6"><a xlink:href="cc_8h.html" target="_top" xlink:title="arch/cc.h">
<polygon fill="white" stroke="black" points="100,-280.5 100,-299.5 157,-299.5 157,-280.5 100,-280.5"/>
<text text-anchor="middle" x="128.5" y="-287.5" font-family="Helvetica,sans-Serif" font-size="10.00">arch/cc.h</text>
</a>
</g>
</g>
<!-- Node4&#45;&gt;Node5 -->
<g id="edge6" class="edge"><title>Node4&#45;&gt;Node5</title>
<path fill="none" stroke="midnightblue" d="M128.5,-336.083C128.5,-329.006 128.5,-318.861 128.5,-309.986"/>
<polygon fill="midnightblue" stroke="midnightblue" points="132,-309.751 128.5,-299.751 125,-309.751 132,-309.751"/>
</g>
<!-- Node6 -->
<g id="node7" class="node"><title>Node6</title>
<g id="a_node7"><a xlink:href="c__types_8h.html" target="_top" xlink:title="c_types.h">
<polygon fill="white" stroke="black" points="61,-56.5 61,-75.5 120,-75.5 120,-56.5 61,-56.5"/>
<text text-anchor="middle" x="90.5" y="-63.5" font-family="Helvetica,sans-Serif" font-size="10.00">c_types.h</text>
</a>
</g>
</g>
<!-- Node5&#45;&gt;Node6 -->
<g id="edge7" class="edge"><title>Node5&#45;&gt;Node6</title>
<path fill="none" stroke="midnightblue" d="M127.01,-280.297C121.419,-247.633 101.603,-131.866 93.7449,-85.9573"/>
<polygon fill="midnightblue" stroke="midnightblue" points="97.1577,-85.1499 92.0206,-75.8837 90.2581,-86.3309 97.1577,-85.1499"/>
</g>
<!-- Node9 -->
<g id="node10" class="node"><title>Node9</title>
<g id="a_node10"><a xlink:href="ets__sys_8h.html" target="_top" xlink:title="ets_sys.h">
<polygon fill="white" stroke="black" points="131,-112.5 131,-131.5 190,-131.5 190,-112.5 131,-112.5"/>
<text text-anchor="middle" x="160.5" y="-119.5" font-family="Helvetica,sans-Serif" font-size="10.00">ets_sys.h</text>
</a>
</g>
</g>
<!-- Node5&#45;&gt;Node9 -->
<g id="edge10" class="edge"><title>Node5&#45;&gt;Node9</title>
<path fill="none" stroke="midnightblue" d="M129.471,-280.422C131.806,-260.522 138.235,-209.725 147.5,-168 149.485,-159.058 152.241,-149.273 154.704,-141.118"/>
<polygon fill="midnightblue" stroke="midnightblue" points="158.053,-142.133 157.684,-131.544 151.37,-140.052 158.053,-142.133"/>
</g>
<!-- Node11 -->
<g id="node12" class="node"><title>Node11</title>
<g id="a_node12"><a xlink:href="osapi_8h.html" target="_top" xlink:title="osapi.h">
<polygon fill="white" stroke="black" points="198.5,-224.5 198.5,-243.5 246.5,-243.5 246.5,-224.5 198.5,-224.5"/>
<text text-anchor="middle" x="222.5" y="-231.5" font-family="Helvetica,sans-Serif" font-size="10.00">osapi.h</text>
</a>
</g>
</g>
<!-- Node5&#45;&gt;Node11 -->
<g id="edge13" class="edge"><title>Node5&#45;&gt;Node11</title>
<path fill="none" stroke="midnightblue" d="M143.603,-280.324C158.403,-271.822 181.194,-258.729 198.482,-248.797"/>
<polygon fill="midnightblue" stroke="midnightblue" points="200.507,-251.671 207.435,-243.655 197.02,-245.601 200.507,-251.671"/>
</g>
<!-- Node7 -->
<g id="node8" class="node"><title>Node7</title>
<polygon fill="white" stroke="#bfbfbf" points="31,-0.5 31,-19.5 80,-19.5 80,-0.5 31,-0.5"/>
<text text-anchor="middle" x="55.5" y="-7.5" font-family="Helvetica,sans-Serif" font-size="10.00">stdint.h</text>
</g>
<!-- Node6&#45;&gt;Node7 -->
<g id="edge8" class="edge"><title>Node6&#45;&gt;Node7</title>
<path fill="none" stroke="midnightblue" d="M84.7205,-56.083C79.8276,-48.5341 72.6726,-37.4948 66.6674,-28.2298"/>
<polygon fill="midnightblue" stroke="midnightblue" points="69.548,-26.239 61.172,-19.7511 63.674,-30.0463 69.548,-26.239"/>
</g>
<!-- Node8 -->
<g id="node9" class="node"><title>Node8</title>
<polygon fill="white" stroke="#bfbfbf" points="98.5,-0.5 98.5,-19.5 154.5,-19.5 154.5,-0.5 98.5,-0.5"/>
<text text-anchor="middle" x="126.5" y="-7.5" font-family="Helvetica,sans-Serif" font-size="10.00">stdbool.h</text>
</g>
<!-- Node6&#45;&gt;Node8 -->
<g id="edge9" class="edge"><title>Node6&#45;&gt;Node8</title>
<path fill="none" stroke="midnightblue" d="M96.4447,-56.083C101.477,-48.5341 108.837,-37.4948 115.013,-28.2298"/>
<polygon fill="midnightblue" stroke="midnightblue" points="118.031,-30.0131 120.666,-19.7511 112.207,-26.1301 118.031,-30.0131"/>
</g>
<!-- Node9&#45;&gt;Node6 -->
<g id="edge11" class="edge"><title>Node9&#45;&gt;Node6</title>
<path fill="none" stroke="midnightblue" d="M149.253,-112.324C138.703,-104.185 122.699,-91.8395 110.058,-82.0874"/>
<polygon fill="midnightblue" stroke="midnightblue" points="112.007,-79.1707 101.951,-75.8339 107.731,-84.7132 112.007,-79.1707"/>
</g>
<!-- Node10 -->
<g id="node11" class="node"><title>Node10</title>
<g id="a_node11"><a xlink:href="eagle__soc_8h.html" target="_top" xlink:title="eagle_soc.h">
<polygon fill="white" stroke="black" points="138,-56.5 138,-75.5 207,-75.5 207,-56.5 138,-56.5"/>
<text text-anchor="middle" x="172.5" y="-63.5" font-family="Helvetica,sans-Serif" font-size="10.00">eagle_soc.h</text>
</a>
</g>
</g>
<!-- Node9&#45;&gt;Node10 -->
<g id="edge12" class="edge"><title>Node9&#45;&gt;Node10</title>
<path fill="none" stroke="midnightblue" d="M162.482,-112.083C164.072,-104.927 166.359,-94.6353 168.346,-85.6911"/>
<polygon fill="midnightblue" stroke="midnightblue" points="171.803,-86.2722 170.555,-75.7511 164.969,-84.7537 171.803,-86.2722"/>
</g>
<!-- Node12 -->
<g id="node13" class="node"><title>Node12</title>
<polygon fill="white" stroke="#bfbfbf" points="234,-168.5 234,-187.5 283,-187.5 283,-168.5 234,-168.5"/>
<text text-anchor="middle" x="258.5" y="-175.5" font-family="Helvetica,sans-Serif" font-size="10.00">string.h</text>
</g>
<!-- Node11&#45;&gt;Node12 -->
<g id="edge14" class="edge"><title>Node11&#45;&gt;Node12</title>
<path fill="none" stroke="midnightblue" d="M228.445,-224.083C233.477,-216.534 240.837,-205.495 247.013,-196.23"/>
<polygon fill="midnightblue" stroke="midnightblue" points="250.031,-198.013 252.666,-187.751 244.207,-194.13 250.031,-198.013"/>
</g>
<!-- Node13 -->
<g id="node14" class="node"><title>Node13</title>
<g id="a_node14"><a xlink:href="os__type_8h.html" target="_top" xlink:title="os_type.h">
<polygon fill="white" stroke="black" points="157,-168.5 157,-187.5 216,-187.5 216,-168.5 157,-168.5"/>
<text text-anchor="middle" x="186.5" y="-175.5" font-family="Helvetica,sans-Serif" font-size="10.00">os_type.h</text>
</a>
</g>
</g>
<!-- Node11&#45;&gt;Node13 -->
<g id="edge15" class="edge"><title>Node11&#45;&gt;Node13</title>
<path fill="none" stroke="midnightblue" d="M216.555,-224.083C211.523,-216.534 204.163,-205.495 197.987,-196.23"/>
<polygon fill="midnightblue" stroke="midnightblue" points="200.793,-194.13 192.334,-187.751 194.969,-198.013 200.793,-194.13"/>
</g>
<!-- Node14 -->
<g id="node15" class="node"><title>Node14</title>
<polygon fill="white" stroke="#bfbfbf" points="301,-168.5 301,-187.5 376,-187.5 376,-168.5 301,-168.5"/>
<text text-anchor="middle" x="338.5" y="-175.5" font-family="Helvetica,sans-Serif" font-size="10.00">user_config.h</text>
</g>
<!-- Node11&#45;&gt;Node14 -->
<g id="edge17" class="edge"><title>Node11&#45;&gt;Node14</title>
<path fill="none" stroke="midnightblue" d="M240.881,-224.444C259.716,-215.675 289.231,-201.935 310.879,-191.858"/>
<polygon fill="midnightblue" stroke="midnightblue" points="312.617,-194.91 320.205,-187.516 309.662,-188.564 312.617,-194.91"/>
</g>
<!-- Node13&#45;&gt;Node9 -->
<g id="edge16" class="edge"><title>Node13&#45;&gt;Node9</title>
<path fill="none" stroke="midnightblue" d="M182.207,-168.083C178.648,-160.691 173.478,-149.953 169.076,-140.811"/>
<polygon fill="midnightblue" stroke="midnightblue" points="172.205,-139.243 164.713,-131.751 165.898,-142.279 172.205,-139.243"/>
</g>
<!-- Node15&#45;&gt;Node1 -->
<g id="edge19" class="edge"><title>Node15&#45;&gt;Node1</title>
<path fill="none" stroke="midnightblue" d="M180.792,-560.368C170.978,-542.376 148.164,-500.55 135.115,-476.627"/>
<polygon fill="midnightblue" stroke="midnightblue" points="138.047,-474.694 130.186,-467.591 131.902,-478.046 138.047,-474.694"/>
</g>
<!-- Node16 -->
<g id="node17" class="node"><title>Node16</title>
<g id="a_node17"><a xlink:href="err_8h.html" target="_top" xlink:title="lwip/err.h">
<polygon fill="white" stroke="black" points="191.5,-504.5 191.5,-523.5 247.5,-523.5 247.5,-504.5 191.5,-504.5"/>
<text text-anchor="middle" x="219.5" y="-511.5" font-family="Helvetica,sans-Serif" font-size="10.00">lwip/err.h</text>
</a>
</g>
</g>
<!-- Node15&#45;&gt;Node16 -->
<g id="edge20" class="edge"><title>Node15&#45;&gt;Node16</title>
<path fill="none" stroke="midnightblue" d="M191.114,-560.083C195.867,-552.534 202.818,-541.495 208.652,-532.23"/>
<polygon fill="midnightblue" stroke="midnightblue" points="211.624,-534.078 213.99,-523.751 205.7,-530.349 211.624,-534.078"/>
</g>
<!-- Node16&#45;&gt;Node1 -->
<g id="edge21" class="edge"><title>Node16&#45;&gt;Node1</title>
<path fill="none" stroke="midnightblue" d="M204.397,-504.324C189.597,-495.822 166.806,-482.729 149.518,-472.797"/>
<polygon fill="midnightblue" stroke="midnightblue" points="150.98,-469.601 140.565,-467.655 147.493,-475.671 150.98,-469.601"/>
</g>
<!-- Node16&#45;&gt;Node4 -->
<g id="edge22" class="edge"><title>Node16&#45;&gt;Node4</title>
<path fill="none" stroke="midnightblue" d="M217.515,-504.207C212.545,-483.416 198.163,-430.113 173.5,-392 166.331,-380.921 156.056,-370.385 147.134,-362.296"/>
<polygon fill="midnightblue" stroke="midnightblue" points="149.291,-359.533 139.448,-355.611 144.696,-364.815 149.291,-359.533"/>
</g>
<!-- Node17&#45;&gt;Node1 -->
<g id="edge24" class="edge"><title>Node17&#45;&gt;Node1</title>
<path fill="none" stroke="midnightblue" d="M63.7574,-560.368C74.7654,-542.296 100.42,-500.176 114.958,-476.307"/>
<polygon fill="midnightblue" stroke="midnightblue" points="118.054,-477.953 120.267,-467.591 112.076,-474.311 118.054,-477.953"/>
</g>
<!-- Node18 -->
<g id="node19" class="node"><title>Node18</title>
<g id="a_node19"><a xlink:href="def_8h.html" target="_top" xlink:title="lwip/def.h">
<polygon fill="white" stroke="black" points="0,-504.5 0,-523.5 59,-523.5 59,-504.5 0,-504.5"/>
<text text-anchor="middle" x="29.5" y="-511.5" font-family="Helvetica,sans-Serif" font-size="10.00">lwip/def.h</text>
</a>
</g>
</g>
<!-- Node17&#45;&gt;Node18 -->
<g id="edge25" class="edge"><title>Node17&#45;&gt;Node18</title>
<path fill="none" stroke="midnightblue" d="M53.7112,-560.083C49.7416,-552.691 43.9749,-541.953 39.0652,-532.811"/>
<polygon fill="midnightblue" stroke="midnightblue" points="42.0145,-530.905 34.1997,-523.751 35.8475,-534.217 42.0145,-530.905"/>
</g>
<!-- Node18&#45;&gt;Node1 -->
<g id="edge27" class="edge"><title>Node18&#45;&gt;Node1</title>
<path fill="none" stroke="midnightblue" d="M44.9241,-504.324C60.0395,-495.822 83.3154,-482.729 100.971,-472.797"/>
<polygon fill="midnightblue" stroke="midnightblue" points="103.114,-475.608 110.114,-467.655 99.6825,-469.507 103.114,-475.608"/>
</g>
<!-- Node18&#45;&gt;Node4 -->
<g id="edge26" class="edge"><title>Node18&#45;&gt;Node4</title>
<path fill="none" stroke="midnightblue" d="M32.179,-504.23C38.7678,-483.488 57.1634,-430.284 83.5,-392 90.9791,-381.128 101.275,-370.606 110.131,-362.473"/>
<polygon fill="midnightblue" stroke="midnightblue" points="112.572,-364.986 117.737,-355.735 107.931,-359.746 112.572,-364.986"/>
</g>
</g>
</svg>
