<?xml version="1.0" encoding="UTF-8" standalone="no"?>
<!DOCTYPE svg PUBLIC "-//W3C//DTD SVG 1.1//EN"
 "http://www.w3.org/Graphics/SVG/1.1/DTD/svg11.dtd">
<!-- Generated by graphviz version 2.38.0 (20140413.2041)
 -->
<!-- Title: netif_set_default Pages: 1 -->
<svg width="626pt" height="180pt"
 viewBox="0.00 0.00 626.00 180.00" xmlns="http://www.w3.org/2000/svg" xmlns:xlink="http://www.w3.org/1999/xlink">
<g id="graph0" class="graph" transform="scale(1 1) rotate(0) translate(4 176)">
<title>netif_set_default</title>
<polygon fill="white" stroke="none" points="-4,4 -4,-176 622,-176 622,4 -4,4"/>
<!-- Node28 -->
<g id="node1" class="node"><title>Node28</title>
<polygon fill="#bfbfbf" stroke="black" points="0,-57.5 0,-76.5 89,-76.5 89,-57.5 0,-57.5"/>
<text text-anchor="middle" x="44.5" y="-64.5" font-family="Helvetica,sans-Serif" font-size="10.00">netif_set_default</text>
</g>
<!-- Node29 -->
<g id="node2" class="node"><title>Node29</title>
<g id="a_node2"><a xlink:href="espconn__udp_8c.html#a01fa0df74518311e3eb03f2d955f9f26" target="_top" xlink:title="espconn_udp_sendto">
<polygon fill="white" stroke="black" points="125,-114.5 125,-133.5 234,-133.5 234,-114.5 125,-114.5"/>
<text text-anchor="middle" x="179.5" y="-121.5" font-family="Helvetica,sans-Serif" font-size="10.00">espconn_udp_sendto</text>
</a>
</g>
</g>
<!-- Node28&#45;&gt;Node29 -->
<g id="edge1" class="edge"><title>Node28&#45;&gt;Node29</title>
<path fill="none" stroke="midnightblue" d="M77.2756,-80.6181C101.608,-91.0465 134.563,-105.17 156.166,-114.428"/>
<polygon fill="midnightblue" stroke="midnightblue" points="78.3314,-77.2628 67.7612,-76.5405 75.5739,-83.6968 78.3314,-77.2628"/>
</g>
<!-- Node34 -->
<g id="node7" class="node"><title>Node34</title>
<g id="a_node7"><a xlink:href="espconn__udp_8c.html#ac963eff73234530596d6c02e6bb05e09" target="_top" xlink:title="espconn_udp_sent">
<polygon fill="white" stroke="black" points="407,-114.5 407,-133.5 505,-133.5 505,-114.5 407,-114.5"/>
<text text-anchor="middle" x="456" y="-121.5" font-family="Helvetica,sans-Serif" font-size="10.00">espconn_udp_sent</text>
</a>
</g>
</g>
<!-- Node28&#45;&gt;Node34 -->
<g id="edge11" class="edge"><title>Node28&#45;&gt;Node34</title>
<path fill="none" stroke="midnightblue" d="M99.1177,-71.4993C163.839,-77.3354 275.847,-88.7317 371,-105 386.033,-107.57 402.421,-111.108 416.699,-114.435"/>
<polygon fill="midnightblue" stroke="midnightblue" points="99.4175,-68.0122 89.1462,-70.6105 98.7959,-74.9846 99.4175,-68.0122"/>
</g>
<!-- Node36 -->
<g id="node9" class="node"><title>Node36</title>
<g id="a_node9"><a xlink:href="netif_8c.html#a9c6e541f0c184e1ea61a5cd8afe3e979" target="_top" xlink:title="netif_remove">
<polygon fill="white" stroke="black" points="143,-38.5 143,-57.5 216,-57.5 216,-38.5 143,-38.5"/>
<text text-anchor="middle" x="179.5" y="-45.5" font-family="Helvetica,sans-Serif" font-size="10.00">netif_remove</text>
</a>
</g>
</g>
<!-- Node28&#45;&gt;Node36 -->
<g id="edge12" class="edge"><title>Node28&#45;&gt;Node36</title>
<path fill="none" stroke="midnightblue" d="M99.0658,-59.3477C113.791,-57.2441 129.397,-55.0147 142.842,-53.094"/>
<polygon fill="midnightblue" stroke="midnightblue" points="98.4537,-55.8996 89.0492,-60.7787 99.4437,-62.8292 98.4537,-55.8996"/>
</g>
<!-- Node38 -->
<g id="node11" class="node"><title>Node38</title>
<g id="a_node11"><a xlink:href="tunif_8c.html#a16725a7afa5c9e6338c8594bbb76c830" target="_top" xlink:title="tunif_add">
<polygon fill="white" stroke="black" points="151.5,-0.5 151.5,-19.5 207.5,-19.5 207.5,-0.5 151.5,-0.5"/>
<text text-anchor="middle" x="179.5" y="-7.5" font-family="Helvetica,sans-Serif" font-size="10.00">tunif_add</text>
</a>
</g>
</g>
<!-- Node28&#45;&gt;Node38 -->
<g id="edge14" class="edge"><title>Node28&#45;&gt;Node38</title>
<path fill="none" stroke="midnightblue" d="M73.4893,-52.7386C88.5764,-45.2768 107.616,-36.2185 125,-29 133.466,-25.4848 142.841,-22.0161 151.348,-19.024"/>
<polygon fill="midnightblue" stroke="midnightblue" points="71.5855,-49.7772 64.2028,-57.3762 74.713,-56.0397 71.5855,-49.7772"/>
</g>
<!-- Node30 -->
<g id="node3" class="node"><title>Node30</title>
<g id="a_node3"><a xlink:href="sdk_2include_2espconn_8h.html#a62219be0ac7e8dd6085915d5c0777476" target="_top" xlink:title="espconn_sendto">
<polygon fill="white" stroke="black" points="276.5,-152.5 276.5,-171.5 364.5,-171.5 364.5,-152.5 276.5,-152.5"/>
<text text-anchor="middle" x="320.5" y="-159.5" font-family="Helvetica,sans-Serif" font-size="10.00">espconn_sendto</text>
</a>
</g>
</g>
<!-- Node29&#45;&gt;Node30 -->
<g id="edge2" class="edge"><title>Node29&#45;&gt;Node30</title>
<path fill="none" stroke="midnightblue" d="M225.295,-136.246C244.455,-141.484 266.494,-147.509 284.436,-152.414"/>
<polygon fill="midnightblue" stroke="midnightblue" points="226.145,-132.85 215.576,-133.589 224.299,-139.602 226.145,-132.85"/>
</g>
<!-- Node33 -->
<g id="node6" class="node"><title>Node33</title>
<g id="a_node6"><a xlink:href="espconn__udp_8c.html#ad90679652367797548ea650f09d14f7e" target="_top" xlink:title="espconn_data_sent">
<polygon fill="white" stroke="black" points="270,-114.5 270,-133.5 371,-133.5 371,-114.5 270,-114.5"/>
<text text-anchor="middle" x="320.5" y="-121.5" font-family="Helvetica,sans-Serif" font-size="10.00">espconn_data_sent</text>
</a>
</g>
</g>
<!-- Node29&#45;&gt;Node33 -->
<g id="edge6" class="edge"><title>Node29&#45;&gt;Node33</title>
<path fill="none" stroke="midnightblue" d="M244.286,-117.27C252.917,-117.209 261.667,-117.287 269.997,-117.505"/>
<polygon fill="midnightblue" stroke="midnightblue" points="244.193,-113.771 234.241,-117.407 244.288,-120.771 244.193,-113.771"/>
</g>
<!-- Node31 -->
<g id="node4" class="node"><title>Node31</title>
<g id="a_node4"><a xlink:href="captdns_8c.html#a59c9a28ea1f015cff27b9d0c252d15f3" target="_top" xlink:title="captdnsRecv">
<polygon fill="white" stroke="black" points="419,-152.5 419,-171.5 493,-171.5 493,-152.5 419,-152.5"/>
<text text-anchor="middle" x="456" y="-159.5" font-family="Helvetica,sans-Serif" font-size="10.00">captdnsRecv</text>
</a>
</g>
</g>
<!-- Node30&#45;&gt;Node31 -->
<g id="edge3" class="edge"><title>Node30&#45;&gt;Node31</title>
<path fill="none" stroke="midnightblue" d="M375.25,-162C389.807,-162 405.221,-162 418.578,-162"/>
<polygon fill="midnightblue" stroke="midnightblue" points="374.844,-158.5 364.844,-162 374.844,-165.5 374.844,-158.5"/>
</g>
<!-- Node32 -->
<g id="node5" class="node"><title>Node32</title>
<g id="a_node5"><a xlink:href="captdns_8h.html#a88f42288d1b84cab204cca9e7f7aa9a3" target="_top" xlink:title="captdnsInit">
<polygon fill="white" stroke="black" points="547,-152.5 547,-171.5 612,-171.5 612,-152.5 547,-152.5"/>
<text text-anchor="middle" x="579.5" y="-159.5" font-family="Helvetica,sans-Serif" font-size="10.00">captdnsInit</text>
</a>
</g>
</g>
<!-- Node31&#45;&gt;Node32 -->
<g id="edge4" class="edge"><title>Node31&#45;&gt;Node32</title>
<path fill="none" stroke="midnightblue" d="M503.432,-155.419C517.937,-155.07 533.598,-155.261 546.843,-155.991"/>
<polygon fill="midnightblue" stroke="midnightblue" points="503.001,-151.932 493.125,-155.769 503.238,-158.928 503.001,-151.932"/>
</g>
<!-- Node32&#45;&gt;Node31 -->
<g id="edge5" class="edge"><title>Node32&#45;&gt;Node31</title>
<path fill="none" stroke="midnightblue" d="M536.822,-168.445C522.615,-168.914 506.859,-168.842 493.125,-168.231"/>
<polygon fill="midnightblue" stroke="midnightblue" points="537.004,-171.941 546.843,-168.009 536.7,-164.947 537.004,-171.941"/>
</g>
<!-- Node33&#45;&gt;Node29 -->
<g id="edge10" class="edge"><title>Node33&#45;&gt;Node29</title>
<path fill="none" stroke="midnightblue" d="M259.778,-130.69C251.291,-130.795 242.605,-130.762 234.241,-130.593"/>
<polygon fill="midnightblue" stroke="midnightblue" points="260.065,-134.186 269.997,-130.495 259.932,-127.187 260.065,-134.186"/>
</g>
<!-- Node33&#45;&gt;Node34 -->
<g id="edge7" class="edge"><title>Node33&#45;&gt;Node34</title>
<path fill="none" stroke="midnightblue" d="M381.386,-117.282C389.818,-117.203 398.398,-117.27 406.579,-117.481"/>
<polygon fill="midnightblue" stroke="midnightblue" points="381.151,-113.785 371.21,-117.449 381.267,-120.784 381.151,-113.785"/>
</g>
<!-- Node34&#45;&gt;Node33 -->
<g id="edge9" class="edge"><title>Node34&#45;&gt;Node33</title>
<path fill="none" stroke="midnightblue" d="M396.439,-130.705C388.024,-130.798 379.432,-130.747 371.21,-130.551"/>
<polygon fill="midnightblue" stroke="midnightblue" points="396.645,-134.202 406.579,-130.519 396.517,-127.203 396.645,-134.202"/>
</g>
<!-- Node35 -->
<g id="node8" class="node"><title>Node35</title>
<g id="a_node8"><a xlink:href="sdk_2include_2espconn_8h.html#a579e4f1c62f7c33be01398931617e988" target="_top" xlink:title="espconn_sent">
<polygon fill="white" stroke="black" points="541,-114.5 541,-133.5 618,-133.5 618,-114.5 541,-114.5"/>
<text text-anchor="middle" x="579.5" y="-121.5" font-family="Helvetica,sans-Serif" font-size="10.00">espconn_sent</text>
</a>
</g>
</g>
<!-- Node34&#45;&gt;Node35 -->
<g id="edge8" class="edge"><title>Node34&#45;&gt;Node35</title>
<path fill="none" stroke="midnightblue" d="M515.213,-124C523.961,-124 532.779,-124 540.941,-124"/>
<polygon fill="midnightblue" stroke="midnightblue" points="515.02,-120.5 505.02,-124 515.02,-127.5 515.02,-120.5"/>
</g>
<!-- Node37 -->
<g id="node10" class="node"><title>Node37</title>
<g id="a_node10"><a xlink:href="tunif_8c.html#a42dd5411e068e592138dc7629909c689" target="_top" xlink:title="tunif_del">
<polygon fill="white" stroke="black" points="294,-38.5 294,-57.5 347,-57.5 347,-38.5 294,-38.5"/>
<text text-anchor="middle" x="320.5" y="-45.5" font-family="Helvetica,sans-Serif" font-size="10.00">tunif_del</text>
</a>
</g>
</g>
<!-- Node36&#45;&gt;Node37 -->
<g id="edge13" class="edge"><title>Node36&#45;&gt;Node37</title>
<path fill="none" stroke="midnightblue" d="M226.319,-48C248.795,-48 275.023,-48 293.917,-48"/>
<polygon fill="midnightblue" stroke="midnightblue" points="226.296,-44.5001 216.296,-48 226.296,-51.5001 226.296,-44.5001"/>
</g>
</g>
</svg>
