<?xml version="1.0" encoding="UTF-8" standalone="no"?>
<!DOCTYPE svg PUBLIC "-//W3C//DTD SVG 1.1//EN"
 "http://www.w3.org/Graphics/SVG/1.1/DTD/svg11.dtd">
<!-- Generated by graphviz version 2.38.0 (20140413.2041)
 -->
<!-- Title: netif_set_gw Pages: 1 -->
<svg width="388pt" height="85pt"
 viewBox="0.00 0.00 388.00 85.00" xmlns="http://www.w3.org/2000/svg" xmlns:xlink="http://www.w3.org/1999/xlink">
<g id="graph0" class="graph" transform="scale(1 1) rotate(0) translate(4 81)">
<title>netif_set_gw</title>
<polygon fill="white" stroke="none" points="-4,4 -4,-81 384,-81 384,4 -4,4"/>
<!-- Node45 -->
<g id="node1" class="node"><title>Node45</title>
<polygon fill="#bfbfbf" stroke="black" points="0,-19.5 0,-38.5 72,-38.5 72,-19.5 0,-19.5"/>
<text text-anchor="middle" x="36" y="-26.5" font-family="Helvetica,sans-Serif" font-size="10.00">netif_set_gw</text>
</g>
<!-- Node46 -->
<g id="node2" class="node"><title>Node46</title>
<g id="a_node2"><a xlink:href="netif_8c.html#a383f97a67057d0f3cd8bfff0534973fc" target="_top" xlink:title="netif_set_addr">
<polygon fill="white" stroke="black" points="108,-38.5 108,-57.5 186,-57.5 186,-38.5 108,-38.5"/>
<text text-anchor="middle" x="147" y="-45.5" font-family="Helvetica,sans-Serif" font-size="10.00">netif_set_addr</text>
</a>
</g>
</g>
<!-- Node45&#45;&gt;Node46 -->
<g id="edge1" class="edge"><title>Node45&#45;&gt;Node46</title>
<path fill="none" stroke="midnightblue" d="M82.0084,-36.8455C90.6328,-38.3488 99.5845,-39.9092 107.963,-41.3697"/>
<polygon fill="midnightblue" stroke="midnightblue" points="82.5408,-33.3856 72.0883,-35.1163 81.3387,-40.2816 82.5408,-33.3856"/>
</g>
<!-- Node50 -->
<g id="node6" class="node"><title>Node50</title>
<g id="a_node6"><a xlink:href="tunif_8c.html#a24c2ec77588756585679aacc2634e5d6" target="_top" xlink:title="tunif_set_gw">
<polygon fill="white" stroke="black" points="111,-0.5 111,-19.5 183,-19.5 183,-0.5 111,-0.5"/>
<text text-anchor="middle" x="147" y="-7.5" font-family="Helvetica,sans-Serif" font-size="10.00">tunif_set_gw</text>
</a>
</g>
</g>
<!-- Node45&#45;&gt;Node50 -->
<g id="edge5" class="edge"><title>Node45&#45;&gt;Node50</title>
<path fill="none" stroke="midnightblue" d="M81.9717,-21.1609C91.6507,-19.4737 101.744,-17.7144 110.977,-16.1048"/>
<polygon fill="midnightblue" stroke="midnightblue" points="81.3387,-17.7184 72.0883,-22.8837 82.5408,-24.6144 81.3387,-17.7184"/>
</g>
<!-- Node47 -->
<g id="node3" class="node"><title>Node47</title>
<g id="a_node3"><a xlink:href="netif_8c.html#aaaa8066c47023b576a5f403c3ba82597" target="_top" xlink:title="netif_add">
<polygon fill="white" stroke="black" points="222,-38.5 222,-57.5 278,-57.5 278,-38.5 222,-38.5"/>
<text text-anchor="middle" x="250" y="-45.5" font-family="Helvetica,sans-Serif" font-size="10.00">netif_add</text>
</a>
</g>
</g>
<!-- Node46&#45;&gt;Node47 -->
<g id="edge2" class="edge"><title>Node46&#45;&gt;Node47</title>
<path fill="none" stroke="midnightblue" d="M196.342,-48C205.082,-48 213.909,-48 221.772,-48"/>
<polygon fill="midnightblue" stroke="midnightblue" points="196.184,-44.5001 186.184,-48 196.184,-51.5001 196.184,-44.5001"/>
</g>
<!-- Node48 -->
<g id="node4" class="node"><title>Node48</title>
<g id="a_node4"><a xlink:href="espenc_8c.html#a193505f7e2d8f132ca9698a32783fe93" target="_top" xlink:title="espenc_init">
<polygon fill="white" stroke="black" points="314,-57.5 314,-76.5 380,-76.5 380,-57.5 314,-57.5"/>
<text text-anchor="middle" x="347" y="-64.5" font-family="Helvetica,sans-Serif" font-size="10.00">espenc_init</text>
</a>
</g>
</g>
<!-- Node47&#45;&gt;Node48 -->
<g id="edge3" class="edge"><title>Node47&#45;&gt;Node48</title>
<path fill="none" stroke="midnightblue" d="M288.205,-55.4411C296.636,-57.1272 305.522,-58.9043 313.729,-60.5457"/>
<polygon fill="midnightblue" stroke="midnightblue" points="288.715,-51.9738 278.223,-53.4446 287.343,-58.8379 288.715,-51.9738"/>
</g>
<!-- Node49 -->
<g id="node5" class="node"><title>Node49</title>
<g id="a_node5"><a xlink:href="tunif_8c.html#a16725a7afa5c9e6338c8594bbb76c830" target="_top" xlink:title="tunif_add">
<polygon fill="white" stroke="black" points="319,-19.5 319,-38.5 375,-38.5 375,-19.5 319,-19.5"/>
<text text-anchor="middle" x="347" y="-26.5" font-family="Helvetica,sans-Serif" font-size="10.00">tunif_add</text>
</a>
</g>
</g>
<!-- Node47&#45;&gt;Node49 -->
<g id="edge4" class="edge"><title>Node47&#45;&gt;Node49</title>
<path fill="none" stroke="midnightblue" d="M288.137,-40.5727C298.349,-38.5303 309.232,-36.3535 318.773,-34.4454"/>
<polygon fill="midnightblue" stroke="midnightblue" points="287.343,-37.1621 278.223,-42.5554 288.715,-44.0262 287.343,-37.1621"/>
</g>
</g>
</svg>
