<?xml version="1.0" encoding="UTF-8" standalone="no"?>
<!DOCTYPE svg PUBLIC "-//W3C//DTD SVG 1.1//EN"
 "http://www.w3.org/Graphics/SVG/1.1/DTD/svg11.dtd">
<!-- Generated by graphviz version 2.38.0 (20140413.2041)
 -->
<!-- Title: esp&#45;open&#45;lwip/include/lwip/netifapi.h Pages: 1 -->
<svg width="297pt" height="173pt"
 viewBox="0.00 0.00 296.50 173.00" xmlns="http://www.w3.org/2000/svg" xmlns:xlink="http://www.w3.org/1999/xlink">
<g id="graph0" class="graph" transform="scale(1 1) rotate(0) translate(4 169)">
<title>esp&#45;open&#45;lwip/include/lwip/netifapi.h</title>
<polygon fill="white" stroke="none" points="-4,4 -4,-169 292.5,-169 292.5,4 -4,4"/>
<!-- Node15 -->
<g id="node1" class="node"><title>Node15</title>
<polygon fill="#bfbfbf" stroke="black" points="114.5,-134.5 114.5,-164.5 224.5,-164.5 224.5,-134.5 114.5,-134.5"/>
<text text-anchor="start" x="122.5" y="-152.5" font-family="Helvetica,sans-Serif" font-size="10.00">esp&#45;open&#45;lwip/include</text>
<text text-anchor="middle" x="169.5" y="-141.5" font-family="Helvetica,sans-Serif" font-size="10.00">/lwip/netifapi.h</text>
</g>
<!-- Node16 -->
<g id="node2" class="node"><title>Node16</title>
<g id="a_node2"><a xlink:href="tcpip_8h.html" target="_top" xlink:title="esp&#45;open&#45;lwip/include\l/lwip/tcpip.h">
<polygon fill="white" stroke="black" points="50.5,-67.5 50.5,-97.5 160.5,-97.5 160.5,-67.5 50.5,-67.5"/>
<text text-anchor="start" x="58.5" y="-85.5" font-family="Helvetica,sans-Serif" font-size="10.00">esp&#45;open&#45;lwip/include</text>
<text text-anchor="middle" x="105.5" y="-74.5" font-family="Helvetica,sans-Serif" font-size="10.00">/lwip/tcpip.h</text>
</a>
</g>
</g>
<!-- Node15&#45;&gt;Node16 -->
<g id="edge1" class="edge"><title>Node15&#45;&gt;Node16</title>
<path fill="none" stroke="midnightblue" d="M148.355,-127.024C138.819,-117.34 127.825,-106.174 119.36,-97.5765"/>
<polygon fill="midnightblue" stroke="midnightblue" points="146.103,-129.726 155.613,-134.396 151.091,-124.815 146.103,-129.726"/>
</g>
<!-- Node19 -->
<g id="node5" class="node"><title>Node19</title>
<g id="a_node5"><a xlink:href="encdhcpserver_8c.html" target="_top" xlink:title="esp&#45;open&#45;lwip/lwip\l/app/encdhcpserver.c">
<polygon fill="white" stroke="black" points="178.5,-67.5 178.5,-97.5 288.5,-97.5 288.5,-67.5 178.5,-67.5"/>
<text text-anchor="start" x="186.5" y="-85.5" font-family="Helvetica,sans-Serif" font-size="10.00">esp&#45;open&#45;lwip/lwip</text>
<text text-anchor="middle" x="233.5" y="-74.5" font-family="Helvetica,sans-Serif" font-size="10.00">/app/encdhcpserver.c</text>
</a>
</g>
</g>
<!-- Node15&#45;&gt;Node19 -->
<g id="edge4" class="edge"><title>Node15&#45;&gt;Node19</title>
<path fill="none" stroke="midnightblue" d="M190.645,-127.024C200.181,-117.34 211.175,-106.174 219.64,-97.5765"/>
<polygon fill="midnightblue" stroke="midnightblue" points="187.909,-124.815 183.387,-134.396 192.897,-129.726 187.909,-124.815"/>
</g>
<!-- Node17 -->
<g id="node3" class="node"><title>Node17</title>
<g id="a_node3"><a xlink:href="tcpip_8c.html" target="_top" xlink:title="esp&#45;open&#45;lwip/lwip\l/api/tcpip.c">
<polygon fill="white" stroke="black" points="0,-0.5 0,-30.5 97,-30.5 97,-0.5 0,-0.5"/>
<text text-anchor="start" x="8" y="-18.5" font-family="Helvetica,sans-Serif" font-size="10.00">esp&#45;open&#45;lwip/lwip</text>
<text text-anchor="middle" x="48.5" y="-7.5" font-family="Helvetica,sans-Serif" font-size="10.00">/api/tcpip.c</text>
</a>
</g>
</g>
<!-- Node16&#45;&gt;Node17 -->
<g id="edge2" class="edge"><title>Node16&#45;&gt;Node17</title>
<path fill="none" stroke="midnightblue" d="M86.4148,-59.7362C77.9813,-50.119 68.3086,-39.0888 60.844,-30.5765"/>
<polygon fill="midnightblue" stroke="midnightblue" points="83.9071,-62.185 93.1318,-67.396 89.1701,-57.5697 83.9071,-62.185"/>
</g>
<!-- Node18 -->
<g id="node4" class="node"><title>Node18</title>
<g id="a_node4"><a xlink:href="memp_8c.html" target="_top" xlink:title="esp&#45;open&#45;lwip/lwip\l/core/memp.c">
<polygon fill="white" stroke="black" points="115,-0.5 115,-30.5 212,-30.5 212,-0.5 115,-0.5"/>
<text text-anchor="start" x="123" y="-18.5" font-family="Helvetica,sans-Serif" font-size="10.00">esp&#45;open&#45;lwip/lwip</text>
<text text-anchor="middle" x="163.5" y="-7.5" font-family="Helvetica,sans-Serif" font-size="10.00">/core/memp.c</text>
</a>
</g>
</g>
<!-- Node16&#45;&gt;Node18 -->
<g id="edge3" class="edge"><title>Node16&#45;&gt;Node18</title>
<path fill="none" stroke="midnightblue" d="M124.92,-59.7362C133.502,-50.119 143.344,-39.0888 150.939,-30.5765"/>
<polygon fill="midnightblue" stroke="midnightblue" points="122.132,-57.6043 118.085,-67.396 127.355,-62.2648 122.132,-57.6043"/>
</g>
</g>
</svg>
