<?xml version="1.0" encoding="UTF-8" standalone="no"?>
<!DOCTYPE svg PUBLIC "-//W3C//DTD SVG 1.1//EN"
 "http://www.w3.org/Graphics/SVG/1.1/DTD/svg11.dtd">
<!-- Generated by graphviz version 2.38.0 (20140413.2041)
 -->
<!-- Title: netif_add Pages: 1 -->
<svg width="166pt" height="66pt"
 viewBox="0.00 0.00 166.00 66.00" xmlns="http://www.w3.org/2000/svg" xmlns:xlink="http://www.w3.org/1999/xlink">
<g id="graph0" class="graph" transform="scale(1 1) rotate(0) translate(4 62)">
<title>netif_add</title>
<polygon fill="white" stroke="none" points="-4,4 -4,-62 162,-62 162,4 -4,4"/>
<!-- Node5 -->
<g id="node1" class="node"><title>Node5</title>
<polygon fill="#bfbfbf" stroke="black" points="0,-19.5 0,-38.5 56,-38.5 56,-19.5 0,-19.5"/>
<text text-anchor="middle" x="28" y="-26.5" font-family="Helvetica,sans-Serif" font-size="10.00">netif_add</text>
</g>
<!-- Node6 -->
<g id="node2" class="node"><title>Node6</title>
<g id="a_node2"><a xlink:href="espenc_8c.html#a193505f7e2d8f132ca9698a32783fe93" target="_top" xlink:title="espenc_init">
<polygon fill="white" stroke="black" points="92,-38.5 92,-57.5 158,-57.5 158,-38.5 92,-38.5"/>
<text text-anchor="middle" x="125" y="-45.5" font-family="Helvetica,sans-Serif" font-size="10.00">espenc_init</text>
</a>
</g>
</g>
<!-- Node5&#45;&gt;Node6 -->
<g id="edge1" class="edge"><title>Node5&#45;&gt;Node6</title>
<path fill="none" stroke="midnightblue" d="M66.2054,-36.4411C74.6362,-38.1272 83.5215,-39.9043 91.7286,-41.5457"/>
<polygon fill="midnightblue" stroke="midnightblue" points="66.7154,-32.9738 56.2232,-34.4446 65.3426,-39.8379 66.7154,-32.9738"/>
</g>
<!-- Node7 -->
<g id="node3" class="node"><title>Node7</title>
<g id="a_node3"><a xlink:href="tunif_8c.html#a16725a7afa5c9e6338c8594bbb76c830" target="_top" xlink:title="tunif_add">
<polygon fill="white" stroke="black" points="97,-0.5 97,-19.5 153,-19.5 153,-0.5 97,-0.5"/>
<text text-anchor="middle" x="125" y="-7.5" font-family="Helvetica,sans-Serif" font-size="10.00">tunif_add</text>
</a>
</g>
</g>
<!-- Node5&#45;&gt;Node7 -->
<g id="edge2" class="edge"><title>Node5&#45;&gt;Node7</title>
<path fill="none" stroke="midnightblue" d="M66.1366,-21.5727C76.3485,-19.5303 87.2323,-17.3535 96.7728,-15.4454"/>
<polygon fill="midnightblue" stroke="midnightblue" points="65.3426,-18.1621 56.2232,-23.5554 66.7154,-25.0262 65.3426,-18.1621"/>
</g>
</g>
</svg>
