<?xml version="1.0" encoding="UTF-8" standalone="no"?>
<!DOCTYPE svg PUBLIC "-//W3C//DTD SVG 1.1//EN"
 "http://www.w3.org/Graphics/SVG/1.1/DTD/svg11.dtd">
<!-- Generated by graphviz version 2.38.0 (20140413.2041)
 -->
<!-- Title: esp&#45;open&#45;lwip/include/lwip/netif.h Pages: 1 -->
<svg width="426pt" height="655pt"
 viewBox="0.00 0.00 426.12 655.00" xmlns="http://www.w3.org/2000/svg" xmlns:xlink="http://www.w3.org/1999/xlink">
<g id="graph0" class="graph" transform="scale(1 1) rotate(0) translate(4 651)">
<title>esp&#45;open&#45;lwip/include/lwip/netif.h</title>
<polygon fill="white" stroke="none" points="-4,4 -4,-651 422.12,-651 422.12,4 -4,4"/>
<!-- Node0 -->
<g id="node1" class="node"><title>Node0</title>
<polygon fill="#bfbfbf" stroke="black" points="52.6195,-616.5 52.6195,-646.5 162.62,-646.5 162.62,-616.5 52.6195,-616.5"/>
<text text-anchor="start" x="60.6195" y="-634.5" font-family="Helvetica,sans-Serif" font-size="10.00">esp&#45;open&#45;lwip/include</text>
<text text-anchor="middle" x="107.62" y="-623.5" font-family="Helvetica,sans-Serif" font-size="10.00">/lwip/netif.h</text>
</g>
<!-- Node1 -->
<g id="node2" class="node"><title>Node1</title>
<g id="a_node2"><a xlink:href="opt_8h.html" target="_top" xlink:title="lwip/opt.h">
<polygon fill="white" stroke="black" points="74.1195,-448.5 74.1195,-467.5 133.12,-467.5 133.12,-448.5 74.1195,-448.5"/>
<text text-anchor="middle" x="103.62" y="-455.5" font-family="Helvetica,sans-Serif" font-size="10.00">lwip/opt.h</text>
</a>
</g>
</g>
<!-- Node0&#45;&gt;Node1 -->
<g id="edge1" class="edge"><title>Node0&#45;&gt;Node1</title>
<path fill="none" stroke="midnightblue" d="M54.1539,-616.464C35.8378,-608.818 17.2869,-597.26 6.61951,-580 -19.3476,-537.984 41.715,-494.049 78.4089,-472.522"/>
<polygon fill="midnightblue" stroke="midnightblue" points="80.1876,-475.537 87.1451,-467.546 76.7234,-469.454 80.1876,-475.537"/>
</g>
<!-- Node15 -->
<g id="node16" class="node"><title>Node15</title>
<g id="a_node16"><a xlink:href="err_8h.html" target="_top" xlink:title="lwip/err.h">
<polygon fill="white" stroke="black" points="75.6195,-504.5 75.6195,-523.5 131.62,-523.5 131.62,-504.5 75.6195,-504.5"/>
<text text-anchor="middle" x="103.62" y="-511.5" font-family="Helvetica,sans-Serif" font-size="10.00">lwip/err.h</text>
</a>
</g>
</g>
<!-- Node0&#45;&gt;Node15 -->
<g id="edge18" class="edge"><title>Node0&#45;&gt;Node15</title>
<path fill="none" stroke="midnightblue" d="M107.129,-616.337C106.412,-595.622 105.075,-557.016 104.274,-533.899"/>
<polygon fill="midnightblue" stroke="midnightblue" points="107.764,-533.542 103.92,-523.669 100.768,-533.785 107.764,-533.542"/>
</g>
<!-- Node16 -->
<g id="node17" class="node"><title>Node16</title>
<g id="a_node17"><a xlink:href="esp-open-lwip_2include_2lwip_2ip__addr_8h.html" target="_top" xlink:title="lwip/ip_addr.h">
<polygon fill="white" stroke="black" points="136.12,-560.5 136.12,-579.5 213.12,-579.5 213.12,-560.5 136.12,-560.5"/>
<text text-anchor="middle" x="174.62" y="-567.5" font-family="Helvetica,sans-Serif" font-size="10.00">lwip/ip_addr.h</text>
</a>
</g>
</g>
<!-- Node0&#45;&gt;Node16 -->
<g id="edge21" class="edge"><title>Node0&#45;&gt;Node16</title>
<path fill="none" stroke="midnightblue" d="M123.498,-616.399C133.635,-607.397 146.782,-595.721 157.205,-586.465"/>
<polygon fill="midnightblue" stroke="midnightblue" points="159.717,-588.915 164.87,-579.658 155.069,-583.681 159.717,-588.915"/>
</g>
<!-- Node17 -->
<g id="node18" class="node"><title>Node17</title>
<g id="a_node18"><a xlink:href="def_8h.html" target="_top" xlink:title="lwip/def.h">
<polygon fill="white" stroke="black" points="188.12,-504.5 188.12,-523.5 247.12,-523.5 247.12,-504.5 188.12,-504.5"/>
<text text-anchor="middle" x="217.62" y="-511.5" font-family="Helvetica,sans-Serif" font-size="10.00">lwip/def.h</text>
</a>
</g>
</g>
<!-- Node0&#45;&gt;Node17 -->
<g id="edge26" class="edge"><title>Node0&#45;&gt;Node17</title>
<path fill="none" stroke="midnightblue" d="M162.699,-619.829C184.923,-612.527 208.396,-600.321 221.62,-580 230.475,-566.391 228.137,-547.596 224.376,-533.715"/>
<polygon fill="midnightblue" stroke="midnightblue" points="227.601,-532.305 221.242,-523.83 220.928,-534.421 227.601,-532.305"/>
</g>
<!-- Node18 -->
<g id="node19" class="node"><title>Node18</title>
<g id="a_node19"><a xlink:href="pbuf_8h.html" target="_top" xlink:title="lwip/pbuf.h">
<polygon fill="white" stroke="black" points="15.6195,-560.5 15.6195,-579.5 79.6195,-579.5 79.6195,-560.5 15.6195,-560.5"/>
<text text-anchor="middle" x="47.6195" y="-567.5" font-family="Helvetica,sans-Serif" font-size="10.00">lwip/pbuf.h</text>
</a>
</g>
</g>
<!-- Node0&#45;&gt;Node18 -->
<g id="edge27" class="edge"><title>Node0&#45;&gt;Node18</title>
<path fill="none" stroke="midnightblue" d="M93.4004,-616.399C84.412,-607.486 72.7815,-595.952 63.4926,-586.741"/>
<polygon fill="midnightblue" stroke="midnightblue" points="65.9152,-584.214 56.35,-579.658 60.9862,-589.184 65.9152,-584.214"/>
</g>
<!-- Node2 -->
<g id="node3" class="node"><title>Node2</title>
<g id="a_node3"><a xlink:href="lwipopts_8h.html" target="_top" xlink:title="lwipopts.h">
<polygon fill="white" stroke="black" points="36.1195,-336.5 36.1195,-355.5 97.1195,-355.5 97.1195,-336.5 36.1195,-336.5"/>
<text text-anchor="middle" x="66.6195" y="-343.5" font-family="Helvetica,sans-Serif" font-size="10.00">lwipopts.h</text>
</a>
</g>
</g>
<!-- Node1&#45;&gt;Node2 -->
<g id="edge2" class="edge"><title>Node1&#45;&gt;Node2</title>
<path fill="none" stroke="midnightblue" d="M91.4058,-448.236C81.2659,-440.143 67.5761,-427.112 61.6195,-412 55.783,-397.193 57.8674,-379.04 60.9317,-365.684"/>
<polygon fill="midnightblue" stroke="midnightblue" points="64.3798,-366.338 63.5839,-355.773 57.6178,-364.529 64.3798,-366.338"/>
</g>
<!-- Node3 -->
<g id="node4" class="node"><title>Node3</title>
<g id="a_node4"><a xlink:href="esp-open-sdk_2esp-open-lwip_2include_2lwip_2debug_8h.html" target="_top" xlink:title="lwip/debug.h">
<polygon fill="white" stroke="black" points="71.1195,-392.5 71.1195,-411.5 142.12,-411.5 142.12,-392.5 71.1195,-392.5"/>
<text text-anchor="middle" x="106.62" y="-399.5" font-family="Helvetica,sans-Serif" font-size="10.00">lwip/debug.h</text>
</a>
</g>
</g>
<!-- Node1&#45;&gt;Node3 -->
<g id="edge3" class="edge"><title>Node1&#45;&gt;Node3</title>
<path fill="none" stroke="midnightblue" d="M104.115,-448.083C104.508,-441.006 105.072,-430.861 105.565,-421.986"/>
<polygon fill="midnightblue" stroke="midnightblue" points="109.073,-421.93 106.133,-411.751 102.084,-421.542 109.073,-421.93"/>
</g>
<!-- Node3&#45;&gt;Node2 -->
<g id="edge4" class="edge"><title>Node3&#45;&gt;Node2</title>
<path fill="none" stroke="midnightblue" d="M100.014,-392.083C94.3643,-384.455 86.0747,-373.264 79.1683,-363.941"/>
<polygon fill="midnightblue" stroke="midnightblue" points="81.8666,-361.703 73.1018,-355.751 76.2417,-365.87 81.8666,-361.703"/>
</g>
<!-- Node4 -->
<g id="node5" class="node"><title>Node4</title>
<g id="a_node5"><a xlink:href="arch_8h.html" target="_top" xlink:title="lwip/arch.h">
<polygon fill="white" stroke="black" points="138.62,-336.5 138.62,-355.5 202.62,-355.5 202.62,-336.5 138.62,-336.5"/>
<text text-anchor="middle" x="170.62" y="-343.5" font-family="Helvetica,sans-Serif" font-size="10.00">lwip/arch.h</text>
</a>
</g>
</g>
<!-- Node3&#45;&gt;Node4 -->
<g id="edge5" class="edge"><title>Node3&#45;&gt;Node4</title>
<path fill="none" stroke="midnightblue" d="M116.902,-392.324C126.456,-384.263 140.899,-372.077 152.404,-362.369"/>
<polygon fill="midnightblue" stroke="midnightblue" points="154.764,-364.958 160.15,-355.834 150.25,-359.608 154.764,-364.958"/>
</g>
<!-- Node5 -->
<g id="node6" class="node"><title>Node5</title>
<g id="a_node6"><a xlink:href="cc_8h.html" target="_top" xlink:title="arch/cc.h">
<polygon fill="white" stroke="black" points="142.12,-280.5 142.12,-299.5 199.12,-299.5 199.12,-280.5 142.12,-280.5"/>
<text text-anchor="middle" x="170.62" y="-287.5" font-family="Helvetica,sans-Serif" font-size="10.00">arch/cc.h</text>
</a>
</g>
</g>
<!-- Node4&#45;&gt;Node5 -->
<g id="edge6" class="edge"><title>Node4&#45;&gt;Node5</title>
<path fill="none" stroke="midnightblue" d="M170.62,-336.083C170.62,-329.006 170.62,-318.861 170.62,-309.986"/>
<polygon fill="midnightblue" stroke="midnightblue" points="174.12,-309.751 170.62,-299.751 167.12,-309.751 174.12,-309.751"/>
</g>
<!-- Node6 -->
<g id="node7" class="node"><title>Node6</title>
<g id="a_node7"><a xlink:href="c__types_8h.html" target="_top" xlink:title="c_types.h">
<polygon fill="white" stroke="black" points="103.12,-56.5 103.12,-75.5 162.12,-75.5 162.12,-56.5 103.12,-56.5"/>
<text text-anchor="middle" x="132.62" y="-63.5" font-family="Helvetica,sans-Serif" font-size="10.00">c_types.h</text>
</a>
</g>
</g>
<!-- Node5&#45;&gt;Node6 -->
<g id="edge7" class="edge"><title>Node5&#45;&gt;Node6</title>
<path fill="none" stroke="midnightblue" d="M169.13,-280.297C163.539,-247.633 143.723,-131.866 135.864,-85.9573"/>
<polygon fill="midnightblue" stroke="midnightblue" points="139.277,-85.1499 134.14,-75.8837 132.378,-86.3309 139.277,-85.1499"/>
</g>
<!-- Node9 -->
<g id="node10" class="node"><title>Node9</title>
<g id="a_node10"><a xlink:href="ets__sys_8h.html" target="_top" xlink:title="ets_sys.h">
<polygon fill="white" stroke="black" points="173.12,-112.5 173.12,-131.5 232.12,-131.5 232.12,-112.5 173.12,-112.5"/>
<text text-anchor="middle" x="202.62" y="-119.5" font-family="Helvetica,sans-Serif" font-size="10.00">ets_sys.h</text>
</a>
</g>
</g>
<!-- Node5&#45;&gt;Node9 -->
<g id="edge10" class="edge"><title>Node5&#45;&gt;Node9</title>
<path fill="none" stroke="midnightblue" d="M171.591,-280.422C173.926,-260.522 180.355,-209.725 189.62,-168 191.605,-159.058 194.36,-149.273 196.823,-141.118"/>
<polygon fill="midnightblue" stroke="midnightblue" points="200.173,-142.133 199.803,-131.544 193.489,-140.052 200.173,-142.133"/>
</g>
<!-- Node11 -->
<g id="node12" class="node"><title>Node11</title>
<g id="a_node12"><a xlink:href="osapi_8h.html" target="_top" xlink:title="osapi.h">
<polygon fill="white" stroke="black" points="240.62,-224.5 240.62,-243.5 288.62,-243.5 288.62,-224.5 240.62,-224.5"/>
<text text-anchor="middle" x="264.62" y="-231.5" font-family="Helvetica,sans-Serif" font-size="10.00">osapi.h</text>
</a>
</g>
</g>
<!-- Node5&#45;&gt;Node11 -->
<g id="edge13" class="edge"><title>Node5&#45;&gt;Node11</title>
<path fill="none" stroke="midnightblue" d="M185.722,-280.324C200.523,-271.822 223.314,-258.729 240.602,-248.797"/>
<polygon fill="midnightblue" stroke="midnightblue" points="242.627,-251.671 249.554,-243.655 239.14,-245.601 242.627,-251.671"/>
</g>
<!-- Node7 -->
<g id="node8" class="node"><title>Node7</title>
<polygon fill="white" stroke="#bfbfbf" points="73.1195,-0.5 73.1195,-19.5 122.12,-19.5 122.12,-0.5 73.1195,-0.5"/>
<text text-anchor="middle" x="97.6195" y="-7.5" font-family="Helvetica,sans-Serif" font-size="10.00">stdint.h</text>
</g>
<!-- Node6&#45;&gt;Node7 -->
<g id="edge8" class="edge"><title>Node6&#45;&gt;Node7</title>
<path fill="none" stroke="midnightblue" d="M126.84,-56.083C121.947,-48.5341 114.792,-37.4948 108.787,-28.2298"/>
<polygon fill="midnightblue" stroke="midnightblue" points="111.668,-26.239 103.292,-19.7511 105.793,-30.0463 111.668,-26.239"/>
</g>
<!-- Node8 -->
<g id="node9" class="node"><title>Node8</title>
<polygon fill="white" stroke="#bfbfbf" points="140.62,-0.5 140.62,-19.5 196.62,-19.5 196.62,-0.5 140.62,-0.5"/>
<text text-anchor="middle" x="168.62" y="-7.5" font-family="Helvetica,sans-Serif" font-size="10.00">stdbool.h</text>
</g>
<!-- Node6&#45;&gt;Node8 -->
<g id="edge9" class="edge"><title>Node6&#45;&gt;Node8</title>
<path fill="none" stroke="midnightblue" d="M138.564,-56.083C143.597,-48.5341 150.956,-37.4948 157.133,-28.2298"/>
<polygon fill="midnightblue" stroke="midnightblue" points="160.151,-30.0131 162.785,-19.7511 154.326,-26.1301 160.151,-30.0131"/>
</g>
<!-- Node9&#45;&gt;Node6 -->
<g id="edge11" class="edge"><title>Node9&#45;&gt;Node6</title>
<path fill="none" stroke="midnightblue" d="M191.373,-112.324C180.822,-104.185 164.819,-91.8395 152.177,-82.0874"/>
<polygon fill="midnightblue" stroke="midnightblue" points="154.127,-79.1707 144.071,-75.8339 149.851,-84.7132 154.127,-79.1707"/>
</g>
<!-- Node10 -->
<g id="node11" class="node"><title>Node10</title>
<g id="a_node11"><a xlink:href="eagle__soc_8h.html" target="_top" xlink:title="eagle_soc.h">
<polygon fill="white" stroke="black" points="180.12,-56.5 180.12,-75.5 249.12,-75.5 249.12,-56.5 180.12,-56.5"/>
<text text-anchor="middle" x="214.62" y="-63.5" font-family="Helvetica,sans-Serif" font-size="10.00">eagle_soc.h</text>
</a>
</g>
</g>
<!-- Node9&#45;&gt;Node10 -->
<g id="edge12" class="edge"><title>Node9&#45;&gt;Node10</title>
<path fill="none" stroke="midnightblue" d="M204.601,-112.083C206.191,-104.927 208.478,-94.6353 210.466,-85.6911"/>
<polygon fill="midnightblue" stroke="midnightblue" points="213.922,-86.2722 212.675,-75.7511 207.089,-84.7537 213.922,-86.2722"/>
</g>
<!-- Node12 -->
<g id="node13" class="node"><title>Node12</title>
<polygon fill="white" stroke="#bfbfbf" points="276.12,-168.5 276.12,-187.5 325.12,-187.5 325.12,-168.5 276.12,-168.5"/>
<text text-anchor="middle" x="300.62" y="-175.5" font-family="Helvetica,sans-Serif" font-size="10.00">string.h</text>
</g>
<!-- Node11&#45;&gt;Node12 -->
<g id="edge14" class="edge"><title>Node11&#45;&gt;Node12</title>
<path fill="none" stroke="midnightblue" d="M270.564,-224.083C275.597,-216.534 282.956,-205.495 289.133,-196.23"/>
<polygon fill="midnightblue" stroke="midnightblue" points="292.151,-198.013 294.785,-187.751 286.326,-194.13 292.151,-198.013"/>
</g>
<!-- Node13 -->
<g id="node14" class="node"><title>Node13</title>
<g id="a_node14"><a xlink:href="os__type_8h.html" target="_top" xlink:title="os_type.h">
<polygon fill="white" stroke="black" points="199.12,-168.5 199.12,-187.5 258.12,-187.5 258.12,-168.5 199.12,-168.5"/>
<text text-anchor="middle" x="228.62" y="-175.5" font-family="Helvetica,sans-Serif" font-size="10.00">os_type.h</text>
</a>
</g>
</g>
<!-- Node11&#45;&gt;Node13 -->
<g id="edge15" class="edge"><title>Node11&#45;&gt;Node13</title>
<path fill="none" stroke="midnightblue" d="M258.675,-224.083C253.642,-216.534 246.283,-205.495 240.106,-196.23"/>
<polygon fill="midnightblue" stroke="midnightblue" points="242.913,-194.13 234.454,-187.751 237.088,-198.013 242.913,-194.13"/>
</g>
<!-- Node14 -->
<g id="node15" class="node"><title>Node14</title>
<polygon fill="white" stroke="#bfbfbf" points="343.12,-168.5 343.12,-187.5 418.12,-187.5 418.12,-168.5 343.12,-168.5"/>
<text text-anchor="middle" x="380.62" y="-175.5" font-family="Helvetica,sans-Serif" font-size="10.00">user_config.h</text>
</g>
<!-- Node11&#45;&gt;Node14 -->
<g id="edge17" class="edge"><title>Node11&#45;&gt;Node14</title>
<path fill="none" stroke="midnightblue" d="M283,-224.444C301.836,-215.675 331.351,-201.935 352.999,-191.858"/>
<polygon fill="midnightblue" stroke="midnightblue" points="354.736,-194.91 362.325,-187.516 351.782,-188.564 354.736,-194.91"/>
</g>
<!-- Node13&#45;&gt;Node9 -->
<g id="edge16" class="edge"><title>Node13&#45;&gt;Node9</title>
<path fill="none" stroke="midnightblue" d="M224.326,-168.083C220.767,-160.691 215.597,-149.953 211.195,-140.811"/>
<polygon fill="midnightblue" stroke="midnightblue" points="214.325,-139.243 206.833,-131.751 208.018,-142.279 214.325,-139.243"/>
</g>
<!-- Node15&#45;&gt;Node1 -->
<g id="edge19" class="edge"><title>Node15&#45;&gt;Node1</title>
<path fill="none" stroke="midnightblue" d="M103.62,-504.083C103.62,-497.006 103.62,-486.861 103.62,-477.986"/>
<polygon fill="midnightblue" stroke="midnightblue" points="107.12,-477.751 103.62,-467.751 100.12,-477.751 107.12,-477.751"/>
</g>
<!-- Node15&#45;&gt;Node4 -->
<g id="edge20" class="edge"><title>Node15&#45;&gt;Node4</title>
<path fill="none" stroke="midnightblue" d="M113.189,-504.281C121.884,-495.831 134.42,-482.235 141.62,-468 158.621,-434.385 165.916,-390.421 168.84,-365.804"/>
<polygon fill="midnightblue" stroke="midnightblue" points="172.339,-365.998 169.922,-355.683 165.379,-365.254 172.339,-365.998"/>
</g>
<!-- Node16&#45;&gt;Node1 -->
<g id="edge22" class="edge"><title>Node16&#45;&gt;Node1</title>
<path fill="none" stroke="midnightblue" d="M170.756,-560.268C164.945,-547.482 153.279,-523.111 140.62,-504 133.987,-493.987 125.546,-483.58 118.402,-475.3"/>
<polygon fill="midnightblue" stroke="midnightblue" points="120.799,-472.727 111.556,-467.547 115.551,-477.359 120.799,-472.727"/>
</g>
<!-- Node16&#45;&gt;Node17 -->
<g id="edge23" class="edge"><title>Node16&#45;&gt;Node17</title>
<path fill="none" stroke="midnightblue" d="M181.72,-560.083C187.857,-552.377 196.889,-541.033 204.359,-531.653"/>
<polygon fill="midnightblue" stroke="midnightblue" points="207.16,-533.754 210.651,-523.751 201.684,-529.394 207.16,-533.754"/>
</g>
<!-- Node17&#45;&gt;Node1 -->
<g id="edge25" class="edge"><title>Node17&#45;&gt;Node1</title>
<path fill="none" stroke="midnightblue" d="M199.556,-504.444C181.045,-495.675 152.039,-481.935 130.764,-471.858"/>
<polygon fill="midnightblue" stroke="midnightblue" points="132.134,-468.634 121.599,-467.516 129.138,-474.96 132.134,-468.634"/>
</g>
<!-- Node17&#45;&gt;Node4 -->
<g id="edge24" class="edge"><title>Node17&#45;&gt;Node4</title>
<path fill="none" stroke="midnightblue" d="M215.402,-504.462C210.231,-484.646 196.88,-434.014 184.62,-392 182.038,-383.153 179.018,-373.379 176.445,-365.207"/>
<polygon fill="midnightblue" stroke="midnightblue" points="179.756,-364.071 173.394,-355.599 173.084,-366.19 179.756,-364.071"/>
</g>
<!-- Node18&#45;&gt;Node1 -->
<g id="edge28" class="edge"><title>Node18&#45;&gt;Node1</title>
<path fill="none" stroke="midnightblue" d="M49.034,-560.162C51.3541,-547.244 56.7297,-522.709 66.6195,-504 72.2206,-493.404 80.5642,-482.975 87.9112,-474.83"/>
<polygon fill="midnightblue" stroke="midnightblue" points="90.4828,-477.204 94.7876,-467.523 85.3853,-472.407 90.4828,-477.204"/>
</g>
<!-- Node18&#45;&gt;Node15 -->
<g id="edge29" class="edge"><title>Node18&#45;&gt;Node15</title>
<path fill="none" stroke="midnightblue" d="M56.6169,-560.324C64.814,-552.42 77.1251,-540.548 87.0916,-530.938"/>
<polygon fill="midnightblue" stroke="midnightblue" points="89.6895,-533.295 94.4584,-523.834 84.8305,-528.256 89.6895,-533.295"/>
</g>
</g>
</svg>
