<?xml version="1.0" encoding="UTF-8" standalone="no"?>
<!DOCTYPE svg PUBLIC "-//W3C//DTD SVG 1.1//EN"
 "http://www.w3.org/Graphics/SVG/1.1/DTD/svg11.dtd">
<!-- Generated by graphviz version 2.38.0 (20140413.2041)
 -->
<!-- Title: netif_set_down Pages: 1 -->
<svg width="299pt" height="66pt"
 viewBox="0.00 0.00 299.00 66.00" xmlns="http://www.w3.org/2000/svg" xmlns:xlink="http://www.w3.org/1999/xlink">
<g id="graph0" class="graph" transform="scale(1 1) rotate(0) translate(4 62)">
<title>netif_set_down</title>
<polygon fill="white" stroke="none" points="-4,4 -4,-62 295,-62 295,4 -4,4"/>
<!-- Node40 -->
<g id="node1" class="node"><title>Node40</title>
<polygon fill="#bfbfbf" stroke="black" points="0,-19.5 0,-38.5 83,-38.5 83,-19.5 0,-19.5"/>
<text text-anchor="middle" x="41.5" y="-26.5" font-family="Helvetica,sans-Serif" font-size="10.00">netif_set_down</text>
</g>
<!-- Node41 -->
<g id="node2" class="node"><title>Node41</title>
<g id="a_node2"><a xlink:href="netif_8c.html#a9c6e541f0c184e1ea61a5cd8afe3e979" target="_top" xlink:title="netif_remove">
<polygon fill="white" stroke="black" points="124,-38.5 124,-57.5 197,-57.5 197,-38.5 124,-38.5"/>
<text text-anchor="middle" x="160.5" y="-45.5" font-family="Helvetica,sans-Serif" font-size="10.00">netif_remove</text>
</a>
</g>
</g>
<!-- Node40&#45;&gt;Node41 -->
<g id="edge1" class="edge"><title>Node40&#45;&gt;Node41</title>
<path fill="none" stroke="midnightblue" d="M93.1972,-37.2329C103.458,-38.8992 114.046,-40.6185 123.666,-42.1808"/>
<polygon fill="midnightblue" stroke="midnightblue" points="93.5243,-33.7402 83.0926,-35.592 92.4022,-40.6497 93.5243,-33.7402"/>
</g>
<!-- Node43 -->
<g id="node4" class="node"><title>Node43</title>
<g id="a_node4"><a xlink:href="tunif_8c.html#a8ded4a2407f3df76972eb7d2876991a4" target="_top" xlink:title="tunif_set_down">
<polygon fill="white" stroke="black" points="119,-0.5 119,-19.5 202,-19.5 202,-0.5 119,-0.5"/>
<text text-anchor="middle" x="160.5" y="-7.5" font-family="Helvetica,sans-Serif" font-size="10.00">tunif_set_down</text>
</a>
</g>
</g>
<!-- Node40&#45;&gt;Node43 -->
<g id="edge3" class="edge"><title>Node40&#45;&gt;Node43</title>
<path fill="none" stroke="midnightblue" d="M93.0946,-20.7838C101.746,-19.3788 110.633,-17.9356 118.979,-16.5803"/>
<polygon fill="midnightblue" stroke="midnightblue" points="92.4022,-17.3503 83.0926,-22.408 93.5243,-24.2598 92.4022,-17.3503"/>
</g>
<!-- Node42 -->
<g id="node3" class="node"><title>Node42</title>
<g id="a_node3"><a xlink:href="tunif_8c.html#a42dd5411e068e592138dc7629909c689" target="_top" xlink:title="tunif_del">
<polygon fill="white" stroke="black" points="238,-38.5 238,-57.5 291,-57.5 291,-38.5 238,-38.5"/>
<text text-anchor="middle" x="264.5" y="-45.5" font-family="Helvetica,sans-Serif" font-size="10.00">tunif_del</text>
</a>
</g>
</g>
<!-- Node41&#45;&gt;Node42 -->
<g id="edge2" class="edge"><title>Node41&#45;&gt;Node42</title>
<path fill="none" stroke="midnightblue" d="M207.484,-48C217.955,-48 228.711,-48 237.963,-48"/>
<polygon fill="midnightblue" stroke="midnightblue" points="207.175,-44.5001 197.175,-48 207.175,-51.5001 207.175,-44.5001"/>
</g>
</g>
</svg>
