<?xml version="1.0" encoding="UTF-8" standalone="no"?>
<!DOCTYPE svg PUBLIC "-//W3C//DTD SVG 1.1//EN"
 "http://www.w3.org/Graphics/SVG/1.1/DTD/svg11.dtd">
<!-- Generated by graphviz version 2.38.0 (20140413.2041)
 -->
<!-- Title: os_random Pages: 1 -->
<svg width="184pt" height="66pt"
 viewBox="0.00 0.00 184.00 66.00" xmlns="http://www.w3.org/2000/svg" xmlns:xlink="http://www.w3.org/1999/xlink">
<g id="graph0" class="graph" transform="scale(1 1) rotate(0) translate(4 62)">
<title>os_random</title>
<polygon fill="white" stroke="none" points="-4,4 -4,-62 180,-62 180,4 -4,4"/>
<!-- Node70 -->
<g id="node1" class="node"><title>Node70</title>
<polygon fill="#bfbfbf" stroke="black" points="0,-19.5 0,-38.5 65,-38.5 65,-19.5 0,-19.5"/>
<text text-anchor="middle" x="32.5" y="-26.5" font-family="Helvetica,sans-Serif" font-size="10.00">os_random</text>
</g>
<!-- Node71 -->
<g id="node2" class="node"><title>Node71</title>
<g id="a_node2"><a xlink:href="sdk_2include_2espconn_8h.html#a8666579cda9afb8e01dff613326062c0" target="_top" xlink:title="espconn_port">
<polygon fill="white" stroke="black" points="101,-38.5 101,-57.5 176,-57.5 176,-38.5 101,-38.5"/>
<text text-anchor="middle" x="138.5" y="-45.5" font-family="Helvetica,sans-Serif" font-size="10.00">espconn_port</text>
</a>
</g>
</g>
<!-- Node70&#45;&gt;Node71 -->
<g id="edge1" class="edge"><title>Node70&#45;&gt;Node71</title>
<path fill="none" stroke="midnightblue" d="M75.3181,-36.6398C83.7601,-38.1821 92.5748,-39.7925 100.824,-41.2996"/>
<polygon fill="midnightblue" stroke="midnightblue" points="75.7348,-33.1581 65.2685,-34.8039 74.4767,-40.0441 75.7348,-33.1581"/>
</g>
<!-- Node72 -->
<g id="node3" class="node"><title>Node72</title>
<g id="a_node3"><a xlink:href="ip_8c.html#a67e0618e1375dc07b5a035522c3f603b" target="_top" xlink:title="ip_router">
<polygon fill="white" stroke="black" points="111.5,-0.5 111.5,-19.5 165.5,-19.5 165.5,-0.5 111.5,-0.5"/>
<text text-anchor="middle" x="138.5" y="-7.5" font-family="Helvetica,sans-Serif" font-size="10.00">ip_router</text>
</a>
</g>
</g>
<!-- Node70&#45;&gt;Node72 -->
<g id="edge2" class="edge"><title>Node70&#45;&gt;Node72</title>
<path fill="none" stroke="midnightblue" d="M75.2175,-21.3785C87.3522,-19.1616 100.265,-16.8025 111.168,-14.8106"/>
<polygon fill="midnightblue" stroke="midnightblue" points="74.4767,-17.9559 65.2685,-23.1961 75.7348,-24.8419 74.4767,-17.9559"/>
</g>
</g>
</svg>
