<?xml version="1.0" encoding="UTF-8" standalone="no"?>
<!DOCTYPE svg PUBLIC "-//W3C//DTD SVG 1.1//EN"
 "http://www.w3.org/Graphics/SVG/1.1/DTD/svg11.dtd">
<!-- Generated by graphviz version 2.38.0 (20140413.2041)
 -->
<!-- Title: pbuf_chain Pages: 1 -->
<svg width="162pt" height="66pt"
 viewBox="0.00 0.00 162.00 66.00" xmlns="http://www.w3.org/2000/svg" xmlns:xlink="http://www.w3.org/1999/xlink">
<g id="graph0" class="graph" transform="scale(1 1) rotate(0) translate(4 62)">
<title>pbuf_chain</title>
<polygon fill="white" stroke="none" points="-4,4 -4,-62 158,-62 158,4 -4,4"/>
<!-- Node37 -->
<g id="node1" class="node"><title>Node37</title>
<polygon fill="#bfbfbf" stroke="black" points="0,-19.5 0,-38.5 64,-38.5 64,-19.5 0,-19.5"/>
<text text-anchor="middle" x="32" y="-26.5" font-family="Helvetica,sans-Serif" font-size="10.00">pbuf_chain</text>
</g>
<!-- Node38 -->
<g id="node2" class="node"><title>Node38</title>
<g id="a_node2"><a xlink:href="pbuf_8c.html#a82429084fe29015509c9b4a072707cd4" target="_top" xlink:title="pbuf_cat">
<polygon fill="white" stroke="black" points="100,-38.5 100,-57.5 154,-57.5 154,-38.5 100,-38.5"/>
<text text-anchor="middle" x="127" y="-45.5" font-family="Helvetica,sans-Serif" font-size="10.00">pbuf_cat</text>
</a>
</g>
</g>
<!-- Node37&#45;&gt;Node38 -->
<g id="edge1" class="edge"><title>Node37&#45;&gt;Node38</title>
<path fill="none" stroke="midnightblue" d="M64.2264,-35.3796C72.4797,-37.0657 81.4552,-38.8994 89.9414,-40.6332"/>
<polygon fill="midnightblue" stroke="midnightblue" points="89.4705,-44.1092 99.9687,-42.6818 90.8717,-37.2509 89.4705,-44.1092"/>
</g>
<!-- Node39 -->
<g id="node3" class="node"><title>Node39</title>
<g id="a_node3"><a xlink:href="pbuf_8c.html#a77f6bbd69e45e542014d9c547c7da74e" target="_top" xlink:title="pbuf_ref">
<polygon fill="white" stroke="black" points="101,-0.5 101,-19.5 153,-19.5 153,-0.5 101,-0.5"/>
<text text-anchor="middle" x="127" y="-7.5" font-family="Helvetica,sans-Serif" font-size="10.00">pbuf_ref</text>
</a>
</g>
</g>
<!-- Node37&#45;&gt;Node39 -->
<g id="edge2" class="edge"><title>Node37&#45;&gt;Node39</title>
<path fill="none" stroke="midnightblue" d="M64.2264,-22.6204C72.798,-20.8692 82.1485,-18.9589 90.9209,-17.1667"/>
<polygon fill="midnightblue" stroke="midnightblue" points="91.7751,-20.5646 100.872,-15.1337 90.3739,-13.7062 91.7751,-20.5646"/>
</g>
</g>
</svg>
