<?xml version="1.0" encoding="UTF-8" standalone="no"?>
<!DOCTYPE svg PUBLIC "-//W3C//DTD SVG 1.1//EN"
 "http://www.w3.org/Graphics/SVG/1.1/DTD/svg11.dtd">
<!-- Generated by graphviz version 2.38.0 (20140413.2041)
 -->
<!-- Title: pbuf_memfind Pages: 1 -->
<svg width="307pt" height="28pt"
 viewBox="0.00 0.00 307.00 28.00" xmlns="http://www.w3.org/2000/svg" xmlns:xlink="http://www.w3.org/1999/xlink">
<g id="graph0" class="graph" transform="scale(1 1) rotate(0) translate(4 24)">
<title>pbuf_memfind</title>
<polygon fill="white" stroke="none" points="-4,4 -4,-24 303,-24 303,4 -4,4"/>
<!-- Node181 -->
<g id="node1" class="node"><title>Node181</title>
<polygon fill="#bfbfbf" stroke="black" points="0,-0.5 0,-19.5 78,-19.5 78,-0.5 0,-0.5"/>
<text text-anchor="middle" x="39" y="-7.5" font-family="Helvetica,sans-Serif" font-size="10.00">pbuf_memfind</text>
</g>
<!-- Node182 -->
<g id="node2" class="node"><title>Node182</title>
<g id="a_node2"><a xlink:href="pbuf_8c.html#a9c958b2d670dc831a982ea836c6bdfdb" target="_top" xlink:title="pbuf_memcmp">
<polygon fill="white" stroke="black" points="114,-0.5 114,-19.5 195,-19.5 195,-0.5 114,-0.5"/>
<text text-anchor="middle" x="154.5" y="-7.5" font-family="Helvetica,sans-Serif" font-size="10.00">pbuf_memcmp</text>
</a>
</g>
</g>
<!-- Node181&#45;&gt;Node182 -->
<g id="edge1" class="edge"><title>Node181&#45;&gt;Node182</title>
<path fill="none" stroke="midnightblue" d="M78.1096,-10C86.2593,-10 94.9859,-10 103.506,-10"/>
<polygon fill="midnightblue" stroke="midnightblue" points="103.745,-13.5001 113.745,-10 103.745,-6.5001 103.745,-13.5001"/>
</g>
<!-- Node183 -->
<g id="node3" class="node"><title>Node183</title>
<g id="a_node3"><a xlink:href="pbuf_8c.html#a9e0f4c31d059984a431c96bf27b763e6" target="_top" xlink:title="pbuf_get_at">
<polygon fill="white" stroke="black" points="231,-0.5 231,-19.5 299,-19.5 299,-0.5 231,-0.5"/>
<text text-anchor="middle" x="265" y="-7.5" font-family="Helvetica,sans-Serif" font-size="10.00">pbuf_get_at</text>
</a>
</g>
</g>
<!-- Node182&#45;&gt;Node183 -->
<g id="edge2" class="edge"><title>Node182&#45;&gt;Node183</title>
<path fill="none" stroke="midnightblue" d="M195.285,-10C203.627,-10 212.461,-10 220.916,-10"/>
<polygon fill="midnightblue" stroke="midnightblue" points="220.984,-13.5001 230.984,-10 220.984,-6.5001 220.984,-13.5001"/>
</g>
</g>
</svg>
