<?xml version="1.0" encoding="UTF-8" standalone="no"?>
<!DOCTYPE svg PUBLIC "-//W3C//DTD SVG 1.1//EN"
 "http://www.w3.org/Graphics/SVG/1.1/DTD/svg11.dtd">
<!-- Generated by graphviz version 2.38.0 (20140413.2041)
 -->
<!-- Title: pbuf_dechain Pages: 1 -->
<svg width="375pt" height="66pt"
 viewBox="0.00 0.00 375.00 66.00" xmlns="http://www.w3.org/2000/svg" xmlns:xlink="http://www.w3.org/1999/xlink">
<g id="graph0" class="graph" transform="scale(1 1) rotate(0) translate(4 62)">
<title>pbuf_dechain</title>
<polygon fill="white" stroke="none" points="-4,4 -4,-62 371,-62 371,4 -4,4"/>
<!-- Node97 -->
<g id="node1" class="node"><title>Node97</title>
<polygon fill="#bfbfbf" stroke="black" points="0,-19.5 0,-38.5 74,-38.5 74,-19.5 0,-19.5"/>
<text text-anchor="middle" x="37" y="-26.5" font-family="Helvetica,sans-Serif" font-size="10.00">pbuf_dechain</text>
</g>
<!-- Node98 -->
<g id="node2" class="node"><title>Node98</title>
<g id="a_node2"><a xlink:href="pbuf_8c.html#ab0dd696fb4b6bc65e548944584f1738b" target="_top" xlink:title="pbuf_free">
<polygon fill="white" stroke="black" points="110,-19.5 110,-38.5 167,-38.5 167,-19.5 110,-19.5"/>
<text text-anchor="middle" x="138.5" y="-26.5" font-family="Helvetica,sans-Serif" font-size="10.00">pbuf_free</text>
</a>
</g>
</g>
<!-- Node97&#45;&gt;Node98 -->
<g id="edge1" class="edge"><title>Node97&#45;&gt;Node98</title>
<path fill="none" stroke="midnightblue" d="M74.2033,-29C82.486,-29 91.311,-29 99.6605,-29"/>
<polygon fill="midnightblue" stroke="midnightblue" points="99.9056,-32.5001 109.906,-29 99.9055,-25.5001 99.9056,-32.5001"/>
</g>
<!-- Node99 -->
<g id="node3" class="node"><title>Node99</title>
<g id="a_node3"><a xlink:href="memp_8h.html#a9d30a969401eb0626105950d6e63f3bf" target="_top" xlink:title="memp_free">
<polygon fill="white" stroke="black" points="203,-38.5 203,-57.5 268,-57.5 268,-38.5 203,-38.5"/>
<text text-anchor="middle" x="235.5" y="-45.5" font-family="Helvetica,sans-Serif" font-size="10.00">memp_free</text>
</a>
</g>
</g>
<!-- Node98&#45;&gt;Node99 -->
<g id="edge2" class="edge"><title>Node98&#45;&gt;Node99</title>
<path fill="none" stroke="midnightblue" d="M167.233,-34.5467C175.263,-36.1527 184.211,-37.9422 192.892,-39.6784"/>
<polygon fill="midnightblue" stroke="midnightblue" points="192.397,-43.1486 202.889,-41.6778 193.77,-36.2845 192.397,-43.1486"/>
</g>
<!-- Node100 -->
<g id="node4" class="node"><title>Node100</title>
<g id="a_node4"><a xlink:href="esp-open-lwip_2include_2lwip_2mem_8h.html#ab270bbe39e1996d7095be3a139620ce0" target="_top" xlink:title="mem_free">
<polygon fill="white" stroke="black" points="205.5,-0.5 205.5,-19.5 265.5,-19.5 265.5,-0.5 205.5,-0.5"/>
<text text-anchor="middle" x="235.5" y="-7.5" font-family="Helvetica,sans-Serif" font-size="10.00">mem_free</text>
</a>
</g>
</g>
<!-- Node98&#45;&gt;Node100 -->
<g id="edge3" class="edge"><title>Node98&#45;&gt;Node100</title>
<path fill="none" stroke="midnightblue" d="M167.233,-23.4533C176.001,-21.6998 185.863,-19.7275 195.276,-17.8447"/>
<polygon fill="midnightblue" stroke="midnightblue" points="196.124,-21.2447 205.243,-15.8514 194.751,-14.3806 196.124,-21.2447"/>
</g>
<!-- Node101 -->
<g id="node5" class="node"><title>Node101</title>
<g id="a_node5"><a xlink:href="mem_8c.html#a24221009a2c00e9c3fa63eaa9444a076" target="_top" xlink:title="plug_holes">
<polygon fill="white" stroke="black" points="304,-0.5 304,-19.5 367,-19.5 367,-0.5 304,-0.5"/>
<text text-anchor="middle" x="335.5" y="-7.5" font-family="Helvetica,sans-Serif" font-size="10.00">plug_holes</text>
</a>
</g>
</g>
<!-- Node100&#45;&gt;Node101 -->
<g id="edge4" class="edge"><title>Node100&#45;&gt;Node101</title>
<path fill="none" stroke="midnightblue" d="M265.638,-10C274.505,-10 284.416,-10 293.896,-10"/>
<polygon fill="midnightblue" stroke="midnightblue" points="293.942,-13.5001 303.942,-10 293.942,-6.5001 293.942,-13.5001"/>
</g>
</g>
</svg>
