<?xml version="1.0" encoding="UTF-8" standalone="no"?>
<!DOCTYPE svg PUBLIC "-//W3C//DTD SVG 1.1//EN"
 "http://www.w3.org/Graphics/SVG/1.1/DTD/svg11.dtd">
<!-- Generated by graphviz version 2.38.0 (20140413.2041)
 -->
<!-- Title: PROTO_ParseByte Pages: 1 -->
<svg width="928pt" height="990pt"
 viewBox="0.00 0.00 928.00 990.00" xmlns="http://www.w3.org/2000/svg" xmlns:xlink="http://www.w3.org/1999/xlink">
<g id="graph0" class="graph" transform="scale(1 1) rotate(0) translate(4 986)">
<title>PROTO_ParseByte</title>
<polygon fill="white" stroke="none" points="-4,4 -4,-986 924,-986 924,4 -4,4"/>
<!-- Node85 -->
<g id="node1" class="node"><title>Node85</title>
<polygon fill="#bfbfbf" stroke="black" points="0,-342.5 0,-361.5 103,-361.5 103,-342.5 0,-342.5"/>
<text text-anchor="middle" x="51.5" y="-349.5" font-family="Helvetica,sans-Serif" font-size="10.00">PROTO_ParseByte</text>
</g>
<!-- Node86 -->
<g id="node2" class="node"><title>Node86</title>
<g id="a_node2"><a xlink:href="proto_8c.html#ae63478dc87e8d29946c78cbe9b798552" target="_top" xlink:title="PROTO_Parse">
<polygon fill="white" stroke="black" points="145,-361.5 145,-380.5 228,-380.5 228,-361.5 145,-361.5"/>
<text text-anchor="middle" x="186.5" y="-368.5" font-family="Helvetica,sans-Serif" font-size="10.00">PROTO_Parse</text>
</a>
</g>
</g>
<!-- Node85&#45;&gt;Node86 -->
<g id="edge1" class="edge"><title>Node85&#45;&gt;Node86</title>
<path fill="none" stroke="midnightblue" d="M113.322,-360.689C124.021,-362.217 134.917,-363.774 144.893,-365.199"/>
<polygon fill="midnightblue" stroke="midnightblue" points="113.556,-357.187 103.161,-359.237 112.565,-364.116 113.556,-357.187"/>
</g>
<!-- Node87 -->
<g id="node3" class="node"><title>Node87</title>
<g id="a_node3"><a xlink:href="proto_8c.html#adf76f7a7dcf2e7e22af1a3235b9a808c" target="_top" xlink:title="PROTO_ParseRb">
<polygon fill="white" stroke="black" points="139,-323.5 139,-342.5 234,-342.5 234,-323.5 139,-323.5"/>
<text text-anchor="middle" x="186.5" y="-330.5" font-family="Helvetica,sans-Serif" font-size="10.00">PROTO_ParseRb</text>
</a>
</g>
</g>
<!-- Node85&#45;&gt;Node87 -->
<g id="edge2" class="edge"><title>Node85&#45;&gt;Node87</title>
<path fill="none" stroke="midnightblue" d="M113.202,-343.328C121.837,-342.095 130.604,-340.842 138.913,-339.655"/>
<polygon fill="midnightblue" stroke="midnightblue" points="112.565,-339.884 103.161,-344.763 113.556,-346.813 112.565,-339.884"/>
</g>
<!-- Node88 -->
<g id="node4" class="node"><title>Node88</title>
<g id="a_node4"><a xlink:href="queue_8c.html#a2052c731d6aecfc43c9e18da8b58ee42" target="_top" xlink:title="QUEUE_Gets">
<polygon fill="white" stroke="black" points="270,-323.5 270,-342.5 349,-342.5 349,-323.5 270,-323.5"/>
<text text-anchor="middle" x="309.5" y="-330.5" font-family="Helvetica,sans-Serif" font-size="10.00">QUEUE_Gets</text>
</a>
</g>
</g>
<!-- Node87&#45;&gt;Node88 -->
<g id="edge3" class="edge"><title>Node87&#45;&gt;Node88</title>
<path fill="none" stroke="midnightblue" d="M244.287,-333C252.885,-333 261.584,-333 269.684,-333"/>
<polygon fill="midnightblue" stroke="midnightblue" points="244.282,-329.5 234.282,-333 244.282,-336.5 244.282,-329.5"/>
</g>
<!-- Node89 -->
<g id="node5" class="node"><title>Node89</title>
<g id="a_node5"><a xlink:href="mqtt_8c.html#a848a6701c4c7ec3432e38ea57c003aad" target="_top" xlink:title="MQTT publish function. ">
<polygon fill="white" stroke="black" points="397,-475.5 397,-494.5 479,-494.5 479,-475.5 397,-475.5"/>
<text text-anchor="middle" x="438" y="-482.5" font-family="Helvetica,sans-Serif" font-size="10.00">MQTT_Publish</text>
</a>
</g>
</g>
<!-- Node88&#45;&gt;Node89 -->
<g id="edge4" class="edge"><title>Node88&#45;&gt;Node89</title>
<path fill="none" stroke="midnightblue" d="M324.815,-350.201C351.549,-382.324 408.239,-450.442 429.09,-475.495"/>
<polygon fill="midnightblue" stroke="midnightblue" points="327.5,-347.956 318.413,-342.508 322.12,-352.434 327.5,-347.956"/>
</g>
<!-- Node118 -->
<g id="node34" class="node"><title>Node118</title>
<g id="a_node34"><a xlink:href="mqtt_8c.html#a86f8adfe29d6ec8bb5070fd030540d2f" target="_top" xlink:title="MQTT subscibe function. ">
<polygon fill="white" stroke="black" points="391.5,-361.5 391.5,-380.5 484.5,-380.5 484.5,-361.5 391.5,-361.5"/>
<text text-anchor="middle" x="438" y="-368.5" font-family="Helvetica,sans-Serif" font-size="10.00">MQTT_Subscribe</text>
</a>
</g>
</g>
<!-- Node88&#45;&gt;Node118 -->
<g id="edge35" class="edge"><title>Node88&#45;&gt;Node118</title>
<path fill="none" stroke="midnightblue" d="M352.229,-345.535C369.438,-350.705 389.06,-356.599 405.089,-361.414"/>
<polygon fill="midnightblue" stroke="midnightblue" points="353.005,-342.114 342.421,-342.589 350.992,-348.818 353.005,-342.114"/>
</g>
<!-- Node119 -->
<g id="node35" class="node"><title>Node119</title>
<g id="a_node35"><a xlink:href="mqtt_8c.html#a7f28cd912dae4c1386c10026a267b579" target="_top" xlink:title="MQTT un&#45;subscibe function. ">
<polygon fill="white" stroke="black" points="385,-323.5 385,-342.5 491,-342.5 491,-323.5 385,-323.5"/>
<text text-anchor="middle" x="438" y="-330.5" font-family="Helvetica,sans-Serif" font-size="10.00">MQTT_UnSubscribe</text>
</a>
</g>
</g>
<!-- Node88&#45;&gt;Node119 -->
<g id="edge36" class="edge"><title>Node88&#45;&gt;Node119</title>
<path fill="none" stroke="midnightblue" d="M359.383,-333C367.651,-333 376.265,-333 384.617,-333"/>
<polygon fill="midnightblue" stroke="midnightblue" points="359.142,-329.5 349.142,-333 359.141,-336.5 359.142,-329.5"/>
</g>
<!-- Node120 -->
<g id="node36" class="node"><title>Node120</title>
<g id="a_node36"><a xlink:href="mqtt_8c.html#a086502e2dd36681a7fb4d9a9018cfc88" target="_top" xlink:title="MQTT ping function. ">
<polygon fill="white" stroke="black" points="403.5,-285.5 403.5,-304.5 472.5,-304.5 472.5,-285.5 403.5,-285.5"/>
<text text-anchor="middle" x="438" y="-292.5" font-family="Helvetica,sans-Serif" font-size="10.00">MQTT_Ping</text>
</a>
</g>
</g>
<!-- Node88&#45;&gt;Node120 -->
<g id="edge37" class="edge"><title>Node88&#45;&gt;Node120</title>
<path fill="none" stroke="midnightblue" d="M352.229,-320.465C369.438,-315.295 389.06,-309.401 405.089,-304.586"/>
<polygon fill="midnightblue" stroke="midnightblue" points="350.992,-317.182 342.421,-323.411 353.005,-323.886 350.992,-317.182"/>
</g>
<!-- Node121 -->
<g id="node37" class="node"><title>Node121</title>
<g id="a_node37"><a xlink:href="mqtt_8c.html#a9d88fa6efb9163d4dbf9dc750a8d4ed0" target="_top" xlink:title="MQTT_Task">
<polygon fill="white" stroke="black" points="402.5,-95.5 402.5,-114.5 473.5,-114.5 473.5,-95.5 402.5,-95.5"/>
<text text-anchor="middle" x="438" y="-102.5" font-family="Helvetica,sans-Serif" font-size="10.00">MQTT_Task</text>
</a>
</g>
</g>
<!-- Node88&#45;&gt;Node121 -->
<g id="edge38" class="edge"><title>Node88&#45;&gt;Node121</title>
<path fill="none" stroke="midnightblue" d="M320.719,-314.582C346.314,-268.449 412.498,-149.161 431.703,-114.547"/>
<polygon fill="midnightblue" stroke="midnightblue" points="317.566,-313.051 315.774,-323.493 323.687,-316.447 317.566,-313.051"/>
</g>
<!-- Node90 -->
<g id="node6" class="node"><title>Node90</title>
<g id="a_node6"><a xlink:href="en61107__request_8c.html#aa3b162cf5364986ea19e831ac2b18f76" target="_top" xlink:title="en61107_received_task">
<polygon fill="white" stroke="black" points="527.5,-962.5 527.5,-981.5 646.5,-981.5 646.5,-962.5 527.5,-962.5"/>
<text text-anchor="middle" x="587" y="-969.5" font-family="Helvetica,sans-Serif" font-size="10.00">en61107_received_task</text>
</a>
</g>
</g>
<!-- Node89&#45;&gt;Node90 -->
<g id="edge5" class="edge"><title>Node89&#45;&gt;Node90</title>
<path fill="none" stroke="midnightblue" d="M440.089,-504.873C444.874,-585.145 466.553,-884.435 527,-953 530.416,-956.875 534.625,-959.964 539.21,-962.427"/>
<polygon fill="midnightblue" stroke="midnightblue" points="443.571,-504.455 439.503,-494.672 436.582,-504.856 443.571,-504.455"/>
</g>
<!-- Node92 -->
<g id="node8" class="node"><title>Node92</title>
<g id="a_node8"><a xlink:href="en61107__request_8h.html#a7384d014eb9e833f64ecf4a9f86f87be" target="_top" xlink:title="en61107_request_send">
<polygon fill="white" stroke="black" points="528.5,-924.5 528.5,-943.5 645.5,-943.5 645.5,-924.5 528.5,-924.5"/>
<text text-anchor="middle" x="587" y="-931.5" font-family="Helvetica,sans-Serif" font-size="10.00">en61107_request_send</text>
</a>
</g>
</g>
<!-- Node89&#45;&gt;Node92 -->
<g id="edge7" class="edge"><title>Node89&#45;&gt;Node92</title>
<path fill="none" stroke="midnightblue" d="M440.653,-504.841C447.278,-580.05 474.147,-846.522 527,-910 532.236,-916.289 539.375,-920.947 546.879,-924.392"/>
<polygon fill="midnightblue" stroke="midnightblue" points="444.135,-504.487 439.791,-494.824 437.161,-505.087 444.135,-504.487"/>
</g>
<!-- Node93 -->
<g id="node9" class="node"><title>Node93</title>
<g id="a_node9"><a xlink:href="kmp__request_8c.html#a3f6b790a06b933b78f40ade5e9a16131" target="_top" xlink:title="kmp_received_task">
<polygon fill="white" stroke="black" points="687.5,-889.5 687.5,-908.5 788.5,-908.5 788.5,-889.5 687.5,-889.5"/>
<text text-anchor="middle" x="738" y="-896.5" font-family="Helvetica,sans-Serif" font-size="10.00">kmp_received_task</text>
</a>
</g>
</g>
<!-- Node89&#45;&gt;Node93 -->
<g id="edge8" class="edge"><title>Node89&#45;&gt;Node93</title>
<path fill="none" stroke="midnightblue" d="M440.461,-504.687C446.255,-577.002 470.12,-826.386 527,-877 570.68,-915.868 641.45,-914.843 688.597,-908.547"/>
<polygon fill="midnightblue" stroke="midnightblue" points="443.946,-504.359 439.684,-494.659 436.967,-504.9 443.946,-504.359"/>
</g>
<!-- Node95 -->
<g id="node11" class="node"><title>Node95</title>
<g id="a_node11"><a xlink:href="kmp__request_8h.html#a3b022dcdc832786eb06126b5e6879604" target="_top" xlink:title="kmp_request_send">
<polygon fill="white" stroke="black" points="537.5,-848.5 537.5,-867.5 636.5,-867.5 636.5,-848.5 537.5,-848.5"/>
<text text-anchor="middle" x="587" y="-855.5" font-family="Helvetica,sans-Serif" font-size="10.00">kmp_request_send</text>
</a>
</g>
</g>
<!-- Node89&#45;&gt;Node95 -->
<g id="edge10" class="edge"><title>Node89&#45;&gt;Node95</title>
<path fill="none" stroke="midnightblue" d="M441.354,-504.563C449.759,-571.357 480.306,-789.023 527,-839 530.6,-842.853 534.983,-845.927 539.718,-848.379"/>
<polygon fill="midnightblue" stroke="midnightblue" points="444.816,-504.043 440.118,-494.547 437.869,-504.9 444.816,-504.043"/>
</g>
<!-- Node97 -->
<g id="node13" class="node"><title>Node97</title>
<g id="a_node13"><a xlink:href="mqtt__rpc_8h.html#a7d1ed70e046b535e06c58675d4f1676b" target="_top" xlink:title="mqtt_rpc_ap_status">
<polygon fill="white" stroke="black" points="535.5,-810.5 535.5,-829.5 638.5,-829.5 638.5,-810.5 535.5,-810.5"/>
<text text-anchor="middle" x="587" y="-817.5" font-family="Helvetica,sans-Serif" font-size="10.00">mqtt_rpc_ap_status</text>
</a>
</g>
</g>
<!-- Node89&#45;&gt;Node97 -->
<g id="edge14" class="edge"><title>Node89&#45;&gt;Node97</title>
<path fill="none" stroke="midnightblue" d="M438.469,-504.632C438.088,-559.377 444.671,-715.314 527,-801 530.728,-804.88 535.25,-807.969 540.114,-810.428"/>
<polygon fill="midnightblue" stroke="midnightblue" points="441.97,-504.603 438.631,-494.548 434.97,-504.491 441.97,-504.603"/>
</g>
<!-- Node98 -->
<g id="node14" class="node"><title>Node98</title>
<g id="a_node14"><a xlink:href="mqtt__rpc_8h.html#a023697ad978d1154228e256583a147c0" target="_top" xlink:title="mqtt_rpc_clear_cron">
<polygon fill="white" stroke="black" points="534.5,-772.5 534.5,-791.5 639.5,-791.5 639.5,-772.5 534.5,-772.5"/>
<text text-anchor="middle" x="587" y="-779.5" font-family="Helvetica,sans-Serif" font-size="10.00">mqtt_rpc_clear_cron</text>
</a>
</g>
</g>
<!-- Node89&#45;&gt;Node98 -->
<g id="edge15" class="edge"><title>Node89&#45;&gt;Node98</title>
<path fill="none" stroke="midnightblue" d="M439.37,-504.923C441.401,-555.383 453.789,-689.424 527,-763 530.871,-766.89 535.541,-769.985 540.539,-772.446"/>
<polygon fill="midnightblue" stroke="midnightblue" points="442.862,-504.61 439.06,-494.721 435.865,-504.823 442.862,-504.61"/>
</g>
<!-- Node99 -->
<g id="node15" class="node"><title>Node99</title>
<g id="a_node15"><a xlink:href="mqtt__rpc_8h.html#a1e120184f7f332e637fc9481bcf5ce89" target="_top" xlink:title="mqtt_rpc_cron">
<polygon fill="white" stroke="black" points="547.5,-734.5 547.5,-753.5 626.5,-753.5 626.5,-734.5 547.5,-734.5"/>
<text text-anchor="middle" x="587" y="-741.5" font-family="Helvetica,sans-Serif" font-size="10.00">mqtt_rpc_cron</text>
</a>
</g>
</g>
<!-- Node89&#45;&gt;Node99 -->
<g id="edge16" class="edge"><title>Node89&#45;&gt;Node99</title>
<path fill="none" stroke="midnightblue" d="M440.536,-504.937C445.118,-550.525 462.689,-663.205 527,-725 532.664,-730.443 539.896,-734.327 547.34,-737.098"/>
<polygon fill="midnightblue" stroke="midnightblue" points="444.012,-504.51 439.63,-494.863 437.04,-505.137 444.012,-504.51"/>
</g>
<!-- Node100 -->
<g id="node16" class="node"><title>Node100</title>
<g id="a_node16"><a xlink:href="mqtt__rpc_8h.html#afbd8a015cb20feb245dfc778416af7e9" target="_top" xlink:title="mqtt_rpc_crypto">
<polygon fill="white" stroke="black" points="543.5,-696.5 543.5,-715.5 630.5,-715.5 630.5,-696.5 543.5,-696.5"/>
<text text-anchor="middle" x="587" y="-703.5" font-family="Helvetica,sans-Serif" font-size="10.00">mqtt_rpc_crypto</text>
</a>
</g>
</g>
<!-- Node89&#45;&gt;Node100 -->
<g id="edge17" class="edge"><title>Node89&#45;&gt;Node100</title>
<path fill="none" stroke="midnightblue" d="M442.065,-504.731C449.339,-544.907 471.389,-636.654 527,-687 531.707,-691.261 537.378,-694.567 543.319,-697.132"/>
<polygon fill="midnightblue" stroke="midnightblue" points="445.476,-503.913 440.357,-494.637 438.574,-505.081 445.476,-503.913"/>
</g>
<!-- Node101 -->
<g id="node17" class="node"><title>Node101</title>
<g id="a_node17"><a xlink:href="mqtt__rpc_8h.html#a29c5b0a22ebb1032363e20a1eb228d88" target="_top" xlink:title="mqtt_rpc_mem">
<polygon fill="white" stroke="black" points="546,-658.5 546,-677.5 628,-677.5 628,-658.5 546,-658.5"/>
<text text-anchor="middle" x="587" y="-665.5" font-family="Helvetica,sans-Serif" font-size="10.00">mqtt_rpc_mem</text>
</a>
</g>
</g>
<!-- Node89&#45;&gt;Node101 -->
<g id="edge18" class="edge"><title>Node89&#45;&gt;Node101</title>
<path fill="none" stroke="midnightblue" d="M444.21,-504.517C454.348,-538.773 479.97,-609.793 527,-649 532.455,-653.548 539.019,-657.014 545.758,-659.653"/>
<polygon fill="midnightblue" stroke="midnightblue" points="447.544,-503.444 441.454,-494.774 440.808,-505.349 447.544,-503.444"/>
</g>
<!-- Node102 -->
<g id="node18" class="node"><title>Node102</title>
<g id="a_node18"><a xlink:href="mqtt__rpc_8h.html#a44921185fc90cf7507f2eaf4fa48861a" target="_top" xlink:title="mqtt_rpc_open_until">
<polygon fill="white" stroke="black" points="535,-620.5 535,-639.5 639,-639.5 639,-620.5 535,-620.5"/>
<text text-anchor="middle" x="587" y="-627.5" font-family="Helvetica,sans-Serif" font-size="10.00">mqtt_rpc_open_until</text>
</a>
</g>
</g>
<!-- Node89&#45;&gt;Node102 -->
<g id="edge19" class="edge"><title>Node89&#45;&gt;Node102</title>
<path fill="none" stroke="midnightblue" d="M447.546,-503.943C460.778,-531.213 488.742,-581.39 527,-610 532.803,-614.34 539.61,-617.778 546.498,-620.489"/>
<polygon fill="midnightblue" stroke="midnightblue" points="450.626,-502.268 443.206,-494.706 444.291,-505.245 450.626,-502.268"/>
</g>
<!-- Node103 -->
<g id="node19" class="node"><title>Node103</title>
<g id="a_node19"><a xlink:href="mqtt__rpc_8h.html#a37edc063b829348999e78221ed0f247e" target="_top" xlink:title="mqtt_rpc_open_until\l_delta">
<polygon fill="white" stroke="black" points="535,-571 535,-601 639,-601 639,-571 535,-571"/>
<text text-anchor="start" x="543" y="-589" font-family="Helvetica,sans-Serif" font-size="10.00">mqtt_rpc_open_until</text>
<text text-anchor="middle" x="587" y="-578" font-family="Helvetica,sans-Serif" font-size="10.00">_delta</text>
</a>
</g>
</g>
<!-- Node89&#45;&gt;Node103 -->
<g id="edge20" class="edge"><title>Node89&#45;&gt;Node103</title>
<path fill="none" stroke="midnightblue" d="M455.869,-502.438C472.702,-519.11 499.897,-544.137 527,-561 532.856,-564.644 539.337,-567.989 545.795,-570.966"/>
<polygon fill="midnightblue" stroke="midnightblue" points="458.012,-499.629 448.483,-494.997 453.044,-504.56 458.012,-499.629"/>
</g>
<!-- Node104 -->
<g id="node20" class="node"><title>Node104</title>
<g id="a_node20"><a xlink:href="mqtt__rpc_8h.html#a0e5c92a93eaf9b2e3c2cd98c0fcbe65f" target="_top" xlink:title="mqtt_rpc_ping">
<polygon fill="white" stroke="black" points="548,-532.5 548,-551.5 626,-551.5 626,-532.5 548,-532.5"/>
<text text-anchor="middle" x="587" y="-539.5" font-family="Helvetica,sans-Serif" font-size="10.00">mqtt_rpc_ping</text>
</a>
</g>
</g>
<!-- Node89&#45;&gt;Node104 -->
<g id="edge21" class="edge"><title>Node89&#45;&gt;Node104</title>
<path fill="none" stroke="midnightblue" d="M469.093,-498.847C485.958,-506.391 507.468,-515.657 527,-523 535.864,-526.332 545.606,-529.619 554.574,-532.497"/>
<polygon fill="midnightblue" stroke="midnightblue" points="470.305,-495.554 459.75,-494.632 467.426,-501.935 470.305,-495.554"/>
</g>
<!-- Node105 -->
<g id="node21" class="node"><title>Node105</title>
<g id="a_node21"><a xlink:href="mqtt__rpc_8h.html#aa21aaf34522e1a100a4120d9f63d2dad" target="_top" xlink:title="mqtt_rpc_reset_reason">
<polygon fill="white" stroke="black" points="529,-494.5 529,-513.5 645,-513.5 645,-494.5 529,-494.5"/>
<text text-anchor="middle" x="587" y="-501.5" font-family="Helvetica,sans-Serif" font-size="10.00">mqtt_rpc_reset_reason</text>
</a>
</g>
</g>
<!-- Node89&#45;&gt;Node105 -->
<g id="edge22" class="edge"><title>Node89&#45;&gt;Node105</title>
<path fill="none" stroke="midnightblue" d="M489.144,-491.481C501.905,-493.131 515.714,-494.915 528.798,-496.607"/>
<polygon fill="midnightblue" stroke="midnightblue" points="489.535,-488.003 479.168,-490.192 488.637,-494.945 489.535,-488.003"/>
</g>
<!-- Node106 -->
<g id="node22" class="node"><title>Node106</title>
<g id="a_node22"><a xlink:href="mqtt__rpc_8h.html#ae3c71a438ecea4bb271bd1586af59452" target="_top" xlink:title="mqtt_rpc_restart">
<polygon fill="white" stroke="black" points="543,-456.5 543,-475.5 631,-475.5 631,-456.5 543,-456.5"/>
<text text-anchor="middle" x="587" y="-463.5" font-family="Helvetica,sans-Serif" font-size="10.00">mqtt_rpc_restart</text>
</a>
</g>
</g>
<!-- Node89&#45;&gt;Node106 -->
<g id="edge23" class="edge"><title>Node89&#45;&gt;Node106</title>
<path fill="none" stroke="midnightblue" d="M489.169,-478.516C506.596,-476.263 525.974,-473.758 542.789,-471.585"/>
<polygon fill="midnightblue" stroke="midnightblue" points="488.637,-475.055 479.168,-479.808 489.535,-481.997 488.637,-475.055"/>
</g>
<!-- Node107 -->
<g id="node23" class="node"><title>Node107</title>
<g id="a_node23"><a xlink:href="mqtt__rpc_8h.html#a9d2f80fe20656d22687c0414da46fcce" target="_top" xlink:title="mqtt_rpc_rssi">
<polygon fill="white" stroke="black" points="549,-418.5 549,-437.5 625,-437.5 625,-418.5 549,-418.5"/>
<text text-anchor="middle" x="587" y="-425.5" font-family="Helvetica,sans-Serif" font-size="10.00">mqtt_rpc_rssi</text>
</a>
</g>
</g>
<!-- Node89&#45;&gt;Node107 -->
<g id="edge24" class="edge"><title>Node89&#45;&gt;Node107</title>
<path fill="none" stroke="midnightblue" d="M469.093,-471.153C485.958,-463.609 507.468,-454.343 527,-447 535.864,-443.668 545.606,-440.381 554.574,-437.503"/>
<polygon fill="midnightblue" stroke="midnightblue" points="467.426,-468.065 459.75,-475.368 470.305,-474.446 467.426,-468.065"/>
</g>
<!-- Node108 -->
<g id="node24" class="node"><title>Node108</title>
<g id="a_node24"><a xlink:href="mqtt__rpc_8h.html#a5ede5df0880a2c3823a5c3757423678b" target="_top" xlink:title="mqtt_rpc_set_cron">
<polygon fill="white" stroke="black" points="538,-380.5 538,-399.5 636,-399.5 636,-380.5 538,-380.5"/>
<text text-anchor="middle" x="587" y="-387.5" font-family="Helvetica,sans-Serif" font-size="10.00">mqtt_rpc_set_cron</text>
</a>
</g>
</g>
<!-- Node89&#45;&gt;Node108 -->
<g id="edge25" class="edge"><title>Node89&#45;&gt;Node108</title>
<path fill="none" stroke="midnightblue" d="M454.747,-467.853C471.266,-450.781 498.719,-424.892 527,-409 533.661,-405.257 541.165,-402.129 548.533,-399.562"/>
<polygon fill="midnightblue" stroke="midnightblue" points="451.894,-465.775 447.56,-475.443 456.977,-470.588 451.894,-465.775"/>
</g>
<!-- Node109 -->
<g id="node25" class="node"><title>Node109</title>
<g id="a_node25"><a xlink:href="mqtt__rpc_8h.html#a3384f5aa84b17fa3902e2aad318913d8" target="_top" xlink:title="mqtt_rpc_set_pwd">
<polygon fill="white" stroke="black" points="538.5,-342.5 538.5,-361.5 635.5,-361.5 635.5,-342.5 538.5,-342.5"/>
<text text-anchor="middle" x="587" y="-349.5" font-family="Helvetica,sans-Serif" font-size="10.00">mqtt_rpc_set_pwd</text>
</a>
</g>
</g>
<!-- Node89&#45;&gt;Node109 -->
<g id="edge26" class="edge"><title>Node89&#45;&gt;Node109</title>
<path fill="none" stroke="midnightblue" d="M448.519,-466.59C462.442,-441.424 490.699,-396.506 527,-371 532.459,-367.164 538.735,-364.072 545.111,-361.588"/>
<polygon fill="midnightblue" stroke="midnightblue" points="445.394,-465.01 443.746,-475.476 451.561,-468.322 445.394,-465.01"/>
</g>
<!-- Node110 -->
<g id="node26" class="node"><title>Node110</title>
<g id="a_node26"><a xlink:href="mqtt__rpc_8h.html#aa3b038b94189cb8a82fdc7e5115d90c8" target="_top" xlink:title="mqtt_rpc_set_ssid">
<polygon fill="white" stroke="black" points="538.5,-304.5 538.5,-323.5 635.5,-323.5 635.5,-304.5 538.5,-304.5"/>
<text text-anchor="middle" x="587" y="-311.5" font-family="Helvetica,sans-Serif" font-size="10.00">mqtt_rpc_set_ssid</text>
</a>
</g>
</g>
<!-- Node89&#45;&gt;Node110 -->
<g id="edge27" class="edge"><title>Node89&#45;&gt;Node110</title>
<path fill="none" stroke="midnightblue" d="M449.226,-466.532C471.133,-427.081 521.093,-337.765 527,-333 531.774,-329.149 537.347,-326.071 543.127,-323.612"/>
<polygon fill="midnightblue" stroke="midnightblue" points="446.094,-464.963 444.305,-475.405 452.215,-468.358 446.094,-464.963"/>
</g>
<!-- Node111 -->
<g id="node27" class="node"><title>Node111</title>
<g id="a_node27"><a xlink:href="mqtt__rpc_8h.html#a651f41878c47fd58b8ae08a49692d5d0" target="_top" xlink:title="mqtt_rpc_set_ssid_pwd">
<polygon fill="white" stroke="black" points="527,-266.5 527,-285.5 647,-285.5 647,-266.5 527,-266.5"/>
<text text-anchor="middle" x="587" y="-273.5" font-family="Helvetica,sans-Serif" font-size="10.00">mqtt_rpc_set_ssid_pwd</text>
</a>
</g>
</g>
<!-- Node89&#45;&gt;Node111 -->
<g id="edge28" class="edge"><title>Node89&#45;&gt;Node111</title>
<path fill="none" stroke="midnightblue" d="M450.125,-466.503C461.23,-447.639 478.41,-417.342 491,-390 509.885,-348.987 494.274,-326.108 527,-295 531.056,-291.145 535.898,-288.072 541.04,-285.622"/>
<polygon fill="midnightblue" stroke="midnightblue" points="447.028,-464.864 444.928,-475.248 453.046,-468.44 447.028,-464.864"/>
</g>
<!-- Node112 -->
<g id="node28" class="node"><title>Node112</title>
<g id="a_node28"><a xlink:href="mqtt__rpc_8h.html#a93655988d0f1c02f278b77ab1bb57573" target="_top" xlink:title="mqtt_rpc_ssid">
<polygon fill="white" stroke="black" points="548,-228.5 548,-247.5 626,-247.5 626,-228.5 548,-228.5"/>
<text text-anchor="middle" x="587" y="-235.5" font-family="Helvetica,sans-Serif" font-size="10.00">mqtt_rpc_ssid</text>
</a>
</g>
</g>
<!-- Node89&#45;&gt;Node112 -->
<g id="edge29" class="edge"><title>Node89&#45;&gt;Node112</title>
<path fill="none" stroke="midnightblue" d="M450.695,-466.748C462.244,-448.076 479.763,-417.925 491,-390 513.861,-333.189 484.732,-301.312 527,-257 532.645,-251.082 540.138,-247.003 547.885,-244.193"/>
<polygon fill="midnightblue" stroke="midnightblue" points="447.62,-465.064 445.265,-475.393 453.547,-468.787 447.62,-465.064"/>
</g>
<!-- Node113 -->
<g id="node29" class="node"><title>Node113</title>
<g id="a_node29"><a xlink:href="mqtt__rpc_8h.html#ab9db71238155955bc4dfbb2c7f93c9d2" target="_top" xlink:title="mqtt_rpc_status">
<polygon fill="white" stroke="black" points="543.5,-190.5 543.5,-209.5 630.5,-209.5 630.5,-190.5 543.5,-190.5"/>
<text text-anchor="middle" x="587" y="-197.5" font-family="Helvetica,sans-Serif" font-size="10.00">mqtt_rpc_status</text>
</a>
</g>
</g>
<!-- Node89&#45;&gt;Node113 -->
<g id="edge30" class="edge"><title>Node89&#45;&gt;Node113</title>
<path fill="none" stroke="midnightblue" d="M451.031,-466.878C462.842,-448.307 480.561,-418.233 491,-390 517.935,-317.154 475.012,-276.7 527,-219 531.466,-214.043 537.229,-210.373 543.4,-207.657"/>
<polygon fill="midnightblue" stroke="midnightblue" points="447.964,-465.175 445.463,-475.47 453.838,-468.981 447.964,-465.175"/>
</g>
<!-- Node114 -->
<g id="node30" class="node"><title>Node114</title>
<g id="a_node30"><a xlink:href="mqtt__rpc_8h.html#acd6cfd98c940051391eb8c0bd2bbeca9" target="_top" xlink:title="mqtt_rpc_uptime">
<polygon fill="white" stroke="black" points="542.5,-152.5 542.5,-171.5 631.5,-171.5 631.5,-152.5 542.5,-152.5"/>
<text text-anchor="middle" x="587" y="-159.5" font-family="Helvetica,sans-Serif" font-size="10.00">mqtt_rpc_uptime</text>
</a>
</g>
</g>
<!-- Node89&#45;&gt;Node114 -->
<g id="edge31" class="edge"><title>Node89&#45;&gt;Node114</title>
<path fill="none" stroke="midnightblue" d="M451.443,-466.661C463.424,-448.128 481.137,-418.27 491,-390 522.051,-301.005 465.21,-252.178 527,-181 531.162,-176.206 536.54,-172.612 542.351,-169.92"/>
<polygon fill="midnightblue" stroke="midnightblue" points="448.36,-464.977 445.772,-475.251 454.202,-468.834 448.36,-464.977"/>
</g>
<!-- Node115 -->
<g id="node31" class="node"><title>Node115</title>
<g id="a_node31"><a xlink:href="mqtt__rpc_8h.html#a550893f994cbbd9b6b745488f0c512ac" target="_top" xlink:title="mqtt_rpc_vdd">
<polygon fill="white" stroke="black" points="549,-114.5 549,-133.5 625,-133.5 625,-114.5 549,-114.5"/>
<text text-anchor="middle" x="587" y="-121.5" font-family="Helvetica,sans-Serif" font-size="10.00">mqtt_rpc_vdd</text>
</a>
</g>
</g>
<!-- Node89&#45;&gt;Node115 -->
<g id="edge32" class="edge"><title>Node89&#45;&gt;Node115</title>
<path fill="none" stroke="midnightblue" d="M451.434,-466.968C463.537,-448.497 481.459,-418.525 491,-390 526.189,-284.791 455.363,-227.707 527,-143 532.629,-136.344 540.602,-131.998 548.873,-129.167"/>
<polygon fill="midnightblue" stroke="midnightblue" points="448.522,-465.026 445.866,-475.283 454.338,-468.921 448.522,-465.026"/>
</g>
<!-- Node116 -->
<g id="node32" class="node"><title>Node116</title>
<g id="a_node32"><a xlink:href="mqtt__rpc_8h.html#a6c4d0371a5542aa2dc9543fc7b829436" target="_top" xlink:title="mqtt_rpc_version">
<polygon fill="white" stroke="black" points="541,-76.5 541,-95.5 633,-95.5 633,-76.5 541,-76.5"/>
<text text-anchor="middle" x="587" y="-83.5" font-family="Helvetica,sans-Serif" font-size="10.00">mqtt_rpc_version</text>
</a>
</g>
</g>
<!-- Node89&#45;&gt;Node116 -->
<g id="edge33" class="edge"><title>Node89&#45;&gt;Node116</title>
<path fill="none" stroke="midnightblue" d="M451.549,-467.006C463.741,-448.564 481.732,-418.615 491,-390 510.67,-329.27 486.245,-154.134 527,-105 530.779,-100.445 535.657,-96.9695 540.988,-94.3209"/>
<polygon fill="midnightblue" stroke="midnightblue" points="448.638,-465.062 445.935,-475.306 454.437,-468.983 448.638,-465.062"/>
</g>
<!-- Node117 -->
<g id="node33" class="node"><title>Node117</title>
<g id="a_node33"><a xlink:href="mqtt__rpc_8h.html#a482a5f229bd1fac0511a057bbf4363f2" target="_top" xlink:title="mqtt_rpc_wifi_status">
<polygon fill="white" stroke="black" points="533.5,-38.5 533.5,-57.5 640.5,-57.5 640.5,-38.5 533.5,-38.5"/>
<text text-anchor="middle" x="587" y="-45.5" font-family="Helvetica,sans-Serif" font-size="10.00">mqtt_rpc_wifi_status</text>
</a>
</g>
</g>
<!-- Node89&#45;&gt;Node117 -->
<g id="edge34" class="edge"><title>Node89&#45;&gt;Node117</title>
<path fill="none" stroke="midnightblue" d="M451.637,-467.034C463.899,-448.614 481.942,-418.682 491,-390 512.75,-321.131 481.3,-122.925 527,-67 530.132,-63.1669 534.044,-60.0979 538.354,-57.6421"/>
<polygon fill="midnightblue" stroke="midnightblue" points="448.728,-465.088 445.989,-475.323 454.512,-469.03 448.728,-465.088"/>
</g>
<!-- Node91 -->
<g id="node7" class="node"><title>Node91</title>
<g id="a_node7"><a xlink:href="en61107__request_8h.html#acd43242675a3f25e7c3b530eac9d8b3a" target="_top" xlink:title="en61107_request_init">
<polygon fill="white" stroke="black" points="683.5,-962.5 683.5,-981.5 792.5,-981.5 792.5,-962.5 683.5,-962.5"/>
<text text-anchor="middle" x="738" y="-969.5" font-family="Helvetica,sans-Serif" font-size="10.00">en61107_request_init</text>
</a>
</g>
</g>
<!-- Node90&#45;&gt;Node91 -->
<g id="edge6" class="edge"><title>Node90&#45;&gt;Node91</title>
<path fill="none" stroke="midnightblue" d="M657.152,-972C665.959,-972 674.867,-972 683.379,-972"/>
<polygon fill="midnightblue" stroke="midnightblue" points="656.889,-968.5 646.889,-972 656.889,-975.5 656.889,-968.5"/>
</g>
<!-- Node94 -->
<g id="node10" class="node"><title>Node94</title>
<g id="a_node10"><a xlink:href="kmp__request_8h.html#a048753ff9d6b448e2dcd8c85db0d6873" target="_top" xlink:title="kmp_request_init">
<polygon fill="white" stroke="black" points="829,-889.5 829,-908.5 920,-908.5 920,-889.5 829,-889.5"/>
<text text-anchor="middle" x="874.5" y="-896.5" font-family="Helvetica,sans-Serif" font-size="10.00">kmp_request_init</text>
</a>
</g>
</g>
<!-- Node93&#45;&gt;Node94 -->
<g id="edge9" class="edge"><title>Node93&#45;&gt;Node94</title>
<path fill="none" stroke="midnightblue" d="M798.725,-899C808.861,-899 819.228,-899 828.889,-899"/>
<polygon fill="midnightblue" stroke="midnightblue" points="798.701,-895.5 788.701,-899 798.701,-902.5 798.701,-895.5"/>
</g>
<!-- Node95&#45;&gt;Node93 -->
<g id="edge11" class="edge"><title>Node95&#45;&gt;Node93</title>
<path fill="none" stroke="midnightblue" d="M632.493,-870.243C654.86,-876.398 681.558,-883.744 702.372,-889.471"/>
<polygon fill="midnightblue" stroke="midnightblue" points="633.128,-866.788 622.558,-867.509 631.271,-873.537 633.128,-866.788"/>
</g>
<!-- Node96 -->
<g id="node12" class="node"><title>Node96</title>
<g id="a_node12"><a xlink:href="kmp__request_8c.html#a0977a4640a97d389ac3b0fef0ba7a9b6" target="_top" xlink:title="kmp_receive_timeout\l_timer_func">
<polygon fill="white" stroke="black" points="683,-840 683,-870 793,-870 793,-840 683,-840"/>
<text text-anchor="start" x="691" y="-858" font-family="Helvetica,sans-Serif" font-size="10.00">kmp_receive_timeout</text>
<text text-anchor="middle" x="738" y="-847" font-family="Helvetica,sans-Serif" font-size="10.00">_timer_func</text>
</a>
</g>
</g>
<!-- Node95&#45;&gt;Node96 -->
<g id="edge12" class="edge"><title>Node95&#45;&gt;Node96</title>
<path fill="none" stroke="midnightblue" d="M647.03,-850.193C658.882,-849.75 671.279,-849.534 682.951,-849.57"/>
<polygon fill="midnightblue" stroke="midnightblue" points="646.626,-846.707 636.788,-850.638 646.931,-853.7 646.626,-846.707"/>
</g>
<!-- Node96&#45;&gt;Node95 -->
<g id="edge13" class="edge"><title>Node96&#45;&gt;Node95</title>
<path fill="none" stroke="midnightblue" d="M672.902,-862.982C660.801,-863.363 648.326,-863.51 636.788,-863.397"/>
<polygon fill="midnightblue" stroke="midnightblue" points="673.088,-866.477 682.951,-862.607 672.827,-859.482 673.088,-866.477"/>
</g>
<!-- Node122 -->
<g id="node38" class="node"><title>Node122</title>
<g id="a_node38"><a xlink:href="mqtt_8c.html#a25cb7ac079d1d119250dac075c45acf1" target="_top" xlink:title="MQTT initialization mqtt client function. ">
<polygon fill="white" stroke="black" points="542.5,-0.5 542.5,-19.5 631.5,-19.5 631.5,-0.5 542.5,-0.5"/>
<text text-anchor="middle" x="587" y="-7.5" font-family="Helvetica,sans-Serif" font-size="10.00">MQTT_InitClient</text>
</a>
</g>
</g>
<!-- Node121&#45;&gt;Node122 -->
<g id="edge39" class="edge"><title>Node121&#45;&gt;Node122</title>
<path fill="none" stroke="midnightblue" d="M454.747,-87.8528C471.266,-70.7807 498.719,-44.8921 527,-29 533.661,-25.2571 541.165,-22.1289 548.533,-19.5623"/>
<polygon fill="midnightblue" stroke="midnightblue" points="451.894,-85.7752 447.56,-95.443 456.977,-90.5881 451.894,-85.7752"/>
</g>
</g>
</svg>
