<?xml version="1.0" encoding="UTF-8" standalone="no"?>
<!DOCTYPE svg PUBLIC "-//W3C//DTD SVG 1.1//EN"
 "http://www.w3.org/Graphics/SVG/1.1/DTD/svg11.dtd">
<!-- Generated by graphviz version 2.38.0 (20140413.2041)
 -->
<!-- Title: QUEUE_Gets Pages: 1 -->
<svg width="658pt" height="990pt"
 viewBox="0.00 0.00 658.00 990.00" xmlns="http://www.w3.org/2000/svg" xmlns:xlink="http://www.w3.org/1999/xlink">
<g id="graph0" class="graph" transform="scale(1 1) rotate(0) translate(4 986)">
<title>QUEUE_Gets</title>
<polygon fill="white" stroke="none" points="-4,4 -4,-986 654,-986 654,4 -4,4"/>
<!-- Node5 -->
<g id="node1" class="node"><title>Node5</title>
<polygon fill="#bfbfbf" stroke="black" points="0,-437.5 0,-456.5 79,-456.5 79,-437.5 0,-437.5"/>
<text text-anchor="middle" x="39.5" y="-444.5" font-family="Helvetica,sans-Serif" font-size="10.00">QUEUE_Gets</text>
</g>
<!-- Node6 -->
<g id="node2" class="node"><title>Node6</title>
<g id="a_node2"><a xlink:href="mqtt_8c.html#a086502e2dd36681a7fb4d9a9018cfc88" target="_top" xlink:title="MQTT ping function. ">
<polygon fill="white" stroke="black" points="133.5,-513.5 133.5,-532.5 202.5,-532.5 202.5,-513.5 133.5,-513.5"/>
<text text-anchor="middle" x="168" y="-520.5" font-family="Helvetica,sans-Serif" font-size="10.00">MQTT_Ping</text>
</a>
</g>
</g>
<!-- Node5&#45;&gt;Node6 -->
<g id="edge1" class="edge"><title>Node5&#45;&gt;Node6</title>
<path fill="none" stroke="midnightblue" d="M58.5603,-463.334C73.0129,-475.76 94.2315,-492.608 115,-504 121.573,-507.605 128.968,-510.778 136.074,-513.446"/>
<polygon fill="midnightblue" stroke="midnightblue" points="60.7129,-460.567 50.8872,-456.603 56.0968,-465.829 60.7129,-460.567"/>
</g>
<!-- Node7 -->
<g id="node3" class="node"><title>Node7</title>
<g id="a_node3"><a xlink:href="mqtt_8c.html#a848a6701c4c7ec3432e38ea57c003aad" target="_top" xlink:title="MQTT publish function. ">
<polygon fill="white" stroke="black" points="127,-475.5 127,-494.5 209,-494.5 209,-475.5 127,-475.5"/>
<text text-anchor="middle" x="168" y="-482.5" font-family="Helvetica,sans-Serif" font-size="10.00">MQTT_Publish</text>
</a>
</g>
</g>
<!-- Node5&#45;&gt;Node7 -->
<g id="edge2" class="edge"><title>Node5&#45;&gt;Node7</title>
<path fill="none" stroke="midnightblue" d="M82.2294,-459.535C99.4382,-464.705 119.06,-470.599 135.089,-475.414"/>
<polygon fill="midnightblue" stroke="midnightblue" points="83.0055,-456.114 72.4213,-456.589 80.9916,-462.818 83.0055,-456.114"/>
</g>
<!-- Node36 -->
<g id="node32" class="node"><title>Node36</title>
<g id="a_node32"><a xlink:href="mqtt_8c.html#a86f8adfe29d6ec8bb5070fd030540d2f" target="_top" xlink:title="MQTT subscibe function. ">
<polygon fill="white" stroke="black" points="121.5,-437.5 121.5,-456.5 214.5,-456.5 214.5,-437.5 121.5,-437.5"/>
<text text-anchor="middle" x="168" y="-444.5" font-family="Helvetica,sans-Serif" font-size="10.00">MQTT_Subscribe</text>
</a>
</g>
</g>
<!-- Node5&#45;&gt;Node36 -->
<g id="edge33" class="edge"><title>Node5&#45;&gt;Node36</title>
<path fill="none" stroke="midnightblue" d="M89.4478,-447C99.9869,-447 111.085,-447 121.487,-447"/>
<polygon fill="midnightblue" stroke="midnightblue" points="89.1416,-443.5 79.1415,-447 89.1415,-450.5 89.1416,-443.5"/>
</g>
<!-- Node37 -->
<g id="node33" class="node"><title>Node37</title>
<g id="a_node33"><a xlink:href="mqtt_8c.html#a9d88fa6efb9163d4dbf9dc750a8d4ed0" target="_top" xlink:title="MQTT_Task">
<polygon fill="white" stroke="black" points="132.5,-399.5 132.5,-418.5 203.5,-418.5 203.5,-399.5 132.5,-399.5"/>
<text text-anchor="middle" x="168" y="-406.5" font-family="Helvetica,sans-Serif" font-size="10.00">MQTT_Task</text>
</a>
</g>
</g>
<!-- Node5&#45;&gt;Node37 -->
<g id="edge34" class="edge"><title>Node5&#45;&gt;Node37</title>
<path fill="none" stroke="midnightblue" d="M82.2294,-434.465C99.4382,-429.295 119.06,-423.401 135.089,-418.586"/>
<polygon fill="midnightblue" stroke="midnightblue" points="80.9916,-431.182 72.4213,-437.411 83.0055,-437.886 80.9916,-431.182"/>
</g>
<!-- Node39 -->
<g id="node35" class="node"><title>Node39</title>
<g id="a_node35"><a xlink:href="mqtt_8c.html#a7f28cd912dae4c1386c10026a267b579" target="_top" xlink:title="MQTT un&#45;subscibe function. ">
<polygon fill="white" stroke="black" points="115,-361.5 115,-380.5 221,-380.5 221,-361.5 115,-361.5"/>
<text text-anchor="middle" x="168" y="-368.5" font-family="Helvetica,sans-Serif" font-size="10.00">MQTT_UnSubscribe</text>
</a>
</g>
</g>
<!-- Node5&#45;&gt;Node39 -->
<g id="edge36" class="edge"><title>Node5&#45;&gt;Node39</title>
<path fill="none" stroke="midnightblue" d="M58.5603,-430.666C73.0129,-418.24 94.2315,-401.392 115,-390 121.573,-386.395 128.968,-383.222 136.074,-380.554"/>
<polygon fill="midnightblue" stroke="midnightblue" points="56.0968,-428.171 50.8872,-437.397 60.7129,-433.433 56.0968,-428.171"/>
</g>
<!-- Node8 -->
<g id="node4" class="node"><title>Node8</title>
<g id="a_node4"><a xlink:href="en61107__request_8c.html#aa3b162cf5364986ea19e831ac2b18f76" target="_top" xlink:title="en61107_received_task">
<polygon fill="white" stroke="black" points="257.5,-962.5 257.5,-981.5 376.5,-981.5 376.5,-962.5 257.5,-962.5"/>
<text text-anchor="middle" x="317" y="-969.5" font-family="Helvetica,sans-Serif" font-size="10.00">en61107_received_task</text>
</a>
</g>
</g>
<!-- Node7&#45;&gt;Node8 -->
<g id="edge3" class="edge"><title>Node7&#45;&gt;Node8</title>
<path fill="none" stroke="midnightblue" d="M217.432,-500.05C218.723,-501.266 219.92,-502.58 221,-504 281.597,-583.672 194.87,-874.518 257,-953 260.073,-956.881 263.946,-959.981 268.233,-962.455"/>
<polygon fill="midnightblue" stroke="midnightblue" points="219.328,-497.102 209.166,-494.104 215.24,-502.785 219.328,-497.102"/>
</g>
<!-- Node10 -->
<g id="node6" class="node"><title>Node10</title>
<g id="a_node6"><a xlink:href="en61107__request_8h.html#a7384d014eb9e833f64ecf4a9f86f87be" target="_top" xlink:title="en61107_request_send">
<polygon fill="white" stroke="black" points="258.5,-924.5 258.5,-943.5 375.5,-943.5 375.5,-924.5 258.5,-924.5"/>
<text text-anchor="middle" x="317" y="-931.5" font-family="Helvetica,sans-Serif" font-size="10.00">en61107_request_send</text>
</a>
</g>
</g>
<!-- Node7&#45;&gt;Node10 -->
<g id="edge5" class="edge"><title>Node7&#45;&gt;Node10</title>
<path fill="none" stroke="midnightblue" d="M217.417,-500.062C218.712,-501.274 219.914,-502.585 221,-504 276.137,-575.861 203.167,-837.158 257,-910 261.666,-916.314 268.283,-920.972 275.408,-924.406"/>
<polygon fill="midnightblue" stroke="midnightblue" points="219.301,-497.107 209.134,-494.129 215.225,-502.797 219.301,-497.107"/>
</g>
<!-- Node11 -->
<g id="node7" class="node"><title>Node11</title>
<g id="a_node7"><a xlink:href="kmp__request_8c.html#a3f6b790a06b933b78f40ade5e9a16131" target="_top" xlink:title="kmp_received_task">
<polygon fill="white" stroke="black" points="417.5,-889.5 417.5,-908.5 518.5,-908.5 518.5,-889.5 417.5,-889.5"/>
<text text-anchor="middle" x="468" y="-896.5" font-family="Helvetica,sans-Serif" font-size="10.00">kmp_received_task</text>
</a>
</g>
</g>
<!-- Node7&#45;&gt;Node11 -->
<g id="edge6" class="edge"><title>Node7&#45;&gt;Node11</title>
<path fill="none" stroke="midnightblue" d="M217.402,-500.073C218.702,-501.282 219.908,-502.589 221,-504 271.948,-569.87 198.357,-817.876 257,-877 300.24,-920.595 376.798,-916.56 424.564,-908.56"/>
<polygon fill="midnightblue" stroke="midnightblue" points="219.277,-497.111 209.104,-494.152 215.211,-502.809 219.277,-497.111"/>
</g>
<!-- Node13 -->
<g id="node9" class="node"><title>Node13</title>
<g id="a_node9"><a xlink:href="kmp__request_8h.html#a3b022dcdc832786eb06126b5e6879604" target="_top" xlink:title="kmp_request_send">
<polygon fill="white" stroke="black" points="267.5,-848.5 267.5,-867.5 366.5,-867.5 366.5,-848.5 267.5,-848.5"/>
<text text-anchor="middle" x="317" y="-855.5" font-family="Helvetica,sans-Serif" font-size="10.00">kmp_request_send</text>
</a>
</g>
</g>
<!-- Node7&#45;&gt;Node13 -->
<g id="edge8" class="edge"><title>Node7&#45;&gt;Node13</title>
<path fill="none" stroke="midnightblue" d="M217.383,-500.088C218.688,-501.293 219.901,-502.595 221,-504 313.257,-621.952 162.474,-722.859 257,-839 260.125,-842.839 264.031,-845.912 268.338,-848.37"/>
<polygon fill="midnightblue" stroke="midnightblue" points="219.243,-497.117 209.062,-494.184 215.192,-502.825 219.243,-497.117"/>
</g>
<!-- Node15 -->
<g id="node11" class="node"><title>Node15</title>
<g id="a_node11"><a xlink:href="mqtt__rpc_8h.html#a7d1ed70e046b535e06c58675d4f1676b" target="_top" xlink:title="mqtt_rpc_ap_status">
<polygon fill="white" stroke="black" points="265.5,-810.5 265.5,-829.5 368.5,-829.5 368.5,-810.5 265.5,-810.5"/>
<text text-anchor="middle" x="317" y="-817.5" font-family="Helvetica,sans-Serif" font-size="10.00">mqtt_rpc_ap_status</text>
</a>
</g>
</g>
<!-- Node7&#45;&gt;Node15 -->
<g id="edge12" class="edge"><title>Node7&#45;&gt;Node15</title>
<path fill="none" stroke="midnightblue" d="M217.358,-500.107C218.67,-501.307 219.891,-502.602 221,-504 303.628,-608.176 172.369,-698.445 257,-801 260.219,-804.901 264.245,-808.01 268.673,-810.486"/>
<polygon fill="midnightblue" stroke="midnightblue" points="219.201,-497.124 209.011,-494.225 215.169,-502.846 219.201,-497.124"/>
</g>
<!-- Node16 -->
<g id="node12" class="node"><title>Node16</title>
<g id="a_node12"><a xlink:href="mqtt__rpc_8h.html#a023697ad978d1154228e256583a147c0" target="_top" xlink:title="mqtt_rpc_clear_cron">
<polygon fill="white" stroke="black" points="264.5,-772.5 264.5,-791.5 369.5,-791.5 369.5,-772.5 264.5,-772.5"/>
<text text-anchor="middle" x="317" y="-779.5" font-family="Helvetica,sans-Serif" font-size="10.00">mqtt_rpc_clear_cron</text>
</a>
</g>
</g>
<!-- Node7&#45;&gt;Node16 -->
<g id="edge13" class="edge"><title>Node7&#45;&gt;Node16</title>
<path fill="none" stroke="midnightblue" d="M217.4,-500.199C218.693,-501.373 219.9,-502.638 221,-504 294.013,-594.419 182.248,-674.013 257,-763 260.253,-766.873 264.3,-769.964 268.741,-772.43"/>
<polygon fill="midnightblue" stroke="midnightblue" points="219.389,-497.319 209.199,-494.418 215.356,-503.04 219.389,-497.319"/>
</g>
<!-- Node17 -->
<g id="node13" class="node"><title>Node17</title>
<g id="a_node13"><a xlink:href="mqtt__rpc_8h.html#a1e120184f7f332e637fc9481bcf5ce89" target="_top" xlink:title="mqtt_rpc_cron">
<polygon fill="white" stroke="black" points="277.5,-734.5 277.5,-753.5 356.5,-753.5 356.5,-734.5 277.5,-734.5"/>
<text text-anchor="middle" x="317" y="-741.5" font-family="Helvetica,sans-Serif" font-size="10.00">mqtt_rpc_cron</text>
</a>
</g>
</g>
<!-- Node7&#45;&gt;Node17 -->
<g id="edge14" class="edge"><title>Node7&#45;&gt;Node17</title>
<path fill="none" stroke="midnightblue" d="M217.359,-500.232C218.664,-501.397 219.884,-502.651 221,-504 284.421,-580.69 192.104,-649.554 257,-725 262.333,-731.2 269.7,-735.394 277.422,-738.225"/>
<polygon fill="midnightblue" stroke="midnightblue" points="219.319,-497.332 209.112,-494.489 215.318,-503.076 219.319,-497.332"/>
</g>
<!-- Node18 -->
<g id="node14" class="node"><title>Node18</title>
<g id="a_node14"><a xlink:href="mqtt__rpc_8h.html#afbd8a015cb20feb245dfc778416af7e9" target="_top" xlink:title="mqtt_rpc_crypto">
<polygon fill="white" stroke="black" points="273.5,-696.5 273.5,-715.5 360.5,-715.5 360.5,-696.5 273.5,-696.5"/>
<text text-anchor="middle" x="317" y="-703.5" font-family="Helvetica,sans-Serif" font-size="10.00">mqtt_rpc_crypto</text>
</a>
</g>
</g>
<!-- Node7&#45;&gt;Node18 -->
<g id="edge15" class="edge"><title>Node7&#45;&gt;Node18</title>
<path fill="none" stroke="midnightblue" d="M217.302,-500.28C218.623,-501.431 219.862,-502.669 221,-504 274.866,-567.005 201.923,-625.051 257,-687 261.433,-691.986 267.179,-695.672 273.343,-698.394"/>
<polygon fill="midnightblue" stroke="midnightblue" points="219.22,-497.352 208.992,-494.59 215.266,-503.128 219.22,-497.352"/>
</g>
<!-- Node19 -->
<g id="node15" class="node"><title>Node19</title>
<g id="a_node15"><a xlink:href="mqtt__rpc_8h.html#a29c5b0a22ebb1032363e20a1eb228d88" target="_top" xlink:title="mqtt_rpc_mem">
<polygon fill="white" stroke="black" points="276,-658.5 276,-677.5 358,-677.5 358,-658.5 276,-658.5"/>
<text text-anchor="middle" x="317" y="-665.5" font-family="Helvetica,sans-Serif" font-size="10.00">mqtt_rpc_mem</text>
</a>
</g>
</g>
<!-- Node7&#45;&gt;Node19 -->
<g id="edge16" class="edge"><title>Node7&#45;&gt;Node19</title>
<path fill="none" stroke="midnightblue" d="M217.142,-500.29C218.515,-501.438 219.808,-502.673 221,-504 265.376,-553.395 211.675,-600.474 257,-649 262.142,-654.505 268.883,-658.42 275.964,-661.203"/>
<polygon fill="midnightblue" stroke="midnightblue" points="218.827,-497.208 208.556,-494.609 214.965,-503.046 218.827,-497.208"/>
</g>
<!-- Node20 -->
<g id="node16" class="node"><title>Node20</title>
<g id="a_node16"><a xlink:href="mqtt__rpc_8h.html#a44921185fc90cf7507f2eaf4fa48861a" target="_top" xlink:title="mqtt_rpc_open_until">
<polygon fill="white" stroke="black" points="265,-620.5 265,-639.5 369,-639.5 369,-620.5 265,-620.5"/>
<text text-anchor="middle" x="317" y="-627.5" font-family="Helvetica,sans-Serif" font-size="10.00">mqtt_rpc_open_until</text>
</a>
</g>
</g>
<!-- Node7&#45;&gt;Node20 -->
<g id="edge17" class="edge"><title>Node7&#45;&gt;Node20</title>
<path fill="none" stroke="midnightblue" d="M216.441,-499.988C218.06,-501.222 219.589,-502.557 221,-504 255.776,-539.582 221.809,-574.829 257,-610 261.36,-614.358 266.704,-617.767 272.377,-620.433"/>
<polygon fill="midnightblue" stroke="midnightblue" points="218.084,-496.89 207.735,-494.622 214.411,-502.849 218.084,-496.89"/>
</g>
<!-- Node21 -->
<g id="node17" class="node"><title>Node21</title>
<g id="a_node17"><a xlink:href="mqtt__rpc_8h.html#a37edc063b829348999e78221ed0f247e" target="_top" xlink:title="mqtt_rpc_open_until\l_delta">
<polygon fill="white" stroke="black" points="265,-571 265,-601 369,-601 369,-571 265,-571"/>
<text text-anchor="start" x="273" y="-589" font-family="Helvetica,sans-Serif" font-size="10.00">mqtt_rpc_open_until</text>
<text text-anchor="middle" x="317" y="-578" font-family="Helvetica,sans-Serif" font-size="10.00">_delta</text>
</a>
</g>
</g>
<!-- Node7&#45;&gt;Node21 -->
<g id="edge18" class="edge"><title>Node7&#45;&gt;Node21</title>
<path fill="none" stroke="midnightblue" d="M213.778,-499.045C216.324,-500.542 218.756,-502.189 221,-504 244.319,-522.815 234.163,-541.603 257,-561 261.494,-564.817 266.656,-568.125 272.017,-570.971"/>
<polygon fill="midnightblue" stroke="midnightblue" points="215.301,-495.893 204.796,-494.513 212.147,-502.143 215.301,-495.893"/>
</g>
<!-- Node22 -->
<g id="node18" class="node"><title>Node22</title>
<g id="a_node18"><a xlink:href="mqtt__rpc_8h.html#a0e5c92a93eaf9b2e3c2cd98c0fcbe65f" target="_top" xlink:title="mqtt_rpc_ping">
<polygon fill="white" stroke="black" points="278,-532.5 278,-551.5 356,-551.5 356,-532.5 278,-532.5"/>
<text text-anchor="middle" x="317" y="-539.5" font-family="Helvetica,sans-Serif" font-size="10.00">mqtt_rpc_ping</text>
</a>
</g>
</g>
<!-- Node7&#45;&gt;Node22 -->
<g id="edge19" class="edge"><title>Node7&#45;&gt;Node22</title>
<path fill="none" stroke="midnightblue" d="M206.995,-498.204C211.75,-500.055 216.515,-502.008 221,-504 237.534,-511.343 240.327,-515.978 257,-523 265.232,-526.467 274.327,-529.682 282.862,-532.446"/>
<polygon fill="midnightblue" stroke="midnightblue" points="207.936,-494.818 197.344,-494.569 205.469,-501.369 207.936,-494.818"/>
</g>
<!-- Node23 -->
<g id="node19" class="node"><title>Node23</title>
<g id="a_node19"><a xlink:href="mqtt__rpc_8h.html#aa21aaf34522e1a100a4120d9f63d2dad" target="_top" xlink:title="mqtt_rpc_reset_reason">
<polygon fill="white" stroke="black" points="259,-494.5 259,-513.5 375,-513.5 375,-494.5 259,-494.5"/>
<text text-anchor="middle" x="317" y="-501.5" font-family="Helvetica,sans-Serif" font-size="10.00">mqtt_rpc_reset_reason</text>
</a>
</g>
</g>
<!-- Node7&#45;&gt;Node23 -->
<g id="edge20" class="edge"><title>Node7&#45;&gt;Node23</title>
<path fill="none" stroke="midnightblue" d="M219.144,-491.481C231.905,-493.131 245.714,-494.915 258.798,-496.607"/>
<polygon fill="midnightblue" stroke="midnightblue" points="219.535,-488.003 209.168,-490.192 218.637,-494.945 219.535,-488.003"/>
</g>
<!-- Node24 -->
<g id="node20" class="node"><title>Node24</title>
<g id="a_node20"><a xlink:href="mqtt__rpc_8h.html#ae3c71a438ecea4bb271bd1586af59452" target="_top" xlink:title="mqtt_rpc_restart">
<polygon fill="white" stroke="black" points="273,-456.5 273,-475.5 361,-475.5 361,-456.5 273,-456.5"/>
<text text-anchor="middle" x="317" y="-463.5" font-family="Helvetica,sans-Serif" font-size="10.00">mqtt_rpc_restart</text>
</a>
</g>
</g>
<!-- Node7&#45;&gt;Node24 -->
<g id="edge21" class="edge"><title>Node7&#45;&gt;Node24</title>
<path fill="none" stroke="midnightblue" d="M219.169,-478.516C236.596,-476.263 255.974,-473.758 272.789,-471.585"/>
<polygon fill="midnightblue" stroke="midnightblue" points="218.637,-475.055 209.168,-479.808 219.535,-481.997 218.637,-475.055"/>
</g>
<!-- Node25 -->
<g id="node21" class="node"><title>Node25</title>
<g id="a_node21"><a xlink:href="mqtt__rpc_8h.html#a9d2f80fe20656d22687c0414da46fcce" target="_top" xlink:title="mqtt_rpc_rssi">
<polygon fill="white" stroke="black" points="279,-418.5 279,-437.5 355,-437.5 355,-418.5 279,-418.5"/>
<text text-anchor="middle" x="317" y="-425.5" font-family="Helvetica,sans-Serif" font-size="10.00">mqtt_rpc_rssi</text>
</a>
</g>
</g>
<!-- Node7&#45;&gt;Node25 -->
<g id="edge22" class="edge"><title>Node7&#45;&gt;Node25</title>
<path fill="none" stroke="midnightblue" d="M206.995,-471.796C211.75,-469.945 216.515,-467.992 221,-466 237.534,-458.657 240.327,-454.022 257,-447 265.232,-443.533 274.327,-440.318 282.862,-437.554"/>
<polygon fill="midnightblue" stroke="midnightblue" points="205.469,-468.631 197.344,-475.431 207.936,-475.182 205.469,-468.631"/>
</g>
<!-- Node26 -->
<g id="node22" class="node"><title>Node26</title>
<g id="a_node22"><a xlink:href="mqtt__rpc_8h.html#a5ede5df0880a2c3823a5c3757423678b" target="_top" xlink:title="mqtt_rpc_set_cron">
<polygon fill="white" stroke="black" points="268,-380.5 268,-399.5 366,-399.5 366,-380.5 268,-380.5"/>
<text text-anchor="middle" x="317" y="-387.5" font-family="Helvetica,sans-Serif" font-size="10.00">mqtt_rpc_set_cron</text>
</a>
</g>
</g>
<!-- Node7&#45;&gt;Node26 -->
<g id="edge23" class="edge"><title>Node7&#45;&gt;Node26</title>
<path fill="none" stroke="midnightblue" d="M213.778,-470.955C216.324,-469.458 218.756,-467.811 221,-466 244.319,-447.185 233.321,-427.359 257,-409 262.018,-405.11 267.856,-402.003 273.871,-399.526"/>
<polygon fill="midnightblue" stroke="midnightblue" points="212.147,-467.857 204.796,-475.487 215.301,-474.107 212.147,-467.857"/>
</g>
<!-- Node27 -->
<g id="node23" class="node"><title>Node27</title>
<g id="a_node23"><a xlink:href="mqtt__rpc_8h.html#a3384f5aa84b17fa3902e2aad318913d8" target="_top" xlink:title="mqtt_rpc_set_pwd">
<polygon fill="white" stroke="black" points="268.5,-342.5 268.5,-361.5 365.5,-361.5 365.5,-342.5 268.5,-342.5"/>
<text text-anchor="middle" x="317" y="-349.5" font-family="Helvetica,sans-Serif" font-size="10.00">mqtt_rpc_set_pwd</text>
</a>
</g>
</g>
<!-- Node7&#45;&gt;Node27 -->
<g id="edge24" class="edge"><title>Node7&#45;&gt;Node27</title>
<path fill="none" stroke="midnightblue" d="M216.29,-470.014C217.959,-468.779 219.539,-467.444 221,-466 253.117,-434.263 224.274,-402.108 257,-371 261.056,-367.145 265.898,-364.072 271.04,-361.622"/>
<polygon fill="midnightblue" stroke="midnightblue" points="214.118,-467.236 207.35,-475.387 217.724,-473.236 214.118,-467.236"/>
</g>
<!-- Node28 -->
<g id="node24" class="node"><title>Node28</title>
<g id="a_node24"><a xlink:href="mqtt__rpc_8h.html#aa3b038b94189cb8a82fdc7e5115d90c8" target="_top" xlink:title="mqtt_rpc_set_ssid">
<polygon fill="white" stroke="black" points="268.5,-304.5 268.5,-323.5 365.5,-323.5 365.5,-304.5 268.5,-304.5"/>
<text text-anchor="middle" x="317" y="-311.5" font-family="Helvetica,sans-Serif" font-size="10.00">mqtt_rpc_set_ssid</text>
</a>
</g>
</g>
<!-- Node7&#45;&gt;Node28 -->
<g id="edge25" class="edge"><title>Node7&#45;&gt;Node28</title>
<path fill="none" stroke="midnightblue" d="M216.643,-470.055C218.198,-468.809 219.66,-467.461 221,-466 262.401,-420.877 214.732,-377.312 257,-333 260.714,-329.107 265.228,-326.009 270.087,-323.546"/>
<polygon fill="midnightblue" stroke="midnightblue" points="214.748,-467.112 208.221,-475.458 218.528,-473.004 214.748,-467.112"/>
</g>
<!-- Node29 -->
<g id="node25" class="node"><title>Node29</title>
<g id="a_node25"><a xlink:href="mqtt__rpc_8h.html#a651f41878c47fd58b8ae08a49692d5d0" target="_top" xlink:title="mqtt_rpc_set_ssid_pwd">
<polygon fill="white" stroke="black" points="257,-266.5 257,-285.5 377,-285.5 377,-266.5 257,-266.5"/>
<text text-anchor="middle" x="317" y="-273.5" font-family="Helvetica,sans-Serif" font-size="10.00">mqtt_rpc_set_ssid_pwd</text>
</a>
</g>
</g>
<!-- Node7&#45;&gt;Node29 -->
<g id="edge26" class="edge"><title>Node7&#45;&gt;Node29</title>
<path fill="none" stroke="midnightblue" d="M217.279,-469.7C218.606,-468.555 219.853,-467.323 221,-466 271.86,-407.304 205.012,-352.7 257,-295 260.458,-291.163 264.693,-288.096 269.292,-285.647"/>
<polygon fill="midnightblue" stroke="midnightblue" points="215.245,-466.851 208.944,-475.368 219.181,-472.64 215.245,-466.851"/>
</g>
<!-- Node30 -->
<g id="node26" class="node"><title>Node30</title>
<g id="a_node26"><a xlink:href="mqtt__rpc_8h.html#a93655988d0f1c02f278b77ab1bb57573" target="_top" xlink:title="mqtt_rpc_ssid">
<polygon fill="white" stroke="black" points="278,-228.5 278,-247.5 356,-247.5 356,-228.5 278,-228.5"/>
<text text-anchor="middle" x="317" y="-235.5" font-family="Helvetica,sans-Serif" font-size="10.00">mqtt_rpc_ssid</text>
</a>
</g>
</g>
<!-- Node7&#45;&gt;Node30 -->
<g id="edge27" class="edge"><title>Node7&#45;&gt;Node30</title>
<path fill="none" stroke="midnightblue" d="M217.343,-469.754C218.652,-468.594 219.878,-467.344 221,-466 281.399,-393.638 195.21,-328.178 257,-257 262.432,-250.743 269.934,-246.531 277.769,-243.7"/>
<polygon fill="midnightblue" stroke="midnightblue" points="215.303,-466.91 209.079,-475.483 219.291,-472.663 215.303,-466.91"/>
</g>
<!-- Node31 -->
<g id="node27" class="node"><title>Node31</title>
<g id="a_node27"><a xlink:href="mqtt__rpc_8h.html#ab9db71238155955bc4dfbb2c7f93c9d2" target="_top" xlink:title="mqtt_rpc_status">
<polygon fill="white" stroke="black" points="273.5,-190.5 273.5,-209.5 360.5,-209.5 360.5,-190.5 273.5,-190.5"/>
<text text-anchor="middle" x="317" y="-197.5" font-family="Helvetica,sans-Serif" font-size="10.00">mqtt_rpc_status</text>
</a>
</g>
</g>
<!-- Node7&#45;&gt;Node31 -->
<g id="edge28" class="edge"><title>Node7&#45;&gt;Node31</title>
<path fill="none" stroke="midnightblue" d="M217.388,-469.792C218.685,-468.62 219.895,-467.359 221,-466 290.981,-379.92 185.363,-303.707 257,-219 261.378,-213.823 267.174,-210.044 273.425,-207.288"/>
<polygon fill="midnightblue" stroke="midnightblue" points="215.345,-466.95 209.175,-475.562 219.369,-472.678 215.345,-466.95"/>
</g>
<!-- Node32 -->
<g id="node28" class="node"><title>Node32</title>
<g id="a_node28"><a xlink:href="mqtt__rpc_8h.html#acd6cfd98c940051391eb8c0bd2bbeca9" target="_top" xlink:title="mqtt_rpc_uptime">
<polygon fill="white" stroke="black" points="272.5,-152.5 272.5,-171.5 361.5,-171.5 361.5,-152.5 272.5,-152.5"/>
<text text-anchor="middle" x="317" y="-159.5" font-family="Helvetica,sans-Serif" font-size="10.00">mqtt_rpc_uptime</text>
</a>
</g>
</g>
<!-- Node7&#45;&gt;Node32 -->
<g id="edge29" class="edge"><title>Node7&#45;&gt;Node32</title>
<path fill="none" stroke="midnightblue" d="M217.422,-469.819C218.709,-468.64 219.908,-467.369 221,-466 300.59,-366.171 175.49,-279.268 257,-181 261.122,-176.03 266.553,-172.347 272.453,-169.619"/>
<polygon fill="midnightblue" stroke="midnightblue" points="215.376,-466.979 209.246,-475.62 219.427,-472.688 215.376,-466.979"/>
</g>
<!-- Node33 -->
<g id="node29" class="node"><title>Node33</title>
<g id="a_node29"><a xlink:href="mqtt__rpc_8h.html#a550893f994cbbd9b6b745488f0c512ac" target="_top" xlink:title="mqtt_rpc_vdd">
<polygon fill="white" stroke="black" points="279,-114.5 279,-133.5 355,-133.5 355,-114.5 279,-114.5"/>
<text text-anchor="middle" x="317" y="-121.5" font-family="Helvetica,sans-Serif" font-size="10.00">mqtt_rpc_vdd</text>
</a>
</g>
</g>
<!-- Node7&#45;&gt;Node33 -->
<g id="edge30" class="edge"><title>Node7&#45;&gt;Node33</title>
<path fill="none" stroke="midnightblue" d="M217.376,-469.906C218.682,-468.703 219.898,-467.403 221,-466 310.215,-352.4 165.6,-254.849 257,-143 262.516,-136.25 270.447,-131.87 278.714,-129.035"/>
<polygon fill="midnightblue" stroke="midnightblue" points="215.186,-467.168 209.047,-475.804 219.231,-472.881 215.186,-467.168"/>
</g>
<!-- Node34 -->
<g id="node30" class="node"><title>Node34</title>
<g id="a_node30"><a xlink:href="mqtt__rpc_8h.html#a6c4d0371a5542aa2dc9543fc7b829436" target="_top" xlink:title="mqtt_rpc_version">
<polygon fill="white" stroke="black" points="271,-76.5 271,-95.5 363,-95.5 363,-76.5 271,-76.5"/>
<text text-anchor="middle" x="317" y="-83.5" font-family="Helvetica,sans-Serif" font-size="10.00">mqtt_rpc_version</text>
</a>
</g>
</g>
<!-- Node7&#45;&gt;Node34 -->
<g id="edge31" class="edge"><title>Node7&#45;&gt;Node34</title>
<path fill="none" stroke="midnightblue" d="M217.397,-469.923C218.698,-468.715 219.906,-467.41 221,-466 319.851,-338.615 155.698,-230.445 257,-105 260.718,-100.395 265.562,-96.8922 270.877,-94.2299"/>
<polygon fill="midnightblue" stroke="midnightblue" points="215.206,-467.186 209.091,-475.839 219.267,-472.888 215.206,-467.186"/>
</g>
<!-- Node35 -->
<g id="node31" class="node"><title>Node35</title>
<g id="a_node31"><a xlink:href="mqtt__rpc_8h.html#a482a5f229bd1fac0511a057bbf4363f2" target="_top" xlink:title="mqtt_rpc_wifi_status">
<polygon fill="white" stroke="black" points="263.5,-38.5 263.5,-57.5 370.5,-57.5 370.5,-38.5 263.5,-38.5"/>
<text text-anchor="middle" x="317" y="-45.5" font-family="Helvetica,sans-Serif" font-size="10.00">mqtt_rpc_wifi_status</text>
</a>
</g>
</g>
<!-- Node7&#45;&gt;Node35 -->
<g id="edge32" class="edge"><title>Node7&#45;&gt;Node35</title>
<path fill="none" stroke="midnightblue" d="M217.414,-469.936C218.71,-468.724 219.913,-467.415 221,-466 275.248,-395.41 201.394,-136.525 257,-67 260.092,-63.1342 263.977,-60.0443 268.272,-57.5761"/>
<polygon fill="midnightblue" stroke="midnightblue" points="215.222,-467.2 209.128,-475.866 219.297,-472.893 215.222,-467.2"/>
</g>
<!-- Node9 -->
<g id="node5" class="node"><title>Node9</title>
<g id="a_node5"><a xlink:href="en61107__request_8h.html#acd43242675a3f25e7c3b530eac9d8b3a" target="_top" xlink:title="en61107_request_init">
<polygon fill="white" stroke="black" points="413.5,-962.5 413.5,-981.5 522.5,-981.5 522.5,-962.5 413.5,-962.5"/>
<text text-anchor="middle" x="468" y="-969.5" font-family="Helvetica,sans-Serif" font-size="10.00">en61107_request_init</text>
</a>
</g>
</g>
<!-- Node8&#45;&gt;Node9 -->
<g id="edge4" class="edge"><title>Node8&#45;&gt;Node9</title>
<path fill="none" stroke="midnightblue" d="M387.152,-972C395.959,-972 404.867,-972 413.379,-972"/>
<polygon fill="midnightblue" stroke="midnightblue" points="386.889,-968.5 376.889,-972 386.889,-975.5 386.889,-968.5"/>
</g>
<!-- Node12 -->
<g id="node8" class="node"><title>Node12</title>
<g id="a_node8"><a xlink:href="kmp__request_8h.html#a048753ff9d6b448e2dcd8c85db0d6873" target="_top" xlink:title="kmp_request_init">
<polygon fill="white" stroke="black" points="559,-889.5 559,-908.5 650,-908.5 650,-889.5 559,-889.5"/>
<text text-anchor="middle" x="604.5" y="-896.5" font-family="Helvetica,sans-Serif" font-size="10.00">kmp_request_init</text>
</a>
</g>
</g>
<!-- Node11&#45;&gt;Node12 -->
<g id="edge7" class="edge"><title>Node11&#45;&gt;Node12</title>
<path fill="none" stroke="midnightblue" d="M528.725,-899C538.861,-899 549.228,-899 558.889,-899"/>
<polygon fill="midnightblue" stroke="midnightblue" points="528.701,-895.5 518.701,-899 528.701,-902.5 528.701,-895.5"/>
</g>
<!-- Node13&#45;&gt;Node11 -->
<g id="edge9" class="edge"><title>Node13&#45;&gt;Node11</title>
<path fill="none" stroke="midnightblue" d="M362.493,-870.243C384.86,-876.398 411.558,-883.744 432.372,-889.471"/>
<polygon fill="midnightblue" stroke="midnightblue" points="363.128,-866.788 352.558,-867.509 361.271,-873.537 363.128,-866.788"/>
</g>
<!-- Node14 -->
<g id="node10" class="node"><title>Node14</title>
<g id="a_node10"><a xlink:href="kmp__request_8c.html#a0977a4640a97d389ac3b0fef0ba7a9b6" target="_top" xlink:title="kmp_receive_timeout\l_timer_func">
<polygon fill="white" stroke="black" points="413,-840 413,-870 523,-870 523,-840 413,-840"/>
<text text-anchor="start" x="421" y="-858" font-family="Helvetica,sans-Serif" font-size="10.00">kmp_receive_timeout</text>
<text text-anchor="middle" x="468" y="-847" font-family="Helvetica,sans-Serif" font-size="10.00">_timer_func</text>
</a>
</g>
</g>
<!-- Node13&#45;&gt;Node14 -->
<g id="edge10" class="edge"><title>Node13&#45;&gt;Node14</title>
<path fill="none" stroke="midnightblue" d="M377.03,-850.193C388.882,-849.75 401.279,-849.534 412.951,-849.57"/>
<polygon fill="midnightblue" stroke="midnightblue" points="376.626,-846.707 366.788,-850.638 376.931,-853.7 376.626,-846.707"/>
</g>
<!-- Node14&#45;&gt;Node13 -->
<g id="edge11" class="edge"><title>Node14&#45;&gt;Node13</title>
<path fill="none" stroke="midnightblue" d="M402.902,-862.982C390.801,-863.363 378.326,-863.51 366.788,-863.397"/>
<polygon fill="midnightblue" stroke="midnightblue" points="403.088,-866.477 412.951,-862.607 402.827,-859.482 403.088,-866.477"/>
</g>
<!-- Node38 -->
<g id="node34" class="node"><title>Node38</title>
<g id="a_node34"><a xlink:href="mqtt_8c.html#a25cb7ac079d1d119250dac075c45acf1" target="_top" xlink:title="MQTT initialization mqtt client function. ">
<polygon fill="white" stroke="black" points="272.5,-0.5 272.5,-19.5 361.5,-19.5 361.5,-0.5 272.5,-0.5"/>
<text text-anchor="middle" x="317" y="-7.5" font-family="Helvetica,sans-Serif" font-size="10.00">MQTT_InitClient</text>
</a>
</g>
</g>
<!-- Node37&#45;&gt;Node38 -->
<g id="edge35" class="edge"><title>Node37&#45;&gt;Node38</title>
<path fill="none" stroke="midnightblue" d="M212.592,-397.709C215.776,-395.569 218.652,-393.025 221,-390 319.851,-262.615 155.698,-154.445 257,-29 261.056,-23.9767 266.452,-20.2644 272.337,-17.5245"/>
<polygon fill="midnightblue" stroke="midnightblue" points="210.793,-394.701 203.598,-402.478 214.072,-400.885 210.793,-394.701"/>
</g>
</g>
</svg>
