<?xml version="1.0" encoding="UTF-8" standalone="no"?>
<!DOCTYPE svg PUBLIC "-//W3C//DTD SVG 1.1//EN"
 "http://www.w3.org/Graphics/SVG/1.1/DTD/svg11.dtd">
<!-- Generated by graphviz version 2.38.0 (20140413.2041)
 -->
<!-- Title: QUEUE_Puts Pages: 1 -->
<svg width="328pt" height="28pt"
 viewBox="0.00 0.00 328.00 28.00" xmlns="http://www.w3.org/2000/svg" xmlns:xlink="http://www.w3.org/1999/xlink">
<g id="graph0" class="graph" transform="scale(1 1) rotate(0) translate(4 24)">
<title>QUEUE_Puts</title>
<polygon fill="white" stroke="none" points="-4,4 -4,-24 324,-24 324,4 -4,4"/>
<!-- Node48 -->
<g id="node1" class="node"><title>Node48</title>
<polygon fill="#bfbfbf" stroke="black" points="0,-0.5 0,-19.5 78,-19.5 78,-0.5 0,-0.5"/>
<text text-anchor="middle" x="39" y="-7.5" font-family="Helvetica,sans-Serif" font-size="10.00">QUEUE_Puts</text>
</g>
<!-- Node49 -->
<g id="node2" class="node"><title>Node49</title>
<g id="a_node2"><a xlink:href="proto_8h.html#a0048bb46c50a05ae94d1f1563909c046" target="_top" xlink:title="PROTO_AddRb">
<polygon fill="white" stroke="black" points="114,-0.5 114,-19.5 201,-19.5 201,-0.5 114,-0.5"/>
<text text-anchor="middle" x="157.5" y="-7.5" font-family="Helvetica,sans-Serif" font-size="10.00">PROTO_AddRb</text>
</a>
</g>
</g>
<!-- Node48&#45;&gt;Node49 -->
<g id="edge1" class="edge"><title>Node48&#45;&gt;Node49</title>
<path fill="none" stroke="midnightblue" d="M78.1465,-10C86.3502,-10 95.1603,-10 103.806,-10"/>
<polygon fill="midnightblue" stroke="midnightblue" points="103.833,-13.5001 113.833,-10 103.833,-6.5001 103.833,-13.5001"/>
</g>
<!-- Node50 -->
<g id="node3" class="node"><title>Node50</title>
<g id="a_node3"><a xlink:href="ringbuf_8h.html#a8b56edb0716a45312957960d4784f0b7" target="_top" xlink:title="put a character into ring buffer ">
<polygon fill="white" stroke="black" points="237,-0.5 237,-19.5 320,-19.5 320,-0.5 237,-0.5"/>
<text text-anchor="middle" x="278.5" y="-7.5" font-family="Helvetica,sans-Serif" font-size="10.00">RINGBUF_Put</text>
</a>
</g>
</g>
<!-- Node49&#45;&gt;Node50 -->
<g id="edge2" class="edge"><title>Node49&#45;&gt;Node50</title>
<path fill="none" stroke="midnightblue" d="M201.126,-10C209.375,-10 218.097,-10 226.581,-10"/>
<polygon fill="midnightblue" stroke="midnightblue" points="226.764,-13.5001 236.764,-10 226.764,-6.5001 226.764,-13.5001"/>
</g>
</g>
</svg>
