<?xml version="1.0" encoding="UTF-8" standalone="no"?>
<!DOCTYPE svg PUBLIC "-//W3C//DTD SVG 1.1//EN"
 "http://www.w3.org/Graphics/SVG/1.1/DTD/svg11.dtd">
<!-- Generated by graphviz version 2.38.0 (20140413.2041)
 -->
<!-- Title: user/rfinit.c Pages: 1 -->
<svg width="442pt" height="700pt"
 viewBox="0.00 0.00 442.00 700.00" xmlns="http://www.w3.org/2000/svg" xmlns:xlink="http://www.w3.org/1999/xlink">
<g id="graph0" class="graph" transform="scale(1 1) rotate(0) translate(4 696)">
<title>user/rfinit.c</title>
<polygon fill="white" stroke="none" points="-4,4 -4,-696 438,-696 438,4 -4,4"/>
<!-- Node0 -->
<g id="node1" class="node"><title>Node0</title>
<polygon fill="#bfbfbf" stroke="black" points="363.5,-672.5 363.5,-691.5 428.5,-691.5 428.5,-672.5 363.5,-672.5"/>
<text text-anchor="middle" x="396" y="-679.5" font-family="Helvetica,sans-Serif" font-size="10.00">user/rfinit.c</text>
</g>
<!-- Node1 -->
<g id="node2" class="node"><title>Node1</title>
<g id="a_node2"><a xlink:href="ets__sys_8h.html" target="_top" xlink:title="ets_sys.h">
<polygon fill="white" stroke="black" points="158.5,-112.5 158.5,-131.5 217.5,-131.5 217.5,-112.5 158.5,-112.5"/>
<text text-anchor="middle" x="188" y="-119.5" font-family="Helvetica,sans-Serif" font-size="10.00">ets_sys.h</text>
</a>
</g>
</g>
<!-- Node0&#45;&gt;Node1 -->
<g id="edge1" class="edge"><title>Node0&#45;&gt;Node1</title>
<path fill="none" stroke="midnightblue" d="M401.284,-672.231C411.725,-654.043 434,-610.601 434,-571 434,-571 434,-571 434,-233 434,-143.779 297.478,-126.444 227.841,-123.405"/>
<polygon fill="midnightblue" stroke="midnightblue" points="227.792,-119.901 217.673,-123.042 227.542,-126.897 227.792,-119.901"/>
</g>
<!-- Node6 -->
<g id="node7" class="node"><title>Node6</title>
<g id="a_node7"><a xlink:href="osapi_8h.html" target="_top" xlink:title="osapi.h">
<polygon fill="white" stroke="black" points="244,-224.5 244,-243.5 292,-243.5 292,-224.5 244,-224.5"/>
<text text-anchor="middle" x="268" y="-231.5" font-family="Helvetica,sans-Serif" font-size="10.00">osapi.h</text>
</a>
</g>
</g>
<!-- Node0&#45;&gt;Node6 -->
<g id="edge6" class="edge"><title>Node0&#45;&gt;Node6</title>
<path fill="none" stroke="midnightblue" d="M396,-672.442C396,-653.936 396,-608.812 396,-571 396,-571 396,-571 396,-401 396,-332.56 326.923,-275.09 290.259,-249.408"/>
<polygon fill="midnightblue" stroke="midnightblue" points="291.933,-246.313 281.698,-243.576 287.992,-252.098 291.933,-246.313"/>
</g>
<!-- Node10 -->
<g id="node11" class="node"><title>Node10</title>
<g id="a_node11"><a xlink:href="user__interface_8h.html" target="_top" xlink:title="user_interface.h">
<polygon fill="white" stroke="black" points="179,-616.5 179,-635.5 265,-635.5 265,-616.5 179,-616.5"/>
<text text-anchor="middle" x="222" y="-623.5" font-family="Helvetica,sans-Serif" font-size="10.00">user_interface.h</text>
</a>
</g>
</g>
<!-- Node0&#45;&gt;Node10 -->
<g id="edge11" class="edge"><title>Node0&#45;&gt;Node10</title>
<path fill="none" stroke="midnightblue" d="M368.429,-672.444C338.903,-663.28 291.882,-648.688 259.117,-638.519"/>
<polygon fill="midnightblue" stroke="midnightblue" points="260.03,-635.138 249.442,-635.516 257.955,-641.823 260.03,-635.138"/>
</g>
<!-- Node2 -->
<g id="node3" class="node"><title>Node2</title>
<g id="a_node3"><a xlink:href="c__types_8h.html" target="_top" xlink:title="c_types.h">
<polygon fill="white" stroke="black" points="73.5,-56.5 73.5,-75.5 132.5,-75.5 132.5,-56.5 73.5,-56.5"/>
<text text-anchor="middle" x="103" y="-63.5" font-family="Helvetica,sans-Serif" font-size="10.00">c_types.h</text>
</a>
</g>
</g>
<!-- Node1&#45;&gt;Node2 -->
<g id="edge2" class="edge"><title>Node1&#45;&gt;Node2</title>
<path fill="none" stroke="midnightblue" d="M174.343,-112.324C161.084,-103.9 140.732,-90.9709 125.154,-81.0741"/>
<polygon fill="midnightblue" stroke="midnightblue" points="126.94,-78.0626 116.623,-75.6545 123.187,-83.9711 126.94,-78.0626"/>
</g>
<!-- Node5 -->
<g id="node6" class="node"><title>Node5</title>
<g id="a_node6"><a xlink:href="eagle__soc_8h.html" target="_top" xlink:title="eagle_soc.h">
<polygon fill="white" stroke="black" points="153.5,-56.5 153.5,-75.5 222.5,-75.5 222.5,-56.5 153.5,-56.5"/>
<text text-anchor="middle" x="188" y="-63.5" font-family="Helvetica,sans-Serif" font-size="10.00">eagle_soc.h</text>
</a>
</g>
</g>
<!-- Node1&#45;&gt;Node5 -->
<g id="edge5" class="edge"><title>Node1&#45;&gt;Node5</title>
<path fill="none" stroke="midnightblue" d="M188,-112.083C188,-105.006 188,-94.8611 188,-85.9865"/>
<polygon fill="midnightblue" stroke="midnightblue" points="191.5,-85.751 188,-75.7511 184.5,-85.7511 191.5,-85.751"/>
</g>
<!-- Node3 -->
<g id="node4" class="node"><title>Node3</title>
<polygon fill="white" stroke="#bfbfbf" points="43.5,-0.5 43.5,-19.5 92.5,-19.5 92.5,-0.5 43.5,-0.5"/>
<text text-anchor="middle" x="68" y="-7.5" font-family="Helvetica,sans-Serif" font-size="10.00">stdint.h</text>
</g>
<!-- Node2&#45;&gt;Node3 -->
<g id="edge3" class="edge"><title>Node2&#45;&gt;Node3</title>
<path fill="none" stroke="midnightblue" d="M97.2205,-56.083C92.3276,-48.5341 85.1726,-37.4948 79.1674,-28.2298"/>
<polygon fill="midnightblue" stroke="midnightblue" points="82.048,-26.239 73.672,-19.7511 76.174,-30.0463 82.048,-26.239"/>
</g>
<!-- Node4 -->
<g id="node5" class="node"><title>Node4</title>
<polygon fill="white" stroke="#bfbfbf" points="111,-0.5 111,-19.5 167,-19.5 167,-0.5 111,-0.5"/>
<text text-anchor="middle" x="139" y="-7.5" font-family="Helvetica,sans-Serif" font-size="10.00">stdbool.h</text>
</g>
<!-- Node2&#45;&gt;Node4 -->
<g id="edge4" class="edge"><title>Node2&#45;&gt;Node4</title>
<path fill="none" stroke="midnightblue" d="M108.945,-56.083C113.977,-48.5341 121.337,-37.4948 127.513,-28.2298"/>
<polygon fill="midnightblue" stroke="midnightblue" points="130.531,-30.0131 133.166,-19.7511 124.707,-26.1301 130.531,-30.0131"/>
</g>
<!-- Node7 -->
<g id="node8" class="node"><title>Node7</title>
<polygon fill="white" stroke="#bfbfbf" points="243.5,-168.5 243.5,-187.5 292.5,-187.5 292.5,-168.5 243.5,-168.5"/>
<text text-anchor="middle" x="268" y="-175.5" font-family="Helvetica,sans-Serif" font-size="10.00">string.h</text>
</g>
<!-- Node6&#45;&gt;Node7 -->
<g id="edge7" class="edge"><title>Node6&#45;&gt;Node7</title>
<path fill="none" stroke="midnightblue" d="M268,-224.083C268,-217.006 268,-206.861 268,-197.986"/>
<polygon fill="midnightblue" stroke="midnightblue" points="271.5,-197.751 268,-187.751 264.5,-197.751 271.5,-197.751"/>
</g>
<!-- Node8 -->
<g id="node9" class="node"><title>Node8</title>
<g id="a_node9"><a xlink:href="os__type_8h.html" target="_top" xlink:title="os_type.h">
<polygon fill="white" stroke="black" points="162.5,-168.5 162.5,-187.5 221.5,-187.5 221.5,-168.5 162.5,-168.5"/>
<text text-anchor="middle" x="192" y="-175.5" font-family="Helvetica,sans-Serif" font-size="10.00">os_type.h</text>
</a>
</g>
</g>
<!-- Node6&#45;&gt;Node8 -->
<g id="edge8" class="edge"><title>Node6&#45;&gt;Node8</title>
<path fill="none" stroke="midnightblue" d="M255.789,-224.324C244.224,-216.107 226.625,-203.602 212.839,-193.807"/>
<polygon fill="midnightblue" stroke="midnightblue" points="214.612,-190.773 204.433,-187.834 210.557,-196.479 214.612,-190.773"/>
</g>
<!-- Node9 -->
<g id="node10" class="node"><title>Node9</title>
<polygon fill="white" stroke="#bfbfbf" points="312.5,-168.5 312.5,-187.5 387.5,-187.5 387.5,-168.5 312.5,-168.5"/>
<text text-anchor="middle" x="350" y="-175.5" font-family="Helvetica,sans-Serif" font-size="10.00">user_config.h</text>
</g>
<!-- Node6&#45;&gt;Node9 -->
<g id="edge10" class="edge"><title>Node6&#45;&gt;Node9</title>
<path fill="none" stroke="midnightblue" d="M281.175,-224.324C293.847,-215.979 313.233,-203.212 328.206,-193.352"/>
<polygon fill="midnightblue" stroke="midnightblue" points="330.431,-196.078 336.858,-187.655 326.581,-190.231 330.431,-196.078"/>
</g>
<!-- Node8&#45;&gt;Node1 -->
<g id="edge9" class="edge"><title>Node8&#45;&gt;Node1</title>
<path fill="none" stroke="midnightblue" d="M191.339,-168.083C190.815,-161.006 190.064,-150.861 189.406,-141.986"/>
<polygon fill="midnightblue" stroke="midnightblue" points="192.877,-141.465 188.648,-131.751 185.897,-141.982 192.877,-141.465"/>
</g>
<!-- Node10&#45;&gt;Node8 -->
<g id="edge12" class="edge"><title>Node10&#45;&gt;Node8</title>
<path fill="none" stroke="midnightblue" d="M209.648,-616.368C198.793,-608.176 183.315,-594.922 174,-580 157.994,-554.36 154,-545.225 154,-515 154,-515 154,-515 154,-401 154,-324.483 176.203,-235.231 186.666,-197.421"/>
<polygon fill="midnightblue" stroke="midnightblue" points="190.036,-198.365 189.388,-187.79 183.3,-196.461 190.036,-198.365"/>
</g>
<!-- Node10&#45;&gt;Node9 -->
<g id="edge27" class="edge"><title>Node10&#45;&gt;Node9</title>
<path fill="none" stroke="midnightblue" d="M265.019,-617.894C289.48,-611.75 318.94,-600.475 338,-580 358.594,-557.876 358,-545.225 358,-515 358,-515 358,-515 358,-289 358,-256.863 354.561,-219.584 352.193,-197.719"/>
<polygon fill="midnightblue" stroke="midnightblue" points="355.644,-197.087 351.046,-187.542 348.688,-197.872 355.644,-197.087"/>
</g>
<!-- Node11 -->
<g id="node12" class="node"><title>Node11</title>
<g id="a_node12"><a xlink:href="esp-open-lwip_2include_2lwip_2ip__addr_8h.html" target="_top" xlink:title="lwip/ip_addr.h">
<polygon fill="white" stroke="black" points="183.5,-560.5 183.5,-579.5 260.5,-579.5 260.5,-560.5 183.5,-560.5"/>
<text text-anchor="middle" x="222" y="-567.5" font-family="Helvetica,sans-Serif" font-size="10.00">lwip/ip_addr.h</text>
</a>
</g>
</g>
<!-- Node10&#45;&gt;Node11 -->
<g id="edge13" class="edge"><title>Node10&#45;&gt;Node11</title>
<path fill="none" stroke="midnightblue" d="M222,-616.083C222,-609.006 222,-598.861 222,-589.986"/>
<polygon fill="midnightblue" stroke="midnightblue" points="225.5,-589.751 222,-579.751 218.5,-589.751 225.5,-589.751"/>
</g>
<!-- Node18 -->
<g id="node19" class="node"><title>Node18</title>
<g id="a_node19"><a xlink:href="esp-open-sdk_2sdk_2include_2queue_8h.html" target="_top" xlink:title="queue.h">
<polygon fill="white" stroke="black" points="278.5,-560.5 278.5,-579.5 329.5,-579.5 329.5,-560.5 278.5,-560.5"/>
<text text-anchor="middle" x="304" y="-567.5" font-family="Helvetica,sans-Serif" font-size="10.00">queue.h</text>
</a>
</g>
</g>
<!-- Node10&#45;&gt;Node18 -->
<g id="edge26" class="edge"><title>Node10&#45;&gt;Node18</title>
<path fill="none" stroke="midnightblue" d="M235.175,-616.324C247.847,-607.979 267.233,-595.212 282.206,-585.352"/>
<polygon fill="midnightblue" stroke="midnightblue" points="284.431,-588.078 290.858,-579.655 280.581,-582.231 284.431,-588.078"/>
</g>
<!-- Node19 -->
<g id="node20" class="node"><title>Node19</title>
<g id="a_node20"><a xlink:href="spi__flash_8h.html" target="_top" xlink:title="spi_flash.h">
<polygon fill="white" stroke="black" points="0,-560.5 0,-579.5 64,-579.5 64,-560.5 0,-560.5"/>
<text text-anchor="middle" x="32" y="-567.5" font-family="Helvetica,sans-Serif" font-size="10.00">spi_flash.h</text>
</a>
</g>
</g>
<!-- Node10&#45;&gt;Node19 -->
<g id="edge28" class="edge"><title>Node10&#45;&gt;Node19</title>
<path fill="none" stroke="midnightblue" d="M191.894,-616.444C159.374,-607.201 107.421,-592.436 71.6087,-582.257"/>
<polygon fill="midnightblue" stroke="midnightblue" points="72.5411,-578.884 61.9652,-579.516 70.6274,-585.617 72.5411,-578.884"/>
</g>
<!-- Node20 -->
<g id="node21" class="node"><title>Node20</title>
<g id="a_node21"><a xlink:href="gpio_8h.html" target="_top" xlink:title="gpio.h">
<polygon fill="white" stroke="black" points="82.5,-560.5 82.5,-579.5 125.5,-579.5 125.5,-560.5 82.5,-560.5"/>
<text text-anchor="middle" x="104" y="-567.5" font-family="Helvetica,sans-Serif" font-size="10.00">gpio.h</text>
</a>
</g>
</g>
<!-- Node10&#45;&gt;Node20 -->
<g id="edge29" class="edge"><title>Node10&#45;&gt;Node20</title>
<path fill="none" stroke="midnightblue" d="M203.303,-616.444C184.056,-607.636 153.848,-593.812 131.8,-583.722"/>
<polygon fill="midnightblue" stroke="midnightblue" points="133.16,-580.495 122.61,-579.516 130.247,-586.86 133.16,-580.495"/>
</g>
<!-- Node12 -->
<g id="node13" class="node"><title>Node12</title>
<g id="a_node13"><a xlink:href="opt_8h.html" target="_top" xlink:title="lwip/opt.h">
<polygon fill="white" stroke="black" points="209.5,-448.5 209.5,-467.5 268.5,-467.5 268.5,-448.5 209.5,-448.5"/>
<text text-anchor="middle" x="239" y="-455.5" font-family="Helvetica,sans-Serif" font-size="10.00">lwip/opt.h</text>
</a>
</g>
</g>
<!-- Node11&#45;&gt;Node12 -->
<g id="edge14" class="edge"><title>Node11&#45;&gt;Node12</title>
<path fill="none" stroke="midnightblue" d="M223.334,-560.368C226.077,-542.617 232.406,-501.666 236.126,-477.597"/>
<polygon fill="midnightblue" stroke="midnightblue" points="239.604,-478.009 237.672,-467.591 232.686,-476.94 239.604,-478.009"/>
</g>
<!-- Node17 -->
<g id="node18" class="node"><title>Node17</title>
<g id="a_node18"><a xlink:href="def_8h.html" target="_top" xlink:title="lwip/def.h">
<polygon fill="white" stroke="black" points="250.5,-504.5 250.5,-523.5 309.5,-523.5 309.5,-504.5 250.5,-504.5"/>
<text text-anchor="middle" x="280" y="-511.5" font-family="Helvetica,sans-Serif" font-size="10.00">lwip/def.h</text>
</a>
</g>
</g>
<!-- Node11&#45;&gt;Node17 -->
<g id="edge23" class="edge"><title>Node11&#45;&gt;Node17</title>
<path fill="none" stroke="midnightblue" d="M231.319,-560.324C239.893,-552.341 252.812,-540.313 263.188,-530.653"/>
<polygon fill="midnightblue" stroke="midnightblue" points="265.578,-533.21 270.512,-523.834 260.808,-528.086 265.578,-533.21"/>
</g>
<!-- Node13 -->
<g id="node14" class="node"><title>Node13</title>
<g id="a_node14"><a xlink:href="lwipopts_8h.html" target="_top" xlink:title="lwipopts.h">
<polygon fill="white" stroke="black" points="182.5,-336.5 182.5,-355.5 243.5,-355.5 243.5,-336.5 182.5,-336.5"/>
<text text-anchor="middle" x="213" y="-343.5" font-family="Helvetica,sans-Serif" font-size="10.00">lwipopts.h</text>
</a>
</g>
</g>
<!-- Node12&#45;&gt;Node13 -->
<g id="edge15" class="edge"><title>Node12&#45;&gt;Node13</title>
<path fill="none" stroke="midnightblue" d="M231.588,-448.411C224.724,-439.844 214.994,-425.979 211,-412 206.682,-396.887 207.652,-378.988 209.435,-365.803"/>
<polygon fill="midnightblue" stroke="midnightblue" points="212.941,-366.052 211.1,-355.618 206.033,-364.923 212.941,-366.052"/>
</g>
<!-- Node14 -->
<g id="node15" class="node"><title>Node14</title>
<g id="a_node15"><a xlink:href="esp-open-sdk_2esp-open-lwip_2include_2lwip_2debug_8h.html" target="_top" xlink:title="lwip/debug.h">
<polygon fill="white" stroke="black" points="220.5,-392.5 220.5,-411.5 291.5,-411.5 291.5,-392.5 220.5,-392.5"/>
<text text-anchor="middle" x="256" y="-399.5" font-family="Helvetica,sans-Serif" font-size="10.00">lwip/debug.h</text>
</a>
</g>
</g>
<!-- Node12&#45;&gt;Node14 -->
<g id="edge16" class="edge"><title>Node12&#45;&gt;Node14</title>
<path fill="none" stroke="midnightblue" d="M241.807,-448.083C244.085,-440.849 247.371,-430.409 250.208,-421.397"/>
<polygon fill="midnightblue" stroke="midnightblue" points="253.581,-422.341 253.245,-411.751 246.904,-420.239 253.581,-422.341"/>
</g>
<!-- Node14&#45;&gt;Node13 -->
<g id="edge17" class="edge"><title>Node14&#45;&gt;Node13</title>
<path fill="none" stroke="midnightblue" d="M248.899,-392.083C242.763,-384.377 233.73,-373.033 226.261,-363.653"/>
<polygon fill="midnightblue" stroke="midnightblue" points="228.936,-361.394 219.968,-355.751 223.46,-365.754 228.936,-361.394"/>
</g>
<!-- Node15 -->
<g id="node16" class="node"><title>Node15</title>
<g id="a_node16"><a xlink:href="arch_8h.html" target="_top" xlink:title="lwip/arch.h">
<polygon fill="white" stroke="black" points="262,-336.5 262,-355.5 326,-355.5 326,-336.5 262,-336.5"/>
<text text-anchor="middle" x="294" y="-343.5" font-family="Helvetica,sans-Serif" font-size="10.00">lwip/arch.h</text>
</a>
</g>
</g>
<!-- Node14&#45;&gt;Node15 -->
<g id="edge18" class="edge"><title>Node14&#45;&gt;Node15</title>
<path fill="none" stroke="midnightblue" d="M262.275,-392.083C267.642,-384.455 275.518,-373.264 282.079,-363.941"/>
<polygon fill="midnightblue" stroke="midnightblue" points="284.949,-365.943 287.842,-355.751 279.225,-361.915 284.949,-365.943"/>
</g>
<!-- Node16 -->
<g id="node17" class="node"><title>Node16</title>
<g id="a_node17"><a xlink:href="cc_8h.html" target="_top" xlink:title="arch/cc.h">
<polygon fill="white" stroke="black" points="216.5,-280.5 216.5,-299.5 273.5,-299.5 273.5,-280.5 216.5,-280.5"/>
<text text-anchor="middle" x="245" y="-287.5" font-family="Helvetica,sans-Serif" font-size="10.00">arch/cc.h</text>
</a>
</g>
</g>
<!-- Node15&#45;&gt;Node16 -->
<g id="edge19" class="edge"><title>Node15&#45;&gt;Node16</title>
<path fill="none" stroke="midnightblue" d="M285.909,-336.083C278.845,-328.298 268.412,-316.801 259.851,-307.367"/>
<polygon fill="midnightblue" stroke="midnightblue" points="262.253,-304.805 252.941,-299.751 257.069,-309.509 262.253,-304.805"/>
</g>
<!-- Node16&#45;&gt;Node1 -->
<g id="edge21" class="edge"><title>Node16&#45;&gt;Node1</title>
<path fill="none" stroke="midnightblue" d="M232.719,-280.457C211.618,-264.933 169.186,-229.804 153,-188 146.179,-170.382 158.817,-151.502 170.767,-138.655"/>
<polygon fill="midnightblue" stroke="midnightblue" points="173.331,-141.041 177.938,-131.501 168.387,-136.085 173.331,-141.041"/>
</g>
<!-- Node16&#45;&gt;Node2 -->
<g id="edge20" class="edge"><title>Node16&#45;&gt;Node2</title>
<path fill="none" stroke="midnightblue" d="M223.652,-280.459C207.324,-272.979 185.261,-260.69 171,-244 130.077,-196.106 112.338,-120.909 105.989,-85.9916"/>
<polygon fill="midnightblue" stroke="midnightblue" points="109.382,-85.064 104.256,-75.7918 102.481,-86.2369 109.382,-85.064"/>
</g>
<!-- Node16&#45;&gt;Node6 -->
<g id="edge22" class="edge"><title>Node16&#45;&gt;Node6</title>
<path fill="none" stroke="midnightblue" d="M248.798,-280.083C251.913,-272.77 256.423,-262.181 260.289,-253.103"/>
<polygon fill="midnightblue" stroke="midnightblue" points="263.574,-254.323 264.273,-243.751 257.134,-251.58 263.574,-254.323"/>
</g>
<!-- Node17&#45;&gt;Node12 -->
<g id="edge25" class="edge"><title>Node17&#45;&gt;Node12</title>
<path fill="none" stroke="midnightblue" d="M273.23,-504.083C267.438,-496.455 258.942,-485.264 251.862,-475.941"/>
<polygon fill="midnightblue" stroke="midnightblue" points="254.479,-473.599 245.644,-467.751 248.904,-477.832 254.479,-473.599"/>
</g>
<!-- Node17&#45;&gt;Node15 -->
<g id="edge24" class="edge"><title>Node17&#45;&gt;Node15</title>
<path fill="none" stroke="midnightblue" d="M282.857,-504.263C289.027,-484.442 302.82,-434.49 300,-392 299.425,-383.341 298.235,-373.805 297.065,-365.75"/>
<polygon fill="midnightblue" stroke="midnightblue" points="300.481,-364.939 295.491,-355.593 293.564,-366.011 300.481,-364.939"/>
</g>
</g>
</svg>
