<?xml version="1.0" encoding="UTF-8" standalone="no"?>
<!DOCTYPE svg PUBLIC "-//W3C//DTD SVG 1.1//EN"
 "http://www.w3.org/Graphics/SVG/1.1/DTD/svg11.dtd">
<!-- Generated by graphviz version 2.38.0 (20140413.2041)
 -->
<!-- Title: espconn_sendto Pages: 1 -->
<svg width="307pt" height="28pt"
 viewBox="0.00 0.00 307.00 28.00" xmlns="http://www.w3.org/2000/svg" xmlns:xlink="http://www.w3.org/1999/xlink">
<g id="graph0" class="graph" transform="scale(1 1) rotate(0) translate(4 24)">
<title>espconn_sendto</title>
<polygon fill="white" stroke="none" points="-4,4 -4,-24 303,-24 303,4 -4,4"/>
<!-- Node238 -->
<g id="node1" class="node"><title>Node238</title>
<polygon fill="#bfbfbf" stroke="black" points="0,-0.5 0,-19.5 88,-19.5 88,-0.5 0,-0.5"/>
<text text-anchor="middle" x="44" y="-7.5" font-family="Helvetica,sans-Serif" font-size="10.00">espconn_sendto</text>
</g>
<!-- Node239 -->
<g id="node2" class="node"><title>Node239</title>
<g id="a_node2"><a xlink:href="captdns_8c.html#a59c9a28ea1f015cff27b9d0c252d15f3" target="_top" xlink:title="captdnsRecv">
<polygon fill="white" stroke="black" points="124,-0.5 124,-19.5 198,-19.5 198,-0.5 124,-0.5"/>
<text text-anchor="middle" x="161" y="-7.5" font-family="Helvetica,sans-Serif" font-size="10.00">captdnsRecv</text>
</a>
</g>
</g>
<!-- Node238&#45;&gt;Node239 -->
<g id="edge1" class="edge"><title>Node238&#45;&gt;Node239</title>
<path fill="none" stroke="midnightblue" d="M98.1982,-10C106.85,-10 115.633,-10 123.756,-10"/>
<polygon fill="midnightblue" stroke="midnightblue" points="98.149,-6.5001 88.1489,-10 98.1489,-13.5001 98.149,-6.5001"/>
</g>
<!-- Node240 -->
<g id="node3" class="node"><title>Node240</title>
<g id="a_node3"><a xlink:href="captdns_8h.html#a88f42288d1b84cab204cca9e7f7aa9a3" target="_top" xlink:title="captdnsInit">
<polygon fill="white" stroke="black" points="234,-0.5 234,-19.5 299,-19.5 299,-0.5 234,-0.5"/>
<text text-anchor="middle" x="266.5" y="-7.5" font-family="Helvetica,sans-Serif" font-size="10.00">captdnsInit</text>
</a>
</g>
</g>
<!-- Node239&#45;&gt;Node240 -->
<g id="edge2" class="edge"><title>Node239&#45;&gt;Node240</title>
<path fill="none" stroke="midnightblue" d="M208.252,-3.28397C216.948,-3.17613 225.854,-3.32502 233.972,-3.73064"/>
<polygon fill="midnightblue" stroke="midnightblue" points="208.111,0.213731 198.199,-3.5285 208.281,-6.7842 208.111,0.213731"/>
</g>
<!-- Node240&#45;&gt;Node239 -->
<g id="edge3" class="edge"><title>Node240&#45;&gt;Node239</title>
<path fill="none" stroke="midnightblue" d="M223.86,-16.6342C215.363,-16.8311 206.488,-16.7769 198.199,-16.4715"/>
<polygon fill="midnightblue" stroke="midnightblue" points="224.105,-20.1277 233.972,-16.2694 223.853,-13.1323 224.105,-20.1277"/>
</g>
</g>
</svg>
