<?xml version="1.0" encoding="UTF-8" standalone="no"?>
<!DOCTYPE svg PUBLIC "-//W3C//DTD SVG 1.1//EN"
 "http://www.w3.org/Graphics/SVG/1.1/DTD/svg11.dtd">
<!-- Generated by graphviz version 2.38.0 (20140413.2041)
 -->
<!-- Title: user/crypto/sha256.h Pages: 1 -->
<svg width="430pt" height="151pt"
 viewBox="0.00 0.00 430.00 151.00" xmlns="http://www.w3.org/2000/svg" xmlns:xlink="http://www.w3.org/1999/xlink">
<g id="graph0" class="graph" transform="scale(1 1) rotate(0) translate(4 147)">
<title>user/crypto/sha256.h</title>
<polygon fill="white" stroke="none" points="-4,4 -4,-147 426,-147 426,4 -4,4"/>
<!-- Node31 -->
<g id="node1" class="node"><title>Node31</title>
<polygon fill="#bfbfbf" stroke="black" points="184,-123.5 184,-142.5 292,-142.5 292,-123.5 184,-123.5"/>
<text text-anchor="middle" x="238" y="-130.5" font-family="Helvetica,sans-Serif" font-size="10.00">user/crypto/sha256.h</text>
</g>
<!-- Node32 -->
<g id="node2" class="node"><title>Node32</title>
<g id="a_node2"><a xlink:href="crypto_8c.html" target="_top" xlink:title="user/crypto/crypto.c">
<polygon fill="white" stroke="black" points="0,-6 0,-25 104,-25 104,-6 0,-6"/>
<text text-anchor="middle" x="52" y="-13" font-family="Helvetica,sans-Serif" font-size="10.00">user/crypto/crypto.c</text>
</a>
</g>
</g>
<!-- Node31&#45;&gt;Node32 -->
<g id="edge1" class="edge"><title>Node31&#45;&gt;Node32</title>
<path fill="none" stroke="midnightblue" d="M189.218,-120.728C164.909,-113.604 135.897,-102.717 113,-87 87.9129,-69.7804 66.7748,-39.831 57.3152,-25.1353"/>
<polygon fill="midnightblue" stroke="midnightblue" points="188.395,-124.132 198.969,-123.461 190.285,-117.392 188.395,-124.132"/>
</g>
<!-- Node33 -->
<g id="node3" class="node"><title>Node33</title>
<g id="a_node3"><a xlink:href="hmac-sha256_8h.html" target="_top" xlink:title="user/crypto/hmac&#45;sha256.h">
<polygon fill="white" stroke="black" points="122.5,-67.5 122.5,-86.5 257.5,-86.5 257.5,-67.5 122.5,-67.5"/>
<text text-anchor="middle" x="190" y="-74.5" font-family="Helvetica,sans-Serif" font-size="10.00">user/crypto/hmac&#45;sha256.h</text>
</a>
</g>
</g>
<!-- Node31&#45;&gt;Node33 -->
<g id="edge2" class="edge"><title>Node31&#45;&gt;Node33</title>
<path fill="none" stroke="midnightblue" d="M223.272,-115.431C214.86,-105.967 204.651,-94.4827 197.779,-86.7511"/>
<polygon fill="midnightblue" stroke="midnightblue" points="220.814,-117.934 230.074,-123.083 226.046,-113.284 220.814,-117.934"/>
</g>
<!-- Node35 -->
<g id="node5" class="node"><title>Node35</title>
<g id="a_node5"><a xlink:href="esp-open-sdk_2esp-open-lwip_2user_2user__main_8c.html" target="_top" xlink:title="esp&#45;open&#45;lwip/user\l/user_main.c">
<polygon fill="white" stroke="black" points="276,-0.5 276,-30.5 374,-30.5 374,-0.5 276,-0.5"/>
<text text-anchor="start" x="284" y="-18.5" font-family="Helvetica,sans-Serif" font-size="10.00">esp&#45;open&#45;lwip/user</text>
<text text-anchor="middle" x="325" y="-7.5" font-family="Helvetica,sans-Serif" font-size="10.00">/user_main.c</text>
</a>
</g>
</g>
<!-- Node31&#45;&gt;Node35 -->
<g id="edge7" class="edge"><title>Node31&#45;&gt;Node35</title>
<path fill="none" stroke="midnightblue" d="M250.624,-115.241C267.832,-92.3948 298.348,-51.8835 314.42,-30.5453"/>
<polygon fill="midnightblue" stroke="midnightblue" points="247.76,-113.225 244.539,-123.319 253.351,-117.437 247.76,-113.225"/>
</g>
<!-- Node36 -->
<g id="node6" class="node"><title>Node36</title>
<g id="a_node6"><a xlink:href="sha256_8c.html" target="_top" xlink:title="user/crypto/sha256.c">
<polygon fill="white" stroke="black" points="314,-67.5 314,-86.5 422,-86.5 422,-67.5 314,-67.5"/>
<text text-anchor="middle" x="368" y="-74.5" font-family="Helvetica,sans-Serif" font-size="10.00">user/crypto/sha256.c</text>
</a>
</g>
</g>
<!-- Node31&#45;&gt;Node36 -->
<g id="edge6" class="edge"><title>Node31&#45;&gt;Node36</title>
<path fill="none" stroke="midnightblue" d="M268.085,-119.503C292.457,-109.38 326.14,-95.388 347.497,-86.5164"/>
<polygon fill="midnightblue" stroke="midnightblue" points="266.491,-116.375 258.599,-123.444 269.177,-122.84 266.491,-116.375"/>
</g>
<!-- Node33&#45;&gt;Node32 -->
<g id="edge3" class="edge"><title>Node33&#45;&gt;Node32</title>
<path fill="none" stroke="midnightblue" d="M160.961,-63.4795C134.159,-51.9238 95.0834,-35.0758 71.7354,-25.0091"/>
<polygon fill="midnightblue" stroke="midnightblue" points="159.659,-66.7298 170.228,-67.4751 162.431,-60.3018 159.659,-66.7298"/>
</g>
<!-- Node34 -->
<g id="node4" class="node"><title>Node34</title>
<g id="a_node4"><a xlink:href="hmac-sha256_8c.html" target="_top" xlink:title="user/crypto/hmac&#45;sha256.c">
<polygon fill="white" stroke="black" points="122.5,-6 122.5,-25 257.5,-25 257.5,-6 122.5,-6"/>
<text text-anchor="middle" x="190" y="-13" font-family="Helvetica,sans-Serif" font-size="10.00">user/crypto/hmac&#45;sha256.c</text>
</a>
</g>
</g>
<!-- Node33&#45;&gt;Node34 -->
<g id="edge4" class="edge"><title>Node33&#45;&gt;Node34</title>
<path fill="none" stroke="midnightblue" d="M190,-57.3165C190,-46.4962 190,-33.398 190,-25.0091"/>
<polygon fill="midnightblue" stroke="midnightblue" points="186.5,-57.4751 190,-67.4751 193.5,-57.4751 186.5,-57.4751"/>
</g>
<!-- Node33&#45;&gt;Node35 -->
<g id="edge5" class="edge"><title>Node33&#45;&gt;Node35</title>
<path fill="none" stroke="midnightblue" d="M218.746,-63.3306C240.588,-53.7037 270.619,-40.468 293.183,-30.523"/>
<polygon fill="midnightblue" stroke="midnightblue" points="217.081,-60.2392 209.342,-67.4751 219.904,-66.6447 217.081,-60.2392"/>
</g>
</g>
</svg>
