<?xml version="1.0" encoding="UTF-8" standalone="no"?>
<!DOCTYPE svg PUBLIC "-//W3C//DTD SVG 1.1//EN"
 "http://www.w3.org/Graphics/SVG/1.1/DTD/svg11.dtd">
<!-- Generated by graphviz version 2.38.0 (20140413.2041)
 -->
<!-- Title: esp&#45;open&#45;lwip/include/netif/slipif.h Pages: 1 -->
<svg width="445pt" height="711pt"
 viewBox="0.00 0.00 444.50 711.00" xmlns="http://www.w3.org/2000/svg" xmlns:xlink="http://www.w3.org/1999/xlink">
<g id="graph0" class="graph" transform="scale(1 1) rotate(0) translate(4 707)">
<title>esp&#45;open&#45;lwip/include/netif/slipif.h</title>
<polygon fill="white" stroke="none" points="-4,4 -4,-707 440.5,-707 440.5,4 -4,4"/>
<!-- Node0 -->
<g id="node1" class="node"><title>Node0</title>
<polygon fill="#bfbfbf" stroke="black" points="0,-672.5 0,-702.5 110,-702.5 110,-672.5 0,-672.5"/>
<text text-anchor="start" x="8" y="-690.5" font-family="Helvetica,sans-Serif" font-size="10.00">esp&#45;open&#45;lwip/include</text>
<text text-anchor="middle" x="55" y="-679.5" font-family="Helvetica,sans-Serif" font-size="10.00">/netif/slipif.h</text>
</g>
<!-- Node1 -->
<g id="node2" class="node"><title>Node1</title>
<g id="a_node2"><a xlink:href="opt_8h.html" target="_top" xlink:title="lwip/opt.h">
<polygon fill="white" stroke="black" points="63.5,-448.5 63.5,-467.5 122.5,-467.5 122.5,-448.5 63.5,-448.5"/>
<text text-anchor="middle" x="93" y="-455.5" font-family="Helvetica,sans-Serif" font-size="10.00">lwip/opt.h</text>
</a>
</g>
</g>
<!-- Node0&#45;&gt;Node1 -->
<g id="edge1" class="edge"><title>Node0&#45;&gt;Node1</title>
<path fill="none" stroke="midnightblue" d="M48.9119,-672.13C36.2226,-639.795 10.549,-559.784 41,-504 47.7035,-491.72 59.1662,-481.253 69.6263,-473.512"/>
<polygon fill="midnightblue" stroke="midnightblue" points="71.8266,-476.246 78.0504,-467.671 67.8382,-470.493 71.8266,-476.246"/>
</g>
<!-- Node15 -->
<g id="node16" class="node"><title>Node15</title>
<g id="a_node16"><a xlink:href="netif_8h.html" target="_top" xlink:title="lwip/netif.h">
<polygon fill="white" stroke="black" points="92,-616.5 92,-635.5 156,-635.5 156,-616.5 92,-616.5"/>
<text text-anchor="middle" x="124" y="-623.5" font-family="Helvetica,sans-Serif" font-size="10.00">lwip/netif.h</text>
</a>
</g>
</g>
<!-- Node0&#45;&gt;Node15 -->
<g id="edge18" class="edge"><title>Node0&#45;&gt;Node15</title>
<path fill="none" stroke="midnightblue" d="M71.352,-672.399C81.8954,-663.308 95.5999,-651.49 106.384,-642.191"/>
<polygon fill="midnightblue" stroke="midnightblue" points="108.672,-644.839 113.96,-635.658 104.101,-639.538 108.672,-644.839"/>
</g>
<!-- Node2 -->
<g id="node3" class="node"><title>Node2</title>
<g id="a_node3"><a xlink:href="lwipopts_8h.html" target="_top" xlink:title="lwipopts.h">
<polygon fill="white" stroke="black" points="54.5,-336.5 54.5,-355.5 115.5,-355.5 115.5,-336.5 54.5,-336.5"/>
<text text-anchor="middle" x="85" y="-343.5" font-family="Helvetica,sans-Serif" font-size="10.00">lwipopts.h</text>
</a>
</g>
</g>
<!-- Node1&#45;&gt;Node2 -->
<g id="edge2" class="edge"><title>Node1&#45;&gt;Node2</title>
<path fill="none" stroke="midnightblue" d="M89.656,-448.197C86.4458,-439.24 81.8236,-424.883 80,-412 77.8162,-396.572 79.4272,-378.939 81.3831,-365.935"/>
<polygon fill="midnightblue" stroke="midnightblue" points="84.8685,-366.317 83.104,-355.87 77.9686,-365.137 84.8685,-366.317"/>
</g>
<!-- Node3 -->
<g id="node4" class="node"><title>Node3</title>
<g id="a_node4"><a xlink:href="esp-open-sdk_2esp-open-lwip_2include_2lwip_2debug_8h.html" target="_top" xlink:title="lwip/debug.h">
<polygon fill="white" stroke="black" points="89.5,-392.5 89.5,-411.5 160.5,-411.5 160.5,-392.5 89.5,-392.5"/>
<text text-anchor="middle" x="125" y="-399.5" font-family="Helvetica,sans-Serif" font-size="10.00">lwip/debug.h</text>
</a>
</g>
</g>
<!-- Node1&#45;&gt;Node3 -->
<g id="edge3" class="edge"><title>Node1&#45;&gt;Node3</title>
<path fill="none" stroke="midnightblue" d="M98.2841,-448.083C102.711,-440.613 109.163,-429.724 114.618,-420.52"/>
<polygon fill="midnightblue" stroke="midnightblue" points="117.727,-422.138 119.814,-411.751 111.705,-418.57 117.727,-422.138"/>
</g>
<!-- Node3&#45;&gt;Node2 -->
<g id="edge4" class="edge"><title>Node3&#45;&gt;Node2</title>
<path fill="none" stroke="midnightblue" d="M118.395,-392.083C112.745,-384.455 104.455,-373.264 97.5488,-363.941"/>
<polygon fill="midnightblue" stroke="midnightblue" points="100.247,-361.703 91.4823,-355.751 94.6221,-365.87 100.247,-361.703"/>
</g>
<!-- Node4 -->
<g id="node5" class="node"><title>Node4</title>
<g id="a_node5"><a xlink:href="arch_8h.html" target="_top" xlink:title="lwip/arch.h">
<polygon fill="white" stroke="black" points="157,-336.5 157,-355.5 221,-355.5 221,-336.5 157,-336.5"/>
<text text-anchor="middle" x="189" y="-343.5" font-family="Helvetica,sans-Serif" font-size="10.00">lwip/arch.h</text>
</a>
</g>
</g>
<!-- Node3&#45;&gt;Node4 -->
<g id="edge5" class="edge"><title>Node3&#45;&gt;Node4</title>
<path fill="none" stroke="midnightblue" d="M135.283,-392.324C144.836,-384.263 159.28,-372.077 170.784,-362.369"/>
<polygon fill="midnightblue" stroke="midnightblue" points="173.144,-364.958 178.53,-355.834 168.63,-359.608 173.144,-364.958"/>
</g>
<!-- Node5 -->
<g id="node6" class="node"><title>Node5</title>
<g id="a_node6"><a xlink:href="cc_8h.html" target="_top" xlink:title="arch/cc.h">
<polygon fill="white" stroke="black" points="160.5,-280.5 160.5,-299.5 217.5,-299.5 217.5,-280.5 160.5,-280.5"/>
<text text-anchor="middle" x="189" y="-287.5" font-family="Helvetica,sans-Serif" font-size="10.00">arch/cc.h</text>
</a>
</g>
</g>
<!-- Node4&#45;&gt;Node5 -->
<g id="edge6" class="edge"><title>Node4&#45;&gt;Node5</title>
<path fill="none" stroke="midnightblue" d="M189,-336.083C189,-329.006 189,-318.861 189,-309.986"/>
<polygon fill="midnightblue" stroke="midnightblue" points="192.5,-309.751 189,-299.751 185.5,-309.751 192.5,-309.751"/>
</g>
<!-- Node6 -->
<g id="node7" class="node"><title>Node6</title>
<g id="a_node7"><a xlink:href="c__types_8h.html" target="_top" xlink:title="c_types.h">
<polygon fill="white" stroke="black" points="121.5,-56.5 121.5,-75.5 180.5,-75.5 180.5,-56.5 121.5,-56.5"/>
<text text-anchor="middle" x="151" y="-63.5" font-family="Helvetica,sans-Serif" font-size="10.00">c_types.h</text>
</a>
</g>
</g>
<!-- Node5&#45;&gt;Node6 -->
<g id="edge7" class="edge"><title>Node5&#45;&gt;Node6</title>
<path fill="none" stroke="midnightblue" d="M187.51,-280.297C181.919,-247.633 162.103,-131.866 154.245,-85.9573"/>
<polygon fill="midnightblue" stroke="midnightblue" points="157.658,-85.1499 152.521,-75.8837 150.758,-86.3309 157.658,-85.1499"/>
</g>
<!-- Node9 -->
<g id="node10" class="node"><title>Node9</title>
<g id="a_node10"><a xlink:href="ets__sys_8h.html" target="_top" xlink:title="ets_sys.h">
<polygon fill="white" stroke="black" points="191.5,-112.5 191.5,-131.5 250.5,-131.5 250.5,-112.5 191.5,-112.5"/>
<text text-anchor="middle" x="221" y="-119.5" font-family="Helvetica,sans-Serif" font-size="10.00">ets_sys.h</text>
</a>
</g>
</g>
<!-- Node5&#45;&gt;Node9 -->
<g id="edge10" class="edge"><title>Node5&#45;&gt;Node9</title>
<path fill="none" stroke="midnightblue" d="M189.971,-280.422C192.306,-260.522 198.735,-209.725 208,-168 209.985,-159.058 212.741,-149.273 215.204,-141.118"/>
<polygon fill="midnightblue" stroke="midnightblue" points="218.553,-142.133 218.184,-131.544 211.87,-140.052 218.553,-142.133"/>
</g>
<!-- Node11 -->
<g id="node12" class="node"><title>Node11</title>
<g id="a_node12"><a xlink:href="osapi_8h.html" target="_top" xlink:title="osapi.h">
<polygon fill="white" stroke="black" points="259,-224.5 259,-243.5 307,-243.5 307,-224.5 259,-224.5"/>
<text text-anchor="middle" x="283" y="-231.5" font-family="Helvetica,sans-Serif" font-size="10.00">osapi.h</text>
</a>
</g>
</g>
<!-- Node5&#45;&gt;Node11 -->
<g id="edge13" class="edge"><title>Node5&#45;&gt;Node11</title>
<path fill="none" stroke="midnightblue" d="M204.103,-280.324C218.903,-271.822 241.694,-258.729 258.982,-248.797"/>
<polygon fill="midnightblue" stroke="midnightblue" points="261.007,-251.671 267.935,-243.655 257.52,-245.601 261.007,-251.671"/>
</g>
<!-- Node7 -->
<g id="node8" class="node"><title>Node7</title>
<polygon fill="white" stroke="#bfbfbf" points="91.5,-0.5 91.5,-19.5 140.5,-19.5 140.5,-0.5 91.5,-0.5"/>
<text text-anchor="middle" x="116" y="-7.5" font-family="Helvetica,sans-Serif" font-size="10.00">stdint.h</text>
</g>
<!-- Node6&#45;&gt;Node7 -->
<g id="edge8" class="edge"><title>Node6&#45;&gt;Node7</title>
<path fill="none" stroke="midnightblue" d="M145.22,-56.083C140.328,-48.5341 133.173,-37.4948 127.167,-28.2298"/>
<polygon fill="midnightblue" stroke="midnightblue" points="130.048,-26.239 121.672,-19.7511 124.174,-30.0463 130.048,-26.239"/>
</g>
<!-- Node8 -->
<g id="node9" class="node"><title>Node8</title>
<polygon fill="white" stroke="#bfbfbf" points="159,-0.5 159,-19.5 215,-19.5 215,-0.5 159,-0.5"/>
<text text-anchor="middle" x="187" y="-7.5" font-family="Helvetica,sans-Serif" font-size="10.00">stdbool.h</text>
</g>
<!-- Node6&#45;&gt;Node8 -->
<g id="edge9" class="edge"><title>Node6&#45;&gt;Node8</title>
<path fill="none" stroke="midnightblue" d="M156.945,-56.083C161.977,-48.5341 169.337,-37.4948 175.513,-28.2298"/>
<polygon fill="midnightblue" stroke="midnightblue" points="178.531,-30.0131 181.166,-19.7511 172.707,-26.1301 178.531,-30.0131"/>
</g>
<!-- Node9&#45;&gt;Node6 -->
<g id="edge11" class="edge"><title>Node9&#45;&gt;Node6</title>
<path fill="none" stroke="midnightblue" d="M209.753,-112.324C199.203,-104.185 183.199,-91.8395 170.558,-82.0874"/>
<polygon fill="midnightblue" stroke="midnightblue" points="172.507,-79.1707 162.451,-75.8339 168.231,-84.7132 172.507,-79.1707"/>
</g>
<!-- Node10 -->
<g id="node11" class="node"><title>Node10</title>
<g id="a_node11"><a xlink:href="eagle__soc_8h.html" target="_top" xlink:title="eagle_soc.h">
<polygon fill="white" stroke="black" points="198.5,-56.5 198.5,-75.5 267.5,-75.5 267.5,-56.5 198.5,-56.5"/>
<text text-anchor="middle" x="233" y="-63.5" font-family="Helvetica,sans-Serif" font-size="10.00">eagle_soc.h</text>
</a>
</g>
</g>
<!-- Node9&#45;&gt;Node10 -->
<g id="edge12" class="edge"><title>Node9&#45;&gt;Node10</title>
<path fill="none" stroke="midnightblue" d="M222.982,-112.083C224.572,-104.927 226.859,-94.6353 228.846,-85.6911"/>
<polygon fill="midnightblue" stroke="midnightblue" points="232.303,-86.2722 231.055,-75.7511 225.469,-84.7537 232.303,-86.2722"/>
</g>
<!-- Node12 -->
<g id="node13" class="node"><title>Node12</title>
<polygon fill="white" stroke="#bfbfbf" points="294.5,-168.5 294.5,-187.5 343.5,-187.5 343.5,-168.5 294.5,-168.5"/>
<text text-anchor="middle" x="319" y="-175.5" font-family="Helvetica,sans-Serif" font-size="10.00">string.h</text>
</g>
<!-- Node11&#45;&gt;Node12 -->
<g id="edge14" class="edge"><title>Node11&#45;&gt;Node12</title>
<path fill="none" stroke="midnightblue" d="M288.945,-224.083C293.977,-216.534 301.337,-205.495 307.513,-196.23"/>
<polygon fill="midnightblue" stroke="midnightblue" points="310.531,-198.013 313.166,-187.751 304.707,-194.13 310.531,-198.013"/>
</g>
<!-- Node13 -->
<g id="node14" class="node"><title>Node13</title>
<g id="a_node14"><a xlink:href="os__type_8h.html" target="_top" xlink:title="os_type.h">
<polygon fill="white" stroke="black" points="217.5,-168.5 217.5,-187.5 276.5,-187.5 276.5,-168.5 217.5,-168.5"/>
<text text-anchor="middle" x="247" y="-175.5" font-family="Helvetica,sans-Serif" font-size="10.00">os_type.h</text>
</a>
</g>
</g>
<!-- Node11&#45;&gt;Node13 -->
<g id="edge15" class="edge"><title>Node11&#45;&gt;Node13</title>
<path fill="none" stroke="midnightblue" d="M277.055,-224.083C272.023,-216.534 264.663,-205.495 258.487,-196.23"/>
<polygon fill="midnightblue" stroke="midnightblue" points="261.293,-194.13 252.834,-187.751 255.469,-198.013 261.293,-194.13"/>
</g>
<!-- Node14 -->
<g id="node15" class="node"><title>Node14</title>
<polygon fill="white" stroke="#bfbfbf" points="361.5,-168.5 361.5,-187.5 436.5,-187.5 436.5,-168.5 361.5,-168.5"/>
<text text-anchor="middle" x="399" y="-175.5" font-family="Helvetica,sans-Serif" font-size="10.00">user_config.h</text>
</g>
<!-- Node11&#45;&gt;Node14 -->
<g id="edge17" class="edge"><title>Node11&#45;&gt;Node14</title>
<path fill="none" stroke="midnightblue" d="M301.381,-224.444C320.216,-215.675 349.731,-201.935 371.379,-191.858"/>
<polygon fill="midnightblue" stroke="midnightblue" points="373.117,-194.91 380.705,-187.516 370.162,-188.564 373.117,-194.91"/>
</g>
<!-- Node13&#45;&gt;Node9 -->
<g id="edge16" class="edge"><title>Node13&#45;&gt;Node9</title>
<path fill="none" stroke="midnightblue" d="M242.707,-168.083C239.148,-160.691 233.978,-149.953 229.576,-140.811"/>
<polygon fill="midnightblue" stroke="midnightblue" points="232.705,-139.243 225.213,-131.751 226.398,-142.279 232.705,-139.243"/>
</g>
<!-- Node15&#45;&gt;Node1 -->
<g id="edge19" class="edge"><title>Node15&#45;&gt;Node1</title>
<path fill="none" stroke="midnightblue" d="M92.9775,-616.436C74.9676,-609.694 53.7687,-598.302 43,-580 22.1714,-544.602 55.6567,-498.891 77.1591,-475.061"/>
<polygon fill="midnightblue" stroke="midnightblue" points="79.8701,-477.287 84.1563,-467.598 74.7634,-472.499 79.8701,-477.287"/>
</g>
<!-- Node16 -->
<g id="node17" class="node"><title>Node16</title>
<g id="a_node17"><a xlink:href="err_8h.html" target="_top" xlink:title="lwip/err.h">
<polygon fill="white" stroke="black" points="220,-504.5 220,-523.5 276,-523.5 276,-504.5 220,-504.5"/>
<text text-anchor="middle" x="248" y="-511.5" font-family="Helvetica,sans-Serif" font-size="10.00">lwip/err.h</text>
</a>
</g>
</g>
<!-- Node15&#45;&gt;Node16 -->
<g id="edge20" class="edge"><title>Node15&#45;&gt;Node16</title>
<path fill="none" stroke="midnightblue" d="M156.069,-624.363C188.049,-621.806 235.671,-612.368 259,-580 268.801,-566.402 263.788,-547.089 257.703,-533.051"/>
<polygon fill="midnightblue" stroke="midnightblue" points="260.788,-531.392 253.279,-523.918 254.488,-534.443 260.788,-531.392"/>
</g>
<!-- Node17 -->
<g id="node18" class="node"><title>Node17</title>
<g id="a_node18"><a xlink:href="esp-open-lwip_2include_2lwip_2ip__addr_8h.html" target="_top" xlink:title="lwip/ip_addr.h">
<polygon fill="white" stroke="black" points="52.5,-560.5 52.5,-579.5 129.5,-579.5 129.5,-560.5 52.5,-560.5"/>
<text text-anchor="middle" x="91" y="-567.5" font-family="Helvetica,sans-Serif" font-size="10.00">lwip/ip_addr.h</text>
</a>
</g>
</g>
<!-- Node15&#45;&gt;Node17 -->
<g id="edge23" class="edge"><title>Node15&#45;&gt;Node17</title>
<path fill="none" stroke="midnightblue" d="M118.551,-616.083C113.986,-608.613 107.332,-597.724 101.707,-588.52"/>
<polygon fill="midnightblue" stroke="midnightblue" points="104.549,-586.459 96.3479,-579.751 98.5759,-590.109 104.549,-586.459"/>
</g>
<!-- Node18 -->
<g id="node19" class="node"><title>Node18</title>
<g id="a_node19"><a xlink:href="def_8h.html" target="_top" xlink:title="lwip/def.h">
<polygon fill="white" stroke="black" points="104.5,-504.5 104.5,-523.5 163.5,-523.5 163.5,-504.5 104.5,-504.5"/>
<text text-anchor="middle" x="134" y="-511.5" font-family="Helvetica,sans-Serif" font-size="10.00">lwip/def.h</text>
</a>
</g>
</g>
<!-- Node15&#45;&gt;Node18 -->
<g id="edge28" class="edge"><title>Node15&#45;&gt;Node18</title>
<path fill="none" stroke="midnightblue" d="M127.6,-616.222C131.056,-607.285 136.033,-592.942 138,-580 140.339,-564.611 139.005,-546.976 137.273,-533.96"/>
<polygon fill="midnightblue" stroke="midnightblue" points="140.703,-533.239 135.73,-523.884 133.784,-534.299 140.703,-533.239"/>
</g>
<!-- Node19 -->
<g id="node20" class="node"><title>Node19</title>
<g id="a_node20"><a xlink:href="pbuf_8h.html" target="_top" xlink:title="lwip/pbuf.h">
<polygon fill="white" stroke="black" points="186,-560.5 186,-579.5 250,-579.5 250,-560.5 186,-560.5"/>
<text text-anchor="middle" x="218" y="-567.5" font-family="Helvetica,sans-Serif" font-size="10.00">lwip/pbuf.h</text>
</a>
</g>
</g>
<!-- Node15&#45;&gt;Node19 -->
<g id="edge29" class="edge"><title>Node15&#45;&gt;Node19</title>
<path fill="none" stroke="midnightblue" d="M139.103,-616.324C153.903,-607.822 176.694,-594.729 193.982,-584.797"/>
<polygon fill="midnightblue" stroke="midnightblue" points="196.007,-587.671 202.935,-579.655 192.52,-581.601 196.007,-587.671"/>
</g>
<!-- Node16&#45;&gt;Node1 -->
<g id="edge21" class="edge"><title>Node16&#45;&gt;Node1</title>
<path fill="none" stroke="midnightblue" d="M223.44,-504.444C197.477,-495.399 156.332,-481.064 127.203,-470.916"/>
<polygon fill="midnightblue" stroke="midnightblue" points="128.04,-467.501 117.445,-467.516 125.737,-474.112 128.04,-467.501"/>
</g>
<!-- Node16&#45;&gt;Node4 -->
<g id="edge22" class="edge"><title>Node16&#45;&gt;Node4</title>
<path fill="none" stroke="midnightblue" d="M244.828,-504.075C235.501,-477.832 208.031,-400.545 195.439,-365.117"/>
<polygon fill="midnightblue" stroke="midnightblue" points="198.692,-363.818 192.045,-355.568 192.096,-366.163 198.692,-363.818"/>
</g>
<!-- Node17&#45;&gt;Node1 -->
<g id="edge24" class="edge"><title>Node17&#45;&gt;Node1</title>
<path fill="none" stroke="midnightblue" d="M91.1569,-560.368C91.4797,-542.617 92.2242,-501.666 92.6619,-477.597"/>
<polygon fill="midnightblue" stroke="midnightblue" points="96.1613,-477.653 92.8438,-467.591 89.1625,-477.526 96.1613,-477.653"/>
</g>
<!-- Node17&#45;&gt;Node18 -->
<g id="edge25" class="edge"><title>Node17&#45;&gt;Node18</title>
<path fill="none" stroke="midnightblue" d="M98.1006,-560.083C104.237,-552.377 113.27,-541.033 120.739,-531.653"/>
<polygon fill="midnightblue" stroke="midnightblue" points="123.54,-533.754 127.032,-523.751 118.064,-529.394 123.54,-533.754"/>
</g>
<!-- Node18&#45;&gt;Node1 -->
<g id="edge27" class="edge"><title>Node18&#45;&gt;Node1</title>
<path fill="none" stroke="midnightblue" d="M127.23,-504.083C121.438,-496.455 112.942,-485.264 105.862,-475.941"/>
<polygon fill="midnightblue" stroke="midnightblue" points="108.479,-473.599 99.6443,-467.751 102.904,-477.832 108.479,-473.599"/>
</g>
<!-- Node18&#45;&gt;Node4 -->
<g id="edge26" class="edge"><title>Node18&#45;&gt;Node4</title>
<path fill="none" stroke="midnightblue" d="M137.099,-504.388C143.332,-486.993 157.753,-446.395 169,-412 174.103,-396.394 179.564,-378.563 183.488,-365.529"/>
<polygon fill="midnightblue" stroke="midnightblue" points="186.866,-366.446 186.381,-355.862 180.16,-364.439 186.866,-366.446"/>
</g>
<!-- Node19&#45;&gt;Node1 -->
<g id="edge30" class="edge"><title>Node19&#45;&gt;Node1</title>
<path fill="none" stroke="midnightblue" d="M213.364,-560.082C206.027,-546.622 190.642,-520.898 172,-504 157.473,-490.832 138.443,-479.848 122.701,-472.029"/>
<polygon fill="midnightblue" stroke="midnightblue" points="123.925,-468.735 113.394,-467.578 120.905,-475.05 123.925,-468.735"/>
</g>
<!-- Node19&#45;&gt;Node16 -->
<g id="edge31" class="edge"><title>Node19&#45;&gt;Node16</title>
<path fill="none" stroke="midnightblue" d="M222.954,-560.083C227.104,-552.613 233.153,-541.724 238.267,-532.52"/>
<polygon fill="midnightblue" stroke="midnightblue" points="241.341,-534.192 243.138,-523.751 235.222,-530.793 241.341,-534.192"/>
</g>
</g>
</svg>
