<?xml version="1.0" encoding="UTF-8" standalone="no"?>
<!DOCTYPE svg PUBLIC "-//W3C//DTD SVG 1.1//EN"
 "http://www.w3.org/Graphics/SVG/1.1/DTD/svg11.dtd">
<!-- Generated by graphviz version 2.38.0 (20140413.2041)
 -->
<!-- Title: esp&#45;open&#45;lwip/lwip/netif/slipif.c Pages: 1 -->
<svg width="476pt" height="767pt"
 viewBox="0.00 0.00 476.00 767.00" xmlns="http://www.w3.org/2000/svg" xmlns:xlink="http://www.w3.org/1999/xlink">
<g id="graph0" class="graph" transform="scale(1 1) rotate(0) translate(4 763)">
<title>esp&#45;open&#45;lwip/lwip/netif/slipif.c</title>
<polygon fill="white" stroke="none" points="-4,4 -4,-763 472,-763 472,4 -4,4"/>
<!-- Node0 -->
<g id="node1" class="node"><title>Node0</title>
<polygon fill="#bfbfbf" stroke="black" points="0,-728.5 0,-758.5 97,-758.5 97,-728.5 0,-728.5"/>
<text text-anchor="start" x="8" y="-746.5" font-family="Helvetica,sans-Serif" font-size="10.00">esp&#45;open&#45;lwip/lwip</text>
<text text-anchor="middle" x="48.5" y="-735.5" font-family="Helvetica,sans-Serif" font-size="10.00">/netif/slipif.c</text>
</g>
<!-- Node1 -->
<g id="node2" class="node"><title>Node1</title>
<g id="a_node2"><a xlink:href="slipif_8h.html" target="_top" xlink:title="netif/slipif.h">
<polygon fill="white" stroke="black" points="53,-672.5 53,-691.5 120,-691.5 120,-672.5 53,-672.5"/>
<text text-anchor="middle" x="86.5" y="-679.5" font-family="Helvetica,sans-Serif" font-size="10.00">netif/slipif.h</text>
</a>
</g>
</g>
<!-- Node0&#45;&gt;Node1 -->
<g id="edge1" class="edge"><title>Node0&#45;&gt;Node1</title>
<path fill="none" stroke="midnightblue" d="M57.5055,-728.399C62.9135,-719.932 69.8317,-709.099 75.5539,-700.139"/>
<polygon fill="midnightblue" stroke="midnightblue" points="78.5379,-701.97 80.9707,-691.658 72.6384,-698.202 78.5379,-701.97"/>
</g>
<!-- Node2 -->
<g id="node3" class="node"><title>Node2</title>
<g id="a_node3"><a xlink:href="opt_8h.html" target="_top" xlink:title="lwip/opt.h">
<polygon fill="white" stroke="black" points="95,-448.5 95,-467.5 154,-467.5 154,-448.5 95,-448.5"/>
<text text-anchor="middle" x="124.5" y="-455.5" font-family="Helvetica,sans-Serif" font-size="10.00">lwip/opt.h</text>
</a>
</g>
</g>
<!-- Node0&#45;&gt;Node2 -->
<g id="edge33" class="edge"><title>Node0&#45;&gt;Node2</title>
<path fill="none" stroke="midnightblue" d="M40.6264,-728.407C29.4959,-707.125 10.5,-665.208 10.5,-627 10.5,-627 10.5,-627 10.5,-569 10.5,-522.115 61.0515,-488.894 94.8292,-471.93"/>
<polygon fill="midnightblue" stroke="midnightblue" points="96.3676,-475.074 103.855,-467.579 93.3277,-468.769 96.3676,-475.074"/>
</g>
<!-- Node1&#45;&gt;Node2 -->
<g id="edge2" class="edge"><title>Node1&#45;&gt;Node2</title>
<path fill="none" stroke="midnightblue" d="M87.7479,-672.477C90.6646,-652.691 98.2331,-602.119 105.5,-560 110.468,-531.205 116.855,-497.918 120.813,-477.67"/>
<polygon fill="midnightblue" stroke="midnightblue" points="124.292,-478.118 122.785,-467.631 117.423,-476.768 124.292,-478.118"/>
</g>
<!-- Node16 -->
<g id="node17" class="node"><title>Node16</title>
<g id="a_node17"><a xlink:href="netif_8h.html" target="_top" xlink:title="lwip/netif.h">
<polygon fill="white" stroke="black" points="144.5,-616.5 144.5,-635.5 208.5,-635.5 208.5,-616.5 144.5,-616.5"/>
<text text-anchor="middle" x="176.5" y="-623.5" font-family="Helvetica,sans-Serif" font-size="10.00">lwip/netif.h</text>
</a>
</g>
</g>
<!-- Node1&#45;&gt;Node16 -->
<g id="edge19" class="edge"><title>Node1&#45;&gt;Node16</title>
<path fill="none" stroke="midnightblue" d="M100.96,-672.324C115,-663.9 136.548,-650.971 153.043,-641.074"/>
<polygon fill="midnightblue" stroke="midnightblue" points="155.302,-643.801 162.076,-635.655 151.7,-637.798 155.302,-643.801"/>
</g>
<!-- Node3 -->
<g id="node4" class="node"><title>Node3</title>
<g id="a_node4"><a xlink:href="lwipopts_8h.html" target="_top" xlink:title="lwipopts.h">
<polygon fill="white" stroke="black" points="86,-336.5 86,-355.5 147,-355.5 147,-336.5 86,-336.5"/>
<text text-anchor="middle" x="116.5" y="-343.5" font-family="Helvetica,sans-Serif" font-size="10.00">lwipopts.h</text>
</a>
</g>
</g>
<!-- Node2&#45;&gt;Node3 -->
<g id="edge3" class="edge"><title>Node2&#45;&gt;Node3</title>
<path fill="none" stroke="midnightblue" d="M121.156,-448.197C117.946,-439.24 113.324,-424.883 111.5,-412 109.316,-396.572 110.927,-378.939 112.883,-365.935"/>
<polygon fill="midnightblue" stroke="midnightblue" points="116.368,-366.317 114.604,-355.87 109.469,-365.137 116.368,-366.317"/>
</g>
<!-- Node4 -->
<g id="node5" class="node"><title>Node4</title>
<g id="a_node5"><a xlink:href="esp-open-sdk_2esp-open-lwip_2include_2lwip_2debug_8h.html" target="_top" xlink:title="lwip/debug.h">
<polygon fill="white" stroke="black" points="121,-392.5 121,-411.5 192,-411.5 192,-392.5 121,-392.5"/>
<text text-anchor="middle" x="156.5" y="-399.5" font-family="Helvetica,sans-Serif" font-size="10.00">lwip/debug.h</text>
</a>
</g>
</g>
<!-- Node2&#45;&gt;Node4 -->
<g id="edge4" class="edge"><title>Node2&#45;&gt;Node4</title>
<path fill="none" stroke="midnightblue" d="M129.784,-448.083C134.211,-440.613 140.663,-429.724 146.118,-420.52"/>
<polygon fill="midnightblue" stroke="midnightblue" points="149.227,-422.138 151.314,-411.751 143.205,-418.57 149.227,-422.138"/>
</g>
<!-- Node4&#45;&gt;Node3 -->
<g id="edge5" class="edge"><title>Node4&#45;&gt;Node3</title>
<path fill="none" stroke="midnightblue" d="M149.895,-392.083C144.245,-384.455 135.955,-373.264 129.049,-363.941"/>
<polygon fill="midnightblue" stroke="midnightblue" points="131.747,-361.703 122.982,-355.751 126.122,-365.87 131.747,-361.703"/>
</g>
<!-- Node5 -->
<g id="node6" class="node"><title>Node5</title>
<g id="a_node6"><a xlink:href="arch_8h.html" target="_top" xlink:title="lwip/arch.h">
<polygon fill="white" stroke="black" points="188.5,-336.5 188.5,-355.5 252.5,-355.5 252.5,-336.5 188.5,-336.5"/>
<text text-anchor="middle" x="220.5" y="-343.5" font-family="Helvetica,sans-Serif" font-size="10.00">lwip/arch.h</text>
</a>
</g>
</g>
<!-- Node4&#45;&gt;Node5 -->
<g id="edge6" class="edge"><title>Node4&#45;&gt;Node5</title>
<path fill="none" stroke="midnightblue" d="M166.783,-392.324C176.336,-384.263 190.78,-372.077 202.284,-362.369"/>
<polygon fill="midnightblue" stroke="midnightblue" points="204.644,-364.958 210.03,-355.834 200.13,-359.608 204.644,-364.958"/>
</g>
<!-- Node6 -->
<g id="node7" class="node"><title>Node6</title>
<g id="a_node7"><a xlink:href="cc_8h.html" target="_top" xlink:title="arch/cc.h">
<polygon fill="white" stroke="black" points="192,-280.5 192,-299.5 249,-299.5 249,-280.5 192,-280.5"/>
<text text-anchor="middle" x="220.5" y="-287.5" font-family="Helvetica,sans-Serif" font-size="10.00">arch/cc.h</text>
</a>
</g>
</g>
<!-- Node5&#45;&gt;Node6 -->
<g id="edge7" class="edge"><title>Node5&#45;&gt;Node6</title>
<path fill="none" stroke="midnightblue" d="M220.5,-336.083C220.5,-329.006 220.5,-318.861 220.5,-309.986"/>
<polygon fill="midnightblue" stroke="midnightblue" points="224,-309.751 220.5,-299.751 217,-309.751 224,-309.751"/>
</g>
<!-- Node7 -->
<g id="node8" class="node"><title>Node7</title>
<g id="a_node8"><a xlink:href="c__types_8h.html" target="_top" xlink:title="c_types.h">
<polygon fill="white" stroke="black" points="153,-56.5 153,-75.5 212,-75.5 212,-56.5 153,-56.5"/>
<text text-anchor="middle" x="182.5" y="-63.5" font-family="Helvetica,sans-Serif" font-size="10.00">c_types.h</text>
</a>
</g>
</g>
<!-- Node6&#45;&gt;Node7 -->
<g id="edge8" class="edge"><title>Node6&#45;&gt;Node7</title>
<path fill="none" stroke="midnightblue" d="M219.01,-280.297C213.419,-247.633 193.603,-131.866 185.745,-85.9573"/>
<polygon fill="midnightblue" stroke="midnightblue" points="189.158,-85.1499 184.021,-75.8837 182.258,-86.3309 189.158,-85.1499"/>
</g>
<!-- Node10 -->
<g id="node11" class="node"><title>Node10</title>
<g id="a_node11"><a xlink:href="ets__sys_8h.html" target="_top" xlink:title="ets_sys.h">
<polygon fill="white" stroke="black" points="223,-112.5 223,-131.5 282,-131.5 282,-112.5 223,-112.5"/>
<text text-anchor="middle" x="252.5" y="-119.5" font-family="Helvetica,sans-Serif" font-size="10.00">ets_sys.h</text>
</a>
</g>
</g>
<!-- Node6&#45;&gt;Node10 -->
<g id="edge11" class="edge"><title>Node6&#45;&gt;Node10</title>
<path fill="none" stroke="midnightblue" d="M221.471,-280.422C223.806,-260.522 230.235,-209.725 239.5,-168 241.485,-159.058 244.241,-149.273 246.704,-141.118"/>
<polygon fill="midnightblue" stroke="midnightblue" points="250.053,-142.133 249.684,-131.544 243.37,-140.052 250.053,-142.133"/>
</g>
<!-- Node12 -->
<g id="node13" class="node"><title>Node12</title>
<g id="a_node13"><a xlink:href="osapi_8h.html" target="_top" xlink:title="osapi.h">
<polygon fill="white" stroke="black" points="290.5,-224.5 290.5,-243.5 338.5,-243.5 338.5,-224.5 290.5,-224.5"/>
<text text-anchor="middle" x="314.5" y="-231.5" font-family="Helvetica,sans-Serif" font-size="10.00">osapi.h</text>
</a>
</g>
</g>
<!-- Node6&#45;&gt;Node12 -->
<g id="edge14" class="edge"><title>Node6&#45;&gt;Node12</title>
<path fill="none" stroke="midnightblue" d="M235.603,-280.324C250.403,-271.822 273.194,-258.729 290.482,-248.797"/>
<polygon fill="midnightblue" stroke="midnightblue" points="292.507,-251.671 299.435,-243.655 289.02,-245.601 292.507,-251.671"/>
</g>
<!-- Node8 -->
<g id="node9" class="node"><title>Node8</title>
<polygon fill="white" stroke="#bfbfbf" points="123,-0.5 123,-19.5 172,-19.5 172,-0.5 123,-0.5"/>
<text text-anchor="middle" x="147.5" y="-7.5" font-family="Helvetica,sans-Serif" font-size="10.00">stdint.h</text>
</g>
<!-- Node7&#45;&gt;Node8 -->
<g id="edge9" class="edge"><title>Node7&#45;&gt;Node8</title>
<path fill="none" stroke="midnightblue" d="M176.72,-56.083C171.828,-48.5341 164.673,-37.4948 158.667,-28.2298"/>
<polygon fill="midnightblue" stroke="midnightblue" points="161.548,-26.239 153.172,-19.7511 155.674,-30.0463 161.548,-26.239"/>
</g>
<!-- Node9 -->
<g id="node10" class="node"><title>Node9</title>
<polygon fill="white" stroke="#bfbfbf" points="190.5,-0.5 190.5,-19.5 246.5,-19.5 246.5,-0.5 190.5,-0.5"/>
<text text-anchor="middle" x="218.5" y="-7.5" font-family="Helvetica,sans-Serif" font-size="10.00">stdbool.h</text>
</g>
<!-- Node7&#45;&gt;Node9 -->
<g id="edge10" class="edge"><title>Node7&#45;&gt;Node9</title>
<path fill="none" stroke="midnightblue" d="M188.445,-56.083C193.477,-48.5341 200.837,-37.4948 207.013,-28.2298"/>
<polygon fill="midnightblue" stroke="midnightblue" points="210.031,-30.0131 212.666,-19.7511 204.207,-26.1301 210.031,-30.0131"/>
</g>
<!-- Node10&#45;&gt;Node7 -->
<g id="edge12" class="edge"><title>Node10&#45;&gt;Node7</title>
<path fill="none" stroke="midnightblue" d="M241.253,-112.324C230.703,-104.185 214.699,-91.8395 202.058,-82.0874"/>
<polygon fill="midnightblue" stroke="midnightblue" points="204.007,-79.1707 193.951,-75.8339 199.731,-84.7132 204.007,-79.1707"/>
</g>
<!-- Node11 -->
<g id="node12" class="node"><title>Node11</title>
<g id="a_node12"><a xlink:href="eagle__soc_8h.html" target="_top" xlink:title="eagle_soc.h">
<polygon fill="white" stroke="black" points="230,-56.5 230,-75.5 299,-75.5 299,-56.5 230,-56.5"/>
<text text-anchor="middle" x="264.5" y="-63.5" font-family="Helvetica,sans-Serif" font-size="10.00">eagle_soc.h</text>
</a>
</g>
</g>
<!-- Node10&#45;&gt;Node11 -->
<g id="edge13" class="edge"><title>Node10&#45;&gt;Node11</title>
<path fill="none" stroke="midnightblue" d="M254.482,-112.083C256.072,-104.927 258.359,-94.6353 260.346,-85.6911"/>
<polygon fill="midnightblue" stroke="midnightblue" points="263.803,-86.2722 262.555,-75.7511 256.969,-84.7537 263.803,-86.2722"/>
</g>
<!-- Node13 -->
<g id="node14" class="node"><title>Node13</title>
<polygon fill="white" stroke="#bfbfbf" points="326,-168.5 326,-187.5 375,-187.5 375,-168.5 326,-168.5"/>
<text text-anchor="middle" x="350.5" y="-175.5" font-family="Helvetica,sans-Serif" font-size="10.00">string.h</text>
</g>
<!-- Node12&#45;&gt;Node13 -->
<g id="edge15" class="edge"><title>Node12&#45;&gt;Node13</title>
<path fill="none" stroke="midnightblue" d="M320.445,-224.083C325.477,-216.534 332.837,-205.495 339.013,-196.23"/>
<polygon fill="midnightblue" stroke="midnightblue" points="342.031,-198.013 344.666,-187.751 336.207,-194.13 342.031,-198.013"/>
</g>
<!-- Node14 -->
<g id="node15" class="node"><title>Node14</title>
<g id="a_node15"><a xlink:href="os__type_8h.html" target="_top" xlink:title="os_type.h">
<polygon fill="white" stroke="black" points="249,-168.5 249,-187.5 308,-187.5 308,-168.5 249,-168.5"/>
<text text-anchor="middle" x="278.5" y="-175.5" font-family="Helvetica,sans-Serif" font-size="10.00">os_type.h</text>
</a>
</g>
</g>
<!-- Node12&#45;&gt;Node14 -->
<g id="edge16" class="edge"><title>Node12&#45;&gt;Node14</title>
<path fill="none" stroke="midnightblue" d="M308.555,-224.083C303.523,-216.534 296.163,-205.495 289.987,-196.23"/>
<polygon fill="midnightblue" stroke="midnightblue" points="292.793,-194.13 284.334,-187.751 286.969,-198.013 292.793,-194.13"/>
</g>
<!-- Node15 -->
<g id="node16" class="node"><title>Node15</title>
<polygon fill="white" stroke="#bfbfbf" points="393,-168.5 393,-187.5 468,-187.5 468,-168.5 393,-168.5"/>
<text text-anchor="middle" x="430.5" y="-175.5" font-family="Helvetica,sans-Serif" font-size="10.00">user_config.h</text>
</g>
<!-- Node12&#45;&gt;Node15 -->
<g id="edge18" class="edge"><title>Node12&#45;&gt;Node15</title>
<path fill="none" stroke="midnightblue" d="M332.881,-224.444C351.716,-215.675 381.231,-201.935 402.879,-191.858"/>
<polygon fill="midnightblue" stroke="midnightblue" points="404.617,-194.91 412.205,-187.516 401.662,-188.564 404.617,-194.91"/>
</g>
<!-- Node14&#45;&gt;Node10 -->
<g id="edge17" class="edge"><title>Node14&#45;&gt;Node10</title>
<path fill="none" stroke="midnightblue" d="M274.207,-168.083C270.648,-160.691 265.478,-149.953 261.076,-140.811"/>
<polygon fill="midnightblue" stroke="midnightblue" points="264.205,-139.243 256.713,-131.751 257.898,-142.279 264.205,-139.243"/>
</g>
<!-- Node16&#45;&gt;Node2 -->
<g id="edge20" class="edge"><title>Node16&#45;&gt;Node2</title>
<path fill="none" stroke="midnightblue" d="M151.339,-616.378C135.081,-609.343 115.207,-597.645 105.5,-580 87.2941,-546.906 103.5,-501.484 115.129,-476.774"/>
<polygon fill="midnightblue" stroke="midnightblue" points="118.398,-478.06 119.719,-467.548 112.131,-474.942 118.398,-478.06"/>
</g>
<!-- Node17 -->
<g id="node18" class="node"><title>Node17</title>
<g id="a_node18"><a xlink:href="err_8h.html" target="_top" xlink:title="lwip/err.h">
<polygon fill="white" stroke="black" points="152.5,-504.5 152.5,-523.5 208.5,-523.5 208.5,-504.5 152.5,-504.5"/>
<text text-anchor="middle" x="180.5" y="-511.5" font-family="Helvetica,sans-Serif" font-size="10.00">lwip/err.h</text>
</a>
</g>
</g>
<!-- Node16&#45;&gt;Node17 -->
<g id="edge21" class="edge"><title>Node16&#45;&gt;Node17</title>
<path fill="none" stroke="midnightblue" d="M179.23,-616.486C181.951,-607.52 185.942,-592.935 187.5,-580 189.369,-564.486 187.203,-546.86 184.802,-533.88"/>
<polygon fill="midnightblue" stroke="midnightblue" points="188.178,-532.924 182.726,-523.839 181.323,-534.341 188.178,-532.924"/>
</g>
<!-- Node18 -->
<g id="node19" class="node"><title>Node18</title>
<g id="a_node19"><a xlink:href="esp-open-lwip_2include_2lwip_2ip__addr_8h.html" target="_top" xlink:title="lwip/ip_addr.h">
<polygon fill="white" stroke="black" points="235,-560.5 235,-579.5 312,-579.5 312,-560.5 235,-560.5"/>
<text text-anchor="middle" x="273.5" y="-567.5" font-family="Helvetica,sans-Serif" font-size="10.00">lwip/ip_addr.h</text>
</a>
</g>
</g>
<!-- Node16&#45;&gt;Node18 -->
<g id="edge24" class="edge"><title>Node16&#45;&gt;Node18</title>
<path fill="none" stroke="midnightblue" d="M192.085,-616.324C207.499,-607.743 231.312,-594.486 249.21,-584.522"/>
<polygon fill="midnightblue" stroke="midnightblue" points="250.919,-587.577 257.954,-579.655 247.514,-581.461 250.919,-587.577"/>
</g>
<!-- Node19 -->
<g id="node20" class="node"><title>Node19</title>
<g id="a_node20"><a xlink:href="def_8h.html" target="_top" xlink:title="lwip/def.h">
<polygon fill="white" stroke="black" points="265,-504.5 265,-523.5 324,-523.5 324,-504.5 265,-504.5"/>
<text text-anchor="middle" x="294.5" y="-511.5" font-family="Helvetica,sans-Serif" font-size="10.00">lwip/def.h</text>
</a>
</g>
</g>
<!-- Node16&#45;&gt;Node19 -->
<g id="edge29" class="edge"><title>Node16&#45;&gt;Node19</title>
<path fill="none" stroke="midnightblue" d="M208.662,-625.257C242.925,-623.587 295.704,-615.015 321.5,-580 332.424,-565.172 321.126,-545.274 309.986,-531.415"/>
<polygon fill="midnightblue" stroke="midnightblue" points="312.465,-528.93 303.27,-523.665 307.175,-533.515 312.465,-528.93"/>
</g>
<!-- Node20 -->
<g id="node21" class="node"><title>Node20</title>
<g id="a_node21"><a xlink:href="pbuf_8h.html" target="_top" xlink:title="lwip/pbuf.h">
<polygon fill="white" stroke="black" points="114.5,-560.5 114.5,-579.5 178.5,-579.5 178.5,-560.5 114.5,-560.5"/>
<text text-anchor="middle" x="146.5" y="-567.5" font-family="Helvetica,sans-Serif" font-size="10.00">lwip/pbuf.h</text>
</a>
</g>
</g>
<!-- Node16&#45;&gt;Node20 -->
<g id="edge30" class="edge"><title>Node16&#45;&gt;Node20</title>
<path fill="none" stroke="midnightblue" d="M171.546,-616.083C167.396,-608.613 161.347,-597.724 156.233,-588.52"/>
<polygon fill="midnightblue" stroke="midnightblue" points="159.278,-586.793 151.362,-579.751 153.159,-590.192 159.278,-586.793"/>
</g>
<!-- Node17&#45;&gt;Node2 -->
<g id="edge22" class="edge"><title>Node17&#45;&gt;Node2</title>
<path fill="none" stroke="midnightblue" d="M171.503,-504.324C163.306,-496.42 150.994,-484.548 141.028,-474.938"/>
<polygon fill="midnightblue" stroke="midnightblue" points="143.289,-472.256 133.661,-467.834 138.43,-477.295 143.289,-472.256"/>
</g>
<!-- Node17&#45;&gt;Node5 -->
<g id="edge23" class="edge"><title>Node17&#45;&gt;Node5</title>
<path fill="none" stroke="midnightblue" d="M182.651,-504.075C188.947,-477.945 207.437,-401.211 216.024,-365.577"/>
<polygon fill="midnightblue" stroke="midnightblue" points="219.495,-366.11 218.435,-355.568 212.69,-364.47 219.495,-366.11"/>
</g>
<!-- Node18&#45;&gt;Node2 -->
<g id="edge25" class="edge"><title>Node18&#45;&gt;Node2</title>
<path fill="none" stroke="midnightblue" d="M267.86,-560.43C258.654,-546.972 239.233,-520.699 217.5,-504 199.657,-490.29 176.968,-479.21 158.467,-471.476"/>
<polygon fill="midnightblue" stroke="midnightblue" points="159.534,-468.132 148.951,-467.634 156.913,-474.623 159.534,-468.132"/>
</g>
<!-- Node18&#45;&gt;Node19 -->
<g id="edge26" class="edge"><title>Node18&#45;&gt;Node19</title>
<path fill="none" stroke="midnightblue" d="M276.968,-560.083C279.812,-552.77 283.929,-542.181 287.46,-533.103"/>
<polygon fill="midnightblue" stroke="midnightblue" points="290.734,-534.34 291.097,-523.751 284.21,-531.803 290.734,-534.34"/>
</g>
<!-- Node19&#45;&gt;Node2 -->
<g id="edge28" class="edge"><title>Node19&#45;&gt;Node2</title>
<path fill="none" stroke="midnightblue" d="M267.563,-504.444C238.84,-495.32 193.171,-480.813 161.179,-470.651"/>
<polygon fill="midnightblue" stroke="midnightblue" points="161.901,-467.208 151.311,-467.516 159.782,-473.88 161.901,-467.208"/>
</g>
<!-- Node19&#45;&gt;Node5 -->
<g id="edge27" class="edge"><title>Node19&#45;&gt;Node5</title>
<path fill="none" stroke="midnightblue" d="M290.521,-504.075C278.823,-477.832 244.37,-400.545 228.576,-365.117"/>
<polygon fill="midnightblue" stroke="midnightblue" points="231.588,-363.277 224.32,-355.568 225.194,-366.127 231.588,-363.277"/>
</g>
<!-- Node20&#45;&gt;Node2 -->
<g id="edge31" class="edge"><title>Node20&#45;&gt;Node2</title>
<path fill="none" stroke="midnightblue" d="M144.774,-560.368C141.223,-542.617 133.033,-501.666 128.219,-477.597"/>
<polygon fill="midnightblue" stroke="midnightblue" points="131.612,-476.711 126.218,-467.591 124.747,-478.084 131.612,-476.711"/>
</g>
<!-- Node20&#45;&gt;Node17 -->
<g id="edge32" class="edge"><title>Node20&#45;&gt;Node17</title>
<path fill="none" stroke="midnightblue" d="M152.114,-560.083C156.867,-552.534 163.818,-541.495 169.652,-532.23"/>
<polygon fill="midnightblue" stroke="midnightblue" points="172.624,-534.078 174.99,-523.751 166.7,-530.349 172.624,-534.078"/>
</g>
</g>
</svg>
