<?xml version="1.0" encoding="UTF-8" standalone="no"?>
<!DOCTYPE svg PUBLIC "-//W3C//DTD SVG 1.1//EN"
 "http://www.w3.org/Graphics/SVG/1.1/DTD/svg11.dtd">
<!-- Generated by graphviz version 2.38.0 (20140413.2041)
 -->
<!-- Title: esp&#45;open&#45;lwip/include/lwip/snmp.h Pages: 1 -->
<svg width="596pt" height="173pt"
 viewBox="0.00 0.00 595.50 173.00" xmlns="http://www.w3.org/2000/svg" xmlns:xlink="http://www.w3.org/1999/xlink">
<g id="graph0" class="graph" transform="scale(1 1) rotate(0) translate(4 169)">
<title>esp&#45;open&#45;lwip/include/lwip/snmp.h</title>
<polygon fill="white" stroke="none" points="-4,4 -4,-169 591.5,-169 591.5,4 -4,4"/>
<!-- Node17 -->
<g id="node1" class="node"><title>Node17</title>
<polygon fill="#bfbfbf" stroke="black" points="250,-134.5 250,-164.5 360,-164.5 360,-134.5 250,-134.5"/>
<text text-anchor="start" x="258" y="-152.5" font-family="Helvetica,sans-Serif" font-size="10.00">esp&#45;open&#45;lwip/include</text>
<text text-anchor="middle" x="305" y="-141.5" font-family="Helvetica,sans-Serif" font-size="10.00">/lwip/snmp.h</text>
</g>
<!-- Node18 -->
<g id="node2" class="node"><title>Node18</title>
<g id="a_node2"><a xlink:href="snmp__asn1_8h.html" target="_top" xlink:title="esp&#45;open&#45;lwip/include\l/lwip/snmp_asn1.h">
<polygon fill="white" stroke="black" points="0,-67.5 0,-97.5 110,-97.5 110,-67.5 0,-67.5"/>
<text text-anchor="start" x="8" y="-85.5" font-family="Helvetica,sans-Serif" font-size="10.00">esp&#45;open&#45;lwip/include</text>
<text text-anchor="middle" x="55" y="-74.5" font-family="Helvetica,sans-Serif" font-size="10.00">/lwip/snmp_asn1.h</text>
</a>
</g>
</g>
<!-- Node17&#45;&gt;Node18 -->
<g id="edge1" class="edge"><title>Node17&#45;&gt;Node18</title>
<path fill="none" stroke="midnightblue" d="M241.22,-131.917C200.423,-121.31 148.072,-107.699 109.273,-97.6109"/>
<polygon fill="midnightblue" stroke="midnightblue" points="240.503,-135.347 251.062,-134.476 242.264,-128.572 240.503,-135.347"/>
</g>
<!-- Node19 -->
<g id="node3" class="node"><title>Node19</title>
<g id="a_node3"><a xlink:href="snmp__msg_8h.html" target="_top" xlink:title="esp&#45;open&#45;lwip/include\l/lwip/snmp_msg.h">
<polygon fill="white" stroke="black" points="128,-67.5 128,-97.5 238,-97.5 238,-67.5 128,-67.5"/>
<text text-anchor="start" x="136" y="-85.5" font-family="Helvetica,sans-Serif" font-size="10.00">esp&#45;open&#45;lwip/include</text>
<text text-anchor="middle" x="183" y="-74.5" font-family="Helvetica,sans-Serif" font-size="10.00">/lwip/snmp_msg.h</text>
</a>
</g>
</g>
<!-- Node17&#45;&gt;Node19 -->
<g id="edge2" class="edge"><title>Node17&#45;&gt;Node19</title>
<path fill="none" stroke="midnightblue" d="M269.479,-129.575C250.288,-119.35 226.995,-106.94 209.421,-97.5765"/>
<polygon fill="midnightblue" stroke="midnightblue" points="268.057,-132.783 278.528,-134.396 271.348,-126.605 268.057,-132.783"/>
</g>
<!-- Node22 -->
<g id="node6" class="node"><title>Node22</title>
<g id="a_node6"><a xlink:href="ip_8c.html" target="_top" xlink:title="esp&#45;open&#45;lwip/lwip\l/core/ipv4/ip.c">
<polygon fill="white" stroke="black" points="256.5,-67.5 256.5,-97.5 353.5,-97.5 353.5,-67.5 256.5,-67.5"/>
<text text-anchor="start" x="264.5" y="-85.5" font-family="Helvetica,sans-Serif" font-size="10.00">esp&#45;open&#45;lwip/lwip</text>
<text text-anchor="middle" x="305" y="-74.5" font-family="Helvetica,sans-Serif" font-size="10.00">/core/ipv4/ip.c</text>
</a>
</g>
</g>
<!-- Node17&#45;&gt;Node22 -->
<g id="edge5" class="edge"><title>Node17&#45;&gt;Node22</title>
<path fill="none" stroke="midnightblue" d="M305,-124.108C305,-115.154 305,-105.323 305,-97.5765"/>
<polygon fill="midnightblue" stroke="midnightblue" points="301.5,-124.396 305,-134.396 308.5,-124.396 301.5,-124.396"/>
</g>
<!-- Node23 -->
<g id="node7" class="node"><title>Node23</title>
<g id="a_node7"><a xlink:href="ip__frag_8c.html" target="_top" xlink:title="esp&#45;open&#45;lwip/lwip\l/core/ipv4/ip_frag.c">
<polygon fill="white" stroke="black" points="372,-67.5 372,-97.5 472,-97.5 472,-67.5 372,-67.5"/>
<text text-anchor="start" x="380" y="-85.5" font-family="Helvetica,sans-Serif" font-size="10.00">esp&#45;open&#45;lwip/lwip</text>
<text text-anchor="middle" x="422" y="-74.5" font-family="Helvetica,sans-Serif" font-size="10.00">/core/ipv4/ip_frag.c</text>
</a>
</g>
</g>
<!-- Node17&#45;&gt;Node23 -->
<g id="edge6" class="edge"><title>Node17&#45;&gt;Node23</title>
<path fill="none" stroke="midnightblue" d="M339.316,-129.435C357.673,-119.237 379.885,-106.897 396.662,-97.5765"/>
<polygon fill="midnightblue" stroke="midnightblue" points="337.429,-126.48 330.387,-134.396 340.829,-132.599 337.429,-126.48"/>
</g>
<!-- Node24 -->
<g id="node8" class="node"><title>Node24</title>
<g id="a_node8"><a xlink:href="netif_8c.html" target="_top" xlink:title="esp&#45;open&#45;lwip/lwip\l/core/netif.c">
<polygon fill="white" stroke="black" points="490.5,-67.5 490.5,-97.5 587.5,-97.5 587.5,-67.5 490.5,-67.5"/>
<text text-anchor="start" x="498.5" y="-85.5" font-family="Helvetica,sans-Serif" font-size="10.00">esp&#45;open&#45;lwip/lwip</text>
<text text-anchor="middle" x="539" y="-74.5" font-family="Helvetica,sans-Serif" font-size="10.00">/core/netif.c</text>
</a>
</g>
</g>
<!-- Node17&#45;&gt;Node24 -->
<g id="edge7" class="edge"><title>Node17&#45;&gt;Node24</title>
<path fill="none" stroke="midnightblue" d="M365.601,-131.666C404.365,-120.899 453.986,-107.115 490.207,-97.0536"/>
<polygon fill="midnightblue" stroke="midnightblue" points="364.185,-128.427 355.486,-134.476 366.058,-135.172 364.185,-128.427"/>
</g>
<!-- Node20 -->
<g id="node4" class="node"><title>Node20</title>
<g id="a_node4"><a xlink:href="init_8c.html" target="_top" xlink:title="esp&#45;open&#45;lwip/lwip\l/core/init.c">
<polygon fill="white" stroke="black" points="76.5,-0.5 76.5,-30.5 173.5,-30.5 173.5,-0.5 76.5,-0.5"/>
<text text-anchor="start" x="84.5" y="-18.5" font-family="Helvetica,sans-Serif" font-size="10.00">esp&#45;open&#45;lwip/lwip</text>
<text text-anchor="middle" x="125" y="-7.5" font-family="Helvetica,sans-Serif" font-size="10.00">/core/init.c</text>
</a>
</g>
</g>
<!-- Node19&#45;&gt;Node20 -->
<g id="edge3" class="edge"><title>Node19&#45;&gt;Node20</title>
<path fill="none" stroke="midnightblue" d="M163.58,-59.7362C154.998,-50.119 145.156,-39.0888 137.561,-30.5765"/>
<polygon fill="midnightblue" stroke="midnightblue" points="161.145,-62.2648 170.415,-67.396 166.368,-57.6043 161.145,-62.2648"/>
</g>
<!-- Node21 -->
<g id="node5" class="node"><title>Node21</title>
<g id="a_node5"><a xlink:href="memp_8c.html" target="_top" xlink:title="esp&#45;open&#45;lwip/lwip\l/core/memp.c">
<polygon fill="white" stroke="black" points="191.5,-0.5 191.5,-30.5 288.5,-30.5 288.5,-0.5 191.5,-0.5"/>
<text text-anchor="start" x="199.5" y="-18.5" font-family="Helvetica,sans-Serif" font-size="10.00">esp&#45;open&#45;lwip/lwip</text>
<text text-anchor="middle" x="240" y="-7.5" font-family="Helvetica,sans-Serif" font-size="10.00">/core/memp.c</text>
</a>
</g>
</g>
<!-- Node19&#45;&gt;Node21 -->
<g id="edge4" class="edge"><title>Node19&#45;&gt;Node21</title>
<path fill="none" stroke="midnightblue" d="M202.085,-59.7362C210.519,-50.119 220.191,-39.0888 227.656,-30.5765"/>
<polygon fill="midnightblue" stroke="midnightblue" points="199.33,-57.5697 195.368,-67.396 204.593,-62.185 199.33,-57.5697"/>
</g>
</g>
</svg>
