<?xml version="1.0" encoding="UTF-8" standalone="no"?>
<!DOCTYPE svg PUBLIC "-//W3C//DTD SVG 1.1//EN"
 "http://www.w3.org/Graphics/SVG/1.1/DTD/svg11.dtd">
<!-- Generated by graphviz version 2.38.0 (20140413.2041)
 -->
<!-- Title: spi_init Pages: 1 -->
<svg width="267pt" height="28pt"
 viewBox="0.00 0.00 267.00 28.00" xmlns="http://www.w3.org/2000/svg" xmlns:xlink="http://www.w3.org/1999/xlink">
<g id="graph0" class="graph" transform="scale(1 1) rotate(0) translate(4 24)">
<title>spi_init</title>
<polygon fill="white" stroke="none" points="-4,4 -4,-24 263,-24 263,4 -4,4"/>
<!-- Node11 -->
<g id="node1" class="node"><title>Node11</title>
<polygon fill="#bfbfbf" stroke="black" points="0,-0.5 0,-19.5 47,-19.5 47,-0.5 0,-0.5"/>
<text text-anchor="middle" x="23.5" y="-7.5" font-family="Helvetica,sans-Serif" font-size="10.00">spi_init</text>
</g>
<!-- Node12 -->
<g id="node2" class="node"><title>Node12</title>
<g id="a_node2"><a xlink:href="espenc_8c.html#a81a1bda1746cf556eca33a6ab92ea851" target="_top" xlink:title="enc28j60_init">
<polygon fill="white" stroke="black" points="83,-0.5 83,-19.5 157,-19.5 157,-0.5 83,-0.5"/>
<text text-anchor="middle" x="120" y="-7.5" font-family="Helvetica,sans-Serif" font-size="10.00">enc28j60_init</text>
</a>
</g>
</g>
<!-- Node11&#45;&gt;Node12 -->
<g id="edge1" class="edge"><title>Node11&#45;&gt;Node12</title>
<path fill="none" stroke="midnightblue" d="M57.5982,-10C65.7125,-10 74.4402,-10 82.6961,-10"/>
<polygon fill="midnightblue" stroke="midnightblue" points="57.3758,-6.5001 47.3758,-10 57.3758,-13.5001 57.3758,-6.5001"/>
</g>
<!-- Node13 -->
<g id="node3" class="node"><title>Node13</title>
<g id="a_node3"><a xlink:href="espenc_8c.html#a193505f7e2d8f132ca9698a32783fe93" target="_top" xlink:title="espenc_init">
<polygon fill="white" stroke="black" points="193,-0.5 193,-19.5 259,-19.5 259,-0.5 193,-0.5"/>
<text text-anchor="middle" x="226" y="-7.5" font-family="Helvetica,sans-Serif" font-size="10.00">espenc_init</text>
</a>
</g>
</g>
<!-- Node12&#45;&gt;Node13 -->
<g id="edge2" class="edge"><title>Node12&#45;&gt;Node13</title>
<path fill="none" stroke="midnightblue" d="M167.103,-10C175.776,-10 184.67,-10 192.805,-10"/>
<polygon fill="midnightblue" stroke="midnightblue" points="167.082,-6.5001 157.082,-10 167.082,-13.5001 167.082,-6.5001"/>
</g>
</g>
</svg>
