<?xml version="1.0" encoding="UTF-8" standalone="no"?>
<!DOCTYPE svg PUBLIC "-//W3C//DTD SVG 1.1//EN"
 "http://www.w3.org/Graphics/SVG/1.1/DTD/svg11.dtd">
<!-- Generated by graphviz version 2.38.0 (20140413.2041)
 -->
<!-- Title: ping_msg Pages: 1 -->
<svg width="98pt" height="292pt"
 viewBox="0.00 0.00 97.50 292.00" xmlns="http://www.w3.org/2000/svg" xmlns:xlink="http://www.w3.org/1999/xlink">
<g id="graph0" class="graph" transform="scale(1 1) rotate(0) translate(4 288)">
<title>ping_msg</title>
<polygon fill="white" stroke="none" points="-4,4 -4,-288 93.5,-288 93.5,4 -4,4"/>
<!-- Node1 -->
<g id="node1" class="node"><title>Node1</title>
<polygon fill="#bfbfbf" stroke="black" points="0,-0.5 0,-123.5 87,-123.5 87,-0.5 0,-0.5"/>
<text text-anchor="middle" x="43.5" y="-111.5" font-family="Helvetica,sans-Serif" font-size="10.00">ping_msg</text>
<polyline fill="none" stroke="black" points="0,-104.5 87,-104.5 "/>
<text text-anchor="start" x="8" y="-92.5" font-family="Helvetica,sans-Serif" font-size="10.00">+ ping_pcb</text>
<text text-anchor="start" x="8" y="-81.5" font-family="Helvetica,sans-Serif" font-size="10.00">+ ping_start</text>
<text text-anchor="start" x="8" y="-70.5" font-family="Helvetica,sans-Serif" font-size="10.00">+ ping_sent</text>
<text text-anchor="start" x="8" y="-59.5" font-family="Helvetica,sans-Serif" font-size="10.00">+ timeout_count</text>
<text text-anchor="start" x="8" y="-48.5" font-family="Helvetica,sans-Serif" font-size="10.00">+ max_count</text>
<text text-anchor="start" x="8" y="-37.5" font-family="Helvetica,sans-Serif" font-size="10.00">+ sent_count</text>
<text text-anchor="start" x="8" y="-26.5" font-family="Helvetica,sans-Serif" font-size="10.00">+ coarse_time</text>
<polyline fill="none" stroke="black" points="0,-19.5 87,-19.5 "/>
<text text-anchor="middle" x="43.5" y="-7.5" font-family="Helvetica,sans-Serif" font-size="10.00"> </text>
</g>
<!-- Node2 -->
<g id="node2" class="node"><title>Node2</title>
<g id="a_node2"><a xlink:href="structping__option.html" target="_top" xlink:title="{ping_option\n|+ count\l+ ip\l+ coarse_time\l+ recv_function\l+ sent_function\l+ reverse\l|}">
<polygon fill="white" stroke="black" points="1.5,-171.5 1.5,-283.5 85.5,-283.5 85.5,-171.5 1.5,-171.5"/>
<text text-anchor="middle" x="43.5" y="-271.5" font-family="Helvetica,sans-Serif" font-size="10.00">ping_option</text>
<polyline fill="none" stroke="black" points="1.5,-264.5 85.5,-264.5 "/>
<text text-anchor="start" x="9.5" y="-252.5" font-family="Helvetica,sans-Serif" font-size="10.00">+ count</text>
<text text-anchor="start" x="9.5" y="-241.5" font-family="Helvetica,sans-Serif" font-size="10.00">+ ip</text>
<text text-anchor="start" x="9.5" y="-230.5" font-family="Helvetica,sans-Serif" font-size="10.00">+ coarse_time</text>
<text text-anchor="start" x="9.5" y="-219.5" font-family="Helvetica,sans-Serif" font-size="10.00">+ recv_function</text>
<text text-anchor="start" x="9.5" y="-208.5" font-family="Helvetica,sans-Serif" font-size="10.00">+ sent_function</text>
<text text-anchor="start" x="9.5" y="-197.5" font-family="Helvetica,sans-Serif" font-size="10.00">+ reverse</text>
<polyline fill="none" stroke="black" points="1.5,-190.5 85.5,-190.5 "/>
<text text-anchor="middle" x="43.5" y="-178.5" font-family="Helvetica,sans-Serif" font-size="10.00"> </text>
</a>
</g>
</g>
<!-- Node2&#45;&gt;Node1 -->
<g id="edge1" class="edge"><title>Node2&#45;&gt;Node1</title>
<path fill="none" stroke="#404040" d="M43.5,-171.146C43.5,-159.801 43.5,-147.697 43.5,-135.844"/>
<polygon fill="none" stroke="#404040" points="43.5001,-135.627 39.5,-129.627 43.5,-123.627 47.5,-129.627 43.5001,-135.627"/>
<text text-anchor="middle" x="66.5" y="-145" font-family="Helvetica,sans-Serif" font-size="10.00"> +ping_opt</text>
</g>
</g>
</svg>
