<?xml version="1.0" encoding="UTF-8" standalone="no"?>
<!DOCTYPE svg PUBLIC "-//W3C//DTD SVG 1.1//EN"
 "http://www.w3.org/Graphics/SVG/1.1/DTD/svg11.dtd">
<!-- Generated by graphviz version 2.38.0 (20140413.2041)
 -->
<!-- Title: TplData Pages: 1 -->
<svg width="95pt" height="248pt"
 viewBox="0.00 0.00 95.00 248.00" xmlns="http://www.w3.org/2000/svg" xmlns:xlink="http://www.w3.org/1999/xlink">
<g id="graph0" class="graph" transform="scale(1 1) rotate(0) translate(4 244)">
<title>TplData</title>
<polygon fill="white" stroke="none" points="-4,4 -4,-244 91,-244 91,4 -4,4"/>
<!-- Node1 -->
<g id="node1" class="node"><title>Node1</title>
<polygon fill="#bfbfbf" stroke="black" points="10,-0.5 10,-79.5 77,-79.5 77,-0.5 10,-0.5"/>
<text text-anchor="middle" x="43.5" y="-67.5" font-family="Helvetica,sans-Serif" font-size="10.00">TplData</text>
<polyline fill="none" stroke="black" points="10,-60.5 77,-60.5 "/>
<text text-anchor="start" x="18" y="-48.5" font-family="Helvetica,sans-Serif" font-size="10.00">+ tplArg</text>
<text text-anchor="start" x="18" y="-37.5" font-family="Helvetica,sans-Serif" font-size="10.00">+ token</text>
<text text-anchor="start" x="18" y="-26.5" font-family="Helvetica,sans-Serif" font-size="10.00">+ tokenPos</text>
<polyline fill="none" stroke="black" points="10,-19.5 77,-19.5 "/>
<text text-anchor="middle" x="43.5" y="-7.5" font-family="Helvetica,sans-Serif" font-size="10.00"> </text>
</g>
<!-- Node2 -->
<g id="node2" class="node"><title>Node2</title>
<g id="a_node2"><a xlink:href="struct_esp_fs_file.html" target="_top" xlink:title="{EspFsFile\n|+ header\l+ decompressor\l+ posDecomp\l+ posStart\l+ posComp\l+ decompData\l|}">
<polygon fill="white" stroke="black" points="0,-127.5 0,-239.5 87,-239.5 87,-127.5 0,-127.5"/>
<text text-anchor="middle" x="43.5" y="-227.5" font-family="Helvetica,sans-Serif" font-size="10.00">EspFsFile</text>
<polyline fill="none" stroke="black" points="0,-220.5 87,-220.5 "/>
<text text-anchor="start" x="8" y="-208.5" font-family="Helvetica,sans-Serif" font-size="10.00">+ header</text>
<text text-anchor="start" x="8" y="-197.5" font-family="Helvetica,sans-Serif" font-size="10.00">+ decompressor</text>
<text text-anchor="start" x="8" y="-186.5" font-family="Helvetica,sans-Serif" font-size="10.00">+ posDecomp</text>
<text text-anchor="start" x="8" y="-175.5" font-family="Helvetica,sans-Serif" font-size="10.00">+ posStart</text>
<text text-anchor="start" x="8" y="-164.5" font-family="Helvetica,sans-Serif" font-size="10.00">+ posComp</text>
<text text-anchor="start" x="8" y="-153.5" font-family="Helvetica,sans-Serif" font-size="10.00">+ decompData</text>
<polyline fill="none" stroke="black" points="0,-146.5 87,-146.5 "/>
<text text-anchor="middle" x="43.5" y="-134.5" font-family="Helvetica,sans-Serif" font-size="10.00"> </text>
</a>
</g>
</g>
<!-- Node2&#45;&gt;Node1 -->
<g id="edge1" class="edge"><title>Node2&#45;&gt;Node1</title>
<path fill="none" stroke="#404040" d="M43.5,-127.387C43.5,-115.648 43.5,-103.304 43.5,-91.7376"/>
<polygon fill="none" stroke="#404040" points="43.5001,-91.5574 39.5,-85.5574 43.5,-79.5574 47.5,-85.5574 43.5001,-91.5574"/>
<text text-anchor="middle" x="54.5" y="-101" font-family="Helvetica,sans-Serif" font-size="10.00"> +file</text>
</g>
</g>
</svg>
