<?xml version="1.0" encoding="UTF-8" standalone="no"?>
<!DOCTYPE svg PUBLIC "-//W3C//DTD SVG 1.1//EN"
 "http://www.w3.org/Graphics/SVG/1.1/DTD/svg11.dtd">
<!-- Generated by graphviz version 2.38.0 (20140413.2041)
 -->
<!-- Title: route_entry Pages: 1 -->
<svg width="75pt" height="204pt"
 viewBox="0.00 0.00 74.50 204.00" xmlns="http://www.w3.org/2000/svg" xmlns:xlink="http://www.w3.org/1999/xlink">
<g id="graph0" class="graph" transform="scale(1 1) rotate(0) translate(4 200)">
<title>route_entry</title>
<polygon fill="white" stroke="none" points="-4,4 -4,-200 70.5,-200 70.5,4 -4,4"/>
<!-- Node1 -->
<g id="node1" class="node"><title>Node1</title>
<polygon fill="#bfbfbf" stroke="black" points="0,-0.5 0,-57.5 65,-57.5 65,-0.5 0,-0.5"/>
<text text-anchor="middle" x="32.5" y="-45.5" font-family="Helvetica,sans-Serif" font-size="10.00">route_entry</text>
<polyline fill="none" stroke="black" points="0,-38.5 65,-38.5 "/>
<text text-anchor="middle" x="32.5" y="-26.5" font-family="Helvetica,sans-Serif" font-size="10.00"> </text>
<polyline fill="none" stroke="black" points="0,-19.5 65,-19.5 "/>
<text text-anchor="middle" x="32.5" y="-7.5" font-family="Helvetica,sans-Serif" font-size="10.00"> </text>
</g>
<!-- Node2 -->
<g id="node2" class="node"><title>Node2</title>
<g id="a_node2"><a xlink:href="structip__addr.html" target="_top" xlink:title="{ip_addr\n|+ addr\l+ addr\l|}">
<polygon fill="white" stroke="black" points="8.5,-127.5 8.5,-195.5 56.5,-195.5 56.5,-127.5 8.5,-127.5"/>
<text text-anchor="middle" x="32.5" y="-183.5" font-family="Helvetica,sans-Serif" font-size="10.00">ip_addr</text>
<polyline fill="none" stroke="black" points="8.5,-176.5 56.5,-176.5 "/>
<text text-anchor="start" x="16.5" y="-164.5" font-family="Helvetica,sans-Serif" font-size="10.00">+ addr</text>
<text text-anchor="start" x="16.5" y="-153.5" font-family="Helvetica,sans-Serif" font-size="10.00">+ addr</text>
<polyline fill="none" stroke="black" points="8.5,-146.5 56.5,-146.5 "/>
<text text-anchor="middle" x="32.5" y="-134.5" font-family="Helvetica,sans-Serif" font-size="10.00"> </text>
</a>
</g>
</g>
<!-- Node2&#45;&gt;Node1 -->
<g id="edge1" class="edge"><title>Node2&#45;&gt;Node1</title>
<path fill="none" stroke="#404040" d="M32.5,-127.232C32.5,-109.806 32.5,-88.3385 32.5,-70.0111"/>
<polygon fill="none" stroke="#404040" points="32.5001,-69.913 28.5,-63.913 32.5,-57.913 36.5,-63.9129 32.5001,-69.913"/>
<text text-anchor="middle" x="49.5" y="-101" font-family="Helvetica,sans-Serif" font-size="10.00"> +mask</text>
<text text-anchor="middle" x="49.5" y="-90" font-family="Helvetica,sans-Serif" font-size="10.00">+gw</text>
<text text-anchor="middle" x="49.5" y="-79" font-family="Helvetica,sans-Serif" font-size="10.00">+ip</text>
</g>
</g>
</svg>
