<?xml version="1.0" encoding="UTF-8" standalone="no"?>
<!DOCTYPE svg PUBLIC "-//W3C//DTD SVG 1.1//EN"
 "http://www.w3.org/Graphics/SVG/1.1/DTD/svg11.dtd">
<!-- Generated by graphviz version 2.38.0 (20140413.2041)
 -->
<!-- Title: station_config Pages: 1 -->
<svg width="164pt" height="248pt"
 viewBox="0.00 0.00 164.00 248.00" xmlns="http://www.w3.org/2000/svg" xmlns:xlink="http://www.w3.org/1999/xlink">
<g id="graph0" class="graph" transform="scale(1 1) rotate(0) translate(4 244)">
<title>station_config</title>
<polygon fill="white" stroke="none" points="-4,4 -4,-244 160,-244 160,4 -4,4"/>
<!-- Node1 -->
<g id="node1" class="node"><title>Node1</title>
<polygon fill="#bfbfbf" stroke="black" points="0,-0.5 0,-123.5 156,-123.5 156,-0.5 0,-0.5"/>
<text text-anchor="middle" x="78" y="-111.5" font-family="Helvetica,sans-Serif" font-size="10.00">station_config</text>
<polyline fill="none" stroke="black" points="0,-104.5 156,-104.5 "/>
<text text-anchor="start" x="8" y="-92.5" font-family="Helvetica,sans-Serif" font-size="10.00">+ ssid</text>
<text text-anchor="start" x="8" y="-81.5" font-family="Helvetica,sans-Serif" font-size="10.00">+ password</text>
<text text-anchor="start" x="8" y="-70.5" font-family="Helvetica,sans-Serif" font-size="10.00">+ channel</text>
<text text-anchor="start" x="8" y="-59.5" font-family="Helvetica,sans-Serif" font-size="10.00">+ bssid_set</text>
<text text-anchor="start" x="8" y="-48.5" font-family="Helvetica,sans-Serif" font-size="10.00">+ bssid</text>
<text text-anchor="start" x="8" y="-37.5" font-family="Helvetica,sans-Serif" font-size="10.00">+ open_and_wep_mode_disable</text>
<text text-anchor="start" x="8" y="-26.5" font-family="Helvetica,sans-Serif" font-size="10.00">+ all_channel_scan</text>
<polyline fill="none" stroke="black" points="0,-19.5 156,-19.5 "/>
<text text-anchor="middle" x="78" y="-7.5" font-family="Helvetica,sans-Serif" font-size="10.00"> </text>
</g>
<!-- Node2 -->
<g id="node2" class="node"><title>Node2</title>
<g id="a_node2"><a xlink:href="structwifi__fast__scan__threshold__t.html" target="_top" xlink:title="{wifi_fast_scan_threshold_t\n|+ rssi\l+ authmode\l|}">
<polygon fill="white" stroke="black" points="11.5,-171.5 11.5,-239.5 144.5,-239.5 144.5,-171.5 11.5,-171.5"/>
<text text-anchor="middle" x="78" y="-227.5" font-family="Helvetica,sans-Serif" font-size="10.00">wifi_fast_scan_threshold_t</text>
<polyline fill="none" stroke="black" points="11.5,-220.5 144.5,-220.5 "/>
<text text-anchor="start" x="19.5" y="-208.5" font-family="Helvetica,sans-Serif" font-size="10.00">+ rssi</text>
<text text-anchor="start" x="19.5" y="-197.5" font-family="Helvetica,sans-Serif" font-size="10.00">+ authmode</text>
<polyline fill="none" stroke="black" points="11.5,-190.5 144.5,-190.5 "/>
<text text-anchor="middle" x="78" y="-178.5" font-family="Helvetica,sans-Serif" font-size="10.00"> </text>
</a>
</g>
</g>
<!-- Node2&#45;&gt;Node1 -->
<g id="edge1" class="edge"><title>Node2&#45;&gt;Node1</title>
<path fill="none" stroke="#404040" d="M78,-171.325C78,-160.665 78,-148.401 78,-136.045"/>
<polygon fill="none" stroke="#404040" points="78.0001,-135.713 74,-129.713 78,-123.713 82,-129.713 78.0001,-135.713"/>
<text text-anchor="middle" x="102.5" y="-145" font-family="Helvetica,sans-Serif" font-size="10.00"> +threshold</text>
</g>
</g>
</svg>
