<?xml version="1.0" encoding="UTF-8" standalone="no"?>
<!DOCTYPE svg PUBLIC "-//W3C//DTD SVG 1.1//EN"
 "http://www.w3.org/Graphics/SVG/1.1/DTD/svg11.dtd">
<!-- Generated by graphviz version 2.38.0 (20140413.2041)
 -->
<!-- Title: jsontree_object Pages: 1 -->
<svg width="91pt" height="287pt"
 viewBox="0.00 0.00 91.00 287.00" xmlns="http://www.w3.org/2000/svg" xmlns:xlink="http://www.w3.org/1999/xlink">
<g id="graph0" class="graph" transform="scale(1 1) rotate(0) translate(4 283)">
<title>jsontree_object</title>
<polygon fill="white" stroke="none" points="-4,4 -4,-283 87,-283 87,4 -4,4"/>
<!-- Node1 -->
<g id="node1" class="node"><title>Node1</title>
<polygon fill="#bfbfbf" stroke="black" points="0,-0.5 0,-68.5 83,-68.5 83,-0.5 0,-0.5"/>
<text text-anchor="middle" x="41.5" y="-56.5" font-family="Helvetica,sans-Serif" font-size="10.00">jsontree_object</text>
<polyline fill="none" stroke="black" points="0,-49.5 83,-49.5 "/>
<text text-anchor="start" x="8" y="-37.5" font-family="Helvetica,sans-Serif" font-size="10.00">+ type</text>
<text text-anchor="start" x="8" y="-26.5" font-family="Helvetica,sans-Serif" font-size="10.00">+ count</text>
<polyline fill="none" stroke="black" points="0,-19.5 83,-19.5 "/>
<text text-anchor="middle" x="41.5" y="-7.5" font-family="Helvetica,sans-Serif" font-size="10.00"> </text>
</g>
<!-- Node2 -->
<g id="node2" class="node"><title>Node2</title>
<g id="a_node2"><a xlink:href="structjsontree__pair.html" target="_top" xlink:title="{jsontree_pair\n|+ name\l|}">
<polygon fill="white" stroke="black" points="5.5,-116.5 5.5,-173.5 77.5,-173.5 77.5,-116.5 5.5,-116.5"/>
<text text-anchor="middle" x="41.5" y="-161.5" font-family="Helvetica,sans-Serif" font-size="10.00">jsontree_pair</text>
<polyline fill="none" stroke="black" points="5.5,-154.5 77.5,-154.5 "/>
<text text-anchor="start" x="13.5" y="-142.5" font-family="Helvetica,sans-Serif" font-size="10.00">+ name</text>
<polyline fill="none" stroke="black" points="5.5,-135.5 77.5,-135.5 "/>
<text text-anchor="middle" x="41.5" y="-123.5" font-family="Helvetica,sans-Serif" font-size="10.00"> </text>
</a>
</g>
</g>
<!-- Node2&#45;&gt;Node1 -->
<g id="edge1" class="edge"><title>Node2&#45;&gt;Node1</title>
<path fill="none" stroke="#404040" d="M41.5,-116.34C41.5,-105.529 41.5,-92.847 41.5,-80.7745"/>
<polygon fill="none" stroke="#404040" points="41.5001,-80.5186 37.5,-74.5186 41.5,-68.5186 45.5,-74.5185 41.5001,-80.5186"/>
<text text-anchor="middle" x="57" y="-90" font-family="Helvetica,sans-Serif" font-size="10.00"> +pairs</text>
</g>
<!-- Node3 -->
<g id="node3" class="node"><title>Node3</title>
<g id="a_node3"><a xlink:href="structjsontree__value.html" target="_top" xlink:title="{jsontree_value\n|+ type\l|}">
<polygon fill="white" stroke="black" points="1.5,-221.5 1.5,-278.5 81.5,-278.5 81.5,-221.5 1.5,-221.5"/>
<text text-anchor="middle" x="41.5" y="-266.5" font-family="Helvetica,sans-Serif" font-size="10.00">jsontree_value</text>
<polyline fill="none" stroke="black" points="1.5,-259.5 81.5,-259.5 "/>
<text text-anchor="start" x="9.5" y="-247.5" font-family="Helvetica,sans-Serif" font-size="10.00">+ type</text>
<polyline fill="none" stroke="black" points="1.5,-240.5 81.5,-240.5 "/>
<text text-anchor="middle" x="41.5" y="-228.5" font-family="Helvetica,sans-Serif" font-size="10.00"> </text>
</a>
</g>
</g>
<!-- Node3&#45;&gt;Node2 -->
<g id="edge2" class="edge"><title>Node3&#45;&gt;Node2</title>
<path fill="none" stroke="#404040" d="M41.5,-221.398C41.5,-210.545 41.5,-197.873 41.5,-186.049"/>
<polygon fill="none" stroke="#404040" points="41.5001,-185.678 37.5,-179.678 41.5,-173.678 45.5,-179.678 41.5001,-185.678"/>
<text text-anchor="middle" x="58" y="-195" font-family="Helvetica,sans-Serif" font-size="10.00"> +value</text>
</g>
</g>
</svg>
