<?xml version="1.0" encoding="UTF-8" standalone="no"?>
<!DOCTYPE svg PUBLIC "-//W3C//DTD SVG 1.1//EN"
 "http://www.w3.org/Graphics/SVG/1.1/DTD/svg11.dtd">
<!-- Generated by graphviz version 2.38.0 (20140413.2041)
 -->
<!-- Title: en61107_response_t Pages: 1 -->
<svg width="302pt" height="336pt"
 viewBox="0.00 0.00 302.00 336.00" xmlns="http://www.w3.org/2000/svg" xmlns:xlink="http://www.w3.org/1999/xlink">
<g id="graph0" class="graph" transform="scale(1 1) rotate(0) translate(4 332)">
<title>en61107_response_t</title>
<polygon fill="white" stroke="none" points="-4,4 -4,-332 298,-332 298,4 -4,4"/>
<!-- Node1 -->
<g id="node1" class="node"><title>Node1</title>
<polygon fill="#bfbfbf" stroke="black" points="96.5,-0.5 96.5,-68.5 203.5,-68.5 203.5,-0.5 96.5,-0.5"/>
<text text-anchor="middle" x="150" y="-56.5" font-family="Helvetica,sans-Serif" font-size="10.00">en61107_response_t</text>
<polyline fill="none" stroke="black" points="96.5,-49.5 203.5,-49.5 "/>
<text text-anchor="start" x="104.5" y="-37.5" font-family="Helvetica,sans-Serif" font-size="10.00">+ customer_no</text>
<text text-anchor="start" x="104.5" y="-26.5" font-family="Helvetica,sans-Serif" font-size="10.00">+ meter_type</text>
<polyline fill="none" stroke="black" points="96.5,-19.5 203.5,-19.5 "/>
<text text-anchor="middle" x="150" y="-7.5" font-family="Helvetica,sans-Serif" font-size="10.00"> </text>
</g>
<!-- Node2 -->
<g id="node2" class="node"><title>Node2</title>
<g id="a_node2"><a xlink:href="structen61107__response__register__t.html" target="_top" xlink:title="{en61107_response_register_t\n|+ value\l+ unit\l|}">
<polygon fill="white" stroke="black" points="0,-232 0,-300 144,-300 144,-232 0,-232"/>
<text text-anchor="middle" x="72" y="-288" font-family="Helvetica,sans-Serif" font-size="10.00">en61107_response_register_t</text>
<polyline fill="none" stroke="black" points="0,-281 144,-281 "/>
<text text-anchor="start" x="8" y="-269" font-family="Helvetica,sans-Serif" font-size="10.00">+ value</text>
<text text-anchor="start" x="8" y="-258" font-family="Helvetica,sans-Serif" font-size="10.00">+ unit</text>
<polyline fill="none" stroke="black" points="0,-251 144,-251 "/>
<text text-anchor="middle" x="72" y="-239" font-family="Helvetica,sans-Serif" font-size="10.00"> </text>
</a>
</g>
</g>
<!-- Node2&#45;&gt;Node1 -->
<g id="edge1" class="edge"><title>Node2&#45;&gt;Node1</title>
<path fill="none" stroke="#404040" d="M83.3419,-231.629C96.9269,-191.658 119.736,-124.545 134.828,-80.1414"/>
<polygon fill="none" stroke="#404040" points="134.909,-79.9009 133.053,-72.9329 138.771,-68.5392 140.627,-75.5073 134.909,-79.9009"/>
<text text-anchor="middle" x="150.5" y="-178" font-family="Helvetica,sans-Serif" font-size="10.00"> +hr</text>
<text text-anchor="middle" x="150.5" y="-167" font-family="Helvetica,sans-Serif" font-size="10.00">+effect1</text>
<text text-anchor="middle" x="150.5" y="-156" font-family="Helvetica,sans-Serif" font-size="10.00">+tdif</text>
<text text-anchor="middle" x="150.5" y="-145" font-family="Helvetica,sans-Serif" font-size="10.00">+e1</text>
<text text-anchor="middle" x="150.5" y="-134" font-family="Helvetica,sans-Serif" font-size="10.00">+v1</text>
<text text-anchor="middle" x="150.5" y="-123" font-family="Helvetica,sans-Serif" font-size="10.00">+flow1</text>
<text text-anchor="middle" x="150.5" y="-112" font-family="Helvetica,sans-Serif" font-size="10.00">+t1</text>
<text text-anchor="middle" x="150.5" y="-101" font-family="Helvetica,sans-Serif" font-size="10.00">+t2</text>
<text text-anchor="middle" x="150.5" y="-90" font-family="Helvetica,sans-Serif" font-size="10.00">+t3</text>
</g>
<!-- Node3 -->
<g id="node3" class="node"><title>Node3</title>
<g id="a_node3"><a xlink:href="structen61107__meter__program__t.html" target="_top" xlink:title="{en61107_meter_program_t\n|+ a\l+ b\l+ ccc\l+ dd\l+ e\l+ ff\l+ gg\l|}">
<polygon fill="white" stroke="black" points="162,-204.5 162,-327.5 294,-327.5 294,-204.5 162,-204.5"/>
<text text-anchor="middle" x="228" y="-315.5" font-family="Helvetica,sans-Serif" font-size="10.00">en61107_meter_program_t</text>
<polyline fill="none" stroke="black" points="162,-308.5 294,-308.5 "/>
<text text-anchor="start" x="170" y="-296.5" font-family="Helvetica,sans-Serif" font-size="10.00">+ a</text>
<text text-anchor="start" x="170" y="-285.5" font-family="Helvetica,sans-Serif" font-size="10.00">+ b</text>
<text text-anchor="start" x="170" y="-274.5" font-family="Helvetica,sans-Serif" font-size="10.00">+ ccc</text>
<text text-anchor="start" x="170" y="-263.5" font-family="Helvetica,sans-Serif" font-size="10.00">+ dd</text>
<text text-anchor="start" x="170" y="-252.5" font-family="Helvetica,sans-Serif" font-size="10.00">+ e</text>
<text text-anchor="start" x="170" y="-241.5" font-family="Helvetica,sans-Serif" font-size="10.00">+ ff</text>
<text text-anchor="start" x="170" y="-230.5" font-family="Helvetica,sans-Serif" font-size="10.00">+ gg</text>
<polyline fill="none" stroke="black" points="162,-223.5 294,-223.5 "/>
<text text-anchor="middle" x="228" y="-211.5" font-family="Helvetica,sans-Serif" font-size="10.00"> </text>
</a>
</g>
</g>
<!-- Node3&#45;&gt;Node1 -->
<g id="edge2" class="edge"><title>Node3&#45;&gt;Node1</title>
<path fill="none" stroke="#404040" d="M211.197,-204.244C201.114,-169.554 187.465,-125.446 173,-87 172.124,-84.673 171.196,-82.3009 170.235,-79.9157"/>
<polygon fill="none" stroke="#404040" points="170.204,-79.8429 164.194,-75.8576 165.562,-68.7773 171.572,-72.7626 170.204,-79.8429"/>
<text text-anchor="middle" x="241.5" y="-134" font-family="Helvetica,sans-Serif" font-size="10.00"> +meter_program</text>
</g>
</g>
</svg>
