<?xml version="1.0" encoding="UTF-8" standalone="no"?>
<!DOCTYPE svg PUBLIC "-//W3C//DTD SVG 1.1//EN"
 "http://www.w3.org/Graphics/SVG/1.1/DTD/svg11.dtd">
<!-- Generated by graphviz version 2.38.0 (20140413.2041)
 -->
<!-- Title: QUEUE Pages: 1 -->
<svg width="70pt" height="215pt"
 viewBox="0.00 0.00 70.00 215.00" xmlns="http://www.w3.org/2000/svg" xmlns:xlink="http://www.w3.org/1999/xlink">
<g id="graph0" class="graph" transform="scale(1 1) rotate(0) translate(4 211)">
<title>QUEUE</title>
<polygon fill="white" stroke="none" points="-4,4 -4,-211 66,-211 66,4 -4,4"/>
<!-- Node1 -->
<g id="node1" class="node"><title>Node1</title>
<polygon fill="#bfbfbf" stroke="black" points="4.5,-0.5 4.5,-57.5 57.5,-57.5 57.5,-0.5 4.5,-0.5"/>
<text text-anchor="middle" x="31" y="-45.5" font-family="Helvetica,sans-Serif" font-size="10.00">QUEUE</text>
<polyline fill="none" stroke="black" points="4.5,-38.5 57.5,-38.5 "/>
<text text-anchor="start" x="12.5" y="-26.5" font-family="Helvetica,sans-Serif" font-size="10.00">+ buf</text>
<polyline fill="none" stroke="black" points="4.5,-19.5 57.5,-19.5 "/>
<text text-anchor="middle" x="31" y="-7.5" font-family="Helvetica,sans-Serif" font-size="10.00"> </text>
</g>
<!-- Node2 -->
<g id="node2" class="node"><title>Node2</title>
<g id="a_node2"><a xlink:href="struct_r_i_n_g_b_u_f.html" target="_top" xlink:title="{RINGBUF\n|+ p_o\l+ p_r\l+ p_w\l+ fill_cnt\l+ size\l|}">
<polygon fill="white" stroke="black" points="-3.55271e-15,-105.5 -3.55271e-15,-206.5 62,-206.5 62,-105.5 -3.55271e-15,-105.5"/>
<text text-anchor="middle" x="31" y="-194.5" font-family="Helvetica,sans-Serif" font-size="10.00">RINGBUF</text>
<polyline fill="none" stroke="black" points="-3.55271e-15,-187.5 62,-187.5 "/>
<text text-anchor="start" x="8" y="-175.5" font-family="Helvetica,sans-Serif" font-size="10.00">+ p_o</text>
<text text-anchor="start" x="8" y="-164.5" font-family="Helvetica,sans-Serif" font-size="10.00">+ p_r</text>
<text text-anchor="start" x="8" y="-153.5" font-family="Helvetica,sans-Serif" font-size="10.00">+ p_w</text>
<text text-anchor="start" x="8" y="-142.5" font-family="Helvetica,sans-Serif" font-size="10.00">+ fill_cnt</text>
<text text-anchor="start" x="8" y="-131.5" font-family="Helvetica,sans-Serif" font-size="10.00">+ size</text>
<polyline fill="none" stroke="black" points="-3.55271e-15,-124.5 62,-124.5 "/>
<text text-anchor="middle" x="31" y="-112.5" font-family="Helvetica,sans-Serif" font-size="10.00"> </text>
</a>
</g>
</g>
<!-- Node2&#45;&gt;Node1 -->
<g id="edge1" class="edge"><title>Node2&#45;&gt;Node1</title>
<path fill="none" stroke="#404040" d="M31,-105.238C31,-93.4645 31,-81.0617 31,-69.7976"/>
<polygon fill="none" stroke="#404040" points="31.0001,-69.6579 27,-63.658 31,-57.6579 35,-63.6579 31.0001,-69.6579"/>
<text text-anchor="middle" x="40" y="-79" font-family="Helvetica,sans-Serif" font-size="10.00"> +rb</text>
</g>
</g>
</svg>
