<?xml version="1.0" encoding="UTF-8" standalone="no"?>
<!DOCTYPE svg PUBLIC "-//W3C//DTD SVG 1.1//EN"
 "http://www.w3.org/Graphics/SVG/1.1/DTD/svg11.dtd">
<!-- Generated by graphviz version 2.38.0 (20140413.2041)
 -->
<!-- Title: esp&#45;open&#45;lwip/lwip/core/sys.c Pages: 1 -->
<svg width="309pt" height="655pt"
 viewBox="0.00 0.00 308.87 655.00" xmlns="http://www.w3.org/2000/svg" xmlns:xlink="http://www.w3.org/1999/xlink">
<g id="graph0" class="graph" transform="scale(1 1) rotate(0) translate(4 651)">
<title>esp&#45;open&#45;lwip/lwip/core/sys.c</title>
<polygon fill="white" stroke="none" points="-4,4 -4,-651 304.867,-651 304.867,4 -4,4"/>
<!-- Node0 -->
<g id="node1" class="node"><title>Node0</title>
<polygon fill="#bfbfbf" stroke="black" points="144.5,-616.5 144.5,-646.5 241.5,-646.5 241.5,-616.5 144.5,-616.5"/>
<text text-anchor="start" x="152.5" y="-634.5" font-family="Helvetica,sans-Serif" font-size="10.00">esp&#45;open&#45;lwip/lwip</text>
<text text-anchor="middle" x="193" y="-623.5" font-family="Helvetica,sans-Serif" font-size="10.00">/core/sys.c</text>
</g>
<!-- Node1 -->
<g id="node2" class="node"><title>Node1</title>
<g id="a_node2"><a xlink:href="opt_8h.html" target="_top" xlink:title="lwip/opt.h">
<polygon fill="white" stroke="black" points="100.5,-448.5 100.5,-467.5 159.5,-467.5 159.5,-448.5 100.5,-448.5"/>
<text text-anchor="middle" x="130" y="-455.5" font-family="Helvetica,sans-Serif" font-size="10.00">lwip/opt.h</text>
</a>
</g>
</g>
<!-- Node0&#45;&gt;Node1 -->
<g id="edge1" class="edge"><title>Node0&#45;&gt;Node1</title>
<path fill="none" stroke="midnightblue" d="M207.384,-616.27C230.325,-591.81 270.166,-540.871 245,-504 228.195,-479.378 195.72,-468.228 169.555,-463.178"/>
<polygon fill="midnightblue" stroke="midnightblue" points="169.965,-459.698 159.52,-461.472 168.792,-466.599 169.965,-459.698"/>
</g>
<!-- Node15 -->
<g id="node16" class="node"><title>Node15</title>
<g id="a_node16"><a xlink:href="sys_8h.html" target="_top" xlink:title="lwip/sys.h">
<polygon fill="white" stroke="black" points="91.5,-560.5 91.5,-579.5 152.5,-579.5 152.5,-560.5 91.5,-560.5"/>
<text text-anchor="middle" x="122" y="-567.5" font-family="Helvetica,sans-Serif" font-size="10.00">lwip/sys.h</text>
</a>
</g>
</g>
<!-- Node0&#45;&gt;Node15 -->
<g id="edge18" class="edge"><title>Node0&#45;&gt;Node15</title>
<path fill="none" stroke="midnightblue" d="M176.174,-616.399C165.325,-607.308 151.223,-595.49 140.127,-586.191"/>
<polygon fill="midnightblue" stroke="midnightblue" points="142.244,-583.398 132.331,-579.658 137.748,-588.763 142.244,-583.398"/>
</g>
<!-- Node2 -->
<g id="node3" class="node"><title>Node2</title>
<g id="a_node3"><a xlink:href="lwipopts_8h.html" target="_top" xlink:title="lwipopts.h">
<polygon fill="white" stroke="black" points="163.5,-336.5 163.5,-355.5 224.5,-355.5 224.5,-336.5 163.5,-336.5"/>
<text text-anchor="middle" x="194" y="-343.5" font-family="Helvetica,sans-Serif" font-size="10.00">lwipopts.h</text>
</a>
</g>
</g>
<!-- Node1&#45;&gt;Node2 -->
<g id="edge2" class="edge"><title>Node1&#45;&gt;Node2</title>
<path fill="none" stroke="midnightblue" d="M141.608,-448.233C151.804,-439.949 166.327,-426.638 175,-412 183.521,-397.618 188.438,-379.16 191.126,-365.591"/>
<polygon fill="midnightblue" stroke="midnightblue" points="194.609,-365.994 192.889,-355.539 187.714,-364.784 194.609,-365.994"/>
</g>
<!-- Node3 -->
<g id="node4" class="node"><title>Node3</title>
<g id="a_node4"><a xlink:href="esp-open-sdk_2esp-open-lwip_2include_2lwip_2debug_8h.html" target="_top" xlink:title="lwip/debug.h">
<polygon fill="white" stroke="black" points="94.5,-392.5 94.5,-411.5 165.5,-411.5 165.5,-392.5 94.5,-392.5"/>
<text text-anchor="middle" x="130" y="-399.5" font-family="Helvetica,sans-Serif" font-size="10.00">lwip/debug.h</text>
</a>
</g>
</g>
<!-- Node1&#45;&gt;Node3 -->
<g id="edge3" class="edge"><title>Node1&#45;&gt;Node3</title>
<path fill="none" stroke="midnightblue" d="M130,-448.083C130,-441.006 130,-430.861 130,-421.986"/>
<polygon fill="midnightblue" stroke="midnightblue" points="133.5,-421.751 130,-411.751 126.5,-421.751 133.5,-421.751"/>
</g>
<!-- Node3&#45;&gt;Node2 -->
<g id="edge4" class="edge"><title>Node3&#45;&gt;Node2</title>
<path fill="none" stroke="midnightblue" d="M140.283,-392.324C149.836,-384.263 164.28,-372.077 175.784,-362.369"/>
<polygon fill="midnightblue" stroke="midnightblue" points="178.144,-364.958 183.53,-355.834 173.63,-359.608 178.144,-364.958"/>
</g>
<!-- Node4 -->
<g id="node5" class="node"><title>Node4</title>
<g id="a_node5"><a xlink:href="arch_8h.html" target="_top" xlink:title="lwip/arch.h">
<polygon fill="white" stroke="black" points="81,-336.5 81,-355.5 145,-355.5 145,-336.5 81,-336.5"/>
<text text-anchor="middle" x="113" y="-343.5" font-family="Helvetica,sans-Serif" font-size="10.00">lwip/arch.h</text>
</a>
</g>
</g>
<!-- Node3&#45;&gt;Node4 -->
<g id="edge5" class="edge"><title>Node3&#45;&gt;Node4</title>
<path fill="none" stroke="midnightblue" d="M127.193,-392.083C124.915,-384.849 121.629,-374.409 118.792,-365.397"/>
<polygon fill="midnightblue" stroke="midnightblue" points="122.096,-364.239 115.755,-355.751 115.419,-366.341 122.096,-364.239"/>
</g>
<!-- Node5 -->
<g id="node6" class="node"><title>Node5</title>
<g id="a_node6"><a xlink:href="cc_8h.html" target="_top" xlink:title="arch/cc.h">
<polygon fill="white" stroke="black" points="104.5,-280.5 104.5,-299.5 161.5,-299.5 161.5,-280.5 104.5,-280.5"/>
<text text-anchor="middle" x="133" y="-287.5" font-family="Helvetica,sans-Serif" font-size="10.00">arch/cc.h</text>
</a>
</g>
</g>
<!-- Node4&#45;&gt;Node5 -->
<g id="edge6" class="edge"><title>Node4&#45;&gt;Node5</title>
<path fill="none" stroke="midnightblue" d="M116.303,-336.083C118.982,-328.849 122.849,-318.409 126.186,-309.397"/>
<polygon fill="midnightblue" stroke="midnightblue" points="129.568,-310.344 129.759,-299.751 123.004,-307.913 129.568,-310.344"/>
</g>
<!-- Node6 -->
<g id="node7" class="node"><title>Node6</title>
<g id="a_node7"><a xlink:href="c__types_8h.html" target="_top" xlink:title="c_types.h">
<polygon fill="white" stroke="black" points="191.5,-56.5 191.5,-75.5 250.5,-75.5 250.5,-56.5 191.5,-56.5"/>
<text text-anchor="middle" x="221" y="-63.5" font-family="Helvetica,sans-Serif" font-size="10.00">c_types.h</text>
</a>
</g>
</g>
<!-- Node5&#45;&gt;Node6 -->
<g id="edge7" class="edge"><title>Node5&#45;&gt;Node6</title>
<path fill="none" stroke="midnightblue" d="M161.628,-280.736C199.988,-267.94 266.533,-239.294 295,-188 316.657,-148.976 270.553,-104.556 241.783,-81.943"/>
<polygon fill="midnightblue" stroke="midnightblue" points="243.585,-78.9168 233.504,-75.6553 239.351,-84.4911 243.585,-78.9168"/>
</g>
<!-- Node9 -->
<g id="node10" class="node"><title>Node9</title>
<g id="a_node10"><a xlink:href="ets__sys_8h.html" target="_top" xlink:title="ets_sys.h">
<polygon fill="white" stroke="black" points="179.5,-112.5 179.5,-131.5 238.5,-131.5 238.5,-112.5 179.5,-112.5"/>
<text text-anchor="middle" x="209" y="-119.5" font-family="Helvetica,sans-Serif" font-size="10.00">ets_sys.h</text>
</a>
</g>
</g>
<!-- Node5&#45;&gt;Node9 -->
<g id="edge10" class="edge"><title>Node5&#45;&gt;Node9</title>
<path fill="none" stroke="midnightblue" d="M120.279,-280.479C91.6692,-260.275 27.015,-208.149 57,-168 82.7054,-133.582 133.574,-124.405 169.363,-122.485"/>
<polygon fill="midnightblue" stroke="midnightblue" points="169.618,-125.978 179.482,-122.112 169.36,-118.983 169.618,-125.978"/>
</g>
<!-- Node11 -->
<g id="node12" class="node"><title>Node11</title>
<g id="a_node12"><a xlink:href="osapi_8h.html" target="_top" xlink:title="osapi.h">
<polygon fill="white" stroke="black" points="120,-224.5 120,-243.5 168,-243.5 168,-224.5 120,-224.5"/>
<text text-anchor="middle" x="144" y="-231.5" font-family="Helvetica,sans-Serif" font-size="10.00">osapi.h</text>
</a>
</g>
</g>
<!-- Node5&#45;&gt;Node11 -->
<g id="edge13" class="edge"><title>Node5&#45;&gt;Node11</title>
<path fill="none" stroke="midnightblue" d="M134.816,-280.083C136.274,-272.927 138.371,-262.635 140.193,-253.691"/>
<polygon fill="midnightblue" stroke="midnightblue" points="143.651,-254.248 142.217,-243.751 136.792,-252.851 143.651,-254.248"/>
</g>
<!-- Node7 -->
<g id="node8" class="node"><title>Node7</title>
<polygon fill="white" stroke="#bfbfbf" points="161.5,-0.5 161.5,-19.5 210.5,-19.5 210.5,-0.5 161.5,-0.5"/>
<text text-anchor="middle" x="186" y="-7.5" font-family="Helvetica,sans-Serif" font-size="10.00">stdint.h</text>
</g>
<!-- Node6&#45;&gt;Node7 -->
<g id="edge8" class="edge"><title>Node6&#45;&gt;Node7</title>
<path fill="none" stroke="midnightblue" d="M215.22,-56.083C210.328,-48.5341 203.173,-37.4948 197.167,-28.2298"/>
<polygon fill="midnightblue" stroke="midnightblue" points="200.048,-26.239 191.672,-19.7511 194.174,-30.0463 200.048,-26.239"/>
</g>
<!-- Node8 -->
<g id="node9" class="node"><title>Node8</title>
<polygon fill="white" stroke="#bfbfbf" points="229,-0.5 229,-19.5 285,-19.5 285,-0.5 229,-0.5"/>
<text text-anchor="middle" x="257" y="-7.5" font-family="Helvetica,sans-Serif" font-size="10.00">stdbool.h</text>
</g>
<!-- Node6&#45;&gt;Node8 -->
<g id="edge9" class="edge"><title>Node6&#45;&gt;Node8</title>
<path fill="none" stroke="midnightblue" d="M226.945,-56.083C231.977,-48.5341 239.337,-37.4948 245.513,-28.2298"/>
<polygon fill="midnightblue" stroke="midnightblue" points="248.531,-30.0131 251.166,-19.7511 242.707,-26.1301 248.531,-30.0131"/>
</g>
<!-- Node9&#45;&gt;Node6 -->
<g id="edge11" class="edge"><title>Node9&#45;&gt;Node6</title>
<path fill="none" stroke="midnightblue" d="M210.982,-112.083C212.572,-104.927 214.859,-94.6353 216.846,-85.6911"/>
<polygon fill="midnightblue" stroke="midnightblue" points="220.303,-86.2722 219.055,-75.7511 213.469,-84.7537 220.303,-86.2722"/>
</g>
<!-- Node10 -->
<g id="node11" class="node"><title>Node10</title>
<g id="a_node11"><a xlink:href="eagle__soc_8h.html" target="_top" xlink:title="eagle_soc.h">
<polygon fill="white" stroke="black" points="58.5,-56.5 58.5,-75.5 127.5,-75.5 127.5,-56.5 58.5,-56.5"/>
<text text-anchor="middle" x="93" y="-63.5" font-family="Helvetica,sans-Serif" font-size="10.00">eagle_soc.h</text>
</a>
</g>
</g>
<!-- Node9&#45;&gt;Node10 -->
<g id="edge12" class="edge"><title>Node9&#45;&gt;Node10</title>
<path fill="none" stroke="midnightblue" d="M190.619,-112.444C171.784,-103.675 142.269,-89.9355 120.621,-79.8579"/>
<polygon fill="midnightblue" stroke="midnightblue" points="121.838,-76.5637 111.295,-75.5164 118.883,-82.9098 121.838,-76.5637"/>
</g>
<!-- Node12 -->
<g id="node13" class="node"><title>Node12</title>
<polygon fill="white" stroke="#bfbfbf" points="159.5,-168.5 159.5,-187.5 208.5,-187.5 208.5,-168.5 159.5,-168.5"/>
<text text-anchor="middle" x="184" y="-175.5" font-family="Helvetica,sans-Serif" font-size="10.00">string.h</text>
</g>
<!-- Node11&#45;&gt;Node12 -->
<g id="edge14" class="edge"><title>Node11&#45;&gt;Node12</title>
<path fill="none" stroke="midnightblue" d="M150.605,-224.083C156.255,-216.455 164.545,-205.264 171.451,-195.941"/>
<polygon fill="midnightblue" stroke="midnightblue" points="174.378,-197.87 177.518,-187.751 168.753,-193.703 174.378,-197.87"/>
</g>
<!-- Node13 -->
<g id="node14" class="node"><title>Node13</title>
<g id="a_node14"><a xlink:href="os__type_8h.html" target="_top" xlink:title="os_type.h">
<polygon fill="white" stroke="black" points="226.5,-168.5 226.5,-187.5 285.5,-187.5 285.5,-168.5 226.5,-168.5"/>
<text text-anchor="middle" x="256" y="-175.5" font-family="Helvetica,sans-Serif" font-size="10.00">os_type.h</text>
</a>
</g>
</g>
<!-- Node11&#45;&gt;Node13 -->
<g id="edge15" class="edge"><title>Node11&#45;&gt;Node13</title>
<path fill="none" stroke="midnightblue" d="M161.995,-224.324C180.038,-215.625 208.047,-202.12 228.803,-192.113"/>
<polygon fill="midnightblue" stroke="midnightblue" points="230.562,-195.15 238.05,-187.655 227.522,-188.845 230.562,-195.15"/>
</g>
<!-- Node14 -->
<g id="node15" class="node"><title>Node14</title>
<polygon fill="white" stroke="#bfbfbf" points="66.5,-168.5 66.5,-187.5 141.5,-187.5 141.5,-168.5 66.5,-168.5"/>
<text text-anchor="middle" x="104" y="-175.5" font-family="Helvetica,sans-Serif" font-size="10.00">user_config.h</text>
</g>
<!-- Node11&#45;&gt;Node14 -->
<g id="edge17" class="edge"><title>Node11&#45;&gt;Node14</title>
<path fill="none" stroke="midnightblue" d="M137.395,-224.083C131.745,-216.455 123.455,-205.264 116.549,-195.941"/>
<polygon fill="midnightblue" stroke="midnightblue" points="119.247,-193.703 110.482,-187.751 113.622,-197.87 119.247,-193.703"/>
</g>
<!-- Node13&#45;&gt;Node9 -->
<g id="edge16" class="edge"><title>Node13&#45;&gt;Node9</title>
<path fill="none" stroke="midnightblue" d="M248.239,-168.083C241.463,-160.298 231.457,-148.801 223.245,-139.367"/>
<polygon fill="midnightblue" stroke="midnightblue" points="225.822,-136.996 216.617,-131.751 220.542,-141.592 225.822,-136.996"/>
</g>
<!-- Node15&#45;&gt;Node1 -->
<g id="edge19" class="edge"><title>Node15&#45;&gt;Node1</title>
<path fill="none" stroke="midnightblue" d="M122.628,-560.368C123.919,-542.617 126.897,-501.666 128.647,-477.597"/>
<polygon fill="midnightblue" stroke="midnightblue" points="132.141,-477.819 129.375,-467.591 125.159,-477.311 132.141,-477.819"/>
</g>
<!-- Node15&#45;&gt;Node10 -->
<g id="edge20" class="edge"><title>Node15&#45;&gt;Node10</title>
<path fill="none" stroke="midnightblue" d="M91.9199,-560.459C71.9079,-553.46 46.2292,-541.772 29,-524 6.98109,-501.287 0,-490.634 0,-459 0,-459 0,-459 0,-177 0,-134.311 41.351,-99.6429 68.9065,-81.2801"/>
<polygon fill="midnightblue" stroke="midnightblue" points="71.1063,-84.0278 77.6429,-75.6897 67.3333,-78.1316 71.1063,-84.0278"/>
</g>
<!-- Node16 -->
<g id="node17" class="node"><title>Node16</title>
<g id="a_node17"><a xlink:href="err_8h.html" target="_top" xlink:title="lwip/err.h">
<polygon fill="white" stroke="black" points="38,-504.5 38,-523.5 94,-523.5 94,-504.5 38,-504.5"/>
<text text-anchor="middle" x="66" y="-511.5" font-family="Helvetica,sans-Serif" font-size="10.00">lwip/err.h</text>
</a>
</g>
</g>
<!-- Node15&#45;&gt;Node16 -->
<g id="edge21" class="edge"><title>Node15&#45;&gt;Node16</title>
<path fill="none" stroke="midnightblue" d="M113.003,-560.324C104.806,-552.42 92.4945,-540.548 82.528,-530.938"/>
<polygon fill="midnightblue" stroke="midnightblue" points="84.789,-528.256 75.1611,-523.834 79.9301,-533.295 84.789,-528.256"/>
</g>
<!-- Node17 -->
<g id="node18" class="node"><title>Node17</title>
<g id="a_node18"><a xlink:href="sys__arch_8h.html" target="_top" xlink:title="arch/sys_arch.h">
<polygon fill="white" stroke="black" points="150,-504.5 150,-523.5 236,-523.5 236,-504.5 150,-504.5"/>
<text text-anchor="middle" x="193" y="-511.5" font-family="Helvetica,sans-Serif" font-size="10.00">arch/sys_arch.h</text>
</a>
</g>
</g>
<!-- Node15&#45;&gt;Node17 -->
<g id="edge24" class="edge"><title>Node15&#45;&gt;Node17</title>
<path fill="none" stroke="midnightblue" d="M133.407,-560.324C144.109,-552.185 160.341,-539.839 173.163,-530.087"/>
<polygon fill="midnightblue" stroke="midnightblue" points="175.544,-532.673 181.385,-523.834 171.307,-527.102 175.544,-532.673"/>
</g>
<!-- Node16&#45;&gt;Node1 -->
<g id="edge22" class="edge"><title>Node16&#45;&gt;Node1</title>
<path fill="none" stroke="midnightblue" d="M76.2827,-504.324C85.8363,-496.263 100.28,-484.077 111.784,-474.369"/>
<polygon fill="midnightblue" stroke="midnightblue" points="114.144,-476.958 119.53,-467.834 109.63,-471.608 114.144,-476.958"/>
</g>
<!-- Node16&#45;&gt;Node4 -->
<g id="edge23" class="edge"><title>Node16&#45;&gt;Node4</title>
<path fill="none" stroke="midnightblue" d="M66.1803,-504.494C66.8515,-484.321 70.0222,-432.258 85,-392 88.6832,-382.1 94.6935,-372.03 100.203,-363.933"/>
<polygon fill="midnightblue" stroke="midnightblue" points="103.09,-365.914 106.06,-355.744 97.396,-361.842 103.09,-365.914"/>
</g>
</g>
</svg>
