<?xml version="1.0" encoding="UTF-8" standalone="no"?>
<!DOCTYPE svg PUBLIC "-//W3C//DTD SVG 1.1//EN"
 "http://www.w3.org/Graphics/SVG/1.1/DTD/svg11.dtd">
<!-- Generated by graphviz version 2.38.0 (20140413.2041)
 -->
<!-- Title: esp&#45;open&#45;lwip/include/lwip/sys.h Pages: 1 -->
<svg width="1041pt" height="240pt"
 viewBox="0.00 0.00 1041.00 240.00" xmlns="http://www.w3.org/2000/svg" xmlns:xlink="http://www.w3.org/1999/xlink">
<g id="graph0" class="graph" transform="scale(1 1) rotate(0) translate(4 236)">
<title>esp&#45;open&#45;lwip/include/lwip/sys.h</title>
<polygon fill="white" stroke="none" points="-4,4 -4,-236 1037,-236 1037,4 -4,4"/>
<!-- Node17 -->
<g id="node1" class="node"><title>Node17</title>
<polygon fill="#bfbfbf" stroke="black" points="507.5,-201.5 507.5,-231.5 617.5,-231.5 617.5,-201.5 507.5,-201.5"/>
<text text-anchor="start" x="515.5" y="-219.5" font-family="Helvetica,sans-Serif" font-size="10.00">esp&#45;open&#45;lwip/include</text>
<text text-anchor="middle" x="562.5" y="-208.5" font-family="Helvetica,sans-Serif" font-size="10.00">/lwip/sys.h</text>
</g>
<!-- Node18 -->
<g id="node2" class="node"><title>Node18</title>
<g id="a_node2"><a xlink:href="tcpip_8h.html" target="_top" xlink:title="esp&#45;open&#45;lwip/include\l/lwip/tcpip.h">
<polygon fill="white" stroke="black" points="50.5,-67.5 50.5,-97.5 160.5,-97.5 160.5,-67.5 50.5,-67.5"/>
<text text-anchor="start" x="58.5" y="-85.5" font-family="Helvetica,sans-Serif" font-size="10.00">esp&#45;open&#45;lwip/include</text>
<text text-anchor="middle" x="105.5" y="-74.5" font-family="Helvetica,sans-Serif" font-size="10.00">/lwip/tcpip.h</text>
</a>
</g>
</g>
<!-- Node17&#45;&gt;Node18 -->
<g id="edge1" class="edge"><title>Node17&#45;&gt;Node18</title>
<path fill="none" stroke="midnightblue" d="M497.255,-210.818C434.664,-204.903 338.169,-192.025 258.5,-165 208.623,-148.081 155.441,-116.209 126.779,-97.733"/>
<polygon fill="midnightblue" stroke="midnightblue" points="497.107,-214.319 507.384,-211.742 497.743,-207.348 497.107,-214.319"/>
</g>
<!-- Node19 -->
<g id="node3" class="node"><title>Node19</title>
<g id="a_node3"><a xlink:href="tcpip_8c.html" target="_top" xlink:title="esp&#45;open&#45;lwip/lwip\l/api/tcpip.c">
<polygon fill="white" stroke="black" points="0,-0.5 0,-30.5 97,-30.5 97,-0.5 0,-0.5"/>
<text text-anchor="start" x="8" y="-18.5" font-family="Helvetica,sans-Serif" font-size="10.00">esp&#45;open&#45;lwip/lwip</text>
<text text-anchor="middle" x="48.5" y="-7.5" font-family="Helvetica,sans-Serif" font-size="10.00">/api/tcpip.c</text>
</a>
</g>
</g>
<!-- Node17&#45;&gt;Node19 -->
<g id="edge10" class="edge"><title>Node17&#45;&gt;Node19</title>
<path fill="none" stroke="midnightblue" d="M497.034,-212.72C420.847,-208.123 291.894,-196.093 185.5,-165 117.746,-145.199 79.4523,-157.518 41.5,-98 28.4433,-77.5243 35.9528,-48.039 42.379,-30.7163"/>
<polygon fill="midnightblue" stroke="midnightblue" points="497.241,-216.238 507.427,-213.321 497.645,-209.25 497.241,-216.238"/>
</g>
<!-- Node20 -->
<g id="node4" class="node"><title>Node20</title>
<g id="a_node4"><a xlink:href="memp_8c.html" target="_top" xlink:title="esp&#45;open&#45;lwip/lwip\l/core/memp.c">
<polygon fill="white" stroke="black" points="140,-0.5 140,-30.5 237,-30.5 237,-0.5 140,-0.5"/>
<text text-anchor="start" x="148" y="-18.5" font-family="Helvetica,sans-Serif" font-size="10.00">esp&#45;open&#45;lwip/lwip</text>
<text text-anchor="middle" x="188.5" y="-7.5" font-family="Helvetica,sans-Serif" font-size="10.00">/core/memp.c</text>
</a>
</g>
</g>
<!-- Node17&#45;&gt;Node20 -->
<g id="edge13" class="edge"><title>Node17&#45;&gt;Node20</title>
<path fill="none" stroke="midnightblue" d="M569.139,-191.358C576.524,-158.636 583.677,-100.46 552.5,-67 510.693,-22.1311 326.395,-16.1729 237.198,-15.9879"/>
<polygon fill="midnightblue" stroke="midnightblue" points="565.658,-190.862 566.681,-201.407 572.457,-192.525 565.658,-190.862"/>
</g>
<!-- Node21 -->
<g id="node5" class="node"><title>Node21</title>
<g id="a_node5"><a xlink:href="timers_8h.html" target="_top" xlink:title="esp&#45;open&#45;lwip/include\l/lwip/timers.h">
<polygon fill="white" stroke="black" points="267.5,-134.5 267.5,-164.5 377.5,-164.5 377.5,-134.5 267.5,-134.5"/>
<text text-anchor="start" x="275.5" y="-152.5" font-family="Helvetica,sans-Serif" font-size="10.00">esp&#45;open&#45;lwip/include</text>
<text text-anchor="middle" x="322.5" y="-141.5" font-family="Helvetica,sans-Serif" font-size="10.00">/lwip/timers.h</text>
</a>
</g>
</g>
<!-- Node17&#45;&gt;Node21 -->
<g id="edge4" class="edge"><title>Node17&#45;&gt;Node21</title>
<path fill="none" stroke="midnightblue" d="M501.022,-198.85C461.893,-188.252 411.771,-174.677 374.602,-164.611"/>
<polygon fill="midnightblue" stroke="midnightblue" points="500.152,-202.24 510.719,-201.476 501.982,-195.483 500.152,-202.24"/>
</g>
<!-- Node22 -->
<g id="node6" class="node"><title>Node22</title>
<g id="a_node6"><a xlink:href="init_8c.html" target="_top" xlink:title="esp&#45;open&#45;lwip/lwip\l/core/init.c">
<polygon fill="white" stroke="black" points="447,-67.5 447,-97.5 544,-97.5 544,-67.5 447,-67.5"/>
<text text-anchor="start" x="455" y="-85.5" font-family="Helvetica,sans-Serif" font-size="10.00">esp&#45;open&#45;lwip/lwip</text>
<text text-anchor="middle" x="495.5" y="-74.5" font-family="Helvetica,sans-Serif" font-size="10.00">/core/init.c</text>
</a>
</g>
</g>
<!-- Node17&#45;&gt;Node22 -->
<g id="edge11" class="edge"><title>Node17&#45;&gt;Node22</title>
<path fill="none" stroke="midnightblue" d="M550.631,-192.116C536.706,-164.682 514.07,-120.086 502.619,-97.5247"/>
<polygon fill="midnightblue" stroke="midnightblue" points="547.683,-194.041 555.33,-201.374 553.925,-190.872 547.683,-194.041"/>
</g>
<!-- Node25 -->
<g id="node9" class="node"><title>Node25</title>
<g id="a_node9"><a xlink:href="mem_8c.html" target="_top" xlink:title="esp&#45;open&#45;lwip/lwip\l/core/mem.c">
<polygon fill="white" stroke="black" points="591,-134.5 591,-164.5 688,-164.5 688,-134.5 591,-134.5"/>
<text text-anchor="start" x="599" y="-152.5" font-family="Helvetica,sans-Serif" font-size="10.00">esp&#45;open&#45;lwip/lwip</text>
<text text-anchor="middle" x="639.5" y="-141.5" font-family="Helvetica,sans-Serif" font-size="10.00">/core/mem.c</text>
</a>
</g>
</g>
<!-- Node17&#45;&gt;Node25 -->
<g id="edge12" class="edge"><title>Node17&#45;&gt;Node25</title>
<path fill="none" stroke="midnightblue" d="M586.923,-194.883C598.624,-185.005 612.338,-173.429 622.825,-164.577"/>
<polygon fill="midnightblue" stroke="midnightblue" points="584.592,-192.271 579.208,-201.396 589.107,-197.62 584.592,-192.271"/>
</g>
<!-- Node26 -->
<g id="node10" class="node"><title>Node26</title>
<g id="a_node10"><a xlink:href="pbuf_8c.html" target="_top" xlink:title="esp&#45;open&#45;lwip/lwip\l/core/pbuf.c">
<polygon fill="white" stroke="black" points="706,-134.5 706,-164.5 803,-164.5 803,-134.5 706,-134.5"/>
<text text-anchor="start" x="714" y="-152.5" font-family="Helvetica,sans-Serif" font-size="10.00">esp&#45;open&#45;lwip/lwip</text>
<text text-anchor="middle" x="754.5" y="-141.5" font-family="Helvetica,sans-Serif" font-size="10.00">/core/pbuf.c</text>
</a>
</g>
</g>
<!-- Node17&#45;&gt;Node26 -->
<g id="edge14" class="edge"><title>Node17&#45;&gt;Node26</title>
<path fill="none" stroke="midnightblue" d="M613.922,-198.092C644.916,-187.599 683.879,-174.408 712.92,-164.577"/>
<polygon fill="midnightblue" stroke="midnightblue" points="612.511,-194.874 604.161,-201.396 614.755,-201.504 612.511,-194.874"/>
</g>
<!-- Node27 -->
<g id="node11" class="node"><title>Node27</title>
<g id="a_node11"><a xlink:href="sys_8c.html" target="_top" xlink:title="esp&#45;open&#45;lwip/lwip\l/core/sys.c">
<polygon fill="white" stroke="black" points="821,-134.5 821,-164.5 918,-164.5 918,-134.5 821,-134.5"/>
<text text-anchor="start" x="829" y="-152.5" font-family="Helvetica,sans-Serif" font-size="10.00">esp&#45;open&#45;lwip/lwip</text>
<text text-anchor="middle" x="869.5" y="-141.5" font-family="Helvetica,sans-Serif" font-size="10.00">/core/sys.c</text>
</a>
</g>
</g>
<!-- Node17&#45;&gt;Node27 -->
<g id="edge15" class="edge"><title>Node17&#45;&gt;Node27</title>
<path fill="none" stroke="midnightblue" d="M627.918,-203.21C678.466,-193.49 750.1,-179.23 812.5,-165 815.188,-164.387 817.943,-163.742 820.721,-163.079"/>
<polygon fill="midnightblue" stroke="midnightblue" points="626.943,-199.833 617.781,-205.153 628.261,-206.708 626.943,-199.833"/>
</g>
<!-- Node28 -->
<g id="node12" class="node"><title>Node28</title>
<g id="a_node12"><a xlink:href="sys__arch_8c.html" target="_top" xlink:title="esp&#45;open&#45;lwip/lwip\l/core/sys_arch.c">
<polygon fill="white" stroke="black" points="936,-134.5 936,-164.5 1033,-164.5 1033,-134.5 936,-134.5"/>
<text text-anchor="start" x="944" y="-152.5" font-family="Helvetica,sans-Serif" font-size="10.00">esp&#45;open&#45;lwip/lwip</text>
<text text-anchor="middle" x="984.5" y="-141.5" font-family="Helvetica,sans-Serif" font-size="10.00">/core/sys_arch.c</text>
</a>
</g>
</g>
<!-- Node17&#45;&gt;Node28 -->
<g id="edge16" class="edge"><title>Node17&#45;&gt;Node28</title>
<path fill="none" stroke="midnightblue" d="M627.549,-208.719C700.833,-200.567 823.319,-185.392 927.5,-165 930.206,-164.47 932.975,-163.891 935.763,-163.279"/>
<polygon fill="midnightblue" stroke="midnightblue" points="627.098,-205.248 617.542,-209.823 627.866,-212.206 627.098,-205.248"/>
</g>
<!-- Node18&#45;&gt;Node19 -->
<g id="edge2" class="edge"><title>Node18&#45;&gt;Node19</title>
<path fill="none" stroke="midnightblue" d="M86.4148,-59.7362C77.9813,-50.119 68.3086,-39.0888 60.844,-30.5765"/>
<polygon fill="midnightblue" stroke="midnightblue" points="83.9071,-62.185 93.1318,-67.396 89.1701,-57.5697 83.9071,-62.185"/>
</g>
<!-- Node18&#45;&gt;Node20 -->
<g id="edge3" class="edge"><title>Node18&#45;&gt;Node20</title>
<path fill="none" stroke="midnightblue" d="M131.463,-61.1677C144.155,-51.2283 159.112,-39.5144 170.525,-30.5765"/>
<polygon fill="midnightblue" stroke="midnightblue" points="129.225,-58.4747 123.51,-67.396 133.541,-63.9859 129.225,-58.4747"/>
</g>
<!-- Node21&#45;&gt;Node18 -->
<g id="edge5" class="edge"><title>Node21&#45;&gt;Node18</title>
<path fill="none" stroke="midnightblue" d="M266.012,-131.58C230.767,-121.022 185.931,-107.592 152.609,-97.6109"/>
<polygon fill="midnightblue" stroke="midnightblue" points="265.098,-134.959 275.681,-134.476 267.106,-128.254 265.098,-134.959"/>
</g>
<!-- Node21&#45;&gt;Node20 -->
<g id="edge7" class="edge"><title>Node21&#45;&gt;Node20</title>
<path fill="none" stroke="midnightblue" d="M257.908,-132.186C239.274,-124.589 220.49,-113.642 207.5,-98 191.442,-78.6635 188.411,-48.2421 188.133,-30.5482"/>
<polygon fill="midnightblue" stroke="midnightblue" points="256.72,-135.479 267.312,-135.756 259.205,-128.935 256.72,-135.479"/>
</g>
<!-- Node21&#45;&gt;Node22 -->
<g id="edge6" class="edge"><title>Node21&#45;&gt;Node22</title>
<path fill="none" stroke="midnightblue" d="M369.56,-130.819C397.367,-120.371 432.094,-107.323 458.035,-97.5765"/>
<polygon fill="midnightblue" stroke="midnightblue" points="368.168,-127.602 360.038,-134.396 370.631,-134.155 368.168,-127.602"/>
</g>
<!-- Node23 -->
<g id="node7" class="node"><title>Node23</title>
<g id="a_node7"><a xlink:href="sntp_8c.html" target="_top" xlink:title="esp&#45;open&#45;lwip/lwip\l/core/sntp.c">
<polygon fill="white" stroke="black" points="217,-67.5 217,-97.5 314,-97.5 314,-67.5 217,-67.5"/>
<text text-anchor="start" x="225" y="-85.5" font-family="Helvetica,sans-Serif" font-size="10.00">esp&#45;open&#45;lwip/lwip</text>
<text text-anchor="middle" x="265.5" y="-74.5" font-family="Helvetica,sans-Serif" font-size="10.00">/core/sntp.c</text>
</a>
</g>
</g>
<!-- Node21&#45;&gt;Node23 -->
<g id="edge8" class="edge"><title>Node21&#45;&gt;Node23</title>
<path fill="none" stroke="midnightblue" d="M303.415,-126.736C294.981,-117.119 285.309,-106.089 277.844,-97.5765"/>
<polygon fill="midnightblue" stroke="midnightblue" points="300.907,-129.185 310.132,-134.396 306.17,-124.57 300.907,-129.185"/>
</g>
<!-- Node24 -->
<g id="node8" class="node"><title>Node24</title>
<g id="a_node8"><a xlink:href="timers_8c.html" target="_top" xlink:title="esp&#45;open&#45;lwip/lwip\l/core/timers.c">
<polygon fill="white" stroke="black" points="332,-67.5 332,-97.5 429,-97.5 429,-67.5 332,-67.5"/>
<text text-anchor="start" x="340" y="-85.5" font-family="Helvetica,sans-Serif" font-size="10.00">esp&#45;open&#45;lwip/lwip</text>
<text text-anchor="middle" x="380.5" y="-74.5" font-family="Helvetica,sans-Serif" font-size="10.00">/core/timers.c</text>
</a>
</g>
</g>
<!-- Node21&#45;&gt;Node24 -->
<g id="edge9" class="edge"><title>Node21&#45;&gt;Node24</title>
<path fill="none" stroke="midnightblue" d="M341.92,-126.736C350.502,-117.119 360.344,-106.089 367.939,-97.5765"/>
<polygon fill="midnightblue" stroke="midnightblue" points="339.132,-124.604 335.085,-134.396 344.355,-129.265 339.132,-124.604"/>
</g>
</g>
</svg>
