<?xml version="1.0" encoding="UTF-8" standalone="no"?>
<!DOCTYPE svg PUBLIC "-//W3C//DTD SVG 1.1//EN"
 "http://www.w3.org/Graphics/SVG/1.1/DTD/svg11.dtd">
<!-- Generated by graphviz version 2.38.0 (20140413.2041)
 -->
<!-- Title: esp&#45;open&#45;lwip/include/lwip/sys.h Pages: 1 -->
<svg width="308pt" height="599pt"
 viewBox="0.00 0.00 307.68 599.00" xmlns="http://www.w3.org/2000/svg" xmlns:xlink="http://www.w3.org/1999/xlink">
<g id="graph0" class="graph" transform="scale(1 1) rotate(0) translate(4 595)">
<title>esp&#45;open&#45;lwip/include/lwip/sys.h</title>
<polygon fill="white" stroke="none" points="-4,4 -4,-595 303.682,-595 303.682,4 -4,4"/>
<!-- Node0 -->
<g id="node1" class="node"><title>Node0</title>
<polygon fill="#bfbfbf" stroke="black" points="15,-560.5 15,-590.5 125,-590.5 125,-560.5 15,-560.5"/>
<text text-anchor="start" x="23" y="-578.5" font-family="Helvetica,sans-Serif" font-size="10.00">esp&#45;open&#45;lwip/include</text>
<text text-anchor="middle" x="70" y="-567.5" font-family="Helvetica,sans-Serif" font-size="10.00">/lwip/sys.h</text>
</g>
<!-- Node1 -->
<g id="node2" class="node"><title>Node1</title>
<g id="a_node2"><a xlink:href="opt_8h.html" target="_top" xlink:title="lwip/opt.h">
<polygon fill="white" stroke="black" points="48.5,-448.5 48.5,-467.5 107.5,-467.5 107.5,-448.5 48.5,-448.5"/>
<text text-anchor="middle" x="78" y="-455.5" font-family="Helvetica,sans-Serif" font-size="10.00">lwip/opt.h</text>
</a>
</g>
</g>
<!-- Node0&#45;&gt;Node1 -->
<g id="edge1" class="edge"><title>Node0&#45;&gt;Node1</title>
<path fill="none" stroke="midnightblue" d="M65.6563,-560.387C61.856,-546.105 57.4539,-523.421 61,-504 62.6876,-494.757 66.175,-484.948 69.5544,-476.855"/>
<polygon fill="midnightblue" stroke="midnightblue" points="72.7635,-478.252 73.6337,-467.693 66.3687,-475.405 72.7635,-478.252"/>
</g>
<!-- Node10 -->
<g id="node11" class="node"><title>Node10</title>
<g id="a_node11"><a xlink:href="eagle__soc_8h.html" target="_top" xlink:title="eagle_soc.h">
<polygon fill="white" stroke="black" points="58.5,-56.5 58.5,-75.5 127.5,-75.5 127.5,-56.5 58.5,-56.5"/>
<text text-anchor="middle" x="93" y="-63.5" font-family="Helvetica,sans-Serif" font-size="10.00">eagle_soc.h</text>
</a>
</g>
</g>
<!-- Node0&#45;&gt;Node10 -->
<g id="edge18" class="edge"><title>Node0&#45;&gt;Node10</title>
<path fill="none" stroke="midnightblue" d="M54.4647,-560.49C33.8422,-540.273 0,-500.736 0,-459 0,-459 0,-459 0,-177 0,-134.311 41.351,-99.6429 68.9065,-81.2801"/>
<polygon fill="midnightblue" stroke="midnightblue" points="71.1063,-84.0278 77.6429,-75.6897 67.3333,-78.1316 71.1063,-84.0278"/>
</g>
<!-- Node15 -->
<g id="node16" class="node"><title>Node15</title>
<g id="a_node16"><a xlink:href="err_8h.html" target="_top" xlink:title="lwip/err.h">
<polygon fill="white" stroke="black" points="70,-504.5 70,-523.5 126,-523.5 126,-504.5 70,-504.5"/>
<text text-anchor="middle" x="98" y="-511.5" font-family="Helvetica,sans-Serif" font-size="10.00">lwip/err.h</text>
</a>
</g>
</g>
<!-- Node0&#45;&gt;Node15 -->
<g id="edge19" class="edge"><title>Node0&#45;&gt;Node15</title>
<path fill="none" stroke="midnightblue" d="M76.6356,-560.399C80.5366,-552.11 85.5039,-541.554 89.667,-532.708"/>
<polygon fill="midnightblue" stroke="midnightblue" points="92.8346,-534.196 93.9258,-523.658 86.5009,-531.216 92.8346,-534.196"/>
</g>
<!-- Node16 -->
<g id="node17" class="node"><title>Node16</title>
<g id="a_node17"><a xlink:href="sys__arch_8h.html" target="_top" xlink:title="arch/sys_arch.h">
<polygon fill="white" stroke="black" points="144,-504.5 144,-523.5 230,-523.5 230,-504.5 144,-504.5"/>
<text text-anchor="middle" x="187" y="-511.5" font-family="Helvetica,sans-Serif" font-size="10.00">arch/sys_arch.h</text>
</a>
</g>
</g>
<!-- Node0&#45;&gt;Node16 -->
<g id="edge22" class="edge"><title>Node0&#45;&gt;Node16</title>
<path fill="none" stroke="midnightblue" d="M97.7274,-560.399C116.832,-550.684 142.058,-537.855 160.82,-528.314"/>
<polygon fill="midnightblue" stroke="midnightblue" points="162.648,-531.311 169.975,-523.658 159.475,-525.071 162.648,-531.311"/>
</g>
<!-- Node2 -->
<g id="node3" class="node"><title>Node2</title>
<g id="a_node3"><a xlink:href="lwipopts_8h.html" target="_top" xlink:title="lwipopts.h">
<polygon fill="white" stroke="black" points="46.5,-336.5 46.5,-355.5 107.5,-355.5 107.5,-336.5 46.5,-336.5"/>
<text text-anchor="middle" x="77" y="-343.5" font-family="Helvetica,sans-Serif" font-size="10.00">lwipopts.h</text>
</a>
</g>
</g>
<!-- Node1&#45;&gt;Node2 -->
<g id="edge2" class="edge"><title>Node1&#45;&gt;Node2</title>
<path fill="none" stroke="midnightblue" d="M74.9123,-448.173C71.9482,-439.198 67.6809,-424.827 66,-412 63.932,-396.219 67.3566,-378.403 70.9167,-365.419"/>
<polygon fill="midnightblue" stroke="midnightblue" points="74.2811,-366.385 73.8215,-355.8 67.58,-364.361 74.2811,-366.385"/>
</g>
<!-- Node3 -->
<g id="node4" class="node"><title>Node3</title>
<g id="a_node4"><a xlink:href="esp-open-sdk_2esp-open-lwip_2include_2lwip_2debug_8h.html" target="_top" xlink:title="lwip/debug.h">
<polygon fill="white" stroke="black" points="75.5,-392.5 75.5,-411.5 146.5,-411.5 146.5,-392.5 75.5,-392.5"/>
<text text-anchor="middle" x="111" y="-399.5" font-family="Helvetica,sans-Serif" font-size="10.00">lwip/debug.h</text>
</a>
</g>
</g>
<!-- Node1&#45;&gt;Node3 -->
<g id="edge3" class="edge"><title>Node1&#45;&gt;Node3</title>
<path fill="none" stroke="midnightblue" d="M83.4493,-448.083C88.0145,-440.613 94.6684,-429.724 100.293,-420.52"/>
<polygon fill="midnightblue" stroke="midnightblue" points="103.424,-422.109 105.652,-411.751 97.4511,-418.459 103.424,-422.109"/>
</g>
<!-- Node3&#45;&gt;Node2 -->
<g id="edge4" class="edge"><title>Node3&#45;&gt;Node2</title>
<path fill="none" stroke="midnightblue" d="M105.386,-392.083C100.633,-384.534 93.6819,-373.495 87.8484,-364.23"/>
<polygon fill="midnightblue" stroke="midnightblue" points="90.7999,-362.349 82.5099,-355.751 84.8763,-366.078 90.7999,-362.349"/>
</g>
<!-- Node4 -->
<g id="node5" class="node"><title>Node4</title>
<g id="a_node5"><a xlink:href="arch_8h.html" target="_top" xlink:title="lwip/arch.h">
<polygon fill="white" stroke="black" points="143,-336.5 143,-355.5 207,-355.5 207,-336.5 143,-336.5"/>
<text text-anchor="middle" x="175" y="-343.5" font-family="Helvetica,sans-Serif" font-size="10.00">lwip/arch.h</text>
</a>
</g>
</g>
<!-- Node3&#45;&gt;Node4 -->
<g id="edge5" class="edge"><title>Node3&#45;&gt;Node4</title>
<path fill="none" stroke="midnightblue" d="M121.283,-392.324C130.836,-384.263 145.28,-372.077 156.784,-362.369"/>
<polygon fill="midnightblue" stroke="midnightblue" points="159.144,-364.958 164.53,-355.834 154.63,-359.608 159.144,-364.958"/>
</g>
<!-- Node5 -->
<g id="node6" class="node"><title>Node5</title>
<g id="a_node6"><a xlink:href="cc_8h.html" target="_top" xlink:title="arch/cc.h">
<polygon fill="white" stroke="black" points="148.5,-280.5 148.5,-299.5 205.5,-299.5 205.5,-280.5 148.5,-280.5"/>
<text text-anchor="middle" x="177" y="-287.5" font-family="Helvetica,sans-Serif" font-size="10.00">arch/cc.h</text>
</a>
</g>
</g>
<!-- Node4&#45;&gt;Node5 -->
<g id="edge6" class="edge"><title>Node4&#45;&gt;Node5</title>
<path fill="none" stroke="midnightblue" d="M175.33,-336.083C175.592,-329.006 175.968,-318.861 176.297,-309.986"/>
<polygon fill="midnightblue" stroke="midnightblue" points="179.803,-309.874 176.676,-299.751 172.808,-309.615 179.803,-309.874"/>
</g>
<!-- Node6 -->
<g id="node7" class="node"><title>Node6</title>
<g id="a_node7"><a xlink:href="c__types_8h.html" target="_top" xlink:title="c_types.h">
<polygon fill="white" stroke="black" points="191.5,-56.5 191.5,-75.5 250.5,-75.5 250.5,-56.5 191.5,-56.5"/>
<text text-anchor="middle" x="221" y="-63.5" font-family="Helvetica,sans-Serif" font-size="10.00">c_types.h</text>
</a>
</g>
</g>
<!-- Node5&#45;&gt;Node6 -->
<g id="edge7" class="edge"><title>Node5&#45;&gt;Node6</title>
<path fill="none" stroke="midnightblue" d="M194.381,-280.46C221.805,-265.881 274.139,-233.315 295,-188 313.57,-147.661 269.252,-104.108 241.435,-81.8883"/>
<polygon fill="midnightblue" stroke="midnightblue" points="243.475,-79.0419 233.42,-75.7046 239.199,-84.5842 243.475,-79.0419"/>
</g>
<!-- Node9 -->
<g id="node10" class="node"><title>Node9</title>
<g id="a_node10"><a xlink:href="ets__sys_8h.html" target="_top" xlink:title="ets_sys.h">
<polygon fill="white" stroke="black" points="179.5,-112.5 179.5,-131.5 238.5,-131.5 238.5,-112.5 179.5,-112.5"/>
<text text-anchor="middle" x="209" y="-119.5" font-family="Helvetica,sans-Serif" font-size="10.00">ets_sys.h</text>
</a>
</g>
</g>
<!-- Node5&#45;&gt;Node9 -->
<g id="edge10" class="edge"><title>Node5&#45;&gt;Node9</title>
<path fill="none" stroke="midnightblue" d="M155.914,-280.409C112.901,-261.65 21.9467,-214.935 57,-168 82.7054,-133.582 133.574,-124.405 169.363,-122.485"/>
<polygon fill="midnightblue" stroke="midnightblue" points="169.618,-125.978 179.482,-122.112 169.36,-118.983 169.618,-125.978"/>
</g>
<!-- Node11 -->
<g id="node12" class="node"><title>Node11</title>
<g id="a_node12"><a xlink:href="osapi_8h.html" target="_top" xlink:title="osapi.h">
<polygon fill="white" stroke="black" points="157,-224.5 157,-243.5 205,-243.5 205,-224.5 157,-224.5"/>
<text text-anchor="middle" x="181" y="-231.5" font-family="Helvetica,sans-Serif" font-size="10.00">osapi.h</text>
</a>
</g>
</g>
<!-- Node5&#45;&gt;Node11 -->
<g id="edge13" class="edge"><title>Node5&#45;&gt;Node11</title>
<path fill="none" stroke="midnightblue" d="M177.661,-280.083C178.185,-273.006 178.936,-262.861 179.594,-253.986"/>
<polygon fill="midnightblue" stroke="midnightblue" points="183.103,-253.982 180.352,-243.751 176.123,-253.465 183.103,-253.982"/>
</g>
<!-- Node7 -->
<g id="node8" class="node"><title>Node7</title>
<polygon fill="white" stroke="#bfbfbf" points="161.5,-0.5 161.5,-19.5 210.5,-19.5 210.5,-0.5 161.5,-0.5"/>
<text text-anchor="middle" x="186" y="-7.5" font-family="Helvetica,sans-Serif" font-size="10.00">stdint.h</text>
</g>
<!-- Node6&#45;&gt;Node7 -->
<g id="edge8" class="edge"><title>Node6&#45;&gt;Node7</title>
<path fill="none" stroke="midnightblue" d="M215.22,-56.083C210.328,-48.5341 203.173,-37.4948 197.167,-28.2298"/>
<polygon fill="midnightblue" stroke="midnightblue" points="200.048,-26.239 191.672,-19.7511 194.174,-30.0463 200.048,-26.239"/>
</g>
<!-- Node8 -->
<g id="node9" class="node"><title>Node8</title>
<polygon fill="white" stroke="#bfbfbf" points="229,-0.5 229,-19.5 285,-19.5 285,-0.5 229,-0.5"/>
<text text-anchor="middle" x="257" y="-7.5" font-family="Helvetica,sans-Serif" font-size="10.00">stdbool.h</text>
</g>
<!-- Node6&#45;&gt;Node8 -->
<g id="edge9" class="edge"><title>Node6&#45;&gt;Node8</title>
<path fill="none" stroke="midnightblue" d="M226.945,-56.083C231.977,-48.5341 239.337,-37.4948 245.513,-28.2298"/>
<polygon fill="midnightblue" stroke="midnightblue" points="248.531,-30.0131 251.166,-19.7511 242.707,-26.1301 248.531,-30.0131"/>
</g>
<!-- Node9&#45;&gt;Node6 -->
<g id="edge11" class="edge"><title>Node9&#45;&gt;Node6</title>
<path fill="none" stroke="midnightblue" d="M210.982,-112.083C212.572,-104.927 214.859,-94.6353 216.846,-85.6911"/>
<polygon fill="midnightblue" stroke="midnightblue" points="220.303,-86.2722 219.055,-75.7511 213.469,-84.7537 220.303,-86.2722"/>
</g>
<!-- Node9&#45;&gt;Node10 -->
<g id="edge12" class="edge"><title>Node9&#45;&gt;Node10</title>
<path fill="none" stroke="midnightblue" d="M190.619,-112.444C171.784,-103.675 142.269,-89.9355 120.621,-79.8579"/>
<polygon fill="midnightblue" stroke="midnightblue" points="121.838,-76.5637 111.295,-75.5164 118.883,-82.9098 121.838,-76.5637"/>
</g>
<!-- Node12 -->
<g id="node13" class="node"><title>Node12</title>
<polygon fill="white" stroke="#bfbfbf" points="159.5,-168.5 159.5,-187.5 208.5,-187.5 208.5,-168.5 159.5,-168.5"/>
<text text-anchor="middle" x="184" y="-175.5" font-family="Helvetica,sans-Serif" font-size="10.00">string.h</text>
</g>
<!-- Node11&#45;&gt;Node12 -->
<g id="edge14" class="edge"><title>Node11&#45;&gt;Node12</title>
<path fill="none" stroke="midnightblue" d="M181.495,-224.083C181.889,-217.006 182.452,-206.861 182.945,-197.986"/>
<polygon fill="midnightblue" stroke="midnightblue" points="186.454,-197.93 183.514,-187.751 179.464,-197.542 186.454,-197.93"/>
</g>
<!-- Node13 -->
<g id="node14" class="node"><title>Node13</title>
<g id="a_node14"><a xlink:href="os__type_8h.html" target="_top" xlink:title="os_type.h">
<polygon fill="white" stroke="black" points="226.5,-168.5 226.5,-187.5 285.5,-187.5 285.5,-168.5 226.5,-168.5"/>
<text text-anchor="middle" x="256" y="-175.5" font-family="Helvetica,sans-Serif" font-size="10.00">os_type.h</text>
</a>
</g>
</g>
<!-- Node11&#45;&gt;Node13 -->
<g id="edge15" class="edge"><title>Node11&#45;&gt;Node13</title>
<path fill="none" stroke="midnightblue" d="M193.05,-224.324C204.463,-216.107 221.831,-203.602 235.435,-193.807"/>
<polygon fill="midnightblue" stroke="midnightblue" points="237.66,-196.517 243.731,-187.834 233.57,-190.837 237.66,-196.517"/>
</g>
<!-- Node14 -->
<g id="node15" class="node"><title>Node14</title>
<polygon fill="white" stroke="#bfbfbf" points="66.5,-168.5 66.5,-187.5 141.5,-187.5 141.5,-168.5 66.5,-168.5"/>
<text text-anchor="middle" x="104" y="-175.5" font-family="Helvetica,sans-Serif" font-size="10.00">user_config.h</text>
</g>
<!-- Node11&#45;&gt;Node14 -->
<g id="edge17" class="edge"><title>Node11&#45;&gt;Node14</title>
<path fill="none" stroke="midnightblue" d="M168.629,-224.324C156.842,-216.058 138.868,-203.453 124.864,-193.632"/>
<polygon fill="midnightblue" stroke="midnightblue" points="126.538,-190.531 116.341,-187.655 122.518,-196.262 126.538,-190.531"/>
</g>
<!-- Node13&#45;&gt;Node9 -->
<g id="edge16" class="edge"><title>Node13&#45;&gt;Node9</title>
<path fill="none" stroke="midnightblue" d="M248.239,-168.083C241.463,-160.298 231.457,-148.801 223.245,-139.367"/>
<polygon fill="midnightblue" stroke="midnightblue" points="225.822,-136.996 216.617,-131.751 220.542,-141.592 225.822,-136.996"/>
</g>
<!-- Node15&#45;&gt;Node1 -->
<g id="edge20" class="edge"><title>Node15&#45;&gt;Node1</title>
<path fill="none" stroke="midnightblue" d="M94.6974,-504.083C92.018,-496.849 88.1514,-486.409 84.8136,-477.397"/>
<polygon fill="midnightblue" stroke="midnightblue" points="87.9965,-475.913 81.2411,-467.751 81.4322,-478.344 87.9965,-475.913"/>
</g>
<!-- Node15&#45;&gt;Node4 -->
<g id="edge21" class="edge"><title>Node15&#45;&gt;Node4</title>
<path fill="none" stroke="midnightblue" d="M103.852,-504.447C115.243,-487.482 140.622,-448.087 156,-412 162.481,-396.79 167.575,-378.677 170.85,-365.439"/>
<polygon fill="midnightblue" stroke="midnightblue" points="174.273,-366.174 173.164,-355.637 167.46,-364.566 174.273,-366.174"/>
</g>
</g>
</svg>
