<?xml version="1.0" encoding="UTF-8" standalone="no"?>
<!DOCTYPE svg PUBLIC "-//W3C//DTD SVG 1.1//EN"
 "http://www.w3.org/Graphics/SVG/1.1/DTD/svg11.dtd">
<!-- Generated by graphviz version 2.38.0 (20140413.2041)
 -->
<!-- Title: sys_mbox_valid Pages: 1 -->
<svg width="370pt" height="91pt"
 viewBox="0.00 0.00 370.00 91.00" xmlns="http://www.w3.org/2000/svg" xmlns:xlink="http://www.w3.org/1999/xlink">
<g id="graph0" class="graph" transform="scale(1 1) rotate(0) translate(4 87)">
<title>sys_mbox_valid</title>
<polygon fill="white" stroke="none" points="-4,4 -4,-87 366,-87 366,4 -4,4"/>
<!-- Node35 -->
<g id="node1" class="node"><title>Node35</title>
<polygon fill="#bfbfbf" stroke="black" points="0,-22.5 0,-41.5 87,-41.5 87,-22.5 0,-22.5"/>
<text text-anchor="middle" x="43.5" y="-29.5" font-family="Helvetica,sans-Serif" font-size="10.00">sys_mbox_valid</text>
</g>
<!-- Node36 -->
<g id="node2" class="node"><title>Node36</title>
<g id="a_node2"><a xlink:href="tcpip_8c.html#ab1d3ef23817d7703fa75ed67bd45ea1d" target="_top" xlink:title="tcpip_callback_with\l_block">
<polygon fill="white" stroke="black" points="123,-39 123,-69 225,-69 225,-39 123,-39"/>
<text text-anchor="start" x="131" y="-57" font-family="Helvetica,sans-Serif" font-size="10.00">tcpip_callback_with</text>
<text text-anchor="middle" x="174" y="-46" font-family="Helvetica,sans-Serif" font-size="10.00">_block</text>
</a>
</g>
</g>
<!-- Node35&#45;&gt;Node36 -->
<g id="edge1" class="edge"><title>Node35&#45;&gt;Node36</title>
<path fill="none" stroke="midnightblue" d="M97.3797,-41.0533C105.795,-42.4941 114.479,-43.9809 122.83,-45.4105"/>
<polygon fill="midnightblue" stroke="midnightblue" points="97.7359,-37.5635 87.2886,-39.3257 96.5546,-44.4631 97.7359,-37.5635"/>
</g>
<!-- Node39 -->
<g id="node5" class="node"><title>Node39</title>
<g id="a_node5"><a xlink:href="tcpip_8c.html#ae510f195171bed8499ae94e264a92717" target="_top" xlink:title="tcpip_input">
<polygon fill="white" stroke="black" points="142,-0.5 142,-19.5 206,-19.5 206,-0.5 142,-0.5"/>
<text text-anchor="middle" x="174" y="-7.5" font-family="Helvetica,sans-Serif" font-size="10.00">tcpip_input</text>
</a>
</g>
</g>
<!-- Node35&#45;&gt;Node39 -->
<g id="edge4" class="edge"><title>Node35&#45;&gt;Node39</title>
<path fill="none" stroke="midnightblue" d="M97.5291,-22.9211C112.578,-20.3447 128.474,-17.6232 141.776,-15.3458"/>
<polygon fill="midnightblue" stroke="midnightblue" points="96.5546,-19.5369 87.2886,-24.6743 97.7359,-26.4365 96.5546,-19.5369"/>
</g>
<!-- Node37 -->
<g id="node3" class="node"><title>Node37</title>
<g id="a_node3"><a xlink:href="tcpip_8c.html#a5cdcb6b784fe0e8736a5b31a5cfbed6c" target="_top" xlink:title="pbuf_free_callback">
<polygon fill="white" stroke="black" points="262.5,-63.5 262.5,-82.5 360.5,-82.5 360.5,-63.5 262.5,-63.5"/>
<text text-anchor="middle" x="311.5" y="-70.5" font-family="Helvetica,sans-Serif" font-size="10.00">pbuf_free_callback</text>
</a>
</g>
</g>
<!-- Node36&#45;&gt;Node37 -->
<g id="edge2" class="edge"><title>Node36&#45;&gt;Node37</title>
<path fill="none" stroke="midnightblue" d="M235.238,-62.4466C244.344,-63.7235 253.633,-65.0261 262.437,-66.2606"/>
<polygon fill="midnightblue" stroke="midnightblue" points="235.459,-58.9435 225.07,-61.0209 234.487,-65.8757 235.459,-58.9435"/>
</g>
<!-- Node38 -->
<g id="node4" class="node"><title>Node38</title>
<g id="a_node4"><a xlink:href="tcpip_8c.html#a55b4de3765c6a37b3f2b26a11603771c" target="_top" xlink:title="mem_free_callback">
<polygon fill="white" stroke="black" points="261,-25.5 261,-44.5 362,-44.5 362,-25.5 261,-25.5"/>
<text text-anchor="middle" x="311.5" y="-32.5" font-family="Helvetica,sans-Serif" font-size="10.00">mem_free_callback</text>
</a>
</g>
</g>
<!-- Node36&#45;&gt;Node38 -->
<g id="edge3" class="edge"><title>Node36&#45;&gt;Node38</title>
<path fill="none" stroke="midnightblue" d="M235.009,-45.5854C243.57,-44.385 252.297,-43.1613 260.636,-41.9921"/>
<polygon fill="midnightblue" stroke="midnightblue" points="234.487,-42.1243 225.07,-46.9791 235.459,-49.0565 234.487,-42.1243"/>
</g>
</g>
</svg>
