<?xml version="1.0" encoding="UTF-8" standalone="no"?>
<!DOCTYPE svg PUBLIC "-//W3C//DTD SVG 1.1//EN"
 "http://www.w3.org/Graphics/SVG/1.1/DTD/svg11.dtd">
<!-- Generated by graphviz version 2.38.0 (20140413.2041)
 -->
<!-- Title: esp&#45;open&#45;lwip/include/lwip/tcp_impl.h Pages: 1 -->
<svg width="1402pt" height="106pt"
 viewBox="0.00 0.00 1401.50 106.00" xmlns="http://www.w3.org/2000/svg" xmlns:xlink="http://www.w3.org/1999/xlink">
<g id="graph0" class="graph" transform="scale(1 1) rotate(0) translate(4 102)">
<title>esp&#45;open&#45;lwip/include/lwip/tcp_impl.h</title>
<polygon fill="white" stroke="none" points="-4,4 -4,-102 1397.5,-102 1397.5,4 -4,4"/>
<!-- Node15 -->
<g id="node1" class="node"><title>Node15</title>
<polygon fill="#bfbfbf" stroke="black" points="596,-67.5 596,-97.5 706,-97.5 706,-67.5 596,-67.5"/>
<text text-anchor="start" x="604" y="-85.5" font-family="Helvetica,sans-Serif" font-size="10.00">esp&#45;open&#45;lwip/include</text>
<text text-anchor="middle" x="651" y="-74.5" font-family="Helvetica,sans-Serif" font-size="10.00">/lwip/tcp_impl.h</text>
</g>
<!-- Node16 -->
<g id="node2" class="node"><title>Node16</title>
<g id="a_node2"><a xlink:href="wifi_8c.html" target="_top" xlink:title="modules/wifi.c">
<polygon fill="white" stroke="black" points="0,-6 0,-25 80,-25 80,-6 0,-6"/>
<text text-anchor="middle" x="40" y="-13" font-family="Helvetica,sans-Serif" font-size="10.00">modules/wifi.c</text>
</a>
</g>
</g>
<!-- Node15&#45;&gt;Node16 -->
<g id="edge1" class="edge"><title>Node15&#45;&gt;Node16</title>
<path fill="none" stroke="midnightblue" d="M585.692,-79.8212C480.317,-76.1776 266.633,-64.916 89,-31 81.2444,-29.5192 72.959,-27.3155 65.4495,-25.0705"/>
<polygon fill="midnightblue" stroke="midnightblue" points="585.742,-83.3247 595.853,-80.1604 585.975,-76.3286 585.742,-83.3247"/>
</g>
<!-- Node17 -->
<g id="node3" class="node"><title>Node17</title>
<g id="a_node3"><a xlink:href="mqtt_8c.html" target="_top" xlink:title="mqtt/mqtt.c">
<polygon fill="white" stroke="black" points="98.5,-6 98.5,-25 165.5,-25 165.5,-6 98.5,-6"/>
<text text-anchor="middle" x="132" y="-13" font-family="Helvetica,sans-Serif" font-size="10.00">mqtt/mqtt.c</text>
</a>
</g>
</g>
<!-- Node15&#45;&gt;Node17 -->
<g id="edge2" class="edge"><title>Node15&#45;&gt;Node17</title>
<path fill="none" stroke="midnightblue" d="M585.927,-79.2816C493.398,-75.0764 318.948,-63.2536 174,-31 167.374,-29.5255 160.34,-27.3514 153.962,-25.1328"/>
<polygon fill="midnightblue" stroke="midnightblue" points="585.838,-82.781 595.982,-79.7231 586.145,-75.7877 585.838,-82.781"/>
</g>
<!-- Node18 -->
<g id="node4" class="node"><title>Node18</title>
<g id="a_node4"><a xlink:href="captdns_8c.html" target="_top" xlink:title="user/captdns.c">
<polygon fill="white" stroke="black" points="183.5,-6 183.5,-25 264.5,-25 264.5,-6 183.5,-6"/>
<text text-anchor="middle" x="224" y="-13" font-family="Helvetica,sans-Serif" font-size="10.00">user/captdns.c</text>
</a>
</g>
</g>
<!-- Node15&#45;&gt;Node18 -->
<g id="edge3" class="edge"><title>Node15&#45;&gt;Node18</title>
<path fill="none" stroke="midnightblue" d="M585.624,-75.7289C510.041,-68.3688 382.154,-53.7932 274,-31 266.394,-29.3971 258.256,-27.2348 250.801,-25.0698"/>
<polygon fill="midnightblue" stroke="midnightblue" points="585.646,-79.247 595.935,-76.7196 586.315,-72.2791 585.646,-79.247"/>
</g>
<!-- Node19 -->
<g id="node5" class="node"><title>Node19</title>
<g id="a_node5"><a xlink:href="httpd_8c.html" target="_top" xlink:title="user/httpd.c">
<polygon fill="white" stroke="black" points="283,-6 283,-25 351,-25 351,-6 283,-6"/>
<text text-anchor="middle" x="317" y="-13" font-family="Helvetica,sans-Serif" font-size="10.00">user/httpd.c</text>
</a>
</g>
</g>
<!-- Node15&#45;&gt;Node19 -->
<g id="edge4" class="edge"><title>Node15&#45;&gt;Node19</title>
<path fill="none" stroke="midnightblue" d="M585.774,-73.1023C526.398,-64.7692 436.581,-50.4347 360,-31 353.586,-29.3722 346.751,-27.2514 340.463,-25.1365"/>
<polygon fill="midnightblue" stroke="midnightblue" points="585.378,-76.5809 595.765,-74.4881 586.34,-69.6472 585.378,-76.5809"/>
</g>
<!-- Node20 -->
<g id="node6" class="node"><title>Node20</title>
<g id="a_node6"><a xlink:href="httpdespfs_8c.html" target="_top" xlink:title="user/httpdespfs.c">
<polygon fill="white" stroke="black" points="369,-6 369,-25 461,-25 461,-6 369,-6"/>
<text text-anchor="middle" x="415" y="-13" font-family="Helvetica,sans-Serif" font-size="10.00">user/httpdespfs.c</text>
</a>
</g>
</g>
<!-- Node15&#45;&gt;Node20 -->
<g id="edge5" class="edge"><title>Node15&#45;&gt;Node20</title>
<path fill="none" stroke="midnightblue" d="M590.187,-64.7505C544.03,-52.038 482.478,-35.0851 445.966,-25.0287"/>
<polygon fill="midnightblue" stroke="midnightblue" points="589.512,-68.1949 600.082,-67.476 591.37,-61.4462 589.512,-68.1949"/>
</g>
<!-- Node21 -->
<g id="node7" class="node"><title>Node21</title>
<g id="a_node7"><a xlink:href="espconn__tcp_8c.html" target="_top" xlink:title="esp&#45;open&#45;lwip/lwip\l/app/espconn_tcp.c">
<polygon fill="white" stroke="black" points="479,-0.5 479,-30.5 581,-30.5 581,-0.5 479,-0.5"/>
<text text-anchor="start" x="487" y="-18.5" font-family="Helvetica,sans-Serif" font-size="10.00">esp&#45;open&#45;lwip/lwip</text>
<text text-anchor="middle" x="530" y="-7.5" font-family="Helvetica,sans-Serif" font-size="10.00">/app/espconn_tcp.c</text>
</a>
</g>
</g>
<!-- Node15&#45;&gt;Node21 -->
<g id="edge6" class="edge"><title>Node15&#45;&gt;Node21</title>
<path fill="none" stroke="midnightblue" d="M615.77,-62.575C596.737,-52.3502 573.635,-39.94 556.204,-30.5765"/>
<polygon fill="midnightblue" stroke="midnightblue" points="614.279,-65.7469 624.745,-67.396 617.592,-59.5803 614.279,-65.7469"/>
</g>
<!-- Node22 -->
<g id="node8" class="node"><title>Node22</title>
<g id="a_node8"><a xlink:href="espconn__udp_8c.html" target="_top" xlink:title="esp&#45;open&#45;lwip/lwip\l/app/espconn_udp.c">
<polygon fill="white" stroke="black" points="599,-0.5 599,-30.5 703,-30.5 703,-0.5 599,-0.5"/>
<text text-anchor="start" x="607" y="-18.5" font-family="Helvetica,sans-Serif" font-size="10.00">esp&#45;open&#45;lwip/lwip</text>
<text text-anchor="middle" x="651" y="-7.5" font-family="Helvetica,sans-Serif" font-size="10.00">/app/espconn_udp.c</text>
</a>
</g>
</g>
<!-- Node15&#45;&gt;Node22 -->
<g id="edge7" class="edge"><title>Node15&#45;&gt;Node22</title>
<path fill="none" stroke="midnightblue" d="M651,-57.1081C651,-48.1539 651,-38.3227 651,-30.5765"/>
<polygon fill="midnightblue" stroke="midnightblue" points="647.5,-57.3959 651,-67.396 654.5,-57.396 647.5,-57.3959"/>
</g>
<!-- Node23 -->
<g id="node9" class="node"><title>Node23</title>
<g id="a_node9"><a xlink:href="init_8c.html" target="_top" xlink:title="esp&#45;open&#45;lwip/lwip\l/core/init.c">
<polygon fill="white" stroke="black" points="721.5,-0.5 721.5,-30.5 818.5,-30.5 818.5,-0.5 721.5,-0.5"/>
<text text-anchor="start" x="729.5" y="-18.5" font-family="Helvetica,sans-Serif" font-size="10.00">esp&#45;open&#45;lwip/lwip</text>
<text text-anchor="middle" x="770" y="-7.5" font-family="Helvetica,sans-Serif" font-size="10.00">/core/init.c</text>
</a>
</g>
</g>
<!-- Node15&#45;&gt;Node23 -->
<g id="edge8" class="edge"><title>Node15&#45;&gt;Node23</title>
<path fill="none" stroke="midnightblue" d="M685.647,-62.575C704.367,-52.3502 727.087,-39.94 744.229,-30.5765"/>
<polygon fill="midnightblue" stroke="midnightblue" points="683.92,-59.5306 676.821,-67.396 687.275,-65.6739 683.92,-59.5306"/>
</g>
<!-- Node24 -->
<g id="node10" class="node"><title>Node24</title>
<g id="a_node10"><a xlink:href="ip_8c.html" target="_top" xlink:title="esp&#45;open&#45;lwip/lwip\l/core/ipv4/ip.c">
<polygon fill="white" stroke="black" points="836.5,-0.5 836.5,-30.5 933.5,-30.5 933.5,-0.5 836.5,-0.5"/>
<text text-anchor="start" x="844.5" y="-18.5" font-family="Helvetica,sans-Serif" font-size="10.00">esp&#45;open&#45;lwip/lwip</text>
<text text-anchor="middle" x="885" y="-7.5" font-family="Helvetica,sans-Serif" font-size="10.00">/core/ipv4/ip.c</text>
</a>
</g>
</g>
<!-- Node15&#45;&gt;Node24 -->
<g id="edge9" class="edge"><title>Node15&#45;&gt;Node24</title>
<path fill="none" stroke="midnightblue" d="M711.601,-64.6664C750.365,-53.8986 799.986,-40.1149 836.207,-30.0536"/>
<polygon fill="midnightblue" stroke="midnightblue" points="710.185,-61.4272 701.486,-67.476 712.058,-68.1718 710.185,-61.4272"/>
</g>
<!-- Node25 -->
<g id="node11" class="node"><title>Node25</title>
<g id="a_node11"><a xlink:href="memp_8c.html" target="_top" xlink:title="esp&#45;open&#45;lwip/lwip\l/core/memp.c">
<polygon fill="white" stroke="black" points="951.5,-0.5 951.5,-30.5 1048.5,-30.5 1048.5,-0.5 951.5,-0.5"/>
<text text-anchor="start" x="959.5" y="-18.5" font-family="Helvetica,sans-Serif" font-size="10.00">esp&#45;open&#45;lwip/lwip</text>
<text text-anchor="middle" x="1000" y="-7.5" font-family="Helvetica,sans-Serif" font-size="10.00">/core/memp.c</text>
</a>
</g>
</g>
<!-- Node15&#45;&gt;Node25 -->
<g id="edge10" class="edge"><title>Node15&#45;&gt;Node25</title>
<path fill="none" stroke="midnightblue" d="M716.125,-71.7254C775.486,-62.4635 865.472,-47.5389 943,-31 945.696,-30.4248 948.458,-29.8096 951.241,-29.1694"/>
<polygon fill="midnightblue" stroke="midnightblue" points="715.484,-68.283 706.139,-73.2752 716.557,-75.2002 715.484,-68.283"/>
</g>
<!-- Node26 -->
<g id="node12" class="node"><title>Node26</title>
<g id="a_node12"><a xlink:href="netif_8c.html" target="_top" xlink:title="esp&#45;open&#45;lwip/lwip\l/core/netif.c">
<polygon fill="white" stroke="black" points="1066.5,-0.5 1066.5,-30.5 1163.5,-30.5 1163.5,-0.5 1066.5,-0.5"/>
<text text-anchor="start" x="1074.5" y="-18.5" font-family="Helvetica,sans-Serif" font-size="10.00">esp&#45;open&#45;lwip/lwip</text>
<text text-anchor="middle" x="1115" y="-7.5" font-family="Helvetica,sans-Serif" font-size="10.00">/core/netif.c</text>
</a>
</g>
</g>
<!-- Node15&#45;&gt;Node26 -->
<g id="edge11" class="edge"><title>Node15&#45;&gt;Node26</title>
<path fill="none" stroke="midnightblue" d="M716.327,-75.9447C797.051,-68.4954 938.394,-53.5409 1058,-31 1060.71,-30.4894 1063.48,-29.9252 1066.27,-29.3244"/>
<polygon fill="midnightblue" stroke="midnightblue" points="715.949,-72.4646 706.309,-76.8594 716.586,-79.4356 715.949,-72.4646"/>
</g>
<!-- Node27 -->
<g id="node13" class="node"><title>Node27</title>
<g id="a_node13"><a xlink:href="timers_8c.html" target="_top" xlink:title="esp&#45;open&#45;lwip/lwip\l/core/timers.c">
<polygon fill="white" stroke="black" points="1181.5,-0.5 1181.5,-30.5 1278.5,-30.5 1278.5,-0.5 1181.5,-0.5"/>
<text text-anchor="start" x="1189.5" y="-18.5" font-family="Helvetica,sans-Serif" font-size="10.00">esp&#45;open&#45;lwip/lwip</text>
<text text-anchor="middle" x="1230" y="-7.5" font-family="Helvetica,sans-Serif" font-size="10.00">/core/timers.c</text>
</a>
</g>
</g>
<!-- Node15&#45;&gt;Node27 -->
<g id="edge12" class="edge"><title>Node15&#45;&gt;Node27</title>
<path fill="none" stroke="midnightblue" d="M716.412,-78.3834C815.703,-72.9304 1010.14,-59.4209 1173,-31 1175.72,-30.526 1178.49,-29.9908 1181.29,-29.4124"/>
<polygon fill="midnightblue" stroke="midnightblue" points="716.03,-74.8987 706.233,-78.9323 716.407,-81.8886 716.03,-74.8987"/>
</g>
<!-- Node28 -->
<g id="node14" class="node"><title>Node28</title>
<g id="a_node14"><a xlink:href="tunif_8c.html" target="_top" xlink:title="esp&#45;open&#45;lwip/lwip\l/netif/tunif.c">
<polygon fill="white" stroke="black" points="1296.5,-0.5 1296.5,-30.5 1393.5,-30.5 1393.5,-0.5 1296.5,-0.5"/>
<text text-anchor="start" x="1304.5" y="-18.5" font-family="Helvetica,sans-Serif" font-size="10.00">esp&#45;open&#45;lwip/lwip</text>
<text text-anchor="middle" x="1345" y="-7.5" font-family="Helvetica,sans-Serif" font-size="10.00">/netif/tunif.c</text>
</a>
</g>
</g>
<!-- Node15&#45;&gt;Node28 -->
<g id="edge13" class="edge"><title>Node15&#45;&gt;Node28</title>
<path fill="none" stroke="midnightblue" d="M716.47,-79.9748C832.405,-76.4608 1081.1,-65.2624 1288,-31 1290.72,-30.5496 1293.5,-30.0329 1296.3,-29.4689"/>
<polygon fill="midnightblue" stroke="midnightblue" points="716.233,-76.4801 706.341,-80.2724 716.439,-83.4771 716.233,-76.4801"/>
</g>
</g>
</svg>
