<?xml version="1.0" encoding="UTF-8" standalone="no"?>
<!DOCTYPE svg PUBLIC "-//W3C//DTD SVG 1.1//EN"
 "http://www.w3.org/Graphics/SVG/1.1/DTD/svg11.dtd">
<!-- Generated by graphviz version 2.38.0 (20140413.2041)
 -->
<!-- Title: pbuf_free_int Pages: 1 -->
<svg width="374pt" height="66pt"
 viewBox="0.00 0.00 374.00 66.00" xmlns="http://www.w3.org/2000/svg" xmlns:xlink="http://www.w3.org/1999/xlink">
<g id="graph0" class="graph" transform="scale(1 1) rotate(0) translate(4 62)">
<title>pbuf_free_int</title>
<polygon fill="white" stroke="none" points="-4,4 -4,-62 370,-62 370,4 -4,4"/>
<!-- Node28 -->
<g id="node1" class="node"><title>Node28</title>
<polygon fill="#bfbfbf" stroke="black" points="0,-19.5 0,-38.5 73,-38.5 73,-19.5 0,-19.5"/>
<text text-anchor="middle" x="36.5" y="-26.5" font-family="Helvetica,sans-Serif" font-size="10.00">pbuf_free_int</text>
</g>
<!-- Node29 -->
<g id="node2" class="node"><title>Node29</title>
<g id="a_node2"><a xlink:href="pbuf_8h.html#a0d26e00e2cf975274139d27ddabd7ed3" target="_top" xlink:title="pbuf_free">
<polygon fill="white" stroke="black" points="109,-19.5 109,-38.5 166,-38.5 166,-19.5 109,-19.5"/>
<text text-anchor="middle" x="137.5" y="-26.5" font-family="Helvetica,sans-Serif" font-size="10.00">pbuf_free</text>
</a>
</g>
</g>
<!-- Node28&#45;&gt;Node29 -->
<g id="edge1" class="edge"><title>Node28&#45;&gt;Node29</title>
<path fill="none" stroke="midnightblue" d="M73.2413,-29C81.4972,-29 90.3077,-29 98.6502,-29"/>
<polygon fill="midnightblue" stroke="midnightblue" points="98.8901,-32.5001 108.89,-29 98.8901,-25.5001 98.8901,-32.5001"/>
</g>
<!-- Node30 -->
<g id="node3" class="node"><title>Node30</title>
<g id="a_node3"><a xlink:href="esp-open-lwip_2include_2lwip_2mem_8h.html#ab270bbe39e1996d7095be3a139620ce0" target="_top" xlink:title="mem_free">
<polygon fill="white" stroke="black" points="204.5,-38.5 204.5,-57.5 264.5,-57.5 264.5,-38.5 204.5,-38.5"/>
<text text-anchor="middle" x="234.5" y="-45.5" font-family="Helvetica,sans-Serif" font-size="10.00">mem_free</text>
</a>
</g>
</g>
<!-- Node29&#45;&gt;Node30 -->
<g id="edge2" class="edge"><title>Node29&#45;&gt;Node30</title>
<path fill="none" stroke="midnightblue" d="M166.233,-34.5467C175.001,-36.3002 184.863,-38.2725 194.276,-40.1553"/>
<polygon fill="midnightblue" stroke="midnightblue" points="193.751,-43.6194 204.243,-42.1486 195.124,-36.7553 193.751,-43.6194"/>
</g>
<!-- Node32 -->
<g id="node5" class="node"><title>Node32</title>
<g id="a_node5"><a xlink:href="memp_8h.html#a9d30a969401eb0626105950d6e63f3bf" target="_top" xlink:title="memp_free">
<polygon fill="white" stroke="black" points="202,-0.5 202,-19.5 267,-19.5 267,-0.5 202,-0.5"/>
<text text-anchor="middle" x="234.5" y="-7.5" font-family="Helvetica,sans-Serif" font-size="10.00">memp_free</text>
</a>
</g>
</g>
<!-- Node29&#45;&gt;Node32 -->
<g id="edge4" class="edge"><title>Node29&#45;&gt;Node32</title>
<path fill="none" stroke="midnightblue" d="M166.233,-23.4533C174.263,-21.8473 183.211,-20.0578 191.892,-18.3216"/>
<polygon fill="midnightblue" stroke="midnightblue" points="192.77,-21.7155 201.889,-16.3222 191.397,-14.8514 192.77,-21.7155"/>
</g>
<!-- Node31 -->
<g id="node4" class="node"><title>Node31</title>
<g id="a_node4"><a xlink:href="mem_8c.html#a24221009a2c00e9c3fa63eaa9444a076" target="_top" xlink:title="plug_holes">
<polygon fill="white" stroke="black" points="303,-38.5 303,-57.5 366,-57.5 366,-38.5 303,-38.5"/>
<text text-anchor="middle" x="334.5" y="-45.5" font-family="Helvetica,sans-Serif" font-size="10.00">plug_holes</text>
</a>
</g>
</g>
<!-- Node30&#45;&gt;Node31 -->
<g id="edge3" class="edge"><title>Node30&#45;&gt;Node31</title>
<path fill="none" stroke="midnightblue" d="M264.638,-48C273.505,-48 283.416,-48 292.896,-48"/>
<polygon fill="midnightblue" stroke="midnightblue" points="292.942,-51.5001 302.942,-48 292.942,-44.5001 292.942,-51.5001"/>
</g>
</g>
</svg>
