<?xml version="1.0" encoding="UTF-8" standalone="no"?>
<!DOCTYPE svg PUBLIC "-//W3C//DTD SVG 1.1//EN"
 "http://www.w3.org/Graphics/SVG/1.1/DTD/svg11.dtd">
<!-- Generated by graphviz version 2.38.0 (20140413.2041)
 -->
<!-- Title: tcpip_thread Pages: 1 -->
<svg width="649pt" height="275pt"
 viewBox="0.00 0.00 649.00 275.00" xmlns="http://www.w3.org/2000/svg" xmlns:xlink="http://www.w3.org/1999/xlink">
<g id="graph0" class="graph" transform="scale(1 1) rotate(0) translate(4 271)">
<title>tcpip_thread</title>
<polygon fill="white" stroke="none" points="-4,4 -4,-271 645,-271 645,4 -4,4"/>
<!-- Node85 -->
<g id="node1" class="node"><title>Node85</title>
<polygon fill="#bfbfbf" stroke="black" points="0,-76.5 0,-95.5 70,-95.5 70,-76.5 0,-76.5"/>
<text text-anchor="middle" x="35" y="-83.5" font-family="Helvetica,sans-Serif" font-size="10.00">tcpip_thread</text>
</g>
<!-- Node86 -->
<g id="node2" class="node"><title>Node86</title>
<g id="a_node2"><a xlink:href="ip_8h.html#a9feb530a8af39f237202b679b5be04a1" target="_top" xlink:title="ip_input">
<polygon fill="white" stroke="black" points="146.5,-190.5 146.5,-209.5 196.5,-209.5 196.5,-190.5 146.5,-190.5"/>
<text text-anchor="middle" x="171.5" y="-197.5" font-family="Helvetica,sans-Serif" font-size="10.00">ip_input</text>
</a>
</g>
</g>
<!-- Node85&#45;&gt;Node86 -->
<g id="edge1" class="edge"><title>Node85&#45;&gt;Node86</title>
<path fill="none" stroke="midnightblue" d="M47.4674,-95.7196C70.5952,-115.322 123.039,-159.772 151.414,-183.823"/>
<polygon fill="midnightblue" stroke="midnightblue" points="149.17,-186.509 159.062,-190.305 153.696,-181.169 149.17,-186.509"/>
</g>
<!-- Node91 -->
<g id="node7" class="node"><title>Node91</title>
<g id="a_node7"><a xlink:href="memp_8h.html#a9d30a969401eb0626105950d6e63f3bf" target="_top" xlink:title="memp_free">
<polygon fill="white" stroke="black" points="477,-152.5 477,-171.5 542,-171.5 542,-152.5 477,-152.5"/>
<text text-anchor="middle" x="509.5" y="-159.5" font-family="Helvetica,sans-Serif" font-size="10.00">memp_free</text>
</a>
</g>
</g>
<!-- Node85&#45;&gt;Node91 -->
<g id="edge12" class="edge"><title>Node85&#45;&gt;Node91</title>
<path fill="none" stroke="midnightblue" d="M67.1243,-95.5384C79.1725,-98.9425 93.137,-102.54 106,-105 253.175,-133.152 293.958,-114.161 441,-143 450.027,-144.77 459.606,-147.151 468.625,-149.627"/>
<polygon fill="midnightblue" stroke="midnightblue" points="467.933,-153.07 478.509,-152.437 469.847,-146.336 467.933,-153.07"/>
</g>
<!-- Node95 -->
<g id="node11" class="node"><title>Node95</title>
<g id="a_node11"><a xlink:href="timers_8h.html#aa8bd9c8e634cfa93b265066518fcade3" target="_top" xlink:title="sys_timeout">
<polygon fill="white" stroke="black" points="136.5,-76.5 136.5,-95.5 206.5,-95.5 206.5,-76.5 136.5,-76.5"/>
<text text-anchor="middle" x="171.5" y="-83.5" font-family="Helvetica,sans-Serif" font-size="10.00">sys_timeout</text>
</a>
</g>
</g>
<!-- Node85&#45;&gt;Node95 -->
<g id="edge13" class="edge"><title>Node85&#45;&gt;Node95</title>
<path fill="none" stroke="midnightblue" d="M70.288,-86C87.283,-86 108.009,-86 126.193,-86"/>
<polygon fill="midnightblue" stroke="midnightblue" points="126.275,-89.5001 136.275,-86 126.275,-82.5001 126.275,-89.5001"/>
</g>
<!-- Node96 -->
<g id="node12" class="node"><title>Node96</title>
<g id="a_node12"><a xlink:href="timers_8h.html#abed9cb0a9c33e2b375d3d874038571e1" target="_top" xlink:title="sys_timeouts_mbox_fetch">
<polygon fill="white" stroke="black" points="106,-38.5 106,-57.5 237,-57.5 237,-38.5 106,-38.5"/>
<text text-anchor="middle" x="171.5" y="-45.5" font-family="Helvetica,sans-Serif" font-size="10.00">sys_timeouts_mbox_fetch</text>
</a>
</g>
</g>
<!-- Node85&#45;&gt;Node96 -->
<g id="edge14" class="edge"><title>Node85&#45;&gt;Node96</title>
<path fill="none" stroke="midnightblue" d="M69.94,-76.411C87.2231,-71.5281 108.433,-65.5357 126.911,-60.315"/>
<polygon fill="midnightblue" stroke="midnightblue" points="127.899,-63.673 136.571,-57.5859 125.996,-56.9367 127.899,-63.673"/>
</g>
<!-- Node97 -->
<g id="node13" class="node"><title>Node97</title>
<g id="a_node13"><a xlink:href="timers_8h.html#a98b4f171ae7e54093a5d4a74a664253b" target="_top" xlink:title="sys_untimeout">
<polygon fill="white" stroke="black" points="131.5,-0.5 131.5,-19.5 211.5,-19.5 211.5,-0.5 131.5,-0.5"/>
<text text-anchor="middle" x="171.5" y="-7.5" font-family="Helvetica,sans-Serif" font-size="10.00">sys_untimeout</text>
</a>
</g>
</g>
<!-- Node85&#45;&gt;Node97 -->
<g id="edge15" class="edge"><title>Node85&#45;&gt;Node97</title>
<path fill="none" stroke="midnightblue" d="M45.5192,-76.1145C58.2063,-63.476 81.8744,-41.7117 106,-29 110.906,-26.4152 116.211,-24.1355 121.6,-22.1366"/>
<polygon fill="midnightblue" stroke="midnightblue" points="122.976,-25.3657 131.32,-18.8368 120.726,-18.7373 122.976,-25.3657"/>
</g>
<!-- Node87 -->
<g id="node3" class="node"><title>Node87</title>
<g id="a_node3"><a xlink:href="inet__chksum_8h.html#a79a1825a9588a77b8c372a3d708974a8" target="_top" xlink:title="inet_chksum">
<polygon fill="white" stroke="black" points="273,-247.5 273,-266.5 345,-266.5 345,-247.5 273,-247.5"/>
<text text-anchor="middle" x="309" y="-254.5" font-family="Helvetica,sans-Serif" font-size="10.00">inet_chksum</text>
</a>
</g>
</g>
<!-- Node86&#45;&gt;Node87 -->
<g id="edge2" class="edge"><title>Node86&#45;&gt;Node87</title>
<path fill="none" stroke="midnightblue" d="M195.18,-209.541C217.261,-218.829 251.032,-233.036 275.874,-243.486"/>
<polygon fill="midnightblue" stroke="midnightblue" points="274.672,-246.777 285.246,-247.428 277.386,-240.325 274.672,-246.777"/>
</g>
<!-- Node88 -->
<g id="node4" class="node"><title>Node88</title>
<g id="a_node4"><a xlink:href="pbuf_8h.html#a0d26e00e2cf975274139d27ddabd7ed3" target="_top" xlink:title="pbuf_free">
<polygon fill="white" stroke="black" points="382.5,-228.5 382.5,-247.5 439.5,-247.5 439.5,-228.5 382.5,-228.5"/>
<text text-anchor="middle" x="411" y="-235.5" font-family="Helvetica,sans-Serif" font-size="10.00">pbuf_free</text>
</a>
</g>
</g>
<!-- Node86&#45;&gt;Node88 -->
<g id="edge3" class="edge"><title>Node86&#45;&gt;Node88</title>
<path fill="none" stroke="midnightblue" d="M196.58,-203.853C237.976,-210.476 322.929,-224.069 372.254,-231.961"/>
<polygon fill="midnightblue" stroke="midnightblue" points="371.783,-235.43 382.211,-233.554 372.889,-228.518 371.783,-235.43"/>
</g>
<!-- Node92 -->
<g id="node8" class="node"><title>Node92</title>
<g id="a_node8"><a xlink:href="pbuf_8h.html#a4853abdcdbbe0c4c9fc994e4e7e02b87" target="_top" xlink:title="pbuf_realloc">
<polygon fill="white" stroke="black" points="274.5,-171.5 274.5,-190.5 343.5,-190.5 343.5,-171.5 274.5,-171.5"/>
<text text-anchor="middle" x="309" y="-178.5" font-family="Helvetica,sans-Serif" font-size="10.00">pbuf_realloc</text>
</a>
</g>
</g>
<!-- Node86&#45;&gt;Node92 -->
<g id="edge7" class="edge"><title>Node86&#45;&gt;Node92</title>
<path fill="none" stroke="midnightblue" d="M196.725,-196.603C215.472,-193.974 241.931,-190.264 264.344,-187.122"/>
<polygon fill="midnightblue" stroke="midnightblue" points="264.898,-190.578 274.315,-185.723 263.926,-183.646 264.898,-190.578"/>
</g>
<!-- Node89 -->
<g id="node5" class="node"><title>Node89</title>
<g id="a_node5"><a xlink:href="esp-open-lwip_2include_2lwip_2mem_8h.html#ab270bbe39e1996d7095be3a139620ce0" target="_top" xlink:title="mem_free">
<polygon fill="white" stroke="black" points="479.5,-209.5 479.5,-228.5 539.5,-228.5 539.5,-209.5 479.5,-209.5"/>
<text text-anchor="middle" x="509.5" y="-216.5" font-family="Helvetica,sans-Serif" font-size="10.00">mem_free</text>
</a>
</g>
</g>
<!-- Node88&#45;&gt;Node89 -->
<g id="edge4" class="edge"><title>Node88&#45;&gt;Node89</title>
<path fill="none" stroke="midnightblue" d="M439.653,-232.555C448.912,-230.732 459.417,-228.664 469.383,-226.702"/>
<polygon fill="midnightblue" stroke="midnightblue" points="470.362,-230.076 479.498,-224.71 469.01,-223.208 470.362,-230.076"/>
</g>
<!-- Node88&#45;&gt;Node91 -->
<g id="edge6" class="edge"><title>Node88&#45;&gt;Node91</title>
<path fill="none" stroke="midnightblue" d="M427.289,-228.478C431.783,-225.547 436.657,-222.238 441,-219 458.312,-206.094 476.996,-190.145 490.309,-178.402"/>
<polygon fill="midnightblue" stroke="midnightblue" points="492.698,-180.961 497.843,-171.7 488.045,-175.731 492.698,-180.961"/>
</g>
<!-- Node90 -->
<g id="node6" class="node"><title>Node90</title>
<g id="a_node6"><a xlink:href="mem_8c.html#a24221009a2c00e9c3fa63eaa9444a076" target="_top" xlink:title="plug_holes">
<polygon fill="white" stroke="black" points="578,-209.5 578,-228.5 641,-228.5 641,-209.5 578,-209.5"/>
<text text-anchor="middle" x="609.5" y="-216.5" font-family="Helvetica,sans-Serif" font-size="10.00">plug_holes</text>
</a>
</g>
</g>
<!-- Node89&#45;&gt;Node90 -->
<g id="edge5" class="edge"><title>Node89&#45;&gt;Node90</title>
<path fill="none" stroke="midnightblue" d="M539.638,-219C548.505,-219 558.416,-219 567.896,-219"/>
<polygon fill="midnightblue" stroke="midnightblue" points="567.942,-222.5 577.942,-219 567.942,-215.5 567.942,-222.5"/>
</g>
<!-- Node93 -->
<g id="node9" class="node"><title>Node93</title>
<g id="a_node9"><a xlink:href="esp-open-lwip_2include_2lwip_2mem_8h.html#aaf260c2e52686f07d59d1d347ee952cc" target="_top" xlink:title="mem_trim">
<polygon fill="white" stroke="black" points="381,-190.5 381,-209.5 441,-209.5 441,-190.5 381,-190.5"/>
<text text-anchor="middle" x="411" y="-197.5" font-family="Helvetica,sans-Serif" font-size="10.00">mem_trim</text>
</a>
</g>
</g>
<!-- Node92&#45;&gt;Node93 -->
<g id="edge8" class="edge"><title>Node92&#45;&gt;Node93</title>
<path fill="none" stroke="midnightblue" d="M343.577,-187.38C352.317,-189.04 361.809,-190.844 370.811,-192.554"/>
<polygon fill="midnightblue" stroke="midnightblue" points="370.222,-196.005 380.7,-194.433 371.529,-189.128 370.222,-196.005"/>
</g>
<!-- Node94 -->
<g id="node10" class="node"><title>Node94</title>
<g id="a_node10"><a xlink:href="pbuf_8c.html#ab0dd696fb4b6bc65e548944584f1738b" target="_top" xlink:title="pbuf_free">
<polygon fill="white" stroke="black" points="382.5,-152.5 382.5,-171.5 439.5,-171.5 439.5,-152.5 382.5,-152.5"/>
<text text-anchor="middle" x="411" y="-159.5" font-family="Helvetica,sans-Serif" font-size="10.00">pbuf_free</text>
</a>
</g>
</g>
<!-- Node92&#45;&gt;Node94 -->
<g id="edge9" class="edge"><title>Node92&#45;&gt;Node94</title>
<path fill="none" stroke="midnightblue" d="M343.577,-174.62C352.827,-172.863 362.921,-170.945 372.384,-169.147"/>
<polygon fill="midnightblue" stroke="midnightblue" points="373.163,-172.562 382.334,-167.256 371.857,-165.685 373.163,-172.562"/>
</g>
<!-- Node94&#45;&gt;Node89 -->
<g id="edge11" class="edge"><title>Node94&#45;&gt;Node89</title>
<path fill="none" stroke="midnightblue" d="M428.37,-171.669C443.433,-180.567 466,-193.896 483.35,-204.145"/>
<polygon fill="midnightblue" stroke="midnightblue" points="481.982,-207.401 492.372,-209.474 485.542,-201.374 481.982,-207.401"/>
</g>
<!-- Node94&#45;&gt;Node91 -->
<g id="edge10" class="edge"><title>Node94&#45;&gt;Node91</title>
<path fill="none" stroke="midnightblue" d="M439.653,-162C448.07,-162 457.516,-162 466.651,-162"/>
<polygon fill="midnightblue" stroke="midnightblue" points="466.76,-165.5 476.76,-162 466.76,-158.5 466.76,-165.5"/>
</g>
</g>
</svg>
