<?xml version="1.0" encoding="UTF-8" standalone="no"?>
<!DOCTYPE svg PUBLIC "-//W3C//DTD SVG 1.1//EN"
 "http://www.w3.org/Graphics/SVG/1.1/DTD/svg11.dtd">
<!-- Generated by graphviz version 2.38.0 (20140413.2041)
 -->
<!-- Title: esp&#45;open&#45;lwip/lwip/core/timers.c Pages: 1 -->
<svg width="383pt" height="711pt"
 viewBox="0.00 0.00 382.65 711.00" xmlns="http://www.w3.org/2000/svg" xmlns:xlink="http://www.w3.org/1999/xlink">
<g id="graph0" class="graph" transform="scale(1 1) rotate(0) translate(4 707)">
<title>esp&#45;open&#45;lwip/lwip/core/timers.c</title>
<polygon fill="white" stroke="none" points="-4,4 -4,-707 378.646,-707 378.646,4 -4,4"/>
<!-- Node0 -->
<g id="node1" class="node"><title>Node0</title>
<polygon fill="#bfbfbf" stroke="black" points="6.75511,-672.5 6.75511,-702.5 103.755,-702.5 103.755,-672.5 6.75511,-672.5"/>
<text text-anchor="start" x="14.7551" y="-690.5" font-family="Helvetica,sans-Serif" font-size="10.00">esp&#45;open&#45;lwip/lwip</text>
<text text-anchor="middle" x="55.2551" y="-679.5" font-family="Helvetica,sans-Serif" font-size="10.00">/core/timers.c</text>
</g>
<!-- Node1 -->
<g id="node2" class="node"><title>Node1</title>
<g id="a_node2"><a xlink:href="opt_8h.html" target="_top" xlink:title="lwip/opt.h">
<polygon fill="white" stroke="black" points="90.7551,-448.5 90.7551,-467.5 149.755,-467.5 149.755,-448.5 90.7551,-448.5"/>
<text text-anchor="middle" x="120.255" y="-455.5" font-family="Helvetica,sans-Serif" font-size="10.00">lwip/opt.h</text>
</a>
</g>
</g>
<!-- Node0&#45;&gt;Node1 -->
<g id="edge1" class="edge"><title>Node0&#45;&gt;Node1</title>
<path fill="none" stroke="midnightblue" d="M42.0215,-672.274C21.7441,-648.662 -12.8582,-600.015 5.25511,-560 23.4681,-519.764 66.5082,-489.2 94.4594,-472.71"/>
<polygon fill="midnightblue" stroke="midnightblue" points="96.3519,-475.659 103.302,-467.663 92.8823,-469.58 96.3519,-475.659"/>
</g>
<!-- Node15 -->
<g id="node16" class="node"><title>Node15</title>
<g id="a_node16"><a xlink:href="timers_8h.html" target="_top" xlink:title="lwip/timers.h">
<polygon fill="white" stroke="black" points="107.255,-616.5 107.255,-635.5 179.255,-635.5 179.255,-616.5 107.255,-616.5"/>
<text text-anchor="middle" x="143.255" y="-623.5" font-family="Helvetica,sans-Serif" font-size="10.00">lwip/timers.h</text>
</a>
</g>
</g>
<!-- Node0&#45;&gt;Node15 -->
<g id="edge18" class="edge"><title>Node0&#45;&gt;Node15</title>
<path fill="none" stroke="midnightblue" d="M76.1099,-672.399C89.952,-663.04 108.066,-650.792 121.991,-641.377"/>
<polygon fill="midnightblue" stroke="midnightblue" points="124.127,-644.158 130.45,-635.658 120.206,-638.36 124.127,-644.158"/>
</g>
<!-- Node19 -->
<g id="node20" class="node"><title>Node19</title>
<g id="a_node20"><a xlink:href="tcp__impl_8h.html" target="_top" xlink:title="lwip/tcp_impl.h">
<polygon fill="white" stroke="black" points="14.2551,-560.5 14.2551,-579.5 96.2551,-579.5 96.2551,-560.5 14.2551,-560.5"/>
<text text-anchor="middle" x="55.2551" y="-567.5" font-family="Helvetica,sans-Serif" font-size="10.00">lwip/tcp_impl.h</text>
</a>
</g>
</g>
<!-- Node0&#45;&gt;Node19 -->
<g id="edge28" class="edge"><title>Node0&#45;&gt;Node19</title>
<path fill="none" stroke="midnightblue" d="M55.2551,-672.337C55.2551,-651.622 55.2551,-613.016 55.2551,-589.899"/>
<polygon fill="midnightblue" stroke="midnightblue" points="58.7552,-589.669 55.2551,-579.669 51.7552,-589.669 58.7552,-589.669"/>
</g>
<!-- Node2 -->
<g id="node3" class="node"><title>Node2</title>
<g id="a_node3"><a xlink:href="lwipopts_8h.html" target="_top" xlink:title="lwipopts.h">
<polygon fill="white" stroke="black" points="50.7551,-336.5 50.7551,-355.5 111.755,-355.5 111.755,-336.5 50.7551,-336.5"/>
<text text-anchor="middle" x="81.2551" y="-343.5" font-family="Helvetica,sans-Serif" font-size="10.00">lwipopts.h</text>
</a>
</g>
</g>
<!-- Node1&#45;&gt;Node2 -->
<g id="edge2" class="edge"><title>Node1&#45;&gt;Node2</title>
<path fill="none" stroke="midnightblue" d="M107.474,-448.369C96.8607,-440.36 82.5245,-427.379 76.2551,-412 70.247,-397.262 72.3483,-379.102 75.4628,-365.726"/>
<polygon fill="midnightblue" stroke="midnightblue" points="78.9162,-366.365 78.1614,-355.797 72.1612,-364.529 78.9162,-366.365"/>
</g>
<!-- Node3 -->
<g id="node4" class="node"><title>Node3</title>
<g id="a_node4"><a xlink:href="esp-open-sdk_2esp-open-lwip_2include_2lwip_2debug_8h.html" target="_top" xlink:title="lwip/debug.h">
<polygon fill="white" stroke="black" points="85.7551,-392.5 85.7551,-411.5 156.755,-411.5 156.755,-392.5 85.7551,-392.5"/>
<text text-anchor="middle" x="121.255" y="-399.5" font-family="Helvetica,sans-Serif" font-size="10.00">lwip/debug.h</text>
</a>
</g>
</g>
<!-- Node1&#45;&gt;Node3 -->
<g id="edge3" class="edge"><title>Node1&#45;&gt;Node3</title>
<path fill="none" stroke="midnightblue" d="M120.42,-448.083C120.551,-441.006 120.739,-430.861 120.904,-421.986"/>
<polygon fill="midnightblue" stroke="midnightblue" points="124.407,-421.814 121.093,-411.751 117.408,-421.685 124.407,-421.814"/>
</g>
<!-- Node3&#45;&gt;Node2 -->
<g id="edge4" class="edge"><title>Node3&#45;&gt;Node2</title>
<path fill="none" stroke="midnightblue" d="M114.65,-392.083C109,-384.455 100.71,-373.264 93.8039,-363.941"/>
<polygon fill="midnightblue" stroke="midnightblue" points="96.5022,-361.703 87.7374,-355.751 90.8772,-365.87 96.5022,-361.703"/>
</g>
<!-- Node4 -->
<g id="node5" class="node"><title>Node4</title>
<g id="a_node5"><a xlink:href="arch_8h.html" target="_top" xlink:title="lwip/arch.h">
<polygon fill="white" stroke="black" points="153.255,-336.5 153.255,-355.5 217.255,-355.5 217.255,-336.5 153.255,-336.5"/>
<text text-anchor="middle" x="185.255" y="-343.5" font-family="Helvetica,sans-Serif" font-size="10.00">lwip/arch.h</text>
</a>
</g>
</g>
<!-- Node3&#45;&gt;Node4 -->
<g id="edge5" class="edge"><title>Node3&#45;&gt;Node4</title>
<path fill="none" stroke="midnightblue" d="M131.538,-392.324C141.091,-384.263 155.535,-372.077 167.039,-362.369"/>
<polygon fill="midnightblue" stroke="midnightblue" points="169.399,-364.958 174.785,-355.834 164.885,-359.608 169.399,-364.958"/>
</g>
<!-- Node5 -->
<g id="node6" class="node"><title>Node5</title>
<g id="a_node6"><a xlink:href="cc_8h.html" target="_top" xlink:title="arch/cc.h">
<polygon fill="white" stroke="black" points="160.755,-280.5 160.755,-299.5 217.755,-299.5 217.755,-280.5 160.755,-280.5"/>
<text text-anchor="middle" x="189.255" y="-287.5" font-family="Helvetica,sans-Serif" font-size="10.00">arch/cc.h</text>
</a>
</g>
</g>
<!-- Node4&#45;&gt;Node5 -->
<g id="edge6" class="edge"><title>Node4&#45;&gt;Node5</title>
<path fill="none" stroke="midnightblue" d="M185.916,-336.083C186.44,-329.006 187.191,-318.861 187.849,-309.986"/>
<polygon fill="midnightblue" stroke="midnightblue" points="191.359,-309.982 188.607,-299.751 184.378,-309.465 191.359,-309.982"/>
</g>
<!-- Node6 -->
<g id="node7" class="node"><title>Node6</title>
<g id="a_node7"><a xlink:href="c__types_8h.html" target="_top" xlink:title="c_types.h">
<polygon fill="white" stroke="black" points="127.755,-56.5 127.755,-75.5 186.755,-75.5 186.755,-56.5 127.755,-56.5"/>
<text text-anchor="middle" x="157.255" y="-63.5" font-family="Helvetica,sans-Serif" font-size="10.00">c_types.h</text>
</a>
</g>
</g>
<!-- Node5&#45;&gt;Node6 -->
<g id="edge7" class="edge"><title>Node5&#45;&gt;Node6</title>
<path fill="none" stroke="midnightblue" d="M173.291,-280.417C147.567,-265.556 97.8503,-232.323 78.2551,-188 59.9606,-146.619 106.648,-103.492 135.84,-81.6153"/>
<polygon fill="midnightblue" stroke="midnightblue" points="138.197,-84.2307 144.247,-75.5336 134.094,-78.5591 138.197,-84.2307"/>
</g>
<!-- Node9 -->
<g id="node10" class="node"><title>Node9</title>
<g id="a_node10"><a xlink:href="ets__sys_8h.html" target="_top" xlink:title="ets_sys.h">
<polygon fill="white" stroke="black" points="266.755,-112.5 266.755,-131.5 325.755,-131.5 325.755,-112.5 266.755,-112.5"/>
<text text-anchor="middle" x="296.255" y="-119.5" font-family="Helvetica,sans-Serif" font-size="10.00">ets_sys.h</text>
</a>
</g>
</g>
<!-- Node5&#45;&gt;Node9 -->
<g id="edge10" class="edge"><title>Node5&#45;&gt;Node9</title>
<path fill="none" stroke="midnightblue" d="M208.882,-280.373C238.583,-266.092 293.856,-234.433 316.255,-188 323.686,-172.597 316.305,-153.816 308.495,-140.41"/>
<polygon fill="midnightblue" stroke="midnightblue" points="311.276,-138.261 302.938,-131.724 305.379,-142.034 311.276,-138.261"/>
</g>
<!-- Node11 -->
<g id="node12" class="node"><title>Node11</title>
<g id="a_node12"><a xlink:href="osapi_8h.html" target="_top" xlink:title="osapi.h">
<polygon fill="white" stroke="black" points="167.255,-224.5 167.255,-243.5 215.255,-243.5 215.255,-224.5 167.255,-224.5"/>
<text text-anchor="middle" x="191.255" y="-231.5" font-family="Helvetica,sans-Serif" font-size="10.00">osapi.h</text>
</a>
</g>
</g>
<!-- Node5&#45;&gt;Node11 -->
<g id="edge13" class="edge"><title>Node5&#45;&gt;Node11</title>
<path fill="none" stroke="midnightblue" d="M189.585,-280.083C189.847,-273.006 190.223,-262.861 190.552,-253.986"/>
<polygon fill="midnightblue" stroke="midnightblue" points="194.058,-253.874 190.931,-243.751 187.063,-253.615 194.058,-253.874"/>
</g>
<!-- Node7 -->
<g id="node8" class="node"><title>Node7</title>
<polygon fill="white" stroke="#bfbfbf" points="97.7551,-0.5 97.7551,-19.5 146.755,-19.5 146.755,-0.5 97.7551,-0.5"/>
<text text-anchor="middle" x="122.255" y="-7.5" font-family="Helvetica,sans-Serif" font-size="10.00">stdint.h</text>
</g>
<!-- Node6&#45;&gt;Node7 -->
<g id="edge8" class="edge"><title>Node6&#45;&gt;Node7</title>
<path fill="none" stroke="midnightblue" d="M151.476,-56.083C146.583,-48.5341 139.428,-37.4948 133.423,-28.2298"/>
<polygon fill="midnightblue" stroke="midnightblue" points="136.303,-26.239 127.927,-19.7511 130.429,-30.0463 136.303,-26.239"/>
</g>
<!-- Node8 -->
<g id="node9" class="node"><title>Node8</title>
<polygon fill="white" stroke="#bfbfbf" points="165.255,-0.5 165.255,-19.5 221.255,-19.5 221.255,-0.5 165.255,-0.5"/>
<text text-anchor="middle" x="193.255" y="-7.5" font-family="Helvetica,sans-Serif" font-size="10.00">stdbool.h</text>
</g>
<!-- Node6&#45;&gt;Node8 -->
<g id="edge9" class="edge"><title>Node6&#45;&gt;Node8</title>
<path fill="none" stroke="midnightblue" d="M163.2,-56.083C168.232,-48.5341 175.592,-37.4948 181.769,-28.2298"/>
<polygon fill="midnightblue" stroke="midnightblue" points="184.786,-30.0131 187.421,-19.7511 178.962,-26.1301 184.786,-30.0131"/>
</g>
<!-- Node9&#45;&gt;Node6 -->
<g id="edge11" class="edge"><title>Node9&#45;&gt;Node6</title>
<path fill="none" stroke="midnightblue" d="M274.23,-112.444C251.151,-103.478 214.693,-89.314 188.614,-79.1827"/>
<polygon fill="midnightblue" stroke="midnightblue" points="189.766,-75.8753 179.177,-75.5164 187.231,-82.4002 189.766,-75.8753"/>
</g>
<!-- Node10 -->
<g id="node11" class="node"><title>Node10</title>
<g id="a_node11"><a xlink:href="eagle__soc_8h.html" target="_top" xlink:title="eagle_soc.h">
<polygon fill="white" stroke="black" points="302.755,-56.5 302.755,-75.5 371.755,-75.5 371.755,-56.5 302.755,-56.5"/>
<text text-anchor="middle" x="337.255" y="-63.5" font-family="Helvetica,sans-Serif" font-size="10.00">eagle_soc.h</text>
</a>
</g>
</g>
<!-- Node9&#45;&gt;Node10 -->
<g id="edge12" class="edge"><title>Node9&#45;&gt;Node10</title>
<path fill="none" stroke="midnightblue" d="M303.025,-112.083C308.817,-104.455 317.314,-93.2645 324.393,-83.9408"/>
<polygon fill="midnightblue" stroke="midnightblue" points="327.351,-85.8321 330.611,-75.7511 321.776,-81.5991 327.351,-85.8321"/>
</g>
<!-- Node12 -->
<g id="node13" class="node"><title>Node12</title>
<polygon fill="white" stroke="#bfbfbf" points="87.7551,-168.5 87.7551,-187.5 136.755,-187.5 136.755,-168.5 87.7551,-168.5"/>
<text text-anchor="middle" x="112.255" y="-175.5" font-family="Helvetica,sans-Serif" font-size="10.00">string.h</text>
</g>
<!-- Node11&#45;&gt;Node12 -->
<g id="edge14" class="edge"><title>Node11&#45;&gt;Node12</title>
<path fill="none" stroke="midnightblue" d="M178.562,-224.324C166.354,-215.979 147.677,-203.212 133.252,-193.352"/>
<polygon fill="midnightblue" stroke="midnightblue" points="135.147,-190.408 124.916,-187.655 131.197,-196.187 135.147,-190.408"/>
</g>
<!-- Node13 -->
<g id="node14" class="node"><title>Node13</title>
<g id="a_node14"><a xlink:href="os__type_8h.html" target="_top" xlink:title="os_type.h">
<polygon fill="white" stroke="black" points="247.755,-168.5 247.755,-187.5 306.755,-187.5 306.755,-168.5 247.755,-168.5"/>
<text text-anchor="middle" x="277.255" y="-175.5" font-family="Helvetica,sans-Serif" font-size="10.00">os_type.h</text>
</a>
</g>
</g>
<!-- Node11&#45;&gt;Node13 -->
<g id="edge15" class="edge"><title>Node11&#45;&gt;Node13</title>
<path fill="none" stroke="midnightblue" d="M205.072,-224.324C218.488,-215.9 239.079,-202.971 254.841,-193.074"/>
<polygon fill="midnightblue" stroke="midnightblue" points="256.864,-195.936 263.472,-187.655 253.142,-190.008 256.864,-195.936"/>
</g>
<!-- Node14 -->
<g id="node15" class="node"><title>Node14</title>
<polygon fill="white" stroke="#bfbfbf" points="154.755,-168.5 154.755,-187.5 229.755,-187.5 229.755,-168.5 154.755,-168.5"/>
<text text-anchor="middle" x="192.255" y="-175.5" font-family="Helvetica,sans-Serif" font-size="10.00">user_config.h</text>
</g>
<!-- Node11&#45;&gt;Node14 -->
<g id="edge17" class="edge"><title>Node11&#45;&gt;Node14</title>
<path fill="none" stroke="midnightblue" d="M191.42,-224.083C191.551,-217.006 191.739,-206.861 191.904,-197.986"/>
<polygon fill="midnightblue" stroke="midnightblue" points="195.407,-197.814 192.093,-187.751 188.408,-197.685 195.407,-197.814"/>
</g>
<!-- Node13&#45;&gt;Node9 -->
<g id="edge16" class="edge"><title>Node13&#45;&gt;Node9</title>
<path fill="none" stroke="midnightblue" d="M280.393,-168.083C282.938,-160.849 286.611,-150.409 289.782,-141.397"/>
<polygon fill="midnightblue" stroke="midnightblue" points="293.158,-142.346 293.176,-131.751 286.555,-140.023 293.158,-142.346"/>
</g>
<!-- Node15&#45;&gt;Node1 -->
<g id="edge19" class="edge"><title>Node15&#45;&gt;Node1</title>
<path fill="none" stroke="midnightblue" d="M142.019,-616.075C138.398,-589.945 127.766,-513.211 122.829,-477.577"/>
<polygon fill="midnightblue" stroke="midnightblue" points="126.282,-476.993 121.442,-467.568 119.348,-477.954 126.282,-476.993"/>
</g>
<!-- Node16 -->
<g id="node17" class="node"><title>Node16</title>
<g id="a_node17"><a xlink:href="err_8h.html" target="_top" xlink:title="lwip/err.h">
<polygon fill="white" stroke="black" points="148.255,-504.5 148.255,-523.5 204.255,-523.5 204.255,-504.5 148.255,-504.5"/>
<text text-anchor="middle" x="176.255" y="-511.5" font-family="Helvetica,sans-Serif" font-size="10.00">lwip/err.h</text>
</a>
</g>
</g>
<!-- Node15&#45;&gt;Node16 -->
<g id="edge20" class="edge"><title>Node15&#45;&gt;Node16</title>
<path fill="none" stroke="midnightblue" d="M145.845,-616.368C151.194,-598.537 163.567,-557.295 170.774,-533.272"/>
<polygon fill="midnightblue" stroke="midnightblue" points="174.157,-534.175 173.678,-523.591 167.452,-532.164 174.157,-534.175"/>
</g>
<!-- Node17 -->
<g id="node18" class="node"><title>Node17</title>
<g id="a_node18"><a xlink:href="sys_8h.html" target="_top" xlink:title="lwip/sys.h">
<polygon fill="white" stroke="black" points="201.755,-560.5 201.755,-579.5 262.755,-579.5 262.755,-560.5 201.755,-560.5"/>
<text text-anchor="middle" x="232.255" y="-567.5" font-family="Helvetica,sans-Serif" font-size="10.00">lwip/sys.h</text>
</a>
</g>
</g>
<!-- Node15&#45;&gt;Node17 -->
<g id="edge23" class="edge"><title>Node15&#45;&gt;Node17</title>
<path fill="none" stroke="midnightblue" d="M157.554,-616.324C171.438,-607.9 192.747,-594.971 209.059,-585.074"/>
<polygon fill="midnightblue" stroke="midnightblue" points="211.257,-587.834 217.991,-579.655 207.626,-581.85 211.257,-587.834"/>
</g>
<!-- Node16&#45;&gt;Node1 -->
<g id="edge21" class="edge"><title>Node16&#45;&gt;Node1</title>
<path fill="none" stroke="midnightblue" d="M167.258,-504.324C159.061,-496.42 146.75,-484.548 136.783,-474.938"/>
<polygon fill="midnightblue" stroke="midnightblue" points="139.044,-472.256 129.416,-467.834 134.185,-477.295 139.044,-472.256"/>
</g>
<!-- Node16&#45;&gt;Node4 -->
<g id="edge22" class="edge"><title>Node16&#45;&gt;Node4</title>
<path fill="none" stroke="midnightblue" d="M176.739,-504.075C178.156,-477.945 182.316,-401.211 184.248,-365.577"/>
<polygon fill="midnightblue" stroke="midnightblue" points="187.744,-365.743 184.791,-355.568 180.754,-365.364 187.744,-365.743"/>
</g>
<!-- Node17&#45;&gt;Node1 -->
<g id="edge24" class="edge"><title>Node17&#45;&gt;Node1</title>
<path fill="none" stroke="midnightblue" d="M231.908,-560.386C230.931,-546.868 227.229,-520.514 213.255,-504 199.344,-487.559 178.023,-476.642 159.304,-469.683"/>
<polygon fill="midnightblue" stroke="midnightblue" points="160.4,-466.358 149.806,-466.396 158.111,-472.973 160.4,-466.358"/>
</g>
<!-- Node17&#45;&gt;Node10 -->
<g id="edge25" class="edge"><title>Node17&#45;&gt;Node10</title>
<path fill="none" stroke="midnightblue" d="M262.803,-565.621C290.646,-560.945 331.018,-549.901 355.255,-524 375.82,-502.024 374.255,-489.098 374.255,-459 374.255,-459 374.255,-459 374.255,-177 374.255,-142.889 358.074,-105.787 347.113,-84.5681"/>
<polygon fill="midnightblue" stroke="midnightblue" points="350.062,-82.662 342.245,-75.5101 343.896,-85.9756 350.062,-82.662"/>
</g>
<!-- Node17&#45;&gt;Node16 -->
<g id="edge26" class="edge"><title>Node17&#45;&gt;Node16</title>
<path fill="none" stroke="midnightblue" d="M223.258,-560.324C215.061,-552.42 202.75,-540.548 192.783,-530.938"/>
<polygon fill="midnightblue" stroke="midnightblue" points="195.044,-528.256 185.416,-523.834 190.185,-533.295 195.044,-528.256"/>
</g>
<!-- Node18 -->
<g id="node19" class="node"><title>Node18</title>
<g id="a_node19"><a xlink:href="sys__arch_8h.html" target="_top" xlink:title="arch/sys_arch.h">
<polygon fill="white" stroke="black" points="260.255,-504.5 260.255,-523.5 346.255,-523.5 346.255,-504.5 260.255,-504.5"/>
<text text-anchor="middle" x="303.255" y="-511.5" font-family="Helvetica,sans-Serif" font-size="10.00">arch/sys_arch.h</text>
</a>
</g>
</g>
<!-- Node17&#45;&gt;Node18 -->
<g id="edge27" class="edge"><title>Node17&#45;&gt;Node18</title>
<path fill="none" stroke="midnightblue" d="M243.662,-560.324C254.364,-552.185 270.596,-539.839 283.418,-530.087"/>
<polygon fill="midnightblue" stroke="midnightblue" points="285.799,-532.673 291.64,-523.834 281.562,-527.102 285.799,-532.673"/>
</g>
<!-- Node19&#45;&gt;Node1 -->
<g id="edge29" class="edge"><title>Node19&#45;&gt;Node1</title>
<path fill="none" stroke="midnightblue" d="M60.3555,-560.368C71.0349,-542.296 95.9236,-500.176 110.028,-476.307"/>
<polygon fill="midnightblue" stroke="midnightblue" points="113.104,-477.981 115.178,-467.591 107.078,-474.42 113.104,-477.981"/>
</g>
</g>
</svg>
