<?xml version="1.0" encoding="UTF-8" standalone="no"?>
<!DOCTYPE svg PUBLIC "-//W3C//DTD SVG 1.1//EN"
 "http://www.w3.org/Graphics/SVG/1.1/DTD/svg11.dtd">
<!-- Generated by graphviz version 2.38.0 (20140413.2041)
 -->
<!-- Title: sys_timeouts_mbox_fetch Pages: 1 -->
<svg width="337pt" height="28pt"
 viewBox="0.00 0.00 337.00 28.00" xmlns="http://www.w3.org/2000/svg" xmlns:xlink="http://www.w3.org/1999/xlink">
<g id="graph0" class="graph" transform="scale(1 1) rotate(0) translate(4 24)">
<title>sys_timeouts_mbox_fetch</title>
<polygon fill="white" stroke="none" points="-4,4 -4,-24 333,-24 333,4 -4,4"/>
<!-- Node9 -->
<g id="node1" class="node"><title>Node9</title>
<polygon fill="#bfbfbf" stroke="black" points="0,-0.5 0,-19.5 131,-19.5 131,-0.5 0,-0.5"/>
<text text-anchor="middle" x="65.5" y="-7.5" font-family="Helvetica,sans-Serif" font-size="10.00">sys_timeouts_mbox_fetch</text>
</g>
<!-- Node10 -->
<g id="node2" class="node"><title>Node10</title>
<g id="a_node2"><a xlink:href="tcpip_8c.html#a61474ad2c2c25ba58cc774e2bcc4ef5f" target="_top" xlink:title="tcpip_thread">
<polygon fill="white" stroke="black" points="167,-0.5 167,-19.5 237,-19.5 237,-0.5 167,-0.5"/>
<text text-anchor="middle" x="202" y="-7.5" font-family="Helvetica,sans-Serif" font-size="10.00">tcpip_thread</text>
</a>
</g>
</g>
<!-- Node9&#45;&gt;Node10 -->
<g id="edge1" class="edge"><title>Node9&#45;&gt;Node10</title>
<path fill="none" stroke="midnightblue" d="M141.406,-10C150.242,-10 158.9,-10 166.758,-10"/>
<polygon fill="midnightblue" stroke="midnightblue" points="141.386,-6.5001 131.386,-10 141.386,-13.5001 141.386,-6.5001"/>
</g>
<!-- Node11 -->
<g id="node3" class="node"><title>Node11</title>
<g id="a_node3"><a xlink:href="tcpip_8c.html#a1f3a88b8df6ba3b9ed1c00e0a305e3db" target="_top" xlink:title="tcpip_init">
<polygon fill="white" stroke="black" points="273,-0.5 273,-19.5 329,-19.5 329,-0.5 273,-0.5"/>
<text text-anchor="middle" x="301" y="-7.5" font-family="Helvetica,sans-Serif" font-size="10.00">tcpip_init</text>
</a>
</g>
</g>
<!-- Node10&#45;&gt;Node11 -->
<g id="edge2" class="edge"><title>Node10&#45;&gt;Node11</title>
<path fill="none" stroke="midnightblue" d="M247.267,-10C255.974,-10 264.864,-10 272.804,-10"/>
<polygon fill="midnightblue" stroke="midnightblue" points="247.199,-6.5001 237.199,-10 247.199,-13.5001 247.199,-6.5001"/>
</g>
</g>
</svg>
