<?xml version="1.0" encoding="UTF-8" standalone="no"?>
<!DOCTYPE svg PUBLIC "-//W3C//DTD SVG 1.1//EN"
 "http://www.w3.org/Graphics/SVG/1.1/DTD/svg11.dtd">
<!-- Generated by graphviz version 2.38.0 (20140413.2041)
 -->
<!-- Title: tfp_format Pages: 1 -->
<svg width="228pt" height="294pt"
 viewBox="0.00 0.00 228.00 294.00" xmlns="http://www.w3.org/2000/svg" xmlns:xlink="http://www.w3.org/1999/xlink">
<g id="graph0" class="graph" transform="scale(1 1) rotate(0) translate(4 290)">
<title>tfp_format</title>
<polygon fill="white" stroke="none" points="-4,4 -4,-290 224,-290 224,4 -4,4"/>
<!-- Node679 -->
<g id="node1" class="node"><title>Node679</title>
<polygon fill="#bfbfbf" stroke="black" points="0,-133.5 0,-152.5 61,-152.5 61,-133.5 0,-133.5"/>
<text text-anchor="middle" x="30.5" y="-140.5" font-family="Helvetica,sans-Serif" font-size="10.00">tfp_format</text>
</g>
<!-- Node680 -->
<g id="node2" class="node"><title>Node680</title>
<g id="a_node2"><a xlink:href="tinyprintf_8c.html#aa97593a5e53af85b608ad0910db92d77" target="_top" xlink:title="a2u">
<polygon fill="white" stroke="black" points="105,-266.5 105,-285.5 137,-285.5 137,-266.5 105,-266.5"/>
<text text-anchor="middle" x="121" y="-273.5" font-family="Helvetica,sans-Serif" font-size="10.00">a2u</text>
</a>
</g>
</g>
<!-- Node679&#45;&gt;Node680 -->
<g id="edge1" class="edge"><title>Node679&#45;&gt;Node680</title>
<path fill="none" stroke="midnightblue" d="M35.5745,-152.585C44.61,-173.154 67.8524,-222.46 97,-257 97.7015,-257.831 98.4426,-258.654 99.2122,-259.464"/>
<polygon fill="midnightblue" stroke="midnightblue" points="96.8848,-262.079 106.604,-266.297 101.637,-256.939 96.8848,-262.079"/>
</g>
<!-- Node682 -->
<g id="node4" class="node"><title>Node682</title>
<g id="a_node4"><a xlink:href="tinyprintf_8c.html#a90f9fd8f2133cda7f50be8d67823405c" target="_top" xlink:title="i2a">
<polygon fill="white" stroke="black" points="106.5,-228.5 106.5,-247.5 135.5,-247.5 135.5,-228.5 106.5,-228.5"/>
<text text-anchor="middle" x="121" y="-235.5" font-family="Helvetica,sans-Serif" font-size="10.00">i2a</text>
</a>
</g>
</g>
<!-- Node679&#45;&gt;Node682 -->
<g id="edge3" class="edge"><title>Node679&#45;&gt;Node682</title>
<path fill="none" stroke="midnightblue" d="M40.3415,-152.7C52.8724,-166.422 76.5512,-192.252 97,-214 99.0755,-216.207 101.267,-218.519 103.44,-220.799"/>
<polygon fill="midnightblue" stroke="midnightblue" points="101.114,-223.43 110.558,-228.232 106.169,-218.588 101.114,-223.43"/>
</g>
<!-- Node683 -->
<g id="node5" class="node"><title>Node683</title>
<g id="a_node5"><a xlink:href="tinyprintf_8c.html#ac87ff66a592723f55692eaf8e3f19df8" target="_top" xlink:title="ui2a">
<polygon fill="white" stroke="black" points="183,-209.5 183,-228.5 218,-228.5 218,-209.5 183,-209.5"/>
<text text-anchor="middle" x="200.5" y="-216.5" font-family="Helvetica,sans-Serif" font-size="10.00">ui2a</text>
</a>
</g>
</g>
<!-- Node679&#45;&gt;Node683 -->
<g id="edge10" class="edge"><title>Node679&#45;&gt;Node683</title>
<path fill="none" stroke="midnightblue" d="M46.197,-152.501C59.2215,-160.683 78.9235,-172.482 97,-181 122.229,-192.888 152.269,-203.65 173.283,-210.661"/>
<polygon fill="midnightblue" stroke="midnightblue" points="172.22,-213.995 182.813,-213.789 174.404,-207.345 172.22,-213.995"/>
</g>
<!-- Node684 -->
<g id="node6" class="node"><title>Node684</title>
<g id="a_node6"><a xlink:href="tinyprintf_8c.html#afebb7696337c3f599b5e8db35c560684" target="_top" xlink:title="li2a">
<polygon fill="white" stroke="black" points="105,-152.5 105,-171.5 137,-171.5 137,-152.5 105,-152.5"/>
<text text-anchor="middle" x="121" y="-159.5" font-family="Helvetica,sans-Serif" font-size="10.00">li2a</text>
</a>
</g>
</g>
<!-- Node679&#45;&gt;Node684 -->
<g id="edge5" class="edge"><title>Node679&#45;&gt;Node684</title>
<path fill="none" stroke="midnightblue" d="M61.4621,-149.433C72.3295,-151.766 84.485,-154.375 94.8911,-156.609"/>
<polygon fill="midnightblue" stroke="midnightblue" points="94.4627,-160.097 104.975,-158.774 95.9321,-153.253 94.4627,-160.097"/>
</g>
<!-- Node685 -->
<g id="node7" class="node"><title>Node685</title>
<g id="a_node7"><a xlink:href="tinyprintf_8c.html#a1d61347854a8c290d59b4a21efcefd75" target="_top" xlink:title="uli2a">
<polygon fill="white" stroke="black" points="182,-123.5 182,-142.5 219,-142.5 219,-123.5 182,-123.5"/>
<text text-anchor="middle" x="200.5" y="-130.5" font-family="Helvetica,sans-Serif" font-size="10.00">uli2a</text>
</a>
</g>
</g>
<!-- Node679&#45;&gt;Node685 -->
<g id="edge11" class="edge"><title>Node679&#45;&gt;Node685</title>
<path fill="none" stroke="midnightblue" d="M61.1483,-141.235C92.3573,-139.378 141.108,-136.476 171.63,-134.659"/>
<polygon fill="midnightblue" stroke="midnightblue" points="172.21,-138.131 181.984,-134.043 171.794,-131.143 172.21,-138.131"/>
</g>
<!-- Node686 -->
<g id="node8" class="node"><title>Node686</title>
<g id="a_node8"><a xlink:href="tinyprintf_8c.html#a49c6d2b3d4088012f2c1fe344eef69f3" target="_top" xlink:title="lli2a">
<polygon fill="white" stroke="black" points="104,-76.5 104,-95.5 138,-95.5 138,-76.5 104,-76.5"/>
<text text-anchor="middle" x="121" y="-83.5" font-family="Helvetica,sans-Serif" font-size="10.00">lli2a</text>
</a>
</g>
</g>
<!-- Node679&#45;&gt;Node686 -->
<g id="edge7" class="edge"><title>Node679&#45;&gt;Node686</title>
<path fill="none" stroke="midnightblue" d="M46.5128,-133.331C60.1994,-124.516 80.6404,-111.35 96.4919,-101.141"/>
<polygon fill="midnightblue" stroke="midnightblue" points="98.6969,-103.884 105.209,-95.5265 94.9065,-97.9988 98.6969,-103.884"/>
</g>
<!-- Node687 -->
<g id="node9" class="node"><title>Node687</title>
<g id="a_node9"><a xlink:href="tinyprintf_8c.html#abcf035dd576671b0cc897de9dd8c75b0" target="_top" xlink:title="ulli2a">
<polygon fill="white" stroke="black" points="181,-66.5 181,-85.5 220,-85.5 220,-66.5 181,-66.5"/>
<text text-anchor="middle" x="200.5" y="-73.5" font-family="Helvetica,sans-Serif" font-size="10.00">ulli2a</text>
</a>
</g>
</g>
<!-- Node679&#45;&gt;Node687 -->
<g id="edge12" class="edge"><title>Node679&#45;&gt;Node687</title>
<path fill="none" stroke="midnightblue" d="M36.1743,-133.47C45.1805,-116.345 66.7556,-80.861 97,-67 120.306,-56.3189 149.695,-60.4421 171.022,-66.1277"/>
<polygon fill="midnightblue" stroke="midnightblue" points="170.201,-69.5343 180.782,-68.9863 172.169,-62.8165 170.201,-69.5343"/>
</g>
<!-- Node688 -->
<g id="node10" class="node"><title>Node688</title>
<g id="a_node10"><a xlink:href="tinyprintf_8c.html#a6252dbfebb2c8783c4e3107d551082dd" target="_top" xlink:title="putchw">
<polygon fill="white" stroke="black" points="97,-0.5 97,-19.5 145,-19.5 145,-0.5 97,-0.5"/>
<text text-anchor="middle" x="121" y="-7.5" font-family="Helvetica,sans-Serif" font-size="10.00">putchw</text>
</a>
</g>
</g>
<!-- Node679&#45;&gt;Node688 -->
<g id="edge9" class="edge"><title>Node679&#45;&gt;Node688</title>
<path fill="none" stroke="midnightblue" d="M36.4315,-133.209C46.537,-113.544 70.8567,-68.2042 97,-34 98.6559,-31.8335 100.484,-29.6492 102.365,-27.5274"/>
<polygon fill="midnightblue" stroke="midnightblue" points="105.312,-29.503 109.622,-19.8244 100.217,-24.7029 105.312,-29.503"/>
</g>
<!-- Node681 -->
<g id="node3" class="node"><title>Node681</title>
<g id="a_node3"><a xlink:href="tinyprintf_8c.html#aa853a0c5ba64fa2546d488b86192e7e3" target="_top" xlink:title="a2d">
<polygon fill="white" stroke="black" points="184.5,-266.5 184.5,-285.5 216.5,-285.5 216.5,-266.5 184.5,-266.5"/>
<text text-anchor="middle" x="200.5" y="-273.5" font-family="Helvetica,sans-Serif" font-size="10.00">a2d</text>
</a>
</g>
</g>
<!-- Node680&#45;&gt;Node681 -->
<g id="edge2" class="edge"><title>Node680&#45;&gt;Node681</title>
<path fill="none" stroke="midnightblue" d="M137.312,-276C147.888,-276 162.197,-276 174.423,-276"/>
<polygon fill="midnightblue" stroke="midnightblue" points="174.484,-279.5 184.484,-276 174.484,-272.5 174.484,-279.5"/>
</g>
<!-- Node682&#45;&gt;Node683 -->
<g id="edge4" class="edge"><title>Node682&#45;&gt;Node683</title>
<path fill="none" stroke="midnightblue" d="M135.855,-234.603C146.128,-232.085 160.448,-228.574 172.904,-225.52"/>
<polygon fill="midnightblue" stroke="midnightblue" points="173.919,-228.875 182.798,-223.095 172.253,-222.076 173.919,-228.875"/>
</g>
<!-- Node684&#45;&gt;Node685 -->
<g id="edge6" class="edge"><title>Node684&#45;&gt;Node685</title>
<path fill="none" stroke="midnightblue" d="M137.312,-156.271C147.306,-152.531 160.632,-147.544 172.385,-143.146"/>
<polygon fill="midnightblue" stroke="midnightblue" points="173.64,-146.414 181.779,-139.631 171.187,-139.858 173.64,-146.414"/>
</g>
<!-- Node686&#45;&gt;Node687 -->
<g id="edge8" class="edge"><title>Node686&#45;&gt;Node687</title>
<path fill="none" stroke="midnightblue" d="M138.058,-83.928C147.466,-82.7141 159.628,-81.1447 170.647,-79.723"/>
<polygon fill="midnightblue" stroke="midnightblue" points="171.263,-83.1725 180.733,-78.4215 170.368,-76.2301 171.263,-83.1725"/>
</g>
</g>
</svg>
