<?xml version="1.0" encoding="UTF-8" standalone="no"?>
<!DOCTYPE svg PUBLIC "-//W3C//DTD SVG 1.1//EN"
 "http://www.w3.org/Graphics/SVG/1.1/DTD/svg11.dtd">
<!-- Generated by graphviz version 2.38.0 (20140413.2041)
 -->
<!-- Title: ui2a Pages: 1 -->
<svg width="906pt" height="1597pt"
 viewBox="0.00 0.00 906.00 1596.64" xmlns="http://www.w3.org/2000/svg" xmlns:xlink="http://www.w3.org/1999/xlink">
<g id="graph0" class="graph" transform="scale(1 1) rotate(0) translate(4 1592.64)">
<title>ui2a</title>
<polygon fill="white" stroke="none" points="-4,4 -4,-1592.64 902,-1592.64 902,4 -4,4"/>
<!-- Node1028 -->
<g id="node1" class="node"><title>Node1028</title>
<polygon fill="#bfbfbf" stroke="black" points="0,-782.5 0,-801.5 35,-801.5 35,-782.5 0,-782.5"/>
<text text-anchor="middle" x="17.5" y="-789.5" font-family="Helvetica,sans-Serif" font-size="10.00">ui2a</text>
</g>
<!-- Node1029 -->
<g id="node2" class="node"><title>Node1029</title>
<g id="a_node2"><a xlink:href="tinyprintf_8c.html#a90f9fd8f2133cda7f50be8d67823405c" target="_top" xlink:title="i2a">
<polygon fill="white" stroke="black" points="71,-763.5 71,-782.5 100,-782.5 100,-763.5 71,-763.5"/>
<text text-anchor="middle" x="85.5" y="-770.5" font-family="Helvetica,sans-Serif" font-size="10.00">i2a</text>
</a>
</g>
</g>
<!-- Node1028&#45;&gt;Node1029 -->
<g id="edge1" class="edge"><title>Node1028&#45;&gt;Node1029</title>
<path fill="none" stroke="midnightblue" d="M45.0446,-784.358C53.8544,-781.822 63.303,-779.102 70.7446,-776.96"/>
<polygon fill="midnightblue" stroke="midnightblue" points="43.796,-781.076 35.1546,-787.205 45.7326,-787.802 43.796,-781.076"/>
</g>
<!-- Node1030 -->
<g id="node3" class="node"><title>Node1030</title>
<g id="a_node3"><a xlink:href="tinyprintf_8h.html#a5877e42444463efc71a91b5fe76a6145" target="_top" xlink:title="tfp_format">
<polygon fill="white" stroke="black" points="136,-782.5 136,-801.5 197,-801.5 197,-782.5 136,-782.5"/>
<text text-anchor="middle" x="166.5" y="-789.5" font-family="Helvetica,sans-Serif" font-size="10.00">tfp_format</text>
</a>
</g>
</g>
<!-- Node1028&#45;&gt;Node1030 -->
<g id="edge69" class="edge"><title>Node1028&#45;&gt;Node1030</title>
<path fill="none" stroke="midnightblue" d="M45.1666,-792C70.729,-792 109.245,-792 135.781,-792"/>
<polygon fill="midnightblue" stroke="midnightblue" points="45.0771,-788.5 35.077,-792 45.077,-795.5 45.0771,-788.5"/>
</g>
<!-- Node1029&#45;&gt;Node1030 -->
<g id="edge2" class="edge"><title>Node1029&#45;&gt;Node1030</title>
<path fill="none" stroke="midnightblue" d="M110.133,-778.684C118.218,-780.628 127.367,-782.829 135.866,-784.873"/>
<polygon fill="midnightblue" stroke="midnightblue" points="110.802,-775.245 100.261,-776.31 109.165,-782.051 110.802,-775.245"/>
</g>
<!-- Node1031 -->
<g id="node4" class="node"><title>Node1031</title>
<g id="a_node4"><a xlink:href="tinyprintf_8c.html#aac182690a3ca5e5cc504e13ebde4b031" target="_top" xlink:title="tfp_printf">
<polygon fill="white" stroke="black" points="241,-820.5 241,-839.5 296,-839.5 296,-820.5 241,-820.5"/>
<text text-anchor="middle" x="268.5" y="-827.5" font-family="Helvetica,sans-Serif" font-size="10.00">tfp_printf</text>
</a>
</g>
</g>
<!-- Node1030&#45;&gt;Node1031 -->
<g id="edge3" class="edge"><title>Node1030&#45;&gt;Node1031</title>
<path fill="none" stroke="midnightblue" d="M202.407,-805.265C215.535,-810.253 230.195,-815.824 242.274,-820.414"/>
<polygon fill="midnightblue" stroke="midnightblue" points="203.325,-801.869 192.734,-801.589 200.839,-808.413 203.325,-801.869"/>
</g>
<!-- Node1032 -->
<g id="node5" class="node"><title>Node1032</title>
<g id="a_node5"><a xlink:href="tinyprintf_8h.html#a891fbd02fd3bfa5c0ca950a4191da9fe" target="_top" xlink:title="tfp_vsnprintf">
<polygon fill="white" stroke="black" points="233,-782.5 233,-801.5 304,-801.5 304,-782.5 233,-782.5"/>
<text text-anchor="middle" x="268.5" y="-789.5" font-family="Helvetica,sans-Serif" font-size="10.00">tfp_vsnprintf</text>
</a>
</g>
</g>
<!-- Node1030&#45;&gt;Node1032 -->
<g id="edge4" class="edge"><title>Node1030&#45;&gt;Node1032</title>
<path fill="none" stroke="midnightblue" d="M207.257,-792C215.697,-792 224.543,-792 232.778,-792"/>
<polygon fill="midnightblue" stroke="midnightblue" points="207.233,-788.5 197.233,-792 207.233,-795.5 207.233,-788.5"/>
</g>
<!-- Node1122 -->
<g id="node49" class="node"><title>Node1122</title>
<g id="a_node49"><a xlink:href="tinyprintf_8h.html#a9e281947b52c96c7c8d1c0928c79f839" target="_top" xlink:title="tfp_vsprintf">
<polygon fill="white" stroke="black" points="236,-744.5 236,-763.5 301,-763.5 301,-744.5 236,-744.5"/>
<text text-anchor="middle" x="268.5" y="-751.5" font-family="Helvetica,sans-Serif" font-size="10.00">tfp_vsprintf</text>
</a>
</g>
</g>
<!-- Node1030&#45;&gt;Node1122 -->
<g id="edge67" class="edge"><title>Node1030&#45;&gt;Node1122</title>
<path fill="none" stroke="midnightblue" d="M202.407,-778.735C215.535,-773.747 230.195,-768.176 242.274,-763.586"/>
<polygon fill="midnightblue" stroke="midnightblue" points="200.839,-775.587 192.734,-782.411 203.325,-782.131 200.839,-775.587"/>
</g>
<!-- Node1033 -->
<g id="node6" class="node"><title>Node1033</title>
<g id="a_node6"><a xlink:href="tinyprintf_8c.html#a9738cbc6c538d210941db282e240c7d6" target="_top" xlink:title="tfp_snprintf">
<polygon fill="white" stroke="red" points="340,-782.5 340,-801.5 405,-801.5 405,-782.5 340,-782.5"/>
<text text-anchor="middle" x="372.5" y="-789.5" font-family="Helvetica,sans-Serif" font-size="10.00">tfp_snprintf</text>
</a>
</g>
</g>
<!-- Node1032&#45;&gt;Node1033 -->
<g id="edge5" class="edge"><title>Node1032&#45;&gt;Node1033</title>
<path fill="none" stroke="midnightblue" d="M314.307,-792C322.881,-792 331.692,-792 339.751,-792"/>
<polygon fill="midnightblue" stroke="midnightblue" points="314.033,-788.5 304.033,-792 314.033,-795.5 314.033,-788.5"/>
</g>
<!-- Node1034 -->
<g id="node7" class="node"><title>Node1034</title>
<g id="a_node7"><a xlink:href="config_8h.html#a92adb6c5103eed30e16185a9cd233e51" target="_top" xlink:title="cfg_load">
<polygon fill="white" stroke="red" points="483.5,-1532.5 483.5,-1551.5 536.5,-1551.5 536.5,-1532.5 483.5,-1532.5"/>
<text text-anchor="middle" x="510" y="-1539.5" font-family="Helvetica,sans-Serif" font-size="10.00">cfg_load</text>
</a>
</g>
</g>
<!-- Node1033&#45;&gt;Node1034 -->
<g id="edge6" class="edge"><title>Node1033&#45;&gt;Node1034</title>
<path fill="none" stroke="midnightblue" d="M374.079,-811.707C377.487,-922.086 396.326,-1460.69 441,-1518 451.083,-1530.93 468.652,-1536.92 483.407,-1539.67"/>
<polygon fill="midnightblue" stroke="midnightblue" points="377.576,-811.528 373.775,-801.638 370.579,-811.739 377.576,-811.528"/>
</g>
<!-- Node1057 -->
<g id="node8" class="node"><title>Node1057</title>
<g id="a_node8"><a xlink:href="cgiwifi_8h.html#ace460e5ac8fd74afa8616bfc82561b26" target="_top" xlink:title="tplSetup">
<polygon fill="white" stroke="black" points="652.5,-1532.5 652.5,-1551.5 705.5,-1551.5 705.5,-1532.5 652.5,-1532.5"/>
<text text-anchor="middle" x="679" y="-1539.5" font-family="Helvetica,sans-Serif" font-size="10.00">tplSetup</text>
</a>
</g>
</g>
<!-- Node1033&#45;&gt;Node1057 -->
<g id="edge66" class="edge"><title>Node1033&#45;&gt;Node1057</title>
<path fill="none" stroke="midnightblue" d="M373.679,-811.696C374.926,-926.767 384.033,-1508.81 441,-1561 502.635,-1617.46 615.054,-1572.71 659.349,-1551.54"/>
<polygon fill="midnightblue" stroke="midnightblue" points="377.178,-811.497 373.577,-801.533 370.178,-811.567 377.178,-811.497"/>
</g>
<!-- Node1058 -->
<g id="node9" class="node"><title>Node1058</title>
<g id="a_node9"><a xlink:href="cgiwifi_8h.html#aa1b2a25d59b9eecb6f57b7d698686064" target="_top" xlink:title="cgiWiFiScan">
<polygon fill="white" stroke="black" points="643,-1152.5 643,-1171.5 715,-1171.5 715,-1152.5 643,-1152.5"/>
<text text-anchor="middle" x="679" y="-1159.5" font-family="Helvetica,sans-Serif" font-size="10.00">cgiWiFiScan</text>
</a>
</g>
</g>
<!-- Node1033&#45;&gt;Node1058 -->
<g id="edge8" class="edge"><title>Node1033&#45;&gt;Node1058</title>
<path fill="none" stroke="midnightblue" d="M373.736,-811.67C375.054,-883.903 383.748,-1132.83 441,-1181 504.485,-1234.42 614.382,-1192.24 658.673,-1171.65"/>
<polygon fill="midnightblue" stroke="midnightblue" points="377.235,-811.597 373.581,-801.652 370.236,-811.705 377.235,-811.597"/>
</g>
<!-- Node1059 -->
<g id="node10" class="node"><title>Node1059</title>
<g id="a_node10"><a xlink:href="utils_8h.html#aa76bb225374d144009e05cadce84260b" target="_top" xlink:title="cleanup_decimal_str">
<polygon fill="white" stroke="red" points="457,-1000.5 457,-1019.5 563,-1019.5 563,-1000.5 457,-1000.5"/>
<text text-anchor="middle" x="510" y="-1007.5" font-family="Helvetica,sans-Serif" font-size="10.00">cleanup_decimal_str</text>
</a>
</g>
</g>
<!-- Node1033&#45;&gt;Node1059 -->
<g id="edge9" class="edge"><title>Node1033&#45;&gt;Node1059</title>
<path fill="none" stroke="midnightblue" d="M374.343,-811.761C377.133,-851.597 389.162,-941.916 441,-991 445.539,-995.298 450.969,-998.638 456.754,-1001.23"/>
<polygon fill="midnightblue" stroke="midnightblue" points="377.823,-811.312 373.757,-801.528 370.834,-811.712 377.823,-811.312"/>
</g>
<!-- Node1063 -->
<g id="node11" class="node"><title>Node1063</title>
<g id="a_node11"><a xlink:href="en61107_8h.html#a5a71fa85ca3ccb0abfcb8f122affbbdd" target="_top" xlink:title="parse_mc66cde_standard\l_data_1_frame">
<polygon fill="white" stroke="black" points="615,-981 615,-1011 743,-1011 743,-981 615,-981"/>
<text text-anchor="start" x="623" y="-999" font-family="Helvetica,sans-Serif" font-size="10.00">parse_mc66cde_standard</text>
<text text-anchor="middle" x="679" y="-988" font-family="Helvetica,sans-Serif" font-size="10.00">_data_1_frame</text>
</a>
</g>
</g>
<!-- Node1033&#45;&gt;Node1063 -->
<g id="edge62" class="edge"><title>Node1033&#45;&gt;Node1063</title>
<path fill="none" stroke="midnightblue" d="M376.058,-811.574C383.276,-863.442 405.611,-1002.28 441,-1029 503.829,-1076.43 603.505,-1035.56 651.05,-1011.13"/>
<polygon fill="midnightblue" stroke="midnightblue" points="379.523,-811.08 374.714,-801.64 372.586,-812.019 379.523,-811.08"/>
</g>
<!-- Node1061 -->
<g id="node12" class="node"><title>Node1061</title>
<g id="a_node12"><a xlink:href="en61107__request_8c.html#aa3b162cf5364986ea19e831ac2b18f76" target="_top" xlink:title="en61107_received_task">
<polygon fill="white" stroke="red" points="779,-986.5 779,-1005.5 898,-1005.5 898,-986.5 779,-986.5"/>
<text text-anchor="middle" x="838.5" y="-993.5" font-family="Helvetica,sans-Serif" font-size="10.00">en61107_received_task</text>
</a>
</g>
</g>
<!-- Node1033&#45;&gt;Node1061 -->
<g id="edge23" class="edge"><title>Node1033&#45;&gt;Node1061</title>
<path fill="none" stroke="midnightblue" d="M375.517,-811.759C381.654,-867.493 402.098,-1023.85 441,-1054 560.874,-1146.9 764.113,-1039.52 821.808,-1005.6"/>
<polygon fill="midnightblue" stroke="midnightblue" points="378.99,-811.32 374.451,-801.747 372.03,-812.062 378.99,-811.32"/>
</g>
<!-- Node1064 -->
<g id="node13" class="node"><title>Node1064</title>
<g id="a_node13"><a xlink:href="utils_8h.html#a83488e29965def270a8e27370ee5013a" target="_top" xlink:title="divide_str_by_10">
<polygon fill="white" stroke="black" points="465,-962.5 465,-981.5 555,-981.5 555,-962.5 465,-962.5"/>
<text text-anchor="middle" x="510" y="-969.5" font-family="Helvetica,sans-Serif" font-size="10.00">divide_str_by_10</text>
</a>
</g>
</g>
<!-- Node1033&#45;&gt;Node1064 -->
<g id="edge12" class="edge"><title>Node1033&#45;&gt;Node1064</title>
<path fill="none" stroke="midnightblue" d="M376.154,-811.699C381.785,-845.646 398.127,-915.159 441,-953 447.709,-958.921 456.121,-963.011 464.719,-965.831"/>
<polygon fill="midnightblue" stroke="midnightblue" points="379.59,-811.011 374.633,-801.647 372.669,-812.058 379.59,-811.011"/>
</g>
<!-- Node1065 -->
<g id="node14" class="node"><title>Node1065</title>
<g id="a_node14"><a xlink:href="utils_8h.html#ae7c507f8b417b23e187f267fd8a2adf2" target="_top" xlink:title="divide_str_by_100">
<polygon fill="white" stroke="black" points="462.5,-924.5 462.5,-943.5 557.5,-943.5 557.5,-924.5 462.5,-924.5"/>
<text text-anchor="middle" x="510" y="-931.5" font-family="Helvetica,sans-Serif" font-size="10.00">divide_str_by_100</text>
</a>
</g>
</g>
<!-- Node1033&#45;&gt;Node1065 -->
<g id="edge14" class="edge"><title>Node1033&#45;&gt;Node1065</title>
<path fill="none" stroke="midnightblue" d="M379.706,-811.281C389.011,-837.253 408.984,-883.292 441,-910 448.499,-916.255 457.74,-920.927 466.967,-924.399"/>
<polygon fill="midnightblue" stroke="midnightblue" points="383.009,-810.123 376.464,-801.792 376.385,-812.386 383.009,-810.123"/>
</g>
<!-- Node1066 -->
<g id="node15" class="node"><title>Node1066</title>
<g id="a_node15"><a xlink:href="en61107_8h.html#af624e427f5989ad2a68e1ce0bc4a7358" target="_top" xlink:title="parse_mc66cde_inst\l_values_frame">
<polygon fill="white" stroke="black" points="625.5,-919 625.5,-949 732.5,-949 732.5,-919 625.5,-919"/>
<text text-anchor="start" x="633.5" y="-937" font-family="Helvetica,sans-Serif" font-size="10.00">parse_mc66cde_inst</text>
<text text-anchor="middle" x="679" y="-926" font-family="Helvetica,sans-Serif" font-size="10.00">_values_frame</text>
</a>
</g>
</g>
<!-- Node1033&#45;&gt;Node1066 -->
<g id="edge61" class="edge"><title>Node1033&#45;&gt;Node1066</title>
<path fill="none" stroke="midnightblue" d="M383.241,-810.514C394.509,-830.078 414.906,-860.354 441,-877 456.52,-886.9 560.43,-909.675 625.406,-923.249"/>
<polygon fill="midnightblue" stroke="midnightblue" points="386.231,-808.689 378.328,-801.633 380.106,-812.077 386.231,-808.689"/>
</g>
<!-- Node1067 -->
<g id="node16" class="node"><title>Node1067</title>
<g id="a_node16"><a xlink:href="utils_8h.html#a8cb2ca5a4a3230dd10f37e14a049a04e" target="_top" xlink:title="divide_str_by_1000">
<polygon fill="white" stroke="red" points="459.5,-1456.5 459.5,-1475.5 560.5,-1475.5 560.5,-1456.5 459.5,-1456.5"/>
<text text-anchor="middle" x="510" y="-1463.5" font-family="Helvetica,sans-Serif" font-size="10.00">divide_str_by_1000</text>
</a>
</g>
</g>
<!-- Node1033&#45;&gt;Node1067 -->
<g id="edge18" class="edge"><title>Node1033&#45;&gt;Node1067</title>
<path fill="none" stroke="midnightblue" d="M374.312,-811.866C378.71,-915.491 400.977,-1391.22 441,-1442 445.96,-1448.29 452.69,-1452.94 459.995,-1456.37"/>
<polygon fill="midnightblue" stroke="midnightblue" points="377.807,-811.668 373.892,-801.823 370.813,-811.96 377.807,-811.668"/>
</g>
<!-- Node1068 -->
<g id="node17" class="node"><title>Node1068</title>
<g id="a_node17"><a xlink:href="mqtt__rpc_8h.html#a550893f994cbbd9b6b745488f0c512ac" target="_top" xlink:title="mqtt_rpc_vdd">
<polygon fill="white" stroke="black" points="641,-1475.5 641,-1494.5 717,-1494.5 717,-1475.5 641,-1475.5"/>
<text text-anchor="middle" x="679" y="-1482.5" font-family="Helvetica,sans-Serif" font-size="10.00">mqtt_rpc_vdd</text>
</a>
</g>
</g>
<!-- Node1033&#45;&gt;Node1068 -->
<g id="edge54" class="edge"><title>Node1033&#45;&gt;Node1068</title>
<path fill="none" stroke="midnightblue" d="M373.879,-811.735C376.159,-919.981 389.714,-1438.47 441,-1485 499.964,-1538.5 605.194,-1511.12 653.062,-1494.57"/>
<polygon fill="midnightblue" stroke="midnightblue" points="377.375,-811.506 373.674,-801.579 370.377,-811.647 377.375,-811.506"/>
</g>
<!-- Node1047 -->
<g id="node18" class="node"><title>Node1047</title>
<g id="a_node18"><a xlink:href="mqtt__rpc_8h.html#a44921185fc90cf7507f2eaf4fa48861a" target="_top" xlink:title="mqtt_rpc_open_until">
<polygon fill="white" stroke="black" points="627,-1421.5 627,-1440.5 731,-1440.5 731,-1421.5 627,-1421.5"/>
<text text-anchor="middle" x="679" y="-1428.5" font-family="Helvetica,sans-Serif" font-size="10.00">mqtt_rpc_open_until</text>
</a>
</g>
</g>
<!-- Node1033&#45;&gt;Node1047 -->
<g id="edge41" class="edge"><title>Node1033&#45;&gt;Node1047</title>
<path fill="none" stroke="midnightblue" d="M374.212,-811.984C378.009,-913.19 397.359,-1366.07 441,-1409 466.408,-1433.99 565.183,-1435.29 626.915,-1433.48"/>
<polygon fill="midnightblue" stroke="midnightblue" points="377.706,-811.758 373.842,-801.893 370.711,-812.014 377.706,-811.758"/>
</g>
<!-- Node1048 -->
<g id="node19" class="node"><title>Node1048</title>
<g id="a_node19"><a xlink:href="mqtt__rpc_8h.html#a37edc063b829348999e78221ed0f247e" target="_top" xlink:title="mqtt_rpc_open_until\l_delta">
<polygon fill="white" stroke="black" points="627,-1372 627,-1402 731,-1402 731,-1372 627,-1372"/>
<text text-anchor="start" x="635" y="-1390" font-family="Helvetica,sans-Serif" font-size="10.00">mqtt_rpc_open_until</text>
<text text-anchor="middle" x="679" y="-1379" font-family="Helvetica,sans-Serif" font-size="10.00">_delta</text>
</a>
</g>
</g>
<!-- Node1033&#45;&gt;Node1048 -->
<g id="edge42" class="edge"><title>Node1033&#45;&gt;Node1048</title>
<path fill="none" stroke="midnightblue" d="M373.175,-811.798C372.16,-898.722 372.517,-1245.7 441,-1324 453.35,-1338.12 561.033,-1362.66 626.925,-1376.58"/>
<polygon fill="midnightblue" stroke="midnightblue" points="376.676,-811.758 373.314,-801.71 369.677,-811.661 376.676,-811.758"/>
</g>
<!-- Node1070 -->
<g id="node20" class="node"><title>Node1070</title>
<g id="a_node20"><a xlink:href="en61107_8h.html#aae970a67aa118631b1e9e3b0cc41e7fc" target="_top" xlink:title="en61107_response_set_unit">
<polygon fill="white" stroke="red" points="441,-848.5 441,-867.5 579,-867.5 579,-848.5 441,-848.5"/>
<text text-anchor="middle" x="510" y="-855.5" font-family="Helvetica,sans-Serif" font-size="10.00">en61107_response_set_unit</text>
</a>
</g>
</g>
<!-- Node1033&#45;&gt;Node1070 -->
<g id="edge24" class="edge"><title>Node1033&#45;&gt;Node1070</title>
<path fill="none" stroke="midnightblue" d="M393.394,-808.009C406.333,-817.784 423.92,-829.915 441,-838 449.675,-842.107 459.377,-845.568 468.674,-848.395"/>
<polygon fill="midnightblue" stroke="midnightblue" points="395.292,-805.052 385.243,-801.697 391.007,-810.587 395.292,-805.052"/>
</g>
<!-- Node1071 -->
<g id="node21" class="node"><title>Node1071</title>
<g id="a_node21"><a xlink:href="en61107_8h.html#aa78898864e2b283a56553204fb381ede" target="_top" xlink:title="en61107_response_set\l_value">
<polygon fill="white" stroke="red" points="451.5,-799 451.5,-829 568.5,-829 568.5,-799 451.5,-799"/>
<text text-anchor="start" x="459.5" y="-817" font-family="Helvetica,sans-Serif" font-size="10.00">en61107_response_set</text>
<text text-anchor="middle" x="510" y="-806" font-family="Helvetica,sans-Serif" font-size="10.00">_value</text>
</a>
</g>
</g>
<!-- Node1033&#45;&gt;Node1071 -->
<g id="edge25" class="edge"><title>Node1033&#45;&gt;Node1071</title>
<path fill="none" stroke="midnightblue" d="M415.363,-798.797C426.757,-800.647 439.3,-802.683 451.401,-804.648"/>
<polygon fill="midnightblue" stroke="midnightblue" points="415.7,-795.306 405.269,-797.158 414.579,-802.215 415.7,-795.306"/>
</g>
<!-- Node1072 -->
<g id="node22" class="node"><title>Node1072</title>
<g id="a_node22"><a xlink:href="httpd_8h.html#a4e03006e004d17ca91cc75f684cfe74d" target="_top" xlink:title="httpdHeader">
<polygon fill="white" stroke="red" points="475,-1152.5 475,-1171.5 545,-1171.5 545,-1152.5 475,-1152.5"/>
<text text-anchor="middle" x="510" y="-1159.5" font-family="Helvetica,sans-Serif" font-size="10.00">httpdHeader</text>
</a>
</g>
</g>
<!-- Node1033&#45;&gt;Node1072 -->
<g id="edge26" class="edge"><title>Node1033&#45;&gt;Node1072</title>
<path fill="none" stroke="midnightblue" d="M374.631,-811.853C378.833,-878.648 395.703,-1093.8 441,-1143 449.635,-1152.38 462.477,-1157.27 474.682,-1159.78"/>
<polygon fill="midnightblue" stroke="midnightblue" points="378.121,-811.582 374.026,-801.811 371.134,-812.003 378.121,-811.582"/>
</g>
<!-- Node1076 -->
<g id="node23" class="node"><title>Node1076</title>
<g id="a_node23"><a xlink:href="httpd_8h.html#ab27493bff23508040d0c672a95ecd3b6" target="_top" xlink:title="httpdRedirect">
<polygon fill="white" stroke="red" points="472.5,-760.5 472.5,-779.5 547.5,-779.5 547.5,-760.5 472.5,-760.5"/>
<text text-anchor="middle" x="510" y="-767.5" font-family="Helvetica,sans-Serif" font-size="10.00">httpdRedirect</text>
</a>
</g>
</g>
<!-- Node1033&#45;&gt;Node1076 -->
<g id="edge28" class="edge"><title>Node1033&#45;&gt;Node1076</title>
<path fill="none" stroke="midnightblue" d="M415.3,-785.213C433.472,-782.263 454.578,-778.836 472.153,-775.983"/>
<polygon fill="midnightblue" stroke="midnightblue" points="414.579,-781.785 405.269,-786.842 415.7,-788.694 414.579,-781.785"/>
</g>
<!-- Node1079 -->
<g id="node24" class="node"><title>Node1079</title>
<g id="a_node24"><a xlink:href="httpd_8h.html#ae029382c3db1b881163c89ac8cea96aa" target="_top" xlink:title="httpdStartResponse">
<polygon fill="white" stroke="red" points="458,-1114.5 458,-1133.5 562,-1133.5 562,-1114.5 458,-1114.5"/>
<text text-anchor="middle" x="510" y="-1121.5" font-family="Helvetica,sans-Serif" font-size="10.00">httpdStartResponse</text>
</a>
</g>
</g>
<!-- Node1033&#45;&gt;Node1079 -->
<g id="edge29" class="edge"><title>Node1033&#45;&gt;Node1079</title>
<path fill="none" stroke="midnightblue" d="M375.365,-812.04C381.44,-873.283 402.524,-1056.45 441,-1100 446.554,-1106.29 453.858,-1110.93 461.617,-1114.35"/>
<polygon fill="midnightblue" stroke="midnightblue" points="378.82,-811.406 374.376,-801.788 371.852,-812.078 378.82,-811.406"/>
</g>
<!-- Node1080 -->
<g id="node25" class="node"><title>Node1080</title>
<g id="a_node25"><a xlink:href="kmp__request_8c.html#a3f6b790a06b933b78f40ade5e9a16131" target="_top" xlink:title="kmp_received_task">
<polygon fill="white" stroke="red" points="628.5,-1285.5 628.5,-1304.5 729.5,-1304.5 729.5,-1285.5 628.5,-1285.5"/>
<text text-anchor="middle" x="679" y="-1292.5" font-family="Helvetica,sans-Serif" font-size="10.00">kmp_received_task</text>
</a>
</g>
</g>
<!-- Node1033&#45;&gt;Node1080 -->
<g id="edge31" class="edge"><title>Node1033&#45;&gt;Node1080</title>
<path fill="none" stroke="midnightblue" d="M374.647,-811.882C379.999,-901.209 403.834,-1262.49 441,-1295 500.615,-1347.15 604.582,-1320.87 652.492,-1304.63"/>
<polygon fill="midnightblue" stroke="midnightblue" points="378.133,-811.531 374.05,-801.754 371.145,-811.943 378.133,-811.531"/>
</g>
<!-- Node1082 -->
<g id="node26" class="node"><title>Node1082</title>
<g id="a_node26"><a xlink:href="kmp__request_8h.html#a3b022dcdc832786eb06126b5e6879604" target="_top" xlink:title="kmp_request_send">
<polygon fill="white" stroke="red" points="460.5,-1266.5 460.5,-1285.5 559.5,-1285.5 559.5,-1266.5 460.5,-1266.5"/>
<text text-anchor="middle" x="510" y="-1273.5" font-family="Helvetica,sans-Serif" font-size="10.00">kmp_request_send</text>
</a>
</g>
</g>
<!-- Node1033&#45;&gt;Node1082 -->
<g id="edge32" class="edge"><title>Node1033&#45;&gt;Node1082</title>
<path fill="none" stroke="midnightblue" d="M373.601,-811.767C374.412,-891.61 381.445,-1189.27 441,-1257 446.18,-1262.89 453.02,-1267.02 460.367,-1269.91"/>
<polygon fill="midnightblue" stroke="midnightblue" points="377.1,-811.593 373.521,-801.621 370.1,-811.648 377.1,-811.593"/>
</g>
<!-- Node1084 -->
<g id="node27" class="node"><title>Node1084</title>
<g id="a_node27"><a xlink:href="kmp_8h.html#aa1bdc213acbcb756d20dcf63d5cd387d" target="_top" xlink:title="kmp_value_to_string">
<polygon fill="white" stroke="black" points="456.5,-1228.5 456.5,-1247.5 563.5,-1247.5 563.5,-1228.5 456.5,-1228.5"/>
<text text-anchor="middle" x="510" y="-1235.5" font-family="Helvetica,sans-Serif" font-size="10.00">kmp_value_to_string</text>
</a>
</g>
</g>
<!-- Node1033&#45;&gt;Node1084 -->
<g id="edge34" class="edge"><title>Node1033&#45;&gt;Node1084</title>
<path fill="none" stroke="midnightblue" d="M374.069,-812.199C376.585,-887.628 389.018,-1151.66 441,-1214 446.292,-1220.35 453.375,-1225.01 460.973,-1228.45"/>
<polygon fill="midnightblue" stroke="midnightblue" points="377.554,-811.659 373.746,-801.772 370.557,-811.876 377.554,-811.659"/>
</g>
<!-- Node1085 -->
<g id="node28" class="node"><title>Node1085</title>
<g id="a_node28"><a xlink:href="mqtt__rpc_8h.html#a7d1ed70e046b535e06c58675d4f1676b" target="_top" xlink:title="mqtt_rpc_ap_status">
<polygon fill="white" stroke="black" points="458.5,-722.5 458.5,-741.5 561.5,-741.5 561.5,-722.5 458.5,-722.5"/>
<text text-anchor="middle" x="510" y="-729.5" font-family="Helvetica,sans-Serif" font-size="10.00">mqtt_rpc_ap_status</text>
</a>
</g>
</g>
<!-- Node1033&#45;&gt;Node1085 -->
<g id="edge36" class="edge"><title>Node1033&#45;&gt;Node1085</title>
<path fill="none" stroke="midnightblue" d="M398.227,-777.104C400.518,-775.718 402.803,-774.334 405,-773 421.028,-763.269 423.807,-758.483 441,-751 449.43,-747.331 458.756,-744.181 467.731,-741.561"/>
<polygon fill="midnightblue" stroke="midnightblue" points="396.287,-774.187 389.536,-782.352 399.905,-780.179 396.287,-774.187"/>
</g>
<!-- Node1052 -->
<g id="node29" class="node"><title>Node1052</title>
<g id="a_node29"><a xlink:href="mqtt__rpc_8h.html#a023697ad978d1154228e256583a147c0" target="_top" xlink:title="mqtt_rpc_clear_cron">
<polygon fill="white" stroke="black" points="457.5,-684.5 457.5,-703.5 562.5,-703.5 562.5,-684.5 457.5,-684.5"/>
<text text-anchor="middle" x="510" y="-691.5" font-family="Helvetica,sans-Serif" font-size="10.00">mqtt_rpc_clear_cron</text>
</a>
</g>
</g>
<!-- Node1033&#45;&gt;Node1052 -->
<g id="edge37" class="edge"><title>Node1033&#45;&gt;Node1052</title>
<path fill="none" stroke="midnightblue" d="M401.128,-776.496C402.489,-775.379 403.791,-774.212 405,-773 426.964,-750.984 416.27,-731.855 441,-713 446.069,-709.135 451.884,-706.057 457.933,-703.604"/>
<polygon fill="midnightblue" stroke="midnightblue" points="399.035,-773.69 392.906,-782.332 403.087,-779.398 399.035,-773.69"/>
</g>
<!-- Node1086 -->
<g id="node30" class="node"><title>Node1086</title>
<g id="a_node30"><a xlink:href="mqtt__rpc_8h.html#a1e120184f7f332e637fc9481bcf5ce89" target="_top" xlink:title="mqtt_rpc_cron">
<polygon fill="white" stroke="black" points="470.5,-646.5 470.5,-665.5 549.5,-665.5 549.5,-646.5 470.5,-646.5"/>
<text text-anchor="middle" x="510" y="-653.5" font-family="Helvetica,sans-Serif" font-size="10.00">mqtt_rpc_cron</text>
</a>
</g>
</g>
<!-- Node1033&#45;&gt;Node1086 -->
<g id="edge38" class="edge"><title>Node1033&#45;&gt;Node1086</title>
<path fill="none" stroke="midnightblue" d="M402.267,-775.952C403.237,-775.009 404.154,-774.025 405,-773 434.538,-737.214 406.91,-706.48 441,-675 449.015,-667.599 459.676,-663.047 470.174,-660.259"/>
<polygon fill="midnightblue" stroke="midnightblue" points="399.782,-773.452 394.064,-782.372 404.096,-778.965 399.782,-773.452"/>
</g>
<!-- Node1087 -->
<g id="node31" class="node"><title>Node1087</title>
<g id="a_node31"><a xlink:href="mqtt__rpc_8h.html#afbd8a015cb20feb245dfc778416af7e9" target="_top" xlink:title="mqtt_rpc_crypto">
<polygon fill="white" stroke="black" points="466.5,-608.5 466.5,-627.5 553.5,-627.5 553.5,-608.5 466.5,-608.5"/>
<text text-anchor="middle" x="510" y="-615.5" font-family="Helvetica,sans-Serif" font-size="10.00">mqtt_rpc_crypto</text>
</a>
</g>
</g>
<!-- Node1033&#45;&gt;Node1087 -->
<g id="edge39" class="edge"><title>Node1033&#45;&gt;Node1087</title>
<path fill="none" stroke="midnightblue" d="M402.466,-775.97C403.374,-775.025 404.224,-774.035 405,-773 442.511,-722.976 397.091,-681.514 441,-637 447.8,-630.106 456.879,-625.657 466.183,-622.802"/>
<polygon fill="midnightblue" stroke="midnightblue" points="400.174,-773.323 394.651,-782.365 404.607,-778.741 400.174,-773.323"/>
</g>
<!-- Node1088 -->
<g id="node32" class="node"><title>Node1088</title>
<g id="a_node32"><a xlink:href="mqtt__rpc_8h.html#a29c5b0a22ebb1032363e20a1eb228d88" target="_top" xlink:title="mqtt_rpc_mem">
<polygon fill="white" stroke="black" points="469,-570.5 469,-589.5 551,-589.5 551,-570.5 469,-570.5"/>
<text text-anchor="middle" x="510" y="-577.5" font-family="Helvetica,sans-Serif" font-size="10.00">mqtt_rpc_mem</text>
</a>
</g>
</g>
<!-- Node1033&#45;&gt;Node1088 -->
<g id="edge40" class="edge"><title>Node1033&#45;&gt;Node1088</title>
<path fill="none" stroke="midnightblue" d="M402.539,-776.023C403.427,-775.063 404.253,-774.056 405,-773 450.63,-708.546 387.102,-656.719 441,-599 448.278,-591.206 458.463,-586.515 468.739,-583.718"/>
<polygon fill="midnightblue" stroke="midnightblue" points="400.24,-773.383 394.809,-782.48 404.727,-778.755 400.24,-773.383"/>
</g>
<!-- Node1089 -->
<g id="node33" class="node"><title>Node1089</title>
<g id="a_node33"><a xlink:href="mqtt__rpc_8h.html#a0e5c92a93eaf9b2e3c2cd98c0fcbe65f" target="_top" xlink:title="mqtt_rpc_ping">
<polygon fill="white" stroke="black" points="471,-532.5 471,-551.5 549,-551.5 549,-532.5 471,-532.5"/>
<text text-anchor="middle" x="510" y="-539.5" font-family="Helvetica,sans-Serif" font-size="10.00">mqtt_rpc_ping</text>
</a>
</g>
</g>
<!-- Node1033&#45;&gt;Node1089 -->
<g id="edge43" class="edge"><title>Node1033&#45;&gt;Node1089</title>
<path fill="none" stroke="midnightblue" d="M402.94,-775.659C403.68,-774.81 404.371,-773.924 405,-773 458.816,-694.021 377.034,-632.008 441,-561 448.63,-552.53 459.69,-547.707 470.682,-544.998"/>
<polygon fill="midnightblue" stroke="midnightblue" points="400.501,-773.142 395.236,-782.336 405.085,-778.432 400.501,-773.142"/>
</g>
<!-- Node1090 -->
<g id="node34" class="node"><title>Node1090</title>
<g id="a_node34"><a xlink:href="mqtt__rpc_8h.html#aa21aaf34522e1a100a4120d9f63d2dad" target="_top" xlink:title="mqtt_rpc_reset_reason">
<polygon fill="white" stroke="black" points="452,-494.5 452,-513.5 568,-513.5 568,-494.5 452,-494.5"/>
<text text-anchor="middle" x="510" y="-501.5" font-family="Helvetica,sans-Serif" font-size="10.00">mqtt_rpc_reset_reason</text>
</a>
</g>
</g>
<!-- Node1033&#45;&gt;Node1090 -->
<g id="edge44" class="edge"><title>Node1033&#45;&gt;Node1090</title>
<path fill="none" stroke="midnightblue" d="M402.97,-775.68C403.702,-774.824 404.382,-773.931 405,-773 467.038,-679.443 366.922,-607.346 441,-523 444.397,-519.132 448.51,-516.021 453.012,-513.524"/>
<polygon fill="midnightblue" stroke="midnightblue" points="400.529,-773.165 395.31,-782.385 405.139,-778.432 400.529,-773.165"/>
</g>
<!-- Node1091 -->
<g id="node35" class="node"><title>Node1091</title>
<g id="a_node35"><a xlink:href="mqtt__rpc_8h.html#ae3c71a438ecea4bb271bd1586af59452" target="_top" xlink:title="mqtt_rpc_restart">
<polygon fill="white" stroke="black" points="466,-456.5 466,-475.5 554,-475.5 554,-456.5 466,-456.5"/>
<text text-anchor="middle" x="510" y="-463.5" font-family="Helvetica,sans-Serif" font-size="10.00">mqtt_rpc_restart</text>
</a>
</g>
</g>
<!-- Node1033&#45;&gt;Node1091 -->
<g id="edge45" class="edge"><title>Node1033&#45;&gt;Node1091</title>
<path fill="none" stroke="midnightblue" d="M402.993,-775.695C403.718,-774.835 404.391,-773.937 405,-773 475.282,-664.832 356.785,-582.713 441,-485 447.402,-477.572 456.443,-472.931 465.849,-470.061"/>
<polygon fill="midnightblue" stroke="midnightblue" points="400.55,-773.182 395.365,-782.422 405.18,-778.432 400.55,-773.182"/>
</g>
<!-- Node1092 -->
<g id="node36" class="node"><title>Node1092</title>
<g id="a_node36"><a xlink:href="mqtt__rpc_8h.html#a9d2f80fe20656d22687c0414da46fcce" target="_top" xlink:title="mqtt_rpc_rssi">
<polygon fill="white" stroke="black" points="472,-418.5 472,-437.5 548,-437.5 548,-418.5 472,-418.5"/>
<text text-anchor="middle" x="510" y="-425.5" font-family="Helvetica,sans-Serif" font-size="10.00">mqtt_rpc_rssi</text>
</a>
</g>
</g>
<!-- Node1033&#45;&gt;Node1092 -->
<g id="edge46" class="edge"><title>Node1033&#45;&gt;Node1092</title>
<path fill="none" stroke="midnightblue" d="M403.011,-775.706C403.731,-774.843 404.398,-773.942 405,-773 483.541,-650.199 346.63,-558.099 441,-447 448.697,-437.938 460.324,-433.015 471.798,-430.396"/>
<polygon fill="midnightblue" stroke="midnightblue" points="400.566,-773.195 395.408,-782.449 405.211,-778.432 400.566,-773.195"/>
</g>
<!-- Node1050 -->
<g id="node37" class="node"><title>Node1050</title>
<g id="a_node37"><a xlink:href="mqtt__rpc_8h.html#a5ede5df0880a2c3823a5c3757423678b" target="_top" xlink:title="mqtt_rpc_set_cron">
<polygon fill="white" stroke="black" points="461,-380.5 461,-399.5 559,-399.5 559,-380.5 461,-380.5"/>
<text text-anchor="middle" x="510" y="-387.5" font-family="Helvetica,sans-Serif" font-size="10.00">mqtt_rpc_set_cron</text>
</a>
</g>
</g>
<!-- Node1033&#45;&gt;Node1050 -->
<g id="edge47" class="edge"><title>Node1033&#45;&gt;Node1050</title>
<path fill="none" stroke="midnightblue" d="M403.025,-775.715C403.741,-774.85 404.403,-773.945 405,-773 448.405,-704.276 388.732,-471.25 441,-409 446.202,-402.804 453.242,-398.54 460.826,-395.624"/>
<polygon fill="midnightblue" stroke="midnightblue" points="400.58,-773.205 395.442,-782.471 405.236,-778.432 400.58,-773.205"/>
</g>
<!-- Node1053 -->
<g id="node38" class="node"><title>Node1053</title>
<g id="a_node38"><a xlink:href="mqtt__rpc_8h.html#a3384f5aa84b17fa3902e2aad318913d8" target="_top" xlink:title="mqtt_rpc_set_pwd">
<polygon fill="white" stroke="black" points="461.5,-342.5 461.5,-361.5 558.5,-361.5 558.5,-342.5 461.5,-342.5"/>
<text text-anchor="middle" x="510" y="-349.5" font-family="Helvetica,sans-Serif" font-size="10.00">mqtt_rpc_set_pwd</text>
</a>
</g>
</g>
<!-- Node1033&#45;&gt;Node1053 -->
<g id="edge48" class="edge"><title>Node1033&#45;&gt;Node1053</title>
<path fill="none" stroke="midnightblue" d="M403.036,-775.722C403.749,-774.855 404.408,-773.948 405,-773 452.542,-696.946 383.644,-439.955 441,-371 446.33,-364.592 453.627,-360.247 461.469,-357.322"/>
<polygon fill="midnightblue" stroke="midnightblue" points="400.591,-773.213 395.47,-782.488 405.257,-778.431 400.591,-773.213"/>
</g>
<!-- Node1054 -->
<g id="node39" class="node"><title>Node1054</title>
<g id="a_node39"><a xlink:href="mqtt__rpc_8h.html#aa3b038b94189cb8a82fdc7e5115d90c8" target="_top" xlink:title="mqtt_rpc_set_ssid">
<polygon fill="white" stroke="black" points="461.5,-304.5 461.5,-323.5 558.5,-323.5 558.5,-304.5 461.5,-304.5"/>
<text text-anchor="middle" x="510" y="-311.5" font-family="Helvetica,sans-Serif" font-size="10.00">mqtt_rpc_set_ssid</text>
</a>
</g>
</g>
<!-- Node1033&#45;&gt;Node1054 -->
<g id="edge49" class="edge"><title>Node1033&#45;&gt;Node1054</title>
<path fill="none" stroke="midnightblue" d="M403.361,-775.334C403.951,-774.585 404.5,-773.807 405,-773 456.682,-689.613 378.554,-408.664 441,-333 446.306,-326.571 453.59,-322.217 461.429,-319.289"/>
<polygon fill="midnightblue" stroke="midnightblue" points="400.8,-772.935 395.812,-782.282 405.54,-778.086 400.8,-772.935"/>
</g>
<!-- Node1039 -->
<g id="node40" class="node"><title>Node1039</title>
<g id="a_node40"><a xlink:href="mqtt__rpc_8h.html#a651f41878c47fd58b8ae08a49692d5d0" target="_top" xlink:title="mqtt_rpc_set_ssid_pwd">
<polygon fill="white" stroke="black" points="450,-266.5 450,-285.5 570,-285.5 570,-266.5 450,-266.5"/>
<text text-anchor="middle" x="510" y="-273.5" font-family="Helvetica,sans-Serif" font-size="10.00">mqtt_rpc_set_ssid_pwd</text>
</a>
</g>
</g>
<!-- Node1033&#45;&gt;Node1039 -->
<g id="edge50" class="edge"><title>Node1033&#45;&gt;Node1039</title>
<path fill="none" stroke="midnightblue" d="M403.368,-775.338C403.956,-774.588 404.502,-773.809 405,-773 460.824,-682.276 373.461,-377.375 441,-295 444.109,-291.208 447.906,-288.138 452.101,-285.655"/>
<polygon fill="midnightblue" stroke="midnightblue" points="400.806,-772.94 395.831,-782.294 405.554,-778.084 400.806,-772.94"/>
</g>
<!-- Node1093 -->
<g id="node41" class="node"><title>Node1093</title>
<g id="a_node41"><a xlink:href="mqtt__rpc_8h.html#a93655988d0f1c02f278b77ab1bb57573" target="_top" xlink:title="mqtt_rpc_ssid">
<polygon fill="white" stroke="black" points="471,-228.5 471,-247.5 549,-247.5 549,-228.5 471,-228.5"/>
<text text-anchor="middle" x="510" y="-235.5" font-family="Helvetica,sans-Serif" font-size="10.00">mqtt_rpc_ssid</text>
</a>
</g>
</g>
<!-- Node1033&#45;&gt;Node1093 -->
<g id="edge51" class="edge"><title>Node1033&#45;&gt;Node1093</title>
<path fill="none" stroke="midnightblue" d="M403.374,-775.342C403.96,-774.591 404.504,-773.81 405,-773 464.968,-674.937 368.367,-346.089 441,-257 448.358,-247.975 459.62,-243.031 470.874,-240.383"/>
<polygon fill="midnightblue" stroke="midnightblue" points="400.812,-772.944 395.847,-782.304 405.565,-778.083 400.812,-772.944"/>
</g>
<!-- Node1094 -->
<g id="node42" class="node"><title>Node1094</title>
<g id="a_node42"><a xlink:href="mqtt__rpc_8h.html#ab9db71238155955bc4dfbb2c7f93c9d2" target="_top" xlink:title="mqtt_rpc_status">
<polygon fill="white" stroke="black" points="466.5,-190.5 466.5,-209.5 553.5,-209.5 553.5,-190.5 466.5,-190.5"/>
<text text-anchor="middle" x="510" y="-197.5" font-family="Helvetica,sans-Serif" font-size="10.00">mqtt_rpc_status</text>
</a>
</g>
</g>
<!-- Node1033&#45;&gt;Node1094 -->
<g id="edge52" class="edge"><title>Node1033&#45;&gt;Node1094</title>
<path fill="none" stroke="midnightblue" d="M403.379,-775.345C403.964,-774.593 404.506,-773.812 405,-773 469.112,-667.596 363.271,-314.805 441,-219 447.333,-211.195 456.585,-206.44 466.238,-203.583"/>
<polygon fill="midnightblue" stroke="midnightblue" points="400.817,-772.948 395.862,-782.313 405.575,-778.082 400.817,-772.948"/>
</g>
<!-- Node1095 -->
<g id="node43" class="node"><title>Node1095</title>
<g id="a_node43"><a xlink:href="mqtt__rpc_8h.html#acd6cfd98c940051391eb8c0bd2bbeca9" target="_top" xlink:title="mqtt_rpc_uptime">
<polygon fill="white" stroke="black" points="465.5,-152.5 465.5,-171.5 554.5,-171.5 554.5,-152.5 465.5,-152.5"/>
<text text-anchor="middle" x="510" y="-159.5" font-family="Helvetica,sans-Serif" font-size="10.00">mqtt_rpc_uptime</text>
</a>
</g>
</g>
<!-- Node1033&#45;&gt;Node1095 -->
<g id="edge53" class="edge"><title>Node1033&#45;&gt;Node1095</title>
<path fill="none" stroke="midnightblue" d="M403.384,-775.348C403.967,-774.595 404.508,-773.813 405,-773 473.258,-660.254 358.174,-283.522 441,-181 447.085,-173.467 455.891,-168.775 465.158,-165.886"/>
<polygon fill="midnightblue" stroke="midnightblue" points="400.821,-772.951 395.874,-782.32 405.584,-778.081 400.821,-772.951"/>
</g>
<!-- Node1096 -->
<g id="node44" class="node"><title>Node1096</title>
<g id="a_node44"><a xlink:href="mqtt__rpc_8h.html#a6c4d0371a5542aa2dc9543fc7b829436" target="_top" xlink:title="mqtt_rpc_version">
<polygon fill="white" stroke="black" points="464,-114.5 464,-133.5 556,-133.5 556,-114.5 464,-114.5"/>
<text text-anchor="middle" x="510" y="-121.5" font-family="Helvetica,sans-Serif" font-size="10.00">mqtt_rpc_version</text>
</a>
</g>
</g>
<!-- Node1033&#45;&gt;Node1096 -->
<g id="edge55" class="edge"><title>Node1033&#45;&gt;Node1096</title>
<path fill="none" stroke="midnightblue" d="M403.388,-775.35C403.97,-774.597 404.509,-773.814 405,-773 477.405,-652.91 353.076,-252.24 441,-143 446.764,-135.838 454.988,-131.242 463.734,-128.323"/>
<polygon fill="midnightblue" stroke="midnightblue" points="400.825,-772.954 395.885,-782.327 405.592,-778.08 400.825,-772.954"/>
</g>
<!-- Node1097 -->
<g id="node45" class="node"><title>Node1097</title>
<g id="a_node45"><a xlink:href="mqtt__rpc_8h.html#a482a5f229bd1fac0511a057bbf4363f2" target="_top" xlink:title="mqtt_rpc_wifi_status">
<polygon fill="white" stroke="black" points="456.5,-76.5 456.5,-95.5 563.5,-95.5 563.5,-76.5 456.5,-76.5"/>
<text text-anchor="middle" x="510" y="-83.5" font-family="Helvetica,sans-Serif" font-size="10.00">mqtt_rpc_wifi_status</text>
</a>
</g>
</g>
<!-- Node1033&#45;&gt;Node1097 -->
<g id="edge56" class="edge"><title>Node1033&#45;&gt;Node1097</title>
<path fill="none" stroke="midnightblue" d="M403.391,-775.352C403.972,-774.598 404.511,-773.814 405,-773 481.552,-645.565 347.977,-220.959 441,-105 445.065,-99.9325 450.362,-96.1488 456.206,-93.3347"/>
<polygon fill="midnightblue" stroke="midnightblue" points="400.828,-772.957 395.895,-782.333 405.599,-778.08 400.828,-772.957"/>
</g>
<!-- Node1098 -->
<g id="node46" class="node"><title>Node1098</title>
<g id="a_node46"><a xlink:href="utils_8h.html#a1191f72bae2076af31834d47faa7ee14" target="_top" xlink:title="multiply_str_by_1000">
<polygon fill="white" stroke="red" points="455.5,-1380.5 455.5,-1399.5 564.5,-1399.5 564.5,-1380.5 455.5,-1380.5"/>
<text text-anchor="middle" x="510" y="-1387.5" font-family="Helvetica,sans-Serif" font-size="10.00">multiply_str_by_1000</text>
</a>
</g>
</g>
<!-- Node1033&#45;&gt;Node1098 -->
<g id="edge57" class="edge"><title>Node1033&#45;&gt;Node1098</title>
<path fill="none" stroke="midnightblue" d="M373.123,-811.752C371.786,-902.404 370.633,-1277.96 441,-1366 446.081,-1372.36 452.965,-1377.03 460.41,-1380.47"/>
<polygon fill="midnightblue" stroke="midnightblue" points="376.626,-811.578 373.294,-801.521 369.627,-811.461 376.626,-811.578"/>
</g>
<!-- Node1103 -->
<g id="node47" class="node"><title>Node1103</title>
<g id="a_node47"><a xlink:href="exception__handler_8c.html#ad7392f29fdb9ff04315bdc1ce1a81ad9" target="_top" xlink:title="print_reason">
<polygon fill="white" stroke="red" points="644,-19.5 644,-38.5 714,-38.5 714,-19.5 644,-19.5"/>
<text text-anchor="middle" x="679" y="-26.5" font-family="Helvetica,sans-Serif" font-size="10.00">print_reason</text>
</a>
</g>
</g>
<!-- Node1033&#45;&gt;Node1103 -->
<g id="edge63" class="edge"><title>Node1033&#45;&gt;Node1103</title>
<path fill="none" stroke="midnightblue" d="M403.394,-775.354C403.974,-774.6 404.512,-773.815 405,-773 445.35,-705.61 388.539,-125.458 441,-67 467.371,-37.6142 584.564,-30.9112 643.67,-29.4116"/>
<polygon fill="midnightblue" stroke="midnightblue" points="400.831,-772.959 395.904,-782.338 405.605,-778.079 400.831,-772.959"/>
</g>
<!-- Node1106 -->
<g id="node48" class="node"><title>Node1106</title>
<g id="a_node48"><a xlink:href="exception__handler_8c.html#a2e046011a1fec4843b394a30be788b81" target="_top" xlink:title="print_stack">
<polygon fill="white" stroke="black" points="477.5,-0.5 477.5,-19.5 542.5,-19.5 542.5,-0.5 477.5,-0.5"/>
<text text-anchor="middle" x="510" y="-7.5" font-family="Helvetica,sans-Serif" font-size="10.00">print_stack</text>
</a>
</g>
</g>
<!-- Node1033&#45;&gt;Node1106 -->
<g id="edge64" class="edge"><title>Node1033&#45;&gt;Node1106</title>
<path fill="none" stroke="midnightblue" d="M403.397,-775.356C403.976,-774.601 404.513,-773.816 405,-773 489.301,-631.84 342.799,-165.869 441,-34 449.524,-22.5533 463.941,-16.542 477.312,-13.3952"/>
<polygon fill="midnightblue" stroke="midnightblue" points="400.834,-772.961 395.91,-782.342 405.61,-778.078 400.834,-772.961"/>
</g>
<!-- Node1034&#45;&gt;Node1057 -->
<g id="edge7" class="edge"><title>Node1034&#45;&gt;Node1057</title>
<path fill="none" stroke="midnightblue" d="M546.906,-1542C578.602,-1542 624.036,-1542 652.243,-1542"/>
<polygon fill="midnightblue" stroke="midnightblue" points="546.728,-1538.5 536.728,-1542 546.728,-1545.5 546.728,-1538.5"/>
</g>
<!-- Node1059&#45;&gt;Node1063 -->
<g id="edge10" class="edge"><title>Node1059&#45;&gt;Node1063</title>
<path fill="none" stroke="midnightblue" d="M573.554,-1004.76C587.089,-1003.62 601.41,-1002.42 614.964,-1001.28"/>
<polygon fill="midnightblue" stroke="midnightblue" points="573.054,-1001.29 563.382,-1005.61 573.639,-1008.26 573.054,-1001.29"/>
</g>
<!-- Node1063&#45;&gt;Node1061 -->
<g id="edge11" class="edge"><title>Node1063&#45;&gt;Node1061</title>
<path fill="none" stroke="midnightblue" d="M753.209,-996C761.831,-996 770.542,-996 778.926,-996"/>
<polygon fill="midnightblue" stroke="midnightblue" points="753.154,-992.5 743.154,-996 753.154,-999.5 753.154,-992.5"/>
</g>
<!-- Node1064&#45;&gt;Node1063 -->
<g id="edge13" class="edge"><title>Node1064&#45;&gt;Node1063</title>
<path fill="none" stroke="midnightblue" d="M565.444,-979.824C581.25,-982.096 598.643,-984.595 614.93,-986.936"/>
<polygon fill="midnightblue" stroke="midnightblue" points="565.711,-976.327 555.314,-978.369 564.715,-983.256 565.711,-976.327"/>
</g>
<!-- Node1065&#45;&gt;Node1063 -->
<g id="edge15" class="edge"><title>Node1065&#45;&gt;Node1063</title>
<path fill="none" stroke="midnightblue" d="M558.657,-946.418C565.531,-948.468 572.481,-950.686 579,-953 601.957,-961.149 627.128,-972.111 646.344,-980.926"/>
<polygon fill="midnightblue" stroke="midnightblue" points="559.279,-942.954 548.7,-943.541 557.336,-949.679 559.279,-942.954"/>
</g>
<!-- Node1065&#45;&gt;Node1066 -->
<g id="edge16" class="edge"><title>Node1065&#45;&gt;Node1066</title>
<path fill="none" stroke="midnightblue" d="M567.641,-934C586.281,-934 606.919,-934 625.257,-934"/>
<polygon fill="midnightblue" stroke="midnightblue" points="567.519,-930.5 557.519,-934 567.519,-937.5 567.519,-930.5"/>
</g>
<!-- Node1066&#45;&gt;Node1061 -->
<g id="edge17" class="edge"><title>Node1066&#45;&gt;Node1061</title>
<path fill="none" stroke="midnightblue" d="M727.779,-952.808C755.892,-963.875 790.268,-977.407 812.966,-986.342"/>
<polygon fill="midnightblue" stroke="midnightblue" points="728.713,-949.415 718.126,-949.008 726.149,-955.928 728.713,-949.415"/>
</g>
<!-- Node1067&#45;&gt;Node1057 -->
<g id="edge19" class="edge"><title>Node1067&#45;&gt;Node1057</title>
<path fill="none" stroke="midnightblue" d="M541.46,-1479.86C574.954,-1495.1 627.877,-1519.19 657.021,-1532.45"/>
<polygon fill="midnightblue" stroke="midnightblue" points="542.702,-1476.58 532.151,-1475.63 539.803,-1482.95 542.702,-1476.58"/>
</g>
<!-- Node1067&#45;&gt;Node1068 -->
<g id="edge20" class="edge"><title>Node1067&#45;&gt;Node1068</title>
<path fill="none" stroke="midnightblue" d="M570.811,-1472.8C594.148,-1475.46 620.176,-1478.42 640.74,-1480.76"/>
<polygon fill="midnightblue" stroke="midnightblue" points="570.985,-1469.3 560.653,-1471.65 570.194,-1476.26 570.985,-1469.3"/>
</g>
<!-- Node1067&#45;&gt;Node1047 -->
<g id="edge21" class="edge"><title>Node1067&#45;&gt;Node1047</title>
<path fill="none" stroke="midnightblue" d="M566.559,-1454.36C587.941,-1449.87 612.086,-1444.81 632.422,-1440.55"/>
<polygon fill="midnightblue" stroke="midnightblue" points="565.703,-1450.96 556.633,-1456.44 567.139,-1457.81 565.703,-1450.96"/>
</g>
<!-- Node1067&#45;&gt;Node1048 -->
<g id="edge22" class="edge"><title>Node1067&#45;&gt;Node1048</title>
<path fill="none" stroke="midnightblue" d="M536.901,-1451.62C557.725,-1440.29 587.878,-1424.38 615,-1412 622.386,-1408.63 630.367,-1405.26 638.086,-1402.13"/>
<polygon fill="midnightblue" stroke="midnightblue" points="535.123,-1448.6 528.034,-1456.48 538.486,-1454.74 535.123,-1448.6"/>
</g>
<!-- Node1072&#45;&gt;Node1058 -->
<g id="edge27" class="edge"><title>Node1072&#45;&gt;Node1058</title>
<path fill="none" stroke="midnightblue" d="M555.321,-1162C582.755,-1162 617.486,-1162 642.986,-1162"/>
<polygon fill="midnightblue" stroke="midnightblue" points="555.198,-1158.5 545.198,-1162 555.198,-1165.5 555.198,-1158.5"/>
</g>
<!-- Node1079&#45;&gt;Node1058 -->
<g id="edge30" class="edge"><title>Node1079&#45;&gt;Node1058</title>
<path fill="none" stroke="midnightblue" d="M563.197,-1135.88C589.148,-1141.78 619.814,-1148.76 642.921,-1154.02"/>
<polygon fill="midnightblue" stroke="midnightblue" points="563.668,-1132.4 553.141,-1133.59 562.115,-1139.22 563.668,-1132.4"/>
</g>
<!-- Node1082&#45;&gt;Node1080 -->
<g id="edge33" class="edge"><title>Node1082&#45;&gt;Node1080</title>
<path fill="none" stroke="midnightblue" d="M569.844,-1282.69C588.95,-1284.87 609.948,-1287.26 628.318,-1289.35"/>
<polygon fill="midnightblue" stroke="midnightblue" points="570.084,-1279.2 559.752,-1281.55 569.292,-1286.15 570.084,-1279.2"/>
</g>
<!-- Node1084&#45;&gt;Node1080 -->
<g id="edge35" class="edge"><title>Node1084&#45;&gt;Node1080</title>
<path fill="none" stroke="midnightblue" d="M557.334,-1250.32C564.619,-1252.43 572.039,-1254.7 579,-1257 605.393,-1265.73 635.094,-1277.38 655.018,-1285.47"/>
<polygon fill="midnightblue" stroke="midnightblue" points="558.116,-1246.9 547.54,-1247.53 556.201,-1253.63 558.116,-1246.9"/>
</g>
<!-- Node1098&#45;&gt;Node1047 -->
<g id="edge59" class="edge"><title>Node1098&#45;&gt;Node1047</title>
<path fill="none" stroke="midnightblue" d="M559.518,-1401.91C584.856,-1408.13 615.441,-1415.64 639.188,-1421.47"/>
<polygon fill="midnightblue" stroke="midnightblue" points="560.279,-1398.49 549.733,-1399.51 558.61,-1405.29 560.279,-1398.49"/>
</g>
<!-- Node1098&#45;&gt;Node1048 -->
<g id="edge60" class="edge"><title>Node1098&#45;&gt;Node1048</title>
<path fill="none" stroke="midnightblue" d="M575.237,-1388.85C592.347,-1388.54 610.599,-1388.21 626.9,-1387.92"/>
<polygon fill="midnightblue" stroke="midnightblue" points="574.695,-1385.36 564.759,-1389.03 574.82,-1392.35 574.695,-1385.36"/>
</g>
<!-- Node1098&#45;&gt;Node1080 -->
<g id="edge58" class="edge"><title>Node1098&#45;&gt;Node1080</title>
<path fill="none" stroke="midnightblue" d="M536.957,-1375.23C571.533,-1355.57 631.734,-1321.32 661.023,-1304.66"/>
<polygon fill="midnightblue" stroke="midnightblue" points="534.893,-1372.38 527.932,-1380.37 538.355,-1378.47 534.893,-1372.38"/>
</g>
<!-- Node1106&#45;&gt;Node1103 -->
<g id="edge65" class="edge"><title>Node1106&#45;&gt;Node1103</title>
<path fill="none" stroke="midnightblue" d="M553.098,-14.7896C581.121,-17.9779 617.473,-22.1137 643.727,-25.1007"/>
<polygon fill="midnightblue" stroke="midnightblue" points="553.136,-11.2714 542.805,-13.6185 552.345,-18.2266 553.136,-11.2714"/>
</g>
<!-- Node1123 -->
<g id="node50" class="node"><title>Node1123</title>
<g id="a_node50"><a xlink:href="tinyprintf_8c.html#a8bf8573d91b42212de9e8c3ba2979bc9" target="_top" xlink:title="tfp_sprintf">
<polygon fill="white" stroke="black" points="342.5,-744.5 342.5,-763.5 402.5,-763.5 402.5,-744.5 342.5,-744.5"/>
<text text-anchor="middle" x="372.5" y="-751.5" font-family="Helvetica,sans-Serif" font-size="10.00">tfp_sprintf</text>
</a>
</g>
</g>
<!-- Node1122&#45;&gt;Node1123 -->
<g id="edge68" class="edge"><title>Node1122&#45;&gt;Node1123</title>
<path fill="none" stroke="midnightblue" d="M311.346,-754C321.718,-754 332.613,-754 342.237,-754"/>
<polygon fill="midnightblue" stroke="midnightblue" points="311.214,-750.5 301.214,-754 311.214,-757.5 311.214,-750.5"/>
</g>
</g>
</svg>
