<?xml version="1.0" encoding="UTF-8" standalone="no"?>
<!DOCTYPE svg PUBLIC "-//W3C//DTD SVG 1.1//EN"
 "http://www.w3.org/Graphics/SVG/1.1/DTD/svg11.dtd">
<!-- Generated by graphviz version 2.38.0 (20140413.2041)
 -->
<!-- Title: tfp_sprintf Pages: 1 -->
<svg width="445pt" height="294pt"
 viewBox="0.00 0.00 445.00 294.00" xmlns="http://www.w3.org/2000/svg" xmlns:xlink="http://www.w3.org/1999/xlink">
<g id="graph0" class="graph" transform="scale(1 1) rotate(0) translate(4 290)">
<title>tfp_sprintf</title>
<polygon fill="white" stroke="none" points="-4,4 -4,-290 441,-290 441,4 -4,4"/>
<!-- Node897 -->
<g id="node1" class="node"><title>Node897</title>
<polygon fill="#bfbfbf" stroke="black" points="0,-114.5 0,-133.5 60,-133.5 60,-114.5 0,-114.5"/>
<text text-anchor="middle" x="30" y="-121.5" font-family="Helvetica,sans-Serif" font-size="10.00">tfp_sprintf</text>
</g>
<!-- Node898 -->
<g id="node2" class="node"><title>Node898</title>
<g id="a_node2"><a xlink:href="tinyprintf_8c.html#aaf28389cb25387fff2a2bb7b25f06657" target="_top" xlink:title="tfp_vsprintf">
<polygon fill="white" stroke="black" points="96,-114.5 96,-133.5 161,-133.5 161,-114.5 96,-114.5"/>
<text text-anchor="middle" x="128.5" y="-121.5" font-family="Helvetica,sans-Serif" font-size="10.00">tfp_vsprintf</text>
</a>
</g>
</g>
<!-- Node897&#45;&gt;Node898 -->
<g id="edge1" class="edge"><title>Node897&#45;&gt;Node898</title>
<path fill="none" stroke="midnightblue" d="M60.2151,-124C68.1816,-124 76.9726,-124 85.4988,-124"/>
<polygon fill="midnightblue" stroke="midnightblue" points="85.6945,-127.5 95.6944,-124 85.6944,-120.5 85.6945,-127.5"/>
</g>
<!-- Node899 -->
<g id="node3" class="node"><title>Node899</title>
<g id="a_node3"><a xlink:href="tinyprintf_8c.html#a5877e42444463efc71a91b5fe76a6145" target="_top" xlink:title="tfp_format">
<polygon fill="white" stroke="black" points="207,-133.5 207,-152.5 268,-152.5 268,-133.5 207,-133.5"/>
<text text-anchor="middle" x="237.5" y="-140.5" font-family="Helvetica,sans-Serif" font-size="10.00">tfp_format</text>
</a>
</g>
</g>
<!-- Node898&#45;&gt;Node899 -->
<g id="edge2" class="edge"><title>Node898&#45;&gt;Node899</title>
<path fill="none" stroke="midnightblue" d="M161.025,-129.598C172.182,-131.579 184.882,-133.834 196.64,-135.922"/>
<polygon fill="midnightblue" stroke="midnightblue" points="196.21,-139.4 206.668,-137.703 197.434,-132.508 196.21,-139.4"/>
</g>
<!-- Node909 -->
<g id="node13" class="node"><title>Node909</title>
<g id="a_node13"><a xlink:href="tinyprintf_8c.html#a201ed27aef4ad159120d31700a6e0371" target="_top" xlink:title="_vsprintf_putcf">
<polygon fill="white" stroke="black" points="197,-95.5 197,-114.5 278,-114.5 278,-95.5 197,-95.5"/>
<text text-anchor="middle" x="237.5" y="-102.5" font-family="Helvetica,sans-Serif" font-size="10.00">_vsprintf_putcf</text>
</a>
</g>
</g>
<!-- Node898&#45;&gt;Node909 -->
<g id="edge15" class="edge"><title>Node898&#45;&gt;Node909</title>
<path fill="none" stroke="midnightblue" d="M161.025,-118.402C169.176,-116.955 178.152,-115.361 186.982,-113.793"/>
<polygon fill="midnightblue" stroke="midnightblue" points="187.604,-117.237 196.838,-112.043 186.38,-110.345 187.604,-117.237"/>
</g>
<!-- Node900 -->
<g id="node4" class="node"><title>Node900</title>
<g id="a_node4"><a xlink:href="tinyprintf_8c.html#aa97593a5e53af85b608ad0910db92d77" target="_top" xlink:title="a2u">
<polygon fill="white" stroke="black" points="322,-266.5 322,-285.5 354,-285.5 354,-266.5 322,-266.5"/>
<text text-anchor="middle" x="338" y="-273.5" font-family="Helvetica,sans-Serif" font-size="10.00">a2u</text>
</a>
</g>
</g>
<!-- Node899&#45;&gt;Node900 -->
<g id="edge3" class="edge"><title>Node899&#45;&gt;Node900</title>
<path fill="none" stroke="midnightblue" d="M243.529,-152.523C254.59,-172.972 282.563,-222.058 314,-257 314.727,-257.809 315.49,-258.612 316.278,-259.407"/>
<polygon fill="midnightblue" stroke="midnightblue" points="313.985,-262.052 323.745,-266.174 318.686,-256.865 313.985,-262.052"/>
</g>
<!-- Node902 -->
<g id="node6" class="node"><title>Node902</title>
<g id="a_node6"><a xlink:href="tinyprintf_8c.html#a90f9fd8f2133cda7f50be8d67823405c" target="_top" xlink:title="i2a">
<polygon fill="white" stroke="black" points="323.5,-228.5 323.5,-247.5 352.5,-247.5 352.5,-228.5 323.5,-228.5"/>
<text text-anchor="middle" x="338" y="-235.5" font-family="Helvetica,sans-Serif" font-size="10.00">i2a</text>
</a>
</g>
</g>
<!-- Node899&#45;&gt;Node902 -->
<g id="edge5" class="edge"><title>Node899&#45;&gt;Node902</title>
<path fill="none" stroke="midnightblue" d="M248.67,-152.809C265.42,-168.963 299.001,-201.351 319.589,-221.208"/>
<polygon fill="midnightblue" stroke="midnightblue" points="317.404,-223.963 327.032,-228.386 322.264,-218.925 317.404,-223.963"/>
</g>
<!-- Node903 -->
<g id="node7" class="node"><title>Node903</title>
<g id="a_node7"><a xlink:href="tinyprintf_8c.html#ac87ff66a592723f55692eaf8e3f19df8" target="_top" xlink:title="ui2a">
<polygon fill="white" stroke="black" points="400,-209.5 400,-228.5 435,-228.5 435,-209.5 400,-209.5"/>
<text text-anchor="middle" x="417.5" y="-216.5" font-family="Helvetica,sans-Serif" font-size="10.00">ui2a</text>
</a>
</g>
</g>
<!-- Node899&#45;&gt;Node903 -->
<g id="edge12" class="edge"><title>Node899&#45;&gt;Node903</title>
<path fill="none" stroke="midnightblue" d="M256.233,-152.63C271.366,-160.677 293.819,-172.213 314,-181 339.571,-192.134 369.56,-203.007 390.469,-210.25"/>
<polygon fill="midnightblue" stroke="midnightblue" points="389.35,-213.566 399.945,-213.499 391.621,-206.945 389.35,-213.566"/>
</g>
<!-- Node904 -->
<g id="node8" class="node"><title>Node904</title>
<g id="a_node8"><a xlink:href="tinyprintf_8c.html#afebb7696337c3f599b5e8db35c560684" target="_top" xlink:title="li2a">
<polygon fill="white" stroke="black" points="322,-152.5 322,-171.5 354,-171.5 354,-152.5 322,-152.5"/>
<text text-anchor="middle" x="338" y="-159.5" font-family="Helvetica,sans-Serif" font-size="10.00">li2a</text>
</a>
</g>
</g>
<!-- Node899&#45;&gt;Node904 -->
<g id="edge7" class="edge"><title>Node899&#45;&gt;Node904</title>
<path fill="none" stroke="midnightblue" d="M268.053,-148.701C282.004,-151.392 298.479,-154.57 311.826,-157.144"/>
<polygon fill="midnightblue" stroke="midnightblue" points="311.269,-160.601 321.751,-159.059 312.595,-153.728 311.269,-160.601"/>
</g>
<!-- Node905 -->
<g id="node9" class="node"><title>Node905</title>
<g id="a_node9"><a xlink:href="tinyprintf_8c.html#a1d61347854a8c290d59b4a21efcefd75" target="_top" xlink:title="uli2a">
<polygon fill="white" stroke="black" points="399,-123.5 399,-142.5 436,-142.5 436,-123.5 399,-123.5"/>
<text text-anchor="middle" x="417.5" y="-130.5" font-family="Helvetica,sans-Serif" font-size="10.00">uli2a</text>
</a>
</g>
</g>
<!-- Node899&#45;&gt;Node905 -->
<g id="edge13" class="edge"><title>Node899&#45;&gt;Node905</title>
<path fill="none" stroke="midnightblue" d="M268.293,-141.326C301.726,-139.448 355.56,-136.424 388.319,-134.583"/>
<polygon fill="midnightblue" stroke="midnightblue" points="388.773,-138.063 398.561,-134.008 388.38,-131.074 388.773,-138.063"/>
</g>
<!-- Node906 -->
<g id="node10" class="node"><title>Node906</title>
<g id="a_node10"><a xlink:href="tinyprintf_8c.html#a49c6d2b3d4088012f2c1fe344eef69f3" target="_top" xlink:title="lli2a">
<polygon fill="white" stroke="black" points="321,-76.5 321,-95.5 355,-95.5 355,-76.5 321,-76.5"/>
<text text-anchor="middle" x="338" y="-83.5" font-family="Helvetica,sans-Serif" font-size="10.00">lli2a</text>
</a>
</g>
</g>
<!-- Node899&#45;&gt;Node906 -->
<g id="edge9" class="edge"><title>Node899&#45;&gt;Node906</title>
<path fill="none" stroke="midnightblue" d="M259.657,-133.418C265.663,-130.538 272.156,-127.271 278,-124 290.459,-117.027 303.875,-108.475 314.761,-101.251"/>
<polygon fill="midnightblue" stroke="midnightblue" points="316.884,-104.041 323.233,-95.5588 312.981,-98.2301 316.884,-104.041"/>
</g>
<!-- Node907 -->
<g id="node11" class="node"><title>Node907</title>
<g id="a_node11"><a xlink:href="tinyprintf_8c.html#abcf035dd576671b0cc897de9dd8c75b0" target="_top" xlink:title="ulli2a">
<polygon fill="white" stroke="black" points="398,-66.5 398,-85.5 437,-85.5 437,-66.5 398,-66.5"/>
<text text-anchor="middle" x="417.5" y="-73.5" font-family="Helvetica,sans-Serif" font-size="10.00">ulli2a</text>
</a>
</g>
</g>
<!-- Node899&#45;&gt;Node907 -->
<g id="edge14" class="edge"><title>Node899&#45;&gt;Node907</title>
<path fill="none" stroke="midnightblue" d="M264.045,-133.313C268.995,-130.743 273.91,-127.645 278,-124 300.369,-104.065 287.759,-81.4632 314,-67 336.69,-54.4942 366.568,-59.0468 388.208,-65.3434"/>
<polygon fill="midnightblue" stroke="midnightblue" points="387.218,-68.7011 397.809,-68.4054 389.345,-62.0321 387.218,-68.7011"/>
</g>
<!-- Node908 -->
<g id="node12" class="node"><title>Node908</title>
<g id="a_node12"><a xlink:href="tinyprintf_8c.html#a6252dbfebb2c8783c4e3107d551082dd" target="_top" xlink:title="putchw">
<polygon fill="white" stroke="black" points="314,-0.5 314,-19.5 362,-19.5 362,-0.5 314,-0.5"/>
<text text-anchor="middle" x="338" y="-7.5" font-family="Helvetica,sans-Serif" font-size="10.00">putchw</text>
</a>
</g>
</g>
<!-- Node899&#45;&gt;Node908 -->
<g id="edge11" class="edge"><title>Node899&#45;&gt;Node908</title>
<path fill="none" stroke="midnightblue" d="M265.404,-133.427C270.024,-130.894 274.467,-127.781 278,-124 307.413,-92.5214 290.668,-70.2163 314,-34 315.477,-31.7077 317.192,-29.444 319.007,-27.2764"/>
<polygon fill="midnightblue" stroke="midnightblue" points="321.96,-29.2407 326.211,-19.536 316.836,-24.4716 321.96,-29.2407"/>
</g>
<!-- Node901 -->
<g id="node5" class="node"><title>Node901</title>
<g id="a_node5"><a xlink:href="tinyprintf_8c.html#aa853a0c5ba64fa2546d488b86192e7e3" target="_top" xlink:title="a2d">
<polygon fill="white" stroke="black" points="401.5,-266.5 401.5,-285.5 433.5,-285.5 433.5,-266.5 401.5,-266.5"/>
<text text-anchor="middle" x="417.5" y="-273.5" font-family="Helvetica,sans-Serif" font-size="10.00">a2d</text>
</a>
</g>
</g>
<!-- Node900&#45;&gt;Node901 -->
<g id="edge4" class="edge"><title>Node900&#45;&gt;Node901</title>
<path fill="none" stroke="midnightblue" d="M354.312,-276C364.888,-276 379.197,-276 391.423,-276"/>
<polygon fill="midnightblue" stroke="midnightblue" points="391.484,-279.5 401.484,-276 391.484,-272.5 391.484,-279.5"/>
</g>
<!-- Node902&#45;&gt;Node903 -->
<g id="edge6" class="edge"><title>Node902&#45;&gt;Node903</title>
<path fill="none" stroke="midnightblue" d="M352.855,-234.603C363.128,-232.085 377.448,-228.574 389.904,-225.52"/>
<polygon fill="midnightblue" stroke="midnightblue" points="390.919,-228.875 399.798,-223.095 389.253,-222.076 390.919,-228.875"/>
</g>
<!-- Node904&#45;&gt;Node905 -->
<g id="edge8" class="edge"><title>Node904&#45;&gt;Node905</title>
<path fill="none" stroke="midnightblue" d="M354.312,-156.271C364.306,-152.531 377.632,-147.544 389.385,-143.146"/>
<polygon fill="midnightblue" stroke="midnightblue" points="390.64,-146.414 398.779,-139.631 388.187,-139.858 390.64,-146.414"/>
</g>
<!-- Node906&#45;&gt;Node907 -->
<g id="edge10" class="edge"><title>Node906&#45;&gt;Node907</title>
<path fill="none" stroke="midnightblue" d="M355.058,-83.928C364.466,-82.7141 376.628,-81.1447 387.647,-79.723"/>
<polygon fill="midnightblue" stroke="midnightblue" points="388.263,-83.1725 397.733,-78.4215 387.368,-76.2301 388.263,-83.1725"/>
</g>
</g>
</svg>
