<?xml version="1.0" encoding="UTF-8" standalone="no"?>
<!DOCTYPE svg PUBLIC "-//W3C//DTD SVG 1.1//EN"
 "http://www.w3.org/Graphics/SVG/1.1/DTD/svg11.dtd">
<!-- Generated by graphviz version 2.38.0 (20140413.2041)
 -->
<!-- Title: user/tinyprintf.c Pages: 1 -->
<svg width="1045pt" height="756pt"
 viewBox="0.00 0.00 1045.00 756.00" xmlns="http://www.w3.org/2000/svg" xmlns:xlink="http://www.w3.org/1999/xlink">
<g id="graph0" class="graph" transform="scale(1 1) rotate(0) translate(4 752)">
<title>user/tinyprintf.c</title>
<polygon fill="white" stroke="none" points="-4,4 -4,-752 1041,-752 1041,4 -4,4"/>
<!-- Node0 -->
<g id="node1" class="node"><title>Node0</title>
<polygon fill="#bfbfbf" stroke="black" points="888,-728.5 888,-747.5 972,-747.5 972,-728.5 888,-728.5"/>
<text text-anchor="middle" x="930" y="-735.5" font-family="Helvetica,sans-Serif" font-size="10.00">user/tinyprintf.c</text>
</g>
<!-- Node1 -->
<g id="node2" class="node"><title>Node1</title>
<g id="a_node2"><a xlink:href="esp8266_8h.html" target="_top" xlink:title="esp8266.h">
<polygon fill="white" stroke="black" points="452,-672.5 452,-691.5 514,-691.5 514,-672.5 452,-672.5"/>
<text text-anchor="middle" x="483" y="-679.5" font-family="Helvetica,sans-Serif" font-size="10.00">esp8266.h</text>
</a>
</g>
</g>
<!-- Node0&#45;&gt;Node1 -->
<g id="edge1" class="edge"><title>Node0&#45;&gt;Node1</title>
<path fill="none" stroke="midnightblue" d="M887.947,-731.92C802.409,-721.586 609.085,-698.232 524.237,-687.982"/>
<polygon fill="midnightblue" stroke="midnightblue" points="524.549,-684.494 514.202,-686.769 523.71,-691.444 524.549,-684.494"/>
</g>
<!-- Node30 -->
<g id="node31" class="node"><title>Node30</title>
<g id="a_node31"><a xlink:href="tinyprintf_8h.html" target="_top" xlink:title="tinyprintf.h">
<polygon fill="white" stroke="black" points="899,-672.5 899,-691.5 961,-691.5 961,-672.5 899,-672.5"/>
<text text-anchor="middle" x="930" y="-679.5" font-family="Helvetica,sans-Serif" font-size="10.00">tinyprintf.h</text>
</a>
</g>
</g>
<!-- Node0&#45;&gt;Node30 -->
<g id="edge43" class="edge"><title>Node0&#45;&gt;Node30</title>
<path fill="none" stroke="midnightblue" d="M930,-728.083C930,-721.006 930,-710.861 930,-701.986"/>
<polygon fill="midnightblue" stroke="midnightblue" points="933.5,-701.751 930,-691.751 926.5,-701.751 933.5,-701.751"/>
</g>
<!-- Node32 -->
<g id="node33" class="node"><title>Node32</title>
<polygon fill="white" stroke="#bfbfbf" points="969,-616.5 969,-635.5 1037,-635.5 1037,-616.5 969,-616.5"/>
<text text-anchor="middle" x="1003" y="-623.5" font-family="Helvetica,sans-Serif" font-size="10.00">sys/types.h</text>
</g>
<!-- Node0&#45;&gt;Node32 -->
<g id="edge46" class="edge"><title>Node0&#45;&gt;Node32</title>
<path fill="none" stroke="midnightblue" d="M939.008,-728.265C947.642,-719.59 960.699,-705.647 970,-692 980.123,-677.146 989.171,-658.767 995.221,-645.346"/>
<polygon fill="midnightblue" stroke="midnightblue" points="998.592,-646.372 999.394,-635.808 992.179,-643.567 998.592,-646.372"/>
</g>
<!-- Node2 -->
<g id="node3" class="node"><title>Node2</title>
<polygon fill="white" stroke="#bfbfbf" points="663.5,-616.5 663.5,-635.5 712.5,-635.5 712.5,-616.5 663.5,-616.5"/>
<text text-anchor="middle" x="688" y="-623.5" font-family="Helvetica,sans-Serif" font-size="10.00">ctype.h</text>
</g>
<!-- Node1&#45;&gt;Node2 -->
<g id="edge2" class="edge"><title>Node1&#45;&gt;Node2</title>
<path fill="none" stroke="midnightblue" d="M514.207,-672.802C546.548,-664.303 598.824,-650.557 653.598,-636.103"/>
<polygon fill="midnightblue" stroke="midnightblue" points="654.711,-639.429 663.487,-633.493 652.925,-632.661 654.711,-639.429"/>
</g>
<!-- Node3 -->
<g id="node4" class="node"><title>Node3</title>
<polygon fill="white" stroke="#bfbfbf" points="731,-616.5 731,-635.5 777,-635.5 777,-616.5 731,-616.5"/>
<text text-anchor="middle" x="754" y="-623.5" font-family="Helvetica,sans-Serif" font-size="10.00">stdio.h</text>
</g>
<!-- Node1&#45;&gt;Node3 -->
<g id="edge3" class="edge"><title>Node1&#45;&gt;Node3</title>
<path fill="none" stroke="midnightblue" d="M514.352,-675.889C560.029,-668.257 647.446,-652.955 721,-636 721.101,-635.977 721.203,-635.953 721.304,-635.93"/>
<polygon fill="midnightblue" stroke="midnightblue" points="722.117,-639.334 730.98,-633.529 720.431,-632.54 722.117,-639.334"/>
</g>
<!-- Node4 -->
<g id="node5" class="node"><title>Node4</title>
<polygon fill="white" stroke="#bfbfbf" points="795,-616.5 795,-635.5 843,-635.5 843,-616.5 795,-616.5"/>
<text text-anchor="middle" x="819" y="-623.5" font-family="Helvetica,sans-Serif" font-size="10.00">stdlib.h</text>
</g>
<!-- Node1&#45;&gt;Node4 -->
<g id="edge4" class="edge"><title>Node1&#45;&gt;Node4</title>
<path fill="none" stroke="midnightblue" d="M514.186,-677.608C567.633,-671.529 680.3,-657.552 784.841,-636.026"/>
<polygon fill="midnightblue" stroke="midnightblue" points="785.856,-639.39 794.93,-633.92 784.425,-632.538 785.856,-639.39"/>
</g>
<!-- Node5 -->
<g id="node6" class="node"><title>Node5</title>
<polygon fill="white" stroke="#bfbfbf" points="130.5,-168.5 130.5,-187.5 179.5,-187.5 179.5,-168.5 130.5,-168.5"/>
<text text-anchor="middle" x="155" y="-175.5" font-family="Helvetica,sans-Serif" font-size="10.00">string.h</text>
</g>
<!-- Node1&#45;&gt;Node5 -->
<g id="edge5" class="edge"><title>Node1&#45;&gt;Node5</title>
<path fill="none" stroke="midnightblue" d="M451.963,-678.811C385.114,-673.701 229.788,-659.599 183,-636 146.522,-617.601 118,-611.855 118,-571 118,-571 118,-571 118,-289 118,-254.889 134.182,-217.787 145.142,-196.568"/>
<polygon fill="midnightblue" stroke="midnightblue" points="148.359,-197.976 150.01,-187.51 142.193,-194.662 148.359,-197.976"/>
</g>
<!-- Node6 -->
<g id="node7" class="node"><title>Node6</title>
<g id="a_node7"><a xlink:href="c__types_8h.html" target="_top" xlink:title="c_types.h">
<polygon fill="white" stroke="black" points="404.5,-56.5 404.5,-75.5 463.5,-75.5 463.5,-56.5 404.5,-56.5"/>
<text text-anchor="middle" x="434" y="-63.5" font-family="Helvetica,sans-Serif" font-size="10.00">c_types.h</text>
</a>
</g>
</g>
<!-- Node1&#45;&gt;Node6 -->
<g id="edge6" class="edge"><title>Node1&#45;&gt;Node6</title>
<path fill="none" stroke="midnightblue" d="M514.22,-681.446C593.774,-681.936 801.387,-678.968 852,-636 874.945,-616.521 871,-601.098 871,-571 871,-571 871,-571 871,-177 871,-171.902 581.058,-102.126 473.515,-76.4206"/>
<polygon fill="midnightblue" stroke="midnightblue" points="474.233,-72.9936 463.693,-74.0742 472.606,-79.802 474.233,-72.9936"/>
</g>
<!-- Node9 -->
<g id="node10" class="node"><title>Node9</title>
<g id="a_node10"><a xlink:href="ets__sys_8h.html" target="_top" xlink:title="ets_sys.h">
<polygon fill="white" stroke="black" points="462.5,-112.5 462.5,-131.5 521.5,-131.5 521.5,-112.5 462.5,-112.5"/>
<text text-anchor="middle" x="492" y="-119.5" font-family="Helvetica,sans-Serif" font-size="10.00">ets_sys.h</text>
</a>
</g>
</g>
<!-- Node1&#45;&gt;Node9 -->
<g id="edge9" class="edge"><title>Node1&#45;&gt;Node9</title>
<path fill="none" stroke="midnightblue" d="M455.432,-672.441C424.305,-661.353 380.391,-640.511 400,-616 445.533,-559.083 506.51,-629.513 560,-580 582.181,-559.468 580,-545.225 580,-515 580,-515 580,-515 580,-233 580,-191.032 540.459,-155.902 514.388,-137.3"/>
<polygon fill="midnightblue" stroke="midnightblue" points="516.364,-134.412 506.139,-131.639 512.403,-140.183 516.364,-134.412"/>
</g>
<!-- Node11 -->
<g id="node12" class="node"><title>Node11</title>
<g id="a_node12"><a xlink:href="gpio_8h.html" target="_top" xlink:title="gpio.h">
<polygon fill="white" stroke="black" points="184.5,-560.5 184.5,-579.5 227.5,-579.5 227.5,-560.5 184.5,-560.5"/>
<text text-anchor="middle" x="206" y="-567.5" font-family="Helvetica,sans-Serif" font-size="10.00">gpio.h</text>
</a>
</g>
</g>
<!-- Node1&#45;&gt;Node11 -->
<g id="edge12" class="edge"><title>Node1&#45;&gt;Node11</title>
<path fill="none" stroke="midnightblue" d="M451.86,-681.321C406.085,-680.421 319.423,-673.382 258,-636 239.164,-624.536 224.309,-603.648 215.381,-588.641"/>
<polygon fill="midnightblue" stroke="midnightblue" points="218.348,-586.778 210.387,-579.787 212.251,-590.217 218.348,-586.778"/>
</g>
<!-- Node12 -->
<g id="node13" class="node"><title>Node12</title>
<g id="a_node13"><a xlink:href="sdk_2include_2mem_8h.html" target="_top" xlink:title="mem.h">
<polygon fill="white" stroke="black" points="42.5,-616.5 42.5,-635.5 89.5,-635.5 89.5,-616.5 42.5,-616.5"/>
<text text-anchor="middle" x="66" y="-623.5" font-family="Helvetica,sans-Serif" font-size="10.00">mem.h</text>
</a>
</g>
</g>
<!-- Node1&#45;&gt;Node12 -->
<g id="edge13" class="edge"><title>Node1&#45;&gt;Node12</title>
<path fill="none" stroke="midnightblue" d="M451.873,-678.519C386.893,-673.073 232.205,-658.717 104,-636 102.54,-635.741 101.051,-635.461 99.5508,-635.165"/>
<polygon fill="midnightblue" stroke="midnightblue" points="100.141,-631.712 89.6296,-633.038 98.6738,-638.556 100.141,-631.712"/>
</g>
<!-- Node14 -->
<g id="node15" class="node"><title>Node14</title>
<g id="a_node15"><a xlink:href="osapi_8h.html" target="_top" xlink:title="osapi.h">
<polygon fill="white" stroke="black" points="284,-224.5 284,-243.5 332,-243.5 332,-224.5 284,-224.5"/>
<text text-anchor="middle" x="308" y="-231.5" font-family="Helvetica,sans-Serif" font-size="10.00">osapi.h</text>
</a>
</g>
</g>
<!-- Node1&#45;&gt;Node14 -->
<g id="edge16" class="edge"><title>Node1&#45;&gt;Node14</title>
<path fill="none" stroke="midnightblue" d="M451.673,-680.586C402.545,-678.823 305.414,-670.784 232,-636 191.834,-616.969 156,-615.447 156,-571 156,-571 156,-571 156,-345 156,-287.128 229.206,-256.603 274.01,-243.34"/>
<polygon fill="midnightblue" stroke="midnightblue" points="275.239,-246.63 283.915,-240.55 273.341,-239.893 275.239,-246.63"/>
</g>
<!-- Node17 -->
<g id="node18" class="node"><title>Node17</title>
<g id="a_node18"><a xlink:href="user__interface_8h.html" target="_top" xlink:title="user_interface.h">
<polygon fill="white" stroke="black" points="267,-616.5 267,-635.5 353,-635.5 353,-616.5 267,-616.5"/>
<text text-anchor="middle" x="310" y="-623.5" font-family="Helvetica,sans-Serif" font-size="10.00">user_interface.h</text>
</a>
</g>
</g>
<!-- Node1&#45;&gt;Node17 -->
<g id="edge21" class="edge"><title>Node1&#45;&gt;Node17</title>
<path fill="none" stroke="midnightblue" d="M455.588,-672.444C426.231,-663.28 379.481,-648.688 346.904,-638.519"/>
<polygon fill="midnightblue" stroke="midnightblue" points="347.873,-635.155 337.284,-635.516 345.787,-641.837 347.873,-635.155"/>
</g>
<!-- Node27 -->
<g id="node28" class="node"><title>Node27</title>
<g id="a_node28"><a xlink:href="upgrade_8h.html" target="_top" xlink:title="upgrade.h">
<polygon fill="white" stroke="black" points="409.5,-616.5 409.5,-635.5 468.5,-635.5 468.5,-616.5 409.5,-616.5"/>
<text text-anchor="middle" x="439" y="-623.5" font-family="Helvetica,sans-Serif" font-size="10.00">upgrade.h</text>
</a>
</g>
</g>
<!-- Node1&#45;&gt;Node27 -->
<g id="edge40" class="edge"><title>Node1&#45;&gt;Node27</title>
<path fill="none" stroke="midnightblue" d="M475.734,-672.083C469.455,-664.377 460.212,-653.033 452.569,-643.653"/>
<polygon fill="midnightblue" stroke="midnightblue" points="455.161,-641.293 446.131,-635.751 449.734,-645.714 455.161,-641.293"/>
</g>
<!-- Node28 -->
<g id="node29" class="node"><title>Node28</title>
<g id="a_node29"><a xlink:href="esp__sdk__ver_8h.html" target="_top" xlink:title="esp_sdk_ver.h">
<polygon fill="white" stroke="black" points="487,-616.5 487,-635.5 567,-635.5 567,-616.5 487,-616.5"/>
<text text-anchor="middle" x="527" y="-623.5" font-family="Helvetica,sans-Serif" font-size="10.00">esp_sdk_ver.h</text>
</a>
</g>
</g>
<!-- Node1&#45;&gt;Node28 -->
<g id="edge41" class="edge"><title>Node1&#45;&gt;Node28</title>
<path fill="none" stroke="midnightblue" d="M490.266,-672.083C496.545,-664.377 505.788,-653.033 513.431,-643.653"/>
<polygon fill="midnightblue" stroke="midnightblue" points="516.266,-645.714 519.869,-635.751 510.839,-641.293 516.266,-645.714"/>
</g>
<!-- Node29 -->
<g id="node30" class="node"><title>Node29</title>
<g id="a_node30"><a xlink:href="platform_8h.html" target="_top" xlink:title="platform.h">
<polygon fill="white" stroke="black" points="585,-616.5 585,-635.5 645,-635.5 645,-616.5 585,-616.5"/>
<text text-anchor="middle" x="615" y="-623.5" font-family="Helvetica,sans-Serif" font-size="10.00">platform.h</text>
</a>
</g>
</g>
<!-- Node1&#45;&gt;Node29 -->
<g id="edge42" class="edge"><title>Node1&#45;&gt;Node29</title>
<path fill="none" stroke="midnightblue" d="M503.916,-672.444C525.736,-663.517 560.15,-649.439 584.892,-639.317"/>
<polygon fill="midnightblue" stroke="midnightblue" points="586.252,-642.542 594.182,-635.516 583.601,-636.063 586.252,-642.542"/>
</g>
<!-- Node7 -->
<g id="node8" class="node"><title>Node7</title>
<polygon fill="white" stroke="#bfbfbf" points="374.5,-0.5 374.5,-19.5 423.5,-19.5 423.5,-0.5 374.5,-0.5"/>
<text text-anchor="middle" x="399" y="-7.5" font-family="Helvetica,sans-Serif" font-size="10.00">stdint.h</text>
</g>
<!-- Node6&#45;&gt;Node7 -->
<g id="edge7" class="edge"><title>Node6&#45;&gt;Node7</title>
<path fill="none" stroke="midnightblue" d="M428.22,-56.083C423.328,-48.5341 416.173,-37.4948 410.167,-28.2298"/>
<polygon fill="midnightblue" stroke="midnightblue" points="413.048,-26.239 404.672,-19.7511 407.174,-30.0463 413.048,-26.239"/>
</g>
<!-- Node8 -->
<g id="node9" class="node"><title>Node8</title>
<polygon fill="white" stroke="#bfbfbf" points="442,-0.5 442,-19.5 498,-19.5 498,-0.5 442,-0.5"/>
<text text-anchor="middle" x="470" y="-7.5" font-family="Helvetica,sans-Serif" font-size="10.00">stdbool.h</text>
</g>
<!-- Node6&#45;&gt;Node8 -->
<g id="edge8" class="edge"><title>Node6&#45;&gt;Node8</title>
<path fill="none" stroke="midnightblue" d="M439.945,-56.083C444.977,-48.5341 452.337,-37.4948 458.513,-28.2298"/>
<polygon fill="midnightblue" stroke="midnightblue" points="461.531,-30.0131 464.166,-19.7511 455.707,-26.1301 461.531,-30.0131"/>
</g>
<!-- Node9&#45;&gt;Node6 -->
<g id="edge10" class="edge"><title>Node9&#45;&gt;Node6</title>
<path fill="none" stroke="midnightblue" d="M482.681,-112.324C474.107,-104.341 461.188,-92.3128 450.812,-82.6529"/>
<polygon fill="midnightblue" stroke="midnightblue" points="453.192,-80.0865 443.488,-75.8339 448.422,-85.2098 453.192,-80.0865"/>
</g>
<!-- Node10 -->
<g id="node11" class="node"><title>Node10</title>
<g id="a_node11"><a xlink:href="eagle__soc_8h.html" target="_top" xlink:title="eagle_soc.h">
<polygon fill="white" stroke="black" points="481.5,-56.5 481.5,-75.5 550.5,-75.5 550.5,-56.5 481.5,-56.5"/>
<text text-anchor="middle" x="516" y="-63.5" font-family="Helvetica,sans-Serif" font-size="10.00">eagle_soc.h</text>
</a>
</g>
</g>
<!-- Node9&#45;&gt;Node10 -->
<g id="edge11" class="edge"><title>Node9&#45;&gt;Node10</title>
<path fill="none" stroke="midnightblue" d="M495.963,-112.083C499.213,-104.77 503.919,-94.1814 507.954,-85.1034"/>
<polygon fill="midnightblue" stroke="midnightblue" points="511.248,-86.3107 512.111,-75.7511 504.851,-83.4677 511.248,-86.3107"/>
</g>
<!-- Node12&#45;&gt;Node6 -->
<g id="edge15" class="edge"><title>Node12&#45;&gt;Node6</title>
<path fill="none" stroke="midnightblue" d="M67.8303,-616.489C71.6251,-598.075 80,-553.118 80,-515 80,-515 80,-515 80,-177 80,-111.778 301.912,-80.8794 394.338,-70.8388"/>
<polygon fill="midnightblue" stroke="midnightblue" points="394.851,-74.3041 404.427,-69.7701 394.114,-67.3431 394.851,-74.3041"/>
</g>
<!-- Node13 -->
<g id="node14" class="node"><title>Node13</title>
<polygon fill="white" stroke="#bfbfbf" points="0,-560.5 0,-579.5 52,-579.5 52,-560.5 0,-560.5"/>
<text text-anchor="middle" x="26" y="-567.5" font-family="Helvetica,sans-Serif" font-size="10.00">stddef.h</text>
</g>
<!-- Node12&#45;&gt;Node13 -->
<g id="edge14" class="edge"><title>Node12&#45;&gt;Node13</title>
<path fill="none" stroke="midnightblue" d="M59.3948,-616.083C53.7448,-608.455 45.4552,-597.264 38.5488,-587.941"/>
<polygon fill="midnightblue" stroke="midnightblue" points="41.2471,-585.703 32.4823,-579.751 35.6221,-589.87 41.2471,-585.703"/>
</g>
<!-- Node14&#45;&gt;Node5 -->
<g id="edge17" class="edge"><title>Node14&#45;&gt;Node5</title>
<path fill="none" stroke="midnightblue" d="M283.757,-224.444C258.129,-215.399 217.515,-201.064 188.762,-190.916"/>
<polygon fill="midnightblue" stroke="midnightblue" points="189.725,-187.544 179.13,-187.516 187.395,-194.145 189.725,-187.544"/>
</g>
<!-- Node15 -->
<g id="node16" class="node"><title>Node15</title>
<g id="a_node16"><a xlink:href="os__type_8h.html" target="_top" xlink:title="os_type.h">
<polygon fill="white" stroke="black" points="346.5,-168.5 346.5,-187.5 405.5,-187.5 405.5,-168.5 346.5,-168.5"/>
<text text-anchor="middle" x="376" y="-175.5" font-family="Helvetica,sans-Serif" font-size="10.00">os_type.h</text>
</a>
</g>
</g>
<!-- Node14&#45;&gt;Node15 -->
<g id="edge18" class="edge"><title>Node14&#45;&gt;Node15</title>
<path fill="none" stroke="midnightblue" d="M318.925,-224.324C329.175,-216.185 344.721,-203.839 357.001,-194.087"/>
<polygon fill="midnightblue" stroke="midnightblue" points="359.221,-196.794 364.876,-187.834 354.868,-191.312 359.221,-196.794"/>
</g>
<!-- Node16 -->
<g id="node17" class="node"><title>Node16</title>
<polygon fill="white" stroke="#bfbfbf" points="236.5,-168.5 236.5,-187.5 311.5,-187.5 311.5,-168.5 236.5,-168.5"/>
<text text-anchor="middle" x="274" y="-175.5" font-family="Helvetica,sans-Serif" font-size="10.00">user_config.h</text>
</g>
<!-- Node14&#45;&gt;Node16 -->
<g id="edge20" class="edge"><title>Node14&#45;&gt;Node16</title>
<path fill="none" stroke="midnightblue" d="M302.386,-224.083C297.633,-216.534 290.682,-205.495 284.848,-196.23"/>
<polygon fill="midnightblue" stroke="midnightblue" points="287.8,-194.349 279.51,-187.751 281.876,-198.078 287.8,-194.349"/>
</g>
<!-- Node15&#45;&gt;Node9 -->
<g id="edge19" class="edge"><title>Node15&#45;&gt;Node9</title>
<path fill="none" stroke="midnightblue" d="M394.381,-168.444C413.216,-159.675 442.731,-145.935 464.379,-135.858"/>
<polygon fill="midnightblue" stroke="midnightblue" points="466.117,-138.91 473.705,-131.516 463.162,-132.564 466.117,-138.91"/>
</g>
<!-- Node17&#45;&gt;Node11 -->
<g id="edge39" class="edge"><title>Node17&#45;&gt;Node11</title>
<path fill="none" stroke="midnightblue" d="M293.291,-616.324C276.688,-607.703 250.998,-594.364 231.78,-584.386"/>
<polygon fill="midnightblue" stroke="midnightblue" points="233.156,-581.156 222.668,-579.655 229.93,-587.369 233.156,-581.156"/>
</g>
<!-- Node17&#45;&gt;Node15 -->
<g id="edge22" class="edge"><title>Node17&#45;&gt;Node15</title>
<path fill="none" stroke="midnightblue" d="M344.031,-616.496C374.98,-607.992 417.266,-594.172 427,-580 432.032,-572.673 428.39,-568.78 427,-560 424.131,-541.884 376,-421.342 376,-403 376,-403 376,-403 376,-289 376,-256.948 376,-219.643 376,-197.749"/>
<polygon fill="midnightblue" stroke="midnightblue" points="379.5,-197.558 376,-187.558 372.5,-197.558 379.5,-197.558"/>
</g>
<!-- Node17&#45;&gt;Node16 -->
<g id="edge37" class="edge"><title>Node17&#45;&gt;Node16</title>
<path fill="none" stroke="midnightblue" d="M301.67,-616.386C293.783,-607.801 282.12,-593.923 275,-580 261.296,-553.203 256,-545.098 256,-515 256,-515 256,-515 256,-289 256,-256.537 263.73,-219.384 269.058,-197.628"/>
<polygon fill="midnightblue" stroke="midnightblue" points="272.495,-198.315 271.572,-187.76 265.712,-196.587 272.495,-198.315"/>
</g>
<!-- Node18 -->
<g id="node19" class="node"><title>Node18</title>
<g id="a_node19"><a xlink:href="esp-open-lwip_2include_2lwip_2ip__addr_8h.html" target="_top" xlink:title="lwip/ip_addr.h">
<polygon fill="white" stroke="black" points="474.5,-560.5 474.5,-579.5 551.5,-579.5 551.5,-560.5 474.5,-560.5"/>
<text text-anchor="middle" x="513" y="-567.5" font-family="Helvetica,sans-Serif" font-size="10.00">lwip/ip_addr.h</text>
</a>
</g>
</g>
<!-- Node17&#45;&gt;Node18 -->
<g id="edge23" class="edge"><title>Node17&#45;&gt;Node18</title>
<path fill="none" stroke="midnightblue" d="M342.166,-616.444C377.059,-607.162 432.893,-592.309 471.171,-582.127"/>
<polygon fill="midnightblue" stroke="midnightblue" points="472.22,-585.47 480.985,-579.516 470.421,-578.705 472.22,-585.47"/>
</g>
<!-- Node25 -->
<g id="node26" class="node"><title>Node25</title>
<g id="a_node26"><a xlink:href="esp-open-sdk_2sdk_2include_2queue_8h.html" target="_top" xlink:title="queue.h">
<polygon fill="white" stroke="black" points="284.5,-560.5 284.5,-579.5 335.5,-579.5 335.5,-560.5 284.5,-560.5"/>
<text text-anchor="middle" x="310" y="-567.5" font-family="Helvetica,sans-Serif" font-size="10.00">queue.h</text>
</a>
</g>
</g>
<!-- Node17&#45;&gt;Node25 -->
<g id="edge36" class="edge"><title>Node17&#45;&gt;Node25</title>
<path fill="none" stroke="midnightblue" d="M310,-616.083C310,-609.006 310,-598.861 310,-589.986"/>
<polygon fill="midnightblue" stroke="midnightblue" points="313.5,-589.751 310,-579.751 306.5,-589.751 313.5,-589.751"/>
</g>
<!-- Node26 -->
<g id="node27" class="node"><title>Node26</title>
<g id="a_node27"><a xlink:href="spi__flash_8h.html" target="_top" xlink:title="spi_flash.h">
<polygon fill="white" stroke="black" points="354,-560.5 354,-579.5 418,-579.5 418,-560.5 354,-560.5"/>
<text text-anchor="middle" x="386" y="-567.5" font-family="Helvetica,sans-Serif" font-size="10.00">spi_flash.h</text>
</a>
</g>
</g>
<!-- Node17&#45;&gt;Node26 -->
<g id="edge38" class="edge"><title>Node17&#45;&gt;Node26</title>
<path fill="none" stroke="midnightblue" d="M322.211,-616.324C333.776,-608.107 351.375,-595.602 365.161,-585.807"/>
<polygon fill="midnightblue" stroke="midnightblue" points="367.443,-588.479 373.567,-579.834 363.388,-582.773 367.443,-588.479"/>
</g>
<!-- Node19 -->
<g id="node20" class="node"><title>Node19</title>
<g id="a_node20"><a xlink:href="opt_8h.html" target="_top" xlink:title="lwip/opt.h">
<polygon fill="white" stroke="black" points="466.5,-448.5 466.5,-467.5 525.5,-467.5 525.5,-448.5 466.5,-448.5"/>
<text text-anchor="middle" x="496" y="-455.5" font-family="Helvetica,sans-Serif" font-size="10.00">lwip/opt.h</text>
</a>
</g>
</g>
<!-- Node18&#45;&gt;Node19 -->
<g id="edge24" class="edge"><title>Node18&#45;&gt;Node19</title>
<path fill="none" stroke="midnightblue" d="M511.666,-560.368C508.923,-542.617 502.594,-501.666 498.874,-477.597"/>
<polygon fill="midnightblue" stroke="midnightblue" points="502.314,-476.94 497.328,-467.591 495.396,-478.009 502.314,-476.94"/>
</g>
<!-- Node24 -->
<g id="node25" class="node"><title>Node24</title>
<g id="a_node25"><a xlink:href="def_8h.html" target="_top" xlink:title="lwip/def.h">
<polygon fill="white" stroke="black" points="425.5,-504.5 425.5,-523.5 484.5,-523.5 484.5,-504.5 425.5,-504.5"/>
<text text-anchor="middle" x="455" y="-511.5" font-family="Helvetica,sans-Serif" font-size="10.00">lwip/def.h</text>
</a>
</g>
</g>
<!-- Node18&#45;&gt;Node24 -->
<g id="edge33" class="edge"><title>Node18&#45;&gt;Node24</title>
<path fill="none" stroke="midnightblue" d="M503.681,-560.324C495.107,-552.341 482.188,-540.313 471.812,-530.653"/>
<polygon fill="midnightblue" stroke="midnightblue" points="474.192,-528.086 464.488,-523.834 469.422,-533.21 474.192,-528.086"/>
</g>
<!-- Node20 -->
<g id="node21" class="node"><title>Node20</title>
<g id="a_node21"><a xlink:href="lwipopts_8h.html" target="_top" xlink:title="lwipopts.h">
<polygon fill="white" stroke="black" points="488.5,-336.5 488.5,-355.5 549.5,-355.5 549.5,-336.5 488.5,-336.5"/>
<text text-anchor="middle" x="519" y="-343.5" font-family="Helvetica,sans-Serif" font-size="10.00">lwipopts.h</text>
</a>
</g>
</g>
<!-- Node19&#45;&gt;Node20 -->
<g id="edge25" class="edge"><title>Node19&#45;&gt;Node20</title>
<path fill="none" stroke="midnightblue" d="M502.89,-448.319C509.269,-439.684 518.308,-425.77 522,-412 526.073,-396.809 524.829,-378.917 522.846,-365.755"/>
<polygon fill="midnightblue" stroke="midnightblue" points="526.234,-364.82 521.029,-355.592 519.344,-366.052 526.234,-364.82"/>
</g>
<!-- Node21 -->
<g id="node22" class="node"><title>Node21</title>
<g id="a_node22"><a xlink:href="esp-open-sdk_2esp-open-lwip_2include_2lwip_2debug_8h.html" target="_top" xlink:title="lwip/debug.h">
<polygon fill="white" stroke="black" points="442.5,-392.5 442.5,-411.5 513.5,-411.5 513.5,-392.5 442.5,-392.5"/>
<text text-anchor="middle" x="478" y="-399.5" font-family="Helvetica,sans-Serif" font-size="10.00">lwip/debug.h</text>
</a>
</g>
</g>
<!-- Node19&#45;&gt;Node21 -->
<g id="edge26" class="edge"><title>Node19&#45;&gt;Node21</title>
<path fill="none" stroke="midnightblue" d="M493.028,-448.083C490.616,-440.849 487.136,-430.409 484.132,-421.397"/>
<polygon fill="midnightblue" stroke="midnightblue" points="487.4,-420.131 480.917,-411.751 480.759,-422.345 487.4,-420.131"/>
</g>
<!-- Node21&#45;&gt;Node20 -->
<g id="edge27" class="edge"><title>Node21&#45;&gt;Node20</title>
<path fill="none" stroke="midnightblue" d="M484.77,-392.083C490.562,-384.455 499.058,-373.264 506.138,-363.941"/>
<polygon fill="midnightblue" stroke="midnightblue" points="509.096,-365.832 512.356,-355.751 503.521,-361.599 509.096,-365.832"/>
</g>
<!-- Node22 -->
<g id="node23" class="node"><title>Node22</title>
<g id="a_node23"><a xlink:href="arch_8h.html" target="_top" xlink:title="lwip/arch.h">
<polygon fill="white" stroke="black" points="404,-336.5 404,-355.5 468,-355.5 468,-336.5 404,-336.5"/>
<text text-anchor="middle" x="436" y="-343.5" font-family="Helvetica,sans-Serif" font-size="10.00">lwip/arch.h</text>
</a>
</g>
</g>
<!-- Node21&#45;&gt;Node22 -->
<g id="edge28" class="edge"><title>Node21&#45;&gt;Node22</title>
<path fill="none" stroke="midnightblue" d="M471.065,-392.083C465.071,-384.377 456.248,-373.033 448.952,-363.653"/>
<polygon fill="midnightblue" stroke="midnightblue" points="451.709,-361.496 442.806,-355.751 446.183,-365.793 451.709,-361.496"/>
</g>
<!-- Node23 -->
<g id="node24" class="node"><title>Node23</title>
<g id="a_node24"><a xlink:href="cc_8h.html" target="_top" xlink:title="arch/cc.h">
<polygon fill="white" stroke="black" points="406.5,-280.5 406.5,-299.5 463.5,-299.5 463.5,-280.5 406.5,-280.5"/>
<text text-anchor="middle" x="435" y="-287.5" font-family="Helvetica,sans-Serif" font-size="10.00">arch/cc.h</text>
</a>
</g>
</g>
<!-- Node22&#45;&gt;Node23 -->
<g id="edge29" class="edge"><title>Node22&#45;&gt;Node23</title>
<path fill="none" stroke="midnightblue" d="M435.835,-336.083C435.704,-329.006 435.516,-318.861 435.352,-309.986"/>
<polygon fill="midnightblue" stroke="midnightblue" points="438.847,-309.685 435.162,-299.751 431.848,-309.814 438.847,-309.685"/>
</g>
<!-- Node23&#45;&gt;Node6 -->
<g id="edge30" class="edge"><title>Node23&#45;&gt;Node6</title>
<path fill="none" stroke="midnightblue" d="M434.961,-280.297C434.814,-247.633 434.292,-131.866 434.085,-85.9573"/>
<polygon fill="midnightblue" stroke="midnightblue" points="437.585,-85.8678 434.04,-75.8837 430.585,-85.8994 437.585,-85.8678"/>
</g>
<!-- Node23&#45;&gt;Node9 -->
<g id="edge31" class="edge"><title>Node23&#45;&gt;Node9</title>
<path fill="none" stroke="midnightblue" d="M438.065,-280.075C447.076,-253.832 473.614,-176.545 485.779,-141.117"/>
<polygon fill="midnightblue" stroke="midnightblue" points="489.121,-142.163 489.058,-131.568 482.5,-139.889 489.121,-142.163"/>
</g>
<!-- Node23&#45;&gt;Node14 -->
<g id="edge32" class="edge"><title>Node23&#45;&gt;Node14</title>
<path fill="none" stroke="midnightblue" d="M414.876,-280.444C393.976,-271.557 361.065,-257.563 337.284,-247.451"/>
<polygon fill="midnightblue" stroke="midnightblue" points="338.602,-244.208 328.029,-243.516 335.862,-250.65 338.602,-244.208"/>
</g>
<!-- Node24&#45;&gt;Node19 -->
<g id="edge35" class="edge"><title>Node24&#45;&gt;Node19</title>
<path fill="none" stroke="midnightblue" d="M461.77,-504.083C467.562,-496.455 476.058,-485.264 483.138,-475.941"/>
<polygon fill="midnightblue" stroke="midnightblue" points="486.096,-477.832 489.356,-467.751 480.521,-473.599 486.096,-477.832"/>
</g>
<!-- Node24&#45;&gt;Node22 -->
<g id="edge34" class="edge"><title>Node24&#45;&gt;Node22</title>
<path fill="none" stroke="midnightblue" d="M452.486,-504.456C447.55,-487.183 436.745,-446.793 433,-412 432.049,-403.162 432.704,-400.884 433,-392 433.287,-383.383 433.882,-373.854 434.467,-365.791"/>
<polygon fill="midnightblue" stroke="midnightblue" points="437.972,-365.859 435.254,-355.618 430.993,-365.318 437.972,-365.859"/>
</g>
<!-- Node31 -->
<g id="node32" class="node"><title>Node31</title>
<polygon fill="white" stroke="#bfbfbf" points="899,-616.5 899,-635.5 951,-635.5 951,-616.5 899,-616.5"/>
<text text-anchor="middle" x="925" y="-623.5" font-family="Helvetica,sans-Serif" font-size="10.00">stdarg.h</text>
</g>
<!-- Node30&#45;&gt;Node31 -->
<g id="edge44" class="edge"><title>Node30&#45;&gt;Node31</title>
<path fill="none" stroke="midnightblue" d="M929.174,-672.083C928.519,-665.006 927.58,-654.861 926.758,-645.986"/>
<polygon fill="midnightblue" stroke="midnightblue" points="930.217,-645.386 925.81,-635.751 923.247,-646.031 930.217,-645.386"/>
</g>
<!-- Node30&#45;&gt;Node32 -->
<g id="edge45" class="edge"><title>Node30&#45;&gt;Node32</title>
<path fill="none" stroke="midnightblue" d="M941.729,-672.324C952.837,-664.107 969.742,-651.602 982.983,-641.807"/>
<polygon fill="midnightblue" stroke="midnightblue" points="985.1,-644.595 991.058,-635.834 980.937,-638.967 985.1,-644.595"/>
</g>
</g>
</svg>
