<?xml version="1.0" encoding="UTF-8" standalone="no"?>
<!DOCTYPE svg PUBLIC "-//W3C//DTD SVG 1.1//EN"
 "http://www.w3.org/Graphics/SVG/1.1/DTD/svg11.dtd">
<!-- Generated by graphviz version 2.38.0 (20140413.2041)
 -->
<!-- Title: esp&#45;open&#45;lwip/lwip/netif/tunif.c Pages: 1 -->
<svg width="820pt" height="767pt"
 viewBox="0.00 0.00 819.50 767.00" xmlns="http://www.w3.org/2000/svg" xmlns:xlink="http://www.w3.org/1999/xlink">
<g id="graph0" class="graph" transform="scale(1 1) rotate(0) translate(4 763)">
<title>esp&#45;open&#45;lwip/lwip/netif/tunif.c</title>
<polygon fill="white" stroke="none" points="-4,4 -4,-763 815.5,-763 815.5,4 -4,4"/>
<!-- Node0 -->
<g id="node1" class="node"><title>Node0</title>
<polygon fill="#bfbfbf" stroke="black" points="325,-728.5 325,-758.5 422,-758.5 422,-728.5 325,-728.5"/>
<text text-anchor="start" x="333" y="-746.5" font-family="Helvetica,sans-Serif" font-size="10.00">esp&#45;open&#45;lwip/lwip</text>
<text text-anchor="middle" x="373.5" y="-735.5" font-family="Helvetica,sans-Serif" font-size="10.00">/netif/tunif.c</text>
</g>
<!-- Node1 -->
<g id="node2" class="node"><title>Node1</title>
<polygon fill="white" stroke="#bfbfbf" points="0,-672.5 0,-691.5 51,-691.5 51,-672.5 0,-672.5"/>
<text text-anchor="middle" x="25.5" y="-679.5" font-family="Helvetica,sans-Serif" font-size="10.00">unistd.h</text>
</g>
<!-- Node0&#45;&gt;Node1 -->
<g id="edge1" class="edge"><title>Node0&#45;&gt;Node1</title>
<path fill="none" stroke="midnightblue" d="M324.989,-736.08C265.238,-727.862 160.472,-712.44 60.9715,-691.925"/>
<polygon fill="midnightblue" stroke="midnightblue" points="61.5545,-688.471 51.0508,-689.859 60.127,-695.324 61.5545,-688.471"/>
</g>
<!-- Node2 -->
<g id="node3" class="node"><title>Node2</title>
<polygon fill="white" stroke="#bfbfbf" points="69.5,-672.5 69.5,-691.5 117.5,-691.5 117.5,-672.5 69.5,-672.5"/>
<text text-anchor="middle" x="93.5" y="-679.5" font-family="Helvetica,sans-Serif" font-size="10.00">stdlib.h</text>
</g>
<!-- Node0&#45;&gt;Node2 -->
<g id="edge2" class="edge"><title>Node0&#45;&gt;Node2</title>
<path fill="none" stroke="midnightblue" d="M324.78,-733.338C275.022,-723.784 195.624,-707.995 127.5,-692 127.4,-691.976 127.299,-691.953 127.199,-691.929"/>
<polygon fill="midnightblue" stroke="midnightblue" points="128.151,-688.559 117.604,-689.56 126.473,-695.355 128.151,-688.559"/>
</g>
<!-- Node3 -->
<g id="node4" class="node"><title>Node3</title>
<polygon fill="white" stroke="#bfbfbf" points="136,-672.5 136,-691.5 183,-691.5 183,-672.5 136,-672.5"/>
<text text-anchor="middle" x="159.5" y="-679.5" font-family="Helvetica,sans-Serif" font-size="10.00">errno.h</text>
</g>
<!-- Node0&#45;&gt;Node3 -->
<g id="edge3" class="edge"><title>Node0&#45;&gt;Node3</title>
<path fill="none" stroke="midnightblue" d="M324.94,-728.999C284.646,-717.795 228.403,-702.158 192.978,-692.308"/>
<polygon fill="midnightblue" stroke="midnightblue" points="193.703,-688.877 183.131,-689.57 191.828,-695.621 193.703,-688.877"/>
</g>
<!-- Node4 -->
<g id="node5" class="node"><title>Node4</title>
<polygon fill="white" stroke="#bfbfbf" points="201.5,-672.5 201.5,-691.5 263.5,-691.5 263.5,-672.5 201.5,-672.5"/>
<text text-anchor="middle" x="232.5" y="-679.5" font-family="Helvetica,sans-Serif" font-size="10.00">sys/time.h</text>
</g>
<!-- Node0&#45;&gt;Node4 -->
<g id="edge4" class="edge"><title>Node0&#45;&gt;Node4</title>
<path fill="none" stroke="midnightblue" d="M340.085,-728.399C316.533,-718.461 285.262,-705.265 262.507,-695.662"/>
<polygon fill="midnightblue" stroke="midnightblue" points="263.591,-692.321 253.017,-691.658 260.869,-698.77 263.591,-692.321"/>
</g>
<!-- Node5 -->
<g id="node6" class="node"><title>Node5</title>
<g id="a_node6"><a xlink:href="netif_8h.html" target="_top" xlink:title="lwip/netif.h">
<polygon fill="white" stroke="black" points="195.5,-616.5 195.5,-635.5 259.5,-635.5 259.5,-616.5 195.5,-616.5"/>
<text text-anchor="middle" x="227.5" y="-623.5" font-family="Helvetica,sans-Serif" font-size="10.00">lwip/netif.h</text>
</a>
</g>
</g>
<!-- Node0&#45;&gt;Node5 -->
<g id="edge5" class="edge"><title>Node0&#45;&gt;Node5</title>
<path fill="none" stroke="midnightblue" d="M355.598,-728.337C327.857,-706.392 274.738,-664.37 246.402,-641.953"/>
<polygon fill="midnightblue" stroke="midnightblue" points="248.473,-639.129 238.459,-635.669 244.13,-644.619 248.473,-639.129"/>
</g>
<!-- Node23 -->
<g id="node24" class="node"><title>Node23</title>
<g id="a_node24"><a xlink:href="pbuf_8h.html" target="_top" xlink:title="lwip/pbuf.h">
<polygon fill="white" stroke="black" points="315.5,-560.5 315.5,-579.5 379.5,-579.5 379.5,-560.5 315.5,-560.5"/>
<text text-anchor="middle" x="347.5" y="-567.5" font-family="Helvetica,sans-Serif" font-size="10.00">lwip/pbuf.h</text>
</a>
</g>
</g>
<!-- Node0&#45;&gt;Node23 -->
<g id="edge35" class="edge"><title>Node0&#45;&gt;Node23</title>
<path fill="none" stroke="midnightblue" d="M376.693,-728.44C378.813,-718.358 381.402,-704.419 382.5,-692 385.855,-654.05 368.434,-611.713 356.961,-588.537"/>
<polygon fill="midnightblue" stroke="midnightblue" points="360.038,-586.867 352.345,-579.583 353.816,-590.075 360.038,-586.867"/>
</g>
<!-- Node24 -->
<g id="node25" class="node"><title>Node24</title>
<g id="a_node25"><a xlink:href="stats_8h.html" target="_top" xlink:title="lwip/stats.h">
<polygon fill="white" stroke="black" points="625,-560.5 625,-579.5 692,-579.5 692,-560.5 625,-560.5"/>
<text text-anchor="middle" x="658.5" y="-567.5" font-family="Helvetica,sans-Serif" font-size="10.00">lwip/stats.h</text>
</a>
</g>
</g>
<!-- Node0&#45;&gt;Node24 -->
<g id="edge36" class="edge"><title>Node0&#45;&gt;Node24</title>
<path fill="none" stroke="midnightblue" d="M422.243,-741.667C492.162,-737.516 618.84,-718.321 676.5,-636 686.434,-621.818 678.885,-602.332 670.737,-588.401"/>
<polygon fill="midnightblue" stroke="midnightblue" points="673.552,-586.307 665.207,-579.778 667.659,-590.085 673.552,-586.307"/>
</g>
<!-- Node28 -->
<g id="node29" class="node"><title>Node28</title>
<g id="a_node29"><a xlink:href="ip_8h.html" target="_top" xlink:title="lwip/ip.h">
<polygon fill="white" stroke="black" points="320,-672.5 320,-691.5 373,-691.5 373,-672.5 320,-672.5"/>
<text text-anchor="middle" x="346.5" y="-679.5" font-family="Helvetica,sans-Serif" font-size="10.00">lwip/ip.h</text>
</a>
</g>
</g>
<!-- Node0&#45;&gt;Node28 -->
<g id="edge43" class="edge"><title>Node0&#45;&gt;Node28</title>
<path fill="none" stroke="midnightblue" d="M367.101,-728.399C363.38,-720.199 358.653,-709.781 354.665,-700.994"/>
<polygon fill="midnightblue" stroke="midnightblue" points="357.748,-699.318 350.429,-691.658 351.374,-702.21 357.748,-699.318"/>
</g>
<!-- Node29 -->
<g id="node30" class="node"><title>Node29</title>
<g id="a_node30"><a xlink:href="init_8h.html" target="_top" xlink:title="lwip/init.h">
<polygon fill="white" stroke="black" points="429.5,-616.5 429.5,-635.5 487.5,-635.5 487.5,-616.5 429.5,-616.5"/>
<text text-anchor="middle" x="458.5" y="-623.5" font-family="Helvetica,sans-Serif" font-size="10.00">lwip/init.h</text>
</a>
</g>
</g>
<!-- Node0&#45;&gt;Node29 -->
<g id="edge50" class="edge"><title>Node0&#45;&gt;Node29</title>
<path fill="none" stroke="midnightblue" d="M386.061,-728.254C394.642,-718.319 406.114,-704.631 415.5,-692 427.19,-676.27 439.417,-657.532 447.831,-644.225"/>
<polygon fill="midnightblue" stroke="midnightblue" points="450.881,-645.949 453.222,-635.616 444.948,-642.234 450.881,-645.949"/>
</g>
<!-- Node30 -->
<g id="node31" class="node"><title>Node30</title>
<g id="a_node31"><a xlink:href="tcp__impl_8h.html" target="_top" xlink:title="lwip/tcp_impl.h">
<polygon fill="white" stroke="black" points="505.5,-616.5 505.5,-635.5 587.5,-635.5 587.5,-616.5 505.5,-616.5"/>
<text text-anchor="middle" x="546.5" y="-623.5" font-family="Helvetica,sans-Serif" font-size="10.00">lwip/tcp_impl.h</text>
</a>
</g>
</g>
<!-- Node0&#45;&gt;Node30 -->
<g id="edge52" class="edge"><title>Node0&#45;&gt;Node30</title>
<path fill="none" stroke="midnightblue" d="M394.713,-728.337C427.867,-706.203 491.614,-663.644 524.965,-641.378"/>
<polygon fill="midnightblue" stroke="midnightblue" points="527.141,-644.133 533.515,-635.669 523.254,-638.311 527.141,-644.133"/>
</g>
<!-- Node31 -->
<g id="node32" class="node"><title>Node31</title>
<g id="a_node32"><a xlink:href="dns_8h.html" target="_top" xlink:title="lwip/dns.h">
<polygon fill="white" stroke="black" points="606,-616.5 606,-635.5 667,-635.5 667,-616.5 606,-616.5"/>
<text text-anchor="middle" x="636.5" y="-623.5" font-family="Helvetica,sans-Serif" font-size="10.00">lwip/dns.h</text>
</a>
</g>
</g>
<!-- Node0&#45;&gt;Node31 -->
<g id="edge54" class="edge"><title>Node0&#45;&gt;Node31</title>
<path fill="none" stroke="midnightblue" d="M405.486,-728.453C457.206,-705.739 558.388,-661.304 607.871,-639.573"/>
<polygon fill="midnightblue" stroke="midnightblue" points="609.3,-642.768 617.049,-635.542 606.485,-636.359 609.3,-642.768"/>
</g>
<!-- Node32 -->
<g id="node33" class="node"><title>Node32</title>
<g id="a_node33"><a xlink:href="tunif_8h.html" target="_top" xlink:title="netif/tunif.h">
<polygon fill="white" stroke="black" points="733,-672.5 733,-691.5 798,-691.5 798,-672.5 733,-672.5"/>
<text text-anchor="middle" x="765.5" y="-679.5" font-family="Helvetica,sans-Serif" font-size="10.00">netif/tunif.h</text>
</a>
</g>
</g>
<!-- Node0&#45;&gt;Node32 -->
<g id="edge56" class="edge"><title>Node0&#45;&gt;Node32</title>
<path fill="none" stroke="midnightblue" d="M422.211,-735.337C487.596,-725.687 607.35,-707.884 709.5,-692 713.888,-691.318 718.467,-690.597 723.035,-689.871"/>
<polygon fill="midnightblue" stroke="midnightblue" points="723.613,-693.324 732.936,-688.291 722.509,-686.411 723.613,-693.324"/>
</g>
<!-- Node6 -->
<g id="node7" class="node"><title>Node6</title>
<g id="a_node7"><a xlink:href="opt_8h.html" target="_top" xlink:title="lwip/opt.h">
<polygon fill="white" stroke="black" points="415,-448.5 415,-467.5 474,-467.5 474,-448.5 415,-448.5"/>
<text text-anchor="middle" x="444.5" y="-455.5" font-family="Helvetica,sans-Serif" font-size="10.00">lwip/opt.h</text>
</a>
</g>
</g>
<!-- Node5&#45;&gt;Node6 -->
<g id="edge6" class="edge"><title>Node5&#45;&gt;Node6</title>
<path fill="none" stroke="midnightblue" d="M228.374,-616.494C231.107,-594.429 241.519,-534.921 276.5,-504 312.172,-472.468 367.634,-462.708 404.975,-459.861"/>
<polygon fill="midnightblue" stroke="midnightblue" points="405.236,-463.352 414.995,-459.229 404.795,-456.366 405.236,-463.352"/>
</g>
<!-- Node20 -->
<g id="node21" class="node"><title>Node20</title>
<g id="a_node21"><a xlink:href="err_8h.html" target="_top" xlink:title="lwip/err.h">
<polygon fill="white" stroke="black" points="285.5,-504.5 285.5,-523.5 341.5,-523.5 341.5,-504.5 285.5,-504.5"/>
<text text-anchor="middle" x="313.5" y="-511.5" font-family="Helvetica,sans-Serif" font-size="10.00">lwip/err.h</text>
</a>
</g>
</g>
<!-- Node5&#45;&gt;Node20 -->
<g id="edge23" class="edge"><title>Node5&#45;&gt;Node20</title>
<path fill="none" stroke="midnightblue" d="M233.163,-616.367C241.569,-603.705 258.023,-579.486 273.5,-560 281.302,-550.178 290.578,-539.676 298.233,-531.291"/>
<polygon fill="midnightblue" stroke="midnightblue" points="301.018,-533.434 305.232,-523.713 295.876,-528.684 301.018,-533.434"/>
</g>
<!-- Node21 -->
<g id="node22" class="node"><title>Node21</title>
<g id="a_node22"><a xlink:href="esp-open-lwip_2include_2lwip_2ip__addr_8h.html" target="_top" xlink:title="lwip/ip_addr.h">
<polygon fill="white" stroke="black" points="68,-560.5 68,-579.5 145,-579.5 145,-560.5 68,-560.5"/>
<text text-anchor="middle" x="106.5" y="-567.5" font-family="Helvetica,sans-Serif" font-size="10.00">lwip/ip_addr.h</text>
</a>
</g>
</g>
<!-- Node5&#45;&gt;Node21 -->
<g id="edge26" class="edge"><title>Node5&#45;&gt;Node21</title>
<path fill="none" stroke="midnightblue" d="M208.327,-616.444C188.591,-607.636 157.615,-593.812 135.007,-583.722"/>
<polygon fill="midnightblue" stroke="midnightblue" points="136.141,-580.396 125.583,-579.516 133.289,-586.788 136.141,-580.396"/>
</g>
<!-- Node22 -->
<g id="node23" class="node"><title>Node22</title>
<g id="a_node23"><a xlink:href="def_8h.html" target="_top" xlink:title="lwip/def.h">
<polygon fill="white" stroke="black" points="86,-504.5 86,-523.5 145,-523.5 145,-504.5 86,-504.5"/>
<text text-anchor="middle" x="115.5" y="-511.5" font-family="Helvetica,sans-Serif" font-size="10.00">lwip/def.h</text>
</a>
</g>
</g>
<!-- Node5&#45;&gt;Node22 -->
<g id="edge31" class="edge"><title>Node5&#45;&gt;Node22</title>
<path fill="none" stroke="midnightblue" d="M218.712,-616.368C199.901,-597.894 155.507,-554.293 131.53,-530.744"/>
<polygon fill="midnightblue" stroke="midnightblue" points="133.835,-528.101 124.248,-523.591 128.93,-533.096 133.835,-528.101"/>
</g>
<!-- Node5&#45;&gt;Node23 -->
<g id="edge32" class="edge"><title>Node5&#45;&gt;Node23</title>
<path fill="none" stroke="midnightblue" d="M246.514,-616.444C266.088,-607.636 296.808,-593.812 319.229,-583.722"/>
<polygon fill="midnightblue" stroke="midnightblue" points="320.892,-586.812 328.575,-579.516 318.019,-580.428 320.892,-586.812"/>
</g>
<!-- Node7 -->
<g id="node8" class="node"><title>Node7</title>
<g id="a_node8"><a xlink:href="lwipopts_8h.html" target="_top" xlink:title="lwipopts.h">
<polygon fill="white" stroke="black" points="401,-336.5 401,-355.5 462,-355.5 462,-336.5 401,-336.5"/>
<text text-anchor="middle" x="431.5" y="-343.5" font-family="Helvetica,sans-Serif" font-size="10.00">lwipopts.h</text>
</a>
</g>
</g>
<!-- Node6&#45;&gt;Node7 -->
<g id="edge7" class="edge"><title>Node6&#45;&gt;Node7</title>
<path fill="none" stroke="midnightblue" d="M443.48,-448.368C441.382,-430.617 436.542,-389.666 433.698,-365.597"/>
<polygon fill="midnightblue" stroke="midnightblue" points="437.165,-365.112 432.515,-355.591 430.213,-365.933 437.165,-365.112"/>
</g>
<!-- Node8 -->
<g id="node9" class="node"><title>Node8</title>
<g id="a_node9"><a xlink:href="esp-open-sdk_2esp-open-lwip_2include_2lwip_2debug_8h.html" target="_top" xlink:title="lwip/debug.h">
<polygon fill="white" stroke="black" points="345,-392.5 345,-411.5 416,-411.5 416,-392.5 345,-392.5"/>
<text text-anchor="middle" x="380.5" y="-399.5" font-family="Helvetica,sans-Serif" font-size="10.00">lwip/debug.h</text>
</a>
</g>
</g>
<!-- Node6&#45;&gt;Node8 -->
<g id="edge8" class="edge"><title>Node6&#45;&gt;Node8</title>
<path fill="none" stroke="midnightblue" d="M434.217,-448.324C424.664,-440.263 410.22,-428.077 398.716,-418.369"/>
<polygon fill="midnightblue" stroke="midnightblue" points="400.87,-415.608 390.97,-411.834 396.356,-420.958 400.87,-415.608"/>
</g>
<!-- Node8&#45;&gt;Node7 -->
<g id="edge9" class="edge"><title>Node8&#45;&gt;Node7</title>
<path fill="none" stroke="midnightblue" d="M388.922,-392.083C396.348,-384.22 407.352,-372.569 416.312,-363.081"/>
<polygon fill="midnightblue" stroke="midnightblue" points="418.913,-365.424 423.235,-355.751 413.824,-360.618 418.913,-365.424"/>
</g>
<!-- Node9 -->
<g id="node10" class="node"><title>Node9</title>
<g id="a_node10"><a xlink:href="arch_8h.html" target="_top" xlink:title="lwip/arch.h">
<polygon fill="white" stroke="black" points="294.5,-336.5 294.5,-355.5 358.5,-355.5 358.5,-336.5 294.5,-336.5"/>
<text text-anchor="middle" x="326.5" y="-343.5" font-family="Helvetica,sans-Serif" font-size="10.00">lwip/arch.h</text>
</a>
</g>
</g>
<!-- Node8&#45;&gt;Node9 -->
<g id="edge10" class="edge"><title>Node8&#45;&gt;Node9</title>
<path fill="none" stroke="midnightblue" d="M371.583,-392.083C363.72,-384.22 352.069,-372.569 342.581,-363.081"/>
<polygon fill="midnightblue" stroke="midnightblue" points="344.797,-360.347 335.251,-355.751 339.847,-365.297 344.797,-360.347"/>
</g>
<!-- Node10 -->
<g id="node11" class="node"><title>Node10</title>
<g id="a_node11"><a xlink:href="cc_8h.html" target="_top" xlink:title="arch/cc.h">
<polygon fill="white" stroke="black" points="388,-280.5 388,-299.5 445,-299.5 445,-280.5 388,-280.5"/>
<text text-anchor="middle" x="416.5" y="-287.5" font-family="Helvetica,sans-Serif" font-size="10.00">arch/cc.h</text>
</a>
</g>
</g>
<!-- Node9&#45;&gt;Node10 -->
<g id="edge11" class="edge"><title>Node9&#45;&gt;Node10</title>
<path fill="none" stroke="midnightblue" d="M340.96,-336.324C355,-327.9 376.548,-314.971 393.043,-305.074"/>
<polygon fill="midnightblue" stroke="midnightblue" points="395.302,-307.801 402.076,-299.655 391.7,-301.798 395.302,-307.801"/>
</g>
<!-- Node11 -->
<g id="node12" class="node"><title>Node11</title>
<g id="a_node12"><a xlink:href="c__types_8h.html" target="_top" xlink:title="c_types.h">
<polygon fill="white" stroke="black" points="645,-56.5 645,-75.5 704,-75.5 704,-56.5 645,-56.5"/>
<text text-anchor="middle" x="674.5" y="-63.5" font-family="Helvetica,sans-Serif" font-size="10.00">c_types.h</text>
</a>
</g>
</g>
<!-- Node10&#45;&gt;Node11 -->
<g id="edge12" class="edge"><title>Node10&#45;&gt;Node11</title>
<path fill="none" stroke="midnightblue" d="M445.336,-284.232C493.247,-274.76 589.059,-248.972 640.5,-188 665.392,-158.496 672.117,-111.987 673.897,-86.0645"/>
<polygon fill="midnightblue" stroke="midnightblue" points="677.41,-85.9004 674.414,-75.7378 670.418,-85.5502 677.41,-85.9004"/>
</g>
<!-- Node14 -->
<g id="node15" class="node"><title>Node14</title>
<g id="a_node15"><a xlink:href="ets__sys_8h.html" target="_top" xlink:title="ets_sys.h">
<polygon fill="white" stroke="black" points="566,-112.5 566,-131.5 625,-131.5 625,-112.5 566,-112.5"/>
<text text-anchor="middle" x="595.5" y="-119.5" font-family="Helvetica,sans-Serif" font-size="10.00">ets_sys.h</text>
</a>
</g>
</g>
<!-- Node10&#45;&gt;Node14 -->
<g id="edge15" class="edge"><title>Node10&#45;&gt;Node14</title>
<path fill="none" stroke="midnightblue" d="M411.795,-280.232C400.878,-258.558 376.725,-201.776 403.5,-168 422.154,-144.469 505.392,-132.057 555.947,-126.575"/>
<polygon fill="midnightblue" stroke="midnightblue" points="556.315,-130.055 565.899,-125.539 555.59,-123.093 556.315,-130.055"/>
</g>
<!-- Node16 -->
<g id="node17" class="node"><title>Node16</title>
<g id="a_node17"><a xlink:href="osapi_8h.html" target="_top" xlink:title="osapi.h">
<polygon fill="white" stroke="black" points="465.5,-224.5 465.5,-243.5 513.5,-243.5 513.5,-224.5 465.5,-224.5"/>
<text text-anchor="middle" x="489.5" y="-231.5" font-family="Helvetica,sans-Serif" font-size="10.00">osapi.h</text>
</a>
</g>
</g>
<!-- Node10&#45;&gt;Node16 -->
<g id="edge18" class="edge"><title>Node10&#45;&gt;Node16</title>
<path fill="none" stroke="midnightblue" d="M428.229,-280.324C439.337,-272.107 456.242,-259.602 469.483,-249.807"/>
<polygon fill="midnightblue" stroke="midnightblue" points="471.6,-252.595 477.558,-243.834 467.437,-246.967 471.6,-252.595"/>
</g>
<!-- Node12 -->
<g id="node13" class="node"><title>Node12</title>
<polygon fill="white" stroke="#bfbfbf" points="615,-0.5 615,-19.5 664,-19.5 664,-0.5 615,-0.5"/>
<text text-anchor="middle" x="639.5" y="-7.5" font-family="Helvetica,sans-Serif" font-size="10.00">stdint.h</text>
</g>
<!-- Node11&#45;&gt;Node12 -->
<g id="edge13" class="edge"><title>Node11&#45;&gt;Node12</title>
<path fill="none" stroke="midnightblue" d="M668.72,-56.083C663.828,-48.5341 656.673,-37.4948 650.667,-28.2298"/>
<polygon fill="midnightblue" stroke="midnightblue" points="653.548,-26.239 645.172,-19.7511 647.674,-30.0463 653.548,-26.239"/>
</g>
<!-- Node13 -->
<g id="node14" class="node"><title>Node13</title>
<polygon fill="white" stroke="#bfbfbf" points="682.5,-0.5 682.5,-19.5 738.5,-19.5 738.5,-0.5 682.5,-0.5"/>
<text text-anchor="middle" x="710.5" y="-7.5" font-family="Helvetica,sans-Serif" font-size="10.00">stdbool.h</text>
</g>
<!-- Node11&#45;&gt;Node13 -->
<g id="edge14" class="edge"><title>Node11&#45;&gt;Node13</title>
<path fill="none" stroke="midnightblue" d="M680.445,-56.083C685.477,-48.5341 692.837,-37.4948 699.013,-28.2298"/>
<polygon fill="midnightblue" stroke="midnightblue" points="702.031,-30.0131 704.666,-19.7511 696.207,-26.1301 702.031,-30.0131"/>
</g>
<!-- Node14&#45;&gt;Node11 -->
<g id="edge16" class="edge"><title>Node14&#45;&gt;Node11</title>
<path fill="none" stroke="midnightblue" d="M608.193,-112.324C620.401,-103.979 639.078,-91.2122 653.503,-81.3524"/>
<polygon fill="midnightblue" stroke="midnightblue" points="655.558,-84.1871 661.839,-75.6545 651.608,-78.4082 655.558,-84.1871"/>
</g>
<!-- Node15 -->
<g id="node16" class="node"><title>Node15</title>
<g id="a_node16"><a xlink:href="eagle__soc_8h.html" target="_top" xlink:title="eagle_soc.h">
<polygon fill="white" stroke="black" points="558,-56.5 558,-75.5 627,-75.5 627,-56.5 558,-56.5"/>
<text text-anchor="middle" x="592.5" y="-63.5" font-family="Helvetica,sans-Serif" font-size="10.00">eagle_soc.h</text>
</a>
</g>
</g>
<!-- Node14&#45;&gt;Node15 -->
<g id="edge17" class="edge"><title>Node14&#45;&gt;Node15</title>
<path fill="none" stroke="midnightblue" d="M595.005,-112.083C594.611,-105.006 594.048,-94.8611 593.555,-85.9865"/>
<polygon fill="midnightblue" stroke="midnightblue" points="597.036,-85.5415 592.986,-75.7511 590.046,-85.9299 597.036,-85.5415"/>
</g>
<!-- Node17 -->
<g id="node18" class="node"><title>Node17</title>
<polygon fill="white" stroke="#bfbfbf" points="505,-168.5 505,-187.5 554,-187.5 554,-168.5 505,-168.5"/>
<text text-anchor="middle" x="529.5" y="-175.5" font-family="Helvetica,sans-Serif" font-size="10.00">string.h</text>
</g>
<!-- Node16&#45;&gt;Node17 -->
<g id="edge19" class="edge"><title>Node16&#45;&gt;Node17</title>
<path fill="none" stroke="midnightblue" d="M496.105,-224.083C501.755,-216.455 510.045,-205.264 516.951,-195.941"/>
<polygon fill="midnightblue" stroke="midnightblue" points="519.878,-197.87 523.018,-187.751 514.253,-193.703 519.878,-197.87"/>
</g>
<!-- Node18 -->
<g id="node19" class="node"><title>Node18</title>
<g id="a_node19"><a xlink:href="os__type_8h.html" target="_top" xlink:title="os_type.h">
<polygon fill="white" stroke="black" points="572,-168.5 572,-187.5 631,-187.5 631,-168.5 572,-168.5"/>
<text text-anchor="middle" x="601.5" y="-175.5" font-family="Helvetica,sans-Serif" font-size="10.00">os_type.h</text>
</a>
</g>
</g>
<!-- Node16&#45;&gt;Node18 -->
<g id="edge20" class="edge"><title>Node16&#45;&gt;Node18</title>
<path fill="none" stroke="midnightblue" d="M507.495,-224.324C525.538,-215.625 553.547,-202.12 574.303,-192.113"/>
<polygon fill="midnightblue" stroke="midnightblue" points="576.062,-195.15 583.55,-187.655 573.022,-188.845 576.062,-195.15"/>
</g>
<!-- Node19 -->
<g id="node20" class="node"><title>Node19</title>
<polygon fill="white" stroke="#bfbfbf" points="412,-168.5 412,-187.5 487,-187.5 487,-168.5 412,-168.5"/>
<text text-anchor="middle" x="449.5" y="-175.5" font-family="Helvetica,sans-Serif" font-size="10.00">user_config.h</text>
</g>
<!-- Node16&#45;&gt;Node19 -->
<g id="edge22" class="edge"><title>Node16&#45;&gt;Node19</title>
<path fill="none" stroke="midnightblue" d="M482.895,-224.083C477.245,-216.455 468.955,-205.264 462.049,-195.941"/>
<polygon fill="midnightblue" stroke="midnightblue" points="464.747,-193.703 455.982,-187.751 459.122,-197.87 464.747,-193.703"/>
</g>
<!-- Node18&#45;&gt;Node14 -->
<g id="edge21" class="edge"><title>Node18&#45;&gt;Node14</title>
<path fill="none" stroke="midnightblue" d="M600.509,-168.083C599.714,-160.927 598.571,-150.635 597.577,-141.691"/>
<polygon fill="midnightblue" stroke="midnightblue" points="601.055,-141.303 596.472,-131.751 594.098,-142.076 601.055,-141.303"/>
</g>
<!-- Node20&#45;&gt;Node6 -->
<g id="edge24" class="edge"><title>Node20&#45;&gt;Node6</title>
<path fill="none" stroke="midnightblue" d="M334.257,-504.444C355.816,-495.557 389.763,-481.563 414.294,-471.451"/>
<polygon fill="midnightblue" stroke="midnightblue" points="415.928,-474.563 423.84,-467.516 413.261,-468.092 415.928,-474.563"/>
</g>
<!-- Node20&#45;&gt;Node9 -->
<g id="edge25" class="edge"><title>Node20&#45;&gt;Node9</title>
<path fill="none" stroke="midnightblue" d="M314.199,-504.075C316.245,-477.945 322.255,-401.211 325.045,-365.577"/>
<polygon fill="midnightblue" stroke="midnightblue" points="328.537,-365.811 325.829,-355.568 321.559,-365.264 328.537,-365.811"/>
</g>
<!-- Node21&#45;&gt;Node6 -->
<g id="edge27" class="edge"><title>Node21&#45;&gt;Node6</title>
<path fill="none" stroke="midnightblue" d="M115.731,-560.234C131.274,-546.008 164.242,-518.07 197.5,-504 266.646,-474.747 354.564,-464.487 404.69,-460.905"/>
<polygon fill="midnightblue" stroke="midnightblue" points="405.045,-464.389 414.792,-460.237 404.583,-457.404 405.045,-464.389"/>
</g>
<!-- Node21&#45;&gt;Node22 -->
<g id="edge28" class="edge"><title>Node21&#45;&gt;Node22</title>
<path fill="none" stroke="midnightblue" d="M107.986,-560.083C109.179,-552.927 110.894,-542.635 112.385,-533.691"/>
<polygon fill="midnightblue" stroke="midnightblue" points="115.85,-534.19 114.041,-523.751 108.945,-533.04 115.85,-534.19"/>
</g>
<!-- Node22&#45;&gt;Node6 -->
<g id="edge30" class="edge"><title>Node22&#45;&gt;Node6</title>
<path fill="none" stroke="midnightblue" d="M145.287,-506.718C150.034,-505.771 154.897,-504.834 159.5,-504 246.786,-488.19 349.689,-472.72 404.835,-464.685"/>
<polygon fill="midnightblue" stroke="midnightblue" points="405.492,-468.126 414.885,-463.226 404.486,-461.199 405.492,-468.126"/>
</g>
<!-- Node22&#45;&gt;Node9 -->
<g id="edge29" class="edge"><title>Node22&#45;&gt;Node9</title>
<path fill="none" stroke="midnightblue" d="M126.547,-504.309C160.659,-477.472 264.606,-395.694 307.589,-361.878"/>
<polygon fill="midnightblue" stroke="midnightblue" points="309.867,-364.539 315.562,-355.605 305.539,-359.038 309.867,-364.539"/>
</g>
<!-- Node23&#45;&gt;Node6 -->
<g id="edge33" class="edge"><title>Node23&#45;&gt;Node6</title>
<path fill="none" stroke="midnightblue" d="M352.859,-560.11C360.885,-547.127 376.871,-522.513 393.5,-504 403.24,-493.157 415.444,-482.308 425.472,-473.98"/>
<polygon fill="midnightblue" stroke="midnightblue" points="427.729,-476.656 433.282,-467.633 423.314,-471.224 427.729,-476.656"/>
</g>
<!-- Node23&#45;&gt;Node20 -->
<g id="edge34" class="edge"><title>Node23&#45;&gt;Node20</title>
<path fill="none" stroke="midnightblue" d="M341.886,-560.083C337.133,-552.534 330.182,-541.495 324.348,-532.23"/>
<polygon fill="midnightblue" stroke="midnightblue" points="327.3,-530.349 319.01,-523.751 321.376,-534.078 327.3,-530.349"/>
</g>
<!-- Node24&#45;&gt;Node6 -->
<g id="edge37" class="edge"><title>Node24&#45;&gt;Node6</title>
<path fill="none" stroke="midnightblue" d="M642.649,-560.449C619.292,-547.887 574.207,-523.794 535.5,-504 514.183,-493.099 489.866,-481.096 471.735,-472.23"/>
<polygon fill="midnightblue" stroke="midnightblue" points="472.879,-468.894 462.357,-467.654 469.809,-475.185 472.879,-468.894"/>
</g>
<!-- Node25 -->
<g id="node26" class="node"><title>Node25</title>
<g id="a_node26"><a xlink:href="esp-open-lwip_2include_2lwip_2mem_8h.html" target="_top" xlink:title="lwip/mem.h">
<polygon fill="white" stroke="black" points="588,-504.5 588,-523.5 655,-523.5 655,-504.5 588,-504.5"/>
<text text-anchor="middle" x="621.5" y="-511.5" font-family="Helvetica,sans-Serif" font-size="10.00">lwip/mem.h</text>
</a>
</g>
</g>
<!-- Node24&#45;&gt;Node25 -->
<g id="edge38" class="edge"><title>Node24&#45;&gt;Node25</title>
<path fill="none" stroke="midnightblue" d="M652.39,-560.083C647.218,-552.534 639.654,-541.495 633.306,-532.23"/>
<polygon fill="midnightblue" stroke="midnightblue" points="636.036,-530.022 627.496,-523.751 630.261,-533.979 636.036,-530.022"/>
</g>
<!-- Node26 -->
<g id="node27" class="node"><title>Node26</title>
<g id="a_node27"><a xlink:href="memp_8h.html" target="_top" xlink:title="lwip/memp.h">
<polygon fill="white" stroke="black" points="673.5,-504.5 673.5,-523.5 745.5,-523.5 745.5,-504.5 673.5,-504.5"/>
<text text-anchor="middle" x="709.5" y="-511.5" font-family="Helvetica,sans-Serif" font-size="10.00">lwip/memp.h</text>
</a>
</g>
</g>
<!-- Node24&#45;&gt;Node26 -->
<g id="edge40" class="edge"><title>Node24&#45;&gt;Node26</title>
<path fill="none" stroke="midnightblue" d="M666.922,-560.083C674.348,-552.22 685.352,-540.569 694.312,-531.081"/>
<polygon fill="midnightblue" stroke="midnightblue" points="696.913,-533.424 701.235,-523.751 691.824,-528.618 696.913,-533.424"/>
</g>
<!-- Node25&#45;&gt;Node6 -->
<g id="edge39" class="edge"><title>Node25&#45;&gt;Node6</title>
<path fill="none" stroke="midnightblue" d="M593.454,-504.444C563.418,-495.28 515.587,-480.688 482.257,-470.519"/>
<polygon fill="midnightblue" stroke="midnightblue" points="483.001,-467.087 472.415,-467.516 480.958,-473.782 483.001,-467.087"/>
</g>
<!-- Node26&#45;&gt;Node6 -->
<g id="edge41" class="edge"><title>Node26&#45;&gt;Node6</title>
<path fill="none" stroke="midnightblue" d="M673.485,-505.661C624.102,-495.598 535.665,-477.577 484.349,-467.12"/>
<polygon fill="midnightblue" stroke="midnightblue" points="484.794,-463.639 474.296,-465.072 483.396,-470.498 484.794,-463.639"/>
</g>
<!-- Node27 -->
<g id="node28" class="node"><title>Node27</title>
<g id="a_node28"><a xlink:href="memp__std_8h.html" target="_top" xlink:title="lwip/memp_std.h">
<polygon fill="white" stroke="black" points="664,-448.5 664,-467.5 755,-467.5 755,-448.5 664,-448.5"/>
<text text-anchor="middle" x="709.5" y="-455.5" font-family="Helvetica,sans-Serif" font-size="10.00">lwip/memp_std.h</text>
</a>
</g>
</g>
<!-- Node26&#45;&gt;Node27 -->
<g id="edge42" class="edge"><title>Node26&#45;&gt;Node27</title>
<path fill="none" stroke="midnightblue" d="M709.5,-504.083C709.5,-497.006 709.5,-486.861 709.5,-477.986"/>
<polygon fill="midnightblue" stroke="midnightblue" points="713,-477.751 709.5,-467.751 706,-477.751 713,-477.751"/>
</g>
<!-- Node28&#45;&gt;Node5 -->
<g id="edge49" class="edge"><title>Node28&#45;&gt;Node5</title>
<path fill="none" stroke="midnightblue" d="M327.644,-672.444C308.234,-663.636 277.77,-649.812 255.535,-639.722"/>
<polygon fill="midnightblue" stroke="midnightblue" points="256.82,-636.462 246.268,-635.516 253.928,-642.836 256.82,-636.462"/>
</g>
<!-- Node28&#45;&gt;Node6 -->
<g id="edge44" class="edge"><title>Node28&#45;&gt;Node6</title>
<path fill="none" stroke="midnightblue" d="M350.342,-672.297C364.853,-639.425 416.517,-522.391 436.514,-477.09"/>
<polygon fill="midnightblue" stroke="midnightblue" points="439.742,-478.446 440.578,-467.884 433.338,-475.619 439.742,-478.446"/>
</g>
<!-- Node28&#45;&gt;Node20 -->
<g id="edge48" class="edge"><title>Node28&#45;&gt;Node20</title>
<path fill="none" stroke="midnightblue" d="M341.805,-672.421C332.793,-655.41 313.358,-615.94 306.5,-580 303.571,-564.651 305.817,-547.012 308.519,-533.986"/>
<polygon fill="midnightblue" stroke="midnightblue" points="312.009,-534.435 310.892,-523.899 305.195,-532.831 312.009,-534.435"/>
</g>
<!-- Node28&#45;&gt;Node21 -->
<g id="edge47" class="edge"><title>Node28&#45;&gt;Node21</title>
<path fill="none" stroke="midnightblue" d="M319.784,-676.922C286.98,-671.158 230.307,-658.709 186.5,-636 161.834,-623.214 137.663,-602.031 122.459,-587.337"/>
<polygon fill="midnightblue" stroke="midnightblue" points="124.555,-584.488 114.988,-579.937 119.629,-589.461 124.555,-584.488"/>
</g>
<!-- Node28&#45;&gt;Node22 -->
<g id="edge45" class="edge"><title>Node28&#45;&gt;Node22</title>
<path fill="none" stroke="midnightblue" d="M319.835,-677.565C281.519,-672.03 209.153,-659.322 151.5,-636 106.773,-617.907 82.2387,-622.004 58.5,-580 47.2932,-560.17 69.404,-541.009 89.2691,-528.692"/>
<polygon fill="midnightblue" stroke="midnightblue" points="91.2348,-531.597 98.1105,-523.536 87.7088,-525.55 91.2348,-531.597"/>
</g>
<!-- Node28&#45;&gt;Node23 -->
<g id="edge46" class="edge"><title>Node28&#45;&gt;Node23</title>
<path fill="none" stroke="midnightblue" d="M346.578,-672.368C346.74,-654.617 347.112,-613.666 347.331,-589.597"/>
<polygon fill="midnightblue" stroke="midnightblue" points="350.831,-589.623 347.422,-579.591 343.831,-589.559 350.831,-589.623"/>
</g>
<!-- Node29&#45;&gt;Node6 -->
<g id="edge51" class="edge"><title>Node29&#45;&gt;Node6</title>
<path fill="none" stroke="midnightblue" d="M457.747,-616.075C455.544,-589.945 449.072,-513.211 446.067,-477.577"/>
<polygon fill="midnightblue" stroke="midnightblue" points="449.551,-477.239 445.223,-467.568 442.575,-477.827 449.551,-477.239"/>
</g>
<!-- Node30&#45;&gt;Node6 -->
<g id="edge53" class="edge"><title>Node30&#45;&gt;Node6</title>
<path fill="none" stroke="midnightblue" d="M537.767,-616.204C529.387,-607.484 516.684,-593.508 507.5,-580 484.07,-545.536 463.085,-501.283 452.253,-476.981"/>
<polygon fill="midnightblue" stroke="midnightblue" points="455.36,-475.35 448.137,-467.599 448.95,-478.163 455.36,-475.35"/>
</g>
<!-- Node31&#45;&gt;Node6 -->
<g id="edge55" class="edge"><title>Node31&#45;&gt;Node6</title>
<path fill="none" stroke="midnightblue" d="M626.448,-616.309C595.602,-589.64 502.003,-508.716 462.449,-474.519"/>
<polygon fill="midnightblue" stroke="midnightblue" points="464.307,-471.498 454.453,-467.605 459.729,-476.793 464.307,-471.498"/>
</g>
<!-- Node32&#45;&gt;Node5 -->
<g id="edge59" class="edge"><title>Node32&#45;&gt;Node5</title>
<path fill="none" stroke="midnightblue" d="M732.656,-677.703C639.467,-668.35 373.448,-641.649 269.679,-631.234"/>
<polygon fill="midnightblue" stroke="midnightblue" points="269.875,-627.736 259.575,-630.219 269.176,-634.701 269.875,-627.736"/>
</g>
<!-- Node32&#45;&gt;Node6 -->
<g id="edge58" class="edge"><title>Node32&#45;&gt;Node6</title>
<path fill="none" stroke="midnightblue" d="M768.313,-672.184C776.834,-643.588 799.138,-552.462 754.5,-504 718.783,-465.223 559.358,-459.371 484.091,-458.813"/>
<polygon fill="midnightblue" stroke="midnightblue" points="484.067,-455.313 474.051,-458.767 484.035,-462.313 484.067,-455.313"/>
</g>
<!-- Node32&#45;&gt;Node11 -->
<g id="edge57" class="edge"><title>Node32&#45;&gt;Node11</title>
<path fill="none" stroke="midnightblue" d="M771.896,-672.391C784.536,-654.498 811.5,-611.572 811.5,-571 811.5,-571 811.5,-571 811.5,-177 811.5,-125.995 753.051,-94.6906 712.507,-79.1111"/>
<polygon fill="midnightblue" stroke="midnightblue" points="713.48,-75.7399 702.886,-75.5759 711.066,-82.3103 713.48,-75.7399"/>
</g>
</g>
</svg>
