<?xml version="1.0" encoding="UTF-8" standalone="no"?>
<!DOCTYPE svg PUBLIC "-//W3C//DTD SVG 1.1//EN"
 "http://www.w3.org/Graphics/SVG/1.1/DTD/svg11.dtd">
<!-- Generated by graphviz version 2.38.0 (20140413.2041)
 -->
<!-- Title: uart0_rx_intr_handler Pages: 1 -->
<svg width="404pt" height="142pt"
 viewBox="0.00 0.00 404.00 142.00" xmlns="http://www.w3.org/2000/svg" xmlns:xlink="http://www.w3.org/1999/xlink">
<g id="graph0" class="graph" transform="scale(1 1) rotate(0) translate(4 138)">
<title>uart0_rx_intr_handler</title>
<polygon fill="white" stroke="none" points="-4,4 -4,-138 400,-138 400,4 -4,4"/>
<!-- Node0 -->
<g id="node1" class="node"><title>Node0</title>
<polygon fill="#bfbfbf" stroke="black" points="0,-57.5 0,-76.5 107,-76.5 107,-57.5 0,-57.5"/>
<text text-anchor="middle" x="53.5" y="-64.5" font-family="Helvetica,sans-Serif" font-size="10.00">uart0_rx_intr_handler</text>
</g>
<!-- Node1 -->
<g id="node2" class="node"><title>Node1</title>
<g id="a_node2"><a xlink:href="en61107__request_8c.html#ad614196da23286f90ffe16126e2b254e" target="_top" xlink:title="en61107_fifo_put">
<polygon fill="white" stroke="black" points="153,-114.5 153,-133.5 244,-133.5 244,-114.5 153,-114.5"/>
<text text-anchor="middle" x="198.5" y="-121.5" font-family="Helvetica,sans-Serif" font-size="10.00">en61107_fifo_put</text>
</a>
</g>
</g>
<!-- Node0&#45;&gt;Node1 -->
<g id="edge1" class="edge"><title>Node0&#45;&gt;Node1</title>
<path fill="none" stroke="midnightblue" d="M75.7866,-76.6382C93.6061,-84.5859 119.776,-95.9787 143,-105 148.196,-107.018 153.706,-109.056 159.15,-111.011"/>
<polygon fill="midnightblue" stroke="midnightblue" points="158.199,-114.387 168.794,-114.415 160.529,-107.786 158.199,-114.387"/>
</g>
<!-- Node3 -->
<g id="node4" class="node"><title>Node3</title>
<g id="a_node4"><a xlink:href="en61107__request_8c.html#a55f8feefc9d9579a91b4303e5f9950f2" target="_top" xlink:title="en61107_is_eod_char">
<polygon fill="white" stroke="black" points="143,-76.5 143,-95.5 254,-95.5 254,-76.5 143,-76.5"/>
<text text-anchor="middle" x="198.5" y="-83.5" font-family="Helvetica,sans-Serif" font-size="10.00">en61107_is_eod_char</text>
</a>
</g>
</g>
<!-- Node0&#45;&gt;Node3 -->
<g id="edge3" class="edge"><title>Node0&#45;&gt;Node3</title>
<path fill="none" stroke="midnightblue" d="M107.342,-74.0209C115.691,-75.1302 124.404,-76.288 132.983,-77.4278"/>
<polygon fill="midnightblue" stroke="midnightblue" points="132.587,-80.9059 142.961,-78.7536 133.509,-73.9669 132.587,-80.9059"/>
</g>
<!-- Node4 -->
<g id="node5" class="node"><title>Node4</title>
<g id="a_node5"><a xlink:href="kmp__request_8c.html#a3a189e5f8a1ffa68dacbe1a0e7080c65" target="_top" xlink:title="kmp_fifo_put">
<polygon fill="white" stroke="black" points="162,-38.5 162,-57.5 235,-57.5 235,-38.5 162,-38.5"/>
<text text-anchor="middle" x="198.5" y="-45.5" font-family="Helvetica,sans-Serif" font-size="10.00">kmp_fifo_put</text>
</a>
</g>
</g>
<!-- Node0&#45;&gt;Node4 -->
<g id="edge4" class="edge"><title>Node0&#45;&gt;Node4</title>
<path fill="none" stroke="midnightblue" d="M107.342,-59.9791C121.939,-58.0396 137.651,-55.9519 151.805,-54.0713"/>
<polygon fill="midnightblue" stroke="midnightblue" points="152.346,-57.5303 161.798,-52.7436 151.424,-50.5913 152.346,-57.5303"/>
</g>
<!-- Node6 -->
<g id="node7" class="node"><title>Node6</title>
<g id="a_node7"><a xlink:href="user__interface_8h.html#adab1155f3a463f2b05a9bde65b37514f" target="_top" xlink:title="system_os_post">
<polygon fill="white" stroke="black" points="154,-0.5 154,-19.5 243,-19.5 243,-0.5 154,-0.5"/>
<text text-anchor="middle" x="198.5" y="-7.5" font-family="Helvetica,sans-Serif" font-size="10.00">system_os_post</text>
</a>
</g>
</g>
<!-- Node0&#45;&gt;Node6 -->
<g id="edge6" class="edge"><title>Node0&#45;&gt;Node6</title>
<path fill="none" stroke="midnightblue" d="M75.7866,-57.3618C93.6061,-49.4141 119.776,-38.0213 143,-29 148.196,-26.9818 153.706,-24.9436 159.15,-22.9893"/>
<polygon fill="midnightblue" stroke="midnightblue" points="160.529,-26.2142 168.794,-19.5849 158.199,-19.6134 160.529,-26.2142"/>
</g>
<!-- Node2 -->
<g id="node3" class="node"><title>Node2</title>
<g id="a_node3"><a xlink:href="en61107__request_8c.html#a9984f86f367d70ca77edce2accd01c64" target="_top" xlink:title="en61107_fifo_in_use">
<polygon fill="white" stroke="black" points="290,-114.5 290,-133.5 396,-133.5 396,-114.5 290,-114.5"/>
<text text-anchor="middle" x="343" y="-121.5" font-family="Helvetica,sans-Serif" font-size="10.00">en61107_fifo_in_use</text>
</a>
</g>
</g>
<!-- Node1&#45;&gt;Node2 -->
<g id="edge2" class="edge"><title>Node1&#45;&gt;Node2</title>
<path fill="none" stroke="midnightblue" d="M244.197,-124C255.434,-124 267.699,-124 279.628,-124"/>
<polygon fill="midnightblue" stroke="midnightblue" points="279.989,-127.5 289.989,-124 279.989,-120.5 279.989,-127.5"/>
</g>
<!-- Node5 -->
<g id="node6" class="node"><title>Node5</title>
<g id="a_node6"><a xlink:href="kmp__request_8c.html#a50794131d44d1f5c42484104202be6df" target="_top" xlink:title="kmp_fifo_in_use">
<polygon fill="white" stroke="black" points="299,-38.5 299,-57.5 387,-57.5 387,-38.5 299,-38.5"/>
<text text-anchor="middle" x="343" y="-45.5" font-family="Helvetica,sans-Serif" font-size="10.00">kmp_fifo_in_use</text>
</a>
</g>
</g>
<!-- Node4&#45;&gt;Node5 -->
<g id="edge5" class="edge"><title>Node4&#45;&gt;Node5</title>
<path fill="none" stroke="midnightblue" d="M235.091,-48C251.361,-48 270.973,-48 288.934,-48"/>
<polygon fill="midnightblue" stroke="midnightblue" points="288.994,-51.5001 298.994,-48 288.994,-44.5001 288.994,-51.5001"/>
</g>
</g>
</svg>
