<?xml version="1.0" encoding="UTF-8" standalone="no"?>
<!DOCTYPE svg PUBLIC "-//W3C//DTD SVG 1.1//EN"
 "http://www.w3.org/Graphics/SVG/1.1/DTD/svg11.dtd">
<!-- Generated by graphviz version 2.38.0 (20140413.2041)
 -->
<!-- Title: uart_set_word_length Pages: 1 -->
<svg width="1089pt" height="197pt"
 viewBox="0.00 0.00 1089.00 197.14" xmlns="http://www.w3.org/2000/svg" xmlns:xlink="http://www.w3.org/1999/xlink">
<g id="graph0" class="graph" transform="scale(1 1) rotate(0) translate(4 193.143)">
<title>uart_set_word_length</title>
<polygon fill="white" stroke="none" points="-4,4 -4,-193.143 1085,-193.143 1085,4 -4,4"/>
<!-- Node74 -->
<g id="node1" class="node"><title>Node74</title>
<polygon fill="#bfbfbf" stroke="black" points="0,-61.8936 0,-80.8936 110,-80.8936 110,-61.8936 0,-61.8936"/>
<text text-anchor="middle" x="55" y="-68.8936" font-family="Helvetica,sans-Serif" font-size="10.00">uart_set_word_length</text>
</g>
<!-- Node75 -->
<g id="node2" class="node"><title>Node75</title>
<g id="a_node2"><a xlink:href="en61107__request_8h.html#a8b6b61143d95d3af3813f8be1aaf3447" target="_top" xlink:title="en61107_uart_send_en61107">
<polygon fill="white" stroke="black" points="637.5,-154.894 637.5,-173.894 780.5,-173.894 780.5,-154.894 637.5,-154.894"/>
<text text-anchor="middle" x="709" y="-161.894" font-family="Helvetica,sans-Serif" font-size="10.00">en61107_uart_send_en61107</text>
</a>
</g>
</g>
<!-- Node74&#45;&gt;Node75 -->
<g id="edge1" class="edge"><title>Node74&#45;&gt;Node75</title>
<path fill="none" stroke="midnightblue" d="M73.308,-87.9854C90.3802,-103.346 117.926,-125.544 146,-137.394 318.563,-210.23 547.921,-189.102 652.178,-173.909"/>
<polygon fill="midnightblue" stroke="midnightblue" points="75.5352,-85.2782 65.8121,-81.0695 70.7885,-90.423 75.5352,-85.2782"/>
</g>
<!-- Node78 -->
<g id="node5" class="node"><title>Node78</title>
<g id="a_node5"><a xlink:href="en61107__request_8h.html#a353102f2f89ad4ed996501752c0ac59c" target="_top" xlink:title="en61107_uart_send_en61107\l_ident">
<polygon fill="white" stroke="black" points="146,-56.3936 146,-86.3936 289,-86.3936 289,-56.3936 146,-56.3936"/>
<text text-anchor="start" x="154" y="-74.3936" font-family="Helvetica,sans-Serif" font-size="10.00">en61107_uart_send_en61107</text>
<text text-anchor="middle" x="217.5" y="-63.3936" font-family="Helvetica,sans-Serif" font-size="10.00">_ident</text>
</a>
</g>
</g>
<!-- Node74&#45;&gt;Node78 -->
<g id="edge4" class="edge"><title>Node74&#45;&gt;Node78</title>
<path fill="none" stroke="midnightblue" d="M120.365,-71.3936C128.704,-71.3936 137.28,-71.3936 145.715,-71.3936"/>
<polygon fill="midnightblue" stroke="midnightblue" points="120.338,-67.8937 110.338,-71.3936 120.338,-74.8937 120.338,-67.8937"/>
</g>
<!-- Node80 -->
<g id="node7" class="node"><title>Node80</title>
<g id="a_node7"><a xlink:href="en61107__request_8h.html#afdb1795bdd4212fc7e028a9e5668fab4" target="_top" xlink:title="en61107_uart_send_standard\l_data_1">
<polygon fill="white" stroke="black" points="637,-105.394 637,-135.394 781,-135.394 781,-105.394 637,-105.394"/>
<text text-anchor="start" x="645" y="-123.394" font-family="Helvetica,sans-Serif" font-size="10.00">en61107_uart_send_standard</text>
<text text-anchor="middle" x="709" y="-112.394" font-family="Helvetica,sans-Serif" font-size="10.00">_data_1</text>
</a>
</g>
</g>
<!-- Node74&#45;&gt;Node80 -->
<g id="edge21" class="edge"><title>Node74&#45;&gt;Node80</title>
<path fill="none" stroke="midnightblue" d="M90.1531,-84.5111C140.597,-103.112 238.41,-136.245 325,-148.394 446.497,-165.44 479.212,-158.215 601,-143.394 616.184,-141.546 632.398,-138.586 647.494,-135.396"/>
<polygon fill="midnightblue" stroke="midnightblue" points="91.3059,-81.2056 80.7132,-80.9951 88.8626,-87.7654 91.3059,-81.2056"/>
</g>
<!-- Node81 -->
<g id="node8" class="node"><title>Node81</title>
<g id="a_node8"><a xlink:href="en61107__request_8h.html#a10b80328698f459ae2251fe146cdc375" target="_top" xlink:title="en61107_uart_send_standard\l_data_2">
<polygon fill="white" stroke="black" points="637,-56.3936 637,-86.3936 781,-86.3936 781,-56.3936 637,-56.3936"/>
<text text-anchor="start" x="645" y="-74.3936" font-family="Helvetica,sans-Serif" font-size="10.00">en61107_uart_send_standard</text>
<text text-anchor="middle" x="709" y="-63.3936" font-family="Helvetica,sans-Serif" font-size="10.00">_data_2</text>
</a>
</g>
</g>
<!-- Node74&#45;&gt;Node81 -->
<g id="edge22" class="edge"><title>Node74&#45;&gt;Node81</title>
<path fill="none" stroke="midnightblue" d="M92.76,-58.7537C108.886,-53.8449 128.17,-48.8241 146,-46.3936 346.369,-19.0816 400.108,-23.2368 601,-46.3936 618.625,-48.4252 637.565,-52.2801 654.539,-56.3654"/>
<polygon fill="midnightblue" stroke="midnightblue" points="91.6569,-55.4316 83.1683,-61.7715 93.7578,-62.1089 91.6569,-55.4316"/>
</g>
<!-- Node82 -->
<g id="node9" class="node"><title>Node82</title>
<g id="a_node9"><a xlink:href="en61107__request_8h.html#a74c2d949e6bb3b65cdf794a0643dd67d" target="_top" xlink:title="en61107_uart_send_inst\l_values">
<polygon fill="white" stroke="black" points="648,-7.39365 648,-37.3936 770,-37.3936 770,-7.39365 648,-7.39365"/>
<text text-anchor="start" x="656" y="-25.3936" font-family="Helvetica,sans-Serif" font-size="10.00">en61107_uart_send_inst</text>
<text text-anchor="middle" x="709" y="-14.3936" font-family="Helvetica,sans-Serif" font-size="10.00">_values</text>
</a>
</g>
</g>
<!-- Node74&#45;&gt;Node82 -->
<g id="edge20" class="edge"><title>Node74&#45;&gt;Node82</title>
<path fill="none" stroke="midnightblue" d="M79.4533,-56.3655C97.0097,-46.0235 122.028,-33.1518 146,-27.3936 324.364,15.4503 543.846,-1.93625 647.861,-14.1958"/>
<polygon fill="midnightblue" stroke="midnightblue" points="77.2521,-53.6074 70.5214,-61.7897 80.8855,-59.5906 77.2521,-53.6074"/>
</g>
<!-- Node76 -->
<g id="node3" class="node"><title>Node76</title>
<g id="a_node3"><a xlink:href="en61107__request_8c.html#aa3b162cf5364986ea19e831ac2b18f76" target="_top" xlink:title="en61107_received_task">
<polygon fill="white" stroke="black" points="817,-85.8936 817,-104.894 936,-104.894 936,-85.8936 817,-85.8936"/>
<text text-anchor="middle" x="876.5" y="-92.8936" font-family="Helvetica,sans-Serif" font-size="10.00">en61107_received_task</text>
</a>
</g>
</g>
<!-- Node75&#45;&gt;Node76 -->
<g id="edge2" class="edge"><title>Node75&#45;&gt;Node76</title>
<path fill="none" stroke="midnightblue" d="M759.417,-151.879C766.735,-149.622 774.122,-147.112 781,-144.394 809.701,-133.047 841.171,-115.652 859.583,-104.929"/>
<polygon fill="midnightblue" stroke="midnightblue" points="758.136,-148.608 749.536,-154.796 760.118,-155.322 758.136,-148.608"/>
</g>
<!-- Node77 -->
<g id="node4" class="node"><title>Node77</title>
<g id="a_node4"><a xlink:href="en61107__request_8h.html#acd43242675a3f25e7c3b530eac9d8b3a" target="_top" xlink:title="en61107_request_init">
<polygon fill="white" stroke="black" points="972,-85.8936 972,-104.894 1081,-104.894 1081,-85.8936 972,-85.8936"/>
<text text-anchor="middle" x="1026.5" y="-92.8936" font-family="Helvetica,sans-Serif" font-size="10.00">en61107_request_init</text>
</a>
</g>
</g>
<!-- Node76&#45;&gt;Node77 -->
<g id="edge3" class="edge"><title>Node76&#45;&gt;Node77</title>
<path fill="none" stroke="midnightblue" d="M946.585,-95.3936C954.979,-95.3936 963.456,-95.3936 971.584,-95.3936"/>
<polygon fill="midnightblue" stroke="midnightblue" points="946.419,-91.8937 936.419,-95.3936 946.419,-98.8937 946.419,-91.8937"/>
</g>
<!-- Node79 -->
<g id="node6" class="node"><title>Node79</title>
<g id="a_node6"><a xlink:href="en61107__request_8h.html#a22f1fee248eec0eeacf220c69b878a28" target="_top" xlink:title="en61107_receive_timeout\l_timer_func">
<polygon fill="white" stroke="black" points="473,-56.3936 473,-86.3936 601,-86.3936 601,-56.3936 473,-56.3936"/>
<text text-anchor="start" x="481" y="-74.3936" font-family="Helvetica,sans-Serif" font-size="10.00">en61107_receive_timeout</text>
<text text-anchor="middle" x="537" y="-63.3936" font-family="Helvetica,sans-Serif" font-size="10.00">_timer_func</text>
</a>
</g>
</g>
<!-- Node78&#45;&gt;Node79 -->
<g id="edge5" class="edge"><title>Node78&#45;&gt;Node79</title>
<path fill="none" stroke="midnightblue" d="M299.567,-65.4205C353.438,-64.2496 423.149,-64.4023 472.889,-65.8785"/>
<polygon fill="midnightblue" stroke="midnightblue" points="299.272,-61.9264 289.358,-65.6633 299.438,-68.9244 299.272,-61.9264"/>
</g>
<!-- Node83 -->
<g id="node10" class="node"><title>Node83</title>
<g id="a_node10"><a xlink:href="en61107__request_8h.html#a2fa4e9967afddae0c1dedbc914dcee36" target="_top" xlink:title="en61107_meter_wake\l_up_timer_func">
<polygon fill="white" stroke="black" points="325,-109.394 325,-139.394 437,-139.394 437,-109.394 325,-109.394"/>
<text text-anchor="start" x="333" y="-127.394" font-family="Helvetica,sans-Serif" font-size="10.00">en61107_meter_wake</text>
<text text-anchor="middle" x="381" y="-116.394" font-family="Helvetica,sans-Serif" font-size="10.00">_up_timer_func</text>
</a>
</g>
</g>
<!-- Node78&#45;&gt;Node83 -->
<g id="edge17" class="edge"><title>Node78&#45;&gt;Node83</title>
<path fill="none" stroke="midnightblue" d="M274.048,-89.6229C293.606,-96.0416 315.358,-103.18 334.038,-109.31"/>
<polygon fill="midnightblue" stroke="midnightblue" points="274.94,-86.2322 264.347,-86.4396 272.758,-92.8832 274.94,-86.2322"/>
</g>
<!-- Node79&#45;&gt;Node75 -->
<g id="edge7" class="edge"><title>Node79&#45;&gt;Node75</title>
<path fill="none" stroke="midnightblue" d="M579.858,-91.4488C587.174,-95.6537 594.511,-100.356 601,-105.394 619.633,-119.859 616.889,-132.064 637,-144.394 644.096,-148.744 652.167,-152.175 660.258,-154.872"/>
<polygon fill="midnightblue" stroke="midnightblue" points="581.119,-88.148 570.669,-86.401 577.748,-94.2833 581.119,-88.148"/>
</g>
<!-- Node79&#45;&gt;Node78 -->
<g id="edge6" class="edge"><title>Node79&#45;&gt;Node78</title>
<path fill="none" stroke="midnightblue" d="M462.707,-77.1858C410.576,-78.4832 340.931,-78.4626 289.358,-77.124"/>
<polygon fill="midnightblue" stroke="midnightblue" points="462.988,-80.6796 472.889,-76.9088 462.797,-73.6822 462.988,-80.6796"/>
</g>
<!-- Node79&#45;&gt;Node80 -->
<g id="edge8" class="edge"><title>Node79&#45;&gt;Node80</title>
<path fill="none" stroke="midnightblue" d="M611.052,-85.7595C633.225,-91.9278 656.504,-99.0385 674.692,-105.305"/>
<polygon fill="midnightblue" stroke="midnightblue" points="611.871,-82.3549 601.302,-83.0888 610.022,-89.1063 611.871,-82.3549"/>
</g>
<!-- Node79&#45;&gt;Node81 -->
<g id="edge11" class="edge"><title>Node79&#45;&gt;Node81</title>
<path fill="none" stroke="midnightblue" d="M611.493,-64.6989C619.93,-64.6174 628.52,-64.626 636.924,-64.7248"/>
<polygon fill="midnightblue" stroke="midnightblue" points="611.251,-61.2019 601.302,-64.8431 611.35,-68.2012 611.251,-61.2019"/>
</g>
<!-- Node79&#45;&gt;Node82 -->
<g id="edge14" class="edge"><title>Node79&#45;&gt;Node82</title>
<path fill="none" stroke="midnightblue" d="M580.758,-53.1228C601.029,-46.4395 625.597,-39.1769 647.719,-33.279"/>
<polygon fill="midnightblue" stroke="midnightblue" points="579.541,-49.8394 571.181,-56.3487 581.775,-56.4732 579.541,-49.8394"/>
</g>
<!-- Node80&#45;&gt;Node76 -->
<g id="edge10" class="edge"><title>Node80&#45;&gt;Node76</title>
<path fill="none" stroke="midnightblue" d="M791.256,-108.119C799.894,-106.814 808.554,-105.506 816.86,-104.252"/>
<polygon fill="midnightblue" stroke="midnightblue" points="790.512,-104.692 781.147,-109.646 791.558,-111.613 790.512,-104.692"/>
</g>
<!-- Node80&#45;&gt;Node79 -->
<g id="edge9" class="edge"><title>Node80&#45;&gt;Node79</title>
<path fill="none" stroke="midnightblue" d="M627.234,-103.856C607.416,-98.2141 587.291,-91.9928 571.181,-86.4386"/>
<polygon fill="midnightblue" stroke="midnightblue" points="626.345,-107.242 636.919,-106.574 628.236,-100.503 626.345,-107.242"/>
</g>
<!-- Node81&#45;&gt;Node76 -->
<g id="edge13" class="edge"><title>Node81&#45;&gt;Node76</title>
<path fill="none" stroke="midnightblue" d="M791.256,-83.177C799.894,-84.4297 808.554,-85.6855 816.86,-86.8899"/>
<polygon fill="midnightblue" stroke="midnightblue" points="791.546,-79.6825 781.147,-81.7111 790.542,-86.6101 791.546,-79.6825"/>
</g>
<!-- Node81&#45;&gt;Node79 -->
<g id="edge12" class="edge"><title>Node81&#45;&gt;Node79</title>
<path fill="none" stroke="midnightblue" d="M626.884,-78.1374C618.292,-78.1651 609.647,-78.1007 601.302,-77.9442"/>
<polygon fill="midnightblue" stroke="midnightblue" points="626.951,-81.6371 636.924,-78.0625 626.898,-74.6373 626.951,-81.6371"/>
</g>
<!-- Node82&#45;&gt;Node76 -->
<g id="edge16" class="edge"><title>Node82&#45;&gt;Node76</title>
<path fill="none" stroke="midnightblue" d="M767.324,-40.9244C771.984,-42.687 776.592,-44.5188 781,-46.3936 809.06,-58.3289 840.206,-75.2344 858.804,-85.7451"/>
<polygon fill="midnightblue" stroke="midnightblue" points="768.328,-37.5647 757.734,-37.4124 765.921,-44.1378 768.328,-37.5647"/>
</g>
<!-- Node82&#45;&gt;Node79 -->
<g id="edge15" class="edge"><title>Node82&#45;&gt;Node79</title>
<path fill="none" stroke="midnightblue" d="M664.981,-40.7505C645.681,-47.107 622.524,-53.9793 601.302,-59.6985"/>
<polygon fill="midnightblue" stroke="midnightblue" points="666.331,-43.9892 674.692,-37.4822 664.098,-37.3549 666.331,-43.9892"/>
</g>
<!-- Node83&#45;&gt;Node79 -->
<g id="edge18" class="edge"><title>Node83&#45;&gt;Node79</title>
<path fill="none" stroke="midnightblue" d="M435.224,-106.076C453.808,-99.6806 474.441,-92.5796 492.172,-86.4772"/>
<polygon fill="midnightblue" stroke="midnightblue" points="434.035,-102.784 425.718,-109.348 436.313,-109.403 434.035,-102.784"/>
</g>
<!-- Node84 -->
<g id="node11" class="node"><title>Node84</title>
<g id="a_node11"><a xlink:href="en61107__request_8h.html#a7384d014eb9e833f64ecf4a9f86f87be" target="_top" xlink:title="en61107_request_send">
<polygon fill="white" stroke="black" points="478.5,-114.894 478.5,-133.894 595.5,-133.894 595.5,-114.894 478.5,-114.894"/>
<text text-anchor="middle" x="537" y="-121.894" font-family="Helvetica,sans-Serif" font-size="10.00">en61107_request_send</text>
</a>
</g>
</g>
<!-- Node83&#45;&gt;Node84 -->
<g id="edge19" class="edge"><title>Node83&#45;&gt;Node84</title>
<path fill="none" stroke="midnightblue" d="M447.347,-124.394C457.655,-124.394 468.248,-124.394 478.364,-124.394"/>
<polygon fill="midnightblue" stroke="midnightblue" points="447.163,-120.894 437.163,-124.394 447.163,-127.894 447.163,-120.894"/>
</g>
</g>
</svg>
