<?xml version="1.0" encoding="UTF-8" standalone="no"?>
<!DOCTYPE svg PUBLIC "-//W3C//DTD SVG 1.1//EN"
 "http://www.w3.org/Graphics/SVG/1.1/DTD/svg11.dtd">
<!-- Generated by graphviz version 2.38.0 (20140413.2041)
 -->
<!-- Title: include/driver/uart.h Pages: 1 -->
<svg width="594pt" height="95pt"
 viewBox="0.00 0.00 594.00 95.00" xmlns="http://www.w3.org/2000/svg" xmlns:xlink="http://www.w3.org/1999/xlink">
<g id="graph0" class="graph" transform="scale(1 1) rotate(0) translate(4 91)">
<title>include/driver/uart.h</title>
<polygon fill="white" stroke="none" points="-4,4 -4,-91 590,-91 590,4 -4,4"/>
<!-- Node6 -->
<g id="node1" class="node"><title>Node6</title>
<polygon fill="#bfbfbf" stroke="black" points="242,-67.5 242,-86.5 344,-86.5 344,-67.5 242,-67.5"/>
<text text-anchor="middle" x="293" y="-74.5" font-family="Helvetica,sans-Serif" font-size="10.00">include/driver/uart.h</text>
</g>
<!-- Node7 -->
<g id="node2" class="node"><title>Node7</title>
<g id="a_node2"><a xlink:href="uart_8c.html" target="_top" xlink:title="driver/uart.c">
<polygon fill="white" stroke="black" points="0,-6 0,-25 68,-25 68,-6 0,-6"/>
<text text-anchor="middle" x="34" y="-13" font-family="Helvetica,sans-Serif" font-size="10.00">driver/uart.c</text>
</a>
</g>
</g>
<!-- Node6&#45;&gt;Node7 -->
<g id="edge1" class="edge"><title>Node6&#45;&gt;Node7</title>
<path fill="none" stroke="midnightblue" d="M233.823,-65.652C190.159,-57.5384 129.469,-45.257 77,-31 70.7658,-29.306 64.1136,-27.2096 57.9508,-25.1423"/>
<polygon fill="midnightblue" stroke="midnightblue" points="233.236,-69.1027 243.704,-67.4711 234.503,-62.2184 233.236,-69.1027"/>
</g>
<!-- Node8 -->
<g id="node3" class="node"><title>Node8</title>
<g id="a_node3"><a xlink:href="en61107__request_8c.html" target="_top" xlink:title="user/en61107/en61107\l_request.c">
<polygon fill="white" stroke="black" points="86.5,-0.5 86.5,-30.5 201.5,-30.5 201.5,-0.5 86.5,-0.5"/>
<text text-anchor="start" x="94.5" y="-18.5" font-family="Helvetica,sans-Serif" font-size="10.00">user/en61107/en61107</text>
<text text-anchor="middle" x="144" y="-7.5" font-family="Helvetica,sans-Serif" font-size="10.00">_request.c</text>
</a>
</g>
</g>
<!-- Node6&#45;&gt;Node8 -->
<g id="edge2" class="edge"><title>Node6&#45;&gt;Node8</title>
<path fill="none" stroke="midnightblue" d="M262.246,-63.7189C238.063,-54.062 204.357,-40.6023 179.116,-30.523"/>
<polygon fill="midnightblue" stroke="midnightblue" points="261.067,-67.0169 271.652,-67.4751 263.663,-60.5161 261.067,-67.0169"/>
</g>
<!-- Node9 -->
<g id="node4" class="node"><title>Node9</title>
<g id="a_node4"><a xlink:href="kmp__request_8c.html" target="_top" xlink:title="user/kamstrup/kmp_request.c">
<polygon fill="white" stroke="black" points="220,-6 220,-25 366,-25 366,-6 220,-6"/>
<text text-anchor="middle" x="293" y="-13" font-family="Helvetica,sans-Serif" font-size="10.00">user/kamstrup/kmp_request.c</text>
</a>
</g>
</g>
<!-- Node6&#45;&gt;Node9 -->
<g id="edge3" class="edge"><title>Node6&#45;&gt;Node9</title>
<path fill="none" stroke="midnightblue" d="M293,-57.3165C293,-46.4962 293,-33.398 293,-25.0091"/>
<polygon fill="midnightblue" stroke="midnightblue" points="289.5,-57.4751 293,-67.4751 296.5,-57.4751 289.5,-57.4751"/>
</g>
<!-- Node10 -->
<g id="node5" class="node"><title>Node10</title>
<g id="a_node5"><a xlink:href="mqtt__rpc_8c.html" target="_top" xlink:title="user/mqtt_rpc.c">
<polygon fill="white" stroke="black" points="384.5,-6 384.5,-25 469.5,-25 469.5,-6 384.5,-6"/>
<text text-anchor="middle" x="427" y="-13" font-family="Helvetica,sans-Serif" font-size="10.00">user/mqtt_rpc.c</text>
</a>
</g>
</g>
<!-- Node6&#45;&gt;Node10 -->
<g id="edge4" class="edge"><title>Node6&#45;&gt;Node10</title>
<path fill="none" stroke="midnightblue" d="M321.54,-63.3272C347.555,-51.7761 385.265,-35.0316 407.837,-25.0091"/>
<polygon fill="midnightblue" stroke="midnightblue" points="319.918,-60.218 312.199,-67.4751 322.759,-66.6157 319.918,-60.218"/>
</g>
<!-- Node11 -->
<g id="node6" class="node"><title>Node11</title>
<g id="a_node6"><a xlink:href="esp-open-sdk_2esp-open-lwip_2user_2user__main_8c.html" target="_top" xlink:title="esp&#45;open&#45;lwip/user\l/user_main.c">
<polygon fill="white" stroke="black" points="488,-0.5 488,-30.5 586,-30.5 586,-0.5 488,-0.5"/>
<text text-anchor="start" x="496" y="-18.5" font-family="Helvetica,sans-Serif" font-size="10.00">esp&#45;open&#45;lwip/user</text>
<text text-anchor="middle" x="537" y="-7.5" font-family="Helvetica,sans-Serif" font-size="10.00">/user_main.c</text>
</a>
</g>
</g>
<!-- Node6&#45;&gt;Node11 -->
<g id="edge5" class="edge"><title>Node6&#45;&gt;Node11</title>
<path fill="none" stroke="midnightblue" d="M338.827,-65.0155C376.489,-55.9633 431.227,-42.7503 479,-31 481.923,-30.2811 484.928,-29.539 487.959,-28.7881"/>
<polygon fill="midnightblue" stroke="midnightblue" points="337.583,-61.7146 328.677,-67.4536 339.218,-68.521 337.583,-61.7146"/>
</g>
</g>
</svg>
