<?xml version="1.0" encoding="UTF-8" standalone="no"?>
<!DOCTYPE svg PUBLIC "-//W3C//DTD SVG 1.1//EN"
 "http://www.w3.org/Graphics/SVG/1.1/DTD/svg11.dtd">
<!-- Generated by graphviz version 2.38.0 (20140413.2041)
 -->
<!-- Title: user/unix_time.c Pages: 1 -->
<svg width="909pt" height="756pt"
 viewBox="0.00 0.00 909.04 756.00" xmlns="http://www.w3.org/2000/svg" xmlns:xlink="http://www.w3.org/1999/xlink">
<g id="graph0" class="graph" transform="scale(1 1) rotate(0) translate(4 752)">
<title>user/unix_time.c</title>
<polygon fill="white" stroke="none" points="-4,4 -4,-752 905.036,-752 905.036,4 -4,4"/>
<!-- Node0 -->
<g id="node1" class="node"><title>Node0</title>
<polygon fill="#bfbfbf" stroke="black" points="618.5,-728.5 618.5,-747.5 707.5,-747.5 707.5,-728.5 618.5,-728.5"/>
<text text-anchor="middle" x="663" y="-735.5" font-family="Helvetica,sans-Serif" font-size="10.00">user/unix_time.c</text>
</g>
<!-- Node1 -->
<g id="node2" class="node"><title>Node1</title>
<g id="a_node2"><a xlink:href="esp8266_8h.html" target="_top" xlink:title="esp8266.h">
<polygon fill="white" stroke="black" points="404,-672.5 404,-691.5 466,-691.5 466,-672.5 404,-672.5"/>
<text text-anchor="middle" x="435" y="-679.5" font-family="Helvetica,sans-Serif" font-size="10.00">esp8266.h</text>
</a>
</g>
</g>
<!-- Node0&#45;&gt;Node1 -->
<g id="edge1" class="edge"><title>Node0&#45;&gt;Node1</title>
<path fill="none" stroke="midnightblue" d="M626.873,-728.444C585.838,-718.725 519.017,-702.899 476.045,-692.721"/>
<polygon fill="midnightblue" stroke="midnightblue" points="476.733,-689.287 466.196,-690.388 475.12,-696.099 476.733,-689.287"/>
</g>
<!-- Node30 -->
<g id="node31" class="node"><title>Node30</title>
<polygon fill="white" stroke="#bfbfbf" points="599.5,-672.5 599.5,-691.5 650.5,-691.5 650.5,-672.5 599.5,-672.5"/>
<text text-anchor="middle" x="625" y="-679.5" font-family="Helvetica,sans-Serif" font-size="10.00">debug.h</text>
</g>
<!-- Node0&#45;&gt;Node30 -->
<g id="edge43" class="edge"><title>Node0&#45;&gt;Node30</title>
<path fill="none" stroke="midnightblue" d="M656.725,-728.083C651.358,-720.455 643.482,-709.264 636.921,-699.941"/>
<polygon fill="midnightblue" stroke="midnightblue" points="639.775,-697.915 631.158,-691.751 634.051,-701.943 639.775,-697.915"/>
</g>
<!-- Node31 -->
<g id="node32" class="node"><title>Node31</title>
<g id="a_node32"><a xlink:href="unix__time_8h.html" target="_top" xlink:title="unix_time.h">
<polygon fill="white" stroke="black" points="668.5,-672.5 668.5,-691.5 735.5,-691.5 735.5,-672.5 668.5,-672.5"/>
<text text-anchor="middle" x="702" y="-679.5" font-family="Helvetica,sans-Serif" font-size="10.00">unix_time.h</text>
</a>
</g>
</g>
<!-- Node0&#45;&gt;Node31 -->
<g id="edge44" class="edge"><title>Node0&#45;&gt;Node31</title>
<path fill="none" stroke="midnightblue" d="M669.44,-728.083C674.949,-720.455 683.031,-709.264 689.765,-699.941"/>
<polygon fill="midnightblue" stroke="midnightblue" points="692.662,-701.907 695.68,-691.751 686.987,-697.809 692.662,-701.907"/>
</g>
<!-- Node32 -->
<g id="node33" class="node"><title>Node32</title>
<g id="a_node33"><a xlink:href="sdk_2include_2sntp_8h.html" target="_top" xlink:title="sntp.h">
<polygon fill="white" stroke="black" points="828,-616.5 828,-635.5 872,-635.5 872,-616.5 828,-616.5"/>
<text text-anchor="middle" x="850" y="-623.5" font-family="Helvetica,sans-Serif" font-size="10.00">sntp.h</text>
</a>
</g>
</g>
<!-- Node0&#45;&gt;Node32 -->
<g id="edge45" class="edge"><title>Node0&#45;&gt;Node32</title>
<path fill="none" stroke="midnightblue" d="M679.166,-728.451C695.806,-719.576 722.417,-705.174 745,-692 774.036,-675.061 806.894,-654.488 827.999,-641.086"/>
<polygon fill="midnightblue" stroke="midnightblue" points="829.991,-643.967 836.546,-635.643 826.231,-638.063 829.991,-643.967"/>
</g>
<!-- Node2 -->
<g id="node3" class="node"><title>Node2</title>
<polygon fill="white" stroke="#bfbfbf" points="630.5,-616.5 630.5,-635.5 679.5,-635.5 679.5,-616.5 630.5,-616.5"/>
<text text-anchor="middle" x="655" y="-623.5" font-family="Helvetica,sans-Serif" font-size="10.00">ctype.h</text>
</g>
<!-- Node1&#45;&gt;Node2 -->
<g id="edge2" class="edge"><title>Node1&#45;&gt;Node2</title>
<path fill="none" stroke="midnightblue" d="M466.315,-673.64C501.37,-665.353 560.118,-651.325 620.107,-636.186"/>
<polygon fill="midnightblue" stroke="midnightblue" points="621.298,-639.495 630.134,-633.648 619.58,-632.709 621.298,-639.495"/>
</g>
<!-- Node3 -->
<g id="node4" class="node"><title>Node3</title>
<polygon fill="white" stroke="#bfbfbf" points="698,-616.5 698,-635.5 744,-635.5 744,-616.5 698,-616.5"/>
<text text-anchor="middle" x="721" y="-623.5" font-family="Helvetica,sans-Serif" font-size="10.00">stdio.h</text>
</g>
<!-- Node1&#45;&gt;Node3 -->
<g id="edge3" class="edge"><title>Node1&#45;&gt;Node3</title>
<path fill="none" stroke="midnightblue" d="M466.341,-676.358C514.328,-669.041 608.782,-653.809 688,-636 688.101,-635.977 688.203,-635.954 688.305,-635.931"/>
<polygon fill="midnightblue" stroke="midnightblue" points="689.106,-639.338 697.987,-633.561 687.442,-632.539 689.106,-639.338"/>
</g>
<!-- Node4 -->
<g id="node5" class="node"><title>Node4</title>
<polygon fill="white" stroke="#bfbfbf" points="762,-616.5 762,-635.5 810,-635.5 810,-616.5 762,-616.5"/>
<text text-anchor="middle" x="786" y="-623.5" font-family="Helvetica,sans-Serif" font-size="10.00">stdlib.h</text>
</g>
<!-- Node1&#45;&gt;Node4 -->
<g id="edge4" class="edge"><title>Node1&#45;&gt;Node4</title>
<path fill="none" stroke="midnightblue" d="M466.369,-677.884C521.996,-672.074 641.687,-658.297 751.976,-635.983"/>
<polygon fill="midnightblue" stroke="midnightblue" points="752.842,-639.378 761.934,-633.939 751.434,-632.521 752.842,-639.378"/>
</g>
<!-- Node5 -->
<g id="node6" class="node"><title>Node5</title>
<polygon fill="white" stroke="#bfbfbf" points="250.5,-168.5 250.5,-187.5 299.5,-187.5 299.5,-168.5 250.5,-168.5"/>
<text text-anchor="middle" x="275" y="-175.5" font-family="Helvetica,sans-Serif" font-size="10.00">string.h</text>
</g>
<!-- Node1&#45;&gt;Node5 -->
<g id="edge5" class="edge"><title>Node1&#45;&gt;Node5</title>
<path fill="none" stroke="midnightblue" d="M403.769,-681.281C357.849,-680.33 270.875,-673.228 209,-636 177.06,-616.783 156,-608.275 156,-571 156,-571 156,-571 156,-289 156,-241.296 208.204,-208.528 243.459,-191.838"/>
<polygon fill="midnightblue" stroke="midnightblue" points="245.235,-194.876 252.896,-187.558 242.343,-188.502 245.235,-194.876"/>
</g>
<!-- Node6 -->
<g id="node7" class="node"><title>Node6</title>
<g id="a_node7"><a xlink:href="c__types_8h.html" target="_top" xlink:title="c_types.h">
<polygon fill="white" stroke="black" points="307.5,-56.5 307.5,-75.5 366.5,-75.5 366.5,-56.5 307.5,-56.5"/>
<text text-anchor="middle" x="337" y="-63.5" font-family="Helvetica,sans-Serif" font-size="10.00">c_types.h</text>
</a>
</g>
</g>
<!-- Node1&#45;&gt;Node6 -->
<g id="edge6" class="edge"><title>Node1&#45;&gt;Node6</title>
<path fill="none" stroke="midnightblue" d="M403.786,-678.271C343.357,-672.562 212.912,-658.032 174,-636 140.818,-617.213 118,-609.132 118,-571 118,-571 118,-571 118,-177 118,-97.6016 234.37,-75.5076 297.454,-69.3637"/>
<polygon fill="midnightblue" stroke="midnightblue" points="297.812,-72.8458 307.465,-68.4788 297.195,-65.873 297.812,-72.8458"/>
</g>
<!-- Node9 -->
<g id="node10" class="node"><title>Node9</title>
<g id="a_node10"><a xlink:href="ets__sys_8h.html" target="_top" xlink:title="ets_sys.h">
<polygon fill="white" stroke="black" points="621.5,-112.5 621.5,-131.5 680.5,-131.5 680.5,-112.5 621.5,-112.5"/>
<text text-anchor="middle" x="651" y="-119.5" font-family="Helvetica,sans-Serif" font-size="10.00">ets_sys.h</text>
</a>
</g>
</g>
<!-- Node1&#45;&gt;Node9 -->
<g id="edge9" class="edge"><title>Node1&#45;&gt;Node9</title>
<path fill="none" stroke="midnightblue" d="M466.128,-678.814C564.789,-671.759 865.009,-649.292 881,-636 904.146,-616.761 900,-601.098 900,-571 900,-571 900,-571 900,-233 900,-142.647 761.123,-125.897 690.801,-123.208"/>
<polygon fill="midnightblue" stroke="midnightblue" points="690.643,-119.701 680.541,-122.897 690.431,-126.698 690.643,-119.701"/>
</g>
<!-- Node11 -->
<g id="node12" class="node"><title>Node11</title>
<g id="a_node12"><a xlink:href="gpio_8h.html" target="_top" xlink:title="gpio.h">
<polygon fill="white" stroke="black" points="184.5,-560.5 184.5,-579.5 227.5,-579.5 227.5,-560.5 184.5,-560.5"/>
<text text-anchor="middle" x="206" y="-567.5" font-family="Helvetica,sans-Serif" font-size="10.00">gpio.h</text>
</a>
</g>
</g>
<!-- Node1&#45;&gt;Node11 -->
<g id="edge12" class="edge"><title>Node1&#45;&gt;Node11</title>
<path fill="none" stroke="midnightblue" d="M403.855,-678.212C351.894,-672.944 250.675,-659.859 225,-636 212.36,-624.254 207.968,-604.612 206.522,-589.988"/>
<polygon fill="midnightblue" stroke="midnightblue" points="209.99,-589.353 205.892,-579.583 203.003,-589.776 209.99,-589.353"/>
</g>
<!-- Node12 -->
<g id="node13" class="node"><title>Node12</title>
<g id="a_node13"><a xlink:href="sdk_2include_2mem_8h.html" target="_top" xlink:title="mem.h">
<polygon fill="white" stroke="black" points="42.5,-616.5 42.5,-635.5 89.5,-635.5 89.5,-616.5 42.5,-616.5"/>
<text text-anchor="middle" x="66" y="-623.5" font-family="Helvetica,sans-Serif" font-size="10.00">mem.h</text>
</a>
</g>
</g>
<!-- Node1&#45;&gt;Node12 -->
<g id="edge13" class="edge"><title>Node1&#45;&gt;Node12</title>
<path fill="none" stroke="midnightblue" d="M403.807,-677.785C344.923,-671.49 213.472,-656.355 104,-636 102.542,-635.729 101.056,-635.438 99.5564,-635.134"/>
<polygon fill="midnightblue" stroke="midnightblue" points="100.157,-631.683 89.641,-632.975 98.6677,-638.522 100.157,-631.683"/>
</g>
<!-- Node14 -->
<g id="node15" class="node"><title>Node14</title>
<g id="a_node15"><a xlink:href="osapi_8h.html" target="_top" xlink:title="osapi.h">
<polygon fill="white" stroke="black" points="435,-224.5 435,-243.5 483,-243.5 483,-224.5 435,-224.5"/>
<text text-anchor="middle" x="459" y="-231.5" font-family="Helvetica,sans-Serif" font-size="10.00">osapi.h</text>
</a>
</g>
</g>
<!-- Node1&#45;&gt;Node14 -->
<g id="edge16" class="edge"><title>Node1&#45;&gt;Node14</title>
<path fill="none" stroke="midnightblue" d="M413.13,-672.404C388.59,-661.353 353.823,-640.622 367,-616 380.61,-590.569 403.101,-602.619 421,-580 456.604,-535.007 466,-516.376 466,-459 466,-459 466,-459 466,-345 466,-312.883 462.991,-275.598 460.919,-253.726"/>
<polygon fill="midnightblue" stroke="midnightblue" points="464.38,-253.154 459.915,-243.546 457.413,-253.841 464.38,-253.154"/>
</g>
<!-- Node17 -->
<g id="node18" class="node"><title>Node17</title>
<g id="a_node18"><a xlink:href="user__interface_8h.html" target="_top" xlink:title="user_interface.h">
<polygon fill="white" stroke="black" points="234,-616.5 234,-635.5 320,-635.5 320,-616.5 234,-616.5"/>
<text text-anchor="middle" x="277" y="-623.5" font-family="Helvetica,sans-Serif" font-size="10.00">user_interface.h</text>
</a>
</g>
</g>
<!-- Node1&#45;&gt;Node17 -->
<g id="edge21" class="edge"><title>Node1&#45;&gt;Node17</title>
<path fill="none" stroke="midnightblue" d="M409.964,-672.444C383.384,-663.359 341.191,-648.939 311.477,-638.783"/>
<polygon fill="midnightblue" stroke="midnightblue" points="312.513,-635.439 301.918,-635.516 310.249,-642.062 312.513,-635.439"/>
</g>
<!-- Node27 -->
<g id="node28" class="node"><title>Node27</title>
<g id="a_node28"><a xlink:href="upgrade_8h.html" target="_top" xlink:title="upgrade.h">
<polygon fill="white" stroke="black" points="376.5,-616.5 376.5,-635.5 435.5,-635.5 435.5,-616.5 376.5,-616.5"/>
<text text-anchor="middle" x="406" y="-623.5" font-family="Helvetica,sans-Serif" font-size="10.00">upgrade.h</text>
</a>
</g>
</g>
<!-- Node1&#45;&gt;Node27 -->
<g id="edge40" class="edge"><title>Node1&#45;&gt;Node27</title>
<path fill="none" stroke="midnightblue" d="M430.211,-672.083C426.242,-664.691 420.475,-653.953 415.565,-644.811"/>
<polygon fill="midnightblue" stroke="midnightblue" points="418.514,-642.905 410.7,-635.751 412.347,-646.217 418.514,-642.905"/>
</g>
<!-- Node28 -->
<g id="node29" class="node"><title>Node28</title>
<g id="a_node29"><a xlink:href="esp__sdk__ver_8h.html" target="_top" xlink:title="esp_sdk_ver.h">
<polygon fill="white" stroke="black" points="454,-616.5 454,-635.5 534,-635.5 534,-616.5 454,-616.5"/>
<text text-anchor="middle" x="494" y="-623.5" font-family="Helvetica,sans-Serif" font-size="10.00">esp_sdk_ver.h</text>
</a>
</g>
</g>
<!-- Node1&#45;&gt;Node28 -->
<g id="edge41" class="edge"><title>Node1&#45;&gt;Node28</title>
<path fill="none" stroke="midnightblue" d="M444.479,-672.324C453.201,-664.341 466.343,-652.313 476.898,-642.653"/>
<polygon fill="midnightblue" stroke="midnightblue" points="479.334,-645.167 484.348,-635.834 474.608,-640.004 479.334,-645.167"/>
</g>
<!-- Node29 -->
<g id="node30" class="node"><title>Node29</title>
<g id="a_node30"><a xlink:href="platform_8h.html" target="_top" xlink:title="platform.h">
<polygon fill="white" stroke="black" points="552,-616.5 552,-635.5 612,-635.5 612,-616.5 552,-616.5"/>
<text text-anchor="middle" x="582" y="-623.5" font-family="Helvetica,sans-Serif" font-size="10.00">platform.h</text>
</a>
</g>
</g>
<!-- Node1&#45;&gt;Node29 -->
<g id="edge42" class="edge"><title>Node1&#45;&gt;Node29</title>
<path fill="none" stroke="midnightblue" d="M458.293,-672.444C482.807,-663.438 521.596,-649.189 549.2,-639.049"/>
<polygon fill="midnightblue" stroke="midnightblue" points="550.637,-642.25 558.816,-635.516 548.223,-635.679 550.637,-642.25"/>
</g>
<!-- Node7 -->
<g id="node8" class="node"><title>Node7</title>
<polygon fill="white" stroke="#bfbfbf" points="277.5,-0.5 277.5,-19.5 326.5,-19.5 326.5,-0.5 277.5,-0.5"/>
<text text-anchor="middle" x="302" y="-7.5" font-family="Helvetica,sans-Serif" font-size="10.00">stdint.h</text>
</g>
<!-- Node6&#45;&gt;Node7 -->
<g id="edge7" class="edge"><title>Node6&#45;&gt;Node7</title>
<path fill="none" stroke="midnightblue" d="M331.22,-56.083C326.328,-48.5341 319.173,-37.4948 313.167,-28.2298"/>
<polygon fill="midnightblue" stroke="midnightblue" points="316.048,-26.239 307.672,-19.7511 310.174,-30.0463 316.048,-26.239"/>
</g>
<!-- Node8 -->
<g id="node9" class="node"><title>Node8</title>
<polygon fill="white" stroke="#bfbfbf" points="345,-0.5 345,-19.5 401,-19.5 401,-0.5 345,-0.5"/>
<text text-anchor="middle" x="373" y="-7.5" font-family="Helvetica,sans-Serif" font-size="10.00">stdbool.h</text>
</g>
<!-- Node6&#45;&gt;Node8 -->
<g id="edge8" class="edge"><title>Node6&#45;&gt;Node8</title>
<path fill="none" stroke="midnightblue" d="M342.945,-56.083C347.977,-48.5341 355.337,-37.4948 361.513,-28.2298"/>
<polygon fill="midnightblue" stroke="midnightblue" points="364.531,-30.0131 367.166,-19.7511 358.707,-26.1301 364.531,-30.0131"/>
</g>
<!-- Node9&#45;&gt;Node6 -->
<g id="edge10" class="edge"><title>Node9&#45;&gt;Node6</title>
<path fill="none" stroke="midnightblue" d="M621.46,-115.92C564.77,-106.171 440.686,-84.8314 376.782,-73.8415"/>
<polygon fill="midnightblue" stroke="midnightblue" points="377.139,-70.3516 366.691,-72.106 375.953,-77.2503 377.139,-70.3516"/>
</g>
<!-- Node10 -->
<g id="node11" class="node"><title>Node10</title>
<g id="a_node11"><a xlink:href="eagle__soc_8h.html" target="_top" xlink:title="eagle_soc.h">
<polygon fill="white" stroke="black" points="616.5,-56.5 616.5,-75.5 685.5,-75.5 685.5,-56.5 616.5,-56.5"/>
<text text-anchor="middle" x="651" y="-63.5" font-family="Helvetica,sans-Serif" font-size="10.00">eagle_soc.h</text>
</a>
</g>
</g>
<!-- Node9&#45;&gt;Node10 -->
<g id="edge11" class="edge"><title>Node9&#45;&gt;Node10</title>
<path fill="none" stroke="midnightblue" d="M651,-112.083C651,-105.006 651,-94.8611 651,-85.9865"/>
<polygon fill="midnightblue" stroke="midnightblue" points="654.5,-85.751 651,-75.7511 647.5,-85.7511 654.5,-85.751"/>
</g>
<!-- Node12&#45;&gt;Node6 -->
<g id="edge15" class="edge"><title>Node12&#45;&gt;Node6</title>
<path fill="none" stroke="midnightblue" d="M67.8303,-616.489C71.6251,-598.075 80,-553.118 80,-515 80,-515 80,-515 80,-177 80,-146.205 80.5248,-131.931 104,-112 132.59,-87.7258 238.368,-75.2179 297.079,-70.018"/>
<polygon fill="midnightblue" stroke="midnightblue" points="297.453,-73.4989 307.119,-69.1594 296.857,-66.5243 297.453,-73.4989"/>
</g>
<!-- Node13 -->
<g id="node14" class="node"><title>Node13</title>
<polygon fill="white" stroke="#bfbfbf" points="0,-560.5 0,-579.5 52,-579.5 52,-560.5 0,-560.5"/>
<text text-anchor="middle" x="26" y="-567.5" font-family="Helvetica,sans-Serif" font-size="10.00">stddef.h</text>
</g>
<!-- Node12&#45;&gt;Node13 -->
<g id="edge14" class="edge"><title>Node12&#45;&gt;Node13</title>
<path fill="none" stroke="midnightblue" d="M59.3948,-616.083C53.7448,-608.455 45.4552,-597.264 38.5488,-587.941"/>
<polygon fill="midnightblue" stroke="midnightblue" points="41.2471,-585.703 32.4823,-579.751 35.6221,-589.87 41.2471,-585.703"/>
</g>
<!-- Node14&#45;&gt;Node5 -->
<g id="edge17" class="edge"><title>Node14&#45;&gt;Node5</title>
<path fill="none" stroke="midnightblue" d="M434.945,-225.94C402.89,-216.533 345.971,-199.829 309.389,-189.092"/>
<polygon fill="midnightblue" stroke="midnightblue" points="310.229,-185.691 299.648,-186.234 308.258,-192.408 310.229,-185.691"/>
</g>
<!-- Node15 -->
<g id="node16" class="node"><title>Node15</title>
<g id="a_node16"><a xlink:href="os__type_8h.html" target="_top" xlink:title="os_type.h">
<polygon fill="white" stroke="black" points="603.5,-168.5 603.5,-187.5 662.5,-187.5 662.5,-168.5 603.5,-168.5"/>
<text text-anchor="middle" x="633" y="-175.5" font-family="Helvetica,sans-Serif" font-size="10.00">os_type.h</text>
</a>
</g>
</g>
<!-- Node14&#45;&gt;Node15 -->
<g id="edge18" class="edge"><title>Node14&#45;&gt;Node15</title>
<path fill="none" stroke="midnightblue" d="M483.194,-225.492C512.431,-216.418 561.93,-201.056 595.977,-190.49"/>
<polygon fill="midnightblue" stroke="midnightblue" points="597.06,-193.819 605.573,-187.512 594.985,-187.133 597.06,-193.819"/>
</g>
<!-- Node16 -->
<g id="node17" class="node"><title>Node16</title>
<polygon fill="white" stroke="#bfbfbf" points="395.5,-168.5 395.5,-187.5 470.5,-187.5 470.5,-168.5 395.5,-168.5"/>
<text text-anchor="middle" x="433" y="-175.5" font-family="Helvetica,sans-Serif" font-size="10.00">user_config.h</text>
</g>
<!-- Node14&#45;&gt;Node16 -->
<g id="edge20" class="edge"><title>Node14&#45;&gt;Node16</title>
<path fill="none" stroke="midnightblue" d="M454.707,-224.083C451.148,-216.691 445.978,-205.953 441.576,-196.811"/>
<polygon fill="midnightblue" stroke="midnightblue" points="444.705,-195.243 437.213,-187.751 438.398,-198.279 444.705,-195.243"/>
</g>
<!-- Node15&#45;&gt;Node9 -->
<g id="edge19" class="edge"><title>Node15&#45;&gt;Node9</title>
<path fill="none" stroke="midnightblue" d="M635.972,-168.083C638.384,-160.849 641.864,-150.409 644.868,-141.397"/>
<polygon fill="midnightblue" stroke="midnightblue" points="648.241,-142.345 648.083,-131.751 641.6,-140.131 648.241,-142.345"/>
</g>
<!-- Node17&#45;&gt;Node11 -->
<g id="edge39" class="edge"><title>Node17&#45;&gt;Node11</title>
<path fill="none" stroke="midnightblue" d="M265.593,-616.324C254.891,-608.185 238.659,-595.839 225.837,-586.087"/>
<polygon fill="midnightblue" stroke="midnightblue" points="227.693,-583.102 217.615,-579.834 223.456,-588.673 227.693,-583.102"/>
</g>
<!-- Node17&#45;&gt;Node15 -->
<g id="edge22" class="edge"><title>Node17&#45;&gt;Node15</title>
<path fill="none" stroke="midnightblue" d="M320.027,-616.943C347.349,-610.303 382.437,-598.838 409,-580 464.771,-540.448 504,-527.372 504,-459 504,-459 504,-459 504,-401 504,-346.418 499.055,-328.021 525,-280 545.432,-242.183 585.338,-210.628 610.503,-193.322"/>
<polygon fill="midnightblue" stroke="midnightblue" points="612.68,-196.076 619.044,-187.605 608.787,-190.259 612.68,-196.076"/>
</g>
<!-- Node17&#45;&gt;Node16 -->
<g id="edge37" class="edge"><title>Node17&#45;&gt;Node16</title>
<path fill="none" stroke="midnightblue" d="M320.208,-617.009C343.266,-610.641 370.43,-599.436 388,-580 408.183,-557.673 407,-545.098 407,-515 407,-515 407,-515 407,-289 407,-255.929 418.268,-218.729 425.968,-197.168"/>
<polygon fill="midnightblue" stroke="midnightblue" points="429.293,-198.268 429.494,-187.675 422.731,-195.831 429.293,-198.268"/>
</g>
<!-- Node18 -->
<g id="node19" class="node"><title>Node18</title>
<g id="a_node19"><a xlink:href="esp-open-lwip_2include_2lwip_2ip__addr_8h.html" target="_top" xlink:title="lwip/ip_addr.h">
<polygon fill="white" stroke="black" points="552.5,-560.5 552.5,-579.5 629.5,-579.5 629.5,-560.5 552.5,-560.5"/>
<text text-anchor="middle" x="591" y="-567.5" font-family="Helvetica,sans-Serif" font-size="10.00">lwip/ip_addr.h</text>
</a>
</g>
</g>
<!-- Node17&#45;&gt;Node18 -->
<g id="edge23" class="edge"><title>Node17&#45;&gt;Node18</title>
<path fill="none" stroke="midnightblue" d="M320.002,-617.605C378.114,-607.611 481.436,-589.842 542.33,-579.37"/>
<polygon fill="midnightblue" stroke="midnightblue" points="543.194,-582.773 552.456,-577.629 542.007,-575.874 543.194,-582.773"/>
</g>
<!-- Node25 -->
<g id="node26" class="node"><title>Node25</title>
<g id="a_node26"><a xlink:href="esp-open-sdk_2sdk_2include_2queue_8h.html" target="_top" xlink:title="queue.h">
<polygon fill="white" stroke="black" points="245.5,-560.5 245.5,-579.5 296.5,-579.5 296.5,-560.5 245.5,-560.5"/>
<text text-anchor="middle" x="271" y="-567.5" font-family="Helvetica,sans-Serif" font-size="10.00">queue.h</text>
</a>
</g>
</g>
<!-- Node17&#45;&gt;Node25 -->
<g id="edge36" class="edge"><title>Node17&#45;&gt;Node25</title>
<path fill="none" stroke="midnightblue" d="M276.009,-616.083C275.214,-608.927 274.071,-598.635 273.077,-589.691"/>
<polygon fill="midnightblue" stroke="midnightblue" points="276.555,-589.303 271.972,-579.751 269.598,-590.076 276.555,-589.303"/>
</g>
<!-- Node26 -->
<g id="node27" class="node"><title>Node26</title>
<g id="a_node27"><a xlink:href="spi__flash_8h.html" target="_top" xlink:title="spi_flash.h">
<polygon fill="white" stroke="black" points="315,-560.5 315,-579.5 379,-579.5 379,-560.5 315,-560.5"/>
<text text-anchor="middle" x="347" y="-567.5" font-family="Helvetica,sans-Serif" font-size="10.00">spi_flash.h</text>
</a>
</g>
</g>
<!-- Node17&#45;&gt;Node26 -->
<g id="edge38" class="edge"><title>Node17&#45;&gt;Node26</title>
<path fill="none" stroke="midnightblue" d="M288.247,-616.324C298.797,-608.185 314.801,-595.839 327.442,-586.087"/>
<polygon fill="midnightblue" stroke="midnightblue" points="329.769,-588.713 335.549,-579.834 325.493,-583.171 329.769,-588.713"/>
</g>
<!-- Node19 -->
<g id="node20" class="node"><title>Node19</title>
<g id="a_node20"><a xlink:href="opt_8h.html" target="_top" xlink:title="lwip/opt.h">
<polygon fill="white" stroke="black" points="583.5,-448.5 583.5,-467.5 642.5,-467.5 642.5,-448.5 583.5,-448.5"/>
<text text-anchor="middle" x="613" y="-455.5" font-family="Helvetica,sans-Serif" font-size="10.00">lwip/opt.h</text>
</a>
</g>
</g>
<!-- Node18&#45;&gt;Node19 -->
<g id="edge24" class="edge"><title>Node18&#45;&gt;Node19</title>
<path fill="none" stroke="midnightblue" d="M592.726,-560.368C596.277,-542.617 604.467,-501.666 609.281,-477.597"/>
<polygon fill="midnightblue" stroke="midnightblue" points="612.753,-478.084 611.282,-467.591 605.888,-476.711 612.753,-478.084"/>
</g>
<!-- Node24 -->
<g id="node25" class="node"><title>Node24</title>
<g id="a_node25"><a xlink:href="def_8h.html" target="_top" xlink:title="lwip/def.h">
<polygon fill="white" stroke="black" points="532.5,-504.5 532.5,-523.5 591.5,-523.5 591.5,-504.5 532.5,-504.5"/>
<text text-anchor="middle" x="562" y="-511.5" font-family="Helvetica,sans-Serif" font-size="10.00">lwip/def.h</text>
</a>
</g>
</g>
<!-- Node18&#45;&gt;Node24 -->
<g id="edge33" class="edge"><title>Node18&#45;&gt;Node24</title>
<path fill="none" stroke="midnightblue" d="M586.211,-560.083C582.242,-552.691 576.475,-541.953 571.565,-532.811"/>
<polygon fill="midnightblue" stroke="midnightblue" points="574.514,-530.905 566.7,-523.751 568.347,-534.217 574.514,-530.905"/>
</g>
<!-- Node20 -->
<g id="node21" class="node"><title>Node20</title>
<g id="a_node21"><a xlink:href="lwipopts_8h.html" target="_top" xlink:title="lwipopts.h">
<polygon fill="white" stroke="black" points="616.5,-336.5 616.5,-355.5 677.5,-355.5 677.5,-336.5 616.5,-336.5"/>
<text text-anchor="middle" x="647" y="-343.5" font-family="Helvetica,sans-Serif" font-size="10.00">lwipopts.h</text>
</a>
</g>
</g>
<!-- Node19&#45;&gt;Node20 -->
<g id="edge25" class="edge"><title>Node19&#45;&gt;Node20</title>
<path fill="none" stroke="midnightblue" d="M623.438,-448.245C632.424,-439.969 644.746,-426.663 650,-412 655.359,-397.045 653.925,-378.906 651.544,-365.594"/>
<polygon fill="midnightblue" stroke="midnightblue" points="654.949,-364.779 649.45,-355.724 648.102,-366.232 654.949,-364.779"/>
</g>
<!-- Node21 -->
<g id="node22" class="node"><title>Node21</title>
<g id="a_node22"><a xlink:href="esp-open-sdk_2esp-open-lwip_2include_2lwip_2debug_8h.html" target="_top" xlink:title="lwip/debug.h">
<polygon fill="white" stroke="black" points="570.5,-392.5 570.5,-411.5 641.5,-411.5 641.5,-392.5 570.5,-392.5"/>
<text text-anchor="middle" x="606" y="-399.5" font-family="Helvetica,sans-Serif" font-size="10.00">lwip/debug.h</text>
</a>
</g>
</g>
<!-- Node19&#45;&gt;Node21 -->
<g id="edge26" class="edge"><title>Node19&#45;&gt;Node21</title>
<path fill="none" stroke="midnightblue" d="M611.844,-448.083C610.916,-440.927 609.582,-430.635 608.423,-421.691"/>
<polygon fill="midnightblue" stroke="midnightblue" points="611.891,-421.218 607.134,-411.751 604.949,-422.118 611.891,-421.218"/>
</g>
<!-- Node21&#45;&gt;Node20 -->
<g id="edge27" class="edge"><title>Node21&#45;&gt;Node20</title>
<path fill="none" stroke="midnightblue" d="M612.77,-392.083C618.562,-384.455 627.058,-373.264 634.138,-363.941"/>
<polygon fill="midnightblue" stroke="midnightblue" points="637.096,-365.832 640.356,-355.751 631.521,-361.599 637.096,-365.832"/>
</g>
<!-- Node22 -->
<g id="node23" class="node"><title>Node22</title>
<g id="a_node23"><a xlink:href="arch_8h.html" target="_top" xlink:title="lwip/arch.h">
<polygon fill="white" stroke="black" points="532,-336.5 532,-355.5 596,-355.5 596,-336.5 532,-336.5"/>
<text text-anchor="middle" x="564" y="-343.5" font-family="Helvetica,sans-Serif" font-size="10.00">lwip/arch.h</text>
</a>
</g>
</g>
<!-- Node21&#45;&gt;Node22 -->
<g id="edge28" class="edge"><title>Node21&#45;&gt;Node22</title>
<path fill="none" stroke="midnightblue" d="M599.065,-392.083C593.071,-384.377 584.248,-373.033 576.952,-363.653"/>
<polygon fill="midnightblue" stroke="midnightblue" points="579.709,-361.496 570.806,-355.751 574.183,-365.793 579.709,-361.496"/>
</g>
<!-- Node23 -->
<g id="node24" class="node"><title>Node23</title>
<g id="a_node24"><a xlink:href="cc_8h.html" target="_top" xlink:title="arch/cc.h">
<polygon fill="white" stroke="black" points="534.5,-280.5 534.5,-299.5 591.5,-299.5 591.5,-280.5 534.5,-280.5"/>
<text text-anchor="middle" x="563" y="-287.5" font-family="Helvetica,sans-Serif" font-size="10.00">arch/cc.h</text>
</a>
</g>
</g>
<!-- Node22&#45;&gt;Node23 -->
<g id="edge29" class="edge"><title>Node22&#45;&gt;Node23</title>
<path fill="none" stroke="midnightblue" d="M563.835,-336.083C563.704,-329.006 563.516,-318.861 563.352,-309.986"/>
<polygon fill="midnightblue" stroke="midnightblue" points="566.847,-309.685 563.162,-299.751 559.848,-309.814 566.847,-309.685"/>
</g>
<!-- Node23&#45;&gt;Node6 -->
<g id="edge30" class="edge"><title>Node23&#45;&gt;Node6</title>
<path fill="none" stroke="midnightblue" d="M558.383,-280.336C546.931,-259.371 515.498,-204.917 479,-168 442.535,-131.116 391.223,-98.3355 361.306,-80.7052"/>
<polygon fill="midnightblue" stroke="midnightblue" points="362.795,-77.5228 352.39,-75.5274 359.28,-83.5761 362.795,-77.5228"/>
</g>
<!-- Node23&#45;&gt;Node9 -->
<g id="edge31" class="edge"><title>Node23&#45;&gt;Node9</title>
<path fill="none" stroke="midnightblue" d="M578.545,-280.3C603.592,-265.272 651.991,-231.802 671,-188 677.808,-172.312 670.51,-153.568 662.888,-140.249"/>
<polygon fill="midnightblue" stroke="midnightblue" points="665.759,-138.239 657.478,-131.63 659.83,-141.961 665.759,-138.239"/>
</g>
<!-- Node23&#45;&gt;Node14 -->
<g id="edge32" class="edge"><title>Node23&#45;&gt;Node14</title>
<path fill="none" stroke="midnightblue" d="M546.291,-280.324C529.688,-271.703 503.998,-258.364 484.78,-248.386"/>
<polygon fill="midnightblue" stroke="midnightblue" points="486.156,-245.156 475.668,-243.655 482.93,-251.369 486.156,-245.156"/>
</g>
<!-- Node24&#45;&gt;Node19 -->
<g id="edge35" class="edge"><title>Node24&#45;&gt;Node19</title>
<path fill="none" stroke="midnightblue" d="M570.422,-504.083C577.848,-496.22 588.852,-484.569 597.812,-475.081"/>
<polygon fill="midnightblue" stroke="midnightblue" points="600.413,-477.424 604.735,-467.751 595.324,-472.618 600.413,-477.424"/>
</g>
<!-- Node24&#45;&gt;Node22 -->
<g id="edge34" class="edge"><title>Node24&#45;&gt;Node22</title>
<path fill="none" stroke="midnightblue" d="M561.687,-504.488C561.013,-484.727 559.595,-434.202 561,-392 561.287,-383.383 561.882,-373.854 562.467,-365.791"/>
<polygon fill="midnightblue" stroke="midnightblue" points="565.972,-365.859 563.254,-355.618 558.993,-365.318 565.972,-365.859"/>
</g>
<!-- Node32&#45;&gt;Node15 -->
<g id="edge46" class="edge"><title>Node32&#45;&gt;Node15</title>
<path fill="none" stroke="midnightblue" d="M833.433,-616.438C795.975,-596.527 708,-546.418 708,-515 708,-515 708,-515 708,-289 708,-249.444 674.483,-213.616 652.261,-194.209"/>
<polygon fill="midnightblue" stroke="midnightblue" points="654.3,-191.351 644.391,-187.602 649.799,-196.712 654.3,-191.351"/>
</g>
<!-- Node32&#45;&gt;Node18 -->
<g id="edge47" class="edge"><title>Node32&#45;&gt;Node18</title>
<path fill="none" stroke="midnightblue" d="M827.712,-618.276C824.792,-617.47 821.832,-616.689 819,-616 757.588,-601.055 685.96,-587.55 639.615,-579.319"/>
<polygon fill="midnightblue" stroke="midnightblue" points="640.005,-575.834 629.549,-577.544 638.789,-582.728 640.005,-575.834"/>
</g>
</g>
</svg>
