<?xml version="1.0" encoding="UTF-8" standalone="no"?>
<!DOCTYPE svg PUBLIC "-//W3C//DTD SVG 1.1//EN"
 "http://www.w3.org/Graphics/SVG/1.1/DTD/svg11.dtd">
<!-- Generated by graphviz version 2.38.0 (20140413.2041)
 -->
<!-- Title: init_unix_time Pages: 1 -->
<svg width="415pt" height="192pt"
 viewBox="0.00 0.00 415.00 191.50" xmlns="http://www.w3.org/2000/svg" xmlns:xlink="http://www.w3.org/1999/xlink">
<g id="graph0" class="graph" transform="scale(1 1) rotate(0) translate(4 187.5)">
<title>init_unix_time</title>
<polygon fill="white" stroke="none" points="-4,4 -4,-187.5 411,-187.5 411,4 -4,4"/>
<!-- Node48 -->
<g id="node1" class="node"><title>Node48</title>
<polygon fill="#bfbfbf" stroke="black" points="0,-76.5 0,-95.5 77,-95.5 77,-76.5 0,-76.5"/>
<text text-anchor="middle" x="38.5" y="-83.5" font-family="Helvetica,sans-Serif" font-size="10.00">init_unix_time</text>
</g>
<!-- Node49 -->
<g id="node2" class="node"><title>Node49</title>
<g id="a_node2"><a xlink:href="unix__time_8c.html#a802f78ed855d6c422974b9c116443c2c" target="_top" xlink:title="ntp_offline_second\l_counter_timer_func">
<polygon fill="white" stroke="black" points="119.5,-153 119.5,-183 224.5,-183 224.5,-153 119.5,-153"/>
<text text-anchor="start" x="127.5" y="-171" font-family="Helvetica,sans-Serif" font-size="10.00">ntp_offline_second</text>
<text text-anchor="middle" x="172" y="-160" font-family="Helvetica,sans-Serif" font-size="10.00">_counter_timer_func</text>
</a>
</g>
</g>
<!-- Node48&#45;&gt;Node49 -->
<g id="edge1" class="edge"><title>Node48&#45;&gt;Node49</title>
<path fill="none" stroke="midnightblue" d="M50.3218,-95.8228C64.125,-108.003 89.0825,-128.88 113,-143 116.21,-144.895 119.591,-146.728 123.04,-148.482"/>
<polygon fill="midnightblue" stroke="midnightblue" points="121.732,-151.737 132.26,-152.927 124.772,-145.431 121.732,-151.737"/>
</g>
<!-- Node50 -->
<g id="node3" class="node"><title>Node50</title>
<g id="a_node3"><a xlink:href="unix__time_8c.html#a0fc8c49b1d5626fd003a49270cd23bc9" target="_top" xlink:title="sntp_check_timer_func">
<polygon fill="white" stroke="black" points="113,-114.5 113,-133.5 231,-133.5 231,-114.5 113,-114.5"/>
<text text-anchor="middle" x="172" y="-121.5" font-family="Helvetica,sans-Serif" font-size="10.00">sntp_check_timer_func</text>
</a>
</g>
</g>
<!-- Node48&#45;&gt;Node50 -->
<g id="edge2" class="edge"><title>Node48&#45;&gt;Node50</title>
<path fill="none" stroke="midnightblue" d="M72.683,-95.589C89.5027,-100.449 110.126,-106.409 128.134,-111.613"/>
<polygon fill="midnightblue" stroke="midnightblue" points="127.249,-115 137.828,-114.414 129.192,-108.275 127.249,-115"/>
</g>
<!-- Node52 -->
<g id="node5" class="node"><title>Node52</title>
<g id="a_node5"><a xlink:href="esp-open-lwip_2include_2lwip_2sntp_8h.html#a9b300c6616de60524c85ea40bf70e2ba" target="_top" xlink:title="sntp_init">
<polygon fill="white" stroke="black" points="145.5,-76.5 145.5,-95.5 198.5,-95.5 198.5,-76.5 145.5,-76.5"/>
<text text-anchor="middle" x="172" y="-83.5" font-family="Helvetica,sans-Serif" font-size="10.00">sntp_init</text>
</a>
</g>
</g>
<!-- Node48&#45;&gt;Node52 -->
<g id="edge4" class="edge"><title>Node48&#45;&gt;Node52</title>
<path fill="none" stroke="midnightblue" d="M77.1826,-86C95.4542,-86 117.286,-86 135.29,-86"/>
<polygon fill="midnightblue" stroke="midnightblue" points="135.392,-89.5001 145.392,-86 135.392,-82.5001 135.392,-89.5001"/>
</g>
<!-- Node53 -->
<g id="node6" class="node"><title>Node53</title>
<g id="a_node6"><a xlink:href="esp-open-lwip_2include_2lwip_2sntp_8h.html#abdbe5ed580b63547553ded66ce2e6302" target="_top" xlink:title="sntp_set_timezone">
<polygon fill="white" stroke="black" points="122.5,-38.5 122.5,-57.5 221.5,-57.5 221.5,-38.5 122.5,-38.5"/>
<text text-anchor="middle" x="172" y="-45.5" font-family="Helvetica,sans-Serif" font-size="10.00">sntp_set_timezone</text>
</a>
</g>
</g>
<!-- Node48&#45;&gt;Node53 -->
<g id="edge5" class="edge"><title>Node48&#45;&gt;Node53</title>
<path fill="none" stroke="midnightblue" d="M72.683,-76.411C89.5027,-71.5506 110.126,-65.5909 128.134,-60.3873"/>
<polygon fill="midnightblue" stroke="midnightblue" points="129.192,-63.7246 137.828,-57.5859 127.249,-56.9997 129.192,-63.7246"/>
</g>
<!-- Node54 -->
<g id="node7" class="node"><title>Node54</title>
<g id="a_node7"><a xlink:href="esp-open-lwip_2include_2lwip_2sntp_8h.html#a2da77545ece23ff7077d740072559425" target="_top" xlink:title="sntp_setservername">
<polygon fill="white" stroke="black" points="119.5,-0.5 119.5,-19.5 224.5,-19.5 224.5,-0.5 119.5,-0.5"/>
<text text-anchor="middle" x="172" y="-7.5" font-family="Helvetica,sans-Serif" font-size="10.00">sntp_setservername</text>
</a>
</g>
</g>
<!-- Node48&#45;&gt;Node54 -->
<g id="edge6" class="edge"><title>Node48&#45;&gt;Node54</title>
<path fill="none" stroke="midnightblue" d="M49.6538,-76.2575C63.1469,-63.7736 88.1836,-42.1762 113,-29 117.004,-26.8742 121.289,-24.9283 125.65,-23.1615"/>
<polygon fill="midnightblue" stroke="midnightblue" points="127.095,-26.358 135.238,-19.5796 124.646,-19.8006 127.095,-26.358"/>
</g>
<!-- Node51 -->
<g id="node4" class="node"><title>Node51</title>
<g id="a_node4"><a xlink:href="esp-open-lwip_2include_2lwip_2sntp_8h.html#a557f2d3fcbc53da30e4f1b51ea5842e7" target="_top" xlink:title="sntp_get_current_timestamp">
<polygon fill="white" stroke="black" points="267,-114.5 267,-133.5 407,-133.5 407,-114.5 267,-114.5"/>
<text text-anchor="middle" x="337" y="-121.5" font-family="Helvetica,sans-Serif" font-size="10.00">sntp_get_current_timestamp</text>
</a>
</g>
</g>
<!-- Node50&#45;&gt;Node51 -->
<g id="edge3" class="edge"><title>Node50&#45;&gt;Node51</title>
<path fill="none" stroke="midnightblue" d="M231.386,-124C239.659,-124 248.278,-124 256.863,-124"/>
<polygon fill="midnightblue" stroke="midnightblue" points="256.901,-127.5 266.901,-124 256.901,-120.5 256.901,-127.5"/>
</g>
</g>
</svg>
