<?xml version="1.0" encoding="UTF-8" standalone="no"?>
<!DOCTYPE svg PUBLIC "-//W3C//DTD SVG 1.1//EN"
 "http://www.w3.org/Graphics/SVG/1.1/DTD/svg11.dtd">
<!-- Generated by graphviz version 2.38.0 (20140413.2041)
 -->
<!-- Title: wifi_get_ip_info Pages: 1 -->
<svg width="639pt" height="290pt"
 viewBox="0.00 0.00 639.00 290.00" xmlns="http://www.w3.org/2000/svg" xmlns:xlink="http://www.w3.org/1999/xlink">
<g id="graph0" class="graph" transform="scale(1 1) rotate(0) translate(4 286)">
<title>wifi_get_ip_info</title>
<polygon fill="white" stroke="none" points="-4,4 -4,-286 635,-286 635,4 -4,4"/>
<!-- Node330 -->
<g id="node1" class="node"><title>Node330</title>
<polygon fill="#bfbfbf" stroke="black" points="0,-148.5 0,-167.5 84,-167.5 84,-148.5 0,-148.5"/>
<text text-anchor="middle" x="42" y="-155.5" font-family="Helvetica,sans-Serif" font-size="10.00">wifi_get_ip_info</text>
</g>
<!-- Node331 -->
<g id="node2" class="node"><title>Node331</title>
<g id="a_node2"><a xlink:href="dhcpserver_8c.html#a073fe00851b9b0c98ba76fe19bf6fa83" target="_top" xlink:title="add_offer_options">
<polygon fill="white" stroke="black" points="130,-224.5 130,-243.5 224,-243.5 224,-224.5 130,-224.5"/>
<text text-anchor="middle" x="177" y="-231.5" font-family="Helvetica,sans-Serif" font-size="10.00">add_offer_options</text>
</a>
</g>
</g>
<!-- Node330&#45;&gt;Node331 -->
<g id="edge1" class="edge"><title>Node330&#45;&gt;Node331</title>
<path fill="none" stroke="midnightblue" d="M61.6839,-174.432C76.6311,-186.911 98.566,-203.782 120,-215 127.004,-218.666 134.861,-221.845 142.424,-224.499"/>
<polygon fill="midnightblue" stroke="midnightblue" points="63.6285,-171.49 53.7473,-167.668 59.088,-176.818 63.6285,-171.49"/>
</g>
<!-- Node336 -->
<g id="node7" class="node"><title>Node336</title>
<g id="a_node7"><a xlink:href="captdns_8c.html#a59c9a28ea1f015cff27b9d0c252d15f3" target="_top" xlink:title="captdnsRecv">
<polygon fill="white" stroke="black" points="140,-186.5 140,-205.5 214,-205.5 214,-186.5 140,-186.5"/>
<text text-anchor="middle" x="177" y="-193.5" font-family="Helvetica,sans-Serif" font-size="10.00">captdnsRecv</text>
</a>
</g>
</g>
<!-- Node330&#45;&gt;Node336 -->
<g id="edge7" class="edge"><title>Node330&#45;&gt;Node336</title>
<path fill="none" stroke="midnightblue" d="M86.3669,-170.391C104.581,-175.594 125.439,-181.554 142.449,-186.414"/>
<polygon fill="midnightblue" stroke="midnightblue" points="87.1383,-166.971 76.5615,-167.589 85.2152,-173.702 87.1383,-166.971"/>
</g>
<!-- Node338 -->
<g id="node9" class="node"><title>Node338</title>
<g id="a_node9"><a xlink:href="sdk_2include_2espconn_8h.html#a949cd618667cea85b1b99d14b90dce7d" target="_top" xlink:title="espconn_connect">
<polygon fill="white" stroke="black" points="130.5,-148.5 130.5,-167.5 223.5,-167.5 223.5,-148.5 130.5,-148.5"/>
<text text-anchor="middle" x="177" y="-155.5" font-family="Helvetica,sans-Serif" font-size="10.00">espconn_connect</text>
</a>
</g>
</g>
<!-- Node330&#45;&gt;Node338 -->
<g id="edge10" class="edge"><title>Node330&#45;&gt;Node338</title>
<path fill="none" stroke="midnightblue" d="M94.4488,-158C106.175,-158 118.56,-158 130.04,-158"/>
<polygon fill="midnightblue" stroke="midnightblue" points="94.353,-154.5 84.353,-158 94.3529,-161.5 94.353,-154.5"/>
</g>
<!-- Node339 -->
<g id="node10" class="node"><title>Node339</title>
<g id="a_node10"><a xlink:href="espconn__udp_8c.html#ac52ad5e01c1a769947766d4a890f1cc7" target="_top" xlink:title="espconn_udp_recv">
<polygon fill="white" stroke="black" points="128,-110.5 128,-129.5 226,-129.5 226,-110.5 128,-110.5"/>
<text text-anchor="middle" x="177" y="-117.5" font-family="Helvetica,sans-Serif" font-size="10.00">espconn_udp_recv</text>
</a>
</g>
</g>
<!-- Node330&#45;&gt;Node339 -->
<g id="edge11" class="edge"><title>Node330&#45;&gt;Node339</title>
<path fill="none" stroke="midnightblue" d="M86.3669,-145.609C104.581,-140.406 125.439,-134.446 142.449,-129.586"/>
<polygon fill="midnightblue" stroke="midnightblue" points="85.2152,-142.298 76.5615,-148.411 87.1383,-149.029 85.2152,-142.298"/>
</g>
<!-- Node342 -->
<g id="node13" class="node"><title>Node342</title>
<g id="a_node13"><a xlink:href="user__interface_8h.html#a88284afccfb825d3b47ed45d1a6f26e2" target="_top" xlink:title="wifi_softap_set_dhcps\l_lease">
<polygon fill="white" stroke="black" points="120,-53 120,-83 234,-83 234,-53 120,-53"/>
<text text-anchor="start" x="128" y="-71" font-family="Helvetica,sans-Serif" font-size="10.00">wifi_softap_set_dhcps</text>
<text text-anchor="middle" x="177" y="-60" font-family="Helvetica,sans-Serif" font-size="10.00">_lease</text>
</a>
</g>
</g>
<!-- Node330&#45;&gt;Node342 -->
<g id="edge14" class="edge"><title>Node330&#45;&gt;Node342</title>
<path fill="none" stroke="midnightblue" d="M63.4584,-141.941C78.7373,-130.176 100.293,-114.049 120,-101 129.315,-94.8321 139.8,-88.4995 149.158,-83.052"/>
<polygon fill="midnightblue" stroke="midnightblue" points="61.0057,-139.414 55.2492,-148.309 65.296,-144.946 61.0057,-139.414"/>
</g>
<!-- Node332 -->
<g id="node3" class="node"><title>Node332</title>
<g id="a_node3"><a xlink:href="dhcpserver_8c.html#a024751b98d23fc209015b3ac5a76aae9" target="_top" xlink:title="send_ack">
<polygon fill="white" stroke="black" points="294.5,-262.5 294.5,-281.5 353.5,-281.5 353.5,-262.5 294.5,-262.5"/>
<text text-anchor="middle" x="324" y="-269.5" font-family="Helvetica,sans-Serif" font-size="10.00">send_ack</text>
</a>
</g>
</g>
<!-- Node331&#45;&gt;Node332 -->
<g id="edge2" class="edge"><title>Node331&#45;&gt;Node332</title>
<path fill="none" stroke="midnightblue" d="M224.462,-246.176C247.374,-252.181 274.285,-259.233 294.19,-264.45"/>
<polygon fill="midnightblue" stroke="midnightblue" points="225.15,-242.738 214.59,-243.589 223.376,-249.51 225.15,-242.738"/>
</g>
<!-- Node335 -->
<g id="node6" class="node"><title>Node335</title>
<g id="a_node6"><a xlink:href="dhcpserver_8c.html#aa16cfa7bae7bd0fcb895a8b2513dd60f" target="_top" xlink:title="send_offer">
<polygon fill="white" stroke="black" points="293,-224.5 293,-243.5 355,-243.5 355,-224.5 293,-224.5"/>
<text text-anchor="middle" x="324" y="-231.5" font-family="Helvetica,sans-Serif" font-size="10.00">send_offer</text>
</a>
</g>
</g>
<!-- Node331&#45;&gt;Node335 -->
<g id="edge5" class="edge"><title>Node331&#45;&gt;Node335</title>
<path fill="none" stroke="midnightblue" d="M234.464,-234C254.301,-234 275.824,-234 292.682,-234"/>
<polygon fill="midnightblue" stroke="midnightblue" points="234.278,-230.5 224.278,-234 234.278,-237.5 234.278,-230.5"/>
</g>
<!-- Node333 -->
<g id="node4" class="node"><title>Node333</title>
<g id="a_node4"><a xlink:href="dhcpserver_8c.html#a11489c1fab4206e65914c4c46850d183" target="_top" xlink:title="handle_dhcp">
<polygon fill="white" stroke="black" points="433.5,-243.5 433.5,-262.5 504.5,-262.5 504.5,-243.5 433.5,-243.5"/>
<text text-anchor="middle" x="469" y="-250.5" font-family="Helvetica,sans-Serif" font-size="10.00">handle_dhcp</text>
</a>
</g>
</g>
<!-- Node332&#45;&gt;Node333 -->
<g id="edge3" class="edge"><title>Node332&#45;&gt;Node333</title>
<path fill="none" stroke="midnightblue" d="M363.8,-266.845C385.527,-263.958 412.389,-260.389 433.397,-257.598"/>
<polygon fill="midnightblue" stroke="midnightblue" points="363.046,-263.414 353.594,-268.201 363.968,-270.353 363.046,-263.414"/>
</g>
<!-- Node334 -->
<g id="node5" class="node"><title>Node334</title>
<g id="a_node5"><a xlink:href="dhcpserver_8c.html#aa4cf55564a805b8654630547d365edcd" target="_top" xlink:title="dhcps_start">
<polygon fill="white" stroke="black" points="561.5,-243.5 561.5,-262.5 629.5,-262.5 629.5,-243.5 561.5,-243.5"/>
<text text-anchor="middle" x="595.5" y="-250.5" font-family="Helvetica,sans-Serif" font-size="10.00">dhcps_start</text>
</a>
</g>
</g>
<!-- Node333&#45;&gt;Node334 -->
<g id="edge4" class="edge"><title>Node333&#45;&gt;Node334</title>
<path fill="none" stroke="midnightblue" d="M514.979,-253C530.276,-253 547.085,-253 561.292,-253"/>
<polygon fill="midnightblue" stroke="midnightblue" points="514.68,-249.5 504.68,-253 514.68,-256.5 514.68,-249.5"/>
</g>
<!-- Node335&#45;&gt;Node333 -->
<g id="edge6" class="edge"><title>Node335&#45;&gt;Node333</title>
<path fill="none" stroke="midnightblue" d="M365.438,-239.373C386.883,-242.222 412.956,-245.686 433.446,-248.409"/>
<polygon fill="midnightblue" stroke="midnightblue" points="365.701,-235.877 355.327,-238.029 364.778,-242.816 365.701,-235.877"/>
</g>
<!-- Node337 -->
<g id="node8" class="node"><title>Node337</title>
<g id="a_node8"><a xlink:href="captdns_8h.html#a88f42288d1b84cab204cca9e7f7aa9a3" target="_top" xlink:title="captdnsInit">
<polygon fill="white" stroke="black" points="291.5,-186.5 291.5,-205.5 356.5,-205.5 356.5,-186.5 291.5,-186.5"/>
<text text-anchor="middle" x="324" y="-193.5" font-family="Helvetica,sans-Serif" font-size="10.00">captdnsInit</text>
</a>
</g>
</g>
<!-- Node336&#45;&gt;Node337 -->
<g id="edge8" class="edge"><title>Node336&#45;&gt;Node337</title>
<path fill="none" stroke="midnightblue" d="M224.269,-189.659C246.09,-188.949 271.575,-189.163 291.186,-190.301"/>
<polygon fill="midnightblue" stroke="midnightblue" points="224.066,-186.164 214.216,-190.066 224.349,-193.159 224.066,-186.164"/>
</g>
<!-- Node337&#45;&gt;Node336 -->
<g id="edge9" class="edge"><title>Node337&#45;&gt;Node336</title>
<path fill="none" stroke="midnightblue" d="M281.176,-202.181C260,-203.015 234.544,-202.932 214.216,-201.934"/>
<polygon fill="midnightblue" stroke="midnightblue" points="281.366,-205.676 291.186,-201.699 281.029,-198.685 281.366,-205.676"/>
</g>
<!-- Node340 -->
<g id="node11" class="node"><title>Node340</title>
<g id="a_node11"><a xlink:href="espconn__udp_8c.html#a9bec8b8f0b6b24ef4f29f4294e1f129c" target="_top" xlink:title="espconn_udp_server">
<polygon fill="white" stroke="black" points="270.5,-112.5 270.5,-131.5 377.5,-131.5 377.5,-112.5 270.5,-112.5"/>
<text text-anchor="middle" x="324" y="-119.5" font-family="Helvetica,sans-Serif" font-size="10.00">espconn_udp_server</text>
</a>
</g>
</g>
<!-- Node339&#45;&gt;Node340 -->
<g id="edge12" class="edge"><title>Node339&#45;&gt;Node340</title>
<path fill="none" stroke="midnightblue" d="M236.443,-120.806C247.686,-120.961 259.398,-121.123 270.44,-121.275"/>
<polygon fill="midnightblue" stroke="midnightblue" points="236.33,-117.304 226.283,-120.666 236.234,-124.304 236.33,-117.304"/>
</g>
<!-- Node341 -->
<g id="node12" class="node"><title>Node341</title>
<g id="a_node12"><a xlink:href="sdk_2include_2espconn_8h.html#ad55b9729c7629f40c8e7ae2d73f7f174" target="_top" xlink:title="espconn_create">
<polygon fill="white" stroke="black" points="426,-114.5 426,-133.5 512,-133.5 512,-114.5 426,-114.5"/>
<text text-anchor="middle" x="469" y="-121.5" font-family="Helvetica,sans-Serif" font-size="10.00">espconn_create</text>
</a>
</g>
</g>
<!-- Node340&#45;&gt;Node341 -->
<g id="edge13" class="edge"><title>Node340&#45;&gt;Node341</title>
<path fill="none" stroke="midnightblue" d="M387.952,-122.88C400.697,-123.059 413.809,-123.242 425.638,-123.408"/>
<polygon fill="midnightblue" stroke="midnightblue" points="387.89,-119.379 377.842,-122.739 387.792,-126.379 387.89,-119.379"/>
</g>
<!-- Node343 -->
<g id="node14" class="node"><title>Node343</title>
<g id="a_node14"><a xlink:href="wifi_8c.html#a28b06ff6229540010e142c61c8da1551" target="_top" xlink:title="wifi_softap_ip_config">
<polygon fill="white" stroke="black" points="270,-42.5 270,-61.5 378,-61.5 378,-42.5 270,-42.5"/>
<text text-anchor="middle" x="324" y="-49.5" font-family="Helvetica,sans-Serif" font-size="10.00">wifi_softap_ip_config</text>
</a>
</g>
</g>
<!-- Node342&#45;&gt;Node343 -->
<g id="edge15" class="edge"><title>Node342&#45;&gt;Node343</title>
<path fill="none" stroke="midnightblue" d="M244.128,-60.7031C252.777,-59.7487 261.548,-58.7809 269.943,-57.8546"/>
<polygon fill="midnightblue" stroke="midnightblue" points="243.617,-57.2382 234.061,-61.814 244.384,-64.196 243.617,-57.2382"/>
</g>
<!-- Node344 -->
<g id="node15" class="node"><title>Node344</title>
<g id="a_node15"><a xlink:href="wifi_8c.html#aa87c06c3cbab2aa762551fcec59dc8f0" target="_top" xlink:title="wifi_handle_event_cb">
<polygon fill="white" stroke="black" points="414,-76.5 414,-95.5 524,-95.5 524,-76.5 414,-76.5"/>
<text text-anchor="middle" x="469" y="-83.5" font-family="Helvetica,sans-Serif" font-size="10.00">wifi_handle_event_cb</text>
</a>
</g>
</g>
<!-- Node343&#45;&gt;Node344 -->
<g id="edge16" class="edge"><title>Node343&#45;&gt;Node344</title>
<path fill="none" stroke="midnightblue" d="M375.088,-63.909C392.272,-67.9947 411.274,-72.5127 427.592,-76.3926"/>
<polygon fill="midnightblue" stroke="midnightblue" points="375.752,-60.4695 365.214,-61.5614 374.133,-67.2797 375.752,-60.4695"/>
</g>
<!-- Node346 -->
<g id="node17" class="node"><title>Node346</title>
<g id="a_node17"><a xlink:href="cron_8c.html#a2782af03df9b913cfa565a0770e1afe1" target="_top" xlink:title="minute_timer_func">
<polygon fill="white" stroke="black" points="420.5,-38.5 420.5,-57.5 517.5,-57.5 517.5,-38.5 420.5,-38.5"/>
<text text-anchor="middle" x="469" y="-45.5" font-family="Helvetica,sans-Serif" font-size="10.00">minute_timer_func</text>
</a>
</g>
</g>
<!-- Node343&#45;&gt;Node346 -->
<g id="edge18" class="edge"><title>Node343&#45;&gt;Node346</title>
<path fill="none" stroke="midnightblue" d="M388.426,-50.2258C399.154,-49.9258 410.128,-49.6188 420.364,-49.3325"/>
<polygon fill="midnightblue" stroke="midnightblue" points="388.146,-46.7322 378.248,-50.5105 388.342,-53.7295 388.146,-46.7322"/>
</g>
<!-- Node348 -->
<g id="node19" class="node"><title>Node348</title>
<g id="a_node19"><a xlink:href="mqtt__rpc_8h.html#a1b7add080e121a194a82ca7fc1ac5d6a" target="_top" xlink:title="mqtt_rpc_start_ap">
<polygon fill="white" stroke="black" points="421.5,-0.5 421.5,-19.5 516.5,-19.5 516.5,-0.5 421.5,-0.5"/>
<text text-anchor="middle" x="469" y="-7.5" font-family="Helvetica,sans-Serif" font-size="10.00">mqtt_rpc_start_ap</text>
</a>
</g>
</g>
<!-- Node343&#45;&gt;Node348 -->
<g id="edge20" class="edge"><title>Node343&#45;&gt;Node348</title>
<path fill="none" stroke="midnightblue" d="M367.091,-39.6376C388.83,-33.2528 414.961,-25.5779 435.185,-19.6381"/>
<polygon fill="midnightblue" stroke="midnightblue" points="366.057,-36.2933 357.449,-42.4695 368.03,-43.0096 366.057,-36.2933"/>
</g>
<!-- Node345 -->
<g id="node16" class="node"><title>Node345</title>
<g id="a_node16"><a xlink:href="wifi_8c.html#a574e5442f0b2b8f99c8d157836ab38ba" target="_top" xlink:title="wifi_connect">
<polygon fill="white" stroke="black" points="560,-76.5 560,-95.5 631,-95.5 631,-76.5 560,-76.5"/>
<text text-anchor="middle" x="595.5" y="-83.5" font-family="Helvetica,sans-Serif" font-size="10.00">wifi_connect</text>
</a>
</g>
</g>
<!-- Node344&#45;&gt;Node345 -->
<g id="edge17" class="edge"><title>Node344&#45;&gt;Node345</title>
<path fill="none" stroke="midnightblue" d="M534.474,-86C543.2,-86 551.867,-86 559.789,-86"/>
<polygon fill="midnightblue" stroke="midnightblue" points="534.245,-82.5001 524.245,-86 534.245,-89.5001 534.245,-82.5001"/>
</g>
<!-- Node347 -->
<g id="node18" class="node"><title>Node347</title>
<g id="a_node18"><a xlink:href="cron_8h.html#ae130c5973bad35b56776750c7a34db12" target="_top" xlink:title="cron_init">
<polygon fill="white" stroke="black" points="569,-38.5 569,-57.5 622,-57.5 622,-38.5 569,-38.5"/>
<text text-anchor="middle" x="595.5" y="-45.5" font-family="Helvetica,sans-Serif" font-size="10.00">cron_init</text>
</a>
</g>
</g>
<!-- Node346&#45;&gt;Node347 -->
<g id="edge19" class="edge"><title>Node346&#45;&gt;Node347</title>
<path fill="none" stroke="midnightblue" d="M528.124,-48C542.462,-48 557.094,-48 568.958,-48"/>
<polygon fill="midnightblue" stroke="midnightblue" points="527.779,-44.5001 517.779,-48 527.779,-51.5001 527.779,-44.5001"/>
</g>
</g>
</svg>
