<?xml version="1.0" encoding="UTF-8" standalone="no"?>
<!DOCTYPE svg PUBLIC "-//W3C//DTD SVG 1.1//EN"
 "http://www.w3.org/Graphics/SVG/1.1/DTD/svg11.dtd">
<!-- Generated by graphviz version 2.38.0 (20140413.2041)
 -->
<!-- Title: wifi_softap_dhcps_status Pages: 1 -->
<svg width="691pt" height="235pt"
 viewBox="0.00 0.00 691.00 235.00" xmlns="http://www.w3.org/2000/svg" xmlns:xlink="http://www.w3.org/1999/xlink">
<g id="graph0" class="graph" transform="scale(1 1) rotate(0) translate(4 231)">
<title>wifi_softap_dhcps_status</title>
<polygon fill="white" stroke="none" points="-4,4 -4,-231 687,-231 687,4 -4,4"/>
<!-- Node492 -->
<g id="node1" class="node"><title>Node492</title>
<polygon fill="#bfbfbf" stroke="black" points="0,-104 0,-123 128,-123 128,-104 0,-104"/>
<text text-anchor="middle" x="64" y="-111" font-family="Helvetica,sans-Serif" font-size="10.00">wifi_softap_dhcps_status</text>
</g>
<!-- Node493 -->
<g id="node2" class="node"><title>Node493</title>
<g id="a_node2"><a xlink:href="user__interface_8h.html#ab2a17bcf37d23826044a0fb221188265" target="_top" xlink:title="wifi_softap_get_dhcps\l_lease">
<polygon fill="white" stroke="black" points="168,-196.5 168,-226.5 282,-226.5 282,-196.5 168,-196.5"/>
<text text-anchor="start" x="176" y="-214.5" font-family="Helvetica,sans-Serif" font-size="10.00">wifi_softap_get_dhcps</text>
<text text-anchor="middle" x="225" y="-203.5" font-family="Helvetica,sans-Serif" font-size="10.00">_lease</text>
</a>
</g>
</g>
<!-- Node492&#45;&gt;Node493 -->
<g id="edge1" class="edge"><title>Node492&#45;&gt;Node493</title>
<path fill="none" stroke="midnightblue" d="M83.5905,-129.743C102.76,-145.909 134.003,-170.674 164,-187.5 169.773,-190.738 176.072,-193.759 182.348,-196.49"/>
<polygon fill="midnightblue" stroke="midnightblue" points="85.7923,-127.021 75.9164,-123.184 81.2444,-132.342 85.7923,-127.021"/>
</g>
<!-- Node494 -->
<g id="node3" class="node"><title>Node494</title>
<g id="a_node3"><a xlink:href="user__interface_8h.html#a78ef453f3e627eefd1c5a2ef077cc0b9" target="_top" xlink:title="wifi_softap_reset_dhcps\l_lease_time">
<polygon fill="white" stroke="black" points="164,-147.5 164,-177.5 286,-177.5 286,-147.5 164,-147.5"/>
<text text-anchor="start" x="172" y="-165.5" font-family="Helvetica,sans-Serif" font-size="10.00">wifi_softap_reset_dhcps</text>
<text text-anchor="middle" x="225" y="-154.5" font-family="Helvetica,sans-Serif" font-size="10.00">_lease_time</text>
</a>
</g>
</g>
<!-- Node492&#45;&gt;Node494 -->
<g id="edge2" class="edge"><title>Node492&#45;&gt;Node494</title>
<path fill="none" stroke="midnightblue" d="M105.7,-126.043C126.886,-132.572 152.944,-140.602 175.207,-147.463"/>
<polygon fill="midnightblue" stroke="midnightblue" points="106.622,-122.664 96.0343,-123.064 104.56,-129.354 106.622,-122.664"/>
</g>
<!-- Node495 -->
<g id="node4" class="node"><title>Node495</title>
<g id="a_node4"><a xlink:href="user__interface_8h.html#a88284afccfb825d3b47ed45d1a6f26e2" target="_top" xlink:title="wifi_softap_set_dhcps\l_lease">
<polygon fill="white" stroke="black" points="168,-98.5 168,-128.5 282,-128.5 282,-98.5 168,-98.5"/>
<text text-anchor="start" x="176" y="-116.5" font-family="Helvetica,sans-Serif" font-size="10.00">wifi_softap_set_dhcps</text>
<text text-anchor="middle" x="225" y="-105.5" font-family="Helvetica,sans-Serif" font-size="10.00">_lease</text>
</a>
</g>
</g>
<!-- Node492&#45;&gt;Node495 -->
<g id="edge3" class="edge"><title>Node492&#45;&gt;Node495</title>
<path fill="none" stroke="midnightblue" d="M138.508,-113.5C148.373,-113.5 158.362,-113.5 167.863,-113.5"/>
<polygon fill="midnightblue" stroke="midnightblue" points="138.298,-110 128.298,-113.5 138.298,-117 138.298,-110"/>
</g>
<!-- Node502 -->
<g id="node11" class="node"><title>Node502</title>
<g id="a_node11"><a xlink:href="user__interface_8h.html#a4d2c217a01e271ce74a00a32a6e5187f" target="_top" xlink:title="wifi_softap_set_dhcps\l_lease_time">
<polygon fill="white" stroke="black" points="168,-49.5 168,-79.5 282,-79.5 282,-49.5 168,-49.5"/>
<text text-anchor="start" x="176" y="-67.5" font-family="Helvetica,sans-Serif" font-size="10.00">wifi_softap_set_dhcps</text>
<text text-anchor="middle" x="225" y="-56.5" font-family="Helvetica,sans-Serif" font-size="10.00">_lease_time</text>
</a>
</g>
</g>
<!-- Node492&#45;&gt;Node502 -->
<g id="edge10" class="edge"><title>Node492&#45;&gt;Node502</title>
<path fill="none" stroke="midnightblue" d="M105.7,-100.957C126.886,-94.4281 152.944,-86.3976 175.207,-79.537"/>
<polygon fill="midnightblue" stroke="midnightblue" points="104.56,-97.6461 96.0343,-103.936 106.622,-104.336 104.56,-97.6461"/>
</g>
<!-- Node503 -->
<g id="node12" class="node"><title>Node503</title>
<g id="a_node12"><a xlink:href="user__interface_8h.html#aab0a8265f075049245fa284051e9ee24" target="_top" xlink:title="wifi_softap_set_dhcps\l_offer_option">
<polygon fill="white" stroke="black" points="168,-0.5 168,-30.5 282,-30.5 282,-0.5 168,-0.5"/>
<text text-anchor="start" x="176" y="-18.5" font-family="Helvetica,sans-Serif" font-size="10.00">wifi_softap_set_dhcps</text>
<text text-anchor="middle" x="225" y="-7.5" font-family="Helvetica,sans-Serif" font-size="10.00">_offer_option</text>
</a>
</g>
</g>
<!-- Node492&#45;&gt;Node503 -->
<g id="edge11" class="edge"><title>Node492&#45;&gt;Node503</title>
<path fill="none" stroke="midnightblue" d="M83.9933,-97.3272C103.257,-81.4599 134.375,-57.2692 164,-40.5 170.285,-36.9423 177.178,-33.6009 183.981,-30.5901"/>
<polygon fill="midnightblue" stroke="midnightblue" points="81.7015,-94.6811 76.263,-103.774 86.1846,-100.057 81.7015,-94.6811"/>
</g>
<!-- Node496 -->
<g id="node5" class="node"><title>Node496</title>
<g id="a_node5"><a xlink:href="wifi_8c.html#a28b06ff6229540010e142c61c8da1551" target="_top" xlink:title="wifi_softap_ip_config">
<polygon fill="white" stroke="black" points="322,-104 322,-123 430,-123 430,-104 322,-104"/>
<text text-anchor="middle" x="376" y="-111" font-family="Helvetica,sans-Serif" font-size="10.00">wifi_softap_ip_config</text>
</a>
</g>
</g>
<!-- Node495&#45;&gt;Node496 -->
<g id="edge4" class="edge"><title>Node495&#45;&gt;Node496</title>
<path fill="none" stroke="midnightblue" d="M292.399,-113.5C302.152,-113.5 312.094,-113.5 321.543,-113.5"/>
<polygon fill="midnightblue" stroke="midnightblue" points="292.331,-110 282.331,-113.5 292.33,-117 292.331,-110"/>
</g>
<!-- Node497 -->
<g id="node6" class="node"><title>Node497</title>
<g id="a_node6"><a xlink:href="wifi_8c.html#aa87c06c3cbab2aa762551fcec59dc8f0" target="_top" xlink:title="wifi_handle_event_cb">
<polygon fill="white" stroke="black" points="466,-142 466,-161 576,-161 576,-142 466,-142"/>
<text text-anchor="middle" x="521" y="-149" font-family="Helvetica,sans-Serif" font-size="10.00">wifi_handle_event_cb</text>
</a>
</g>
</g>
<!-- Node496&#45;&gt;Node497 -->
<g id="edge5" class="edge"><title>Node496&#45;&gt;Node497</title>
<path fill="none" stroke="midnightblue" d="M422.813,-125.674C442.587,-130.929 465.384,-136.987 483.927,-141.914"/>
<polygon fill="midnightblue" stroke="midnightblue" points="423.648,-122.275 413.085,-123.089 421.851,-129.04 423.648,-122.275"/>
</g>
<!-- Node499 -->
<g id="node8" class="node"><title>Node499</title>
<g id="a_node8"><a xlink:href="cron_8c.html#a2782af03df9b913cfa565a0770e1afe1" target="_top" xlink:title="minute_timer_func">
<polygon fill="white" stroke="black" points="472.5,-104 472.5,-123 569.5,-123 569.5,-104 472.5,-104"/>
<text text-anchor="middle" x="521" y="-111" font-family="Helvetica,sans-Serif" font-size="10.00">minute_timer_func</text>
</a>
</g>
</g>
<!-- Node496&#45;&gt;Node499 -->
<g id="edge7" class="edge"><title>Node496&#45;&gt;Node499</title>
<path fill="none" stroke="midnightblue" d="M440.426,-113.5C451.154,-113.5 462.128,-113.5 472.364,-113.5"/>
<polygon fill="midnightblue" stroke="midnightblue" points="440.248,-110 430.248,-113.5 440.248,-117 440.248,-110"/>
</g>
<!-- Node501 -->
<g id="node10" class="node"><title>Node501</title>
<g id="a_node10"><a xlink:href="mqtt__rpc_8h.html#a1b7add080e121a194a82ca7fc1ac5d6a" target="_top" xlink:title="mqtt_rpc_start_ap">
<polygon fill="white" stroke="black" points="473.5,-66 473.5,-85 568.5,-85 568.5,-66 473.5,-66"/>
<text text-anchor="middle" x="521" y="-73" font-family="Helvetica,sans-Serif" font-size="10.00">mqtt_rpc_start_ap</text>
</a>
</g>
</g>
<!-- Node496&#45;&gt;Node501 -->
<g id="edge9" class="edge"><title>Node496&#45;&gt;Node501</title>
<path fill="none" stroke="midnightblue" d="M422.813,-101.326C442.587,-96.0713 465.384,-90.0134 483.927,-85.0859"/>
<polygon fill="midnightblue" stroke="midnightblue" points="421.851,-97.9601 413.085,-103.911 423.648,-104.725 421.851,-97.9601"/>
</g>
<!-- Node498 -->
<g id="node7" class="node"><title>Node498</title>
<g id="a_node7"><a xlink:href="wifi_8c.html#a574e5442f0b2b8f99c8d157836ab38ba" target="_top" xlink:title="wifi_connect">
<polygon fill="white" stroke="black" points="612,-142 612,-161 683,-161 683,-142 612,-142"/>
<text text-anchor="middle" x="647.5" y="-149" font-family="Helvetica,sans-Serif" font-size="10.00">wifi_connect</text>
</a>
</g>
</g>
<!-- Node497&#45;&gt;Node498 -->
<g id="edge6" class="edge"><title>Node497&#45;&gt;Node498</title>
<path fill="none" stroke="midnightblue" d="M586.474,-151.5C595.2,-151.5 603.867,-151.5 611.789,-151.5"/>
<polygon fill="midnightblue" stroke="midnightblue" points="586.245,-148 576.245,-151.5 586.245,-155 586.245,-148"/>
</g>
<!-- Node500 -->
<g id="node9" class="node"><title>Node500</title>
<g id="a_node9"><a xlink:href="cron_8h.html#ae130c5973bad35b56776750c7a34db12" target="_top" xlink:title="cron_init">
<polygon fill="white" stroke="black" points="621,-104 621,-123 674,-123 674,-104 621,-104"/>
<text text-anchor="middle" x="647.5" y="-111" font-family="Helvetica,sans-Serif" font-size="10.00">cron_init</text>
</a>
</g>
</g>
<!-- Node499&#45;&gt;Node500 -->
<g id="edge8" class="edge"><title>Node499&#45;&gt;Node500</title>
<path fill="none" stroke="midnightblue" d="M580.124,-113.5C594.462,-113.5 609.094,-113.5 620.958,-113.5"/>
<polygon fill="midnightblue" stroke="midnightblue" points="579.779,-110 569.779,-113.5 579.779,-117 579.779,-110"/>
</g>
</g>
</svg>
