<?xml version="1.0" encoding="UTF-8" standalone="no"?>
<!DOCTYPE svg PUBLIC "-//W3C//DTD SVG 1.1//EN"
 "http://www.w3.org/Graphics/SVG/1.1/DTD/svg11.dtd">
<!-- Generated by graphviz version 2.38.0 (20140413.2041)
 -->
<!-- Title: system_show_malloc Pages: 1 -->
<svg width="383pt" height="28pt"
 viewBox="0.00 0.00 383.00 28.00" xmlns="http://www.w3.org/2000/svg" xmlns:xlink="http://www.w3.org/1999/xlink">
<g id="graph0" class="graph" transform="scale(1 1) rotate(0) translate(4 24)">
<title>system_show_malloc</title>
<polygon fill="white" stroke="none" points="-4,4 -4,-24 379,-24 379,4 -4,4"/>
<!-- Node254 -->
<g id="node1" class="node"><title>Node254</title>
<polygon fill="#bfbfbf" stroke="black" points="0,-0.5 0,-19.5 111,-19.5 111,-0.5 0,-0.5"/>
<text text-anchor="middle" x="55.5" y="-7.5" font-family="Helvetica,sans-Serif" font-size="10.00">system_show_malloc</text>
</g>
<!-- Node255 -->
<g id="node2" class="node"><title>Node255</title>
<g id="a_node2"><a xlink:href="kmp__request_8c.html#a3f6b790a06b933b78f40ade5e9a16131" target="_top" xlink:title="kmp_received_task">
<polygon fill="white" stroke="black" points="147,-0.5 147,-19.5 248,-19.5 248,-0.5 147,-0.5"/>
<text text-anchor="middle" x="197.5" y="-7.5" font-family="Helvetica,sans-Serif" font-size="10.00">kmp_received_task</text>
</a>
</g>
</g>
<!-- Node254&#45;&gt;Node255 -->
<g id="edge1" class="edge"><title>Node254&#45;&gt;Node255</title>
<path fill="none" stroke="midnightblue" d="M121.12,-10C129.787,-10 138.564,-10 146.917,-10"/>
<polygon fill="midnightblue" stroke="midnightblue" points="121.029,-6.5001 111.029,-10 121.028,-13.5001 121.029,-6.5001"/>
</g>
<!-- Node256 -->
<g id="node3" class="node"><title>Node256</title>
<g id="a_node3"><a xlink:href="kmp__request_8h.html#a048753ff9d6b448e2dcd8c85db0d6873" target="_top" xlink:title="kmp_request_init">
<polygon fill="white" stroke="black" points="284,-0.5 284,-19.5 375,-19.5 375,-0.5 284,-0.5"/>
<text text-anchor="middle" x="329.5" y="-7.5" font-family="Helvetica,sans-Serif" font-size="10.00">kmp_request_init</text>
</a>
</g>
</g>
<!-- Node255&#45;&gt;Node256 -->
<g id="edge2" class="edge"><title>Node255&#45;&gt;Node256</title>
<path fill="none" stroke="midnightblue" d="M258.081,-10C266.734,-10 275.517,-10 283.81,-10"/>
<polygon fill="midnightblue" stroke="midnightblue" points="258.018,-6.5001 248.018,-10 258.018,-13.5001 258.018,-6.5001"/>
</g>
</g>
</svg>
