<?xml version="1.0" encoding="UTF-8" standalone="no"?>
<!DOCTYPE svg PUBLIC "-//W3C//DTD SVG 1.1//EN"
 "http://www.w3.org/Graphics/SVG/1.1/DTD/svg11.dtd">
<!-- Generated by graphviz version 2.38.0 (20140413.2041)
 -->
<!-- Title: wifi_set_opmode_current Pages: 1 -->
<svg width="1400pt" height="370pt"
 viewBox="0.00 0.00 1400.00 370.00" xmlns="http://www.w3.org/2000/svg" xmlns:xlink="http://www.w3.org/1999/xlink">
<g id="graph0" class="graph" transform="scale(1 1) rotate(0) translate(4 366)">
<title>wifi_set_opmode_current</title>
<polygon fill="white" stroke="none" points="-4,4 -4,-366 1396,-366 1396,4 -4,4"/>
<!-- Node438 -->
<g id="node1" class="node"><title>Node438</title>
<polygon fill="#bfbfbf" stroke="black" points="0,-209.5 0,-228.5 125,-228.5 125,-209.5 0,-209.5"/>
<text text-anchor="middle" x="62.5" y="-216.5" font-family="Helvetica,sans-Serif" font-size="10.00">wifi_set_opmode_current</text>
</g>
<!-- Node439 -->
<g id="node2" class="node"><title>Node439</title>
<g id="a_node2"><a xlink:href="cron_8c.html#a2782af03df9b913cfa565a0770e1afe1" target="_top" xlink:title="minute_timer_func">
<polygon fill="white" stroke="black" points="172,-342.5 172,-361.5 269,-361.5 269,-342.5 172,-342.5"/>
<text text-anchor="middle" x="220.5" y="-349.5" font-family="Helvetica,sans-Serif" font-size="10.00">minute_timer_func</text>
</a>
</g>
</g>
<!-- Node438&#45;&gt;Node439 -->
<g id="edge1" class="edge"><title>Node438&#45;&gt;Node439</title>
<path fill="none" stroke="midnightblue" d="M74.3389,-237.035C90.2856,-262.084 122.396,-307.228 161,-333 166.773,-336.854 173.385,-339.976 180.039,-342.489"/>
<polygon fill="midnightblue" stroke="midnightblue" points="77.2879,-235.149 69.0388,-228.5 71.3413,-238.842 77.2879,-235.149"/>
</g>
<!-- Node441 -->
<g id="node4" class="node"><title>Node441</title>
<g id="a_node4"><a xlink:href="mqtt__rpc_8h.html#a1b7add080e121a194a82ca7fc1ac5d6a" target="_top" xlink:title="mqtt_rpc_start_ap">
<polygon fill="white" stroke="black" points="173,-304.5 173,-323.5 268,-323.5 268,-304.5 173,-304.5"/>
<text text-anchor="middle" x="220.5" y="-311.5" font-family="Helvetica,sans-Serif" font-size="10.00">mqtt_rpc_start_ap</text>
</a>
</g>
</g>
<!-- Node438&#45;&gt;Node441 -->
<g id="edge3" class="edge"><title>Node438&#45;&gt;Node441</title>
<path fill="none" stroke="midnightblue" d="M80.8538,-235.614C99.3952,-252.585 130.287,-278.694 161,-295 167.979,-298.705 175.812,-301.856 183.421,-304.464"/>
<polygon fill="midnightblue" stroke="midnightblue" points="83.1777,-232.995 73.4744,-228.741 78.4069,-238.117 83.1777,-232.995"/>
</g>
<!-- Node442 -->
<g id="node5" class="node"><title>Node442</title>
<g id="a_node5"><a xlink:href="mqtt__rpc_8h.html#a3430aad3243898c167f694b4ad6e5cfd" target="_top" xlink:title="mqtt_rpc_stop_ap">
<polygon fill="white" stroke="black" points="173,-266.5 173,-285.5 268,-285.5 268,-266.5 173,-266.5"/>
<text text-anchor="middle" x="220.5" y="-273.5" font-family="Helvetica,sans-Serif" font-size="10.00">mqtt_rpc_stop_ap</text>
</a>
</g>
</g>
<!-- Node438&#45;&gt;Node442 -->
<g id="edge4" class="edge"><title>Node438&#45;&gt;Node442</title>
<path fill="none" stroke="midnightblue" d="M96.3205,-232.335C115.149,-239.849 139.29,-249.251 161,-257 170.051,-260.231 179.969,-263.538 189.025,-266.469"/>
<polygon fill="midnightblue" stroke="midnightblue" points="97.5836,-229.071 86.9994,-228.597 94.9781,-235.568 97.5836,-229.071"/>
</g>
<!-- Node443 -->
<g id="node6" class="node"><title>Node443</title>
<g id="a_node6"><a xlink:href="utils_8h.html#abc584694613811efea7c661c9dcefe17" target="_top" xlink:title="system_restart_defered">
<polygon fill="white" stroke="black" points="161,-228.5 161,-247.5 280,-247.5 280,-228.5 161,-228.5"/>
<text text-anchor="middle" x="220.5" y="-235.5" font-family="Helvetica,sans-Serif" font-size="10.00">system_restart_defered</text>
</a>
</g>
</g>
<!-- Node438&#45;&gt;Node443 -->
<g id="edge5" class="edge"><title>Node438&#45;&gt;Node443</title>
<path fill="none" stroke="midnightblue" d="M135.17,-227.729C143.762,-228.776 152.458,-229.835 160.836,-230.855"/>
<polygon fill="midnightblue" stroke="midnightblue" points="135.505,-224.244 125.155,-226.509 134.659,-231.193 135.505,-224.244"/>
</g>
<!-- Node447 -->
<g id="node10" class="node"><title>Node447</title>
<g id="a_node10"><a xlink:href="wifi_8c.html#a574e5442f0b2b8f99c8d157836ab38ba" target="_top" xlink:title="wifi_connect">
<polygon fill="white" stroke="black" points="1321,-133.5 1321,-152.5 1392,-152.5 1392,-133.5 1321,-133.5"/>
<text text-anchor="middle" x="1356.5" y="-140.5" font-family="Helvetica,sans-Serif" font-size="10.00">wifi_connect</text>
</a>
</g>
</g>
<!-- Node438&#45;&gt;Node447 -->
<g id="edge9" class="edge"><title>Node438&#45;&gt;Node447</title>
<path fill="none" stroke="midnightblue" d="M135.509,-211.907C196.54,-206.509 286.417,-200 365,-200 365,-200 365,-200 1085,-200 1175.95,-200 1280.47,-168.767 1328.64,-152.541"/>
<polygon fill="midnightblue" stroke="midnightblue" points="134.861,-208.451 125.214,-212.831 135.487,-215.423 134.861,-208.451"/>
</g>
<!-- Node448 -->
<g id="node11" class="node"><title>Node448</title>
<g id="a_node11"><a xlink:href="wifi_8c.html#a0be23fd8148c6a3abf21c739359bed52" target="_top" xlink:title="wifi_default">
<polygon fill="white" stroke="black" points="187.5,-114.5 187.5,-133.5 253.5,-133.5 253.5,-114.5 187.5,-114.5"/>
<text text-anchor="middle" x="220.5" y="-121.5" font-family="Helvetica,sans-Serif" font-size="10.00">wifi_default</text>
</a>
</g>
</g>
<!-- Node438&#45;&gt;Node448 -->
<g id="edge10" class="edge"><title>Node438&#45;&gt;Node448</title>
<path fill="none" stroke="midnightblue" d="M80.8538,-202.386C99.3952,-185.415 130.287,-159.306 161,-143 169.206,-138.644 178.59,-135.054 187.405,-132.213"/>
<polygon fill="midnightblue" stroke="midnightblue" points="78.4069,-199.883 73.4744,-209.259 83.1777,-205.005 78.4069,-199.883"/>
</g>
<!-- Node456 -->
<g id="node19" class="node"><title>Node456</title>
<g id="a_node19"><a xlink:href="watchdog_8c.html#a47b6861ffbed37fef88aa644f10ba917" target="_top" xlink:title="wifi_reconnect_timer_func">
<polygon fill="white" stroke="black" points="723.5,-38.5 723.5,-57.5 854.5,-57.5 854.5,-38.5 723.5,-38.5"/>
<text text-anchor="middle" x="789" y="-45.5" font-family="Helvetica,sans-Serif" font-size="10.00">wifi_reconnect_timer_func</text>
</a>
</g>
</g>
<!-- Node438&#45;&gt;Node456 -->
<g id="edge33" class="edge"><title>Node438&#45;&gt;Node456</title>
<path fill="none" stroke="midnightblue" d="M75.29,-200.872C91.9342,-176.435 124.403,-132.794 161,-105 240.649,-44.5086 264.984,-10 365,-10 365,-10 365,-10 507.5,-10 592.026,-10 689.592,-27.1538 744.52,-38.411"/>
<polygon fill="midnightblue" stroke="midnightblue" points="72.355,-198.964 69.7102,-209.224 78.1756,-202.853 72.355,-198.964"/>
</g>
<!-- Node462 -->
<g id="node25" class="node"><title>Node462</title>
<g id="a_node25"><a xlink:href="wifi_8c.html#ac4389ba687a71cbb616f05b02427eb2a" target="_top" xlink:title="wifi_fallback">
<polygon fill="white" stroke="black" points="185,-152.5 185,-171.5 256,-171.5 256,-152.5 185,-152.5"/>
<text text-anchor="middle" x="220.5" y="-159.5" font-family="Helvetica,sans-Serif" font-size="10.00">wifi_fallback</text>
</a>
</g>
</g>
<!-- Node438&#45;&gt;Node462 -->
<g id="edge31" class="edge"><title>Node438&#45;&gt;Node462</title>
<path fill="none" stroke="midnightblue" d="M99.2582,-205.935C127.933,-195.457 167.514,-180.995 193.304,-171.572"/>
<polygon fill="midnightblue" stroke="midnightblue" points="97.8024,-202.74 89.6109,-209.459 100.205,-209.315 97.8024,-202.74"/>
</g>
<!-- Node440 -->
<g id="node3" class="node"><title>Node440</title>
<g id="a_node3"><a xlink:href="cron_8h.html#ae130c5973bad35b56776750c7a34db12" target="_top" xlink:title="cron_init">
<polygon fill="white" stroke="black" points="339.5,-342.5 339.5,-361.5 392.5,-361.5 392.5,-342.5 339.5,-342.5"/>
<text text-anchor="middle" x="366" y="-349.5" font-family="Helvetica,sans-Serif" font-size="10.00">cron_init</text>
</a>
</g>
</g>
<!-- Node439&#45;&gt;Node440 -->
<g id="edge2" class="edge"><title>Node439&#45;&gt;Node440</title>
<path fill="none" stroke="midnightblue" d="M279.315,-352C300.08,-352 322.465,-352 339.146,-352"/>
<polygon fill="midnightblue" stroke="midnightblue" points="279.283,-348.5 269.283,-352 279.283,-355.5 279.283,-348.5"/>
</g>
<!-- Node444 -->
<g id="node7" class="node"><title>Node444</title>
<g id="a_node7"><a xlink:href="cgiwifi_8c.html#a9d53126c0a5bdeb1318f081f1cca3a84" target="_top" xlink:title="resetTimerCb">
<polygon fill="white" stroke="black" points="328,-266.5 328,-285.5 404,-285.5 404,-266.5 328,-266.5"/>
<text text-anchor="middle" x="366" y="-273.5" font-family="Helvetica,sans-Serif" font-size="10.00">resetTimerCb</text>
</a>
</g>
</g>
<!-- Node443&#45;&gt;Node444 -->
<g id="edge6" class="edge"><title>Node443&#45;&gt;Node444</title>
<path fill="none" stroke="midnightblue" d="M267.473,-250.174C287.316,-255.429 310.193,-261.487 328.8,-266.414"/>
<polygon fill="midnightblue" stroke="midnightblue" points="268.274,-246.766 257.711,-247.589 266.482,-253.532 268.274,-246.766"/>
</g>
<!-- Node446 -->
<g id="node9" class="node"><title>Node446</title>
<g id="a_node9"><a xlink:href="mqtt__rpc_8h.html#ae3c71a438ecea4bb271bd1586af59452" target="_top" xlink:title="mqtt_rpc_restart">
<polygon fill="white" stroke="black" points="322,-228.5 322,-247.5 410,-247.5 410,-228.5 322,-228.5"/>
<text text-anchor="middle" x="366" y="-235.5" font-family="Helvetica,sans-Serif" font-size="10.00">mqtt_rpc_restart</text>
</a>
</g>
</g>
<!-- Node443&#45;&gt;Node446 -->
<g id="edge8" class="edge"><title>Node443&#45;&gt;Node446</title>
<path fill="none" stroke="midnightblue" d="M290.491,-238C301.199,-238 311.989,-238 321.906,-238"/>
<polygon fill="midnightblue" stroke="midnightblue" points="290.281,-234.5 280.281,-238 290.281,-241.5 290.281,-234.5"/>
</g>
<!-- Node445 -->
<g id="node8" class="node"><title>Node445</title>
<g id="a_node8"><a xlink:href="cgiwifi_8h.html#a7c655a56f56ecebad923c5c4daeb7f1a" target="_top" xlink:title="cgiSetup">
<polygon fill="white" stroke="black" points="479,-266.5 479,-285.5 534,-285.5 534,-266.5 479,-266.5"/>
<text text-anchor="middle" x="506.5" y="-273.5" font-family="Helvetica,sans-Serif" font-size="10.00">cgiSetup</text>
</a>
</g>
</g>
<!-- Node444&#45;&gt;Node445 -->
<g id="edge7" class="edge"><title>Node444&#45;&gt;Node445</title>
<path fill="none" stroke="midnightblue" d="M414.39,-276C435.919,-276 460.589,-276 478.824,-276"/>
<polygon fill="midnightblue" stroke="midnightblue" points="414.115,-272.5 404.115,-276 414.115,-279.5 414.115,-272.5"/>
</g>
<!-- Node449 -->
<g id="node12" class="node"><title>Node449</title>
<g id="a_node12"><a xlink:href="wifi_8c.html#a1ef15ecd9e69811f6db10215c7196281" target="_top" xlink:title="wifi_scan_done_cb">
<polygon fill="white" stroke="black" points="316,-114.5 316,-133.5 416,-133.5 416,-114.5 316,-114.5"/>
<text text-anchor="middle" x="366" y="-121.5" font-family="Helvetica,sans-Serif" font-size="10.00">wifi_scan_done_cb</text>
</a>
</g>
</g>
<!-- Node448&#45;&gt;Node449 -->
<g id="edge11" class="edge"><title>Node448&#45;&gt;Node449</title>
<path fill="none" stroke="midnightblue" d="M264.034,-124C280.354,-124 299.107,-124 315.987,-124"/>
<polygon fill="midnightblue" stroke="midnightblue" points="263.704,-120.5 253.704,-124 263.704,-127.5 263.704,-120.5"/>
</g>
<!-- Node448&#45;&gt;Node456 -->
<g id="edge30" class="edge"><title>Node448&#45;&gt;Node456</title>
<path fill="none" stroke="midnightblue" d="M263.569,-114.942C279.898,-111.584 298.78,-107.892 316,-105 460.688,-80.6971 632.004,-62.6631 723.216,-53.9091"/>
<polygon fill="midnightblue" stroke="midnightblue" points="262.848,-111.517 253.77,-116.979 264.274,-118.37 262.848,-111.517"/>
</g>
<!-- Node450 -->
<g id="node13" class="node"><title>Node450</title>
<g id="a_node13"><a xlink:href="wifi_8c.html#ae7011f25db54676b86fefe2caa450a4a" target="_top" xlink:title="wifi_scan_timer_func">
<polygon fill="white" stroke="black" points="452,-114.5 452,-133.5 561,-133.5 561,-114.5 452,-114.5"/>
<text text-anchor="middle" x="506.5" y="-121.5" font-family="Helvetica,sans-Serif" font-size="10.00">wifi_scan_timer_func</text>
</a>
</g>
</g>
<!-- Node449&#45;&gt;Node450 -->
<g id="edge12" class="edge"><title>Node449&#45;&gt;Node450</title>
<path fill="none" stroke="midnightblue" d="M426.367,-124C434.795,-124 443.422,-124 451.735,-124"/>
<polygon fill="midnightblue" stroke="midnightblue" points="426.22,-120.5 416.22,-124 426.22,-127.5 426.22,-120.5"/>
</g>
<!-- Node451 -->
<g id="node14" class="node"><title>Node451</title>
<g id="a_node14"><a xlink:href="wifi_8c.html#a0d197abbbedf42c0522e20b43884c920" target="_top" xlink:title="acl_check_packet">
<polygon fill="white" stroke="black" points="898,-133.5 898,-152.5 993,-152.5 993,-133.5 898,-133.5"/>
<text text-anchor="middle" x="945.5" y="-140.5" font-family="Helvetica,sans-Serif" font-size="10.00">acl_check_packet</text>
</a>
</g>
</g>
<!-- Node450&#45;&gt;Node451 -->
<g id="edge13" class="edge"><title>Node450&#45;&gt;Node451</title>
<path fill="none" stroke="midnightblue" d="M571.341,-134.888C579.947,-136.091 588.676,-137.177 597,-138 704.327,-148.615 831.195,-146.844 897.988,-144.809"/>
<polygon fill="midnightblue" stroke="midnightblue" points="571.727,-131.407 561.327,-133.43 570.719,-138.334 571.727,-131.407"/>
</g>
<!-- Node454 -->
<g id="node17" class="node"><title>Node454</title>
<g id="a_node17"><a xlink:href="wifi_8c.html#a2d61a3854e1f7d67dcbcb0c7da23c8cc" target="_top" xlink:title="wifi_start_scan">
<polygon fill="white" stroke="black" points="597,-76.5 597,-95.5 680,-95.5 680,-76.5 597,-76.5"/>
<text text-anchor="middle" x="638.5" y="-83.5" font-family="Helvetica,sans-Serif" font-size="10.00">wifi_start_scan</text>
</a>
</g>
</g>
<!-- Node450&#45;&gt;Node454 -->
<g id="edge17" class="edge"><title>Node450&#45;&gt;Node454</title>
<path fill="none" stroke="midnightblue" d="M533.818,-110.758C551.897,-104.189 576.252,-96.8156 596.814,-91.5813"/>
<polygon fill="midnightblue" stroke="midnightblue" points="532.33,-107.579 524.229,-114.408 534.82,-114.121 532.33,-107.579"/>
</g>
<!-- Node452 -->
<g id="node15" class="node"><title>Node452</title>
<g id="a_node15"><a xlink:href="wifi_8c.html#a3cea38a15b267ddabc1e6d5cf72b5ae8" target="_top" xlink:title="my_input_ap">
<polygon fill="white" stroke="black" points="1048,-133.5 1048,-152.5 1120,-152.5 1120,-133.5 1048,-133.5"/>
<text text-anchor="middle" x="1084" y="-140.5" font-family="Helvetica,sans-Serif" font-size="10.00">my_input_ap</text>
</a>
</g>
</g>
<!-- Node451&#45;&gt;Node452 -->
<g id="edge14" class="edge"><title>Node451&#45;&gt;Node452</title>
<path fill="none" stroke="midnightblue" d="M1003.37,-143C1018.44,-143 1034.28,-143 1047.82,-143"/>
<polygon fill="midnightblue" stroke="midnightblue" points="1003.09,-139.5 993.094,-143 1003.09,-146.5 1003.09,-139.5"/>
</g>
<!-- Node453 -->
<g id="node16" class="node"><title>Node453</title>
<g id="a_node16"><a xlink:href="wifi_8c.html#aa87c06c3cbab2aa762551fcec59dc8f0" target="_top" xlink:title="wifi_handle_event_cb">
<polygon fill="white" stroke="black" points="1175,-133.5 1175,-152.5 1285,-152.5 1285,-133.5 1175,-133.5"/>
<text text-anchor="middle" x="1230" y="-140.5" font-family="Helvetica,sans-Serif" font-size="10.00">wifi_handle_event_cb</text>
</a>
</g>
</g>
<!-- Node452&#45;&gt;Node453 -->
<g id="edge15" class="edge"><title>Node452&#45;&gt;Node453</title>
<path fill="none" stroke="midnightblue" d="M1130.61,-143C1144.64,-143 1160.22,-143 1174.77,-143"/>
<polygon fill="midnightblue" stroke="midnightblue" points="1130.23,-139.5 1120.23,-143 1130.23,-146.5 1130.23,-139.5"/>
</g>
<!-- Node453&#45;&gt;Node447 -->
<g id="edge16" class="edge"><title>Node453&#45;&gt;Node447</title>
<path fill="none" stroke="midnightblue" d="M1295.47,-143C1304.2,-143 1312.87,-143 1320.79,-143"/>
<polygon fill="midnightblue" stroke="midnightblue" points="1295.25,-139.5 1285.25,-143 1295.25,-146.5 1295.25,-139.5"/>
</g>
<!-- Node454&#45;&gt;Node447 -->
<g id="edge23" class="edge"><title>Node454&#45;&gt;Node447</title>
<path fill="none" stroke="midnightblue" d="M690.51,-86C751.078,-86 855.151,-86 944.5,-86 944.5,-86 944.5,-86 1085,-86 1175.95,-86 1280.47,-117.233 1328.64,-133.459"/>
<polygon fill="midnightblue" stroke="midnightblue" points="690.446,-82.5001 680.446,-86 690.446,-89.5001 690.446,-82.5001"/>
</g>
<!-- Node454&#45;&gt;Node449 -->
<g id="edge22" class="edge"><title>Node454&#45;&gt;Node449</title>
<path fill="none" stroke="midnightblue" d="M586.647,-89.5843C549.252,-92.6139 497.273,-97.6477 452,-105 436.627,-107.497 419.864,-111.06 405.319,-114.427"/>
<polygon fill="midnightblue" stroke="midnightblue" points="587.097,-93.0598 596.79,-88.7827 586.545,-86.0815 587.097,-93.0598"/>
</g>
<!-- Node454&#45;&gt;Node450 -->
<g id="edge18" class="edge"><title>Node454&#45;&gt;Node450</title>
<path fill="none" stroke="midnightblue" d="M611.05,-99.2903C596.67,-104.509 578.348,-110.231 561.127,-114.982"/>
<polygon fill="midnightblue" stroke="midnightblue" points="612.65,-102.426 620.752,-95.5999 610.161,-95.8838 612.65,-102.426"/>
</g>
<!-- Node455 -->
<g id="node18" class="node"><title>Node455</title>
<g id="a_node18"><a xlink:href="wifi_8c.html#a189ec83a0503a6fc45b102014a80403b" target="_top" xlink:title="wifi_scan_timeout_timer_func">
<polygon fill="white" stroke="black" points="716,-114.5 716,-133.5 862,-133.5 862,-114.5 716,-114.5"/>
<text text-anchor="middle" x="789" y="-121.5" font-family="Helvetica,sans-Serif" font-size="10.00">wifi_scan_timeout_timer_func</text>
</a>
</g>
</g>
<!-- Node454&#45;&gt;Node455 -->
<g id="edge19" class="edge"><title>Node454&#45;&gt;Node455</title>
<path fill="none" stroke="midnightblue" d="M686.833,-98.1121C707.515,-103.404 731.419,-109.521 750.797,-114.48"/>
<polygon fill="midnightblue" stroke="midnightblue" points="687.528,-94.6774 676.973,-95.589 685.793,-101.459 687.528,-94.6774"/>
</g>
<!-- Node454&#45;&gt;Node456 -->
<g id="edge24" class="edge"><title>Node454&#45;&gt;Node456</title>
<path fill="none" stroke="midnightblue" d="M686.833,-73.8879C707.515,-68.5956 731.419,-62.4787 750.797,-57.5201"/>
<polygon fill="midnightblue" stroke="midnightblue" points="685.793,-70.5411 676.973,-76.411 687.528,-77.3226 685.793,-70.5411"/>
</g>
<!-- Node455&#45;&gt;Node450 -->
<g id="edge21" class="edge"><title>Node455&#45;&gt;Node450</title>
<path fill="none" stroke="midnightblue" d="M705.785,-124C659.164,-124 602.155,-124 561.251,-124"/>
<polygon fill="midnightblue" stroke="midnightblue" points="705.87,-127.5 715.87,-124 705.87,-120.5 705.87,-127.5"/>
</g>
<!-- Node455&#45;&gt;Node451 -->
<g id="edge20" class="edge"><title>Node455&#45;&gt;Node451</title>
<path fill="none" stroke="midnightblue" d="M872.208,-134.11C880.995,-135.19 889.697,-136.26 897.855,-137.264"/>
<polygon fill="midnightblue" stroke="midnightblue" points="872.627,-130.635 862.274,-132.888 871.772,-137.583 872.627,-130.635"/>
</g>
<!-- Node457 -->
<g id="node20" class="node"><title>Node457</title>
<g id="a_node20"><a xlink:href="watchdog_8h.html#a98ac743883b75c5bf36e0d6b0fe982fa" target="_top" xlink:title="force_reset_wifi">
<polygon fill="white" stroke="black" points="902.5,-38.5 902.5,-57.5 988.5,-57.5 988.5,-38.5 902.5,-38.5"/>
<text text-anchor="middle" x="945.5" y="-45.5" font-family="Helvetica,sans-Serif" font-size="10.00">force_reset_wifi</text>
</a>
</g>
</g>
<!-- Node456&#45;&gt;Node457 -->
<g id="edge25" class="edge"><title>Node456&#45;&gt;Node457</title>
<path fill="none" stroke="midnightblue" d="M864.851,-48C877.657,-48 890.55,-48 902.123,-48"/>
<polygon fill="midnightblue" stroke="midnightblue" points="864.627,-44.5001 854.627,-48 864.627,-51.5001 864.627,-44.5001"/>
</g>
<!-- Node458 -->
<g id="node21" class="node"><title>Node458</title>
<g id="a_node21"><a xlink:href="kmp__request_8c.html#a3f6b790a06b933b78f40ade5e9a16131" target="_top" xlink:title="kmp_received_task">
<polygon fill="white" stroke="black" points="1033.5,-38.5 1033.5,-57.5 1134.5,-57.5 1134.5,-38.5 1033.5,-38.5"/>
<text text-anchor="middle" x="1084" y="-45.5" font-family="Helvetica,sans-Serif" font-size="10.00">kmp_received_task</text>
</a>
</g>
</g>
<!-- Node457&#45;&gt;Node458 -->
<g id="edge26" class="edge"><title>Node457&#45;&gt;Node458</title>
<path fill="none" stroke="midnightblue" d="M998.734,-48C1010.03,-48 1021.96,-48 1033.16,-48"/>
<polygon fill="midnightblue" stroke="midnightblue" points="998.568,-44.5001 988.568,-48 998.568,-51.5001 998.568,-44.5001"/>
</g>
<!-- Node460 -->
<g id="node23" class="node"><title>Node460</title>
<g id="a_node23"><a xlink:href="watchdog_8c.html#aeb03c505b5b589ae4d89b2ae11dd1711" target="_top" xlink:title="watchdog_timer_func">
<polygon fill="white" stroke="black" points="1029,-0.5 1029,-19.5 1139,-19.5 1139,-0.5 1029,-0.5"/>
<text text-anchor="middle" x="1084" y="-7.5" font-family="Helvetica,sans-Serif" font-size="10.00">watchdog_timer_func</text>
</a>
</g>
</g>
<!-- Node457&#45;&gt;Node460 -->
<g id="edge28" class="edge"><title>Node457&#45;&gt;Node460</title>
<path fill="none" stroke="midnightblue" d="M990.749,-35.6817C1009.5,-30.4607 1031.03,-24.4684 1048.57,-19.5859"/>
<polygon fill="midnightblue" stroke="midnightblue" points="989.64,-32.3572 980.945,-38.411 991.517,-39.1008 989.64,-32.3572"/>
</g>
<!-- Node459 -->
<g id="node22" class="node"><title>Node459</title>
<g id="a_node22"><a xlink:href="kmp__request_8h.html#a048753ff9d6b448e2dcd8c85db0d6873" target="_top" xlink:title="kmp_request_init">
<polygon fill="white" stroke="black" points="1184.5,-38.5 1184.5,-57.5 1275.5,-57.5 1275.5,-38.5 1184.5,-38.5"/>
<text text-anchor="middle" x="1230" y="-45.5" font-family="Helvetica,sans-Serif" font-size="10.00">kmp_request_init</text>
</a>
</g>
</g>
<!-- Node458&#45;&gt;Node459 -->
<g id="edge27" class="edge"><title>Node458&#45;&gt;Node459</title>
<path fill="none" stroke="midnightblue" d="M1144.94,-48C1158.07,-48 1171.76,-48 1184.18,-48"/>
<polygon fill="midnightblue" stroke="midnightblue" points="1144.56,-44.5001 1134.56,-48 1144.56,-51.5001 1144.56,-44.5001"/>
</g>
<!-- Node461 -->
<g id="node24" class="node"><title>Node461</title>
<g id="a_node24"><a xlink:href="watchdog_8h.html#ab148f2150b52df5b60e312dded3a2934" target="_top" xlink:title="start_watchdog">
<polygon fill="white" stroke="black" points="1188.5,-0.5 1188.5,-19.5 1271.5,-19.5 1271.5,-0.5 1188.5,-0.5"/>
<text text-anchor="middle" x="1230" y="-7.5" font-family="Helvetica,sans-Serif" font-size="10.00">start_watchdog</text>
</a>
</g>
</g>
<!-- Node460&#45;&gt;Node461 -->
<g id="edge29" class="edge"><title>Node460&#45;&gt;Node461</title>
<path fill="none" stroke="midnightblue" d="M1149.08,-10C1162.36,-10 1176,-10 1188.17,-10"/>
<polygon fill="midnightblue" stroke="midnightblue" points="1149.03,-6.5001 1139.03,-10 1149.03,-13.5001 1149.03,-6.5001"/>
</g>
<!-- Node462&#45;&gt;Node449 -->
<g id="edge32" class="edge"><title>Node462&#45;&gt;Node449</title>
<path fill="none" stroke="midnightblue" d="M266.169,-150.171C286.408,-144.812 310.017,-138.56 329.084,-133.511"/>
<polygon fill="midnightblue" stroke="midnightblue" points="265.008,-146.858 256.237,-152.801 266.8,-153.625 265.008,-146.858"/>
</g>
</g>
</svg>
