<?xml version="1.0" encoding="UTF-8" standalone="no"?>
<!DOCTYPE svg PUBLIC "-//W3C//DTD SVG 1.1//EN"
 "http://www.w3.org/Graphics/SVG/1.1/DTD/svg11.dtd">
<!-- Generated by graphviz version 2.38.0 (20140413.2041)
 -->
<!-- Title: system_os_task Pages: 1 -->
<svg width="242pt" height="142pt"
 viewBox="0.00 0.00 242.00 142.00" xmlns="http://www.w3.org/2000/svg" xmlns:xlink="http://www.w3.org/1999/xlink">
<g id="graph0" class="graph" transform="scale(1 1) rotate(0) translate(4 138)">
<title>system_os_task</title>
<polygon fill="white" stroke="none" points="-4,4 -4,-138 238,-138 238,4 -4,4"/>
<!-- Node153 -->
<g id="node1" class="node"><title>Node153</title>
<polygon fill="#bfbfbf" stroke="black" points="0,-57.5 0,-76.5 89,-76.5 89,-57.5 0,-57.5"/>
<text text-anchor="middle" x="44.5" y="-64.5" font-family="Helvetica,sans-Serif" font-size="10.00">system_os_task</text>
</g>
<!-- Node154 -->
<g id="node2" class="node"><title>Node154</title>
<g id="a_node2"><a xlink:href="en61107__request_8h.html#acd43242675a3f25e7c3b530eac9d8b3a" target="_top" xlink:title="en61107_request_init">
<polygon fill="white" stroke="black" points="125,-114.5 125,-133.5 234,-133.5 234,-114.5 125,-114.5"/>
<text text-anchor="middle" x="179.5" y="-121.5" font-family="Helvetica,sans-Serif" font-size="10.00">en61107_request_init</text>
</a>
</g>
</g>
<!-- Node153&#45;&gt;Node154 -->
<g id="edge1" class="edge"><title>Node153&#45;&gt;Node154</title>
<path fill="none" stroke="midnightblue" d="M73.4893,-81.2614C88.5764,-88.7232 107.616,-97.7815 125,-105 133.011,-108.326 141.836,-111.611 149.969,-114.489"/>
<polygon fill="midnightblue" stroke="midnightblue" points="74.713,-77.9603 64.2028,-76.6238 71.5855,-84.2228 74.713,-77.9603"/>
</g>
<!-- Node155 -->
<g id="node3" class="node"><title>Node155</title>
<g id="a_node3"><a xlink:href="espenc_8c.html#a193505f7e2d8f132ca9698a32783fe93" target="_top" xlink:title="espenc_init">
<polygon fill="white" stroke="black" points="146.5,-76.5 146.5,-95.5 212.5,-95.5 212.5,-76.5 146.5,-76.5"/>
<text text-anchor="middle" x="179.5" y="-83.5" font-family="Helvetica,sans-Serif" font-size="10.00">espenc_init</text>
</a>
</g>
</g>
<!-- Node153&#45;&gt;Node155 -->
<g id="edge2" class="edge"><title>Node153&#45;&gt;Node155</title>
<path fill="none" stroke="midnightblue" d="M99.3207,-74.6887C115.233,-76.9619 132.151,-79.3787 146.246,-81.3923"/>
<polygon fill="midnightblue" stroke="midnightblue" points="99.4437,-71.1708 89.0492,-73.2213 98.4537,-78.1004 99.4437,-71.1708"/>
</g>
<!-- Node156 -->
<g id="node4" class="node"><title>Node156</title>
<g id="a_node4"><a xlink:href="kmp__request_8h.html#a048753ff9d6b448e2dcd8c85db0d6873" target="_top" xlink:title="kmp_request_init">
<polygon fill="white" stroke="black" points="134,-38.5 134,-57.5 225,-57.5 225,-38.5 134,-38.5"/>
<text text-anchor="middle" x="179.5" y="-45.5" font-family="Helvetica,sans-Serif" font-size="10.00">kmp_request_init</text>
</a>
</g>
</g>
<!-- Node153&#45;&gt;Node156 -->
<g id="edge3" class="edge"><title>Node153&#45;&gt;Node156</title>
<path fill="none" stroke="midnightblue" d="M99.0473,-59.3504C110.626,-57.6962 122.751,-55.9642 133.941,-54.3655"/>
<polygon fill="midnightblue" stroke="midnightblue" points="98.4537,-55.8996 89.0492,-60.7787 99.4437,-62.8292 98.4537,-55.8996"/>
</g>
<!-- Node157 -->
<g id="node5" class="node"><title>Node157</title>
<g id="a_node5"><a xlink:href="mqtt_8c.html#a25cb7ac079d1d119250dac075c45acf1" target="_top" xlink:title="MQTT initialization mqtt client function. ">
<polygon fill="white" stroke="black" points="135,-0.5 135,-19.5 224,-19.5 224,-0.5 135,-0.5"/>
<text text-anchor="middle" x="179.5" y="-7.5" font-family="Helvetica,sans-Serif" font-size="10.00">MQTT_InitClient</text>
</a>
</g>
</g>
<!-- Node153&#45;&gt;Node157 -->
<g id="edge4" class="edge"><title>Node153&#45;&gt;Node157</title>
<path fill="none" stroke="midnightblue" d="M73.4893,-52.7386C88.5764,-45.2768 107.616,-36.2185 125,-29 133.011,-25.6738 141.836,-22.3892 149.969,-19.5107"/>
<polygon fill="midnightblue" stroke="midnightblue" points="71.5855,-49.7772 64.2028,-57.3762 74.713,-56.0397 71.5855,-49.7772"/>
</g>
</g>
</svg>
