<?xml version="1.0" encoding="UTF-8" standalone="no"?>
<!DOCTYPE svg PUBLIC "-//W3C//DTD SVG 1.1//EN"
 "http://www.w3.org/Graphics/SVG/1.1/DTD/svg11.dtd">
<!-- Generated by graphviz version 2.38.0 (20140413.2041)
 -->
<!-- Title: mqtt_flash_error Pages: 1 -->
<svg width="340pt" height="306pt"
 viewBox="0.00 0.00 340.00 306.00" xmlns="http://www.w3.org/2000/svg" xmlns:xlink="http://www.w3.org/1999/xlink">
<g id="graph0" class="graph" transform="scale(1 1) rotate(0) translate(4 302)">
<title>mqtt_flash_error</title>
<polygon fill="white" stroke="none" points="-4,4 -4,-302 336,-302 336,4 -4,4"/>
<!-- Node11 -->
<g id="node1" class="node"><title>Node11</title>
<polygon fill="#bfbfbf" stroke="black" points="0,-133.5 0,-152.5 87,-152.5 87,-133.5 0,-133.5"/>
<text text-anchor="middle" x="43.5" y="-140.5" font-family="Helvetica,sans-Serif" font-size="10.00">mqtt_flash_error</text>
</g>
<!-- Node12 -->
<g id="node2" class="node"><title>Node12</title>
<g id="a_node2"><a xlink:href="cron_8c.html#a2782af03df9b913cfa565a0770e1afe1" target="_top" xlink:title="minute_timer_func">
<polygon fill="white" stroke="black" points="134.5,-278.5 134.5,-297.5 231.5,-297.5 231.5,-278.5 134.5,-278.5"/>
<text text-anchor="middle" x="183" y="-285.5" font-family="Helvetica,sans-Serif" font-size="10.00">minute_timer_func</text>
</a>
</g>
</g>
<!-- Node11&#45;&gt;Node12 -->
<g id="edge1" class="edge"><title>Node11&#45;&gt;Node12</title>
<path fill="none" stroke="midnightblue" d="M51.4765,-162.174C62.4732,-189.761 86.4239,-240.461 123,-269 127.921,-272.839 133.64,-275.914 139.544,-278.374"/>
<polygon fill="midnightblue" stroke="midnightblue" points="54.7419,-160.914 47.8968,-152.827 48.2049,-163.417 54.7419,-160.914"/>
</g>
<!-- Node14 -->
<g id="node4" class="node"><title>Node14</title>
<g id="a_node4"><a xlink:href="mqtt__rpc_8h.html#a44921185fc90cf7507f2eaf4fa48861a" target="_top" xlink:title="mqtt_rpc_open_until">
<polygon fill="white" stroke="black" points="131,-240.5 131,-259.5 235,-259.5 235,-240.5 131,-240.5"/>
<text text-anchor="middle" x="183" y="-247.5" font-family="Helvetica,sans-Serif" font-size="10.00">mqtt_rpc_open_until</text>
</a>
</g>
</g>
<!-- Node11&#45;&gt;Node14 -->
<g id="edge3" class="edge"><title>Node11&#45;&gt;Node14</title>
<path fill="none" stroke="midnightblue" d="M56.2857,-161.198C70.0394,-181.058 94.5592,-212.489 123,-231 128.862,-234.816 135.551,-237.918 142.269,-240.424"/>
<polygon fill="midnightblue" stroke="midnightblue" points="59.0745,-159.073 50.5884,-152.73 53.2666,-162.98 59.0745,-159.073"/>
</g>
<!-- Node15 -->
<g id="node5" class="node"><title>Node15</title>
<g id="a_node5"><a xlink:href="mqtt__rpc_8h.html#a37edc063b829348999e78221ed0f247e" target="_top" xlink:title="mqtt_rpc_open_until\l_delta">
<polygon fill="white" stroke="black" points="131,-191 131,-221 235,-221 235,-191 131,-191"/>
<text text-anchor="start" x="139" y="-209" font-family="Helvetica,sans-Serif" font-size="10.00">mqtt_rpc_open_until</text>
<text text-anchor="middle" x="183" y="-198" font-family="Helvetica,sans-Serif" font-size="10.00">_delta</text>
</a>
</g>
</g>
<!-- Node11&#45;&gt;Node15 -->
<g id="edge4" class="edge"><title>Node11&#45;&gt;Node15</title>
<path fill="none" stroke="midnightblue" d="M72.8975,-157.17C87.7415,-164.469 106.259,-173.407 123,-181 130.295,-184.309 138.153,-187.734 145.681,-190.948"/>
<polygon fill="midnightblue" stroke="midnightblue" points="74.2449,-153.932 63.7291,-152.641 71.1445,-160.208 74.2449,-153.932"/>
</g>
<!-- Node16 -->
<g id="node6" class="node"><title>Node16</title>
<g id="a_node6"><a xlink:href="mqtt__rpc_8h.html#a3384f5aa84b17fa3902e2aad318913d8" target="_top" xlink:title="mqtt_rpc_set_pwd">
<polygon fill="white" stroke="black" points="134.5,-152.5 134.5,-171.5 231.5,-171.5 231.5,-152.5 134.5,-152.5"/>
<text text-anchor="middle" x="183" y="-159.5" font-family="Helvetica,sans-Serif" font-size="10.00">mqtt_rpc_set_pwd</text>
</a>
</g>
</g>
<!-- Node11&#45;&gt;Node16 -->
<g id="edge5" class="edge"><title>Node11&#45;&gt;Node16</title>
<path fill="none" stroke="midnightblue" d="M97.3224,-150.299C109.554,-151.989 122.497,-153.778 134.485,-155.434"/>
<polygon fill="midnightblue" stroke="midnightblue" points="97.6371,-146.809 87.2521,-148.908 96.6789,-153.744 97.6371,-146.809"/>
</g>
<!-- Node17 -->
<g id="node7" class="node"><title>Node17</title>
<g id="a_node7"><a xlink:href="mqtt__rpc_8h.html#aa3b038b94189cb8a82fdc7e5115d90c8" target="_top" xlink:title="mqtt_rpc_set_ssid">
<polygon fill="white" stroke="black" points="134.5,-114.5 134.5,-133.5 231.5,-133.5 231.5,-114.5 134.5,-114.5"/>
<text text-anchor="middle" x="183" y="-121.5" font-family="Helvetica,sans-Serif" font-size="10.00">mqtt_rpc_set_ssid</text>
</a>
</g>
</g>
<!-- Node11&#45;&gt;Node17 -->
<g id="edge6" class="edge"><title>Node11&#45;&gt;Node17</title>
<path fill="none" stroke="midnightblue" d="M97.3224,-135.701C109.554,-134.011 122.497,-132.222 134.485,-130.566"/>
<polygon fill="midnightblue" stroke="midnightblue" points="96.6789,-132.256 87.2521,-137.092 97.6371,-139.191 96.6789,-132.256"/>
</g>
<!-- Node18 -->
<g id="node8" class="node"><title>Node18</title>
<g id="a_node8"><a xlink:href="mqtt__rpc_8h.html#a651f41878c47fd58b8ae08a49692d5d0" target="_top" xlink:title="mqtt_rpc_set_ssid_pwd">
<polygon fill="white" stroke="black" points="123,-76.5 123,-95.5 243,-95.5 243,-76.5 123,-76.5"/>
<text text-anchor="middle" x="183" y="-83.5" font-family="Helvetica,sans-Serif" font-size="10.00">mqtt_rpc_set_ssid_pwd</text>
</a>
</g>
</g>
<!-- Node11&#45;&gt;Node18 -->
<g id="edge7" class="edge"><title>Node11&#45;&gt;Node18</title>
<path fill="none" stroke="midnightblue" d="M71.7368,-128.656C86.6508,-121.099 105.591,-111.977 123,-105 131.49,-101.597 140.847,-98.3593 149.559,-95.5521"/>
<polygon fill="midnightblue" stroke="midnightblue" points="69.873,-125.679 62.5742,-133.359 73.0691,-131.907 69.873,-125.679"/>
</g>
<!-- Node19 -->
<g id="node9" class="node"><title>Node19</title>
<g id="a_node9"><a xlink:href="mqtt__rpc_8h.html#a1b7add080e121a194a82ca7fc1ac5d6a" target="_top" xlink:title="mqtt_rpc_start_ap">
<polygon fill="white" stroke="black" points="135.5,-38.5 135.5,-57.5 230.5,-57.5 230.5,-38.5 135.5,-38.5"/>
<text text-anchor="middle" x="183" y="-45.5" font-family="Helvetica,sans-Serif" font-size="10.00">mqtt_rpc_start_ap</text>
</a>
</g>
</g>
<!-- Node11&#45;&gt;Node19 -->
<g id="edge8" class="edge"><title>Node11&#45;&gt;Node19</title>
<path fill="none" stroke="midnightblue" d="M58.5642,-125.296C73.0453,-108.154 97.0972,-82.5404 123,-67 129.275,-63.2354 136.379,-60.1302 143.429,-57.5996"/>
<polygon fill="midnightblue" stroke="midnightblue" points="55.5558,-123.444 51.9049,-133.39 60.9613,-127.892 55.5558,-123.444"/>
</g>
<!-- Node20 -->
<g id="node10" class="node"><title>Node20</title>
<g id="a_node10"><a xlink:href="mqtt__rpc_8h.html#a3430aad3243898c167f694b4ad6e5cfd" target="_top" xlink:title="mqtt_rpc_stop_ap">
<polygon fill="white" stroke="black" points="135.5,-0.5 135.5,-19.5 230.5,-19.5 230.5,-0.5 135.5,-0.5"/>
<text text-anchor="middle" x="183" y="-7.5" font-family="Helvetica,sans-Serif" font-size="10.00">mqtt_rpc_stop_ap</text>
</a>
</g>
</g>
<!-- Node11&#45;&gt;Node20 -->
<g id="edge9" class="edge"><title>Node11&#45;&gt;Node20</title>
<path fill="none" stroke="midnightblue" d="M52.6322,-124.24C64.5064,-98.9947 88.941,-54.3402 123,-29 128.18,-25.1459 134.173,-22.0547 140.313,-19.5805"/>
<polygon fill="midnightblue" stroke="midnightblue" points="49.39,-122.915 48.4472,-133.467 55.765,-125.806 49.39,-122.915"/>
</g>
<!-- Node13 -->
<g id="node3" class="node"><title>Node13</title>
<g id="a_node3"><a xlink:href="cron_8h.html#ae130c5973bad35b56776750c7a34db12" target="_top" xlink:title="cron_init">
<polygon fill="white" stroke="black" points="279,-278.5 279,-297.5 332,-297.5 332,-278.5 279,-278.5"/>
<text text-anchor="middle" x="305.5" y="-285.5" font-family="Helvetica,sans-Serif" font-size="10.00">cron_init</text>
</a>
</g>
</g>
<!-- Node12&#45;&gt;Node13 -->
<g id="edge2" class="edge"><title>Node12&#45;&gt;Node13</title>
<path fill="none" stroke="midnightblue" d="M241.904,-288C254.816,-288 267.873,-288 278.696,-288"/>
<polygon fill="midnightblue" stroke="midnightblue" points="241.625,-284.5 231.625,-288 241.625,-291.5 241.625,-284.5"/>
</g>
</g>
</svg>
