<?xml version="1.0" encoding="UTF-8" standalone="no"?>
<!DOCTYPE svg PUBLIC "-//W3C//DTD SVG 1.1//EN"
 "http://www.w3.org/Graphics/SVG/1.1/DTD/svg11.dtd">
<!-- Generated by graphviz version 2.38.0 (20140413.2041)
 -->
<!-- Title: system_os_post Pages: 1 -->
<svg width="809pt" height="1446pt"
 viewBox="0.00 0.00 809.00 1446.00" xmlns="http://www.w3.org/2000/svg" xmlns:xlink="http://www.w3.org/1999/xlink">
<g id="graph0" class="graph" transform="scale(1 1) rotate(0) translate(4 1442)">
<title>system_os_post</title>
<polygon fill="white" stroke="none" points="-4,4 -4,-1442 805,-1442 805,4 -4,4"/>
<!-- Node94 -->
<g id="node1" class="node"><title>Node94</title>
<polygon fill="#bfbfbf" stroke="black" points="0,-342.5 0,-361.5 89,-361.5 89,-342.5 0,-342.5"/>
<text text-anchor="middle" x="44.5" y="-349.5" font-family="Helvetica,sans-Serif" font-size="10.00">system_os_post</text>
</g>
<!-- Node95 -->
<g id="node2" class="node"><title>Node95</title>
<g id="a_node2"><a xlink:href="espenc_8c.html#abad8eb65a3bbaacff290a354199cd349" target="_top" xlink:title="enc28j60_handle_packets">
<polygon fill="white" stroke="black" points="125,-1418.5 125,-1437.5 254,-1437.5 254,-1418.5 125,-1418.5"/>
<text text-anchor="middle" x="189.5" y="-1425.5" font-family="Helvetica,sans-Serif" font-size="10.00">enc28j60_handle_packets</text>
</a>
</g>
</g>
<!-- Node94&#45;&gt;Node95 -->
<g id="edge1" class="edge"><title>Node94&#45;&gt;Node95</title>
<path fill="none" stroke="midnightblue" d="M45.6623,-371.908C46.9616,-510.234 57.4609,-1325.06 125,-1409 128.102,-1412.86 131.953,-1415.95 136.215,-1418.43"/>
<polygon fill="midnightblue" stroke="midnightblue" points="49.1593,-371.54 45.5709,-361.572 42.1595,-371.602 49.1593,-371.54"/>
</g>
<!-- Node99 -->
<g id="node4" class="node"><title>Node99</title>
<g id="a_node4"><a xlink:href="espenc_8c.html#a6e1c907e7ece2b9b08be005d9a78089c" target="_top" xlink:title="interrupt_handler">
<polygon fill="white" stroke="black" points="145,-1380.5 145,-1399.5 234,-1399.5 234,-1380.5 145,-1380.5"/>
<text text-anchor="middle" x="189.5" y="-1387.5" font-family="Helvetica,sans-Serif" font-size="10.00">interrupt_handler</text>
</a>
</g>
</g>
<!-- Node94&#45;&gt;Node99 -->
<g id="edge3" class="edge"><title>Node94&#45;&gt;Node99</title>
<path fill="none" stroke="midnightblue" d="M45.7952,-371.883C47.9594,-506.662 63.0741,-1283.49 125,-1366 130.023,-1372.69 137.144,-1377.52 144.813,-1381"/>
<polygon fill="midnightblue" stroke="midnightblue" points="49.2931,-371.712 45.6381,-361.768 42.2939,-371.821 49.2931,-371.712"/>
</g>
<!-- Node101 -->
<g id="node6" class="node"><title>Node101</title>
<g id="a_node6"><a xlink:href="mqtt_8c.html#ad34b681cb2f7473d8fc786c7ed468db5" target="_top" xlink:title="Begin connect to MQTT broker. ">
<polygon fill="white" stroke="black" points="471.5,-171.5 471.5,-190.5 557.5,-190.5 557.5,-171.5 471.5,-171.5"/>
<text text-anchor="middle" x="514.5" y="-178.5" font-family="Helvetica,sans-Serif" font-size="10.00">MQTT_Connect</text>
</a>
</g>
</g>
<!-- Node94&#45;&gt;Node101 -->
<g id="edge5" class="edge"><title>Node94&#45;&gt;Node101</title>
<path fill="none" stroke="midnightblue" d="M47.8929,-332.221C53.5888,-294.943 71.72,-214.986 125,-181 181.296,-145.09 382.912,-164.728 471.379,-175.47"/>
<polygon fill="midnightblue" stroke="midnightblue" points="44.399,-331.937 46.4993,-342.321 51.3333,-332.894 44.399,-331.937"/>
</g>
<!-- Node103 -->
<g id="node8" class="node"><title>Node103</title>
<g id="a_node8"><a xlink:href="mqtt_8c.html#a25cb7ac079d1d119250dac075c45acf1" target="_top" xlink:title="MQTT initialization mqtt client function. ">
<polygon fill="white" stroke="black" points="712,-804.5 712,-823.5 801,-823.5 801,-804.5 712,-804.5"/>
<text text-anchor="middle" x="756.5" y="-811.5" font-family="Helvetica,sans-Serif" font-size="10.00">MQTT_InitClient</text>
</a>
</g>
</g>
<!-- Node94&#45;&gt;Node103 -->
<g id="edge14" class="edge"><title>Node94&#45;&gt;Node103</title>
<path fill="none" stroke="midnightblue" d="M45.8063,-371.757C47.984,-500.947 62.8813,-1222.21 125,-1295 193.647,-1375.44 250.254,-1352 356,-1352 356,-1352 356,-1352 515.5,-1352 756.358,-1352 757.176,-896.714 755.763,-823.797"/>
<polygon fill="midnightblue" stroke="midnightblue" points="49.3051,-371.653 45.6429,-361.712 42.3061,-371.767 49.3051,-371.653"/>
</g>
<!-- Node104 -->
<g id="node9" class="node"><title>Node104</title>
<g id="a_node9"><a xlink:href="mqtt_8c.html#a4ae83a45eaa1604ab9d83f97bc5d8b00" target="_top" xlink:title="MQTT_DeleteClient">
<polygon fill="white" stroke="black" points="137.5,-760.5 137.5,-779.5 241.5,-779.5 241.5,-760.5 137.5,-760.5"/>
<text text-anchor="middle" x="189.5" y="-767.5" font-family="Helvetica,sans-Serif" font-size="10.00">MQTT_DeleteClient</text>
</a>
</g>
</g>
<!-- Node94&#45;&gt;Node104 -->
<g id="edge8" class="edge"><title>Node94&#45;&gt;Node104</title>
<path fill="none" stroke="midnightblue" d="M46.787,-371.681C51.9035,-444.025 73.1037,-693.977 125,-751 128.485,-754.83 132.708,-757.9 137.3,-760.36"/>
<polygon fill="midnightblue" stroke="midnightblue" points="50.2754,-371.39 46.1017,-361.652 43.2917,-371.867 50.2754,-371.39"/>
</g>
<!-- Node105 -->
<g id="node10" class="node"><title>Node105</title>
<g id="a_node10"><a xlink:href="mqtt_8c.html#a1de25dc146b60b1996e037163fa6af2d" target="_top" xlink:title="MQTT_Disconnect">
<polygon fill="white" stroke="black" points="140,-1266.5 140,-1285.5 239,-1285.5 239,-1266.5 140,-1266.5"/>
<text text-anchor="middle" x="189.5" y="-1273.5" font-family="Helvetica,sans-Serif" font-size="10.00">MQTT_Disconnect</text>
</a>
</g>
</g>
<!-- Node94&#45;&gt;Node105 -->
<g id="edge9" class="edge"><title>Node94&#45;&gt;Node105</title>
<path fill="none" stroke="midnightblue" d="M48.5693,-371.832C67.9622,-497.14 173.125,-1176.65 186.991,-1266.25"/>
<polygon fill="midnightblue" stroke="midnightblue" points="51.9975,-371.099 47.0092,-361.752 45.0799,-372.169 51.9975,-371.099"/>
</g>
<!-- Node109 -->
<g id="node13" class="node"><title>Node109</title>
<g id="a_node13"><a xlink:href="mqtt_8c.html#a0952c450d8a1ecdb3d4887ddb485fb6a" target="_top" xlink:title="mqtt_dns_found">
<polygon fill="white" stroke="black" points="146.5,-76.5 146.5,-95.5 232.5,-95.5 232.5,-76.5 146.5,-76.5"/>
<text text-anchor="middle" x="189.5" y="-83.5" font-family="Helvetica,sans-Serif" font-size="10.00">mqtt_dns_found</text>
</a>
</g>
</g>
<!-- Node94&#45;&gt;Node109 -->
<g id="edge12" class="edge"><title>Node94&#45;&gt;Node109</title>
<path fill="none" stroke="midnightblue" d="M45.9458,-332.09C48.0901,-285.524 60.0289,-168.643 125,-105 130.919,-99.2023 138.531,-95.1629 146.416,-92.3513"/>
<polygon fill="midnightblue" stroke="midnightblue" points="42.4391,-332.222 45.5854,-342.339 49.4348,-332.468 42.4391,-332.222"/>
</g>
<!-- Node110 -->
<g id="node14" class="node"><title>Node110</title>
<g id="a_node14"><a xlink:href="mqtt_8c.html#a086502e2dd36681a7fb4d9a9018cfc88" target="_top" xlink:title="MQTT ping function. ">
<polygon fill="white" stroke="black" points="155,-418.5 155,-437.5 224,-437.5 224,-418.5 155,-418.5"/>
<text text-anchor="middle" x="189.5" y="-425.5" font-family="Helvetica,sans-Serif" font-size="10.00">MQTT_Ping</text>
</a>
</g>
</g>
<!-- Node94&#45;&gt;Node110 -->
<g id="edge15" class="edge"><title>Node94&#45;&gt;Node110</title>
<path fill="none" stroke="midnightblue" d="M64.0701,-368.048C79.4988,-380.683 102.49,-397.949 125,-409 134.297,-413.564 144.905,-417.267 154.753,-420.151"/>
<polygon fill="midnightblue" stroke="midnightblue" points="66.2444,-365.304 56.3278,-361.574 61.7541,-370.674 66.2444,-365.304"/>
</g>
<!-- Node111 -->
<g id="node15" class="node"><title>Node111</title>
<g id="a_node15"><a xlink:href="mqtt_8c.html#a848a6701c4c7ec3432e38ea57c003aad" target="_top" xlink:title="MQTT publish function. ">
<polygon fill="white" stroke="black" points="148.5,-722.5 148.5,-741.5 230.5,-741.5 230.5,-722.5 148.5,-722.5"/>
<text text-anchor="middle" x="189.5" y="-729.5" font-family="Helvetica,sans-Serif" font-size="10.00">MQTT_Publish</text>
</a>
</g>
</g>
<!-- Node94&#45;&gt;Node111 -->
<g id="edge16" class="edge"><title>Node94&#45;&gt;Node111</title>
<path fill="none" stroke="midnightblue" d="M52.7943,-371.383C78.7233,-440.286 165.899,-671.941 184.846,-722.289"/>
<polygon fill="midnightblue" stroke="midnightblue" points="55.9764,-369.902 49.1786,-361.775 49.4249,-372.367 55.9764,-369.902"/>
</g>
<!-- Node140 -->
<g id="node41" class="node"><title>Node140</title>
<g id="a_node41"><a xlink:href="mqtt_8c.html#ad8ba75844d580447adc10eee6aba039d" target="_top" xlink:title="mqtt_send_keepalive">
<polygon fill="white" stroke="black" points="460,-266.5 460,-285.5 569,-285.5 569,-266.5 460,-266.5"/>
<text text-anchor="middle" x="514.5" y="-273.5" font-family="Helvetica,sans-Serif" font-size="10.00">mqtt_send_keepalive</text>
</a>
</g>
</g>
<!-- Node94&#45;&gt;Node140 -->
<g id="edge43" class="edge"><title>Node94&#45;&gt;Node140</title>
<path fill="none" stroke="midnightblue" d="M54.6334,-370.726C66.9835,-393.634 91.3925,-431.301 125,-447 176.946,-471.265 209.03,-482.564 254,-447 308.454,-403.936 237.42,-340.333 290,-295 340.286,-251.644 422.729,-257.612 472.189,-266.434"/>
<polygon fill="midnightblue" stroke="midnightblue" points="57.6451,-368.929 49.9521,-361.644 51.4231,-372.137 57.6451,-368.929"/>
</g>
<!-- Node141 -->
<g id="node42" class="node"><title>Node141</title>
<g id="a_node42"><a xlink:href="mqtt_8c.html#a86f8adfe29d6ec8bb5070fd030540d2f" target="_top" xlink:title="MQTT subscibe function. ">
<polygon fill="white" stroke="black" points="143,-304.5 143,-323.5 236,-323.5 236,-304.5 143,-304.5"/>
<text text-anchor="middle" x="189.5" y="-311.5" font-family="Helvetica,sans-Serif" font-size="10.00">MQTT_Subscribe</text>
</a>
</g>
</g>
<!-- Node94&#45;&gt;Node141 -->
<g id="edge45" class="edge"><title>Node94&#45;&gt;Node141</title>
<path fill="none" stroke="midnightblue" d="M91.3133,-339.826C111.087,-334.571 133.884,-328.513 152.427,-323.586"/>
<polygon fill="midnightblue" stroke="midnightblue" points="90.3506,-336.46 81.5849,-342.411 92.1484,-343.225 90.3506,-336.46"/>
</g>
<!-- Node142 -->
<g id="node43" class="node"><title>Node142</title>
<g id="a_node43"><a xlink:href="mqtt_8c.html#a36ecd969af1b9c87856f01be064a98cc" target="_top" xlink:title="Tcp client connect success callback function. ">
<polygon fill="white" stroke="black" points="290,-228.5 290,-247.5 424,-247.5 424,-228.5 290,-228.5"/>
<text text-anchor="middle" x="357" y="-235.5" font-family="Helvetica,sans-Serif" font-size="10.00">mqtt_tcpclient_connect_cb</text>
</a>
</g>
</g>
<!-- Node94&#45;&gt;Node142 -->
<g id="edge46" class="edge"><title>Node94&#45;&gt;Node142</title>
<path fill="none" stroke="midnightblue" d="M55.0395,-333.369C67.6713,-310.882 92.2311,-273.978 125,-257 175.824,-230.668 241.49,-227.733 289.811,-230.323"/>
<polygon fill="midnightblue" stroke="midnightblue" points="51.8928,-331.83 50.2274,-342.294 58.0542,-335.153 51.8928,-331.83"/>
</g>
<!-- Node143 -->
<g id="node44" class="node"><title>Node143</title>
<g id="a_node44"><a xlink:href="mqtt_8c.html#a91eaa7f7226c0c2dbe4712557dd5937f" target="_top" xlink:title="mqtt_tcpclient_discon_cb">
<polygon fill="white" stroke="black" points="125.5,-380.5 125.5,-399.5 253.5,-399.5 253.5,-380.5 125.5,-380.5"/>
<text text-anchor="middle" x="189.5" y="-387.5" font-family="Helvetica,sans-Serif" font-size="10.00">mqtt_tcpclient_discon_cb</text>
</a>
</g>
</g>
<!-- Node94&#45;&gt;Node143 -->
<g id="edge48" class="edge"><title>Node94&#45;&gt;Node143</title>
<path fill="none" stroke="midnightblue" d="M91.3133,-364.174C111.087,-369.429 133.884,-375.487 152.427,-380.414"/>
<polygon fill="midnightblue" stroke="midnightblue" points="92.1484,-360.775 81.5849,-361.589 90.3506,-367.54 92.1484,-360.775"/>
</g>
<!-- Node144 -->
<g id="node45" class="node"><title>Node144</title>
<g id="a_node45"><a xlink:href="mqtt_8c.html#ae43ebd832a20acdbf50031c3641c2699" target="_top" xlink:title="Tcp client connect repeat callback function. ">
<polygon fill="white" stroke="black" points="128,-190.5 128,-209.5 251,-209.5 251,-190.5 128,-190.5"/>
<text text-anchor="middle" x="189.5" y="-197.5" font-family="Helvetica,sans-Serif" font-size="10.00">mqtt_tcpclient_recon_cb</text>
</a>
</g>
</g>
<!-- Node94&#45;&gt;Node144 -->
<g id="edge50" class="edge"><title>Node94&#45;&gt;Node144</title>
<path fill="none" stroke="midnightblue" d="M52.5758,-333.172C63.8591,-305.545 88.4498,-254.055 125,-224 132.556,-217.787 141.887,-213.08 151.048,-209.556"/>
<polygon fill="midnightblue" stroke="midnightblue" points="49.3111,-331.91 48.9058,-342.497 55.8248,-334.474 49.3111,-331.91"/>
</g>
<!-- Node145 -->
<g id="node46" class="node"><title>Node145</title>
<g id="a_node46"><a xlink:href="mqtt_8c.html#af470856972320b9c02da9fcb6f419fd0" target="_top" xlink:title="Client received callback function. ">
<polygon fill="white" stroke="black" points="138.5,-342.5 138.5,-361.5 240.5,-361.5 240.5,-342.5 138.5,-342.5"/>
<text text-anchor="middle" x="189.5" y="-349.5" font-family="Helvetica,sans-Serif" font-size="10.00">mqtt_tcpclient_recv</text>
</a>
</g>
</g>
<!-- Node94&#45;&gt;Node145 -->
<g id="edge52" class="edge"><title>Node94&#45;&gt;Node145</title>
<path fill="none" stroke="midnightblue" d="M99.2478,-352C112.059,-352 125.682,-352 138.325,-352"/>
<polygon fill="midnightblue" stroke="midnightblue" points="99.1818,-348.5 89.1817,-352 99.1817,-355.5 99.1818,-348.5"/>
</g>
<!-- Node146 -->
<g id="node47" class="node"><title>Node146</title>
<g id="a_node47"><a xlink:href="mqtt_8c.html#aa5738eea4ea5cc1152e55c28280a8956" target="_top" xlink:title="Client send over callback function. ">
<polygon fill="white" stroke="black" points="130.5,-266.5 130.5,-285.5 248.5,-285.5 248.5,-266.5 130.5,-266.5"/>
<text text-anchor="middle" x="189.5" y="-273.5" font-family="Helvetica,sans-Serif" font-size="10.00">mqtt_tcpclient_sent_cb</text>
</a>
</g>
</g>
<!-- Node94&#45;&gt;Node146 -->
<g id="edge54" class="edge"><title>Node94&#45;&gt;Node146</title>
<path fill="none" stroke="midnightblue" d="M64.0701,-335.952C79.4988,-323.317 102.49,-306.051 125,-295 132.541,-291.298 140.944,-288.162 149.105,-285.571"/>
<polygon fill="midnightblue" stroke="midnightblue" points="61.7541,-333.326 56.3278,-342.426 66.2444,-338.696 61.7541,-333.326"/>
</g>
<!-- Node147 -->
<g id="node48" class="node"><title>Node147</title>
<g id="a_node48"><a xlink:href="mqtt_8c.html#aff05121b85e88019a26bff9ed48655aa" target="_top" xlink:title="mqtt_timer">
<polygon fill="white" stroke="black" points="158,-114.5 158,-133.5 221,-133.5 221,-114.5 158,-114.5"/>
<text text-anchor="middle" x="189.5" y="-121.5" font-family="Helvetica,sans-Serif" font-size="10.00">mqtt_timer</text>
</a>
</g>
</g>
<!-- Node94&#45;&gt;Node147 -->
<g id="edge56" class="edge"><title>Node94&#45;&gt;Node147</title>
<path fill="none" stroke="midnightblue" d="M47.8192,-332.335C53.5589,-292.245 72.0223,-200.438 125,-148 133.879,-139.212 146.292,-133.587 157.79,-130.012"/>
<polygon fill="midnightblue" stroke="midnightblue" points="44.3291,-332.031 46.4949,-342.402 51.2693,-332.944 44.3291,-332.031"/>
</g>
<!-- Node148 -->
<g id="node49" class="node"><title>Node148</title>
<g id="a_node49"><a xlink:href="mqtt_8c.html#a7f28cd912dae4c1386c10026a267b579" target="_top" xlink:title="MQTT un&#45;subscibe function. ">
<polygon fill="white" stroke="black" points="136.5,-38.5 136.5,-57.5 242.5,-57.5 242.5,-38.5 136.5,-38.5"/>
<text text-anchor="middle" x="189.5" y="-45.5" font-family="Helvetica,sans-Serif" font-size="10.00">MQTT_UnSubscribe</text>
</a>
</g>
</g>
<!-- Node94&#45;&gt;Node148 -->
<g id="edge58" class="edge"><title>Node94&#45;&gt;Node148</title>
<path fill="none" stroke="midnightblue" d="M44.9304,-332.218C44.5727,-280.944 50.9048,-142.494 125,-67 128.788,-63.1401 133.326,-60.0571 138.21,-57.5958"/>
<polygon fill="midnightblue" stroke="midnightblue" points="41.4321,-332.352 45.1,-342.291 48.4311,-332.234 41.4321,-332.352"/>
</g>
<!-- Node149 -->
<g id="node50" class="node"><title>Node149</title>
<g id="a_node50"><a xlink:href="uart_8c.html#a899cd55c7d84717f3e869e4ee5bfda84" target="_top" xlink:title="uart0_rx_intr_handler">
<polygon fill="white" stroke="red" points="136,-0.5 136,-19.5 243,-19.5 243,-0.5 136,-0.5"/>
<text text-anchor="middle" x="189.5" y="-7.5" font-family="Helvetica,sans-Serif" font-size="10.00">uart0_rx_intr_handler</text>
</a>
</g>
</g>
<!-- Node94&#45;&gt;Node149 -->
<g id="edge59" class="edge"><title>Node94&#45;&gt;Node149</title>
<path fill="none" stroke="midnightblue" d="M47.8099,-332.119C55.5432,-268.847 82.4585,-73.6968 125,-29 128.649,-25.1658 133.037,-22.096 137.781,-19.6397"/>
<polygon fill="midnightblue" stroke="midnightblue" points="44.3008,-331.987 46.5898,-342.332 51.2514,-332.818 44.3008,-331.987"/>
</g>
<!-- Node96 -->
<g id="node3" class="node"><title>Node96</title>
<g id="a_node3"><a xlink:href="espenc_8c.html#a55dfa017402fc9454bf75d0536cb2425" target="_top" xlink:title="enc_scoop_packets">
<polygon fill="white" stroke="red" points="305,-1418.5 305,-1437.5 409,-1437.5 409,-1418.5 305,-1418.5"/>
<text text-anchor="middle" x="357" y="-1425.5" font-family="Helvetica,sans-Serif" font-size="10.00">enc_scoop_packets</text>
</a>
</g>
</g>
<!-- Node95&#45;&gt;Node96 -->
<g id="edge2" class="edge"><title>Node95&#45;&gt;Node96</title>
<path fill="none" stroke="midnightblue" d="M264.404,-1428C278.109,-1428 292.14,-1428 304.973,-1428"/>
<polygon fill="midnightblue" stroke="midnightblue" points="264.013,-1424.5 254.013,-1428 264.013,-1431.5 264.013,-1424.5"/>
</g>
<!-- Node100 -->
<g id="node5" class="node"><title>Node100</title>
<g id="a_node5"><a xlink:href="espenc_8c.html#a81a1bda1746cf556eca33a6ab92ea851" target="_top" xlink:title="enc28j60_init">
<polygon fill="white" stroke="red" points="320,-1380.5 320,-1399.5 394,-1399.5 394,-1380.5 320,-1380.5"/>
<text text-anchor="middle" x="357" y="-1387.5" font-family="Helvetica,sans-Serif" font-size="10.00">enc28j60_init</text>
</a>
</g>
</g>
<!-- Node99&#45;&gt;Node100 -->
<g id="edge4" class="edge"><title>Node99&#45;&gt;Node100</title>
<path fill="none" stroke="midnightblue" d="M244.733,-1390C269.426,-1390 297.979,-1390 319.978,-1390"/>
<polygon fill="midnightblue" stroke="midnightblue" points="244.416,-1386.5 234.416,-1390 244.416,-1393.5 244.416,-1386.5"/>
</g>
<!-- Node102 -->
<g id="node7" class="node"><title>Node102</title>
<g id="a_node7"><a xlink:href="mqtt_8c.html#a9d88fa6efb9163d4dbf9dc750a8d4ed0" target="_top" xlink:title="MQTT_Task">
<polygon fill="white" stroke="black" points="605,-266.5 605,-285.5 676,-285.5 676,-266.5 605,-266.5"/>
<text text-anchor="middle" x="640.5" y="-273.5" font-family="Helvetica,sans-Serif" font-size="10.00">MQTT_Task</text>
</a>
</g>
</g>
<!-- Node101&#45;&gt;Node102 -->
<g id="edge6" class="edge"><title>Node101&#45;&gt;Node102</title>
<path fill="none" stroke="midnightblue" d="M536.365,-196.985C562.28,-216.839 605.667,-250.079 626.951,-266.386"/>
<polygon fill="midnightblue" stroke="midnightblue" points="538.37,-194.112 528.303,-190.809 534.113,-199.669 538.37,-194.112"/>
</g>
<!-- Node102&#45;&gt;Node103 -->
<g id="edge7" class="edge"><title>Node102&#45;&gt;Node103</title>
<path fill="none" stroke="midnightblue" d="M645.703,-295.836C664.451,-384.311 740.103,-741.338 753.475,-804.444"/>
<polygon fill="midnightblue" stroke="midnightblue" points="649.073,-294.854 643.576,-285.797 642.225,-296.306 649.073,-294.854"/>
</g>
<!-- Node106 -->
<g id="node11" class="node"><title>Node106</title>
<g id="a_node11"><a xlink:href="cron_8c.html#a2782af03df9b913cfa565a0770e1afe1" target="_top" xlink:title="minute_timer_func">
<polygon fill="white" stroke="red" points="308.5,-1304.5 308.5,-1323.5 405.5,-1323.5 405.5,-1304.5 308.5,-1304.5"/>
<text text-anchor="middle" x="357" y="-1311.5" font-family="Helvetica,sans-Serif" font-size="10.00">minute_timer_func</text>
</a>
</g>
</g>
<!-- Node105&#45;&gt;Node106 -->
<g id="edge10" class="edge"><title>Node105&#45;&gt;Node106</title>
<path fill="none" stroke="midnightblue" d="M242.311,-1287.9C265.573,-1293.24 292.647,-1299.45 314.538,-1304.48"/>
<polygon fill="midnightblue" stroke="midnightblue" points="242.792,-1284.42 232.263,-1285.59 241.226,-1291.24 242.792,-1284.42"/>
</g>
<!-- Node108 -->
<g id="node12" class="node"><title>Node108</title>
<g id="a_node12"><a xlink:href="mqtt__rpc_8h.html#aa1f04b51c761fee469dd51800062739d" target="_top" xlink:title="mqtt_rpc_reconnect">
<polygon fill="white" stroke="black" points="305.5,-1266.5 305.5,-1285.5 408.5,-1285.5 408.5,-1266.5 305.5,-1266.5"/>
<text text-anchor="middle" x="357" y="-1273.5" font-family="Helvetica,sans-Serif" font-size="10.00">mqtt_rpc_reconnect</text>
</a>
</g>
</g>
<!-- Node105&#45;&gt;Node108 -->
<g id="edge11" class="edge"><title>Node105&#45;&gt;Node108</title>
<path fill="none" stroke="midnightblue" d="M249.486,-1276C267.73,-1276 287.658,-1276 305.29,-1276"/>
<polygon fill="midnightblue" stroke="midnightblue" points="249.26,-1272.5 239.26,-1276 249.26,-1279.5 249.26,-1272.5"/>
</g>
<!-- Node109&#45;&gt;Node101 -->
<g id="edge13" class="edge"><title>Node109&#45;&gt;Node101</title>
<path fill="none" stroke="midnightblue" d="M242.93,-88.8691C291.285,-92.8725 364.385,-102.404 424,-125 454.165,-136.433 485.156,-158.615 501.579,-171.361"/>
<polygon fill="midnightblue" stroke="midnightblue" points="242.942,-85.3595 232.701,-88.0741 242.399,-92.3385 242.942,-85.3595"/>
</g>
<!-- Node112 -->
<g id="node16" class="node"><title>Node112</title>
<g id="a_node16"><a xlink:href="en61107__request_8c.html#aa3b162cf5364986ea19e831ac2b18f76" target="_top" xlink:title="en61107_received_task">
<polygon fill="white" stroke="red" points="297.5,-722.5 297.5,-741.5 416.5,-741.5 416.5,-722.5 297.5,-722.5"/>
<text text-anchor="middle" x="357" y="-729.5" font-family="Helvetica,sans-Serif" font-size="10.00">en61107_received_task</text>
</a>
</g>
</g>
<!-- Node111&#45;&gt;Node112 -->
<g id="edge17" class="edge"><title>Node111&#45;&gt;Node112</title>
<path fill="none" stroke="midnightblue" d="M240.742,-732C258.553,-732 278.752,-732 297.21,-732"/>
<polygon fill="midnightblue" stroke="midnightblue" points="240.563,-728.5 230.563,-732 240.563,-735.5 240.563,-728.5"/>
</g>
<!-- Node114 -->
<g id="node17" class="node"><title>Node114</title>
<g id="a_node17"><a xlink:href="en61107__request_8h.html#a7384d014eb9e833f64ecf4a9f86f87be" target="_top" xlink:title="en61107_request_send">
<polygon fill="white" stroke="black" points="298.5,-684.5 298.5,-703.5 415.5,-703.5 415.5,-684.5 298.5,-684.5"/>
<text text-anchor="middle" x="357" y="-691.5" font-family="Helvetica,sans-Serif" font-size="10.00">en61107_request_send</text>
</a>
</g>
</g>
<!-- Node111&#45;&gt;Node114 -->
<g id="edge18" class="edge"><title>Node111&#45;&gt;Node114</title>
<path fill="none" stroke="midnightblue" d="M240.425,-720.537C264.114,-715.098 292.086,-708.675 314.578,-703.511"/>
<polygon fill="midnightblue" stroke="midnightblue" points="239.526,-717.152 230.563,-722.801 241.093,-723.975 239.526,-717.152"/>
</g>
<!-- Node115 -->
<g id="node18" class="node"><title>Node115</title>
<g id="a_node18"><a xlink:href="kmp__request_8c.html#a3f6b790a06b933b78f40ade5e9a16131" target="_top" xlink:title="kmp_received_task">
<polygon fill="white" stroke="red" points="464,-1209.5 464,-1228.5 565,-1228.5 565,-1209.5 464,-1209.5"/>
<text text-anchor="middle" x="514.5" y="-1216.5" font-family="Helvetica,sans-Serif" font-size="10.00">kmp_received_task</text>
</a>
</g>
</g>
<!-- Node111&#45;&gt;Node115 -->
<g id="edge19" class="edge"><title>Node111&#45;&gt;Node115</title>
<path fill="none" stroke="midnightblue" d="M240.084,-740.109C245.416,-742.806 250.253,-746.351 254,-751 319.459,-832.21 213.467,-1148.13 290,-1219 344.52,-1269.49 442.538,-1244.44 488.469,-1228.61"/>
<polygon fill="midnightblue" stroke="midnightblue" points="241.333,-736.838 230.751,-736.324 238.703,-743.325 241.333,-736.838"/>
</g>
<!-- Node117 -->
<g id="node19" class="node"><title>Node117</title>
<g id="a_node19"><a xlink:href="kmp__request_8h.html#a3b022dcdc832786eb06126b5e6879604" target="_top" xlink:title="kmp_request_send">
<polygon fill="white" stroke="red" points="307.5,-1190.5 307.5,-1209.5 406.5,-1209.5 406.5,-1190.5 307.5,-1190.5"/>
<text text-anchor="middle" x="357" y="-1197.5" font-family="Helvetica,sans-Serif" font-size="10.00">kmp_request_send</text>
</a>
</g>
</g>
<!-- Node111&#45;&gt;Node117 -->
<g id="edge20" class="edge"><title>Node111&#45;&gt;Node117</title>
<path fill="none" stroke="midnightblue" d="M240.054,-740.133C245.391,-742.826 250.237,-746.364 254,-751 314.429,-825.453 229.184,-1106.86 290,-1181 294.613,-1186.62 300.775,-1190.65 307.486,-1193.51"/>
<polygon fill="midnightblue" stroke="midnightblue" points="241.299,-736.861 230.717,-736.352 238.672,-743.349 241.299,-736.861"/>
</g>
<!-- Node119 -->
<g id="node20" class="node"><title>Node119</title>
<g id="a_node20"><a xlink:href="mqtt__rpc_8h.html#a0e5c92a93eaf9b2e3c2cd98c0fcbe65f" target="_top" xlink:title="mqtt_rpc_ping">
<polygon fill="white" stroke="black" points="318,-646.5 318,-665.5 396,-665.5 396,-646.5 318,-646.5"/>
<text text-anchor="middle" x="357" y="-653.5" font-family="Helvetica,sans-Serif" font-size="10.00">mqtt_rpc_ping</text>
</a>
</g>
</g>
<!-- Node111&#45;&gt;Node119 -->
<g id="edge22" class="edge"><title>Node111&#45;&gt;Node119</title>
<path fill="none" stroke="midnightblue" d="M213.322,-716.813C232.982,-704.255 262.46,-686.652 290,-675 298.785,-671.283 308.525,-668.034 317.764,-665.323"/>
<polygon fill="midnightblue" stroke="midnightblue" points="211.256,-713.981 204.767,-722.357 215.062,-719.856 211.256,-713.981"/>
</g>
<!-- Node120 -->
<g id="node21" class="node"><title>Node120</title>
<g id="a_node21"><a xlink:href="mqtt__rpc_8h.html#a6c4d0371a5542aa2dc9543fc7b829436" target="_top" xlink:title="mqtt_rpc_version">
<polygon fill="white" stroke="black" points="311,-608.5 311,-627.5 403,-627.5 403,-608.5 311,-608.5"/>
<text text-anchor="middle" x="357" y="-615.5" font-family="Helvetica,sans-Serif" font-size="10.00">mqtt_rpc_version</text>
</a>
</g>
</g>
<!-- Node111&#45;&gt;Node120 -->
<g id="edge23" class="edge"><title>Node111&#45;&gt;Node120</title>
<path fill="none" stroke="midnightblue" d="M204.291,-714.407C221.939,-693.054 254.504,-657.384 290,-637 296.721,-633.14 304.284,-630.016 311.828,-627.502"/>
<polygon fill="midnightblue" stroke="midnightblue" points="201.442,-712.363 197.877,-722.339 206.886,-716.764 201.442,-712.363"/>
</g>
<!-- Node121 -->
<g id="node22" class="node"><title>Node121</title>
<g id="a_node22"><a xlink:href="mqtt__rpc_8h.html#acd6cfd98c940051391eb8c0bd2bbeca9" target="_top" xlink:title="mqtt_rpc_uptime">
<polygon fill="white" stroke="black" points="312.5,-570.5 312.5,-589.5 401.5,-589.5 401.5,-570.5 312.5,-570.5"/>
<text text-anchor="middle" x="357" y="-577.5" font-family="Helvetica,sans-Serif" font-size="10.00">mqtt_rpc_uptime</text>
</a>
</g>
</g>
<!-- Node111&#45;&gt;Node121 -->
<g id="edge24" class="edge"><title>Node111&#45;&gt;Node121</title>
<path fill="none" stroke="midnightblue" d="M199.474,-713.219C214.258,-684.294 246.487,-629.05 290,-599 296.672,-594.392 304.456,-590.892 312.291,-588.236"/>
<polygon fill="midnightblue" stroke="midnightblue" points="196.293,-711.754 194.982,-722.267 202.563,-714.866 196.293,-711.754"/>
</g>
<!-- Node122 -->
<g id="node23" class="node"><title>Node122</title>
<g id="a_node23"><a xlink:href="mqtt__rpc_8h.html#a550893f994cbbd9b6b745488f0c512ac" target="_top" xlink:title="mqtt_rpc_vdd">
<polygon fill="white" stroke="black" points="319,-532.5 319,-551.5 395,-551.5 395,-532.5 319,-532.5"/>
<text text-anchor="middle" x="357" y="-539.5" font-family="Helvetica,sans-Serif" font-size="10.00">mqtt_rpc_vdd</text>
</a>
</g>
</g>
<!-- Node111&#45;&gt;Node122 -->
<g id="edge25" class="edge"><title>Node111&#45;&gt;Node122</title>
<path fill="none" stroke="midnightblue" d="M196.438,-712.448C208.268,-676.84 238.197,-601.375 290,-561 298.276,-554.55 308.661,-550.289 318.727,-547.474"/>
<polygon fill="midnightblue" stroke="midnightblue" points="193.052,-711.545 193.344,-722.136 199.721,-713.675 193.052,-711.545"/>
</g>
<!-- Node123 -->
<g id="node24" class="node"><title>Node123</title>
<g id="a_node24"><a xlink:href="mqtt__rpc_8h.html#a9d2f80fe20656d22687c0414da46fcce" target="_top" xlink:title="mqtt_rpc_rssi">
<polygon fill="white" stroke="black" points="319,-494.5 319,-513.5 395,-513.5 395,-494.5 319,-494.5"/>
<text text-anchor="middle" x="357" y="-501.5" font-family="Helvetica,sans-Serif" font-size="10.00">mqtt_rpc_rssi</text>
</a>
</g>
</g>
<!-- Node111&#45;&gt;Node123 -->
<g id="edge26" class="edge"><title>Node111&#45;&gt;Node123</title>
<path fill="none" stroke="midnightblue" d="M194.182,-712.514C203.018,-671.208 229.358,-574.43 290,-523 298.093,-516.136 308.536,-511.748 318.717,-508.945"/>
<polygon fill="midnightblue" stroke="midnightblue" points="190.735,-711.903 192.18,-722.399 197.595,-713.293 190.735,-711.903"/>
</g>
<!-- Node124 -->
<g id="node25" class="node"><title>Node124</title>
<g id="a_node25"><a xlink:href="mqtt__rpc_8h.html#a93655988d0f1c02f278b77ab1bb57573" target="_top" xlink:title="mqtt_rpc_ssid">
<polygon fill="white" stroke="black" points="318,-456.5 318,-475.5 396,-475.5 396,-456.5 318,-456.5"/>
<text text-anchor="middle" x="357" y="-463.5" font-family="Helvetica,sans-Serif" font-size="10.00">mqtt_rpc_ssid</text>
</a>
</g>
</g>
<!-- Node111&#45;&gt;Node124 -->
<g id="edge27" class="edge"><title>Node111&#45;&gt;Node124</title>
<path fill="none" stroke="midnightblue" d="M192.63,-712.238C198.73,-665.55 220.556,-547.658 290,-485 297.702,-478.051 307.791,-473.63 317.756,-470.823"/>
<polygon fill="midnightblue" stroke="midnightblue" points="189.143,-711.916 191.424,-722.263 196.093,-712.753 189.143,-711.916"/>
</g>
<!-- Node125 -->
<g id="node26" class="node"><title>Node125</title>
<g id="a_node26"><a xlink:href="mqtt__rpc_8h.html#aa3b038b94189cb8a82fdc7e5115d90c8" target="_top" xlink:title="mqtt_rpc_set_ssid">
<polygon fill="white" stroke="black" points="308.5,-418.5 308.5,-437.5 405.5,-437.5 405.5,-418.5 308.5,-418.5"/>
<text text-anchor="middle" x="357" y="-425.5" font-family="Helvetica,sans-Serif" font-size="10.00">mqtt_rpc_set_ssid</text>
</a>
</g>
</g>
<!-- Node111&#45;&gt;Node125 -->
<g id="edge28" class="edge"><title>Node111&#45;&gt;Node125</title>
<path fill="none" stroke="midnightblue" d="M191.409,-712.414C194.871,-661.052 211.42,-521.329 290,-447 295.197,-442.084 301.584,-438.428 308.317,-435.713"/>
<polygon fill="midnightblue" stroke="midnightblue" points="187.909,-712.299 190.826,-722.485 194.898,-712.703 187.909,-712.299"/>
</g>
<!-- Node126 -->
<g id="node27" class="node"><title>Node126</title>
<g id="a_node27"><a xlink:href="mqtt__rpc_8h.html#a3384f5aa84b17fa3902e2aad318913d8" target="_top" xlink:title="mqtt_rpc_set_pwd">
<polygon fill="white" stroke="black" points="308.5,-380.5 308.5,-399.5 405.5,-399.5 405.5,-380.5 308.5,-380.5"/>
<text text-anchor="middle" x="357" y="-387.5" font-family="Helvetica,sans-Serif" font-size="10.00">mqtt_rpc_set_pwd</text>
</a>
</g>
</g>
<!-- Node111&#45;&gt;Node126 -->
<g id="edge29" class="edge"><title>Node111&#45;&gt;Node126</title>
<path fill="none" stroke="midnightblue" d="M195.371,-712.436C212.096,-645.892 267.388,-431.197 290,-409 295.191,-403.905 301.655,-400.159 308.491,-397.409"/>
<polygon fill="midnightblue" stroke="midnightblue" points="191.902,-711.881 192.87,-722.432 198.693,-713.581 191.902,-711.881"/>
</g>
<!-- Node127 -->
<g id="node28" class="node"><title>Node127</title>
<g id="a_node28"><a xlink:href="mqtt__rpc_8h.html#a651f41878c47fd58b8ae08a49692d5d0" target="_top" xlink:title="mqtt_rpc_set_ssid_pwd">
<polygon fill="white" stroke="black" points="297,-342.5 297,-361.5 417,-361.5 417,-342.5 297,-342.5"/>
<text text-anchor="middle" x="357" y="-349.5" font-family="Helvetica,sans-Serif" font-size="10.00">mqtt_rpc_set_ssid_pwd</text>
</a>
</g>
</g>
<!-- Node111&#45;&gt;Node127 -->
<g id="edge30" class="edge"><title>Node111&#45;&gt;Node127</title>
<path fill="none" stroke="midnightblue" d="M195.29,-712.596C213.423,-639.419 277.473,-383.67 290,-371 293.856,-367.1 298.458,-363.988 303.412,-361.506"/>
<polygon fill="midnightblue" stroke="midnightblue" points="191.877,-711.817 192.873,-722.364 198.672,-713.498 191.877,-711.817"/>
</g>
<!-- Node128 -->
<g id="node29" class="node"><title>Node128</title>
<g id="a_node29"><a xlink:href="mqtt__rpc_8h.html#a482a5f229bd1fac0511a057bbf4363f2" target="_top" xlink:title="mqtt_rpc_wifi_status">
<polygon fill="white" stroke="black" points="303.5,-304.5 303.5,-323.5 410.5,-323.5 410.5,-304.5 303.5,-304.5"/>
<text text-anchor="middle" x="357" y="-311.5" font-family="Helvetica,sans-Serif" font-size="10.00">mqtt_rpc_wifi_status</text>
</a>
</g>
</g>
<!-- Node111&#45;&gt;Node128 -->
<g id="edge31" class="edge"><title>Node111&#45;&gt;Node128</title>
<path fill="none" stroke="midnightblue" d="M195.439,-712.586C206.18,-670.326 232.43,-566.821 254,-480 270.218,-414.72 243.401,-381.508 290,-333 293.8,-329.045 298.365,-325.897 303.298,-323.395"/>
<polygon fill="midnightblue" stroke="midnightblue" points="192.018,-711.839 192.945,-722.393 198.802,-713.564 192.018,-711.839"/>
</g>
<!-- Node129 -->
<g id="node30" class="node"><title>Node129</title>
<g id="a_node30"><a xlink:href="mqtt__rpc_8h.html#a7d1ed70e046b535e06c58675d4f1676b" target="_top" xlink:title="mqtt_rpc_ap_status">
<polygon fill="white" stroke="black" points="305.5,-1152.5 305.5,-1171.5 408.5,-1171.5 408.5,-1152.5 305.5,-1152.5"/>
<text text-anchor="middle" x="357" y="-1159.5" font-family="Helvetica,sans-Serif" font-size="10.00">mqtt_rpc_ap_status</text>
</a>
</g>
</g>
<!-- Node111&#45;&gt;Node129 -->
<g id="edge32" class="edge"><title>Node111&#45;&gt;Node129</title>
<path fill="none" stroke="midnightblue" d="M240.019,-740.162C245.361,-742.851 250.218,-746.379 254,-751 309.4,-818.699 234.247,-1075.59 290,-1143 294.104,-1147.96 299.413,-1151.68 305.236,-1154.45"/>
<polygon fill="midnightblue" stroke="midnightblue" points="241.259,-736.888 230.676,-736.385 238.635,-743.378 241.259,-736.888"/>
</g>
<!-- Node130 -->
<g id="node31" class="node"><title>Node130</title>
<g id="a_node31"><a xlink:href="mqtt__rpc_8h.html#a29c5b0a22ebb1032363e20a1eb228d88" target="_top" xlink:title="mqtt_rpc_mem">
<polygon fill="white" stroke="black" points="316,-1114.5 316,-1133.5 398,-1133.5 398,-1114.5 316,-1114.5"/>
<text text-anchor="middle" x="357" y="-1121.5" font-family="Helvetica,sans-Serif" font-size="10.00">mqtt_rpc_mem</text>
</a>
</g>
</g>
<!-- Node111&#45;&gt;Node130 -->
<g id="edge33" class="edge"><title>Node111&#45;&gt;Node130</title>
<path fill="none" stroke="midnightblue" d="M239.976,-740.197C245.325,-742.88 250.196,-746.397 254,-751 354.751,-872.898 188.614,-983.63 290,-1105 296.498,-1112.78 305.956,-1117.49 315.694,-1120.3"/>
<polygon fill="midnightblue" stroke="midnightblue" points="241.21,-736.921 230.627,-736.425 238.591,-743.413 241.21,-736.921"/>
</g>
<!-- Node131 -->
<g id="node32" class="node"><title>Node131</title>
<g id="a_node32"><a xlink:href="mqtt__rpc_8h.html#afbd8a015cb20feb245dfc778416af7e9" target="_top" xlink:title="mqtt_rpc_crypto">
<polygon fill="white" stroke="black" points="313.5,-1076.5 313.5,-1095.5 400.5,-1095.5 400.5,-1076.5 313.5,-1076.5"/>
<text text-anchor="middle" x="357" y="-1083.5" font-family="Helvetica,sans-Serif" font-size="10.00">mqtt_rpc_crypto</text>
</a>
</g>
</g>
<!-- Node111&#45;&gt;Node131 -->
<g id="edge34" class="edge"><title>Node111&#45;&gt;Node131</title>
<path fill="none" stroke="midnightblue" d="M239.923,-740.241C245.281,-742.917 250.168,-746.421 254,-751 344.71,-859.408 198.726,-959.067 290,-1067 296.006,-1074.1 304.478,-1078.64 313.358,-1081.52"/>
<polygon fill="midnightblue" stroke="midnightblue" points="241.15,-736.962 230.566,-736.476 238.536,-743.456 241.15,-736.962"/>
</g>
<!-- Node132 -->
<g id="node33" class="node"><title>Node132</title>
<g id="a_node33"><a xlink:href="mqtt__rpc_8h.html#aa21aaf34522e1a100a4120d9f63d2dad" target="_top" xlink:title="mqtt_rpc_reset_reason">
<polygon fill="white" stroke="black" points="299,-1038.5 299,-1057.5 415,-1057.5 415,-1038.5 299,-1038.5"/>
<text text-anchor="middle" x="357" y="-1045.5" font-family="Helvetica,sans-Serif" font-size="10.00">mqtt_rpc_reset_reason</text>
</a>
</g>
</g>
<!-- Node111&#45;&gt;Node132 -->
<g id="edge35" class="edge"><title>Node111&#45;&gt;Node132</title>
<path fill="none" stroke="midnightblue" d="M240.441,-740.592C245.581,-743.219 250.274,-746.616 254,-751 334.682,-845.934 208.824,-934.488 290,-1029 293.263,-1032.8 297.232,-1035.86 301.587,-1038.33"/>
<polygon fill="midnightblue" stroke="midnightblue" points="241.399,-737.202 230.819,-736.647 238.743,-743.679 241.399,-737.202"/>
</g>
<!-- Node133 -->
<g id="node34" class="node"><title>Node133</title>
<g id="a_node34"><a xlink:href="mqtt__rpc_8h.html#ae3c71a438ecea4bb271bd1586af59452" target="_top" xlink:title="mqtt_rpc_restart">
<polygon fill="white" stroke="black" points="313,-1000.5 313,-1019.5 401,-1019.5 401,-1000.5 313,-1000.5"/>
<text text-anchor="middle" x="357" y="-1007.5" font-family="Helvetica,sans-Serif" font-size="10.00">mqtt_rpc_restart</text>
</a>
</g>
</g>
<!-- Node111&#45;&gt;Node133 -->
<g id="edge36" class="edge"><title>Node111&#45;&gt;Node133</title>
<path fill="none" stroke="midnightblue" d="M240.356,-740.665C245.51,-743.28 250.23,-746.654 254,-751 324.672,-832.481 218.904,-909.888 290,-991 295.973,-997.815 304.217,-1002.26 312.856,-1005.14"/>
<polygon fill="midnightblue" stroke="midnightblue" points="241.3,-737.271 230.719,-736.732 238.655,-743.752 241.3,-737.271"/>
</g>
<!-- Node134 -->
<g id="node35" class="node"><title>Node134</title>
<g id="a_node35"><a xlink:href="mqtt__rpc_8h.html#a5ede5df0880a2c3823a5c3757423678b" target="_top" xlink:title="mqtt_rpc_set_cron">
<polygon fill="white" stroke="black" points="308,-962.5 308,-981.5 406,-981.5 406,-962.5 308,-962.5"/>
<text text-anchor="middle" x="357" y="-969.5" font-family="Helvetica,sans-Serif" font-size="10.00">mqtt_rpc_set_cron</text>
</a>
</g>
</g>
<!-- Node111&#45;&gt;Node134 -->
<g id="edge37" class="edge"><title>Node111&#45;&gt;Node134</title>
<path fill="none" stroke="midnightblue" d="M240.241,-740.767C245.415,-743.364 250.171,-746.706 254,-751 314.692,-819.063 228.954,-885.255 290,-953 294.869,-958.403 301.165,-962.31 307.931,-965.127"/>
<polygon fill="midnightblue" stroke="midnightblue" points="241.167,-737.366 230.585,-736.851 238.536,-743.852 241.167,-737.366"/>
</g>
<!-- Node135 -->
<g id="node36" class="node"><title>Node135</title>
<g id="a_node36"><a xlink:href="mqtt__rpc_8h.html#a023697ad978d1154228e256583a147c0" target="_top" xlink:title="mqtt_rpc_clear_cron">
<polygon fill="white" stroke="black" points="304.5,-924.5 304.5,-943.5 409.5,-943.5 409.5,-924.5 304.5,-924.5"/>
<text text-anchor="middle" x="357" y="-931.5" font-family="Helvetica,sans-Serif" font-size="10.00">mqtt_rpc_clear_cron</text>
</a>
</g>
</g>
<!-- Node111&#45;&gt;Node135 -->
<g id="edge38" class="edge"><title>Node111&#45;&gt;Node135</title>
<path fill="none" stroke="midnightblue" d="M240.271,-741.013C245.399,-743.57 250.135,-746.835 254,-751 304.762,-805.7 238.954,-860.566 290,-915 294.078,-919.349 299.081,-922.724 304.492,-925.339"/>
<polygon fill="midnightblue" stroke="midnightblue" points="241.305,-737.655 230.723,-737.132 238.669,-744.14 241.305,-737.655"/>
</g>
<!-- Node136 -->
<g id="node37" class="node"><title>Node136</title>
<g id="a_node37"><a xlink:href="mqtt__rpc_8h.html#a1e120184f7f332e637fc9481bcf5ce89" target="_top" xlink:title="mqtt_rpc_cron">
<polygon fill="white" stroke="black" points="317.5,-886.5 317.5,-905.5 396.5,-905.5 396.5,-886.5 317.5,-886.5"/>
<text text-anchor="middle" x="357" y="-893.5" font-family="Helvetica,sans-Serif" font-size="10.00">mqtt_rpc_cron</text>
</a>
</g>
</g>
<!-- Node111&#45;&gt;Node136 -->
<g id="edge39" class="edge"><title>Node111&#45;&gt;Node136</title>
<path fill="none" stroke="midnightblue" d="M240.218,-741.348C245.315,-743.849 250.058,-747.009 254,-751 294.926,-792.438 248.859,-835.776 290,-877 297.328,-884.343 307.298,-888.889 317.267,-891.691"/>
<polygon fill="midnightblue" stroke="midnightblue" points="241.342,-738.027 230.76,-737.521 238.717,-744.516 241.342,-738.027"/>
</g>
<!-- Node137 -->
<g id="node38" class="node"><title>Node137</title>
<g id="a_node38"><a xlink:href="mqtt__rpc_8h.html#a44921185fc90cf7507f2eaf4fa48861a" target="_top" xlink:title="mqtt_rpc_open_until">
<polygon fill="white" stroke="black" points="305,-848.5 305,-867.5 409,-867.5 409,-848.5 305,-848.5"/>
<text text-anchor="middle" x="357" y="-855.5" font-family="Helvetica,sans-Serif" font-size="10.00">mqtt_rpc_open_until</text>
</a>
</g>
</g>
<!-- Node111&#45;&gt;Node137 -->
<g id="edge40" class="edge"><title>Node111&#45;&gt;Node137</title>
<path fill="none" stroke="midnightblue" d="M239.982,-741.896C245.082,-744.3 249.89,-747.288 254,-751 285.054,-779.049 258.995,-809.897 290,-838 294.79,-842.342 300.496,-845.742 306.519,-848.405"/>
<polygon fill="midnightblue" stroke="midnightblue" points="241.163,-738.599 230.577,-738.166 238.583,-745.106 241.163,-738.599"/>
</g>
<!-- Node138 -->
<g id="node39" class="node"><title>Node138</title>
<g id="a_node39"><a xlink:href="mqtt__rpc_8h.html#a37edc063b829348999e78221ed0f247e" target="_top" xlink:title="mqtt_rpc_open_until\l_delta">
<polygon fill="white" stroke="black" points="305,-799 305,-829 409,-829 409,-799 305,-799"/>
<text text-anchor="start" x="313" y="-817" font-family="Helvetica,sans-Serif" font-size="10.00">mqtt_rpc_open_until</text>
<text text-anchor="middle" x="357" y="-806" font-family="Helvetica,sans-Serif" font-size="10.00">_delta</text>
</a>
</g>
</g>
<!-- Node111&#45;&gt;Node138 -->
<g id="edge41" class="edge"><title>Node111&#45;&gt;Node138</title>
<path fill="none" stroke="midnightblue" d="M240.557,-744.221C245.249,-746.175 249.81,-748.422 254,-751 273.814,-763.191 270.633,-776.11 290,-789 295.61,-792.734 301.856,-796.017 308.205,-798.872"/>
<polygon fill="midnightblue" stroke="midnightblue" points="241.413,-740.806 230.82,-740.608 238.978,-747.368 241.413,-740.806"/>
</g>
<!-- Node139 -->
<g id="node40" class="node"><title>Node139</title>
<g id="a_node40"><a xlink:href="mqtt__rpc_8h.html#ab9db71238155955bc4dfbb2c7f93c9d2" target="_top" xlink:title="mqtt_rpc_status">
<polygon fill="white" stroke="black" points="313.5,-760.5 313.5,-779.5 400.5,-779.5 400.5,-760.5 313.5,-760.5"/>
<text text-anchor="middle" x="357" y="-767.5" font-family="Helvetica,sans-Serif" font-size="10.00">mqtt_rpc_status</text>
</a>
</g>
</g>
<!-- Node111&#45;&gt;Node139 -->
<g id="edge42" class="edge"><title>Node111&#45;&gt;Node139</title>
<path fill="none" stroke="midnightblue" d="M240.425,-743.463C264.114,-748.902 292.086,-755.325 314.578,-760.489"/>
<polygon fill="midnightblue" stroke="midnightblue" points="241.093,-740.025 230.563,-741.199 239.526,-746.848 241.093,-740.025"/>
</g>
<!-- Node117&#45;&gt;Node115 -->
<g id="edge21" class="edge"><title>Node117&#45;&gt;Node115</title>
<path fill="none" stroke="midnightblue" d="M416.78,-1207.18C432.283,-1209.08 448.857,-1211.1 463.828,-1212.93"/>
<polygon fill="midnightblue" stroke="midnightblue" points="417.125,-1203.7 406.775,-1205.96 416.276,-1210.65 417.125,-1203.7"/>
</g>
<!-- Node140&#45;&gt;Node102 -->
<g id="edge44" class="edge"><title>Node140&#45;&gt;Node102</title>
<path fill="none" stroke="midnightblue" d="M579.389,-276C588.112,-276 596.785,-276 604.717,-276"/>
<polygon fill="midnightblue" stroke="midnightblue" points="579.167,-272.5 569.167,-276 579.167,-279.5 579.167,-272.5"/>
</g>
<!-- Node142&#45;&gt;Node101 -->
<g id="edge47" class="edge"><title>Node142&#45;&gt;Node101</title>
<path fill="none" stroke="midnightblue" d="M393.805,-225.013C403.599,-221.452 414.211,-217.584 424,-214 445.46,-206.142 469.791,-197.166 487.662,-190.562"/>
<polygon fill="midnightblue" stroke="midnightblue" points="392.549,-221.746 384.345,-228.451 394.939,-228.325 392.549,-221.746"/>
</g>
<!-- Node143&#45;&gt;Node142 -->
<g id="edge49" class="edge"><title>Node143&#45;&gt;Node142</title>
<path fill="none" stroke="midnightblue" d="M249.251,-375.012C250.925,-373.778 252.515,-372.444 254,-371 290.582,-335.438 254.466,-298.608 290,-262 296.114,-255.701 304.01,-251.047 312.201,-247.61"/>
<polygon fill="midnightblue" stroke="midnightblue" points="247.075,-372.236 240.296,-380.378 250.673,-378.241 247.075,-372.236"/>
</g>
<!-- Node144&#45;&gt;Node101 -->
<g id="edge51" class="edge"><title>Node144&#45;&gt;Node101</title>
<path fill="none" stroke="midnightblue" d="M261.288,-195.836C325.386,-192.066 417.697,-186.635 471.043,-183.497"/>
<polygon fill="midnightblue" stroke="midnightblue" points="261.031,-192.345 251.254,-196.426 261.442,-199.333 261.031,-192.345"/>
</g>
<!-- Node145&#45;&gt;Node142 -->
<g id="edge53" class="edge"><title>Node145&#45;&gt;Node142</title>
<path fill="none" stroke="midnightblue" d="M247.452,-337.685C249.755,-336.268 251.953,-334.711 254,-333 281.148,-310.312 263.522,-285.466 290,-262 297.117,-255.692 306.025,-251.001 314.97,-247.525"/>
<polygon fill="midnightblue" stroke="midnightblue" points="245.422,-334.793 238.134,-342.483 248.627,-341.016 245.422,-334.793"/>
</g>
<!-- Node146&#45;&gt;Node142 -->
<g id="edge55" class="edge"><title>Node146&#45;&gt;Node142</title>
<path fill="none" stroke="midnightblue" d="M242.311,-264.104C265.573,-258.763 292.647,-252.546 314.538,-247.52"/>
<polygon fill="midnightblue" stroke="midnightblue" points="241.226,-260.762 232.263,-266.411 242.792,-267.584 241.226,-260.762"/>
</g>
<!-- Node147&#45;&gt;Node101 -->
<g id="edge57" class="edge"><title>Node147&#45;&gt;Node101</title>
<path fill="none" stroke="midnightblue" d="M231.214,-125.099C278.211,-127.076 357.567,-132.597 424,-148 448.038,-153.573 474.413,-163.838 492.262,-171.445"/>
<polygon fill="midnightblue" stroke="midnightblue" points="231.254,-121.598 221.126,-124.709 230.983,-128.593 231.254,-121.598"/>
</g>
</g>
</svg>
