<?xml version="1.0" encoding="UTF-8" standalone="no"?>
<!DOCTYPE svg PUBLIC "-//W3C//DTD SVG 1.1//EN"
 "http://www.w3.org/Graphics/SVG/1.1/DTD/svg11.dtd">
<!-- Generated by graphviz version 2.38.0 (20140413.2041)
 -->
<!-- Title: system_get_chip_id Pages: 1 -->
<svg width="999pt" height="484pt"
 viewBox="0.00 0.00 999.00 484.00" xmlns="http://www.w3.org/2000/svg" xmlns:xlink="http://www.w3.org/1999/xlink">
<g id="graph0" class="graph" transform="scale(1 1) rotate(0) translate(4 480)">
<title>system_get_chip_id</title>
<polygon fill="white" stroke="none" points="-4,4 -4,-480 995,-480 995,4 -4,4"/>
<!-- Node15 -->
<g id="node1" class="node"><title>Node15</title>
<polygon fill="#bfbfbf" stroke="black" points="0,-171.5 0,-190.5 104,-190.5 104,-171.5 0,-171.5"/>
<text text-anchor="middle" x="52" y="-178.5" font-family="Helvetica,sans-Serif" font-size="10.00">system_get_chip_id</text>
</g>
<!-- Node16 -->
<g id="node2" class="node"><title>Node16</title>
<g id="a_node2"><a xlink:href="config_8h.html#a92adb6c5103eed30e16185a9cd233e51" target="_top" xlink:title="cfg_load">
<polygon fill="white" stroke="black" points="140,-171.5 140,-190.5 193,-190.5 193,-171.5 140,-171.5"/>
<text text-anchor="middle" x="166.5" y="-178.5" font-family="Helvetica,sans-Serif" font-size="10.00">cfg_load</text>
</a>
</g>
</g>
<!-- Node15&#45;&gt;Node16 -->
<g id="edge1" class="edge"><title>Node15&#45;&gt;Node16</title>
<path fill="none" stroke="midnightblue" d="M114.412,-181C123.336,-181 132.084,-181 139.75,-181"/>
<polygon fill="midnightblue" stroke="midnightblue" points="114.312,-177.5 104.312,-181 114.312,-184.5 114.312,-177.5"/>
</g>
<!-- Node17 -->
<g id="node3" class="node"><title>Node17</title>
<g id="a_node3"><a xlink:href="config_8h.html#a240b5d7105d7dbf1d7054ad65cb9df40" target="_top" xlink:title="cfg_save">
<polygon fill="white" stroke="black" points="229,-171.5 229,-190.5 285,-190.5 285,-171.5 229,-171.5"/>
<text text-anchor="middle" x="257" y="-178.5" font-family="Helvetica,sans-Serif" font-size="10.00">cfg_save</text>
</a>
</g>
</g>
<!-- Node16&#45;&gt;Node17 -->
<g id="edge2" class="edge"><title>Node16&#45;&gt;Node17</title>
<path fill="none" stroke="midnightblue" d="M203.238,-174.362C211.806,-174.134 220.816,-174.254 228.917,-174.723"/>
<polygon fill="midnightblue" stroke="midnightblue" points="202.932,-170.872 193.098,-174.814 203.244,-177.865 202.932,-170.872"/>
</g>
<!-- Node39 -->
<g id="node25" class="node"><title>Node39</title>
<g id="a_node25"><a xlink:href="cgiwifi_8h.html#ace460e5ac8fd74afa8616bfc82561b26" target="_top" xlink:title="tplSetup">
<polygon fill="white" stroke="black" points="230.5,-133.5 230.5,-152.5 283.5,-152.5 283.5,-133.5 230.5,-133.5"/>
<text text-anchor="middle" x="257" y="-140.5" font-family="Helvetica,sans-Serif" font-size="10.00">tplSetup</text>
</a>
</g>
</g>
<!-- Node16&#45;&gt;Node39 -->
<g id="edge32" class="edge"><title>Node16&#45;&gt;Node39</title>
<path fill="none" stroke="midnightblue" d="M199.077,-167.441C210.519,-162.529 223.195,-157.086 233.675,-152.586"/>
<polygon fill="midnightblue" stroke="midnightblue" points="197.64,-164.249 189.832,-171.411 200.402,-170.682 197.64,-164.249"/>
</g>
<!-- Node17&#45;&gt;Node16 -->
<g id="edge3" class="edge"><title>Node17&#45;&gt;Node16</title>
<path fill="none" stroke="midnightblue" d="M218.675,-187.676C210.059,-187.862 201.082,-187.698 193.098,-187.186"/>
<polygon fill="midnightblue" stroke="midnightblue" points="219.061,-191.164 228.917,-187.277 218.788,-184.169 219.061,-191.164"/>
</g>
<!-- Node18 -->
<g id="node4" class="node"><title>Node18</title>
<g id="a_node4"><a xlink:href="config_8h.html#abc69a1c540768c7c86b5d56c6d4cabd7" target="_top" xlink:title="cfg_save_ssid_pwd">
<polygon fill="white" stroke="black" points="329.5,-266.5 329.5,-285.5 432.5,-285.5 432.5,-266.5 329.5,-266.5"/>
<text text-anchor="middle" x="381" y="-273.5" font-family="Helvetica,sans-Serif" font-size="10.00">cfg_save_ssid_pwd</text>
</a>
</g>
</g>
<!-- Node17&#45;&gt;Node18 -->
<g id="edge4" class="edge"><title>Node17&#45;&gt;Node18</title>
<path fill="none" stroke="midnightblue" d="M270.209,-198.91C281.737,-214.683 300.307,-237.362 321,-252 329.396,-257.939 339.478,-262.731 348.913,-266.424"/>
<polygon fill="midnightblue" stroke="midnightblue" points="272.911,-196.669 264.273,-190.534 267.2,-200.716 272.911,-196.669"/>
</g>
<!-- Node19 -->
<g id="node5" class="node"><title>Node19</title>
<g id="a_node5"><a xlink:href="cron_8c.html#a2782af03df9b913cfa565a0770e1afe1" target="_top" xlink:title="minute_timer_func">
<polygon fill="white" stroke="black" points="801,-342.5 801,-361.5 898,-361.5 898,-342.5 801,-342.5"/>
<text text-anchor="middle" x="849.5" y="-349.5" font-family="Helvetica,sans-Serif" font-size="10.00">minute_timer_func</text>
</a>
</g>
</g>
<!-- Node17&#45;&gt;Node19 -->
<g id="edge25" class="edge"><title>Node17&#45;&gt;Node19</title>
<path fill="none" stroke="midnightblue" d="M263.364,-200.416C271.483,-226.079 289.398,-270.855 321,-295 395.566,-351.973 685.585,-354.363 800.866,-352.966"/>
<polygon fill="midnightblue" stroke="midnightblue" points="266.681,-199.29 260.473,-190.704 259.972,-201.287 266.681,-199.29"/>
</g>
<!-- Node22 -->
<g id="node8" class="node"><title>Node22</title>
<g id="a_node8"><a xlink:href="config_8h.html#a1e0d59e84f6bbc2564bcdf595b6972da" target="_top" xlink:title="config_save_timer_func">
<polygon fill="white" stroke="black" points="321,-380.5 321,-399.5 441,-399.5 441,-380.5 321,-380.5"/>
<text text-anchor="middle" x="381" y="-387.5" font-family="Helvetica,sans-Serif" font-size="10.00">config_save_timer_func</text>
</a>
</g>
</g>
<!-- Node17&#45;&gt;Node22 -->
<g id="edge8" class="edge"><title>Node17&#45;&gt;Node22</title>
<path fill="none" stroke="midnightblue" d="M259.454,-200.949C263.192,-238.141 276.265,-318.586 321,-366 326.919,-372.274 334.709,-376.952 342.679,-380.426"/>
<polygon fill="midnightblue" stroke="midnightblue" points="262.931,-200.535 258.569,-190.88 255.958,-201.148 262.931,-200.535"/>
</g>
<!-- Node26 -->
<g id="node12" class="node"><title>Node26</title>
<g id="a_node12"><a xlink:href="mqtt__rpc_8h.html#a44921185fc90cf7507f2eaf4fa48861a" target="_top" xlink:title="mqtt_rpc_open_until">
<polygon fill="white" stroke="black" points="797.5,-234.5 797.5,-253.5 901.5,-253.5 901.5,-234.5 797.5,-234.5"/>
<text text-anchor="middle" x="849.5" y="-241.5" font-family="Helvetica,sans-Serif" font-size="10.00">mqtt_rpc_open_until</text>
</a>
</g>
</g>
<!-- Node17&#45;&gt;Node26 -->
<g id="edge30" class="edge"><title>Node17&#45;&gt;Node26</title>
<path fill="none" stroke="midnightblue" d="M294.763,-192.088C303.311,-194.34 312.421,-196.481 321,-198 493.891,-228.617 702.432,-239.154 797.186,-242.531"/>
<polygon fill="midnightblue" stroke="midnightblue" points="295.622,-188.695 285.052,-189.425 293.77,-195.445 295.622,-188.695"/>
</g>
<!-- Node27 -->
<g id="node13" class="node"><title>Node27</title>
<g id="a_node13"><a xlink:href="mqtt__rpc_8h.html#a37edc063b829348999e78221ed0f247e" target="_top" xlink:title="mqtt_rpc_open_until\l_delta">
<polygon fill="white" stroke="black" points="797.5,-185 797.5,-215 901.5,-215 901.5,-185 797.5,-185"/>
<text text-anchor="start" x="805.5" y="-203" font-family="Helvetica,sans-Serif" font-size="10.00">mqtt_rpc_open_until</text>
<text text-anchor="middle" x="849.5" y="-192" font-family="Helvetica,sans-Serif" font-size="10.00">_delta</text>
</a>
</g>
</g>
<!-- Node17&#45;&gt;Node27 -->
<g id="edge31" class="edge"><title>Node17&#45;&gt;Node27</title>
<path fill="none" stroke="midnightblue" d="M295.44,-182.205C397.542,-185.49 680.954,-194.609 797.472,-198.358"/>
<polygon fill="midnightblue" stroke="midnightblue" points="295.404,-178.702 285.297,-181.878 295.179,-185.698 295.404,-178.702"/>
</g>
<!-- Node34 -->
<g id="node20" class="node"><title>Node34</title>
<g id="a_node20"><a xlink:href="cgiwifi_8h.html#a7c655a56f56ecebad923c5c4daeb7f1a" target="_top" xlink:title="cgiSetup">
<polygon fill="white" stroke="black" points="353.5,-152.5 353.5,-171.5 408.5,-171.5 408.5,-152.5 353.5,-152.5"/>
<text text-anchor="middle" x="381" y="-159.5" font-family="Helvetica,sans-Serif" font-size="10.00">cgiSetup</text>
</a>
</g>
</g>
<!-- Node17&#45;&gt;Node34 -->
<g id="edge24" class="edge"><title>Node17&#45;&gt;Node34</title>
<path fill="none" stroke="midnightblue" d="M295.103,-175.222C313.922,-172.291 336.345,-168.799 353.42,-166.14"/>
<polygon fill="midnightblue" stroke="midnightblue" points="294.418,-171.786 285.076,-176.783 295.495,-178.703 294.418,-171.786"/>
</g>
<!-- Node35 -->
<g id="node21" class="node"><title>Node35</title>
<g id="a_node21"><a xlink:href="mqtt__rpc_8h.html#aa3b038b94189cb8a82fdc7e5115d90c8" target="_top" xlink:title="mqtt_rpc_set_ssid">
<polygon fill="white" stroke="black" points="332.5,-114.5 332.5,-133.5 429.5,-133.5 429.5,-114.5 332.5,-114.5"/>
<text text-anchor="middle" x="381" y="-121.5" font-family="Helvetica,sans-Serif" font-size="10.00">mqtt_rpc_set_ssid</text>
</a>
</g>
</g>
<!-- Node17&#45;&gt;Node35 -->
<g id="edge26" class="edge"><title>Node17&#45;&gt;Node35</title>
<path fill="none" stroke="midnightblue" d="M280.656,-165.586C292.35,-158.087 307.057,-149.347 321,-143 328.835,-139.434 337.535,-136.241 345.794,-133.536"/>
<polygon fill="midnightblue" stroke="midnightblue" points="278.439,-162.854 271.995,-171.263 282.277,-168.708 278.439,-162.854"/>
</g>
<!-- Node36 -->
<g id="node22" class="node"><title>Node36</title>
<g id="a_node22"><a xlink:href="mqtt__rpc_8h.html#a3384f5aa84b17fa3902e2aad318913d8" target="_top" xlink:title="mqtt_rpc_set_pwd">
<polygon fill="white" stroke="black" points="332.5,-76.5 332.5,-95.5 429.5,-95.5 429.5,-76.5 332.5,-76.5"/>
<text text-anchor="middle" x="381" y="-83.5" font-family="Helvetica,sans-Serif" font-size="10.00">mqtt_rpc_set_pwd</text>
</a>
</g>
</g>
<!-- Node17&#45;&gt;Node36 -->
<g id="edge27" class="edge"><title>Node17&#45;&gt;Node36</title>
<path fill="none" stroke="midnightblue" d="M282.119,-164.814C283.123,-163.897 284.089,-162.958 285,-162 305.652,-140.291 297.321,-123.359 321,-105 326.018,-101.11 331.856,-98.0034 337.871,-95.5264"/>
<polygon fill="midnightblue" stroke="midnightblue" points="279.604,-162.343 273.974,-171.319 283.972,-167.813 279.604,-162.343"/>
</g>
<!-- Node37 -->
<g id="node23" class="node"><title>Node37</title>
<g id="a_node23"><a xlink:href="mqtt__rpc_8h.html#a1b7add080e121a194a82ca7fc1ac5d6a" target="_top" xlink:title="mqtt_rpc_start_ap">
<polygon fill="white" stroke="black" points="333.5,-38.5 333.5,-57.5 428.5,-57.5 428.5,-38.5 333.5,-38.5"/>
<text text-anchor="middle" x="381" y="-45.5" font-family="Helvetica,sans-Serif" font-size="10.00">mqtt_rpc_start_ap</text>
</a>
</g>
</g>
<!-- Node17&#45;&gt;Node37 -->
<g id="edge28" class="edge"><title>Node17&#45;&gt;Node37</title>
<path fill="none" stroke="midnightblue" d="M282.8,-164.575C283.577,-163.742 284.315,-162.883 285,-162 312.68,-126.328 288.274,-98.1082 321,-67 325.056,-63.1447 329.898,-60.0717 335.04,-57.6222"/>
<polygon fill="midnightblue" stroke="midnightblue" points="280.275,-162.132 275.033,-171.34 284.872,-167.411 280.275,-162.132"/>
</g>
<!-- Node38 -->
<g id="node24" class="node"><title>Node38</title>
<g id="a_node24"><a xlink:href="mqtt__rpc_8h.html#a3430aad3243898c167f694b4ad6e5cfd" target="_top" xlink:title="mqtt_rpc_stop_ap">
<polygon fill="white" stroke="black" points="333.5,-0.5 333.5,-19.5 428.5,-19.5 428.5,-0.5 333.5,-0.5"/>
<text text-anchor="middle" x="381" y="-7.5" font-family="Helvetica,sans-Serif" font-size="10.00">mqtt_rpc_stop_ap</text>
</a>
</g>
</g>
<!-- Node17&#45;&gt;Node38 -->
<g id="edge29" class="edge"><title>Node17&#45;&gt;Node38</title>
<path fill="none" stroke="midnightblue" d="M282.97,-164.592C283.695,-163.756 284.375,-162.892 285,-162 320.13,-111.84 278.732,-73.3118 321,-29 324.714,-25.1067 329.228,-22.0093 334.087,-19.5457"/>
<polygon fill="midnightblue" stroke="midnightblue" points="280.612,-162.005 275.568,-171.321 285.321,-167.184 280.612,-162.005"/>
</g>
<!-- Node18&#45;&gt;Node19 -->
<g id="edge5" class="edge"><title>Node18&#45;&gt;Node19</title>
<path fill="none" stroke="midnightblue" d="M442.695,-279.175C485.907,-281.969 545.249,-286.887 597,-295 675.066,-307.239 765.036,-329.696 813.387,-342.464"/>
<polygon fill="midnightblue" stroke="midnightblue" points="442.825,-275.677 432.626,-278.544 442.387,-282.663 442.825,-275.677"/>
</g>
<!-- Node21 -->
<g id="node7" class="node"><title>Node21</title>
<g id="a_node7"><a xlink:href="mqtt__rpc_8h.html#a651f41878c47fd58b8ae08a49692d5d0" target="_top" xlink:title="mqtt_rpc_set_ssid_pwd">
<polygon fill="white" stroke="black" points="477,-304.5 477,-323.5 597,-323.5 597,-304.5 477,-304.5"/>
<text text-anchor="middle" x="537" y="-311.5" font-family="Helvetica,sans-Serif" font-size="10.00">mqtt_rpc_set_ssid_pwd</text>
</a>
</g>
</g>
<!-- Node18&#45;&gt;Node21 -->
<g id="edge7" class="edge"><title>Node18&#45;&gt;Node21</title>
<path fill="none" stroke="midnightblue" d="M430.794,-288.04C452.308,-293.349 477.232,-299.499 497.419,-304.48"/>
<polygon fill="midnightblue" stroke="midnightblue" points="431.408,-284.587 420.861,-285.589 429.731,-291.383 431.408,-284.587"/>
</g>
<!-- Node20 -->
<g id="node6" class="node"><title>Node20</title>
<g id="a_node6"><a xlink:href="cron_8h.html#ae130c5973bad35b56776750c7a34db12" target="_top" xlink:title="cron_init">
<polygon fill="white" stroke="black" points="938,-342.5 938,-361.5 991,-361.5 991,-342.5 938,-342.5"/>
<text text-anchor="middle" x="964.5" y="-349.5" font-family="Helvetica,sans-Serif" font-size="10.00">cron_init</text>
</a>
</g>
</g>
<!-- Node19&#45;&gt;Node20 -->
<g id="edge6" class="edge"><title>Node19&#45;&gt;Node20</title>
<path fill="none" stroke="midnightblue" d="M908.4,-352C918.736,-352 929.009,-352 937.835,-352"/>
<polygon fill="midnightblue" stroke="midnightblue" points="908.095,-348.5 898.095,-352 908.095,-355.5 908.095,-348.5"/>
</g>
<!-- Node22&#45;&gt;Node22 -->
<g id="edge23" class="edge"><title>Node22&#45;&gt;Node22</title>
<path fill="none" stroke="midnightblue" d="M357.935,-409.029C359.193,-414.128 366.881,-418 381,-418 403.039,-418 409.41,-408.565 400.112,-399.757"/>
<polygon fill="midnightblue" stroke="midnightblue" points="361.185,-410.329 361.888,-399.757 354.746,-407.583 361.185,-410.329"/>
</g>
<!-- Node23 -->
<g id="node9" class="node"><title>Node23</title>
<g id="a_node9"><a xlink:href="config_8h.html#ab4af9f95b39f096bb0fa8d73eb5a342e" target="_top" xlink:title="cfg_save_defered">
<polygon fill="white" stroke="black" points="490,-380.5 490,-399.5 584,-399.5 584,-380.5 490,-380.5"/>
<text text-anchor="middle" x="537" y="-387.5" font-family="Helvetica,sans-Serif" font-size="10.00">cfg_save_defered</text>
</a>
</g>
</g>
<!-- Node22&#45;&gt;Node23 -->
<g id="edge9" class="edge"><title>Node22&#45;&gt;Node23</title>
<path fill="none" stroke="midnightblue" d="M451.418,-390C464.396,-390 477.665,-390 489.73,-390"/>
<polygon fill="midnightblue" stroke="midnightblue" points="451.1,-386.5 441.1,-390 451.1,-393.5 451.1,-386.5"/>
</g>
<!-- Node24 -->
<g id="node10" class="node"><title>Node24</title>
<g id="a_node10"><a xlink:href="ac__out_8h.html#a1573f96ac038a6a1b29a6f21403a2341" target="_top" xlink:title="ac_thermo_open">
<polygon fill="white" stroke="black" points="652.5,-266.5 652.5,-285.5 741.5,-285.5 741.5,-266.5 652.5,-266.5"/>
<text text-anchor="middle" x="697" y="-273.5" font-family="Helvetica,sans-Serif" font-size="10.00">ac_thermo_open</text>
</a>
</g>
</g>
<!-- Node23&#45;&gt;Node24 -->
<g id="edge10" class="edge"><title>Node23&#45;&gt;Node24</title>
<path fill="none" stroke="midnightblue" d="M559.726,-374.325C592.88,-350.403 655.131,-305.488 682.503,-285.738"/>
<polygon fill="midnightblue" stroke="midnightblue" points="557.261,-371.787 551.199,-380.477 561.357,-377.464 557.261,-371.787"/>
</g>
<!-- Node28 -->
<g id="node14" class="node"><title>Node28</title>
<g id="a_node14"><a xlink:href="ac__out_8h.html#a3bc674b019d5e2e4d15e7abe7c69029f" target="_top" xlink:title="ac_thermo_close">
<polygon fill="white" stroke="black" points="651.5,-380.5 651.5,-399.5 742.5,-399.5 742.5,-380.5 651.5,-380.5"/>
<text text-anchor="middle" x="697" y="-387.5" font-family="Helvetica,sans-Serif" font-size="10.00">ac_thermo_close</text>
</a>
</g>
</g>
<!-- Node23&#45;&gt;Node28 -->
<g id="edge15" class="edge"><title>Node23&#45;&gt;Node28</title>
<path fill="none" stroke="midnightblue" d="M594.325,-390C613.085,-390 633.709,-390 651.45,-390"/>
<polygon fill="midnightblue" stroke="midnightblue" points="594.125,-386.5 584.125,-390 594.125,-393.5 594.125,-386.5"/>
</g>
<!-- Node30 -->
<g id="node16" class="node"><title>Node30</title>
<g id="a_node16"><a xlink:href="cron_8h.html#abede8d12ed6e5d5f3412eda37b325d03" target="_top" xlink:title="add_cron_job_from_query">
<polygon fill="white" stroke="black" points="633,-456.5 633,-475.5 761,-475.5 761,-456.5 633,-456.5"/>
<text text-anchor="middle" x="697" y="-463.5" font-family="Helvetica,sans-Serif" font-size="10.00">add_cron_job_from_query</text>
</a>
</g>
</g>
<!-- Node23&#45;&gt;Node30 -->
<g id="edge18" class="edge"><title>Node23&#45;&gt;Node30</title>
<path fill="none" stroke="midnightblue" d="M559.981,-405.337C578.712,-417.871 606.7,-435.36 633,-447 641.148,-450.606 650.18,-453.779 658.8,-456.447"/>
<polygon fill="midnightblue" stroke="midnightblue" points="561.816,-402.352 551.577,-399.629 557.883,-408.143 561.816,-402.352"/>
</g>
<!-- Node32 -->
<g id="node18" class="node"><title>Node32</title>
<g id="a_node18"><a xlink:href="cron_8h.html#ad014b7bf4eab144ea9fc5669d896714b" target="_top" xlink:title="clear_cron_jobs">
<polygon fill="white" stroke="black" points="654.5,-418.5 654.5,-437.5 739.5,-437.5 739.5,-418.5 654.5,-418.5"/>
<text text-anchor="middle" x="697" y="-425.5" font-family="Helvetica,sans-Serif" font-size="10.00">clear_cron_jobs</text>
</a>
</g>
</g>
<!-- Node23&#45;&gt;Node32 -->
<g id="edge20" class="edge"><title>Node23&#45;&gt;Node32</title>
<path fill="none" stroke="midnightblue" d="M587.762,-401.968C609.903,-407.293 635.612,-413.476 656.417,-418.48"/>
<polygon fill="midnightblue" stroke="midnightblue" points="588.411,-398.524 577.87,-399.589 586.774,-405.33 588.411,-398.524"/>
</g>
<!-- Node24&#45;&gt;Node19 -->
<g id="edge11" class="edge"><title>Node24&#45;&gt;Node19</title>
<path fill="none" stroke="midnightblue" d="M735.423,-289.04C743.949,-292.344 752.884,-296.078 761,-300 787.731,-312.915 817.06,-331.274 834.066,-342.369"/>
<polygon fill="midnightblue" stroke="midnightblue" points="736.627,-285.753 726.035,-285.504 734.16,-292.304 736.627,-285.753"/>
</g>
<!-- Node25 -->
<g id="node11" class="node"><title>Node25</title>
<g id="a_node11"><a xlink:href="mqtt__rpc_8h.html#ad2e0752f6412fe150ba20d806fe90e15" target="_top" xlink:title="mqtt_rpc_open">
<polygon fill="white" stroke="black" points="809,-272.5 809,-291.5 890,-291.5 890,-272.5 809,-272.5"/>
<text text-anchor="middle" x="849.5" y="-279.5" font-family="Helvetica,sans-Serif" font-size="10.00">mqtt_rpc_open</text>
</a>
</g>
</g>
<!-- Node24&#45;&gt;Node25 -->
<g id="edge12" class="edge"><title>Node24&#45;&gt;Node25</title>
<path fill="none" stroke="midnightblue" d="M751.77,-278.144C770.625,-278.895 791.444,-279.725 808.923,-280.422"/>
<polygon fill="midnightblue" stroke="midnightblue" points="751.662,-274.637 741.531,-277.735 751.383,-281.631 751.662,-274.637"/>
</g>
<!-- Node24&#45;&gt;Node26 -->
<g id="edge13" class="edge"><title>Node24&#45;&gt;Node26</title>
<path fill="none" stroke="midnightblue" d="M751.396,-264.647C768.528,-261.004 787.315,-257.01 803.76,-253.513"/>
<polygon fill="midnightblue" stroke="midnightblue" points="750.584,-261.241 741.531,-266.744 752.04,-268.088 750.584,-261.241"/>
</g>
<!-- Node24&#45;&gt;Node27 -->
<g id="edge14" class="edge"><title>Node24&#45;&gt;Node27</title>
<path fill="none" stroke="midnightblue" d="M725.251,-261.741C745.087,-251.416 772.63,-237.19 797,-225 803.489,-221.754 810.465,-218.327 817.122,-215.085"/>
<polygon fill="midnightblue" stroke="midnightblue" points="723.429,-258.743 716.18,-266.47 726.666,-264.95 723.429,-258.743"/>
</g>
<!-- Node28&#45;&gt;Node19 -->
<g id="edge16" class="edge"><title>Node28&#45;&gt;Node19</title>
<path fill="none" stroke="midnightblue" d="M745.685,-377.96C766.71,-372.651 791.067,-366.501 810.796,-361.52"/>
<polygon fill="midnightblue" stroke="midnightblue" points="744.816,-374.569 735.978,-380.411 746.53,-381.356 744.816,-374.569"/>
</g>
<!-- Node29 -->
<g id="node15" class="node"><title>Node29</title>
<g id="a_node15"><a xlink:href="mqtt__rpc_8h.html#a05494e7f22df36d57595a00a9386c871" target="_top" xlink:title="mqtt_rpc_close">
<polygon fill="white" stroke="black" points="808,-380.5 808,-399.5 891,-399.5 891,-380.5 808,-380.5"/>
<text text-anchor="middle" x="849.5" y="-387.5" font-family="Helvetica,sans-Serif" font-size="10.00">mqtt_rpc_close</text>
</a>
</g>
</g>
<!-- Node28&#45;&gt;Node29 -->
<g id="edge17" class="edge"><title>Node28&#45;&gt;Node29</title>
<path fill="none" stroke="midnightblue" d="M752.906,-390C771.046,-390 790.89,-390 807.774,-390"/>
<polygon fill="midnightblue" stroke="midnightblue" points="752.748,-386.5 742.747,-390 752.747,-393.5 752.748,-386.5"/>
</g>
<!-- Node31 -->
<g id="node17" class="node"><title>Node31</title>
<g id="a_node17"><a xlink:href="mqtt__rpc_8h.html#a5ede5df0880a2c3823a5c3757423678b" target="_top" xlink:title="mqtt_rpc_set_cron">
<polygon fill="white" stroke="black" points="800.5,-456.5 800.5,-475.5 898.5,-475.5 898.5,-456.5 800.5,-456.5"/>
<text text-anchor="middle" x="849.5" y="-463.5" font-family="Helvetica,sans-Serif" font-size="10.00">mqtt_rpc_set_cron</text>
</a>
</g>
</g>
<!-- Node30&#45;&gt;Node31 -->
<g id="edge19" class="edge"><title>Node30&#45;&gt;Node31</title>
<path fill="none" stroke="midnightblue" d="M771.524,-466C781.289,-466 791.093,-466 800.278,-466"/>
<polygon fill="midnightblue" stroke="midnightblue" points="771.389,-462.5 761.389,-466 771.389,-469.5 771.389,-462.5"/>
</g>
<!-- Node32&#45;&gt;Node19 -->
<g id="edge21" class="edge"><title>Node32&#45;&gt;Node19</title>
<path fill="none" stroke="midnightblue" d="M749.311,-415.045C753.385,-413.267 757.336,-411.26 761,-409 780.801,-396.787 777.578,-383.806 797,-371 802.649,-367.275 809.126,-364.155 815.537,-361.591"/>
<polygon fill="midnightblue" stroke="midnightblue" points="747.715,-411.91 739.66,-418.793 750.249,-418.435 747.715,-411.91"/>
</g>
<!-- Node33 -->
<g id="node19" class="node"><title>Node33</title>
<g id="a_node19"><a xlink:href="mqtt__rpc_8h.html#a023697ad978d1154228e256583a147c0" target="_top" xlink:title="mqtt_rpc_clear_cron">
<polygon fill="white" stroke="black" points="797,-418.5 797,-437.5 902,-437.5 902,-418.5 797,-418.5"/>
<text text-anchor="middle" x="849.5" y="-425.5" font-family="Helvetica,sans-Serif" font-size="10.00">mqtt_rpc_clear_cron</text>
</a>
</g>
</g>
<!-- Node32&#45;&gt;Node33 -->
<g id="edge22" class="edge"><title>Node32&#45;&gt;Node33</title>
<path fill="none" stroke="midnightblue" d="M749.805,-428C765.036,-428 781.69,-428 796.907,-428"/>
<polygon fill="midnightblue" stroke="midnightblue" points="749.523,-424.5 739.523,-428 749.523,-431.5 749.523,-424.5"/>
</g>
</g>
</svg>
