<?xml version="1.0" encoding="UTF-8" standalone="no"?>
<!DOCTYPE svg PUBLIC "-//W3C//DTD SVG 1.1//EN"
 "http://www.w3.org/Graphics/SVG/1.1/DTD/svg11.dtd">
<!-- Generated by graphviz version 2.38.0 (20140413.2041)
 -->
<!-- Title: system_restart_defered Pages: 1 -->
<svg width="342pt" height="66pt"
 viewBox="0.00 0.00 342.00 66.00" xmlns="http://www.w3.org/2000/svg" xmlns:xlink="http://www.w3.org/1999/xlink">
<g id="graph0" class="graph" transform="scale(1 1) rotate(0) translate(4 62)">
<title>system_restart_defered</title>
<polygon fill="white" stroke="none" points="-4,4 -4,-62 338,-62 338,4 -4,4"/>
<!-- Node273 -->
<g id="node1" class="node"><title>Node273</title>
<polygon fill="#bfbfbf" stroke="black" points="0,-19.5 0,-38.5 119,-38.5 119,-19.5 0,-19.5"/>
<text text-anchor="middle" x="59.5" y="-26.5" font-family="Helvetica,sans-Serif" font-size="10.00">system_restart_defered</text>
</g>
<!-- Node274 -->
<g id="node2" class="node"><title>Node274</title>
<g id="a_node2"><a xlink:href="mqtt__rpc_8h.html#ae3c71a438ecea4bb271bd1586af59452" target="_top" xlink:title="mqtt_rpc_restart">
<polygon fill="white" stroke="black" points="155,-38.5 155,-57.5 243,-57.5 243,-38.5 155,-38.5"/>
<text text-anchor="middle" x="199" y="-45.5" font-family="Helvetica,sans-Serif" font-size="10.00">mqtt_rpc_restart</text>
</a>
</g>
</g>
<!-- Node273&#45;&gt;Node274 -->
<g id="edge1" class="edge"><title>Node273&#45;&gt;Node274</title>
<path fill="none" stroke="midnightblue" d="M129.377,-38.5175C138.064,-39.7179 146.748,-40.9179 154.874,-42.0408"/>
<polygon fill="midnightblue" stroke="midnightblue" points="129.596,-35.0147 119.211,-37.1128 128.638,-41.9488 129.596,-35.0147"/>
</g>
<!-- Node275 -->
<g id="node3" class="node"><title>Node275</title>
<g id="a_node3"><a xlink:href="cgiwifi_8c.html#a9d53126c0a5bdeb1318f081f1cca3a84" target="_top" xlink:title="resetTimerCb">
<polygon fill="white" stroke="black" points="161,-0.5 161,-19.5 237,-19.5 237,-0.5 161,-0.5"/>
<text text-anchor="middle" x="199" y="-7.5" font-family="Helvetica,sans-Serif" font-size="10.00">resetTimerCb</text>
</a>
</g>
</g>
<!-- Node273&#45;&gt;Node275 -->
<g id="edge2" class="edge"><title>Node273&#45;&gt;Node275</title>
<path fill="none" stroke="midnightblue" d="M129.232,-19.5025C140.178,-17.99 151.124,-16.4774 160.962,-15.118"/>
<polygon fill="midnightblue" stroke="midnightblue" points="128.638,-16.0512 119.211,-20.8872 129.596,-22.9853 128.638,-16.0512"/>
</g>
<!-- Node276 -->
<g id="node4" class="node"><title>Node276</title>
<g id="a_node4"><a xlink:href="cgiwifi_8h.html#a7c655a56f56ecebad923c5c4daeb7f1a" target="_top" xlink:title="cgiSetup">
<polygon fill="white" stroke="black" points="279,-0.5 279,-19.5 334,-19.5 334,-0.5 279,-0.5"/>
<text text-anchor="middle" x="306.5" y="-7.5" font-family="Helvetica,sans-Serif" font-size="10.00">cgiSetup</text>
</a>
</g>
</g>
<!-- Node275&#45;&gt;Node276 -->
<g id="edge3" class="edge"><title>Node275&#45;&gt;Node276</title>
<path fill="none" stroke="midnightblue" d="M247.408,-10C258.219,-10 269.333,-10 278.908,-10"/>
<polygon fill="midnightblue" stroke="midnightblue" points="247.195,-6.5001 237.195,-10 247.195,-13.5001 247.195,-6.5001"/>
</g>
</g>
</svg>
