<?xml version="1.0" encoding="UTF-8" standalone="no"?>
<!DOCTYPE svg PUBLIC "-//W3C//DTD SVG 1.1//EN"
 "http://www.w3.org/Graphics/SVG/1.1/DTD/svg11.dtd">
<!-- Generated by graphviz version 2.38.0 (20140413.2041)
 -->
<!-- Title: mw_to_kw_str Pages: 1 -->
<svg width="378pt" height="78pt"
 viewBox="0.00 0.00 378.00 77.50" xmlns="http://www.w3.org/2000/svg" xmlns:xlink="http://www.w3.org/1999/xlink">
<g id="graph0" class="graph" transform="scale(1 1) rotate(0) translate(4 73.5)">
<title>mw_to_kw_str</title>
<polygon fill="white" stroke="none" points="-4,4 -4,-73.5 374,-73.5 374,4 -4,4"/>
<!-- Node235 -->
<g id="node1" class="node"><title>Node235</title>
<polygon fill="#bfbfbf" stroke="black" points="0,-22.5 0,-41.5 80,-41.5 80,-22.5 0,-22.5"/>
<text text-anchor="middle" x="40" y="-29.5" font-family="Helvetica,sans-Serif" font-size="10.00">mw_to_kw_str</text>
</g>
<!-- Node236 -->
<g id="node2" class="node"><title>Node236</title>
<g id="a_node2"><a xlink:href="en61107__request_8h.html#a1d55ddd328b48520e19f10b6c0b6036c" target="_top" xlink:title="en61107_get_received\l_energy_kwh">
<polygon fill="white" stroke="black" points="116,-39 116,-69 230,-69 230,-39 116,-39"/>
<text text-anchor="start" x="124" y="-57" font-family="Helvetica,sans-Serif" font-size="10.00">en61107_get_received</text>
<text text-anchor="middle" x="173" y="-46" font-family="Helvetica,sans-Serif" font-size="10.00">_energy_kwh</text>
</a>
</g>
</g>
<!-- Node235&#45;&gt;Node236 -->
<g id="edge1" class="edge"><title>Node235&#45;&gt;Node236</title>
<path fill="none" stroke="midnightblue" d="M90.2417,-40.2696C98.5732,-41.6688 107.279,-43.1309 115.773,-44.5573"/>
<polygon fill="midnightblue" stroke="midnightblue" points="90.7459,-36.8053 80.3043,-38.6007 89.5865,-43.7087 90.7459,-36.8053"/>
</g>
<!-- Node238 -->
<g id="node4" class="node"><title>Node238</title>
<g id="a_node4"><a xlink:href="kmp__request_8c.html#a3f6b790a06b933b78f40ade5e9a16131" target="_top" xlink:title="kmp_received_task">
<polygon fill="white" stroke="black" points="122.5,-0.5 122.5,-19.5 223.5,-19.5 223.5,-0.5 122.5,-0.5"/>
<text text-anchor="middle" x="173" y="-7.5" font-family="Helvetica,sans-Serif" font-size="10.00">kmp_received_task</text>
</a>
</g>
</g>
<!-- Node235&#45;&gt;Node238 -->
<g id="edge3" class="edge"><title>Node235&#45;&gt;Node238</title>
<path fill="none" stroke="midnightblue" d="M90.2045,-23.7366C100.764,-21.9633 111.927,-20.0886 122.498,-18.3133"/>
<polygon fill="midnightblue" stroke="midnightblue" points="89.5865,-20.2913 80.3043,-25.3993 90.7459,-27.1947 89.5865,-20.2913"/>
</g>
<!-- Node237 -->
<g id="node3" class="node"><title>Node237</title>
<g id="a_node3"><a xlink:href="mqtt__rpc_8h.html#a37edc063b829348999e78221ed0f247e" target="_top" xlink:title="mqtt_rpc_open_until\l_delta">
<polygon fill="white" stroke="black" points="266,-39 266,-69 370,-69 370,-39 266,-39"/>
<text text-anchor="start" x="274" y="-57" font-family="Helvetica,sans-Serif" font-size="10.00">mqtt_rpc_open_until</text>
<text text-anchor="middle" x="318" y="-46" font-family="Helvetica,sans-Serif" font-size="10.00">_delta</text>
</a>
</g>
</g>
<!-- Node236&#45;&gt;Node237 -->
<g id="edge2" class="edge"><title>Node236&#45;&gt;Node237</title>
<path fill="none" stroke="midnightblue" d="M240.118,-54C248.712,-54 257.411,-54 265.713,-54"/>
<polygon fill="midnightblue" stroke="midnightblue" points="240.107,-50.5001 230.107,-54 240.107,-57.5001 240.107,-50.5001"/>
</g>
<!-- Node239 -->
<g id="node5" class="node"><title>Node239</title>
<g id="a_node5"><a xlink:href="kmp__request_8h.html#a048753ff9d6b448e2dcd8c85db0d6873" target="_top" xlink:title="kmp_request_init">
<polygon fill="white" stroke="black" points="272.5,-0.5 272.5,-19.5 363.5,-19.5 363.5,-0.5 272.5,-0.5"/>
<text text-anchor="middle" x="318" y="-7.5" font-family="Helvetica,sans-Serif" font-size="10.00">kmp_request_init</text>
</a>
</g>
</g>
<!-- Node238&#45;&gt;Node239 -->
<g id="edge4" class="edge"><title>Node238&#45;&gt;Node239</title>
<path fill="none" stroke="midnightblue" d="M233.796,-10C246.674,-10 260.073,-10 272.26,-10"/>
<polygon fill="midnightblue" stroke="midnightblue" points="233.613,-6.5001 223.613,-10 233.613,-13.5001 233.613,-6.5001"/>
</g>
</g>
</svg>
