<?xml version="1.0" encoding="UTF-8" standalone="no"?>
<!DOCTYPE svg PUBLIC "-//W3C//DTD SVG 1.1//EN"
 "http://www.w3.org/Graphics/SVG/1.1/DTD/svg11.dtd">
<!-- Generated by graphviz version 2.38.0 (20140413.2041)
 -->
<!-- Title: decimal_number_length Pages: 1 -->
<svg width="734pt" height="116pt"
 viewBox="0.00 0.00 734.00 116.00" xmlns="http://www.w3.org/2000/svg" xmlns:xlink="http://www.w3.org/1999/xlink">
<g id="graph0" class="graph" transform="scale(1 1) rotate(0) translate(4 112)">
<title>decimal_number_length</title>
<polygon fill="white" stroke="none" points="-4,4 -4,-112 730,-112 730,4 -4,4"/>
<!-- Node58 -->
<g id="node1" class="node"><title>Node58</title>
<polygon fill="#bfbfbf" stroke="black" points="0,-23.5 0,-42.5 119,-42.5 119,-23.5 0,-23.5"/>
<text text-anchor="middle" x="59.5" y="-30.5" font-family="Helvetica,sans-Serif" font-size="10.00">decimal_number_length</text>
</g>
<!-- Node59 -->
<g id="node2" class="node"><title>Node59</title>
<g id="a_node2"><a xlink:href="utils_8h.html#aa76bb225374d144009e05cadce84260b" target="_top" xlink:title="cleanup_decimal_str">
<polygon fill="white" stroke="black" points="155.5,-44.5 155.5,-63.5 261.5,-63.5 261.5,-44.5 155.5,-44.5"/>
<text text-anchor="middle" x="208.5" y="-51.5" font-family="Helvetica,sans-Serif" font-size="10.00">cleanup_decimal_str</text>
</a>
</g>
</g>
<!-- Node58&#45;&gt;Node59 -->
<g id="edge1" class="edge"><title>Node58&#45;&gt;Node59</title>
<path fill="none" stroke="midnightblue" d="M128.97,-42.7814C137.843,-44.049 146.815,-45.3307 155.365,-46.5521"/>
<polygon fill="midnightblue" stroke="midnightblue" points="129.415,-39.3096 119.021,-41.3601 128.425,-46.2392 129.415,-39.3096"/>
</g>
<!-- Node64 -->
<g id="node7" class="node"><title>Node64</title>
<g id="a_node7"><a xlink:href="kmp_8h.html#aa1bdc213acbcb756d20dcf63d5cd387d" target="_top" xlink:title="kmp_value_to_string">
<polygon fill="white" stroke="black" points="155,-3.5 155,-22.5 262,-22.5 262,-3.5 155,-3.5"/>
<text text-anchor="middle" x="208.5" y="-10.5" font-family="Helvetica,sans-Serif" font-size="10.00">kmp_value_to_string</text>
</a>
</g>
</g>
<!-- Node58&#45;&gt;Node64 -->
<g id="edge7" class="edge"><title>Node58&#45;&gt;Node64</title>
<path fill="none" stroke="midnightblue" d="M129.119,-23.6641C137.781,-22.4856 146.534,-21.2947 154.893,-20.1574"/>
<polygon fill="midnightblue" stroke="midnightblue" points="128.458,-20.2217 119.021,-25.038 129.401,-27.1578 128.458,-20.2217"/>
</g>
<!-- Node60 -->
<g id="node3" class="node"><title>Node60</title>
<g id="a_node3"><a xlink:href="en61107_8h.html#a1cf66dda97eb739b7d65099e019e79b0" target="_top" xlink:title="parse_en61107_frame">
<polygon fill="white" stroke="black" points="305.5,-88.5 305.5,-107.5 418.5,-107.5 418.5,-88.5 305.5,-88.5"/>
<text text-anchor="middle" x="362" y="-95.5" font-family="Helvetica,sans-Serif" font-size="10.00">parse_en61107_frame</text>
</a>
</g>
</g>
<!-- Node59&#45;&gt;Node60 -->
<g id="edge2" class="edge"><title>Node59&#45;&gt;Node60</title>
<path fill="none" stroke="midnightblue" d="M251.993,-66.3412C276.123,-73.3493 305.871,-81.9888 328.191,-88.4713"/>
<polygon fill="midnightblue" stroke="midnightblue" points="252.953,-62.9753 242.373,-63.5473 251,-69.6976 252.953,-62.9753"/>
</g>
<!-- Node63 -->
<g id="node6" class="node"><title>Node63</title>
<g id="a_node6"><a xlink:href="en61107_8h.html#a5a71fa85ca3ccb0abfcb8f122affbbdd" target="_top" xlink:title="parse_mc66cde_standard\l_data_1_frame">
<polygon fill="white" stroke="black" points="298,-39 298,-69 426,-69 426,-39 298,-39"/>
<text text-anchor="start" x="306" y="-57" font-family="Helvetica,sans-Serif" font-size="10.00">parse_mc66cde_standard</text>
<text text-anchor="middle" x="362" y="-46" font-family="Helvetica,sans-Serif" font-size="10.00">_data_1_frame</text>
</a>
</g>
</g>
<!-- Node59&#45;&gt;Node63 -->
<g id="edge5" class="edge"><title>Node59&#45;&gt;Node63</title>
<path fill="none" stroke="midnightblue" d="M271.909,-54C280.45,-54 289.224,-54 297.779,-54"/>
<polygon fill="midnightblue" stroke="midnightblue" points="271.638,-50.5001 261.638,-54 271.638,-57.5001 271.638,-50.5001"/>
</g>
<!-- Node61 -->
<g id="node4" class="node"><title>Node61</title>
<g id="a_node4"><a xlink:href="en61107__request_8c.html#aa3b162cf5364986ea19e831ac2b18f76" target="_top" xlink:title="en61107_received_task">
<polygon fill="white" stroke="black" points="462,-66.5 462,-85.5 581,-85.5 581,-66.5 462,-66.5"/>
<text text-anchor="middle" x="521.5" y="-73.5" font-family="Helvetica,sans-Serif" font-size="10.00">en61107_received_task</text>
</a>
</g>
</g>
<!-- Node60&#45;&gt;Node61 -->
<g id="edge3" class="edge"><title>Node60&#45;&gt;Node61</title>
<path fill="none" stroke="midnightblue" d="M428.519,-88.8481C439.534,-87.3095 450.905,-85.7212 461.736,-84.2084"/>
<polygon fill="midnightblue" stroke="midnightblue" points="427.948,-85.3938 418.529,-90.2436 428.917,-92.3265 427.948,-85.3938"/>
</g>
<!-- Node62 -->
<g id="node5" class="node"><title>Node62</title>
<g id="a_node5"><a xlink:href="en61107__request_8h.html#acd43242675a3f25e7c3b530eac9d8b3a" target="_top" xlink:title="en61107_request_init">
<polygon fill="white" stroke="black" points="617,-66.5 617,-85.5 726,-85.5 726,-66.5 617,-66.5"/>
<text text-anchor="middle" x="671.5" y="-73.5" font-family="Helvetica,sans-Serif" font-size="10.00">en61107_request_init</text>
</a>
</g>
</g>
<!-- Node61&#45;&gt;Node62 -->
<g id="edge4" class="edge"><title>Node61&#45;&gt;Node62</title>
<path fill="none" stroke="midnightblue" d="M591.585,-76C599.979,-76 608.456,-76 616.584,-76"/>
<polygon fill="midnightblue" stroke="midnightblue" points="591.419,-72.5001 581.419,-76 591.419,-79.5001 591.419,-72.5001"/>
</g>
<!-- Node63&#45;&gt;Node61 -->
<g id="edge6" class="edge"><title>Node63&#45;&gt;Node61</title>
<path fill="none" stroke="midnightblue" d="M436.209,-64.2261C444.831,-65.4304 453.542,-66.6472 461.926,-67.8183"/>
<polygon fill="midnightblue" stroke="midnightblue" points="436.542,-60.7386 426.154,-62.8215 435.573,-67.6713 436.542,-60.7386"/>
</g>
<!-- Node65 -->
<g id="node8" class="node"><title>Node65</title>
<g id="a_node8"><a xlink:href="kmp__request_8c.html#a3f6b790a06b933b78f40ade5e9a16131" target="_top" xlink:title="kmp_received_task">
<polygon fill="white" stroke="black" points="311.5,-0.5 311.5,-19.5 412.5,-19.5 412.5,-0.5 311.5,-0.5"/>
<text text-anchor="middle" x="362" y="-7.5" font-family="Helvetica,sans-Serif" font-size="10.00">kmp_received_task</text>
</a>
</g>
</g>
<!-- Node64&#45;&gt;Node65 -->
<g id="edge8" class="edge"><title>Node64&#45;&gt;Node65</title>
<path fill="none" stroke="midnightblue" d="M272.348,-11.7555C285.352,-11.498 298.879,-11.2301 311.333,-10.9835"/>
<polygon fill="midnightblue" stroke="midnightblue" points="271.991,-8.26177 262.062,-11.9592 272.13,-15.2604 271.991,-8.26177"/>
</g>
<!-- Node66 -->
<g id="node9" class="node"><title>Node66</title>
<g id="a_node9"><a xlink:href="kmp__request_8h.html#a048753ff9d6b448e2dcd8c85db0d6873" target="_top" xlink:title="kmp_request_init">
<polygon fill="white" stroke="black" points="476,-0.5 476,-19.5 567,-19.5 567,-0.5 476,-0.5"/>
<text text-anchor="middle" x="521.5" y="-7.5" font-family="Helvetica,sans-Serif" font-size="10.00">kmp_request_init</text>
</a>
</g>
</g>
<!-- Node65&#45;&gt;Node66 -->
<g id="edge9" class="edge"><title>Node65&#45;&gt;Node66</title>
<path fill="none" stroke="midnightblue" d="M422.979,-10C440.517,-10 459.374,-10 475.788,-10"/>
<polygon fill="midnightblue" stroke="midnightblue" points="422.834,-6.5001 412.834,-10 422.834,-13.5001 422.834,-6.5001"/>
</g>
</g>
</svg>
