<?xml version="1.0" encoding="UTF-8" standalone="no"?>
<!DOCTYPE svg PUBLIC "-//W3C//DTD SVG 1.1//EN"
 "http://www.w3.org/Graphics/SVG/1.1/DTD/svg11.dtd">
<!-- Generated by graphviz version 2.38.0 (20140413.2041)
 -->
<!-- Title: user/utils.c Pages: 1 -->
<svg width="1954pt" height="812pt"
 viewBox="0.00 0.00 1953.50 812.00" xmlns="http://www.w3.org/2000/svg" xmlns:xlink="http://www.w3.org/1999/xlink">
<g id="graph0" class="graph" transform="scale(1 1) rotate(0) translate(4 808)">
<title>user/utils.c</title>
<polygon fill="white" stroke="none" points="-4,4 -4,-808 1949.5,-808 1949.5,4 -4,4"/>
<!-- Node0 -->
<g id="node1" class="node"><title>Node0</title>
<polygon fill="#bfbfbf" stroke="black" points="1414.5,-784.5 1414.5,-803.5 1479.5,-803.5 1479.5,-784.5 1414.5,-784.5"/>
<text text-anchor="middle" x="1447" y="-791.5" font-family="Helvetica,sans-Serif" font-size="10.00">user/utils.c</text>
</g>
<!-- Node1 -->
<g id="node2" class="node"><title>Node1</title>
<g id="a_node2"><a xlink:href="esp8266_8h.html" target="_top" xlink:title="esp8266.h">
<polygon fill="white" stroke="black" points="816,-672.5 816,-691.5 878,-691.5 878,-672.5 816,-672.5"/>
<text text-anchor="middle" x="847" y="-679.5" font-family="Helvetica,sans-Serif" font-size="10.00">esp8266.h</text>
</a>
</g>
</g>
<!-- Node0&#45;&gt;Node1 -->
<g id="edge1" class="edge"><title>Node0&#45;&gt;Node1</title>
<path fill="none" stroke="midnightblue" d="M1414.32,-787.008C1312.46,-768.335 1000.91,-711.216 888.221,-690.557"/>
<polygon fill="midnightblue" stroke="midnightblue" points="888.728,-687.092 878.261,-688.731 887.466,-693.977 888.728,-687.092"/>
</g>
<!-- Node5 -->
<g id="node6" class="node"><title>Node5</title>
<polygon fill="white" stroke="#bfbfbf" points="495.5,-168.5 495.5,-187.5 544.5,-187.5 544.5,-168.5 495.5,-168.5"/>
<text text-anchor="middle" x="520" y="-175.5" font-family="Helvetica,sans-Serif" font-size="10.00">string.h</text>
</g>
<!-- Node0&#45;&gt;Node5 -->
<g id="edge43" class="edge"><title>Node0&#45;&gt;Node5</title>
<path fill="none" stroke="midnightblue" d="M1414.48,-792.928C1242.21,-792.126 444,-783.015 444,-683 444,-683 444,-683 444,-457 444,-355.77 491.468,-240.911 511.376,-197.192"/>
<polygon fill="midnightblue" stroke="midnightblue" points="514.664,-198.421 515.696,-187.876 508.314,-195.476 514.664,-198.421"/>
</g>
<!-- Node16 -->
<g id="node17" class="node"><title>Node16</title>
<polygon fill="white" stroke="#bfbfbf" points="1047.5,-168.5 1047.5,-187.5 1122.5,-187.5 1122.5,-168.5 1047.5,-168.5"/>
<text text-anchor="middle" x="1085" y="-175.5" font-family="Helvetica,sans-Serif" font-size="10.00">user_config.h</text>
</g>
<!-- Node0&#45;&gt;Node16 -->
<g id="edge47" class="edge"><title>Node0&#45;&gt;Node16</title>
<path fill="none" stroke="midnightblue" d="M1414.41,-789.859C1387.34,-785.371 1350.24,-774.471 1331,-748 1284.67,-684.268 1321,-649.792 1321,-571 1321,-571 1321,-571 1321,-289 1321,-206.768 1201.83,-185.859 1132.86,-180.645"/>
<polygon fill="midnightblue" stroke="midnightblue" points="1132.87,-177.137 1122.66,-179.959 1132.4,-184.122 1132.87,-177.137"/>
</g>
<!-- Node30 -->
<g id="node31" class="node"><title>Node30</title>
<g id="a_node31"><a xlink:href="config_8h.html" target="_top" xlink:title="config.h">
<polygon fill="white" stroke="black" points="1340.5,-728.5 1340.5,-747.5 1391.5,-747.5 1391.5,-728.5 1340.5,-728.5"/>
<text text-anchor="middle" x="1366" y="-735.5" font-family="Helvetica,sans-Serif" font-size="10.00">config.h</text>
</a>
</g>
</g>
<!-- Node0&#45;&gt;Node30 -->
<g id="edge44" class="edge"><title>Node0&#45;&gt;Node30</title>
<path fill="none" stroke="midnightblue" d="M1433.99,-784.324C1421.47,-775.979 1402.32,-763.212 1387.53,-753.352"/>
<polygon fill="midnightblue" stroke="midnightblue" points="1389.24,-750.289 1378.98,-747.655 1385.36,-756.114 1389.24,-750.289"/>
</g>
<!-- Node31 -->
<g id="node32" class="node"><title>Node31</title>
<g id="a_node32"><a xlink:href="cron_8h.html" target="_top" xlink:title="cron/cron.h">
<polygon fill="white" stroke="black" points="1387.5,-672.5 1387.5,-691.5 1452.5,-691.5 1452.5,-672.5 1387.5,-672.5"/>
<text text-anchor="middle" x="1420" y="-679.5" font-family="Helvetica,sans-Serif" font-size="10.00">cron/cron.h</text>
</a>
</g>
</g>
<!-- Node0&#45;&gt;Node31 -->
<g id="edge71" class="edge"><title>Node0&#45;&gt;Node31</title>
<path fill="none" stroke="midnightblue" d="M1444.88,-784.368C1440.52,-766.617 1430.47,-725.666 1424.56,-701.597"/>
<polygon fill="midnightblue" stroke="midnightblue" points="1427.89,-700.469 1422.11,-691.591 1421.09,-702.137 1427.89,-700.469"/>
</g>
<!-- Node32 -->
<g id="node33" class="node"><title>Node32</title>
<polygon fill="white" stroke="#bfbfbf" points="1448.5,-728.5 1448.5,-747.5 1499.5,-747.5 1499.5,-728.5 1448.5,-728.5"/>
<text text-anchor="middle" x="1474" y="-735.5" font-family="Helvetica,sans-Serif" font-size="10.00">debug.h</text>
</g>
<!-- Node0&#45;&gt;Node32 -->
<g id="edge48" class="edge"><title>Node0&#45;&gt;Node32</title>
<path fill="none" stroke="midnightblue" d="M1451.46,-784.083C1455.15,-776.691 1460.52,-765.953 1465.09,-756.811"/>
<polygon fill="midnightblue" stroke="midnightblue" points="1468.28,-758.261 1469.62,-747.751 1462.02,-755.13 1468.28,-758.261"/>
</g>
<!-- Node33 -->
<g id="node34" class="node"><title>Node33</title>
<g id="a_node34"><a xlink:href="wifi_8h.html" target="_top" xlink:title="wifi.h">
<polygon fill="white" stroke="black" points="281,-728.5 281,-747.5 321,-747.5 321,-728.5 281,-728.5"/>
<text text-anchor="middle" x="301" y="-735.5" font-family="Helvetica,sans-Serif" font-size="10.00">wifi.h</text>
</a>
</g>
</g>
<!-- Node0&#45;&gt;Node33 -->
<g id="edge49" class="edge"><title>Node0&#45;&gt;Node33</title>
<path fill="none" stroke="midnightblue" d="M1414.42,-792.989C1282.38,-792.664 774.341,-788.684 359,-748 349.889,-747.108 340.029,-745.733 331.068,-744.325"/>
<polygon fill="midnightblue" stroke="midnightblue" points="331.496,-740.848 321.061,-742.683 330.362,-747.756 331.496,-740.848"/>
</g>
<!-- Node38 -->
<g id="node39" class="node"><title>Node38</title>
<g id="a_node39"><a xlink:href="httpd_8h.html" target="_top" xlink:title="httpd.h">
<polygon fill="white" stroke="black" points="368.5,-728.5 368.5,-747.5 415.5,-747.5 415.5,-728.5 368.5,-728.5"/>
<text text-anchor="middle" x="392" y="-735.5" font-family="Helvetica,sans-Serif" font-size="10.00">httpd.h</text>
</a>
</g>
</g>
<!-- Node0&#45;&gt;Node38 -->
<g id="edge66" class="edge"><title>Node0&#45;&gt;Node38</title>
<path fill="none" stroke="midnightblue" d="M1414.28,-792.382C1262.59,-789.389 626.817,-775.412 430,-748 428.531,-747.795 427.036,-747.56 425.529,-747.301"/>
<polygon fill="midnightblue" stroke="midnightblue" points="426.078,-743.841 415.586,-745.312 424.706,-750.705 426.078,-743.841"/>
</g>
<!-- Node39 -->
<g id="node40" class="node"><title>Node39</title>
<g id="a_node40"><a xlink:href="captdns_8h.html" target="_top" xlink:title="captdns.h">
<polygon fill="white" stroke="black" points="1517.5,-728.5 1517.5,-747.5 1576.5,-747.5 1576.5,-728.5 1517.5,-728.5"/>
<text text-anchor="middle" x="1547" y="-735.5" font-family="Helvetica,sans-Serif" font-size="10.00">captdns.h</text>
</a>
</g>
</g>
<!-- Node0&#45;&gt;Node39 -->
<g id="edge69" class="edge"><title>Node0&#45;&gt;Node39</title>
<path fill="none" stroke="midnightblue" d="M1463.07,-784.324C1478.96,-775.743 1503.51,-762.486 1521.96,-752.522"/>
<polygon fill="midnightblue" stroke="midnightblue" points="1523.84,-755.486 1530.97,-747.655 1520.51,-749.326 1523.84,-755.486"/>
</g>
<!-- Node40 -->
<g id="node41" class="node"><title>Node40</title>
<g id="a_node41"><a xlink:href="unix__time_8h.html" target="_top" xlink:title="unix_time.h">
<polygon fill="white" stroke="black" points="1594.5,-728.5 1594.5,-747.5 1661.5,-747.5 1661.5,-728.5 1594.5,-728.5"/>
<text text-anchor="middle" x="1628" y="-735.5" font-family="Helvetica,sans-Serif" font-size="10.00">unix_time.h</text>
</a>
</g>
</g>
<!-- Node0&#45;&gt;Node40 -->
<g id="edge70" class="edge"><title>Node0&#45;&gt;Node40</title>
<path fill="none" stroke="midnightblue" d="M1475.68,-784.444C1506.53,-775.241 1555.73,-760.562 1589.83,-750.388"/>
<polygon fill="midnightblue" stroke="midnightblue" points="1590.87,-753.729 1599.45,-747.516 1588.87,-747.021 1590.87,-753.729"/>
</g>
<!-- Node41 -->
<g id="node42" class="node"><title>Node41</title>
<g id="a_node42"><a xlink:href="led_8h.html" target="_top" xlink:title="led.h">
<polygon fill="white" stroke="black" points="1680,-728.5 1680,-747.5 1718,-747.5 1718,-728.5 1680,-728.5"/>
<text text-anchor="middle" x="1699" y="-735.5" font-family="Helvetica,sans-Serif" font-size="10.00">led.h</text>
</a>
</g>
</g>
<!-- Node0&#45;&gt;Node41 -->
<g id="edge72" class="edge"><title>Node0&#45;&gt;Node41</title>
<path fill="none" stroke="midnightblue" d="M1479.73,-787.472C1523.41,-779.85 1603.03,-765.101 1670,-748 1670.1,-747.975 1670.2,-747.949 1670.3,-747.924"/>
<polygon fill="midnightblue" stroke="midnightblue" points="1671.05,-751.348 1679.73,-745.279 1669.16,-744.607 1671.05,-751.348"/>
</g>
<!-- Node42 -->
<g id="node43" class="node"><title>Node42</title>
<g id="a_node43"><a xlink:href="watchdog_8h.html" target="_top" xlink:title="watchdog.h">
<polygon fill="white" stroke="black" points="1736.5,-728.5 1736.5,-747.5 1803.5,-747.5 1803.5,-728.5 1736.5,-728.5"/>
<text text-anchor="middle" x="1770" y="-735.5" font-family="Helvetica,sans-Serif" font-size="10.00">watchdog.h</text>
</a>
</g>
</g>
<!-- Node0&#45;&gt;Node42 -->
<g id="edge73" class="edge"><title>Node0&#45;&gt;Node42</title>
<path fill="none" stroke="midnightblue" d="M1479.85,-788.232C1530.45,-780.776 1630.76,-765.558 1726.12,-748.088"/>
<polygon fill="midnightblue" stroke="midnightblue" points="1727.03,-751.48 1736.23,-746.225 1725.76,-744.596 1727.03,-751.48"/>
</g>
<!-- Node43 -->
<g id="node44" class="node"><title>Node43</title>
<g id="a_node44"><a xlink:href="tinyprintf_8h.html" target="_top" xlink:title="tinyprintf.h">
<polygon fill="white" stroke="black" points="1822,-728.5 1822,-747.5 1884,-747.5 1884,-728.5 1822,-728.5"/>
<text text-anchor="middle" x="1853" y="-735.5" font-family="Helvetica,sans-Serif" font-size="10.00">tinyprintf.h</text>
</a>
</g>
</g>
<!-- Node0&#45;&gt;Node43 -->
<g id="edge74" class="edge"><title>Node0&#45;&gt;Node43</title>
<path fill="none" stroke="midnightblue" d="M1479.87,-789.987C1542.38,-784.034 1682.85,-769.584 1811.68,-747.892"/>
<polygon fill="midnightblue" stroke="midnightblue" points="1812.45,-751.311 1821.72,-746.182 1811.27,-744.41 1812.45,-751.311"/>
</g>
<!-- Node46 -->
<g id="node47" class="node"><title>Node46</title>
<g id="a_node47"><a xlink:href="utils_8h.html" target="_top" xlink:title="utils.h">
<polygon fill="white" stroke="black" points="1902.5,-728.5 1902.5,-747.5 1945.5,-747.5 1945.5,-728.5 1902.5,-728.5"/>
<text text-anchor="middle" x="1924" y="-735.5" font-family="Helvetica,sans-Serif" font-size="10.00">utils.h</text>
</a>
</g>
</g>
<!-- Node0&#45;&gt;Node46 -->
<g id="edge77" class="edge"><title>Node0&#45;&gt;Node46</title>
<path fill="none" stroke="midnightblue" d="M1479.75,-791.736C1552.41,-788.498 1732.61,-778.073 1892.43,-747.734"/>
<polygon fill="midnightblue" stroke="midnightblue" points="1893.29,-751.134 1902.44,-745.802 1891.96,-744.261 1893.29,-751.134"/>
</g>
<!-- Node2 -->
<g id="node3" class="node"><title>Node2</title>
<polygon fill="white" stroke="#bfbfbf" points="822.5,-616.5 822.5,-635.5 871.5,-635.5 871.5,-616.5 822.5,-616.5"/>
<text text-anchor="middle" x="847" y="-623.5" font-family="Helvetica,sans-Serif" font-size="10.00">ctype.h</text>
</g>
<!-- Node1&#45;&gt;Node2 -->
<g id="edge2" class="edge"><title>Node1&#45;&gt;Node2</title>
<path fill="none" stroke="midnightblue" d="M847,-672.083C847,-665.006 847,-654.861 847,-645.986"/>
<polygon fill="midnightblue" stroke="midnightblue" points="850.5,-645.751 847,-635.751 843.5,-645.751 850.5,-645.751"/>
</g>
<!-- Node3 -->
<g id="node4" class="node"><title>Node3</title>
<polygon fill="white" stroke="#bfbfbf" points="1143,-616.5 1143,-635.5 1189,-635.5 1189,-616.5 1143,-616.5"/>
<text text-anchor="middle" x="1166" y="-623.5" font-family="Helvetica,sans-Serif" font-size="10.00">stdio.h</text>
</g>
<!-- Node1&#45;&gt;Node3 -->
<g id="edge3" class="edge"><title>Node1&#45;&gt;Node3</title>
<path fill="none" stroke="midnightblue" d="M878.228,-677.337C929.482,-671.06 1034.78,-657.049 1132.89,-636.032"/>
<polygon fill="midnightblue" stroke="midnightblue" points="1133.63,-639.452 1142.66,-633.909 1132.15,-632.611 1133.63,-639.452"/>
</g>
<!-- Node4 -->
<g id="node5" class="node"><title>Node4</title>
<polygon fill="white" stroke="#bfbfbf" points="1207,-616.5 1207,-635.5 1255,-635.5 1255,-616.5 1207,-616.5"/>
<text text-anchor="middle" x="1231" y="-623.5" font-family="Helvetica,sans-Serif" font-size="10.00">stdlib.h</text>
</g>
<!-- Node1&#45;&gt;Node4 -->
<g id="edge4" class="edge"><title>Node1&#45;&gt;Node4</title>
<path fill="none" stroke="midnightblue" d="M878.224,-678.463C938.188,-673.276 1073.72,-660.037 1196.96,-635.956"/>
<polygon fill="midnightblue" stroke="midnightblue" points="1197.81,-639.355 1206.94,-633.976 1196.45,-632.489 1197.81,-639.355"/>
</g>
<!-- Node1&#45;&gt;Node5 -->
<g id="edge5" class="edge"><title>Node1&#45;&gt;Node5</title>
<path fill="none" stroke="midnightblue" d="M815.949,-678.939C752.24,-674.24 609.268,-661.15 568,-636 537.334,-617.311 520,-606.912 520,-571 520,-571 520,-571 520,-289 520,-256.948 520,-219.643 520,-197.749"/>
<polygon fill="midnightblue" stroke="midnightblue" points="523.5,-197.558 520,-187.558 516.5,-197.558 523.5,-197.558"/>
</g>
<!-- Node6 -->
<g id="node7" class="node"><title>Node6</title>
<g id="a_node7"><a xlink:href="c__types_8h.html" target="_top" xlink:title="c_types.h">
<polygon fill="white" stroke="black" points="376.5,-56.5 376.5,-75.5 435.5,-75.5 435.5,-56.5 376.5,-56.5"/>
<text text-anchor="middle" x="406" y="-63.5" font-family="Helvetica,sans-Serif" font-size="10.00">c_types.h</text>
</a>
</g>
</g>
<!-- Node1&#45;&gt;Node6 -->
<g id="edge6" class="edge"><title>Node1&#45;&gt;Node6</title>
<path fill="none" stroke="midnightblue" d="M815.956,-679.325C747.05,-675.162 583.655,-662.696 536,-636 503.234,-617.644 482,-608.558 482,-571 482,-571 482,-571 482,-457 482,-346.085 368,-345.915 368,-235 368,-235 368,-235 368,-177 368,-142.813 384.6,-105.764 395.857,-84.5707"/>
<polygon fill="midnightblue" stroke="midnightblue" points="398.947,-86.2151 400.716,-75.769 392.819,-82.832 398.947,-86.2151"/>
</g>
<!-- Node9 -->
<g id="node10" class="node"><title>Node9</title>
<g id="a_node10"><a xlink:href="ets__sys_8h.html" target="_top" xlink:title="ets_sys.h">
<polygon fill="white" stroke="black" points="634.5,-112.5 634.5,-131.5 693.5,-131.5 693.5,-112.5 634.5,-112.5"/>
<text text-anchor="middle" x="664" y="-119.5" font-family="Helvetica,sans-Serif" font-size="10.00">ets_sys.h</text>
</a>
</g>
</g>
<!-- Node1&#45;&gt;Node9 -->
<g id="edge9" class="edge"><title>Node1&#45;&gt;Node9</title>
<path fill="none" stroke="midnightblue" d="M878.182,-681.223C963.824,-681.283 1200.5,-677.589 1264,-636 1363.75,-570.674 1397,-522.239 1397,-403 1397,-403 1397,-403 1397,-233 1397,-162.313 857.006,-131.932 703.979,-124.742"/>
<polygon fill="midnightblue" stroke="midnightblue" points="703.793,-121.23 693.642,-124.264 703.47,-128.222 703.793,-121.23"/>
</g>
<!-- Node11 -->
<g id="node12" class="node"><title>Node11</title>
<g id="a_node12"><a xlink:href="gpio_8h.html" target="_top" xlink:title="gpio.h">
<polygon fill="white" stroke="black" points="776.5,-560.5 776.5,-579.5 819.5,-579.5 819.5,-560.5 776.5,-560.5"/>
<text text-anchor="middle" x="798" y="-567.5" font-family="Helvetica,sans-Serif" font-size="10.00">gpio.h</text>
</a>
</g>
</g>
<!-- Node1&#45;&gt;Node11 -->
<g id="edge12" class="edge"><title>Node1&#45;&gt;Node11</title>
<path fill="none" stroke="midnightblue" d="M815.911,-680.156C784.622,-677.445 737.826,-667.897 715,-636 697.584,-611.662 736.278,-591.896 766.51,-580.791"/>
<polygon fill="midnightblue" stroke="midnightblue" points="768.054,-583.96 776.344,-577.363 765.75,-577.35 768.054,-583.96"/>
</g>
<!-- Node12 -->
<g id="node13" class="node"><title>Node12</title>
<g id="a_node13"><a xlink:href="sdk_2include_2mem_8h.html" target="_top" xlink:title="mem.h">
<polygon fill="white" stroke="black" points="757.5,-616.5 757.5,-635.5 804.5,-635.5 804.5,-616.5 757.5,-616.5"/>
<text text-anchor="middle" x="781" y="-623.5" font-family="Helvetica,sans-Serif" font-size="10.00">mem.h</text>
</a>
</g>
</g>
<!-- Node1&#45;&gt;Node12 -->
<g id="edge13" class="edge"><title>Node1&#45;&gt;Node12</title>
<path fill="none" stroke="midnightblue" d="M836.396,-672.324C826.544,-664.263 811.649,-652.077 799.785,-642.369"/>
<polygon fill="midnightblue" stroke="midnightblue" points="801.753,-639.457 791.797,-635.834 797.32,-644.875 801.753,-639.457"/>
</g>
<!-- Node14 -->
<g id="node15" class="node"><title>Node14</title>
<g id="a_node15"><a xlink:href="osapi_8h.html" target="_top" xlink:title="osapi.h">
<polygon fill="white" stroke="black" points="634,-224.5 634,-243.5 682,-243.5 682,-224.5 634,-224.5"/>
<text text-anchor="middle" x="658" y="-231.5" font-family="Helvetica,sans-Serif" font-size="10.00">osapi.h</text>
</a>
</g>
</g>
<!-- Node1&#45;&gt;Node14 -->
<g id="edge16" class="edge"><title>Node1&#45;&gt;Node14</title>
<path fill="none" stroke="midnightblue" d="M815.662,-675.938C792.613,-670.397 762.821,-659.017 748,-636 743.188,-628.526 743.174,-623.464 748,-616 769.17,-583.258 806.83,-612.742 828,-580 832.826,-572.536 829.631,-568.738 828,-560 803.786,-430.311 707.415,-297.666 671.544,-251.797"/>
<polygon fill="midnightblue" stroke="midnightblue" points="674.168,-249.473 665.216,-243.806 668.681,-253.819 674.168,-249.473"/>
</g>
<!-- Node17 -->
<g id="node18" class="node"><title>Node17</title>
<g id="a_node18"><a xlink:href="user__interface_8h.html" target="_top" xlink:title="user_interface.h">
<polygon fill="white" stroke="black" points="577,-616.5 577,-635.5 663,-635.5 663,-616.5 577,-616.5"/>
<text text-anchor="middle" x="620" y="-623.5" font-family="Helvetica,sans-Serif" font-size="10.00">user_interface.h</text>
</a>
</g>
</g>
<!-- Node1&#45;&gt;Node17 -->
<g id="edge21" class="edge"><title>Node1&#45;&gt;Node17</title>
<path fill="none" stroke="midnightblue" d="M815.913,-673.605C777.079,-664.367 710.321,-648.486 665.674,-637.865"/>
<polygon fill="midnightblue" stroke="midnightblue" points="666.484,-634.46 655.945,-635.551 664.864,-641.27 666.484,-634.46"/>
</g>
<!-- Node27 -->
<g id="node28" class="node"><title>Node27</title>
<g id="a_node28"><a xlink:href="upgrade_8h.html" target="_top" xlink:title="upgrade.h">
<polygon fill="white" stroke="black" points="889.5,-616.5 889.5,-635.5 948.5,-635.5 948.5,-616.5 889.5,-616.5"/>
<text text-anchor="middle" x="919" y="-623.5" font-family="Helvetica,sans-Serif" font-size="10.00">upgrade.h</text>
</a>
</g>
</g>
<!-- Node1&#45;&gt;Node27 -->
<g id="edge40" class="edge"><title>Node1&#45;&gt;Node27</title>
<path fill="none" stroke="midnightblue" d="M858.568,-672.324C869.42,-664.185 885.881,-651.839 898.883,-642.087"/>
<polygon fill="midnightblue" stroke="midnightblue" points="901.321,-644.634 907.221,-635.834 897.121,-639.034 901.321,-644.634"/>
</g>
<!-- Node28 -->
<g id="node29" class="node"><title>Node28</title>
<g id="a_node29"><a xlink:href="esp__sdk__ver_8h.html" target="_top" xlink:title="esp_sdk_ver.h">
<polygon fill="white" stroke="black" points="967,-616.5 967,-635.5 1047,-635.5 1047,-616.5 967,-616.5"/>
<text text-anchor="middle" x="1007" y="-623.5" font-family="Helvetica,sans-Serif" font-size="10.00">esp_sdk_ver.h</text>
</a>
</g>
</g>
<!-- Node1&#45;&gt;Node28 -->
<g id="edge41" class="edge"><title>Node1&#45;&gt;Node28</title>
<path fill="none" stroke="midnightblue" d="M872.352,-672.444C899.269,-663.359 941.996,-648.939 972.087,-638.783"/>
<polygon fill="midnightblue" stroke="midnightblue" points="973.41,-642.031 981.766,-635.516 971.172,-635.398 973.41,-642.031"/>
</g>
<!-- Node29 -->
<g id="node30" class="node"><title>Node29</title>
<g id="a_node30"><a xlink:href="platform_8h.html" target="_top" xlink:title="platform.h">
<polygon fill="white" stroke="black" points="1065,-616.5 1065,-635.5 1125,-635.5 1125,-616.5 1065,-616.5"/>
<text text-anchor="middle" x="1095" y="-623.5" font-family="Helvetica,sans-Serif" font-size="10.00">platform.h</text>
</a>
</g>
</g>
<!-- Node1&#45;&gt;Node29 -->
<g id="edge42" class="edge"><title>Node1&#45;&gt;Node29</title>
<path fill="none" stroke="midnightblue" d="M878.191,-674.434C917.15,-666.2 986.111,-651.518 1054.67,-636.273"/>
<polygon fill="midnightblue" stroke="midnightblue" points="1055.78,-639.612 1064.78,-634.021 1054.25,-632.78 1055.78,-639.612"/>
</g>
<!-- Node7 -->
<g id="node8" class="node"><title>Node7</title>
<polygon fill="white" stroke="#bfbfbf" points="346.5,-0.5 346.5,-19.5 395.5,-19.5 395.5,-0.5 346.5,-0.5"/>
<text text-anchor="middle" x="371" y="-7.5" font-family="Helvetica,sans-Serif" font-size="10.00">stdint.h</text>
</g>
<!-- Node6&#45;&gt;Node7 -->
<g id="edge7" class="edge"><title>Node6&#45;&gt;Node7</title>
<path fill="none" stroke="midnightblue" d="M400.22,-56.083C395.328,-48.5341 388.173,-37.4948 382.167,-28.2298"/>
<polygon fill="midnightblue" stroke="midnightblue" points="385.048,-26.239 376.672,-19.7511 379.174,-30.0463 385.048,-26.239"/>
</g>
<!-- Node8 -->
<g id="node9" class="node"><title>Node8</title>
<polygon fill="white" stroke="#bfbfbf" points="414,-0.5 414,-19.5 470,-19.5 470,-0.5 414,-0.5"/>
<text text-anchor="middle" x="442" y="-7.5" font-family="Helvetica,sans-Serif" font-size="10.00">stdbool.h</text>
</g>
<!-- Node6&#45;&gt;Node8 -->
<g id="edge8" class="edge"><title>Node6&#45;&gt;Node8</title>
<path fill="none" stroke="midnightblue" d="M411.945,-56.083C416.977,-48.5341 424.337,-37.4948 430.513,-28.2298"/>
<polygon fill="midnightblue" stroke="midnightblue" points="433.531,-30.0131 436.166,-19.7511 427.707,-26.1301 433.531,-30.0131"/>
</g>
<!-- Node9&#45;&gt;Node6 -->
<g id="edge10" class="edge"><title>Node9&#45;&gt;Node6</title>
<path fill="none" stroke="midnightblue" d="M634.404,-114.806C587.871,-105.066 497.553,-86.1623 445.519,-75.2714"/>
<polygon fill="midnightblue" stroke="midnightblue" points="446.152,-71.8281 435.647,-73.2052 444.718,-78.6797 446.152,-71.8281"/>
</g>
<!-- Node10 -->
<g id="node11" class="node"><title>Node10</title>
<g id="a_node11"><a xlink:href="eagle__soc_8h.html" target="_top" xlink:title="eagle_soc.h">
<polygon fill="white" stroke="black" points="629.5,-56.5 629.5,-75.5 698.5,-75.5 698.5,-56.5 629.5,-56.5"/>
<text text-anchor="middle" x="664" y="-63.5" font-family="Helvetica,sans-Serif" font-size="10.00">eagle_soc.h</text>
</a>
</g>
</g>
<!-- Node9&#45;&gt;Node10 -->
<g id="edge11" class="edge"><title>Node9&#45;&gt;Node10</title>
<path fill="none" stroke="midnightblue" d="M664,-112.083C664,-105.006 664,-94.8611 664,-85.9865"/>
<polygon fill="midnightblue" stroke="midnightblue" points="667.5,-85.751 664,-75.7511 660.5,-85.7511 667.5,-85.751"/>
</g>
<!-- Node12&#45;&gt;Node6 -->
<g id="edge15" class="edge"><title>Node12&#45;&gt;Node6</title>
<path fill="none" stroke="midnightblue" d="M795.078,-616.259C806.353,-608.355 821.346,-595.584 828,-580 831.491,-571.825 830.677,-568.476 828,-560 795.957,-458.53 628.609,-242.875 553,-168 515.316,-130.681 462.253,-98.0873 431.26,-80.6015"/>
<polygon fill="midnightblue" stroke="midnightblue" points="432.833,-77.4711 422.392,-75.6714 429.431,-83.5893 432.833,-77.4711"/>
</g>
<!-- Node13 -->
<g id="node14" class="node"><title>Node13</title>
<polygon fill="white" stroke="#bfbfbf" points="914,-560.5 914,-579.5 966,-579.5 966,-560.5 914,-560.5"/>
<text text-anchor="middle" x="940" y="-567.5" font-family="Helvetica,sans-Serif" font-size="10.00">stddef.h</text>
</g>
<!-- Node12&#45;&gt;Node13 -->
<g id="edge14" class="edge"><title>Node12&#45;&gt;Node13</title>
<path fill="none" stroke="midnightblue" d="M804.804,-616.916C831.345,-607.902 874.53,-593.235 904.938,-582.908"/>
<polygon fill="midnightblue" stroke="midnightblue" points="906.374,-586.117 914.717,-579.587 904.123,-579.488 906.374,-586.117"/>
</g>
<!-- Node14&#45;&gt;Node5 -->
<g id="edge17" class="edge"><title>Node14&#45;&gt;Node5</title>
<path fill="none" stroke="midnightblue" d="M636.133,-224.444C613.221,-215.478 577.025,-201.314 551.134,-191.183"/>
<polygon fill="midnightblue" stroke="midnightblue" points="552.352,-187.901 541.764,-187.516 549.801,-194.42 552.352,-187.901"/>
</g>
<!-- Node15 -->
<g id="node16" class="node"><title>Node15</title>
<g id="a_node16"><a xlink:href="os__type_8h.html" target="_top" xlink:title="os_type.h">
<polygon fill="white" stroke="black" points="634.5,-168.5 634.5,-187.5 693.5,-187.5 693.5,-168.5 634.5,-168.5"/>
<text text-anchor="middle" x="664" y="-175.5" font-family="Helvetica,sans-Serif" font-size="10.00">os_type.h</text>
</a>
</g>
</g>
<!-- Node14&#45;&gt;Node15 -->
<g id="edge18" class="edge"><title>Node14&#45;&gt;Node15</title>
<path fill="none" stroke="midnightblue" d="M658.991,-224.083C659.786,-216.927 660.929,-206.635 661.923,-197.691"/>
<polygon fill="midnightblue" stroke="midnightblue" points="665.402,-198.076 663.028,-187.751 658.445,-197.303 665.402,-198.076"/>
</g>
<!-- Node14&#45;&gt;Node16 -->
<g id="edge20" class="edge"><title>Node14&#45;&gt;Node16</title>
<path fill="none" stroke="midnightblue" d="M682.181,-229.942C750.556,-221.295 946.227,-196.55 1037.3,-185.032"/>
<polygon fill="midnightblue" stroke="midnightblue" points="1037.87,-188.488 1047.35,-183.761 1036.99,-181.544 1037.87,-188.488"/>
</g>
<!-- Node15&#45;&gt;Node9 -->
<g id="edge19" class="edge"><title>Node15&#45;&gt;Node9</title>
<path fill="none" stroke="midnightblue" d="M664,-168.083C664,-161.006 664,-150.861 664,-141.986"/>
<polygon fill="midnightblue" stroke="midnightblue" points="667.5,-141.751 664,-131.751 660.5,-141.751 667.5,-141.751"/>
</g>
<!-- Node17&#45;&gt;Node11 -->
<g id="edge39" class="edge"><title>Node17&#45;&gt;Node11</title>
<path fill="none" stroke="midnightblue" d="M648.205,-616.444C680.453,-606.66 733.101,-590.688 766.621,-580.519"/>
<polygon fill="midnightblue" stroke="midnightblue" points="767.813,-583.815 776.366,-577.563 765.781,-577.117 767.813,-583.815"/>
</g>
<!-- Node17&#45;&gt;Node15 -->
<g id="edge22" class="edge"><title>Node17&#45;&gt;Node15</title>
<path fill="none" stroke="midnightblue" d="M641.293,-616.492C657.188,-609.099 678.276,-596.908 691,-580 709.098,-555.951 710,-545.098 710,-515 710,-515 710,-515 710,-289 710,-253.817 689.722,-216.863 676.093,-195.999"/>
<polygon fill="midnightblue" stroke="midnightblue" points="678.91,-193.916 670.396,-187.609 673.119,-197.848 678.91,-193.916"/>
</g>
<!-- Node17&#45;&gt;Node16 -->
<g id="edge37" class="edge"><title>Node17&#45;&gt;Node16</title>
<path fill="none" stroke="midnightblue" d="M647.463,-616.383C667.196,-609.125 693.476,-597.156 712,-580 800.136,-498.371 849,-467.13 849,-347 849,-347 849,-347 849,-289 849,-206.768 968.166,-185.859 1037.14,-180.645"/>
<polygon fill="midnightblue" stroke="midnightblue" points="1037.6,-184.122 1047.34,-179.959 1037.13,-177.137 1037.6,-184.122"/>
</g>
<!-- Node18 -->
<g id="node19" class="node"><title>Node18</title>
<g id="a_node19"><a xlink:href="esp-open-lwip_2include_2lwip_2ip__addr_8h.html" target="_top" xlink:title="lwip/ip_addr.h">
<polygon fill="white" stroke="black" points="300.5,-560.5 300.5,-579.5 377.5,-579.5 377.5,-560.5 300.5,-560.5"/>
<text text-anchor="middle" x="339" y="-567.5" font-family="Helvetica,sans-Serif" font-size="10.00">lwip/ip_addr.h</text>
</a>
</g>
</g>
<!-- Node17&#45;&gt;Node18 -->
<g id="edge23" class="edge"><title>Node17&#45;&gt;Node18</title>
<path fill="none" stroke="midnightblue" d="M576.71,-616.681C525.655,-606.87 441.012,-590.604 387.71,-580.361"/>
<polygon fill="midnightblue" stroke="midnightblue" points="388.293,-576.909 377.813,-578.459 386.972,-583.783 388.293,-576.909"/>
</g>
<!-- Node25 -->
<g id="node26" class="node"><title>Node25</title>
<g id="a_node26"><a xlink:href="esp-open-sdk_2sdk_2include_2queue_8h.html" target="_top" xlink:title="queue.h">
<polygon fill="white" stroke="black" points="548.5,-560.5 548.5,-579.5 599.5,-579.5 599.5,-560.5 548.5,-560.5"/>
<text text-anchor="middle" x="574" y="-567.5" font-family="Helvetica,sans-Serif" font-size="10.00">queue.h</text>
</a>
</g>
</g>
<!-- Node17&#45;&gt;Node25 -->
<g id="edge36" class="edge"><title>Node17&#45;&gt;Node25</title>
<path fill="none" stroke="midnightblue" d="M612.404,-616.083C605.773,-608.298 595.979,-596.801 587.942,-587.367"/>
<polygon fill="midnightblue" stroke="midnightblue" points="590.604,-585.094 581.455,-579.751 585.275,-589.633 590.604,-585.094"/>
</g>
<!-- Node26 -->
<g id="node27" class="node"><title>Node26</title>
<g id="a_node27"><a xlink:href="spi__flash_8h.html" target="_top" xlink:title="spi_flash.h">
<polygon fill="white" stroke="black" points="618,-560.5 618,-579.5 682,-579.5 682,-560.5 618,-560.5"/>
<text text-anchor="middle" x="650" y="-567.5" font-family="Helvetica,sans-Serif" font-size="10.00">spi_flash.h</text>
</a>
</g>
</g>
<!-- Node17&#45;&gt;Node26 -->
<g id="edge38" class="edge"><title>Node17&#45;&gt;Node26</title>
<path fill="none" stroke="midnightblue" d="M624.954,-616.083C629.104,-608.613 635.153,-597.724 640.267,-588.52"/>
<polygon fill="midnightblue" stroke="midnightblue" points="643.341,-590.192 645.138,-579.751 637.222,-586.793 643.341,-590.192"/>
</g>
<!-- Node19 -->
<g id="node20" class="node"><title>Node19</title>
<g id="a_node20"><a xlink:href="opt_8h.html" target="_top" xlink:title="lwip/opt.h">
<polygon fill="white" stroke="black" points="161.5,-448.5 161.5,-467.5 220.5,-467.5 220.5,-448.5 161.5,-448.5"/>
<text text-anchor="middle" x="191" y="-455.5" font-family="Helvetica,sans-Serif" font-size="10.00">lwip/opt.h</text>
</a>
</g>
</g>
<!-- Node18&#45;&gt;Node19 -->
<g id="edge24" class="edge"><title>Node18&#45;&gt;Node19</title>
<path fill="none" stroke="midnightblue" d="M327.387,-560.368C302.206,-541.653 242.33,-497.151 210.956,-473.832"/>
<polygon fill="midnightblue" stroke="midnightblue" points="212.673,-470.748 202.559,-467.591 208.497,-476.366 212.673,-470.748"/>
</g>
<!-- Node24 -->
<g id="node25" class="node"><title>Node24</title>
<g id="a_node25"><a xlink:href="def_8h.html" target="_top" xlink:title="lwip/def.h">
<polygon fill="white" stroke="black" points="304.5,-504.5 304.5,-523.5 363.5,-523.5 363.5,-504.5 304.5,-504.5"/>
<text text-anchor="middle" x="334" y="-511.5" font-family="Helvetica,sans-Serif" font-size="10.00">lwip/def.h</text>
</a>
</g>
</g>
<!-- Node18&#45;&gt;Node24 -->
<g id="edge33" class="edge"><title>Node18&#45;&gt;Node24</title>
<path fill="none" stroke="midnightblue" d="M338.174,-560.083C337.519,-553.006 336.58,-542.861 335.758,-533.986"/>
<polygon fill="midnightblue" stroke="midnightblue" points="339.217,-533.386 334.81,-523.751 332.247,-534.031 339.217,-533.386"/>
</g>
<!-- Node20 -->
<g id="node21" class="node"><title>Node20</title>
<g id="a_node21"><a xlink:href="lwipopts_8h.html" target="_top" xlink:title="lwipopts.h">
<polygon fill="white" stroke="black" points="176.5,-336.5 176.5,-355.5 237.5,-355.5 237.5,-336.5 176.5,-336.5"/>
<text text-anchor="middle" x="207" y="-343.5" font-family="Helvetica,sans-Serif" font-size="10.00">lwipopts.h</text>
</a>
</g>
</g>
<!-- Node19&#45;&gt;Node20 -->
<g id="edge25" class="edge"><title>Node19&#45;&gt;Node20</title>
<path fill="none" stroke="midnightblue" d="M189.035,-448.479C186.469,-435.955 182.775,-411.908 187,-392 188.997,-382.591 193.101,-372.762 197.075,-364.698"/>
<polygon fill="midnightblue" stroke="midnightblue" points="200.307,-366.072 201.87,-355.593 194.113,-362.81 200.307,-366.072"/>
</g>
<!-- Node21 -->
<g id="node22" class="node"><title>Node21</title>
<g id="a_node22"><a xlink:href="esp-open-sdk_2esp-open-lwip_2include_2lwip_2debug_8h.html" target="_top" xlink:title="lwip/debug.h">
<polygon fill="white" stroke="black" points="196.5,-392.5 196.5,-411.5 267.5,-411.5 267.5,-392.5 196.5,-392.5"/>
<text text-anchor="middle" x="232" y="-399.5" font-family="Helvetica,sans-Serif" font-size="10.00">lwip/debug.h</text>
</a>
</g>
</g>
<!-- Node19&#45;&gt;Node21 -->
<g id="edge26" class="edge"><title>Node19&#45;&gt;Node21</title>
<path fill="none" stroke="midnightblue" d="M197.77,-448.083C203.562,-440.455 212.058,-429.264 219.138,-419.941"/>
<polygon fill="midnightblue" stroke="midnightblue" points="222.096,-421.832 225.356,-411.751 216.521,-417.599 222.096,-421.832"/>
</g>
<!-- Node21&#45;&gt;Node20 -->
<g id="edge27" class="edge"><title>Node21&#45;&gt;Node20</title>
<path fill="none" stroke="midnightblue" d="M227.872,-392.083C224.486,-384.77 219.584,-374.181 215.381,-365.103"/>
<polygon fill="midnightblue" stroke="midnightblue" points="218.429,-363.355 211.051,-355.751 212.077,-366.296 218.429,-363.355"/>
</g>
<!-- Node22 -->
<g id="node23" class="node"><title>Node22</title>
<g id="a_node23"><a xlink:href="arch_8h.html" target="_top" xlink:title="lwip/arch.h">
<polygon fill="white" stroke="black" points="279,-336.5 279,-355.5 343,-355.5 343,-336.5 279,-336.5"/>
<text text-anchor="middle" x="311" y="-343.5" font-family="Helvetica,sans-Serif" font-size="10.00">lwip/arch.h</text>
</a>
</g>
</g>
<!-- Node21&#45;&gt;Node22 -->
<g id="edge28" class="edge"><title>Node21&#45;&gt;Node22</title>
<path fill="none" stroke="midnightblue" d="M244.693,-392.324C256.901,-383.979 275.578,-371.212 290.003,-361.352"/>
<polygon fill="midnightblue" stroke="midnightblue" points="292.058,-364.187 298.339,-355.655 288.108,-358.408 292.058,-364.187"/>
</g>
<!-- Node23 -->
<g id="node24" class="node"><title>Node23</title>
<g id="a_node24"><a xlink:href="cc_8h.html" target="_top" xlink:title="arch/cc.h">
<polygon fill="white" stroke="black" points="396.5,-280.5 396.5,-299.5 453.5,-299.5 453.5,-280.5 396.5,-280.5"/>
<text text-anchor="middle" x="425" y="-287.5" font-family="Helvetica,sans-Serif" font-size="10.00">arch/cc.h</text>
</a>
</g>
</g>
<!-- Node22&#45;&gt;Node23 -->
<g id="edge29" class="edge"><title>Node22&#45;&gt;Node23</title>
<path fill="none" stroke="midnightblue" d="M329.064,-336.444C347.575,-327.675 376.581,-313.935 397.855,-303.858"/>
<polygon fill="midnightblue" stroke="midnightblue" points="399.482,-306.96 407.021,-299.516 396.485,-300.634 399.482,-306.96"/>
</g>
<!-- Node23&#45;&gt;Node6 -->
<g id="edge30" class="edge"><title>Node23&#45;&gt;Node6</title>
<path fill="none" stroke="midnightblue" d="M424.255,-280.297C421.46,-247.633 411.552,-131.866 407.622,-85.9573"/>
<polygon fill="midnightblue" stroke="midnightblue" points="411.1,-85.5488 406.76,-75.8837 404.126,-86.1458 411.1,-85.5488"/>
</g>
<!-- Node23&#45;&gt;Node9 -->
<g id="edge31" class="edge"><title>Node23&#45;&gt;Node9</title>
<path fill="none" stroke="midnightblue" d="M426.745,-280.425C431.731,-258.191 448.187,-198.312 486,-168 525.64,-136.223 584.919,-126.572 624.017,-123.812"/>
<polygon fill="midnightblue" stroke="midnightblue" points="624.452,-127.293 634.231,-123.216 624.044,-120.305 624.452,-127.293"/>
</g>
<!-- Node23&#45;&gt;Node14 -->
<g id="edge32" class="edge"><title>Node23&#45;&gt;Node14</title>
<path fill="none" stroke="midnightblue" d="M453.57,-282.379C496.614,-272.403 577.943,-253.554 623.984,-242.884"/>
<polygon fill="midnightblue" stroke="midnightblue" points="624.841,-246.278 633.793,-240.61 623.261,-239.459 624.841,-246.278"/>
</g>
<!-- Node24&#45;&gt;Node19 -->
<g id="edge35" class="edge"><title>Node24&#45;&gt;Node19</title>
<path fill="none" stroke="midnightblue" d="M311.341,-504.444C287.598,-495.478 250.091,-481.314 223.262,-471.183"/>
<polygon fill="midnightblue" stroke="midnightblue" points="224.144,-467.775 213.553,-467.516 221.671,-474.324 224.144,-467.775"/>
</g>
<!-- Node24&#45;&gt;Node22 -->
<g id="edge34" class="edge"><title>Node24&#45;&gt;Node22</title>
<path fill="none" stroke="midnightblue" d="M332.763,-504.075C329.143,-477.945 318.511,-401.211 313.574,-365.577"/>
<polygon fill="midnightblue" stroke="midnightblue" points="317.027,-364.993 312.187,-355.568 310.093,-365.954 317.027,-364.993"/>
</g>
<!-- Node30&#45;&gt;Node16 -->
<g id="edge45" class="edge"><title>Node30&#45;&gt;Node16</title>
<path fill="none" stroke="midnightblue" d="M1365.08,-728.454C1363.19,-709.971 1359,-664.889 1359,-627 1359,-627 1359,-627 1359,-289 1359,-258.205 1358.6,-243.782 1335,-224 1305.07,-198.909 1196.86,-186.996 1133.03,-182.037"/>
<polygon fill="midnightblue" stroke="midnightblue" points="1133.04,-178.528 1122.81,-181.272 1132.52,-185.508 1133.04,-178.528"/>
</g>
<!-- Node30&#45;&gt;Node31 -->
<g id="edge46" class="edge"><title>Node30&#45;&gt;Node31</title>
<path fill="none" stroke="midnightblue" d="M1374.92,-728.083C1382.78,-720.22 1394.43,-708.569 1403.92,-699.081"/>
<polygon fill="midnightblue" stroke="midnightblue" points="1406.65,-701.297 1411.25,-691.751 1401.7,-696.347 1406.65,-701.297"/>
</g>
<!-- Node34 -->
<g id="node35" class="node"><title>Node34</title>
<g id="a_node35"><a xlink:href="ip_8h.html" target="_top" xlink:title="lwip/ip.h">
<polygon fill="white" stroke="black" points="245.5,-672.5 245.5,-691.5 298.5,-691.5 298.5,-672.5 245.5,-672.5"/>
<text text-anchor="middle" x="272" y="-679.5" font-family="Helvetica,sans-Serif" font-size="10.00">lwip/ip.h</text>
</a>
</g>
</g>
<!-- Node33&#45;&gt;Node34 -->
<g id="edge50" class="edge"><title>Node33&#45;&gt;Node34</title>
<path fill="none" stroke="midnightblue" d="M296.211,-728.083C292.242,-720.691 286.475,-709.953 281.565,-700.811"/>
<polygon fill="midnightblue" stroke="midnightblue" points="284.514,-698.905 276.7,-691.751 278.347,-702.217 284.514,-698.905"/>
</g>
<!-- Node34&#45;&gt;Node18 -->
<g id="edge58" class="edge"><title>Node34&#45;&gt;Node18</title>
<path fill="none" stroke="midnightblue" d="M277.257,-672.368C288.265,-654.296 313.92,-612.176 328.458,-588.307"/>
<polygon fill="midnightblue" stroke="midnightblue" points="331.554,-589.953 333.767,-579.591 325.576,-586.311 331.554,-589.953"/>
</g>
<!-- Node34&#45;&gt;Node19 -->
<g id="edge51" class="edge"><title>Node34&#45;&gt;Node19</title>
<path fill="none" stroke="midnightblue" d="M245.223,-678.407C196.117,-671.982 93.3583,-650.339 57,-580 31.0119,-529.723 108.344,-490.174 156.178,-471.232"/>
<polygon fill="midnightblue" stroke="midnightblue" points="157.521,-474.466 165.601,-467.613 155.011,-467.931 157.521,-474.466"/>
</g>
<!-- Node34&#45;&gt;Node24 -->
<g id="edge52" class="edge"><title>Node34&#45;&gt;Node24</title>
<path fill="none" stroke="midnightblue" d="M288.81,-672.296C315.33,-657.489 365.924,-624.608 386,-580 394.788,-560.473 375.983,-541.775 358.582,-529.488"/>
<polygon fill="midnightblue" stroke="midnightblue" points="360.04,-526.257 349.764,-523.677 356.188,-532.102 360.04,-526.257"/>
</g>
<!-- Node35 -->
<g id="node36" class="node"><title>Node35</title>
<g id="a_node36"><a xlink:href="pbuf_8h.html" target="_top" xlink:title="lwip/pbuf.h">
<polygon fill="white" stroke="black" points="66,-560.5 66,-579.5 130,-579.5 130,-560.5 66,-560.5"/>
<text text-anchor="middle" x="98" y="-567.5" font-family="Helvetica,sans-Serif" font-size="10.00">lwip/pbuf.h</text>
</a>
</g>
</g>
<!-- Node34&#45;&gt;Node35 -->
<g id="edge53" class="edge"><title>Node34&#45;&gt;Node35</title>
<path fill="none" stroke="midnightblue" d="M245.464,-673.306C222.458,-665.899 188.884,-653.274 163,-636 142.773,-622.502 123.596,-602.044 111.386,-587.694"/>
<polygon fill="midnightblue" stroke="midnightblue" points="113.811,-585.134 104.736,-579.665 108.419,-589.599 113.811,-585.134"/>
</g>
<!-- Node36 -->
<g id="node37" class="node"><title>Node36</title>
<g id="a_node37"><a xlink:href="err_8h.html" target="_top" xlink:title="lwip/err.h">
<polygon fill="white" stroke="black" points="186,-504.5 186,-523.5 242,-523.5 242,-504.5 186,-504.5"/>
<text text-anchor="middle" x="214" y="-511.5" font-family="Helvetica,sans-Serif" font-size="10.00">lwip/err.h</text>
</a>
</g>
</g>
<!-- Node34&#45;&gt;Node36 -->
<g id="edge59" class="edge"><title>Node34&#45;&gt;Node36</title>
<path fill="none" stroke="midnightblue" d="M268.882,-672.075C259.712,-645.832 232.709,-568.545 220.33,-533.117"/>
<polygon fill="midnightblue" stroke="midnightblue" points="223.596,-531.854 216.994,-523.568 216.988,-534.163 223.596,-531.854"/>
</g>
<!-- Node37 -->
<g id="node38" class="node"><title>Node37</title>
<g id="a_node38"><a xlink:href="netif_8h.html" target="_top" xlink:title="lwip/netif.h">
<polygon fill="white" stroke="black" points="172,-616.5 172,-635.5 236,-635.5 236,-616.5 172,-616.5"/>
<text text-anchor="middle" x="204" y="-623.5" font-family="Helvetica,sans-Serif" font-size="10.00">lwip/netif.h</text>
</a>
</g>
</g>
<!-- Node34&#45;&gt;Node37 -->
<g id="edge60" class="edge"><title>Node34&#45;&gt;Node37</title>
<path fill="none" stroke="midnightblue" d="M261.075,-672.324C250.825,-664.185 235.279,-651.839 222.999,-642.087"/>
<polygon fill="midnightblue" stroke="midnightblue" points="225.132,-639.312 215.124,-635.834 220.779,-644.794 225.132,-639.312"/>
</g>
<!-- Node35&#45;&gt;Node19 -->
<g id="edge54" class="edge"><title>Node35&#45;&gt;Node19</title>
<path fill="none" stroke="midnightblue" d="M103.459,-560.198C111.611,-547.325 127.751,-522.847 144,-504 152.923,-493.65 163.908,-483.033 173.013,-474.713"/>
<polygon fill="midnightblue" stroke="midnightblue" points="175.625,-477.073 180.734,-467.792 170.952,-471.861 175.625,-477.073"/>
</g>
<!-- Node35&#45;&gt;Node36 -->
<g id="edge55" class="edge"><title>Node35&#45;&gt;Node36</title>
<path fill="none" stroke="midnightblue" d="M116.381,-560.444C135.216,-551.675 164.731,-537.935 186.379,-527.858"/>
<polygon fill="midnightblue" stroke="midnightblue" points="188.117,-530.91 195.705,-523.516 185.162,-524.564 188.117,-530.91"/>
</g>
<!-- Node36&#45;&gt;Node19 -->
<g id="edge56" class="edge"><title>Node36&#45;&gt;Node19</title>
<path fill="none" stroke="midnightblue" d="M210.202,-504.083C207.087,-496.77 202.577,-486.181 198.711,-477.103"/>
<polygon fill="midnightblue" stroke="midnightblue" points="201.866,-475.58 194.727,-467.751 195.426,-478.323 201.866,-475.58"/>
</g>
<!-- Node36&#45;&gt;Node22 -->
<g id="edge57" class="edge"><title>Node36&#45;&gt;Node22</title>
<path fill="none" stroke="midnightblue" d="M219.474,-504.452C230.489,-487.173 255.986,-446.773 276,-412 285.069,-396.244 294.833,-377.993 301.738,-364.849"/>
<polygon fill="midnightblue" stroke="midnightblue" points="304.875,-366.403 306.402,-355.919 298.67,-363.162 304.875,-366.403"/>
</g>
<!-- Node37&#45;&gt;Node18 -->
<g id="edge63" class="edge"><title>Node37&#45;&gt;Node18</title>
<path fill="none" stroke="midnightblue" d="M225.391,-616.444C247.707,-607.517 282.903,-593.439 308.208,-583.317"/>
<polygon fill="midnightblue" stroke="midnightblue" points="309.724,-586.48 317.709,-579.516 307.124,-579.981 309.724,-586.48"/>
</g>
<!-- Node37&#45;&gt;Node19 -->
<g id="edge61" class="edge"><title>Node37&#45;&gt;Node19</title>
<path fill="none" stroke="midnightblue" d="M199.761,-616.273C190.65,-596.472 170.533,-546.559 177,-504 178.368,-495.001 181.19,-485.325 183.945,-477.26"/>
<polygon fill="midnightblue" stroke="midnightblue" points="187.265,-478.372 187.4,-467.778 180.688,-475.976 187.265,-478.372"/>
</g>
<!-- Node37&#45;&gt;Node24 -->
<g id="edge64" class="edge"><title>Node37&#45;&gt;Node24</title>
<path fill="none" stroke="midnightblue" d="M214.201,-616.368C236.224,-597.733 288.462,-553.532 316.115,-530.134"/>
<polygon fill="midnightblue" stroke="midnightblue" points="318.473,-532.723 323.847,-523.591 313.952,-527.379 318.473,-532.723"/>
</g>
<!-- Node37&#45;&gt;Node35 -->
<g id="edge65" class="edge"><title>Node37&#45;&gt;Node35</title>
<path fill="none" stroke="midnightblue" d="M186.969,-616.324C169.97,-607.664 143.624,-594.242 124.007,-584.249"/>
<polygon fill="midnightblue" stroke="midnightblue" points="125.488,-581.075 114.988,-579.655 122.31,-587.312 125.488,-581.075"/>
</g>
<!-- Node37&#45;&gt;Node36 -->
<g id="edge62" class="edge"><title>Node37&#45;&gt;Node36</title>
<path fill="none" stroke="midnightblue" d="M204.785,-616.368C206.398,-598.617 210.121,-557.666 212.309,-533.597"/>
<polygon fill="midnightblue" stroke="midnightblue" points="215.799,-533.867 213.219,-523.591 208.828,-533.233 215.799,-533.867"/>
</g>
<!-- Node38&#45;&gt;Node1 -->
<g id="edge68" class="edge"><title>Node38&#45;&gt;Node1</title>
<path fill="none" stroke="midnightblue" d="M415.505,-734.21C488.572,-725.539 712.413,-698.973 805.607,-687.913"/>
<polygon fill="midnightblue" stroke="midnightblue" points="806.266,-691.359 815.784,-686.705 805.441,-684.408 806.266,-691.359"/>
</g>
<!-- Node38&#45;&gt;Node6 -->
<g id="edge67" class="edge"><title>Node38&#45;&gt;Node6</title>
<path fill="none" stroke="midnightblue" d="M368.361,-732.944C283.611,-718.083 0,-665.479 0,-627 0,-627 0,-627 0,-177 0,-101.62 264.029,-76.2812 366.249,-69.296"/>
<polygon fill="midnightblue" stroke="midnightblue" points="366.726,-72.7722 376.474,-68.6219 366.266,-65.7874 366.726,-72.7722"/>
</g>
<!-- Node44 -->
<g id="node45" class="node"><title>Node44</title>
<polygon fill="white" stroke="#bfbfbf" points="1866,-672.5 1866,-691.5 1918,-691.5 1918,-672.5 1866,-672.5"/>
<text text-anchor="middle" x="1892" y="-679.5" font-family="Helvetica,sans-Serif" font-size="10.00">stdarg.h</text>
</g>
<!-- Node43&#45;&gt;Node44 -->
<g id="edge75" class="edge"><title>Node43&#45;&gt;Node44</title>
<path fill="none" stroke="midnightblue" d="M1859.44,-728.083C1864.95,-720.455 1873.03,-709.264 1879.76,-699.941"/>
<polygon fill="midnightblue" stroke="midnightblue" points="1882.66,-701.907 1885.68,-691.751 1876.99,-697.809 1882.66,-701.907"/>
</g>
<!-- Node45 -->
<g id="node46" class="node"><title>Node45</title>
<polygon fill="white" stroke="#bfbfbf" points="1780,-672.5 1780,-691.5 1848,-691.5 1848,-672.5 1780,-672.5"/>
<text text-anchor="middle" x="1814" y="-679.5" font-family="Helvetica,sans-Serif" font-size="10.00">sys/types.h</text>
</g>
<!-- Node43&#45;&gt;Node45 -->
<g id="edge76" class="edge"><title>Node43&#45;&gt;Node45</title>
<path fill="none" stroke="midnightblue" d="M1846.56,-728.083C1841.05,-720.455 1832.97,-709.264 1826.24,-699.941"/>
<polygon fill="midnightblue" stroke="midnightblue" points="1829.01,-697.809 1820.32,-691.751 1823.34,-701.907 1829.01,-697.809"/>
</g>
</g>
</svg>
