<?xml version="1.0" encoding="UTF-8" standalone="no"?>
<!DOCTYPE svg PUBLIC "-//W3C//DTD SVG 1.1//EN"
 "http://www.w3.org/Graphics/SVG/1.1/DTD/svg11.dtd">
<!-- Generated by graphviz version 2.38.0 (20140413.2041)
 -->
<!-- Title: divide_str_by_100 Pages: 1 -->
<svg width="592pt" height="294pt"
 viewBox="0.00 0.00 592.00 294.00" xmlns="http://www.w3.org/2000/svg" xmlns:xlink="http://www.w3.org/1999/xlink">
<g id="graph0" class="graph" transform="scale(1 1) rotate(0) translate(4 290)">
<title>divide_str_by_100</title>
<polygon fill="white" stroke="none" points="-4,4 -4,-290 588,-290 588,4 -4,4"/>
<!-- Node85 -->
<g id="node1" class="node"><title>Node85</title>
<polygon fill="#bfbfbf" stroke="black" points="0,-152.5 0,-171.5 95,-171.5 95,-152.5 0,-152.5"/>
<text text-anchor="middle" x="47.5" y="-159.5" font-family="Helvetica,sans-Serif" font-size="10.00">divide_str_by_100</text>
</g>
<!-- Node86 -->
<g id="node2" class="node"><title>Node86</title>
<g id="a_node2"><a xlink:href="tinyprintf_8c.html#a9738cbc6c538d210941db282e240c7d6" target="_top" xlink:title="tfp_snprintf">
<polygon fill="white" stroke="black" points="131,-152.5 131,-171.5 196,-171.5 196,-152.5 131,-152.5"/>
<text text-anchor="middle" x="163.5" y="-159.5" font-family="Helvetica,sans-Serif" font-size="10.00">tfp_snprintf</text>
</a>
</g>
</g>
<!-- Node85&#45;&gt;Node86 -->
<g id="edge1" class="edge"><title>Node85&#45;&gt;Node86</title>
<path fill="none" stroke="midnightblue" d="M95.1971,-162C103.585,-162 112.28,-162 120.524,-162"/>
<polygon fill="midnightblue" stroke="midnightblue" points="120.668,-165.5 130.668,-162 120.668,-158.5 120.668,-165.5"/>
</g>
<!-- Node87 -->
<g id="node3" class="node"><title>Node87</title>
<g id="a_node3"><a xlink:href="tinyprintf_8c.html#ac8c8a66133cf0d7009c0d73b55311a44" target="_top" xlink:title="tfp_vsnprintf">
<polygon fill="white" stroke="black" points="232,-152.5 232,-171.5 303,-171.5 303,-152.5 232,-152.5"/>
<text text-anchor="middle" x="267.5" y="-159.5" font-family="Helvetica,sans-Serif" font-size="10.00">tfp_vsnprintf</text>
</a>
</g>
</g>
<!-- Node86&#45;&gt;Node87 -->
<g id="edge2" class="edge"><title>Node86&#45;&gt;Node87</title>
<path fill="none" stroke="midnightblue" d="M196.214,-162C204.369,-162 213.295,-162 221.967,-162"/>
<polygon fill="midnightblue" stroke="midnightblue" points="221.97,-165.5 231.97,-162 221.97,-158.5 221.97,-165.5"/>
</g>
<!-- Node88 -->
<g id="node4" class="node"><title>Node88</title>
<g id="a_node4"><a xlink:href="tinyprintf_8c.html#a919051024b2d729e34a54648b3f2462d" target="_top" xlink:title="_vsnprintf_putcf">
<polygon fill="white" stroke="black" points="339,-171.5 339,-190.5 425,-190.5 425,-171.5 339,-171.5"/>
<text text-anchor="middle" x="382" y="-178.5" font-family="Helvetica,sans-Serif" font-size="10.00">_vsnprintf_putcf</text>
</a>
</g>
</g>
<!-- Node87&#45;&gt;Node88 -->
<g id="edge3" class="edge"><title>Node87&#45;&gt;Node88</title>
<path fill="none" stroke="midnightblue" d="M303.172,-167.856C311.246,-169.219 320.019,-170.701 328.668,-172.162"/>
<polygon fill="midnightblue" stroke="midnightblue" points="328.272,-175.644 338.715,-173.859 329.438,-168.742 328.272,-175.644"/>
</g>
<!-- Node89 -->
<g id="node5" class="node"><title>Node89</title>
<g id="a_node5"><a xlink:href="tinyprintf_8c.html#a5877e42444463efc71a91b5fe76a6145" target="_top" xlink:title="tfp_format">
<polygon fill="white" stroke="black" points="351.5,-133.5 351.5,-152.5 412.5,-152.5 412.5,-133.5 351.5,-133.5"/>
<text text-anchor="middle" x="382" y="-140.5" font-family="Helvetica,sans-Serif" font-size="10.00">tfp_format</text>
</a>
</g>
</g>
<!-- Node87&#45;&gt;Node89 -->
<g id="edge4" class="edge"><title>Node87&#45;&gt;Node89</title>
<path fill="none" stroke="midnightblue" d="M303.172,-156.144C315.176,-154.117 328.726,-151.829 341.115,-149.736"/>
<polygon fill="midnightblue" stroke="midnightblue" points="341.913,-153.151 351.19,-148.035 340.747,-146.249 341.913,-153.151"/>
</g>
<!-- Node90 -->
<g id="node6" class="node"><title>Node90</title>
<g id="a_node6"><a xlink:href="tinyprintf_8c.html#aa97593a5e53af85b608ad0910db92d77" target="_top" xlink:title="a2u">
<polygon fill="white" stroke="black" points="469,-266.5 469,-285.5 501,-285.5 501,-266.5 469,-266.5"/>
<text text-anchor="middle" x="485" y="-273.5" font-family="Helvetica,sans-Serif" font-size="10.00">a2u</text>
</a>
</g>
</g>
<!-- Node89&#45;&gt;Node90 -->
<g id="edge5" class="edge"><title>Node89&#45;&gt;Node90</title>
<path fill="none" stroke="midnightblue" d="M412.089,-152.5C416.841,-155.022 421.384,-158.15 425,-162 455.912,-194.911 434.718,-220.285 461,-257 461.452,-257.632 461.93,-258.255 462.43,-258.868"/>
<polygon fill="midnightblue" stroke="midnightblue" points="460.206,-261.593 469.754,-266.184 465.153,-256.641 460.206,-261.593"/>
</g>
<!-- Node92 -->
<g id="node8" class="node"><title>Node92</title>
<g id="a_node8"><a xlink:href="tinyprintf_8c.html#a90f9fd8f2133cda7f50be8d67823405c" target="_top" xlink:title="i2a">
<polygon fill="white" stroke="black" points="470.5,-228.5 470.5,-247.5 499.5,-247.5 499.5,-228.5 470.5,-228.5"/>
<text text-anchor="middle" x="485" y="-235.5" font-family="Helvetica,sans-Serif" font-size="10.00">i2a</text>
</a>
</g>
</g>
<!-- Node89&#45;&gt;Node92 -->
<g id="edge7" class="edge"><title>Node89&#45;&gt;Node92</title>
<path fill="none" stroke="midnightblue" d="M410.043,-152.617C415.316,-155.192 420.574,-158.31 425,-162 446.589,-180.002 443.22,-192.229 461,-214 462.725,-216.112 464.597,-218.262 466.502,-220.364"/>
<polygon fill="midnightblue" stroke="midnightblue" points="464.363,-223.195 473.78,-228.051 469.446,-218.383 464.363,-223.195"/>
</g>
<!-- Node93 -->
<g id="node9" class="node"><title>Node93</title>
<g id="a_node9"><a xlink:href="tinyprintf_8c.html#ac87ff66a592723f55692eaf8e3f19df8" target="_top" xlink:title="ui2a">
<polygon fill="white" stroke="black" points="547,-209.5 547,-228.5 582,-228.5 582,-209.5 547,-209.5"/>
<text text-anchor="middle" x="564.5" y="-216.5" font-family="Helvetica,sans-Serif" font-size="10.00">ui2a</text>
</a>
</g>
</g>
<!-- Node89&#45;&gt;Node93 -->
<g id="edge14" class="edge"><title>Node89&#45;&gt;Node93</title>
<path fill="none" stroke="midnightblue" d="M404.916,-152.612C411.419,-155.545 418.531,-158.833 425,-162 441.249,-169.954 444.483,-173.618 461,-181 486.462,-192.381 516.467,-203.217 537.41,-210.384"/>
<polygon fill="midnightblue" stroke="midnightblue" points="536.309,-213.706 546.903,-213.594 538.551,-207.075 536.309,-213.706"/>
</g>
<!-- Node94 -->
<g id="node10" class="node"><title>Node94</title>
<g id="a_node10"><a xlink:href="tinyprintf_8c.html#afebb7696337c3f599b5e8db35c560684" target="_top" xlink:title="li2a">
<polygon fill="white" stroke="black" points="469,-152.5 469,-171.5 501,-171.5 501,-152.5 469,-152.5"/>
<text text-anchor="middle" x="485" y="-159.5" font-family="Helvetica,sans-Serif" font-size="10.00">li2a</text>
</a>
</g>
</g>
<!-- Node89&#45;&gt;Node94 -->
<g id="edge9" class="edge"><title>Node89&#45;&gt;Node94</title>
<path fill="none" stroke="midnightblue" d="M412.757,-148.598C427.41,-151.354 444.882,-154.641 458.856,-157.27"/>
<polygon fill="midnightblue" stroke="midnightblue" points="458.282,-160.723 468.756,-159.132 459.576,-153.844 458.282,-160.723"/>
</g>
<!-- Node95 -->
<g id="node11" class="node"><title>Node95</title>
<g id="a_node11"><a xlink:href="tinyprintf_8c.html#a1d61347854a8c290d59b4a21efcefd75" target="_top" xlink:title="uli2a">
<polygon fill="white" stroke="black" points="546,-123.5 546,-142.5 583,-142.5 583,-123.5 546,-123.5"/>
<text text-anchor="middle" x="564.5" y="-130.5" font-family="Helvetica,sans-Serif" font-size="10.00">uli2a</text>
</a>
</g>
</g>
<!-- Node89&#45;&gt;Node95 -->
<g id="edge15" class="edge"><title>Node89&#45;&gt;Node95</title>
<path fill="none" stroke="midnightblue" d="M412.806,-141.349C446.811,-139.465 502.006,-136.407 535.318,-134.561"/>
<polygon fill="midnightblue" stroke="midnightblue" points="535.923,-138.033 545.715,-133.985 535.536,-131.044 535.923,-138.033"/>
</g>
<!-- Node96 -->
<g id="node12" class="node"><title>Node96</title>
<g id="a_node12"><a xlink:href="tinyprintf_8c.html#a49c6d2b3d4088012f2c1fe344eef69f3" target="_top" xlink:title="lli2a">
<polygon fill="white" stroke="black" points="468,-76.5 468,-95.5 502,-95.5 502,-76.5 468,-76.5"/>
<text text-anchor="middle" x="485" y="-83.5" font-family="Helvetica,sans-Serif" font-size="10.00">lli2a</text>
</a>
</g>
</g>
<!-- Node89&#45;&gt;Node96 -->
<g id="edge11" class="edge"><title>Node89&#45;&gt;Node96</title>
<path fill="none" stroke="midnightblue" d="M400.133,-133.331C416.237,-124.243 440.533,-110.531 458.837,-100.201"/>
<polygon fill="midnightblue" stroke="midnightblue" points="460.798,-103.113 467.787,-95.1501 457.358,-97.017 460.798,-103.113"/>
</g>
<!-- Node97 -->
<g id="node13" class="node"><title>Node97</title>
<g id="a_node13"><a xlink:href="tinyprintf_8c.html#abcf035dd576671b0cc897de9dd8c75b0" target="_top" xlink:title="ulli2a">
<polygon fill="white" stroke="black" points="545,-66.5 545,-85.5 584,-85.5 584,-66.5 545,-66.5"/>
<text text-anchor="middle" x="564.5" y="-73.5" font-family="Helvetica,sans-Serif" font-size="10.00">ulli2a</text>
</a>
</g>
</g>
<!-- Node89&#45;&gt;Node97 -->
<g id="edge16" class="edge"><title>Node89&#45;&gt;Node97</title>
<path fill="none" stroke="midnightblue" d="M389.062,-133.42C400.593,-116.213 427.548,-80.6026 461,-67 484.749,-57.3431 514.084,-61.3422 535.278,-66.721"/>
<polygon fill="midnightblue" stroke="midnightblue" points="534.396,-70.1084 544.968,-69.4185 536.273,-63.3649 534.396,-70.1084"/>
</g>
<!-- Node98 -->
<g id="node14" class="node"><title>Node98</title>
<g id="a_node14"><a xlink:href="tinyprintf_8c.html#a6252dbfebb2c8783c4e3107d551082dd" target="_top" xlink:title="putchw">
<polygon fill="white" stroke="black" points="461,-0.5 461,-19.5 509,-19.5 509,-0.5 461,-0.5"/>
<text text-anchor="middle" x="485" y="-7.5" font-family="Helvetica,sans-Serif" font-size="10.00">putchw</text>
</a>
</g>
</g>
<!-- Node89&#45;&gt;Node98 -->
<g id="edge13" class="edge"><title>Node89&#45;&gt;Node98</title>
<path fill="none" stroke="midnightblue" d="M389.24,-133.331C401.935,-113.885 432.025,-68.9202 461,-34 462.935,-31.6683 465.043,-29.2836 467.173,-26.9657"/>
<polygon fill="midnightblue" stroke="midnightblue" points="469.907,-29.1701 474.273,-19.5166 464.84,-24.3405 469.907,-29.1701"/>
</g>
<!-- Node91 -->
<g id="node7" class="node"><title>Node91</title>
<g id="a_node7"><a xlink:href="tinyprintf_8c.html#aa853a0c5ba64fa2546d488b86192e7e3" target="_top" xlink:title="a2d">
<polygon fill="white" stroke="black" points="548.5,-266.5 548.5,-285.5 580.5,-285.5 580.5,-266.5 548.5,-266.5"/>
<text text-anchor="middle" x="564.5" y="-273.5" font-family="Helvetica,sans-Serif" font-size="10.00">a2d</text>
</a>
</g>
</g>
<!-- Node90&#45;&gt;Node91 -->
<g id="edge6" class="edge"><title>Node90&#45;&gt;Node91</title>
<path fill="none" stroke="midnightblue" d="M501.312,-276C511.888,-276 526.197,-276 538.423,-276"/>
<polygon fill="midnightblue" stroke="midnightblue" points="538.484,-279.5 548.484,-276 538.484,-272.5 538.484,-279.5"/>
</g>
<!-- Node92&#45;&gt;Node93 -->
<g id="edge8" class="edge"><title>Node92&#45;&gt;Node93</title>
<path fill="none" stroke="midnightblue" d="M499.855,-234.603C510.128,-232.085 524.448,-228.574 536.904,-225.52"/>
<polygon fill="midnightblue" stroke="midnightblue" points="537.919,-228.875 546.798,-223.095 536.253,-222.076 537.919,-228.875"/>
</g>
<!-- Node94&#45;&gt;Node95 -->
<g id="edge10" class="edge"><title>Node94&#45;&gt;Node95</title>
<path fill="none" stroke="midnightblue" d="M501.312,-156.271C511.306,-152.531 524.632,-147.544 536.385,-143.146"/>
<polygon fill="midnightblue" stroke="midnightblue" points="537.64,-146.414 545.779,-139.631 535.187,-139.858 537.64,-146.414"/>
</g>
<!-- Node96&#45;&gt;Node97 -->
<g id="edge12" class="edge"><title>Node96&#45;&gt;Node97</title>
<path fill="none" stroke="midnightblue" d="M502.058,-83.928C511.466,-82.7141 523.628,-81.1447 534.647,-79.723"/>
<polygon fill="midnightblue" stroke="midnightblue" points="535.263,-83.1725 544.733,-78.4215 534.368,-76.2301 535.263,-83.1725"/>
</g>
</g>
</svg>
