<?xml version="1.0" encoding="UTF-8" standalone="no"?>
<!DOCTYPE svg PUBLIC "-//W3C//DTD SVG 1.1//EN"
 "http://www.w3.org/Graphics/SVG/1.1/DTD/svg11.dtd">
<!-- Generated by graphviz version 2.38.0 (20140413.2041)
 -->
<!-- Title: query_string_unescape Pages: 1 -->
<svg width="509pt" height="66pt"
 viewBox="0.00 0.00 509.00 66.00" xmlns="http://www.w3.org/2000/svg" xmlns:xlink="http://www.w3.org/1999/xlink">
<g id="graph0" class="graph" transform="scale(1 1) rotate(0) translate(4 62)">
<title>query_string_unescape</title>
<polygon fill="white" stroke="none" points="-4,4 -4,-62 505,-62 505,4 -4,4"/>
<!-- Node244 -->
<g id="node1" class="node"><title>Node244</title>
<polygon fill="#bfbfbf" stroke="black" points="0,-19.5 0,-38.5 117,-38.5 117,-19.5 0,-19.5"/>
<text text-anchor="middle" x="58.5" y="-26.5" font-family="Helvetica,sans-Serif" font-size="10.00">query_string_unescape</text>
</g>
<!-- Node245 -->
<g id="node2" class="node"><title>Node245</title>
<g id="a_node2"><a xlink:href="config_8h.html#abc69a1c540768c7c86b5d56c6d4cabd7" target="_top" xlink:title="cfg_save_ssid_pwd">
<polygon fill="white" stroke="black" points="153,-19.5 153,-38.5 256,-38.5 256,-19.5 153,-19.5"/>
<text text-anchor="middle" x="204.5" y="-26.5" font-family="Helvetica,sans-Serif" font-size="10.00">cfg_save_ssid_pwd</text>
</a>
</g>
</g>
<!-- Node244&#45;&gt;Node245 -->
<g id="edge1" class="edge"><title>Node244&#45;&gt;Node245</title>
<path fill="none" stroke="midnightblue" d="M127.519,-29C136.001,-29 144.558,-29 152.715,-29"/>
<polygon fill="midnightblue" stroke="midnightblue" points="127.241,-25.5001 117.241,-29 127.241,-32.5001 127.241,-25.5001"/>
</g>
<!-- Node246 -->
<g id="node3" class="node"><title>Node246</title>
<g id="a_node3"><a xlink:href="cron_8c.html#a2782af03df9b913cfa565a0770e1afe1" target="_top" xlink:title="minute_timer_func">
<polygon fill="white" stroke="black" points="303.5,-38.5 303.5,-57.5 400.5,-57.5 400.5,-38.5 303.5,-38.5"/>
<text text-anchor="middle" x="352" y="-45.5" font-family="Helvetica,sans-Serif" font-size="10.00">minute_timer_func</text>
</a>
</g>
</g>
<!-- Node245&#45;&gt;Node246 -->
<g id="edge2" class="edge"><title>Node245&#45;&gt;Node246</title>
<path fill="none" stroke="midnightblue" d="M266.563,-36.9738C278.84,-38.577 291.573,-40.2398 303.314,-41.7729"/>
<polygon fill="midnightblue" stroke="midnightblue" points="266.758,-33.4697 256.389,-35.6453 265.851,-40.4107 266.758,-33.4697"/>
</g>
<!-- Node248 -->
<g id="node5" class="node"><title>Node248</title>
<g id="a_node5"><a xlink:href="mqtt__rpc_8h.html#a651f41878c47fd58b8ae08a49692d5d0" target="_top" xlink:title="mqtt_rpc_set_ssid_pwd">
<polygon fill="white" stroke="black" points="292,-0.5 292,-19.5 412,-19.5 412,-0.5 292,-0.5"/>
<text text-anchor="middle" x="352" y="-7.5" font-family="Helvetica,sans-Serif" font-size="10.00">mqtt_rpc_set_ssid_pwd</text>
</a>
</g>
</g>
<!-- Node245&#45;&gt;Node248 -->
<g id="edge4" class="edge"><title>Node245&#45;&gt;Node248</title>
<path fill="none" stroke="midnightblue" d="M266.507,-21.0334C274.915,-19.9354 283.539,-18.8094 291.911,-17.716"/>
<polygon fill="midnightblue" stroke="midnightblue" points="265.851,-17.5893 256.389,-22.3547 266.758,-24.5303 265.851,-17.5893"/>
</g>
<!-- Node247 -->
<g id="node4" class="node"><title>Node247</title>
<g id="a_node4"><a xlink:href="cron_8h.html#ae130c5973bad35b56776750c7a34db12" target="_top" xlink:title="cron_init">
<polygon fill="white" stroke="black" points="448,-38.5 448,-57.5 501,-57.5 501,-38.5 448,-38.5"/>
<text text-anchor="middle" x="474.5" y="-45.5" font-family="Helvetica,sans-Serif" font-size="10.00">cron_init</text>
</a>
</g>
</g>
<!-- Node246&#45;&gt;Node247 -->
<g id="edge3" class="edge"><title>Node246&#45;&gt;Node247</title>
<path fill="none" stroke="midnightblue" d="M410.904,-48C423.816,-48 436.873,-48 447.696,-48"/>
<polygon fill="midnightblue" stroke="midnightblue" points="410.625,-44.5001 400.625,-48 410.625,-51.5001 410.625,-44.5001"/>
</g>
</g>
</svg>
