<?xml version="1.0" encoding="UTF-8" standalone="no"?>
<!DOCTYPE svg PUBLIC "-//W3C//DTD SVG 1.1//EN"
 "http://www.w3.org/Graphics/SVG/1.1/DTD/svg11.dtd">
<!-- Generated by graphviz version 2.38.0 (20140413.2041)
 -->
<!-- Title: wifi_reconnect_timer_func Pages: 1 -->
<svg width="1360pt" height="487pt"
 viewBox="0.00 0.00 1360.00 487.00" xmlns="http://www.w3.org/2000/svg" xmlns:xlink="http://www.w3.org/1999/xlink">
<g id="graph0" class="graph" transform="scale(1 1) rotate(0) translate(4 483)">
<title>wifi_reconnect_timer_func</title>
<polygon fill="white" stroke="none" points="-4,4 -4,-483 1356,-483 1356,4 -4,4"/>
<!-- Node182 -->
<g id="node1" class="node"><title>Node182</title>
<polygon fill="#bfbfbf" stroke="black" points="0,-145.5 0,-164.5 131,-164.5 131,-145.5 0,-145.5"/>
<text text-anchor="middle" x="65.5" y="-152.5" font-family="Helvetica,sans-Serif" font-size="10.00">wifi_reconnect_timer_func</text>
</g>
<!-- Node183 -->
<g id="node2" class="node"><title>Node183</title>
<g id="a_node2"><a xlink:href="led_8c.html#a7cd1d03b4baad9cb20bf1a43046f61a2" target="_top" xlink:title="led_stop_pattern">
<polygon fill="white" stroke="black" points="661,-120.5 661,-139.5 750,-139.5 750,-120.5 661,-120.5"/>
<text text-anchor="middle" x="705.5" y="-127.5" font-family="Helvetica,sans-Serif" font-size="10.00">led_stop_pattern</text>
</a>
</g>
</g>
<!-- Node182&#45;&gt;Node183 -->
<g id="edge1" class="edge"><title>Node182&#45;&gt;Node183</title>
<path fill="none" stroke="midnightblue" d="M131.451,-155.991C173.765,-156.392 230.168,-156.466 280,-155 413.301,-151.078 569.842,-140.243 650.454,-134.204"/>
<polygon fill="midnightblue" stroke="midnightblue" points="651.135,-137.663 660.844,-133.421 650.609,-130.683 651.135,-137.663"/>
</g>
<!-- Node186 -->
<g id="node5" class="node"><title>Node186</title>
<g id="a_node5"><a xlink:href="wifi_8h.html#ac81e93c618b4a9528fb7689c85188763" target="_top" xlink:title="set_my_auto_connect">
<polygon fill="white" stroke="black" points="167,-126.5 167,-145.5 280,-145.5 280,-126.5 167,-126.5"/>
<text text-anchor="middle" x="223.5" y="-133.5" font-family="Helvetica,sans-Serif" font-size="10.00">set_my_auto_connect</text>
</a>
</g>
</g>
<!-- Node182&#45;&gt;Node186 -->
<g id="edge4" class="edge"><title>Node182&#45;&gt;Node186</title>
<path fill="none" stroke="midnightblue" d="M131.303,-147.107C139.635,-146.093 148.174,-145.053 156.524,-144.036"/>
<polygon fill="midnightblue" stroke="midnightblue" points="157.087,-147.493 166.59,-142.81 156.24,-140.544 157.087,-147.493"/>
</g>
<!-- Node187 -->
<g id="node6" class="node"><title>Node187</title>
<g id="a_node6"><a xlink:href="wifi_8h.html#a0be23fd8148c6a3abf21c739359bed52" target="_top" xlink:title="wifi_default">
<polygon fill="white" stroke="black" points="672.5,-371.5 672.5,-390.5 738.5,-390.5 738.5,-371.5 672.5,-371.5"/>
<text text-anchor="middle" x="705.5" y="-378.5" font-family="Helvetica,sans-Serif" font-size="10.00">wifi_default</text>
</a>
</g>
</g>
<!-- Node182&#45;&gt;Node187 -->
<g id="edge5" class="edge"><title>Node182&#45;&gt;Node187</title>
<path fill="none" stroke="midnightblue" d="M72.5526,-164.729C86.549,-186.468 123.318,-239.395 167,-269 281.856,-346.844 324.64,-348.357 461,-374 530.506,-387.071 613.111,-386.052 662.041,-383.774"/>
<polygon fill="midnightblue" stroke="midnightblue" points="662.439,-387.258 672.25,-383.257 662.086,-380.267 662.439,-387.258"/>
</g>
<!-- Node203 -->
<g id="node22" class="node"><title>Node203</title>
<g id="a_node22"><a xlink:href="user__interface_8h.html#a77323412cda193d0b8f18652e4d08e77" target="_top" xlink:title="wifi_set_opmode_current">
<polygon fill="white" stroke="black" points="804,-459.5 804,-478.5 929,-478.5 929,-459.5 804,-459.5"/>
<text text-anchor="middle" x="866.5" y="-466.5" font-family="Helvetica,sans-Serif" font-size="10.00">wifi_set_opmode_current</text>
</a>
</g>
</g>
<!-- Node182&#45;&gt;Node203 -->
<g id="edge32" class="edge"><title>Node182&#45;&gt;Node203</title>
<path fill="none" stroke="midnightblue" d="M70.1588,-164.587C90.7505,-216.742 197.444,-464 369.5,-464 369.5,-464 369.5,-464 535,-464 624.243,-464 727.026,-465.845 793.964,-467.294"/>
<polygon fill="midnightblue" stroke="midnightblue" points="793.908,-470.793 803.983,-467.513 794.062,-463.795 793.908,-470.793"/>
</g>
<!-- Node208 -->
<g id="node27" class="node"><title>Node208</title>
<g id="a_node27"><a xlink:href="wifi_8h.html#a55dddd4ef1983d81df7459b1abb93f9f" target="_top" xlink:title="wifi_fallback_force\l_reset_state">
<polygon fill="white" stroke="black" points="174.5,-77 174.5,-107 272.5,-107 272.5,-77 174.5,-77"/>
<text text-anchor="start" x="182.5" y="-95" font-family="Helvetica,sans-Serif" font-size="10.00">wifi_fallback_force</text>
<text text-anchor="middle" x="223.5" y="-84" font-family="Helvetica,sans-Serif" font-size="10.00">_reset_state</text>
</a>
</g>
</g>
<!-- Node182&#45;&gt;Node208 -->
<g id="edge29" class="edge"><title>Node182&#45;&gt;Node208</title>
<path fill="none" stroke="midnightblue" d="M90.193,-145.432C112.86,-136.278 147.675,-122.218 175.903,-110.818"/>
<polygon fill="midnightblue" stroke="midnightblue" points="177.234,-114.055 185.196,-107.065 174.613,-107.564 177.234,-114.055"/>
</g>
<!-- Node209 -->
<g id="node28" class="node"><title>Node209</title>
<g id="a_node28"><a xlink:href="user__interface_8h.html#a48d756265c0c1c35ba1fba102efe4d0a" target="_top" xlink:title="wifi_get_opmode">
<polygon fill="white" stroke="black" points="178.5,-38.5 178.5,-57.5 268.5,-57.5 268.5,-38.5 178.5,-38.5"/>
<text text-anchor="middle" x="223.5" y="-45.5" font-family="Helvetica,sans-Serif" font-size="10.00">wifi_get_opmode</text>
</a>
</g>
</g>
<!-- Node182&#45;&gt;Node209 -->
<g id="edge30" class="edge"><title>Node182&#45;&gt;Node209</title>
<path fill="none" stroke="midnightblue" d="M75.2904,-145.329C91.7402,-127.739 128.963,-90.2713 167,-68 171.146,-65.5726 175.636,-63.3633 180.204,-61.3737"/>
<polygon fill="midnightblue" stroke="midnightblue" points="181.631,-64.5723 189.607,-57.5986 179.023,-58.0762 181.631,-64.5723"/>
</g>
<!-- Node210 -->
<g id="node29" class="node"><title>Node210</title>
<g id="a_node29"><a xlink:href="wifi_8h.html#aa472c6b7c4b18d171792da3df1be502e" target="_top" xlink:title="wifi_scan_is_running">
<polygon fill="white" stroke="black" points="170,-0.5 170,-19.5 277,-19.5 277,-0.5 170,-0.5"/>
<text text-anchor="middle" x="223.5" y="-7.5" font-family="Helvetica,sans-Serif" font-size="10.00">wifi_scan_is_running</text>
</a>
</g>
</g>
<!-- Node182&#45;&gt;Node210 -->
<g id="edge31" class="edge"><title>Node182&#45;&gt;Node210</title>
<path fill="none" stroke="midnightblue" d="M71.668,-145.241C84.5776,-121.773 120.562,-61.7107 167,-29 169.706,-27.0939 172.619,-25.3655 175.644,-23.8005"/>
<polygon fill="midnightblue" stroke="midnightblue" points="177.291,-26.8967 184.955,-19.5811 174.402,-20.5209 177.291,-26.8967"/>
</g>
<!-- Node211 -->
<g id="node30" class="node"><title>Node211</title>
<g id="a_node30"><a xlink:href="wifi_8h.html#a2d61a3854e1f7d67dcbcb0c7da23c8cc" target="_top" xlink:title="wifi_start_scan">
<polygon fill="white" stroke="black" points="182,-240.5 182,-259.5 265,-259.5 265,-240.5 182,-240.5"/>
<text text-anchor="middle" x="223.5" y="-247.5" font-family="Helvetica,sans-Serif" font-size="10.00">wifi_start_scan</text>
</a>
</g>
</g>
<!-- Node182&#45;&gt;Node211 -->
<g id="edge33" class="edge"><title>Node182&#45;&gt;Node211</title>
<path fill="none" stroke="midnightblue" d="M82.3166,-164.632C109.53,-181.204 165.4,-215.228 197.787,-234.951"/>
<polygon fill="midnightblue" stroke="midnightblue" points="196.28,-238.131 206.642,-240.343 199.921,-232.152 196.28,-238.131"/>
</g>
<!-- Node184 -->
<g id="node3" class="node"><title>Node184</title>
<g id="a_node3"><a xlink:href="led_8c.html#a7ef0b27e501c77cd25b8bb7a2de6d8bd" target="_top" xlink:title="led_off">
<polygon fill="white" stroke="black" points="995,-120.5 995,-139.5 1041,-139.5 1041,-120.5 995,-120.5"/>
<text text-anchor="middle" x="1018" y="-127.5" font-family="Helvetica,sans-Serif" font-size="10.00">led_off</text>
</a>
</g>
</g>
<!-- Node183&#45;&gt;Node184 -->
<g id="edge2" class="edge"><title>Node183&#45;&gt;Node184</title>
<path fill="none" stroke="midnightblue" d="M750.001,-130C813.19,-130 928.921,-130 984.938,-130"/>
<polygon fill="midnightblue" stroke="midnightblue" points="984.995,-133.5 994.995,-130 984.995,-126.5 984.995,-133.5"/>
</g>
<!-- Node185 -->
<g id="node4" class="node"><title>Node185</title>
<g id="a_node4"><a xlink:href="gpio_8h.html#a83bac74ff5b2158e0c86da73ada29718" target="_top" xlink:title="gpio_output_set">
<polygon fill="white" stroke="black" points="1107,-139.5 1107,-158.5 1193,-158.5 1193,-139.5 1107,-139.5"/>
<text text-anchor="middle" x="1150" y="-146.5" font-family="Helvetica,sans-Serif" font-size="10.00">gpio_output_set</text>
</a>
</g>
</g>
<!-- Node184&#45;&gt;Node185 -->
<g id="edge3" class="edge"><title>Node184&#45;&gt;Node185</title>
<path fill="none" stroke="midnightblue" d="M1041.05,-133.223C1056.35,-135.459 1077.39,-138.535 1096.84,-141.377"/>
<polygon fill="midnightblue" stroke="midnightblue" points="1096.43,-144.853 1106.83,-142.836 1097.44,-137.927 1096.43,-144.853"/>
</g>
<!-- Node188 -->
<g id="node7" class="node"><title>Node188</title>
<g id="a_node7"><a xlink:href="tinyprintf_8c.html#a9738cbc6c538d210941db282e240c7d6" target="_top" xlink:title="tfp_snprintf">
<polygon fill="white" stroke="black" points="834,-257.5 834,-276.5 899,-276.5 899,-257.5 834,-257.5"/>
<text text-anchor="middle" x="866.5" y="-264.5" font-family="Helvetica,sans-Serif" font-size="10.00">tfp_snprintf</text>
</a>
</g>
</g>
<!-- Node187&#45;&gt;Node188 -->
<g id="edge6" class="edge"><title>Node187&#45;&gt;Node188</title>
<path fill="none" stroke="midnightblue" d="M738.722,-376.332C748.995,-373.546 759.808,-369.099 768,-362 796.246,-337.523 775.754,-310.477 804,-286 809.748,-281.019 816.787,-277.343 824.024,-274.631"/>
<polygon fill="midnightblue" stroke="midnightblue" points="825.437,-277.855 833.912,-271.498 823.322,-271.182 825.437,-277.855"/>
</g>
<!-- Node201 -->
<g id="node20" class="node"><title>Node201</title>
<g id="a_node20"><a xlink:href="wifi_8c.html#a2091cde351b02dbc8bd9d52273488bba" target="_top" xlink:title="wifi_get_rssi_timer_func">
<polygon fill="white" stroke="black" points="805.5,-219.5 805.5,-238.5 927.5,-238.5 927.5,-219.5 805.5,-219.5"/>
<text text-anchor="middle" x="866.5" y="-226.5" font-family="Helvetica,sans-Serif" font-size="10.00">wifi_get_rssi_timer_func</text>
</a>
</g>
</g>
<!-- Node187&#45;&gt;Node201 -->
<g id="edge22" class="edge"><title>Node187&#45;&gt;Node201</title>
<path fill="none" stroke="midnightblue" d="M738.667,-377.126C749.177,-374.407 760.153,-369.798 768,-362 805.688,-324.547 766.312,-285.453 804,-248 805.457,-246.553 807.021,-245.215 808.67,-243.979"/>
<polygon fill="midnightblue" stroke="midnightblue" points="810.785,-246.79 817.515,-238.607 807.151,-240.806 810.785,-246.79"/>
</g>
<!-- Node187&#45;&gt;Node203 -->
<g id="edge24" class="edge"><title>Node187&#45;&gt;Node203</title>
<path fill="none" stroke="midnightblue" d="M738.649,-386.74C748.688,-389.59 759.379,-393.804 768,-400 790.235,-415.982 781.765,-434.018 804,-450 806.677,-451.924 809.554,-453.657 812.548,-455.217"/>
<polygon fill="midnightblue" stroke="midnightblue" points="811.251,-458.472 821.805,-459.399 814.133,-452.092 811.251,-458.472"/>
</g>
<!-- Node204 -->
<g id="node23" class="node"><title>Node204</title>
<g id="a_node23"><a xlink:href="user__interface_8h.html#ab03cd1e7e4ad93cd241c94bd57430384" target="_top" xlink:title="wifi_station_connect">
<polygon fill="white" stroke="black" points="813.5,-295.5 813.5,-314.5 919.5,-314.5 919.5,-295.5 813.5,-295.5"/>
<text text-anchor="middle" x="866.5" y="-302.5" font-family="Helvetica,sans-Serif" font-size="10.00">wifi_station_connect</text>
</a>
</g>
</g>
<!-- Node187&#45;&gt;Node204 -->
<g id="edge25" class="edge"><title>Node187&#45;&gt;Node204</title>
<path fill="none" stroke="midnightblue" d="M738.768,-374.301C748.597,-371.418 759.136,-367.427 768,-362 787.568,-350.02 784.521,-337.124 804,-325 808.075,-322.464 812.504,-320.217 817.055,-318.233"/>
<polygon fill="midnightblue" stroke="midnightblue" points="818.467,-321.439 826.494,-314.523 815.907,-314.924 818.467,-321.439"/>
</g>
<!-- Node205 -->
<g id="node24" class="node"><title>Node205</title>
<g id="a_node24"><a xlink:href="user__interface_8h.html#aba69e9646b1f29d8a72972787400f4f1" target="_top" xlink:title="wifi_station_disconnect">
<polygon fill="white" stroke="black" points="807,-421.5 807,-440.5 926,-440.5 926,-421.5 807,-421.5"/>
<text text-anchor="middle" x="866.5" y="-428.5" font-family="Helvetica,sans-Serif" font-size="10.00">wifi_station_disconnect</text>
</a>
</g>
</g>
<!-- Node187&#45;&gt;Node205 -->
<g id="edge26" class="edge"><title>Node187&#45;&gt;Node205</title>
<path fill="none" stroke="midnightblue" d="M737.829,-390.532C747.515,-393.519 758.211,-396.857 768,-400 784.058,-405.156 787.942,-406.844 804,-412 810.577,-414.112 817.563,-416.311 824.378,-418.434"/>
<polygon fill="midnightblue" stroke="midnightblue" points="823.583,-421.852 834.171,-421.468 825.655,-415.165 823.583,-421.852"/>
</g>
<!-- Node206 -->
<g id="node25" class="node"><title>Node206</title>
<g id="a_node25"><a xlink:href="user__interface_8h.html#a1f0be53caaf81058292a1e6559bdaa36" target="_top" xlink:title="wifi_station_get_config">
<polygon fill="white" stroke="black" points="808.5,-383.5 808.5,-402.5 924.5,-402.5 924.5,-383.5 808.5,-383.5"/>
<text text-anchor="middle" x="866.5" y="-390.5" font-family="Helvetica,sans-Serif" font-size="10.00">wifi_station_get_config</text>
</a>
</g>
</g>
<!-- Node187&#45;&gt;Node206 -->
<g id="edge27" class="edge"><title>Node187&#45;&gt;Node206</title>
<path fill="none" stroke="midnightblue" d="M738.676,-383.428C755.832,-384.723 777.611,-386.367 798.259,-387.925"/>
<polygon fill="midnightblue" stroke="midnightblue" points="798.045,-391.419 808.28,-388.682 798.572,-384.439 798.045,-391.419"/>
</g>
<!-- Node207 -->
<g id="node26" class="node"><title>Node207</title>
<g id="a_node26"><a xlink:href="user__interface_8h.html#afd1188add491eee183d4ee2daa37dca6" target="_top" xlink:title="wifi_station_set_config\l_current">
<polygon fill="white" stroke="black" points="808.5,-334 808.5,-364 924.5,-364 924.5,-334 808.5,-334"/>
<text text-anchor="start" x="816.5" y="-352" font-family="Helvetica,sans-Serif" font-size="10.00">wifi_station_set_config</text>
<text text-anchor="middle" x="866.5" y="-341" font-family="Helvetica,sans-Serif" font-size="10.00">_current</text>
</a>
</g>
</g>
<!-- Node187&#45;&gt;Node207 -->
<g id="edge28" class="edge"><title>Node187&#45;&gt;Node207</title>
<path fill="none" stroke="midnightblue" d="M738.676,-374.524C755.832,-371.072 777.611,-366.688 798.259,-362.533"/>
<polygon fill="midnightblue" stroke="midnightblue" points="799.167,-365.92 808.28,-360.516 797.786,-359.058 799.167,-365.92"/>
</g>
<!-- Node189 -->
<g id="node8" class="node"><title>Node189</title>
<g id="a_node8"><a xlink:href="tinyprintf_8c.html#ac8c8a66133cf0d7009c0d73b55311a44" target="_top" xlink:title="tfp_vsnprintf">
<polygon fill="white" stroke="black" points="982.5,-257.5 982.5,-276.5 1053.5,-276.5 1053.5,-257.5 982.5,-257.5"/>
<text text-anchor="middle" x="1018" y="-264.5" font-family="Helvetica,sans-Serif" font-size="10.00">tfp_vsnprintf</text>
</a>
</g>
</g>
<!-- Node188&#45;&gt;Node189 -->
<g id="edge7" class="edge"><title>Node188&#45;&gt;Node189</title>
<path fill="none" stroke="midnightblue" d="M899.205,-267C920.484,-267 948.823,-267 972.371,-267"/>
<polygon fill="midnightblue" stroke="midnightblue" points="972.473,-270.5 982.473,-267 972.473,-263.5 972.473,-270.5"/>
</g>
<!-- Node190 -->
<g id="node9" class="node"><title>Node190</title>
<g id="a_node9"><a xlink:href="tinyprintf_8c.html#a919051024b2d729e34a54648b3f2462d" target="_top" xlink:title="_vsnprintf_putcf">
<polygon fill="white" stroke="black" points="1107,-276.5 1107,-295.5 1193,-295.5 1193,-276.5 1107,-276.5"/>
<text text-anchor="middle" x="1150" y="-283.5" font-family="Helvetica,sans-Serif" font-size="10.00">_vsnprintf_putcf</text>
</a>
</g>
</g>
<!-- Node189&#45;&gt;Node190 -->
<g id="edge8" class="edge"><title>Node189&#45;&gt;Node190</title>
<path fill="none" stroke="midnightblue" d="M1053.84,-272.092C1066.91,-274.002 1082.07,-276.218 1096.4,-278.313"/>
<polygon fill="midnightblue" stroke="midnightblue" points="1096.25,-281.827 1106.65,-279.81 1097.26,-274.9 1096.25,-281.827"/>
</g>
<!-- Node191 -->
<g id="node10" class="node"><title>Node191</title>
<g id="a_node10"><a xlink:href="tinyprintf_8c.html#a5877e42444463efc71a91b5fe76a6145" target="_top" xlink:title="tfp_format">
<polygon fill="white" stroke="black" points="1119.5,-238.5 1119.5,-257.5 1180.5,-257.5 1180.5,-238.5 1119.5,-238.5"/>
<text text-anchor="middle" x="1150" y="-245.5" font-family="Helvetica,sans-Serif" font-size="10.00">tfp_format</text>
</a>
</g>
</g>
<!-- Node189&#45;&gt;Node191 -->
<g id="edge9" class="edge"><title>Node189&#45;&gt;Node191</title>
<path fill="none" stroke="midnightblue" d="M1053.84,-261.908C1070.94,-259.409 1091.62,-256.387 1109.33,-253.799"/>
<polygon fill="midnightblue" stroke="midnightblue" points="1109.97,-257.242 1119.36,-252.332 1108.96,-250.315 1109.97,-257.242"/>
</g>
<!-- Node192 -->
<g id="node11" class="node"><title>Node192</title>
<g id="a_node11"><a xlink:href="tinyprintf_8c.html#aa97593a5e53af85b608ad0910db92d77" target="_top" xlink:title="a2u">
<polygon fill="white" stroke="black" points="1237,-371.5 1237,-390.5 1269,-390.5 1269,-371.5 1237,-371.5"/>
<text text-anchor="middle" x="1253" y="-378.5" font-family="Helvetica,sans-Serif" font-size="10.00">a2u</text>
</a>
</g>
</g>
<!-- Node191&#45;&gt;Node192 -->
<g id="edge10" class="edge"><title>Node191&#45;&gt;Node192</title>
<path fill="none" stroke="midnightblue" d="M1180.03,-257.555C1184.79,-260.072 1189.35,-263.183 1193,-267 1222.78,-298.131 1205.67,-320.784 1229,-357 1230.48,-359.292 1232.19,-361.556 1234.01,-363.724"/>
<polygon fill="midnightblue" stroke="midnightblue" points="1231.84,-366.528 1241.21,-371.464 1236.96,-361.759 1231.84,-366.528"/>
</g>
<!-- Node194 -->
<g id="node13" class="node"><title>Node194</title>
<g id="a_node13"><a xlink:href="tinyprintf_8c.html#a90f9fd8f2133cda7f50be8d67823405c" target="_top" xlink:title="i2a">
<polygon fill="white" stroke="black" points="1238.5,-295.5 1238.5,-314.5 1267.5,-314.5 1267.5,-295.5 1238.5,-295.5"/>
<text text-anchor="middle" x="1253" y="-302.5" font-family="Helvetica,sans-Serif" font-size="10.00">i2a</text>
</a>
</g>
</g>
<!-- Node191&#45;&gt;Node194 -->
<g id="edge12" class="edge"><title>Node191&#45;&gt;Node194</title>
<path fill="none" stroke="midnightblue" d="M1173.97,-257.655C1180.23,-260.485 1186.96,-263.709 1193,-267 1205.54,-273.827 1218.96,-282.366 1229.83,-289.62"/>
<polygon fill="midnightblue" stroke="midnightblue" points="1228.04,-292.636 1238.29,-295.345 1231.97,-286.839 1228.04,-292.636"/>
</g>
<!-- Node195 -->
<g id="node14" class="node"><title>Node195</title>
<g id="a_node14"><a xlink:href="tinyprintf_8c.html#ac87ff66a592723f55692eaf8e3f19df8" target="_top" xlink:title="ui2a">
<polygon fill="white" stroke="black" points="1315,-314.5 1315,-333.5 1350,-333.5 1350,-314.5 1315,-314.5"/>
<text text-anchor="middle" x="1332.5" y="-321.5" font-family="Helvetica,sans-Serif" font-size="10.00">ui2a</text>
</a>
</g>
</g>
<!-- Node191&#45;&gt;Node195 -->
<g id="edge19" class="edge"><title>Node191&#45;&gt;Node195</title>
<path fill="none" stroke="midnightblue" d="M1178.6,-257.691C1183.72,-260.235 1188.77,-263.322 1193,-267 1215.6,-286.67 1202.76,-309.537 1229,-324 1252.17,-336.771 1283,-334.708 1304.78,-330.734"/>
<polygon fill="midnightblue" stroke="midnightblue" points="1305.58,-334.141 1314.67,-328.686 1304.16,-327.287 1305.58,-334.141"/>
</g>
<!-- Node196 -->
<g id="node15" class="node"><title>Node196</title>
<g id="a_node15"><a xlink:href="tinyprintf_8c.html#afebb7696337c3f599b5e8db35c560684" target="_top" xlink:title="li2a">
<polygon fill="white" stroke="black" points="1237,-219.5 1237,-238.5 1269,-238.5 1269,-219.5 1237,-219.5"/>
<text text-anchor="middle" x="1253" y="-226.5" font-family="Helvetica,sans-Serif" font-size="10.00">li2a</text>
</a>
</g>
</g>
<!-- Node191&#45;&gt;Node196 -->
<g id="edge14" class="edge"><title>Node191&#45;&gt;Node196</title>
<path fill="none" stroke="midnightblue" d="M1180.76,-242.402C1195.41,-239.646 1212.88,-236.359 1226.86,-233.73"/>
<polygon fill="midnightblue" stroke="midnightblue" points="1227.58,-237.156 1236.76,-231.868 1226.28,-230.277 1227.58,-237.156"/>
</g>
<!-- Node197 -->
<g id="node16" class="node"><title>Node197</title>
<g id="a_node16"><a xlink:href="tinyprintf_8c.html#a1d61347854a8c290d59b4a21efcefd75" target="_top" xlink:title="uli2a">
<polygon fill="white" stroke="black" points="1314,-228.5 1314,-247.5 1351,-247.5 1351,-228.5 1314,-228.5"/>
<text text-anchor="middle" x="1332.5" y="-235.5" font-family="Helvetica,sans-Serif" font-size="10.00">uli2a</text>
</a>
</g>
</g>
<!-- Node191&#45;&gt;Node197 -->
<g id="edge20" class="edge"><title>Node191&#45;&gt;Node197</title>
<path fill="none" stroke="midnightblue" d="M1180.6,-249.51C1206.18,-250.455 1244.1,-250.993 1277,-248 1285.85,-247.194 1295.42,-245.667 1304.03,-244.044"/>
<polygon fill="midnightblue" stroke="midnightblue" points="1304.82,-247.455 1313.94,-242.059 1303.45,-240.591 1304.82,-247.455"/>
</g>
<!-- Node198 -->
<g id="node17" class="node"><title>Node198</title>
<g id="a_node17"><a xlink:href="tinyprintf_8c.html#a49c6d2b3d4088012f2c1fe344eef69f3" target="_top" xlink:title="lli2a">
<polygon fill="white" stroke="black" points="1236,-143.5 1236,-162.5 1270,-162.5 1270,-143.5 1236,-143.5"/>
<text text-anchor="middle" x="1253" y="-150.5" font-family="Helvetica,sans-Serif" font-size="10.00">lli2a</text>
</a>
</g>
</g>
<!-- Node191&#45;&gt;Node198 -->
<g id="edge16" class="edge"><title>Node191&#45;&gt;Node198</title>
<path fill="none" stroke="midnightblue" d="M1161.43,-238.191C1178.68,-221.965 1213.34,-189.362 1234.43,-169.529"/>
<polygon fill="midnightblue" stroke="midnightblue" points="1236.89,-172.015 1241.78,-162.614 1232.1,-166.916 1236.89,-172.015"/>
</g>
<!-- Node199 -->
<g id="node18" class="node"><title>Node199</title>
<g id="a_node18"><a xlink:href="tinyprintf_8c.html#abcf035dd576671b0cc897de9dd8c75b0" target="_top" xlink:title="ulli2a">
<polygon fill="white" stroke="black" points="1313,-171.5 1313,-190.5 1352,-190.5 1352,-171.5 1313,-171.5"/>
<text text-anchor="middle" x="1332.5" y="-178.5" font-family="Helvetica,sans-Serif" font-size="10.00">ulli2a</text>
</a>
</g>
</g>
<!-- Node191&#45;&gt;Node199 -->
<g id="edge21" class="edge"><title>Node191&#45;&gt;Node199</title>
<path fill="none" stroke="midnightblue" d="M1168.26,-238.486C1183.81,-230.185 1207.47,-218.216 1229,-210 1253.39,-200.694 1282.04,-192.833 1302.85,-187.654"/>
<polygon fill="midnightblue" stroke="midnightblue" points="1303.77,-191.031 1312.66,-185.264 1302.12,-184.23 1303.77,-191.031"/>
</g>
<!-- Node200 -->
<g id="node19" class="node"><title>Node200</title>
<g id="a_node19"><a xlink:href="tinyprintf_8c.html#a6252dbfebb2c8783c4e3107d551082dd" target="_top" xlink:title="putchw">
<polygon fill="white" stroke="black" points="1229,-105.5 1229,-124.5 1277,-124.5 1277,-105.5 1229,-105.5"/>
<text text-anchor="middle" x="1253" y="-112.5" font-family="Helvetica,sans-Serif" font-size="10.00">putchw</text>
</a>
</g>
</g>
<!-- Node191&#45;&gt;Node200 -->
<g id="edge18" class="edge"><title>Node191&#45;&gt;Node200</title>
<path fill="none" stroke="midnightblue" d="M1156.27,-238.495C1167.83,-218.081 1196.98,-169.058 1229,-134 1229.73,-133.197 1230.5,-132.398 1231.29,-131.607"/>
<polygon fill="midnightblue" stroke="midnightblue" points="1233.7,-134.153 1238.78,-124.855 1229.01,-128.955 1233.7,-134.153"/>
</g>
<!-- Node193 -->
<g id="node12" class="node"><title>Node193</title>
<g id="a_node12"><a xlink:href="tinyprintf_8c.html#aa853a0c5ba64fa2546d488b86192e7e3" target="_top" xlink:title="a2d">
<polygon fill="white" stroke="black" points="1316.5,-371.5 1316.5,-390.5 1348.5,-390.5 1348.5,-371.5 1316.5,-371.5"/>
<text text-anchor="middle" x="1332.5" y="-378.5" font-family="Helvetica,sans-Serif" font-size="10.00">a2d</text>
</a>
</g>
</g>
<!-- Node192&#45;&gt;Node193 -->
<g id="edge11" class="edge"><title>Node192&#45;&gt;Node193</title>
<path fill="none" stroke="midnightblue" d="M1269.31,-381C1279.89,-381 1294.2,-381 1306.42,-381"/>
<polygon fill="midnightblue" stroke="midnightblue" points="1306.48,-384.5 1316.48,-381 1306.48,-377.5 1306.48,-384.5"/>
</g>
<!-- Node194&#45;&gt;Node195 -->
<g id="edge13" class="edge"><title>Node194&#45;&gt;Node195</title>
<path fill="none" stroke="midnightblue" d="M1267.86,-308.397C1278.13,-310.915 1292.45,-314.426 1304.9,-317.48"/>
<polygon fill="midnightblue" stroke="midnightblue" points="1304.25,-320.924 1314.8,-319.905 1305.92,-314.125 1304.25,-320.924"/>
</g>
<!-- Node196&#45;&gt;Node197 -->
<g id="edge15" class="edge"><title>Node196&#45;&gt;Node197</title>
<path fill="none" stroke="midnightblue" d="M1269.31,-230.778C1279.11,-231.916 1292.1,-233.425 1303.68,-234.769"/>
<polygon fill="midnightblue" stroke="midnightblue" points="1303.44,-238.265 1313.78,-235.942 1304.25,-231.312 1303.44,-238.265"/>
</g>
<!-- Node198&#45;&gt;Node199 -->
<g id="edge17" class="edge"><title>Node198&#45;&gt;Node199</title>
<path fill="none" stroke="midnightblue" d="M1270.06,-158.802C1279.66,-162.271 1292.13,-166.776 1303.33,-170.821"/>
<polygon fill="midnightblue" stroke="midnightblue" points="1302.14,-174.113 1312.73,-174.22 1304.52,-167.53 1302.14,-174.113"/>
</g>
<!-- Node202 -->
<g id="node21" class="node"><title>Node202</title>
<g id="a_node21"><a xlink:href="user__interface_8h.html#af8572ea9f6e1b7785e9df6941932bb3d" target="_top" xlink:title="wifi_station_get_rssi">
<polygon fill="white" stroke="black" points="965,-219.5 965,-238.5 1071,-238.5 1071,-219.5 965,-219.5"/>
<text text-anchor="middle" x="1018" y="-226.5" font-family="Helvetica,sans-Serif" font-size="10.00">wifi_station_get_rssi</text>
</a>
</g>
</g>
<!-- Node201&#45;&gt;Node202 -->
<g id="edge23" class="edge"><title>Node201&#45;&gt;Node202</title>
<path fill="none" stroke="midnightblue" d="M927.876,-229C936.613,-229 945.623,-229 954.402,-229"/>
<polygon fill="midnightblue" stroke="midnightblue" points="954.573,-232.5 964.573,-229 954.573,-225.5 954.573,-232.5"/>
</g>
<!-- Node212 -->
<g id="node31" class="node"><title>Node212</title>
<g id="a_node31"><a xlink:href="wifi_8c.html#ae7011f25db54676b86fefe2caa450a4a" target="_top" xlink:title="wifi_scan_timer_func">
<polygon fill="white" stroke="black" points="316,-278.5 316,-297.5 425,-297.5 425,-278.5 316,-278.5"/>
<text text-anchor="middle" x="370.5" y="-285.5" font-family="Helvetica,sans-Serif" font-size="10.00">wifi_scan_timer_func</text>
</a>
</g>
</g>
<!-- Node211&#45;&gt;Node212 -->
<g id="edge34" class="edge"><title>Node211&#45;&gt;Node212</title>
<path fill="none" stroke="midnightblue" d="M261.09,-259.589C279.965,-264.536 303.186,-270.621 323.288,-275.889"/>
<polygon fill="midnightblue" stroke="midnightblue" points="322.613,-279.33 333.173,-278.48 324.387,-272.559 322.613,-279.33"/>
</g>
<!-- Node213 -->
<g id="node32" class="node"><title>Node213</title>
<g id="a_node32"><a xlink:href="wifi_8c.html#a79205b29f65bdd821ad9452bdbf0b747" target="_top" xlink:title="wifi_get_rssi">
<polygon fill="white" stroke="black" points="498.5,-240.5 498.5,-259.5 569.5,-259.5 569.5,-240.5 498.5,-240.5"/>
<text text-anchor="middle" x="534" y="-247.5" font-family="Helvetica,sans-Serif" font-size="10.00">wifi_get_rssi</text>
</a>
</g>
</g>
<!-- Node212&#45;&gt;Node213 -->
<g id="edge35" class="edge"><title>Node212&#45;&gt;Node213</title>
<path fill="none" stroke="midnightblue" d="M412.253,-278.411C435.474,-272.947 464.598,-266.095 488.425,-260.488"/>
<polygon fill="midnightblue" stroke="midnightblue" points="489.347,-263.867 498.28,-258.169 487.744,-257.053 489.347,-263.867"/>
</g>
<!-- Node214 -->
<g id="node33" class="node"><title>Node214</title>
<g id="a_node33"><a xlink:href="wifi_8c.html#a1ef15ecd9e69811f6db10215c7196281" target="_top" xlink:title="wifi_scan_done_cb">
<polygon fill="white" stroke="black" points="484,-202.5 484,-221.5 584,-221.5 584,-202.5 484,-202.5"/>
<text text-anchor="middle" x="534" y="-209.5" font-family="Helvetica,sans-Serif" font-size="10.00">wifi_scan_done_cb</text>
</a>
</g>
</g>
<!-- Node212&#45;&gt;Node214 -->
<g id="edge36" class="edge"><title>Node212&#45;&gt;Node214</title>
<path fill="none" stroke="midnightblue" d="M383.84,-278.374C400.487,-265.816 431.467,-243.926 461,-231 466.463,-228.609 472.294,-226.463 478.184,-224.551"/>
<polygon fill="midnightblue" stroke="midnightblue" points="479.539,-227.798 488.098,-221.553 477.513,-221.098 479.539,-227.798"/>
</g>
<!-- Node221 -->
<g id="node40" class="node"><title>Node221</title>
<g id="a_node40"><a xlink:href="wifi_8c.html#a2d61a3854e1f7d67dcbcb0c7da23c8cc" target="_top" xlink:title="wifi_start_scan">
<polygon fill="white" stroke="black" points="664,-333.5 664,-352.5 747,-352.5 747,-333.5 664,-333.5"/>
<text text-anchor="middle" x="705.5" y="-340.5" font-family="Helvetica,sans-Serif" font-size="10.00">wifi_start_scan</text>
</a>
</g>
</g>
<!-- Node212&#45;&gt;Node221 -->
<g id="edge64" class="edge"><title>Node212&#45;&gt;Node221</title>
<path fill="none" stroke="midnightblue" d="M390.501,-297.584C407.605,-309.54 434.117,-328.166 461,-336 525.417,-354.771 603.552,-349.499 653.637,-344.925"/>
<polygon fill="midnightblue" stroke="midnightblue" points="654.252,-348.383 663.884,-343.968 653.602,-341.413 654.252,-348.383"/>
</g>
<!-- Node223 -->
<g id="node42" class="node"><title>Node223</title>
<g id="a_node42"><a xlink:href="wifi_8c.html#a189ec83a0503a6fc45b102014a80403b" target="_top" xlink:title="wifi_scan_timeout_timer_func">
<polygon fill="white" stroke="black" points="461,-316.5 461,-335.5 607,-335.5 607,-316.5 461,-316.5"/>
<text text-anchor="middle" x="534" y="-323.5" font-family="Helvetica,sans-Serif" font-size="10.00">wifi_scan_timeout_timer_func</text>
</a>
</g>
</g>
<!-- Node212&#45;&gt;Node223 -->
<g id="edge62" class="edge"><title>Node212&#45;&gt;Node223</title>
<path fill="none" stroke="midnightblue" d="M412.253,-297.589C433.661,-302.626 460.086,-308.844 482.753,-314.177"/>
<polygon fill="midnightblue" stroke="midnightblue" points="482.004,-317.596 492.54,-316.48 483.607,-310.783 482.004,-317.596"/>
</g>
<!-- Node224 -->
<g id="node43" class="node"><title>Node224</title>
<g id="a_node43"><a xlink:href="user__interface_8h.html#ac80b0607b1cb20c161c681581c998626" target="_top" xlink:title="wifi_station_scan">
<polygon fill="white" stroke="black" points="488,-278.5 488,-297.5 580,-297.5 580,-278.5 488,-278.5"/>
<text text-anchor="middle" x="534" y="-285.5" font-family="Helvetica,sans-Serif" font-size="10.00">wifi_station_scan</text>
</a>
</g>
</g>
<!-- Node212&#45;&gt;Node224 -->
<g id="edge65" class="edge"><title>Node212&#45;&gt;Node224</title>
<path fill="none" stroke="midnightblue" d="M425.277,-288C442.07,-288 460.622,-288 477.529,-288"/>
<polygon fill="midnightblue" stroke="midnightblue" points="477.814,-291.5 487.814,-288 477.814,-284.5 477.814,-291.5"/>
</g>
<!-- Node214&#45;&gt;Node183 -->
<g id="edge42" class="edge"><title>Node214&#45;&gt;Node183</title>
<path fill="none" stroke="midnightblue" d="M575.491,-202.44C586.233,-198.875 597.482,-194.149 607,-188 626.814,-175.2 623.046,-161.58 643,-149 646.309,-146.914 649.862,-145.043 653.532,-143.368"/>
<polygon fill="midnightblue" stroke="midnightblue" points="654.872,-146.601 662.819,-139.595 652.237,-140.116 654.872,-146.601"/>
</g>
<!-- Node215 -->
<g id="node34" class="node"><title>Node215</title>
<g id="a_node34"><a xlink:href="led_8c.html#aa00afefe8ba48ccd7df635fbc7d4c9fc" target="_top" xlink:title="led_pattern_a">
<polygon fill="white" stroke="black" points="668,-158.5 668,-177.5 743,-177.5 743,-158.5 668,-158.5"/>
<text text-anchor="middle" x="705.5" y="-165.5" font-family="Helvetica,sans-Serif" font-size="10.00">led_pattern_a</text>
</a>
</g>
</g>
<!-- Node214&#45;&gt;Node215 -->
<g id="edge37" class="edge"><title>Node214&#45;&gt;Node215</title>
<path fill="none" stroke="midnightblue" d="M571.779,-202.453C597.1,-195.88 630.94,-187.095 658.112,-180.042"/>
<polygon fill="midnightblue" stroke="midnightblue" points="658.993,-183.429 667.793,-177.529 657.234,-176.654 658.993,-183.429"/>
</g>
<!-- Node218 -->
<g id="node37" class="node"><title>Node218</title>
<g id="a_node37"><a xlink:href="wifi_8c.html#a0be23fd8148c6a3abf21c739359bed52" target="_top" xlink:title="wifi_default">
<polygon fill="white" stroke="black" points="672.5,-295.5 672.5,-314.5 738.5,-314.5 738.5,-295.5 672.5,-295.5"/>
<text text-anchor="middle" x="705.5" y="-302.5" font-family="Helvetica,sans-Serif" font-size="10.00">wifi_default</text>
</a>
</g>
</g>
<!-- Node214&#45;&gt;Node218 -->
<g id="edge43" class="edge"><title>Node214&#45;&gt;Node218</title>
<path fill="none" stroke="midnightblue" d="M584.049,-219.741C592.187,-222.442 600.183,-226.086 607,-231 630.699,-248.085 619.662,-268.426 643,-286 648.83,-290.391 655.689,-293.777 662.671,-296.387"/>
<polygon fill="midnightblue" stroke="midnightblue" points="661.592,-299.717 672.185,-299.485 663.76,-293.061 661.592,-299.717"/>
</g>
<!-- Node219 -->
<g id="node38" class="node"><title>Node219</title>
<g id="a_node38"><a xlink:href="wifi_8c.html#ac4389ba687a71cbb616f05b02427eb2a" target="_top" xlink:title="wifi_fallback">
<polygon fill="white" stroke="black" points="670,-409.5 670,-428.5 741,-428.5 741,-409.5 670,-409.5"/>
<text text-anchor="middle" x="705.5" y="-416.5" font-family="Helvetica,sans-Serif" font-size="10.00">wifi_fallback</text>
</a>
</g>
</g>
<!-- Node214&#45;&gt;Node219 -->
<g id="edge51" class="edge"><title>Node214&#45;&gt;Node219</title>
<path fill="none" stroke="midnightblue" d="M584.277,-217.266C592.779,-220.186 600.846,-224.542 607,-231 659.981,-286.594 591.188,-343.315 643,-400 647.711,-405.154 653.786,-408.924 660.279,-411.678"/>
<polygon fill="midnightblue" stroke="midnightblue" points="659.385,-415.073 669.98,-415.03 661.671,-408.456 659.385,-415.073"/>
</g>
<!-- Node220 -->
<g id="node39" class="node"><title>Node220</title>
<g id="a_node39"><a xlink:href="wifi_8c.html#a5ca49e6386831cffe58dbcc5d8845cc5" target="_top" xlink:title="wifi_scan_result_cb\l_unregister">
<polygon fill="white" stroke="black" points="654,-246 654,-276 757,-276 757,-246 654,-246"/>
<text text-anchor="start" x="662" y="-264" font-family="Helvetica,sans-Serif" font-size="10.00">wifi_scan_result_cb</text>
<text text-anchor="middle" x="705.5" y="-253" font-family="Helvetica,sans-Serif" font-size="10.00">_unregister</text>
</a>
</g>
</g>
<!-- Node214&#45;&gt;Node220 -->
<g id="edge58" class="edge"><title>Node214&#45;&gt;Node220</title>
<path fill="none" stroke="midnightblue" d="M572.448,-221.575C583.592,-224.507 595.812,-227.804 607,-231 620.027,-234.721 633.975,-238.898 647.13,-242.925"/>
<polygon fill="midnightblue" stroke="midnightblue" points="646.42,-246.368 657.007,-245.965 648.48,-239.678 646.42,-246.368"/>
</g>
<!-- Node214&#45;&gt;Node221 -->
<g id="edge59" class="edge"><title>Node214&#45;&gt;Node221</title>
<path fill="none" stroke="midnightblue" d="M584.229,-218.335C592.536,-221.172 600.544,-225.225 607,-231 640.035,-260.548 610.587,-293.77 643,-324 646.402,-327.173 650.323,-329.816 654.505,-332.018"/>
<polygon fill="midnightblue" stroke="midnightblue" points="653.413,-335.36 663.977,-336.168 656.223,-328.949 653.413,-335.36"/>
</g>
<!-- Node222 -->
<g id="node41" class="node"><title>Node222</title>
<g id="a_node41"><a xlink:href="user__interface_8h.html#ad61f32757e670d1a2feb7e445992fd1a" target="_top" xlink:title="wifi_station_get_connect\l_status">
<polygon fill="white" stroke="black" points="643,-197 643,-227 768,-227 768,-197 643,-197"/>
<text text-anchor="start" x="651" y="-215" font-family="Helvetica,sans-Serif" font-size="10.00">wifi_station_get_connect</text>
<text text-anchor="middle" x="705.5" y="-204" font-family="Helvetica,sans-Serif" font-size="10.00">_status</text>
</a>
</g>
</g>
<!-- Node214&#45;&gt;Node222 -->
<g id="edge61" class="edge"><title>Node214&#45;&gt;Node222</title>
<path fill="none" stroke="midnightblue" d="M584.026,-212C599.248,-212 616.352,-212 632.786,-212"/>
<polygon fill="midnightblue" stroke="midnightblue" points="632.91,-215.5 642.91,-212 632.91,-208.5 632.91,-215.5"/>
</g>
<!-- Node216 -->
<g id="node35" class="node"><title>Node216</title>
<g id="a_node35"><a xlink:href="led_8c.html#af6a79b211d188e643a4f1cf7552ac7ee" target="_top" xlink:title="led_blinker_timer_func">
<polygon fill="white" stroke="black" points="809.5,-158.5 809.5,-177.5 923.5,-177.5 923.5,-158.5 809.5,-158.5"/>
<text text-anchor="middle" x="866.5" y="-165.5" font-family="Helvetica,sans-Serif" font-size="10.00">led_blinker_timer_func</text>
</a>
</g>
</g>
<!-- Node215&#45;&gt;Node216 -->
<g id="edge38" class="edge"><title>Node215&#45;&gt;Node216</title>
<path fill="none" stroke="midnightblue" d="M743.377,-168C760.019,-168 780.197,-168 799.318,-168"/>
<polygon fill="midnightblue" stroke="midnightblue" points="799.498,-171.5 809.498,-168 799.498,-164.5 799.498,-171.5"/>
</g>
<!-- Node216&#45;&gt;Node184 -->
<g id="edge39" class="edge"><title>Node216&#45;&gt;Node184</title>
<path fill="none" stroke="midnightblue" d="M905.225,-158.411C929.789,-152.167 961.49,-144.11 984.854,-138.171"/>
<polygon fill="midnightblue" stroke="midnightblue" points="985.799,-141.542 994.628,-135.686 984.074,-134.758 985.799,-141.542"/>
</g>
<!-- Node217 -->
<g id="node36" class="node"><title>Node217</title>
<g id="a_node36"><a xlink:href="led_8c.html#a0a23edee5e1db0cd2928c18a42ffe96f" target="_top" xlink:title="led_on">
<polygon fill="white" stroke="black" points="995.5,-158.5 995.5,-177.5 1040.5,-177.5 1040.5,-158.5 995.5,-158.5"/>
<text text-anchor="middle" x="1018" y="-165.5" font-family="Helvetica,sans-Serif" font-size="10.00">led_on</text>
</a>
</g>
</g>
<!-- Node216&#45;&gt;Node217 -->
<g id="edge40" class="edge"><title>Node216&#45;&gt;Node217</title>
<path fill="none" stroke="midnightblue" d="M923.594,-168C944.413,-168 967.294,-168 985.2,-168"/>
<polygon fill="midnightblue" stroke="midnightblue" points="985.377,-171.5 995.377,-168 985.377,-164.5 985.377,-171.5"/>
</g>
<!-- Node217&#45;&gt;Node185 -->
<g id="edge41" class="edge"><title>Node217&#45;&gt;Node185</title>
<path fill="none" stroke="midnightblue" d="M1040.76,-164.82C1056.09,-162.58 1077.28,-159.482 1096.86,-156.621"/>
<polygon fill="midnightblue" stroke="midnightblue" points="1097.52,-160.062 1106.91,-155.152 1096.51,-153.135 1097.52,-160.062"/>
</g>
<!-- Node218&#45;&gt;Node188 -->
<g id="edge44" class="edge"><title>Node218&#45;&gt;Node188</title>
<path fill="none" stroke="midnightblue" d="M738.676,-297.31C763.298,-291.426 797.441,-283.266 824.099,-276.894"/>
<polygon fill="midnightblue" stroke="midnightblue" points="825.002,-280.277 833.914,-274.549 823.375,-273.469 825.002,-280.277"/>
</g>
<!-- Node218&#45;&gt;Node201 -->
<g id="edge45" class="edge"><title>Node218&#45;&gt;Node201</title>
<path fill="none" stroke="midnightblue" d="M738.812,-298.372C748.643,-295.493 759.173,-291.485 768,-286 787.76,-273.721 784.24,-260.279 804,-248 807.374,-245.903 810.997,-244.023 814.734,-242.338"/>
<polygon fill="midnightblue" stroke="midnightblue" points="816.208,-245.518 824.184,-238.545 813.6,-239.022 816.208,-245.518"/>
</g>
<!-- Node218&#45;&gt;Node203 -->
<g id="edge46" class="edge"><title>Node218&#45;&gt;Node203</title>
<path fill="none" stroke="midnightblue" d="M738.789,-308.753C749.31,-311.461 760.261,-316.094 768,-324 808.741,-365.62 763.259,-408.38 804,-450 805.436,-451.467 806.983,-452.822 808.618,-454.073"/>
<polygon fill="midnightblue" stroke="midnightblue" points="807.062,-457.225 817.41,-459.497 810.737,-451.268 807.062,-457.225"/>
</g>
<!-- Node218&#45;&gt;Node204 -->
<g id="edge47" class="edge"><title>Node218&#45;&gt;Node204</title>
<path fill="none" stroke="midnightblue" d="M738.676,-305C757.163,-305 781.019,-305 803.043,-305"/>
<polygon fill="midnightblue" stroke="midnightblue" points="803.341,-308.5 813.341,-305 803.341,-301.5 803.341,-308.5"/>
</g>
<!-- Node218&#45;&gt;Node205 -->
<g id="edge48" class="edge"><title>Node218&#45;&gt;Node205</title>
<path fill="none" stroke="midnightblue" d="M738.63,-309.33C749.014,-312.09 759.92,-316.607 768,-324 799.175,-352.527 772.825,-383.473 804,-412 805.708,-413.563 807.543,-414.997 809.472,-416.314"/>
<polygon fill="midnightblue" stroke="midnightblue" points="808.008,-419.506 818.439,-421.363 811.442,-413.407 808.008,-419.506"/>
</g>
<!-- Node218&#45;&gt;Node206 -->
<g id="edge49" class="edge"><title>Node218&#45;&gt;Node206</title>
<path fill="none" stroke="midnightblue" d="M738.649,-310.74C748.688,-313.59 759.379,-317.804 768,-324 790.235,-339.982 781.765,-358.018 804,-374 806.677,-375.924 809.554,-377.657 812.548,-379.217"/>
<polygon fill="midnightblue" stroke="midnightblue" points="811.251,-382.472 821.805,-383.399 814.133,-376.092 811.251,-382.472"/>
</g>
<!-- Node218&#45;&gt;Node207 -->
<g id="edge50" class="edge"><title>Node218&#45;&gt;Node207</title>
<path fill="none" stroke="midnightblue" d="M738.676,-313.904C756.696,-318.891 779.817,-325.289 801.37,-331.253"/>
<polygon fill="midnightblue" stroke="midnightblue" points="800.568,-334.663 811.139,-333.957 802.435,-327.916 800.568,-334.663"/>
</g>
<!-- Node219&#45;&gt;Node188 -->
<g id="edge52" class="edge"><title>Node219&#45;&gt;Node188</title>
<path fill="none" stroke="midnightblue" d="M741.222,-414.429C750.931,-411.641 760.787,-407.168 768,-400 805.688,-362.547 766.312,-323.453 804,-286 809.629,-280.406 816.868,-276.453 824.39,-273.662"/>
<polygon fill="midnightblue" stroke="midnightblue" points="825.443,-277 833.969,-270.711 823.382,-270.31 825.443,-277"/>
</g>
<!-- Node219&#45;&gt;Node203 -->
<g id="edge53" class="edge"><title>Node219&#45;&gt;Node203</title>
<path fill="none" stroke="midnightblue" d="M736.351,-428.561C755.639,-434.721 781.288,-442.881 804,-450 810.663,-452.088 817.737,-454.289 824.625,-456.423"/>
<polygon fill="midnightblue" stroke="midnightblue" points="823.926,-459.871 834.513,-459.481 825.994,-453.183 823.926,-459.871"/>
</g>
<!-- Node219&#45;&gt;Node204 -->
<g id="edge54" class="edge"><title>Node219&#45;&gt;Node204</title>
<path fill="none" stroke="midnightblue" d="M741.252,-413.583C750.739,-410.769 760.467,-406.494 768,-400 796.005,-375.858 776.174,-349.348 804,-325 806.493,-322.819 809.227,-320.875 812.115,-319.142"/>
<polygon fill="midnightblue" stroke="midnightblue" points="813.82,-322.202 821.15,-314.553 810.65,-315.961 813.82,-322.202"/>
</g>
<!-- Node219&#45;&gt;Node205 -->
<g id="edge55" class="edge"><title>Node219&#45;&gt;Node205</title>
<path fill="none" stroke="midnightblue" d="M741.001,-421.604C757.412,-422.842 777.637,-424.369 796.979,-425.829"/>
<polygon fill="midnightblue" stroke="midnightblue" points="796.752,-429.321 806.988,-426.584 797.279,-422.341 796.752,-429.321"/>
</g>
<!-- Node219&#45;&gt;Node206 -->
<g id="edge56" class="edge"><title>Node219&#45;&gt;Node206</title>
<path fill="none" stroke="midnightblue" d="M741.001,-413.358C757.799,-410.611 778.595,-407.211 798.348,-403.981"/>
<polygon fill="midnightblue" stroke="midnightblue" points="798.942,-407.43 808.247,-402.362 797.813,-400.522 798.942,-407.43"/>
</g>
<!-- Node219&#45;&gt;Node207 -->
<g id="edge57" class="edge"><title>Node219&#45;&gt;Node207</title>
<path fill="none" stroke="midnightblue" d="M741.105,-410.467C750.09,-407.674 759.599,-404.189 768,-400 785.662,-391.193 786.735,-383.562 804,-374 807.63,-371.99 811.455,-370.05 815.348,-368.202"/>
<polygon fill="midnightblue" stroke="midnightblue" points="816.83,-371.373 824.498,-364.063 813.945,-364.995 816.83,-371.373"/>
</g>
<!-- Node221&#45;&gt;Node212 -->
<g id="edge60" class="edge"><title>Node221&#45;&gt;Node212</title>
<path fill="none" stroke="midnightblue" d="M682.089,-352.505C638.465,-364.032 539.537,-376.885 461,-354 430.298,-345.053 400.08,-322.03 383.807,-305.329"/>
<polygon fill="midnightblue" stroke="midnightblue" points="386.277,-302.841 376.998,-297.727 381.063,-307.511 386.277,-302.841"/>
</g>
<!-- Node223&#45;&gt;Node221 -->
<g id="edge63" class="edge"><title>Node223&#45;&gt;Node221</title>
<path fill="none" stroke="midnightblue" d="M607.375,-333.259C622.87,-334.813 638.928,-336.424 653.419,-337.877"/>
<polygon fill="midnightblue" stroke="midnightblue" points="653.364,-341.389 663.663,-338.904 654.062,-334.424 653.364,-341.389"/>
</g>
</g>
</svg>
