<?xml version="1.0" encoding="UTF-8" standalone="no"?>
<!DOCTYPE svg PUBLIC "-//W3C//DTD SVG 1.1//EN"
 "http://www.w3.org/Graphics/SVG/1.1/DTD/svg11.dtd">
<!-- Generated by graphviz version 2.38.0 (20140413.2041)
 -->
<!-- Title: wifi_fallback_force_reset_state Pages: 1 -->
<svg width="668pt" height="66pt"
 viewBox="0.00 0.00 668.00 66.00" xmlns="http://www.w3.org/2000/svg" xmlns:xlink="http://www.w3.org/1999/xlink">
<g id="graph0" class="graph" transform="scale(1 1) rotate(0) translate(4 62)">
<title>wifi_fallback_force_reset_state</title>
<polygon fill="white" stroke="none" points="-4,4 -4,-62 664,-62 664,4 -4,4"/>
<!-- Node195 -->
<g id="node1" class="node"><title>Node195</title>
<polygon fill="#bfbfbf" stroke="black" points="0,-14 0,-44 98,-44 98,-14 0,-14"/>
<text text-anchor="start" x="8" y="-32" font-family="Helvetica,sans-Serif" font-size="10.00">wifi_fallback_force</text>
<text text-anchor="middle" x="49" y="-21" font-family="Helvetica,sans-Serif" font-size="10.00">_reset_state</text>
</g>
<!-- Node196 -->
<g id="node2" class="node"><title>Node196</title>
<g id="a_node2"><a xlink:href="watchdog_8c.html#a47b6861ffbed37fef88aa644f10ba917" target="_top" xlink:title="wifi_reconnect_timer_func">
<polygon fill="white" stroke="black" points="134,-19.5 134,-38.5 265,-38.5 265,-19.5 134,-19.5"/>
<text text-anchor="middle" x="199.5" y="-26.5" font-family="Helvetica,sans-Serif" font-size="10.00">wifi_reconnect_timer_func</text>
</a>
</g>
</g>
<!-- Node195&#45;&gt;Node196 -->
<g id="edge1" class="edge"><title>Node195&#45;&gt;Node196</title>
<path fill="none" stroke="midnightblue" d="M108.257,-29C116.632,-29 125.292,-29 133.783,-29"/>
<polygon fill="midnightblue" stroke="midnightblue" points="108.214,-25.5001 98.2137,-29 108.214,-32.5001 108.214,-25.5001"/>
</g>
<!-- Node197 -->
<g id="node3" class="node"><title>Node197</title>
<g id="a_node3"><a xlink:href="watchdog_8h.html#a98ac743883b75c5bf36e0d6b0fe982fa" target="_top" xlink:title="force_reset_wifi">
<polygon fill="white" stroke="black" points="301,-19.5 301,-38.5 387,-38.5 387,-19.5 301,-19.5"/>
<text text-anchor="middle" x="344" y="-26.5" font-family="Helvetica,sans-Serif" font-size="10.00">force_reset_wifi</text>
</a>
</g>
</g>
<!-- Node196&#45;&gt;Node197 -->
<g id="edge2" class="edge"><title>Node196&#45;&gt;Node197</title>
<path fill="none" stroke="midnightblue" d="M275.299,-29C284.004,-29 292.638,-29 300.679,-29"/>
<polygon fill="midnightblue" stroke="midnightblue" points="275.079,-25.5001 265.079,-29 275.079,-32.5001 275.079,-25.5001"/>
</g>
<!-- Node198 -->
<g id="node4" class="node"><title>Node198</title>
<g id="a_node4"><a xlink:href="kmp__request_8c.html#a3f6b790a06b933b78f40ade5e9a16131" target="_top" xlink:title="kmp_received_task">
<polygon fill="white" stroke="black" points="427.5,-38.5 427.5,-57.5 528.5,-57.5 528.5,-38.5 427.5,-38.5"/>
<text text-anchor="middle" x="478" y="-45.5" font-family="Helvetica,sans-Serif" font-size="10.00">kmp_received_task</text>
</a>
</g>
</g>
<!-- Node197&#45;&gt;Node198 -->
<g id="edge3" class="edge"><title>Node197&#45;&gt;Node198</title>
<path fill="none" stroke="midnightblue" d="M397.286,-36.5261C407.223,-37.9563 417.593,-39.449 427.442,-40.8666"/>
<polygon fill="midnightblue" stroke="midnightblue" points="397.525,-33.0245 387.129,-35.064 396.528,-39.953 397.525,-33.0245"/>
</g>
<!-- Node200 -->
<g id="node6" class="node"><title>Node200</title>
<g id="a_node6"><a xlink:href="watchdog_8c.html#aeb03c505b5b589ae4d89b2ae11dd1711" target="_top" xlink:title="watchdog_timer_func">
<polygon fill="white" stroke="black" points="423,-0.5 423,-19.5 533,-19.5 533,-0.5 423,-0.5"/>
<text text-anchor="middle" x="478" y="-7.5" font-family="Helvetica,sans-Serif" font-size="10.00">watchdog_timer_func</text>
</a>
</g>
</g>
<!-- Node197&#45;&gt;Node200 -->
<g id="edge5" class="edge"><title>Node197&#45;&gt;Node200</title>
<path fill="none" stroke="midnightblue" d="M397.176,-21.4899C405.571,-20.2814 414.279,-19.028 422.723,-17.8126"/>
<polygon fill="midnightblue" stroke="midnightblue" points="396.528,-18.047 387.129,-22.936 397.525,-24.9755 396.528,-18.047"/>
</g>
<!-- Node199 -->
<g id="node5" class="node"><title>Node199</title>
<g id="a_node5"><a xlink:href="kmp__request_8h.html#a048753ff9d6b448e2dcd8c85db0d6873" target="_top" xlink:title="kmp_request_init">
<polygon fill="white" stroke="black" points="569,-38.5 569,-57.5 660,-57.5 660,-38.5 569,-38.5"/>
<text text-anchor="middle" x="614.5" y="-45.5" font-family="Helvetica,sans-Serif" font-size="10.00">kmp_request_init</text>
</a>
</g>
</g>
<!-- Node198&#45;&gt;Node199 -->
<g id="edge4" class="edge"><title>Node198&#45;&gt;Node199</title>
<path fill="none" stroke="midnightblue" d="M538.725,-48C548.861,-48 559.228,-48 568.889,-48"/>
<polygon fill="midnightblue" stroke="midnightblue" points="538.701,-44.5001 528.701,-48 538.701,-51.5001 538.701,-44.5001"/>
</g>
<!-- Node201 -->
<g id="node7" class="node"><title>Node201</title>
<g id="a_node7"><a xlink:href="watchdog_8h.html#ab148f2150b52df5b60e312dded3a2934" target="_top" xlink:title="start_watchdog">
<polygon fill="white" stroke="black" points="573,-0.5 573,-19.5 656,-19.5 656,-0.5 573,-0.5"/>
<text text-anchor="middle" x="614.5" y="-7.5" font-family="Helvetica,sans-Serif" font-size="10.00">start_watchdog</text>
</a>
</g>
</g>
<!-- Node200&#45;&gt;Node201 -->
<g id="edge6" class="edge"><title>Node200&#45;&gt;Node201</title>
<path fill="none" stroke="midnightblue" d="M543.569,-10C553.466,-10 563.442,-10 572.635,-10"/>
<polygon fill="midnightblue" stroke="midnightblue" points="543.319,-6.5001 533.319,-10 543.319,-13.5001 543.319,-6.5001"/>
</g>
</g>
</svg>
