<?xml version="1.0" encoding="UTF-8" standalone="no"?>
<!DOCTYPE svg PUBLIC "-//W3C//DTD SVG 1.1//EN"
 "http://www.w3.org/Graphics/SVG/1.1/DTD/svg11.dtd">
<!-- Generated by graphviz version 2.38.0 (20140413.2041)
 -->
<!-- Title: wifi_scan_timer_func Pages: 1 -->
<svg width="1044pt" height="408pt"
 viewBox="0.00 0.00 1044.00 408.00" xmlns="http://www.w3.org/2000/svg" xmlns:xlink="http://www.w3.org/1999/xlink">
<g id="graph0" class="graph" transform="scale(1 1) rotate(0) translate(4 404)">
<title>wifi_scan_timer_func</title>
<polygon fill="white" stroke="none" points="-4,4 -4,-404 1040,-404 1040,4 -4,4"/>
<!-- Node482 -->
<g id="node1" class="node"><title>Node482</title>
<polygon fill="#bfbfbf" stroke="black" points="0,-70.5 0,-89.5 109,-89.5 109,-70.5 0,-70.5"/>
<text text-anchor="middle" x="54.5" y="-77.5" font-family="Helvetica,sans-Serif" font-size="10.00">wifi_scan_timer_func</text>
</g>
<!-- Node483 -->
<g id="node2" class="node"><title>Node483</title>
<g id="a_node2"><a xlink:href="wifi_8c.html#a79205b29f65bdd821ad9452bdbf0b747" target="_top" xlink:title="wifi_get_rssi">
<polygon fill="white" stroke="black" points="182.5,-170.5 182.5,-189.5 253.5,-189.5 253.5,-170.5 182.5,-170.5"/>
<text text-anchor="middle" x="218" y="-177.5" font-family="Helvetica,sans-Serif" font-size="10.00">wifi_get_rssi</text>
</a>
</g>
</g>
<!-- Node482&#45;&gt;Node483 -->
<g id="edge1" class="edge"><title>Node482&#45;&gt;Node483</title>
<path fill="none" stroke="midnightblue" d="M63.2991,-89.5913C77.6504,-106.596 109.995,-142.022 145,-161 153.519,-165.619 163.223,-169.162 172.687,-171.863"/>
<polygon fill="midnightblue" stroke="midnightblue" points="171.844,-175.26 182.402,-174.383 173.601,-168.484 171.844,-175.26"/>
</g>
<!-- Node484 -->
<g id="node3" class="node"><title>Node484</title>
<g id="a_node3"><a xlink:href="wifi_8c.html#a1ef15ecd9e69811f6db10215c7196281" target="_top" xlink:title="wifi_scan_done_cb">
<polygon fill="white" stroke="black" points="168,-132.5 168,-151.5 268,-151.5 268,-132.5 168,-132.5"/>
<text text-anchor="middle" x="218" y="-139.5" font-family="Helvetica,sans-Serif" font-size="10.00">wifi_scan_done_cb</text>
</a>
</g>
</g>
<!-- Node482&#45;&gt;Node484 -->
<g id="edge2" class="edge"><title>Node482&#45;&gt;Node484</title>
<path fill="none" stroke="midnightblue" d="M72.8996,-89.5833C90.628,-99.0527 119.119,-113.466 145,-123 151.52,-125.402 158.477,-127.633 165.399,-129.659"/>
<polygon fill="midnightblue" stroke="midnightblue" points="164.887,-133.15 175.46,-132.476 166.774,-126.409 164.887,-133.15"/>
</g>
<!-- Node514 -->
<g id="node33" class="node"><title>Node514</title>
<g id="a_node33"><a xlink:href="wifi_8c.html#a2d61a3854e1f7d67dcbcb0c7da23c8cc" target="_top" xlink:title="wifi_start_scan">
<polygon fill="white" stroke="black" points="348,-47.5 348,-66.5 431,-66.5 431,-47.5 348,-47.5"/>
<text text-anchor="middle" x="389.5" y="-54.5" font-family="Helvetica,sans-Serif" font-size="10.00">wifi_start_scan</text>
</a>
</g>
</g>
<!-- Node482&#45;&gt;Node514 -->
<g id="edge48" class="edge"><title>Node482&#45;&gt;Node514</title>
<path fill="none" stroke="midnightblue" d="M109.002,-71.1898C171.916,-64.6355 275.586,-57.5042 337.428,-55.4999"/>
<polygon fill="midnightblue" stroke="midnightblue" points="337.829,-58.9899 347.725,-55.2046 337.629,-51.9928 337.829,-58.9899"/>
</g>
<!-- Node516 -->
<g id="node35" class="node"><title>Node516</title>
<g id="a_node35"><a xlink:href="wifi_8c.html#a189ec83a0503a6fc45b102014a80403b" target="_top" xlink:title="wifi_scan_timeout_timer_func">
<polygon fill="white" stroke="black" points="145,-94.5 145,-113.5 291,-113.5 291,-94.5 145,-94.5"/>
<text text-anchor="middle" x="218" y="-101.5" font-family="Helvetica,sans-Serif" font-size="10.00">wifi_scan_timeout_timer_func</text>
</a>
</g>
</g>
<!-- Node482&#45;&gt;Node516 -->
<g id="edge46" class="edge"><title>Node482&#45;&gt;Node516</title>
<path fill="none" stroke="midnightblue" d="M109.277,-87.9917C120.065,-89.5947 131.577,-91.3056 142.914,-92.9903"/>
<polygon fill="midnightblue" stroke="midnightblue" points="142.403,-96.4527 152.808,-94.4607 143.432,-89.5287 142.403,-96.4527"/>
</g>
<!-- Node517 -->
<g id="node36" class="node"><title>Node517</title>
<g id="a_node36"><a xlink:href="user__interface_8h.html#ac80b0607b1cb20c161c681581c998626" target="_top" xlink:title="wifi_station_scan">
<polygon fill="white" stroke="black" points="172,-0.5 172,-19.5 264,-19.5 264,-0.5 172,-0.5"/>
<text text-anchor="middle" x="218" y="-7.5" font-family="Helvetica,sans-Serif" font-size="10.00">wifi_station_scan</text>
</a>
</g>
</g>
<!-- Node482&#45;&gt;Node517 -->
<g id="edge49" class="edge"><title>Node482&#45;&gt;Node517</title>
<path fill="none" stroke="midnightblue" d="M72.2876,-70.388C90.0019,-60.4811 118.913,-44.9758 145,-34 154.564,-29.976 165.057,-26.1566 175.003,-22.7968"/>
<polygon fill="midnightblue" stroke="midnightblue" points="176.308,-26.052 184.711,-19.5995 174.118,-19.4032 176.308,-26.052"/>
</g>
<!-- Node485 -->
<g id="node4" class="node"><title>Node485</title>
<g id="a_node4"><a xlink:href="led_8c.html#aa00afefe8ba48ccd7df635fbc7d4c9fc" target="_top" xlink:title="led_pattern_a">
<polygon fill="white" stroke="black" points="352,-123.5 352,-142.5 427,-142.5 427,-123.5 352,-123.5"/>
<text text-anchor="middle" x="389.5" y="-130.5" font-family="Helvetica,sans-Serif" font-size="10.00">led_pattern_a</text>
</a>
</g>
</g>
<!-- Node484&#45;&gt;Node485 -->
<g id="edge3" class="edge"><title>Node484&#45;&gt;Node485</title>
<path fill="none" stroke="midnightblue" d="M268.026,-139.397C291.258,-138.163 318.874,-136.697 341.801,-135.48"/>
<polygon fill="midnightblue" stroke="midnightblue" points="342.172,-138.965 351.972,-134.94 341.801,-131.975 342.172,-138.965"/>
</g>
<!-- Node490 -->
<g id="node9" class="node"><title>Node490</title>
<g id="a_node9"><a xlink:href="led_8c.html#a7cd1d03b4baad9cb20bf1a43046f61a2" target="_top" xlink:title="led_stop_pattern">
<polygon fill="white" stroke="black" points="345,-85.5 345,-104.5 434,-104.5 434,-85.5 345,-85.5"/>
<text text-anchor="middle" x="389.5" y="-92.5" font-family="Helvetica,sans-Serif" font-size="10.00">led_stop_pattern</text>
</a>
</g>
</g>
<!-- Node484&#45;&gt;Node490 -->
<g id="edge9" class="edge"><title>Node484&#45;&gt;Node490</title>
<path fill="none" stroke="midnightblue" d="M255.67,-132.487C267.01,-129.501 279.534,-126.159 291,-123 309.167,-117.995 329.181,-112.282 346.324,-107.328"/>
<polygon fill="midnightblue" stroke="midnightblue" points="347.419,-110.655 356.05,-104.509 345.471,-103.931 347.419,-110.655"/>
</g>
<!-- Node491 -->
<g id="node10" class="node"><title>Node491</title>
<g id="a_node10"><a xlink:href="wifi_8c.html#a0be23fd8148c6a3abf21c739359bed52" target="_top" xlink:title="wifi_default">
<polygon fill="white" stroke="black" points="356.5,-298.5 356.5,-317.5 422.5,-317.5 422.5,-298.5 356.5,-298.5"/>
<text text-anchor="middle" x="389.5" y="-305.5" font-family="Helvetica,sans-Serif" font-size="10.00">wifi_default</text>
</a>
</g>
</g>
<!-- Node484&#45;&gt;Node491 -->
<g id="edge11" class="edge"><title>Node484&#45;&gt;Node491</title>
<path fill="none" stroke="midnightblue" d="M268.32,-147.715C276.716,-150.604 284.734,-154.834 291,-161 333.124,-202.448 285.748,-246.684 327,-289 332.309,-294.446 339.143,-298.34 346.314,-301.121"/>
<polygon fill="midnightblue" stroke="midnightblue" points="345.602,-304.567 356.192,-304.265 347.725,-297.897 345.602,-304.567"/>
</g>
<!-- Node512 -->
<g id="node31" class="node"><title>Node512</title>
<g id="a_node31"><a xlink:href="wifi_8c.html#ac4389ba687a71cbb616f05b02427eb2a" target="_top" xlink:title="wifi_fallback">
<polygon fill="white" stroke="black" points="354,-161.5 354,-180.5 425,-180.5 425,-161.5 354,-161.5"/>
<text text-anchor="middle" x="389.5" y="-168.5" font-family="Helvetica,sans-Serif" font-size="10.00">wifi_fallback</text>
</a>
</g>
</g>
<!-- Node484&#45;&gt;Node512 -->
<g id="edge35" class="edge"><title>Node484&#45;&gt;Node512</title>
<path fill="none" stroke="midnightblue" d="M268.026,-150.388C291.959,-154.483 320.544,-159.373 343.862,-163.363"/>
<polygon fill="midnightblue" stroke="midnightblue" points="343.389,-166.833 353.837,-165.069 344.57,-159.933 343.389,-166.833"/>
</g>
<!-- Node513 -->
<g id="node32" class="node"><title>Node513</title>
<g id="a_node32"><a xlink:href="wifi_8c.html#a5ca49e6386831cffe58dbcc5d8845cc5" target="_top" xlink:title="wifi_scan_result_cb\l_unregister">
<polygon fill="white" stroke="black" points="338,-249 338,-279 441,-279 441,-249 338,-249"/>
<text text-anchor="start" x="346" y="-267" font-family="Helvetica,sans-Serif" font-size="10.00">wifi_scan_result_cb</text>
<text text-anchor="middle" x="389.5" y="-256" font-family="Helvetica,sans-Serif" font-size="10.00">_unregister</text>
</a>
</g>
</g>
<!-- Node484&#45;&gt;Node513 -->
<g id="edge42" class="edge"><title>Node484&#45;&gt;Node513</title>
<path fill="none" stroke="midnightblue" d="M268.332,-148.772C276.532,-151.572 284.477,-155.499 291,-161 320.496,-185.875 298.97,-213.484 327,-240 328.119,-241.058 329.29,-242.072 330.504,-243.042"/>
<polygon fill="midnightblue" stroke="midnightblue" points="328.816,-246.126 339.058,-248.838 332.743,-240.331 328.816,-246.126"/>
</g>
<!-- Node484&#45;&gt;Node514 -->
<g id="edge43" class="edge"><title>Node484&#45;&gt;Node514</title>
<path fill="none" stroke="midnightblue" d="M268.13,-133.709C276.171,-131.067 284.114,-127.587 291,-123 312.899,-108.414 305.409,-91.039 327,-76 330.507,-73.5569 334.34,-71.4197 338.321,-69.5516"/>
<polygon fill="midnightblue" stroke="midnightblue" points="339.877,-72.6965 347.801,-65.6634 337.221,-66.2201 339.877,-72.6965"/>
</g>
<!-- Node515 -->
<g id="node34" class="node"><title>Node515</title>
<g id="a_node34"><a xlink:href="user__interface_8h.html#ad61f32757e670d1a2feb7e445992fd1a" target="_top" xlink:title="wifi_station_get_connect\l_status">
<polygon fill="white" stroke="black" points="327,-200 327,-230 452,-230 452,-200 327,-200"/>
<text text-anchor="start" x="335" y="-218" font-family="Helvetica,sans-Serif" font-size="10.00">wifi_station_get_connect</text>
<text text-anchor="middle" x="389.5" y="-207" font-family="Helvetica,sans-Serif" font-size="10.00">_status</text>
</a>
</g>
</g>
<!-- Node484&#45;&gt;Node515 -->
<g id="edge45" class="edge"><title>Node484&#45;&gt;Node515</title>
<path fill="none" stroke="midnightblue" d="M266.527,-151.501C274.911,-154.023 283.385,-157.151 291,-161 309.336,-170.269 309.295,-179.576 327,-190 330.368,-191.983 333.922,-193.879 337.555,-195.676"/>
<polygon fill="midnightblue" stroke="midnightblue" points="336.141,-198.879 346.684,-199.935 339.101,-192.535 336.141,-198.879"/>
</g>
<!-- Node486 -->
<g id="node5" class="node"><title>Node486</title>
<g id="a_node5"><a xlink:href="led_8c.html#af6a79b211d188e643a4f1cf7552ac7ee" target="_top" xlink:title="led_blinker_timer_func">
<polygon fill="white" stroke="black" points="493.5,-102.5 493.5,-121.5 607.5,-121.5 607.5,-102.5 493.5,-102.5"/>
<text text-anchor="middle" x="550.5" y="-109.5" font-family="Helvetica,sans-Serif" font-size="10.00">led_blinker_timer_func</text>
</a>
</g>
</g>
<!-- Node485&#45;&gt;Node486 -->
<g id="edge4" class="edge"><title>Node485&#45;&gt;Node486</title>
<path fill="none" stroke="midnightblue" d="M427.377,-128.129C444.095,-125.921 464.384,-123.242 483.583,-120.706"/>
<polygon fill="midnightblue" stroke="midnightblue" points="484.043,-124.176 493.498,-119.396 483.126,-117.236 484.043,-124.176"/>
</g>
<!-- Node487 -->
<g id="node6" class="node"><title>Node487</title>
<g id="a_node6"><a xlink:href="led_8c.html#a0a23edee5e1db0cd2928c18a42ffe96f" target="_top" xlink:title="led_on">
<polygon fill="white" stroke="black" points="679.5,-102.5 679.5,-121.5 724.5,-121.5 724.5,-102.5 679.5,-102.5"/>
<text text-anchor="middle" x="702" y="-109.5" font-family="Helvetica,sans-Serif" font-size="10.00">led_on</text>
</a>
</g>
</g>
<!-- Node486&#45;&gt;Node487 -->
<g id="edge5" class="edge"><title>Node486&#45;&gt;Node487</title>
<path fill="none" stroke="midnightblue" d="M607.594,-112C628.413,-112 651.294,-112 669.2,-112"/>
<polygon fill="midnightblue" stroke="midnightblue" points="669.377,-115.5 679.377,-112 669.377,-108.5 669.377,-115.5"/>
</g>
<!-- Node489 -->
<g id="node8" class="node"><title>Node489</title>
<g id="a_node8"><a xlink:href="led_8c.html#a7ef0b27e501c77cd25b8bb7a2de6d8bd" target="_top" xlink:title="led_off">
<polygon fill="white" stroke="black" points="679,-64.5 679,-83.5 725,-83.5 725,-64.5 679,-64.5"/>
<text text-anchor="middle" x="702" y="-71.5" font-family="Helvetica,sans-Serif" font-size="10.00">led_off</text>
</a>
</g>
</g>
<!-- Node486&#45;&gt;Node489 -->
<g id="edge7" class="edge"><title>Node486&#45;&gt;Node489</title>
<path fill="none" stroke="midnightblue" d="M589.225,-102.411C613.789,-96.1673 645.49,-88.1096 668.854,-82.1709"/>
<polygon fill="midnightblue" stroke="midnightblue" points="669.799,-85.5421 678.628,-79.6864 668.074,-78.7578 669.799,-85.5421"/>
</g>
<!-- Node488 -->
<g id="node7" class="node"><title>Node488</title>
<g id="a_node7"><a xlink:href="gpio_8h.html#a83bac74ff5b2158e0c86da73ada29718" target="_top" xlink:title="gpio_output_set">
<polygon fill="white" stroke="black" points="791,-83.5 791,-102.5 877,-102.5 877,-83.5 791,-83.5"/>
<text text-anchor="middle" x="834" y="-90.5" font-family="Helvetica,sans-Serif" font-size="10.00">gpio_output_set</text>
</a>
</g>
</g>
<!-- Node487&#45;&gt;Node488 -->
<g id="edge6" class="edge"><title>Node487&#45;&gt;Node488</title>
<path fill="none" stroke="midnightblue" d="M724.759,-108.82C740.085,-106.58 761.282,-103.482 780.858,-100.621"/>
<polygon fill="midnightblue" stroke="midnightblue" points="781.518,-104.062 790.907,-99.152 780.506,-97.1351 781.518,-104.062"/>
</g>
<!-- Node489&#45;&gt;Node488 -->
<g id="edge8" class="edge"><title>Node489&#45;&gt;Node488</title>
<path fill="none" stroke="midnightblue" d="M725.053,-77.2231C740.351,-79.459 761.395,-82.5347 780.842,-85.3768"/>
<polygon fill="midnightblue" stroke="midnightblue" points="780.425,-88.8531 790.826,-86.8362 781.438,-81.9267 780.425,-88.8531"/>
</g>
<!-- Node490&#45;&gt;Node489 -->
<g id="edge10" class="edge"><title>Node490&#45;&gt;Node489</title>
<path fill="none" stroke="midnightblue" d="M434.001,-92.0579C497.19,-87.7843 612.921,-79.9571 668.938,-76.1684"/>
<polygon fill="midnightblue" stroke="midnightblue" points="669.254,-79.6552 678.995,-75.4883 668.781,-72.6711 669.254,-79.6552"/>
</g>
<!-- Node492 -->
<g id="node11" class="node"><title>Node492</title>
<g id="a_node11"><a xlink:href="tinyprintf_8c.html#a9738cbc6c538d210941db282e240c7d6" target="_top" xlink:title="tfp_snprintf">
<polygon fill="white" stroke="black" points="518,-254.5 518,-273.5 583,-273.5 583,-254.5 518,-254.5"/>
<text text-anchor="middle" x="550.5" y="-261.5" font-family="Helvetica,sans-Serif" font-size="10.00">tfp_snprintf</text>
</a>
</g>
</g>
<!-- Node491&#45;&gt;Node492 -->
<g id="edge12" class="edge"><title>Node491&#45;&gt;Node492</title>
<path fill="none" stroke="midnightblue" d="M422.676,-299.096C447.298,-292.282 481.441,-282.834 508.099,-275.457"/>
<polygon fill="midnightblue" stroke="midnightblue" points="509.21,-278.781 517.914,-272.741 507.343,-272.035 509.21,-278.781"/>
</g>
<!-- Node505 -->
<g id="node24" class="node"><title>Node505</title>
<g id="a_node24"><a xlink:href="wifi_8c.html#a2091cde351b02dbc8bd9d52273488bba" target="_top" xlink:title="wifi_get_rssi_timer_func">
<polygon fill="white" stroke="black" points="489.5,-380.5 489.5,-399.5 611.5,-399.5 611.5,-380.5 489.5,-380.5"/>
<text text-anchor="middle" x="550.5" y="-387.5" font-family="Helvetica,sans-Serif" font-size="10.00">wifi_get_rssi_timer_func</text>
</a>
</g>
</g>
<!-- Node491&#45;&gt;Node505 -->
<g id="edge28" class="edge"><title>Node491&#45;&gt;Node505</title>
<path fill="none" stroke="midnightblue" d="M402.784,-317.529C420.667,-331.021 455.31,-355.744 488,-371 492.752,-373.218 497.827,-375.26 502.949,-377.118"/>
<polygon fill="midnightblue" stroke="midnightblue" points="502.187,-380.556 512.781,-380.46 504.439,-373.928 502.187,-380.556"/>
</g>
<!-- Node507 -->
<g id="node26" class="node"><title>Node507</title>
<g id="a_node26"><a xlink:href="user__interface_8h.html#a77323412cda193d0b8f18652e4d08e77" target="_top" xlink:title="wifi_set_opmode_current">
<polygon fill="white" stroke="black" points="488,-216.5 488,-235.5 613,-235.5 613,-216.5 488,-216.5"/>
<text text-anchor="middle" x="550.5" y="-223.5" font-family="Helvetica,sans-Serif" font-size="10.00">wifi_set_opmode_current</text>
</a>
</g>
</g>
<!-- Node491&#45;&gt;Node507 -->
<g id="edge30" class="edge"><title>Node491&#45;&gt;Node507</title>
<path fill="none" stroke="midnightblue" d="M422.744,-301.85C432.678,-298.984 443.285,-294.865 452,-289 472.962,-274.893 467.038,-259.107 488,-245 491.054,-242.945 494.34,-241.104 497.748,-239.457"/>
<polygon fill="midnightblue" stroke="midnightblue" points="499.144,-242.666 506.978,-235.532 496.405,-236.224 499.144,-242.666"/>
</g>
<!-- Node508 -->
<g id="node27" class="node"><title>Node508</title>
<g id="a_node27"><a xlink:href="user__interface_8h.html#ab03cd1e7e4ad93cd241c94bd57430384" target="_top" xlink:title="wifi_station_connect">
<polygon fill="white" stroke="black" points="497.5,-178.5 497.5,-197.5 603.5,-197.5 603.5,-178.5 497.5,-178.5"/>
<text text-anchor="middle" x="550.5" y="-185.5" font-family="Helvetica,sans-Serif" font-size="10.00">wifi_station_connect</text>
</a>
</g>
</g>
<!-- Node491&#45;&gt;Node508 -->
<g id="edge31" class="edge"><title>Node491&#45;&gt;Node508</title>
<path fill="none" stroke="midnightblue" d="M422.523,-303.552C432.899,-300.783 443.827,-296.29 452,-289 481.703,-262.506 458.297,-233.494 488,-207 489.762,-205.429 491.651,-203.987 493.636,-202.665"/>
<polygon fill="midnightblue" stroke="midnightblue" points="495.77,-205.486 502.843,-197.598 492.394,-199.353 495.77,-205.486"/>
</g>
<!-- Node509 -->
<g id="node28" class="node"><title>Node509</title>
<g id="a_node28"><a xlink:href="user__interface_8h.html#aba69e9646b1f29d8a72972787400f4f1" target="_top" xlink:title="wifi_station_disconnect">
<polygon fill="white" stroke="black" points="491,-140.5 491,-159.5 610,-159.5 610,-140.5 491,-140.5"/>
<text text-anchor="middle" x="550.5" y="-147.5" font-family="Helvetica,sans-Serif" font-size="10.00">wifi_station_disconnect</text>
</a>
</g>
</g>
<!-- Node491&#45;&gt;Node509 -->
<g id="edge32" class="edge"><title>Node491&#45;&gt;Node509</title>
<path fill="none" stroke="midnightblue" d="M422.731,-304.19C433.247,-301.476 444.209,-296.855 452,-289 491.211,-249.466 448.789,-208.534 488,-169 489.446,-167.542 491.001,-166.196 492.643,-164.952"/>
<polygon fill="midnightblue" stroke="midnightblue" points="494.76,-167.76 501.46,-159.552 491.105,-161.79 494.76,-167.76"/>
</g>
<!-- Node510 -->
<g id="node29" class="node"><title>Node510</title>
<g id="a_node29"><a xlink:href="user__interface_8h.html#a1f0be53caaf81058292a1e6559bdaa36" target="_top" xlink:title="wifi_station_get_config">
<polygon fill="white" stroke="black" points="492.5,-342.5 492.5,-361.5 608.5,-361.5 608.5,-342.5 492.5,-342.5"/>
<text text-anchor="middle" x="550.5" y="-349.5" font-family="Helvetica,sans-Serif" font-size="10.00">wifi_station_get_config</text>
</a>
</g>
</g>
<!-- Node491&#45;&gt;Node510 -->
<g id="edge33" class="edge"><title>Node491&#45;&gt;Node510</title>
<path fill="none" stroke="midnightblue" d="M422.676,-316.904C446.413,-323.473 478.999,-332.49 505.196,-339.74"/>
<polygon fill="midnightblue" stroke="midnightblue" points="504.321,-343.129 514.892,-342.423 506.188,-336.383 504.321,-343.129"/>
</g>
<!-- Node511 -->
<g id="node30" class="node"><title>Node511</title>
<g id="a_node30"><a xlink:href="user__interface_8h.html#afd1188add491eee183d4ee2daa37dca6" target="_top" xlink:title="wifi_station_set_config\l_current">
<polygon fill="white" stroke="black" points="492.5,-293 492.5,-323 608.5,-323 608.5,-293 492.5,-293"/>
<text text-anchor="start" x="500.5" y="-311" font-family="Helvetica,sans-Serif" font-size="10.00">wifi_station_set_config</text>
<text text-anchor="middle" x="550.5" y="-300" font-family="Helvetica,sans-Serif" font-size="10.00">_current</text>
</a>
</g>
</g>
<!-- Node491&#45;&gt;Node511 -->
<g id="edge34" class="edge"><title>Node491&#45;&gt;Node511</title>
<path fill="none" stroke="midnightblue" d="M422.676,-308C439.832,-308 461.611,-308 482.259,-308"/>
<polygon fill="midnightblue" stroke="midnightblue" points="482.28,-311.5 492.28,-308 482.28,-304.5 482.28,-311.5"/>
</g>
<!-- Node493 -->
<g id="node12" class="node"><title>Node493</title>
<g id="a_node12"><a xlink:href="tinyprintf_8c.html#ac8c8a66133cf0d7009c0d73b55311a44" target="_top" xlink:title="tfp_vsnprintf">
<polygon fill="white" stroke="black" points="666.5,-254.5 666.5,-273.5 737.5,-273.5 737.5,-254.5 666.5,-254.5"/>
<text text-anchor="middle" x="702" y="-261.5" font-family="Helvetica,sans-Serif" font-size="10.00">tfp_vsnprintf</text>
</a>
</g>
</g>
<!-- Node492&#45;&gt;Node493 -->
<g id="edge13" class="edge"><title>Node492&#45;&gt;Node493</title>
<path fill="none" stroke="midnightblue" d="M583.205,-264C604.484,-264 632.823,-264 656.371,-264"/>
<polygon fill="midnightblue" stroke="midnightblue" points="656.473,-267.5 666.473,-264 656.473,-260.5 656.473,-267.5"/>
</g>
<!-- Node494 -->
<g id="node13" class="node"><title>Node494</title>
<g id="a_node13"><a xlink:href="tinyprintf_8c.html#a5877e42444463efc71a91b5fe76a6145" target="_top" xlink:title="tfp_format">
<polygon fill="white" stroke="black" points="803.5,-235.5 803.5,-254.5 864.5,-254.5 864.5,-235.5 803.5,-235.5"/>
<text text-anchor="middle" x="834" y="-242.5" font-family="Helvetica,sans-Serif" font-size="10.00">tfp_format</text>
</a>
</g>
</g>
<!-- Node493&#45;&gt;Node494 -->
<g id="edge14" class="edge"><title>Node493&#45;&gt;Node494</title>
<path fill="none" stroke="midnightblue" d="M737.838,-258.908C754.939,-256.409 775.618,-253.387 793.326,-250.799"/>
<polygon fill="midnightblue" stroke="midnightblue" points="793.97,-254.242 803.359,-249.332 792.958,-247.315 793.97,-254.242"/>
</g>
<!-- Node504 -->
<g id="node23" class="node"><title>Node504</title>
<g id="a_node23"><a xlink:href="tinyprintf_8c.html#a919051024b2d729e34a54648b3f2462d" target="_top" xlink:title="_vsnprintf_putcf">
<polygon fill="white" stroke="black" points="791,-273.5 791,-292.5 877,-292.5 877,-273.5 791,-273.5"/>
<text text-anchor="middle" x="834" y="-280.5" font-family="Helvetica,sans-Serif" font-size="10.00">_vsnprintf_putcf</text>
</a>
</g>
</g>
<!-- Node493&#45;&gt;Node504 -->
<g id="edge27" class="edge"><title>Node493&#45;&gt;Node504</title>
<path fill="none" stroke="midnightblue" d="M737.838,-269.092C750.91,-271.002 766.074,-273.218 780.403,-275.313"/>
<polygon fill="midnightblue" stroke="midnightblue" points="780.246,-278.827 790.647,-276.81 781.258,-271.9 780.246,-278.827"/>
</g>
<!-- Node495 -->
<g id="node14" class="node"><title>Node495</title>
<g id="a_node14"><a xlink:href="tinyprintf_8c.html#aa97593a5e53af85b608ad0910db92d77" target="_top" xlink:title="a2u">
<polygon fill="white" stroke="black" points="921,-368.5 921,-387.5 953,-387.5 953,-368.5 921,-368.5"/>
<text text-anchor="middle" x="937" y="-375.5" font-family="Helvetica,sans-Serif" font-size="10.00">a2u</text>
</a>
</g>
</g>
<!-- Node494&#45;&gt;Node495 -->
<g id="edge15" class="edge"><title>Node494&#45;&gt;Node495</title>
<path fill="none" stroke="midnightblue" d="M864.031,-254.555C868.789,-257.072 873.349,-260.183 877,-264 906.781,-295.131 889.668,-317.784 913,-354 914.477,-356.292 916.192,-358.556 918.007,-360.724"/>
<polygon fill="midnightblue" stroke="midnightblue" points="915.836,-363.528 925.211,-368.464 920.96,-358.759 915.836,-363.528"/>
</g>
<!-- Node497 -->
<g id="node16" class="node"><title>Node497</title>
<g id="a_node16"><a xlink:href="tinyprintf_8c.html#abcf035dd576671b0cc897de9dd8c75b0" target="_top" xlink:title="ulli2a">
<polygon fill="white" stroke="black" points="997,-311.5 997,-330.5 1036,-330.5 1036,-311.5 997,-311.5"/>
<text text-anchor="middle" x="1016.5" y="-318.5" font-family="Helvetica,sans-Serif" font-size="10.00">ulli2a</text>
</a>
</g>
</g>
<!-- Node494&#45;&gt;Node497 -->
<g id="edge17" class="edge"><title>Node494&#45;&gt;Node497</title>
<path fill="none" stroke="midnightblue" d="M862.604,-254.691C867.719,-257.235 872.774,-260.322 877,-264 899.602,-283.67 886.759,-306.537 913,-321 935.5,-333.402 965.223,-331.815 986.865,-328.074"/>
<polygon fill="midnightblue" stroke="midnightblue" points="987.641,-331.488 996.773,-326.116 986.284,-324.621 987.641,-331.488"/>
</g>
<!-- Node498 -->
<g id="node17" class="node"><title>Node498</title>
<g id="a_node17"><a xlink:href="tinyprintf_8c.html#a1d61347854a8c290d59b4a21efcefd75" target="_top" xlink:title="uli2a">
<polygon fill="white" stroke="black" points="998,-225.5 998,-244.5 1035,-244.5 1035,-225.5 998,-225.5"/>
<text text-anchor="middle" x="1016.5" y="-232.5" font-family="Helvetica,sans-Serif" font-size="10.00">uli2a</text>
</a>
</g>
</g>
<!-- Node494&#45;&gt;Node498 -->
<g id="edge18" class="edge"><title>Node494&#45;&gt;Node498</title>
<path fill="none" stroke="midnightblue" d="M864.6,-246.51C890.178,-247.455 928.105,-247.993 961,-245 969.854,-244.194 979.419,-242.667 988.026,-241.044"/>
<polygon fill="midnightblue" stroke="midnightblue" points="988.822,-244.455 997.94,-239.059 987.447,-237.591 988.822,-244.455"/>
</g>
<!-- Node499 -->
<g id="node18" class="node"><title>Node499</title>
<g id="a_node18"><a xlink:href="tinyprintf_8c.html#ac87ff66a592723f55692eaf8e3f19df8" target="_top" xlink:title="ui2a">
<polygon fill="white" stroke="black" points="999,-168.5 999,-187.5 1034,-187.5 1034,-168.5 999,-168.5"/>
<text text-anchor="middle" x="1016.5" y="-175.5" font-family="Helvetica,sans-Serif" font-size="10.00">ui2a</text>
</a>
</g>
</g>
<!-- Node494&#45;&gt;Node499 -->
<g id="edge19" class="edge"><title>Node494&#45;&gt;Node499</title>
<path fill="none" stroke="midnightblue" d="M852.263,-235.486C867.812,-227.185 891.468,-215.216 913,-207 938.276,-197.355 968.134,-189.264 989.085,-184.1"/>
<polygon fill="midnightblue" stroke="midnightblue" points="989.974,-187.485 998.876,-181.739 988.334,-180.68 989.974,-187.485"/>
</g>
<!-- Node500 -->
<g id="node19" class="node"><title>Node500</title>
<g id="a_node19"><a xlink:href="tinyprintf_8c.html#a6252dbfebb2c8783c4e3107d551082dd" target="_top" xlink:title="putchw">
<polygon fill="white" stroke="black" points="913,-102.5 913,-121.5 961,-121.5 961,-102.5 913,-102.5"/>
<text text-anchor="middle" x="937" y="-109.5" font-family="Helvetica,sans-Serif" font-size="10.00">putchw</text>
</a>
</g>
</g>
<!-- Node494&#45;&gt;Node500 -->
<g id="edge20" class="edge"><title>Node494&#45;&gt;Node500</title>
<path fill="none" stroke="midnightblue" d="M840.266,-235.495C851.829,-215.081 880.976,-166.058 913,-131 913.734,-130.197 914.502,-129.398 915.293,-128.607"/>
<polygon fill="midnightblue" stroke="midnightblue" points="917.697,-131.153 922.778,-121.855 913.008,-125.955 917.697,-131.153"/>
</g>
<!-- Node501 -->
<g id="node20" class="node"><title>Node501</title>
<g id="a_node20"><a xlink:href="tinyprintf_8c.html#a49c6d2b3d4088012f2c1fe344eef69f3" target="_top" xlink:title="lli2a">
<polygon fill="white" stroke="black" points="920,-292.5 920,-311.5 954,-311.5 954,-292.5 920,-292.5"/>
<text text-anchor="middle" x="937" y="-299.5" font-family="Helvetica,sans-Serif" font-size="10.00">lli2a</text>
</a>
</g>
</g>
<!-- Node494&#45;&gt;Node501 -->
<g id="edge21" class="edge"><title>Node494&#45;&gt;Node501</title>
<path fill="none" stroke="midnightblue" d="M857.968,-254.655C864.232,-257.485 870.955,-260.709 877,-264 889.54,-270.827 902.963,-279.366 913.832,-286.62"/>
<polygon fill="midnightblue" stroke="midnightblue" points="912.044,-289.636 922.286,-292.345 915.969,-283.839 912.044,-289.636"/>
</g>
<!-- Node502 -->
<g id="node21" class="node"><title>Node502</title>
<g id="a_node21"><a xlink:href="tinyprintf_8c.html#afebb7696337c3f599b5e8db35c560684" target="_top" xlink:title="li2a">
<polygon fill="white" stroke="black" points="921,-216.5 921,-235.5 953,-235.5 953,-216.5 921,-216.5"/>
<text text-anchor="middle" x="937" y="-223.5" font-family="Helvetica,sans-Serif" font-size="10.00">li2a</text>
</a>
</g>
</g>
<!-- Node494&#45;&gt;Node502 -->
<g id="edge23" class="edge"><title>Node494&#45;&gt;Node502</title>
<path fill="none" stroke="midnightblue" d="M864.757,-239.402C879.41,-236.646 896.882,-233.359 910.856,-230.73"/>
<polygon fill="midnightblue" stroke="midnightblue" points="911.576,-234.156 920.756,-228.868 910.282,-227.277 911.576,-234.156"/>
</g>
<!-- Node503 -->
<g id="node22" class="node"><title>Node503</title>
<g id="a_node22"><a xlink:href="tinyprintf_8c.html#a90f9fd8f2133cda7f50be8d67823405c" target="_top" xlink:title="i2a">
<polygon fill="white" stroke="black" points="922.5,-140.5 922.5,-159.5 951.5,-159.5 951.5,-140.5 922.5,-140.5"/>
<text text-anchor="middle" x="937" y="-147.5" font-family="Helvetica,sans-Serif" font-size="10.00">i2a</text>
</a>
</g>
</g>
<!-- Node494&#45;&gt;Node503 -->
<g id="edge25" class="edge"><title>Node494&#45;&gt;Node503</title>
<path fill="none" stroke="midnightblue" d="M845.428,-235.191C862.679,-218.965 897.342,-186.362 918.427,-166.529"/>
<polygon fill="midnightblue" stroke="midnightblue" points="920.893,-169.015 925.779,-159.614 916.097,-163.916 920.893,-169.015"/>
</g>
<!-- Node496 -->
<g id="node15" class="node"><title>Node496</title>
<g id="a_node15"><a xlink:href="tinyprintf_8c.html#aa853a0c5ba64fa2546d488b86192e7e3" target="_top" xlink:title="a2d">
<polygon fill="white" stroke="black" points="1000.5,-368.5 1000.5,-387.5 1032.5,-387.5 1032.5,-368.5 1000.5,-368.5"/>
<text text-anchor="middle" x="1016.5" y="-375.5" font-family="Helvetica,sans-Serif" font-size="10.00">a2d</text>
</a>
</g>
</g>
<!-- Node495&#45;&gt;Node496 -->
<g id="edge16" class="edge"><title>Node495&#45;&gt;Node496</title>
<path fill="none" stroke="midnightblue" d="M953.312,-378C963.888,-378 978.197,-378 990.423,-378"/>
<polygon fill="midnightblue" stroke="midnightblue" points="990.484,-381.5 1000.48,-378 990.484,-374.5 990.484,-381.5"/>
</g>
<!-- Node501&#45;&gt;Node497 -->
<g id="edge22" class="edge"><title>Node501&#45;&gt;Node497</title>
<path fill="none" stroke="midnightblue" d="M954.058,-305.937C963.563,-308.267 975.88,-311.287 986.987,-314.01"/>
<polygon fill="midnightblue" stroke="midnightblue" points="986.187,-317.417 996.733,-316.399 987.854,-310.619 986.187,-317.417"/>
</g>
<!-- Node502&#45;&gt;Node498 -->
<g id="edge24" class="edge"><title>Node502&#45;&gt;Node498</title>
<path fill="none" stroke="midnightblue" d="M953.312,-227.778C963.106,-228.916 976.101,-230.425 987.678,-231.769"/>
<polygon fill="midnightblue" stroke="midnightblue" points="987.442,-235.265 997.779,-232.942 988.25,-228.312 987.442,-235.265"/>
</g>
<!-- Node503&#45;&gt;Node499 -->
<g id="edge26" class="edge"><title>Node503&#45;&gt;Node499</title>
<path fill="none" stroke="midnightblue" d="M951.855,-155.006C962.231,-158.754 976.735,-163.994 989.277,-168.526"/>
<polygon fill="midnightblue" stroke="midnightblue" points="988.204,-171.86 998.798,-171.966 990.583,-165.276 988.204,-171.86"/>
</g>
<!-- Node506 -->
<g id="node25" class="node"><title>Node506</title>
<g id="a_node25"><a xlink:href="user__interface_8h.html#af8572ea9f6e1b7785e9df6941932bb3d" target="_top" xlink:title="wifi_station_get_rssi">
<polygon fill="white" stroke="black" points="649,-380.5 649,-399.5 755,-399.5 755,-380.5 649,-380.5"/>
<text text-anchor="middle" x="702" y="-387.5" font-family="Helvetica,sans-Serif" font-size="10.00">wifi_station_get_rssi</text>
</a>
</g>
</g>
<!-- Node505&#45;&gt;Node506 -->
<g id="edge29" class="edge"><title>Node505&#45;&gt;Node506</title>
<path fill="none" stroke="midnightblue" d="M611.876,-390C620.613,-390 629.623,-390 638.402,-390"/>
<polygon fill="midnightblue" stroke="midnightblue" points="638.573,-393.5 648.573,-390 638.573,-386.5 638.573,-393.5"/>
</g>
<!-- Node512&#45;&gt;Node492 -->
<g id="edge36" class="edge"><title>Node512&#45;&gt;Node492</title>
<path fill="none" stroke="midnightblue" d="M425.022,-177.824C434.399,-180.803 444.126,-185.032 452,-191 474.987,-208.424 464.885,-227.746 488,-245 493.972,-249.458 501.006,-252.882 508.143,-255.51"/>
<polygon fill="midnightblue" stroke="midnightblue" points="507.259,-258.902 517.85,-258.62 509.395,-252.235 507.259,-258.902"/>
</g>
<!-- Node512&#45;&gt;Node507 -->
<g id="edge37" class="edge"><title>Node512&#45;&gt;Node507</title>
<path fill="none" stroke="midnightblue" d="M422.007,-180.552C431.701,-183.677 442.356,-187.3 452,-191 468.347,-197.271 471.607,-200.849 488,-207 493.905,-209.215 500.195,-211.378 506.414,-213.402"/>
<polygon fill="midnightblue" stroke="midnightblue" points="505.472,-216.775 516.062,-216.458 507.586,-210.102 505.472,-216.775"/>
</g>
<!-- Node512&#45;&gt;Node508 -->
<g id="edge38" class="edge"><title>Node512&#45;&gt;Node508</title>
<path fill="none" stroke="midnightblue" d="M425.001,-174.689C443.132,-176.627 465.919,-179.064 487.027,-181.32"/>
<polygon fill="midnightblue" stroke="midnightblue" points="486.91,-184.828 497.226,-182.411 487.655,-177.868 486.91,-184.828"/>
</g>
<!-- Node512&#45;&gt;Node509 -->
<g id="edge39" class="edge"><title>Node512&#45;&gt;Node509</title>
<path fill="none" stroke="midnightblue" d="M425.001,-166.443C441.412,-164.276 461.637,-161.605 480.979,-159.05"/>
<polygon fill="midnightblue" stroke="midnightblue" points="481.532,-162.507 490.988,-157.728 480.615,-155.568 481.532,-162.507"/>
</g>
<!-- Node512&#45;&gt;Node510 -->
<g id="edge40" class="edge"><title>Node512&#45;&gt;Node510</title>
<path fill="none" stroke="midnightblue" d="M425.19,-175.823C435.014,-178.755 444.942,-183.459 452,-191 496.491,-238.535 443.159,-285.795 488,-333 489.385,-334.458 490.88,-335.806 492.462,-337.05"/>
<polygon fill="midnightblue" stroke="midnightblue" points="490.672,-340.059 500.992,-342.456 494.418,-334.147 490.672,-340.059"/>
</g>
<!-- Node512&#45;&gt;Node511 -->
<g id="edge41" class="edge"><title>Node512&#45;&gt;Node511</title>
<path fill="none" stroke="midnightblue" d="M425.268,-176.577C434.865,-179.537 444.649,-184.067 452,-191 483.943,-221.125 457.157,-251.75 488,-283 489.427,-284.446 490.949,-285.811 492.546,-287.1"/>
<polygon fill="midnightblue" stroke="midnightblue" points="490.837,-290.171 501.066,-292.928 494.788,-284.393 490.837,-290.171"/>
</g>
<!-- Node514&#45;&gt;Node482 -->
<g id="edge44" class="edge"><title>Node514&#45;&gt;Node482</title>
<path fill="none" stroke="midnightblue" d="M347.725,-64.428C290.648,-70.9119 186.385,-78.3891 119.066,-81.0487"/>
<polygon fill="midnightblue" stroke="midnightblue" points="118.867,-77.5536 109.002,-81.4195 119.124,-84.5489 118.867,-77.5536"/>
</g>
<!-- Node516&#45;&gt;Node514 -->
<g id="edge47" class="edge"><title>Node516&#45;&gt;Node514</title>
<path fill="none" stroke="midnightblue" d="M253.301,-94.4888C279.52,-87.2186 315.868,-77.1398 344.273,-69.2634"/>
<polygon fill="midnightblue" stroke="midnightblue" points="345.259,-72.6224 353.96,-66.5776 343.388,-65.8769 345.259,-72.6224"/>
</g>
</g>
</svg>
