<?xml version="1.0" encoding="UTF-8" standalone="no"?>
<!DOCTYPE svg PUBLIC "-//W3C//DTD SVG 1.1//EN"
 "http://www.w3.org/Graphics/SVG/1.1/DTD/svg11.dtd">
<!-- Generated by graphviz version 2.38.0 (20140413.2041)
 -->
<!-- Title: wifi_softap_config Pages: 1 -->
<svg width="325pt" height="66pt"
 viewBox="0.00 0.00 325.00 66.00" xmlns="http://www.w3.org/2000/svg" xmlns:xlink="http://www.w3.org/1999/xlink">
<g id="graph0" class="graph" transform="scale(1 1) rotate(0) translate(4 62)">
<title>wifi_softap_config</title>
<polygon fill="white" stroke="none" points="-4,4 -4,-62 321,-62 321,4 -4,4"/>
<!-- Node365 -->
<g id="node1" class="node"><title>Node365</title>
<polygon fill="#bfbfbf" stroke="black" points="0,-19.5 0,-38.5 95,-38.5 95,-19.5 0,-19.5"/>
<text text-anchor="middle" x="47.5" y="-26.5" font-family="Helvetica,sans-Serif" font-size="10.00">wifi_softap_config</text>
</g>
<!-- Node366 -->
<g id="node2" class="node"><title>Node366</title>
<g id="a_node2"><a xlink:href="cron_8c.html#a2782af03df9b913cfa565a0770e1afe1" target="_top" xlink:title="minute_timer_func">
<polygon fill="white" stroke="black" points="131,-38.5 131,-57.5 228,-57.5 228,-38.5 131,-38.5"/>
<text text-anchor="middle" x="179.5" y="-45.5" font-family="Helvetica,sans-Serif" font-size="10.00">minute_timer_func</text>
</a>
</g>
</g>
<!-- Node365&#45;&gt;Node366 -->
<g id="edge1" class="edge"><title>Node365&#45;&gt;Node366</title>
<path fill="none" stroke="midnightblue" d="M105.069,-37.2677C113.7,-38.5293 122.534,-39.8203 130.946,-41.0498"/>
<polygon fill="midnightblue" stroke="midnightblue" points="105.467,-33.7888 95.0658,-35.8058 104.454,-40.7152 105.467,-33.7888"/>
</g>
<!-- Node368 -->
<g id="node4" class="node"><title>Node368</title>
<g id="a_node4"><a xlink:href="mqtt__rpc_8h.html#a1b7add080e121a194a82ca7fc1ac5d6a" target="_top" xlink:title="mqtt_rpc_start_ap">
<polygon fill="white" stroke="black" points="132,-0.5 132,-19.5 227,-19.5 227,-0.5 132,-0.5"/>
<text text-anchor="middle" x="179.5" y="-7.5" font-family="Helvetica,sans-Serif" font-size="10.00">mqtt_rpc_start_ap</text>
</a>
</g>
</g>
<!-- Node365&#45;&gt;Node368 -->
<g id="edge3" class="edge"><title>Node365&#45;&gt;Node368</title>
<path fill="none" stroke="midnightblue" d="M105.033,-20.7374C113.977,-19.4304 123.137,-18.0915 131.822,-16.8221"/>
<polygon fill="midnightblue" stroke="midnightblue" points="104.454,-17.2848 95.0658,-22.1942 105.467,-24.2112 104.454,-17.2848"/>
</g>
<!-- Node367 -->
<g id="node3" class="node"><title>Node367</title>
<g id="a_node3"><a xlink:href="cron_8h.html#ae130c5973bad35b56776750c7a34db12" target="_top" xlink:title="cron_init">
<polygon fill="white" stroke="black" points="264,-38.5 264,-57.5 317,-57.5 317,-38.5 264,-38.5"/>
<text text-anchor="middle" x="290.5" y="-45.5" font-family="Helvetica,sans-Serif" font-size="10.00">cron_init</text>
</a>
</g>
</g>
<!-- Node366&#45;&gt;Node367 -->
<g id="edge2" class="edge"><title>Node366&#45;&gt;Node367</title>
<path fill="none" stroke="midnightblue" d="M238.401,-48C247.34,-48 256.156,-48 263.883,-48"/>
<polygon fill="midnightblue" stroke="midnightblue" points="238.309,-44.5001 228.309,-48 238.309,-51.5001 238.309,-44.5001"/>
</g>
</g>
</svg>
