<?xml version="1.0" encoding="UTF-8" standalone="no"?>
<!DOCTYPE svg PUBLIC "-//W3C//DTD SVG 1.1//EN"
 "http://www.w3.org/Graphics/SVG/1.1/DTD/svg11.dtd">
<!-- Generated by graphviz version 2.38.0 (20140413.2041)
 -->
<!-- Title: wifi_scan_done_cb Pages: 1 -->
<svg width="893pt" height="432pt"
 viewBox="0.00 0.00 893.00 431.50" xmlns="http://www.w3.org/2000/svg" xmlns:xlink="http://www.w3.org/1999/xlink">
<g id="graph0" class="graph" transform="scale(1 1) rotate(0) translate(4 427.5)">
<title>wifi_scan_done_cb</title>
<polygon fill="white" stroke="none" points="-4,4 -4,-427.5 889,-427.5 889,4 -4,4"/>
<!-- Node355 -->
<g id="node1" class="node"><title>Node355</title>
<polygon fill="#bfbfbf" stroke="black" points="0,-174 0,-193 100,-193 100,-174 0,-174"/>
<text text-anchor="middle" x="50" y="-181" font-family="Helvetica,sans-Serif" font-size="10.00">wifi_scan_done_cb</text>
</g>
<!-- Node356 -->
<g id="node2" class="node"><title>Node356</title>
<g id="a_node2"><a xlink:href="led_8c.html#aa00afefe8ba48ccd7df635fbc7d4c9fc" target="_top" xlink:title="led_pattern_a">
<polygon fill="white" stroke="black" points="161,-316 161,-335 236,-335 236,-316 161,-316"/>
<text text-anchor="middle" x="198.5" y="-323" font-family="Helvetica,sans-Serif" font-size="10.00">led_pattern_a</text>
</a>
</g>
</g>
<!-- Node355&#45;&gt;Node356 -->
<g id="edge1" class="edge"><title>Node355&#45;&gt;Node356</title>
<path fill="none" stroke="midnightblue" d="M61.0695,-193.26C85.6374,-217.073 148.901,-278.394 179.879,-308.42"/>
<polygon fill="midnightblue" stroke="midnightblue" points="177.743,-311.225 187.36,-315.671 182.615,-306.198 177.743,-311.225"/>
</g>
<!-- Node361 -->
<g id="node7" class="node"><title>Node361</title>
<g id="a_node7"><a xlink:href="led_8c.html#a7cd1d03b4baad9cb20bf1a43046f61a2" target="_top" xlink:title="led_stop_pattern">
<polygon fill="white" stroke="black" points="154,-376 154,-395 243,-395 243,-376 154,-376"/>
<text text-anchor="middle" x="198.5" y="-383" font-family="Helvetica,sans-Serif" font-size="10.00">led_stop_pattern</text>
</a>
</g>
</g>
<!-- Node355&#45;&gt;Node361 -->
<g id="edge7" class="edge"><title>Node355&#45;&gt;Node361</title>
<path fill="none" stroke="midnightblue" d="M54.1982,-193.211C63.3673,-219.914 91.9482,-295.697 136,-344.5 145.431,-354.948 158.069,-363.969 169.436,-370.868"/>
<polygon fill="midnightblue" stroke="midnightblue" points="167.785,-373.956 178.193,-375.933 171.289,-367.897 167.785,-373.956"/>
</g>
<!-- Node362 -->
<g id="node8" class="node"><title>Node362</title>
<g id="a_node8"><a xlink:href="wifi_8c.html#a0be23fd8148c6a3abf21c739359bed52" target="_top" xlink:title="wifi_default">
<polygon fill="white" stroke="black" points="165.5,-196 165.5,-215 231.5,-215 231.5,-196 165.5,-196"/>
<text text-anchor="middle" x="198.5" y="-203" font-family="Helvetica,sans-Serif" font-size="10.00">wifi_default</text>
</a>
</g>
</g>
<!-- Node355&#45;&gt;Node362 -->
<g id="edge9" class="edge"><title>Node355&#45;&gt;Node362</title>
<path fill="none" stroke="midnightblue" d="M100.19,-190.887C117.95,-193.554 137.833,-196.54 154.974,-199.114"/>
<polygon fill="midnightblue" stroke="midnightblue" points="154.84,-202.633 165.249,-200.657 155.88,-195.711 154.84,-202.633"/>
</g>
<!-- Node383 -->
<g id="node29" class="node"><title>Node383</title>
<g id="a_node29"><a xlink:href="wifi_8c.html#ac4389ba687a71cbb616f05b02427eb2a" target="_top" xlink:title="wifi_fallback">
<polygon fill="white" stroke="black" points="163,-234 163,-253 234,-253 234,-234 163,-234"/>
<text text-anchor="middle" x="198.5" y="-241" font-family="Helvetica,sans-Serif" font-size="10.00">wifi_fallback</text>
</a>
</g>
</g>
<!-- Node355&#45;&gt;Node383 -->
<g id="edge33" class="edge"><title>Node355&#45;&gt;Node383</title>
<path fill="none" stroke="midnightblue" d="M68.8882,-193.1C85.8526,-201.97 112.213,-215.149 136,-224.5 141.597,-226.7 147.558,-228.815 153.483,-230.783"/>
<polygon fill="midnightblue" stroke="midnightblue" points="152.759,-234.226 163.35,-233.945 154.896,-227.56 152.759,-234.226"/>
</g>
<!-- Node384 -->
<g id="node30" class="node"><title>Node384</title>
<g id="a_node30"><a xlink:href="wifi_8c.html#a5ca49e6386831cffe58dbcc5d8845cc5" target="_top" xlink:title="wifi_scan_result_cb\l_unregister">
<polygon fill="white" stroke="black" points="147,-146.5 147,-176.5 250,-176.5 250,-146.5 147,-146.5"/>
<text text-anchor="start" x="155" y="-164.5" font-family="Helvetica,sans-Serif" font-size="10.00">wifi_scan_result_cb</text>
<text text-anchor="middle" x="198.5" y="-153.5" font-family="Helvetica,sans-Serif" font-size="10.00">_unregister</text>
</a>
</g>
</g>
<!-- Node355&#45;&gt;Node384 -->
<g id="edge40" class="edge"><title>Node355&#45;&gt;Node384</title>
<path fill="none" stroke="midnightblue" d="M100.19,-176.113C111.944,-174.348 124.628,-172.443 136.832,-170.611"/>
<polygon fill="midnightblue" stroke="midnightblue" points="137.57,-174.039 146.94,-169.093 136.531,-167.117 137.57,-174.039"/>
</g>
<!-- Node385 -->
<g id="node31" class="node"><title>Node385</title>
<g id="a_node31"><a xlink:href="wifi_8c.html#a2d61a3854e1f7d67dcbcb0c7da23c8cc" target="_top" xlink:title="wifi_start_scan">
<polygon fill="white" stroke="black" points="157,-50 157,-69 240,-69 240,-50 157,-50"/>
<text text-anchor="middle" x="198.5" y="-57" font-family="Helvetica,sans-Serif" font-size="10.00">wifi_start_scan</text>
</a>
</g>
</g>
<!-- Node355&#45;&gt;Node385 -->
<g id="edge41" class="edge"><title>Node355&#45;&gt;Node385</title>
<path fill="none" stroke="midnightblue" d="M58.9874,-173.83C73.2868,-156.882 104.701,-121.262 136,-96.5 146.535,-88.1649 159.105,-80.288 170.126,-73.9616"/>
<polygon fill="midnightblue" stroke="midnightblue" points="171.919,-76.9692 178.942,-69.0362 168.505,-70.8584 171.919,-76.9692"/>
</g>
<!-- Node390 -->
<g id="node36" class="node"><title>Node390</title>
<g id="a_node36"><a xlink:href="user__interface_8h.html#ad61f32757e670d1a2feb7e445992fd1a" target="_top" xlink:title="wifi_station_get_connect\l_status">
<polygon fill="white" stroke="black" points="136,-0.5 136,-30.5 261,-30.5 261,-0.5 136,-0.5"/>
<text text-anchor="start" x="144" y="-18.5" font-family="Helvetica,sans-Serif" font-size="10.00">wifi_station_get_connect</text>
<text text-anchor="middle" x="198.5" y="-7.5" font-family="Helvetica,sans-Serif" font-size="10.00">_status</text>
</a>
</g>
</g>
<!-- Node355&#45;&gt;Node390 -->
<g id="edge49" class="edge"><title>Node355&#45;&gt;Node390</title>
<path fill="none" stroke="midnightblue" d="M54.2988,-173.705C63.3407,-148.25 90.8929,-79.2944 136,-40.5 137.95,-38.8231 140.027,-37.2487 142.194,-35.7715"/>
<polygon fill="midnightblue" stroke="midnightblue" points="144.141,-38.6851 150.923,-30.5453 140.545,-32.6792 144.141,-38.6851"/>
</g>
<!-- Node357 -->
<g id="node3" class="node"><title>Node357</title>
<g id="a_node3"><a xlink:href="led_8c.html#af6a79b211d188e643a4f1cf7552ac7ee" target="_top" xlink:title="led_blinker_timer_func">
<polygon fill="white" stroke="black" points="302.5,-366 302.5,-385 416.5,-385 416.5,-366 302.5,-366"/>
<text text-anchor="middle" x="359.5" y="-373" font-family="Helvetica,sans-Serif" font-size="10.00">led_blinker_timer_func</text>
</a>
</g>
</g>
<!-- Node356&#45;&gt;Node357 -->
<g id="edge2" class="edge"><title>Node356&#45;&gt;Node357</title>
<path fill="none" stroke="midnightblue" d="M229.351,-335.061C248.639,-341.221 274.288,-349.381 297,-356.5 303.663,-358.588 310.737,-360.789 317.625,-362.923"/>
<polygon fill="midnightblue" stroke="midnightblue" points="316.926,-366.371 327.513,-365.981 318.994,-359.683 316.926,-366.371"/>
</g>
<!-- Node358 -->
<g id="node4" class="node"><title>Node358</title>
<g id="a_node4"><a xlink:href="led_8c.html#a0a23edee5e1db0cd2928c18a42ffe96f" target="_top" xlink:title="led_on">
<polygon fill="white" stroke="black" points="508.5,-366 508.5,-385 553.5,-385 553.5,-366 508.5,-366"/>
<text text-anchor="middle" x="531" y="-373" font-family="Helvetica,sans-Serif" font-size="10.00">led_on</text>
</a>
</g>
</g>
<!-- Node357&#45;&gt;Node358 -->
<g id="edge3" class="edge"><title>Node357&#45;&gt;Node358</title>
<path fill="none" stroke="midnightblue" d="M416.941,-375.5C443.878,-375.5 475.125,-375.5 497.934,-375.5"/>
<polygon fill="midnightblue" stroke="midnightblue" points="498.085,-379 508.085,-375.5 498.085,-372 498.085,-379"/>
</g>
<!-- Node360 -->
<g id="node6" class="node"><title>Node360</title>
<g id="a_node6"><a xlink:href="led_8c.html#a7ef0b27e501c77cd25b8bb7a2de6d8bd" target="_top" xlink:title="led_off">
<polygon fill="white" stroke="black" points="508,-404 508,-423 554,-423 554,-404 508,-404"/>
<text text-anchor="middle" x="531" y="-411" font-family="Helvetica,sans-Serif" font-size="10.00">led_off</text>
</a>
</g>
</g>
<!-- Node357&#45;&gt;Node360 -->
<g id="edge5" class="edge"><title>Node357&#45;&gt;Node360</title>
<path fill="none" stroke="midnightblue" d="M403.272,-385.089C432.709,-391.688 471.185,-400.314 497.986,-406.323"/>
<polygon fill="midnightblue" stroke="midnightblue" points="497.469,-409.794 507.993,-408.566 499.001,-402.963 497.469,-409.794"/>
</g>
<!-- Node359 -->
<g id="node5" class="node"><title>Node359</title>
<g id="a_node5"><a xlink:href="gpio_8h.html#a83bac74ff5b2158e0c86da73ada29718" target="_top" xlink:title="gpio_output_set">
<polygon fill="white" stroke="black" points="640,-385 640,-404 726,-404 726,-385 640,-385"/>
<text text-anchor="middle" x="683" y="-392" font-family="Helvetica,sans-Serif" font-size="10.00">gpio_output_set</text>
</a>
</g>
</g>
<!-- Node358&#45;&gt;Node359 -->
<g id="edge4" class="edge"><title>Node358&#45;&gt;Node359</title>
<path fill="none" stroke="midnightblue" d="M553.811,-378.263C573.681,-380.78 603.813,-384.596 629.871,-387.897"/>
<polygon fill="midnightblue" stroke="midnightblue" points="629.639,-391.395 639.999,-389.18 630.518,-384.451 629.639,-391.395"/>
</g>
<!-- Node360&#45;&gt;Node359 -->
<g id="edge6" class="edge"><title>Node360&#45;&gt;Node359</title>
<path fill="none" stroke="midnightblue" d="M554.133,-410.696C573.99,-408.181 603.905,-404.392 629.809,-401.111"/>
<polygon fill="midnightblue" stroke="midnightblue" points="630.399,-404.564 639.88,-399.835 629.519,-397.62 630.399,-404.564"/>
</g>
<!-- Node361&#45;&gt;Node360 -->
<g id="edge8" class="edge"><title>Node361&#45;&gt;Node360</title>
<path fill="none" stroke="midnightblue" d="M243.173,-389.632C259.994,-391.197 279.387,-392.969 297,-394.5 368.683,-400.731 452.827,-407.444 497.793,-410.983"/>
<polygon fill="midnightblue" stroke="midnightblue" points="497.583,-414.477 507.826,-411.771 498.131,-407.499 497.583,-414.477"/>
</g>
<!-- Node363 -->
<g id="node9" class="node"><title>Node363</title>
<g id="a_node9"><a xlink:href="tinyprintf_8c.html#a9738cbc6c538d210941db282e240c7d6" target="_top" xlink:title="tfp_snprintf">
<polygon fill="white" stroke="black" points="327,-202 327,-221 392,-221 392,-202 327,-202"/>
<text text-anchor="middle" x="359.5" y="-209" font-family="Helvetica,sans-Serif" font-size="10.00">tfp_snprintf</text>
</a>
</g>
</g>
<!-- Node362&#45;&gt;Node363 -->
<g id="edge10" class="edge"><title>Node362&#45;&gt;Node363</title>
<path fill="none" stroke="midnightblue" d="M231.676,-206.714C256.189,-207.639 290.141,-208.92 316.747,-209.924"/>
<polygon fill="midnightblue" stroke="midnightblue" points="316.79,-213.428 326.914,-210.308 317.054,-206.433 316.79,-213.428"/>
</g>
<!-- Node376 -->
<g id="node22" class="node"><title>Node376</title>
<g id="a_node22"><a xlink:href="wifi_8c.html#a2091cde351b02dbc8bd9d52273488bba" target="_top" xlink:title="wifi_get_rssi_timer_func">
<polygon fill="white" stroke="black" points="298.5,-88 298.5,-107 420.5,-107 420.5,-88 298.5,-88"/>
<text text-anchor="middle" x="359.5" y="-95" font-family="Helvetica,sans-Serif" font-size="10.00">wifi_get_rssi_timer_func</text>
</a>
</g>
</g>
<!-- Node362&#45;&gt;Node376 -->
<g id="edge26" class="edge"><title>Node362&#45;&gt;Node376</title>
<path fill="none" stroke="midnightblue" d="M231.589,-200.676C241.852,-197.879 252.693,-193.464 261,-186.5 287.809,-164.024 270.191,-138.976 297,-116.5 299.023,-114.804 301.197,-113.259 303.476,-111.852"/>
<polygon fill="midnightblue" stroke="midnightblue" points="305.422,-114.785 312.692,-107.079 302.203,-108.569 305.422,-114.785"/>
</g>
<!-- Node378 -->
<g id="node24" class="node"><title>Node378</title>
<g id="a_node24"><a xlink:href="user__interface_8h.html#a77323412cda193d0b8f18652e4d08e77" target="_top" xlink:title="wifi_set_opmode_current">
<polygon fill="white" stroke="black" points="297,-164 297,-183 422,-183 422,-164 297,-164"/>
<text text-anchor="middle" x="359.5" y="-171" font-family="Helvetica,sans-Serif" font-size="10.00">wifi_set_opmode_current</text>
</a>
</g>
</g>
<!-- Node362&#45;&gt;Node378 -->
<g id="edge28" class="edge"><title>Node362&#45;&gt;Node378</title>
<path fill="none" stroke="midnightblue" d="M231.676,-199.024C251.685,-194.997 277.982,-189.705 301.44,-184.984"/>
<polygon fill="midnightblue" stroke="midnightblue" points="302.18,-188.405 311.292,-183.001 300.798,-181.543 302.18,-188.405"/>
</g>
<!-- Node379 -->
<g id="node25" class="node"><title>Node379</title>
<g id="a_node25"><a xlink:href="user__interface_8h.html#ab03cd1e7e4ad93cd241c94bd57430384" target="_top" xlink:title="wifi_station_connect">
<polygon fill="white" stroke="black" points="306.5,-126 306.5,-145 412.5,-145 412.5,-126 306.5,-126"/>
<text text-anchor="middle" x="359.5" y="-133" font-family="Helvetica,sans-Serif" font-size="10.00">wifi_station_connect</text>
</a>
</g>
</g>
<!-- Node362&#45;&gt;Node379 -->
<g id="edge29" class="edge"><title>Node362&#45;&gt;Node379</title>
<path fill="none" stroke="midnightblue" d="M231.536,-198.406C241.354,-195.505 251.946,-191.602 261,-186.5 279.65,-175.991 278.35,-165.009 297,-154.5 300.884,-152.312 305.05,-150.344 309.317,-148.581"/>
<polygon fill="midnightblue" stroke="midnightblue" points="310.614,-151.833 318.748,-145.044 308.156,-145.279 310.614,-151.833"/>
</g>
<!-- Node380 -->
<g id="node26" class="node"><title>Node380</title>
<g id="a_node26"><a xlink:href="user__interface_8h.html#aba69e9646b1f29d8a72972787400f4f1" target="_top" xlink:title="wifi_station_disconnect">
<polygon fill="white" stroke="black" points="300,-328 300,-347 419,-347 419,-328 300,-328"/>
<text text-anchor="middle" x="359.5" y="-335" font-family="Helvetica,sans-Serif" font-size="10.00">wifi_station_disconnect</text>
</a>
</g>
</g>
<!-- Node362&#45;&gt;Node380 -->
<g id="edge30" class="edge"><title>Node362&#45;&gt;Node380</title>
<path fill="none" stroke="midnightblue" d="M231.726,-209.727C242.118,-212.478 253.004,-217.016 261,-224.5 293.662,-255.071 264.338,-287.929 297,-318.5 298.69,-320.082 300.51,-321.533 302.427,-322.863"/>
<polygon fill="midnightblue" stroke="midnightblue" points="300.934,-326.04 311.355,-327.954 304.402,-319.96 300.934,-326.04"/>
</g>
<!-- Node381 -->
<g id="node27" class="node"><title>Node381</title>
<g id="a_node27"><a xlink:href="user__interface_8h.html#a1f0be53caaf81058292a1e6559bdaa36" target="_top" xlink:title="wifi_station_get_config">
<polygon fill="white" stroke="black" points="301.5,-290 301.5,-309 417.5,-309 417.5,-290 301.5,-290"/>
<text text-anchor="middle" x="359.5" y="-297" font-family="Helvetica,sans-Serif" font-size="10.00">wifi_station_get_config</text>
</a>
</g>
</g>
<!-- Node362&#45;&gt;Node381 -->
<g id="edge31" class="edge"><title>Node362&#45;&gt;Node381</title>
<path fill="none" stroke="midnightblue" d="M231.529,-210.884C241.672,-213.717 252.457,-218.011 261,-224.5 284.563,-242.396 273.437,-262.604 297,-280.5 299.457,-282.366 302.099,-284.051 304.859,-285.571"/>
<polygon fill="midnightblue" stroke="midnightblue" points="303.448,-288.776 313.985,-289.89 306.443,-282.449 303.448,-288.776"/>
</g>
<!-- Node382 -->
<g id="node28" class="node"><title>Node382</title>
<g id="a_node28"><a xlink:href="user__interface_8h.html#afd1188add491eee183d4ee2daa37dca6" target="_top" xlink:title="wifi_station_set_config\l_current">
<polygon fill="white" stroke="black" points="301.5,-240.5 301.5,-270.5 417.5,-270.5 417.5,-240.5 301.5,-240.5"/>
<text text-anchor="start" x="309.5" y="-258.5" font-family="Helvetica,sans-Serif" font-size="10.00">wifi_station_set_config</text>
<text text-anchor="middle" x="359.5" y="-247.5" font-family="Helvetica,sans-Serif" font-size="10.00">_current</text>
</a>
</g>
</g>
<!-- Node362&#45;&gt;Node382 -->
<g id="edge32" class="edge"><title>Node362&#45;&gt;Node382</title>
<path fill="none" stroke="midnightblue" d="M230.487,-215.019C240.255,-218.034 251.083,-221.392 261,-224.5 274.229,-228.647 288.456,-233.147 301.841,-237.399"/>
<polygon fill="midnightblue" stroke="midnightblue" points="300.822,-240.747 311.412,-240.443 302.944,-234.077 300.822,-240.747"/>
</g>
<!-- Node364 -->
<g id="node10" class="node"><title>Node364</title>
<g id="a_node10"><a xlink:href="tinyprintf_8c.html#ac8c8a66133cf0d7009c0d73b55311a44" target="_top" xlink:title="tfp_vsnprintf">
<polygon fill="white" stroke="black" points="495.5,-202 495.5,-221 566.5,-221 566.5,-202 495.5,-202"/>
<text text-anchor="middle" x="531" y="-209" font-family="Helvetica,sans-Serif" font-size="10.00">tfp_vsnprintf</text>
</a>
</g>
</g>
<!-- Node363&#45;&gt;Node364 -->
<g id="edge11" class="edge"><title>Node363&#45;&gt;Node364</title>
<path fill="none" stroke="midnightblue" d="M392.382,-211.5C418.517,-211.5 455.821,-211.5 484.998,-211.5"/>
<polygon fill="midnightblue" stroke="midnightblue" points="485.345,-215 495.345,-211.5 485.345,-208 485.345,-215"/>
</g>
<!-- Node365 -->
<g id="node11" class="node"><title>Node365</title>
<g id="a_node11"><a xlink:href="tinyprintf_8c.html#a5877e42444463efc71a91b5fe76a6145" target="_top" xlink:title="tfp_format">
<polygon fill="white" stroke="black" points="652.5,-183 652.5,-202 713.5,-202 713.5,-183 652.5,-183"/>
<text text-anchor="middle" x="683" y="-190" font-family="Helvetica,sans-Serif" font-size="10.00">tfp_format</text>
</a>
</g>
</g>
<!-- Node364&#45;&gt;Node365 -->
<g id="edge12" class="edge"><title>Node364&#45;&gt;Node365</title>
<path fill="none" stroke="midnightblue" d="M566.79,-207.093C589.407,-204.228 618.95,-200.486 642.457,-197.509"/>
<polygon fill="midnightblue" stroke="midnightblue" points="642.973,-200.971 652.454,-196.242 642.094,-194.027 642.973,-200.971"/>
</g>
<!-- Node375 -->
<g id="node21" class="node"><title>Node375</title>
<g id="a_node21"><a xlink:href="tinyprintf_8c.html#a919051024b2d729e34a54648b3f2462d" target="_top" xlink:title="_vsnprintf_putcf">
<polygon fill="white" stroke="black" points="640,-221 640,-240 726,-240 726,-221 640,-221"/>
<text text-anchor="middle" x="683" y="-228" font-family="Helvetica,sans-Serif" font-size="10.00">_vsnprintf_putcf</text>
</a>
</g>
</g>
<!-- Node364&#45;&gt;Node375 -->
<g id="edge25" class="edge"><title>Node364&#45;&gt;Node375</title>
<path fill="none" stroke="midnightblue" d="M566.79,-215.907C585.533,-218.281 609.032,-221.257 629.911,-223.902"/>
<polygon fill="midnightblue" stroke="midnightblue" points="629.557,-227.385 639.917,-225.17 630.436,-220.441 629.557,-227.385"/>
</g>
<!-- Node366 -->
<g id="node12" class="node"><title>Node366</title>
<g id="a_node12"><a xlink:href="tinyprintf_8c.html#aa97593a5e53af85b608ad0910db92d77" target="_top" xlink:title="a2u">
<polygon fill="white" stroke="black" points="770,-316 770,-335 802,-335 802,-316 770,-316"/>
<text text-anchor="middle" x="786" y="-323" font-family="Helvetica,sans-Serif" font-size="10.00">a2u</text>
</a>
</g>
</g>
<!-- Node365&#45;&gt;Node366 -->
<g id="edge13" class="edge"><title>Node365&#45;&gt;Node366</title>
<path fill="none" stroke="midnightblue" d="M713.031,-202.055C717.789,-204.572 722.349,-207.683 726,-211.5 755.781,-242.631 738.668,-265.284 762,-301.5 763.477,-303.792 765.192,-306.056 767.007,-308.224"/>
<polygon fill="midnightblue" stroke="midnightblue" points="764.836,-311.028 774.211,-315.964 769.96,-306.259 764.836,-311.028"/>
</g>
<!-- Node368 -->
<g id="node14" class="node"><title>Node368</title>
<g id="a_node14"><a xlink:href="tinyprintf_8c.html#abcf035dd576671b0cc897de9dd8c75b0" target="_top" xlink:title="ulli2a">
<polygon fill="white" stroke="black" points="846,-259 846,-278 885,-278 885,-259 846,-259"/>
<text text-anchor="middle" x="865.5" y="-266" font-family="Helvetica,sans-Serif" font-size="10.00">ulli2a</text>
</a>
</g>
</g>
<!-- Node365&#45;&gt;Node368 -->
<g id="edge15" class="edge"><title>Node365&#45;&gt;Node368</title>
<path fill="none" stroke="midnightblue" d="M711.604,-202.191C716.719,-204.735 721.774,-207.822 726,-211.5 748.602,-231.17 735.759,-254.037 762,-268.5 784.5,-280.902 814.223,-279.315 835.865,-275.574"/>
<polygon fill="midnightblue" stroke="midnightblue" points="836.641,-278.988 845.773,-273.616 835.284,-272.121 836.641,-278.988"/>
</g>
<!-- Node369 -->
<g id="node15" class="node"><title>Node369</title>
<g id="a_node15"><a xlink:href="tinyprintf_8c.html#a1d61347854a8c290d59b4a21efcefd75" target="_top" xlink:title="uli2a">
<polygon fill="white" stroke="black" points="847,-173 847,-192 884,-192 884,-173 847,-173"/>
<text text-anchor="middle" x="865.5" y="-180" font-family="Helvetica,sans-Serif" font-size="10.00">uli2a</text>
</a>
</g>
</g>
<!-- Node365&#45;&gt;Node369 -->
<g id="edge16" class="edge"><title>Node365&#45;&gt;Node369</title>
<path fill="none" stroke="midnightblue" d="M713.6,-194.01C739.178,-194.955 777.105,-195.493 810,-192.5 818.854,-191.694 828.419,-190.167 837.026,-188.544"/>
<polygon fill="midnightblue" stroke="midnightblue" points="837.822,-191.955 846.94,-186.559 836.447,-185.091 837.822,-191.955"/>
</g>
<!-- Node370 -->
<g id="node16" class="node"><title>Node370</title>
<g id="a_node16"><a xlink:href="tinyprintf_8c.html#ac87ff66a592723f55692eaf8e3f19df8" target="_top" xlink:title="ui2a">
<polygon fill="white" stroke="black" points="848,-116 848,-135 883,-135 883,-116 848,-116"/>
<text text-anchor="middle" x="865.5" y="-123" font-family="Helvetica,sans-Serif" font-size="10.00">ui2a</text>
</a>
</g>
</g>
<!-- Node365&#45;&gt;Node370 -->
<g id="edge17" class="edge"><title>Node365&#45;&gt;Node370</title>
<path fill="none" stroke="midnightblue" d="M701.263,-182.986C716.812,-174.685 740.468,-162.716 762,-154.5 787.276,-144.855 817.134,-136.764 838.085,-131.6"/>
<polygon fill="midnightblue" stroke="midnightblue" points="838.974,-134.985 847.876,-129.239 837.334,-128.18 838.974,-134.985"/>
</g>
<!-- Node371 -->
<g id="node17" class="node"><title>Node371</title>
<g id="a_node17"><a xlink:href="tinyprintf_8c.html#a6252dbfebb2c8783c4e3107d551082dd" target="_top" xlink:title="putchw">
<polygon fill="white" stroke="black" points="762,-50 762,-69 810,-69 810,-50 762,-50"/>
<text text-anchor="middle" x="786" y="-57" font-family="Helvetica,sans-Serif" font-size="10.00">putchw</text>
</a>
</g>
</g>
<!-- Node365&#45;&gt;Node371 -->
<g id="edge18" class="edge"><title>Node365&#45;&gt;Node371</title>
<path fill="none" stroke="midnightblue" d="M689.266,-182.995C700.829,-162.581 729.976,-113.558 762,-78.5 762.734,-77.6969 763.502,-76.8978 764.293,-76.1073"/>
<polygon fill="midnightblue" stroke="midnightblue" points="766.697,-78.6526 771.778,-69.3554 762.008,-73.4552 766.697,-78.6526"/>
</g>
<!-- Node372 -->
<g id="node18" class="node"><title>Node372</title>
<g id="a_node18"><a xlink:href="tinyprintf_8c.html#a49c6d2b3d4088012f2c1fe344eef69f3" target="_top" xlink:title="lli2a">
<polygon fill="white" stroke="black" points="769,-240 769,-259 803,-259 803,-240 769,-240"/>
<text text-anchor="middle" x="786" y="-247" font-family="Helvetica,sans-Serif" font-size="10.00">lli2a</text>
</a>
</g>
</g>
<!-- Node365&#45;&gt;Node372 -->
<g id="edge19" class="edge"><title>Node365&#45;&gt;Node372</title>
<path fill="none" stroke="midnightblue" d="M706.968,-202.155C713.232,-204.985 719.955,-208.209 726,-211.5 738.54,-218.327 751.963,-226.866 762.832,-234.12"/>
<polygon fill="midnightblue" stroke="midnightblue" points="761.044,-237.136 771.286,-239.845 764.969,-231.339 761.044,-237.136"/>
</g>
<!-- Node373 -->
<g id="node19" class="node"><title>Node373</title>
<g id="a_node19"><a xlink:href="tinyprintf_8c.html#afebb7696337c3f599b5e8db35c560684" target="_top" xlink:title="li2a">
<polygon fill="white" stroke="black" points="770,-164 770,-183 802,-183 802,-164 770,-164"/>
<text text-anchor="middle" x="786" y="-171" font-family="Helvetica,sans-Serif" font-size="10.00">li2a</text>
</a>
</g>
</g>
<!-- Node365&#45;&gt;Node373 -->
<g id="edge21" class="edge"><title>Node365&#45;&gt;Node373</title>
<path fill="none" stroke="midnightblue" d="M713.757,-186.902C728.41,-184.146 745.882,-180.859 759.856,-178.23"/>
<polygon fill="midnightblue" stroke="midnightblue" points="760.576,-181.656 769.756,-176.368 759.282,-174.777 760.576,-181.656"/>
</g>
<!-- Node374 -->
<g id="node20" class="node"><title>Node374</title>
<g id="a_node20"><a xlink:href="tinyprintf_8c.html#a90f9fd8f2133cda7f50be8d67823405c" target="_top" xlink:title="i2a">
<polygon fill="white" stroke="black" points="771.5,-88 771.5,-107 800.5,-107 800.5,-88 771.5,-88"/>
<text text-anchor="middle" x="786" y="-95" font-family="Helvetica,sans-Serif" font-size="10.00">i2a</text>
</a>
</g>
</g>
<!-- Node365&#45;&gt;Node374 -->
<g id="edge23" class="edge"><title>Node365&#45;&gt;Node374</title>
<path fill="none" stroke="midnightblue" d="M694.428,-182.691C711.679,-166.465 746.342,-133.862 767.427,-114.029"/>
<polygon fill="midnightblue" stroke="midnightblue" points="769.893,-116.515 774.779,-107.114 765.097,-111.416 769.893,-116.515"/>
</g>
<!-- Node367 -->
<g id="node13" class="node"><title>Node367</title>
<g id="a_node13"><a xlink:href="tinyprintf_8c.html#aa853a0c5ba64fa2546d488b86192e7e3" target="_top" xlink:title="a2d">
<polygon fill="white" stroke="black" points="849.5,-316 849.5,-335 881.5,-335 881.5,-316 849.5,-316"/>
<text text-anchor="middle" x="865.5" y="-323" font-family="Helvetica,sans-Serif" font-size="10.00">a2d</text>
</a>
</g>
</g>
<!-- Node366&#45;&gt;Node367 -->
<g id="edge14" class="edge"><title>Node366&#45;&gt;Node367</title>
<path fill="none" stroke="midnightblue" d="M802.312,-325.5C812.888,-325.5 827.197,-325.5 839.423,-325.5"/>
<polygon fill="midnightblue" stroke="midnightblue" points="839.484,-329 849.484,-325.5 839.484,-322 839.484,-329"/>
</g>
<!-- Node372&#45;&gt;Node368 -->
<g id="edge20" class="edge"><title>Node372&#45;&gt;Node368</title>
<path fill="none" stroke="midnightblue" d="M803.058,-253.437C812.563,-255.767 824.88,-258.787 835.987,-261.51"/>
<polygon fill="midnightblue" stroke="midnightblue" points="835.187,-264.917 845.733,-263.899 836.854,-258.119 835.187,-264.917"/>
</g>
<!-- Node373&#45;&gt;Node369 -->
<g id="edge22" class="edge"><title>Node373&#45;&gt;Node369</title>
<path fill="none" stroke="midnightblue" d="M802.312,-175.278C812.106,-176.416 825.101,-177.925 836.678,-179.269"/>
<polygon fill="midnightblue" stroke="midnightblue" points="836.442,-182.765 846.779,-180.442 837.25,-175.812 836.442,-182.765"/>
</g>
<!-- Node374&#45;&gt;Node370 -->
<g id="edge24" class="edge"><title>Node374&#45;&gt;Node370</title>
<path fill="none" stroke="midnightblue" d="M800.855,-102.506C811.231,-106.254 825.735,-111.494 838.277,-116.026"/>
<polygon fill="midnightblue" stroke="midnightblue" points="837.204,-119.36 847.798,-119.466 839.583,-112.776 837.204,-119.36"/>
</g>
<!-- Node377 -->
<g id="node23" class="node"><title>Node377</title>
<g id="a_node23"><a xlink:href="user__interface_8h.html#af8572ea9f6e1b7785e9df6941932bb3d" target="_top" xlink:title="wifi_station_get_rssi">
<polygon fill="white" stroke="black" points="478,-126 478,-145 584,-145 584,-126 478,-126"/>
<text text-anchor="middle" x="531" y="-133" font-family="Helvetica,sans-Serif" font-size="10.00">wifi_station_get_rssi</text>
</a>
</g>
</g>
<!-- Node376&#45;&gt;Node377 -->
<g id="edge27" class="edge"><title>Node376&#45;&gt;Node377</title>
<path fill="none" stroke="midnightblue" d="M403.272,-107.089C425.841,-112.149 453.723,-118.4 477.583,-123.749"/>
<polygon fill="midnightblue" stroke="midnightblue" points="477.012,-127.208 487.536,-125.98 478.543,-120.377 477.012,-127.208"/>
</g>
<!-- Node383&#45;&gt;Node363 -->
<g id="edge34" class="edge"><title>Node383&#45;&gt;Node363</title>
<path fill="none" stroke="midnightblue" d="M234.001,-236.556C258.351,-231.656 291.1,-225.065 316.898,-219.873"/>
<polygon fill="midnightblue" stroke="midnightblue" points="317.656,-223.29 326.769,-217.886 316.275,-216.428 317.656,-223.29"/>
</g>
<!-- Node383&#45;&gt;Node378 -->
<g id="edge35" class="edge"><title>Node383&#45;&gt;Node378</title>
<path fill="none" stroke="midnightblue" d="M234.085,-235.635C243.165,-232.824 252.725,-229.163 261,-224.5 279.65,-213.991 278.35,-203.009 297,-192.5 300.884,-190.312 305.05,-188.344 309.317,-186.581"/>
<polygon fill="midnightblue" stroke="midnightblue" points="310.614,-189.833 318.748,-183.044 308.156,-183.279 310.614,-189.833"/>
</g>
<!-- Node383&#45;&gt;Node379 -->
<g id="edge36" class="edge"><title>Node383&#45;&gt;Node379</title>
<path fill="none" stroke="midnightblue" d="M234.139,-237.95C243.623,-235.133 253.378,-230.89 261,-224.5 287.809,-202.024 270.191,-176.976 297,-154.5 299.023,-152.804 301.197,-151.259 303.476,-149.852"/>
<polygon fill="midnightblue" stroke="midnightblue" points="305.422,-152.785 312.692,-145.079 302.203,-146.569 305.422,-152.785"/>
</g>
<!-- Node383&#45;&gt;Node380 -->
<g id="edge37" class="edge"><title>Node383&#45;&gt;Node380</title>
<path fill="none" stroke="midnightblue" d="M209.471,-253.16C226.239,-268.922 261.724,-300.24 297,-318.5 301.243,-320.696 305.783,-322.689 310.404,-324.484"/>
<polygon fill="midnightblue" stroke="midnightblue" points="309.337,-327.82 319.932,-327.896 311.697,-321.23 309.337,-327.82"/>
</g>
<!-- Node383&#45;&gt;Node381 -->
<g id="edge38" class="edge"><title>Node383&#45;&gt;Node381</title>
<path fill="none" stroke="midnightblue" d="M223.388,-253.047C243.033,-260.782 271.661,-271.788 297,-280.5 303.172,-282.622 309.729,-284.765 316.174,-286.809"/>
<polygon fill="midnightblue" stroke="midnightblue" points="315.55,-290.28 326.139,-289.921 317.637,-283.599 315.55,-290.28"/>
</g>
<!-- Node383&#45;&gt;Node382 -->
<g id="edge39" class="edge"><title>Node383&#45;&gt;Node382</title>
<path fill="none" stroke="midnightblue" d="M234.001,-246.104C250.723,-247.366 271.405,-248.927 291.078,-250.412"/>
<polygon fill="midnightblue" stroke="midnightblue" points="291.011,-253.916 301.247,-251.179 291.538,-246.936 291.011,-253.916"/>
</g>
<!-- Node386 -->
<g id="node32" class="node"><title>Node386</title>
<g id="a_node32"><a xlink:href="wifi_8c.html#ae7011f25db54676b86fefe2caa450a4a" target="_top" xlink:title="wifi_scan_timer_func">
<polygon fill="white" stroke="black" points="305,-50 305,-69 414,-69 414,-50 305,-50"/>
<text text-anchor="middle" x="359.5" y="-57" font-family="Helvetica,sans-Serif" font-size="10.00">wifi_scan_timer_func</text>
</a>
</g>
</g>
<!-- Node385&#45;&gt;Node386 -->
<g id="edge42" class="edge"><title>Node385&#45;&gt;Node386</title>
<path fill="none" stroke="midnightblue" d="M240.034,-53.5296C256.647,-52.807 276.276,-52.5867 294.728,-52.8688"/>
<polygon fill="midnightblue" stroke="midnightblue" points="294.761,-56.3701 304.831,-53.0772 294.905,-49.3716 294.761,-56.3701"/>
</g>
<!-- Node386&#45;&gt;Node355 -->
<g id="edge47" class="edge"><title>Node386&#45;&gt;Node355</title>
<path fill="none" stroke="midnightblue" d="M326.491,-69.0828C316.971,-72.0152 306.538,-75.3104 297,-78.5 224.869,-102.62 205.277,-105.11 136,-136.5 114.876,-146.072 91.9164,-158.924 75.1903,-168.769"/>
<polygon fill="midnightblue" stroke="midnightblue" points="73.3922,-165.766 66.5906,-173.89 76.9734,-171.781 73.3922,-165.766"/>
</g>
<!-- Node386&#45;&gt;Node385 -->
<g id="edge48" class="edge"><title>Node386&#45;&gt;Node385</title>
<path fill="none" stroke="midnightblue" d="M304.831,-65.9228C287.125,-66.3866 267.5,-66.3573 250.036,-65.835"/>
<polygon fill="midnightblue" stroke="midnightblue" points="250.155,-62.3371 240.034,-65.4704 249.9,-69.3324 250.155,-62.3371"/>
</g>
<!-- Node387 -->
<g id="node33" class="node"><title>Node387</title>
<g id="a_node33"><a xlink:href="wifi_8c.html#a79205b29f65bdd821ad9452bdbf0b747" target="_top" xlink:title="wifi_get_rssi">
<polygon fill="white" stroke="black" points="495.5,-50 495.5,-69 566.5,-69 566.5,-50 495.5,-50"/>
<text text-anchor="middle" x="531" y="-57" font-family="Helvetica,sans-Serif" font-size="10.00">wifi_get_rssi</text>
</a>
</g>
</g>
<!-- Node386&#45;&gt;Node387 -->
<g id="edge43" class="edge"><title>Node386&#45;&gt;Node387</title>
<path fill="none" stroke="midnightblue" d="M414.131,-59.5C436.969,-59.5 463.307,-59.5 485.097,-59.5"/>
<polygon fill="midnightblue" stroke="midnightblue" points="485.393,-63.0001 495.393,-59.5 485.393,-56.0001 485.393,-63.0001"/>
</g>
<!-- Node388 -->
<g id="node34" class="node"><title>Node388</title>
<g id="a_node34"><a xlink:href="wifi_8c.html#a189ec83a0503a6fc45b102014a80403b" target="_top" xlink:title="wifi_scan_timeout_timer_func">
<polygon fill="white" stroke="black" points="458,-12 458,-31 604,-31 604,-12 458,-12"/>
<text text-anchor="middle" x="531" y="-19" font-family="Helvetica,sans-Serif" font-size="10.00">wifi_scan_timeout_timer_func</text>
</a>
</g>
</g>
<!-- Node386&#45;&gt;Node388 -->
<g id="edge44" class="edge"><title>Node386&#45;&gt;Node388</title>
<path fill="none" stroke="midnightblue" d="M403.272,-49.911C425.841,-44.8513 453.723,-38.6004 477.583,-33.2512"/>
<polygon fill="midnightblue" stroke="midnightblue" points="478.543,-36.6229 487.536,-31.0201 477.012,-29.7925 478.543,-36.6229"/>
</g>
<!-- Node389 -->
<g id="node35" class="node"><title>Node389</title>
<g id="a_node35"><a xlink:href="user__interface_8h.html#ac80b0607b1cb20c161c681581c998626" target="_top" xlink:title="wifi_station_scan">
<polygon fill="white" stroke="black" points="485,-88 485,-107 577,-107 577,-88 485,-88"/>
<text text-anchor="middle" x="531" y="-95" font-family="Helvetica,sans-Serif" font-size="10.00">wifi_station_scan</text>
</a>
</g>
</g>
<!-- Node386&#45;&gt;Node389 -->
<g id="edge46" class="edge"><title>Node386&#45;&gt;Node389</title>
<path fill="none" stroke="midnightblue" d="M403.272,-69.089C425.841,-74.1487 453.723,-80.3996 477.583,-85.7488"/>
<polygon fill="midnightblue" stroke="midnightblue" points="477.012,-89.2075 487.536,-87.9799 478.543,-82.3771 477.012,-89.2075"/>
</g>
<!-- Node388&#45;&gt;Node385 -->
<g id="edge45" class="edge"><title>Node388&#45;&gt;Node385</title>
<path fill="none" stroke="midnightblue" d="M457.875,-25.3082C411.732,-28.2558 350.675,-33.105 297,-40.5 281.731,-42.6037 265.24,-45.5543 250.241,-48.5041"/>
<polygon fill="midnightblue" stroke="midnightblue" points="249.243,-45.1345 240.128,-50.5357 250.622,-51.9974 249.243,-45.1345"/>
</g>
</g>
</svg>
