<?xml version="1.0" encoding="UTF-8" standalone="no"?>
<!DOCTYPE svg PUBLIC "-//W3C//DTD SVG 1.1//EN"
 "http://www.w3.org/Graphics/SVG/1.1/DTD/svg11.dtd">
<!-- Generated by graphviz version 2.38.0 (20140413.2041)
 -->
<!-- Title: wifi_scan_done_cb Pages: 1 -->
<svg width="1084pt" height="159pt"
 viewBox="0.00 0.00 1084.00 158.57" xmlns="http://www.w3.org/2000/svg" xmlns:xlink="http://www.w3.org/1999/xlink">
<g id="graph0" class="graph" transform="scale(1 1) rotate(0) translate(4 154.568)">
<title>wifi_scan_done_cb</title>
<polygon fill="white" stroke="none" points="-4,4 -4,-154.568 1080,-154.568 1080,4 -4,4"/>
<!-- Node391 -->
<g id="node1" class="node"><title>Node391</title>
<polygon fill="#bfbfbf" stroke="black" points="0,-95.5 0,-114.5 100,-114.5 100,-95.5 0,-95.5"/>
<text text-anchor="middle" x="50" y="-102.5" font-family="Helvetica,sans-Serif" font-size="10.00">wifi_scan_done_cb</text>
</g>
<!-- Node392 -->
<g id="node2" class="node"><title>Node392</title>
<g id="a_node2"><a xlink:href="wifi_8c.html#ae7011f25db54676b86fefe2caa450a4a" target="_top" xlink:title="wifi_scan_timer_func">
<polygon fill="white" stroke="black" points="136,-114.5 136,-133.5 245,-133.5 245,-114.5 136,-114.5"/>
<text text-anchor="middle" x="190.5" y="-121.5" font-family="Helvetica,sans-Serif" font-size="10.00">wifi_scan_timer_func</text>
</a>
</g>
</g>
<!-- Node391&#45;&gt;Node392 -->
<g id="edge1" class="edge"><title>Node391&#45;&gt;Node392</title>
<path fill="none" stroke="midnightblue" d="M110.367,-113.144C118.795,-114.3 127.422,-115.484 135.735,-116.624"/>
<polygon fill="midnightblue" stroke="midnightblue" points="110.603,-109.644 100.22,-111.752 109.651,-116.579 110.603,-109.644"/>
</g>
<!-- Node393 -->
<g id="node3" class="node"><title>Node393</title>
<g id="a_node3"><a xlink:href="wifi_8c.html#a0d197abbbedf42c0522e20b43884c920" target="_top" xlink:title="acl_check_packet">
<polygon fill="white" stroke="black" points="582,-114.5 582,-133.5 677,-133.5 677,-114.5 582,-114.5"/>
<text text-anchor="middle" x="629.5" y="-121.5" font-family="Helvetica,sans-Serif" font-size="10.00">acl_check_packet</text>
</a>
</g>
</g>
<!-- Node392&#45;&gt;Node393 -->
<g id="edge2" class="edge"><title>Node392&#45;&gt;Node393</title>
<path fill="none" stroke="midnightblue" d="M255.341,-134.888C263.947,-136.091 272.676,-137.177 281,-138 398.227,-149.594 428.955,-156.304 546,-143 562.356,-141.141 580.192,-137.272 595.082,-133.507"/>
<polygon fill="midnightblue" stroke="midnightblue" points="255.727,-131.407 245.327,-133.43 254.719,-138.334 255.727,-131.407"/>
</g>
<!-- Node397 -->
<g id="node7" class="node"><title>Node397</title>
<g id="a_node7"><a xlink:href="wifi_8c.html#a2d61a3854e1f7d67dcbcb0c7da23c8cc" target="_top" xlink:title="wifi_start_scan">
<polygon fill="white" stroke="black" points="281,-76.5 281,-95.5 364,-95.5 364,-76.5 281,-76.5"/>
<text text-anchor="middle" x="322.5" y="-83.5" font-family="Helvetica,sans-Serif" font-size="10.00">wifi_start_scan</text>
</a>
</g>
</g>
<!-- Node392&#45;&gt;Node397 -->
<g id="edge6" class="edge"><title>Node392&#45;&gt;Node397</title>
<path fill="none" stroke="midnightblue" d="M217.818,-110.758C235.897,-104.189 260.252,-96.8156 280.814,-91.5813"/>
<polygon fill="midnightblue" stroke="midnightblue" points="216.33,-107.579 208.229,-114.408 218.82,-114.121 216.33,-107.579"/>
</g>
<!-- Node394 -->
<g id="node4" class="node"><title>Node394</title>
<g id="a_node4"><a xlink:href="wifi_8c.html#a3cea38a15b267ddabc1e6d5cf72b5ae8" target="_top" xlink:title="my_input_ap">
<polygon fill="white" stroke="black" points="732,-114.5 732,-133.5 804,-133.5 804,-114.5 732,-114.5"/>
<text text-anchor="middle" x="768" y="-121.5" font-family="Helvetica,sans-Serif" font-size="10.00">my_input_ap</text>
</a>
</g>
</g>
<!-- Node393&#45;&gt;Node394 -->
<g id="edge3" class="edge"><title>Node393&#45;&gt;Node394</title>
<path fill="none" stroke="midnightblue" d="M687.369,-124C702.442,-124 718.277,-124 731.82,-124"/>
<polygon fill="midnightblue" stroke="midnightblue" points="687.094,-120.5 677.094,-124 687.094,-127.5 687.094,-120.5"/>
</g>
<!-- Node395 -->
<g id="node5" class="node"><title>Node395</title>
<g id="a_node5"><a xlink:href="wifi_8c.html#aa87c06c3cbab2aa762551fcec59dc8f0" target="_top" xlink:title="wifi_handle_event_cb">
<polygon fill="white" stroke="black" points="859,-114.5 859,-133.5 969,-133.5 969,-114.5 859,-114.5"/>
<text text-anchor="middle" x="914" y="-121.5" font-family="Helvetica,sans-Serif" font-size="10.00">wifi_handle_event_cb</text>
</a>
</g>
</g>
<!-- Node394&#45;&gt;Node395 -->
<g id="edge4" class="edge"><title>Node394&#45;&gt;Node395</title>
<path fill="none" stroke="midnightblue" d="M814.61,-124C828.64,-124 844.222,-124 858.771,-124"/>
<polygon fill="midnightblue" stroke="midnightblue" points="814.226,-120.5 804.226,-124 814.226,-127.5 814.226,-120.5"/>
</g>
<!-- Node396 -->
<g id="node6" class="node"><title>Node396</title>
<g id="a_node6"><a xlink:href="wifi_8c.html#a574e5442f0b2b8f99c8d157836ab38ba" target="_top" xlink:title="wifi_connect">
<polygon fill="white" stroke="black" points="1005,-95.5 1005,-114.5 1076,-114.5 1076,-95.5 1005,-95.5"/>
<text text-anchor="middle" x="1040.5" y="-102.5" font-family="Helvetica,sans-Serif" font-size="10.00">wifi_connect</text>
</a>
</g>
</g>
<!-- Node395&#45;&gt;Node396 -->
<g id="edge5" class="edge"><title>Node395&#45;&gt;Node396</title>
<path fill="none" stroke="midnightblue" d="M979.189,-114.204C988.011,-112.858 996.781,-111.519 1004.79,-110.297"/>
<polygon fill="midnightblue" stroke="midnightblue" points="978.603,-110.753 969.245,-115.722 979.659,-117.673 978.603,-110.753"/>
</g>
<!-- Node397&#45;&gt;Node391 -->
<g id="edge11" class="edge"><title>Node397&#45;&gt;Node391</title>
<path fill="none" stroke="midnightblue" d="M270.898,-89.5543C222.084,-92.983 148.67,-98.1396 100.299,-101.537"/>
<polygon fill="midnightblue" stroke="midnightblue" points="271.193,-93.0423 280.923,-88.8501 270.703,-86.0595 271.193,-93.0423"/>
</g>
<!-- Node397&#45;&gt;Node392 -->
<g id="edge7" class="edge"><title>Node397&#45;&gt;Node392</title>
<path fill="none" stroke="midnightblue" d="M295.05,-99.2903C280.67,-104.509 262.348,-110.231 245.127,-114.982"/>
<polygon fill="midnightblue" stroke="midnightblue" points="296.65,-102.426 304.752,-95.5999 294.161,-95.8838 296.65,-102.426"/>
</g>
<!-- Node397&#45;&gt;Node396 -->
<g id="edge12" class="edge"><title>Node397&#45;&gt;Node396</title>
<path fill="none" stroke="midnightblue" d="M374.51,-86C435.078,-86 539.151,-86 628.5,-86 628.5,-86 628.5,-86 769,-86 853.975,-86 953.597,-95.4456 1004.97,-101.017"/>
<polygon fill="midnightblue" stroke="midnightblue" points="374.446,-82.5001 364.446,-86 374.446,-89.5001 374.446,-82.5001"/>
</g>
<!-- Node398 -->
<g id="node8" class="node"><title>Node398</title>
<g id="a_node8"><a xlink:href="wifi_8c.html#a189ec83a0503a6fc45b102014a80403b" target="_top" xlink:title="wifi_scan_timeout_timer_func">
<polygon fill="white" stroke="black" points="400,-114.5 400,-133.5 546,-133.5 546,-114.5 400,-114.5"/>
<text text-anchor="middle" x="473" y="-121.5" font-family="Helvetica,sans-Serif" font-size="10.00">wifi_scan_timeout_timer_func</text>
</a>
</g>
</g>
<!-- Node397&#45;&gt;Node398 -->
<g id="edge8" class="edge"><title>Node397&#45;&gt;Node398</title>
<path fill="none" stroke="midnightblue" d="M370.833,-98.1121C391.515,-103.404 415.419,-109.521 434.797,-114.48"/>
<polygon fill="midnightblue" stroke="midnightblue" points="371.528,-94.6774 360.973,-95.589 369.793,-101.459 371.528,-94.6774"/>
</g>
<!-- Node399 -->
<g id="node9" class="node"><title>Node399</title>
<g id="a_node9"><a xlink:href="watchdog_8c.html#a47b6861ffbed37fef88aa644f10ba917" target="_top" xlink:title="wifi_reconnect_timer_func">
<polygon fill="white" stroke="black" points="407.5,-38.5 407.5,-57.5 538.5,-57.5 538.5,-38.5 407.5,-38.5"/>
<text text-anchor="middle" x="473" y="-45.5" font-family="Helvetica,sans-Serif" font-size="10.00">wifi_reconnect_timer_func</text>
</a>
</g>
</g>
<!-- Node397&#45;&gt;Node399 -->
<g id="edge13" class="edge"><title>Node397&#45;&gt;Node399</title>
<path fill="none" stroke="midnightblue" d="M370.833,-73.8879C391.515,-68.5956 415.419,-62.4787 434.797,-57.5201"/>
<polygon fill="midnightblue" stroke="midnightblue" points="369.793,-70.5411 360.973,-76.411 371.528,-77.3226 369.793,-70.5411"/>
</g>
<!-- Node398&#45;&gt;Node392 -->
<g id="edge10" class="edge"><title>Node398&#45;&gt;Node392</title>
<path fill="none" stroke="midnightblue" d="M389.785,-124C343.164,-124 286.155,-124 245.251,-124"/>
<polygon fill="midnightblue" stroke="midnightblue" points="389.87,-127.5 399.87,-124 389.87,-120.5 389.87,-127.5"/>
</g>
<!-- Node398&#45;&gt;Node393 -->
<g id="edge9" class="edge"><title>Node398&#45;&gt;Node393</title>
<path fill="none" stroke="midnightblue" d="M556.491,-124C565.182,-124 573.784,-124 581.855,-124"/>
<polygon fill="midnightblue" stroke="midnightblue" points="556.274,-120.5 546.274,-124 556.274,-127.5 556.274,-120.5"/>
</g>
<!-- Node400 -->
<g id="node10" class="node"><title>Node400</title>
<g id="a_node10"><a xlink:href="watchdog_8h.html#a98ac743883b75c5bf36e0d6b0fe982fa" target="_top" xlink:title="force_reset_wifi">
<polygon fill="white" stroke="black" points="586.5,-38.5 586.5,-57.5 672.5,-57.5 672.5,-38.5 586.5,-38.5"/>
<text text-anchor="middle" x="629.5" y="-45.5" font-family="Helvetica,sans-Serif" font-size="10.00">force_reset_wifi</text>
</a>
</g>
</g>
<!-- Node399&#45;&gt;Node400 -->
<g id="edge14" class="edge"><title>Node399&#45;&gt;Node400</title>
<path fill="none" stroke="midnightblue" d="M548.851,-48C561.657,-48 574.55,-48 586.123,-48"/>
<polygon fill="midnightblue" stroke="midnightblue" points="548.627,-44.5001 538.627,-48 548.627,-51.5001 548.627,-44.5001"/>
</g>
<!-- Node401 -->
<g id="node11" class="node"><title>Node401</title>
<g id="a_node11"><a xlink:href="kmp__request_8c.html#a3f6b790a06b933b78f40ade5e9a16131" target="_top" xlink:title="kmp_received_task">
<polygon fill="white" stroke="black" points="717.5,-38.5 717.5,-57.5 818.5,-57.5 818.5,-38.5 717.5,-38.5"/>
<text text-anchor="middle" x="768" y="-45.5" font-family="Helvetica,sans-Serif" font-size="10.00">kmp_received_task</text>
</a>
</g>
</g>
<!-- Node400&#45;&gt;Node401 -->
<g id="edge15" class="edge"><title>Node400&#45;&gt;Node401</title>
<path fill="none" stroke="midnightblue" d="M682.734,-48C694.034,-48 705.956,-48 717.162,-48"/>
<polygon fill="midnightblue" stroke="midnightblue" points="682.568,-44.5001 672.568,-48 682.568,-51.5001 682.568,-44.5001"/>
</g>
<!-- Node403 -->
<g id="node13" class="node"><title>Node403</title>
<g id="a_node13"><a xlink:href="watchdog_8c.html#aeb03c505b5b589ae4d89b2ae11dd1711" target="_top" xlink:title="watchdog_timer_func">
<polygon fill="white" stroke="black" points="713,-0.5 713,-19.5 823,-19.5 823,-0.5 713,-0.5"/>
<text text-anchor="middle" x="768" y="-7.5" font-family="Helvetica,sans-Serif" font-size="10.00">watchdog_timer_func</text>
</a>
</g>
</g>
<!-- Node400&#45;&gt;Node403 -->
<g id="edge17" class="edge"><title>Node400&#45;&gt;Node403</title>
<path fill="none" stroke="midnightblue" d="M674.749,-35.6817C693.503,-30.4607 715.028,-24.4684 732.566,-19.5859"/>
<polygon fill="midnightblue" stroke="midnightblue" points="673.64,-32.3572 664.945,-38.411 675.517,-39.1008 673.64,-32.3572"/>
</g>
<!-- Node402 -->
<g id="node12" class="node"><title>Node402</title>
<g id="a_node12"><a xlink:href="kmp__request_8h.html#a048753ff9d6b448e2dcd8c85db0d6873" target="_top" xlink:title="kmp_request_init">
<polygon fill="white" stroke="black" points="868.5,-38.5 868.5,-57.5 959.5,-57.5 959.5,-38.5 868.5,-38.5"/>
<text text-anchor="middle" x="914" y="-45.5" font-family="Helvetica,sans-Serif" font-size="10.00">kmp_request_init</text>
</a>
</g>
</g>
<!-- Node401&#45;&gt;Node402 -->
<g id="edge16" class="edge"><title>Node401&#45;&gt;Node402</title>
<path fill="none" stroke="midnightblue" d="M828.938,-48C842.073,-48 855.759,-48 868.181,-48"/>
<polygon fill="midnightblue" stroke="midnightblue" points="828.557,-44.5001 818.557,-48 828.557,-51.5001 828.557,-44.5001"/>
</g>
<!-- Node404 -->
<g id="node14" class="node"><title>Node404</title>
<g id="a_node14"><a xlink:href="watchdog_8h.html#ab148f2150b52df5b60e312dded3a2934" target="_top" xlink:title="start_watchdog">
<polygon fill="white" stroke="black" points="872.5,-0.5 872.5,-19.5 955.5,-19.5 955.5,-0.5 872.5,-0.5"/>
<text text-anchor="middle" x="914" y="-7.5" font-family="Helvetica,sans-Serif" font-size="10.00">start_watchdog</text>
</a>
</g>
</g>
<!-- Node403&#45;&gt;Node404 -->
<g id="edge18" class="edge"><title>Node403&#45;&gt;Node404</title>
<path fill="none" stroke="midnightblue" d="M833.083,-10C846.361,-10 860.002,-10 872.172,-10"/>
<polygon fill="midnightblue" stroke="midnightblue" points="833.03,-6.5001 823.03,-10 833.03,-13.5001 833.03,-6.5001"/>
</g>
</g>
</svg>
