<?xml version="1.0" encoding="UTF-8" standalone="no"?>
<!DOCTYPE svg PUBLIC "-//W3C//DTD SVG 1.1//EN"
 "http://www.w3.org/Graphics/SVG/1.1/DTD/svg11.dtd">
<!-- Generated by graphviz version 2.40.1 (20161225.0304)
 -->
<!-- Title: ac_out_off_timer_func Pages: 1 -->
<svg width="380pt" height="104pt"
 viewBox="0.00 0.00 380.00 104.00" xmlns="http://www.w3.org/2000/svg" xmlns:xlink="http://www.w3.org/1999/xlink">
<g id="graph0" class="graph" transform="scale(1 1) rotate(0) translate(4 100)">
<title>ac_out_off_timer_func</title>
<polygon fill="#ffffff" stroke="transparent" points="-4,4 -4,-100 376,-100 376,4 -4,4"/>
<!-- Node36 -->
<g id="node1" class="node">
<title>Node36</title>
<polygon fill="#bfbfbf" stroke="#000000" points="0,-38.5 0,-57.5 91,-57.5 91,-38.5 0,-38.5"/>
<text text-anchor="middle" x="45.5" y="-45.5" font-family="Helvetica,sans-Serif" font-size="10.00" fill="#000000">ac_out_off_timer_func</text>
</g>
<!-- Node37 -->
<g id="node2" class="node">
<title>Node37</title>
<g id="a_node2"><a xlink:href="ac__out_8h.html#a483eac71fafd6926d6e16c08b87530ef" target="_top" xlink:title="ac_motor_valve_close">
<polygon fill="#ffffff" stroke="#000000" points="200,-76.5 200,-95.5 291,-95.5 291,-76.5 200,-76.5"/>
<text text-anchor="middle" x="245.5" y="-83.5" font-family="Helvetica,sans-Serif" font-size="10.00" fill="#000000">ac_motor_valve_close</text>
</a>
</g>
</g>
<!-- Node36&#45;&gt;Node37 -->
<g id="edge1" class="edge">
<title>Node36&#45;&gt;Node37</title>
<path fill="none" stroke="#191970" d="M93.7341,-59.8334C104.6427,-62.3454 116.1943,-64.8769 127,-67 150.9204,-71.6999 177.728,-76.0725 199.7874,-79.4352"/>
<polygon fill="#191970" stroke="#191970" points="94.4708,-56.4113 83.9367,-57.5443 92.8781,-63.2278 94.4708,-56.4113"/>
</g>
<!-- Node38 -->
<g id="node3" class="node">
<title>Node38</title>
<g id="a_node3"><a xlink:href="ac__out_8h.html#aa17a09f7811a797293e31a39906ec1b0" target="_top" xlink:title="ac_motor_valve_open">
<polygon fill="#ffffff" stroke="#000000" points="200.5,-.5 200.5,-19.5 290.5,-19.5 290.5,-.5 200.5,-.5"/>
<text text-anchor="middle" x="245.5" y="-7.5" font-family="Helvetica,sans-Serif" font-size="10.00" fill="#000000">ac_motor_valve_open</text>
</a>
</g>
</g>
<!-- Node36&#45;&gt;Node38 -->
<g id="edge2" class="edge">
<title>Node36&#45;&gt;Node38</title>
<path fill="none" stroke="#191970" d="M93.7341,-36.1666C104.6427,-33.6546 116.1943,-31.1231 127,-29 151.1248,-24.2599 178.1865,-19.8528 200.352,-16.4788"/>
<polygon fill="#191970" stroke="#191970" points="92.8781,-32.7722 83.9367,-38.4557 94.4708,-39.5887 92.8781,-32.7722"/>
</g>
<!-- Node39 -->
<g id="node4" class="node">
<title>Node39</title>
<g id="a_node4"><a xlink:href="ac__out_8h.html#aaa0444bb417d9a634d5304b267f4fcda" target="_top" xlink:title="ac_off">
<polygon fill="#ffffff" stroke="#000000" points="127,-38.5 127,-57.5 164,-57.5 164,-38.5 127,-38.5"/>
<text text-anchor="middle" x="145.5" y="-45.5" font-family="Helvetica,sans-Serif" font-size="10.00" fill="#000000">ac_off</text>
</a>
</g>
</g>
<!-- Node36&#45;&gt;Node39 -->
<g id="edge3" class="edge">
<title>Node36&#45;&gt;Node39</title>
<path fill="none" stroke="#191970" d="M101.1451,-48C110.3544,-48 119.305,-48 126.7256,-48"/>
<polygon fill="#191970" stroke="#191970" points="101.1105,-44.5001 91.1105,-48 101.1105,-51.5001 101.1105,-44.5001"/>
</g>
<!-- Node39&#45;&gt;Node37 -->
<g id="edge5" class="edge">
<title>Node39&#45;&gt;Node37</title>
<path fill="none" stroke="#191970" d="M173.8723,-58.7815C188.5102,-64.3439 206.2114,-71.0703 220.3545,-76.4447"/>
<polygon fill="#191970" stroke="#191970" points="174.9004,-55.428 164.3092,-55.1475 172.4138,-61.9715 174.9004,-55.428"/>
</g>
<!-- Node39&#45;&gt;Node38 -->
<g id="edge4" class="edge">
<title>Node39&#45;&gt;Node38</title>
<path fill="none" stroke="#191970" d="M173.8723,-37.2185C188.5102,-31.6561 206.2114,-24.9297 220.3545,-19.5553"/>
<polygon fill="#191970" stroke="#191970" points="172.4138,-34.0285 164.3092,-40.8525 174.9004,-40.572 172.4138,-34.0285"/>
</g>
<!-- Node40 -->
<g id="node5" class="node">
<title>Node40</title>
<g id="a_node5"><a xlink:href="cron_8c.html#a2782af03df9b913cfa565a0770e1afe1" target="_top" xlink:title="minute_timer_func">
<polygon fill="#ffffff" stroke="#000000" points="206.5,-38.5 206.5,-57.5 284.5,-57.5 284.5,-38.5 206.5,-38.5"/>
<text text-anchor="middle" x="245.5" y="-45.5" font-family="Helvetica,sans-Serif" font-size="10.00" fill="#000000">minute_timer_func</text>
</a>
</g>
</g>
<!-- Node39&#45;&gt;Node40 -->
<g id="edge6" class="edge">
<title>Node39&#45;&gt;Node40</title>
<path fill="none" stroke="#191970" d="M174.5076,-48C184.4893,-48 195.8349,-48 206.4816,-48"/>
<polygon fill="#191970" stroke="#191970" points="174.3093,-44.5001 164.3092,-48 174.3092,-51.5001 174.3093,-44.5001"/>
</g>
<!-- Node41 -->
<g id="node6" class="node">
<title>Node41</title>
<g id="a_node6"><a xlink:href="cron_8h.html#ae130c5973bad35b56776750c7a34db12" target="_top" xlink:title="cron_init">
<polygon fill="#ffffff" stroke="#000000" points="327,-38.5 327,-57.5 372,-57.5 372,-38.5 327,-38.5"/>
<text text-anchor="middle" x="349.5" y="-45.5" font-family="Helvetica,sans-Serif" font-size="10.00" fill="#000000">cron_init</text>
</a>
</g>
</g>
<!-- Node40&#45;&gt;Node41 -->
<g id="edge7" class="edge">
<title>Node40&#45;&gt;Node41</title>
<path fill="none" stroke="#191970" d="M294.7419,-48C305.9895,-48 317.4096,-48 326.8895,-48"/>
<polygon fill="#191970" stroke="#191970" points="294.5217,-44.5001 284.5217,-48 294.5216,-51.5001 294.5217,-44.5001"/>
</g>
</g>
</svg>
