<?xml version="1.0" encoding="UTF-8" standalone="no"?>
<!DOCTYPE svg PUBLIC "-//W3C//DTD SVG 1.1//EN"
 "http://www.w3.org/Graphics/SVG/1.1/DTD/svg11.dtd">
<!-- Generated by graphviz version 2.40.1 (20161225.0304)
 -->
<!-- Title: ac_motor_valve_close Pages: 1 -->
<svg width="633pt" height="118pt"
 viewBox="0.00 0.00 633.00 117.95" xmlns="http://www.w3.org/2000/svg" xmlns:xlink="http://www.w3.org/1999/xlink">
<g id="graph0" class="graph" transform="scale(1 1) rotate(0) translate(4 113.951)">
<title>ac_motor_valve_close</title>
<polygon fill="#ffffff" stroke="transparent" points="-4,4 -4,-113.951 629,-113.951 629,4 -4,4"/>
<!-- Node0 -->
<g id="node1" class="node">
<title>Node0</title>
<polygon fill="#bfbfbf" stroke="#000000" points="0,-38.5 0,-57.5 91,-57.5 91,-38.5 0,-38.5"/>
<text text-anchor="middle" x="45.5" y="-45.5" font-family="Helvetica,sans-Serif" font-size="10.00" fill="#000000">ac_motor_valve_close</text>
</g>
<!-- Node1 -->
<g id="node2" class="node">
<title>Node1</title>
<g id="a_node2"><a xlink:href="ac__out_8c.html#aaa0444bb417d9a634d5304b267f4fcda" target="_top" xlink:title="ac_off">
<polygon fill="#ffffff" stroke="#000000" points="139.5,-76.5 139.5,-95.5 176.5,-95.5 176.5,-76.5 139.5,-76.5"/>
<text text-anchor="middle" x="158" y="-83.5" font-family="Helvetica,sans-Serif" font-size="10.00" fill="#000000">ac_off</text>
</a>
</g>
</g>
<!-- Node0&#45;&gt;Node1 -->
<g id="edge1" class="edge">
<title>Node0&#45;&gt;Node1</title>
<path fill="none" stroke="#191970" d="M73.8885,-57.589C90.8145,-63.3062 112.2433,-70.5444 129.2354,-76.284"/>
<polygon fill="#191970" stroke="#191970" points="128.5679,-79.7527 139.1621,-79.637 130.8081,-73.1208 128.5679,-79.7527"/>
</g>
<!-- Node2 -->
<g id="node3" class="node">
<title>Node2</title>
<g id="a_node3"><a xlink:href="ac__out_8c.html#a07e9d906599f62767ef1efb99d8fce11" target="_top" xlink:title="ac_out_off_timer_func">
<polygon fill="#ffffff" stroke="#000000" points="225,-76.5 225,-95.5 316,-95.5 316,-76.5 225,-76.5"/>
<text text-anchor="middle" x="270.5" y="-83.5" font-family="Helvetica,sans-Serif" font-size="10.00" fill="#000000">ac_out_off_timer_func</text>
</a>
</g>
</g>
<!-- Node0&#45;&gt;Node2 -->
<g id="edge8" class="edge">
<title>Node0&#45;&gt;Node2</title>
<path fill="none" stroke="#191970" d="M91.2399,-52.9047C119.5144,-56.2214 156.4892,-61.0727 189,-67 200.0526,-69.0151 211.8643,-71.5464 222.9679,-74.0982"/>
<polygon fill="#191970" stroke="#191970" points="222.3891,-77.5574 232.9241,-76.4333 223.9875,-70.7423 222.3891,-77.5574"/>
</g>
<!-- Node6 -->
<g id="node7" class="node">
<title>Node6</title>
<g id="a_node7"><a xlink:href="led_8c.html#a6a83b60a5039ca4c8727fc1902630210" target="_top" xlink:title="led_pattern_b">
<polygon fill="#ffffff" stroke="#000000" points="127,-.5 127,-19.5 189,-19.5 189,-.5 127,-.5"/>
<text text-anchor="middle" x="158" y="-7.5" font-family="Helvetica,sans-Serif" font-size="10.00" fill="#000000">led_pattern_b</text>
</a>
</g>
</g>
<!-- Node0&#45;&gt;Node6 -->
<g id="edge9" class="edge">
<title>Node0&#45;&gt;Node6</title>
<path fill="none" stroke="#191970" d="M73.8885,-38.411C87.8782,-33.6856 104.944,-27.9211 120.0383,-22.8226"/>
<polygon fill="#191970" stroke="#191970" points="121.2665,-26.1021 129.6206,-19.5859 119.0264,-19.4702 121.2665,-26.1021"/>
</g>
<!-- Node1&#45;&gt;Node2 -->
<g id="edge2" class="edge">
<title>Node1&#45;&gt;Node2</title>
<path fill="none" stroke="#191970" d="M176.5771,-86C187.0208,-86 200.671,-86 214.3161,-86"/>
<polygon fill="#191970" stroke="#191970" points="214.6963,-89.5001 224.6963,-86 214.6963,-82.5001 214.6963,-89.5001"/>
</g>
<!-- Node3 -->
<g id="node4" class="node">
<title>Node3</title>
<g id="a_node4"><a xlink:href="gpio_8h.html#a83bac74ff5b2158e0c86da73ada29718" target="_top" xlink:title="gpio_output_set">
<polygon fill="#ffffff" stroke="#000000" points="555,-38.5 555,-57.5 625,-57.5 625,-38.5 555,-38.5"/>
<text text-anchor="middle" x="590" y="-45.5" font-family="Helvetica,sans-Serif" font-size="10.00" fill="#000000">gpio_output_set</text>
</a>
</g>
</g>
<!-- Node2&#45;&gt;Node3 -->
<g id="edge3" class="edge">
<title>Node2&#45;&gt;Node3</title>
<path fill="none" stroke="#191970" d="M303.5062,-95.507C318.2141,-99.2715 335.8344,-103.1406 352,-105 392.6211,-109.6723 403.8172,-112.5658 444,-105 487.2446,-96.8577 534.1159,-76.256 562.7745,-62.1858"/>
<polygon fill="#191970" stroke="#191970" points="564.3842,-65.2942 571.7637,-57.692 561.2541,-59.0329 564.3842,-65.2942"/>
</g>
<!-- Node4 -->
<g id="node5" class="node">
<title>Node4</title>
<g id="a_node5"><a xlink:href="led_8c.html#a7cd1d03b4baad9cb20bf1a43046f61a2" target="_top" xlink:title="led_stop_pattern">
<polygon fill="#ffffff" stroke="#000000" points="362,-76.5 362,-95.5 434,-95.5 434,-76.5 362,-76.5"/>
<text text-anchor="middle" x="398" y="-83.5" font-family="Helvetica,sans-Serif" font-size="10.00" fill="#000000">led_stop_pattern</text>
</a>
</g>
</g>
<!-- Node2&#45;&gt;Node4 -->
<g id="edge4" class="edge">
<title>Node2&#45;&gt;Node4</title>
<path fill="none" stroke="#191970" d="M316.1703,-86C327.6589,-86 340.0014,-86 351.5287,-86"/>
<polygon fill="#191970" stroke="#191970" points="351.838,-89.5001 361.8379,-86 351.8379,-82.5001 351.838,-89.5001"/>
</g>
<!-- Node5 -->
<g id="node6" class="node">
<title>Node5</title>
<g id="a_node6"><a xlink:href="led_8c.html#a7ef0b27e501c77cd25b8bb7a2de6d8bd" target="_top" xlink:title="led_off">
<polygon fill="#ffffff" stroke="#000000" points="480,-38.5 480,-57.5 519,-57.5 519,-38.5 480,-38.5"/>
<text text-anchor="middle" x="499.5" y="-45.5" font-family="Helvetica,sans-Serif" font-size="10.00" fill="#000000">led_off</text>
</a>
</g>
</g>
<!-- Node2&#45;&gt;Node5 -->
<g id="edge7" class="edge">
<title>Node2&#45;&gt;Node5</title>
<path fill="none" stroke="#191970" d="M308.0708,-76.4053C321.8274,-73.1137 337.5593,-69.6065 352,-67 392.5069,-59.6887 439.7647,-54.1151 469.6564,-50.9504"/>
<polygon fill="#191970" stroke="#191970" points="470.253,-54.4074 479.8387,-49.8947 469.5311,-47.4447 470.253,-54.4074"/>
</g>
<!-- Node4&#45;&gt;Node5 -->
<g id="edge5" class="edge">
<title>Node4&#45;&gt;Node5</title>
<path fill="none" stroke="#191970" d="M423.6127,-76.411C437.8322,-71.0875 455.5739,-64.4452 470.3265,-58.9221"/>
<polygon fill="#191970" stroke="#191970" points="471.8443,-62.0912 479.9824,-55.3071 469.39,-55.5355 471.8443,-62.0912"/>
</g>
<!-- Node5&#45;&gt;Node3 -->
<g id="edge6" class="edge">
<title>Node5&#45;&gt;Node3</title>
<path fill="none" stroke="#191970" d="M519.1372,-48C526.6914,-48 535.6656,-48 544.6453,-48"/>
<polygon fill="#191970" stroke="#191970" points="544.7107,-51.5001 554.7107,-48 544.7106,-44.5001 544.7107,-51.5001"/>
</g>
<!-- Node7 -->
<g id="node8" class="node">
<title>Node7</title>
<g id="a_node8"><a xlink:href="led_8c.html#af6a79b211d188e643a4f1cf7552ac7ee" target="_top" xlink:title="led_blinker_timer_func">
<polygon fill="#ffffff" stroke="#000000" points="352,-.5 352,-19.5 444,-19.5 444,-.5 352,-.5"/>
<text text-anchor="middle" x="398" y="-7.5" font-family="Helvetica,sans-Serif" font-size="10.00" fill="#000000">led_blinker_timer_func</text>
</a>
</g>
</g>
<!-- Node6&#45;&gt;Node7 -->
<g id="edge10" class="edge">
<title>Node6&#45;&gt;Node7</title>
<path fill="none" stroke="#191970" d="M189.3758,-10C227.9659,-10 294.1835,-10 341.6727,-10"/>
<polygon fill="#191970" stroke="#191970" points="341.8055,-13.5001 351.8055,-10 341.8055,-6.5001 341.8055,-13.5001"/>
</g>
<!-- Node7&#45;&gt;Node5 -->
<g id="edge13" class="edge">
<title>Node7&#45;&gt;Node5</title>
<path fill="none" stroke="#191970" d="M423.6127,-19.589C437.8322,-24.9125 455.5739,-31.5548 470.3265,-37.0779"/>
<polygon fill="#191970" stroke="#191970" points="469.39,-40.4645 479.9824,-40.6929 471.8443,-33.9088 469.39,-40.4645"/>
</g>
<!-- Node8 -->
<g id="node9" class="node">
<title>Node8</title>
<g id="a_node9"><a xlink:href="led_8c.html#a0a23edee5e1db0cd2928c18a42ffe96f" target="_top" xlink:title="led_on">
<polygon fill="#ffffff" stroke="#000000" points="480,-.5 480,-19.5 519,-19.5 519,-.5 480,-.5"/>
<text text-anchor="middle" x="499.5" y="-7.5" font-family="Helvetica,sans-Serif" font-size="10.00" fill="#000000">led_on</text>
</a>
</g>
</g>
<!-- Node7&#45;&gt;Node8 -->
<g id="edge11" class="edge">
<title>Node7&#45;&gt;Node8</title>
<path fill="none" stroke="#191970" d="M444.2947,-10C452.9216,-10 461.7215,-10 469.6871,-10"/>
<polygon fill="#191970" stroke="#191970" points="469.9373,-13.5001 479.9373,-10 469.9373,-6.5001 469.9373,-13.5001"/>
</g>
<!-- Node8&#45;&gt;Node3 -->
<g id="edge12" class="edge">
<title>Node8&#45;&gt;Node3</title>
<path fill="none" stroke="#191970" d="M519.1372,-18.2454C530.4051,-22.9767 544.8325,-29.0346 557.7249,-34.448"/>
<polygon fill="#191970" stroke="#191970" points="556.6316,-37.7849 567.2069,-38.4294 559.3417,-31.3308 556.6316,-37.7849"/>
</g>
</g>
</svg>
