<?xml version="1.0" encoding="UTF-8" standalone="no"?>
<!DOCTYPE svg PUBLIC "-//W3C//DTD SVG 1.1//EN"
 "http://www.w3.org/Graphics/SVG/1.1/DTD/svg11.dtd">
<!-- Generated by graphviz version 2.40.1 (20161225.0304)
 -->
<!-- Title: xtime Pages: 1 -->
<svg width="299pt" height="28pt"
 viewBox="0.00 0.00 299.00 28.00" xmlns="http://www.w3.org/2000/svg" xmlns:xlink="http://www.w3.org/1999/xlink">
<g id="graph0" class="graph" transform="scale(1 1) rotate(0) translate(4 24)">
<title>xtime</title>
<polygon fill="#ffffff" stroke="transparent" points="-4,4 -4,-24 295,-24 295,4 -4,4"/>
<!-- Node84 -->
<g id="node1" class="node">
<title>Node84</title>
<polygon fill="#bfbfbf" stroke="#000000" points="0,-.5 0,-19.5 34,-19.5 34,-.5 0,-.5"/>
<text text-anchor="middle" x="17" y="-7.5" font-family="Helvetica,sans-Serif" font-size="10.00" fill="#000000">xtime</text>
</g>
<!-- Node85 -->
<g id="node2" class="node">
<title>Node85</title>
<g id="a_node2"><a xlink:href="aes_8c.html#ad0479161202b7bb0070c937ae6989957" target="_top" xlink:title="MixColumns">
<polygon fill="#ffffff" stroke="#000000" points="70,-.5 70,-19.5 128,-19.5 128,-.5 70,-.5"/>
<text text-anchor="middle" x="99" y="-7.5" font-family="Helvetica,sans-Serif" font-size="10.00" fill="#000000">MixColumns</text>
</a>
</g>
</g>
<!-- Node84&#45;&gt;Node85 -->
<g id="edge1" class="edge">
<title>Node84&#45;&gt;Node85</title>
<path fill="none" stroke="#191970" d="M44.4651,-10C52.5722,-10 61.4745,-10 69.6928,-10"/>
<polygon fill="#191970" stroke="#191970" points="44.3901,-6.5001 34.3901,-10 44.3901,-13.5001 44.3901,-6.5001"/>
</g>
<!-- Node86 -->
<g id="node3" class="node">
<title>Node86</title>
<g id="a_node3"><a xlink:href="aes_8c.html#a67829edbdf3309d301104f56453e4e88" target="_top" xlink:title="Cipher">
<polygon fill="#ffffff" stroke="#000000" points="164,-.5 164,-19.5 203,-19.5 203,-.5 164,-.5"/>
<text text-anchor="middle" x="183.5" y="-7.5" font-family="Helvetica,sans-Serif" font-size="10.00" fill="#000000">Cipher</text>
</a>
</g>
</g>
<!-- Node85&#45;&gt;Node86 -->
<g id="edge2" class="edge">
<title>Node85&#45;&gt;Node86</title>
<path fill="none" stroke="#191970" d="M138.3386,-10C147.2257,-10 156.2854,-10 163.9348,-10"/>
<polygon fill="#191970" stroke="#191970" points="138.0801,-6.5001 128.0801,-10 138.0801,-13.5001 138.0801,-6.5001"/>
</g>
<!-- Node87 -->
<g id="node4" class="node">
<title>Node87</title>
<g id="a_node4"><a xlink:href="aes_8c.html#a4762f23548a6ee2e4c1ca5f5ce43c4a4" target="_top" xlink:title="BlockCopy">
<polygon fill="#ffffff" stroke="#000000" points="239,-.5 239,-19.5 291,-19.5 291,-.5 239,-.5"/>
<text text-anchor="middle" x="265" y="-7.5" font-family="Helvetica,sans-Serif" font-size="10.00" fill="#000000">BlockCopy</text>
</a>
</g>
</g>
<!-- Node86&#45;&gt;Node87 -->
<g id="edge3" class="edge">
<title>Node86&#45;&gt;Node87</title>
<path fill="none" stroke="#191970" d="M213.3863,-10C221.7786,-10 230.8342,-10 238.9818,-10"/>
<polygon fill="#191970" stroke="#191970" points="213.2289,-6.5001 203.2289,-10 213.2288,-13.5001 213.2289,-6.5001"/>
</g>
</g>
</svg>
