<?xml version="1.0" encoding="UTF-8" standalone="no"?>
<!DOCTYPE svg PUBLIC "-//W3C//DTD SVG 1.1//EN"
 "http://www.w3.org/Graphics/SVG/1.1/DTD/svg11.dtd">
<!-- Generated by graphviz version 2.40.1 (20161225.0304)
 -->
<!-- Title: InvSubBytes Pages: 1 -->
<svg width="240pt" height="28pt"
 viewBox="0.00 0.00 240.00 28.00" xmlns="http://www.w3.org/2000/svg" xmlns:xlink="http://www.w3.org/1999/xlink">
<g id="graph0" class="graph" transform="scale(1 1) rotate(0) translate(4 24)">
<title>InvSubBytes</title>
<polygon fill="#ffffff" stroke="transparent" points="-4,4 -4,-24 236,-24 236,4 -4,4"/>
<!-- Node62 -->
<g id="node1" class="node">
<title>Node62</title>
<polygon fill="#bfbfbf" stroke="#000000" points="0,-.5 0,-19.5 59,-19.5 59,-.5 0,-.5"/>
<text text-anchor="middle" x="29.5" y="-7.5" font-family="Helvetica,sans-Serif" font-size="10.00" fill="#000000">InvSubBytes</text>
</g>
<!-- Node63 -->
<g id="node2" class="node">
<title>Node63</title>
<g id="a_node2"><a xlink:href="aes_8c.html#a1c8b8be3915a4ec4ce9d2c0961f07c62" target="_top" xlink:title="InvCipher">
<polygon fill="#ffffff" stroke="#000000" points="95,-.5 95,-19.5 144,-19.5 144,-.5 95,-.5"/>
<text text-anchor="middle" x="119.5" y="-7.5" font-family="Helvetica,sans-Serif" font-size="10.00" fill="#000000">InvCipher</text>
</a>
</g>
</g>
<!-- Node62&#45;&gt;Node63 -->
<g id="edge1" class="edge">
<title>Node62&#45;&gt;Node63</title>
<path fill="none" stroke="#191970" d="M69.6856,-10C78.2257,-10 86.9997,-10 94.7583,-10"/>
<polygon fill="#191970" stroke="#191970" points="69.4687,-6.5001 59.4687,-10 69.4687,-13.5001 69.4687,-6.5001"/>
</g>
<!-- Node64 -->
<g id="node3" class="node">
<title>Node64</title>
<g id="a_node3"><a xlink:href="aes_8c.html#a4762f23548a6ee2e4c1ca5f5ce43c4a4" target="_top" xlink:title="BlockCopy">
<polygon fill="#ffffff" stroke="#000000" points="180,-.5 180,-19.5 232,-19.5 232,-.5 180,-.5"/>
<text text-anchor="middle" x="206" y="-7.5" font-family="Helvetica,sans-Serif" font-size="10.00" fill="#000000">BlockCopy</text>
</a>
</g>
</g>
<!-- Node63&#45;&gt;Node64 -->
<g id="edge2" class="edge">
<title>Node63&#45;&gt;Node64</title>
<path fill="none" stroke="#191970" d="M154.181,-10C162.75,-10 171.7865,-10 179.8711,-10"/>
<polygon fill="#191970" stroke="#191970" points="154.0561,-6.5001 144.0561,-10 154.056,-13.5001 154.0561,-6.5001"/>
</g>
</g>
</svg>
