<?xml version="1.0" encoding="UTF-8" standalone="no"?>
<!DOCTYPE svg PUBLIC "-//W3C//DTD SVG 1.1//EN"
 "http://www.w3.org/Graphics/SVG/1.1/DTD/svg11.dtd">
<!-- Generated by graphviz version 2.40.1 (20161225.0304)
 -->
<!-- Title: captdnsInit Pages: 1 -->
<svg width="1102pt" height="401pt"
 viewBox="0.00 0.00 1102.00 400.65" xmlns="http://www.w3.org/2000/svg" xmlns:xlink="http://www.w3.org/1999/xlink">
<g id="graph0" class="graph" transform="scale(1 1) rotate(0) translate(4 396.6515)">
<title>captdnsInit</title>
<polygon fill="#ffffff" stroke="transparent" points="-4,4 -4,-396.6515 1098,-396.6515 1098,4 -4,4"/>
<!-- Node0 -->
<g id="node1" class="node">
<title>Node0</title>
<polygon fill="#bfbfbf" stroke="#000000" points="0,-29.5 0,-48.5 53,-48.5 53,-29.5 0,-29.5"/>
<text text-anchor="middle" x="26.5" y="-36.5" font-family="Helvetica,sans-Serif" font-size="10.00" fill="#000000">captdnsInit</text>
</g>
<!-- Node1 -->
<g id="node2" class="node">
<title>Node1</title>
<g id="a_node2"><a xlink:href="captdns_8c.html#a59c9a28ea1f015cff27b9d0c252d15f3" target="_top" xlink:title="captdnsRecv">
<polygon fill="#ffffff" stroke="#000000" points="89,-181.5 89,-200.5 149,-200.5 149,-181.5 89,-181.5"/>
<text text-anchor="middle" x="119" y="-188.5" font-family="Helvetica,sans-Serif" font-size="10.00" fill="#000000">captdnsRecv</text>
</a>
</g>
</g>
<!-- Node0&#45;&gt;Node1 -->
<g id="edge1" class="edge">
<title>Node0&#45;&gt;Node1</title>
<path fill="none" stroke="#191970" d="M32.2863,-48.5083C47.3407,-73.2463 87.9348,-139.9523 107.7758,-172.556"/>
<polygon fill="#191970" stroke="#191970" points="105.0274,-174.7723 113.2159,-181.4953 111.0072,-171.1333 105.0274,-174.7723"/>
</g>
<!-- Node3 -->
<g id="node4" class="node">
<title>Node3</title>
<g id="a_node4"><a xlink:href="esp-open-lwip_2include_2lwip_2app_2espconn_8h.html#ad55b9729c7629f40c8e7ae2d73f7f174" target="_top" xlink:title="espconn_create">
<polygon fill="#ffffff" stroke="#000000" points="353,-57.5 353,-76.5 423,-76.5 423,-57.5 353,-57.5"/>
<text text-anchor="middle" x="388" y="-64.5" font-family="Helvetica,sans-Serif" font-size="10.00" fill="#000000">espconn_create</text>
</a>
</g>
</g>
<!-- Node0&#45;&gt;Node3 -->
<g id="edge53" class="edge">
<title>Node0&#45;&gt;Node3</title>
<path fill="none" stroke="#191970" d="M53.022,-40.5353C102.0361,-43.4394 210.0967,-50.1544 301,-58 314.6228,-59.1757 329.4261,-60.6379 342.894,-62.0395"/>
<polygon fill="#191970" stroke="#191970" points="342.5791,-65.5256 352.891,-63.0937 343.3133,-58.5642 342.5791,-65.5256"/>
</g>
<!-- Node4 -->
<g id="node5" class="node">
<title>Node4</title>
<g id="a_node5"><a xlink:href="esp-open-lwip_2include_2lwip_2app_2espconn_8h.html#a56d063a430d96d20b4ea5e28ba41011c" target="_top" xlink:title="espconn_regist_recvcb">
<polygon fill="#ffffff" stroke="#000000" points="341,-.5 341,-19.5 435,-19.5 435,-.5 341,-.5"/>
<text text-anchor="middle" x="388" y="-7.5" font-family="Helvetica,sans-Serif" font-size="10.00" fill="#000000">espconn_regist_recvcb</text>
</a>
</g>
</g>
<!-- Node0&#45;&gt;Node4 -->
<g id="edge54" class="edge">
<title>Node0&#45;&gt;Node4</title>
<path fill="none" stroke="#191970" d="M53.082,-36.8676C111.288,-32.1982 251.1354,-20.9795 330.4872,-14.6137"/>
<polygon fill="#191970" stroke="#191970" points="331.1086,-18.0752 340.7967,-13.7867 330.5488,-11.0976 331.1086,-18.0752"/>
</g>
<!-- Node2 -->
<g id="node3" class="node">
<title>Node2</title>
<g id="a_node3"><a xlink:href="captdns_8c.html#a88f42288d1b84cab204cca9e7f7aa9a3" target="_top" xlink:title="captdnsInit">
<polygon fill="#ffffff" stroke="#000000" points="216.5,-67.5 216.5,-86.5 269.5,-86.5 269.5,-67.5 216.5,-67.5"/>
<text text-anchor="middle" x="243" y="-74.5" font-family="Helvetica,sans-Serif" font-size="10.00" fill="#000000">captdnsInit</text>
</a>
</g>
</g>
<!-- Node1&#45;&gt;Node2 -->
<g id="edge2" class="edge">
<title>Node1&#45;&gt;Node2</title>
<path fill="none" stroke="#191970" d="M121.3507,-181.3082C128.4319,-159.979 151.175,-112.189 185,-87 191.3818,-82.2476 199.0102,-78.6484 206.6048,-76.162"/>
<polygon fill="#191970" stroke="#191970" points="207.7023,-79.4916 216.4614,-73.5309 205.897,-72.7284 207.7023,-79.4916"/>
</g>
<!-- Node5 -->
<g id="node6" class="node">
<title>Node5</title>
<g id="a_node6"><a xlink:href="esp-open-lwip_2include_2lwip_2app_2espconn_8h.html#a95deabffd3b8a4bec81f91596901f84d" target="_top" xlink:title="espconn_get_connection_info">
<polygon fill="#ffffff" stroke="#000000" points="185,-257.5 185,-276.5 301,-276.5 301,-257.5 185,-257.5"/>
<text text-anchor="middle" x="243" y="-264.5" font-family="Helvetica,sans-Serif" font-size="10.00" fill="#000000">espconn_get_connection_info</text>
</a>
</g>
</g>
<!-- Node1&#45;&gt;Node5 -->
<g id="edge6" class="edge">
<title>Node1&#45;&gt;Node5</title>
<path fill="none" stroke="#191970" d="M129.5384,-200.8187C142.0376,-212.0905 163.853,-230.6147 185,-243 191.5941,-246.862 198.9277,-250.4091 206.1008,-253.524"/>
<polygon fill="#191970" stroke="#191970" points="205.1198,-256.9057 215.6984,-257.4926 207.7947,-250.4369 205.1198,-256.9057"/>
</g>
<!-- Node6 -->
<g id="node7" class="node">
<title>Node6</title>
<g id="a_node7"><a xlink:href="espconn_8c.html#aa1c02dfd9f8d5f1a385eb847cb93f9e5" target="_top" xlink:title="espconn_sendto">
<polygon fill="#ffffff" stroke="#000000" points="207,-295.5 207,-314.5 279,-314.5 279,-295.5 207,-295.5"/>
<text text-anchor="middle" x="243" y="-302.5" font-family="Helvetica,sans-Serif" font-size="10.00" fill="#000000">espconn_sendto</text>
</a>
</g>
</g>
<!-- Node1&#45;&gt;Node6 -->
<g id="edge7" class="edge">
<title>Node1&#45;&gt;Node6</title>
<path fill="none" stroke="#191970" d="M123.1062,-200.6271C131.7375,-219.7329 153.591,-262.6102 185,-286 188.8349,-288.8558 193.12,-291.2952 197.5773,-293.3762"/>
<polygon fill="#191970" stroke="#191970" points="196.2981,-296.6342 206.8797,-297.163 198.9374,-290.1509 196.2981,-296.6342"/>
</g>
<!-- Node29 -->
<g id="node30" class="node">
<title>Node29</title>
<g id="a_node30"><a xlink:href="captdns_8c.html#a1cda566d8dc5035086e911607e45820b" target="_top" xlink:title="labelToStr">
<polygon fill="#ffffff" stroke="#000000" points="217.5,-181.5 217.5,-200.5 268.5,-200.5 268.5,-181.5 217.5,-181.5"/>
<text text-anchor="middle" x="243" y="-188.5" font-family="Helvetica,sans-Serif" font-size="10.00" fill="#000000">labelToStr</text>
</a>
</g>
</g>
<!-- Node1&#45;&gt;Node29 -->
<g id="edge46" class="edge">
<title>Node1&#45;&gt;Node29</title>
<path fill="none" stroke="#191970" d="M149.0169,-191C166.5944,-191 188.8947,-191 207.3612,-191"/>
<polygon fill="#191970" stroke="#191970" points="207.4481,-194.5001 217.4481,-191 207.448,-187.5001 207.4481,-194.5001"/>
</g>
<!-- Node30 -->
<g id="node31" class="node">
<title>Node30</title>
<g id="a_node31"><a xlink:href="captdns_8c.html#a2b9dc30f1b5c34d34788f966f8baf579" target="_top" xlink:title="my_ntohs">
<polygon fill="#ffffff" stroke="#000000" points="363.5,-200.5 363.5,-219.5 412.5,-219.5 412.5,-200.5 363.5,-200.5"/>
<text text-anchor="middle" x="388" y="-207.5" font-family="Helvetica,sans-Serif" font-size="10.00" fill="#000000">my_ntohs</text>
</a>
</g>
</g>
<!-- Node1&#45;&gt;Node30 -->
<g id="edge48" class="edge">
<title>Node1&#45;&gt;Node30</title>
<path fill="none" stroke="#191970" d="M145.6032,-200.5012C157.4907,-204.2646 171.7764,-208.1345 185,-210 243.6237,-218.2703 312.7218,-215.6866 353.304,-212.9325"/>
<polygon fill="#191970" stroke="#191970" points="353.7508,-216.4095 363.4725,-212.1978 353.2462,-209.4277 353.7508,-216.4095"/>
</g>
<!-- Node31 -->
<g id="node32" class="node">
<title>Node31</title>
<g id="a_node32"><a xlink:href="captdns_8c.html#a3b65a462da5bbfc4c310605b66952949" target="_top" xlink:title="setn16">
<polygon fill="#ffffff" stroke="#000000" points="223.5,-143.5 223.5,-162.5 262.5,-162.5 262.5,-143.5 223.5,-143.5"/>
<text text-anchor="middle" x="243" y="-150.5" font-family="Helvetica,sans-Serif" font-size="10.00" fill="#000000">setn16</text>
</a>
</g>
</g>
<!-- Node1&#45;&gt;Node31 -->
<g id="edge49" class="edge">
<title>Node1&#45;&gt;Node31</title>
<path fill="none" stroke="#191970" d="M149.0169,-181.8013C168.6707,-175.7783 194.2292,-167.9459 213.7307,-161.9696"/>
<polygon fill="#191970" stroke="#191970" points="214.7777,-165.3095 223.3133,-159.033 212.7266,-158.6167 214.7777,-165.3095"/>
</g>
<!-- Node32 -->
<g id="node33" class="node">
<title>Node32</title>
<g id="a_node33"><a xlink:href="captdns_8c.html#aad0e85473ca50e7bc9726c0e0314310f" target="_top" xlink:title="setn32">
<polygon fill="#ffffff" stroke="#000000" points="223.5,-105.5 223.5,-124.5 262.5,-124.5 262.5,-105.5 223.5,-105.5"/>
<text text-anchor="middle" x="243" y="-112.5" font-family="Helvetica,sans-Serif" font-size="10.00" fill="#000000">setn32</text>
</a>
</g>
</g>
<!-- Node1&#45;&gt;Node32 -->
<g id="edge50" class="edge">
<title>Node1&#45;&gt;Node32</title>
<path fill="none" stroke="#191970" d="M127.9178,-181.1919C139.8178,-168.6369 162.0663,-146.9629 185,-134 193.8064,-129.0223 204.1108,-125.1149 213.5712,-122.1716"/>
<polygon fill="#191970" stroke="#191970" points="214.7487,-125.4751 223.3946,-119.3514 212.817,-118.7468 214.7487,-125.4751"/>
</g>
<!-- Node33 -->
<g id="node34" class="node">
<title>Node33</title>
<g id="a_node34"><a xlink:href="captdns_8c.html#ab65a5932a7432c62e039b6366cedb733" target="_top" xlink:title="strToLabel">
<polygon fill="#ffffff" stroke="#000000" points="217,-371.5 217,-390.5 269,-390.5 269,-371.5 217,-371.5"/>
<text text-anchor="middle" x="243" y="-378.5" font-family="Helvetica,sans-Serif" font-size="10.00" fill="#000000">strToLabel</text>
</a>
</g>
</g>
<!-- Node1&#45;&gt;Node33 -->
<g id="edge51" class="edge">
<title>Node1&#45;&gt;Node33</title>
<path fill="none" stroke="#191970" d="M119.8875,-200.708C123.0457,-229.5795 136.3085,-315.7667 185,-362 191.1183,-367.8095 199.0417,-371.8431 207.0554,-374.6437"/>
<polygon fill="#191970" stroke="#191970" points="206.1792,-378.034 216.7598,-377.4846 208.1459,-371.316 206.1792,-378.034"/>
</g>
<!-- Node34 -->
<g id="node35" class="node">
<title>Node34</title>
<g id="a_node35"><a xlink:href="user__interface_8h.html#a70c442301412fe5d3711a8f0b8c7b7b5" target="_top" xlink:title="wifi_get_ip_info">
<polygon fill="#ffffff" stroke="#000000" points="209,-333.5 209,-352.5 277,-352.5 277,-333.5 209,-333.5"/>
<text text-anchor="middle" x="243" y="-340.5" font-family="Helvetica,sans-Serif" font-size="10.00" fill="#000000">wifi_get_ip_info</text>
</a>
</g>
</g>
<!-- Node1&#45;&gt;Node34 -->
<g id="edge52" class="edge">
<title>Node1&#45;&gt;Node34</title>
<path fill="none" stroke="#191970" d="M121.057,-200.6152C126.7567,-224.9359 145.0421,-289.4206 185,-324 189.2065,-327.6403 194.1269,-330.5865 199.2916,-332.9703"/>
<polygon fill="#191970" stroke="#191970" points="198.1629,-336.2872 208.7504,-336.6822 200.7201,-329.771 198.1629,-336.2872"/>
</g>
<!-- Node2&#45;&gt;Node1 -->
<g id="edge3" class="edge">
<title>Node2&#45;&gt;Node1</title>
<path fill="none" stroke="#191970" d="M227.4572,-86.5515C214.9976,-90.7468 197.5776,-95.6336 185,-105 160.7487,-123.0596 142.1939,-152.737 131.0235,-172.2887"/>
<polygon fill="#191970" stroke="#191970" points="127.8489,-170.7938 126.0024,-181.2265 133.9518,-174.2224 127.8489,-170.7938"/>
</g>
<!-- Node2&#45;&gt;Node3 -->
<g id="edge4" class="edge">
<title>Node2&#45;&gt;Node3</title>
<path fill="none" stroke="#191970" d="M269.5952,-75.1658C290.0553,-73.7548 318.8012,-71.7723 342.8454,-70.1141"/>
<polygon fill="#191970" stroke="#191970" points="343.0889,-73.6057 352.8244,-69.4259 342.6072,-66.6223 343.0889,-73.6057"/>
</g>
<!-- Node2&#45;&gt;Node4 -->
<g id="edge5" class="edge">
<title>Node2&#45;&gt;Node4</title>
<path fill="none" stroke="#191970" d="M263.775,-67.4005C288.4323,-56.0072 329.7451,-36.9178 357.9018,-23.9075"/>
<polygon fill="#191970" stroke="#191970" points="359.6539,-26.9535 367.2636,-19.5817 356.7177,-20.599 359.6539,-26.9535"/>
</g>
<!-- Node7 -->
<g id="node8" class="node">
<title>Node7</title>
<g id="a_node8"><a xlink:href="captdns_8c.html#ab898071398b359603a35c202e9c65f3b" target="_top" xlink:title="__attribute__">
<polygon fill="#ffffff" stroke="#000000" points="358,-238.5 358,-257.5 418,-257.5 418,-238.5 358,-238.5"/>
<text text-anchor="middle" x="388" y="-245.5" font-family="Helvetica,sans-Serif" font-size="10.00" fill="#000000">__attribute__</text>
</a>
</g>
</g>
<!-- Node6&#45;&gt;Node7 -->
<g id="edge8" class="edge">
<title>Node6&#45;&gt;Node7</title>
<path fill="none" stroke="#191970" d="M275.5702,-295.4009C283.96,-292.6381 292.9033,-289.4337 301,-286 317.6558,-278.9365 320.489,-274.3956 337,-267 341.4544,-265.0048 346.1877,-263.0412 350.9059,-261.1776"/>
<polygon fill="#191970" stroke="#191970" points="352.3873,-264.3583 360.4755,-257.515 349.8851,-257.8208 352.3873,-264.3583"/>
</g>
<!-- Node8 -->
<g id="node9" class="node">
<title>Node8</title>
<g id="a_node9"><a xlink:href="espconn_8c.html#a2d001a99fea2fce497e392259cf01700" target="_top" xlink:title="espconn_find_connection">
<polygon fill="#ffffff" stroke="#000000" points="337,-352.5 337,-371.5 439,-371.5 439,-352.5 337,-352.5"/>
<text text-anchor="middle" x="388" y="-359.5" font-family="Helvetica,sans-Serif" font-size="10.00" fill="#000000">espconn_find_connection</text>
</a>
</g>
</g>
<!-- Node6&#45;&gt;Node8 -->
<g id="edge9" class="edge">
<title>Node6&#45;&gt;Node8</title>
<path fill="none" stroke="#191970" d="M275.5702,-314.5991C283.96,-317.3619 292.9033,-320.5663 301,-324 317.6558,-331.0635 320.489,-335.6044 337,-343 341.4544,-344.9952 346.1877,-346.9588 350.9059,-348.8224"/>
<polygon fill="#191970" stroke="#191970" points="349.8851,-352.1792 360.4755,-352.485 352.3873,-345.6417 349.8851,-352.1792"/>
</g>
<!-- Node9 -->
<g id="node10" class="node">
<title>Node9</title>
<g id="a_node10"><a xlink:href="espconn_8c.html#acd3f1a74cab83e02797bdb8d22b8f732" target="_top" xlink:title="espconn_send">
<polygon fill="#ffffff" stroke="#000000" points="355.5,-314.5 355.5,-333.5 420.5,-333.5 420.5,-314.5 355.5,-314.5"/>
<text text-anchor="middle" x="388" y="-321.5" font-family="Helvetica,sans-Serif" font-size="10.00" fill="#000000">espconn_send</text>
</a>
</g>
</g>
<!-- Node6&#45;&gt;Node9 -->
<g id="edge10" class="edge">
<title>Node6&#45;&gt;Node9</title>
<path fill="none" stroke="#191970" d="M279.2156,-309.7455C299.2557,-312.3714 324.2793,-315.6504 345.2723,-318.4012"/>
<polygon fill="#191970" stroke="#191970" points="344.8447,-321.875 355.2147,-319.704 345.7543,-314.9343 344.8447,-321.875"/>
</g>
<!-- Node10 -->
<g id="node11" class="node">
<title>Node10</title>
<g id="a_node11"><a xlink:href="espconn__udp_8h.html#a48d2c0b2c80b094235633a05c586ca07" target="_top" xlink:title="espconn_udp_sendto">
<polygon fill="#ffffff" stroke="#000000" points="344,-276.5 344,-295.5 432,-295.5 432,-276.5 344,-276.5"/>
<text text-anchor="middle" x="388" y="-283.5" font-family="Helvetica,sans-Serif" font-size="10.00" fill="#000000">espconn_udp_sendto</text>
</a>
</g>
</g>
<!-- Node6&#45;&gt;Node10 -->
<g id="edge11" class="edge">
<title>Node6&#45;&gt;Node10</title>
<path fill="none" stroke="#191970" d="M279.2156,-300.2545C295.7772,-298.0844 315.7424,-295.4682 334.0234,-293.0728"/>
<polygon fill="#191970" stroke="#191970" points="334.5135,-296.5386 343.974,-291.7689 333.6039,-289.5979 334.5135,-296.5386"/>
</g>
<!-- Node11 -->
<g id="node12" class="node">
<title>Node11</title>
<g id="a_node12"><a xlink:href="wlan__lwip__if_8h.html#a7e70d2ab3f2caed091644850737a363e" target="_top" xlink:title="eagle_lwip_getif">
<polygon fill="#ffffff" stroke="#000000" points="720.5,-352.5 720.5,-371.5 790.5,-371.5 790.5,-352.5 720.5,-352.5"/>
<text text-anchor="middle" x="755.5" y="-359.5" font-family="Helvetica,sans-Serif" font-size="10.00" fill="#000000">eagle_lwip_getif</text>
</a>
</g>
</g>
<!-- Node10&#45;&gt;Node11 -->
<g id="edge12" class="edge">
<title>Node10&#45;&gt;Node11</title>
<path fill="none" stroke="#191970" d="M423.1349,-295.5675C428.7935,-298.067 434.3207,-301.1696 439,-305 462.4771,-324.2177 449.4031,-346.7122 475,-363 549.4164,-410.3525 658.9445,-390.1988 716.6482,-374.3589"/>
<polygon fill="#191970" stroke="#191970" points="717.8014,-377.6698 726.4627,-371.5679 715.8867,-370.9367 717.8014,-377.6698"/>
</g>
<!-- Node12 -->
<g id="node13" class="node">
<title>Node12</title>
<g id="a_node13"><a xlink:href="espconn__udp_8c.html#ad90679652367797548ea650f09d14f7e" target="_top" xlink:title="espconn_data_sent">
<polygon fill="#ffffff" stroke="#000000" points="475,-276.5 475,-295.5 557,-295.5 557,-276.5 475,-276.5"/>
<text text-anchor="middle" x="516" y="-283.5" font-family="Helvetica,sans-Serif" font-size="10.00" fill="#000000">espconn_data_sent</text>
</a>
</g>
</g>
<!-- Node10&#45;&gt;Node12 -->
<g id="edge13" class="edge">
<title>Node10&#45;&gt;Node12</title>
<path fill="none" stroke="#191970" d="M432.0503,-286C442.5723,-286 453.8937,-286 464.7103,-286"/>
<polygon fill="#191970" stroke="#191970" points="464.8837,-289.5001 474.8837,-286 464.8836,-282.5001 464.8837,-289.5001"/>
</g>
<!-- Node15 -->
<g id="node16" class="node">
<title>Node15</title>
<g id="a_node16"><a xlink:href="netif_8h.html#adf60dd30848a63ce3a1339c98c098acc" target="_top" xlink:title="netif_set_default">
<polygon fill="#ffffff" stroke="#000000" points="719.5,-314.5 719.5,-333.5 791.5,-333.5 791.5,-314.5 719.5,-314.5"/>
<text text-anchor="middle" x="755.5" y="-321.5" font-family="Helvetica,sans-Serif" font-size="10.00" fill="#000000">netif_set_default</text>
</a>
</g>
</g>
<!-- Node10&#45;&gt;Node15 -->
<g id="edge41" class="edge">
<title>Node10&#45;&gt;Node15</title>
<path fill="none" stroke="#191970" d="M419.9876,-295.594C426.5188,-298.1837 433.1706,-301.313 439,-305 457.8596,-316.9285 455.142,-329.8198 475,-340 522.4025,-364.301 539.9379,-356.3152 593,-361 632.845,-364.5179 644.1082,-370.3505 683,-361 684.2603,-360.697 707.9021,-348.5817 727.8498,-338.297"/>
<polygon fill="#191970" stroke="#191970" points="729.6646,-341.299 736.9457,-333.6025 726.4542,-335.0786 729.6646,-341.299"/>
</g>
<!-- Node16 -->
<g id="node17" class="node">
<title>Node16</title>
<g id="a_node17"><a xlink:href="pbuf_8h.html#ac6efc2aaeddfea6c95729dc86f785ba4" target="_top" xlink:title="pbuf_alloc">
<polygon fill="#ffffff" stroke="#000000" points="730,-238.5 730,-257.5 781,-257.5 781,-238.5 730,-238.5"/>
<text text-anchor="middle" x="755.5" y="-245.5" font-family="Helvetica,sans-Serif" font-size="10.00" fill="#000000">pbuf_alloc</text>
</a>
</g>
</g>
<!-- Node10&#45;&gt;Node16 -->
<g id="edge42" class="edge">
<title>Node10&#45;&gt;Node16</title>
<path fill="none" stroke="#191970" d="M413.7358,-276.4029C452.119,-262.6534 526.9346,-238.0137 593,-229 632.6328,-223.5926 643.328,-223.8879 683,-229 695.277,-230.582 708.4414,-233.612 720.1383,-236.7954"/>
<polygon fill="#191970" stroke="#191970" points="719.404,-240.2255 729.9803,-239.5999 721.3223,-233.4934 719.404,-240.2255"/>
</g>
<!-- Node25 -->
<g id="node26" class="node">
<title>Node25</title>
<g id="a_node26"><a xlink:href="pbuf_8h.html#a5aed441d496f607ad88ae1db2084c2d6" target="_top" xlink:title="pbuf_copy">
<polygon fill="#ffffff" stroke="#000000" points="730,-200.5 730,-219.5 781,-219.5 781,-200.5 730,-200.5"/>
<text text-anchor="middle" x="755.5" y="-207.5" font-family="Helvetica,sans-Serif" font-size="10.00" fill="#000000">pbuf_copy</text>
</a>
</g>
</g>
<!-- Node10&#45;&gt;Node25 -->
<g id="edge43" class="edge">
<title>Node10&#45;&gt;Node25</title>
<path fill="none" stroke="#191970" d="M420.0276,-276.4688C426.5561,-273.8748 433.1967,-270.728 439,-267 458.0377,-254.7703 454.4796,-240.5348 475,-231 555.9226,-193.3992 664.2292,-198.776 719.6016,-204.9347"/>
<polygon fill="#191970" stroke="#191970" points="719.2839,-208.4214 729.6266,-206.1239 720.1086,-201.4702 719.2839,-208.4214"/>
</g>
<!-- Node26 -->
<g id="node27" class="node">
<title>Node26</title>
<g id="a_node27"><a xlink:href="pbuf_8h.html#a0d26e00e2cf975274139d27ddabd7ed3" target="_top" xlink:title="pbuf_free">
<polygon fill="#ffffff" stroke="#000000" points="731.5,-276.5 731.5,-295.5 779.5,-295.5 779.5,-276.5 731.5,-276.5"/>
<text text-anchor="middle" x="755.5" y="-283.5" font-family="Helvetica,sans-Serif" font-size="10.00" fill="#000000">pbuf_free</text>
</a>
</g>
</g>
<!-- Node10&#45;&gt;Node26 -->
<g id="edge44" class="edge">
<title>Node10&#45;&gt;Node26</title>
<path fill="none" stroke="#191970" d="M413.7358,-295.5971C452.119,-309.3466 526.9346,-333.9863 593,-343 632.6328,-348.4074 646.255,-358.8052 683,-343 704.3713,-333.8075 700.426,-319.0086 719,-305 721.0462,-303.4568 723.2357,-301.9729 725.4881,-300.5622"/>
<polygon fill="#191970" stroke="#191970" points="727.3749,-303.5151 734.3176,-295.5119 723.8994,-297.4388 727.3749,-303.5151"/>
</g>
<!-- Node27 -->
<g id="node28" class="node">
<title>Node27</title>
<g id="a_node28"><a xlink:href="user__interface_8h.html#a48d756265c0c1c35ba1fba102efe4d0a" target="_top" xlink:title="wifi_get_opmode">
<polygon fill="#ffffff" stroke="#000000" points="719,-162.5 719,-181.5 792,-181.5 792,-162.5 719,-162.5"/>
<text text-anchor="middle" x="755.5" y="-169.5" font-family="Helvetica,sans-Serif" font-size="10.00" fill="#000000">wifi_get_opmode</text>
</a>
</g>
</g>
<!-- Node10&#45;&gt;Node27 -->
<g id="edge45" class="edge">
<title>Node10&#45;&gt;Node27</title>
<path fill="none" stroke="#191970" d="M423.5404,-276.4827C429.0901,-273.9843 434.4761,-270.8689 439,-267 463.8025,-245.7886 447.7775,-221.0007 475,-203 545.7448,-156.2205 649.0713,-158.5308 708.5686,-164.9317"/>
<polygon fill="#191970" stroke="#191970" points="708.458,-168.4423 718.795,-166.1192 709.2655,-161.489 708.458,-168.4423"/>
</g>
<!-- Node13 -->
<g id="node14" class="node">
<title>Node13</title>
<g id="a_node14"><a xlink:href="espconn__udp_8c.html#acf012530a067499d3c1f70091f09427f" target="_top" xlink:title="espconn_data_sentcb">
<polygon fill="#ffffff" stroke="#000000" points="593,-314.5 593,-333.5 683,-333.5 683,-314.5 593,-314.5"/>
<text text-anchor="middle" x="638" y="-321.5" font-family="Helvetica,sans-Serif" font-size="10.00" fill="#000000">espconn_data_sentcb</text>
</a>
</g>
</g>
<!-- Node12&#45;&gt;Node13 -->
<g id="edge14" class="edge">
<title>Node12&#45;&gt;Node13</title>
<path fill="none" stroke="#191970" d="M546.7858,-295.589C562.1013,-300.3594 580.8166,-306.1888 597.2998,-311.3229"/>
<polygon fill="#191970" stroke="#191970" points="596.6356,-314.7818 607.2241,-314.4141 598.7174,-308.0985 596.6356,-314.7818"/>
</g>
<!-- Node14 -->
<g id="node15" class="node">
<title>Node14</title>
<g id="a_node15"><a xlink:href="espconn__udp_8c.html#a01fa0df74518311e3eb03f2d955f9f26" target="_top" xlink:title="espconn_udp_sendto">
<polygon fill="#ffffff" stroke="#000000" points="594,-238.5 594,-257.5 682,-257.5 682,-238.5 594,-238.5"/>
<text text-anchor="middle" x="638" y="-245.5" font-family="Helvetica,sans-Serif" font-size="10.00" fill="#000000">espconn_udp_sendto</text>
</a>
</g>
</g>
<!-- Node12&#45;&gt;Node14 -->
<g id="edge15" class="edge">
<title>Node12&#45;&gt;Node14</title>
<path fill="none" stroke="#191970" d="M531.9494,-276.3009C545.3147,-270.5994 565.1995,-263.7467 584.1507,-258.0641"/>
<polygon fill="#191970" stroke="#191970" points="585.3155,-261.3703 593.9363,-255.2115 583.3564,-254.6501 585.3155,-261.3703"/>
</g>
<!-- Node28 -->
<g id="node29" class="node">
<title>Node28</title>
<g id="a_node29"><a xlink:href="espconn__udp_8c.html#ac963eff73234530596d6c02e6bb05e09" target="_top" xlink:title="espconn_udp_sent">
<polygon fill="#ffffff" stroke="#000000" points="598,-276.5 598,-295.5 678,-295.5 678,-276.5 598,-276.5"/>
<text text-anchor="middle" x="638" y="-283.5" font-family="Helvetica,sans-Serif" font-size="10.00" fill="#000000">espconn_udp_sent</text>
</a>
</g>
</g>
<!-- Node12&#45;&gt;Node28 -->
<g id="edge33" class="edge">
<title>Node12&#45;&gt;Node28</title>
<path fill="none" stroke="#191970" d="M557.3036,-279.573C567.1543,-279.2391 577.7726,-279.1641 587.9681,-279.3479"/>
<polygon fill="#191970" stroke="#191970" points="587.8879,-282.8469 597.9787,-279.6181 588.0768,-275.8495 587.8879,-282.8469"/>
</g>
<!-- Node14&#45;&gt;Node11 -->
<g id="edge16" class="edge">
<title>Node14&#45;&gt;Node11</title>
<path fill="none" stroke="#191970" d="M669.3552,-257.6953C674.3088,-260.1805 679.0809,-263.2454 683,-267 709.9888,-292.8562 693.0726,-316.0796 719,-343 720.2265,-344.2735 721.5571,-345.4784 722.9601,-346.616"/>
<polygon fill="#191970" stroke="#191970" points="721.3163,-349.7284 731.5675,-352.4051 725.223,-343.9199 721.3163,-349.7284"/>
</g>
<!-- Node14&#45;&gt;Node12 -->
<g id="edge17" class="edge">
<title>Node14&#45;&gt;Node12</title>
<path fill="none" stroke="#191970" d="M622.4092,-257.5458C608.3648,-263.5681 586.918,-270.9076 566.949,-276.7985"/>
<polygon fill="#191970" stroke="#191970" points="565.9529,-273.443 557.3036,-279.5619 567.8809,-280.1723 565.9529,-273.443"/>
</g>
<!-- Node14&#45;&gt;Node15 -->
<g id="edge18" class="edge">
<title>Node14&#45;&gt;Node15</title>
<path fill="none" stroke="#191970" d="M665.5996,-257.5262C671.5843,-260.1633 677.7025,-263.3292 683,-267 702.1223,-280.2504 700.426,-290.9914 719,-305 721.0462,-306.5432 723.2357,-308.0271 725.4881,-309.4378"/>
<polygon fill="#191970" stroke="#191970" points="723.8994,-312.5612 734.3176,-314.4881 727.3749,-306.4849 723.8994,-312.5612"/>
</g>
<!-- Node14&#45;&gt;Node16 -->
<g id="edge19" class="edge">
<title>Node14&#45;&gt;Node16</title>
<path fill="none" stroke="#191970" d="M682.087,-248C694.5777,-248 708.013,-248 719.9322,-248"/>
<polygon fill="#191970" stroke="#191970" points="719.9545,-251.5001 729.9545,-248 719.9544,-244.5001 719.9545,-251.5001"/>
</g>
<!-- Node14&#45;&gt;Node25 -->
<g id="edge28" class="edge">
<title>Node14&#45;&gt;Node25</title>
<path fill="none" stroke="#191970" d="M667.6502,-238.411C683.5269,-233.2764 703.1968,-226.9151 719.8965,-221.5143"/>
<polygon fill="#191970" stroke="#191970" points="721.4125,-224.7026 729.8503,-218.2952 719.2584,-218.0422 721.4125,-224.7026"/>
</g>
<!-- Node14&#45;&gt;Node26 -->
<g id="edge29" class="edge">
<title>Node14&#45;&gt;Node26</title>
<path fill="none" stroke="#191970" d="M667.6502,-257.589C684.1313,-262.9191 704.6999,-269.571 721.7906,-275.0982"/>
<polygon fill="#191970" stroke="#191970" points="720.8024,-278.4571 731.3942,-278.2041 722.9564,-271.7967 720.8024,-278.4571"/>
</g>
<!-- Node14&#45;&gt;Node27 -->
<g id="edge32" class="edge">
<title>Node14&#45;&gt;Node27</title>
<path fill="none" stroke="#191970" d="M650.5514,-238.3758C666.1779,-226.5815 693.8798,-206.2833 719,-191 721.5175,-189.4683 724.1714,-187.9369 726.8524,-186.4455"/>
<polygon fill="#191970" stroke="#191970" points="728.7543,-189.3971 735.9128,-181.5864 725.4459,-183.2283 728.7543,-189.3971"/>
</g>
<!-- Node17 -->
<g id="node18" class="node">
<title>Node17</title>
<g id="a_node18"><a xlink:href="esp-open-lwip_2include_2lwip_2mem_8h.html#a1cb005c6c44b685b8025b329a6d2bcd4" target="_top" xlink:title="mem_malloc">
<polygon fill="#ffffff" stroke="#000000" points="830,-238.5 830,-257.5 889,-257.5 889,-238.5 830,-238.5"/>
<text text-anchor="middle" x="859.5" y="-245.5" font-family="Helvetica,sans-Serif" font-size="10.00" fill="#000000">mem_malloc</text>
</a>
</g>
</g>
<!-- Node16&#45;&gt;Node17 -->
<g id="edge20" class="edge">
<title>Node16&#45;&gt;Node17</title>
<path fill="none" stroke="#191970" d="M781.2079,-248C792.7888,-248 806.7309,-248 819.6207,-248"/>
<polygon fill="#191970" stroke="#191970" points="819.6673,-251.5001 829.6673,-248 819.6673,-244.5001 819.6673,-251.5001"/>
</g>
<!-- Node20 -->
<g id="node21" class="node">
<title>Node20</title>
<g id="a_node21"><a xlink:href="memp_8h.html#a5b98c976852aa0eabda9fd588be56eb8" target="_top" xlink:title="memp_malloc">
<polygon fill="#ffffff" stroke="#000000" points="828,-200.5 828,-219.5 891,-219.5 891,-200.5 828,-200.5"/>
<text text-anchor="middle" x="859.5" y="-207.5" font-family="Helvetica,sans-Serif" font-size="10.00" fill="#000000">memp_malloc</text>
</a>
</g>
</g>
<!-- Node16&#45;&gt;Node20 -->
<g id="edge23" class="edge">
<title>Node16&#45;&gt;Node20</title>
<path fill="none" stroke="#191970" d="M781.2079,-238.6067C793.9862,-233.9377 809.6391,-228.2184 823.5813,-223.1241"/>
<polygon fill="#191970" stroke="#191970" points="825.174,-226.2686 833.3655,-219.5491 822.7716,-219.6937 825.174,-226.2686"/>
</g>
<!-- Node21 -->
<g id="node22" class="node">
<title>Node21</title>
<g id="a_node22"><a xlink:href="pbuf_8c.html#ab0dd696fb4b6bc65e548944584f1738b" target="_top" xlink:title="pbuf_free">
<polygon fill="#ffffff" stroke="#000000" points="835.5,-314.5 835.5,-333.5 883.5,-333.5 883.5,-314.5 835.5,-314.5"/>
<text text-anchor="middle" x="859.5" y="-321.5" font-family="Helvetica,sans-Serif" font-size="10.00" fill="#000000">pbuf_free</text>
</a>
</g>
</g>
<!-- Node16&#45;&gt;Node21 -->
<g id="edge24" class="edge">
<title>Node16&#45;&gt;Node21</title>
<path fill="none" stroke="#191970" d="M776.0394,-257.68C781.3724,-260.4639 787.0156,-263.6583 792,-267 810.1463,-279.1659 828.996,-295.4396 842.1487,-307.4836"/>
<polygon fill="#191970" stroke="#191970" points="839.8382,-310.1146 849.5446,-314.3616 844.6053,-304.9886 839.8382,-310.1146"/>
</g>
<!-- Node18 -->
<g id="node19" class="node">
<title>Node18</title>
<g id="a_node19"><a xlink:href="sys_8h.html#a4d4eb9afe5965fa2661dd54ff55d616a" target="_top" xlink:title="sys_mutex_lock">
<polygon fill="#ffffff" stroke="#000000" points="931,-243.5 931,-262.5 1001,-262.5 1001,-243.5 931,-243.5"/>
<text text-anchor="middle" x="966" y="-250.5" font-family="Helvetica,sans-Serif" font-size="10.00" fill="#000000">sys_mutex_lock</text>
</a>
</g>
</g>
<!-- Node17&#45;&gt;Node18 -->
<g id="edge21" class="edge">
<title>Node17&#45;&gt;Node18</title>
<path fill="none" stroke="#191970" d="M889.1662,-249.3928C898.9609,-249.8526 910.0898,-250.3751 920.7771,-250.8769"/>
<polygon fill="#191970" stroke="#191970" points="920.6773,-254.3759 930.8305,-251.3488 921.0056,-247.3836 920.6773,-254.3759"/>
</g>
<!-- Node19 -->
<g id="node20" class="node">
<title>Node19</title>
<g id="a_node20"><a xlink:href="sys_8h.html#a5568f68898fe9d5735f9ce2f665624fb" target="_top" xlink:title="sys_mutex_unlock">
<polygon fill="#ffffff" stroke="#000000" points="927,-205.5 927,-224.5 1005,-224.5 1005,-205.5 927,-205.5"/>
<text text-anchor="middle" x="966" y="-212.5" font-family="Helvetica,sans-Serif" font-size="10.00" fill="#000000">sys_mutex_unlock</text>
</a>
</g>
</g>
<!-- Node17&#45;&gt;Node19 -->
<g id="edge22" class="edge">
<title>Node17&#45;&gt;Node19</title>
<path fill="none" stroke="#191970" d="M889.1662,-238.8077C900.3217,-235.351 913.2078,-231.3582 925.2011,-227.6419"/>
<polygon fill="#191970" stroke="#191970" points="926.492,-230.9062 935.008,-224.6032 924.4201,-224.2198 926.492,-230.9062"/>
</g>
<!-- Node22 -->
<g id="node23" class="node">
<title>Node22</title>
<g id="a_node23"><a xlink:href="esp-open-lwip_2include_2lwip_2mem_8h.html#ab270bbe39e1996d7095be3a139620ce0" target="_top" xlink:title="mem_free">
<polygon fill="#ffffff" stroke="#000000" points="941,-290.5 941,-309.5 991,-309.5 991,-290.5 941,-290.5"/>
<text text-anchor="middle" x="966" y="-297.5" font-family="Helvetica,sans-Serif" font-size="10.00" fill="#000000">mem_free</text>
</a>
</g>
</g>
<!-- Node21&#45;&gt;Node22 -->
<g id="edge25" class="edge">
<title>Node21&#45;&gt;Node22</title>
<path fill="none" stroke="#191970" d="M883.6665,-318.554C897.662,-315.4001 915.5239,-311.3749 931.0315,-307.8802"/>
<polygon fill="#191970" stroke="#191970" points="931.832,-311.2877 940.8179,-305.6748 930.2931,-304.4589 931.832,-311.2877"/>
</g>
<!-- Node24 -->
<g id="node25" class="node">
<title>Node24</title>
<g id="a_node25"><a xlink:href="memp_8h.html#a9d30a969401eb0626105950d6e63f3bf" target="_top" xlink:title="memp_free">
<polygon fill="#ffffff" stroke="#000000" points="939,-347.5 939,-366.5 993,-366.5 993,-347.5 939,-347.5"/>
<text text-anchor="middle" x="966" y="-354.5" font-family="Helvetica,sans-Serif" font-size="10.00" fill="#000000">memp_free</text>
</a>
</g>
</g>
<!-- Node21&#45;&gt;Node24 -->
<g id="edge27" class="edge">
<title>Node21&#45;&gt;Node24</title>
<path fill="none" stroke="#191970" d="M883.6665,-331.4882C897.1585,-335.6688 914.2438,-340.9629 929.3491,-345.6434"/>
<polygon fill="#191970" stroke="#191970" points="928.344,-348.9961 938.9319,-348.6127 930.4159,-342.3097 928.344,-348.9961"/>
</g>
<!-- Node23 -->
<g id="node24" class="node">
<title>Node23</title>
<g id="a_node24"><a xlink:href="mem_8c.html#a24221009a2c00e9c3fa63eaa9444a076" target="_top" xlink:title="plug_holes">
<polygon fill="#ffffff" stroke="#000000" points="1041,-290.5 1041,-309.5 1094,-309.5 1094,-290.5 1041,-290.5"/>
<text text-anchor="middle" x="1067.5" y="-297.5" font-family="Helvetica,sans-Serif" font-size="10.00" fill="#000000">plug_holes</text>
</a>
</g>
</g>
<!-- Node22&#45;&gt;Node23 -->
<g id="edge26" class="edge">
<title>Node22&#45;&gt;Node23</title>
<path fill="none" stroke="#191970" d="M991.0899,-300C1003.041,-300 1017.5684,-300 1030.734,-300"/>
<polygon fill="#191970" stroke="#191970" points="1030.9253,-303.5001 1040.9253,-300 1030.9253,-296.5001 1030.9253,-303.5001"/>
</g>
<!-- Node26&#45;&gt;Node22 -->
<g id="edge30" class="edge">
<title>Node26&#45;&gt;Node22</title>
<path fill="none" stroke="#191970" d="M779.647,-287.606C816.7598,-290.0743 888.0094,-294.813 930.8488,-297.6622"/>
<polygon fill="#191970" stroke="#191970" points="930.6207,-301.1546 940.8309,-298.326 931.0853,-294.1701 930.6207,-301.1546"/>
</g>
<!-- Node26&#45;&gt;Node24 -->
<g id="edge31" class="edge">
<title>Node26&#45;&gt;Node24</title>
<path fill="none" stroke="#191970" d="M776.6824,-295.5119C781.8973,-298.2556 787.323,-301.4726 792,-305 810.574,-319.0086 807.1205,-332.7394 828,-343 859.4717,-358.4659 899.7904,-360.867 928.7087,-360.0622"/>
<polygon fill="#191970" stroke="#191970" points="928.9649,-363.5546 938.8095,-359.6389 928.6717,-356.5608 928.9649,-363.5546"/>
</g>
<!-- Node28&#45;&gt;Node11 -->
<g id="edge34" class="edge">
<title>Node28&#45;&gt;Node11</title>
<path fill="none" stroke="#191970" d="M665.5996,-295.5262C671.5843,-298.1633 677.7025,-301.3292 683,-305 702.1223,-318.2504 700.426,-328.9914 719,-343 721.0462,-344.5432 723.2357,-346.0271 725.4881,-347.4378"/>
<polygon fill="#191970" stroke="#191970" points="723.8994,-350.5612 734.3176,-352.4881 727.3749,-344.4849 723.8994,-350.5612"/>
</g>
<!-- Node28&#45;&gt;Node12 -->
<g id="edge35" class="edge">
<title>Node28&#45;&gt;Node12</title>
<path fill="none" stroke="#191970" d="M597.9787,-292.3819C588.1972,-292.7384 577.5962,-292.8359 567.3661,-292.6746"/>
<polygon fill="#191970" stroke="#191970" points="567.3867,-289.1742 557.3036,-292.427 567.2145,-296.172 567.3867,-289.1742"/>
</g>
<!-- Node28&#45;&gt;Node15 -->
<g id="edge36" class="edge">
<title>Node28&#45;&gt;Node15</title>
<path fill="none" stroke="#191970" d="M667.6502,-295.589C682.4009,-300.3594 700.4258,-306.1888 716.301,-311.3229"/>
<polygon fill="#191970" stroke="#191970" points="715.2675,-314.667 725.8593,-314.4141 717.4215,-308.0067 715.2675,-314.667"/>
</g>
<!-- Node28&#45;&gt;Node16 -->
<g id="edge37" class="edge">
<title>Node28&#45;&gt;Node16</title>
<path fill="none" stroke="#191970" d="M667.6502,-276.411C683.5269,-271.2764 703.1968,-264.9151 719.8965,-259.5143"/>
<polygon fill="#191970" stroke="#191970" points="721.4125,-262.7026 729.8503,-256.2952 719.2584,-256.0422 721.4125,-262.7026"/>
</g>
<!-- Node28&#45;&gt;Node25 -->
<g id="edge38" class="edge">
<title>Node28&#45;&gt;Node25</title>
<path fill="none" stroke="#191970" d="M665.5996,-276.4738C671.5843,-273.8367 677.7025,-270.6708 683,-267 702.1223,-253.7496 700.426,-243.0086 719,-229 721.0462,-227.4568 723.2357,-225.9729 725.4881,-224.5622"/>
<polygon fill="#191970" stroke="#191970" points="727.3749,-227.5151 734.3176,-219.5119 723.8994,-221.4388 727.3749,-227.5151"/>
</g>
<!-- Node28&#45;&gt;Node26 -->
<g id="edge39" class="edge">
<title>Node28&#45;&gt;Node26</title>
<path fill="none" stroke="#191970" d="M678.1082,-286C692.0622,-286 707.5814,-286 721.0376,-286"/>
<polygon fill="#191970" stroke="#191970" points="721.3176,-289.5001 731.3175,-286 721.3175,-282.5001 721.3176,-289.5001"/>
</g>
<!-- Node28&#45;&gt;Node27 -->
<g id="edge40" class="edge">
<title>Node28&#45;&gt;Node27</title>
<path fill="none" stroke="#191970" d="M669.3552,-276.3047C674.3088,-273.8195 679.0809,-270.7546 683,-267 709.9888,-241.1438 693.0726,-217.9204 719,-191 720.2265,-189.7265 721.5571,-188.5216 722.9601,-187.384"/>
<polygon fill="#191970" stroke="#191970" points="725.223,-190.0801 731.5675,-181.5949 721.3163,-184.2716 725.223,-190.0801"/>
</g>
<!-- Node29&#45;&gt;Node30 -->
<g id="edge47" class="edge">
<title>Node29&#45;&gt;Node30</title>
<path fill="none" stroke="#191970" d="M268.5893,-194.3531C292.0272,-197.4242 326.9278,-201.9974 352.9526,-205.4076"/>
<polygon fill="#191970" stroke="#191970" points="352.7809,-208.9149 363.1509,-206.7439 353.6904,-201.9743 352.7809,-208.9149"/>
</g>
</g>
</svg>
