<?xml version="1.0" encoding="UTF-8" standalone="no"?>
<!DOCTYPE svg PUBLIC "-//W3C//DTD SVG 1.1//EN"
 "http://www.w3.org/Graphics/SVG/1.1/DTD/svg11.dtd">
<!-- Generated by graphviz version 2.40.1 (20161225.0304)
 -->
<!-- Title: cfg_save Pages: 1 -->
<svg width="634pt" height="179pt"
 viewBox="0.00 0.00 634.00 179.00" xmlns="http://www.w3.org/2000/svg" xmlns:xlink="http://www.w3.org/1999/xlink">
<g id="graph0" class="graph" transform="scale(1 1) rotate(0) translate(4 175)">
<title>cfg_save</title>
<polygon fill="#ffffff" stroke="transparent" points="-4,4 -4,-175 630,-175 630,4 -4,4"/>
<!-- Node32 -->
<g id="node1" class="node">
<title>Node32</title>
<polygon fill="#bfbfbf" stroke="#000000" points="0,-113.5 0,-132.5 47,-132.5 47,-113.5 0,-113.5"/>
<text text-anchor="middle" x="23.5" y="-120.5" font-family="Helvetica,sans-Serif" font-size="10.00" fill="#000000">cfg_save</text>
</g>
<!-- Node33 -->
<g id="node2" class="node">
<title>Node33</title>
<g id="a_node2"><a xlink:href="config_8h.html#a92adb6c5103eed30e16185a9cd233e51" target="_top" xlink:title="cfg_load">
<polygon fill="#ffffff" stroke="#000000" points="108.5,-151.5 108.5,-170.5 153.5,-170.5 153.5,-151.5 108.5,-151.5"/>
<text text-anchor="middle" x="131" y="-158.5" font-family="Helvetica,sans-Serif" font-size="10.00" fill="#000000">cfg_load</text>
</a>
</g>
</g>
<!-- Node32&#45;&gt;Node33 -->
<g id="edge1" class="edge">
<title>Node32&#45;&gt;Node33</title>
<path fill="none" stroke="#191970" d="M56.5228,-134.6732C73.2669,-140.592 93.1799,-147.631 108.201,-152.9408"/>
<polygon fill="#191970" stroke="#191970" points="57.6861,-131.3722 47.0913,-131.3393 55.3531,-137.972 57.6861,-131.3722"/>
</g>
<!-- Node35 -->
<g id="node4" class="node">
<title>Node35</title>
<g id="a_node4"><a xlink:href="cgiwifi_8h.html#a7c655a56f56ecebad923c5c4daeb7f1a" target="_top" xlink:title="cgiSetup">
<polygon fill="#ffffff" stroke="#000000" points="108,-113.5 108,-132.5 154,-132.5 154,-113.5 108,-113.5"/>
<text text-anchor="middle" x="131" y="-120.5" font-family="Helvetica,sans-Serif" font-size="10.00" fill="#000000">cgiSetup</text>
</a>
</g>
</g>
<!-- Node32&#45;&gt;Node35 -->
<g id="edge3" class="edge">
<title>Node32&#45;&gt;Node35</title>
<path fill="none" stroke="#191970" d="M57.3911,-123C73.8145,-123 93.1162,-123 107.8333,-123"/>
<polygon fill="#191970" stroke="#191970" points="57.0914,-119.5001 47.0913,-123 57.0913,-126.5001 57.0914,-119.5001"/>
</g>
<!-- Node36 -->
<g id="node5" class="node">
<title>Node36</title>
<g id="a_node5"><a xlink:href="config_8h.html#a1e0d59e84f6bbc2564bcdf595b6972da" target="_top" xlink:title="config_save_timer_func">
<polygon fill="#ffffff" stroke="#000000" points="83,-57.5 83,-76.5 179,-76.5 179,-57.5 83,-57.5"/>
<text text-anchor="middle" x="131" y="-64.5" font-family="Helvetica,sans-Serif" font-size="10.00" fill="#000000">config_save_timer_func</text>
</a>
</g>
</g>
<!-- Node32&#45;&gt;Node36 -->
<g id="edge4" class="edge">
<title>Node32&#45;&gt;Node36</title>
<path fill="none" stroke="#191970" d="M51.1485,-108.5971C70.4199,-98.558 95.6031,-85.4393 112.4895,-76.6427"/>
<polygon fill="#191970" stroke="#191970" points="49.4768,-105.5214 42.2251,-113.2455 52.7109,-111.7296 49.4768,-105.5214"/>
</g>
<!-- Node34 -->
<g id="node3" class="node">
<title>Node34</title>
<g id="a_node3"><a xlink:href="cgiwifi_8h.html#ace460e5ac8fd74afa8616bfc82561b26" target="_top" xlink:title="tplSetup">
<polygon fill="#ffffff" stroke="#000000" points="231,-151.5 231,-170.5 275,-170.5 275,-151.5 231,-151.5"/>
<text text-anchor="middle" x="253" y="-158.5" font-family="Helvetica,sans-Serif" font-size="10.00" fill="#000000">tplSetup</text>
</a>
</g>
</g>
<!-- Node33&#45;&gt;Node34 -->
<g id="edge2" class="edge">
<title>Node33&#45;&gt;Node34</title>
<path fill="none" stroke="#191970" d="M163.8585,-161C185.0969,-161 212.1643,-161 230.8714,-161"/>
<polygon fill="#191970" stroke="#191970" points="163.6614,-157.5001 153.6613,-161 163.6613,-164.5001 163.6614,-157.5001"/>
</g>
<!-- Node36&#45;&gt;Node36 -->
<g id="edge13" class="edge">
<title>Node36&#45;&gt;Node36</title>
<path fill="none" stroke="#191970" d="M111.3713,-86.4C112.6822,-91.3146 119.2251,-95 131,-95 149.8398,-95 155.2857,-85.5653 147.3377,-76.7571"/>
<polygon fill="#191970" stroke="#191970" points="114.7447,-87.3516 114.6623,-76.7571 108.1199,-85.0906 114.7447,-87.3516"/>
</g>
<!-- Node37 -->
<g id="node6" class="node">
<title>Node37</title>
<g id="a_node6"><a xlink:href="config_8h.html#ab4af9f95b39f096bb0fa8d73eb5a342e" target="_top" xlink:title="cfg_save_defered">
<polygon fill="#ffffff" stroke="#000000" points="215,-57.5 215,-76.5 291,-76.5 291,-57.5 215,-57.5"/>
<text text-anchor="middle" x="253" y="-64.5" font-family="Helvetica,sans-Serif" font-size="10.00" fill="#000000">cfg_save_defered</text>
</a>
</g>
</g>
<!-- Node36&#45;&gt;Node37 -->
<g id="edge5" class="edge">
<title>Node36&#45;&gt;Node37</title>
<path fill="none" stroke="#191970" d="M189.3384,-67C198.0241,-67 206.7818,-67 214.9055,-67"/>
<polygon fill="#191970" stroke="#191970" points="189.2177,-63.5001 179.2176,-67 189.2176,-70.5001 189.2177,-63.5001"/>
</g>
<!-- Node38 -->
<g id="node7" class="node">
<title>Node38</title>
<g id="a_node7"><a xlink:href="ac__out_8h.html#a1573f96ac038a6a1b29a6f21403a2341" target="_top" xlink:title="ac_thermo_open">
<polygon fill="#ffffff" stroke="#000000" points="342.5,-114.5 342.5,-133.5 415.5,-133.5 415.5,-114.5 342.5,-114.5"/>
<text text-anchor="middle" x="379" y="-121.5" font-family="Helvetica,sans-Serif" font-size="10.00" fill="#000000">ac_thermo_open</text>
</a>
</g>
</g>
<!-- Node37&#45;&gt;Node38 -->
<g id="edge6" class="edge">
<title>Node37&#45;&gt;Node38</title>
<path fill="none" stroke="#191970" d="M279.0954,-81.4051C293.0966,-88.8764 310.7665,-97.8989 327,-105 334.6611,-108.3513 343.1207,-111.6191 350.9513,-114.4731"/>
<polygon fill="#191970" stroke="#191970" points="280.5136,-78.1933 270.0513,-76.5232 277.1886,-84.3532 280.5136,-78.1933"/>
</g>
<!-- Node41 -->
<g id="node10" class="node">
<title>Node41</title>
<g id="a_node10"><a xlink:href="ac__out_8h.html#a3bc674b019d5e2e4d15e7abe7c69029f" target="_top" xlink:title="ac_thermo_close">
<polygon fill="#ffffff" stroke="#000000" points="342,-76.5 342,-95.5 416,-95.5 416,-76.5 342,-76.5"/>
<text text-anchor="middle" x="379" y="-83.5" font-family="Helvetica,sans-Serif" font-size="10.00" fill="#000000">ac_thermo_close</text>
</a>
</g>
</g>
<!-- Node37&#45;&gt;Node41 -->
<g id="edge9" class="edge">
<title>Node37&#45;&gt;Node41</title>
<path fill="none" stroke="#191970" d="M301.2191,-74.2711C314.6929,-76.3029 329.1225,-78.4788 341.8494,-80.3979"/>
<polygon fill="#191970" stroke="#191970" points="301.5562,-70.7825 291.1461,-72.7522 300.5124,-77.7042 301.5562,-70.7825"/>
</g>
<!-- Node42 -->
<g id="node11" class="node">
<title>Node42</title>
<g id="a_node11"><a xlink:href="cron_8h.html#abede8d12ed6e5d5f3412eda37b325d03" target="_top" xlink:title="add_cron_job_from_query">
<polygon fill="#ffffff" stroke="#000000" points="327,-38.5 327,-57.5 431,-57.5 431,-38.5 327,-38.5"/>
<text text-anchor="middle" x="379" y="-45.5" font-family="Helvetica,sans-Serif" font-size="10.00" fill="#000000">add_cron_job_from_query</text>
</a>
</g>
</g>
<!-- Node37&#45;&gt;Node42 -->
<g id="edge11" class="edge">
<title>Node37&#45;&gt;Node42</title>
<path fill="none" stroke="#191970" d="M301.0871,-59.7488C309.4219,-58.4919 318.1261,-57.1794 326.5696,-55.9062"/>
<polygon fill="#191970" stroke="#191970" points="300.5124,-56.2958 291.1461,-61.2478 301.5562,-63.2175 300.5124,-56.2958"/>
</g>
<!-- Node43 -->
<g id="node12" class="node">
<title>Node43</title>
<g id="a_node12"><a xlink:href="cron_8h.html#ad014b7bf4eab144ea9fc5669d896714b" target="_top" xlink:title="clear_cron_jobs">
<polygon fill="#ffffff" stroke="#000000" points="344.5,-.5 344.5,-19.5 413.5,-19.5 413.5,-.5 344.5,-.5"/>
<text text-anchor="middle" x="379" y="-7.5" font-family="Helvetica,sans-Serif" font-size="10.00" fill="#000000">clear_cron_jobs</text>
</a>
</g>
</g>
<!-- Node37&#45;&gt;Node43 -->
<g id="edge12" class="edge">
<title>Node37&#45;&gt;Node43</title>
<path fill="none" stroke="#191970" d="M279.0954,-52.5949C293.0966,-45.1236 310.7665,-36.1011 327,-29 334.6611,-25.6487 343.1207,-22.3809 350.9513,-19.5269"/>
<polygon fill="#191970" stroke="#191970" points="277.1886,-49.6468 270.0513,-57.4768 280.5136,-55.8067 277.1886,-49.6468"/>
</g>
<!-- Node39 -->
<g id="node8" class="node">
<title>Node39</title>
<g id="a_node8"><a xlink:href="cron_8c.html#a2782af03df9b913cfa565a0770e1afe1" target="_top" xlink:title="minute_timer_func">
<polygon fill="#ffffff" stroke="#000000" points="467,-95.5 467,-114.5 545,-114.5 545,-95.5 467,-95.5"/>
<text text-anchor="middle" x="506" y="-102.5" font-family="Helvetica,sans-Serif" font-size="10.00" fill="#000000">minute_timer_func</text>
</a>
</g>
</g>
<!-- Node38&#45;&gt;Node39 -->
<g id="edge7" class="edge">
<title>Node38&#45;&gt;Node39</title>
<path fill="none" stroke="#191970" d="M425.7637,-117.0039C439.2124,-114.9918 453.7396,-112.8185 466.6889,-110.8812"/>
<polygon fill="#191970" stroke="#191970" points="425.1057,-113.5633 415.7337,-118.5044 426.1415,-120.4862 425.1057,-113.5633"/>
</g>
<!-- Node40 -->
<g id="node9" class="node">
<title>Node40</title>
<g id="a_node9"><a xlink:href="cron_8h.html#ae130c5973bad35b56776750c7a34db12" target="_top" xlink:title="cron_init">
<polygon fill="#ffffff" stroke="#000000" points="581,-95.5 581,-114.5 626,-114.5 626,-95.5 581,-95.5"/>
<text text-anchor="middle" x="603.5" y="-102.5" font-family="Helvetica,sans-Serif" font-size="10.00" fill="#000000">cron_init</text>
</a>
</g>
</g>
<!-- Node39&#45;&gt;Node40 -->
<g id="edge8" class="edge">
<title>Node39&#45;&gt;Node40</title>
<path fill="none" stroke="#191970" d="M555.2132,-105C564.2251,-105 573.2159,-105 580.9536,-105"/>
<polygon fill="#191970" stroke="#191970" points="555.0952,-101.5001 545.0952,-105 555.0952,-108.5001 555.0952,-101.5001"/>
</g>
<!-- Node41&#45;&gt;Node39 -->
<g id="edge10" class="edge">
<title>Node41&#45;&gt;Node39</title>
<path fill="none" stroke="#191970" d="M426.0931,-93.0454C439.5184,-95.0539 453.9941,-97.2196 466.888,-99.1486"/>
<polygon fill="#191970" stroke="#191970" points="426.4829,-89.5649 416.0751,-91.5467 425.4471,-96.4878 426.4829,-89.5649"/>
</g>
</g>
</svg>
