<?xml version="1.0" encoding="UTF-8" standalone="no"?>
<!DOCTYPE svg PUBLIC "-//W3C//DTD SVG 1.1//EN"
 "http://www.w3.org/Graphics/SVG/1.1/DTD/svg11.dtd">
<!-- Generated by graphviz version 2.40.1 (20161225.0304)
 -->
<!-- Title: cfg_load Pages: 1 -->
<svg width="563pt" height="420pt"
 viewBox="0.00 0.00 563.00 420.00" xmlns="http://www.w3.org/2000/svg" xmlns:xlink="http://www.w3.org/1999/xlink">
<g id="graph0" class="graph" transform="scale(1 1) rotate(0) translate(4 416)">
<title>cfg_load</title>
<polygon fill="#ffffff" stroke="transparent" points="-4,4 -4,-416 559,-416 559,4 -4,4"/>
<!-- Node0 -->
<g id="node1" class="node">
<title>Node0</title>
<polygon fill="#bfbfbf" stroke="#000000" points="0,-247.5 0,-266.5 45,-266.5 45,-247.5 0,-247.5"/>
<text text-anchor="middle" x="22.5" y="-254.5" font-family="Helvetica,sans-Serif" font-size="10.00" fill="#000000">cfg_load</text>
</g>
<!-- Node1 -->
<g id="node2" class="node">
<title>Node1</title>
<g id="a_node2"><a xlink:href="utils_8c.html#a8d9e1de95e2d6d103108a4b0ebf4d923" target="_top" xlink:title="ccit_crc16">
<polygon fill="#ffffff" stroke="#000000" points="227.5,-392.5 227.5,-411.5 277.5,-411.5 277.5,-392.5 227.5,-392.5"/>
<text text-anchor="middle" x="252.5" y="-399.5" font-family="Helvetica,sans-Serif" font-size="10.00" fill="#000000">ccit_crc16</text>
</a>
</g>
</g>
<!-- Node0&#45;&gt;Node1 -->
<g id="edge1" class="edge">
<title>Node0&#45;&gt;Node1</title>
<path fill="none" stroke="#191970" d="M27.7198,-266.7091C36.6844,-282.5658 56.4352,-314.1395 81,-333 122.5341,-364.8893 180.7898,-384.158 217.5808,-393.9398"/>
<polygon fill="#191970" stroke="#191970" points="216.8005,-397.3529 227.3568,-396.4498 218.5414,-390.5728 216.8005,-397.3529"/>
</g>
<!-- Node2 -->
<g id="node3" class="node">
<title>Node2</title>
<g id="a_node3"><a xlink:href="config_8c.html#acd3c633ba5f49d7bb46d6e4efa31ddb2" target="_top" xlink:title="cfg_save">
<polygon fill="#ffffff" stroke="#000000" points="99.5,-304.5 99.5,-323.5 146.5,-323.5 146.5,-304.5 99.5,-304.5"/>
<text text-anchor="middle" x="123" y="-311.5" font-family="Helvetica,sans-Serif" font-size="10.00" fill="#000000">cfg_save</text>
</a>
</g>
</g>
<!-- Node0&#45;&gt;Node2 -->
<g id="edge2" class="edge">
<title>Node0&#45;&gt;Node2</title>
<path fill="none" stroke="#191970" d="M39.5485,-266.6693C55.3813,-275.6491 79.1739,-289.1434 97.3082,-299.4285"/>
<polygon fill="#191970" stroke="#191970" points="95.7782,-302.5845 106.2033,-304.4735 99.2317,-296.4956 95.7782,-302.5845"/>
</g>
<!-- Node5 -->
<g id="node6" class="node">
<title>Node5</title>
<g id="a_node6"><a xlink:href="ext__spi__flash_8c.html#a094d4588aff8210b1bb94ae90fb58526" target="_top" xlink:title="ext_spi_flash_read">
<polygon fill="#ffffff" stroke="#000000" points="213,-216.5 213,-235.5 292,-235.5 292,-216.5 213,-216.5"/>
<text text-anchor="middle" x="252.5" y="-223.5" font-family="Helvetica,sans-Serif" font-size="10.00" fill="#000000">ext_spi_flash_read</text>
</a>
</g>
</g>
<!-- Node0&#45;&gt;Node5 -->
<g id="edge11" class="edge">
<title>Node0&#45;&gt;Node5</title>
<path fill="none" stroke="#191970" d="M45.408,-259.3705C73.7322,-261.7596 123.3069,-264.1674 165,-257 175.6467,-255.1697 199.1387,-246.7549 219.1024,-239.1539"/>
<polygon fill="#191970" stroke="#191970" points="220.4712,-242.3775 228.5477,-235.5203 217.9578,-235.8442 220.4712,-242.3775"/>
</g>
<!-- Node8 -->
<g id="node9" class="node">
<title>Node8</title>
<g id="a_node9"><a xlink:href="user__interface_8h.html#a86228f8d572c91ec871684121dad0647" target="_top" xlink:title="system_get_chip_id">
<polygon fill="#ffffff" stroke="#000000" points="81.5,-228.5 81.5,-247.5 164.5,-247.5 164.5,-228.5 81.5,-228.5"/>
<text text-anchor="middle" x="123" y="-235.5" font-family="Helvetica,sans-Serif" font-size="10.00" fill="#000000">system_get_chip_id</text>
</a>
</g>
</g>
<!-- Node0&#45;&gt;Node8 -->
<g id="edge12" class="edge">
<title>Node0&#45;&gt;Node8</title>
<path fill="none" stroke="#191970" d="M45.0542,-252.736C52.8742,-251.2576 61.9956,-249.5332 71.1868,-247.7955"/>
<polygon fill="#191970" stroke="#191970" points="71.9537,-251.2126 81.1294,-245.9158 70.6533,-244.3345 71.9537,-251.2126"/>
</g>
<!-- Node9 -->
<g id="node10" class="node">
<title>Node9</title>
<g id="a_node10"><a xlink:href="user__interface_8h.html#a753aade115708d360f25bff422ef1f55" target="_top" xlink:title="system_param_load">
<polygon fill="#ffffff" stroke="#000000" points="81,-190.5 81,-209.5 165,-209.5 165,-190.5 81,-190.5"/>
<text text-anchor="middle" x="123" y="-197.5" font-family="Helvetica,sans-Serif" font-size="10.00" fill="#000000">system_param_load</text>
</a>
</g>
</g>
<!-- Node0&#45;&gt;Node9 -->
<g id="edge13" class="edge">
<title>Node0&#45;&gt;Node9</title>
<path fill="none" stroke="#191970" d="M36.0854,-247.3335C47.7166,-239.2647 65.0615,-227.7166 81,-219 84.1136,-217.2972 87.4088,-215.6142 90.7292,-213.9952"/>
<polygon fill="#191970" stroke="#191970" points="92.4542,-217.0521 100.0237,-209.639 89.4835,-210.7138 92.4542,-217.0521"/>
</g>
<!-- Node10 -->
<g id="node11" class="node">
<title>Node10</title>
<g id="a_node11"><a xlink:href="tinyprintf_8c.html#a9738cbc6c538d210941db282e240c7d6" target="_top" xlink:title="tfp_snprintf">
<polygon fill="#ffffff" stroke="#000000" points="96,-152.5 96,-171.5 150,-171.5 150,-152.5 96,-152.5"/>
<text text-anchor="middle" x="123" y="-159.5" font-family="Helvetica,sans-Serif" font-size="10.00" fill="#000000">tfp_snprintf</text>
</a>
</g>
</g>
<!-- Node0&#45;&gt;Node10 -->
<g id="edge14" class="edge">
<title>Node0&#45;&gt;Node10</title>
<path fill="none" stroke="#191970" d="M27.784,-247.3732C36.8408,-231.6348 56.7212,-200.2273 81,-181 83.0312,-179.3914 85.2204,-177.8858 87.495,-176.4829"/>
<polygon fill="#191970" stroke="#191970" points="89.4158,-179.4229 96.5391,-171.58 86.0797,-173.269 89.4158,-179.4229"/>
</g>
<!-- Node2&#45;&gt;Node1 -->
<g id="edge3" class="edge">
<title>Node2&#45;&gt;Node1</title>
<path fill="none" stroke="#191970" d="M131.7049,-323.7306C145.2486,-338.3635 172.7575,-366.1149 201,-383 206.1877,-386.1015 211.9658,-388.8324 217.7235,-391.186"/>
<polygon fill="#191970" stroke="#191970" points="216.694,-394.5383 227.2859,-394.7895 219.1625,-387.9879 216.694,-394.5383"/>
</g>
<!-- Node3 -->
<g id="node4" class="node">
<title>Node3</title>
<g id="a_node4"><a xlink:href="ext__spi__flash_8c.html#ab4369189179b556a6b8e2155433c5f70" target="_top" xlink:title="ext_spi_flash_erase\l_sector">
<polygon fill="#ffffff" stroke="#000000" points="211,-343 211,-373 294,-373 294,-343 211,-343"/>
<text text-anchor="start" x="219" y="-361" font-family="Helvetica,sans-Serif" font-size="10.00" fill="#000000">ext_spi_flash_erase</text>
<text text-anchor="middle" x="252.5" y="-350" font-family="Helvetica,sans-Serif" font-size="10.00" fill="#000000">_sector</text>
</a>
</g>
</g>
<!-- Node2&#45;&gt;Node3 -->
<g id="edge4" class="edge">
<title>Node2&#45;&gt;Node3</title>
<path fill="none" stroke="#191970" d="M146.7523,-322.0703C161.9864,-327.2463 182.364,-334.17 201.1637,-340.5576"/>
<polygon fill="#191970" stroke="#191970" points="200.221,-343.9337 210.8153,-343.8369 202.4729,-337.3058 200.221,-343.9337"/>
</g>
<!-- Node2&#45;&gt;Node5 -->
<g id="edge6" class="edge">
<title>Node2&#45;&gt;Node5</title>
<path fill="none" stroke="#191970" d="M143.2103,-304.4C150.4638,-300.4661 158.4599,-295.5323 165,-290 184.2909,-273.6819 180.5501,-260.8398 201,-246 204.184,-243.6895 207.6697,-241.6059 211.2788,-239.7359"/>
<polygon fill="#191970" stroke="#191970" points="212.7929,-242.892 220.4023,-235.5199 209.8564,-236.5376 212.7929,-242.892"/>
</g>
<!-- Node6 -->
<g id="node7" class="node">
<title>Node6</title>
<g id="a_node7"><a xlink:href="ext__spi__flash_8c.html#a17e27ce44dd5aec4dd7a7de609093aae" target="_top" xlink:title="ext_spi_flash_write">
<polygon fill="#ffffff" stroke="#000000" points="212.5,-304.5 212.5,-323.5 292.5,-323.5 292.5,-304.5 212.5,-304.5"/>
<text text-anchor="middle" x="252.5" y="-311.5" font-family="Helvetica,sans-Serif" font-size="10.00" fill="#000000">ext_spi_flash_write</text>
</a>
</g>
</g>
<!-- Node2&#45;&gt;Node6 -->
<g id="edge8" class="edge">
<title>Node2&#45;&gt;Node6</title>
<path fill="none" stroke="#191970" d="M146.7523,-314C162.2879,-314 183.1725,-314 202.278,-314"/>
<polygon fill="#191970" stroke="#191970" points="202.3653,-317.5001 212.3653,-314 202.3652,-310.5001 202.3653,-317.5001"/>
</g>
<!-- Node7 -->
<g id="node8" class="node">
<title>Node7</title>
<g id="a_node8"><a xlink:href="user__interface_8h.html#ae68a7b6345630e42fde3e827108571e0" target="_top" xlink:title="system_param_save_with\l_protect">
<polygon fill="#ffffff" stroke="#000000" points="201,-255 201,-285 304,-285 304,-255 201,-255"/>
<text text-anchor="start" x="209" y="-273" font-family="Helvetica,sans-Serif" font-size="10.00" fill="#000000">system_param_save_with</text>
<text text-anchor="middle" x="252.5" y="-262" font-family="Helvetica,sans-Serif" font-size="10.00" fill="#000000">_protect</text>
</a>
</g>
</g>
<!-- Node2&#45;&gt;Node7 -->
<g id="edge10" class="edge">
<title>Node2&#45;&gt;Node7</title>
<path fill="none" stroke="#191970" d="M146.7523,-305.9297C161.2305,-301.0105 180.3545,-294.5127 198.3546,-288.3969"/>
<polygon fill="#191970" stroke="#191970" points="199.8599,-291.582 208.2023,-285.0509 197.6079,-284.9541 199.8599,-291.582"/>
</g>
<!-- Node4 -->
<g id="node5" class="node">
<title>Node4</title>
<g id="a_node5"><a xlink:href="spi_8c.html#acebb579091ca980f217d3e5f3bd1f1d5" target="_top" xlink:title="spi_transaction">
<polygon fill="#ffffff" stroke="#000000" points="341,-304.5 341,-323.5 408,-323.5 408,-304.5 341,-304.5"/>
<text text-anchor="middle" x="374.5" y="-311.5" font-family="Helvetica,sans-Serif" font-size="10.00" fill="#000000">spi_transaction</text>
</a>
</g>
</g>
<!-- Node3&#45;&gt;Node4 -->
<g id="edge5" class="edge">
<title>Node3&#45;&gt;Node4</title>
<path fill="none" stroke="#191970" d="M294.1443,-342.9808C308.4752,-337.8122 324.3962,-332.0702 338.2614,-327.0697"/>
<polygon fill="#191970" stroke="#191970" points="339.7226,-330.2634 347.942,-323.5783 337.3477,-323.6786 339.7226,-330.2634"/>
</g>
<!-- Node5&#45;&gt;Node4 -->
<g id="edge7" class="edge">
<title>Node5&#45;&gt;Node4</title>
<path fill="none" stroke="#191970" d="M282.8887,-235.5001C290.0817,-238.3633 297.5353,-241.8665 304,-246 326.0008,-260.0673 346.9747,-281.726 360.2373,-296.8069"/>
<polygon fill="#191970" stroke="#191970" points="357.6009,-299.1093 366.7695,-304.4185 362.913,-294.5504 357.6009,-299.1093"/>
</g>
<!-- Node6&#45;&gt;Node4 -->
<g id="edge9" class="edge">
<title>Node6&#45;&gt;Node4</title>
<path fill="none" stroke="#191970" d="M292.7855,-314C304.9315,-314 318.3209,-314 330.6848,-314"/>
<polygon fill="#191970" stroke="#191970" points="330.7794,-317.5001 340.7794,-314 330.7793,-310.5001 330.7794,-317.5001"/>
</g>
<!-- Node11 -->
<g id="node12" class="node">
<title>Node11</title>
<g id="a_node12"><a xlink:href="tinyprintf_8c.html#ac8c8a66133cf0d7009c0d73b55311a44" target="_top" xlink:title="tfp_vsnprintf">
<polygon fill="#ffffff" stroke="#000000" points="224,-152.5 224,-171.5 281,-171.5 281,-152.5 224,-152.5"/>
<text text-anchor="middle" x="252.5" y="-159.5" font-family="Helvetica,sans-Serif" font-size="10.00" fill="#000000">tfp_vsnprintf</text>
</a>
</g>
</g>
<!-- Node10&#45;&gt;Node11 -->
<g id="edge15" class="edge">
<title>Node10&#45;&gt;Node11</title>
<path fill="none" stroke="#191970" d="M150.1474,-162C168.4632,-162 192.9221,-162 213.337,-162"/>
<polygon fill="#191970" stroke="#191970" points="213.5901,-165.5001 223.59,-162 213.59,-158.5001 213.5901,-165.5001"/>
</g>
<!-- Node12 -->
<g id="node13" class="node">
<title>Node12</title>
<g id="a_node13"><a xlink:href="tinyprintf_8c.html#a5877e42444463efc71a91b5fe76a6145" target="_top" xlink:title="tfp_format">
<polygon fill="#ffffff" stroke="#000000" points="349.5,-133.5 349.5,-152.5 399.5,-152.5 399.5,-133.5 349.5,-133.5"/>
<text text-anchor="middle" x="374.5" y="-140.5" font-family="Helvetica,sans-Serif" font-size="10.00" fill="#000000">tfp_format</text>
</a>
</g>
</g>
<!-- Node11&#45;&gt;Node12 -->
<g id="edge16" class="edge">
<title>Node11&#45;&gt;Node12</title>
<path fill="none" stroke="#191970" d="M281.1036,-157.5453C298.4934,-154.8371 320.8317,-151.3582 339.3013,-148.4818"/>
<polygon fill="#191970" stroke="#191970" points="340.0422,-151.9087 349.3845,-146.9114 338.9649,-144.992 340.0422,-151.9087"/>
</g>
<!-- Node22 -->
<g id="node23" class="node">
<title>Node22</title>
<g id="a_node23"><a xlink:href="tinyprintf_8c.html#a919051024b2d729e34a54648b3f2462d" target="_top" xlink:title="_vsnprintf_putcf">
<polygon fill="#ffffff" stroke="#000000" points="340,-171.5 340,-190.5 409,-190.5 409,-171.5 340,-171.5"/>
<text text-anchor="middle" x="374.5" y="-178.5" font-family="Helvetica,sans-Serif" font-size="10.00" fill="#000000">_vsnprintf_putcf</text>
</a>
</g>
</g>
<!-- Node11&#45;&gt;Node22 -->
<g id="edge29" class="edge">
<title>Node11&#45;&gt;Node22</title>
<path fill="none" stroke="#191970" d="M281.1036,-166.4547C295.6845,-168.7255 313.7445,-171.5381 330.0858,-174.083"/>
<polygon fill="#191970" stroke="#191970" points="329.5725,-177.5452 339.992,-175.6258 330.6497,-170.6286 329.5725,-177.5452"/>
</g>
<!-- Node13 -->
<g id="node14" class="node">
<title>Node13</title>
<g id="a_node14"><a xlink:href="tinyprintf_8c.html#aa97593a5e53af85b608ad0910db92d77" target="_top" xlink:title="a2u">
<polygon fill="#ffffff" stroke="#000000" points="450.5,-266.5 450.5,-285.5 479.5,-285.5 479.5,-266.5 450.5,-266.5"/>
<text text-anchor="middle" x="465" y="-273.5" font-family="Helvetica,sans-Serif" font-size="10.00" fill="#000000">a2u</text>
</a>
</g>
</g>
<!-- Node12&#45;&gt;Node13 -->
<g id="edge17" class="edge">
<title>Node12&#45;&gt;Node13</title>
<path fill="none" stroke="#191970" d="M397.2943,-152.6202C401.5834,-155.1949 405.7391,-158.3115 409,-162 437.5349,-194.2763 422.9383,-214.9962 445,-252 446.2186,-254.044 447.607,-256.0923 449.0712,-258.0834"/>
<polygon fill="#191970" stroke="#191970" points="446.6721,-260.6827 455.6831,-266.2552 452.1139,-256.2797 446.6721,-260.6827"/>
</g>
<!-- Node15 -->
<g id="node16" class="node">
<title>Node15</title>
<g id="a_node16"><a xlink:href="tinyprintf_8c.html#abcf035dd576671b0cc897de9dd8c75b0" target="_top" xlink:title="ulli2a">
<polygon fill="#ffffff" stroke="#000000" points="521,-209.5 521,-228.5 555,-228.5 555,-209.5 521,-209.5"/>
<text text-anchor="middle" x="538" y="-216.5" font-family="Helvetica,sans-Serif" font-size="10.00" fill="#000000">ulli2a</text>
</a>
</g>
</g>
<!-- Node12&#45;&gt;Node15 -->
<g id="edge19" class="edge">
<title>Node12&#45;&gt;Node15</title>
<path fill="none" stroke="#191970" d="M396.0725,-152.6862C400.6394,-155.3151 405.2169,-158.4371 409,-162 430.8121,-182.5429 418.759,-204.5368 445,-219 464.9245,-229.9818 491.0905,-228.8745 510.5909,-225.6591"/>
<polygon fill="#191970" stroke="#191970" points="511.4997,-229.0485 520.6567,-223.7193 510.175,-222.1749 511.4997,-229.0485"/>
</g>
<!-- Node16 -->
<g id="node17" class="node">
<title>Node16</title>
<g id="a_node17"><a xlink:href="tinyprintf_8c.html#a1d61347854a8c290d59b4a21efcefd75" target="_top" xlink:title="uli2a">
<polygon fill="#ffffff" stroke="#000000" points="522,-85.5 522,-104.5 554,-104.5 554,-85.5 522,-85.5"/>
<text text-anchor="middle" x="538" y="-92.5" font-family="Helvetica,sans-Serif" font-size="10.00" fill="#000000">uli2a</text>
</a>
</g>
</g>
<!-- Node12&#45;&gt;Node16 -->
<g id="edge20" class="edge">
<title>Node12&#45;&gt;Node16</title>
<path fill="none" stroke="#191970" d="M388.3595,-133.4184C402.0801,-124.4575 424.0172,-111.5078 445,-105 466.7819,-98.2444 492.6533,-95.8914 511.5721,-95.1436"/>
<polygon fill="#191970" stroke="#191970" points="511.9221,-98.6356 521.8243,-94.8677 511.7337,-91.6381 511.9221,-98.6356"/>
</g>
<!-- Node17 -->
<g id="node18" class="node">
<title>Node17</title>
<g id="a_node18"><a xlink:href="tinyprintf_8c.html#ac87ff66a592723f55692eaf8e3f19df8" target="_top" xlink:title="ui2a">
<polygon fill="#ffffff" stroke="#000000" points="522.5,-28.5 522.5,-47.5 553.5,-47.5 553.5,-28.5 522.5,-28.5"/>
<text text-anchor="middle" x="538" y="-35.5" font-family="Helvetica,sans-Serif" font-size="10.00" fill="#000000">ui2a</text>
</a>
</g>
</g>
<!-- Node12&#45;&gt;Node17 -->
<g id="edge21" class="edge">
<title>Node12&#45;&gt;Node17</title>
<path fill="none" stroke="#191970" d="M387.2721,-133.4579C401.2282,-123.1462 424.355,-106.393 445,-93 467.7512,-78.2407 494.4662,-62.6104 513.4117,-51.8002"/>
<polygon fill="#191970" stroke="#191970" points="515.3222,-54.7404 522.2924,-46.7612 511.8677,-48.6522 515.3222,-54.7404"/>
</g>
<!-- Node18 -->
<g id="node19" class="node">
<title>Node18</title>
<g id="a_node19"><a xlink:href="tinyprintf_8c.html#a6252dbfebb2c8783c4e3107d551082dd" target="_top" xlink:title="putchw">
<polygon fill="#ffffff" stroke="#000000" points="445,-114.5 445,-133.5 485,-133.5 485,-114.5 445,-114.5"/>
<text text-anchor="middle" x="465" y="-121.5" font-family="Helvetica,sans-Serif" font-size="10.00" fill="#000000">putchw</text>
</a>
</g>
</g>
<!-- Node12&#45;&gt;Node18 -->
<g id="edge22" class="edge">
<title>Node12&#45;&gt;Node18</title>
<path fill="none" stroke="#191970" d="M399.7093,-137.7074C410.601,-135.4208 423.434,-132.7266 434.8272,-130.3346"/>
<polygon fill="#191970" stroke="#191970" points="435.7211,-133.7233 444.7886,-128.2433 434.2828,-126.8727 435.7211,-133.7233"/>
</g>
<!-- Node19 -->
<g id="node20" class="node">
<title>Node19</title>
<g id="a_node20"><a xlink:href="tinyprintf_8c.html#a49c6d2b3d4088012f2c1fe344eef69f3" target="_top" xlink:title="lli2a">
<polygon fill="#ffffff" stroke="#000000" points="450,-190.5 450,-209.5 480,-209.5 480,-190.5 450,-190.5"/>
<text text-anchor="middle" x="465" y="-197.5" font-family="Helvetica,sans-Serif" font-size="10.00" fill="#000000">lli2a</text>
</a>
</g>
</g>
<!-- Node12&#45;&gt;Node19 -->
<g id="edge23" class="edge">
<title>Node12&#45;&gt;Node19</title>
<path fill="none" stroke="#191970" d="M392.5872,-152.55C397.9311,-155.4815 403.7529,-158.7844 409,-162 420.4672,-169.0274 432.8759,-177.3679 443.0915,-184.4422"/>
<polygon fill="#191970" stroke="#191970" points="441.2241,-187.4072 451.4254,-190.2682 445.2348,-181.6701 441.2241,-187.4072"/>
</g>
<!-- Node20 -->
<g id="node21" class="node">
<title>Node20</title>
<g id="a_node21"><a xlink:href="tinyprintf_8c.html#afebb7696337c3f599b5e8db35c560684" target="_top" xlink:title="li2a">
<polygon fill="#ffffff" stroke="#000000" points="450.5,-152.5 450.5,-171.5 479.5,-171.5 479.5,-152.5 450.5,-152.5"/>
<text text-anchor="middle" x="465" y="-159.5" font-family="Helvetica,sans-Serif" font-size="10.00" fill="#000000">li2a</text>
</a>
</g>
</g>
<!-- Node12&#45;&gt;Node20 -->
<g id="edge25" class="edge">
<title>Node12&#45;&gt;Node20</title>
<path fill="none" stroke="#191970" d="M399.7093,-148.2926C412.4577,-150.969 427.8657,-154.2038 440.5115,-156.8588"/>
<polygon fill="#191970" stroke="#191970" points="439.8595,-160.2981 450.3653,-158.9275 441.2978,-153.4475 439.8595,-160.2981"/>
</g>
<!-- Node21 -->
<g id="node22" class="node">
<title>Node21</title>
<g id="a_node22"><a xlink:href="tinyprintf_8c.html#a90f9fd8f2133cda7f50be8d67823405c" target="_top" xlink:title="i2a">
<polygon fill="#ffffff" stroke="#000000" points="450.5,-.5 450.5,-19.5 479.5,-19.5 479.5,-.5 450.5,-.5"/>
<text text-anchor="middle" x="465" y="-7.5" font-family="Helvetica,sans-Serif" font-size="10.00" fill="#000000">i2a</text>
</a>
</g>
</g>
<!-- Node12&#45;&gt;Node21 -->
<g id="edge27" class="edge">
<title>Node12&#45;&gt;Node21</title>
<path fill="none" stroke="#191970" d="M380.1641,-133.412C391.6813,-114.1116 418.952,-69.3953 445,-34 446.5752,-31.8595 448.2802,-29.6591 450.0075,-27.5002"/>
<polygon fill="#191970" stroke="#191970" points="452.8716,-29.5291 456.5525,-19.5941 447.4795,-25.0652 452.8716,-29.5291"/>
</g>
<!-- Node14 -->
<g id="node15" class="node">
<title>Node14</title>
<g id="a_node15"><a xlink:href="tinyprintf_8c.html#aa853a0c5ba64fa2546d488b86192e7e3" target="_top" xlink:title="a2d">
<polygon fill="#ffffff" stroke="#000000" points="523.5,-266.5 523.5,-285.5 552.5,-285.5 552.5,-266.5 523.5,-266.5"/>
<text text-anchor="middle" x="538" y="-273.5" font-family="Helvetica,sans-Serif" font-size="10.00" fill="#000000">a2d</text>
</a>
</g>
</g>
<!-- Node13&#45;&gt;Node14 -->
<g id="edge18" class="edge">
<title>Node13&#45;&gt;Node14</title>
<path fill="none" stroke="#191970" d="M479.7726,-276C489.3705,-276 502.1197,-276 513.2412,-276"/>
<polygon fill="#191970" stroke="#191970" points="513.2494,-279.5001 523.2493,-276 513.2493,-272.5001 513.2494,-279.5001"/>
</g>
<!-- Node19&#45;&gt;Node15 -->
<g id="edge24" class="edge">
<title>Node19&#45;&gt;Node15</title>
<path fill="none" stroke="#191970" d="M480.1256,-203.9368C489.021,-206.252 500.5313,-209.2479 510.9415,-211.9574"/>
<polygon fill="#191970" stroke="#191970" points="510.2881,-215.4038 520.8473,-214.5356 512.0513,-208.6295 510.2881,-215.4038"/>
</g>
<!-- Node20&#45;&gt;Node16 -->
<g id="edge26" class="edge">
<title>Node20&#45;&gt;Node16</title>
<path fill="none" stroke="#191970" d="M475.4591,-152.4005C487.0597,-141.7535 505.9829,-124.3856 519.9805,-111.5385"/>
<polygon fill="#191970" stroke="#191970" points="522.5596,-113.9221 527.5603,-104.5817 517.8263,-108.7649 522.5596,-113.9221"/>
</g>
<!-- Node21&#45;&gt;Node17 -->
<g id="edge28" class="edge">
<title>Node21&#45;&gt;Node17</title>
<path fill="none" stroke="#191970" d="M479.7726,-15.6662C489.278,-19.3121 501.8744,-24.1436 512.9194,-28.38"/>
<polygon fill="#191970" stroke="#191970" points="511.9033,-31.7389 522.4935,-32.0523 514.4102,-25.2031 511.9033,-31.7389"/>
</g>
</g>
</svg>
