<?xml version="1.0" encoding="UTF-8" standalone="no"?>
<!DOCTYPE svg PUBLIC "-//W3C//DTD SVG 1.1//EN"
 "http://www.w3.org/Graphics/SVG/1.1/DTD/svg11.dtd">
<!-- Generated by graphviz version 2.40.1 (20161225.0304)
 -->
<!-- Title: user/crypto/crypto.h Pages: 1 -->
<svg width="695pt" height="218pt"
 viewBox="0.00 0.00 695.00 218.00" xmlns="http://www.w3.org/2000/svg" xmlns:xlink="http://www.w3.org/1999/xlink">
<g id="graph0" class="graph" transform="scale(1 1) rotate(0) translate(4 214)">
<title>user/crypto/crypto.h</title>
<polygon fill="#ffffff" stroke="transparent" points="-4,4 -4,-214 691,-214 691,4 -4,4"/>
<!-- Node28 -->
<g id="node1" class="node">
<title>Node28</title>
<polygon fill="#bfbfbf" stroke="#000000" points="283.5,-190.5 283.5,-209.5 365.5,-209.5 365.5,-190.5 283.5,-190.5"/>
<text text-anchor="middle" x="324.5" y="-197.5" font-family="Helvetica,sans-Serif" font-size="10.00" fill="#000000">user/crypto/crypto.h</text>
</g>
<!-- Node29 -->
<g id="node2" class="node">
<title>Node29</title>
<g id="a_node2"><a xlink:href="crypto_8c.html" target="_top" xlink:title="user/crypto/crypto.c">
<polygon fill="#ffffff" stroke="#000000" points="128.5,-6 128.5,-25 210.5,-25 210.5,-6 128.5,-6"/>
<text text-anchor="middle" x="169.5" y="-13" font-family="Helvetica,sans-Serif" font-size="10.00" fill="#000000">user/crypto/crypto.c</text>
</a>
</g>
</g>
<!-- Node28&#45;&gt;Node29 -->
<g id="edge1" class="edge">
<title>Node28&#45;&gt;Node29</title>
<path fill="none" stroke="#191970" d="M273.194,-190.8192C219.6008,-178.0718 138.9094,-149.1411 106.5,-87 93.2644,-61.6224 126.6884,-37.8915 149.7531,-25.1712"/>
<polygon fill="#191970" stroke="#191970" points="272.6718,-194.2896 283.1982,-193.0868 274.2193,-187.4628 272.6718,-194.2896"/>
</g>
<!-- Node30 -->
<g id="node3" class="node">
<title>Node30</title>
<g id="a_node3"><a xlink:href="hmac-sha256_8c.html" target="_top" xlink:title="user/crypto/hmac&#45;sha256.c">
<polygon fill="#ffffff" stroke="#000000" points="0,-6 0,-25 107,-25 107,-6 0,-6"/>
<text text-anchor="middle" x="53.5" y="-13" font-family="Helvetica,sans-Serif" font-size="10.00" fill="#000000">user/crypto/hmac&#45;sha256.c</text>
</a>
</g>
</g>
<!-- Node28&#45;&gt;Node30 -->
<g id="edge2" class="edge">
<title>Node28&#45;&gt;Node30</title>
<path fill="none" stroke="#191970" d="M273.2786,-192.6341C223.643,-184.6637 152.7027,-170.8122 130.5,-154 85.0989,-119.6216 62.7755,-50.2849 55.8931,-25.0015"/>
<polygon fill="#191970" stroke="#191970" points="272.7886,-196.0999 283.2111,-194.1967 273.8766,-189.185 272.7886,-196.0999"/>
</g>
<!-- Node31 -->
<g id="node4" class="node">
<title>Node31</title>
<g id="a_node4"><a xlink:href="hmac-sha256_8h.html" target="_top" xlink:title="user/crypto/hmac&#45;sha256.h">
<polygon fill="#ffffff" stroke="#000000" points="116,-67.5 116,-86.5 223,-86.5 223,-67.5 116,-67.5"/>
<text text-anchor="middle" x="169.5" y="-74.5" font-family="Helvetica,sans-Serif" font-size="10.00" fill="#000000">user/crypto/hmac&#45;sha256.h</text>
</a>
</g>
</g>
<!-- Node28&#45;&gt;Node31 -->
<g id="edge3" class="edge">
<title>Node28&#45;&gt;Node31</title>
<path fill="none" stroke="#191970" d="M290.696,-186.277C273.2488,-178.2974 252.1845,-167.2077 235.5,-154 209.8229,-133.6737 186.6169,-102.2363 175.8459,-86.5637"/>
<polygon fill="#191970" stroke="#191970" points="289.4054,-189.5333 299.966,-190.3839 292.2408,-183.1332 289.4054,-189.5333"/>
</g>
<!-- Node32 -->
<g id="node5" class="node">
<title>Node32</title>
<g id="a_node5"><a xlink:href="esp-open-sdk_2esp-open-lwip_2user_2user__main_8c.html" target="_top" xlink:title="esp&#45;open&#45;lwip/user\l/user_main.c">
<polygon fill="#ffffff" stroke="#000000" points="249.5,-.5 249.5,-30.5 329.5,-30.5 329.5,-.5 249.5,-.5"/>
<text text-anchor="start" x="257.5" y="-18.5" font-family="Helvetica,sans-Serif" font-size="10.00" fill="#000000">esp&#45;open&#45;lwip/user</text>
<text text-anchor="middle" x="289.5" y="-7.5" font-family="Helvetica,sans-Serif" font-size="10.00" fill="#000000">/user_main.c</text>
</a>
</g>
</g>
<!-- Node28&#45;&gt;Node32 -->
<g id="edge15" class="edge">
<title>Node28&#45;&gt;Node32</title>
<path fill="none" stroke="#191970" d="M347.9523,-184.5726C382.678,-159.7695 440.7795,-109.499 412.5,-67 394.1604,-39.439 357.9303,-26.5994 329.5191,-20.6345"/>
<polygon fill="#191970" stroke="#191970" points="345.91,-181.7297 339.6942,-190.3095 349.9039,-187.4786 345.91,-181.7297"/>
</g>
<!-- Node33 -->
<g id="node6" class="node">
<title>Node33</title>
<g id="a_node6"><a xlink:href="sha256_8c.html" target="_top" xlink:title="user/crypto/sha256.c">
<polygon fill="#ffffff" stroke="#000000" points="317.5,-67.5 317.5,-86.5 403.5,-86.5 403.5,-67.5 317.5,-67.5"/>
<text text-anchor="middle" x="360.5" y="-74.5" font-family="Helvetica,sans-Serif" font-size="10.00" fill="#000000">user/crypto/sha256.c</text>
</a>
</g>
</g>
<!-- Node28&#45;&gt;Node33 -->
<g id="edge7" class="edge">
<title>Node28&#45;&gt;Node33</title>
<path fill="none" stroke="#191970" d="M332.125,-180.8462C335.2452,-172.6494 338.7584,-162.9273 341.5,-154 348.8567,-130.0446 355.3563,-101.2325 358.4992,-86.5772"/>
<polygon fill="#191970" stroke="#191970" points="328.8349,-179.65 328.4705,-190.2386 335.3585,-182.1883 328.8349,-179.65"/>
</g>
<!-- Node34 -->
<g id="node7" class="node">
<title>Node34</title>
<g id="a_node7"><a xlink:href="sha256_8h.html" target="_top" xlink:title="user/crypto/sha256.h">
<polygon fill="#ffffff" stroke="#000000" points="245,-129 245,-148 332,-148 332,-129 245,-129"/>
<text text-anchor="middle" x="288.5" y="-136" font-family="Helvetica,sans-Serif" font-size="10.00" fill="#000000">user/crypto/sha256.h</text>
</a>
</g>
</g>
<!-- Node28&#45;&gt;Node34 -->
<g id="edge8" class="edge">
<title>Node28&#45;&gt;Node34</title>
<path fill="none" stroke="#191970" d="M313.7209,-181.5857C307.309,-170.632 299.4316,-157.1748 294.2043,-148.2449"/>
<polygon fill="#191970" stroke="#191970" points="310.8026,-183.5286 318.875,-190.3906 316.8437,-179.9923 310.8026,-183.5286"/>
</g>
<!-- Node35 -->
<g id="node8" class="node">
<title>Node35</title>
<g id="a_node8"><a xlink:href="en61107__request_8c.html" target="_top" xlink:title="user/en61107/en61107\l_request.c">
<polygon fill="#ffffff" stroke="#000000" points="459.5,-123.5 459.5,-153.5 553.5,-153.5 553.5,-123.5 459.5,-123.5"/>
<text text-anchor="start" x="467.5" y="-141.5" font-family="Helvetica,sans-Serif" font-size="10.00" fill="#000000">user/en61107/en61107</text>
<text text-anchor="middle" x="506.5" y="-130.5" font-family="Helvetica,sans-Serif" font-size="10.00" fill="#000000">_request.c</text>
</a>
</g>
</g>
<!-- Node28&#45;&gt;Node35 -->
<g id="edge13" class="edge">
<title>Node28&#45;&gt;Node35</title>
<path fill="none" stroke="#191970" d="M362.6965,-187.0929C391.6685,-177.303 431.5588,-163.8235 461.9778,-153.5446"/>
<polygon fill="#191970" stroke="#191970" points="361.2908,-183.8735 352.9375,-190.3906 363.5317,-190.5051 361.2908,-183.8735"/>
</g>
<!-- Node36 -->
<g id="node9" class="node">
<title>Node36</title>
<g id="a_node9"><a xlink:href="kmp__request_8c.html" target="_top" xlink:title="user/kamstrup/kmp_request.c">
<polygon fill="#ffffff" stroke="#000000" points="572,-129 572,-148 687,-148 687,-129 572,-129"/>
<text text-anchor="middle" x="629.5" y="-136" font-family="Helvetica,sans-Serif" font-size="10.00" fill="#000000">user/kamstrup/kmp_request.c</text>
</a>
</g>
</g>
<!-- Node28&#45;&gt;Node36 -->
<g id="edge14" class="edge">
<title>Node28&#45;&gt;Node36</title>
<path fill="none" stroke="#191970" d="M375.7614,-190.6504C424.0347,-181.7137 498.3162,-167.6222 562.5,-154 571.2593,-152.141 580.6368,-150.0408 589.5185,-148.0004"/>
<polygon fill="#191970" stroke="#191970" points="375.0664,-187.2195 365.8682,-192.4771 376.3375,-194.1031 375.0664,-187.2195"/>
</g>
<!-- Node31&#45;&gt;Node29 -->
<g id="edge4" class="edge">
<title>Node31&#45;&gt;Node29</title>
<path fill="none" stroke="#191970" d="M169.5,-57.2462C169.5,-46.5519 169.5,-33.814 169.5,-25.2449"/>
<polygon fill="#191970" stroke="#191970" points="166.0001,-57.3906 169.5,-67.3906 173.0001,-57.3907 166.0001,-57.3906"/>
</g>
<!-- Node31&#45;&gt;Node30 -->
<g id="edge5" class="edge">
<title>Node31&#45;&gt;Node30</title>
<path fill="none" stroke="#191970" d="M142.2843,-62.571C120.4541,-50.9972 90.4315,-35.0801 71.4977,-25.0419"/>
<polygon fill="#191970" stroke="#191970" points="140.9004,-65.7987 151.375,-67.3906 144.1794,-59.6142 140.9004,-65.7987"/>
</g>
<!-- Node31&#45;&gt;Node32 -->
<g id="edge6" class="edge">
<title>Node31&#45;&gt;Node32</title>
<path fill="none" stroke="#191970" d="M197.2271,-62.7899C216.0721,-53.1318 240.9641,-40.3747 260.1447,-30.5446"/>
<polygon fill="#191970" stroke="#191970" points="195.553,-59.7149 188.25,-67.3906 198.7457,-65.9444 195.553,-59.7149"/>
</g>
<!-- Node34&#45;&gt;Node29 -->
<g id="edge9" class="edge">
<title>Node34&#45;&gt;Node29</title>
<path fill="none" stroke="#191970" d="M275.6418,-120.3413C264.6636,-105.3609 248.0636,-83.9002 231.5,-67 215.8288,-51.0104 195.5279,-34.8906 182.5059,-25.0493"/>
<polygon fill="#191970" stroke="#191970" points="273.0088,-122.6737 281.7002,-128.7326 278.6842,-118.5761 273.0088,-122.6737"/>
</g>
<!-- Node34&#45;&gt;Node31 -->
<g id="edge10" class="edge">
<title>Node34&#45;&gt;Node31</title>
<path fill="none" stroke="#191970" d="M260.8812,-124.2264C238.4621,-112.6401 207.4737,-96.6251 187.9632,-86.5419"/>
<polygon fill="#191970" stroke="#191970" points="259.4156,-127.4087 269.9063,-128.8906 262.6294,-121.1901 259.4156,-127.4087"/>
</g>
<!-- Node34&#45;&gt;Node32 -->
<g id="edge12" class="edge">
<title>Node34&#45;&gt;Node32</title>
<path fill="none" stroke="#191970" d="M288.6619,-118.5818C288.8614,-94.0448 289.196,-52.8968 289.3761,-30.7365"/>
<polygon fill="#191970" stroke="#191970" points="285.16,-118.8202 288.5785,-128.8484 292.1597,-118.8772 285.16,-118.8202"/>
</g>
<!-- Node34&#45;&gt;Node33 -->
<g id="edge11" class="edge">
<title>Node34&#45;&gt;Node33</title>
<path fill="none" stroke="#191970" d="M307.3848,-122.3692C320.6277,-111.0576 337.8976,-96.3062 349.0914,-86.7449"/>
<polygon fill="#191970" stroke="#191970" points="305.0805,-119.7344 299.75,-128.8906 309.627,-125.057 305.0805,-119.7344"/>
</g>
</g>
</svg>
