<?xml version="1.0" encoding="UTF-8" standalone="no"?>
<!DOCTYPE svg PUBLIC "-//W3C//DTD SVG 1.1//EN"
 "http://www.w3.org/Graphics/SVG/1.1/DTD/svg11.dtd">
<!-- Generated by graphviz version 2.40.1 (20161225.0304)
 -->
<!-- Title: parse_msg Pages: 1 -->
<svg width="208pt" height="142pt"
 viewBox="0.00 0.00 208.00 142.00" xmlns="http://www.w3.org/2000/svg" xmlns:xlink="http://www.w3.org/1999/xlink">
<g id="graph0" class="graph" transform="scale(1 1) rotate(0) translate(4 138)">
<title>parse_msg</title>
<polygon fill="#ffffff" stroke="transparent" points="-4,4 -4,-138 204,-138 204,4 -4,4"/>
<!-- Node116 -->
<g id="node1" class="node">
<title>Node116</title>
<polygon fill="#bfbfbf" stroke="#000000" points="0,-57.5 0,-76.5 54,-76.5 54,-57.5 0,-57.5"/>
<text text-anchor="middle" x="27" y="-64.5" font-family="Helvetica,sans-Serif" font-size="10.00" fill="#000000">parse_msg</text>
</g>
<!-- Node117 -->
<g id="node2" class="node">
<title>Node117</title>
<g id="a_node2"><a xlink:href="dhcpserver_8c.html#a6575d1e13274b93e442ed73730c88e60" target="_top" xlink:title="node_insert_to_list">
<polygon fill="#ffffff" stroke="#000000" points="105.5,-114.5 105.5,-133.5 184.5,-133.5 184.5,-114.5 105.5,-114.5"/>
<text text-anchor="middle" x="145" y="-121.5" font-family="Helvetica,sans-Serif" font-size="10.00" fill="#000000">node_insert_to_list</text>
</a>
</g>
</g>
<!-- Node116&#45;&gt;Node117 -->
<g id="edge1" class="edge">
<title>Node116&#45;&gt;Node117</title>
<path fill="none" stroke="#191970" d="M41.0378,-76.6446C53.5023,-84.9175 72.415,-96.771 90,-105 94.4549,-107.0847 99.2047,-109.0637 103.976,-110.9018"/>
<polygon fill="#191970" stroke="#191970" points="103.1188,-114.315 113.7126,-114.4655 105.5249,-107.7415 103.1188,-114.315"/>
</g>
<!-- Node118 -->
<g id="node3" class="node">
<title>Node118</title>
<g id="a_node3"><a xlink:href="dhcpserver_8c.html#a5189bbf95d6eed2474f4dac72c68d7b3" target="_top" xlink:title="node_remove_from_list">
<polygon fill="#ffffff" stroke="#000000" points="97.5,-76.5 97.5,-95.5 192.5,-95.5 192.5,-76.5 97.5,-76.5"/>
<text text-anchor="middle" x="145" y="-83.5" font-family="Helvetica,sans-Serif" font-size="10.00" fill="#000000">node_remove_from_list</text>
</a>
</g>
</g>
<!-- Node116&#45;&gt;Node118 -->
<g id="edge2" class="edge">
<title>Node116&#45;&gt;Node118</title>
<path fill="none" stroke="#191970" d="M54.0716,-71.359C63.9654,-72.952 75.5733,-74.8211 87.1237,-76.6809"/>
<polygon fill="#191970" stroke="#191970" points="86.7856,-80.1715 97.2148,-78.3058 87.8984,-73.2605 86.7856,-80.1715"/>
</g>
<!-- Node119 -->
<g id="node4" class="node">
<title>Node119</title>
<g id="a_node4"><a xlink:href="dhcpserver_8c.html#a8407521ea77d5ecc99ecd189eff6d393" target="_top" xlink:title="parse_options">
<polygon fill="#ffffff" stroke="#000000" points="113,-38.5 113,-57.5 177,-57.5 177,-38.5 113,-38.5"/>
<text text-anchor="middle" x="145" y="-45.5" font-family="Helvetica,sans-Serif" font-size="10.00" fill="#000000">parse_options</text>
</a>
</g>
</g>
<!-- Node116&#45;&gt;Node119 -->
<g id="edge3" class="edge">
<title>Node116&#45;&gt;Node119</title>
<path fill="none" stroke="#191970" d="M54.0716,-62.641C68.3605,-60.3403 86.2247,-57.4638 102.3276,-54.871"/>
<polygon fill="#191970" stroke="#191970" points="103.2835,-58.2622 112.5999,-53.217 102.1706,-51.3512 103.2835,-58.2622"/>
</g>
<!-- Node120 -->
<g id="node5" class="node">
<title>Node120</title>
<g id="a_node5"><a xlink:href="user__interface_8h.html#a258edd68184bb78f062a3b375dca997c" target="_top" xlink:title="system_get_free_heap_size">
<polygon fill="#ffffff" stroke="#000000" points="90,-.5 90,-19.5 200,-19.5 200,-.5 90,-.5"/>
<text text-anchor="middle" x="145" y="-7.5" font-family="Helvetica,sans-Serif" font-size="10.00" fill="#000000">system_get_free_heap_size</text>
</a>
</g>
</g>
<!-- Node116&#45;&gt;Node120 -->
<g id="edge4" class="edge">
<title>Node116&#45;&gt;Node120</title>
<path fill="none" stroke="#191970" d="M41.0378,-57.3554C53.5023,-49.0825 72.415,-37.229 90,-29 94.4549,-26.9153 99.2047,-24.9363 103.976,-23.0982"/>
<polygon fill="#191970" stroke="#191970" points="105.5249,-26.2585 113.7126,-19.5345 103.1188,-19.685 105.5249,-26.2585"/>
</g>
</g>
</svg>
