<?xml version="1.0" encoding="UTF-8" standalone="no"?>
<!DOCTYPE svg PUBLIC "-//W3C//DTD SVG 1.1//EN"
 "http://www.w3.org/Graphics/SVG/1.1/DTD/svg11.dtd">
<!-- Generated by graphviz version 2.40.1 (20161225.0304)
 -->
<!-- Title: add_offer_options Pages: 1 -->
<svg width="359pt" height="66pt"
 viewBox="0.00 0.00 359.00 66.00" xmlns="http://www.w3.org/2000/svg" xmlns:xlink="http://www.w3.org/1999/xlink">
<g id="graph0" class="graph" transform="scale(1 1) rotate(0) translate(4 62)">
<title>add_offer_options</title>
<polygon fill="#ffffff" stroke="transparent" points="-4,4 -4,-62 355,-62 355,4 -4,4"/>
<!-- Node16 -->
<g id="node1" class="node">
<title>Node16</title>
<polygon fill="#bfbfbf" stroke="#000000" points="0,-19.5 0,-38.5 77,-38.5 77,-19.5 0,-19.5"/>
<text text-anchor="middle" x="38.5" y="-26.5" font-family="Helvetica,sans-Serif" font-size="10.00" fill="#000000">add_offer_options</text>
</g>
<!-- Node17 -->
<g id="node2" class="node">
<title>Node17</title>
<g id="a_node2"><a xlink:href="dhcpserver_8c.html#a024751b98d23fc209015b3ac5a76aae9" target="_top" xlink:title="send_ack">
<polygon fill="#ffffff" stroke="#000000" points="114.5,-38.5 114.5,-57.5 163.5,-57.5 163.5,-38.5 114.5,-38.5"/>
<text text-anchor="middle" x="139" y="-45.5" font-family="Helvetica,sans-Serif" font-size="10.00" fill="#000000">send_ack</text>
</a>
</g>
</g>
<!-- Node16&#45;&gt;Node17 -->
<g id="edge1" class="edge">
<title>Node16&#45;&gt;Node17</title>
<path fill="none" stroke="#191970" d="M87.1914,-38.2053C96.6044,-39.9849 106.0904,-41.7783 114.3265,-43.3354"/>
<polygon fill="#191970" stroke="#191970" points="87.5446,-34.7102 77.0685,-36.2916 86.2442,-41.5884 87.5446,-34.7102"/>
</g>
<!-- Node20 -->
<g id="node5" class="node">
<title>Node20</title>
<g id="a_node5"><a xlink:href="dhcpserver_8c.html#aa16cfa7bae7bd0fcb895a8b2513dd60f" target="_top" xlink:title="send_offer">
<polygon fill="#ffffff" stroke="#000000" points="113,-.5 113,-19.5 165,-19.5 165,-.5 113,-.5"/>
<text text-anchor="middle" x="139" y="-7.5" font-family="Helvetica,sans-Serif" font-size="10.00" fill="#000000">send_offer</text>
</a>
</g>
</g>
<!-- Node16&#45;&gt;Node20 -->
<g id="edge4" class="edge">
<title>Node16&#45;&gt;Node20</title>
<path fill="none" stroke="#191970" d="M87.0265,-19.8258C95.9265,-18.1433 104.8986,-16.447 112.8244,-14.9486"/>
<polygon fill="#191970" stroke="#191970" points="86.2442,-16.4116 77.0685,-21.7084 87.5446,-23.2898 86.2442,-16.4116"/>
</g>
<!-- Node18 -->
<g id="node3" class="node">
<title>Node18</title>
<g id="a_node3"><a xlink:href="dhcpserver_8c.html#a11489c1fab4206e65914c4c46850d183" target="_top" xlink:title="handle_dhcp">
<polygon fill="#ffffff" stroke="#000000" points="201,-19.5 201,-38.5 260,-38.5 260,-19.5 201,-19.5"/>
<text text-anchor="middle" x="230.5" y="-26.5" font-family="Helvetica,sans-Serif" font-size="10.00" fill="#000000">handle_dhcp</text>
</a>
</g>
</g>
<!-- Node17&#45;&gt;Node18 -->
<g id="edge2" class="edge">
<title>Node17&#45;&gt;Node18</title>
<path fill="none" stroke="#191970" d="M173.3291,-40.8716C182.3253,-39.0035 191.9509,-37.0047 200.6898,-35.1901"/>
<polygon fill="#191970" stroke="#191970" points="172.5998,-37.4482 163.5203,-42.9083 174.0231,-44.302 172.5998,-37.4482"/>
</g>
<!-- Node19 -->
<g id="node4" class="node">
<title>Node19</title>
<g id="a_node4"><a xlink:href="dhcpserver_8c.html#aa4cf55564a805b8654630547d365edcd" target="_top" xlink:title="dhcps_start">
<polygon fill="#ffffff" stroke="#000000" points="296,-19.5 296,-38.5 351,-38.5 351,-19.5 296,-19.5"/>
<text text-anchor="middle" x="323.5" y="-26.5" font-family="Helvetica,sans-Serif" font-size="10.00" fill="#000000">dhcps_start</text>
</a>
</g>
</g>
<!-- Node18&#45;&gt;Node19 -->
<g id="edge3" class="edge">
<title>Node18&#45;&gt;Node19</title>
<path fill="none" stroke="#191970" d="M270.4535,-29C279.0659,-29 287.984,-29 295.994,-29"/>
<polygon fill="#191970" stroke="#191970" points="270.1815,-25.5001 260.1815,-29 270.1814,-32.5001 270.1815,-25.5001"/>
</g>
<!-- Node20&#45;&gt;Node18 -->
<g id="edge5" class="edge">
<title>Node20&#45;&gt;Node18</title>
<path fill="none" stroke="#191970" d="M175.459,-17.5707C183.8978,-19.323 192.7769,-21.1668 200.8814,-22.8497"/>
<polygon fill="#191970" stroke="#191970" points="175.9684,-14.1019 165.4656,-15.4956 174.5451,-20.9557 175.9684,-14.1019"/>
</g>
</g>
</svg>
