<?xml version="1.0" encoding="UTF-8" standalone="no"?>
<!DOCTYPE svg PUBLIC "-//W3C//DTD SVG 1.1//EN"
 "http://www.w3.org/Graphics/SVG/1.1/DTD/svg11.dtd">
<!-- Generated by graphviz version 2.40.1 (20161225.0304)
 -->
<!-- Title: parse_options Pages: 1 -->
<svg width="348pt" height="28pt"
 viewBox="0.00 0.00 348.00 28.00" xmlns="http://www.w3.org/2000/svg" xmlns:xlink="http://www.w3.org/1999/xlink">
<g id="graph0" class="graph" transform="scale(1 1) rotate(0) translate(4 24)">
<title>parse_options</title>
<polygon fill="#ffffff" stroke="transparent" points="-4,4 -4,-24 344,-24 344,4 -4,4"/>
<!-- Node125 -->
<g id="node1" class="node">
<title>Node125</title>
<polygon fill="#bfbfbf" stroke="#000000" points="0,-.5 0,-19.5 64,-19.5 64,-.5 0,-.5"/>
<text text-anchor="middle" x="32" y="-7.5" font-family="Helvetica,sans-Serif" font-size="10.00" fill="#000000">parse_options</text>
</g>
<!-- Node126 -->
<g id="node2" class="node">
<title>Node126</title>
<g id="a_node2"><a xlink:href="dhcpserver_8c.html#a72c6ecdbccb7cf567c40b857523706bd" target="_top" xlink:title="parse_msg">
<polygon fill="#ffffff" stroke="#000000" points="100,-.5 100,-19.5 154,-19.5 154,-.5 100,-.5"/>
<text text-anchor="middle" x="127" y="-7.5" font-family="Helvetica,sans-Serif" font-size="10.00" fill="#000000">parse_msg</text>
</a>
</g>
</g>
<!-- Node125&#45;&gt;Node126 -->
<g id="edge1" class="edge">
<title>Node125&#45;&gt;Node126</title>
<path fill="none" stroke="#191970" d="M74.227,-10C82.9557,-10 91.9248,-10 99.9357,-10"/>
<polygon fill="#191970" stroke="#191970" points="74.1627,-6.5001 64.1627,-10 74.1626,-13.5001 74.1627,-6.5001"/>
</g>
<!-- Node127 -->
<g id="node3" class="node">
<title>Node127</title>
<g id="a_node3"><a xlink:href="dhcpserver_8c.html#a11489c1fab4206e65914c4c46850d183" target="_top" xlink:title="handle_dhcp">
<polygon fill="#ffffff" stroke="#000000" points="190,-.5 190,-19.5 249,-19.5 249,-.5 190,-.5"/>
<text text-anchor="middle" x="219.5" y="-7.5" font-family="Helvetica,sans-Serif" font-size="10.00" fill="#000000">handle_dhcp</text>
</a>
</g>
</g>
<!-- Node126&#45;&gt;Node127 -->
<g id="edge2" class="edge">
<title>Node126&#45;&gt;Node127</title>
<path fill="none" stroke="#191970" d="M164.3268,-10C172.8219,-10 181.7345,-10 189.8587,-10"/>
<polygon fill="#191970" stroke="#191970" points="164.2528,-6.5001 154.2528,-10 164.2527,-13.5001 164.2528,-6.5001"/>
</g>
<!-- Node128 -->
<g id="node4" class="node">
<title>Node128</title>
<g id="a_node4"><a xlink:href="dhcpserver_8c.html#aa4cf55564a805b8654630547d365edcd" target="_top" xlink:title="dhcps_start">
<polygon fill="#ffffff" stroke="#000000" points="285,-.5 285,-19.5 340,-19.5 340,-.5 285,-.5"/>
<text text-anchor="middle" x="312.5" y="-7.5" font-family="Helvetica,sans-Serif" font-size="10.00" fill="#000000">dhcps_start</text>
</a>
</g>
</g>
<!-- Node127&#45;&gt;Node128 -->
<g id="edge3" class="edge">
<title>Node127&#45;&gt;Node128</title>
<path fill="none" stroke="#191970" d="M259.4535,-10C268.0659,-10 276.984,-10 284.994,-10"/>
<polygon fill="#191970" stroke="#191970" points="259.1815,-6.5001 249.1815,-10 259.1814,-13.5001 259.1815,-6.5001"/>
</g>
</g>
</svg>
