<?xml version="1.0" encoding="UTF-8" standalone="no"?>
<!DOCTYPE svg PUBLIC "-//W3C//DTD SVG 1.1//EN"
 "http://www.w3.org/Graphics/SVG/1.1/DTD/svg11.dtd">
<!-- Generated by graphviz version 2.40.1 (20161225.0304)
 -->
<!-- Title: parse_mc66cde_inst_values_frame Pages: 1 -->
<svg width="641pt" height="294pt"
 viewBox="0.00 0.00 641.00 294.00" xmlns="http://www.w3.org/2000/svg" xmlns:xlink="http://www.w3.org/1999/xlink">
<g id="graph0" class="graph" transform="scale(1 1) rotate(0) translate(4 290)">
<title>parse_mc66cde_inst_values_frame</title>
<polygon fill="#ffffff" stroke="transparent" points="-4,4 -4,-290 637,-290 637,4 -4,4"/>
<!-- Node57 -->
<g id="node1" class="node">
<title>Node57</title>
<polygon fill="#bfbfbf" stroke="#000000" points="0,-109 0,-139 86,-139 86,-109 0,-109"/>
<text text-anchor="start" x="8" y="-127" font-family="Helvetica,sans-Serif" font-size="10.00" fill="#000000">parse_mc66cde_inst</text>
<text text-anchor="middle" x="43" y="-116" font-family="Helvetica,sans-Serif" font-size="10.00" fill="#000000">_values_frame</text>
</g>
<!-- Node58 -->
<g id="node2" class="node">
<title>Node58</title>
<g id="a_node2"><a xlink:href="utils_8c.html#ae7c507f8b417b23e187f267fd8a2adf2" target="_top" xlink:title="divide_str_by_100">
<polygon fill="#ffffff" stroke="#000000" points="122,-133.5 122,-152.5 199,-152.5 199,-133.5 122,-133.5"/>
<text text-anchor="middle" x="160.5" y="-140.5" font-family="Helvetica,sans-Serif" font-size="10.00" fill="#000000">divide_str_by_100</text>
</a>
</g>
</g>
<!-- Node57&#45;&gt;Node58 -->
<g id="edge1" class="edge">
<title>Node57&#45;&gt;Node58</title>
<path fill="none" stroke="#191970" d="M86.0855,-130.967C94.3739,-132.3073 103.1111,-133.7201 111.5688,-135.0877"/>
<polygon fill="#191970" stroke="#191970" points="111.2674,-138.5844 121.6979,-136.7256 112.3849,-131.6741 111.2674,-138.5844"/>
</g>
<!-- Node59 -->
<g id="node3" class="node">
<title>Node59</title>
<g id="a_node3"><a xlink:href="tinyprintf_8c.html#a9738cbc6c538d210941db282e240c7d6" target="_top" xlink:title="tfp_snprintf">
<polygon fill="#ffffff" stroke="#000000" points="235,-114.5 235,-133.5 289,-133.5 289,-114.5 235,-114.5"/>
<text text-anchor="middle" x="262" y="-121.5" font-family="Helvetica,sans-Serif" font-size="10.00" fill="#000000">tfp_snprintf</text>
</a>
</g>
</g>
<!-- Node57&#45;&gt;Node59 -->
<g id="edge18" class="edge">
<title>Node57&#45;&gt;Node59</title>
<path fill="none" stroke="#191970" d="M86.0061,-124C126.4273,-124 186.304,-124 224.7395,-124"/>
<polygon fill="#191970" stroke="#191970" points="224.9778,-127.5001 234.9778,-124 224.9777,-120.5001 224.9778,-127.5001"/>
</g>
<!-- Node58&#45;&gt;Node59 -->
<g id="edge2" class="edge">
<title>Node58&#45;&gt;Node59</title>
<path fill="none" stroke="#191970" d="M199.1623,-135.7627C207.6061,-134.1821 216.5238,-132.5128 224.9048,-130.9439"/>
<polygon fill="#191970" stroke="#191970" points="225.6084,-134.3731 234.7936,-129.0928 224.3203,-127.4926 225.6084,-134.3731"/>
</g>
<!-- Node60 -->
<g id="node4" class="node">
<title>Node60</title>
<g id="a_node4"><a xlink:href="tinyprintf_8c.html#ac8c8a66133cf0d7009c0d73b55311a44" target="_top" xlink:title="tfp_vsnprintf">
<polygon fill="#ffffff" stroke="#000000" points="325,-114.5 325,-133.5 382,-133.5 382,-114.5 325,-114.5"/>
<text text-anchor="middle" x="353.5" y="-121.5" font-family="Helvetica,sans-Serif" font-size="10.00" fill="#000000">tfp_vsnprintf</text>
</a>
</g>
</g>
<!-- Node59&#45;&gt;Node60 -->
<g id="edge3" class="edge">
<title>Node59&#45;&gt;Node60</title>
<path fill="none" stroke="#191970" d="M289.453,-124C297.3869,-124 306.1998,-124 314.6866,-124"/>
<polygon fill="#191970" stroke="#191970" points="314.796,-127.5001 324.796,-124 314.7959,-120.5001 314.796,-127.5001"/>
</g>
<!-- Node61 -->
<g id="node5" class="node">
<title>Node61</title>
<g id="a_node5"><a xlink:href="tinyprintf_8c.html#a5877e42444463efc71a91b5fe76a6145" target="_top" xlink:title="tfp_format">
<polygon fill="#ffffff" stroke="#000000" points="427.5,-133.5 427.5,-152.5 477.5,-152.5 477.5,-133.5 427.5,-133.5"/>
<text text-anchor="middle" x="452.5" y="-140.5" font-family="Helvetica,sans-Serif" font-size="10.00" fill="#000000">tfp_format</text>
</a>
</g>
</g>
<!-- Node60&#45;&gt;Node61 -->
<g id="edge4" class="edge">
<title>Node60&#45;&gt;Node61</title>
<path fill="none" stroke="#191970" d="M382.1349,-129.4956C393.0654,-131.5934 405.6574,-134.01 417.141,-136.2139"/>
<polygon fill="#191970" stroke="#191970" points="416.8156,-139.7153 427.296,-138.1629 418.135,-132.8407 416.8156,-139.7153"/>
</g>
<!-- Node71 -->
<g id="node15" class="node">
<title>Node71</title>
<g id="a_node15"><a xlink:href="tinyprintf_8c.html#a919051024b2d729e34a54648b3f2462d" target="_top" xlink:title="_vsnprintf_putcf">
<polygon fill="#ffffff" stroke="#000000" points="418,-95.5 418,-114.5 487,-114.5 487,-95.5 418,-95.5"/>
<text text-anchor="middle" x="452.5" y="-102.5" font-family="Helvetica,sans-Serif" font-size="10.00" fill="#000000">_vsnprintf_putcf</text>
</a>
</g>
</g>
<!-- Node60&#45;&gt;Node71 -->
<g id="edge17" class="edge">
<title>Node60&#45;&gt;Node71</title>
<path fill="none" stroke="#191970" d="M382.1349,-118.5044C390.1798,-116.9604 399.1246,-115.2438 407.8652,-113.5663"/>
<polygon fill="#191970" stroke="#191970" points="408.8048,-116.9499 417.9658,-111.6278 407.4853,-110.0754 408.8048,-116.9499"/>
</g>
<!-- Node62 -->
<g id="node6" class="node">
<title>Node62</title>
<g id="a_node6"><a xlink:href="tinyprintf_8c.html#aa97593a5e53af85b608ad0910db92d77" target="_top" xlink:title="a2u">
<polygon fill="#ffffff" stroke="#000000" points="528.5,-266.5 528.5,-285.5 557.5,-285.5 557.5,-266.5 528.5,-266.5"/>
<text text-anchor="middle" x="543" y="-273.5" font-family="Helvetica,sans-Serif" font-size="10.00" fill="#000000">a2u</text>
</a>
</g>
</g>
<!-- Node61&#45;&gt;Node62 -->
<g id="edge5" class="edge">
<title>Node61&#45;&gt;Node62</title>
<path fill="none" stroke="#191970" d="M458.1641,-152.588C469.6813,-171.8884 496.952,-216.6047 523,-252 524.5752,-254.1405 526.2802,-256.3409 528.0075,-258.4998"/>
<polygon fill="#191970" stroke="#191970" points="525.4795,-260.9348 534.5525,-266.4059 530.8716,-256.4709 525.4795,-260.9348"/>
</g>
<!-- Node64 -->
<g id="node8" class="node">
<title>Node64</title>
<g id="a_node8"><a xlink:href="tinyprintf_8c.html#abcf035dd576671b0cc897de9dd8c75b0" target="_top" xlink:title="ulli2a">
<polygon fill="#ffffff" stroke="#000000" points="599,-209.5 599,-228.5 633,-228.5 633,-209.5 599,-209.5"/>
<text text-anchor="middle" x="616" y="-216.5" font-family="Helvetica,sans-Serif" font-size="10.00" fill="#000000">ulli2a</text>
</a>
</g>
</g>
<!-- Node61&#45;&gt;Node64 -->
<g id="edge7" class="edge">
<title>Node61&#45;&gt;Node64</title>
<path fill="none" stroke="#191970" d="M457.7337,-152.5518C467.7568,-169.7127 491.4943,-205.2518 523,-219 543.7268,-228.0446 569.6121,-227.1922 588.8069,-224.5651"/>
<polygon fill="#191970" stroke="#191970" points="589.3889,-228.0166 598.7072,-222.9747 588.2786,-221.1052 589.3889,-228.0166"/>
</g>
<!-- Node65 -->
<g id="node9" class="node">
<title>Node65</title>
<g id="a_node9"><a xlink:href="tinyprintf_8c.html#a1d61347854a8c290d59b4a21efcefd75" target="_top" xlink:title="uli2a">
<polygon fill="#ffffff" stroke="#000000" points="600,-114.5 600,-133.5 632,-133.5 632,-114.5 600,-114.5"/>
<text text-anchor="middle" x="616" y="-121.5" font-family="Helvetica,sans-Serif" font-size="10.00" fill="#000000">uli2a</text>
</a>
</g>
</g>
<!-- Node61&#45;&gt;Node65 -->
<g id="edge8" class="edge">
<title>Node61&#45;&gt;Node65</title>
<path fill="none" stroke="#191970" d="M470.179,-133.3343C490.5873,-122.1964 521.5591,-105.3636 523,-105 545.6189,-99.2923 571.6594,-105.7065 590.4213,-112.5819"/>
<polygon fill="#191970" stroke="#191970" points="589.1829,-115.8558 599.7698,-116.2659 591.7494,-109.3432 589.1829,-115.8558"/>
</g>
<!-- Node66 -->
<g id="node10" class="node">
<title>Node66</title>
<g id="a_node10"><a xlink:href="tinyprintf_8c.html#ac87ff66a592723f55692eaf8e3f19df8" target="_top" xlink:title="ui2a">
<polygon fill="#ffffff" stroke="#000000" points="600.5,-19.5 600.5,-38.5 631.5,-38.5 631.5,-19.5 600.5,-19.5"/>
<text text-anchor="middle" x="616" y="-26.5" font-family="Helvetica,sans-Serif" font-size="10.00" fill="#000000">ui2a</text>
</a>
</g>
</g>
<!-- Node61&#45;&gt;Node66 -->
<g id="edge9" class="edge">
<title>Node61&#45;&gt;Node66</title>
<path fill="none" stroke="#191970" d="M471.0237,-133.3811C476.2703,-130.5009 481.9311,-127.2425 487,-124 508.2184,-110.4272 563.9851,-68.5066 594.7929,-45.1446"/>
<polygon fill="#191970" stroke="#191970" points="597.2821,-47.6491 603.1293,-38.8139 593.0486,-42.0744 597.2821,-47.6491"/>
</g>
<!-- Node67 -->
<g id="node11" class="node">
<title>Node67</title>
<g id="a_node11"><a xlink:href="tinyprintf_8c.html#a6252dbfebb2c8783c4e3107d551082dd" target="_top" xlink:title="putchw">
<polygon fill="#ffffff" stroke="#000000" points="523,-114.5 523,-133.5 563,-133.5 563,-114.5 523,-114.5"/>
<text text-anchor="middle" x="543" y="-121.5" font-family="Helvetica,sans-Serif" font-size="10.00" fill="#000000">putchw</text>
</a>
</g>
</g>
<!-- Node61&#45;&gt;Node67 -->
<g id="edge10" class="edge">
<title>Node61&#45;&gt;Node67</title>
<path fill="none" stroke="#191970" d="M477.7093,-137.7074C488.601,-135.4208 501.434,-132.7266 512.8272,-130.3346"/>
<polygon fill="#191970" stroke="#191970" points="513.7211,-133.7233 522.7886,-128.2433 512.2828,-126.8727 513.7211,-133.7233"/>
</g>
<!-- Node68 -->
<g id="node12" class="node">
<title>Node68</title>
<g id="a_node12"><a xlink:href="tinyprintf_8c.html#a49c6d2b3d4088012f2c1fe344eef69f3" target="_top" xlink:title="lli2a">
<polygon fill="#ffffff" stroke="#000000" points="528,-190.5 528,-209.5 558,-209.5 558,-190.5 528,-190.5"/>
<text text-anchor="middle" x="543" y="-197.5" font-family="Helvetica,sans-Serif" font-size="10.00" fill="#000000">lli2a</text>
</a>
</g>
</g>
<!-- Node61&#45;&gt;Node68 -->
<g id="edge11" class="edge">
<title>Node61&#45;&gt;Node68</title>
<path fill="none" stroke="#191970" d="M467.8521,-152.6693C481.8479,-161.4843 502.7509,-174.6497 518.9606,-184.8592"/>
<polygon fill="#191970" stroke="#191970" points="517.5478,-188.1057 527.8746,-190.4735 521.2784,-182.1826 517.5478,-188.1057"/>
</g>
<!-- Node69 -->
<g id="node13" class="node">
<title>Node69</title>
<g id="a_node13"><a xlink:href="tinyprintf_8c.html#afebb7696337c3f599b5e8db35c560684" target="_top" xlink:title="li2a">
<polygon fill="#ffffff" stroke="#000000" points="528.5,-152.5 528.5,-171.5 557.5,-171.5 557.5,-152.5 528.5,-152.5"/>
<text text-anchor="middle" x="543" y="-159.5" font-family="Helvetica,sans-Serif" font-size="10.00" fill="#000000">li2a</text>
</a>
</g>
</g>
<!-- Node61&#45;&gt;Node69 -->
<g id="edge13" class="edge">
<title>Node61&#45;&gt;Node69</title>
<path fill="none" stroke="#191970" d="M477.7093,-148.2926C490.4577,-150.969 505.8657,-154.2038 518.5115,-156.8588"/>
<polygon fill="#191970" stroke="#191970" points="517.8595,-160.2981 528.3653,-158.9275 519.2978,-153.4475 517.8595,-160.2981"/>
</g>
<!-- Node70 -->
<g id="node14" class="node">
<title>Node70</title>
<g id="a_node14"><a xlink:href="tinyprintf_8c.html#a90f9fd8f2133cda7f50be8d67823405c" target="_top" xlink:title="i2a">
<polygon fill="#ffffff" stroke="#000000" points="528.5,-.5 528.5,-19.5 557.5,-19.5 557.5,-.5 528.5,-.5"/>
<text text-anchor="middle" x="543" y="-7.5" font-family="Helvetica,sans-Serif" font-size="10.00" fill="#000000">i2a</text>
</a>
</g>
</g>
<!-- Node61&#45;&gt;Node70 -->
<g id="edge15" class="edge">
<title>Node61&#45;&gt;Node70</title>
<path fill="none" stroke="#191970" d="M475.2943,-133.3798C479.5834,-130.8051 483.7391,-127.6885 487,-124 515.5349,-91.7237 500.9383,-71.0038 523,-34 524.2186,-31.956 525.607,-29.9077 527.0712,-27.9166"/>
<polygon fill="#191970" stroke="#191970" points="530.1139,-29.7203 533.6831,-19.7448 524.6721,-25.3173 530.1139,-29.7203"/>
</g>
<!-- Node63 -->
<g id="node7" class="node">
<title>Node63</title>
<g id="a_node7"><a xlink:href="tinyprintf_8c.html#aa853a0c5ba64fa2546d488b86192e7e3" target="_top" xlink:title="a2d">
<polygon fill="#ffffff" stroke="#000000" points="601.5,-266.5 601.5,-285.5 630.5,-285.5 630.5,-266.5 601.5,-266.5"/>
<text text-anchor="middle" x="616" y="-273.5" font-family="Helvetica,sans-Serif" font-size="10.00" fill="#000000">a2d</text>
</a>
</g>
</g>
<!-- Node62&#45;&gt;Node63 -->
<g id="edge6" class="edge">
<title>Node62&#45;&gt;Node63</title>
<path fill="none" stroke="#191970" d="M557.7726,-276C567.3705,-276 580.1197,-276 591.2412,-276"/>
<polygon fill="#191970" stroke="#191970" points="591.2494,-279.5001 601.2493,-276 591.2493,-272.5001 591.2494,-279.5001"/>
</g>
<!-- Node68&#45;&gt;Node64 -->
<g id="edge12" class="edge">
<title>Node68&#45;&gt;Node64</title>
<path fill="none" stroke="#191970" d="M558.1256,-203.9368C567.021,-206.252 578.5313,-209.2479 588.9415,-211.9574"/>
<polygon fill="#191970" stroke="#191970" points="588.2881,-215.4038 598.8473,-214.5356 590.0513,-208.6295 588.2881,-215.4038"/>
</g>
<!-- Node69&#45;&gt;Node65 -->
<g id="edge14" class="edge">
<title>Node69&#45;&gt;Node65</title>
<path fill="none" stroke="#191970" d="M557.7726,-154.3101C567.2461,-149.3787 579.7899,-142.8491 590.8081,-137.1136"/>
<polygon fill="#191970" stroke="#191970" points="592.7286,-140.0598 599.9827,-132.3378 589.4964,-133.8506 592.7286,-140.0598"/>
</g>
<!-- Node70&#45;&gt;Node66 -->
<g id="edge16" class="edge">
<title>Node70&#45;&gt;Node66</title>
<path fill="none" stroke="#191970" d="M557.7726,-13.8449C567.181,-16.2937 579.6176,-19.5306 590.5808,-22.384"/>
<polygon fill="#191970" stroke="#191970" points="589.9343,-25.8323 600.4935,-24.9641 591.6975,-19.058 589.9343,-25.8323"/>
</g>
</g>
</svg>
