<?xml version="1.0" encoding="UTF-8" standalone="no"?>
<!DOCTYPE svg PUBLIC "-//W3C//DTD SVG 1.1//EN"
 "http://www.w3.org/Graphics/SVG/1.1/DTD/svg11.dtd">
<!-- Generated by graphviz version 2.40.1 (20161225.0304)
 -->
<!-- Title: en61107_uart_send_inst_values Pages: 1 -->
<svg width="662pt" height="288pt"
 viewBox="0.00 0.00 662.00 288.21" xmlns="http://www.w3.org/2000/svg" xmlns:xlink="http://www.w3.org/1999/xlink">
<g id="graph0" class="graph" transform="scale(1 1) rotate(0) translate(4 284.2073)">
<title>en61107_uart_send_inst_values</title>
<polygon fill="#ffffff" stroke="transparent" points="-4,4 -4,-284.2073 658,-284.2073 658,4 -4,4"/>
<!-- Node402 -->
<g id="node1" class="node">
<title>Node402</title>
<polygon fill="#bfbfbf" stroke="#000000" points="0,-52.7073 0,-82.7073 99,-82.7073 99,-52.7073 0,-52.7073"/>
<text text-anchor="start" x="8" y="-70.7073" font-family="Helvetica,sans-Serif" font-size="10.00" fill="#000000">en61107_uart_send_inst</text>
<text text-anchor="middle" x="49.5" y="-59.7073" font-family="Helvetica,sans-Serif" font-size="10.00" fill="#000000">_values</text>
</g>
<!-- Node403 -->
<g id="node2" class="node">
<title>Node403</title>
<g id="a_node2"><a xlink:href="en61107__request_8h.html#a22f1fee248eec0eeacf220c69b878a28" target="_top" xlink:title="en61107_receive_timeout\l_timer_func">
<polygon fill="#ffffff" stroke="#000000" points="135,-123.7073 135,-153.7073 238,-153.7073 238,-123.7073 135,-123.7073"/>
<text text-anchor="start" x="143" y="-141.7073" font-family="Helvetica,sans-Serif" font-size="10.00" fill="#000000">en61107_receive_timeout</text>
<text text-anchor="middle" x="186.5" y="-130.7073" font-family="Helvetica,sans-Serif" font-size="10.00" fill="#000000">_timer_func</text>
</a>
</g>
</g>
<!-- Node402&#45;&gt;Node403 -->
<g id="edge1" class="edge">
<title>Node402&#45;&gt;Node403</title>
<path fill="none" stroke="#191970" d="M87.6678,-87.4877C109.7711,-98.9427 137.1542,-113.1339 157.4877,-123.6717"/>
<polygon fill="#191970" stroke="#191970" points="89.0432,-84.2584 78.5542,-82.7646 85.8222,-90.4734 89.0432,-84.2584"/>
</g>
<!-- Node408 -->
<g id="node7" class="node">
<title>Node408</title>
<g id="a_node7"><a xlink:href="en61107__request_8c.html#aa3b162cf5364986ea19e831ac2b18f76" target="_top" xlink:title="en61107_received_task">
<polygon fill="#ffffff" stroke="#000000" points="427,-80.2073 427,-99.2073 523,-99.2073 523,-80.2073 427,-80.2073"/>
<text text-anchor="middle" x="475" y="-87.2073" font-family="Helvetica,sans-Serif" font-size="10.00" fill="#000000">en61107_received_task</text>
</a>
</g>
</g>
<!-- Node402&#45;&gt;Node408 -->
<g id="edge19" class="edge">
<title>Node402&#45;&gt;Node408</title>
<path fill="none" stroke="#191970" d="M90.7919,-48.4531C156.439,-20.6658 287.7395,23.2895 391,-15.7073 425.5454,-28.7535 455.0832,-63.1966 468.0175,-80.0891"/>
<polygon fill="#191970" stroke="#191970" points="89.0055,-45.4122 81.2137,-52.5912 91.7818,-51.8381 89.0055,-45.4122"/>
</g>
<!-- Node404 -->
<g id="node3" class="node">
<title>Node404</title>
<g id="a_node3"><a xlink:href="en61107__request_8h.html#a353102f2f89ad4ed996501752c0ac59c" target="_top" xlink:title="en61107_uart_send_en61107\l_ident">
<polygon fill="#ffffff" stroke="#000000" points="274,-249.7073 274,-279.7073 391,-279.7073 391,-249.7073 274,-249.7073"/>
<text text-anchor="start" x="282" y="-267.7073" font-family="Helvetica,sans-Serif" font-size="10.00" fill="#000000">en61107_uart_send_en61107</text>
<text text-anchor="middle" x="332.5" y="-256.7073" font-family="Helvetica,sans-Serif" font-size="10.00" fill="#000000">_ident</text>
</a>
</g>
</g>
<!-- Node403&#45;&gt;Node404 -->
<g id="edge2" class="edge">
<title>Node403&#45;&gt;Node404</title>
<path fill="none" stroke="#191970" d="M209.2868,-161.3527C225.6977,-180.2897 249.2331,-206.771 274,-225.7073 286.3314,-235.1357 302.071,-243.0132 314.1172,-249.6761"/>
<polygon fill="#191970" stroke="#191970" points="211.895,-159.0181 202.7069,-153.7428 206.5999,-163.5965 211.895,-159.0181"/>
</g>
<!-- Node407 -->
<g id="node6" class="node">
<title>Node407</title>
<g id="a_node6"><a xlink:href="en61107__request_8h.html#a8b6b61143d95d3af3813f8be1aaf3447" target="_top" xlink:title="en61107_uart_send_en61107">
<polygon fill="#ffffff" stroke="#000000" points="274,-173.2073 274,-192.2073 391,-192.2073 391,-173.2073 274,-173.2073"/>
<text text-anchor="middle" x="332.5" y="-180.2073" font-family="Helvetica,sans-Serif" font-size="10.00" fill="#000000">en61107_uart_send_en61107</text>
</a>
</g>
</g>
<!-- Node403&#45;&gt;Node407 -->
<g id="edge7" class="edge">
<title>Node403&#45;&gt;Node407</title>
<path fill="none" stroke="#191970" d="M245.9943,-156.6371C264.7292,-162.2832 284.6939,-168.3 300.7175,-173.129"/>
<polygon fill="#191970" stroke="#191970" points="246.9212,-153.261 236.3366,-153.7265 244.9013,-159.9632 246.9212,-153.261"/>
</g>
<!-- Node410 -->
<g id="node9" class="node">
<title>Node410</title>
<g id="a_node9"><a xlink:href="en61107__request_8h.html#afdb1795bdd4212fc7e028a9e5668fab4" target="_top" xlink:title="en61107_uart_send_standard\l_data_1">
<polygon fill="#ffffff" stroke="#000000" points="274,-123.7073 274,-153.7073 391,-153.7073 391,-123.7073 274,-123.7073"/>
<text text-anchor="start" x="282" y="-141.7073" font-family="Helvetica,sans-Serif" font-size="10.00" fill="#000000">en61107_uart_send_standard</text>
<text text-anchor="middle" x="332.5" y="-130.7073" font-family="Helvetica,sans-Serif" font-size="10.00" fill="#000000">_data_1</text>
</a>
</g>
</g>
<!-- Node403&#45;&gt;Node410 -->
<g id="edge10" class="edge">
<title>Node403&#45;&gt;Node410</title>
<path fill="none" stroke="#191970" d="M248.4961,-132.0259C256.8912,-131.9205 265.485,-131.9365 273.8196,-132.0741"/>
<polygon fill="#191970" stroke="#191970" points="248.3181,-128.5285 238.3852,-132.2148 248.4489,-135.5273 248.3181,-128.5285"/>
</g>
<!-- Node411 -->
<g id="node10" class="node">
<title>Node411</title>
<g id="a_node10"><a xlink:href="en61107__request_8h.html#a10b80328698f459ae2251fe146cdc375" target="_top" xlink:title="en61107_uart_send_standard\l_data_2">
<polygon fill="#ffffff" stroke="#000000" points="274,-74.7073 274,-104.7073 391,-104.7073 391,-74.7073 274,-74.7073"/>
<text text-anchor="start" x="282" y="-92.7073" font-family="Helvetica,sans-Serif" font-size="10.00" fill="#000000">en61107_uart_send_standard</text>
<text text-anchor="middle" x="332.5" y="-81.7073" font-family="Helvetica,sans-Serif" font-size="10.00" fill="#000000">_data_2</text>
</a>
</g>
</g>
<!-- Node403&#45;&gt;Node411 -->
<g id="edge13" class="edge">
<title>Node403&#45;&gt;Node411</title>
<path fill="none" stroke="#191970" d="M224.4853,-119.9526C239.5539,-114.2023 257.2308,-108.0609 273.8705,-102.7519"/>
<polygon fill="#191970" stroke="#191970" points="223.0359,-116.7612 214.9969,-123.6623 225.5848,-123.2807 223.0359,-116.7612"/>
</g>
<!-- Node412 -->
<g id="node11" class="node">
<title>Node412</title>
<g id="a_node11"><a xlink:href="en61107__request_8h.html#a74c2d949e6bb3b65cdf794a0643dd67d" target="_top" xlink:title="en61107_uart_send_inst\l_values">
<polygon fill="#ffffff" stroke="#000000" points="283,-25.7073 283,-55.7073 382,-55.7073 382,-25.7073 283,-25.7073"/>
<text text-anchor="start" x="291" y="-43.7073" font-family="Helvetica,sans-Serif" font-size="10.00" fill="#000000">en61107_uart_send_inst</text>
<text text-anchor="middle" x="332.5" y="-32.7073" font-family="Helvetica,sans-Serif" font-size="10.00" fill="#000000">_values</text>
</a>
</g>
</g>
<!-- Node403&#45;&gt;Node412 -->
<g id="edge16" class="edge">
<title>Node403&#45;&gt;Node412</title>
<path fill="none" stroke="#191970" d="M202.3471,-115.8578C219.0187,-97.3611 246.5943,-72.3466 274,-55.7073 276.8151,-53.9981 279.7738,-52.3599 282.8037,-50.8141"/>
<polygon fill="#191970" stroke="#191970" points="199.5626,-113.7279 195.6981,-123.5929 204.871,-118.291 199.5626,-113.7279"/>
</g>
<!-- Node404&#45;&gt;Node403 -->
<g id="edge3" class="edge">
<title>Node404&#45;&gt;Node403</title>
<path fill="none" stroke="#191970" d="M274.2555,-243.902C274.1702,-243.8372 274.085,-243.7723 274,-243.7073 239.6041,-217.4087 207.5833,-176.558 193.7226,-153.9794"/>
<polygon fill="#191970" stroke="#191970" points="272.3741,-246.8568 282.5818,-249.6949 276.3719,-241.1107 272.3741,-246.8568"/>
</g>
<!-- Node405 -->
<g id="node4" class="node">
<title>Node405</title>
<g id="a_node4"><a xlink:href="en61107__request_8h.html#a2fa4e9967afddae0c1dedbc914dcee36" target="_top" xlink:title="en61107_meter_wake\l_up_timer_func">
<polygon fill="#ffffff" stroke="#000000" points="429.5,-227.7073 429.5,-257.7073 520.5,-257.7073 520.5,-227.7073 429.5,-227.7073"/>
<text text-anchor="start" x="437.5" y="-245.7073" font-family="Helvetica,sans-Serif" font-size="10.00" fill="#000000">en61107_meter_wake</text>
<text text-anchor="middle" x="475" y="-234.7073" font-family="Helvetica,sans-Serif" font-size="10.00" fill="#000000">_up_timer_func</text>
</a>
</g>
</g>
<!-- Node404&#45;&gt;Node405 -->
<g id="edge4" class="edge">
<title>Node404&#45;&gt;Node405</title>
<path fill="none" stroke="#191970" d="M401.2064,-254.1C410.778,-252.6223 420.411,-251.1351 429.413,-249.7453"/>
<polygon fill="#191970" stroke="#191970" points="400.6318,-250.6471 391.2829,-255.632 401.6999,-257.5652 400.6318,-250.6471"/>
</g>
<!-- Node405&#45;&gt;Node403 -->
<g id="edge5" class="edge">
<title>Node405&#45;&gt;Node403</title>
<path fill="none" stroke="#191970" d="M419.2603,-237.72C377.8169,-232.5141 320.6186,-222.1146 274,-201.7073 246.735,-189.772 219.5845,-168.3598 202.9239,-153.847"/>
<polygon fill="#191970" stroke="#191970" points="419.0971,-241.2252 429.4413,-238.9345 419.9263,-234.2745 419.0971,-241.2252"/>
</g>
<!-- Node406 -->
<g id="node5" class="node">
<title>Node406</title>
<g id="a_node5"><a xlink:href="en61107__request_8h.html#a7384d014eb9e833f64ecf4a9f86f87be" target="_top" xlink:title="en61107_request_send">
<polygon fill="#ffffff" stroke="#000000" points="559,-233.2073 559,-252.2073 654,-252.2073 654,-233.2073 559,-233.2073"/>
<text text-anchor="middle" x="606.5" y="-240.2073" font-family="Helvetica,sans-Serif" font-size="10.00" fill="#000000">en61107_request_send</text>
</a>
</g>
</g>
<!-- Node405&#45;&gt;Node406 -->
<g id="edge6" class="edge">
<title>Node405&#45;&gt;Node406</title>
<path fill="none" stroke="#191970" d="M530.9181,-242.7073C540.172,-242.7073 549.6919,-242.7073 558.7218,-242.7073"/>
<polygon fill="#191970" stroke="#191970" points="530.6233,-239.2074 520.6233,-242.7073 530.6232,-246.2074 530.6233,-239.2074"/>
</g>
<!-- Node407&#45;&gt;Node408 -->
<g id="edge8" class="edge">
<title>Node407&#45;&gt;Node408</title>
<path fill="none" stroke="#191970" d="M379.2554,-169.4637C383.3222,-167.7349 387.295,-165.8194 391,-163.7073 422.4049,-145.8045 452.5176,-114.8526 466.6374,-99.2644"/>
<polygon fill="#191970" stroke="#191970" points="377.7443,-166.2953 369.6773,-173.1637 380.2667,-172.8251 377.7443,-166.2953"/>
</g>
<!-- Node409 -->
<g id="node8" class="node">
<title>Node409</title>
<g id="a_node8"><a xlink:href="en61107__request_8h.html#acd43242675a3f25e7c3b530eac9d8b3a" target="_top" xlink:title="en61107_request_init">
<polygon fill="#ffffff" stroke="#000000" points="562,-80.2073 562,-99.2073 651,-99.2073 651,-80.2073 562,-80.2073"/>
<text text-anchor="middle" x="606.5" y="-87.2073" font-family="Helvetica,sans-Serif" font-size="10.00" fill="#000000">en61107_request_init</text>
</a>
</g>
</g>
<!-- Node408&#45;&gt;Node409 -->
<g id="edge9" class="edge">
<title>Node408&#45;&gt;Node409</title>
<path fill="none" stroke="#191970" d="M533.4239,-89.7073C542.9386,-89.7073 552.6606,-89.7073 561.7794,-89.7073"/>
<polygon fill="#191970" stroke="#191970" points="533.2191,-86.2074 523.2191,-89.7073 533.219,-93.2074 533.2191,-86.2074"/>
</g>
<!-- Node410&#45;&gt;Node403 -->
<g id="edge11" class="edge">
<title>Node410&#45;&gt;Node403</title>
<path fill="none" stroke="#191970" d="M263.5554,-145.448C255.0857,-145.4868 246.543,-145.404 238.3852,-145.1998"/>
<polygon fill="#191970" stroke="#191970" points="263.8568,-148.9451 273.8196,-145.3405 263.7834,-141.9455 263.8568,-148.9451"/>
</g>
<!-- Node410&#45;&gt;Node408 -->
<g id="edge12" class="edge">
<title>Node410&#45;&gt;Node408</title>
<path fill="none" stroke="#191970" d="M386.0981,-120.2771C406.8763,-113.1323 429.792,-105.2525 447.1532,-99.2827"/>
<polygon fill="#191970" stroke="#191970" points="384.7359,-117.0443 376.4175,-123.6058 387.0121,-123.6638 384.7359,-117.0443"/>
</g>
<!-- Node411&#45;&gt;Node403 -->
<g id="edge14" class="edge">
<title>Node411&#45;&gt;Node403</title>
<path fill="none" stroke="#191970" d="M294.0996,-108.6202C277.0595,-115.1104 256.7473,-122.0833 238.3852,-127.7863"/>
<polygon fill="#191970" stroke="#191970" points="295.6717,-111.7638 303.715,-104.8678 293.1268,-105.2428 295.6717,-111.7638"/>
</g>
<!-- Node411&#45;&gt;Node408 -->
<g id="edge15" class="edge">
<title>Node411&#45;&gt;Node408</title>
<path fill="none" stroke="#191970" d="M401.3266,-89.7073C409.9263,-89.7073 418.5732,-89.7073 426.7653,-89.7073"/>
<polygon fill="#191970" stroke="#191970" points="401.283,-86.2074 391.2829,-89.7073 401.2829,-93.2074 401.283,-86.2074"/>
</g>
<!-- Node412&#45;&gt;Node403 -->
<g id="edge17" class="edge">
<title>Node412&#45;&gt;Node403</title>
<path fill="none" stroke="#191970" d="M301.6499,-59.861C292.462,-63.9628 282.5662,-68.5063 274,-73.7073 250.0214,-88.2658 225.9127,-109.2359 209.0914,-123.6345"/>
<polygon fill="#191970" stroke="#191970" points="303.1794,-63.0112 310.8829,-55.7375 300.3248,-56.6197 303.1794,-63.0112"/>
</g>
<!-- Node412&#45;&gt;Node408 -->
<g id="edge18" class="edge">
<title>Node412&#45;&gt;Node408</title>
<path fill="none" stroke="#191970" d="M386.0981,-59.1375C406.8763,-66.2823 429.792,-74.1621 447.1532,-80.1319"/>
<polygon fill="#191970" stroke="#191970" points="387.0121,-55.7507 376.4175,-55.8087 384.7359,-62.3703 387.0121,-55.7507"/>
</g>
</g>
</svg>
