<?xml version="1.0" encoding="UTF-8" standalone="no"?>
<!DOCTYPE svg PUBLIC "-//W3C//DTD SVG 1.1//EN"
 "http://www.w3.org/Graphics/SVG/1.1/DTD/svg11.dtd">
<!-- Generated by graphviz version 2.40.1 (20161225.0304)
 -->
<!-- Title: en61107_is_eod_char Pages: 1 -->
<svg width="392pt" height="28pt"
 viewBox="0.00 0.00 392.00 28.00" xmlns="http://www.w3.org/2000/svg" xmlns:xlink="http://www.w3.org/1999/xlink">
<g id="graph0" class="graph" transform="scale(1 1) rotate(0) translate(4 24)">
<title>en61107_is_eod_char</title>
<polygon fill="#ffffff" stroke="transparent" points="-4,4 -4,-24 388,-24 388,4 -4,4"/>
<!-- Node61 -->
<g id="node1" class="node">
<title>Node61</title>
<polygon fill="#bfbfbf" stroke="#000000" points="0,-.5 0,-19.5 91,-19.5 91,-.5 0,-.5"/>
<text text-anchor="middle" x="45.5" y="-7.5" font-family="Helvetica,sans-Serif" font-size="10.00" fill="#000000">en61107_is_eod_char</text>
</g>
<!-- Node62 -->
<g id="node2" class="node">
<title>Node62</title>
<g id="a_node2"><a xlink:href="uart_8c.html#a899cd55c7d84717f3e869e4ee5bfda84" target="_top" xlink:title="uart0_rx_intr_handler">
<polygon fill="#ffffff" stroke="#000000" points="127,-.5 127,-19.5 215,-19.5 215,-.5 127,-.5"/>
<text text-anchor="middle" x="171" y="-7.5" font-family="Helvetica,sans-Serif" font-size="10.00" fill="#000000">uart0_rx_intr_handler</text>
</a>
</g>
</g>
<!-- Node61&#45;&gt;Node62 -->
<g id="edge1" class="edge">
<title>Node61&#45;&gt;Node62</title>
<path fill="none" stroke="#191970" d="M101.4222,-10C109.9366,-10 118.6208,-10 126.8375,-10"/>
<polygon fill="#191970" stroke="#191970" points="101.1634,-6.5001 91.1634,-10 101.1634,-13.5001 101.1634,-6.5001"/>
</g>
<!-- Node63 -->
<g id="node3" class="node">
<title>Node63</title>
<g id="a_node3"><a xlink:href="uart_8c.html#a489b77b74dfee22fd4f0c5323ab44da6" target="_top" xlink:title="uart_config">
<polygon fill="#ffffff" stroke="#000000" points="251,-.5 251,-19.5 305,-19.5 305,-.5 251,-.5"/>
<text text-anchor="middle" x="278" y="-7.5" font-family="Helvetica,sans-Serif" font-size="10.00" fill="#000000">uart_config</text>
</a>
</g>
</g>
<!-- Node62&#45;&gt;Node63 -->
<g id="edge2" class="edge">
<title>Node62&#45;&gt;Node63</title>
<path fill="none" stroke="#191970" d="M225.1506,-10C234.0558,-10 242.937,-10 250.807,-10"/>
<polygon fill="#191970" stroke="#191970" points="225.1388,-6.5001 215.1388,-10 225.1387,-13.5001 225.1388,-6.5001"/>
</g>
<!-- Node64 -->
<g id="node4" class="node">
<title>Node64</title>
<g id="a_node4"><a xlink:href="uart_8h.html#a1fdfa60721412bedfeb7be0ebc4d1700" target="_top" xlink:title="uart_init">
<polygon fill="#ffffff" stroke="#000000" points="341,-.5 341,-19.5 384,-19.5 384,-.5 341,-.5"/>
<text text-anchor="middle" x="362.5" y="-7.5" font-family="Helvetica,sans-Serif" font-size="10.00" fill="#000000">uart_init</text>
</a>
</g>
</g>
<!-- Node63&#45;&gt;Node64 -->
<g id="edge3" class="edge">
<title>Node63&#45;&gt;Node64</title>
<path fill="none" stroke="#191970" d="M315.2902,-10C324.0768,-10 333.1536,-10 340.9721,-10"/>
<polygon fill="#191970" stroke="#191970" points="315.2015,-6.5001 305.2015,-10 315.2014,-13.5001 315.2015,-6.5001"/>
</g>
</g>
</svg>
