<?xml version="1.0" encoding="UTF-8" standalone="no"?>
<!DOCTYPE svg PUBLIC "-//W3C//DTD SVG 1.1//EN"
 "http://www.w3.org/Graphics/SVG/1.1/DTD/svg11.dtd">
<!-- Generated by graphviz version 2.40.1 (20161225.0304)
 -->
<!-- Title: en61107_uart_send_inst_values Pages: 1 -->
<svg width="662pt" height="221pt"
 viewBox="0.00 0.00 662.00 221.22" xmlns="http://www.w3.org/2000/svg" xmlns:xlink="http://www.w3.org/1999/xlink">
<g id="graph0" class="graph" transform="scale(1 1) rotate(0) translate(4 217.2224)">
<title>en61107_uart_send_inst_values</title>
<polygon fill="#ffffff" stroke="transparent" points="-4,4 -4,-217.2224 658,-217.2224 658,4 -4,4"/>
<!-- Node326 -->
<g id="node1" class="node">
<title>Node326</title>
<polygon fill="#bfbfbf" stroke="#000000" points="0,-68.2033 0,-98.2033 99,-98.2033 99,-68.2033 0,-68.2033"/>
<text text-anchor="start" x="8" y="-86.2033" font-family="Helvetica,sans-Serif" font-size="10.00" fill="#000000">en61107_uart_send_inst</text>
<text text-anchor="middle" x="49.5" y="-75.2033" font-family="Helvetica,sans-Serif" font-size="10.00" fill="#000000">_values</text>
</g>
<!-- Node327 -->
<g id="node2" class="node">
<title>Node327</title>
<g id="a_node2"><a xlink:href="en61107__request_8h.html#a22f1fee248eec0eeacf220c69b878a28" target="_top" xlink:title="en61107_receive_timeout\l_timer_func">
<polygon fill="#ffffff" stroke="#000000" points="135,-68.2033 135,-98.2033 238,-98.2033 238,-68.2033 135,-68.2033"/>
<text text-anchor="start" x="143" y="-86.2033" font-family="Helvetica,sans-Serif" font-size="10.00" fill="#000000">en61107_receive_timeout</text>
<text text-anchor="middle" x="186.5" y="-75.2033" font-family="Helvetica,sans-Serif" font-size="10.00" fill="#000000">_timer_func</text>
</a>
</g>
</g>
<!-- Node326&#45;&gt;Node327 -->
<g id="edge1" class="edge">
<title>Node326&#45;&gt;Node327</title>
<path fill="none" stroke="#191970" d="M109.4546,-76.5002C117.8393,-76.4077 126.3976,-76.452 134.6161,-76.633"/>
<polygon fill="#191970" stroke="#191970" points="109.2835,-73.0026 99.3477,-76.6808 109.4087,-80.0015 109.2835,-73.0026"/>
</g>
<!-- Node329 -->
<g id="node4" class="node">
<title>Node329</title>
<g id="a_node4"><a xlink:href="en61107__request_8c.html#aa3b162cf5364986ea19e831ac2b18f76" target="_top" xlink:title="en61107_received_task">
<polygon fill="#ffffff" stroke="#000000" points="427,-49.7033 427,-68.7033 523,-68.7033 523,-49.7033 427,-49.7033"/>
<text text-anchor="middle" x="475" y="-56.7033" font-family="Helvetica,sans-Serif" font-size="10.00" fill="#000000">en61107_received_task</text>
</a>
</g>
</g>
<!-- Node326&#45;&gt;Node329 -->
<g id="edge17" class="edge">
<title>Node326&#45;&gt;Node329</title>
<path fill="none" stroke="#191970" d="M86.3305,-63.6046C149.2819,-32.686 281.3985,20.9476 391,-9.2033 419.4724,-17.0359 448.046,-37.3198 463.4297,-49.5106"/>
<polygon fill="#191970" stroke="#191970" points="84.5741,-60.5696 77.1949,-68.1722 87.7045,-66.8307 84.5741,-60.5696"/>
</g>
<!-- Node327&#45;&gt;Node326 -->
<g id="edge10" class="edge">
<title>Node327&#45;&gt;Node326</title>
<path fill="none" stroke="#191970" d="M124.4573,-89.9265C116.0474,-89.9964 107.5065,-89.9294 99.3477,-89.7258"/>
<polygon fill="#191970" stroke="#191970" points="124.67,-93.4238 134.6161,-89.7736 124.5646,-86.4246 124.67,-93.4238"/>
</g>
<!-- Node328 -->
<g id="node3" class="node">
<title>Node328</title>
<g id="a_node3"><a xlink:href="en61107__request_8h.html#a8b6b61143d95d3af3813f8be1aaf3447" target="_top" xlink:title="en61107_uart_send_en61107">
<polygon fill="#ffffff" stroke="#000000" points="274,-117.7033 274,-136.7033 391,-136.7033 391,-117.7033 274,-117.7033"/>
<text text-anchor="middle" x="332.5" y="-124.7033" font-family="Helvetica,sans-Serif" font-size="10.00" fill="#000000">en61107_uart_send_en61107</text>
</a>
</g>
</g>
<!-- Node327&#45;&gt;Node328 -->
<g id="edge2" class="edge">
<title>Node327&#45;&gt;Node328</title>
<path fill="none" stroke="#191970" d="M245.9943,-101.1331C264.7292,-106.7792 284.6939,-112.796 300.7175,-117.625"/>
<polygon fill="#191970" stroke="#191970" points="246.9212,-97.757 236.3366,-98.2225 244.9013,-104.4592 246.9212,-97.757"/>
</g>
<!-- Node331 -->
<g id="node6" class="node">
<title>Node331</title>
<g id="a_node6"><a xlink:href="en61107__request_8h.html#a353102f2f89ad4ed996501752c0ac59c" target="_top" xlink:title="en61107_uart_send_en61107\l_ident">
<polygon fill="#ffffff" stroke="#000000" points="274,-156.2033 274,-186.2033 391,-186.2033 391,-156.2033 274,-156.2033"/>
<text text-anchor="start" x="282" y="-174.2033" font-family="Helvetica,sans-Serif" font-size="10.00" fill="#000000">en61107_uart_send_en61107</text>
<text text-anchor="middle" x="332.5" y="-163.2033" font-family="Helvetica,sans-Serif" font-size="10.00" fill="#000000">_ident</text>
</a>
</g>
</g>
<!-- Node327&#45;&gt;Node331 -->
<g id="edge5" class="edge">
<title>Node327&#45;&gt;Node331</title>
<path fill="none" stroke="#191970" d="M223.5515,-104.2871C238.6943,-114.9323 256.6946,-127.4336 274,-137.2033 286.4072,-144.2077 301.1646,-150.501 312.7533,-156.1729"/>
<polygon fill="#191970" stroke="#191970" points="225.1861,-101.1577 214.9928,-98.2684 221.1595,-106.8837 225.1861,-101.1577"/>
</g>
<!-- Node334 -->
<g id="node9" class="node">
<title>Node334</title>
<g id="a_node9"><a xlink:href="en61107__request_8h.html#afdb1795bdd4212fc7e028a9e5668fab4" target="_top" xlink:title="en61107_uart_send_standard\l_data_1">
<polygon fill="#ffffff" stroke="#000000" points="274,-68.2033 274,-98.2033 391,-98.2033 391,-68.2033 274,-68.2033"/>
<text text-anchor="start" x="282" y="-86.2033" font-family="Helvetica,sans-Serif" font-size="10.00" fill="#000000">en61107_uart_send_standard</text>
<text text-anchor="middle" x="332.5" y="-75.2033" font-family="Helvetica,sans-Serif" font-size="10.00" fill="#000000">_data_1</text>
</a>
</g>
</g>
<!-- Node327&#45;&gt;Node334 -->
<g id="edge11" class="edge">
<title>Node327&#45;&gt;Node334</title>
<path fill="none" stroke="#191970" d="M248.4961,-76.5219C256.8912,-76.4165 265.485,-76.4325 273.8196,-76.5701"/>
<polygon fill="#191970" stroke="#191970" points="248.3181,-73.0245 238.3852,-76.7108 248.4489,-80.0233 248.3181,-73.0245"/>
</g>
<!-- Node335 -->
<g id="node10" class="node">
<title>Node335</title>
<g id="a_node10"><a xlink:href="en61107__request_8h.html#a10b80328698f459ae2251fe146cdc375" target="_top" xlink:title="en61107_uart_send_standard\l_data_2">
<polygon fill="#ffffff" stroke="#000000" points="274,-19.2033 274,-49.2033 391,-49.2033 391,-19.2033 274,-19.2033"/>
<text text-anchor="start" x="282" y="-37.2033" font-family="Helvetica,sans-Serif" font-size="10.00" fill="#000000">en61107_uart_send_standard</text>
<text text-anchor="middle" x="332.5" y="-26.2033" font-family="Helvetica,sans-Serif" font-size="10.00" fill="#000000">_data_2</text>
</a>
</g>
</g>
<!-- Node327&#45;&gt;Node335 -->
<g id="edge14" class="edge">
<title>Node327&#45;&gt;Node335</title>
<path fill="none" stroke="#191970" d="M224.4853,-64.4486C239.5539,-58.6983 257.2308,-52.5569 273.8705,-47.2479"/>
<polygon fill="#191970" stroke="#191970" points="223.0359,-61.2572 214.9969,-68.1583 225.5848,-67.7767 223.0359,-61.2572"/>
</g>
<!-- Node328&#45;&gt;Node329 -->
<g id="edge3" class="edge">
<title>Node328&#45;&gt;Node329</title>
<path fill="none" stroke="#191970" d="M373.6793,-114.2298C379.5629,-112.058 385.4856,-109.6943 391,-107.2033 416.2567,-95.7943 443.8513,-79.152 460.2779,-68.762"/>
<polygon fill="#191970" stroke="#191970" points="372.1532,-111.0571 363.8933,-117.6921 374.4881,-117.6562 372.1532,-111.0571"/>
</g>
<!-- Node330 -->
<g id="node5" class="node">
<title>Node330</title>
<g id="a_node5"><a xlink:href="en61107__request_8h.html#acd43242675a3f25e7c3b530eac9d8b3a" target="_top" xlink:title="en61107_request_init">
<polygon fill="#ffffff" stroke="#000000" points="562,-49.7033 562,-68.7033 651,-68.7033 651,-49.7033 562,-49.7033"/>
<text text-anchor="middle" x="606.5" y="-56.7033" font-family="Helvetica,sans-Serif" font-size="10.00" fill="#000000">en61107_request_init</text>
</a>
</g>
</g>
<!-- Node329&#45;&gt;Node330 -->
<g id="edge4" class="edge">
<title>Node329&#45;&gt;Node330</title>
<path fill="none" stroke="#191970" d="M533.4239,-59.2033C542.9386,-59.2033 552.6606,-59.2033 561.7794,-59.2033"/>
<polygon fill="#191970" stroke="#191970" points="533.2191,-55.7034 523.2191,-59.2033 533.219,-62.7034 533.2191,-55.7034"/>
</g>
<!-- Node331&#45;&gt;Node327 -->
<g id="edge9" class="edge">
<title>Node331&#45;&gt;Node327</title>
<path fill="none" stroke="#191970" d="M267.0551,-151.1026C239.1129,-134.2573 212.1587,-112.9773 197.567,-98.3259"/>
<polygon fill="#191970" stroke="#191970" points="265.3452,-154.1571 275.7459,-156.1758 268.8742,-148.1117 265.3452,-154.1571"/>
</g>
<!-- Node332 -->
<g id="node7" class="node">
<title>Node332</title>
<g id="a_node7"><a xlink:href="en61107__request_8h.html#a2fa4e9967afddae0c1dedbc914dcee36" target="_top" xlink:title="en61107_meter_wake\l_up_timer_func">
<polygon fill="#ffffff" stroke="#000000" points="429.5,-178.2033 429.5,-208.2033 520.5,-208.2033 520.5,-178.2033 429.5,-178.2033"/>
<text text-anchor="start" x="437.5" y="-196.2033" font-family="Helvetica,sans-Serif" font-size="10.00" fill="#000000">en61107_meter_wake</text>
<text text-anchor="middle" x="475" y="-185.2033" font-family="Helvetica,sans-Serif" font-size="10.00" fill="#000000">_up_timer_func</text>
</a>
</g>
</g>
<!-- Node331&#45;&gt;Node332 -->
<g id="edge6" class="edge">
<title>Node331&#45;&gt;Node332</title>
<path fill="none" stroke="#191970" d="M401.2064,-181.8106C410.778,-183.2883 420.411,-184.7755 429.413,-186.1653"/>
<polygon fill="#191970" stroke="#191970" points="401.6999,-178.3454 391.2829,-180.2785 400.6318,-185.2634 401.6999,-178.3454"/>
</g>
<!-- Node332&#45;&gt;Node327 -->
<g id="edge7" class="edge">
<title>Node332&#45;&gt;Node327</title>
<path fill="none" stroke="#191970" d="M419.258,-207.1117C377.1734,-214.6103 319.1584,-218.3496 274,-196.2033 232.1188,-175.6641 204.5613,-124.3502 192.8763,-98.5388"/>
<polygon fill="#191970" stroke="#191970" points="420.159,-210.5031 429.3269,-205.1926 418.8484,-203.6269 420.159,-210.5031"/>
</g>
<!-- Node333 -->
<g id="node8" class="node">
<title>Node333</title>
<g id="a_node8"><a xlink:href="en61107__request_8h.html#a7384d014eb9e833f64ecf4a9f86f87be" target="_top" xlink:title="en61107_request_send">
<polygon fill="#ffffff" stroke="#000000" points="559,-183.7033 559,-202.7033 654,-202.7033 654,-183.7033 559,-183.7033"/>
<text text-anchor="middle" x="606.5" y="-190.7033" font-family="Helvetica,sans-Serif" font-size="10.00" fill="#000000">en61107_request_send</text>
</a>
</g>
</g>
<!-- Node332&#45;&gt;Node333 -->
<g id="edge8" class="edge">
<title>Node332&#45;&gt;Node333</title>
<path fill="none" stroke="#191970" d="M530.9181,-193.2033C540.172,-193.2033 549.6919,-193.2033 558.7218,-193.2033"/>
<polygon fill="#191970" stroke="#191970" points="530.6233,-189.7034 520.6233,-193.2033 530.6232,-196.7034 530.6233,-189.7034"/>
</g>
<!-- Node334&#45;&gt;Node327 -->
<g id="edge12" class="edge">
<title>Node334&#45;&gt;Node327</title>
<path fill="none" stroke="#191970" d="M263.5554,-89.944C255.0857,-89.9828 246.543,-89.9 238.3852,-89.6958"/>
<polygon fill="#191970" stroke="#191970" points="263.8568,-93.4411 273.8196,-89.8365 263.7834,-86.4415 263.8568,-93.4411"/>
</g>
<!-- Node334&#45;&gt;Node329 -->
<g id="edge13" class="edge">
<title>Node334&#45;&gt;Node329</title>
<path fill="none" stroke="#191970" d="M401.3266,-71.6114C409.9263,-70.1631 418.5732,-68.7067 426.7653,-67.327"/>
<polygon fill="#191970" stroke="#191970" points="400.5627,-68.1907 391.2829,-73.303 401.7254,-75.0935 400.5627,-68.1907"/>
</g>
<!-- Node335&#45;&gt;Node327 -->
<g id="edge15" class="edge">
<title>Node335&#45;&gt;Node327</title>
<path fill="none" stroke="#191970" d="M294.0996,-53.1162C277.0595,-59.6064 256.7473,-66.5793 238.3852,-72.2823"/>
<polygon fill="#191970" stroke="#191970" points="295.6717,-56.2598 303.715,-49.3638 293.1268,-49.7388 295.6717,-56.2598"/>
</g>
<!-- Node335&#45;&gt;Node329 -->
<g id="edge16" class="edge">
<title>Node335&#45;&gt;Node329</title>
<path fill="none" stroke="#191970" d="M401.3266,-46.2781C409.9263,-47.7868 418.5732,-49.3038 426.7653,-50.7411"/>
<polygon fill="#191970" stroke="#191970" points="401.7373,-42.7968 391.2829,-44.5161 400.5277,-49.6915 401.7373,-42.7968"/>
</g>
</g>
</svg>
