<?xml version="1.0" encoding="UTF-8" standalone="no"?>
<!DOCTYPE svg PUBLIC "-//W3C//DTD SVG 1.1//EN"
 "http://www.w3.org/Graphics/SVG/1.1/DTD/svg11.dtd">
<!-- Generated by graphviz version 2.40.1 (20161225.0304)
 -->
<!-- Title: en61107_response_set_unit Pages: 1 -->
<svg width="553pt" height="294pt"
 viewBox="0.00 0.00 553.00 294.00" xmlns="http://www.w3.org/2000/svg" xmlns:xlink="http://www.w3.org/1999/xlink">
<g id="graph0" class="graph" transform="scale(1 1) rotate(0) translate(4 290)">
<title>en61107_response_set_unit</title>
<polygon fill="#ffffff" stroke="transparent" points="-4,4 -4,-290 549,-290 549,4 -4,4"/>
<!-- Node0 -->
<g id="node1" class="node">
<title>Node0</title>
<polygon fill="#bfbfbf" stroke="#000000" points="0,-114.5 0,-133.5 111,-133.5 111,-114.5 0,-114.5"/>
<text text-anchor="middle" x="55.5" y="-121.5" font-family="Helvetica,sans-Serif" font-size="10.00" fill="#000000">en61107_response_set_unit</text>
</g>
<!-- Node1 -->
<g id="node2" class="node">
<title>Node1</title>
<g id="a_node2"><a xlink:href="tinyprintf_8c.html#a9738cbc6c538d210941db282e240c7d6" target="_top" xlink:title="tfp_snprintf">
<polygon fill="#ffffff" stroke="#000000" points="147,-114.5 147,-133.5 201,-133.5 201,-114.5 147,-114.5"/>
<text text-anchor="middle" x="174" y="-121.5" font-family="Helvetica,sans-Serif" font-size="10.00" fill="#000000">tfp_snprintf</text>
</a>
</g>
</g>
<!-- Node0&#45;&gt;Node1 -->
<g id="edge1" class="edge">
<title>Node0&#45;&gt;Node1</title>
<path fill="none" stroke="#191970" d="M111.2801,-124C119.8784,-124 128.5745,-124 136.6408,-124"/>
<polygon fill="#191970" stroke="#191970" points="136.8207,-127.5001 146.8207,-124 136.8206,-120.5001 136.8207,-127.5001"/>
</g>
<!-- Node2 -->
<g id="node3" class="node">
<title>Node2</title>
<g id="a_node3"><a xlink:href="tinyprintf_8c.html#ac8c8a66133cf0d7009c0d73b55311a44" target="_top" xlink:title="tfp_vsnprintf">
<polygon fill="#ffffff" stroke="#000000" points="237,-114.5 237,-133.5 294,-133.5 294,-114.5 237,-114.5"/>
<text text-anchor="middle" x="265.5" y="-121.5" font-family="Helvetica,sans-Serif" font-size="10.00" fill="#000000">tfp_vsnprintf</text>
</a>
</g>
</g>
<!-- Node1&#45;&gt;Node2 -->
<g id="edge2" class="edge">
<title>Node1&#45;&gt;Node2</title>
<path fill="none" stroke="#191970" d="M201.453,-124C209.3869,-124 218.1998,-124 226.6866,-124"/>
<polygon fill="#191970" stroke="#191970" points="226.796,-127.5001 236.796,-124 226.7959,-120.5001 226.796,-127.5001"/>
</g>
<!-- Node3 -->
<g id="node4" class="node">
<title>Node3</title>
<g id="a_node4"><a xlink:href="tinyprintf_8c.html#a5877e42444463efc71a91b5fe76a6145" target="_top" xlink:title="tfp_format">
<polygon fill="#ffffff" stroke="#000000" points="339.5,-133.5 339.5,-152.5 389.5,-152.5 389.5,-133.5 339.5,-133.5"/>
<text text-anchor="middle" x="364.5" y="-140.5" font-family="Helvetica,sans-Serif" font-size="10.00" fill="#000000">tfp_format</text>
</a>
</g>
</g>
<!-- Node2&#45;&gt;Node3 -->
<g id="edge3" class="edge">
<title>Node2&#45;&gt;Node3</title>
<path fill="none" stroke="#191970" d="M294.1349,-129.4956C305.0654,-131.5934 317.6574,-134.01 329.141,-136.2139"/>
<polygon fill="#191970" stroke="#191970" points="328.8156,-139.7153 339.296,-138.1629 330.135,-132.8407 328.8156,-139.7153"/>
</g>
<!-- Node13 -->
<g id="node14" class="node">
<title>Node13</title>
<g id="a_node14"><a xlink:href="tinyprintf_8c.html#a919051024b2d729e34a54648b3f2462d" target="_top" xlink:title="_vsnprintf_putcf">
<polygon fill="#ffffff" stroke="#000000" points="330,-95.5 330,-114.5 399,-114.5 399,-95.5 330,-95.5"/>
<text text-anchor="middle" x="364.5" y="-102.5" font-family="Helvetica,sans-Serif" font-size="10.00" fill="#000000">_vsnprintf_putcf</text>
</a>
</g>
</g>
<!-- Node2&#45;&gt;Node13 -->
<g id="edge16" class="edge">
<title>Node2&#45;&gt;Node13</title>
<path fill="none" stroke="#191970" d="M294.1349,-118.5044C302.1798,-116.9604 311.1246,-115.2438 319.8652,-113.5663"/>
<polygon fill="#191970" stroke="#191970" points="320.8048,-116.9499 329.9658,-111.6278 319.4853,-110.0754 320.8048,-116.9499"/>
</g>
<!-- Node4 -->
<g id="node5" class="node">
<title>Node4</title>
<g id="a_node5"><a xlink:href="tinyprintf_8c.html#aa97593a5e53af85b608ad0910db92d77" target="_top" xlink:title="a2u">
<polygon fill="#ffffff" stroke="#000000" points="440.5,-266.5 440.5,-285.5 469.5,-285.5 469.5,-266.5 440.5,-266.5"/>
<text text-anchor="middle" x="455" y="-273.5" font-family="Helvetica,sans-Serif" font-size="10.00" fill="#000000">a2u</text>
</a>
</g>
</g>
<!-- Node3&#45;&gt;Node4 -->
<g id="edge4" class="edge">
<title>Node3&#45;&gt;Node4</title>
<path fill="none" stroke="#191970" d="M370.1641,-152.588C381.6813,-171.8884 408.952,-216.6047 435,-252 436.5752,-254.1405 438.2802,-256.3409 440.0075,-258.4998"/>
<polygon fill="#191970" stroke="#191970" points="437.4795,-260.9348 446.5525,-266.4059 442.8716,-256.4709 437.4795,-260.9348"/>
</g>
<!-- Node6 -->
<g id="node7" class="node">
<title>Node6</title>
<g id="a_node7"><a xlink:href="tinyprintf_8c.html#abcf035dd576671b0cc897de9dd8c75b0" target="_top" xlink:title="ulli2a">
<polygon fill="#ffffff" stroke="#000000" points="511,-209.5 511,-228.5 545,-228.5 545,-209.5 511,-209.5"/>
<text text-anchor="middle" x="528" y="-216.5" font-family="Helvetica,sans-Serif" font-size="10.00" fill="#000000">ulli2a</text>
</a>
</g>
</g>
<!-- Node3&#45;&gt;Node6 -->
<g id="edge6" class="edge">
<title>Node3&#45;&gt;Node6</title>
<path fill="none" stroke="#191970" d="M369.7337,-152.5518C379.7568,-169.7127 403.4943,-205.2518 435,-219 455.7268,-228.0446 481.6121,-227.1922 500.8069,-224.5651"/>
<polygon fill="#191970" stroke="#191970" points="501.3889,-228.0166 510.7072,-222.9747 500.2786,-221.1052 501.3889,-228.0166"/>
</g>
<!-- Node7 -->
<g id="node8" class="node">
<title>Node7</title>
<g id="a_node8"><a xlink:href="tinyprintf_8c.html#a1d61347854a8c290d59b4a21efcefd75" target="_top" xlink:title="uli2a">
<polygon fill="#ffffff" stroke="#000000" points="512,-114.5 512,-133.5 544,-133.5 544,-114.5 512,-114.5"/>
<text text-anchor="middle" x="528" y="-121.5" font-family="Helvetica,sans-Serif" font-size="10.00" fill="#000000">uli2a</text>
</a>
</g>
</g>
<!-- Node3&#45;&gt;Node7 -->
<g id="edge7" class="edge">
<title>Node3&#45;&gt;Node7</title>
<path fill="none" stroke="#191970" d="M382.179,-133.3343C402.5873,-122.1964 433.5591,-105.3636 435,-105 457.6189,-99.2923 483.6594,-105.7065 502.4213,-112.5819"/>
<polygon fill="#191970" stroke="#191970" points="501.1829,-115.8558 511.7698,-116.2659 503.7494,-109.3432 501.1829,-115.8558"/>
</g>
<!-- Node8 -->
<g id="node9" class="node">
<title>Node8</title>
<g id="a_node9"><a xlink:href="tinyprintf_8c.html#ac87ff66a592723f55692eaf8e3f19df8" target="_top" xlink:title="ui2a">
<polygon fill="#ffffff" stroke="#000000" points="512.5,-19.5 512.5,-38.5 543.5,-38.5 543.5,-19.5 512.5,-19.5"/>
<text text-anchor="middle" x="528" y="-26.5" font-family="Helvetica,sans-Serif" font-size="10.00" fill="#000000">ui2a</text>
</a>
</g>
</g>
<!-- Node3&#45;&gt;Node8 -->
<g id="edge8" class="edge">
<title>Node3&#45;&gt;Node8</title>
<path fill="none" stroke="#191970" d="M383.0237,-133.3811C388.2703,-130.5009 393.9311,-127.2425 399,-124 404.5079,-120.4768 471.5402,-70.8618 506.7305,-44.7762"/>
<polygon fill="#191970" stroke="#191970" points="508.9859,-47.461 514.9343,-38.6936 504.8168,-41.838 508.9859,-47.461"/>
</g>
<!-- Node9 -->
<g id="node10" class="node">
<title>Node9</title>
<g id="a_node10"><a xlink:href="tinyprintf_8c.html#a6252dbfebb2c8783c4e3107d551082dd" target="_top" xlink:title="putchw">
<polygon fill="#ffffff" stroke="#000000" points="435,-114.5 435,-133.5 475,-133.5 475,-114.5 435,-114.5"/>
<text text-anchor="middle" x="455" y="-121.5" font-family="Helvetica,sans-Serif" font-size="10.00" fill="#000000">putchw</text>
</a>
</g>
</g>
<!-- Node3&#45;&gt;Node9 -->
<g id="edge9" class="edge">
<title>Node3&#45;&gt;Node9</title>
<path fill="none" stroke="#191970" d="M389.7093,-137.7074C400.601,-135.4208 413.434,-132.7266 424.8272,-130.3346"/>
<polygon fill="#191970" stroke="#191970" points="425.7211,-133.7233 434.7886,-128.2433 424.2828,-126.8727 425.7211,-133.7233"/>
</g>
<!-- Node10 -->
<g id="node11" class="node">
<title>Node10</title>
<g id="a_node11"><a xlink:href="tinyprintf_8c.html#a49c6d2b3d4088012f2c1fe344eef69f3" target="_top" xlink:title="lli2a">
<polygon fill="#ffffff" stroke="#000000" points="440,-190.5 440,-209.5 470,-209.5 470,-190.5 440,-190.5"/>
<text text-anchor="middle" x="455" y="-197.5" font-family="Helvetica,sans-Serif" font-size="10.00" fill="#000000">lli2a</text>
</a>
</g>
</g>
<!-- Node3&#45;&gt;Node10 -->
<g id="edge10" class="edge">
<title>Node3&#45;&gt;Node10</title>
<path fill="none" stroke="#191970" d="M379.8521,-152.6693C393.8479,-161.4843 414.7509,-174.6497 430.9606,-184.8592"/>
<polygon fill="#191970" stroke="#191970" points="429.5478,-188.1057 439.8746,-190.4735 433.2784,-182.1826 429.5478,-188.1057"/>
</g>
<!-- Node11 -->
<g id="node12" class="node">
<title>Node11</title>
<g id="a_node12"><a xlink:href="tinyprintf_8c.html#afebb7696337c3f599b5e8db35c560684" target="_top" xlink:title="li2a">
<polygon fill="#ffffff" stroke="#000000" points="440.5,-152.5 440.5,-171.5 469.5,-171.5 469.5,-152.5 440.5,-152.5"/>
<text text-anchor="middle" x="455" y="-159.5" font-family="Helvetica,sans-Serif" font-size="10.00" fill="#000000">li2a</text>
</a>
</g>
</g>
<!-- Node3&#45;&gt;Node11 -->
<g id="edge12" class="edge">
<title>Node3&#45;&gt;Node11</title>
<path fill="none" stroke="#191970" d="M389.7093,-148.2926C402.4577,-150.969 417.8657,-154.2038 430.5115,-156.8588"/>
<polygon fill="#191970" stroke="#191970" points="429.8595,-160.2981 440.3653,-158.9275 431.2978,-153.4475 429.8595,-160.2981"/>
</g>
<!-- Node12 -->
<g id="node13" class="node">
<title>Node12</title>
<g id="a_node13"><a xlink:href="tinyprintf_8c.html#a90f9fd8f2133cda7f50be8d67823405c" target="_top" xlink:title="i2a">
<polygon fill="#ffffff" stroke="#000000" points="440.5,-.5 440.5,-19.5 469.5,-19.5 469.5,-.5 440.5,-.5"/>
<text text-anchor="middle" x="455" y="-7.5" font-family="Helvetica,sans-Serif" font-size="10.00" fill="#000000">i2a</text>
</a>
</g>
</g>
<!-- Node3&#45;&gt;Node12 -->
<g id="edge14" class="edge">
<title>Node3&#45;&gt;Node12</title>
<path fill="none" stroke="#191970" d="M387.2943,-133.3798C391.5834,-130.8051 395.7391,-127.6885 399,-124 427.5349,-91.7237 412.9383,-71.0038 435,-34 436.2186,-31.956 437.607,-29.9077 439.0712,-27.9166"/>
<polygon fill="#191970" stroke="#191970" points="442.1139,-29.7203 445.6831,-19.7448 436.6721,-25.3173 442.1139,-29.7203"/>
</g>
<!-- Node5 -->
<g id="node6" class="node">
<title>Node5</title>
<g id="a_node6"><a xlink:href="tinyprintf_8c.html#aa853a0c5ba64fa2546d488b86192e7e3" target="_top" xlink:title="a2d">
<polygon fill="#ffffff" stroke="#000000" points="513.5,-266.5 513.5,-285.5 542.5,-285.5 542.5,-266.5 513.5,-266.5"/>
<text text-anchor="middle" x="528" y="-273.5" font-family="Helvetica,sans-Serif" font-size="10.00" fill="#000000">a2d</text>
</a>
</g>
</g>
<!-- Node4&#45;&gt;Node5 -->
<g id="edge5" class="edge">
<title>Node4&#45;&gt;Node5</title>
<path fill="none" stroke="#191970" d="M469.7726,-276C479.3705,-276 492.1197,-276 503.2412,-276"/>
<polygon fill="#191970" stroke="#191970" points="503.2494,-279.5001 513.2493,-276 503.2493,-272.5001 503.2494,-279.5001"/>
</g>
<!-- Node10&#45;&gt;Node6 -->
<g id="edge11" class="edge">
<title>Node10&#45;&gt;Node6</title>
<path fill="none" stroke="#191970" d="M470.1256,-203.9368C479.021,-206.252 490.5313,-209.2479 500.9415,-211.9574"/>
<polygon fill="#191970" stroke="#191970" points="500.2881,-215.4038 510.8473,-214.5356 502.0513,-208.6295 500.2881,-215.4038"/>
</g>
<!-- Node11&#45;&gt;Node7 -->
<g id="edge13" class="edge">
<title>Node11&#45;&gt;Node7</title>
<path fill="none" stroke="#191970" d="M469.7726,-154.3101C479.2461,-149.3787 491.7899,-142.8491 502.8081,-137.1136"/>
<polygon fill="#191970" stroke="#191970" points="504.7286,-140.0598 511.9827,-132.3378 501.4964,-133.8506 504.7286,-140.0598"/>
</g>
<!-- Node12&#45;&gt;Node8 -->
<g id="edge15" class="edge">
<title>Node12&#45;&gt;Node8</title>
<path fill="none" stroke="#191970" d="M469.7726,-13.8449C479.181,-16.2937 491.6176,-19.5306 502.5808,-22.384"/>
<polygon fill="#191970" stroke="#191970" points="501.9343,-25.8323 512.4935,-24.9641 503.6975,-19.058 501.9343,-25.8323"/>
</g>
</g>
</svg>
