<?xml version="1.0" encoding="UTF-8" standalone="no"?>
<!DOCTYPE svg PUBLIC "-//W3C//DTD SVG 1.1//EN"
 "http://www.w3.org/Graphics/SVG/1.1/DTD/svg11.dtd">
<!-- Generated by graphviz version 2.40.1 (20161225.0304)
 -->
<!-- Title: en61107_uart_send_en61107_ident Pages: 1 -->
<svg width="801pt" height="180pt"
 viewBox="0.00 0.00 801.00 179.50" xmlns="http://www.w3.org/2000/svg" xmlns:xlink="http://www.w3.org/1999/xlink">
<g id="graph0" class="graph" transform="scale(1 1) rotate(0) translate(4 175.5)">
<title>en61107_uart_send_en61107_ident</title>
<polygon fill="#ffffff" stroke="transparent" points="-4,4 -4,-175.5 797,-175.5 797,4 -4,4"/>
<!-- Node297 -->
<g id="node1" class="node">
<title>Node297</title>
<polygon fill="#bfbfbf" stroke="#000000" points="0,-53.5 0,-83.5 117,-83.5 117,-53.5 0,-53.5"/>
<text text-anchor="start" x="8" y="-71.5" font-family="Helvetica,sans-Serif" font-size="10.00" fill="#000000">en61107_uart_send_en61107</text>
<text text-anchor="middle" x="58.5" y="-60.5" font-family="Helvetica,sans-Serif" font-size="10.00" fill="#000000">_ident</text>
</g>
<!-- Node298 -->
<g id="node2" class="node">
<title>Node298</title>
<g id="a_node2"><a xlink:href="en61107__request_8h.html#a2fa4e9967afddae0c1dedbc914dcee36" target="_top" xlink:title="en61107_meter_wake\l_up_timer_func">
<polygon fill="#ffffff" stroke="#000000" points="153,-.5 153,-30.5 244,-30.5 244,-.5 153,-.5"/>
<text text-anchor="start" x="161" y="-18.5" font-family="Helvetica,sans-Serif" font-size="10.00" fill="#000000">en61107_meter_wake</text>
<text text-anchor="middle" x="198.5" y="-7.5" font-family="Helvetica,sans-Serif" font-size="10.00" fill="#000000">_up_timer_func</text>
</a>
</g>
</g>
<!-- Node297&#45;&gt;Node298 -->
<g id="edge1" class="edge">
<title>Node297&#45;&gt;Node298</title>
<path fill="none" stroke="#191970" d="M107.817,-49.83C124.4673,-43.5267 142.833,-36.5739 158.6567,-30.5835"/>
<polygon fill="#191970" stroke="#191970" points="106.357,-46.6402 98.2439,-53.4541 108.8354,-53.1868 106.357,-46.6402"/>
</g>
<!-- Node299 -->
<g id="node3" class="node">
<title>Node299</title>
<g id="a_node3"><a xlink:href="en61107__request_8h.html#a22f1fee248eec0eeacf220c69b878a28" target="_top" xlink:title="en61107_receive_timeout\l_timer_func">
<polygon fill="#ffffff" stroke="#000000" points="280,-53.5 280,-83.5 383,-83.5 383,-53.5 280,-53.5"/>
<text text-anchor="start" x="288" y="-71.5" font-family="Helvetica,sans-Serif" font-size="10.00" fill="#000000">en61107_receive_timeout</text>
<text text-anchor="middle" x="331.5" y="-60.5" font-family="Helvetica,sans-Serif" font-size="10.00" fill="#000000">_timer_func</text>
</a>
</g>
</g>
<!-- Node297&#45;&gt;Node299 -->
<g id="edge17" class="edge">
<title>Node297&#45;&gt;Node299</title>
<path fill="none" stroke="#191970" d="M127.2561,-62.551C174.6837,-61.3287 236.7284,-61.5053 279.934,-63.0806"/>
<polygon fill="#191970" stroke="#191970" points="126.9611,-59.058 117.0653,-62.8427 127.1614,-66.0551 126.9611,-59.058"/>
</g>
<!-- Node298&#45;&gt;Node299 -->
<g id="edge2" class="edge">
<title>Node298&#45;&gt;Node299</title>
<path fill="none" stroke="#191970" d="M245.795,-34.3469C261.4949,-40.6032 278.7568,-47.482 293.6489,-53.4165"/>
<polygon fill="#191970" stroke="#191970" points="246.842,-30.9965 236.2567,-30.5459 244.2506,-37.4992 246.842,-30.9965"/>
</g>
<!-- Node306 -->
<g id="node10" class="node">
<title>Node306</title>
<g id="a_node10"><a xlink:href="en61107__request_8h.html#a7384d014eb9e833f64ecf4a9f86f87be" target="_top" xlink:title="en61107_request_send">
<polygon fill="#ffffff" stroke="#000000" points="284,-6 284,-25 379,-25 379,-6 284,-6"/>
<text text-anchor="middle" x="331.5" y="-13" font-family="Helvetica,sans-Serif" font-size="10.00" fill="#000000">en61107_request_send</text>
</a>
</g>
</g>
<!-- Node298&#45;&gt;Node306 -->
<g id="edge16" class="edge">
<title>Node298&#45;&gt;Node306</title>
<path fill="none" stroke="#191970" d="M254.34,-15.5C264.1479,-15.5 274.2735,-15.5 283.8332,-15.5"/>
<polygon fill="#191970" stroke="#191970" points="254.2711,-12.0001 244.2711,-15.5 254.271,-19.0001 254.2711,-12.0001"/>
</g>
<!-- Node299&#45;&gt;Node297 -->
<g id="edge6" class="edge">
<title>Node299&#45;&gt;Node297</title>
<path fill="none" stroke="#191970" d="M269.844,-74.2522C224.0815,-75.6135 162.0732,-75.5819 117.0653,-74.1573"/>
<polygon fill="#191970" stroke="#191970" points="270.0548,-77.7472 279.934,-73.9194 269.824,-70.751 270.0548,-77.7472"/>
</g>
<!-- Node300 -->
<g id="node4" class="node">
<title>Node300</title>
<g id="a_node4"><a xlink:href="en61107__request_8h.html#a8b6b61143d95d3af3813f8be1aaf3447" target="_top" xlink:title="en61107_uart_send_en61107">
<polygon fill="#ffffff" stroke="#000000" points="419,-152 419,-171 536,-171 536,-152 419,-152"/>
<text text-anchor="middle" x="477.5" y="-159" font-family="Helvetica,sans-Serif" font-size="10.00" fill="#000000">en61107_uart_send_en61107</text>
</a>
</g>
</g>
<!-- Node299&#45;&gt;Node300 -->
<g id="edge3" class="edge">
<title>Node299&#45;&gt;Node300</title>
<path fill="none" stroke="#191970" d="M352.7327,-90.6121C369.4284,-106.9058 393.9772,-128.5683 419,-142.5 425.7175,-146.2401 433.2839,-149.3793 440.6902,-151.9598"/>
<polygon fill="#191970" stroke="#191970" points="355.1966,-88.1263 345.6408,-83.5506 350.2575,-93.0867 355.1966,-88.1263"/>
</g>
<!-- Node303 -->
<g id="node7" class="node">
<title>Node303</title>
<g id="a_node7"><a xlink:href="en61107__request_8h.html#a74c2d949e6bb3b65cdf794a0643dd67d" target="_top" xlink:title="en61107_uart_send_inst\l_values">
<polygon fill="#ffffff" stroke="#000000" points="428,-102.5 428,-132.5 527,-132.5 527,-102.5 428,-102.5"/>
<text text-anchor="start" x="436" y="-120.5" font-family="Helvetica,sans-Serif" font-size="10.00" fill="#000000">en61107_uart_send_inst</text>
<text text-anchor="middle" x="477.5" y="-109.5" font-family="Helvetica,sans-Serif" font-size="10.00" fill="#000000">_values</text>
</a>
</g>
</g>
<!-- Node299&#45;&gt;Node303 -->
<g id="edge7" class="edge">
<title>Node299&#45;&gt;Node303</title>
<path fill="none" stroke="#191970" d="M393.0574,-82.4839C412.3788,-88.7159 432.797,-95.9605 448.715,-102.3394"/>
<polygon fill="#191970" stroke="#191970" points="393.9753,-79.1034 383.3852,-79.421 391.862,-85.7767 393.9753,-79.1034"/>
</g>
<!-- Node304 -->
<g id="node8" class="node">
<title>Node304</title>
<g id="a_node8"><a xlink:href="en61107__request_8h.html#afdb1795bdd4212fc7e028a9e5668fab4" target="_top" xlink:title="en61107_uart_send_standard\l_data_1">
<polygon fill="#ffffff" stroke="#000000" points="419,-53.5 419,-83.5 536,-83.5 536,-53.5 419,-53.5"/>
<text text-anchor="start" x="427" y="-71.5" font-family="Helvetica,sans-Serif" font-size="10.00" fill="#000000">en61107_uart_send_standard</text>
<text text-anchor="middle" x="477.5" y="-60.5" font-family="Helvetica,sans-Serif" font-size="10.00" fill="#000000">_data_1</text>
</a>
</g>
</g>
<!-- Node299&#45;&gt;Node304 -->
<g id="edge10" class="edge">
<title>Node299&#45;&gt;Node304</title>
<path fill="none" stroke="#191970" d="M393.4961,-61.8186C401.8912,-61.7132 410.485,-61.7292 418.8196,-61.8668"/>
<polygon fill="#191970" stroke="#191970" points="393.3181,-58.3212 383.3852,-62.0075 393.4489,-65.32 393.3181,-58.3212"/>
</g>
<!-- Node305 -->
<g id="node9" class="node">
<title>Node305</title>
<g id="a_node9"><a xlink:href="en61107__request_8h.html#a10b80328698f459ae2251fe146cdc375" target="_top" xlink:title="en61107_uart_send_standard\l_data_2">
<polygon fill="#ffffff" stroke="#000000" points="419,-4.5 419,-34.5 536,-34.5 536,-4.5 419,-4.5"/>
<text text-anchor="start" x="427" y="-22.5" font-family="Helvetica,sans-Serif" font-size="10.00" fill="#000000">en61107_uart_send_standard</text>
<text text-anchor="middle" x="477.5" y="-11.5" font-family="Helvetica,sans-Serif" font-size="10.00" fill="#000000">_data_2</text>
</a>
</g>
</g>
<!-- Node299&#45;&gt;Node305 -->
<g id="edge13" class="edge">
<title>Node299&#45;&gt;Node305</title>
<path fill="none" stroke="#191970" d="M369.4853,-49.7454C384.5539,-43.995 402.2308,-37.8536 418.8705,-32.5447"/>
<polygon fill="#191970" stroke="#191970" points="368.0359,-46.554 359.9969,-53.455 370.5848,-53.0734 368.0359,-46.554"/>
</g>
<!-- Node301 -->
<g id="node5" class="node">
<title>Node301</title>
<g id="a_node5"><a xlink:href="en61107__request_8c.html#aa3b162cf5364986ea19e831ac2b18f76" target="_top" xlink:title="en61107_received_task">
<polygon fill="#ffffff" stroke="#000000" points="572,-83 572,-102 668,-102 668,-83 572,-83"/>
<text text-anchor="middle" x="620" y="-90" font-family="Helvetica,sans-Serif" font-size="10.00" fill="#000000">en61107_received_task</text>
</a>
</g>
</g>
<!-- Node300&#45;&gt;Node301 -->
<g id="edge4" class="edge">
<title>Node300&#45;&gt;Node301</title>
<path fill="none" stroke="#191970" d="M521.1207,-148.5294C526.2012,-146.668 531.2584,-144.6487 536,-142.5 561.8152,-130.8017 589.696,-113.0884 605.9618,-102.186"/>
<polygon fill="#191970" stroke="#191970" points="519.6963,-145.319 511.3985,-151.9066 521.9933,-151.9314 519.6963,-145.319"/>
</g>
<!-- Node302 -->
<g id="node6" class="node">
<title>Node302</title>
<g id="a_node6"><a xlink:href="en61107__request_8h.html#acd43242675a3f25e7c3b530eac9d8b3a" target="_top" xlink:title="en61107_request_init">
<polygon fill="#ffffff" stroke="#000000" points="704,-83 704,-102 793,-102 793,-83 704,-83"/>
<text text-anchor="middle" x="748.5" y="-90" font-family="Helvetica,sans-Serif" font-size="10.00" fill="#000000">en61107_request_init</text>
</a>
</g>
</g>
<!-- Node301&#45;&gt;Node302 -->
<g id="edge5" class="edge">
<title>Node301&#45;&gt;Node302</title>
<path fill="none" stroke="#191970" d="M678.4911,-92.5C687.0049,-92.5 695.6547,-92.5 703.8359,-92.5"/>
<polygon fill="#191970" stroke="#191970" points="678.2143,-89.0001 668.2143,-92.5 678.2142,-96.0001 678.2143,-89.0001"/>
</g>
<!-- Node303&#45;&gt;Node299 -->
<g id="edge8" class="edge">
<title>Node303&#45;&gt;Node299</title>
<path fill="none" stroke="#191970" d="M418.0789,-104.2024C398.0195,-97.7833 376.5421,-90.1871 359.9969,-83.545"/>
<polygon fill="#191970" stroke="#191970" points="417.1953,-107.5934 427.7845,-107.2497 419.2922,-100.9148 417.1953,-107.5934"/>
</g>
<!-- Node303&#45;&gt;Node301 -->
<g id="edge9" class="edge">
<title>Node303&#45;&gt;Node301</title>
<path fill="none" stroke="#191970" d="M537.3268,-107.0041C548.8472,-104.983 560.7766,-102.8901 571.8678,-100.9443"/>
<polygon fill="#191970" stroke="#191970" points="536.5843,-103.5808 527.3396,-108.7562 537.794,-110.4755 536.5843,-103.5808"/>
</g>
<!-- Node304&#45;&gt;Node299 -->
<g id="edge11" class="edge">
<title>Node304&#45;&gt;Node299</title>
<path fill="none" stroke="#191970" d="M408.5554,-75.2407C400.0857,-75.2795 391.543,-75.1967 383.3852,-74.9925"/>
<polygon fill="#191970" stroke="#191970" points="408.8568,-78.7379 418.8196,-75.1332 408.7834,-71.7382 408.8568,-78.7379"/>
</g>
<!-- Node304&#45;&gt;Node301 -->
<g id="edge12" class="edge">
<title>Node304&#45;&gt;Node301</title>
<path fill="none" stroke="#191970" d="M546.3266,-80.0918C554.9263,-81.5402 563.5732,-82.9965 571.7653,-84.3763"/>
<polygon fill="#191970" stroke="#191970" points="546.7254,-76.6098 536.2829,-78.4003 545.5627,-83.5126 546.7254,-76.6098"/>
</g>
<!-- Node305&#45;&gt;Node299 -->
<g id="edge14" class="edge">
<title>Node305&#45;&gt;Node299</title>
<path fill="none" stroke="#191970" d="M439.0996,-38.4129C422.0595,-44.9031 401.7473,-51.876 383.3852,-57.579"/>
<polygon fill="#191970" stroke="#191970" points="440.6717,-41.5566 448.715,-34.6606 438.1268,-35.0355 440.6717,-41.5566"/>
</g>
<!-- Node305&#45;&gt;Node301 -->
<g id="edge15" class="edge">
<title>Node305&#45;&gt;Node301</title>
<path fill="none" stroke="#191970" d="M524.0857,-38.8285C528.1426,-40.6864 532.1617,-42.5911 536,-44.5 560.5139,-56.6913 587.8654,-72.8175 604.5028,-82.9252"/>
<polygon fill="#191970" stroke="#191970" points="525.1763,-35.4823 514.6184,-34.5983 522.3206,-41.8734 525.1763,-35.4823"/>
</g>
</g>
</svg>
