<?xml version="1.0" encoding="UTF-8" standalone="no"?>
<!DOCTYPE svg PUBLIC "-//W3C//DTD SVG 1.1//EN"
 "http://www.w3.org/Graphics/SVG/1.1/DTD/svg11.dtd">
<!-- Generated by graphviz version 2.40.1 (20161225.0304)
 -->
<!-- Title: en61107_meter_wake_up_timer_func Pages: 1 -->
<svg width="911pt" height="579pt"
 viewBox="0.00 0.00 911.00 578.80" xmlns="http://www.w3.org/2000/svg" xmlns:xlink="http://www.w3.org/1999/xlink">
<g id="graph0" class="graph" transform="scale(1 1) rotate(0) translate(4 574.803)">
<title>en61107_meter_wake_up_timer_func</title>
<polygon fill="#ffffff" stroke="transparent" points="-4,4 -4,-574.803 907,-574.803 907,4 -4,4"/>
<!-- Node65 -->
<g id="node1" class="node">
<title>Node65</title>
<polygon fill="#bfbfbf" stroke="#000000" points="0,-349.5 0,-379.5 91,-379.5 91,-349.5 0,-349.5"/>
<text text-anchor="start" x="8" y="-367.5" font-family="Helvetica,sans-Serif" font-size="10.00" fill="#000000">en61107_meter_wake</text>
<text text-anchor="middle" x="45.5" y="-356.5" font-family="Helvetica,sans-Serif" font-size="10.00" fill="#000000">_up_timer_func</text>
</g>
<!-- Node66 -->
<g id="node2" class="node">
<title>Node66</title>
<g id="a_node2"><a xlink:href="en61107__request_8c.html#a353102f2f89ad4ed996501752c0ac59c" target="_top" xlink:title="en61107_uart_send_en61107\l_ident">
<polygon fill="#ffffff" stroke="#000000" points="127,-349.5 127,-379.5 244,-379.5 244,-349.5 127,-349.5"/>
<text text-anchor="start" x="135" y="-367.5" font-family="Helvetica,sans-Serif" font-size="10.00" fill="#000000">en61107_uart_send_en61107</text>
<text text-anchor="middle" x="185.5" y="-356.5" font-family="Helvetica,sans-Serif" font-size="10.00" fill="#000000">_ident</text>
</a>
</g>
</g>
<!-- Node65&#45;&gt;Node66 -->
<g id="edge1" class="edge">
<title>Node65&#45;&gt;Node66</title>
<path fill="none" stroke="#191970" d="M91.3412,-364.5C99.4803,-364.5 108.116,-364.5 116.727,-364.5"/>
<polygon fill="#191970" stroke="#191970" points="116.793,-368.0001 126.7929,-364.5 116.7929,-361.0001 116.793,-368.0001"/>
</g>
<!-- Node67 -->
<g id="node3" class="node">
<title>Node67</title>
<g id="a_node3"><a xlink:href="en61107__request_8c.html#a8376fb3e6dfde4cc59e5fa0574a6e499" target="_top" xlink:title="en61107_delayed_uart\l_change_setting_timer_func">
<polygon fill="#ffffff" stroke="#000000" points="572,-316.5 572,-346.5 683,-346.5 683,-316.5 572,-316.5"/>
<text text-anchor="start" x="580" y="-334.5" font-family="Helvetica,sans-Serif" font-size="10.00" fill="#000000">en61107_delayed_uart</text>
<text text-anchor="middle" x="627.5" y="-323.5" font-family="Helvetica,sans-Serif" font-size="10.00" fill="#000000">_change_setting_timer_func</text>
</a>
</g>
</g>
<!-- Node66&#45;&gt;Node67 -->
<g id="edge2" class="edge">
<title>Node66&#45;&gt;Node67</title>
<path fill="none" stroke="#191970" d="M230.2082,-379.5645C298.6567,-400.0527 432.381,-429.8061 536,-389.5 556.2286,-381.6314 553.8753,-368.4419 572,-356.5 574.7356,-354.6976 577.6225,-352.9651 580.584,-351.312"/>
<polygon fill="#191970" stroke="#191970" points="582.3681,-354.329 589.6153,-346.6006 579.1304,-348.1227 582.3681,-354.329"/>
</g>
<!-- Node68 -->
<g id="node4" class="node">
<title>Node68</title>
<g id="a_node4"><a xlink:href="uart_8c.html#a8f941077d51144c4c172f827b4f2072a" target="_top" xlink:title="uart_set_baudrate">
<polygon fill="#ffffff" stroke="#000000" points="719.5,-303 719.5,-322 796.5,-322 796.5,-303 719.5,-303"/>
<text text-anchor="middle" x="758" y="-310" font-family="Helvetica,sans-Serif" font-size="10.00" fill="#000000">uart_set_baudrate</text>
</a>
</g>
</g>
<!-- Node66&#45;&gt;Node68 -->
<g id="edge41" class="edge">
<title>Node66&#45;&gt;Node68</title>
<path fill="none" stroke="#191970" d="M196.925,-379.6008C212.9495,-399.3843 244.1849,-433.1275 280,-446.5 386.5902,-486.2984 422.7614,-457.5632 536,-446.5 602.277,-440.0249 631.4112,-459.6089 683,-417.5 715.1002,-391.2985 690.5456,-361.6212 719,-331.5 720.209,-330.2202 721.5223,-329.0157 722.9109,-327.8835"/>
<polygon fill="#191970" stroke="#191970" points="725.1054,-330.6269 731.4834,-322.167 721.2218,-324.803 725.1054,-330.6269"/>
</g>
<!-- Node69 -->
<g id="node5" class="node">
<title>Node69</title>
<g id="a_node5"><a xlink:href="uart_8c.html#a4db93f371dcd92498db4a4c7b82f3380" target="_top" xlink:title="uart_set_stop_bits">
<polygon fill="#ffffff" stroke="#000000" points="719,-341 719,-360 797,-360 797,-341 719,-341"/>
<text text-anchor="middle" x="758" y="-348" font-family="Helvetica,sans-Serif" font-size="10.00" fill="#000000">uart_set_stop_bits</text>
</a>
</g>
</g>
<!-- Node66&#45;&gt;Node69 -->
<g id="edge43" class="edge">
<title>Node66&#45;&gt;Node69</title>
<path fill="none" stroke="#191970" d="M190.4733,-379.8807C201.2029,-410.163 229.7092,-476.8781 280,-503.5 438.2996,-587.2975 531.0109,-598.2634 683,-503.5 730.3618,-473.9705 748.65,-404.8627 754.9936,-370.5545"/>
<polygon fill="#191970" stroke="#191970" points="758.5009,-370.8037 756.7117,-360.361 751.5982,-369.6402 758.5009,-370.8037"/>
</g>
<!-- Node70 -->
<g id="node6" class="node">
<title>Node70</title>
<g id="a_node6"><a xlink:href="en61107__request_8c.html#a22f1fee248eec0eeacf220c69b878a28" target="_top" xlink:title="en61107_receive_timeout\l_timer_func">
<polygon fill="#ffffff" stroke="#000000" points="280,-275.5 280,-305.5 383,-305.5 383,-275.5 280,-275.5"/>
<text text-anchor="start" x="288" y="-293.5" font-family="Helvetica,sans-Serif" font-size="10.00" fill="#000000">en61107_receive_timeout</text>
<text text-anchor="middle" x="331.5" y="-282.5" font-family="Helvetica,sans-Serif" font-size="10.00" fill="#000000">_timer_func</text>
</a>
</g>
</g>
<!-- Node66&#45;&gt;Node70 -->
<g id="edge5" class="edge">
<title>Node66&#45;&gt;Node70</title>
<path fill="none" stroke="#191970" d="M205.8007,-349.3656C224.9911,-337.8879 254.5854,-322.3441 280.2387,-310.0051"/>
<polygon fill="#191970" stroke="#191970" points="281.9509,-313.0668 289.485,-305.6177 278.95,-306.7426 281.9509,-313.0668"/>
</g>
<!-- Node73 -->
<g id="node9" class="node">
<title>Node73</title>
<g id="a_node9"><a xlink:href="uart_8c.html#a87f1c1c2a25d4336eb804da28ed99f7e" target="_top" xlink:title="uart0_tx_buffer">
<polygon fill="#ffffff" stroke="#000000" points="594,-126 594,-145 661,-145 661,-126 594,-126"/>
<text text-anchor="middle" x="627.5" y="-133" font-family="Helvetica,sans-Serif" font-size="10.00" fill="#000000">uart0_tx_buffer</text>
</a>
</g>
</g>
<!-- Node66&#45;&gt;Node73 -->
<g id="edge40" class="edge">
<title>Node66&#45;&gt;Node73</title>
<path fill="none" stroke="#191970" d="M189.4248,-349.4998C198.8898,-316.5105 226.2626,-237.5725 280,-199.5 372.603,-133.8916 512.845,-129.6854 583.5099,-132.3986"/>
<polygon fill="#191970" stroke="#191970" points="583.6791,-135.9097 593.8266,-132.8637 583.9945,-128.9168 583.6791,-135.9097"/>
</g>
<!-- Node75 -->
<g id="node11" class="node">
<title>Node75</title>
<g id="a_node11"><a xlink:href="uart_8c.html#a67bf1971cc8eb81c79700658c287c7a4" target="_top" xlink:title="uart_set_parity">
<polygon fill="#ffffff" stroke="#000000" points="594.5,-202 594.5,-221 660.5,-221 660.5,-202 594.5,-202"/>
<text text-anchor="middle" x="627.5" y="-209" font-family="Helvetica,sans-Serif" font-size="10.00" fill="#000000">uart_set_parity</text>
</a>
</g>
</g>
<!-- Node66&#45;&gt;Node75 -->
<g id="edge42" class="edge">
<title>Node66&#45;&gt;Node75</title>
<path fill="none" stroke="#191970" d="M197.3826,-349.4342C214.1703,-328.8418 246.5342,-291.6037 280,-266.5 335.8199,-224.6279 351.2507,-210.2083 419,-193.5 475.171,-179.6472 542.1319,-189.9916 584.7276,-199.7911"/>
<polygon fill="#191970" stroke="#191970" points="583.9444,-203.2024 594.4843,-202.1247 585.5728,-196.3945 583.9444,-203.2024"/>
</g>
<!-- Node76 -->
<g id="node12" class="node">
<title>Node76</title>
<g id="a_node12"><a xlink:href="uart_8c.html#a6727906afe0321e8ee406028ad41f5e7" target="_top" xlink:title="uart_set_word_length">
<polygon fill="#ffffff" stroke="#000000" points="583,-366 583,-385 672,-385 672,-366 583,-366"/>
<text text-anchor="middle" x="627.5" y="-373" font-family="Helvetica,sans-Serif" font-size="10.00" fill="#000000">uart_set_word_length</text>
</a>
</g>
</g>
<!-- Node66&#45;&gt;Node76 -->
<g id="edge44" class="edge">
<title>Node66&#45;&gt;Node76</title>
<path fill="none" stroke="#191970" d="M203.2339,-379.588C221.2243,-393.8224 250.5447,-414.1817 280,-422.5 389.4953,-453.4219 425.4096,-449.2422 536,-422.5 561.4244,-416.352 587.7084,-401.8538 605.5457,-390.5728"/>
<polygon fill="#191970" stroke="#191970" points="607.587,-393.4202 614.0542,-385.0282 603.7652,-387.5555 607.587,-393.4202"/>
</g>
<!-- Node67&#45;&gt;Node68 -->
<g id="edge3" class="edge">
<title>Node67&#45;&gt;Node68</title>
<path fill="none" stroke="#191970" d="M683.2223,-323.3872C691.8905,-322.1251 700.788,-320.8297 709.2849,-319.5926"/>
<polygon fill="#191970" stroke="#191970" points="710.017,-323.023 719.4084,-318.1187 709.0085,-316.096 710.017,-323.023"/>
</g>
<!-- Node67&#45;&gt;Node69 -->
<g id="edge4" class="edge">
<title>Node67&#45;&gt;Node69</title>
<path fill="none" stroke="#191970" d="M683.2223,-339.6128C691.6935,-340.8462 700.3836,-342.1114 708.705,-343.3229"/>
<polygon fill="#191970" stroke="#191970" points="708.2328,-346.791 718.6328,-344.7684 709.2414,-339.8641 708.2328,-346.791"/>
</g>
<!-- Node70&#45;&gt;Node66 -->
<g id="edge8" class="edge">
<title>Node70&#45;&gt;Node66</title>
<path fill="none" stroke="#191970" d="M311.1237,-305.6796C291.8871,-317.1793 262.245,-332.7434 236.5847,-345.0798"/>
<polygon fill="#191970" stroke="#191970" points="234.8733,-342.0177 227.3377,-349.4652 237.8729,-348.3425 234.8733,-342.0177"/>
</g>
<!-- Node71 -->
<g id="node7" class="node">
<title>Node71</title>
<g id="a_node7"><a xlink:href="en61107__request_8c.html#a2fa4e9967afddae0c1dedbc914dcee36" target="_top" xlink:title="en61107_meter_wake\l_up_timer_func">
<polygon fill="#ffffff" stroke="#000000" points="432,-349.5 432,-379.5 523,-379.5 523,-349.5 432,-349.5"/>
<text text-anchor="start" x="440" y="-367.5" font-family="Helvetica,sans-Serif" font-size="10.00" fill="#000000">en61107_meter_wake</text>
<text text-anchor="middle" x="477.5" y="-356.5" font-family="Helvetica,sans-Serif" font-size="10.00" fill="#000000">_up_timer_func</text>
</a>
</g>
</g>
<!-- Node70&#45;&gt;Node71 -->
<g id="edge6" class="edge">
<title>Node70&#45;&gt;Node71</title>
<path fill="none" stroke="#191970" d="M355.93,-305.5986C373.228,-316.0055 397.1463,-329.8292 419,-340.5 422.354,-342.1377 425.8489,-343.7637 429.3882,-345.3523"/>
<polygon fill="#191970" stroke="#191970" points="428.2288,-348.6649 438.7944,-349.4521 431.0258,-342.2479 428.2288,-348.6649"/>
</g>
<!-- Node72 -->
<g id="node8" class="node">
<title>Node72</title>
<g id="a_node8"><a xlink:href="en61107__request_8c.html#a74c2d949e6bb3b65cdf794a0643dd67d" target="_top" xlink:title="en61107_uart_send_inst\l_values">
<polygon fill="#ffffff" stroke="#000000" points="428,-202.5 428,-232.5 527,-232.5 527,-202.5 428,-202.5"/>
<text text-anchor="start" x="436" y="-220.5" font-family="Helvetica,sans-Serif" font-size="10.00" fill="#000000">en61107_uart_send_inst</text>
<text text-anchor="middle" x="477.5" y="-209.5" font-family="Helvetica,sans-Serif" font-size="10.00" fill="#000000">_values</text>
</a>
</g>
</g>
<!-- Node70&#45;&gt;Node72 -->
<g id="edge9" class="edge">
<title>Node70&#45;&gt;Node72</title>
<path fill="none" stroke="#191970" d="M346.1309,-275.4417C361.777,-264.0513 387.6228,-249.2003 418.5678,-233.8693"/>
<polygon fill="#191970" stroke="#191970" points="420.4297,-236.8549 427.8759,-229.318 417.3549,-230.5664 420.4297,-236.8549"/>
</g>
<!-- Node77 -->
<g id="node13" class="node">
<title>Node77</title>
<g id="a_node13"><a xlink:href="en61107__request_8c.html#afdb1795bdd4212fc7e028a9e5668fab4" target="_top" xlink:title="en61107_uart_send_standard\l_data_1">
<polygon fill="#ffffff" stroke="#000000" points="419,-300.5 419,-330.5 536,-330.5 536,-300.5 419,-300.5"/>
<text text-anchor="start" x="427" y="-318.5" font-family="Helvetica,sans-Serif" font-size="10.00" fill="#000000">en61107_uart_send_standard</text>
<text text-anchor="middle" x="477.5" y="-307.5" font-family="Helvetica,sans-Serif" font-size="10.00" fill="#000000">_data_1</text>
</a>
</g>
</g>
<!-- Node70&#45;&gt;Node77 -->
<g id="edge18" class="edge">
<title>Node70&#45;&gt;Node77</title>
<path fill="none" stroke="#191970" d="M383.3852,-292.8919C394.3041,-294.4883 405.9126,-296.4203 417.1125,-298.5"/>
<polygon fill="#191970" stroke="#191970" points="416.7714,-301.9984 427.2519,-300.4461 418.0909,-295.1239 416.7714,-301.9984"/>
</g>
<!-- Node78 -->
<g id="node14" class="node">
<title>Node78</title>
<g id="a_node14"><a xlink:href="en61107__request_8c.html#a10b80328698f459ae2251fe146cdc375" target="_top" xlink:title="en61107_uart_send_standard\l_data_2">
<polygon fill="#ffffff" stroke="#000000" points="419,-251.5 419,-281.5 536,-281.5 536,-251.5 419,-251.5"/>
<text text-anchor="start" x="427" y="-269.5" font-family="Helvetica,sans-Serif" font-size="10.00" fill="#000000">en61107_uart_send_standard</text>
<text text-anchor="middle" x="477.5" y="-258.5" font-family="Helvetica,sans-Serif" font-size="10.00" fill="#000000">_data_2</text>
</a>
</g>
</g>
<!-- Node70&#45;&gt;Node78 -->
<g id="edge26" class="edge">
<title>Node70&#45;&gt;Node78</title>
<path fill="none" stroke="#191970" d="M383.3852,-275.4784C391.6327,-273.9162 400.2735,-272.4135 408.8346,-271.0481"/>
<polygon fill="#191970" stroke="#191970" points="409.4676,-274.4919 418.8196,-269.5129 408.4038,-267.5732 409.4676,-274.4919"/>
</g>
<!-- Node79 -->
<g id="node15" class="node">
<title>Node79</title>
<g id="a_node15"><a xlink:href="led_8c.html#af6d361c98a60a68683d2436f7ef9159a" target="_top" xlink:title="led_blink">
<polygon fill="#ffffff" stroke="#000000" points="454.5,-50 454.5,-69 500.5,-69 500.5,-50 454.5,-50"/>
<text text-anchor="middle" x="477.5" y="-57" font-family="Helvetica,sans-Serif" font-size="10.00" fill="#000000">led_blink</text>
</a>
</g>
</g>
<!-- Node70&#45;&gt;Node79 -->
<g id="edge34" class="edge">
<title>Node70&#45;&gt;Node79</title>
<path fill="none" stroke="#191970" d="M341.0795,-275.3434C366.8483,-234.5721 437.5934,-122.6398 465.7319,-78.1194"/>
<polygon fill="#191970" stroke="#191970" points="468.819,-79.7859 471.2032,-69.4628 462.9018,-76.046 468.819,-79.7859"/>
</g>
<!-- Node71&#45;&gt;Node66 -->
<g id="edge7" class="edge">
<title>Node71&#45;&gt;Node66</title>
<path fill="none" stroke="#191970" d="M431.7822,-364.5C384.2584,-364.5 309.3059,-364.5 254.5598,-364.5"/>
<polygon fill="#191970" stroke="#191970" points="254.2393,-361.0001 244.2393,-364.5 254.2393,-368.0001 254.2393,-361.0001"/>
</g>
<!-- Node72&#45;&gt;Node67 -->
<g id="edge10" class="edge">
<title>Node72&#45;&gt;Node67</title>
<path fill="none" stroke="#191970" d="M518.1675,-232.5625C524.3417,-235.5005 530.485,-238.8257 536,-242.5 564.0418,-261.1825 591.0517,-289.069 608.3631,-308.6355"/>
<polygon fill="#191970" stroke="#191970" points="605.7407,-310.9536 614.9435,-316.2033 611.023,-306.3605 605.7407,-310.9536"/>
</g>
<!-- Node72&#45;&gt;Node68 -->
<g id="edge14" class="edge">
<title>Node72&#45;&gt;Node68</title>
<path fill="none" stroke="#191970" d="M486.1016,-202.1991C500.3806,-178.5681 531.4657,-134.0846 572,-116.5 617.258,-96.8662 642.3579,-88.5358 683,-116.5 713.3632,-137.3917 742.5777,-247.6801 753.4948,-293.0151"/>
<polygon fill="#191970" stroke="#191970" points="750.1054,-293.8914 755.8125,-302.8178 756.9176,-292.2808 750.1054,-293.8914"/>
</g>
<!-- Node72&#45;&gt;Node69 -->
<g id="edge16" class="edge">
<title>Node72&#45;&gt;Node69</title>
<path fill="none" stroke="#191970" d="M506.1195,-202.4048C549.2291,-181.9896 631.2731,-152.4633 683,-192.5 733.4656,-231.5604 678.6035,-282.0974 719,-331.5 719.9833,-332.7025 721.0613,-333.8346 722.2124,-334.8999"/>
<polygon fill="#191970" stroke="#191970" points="720.4863,-337.971 730.6399,-340.9966 724.5893,-332.2995 720.4863,-337.971"/>
</g>
<!-- Node72&#45;&gt;Node70 -->
<g id="edge11" class="edge">
<title>Node72&#45;&gt;Node70</title>
<path fill="none" stroke="#191970" d="M459.1111,-232.5552C447.4831,-238.5767 432.2092,-245.0735 419,-251.5 406.7085,-257.48 393.683,-264.3328 381.5433,-270.689"/>
<polygon fill="#191970" stroke="#191970" points="379.7051,-267.7004 372.4595,-275.4303 382.9441,-273.906 379.7051,-267.7004"/>
</g>
<!-- Node72&#45;&gt;Node73 -->
<g id="edge12" class="edge">
<title>Node72&#45;&gt;Node73</title>
<path fill="none" stroke="#191970" d="M500.2683,-202.2567C519.0859,-189.971 546.7206,-172.6386 572,-159.5 578.9162,-155.9054 586.4893,-152.377 593.7564,-149.1788"/>
<polygon fill="#191970" stroke="#191970" points="595.5763,-152.2066 603.386,-145.0471 592.8161,-145.7737 595.5763,-152.2066"/>
</g>
<!-- Node72&#45;&gt;Node75 -->
<g id="edge15" class="edge">
<title>Node72&#45;&gt;Node75</title>
<path fill="none" stroke="#191970" d="M527.0313,-215.5187C545.4357,-214.7826 566.162,-213.9535 583.9884,-213.2405"/>
<polygon fill="#191970" stroke="#191970" points="584.2576,-216.7326 594.1097,-212.8356 583.9778,-209.7382 584.2576,-216.7326"/>
</g>
<!-- Node72&#45;&gt;Node76 -->
<g id="edge17" class="edge">
<title>Node72&#45;&gt;Node76</title>
<path fill="none" stroke="#191970" d="M523.8371,-232.5912C528.3354,-235.3776 532.5135,-238.654 536,-242.5 571.6857,-281.8655 534.8821,-318.482 572,-356.5 573.414,-357.9483 574.943,-359.2863 576.5606,-360.5223"/>
<polygon fill="#191970" stroke="#191970" points="574.9162,-363.6202 585.2647,-365.8916 578.5913,-357.6626 574.9162,-363.6202"/>
</g>
<!-- Node74 -->
<g id="node10" class="node">
<title>Node74</title>
<g id="a_node10"><a xlink:href="uart_8c.html#a40bca7ca9b269f93bc9f17924a38fbe0" target="_top" xlink:title="uart_tx_one_char">
<polygon fill="#ffffff" stroke="#000000" points="720.5,-126 720.5,-145 795.5,-145 795.5,-126 720.5,-126"/>
<text text-anchor="middle" x="758" y="-133" font-family="Helvetica,sans-Serif" font-size="10.00" fill="#000000">uart_tx_one_char</text>
</a>
</g>
</g>
<!-- Node73&#45;&gt;Node74 -->
<g id="edge13" class="edge">
<title>Node73&#45;&gt;Node74</title>
<path fill="none" stroke="#191970" d="M661.107,-135.5C675.975,-135.5 693.7351,-135.5 709.9649,-135.5"/>
<polygon fill="#191970" stroke="#191970" points="710.3635,-139.0001 720.3634,-135.5 710.3634,-132.0001 710.3635,-139.0001"/>
</g>
<!-- Node77&#45;&gt;Node67 -->
<g id="edge19" class="edge">
<title>Node77&#45;&gt;Node67</title>
<path fill="none" stroke="#191970" d="M536.3535,-321.7777C544.6394,-322.6615 553.2013,-323.5748 561.6083,-324.4716"/>
<polygon fill="#191970" stroke="#191970" points="561.4423,-327.9736 571.7571,-325.5541 562.1848,-321.0131 561.4423,-327.9736"/>
</g>
<!-- Node77&#45;&gt;Node68 -->
<g id="edge22" class="edge">
<title>Node77&#45;&gt;Node68</title>
<path fill="none" stroke="#191970" d="M520.7211,-330.5124C526.1579,-333.3723 531.4128,-336.6883 536,-340.5 558.1849,-358.9344 546.5686,-380.8895 572,-394.5 615.4959,-417.7783 640.3311,-419.2617 683,-394.5 710.8925,-378.3133 695.4586,-353.541 719,-331.5 720.4845,-330.1102 722.0896,-328.8021 723.7735,-327.5741"/>
<polygon fill="#191970" stroke="#191970" points="725.9832,-330.3233 732.6545,-322.0927 722.3066,-324.3665 725.9832,-330.3233"/>
</g>
<!-- Node77&#45;&gt;Node69 -->
<g id="edge24" class="edge">
<title>Node77&#45;&gt;Node69</title>
<path fill="none" stroke="#191970" d="M522.4654,-330.554C527.3796,-333.3679 532.0303,-336.661 536,-340.5 563.1563,-366.7621 540.1283,-397.218 572,-417.5 613.6206,-443.9859 636.9088,-435.0892 683,-417.5 708.6002,-407.7305 730.9987,-384.7596 744.5002,-368.4447"/>
<polygon fill="#191970" stroke="#191970" points="747.5749,-370.2006 751.0494,-360.1917 742.0916,-365.8492 747.5749,-370.2006"/>
</g>
<!-- Node77&#45;&gt;Node70 -->
<g id="edge20" class="edge">
<title>Node77&#45;&gt;Node70</title>
<path fill="none" stroke="#191970" d="M418.8705,-312.0931C409.9343,-310.7109 400.699,-309.1379 391.7292,-307.4706"/>
<polygon fill="#191970" stroke="#191970" points="392.2256,-304.002 381.7449,-305.5532 390.9054,-310.8764 392.2256,-304.002"/>
</g>
<!-- Node77&#45;&gt;Node73 -->
<g id="edge21" class="edge">
<title>Node77&#45;&gt;Node73</title>
<path fill="none" stroke="#191970" d="M524.8128,-300.3751C528.9089,-297.843 532.7305,-294.9048 536,-291.5 568.428,-257.7298 547.1139,-232.1571 572,-192.5 581.6634,-177.101 596.0617,-162.4686 607.7714,-151.8853"/>
<polygon fill="#191970" stroke="#191970" points="610.1376,-154.4655 615.3572,-145.2457 605.5272,-149.1982 610.1376,-154.4655"/>
</g>
<!-- Node77&#45;&gt;Node75 -->
<g id="edge23" class="edge">
<title>Node77&#45;&gt;Node75</title>
<path fill="none" stroke="#191970" d="M519.2532,-300.3637C525.0313,-297.7009 530.7716,-294.7335 536,-291.5 565.2578,-273.4054 594.3598,-245.9122 611.6384,-228.3299"/>
<polygon fill="#191970" stroke="#191970" points="614.2716,-230.6417 618.7034,-221.0183 609.2376,-225.7775 614.2716,-230.6417"/>
</g>
<!-- Node77&#45;&gt;Node76 -->
<g id="edge25" class="edge">
<title>Node77&#45;&gt;Node76</title>
<path fill="none" stroke="#191970" d="M513.1117,-330.6221C520.6761,-333.8613 528.6089,-337.2784 536,-340.5 552.0507,-347.496 555.7015,-350.1027 572,-356.5 577.2142,-358.5466 582.7496,-360.5908 588.2276,-362.5392"/>
<polygon fill="#191970" stroke="#191970" points="587.3494,-365.9394 597.9443,-365.9225 589.6513,-359.3287 587.3494,-365.9394"/>
</g>
<!-- Node78&#45;&gt;Node67 -->
<g id="edge27" class="edge">
<title>Node78&#45;&gt;Node67</title>
<path fill="none" stroke="#191970" d="M512.786,-281.5238C520.4446,-284.8002 528.4977,-288.2572 536,-291.5 551.6827,-298.2788 568.8503,-305.766 584.0357,-312.4118"/>
<polygon fill="#191970" stroke="#191970" points="582.6394,-315.6212 593.2035,-316.4271 585.4477,-309.2092 582.6394,-315.6212"/>
</g>
<!-- Node78&#45;&gt;Node68 -->
<g id="edge30" class="edge">
<title>Node78&#45;&gt;Node68</title>
<path fill="none" stroke="#191970" d="M536.0684,-261.691C577.7341,-259.9037 634.6618,-260.8073 683,-273.5 701.7472,-278.4227 721.1125,-288.6461 735.4685,-297.3907"/>
<polygon fill="#191970" stroke="#191970" points="733.7977,-300.475 744.1222,-302.8531 737.5342,-294.5556 733.7977,-300.475"/>
</g>
<!-- Node78&#45;&gt;Node69 -->
<g id="edge32" class="edge">
<title>Node78&#45;&gt;Node69</title>
<path fill="none" stroke="#191970" d="M536.406,-272.0683C578.485,-277.5099 635.772,-287.9505 683,-307.5 700.7676,-314.8547 702.3186,-321.934 719,-331.5 721.8748,-333.1485 724.9134,-334.7917 727.9747,-336.3826"/>
<polygon fill="#191970" stroke="#191970" points="726.5774,-339.5972 737.0853,-340.9516 729.7155,-333.34 726.5774,-339.5972"/>
</g>
<!-- Node78&#45;&gt;Node70 -->
<g id="edge28" class="edge">
<title>Node78&#45;&gt;Node70</title>
<path fill="none" stroke="#191970" d="M425.2899,-281.583C414.9666,-283.5341 404.038,-285.3905 393.4288,-287.0004"/>
<polygon fill="#191970" stroke="#191970" points="392.7763,-283.5585 383.3852,-288.4634 393.7853,-290.4854 392.7763,-283.5585"/>
</g>
<!-- Node78&#45;&gt;Node73 -->
<g id="edge29" class="edge">
<title>Node78&#45;&gt;Node73</title>
<path fill="none" stroke="#191970" d="M521.8065,-251.4939C526.8337,-248.8875 531.6911,-245.9001 536,-242.5 557.4966,-225.5376 554.4004,-213.4781 572,-192.5 583.858,-178.3657 598.4519,-163.4626 609.6981,-152.4412"/>
<polygon fill="#191970" stroke="#191970" points="612.4593,-154.6394 617.2084,-145.1686 607.5898,-149.6108 612.4593,-154.6394"/>
</g>
<!-- Node78&#45;&gt;Node75 -->
<g id="edge31" class="edge">
<title>Node78&#45;&gt;Node75</title>
<path fill="none" stroke="#191970" d="M518.4882,-251.471C541.3557,-243.0862 569.5752,-232.7391 591.5728,-224.6733"/>
<polygon fill="#191970" stroke="#191970" points="593.0165,-227.8719 601.2003,-221.1432 590.6067,-221.2997 593.0165,-227.8719"/>
</g>
<!-- Node78&#45;&gt;Node76 -->
<g id="edge33" class="edge">
<title>Node78&#45;&gt;Node76</title>
<path fill="none" stroke="#191970" d="M521.9171,-281.6567C526.9825,-284.462 531.8192,-287.7251 536,-291.5 560.5106,-313.6314 546.6873,-335.2907 572,-356.5 574.015,-358.1884 576.1879,-359.7294 578.4664,-361.1357"/>
<polygon fill="#191970" stroke="#191970" points="577.1801,-364.4116 587.6673,-365.9183 580.4086,-358.2006 577.1801,-364.4116"/>
</g>
<!-- Node80 -->
<g id="node16" class="node">
<title>Node80</title>
<g id="a_node16"><a xlink:href="led_8c.html#a0a23edee5e1db0cd2928c18a42ffe96f" target="_top" xlink:title="led_on">
<polygon fill="#ffffff" stroke="#000000" points="738.5,-49 738.5,-68 777.5,-68 777.5,-49 738.5,-49"/>
<text text-anchor="middle" x="758" y="-56" font-family="Helvetica,sans-Serif" font-size="10.00" fill="#000000">led_on</text>
</a>
</g>
</g>
<!-- Node79&#45;&gt;Node80 -->
<g id="edge35" class="edge">
<title>Node79&#45;&gt;Node80</title>
<path fill="none" stroke="#191970" d="M500.9328,-59.4165C551.7728,-59.2352 672.1305,-58.8061 728.2415,-58.6061"/>
<polygon fill="#191970" stroke="#191970" points="728.2666,-62.1061 738.254,-58.5704 728.2415,-55.1062 728.2666,-62.1061"/>
</g>
<!-- Node82 -->
<g id="node18" class="node">
<title>Node82</title>
<g id="a_node18"><a xlink:href="led_8c.html#af6e74a041f4ed0ac79f31a03c99733de" target="_top" xlink:title="led_single_blink_off\l_timer_func">
<polygon fill="#ffffff" stroke="#000000" points="586.5,-.5 586.5,-30.5 668.5,-30.5 668.5,-.5 586.5,-.5"/>
<text text-anchor="start" x="594.5" y="-18.5" font-family="Helvetica,sans-Serif" font-size="10.00" fill="#000000">led_single_blink_off</text>
<text text-anchor="middle" x="627.5" y="-7.5" font-family="Helvetica,sans-Serif" font-size="10.00" fill="#000000">_timer_func</text>
</a>
</g>
</g>
<!-- Node79&#45;&gt;Node82 -->
<g id="edge37" class="edge">
<title>Node79&#45;&gt;Node82</title>
<path fill="none" stroke="#191970" d="M500.6088,-52.7214C520.7939,-46.8004 550.815,-37.9943 576.5894,-30.4338"/>
<polygon fill="#191970" stroke="#191970" points="577.6199,-33.779 586.2304,-27.6057 575.6496,-27.0621 577.6199,-33.779"/>
</g>
<!-- Node81 -->
<g id="node17" class="node">
<title>Node81</title>
<g id="a_node17"><a xlink:href="gpio_8h.html#a83bac74ff5b2158e0c86da73ada29718" target="_top" xlink:title="gpio_output_set">
<polygon fill="#ffffff" stroke="#000000" points="833,-27 833,-46 903,-46 903,-27 833,-27"/>
<text text-anchor="middle" x="868" y="-34" font-family="Helvetica,sans-Serif" font-size="10.00" fill="#000000">gpio_output_set</text>
</a>
</g>
</g>
<!-- Node80&#45;&gt;Node81 -->
<g id="edge36" class="edge">
<title>Node80&#45;&gt;Node81</title>
<path fill="none" stroke="#191970" d="M777.6658,-54.5668C790.2376,-52.0525 807.0806,-48.6839 822.8159,-45.5368"/>
<polygon fill="#191970" stroke="#191970" points="823.8208,-48.9052 832.9402,-43.512 822.4479,-42.0412 823.8208,-48.9052"/>
</g>
<!-- Node83 -->
<g id="node19" class="node">
<title>Node83</title>
<g id="a_node19"><a xlink:href="led_8c.html#a7ef0b27e501c77cd25b8bb7a2de6d8bd" target="_top" xlink:title="led_off">
<polygon fill="#ffffff" stroke="#000000" points="738.5,-8 738.5,-27 777.5,-27 777.5,-8 738.5,-8"/>
<text text-anchor="middle" x="758" y="-15" font-family="Helvetica,sans-Serif" font-size="10.00" fill="#000000">led_off</text>
</a>
</g>
</g>
<!-- Node82&#45;&gt;Node83 -->
<g id="edge38" class="edge">
<title>Node82&#45;&gt;Node83</title>
<path fill="none" stroke="#191970" d="M668.791,-16.1328C688.0846,-16.4285 710.6236,-16.7739 728.2191,-17.0436"/>
<polygon fill="#191970" stroke="#191970" points="728.4103,-20.5468 738.4628,-17.2006 728.5177,-13.5477 728.4103,-20.5468"/>
</g>
<!-- Node83&#45;&gt;Node81 -->
<g id="edge39" class="edge">
<title>Node83&#45;&gt;Node81</title>
<path fill="none" stroke="#191970" d="M777.6658,-20.8968C790.2376,-23.0683 807.0806,-25.9776 822.8159,-28.6955"/>
<polygon fill="#191970" stroke="#191970" points="822.4903,-32.191 832.9402,-30.4442 823.6818,-25.2931 822.4903,-32.191"/>
</g>
</g>
</svg>
