<?xml version="1.0" encoding="UTF-8" standalone="no"?>
<!DOCTYPE svg PUBLIC "-//W3C//DTD SVG 1.1//EN"
 "http://www.w3.org/Graphics/SVG/1.1/DTD/svg11.dtd">
<!-- Generated by graphviz version 2.40.1 (20161225.0304)
 -->
<!-- Title: en61107_uart_send_en61107_ident Pages: 1 -->
<svg width="784pt" height="509pt"
 viewBox="0.00 0.00 784.00 508.60" xmlns="http://www.w3.org/2000/svg" xmlns:xlink="http://www.w3.org/1999/xlink">
<g id="graph0" class="graph" transform="scale(1 1) rotate(0) translate(4 504.604)">
<title>en61107_uart_send_en61107_ident</title>
<polygon fill="#ffffff" stroke="transparent" points="-4,4 -4,-504.604 780,-504.604 780,4 -4,4"/>
<!-- Node355 -->
<g id="node1" class="node">
<title>Node355</title>
<polygon fill="#bfbfbf" stroke="#000000" points="0,-283.5 0,-313.5 117,-313.5 117,-283.5 0,-283.5"/>
<text text-anchor="start" x="8" y="-301.5" font-family="Helvetica,sans-Serif" font-size="10.00" fill="#000000">en61107_uart_send_en61107</text>
<text text-anchor="middle" x="58.5" y="-290.5" font-family="Helvetica,sans-Serif" font-size="10.00" fill="#000000">_ident</text>
</g>
<!-- Node356 -->
<g id="node2" class="node">
<title>Node356</title>
<g id="a_node2"><a xlink:href="en61107__request_8c.html#a8376fb3e6dfde4cc59e5fa0574a6e499" target="_top" xlink:title="en61107_delayed_uart\l_change_setting_timer_func">
<polygon fill="#ffffff" stroke="#000000" points="445,-354.5 445,-384.5 556,-384.5 556,-354.5 445,-354.5"/>
<text text-anchor="start" x="453" y="-372.5" font-family="Helvetica,sans-Serif" font-size="10.00" fill="#000000">en61107_delayed_uart</text>
<text text-anchor="middle" x="500.5" y="-361.5" font-family="Helvetica,sans-Serif" font-size="10.00" fill="#000000">_change_setting_timer_func</text>
</a>
</g>
</g>
<!-- Node355&#45;&gt;Node356 -->
<g id="edge1" class="edge">
<title>Node355&#45;&gt;Node356</title>
<path fill="none" stroke="#191970" d="M77.9318,-313.7066C116.2009,-342.4678 205.1749,-403.5607 292,-421.5 342.9244,-432.0217 359.6685,-437.9438 409,-421.5 427.9737,-415.1754 427.778,-404.6687 445,-394.5 448.1907,-392.6161 451.5485,-390.7792 454.9677,-389.0119"/>
<polygon fill="#191970" stroke="#191970" points="456.6703,-392.0748 464.0898,-384.5116 453.5732,-385.7972 456.6703,-392.0748"/>
</g>
<!-- Node357 -->
<g id="node3" class="node">
<title>Node357</title>
<g id="a_node3"><a xlink:href="uart_8c.html#a8f941077d51144c4c172f827b4f2072a" target="_top" xlink:title="uart_set_baudrate">
<polygon fill="#ffffff" stroke="#000000" points="592.5,-278 592.5,-297 669.5,-297 669.5,-278 592.5,-278"/>
<text text-anchor="middle" x="631" y="-285" font-family="Helvetica,sans-Serif" font-size="10.00" fill="#000000">uart_set_baudrate</text>
</a>
</g>
</g>
<!-- Node355&#45;&gt;Node357 -->
<g id="edge40" class="edge">
<title>Node355&#45;&gt;Node357</title>
<path fill="none" stroke="#191970" d="M68.704,-283.1727C84.1905,-261.2018 115.7955,-221.1352 153,-200.5 269.0203,-136.1503 313.0543,-152.3535 445,-138.5 494.0636,-133.3486 515.2529,-110.6889 556,-138.5 592.2659,-163.2525 571.4708,-191.6869 592,-230.5 599.2705,-244.2458 609.1834,-258.6928 617.1956,-269.6029"/>
<polygon fill="#191970" stroke="#191970" points="614.5773,-271.945 623.3791,-277.8424 620.1761,-267.7434 614.5773,-271.945"/>
</g>
<!-- Node358 -->
<g id="node4" class="node">
<title>Node358</title>
<g id="a_node4"><a xlink:href="uart_8c.html#a4db93f371dcd92498db4a4c7b82f3380" target="_top" xlink:title="uart_set_stop_bits">
<polygon fill="#ffffff" stroke="#000000" points="592,-360 592,-379 670,-379 670,-360 592,-360"/>
<text text-anchor="middle" x="631" y="-367" font-family="Helvetica,sans-Serif" font-size="10.00" fill="#000000">uart_set_stop_bits</text>
</a>
</g>
</g>
<!-- Node355&#45;&gt;Node358 -->
<g id="edge42" class="edge">
<title>Node355&#45;&gt;Node358</title>
<path fill="none" stroke="#191970" d="M64.0751,-313.6066C75.6942,-342.8015 105.441,-406.7932 153,-437.5 263.6777,-508.9598 313.7497,-477.1242 445,-488.5 494.1491,-492.7599 512.806,-512.3339 556,-488.5 594.5069,-467.2524 615.9527,-417.0067 625.2851,-389.0782"/>
<polygon fill="#191970" stroke="#191970" points="628.7127,-389.8453 628.3727,-379.256 622.0349,-387.7461 628.7127,-389.8453"/>
</g>
<!-- Node359 -->
<g id="node5" class="node">
<title>Node359</title>
<g id="a_node5"><a xlink:href="en61107__request_8c.html#a22f1fee248eec0eeacf220c69b878a28" target="_top" xlink:title="en61107_receive_timeout\l_timer_func">
<polygon fill="#ffffff" stroke="#000000" points="153,-283.5 153,-313.5 256,-313.5 256,-283.5 153,-283.5"/>
<text text-anchor="start" x="161" y="-301.5" font-family="Helvetica,sans-Serif" font-size="10.00" fill="#000000">en61107_receive_timeout</text>
<text text-anchor="middle" x="204.5" y="-290.5" font-family="Helvetica,sans-Serif" font-size="10.00" fill="#000000">_timer_func</text>
</a>
</g>
</g>
<!-- Node355&#45;&gt;Node359 -->
<g id="edge4" class="edge">
<title>Node355&#45;&gt;Node359</title>
<path fill="none" stroke="#191970" d="M117.0425,-291.8691C125.3898,-291.7299 133.9998,-291.7127 142.412,-291.8175"/>
<polygon fill="#191970" stroke="#191970" points="142.4807,-295.3193 152.5441,-292.0057 142.6108,-288.3205 142.4807,-295.3193"/>
</g>
<!-- Node362 -->
<g id="node8" class="node">
<title>Node362</title>
<g id="a_node8"><a xlink:href="uart_8c.html#a6727906afe0321e8ee406028ad41f5e7" target="_top" xlink:title="uart_set_word_length">
<polygon fill="#ffffff" stroke="#000000" points="456,-404 456,-423 545,-423 545,-404 456,-404"/>
<text text-anchor="middle" x="500.5" y="-411" font-family="Helvetica,sans-Serif" font-size="10.00" fill="#000000">uart_set_word_length</text>
</a>
</g>
</g>
<!-- Node355&#45;&gt;Node362 -->
<g id="edge43" class="edge">
<title>Node355&#45;&gt;Node362</title>
<path fill="none" stroke="#191970" d="M68.1904,-313.5474C83.4811,-336.0728 115.3687,-378.3775 153,-401.5 251.0587,-461.7521 295.0919,-456.9554 409,-440.5 428.005,-437.7545 448.5627,-431.958 465.3688,-426.4372"/>
<polygon fill="#191970" stroke="#191970" points="466.957,-429.5943 475.3008,-423.065 464.7064,-422.9659 466.957,-429.5943"/>
</g>
<!-- Node363 -->
<g id="node9" class="node">
<title>Node363</title>
<g id="a_node9"><a xlink:href="uart_8c.html#a67bf1971cc8eb81c79700658c287c7a4" target="_top" xlink:title="uart_set_parity">
<polygon fill="#ffffff" stroke="#000000" points="467.5,-240 467.5,-259 533.5,-259 533.5,-240 467.5,-240"/>
<text text-anchor="middle" x="500.5" y="-247" font-family="Helvetica,sans-Serif" font-size="10.00" fill="#000000">uart_set_parity</text>
</a>
</g>
</g>
<!-- Node355&#45;&gt;Node363 -->
<g id="edge41" class="edge">
<title>Node355&#45;&gt;Node363</title>
<path fill="none" stroke="#191970" d="M94.4902,-283.4834C139.6704,-265.5195 219.993,-236.4935 292,-225.5 343.4044,-217.6519 357.4271,-218.8488 409,-225.5 426.6698,-227.7788 445.7953,-232.4361 461.9696,-237.0469"/>
<polygon fill="#191970" stroke="#191970" points="461.0381,-240.4211 471.6196,-239.89 463.0164,-233.7065 461.0381,-240.4211"/>
</g>
<!-- Node364 -->
<g id="node10" class="node">
<title>Node364</title>
<g id="a_node10"><a xlink:href="uart_8c.html#a87f1c1c2a25d4336eb804da28ed99f7e" target="_top" xlink:title="uart0_tx_buffer">
<polygon fill="#ffffff" stroke="#000000" points="467,-202 467,-221 534,-221 534,-202 467,-202"/>
<text text-anchor="middle" x="500.5" y="-209" font-family="Helvetica,sans-Serif" font-size="10.00" fill="#000000">uart0_tx_buffer</text>
</a>
</g>
</g>
<!-- Node355&#45;&gt;Node364 -->
<g id="edge39" class="edge">
<title>Node355&#45;&gt;Node364</title>
<path fill="none" stroke="#191970" d="M73.2765,-283.4188C90.6428,-266.76 121.1546,-240.6835 153,-228.5 255.8151,-189.1648 388.3597,-197.2202 456.1952,-205.1261"/>
<polygon fill="#191970" stroke="#191970" points="456.1616,-208.6479 466.5123,-206.3863 457.0105,-201.6995 456.1616,-208.6479"/>
</g>
<!-- Node356&#45;&gt;Node357 -->
<g id="edge2" class="edge">
<title>Node356&#45;&gt;Node357</title>
<path fill="none" stroke="#191970" d="M524.4357,-354.4599C547.9511,-339.684 583.628,-317.2663 607.123,-302.5031"/>
<polygon fill="#191970" stroke="#191970" points="609.1735,-305.3484 615.7786,-297.0644 605.4492,-299.4213 609.1735,-305.3484"/>
</g>
<!-- Node356&#45;&gt;Node358 -->
<g id="edge3" class="edge">
<title>Node356&#45;&gt;Node358</title>
<path fill="none" stroke="#191970" d="M556.2223,-369.5C564.6004,-369.5 573.1927,-369.5 581.4305,-369.5"/>
<polygon fill="#191970" stroke="#191970" points="581.6328,-373.0001 591.6328,-369.5 581.6327,-366.0001 581.6328,-373.0001"/>
</g>
<!-- Node359&#45;&gt;Node355 -->
<g id="edge7" class="edge">
<title>Node359&#45;&gt;Node355</title>
<path fill="none" stroke="#191970" d="M152.5441,-304.9943C144.279,-305.2004 135.6203,-305.2819 127.044,-305.2388"/>
<polygon fill="#191970" stroke="#191970" points="127.0797,-301.7391 117.0425,-305.1309 127.0042,-308.7387 127.0797,-301.7391"/>
</g>
<!-- Node360 -->
<g id="node6" class="node">
<title>Node360</title>
<g id="a_node6"><a xlink:href="en61107__request_8c.html#a2fa4e9967afddae0c1dedbc914dcee36" target="_top" xlink:title="en61107_meter_wake\l_up_timer_func">
<polygon fill="#ffffff" stroke="#000000" points="305,-381.5 305,-411.5 396,-411.5 396,-381.5 305,-381.5"/>
<text text-anchor="start" x="313" y="-399.5" font-family="Helvetica,sans-Serif" font-size="10.00" fill="#000000">en61107_meter_wake</text>
<text text-anchor="middle" x="350.5" y="-388.5" font-family="Helvetica,sans-Serif" font-size="10.00" fill="#000000">_up_timer_func</text>
</a>
</g>
</g>
<!-- Node359&#45;&gt;Node360 -->
<g id="edge5" class="edge">
<title>Node359&#45;&gt;Node360</title>
<path fill="none" stroke="#191970" d="M219.4736,-313.7414C236.044,-329.9595 264.11,-355.5667 292,-372.5 294.5908,-374.073 297.3031,-375.5858 300.0807,-377.0332"/>
<polygon fill="#191970" stroke="#191970" points="298.5819,-380.1962 309.1051,-381.4265 301.6459,-373.9024 298.5819,-380.1962"/>
</g>
<!-- Node361 -->
<g id="node7" class="node">
<title>Node361</title>
<g id="a_node7"><a xlink:href="en61107__request_8c.html#a74c2d949e6bb3b65cdf794a0643dd67d" target="_top" xlink:title="en61107_uart_send_inst\l_values">
<polygon fill="#ffffff" stroke="#000000" points="301,-234.5 301,-264.5 400,-264.5 400,-234.5 301,-234.5"/>
<text text-anchor="start" x="309" y="-252.5" font-family="Helvetica,sans-Serif" font-size="10.00" fill="#000000">en61107_uart_send_inst</text>
<text text-anchor="middle" x="350.5" y="-241.5" font-family="Helvetica,sans-Serif" font-size="10.00" fill="#000000">_values</text>
</a>
</g>
</g>
<!-- Node359&#45;&gt;Node361 -->
<g id="edge8" class="edge">
<title>Node359&#45;&gt;Node361</title>
<path fill="none" stroke="#191970" d="M232.9969,-283.455C249.5421,-276.8129 271.0195,-269.2167 291.0789,-262.7976"/>
<polygon fill="#191970" stroke="#191970" points="292.2922,-266.0852 300.7845,-259.7503 290.1953,-259.4066 292.2922,-266.0852"/>
</g>
<!-- Node366 -->
<g id="node12" class="node">
<title>Node366</title>
<g id="a_node12"><a xlink:href="en61107__request_8c.html#afdb1795bdd4212fc7e028a9e5668fab4" target="_top" xlink:title="en61107_uart_send_standard\l_data_1">
<polygon fill="#ffffff" stroke="#000000" points="292,-332.5 292,-362.5 409,-362.5 409,-332.5 292,-332.5"/>
<text text-anchor="start" x="300" y="-350.5" font-family="Helvetica,sans-Serif" font-size="10.00" fill="#000000">en61107_uart_send_standard</text>
<text text-anchor="middle" x="350.5" y="-339.5" font-family="Helvetica,sans-Serif" font-size="10.00" fill="#000000">_data_1</text>
</a>
</g>
</g>
<!-- Node359&#45;&gt;Node366 -->
<g id="edge17" class="edge">
<title>Node359&#45;&gt;Node366</title>
<path fill="none" stroke="#191970" d="M256.3852,-309.421C274.7473,-315.124 295.0595,-322.0969 312.0996,-328.5871"/>
<polygon fill="#191970" stroke="#191970" points="311.1268,-331.9645 321.715,-332.3394 313.6717,-325.4434 311.1268,-331.9645"/>
</g>
<!-- Node367 -->
<g id="node13" class="node">
<title>Node367</title>
<g id="a_node13"><a xlink:href="en61107__request_8c.html#a10b80328698f459ae2251fe146cdc375" target="_top" xlink:title="en61107_uart_send_standard\l_data_2">
<polygon fill="#ffffff" stroke="#000000" points="292,-283.5 292,-313.5 409,-313.5 409,-283.5 292,-283.5"/>
<text text-anchor="start" x="300" y="-301.5" font-family="Helvetica,sans-Serif" font-size="10.00" fill="#000000">en61107_uart_send_standard</text>
<text text-anchor="middle" x="350.5" y="-290.5" font-family="Helvetica,sans-Serif" font-size="10.00" fill="#000000">_data_2</text>
</a>
</g>
</g>
<!-- Node359&#45;&gt;Node367 -->
<g id="edge25" class="edge">
<title>Node359&#45;&gt;Node367</title>
<path fill="none" stroke="#191970" d="M256.3852,-292.0075C264.543,-291.8033 273.0857,-291.7205 281.5554,-291.7593"/>
<polygon fill="#191970" stroke="#191970" points="281.7834,-295.2618 291.8196,-291.8668 281.8568,-288.2621 281.7834,-295.2618"/>
</g>
<!-- Node368 -->
<g id="node14" class="node">
<title>Node368</title>
<g id="a_node14"><a xlink:href="led_8c.html#af6d361c98a60a68683d2436f7ef9159a" target="_top" xlink:title="led_blink">
<polygon fill="#ffffff" stroke="#000000" points="327.5,-50 327.5,-69 373.5,-69 373.5,-50 327.5,-50"/>
<text text-anchor="middle" x="350.5" y="-57" font-family="Helvetica,sans-Serif" font-size="10.00" fill="#000000">led_blink</text>
</a>
</g>
</g>
<!-- Node359&#45;&gt;Node368 -->
<g id="edge33" class="edge">
<title>Node359&#45;&gt;Node368</title>
<path fill="none" stroke="#191970" d="M213.8551,-283.1859C239.5957,-241.0489 311.4052,-123.4977 339.2581,-77.9028"/>
<polygon fill="#191970" stroke="#191970" points="342.4174,-79.4449 344.6437,-69.0866 336.4438,-75.7958 342.4174,-79.4449"/>
</g>
<!-- Node360&#45;&gt;Node355 -->
<g id="edge6" class="edge">
<title>Node360&#45;&gt;Node355</title>
<path fill="none" stroke="#191970" d="M305.4638,-381.3851C253.6777,-364.0049 168.6833,-335.4793 113.1549,-316.8431"/>
<polygon fill="#191970" stroke="#191970" points="114.079,-313.4614 103.4851,-313.5977 111.8518,-320.0977 114.079,-313.4614"/>
</g>
<!-- Node361&#45;&gt;Node356 -->
<g id="edge16" class="edge">
<title>Node361&#45;&gt;Node356</title>
<path fill="none" stroke="#191970" d="M391.5821,-264.5534C397.6381,-267.476 403.6366,-270.799 409,-274.5 438.1546,-294.6179 465.484,-325.1094 482.5493,-346.0926"/>
<polygon fill="#191970" stroke="#191970" points="480.0233,-348.5387 488.9963,-354.1723 485.4949,-344.1727 480.0233,-348.5387"/>
</g>
<!-- Node361&#45;&gt;Node357 -->
<g id="edge9" class="edge">
<title>Node361&#45;&gt;Node357</title>
<path fill="none" stroke="#191970" d="M360.5295,-234.4179C375.7986,-212.9874 407.1356,-174.6458 445,-159.5 490.8049,-141.1781 513.9619,-133.6819 556,-159.5 586.1483,-178.0158 573.9722,-200.0574 592,-230.5 599.9235,-243.88 609.8278,-258.3318 617.6726,-269.3357"/>
<polygon fill="#191970" stroke="#191970" points="614.9976,-271.61 623.6891,-277.6688 620.673,-267.5124 614.9976,-271.61"/>
</g>
<!-- Node361&#45;&gt;Node358 -->
<g id="edge12" class="edge">
<title>Node361&#45;&gt;Node358</title>
<path fill="none" stroke="#191970" d="M369.7253,-234.2851C408.559,-205.5185 497.6183,-149.7128 556,-192.5 598.8558,-223.9085 569.8459,-258.206 592,-306.5 599.266,-322.3391 609.763,-339.0566 618.0369,-351.2874"/>
<polygon fill="#191970" stroke="#191970" points="615.2728,-353.444 623.8402,-359.6769 621.0297,-349.4617 615.2728,-353.444"/>
</g>
<!-- Node361&#45;&gt;Node359 -->
<g id="edge13" class="edge">
<title>Node361&#45;&gt;Node359</title>
<path fill="none" stroke="#191970" d="M321.715,-264.6606C305.797,-271.0395 285.3788,-278.2841 266.0574,-284.5161"/>
<polygon fill="#191970" stroke="#191970" points="264.862,-281.2233 256.3852,-287.579 266.9753,-287.8966 264.862,-281.2233"/>
</g>
<!-- Node361&#45;&gt;Node362 -->
<g id="edge10" class="edge">
<title>Node361&#45;&gt;Node362</title>
<path fill="none" stroke="#191970" d="M396.8928,-264.5411C401.3808,-267.3367 405.5414,-270.629 409,-274.5 446.099,-316.0223 406.3899,-354.3789 445,-394.5 446.4036,-395.9585 447.9237,-397.305 449.5339,-398.5482"/>
<polygon fill="#191970" stroke="#191970" points="447.8713,-401.6359 458.212,-403.9427 451.5669,-395.6908 447.8713,-401.6359"/>
</g>
<!-- Node361&#45;&gt;Node363 -->
<g id="edge11" class="edge">
<title>Node361&#45;&gt;Node363</title>
<path fill="none" stroke="#191970" d="M400.0313,-249.5C418.4357,-249.5 439.162,-249.5 456.9884,-249.5"/>
<polygon fill="#191970" stroke="#191970" points="457.1098,-253.0001 467.1097,-249.5 457.1097,-246.0001 457.1098,-253.0001"/>
</g>
<!-- Node361&#45;&gt;Node364 -->
<g id="edge14" class="edge">
<title>Node361&#45;&gt;Node364</title>
<path fill="none" stroke="#191970" d="M400.0313,-236.9521C418.2931,-232.3258 438.8408,-227.1203 456.5733,-222.6281"/>
<polygon fill="#191970" stroke="#191970" points="457.8158,-225.924 466.65,-220.0753 456.0967,-219.1383 457.8158,-225.924"/>
</g>
<!-- Node365 -->
<g id="node11" class="node">
<title>Node365</title>
<g id="a_node11"><a xlink:href="uart_8c.html#a40bca7ca9b269f93bc9f17924a38fbe0" target="_top" xlink:title="uart_tx_one_char">
<polygon fill="#ffffff" stroke="#000000" points="593.5,-202 593.5,-221 668.5,-221 668.5,-202 593.5,-202"/>
<text text-anchor="middle" x="631" y="-209" font-family="Helvetica,sans-Serif" font-size="10.00" fill="#000000">uart_tx_one_char</text>
</a>
</g>
</g>
<!-- Node364&#45;&gt;Node365 -->
<g id="edge15" class="edge">
<title>Node364&#45;&gt;Node365</title>
<path fill="none" stroke="#191970" d="M534.107,-211.5C548.975,-211.5 566.7351,-211.5 582.9649,-211.5"/>
<polygon fill="#191970" stroke="#191970" points="583.3635,-215.0001 593.3634,-211.5 583.3634,-208.0001 583.3635,-215.0001"/>
</g>
<!-- Node366&#45;&gt;Node356 -->
<g id="edge24" class="edge">
<title>Node366&#45;&gt;Node356</title>
<path fill="none" stroke="#191970" d="M409.3535,-356.1318C417.6394,-357.3471 426.2013,-358.6029 434.6083,-359.8359"/>
<polygon fill="#191970" stroke="#191970" points="434.3551,-363.3361 444.7571,-361.3244 435.3709,-356.4102 434.3551,-363.3361"/>
</g>
<!-- Node366&#45;&gt;Node357 -->
<g id="edge18" class="edge">
<title>Node366&#45;&gt;Node357</title>
<path fill="none" stroke="#191970" d="M394.4931,-362.6339C399.6874,-365.4528 404.6713,-368.7254 409,-372.5 432.439,-392.9384 417.9382,-417.1779 445,-432.5 487.9299,-456.8065 514.6954,-459.4761 556,-432.5 589.3244,-410.7357 573.4793,-385.7304 592,-350.5 600.2042,-334.8939 610.8028,-317.9396 618.8802,-305.5544"/>
<polygon fill="#191970" stroke="#191970" points="621.8921,-307.3448 624.4841,-297.0719 616.0516,-303.4863 621.8921,-307.3448"/>
</g>
<!-- Node366&#45;&gt;Node358 -->
<g id="edge21" class="edge">
<title>Node366&#45;&gt;Node358</title>
<path fill="none" stroke="#191970" d="M396.3063,-362.6416C400.9577,-365.4252 405.3165,-368.6871 409,-372.5 439.7947,-404.3768 408.4377,-440.4471 445,-465.5 485.6962,-493.3855 511.6597,-487.1268 556,-465.5 588.7866,-449.5084 611.4382,-411.4887 622.7289,-388.382"/>
<polygon fill="#191970" stroke="#191970" points="625.9451,-389.7664 626.9911,-379.2233 619.5986,-386.813 625.9451,-389.7664"/>
</g>
<!-- Node366&#45;&gt;Node359 -->
<g id="edge22" class="edge">
<title>Node366&#45;&gt;Node359</title>
<path fill="none" stroke="#191970" d="M291.8705,-334.4553C275.2308,-329.1464 257.5539,-323.005 242.4853,-317.2546"/>
<polygon fill="#191970" stroke="#191970" points="243.5848,-313.9266 232.9969,-313.545 241.0359,-320.446 243.5848,-313.9266"/>
</g>
<!-- Node366&#45;&gt;Node362 -->
<g id="edge19" class="edge">
<title>Node366&#45;&gt;Node362</title>
<path fill="none" stroke="#191970" d="M388.0107,-362.5751C395.0687,-365.6794 402.3251,-369.0571 409,-372.5 425.6649,-381.0957 428.0284,-386.5268 445,-394.5 449.4332,-396.5827 454.1595,-398.5534 458.9123,-400.3808"/>
<polygon fill="#191970" stroke="#191970" points="458.026,-403.783 468.62,-403.9202 460.4239,-397.2064 458.026,-403.783"/>
</g>
<!-- Node366&#45;&gt;Node363 -->
<g id="edge20" class="edge">
<title>Node366&#45;&gt;Node363</title>
<path fill="none" stroke="#191970" d="M391.5205,-332.4602C397.5227,-329.7507 403.5216,-326.7445 409,-323.5 436.7966,-307.0382 465.164,-282.6798 482.792,-266.4604"/>
<polygon fill="#191970" stroke="#191970" points="485.6193,-268.6085 490.5335,-259.2222 480.8386,-263.4953 485.6193,-268.6085"/>
</g>
<!-- Node366&#45;&gt;Node364 -->
<g id="edge23" class="edge">
<title>Node366&#45;&gt;Node364</title>
<path fill="none" stroke="#191970" d="M397.4533,-332.48C401.6718,-329.9221 405.6188,-326.9494 409,-323.5 440.0257,-291.848 413.0468,-261.2154 445,-230.5 448.5748,-227.0637 452.7973,-224.2472 457.2918,-221.9391"/>
<polygon fill="#191970" stroke="#191970" points="458.9623,-225.0314 466.7792,-217.8797 456.2086,-218.5957 458.9623,-225.0314"/>
</g>
<!-- Node367&#45;&gt;Node356 -->
<g id="edge32" class="edge">
<title>Node367&#45;&gt;Node356</title>
<path fill="none" stroke="#191970" d="M386.8542,-313.6221C394.2211,-316.8024 401.888,-320.1965 409,-323.5 426.6584,-331.7023 445.9524,-341.3045 462.2516,-349.608"/>
<polygon fill="#191970" stroke="#191970" points="460.9709,-352.8844 471.4672,-354.3266 464.1612,-346.6537 460.9709,-352.8844"/>
</g>
<!-- Node367&#45;&gt;Node357 -->
<g id="edge26" class="edge">
<title>Node367&#45;&gt;Node357</title>
<path fill="none" stroke="#191970" d="M409.302,-296.194C460.6374,-294.1809 534.2521,-291.294 582.339,-289.4083"/>
<polygon fill="#191970" stroke="#191970" points="582.6379,-292.8993 592.493,-289.0101 582.3635,-285.9047 582.6379,-292.8993"/>
</g>
<!-- Node367&#45;&gt;Node358 -->
<g id="edge29" class="edge">
<title>Node367&#45;&gt;Node358</title>
<path fill="none" stroke="#191970" d="M409.2915,-310.5592C450.5666,-319.363 506.9346,-332.0647 556,-345.5 568.2587,-348.8567 581.5051,-352.9406 593.4049,-356.7809"/>
<polygon fill="#191970" stroke="#191970" points="592.4404,-360.1478 603.0329,-359.928 594.6153,-353.4942 592.4404,-360.1478"/>
</g>
<!-- Node367&#45;&gt;Node359 -->
<g id="edge30" class="edge">
<title>Node367&#45;&gt;Node359</title>
<path fill="none" stroke="#191970" d="M291.8196,-305.1332C283.485,-305.2708 274.8912,-305.2868 266.4961,-305.1814"/>
<polygon fill="#191970" stroke="#191970" points="266.4489,-301.68 256.3852,-304.9925 266.3181,-308.6788 266.4489,-301.68"/>
</g>
<!-- Node367&#45;&gt;Node362 -->
<g id="edge27" class="edge">
<title>Node367&#45;&gt;Node362</title>
<path fill="none" stroke="#191970" d="M395.051,-313.511C400.094,-316.3407 404.8889,-319.6493 409,-323.5 434.8221,-347.6861 418.3006,-371.2859 445,-394.5 446.9502,-396.1956 449.0591,-397.7418 451.2761,-399.1515"/>
<polygon fill="#191970" stroke="#191970" points="449.7847,-402.3227 460.2554,-403.9394 453.0782,-396.1459 449.7847,-402.3227"/>
</g>
<!-- Node367&#45;&gt;Node363 -->
<g id="edge28" class="edge">
<title>Node367&#45;&gt;Node363</title>
<path fill="none" stroke="#191970" d="M396.7289,-283.3986C417.4953,-276.6149 441.7304,-268.6981 461.5551,-262.222"/>
<polygon fill="#191970" stroke="#191970" points="462.7687,-265.5076 471.1875,-259.0754 460.595,-258.8537 462.7687,-265.5076"/>
</g>
<!-- Node367&#45;&gt;Node364 -->
<g id="edge31" class="edge">
<title>Node367&#45;&gt;Node364</title>
<path fill="none" stroke="#191970" d="M394.3029,-283.3858C399.4712,-280.7871 404.5,-277.8309 409,-274.5 429.3088,-259.4677 424.2532,-244.9218 445,-230.5 448.7709,-227.8787 452.9355,-225.5913 457.2379,-223.6016"/>
<polygon fill="#191970" stroke="#191970" points="458.8423,-226.7271 466.7777,-219.707 456.1966,-220.2463 458.8423,-226.7271"/>
</g>
<!-- Node369 -->
<g id="node15" class="node">
<title>Node369</title>
<g id="a_node15"><a xlink:href="led_8c.html#a0a23edee5e1db0cd2928c18a42ffe96f" target="_top" xlink:title="led_on">
<polygon fill="#ffffff" stroke="#000000" points="611.5,-49 611.5,-68 650.5,-68 650.5,-49 611.5,-49"/>
<text text-anchor="middle" x="631" y="-56" font-family="Helvetica,sans-Serif" font-size="10.00" fill="#000000">led_on</text>
</a>
</g>
</g>
<!-- Node368&#45;&gt;Node369 -->
<g id="edge34" class="edge">
<title>Node368&#45;&gt;Node369</title>
<path fill="none" stroke="#191970" d="M373.9328,-59.4165C424.7728,-59.2352 545.1305,-58.8061 601.2415,-58.6061"/>
<polygon fill="#191970" stroke="#191970" points="601.2666,-62.1061 611.254,-58.5704 601.2415,-55.1062 601.2666,-62.1061"/>
</g>
<!-- Node371 -->
<g id="node17" class="node">
<title>Node371</title>
<g id="a_node17"><a xlink:href="led_8c.html#af6e74a041f4ed0ac79f31a03c99733de" target="_top" xlink:title="led_single_blink_off\l_timer_func">
<polygon fill="#ffffff" stroke="#000000" points="459.5,-.5 459.5,-30.5 541.5,-30.5 541.5,-.5 459.5,-.5"/>
<text text-anchor="start" x="467.5" y="-18.5" font-family="Helvetica,sans-Serif" font-size="10.00" fill="#000000">led_single_blink_off</text>
<text text-anchor="middle" x="500.5" y="-7.5" font-family="Helvetica,sans-Serif" font-size="10.00" fill="#000000">_timer_func</text>
</a>
</g>
</g>
<!-- Node368&#45;&gt;Node371 -->
<g id="edge36" class="edge">
<title>Node368&#45;&gt;Node371</title>
<path fill="none" stroke="#191970" d="M373.6088,-52.7214C393.7939,-46.8004 423.815,-37.9943 449.5894,-30.4338"/>
<polygon fill="#191970" stroke="#191970" points="450.6199,-33.779 459.2304,-27.6057 448.6496,-27.0621 450.6199,-33.779"/>
</g>
<!-- Node370 -->
<g id="node16" class="node">
<title>Node370</title>
<g id="a_node16"><a xlink:href="gpio_8h.html#a83bac74ff5b2158e0c86da73ada29718" target="_top" xlink:title="gpio_output_set">
<polygon fill="#ffffff" stroke="#000000" points="706,-27 706,-46 776,-46 776,-27 706,-27"/>
<text text-anchor="middle" x="741" y="-34" font-family="Helvetica,sans-Serif" font-size="10.00" fill="#000000">gpio_output_set</text>
</a>
</g>
</g>
<!-- Node369&#45;&gt;Node370 -->
<g id="edge35" class="edge">
<title>Node369&#45;&gt;Node370</title>
<path fill="none" stroke="#191970" d="M650.6658,-54.5668C663.2376,-52.0525 680.0806,-48.6839 695.8159,-45.5368"/>
<polygon fill="#191970" stroke="#191970" points="696.8208,-48.9052 705.9402,-43.512 695.4479,-42.0412 696.8208,-48.9052"/>
</g>
<!-- Node372 -->
<g id="node18" class="node">
<title>Node372</title>
<g id="a_node18"><a xlink:href="led_8c.html#a7ef0b27e501c77cd25b8bb7a2de6d8bd" target="_top" xlink:title="led_off">
<polygon fill="#ffffff" stroke="#000000" points="611.5,-8 611.5,-27 650.5,-27 650.5,-8 611.5,-8"/>
<text text-anchor="middle" x="631" y="-15" font-family="Helvetica,sans-Serif" font-size="10.00" fill="#000000">led_off</text>
</a>
</g>
</g>
<!-- Node371&#45;&gt;Node372 -->
<g id="edge37" class="edge">
<title>Node371&#45;&gt;Node372</title>
<path fill="none" stroke="#191970" d="M541.791,-16.1328C561.0846,-16.4285 583.6236,-16.7739 601.2191,-17.0436"/>
<polygon fill="#191970" stroke="#191970" points="601.4103,-20.5468 611.4628,-17.2006 601.5177,-13.5477 601.4103,-20.5468"/>
</g>
<!-- Node372&#45;&gt;Node370 -->
<g id="edge38" class="edge">
<title>Node372&#45;&gt;Node370</title>
<path fill="none" stroke="#191970" d="M650.6658,-20.8968C663.2376,-23.0683 680.0806,-25.9776 695.8159,-28.6955"/>
<polygon fill="#191970" stroke="#191970" points="695.4903,-32.191 705.9402,-30.4442 696.6818,-25.2931 695.4903,-32.191"/>
</g>
</g>
</svg>
