<?xml version="1.0" encoding="UTF-8" standalone="no"?>
<!DOCTYPE svg PUBLIC "-//W3C//DTD SVG 1.1//EN"
 "http://www.w3.org/Graphics/SVG/1.1/DTD/svg11.dtd">
<!-- Generated by graphviz version 2.40.1 (20161225.0304)
 -->
<!-- Title: espconn_get_connection_info Pages: 1 -->
<svg width="472pt" height="104pt"
 viewBox="0.00 0.00 472.00 104.00" xmlns="http://www.w3.org/2000/svg" xmlns:xlink="http://www.w3.org/1999/xlink">
<g id="graph0" class="graph" transform="scale(1 1) rotate(0) translate(4 100)">
<title>espconn_get_connection_info</title>
<polygon fill="#ffffff" stroke="transparent" points="-4,4 -4,-100 468,-100 468,4 -4,4"/>
<!-- Node74 -->
<g id="node1" class="node">
<title>Node74</title>
<polygon fill="#bfbfbf" stroke="#000000" points="0,-38.5 0,-57.5 116,-57.5 116,-38.5 0,-38.5"/>
<text text-anchor="middle" x="58" y="-45.5" font-family="Helvetica,sans-Serif" font-size="10.00" fill="#000000">espconn_get_connection_info</text>
</g>
<!-- Node75 -->
<g id="node2" class="node">
<title>Node75</title>
<g id="a_node2"><a xlink:href="captdns_8c.html#a59c9a28ea1f015cff27b9d0c252d15f3" target="_top" xlink:title="captdnsRecv">
<polygon fill="#ffffff" stroke="#000000" points="164.5,-76.5 164.5,-95.5 224.5,-95.5 224.5,-76.5 164.5,-76.5"/>
<text text-anchor="middle" x="194.5" y="-83.5" font-family="Helvetica,sans-Serif" font-size="10.00" fill="#000000">captdnsRecv</text>
</a>
</g>
</g>
<!-- Node74&#45;&gt;Node75 -->
<g id="edge1" class="edge">
<title>Node74&#45;&gt;Node75</title>
<path fill="none" stroke="#191970" d="M102.1122,-60.2803C122.4174,-65.933 145.9945,-72.4966 164.2486,-77.5784"/>
<polygon fill="#191970" stroke="#191970" points="103.0171,-56.8992 92.4447,-57.589 101.1397,-63.6428 103.0171,-56.8992"/>
</g>
<!-- Node77 -->
<g id="node4" class="node">
<title>Node77</title>
<g id="a_node4"><a xlink:href="espconn__tcp_8c.html#acf0ecfba42ea8bcc55836b8dccabe511" target="_top" xlink:title="espconn_tcp_accept">
<polygon fill="#ffffff" stroke="#000000" points="152,-38.5 152,-57.5 237,-57.5 237,-38.5 152,-38.5"/>
<text text-anchor="middle" x="194.5" y="-45.5" font-family="Helvetica,sans-Serif" font-size="10.00" fill="#000000">espconn_tcp_accept</text>
</a>
</g>
</g>
<!-- Node74&#45;&gt;Node77 -->
<g id="edge4" class="edge">
<title>Node74&#45;&gt;Node77</title>
<path fill="none" stroke="#191970" d="M126.3758,-48C134.9995,-48 143.6204,-48 151.688,-48"/>
<polygon fill="#191970" stroke="#191970" points="126.2843,-44.5001 116.2842,-48 126.2842,-51.5001 126.2843,-44.5001"/>
</g>
<!-- Node80 -->
<g id="node7" class="node">
<title>Node80</title>
<g id="a_node7"><a xlink:href="espconn__tcp_8c.html#a2dfab8a89f8e7a7e017b2b977654d2aa" target="_top" xlink:title="espconn_tcp_delete">
<polygon fill="#ffffff" stroke="#000000" points="152.5,-.5 152.5,-19.5 236.5,-19.5 236.5,-.5 152.5,-.5"/>
<text text-anchor="middle" x="194.5" y="-7.5" font-family="Helvetica,sans-Serif" font-size="10.00" fill="#000000">espconn_tcp_delete</text>
</a>
</g>
</g>
<!-- Node74&#45;&gt;Node80 -->
<g id="edge7" class="edge">
<title>Node74&#45;&gt;Node80</title>
<path fill="none" stroke="#191970" d="M102.2487,-35.6817C121.003,-30.4607 142.528,-24.4684 160.0663,-19.5859"/>
<polygon fill="#191970" stroke="#191970" points="101.1397,-32.3572 92.4447,-38.411 103.0171,-39.1008 101.1397,-32.3572"/>
</g>
<!-- Node76 -->
<g id="node3" class="node">
<title>Node76</title>
<g id="a_node3"><a xlink:href="captdns_8h.html#a88f42288d1b84cab204cca9e7f7aa9a3" target="_top" xlink:title="captdnsInit">
<polygon fill="#ffffff" stroke="#000000" points="288.5,-76.5 288.5,-95.5 341.5,-95.5 341.5,-76.5 288.5,-76.5"/>
<text text-anchor="middle" x="315" y="-83.5" font-family="Helvetica,sans-Serif" font-size="10.00" fill="#000000">captdnsInit</text>
</a>
</g>
</g>
<!-- Node75&#45;&gt;Node76 -->
<g id="edge2" class="edge">
<title>Node75&#45;&gt;Node76</title>
<path fill="none" stroke="#191970" d="M234.6093,-79.597C252.2147,-78.9684 272.4128,-79.1938 288.1589,-80.2732"/>
<polygon fill="#191970" stroke="#191970" points="234.4217,-76.1019 224.5964,-80.0658 234.7492,-83.0942 234.4217,-76.1019"/>
</g>
<!-- Node76&#45;&gt;Node75 -->
<g id="edge3" class="edge">
<title>Node76&#45;&gt;Node75</title>
<path fill="none" stroke="#191970" d="M277.943,-92.2843C260.8254,-93.0057 240.7603,-92.889 224.5964,-91.9342"/>
<polygon fill="#191970" stroke="#191970" points="278.3645,-95.7666 288.1589,-91.7268 277.983,-88.777 278.3645,-95.7666"/>
</g>
<!-- Node78 -->
<g id="node5" class="node">
<title>Node78</title>
<g id="a_node5"><a xlink:href="espconn__tcp_8c.html#ace125fa28aced169fba2b955f1ce76fb" target="_top" xlink:title="espconn_tcp_server">
<polygon fill="#ffffff" stroke="#000000" points="273,-38.5 273,-57.5 357,-57.5 357,-38.5 273,-38.5"/>
<text text-anchor="middle" x="315" y="-45.5" font-family="Helvetica,sans-Serif" font-size="10.00" fill="#000000">espconn_tcp_server</text>
</a>
</g>
</g>
<!-- Node77&#45;&gt;Node78 -->
<g id="edge5" class="edge">
<title>Node77&#45;&gt;Node78</title>
<path fill="none" stroke="#191970" d="M247.4825,-48C255.9273,-48 264.5654,-48 272.72,-48"/>
<polygon fill="#191970" stroke="#191970" points="247.3231,-44.5001 237.3231,-48 247.323,-51.5001 247.3231,-44.5001"/>
</g>
<!-- Node79 -->
<g id="node6" class="node">
<title>Node79</title>
<g id="a_node6"><a xlink:href="sdk_2include_2espconn_8h.html#abd44446e3fc4a61fdef77d473deb678b" target="_top" xlink:title="espconn_accept">
<polygon fill="#ffffff" stroke="#000000" points="393,-38.5 393,-57.5 464,-57.5 464,-38.5 393,-38.5"/>
<text text-anchor="middle" x="428.5" y="-45.5" font-family="Helvetica,sans-Serif" font-size="10.00" fill="#000000">espconn_accept</text>
</a>
</g>
</g>
<!-- Node78&#45;&gt;Node79 -->
<g id="edge6" class="edge">
<title>Node78&#45;&gt;Node79</title>
<path fill="none" stroke="#191970" d="M367.3155,-48C375.9743,-48 384.7715,-48 392.8944,-48"/>
<polygon fill="#191970" stroke="#191970" points="367.2632,-44.5001 357.2632,-48 367.2632,-51.5001 367.2632,-44.5001"/>
</g>
<!-- Node81 -->
<g id="node8" class="node">
<title>Node81</title>
<g id="a_node8"><a xlink:href="sdk_2include_2espconn_8h.html#a63d15dda14dfcd8da278c31f048910c3" target="_top" xlink:title="espconn_delete">
<polygon fill="#ffffff" stroke="#000000" points="280.5,-.5 280.5,-19.5 349.5,-19.5 349.5,-.5 280.5,-.5"/>
<text text-anchor="middle" x="315" y="-7.5" font-family="Helvetica,sans-Serif" font-size="10.00" fill="#000000">espconn_delete</text>
</a>
</g>
</g>
<!-- Node80&#45;&gt;Node81 -->
<g id="edge8" class="edge">
<title>Node80&#45;&gt;Node81</title>
<path fill="none" stroke="#191970" d="M246.8652,-10C258.1597,-10 269.8304,-10 280.2525,-10"/>
<polygon fill="#191970" stroke="#191970" points="246.6451,-6.5001 236.6451,-10 246.645,-13.5001 246.6451,-6.5001"/>
</g>
</g>
</svg>
