<?xml version="1.0" encoding="UTF-8" standalone="no"?>
<!DOCTYPE svg PUBLIC "-//W3C//DTD SVG 1.1//EN"
 "http://www.w3.org/Graphics/SVG/1.1/DTD/svg11.dtd">
<!-- Generated by graphviz version 2.40.1 (20161225.0304)
 -->
<!-- Title: esp&#45;open&#45;lwip/include/lwip/app/espconn.h Pages: 1 -->
<svg width="288pt" height="173pt"
 viewBox="0.00 0.00 288.00 173.00" xmlns="http://www.w3.org/2000/svg" xmlns:xlink="http://www.w3.org/1999/xlink">
<g id="graph0" class="graph" transform="scale(1 1) rotate(0) translate(4 169)">
<title>esp&#45;open&#45;lwip/include/lwip/app/espconn.h</title>
<polygon fill="#ffffff" stroke="transparent" points="-4,4 -4,-169 284,-169 284,4 -4,4"/>
<!-- Node16 -->
<g id="node1" class="node">
<title>Node16</title>
<polygon fill="#bfbfbf" stroke="#000000" points="94.5,-134.5 94.5,-164.5 183.5,-164.5 183.5,-134.5 94.5,-134.5"/>
<text text-anchor="start" x="102.5" y="-152.5" font-family="Helvetica,sans-Serif" font-size="10.00" fill="#000000">esp&#45;open&#45;lwip/include</text>
<text text-anchor="middle" x="139" y="-141.5" font-family="Helvetica,sans-Serif" font-size="10.00" fill="#000000">/lwip/app/espconn.h</text>
</g>
<!-- Node17 -->
<g id="node2" class="node">
<title>Node17</title>
<g id="a_node2"><a xlink:href="espconn__tcp_8h.html" target="_top" xlink:title="esp&#45;open&#45;lwip/include\l/lwip/app/espconn_tcp.h">
<polygon fill="#ffffff" stroke="#000000" points="13.5,-67.5 13.5,-97.5 110.5,-97.5 110.5,-67.5 13.5,-67.5"/>
<text text-anchor="start" x="21.5" y="-85.5" font-family="Helvetica,sans-Serif" font-size="10.00" fill="#000000">esp&#45;open&#45;lwip/include</text>
<text text-anchor="middle" x="62" y="-74.5" font-family="Helvetica,sans-Serif" font-size="10.00" fill="#000000">/lwip/app/espconn_tcp.h</text>
</a>
</g>
</g>
<!-- Node16&#45;&gt;Node17 -->
<g id="edge1" class="edge">
<title>Node16&#45;&gt;Node17</title>
<path fill="none" stroke="#191970" d="M113.7124,-127.4965C102.476,-117.7193 89.5308,-106.4554 79.4033,-97.6432"/>
<polygon fill="#191970" stroke="#191970" points="111.6861,-130.3728 121.5275,-134.2967 116.281,-125.092 111.6861,-130.3728"/>
</g>
<!-- Node18 -->
<g id="node3" class="node">
<title>Node18</title>
<g id="a_node3"><a xlink:href="espconn_8c.html" target="_top" xlink:title="esp&#45;open&#45;lwip/lwip\l/app/espconn.c">
<polygon fill="#ffffff" stroke="#000000" points="100,-.5 100,-30.5 178,-30.5 178,-.5 100,-.5"/>
<text text-anchor="start" x="108" y="-18.5" font-family="Helvetica,sans-Serif" font-size="10.00" fill="#000000">esp&#45;open&#45;lwip/lwip</text>
<text text-anchor="middle" x="139" y="-7.5" font-family="Helvetica,sans-Serif" font-size="10.00" fill="#000000">/app/espconn.c</text>
</a>
</g>
</g>
<!-- Node16&#45;&gt;Node18 -->
<g id="edge7" class="edge">
<title>Node16&#45;&gt;Node18</title>
<path fill="none" stroke="#191970" d="M139,-124.3415C139,-96.8131 139,-53.5714 139,-30.7614"/>
<polygon fill="#191970" stroke="#191970" points="135.5001,-124.3889 139,-134.389 142.5001,-124.389 135.5001,-124.3889"/>
</g>
<!-- Node20 -->
<g id="node5" class="node">
<title>Node20</title>
<g id="a_node5"><a xlink:href="espconn__udp_8h.html" target="_top" xlink:title="esp&#45;open&#45;lwip/include\l/lwip/app/espconn_udp.h">
<polygon fill="#ffffff" stroke="#000000" points="167.5,-67.5 167.5,-97.5 266.5,-97.5 266.5,-67.5 167.5,-67.5"/>
<text text-anchor="start" x="175.5" y="-85.5" font-family="Helvetica,sans-Serif" font-size="10.00" fill="#000000">esp&#45;open&#45;lwip/include</text>
<text text-anchor="middle" x="217" y="-74.5" font-family="Helvetica,sans-Serif" font-size="10.00" fill="#000000">/lwip/app/espconn_udp.h</text>
</a>
</g>
</g>
<!-- Node16&#45;&gt;Node20 -->
<g id="edge4" class="edge">
<title>Node16&#45;&gt;Node20</title>
<path fill="none" stroke="#191970" d="M164.616,-127.4965C175.9984,-117.7193 189.1116,-106.4554 199.3706,-97.6432"/>
<polygon fill="#191970" stroke="#191970" points="162.0045,-125.1257 156.6994,-134.2967 166.5657,-130.4357 162.0045,-125.1257"/>
</g>
<!-- Node17&#45;&gt;Node18 -->
<g id="edge2" class="edge">
<title>Node17&#45;&gt;Node18</title>
<path fill="none" stroke="#191970" d="M87.2876,-60.4965C98.524,-50.7193 111.4692,-39.4554 121.5967,-30.6432"/>
<polygon fill="#191970" stroke="#191970" points="84.719,-58.092 79.4725,-67.2967 89.3139,-63.3728 84.719,-58.092"/>
</g>
<!-- Node19 -->
<g id="node4" class="node">
<title>Node19</title>
<g id="a_node4"><a xlink:href="espconn__tcp_8c.html" target="_top" xlink:title="esp&#45;open&#45;lwip/lwip\l/app/espconn_tcp.c">
<polygon fill="#ffffff" stroke="#000000" points="0,-.5 0,-30.5 82,-30.5 82,-.5 0,-.5"/>
<text text-anchor="start" x="8" y="-18.5" font-family="Helvetica,sans-Serif" font-size="10.00" fill="#000000">esp&#45;open&#45;lwip/lwip</text>
<text text-anchor="middle" x="41" y="-7.5" font-family="Helvetica,sans-Serif" font-size="10.00" fill="#000000">/app/espconn_tcp.c</text>
</a>
</g>
</g>
<!-- Node17&#45;&gt;Node19 -->
<g id="edge3" class="edge">
<title>Node17&#45;&gt;Node19</title>
<path fill="none" stroke="#191970" d="M54.1988,-57.6103C51.3606,-48.5553 48.2403,-38.5998 45.7464,-30.6432"/>
<polygon fill="#191970" stroke="#191970" points="50.9041,-58.8012 57.2348,-67.2967 57.5836,-56.7076 50.9041,-58.8012"/>
</g>
<!-- Node20&#45;&gt;Node18 -->
<g id="edge5" class="edge">
<title>Node20&#45;&gt;Node18</title>
<path fill="none" stroke="#191970" d="M191.384,-60.4965C180.0016,-50.7193 166.8884,-39.4554 156.6294,-30.6432"/>
<polygon fill="#191970" stroke="#191970" points="189.4343,-63.4357 199.3006,-67.2967 193.9955,-58.1257 189.4343,-63.4357"/>
</g>
<!-- Node21 -->
<g id="node6" class="node">
<title>Node21</title>
<g id="a_node6"><a xlink:href="espconn__udp_8c.html" target="_top" xlink:title="esp&#45;open&#45;lwip/lwip\l/app/espconn_udp.c">
<polygon fill="#ffffff" stroke="#000000" points="196,-.5 196,-30.5 280,-30.5 280,-.5 196,-.5"/>
<text text-anchor="start" x="204" y="-18.5" font-family="Helvetica,sans-Serif" font-size="10.00" fill="#000000">esp&#45;open&#45;lwip/lwip</text>
<text text-anchor="middle" x="238" y="-7.5" font-family="Helvetica,sans-Serif" font-size="10.00" fill="#000000">/app/espconn_udp.c</text>
</a>
</g>
</g>
<!-- Node20&#45;&gt;Node21 -->
<g id="edge6" class="edge">
<title>Node20&#45;&gt;Node21</title>
<path fill="none" stroke="#191970" d="M224.8012,-57.6103C227.6394,-48.5553 230.7597,-38.5998 233.2536,-30.6432"/>
<polygon fill="#191970" stroke="#191970" points="221.4164,-56.7076 221.7652,-67.2967 228.0959,-58.8012 221.4164,-56.7076"/>
</g>
</g>
</svg>
