<?xml version="1.0" encoding="UTF-8" standalone="no"?>
<!DOCTYPE svg PUBLIC "-//W3C//DTD SVG 1.1//EN"
 "http://www.w3.org/Graphics/SVG/1.1/DTD/svg11.dtd">
<!-- Generated by graphviz version 2.40.1 (20161225.0304)
 -->
<!-- Title: esp&#45;open&#45;lwip/include/lwip/app/ping.h Pages: 1 -->
<svg width="299pt" height="655pt"
 viewBox="0.00 0.00 298.50 655.00" xmlns="http://www.w3.org/2000/svg" xmlns:xlink="http://www.w3.org/1999/xlink">
<g id="graph0" class="graph" transform="scale(1 1) rotate(0) translate(4 651)">
<title>esp&#45;open&#45;lwip/include/lwip/app/ping.h</title>
<polygon fill="#ffffff" stroke="transparent" points="-4,4 -4,-651 294.5,-651 294.5,4 -4,4"/>
<!-- Node0 -->
<g id="node1" class="node">
<title>Node0</title>
<polygon fill="#bfbfbf" stroke="#000000" points="150,-616.5 150,-646.5 239,-646.5 239,-616.5 150,-616.5"/>
<text text-anchor="start" x="158" y="-634.5" font-family="Helvetica,sans-Serif" font-size="10.00" fill="#000000">esp&#45;open&#45;lwip/include</text>
<text text-anchor="middle" x="194.5" y="-623.5" font-family="Helvetica,sans-Serif" font-size="10.00" fill="#000000">/lwip/app/ping.h</text>
</g>
<!-- Node1 -->
<g id="node2" class="node">
<title>Node1</title>
<g id="a_node2"><a xlink:href="esp-open-lwip_2include_2lwip_2ip__addr_8h.html" target="_top" xlink:title="lwip/ip_addr.h">
<polygon fill="#ffffff" stroke="#000000" points="215,-448.5 215,-467.5 278,-467.5 278,-448.5 215,-448.5"/>
<text text-anchor="middle" x="246.5" y="-455.5" font-family="Helvetica,sans-Serif" font-size="10.00" fill="#000000">lwip/ip_addr.h</text>
</a>
</g>
</g>
<!-- Node0&#45;&gt;Node1 -->
<g id="edge1" class="edge">
<title>Node0&#45;&gt;Node1</title>
<path fill="none" stroke="#191970" d="M199.0237,-616.4065C208.4328,-585.0126 230.1069,-512.6961 240.5979,-477.6925"/>
<polygon fill="#191970" stroke="#191970" points="244.0631,-478.3219 243.5814,-467.738 237.3577,-476.3122 244.0631,-478.3219"/>
</g>
<!-- Node16 -->
<g id="node17" class="node">
<title>Node16</title>
<g id="a_node17"><a xlink:href="icmp_8h.html" target="_top" xlink:title="lwip/icmp.h">
<polygon fill="#ffffff" stroke="#000000" points="121.5,-560.5 121.5,-579.5 175.5,-579.5 175.5,-560.5 121.5,-560.5"/>
<text text-anchor="middle" x="148.5" y="-567.5" font-family="Helvetica,sans-Serif" font-size="10.00" fill="#000000">lwip/icmp.h</text>
</a>
</g>
</g>
<!-- Node0&#45;&gt;Node16 -->
<g id="edge19" class="edge">
<title>Node0&#45;&gt;Node16</title>
<path fill="none" stroke="#191970" d="M183.1292,-616.2977C176.7439,-607.7609 168.7359,-597.0545 162.0295,-588.0883"/>
<polygon fill="#191970" stroke="#191970" points="164.6575,-585.7584 155.8652,-579.8469 159.0521,-589.9511 164.6575,-585.7584"/>
</g>
<!-- Node2 -->
<g id="node3" class="node">
<title>Node2</title>
<g id="a_node3"><a xlink:href="opt_8h.html" target="_top" xlink:title="lwip/opt.h">
<polygon fill="#ffffff" stroke="#000000" points="106.5,-336.5 106.5,-355.5 154.5,-355.5 154.5,-336.5 106.5,-336.5"/>
<text text-anchor="middle" x="130.5" y="-343.5" font-family="Helvetica,sans-Serif" font-size="10.00" fill="#000000">lwip/opt.h</text>
</a>
</g>
</g>
<!-- Node1&#45;&gt;Node2 -->
<g id="edge2" class="edge">
<title>Node1&#45;&gt;Node2</title>
<path fill="none" stroke="#191970" d="M236.6099,-448.4509C216.8344,-429.3574 172.2079,-386.2697 147.5959,-362.5063"/>
<polygon fill="#191970" stroke="#191970" points="149.9902,-359.9529 140.3651,-355.5249 145.128,-364.9888 149.9902,-359.9529"/>
</g>
<!-- Node15 -->
<g id="node16" class="node">
<title>Node15</title>
<g id="a_node16"><a xlink:href="def_8h.html" target="_top" xlink:title="lwip/def.h">
<polygon fill="#ffffff" stroke="#000000" points="215.5,-392.5 215.5,-411.5 263.5,-411.5 263.5,-392.5 215.5,-392.5"/>
<text text-anchor="middle" x="239.5" y="-399.5" font-family="Helvetica,sans-Serif" font-size="10.00" fill="#000000">lwip/def.h</text>
</a>
</g>
</g>
<!-- Node1&#45;&gt;Node15 -->
<g id="edge16" class="edge">
<title>Node1&#45;&gt;Node15</title>
<path fill="none" stroke="#191970" d="M245.2807,-448.2455C244.3673,-440.9382 243.0868,-430.6944 241.9631,-421.7046"/>
<polygon fill="#191970" stroke="#191970" points="245.4187,-421.1313 240.7053,-411.6427 238.4728,-421.9996 245.4187,-421.1313"/>
</g>
<!-- Node3 -->
<g id="node4" class="node">
<title>Node3</title>
<g id="a_node4"><a xlink:href="lwipopts_8h.html" target="_top" xlink:title="lwipopts.h">
<polygon fill="#ffffff" stroke="#000000" points="161.5,-280.5 161.5,-299.5 211.5,-299.5 211.5,-280.5 161.5,-280.5"/>
<text text-anchor="middle" x="186.5" y="-287.5" font-family="Helvetica,sans-Serif" font-size="10.00" fill="#000000">lwipopts.h</text>
</a>
</g>
</g>
<!-- Node2&#45;&gt;Node3 -->
<g id="edge3" class="edge">
<title>Node2&#45;&gt;Node3</title>
<path fill="none" stroke="#191970" d="M140.2545,-336.2455C148.3648,-328.1352 160.0925,-316.4075 169.7081,-306.7919"/>
<polygon fill="#191970" stroke="#191970" points="172.2611,-309.1887 176.8573,-299.6427 167.3113,-304.2389 172.2611,-309.1887"/>
</g>
<!-- Node4 -->
<g id="node5" class="node">
<title>Node4</title>
<g id="a_node5"><a xlink:href="esp-open-sdk_2esp-open-lwip_2include_2lwip_2debug_8h.html" target="_top" xlink:title="lwip/debug.h">
<polygon fill="#ffffff" stroke="#000000" points="84,-280.5 84,-299.5 143,-299.5 143,-280.5 84,-280.5"/>
<text text-anchor="middle" x="113.5" y="-287.5" font-family="Helvetica,sans-Serif" font-size="10.00" fill="#000000">lwip/debug.h</text>
</a>
</g>
</g>
<!-- Node2&#45;&gt;Node4 -->
<g id="edge4" class="edge">
<title>Node2&#45;&gt;Node4</title>
<path fill="none" stroke="#191970" d="M127.5388,-336.2455C125.2962,-328.8579 122.1423,-318.4689 119.3919,-309.4087"/>
<polygon fill="#191970" stroke="#191970" points="122.6812,-308.1948 116.4272,-299.6427 115.983,-310.2282 122.6812,-308.1948"/>
</g>
<!-- Node5 -->
<g id="node6" class="node">
<title>Node5</title>
<g id="a_node6"><a xlink:href="arch_8h.html" target="_top" xlink:title="lwip/arch.h">
<polygon fill="#ffffff" stroke="#000000" points="87.5,-224.5 87.5,-243.5 139.5,-243.5 139.5,-224.5 87.5,-224.5"/>
<text text-anchor="middle" x="113.5" y="-231.5" font-family="Helvetica,sans-Serif" font-size="10.00" fill="#000000">lwip/arch.h</text>
</a>
</g>
</g>
<!-- Node4&#45;&gt;Node5 -->
<g id="edge5" class="edge">
<title>Node4&#45;&gt;Node5</title>
<path fill="none" stroke="#191970" d="M113.5,-280.2455C113.5,-272.9382 113.5,-262.6944 113.5,-253.7046"/>
<polygon fill="#191970" stroke="#191970" points="117.0001,-253.6426 113.5,-243.6427 110.0001,-253.6427 117.0001,-253.6426"/>
</g>
<!-- Node6 -->
<g id="node7" class="node">
<title>Node6</title>
<g id="a_node7"><a xlink:href="cc_8h.html" target="_top" xlink:title="arch/cc.h">
<polygon fill="#ffffff" stroke="#000000" points="90,-168.5 90,-187.5 137,-187.5 137,-168.5 90,-168.5"/>
<text text-anchor="middle" x="113.5" y="-175.5" font-family="Helvetica,sans-Serif" font-size="10.00" fill="#000000">arch/cc.h</text>
</a>
</g>
</g>
<!-- Node5&#45;&gt;Node6 -->
<g id="edge6" class="edge">
<title>Node5&#45;&gt;Node6</title>
<path fill="none" stroke="#191970" d="M113.5,-224.2455C113.5,-216.9382 113.5,-206.6944 113.5,-197.7046"/>
<polygon fill="#191970" stroke="#191970" points="117.0001,-197.6426 113.5,-187.6427 110.0001,-197.6427 117.0001,-197.6426"/>
</g>
<!-- Node7 -->
<g id="node8" class="node">
<title>Node7</title>
<g id="a_node8"><a xlink:href="c__types_8h.html" target="_top" xlink:title="c_types.h">
<polygon fill="#ffffff" stroke="#000000" points="27,-56.5 27,-75.5 76,-75.5 76,-56.5 27,-56.5"/>
<text text-anchor="middle" x="51.5" y="-63.5" font-family="Helvetica,sans-Serif" font-size="10.00" fill="#000000">c_types.h</text>
</a>
</g>
</g>
<!-- Node6&#45;&gt;Node7 -->
<g id="edge7" class="edge">
<title>Node6&#45;&gt;Node7</title>
<path fill="none" stroke="#191970" d="M105.5285,-168.1738C98.4157,-159.1247 87.9965,-145.1492 80.5,-132 71.8916,-116.9004 64.0887,-98.7604 58.7507,-85.3224"/>
<polygon fill="#191970" stroke="#191970" points="61.9013,-83.7657 55.0299,-75.7013 55.3726,-86.2906 61.9013,-83.7657"/>
</g>
<!-- Node10 -->
<g id="node11" class="node">
<title>Node10</title>
<g id="a_node11"><a xlink:href="ets__sys_8h.html" target="_top" xlink:title="ets_sys.h">
<polygon fill="#ffffff" stroke="#000000" points="89.5,-112.5 89.5,-131.5 137.5,-131.5 137.5,-112.5 89.5,-112.5"/>
<text text-anchor="middle" x="113.5" y="-119.5" font-family="Helvetica,sans-Serif" font-size="10.00" fill="#000000">ets_sys.h</text>
</a>
</g>
</g>
<!-- Node6&#45;&gt;Node10 -->
<g id="edge10" class="edge">
<title>Node6&#45;&gt;Node10</title>
<path fill="none" stroke="#191970" d="M113.5,-168.2455C113.5,-160.9382 113.5,-150.6944 113.5,-141.7046"/>
<polygon fill="#191970" stroke="#191970" points="117.0001,-141.6426 113.5,-131.6427 110.0001,-141.6427 117.0001,-141.6426"/>
</g>
<!-- Node12 -->
<g id="node13" class="node">
<title>Node12</title>
<g id="a_node13"><a xlink:href="osapi_8h.html" target="_top" xlink:title="osapi.h">
<polygon fill="#ffffff" stroke="#000000" points="169,-112.5 169,-131.5 210,-131.5 210,-112.5 169,-112.5"/>
<text text-anchor="middle" x="189.5" y="-119.5" font-family="Helvetica,sans-Serif" font-size="10.00" fill="#000000">osapi.h</text>
</a>
</g>
</g>
<!-- Node6&#45;&gt;Node12 -->
<g id="edge13" class="edge">
<title>Node6&#45;&gt;Node12</title>
<path fill="none" stroke="#191970" d="M126.7382,-168.2455C138.181,-159.814 154.9296,-147.4729 168.2475,-137.6598"/>
<polygon fill="#191970" stroke="#191970" points="170.4391,-140.3924 176.4135,-131.6427 166.2867,-134.757 170.4391,-140.3924"/>
</g>
<!-- Node8 -->
<g id="node9" class="node">
<title>Node8</title>
<polygon fill="#ffffff" stroke="#bfbfbf" points="0,-.5 0,-19.5 41,-19.5 41,-.5 0,-.5"/>
<text text-anchor="middle" x="20.5" y="-7.5" font-family="Helvetica,sans-Serif" font-size="10.00" fill="#000000">stdint.h</text>
</g>
<!-- Node7&#45;&gt;Node8 -->
<g id="edge8" class="edge">
<title>Node7&#45;&gt;Node8</title>
<path fill="none" stroke="#191970" d="M46.1002,-56.2455C41.8773,-48.617 35.8827,-37.7881 30.7559,-28.5267"/>
<polygon fill="#191970" stroke="#191970" points="33.7432,-26.6965 25.8379,-19.6427 27.619,-30.0867 33.7432,-26.6965"/>
</g>
<!-- Node9 -->
<g id="node10" class="node">
<title>Node9</title>
<polygon fill="#ffffff" stroke="#bfbfbf" points="59,-.5 59,-19.5 106,-19.5 106,-.5 59,-.5"/>
<text text-anchor="middle" x="82.5" y="-7.5" font-family="Helvetica,sans-Serif" font-size="10.00" fill="#000000">stdbool.h</text>
</g>
<!-- Node7&#45;&gt;Node9 -->
<g id="edge9" class="edge">
<title>Node7&#45;&gt;Node9</title>
<path fill="none" stroke="#191970" d="M56.8998,-56.2455C61.1227,-48.617 67.1173,-37.7881 72.2441,-28.5267"/>
<polygon fill="#191970" stroke="#191970" points="75.381,-30.0867 77.1621,-19.6427 69.2568,-26.6965 75.381,-30.0867"/>
</g>
<!-- Node10&#45;&gt;Node7 -->
<g id="edge11" class="edge">
<title>Node10&#45;&gt;Node7</title>
<path fill="none" stroke="#191970" d="M102.7004,-112.2455C93.6322,-104.0549 80.4794,-92.1749 69.7755,-82.5069"/>
<polygon fill="#191970" stroke="#191970" points="71.9429,-79.7482 62.1758,-75.6427 67.2509,-84.9429 71.9429,-79.7482"/>
</g>
<!-- Node11 -->
<g id="node12" class="node">
<title>Node11</title>
<g id="a_node12"><a xlink:href="eagle__soc_8h.html" target="_top" xlink:title="eagle_soc.h">
<polygon fill="#ffffff" stroke="#000000" points="94,-56.5 94,-75.5 151,-75.5 151,-56.5 94,-56.5"/>
<text text-anchor="middle" x="122.5" y="-63.5" font-family="Helvetica,sans-Serif" font-size="10.00" fill="#000000">eagle_soc.h</text>
</a>
</g>
</g>
<!-- Node10&#45;&gt;Node11 -->
<g id="edge12" class="edge">
<title>Node10&#45;&gt;Node11</title>
<path fill="none" stroke="#191970" d="M115.0677,-112.2455C116.2421,-104.9382 117.8884,-94.6944 119.3332,-85.7046"/>
<polygon fill="#191970" stroke="#191970" points="122.8191,-86.0714 120.9503,-75.6427 115.9078,-84.9606 122.8191,-86.0714"/>
</g>
<!-- Node13 -->
<g id="node14" class="node">
<title>Node13</title>
<polygon fill="#ffffff" stroke="#bfbfbf" points="169,-56.5 169,-75.5 210,-75.5 210,-56.5 169,-56.5"/>
<text text-anchor="middle" x="189.5" y="-63.5" font-family="Helvetica,sans-Serif" font-size="10.00" fill="#000000">string.h</text>
</g>
<!-- Node12&#45;&gt;Node13 -->
<g id="edge14" class="edge">
<title>Node12&#45;&gt;Node13</title>
<path fill="none" stroke="#191970" d="M189.5,-112.2455C189.5,-104.9382 189.5,-94.6944 189.5,-85.7046"/>
<polygon fill="#191970" stroke="#191970" points="193.0001,-85.6426 189.5,-75.6427 186.0001,-85.6427 193.0001,-85.6426"/>
</g>
<!-- Node14 -->
<g id="node15" class="node">
<title>Node14</title>
<polygon fill="#ffffff" stroke="#bfbfbf" points="228.5,-56.5 228.5,-75.5 290.5,-75.5 290.5,-56.5 228.5,-56.5"/>
<text text-anchor="middle" x="259.5" y="-63.5" font-family="Helvetica,sans-Serif" font-size="10.00" fill="#000000">user_config.h</text>
</g>
<!-- Node12&#45;&gt;Node14 -->
<g id="edge15" class="edge">
<title>Node12&#45;&gt;Node14</title>
<path fill="none" stroke="#191970" d="M201.6931,-112.2455C212.1321,-103.8943 227.3655,-91.7076 239.574,-81.9408"/>
<polygon fill="#191970" stroke="#191970" points="241.8244,-84.6227 247.4467,-75.6427 237.4515,-79.1566 241.8244,-84.6227"/>
</g>
<!-- Node15&#45;&gt;Node2 -->
<g id="edge18" class="edge">
<title>Node15&#45;&gt;Node2</title>
<path fill="none" stroke="#191970" d="M220.5136,-392.2455C203.3208,-383.4125 177.7762,-370.2887 158.2868,-360.2758"/>
<polygon fill="#191970" stroke="#191970" points="159.763,-357.0993 149.2688,-355.6427 156.5641,-363.3257 159.763,-357.0993"/>
</g>
<!-- Node15&#45;&gt;Node5 -->
<g id="edge17" class="edge">
<title>Node15&#45;&gt;Node5</title>
<path fill="none" stroke="#191970" d="M240.9022,-392.2406C243.5586,-369.8391 246.9045,-314.0473 220.5,-280 203.3686,-257.9099 173.5347,-246.2633 149.7143,-240.2228"/>
<polygon fill="#191970" stroke="#191970" points="150.4594,-236.8028 139.9283,-237.9631 148.8844,-243.6233 150.4594,-236.8028"/>
</g>
<!-- Node16&#45;&gt;Node1 -->
<g id="edge26" class="edge">
<title>Node16&#45;&gt;Node1</title>
<path fill="none" stroke="#191970" d="M156.8554,-560.4509C173.4176,-541.5227 210.6127,-499.014 231.5131,-475.1279"/>
<polygon fill="#191970" stroke="#191970" points="234.2147,-477.3555 238.1657,-467.5249 228.9466,-472.7459 234.2147,-477.3555"/>
</g>
<!-- Node16&#45;&gt;Node2 -->
<g id="edge20" class="edge">
<title>Node16&#45;&gt;Node2</title>
<path fill="none" stroke="#191970" d="M127.1344,-560.3807C97.0544,-545.5038 43.4455,-513.7726 21.5,-468 14.9285,-454.2935 8.072,-414.5396 23.5,-392 39.8894,-368.0559 71.5255,-356.5016 96.1656,-350.9705"/>
<polygon fill="#191970" stroke="#191970" points="97.1166,-354.3495 106.2325,-348.9502 95.7393,-347.4863 97.1166,-354.3495"/>
</g>
<!-- Node17 -->
<g id="node18" class="node">
<title>Node17</title>
<g id="a_node18"><a xlink:href="pbuf_8h.html" target="_top" xlink:title="lwip/pbuf.h">
<polygon fill="#ffffff" stroke="#000000" points="30.5,-448.5 30.5,-467.5 82.5,-467.5 82.5,-448.5 30.5,-448.5"/>
<text text-anchor="middle" x="56.5" y="-455.5" font-family="Helvetica,sans-Serif" font-size="10.00" fill="#000000">lwip/pbuf.h</text>
</a>
</g>
</g>
<!-- Node16&#45;&gt;Node17 -->
<g id="edge21" class="edge">
<title>Node16&#45;&gt;Node17</title>
<path fill="none" stroke="#191970" d="M140.6561,-560.4509C125.1758,-541.6054 90.4947,-499.3849 70.8273,-475.4419"/>
<polygon fill="#191970" stroke="#191970" points="73.376,-473.0306 64.324,-467.5249 67.9669,-477.4738 73.376,-473.0306"/>
</g>
<!-- Node19 -->
<g id="node20" class="node">
<title>Node19</title>
<g id="a_node20"><a xlink:href="netif_8h.html" target="_top" xlink:title="lwip/netif.h">
<polygon fill="#ffffff" stroke="#000000" points="122.5,-504.5 122.5,-523.5 174.5,-523.5 174.5,-504.5 122.5,-504.5"/>
<text text-anchor="middle" x="148.5" y="-511.5" font-family="Helvetica,sans-Serif" font-size="10.00" fill="#000000">lwip/netif.h</text>
</a>
</g>
</g>
<!-- Node16&#45;&gt;Node19 -->
<g id="edge27" class="edge">
<title>Node16&#45;&gt;Node19</title>
<path fill="none" stroke="#191970" d="M148.5,-560.2455C148.5,-552.9382 148.5,-542.6944 148.5,-533.7046"/>
<polygon fill="#191970" stroke="#191970" points="152.0001,-533.6426 148.5,-523.6427 145.0001,-533.6427 152.0001,-533.6426"/>
</g>
<!-- Node17&#45;&gt;Node2 -->
<g id="edge22" class="edge">
<title>Node17&#45;&gt;Node2</title>
<path fill="none" stroke="#191970" d="M63.4844,-448.2097C70.0477,-438.9516 80.091,-424.6337 88.5,-412 99.0368,-396.1696 110.6115,-377.9124 118.9368,-364.6186"/>
<polygon fill="#191970" stroke="#191970" points="122.0392,-366.2583 124.3634,-355.9215 116.1004,-362.5527 122.0392,-366.2583"/>
</g>
<!-- Node18 -->
<g id="node19" class="node">
<title>Node18</title>
<g id="a_node19"><a xlink:href="err_8h.html" target="_top" xlink:title="lwip/err.h">
<polygon fill="#ffffff" stroke="#000000" points="33,-392.5 33,-411.5 80,-411.5 80,-392.5 33,-392.5"/>
<text text-anchor="middle" x="56.5" y="-399.5" font-family="Helvetica,sans-Serif" font-size="10.00" fill="#000000">lwip/err.h</text>
</a>
</g>
</g>
<!-- Node17&#45;&gt;Node18 -->
<g id="edge23" class="edge">
<title>Node17&#45;&gt;Node18</title>
<path fill="none" stroke="#191970" d="M56.5,-448.2455C56.5,-440.9382 56.5,-430.6944 56.5,-421.7046"/>
<polygon fill="#191970" stroke="#191970" points="60.0001,-421.6426 56.5,-411.6427 53.0001,-421.6427 60.0001,-421.6426"/>
</g>
<!-- Node18&#45;&gt;Node2 -->
<g id="edge24" class="edge">
<title>Node18&#45;&gt;Node2</title>
<path fill="none" stroke="#191970" d="M69.3898,-392.2455C80.4254,-383.8943 96.5292,-371.7076 109.4353,-361.9408"/>
<polygon fill="#191970" stroke="#191970" points="111.8959,-364.4681 117.7579,-355.6427 107.6717,-358.8862 111.8959,-364.4681"/>
</g>
<!-- Node18&#45;&gt;Node5 -->
<g id="edge25" class="edge">
<title>Node18&#45;&gt;Node5</title>
<path fill="none" stroke="#191970" d="M56.1678,-392.3219C55.8028,-371.0062 56.9384,-318.8179 74.5,-280 79.3551,-269.2683 87.4747,-259.0853 95.0519,-251.0412"/>
<polygon fill="#191970" stroke="#191970" points="97.7222,-253.3203 102.3074,-243.769 92.7668,-248.3762 97.7222,-253.3203"/>
</g>
<!-- Node19&#45;&gt;Node1 -->
<g id="edge30" class="edge">
<title>Node19&#45;&gt;Node1</title>
<path fill="none" stroke="#191970" d="M165.5703,-504.2455C180.747,-495.5731 203.1621,-482.7645 220.5563,-472.825"/>
<polygon fill="#191970" stroke="#191970" points="222.6794,-475.643 229.6253,-467.6427 219.2064,-469.5653 222.6794,-475.643"/>
</g>
<!-- Node19&#45;&gt;Node2 -->
<g id="edge28" class="edge">
<title>Node19&#45;&gt;Node2</title>
<path fill="none" stroke="#191970" d="M147.4807,-504.4862C144.6353,-477.9293 136.5606,-402.5651 132.6606,-366.1655"/>
<polygon fill="#191970" stroke="#191970" points="136.0985,-365.3981 131.553,-355.8279 129.1383,-366.1439 136.0985,-365.3981"/>
</g>
<!-- Node19&#45;&gt;Node15 -->
<g id="edge31" class="edge">
<title>Node19&#45;&gt;Node15</title>
<path fill="none" stroke="#191970" d="M156.2586,-504.4509C171.5706,-485.6054 205.8748,-443.3849 225.3285,-419.4419"/>
<polygon fill="#191970" stroke="#191970" points="228.1715,-421.4931 231.761,-411.5249 222.7387,-417.079 228.1715,-421.4931"/>
</g>
<!-- Node19&#45;&gt;Node17 -->
<g id="edge32" class="edge">
<title>Node19&#45;&gt;Node17</title>
<path fill="none" stroke="#191970" d="M132.4748,-504.2455C118.3592,-495.6534 97.5737,-483.0014 81.3101,-473.1018"/>
<polygon fill="#191970" stroke="#191970" points="82.7034,-469.8525 72.3415,-467.6427 79.0637,-475.8319 82.7034,-469.8525"/>
</g>
<!-- Node19&#45;&gt;Node18 -->
<g id="edge29" class="edge">
<title>Node19&#45;&gt;Node18</title>
<path fill="none" stroke="#191970" d="M140.6561,-504.4509C125.1758,-485.6054 90.4947,-443.3849 70.8273,-419.4419"/>
<polygon fill="#191970" stroke="#191970" points="73.376,-417.0306 64.324,-411.5249 67.9669,-421.4738 73.376,-417.0306"/>
</g>
</g>
</svg>
