<?xml version="1.0" encoding="UTF-8" standalone="no"?>
<!DOCTYPE svg PUBLIC "-//W3C//DTD SVG 1.1//EN"
 "http://www.w3.org/Graphics/SVG/1.1/DTD/svg11.dtd">
<!-- Generated by graphviz version 2.40.1 (20161225.0304)
 -->
<!-- Title: espconn_sent Pages: 1 -->
<svg width="556pt" height="85pt"
 viewBox="0.00 0.00 556.00 85.00" xmlns="http://www.w3.org/2000/svg" xmlns:xlink="http://www.w3.org/1999/xlink">
<g id="graph0" class="graph" transform="scale(1 1) rotate(0) translate(4 81)">
<title>espconn_sent</title>
<polygon fill="#ffffff" stroke="transparent" points="-4,4 -4,-81 552,-81 552,4 -4,4"/>
<!-- Node187 -->
<g id="node1" class="node">
<title>Node187</title>
<polygon fill="#bfbfbf" stroke="#000000" points="0,-38.5 0,-57.5 63,-57.5 63,-38.5 0,-38.5"/>
<text text-anchor="middle" x="31.5" y="-45.5" font-family="Helvetica,sans-Serif" font-size="10.00" fill="#000000">espconn_sent</text>
</g>
<!-- Node188 -->
<g id="node2" class="node">
<title>Node188</title>
<g id="a_node2"><a xlink:href="httpdespfs_8h.html#aa502116e50052d973b6eef02a6282dd3" target="_top" xlink:title="cgiEspFsHook">
<polygon fill="#ffffff" stroke="#000000" points="99,-57.5 99,-76.5 164,-76.5 164,-57.5 99,-57.5"/>
<text text-anchor="middle" x="131.5" y="-64.5" font-family="Helvetica,sans-Serif" font-size="10.00" fill="#000000">cgiEspFsHook</text>
</a>
</g>
</g>
<!-- Node187&#45;&gt;Node188 -->
<g id="edge1" class="edge">
<title>Node187&#45;&gt;Node188</title>
<path fill="none" stroke="#191970" d="M72.9838,-55.8819C81.5569,-57.5108 90.4741,-59.2051 98.687,-60.7655"/>
<polygon fill="#191970" stroke="#191970" points="73.6182,-52.4399 63.1406,-54.0117 72.3115,-59.3169 73.6182,-52.4399"/>
</g>
<!-- Node189 -->
<g id="node3" class="node">
<title>Node189</title>
<g id="a_node3"><a xlink:href="httpd_8c.html#a4638d3f885add9276ca7eaeca3ec67a9" target="_top" xlink:title="xmitSendBuff">
<polygon fill="#ffffff" stroke="#000000" points="101,-19.5 101,-38.5 162,-38.5 162,-19.5 101,-19.5"/>
<text text-anchor="middle" x="131.5" y="-26.5" font-family="Helvetica,sans-Serif" font-size="10.00" fill="#000000">xmitSendBuff</text>
</a>
</g>
</g>
<!-- Node187&#45;&gt;Node189 -->
<g id="edge2" class="edge">
<title>Node187&#45;&gt;Node189</title>
<path fill="none" stroke="#191970" d="M73.0007,-40.1149C82.2915,-38.3496 91.9857,-36.5077 100.7489,-34.8427"/>
<polygon fill="#191970" stroke="#191970" points="72.3115,-36.6831 63.1406,-41.9883 73.6182,-43.5601 72.3115,-36.6831"/>
</g>
<!-- Node190 -->
<g id="node4" class="node">
<title>Node190</title>
<g id="a_node4"><a xlink:href="httpd_8c.html#a51c1039375e19643be3aaac1e8a1c937" target="_top" xlink:title="httpdSentCb">
<polygon fill="#ffffff" stroke="#000000" points="201,-38.5 201,-57.5 259,-57.5 259,-38.5 201,-38.5"/>
<text text-anchor="middle" x="230" y="-45.5" font-family="Helvetica,sans-Serif" font-size="10.00" fill="#000000">httpdSentCb</text>
</a>
</g>
</g>
<!-- Node189&#45;&gt;Node190 -->
<g id="edge3" class="edge">
<title>Node189&#45;&gt;Node190</title>
<path fill="none" stroke="#191970" d="M171.9465,-36.8019C181.5941,-38.6628 191.7076,-40.6136 200.7405,-42.356"/>
<polygon fill="#191970" stroke="#191970" points="172.608,-33.365 162.1261,-34.9076 171.2821,-40.2383 172.608,-33.365"/>
</g>
<!-- Node194 -->
<g id="node8" class="node">
<title>Node194</title>
<g id="a_node8"><a xlink:href="httpd_8c.html#ad4f8c0a86c445f2f52156e8a328613e4" target="_top" xlink:title="httpdRecvCb">
<polygon fill="#ffffff" stroke="#000000" points="200,-.5 200,-19.5 260,-19.5 260,-.5 200,-.5"/>
<text text-anchor="middle" x="230" y="-7.5" font-family="Helvetica,sans-Serif" font-size="10.00" fill="#000000">httpdRecvCb</text>
</a>
</g>
</g>
<!-- Node189&#45;&gt;Node194 -->
<g id="edge7" class="edge">
<title>Node189&#45;&gt;Node194</title>
<path fill="none" stroke="#191970" d="M171.966,-21.1944C181.25,-19.4036 190.9643,-17.5297 199.7312,-15.8387"/>
<polygon fill="#191970" stroke="#191970" points="171.2821,-17.7617 162.1261,-23.0924 172.608,-24.635 171.2821,-17.7617"/>
</g>
<!-- Node191 -->
<g id="node5" class="node">
<title>Node191</title>
<g id="a_node5"><a xlink:href="httpd_8c.html#a394ef39b684f0f7c1cf013dcb2b8300b" target="_top" xlink:title="httpdConnectCb">
<polygon fill="#ffffff" stroke="#000000" points="296,-19.5 296,-38.5 367,-38.5 367,-19.5 296,-19.5"/>
<text text-anchor="middle" x="331.5" y="-26.5" font-family="Helvetica,sans-Serif" font-size="10.00" fill="#000000">httpdConnectCb</text>
</a>
</g>
</g>
<!-- Node190&#45;&gt;Node191 -->
<g id="edge4" class="edge">
<title>Node190&#45;&gt;Node191</title>
<path fill="none" stroke="#191970" d="M269.1373,-40.6738C277.9511,-39.0239 287.2588,-37.2816 295.9178,-35.6607"/>
<polygon fill="#191970" stroke="#191970" points="268.2711,-37.2751 259.0858,-42.5554 269.5591,-44.1556 268.2711,-37.2751"/>
</g>
<!-- Node192 -->
<g id="node6" class="node">
<title>Node192</title>
<g id="a_node6"><a xlink:href="httpd_8h.html#a74eb356c950228c2f024f081f7beb830" target="_top" xlink:title="httpdInit">
<polygon fill="#ffffff" stroke="#000000" points="403,-19.5 403,-38.5 446,-38.5 446,-19.5 403,-19.5"/>
<text text-anchor="middle" x="424.5" y="-26.5" font-family="Helvetica,sans-Serif" font-size="10.00" fill="#000000">httpdInit</text>
</a>
</g>
</g>
<!-- Node191&#45;&gt;Node192 -->
<g id="edge5" class="edge">
<title>Node191&#45;&gt;Node192</title>
<path fill="none" stroke="#191970" d="M377.4681,-29C386.2984,-29 395.1542,-29 402.7617,-29"/>
<polygon fill="#191970" stroke="#191970" points="377.1903,-25.5001 367.1903,-29 377.1902,-32.5001 377.1903,-25.5001"/>
</g>
<!-- Node193 -->
<g id="node7" class="node">
<title>Node193</title>
<g id="a_node7"><a xlink:href="httpd__user__init_8h.html#a6abf56883c8e03334f42bfb79aa8b095" target="_top" xlink:title="httpd_user_init">
<polygon fill="#ffffff" stroke="#000000" points="482,-19.5 482,-38.5 548,-38.5 548,-19.5 482,-19.5"/>
<text text-anchor="middle" x="515" y="-26.5" font-family="Helvetica,sans-Serif" font-size="10.00" fill="#000000">httpd_user_init</text>
</a>
</g>
</g>
<!-- Node192&#45;&gt;Node193 -->
<g id="edge6" class="edge">
<title>Node192&#45;&gt;Node193</title>
<path fill="none" stroke="#191970" d="M456.4486,-29C464.7251,-29 473.6532,-29 481.9833,-29"/>
<polygon fill="#191970" stroke="#191970" points="456.4076,-25.5001 446.4075,-29 456.4075,-32.5001 456.4076,-25.5001"/>
</g>
<!-- Node194&#45;&gt;Node191 -->
<g id="edge8" class="edge">
<title>Node194&#45;&gt;Node191</title>
<path fill="none" stroke="#191970" d="M270.2456,-17.5337C278.7202,-19.12 287.6034,-20.7829 295.8933,-22.3347"/>
<polygon fill="#191970" stroke="#191970" points="270.6518,-14.049 260.1785,-15.6492 269.3638,-20.9295 270.6518,-14.049"/>
</g>
</g>
</svg>
