<?xml version="1.0" encoding="UTF-8" standalone="no"?>
<!DOCTYPE svg PUBLIC "-//W3C//DTD SVG 1.1//EN"
 "http://www.w3.org/Graphics/SVG/1.1/DTD/svg11.dtd">
<!-- Generated by graphviz version 2.40.1 (20161225.0304)
 -->
<!-- Title: espconn_tcp_server Pages: 1 -->
<svg width="942pt" height="383pt"
 viewBox="0.00 0.00 942.00 383.00" xmlns="http://www.w3.org/2000/svg" xmlns:xlink="http://www.w3.org/1999/xlink">
<g id="graph0" class="graph" transform="scale(1 1) rotate(0) translate(4 379)">
<title>espconn_tcp_server</title>
<polygon fill="#ffffff" stroke="transparent" points="-4,4 -4,-379 938,-379 938,4 -4,4"/>
<!-- Node310 -->
<g id="node1" class="node">
<title>Node310</title>
<polygon fill="#bfbfbf" stroke="#000000" points="0,-203.5 0,-222.5 84,-222.5 84,-203.5 0,-203.5"/>
<text text-anchor="middle" x="42" y="-210.5" font-family="Helvetica,sans-Serif" font-size="10.00" fill="#000000">espconn_tcp_server</text>
</g>
<!-- Node311 -->
<g id="node2" class="node">
<title>Node311</title>
<g id="a_node2"><a xlink:href="esp-open-lwip_2include_2lwip_2app_2espconn_8h.html#ae65b40a3ff0ee3fe9b764523fa4a3c48" target="_top" xlink:title="espconn_list_creat">
<polygon fill="#ffffff" stroke="#000000" points="259.5,-355.5 259.5,-374.5 338.5,-374.5 338.5,-355.5 259.5,-355.5"/>
<text text-anchor="middle" x="299" y="-362.5" font-family="Helvetica,sans-Serif" font-size="10.00" fill="#000000">espconn_list_creat</text>
</a>
</g>
</g>
<!-- Node310&#45;&gt;Node311 -->
<g id="edge1" class="edge">
<title>Node310&#45;&gt;Node311</title>
<path fill="none" stroke="#191970" d="M53.8613,-222.6422C83.6663,-246.4755 164.7742,-308.909 241,-346 245.4126,-348.1471 250.1268,-350.1392 254.8892,-351.9621"/>
<polygon fill="#191970" stroke="#191970" points="254.0564,-355.3816 264.6509,-355.4616 256.4187,-348.7922 254.0564,-355.3816"/>
</g>
<!-- Node312 -->
<g id="node3" class="node">
<title>Node312</title>
<g id="a_node3"><a xlink:href="espconn__tcp_8c.html#acf0ecfba42ea8bcc55836b8dccabe511" target="_top" xlink:title="espconn_tcp_accept">
<polygon fill="#ffffff" stroke="#000000" points="120,-203.5 120,-222.5 205,-222.5 205,-203.5 120,-203.5"/>
<text text-anchor="middle" x="162.5" y="-210.5" font-family="Helvetica,sans-Serif" font-size="10.00" fill="#000000">espconn_tcp_accept</text>
</a>
</g>
</g>
<!-- Node310&#45;&gt;Node312 -->
<g id="edge2" class="edge">
<title>Node310&#45;&gt;Node312</title>
<path fill="none" stroke="#191970" d="M84.1451,-213C92.3476,-213 101.0437,-213 109.5433,-213"/>
<polygon fill="#191970" stroke="#191970" points="109.7671,-216.5001 119.7671,-213 109.7671,-209.5001 109.7671,-216.5001"/>
</g>
<!-- Node322 -->
<g id="node13" class="node">
<title>Node322</title>
<g id="a_node13"><a xlink:href="memp_8h.html#a9d30a969401eb0626105950d6e63f3bf" target="_top" xlink:title="memp_free">
<polygon fill="#ffffff" stroke="#000000" points="791,-106.5 791,-125.5 845,-125.5 845,-106.5 791,-106.5"/>
<text text-anchor="middle" x="818" y="-113.5" font-family="Helvetica,sans-Serif" font-size="10.00" fill="#000000">memp_free</text>
</a>
</g>
</g>
<!-- Node310&#45;&gt;Node322 -->
<g id="edge25" class="edge">
<title>Node310&#45;&gt;Node322</title>
<path fill="none" stroke="#191970" d="M47.2684,-203.2943C70.6704,-161.6253 169.771,0 299,0 299,0 299,0 565,0 659.5362,0 757.3429,-67.7507 798.2066,-99.6969"/>
<polygon fill="#191970" stroke="#191970" points="796.2556,-102.6175 806.2583,-106.1099 800.6167,-97.142 796.2556,-102.6175"/>
</g>
<!-- Node312&#45;&gt;Node311 -->
<g id="edge5" class="edge">
<title>Node312&#45;&gt;Node311</title>
<path fill="none" stroke="#191970" d="M167.6782,-222.6473C183.3581,-251.7293 229.9243,-337.0968 241,-346 243.7679,-348.225 246.8052,-350.193 249.9939,-351.9333"/>
<polygon fill="#191970" stroke="#191970" points="248.7403,-355.2104 259.2832,-356.2587 251.6952,-348.8646 248.7403,-355.2104"/>
</g>
<!-- Node313 -->
<g id="node4" class="node">
<title>Node313</title>
<g id="a_node4"><a xlink:href="esp-open-lwip_2include_2lwip_2app_2espconn_8h.html#a760ff135a8707ff3f481ba00d7312011" target="_top" xlink:title="espconn_copy_partial">
<polygon fill="#ffffff" stroke="#000000" points="254.5,-317.5 254.5,-336.5 343.5,-336.5 343.5,-317.5 254.5,-317.5"/>
<text text-anchor="middle" x="299" y="-324.5" font-family="Helvetica,sans-Serif" font-size="10.00" fill="#000000">espconn_copy_partial</text>
</a>
</g>
</g>
<!-- Node312&#45;&gt;Node313 -->
<g id="edge3" class="edge">
<title>Node312&#45;&gt;Node313</title>
<path fill="none" stroke="#191970" d="M167.8755,-222.608C179.0253,-241.6794 206.5286,-284.4981 241,-308 243.8891,-309.9697 246.9971,-311.7473 250.2196,-313.3497"/>
<polygon fill="#191970" stroke="#191970" points="248.9531,-316.6158 259.5177,-317.4151 251.7574,-310.202 248.9531,-316.6158"/>
</g>
<!-- Node314 -->
<g id="node5" class="node">
<title>Node314</title>
<g id="a_node5"><a xlink:href="esp-open-lwip_2include_2lwip_2app_2espconn_8h.html#a95deabffd3b8a4bec81f91596901f84d" target="_top" xlink:title="espconn_get_connection_info">
<polygon fill="#ffffff" stroke="#000000" points="241,-279.5 241,-298.5 357,-298.5 357,-279.5 241,-279.5"/>
<text text-anchor="middle" x="299" y="-286.5" font-family="Helvetica,sans-Serif" font-size="10.00" fill="#000000">espconn_get_connection_info</text>
</a>
</g>
</g>
<!-- Node312&#45;&gt;Node314 -->
<g id="edge4" class="edge">
<title>Node312&#45;&gt;Node314</title>
<path fill="none" stroke="#191970" d="M173.4699,-222.6944C188.0164,-235.1264 214.9027,-256.6677 241,-270 245.258,-272.1753 249.817,-274.174 254.4385,-275.9909"/>
<polygon fill="#191970" stroke="#191970" points="253.3427,-279.3167 263.9365,-279.4631 255.7462,-272.7423 253.3427,-279.3167"/>
</g>
<!-- Node315 -->
<g id="node6" class="node">
<title>Node315</title>
<g id="a_node6"><a xlink:href="espconn__tcp_8c.html#af3868ea055aae73a6f4de8866d31aceb" target="_top" xlink:title="espconn_server_poll">
<polygon fill="#ffffff" stroke="#000000" points="256,-241.5 256,-260.5 342,-260.5 342,-241.5 256,-241.5"/>
<text text-anchor="middle" x="299" y="-248.5" font-family="Helvetica,sans-Serif" font-size="10.00" fill="#000000">espconn_server_poll</text>
</a>
</g>
</g>
<!-- Node312&#45;&gt;Node315 -->
<g id="edge6" class="edge">
<title>Node312&#45;&gt;Node315</title>
<path fill="none" stroke="#191970" d="M196.9447,-222.589C214.4847,-227.4719 236.01,-233.4643 254.7631,-238.685"/>
<polygon fill="#191970" stroke="#191970" points="253.994,-242.1039 264.5663,-241.4141 255.8713,-235.3603 253.994,-242.1039"/>
</g>
<!-- Node317 -->
<g id="node8" class="node">
<title>Node317</title>
<g id="a_node8"><a xlink:href="espconn__tcp_8c.html#afc71eebe6b5059ad2b6503c328e8d8c5" target="_top" xlink:title="espconn_server_recv">
<polygon fill="#ffffff" stroke="#000000" points="521,-236.5 521,-255.5 609,-255.5 609,-236.5 521,-236.5"/>
<text text-anchor="middle" x="565" y="-243.5" font-family="Helvetica,sans-Serif" font-size="10.00" fill="#000000">espconn_server_recv</text>
</a>
</g>
</g>
<!-- Node312&#45;&gt;Node317 -->
<g id="edge16" class="edge">
<title>Node312&#45;&gt;Node317</title>
<path fill="none" stroke="#191970" d="M205.1538,-213.9605C267.0103,-215.705 385.1408,-220.3594 485,-232 493.3549,-232.9739 502.1602,-234.2542 510.7523,-235.6452"/>
<polygon fill="#191970" stroke="#191970" points="510.2592,-239.1113 520.701,-237.3171 511.4194,-232.2081 510.2592,-239.1113"/>
</g>
<!-- Node324 -->
<g id="node15" class="node">
<title>Node324</title>
<g id="a_node15"><a xlink:href="espconn__tcp_8c.html#a5a1aa400ea4ec663cfc57a637ce0f7bf" target="_top" xlink:title="espconn_server_sent">
<polygon fill="#ffffff" stroke="#000000" points="255,-165.5 255,-184.5 343,-184.5 343,-165.5 255,-165.5"/>
<text text-anchor="middle" x="299" y="-172.5" font-family="Helvetica,sans-Serif" font-size="10.00" fill="#000000">espconn_server_sent</text>
</a>
</g>
</g>
<!-- Node312&#45;&gt;Node324 -->
<g id="edge17" class="edge">
<title>Node312&#45;&gt;Node324</title>
<path fill="none" stroke="#191970" d="M196.9447,-203.411C214.4847,-198.5281 236.01,-192.5357 254.7631,-187.315"/>
<polygon fill="#191970" stroke="#191970" points="255.8713,-190.6397 264.5663,-184.5859 253.994,-183.8961 255.8713,-190.6397"/>
</g>
<!-- Node329 -->
<g id="node20" class="node">
<title>Node329</title>
<g id="a_node20"><a xlink:href="esp-open-lwip_2include_2lwip_2app_2espconn_8h.html#a8418023ae67bd83742d7d2642c3d4da0" target="_top" xlink:title="espconn_tcp_get_max\l_con_allow">
<polygon fill="#ffffff" stroke="#000000" points="253,-116 253,-146 345,-146 345,-116 253,-116"/>
<text text-anchor="start" x="261" y="-134" font-family="Helvetica,sans-Serif" font-size="10.00" fill="#000000">espconn_tcp_get_max</text>
<text text-anchor="middle" x="299" y="-123" font-family="Helvetica,sans-Serif" font-size="10.00" fill="#000000">_con_allow</text>
</a>
</g>
</g>
<!-- Node312&#45;&gt;Node329 -->
<g id="edge22" class="edge">
<title>Node312&#45;&gt;Node329</title>
<path fill="none" stroke="#191970" d="M173.9192,-203.4558C188.731,-191.3777 215.6782,-170.4145 241,-156 244.3873,-154.0717 247.9523,-152.197 251.5801,-150.398"/>
<polygon fill="#191970" stroke="#191970" points="253.1239,-153.5396 260.6625,-146.0951 250.1268,-147.2136 253.1239,-153.5396"/>
</g>
<!-- Node330 -->
<g id="node21" class="node">
<title>Node330</title>
<g id="a_node21"><a xlink:href="esp-open-lwip_2include_2lwip_2app_2espconn_8h.html#aebb1efce8ecc198f9e9a663b69f42113" target="_top" xlink:title="espconn_tcp_set_buf\l_count">
<polygon fill="#ffffff" stroke="#000000" points="255,-67 255,-97 343,-97 343,-67 255,-67"/>
<text text-anchor="start" x="263" y="-85" font-family="Helvetica,sans-Serif" font-size="10.00" fill="#000000">espconn_tcp_set_buf</text>
<text text-anchor="middle" x="299" y="-74" font-family="Helvetica,sans-Serif" font-size="10.00" fill="#000000">_count</text>
</a>
</g>
</g>
<!-- Node312&#45;&gt;Node330 -->
<g id="edge23" class="edge">
<title>Node312&#45;&gt;Node330</title>
<path fill="none" stroke="#191970" d="M167.235,-203.3469C177.7759,-182.7646 205.1049,-134.1524 241,-106 242.6078,-104.739 244.2912,-103.534 246.0305,-102.3836"/>
<polygon fill="#191970" stroke="#191970" points="248.2362,-105.1483 255.1018,-97.079 244.7026,-99.1056 248.2362,-105.1483"/>
</g>
<!-- Node331 -->
<g id="node22" class="node">
<title>Node331</title>
<g id="a_node22"><a xlink:href="espconn__tcp_8c.html#a70940b6d5142095e412400b06aebf3d2" target="_top" xlink:title="esponn_server_err">
<polygon fill="#ffffff" stroke="#000000" points="259.5,-28.5 259.5,-47.5 338.5,-47.5 338.5,-28.5 259.5,-28.5"/>
<text text-anchor="middle" x="299" y="-35.5" font-family="Helvetica,sans-Serif" font-size="10.00" fill="#000000">esponn_server_err</text>
</a>
</g>
</g>
<!-- Node312&#45;&gt;Node331 -->
<g id="edge24" class="edge">
<title>Node312&#45;&gt;Node331</title>
<path fill="none" stroke="#191970" d="M164.6095,-203.3356C171.0419,-176.1537 192.969,-98.3324 241,-57 243.8161,-54.5767 246.9488,-52.4607 250.2585,-50.6134"/>
<polygon fill="#191970" stroke="#191970" points="251.7906,-53.7607 259.3373,-46.3244 248.8004,-47.4314 251.7906,-53.7607"/>
</g>
<!-- Node316 -->
<g id="node7" class="node">
<title>Node316</title>
<g id="a_node7"><a xlink:href="espconn__tcp_8c.html#a1c87d6afab08e5f7f51a212a20547dee" target="_top" xlink:title="espconn_server_close">
<polygon fill="#ffffff" stroke="#000000" points="393,-241.5 393,-260.5 485,-260.5 485,-241.5 393,-241.5"/>
<text text-anchor="middle" x="439" y="-248.5" font-family="Helvetica,sans-Serif" font-size="10.00" fill="#000000">espconn_server_close</text>
</a>
</g>
</g>
<!-- Node315&#45;&gt;Node316 -->
<g id="edge7" class="edge">
<title>Node315&#45;&gt;Node316</title>
<path fill="none" stroke="#191970" d="M342.147,-251C354.9515,-251 369.1691,-251 382.6792,-251"/>
<polygon fill="#191970" stroke="#191970" points="382.8375,-254.5001 392.8375,-251 382.8375,-247.5001 382.8375,-254.5001"/>
</g>
<!-- Node316&#45;&gt;Node317 -->
<g id="edge8" class="edge">
<title>Node316&#45;&gt;Node317</title>
<path fill="none" stroke="#191970" d="M485.2023,-242.6345C493.4911,-242.0857 502.1985,-241.6867 510.691,-241.4625"/>
<polygon fill="#191970" stroke="#191970" points="510.966,-244.9582 520.9009,-241.2775 510.8391,-237.9594 510.966,-244.9582"/>
</g>
<!-- Node317&#45;&gt;Node316 -->
<g id="edge9" class="edge">
<title>Node317&#45;&gt;Node316</title>
<path fill="none" stroke="#191970" d="M520.9009,-254.2224C512.6877,-254.7964 504.0023,-255.2229 495.4778,-255.4766"/>
<polygon fill="#191970" stroke="#191970" points="495.1243,-251.9833 485.2023,-255.6986 495.2756,-258.9817 495.1243,-251.9833"/>
</g>
<!-- Node318 -->
<g id="node9" class="node">
<title>Node318</title>
<g id="a_node9"><a xlink:href="pbuf_8h.html#ab0a418a2392133e6b18c7b19f7c04500" target="_top" xlink:title="pbuf_copy_partial">
<polygon fill="#ffffff" stroke="#000000" points="662,-269.5 662,-288.5 738,-288.5 738,-269.5 662,-269.5"/>
<text text-anchor="middle" x="700" y="-276.5" font-family="Helvetica,sans-Serif" font-size="10.00" fill="#000000">pbuf_copy_partial</text>
</a>
</g>
</g>
<!-- Node317&#45;&gt;Node318 -->
<g id="edge10" class="edge">
<title>Node317&#45;&gt;Node318</title>
<path fill="none" stroke="#191970" d="M604.0476,-255.545C618.9954,-259.1989 636.2218,-263.4098 651.9173,-267.2465"/>
<polygon fill="#191970" stroke="#191970" points="651.426,-270.7293 661.9711,-269.704 653.0882,-263.9295 651.426,-270.7293"/>
</g>
<!-- Node319 -->
<g id="node10" class="node">
<title>Node319</title>
<g id="a_node10"><a xlink:href="pbuf_8h.html#a0d26e00e2cf975274139d27ddabd7ed3" target="_top" xlink:title="pbuf_free">
<polygon fill="#ffffff" stroke="#000000" points="676,-231.5 676,-250.5 724,-250.5 724,-231.5 676,-231.5"/>
<text text-anchor="middle" x="700" y="-238.5" font-family="Helvetica,sans-Serif" font-size="10.00" fill="#000000">pbuf_free</text>
</a>
</g>
</g>
<!-- Node317&#45;&gt;Node319 -->
<g id="edge11" class="edge">
<title>Node317&#45;&gt;Node319</title>
<path fill="none" stroke="#191970" d="M609.204,-244.3628C627.5442,-243.6835 648.4996,-242.9074 665.6542,-242.2721"/>
<polygon fill="#191970" stroke="#191970" points="665.9232,-245.7646 675.7868,-241.8968 665.6641,-238.7694 665.9232,-245.7646"/>
</g>
<!-- Node323 -->
<g id="node14" class="node">
<title>Node323</title>
<g id="a_node14"><a xlink:href="user__interface_8h.html#a258edd68184bb78f062a3b375dca997c" target="_top" xlink:title="system_get_free_heap_size">
<polygon fill="#ffffff" stroke="#000000" points="645,-193.5 645,-212.5 755,-212.5 755,-193.5 645,-193.5"/>
<text text-anchor="middle" x="700" y="-200.5" font-family="Helvetica,sans-Serif" font-size="10.00" fill="#000000">system_get_free_heap_size</text>
</a>
</g>
</g>
<!-- Node317&#45;&gt;Node323 -->
<g id="edge15" class="edge">
<title>Node317&#45;&gt;Node323</title>
<path fill="none" stroke="#191970" d="M594.9609,-236.4569C614.274,-230.3053 639.599,-222.2388 660.543,-215.5678"/>
<polygon fill="#191970" stroke="#191970" points="661.6568,-218.8864 670.1229,-212.5164 659.5323,-212.2165 661.6568,-218.8864"/>
</g>
<!-- Node320 -->
<g id="node11" class="node">
<title>Node320</title>
<g id="a_node11"><a xlink:href="esp-open-lwip_2include_2lwip_2mem_8h.html#ab270bbe39e1996d7095be3a139620ce0" target="_top" xlink:title="mem_free">
<polygon fill="#ffffff" stroke="#000000" points="793,-231.5 793,-250.5 843,-250.5 843,-231.5 793,-231.5"/>
<text text-anchor="middle" x="818" y="-238.5" font-family="Helvetica,sans-Serif" font-size="10.00" fill="#000000">mem_free</text>
</a>
</g>
</g>
<!-- Node319&#45;&gt;Node320 -->
<g id="edge12" class="edge">
<title>Node319&#45;&gt;Node320</title>
<path fill="none" stroke="#191970" d="M724.1638,-241C741.0036,-241 763.7423,-241 782.6181,-241"/>
<polygon fill="#191970" stroke="#191970" points="782.6453,-244.5001 792.6453,-241 782.6452,-237.5001 782.6453,-244.5001"/>
</g>
<!-- Node319&#45;&gt;Node322 -->
<g id="edge14" class="edge">
<title>Node319&#45;&gt;Node322</title>
<path fill="none" stroke="#191970" d="M724.0269,-236.5867C734.396,-233.7567 746.1493,-229.2098 755,-222 783.4988,-198.7847 802.1096,-159.026 811.2759,-135.3594"/>
<polygon fill="#191970" stroke="#191970" points="814.6489,-136.3285 814.8246,-125.7352 808.0811,-133.9069 814.6489,-136.3285"/>
</g>
<!-- Node321 -->
<g id="node12" class="node">
<title>Node321</title>
<g id="a_node12"><a xlink:href="mem_8c.html#a24221009a2c00e9c3fa63eaa9444a076" target="_top" xlink:title="plug_holes">
<polygon fill="#ffffff" stroke="#000000" points="881,-231.5 881,-250.5 934,-250.5 934,-231.5 881,-231.5"/>
<text text-anchor="middle" x="907.5" y="-238.5" font-family="Helvetica,sans-Serif" font-size="10.00" fill="#000000">plug_holes</text>
</a>
</g>
</g>
<!-- Node320&#45;&gt;Node321 -->
<g id="edge13" class="edge">
<title>Node320&#45;&gt;Node321</title>
<path fill="none" stroke="#191970" d="M843.4077,-241C851.8937,-241 861.5288,-241 870.7031,-241"/>
<polygon fill="#191970" stroke="#191970" points="870.7797,-244.5001 880.7796,-241 870.7796,-237.5001 870.7797,-244.5001"/>
</g>
<!-- Node325 -->
<g id="node16" class="node">
<title>Node325</title>
<g id="a_node16"><a xlink:href="espconn__tcp_8c.html#a46f54f8c9e0dbc0c03f7666380fa3bbd" target="_top" xlink:title="espconn_tcp_finish">
<polygon fill="#ffffff" stroke="#000000" points="398.5,-165.5 398.5,-184.5 479.5,-184.5 479.5,-165.5 398.5,-165.5"/>
<text text-anchor="middle" x="439" y="-172.5" font-family="Helvetica,sans-Serif" font-size="10.00" fill="#000000">espconn_tcp_finish</text>
</a>
</g>
</g>
<!-- Node324&#45;&gt;Node325 -->
<g id="edge18" class="edge">
<title>Node324&#45;&gt;Node325</title>
<path fill="none" stroke="#191970" d="M343.2969,-175C357.4786,-175 373.2949,-175 387.9198,-175"/>
<polygon fill="#191970" stroke="#191970" points="388.3182,-178.5001 398.3181,-175 388.3181,-171.5001 388.3182,-178.5001"/>
</g>
<!-- Node326 -->
<g id="node17" class="node">
<title>Node326</title>
<g id="a_node17"><a xlink:href="espconn_8c.html#a5c499e423f91737c0214031fd67fdb1f" target="_top" xlink:title="espconn_pbuf_delete">
<polygon fill="#ffffff" stroke="#000000" points="521,-174.5 521,-193.5 609,-193.5 609,-174.5 521,-174.5"/>
<text text-anchor="middle" x="565" y="-181.5" font-family="Helvetica,sans-Serif" font-size="10.00" fill="#000000">espconn_pbuf_delete</text>
</a>
</g>
</g>
<!-- Node325&#45;&gt;Node326 -->
<g id="edge19" class="edge">
<title>Node325&#45;&gt;Node326</title>
<path fill="none" stroke="#191970" d="M479.5608,-177.8972C489.3807,-178.5986 500.0373,-179.3598 510.3866,-180.099"/>
<polygon fill="#191970" stroke="#191970" points="510.367,-183.6065 520.591,-180.8279 510.8658,-176.6243 510.367,-183.6065"/>
</g>
<!-- Node327 -->
<g id="node18" class="node">
<title>Node327</title>
<g id="a_node18"><a xlink:href="espconn__tcp_8c.html#afedfd58842e55800f23f90ed00b0a967" target="_top" xlink:title="espconn_tcp_write">
<polygon fill="#ffffff" stroke="#000000" points="525.5,-136.5 525.5,-155.5 604.5,-155.5 604.5,-136.5 525.5,-136.5"/>
<text text-anchor="middle" x="565" y="-143.5" font-family="Helvetica,sans-Serif" font-size="10.00" fill="#000000">espconn_tcp_write</text>
</a>
</g>
</g>
<!-- Node325&#45;&gt;Node327 -->
<g id="edge20" class="edge">
<title>Node325&#45;&gt;Node327</title>
<path fill="none" stroke="#191970" d="M479.5608,-165.6646C491.0264,-163.0257 503.6326,-160.1243 515.5583,-157.3794"/>
<polygon fill="#191970" stroke="#191970" points="516.4158,-160.7737 525.376,-155.1198 514.8457,-153.952 516.4158,-160.7737"/>
</g>
<!-- Node328 -->
<g id="node19" class="node">
<title>Node328</title>
<g id="a_node19"><a xlink:href="espconn__tcp_8c.html#a5a4844397c6068a44e5422de0eadcb86" target="_top" xlink:title="espconn_tcp_sent">
<polygon fill="#ffffff" stroke="#000000" points="661.5,-136.5 661.5,-155.5 738.5,-155.5 738.5,-136.5 661.5,-136.5"/>
<text text-anchor="middle" x="700" y="-143.5" font-family="Helvetica,sans-Serif" font-size="10.00" fill="#000000">espconn_tcp_sent</text>
</a>
</g>
</g>
<!-- Node327&#45;&gt;Node328 -->
<g id="edge21" class="edge">
<title>Node327&#45;&gt;Node328</title>
<path fill="none" stroke="#191970" d="M604.7743,-146C619.3088,-146 635.9192,-146 651.1538,-146"/>
<polygon fill="#191970" stroke="#191970" points="651.4387,-149.5001 661.4387,-146 651.4386,-142.5001 651.4387,-149.5001"/>
</g>
</g>
</svg>
