<?xml version="1.0" encoding="UTF-8" standalone="no"?>
<!DOCTYPE svg PUBLIC "-//W3C//DTD SVG 1.1//EN"
 "http://www.w3.org/Graphics/SVG/1.1/DTD/svg11.dtd">
<!-- Generated by graphviz version 2.40.1 (20161225.0304)
 -->
<!-- Title: espconn_client_sent Pages: 1 -->
<svg width="447pt" height="66pt"
 viewBox="0.00 0.00 447.00 66.00" xmlns="http://www.w3.org/2000/svg" xmlns:xlink="http://www.w3.org/1999/xlink">
<g id="graph0" class="graph" transform="scale(1 1) rotate(0) translate(4 62)">
<title>espconn_client_sent</title>
<polygon fill="#ffffff" stroke="transparent" points="-4,4 -4,-62 443,-62 443,4 -4,4"/>
<!-- Node61 -->
<g id="node1" class="node">
<title>Node61</title>
<polygon fill="#bfbfbf" stroke="#000000" points="0,-19.5 0,-38.5 85,-38.5 85,-19.5 0,-19.5"/>
<text text-anchor="middle" x="42.5" y="-26.5" font-family="Helvetica,sans-Serif" font-size="10.00" fill="#000000">espconn_client_sent</text>
</g>
<!-- Node62 -->
<g id="node2" class="node">
<title>Node62</title>
<g id="a_node2"><a xlink:href="espconn__tcp_8c.html#a46f54f8c9e0dbc0c03f7666380fa3bbd" target="_top" xlink:title="espconn_tcp_finish">
<polygon fill="#ffffff" stroke="#000000" points="121,-19.5 121,-38.5 202,-38.5 202,-19.5 121,-19.5"/>
<text text-anchor="middle" x="161.5" y="-26.5" font-family="Helvetica,sans-Serif" font-size="10.00" fill="#000000">espconn_tcp_finish</text>
</a>
</g>
</g>
<!-- Node61&#45;&gt;Node62 -->
<g id="edge1" class="edge">
<title>Node61&#45;&gt;Node62</title>
<path fill="none" stroke="#191970" d="M85.1256,-29C93.3755,-29 102.0972,-29 110.5812,-29"/>
<polygon fill="#191970" stroke="#191970" points="110.7642,-32.5001 120.7641,-29 110.7641,-25.5001 110.7642,-32.5001"/>
</g>
<!-- Node63 -->
<g id="node3" class="node">
<title>Node63</title>
<g id="a_node3"><a xlink:href="espconn__tcp_8c.html#afedfd58842e55800f23f90ed00b0a967" target="_top" xlink:title="espconn_tcp_write">
<polygon fill="#ffffff" stroke="#000000" points="242.5,-38.5 242.5,-57.5 321.5,-57.5 321.5,-38.5 242.5,-38.5"/>
<text text-anchor="middle" x="282" y="-45.5" font-family="Helvetica,sans-Serif" font-size="10.00" fill="#000000">espconn_tcp_write</text>
</a>
</g>
</g>
<!-- Node62&#45;&gt;Node63 -->
<g id="edge2" class="edge">
<title>Node62&#45;&gt;Node63</title>
<path fill="none" stroke="#191970" d="M202.2958,-35.4325C212.0253,-36.9666 222.5131,-38.6203 232.5833,-40.2082"/>
<polygon fill="#191970" stroke="#191970" points="232.0477,-43.6669 242.4708,-41.7672 233.138,-36.7523 232.0477,-43.6669"/>
</g>
<!-- Node65 -->
<g id="node5" class="node">
<title>Node65</title>
<g id="a_node5"><a xlink:href="espconn_8c.html#a5c499e423f91737c0214031fd67fdb1f" target="_top" xlink:title="espconn_pbuf_delete">
<polygon fill="#ffffff" stroke="#000000" points="238,-.5 238,-19.5 326,-19.5 326,-.5 238,-.5"/>
<text text-anchor="middle" x="282" y="-7.5" font-family="Helvetica,sans-Serif" font-size="10.00" fill="#000000">espconn_pbuf_delete</text>
</a>
</g>
</g>
<!-- Node62&#45;&gt;Node65 -->
<g id="edge4" class="edge">
<title>Node62&#45;&gt;Node65</title>
<path fill="none" stroke="#191970" d="M202.2958,-22.5675C210.5403,-21.2675 219.3292,-19.8817 227.9472,-18.5229"/>
<polygon fill="#191970" stroke="#191970" points="228.6098,-21.9617 237.9426,-16.9468 227.5194,-15.0471 228.6098,-21.9617"/>
</g>
<!-- Node64 -->
<g id="node4" class="node">
<title>Node64</title>
<g id="a_node4"><a xlink:href="espconn__tcp_8c.html#a5a4844397c6068a44e5422de0eadcb86" target="_top" xlink:title="espconn_tcp_sent">
<polygon fill="#ffffff" stroke="#000000" points="362,-38.5 362,-57.5 439,-57.5 439,-38.5 362,-38.5"/>
<text text-anchor="middle" x="400.5" y="-45.5" font-family="Helvetica,sans-Serif" font-size="10.00" fill="#000000">espconn_tcp_sent</text>
</a>
</g>
</g>
<!-- Node63&#45;&gt;Node64 -->
<g id="edge3" class="edge">
<title>Node63&#45;&gt;Node64</title>
<path fill="none" stroke="#191970" d="M321.7884,-48C331.3698,-48 341.7149,-48 351.6565,-48"/>
<polygon fill="#191970" stroke="#191970" points="351.8217,-51.5001 361.8217,-48 351.8216,-44.5001 351.8217,-51.5001"/>
</g>
</g>
</svg>
