<?xml version="1.0" encoding="UTF-8" standalone="no"?>
<!DOCTYPE svg PUBLIC "-//W3C//DTD SVG 1.1//EN"
 "http://www.w3.org/Graphics/SVG/1.1/DTD/svg11.dtd">
<!-- Generated by graphviz version 2.40.1 (20161225.0304)
 -->
<!-- Title: espconn_udp_server Pages: 1 -->
<svg width="502pt" height="142pt"
 viewBox="0.00 0.00 502.00 142.00" xmlns="http://www.w3.org/2000/svg" xmlns:xlink="http://www.w3.org/1999/xlink">
<g id="graph0" class="graph" transform="scale(1 1) rotate(0) translate(4 138)">
<title>espconn_udp_server</title>
<polygon fill="#ffffff" stroke="transparent" points="-4,4 -4,-138 498,-138 498,4 -4,4"/>
<!-- Node103 -->
<g id="node1" class="node">
<title>Node103</title>
<polygon fill="#bfbfbf" stroke="#000000" points="0,-76.5 0,-95.5 87,-95.5 87,-76.5 0,-76.5"/>
<text text-anchor="middle" x="43.5" y="-83.5" font-family="Helvetica,sans-Serif" font-size="10.00" fill="#000000">espconn_udp_server</text>
</g>
<!-- Node104 -->
<g id="node2" class="node">
<title>Node104</title>
<g id="a_node2"><a xlink:href="esp-open-lwip_2include_2lwip_2app_2espconn_8h.html#ae65b40a3ff0ee3fe9b764523fa4a3c48" target="_top" xlink:title="espconn_list_creat">
<polygon fill="#ffffff" stroke="#000000" points="123.5,-95.5 123.5,-114.5 202.5,-114.5 202.5,-95.5 123.5,-95.5"/>
<text text-anchor="middle" x="163" y="-102.5" font-family="Helvetica,sans-Serif" font-size="10.00" fill="#000000">espconn_list_creat</text>
</a>
</g>
</g>
<!-- Node103&#45;&gt;Node104 -->
<g id="edge1" class="edge">
<title>Node103&#45;&gt;Node104</title>
<path fill="none" stroke="#191970" d="M87.3188,-92.967C95.7452,-94.3068 104.6277,-95.719 113.2264,-97.0862"/>
<polygon fill="#191970" stroke="#191970" points="112.7204,-100.5496 123.1459,-98.6634 113.8196,-93.6365 112.7204,-100.5496"/>
</g>
<!-- Node105 -->
<g id="node3" class="node">
<title>Node105</title>
<g id="a_node3"><a xlink:href="espconn__udp_8c.html#ac52ad5e01c1a769947766d4a890f1cc7" target="_top" xlink:title="espconn_udp_recv">
<polygon fill="#ffffff" stroke="#000000" points="123,-57.5 123,-76.5 203,-76.5 203,-57.5 123,-57.5"/>
<text text-anchor="middle" x="163" y="-64.5" font-family="Helvetica,sans-Serif" font-size="10.00" fill="#000000">espconn_udp_recv</text>
</a>
</g>
</g>
<!-- Node103&#45;&gt;Node105 -->
<g id="edge2" class="edge">
<title>Node103&#45;&gt;Node105</title>
<path fill="none" stroke="#191970" d="M87.3188,-79.033C95.5589,-77.7228 104.2351,-76.3434 112.6556,-75.0045"/>
<polygon fill="#191970" stroke="#191970" points="113.4272,-78.4259 122.7536,-73.399 112.328,-71.5127 113.4272,-78.4259"/>
</g>
<!-- Node106 -->
<g id="node4" class="node">
<title>Node106</title>
<g id="a_node4"><a xlink:href="pbuf_8h.html#ab0a418a2392133e6b18c7b19f7c04500" target="_top" xlink:title="pbuf_copy_partial">
<polygon fill="#ffffff" stroke="#000000" points="239,-114.5 239,-133.5 315,-133.5 315,-114.5 239,-114.5"/>
<text text-anchor="middle" x="277" y="-121.5" font-family="Helvetica,sans-Serif" font-size="10.00" fill="#000000">pbuf_copy_partial</text>
</a>
</g>
</g>
<!-- Node105&#45;&gt;Node106 -->
<g id="edge3" class="edge">
<title>Node105&#45;&gt;Node106</title>
<path fill="none" stroke="#191970" d="M183.4296,-76.5008C189.732,-79.4862 196.6765,-82.8312 203,-86 219.1745,-94.1052 222.9082,-96.7319 239,-105 242.1122,-106.5991 245.3758,-108.2579 248.6278,-109.8995"/>
<polygon fill="#191970" stroke="#191970" points="247.1194,-113.0585 257.6269,-114.4161 250.2594,-106.8022 247.1194,-113.0585"/>
</g>
<!-- Node107 -->
<g id="node5" class="node">
<title>Node107</title>
<g id="a_node5"><a xlink:href="pbuf_8h.html#a0d26e00e2cf975274139d27ddabd7ed3" target="_top" xlink:title="pbuf_free">
<polygon fill="#ffffff" stroke="#000000" points="253,-76.5 253,-95.5 301,-95.5 301,-76.5 253,-76.5"/>
<text text-anchor="middle" x="277" y="-83.5" font-family="Helvetica,sans-Serif" font-size="10.00" fill="#000000">pbuf_free</text>
</a>
</g>
</g>
<!-- Node105&#45;&gt;Node107 -->
<g id="edge4" class="edge">
<title>Node105&#45;&gt;Node107</title>
<path fill="none" stroke="#191970" d="M203.1921,-73.6987C216.1131,-75.8522 230.2996,-78.2166 242.7526,-80.2921"/>
<polygon fill="#191970" stroke="#191970" points="242.3002,-83.7649 252.7396,-81.9566 243.4511,-76.8601 242.3002,-83.7649"/>
</g>
<!-- Node111 -->
<g id="node9" class="node">
<title>Node111</title>
<g id="a_node9"><a xlink:href="user__interface_8h.html#a70c442301412fe5d3711a8f0b8c7b7b5" target="_top" xlink:title="wifi_get_ip_info">
<polygon fill="#ffffff" stroke="#000000" points="243,-38.5 243,-57.5 311,-57.5 311,-38.5 243,-38.5"/>
<text text-anchor="middle" x="277" y="-45.5" font-family="Helvetica,sans-Serif" font-size="10.00" fill="#000000">wifi_get_ip_info</text>
</a>
</g>
</g>
<!-- Node105&#45;&gt;Node111 -->
<g id="edge8" class="edge">
<title>Node105&#45;&gt;Node111</title>
<path fill="none" stroke="#191970" d="M203.1921,-60.3013C212.8027,-58.6995 223.1134,-56.9811 232.8902,-55.3516"/>
<polygon fill="#191970" stroke="#191970" points="233.5451,-58.7908 242.8337,-53.6944 232.3943,-51.8861 233.5451,-58.7908"/>
</g>
<!-- Node112 -->
<g id="node10" class="node">
<title>Node112</title>
<g id="a_node10"><a xlink:href="user__interface_8h.html#a48d756265c0c1c35ba1fba102efe4d0a" target="_top" xlink:title="wifi_get_opmode">
<polygon fill="#ffffff" stroke="#000000" points="240.5,-.5 240.5,-19.5 313.5,-19.5 313.5,-.5 240.5,-.5"/>
<text text-anchor="middle" x="277" y="-7.5" font-family="Helvetica,sans-Serif" font-size="10.00" fill="#000000">wifi_get_opmode</text>
</a>
</g>
</g>
<!-- Node105&#45;&gt;Node112 -->
<g id="edge9" class="edge">
<title>Node105&#45;&gt;Node112</title>
<path fill="none" stroke="#191970" d="M182.081,-57.4595C200.3299,-48.335 228.0689,-34.4656 248.8548,-24.0726"/>
<polygon fill="#191970" stroke="#191970" points="250.4777,-27.1743 257.8567,-19.5716 247.3472,-20.9133 250.4777,-27.1743"/>
</g>
<!-- Node108 -->
<g id="node6" class="node">
<title>Node108</title>
<g id="a_node6"><a xlink:href="esp-open-lwip_2include_2lwip_2mem_8h.html#ab270bbe39e1996d7095be3a139620ce0" target="_top" xlink:title="mem_free">
<polygon fill="#ffffff" stroke="#000000" points="353,-95.5 353,-114.5 403,-114.5 403,-95.5 353,-95.5"/>
<text text-anchor="middle" x="378" y="-102.5" font-family="Helvetica,sans-Serif" font-size="10.00" fill="#000000">mem_free</text>
</a>
</g>
</g>
<!-- Node107&#45;&gt;Node108 -->
<g id="edge5" class="edge">
<title>Node107&#45;&gt;Node108</title>
<path fill="none" stroke="#191970" d="M301.192,-90.551C313.6554,-92.8956 329.0848,-95.7981 342.8375,-98.3853"/>
<polygon fill="#191970" stroke="#191970" points="342.4759,-101.8786 352.9506,-100.2877 343.7701,-94.9992 342.4759,-101.8786"/>
</g>
<!-- Node110 -->
<g id="node8" class="node">
<title>Node110</title>
<g id="a_node8"><a xlink:href="memp_8h.html#a9d30a969401eb0626105950d6e63f3bf" target="_top" xlink:title="memp_free">
<polygon fill="#ffffff" stroke="#000000" points="351,-57.5 351,-76.5 405,-76.5 405,-57.5 351,-57.5"/>
<text text-anchor="middle" x="378" y="-64.5" font-family="Helvetica,sans-Serif" font-size="10.00" fill="#000000">memp_free</text>
</a>
</g>
</g>
<!-- Node107&#45;&gt;Node110 -->
<g id="edge7" class="edge">
<title>Node107&#45;&gt;Node110</title>
<path fill="none" stroke="#191970" d="M301.192,-81.449C312.9806,-79.2314 327.4228,-76.5145 340.5898,-74.0376"/>
<polygon fill="#191970" stroke="#191970" points="341.6205,-77.4052 350.801,-72.1166 340.3263,-70.5258 341.6205,-77.4052"/>
</g>
<!-- Node109 -->
<g id="node7" class="node">
<title>Node109</title>
<g id="a_node7"><a xlink:href="mem_8c.html#a24221009a2c00e9c3fa63eaa9444a076" target="_top" xlink:title="plug_holes">
<polygon fill="#ffffff" stroke="#000000" points="441,-95.5 441,-114.5 494,-114.5 494,-95.5 441,-95.5"/>
<text text-anchor="middle" x="467.5" y="-102.5" font-family="Helvetica,sans-Serif" font-size="10.00" fill="#000000">plug_holes</text>
</a>
</g>
</g>
<!-- Node108&#45;&gt;Node109 -->
<g id="edge6" class="edge">
<title>Node108&#45;&gt;Node109</title>
<path fill="none" stroke="#191970" d="M403.4077,-105C411.8937,-105 421.5288,-105 430.7031,-105"/>
<polygon fill="#191970" stroke="#191970" points="430.7797,-108.5001 440.7796,-105 430.7796,-101.5001 430.7797,-108.5001"/>
</g>
</g>
</svg>
