<?xml version="1.0" encoding="UTF-8" standalone="no"?>
<!DOCTYPE svg PUBLIC "-//W3C//DTD SVG 1.1//EN"
 "http://www.w3.org/Graphics/SVG/1.1/DTD/svg11.dtd">
<!-- Generated by graphviz version 2.40.1 (20161225.0304)
 -->
<!-- Title: espconn_tcp_server Pages: 1 -->
<svg width="748pt" height="385pt"
 viewBox="0.00 0.00 748.00 384.66" xmlns="http://www.w3.org/2000/svg" xmlns:xlink="http://www.w3.org/1999/xlink">
<g id="graph0" class="graph" transform="scale(1 1) rotate(0) translate(4 380.6556)">
<title>espconn_tcp_server</title>
<polygon fill="#ffffff" stroke="transparent" points="-4,4 -4,-380.6556 744,-380.6556 744,4 -4,4"/>
<!-- Node48 -->
<g id="node1" class="node">
<title>Node48</title>
<polygon fill="#bfbfbf" stroke="#000000" points="0,-193.1556 0,-212.1556 84,-212.1556 84,-193.1556 0,-193.1556"/>
<text text-anchor="middle" x="42" y="-200.1556" font-family="Helvetica,sans-Serif" font-size="10.00" fill="#000000">espconn_tcp_server</text>
</g>
<!-- Node49 -->
<g id="node2" class="node">
<title>Node49</title>
<g id="a_node2"><a xlink:href="esp-open-lwip_2include_2lwip_2app_2espconn_8h.html#ae65b40a3ff0ee3fe9b764523fa4a3c48" target="_top" xlink:title="espconn_list_creat">
<polygon fill="#ffffff" stroke="#000000" points="259.5,-357.1556 259.5,-376.1556 338.5,-376.1556 338.5,-357.1556 259.5,-357.1556"/>
<text text-anchor="middle" x="299" y="-364.1556" font-family="Helvetica,sans-Serif" font-size="10.00" fill="#000000">espconn_list_creat</text>
</a>
</g>
</g>
<!-- Node48&#45;&gt;Node49 -->
<g id="edge1" class="edge">
<title>Node48&#45;&gt;Node49</title>
<path fill="none" stroke="#191970" d="M52.8379,-212.4968C81.5238,-238.0906 162.6145,-307.5292 241,-347.6556 245.2562,-349.8344 249.814,-351.8354 254.4349,-353.6536"/>
<polygon fill="#191970" stroke="#191970" points="253.3382,-356.9792 263.932,-357.1275 255.7429,-350.4052 253.3382,-356.9792"/>
</g>
<!-- Node50 -->
<g id="node3" class="node">
<title>Node50</title>
<g id="a_node3"><a xlink:href="espconn__tcp_8c.html#acf0ecfba42ea8bcc55836b8dccabe511" target="_top" xlink:title="espconn_tcp_accept">
<polygon fill="#ffffff" stroke="#000000" points="120,-193.1556 120,-212.1556 205,-212.1556 205,-193.1556 120,-193.1556"/>
<text text-anchor="middle" x="162.5" y="-200.1556" font-family="Helvetica,sans-Serif" font-size="10.00" fill="#000000">espconn_tcp_accept</text>
</a>
</g>
</g>
<!-- Node48&#45;&gt;Node50 -->
<g id="edge2" class="edge">
<title>Node48&#45;&gt;Node50</title>
<path fill="none" stroke="#191970" d="M84.1451,-202.6556C92.3476,-202.6556 101.0437,-202.6556 109.5433,-202.6556"/>
<polygon fill="#191970" stroke="#191970" points="109.7671,-206.1557 119.7671,-202.6556 109.7671,-199.1557 109.7671,-206.1557"/>
</g>
<!-- Node64 -->
<g id="node17" class="node">
<title>Node64</title>
<g id="a_node17"><a xlink:href="memp_8h.html#a9d30a969401eb0626105950d6e63f3bf" target="_top" xlink:title="memp_free">
<polygon fill="#ffffff" stroke="#000000" points="556,-35.1556 556,-54.1556 610,-54.1556 610,-35.1556 556,-35.1556"/>
<text text-anchor="middle" x="583" y="-42.1556" font-family="Helvetica,sans-Serif" font-size="10.00" fill="#000000">memp_free</text>
</a>
</g>
</g>
<!-- Node48&#45;&gt;Node64 -->
<g id="edge25" class="edge">
<title>Node48&#45;&gt;Node64</title>
<path fill="none" stroke="#191970" d="M48.4433,-192.8981C70.5224,-160.4743 146.9812,-56.3135 241,-19.6556 345.7731,21.1954 482.1308,-11.8503 546.4186,-31.9818"/>
<polygon fill="#191970" stroke="#191970" points="545.5105,-35.3661 556.1017,-35.0886 547.6491,-28.7008 545.5105,-35.3661"/>
</g>
<!-- Node50&#45;&gt;Node49 -->
<g id="edge6" class="edge">
<title>Node50&#45;&gt;Node49</title>
<path fill="none" stroke="#191970" d="M167.1962,-212.2911C182.2871,-243.1105 229.2431,-337.8413 241,-347.6556 243.8521,-350.0364 247.0109,-352.1215 250.339,-353.9472"/>
<polygon fill="#191970" stroke="#191970" points="248.9074,-357.1414 259.4494,-358.199 251.8678,-350.7982 248.9074,-357.1414"/>
</g>
<!-- Node51 -->
<g id="node4" class="node">
<title>Node51</title>
<g id="a_node4"><a xlink:href="espconn__tcp_8c.html#a70940b6d5142095e412400b06aebf3d2" target="_top" xlink:title="esponn_server_err">
<polygon fill="#ffffff" stroke="#000000" points="259.5,-319.1556 259.5,-338.1556 338.5,-338.1556 338.5,-319.1556 259.5,-319.1556"/>
<text text-anchor="middle" x="299" y="-326.1556" font-family="Helvetica,sans-Serif" font-size="10.00" fill="#000000">esponn_server_err</text>
</a>
</g>
</g>
<!-- Node50&#45;&gt;Node51 -->
<g id="edge3" class="edge">
<title>Node50&#45;&gt;Node51</title>
<path fill="none" stroke="#191970" d="M166.921,-212.2053C177.0344,-233.017 203.8778,-282.7477 241,-309.6556 243.8311,-311.7077 246.8962,-313.5465 250.0877,-315.1929"/>
<polygon fill="#191970" stroke="#191970" points="248.7717,-318.4385 259.3281,-319.3405 251.6382,-312.0524 248.7717,-318.4385"/>
</g>
<!-- Node52 -->
<g id="node5" class="node">
<title>Node52</title>
<g id="a_node5"><a xlink:href="esp-open-lwip_2include_2lwip_2app_2espconn_8h.html#a95deabffd3b8a4bec81f91596901f84d" target="_top" xlink:title="espconn_get_connection_info">
<polygon fill="#ffffff" stroke="#000000" points="241,-281.1556 241,-300.1556 357,-300.1556 357,-281.1556 241,-281.1556"/>
<text text-anchor="middle" x="299" y="-288.1556" font-family="Helvetica,sans-Serif" font-size="10.00" fill="#000000">espconn_get_connection_info</text>
</a>
</g>
</g>
<!-- Node50&#45;&gt;Node52 -->
<g id="edge4" class="edge">
<title>Node50&#45;&gt;Node52</title>
<path fill="none" stroke="#191970" d="M171.1969,-212.514C184.7442,-227.3139 212.3222,-255.2805 241,-271.6556 244.6749,-273.754 248.6147,-275.66 252.6475,-277.3827"/>
<polygon fill="#191970" stroke="#191970" points="251.556,-280.7135 262.1448,-281.0738 254.0918,-274.189 251.556,-280.7135"/>
</g>
<!-- Node53 -->
<g id="node6" class="node">
<title>Node53</title>
<g id="a_node6"><a xlink:href="esp-open-lwip_2include_2lwip_2app_2espconn_8h.html#a8418023ae67bd83742d7d2642c3d4da0" target="_top" xlink:title="espconn_tcp_get_max\l_con_allow">
<polygon fill="#ffffff" stroke="#000000" points="253,-231.6556 253,-261.6556 345,-261.6556 345,-231.6556 253,-231.6556"/>
<text text-anchor="start" x="261" y="-249.6556" font-family="Helvetica,sans-Serif" font-size="10.00" fill="#000000">espconn_tcp_get_max</text>
<text text-anchor="middle" x="299" y="-238.6556" font-family="Helvetica,sans-Serif" font-size="10.00" fill="#000000">_con_allow</text>
</a>
</g>
</g>
<!-- Node50&#45;&gt;Node53 -->
<g id="edge5" class="edge">
<title>Node50&#45;&gt;Node53</title>
<path fill="none" stroke="#191970" d="M192.1185,-212.2029C207.0702,-217.0226 225.7102,-223.0311 243.2173,-228.6744"/>
<polygon fill="#191970" stroke="#191970" points="242.2047,-232.0252 252.7963,-231.7621 244.3523,-225.3628 242.2047,-232.0252"/>
</g>
<!-- Node54 -->
<g id="node7" class="node">
<title>Node54</title>
<g id="a_node7"><a xlink:href="esp-open-lwip_2include_2lwip_2app_2espconn_8h.html#a760ff135a8707ff3f481ba00d7312011" target="_top" xlink:title="espconn_copy_partial">
<polygon fill="#ffffff" stroke="#000000" points="254.5,-193.1556 254.5,-212.1556 343.5,-212.1556 343.5,-193.1556 254.5,-193.1556"/>
<text text-anchor="middle" x="299" y="-200.1556" font-family="Helvetica,sans-Serif" font-size="10.00" fill="#000000">espconn_copy_partial</text>
</a>
</g>
</g>
<!-- Node50&#45;&gt;Node54 -->
<g id="edge7" class="edge">
<title>Node50&#45;&gt;Node54</title>
<path fill="none" stroke="#191970" d="M205.3149,-202.6556C217.6536,-202.6556 231.2865,-202.6556 244.2436,-202.6556"/>
<polygon fill="#191970" stroke="#191970" points="244.4524,-206.1557 254.4524,-202.6556 244.4523,-199.1557 244.4524,-206.1557"/>
</g>
<!-- Node55 -->
<g id="node8" class="node">
<title>Node55</title>
<g id="a_node8"><a xlink:href="espconn__tcp_8c.html#a5a1aa400ea4ec663cfc57a637ce0f7bf" target="_top" xlink:title="espconn_server_sent">
<polygon fill="#ffffff" stroke="#000000" points="255,-155.1556 255,-174.1556 343,-174.1556 343,-155.1556 255,-155.1556"/>
<text text-anchor="middle" x="299" y="-162.1556" font-family="Helvetica,sans-Serif" font-size="10.00" fill="#000000">espconn_server_sent</text>
</a>
</g>
</g>
<!-- Node50&#45;&gt;Node55 -->
<g id="edge8" class="edge">
<title>Node50&#45;&gt;Node55</title>
<path fill="none" stroke="#191970" d="M196.9447,-193.0666C214.4847,-188.1837 236.01,-182.1913 254.7631,-176.9706"/>
<polygon fill="#191970" stroke="#191970" points="255.8713,-180.2953 264.5663,-174.2415 253.994,-173.5517 255.8713,-180.2953"/>
</g>
<!-- Node60 -->
<g id="node13" class="node">
<title>Node60</title>
<g id="a_node13"><a xlink:href="espconn__tcp_8c.html#afc71eebe6b5059ad2b6503c328e8d8c5" target="_top" xlink:title="espconn_server_recv">
<polygon fill="#ffffff" stroke="#000000" points="255,-117.1556 255,-136.1556 343,-136.1556 343,-117.1556 255,-117.1556"/>
<text text-anchor="middle" x="299" y="-124.1556" font-family="Helvetica,sans-Serif" font-size="10.00" fill="#000000">espconn_server_recv</text>
</a>
</g>
</g>
<!-- Node50&#45;&gt;Node60 -->
<g id="edge13" class="edge">
<title>Node50&#45;&gt;Node60</title>
<path fill="none" stroke="#191970" d="M173.4699,-192.9612C188.0164,-180.5292 214.9027,-158.9879 241,-145.6556 245.258,-143.4803 249.817,-141.4816 254.4385,-139.6647"/>
<polygon fill="#191970" stroke="#191970" points="255.7462,-142.9133 263.9365,-136.1925 253.3427,-136.3389 255.7462,-142.9133"/>
</g>
<!-- Node68 -->
<g id="node21" class="node">
<title>Node68</title>
<g id="a_node21"><a xlink:href="espconn__tcp_8c.html#af3868ea055aae73a6f4de8866d31aceb" target="_top" xlink:title="espconn_server_poll">
<polygon fill="#ffffff" stroke="#000000" points="256,-79.1556 256,-98.1556 342,-98.1556 342,-79.1556 256,-79.1556"/>
<text text-anchor="middle" x="299" y="-86.1556" font-family="Helvetica,sans-Serif" font-size="10.00" fill="#000000">espconn_server_poll</text>
</a>
</g>
</g>
<!-- Node50&#45;&gt;Node68 -->
<g id="edge22" class="edge">
<title>Node50&#45;&gt;Node68</title>
<path fill="none" stroke="#191970" d="M167.8755,-193.0476C179.0253,-173.9762 206.5286,-131.1575 241,-107.6556 243.8891,-105.6859 246.9971,-103.9082 250.2196,-102.3059"/>
<polygon fill="#191970" stroke="#191970" points="251.7574,-105.4536 259.5177,-98.2405 248.9531,-99.0398 251.7574,-105.4536"/>
</g>
<!-- Node69 -->
<g id="node22" class="node">
<title>Node69</title>
<g id="a_node22"><a xlink:href="esp-open-lwip_2include_2lwip_2app_2espconn_8h.html#aebb1efce8ecc198f9e9a663b69f42113" target="_top" xlink:title="espconn_tcp_set_buf\l_count">
<polygon fill="#ffffff" stroke="#000000" points="255,-29.6556 255,-59.6556 343,-59.6556 343,-29.6556 255,-29.6556"/>
<text text-anchor="start" x="263" y="-47.6556" font-family="Helvetica,sans-Serif" font-size="10.00" fill="#000000">espconn_tcp_set_buf</text>
<text text-anchor="middle" x="299" y="-36.6556" font-family="Helvetica,sans-Serif" font-size="10.00" fill="#000000">_count</text>
</a>
</g>
</g>
<!-- Node50&#45;&gt;Node69 -->
<g id="edge24" class="edge">
<title>Node50&#45;&gt;Node69</title>
<path fill="none" stroke="#191970" d="M165.8211,-192.8981C174.4796,-168.8019 199.9609,-105.8157 241,-69.6556 242.738,-68.1243 244.584,-66.6754 246.5086,-65.3059"/>
<polygon fill="#191970" stroke="#191970" points="248.716,-68.0546 255.3568,-59.7992 245.0174,-62.1115 248.716,-68.0546"/>
</g>
<!-- Node56 -->
<g id="node9" class="node">
<title>Node56</title>
<g id="a_node9"><a xlink:href="espconn__tcp_8c.html#a46f54f8c9e0dbc0c03f7666380fa3bbd" target="_top" xlink:title="espconn_tcp_finish">
<polygon fill="#ffffff" stroke="#000000" points="407.5,-212.1556 407.5,-231.1556 488.5,-231.1556 488.5,-212.1556 407.5,-212.1556"/>
<text text-anchor="middle" x="448" y="-219.1556" font-family="Helvetica,sans-Serif" font-size="10.00" fill="#000000">espconn_tcp_finish</text>
</a>
</g>
</g>
<!-- Node55&#45;&gt;Node56 -->
<g id="edge9" class="edge">
<title>Node55&#45;&gt;Node56</title>
<path fill="none" stroke="#191970" d="M331.5702,-174.2547C339.96,-177.0175 348.9033,-180.2219 357,-183.6556 373.6558,-190.7191 376.4014,-195.4587 393,-202.6556 397.8008,-204.7372 402.9105,-206.7542 408.0076,-208.6477"/>
<polygon fill="#191970" stroke="#191970" points="407.1148,-212.0455 417.7093,-212.1209 409.4742,-205.4551 407.1148,-212.0455"/>
</g>
<!-- Node57 -->
<g id="node10" class="node">
<title>Node57</title>
<g id="a_node10"><a xlink:href="espconn__tcp_8c.html#afedfd58842e55800f23f90ed00b0a967" target="_top" xlink:title="espconn_tcp_write">
<polygon fill="#ffffff" stroke="#000000" points="543.5,-231.1556 543.5,-250.1556 622.5,-250.1556 622.5,-231.1556 543.5,-231.1556"/>
<text text-anchor="middle" x="583" y="-238.1556" font-family="Helvetica,sans-Serif" font-size="10.00" fill="#000000">espconn_tcp_write</text>
</a>
</g>
</g>
<!-- Node56&#45;&gt;Node57 -->
<g id="edge10" class="edge">
<title>Node56&#45;&gt;Node57</title>
<path fill="none" stroke="#191970" d="M488.5045,-227.3562C502.6397,-229.3456 518.6659,-231.6012 533.4527,-233.6823"/>
<polygon fill="#191970" stroke="#191970" points="533.063,-237.1618 543.4532,-235.0897 534.0386,-230.2301 533.063,-237.1618"/>
</g>
<!-- Node59 -->
<g id="node12" class="node">
<title>Node59</title>
<g id="a_node12"><a xlink:href="espconn_8c.html#a5c499e423f91737c0214031fd67fdb1f" target="_top" xlink:title="espconn_pbuf_delete">
<polygon fill="#ffffff" stroke="#000000" points="539,-193.1556 539,-212.1556 627,-212.1556 627,-193.1556 539,-193.1556"/>
<text text-anchor="middle" x="583" y="-200.1556" font-family="Helvetica,sans-Serif" font-size="10.00" fill="#000000">espconn_pbuf_delete</text>
</a>
</g>
</g>
<!-- Node56&#45;&gt;Node59 -->
<g id="edge12" class="edge">
<title>Node56&#45;&gt;Node59</title>
<path fill="none" stroke="#191970" d="M488.5045,-215.955C501.1301,-214.178 515.2643,-212.1888 528.6764,-210.3011"/>
<polygon fill="#191970" stroke="#191970" points="529.3405,-213.7423 538.7551,-208.8827 528.3648,-206.8106 529.3405,-213.7423"/>
</g>
<!-- Node58 -->
<g id="node11" class="node">
<title>Node58</title>
<g id="a_node11"><a xlink:href="espconn__tcp_8c.html#a5a4844397c6068a44e5422de0eadcb86" target="_top" xlink:title="espconn_tcp_sent">
<polygon fill="#ffffff" stroke="#000000" points="663,-231.1556 663,-250.1556 740,-250.1556 740,-231.1556 663,-231.1556"/>
<text text-anchor="middle" x="701.5" y="-238.1556" font-family="Helvetica,sans-Serif" font-size="10.00" fill="#000000">espconn_tcp_sent</text>
</a>
</g>
</g>
<!-- Node57&#45;&gt;Node58 -->
<g id="edge11" class="edge">
<title>Node57&#45;&gt;Node58</title>
<path fill="none" stroke="#191970" d="M622.7884,-240.6556C632.3698,-240.6556 642.7149,-240.6556 652.6565,-240.6556"/>
<polygon fill="#191970" stroke="#191970" points="652.8217,-244.1557 662.8217,-240.6556 652.8216,-237.1557 652.8217,-244.1557"/>
</g>
<!-- Node61 -->
<g id="node14" class="node">
<title>Node61</title>
<g id="a_node14"><a xlink:href="user__interface_8h.html#a258edd68184bb78f062a3b375dca997c" target="_top" xlink:title="system_get_free_heap_size">
<polygon fill="#ffffff" stroke="#000000" points="393,-174.1556 393,-193.1556 503,-193.1556 503,-174.1556 393,-174.1556"/>
<text text-anchor="middle" x="448" y="-181.1556" font-family="Helvetica,sans-Serif" font-size="10.00" fill="#000000">system_get_free_heap_size</text>
</a>
</g>
</g>
<!-- Node60&#45;&gt;Node61 -->
<g id="edge14" class="edge">
<title>Node60&#45;&gt;Node61</title>
<path fill="none" stroke="#191970" d="M331.5702,-136.2547C339.96,-139.0175 348.9033,-142.2219 357,-145.6556 373.6558,-152.7191 376.4014,-157.4587 393,-164.6556 397.8008,-166.7372 402.9105,-168.7542 408.0076,-170.6477"/>
<polygon fill="#191970" stroke="#191970" points="407.1148,-174.0455 417.7093,-174.1209 409.4742,-167.4551 407.1148,-174.0455"/>
</g>
<!-- Node62 -->
<g id="node15" class="node">
<title>Node62</title>
<g id="a_node15"><a xlink:href="pbuf_8h.html#ab0a418a2392133e6b18c7b19f7c04500" target="_top" xlink:title="pbuf_copy_partial">
<polygon fill="#ffffff" stroke="#000000" points="410,-136.1556 410,-155.1556 486,-155.1556 486,-136.1556 410,-136.1556"/>
<text text-anchor="middle" x="448" y="-143.1556" font-family="Helvetica,sans-Serif" font-size="10.00" fill="#000000">pbuf_copy_partial</text>
</a>
</g>
</g>
<!-- Node60&#45;&gt;Node62 -->
<g id="edge15" class="edge">
<title>Node60&#45;&gt;Node62</title>
<path fill="none" stroke="#191970" d="M343.3015,-132.3048C361.0245,-134.5648 381.4922,-137.1747 399.6036,-139.4842"/>
<polygon fill="#191970" stroke="#191970" points="399.3102,-142.9751 409.6727,-140.7682 400.1957,-136.0313 399.3102,-142.9751"/>
</g>
<!-- Node63 -->
<g id="node16" class="node">
<title>Node63</title>
<g id="a_node16"><a xlink:href="pbuf_8h.html#a0d26e00e2cf975274139d27ddabd7ed3" target="_top" xlink:title="pbuf_free">
<polygon fill="#ffffff" stroke="#000000" points="424,-98.1556 424,-117.1556 472,-117.1556 472,-98.1556 424,-98.1556"/>
<text text-anchor="middle" x="448" y="-105.1556" font-family="Helvetica,sans-Serif" font-size="10.00" fill="#000000">pbuf_free</text>
</a>
</g>
</g>
<!-- Node60&#45;&gt;Node63 -->
<g id="edge16" class="edge">
<title>Node60&#45;&gt;Node63</title>
<path fill="none" stroke="#191970" d="M343.3015,-121.0064C365.9041,-118.1242 392.9708,-114.6727 413.921,-112.0012"/>
<polygon fill="#191970" stroke="#191970" points="414.488,-115.4574 423.9649,-110.7205 413.6025,-108.5136 414.488,-115.4574"/>
</g>
<!-- Node67 -->
<g id="node20" class="node">
<title>Node67</title>
<g id="a_node20"><a xlink:href="espconn__tcp_8c.html#a1c87d6afab08e5f7f51a212a20547dee" target="_top" xlink:title="espconn_server_close">
<polygon fill="#ffffff" stroke="#000000" points="402,-60.1556 402,-79.1556 494,-79.1556 494,-60.1556 402,-60.1556"/>
<text text-anchor="middle" x="448" y="-67.1556" font-family="Helvetica,sans-Serif" font-size="10.00" fill="#000000">espconn_server_close</text>
</a>
</g>
</g>
<!-- Node60&#45;&gt;Node67 -->
<g id="edge20" class="edge">
<title>Node60&#45;&gt;Node67</title>
<path fill="none" stroke="#191970" d="M309.8897,-117.0527C321.6981,-111.3296 341.0018,-105.4402 357,-98.6556 371.3136,-92.5854 375.3541,-88.2315 392.3797,-80.2495"/>
<polygon fill="#191970" stroke="#191970" points="394.1724,-83.2825 401.8828,-76.0162 391.3239,-76.8883 394.1724,-83.2825"/>
</g>
<!-- Node63&#45;&gt;Node64 -->
<g id="edge17" class="edge">
<title>Node63&#45;&gt;Node64</title>
<path fill="none" stroke="#191970" d="M472.166,-100.2954C481.8907,-97.0796 493.12,-93.0409 503,-88.6556 522.1966,-80.1351 542.9527,-68.6476 558.5114,-59.547"/>
<polygon fill="#191970" stroke="#191970" points="560.6504,-62.3477 567.4669,-54.2368 557.0802,-56.3266 560.6504,-62.3477"/>
</g>
<!-- Node65 -->
<g id="node18" class="node">
<title>Node65</title>
<g id="a_node18"><a xlink:href="esp-open-lwip_2include_2lwip_2mem_8h.html#ab270bbe39e1996d7095be3a139620ce0" target="_top" xlink:title="mem_free">
<polygon fill="#ffffff" stroke="#000000" points="558,-98.1556 558,-117.1556 608,-117.1556 608,-98.1556 558,-98.1556"/>
<text text-anchor="middle" x="583" y="-105.1556" font-family="Helvetica,sans-Serif" font-size="10.00" fill="#000000">mem_free</text>
</a>
</g>
</g>
<!-- Node63&#45;&gt;Node65 -->
<g id="edge18" class="edge">
<title>Node63&#45;&gt;Node65</title>
<path fill="none" stroke="#191970" d="M472.1353,-107.6556C493.1439,-107.6556 523.8716,-107.6556 547.6522,-107.6556"/>
<polygon fill="#191970" stroke="#191970" points="547.6992,-111.1557 557.6991,-107.6556 547.6991,-104.1557 547.6992,-111.1557"/>
</g>
<!-- Node66 -->
<g id="node19" class="node">
<title>Node66</title>
<g id="a_node19"><a xlink:href="mem_8c.html#a24221009a2c00e9c3fa63eaa9444a076" target="_top" xlink:title="plug_holes">
<polygon fill="#ffffff" stroke="#000000" points="675,-98.1556 675,-117.1556 728,-117.1556 728,-98.1556 675,-98.1556"/>
<text text-anchor="middle" x="701.5" y="-105.1556" font-family="Helvetica,sans-Serif" font-size="10.00" fill="#000000">plug_holes</text>
</a>
</g>
</g>
<!-- Node65&#45;&gt;Node66 -->
<g id="edge19" class="edge">
<title>Node65&#45;&gt;Node66</title>
<path fill="none" stroke="#191970" d="M608.1308,-107.6556C624.5635,-107.6556 646.3077,-107.6556 664.6776,-107.6556"/>
<polygon fill="#191970" stroke="#191970" points="664.7586,-111.1557 674.7585,-107.6556 664.7585,-104.1557 664.7586,-111.1557"/>
</g>
<!-- Node67&#45;&gt;Node60 -->
<g id="edge21" class="edge">
<title>Node67&#45;&gt;Node60</title>
<path fill="none" stroke="#191970" d="M437.6851,-79.3337C426.4974,-85.1209 408.2005,-91.0649 393,-97.6556 376.4014,-104.8525 373.6558,-109.5921 357,-116.6556 355.6282,-117.2374 354.2321,-117.8125 352.8185,-118.3786"/>
<polygon fill="#191970" stroke="#191970" points="351.4352,-115.1594 343.3073,-121.9556 353.8993,-121.7114 351.4352,-115.1594"/>
</g>
<!-- Node68&#45;&gt;Node67 -->
<g id="edge23" class="edge">
<title>Node68&#45;&gt;Node67</title>
<path fill="none" stroke="#191970" d="M342.097,-83.16C357.6133,-81.1814 375.3541,-78.9192 391.8215,-76.8193"/>
<polygon fill="#191970" stroke="#191970" points="392.4021,-80.2737 401.8791,-75.5368 391.5166,-73.3299 392.4021,-80.2737"/>
</g>
</g>
</svg>
