<?xml version="1.0" encoding="UTF-8" standalone="no"?>
<!DOCTYPE svg PUBLIC "-//W3C//DTD SVG 1.1//EN"
 "http://www.w3.org/Graphics/SVG/1.1/DTD/svg11.dtd">
<!-- Generated by graphviz version 2.40.1 (20161225.0304)
 -->
<!-- Title: espconn_server_close Pages: 1 -->
<svg width="549pt" height="123pt"
 viewBox="0.00 0.00 549.00 123.00" xmlns="http://www.w3.org/2000/svg" xmlns:xlink="http://www.w3.org/1999/xlink">
<g id="graph0" class="graph" transform="scale(1 1) rotate(0) translate(4 119)">
<title>espconn_server_close</title>
<polygon fill="#ffffff" stroke="transparent" points="-4,4 -4,-119 545,-119 545,4 -4,4"/>
<!-- Node116 -->
<g id="node1" class="node">
<title>Node116</title>
<polygon fill="#bfbfbf" stroke="#000000" points="0,-57.5 0,-76.5 92,-76.5 92,-57.5 0,-57.5"/>
<text text-anchor="middle" x="46" y="-64.5" font-family="Helvetica,sans-Serif" font-size="10.00" fill="#000000">espconn_server_close</text>
</g>
<!-- Node117 -->
<g id="node2" class="node">
<title>Node117</title>
<g id="a_node2"><a xlink:href="espconn__tcp_8c.html#afc71eebe6b5059ad2b6503c328e8d8c5" target="_top" xlink:title="espconn_server_recv">
<polygon fill="#ffffff" stroke="#000000" points="128,-57.5 128,-76.5 216,-76.5 216,-57.5 128,-57.5"/>
<text text-anchor="middle" x="172" y="-64.5" font-family="Helvetica,sans-Serif" font-size="10.00" fill="#000000">espconn_server_recv</text>
</a>
</g>
</g>
<!-- Node116&#45;&gt;Node117 -->
<g id="edge1" class="edge">
<title>Node116&#45;&gt;Node117</title>
<path fill="none" stroke="#191970" d="M92.2023,-60.4679C100.4911,-60.2481 109.1985,-60.1946 117.691,-60.3074"/>
<polygon fill="#191970" stroke="#191970" points="117.8277,-63.8111 127.9009,-60.5276 117.9787,-56.8127 117.8277,-63.8111"/>
</g>
<!-- Node117&#45;&gt;Node116 -->
<g id="edge8" class="edge">
<title>Node117&#45;&gt;Node116</title>
<path fill="none" stroke="#191970" d="M127.9009,-73.4724C119.6877,-73.7206 111.0023,-73.8023 102.4778,-73.7177"/>
<polygon fill="#191970" stroke="#191970" points="102.2639,-70.2134 92.2023,-73.5321 102.1374,-77.2123 102.2639,-70.2134"/>
</g>
<!-- Node118 -->
<g id="node3" class="node">
<title>Node118</title>
<g id="a_node3"><a xlink:href="user__interface_8h.html#a258edd68184bb78f062a3b375dca997c" target="_top" xlink:title="system_get_free_heap_size">
<polygon fill="#ffffff" stroke="#000000" points="252,-95.5 252,-114.5 362,-114.5 362,-95.5 252,-95.5"/>
<text text-anchor="middle" x="307" y="-102.5" font-family="Helvetica,sans-Serif" font-size="10.00" fill="#000000">system_get_free_heap_size</text>
</a>
</g>
</g>
<!-- Node117&#45;&gt;Node118 -->
<g id="edge2" class="edge">
<title>Node117&#45;&gt;Node118</title>
<path fill="none" stroke="#191970" d="M206.0662,-76.589C223.4135,-81.4719 244.7022,-87.4643 263.2492,-92.685"/>
<polygon fill="#191970" stroke="#191970" points="262.3704,-96.0735 272.9447,-95.4141 264.2671,-89.3354 262.3704,-96.0735"/>
</g>
<!-- Node119 -->
<g id="node4" class="node">
<title>Node119</title>
<g id="a_node4"><a xlink:href="pbuf_8h.html#ab0a418a2392133e6b18c7b19f7c04500" target="_top" xlink:title="pbuf_copy_partial">
<polygon fill="#ffffff" stroke="#000000" points="269,-57.5 269,-76.5 345,-76.5 345,-57.5 269,-57.5"/>
<text text-anchor="middle" x="307" y="-64.5" font-family="Helvetica,sans-Serif" font-size="10.00" fill="#000000">pbuf_copy_partial</text>
</a>
</g>
</g>
<!-- Node117&#45;&gt;Node119 -->
<g id="edge3" class="edge">
<title>Node117&#45;&gt;Node119</title>
<path fill="none" stroke="#191970" d="M216.204,-67C229.6852,-67 244.5794,-67 258.3385,-67"/>
<polygon fill="#191970" stroke="#191970" points="258.5966,-70.5001 268.5966,-67 258.5966,-63.5001 258.5966,-70.5001"/>
</g>
<!-- Node120 -->
<g id="node5" class="node">
<title>Node120</title>
<g id="a_node5"><a xlink:href="pbuf_8h.html#a0d26e00e2cf975274139d27ddabd7ed3" target="_top" xlink:title="pbuf_free">
<polygon fill="#ffffff" stroke="#000000" points="283,-19.5 283,-38.5 331,-38.5 331,-19.5 283,-19.5"/>
<text text-anchor="middle" x="307" y="-26.5" font-family="Helvetica,sans-Serif" font-size="10.00" fill="#000000">pbuf_free</text>
</a>
</g>
</g>
<!-- Node117&#45;&gt;Node120 -->
<g id="edge4" class="edge">
<title>Node117&#45;&gt;Node120</title>
<path fill="none" stroke="#191970" d="M206.0662,-57.411C226.5135,-51.6555 252.4368,-44.3585 272.8916,-38.6009"/>
<polygon fill="#191970" stroke="#191970" points="274.0605,-41.908 282.7381,-35.8293 272.1638,-35.1698 274.0605,-41.908"/>
</g>
<!-- Node121 -->
<g id="node6" class="node">
<title>Node121</title>
<g id="a_node6"><a xlink:href="esp-open-lwip_2include_2lwip_2mem_8h.html#ab270bbe39e1996d7095be3a139620ce0" target="_top" xlink:title="mem_free">
<polygon fill="#ffffff" stroke="#000000" points="400,-38.5 400,-57.5 450,-57.5 450,-38.5 400,-38.5"/>
<text text-anchor="middle" x="425" y="-45.5" font-family="Helvetica,sans-Serif" font-size="10.00" fill="#000000">mem_free</text>
</a>
</g>
</g>
<!-- Node120&#45;&gt;Node121 -->
<g id="edge5" class="edge">
<title>Node120&#45;&gt;Node121</title>
<path fill="none" stroke="#191970" d="M331.1638,-32.8908C348.0036,-35.6023 370.7423,-39.2636 389.6181,-42.3029"/>
<polygon fill="#191970" stroke="#191970" points="389.216,-45.7832 399.6453,-43.9175 390.3289,-38.8722 389.216,-45.7832"/>
</g>
<!-- Node123 -->
<g id="node8" class="node">
<title>Node123</title>
<g id="a_node8"><a xlink:href="memp_8h.html#a9d30a969401eb0626105950d6e63f3bf" target="_top" xlink:title="memp_free">
<polygon fill="#ffffff" stroke="#000000" points="398,-.5 398,-19.5 452,-19.5 452,-.5 398,-.5"/>
<text text-anchor="middle" x="425" y="-7.5" font-family="Helvetica,sans-Serif" font-size="10.00" fill="#000000">memp_free</text>
</a>
</g>
</g>
<!-- Node120&#45;&gt;Node123 -->
<g id="edge7" class="edge">
<title>Node120&#45;&gt;Node123</title>
<path fill="none" stroke="#191970" d="M331.1638,-25.1092C347.5485,-22.471 369.5175,-18.9336 388.0794,-15.9448"/>
<polygon fill="#191970" stroke="#191970" points="388.6675,-19.3953 397.9839,-14.35 387.5547,-12.4843 388.6675,-19.3953"/>
</g>
<!-- Node122 -->
<g id="node7" class="node">
<title>Node122</title>
<g id="a_node7"><a xlink:href="mem_8c.html#a24221009a2c00e9c3fa63eaa9444a076" target="_top" xlink:title="plug_holes">
<polygon fill="#ffffff" stroke="#000000" points="488,-38.5 488,-57.5 541,-57.5 541,-38.5 488,-38.5"/>
<text text-anchor="middle" x="514.5" y="-45.5" font-family="Helvetica,sans-Serif" font-size="10.00" fill="#000000">plug_holes</text>
</a>
</g>
</g>
<!-- Node121&#45;&gt;Node122 -->
<g id="edge6" class="edge">
<title>Node121&#45;&gt;Node122</title>
<path fill="none" stroke="#191970" d="M450.4077,-48C458.8937,-48 468.5288,-48 477.7031,-48"/>
<polygon fill="#191970" stroke="#191970" points="477.7797,-51.5001 487.7796,-48 477.7796,-44.5001 477.7797,-51.5001"/>
</g>
</g>
</svg>
