<?xml version="1.0" encoding="UTF-8" standalone="no"?>
<!DOCTYPE svg PUBLIC "-//W3C//DTD SVG 1.1//EN"
 "http://www.w3.org/Graphics/SVG/1.1/DTD/svg11.dtd">
<!-- Generated by graphviz version 2.40.1 (20161225.0304)
 -->
<!-- Title: espconn_tcp_disconnect Pages: 1 -->
<svg width="665pt" height="104pt"
 viewBox="0.00 0.00 665.00 104.00" xmlns="http://www.w3.org/2000/svg" xmlns:xlink="http://www.w3.org/1999/xlink">
<g id="graph0" class="graph" transform="scale(1 1) rotate(0) translate(4 100)">
<title>espconn_tcp_disconnect</title>
<polygon fill="#ffffff" stroke="transparent" points="-4,4 -4,-100 661,-100 661,4 -4,4"/>
<!-- Node257 -->
<g id="node1" class="node">
<title>Node257</title>
<polygon fill="#bfbfbf" stroke="#000000" points="0,-19.5 0,-38.5 99,-38.5 99,-19.5 0,-19.5"/>
<text text-anchor="middle" x="49.5" y="-26.5" font-family="Helvetica,sans-Serif" font-size="10.00" fill="#000000">espconn_tcp_disconnect</text>
</g>
<!-- Node258 -->
<g id="node2" class="node">
<title>Node258</title>
<g id="a_node2"><a xlink:href="sdk_2include_2espconn_8h.html#ad6b3d2d0f556e6da81c898a6b9fa5c53" target="_top" xlink:title="espconn_abort">
<polygon fill="#ffffff" stroke="#000000" points="144.5,-38.5 144.5,-57.5 210.5,-57.5 210.5,-38.5 144.5,-38.5"/>
<text text-anchor="middle" x="177.5" y="-45.5" font-family="Helvetica,sans-Serif" font-size="10.00" fill="#000000">espconn_abort</text>
</a>
</g>
</g>
<!-- Node257&#45;&gt;Node258 -->
<g id="edge1" class="edge">
<title>Node257&#45;&gt;Node258</title>
<path fill="none" stroke="#191970" d="M109.3329,-37.8814C121.3105,-39.6594 133.4836,-41.4663 144.1645,-43.0518"/>
<polygon fill="#191970" stroke="#191970" points="109.7602,-34.4066 99.3547,-36.4003 108.7324,-41.3307 109.7602,-34.4066"/>
</g>
<!-- Node264 -->
<g id="node8" class="node">
<title>Node264</title>
<g id="a_node8"><a xlink:href="sdk_2include_2espconn_8h.html#a9969873c3b8ee86a34496a5166cf8bfc" target="_top" xlink:title="espconn_disconnect">
<polygon fill="#ffffff" stroke="#000000" points="135,-.5 135,-19.5 220,-19.5 220,-.5 135,-.5"/>
<text text-anchor="middle" x="177.5" y="-7.5" font-family="Helvetica,sans-Serif" font-size="10.00" fill="#000000">espconn_disconnect</text>
</a>
</g>
</g>
<!-- Node257&#45;&gt;Node264 -->
<g id="edge9" class="edge">
<title>Node257&#45;&gt;Node264</title>
<path fill="none" stroke="#191970" d="M109.306,-20.1225C117.8536,-18.8538 126.5013,-17.5701 134.6359,-16.3626"/>
<polygon fill="#191970" stroke="#191970" points="108.7324,-16.6693 99.3547,-21.5997 109.7602,-23.5934 108.7324,-16.6693"/>
</g>
<!-- Node259 -->
<g id="node3" class="node">
<title>Node259</title>
<g id="a_node3"><a xlink:href="mqtt_8c.html#a21ab01c5c7342eb954bdd128a5f4244b" target="_top" xlink:title="Delete tcp client and free all memory. ">
<polygon fill="#ffffff" stroke="#000000" points="256,-38.5 256,-57.5 343,-57.5 343,-38.5 256,-38.5"/>
<text text-anchor="middle" x="299.5" y="-45.5" font-family="Helvetica,sans-Serif" font-size="10.00" fill="#000000">mqtt_tcpclient_delete</text>
</a>
</g>
</g>
<!-- Node258&#45;&gt;Node259 -->
<g id="edge2" class="edge">
<title>Node258&#45;&gt;Node259</title>
<path fill="none" stroke="#191970" d="M220.6997,-48C232.1257,-48 244.4649,-48 255.9114,-48"/>
<polygon fill="#191970" stroke="#191970" points="220.515,-44.5001 210.515,-48 220.5149,-51.5001 220.515,-44.5001"/>
</g>
<!-- Node260 -->
<g id="node4" class="node">
<title>Node260</title>
<g id="a_node4"><a xlink:href="mqtt_8c.html#a9c9b677c6161329a3c3c6470a7182984" target="_top" xlink:title="Delete MQTT client and free all memory. ">
<polygon fill="#ffffff" stroke="#000000" points="379,-76.5 379,-95.5 456,-95.5 456,-76.5 379,-76.5"/>
<text text-anchor="middle" x="417.5" y="-83.5" font-family="Helvetica,sans-Serif" font-size="10.00" fill="#000000">mqtt_client_delete</text>
</a>
</g>
</g>
<!-- Node259&#45;&gt;Node260 -->
<g id="edge3" class="edge">
<title>Node259&#45;&gt;Node260</title>
<path fill="none" stroke="#191970" d="M338.8761,-60.6804C354.8198,-65.8148 372.9211,-71.6441 387.7331,-76.4141"/>
<polygon fill="#191970" stroke="#191970" points="339.8679,-57.3229 329.2764,-57.589 337.7221,-63.9859 339.8679,-57.3229"/>
</g>
<!-- Node261 -->
<g id="node5" class="node">
<title>Node261</title>
<g id="a_node5"><a xlink:href="mqtt_8c.html#a9d88fa6efb9163d4dbf9dc750a8d4ed0" target="_top" xlink:title="MQTT_Task">
<polygon fill="#ffffff" stroke="#000000" points="492,-38.5 492,-57.5 550,-57.5 550,-38.5 492,-38.5"/>
<text text-anchor="middle" x="521" y="-45.5" font-family="Helvetica,sans-Serif" font-size="10.00" fill="#000000">MQTT_Task</text>
</a>
</g>
</g>
<!-- Node259&#45;&gt;Node261 -->
<g id="edge6" class="edge">
<title>Node259&#45;&gt;Node261</title>
<path fill="none" stroke="#191970" d="M353.4109,-48C396.9904,-48 456.6773,-48 491.8061,-48"/>
<polygon fill="#191970" stroke="#191970" points="353.2613,-44.5001 343.2613,-48 353.2612,-51.5001 353.2613,-44.5001"/>
</g>
<!-- Node263 -->
<g id="node7" class="node">
<title>Node263</title>
<g id="a_node7"><a xlink:href="mqtt_8c.html#ad34b681cb2f7473d8fc786c7ed468db5" target="_top" xlink:title="Begin connect to MQTT broker. ">
<polygon fill="#ffffff" stroke="#000000" points="382.5,-.5 382.5,-19.5 452.5,-19.5 452.5,-.5 382.5,-.5"/>
<text text-anchor="middle" x="417.5" y="-7.5" font-family="Helvetica,sans-Serif" font-size="10.00" fill="#000000">MQTT_Connect</text>
</a>
</g>
</g>
<!-- Node259&#45;&gt;Node263 -->
<g id="edge7" class="edge">
<title>Node259&#45;&gt;Node263</title>
<path fill="none" stroke="#191970" d="M338.8761,-35.3196C354.8198,-30.1852 372.9211,-24.3559 387.7331,-19.5859"/>
<polygon fill="#191970" stroke="#191970" points="337.7221,-32.0141 329.2764,-38.411 339.8679,-38.6771 337.7221,-32.0141"/>
</g>
<!-- Node260&#45;&gt;Node261 -->
<g id="edge4" class="edge">
<title>Node260&#45;&gt;Node261</title>
<path fill="none" stroke="#191970" d="M453.2293,-72.882C466.9184,-67.8561 482.2667,-62.2209 494.8909,-57.5859"/>
<polygon fill="#191970" stroke="#191970" points="451.7984,-69.6788 443.6174,-76.411 454.211,-76.2499 451.7984,-69.6788"/>
</g>
<!-- Node262 -->
<g id="node6" class="node">
<title>Node262</title>
<g id="a_node6"><a xlink:href="mqtt_8c.html#a25cb7ac079d1d119250dac075c45acf1" target="_top" xlink:title="MQTT initialization mqtt client function. ">
<polygon fill="#ffffff" stroke="#000000" points="586,-38.5 586,-57.5 657,-57.5 657,-38.5 586,-38.5"/>
<text text-anchor="middle" x="621.5" y="-45.5" font-family="Helvetica,sans-Serif" font-size="10.00" fill="#000000">MQTT_InitClient</text>
</a>
</g>
</g>
<!-- Node261&#45;&gt;Node262 -->
<g id="edge5" class="edge">
<title>Node261&#45;&gt;Node262</title>
<path fill="none" stroke="#191970" d="M560.0779,-48C568.52,-48 577.4052,-48 585.7137,-48"/>
<polygon fill="#191970" stroke="#191970" points="560.0688,-44.5001 550.0688,-48 560.0687,-51.5001 560.0688,-44.5001"/>
</g>
<!-- Node263&#45;&gt;Node261 -->
<g id="edge8" class="edge">
<title>Node263&#45;&gt;Node261</title>
<path fill="none" stroke="#191970" d="M453.2293,-23.118C466.9184,-28.1439 482.2667,-33.7791 494.8909,-38.4141"/>
<polygon fill="#191970" stroke="#191970" points="454.211,-19.7501 443.6174,-19.589 451.7984,-26.3212 454.211,-19.7501"/>
</g>
</g>
</svg>
