<?xml version="1.0" encoding="UTF-8" standalone="no"?>
<!DOCTYPE svg PUBLIC "-//W3C//DTD SVG 1.1//EN"
 "http://www.w3.org/Graphics/SVG/1.1/DTD/svg11.dtd">
<!-- Generated by graphviz version 2.40.1 (20161225.0304)
 -->
<!-- Title: espconn_tcp_finish Pages: 1 -->
<svg width="326pt" height="66pt"
 viewBox="0.00 0.00 326.00 66.00" xmlns="http://www.w3.org/2000/svg" xmlns:xlink="http://www.w3.org/1999/xlink">
<g id="graph0" class="graph" transform="scale(1 1) rotate(0) translate(4 62)">
<title>espconn_tcp_finish</title>
<polygon fill="#ffffff" stroke="transparent" points="-4,4 -4,-62 322,-62 322,4 -4,4"/>
<!-- Node275 -->
<g id="node1" class="node">
<title>Node275</title>
<polygon fill="#bfbfbf" stroke="#000000" points="0,-19.5 0,-38.5 81,-38.5 81,-19.5 0,-19.5"/>
<text text-anchor="middle" x="40.5" y="-26.5" font-family="Helvetica,sans-Serif" font-size="10.00" fill="#000000">espconn_tcp_finish</text>
</g>
<!-- Node276 -->
<g id="node2" class="node">
<title>Node276</title>
<g id="a_node2"><a xlink:href="espconn_8c.html#a5c499e423f91737c0214031fd67fdb1f" target="_top" xlink:title="espconn_pbuf_delete">
<polygon fill="#ffffff" stroke="#000000" points="117,-38.5 117,-57.5 205,-57.5 205,-38.5 117,-38.5"/>
<text text-anchor="middle" x="161" y="-45.5" font-family="Helvetica,sans-Serif" font-size="10.00" fill="#000000">espconn_pbuf_delete</text>
</a>
</g>
</g>
<!-- Node275&#45;&gt;Node276 -->
<g id="edge1" class="edge">
<title>Node275&#45;&gt;Node276</title>
<path fill="none" stroke="#191970" d="M81.2958,-35.4325C89.5403,-36.7325 98.3292,-38.1183 106.9472,-39.4771"/>
<polygon fill="#191970" stroke="#191970" points="106.5194,-42.9529 116.9426,-41.0532 107.6098,-36.0383 106.5194,-42.9529"/>
</g>
<!-- Node277 -->
<g id="node3" class="node">
<title>Node277</title>
<g id="a_node3"><a xlink:href="espconn__tcp_8c.html#afedfd58842e55800f23f90ed00b0a967" target="_top" xlink:title="espconn_tcp_write">
<polygon fill="#ffffff" stroke="#000000" points="121.5,-.5 121.5,-19.5 200.5,-19.5 200.5,-.5 121.5,-.5"/>
<text text-anchor="middle" x="161" y="-7.5" font-family="Helvetica,sans-Serif" font-size="10.00" fill="#000000">espconn_tcp_write</text>
</a>
</g>
</g>
<!-- Node275&#45;&gt;Node277 -->
<g id="edge2" class="edge">
<title>Node275&#45;&gt;Node277</title>
<path fill="none" stroke="#191970" d="M81.2958,-22.5675C91.0253,-21.0334 101.5131,-19.3797 111.5833,-17.7918"/>
<polygon fill="#191970" stroke="#191970" points="112.138,-21.2477 121.4708,-16.2328 111.0477,-14.3331 112.138,-21.2477"/>
</g>
<!-- Node278 -->
<g id="node4" class="node">
<title>Node278</title>
<g id="a_node4"><a xlink:href="espconn__tcp_8c.html#a5a4844397c6068a44e5422de0eadcb86" target="_top" xlink:title="espconn_tcp_sent">
<polygon fill="#ffffff" stroke="#000000" points="241,-.5 241,-19.5 318,-19.5 318,-.5 241,-.5"/>
<text text-anchor="middle" x="279.5" y="-7.5" font-family="Helvetica,sans-Serif" font-size="10.00" fill="#000000">espconn_tcp_sent</text>
</a>
</g>
</g>
<!-- Node277&#45;&gt;Node278 -->
<g id="edge3" class="edge">
<title>Node277&#45;&gt;Node278</title>
<path fill="none" stroke="#191970" d="M200.7884,-10C210.3698,-10 220.7149,-10 230.6565,-10"/>
<polygon fill="#191970" stroke="#191970" points="230.8217,-13.5001 240.8217,-10 230.8216,-6.5001 230.8217,-13.5001"/>
</g>
</g>
</svg>
