<?xml version="1.0" encoding="UTF-8" standalone="no"?>
<!DOCTYPE svg PUBLIC "-//W3C//DTD SVG 1.1//EN"
 "http://www.w3.org/Graphics/SVG/1.1/DTD/svg11.dtd">
<!-- Generated by graphviz version 2.40.1 (20161225.0304)
 -->
<!-- Title: espconn_create Pages: 1 -->
<svg width="608pt" height="161pt"
 viewBox="0.00 0.00 608.00 161.00" xmlns="http://www.w3.org/2000/svg" xmlns:xlink="http://www.w3.org/1999/xlink">
<g id="graph0" class="graph" transform="scale(1 1) rotate(0) translate(4 157)">
<title>espconn_create</title>
<polygon fill="#ffffff" stroke="transparent" points="-4,4 -4,-157 604,-157 604,4 -4,4"/>
<!-- Node87 -->
<g id="node1" class="node">
<title>Node87</title>
<polygon fill="#bfbfbf" stroke="#000000" points="0,-95.5 0,-114.5 70,-114.5 70,-95.5 0,-95.5"/>
<text text-anchor="middle" x="35" y="-102.5" font-family="Helvetica,sans-Serif" font-size="10.00" fill="#000000">espconn_create</text>
</g>
<!-- Node88 -->
<g id="node2" class="node">
<title>Node88</title>
<g id="a_node2"><a xlink:href="espconn__udp_8h.html#a90da8da14aefd137b3f664d2a2f58af4" target="_top" xlink:title="espconn_udp_server">
<polygon fill="#ffffff" stroke="#000000" points="106,-95.5 106,-114.5 193,-114.5 193,-95.5 106,-95.5"/>
<text text-anchor="middle" x="149.5" y="-102.5" font-family="Helvetica,sans-Serif" font-size="10.00" fill="#000000">espconn_udp_server</text>
</a>
</g>
</g>
<!-- Node87&#45;&gt;Node88 -->
<g id="edge1" class="edge">
<title>Node87&#45;&gt;Node88</title>
<path fill="none" stroke="#191970" d="M70.2881,-105C78.3168,-105 87.0248,-105 95.6306,-105"/>
<polygon fill="#191970" stroke="#191970" points="95.6393,-108.5001 105.6393,-105 95.6393,-101.5001 95.6393,-108.5001"/>
</g>
<!-- Node89 -->
<g id="node3" class="node">
<title>Node89</title>
<g id="a_node3"><a xlink:href="esp-open-lwip_2include_2lwip_2app_2espconn_8h.html#ae65b40a3ff0ee3fe9b764523fa4a3c48" target="_top" xlink:title="espconn_list_creat">
<polygon fill="#ffffff" stroke="#000000" points="229.5,-114.5 229.5,-133.5 308.5,-133.5 308.5,-114.5 229.5,-114.5"/>
<text text-anchor="middle" x="269" y="-121.5" font-family="Helvetica,sans-Serif" font-size="10.00" fill="#000000">espconn_list_creat</text>
</a>
</g>
</g>
<!-- Node88&#45;&gt;Node89 -->
<g id="edge2" class="edge">
<title>Node88&#45;&gt;Node89</title>
<path fill="none" stroke="#191970" d="M193.3188,-111.967C201.7452,-113.3068 210.6277,-114.719 219.2264,-116.0862"/>
<polygon fill="#191970" stroke="#191970" points="218.7204,-119.5496 229.1459,-117.6634 219.8196,-112.6365 218.7204,-119.5496"/>
</g>
<!-- Node90 -->
<g id="node4" class="node">
<title>Node90</title>
<g id="a_node4"><a xlink:href="espconn__udp_8c.html#ac52ad5e01c1a769947766d4a890f1cc7" target="_top" xlink:title="espconn_udp_recv">
<polygon fill="#ffffff" stroke="#000000" points="229,-76.5 229,-95.5 309,-95.5 309,-76.5 229,-76.5"/>
<text text-anchor="middle" x="269" y="-83.5" font-family="Helvetica,sans-Serif" font-size="10.00" fill="#000000">espconn_udp_recv</text>
</a>
</g>
</g>
<!-- Node88&#45;&gt;Node90 -->
<g id="edge3" class="edge">
<title>Node88&#45;&gt;Node90</title>
<path fill="none" stroke="#191970" d="M193.3188,-98.033C201.5589,-96.7228 210.2351,-95.3434 218.6556,-94.0045"/>
<polygon fill="#191970" stroke="#191970" points="219.4272,-97.4259 228.7536,-92.399 218.328,-90.5127 219.4272,-97.4259"/>
</g>
<!-- Node91 -->
<g id="node5" class="node">
<title>Node91</title>
<g id="a_node5"><a xlink:href="user__interface_8h.html#a48d756265c0c1c35ba1fba102efe4d0a" target="_top" xlink:title="wifi_get_opmode">
<polygon fill="#ffffff" stroke="#000000" points="346.5,-133.5 346.5,-152.5 419.5,-152.5 419.5,-133.5 346.5,-133.5"/>
<text text-anchor="middle" x="383" y="-140.5" font-family="Helvetica,sans-Serif" font-size="10.00" fill="#000000">wifi_get_opmode</text>
</a>
</g>
</g>
<!-- Node90&#45;&gt;Node91 -->
<g id="edge4" class="edge">
<title>Node90&#45;&gt;Node91</title>
<path fill="none" stroke="#191970" d="M289.4296,-95.5008C295.732,-98.4862 302.6765,-101.8312 309,-105 325.1745,-113.1052 328.9082,-115.7319 345,-124 348.1122,-125.5991 351.3758,-127.2579 354.6278,-128.8995"/>
<polygon fill="#191970" stroke="#191970" points="353.1194,-132.0585 363.6269,-133.4161 356.2594,-125.8022 353.1194,-132.0585"/>
</g>
<!-- Node92 -->
<g id="node6" class="node">
<title>Node92</title>
<g id="a_node6"><a xlink:href="user__interface_8h.html#a70c442301412fe5d3711a8f0b8c7b7b5" target="_top" xlink:title="wifi_get_ip_info">
<polygon fill="#ffffff" stroke="#000000" points="349,-95.5 349,-114.5 417,-114.5 417,-95.5 349,-95.5"/>
<text text-anchor="middle" x="383" y="-102.5" font-family="Helvetica,sans-Serif" font-size="10.00" fill="#000000">wifi_get_ip_info</text>
</a>
</g>
</g>
<!-- Node90&#45;&gt;Node92 -->
<g id="edge5" class="edge">
<title>Node90&#45;&gt;Node92</title>
<path fill="none" stroke="#191970" d="M309.1921,-92.6987C318.8027,-94.3005 329.1134,-96.0189 338.8902,-97.6484"/>
<polygon fill="#191970" stroke="#191970" points="338.3943,-101.1139 348.8337,-99.3056 339.5451,-94.2092 338.3943,-101.1139"/>
</g>
<!-- Node93 -->
<g id="node7" class="node">
<title>Node93</title>
<g id="a_node7"><a xlink:href="pbuf_8h.html#ab0a418a2392133e6b18c7b19f7c04500" target="_top" xlink:title="pbuf_copy_partial">
<polygon fill="#ffffff" stroke="#000000" points="345,-57.5 345,-76.5 421,-76.5 421,-57.5 345,-57.5"/>
<text text-anchor="middle" x="383" y="-64.5" font-family="Helvetica,sans-Serif" font-size="10.00" fill="#000000">pbuf_copy_partial</text>
</a>
</g>
</g>
<!-- Node90&#45;&gt;Node93 -->
<g id="edge6" class="edge">
<title>Node90&#45;&gt;Node93</title>
<path fill="none" stroke="#191970" d="M309.1921,-79.3013C317.3955,-77.9341 326.1089,-76.4819 334.5649,-75.0725"/>
<polygon fill="#191970" stroke="#191970" points="335.4117,-78.4798 344.7002,-73.3833 334.2608,-71.575 335.4117,-78.4798"/>
</g>
<!-- Node94 -->
<g id="node8" class="node">
<title>Node94</title>
<g id="a_node8"><a xlink:href="pbuf_8h.html#a0d26e00e2cf975274139d27ddabd7ed3" target="_top" xlink:title="pbuf_free">
<polygon fill="#ffffff" stroke="#000000" points="359,-19.5 359,-38.5 407,-38.5 407,-19.5 359,-19.5"/>
<text text-anchor="middle" x="383" y="-26.5" font-family="Helvetica,sans-Serif" font-size="10.00" fill="#000000">pbuf_free</text>
</a>
</g>
</g>
<!-- Node90&#45;&gt;Node94 -->
<g id="edge7" class="edge">
<title>Node90&#45;&gt;Node94</title>
<path fill="none" stroke="#191970" d="M288.081,-76.4595C306.3299,-67.335 334.0689,-53.4656 354.8548,-43.0726"/>
<polygon fill="#191970" stroke="#191970" points="356.4777,-46.1743 363.8567,-38.5716 353.3472,-39.9133 356.4777,-46.1743"/>
</g>
<!-- Node95 -->
<g id="node9" class="node">
<title>Node95</title>
<g id="a_node9"><a xlink:href="esp-open-lwip_2include_2lwip_2mem_8h.html#ab270bbe39e1996d7095be3a139620ce0" target="_top" xlink:title="mem_free">
<polygon fill="#ffffff" stroke="#000000" points="459,-38.5 459,-57.5 509,-57.5 509,-38.5 459,-38.5"/>
<text text-anchor="middle" x="484" y="-45.5" font-family="Helvetica,sans-Serif" font-size="10.00" fill="#000000">mem_free</text>
</a>
</g>
</g>
<!-- Node94&#45;&gt;Node95 -->
<g id="edge8" class="edge">
<title>Node94&#45;&gt;Node95</title>
<path fill="none" stroke="#191970" d="M407.192,-33.551C419.6554,-35.8956 435.0848,-38.7981 448.8375,-41.3853"/>
<polygon fill="#191970" stroke="#191970" points="448.4759,-44.8786 458.9506,-43.2877 449.7701,-37.9992 448.4759,-44.8786"/>
</g>
<!-- Node97 -->
<g id="node11" class="node">
<title>Node97</title>
<g id="a_node11"><a xlink:href="memp_8h.html#a9d30a969401eb0626105950d6e63f3bf" target="_top" xlink:title="memp_free">
<polygon fill="#ffffff" stroke="#000000" points="457,-.5 457,-19.5 511,-19.5 511,-.5 457,-.5"/>
<text text-anchor="middle" x="484" y="-7.5" font-family="Helvetica,sans-Serif" font-size="10.00" fill="#000000">memp_free</text>
</a>
</g>
</g>
<!-- Node94&#45;&gt;Node97 -->
<g id="edge10" class="edge">
<title>Node94&#45;&gt;Node97</title>
<path fill="none" stroke="#191970" d="M407.192,-24.449C418.9806,-22.2314 433.4228,-19.5145 446.5898,-17.0376"/>
<polygon fill="#191970" stroke="#191970" points="447.6205,-20.4052 456.801,-15.1166 446.3263,-13.5258 447.6205,-20.4052"/>
</g>
<!-- Node96 -->
<g id="node10" class="node">
<title>Node96</title>
<g id="a_node10"><a xlink:href="mem_8c.html#a24221009a2c00e9c3fa63eaa9444a076" target="_top" xlink:title="plug_holes">
<polygon fill="#ffffff" stroke="#000000" points="547,-38.5 547,-57.5 600,-57.5 600,-38.5 547,-38.5"/>
<text text-anchor="middle" x="573.5" y="-45.5" font-family="Helvetica,sans-Serif" font-size="10.00" fill="#000000">plug_holes</text>
</a>
</g>
</g>
<!-- Node95&#45;&gt;Node96 -->
<g id="edge9" class="edge">
<title>Node95&#45;&gt;Node96</title>
<path fill="none" stroke="#191970" d="M509.4077,-48C517.8937,-48 527.5288,-48 536.7031,-48"/>
<polygon fill="#191970" stroke="#191970" points="536.7797,-51.5001 546.7796,-48 536.7796,-44.5001 536.7797,-51.5001"/>
</g>
</g>
</svg>
