<?xml version="1.0" encoding="UTF-8" standalone="no"?>
<!DOCTYPE svg PUBLIC "-//W3C//DTD SVG 1.1//EN"
 "http://www.w3.org/Graphics/SVG/1.1/DTD/svg11.dtd">
<!-- Generated by graphviz version 2.40.1 (20161225.0304)
 -->
<!-- Title: espconn_tcp_reconnect Pages: 1 -->
<svg width="300pt" height="28pt"
 viewBox="0.00 0.00 300.00 28.00" xmlns="http://www.w3.org/2000/svg" xmlns:xlink="http://www.w3.org/1999/xlink">
<g id="graph0" class="graph" transform="scale(1 1) rotate(0) translate(4 24)">
<title>espconn_tcp_reconnect</title>
<polygon fill="#ffffff" stroke="transparent" points="-4,4 -4,-24 296,-24 296,4 -4,4"/>
<!-- Node294 -->
<g id="node1" class="node">
<title>Node294</title>
<polygon fill="#bfbfbf" stroke="#000000" points="0,-.5 0,-19.5 96,-19.5 96,-.5 0,-.5"/>
<text text-anchor="middle" x="48" y="-7.5" font-family="Helvetica,sans-Serif" font-size="10.00" fill="#000000">espconn_tcp_reconnect</text>
</g>
<!-- Node295 -->
<g id="node2" class="node">
<title>Node295</title>
<g id="a_node2"><a xlink:href="espconn__tcp_8c.html#a658001fa320693943742066d8870a1b9" target="_top" xlink:title="espconn_Task">
<polygon fill="#ffffff" stroke="#000000" points="132,-.5 132,-19.5 197,-19.5 197,-.5 132,-.5"/>
<text text-anchor="middle" x="164.5" y="-7.5" font-family="Helvetica,sans-Serif" font-size="10.00" fill="#000000">espconn_Task</text>
</a>
</g>
</g>
<!-- Node294&#45;&gt;Node295 -->
<g id="edge1" class="edge">
<title>Node294&#45;&gt;Node295</title>
<path fill="none" stroke="#191970" d="M106.306,-10C115.076,-10 123.8444,-10 131.8158,-10"/>
<polygon fill="#191970" stroke="#191970" points="106.0576,-6.5001 96.0576,-10 106.0576,-13.5001 106.0576,-6.5001"/>
</g>
<!-- Node296 -->
<g id="node3" class="node">
<title>Node296</title>
<g id="a_node3"><a xlink:href="espconn__tcp_8c.html#a86c6dca784d0ca2d55af8567a7968406" target="_top" xlink:title="espconn_init">
<polygon fill="#ffffff" stroke="#000000" points="233,-.5 233,-19.5 292,-19.5 292,-.5 233,-.5"/>
<text text-anchor="middle" x="262.5" y="-7.5" font-family="Helvetica,sans-Serif" font-size="10.00" fill="#000000">espconn_init</text>
</a>
</g>
</g>
<!-- Node295&#45;&gt;Node296 -->
<g id="edge2" class="edge">
<title>Node295&#45;&gt;Node296</title>
<path fill="none" stroke="#191970" d="M207.1641,-10C215.8731,-10 224.8538,-10 232.9805,-10"/>
<polygon fill="#191970" stroke="#191970" points="207.1326,-6.5001 197.1326,-10 207.1325,-13.5001 207.1326,-6.5001"/>
</g>
</g>
</svg>
