<?xml version="1.0" encoding="UTF-8" standalone="no"?>
<!DOCTYPE svg PUBLIC "-//W3C//DTD SVG 1.1//EN"
 "http://www.w3.org/Graphics/SVG/1.1/DTD/svg11.dtd">
<!-- Generated by graphviz version 2.40.1 (20161225.0304)
 -->
<!-- Title: esp&#45;open&#45;lwip/include/lwip/app/espconn_udp.h Pages: 1 -->
<svg width="272pt" height="543pt"
 viewBox="0.00 0.00 272.00 543.00" xmlns="http://www.w3.org/2000/svg" xmlns:xlink="http://www.w3.org/1999/xlink">
<g id="graph0" class="graph" transform="scale(1 1) rotate(0) translate(4 539)">
<title>esp&#45;open&#45;lwip/include/lwip/app/espconn_udp.h</title>
<polygon fill="#ffffff" stroke="transparent" points="-4,4 -4,-539 268,-539 268,4 -4,4"/>
<!-- Node0 -->
<g id="node1" class="node">
<title>Node0</title>
<polygon fill="#bfbfbf" stroke="#000000" points="134,-504.5 134,-534.5 233,-534.5 233,-504.5 134,-504.5"/>
<text text-anchor="start" x="142" y="-522.5" font-family="Helvetica,sans-Serif" font-size="10.00" fill="#000000">esp&#45;open&#45;lwip/include</text>
<text text-anchor="middle" x="183.5" y="-511.5" font-family="Helvetica,sans-Serif" font-size="10.00" fill="#000000">/lwip/app/espconn_udp.h</text>
</g>
<!-- Node1 -->
<g id="node2" class="node">
<title>Node1</title>
<g id="a_node2"><a xlink:href="esp-open-lwip_2include_2lwip_2app_2espconn_8h.html" target="_top" xlink:title="lwip/app/espconn.h">
<polygon fill="#ffffff" stroke="#000000" points="143,-448.5 143,-467.5 224,-467.5 224,-448.5 143,-448.5"/>
<text text-anchor="middle" x="183.5" y="-455.5" font-family="Helvetica,sans-Serif" font-size="10.00" fill="#000000">lwip/app/espconn.h</text>
</a>
</g>
</g>
<!-- Node0&#45;&gt;Node1 -->
<g id="edge1" class="edge">
<title>Node0&#45;&gt;Node1</title>
<path fill="none" stroke="#191970" d="M183.5,-504.2977C183.5,-496.3834 183.5,-486.6043 183.5,-478.0759"/>
<polygon fill="#191970" stroke="#191970" points="187.0001,-477.8469 183.5,-467.8469 180.0001,-477.847 187.0001,-477.8469"/>
</g>
<!-- Node2 -->
<g id="node3" class="node">
<title>Node2</title>
<g id="a_node3"><a xlink:href="dns_8h.html" target="_top" xlink:title="lwip/dns.h">
<polygon fill="#ffffff" stroke="#000000" points="132.5,-392.5 132.5,-411.5 182.5,-411.5 182.5,-392.5 132.5,-392.5"/>
<text text-anchor="middle" x="157.5" y="-399.5" font-family="Helvetica,sans-Serif" font-size="10.00" fill="#000000">lwip/dns.h</text>
</a>
</g>
</g>
<!-- Node1&#45;&gt;Node2 -->
<g id="edge2" class="edge">
<title>Node1&#45;&gt;Node2</title>
<path fill="none" stroke="#191970" d="M178.9711,-448.2455C175.4666,-440.6973 170.5073,-430.0158 166.2377,-420.8197"/>
<polygon fill="#191970" stroke="#191970" points="169.3627,-419.2389 161.977,-411.6427 163.0136,-422.1867 169.3627,-419.2389"/>
</g>
<!-- Node16 -->
<g id="node17" class="node">
<title>Node16</title>
<g id="a_node17"><a xlink:href="os__type_8h.html" target="_top" xlink:title="os_type.h">
<polygon fill="#ffffff" stroke="#000000" points="193,-336.5 193,-355.5 242,-355.5 242,-336.5 193,-336.5"/>
<text text-anchor="middle" x="217.5" y="-343.5" font-family="Helvetica,sans-Serif" font-size="10.00" fill="#000000">os_type.h</text>
</a>
</g>
</g>
<!-- Node1&#45;&gt;Node16 -->
<g id="edge17" class="edge">
<title>Node1&#45;&gt;Node16</title>
<path fill="none" stroke="#191970" d="M186.3988,-448.4509C191.9692,-430.1013 204.2671,-389.5908 211.62,-365.3693"/>
<polygon fill="#191970" stroke="#191970" points="215.0527,-366.1104 214.6085,-355.5249 208.3545,-364.077 215.0527,-366.1104"/>
</g>
<!-- Node3 -->
<g id="node4" class="node">
<title>Node3</title>
<g id="a_node4"><a xlink:href="opt_8h.html" target="_top" xlink:title="lwip/opt.h">
<polygon fill="#ffffff" stroke="#000000" points="126.5,-336.5 126.5,-355.5 174.5,-355.5 174.5,-336.5 126.5,-336.5"/>
<text text-anchor="middle" x="150.5" y="-343.5" font-family="Helvetica,sans-Serif" font-size="10.00" fill="#000000">lwip/opt.h</text>
</a>
</g>
</g>
<!-- Node2&#45;&gt;Node3 -->
<g id="edge3" class="edge">
<title>Node2&#45;&gt;Node3</title>
<path fill="none" stroke="#191970" d="M156.2807,-392.2455C155.3673,-384.9382 154.0868,-374.6944 152.9631,-365.7046"/>
<polygon fill="#191970" stroke="#191970" points="156.4187,-365.1313 151.7053,-355.6427 149.4728,-365.9996 156.4187,-365.1313"/>
</g>
<!-- Node4 -->
<g id="node5" class="node">
<title>Node4</title>
<g id="a_node5"><a xlink:href="lwipopts_8h.html" target="_top" xlink:title="lwipopts.h">
<polygon fill="#ffffff" stroke="#000000" points="139.5,-280.5 139.5,-299.5 189.5,-299.5 189.5,-280.5 139.5,-280.5"/>
<text text-anchor="middle" x="164.5" y="-287.5" font-family="Helvetica,sans-Serif" font-size="10.00" fill="#000000">lwipopts.h</text>
</a>
</g>
</g>
<!-- Node3&#45;&gt;Node4 -->
<g id="edge4" class="edge">
<title>Node3&#45;&gt;Node4</title>
<path fill="none" stroke="#191970" d="M152.9386,-336.2455C154.7855,-328.8579 157.3828,-318.4689 159.6478,-309.4087"/>
<polygon fill="#191970" stroke="#191970" points="163.0594,-310.193 162.0893,-299.6427 156.2684,-308.4952 163.0594,-310.193"/>
</g>
<!-- Node5 -->
<g id="node6" class="node">
<title>Node5</title>
<g id="a_node6"><a xlink:href="esp-open-sdk_2esp-open-lwip_2include_2lwip_2debug_8h.html" target="_top" xlink:title="lwip/debug.h">
<polygon fill="#ffffff" stroke="#000000" points="62,-280.5 62,-299.5 121,-299.5 121,-280.5 62,-280.5"/>
<text text-anchor="middle" x="91.5" y="-287.5" font-family="Helvetica,sans-Serif" font-size="10.00" fill="#000000">lwip/debug.h</text>
</a>
</g>
</g>
<!-- Node3&#45;&gt;Node5 -->
<g id="edge5" class="edge">
<title>Node3&#45;&gt;Node5</title>
<path fill="none" stroke="#191970" d="M140.223,-336.2455C131.6782,-328.1352 119.3222,-316.4075 109.1915,-306.7919"/>
<polygon fill="#191970" stroke="#191970" points="111.3218,-303.9884 101.6592,-299.6427 106.5028,-309.0655 111.3218,-303.9884"/>
</g>
<!-- Node6 -->
<g id="node7" class="node">
<title>Node6</title>
<g id="a_node7"><a xlink:href="arch_8h.html" target="_top" xlink:title="lwip/arch.h">
<polygon fill="#ffffff" stroke="#000000" points="83.5,-224.5 83.5,-243.5 135.5,-243.5 135.5,-224.5 83.5,-224.5"/>
<text text-anchor="middle" x="109.5" y="-231.5" font-family="Helvetica,sans-Serif" font-size="10.00" fill="#000000">lwip/arch.h</text>
</a>
</g>
</g>
<!-- Node5&#45;&gt;Node6 -->
<g id="edge6" class="edge">
<title>Node5&#45;&gt;Node6</title>
<path fill="none" stroke="#191970" d="M94.6354,-280.2455C97.01,-272.8579 100.3493,-262.4689 103.2615,-253.4087"/>
<polygon fill="#191970" stroke="#191970" points="106.6725,-254.234 106.4006,-243.6427 100.0083,-252.0919 106.6725,-254.234"/>
</g>
<!-- Node7 -->
<g id="node8" class="node">
<title>Node7</title>
<g id="a_node8"><a xlink:href="cc_8h.html" target="_top" xlink:title="arch/cc.h">
<polygon fill="#ffffff" stroke="#000000" points="91,-168.5 91,-187.5 138,-187.5 138,-168.5 91,-168.5"/>
<text text-anchor="middle" x="114.5" y="-175.5" font-family="Helvetica,sans-Serif" font-size="10.00" fill="#000000">arch/cc.h</text>
</a>
</g>
</g>
<!-- Node6&#45;&gt;Node7 -->
<g id="edge7" class="edge">
<title>Node6&#45;&gt;Node7</title>
<path fill="none" stroke="#191970" d="M110.3709,-224.2455C111.0234,-216.9382 111.938,-206.6944 112.7407,-197.7046"/>
<polygon fill="#191970" stroke="#191970" points="116.2358,-197.9143 113.639,-187.6427 109.2635,-197.2918 116.2358,-197.9143"/>
</g>
<!-- Node8 -->
<g id="node9" class="node">
<title>Node8</title>
<g id="a_node9"><a xlink:href="c__types_8h.html" target="_top" xlink:title="c_types.h">
<polygon fill="#ffffff" stroke="#000000" points="140,-56.5 140,-75.5 189,-75.5 189,-56.5 140,-56.5"/>
<text text-anchor="middle" x="164.5" y="-63.5" font-family="Helvetica,sans-Serif" font-size="10.00" fill="#000000">c_types.h</text>
</a>
</g>
</g>
<!-- Node7&#45;&gt;Node8 -->
<g id="edge8" class="edge">
<title>Node7&#45;&gt;Node8</title>
<path fill="none" stroke="#191970" d="M118.763,-168.4509C127.0286,-149.936 145.3665,-108.8591 156.1434,-84.7187"/>
<polygon fill="#191970" stroke="#191970" points="159.3672,-86.0831 160.2478,-75.5249 152.9753,-83.2295 159.3672,-86.0831"/>
</g>
<!-- Node11 -->
<g id="node12" class="node">
<title>Node11</title>
<g id="a_node12"><a xlink:href="ets__sys_8h.html" target="_top" xlink:title="ets_sys.h">
<polygon fill="#ffffff" stroke="#000000" points="188.5,-112.5 188.5,-131.5 236.5,-131.5 236.5,-112.5 188.5,-112.5"/>
<text text-anchor="middle" x="212.5" y="-119.5" font-family="Helvetica,sans-Serif" font-size="10.00" fill="#000000">ets_sys.h</text>
</a>
</g>
</g>
<!-- Node7&#45;&gt;Node11 -->
<g id="edge11" class="edge">
<title>Node7&#45;&gt;Node11</title>
<path fill="none" stroke="#191970" d="M131.5703,-168.2455C146.747,-159.5731 169.1621,-146.7645 186.5563,-136.825"/>
<polygon fill="#191970" stroke="#191970" points="188.6794,-139.643 195.6253,-131.6427 185.2064,-133.5653 188.6794,-139.643"/>
</g>
<!-- Node13 -->
<g id="node14" class="node">
<title>Node13</title>
<g id="a_node14"><a xlink:href="osapi_8h.html" target="_top" xlink:title="osapi.h">
<polygon fill="#ffffff" stroke="#000000" points="70,-112.5 70,-131.5 111,-131.5 111,-112.5 70,-112.5"/>
<text text-anchor="middle" x="90.5" y="-119.5" font-family="Helvetica,sans-Serif" font-size="10.00" fill="#000000">osapi.h</text>
</a>
</g>
</g>
<!-- Node7&#45;&gt;Node13 -->
<g id="edge14" class="edge">
<title>Node7&#45;&gt;Node13</title>
<path fill="none" stroke="#191970" d="M110.3195,-168.2455C107.119,-160.7776 102.604,-150.2427 98.6916,-141.1137"/>
<polygon fill="#191970" stroke="#191970" points="101.7888,-139.4554 94.6326,-131.6427 95.3548,-142.2129 101.7888,-139.4554"/>
</g>
<!-- Node9 -->
<g id="node10" class="node">
<title>Node9</title>
<polygon fill="#ffffff" stroke="#bfbfbf" points="113,-.5 113,-19.5 154,-19.5 154,-.5 113,-.5"/>
<text text-anchor="middle" x="133.5" y="-7.5" font-family="Helvetica,sans-Serif" font-size="10.00" fill="#000000">stdint.h</text>
</g>
<!-- Node8&#45;&gt;Node9 -->
<g id="edge9" class="edge">
<title>Node8&#45;&gt;Node9</title>
<path fill="none" stroke="#191970" d="M159.1002,-56.2455C154.8773,-48.617 148.8827,-37.7881 143.7559,-28.5267"/>
<polygon fill="#191970" stroke="#191970" points="146.7432,-26.6965 138.8379,-19.6427 140.619,-30.0867 146.7432,-26.6965"/>
</g>
<!-- Node10 -->
<g id="node11" class="node">
<title>Node10</title>
<polygon fill="#ffffff" stroke="#bfbfbf" points="172,-.5 172,-19.5 219,-19.5 219,-.5 172,-.5"/>
<text text-anchor="middle" x="195.5" y="-7.5" font-family="Helvetica,sans-Serif" font-size="10.00" fill="#000000">stdbool.h</text>
</g>
<!-- Node8&#45;&gt;Node10 -->
<g id="edge10" class="edge">
<title>Node8&#45;&gt;Node10</title>
<path fill="none" stroke="#191970" d="M169.8998,-56.2455C174.1227,-48.617 180.1173,-37.7881 185.2441,-28.5267"/>
<polygon fill="#191970" stroke="#191970" points="188.381,-30.0867 190.1621,-19.6427 182.2568,-26.6965 188.381,-30.0867"/>
</g>
<!-- Node11&#45;&gt;Node8 -->
<g id="edge12" class="edge">
<title>Node11&#45;&gt;Node8</title>
<path fill="none" stroke="#191970" d="M204.139,-112.2455C197.325,-104.2958 187.5319,-92.8706 179.3848,-83.3656"/>
<polygon fill="#191970" stroke="#191970" points="181.9305,-80.9575 172.7651,-75.6427 176.6157,-85.513 181.9305,-80.9575"/>
</g>
<!-- Node12 -->
<g id="node13" class="node">
<title>Node12</title>
<g id="a_node13"><a xlink:href="eagle__soc_8h.html" target="_top" xlink:title="eagle_soc.h">
<polygon fill="#ffffff" stroke="#000000" points="207,-56.5 207,-75.5 264,-75.5 264,-56.5 207,-56.5"/>
<text text-anchor="middle" x="235.5" y="-63.5" font-family="Helvetica,sans-Serif" font-size="10.00" fill="#000000">eagle_soc.h</text>
</a>
</g>
</g>
<!-- Node11&#45;&gt;Node12 -->
<g id="edge13" class="edge">
<title>Node11&#45;&gt;Node12</title>
<path fill="none" stroke="#191970" d="M216.5063,-112.2455C219.5735,-104.7776 223.9003,-94.2427 227.6497,-85.1137"/>
<polygon fill="#191970" stroke="#191970" points="230.9779,-86.2226 231.5396,-75.6427 224.5028,-83.5631 230.9779,-86.2226"/>
</g>
<!-- Node14 -->
<g id="node15" class="node">
<title>Node14</title>
<polygon fill="#ffffff" stroke="#bfbfbf" points="0,-56.5 0,-75.5 41,-75.5 41,-56.5 0,-56.5"/>
<text text-anchor="middle" x="20.5" y="-63.5" font-family="Helvetica,sans-Serif" font-size="10.00" fill="#000000">string.h</text>
</g>
<!-- Node13&#45;&gt;Node14 -->
<g id="edge15" class="edge">
<title>Node13&#45;&gt;Node14</title>
<path fill="none" stroke="#191970" d="M78.3069,-112.2455C67.8679,-103.8943 52.6345,-91.7076 40.426,-81.9408"/>
<polygon fill="#191970" stroke="#191970" points="42.5485,-79.1566 32.5533,-75.6427 38.1756,-84.6227 42.5485,-79.1566"/>
</g>
<!-- Node15 -->
<g id="node16" class="node">
<title>Node15</title>
<polygon fill="#ffffff" stroke="#bfbfbf" points="59.5,-56.5 59.5,-75.5 121.5,-75.5 121.5,-56.5 59.5,-56.5"/>
<text text-anchor="middle" x="90.5" y="-63.5" font-family="Helvetica,sans-Serif" font-size="10.00" fill="#000000">user_config.h</text>
</g>
<!-- Node13&#45;&gt;Node15 -->
<g id="edge16" class="edge">
<title>Node13&#45;&gt;Node15</title>
<path fill="none" stroke="#191970" d="M90.5,-112.2455C90.5,-104.9382 90.5,-94.6944 90.5,-85.7046"/>
<polygon fill="#191970" stroke="#191970" points="94.0001,-85.6426 90.5,-75.6427 87.0001,-85.6427 94.0001,-85.6426"/>
</g>
<!-- Node16&#45;&gt;Node11 -->
<g id="edge18" class="edge">
<title>Node16&#45;&gt;Node11</title>
<path fill="none" stroke="#191970" d="M217.2852,-336.375C216.5287,-302.4851 213.9784,-188.2317 212.9427,-141.8332"/>
<polygon fill="#191970" stroke="#191970" points="216.4364,-141.5085 212.714,-131.5891 209.4382,-141.6648 216.4364,-141.5085"/>
</g>
</g>
</svg>
