<?xml version="1.0" encoding="UTF-8" standalone="no"?>
<!DOCTYPE svg PUBLIC "-//W3C//DTD SVG 1.1//EN"
 "http://www.w3.org/Graphics/SVG/1.1/DTD/svg11.dtd">
<!-- Generated by graphviz version 2.40.1 (20161225.0304)
 -->
<!-- Title: espconn_server_sent Pages: 1 -->
<svg width="450pt" height="66pt"
 viewBox="0.00 0.00 450.00 66.00" xmlns="http://www.w3.org/2000/svg" xmlns:xlink="http://www.w3.org/1999/xlink">
<g id="graph0" class="graph" transform="scale(1 1) rotate(0) translate(4 62)">
<title>espconn_server_sent</title>
<polygon fill="#ffffff" stroke="transparent" points="-4,4 -4,-62 446,-62 446,4 -4,4"/>
<!-- Node173 -->
<g id="node1" class="node">
<title>Node173</title>
<polygon fill="#bfbfbf" stroke="#000000" points="0,-19.5 0,-38.5 88,-38.5 88,-19.5 0,-19.5"/>
<text text-anchor="middle" x="44" y="-26.5" font-family="Helvetica,sans-Serif" font-size="10.00" fill="#000000">espconn_server_sent</text>
</g>
<!-- Node174 -->
<g id="node2" class="node">
<title>Node174</title>
<g id="a_node2"><a xlink:href="espconn__tcp_8c.html#a46f54f8c9e0dbc0c03f7666380fa3bbd" target="_top" xlink:title="espconn_tcp_finish">
<polygon fill="#ffffff" stroke="#000000" points="124,-19.5 124,-38.5 205,-38.5 205,-19.5 124,-19.5"/>
<text text-anchor="middle" x="164.5" y="-26.5" font-family="Helvetica,sans-Serif" font-size="10.00" fill="#000000">espconn_tcp_finish</text>
</a>
</g>
</g>
<!-- Node173&#45;&gt;Node174 -->
<g id="edge1" class="edge">
<title>Node173&#45;&gt;Node174</title>
<path fill="none" stroke="#191970" d="M88.1855,-29C96.4946,-29 105.2433,-29 113.7344,-29"/>
<polygon fill="#191970" stroke="#191970" points="113.9168,-32.5001 123.9168,-29 113.9168,-25.5001 113.9168,-32.5001"/>
</g>
<!-- Node175 -->
<g id="node3" class="node">
<title>Node175</title>
<g id="a_node3"><a xlink:href="espconn__tcp_8c.html#afedfd58842e55800f23f90ed00b0a967" target="_top" xlink:title="espconn_tcp_write">
<polygon fill="#ffffff" stroke="#000000" points="245.5,-38.5 245.5,-57.5 324.5,-57.5 324.5,-38.5 245.5,-38.5"/>
<text text-anchor="middle" x="285" y="-45.5" font-family="Helvetica,sans-Serif" font-size="10.00" fill="#000000">espconn_tcp_write</text>
</a>
</g>
</g>
<!-- Node174&#45;&gt;Node175 -->
<g id="edge2" class="edge">
<title>Node174&#45;&gt;Node175</title>
<path fill="none" stroke="#191970" d="M205.2958,-35.4325C215.0253,-36.9666 225.5131,-38.6203 235.5833,-40.2082"/>
<polygon fill="#191970" stroke="#191970" points="235.0477,-43.6669 245.4708,-41.7672 236.138,-36.7523 235.0477,-43.6669"/>
</g>
<!-- Node177 -->
<g id="node5" class="node">
<title>Node177</title>
<g id="a_node5"><a xlink:href="espconn_8c.html#a5c499e423f91737c0214031fd67fdb1f" target="_top" xlink:title="espconn_pbuf_delete">
<polygon fill="#ffffff" stroke="#000000" points="241,-.5 241,-19.5 329,-19.5 329,-.5 241,-.5"/>
<text text-anchor="middle" x="285" y="-7.5" font-family="Helvetica,sans-Serif" font-size="10.00" fill="#000000">espconn_pbuf_delete</text>
</a>
</g>
</g>
<!-- Node174&#45;&gt;Node177 -->
<g id="edge4" class="edge">
<title>Node174&#45;&gt;Node177</title>
<path fill="none" stroke="#191970" d="M205.2958,-22.5675C213.5403,-21.2675 222.3292,-19.8817 230.9472,-18.5229"/>
<polygon fill="#191970" stroke="#191970" points="231.6098,-21.9617 240.9426,-16.9468 230.5194,-15.0471 231.6098,-21.9617"/>
</g>
<!-- Node176 -->
<g id="node4" class="node">
<title>Node176</title>
<g id="a_node4"><a xlink:href="espconn__tcp_8c.html#a5a4844397c6068a44e5422de0eadcb86" target="_top" xlink:title="espconn_tcp_sent">
<polygon fill="#ffffff" stroke="#000000" points="365,-38.5 365,-57.5 442,-57.5 442,-38.5 365,-38.5"/>
<text text-anchor="middle" x="403.5" y="-45.5" font-family="Helvetica,sans-Serif" font-size="10.00" fill="#000000">espconn_tcp_sent</text>
</a>
</g>
</g>
<!-- Node175&#45;&gt;Node176 -->
<g id="edge3" class="edge">
<title>Node175&#45;&gt;Node176</title>
<path fill="none" stroke="#191970" d="M324.7884,-48C334.3698,-48 344.7149,-48 354.6565,-48"/>
<polygon fill="#191970" stroke="#191970" points="354.8217,-51.5001 364.8217,-48 354.8216,-44.5001 354.8217,-51.5001"/>
</g>
</g>
</svg>
