<?xml version="1.0" encoding="UTF-8" standalone="no"?>
<!DOCTYPE svg PUBLIC "-//W3C//DTD SVG 1.1//EN"
 "http://www.w3.org/Graphics/SVG/1.1/DTD/svg11.dtd">
<!-- Generated by graphviz version 2.40.1 (20161225.0304)
 -->
<!-- Title: espconn_tcp_client Pages: 1 -->
<svg width="707pt" height="351pt"
 viewBox="0.00 0.00 707.00 351.00" xmlns="http://www.w3.org/2000/svg" xmlns:xlink="http://www.w3.org/1999/xlink">
<g id="graph0" class="graph" transform="scale(1 1) rotate(0) translate(4 347)">
<title>espconn_tcp_client</title>
<polygon fill="#ffffff" stroke="transparent" points="-4,4 -4,-347 703,-347 703,4 -4,4"/>
<!-- Node218 -->
<g id="node1" class="node">
<title>Node218</title>
<polygon fill="#bfbfbf" stroke="#000000" points="0,-95.5 0,-114.5 81,-114.5 81,-95.5 0,-95.5"/>
<text text-anchor="middle" x="40.5" y="-102.5" font-family="Helvetica,sans-Serif" font-size="10.00" fill="#000000">espconn_tcp_client</text>
</g>
<!-- Node219 -->
<g id="node2" class="node">
<title>Node219</title>
<g id="a_node2"><a xlink:href="espconn__tcp_8c.html#a86c46016b2975352fa63c06ef75d11dc" target="_top" xlink:title="espconn_client_connect">
<polygon fill="#ffffff" stroke="#000000" points="117,-212.5 117,-231.5 214,-231.5 214,-212.5 117,-212.5"/>
<text text-anchor="middle" x="165.5" y="-219.5" font-family="Helvetica,sans-Serif" font-size="10.00" fill="#000000">espconn_client_connect</text>
</a>
</g>
</g>
<!-- Node218&#45;&gt;Node219 -->
<g id="edge1" class="edge">
<title>Node218&#45;&gt;Node219</title>
<path fill="none" stroke="#191970" d="M50.7293,-114.5746C71.9716,-134.4574 121.0925,-180.4346 147.6631,-205.3047"/>
<polygon fill="#191970" stroke="#191970" points="145.4368,-208.0148 155.1294,-212.2931 150.2203,-202.9042 145.4368,-208.0148"/>
</g>
<!-- Node226 -->
<g id="node9" class="node">
<title>Node226</title>
<g id="a_node9"><a xlink:href="memp_8h.html#a9d30a969401eb0626105950d6e63f3bf" target="_top" xlink:title="memp_free">
<polygon fill="#ffffff" stroke="#000000" points="515,-152.5 515,-171.5 569,-171.5 569,-152.5 515,-152.5"/>
<text text-anchor="middle" x="542" y="-159.5" font-family="Helvetica,sans-Serif" font-size="10.00" fill="#000000">memp_free</text>
</a>
</g>
</g>
<!-- Node218&#45;&gt;Node226 -->
<g id="edge21" class="edge">
<title>Node218&#45;&gt;Node226</title>
<path fill="none" stroke="#191970" d="M55.0134,-114.5193C69.8876,-123.7044 94.0272,-137.0642 117,-143 256.0421,-178.9261 429.0442,-171.2395 504.2101,-165.465"/>
<polygon fill="#191970" stroke="#191970" points="504.8869,-168.922 514.5745,-164.6323 504.3263,-161.9444 504.8869,-168.922"/>
</g>
<!-- Node233 -->
<g id="node16" class="node">
<title>Node233</title>
<g id="a_node16"><a xlink:href="espconn__tcp_8c.html#aab11c9904d6b5631c0d57eb1c35a4583" target="_top" xlink:title="espconn_client_err">
<polygon fill="#ffffff" stroke="#000000" points="125.5,-114.5 125.5,-133.5 205.5,-133.5 205.5,-114.5 125.5,-114.5"/>
<text text-anchor="middle" x="165.5" y="-121.5" font-family="Helvetica,sans-Serif" font-size="10.00" fill="#000000">espconn_client_err</text>
</a>
</g>
</g>
<!-- Node218&#45;&gt;Node233 -->
<g id="edge16" class="edge">
<title>Node218&#45;&gt;Node233</title>
<path fill="none" stroke="#191970" d="M81.0839,-111.1688C91.8907,-112.8114 103.6983,-114.6061 114.9668,-116.319"/>
<polygon fill="#191970" stroke="#191970" points="114.7073,-119.8196 125.1197,-117.8622 115.7592,-112.8991 114.7073,-119.8196"/>
</g>
<!-- Node234 -->
<g id="node17" class="node">
<title>Node234</title>
<g id="a_node17"><a xlink:href="espconn__tcp_8c.html#a6a055f2ec5c88dec2ad39c0c2690a4a8" target="_top" xlink:title="espconn_kill_pcb">
<polygon fill="#ffffff" stroke="#000000" points="257,-86.5 257,-105.5 331,-105.5 331,-86.5 257,-86.5"/>
<text text-anchor="middle" x="294" y="-93.5" font-family="Helvetica,sans-Serif" font-size="10.00" fill="#000000">espconn_kill_pcb</text>
</a>
</g>
</g>
<!-- Node218&#45;&gt;Node234 -->
<g id="edge17" class="edge">
<title>Node218&#45;&gt;Node234</title>
<path fill="none" stroke="#191970" d="M81.2292,-103.554C126.3443,-101.9523 198.9894,-99.3732 246.6169,-97.6822"/>
<polygon fill="#191970" stroke="#191970" points="246.8066,-101.1778 256.6761,-97.3251 246.5582,-94.1822 246.8066,-101.1778"/>
</g>
<!-- Node235 -->
<g id="node18" class="node">
<title>Node235</title>
<g id="a_node18"><a xlink:href="esp-open-lwip_2include_2lwip_2app_2espconn_8h.html#ae65b40a3ff0ee3fe9b764523fa4a3c48" target="_top" xlink:title="espconn_list_creat">
<polygon fill="#ffffff" stroke="#000000" points="126,-38.5 126,-57.5 205,-57.5 205,-38.5 126,-38.5"/>
<text text-anchor="middle" x="165.5" y="-45.5" font-family="Helvetica,sans-Serif" font-size="10.00" fill="#000000">espconn_list_creat</text>
</a>
</g>
</g>
<!-- Node218&#45;&gt;Node235 -->
<g id="edge19" class="edge">
<title>Node218&#45;&gt;Node235</title>
<path fill="none" stroke="#191970" d="M61.4222,-95.4595C81.6122,-86.2528 112.3963,-72.2153 135.2531,-61.7926"/>
<polygon fill="#191970" stroke="#191970" points="136.863,-64.9052 144.5096,-57.5716 133.9587,-58.5362 136.863,-64.9052"/>
</g>
<!-- Node236 -->
<g id="node19" class="node">
<title>Node236</title>
<g id="a_node19"><a xlink:href="esp-open-lwip_2include_2lwip_2app_2espconn_8h.html#a21fdb0b0c880a693e29905894bd60afb" target="_top" xlink:title="espconn_list_delete">
<polygon fill="#ffffff" stroke="#000000" points="124,-.5 124,-19.5 207,-19.5 207,-.5 124,-.5"/>
<text text-anchor="middle" x="165.5" y="-7.5" font-family="Helvetica,sans-Serif" font-size="10.00" fill="#000000">espconn_list_delete</text>
</a>
</g>
</g>
<!-- Node218&#45;&gt;Node236 -->
<g id="edge20" class="edge">
<title>Node218&#45;&gt;Node236</title>
<path fill="none" stroke="#191970" d="M47.9884,-95.3261C60.6639,-79.52 87.8302,-48.0174 117,-29 119.9296,-27.0901 123.0808,-25.3236 126.3199,-23.7008"/>
<polygon fill="#191970" stroke="#191970" points="127.9067,-26.8244 135.5698,-19.5082 125.0168,-20.4487 127.9067,-26.8244"/>
</g>
<!-- Node220 -->
<g id="node3" class="node">
<title>Node220</title>
<g id="a_node3"><a xlink:href="espconn__tcp_8c.html#a982e86de0cf75d42f72ecc953949e415" target="_top" xlink:title="espconn_client_recv">
<polygon fill="#ffffff" stroke="#000000" points="251.5,-190.5 251.5,-209.5 336.5,-209.5 336.5,-190.5 251.5,-190.5"/>
<text text-anchor="middle" x="294" y="-197.5" font-family="Helvetica,sans-Serif" font-size="10.00" fill="#000000">espconn_client_recv</text>
</a>
</g>
</g>
<!-- Node219&#45;&gt;Node220 -->
<g id="edge2" class="edge">
<title>Node219&#45;&gt;Node220</title>
<path fill="none" stroke="#191970" d="M214.0803,-213.6827C222.9621,-212.1621 232.2694,-210.5687 241.2653,-209.0285"/>
<polygon fill="#191970" stroke="#191970" points="241.9845,-212.4564 251.2504,-207.319 240.8032,-205.5568 241.9845,-212.4564"/>
</g>
<!-- Node227 -->
<g id="node10" class="node">
<title>Node227</title>
<g id="a_node10"><a xlink:href="espconn__tcp_8c.html#a1203a8c81ffd8641243ae4800bfe0d55" target="_top" xlink:title="espconn_client_sent">
<polygon fill="#ffffff" stroke="#000000" points="251.5,-291.5 251.5,-310.5 336.5,-310.5 336.5,-291.5 251.5,-291.5"/>
<text text-anchor="middle" x="294" y="-298.5" font-family="Helvetica,sans-Serif" font-size="10.00" fill="#000000">espconn_client_sent</text>
</a>
</g>
</g>
<!-- Node219&#45;&gt;Node227 -->
<g id="edge10" class="edge">
<title>Node219&#45;&gt;Node227</title>
<path fill="none" stroke="#191970" d="M181.0001,-231.5292C203.0935,-245.1119 243.8436,-270.1645 269.8971,-286.1819"/>
<polygon fill="#191970" stroke="#191970" points="268.093,-289.1812 278.4449,-291.437 271.7591,-283.218 268.093,-289.1812"/>
</g>
<!-- Node232 -->
<g id="node15" class="node">
<title>Node232</title>
<g id="a_node15"><a xlink:href="esp-open-lwip_2include_2lwip_2app_2espconn_8h.html#aebb1efce8ecc198f9e9a663b69f42113" target="_top" xlink:title="espconn_tcp_set_buf\l_count">
<polygon fill="#ffffff" stroke="#000000" points="250,-229 250,-259 338,-259 338,-229 250,-229"/>
<text text-anchor="start" x="258" y="-247" font-family="Helvetica,sans-Serif" font-size="10.00" fill="#000000">espconn_tcp_set_buf</text>
<text text-anchor="middle" x="294" y="-236" font-family="Helvetica,sans-Serif" font-size="10.00" fill="#000000">_count</text>
</a>
</g>
</g>
<!-- Node219&#45;&gt;Node232 -->
<g id="edge15" class="edge">
<title>Node219&#45;&gt;Node232</title>
<path fill="none" stroke="#191970" d="M214.0803,-230.3173C222.5601,-231.7691 231.4278,-233.2872 240.042,-234.7621"/>
<polygon fill="#191970" stroke="#191970" points="239.5522,-238.2291 249.9995,-236.4668 240.7336,-231.3294 239.5522,-238.2291"/>
</g>
<!-- Node221 -->
<g id="node4" class="node">
<title>Node221</title>
<g id="a_node4"><a xlink:href="espconn__tcp_8c.html#a1bf4d2aa3261188fe87a4f3c631eee15" target="_top" xlink:title="espconn_client_close">
<polygon fill="#ffffff" stroke="#000000" points="374,-190.5 374,-209.5 462,-209.5 462,-190.5 374,-190.5"/>
<text text-anchor="middle" x="418" y="-197.5" font-family="Helvetica,sans-Serif" font-size="10.00" fill="#000000">espconn_client_close</text>
</a>
</g>
</g>
<!-- Node220&#45;&gt;Node221 -->
<g id="edge3" class="edge">
<title>Node220&#45;&gt;Node221</title>
<path fill="none" stroke="#191970" d="M336.6738,-193.5503C345.4286,-193.2698 354.7547,-193.1858 363.8516,-193.2983"/>
<polygon fill="#191970" stroke="#191970" points="363.9116,-196.8003 373.9822,-193.5089 364.0572,-189.8018 363.9116,-196.8003"/>
</g>
<!-- Node222 -->
<g id="node5" class="node">
<title>Node222</title>
<g id="a_node5"><a xlink:href="pbuf_8h.html#ab0a418a2392133e6b18c7b19f7c04500" target="_top" xlink:title="pbuf_copy_partial">
<polygon fill="#ffffff" stroke="#000000" points="380,-266.5 380,-285.5 456,-285.5 456,-266.5 380,-266.5"/>
<text text-anchor="middle" x="418" y="-273.5" font-family="Helvetica,sans-Serif" font-size="10.00" fill="#000000">pbuf_copy_partial</text>
</a>
</g>
</g>
<!-- Node220&#45;&gt;Node222 -->
<g id="edge5" class="edge">
<title>Node220&#45;&gt;Node222</title>
<path fill="none" stroke="#191970" d="M320.9814,-209.5975C326.8333,-212.2309 332.8169,-215.3772 338,-219 357.0683,-232.3279 354.9317,-243.6721 374,-257 376.5106,-258.7548 379.209,-260.3978 381.9892,-261.9248"/>
<polygon fill="#191970" stroke="#191970" points="380.5047,-265.0954 391.0186,-266.4025 383.6147,-258.8241 380.5047,-265.0954"/>
</g>
<!-- Node223 -->
<g id="node6" class="node">
<title>Node223</title>
<g id="a_node6"><a xlink:href="pbuf_8h.html#a0d26e00e2cf975274139d27ddabd7ed3" target="_top" xlink:title="pbuf_free">
<polygon fill="#ffffff" stroke="#000000" points="394,-228.5 394,-247.5 442,-247.5 442,-228.5 394,-228.5"/>
<text text-anchor="middle" x="418" y="-235.5" font-family="Helvetica,sans-Serif" font-size="10.00" fill="#000000">pbuf_free</text>
</a>
</g>
</g>
<!-- Node220&#45;&gt;Node223 -->
<g id="edge6" class="edge">
<title>Node220&#45;&gt;Node223</title>
<path fill="none" stroke="#191970" d="M325.2904,-209.589C343.209,-215.0802 365.706,-221.9744 384.0511,-227.5963"/>
<polygon fill="#191970" stroke="#191970" points="383.1737,-230.988 393.7603,-230.5717 385.2247,-224.2952 383.1737,-230.988"/>
</g>
<!-- Node221&#45;&gt;Node220 -->
<g id="edge4" class="edge">
<title>Node221&#45;&gt;Node220</title>
<path fill="none" stroke="#191970" d="M373.9822,-206.4911C365.1712,-206.7516 355.8298,-206.8155 346.7583,-206.6829"/>
<polygon fill="#191970" stroke="#191970" points="346.7521,-203.1819 336.6738,-206.4497 346.5901,-210.18 346.7521,-203.1819"/>
</g>
<!-- Node224 -->
<g id="node7" class="node">
<title>Node224</title>
<g id="a_node7"><a xlink:href="esp-open-lwip_2include_2lwip_2mem_8h.html#ab270bbe39e1996d7095be3a139620ce0" target="_top" xlink:title="mem_free">
<polygon fill="#ffffff" stroke="#000000" points="517,-228.5 517,-247.5 567,-247.5 567,-228.5 517,-228.5"/>
<text text-anchor="middle" x="542" y="-235.5" font-family="Helvetica,sans-Serif" font-size="10.00" fill="#000000">mem_free</text>
</a>
</g>
</g>
<!-- Node223&#45;&gt;Node224 -->
<g id="edge7" class="edge">
<title>Node223&#45;&gt;Node224</title>
<path fill="none" stroke="#191970" d="M442.2028,-238C460.4486,-238 485.7565,-238 506.3206,-238"/>
<polygon fill="#191970" stroke="#191970" points="506.5794,-241.5001 516.5794,-238 506.5794,-234.5001 506.5794,-241.5001"/>
</g>
<!-- Node223&#45;&gt;Node226 -->
<g id="edge9" class="edge">
<title>Node223&#45;&gt;Node226</title>
<path fill="none" stroke="#191970" d="M442.1931,-228.6411C448.7557,-225.8115 455.7666,-222.5142 462,-219 483.6845,-206.7751 506.6498,-189.9596 522.3853,-177.763"/>
<polygon fill="#191970" stroke="#191970" points="524.6288,-180.4514 530.3293,-171.5208 520.3038,-174.9472 524.6288,-180.4514"/>
</g>
<!-- Node225 -->
<g id="node8" class="node">
<title>Node225</title>
<g id="a_node8"><a xlink:href="mem_8c.html#a24221009a2c00e9c3fa63eaa9444a076" target="_top" xlink:title="plug_holes">
<polygon fill="#ffffff" stroke="#000000" points="634,-228.5 634,-247.5 687,-247.5 687,-228.5 634,-228.5"/>
<text text-anchor="middle" x="660.5" y="-235.5" font-family="Helvetica,sans-Serif" font-size="10.00" fill="#000000">plug_holes</text>
</a>
</g>
</g>
<!-- Node224&#45;&gt;Node225 -->
<g id="edge8" class="edge">
<title>Node224&#45;&gt;Node225</title>
<path fill="none" stroke="#191970" d="M567.1308,-238C583.5635,-238 605.3077,-238 623.6776,-238"/>
<polygon fill="#191970" stroke="#191970" points="623.7586,-241.5001 633.7585,-238 623.7585,-234.5001 623.7586,-241.5001"/>
</g>
<!-- Node228 -->
<g id="node11" class="node">
<title>Node228</title>
<g id="a_node11"><a xlink:href="espconn__tcp_8c.html#a46f54f8c9e0dbc0c03f7666380fa3bbd" target="_top" xlink:title="espconn_tcp_finish">
<polygon fill="#ffffff" stroke="#000000" points="377.5,-304.5 377.5,-323.5 458.5,-323.5 458.5,-304.5 377.5,-304.5"/>
<text text-anchor="middle" x="418" y="-311.5" font-family="Helvetica,sans-Serif" font-size="10.00" fill="#000000">espconn_tcp_finish</text>
</a>
</g>
</g>
<!-- Node227&#45;&gt;Node228 -->
<g id="edge11" class="edge">
<title>Node227&#45;&gt;Node228</title>
<path fill="none" stroke="#191970" d="M336.6738,-305.4739C346.5517,-306.5095 357.1568,-307.6213 367.3395,-308.6888"/>
<polygon fill="#191970" stroke="#191970" points="367.0283,-312.1753 377.3387,-309.7371 367.7582,-305.2134 367.0283,-312.1753"/>
</g>
<!-- Node229 -->
<g id="node12" class="node">
<title>Node229</title>
<g id="a_node12"><a xlink:href="espconn__tcp_8c.html#afedfd58842e55800f23f90ed00b0a967" target="_top" xlink:title="espconn_tcp_write">
<polygon fill="#ffffff" stroke="#000000" points="502.5,-323.5 502.5,-342.5 581.5,-342.5 581.5,-323.5 502.5,-323.5"/>
<text text-anchor="middle" x="542" y="-330.5" font-family="Helvetica,sans-Serif" font-size="10.00" fill="#000000">espconn_tcp_write</text>
</a>
</g>
</g>
<!-- Node228&#45;&gt;Node229 -->
<g id="edge12" class="edge">
<title>Node228&#45;&gt;Node229</title>
<path fill="none" stroke="#191970" d="M458.6022,-320.2213C469.3096,-321.862 480.9875,-323.6513 492.1225,-325.3575"/>
<polygon fill="#191970" stroke="#191970" points="491.7377,-328.8393 502.1525,-326.8943 492.798,-321.92 491.7377,-328.8393"/>
</g>
<!-- Node231 -->
<g id="node14" class="node">
<title>Node231</title>
<g id="a_node14"><a xlink:href="espconn_8c.html#a5c499e423f91737c0214031fd67fdb1f" target="_top" xlink:title="espconn_pbuf_delete">
<polygon fill="#ffffff" stroke="#000000" points="498,-285.5 498,-304.5 586,-304.5 586,-285.5 498,-285.5"/>
<text text-anchor="middle" x="542" y="-292.5" font-family="Helvetica,sans-Serif" font-size="10.00" fill="#000000">espconn_pbuf_delete</text>
</a>
</g>
</g>
<!-- Node228&#45;&gt;Node231 -->
<g id="edge14" class="edge">
<title>Node228&#45;&gt;Node231</title>
<path fill="none" stroke="#191970" d="M458.6022,-307.7787C467.9334,-306.3489 478.0016,-304.8062 487.8053,-303.304"/>
<polygon fill="#191970" stroke="#191970" points="488.5294,-306.734 497.884,-301.7597 487.4692,-299.8148 488.5294,-306.734"/>
</g>
<!-- Node230 -->
<g id="node13" class="node">
<title>Node230</title>
<g id="a_node13"><a xlink:href="espconn__tcp_8c.html#a5a4844397c6068a44e5422de0eadcb86" target="_top" xlink:title="espconn_tcp_sent">
<polygon fill="#ffffff" stroke="#000000" points="622,-323.5 622,-342.5 699,-342.5 699,-323.5 622,-323.5"/>
<text text-anchor="middle" x="660.5" y="-330.5" font-family="Helvetica,sans-Serif" font-size="10.00" fill="#000000">espconn_tcp_sent</text>
</a>
</g>
</g>
<!-- Node229&#45;&gt;Node230 -->
<g id="edge13" class="edge">
<title>Node229&#45;&gt;Node230</title>
<path fill="none" stroke="#191970" d="M581.7884,-333C591.3698,-333 601.7149,-333 611.6565,-333"/>
<polygon fill="#191970" stroke="#191970" points="611.8217,-336.5001 621.8217,-333 611.8216,-329.5001 611.8217,-336.5001"/>
</g>
<!-- Node234&#45;&gt;Node226 -->
<g id="edge18" class="edge">
<title>Node234&#45;&gt;Node226</title>
<path fill="none" stroke="#191970" d="M329.7965,-105.5265C376.5348,-117.9649 457.9362,-139.6282 505.1761,-152.2001"/>
<polygon fill="#191970" stroke="#191970" points="504.4321,-155.6238 514.9959,-154.8134 506.2324,-148.8593 504.4321,-155.6238"/>
</g>
</g>
</svg>
