<?xml version="1.0" encoding="UTF-8" standalone="no"?>
<!DOCTYPE svg PUBLIC "-//W3C//DTD SVG 1.1//EN"
 "http://www.w3.org/Graphics/SVG/1.1/DTD/svg11.dtd">
<!-- Generated by graphviz version 2.40.1 (20161225.0304)
 -->
<!-- Title: espconn_server_recv Pages: 1 -->
<svg width="917pt" height="151pt"
 viewBox="0.00 0.00 917.00 151.00" xmlns="http://www.w3.org/2000/svg" xmlns:xlink="http://www.w3.org/1999/xlink">
<g id="graph0" class="graph" transform="scale(1 1) rotate(0) translate(4 147)">
<title>espconn_server_recv</title>
<polygon fill="#ffffff" stroke="transparent" points="-4,4 -4,-147 913,-147 913,4 -4,4"/>
<!-- Node159 -->
<g id="node1" class="node">
<title>Node159</title>
<polygon fill="#bfbfbf" stroke="#000000" points="0,-19.5 0,-38.5 88,-38.5 88,-19.5 0,-19.5"/>
<text text-anchor="middle" x="44" y="-26.5" font-family="Helvetica,sans-Serif" font-size="10.00" fill="#000000">espconn_server_recv</text>
</g>
<!-- Node160 -->
<g id="node2" class="node">
<title>Node160</title>
<g id="a_node2"><a xlink:href="espconn__tcp_8c.html#a1c87d6afab08e5f7f51a212a20547dee" target="_top" xlink:title="espconn_server_close">
<polygon fill="#ffffff" stroke="#000000" points="124,-19.5 124,-38.5 216,-38.5 216,-19.5 124,-19.5"/>
<text text-anchor="middle" x="170" y="-26.5" font-family="Helvetica,sans-Serif" font-size="10.00" fill="#000000">espconn_server_close</text>
</a>
</g>
</g>
<!-- Node159&#45;&gt;Node160 -->
<g id="edge1" class="edge">
<title>Node159&#45;&gt;Node160</title>
<path fill="none" stroke="#191970" d="M98.2288,-22.3085C106.68,-22.1951 115.346,-22.2466 123.6023,-22.4628"/>
<polygon fill="#191970" stroke="#191970" points="97.9905,-18.8127 88.0687,-22.5285 98.1421,-25.8111 97.9905,-18.8127"/>
</g>
<!-- Node162 -->
<g id="node4" class="node">
<title>Node162</title>
<g id="a_node4"><a xlink:href="espconn__tcp_8c.html#acf0ecfba42ea8bcc55836b8dccabe511" target="_top" xlink:title="espconn_tcp_accept">
<polygon fill="#ffffff" stroke="#000000" points="387,-.5 387,-19.5 472,-19.5 472,-.5 387,-.5"/>
<text text-anchor="middle" x="429.5" y="-7.5" font-family="Helvetica,sans-Serif" font-size="10.00" fill="#000000">espconn_tcp_accept</text>
</a>
</g>
</g>
<!-- Node159&#45;&gt;Node162 -->
<g id="edge17" class="edge">
<title>Node159&#45;&gt;Node162</title>
<path fill="none" stroke="#191970" d="M86.2268,-17.0301C98.3226,-14.1324 111.594,-11.453 124,-10 217.2403,.9204 327.5887,-3.2601 386.8152,-6.8801"/>
<polygon fill="#191970" stroke="#191970" points="85.2382,-13.6695 76.3876,-19.4934 86.9383,-20.46 85.2382,-13.6695"/>
</g>
<!-- Node160&#45;&gt;Node159 -->
<g id="edge6" class="edge">
<title>Node160&#45;&gt;Node159</title>
<path fill="none" stroke="#191970" d="M113.3702,-35.7192C104.884,-35.8015 96.242,-35.7189 88.0687,-35.4715"/>
<polygon fill="#191970" stroke="#191970" points="113.6662,-39.2146 123.6023,-35.5372 113.5416,-32.2157 113.6662,-39.2146"/>
</g>
<!-- Node161 -->
<g id="node3" class="node">
<title>Node161</title>
<g id="a_node3"><a xlink:href="espconn__tcp_8c.html#af3868ea055aae73a6f4de8866d31aceb" target="_top" xlink:title="espconn_server_poll">
<polygon fill="#ffffff" stroke="#000000" points="258.5,-19.5 258.5,-38.5 344.5,-38.5 344.5,-19.5 258.5,-19.5"/>
<text text-anchor="middle" x="301.5" y="-26.5" font-family="Helvetica,sans-Serif" font-size="10.00" fill="#000000">espconn_server_poll</text>
</a>
</g>
</g>
<!-- Node160&#45;&gt;Node161 -->
<g id="edge2" class="edge">
<title>Node160&#45;&gt;Node161</title>
<path fill="none" stroke="#191970" d="M226.4241,-29C237.0643,-29 248.0371,-29 258.1972,-29"/>
<polygon fill="#191970" stroke="#191970" points="226.362,-25.5001 216.362,-29 226.3619,-32.5001 226.362,-25.5001"/>
</g>
<!-- Node165 -->
<g id="node7" class="node">
<title>Node165</title>
<g id="a_node7"><a xlink:href="espconn__tcp_8c.html#ad1a7f8ed76cc477a4dd553c9a6d8e529" target="_top" xlink:title="espconn_tcp_disconnect">
<polygon fill="#ffffff" stroke="#000000" points="252,-57.5 252,-76.5 351,-76.5 351,-57.5 252,-57.5"/>
<text text-anchor="middle" x="301.5" y="-64.5" font-family="Helvetica,sans-Serif" font-size="10.00" fill="#000000">espconn_tcp_disconnect</text>
</a>
</g>
</g>
<!-- Node160&#45;&gt;Node165 -->
<g id="edge7" class="edge">
<title>Node160&#45;&gt;Node165</title>
<path fill="none" stroke="#191970" d="M212.8778,-41.3906C230.8862,-46.5945 251.5096,-52.5541 268.3276,-57.4141"/>
<polygon fill="#191970" stroke="#191970" points="213.7616,-38.0028 203.183,-38.589 211.8183,-44.7276 213.7616,-38.0028"/>
</g>
<!-- Node161&#45;&gt;Node162 -->
<g id="edge3" class="edge">
<title>Node161&#45;&gt;Node162</title>
<path fill="none" stroke="#191970" d="M354.8383,-21.0826C365.4414,-19.5087 376.4463,-17.8752 386.6442,-16.3614"/>
<polygon fill="#191970" stroke="#191970" points="354.2127,-17.637 344.835,-22.5675 355.2405,-24.5612 354.2127,-17.637"/>
</g>
<!-- Node163 -->
<g id="node5" class="node">
<title>Node163</title>
<g id="a_node5"><a xlink:href="espconn__tcp_8c.html#ace125fa28aced169fba2b955f1ce76fb" target="_top" xlink:title="espconn_tcp_server">
<polygon fill="#ffffff" stroke="#000000" points="509.5,-.5 509.5,-19.5 593.5,-19.5 593.5,-.5 509.5,-.5"/>
<text text-anchor="middle" x="551.5" y="-7.5" font-family="Helvetica,sans-Serif" font-size="10.00" fill="#000000">espconn_tcp_server</text>
</a>
</g>
</g>
<!-- Node162&#45;&gt;Node163 -->
<g id="edge4" class="edge">
<title>Node162&#45;&gt;Node163</title>
<path fill="none" stroke="#191970" d="M482.2838,-10C491.3743,-10 500.7129,-10 509.4718,-10"/>
<polygon fill="#191970" stroke="#191970" points="482.1697,-6.5001 472.1697,-10 482.1696,-13.5001 482.1697,-6.5001"/>
</g>
<!-- Node164 -->
<g id="node6" class="node">
<title>Node164</title>
<g id="a_node6"><a xlink:href="sdk_2include_2espconn_8h.html#abd44446e3fc4a61fdef77d473deb678b" target="_top" xlink:title="espconn_accept">
<polygon fill="#ffffff" stroke="#000000" points="634,-.5 634,-19.5 705,-19.5 705,-.5 634,-.5"/>
<text text-anchor="middle" x="669.5" y="-7.5" font-family="Helvetica,sans-Serif" font-size="10.00" fill="#000000">espconn_accept</text>
</a>
</g>
</g>
<!-- Node163&#45;&gt;Node164 -->
<g id="edge5" class="edge">
<title>Node163&#45;&gt;Node164</title>
<path fill="none" stroke="#191970" d="M603.7675,-10C613.9021,-10 624.3052,-10 633.7596,-10"/>
<polygon fill="#191970" stroke="#191970" points="603.7674,-6.5001 593.7674,-10 603.7674,-13.5001 603.7674,-6.5001"/>
</g>
<!-- Node166 -->
<g id="node8" class="node">
<title>Node166</title>
<g id="a_node8"><a xlink:href="sdk_2include_2espconn_8h.html#a9969873c3b8ee86a34496a5166cf8bfc" target="_top" xlink:title="espconn_disconnect">
<polygon fill="#ffffff" stroke="#000000" points="387,-47.5 387,-66.5 472,-66.5 472,-47.5 387,-47.5"/>
<text text-anchor="middle" x="429.5" y="-54.5" font-family="Helvetica,sans-Serif" font-size="10.00" fill="#000000">espconn_disconnect</text>
</a>
</g>
</g>
<!-- Node165&#45;&gt;Node166 -->
<g id="edge8" class="edge">
<title>Node165&#45;&gt;Node166</title>
<path fill="none" stroke="#191970" d="M361.5847,-62.3059C370.0415,-61.6452 378.5897,-60.9774 386.6359,-60.3488"/>
<polygon fill="#191970" stroke="#191970" points="361.0516,-58.8368 351.3547,-63.1051 361.5969,-65.8155 361.0516,-58.8368"/>
</g>
<!-- Node167 -->
<g id="node9" class="node">
<title>Node167</title>
<g id="a_node9"><a xlink:href="sdk_2include_2espconn_8h.html#ad6b3d2d0f556e6da81c898a6b9fa5c53" target="_top" xlink:title="espconn_abort">
<polygon fill="#ffffff" stroke="#000000" points="396.5,-85.5 396.5,-104.5 462.5,-104.5 462.5,-85.5 396.5,-85.5"/>
<text text-anchor="middle" x="429.5" y="-92.5" font-family="Helvetica,sans-Serif" font-size="10.00" fill="#000000">espconn_abort</text>
</a>
</g>
</g>
<!-- Node165&#45;&gt;Node167 -->
<g id="edge9" class="edge">
<title>Node165&#45;&gt;Node167</title>
<path fill="none" stroke="#191970" d="M355.148,-78.7355C369.0359,-81.7735 383.5919,-84.9576 396.1059,-87.695"/>
<polygon fill="#191970" stroke="#191970" points="355.7093,-75.2756 345.1923,-76.5577 354.2134,-82.1139 355.7093,-75.2756"/>
</g>
<!-- Node168 -->
<g id="node10" class="node">
<title>Node168</title>
<g id="a_node10"><a xlink:href="mqtt_8c.html#a21ab01c5c7342eb954bdd128a5f4244b" target="_top" xlink:title="Delete tcp client and free all memory. ">
<polygon fill="#ffffff" stroke="#000000" points="508,-85.5 508,-104.5 595,-104.5 595,-85.5 508,-85.5"/>
<text text-anchor="middle" x="551.5" y="-92.5" font-family="Helvetica,sans-Serif" font-size="10.00" fill="#000000">mqtt_tcpclient_delete</text>
</a>
</g>
</g>
<!-- Node167&#45;&gt;Node168 -->
<g id="edge10" class="edge">
<title>Node167&#45;&gt;Node168</title>
<path fill="none" stroke="#191970" d="M472.6997,-95C484.1257,-95 496.4649,-95 507.9114,-95"/>
<polygon fill="#191970" stroke="#191970" points="472.515,-91.5001 462.515,-95 472.5149,-98.5001 472.515,-91.5001"/>
</g>
<!-- Node169 -->
<g id="node11" class="node">
<title>Node169</title>
<g id="a_node11"><a xlink:href="mqtt_8c.html#a9c9b677c6161329a3c3c6470a7182984" target="_top" xlink:title="Delete MQTT client and free all memory. ">
<polygon fill="#ffffff" stroke="#000000" points="631,-85.5 631,-104.5 708,-104.5 708,-85.5 631,-85.5"/>
<text text-anchor="middle" x="669.5" y="-92.5" font-family="Helvetica,sans-Serif" font-size="10.00" fill="#000000">mqtt_client_delete</text>
</a>
</g>
</g>
<!-- Node168&#45;&gt;Node169 -->
<g id="edge11" class="edge">
<title>Node168&#45;&gt;Node169</title>
<path fill="none" stroke="#191970" d="M605.1245,-95C613.7596,-95 622.5495,-95 630.7462,-95"/>
<polygon fill="#191970" stroke="#191970" points="605.1036,-91.5001 595.1036,-95 605.1036,-98.5001 605.1036,-91.5001"/>
</g>
<!-- Node170 -->
<g id="node12" class="node">
<title>Node170</title>
<g id="a_node12"><a xlink:href="mqtt_8c.html#a9d88fa6efb9163d4dbf9dc750a8d4ed0" target="_top" xlink:title="MQTT_Task">
<polygon fill="#ffffff" stroke="#000000" points="744,-85.5 744,-104.5 802,-104.5 802,-85.5 744,-85.5"/>
<text text-anchor="middle" x="773" y="-92.5" font-family="Helvetica,sans-Serif" font-size="10.00" fill="#000000">MQTT_Task</text>
</a>
</g>
</g>
<!-- Node168&#45;&gt;Node170 -->
<g id="edge14" class="edge">
<title>Node168&#45;&gt;Node170</title>
<path fill="none" stroke="#191970" d="M593.4588,-83.0303C605.479,-80.1326 618.6684,-77.4531 631,-76 664.9871,-71.995 674.1232,-71.1502 708,-76 721.0349,-77.8661 735.1057,-81.736 746.8109,-85.4993"/>
<polygon fill="#191970" stroke="#191970" points="592.5233,-79.6565 583.6814,-85.4936 594.2335,-86.4444 592.5233,-79.6565"/>
</g>
<!-- Node172 -->
<g id="node14" class="node">
<title>Node172</title>
<g id="a_node14"><a xlink:href="mqtt_8c.html#ad34b681cb2f7473d8fc786c7ed468db5" target="_top" xlink:title="Begin connect to MQTT broker. ">
<polygon fill="#ffffff" stroke="#000000" points="634.5,-123.5 634.5,-142.5 704.5,-142.5 704.5,-123.5 634.5,-123.5"/>
<text text-anchor="middle" x="669.5" y="-130.5" font-family="Helvetica,sans-Serif" font-size="10.00" fill="#000000">MQTT_Connect</text>
</a>
</g>
</g>
<!-- Node168&#45;&gt;Node172 -->
<g id="edge15" class="edge">
<title>Node168&#45;&gt;Node172</title>
<path fill="none" stroke="#191970" d="M590.8761,-107.6804C606.8198,-112.8148 624.9211,-118.6441 639.7331,-123.4141"/>
<polygon fill="#191970" stroke="#191970" points="591.8679,-104.3229 581.2764,-104.589 589.7221,-110.9859 591.8679,-104.3229"/>
</g>
<!-- Node169&#45;&gt;Node170 -->
<g id="edge12" class="edge">
<title>Node169&#45;&gt;Node170</title>
<path fill="none" stroke="#191970" d="M718.2035,-95C726.9587,-95 735.8306,-95 743.8121,-95"/>
<polygon fill="#191970" stroke="#191970" points="718.0396,-91.5001 708.0396,-95 718.0395,-98.5001 718.0396,-91.5001"/>
</g>
<!-- Node171 -->
<g id="node13" class="node">
<title>Node171</title>
<g id="a_node13"><a xlink:href="mqtt_8c.html#a25cb7ac079d1d119250dac075c45acf1" target="_top" xlink:title="MQTT initialization mqtt client function. ">
<polygon fill="#ffffff" stroke="#000000" points="838,-85.5 838,-104.5 909,-104.5 909,-85.5 838,-85.5"/>
<text text-anchor="middle" x="873.5" y="-92.5" font-family="Helvetica,sans-Serif" font-size="10.00" fill="#000000">MQTT_InitClient</text>
</a>
</g>
</g>
<!-- Node170&#45;&gt;Node171 -->
<g id="edge13" class="edge">
<title>Node170&#45;&gt;Node171</title>
<path fill="none" stroke="#191970" d="M812.0779,-95C820.52,-95 829.4052,-95 837.7137,-95"/>
<polygon fill="#191970" stroke="#191970" points="812.0688,-91.5001 802.0688,-95 812.0687,-98.5001 812.0688,-91.5001"/>
</g>
<!-- Node172&#45;&gt;Node170 -->
<g id="edge16" class="edge">
<title>Node172&#45;&gt;Node170</title>
<path fill="none" stroke="#191970" d="M705.2293,-119.882C718.9184,-114.8561 734.2667,-109.2209 746.8909,-104.5859"/>
<polygon fill="#191970" stroke="#191970" points="703.7984,-116.6788 695.6174,-123.411 706.211,-123.2499 703.7984,-116.6788"/>
</g>
</g>
</svg>
