<?xml version="1.0" encoding="UTF-8" standalone="no"?>
<!DOCTYPE svg PUBLIC "-//W3C//DTD SVG 1.1//EN"
 "http://www.w3.org/Graphics/SVG/1.1/DTD/svg11.dtd">
<!-- Generated by graphviz version 2.40.1 (20161225.0304)
 -->
<!-- Title: user/espfs.h Pages: 1 -->
<svg width="297pt" height="140pt"
 viewBox="0.00 0.00 296.50 140.00" xmlns="http://www.w3.org/2000/svg" xmlns:xlink="http://www.w3.org/1999/xlink">
<g id="graph0" class="graph" transform="scale(1 1) rotate(0) translate(4 136)">
<title>user/espfs.h</title>
<polygon fill="#ffffff" stroke="transparent" points="-4,4 -4,-136 292.5,-136 292.5,4 -4,4"/>
<!-- Node1 -->
<g id="node1" class="node">
<title>Node1</title>
<polygon fill="#bfbfbf" stroke="#000000" points="116,-112.5 116,-131.5 173,-131.5 173,-112.5 116,-112.5"/>
<text text-anchor="middle" x="144.5" y="-119.5" font-family="Helvetica,sans-Serif" font-size="10.00" fill="#000000">user/espfs.h</text>
</g>
<!-- Node2 -->
<g id="node2" class="node">
<title>Node2</title>
<g id="a_node2"><a xlink:href="espfs_8c.html" target="_top" xlink:title="user/espfs.c">
<polygon fill="#ffffff" stroke="#000000" points="0,-56.5 0,-75.5 57,-75.5 57,-56.5 0,-56.5"/>
<text text-anchor="middle" x="28.5" y="-63.5" font-family="Helvetica,sans-Serif" font-size="10.00" fill="#000000">user/espfs.c</text>
</a>
</g>
</g>
<!-- Node1&#45;&gt;Node2 -->
<g id="edge1" class="edge">
<title>Node1&#45;&gt;Node2</title>
<path fill="none" stroke="#191970" d="M115.4463,-107.9741C94.4435,-97.8348 66.6309,-84.408 48.1809,-75.5011"/>
<polygon fill="#191970" stroke="#191970" points="114.0317,-111.1776 124.5589,-112.3733 117.075,-104.8738 114.0317,-111.1776"/>
</g>
<!-- Node3 -->
<g id="node3" class="node">
<title>Node3</title>
<g id="a_node3"><a xlink:href="httpd_8c.html" target="_top" xlink:title="user/httpd.c">
<polygon fill="#ffffff" stroke="#000000" points="75.5,-56.5 75.5,-75.5 131.5,-75.5 131.5,-56.5 75.5,-56.5"/>
<text text-anchor="middle" x="103.5" y="-63.5" font-family="Helvetica,sans-Serif" font-size="10.00" fill="#000000">user/httpd.c</text>
</a>
</g>
</g>
<!-- Node1&#45;&gt;Node3 -->
<g id="edge2" class="edge">
<title>Node1&#45;&gt;Node3</title>
<path fill="none" stroke="#191970" d="M131.2636,-103.9209C124.3789,-94.5176 116.2391,-83.3997 110.5598,-75.6427"/>
<polygon fill="#191970" stroke="#191970" points="128.6269,-106.2445 137.3583,-112.2455 134.2749,-102.1093 128.6269,-106.2445"/>
</g>
<!-- Node4 -->
<g id="node4" class="node">
<title>Node4</title>
<g id="a_node4"><a xlink:href="httpdespfs_8h.html" target="_top" xlink:title="user/httpdespfs.h">
<polygon fill="#ffffff" stroke="#000000" points="149.5,-56.5 149.5,-75.5 223.5,-75.5 223.5,-56.5 149.5,-56.5"/>
<text text-anchor="middle" x="186.5" y="-63.5" font-family="Helvetica,sans-Serif" font-size="10.00" fill="#000000">user/httpdespfs.h</text>
</a>
</g>
</g>
<!-- Node1&#45;&gt;Node4 -->
<g id="edge3" class="edge">
<title>Node1&#45;&gt;Node4</title>
<path fill="none" stroke="#191970" d="M157.8416,-104.2112C164.9396,-94.7472 173.3903,-83.4797 179.268,-75.6427"/>
<polygon fill="#191970" stroke="#191970" points="155.0159,-102.1455 151.8158,-112.2455 160.6159,-106.3455 155.0159,-102.1455"/>
</g>
<!-- Node6 -->
<g id="node6" class="node">
<title>Node6</title>
<g id="a_node6"><a xlink:href="httpdespfs_8c.html" target="_top" xlink:title="user/httpdespfs.c">
<polygon fill="#ffffff" stroke="#000000" points="214.5,-.5 214.5,-19.5 288.5,-19.5 288.5,-.5 214.5,-.5"/>
<text text-anchor="middle" x="251.5" y="-7.5" font-family="Helvetica,sans-Serif" font-size="10.00" fill="#000000">user/httpdespfs.c</text>
</a>
</g>
</g>
<!-- Node1&#45;&gt;Node6 -->
<g id="edge6" class="edge">
<title>Node1&#45;&gt;Node6</title>
<path fill="none" stroke="#191970" d="M182.7501,-109.9131C200.1724,-102.6271 219.7129,-91.6611 232.5,-76 246.0741,-59.3751 249.9529,-33.4996 251.0596,-19.6012"/>
<polygon fill="#191970" stroke="#191970" points="181.3853,-106.6886 173.3454,-113.5886 183.9334,-113.2084 181.3853,-106.6886"/>
</g>
<!-- Node5 -->
<g id="node5" class="node">
<title>Node5</title>
<g id="a_node5"><a xlink:href="httpd__user__init_8c.html" target="_top" xlink:title="user/httpd_user_init.c">
<polygon fill="#ffffff" stroke="#000000" points="108.5,-.5 108.5,-19.5 196.5,-19.5 196.5,-.5 108.5,-.5"/>
<text text-anchor="middle" x="152.5" y="-7.5" font-family="Helvetica,sans-Serif" font-size="10.00" fill="#000000">user/httpd_user_init.c</text>
</a>
</g>
</g>
<!-- Node4&#45;&gt;Node5 -->
<g id="edge4" class="edge">
<title>Node4&#45;&gt;Node5</title>
<path fill="none" stroke="#191970" d="M175.3465,-47.6296C169.6753,-38.2887 163.0155,-27.3197 158.3545,-19.6427"/>
<polygon fill="#191970" stroke="#191970" points="172.3961,-49.5141 180.5777,-56.2455 178.3796,-45.8812 172.3961,-49.5141"/>
</g>
<!-- Node4&#45;&gt;Node6 -->
<g id="edge5" class="edge">
<title>Node4&#45;&gt;Node6</title>
<path fill="none" stroke="#191970" d="M205.4835,-49.645C216.7879,-39.9058 230.747,-27.8795 240.3076,-19.6427"/>
<polygon fill="#191970" stroke="#191970" points="203.1138,-47.0668 197.8221,-56.2455 207.6827,-52.3701 203.1138,-47.0668"/>
</g>
</g>
</svg>
