<?xml version="1.0" encoding="UTF-8" standalone="no"?>
<!DOCTYPE svg PUBLIC "-//W3C//DTD SVG 1.1//EN"
 "http://www.w3.org/Graphics/SVG/1.1/DTD/svg11.dtd">
<!-- Generated by graphviz version 2.40.1 (20161225.0304)
 -->
<!-- Title: esp&#45;open&#45;lwip/include/netif/etharp.h Pages: 1 -->
<svg width="974pt" height="106pt"
 viewBox="0.00 0.00 974.00 106.00" xmlns="http://www.w3.org/2000/svg" xmlns:xlink="http://www.w3.org/1999/xlink">
<g id="graph0" class="graph" transform="scale(1 1) rotate(0) translate(4 102)">
<title>esp&#45;open&#45;lwip/include/netif/etharp.h</title>
<polygon fill="#ffffff" stroke="transparent" points="-4,4 -4,-102 970,-102 970,4 -4,4"/>
<!-- Node14 -->
<g id="node1" class="node">
<title>Node14</title>
<polygon fill="#bfbfbf" stroke="#000000" points="398.5,-67.5 398.5,-97.5 487.5,-97.5 487.5,-67.5 398.5,-67.5"/>
<text text-anchor="start" x="406.5" y="-85.5" font-family="Helvetica,sans-Serif" font-size="10.00" fill="#000000">esp&#45;open&#45;lwip/include</text>
<text text-anchor="middle" x="443" y="-74.5" font-family="Helvetica,sans-Serif" font-size="10.00" fill="#000000">/netif/etharp.h</text>
</g>
<!-- Node15 -->
<g id="node2" class="node">
<title>Node15</title>
<g id="a_node2"><a xlink:href="wifi_8c.html" target="_top" xlink:title="modules/wifi.c">
<polygon fill="#ffffff" stroke="#000000" points="0,-6 0,-25 64,-25 64,-6 0,-6"/>
<text text-anchor="middle" x="32" y="-13" font-family="Helvetica,sans-Serif" font-size="10.00" fill="#000000">modules/wifi.c</text>
</a>
</g>
</g>
<!-- Node14&#45;&gt;Node15 -->
<g id="edge1" class="edge">
<title>Node14&#45;&gt;Node15</title>
<path fill="none" stroke="#191970" d="M387.919,-78.6899C314.9783,-72.7726 182.7586,-59.0109 73,-31 66.9538,-29.457 60.5743,-27.3122 54.6955,-25.1094"/>
<polygon fill="#191970" stroke="#191970" points="387.9959,-82.2068 398.2409,-79.5068 388.5482,-75.2286 387.9959,-82.2068"/>
</g>
<!-- Node16 -->
<g id="node3" class="node">
<title>Node16</title>
<g id="a_node3"><a xlink:href="mqtt_8c.html" target="_top" xlink:title="mqtt/mqtt.c">
<polygon fill="#ffffff" stroke="#000000" points="82,-6 82,-25 136,-25 136,-6 82,-6"/>
<text text-anchor="middle" x="109" y="-13" font-family="Helvetica,sans-Serif" font-size="10.00" fill="#000000">mqtt/mqtt.c</text>
</a>
</g>
</g>
<!-- Node14&#45;&gt;Node16 -->
<g id="edge2" class="edge">
<title>Node14&#45;&gt;Node16</title>
<path fill="none" stroke="#191970" d="M388.2376,-76.9527C327.7804,-69.9301 228.0195,-55.6699 145,-31 139.6513,-29.4106 134.0355,-27.2491 128.8725,-25.0451"/>
<polygon fill="#191970" stroke="#191970" points="387.9933,-80.4474 398.3246,-78.0995 388.784,-73.4922 387.9933,-80.4474"/>
</g>
<!-- Node17 -->
<g id="node4" class="node">
<title>Node17</title>
<g id="a_node4"><a xlink:href="captdns_8c.html" target="_top" xlink:title="user/captdns.c">
<polygon fill="#ffffff" stroke="#000000" points="154.5,-6 154.5,-25 219.5,-25 219.5,-6 154.5,-6"/>
<text text-anchor="middle" x="187" y="-13" font-family="Helvetica,sans-Serif" font-size="10.00" fill="#000000">user/captdns.c</text>
</a>
</g>
</g>
<!-- Node14&#45;&gt;Node17 -->
<g id="edge3" class="edge">
<title>Node14&#45;&gt;Node17</title>
<path fill="none" stroke="#191970" d="M388.5101,-71.2388C344.977,-61.7991 282.5968,-47.2776 229,-31 223.1992,-29.2383 217.0342,-27.1111 211.2654,-25.0049"/>
<polygon fill="#191970" stroke="#191970" points="387.8145,-74.6692 398.3269,-73.3506 389.2867,-67.8257 387.8145,-74.6692"/>
</g>
<!-- Node18 -->
<g id="node5" class="node">
<title>Node18</title>
<g id="a_node5"><a xlink:href="httpd_8c.html" target="_top" xlink:title="user/httpd.c">
<polygon fill="#ffffff" stroke="#000000" points="238,-6 238,-25 294,-25 294,-6 238,-6"/>
<text text-anchor="middle" x="266" y="-13" font-family="Helvetica,sans-Serif" font-size="10.00" fill="#000000">user/httpd.c</text>
</a>
</g>
</g>
<!-- Node14&#45;&gt;Node18 -->
<g id="edge4" class="edge">
<title>Node14&#45;&gt;Node18</title>
<path fill="none" stroke="#191970" d="M391.0889,-64.023C364.619,-54.4449 331.9789,-42.3935 303,-31 298.2037,-29.1142 293.0886,-27.0236 288.2398,-25.004"/>
<polygon fill="#191970" stroke="#191970" points="389.9492,-67.3326 400.5436,-67.434 392.3249,-60.748 389.9492,-67.3326"/>
</g>
<!-- Node19 -->
<g id="node6" class="node">
<title>Node19</title>
<g id="a_node6"><a xlink:href="httpdespfs_8c.html" target="_top" xlink:title="user/httpdespfs.c">
<polygon fill="#ffffff" stroke="#000000" points="312,-6 312,-25 386,-25 386,-6 312,-6"/>
<text text-anchor="middle" x="349" y="-13" font-family="Helvetica,sans-Serif" font-size="10.00" fill="#000000">user/httpdespfs.c</text>
</a>
</g>
</g>
<!-- Node14&#45;&gt;Node19 -->
<g id="edge5" class="edge">
<title>Node14&#45;&gt;Node19</title>
<path fill="none" stroke="#191970" d="M413.1328,-61.2117C396.0907,-49.0646 375.5667,-34.4358 362.4055,-25.055"/>
<polygon fill="#191970" stroke="#191970" points="411.4953,-64.3426 421.6699,-67.2967 415.5582,-58.6423 411.4953,-64.3426"/>
</g>
<!-- Node20 -->
<g id="node7" class="node">
<title>Node20</title>
<g id="a_node7"><a xlink:href="tcpip_8c.html" target="_top" xlink:title="esp&#45;open&#45;lwip/lwip\l/api/tcpip.c">
<polygon fill="#ffffff" stroke="#000000" points="404,-.5 404,-30.5 482,-30.5 482,-.5 404,-.5"/>
<text text-anchor="start" x="412" y="-18.5" font-family="Helvetica,sans-Serif" font-size="10.00" fill="#000000">esp&#45;open&#45;lwip/lwip</text>
<text text-anchor="middle" x="443" y="-7.5" font-family="Helvetica,sans-Serif" font-size="10.00" fill="#000000">/api/tcpip.c</text>
</a>
</g>
</g>
<!-- Node14&#45;&gt;Node20 -->
<g id="edge6" class="edge">
<title>Node14&#45;&gt;Node20</title>
<path fill="none" stroke="#191970" d="M443,-57.0249C443,-48.128 443,-38.4287 443,-30.6432"/>
<polygon fill="#191970" stroke="#191970" points="439.5001,-57.2966 443,-67.2967 446.5001,-57.2967 439.5001,-57.2966"/>
</g>
<!-- Node21 -->
<g id="node8" class="node">
<title>Node21</title>
<g id="a_node8"><a xlink:href="espconn_8c.html" target="_top" xlink:title="esp&#45;open&#45;lwip/lwip\l/app/espconn.c">
<polygon fill="#ffffff" stroke="#000000" points="500,-.5 500,-30.5 578,-30.5 578,-.5 500,-.5"/>
<text text-anchor="start" x="508" y="-18.5" font-family="Helvetica,sans-Serif" font-size="10.00" fill="#000000">esp&#45;open&#45;lwip/lwip</text>
<text text-anchor="middle" x="539" y="-7.5" font-family="Helvetica,sans-Serif" font-size="10.00" fill="#000000">/app/espconn.c</text>
</a>
</g>
</g>
<!-- Node14&#45;&gt;Node21 -->
<g id="edge7" class="edge">
<title>Node14&#45;&gt;Node21</title>
<path fill="none" stroke="#191970" d="M473.3089,-61.3469C487.5933,-51.3776 504.3081,-39.7121 517.3023,-30.6432"/>
<polygon fill="#191970" stroke="#191970" points="470.9811,-58.7033 464.7839,-67.2967 474.9874,-64.4436 470.9811,-58.7033"/>
</g>
<!-- Node22 -->
<g id="node9" class="node">
<title>Node22</title>
<g id="a_node9"><a xlink:href="espconn__tcp_8c.html" target="_top" xlink:title="esp&#45;open&#45;lwip/lwip\l/app/espconn_tcp.c">
<polygon fill="#ffffff" stroke="#000000" points="596,-.5 596,-30.5 678,-30.5 678,-.5 596,-.5"/>
<text text-anchor="start" x="604" y="-18.5" font-family="Helvetica,sans-Serif" font-size="10.00" fill="#000000">esp&#45;open&#45;lwip/lwip</text>
<text text-anchor="middle" x="637" y="-7.5" font-family="Helvetica,sans-Serif" font-size="10.00" fill="#000000">/app/espconn_tcp.c</text>
</a>
</g>
</g>
<!-- Node14&#45;&gt;Node22 -->
<g id="edge8" class="edge">
<title>Node14&#45;&gt;Node22</title>
<path fill="none" stroke="#191970" d="M496.0348,-64.1839C527.5124,-53.3127 566.8245,-39.7359 595.9308,-29.6837"/>
<polygon fill="#191970" stroke="#191970" points="494.847,-60.8912 486.5374,-67.4639 497.1321,-67.5077 494.847,-60.8912"/>
</g>
<!-- Node23 -->
<g id="node10" class="node">
<title>Node23</title>
<g id="a_node10"><a xlink:href="init_8c.html" target="_top" xlink:title="esp&#45;open&#45;lwip/lwip\l/core/init.c">
<polygon fill="#ffffff" stroke="#000000" points="696,-.5 696,-30.5 774,-30.5 774,-.5 696,-.5"/>
<text text-anchor="start" x="704" y="-18.5" font-family="Helvetica,sans-Serif" font-size="10.00" fill="#000000">esp&#45;open&#45;lwip/lwip</text>
<text text-anchor="middle" x="735" y="-7.5" font-family="Helvetica,sans-Serif" font-size="10.00" fill="#000000">/core/init.c</text>
</a>
</g>
</g>
<!-- Node14&#45;&gt;Node23 -->
<g id="edge9" class="edge">
<title>Node14&#45;&gt;Node23</title>
<path fill="none" stroke="#191970" d="M497.7537,-72.6379C547.4599,-63.2845 622.6135,-48.1406 687,-31 689.8772,-30.2341 692.8368,-29.3982 695.8062,-28.5244"/>
<polygon fill="#191970" stroke="#191970" points="497.0417,-69.2103 487.8546,-74.4873 498.3273,-76.0912 497.0417,-69.2103"/>
</g>
<!-- Node24 -->
<g id="node11" class="node">
<title>Node24</title>
<g id="a_node11"><a xlink:href="memp_8c.html" target="_top" xlink:title="esp&#45;open&#45;lwip/lwip\l/core/memp.c">
<polygon fill="#ffffff" stroke="#000000" points="792,-.5 792,-30.5 870,-30.5 870,-.5 792,-.5"/>
<text text-anchor="start" x="800" y="-18.5" font-family="Helvetica,sans-Serif" font-size="10.00" fill="#000000">esp&#45;open&#45;lwip/lwip</text>
<text text-anchor="middle" x="831" y="-7.5" font-family="Helvetica,sans-Serif" font-size="10.00" fill="#000000">/core/memp.c</text>
</a>
</g>
</g>
<!-- Node14&#45;&gt;Node24 -->
<g id="edge10" class="edge">
<title>Node14&#45;&gt;Node24</title>
<path fill="none" stroke="#191970" d="M497.7255,-76.9754C565.3478,-69.5173 683.6463,-54.4032 783,-31 785.8981,-30.3173 788.873,-29.5426 791.8533,-28.7123"/>
<polygon fill="#191970" stroke="#191970" points="497.2843,-73.5027 487.7214,-78.0636 498.0413,-80.4616 497.2843,-73.5027"/>
</g>
<!-- Node25 -->
<g id="node12" class="node">
<title>Node25</title>
<g id="a_node12"><a xlink:href="netif_8c.html" target="_top" xlink:title="esp&#45;open&#45;lwip/lwip\l/core/netif.c">
<polygon fill="#ffffff" stroke="#000000" points="888,-.5 888,-30.5 966,-30.5 966,-.5 888,-.5"/>
<text text-anchor="start" x="896" y="-18.5" font-family="Helvetica,sans-Serif" font-size="10.00" fill="#000000">esp&#45;open&#45;lwip/lwip</text>
<text text-anchor="middle" x="927" y="-7.5" font-family="Helvetica,sans-Serif" font-size="10.00" fill="#000000">/core/netif.c</text>
</a>
</g>
</g>
<!-- Node14&#45;&gt;Node25 -->
<g id="edge11" class="edge">
<title>Node14&#45;&gt;Node25</title>
<path fill="none" stroke="#191970" d="M497.7067,-79.4667C580.866,-74.088 743.7149,-60.5373 879,-31 881.9089,-30.3649 884.8917,-29.6251 887.8777,-28.8196"/>
<polygon fill="#191970" stroke="#191970" points="497.4841,-75.9737 487.7249,-80.0976 497.9258,-82.9598 497.4841,-75.9737"/>
</g>
</g>
</svg>
