<?xml version="1.0" encoding="UTF-8" standalone="no"?>
<!DOCTYPE svg PUBLIC "-//W3C//DTD SVG 1.1//EN"
 "http://www.w3.org/Graphics/SVG/1.1/DTD/svg11.dtd">
<!-- Generated by graphviz version 2.40.1 (20161225.0304)
 -->
<!-- Title: ext_spi_flash_read Pages: 1 -->
<svg width="797pt" height="142pt"
 viewBox="0.00 0.00 797.00 142.00" xmlns="http://www.w3.org/2000/svg" xmlns:xlink="http://www.w3.org/1999/xlink">
<g id="graph0" class="graph" transform="scale(1 1) rotate(0) translate(4 138)">
<title>ext_spi_flash_read</title>
<polygon fill="#ffffff" stroke="transparent" points="-4,4 -4,-138 793,-138 793,4 -4,4"/>
<!-- Node25 -->
<g id="node1" class="node">
<title>Node25</title>
<polygon fill="#bfbfbf" stroke="#000000" points="0,-66.5 0,-85.5 79,-85.5 79,-66.5 0,-66.5"/>
<text text-anchor="middle" x="39.5" y="-73.5" font-family="Helvetica,sans-Serif" font-size="10.00" fill="#000000">ext_spi_flash_read</text>
</g>
<!-- Node26 -->
<g id="node2" class="node">
<title>Node26</title>
<g id="a_node2"><a xlink:href="config_8h.html#a92adb6c5103eed30e16185a9cd233e51" target="_top" xlink:title="cfg_load">
<polygon fill="#ffffff" stroke="#000000" points="271.5,-113.5 271.5,-132.5 316.5,-132.5 316.5,-113.5 271.5,-113.5"/>
<text text-anchor="middle" x="294" y="-120.5" font-family="Helvetica,sans-Serif" font-size="10.00" fill="#000000">cfg_load</text>
</a>
</g>
</g>
<!-- Node25&#45;&gt;Node26 -->
<g id="edge1" class="edge">
<title>Node25&#45;&gt;Node26</title>
<path fill="none" stroke="#191970" d="M84.4594,-88.0302C94.4733,-90.5094 105.0665,-92.9776 115,-95 170.7878,-106.3582 237.169,-115.6522 271.276,-120.123"/>
<polygon fill="#191970" stroke="#191970" points="85.2369,-84.6168 74.6845,-85.5635 83.5241,-91.404 85.2369,-84.6168"/>
</g>
<!-- Node28 -->
<g id="node4" class="node">
<title>Node28</title>
<g id="a_node4"><a xlink:href="config_8h.html#acd3c633ba5f49d7bb46d6e4efa31ddb2" target="_top" xlink:title="cfg_save">
<polygon fill="#ffffff" stroke="#000000" points="139,-66.5 139,-85.5 186,-85.5 186,-66.5 139,-66.5"/>
<text text-anchor="middle" x="162.5" y="-73.5" font-family="Helvetica,sans-Serif" font-size="10.00" fill="#000000">cfg_save</text>
</a>
</g>
</g>
<!-- Node25&#45;&gt;Node28 -->
<g id="edge3" class="edge">
<title>Node25&#45;&gt;Node28</title>
<path fill="none" stroke="#191970" d="M89.4898,-76C106.5165,-76 124.7638,-76 138.757,-76"/>
<polygon fill="#191970" stroke="#191970" points="89.0951,-72.5001 79.095,-76 89.095,-79.5001 89.0951,-72.5001"/>
</g>
<!-- Node38 -->
<g id="node14" class="node">
<title>Node38</title>
<g id="a_node14"><a xlink:href="ext__spi__flash_8h.html#a5ca58d3e387ebe3e9e6169caf3845d65" target="_top" xlink:title="ext_spi_flash_hexdump">
<polygon fill="#ffffff" stroke="#000000" points="115,-28.5 115,-47.5 210,-47.5 210,-28.5 115,-28.5"/>
<text text-anchor="middle" x="162.5" y="-35.5" font-family="Helvetica,sans-Serif" font-size="10.00" fill="#000000">ext_spi_flash_hexdump</text>
</a>
</g>
</g>
<!-- Node25&#45;&gt;Node38 -->
<g id="edge16" class="edge">
<title>Node25&#45;&gt;Node38</title>
<path fill="none" stroke="#191970" d="M80.5445,-63.3196C97.1638,-58.1852 116.0322,-52.3559 131.4718,-47.5859"/>
<polygon fill="#191970" stroke="#191970" points="79.0594,-60.1151 70.5381,-66.411 81.1257,-66.8032 79.0594,-60.1151"/>
</g>
<!-- Node27 -->
<g id="node3" class="node">
<title>Node27</title>
<g id="a_node3"><a xlink:href="cgiwifi_8h.html#ace460e5ac8fd74afa8616bfc82561b26" target="_top" xlink:title="tplSetup">
<polygon fill="#ffffff" stroke="#000000" points="394,-113.5 394,-132.5 438,-132.5 438,-113.5 394,-113.5"/>
<text text-anchor="middle" x="416" y="-120.5" font-family="Helvetica,sans-Serif" font-size="10.00" fill="#000000">tplSetup</text>
</a>
</g>
</g>
<!-- Node26&#45;&gt;Node27 -->
<g id="edge2" class="edge">
<title>Node26&#45;&gt;Node27</title>
<path fill="none" stroke="#191970" d="M326.8585,-123C348.0969,-123 375.1643,-123 393.8714,-123"/>
<polygon fill="#191970" stroke="#191970" points="326.6614,-119.5001 316.6613,-123 326.6613,-126.5001 326.6614,-119.5001"/>
</g>
<!-- Node28&#45;&gt;Node26 -->
<g id="edge4" class="edge">
<title>Node28&#45;&gt;Node26</title>
<path fill="none" stroke="#191970" d="M195.6037,-87.8318C219.1831,-96.2594 250.2689,-107.3699 271.1344,-114.8275"/>
<polygon fill="#191970" stroke="#191970" points="196.6042,-84.4725 186.0096,-84.4027 194.2482,-91.0642 196.6042,-84.4725"/>
</g>
<!-- Node29 -->
<g id="node5" class="node">
<title>Node29</title>
<g id="a_node5"><a xlink:href="config_8h.html#a1e0d59e84f6bbc2564bcdf595b6972da" target="_top" xlink:title="config_save_timer_func">
<polygon fill="#ffffff" stroke="#000000" points="246,-57.5 246,-76.5 342,-76.5 342,-57.5 246,-57.5"/>
<text text-anchor="middle" x="294" y="-64.5" font-family="Helvetica,sans-Serif" font-size="10.00" fill="#000000">config_save_timer_func</text>
</a>
</g>
</g>
<!-- Node28&#45;&gt;Node29 -->
<g id="edge5" class="edge">
<title>Node28&#45;&gt;Node29</title>
<path fill="none" stroke="#191970" d="M196.3989,-73.6799C211.4706,-72.6484 229.4864,-71.4154 245.9134,-70.2911"/>
<polygon fill="#191970" stroke="#191970" points="195.7472,-70.2162 186.0096,-74.391 196.2252,-77.1999 195.7472,-70.2162"/>
</g>
<!-- Node37 -->
<g id="node13" class="node">
<title>Node37</title>
<g id="a_node13"><a xlink:href="cgiwifi_8h.html#a7c655a56f56ecebad923c5c4daeb7f1a" target="_top" xlink:title="cgiSetup">
<polygon fill="#ffffff" stroke="#000000" points="271,-19.5 271,-38.5 317,-38.5 317,-19.5 271,-19.5"/>
<text text-anchor="middle" x="294" y="-26.5" font-family="Helvetica,sans-Serif" font-size="10.00" fill="#000000">cgiSetup</text>
</a>
</g>
</g>
<!-- Node28&#45;&gt;Node37 -->
<g id="edge15" class="edge">
<title>Node28&#45;&gt;Node37</title>
<path fill="none" stroke="#191970" d="M195.5418,-64.1904C218.9634,-55.8192 249.8149,-44.7924 270.694,-37.3299"/>
<polygon fill="#191970" stroke="#191970" points="194.2482,-60.9358 186.0096,-67.5973 196.6042,-67.5275 194.2482,-60.9358"/>
</g>
<!-- Node29&#45;&gt;Node29 -->
<g id="edge14" class="edge">
<title>Node29&#45;&gt;Node29</title>
<path fill="none" stroke="#191970" d="M271.3066,-86.0292C272.5445,-91.128 280.1089,-95 294,-95 315.6836,-95 321.9515,-85.5653 312.8037,-76.7571"/>
<polygon fill="#191970" stroke="#191970" points="274.5553,-87.3325 275.1963,-76.7571 268.1003,-84.6246 274.5553,-87.3325"/>
</g>
<!-- Node30 -->
<g id="node6" class="node">
<title>Node30</title>
<g id="a_node6"><a xlink:href="config_8h.html#ab4af9f95b39f096bb0fa8d73eb5a342e" target="_top" xlink:title="cfg_save_defered">
<polygon fill="#ffffff" stroke="#000000" points="378,-57.5 378,-76.5 454,-76.5 454,-57.5 378,-57.5"/>
<text text-anchor="middle" x="416" y="-64.5" font-family="Helvetica,sans-Serif" font-size="10.00" fill="#000000">cfg_save_defered</text>
</a>
</g>
</g>
<!-- Node29&#45;&gt;Node30 -->
<g id="edge6" class="edge">
<title>Node29&#45;&gt;Node30</title>
<path fill="none" stroke="#191970" d="M352.3384,-67C361.0241,-67 369.7818,-67 377.9055,-67"/>
<polygon fill="#191970" stroke="#191970" points="352.2177,-63.5001 342.2176,-67 352.2176,-70.5001 352.2177,-63.5001"/>
</g>
<!-- Node31 -->
<g id="node7" class="node">
<title>Node31</title>
<g id="a_node7"><a xlink:href="ac__out_8h.html#a1573f96ac038a6a1b29a6f21403a2341" target="_top" xlink:title="ac_thermo_open">
<polygon fill="#ffffff" stroke="#000000" points="505.5,-114.5 505.5,-133.5 578.5,-133.5 578.5,-114.5 505.5,-114.5"/>
<text text-anchor="middle" x="542" y="-121.5" font-family="Helvetica,sans-Serif" font-size="10.00" fill="#000000">ac_thermo_open</text>
</a>
</g>
</g>
<!-- Node30&#45;&gt;Node31 -->
<g id="edge7" class="edge">
<title>Node30&#45;&gt;Node31</title>
<path fill="none" stroke="#191970" d="M442.0954,-81.4051C456.0966,-88.8764 473.7665,-97.8989 490,-105 497.6611,-108.3513 506.1207,-111.6191 513.9513,-114.4731"/>
<polygon fill="#191970" stroke="#191970" points="443.5136,-78.1933 433.0513,-76.5232 440.1886,-84.3532 443.5136,-78.1933"/>
</g>
<!-- Node34 -->
<g id="node10" class="node">
<title>Node34</title>
<g id="a_node10"><a xlink:href="ac__out_8h.html#a3bc674b019d5e2e4d15e7abe7c69029f" target="_top" xlink:title="ac_thermo_close">
<polygon fill="#ffffff" stroke="#000000" points="505,-76.5 505,-95.5 579,-95.5 579,-76.5 505,-76.5"/>
<text text-anchor="middle" x="542" y="-83.5" font-family="Helvetica,sans-Serif" font-size="10.00" fill="#000000">ac_thermo_close</text>
</a>
</g>
</g>
<!-- Node30&#45;&gt;Node34 -->
<g id="edge10" class="edge">
<title>Node30&#45;&gt;Node34</title>
<path fill="none" stroke="#191970" d="M464.2191,-74.2711C477.6929,-76.3029 492.1225,-78.4788 504.8494,-80.3979"/>
<polygon fill="#191970" stroke="#191970" points="464.5562,-70.7825 454.1461,-72.7522 463.5124,-77.7042 464.5562,-70.7825"/>
</g>
<!-- Node35 -->
<g id="node11" class="node">
<title>Node35</title>
<g id="a_node11"><a xlink:href="cron_8h.html#abede8d12ed6e5d5f3412eda37b325d03" target="_top" xlink:title="add_cron_job_from_query">
<polygon fill="#ffffff" stroke="#000000" points="490,-38.5 490,-57.5 594,-57.5 594,-38.5 490,-38.5"/>
<text text-anchor="middle" x="542" y="-45.5" font-family="Helvetica,sans-Serif" font-size="10.00" fill="#000000">add_cron_job_from_query</text>
</a>
</g>
</g>
<!-- Node30&#45;&gt;Node35 -->
<g id="edge12" class="edge">
<title>Node30&#45;&gt;Node35</title>
<path fill="none" stroke="#191970" d="M464.0871,-59.7488C472.4219,-58.4919 481.1261,-57.1794 489.5696,-55.9062"/>
<polygon fill="#191970" stroke="#191970" points="463.5124,-56.2958 454.1461,-61.2478 464.5562,-63.2175 463.5124,-56.2958"/>
</g>
<!-- Node36 -->
<g id="node12" class="node">
<title>Node36</title>
<g id="a_node12"><a xlink:href="cron_8h.html#ad014b7bf4eab144ea9fc5669d896714b" target="_top" xlink:title="clear_cron_jobs">
<polygon fill="#ffffff" stroke="#000000" points="507.5,-.5 507.5,-19.5 576.5,-19.5 576.5,-.5 507.5,-.5"/>
<text text-anchor="middle" x="542" y="-7.5" font-family="Helvetica,sans-Serif" font-size="10.00" fill="#000000">clear_cron_jobs</text>
</a>
</g>
</g>
<!-- Node30&#45;&gt;Node36 -->
<g id="edge13" class="edge">
<title>Node30&#45;&gt;Node36</title>
<path fill="none" stroke="#191970" d="M442.0954,-52.5949C456.0966,-45.1236 473.7665,-36.1011 490,-29 497.6611,-25.6487 506.1207,-22.3809 513.9513,-19.5269"/>
<polygon fill="#191970" stroke="#191970" points="440.1886,-49.6468 433.0513,-57.4768 443.5136,-55.8067 440.1886,-49.6468"/>
</g>
<!-- Node32 -->
<g id="node8" class="node">
<title>Node32</title>
<g id="a_node8"><a xlink:href="cron_8c.html#a2782af03df9b913cfa565a0770e1afe1" target="_top" xlink:title="minute_timer_func">
<polygon fill="#ffffff" stroke="#000000" points="630,-95.5 630,-114.5 708,-114.5 708,-95.5 630,-95.5"/>
<text text-anchor="middle" x="669" y="-102.5" font-family="Helvetica,sans-Serif" font-size="10.00" fill="#000000">minute_timer_func</text>
</a>
</g>
</g>
<!-- Node31&#45;&gt;Node32 -->
<g id="edge8" class="edge">
<title>Node31&#45;&gt;Node32</title>
<path fill="none" stroke="#191970" d="M588.7637,-117.0039C602.2124,-114.9918 616.7396,-112.8185 629.6889,-110.8812"/>
<polygon fill="#191970" stroke="#191970" points="588.1057,-113.5633 578.7337,-118.5044 589.1415,-120.4862 588.1057,-113.5633"/>
</g>
<!-- Node33 -->
<g id="node9" class="node">
<title>Node33</title>
<g id="a_node9"><a xlink:href="cron_8h.html#ae130c5973bad35b56776750c7a34db12" target="_top" xlink:title="cron_init">
<polygon fill="#ffffff" stroke="#000000" points="744,-95.5 744,-114.5 789,-114.5 789,-95.5 744,-95.5"/>
<text text-anchor="middle" x="766.5" y="-102.5" font-family="Helvetica,sans-Serif" font-size="10.00" fill="#000000">cron_init</text>
</a>
</g>
</g>
<!-- Node32&#45;&gt;Node33 -->
<g id="edge9" class="edge">
<title>Node32&#45;&gt;Node33</title>
<path fill="none" stroke="#191970" d="M718.2132,-105C727.2251,-105 736.2159,-105 743.9536,-105"/>
<polygon fill="#191970" stroke="#191970" points="718.0952,-101.5001 708.0952,-105 718.0952,-108.5001 718.0952,-101.5001"/>
</g>
<!-- Node34&#45;&gt;Node32 -->
<g id="edge11" class="edge">
<title>Node34&#45;&gt;Node32</title>
<path fill="none" stroke="#191970" d="M589.0931,-93.0454C602.5184,-95.0539 616.9941,-97.2196 629.888,-99.1486"/>
<polygon fill="#191970" stroke="#191970" points="589.4829,-89.5649 579.0751,-91.5467 588.4471,-96.4878 589.4829,-89.5649"/>
</g>
</g>
</svg>
