<?xml version="1.0" encoding="UTF-8" standalone="no"?>
<!DOCTYPE svg PUBLIC "-//W3C//DTD SVG 1.1//EN"
 "http://www.w3.org/Graphics/SVG/1.1/DTD/svg11.dtd">
<!-- Generated by graphviz version 2.40.1 (20161225.0304)
 -->
<!-- Title: gpio16_input_get Pages: 1 -->
<svg width="323pt" height="28pt"
 viewBox="0.00 0.00 323.00 28.00" xmlns="http://www.w3.org/2000/svg" xmlns:xlink="http://www.w3.org/1999/xlink">
<g id="graph0" class="graph" transform="scale(1 1) rotate(0) translate(4 24)">
<title>gpio16_input_get</title>
<polygon fill="#ffffff" stroke="transparent" points="-4,4 -4,-24 319,-24 319,4 -4,4"/>
<!-- Node3 -->
<g id="node1" class="node">
<title>Node3</title>
<polygon fill="#bfbfbf" stroke="#000000" points="0,-.5 0,-19.5 74,-19.5 74,-.5 0,-.5"/>
<text text-anchor="middle" x="37" y="-7.5" font-family="Helvetica,sans-Serif" font-size="10.00" fill="#000000">gpio16_input_get</text>
</g>
<!-- Node4 -->
<g id="node2" class="node">
<title>Node4</title>
<g id="a_node2"><a xlink:href="watchdog_8c.html#a0c093f8d39db544cdc4b7d2ecf2d2b8b" target="_top" xlink:title="ext_watchdog_timer_func">
<polygon fill="#ffffff" stroke="#000000" points="110,-.5 110,-19.5 212,-19.5 212,-.5 110,-.5"/>
<text text-anchor="middle" x="161" y="-7.5" font-family="Helvetica,sans-Serif" font-size="10.00" fill="#000000">ext_watchdog_timer_func</text>
</a>
</g>
</g>
<!-- Node3&#45;&gt;Node4 -->
<g id="edge1" class="edge">
<title>Node3&#45;&gt;Node4</title>
<path fill="none" stroke="#191970" d="M84.4056,-10C92.651,-10 101.2615,-10 109.6077,-10"/>
<polygon fill="#191970" stroke="#191970" points="84.2041,-6.5001 74.2041,-10 84.2041,-13.5001 84.2041,-6.5001"/>
</g>
<!-- Node5 -->
<g id="node3" class="node">
<title>Node5</title>
<g id="a_node3"><a xlink:href="watchdog_8h.html#ab148f2150b52df5b60e312dded3a2934" target="_top" xlink:title="start_watchdog">
<polygon fill="#ffffff" stroke="#000000" points="248,-.5 248,-19.5 315,-19.5 315,-.5 248,-.5"/>
<text text-anchor="middle" x="281.5" y="-7.5" font-family="Helvetica,sans-Serif" font-size="10.00" fill="#000000">start_watchdog</text>
</a>
</g>
</g>
<!-- Node4&#45;&gt;Node5 -->
<g id="edge2" class="edge">
<title>Node4&#45;&gt;Node5</title>
<path fill="none" stroke="#191970" d="M222.3523,-10C231.1089,-10 239.8345,-10 247.7888,-10"/>
<polygon fill="#191970" stroke="#191970" points="222.1029,-6.5001 212.1028,-10 222.1028,-13.5001 222.1029,-6.5001"/>
</g>
</g>
</svg>
