<?xml version="1.0" encoding="UTF-8" standalone="no"?>
<!DOCTYPE svg PUBLIC "-//W3C//DTD SVG 1.1//EN"
 "http://www.w3.org/Graphics/SVG/1.1/DTD/svg11.dtd">
<!-- Generated by graphviz version 2.40.1 (20161225.0304)
 -->
<!-- Title: lib/heatshrink/heatshrink_config.h Pages: 1 -->
<svg width="553pt" height="184pt"
 viewBox="0.00 0.00 553.00 184.00" xmlns="http://www.w3.org/2000/svg" xmlns:xlink="http://www.w3.org/1999/xlink">
<g id="graph0" class="graph" transform="scale(1 1) rotate(0) translate(4 180)">
<title>lib/heatshrink/heatshrink_config.h</title>
<polygon fill="#ffffff" stroke="transparent" points="-4,4 -4,-180 549,-180 549,4 -4,4"/>
<!-- Node1 -->
<g id="node1" class="node">
<title>Node1</title>
<polygon fill="#bfbfbf" stroke="#000000" points="287,-145.5 287,-175.5 384,-175.5 384,-145.5 287,-145.5"/>
<text text-anchor="start" x="295" y="-163.5" font-family="Helvetica,sans-Serif" font-size="10.00" fill="#000000">lib/heatshrink/heatshrink</text>
<text text-anchor="middle" x="335.5" y="-152.5" font-family="Helvetica,sans-Serif" font-size="10.00" fill="#000000">_config.h</text>
</g>
<!-- Node2 -->
<g id="node2" class="node">
<title>Node2</title>
<g id="a_node2"><a xlink:href="heatshrink__encoder_8h.html" target="_top" xlink:title="lib/heatshrink/heatshrink\l_encoder.h">
<polygon fill="#ffffff" stroke="#000000" points="287,-73 287,-103 384,-103 384,-73 287,-73"/>
<text text-anchor="start" x="295" y="-91" font-family="Helvetica,sans-Serif" font-size="10.00" fill="#000000">lib/heatshrink/heatshrink</text>
<text text-anchor="middle" x="335.5" y="-80" font-family="Helvetica,sans-Serif" font-size="10.00" fill="#000000">_encoder.h</text>
</a>
</g>
</g>
<!-- Node1&#45;&gt;Node2 -->
<g id="edge1" class="edge">
<title>Node1&#45;&gt;Node2</title>
<path fill="none" stroke="#191970" d="M335.5,-135.3409C335.5,-124.5601 335.5,-112.3309 335.5,-103.0028"/>
<polygon fill="#191970" stroke="#191970" points="332.0001,-135.4779 335.5,-145.478 339.0001,-135.478 332.0001,-135.4779"/>
</g>
<!-- Node7 -->
<g id="node7" class="node">
<title>Node7</title>
<g id="a_node7"><a xlink:href="heatshrink__decoder_8h.html" target="_top" xlink:title="lib/heatshrink/heatshrink\l_decoder.h">
<polygon fill="#ffffff" stroke="#000000" points="172,-73 172,-103 269,-103 269,-73 172,-73"/>
<text text-anchor="start" x="180" y="-91" font-family="Helvetica,sans-Serif" font-size="10.00" fill="#000000">lib/heatshrink/heatshrink</text>
<text text-anchor="middle" x="220.5" y="-80" font-family="Helvetica,sans-Serif" font-size="10.00" fill="#000000">_decoder.h</text>
</a>
</g>
</g>
<!-- Node1&#45;&gt;Node7 -->
<g id="edge6" class="edge">
<title>Node1&#45;&gt;Node7</title>
<path fill="none" stroke="#191970" d="M303.1603,-140.1119C284.4566,-128.3205 261.3287,-113.7398 244.2975,-103.0028"/>
<polygon fill="#191970" stroke="#191970" points="301.3461,-143.1056 311.6719,-145.478 305.0792,-137.1842 301.3461,-143.1056"/>
</g>
<!-- Node9 -->
<g id="node9" class="node">
<title>Node9</title>
<g id="a_node9"><a xlink:href="test__heatshrink__dynamic__theft_8c.html" target="_top" xlink:title="lib/heatshrink/test\l_heatshrink_dynamic\l_theft.c">
<polygon fill="#ffffff" stroke="#000000" points="402,-67.5 402,-108.5 489,-108.5 489,-67.5 402,-67.5"/>
<text text-anchor="start" x="410" y="-96.5" font-family="Helvetica,sans-Serif" font-size="10.00" fill="#000000">lib/heatshrink/test</text>
<text text-anchor="start" x="410" y="-85.5" font-family="Helvetica,sans-Serif" font-size="10.00" fill="#000000">_heatshrink_dynamic</text>
<text text-anchor="middle" x="445.5" y="-74.5" font-family="Helvetica,sans-Serif" font-size="10.00" fill="#000000">_theft.c</text>
</a>
</g>
</g>
<!-- Node1&#45;&gt;Node9 -->
<g id="edge11" class="edge">
<title>Node1&#45;&gt;Node9</title>
<path fill="none" stroke="#191970" d="M366.706,-139.9324C381.64,-130.0896 399.4733,-118.3358 414.3943,-108.5015"/>
<polygon fill="#191970" stroke="#191970" points="364.7156,-137.0524 358.2921,-145.478 368.5678,-142.8971 364.7156,-137.0524"/>
</g>
<!-- Node3 -->
<g id="node3" class="node">
<title>Node3</title>
<g id="a_node3"><a xlink:href="heatshrink_8c.html" target="_top" xlink:title="lib/heatshrink/heatshrink.c">
<polygon fill="#ffffff" stroke="#000000" points="115,-6 115,-25 218,-25 218,-6 115,-6"/>
<text text-anchor="middle" x="166.5" y="-13" font-family="Helvetica,sans-Serif" font-size="10.00" fill="#000000">lib/heatshrink/heatshrink.c</text>
</a>
</g>
</g>
<!-- Node2&#45;&gt;Node3 -->
<g id="edge2" class="edge">
<title>Node2&#45;&gt;Node3</title>
<path fill="none" stroke="#191970" d="M291.1066,-68.9555C258.3184,-54.8895 215.0406,-36.3236 189.0702,-25.1825"/>
<polygon fill="#191970" stroke="#191970" points="289.9132,-72.2519 300.4831,-72.978 292.6729,-65.8189 289.9132,-72.2519"/>
</g>
<!-- Node4 -->
<g id="node4" class="node">
<title>Node4</title>
<g id="a_node4"><a xlink:href="heatshrink__encoder_8c.html" target="_top" xlink:title="lib/heatshrink/heatshrink\l_encoder.c">
<polygon fill="#ffffff" stroke="#000000" points="448,-.5 448,-30.5 545,-30.5 545,-.5 448,-.5"/>
<text text-anchor="start" x="456" y="-18.5" font-family="Helvetica,sans-Serif" font-size="10.00" fill="#000000">lib/heatshrink/heatshrink</text>
<text text-anchor="middle" x="496.5" y="-7.5" font-family="Helvetica,sans-Serif" font-size="10.00" fill="#000000">_encoder.c</text>
</a>
</g>
</g>
<!-- Node2&#45;&gt;Node4 -->
<g id="edge3" class="edge">
<title>Node2&#45;&gt;Node4</title>
<path fill="none" stroke="#191970" d="M378.3066,-68.7237C404.901,-56.748 438.5846,-41.5799 463.1834,-30.5028"/>
<polygon fill="#191970" stroke="#191970" points="376.5403,-65.6805 368.8593,-72.978 379.4146,-72.0633 376.5403,-65.6805"/>
</g>
<!-- Node5 -->
<g id="node5" class="node">
<title>Node5</title>
<g id="a_node5"><a xlink:href="test__heatshrink__dynamic_8c.html" target="_top" xlink:title="lib/heatshrink/test\l_heatshrink_dynamic.c">
<polygon fill="#ffffff" stroke="#000000" points="236,-.5 236,-30.5 329,-30.5 329,-.5 236,-.5"/>
<text text-anchor="start" x="244" y="-18.5" font-family="Helvetica,sans-Serif" font-size="10.00" fill="#000000">lib/heatshrink/test</text>
<text text-anchor="middle" x="282.5" y="-7.5" font-family="Helvetica,sans-Serif" font-size="10.00" fill="#000000">_heatshrink_dynamic.c</text>
</a>
</g>
</g>
<!-- Node2&#45;&gt;Node5 -->
<g id="edge4" class="edge">
<title>Node2&#45;&gt;Node5</title>
<path fill="none" stroke="#191970" d="M318.5724,-64.8443C310.3524,-53.6 300.7129,-40.4139 293.4676,-30.5028"/>
<polygon fill="#191970" stroke="#191970" points="315.7912,-66.9706 324.5184,-72.978 321.4423,-62.8395 315.7912,-66.9706"/>
</g>
<!-- Node6 -->
<g id="node6" class="node">
<title>Node6</title>
<g id="a_node6"><a xlink:href="test__heatshrink__static_8c.html" target="_top" xlink:title="lib/heatshrink/test\l_heatshrink_static.c">
<polygon fill="#ffffff" stroke="#000000" points="347,-.5 347,-30.5 430,-30.5 430,-.5 347,-.5"/>
<text text-anchor="start" x="355" y="-18.5" font-family="Helvetica,sans-Serif" font-size="10.00" fill="#000000">lib/heatshrink/test</text>
<text text-anchor="middle" x="388.5" y="-7.5" font-family="Helvetica,sans-Serif" font-size="10.00" fill="#000000">_heatshrink_static.c</text>
</a>
</g>
</g>
<!-- Node2&#45;&gt;Node6 -->
<g id="edge5" class="edge">
<title>Node2&#45;&gt;Node6</title>
<path fill="none" stroke="#191970" d="M352.4276,-64.8443C360.6476,-53.6 370.2871,-40.4139 377.5324,-30.5028"/>
<polygon fill="#191970" stroke="#191970" points="349.5577,-62.8395 346.4816,-72.978 355.2088,-66.9706 349.5577,-62.8395"/>
</g>
<!-- Node7&#45;&gt;Node3 -->
<g id="edge7" class="edge">
<title>Node7&#45;&gt;Node3</title>
<path fill="none" stroke="#191970" d="M203.161,-64.7208C193.2627,-51.4314 181.369,-35.463 173.8706,-25.3957"/>
<polygon fill="#191970" stroke="#191970" points="200.5307,-67.0488 209.3112,-72.978 206.1447,-62.8674 200.5307,-67.0488"/>
</g>
<!-- Node7&#45;&gt;Node5 -->
<g id="edge9" class="edge">
<title>Node7&#45;&gt;Node5</title>
<path fill="none" stroke="#191970" d="M240.0198,-65.1745C249.6965,-53.8589 261.1112,-40.5111 269.67,-30.5028"/>
<polygon fill="#191970" stroke="#191970" points="237.1858,-63.1032 233.3464,-72.978 242.5057,-67.6527 237.1858,-63.1032"/>
</g>
<!-- Node7&#45;&gt;Node6 -->
<g id="edge10" class="edge">
<title>Node7&#45;&gt;Node6</title>
<path fill="none" stroke="#191970" d="M264.803,-68.8811C292.61,-56.8811 327.9539,-41.6285 353.7349,-30.5028"/>
<polygon fill="#191970" stroke="#191970" points="263.1044,-65.8021 255.3097,-72.978 265.8781,-72.2292 263.1044,-65.8021"/>
</g>
<!-- Node8 -->
<g id="node8" class="node">
<title>Node8</title>
<g id="a_node8"><a xlink:href="lib_2heatshrink_2heatshrink__decoder_8c.html" target="_top" xlink:title="lib/heatshrink/heatshrink\l_decoder.c">
<polygon fill="#ffffff" stroke="#000000" points="0,-.5 0,-30.5 97,-30.5 97,-.5 0,-.5"/>
<text text-anchor="start" x="8" y="-18.5" font-family="Helvetica,sans-Serif" font-size="10.00" fill="#000000">lib/heatshrink/heatshrink</text>
<text text-anchor="middle" x="48.5" y="-7.5" font-family="Helvetica,sans-Serif" font-size="10.00" fill="#000000">_decoder.c</text>
</a>
</g>
</g>
<!-- Node7&#45;&gt;Node8 -->
<g id="edge8" class="edge">
<title>Node7&#45;&gt;Node8</title>
<path fill="none" stroke="#191970" d="M175.5147,-69.0382C146.9893,-57.0144 110.6029,-41.6771 84.0929,-30.5028"/>
<polygon fill="#191970" stroke="#191970" points="174.2872,-72.3189 184.8615,-72.978 177.0061,-65.8685 174.2872,-72.3189"/>
</g>
</g>
</svg>
