<?xml version="1.0" encoding="UTF-8" standalone="no"?>
<!DOCTYPE svg PUBLIC "-//W3C//DTD SVG 1.1//EN"
 "http://www.w3.org/Graphics/SVG/1.1/DTD/svg11.dtd">
<!-- Generated by graphviz version 2.40.1 (20161225.0304)
 -->
<!-- Title: can_take_byte Pages: 1 -->
<svg width="728pt" height="761pt"
 viewBox="0.00 0.00 728.00 760.50" xmlns="http://www.w3.org/2000/svg" xmlns:xlink="http://www.w3.org/1999/xlink">
<g id="graph0" class="graph" transform="scale(1 1) rotate(0) translate(4 756.5)">
<title>can_take_byte</title>
<polygon fill="#ffffff" stroke="transparent" points="-4,4 -4,-756.5 724,-756.5 724,4 -4,4"/>
<!-- Node97 -->
<g id="node1" class="node">
<title>Node97</title>
<polygon fill="#bfbfbf" stroke="#000000" points="0,-381 0,-400 65,-400 65,-381 0,-381"/>
<text text-anchor="middle" x="32.5" y="-388" font-family="Helvetica,sans-Serif" font-size="10.00" fill="#000000">can_take_byte</text>
</g>
<!-- Node98 -->
<g id="node2" class="node">
<title>Node98</title>
<g id="a_node2"><a xlink:href="heatshrink__encoder_8c.html#af02bd14a139872e09672fbadb61da8a1" target="_top" xlink:title="st_flush_bit_buffer">
<polygon fill="#ffffff" stroke="#000000" points="101,-305 101,-324 179,-324 179,-305 101,-305"/>
<text text-anchor="middle" x="140" y="-312" font-family="Helvetica,sans-Serif" font-size="10.00" fill="#000000">st_flush_bit_buffer</text>
</a>
</g>
</g>
<!-- Node97&#45;&gt;Node98 -->
<g id="edge1" class="edge">
<title>Node97&#45;&gt;Node98</title>
<path fill="none" stroke="#191970" d="M50.0531,-373.862C63.3728,-361.7568 82.4912,-345.4599 101,-333.5 106.3137,-330.0664 112.3393,-326.8405 118.0375,-324.0556"/>
<polygon fill="#191970" stroke="#191970" points="47.5347,-371.4236 42.5663,-380.7813 52.2858,-376.5644 47.5347,-371.4236"/>
</g>
<!-- Node127 -->
<g id="node31" class="node">
<title>Node127</title>
<g id="a_node31"><a xlink:href="heatshrink__encoder_8c.html#aa61e20c524c12e2672fd275b136d9848" target="_top" xlink:title="st_yield_br_index">
<polygon fill="#ffffff" stroke="#000000" points="102.5,-457 102.5,-476 177.5,-476 177.5,-457 102.5,-457"/>
<text text-anchor="middle" x="140" y="-464" font-family="Helvetica,sans-Serif" font-size="10.00" fill="#000000">st_yield_br_index</text>
</a>
</g>
</g>
<!-- Node97&#45;&gt;Node127 -->
<g id="edge55" class="edge">
<title>Node97&#45;&gt;Node127</title>
<path fill="none" stroke="#191970" d="M50.0531,-407.138C63.3728,-419.2432 82.4912,-435.5401 101,-447.5 106.3137,-450.9336 112.3393,-454.1595 118.0375,-456.9444"/>
<polygon fill="#191970" stroke="#191970" points="52.2858,-404.4356 42.5663,-400.2187 47.5347,-409.5764 52.2858,-404.4356"/>
</g>
<!-- Node128 -->
<g id="node32" class="node">
<title>Node128</title>
<g id="a_node32"><a xlink:href="heatshrink__encoder_8c.html#a00a38065f94d12a3ba3a04c9472b4216" target="_top" xlink:title="st_yield_br_length">
<polygon fill="#ffffff" stroke="#000000" points="101.5,-419 101.5,-438 178.5,-438 178.5,-419 101.5,-419"/>
<text text-anchor="middle" x="140" y="-426" font-family="Helvetica,sans-Serif" font-size="10.00" fill="#000000">st_yield_br_length</text>
</a>
</g>
</g>
<!-- Node97&#45;&gt;Node128 -->
<g id="edge58" class="edge">
<title>Node97&#45;&gt;Node128</title>
<path fill="none" stroke="#191970" d="M69.1965,-403.4718C83.5185,-408.5344 99.6425,-414.2341 112.8819,-418.9141"/>
<polygon fill="#191970" stroke="#191970" points="70.2216,-400.122 59.6268,-400.089 67.8886,-406.7218 70.2216,-400.122"/>
</g>
<!-- Node129 -->
<g id="node33" class="node">
<title>Node129</title>
<g id="a_node33"><a xlink:href="heatshrink__encoder_8c.html#a2fc159c7d9a01f00a26cbd49712aec82" target="_top" xlink:title="st_yield_literal">
<polygon fill="#ffffff" stroke="#000000" points="108,-381 108,-400 172,-400 172,-381 108,-381"/>
<text text-anchor="middle" x="140" y="-388" font-family="Helvetica,sans-Serif" font-size="10.00" fill="#000000">st_yield_literal</text>
</a>
</g>
</g>
<!-- Node97&#45;&gt;Node129 -->
<g id="edge61" class="edge">
<title>Node97&#45;&gt;Node129</title>
<path fill="none" stroke="#191970" d="M75.2404,-390.5C86.1405,-390.5 97.6716,-390.5 107.9353,-390.5"/>
<polygon fill="#191970" stroke="#191970" points="75.0453,-387.0001 65.0453,-390.5 75.0452,-394.0001 75.0453,-387.0001"/>
</g>
<!-- Node130 -->
<g id="node34" class="node">
<title>Node130</title>
<g id="a_node34"><a xlink:href="heatshrink__encoder_8c.html#a0d4c5f8a5ea97aa1fbe657dd8a5109ba" target="_top" xlink:title="st_yield_tag_bit">
<polygon fill="#ffffff" stroke="#000000" points="105.5,-343 105.5,-362 174.5,-362 174.5,-343 105.5,-343"/>
<text text-anchor="middle" x="140" y="-350" font-family="Helvetica,sans-Serif" font-size="10.00" fill="#000000">st_yield_tag_bit</text>
</a>
</g>
</g>
<!-- Node97&#45;&gt;Node130 -->
<g id="edge64" class="edge">
<title>Node97&#45;&gt;Node130</title>
<path fill="none" stroke="#191970" d="M69.1965,-377.5282C83.5185,-372.4656 99.6425,-366.7659 112.8819,-362.0859"/>
<polygon fill="#191970" stroke="#191970" points="67.8886,-374.2782 59.6268,-380.911 70.2216,-380.878 67.8886,-374.2782"/>
</g>
<!-- Node99 -->
<g id="node3" class="node">
<title>Node99</title>
<g id="a_node3"><a xlink:href="heatshrink__encoder_8h.html#aa1a92f13d1ef65546bb40ece94b2066e" target="_top" xlink:title="heatshrink_encoder_sink">
<polygon fill="#ffffff" stroke="#000000" points="215,-351 215,-370 315,-370 315,-351 215,-351"/>
<text text-anchor="middle" x="265" y="-358" font-family="Helvetica,sans-Serif" font-size="10.00" fill="#000000">heatshrink_encoder_sink</text>
</a>
</g>
</g>
<!-- Node98&#45;&gt;Node99 -->
<g id="edge2" class="edge">
<title>Node98&#45;&gt;Node99</title>
<path fill="none" stroke="#191970" d="M175.4282,-327.5376C195.7093,-335.001 220.7047,-344.1993 239.1331,-350.981"/>
<polygon fill="#191970" stroke="#191970" points="176.4936,-324.2002 165.9001,-324.0312 174.076,-330.7695 176.4936,-324.2002"/>
</g>
<!-- Node124 -->
<g id="node28" class="node">
<title>Node124</title>
<g id="a_node28"><a xlink:href="heatshrink__encoder_8h.html#a7de708b2cb0d016d9183b0addf6126f3" target="_top" xlink:title="heatshrink_encoder_poll">
<polygon fill="#ffffff" stroke="#000000" points="216,-415 216,-434 314,-434 314,-415 216,-415"/>
<text text-anchor="middle" x="265" y="-422" font-family="Helvetica,sans-Serif" font-size="10.00" fill="#000000">heatshrink_encoder_poll</text>
</a>
</g>
</g>
<!-- Node98&#45;&gt;Node124 -->
<g id="edge41" class="edge">
<title>Node98&#45;&gt;Node124</title>
<path fill="none" stroke="#191970" d="M173.2402,-329.3451C175.2527,-330.6518 177.1919,-332.0377 179,-333.5 199.1859,-349.825 197.2847,-360.5225 215,-379.5 227.1131,-392.4762 242.4689,-405.9074 252.9463,-414.6787"/>
<polygon fill="#191970" stroke="#191970" points="174.546,-326.0599 164.1281,-324.1321 171.07,-332.1359 174.546,-326.0599"/>
</g>
<!-- Node100 -->
<g id="node4" class="node">
<title>Node100</title>
<g id="a_node4"><a xlink:href="heatshrink_8c.html#a593e86bba4eca0be280740fcf509bc12" target="_top" xlink:title="encoder_sink_read">
<polygon fill="#ffffff" stroke="#000000" points="369.5,-679 369.5,-698 449.5,-698 449.5,-679 369.5,-679"/>
<text text-anchor="middle" x="409.5" y="-686" font-family="Helvetica,sans-Serif" font-size="10.00" fill="#000000">encoder_sink_read</text>
</a>
</g>
</g>
<!-- Node99&#45;&gt;Node100 -->
<g id="edge3" class="edge">
<title>Node99&#45;&gt;Node100</title>
<path fill="none" stroke="#191970" d="M289.0178,-376.3515C298.6619,-383.9932 308.9159,-394.0038 315,-405.5 370.3917,-510.1655 275.0622,-578.6344 351,-669.5 355.7934,-675.2357 362.3393,-679.2553 369.321,-682.0684"/>
<polygon fill="#191970" stroke="#191970" points="290.9361,-373.4166 280.8199,-370.2681 286.7647,-379.038 290.9361,-373.4166"/>
</g>
<!-- Node103 -->
<g id="node7" class="node">
<title>Node103</title>
<g id="a_node7"><a xlink:href="test__heatshrink__dynamic_8c.html#a9b30a495760400a59637e7d708e63ae0" target="_top" xlink:title="encoder_sink_should\l_reject_nulls">
<polygon fill="#ffffff" stroke="#000000" points="366,-.5 366,-30.5 453,-30.5 453,-.5 366,-.5"/>
<text text-anchor="start" x="374" y="-18.5" font-family="Helvetica,sans-Serif" font-size="10.00" fill="#000000">encoder_sink_should</text>
<text text-anchor="middle" x="409.5" y="-7.5" font-family="Helvetica,sans-Serif" font-size="10.00" fill="#000000">_reject_nulls</text>
</a>
</g>
</g>
<!-- Node99&#45;&gt;Node103 -->
<g id="edge6" class="edge">
<title>Node99&#45;&gt;Node103</title>
<path fill="none" stroke="#191970" d="M268.0334,-340.5661C277.9041,-277.9824 310.8017,-86.8217 351,-40.5 355.1262,-35.7452 360.3152,-31.8684 365.8891,-28.7143"/>
<polygon fill="#191970" stroke="#191970" points="264.5371,-340.2731 266.4617,-350.6917 271.4542,-341.3469 264.5371,-340.2731"/>
</g>
<!-- Node105 -->
<g id="node9" class="node">
<title>Node105</title>
<g id="a_node9"><a xlink:href="test__heatshrink__dynamic_8c.html#a1c4dab770a7df0935018c3a685f5b1ff" target="_top" xlink:title="encoder_sink_should\l_accept_input_when_it\l_will_fit">
<polygon fill="#ffffff" stroke="#000000" points="363,-110 363,-151 456,-151 456,-110 363,-110"/>
<text text-anchor="start" x="371" y="-139" font-family="Helvetica,sans-Serif" font-size="10.00" fill="#000000">encoder_sink_should</text>
<text text-anchor="start" x="371" y="-128" font-family="Helvetica,sans-Serif" font-size="10.00" fill="#000000">_accept_input_when_it</text>
<text text-anchor="middle" x="409.5" y="-117" font-family="Helvetica,sans-Serif" font-size="10.00" fill="#000000">_will_fit</text>
</a>
</g>
</g>
<!-- Node99&#45;&gt;Node105 -->
<g id="edge8" class="edge">
<title>Node99&#45;&gt;Node105</title>
<path fill="none" stroke="#191970" d="M268.7796,-340.882C277.1754,-302.0023 300.7379,-214.2883 351,-160.5 354.5068,-156.7472 358.5883,-153.3868 362.9341,-150.3967"/>
<polygon fill="#191970" stroke="#191970" points="265.3079,-340.3891 266.7256,-350.8886 272.165,-341.7966 265.3079,-340.3891"/>
</g>
<!-- Node106 -->
<g id="node10" class="node">
<title>Node106</title>
<g id="a_node10"><a xlink:href="test__heatshrink__dynamic_8c.html#a73ee2ec6f21d5e0ce0e34902a1aebccb" target="_top" xlink:title="encoder_sink_should\l_accept_partial_input\l_when_some_will_fit">
<polygon fill="#ffffff" stroke="#000000" points="365.5,-50 365.5,-91 453.5,-91 453.5,-50 365.5,-50"/>
<text text-anchor="start" x="373.5" y="-79" font-family="Helvetica,sans-Serif" font-size="10.00" fill="#000000">encoder_sink_should</text>
<text text-anchor="start" x="373.5" y="-68" font-family="Helvetica,sans-Serif" font-size="10.00" fill="#000000">_accept_partial_input</text>
<text text-anchor="middle" x="409.5" y="-57" font-family="Helvetica,sans-Serif" font-size="10.00" fill="#000000">_when_some_will_fit</text>
</a>
</g>
</g>
<!-- Node99&#45;&gt;Node106 -->
<g id="edge10" class="edge">
<title>Node99&#45;&gt;Node106</title>
<path fill="none" stroke="#191970" d="M266.4742,-340.9561C270.9663,-294.0804 288.2889,-173.7271 351,-100.5 355.0834,-95.7319 360.1124,-91.6279 365.4922,-88.1226"/>
<polygon fill="#191970" stroke="#191970" points="262.9816,-340.7204 265.6064,-350.9849 269.9555,-341.3239 262.9816,-340.7204"/>
</g>
<!-- Node107 -->
<g id="node11" class="node">
<title>Node107</title>
<g id="a_node11"><a xlink:href="test__heatshrink__dynamic_8c.html#a5339595930b85317e810fcf251b86351" target="_top" xlink:title="encoder_should_emit\l_data_without_repetitions\l_as_literal_sequence">
<polygon fill="#ffffff" stroke="#000000" points="358.5,-170 358.5,-211 460.5,-211 460.5,-170 358.5,-170"/>
<text text-anchor="start" x="366.5" y="-199" font-family="Helvetica,sans-Serif" font-size="10.00" fill="#000000">encoder_should_emit</text>
<text text-anchor="start" x="366.5" y="-188" font-family="Helvetica,sans-Serif" font-size="10.00" fill="#000000">_data_without_repetitions</text>
<text text-anchor="middle" x="409.5" y="-177" font-family="Helvetica,sans-Serif" font-size="10.00" fill="#000000">_as_literal_sequence</text>
</a>
</g>
</g>
<!-- Node99&#45;&gt;Node107 -->
<g id="edge12" class="edge">
<title>Node99&#45;&gt;Node107</title>
<path fill="none" stroke="#191970" d="M272.7337,-341.289C285.3348,-312.006 312.7832,-255.8817 351,-220.5 354.6852,-217.0882 358.8318,-213.9629 363.1723,-211.1265"/>
<polygon fill="#191970" stroke="#191970" points="269.3961,-340.1985 268.7705,-350.7749 275.8551,-342.8971 269.3961,-340.1985"/>
</g>
<!-- Node108 -->
<g id="node12" class="node">
<title>Node108</title>
<g id="a_node12"><a xlink:href="test__heatshrink__dynamic_8c.html#ae27157a664552fa0744d095239ee0d88" target="_top" xlink:title="encoder_should_emit\l_series_of_same_byte\l_as_literal_then_backref">
<polygon fill="#ffffff" stroke="#000000" points="360.5,-340 360.5,-381 458.5,-381 458.5,-340 360.5,-340"/>
<text text-anchor="start" x="368.5" y="-369" font-family="Helvetica,sans-Serif" font-size="10.00" fill="#000000">encoder_should_emit</text>
<text text-anchor="start" x="368.5" y="-358" font-family="Helvetica,sans-Serif" font-size="10.00" fill="#000000">_series_of_same_byte</text>
<text text-anchor="middle" x="409.5" y="-347" font-family="Helvetica,sans-Serif" font-size="10.00" fill="#000000">_as_literal_then_backref</text>
</a>
</g>
</g>
<!-- Node99&#45;&gt;Node108 -->
<g id="edge14" class="edge">
<title>Node99&#45;&gt;Node108</title>
<path fill="none" stroke="#191970" d="M325.2815,-360.5C336.9922,-360.5 349.1343,-360.5 360.4308,-360.5"/>
<polygon fill="#191970" stroke="#191970" points="325.1336,-357.0001 315.1336,-360.5 325.1335,-364.0001 325.1336,-357.0001"/>
</g>
<!-- Node109 -->
<g id="node13" class="node">
<title>Node109</title>
<g id="a_node13"><a xlink:href="test__heatshrink__dynamic_8c.html#a2d84dd546b011bb6cfc3b1e9a9a5616b" target="_top" xlink:title="encoder_poll_should\l_detect_repeated_substring">
<polygon fill="#ffffff" stroke="#000000" points="355,-290.5 355,-320.5 464,-320.5 464,-290.5 355,-290.5"/>
<text text-anchor="start" x="363" y="-308.5" font-family="Helvetica,sans-Serif" font-size="10.00" fill="#000000">encoder_poll_should</text>
<text text-anchor="middle" x="409.5" y="-297.5" font-family="Helvetica,sans-Serif" font-size="10.00" fill="#000000">_detect_repeated_substring</text>
</a>
</g>
</g>
<!-- Node99&#45;&gt;Node109 -->
<g id="edge16" class="edge">
<title>Node99&#45;&gt;Node109</title>
<path fill="none" stroke="#191970" d="M299.7252,-347.2828C320.8688,-339.2351 347.9471,-328.9284 369.9192,-320.5654"/>
<polygon fill="#191970" stroke="#191970" points="298.2708,-344.0913 290.17,-350.9197 300.761,-350.6335 298.2708,-344.0913"/>
</g>
<!-- Node110 -->
<g id="node14" class="node">
<title>Node110</title>
<g id="a_node14"><a xlink:href="test__heatshrink__dynamic_8c.html#ab068727669a416029bacc708b2aac5ac" target="_top" xlink:title="encoder_poll_should\l_detect_repeated_substring\l_and_preserve_trailing_literal">
<polygon fill="#ffffff" stroke="#000000" points="352,-230 352,-271 467,-271 467,-230 352,-230"/>
<text text-anchor="start" x="360" y="-259" font-family="Helvetica,sans-Serif" font-size="10.00" fill="#000000">encoder_poll_should</text>
<text text-anchor="start" x="360" y="-248" font-family="Helvetica,sans-Serif" font-size="10.00" fill="#000000">_detect_repeated_substring</text>
<text text-anchor="middle" x="409.5" y="-237" font-family="Helvetica,sans-Serif" font-size="10.00" fill="#000000">_and_preserve_trailing_literal</text>
</a>
</g>
</g>
<!-- Node99&#45;&gt;Node110 -->
<g id="edge18" class="edge">
<title>Node99&#45;&gt;Node110</title>
<path fill="none" stroke="#191970" d="M280.7253,-343.3177C297.1347,-326.033 324.1693,-299.3148 351,-280.5 355.6726,-277.2234 360.7515,-274.0823 365.8998,-271.1488"/>
<polygon fill="#191970" stroke="#191970" points="277.8442,-341.2744 273.5707,-350.9691 282.9572,-346.0553 277.8442,-341.2744"/>
</g>
<!-- Node111 -->
<g id="node15" class="node">
<title>Node111</title>
<g id="a_node15"><a xlink:href="test__heatshrink__dynamic_8c.html#a6627d0e00f7e636ae9294cc6255c7ffd" target="_top" xlink:title="gen">
<polygon fill="#ffffff" stroke="#000000" points="395,-717 395,-736 424,-736 424,-717 395,-717"/>
<text text-anchor="middle" x="409.5" y="-724" font-family="Helvetica,sans-Serif" font-size="10.00" fill="#000000">gen</text>
</a>
</g>
</g>
<!-- Node99&#45;&gt;Node111 -->
<g id="edge20" class="edge">
<title>Node99&#45;&gt;Node111</title>
<path fill="none" stroke="#191970" d="M289.1109,-376.3027C298.7718,-383.9356 309.0131,-393.9528 315,-405.5 377.2175,-525.5024 265.1975,-603.0513 351,-707.5 361.6419,-720.4546 381.2335,-724.6657 394.7949,-725.9854"/>
<polygon fill="#191970" stroke="#191970" points="291.0149,-373.3578 280.8921,-370.2303 286.8551,-378.9878 291.0149,-373.3578"/>
</g>
<!-- Node113 -->
<g id="node17" class="node">
<title>Node113</title>
<g id="a_node17"><a xlink:href="test__heatshrink__dynamic_8c.html#ab9096be17a9dc8f301673949558e5bd6" target="_top" xlink:title="compress_and_expand\l_and_check">
<polygon fill="#ffffff" stroke="#000000" points="362.5,-509.5 362.5,-539.5 456.5,-539.5 456.5,-509.5 362.5,-509.5"/>
<text text-anchor="start" x="370.5" y="-527.5" font-family="Helvetica,sans-Serif" font-size="10.00" fill="#000000">compress_and_expand</text>
<text text-anchor="middle" x="409.5" y="-516.5" font-family="Helvetica,sans-Serif" font-size="10.00" fill="#000000">_and_check</text>
</a>
</g>
</g>
<!-- Node99&#45;&gt;Node113 -->
<g id="edge22" class="edge">
<title>Node99&#45;&gt;Node113</title>
<path fill="none" stroke="#191970" d="M287.027,-376.4383C296.6556,-384.3041 307.4506,-394.4675 315,-405.5 340.4987,-442.763 319.508,-468.1431 351,-500.5 354.2923,-503.8827 358.1291,-506.8062 362.2346,-509.3293"/>
<polygon fill="#191970" stroke="#191970" points="289.0128,-373.5483 278.9766,-370.1533 284.7052,-379.0659 289.0128,-373.5483"/>
</g>
<!-- Node122 -->
<g id="node26" class="node">
<title>Node122</title>
<g id="a_node26"><a xlink:href="test__heatshrink__dynamic_8c.html#a9a102029b8375d4050406a2814f390ac" target="_top" xlink:title="data_without_duplication\l_should_match_with_absurdly\l_tiny_buffers">
<polygon fill="#ffffff" stroke="#000000" points="351,-619 351,-660 468,-660 468,-619 351,-619"/>
<text text-anchor="start" x="359" y="-648" font-family="Helvetica,sans-Serif" font-size="10.00" fill="#000000">data_without_duplication</text>
<text text-anchor="start" x="359" y="-637" font-family="Helvetica,sans-Serif" font-size="10.00" fill="#000000">_should_match_with_absurdly</text>
<text text-anchor="middle" x="409.5" y="-626" font-family="Helvetica,sans-Serif" font-size="10.00" fill="#000000">_tiny_buffers</text>
</a>
</g>
</g>
<!-- Node99&#45;&gt;Node122 -->
<g id="edge37" class="edge">
<title>Node99&#45;&gt;Node122</title>
<path fill="none" stroke="#191970" d="M288.4037,-376.1497C298.1226,-383.8528 308.6044,-393.967 315,-405.5 359.6499,-486.0161 296.3276,-535.4232 351,-609.5 353.5756,-612.9897 356.6755,-616.1045 360.0874,-618.8786"/>
<polygon fill="#191970" stroke="#191970" points="290.2919,-373.192 280.1812,-370.0259 286.1107,-378.8061 290.2919,-373.192"/>
</g>
<!-- Node123 -->
<g id="node27" class="node">
<title>Node123</title>
<g id="a_node27"><a xlink:href="test__heatshrink__dynamic_8c.html#acd64db79d79999a7c5436d35b74a7f40" target="_top" xlink:title="data_with_simple_repetition\l_should_match_with_absurdly\l_tiny_buffers">
<polygon fill="#ffffff" stroke="#000000" points="351,-559 351,-600 468,-600 468,-559 351,-559"/>
<text text-anchor="start" x="359" y="-588" font-family="Helvetica,sans-Serif" font-size="10.00" fill="#000000">data_with_simple_repetition</text>
<text text-anchor="start" x="359" y="-577" font-family="Helvetica,sans-Serif" font-size="10.00" fill="#000000">_should_match_with_absurdly</text>
<text text-anchor="middle" x="409.5" y="-566" font-family="Helvetica,sans-Serif" font-size="10.00" fill="#000000">_tiny_buffers</text>
</a>
</g>
</g>
<!-- Node99&#45;&gt;Node123 -->
<g id="edge39" class="edge">
<title>Node99&#45;&gt;Node123</title>
<path fill="none" stroke="#191970" d="M288.0275,-376.367C297.6739,-384.1121 308.2031,-394.199 315,-405.5 349.0011,-462.0325 309.984,-497.831 351,-549.5 353.7676,-552.9864 357.0497,-556.1069 360.6252,-558.8919"/>
<polygon fill="#191970" stroke="#191970" points="289.9749,-373.451 279.8937,-370.192 285.7422,-379.0264 289.9749,-373.451"/>
</g>
<!-- Node101 -->
<g id="node5" class="node">
<title>Node101</title>
<g id="a_node5"><a xlink:href="heatshrink_8c.html#a37f19023beced8a782d3051bfd7a0bcb" target="_top" xlink:title="encode">
<polygon fill="#ffffff" stroke="#000000" points="554,-695 554,-714 595,-714 595,-695 554,-695"/>
<text text-anchor="middle" x="574.5" y="-702" font-family="Helvetica,sans-Serif" font-size="10.00" fill="#000000">encode</text>
</a>
</g>
</g>
<!-- Node100&#45;&gt;Node101 -->
<g id="edge4" class="edge">
<title>Node100&#45;&gt;Node101</title>
<path fill="none" stroke="#191970" d="M460.207,-693.417C491.6241,-696.4636 530.3035,-700.2143 553.6497,-702.4782"/>
<polygon fill="#191970" stroke="#191970" points="460.1547,-689.8956 449.8635,-692.414 459.479,-696.863 460.1547,-689.8956"/>
</g>
<!-- Node102 -->
<g id="node6" class="node">
<title>Node102</title>
<g id="a_node6"><a xlink:href="heatshrink_8c.html#a3c04138a5bfe5d72780bb7e82a18e627" target="_top" xlink:title="main">
<polygon fill="#ffffff" stroke="#000000" points="684,-695 684,-714 717,-714 717,-695 684,-695"/>
<text text-anchor="middle" x="700.5" y="-702" font-family="Helvetica,sans-Serif" font-size="10.00" fill="#000000">main</text>
</a>
</g>
</g>
<!-- Node101&#45;&gt;Node102 -->
<g id="edge5" class="edge">
<title>Node101&#45;&gt;Node102</title>
<path fill="none" stroke="#191970" d="M605.3093,-704.5C629.9735,-704.5 663.6386,-704.5 683.6184,-704.5"/>
<polygon fill="#191970" stroke="#191970" points="605.0245,-701.0001 595.0245,-704.5 605.0245,-708.0001 605.0245,-701.0001"/>
</g>
<!-- Node104 -->
<g id="node8" class="node">
<title>Node104</title>
<g id="a_node8"><a xlink:href="test__heatshrink__dynamic_8c.html#ac4a70b7ac22f00448c1d17d2b29a1359" target="_top" xlink:title="SUITE">
<polygon fill="#ffffff" stroke="#000000" points="555,-235 555,-254 594,-254 594,-235 555,-235"/>
<text text-anchor="middle" x="574.5" y="-242" font-family="Helvetica,sans-Serif" font-size="10.00" fill="#000000">SUITE</text>
</a>
</g>
</g>
<!-- Node103&#45;&gt;Node104 -->
<g id="edge7" class="edge">
<title>Node103&#45;&gt;Node104</title>
<path fill="none" stroke="#191970" d="M461.8638,-35.5194C464.0253,-37.0694 466.085,-38.7276 468,-40.5 531.04,-98.8474 563.311,-203.0782 572.0308,-234.9681"/>
<polygon fill="#191970" stroke="#191970" points="463.4513,-32.3847 453.1135,-30.065 459.7484,-38.3251 463.4513,-32.3847"/>
</g>
<!-- Node105&#45;&gt;Node104 -->
<g id="edge9" class="edge">
<title>Node105&#45;&gt;Node104</title>
<path fill="none" stroke="#191970" d="M460.6179,-155.9595C463.1401,-157.4504 465.614,-158.9678 468,-160.5 505.252,-184.4217 545.2263,-218.5101 563.8343,-234.9318"/>
<polygon fill="#191970" stroke="#191970" points="462.3366,-152.9105 451.9138,-151.0088 458.8757,-158.9952 462.3366,-152.9105"/>
</g>
<!-- Node106&#45;&gt;Node104 -->
<g id="edge11" class="edge">
<title>Node106&#45;&gt;Node104</title>
<path fill="none" stroke="#191970" d="M462.4595,-96.1478C464.3774,-97.5482 466.2326,-98.9995 468,-100.5 516.8294,-141.957 556.0351,-209.9373 569.4871,-234.9106"/>
<polygon fill="#191970" stroke="#191970" points="463.9907,-92.9628 453.7259,-90.3387 460.1139,-98.7912 463.9907,-92.9628"/>
</g>
<!-- Node107&#45;&gt;Node104 -->
<g id="edge13" class="edge">
<title>Node107&#45;&gt;Node104</title>
<path fill="none" stroke="#191970" d="M470.6873,-210.525C500.3526,-220.2336 533.9649,-231.234 554.6996,-238.0199"/>
<polygon fill="#191970" stroke="#191970" points="471.3952,-207.074 460.8026,-207.2899 469.2179,-213.7268 471.3952,-207.074"/>
</g>
<!-- Node108&#45;&gt;Node104 -->
<g id="edge15" class="edge">
<title>Node108&#45;&gt;Node104</title>
<path fill="none" stroke="#191970" d="M464.5845,-333.6321C465.764,-332.618 466.9051,-331.5741 468,-330.5 492.1315,-306.8275 477.5141,-284.505 504,-263.5 518.6001,-251.9212 539.6787,-247.3751 554.9815,-245.6029"/>
<polygon fill="#191970" stroke="#191970" points="462.1808,-331.0623 456.3266,-339.8929 466.4099,-336.6404 462.1808,-331.0623"/>
</g>
<!-- Node109&#45;&gt;Node104 -->
<g id="edge17" class="edge">
<title>Node109&#45;&gt;Node104</title>
<path fill="none" stroke="#191970" d="M454.6861,-286.3892C459.1941,-284.4228 463.6936,-282.4362 468,-280.5 484.1382,-273.2443 487.392,-269.6041 504,-263.5 520.7763,-257.334 540.4594,-252.1964 554.7579,-248.8249"/>
<polygon fill="#191970" stroke="#191970" points="453.2668,-283.1896 445.48,-290.374 456.0475,-289.6136 453.2668,-283.1896"/>
</g>
<!-- Node110&#45;&gt;Node104 -->
<g id="edge19" class="edge">
<title>Node110&#45;&gt;Node104</title>
<path fill="none" stroke="#191970" d="M477.3647,-248.0322C505.281,-247.0171 535.507,-245.9179 554.6996,-245.22"/>
<polygon fill="#191970" stroke="#191970" points="477.0752,-244.5403 467.209,-248.4015 477.3296,-251.5357 477.0752,-244.5403"/>
</g>
<!-- Node112 -->
<g id="node16" class="node">
<title>Node112</title>
<g id="a_node16"><a xlink:href="test__heatshrink__dynamic_8c.html#adc66afa12a5eaae0cd12d5cc497f0f67" target="_top" xlink:title="SUITE">
<polygon fill="#ffffff" stroke="#000000" points="555,-733 555,-752 594,-752 594,-733 555,-733"/>
<text text-anchor="middle" x="574.5" y="-740" font-family="Helvetica,sans-Serif" font-size="10.00" fill="#000000">SUITE</text>
</a>
</g>
</g>
<!-- Node111&#45;&gt;Node112 -->
<g id="edge21" class="edge">
<title>Node111&#45;&gt;Node112</title>
<path fill="none" stroke="#191970" d="M434.2948,-728.9043C467.2307,-732.0981 524.7468,-737.6755 554.8543,-740.595"/>
<polygon fill="#191970" stroke="#191970" points="434.4338,-725.4015 424.1426,-727.9199 433.7581,-732.3688 434.4338,-725.4015"/>
</g>
<!-- Node114 -->
<g id="node18" class="node">
<title>Node114</title>
<g id="a_node18"><a xlink:href="test__heatshrink__dynamic_8c.html#a9d63746ee6a963338d09b8a19da82529" target="_top" xlink:title="data_without_duplication\l_should_match">
<polygon fill="#ffffff" stroke="#000000" points="525,-569.5 525,-599.5 624,-599.5 624,-569.5 525,-569.5"/>
<text text-anchor="start" x="533" y="-587.5" font-family="Helvetica,sans-Serif" font-size="10.00" fill="#000000">data_without_duplication</text>
<text text-anchor="middle" x="574.5" y="-576.5" font-family="Helvetica,sans-Serif" font-size="10.00" fill="#000000">_should_match</text>
</a>
</g>
</g>
<!-- Node113&#45;&gt;Node114 -->
<g id="edge23" class="edge">
<title>Node113&#45;&gt;Node114</title>
<path fill="none" stroke="#191970" d="M459.5991,-543.203C473.925,-548.511 489.5667,-554.2684 504,-559.5 512.9126,-562.7306 522.4749,-566.1515 531.5916,-569.3917"/>
<polygon fill="#191970" stroke="#191970" points="460.5154,-539.8098 449.9224,-539.612 458.0799,-546.3725 460.5154,-539.8098"/>
</g>
<!-- Node116 -->
<g id="node20" class="node">
<title>Node116</title>
<g id="a_node20"><a xlink:href="test__heatshrink__dynamic_8c.html#ae9d1425d6c89a652b9df2b4ddc7ac2a2" target="_top" xlink:title="data_with_simple_repetition\l_should_compress_and_decompress\l_properly">
<polygon fill="#ffffff" stroke="#000000" points="504,-509 504,-550 645,-550 645,-509 504,-509"/>
<text text-anchor="start" x="512" y="-538" font-family="Helvetica,sans-Serif" font-size="10.00" fill="#000000">data_with_simple_repetition</text>
<text text-anchor="start" x="512" y="-527" font-family="Helvetica,sans-Serif" font-size="10.00" fill="#000000">_should_compress_and_decompress</text>
<text text-anchor="middle" x="574.5" y="-516" font-family="Helvetica,sans-Serif" font-size="10.00" fill="#000000">_properly</text>
</a>
</g>
</g>
<!-- Node113&#45;&gt;Node116 -->
<g id="edge25" class="edge">
<title>Node113&#45;&gt;Node116</title>
<path fill="none" stroke="#191970" d="M467.0034,-526.2425C478.8903,-526.6027 491.5417,-526.9861 503.8352,-527.3586"/>
<polygon fill="#191970" stroke="#191970" points="466.8838,-522.7374 456.7824,-525.9328 466.6717,-529.7342 466.8838,-522.7374"/>
</g>
<!-- Node117 -->
<g id="node21" class="node">
<title>Node117</title>
<g id="a_node21"><a xlink:href="test__heatshrink__dynamic_8c.html#a60c0e0c5bbb9715c7932ee82e706752d" target="_top" xlink:title="pseudorandom_data_should\l_match">
<polygon fill="#ffffff" stroke="#000000" points="518.5,-459.5 518.5,-489.5 630.5,-489.5 630.5,-459.5 518.5,-459.5"/>
<text text-anchor="start" x="526.5" y="-477.5" font-family="Helvetica,sans-Serif" font-size="10.00" fill="#000000">pseudorandom_data_should</text>
<text text-anchor="middle" x="574.5" y="-466.5" font-family="Helvetica,sans-Serif" font-size="10.00" fill="#000000">_match</text>
</a>
</g>
</g>
<!-- Node113&#45;&gt;Node117 -->
<g id="edge27" class="edge">
<title>Node113&#45;&gt;Node117</title>
<path fill="none" stroke="#191970" d="M466.5127,-507.2234C485.5151,-501.4651 506.518,-495.1006 524.9107,-489.5271"/>
<polygon fill="#191970" stroke="#191970" points="465.3376,-503.9223 456.7824,-510.172 467.3677,-510.6214 465.3376,-503.9223"/>
</g>
<!-- Node118 -->
<g id="node22" class="node">
<title>Node118</title>
<g id="a_node22"><a xlink:href="test__heatshrink__dynamic_8c.html#a20e1a72bba941f0c602b93b53d32d5db" target="_top" xlink:title="small_input_buffer\l_should_not_impact_decoder\l_correctness">
<polygon fill="#ffffff" stroke="#000000" points="517,-399 517,-440 632,-440 632,-399 517,-399"/>
<text text-anchor="start" x="525" y="-428" font-family="Helvetica,sans-Serif" font-size="10.00" fill="#000000">small_input_buffer</text>
<text text-anchor="start" x="525" y="-417" font-family="Helvetica,sans-Serif" font-size="10.00" fill="#000000">_should_not_impact_decoder</text>
<text text-anchor="middle" x="574.5" y="-406" font-family="Helvetica,sans-Serif" font-size="10.00" fill="#000000">_correctness</text>
</a>
</g>
</g>
<!-- Node113&#45;&gt;Node118 -->
<g id="edge29" class="edge">
<title>Node113&#45;&gt;Node118</title>
<path fill="none" stroke="#191970" d="M462.5023,-504.4417C464.4085,-503.1945 466.2495,-501.8813 468,-500.5 489.4966,-483.5376 482.7167,-467.7293 504,-450.5 508.7804,-446.6301 514.1192,-443.1501 519.6612,-440.0447"/>
<polygon fill="#191970" stroke="#191970" points="460.6948,-501.4439 453.8065,-509.4939 464.2114,-507.4965 460.6948,-501.4439"/>
</g>
<!-- Node119 -->
<g id="node23" class="node">
<title>Node119</title>
<g id="a_node23"><a xlink:href="test__heatshrink__dynamic_8c.html#a462faeb904a3de1b1e009a04f7d171d8" target="_top" xlink:title="regression_backreference\l_counters_should_not_roll_over">
<polygon fill="#ffffff" stroke="#000000" points="513,-349.5 513,-379.5 636,-379.5 636,-349.5 513,-349.5"/>
<text text-anchor="start" x="521" y="-367.5" font-family="Helvetica,sans-Serif" font-size="10.00" fill="#000000">regression_backreference</text>
<text text-anchor="middle" x="574.5" y="-356.5" font-family="Helvetica,sans-Serif" font-size="10.00" fill="#000000">_counters_should_not_roll_over</text>
</a>
</g>
</g>
<!-- Node113&#45;&gt;Node119 -->
<g id="edge31" class="edge">
<title>Node113&#45;&gt;Node119</title>
<path fill="none" stroke="#191970" d="M464.7551,-503.674C465.8891,-502.6642 466.9738,-501.607 468,-500.5 503.2588,-462.4659 467.8286,-426.6673 504,-389.5 507.804,-385.5912 512.2575,-382.2921 517.0449,-379.5078"/>
<polygon fill="#191970" stroke="#191970" points="462.6088,-500.9082 456.6536,-509.671 466.7736,-506.5344 462.6088,-500.9082"/>
</g>
<!-- Node120 -->
<g id="node24" class="node">
<title>Node120</title>
<g id="a_node24"><a xlink:href="test__heatshrink__dynamic_8c.html#a2ed8ea21768d114fa96b07eb58475663" target="_top" xlink:title="regression_index_fail">
<polygon fill="#ffffff" stroke="#000000" points="531,-311 531,-330 618,-330 618,-311 531,-311"/>
<text text-anchor="middle" x="574.5" y="-318" font-family="Helvetica,sans-Serif" font-size="10.00" fill="#000000">regression_index_fail</text>
</a>
</g>
</g>
<!-- Node113&#45;&gt;Node120 -->
<g id="edge33" class="edge">
<title>Node113&#45;&gt;Node120</title>
<path fill="none" stroke="#191970" d="M464.8207,-503.8693C465.9406,-502.8015 467.0038,-501.6793 468,-500.5 515.0341,-444.8172 453.8994,-393.4407 504,-340.5 511.0834,-333.0151 520.7423,-328.2644 530.6377,-325.2671"/>
<polygon fill="#191970" stroke="#191970" points="462.4729,-501.2608 456.7161,-510.1552 466.7631,-506.7921 462.4729,-501.2608"/>
</g>
<!-- Node121 -->
<g id="node25" class="node">
<title>Node121</title>
<g id="a_node25"><a xlink:href="test__heatshrink__dynamic_8c.html#a1bfe72da903d55a8610433a4f2a60d43" target="_top" xlink:title="sixty_four_k">
<polygon fill="#ffffff" stroke="#000000" points="546,-273 546,-292 603,-292 603,-273 546,-273"/>
<text text-anchor="middle" x="574.5" y="-280" font-family="Helvetica,sans-Serif" font-size="10.00" fill="#000000">sixty_four_k</text>
</a>
</g>
</g>
<!-- Node113&#45;&gt;Node121 -->
<g id="edge35" class="edge">
<title>Node113&#45;&gt;Node121</title>
<path fill="none" stroke="#191970" d="M464.8147,-503.9973C465.9419,-502.8915 467.0075,-501.7268 468,-500.5 524.5316,-430.6244 443.1791,-367.6758 504,-301.5 514.5508,-290.0202 531.2379,-285.1857 545.729,-283.2608"/>
<polygon fill="#191970" stroke="#191970" points="462.2878,-501.5325 456.6005,-510.4715 466.6209,-507.0301 462.2878,-501.5325"/>
</g>
<!-- Node115 -->
<g id="node19" class="node">
<title>Node115</title>
<g id="a_node19"><a xlink:href="test__heatshrink__dynamic_8c.html#a2f157eb23cb17a496326c14e12933b3b" target="_top" xlink:title="SUITE">
<polygon fill="#ffffff" stroke="#000000" points="681,-465 681,-484 720,-484 720,-465 681,-465"/>
<text text-anchor="middle" x="700.5" y="-472" font-family="Helvetica,sans-Serif" font-size="10.00" fill="#000000">SUITE</text>
</a>
</g>
</g>
<!-- Node114&#45;&gt;Node115 -->
<g id="edge24" class="edge">
<title>Node114&#45;&gt;Node115</title>
<path fill="none" stroke="#191970" d="M633.3269,-567.1081C637.455,-564.8575 641.4006,-562.3316 645,-559.5 671.4566,-538.6871 689.3294,-501.6152 696.6998,-484.1314"/>
<polygon fill="#191970" stroke="#191970" points="631.5283,-564.0906 624.0617,-571.6074 634.5861,-570.3874 631.5283,-564.0906"/>
</g>
<!-- Node116&#45;&gt;Node115 -->
<g id="edge26" class="edge">
<title>Node116&#45;&gt;Node115</title>
<path fill="none" stroke="#191970" d="M632.4321,-504.9629C636.6896,-503.1244 640.9144,-501.2892 645,-499.5 656.9067,-494.2856 670.184,-488.3107 680.7662,-483.5098"/>
<polygon fill="#191970" stroke="#191970" points="630.9044,-501.8098 623.1008,-508.9761 633.6701,-508.2403 630.9044,-501.8098"/>
</g>
<!-- Node117&#45;&gt;Node115 -->
<g id="edge28" class="edge">
<title>Node117&#45;&gt;Node115</title>
<path fill="none" stroke="#191970" d="M641.0029,-474.5C655.6424,-474.5 670.029,-474.5 680.9874,-474.5"/>
<polygon fill="#191970" stroke="#191970" points="640.8665,-471.0001 630.8664,-474.5 640.8664,-478.0001 640.8665,-471.0001"/>
</g>
<!-- Node118&#45;&gt;Node115 -->
<g id="edge30" class="edge">
<title>Node118&#45;&gt;Node115</title>
<path fill="none" stroke="#191970" d="M630.9811,-444.1544C648.7636,-451.9166 667.2463,-459.9845 680.6804,-465.8486"/>
<polygon fill="#191970" stroke="#191970" points="632.3414,-440.9293 621.7762,-440.1365 629.5409,-447.3448 632.3414,-440.9293"/>
</g>
<!-- Node119&#45;&gt;Node115 -->
<g id="edge32" class="edge">
<title>Node119&#45;&gt;Node115</title>
<path fill="none" stroke="#191970" d="M637.7303,-384.4456C640.2661,-386.0112 642.7035,-387.6934 645,-389.5 671.4566,-410.3129 689.3294,-447.3848 696.6998,-464.8686"/>
<polygon fill="#191970" stroke="#191970" points="639.2447,-381.2847 628.7912,-379.56 635.8876,-387.4272 639.2447,-381.2847"/>
</g>
<!-- Node120&#45;&gt;Node115 -->
<g id="edge34" class="edge">
<title>Node120&#45;&gt;Node115</title>
<path fill="none" stroke="#191970" d="M627.6564,-329.8146C633.9724,-332.5228 639.9557,-336.0104 645,-340.5 683.5593,-374.8187 695.9529,-440.1014 699.3606,-464.7505"/>
<polygon fill="#191970" stroke="#191970" points="628.8292,-326.5169 618.2352,-326.3786 626.4307,-333.0932 628.8292,-326.5169"/>
</g>
<!-- Node121&#45;&gt;Node115 -->
<g id="edge36" class="edge">
<title>Node121&#45;&gt;Node115</title>
<path fill="none" stroke="#191970" d="M612.9748,-285.7845C624.4921,-288.4928 636.3449,-293.244 645,-301.5 669.6498,-325.0132 692.2143,-432.009 698.6639,-464.8711"/>
<polygon fill="#191970" stroke="#191970" points="613.5064,-282.3229 603.0286,-283.8935 612.1989,-289.1998 613.5064,-282.3229"/>
</g>
<!-- Node122&#45;&gt;Node115 -->
<g id="edge38" class="edge">
<title>Node122&#45;&gt;Node115</title>
<path fill="none" stroke="#191970" d="M478.0647,-657.0064C528.9426,-665.7707 597.4505,-668.1849 645,-633.5 670.3925,-614.9775 692.2798,-515.4183 698.6392,-484.0034"/>
<polygon fill="#191970" stroke="#191970" points="478.6041,-653.547 468.1356,-655.178 477.3363,-660.4312 478.6041,-653.547"/>
</g>
<!-- Node123&#45;&gt;Node115 -->
<g id="edge40" class="edge">
<title>Node123&#45;&gt;Node115</title>
<path fill="none" stroke="#191970" d="M459.8384,-604.0432C510.827,-625.0193 589.8349,-646.466 645,-609.5 688.5765,-580.2995 697.9689,-510.0555 699.9679,-484.235"/>
<polygon fill="#191970" stroke="#191970" points="460.9153,-600.698 450.3429,-600.0091 458.1782,-607.1407 460.9153,-600.698"/>
</g>
<!-- Node124&#45;&gt;Node100 -->
<g id="edge42" class="edge">
<title>Node124&#45;&gt;Node100</title>
<path fill="none" stroke="#191970" d="M266.176,-444.1863C269.9899,-490.2411 285.8928,-605.9079 351,-669.5 356.1183,-674.4992 362.5645,-678.183 369.293,-680.8976"/>
<polygon fill="#191970" stroke="#191970" points="269.6554,-443.7733 265.4442,-434.0513 262.6736,-444.2775 269.6554,-443.7733"/>
</g>
<!-- Node124&#45;&gt;Node107 -->
<g id="edge47" class="edge">
<title>Node124&#45;&gt;Node107</title>
<path fill="none" stroke="#191970" d="M288.1461,-408.7034C297.8153,-400.9719 308.3296,-390.8762 315,-379.5 351.6487,-316.9968 306.5877,-277.7479 351,-220.5 353.7285,-216.9829 356.9834,-213.8411 360.541,-211.042"/>
<polygon fill="#191970" stroke="#191970" points="285.8588,-406.0447 279.9843,-414.8618 290.075,-411.6325 285.8588,-406.0447"/>
</g>
<!-- Node124&#45;&gt;Node108 -->
<g id="edge48" class="edge">
<title>Node124&#45;&gt;Node108</title>
<path fill="none" stroke="#191970" d="M295.9871,-410.7756C315.5622,-402.1057 341.2164,-390.7432 363.1831,-381.0141"/>
<polygon fill="#191970" stroke="#191970" points="294.3591,-407.6687 286.6331,-414.9186 297.1938,-414.069 294.3591,-407.6687"/>
</g>
<!-- Node124&#45;&gt;Node109 -->
<g id="edge49" class="edge">
<title>Node124&#45;&gt;Node109</title>
<path fill="none" stroke="#191970" d="M284.9667,-408.1828C294.489,-399.9975 305.7849,-389.6776 315,-379.5 333.1378,-359.4677 329.827,-347.2921 351,-330.5 355.7595,-326.7253 361.1741,-323.4186 366.7427,-320.553"/>
<polygon fill="#191970" stroke="#191970" points="282.5429,-405.6483 277.1521,-414.7691 287.0541,-411.0008 282.5429,-405.6483"/>
</g>
<!-- Node124&#45;&gt;Node110 -->
<g id="edge50" class="edge">
<title>Node124&#45;&gt;Node110</title>
<path fill="none" stroke="#191970" d="M287.0952,-408.6081C296.7379,-400.7518 307.525,-390.583 315,-379.5 341.1793,-340.6845 320.0279,-315.6103 351,-280.5 354.0958,-276.9906 357.7004,-273.8358 361.5716,-271.0121"/>
<polygon fill="#191970" stroke="#191970" points="284.7734,-405.9799 279.028,-414.8816 289.0706,-411.5057 284.7734,-405.9799"/>
</g>
<!-- Node124&#45;&gt;Node111 -->
<g id="edge51" class="edge">
<title>Node124&#45;&gt;Node111</title>
<path fill="none" stroke="#191970" d="M268.5302,-444.1257C279.2584,-501.7519 313.0699,-668.8416 351,-707.5 362.592,-719.3146 381.5924,-723.7877 394.7807,-725.4783"/>
<polygon fill="#191970" stroke="#191970" points="271.9438,-443.3355 266.698,-434.1304 265.0585,-444.5976 271.9438,-443.3355"/>
</g>
<!-- Node124&#45;&gt;Node113 -->
<g id="edge52" class="edge">
<title>Node124&#45;&gt;Node113</title>
<path fill="none" stroke="#191970" d="M280.8389,-441.4913C297.1566,-458.2318 323.9571,-483.6758 351,-500.5 356.2198,-503.7474 361.9553,-506.7225 367.731,-509.389"/>
<polygon fill="#191970" stroke="#191970" points="283.1582,-438.8527 273.7153,-434.0483 278.1011,-443.6928 283.1582,-438.8527"/>
</g>
<!-- Node124&#45;&gt;Node122 -->
<g id="edge53" class="edge">
<title>Node124&#45;&gt;Node122</title>
<path fill="none" stroke="#191970" d="M269.5791,-444.1457C279.0194,-480.8301 303.8227,-560.4604 351,-609.5 354.3235,-612.9547 358.1311,-616.0833 362.1745,-618.8999"/>
<polygon fill="#191970" stroke="#191970" points="272.9247,-443.0939 267.1348,-434.221 266.1278,-444.7679 272.9247,-443.0939"/>
</g>
<!-- Node124&#45;&gt;Node123 -->
<g id="edge54" class="edge">
<title>Node124&#45;&gt;Node123</title>
<path fill="none" stroke="#191970" d="M274.0215,-443.1231C287.6118,-469.5983 315.5597,-518.353 351,-549.5 354.858,-552.8907 359.1673,-556.0163 363.65,-558.8652"/>
<polygon fill="#191970" stroke="#191970" points="277.1361,-441.526 269.5302,-434.1503 270.8765,-444.6593 277.1361,-441.526"/>
</g>
<!-- Node125 -->
<g id="node29" class="node">
<title>Node125</title>
<g id="a_node29"><a xlink:href="test__heatshrink__dynamic_8c.html#ade6da42ddec3e9a2d8fe58597792b843" target="_top" xlink:title="encoder_poll_should\l_reject_nulls">
<polygon fill="#ffffff" stroke="#000000" points="366.5,-460.5 366.5,-490.5 452.5,-490.5 452.5,-460.5 366.5,-460.5"/>
<text text-anchor="start" x="374.5" y="-478.5" font-family="Helvetica,sans-Serif" font-size="10.00" fill="#000000">encoder_poll_should</text>
<text text-anchor="middle" x="409.5" y="-467.5" font-family="Helvetica,sans-Serif" font-size="10.00" fill="#000000">_reject_nulls</text>
</a>
</g>
</g>
<!-- Node124&#45;&gt;Node125 -->
<g id="edge43" class="edge">
<title>Node124&#45;&gt;Node125</title>
<path fill="none" stroke="#191970" d="M301.7785,-437.4806C321.5998,-444.4764 346.1584,-453.1441 366.8186,-460.436"/>
<polygon fill="#191970" stroke="#191970" points="302.7741,-434.1205 292.1793,-434.0927 300.4444,-440.7214 302.7741,-434.1205"/>
</g>
<!-- Node126 -->
<g id="node30" class="node">
<title>Node126</title>
<g id="a_node30"><a xlink:href="test__heatshrink__dynamic_8c.html#aa662e805dae6d002db06dc962e7440f9" target="_top" xlink:title="encoder_poll_should\l_indicate_when_no_input\l_is_provided">
<polygon fill="#ffffff" stroke="#000000" points="358.5,-400 358.5,-441 460.5,-441 460.5,-400 358.5,-400"/>
<text text-anchor="start" x="366.5" y="-429" font-family="Helvetica,sans-Serif" font-size="10.00" fill="#000000">encoder_poll_should</text>
<text text-anchor="start" x="366.5" y="-418" font-family="Helvetica,sans-Serif" font-size="10.00" fill="#000000">_indicate_when_no_input</text>
<text text-anchor="middle" x="409.5" y="-407" font-family="Helvetica,sans-Serif" font-size="10.00" fill="#000000">_is_provided</text>
</a>
</g>
</g>
<!-- Node124&#45;&gt;Node126 -->
<g id="edge45" class="edge">
<title>Node124&#45;&gt;Node126</title>
<path fill="none" stroke="#191970" d="M324.5125,-422.8526C335.7722,-422.5409 347.4581,-422.2174 358.4292,-421.9137"/>
<polygon fill="#191970" stroke="#191970" points="324.2238,-419.3591 314.3246,-423.1346 324.4176,-426.3565 324.2238,-419.3591"/>
</g>
<!-- Node125&#45;&gt;Node104 -->
<g id="edge44" class="edge">
<title>Node125&#45;&gt;Node104</title>
<path fill="none" stroke="#191970" d="M460.9155,-457.4804C463.5246,-455.3976 465.9202,-453.0794 468,-450.5 521.1246,-384.6119 446.3782,-325.4934 504,-263.5 516.9452,-249.5727 538.9245,-245.4433 554.9067,-244.4115"/>
<polygon fill="#191970" stroke="#191970" points="458.9361,-454.5935 452.5511,-463.0482 462.815,-460.4205 458.9361,-454.5935"/>
</g>
<!-- Node126&#45;&gt;Node104 -->
<g id="edge46" class="edge">
<title>Node126&#45;&gt;Node104</title>
<path fill="none" stroke="#191970" d="M465.7937,-393.0164C466.558,-392.1994 467.2946,-391.3607 468,-390.5 505.1897,-345.1249 462.2471,-304.7149 504,-263.5 517.4419,-250.2313 539.1192,-245.9717 554.8918,-244.729"/>
<polygon fill="#191970" stroke="#191970" points="463.3501,-390.5068 458.2581,-399.7978 468.0327,-395.7101 463.3501,-390.5068"/>
</g>
<!-- Node127&#45;&gt;Node99 -->
<g id="edge56" class="edge">
<title>Node127&#45;&gt;Node99</title>
<path fill="none" stroke="#191970" d="M172.5223,-451.9636C174.7814,-450.5612 176.9661,-449.0712 179,-447.5 198.4561,-432.4699 197.827,-423.0935 215,-405.5 227.5625,-392.6299 243.1046,-378.9597 253.4954,-370.1093"/>
<polygon fill="#191970" stroke="#191970" points="170.6394,-449.0059 163.6018,-456.9256 174.0422,-455.1232 170.6394,-449.0059"/>
</g>
<!-- Node127&#45;&gt;Node124 -->
<g id="edge57" class="edge">
<title>Node127&#45;&gt;Node124</title>
<path fill="none" stroke="#191970" d="M178.0824,-453.7043C196.8215,-447.408 219.0353,-439.9441 236.3151,-434.1381"/>
<polygon fill="#191970" stroke="#191970" points="176.7289,-450.4667 168.3644,-456.9695 178.9584,-457.1022 176.7289,-450.4667"/>
</g>
<!-- Node128&#45;&gt;Node99 -->
<g id="edge59" class="edge">
<title>Node128&#45;&gt;Node99</title>
<path fill="none" stroke="#191970" d="M169.4041,-414.4273C172.657,-412.7956 175.9089,-411.1314 179,-409.5 203.7716,-396.4263 231.8635,-380.136 249.0047,-370.0255"/>
<polygon fill="#191970" stroke="#191970" points="167.7868,-411.3223 160.3666,-418.8847 170.8833,-417.6002 167.7868,-411.3223"/>
</g>
<!-- Node128&#45;&gt;Node124 -->
<g id="edge60" class="edge">
<title>Node128&#45;&gt;Node124</title>
<path fill="none" stroke="#191970" d="M188.7214,-426.9409C197.5999,-426.6568 206.8688,-426.3602 215.7621,-426.0756"/>
<polygon fill="#191970" stroke="#191970" points="188.407,-423.4491 178.5241,-427.2672 188.6309,-430.4455 188.407,-423.4491"/>
</g>
<!-- Node129&#45;&gt;Node99 -->
<g id="edge62" class="edge">
<title>Node129&#45;&gt;Node99</title>
<path fill="none" stroke="#191970" d="M182.0488,-380.4083C196.0233,-377.0544 211.5308,-373.3326 225.3204,-370.0231"/>
<polygon fill="#191970" stroke="#191970" points="181.0976,-377.0371 172.1906,-382.7743 182.7313,-383.8438 181.0976,-377.0371"/>
</g>
<!-- Node129&#45;&gt;Node124 -->
<g id="edge63" class="edge">
<title>Node129&#45;&gt;Node124</title>
<path fill="none" stroke="#191970" d="M182.0706,-401.9432C197.5902,-406.1645 214.998,-410.8995 229.8427,-414.9372"/>
<polygon fill="#191970" stroke="#191970" points="182.7587,-398.5033 172.1906,-399.2558 180.9214,-405.2579 182.7587,-398.5033"/>
</g>
<!-- Node130&#45;&gt;Node99 -->
<g id="edge65" class="edge">
<title>Node130&#45;&gt;Node99</title>
<path fill="none" stroke="#191970" d="M185.0586,-355.3838C194.7606,-356.0047 205.0721,-356.6646 214.951,-357.2969"/>
<polygon fill="#191970" stroke="#191970" points="185.0226,-351.8744 174.8195,-354.7284 184.5755,-358.8601 185.0226,-351.8744"/>
</g>
<!-- Node130&#45;&gt;Node124 -->
<g id="edge66" class="edge">
<title>Node130&#45;&gt;Node124</title>
<path fill="none" stroke="#191970" d="M169.9657,-366.7235C173.0386,-368.2937 176.0963,-369.903 179,-371.5 204.6636,-385.6142 233.4417,-403.8681 250.3497,-414.8543"/>
<polygon fill="#191970" stroke="#191970" points="171.3519,-363.504 160.8399,-362.1816 168.2329,-369.7707 171.3519,-363.504"/>
</g>
</g>
</svg>
