<?xml version="1.0" encoding="UTF-8" standalone="no"?>
<!DOCTYPE svg PUBLIC "-//W3C//DTD SVG 1.1//EN"
 "http://www.w3.org/Graphics/SVG/1.1/DTD/svg11.dtd">
<!-- Generated by graphviz version 2.40.1 (20161225.0304)
 -->
<!-- Title: do_indexing Pages: 1 -->
<svg width="295pt" height="28pt"
 viewBox="0.00 0.00 295.00 28.00" xmlns="http://www.w3.org/2000/svg" xmlns:xlink="http://www.w3.org/1999/xlink">
<g id="graph0" class="graph" transform="scale(1 1) rotate(0) translate(4 24)">
<title>do_indexing</title>
<polygon fill="#ffffff" stroke="transparent" points="-4,4 -4,-24 291,-24 291,4 -4,4"/>
<!-- Node131 -->
<g id="node1" class="node">
<title>Node131</title>
<polygon fill="#bfbfbf" stroke="#000000" points="0,-.5 0,-19.5 57,-19.5 57,-.5 0,-.5"/>
<text text-anchor="middle" x="28.5" y="-7.5" font-family="Helvetica,sans-Serif" font-size="10.00" fill="#000000">do_indexing</text>
</g>
<!-- Node132 -->
<g id="node2" class="node">
<title>Node132</title>
<g id="a_node2"><a xlink:href="heatshrink__encoder_8c.html#ae3f741c7a40be525778c6c92c4720518" target="_top" xlink:title="get_input_offset">
<polygon fill="#ffffff" stroke="#000000" points="93,-.5 93,-19.5 163,-19.5 163,-.5 93,-.5"/>
<text text-anchor="middle" x="128" y="-7.5" font-family="Helvetica,sans-Serif" font-size="10.00" fill="#000000">get_input_offset</text>
</a>
</g>
</g>
<!-- Node131&#45;&gt;Node132 -->
<g id="edge1" class="edge">
<title>Node131&#45;&gt;Node132</title>
<path fill="none" stroke="#191970" d="M57.0127,-10C65.02,-10 73.931,-10 82.6594,-10"/>
<polygon fill="#191970" stroke="#191970" points="82.757,-13.5001 92.757,-10 82.757,-6.5001 82.757,-13.5001"/>
</g>
<!-- Node133 -->
<g id="node3" class="node">
<title>Node133</title>
<g id="a_node3"><a xlink:href="heatshrink__encoder_8c.html#a9b311bf2b76215ba61eb648d970a5f11" target="_top" xlink:title="get_input_buffer_size">
<polygon fill="#ffffff" stroke="#000000" points="199,-.5 199,-19.5 287,-19.5 287,-.5 199,-.5"/>
<text text-anchor="middle" x="243" y="-7.5" font-family="Helvetica,sans-Serif" font-size="10.00" fill="#000000">get_input_buffer_size</text>
</a>
</g>
</g>
<!-- Node132&#45;&gt;Node133 -->
<g id="edge2" class="edge">
<title>Node132&#45;&gt;Node133</title>
<path fill="none" stroke="#191970" d="M163.1287,-10C171.1996,-10 179.9672,-10 188.6392,-10"/>
<polygon fill="#191970" stroke="#191970" points="188.7282,-13.5001 198.7282,-10 188.7282,-6.5001 188.7282,-13.5001"/>
</g>
</g>
</svg>
