<?xml version="1.0" encoding="UTF-8" standalone="no"?>
<!DOCTYPE svg PUBLIC "-//W3C//DTD SVG 1.1//EN"
 "http://www.w3.org/Graphics/SVG/1.1/DTD/svg11.dtd">
<!-- Generated by graphviz version 2.40.1 (20161225.0304)
 -->
<!-- Title: heatshrink_encoder_free Pages: 1 -->
<svg width="510pt" height="1025pt"
 viewBox="0.00 0.00 510.00 1024.50" xmlns="http://www.w3.org/2000/svg" xmlns:xlink="http://www.w3.org/1999/xlink">
<g id="graph0" class="graph" transform="scale(1 1) rotate(0) translate(4 1020.5)">
<title>heatshrink_encoder_free</title>
<polygon fill="#ffffff" stroke="transparent" points="-4,4 -4,-1020.5 506,-1020.5 506,4 -4,4"/>
<!-- Node55 -->
<g id="node1" class="node">
<title>Node55</title>
<polygon fill="#bfbfbf" stroke="#000000" points="0,-361.5 0,-380.5 99,-380.5 99,-361.5 0,-361.5"/>
<text text-anchor="middle" x="49.5" y="-368.5" font-family="Helvetica,sans-Serif" font-size="10.00" fill="#000000">heatshrink_encoder_free</text>
</g>
<!-- Node56 -->
<g id="node2" class="node">
<title>Node56</title>
<g id="a_node2"><a xlink:href="test__heatshrink__dynamic_8c.html#ab9096be17a9dc8f301673949558e5bd6" target="_top" xlink:title="compress_and_expand\l_and_check">
<polygon fill="#ffffff" stroke="#000000" points="145.5,-794 145.5,-824 239.5,-824 239.5,-794 145.5,-794"/>
<text text-anchor="start" x="153.5" y="-812" font-family="Helvetica,sans-Serif" font-size="10.00" fill="#000000">compress_and_expand</text>
<text text-anchor="middle" x="192.5" y="-801" font-family="Helvetica,sans-Serif" font-size="10.00" fill="#000000">_and_check</text>
</a>
</g>
</g>
<!-- Node55&#45;&gt;Node56 -->
<g id="edge1" class="edge">
<title>Node55&#45;&gt;Node56</title>
<path fill="none" stroke="#191970" d="M54.6467,-390.2041C67.2272,-436.6991 101.0018,-558.8684 135,-659 151.947,-708.9125 175.2116,-766.8849 186.2284,-793.8111"/>
<polygon fill="#191970" stroke="#191970" points="58.0216,-389.2763 52.0404,-380.5312 51.2626,-391.0975 58.0216,-389.2763"/>
</g>
<!-- Node65 -->
<g id="node11" class="node">
<title>Node65</title>
<g id="a_node11"><a xlink:href="test__heatshrink__dynamic_8c.html#acd64db79d79999a7c5436d35b74a7f40" target="_top" xlink:title="data_with_simple_repetition\l_should_match_with_absurdly\l_tiny_buffers">
<polygon fill="#ffffff" stroke="#000000" points="298,-629.5 298,-670.5 415,-670.5 415,-629.5 298,-629.5"/>
<text text-anchor="start" x="306" y="-658.5" font-family="Helvetica,sans-Serif" font-size="10.00" fill="#000000">data_with_simple_repetition</text>
<text text-anchor="start" x="306" y="-647.5" font-family="Helvetica,sans-Serif" font-size="10.00" fill="#000000">_should_match_with_absurdly</text>
<text text-anchor="middle" x="356.5" y="-636.5" font-family="Helvetica,sans-Serif" font-size="10.00" fill="#000000">_tiny_buffers</text>
</a>
</g>
</g>
<!-- Node55&#45;&gt;Node65 -->
<g id="edge16" class="edge">
<title>Node55&#45;&gt;Node65</title>
<path fill="none" stroke="#191970" d="M50.5195,-390.9318C53.9787,-436.4182 69.107,-548.3106 135,-605 179.9176,-643.6437 248.9098,-652.3561 297.9485,-653.0021"/>
<polygon fill="#191970" stroke="#191970" points="54.007,-390.6249 49.8676,-380.8722 47.0217,-391.0776 54.007,-390.6249"/>
</g>
<!-- Node66 -->
<g id="node12" class="node">
<title>Node66</title>
<g id="a_node12"><a xlink:href="test__heatshrink__dynamic_8c.html#a9a102029b8375d4050406a2814f390ac" target="_top" xlink:title="data_without_duplication\l_should_match_with_absurdly\l_tiny_buffers">
<polygon fill="#ffffff" stroke="#000000" points="298,-569.5 298,-610.5 415,-610.5 415,-569.5 298,-569.5"/>
<text text-anchor="start" x="306" y="-598.5" font-family="Helvetica,sans-Serif" font-size="10.00" fill="#000000">data_without_duplication</text>
<text text-anchor="start" x="306" y="-587.5" font-family="Helvetica,sans-Serif" font-size="10.00" fill="#000000">_should_match_with_absurdly</text>
<text text-anchor="middle" x="356.5" y="-576.5" font-family="Helvetica,sans-Serif" font-size="10.00" fill="#000000">_tiny_buffers</text>
</a>
</g>
</g>
<!-- Node55&#45;&gt;Node66 -->
<g id="edge18" class="edge">
<title>Node55&#45;&gt;Node66</title>
<path fill="none" stroke="#191970" d="M51.0645,-391.1809C55.5625,-433.781 72.5559,-532.6085 135,-577 181.9371,-610.3676 249.593,-609.1964 297.7615,-602.447"/>
<polygon fill="#191970" stroke="#191970" points="54.5258,-390.6008 50.117,-380.9668 47.5557,-391.2474 54.5258,-390.6008"/>
</g>
<!-- Node67 -->
<g id="node13" class="node">
<title>Node67</title>
<g id="a_node13"><a xlink:href="heatshrink_8c.html#a37f19023beced8a782d3051bfd7a0bcb" target="_top" xlink:title="encode">
<polygon fill="#ffffff" stroke="#000000" points="172,-548.5 172,-567.5 213,-567.5 213,-548.5 172,-548.5"/>
<text text-anchor="middle" x="192.5" y="-555.5" font-family="Helvetica,sans-Serif" font-size="10.00" fill="#000000">encode</text>
</a>
</g>
</g>
<!-- Node55&#45;&gt;Node67 -->
<g id="edge20" class="edge">
<title>Node55&#45;&gt;Node67</title>
<path fill="none" stroke="#191970" d="M54.1542,-390.4467C63.4792,-425.2666 87.7299,-498.404 135,-539 145.3687,-547.9047 160.0344,-552.6651 171.9591,-555.1941"/>
<polygon fill="#191970" stroke="#191970" points="57.5006,-389.4046 51.6408,-380.5777 50.7171,-391.1322 57.5006,-389.4046"/>
</g>
<!-- Node69 -->
<g id="node15" class="node">
<title>Node69</title>
<g id="a_node15"><a xlink:href="test__heatshrink__dynamic_8c.html#a2d84dd546b011bb6cfc3b1e9a9a5616b" target="_top" xlink:title="encoder_poll_should\l_detect_repeated_substring">
<polygon fill="#ffffff" stroke="#000000" points="138,-499 138,-529 247,-529 247,-499 138,-499"/>
<text text-anchor="start" x="146" y="-517" font-family="Helvetica,sans-Serif" font-size="10.00" fill="#000000">encoder_poll_should</text>
<text text-anchor="middle" x="192.5" y="-506" font-family="Helvetica,sans-Serif" font-size="10.00" fill="#000000">_detect_repeated_substring</text>
</a>
</g>
</g>
<!-- Node55&#45;&gt;Node69 -->
<g id="edge22" class="edge">
<title>Node55&#45;&gt;Node69</title>
<path fill="none" stroke="#191970" d="M58.8266,-389.5702C72.4465,-415.049 100.0079,-460.8795 135,-489 139.6668,-492.7503 144.9823,-496.0431 150.4526,-498.9019"/>
<polygon fill="#191970" stroke="#191970" points="61.8746,-387.8453 54.155,-380.5887 55.6645,-391.0755 61.8746,-387.8453"/>
</g>
<!-- Node71 -->
<g id="node17" class="node">
<title>Node71</title>
<g id="a_node17"><a xlink:href="test__heatshrink__dynamic_8c.html#ab068727669a416029bacc708b2aac5ac" target="_top" xlink:title="encoder_poll_should\l_detect_repeated_substring\l_and_preserve_trailing_literal">
<polygon fill="#ffffff" stroke="#000000" points="135,-438.5 135,-479.5 250,-479.5 250,-438.5 135,-438.5"/>
<text text-anchor="start" x="143" y="-467.5" font-family="Helvetica,sans-Serif" font-size="10.00" fill="#000000">encoder_poll_should</text>
<text text-anchor="start" x="143" y="-456.5" font-family="Helvetica,sans-Serif" font-size="10.00" fill="#000000">_detect_repeated_substring</text>
<text text-anchor="middle" x="192.5" y="-445.5" font-family="Helvetica,sans-Serif" font-size="10.00" fill="#000000">_and_preserve_trailing_literal</text>
</a>
</g>
</g>
<!-- Node55&#45;&gt;Node71 -->
<g id="edge24" class="edge">
<title>Node55&#45;&gt;Node71</title>
<path fill="none" stroke="#191970" d="M70.6754,-386.368C87.7118,-398.4849 112.4458,-415.5271 135,-429 140.3165,-432.1758 146.0026,-435.3718 151.6542,-438.4326"/>
<polygon fill="#191970" stroke="#191970" points="72.6879,-383.5043 62.5204,-380.5256 68.6112,-389.1947 72.6879,-383.5043"/>
</g>
<!-- Node72 -->
<g id="node18" class="node">
<title>Node72</title>
<g id="a_node18"><a xlink:href="test__heatshrink__dynamic_8c.html#aa662e805dae6d002db06dc962e7440f9" target="_top" xlink:title="encoder_poll_should\l_indicate_when_no_input\l_is_provided">
<polygon fill="#ffffff" stroke="#000000" points="141.5,-378.5 141.5,-419.5 243.5,-419.5 243.5,-378.5 141.5,-378.5"/>
<text text-anchor="start" x="149.5" y="-407.5" font-family="Helvetica,sans-Serif" font-size="10.00" fill="#000000">encoder_poll_should</text>
<text text-anchor="start" x="149.5" y="-396.5" font-family="Helvetica,sans-Serif" font-size="10.00" fill="#000000">_indicate_when_no_input</text>
<text text-anchor="middle" x="192.5" y="-385.5" font-family="Helvetica,sans-Serif" font-size="10.00" fill="#000000">_is_provided</text>
</a>
</g>
</g>
<!-- Node55&#45;&gt;Node72 -->
<g id="edge26" class="edge">
<title>Node55&#45;&gt;Node72</title>
<path fill="none" stroke="#191970" d="M108.2771,-382.5088C119.2889,-384.665 130.7167,-386.9026 141.4699,-389.0081"/>
<polygon fill="#191970" stroke="#191970" points="108.7987,-379.0446 98.3125,-380.5577 107.4536,-385.9141 108.7987,-379.0446"/>
</g>
<!-- Node73 -->
<g id="node19" class="node">
<title>Node73</title>
<g id="a_node19"><a xlink:href="test__heatshrink__dynamic_8c.html#ade6da42ddec3e9a2d8fe58597792b843" target="_top" xlink:title="encoder_poll_should\l_reject_nulls">
<polygon fill="#ffffff" stroke="#000000" points="149.5,-329 149.5,-359 235.5,-359 235.5,-329 149.5,-329"/>
<text text-anchor="start" x="157.5" y="-347" font-family="Helvetica,sans-Serif" font-size="10.00" fill="#000000">encoder_poll_should</text>
<text text-anchor="middle" x="192.5" y="-336" font-family="Helvetica,sans-Serif" font-size="10.00" fill="#000000">_reject_nulls</text>
</a>
</g>
</g>
<!-- Node55&#45;&gt;Node73 -->
<g id="edge28" class="edge">
<title>Node55&#45;&gt;Node73</title>
<path fill="none" stroke="#191970" d="M109.2182,-359.7245C122.6196,-357.1942 136.5889,-354.5566 149.1723,-352.1808"/>
<polygon fill="#191970" stroke="#191970" points="108.2901,-356.3378 99.1131,-361.6325 109.5889,-363.2163 108.2901,-356.3378"/>
</g>
<!-- Node74 -->
<g id="node20" class="node">
<title>Node74</title>
<g id="a_node20"><a xlink:href="test__heatshrink__dynamic_8c.html#a5339595930b85317e810fcf251b86351" target="_top" xlink:title="encoder_should_emit\l_data_without_repetitions\l_as_literal_sequence">
<polygon fill="#ffffff" stroke="#000000" points="141.5,-268.5 141.5,-309.5 243.5,-309.5 243.5,-268.5 141.5,-268.5"/>
<text text-anchor="start" x="149.5" y="-297.5" font-family="Helvetica,sans-Serif" font-size="10.00" fill="#000000">encoder_should_emit</text>
<text text-anchor="start" x="149.5" y="-286.5" font-family="Helvetica,sans-Serif" font-size="10.00" fill="#000000">_data_without_repetitions</text>
<text text-anchor="middle" x="192.5" y="-275.5" font-family="Helvetica,sans-Serif" font-size="10.00" fill="#000000">_as_literal_sequence</text>
</a>
</g>
</g>
<!-- Node55&#45;&gt;Node74 -->
<g id="edge30" class="edge">
<title>Node55&#45;&gt;Node74</title>
<path fill="none" stroke="#191970" d="M73.8896,-356.0693C90.9046,-345.7476 114.1991,-331.8036 135,-320 141.0168,-316.5857 147.4309,-313.0385 153.7114,-309.6154"/>
<polygon fill="#191970" stroke="#191970" points="71.8619,-353.2061 65.1386,-361.3944 75.5007,-359.186 71.8619,-353.2061"/>
</g>
<!-- Node75 -->
<g id="node21" class="node">
<title>Node75</title>
<g id="a_node21"><a xlink:href="test__heatshrink__dynamic_8c.html#ae27157a664552fa0744d095239ee0d88" target="_top" xlink:title="encoder_should_emit\l_series_of_same_byte\l_as_literal_then_backref">
<polygon fill="#ffffff" stroke="#000000" points="143.5,-208.5 143.5,-249.5 241.5,-249.5 241.5,-208.5 143.5,-208.5"/>
<text text-anchor="start" x="151.5" y="-237.5" font-family="Helvetica,sans-Serif" font-size="10.00" fill="#000000">encoder_should_emit</text>
<text text-anchor="start" x="151.5" y="-226.5" font-family="Helvetica,sans-Serif" font-size="10.00" fill="#000000">_series_of_same_byte</text>
<text text-anchor="middle" x="192.5" y="-215.5" font-family="Helvetica,sans-Serif" font-size="10.00" fill="#000000">_as_literal_then_backref</text>
</a>
</g>
</g>
<!-- Node55&#45;&gt;Node75 -->
<g id="edge32" class="edge">
<title>Node55&#45;&gt;Node75</title>
<path fill="none" stroke="#191970" d="M59.9511,-352.6988C74.3541,-328.7393 102.271,-286.5579 135,-259 139.0481,-255.5915 143.548,-252.4233 148.1972,-249.5221"/>
<polygon fill="#191970" stroke="#191970" points="56.8405,-351.0839 54.7903,-361.4784 62.8752,-354.6312 56.8405,-351.0839"/>
</g>
<!-- Node76 -->
<g id="node22" class="node">
<title>Node76</title>
<g id="a_node22"><a xlink:href="test__heatshrink__dynamic_8c.html#a1c4dab770a7df0935018c3a685f5b1ff" target="_top" xlink:title="encoder_sink_should\l_accept_input_when_it\l_will_fit">
<polygon fill="#ffffff" stroke="#000000" points="146,-148.5 146,-189.5 239,-189.5 239,-148.5 146,-148.5"/>
<text text-anchor="start" x="154" y="-177.5" font-family="Helvetica,sans-Serif" font-size="10.00" fill="#000000">encoder_sink_should</text>
<text text-anchor="start" x="154" y="-166.5" font-family="Helvetica,sans-Serif" font-size="10.00" fill="#000000">_accept_input_when_it</text>
<text text-anchor="middle" x="192.5" y="-155.5" font-family="Helvetica,sans-Serif" font-size="10.00" fill="#000000">_will_fit</text>
</a>
</g>
</g>
<!-- Node55&#45;&gt;Node76 -->
<g id="edge34" class="edge">
<title>Node55&#45;&gt;Node76</title>
<path fill="none" stroke="#191970" d="M54.8554,-351.3404C65.1662,-316.6816 90.7572,-244.1171 135,-199 138.3899,-195.5431 142.2633,-192.4011 146.3621,-189.5657"/>
<polygon fill="#191970" stroke="#191970" points="51.4265,-350.6015 52.0404,-361.1785 58.1564,-352.5272 51.4265,-350.6015"/>
</g>
<!-- Node77 -->
<g id="node23" class="node">
<title>Node77</title>
<g id="a_node23"><a xlink:href="test__heatshrink__dynamic_8c.html#a73ee2ec6f21d5e0ce0e34902a1aebccb" target="_top" xlink:title="encoder_sink_should\l_accept_partial_input\l_when_some_will_fit">
<polygon fill="#ffffff" stroke="#000000" points="148.5,-88.5 148.5,-129.5 236.5,-129.5 236.5,-88.5 148.5,-88.5"/>
<text text-anchor="start" x="156.5" y="-117.5" font-family="Helvetica,sans-Serif" font-size="10.00" fill="#000000">encoder_sink_should</text>
<text text-anchor="start" x="156.5" y="-106.5" font-family="Helvetica,sans-Serif" font-size="10.00" fill="#000000">_accept_partial_input</text>
<text text-anchor="middle" x="192.5" y="-95.5" font-family="Helvetica,sans-Serif" font-size="10.00" fill="#000000">_when_some_will_fit</text>
</a>
</g>
</g>
<!-- Node55&#45;&gt;Node77 -->
<g id="edge36" class="edge">
<title>Node55&#45;&gt;Node77</title>
<path fill="none" stroke="#191970" d="M51.9182,-351.2861C58.169,-307.9594 78.5209,-203.2009 135,-139 138.7929,-134.6885 143.3567,-130.9042 148.2336,-127.6082"/>
<polygon fill="#191970" stroke="#191970" points="48.428,-350.9797 50.5646,-361.3569 55.3656,-351.9123 48.428,-350.9797"/>
</g>
<!-- Node78 -->
<g id="node24" class="node">
<title>Node78</title>
<g id="a_node24"><a xlink:href="test__heatshrink__dynamic_8c.html#a9b30a495760400a59637e7d708e63ae0" target="_top" xlink:title="encoder_sink_should\l_reject_nulls">
<polygon fill="#ffffff" stroke="#000000" points="149,-39 149,-69 236,-69 236,-39 149,-39"/>
<text text-anchor="start" x="157" y="-57" font-family="Helvetica,sans-Serif" font-size="10.00" fill="#000000">encoder_sink_should</text>
<text text-anchor="middle" x="192.5" y="-46" font-family="Helvetica,sans-Serif" font-size="10.00" fill="#000000">_reject_nulls</text>
</a>
</g>
</g>
<!-- Node55&#45;&gt;Node78 -->
<g id="edge38" class="edge">
<title>Node55&#45;&gt;Node78</title>
<path fill="none" stroke="#191970" d="M53.0173,-351.3178C63.8259,-292.7199 98.0673,-120.8758 135,-79 138.8881,-74.5915 143.6943,-70.9305 148.8584,-67.8978"/>
<polygon fill="#191970" stroke="#191970" points="49.5195,-350.9905 51.1741,-361.4554 56.4066,-352.2428 49.5195,-350.9905"/>
</g>
<!-- Node79 -->
<g id="node25" class="node">
<title>Node79</title>
<g id="a_node25"><a xlink:href="test__heatshrink__dynamic_8c.html#a6627d0e00f7e636ae9294cc6255c7ffd" target="_top" xlink:title="gen">
<polygon fill="#ffffff" stroke="#000000" points="178,-.5 178,-19.5 207,-19.5 207,-.5 178,-.5"/>
<text text-anchor="middle" x="192.5" y="-7.5" font-family="Helvetica,sans-Serif" font-size="10.00" fill="#000000">gen</text>
</a>
</g>
</g>
<!-- Node55&#45;&gt;Node79 -->
<g id="edge40" class="edge">
<title>Node55&#45;&gt;Node79</title>
<path fill="none" stroke="#191970" d="M51.9219,-351.2816C60.3307,-285.836 90.2164,-77.2343 135,-29 146.0879,-17.0578 164.8281,-12.6116 177.8894,-10.9621"/>
<polygon fill="#191970" stroke="#191970" points="48.4176,-351.0971 50.641,-361.456 55.3628,-351.9716 48.4176,-351.0971"/>
</g>
<!-- Node57 -->
<g id="node3" class="node">
<title>Node57</title>
<g id="a_node3"><a xlink:href="test__heatshrink__dynamic_8c.html#a9d63746ee6a963338d09b8a19da82529" target="_top" xlink:title="data_without_duplication\l_should_match">
<polygon fill="#ffffff" stroke="#000000" points="307,-986 307,-1016 406,-1016 406,-986 307,-986"/>
<text text-anchor="start" x="315" y="-1004" font-family="Helvetica,sans-Serif" font-size="10.00" fill="#000000">data_without_duplication</text>
<text text-anchor="middle" x="356.5" y="-993" font-family="Helvetica,sans-Serif" font-size="10.00" fill="#000000">_should_match</text>
</a>
</g>
</g>
<!-- Node56&#45;&gt;Node57 -->
<g id="edge2" class="edge">
<title>Node56&#45;&gt;Node57</title>
<path fill="none" stroke="#191970" d="M200.1962,-834.094C212.5623,-870.3873 240.2236,-937.3971 286,-976 292.0558,-981.1068 299.2285,-985.1994 306.642,-988.4711"/>
<polygon fill="#191970" stroke="#191970" points="203.4252,-832.7088 196.9785,-824.301 196.7749,-834.8939 203.4252,-832.7088"/>
</g>
<!-- Node59 -->
<g id="node5" class="node">
<title>Node59</title>
<g id="a_node5"><a xlink:href="test__heatshrink__dynamic_8c.html#ae9d1425d6c89a652b9df2b4ddc7ac2a2" target="_top" xlink:title="data_with_simple_repetition\l_should_compress_and_decompress\l_properly">
<polygon fill="#ffffff" stroke="#000000" points="286,-925.5 286,-966.5 427,-966.5 427,-925.5 286,-925.5"/>
<text text-anchor="start" x="294" y="-954.5" font-family="Helvetica,sans-Serif" font-size="10.00" fill="#000000">data_with_simple_repetition</text>
<text text-anchor="start" x="294" y="-943.5" font-family="Helvetica,sans-Serif" font-size="10.00" fill="#000000">_should_compress_and_decompress</text>
<text text-anchor="middle" x="356.5" y="-932.5" font-family="Helvetica,sans-Serif" font-size="10.00" fill="#000000">_properly</text>
</a>
</g>
</g>
<!-- Node56&#45;&gt;Node59 -->
<g id="edge4" class="edge">
<title>Node56&#45;&gt;Node59</title>
<path fill="none" stroke="#191970" d="M208.1683,-832.4663C225.0193,-856.1997 253.7715,-892.6262 286,-916 290.7379,-919.4362 295.9297,-922.5774 301.2796,-925.4235"/>
<polygon fill="#191970" stroke="#191970" points="210.8941,-830.2557 202.3103,-824.0454 205.1478,-834.2532 210.8941,-830.2557"/>
</g>
<!-- Node60 -->
<g id="node6" class="node">
<title>Node60</title>
<g id="a_node6"><a xlink:href="test__heatshrink__dynamic_8c.html#a60c0e0c5bbb9715c7932ee82e706752d" target="_top" xlink:title="pseudorandom_data_should\l_match">
<polygon fill="#ffffff" stroke="#000000" points="300.5,-876 300.5,-906 412.5,-906 412.5,-876 300.5,-876"/>
<text text-anchor="start" x="308.5" y="-894" font-family="Helvetica,sans-Serif" font-size="10.00" fill="#000000">pseudorandom_data_should</text>
<text text-anchor="middle" x="356.5" y="-883" font-family="Helvetica,sans-Serif" font-size="10.00" fill="#000000">_match</text>
</a>
</g>
</g>
<!-- Node56&#45;&gt;Node60 -->
<g id="edge6" class="edge">
<title>Node56&#45;&gt;Node60</title>
<path fill="none" stroke="#191970" d="M223.2392,-829.9636C241.0593,-841.5428 264.2182,-855.6356 286,-866 293.505,-869.5711 301.6637,-872.9191 309.6803,-875.9324"/>
<polygon fill="#191970" stroke="#191970" points="224.7194,-826.7475 214.4427,-824.1705 220.8693,-832.5937 224.7194,-826.7475"/>
</g>
<!-- Node61 -->
<g id="node7" class="node">
<title>Node61</title>
<g id="a_node7"><a xlink:href="test__heatshrink__dynamic_8c.html#a20e1a72bba941f0c602b93b53d32d5db" target="_top" xlink:title="small_input_buffer\l_should_not_impact_decoder\l_correctness">
<polygon fill="#ffffff" stroke="#000000" points="299,-815.5 299,-856.5 414,-856.5 414,-815.5 299,-815.5"/>
<text text-anchor="start" x="307" y="-844.5" font-family="Helvetica,sans-Serif" font-size="10.00" fill="#000000">small_input_buffer</text>
<text text-anchor="start" x="307" y="-833.5" font-family="Helvetica,sans-Serif" font-size="10.00" fill="#000000">_should_not_impact_decoder</text>
<text text-anchor="middle" x="356.5" y="-822.5" font-family="Helvetica,sans-Serif" font-size="10.00" fill="#000000">_correctness</text>
</a>
</g>
</g>
<!-- Node56&#45;&gt;Node61 -->
<g id="edge8" class="edge">
<title>Node56&#45;&gt;Node61</title>
<path fill="none" stroke="#191970" d="M250.1283,-818.4876C265.9743,-821.0964 283.1559,-823.9251 298.995,-826.5327"/>
<polygon fill="#191970" stroke="#191970" points="250.3714,-814.9806 239.9356,-816.8095 249.2342,-821.8876 250.3714,-814.9806"/>
</g>
<!-- Node62 -->
<g id="node8" class="node">
<title>Node62</title>
<g id="a_node8"><a xlink:href="test__heatshrink__dynamic_8c.html#a462faeb904a3de1b1e009a04f7d171d8" target="_top" xlink:title="regression_backreference\l_counters_should_not_roll_over">
<polygon fill="#ffffff" stroke="#000000" points="295,-766 295,-796 418,-796 418,-766 295,-766"/>
<text text-anchor="start" x="303" y="-784" font-family="Helvetica,sans-Serif" font-size="10.00" fill="#000000">regression_backreference</text>
<text text-anchor="middle" x="356.5" y="-773" font-family="Helvetica,sans-Serif" font-size="10.00" fill="#000000">_counters_should_not_roll_over</text>
</a>
</g>
</g>
<!-- Node56&#45;&gt;Node62 -->
<g id="edge10" class="edge">
<title>Node56&#45;&gt;Node62</title>
<path fill="none" stroke="#191970" d="M249.8011,-799.2169C264.3523,-796.7325 280.0481,-794.0528 294.8071,-791.5329"/>
<polygon fill="#191970" stroke="#191970" points="249.2039,-795.7681 239.9356,-800.9012 250.382,-802.6683 249.2039,-795.7681"/>
</g>
<!-- Node63 -->
<g id="node9" class="node">
<title>Node63</title>
<g id="a_node9"><a xlink:href="test__heatshrink__dynamic_8c.html#a2ed8ea21768d114fa96b07eb58475663" target="_top" xlink:title="regression_index_fail">
<polygon fill="#ffffff" stroke="#000000" points="313,-727.5 313,-746.5 400,-746.5 400,-727.5 313,-727.5"/>
<text text-anchor="middle" x="356.5" y="-734.5" font-family="Helvetica,sans-Serif" font-size="10.00" fill="#000000">regression_index_fail</text>
</a>
</g>
</g>
<!-- Node56&#45;&gt;Node63 -->
<g id="edge12" class="edge">
<title>Node56&#45;&gt;Node63</title>
<path fill="none" stroke="#191970" d="M224.6874,-788.6663C242.3037,-778.1687 264.8048,-765.7617 286,-757 295.7588,-752.9659 306.6004,-749.4453 316.7969,-746.5293"/>
<polygon fill="#191970" stroke="#191970" points="222.6962,-785.7802 215.9532,-793.9523 226.3206,-791.7689 222.6962,-785.7802"/>
</g>
<!-- Node64 -->
<g id="node10" class="node">
<title>Node64</title>
<g id="a_node10"><a xlink:href="test__heatshrink__dynamic_8c.html#a1bfe72da903d55a8610433a4f2a60d43" target="_top" xlink:title="sixty_four_k">
<polygon fill="#ffffff" stroke="#000000" points="328,-689.5 328,-708.5 385,-708.5 385,-689.5 328,-689.5"/>
<text text-anchor="middle" x="356.5" y="-696.5" font-family="Helvetica,sans-Serif" font-size="10.00" fill="#000000">sixty_four_k</text>
</a>
</g>
</g>
<!-- Node56&#45;&gt;Node64 -->
<g id="edge14" class="edge">
<title>Node56&#45;&gt;Node64</title>
<path fill="none" stroke="#191970" d="M210.5337,-785.669C227.7602,-764.9468 255.5497,-735.3357 286,-718 298.7787,-710.7249 314.4519,-706.1418 327.7728,-703.3047"/>
<polygon fill="#191970" stroke="#191970" points="207.6216,-783.703 204.0357,-793.6726 213.056,-788.1152 207.6216,-783.703"/>
</g>
<!-- Node58 -->
<g id="node4" class="node">
<title>Node58</title>
<g id="a_node4"><a xlink:href="test__heatshrink__dynamic_8c.html#a2f157eb23cb17a496326c14e12933b3b" target="_top" xlink:title="SUITE">
<polygon fill="#ffffff" stroke="#000000" points="463,-771.5 463,-790.5 502,-790.5 502,-771.5 463,-771.5"/>
<text text-anchor="middle" x="482.5" y="-778.5" font-family="Helvetica,sans-Serif" font-size="10.00" fill="#000000">SUITE</text>
</a>
</g>
</g>
<!-- Node57&#45;&gt;Node58 -->
<g id="edge3" class="edge">
<title>Node57&#45;&gt;Node58</title>
<path fill="none" stroke="#191970" d="M414.9141,-985.6501C419.3616,-982.9395 423.4801,-979.7508 427,-976 453.2545,-948.0233 475.0406,-826.2885 480.9299,-790.7649"/>
<polygon fill="#191970" stroke="#191970" points="413.2676,-982.5614 406.0267,-990.2957 416.5104,-988.765 413.2676,-982.5614"/>
</g>
<!-- Node59&#45;&gt;Node58 -->
<g id="edge5" class="edge">
<title>Node59&#45;&gt;Node58</title>
<path fill="none" stroke="#191970" d="M423.6253,-919.1708C424.7921,-918.1507 425.9192,-917.0942 427,-916 463.5072,-879.042 477.1352,-814.7057 481.1163,-790.5385"/>
<polygon fill="#191970" stroke="#191970" points="421.2752,-916.5601 415.4141,-925.3861 425.4999,-922.1414 421.2752,-916.5601"/>
</g>
<!-- Node60&#45;&gt;Node58 -->
<g id="edge7" class="edge">
<title>Node60&#45;&gt;Node58</title>
<path fill="none" stroke="#191970" d="M419.7303,-871.0544C422.2661,-869.4888 424.7035,-867.8066 427,-866 453.4566,-845.1871 471.3294,-808.1152 478.6998,-790.6314"/>
<polygon fill="#191970" stroke="#191970" points="417.8876,-868.0728 410.7912,-875.94 421.2447,-874.2153 417.8876,-868.0728"/>
</g>
<!-- Node61&#45;&gt;Node58 -->
<g id="edge9" class="edge">
<title>Node61&#45;&gt;Node58</title>
<path fill="none" stroke="#191970" d="M414.4321,-811.4629C418.6896,-809.6244 422.9144,-807.7892 427,-806 438.9067,-800.7856 452.184,-794.8107 462.7662,-790.0098"/>
<polygon fill="#191970" stroke="#191970" points="412.9044,-808.3098 405.1008,-815.4761 415.6701,-814.7403 412.9044,-808.3098"/>
</g>
<!-- Node62&#45;&gt;Node58 -->
<g id="edge11" class="edge">
<title>Node62&#45;&gt;Node58</title>
<path fill="none" stroke="#191970" d="M428.2787,-781C440.9865,-781 453.2084,-781 462.8212,-781"/>
<polygon fill="#191970" stroke="#191970" points="428.0236,-777.5001 418.0236,-781 428.0235,-784.5001 428.0236,-777.5001"/>
</g>
<!-- Node63&#45;&gt;Node58 -->
<g id="edge13" class="edge">
<title>Node63&#45;&gt;Node58</title>
<path fill="none" stroke="#191970" d="M403.5777,-749.4226C411.4545,-751.7669 419.5003,-754.3278 427,-757 439.1632,-761.3339 452.4505,-767.0436 462.9738,-771.8065"/>
<polygon fill="#191970" stroke="#191970" points="404.3235,-745.9949 393.7447,-746.5769 402.3775,-752.719 404.3235,-745.9949"/>
</g>
<!-- Node64&#45;&gt;Node58 -->
<g id="edge15" class="edge">
<title>Node64&#45;&gt;Node58</title>
<path fill="none" stroke="#191970" d="M394.9163,-705.0515C405.8275,-707.8824 417.3548,-712.0075 427,-718 449.2864,-731.8463 467.6709,-757.3675 476.6225,-771.3003"/>
<polygon fill="#191970" stroke="#191970" points="395.6712,-701.6338 385.1407,-702.7991 394.0995,-708.4551 395.6712,-701.6338"/>
</g>
<!-- Node65&#45;&gt;Node58 -->
<g id="edge17" class="edge">
<title>Node65&#45;&gt;Node58</title>
<path fill="none" stroke="#191970" d="M422.8774,-676.5391C424.3002,-677.6505 425.6775,-678.8037 427,-680 456.0823,-706.3066 473.1654,-751.5356 479.5756,-771.2916"/>
<polygon fill="#191970" stroke="#191970" points="424.5163,-673.4177 414.297,-670.6219 420.5424,-679.1803 424.5163,-673.4177"/>
</g>
<!-- Node66&#45;&gt;Node58 -->
<g id="edge19" class="edge">
<title>Node66&#45;&gt;Node58</title>
<path fill="none" stroke="#191970" d="M423.2676,-616.3396C424.568,-617.5095 425.8154,-618.7289 427,-620 469.1297,-665.2033 479.4613,-743.9077 481.8349,-771.2833"/>
<polygon fill="#191970" stroke="#191970" points="425.3523,-613.5273 415.3038,-610.169 421.0649,-619.0607 425.3523,-613.5273"/>
</g>
<!-- Node68 -->
<g id="node14" class="node">
<title>Node68</title>
<g id="a_node14"><a xlink:href="heatshrink_8c.html#a3c04138a5bfe5d72780bb7e82a18e627" target="_top" xlink:title="main">
<polygon fill="#ffffff" stroke="#000000" points="340,-531.5 340,-550.5 373,-550.5 373,-531.5 340,-531.5"/>
<text text-anchor="middle" x="356.5" y="-538.5" font-family="Helvetica,sans-Serif" font-size="10.00" fill="#000000">main</text>
</a>
</g>
</g>
<!-- Node67&#45;&gt;Node68 -->
<g id="edge21" class="edge">
<title>Node67&#45;&gt;Node68</title>
<path fill="none" stroke="#191970" d="M223.285,-554.8089C257.8132,-551.2297 312.5452,-545.5563 339.8556,-542.7253"/>
<polygon fill="#191970" stroke="#191970" points="222.8565,-551.3344 213.2707,-555.8469 223.5783,-558.2971 222.8565,-551.3344"/>
</g>
<!-- Node70 -->
<g id="node16" class="node">
<title>Node70</title>
<g id="a_node16"><a xlink:href="test__heatshrink__dynamic_8c.html#ac4a70b7ac22f00448c1d17d2b29a1359" target="_top" xlink:title="SUITE">
<polygon fill="#ffffff" stroke="#000000" points="337,-279.5 337,-298.5 376,-298.5 376,-279.5 337,-279.5"/>
<text text-anchor="middle" x="356.5" y="-286.5" font-family="Helvetica,sans-Serif" font-size="10.00" fill="#000000">SUITE</text>
</a>
</g>
</g>
<!-- Node69&#45;&gt;Node70 -->
<g id="edge23" class="edge">
<title>Node69&#45;&gt;Node70</title>
<path fill="none" stroke="#191970" d="M244.6245,-493.4231C246.509,-492.0335 248.3109,-490.5604 250,-489 311.8364,-431.8758 344.7114,-330.4978 353.834,-298.7708"/>
<polygon fill="#191970" stroke="#191970" points="242.4602,-490.6528 235.9258,-498.9925 246.2348,-496.548 242.4602,-490.6528"/>
</g>
<!-- Node71&#45;&gt;Node70 -->
<g id="edge25" class="edge">
<title>Node71&#45;&gt;Node70</title>
<path fill="none" stroke="#191970" d="M245.274,-432.7351C246.9024,-431.525 248.483,-430.2795 250,-429 297.8553,-388.6363 337.3605,-323.1425 351.2016,-298.6493"/>
<polygon fill="#191970" stroke="#191970" points="243.1145,-429.9709 236.8085,-438.4847 247.0475,-435.7616 243.1145,-429.9709"/>
</g>
<!-- Node72&#45;&gt;Node70 -->
<g id="edge27" class="edge">
<title>Node72&#45;&gt;Node70</title>
<path fill="none" stroke="#191970" d="M242.5517,-373.525C245.0929,-372.033 247.5891,-370.5201 250,-369 286.3837,-346.0588 326.118,-314.2226 345.1273,-298.5274"/>
<polygon fill="#191970" stroke="#191970" points="240.7631,-370.5157 233.7973,-378.4988 244.221,-376.602 240.7631,-370.5157"/>
</g>
<!-- Node73&#45;&gt;Node70 -->
<g id="edge29" class="edge">
<title>Node73&#45;&gt;Node70</title>
<path fill="none" stroke="#191970" d="M245.0856,-326.3646C276.449,-315.8464 314.4305,-303.1087 336.967,-295.5507"/>
<polygon fill="#191970" stroke="#191970" points="243.9572,-323.0513 235.5891,-329.5494 246.183,-329.6881 243.9572,-323.0513"/>
</g>
<!-- Node74&#45;&gt;Node70 -->
<g id="edge31" class="edge">
<title>Node74&#45;&gt;Node70</title>
<path fill="none" stroke="#191970" d="M254.1358,-289C283.4725,-289 316.5218,-289 336.9315,-289"/>
<polygon fill="#191970" stroke="#191970" points="253.9407,-285.5001 243.9407,-289 253.9406,-292.5001 253.9407,-285.5001"/>
</g>
<!-- Node75&#45;&gt;Node70 -->
<g id="edge33" class="edge">
<title>Node75&#45;&gt;Node70</title>
<path fill="none" stroke="#191970" d="M251.2523,-250.4947C281.215,-261.4567 315.692,-274.0703 336.7866,-281.7878"/>
<polygon fill="#191970" stroke="#191970" points="252.2992,-247.1509 241.7054,-247.002 249.8941,-253.7248 252.2992,-247.1509"/>
</g>
<!-- Node76&#45;&gt;Node70 -->
<g id="edge35" class="edge">
<title>Node76&#45;&gt;Node70</title>
<path fill="none" stroke="#191970" d="M243.4218,-194.7753C245.6704,-196.1612 247.8733,-197.5722 250,-199 288.1864,-224.6374 328.3546,-261.7951 346.5281,-279.2505"/>
<polygon fill="#191970" stroke="#191970" points="244.979,-191.6306 234.586,-189.5722 241.427,-197.6624 244.979,-191.6306"/>
</g>
<!-- Node77&#45;&gt;Node70 -->
<g id="edge37" class="edge">
<title>Node77&#45;&gt;Node70</title>
<path fill="none" stroke="#191970" d="M245.2263,-135.122C246.8755,-136.3749 248.4725,-137.668 250,-139 299.8276,-182.4506 338.7069,-253.707 351.7648,-279.393"/>
<polygon fill="#191970" stroke="#191970" points="246.8468,-131.9882 236.6263,-129.1966 242.8752,-137.7525 246.8468,-131.9882"/>
</g>
<!-- Node78&#45;&gt;Node70 -->
<g id="edge39" class="edge">
<title>Node78&#45;&gt;Node70</title>
<path fill="none" stroke="#191970" d="M244.772,-74.6155C246.6065,-75.993 248.3587,-77.4532 250,-79 313.9598,-139.2801 345.6056,-246.4293 354.1015,-279.2044"/>
<polygon fill="#191970" stroke="#191970" points="246.5811,-71.6169 236.2911,-69.0939 242.7618,-77.4832 246.5811,-71.6169"/>
</g>
<!-- Node80 -->
<g id="node26" class="node">
<title>Node80</title>
<g id="a_node26"><a xlink:href="test__heatshrink__dynamic_8c.html#adc66afa12a5eaae0cd12d5cc497f0f67" target="_top" xlink:title="SUITE">
<polygon fill="#ffffff" stroke="#000000" points="337,-.5 337,-19.5 376,-19.5 376,-.5 337,-.5"/>
<text text-anchor="middle" x="356.5" y="-7.5" font-family="Helvetica,sans-Serif" font-size="10.00" fill="#000000">SUITE</text>
</a>
</g>
</g>
<!-- Node79&#45;&gt;Node80 -->
<g id="edge41" class="edge">
<title>Node79&#45;&gt;Node80</title>
<path fill="none" stroke="#191970" d="M217.1445,-10C249.8808,-10 307.0484,-10 336.9733,-10"/>
<polygon fill="#191970" stroke="#191970" points="217.0539,-6.5001 207.0539,-10 217.0539,-13.5001 217.0539,-6.5001"/>
</g>
</g>
</svg>
