<?xml version="1.0" encoding="UTF-8" standalone="no"?>
<!DOCTYPE svg PUBLIC "-//W3C//DTD SVG 1.1//EN"
 "http://www.w3.org/Graphics/SVG/1.1/DTD/svg11.dtd">
<!-- Generated by graphviz version 2.40.1 (20161225.0304)
 -->
<!-- Title: heatshrink_encoder_reset Pages: 1 -->
<svg width="623pt" height="1096pt"
 viewBox="0.00 0.00 623.00 1096.00" xmlns="http://www.w3.org/2000/svg" xmlns:xlink="http://www.w3.org/1999/xlink">
<g id="graph0" class="graph" transform="scale(1 1) rotate(0) translate(4 1092)">
<title>heatshrink_encoder_reset</title>
<polygon fill="#ffffff" stroke="transparent" points="-4,4 -4,-1092 619,-1092 619,4 -4,4"/>
<!-- Node130 -->
<g id="node1" class="node">
<title>Node130</title>
<polygon fill="#bfbfbf" stroke="#000000" points="0,-438 0,-468 82,-468 82,-438 0,-438"/>
<text text-anchor="start" x="8" y="-456" font-family="Helvetica,sans-Serif" font-size="10.00" fill="#000000">heatshrink_encoder</text>
<text text-anchor="middle" x="41" y="-445" font-family="Helvetica,sans-Serif" font-size="10.00" fill="#000000">_reset</text>
</g>
<!-- Node131 -->
<g id="node2" class="node">
<title>Node131</title>
<g id="a_node2"><a xlink:href="test__heatshrink__static_8c.html#ad91c71c6eff9ca114f5aa677545287d6" target="_top" xlink:title="compress_and_expand\l_and_check">
<polygon fill="#ffffff" stroke="#000000" points="118,-763 118,-793 212,-793 212,-763 118,-763"/>
<text text-anchor="start" x="126" y="-781" font-family="Helvetica,sans-Serif" font-size="10.00" fill="#000000">compress_and_expand</text>
<text text-anchor="middle" x="165" y="-770" font-family="Helvetica,sans-Serif" font-size="10.00" fill="#000000">_and_check</text>
</a>
</g>
</g>
<!-- Node130&#45;&gt;Node131 -->
<g id="edge1" class="edge">
<title>Node130&#45;&gt;Node131</title>
<path fill="none" stroke="#191970" d="M50.5114,-477.9291C74.9656,-542.0227 139.4872,-711.1316 159.1981,-762.7935"/>
<polygon fill="#191970" stroke="#191970" points="53.6493,-476.3349 46.8145,-468.2395 47.1092,-478.8303 53.6493,-476.3349"/>
</g>
<!-- Node134 -->
<g id="node5" class="node">
<title>Node134</title>
<g id="a_node5"><a xlink:href="heatshrink__encoder_8h.html#a2e8cab0e929cb612c25e434a16b6f6c0" target="_top" xlink:title="heatshrink_encoder\l_alloc">
<polygon fill="#ffffff" stroke="#000000" points="124,-414 124,-444 206,-444 206,-414 124,-414"/>
<text text-anchor="start" x="132" y="-432" font-family="Helvetica,sans-Serif" font-size="10.00" fill="#000000">heatshrink_encoder</text>
<text text-anchor="middle" x="165" y="-421" font-family="Helvetica,sans-Serif" font-size="10.00" fill="#000000">_alloc</text>
</a>
</g>
</g>
<!-- Node130&#45;&gt;Node134 -->
<g id="edge4" class="edge">
<title>Node130&#45;&gt;Node134</title>
<path fill="none" stroke="#191970" d="M92.2305,-443.0844C102.7787,-441.0428 113.756,-438.9182 123.8901,-436.9568"/>
<polygon fill="#191970" stroke="#191970" points="91.4429,-439.6718 82.2902,-445.0083 92.7731,-446.5443 91.4429,-439.6718"/>
</g>
<!-- Node132 -->
<g id="node3" class="node">
<title>Node132</title>
<g id="a_node3"><a xlink:href="test__heatshrink__static_8c.html#a86042f6d987dc3b4e874c55b994eca3d" target="_top" xlink:title="pseudorandom_data_should\l_match">
<polygon fill="#ffffff" stroke="#000000" points="249.5,-983 249.5,-1013 361.5,-1013 361.5,-983 249.5,-983"/>
<text text-anchor="start" x="257.5" y="-1001" font-family="Helvetica,sans-Serif" font-size="10.00" fill="#000000">pseudorandom_data_should</text>
<text text-anchor="middle" x="305.5" y="-990" font-family="Helvetica,sans-Serif" font-size="10.00" fill="#000000">_match</text>
</a>
</g>
</g>
<!-- Node131&#45;&gt;Node132 -->
<g id="edge2" class="edge">
<title>Node131&#45;&gt;Node132</title>
<path fill="none" stroke="#191970" d="M180.1454,-801.7152C209.1273,-847.0961 271.6903,-945.0596 295.7753,-982.7727"/>
<polygon fill="#191970" stroke="#191970" points="182.9893,-799.6656 174.6571,-793.1215 177.0898,-803.4333 182.9893,-799.6656"/>
</g>
<!-- Node133 -->
<g id="node4" class="node">
<title>Node133</title>
<g id="a_node4"><a xlink:href="test__heatshrink__static_8c.html#a2f157eb23cb17a496326c14e12933b3b" target="_top" xlink:title="SUITE">
<polygon fill="#ffffff" stroke="#000000" points="450,-1068.5 450,-1087.5 489,-1087.5 489,-1068.5 450,-1068.5"/>
<text text-anchor="middle" x="469.5" y="-1075.5" font-family="Helvetica,sans-Serif" font-size="10.00" fill="#000000">SUITE</text>
</a>
</g>
</g>
<!-- Node132&#45;&gt;Node133 -->
<g id="edge3" class="edge">
<title>Node132&#45;&gt;Node133</title>
<path fill="none" stroke="#191970" d="M333.134,-1019.3641C351.0776,-1032.3709 375.4336,-1048.4573 399,-1059 415.4311,-1066.3506 435.3252,-1071.3925 449.7851,-1074.4253"/>
<polygon fill="#191970" stroke="#191970" points="334.9958,-1016.3881 324.872,-1013.2641 330.838,-1022.0195 334.9958,-1016.3881"/>
</g>
<!-- Node135 -->
<g id="node6" class="node">
<title>Node135</title>
<g id="a_node6"><a xlink:href="test__heatshrink__dynamic_8c.html#ab9096be17a9dc8f301673949558e5bd6" target="_top" xlink:title="compress_and_expand\l_and_check">
<polygon fill="#ffffff" stroke="#000000" points="258.5,-827 258.5,-857 352.5,-857 352.5,-827 258.5,-827"/>
<text text-anchor="start" x="266.5" y="-845" font-family="Helvetica,sans-Serif" font-size="10.00" fill="#000000">compress_and_expand</text>
<text text-anchor="middle" x="305.5" y="-834" font-family="Helvetica,sans-Serif" font-size="10.00" fill="#000000">_and_check</text>
</a>
</g>
</g>
<!-- Node134&#45;&gt;Node135 -->
<g id="edge5" class="edge">
<title>Node134&#45;&gt;Node135</title>
<path fill="none" stroke="#191970" d="M172.0442,-454.0059C185.6214,-501.6556 216.8346,-608.5963 248,-697 264.9271,-745.0153 288.0027,-800.7076 299.0672,-826.9063"/>
<polygon fill="#191970" stroke="#191970" points="175.3715,-452.9101 169.274,-444.2457 168.6375,-454.8214 175.3715,-452.9101"/>
</g>
<!-- Node144 -->
<g id="node15" class="node">
<title>Node144</title>
<g id="a_node15"><a xlink:href="test__heatshrink__dynamic_8c.html#acd64db79d79999a7c5436d35b74a7f40" target="_top" xlink:title="data_with_simple_repetition\l_should_match_with_absurdly\l_tiny_buffers">
<polygon fill="#ffffff" stroke="#000000" points="411,-662.5 411,-703.5 528,-703.5 528,-662.5 411,-662.5"/>
<text text-anchor="start" x="419" y="-691.5" font-family="Helvetica,sans-Serif" font-size="10.00" fill="#000000">data_with_simple_repetition</text>
<text text-anchor="start" x="419" y="-680.5" font-family="Helvetica,sans-Serif" font-size="10.00" fill="#000000">_should_match_with_absurdly</text>
<text text-anchor="middle" x="469.5" y="-669.5" font-family="Helvetica,sans-Serif" font-size="10.00" fill="#000000">_tiny_buffers</text>
</a>
</g>
</g>
<!-- Node134&#45;&gt;Node144 -->
<g id="edge20" class="edge">
<title>Node134&#45;&gt;Node144</title>
<path fill="none" stroke="#191970" d="M166.4278,-454.3204C170.5372,-501.2369 186.4506,-601.4057 248,-651 293.5333,-687.6891 362.0832,-692.2995 410.8502,-689.8685"/>
<polygon fill="#191970" stroke="#191970" points="169.9,-453.8218 165.6496,-444.1169 162.9203,-454.3542 169.9,-453.8218"/>
</g>
<!-- Node145 -->
<g id="node16" class="node">
<title>Node145</title>
<g id="a_node16"><a xlink:href="test__heatshrink__dynamic_8c.html#a9a102029b8375d4050406a2814f390ac" target="_top" xlink:title="data_without_duplication\l_should_match_with_absurdly\l_tiny_buffers">
<polygon fill="#ffffff" stroke="#000000" points="411,-602.5 411,-643.5 528,-643.5 528,-602.5 411,-602.5"/>
<text text-anchor="start" x="419" y="-631.5" font-family="Helvetica,sans-Serif" font-size="10.00" fill="#000000">data_without_duplication</text>
<text text-anchor="start" x="419" y="-620.5" font-family="Helvetica,sans-Serif" font-size="10.00" fill="#000000">_should_match_with_absurdly</text>
<text text-anchor="middle" x="469.5" y="-609.5" font-family="Helvetica,sans-Serif" font-size="10.00" fill="#000000">_tiny_buffers</text>
</a>
</g>
</g>
<!-- Node134&#45;&gt;Node145 -->
<g id="edge22" class="edge">
<title>Node134&#45;&gt;Node145</title>
<path fill="none" stroke="#191970" d="M167.0352,-454.1374C172.0887,-497.8984 189.4224,-587.1155 248,-626 295.7418,-657.6916 362.9446,-651.4759 410.7815,-640.7435"/>
<polygon fill="#191970" stroke="#191970" points="170.5024,-453.6387 165.9973,-444.0494 163.5392,-454.3551 170.5024,-453.6387"/>
</g>
<!-- Node146 -->
<g id="node17" class="node">
<title>Node146</title>
<g id="a_node17"><a xlink:href="heatshrink_8c.html#a37f19023beced8a782d3051bfd7a0bcb" target="_top" xlink:title="encode">
<polygon fill="#ffffff" stroke="#000000" points="285,-597.5 285,-616.5 326,-616.5 326,-597.5 285,-597.5"/>
<text text-anchor="middle" x="305.5" y="-604.5" font-family="Helvetica,sans-Serif" font-size="10.00" fill="#000000">encode</text>
</a>
</g>
</g>
<!-- Node134&#45;&gt;Node146 -->
<g id="edge24" class="edge">
<title>Node134&#45;&gt;Node146</title>
<path fill="none" stroke="#191970" d="M171.5643,-453.9783C181.9951,-488.8816 205.639,-551.9988 248,-588 258.4145,-596.851 273.0795,-601.6123 284.9925,-604.155"/>
<polygon fill="#191970" stroke="#191970" points="174.8583,-452.7667 168.7453,-444.1133 168.1277,-454.6901 174.8583,-452.7667"/>
</g>
<!-- Node148 -->
<g id="node19" class="node">
<title>Node148</title>
<g id="a_node19"><a xlink:href="test__heatshrink__dynamic_8c.html#a1f344a98b6deed4077a36c681d397f91" target="_top" xlink:title="encoder_alloc_should\l_reject_invalid_arguments">
<polygon fill="#ffffff" stroke="#000000" points="253.5,-548 253.5,-578 357.5,-578 357.5,-548 253.5,-548"/>
<text text-anchor="start" x="261.5" y="-566" font-family="Helvetica,sans-Serif" font-size="10.00" fill="#000000">encoder_alloc_should</text>
<text text-anchor="middle" x="305.5" y="-555" font-family="Helvetica,sans-Serif" font-size="10.00" fill="#000000">_reject_invalid_arguments</text>
</a>
</g>
</g>
<!-- Node134&#45;&gt;Node148 -->
<g id="edge26" class="edge">
<title>Node134&#45;&gt;Node148</title>
<path fill="none" stroke="#191970" d="M178.0869,-453.1937C192.4143,-477.7096 217.4645,-515.3061 248,-539 252.3586,-542.382 257.2626,-545.369 262.3218,-547.9842"/>
<polygon fill="#191970" stroke="#191970" points="180.9484,-451.1454 172.9604,-444.1853 174.8646,-454.6076 180.9484,-451.1454"/>
</g>
<!-- Node150 -->
<g id="node21" class="node">
<title>Node150</title>
<g id="a_node21"><a xlink:href="test__heatshrink__dynamic_8c.html#a2d84dd546b011bb6cfc3b1e9a9a5616b" target="_top" xlink:title="encoder_poll_should\l_detect_repeated_substring">
<polygon fill="#ffffff" stroke="#000000" points="251,-499 251,-529 360,-529 360,-499 251,-499"/>
<text text-anchor="start" x="259" y="-517" font-family="Helvetica,sans-Serif" font-size="10.00" fill="#000000">encoder_poll_should</text>
<text text-anchor="middle" x="305.5" y="-506" font-family="Helvetica,sans-Serif" font-size="10.00" fill="#000000">_detect_repeated_substring</text>
</a>
</g>
</g>
<!-- Node134&#45;&gt;Node150 -->
<g id="edge28" class="edge">
<title>Node134&#45;&gt;Node150</title>
<path fill="none" stroke="#191970" d="M191.5777,-450.4765C207.3959,-462.6719 228.1883,-477.7085 248,-489 254.1472,-492.5035 260.8797,-495.8396 267.5039,-498.8675"/>
<polygon fill="#191970" stroke="#191970" points="193.3731,-447.4375 183.3393,-444.0354 189.0615,-452.9521 193.3731,-447.4375"/>
</g>
<!-- Node151 -->
<g id="node22" class="node">
<title>Node151</title>
<g id="a_node22"><a xlink:href="test__heatshrink__dynamic_8c.html#ab068727669a416029bacc708b2aac5ac" target="_top" xlink:title="encoder_poll_should\l_detect_repeated_substring\l_and_preserve_trailing_literal">
<polygon fill="#ffffff" stroke="#000000" points="248,-438.5 248,-479.5 363,-479.5 363,-438.5 248,-438.5"/>
<text text-anchor="start" x="256" y="-467.5" font-family="Helvetica,sans-Serif" font-size="10.00" fill="#000000">encoder_poll_should</text>
<text text-anchor="start" x="256" y="-456.5" font-family="Helvetica,sans-Serif" font-size="10.00" fill="#000000">_detect_repeated_substring</text>
<text text-anchor="middle" x="305.5" y="-445.5" font-family="Helvetica,sans-Serif" font-size="10.00" fill="#000000">_and_preserve_trailing_literal</text>
</a>
</g>
</g>
<!-- Node134&#45;&gt;Node151 -->
<g id="edge30" class="edge">
<title>Node134&#45;&gt;Node151</title>
<path fill="none" stroke="#191970" d="M215.8076,-439.8486C226.2542,-442.0792 237.3234,-444.4427 247.9875,-446.7197"/>
<polygon fill="#191970" stroke="#191970" points="216.5265,-436.4233 206.0161,-437.7579 215.0648,-443.269 216.5265,-436.4233"/>
</g>
<!-- Node152 -->
<g id="node23" class="node">
<title>Node152</title>
<g id="a_node23"><a xlink:href="test__heatshrink__dynamic_8c.html#aa662e805dae6d002db06dc962e7440f9" target="_top" xlink:title="encoder_poll_should\l_indicate_when_no_input\l_is_provided">
<polygon fill="#ffffff" stroke="#000000" points="254.5,-378.5 254.5,-419.5 356.5,-419.5 356.5,-378.5 254.5,-378.5"/>
<text text-anchor="start" x="262.5" y="-407.5" font-family="Helvetica,sans-Serif" font-size="10.00" fill="#000000">encoder_poll_should</text>
<text text-anchor="start" x="262.5" y="-396.5" font-family="Helvetica,sans-Serif" font-size="10.00" fill="#000000">_indicate_when_no_input</text>
<text text-anchor="middle" x="305.5" y="-385.5" font-family="Helvetica,sans-Serif" font-size="10.00" fill="#000000">_is_provided</text>
</a>
</g>
</g>
<!-- Node134&#45;&gt;Node152 -->
<g id="edge32" class="edge">
<title>Node134&#45;&gt;Node152</title>
<path fill="none" stroke="#191970" d="M215.8615,-418.1399C228.42,-415.4584 241.8755,-412.5853 254.4433,-409.9018"/>
<polygon fill="#191970" stroke="#191970" points="215.0648,-414.731 206.0161,-420.2421 216.5265,-421.5767 215.0648,-414.731"/>
</g>
<!-- Node153 -->
<g id="node24" class="node">
<title>Node153</title>
<g id="a_node24"><a xlink:href="test__heatshrink__dynamic_8c.html#ade6da42ddec3e9a2d8fe58597792b843" target="_top" xlink:title="encoder_poll_should\l_reject_nulls">
<polygon fill="#ffffff" stroke="#000000" points="262.5,-329 262.5,-359 348.5,-359 348.5,-329 262.5,-329"/>
<text text-anchor="start" x="270.5" y="-347" font-family="Helvetica,sans-Serif" font-size="10.00" fill="#000000">encoder_poll_should</text>
<text text-anchor="middle" x="305.5" y="-336" font-family="Helvetica,sans-Serif" font-size="10.00" fill="#000000">_reject_nulls</text>
</a>
</g>
</g>
<!-- Node134&#45;&gt;Node153 -->
<g id="edge34" class="edge">
<title>Node134&#45;&gt;Node153</title>
<path fill="none" stroke="#191970" d="M191.5777,-407.5235C207.3959,-395.3281 228.1883,-380.2915 248,-369 254.1472,-365.4965 260.8797,-362.1604 267.5039,-359.1325"/>
<polygon fill="#191970" stroke="#191970" points="189.0615,-405.0479 183.3393,-413.9646 193.3731,-410.5625 189.0615,-405.0479"/>
</g>
<!-- Node154 -->
<g id="node25" class="node">
<title>Node154</title>
<g id="a_node25"><a xlink:href="test__heatshrink__dynamic_8c.html#a5339595930b85317e810fcf251b86351" target="_top" xlink:title="encoder_should_emit\l_data_without_repetitions\l_as_literal_sequence">
<polygon fill="#ffffff" stroke="#000000" points="254.5,-268.5 254.5,-309.5 356.5,-309.5 356.5,-268.5 254.5,-268.5"/>
<text text-anchor="start" x="262.5" y="-297.5" font-family="Helvetica,sans-Serif" font-size="10.00" fill="#000000">encoder_should_emit</text>
<text text-anchor="start" x="262.5" y="-286.5" font-family="Helvetica,sans-Serif" font-size="10.00" fill="#000000">_data_without_repetitions</text>
<text text-anchor="middle" x="305.5" y="-275.5" font-family="Helvetica,sans-Serif" font-size="10.00" fill="#000000">_as_literal_sequence</text>
</a>
</g>
</g>
<!-- Node134&#45;&gt;Node154 -->
<g id="edge36" class="edge">
<title>Node134&#45;&gt;Node154</title>
<path fill="none" stroke="#191970" d="M178.871,-405.2426C193.6697,-381.4288 218.9492,-344.8303 248,-320 252.3967,-316.242 257.3237,-312.751 262.3952,-309.5698"/>
<polygon fill="#191970" stroke="#191970" points="175.755,-403.6304 173.5474,-413.9927 181.7352,-407.2688 175.755,-403.6304"/>
</g>
<!-- Node155 -->
<g id="node26" class="node">
<title>Node155</title>
<g id="a_node26"><a xlink:href="test__heatshrink__dynamic_8c.html#ae27157a664552fa0744d095239ee0d88" target="_top" xlink:title="encoder_should_emit\l_series_of_same_byte\l_as_literal_then_backref">
<polygon fill="#ffffff" stroke="#000000" points="256.5,-208.5 256.5,-249.5 354.5,-249.5 354.5,-208.5 256.5,-208.5"/>
<text text-anchor="start" x="264.5" y="-237.5" font-family="Helvetica,sans-Serif" font-size="10.00" fill="#000000">encoder_should_emit</text>
<text text-anchor="start" x="264.5" y="-226.5" font-family="Helvetica,sans-Serif" font-size="10.00" fill="#000000">_series_of_same_byte</text>
<text text-anchor="middle" x="305.5" y="-215.5" font-family="Helvetica,sans-Serif" font-size="10.00" fill="#000000">_as_literal_then_backref</text>
</a>
</g>
</g>
<!-- Node134&#45;&gt;Node155 -->
<g id="edge38" class="edge">
<title>Node134&#45;&gt;Node155</title>
<path fill="none" stroke="#191970" d="M171.6599,-404.2731C182.422,-368.3518 206.7101,-301.4071 248,-259 251.3776,-255.531 255.2428,-252.381 259.3365,-249.5407"/>
<polygon fill="#191970" stroke="#191970" points="168.2772,-403.3719 168.8649,-413.9504 175.0023,-405.3143 168.2772,-403.3719"/>
</g>
<!-- Node156 -->
<g id="node27" class="node">
<title>Node156</title>
<g id="a_node27"><a xlink:href="test__heatshrink__dynamic_8c.html#a1c4dab770a7df0935018c3a685f5b1ff" target="_top" xlink:title="encoder_sink_should\l_accept_input_when_it\l_will_fit">
<polygon fill="#ffffff" stroke="#000000" points="259,-148.5 259,-189.5 352,-189.5 352,-148.5 259,-148.5"/>
<text text-anchor="start" x="267" y="-177.5" font-family="Helvetica,sans-Serif" font-size="10.00" fill="#000000">encoder_sink_should</text>
<text text-anchor="start" x="267" y="-166.5" font-family="Helvetica,sans-Serif" font-size="10.00" fill="#000000">_accept_input_when_it</text>
<text text-anchor="middle" x="305.5" y="-155.5" font-family="Helvetica,sans-Serif" font-size="10.00" fill="#000000">_will_fit</text>
</a>
</g>
</g>
<!-- Node134&#45;&gt;Node156 -->
<g id="edge40" class="edge">
<title>Node134&#45;&gt;Node156</title>
<path fill="none" stroke="#191970" d="M167.9992,-403.9804C174.67,-358.2153 194.6025,-260.1136 248,-199 251.1857,-195.354 254.9234,-192.0864 258.9379,-189.173"/>
<polygon fill="#191970" stroke="#191970" points="164.5255,-403.5505 166.6401,-413.9321 171.4611,-404.4977 164.5255,-403.5505"/>
</g>
<!-- Node157 -->
<g id="node28" class="node">
<title>Node157</title>
<g id="a_node28"><a xlink:href="test__heatshrink__dynamic_8c.html#a73ee2ec6f21d5e0ce0e34902a1aebccb" target="_top" xlink:title="encoder_sink_should\l_accept_partial_input\l_when_some_will_fit">
<polygon fill="#ffffff" stroke="#000000" points="261.5,-88.5 261.5,-129.5 349.5,-129.5 349.5,-88.5 261.5,-88.5"/>
<text text-anchor="start" x="269.5" y="-117.5" font-family="Helvetica,sans-Serif" font-size="10.00" fill="#000000">encoder_sink_should</text>
<text text-anchor="start" x="269.5" y="-106.5" font-family="Helvetica,sans-Serif" font-size="10.00" fill="#000000">_accept_partial_input</text>
<text text-anchor="middle" x="305.5" y="-95.5" font-family="Helvetica,sans-Serif" font-size="10.00" fill="#000000">_when_some_will_fit</text>
</a>
</g>
</g>
<!-- Node134&#45;&gt;Node157 -->
<g id="edge42" class="edge">
<title>Node134&#45;&gt;Node157</title>
<path fill="none" stroke="#191970" d="M169.5797,-403.7426C181.3493,-341.0777 214.1154,-180.5328 248,-139 251.7725,-134.376 256.4475,-130.3808 261.4896,-126.9522"/>
<polygon fill="#191970" stroke="#191970" points="166.0736,-403.454 167.6911,-413.9246 172.9562,-404.7306 166.0736,-403.454"/>
</g>
<!-- Node158 -->
<g id="node29" class="node">
<title>Node158</title>
<g id="a_node29"><a xlink:href="test__heatshrink__dynamic_8c.html#a9b30a495760400a59637e7d708e63ae0" target="_top" xlink:title="encoder_sink_should\l_reject_nulls">
<polygon fill="#ffffff" stroke="#000000" points="262,-39 262,-69 349,-69 349,-39 262,-39"/>
<text text-anchor="start" x="270" y="-57" font-family="Helvetica,sans-Serif" font-size="10.00" fill="#000000">encoder_sink_should</text>
<text text-anchor="middle" x="305.5" y="-46" font-family="Helvetica,sans-Serif" font-size="10.00" fill="#000000">_reject_nulls</text>
</a>
</g>
</g>
<!-- Node134&#45;&gt;Node158 -->
<g id="edge44" class="edge">
<title>Node134&#45;&gt;Node158</title>
<path fill="none" stroke="#191970" d="M168.0351,-403.7576C177.0994,-332.076 205.974,-129.2248 248,-79 251.842,-74.4084 256.6872,-70.6359 261.9273,-67.5423"/>
<polygon fill="#191970" stroke="#191970" points="164.5569,-403.3661 166.7967,-413.7215 171.5034,-404.2295 164.5569,-403.3661"/>
</g>
<!-- Node159 -->
<g id="node30" class="node">
<title>Node159</title>
<g id="a_node30"><a xlink:href="test__heatshrink__dynamic_8c.html#a6627d0e00f7e636ae9294cc6255c7ffd" target="_top" xlink:title="gen">
<polygon fill="#ffffff" stroke="#000000" points="291,-.5 291,-19.5 320,-19.5 320,-.5 291,-.5"/>
<text text-anchor="middle" x="305.5" y="-7.5" font-family="Helvetica,sans-Serif" font-size="10.00" fill="#000000">gen</text>
</a>
</g>
</g>
<!-- Node134&#45;&gt;Node159 -->
<g id="edge46" class="edge">
<title>Node134&#45;&gt;Node159</title>
<path fill="none" stroke="#191970" d="M166.9856,-403.6875C173.659,-324.8111 197.7385,-85.3754 248,-29 258.8445,-16.8363 277.6361,-12.4369 290.7758,-10.8587"/>
<polygon fill="#191970" stroke="#191970" points="163.4924,-403.4621 166.1586,-413.7159 170.4687,-404.0375 163.4924,-403.4621"/>
</g>
<!-- Node136 -->
<g id="node7" class="node">
<title>Node136</title>
<g id="a_node7"><a xlink:href="test__heatshrink__dynamic_8c.html#a9d63746ee6a963338d09b8a19da82529" target="_top" xlink:title="data_without_duplication\l_should_match">
<polygon fill="#ffffff" stroke="#000000" points="420,-1019 420,-1049 519,-1049 519,-1019 420,-1019"/>
<text text-anchor="start" x="428" y="-1037" font-family="Helvetica,sans-Serif" font-size="10.00" fill="#000000">data_without_duplication</text>
<text text-anchor="middle" x="469.5" y="-1026" font-family="Helvetica,sans-Serif" font-size="10.00" fill="#000000">_should_match</text>
</a>
</g>
</g>
<!-- Node135&#45;&gt;Node136 -->
<g id="edge6" class="edge">
<title>Node135&#45;&gt;Node136</title>
<path fill="none" stroke="#191970" d="M313.1962,-867.094C325.5623,-903.3873 353.2236,-970.3971 399,-1009 405.0558,-1014.1068 412.2285,-1018.1994 419.642,-1021.4711"/>
<polygon fill="#191970" stroke="#191970" points="316.4252,-865.7088 309.9785,-857.301 309.7749,-867.8939 316.4252,-865.7088"/>
</g>
<!-- Node138 -->
<g id="node9" class="node">
<title>Node138</title>
<g id="a_node9"><a xlink:href="test__heatshrink__dynamic_8c.html#ae9d1425d6c89a652b9df2b4ddc7ac2a2" target="_top" xlink:title="data_with_simple_repetition\l_should_compress_and_decompress\l_properly">
<polygon fill="#ffffff" stroke="#000000" points="399,-958.5 399,-999.5 540,-999.5 540,-958.5 399,-958.5"/>
<text text-anchor="start" x="407" y="-987.5" font-family="Helvetica,sans-Serif" font-size="10.00" fill="#000000">data_with_simple_repetition</text>
<text text-anchor="start" x="407" y="-976.5" font-family="Helvetica,sans-Serif" font-size="10.00" fill="#000000">_should_compress_and_decompress</text>
<text text-anchor="middle" x="469.5" y="-965.5" font-family="Helvetica,sans-Serif" font-size="10.00" fill="#000000">_properly</text>
</a>
</g>
</g>
<!-- Node135&#45;&gt;Node138 -->
<g id="edge8" class="edge">
<title>Node135&#45;&gt;Node138</title>
<path fill="none" stroke="#191970" d="M321.1683,-865.4663C338.0193,-889.1997 366.7715,-925.6262 399,-949 403.7379,-952.4362 408.9297,-955.5774 414.2796,-958.4235"/>
<polygon fill="#191970" stroke="#191970" points="323.8941,-863.2557 315.3103,-857.0454 318.1478,-867.2532 323.8941,-863.2557"/>
</g>
<!-- Node139 -->
<g id="node10" class="node">
<title>Node139</title>
<g id="a_node10"><a xlink:href="test__heatshrink__dynamic_8c.html#a60c0e0c5bbb9715c7932ee82e706752d" target="_top" xlink:title="pseudorandom_data_should\l_match">
<polygon fill="#ffffff" stroke="#000000" points="413.5,-909 413.5,-939 525.5,-939 525.5,-909 413.5,-909"/>
<text text-anchor="start" x="421.5" y="-927" font-family="Helvetica,sans-Serif" font-size="10.00" fill="#000000">pseudorandom_data_should</text>
<text text-anchor="middle" x="469.5" y="-916" font-family="Helvetica,sans-Serif" font-size="10.00" fill="#000000">_match</text>
</a>
</g>
</g>
<!-- Node135&#45;&gt;Node139 -->
<g id="edge10" class="edge">
<title>Node135&#45;&gt;Node139</title>
<path fill="none" stroke="#191970" d="M336.2392,-862.9636C354.0593,-874.5428 377.2182,-888.6356 399,-899 406.505,-902.5711 414.6637,-905.9191 422.6803,-908.9324"/>
<polygon fill="#191970" stroke="#191970" points="337.7194,-859.7475 327.4427,-857.1705 333.8693,-865.5937 337.7194,-859.7475"/>
</g>
<!-- Node140 -->
<g id="node11" class="node">
<title>Node140</title>
<g id="a_node11"><a xlink:href="test__heatshrink__dynamic_8c.html#a20e1a72bba941f0c602b93b53d32d5db" target="_top" xlink:title="small_input_buffer\l_should_not_impact_decoder\l_correctness">
<polygon fill="#ffffff" stroke="#000000" points="412,-848.5 412,-889.5 527,-889.5 527,-848.5 412,-848.5"/>
<text text-anchor="start" x="420" y="-877.5" font-family="Helvetica,sans-Serif" font-size="10.00" fill="#000000">small_input_buffer</text>
<text text-anchor="start" x="420" y="-866.5" font-family="Helvetica,sans-Serif" font-size="10.00" fill="#000000">_should_not_impact_decoder</text>
<text text-anchor="middle" x="469.5" y="-855.5" font-family="Helvetica,sans-Serif" font-size="10.00" fill="#000000">_correctness</text>
</a>
</g>
</g>
<!-- Node135&#45;&gt;Node140 -->
<g id="edge12" class="edge">
<title>Node135&#45;&gt;Node140</title>
<path fill="none" stroke="#191970" d="M363.1283,-851.4876C378.9743,-854.0964 396.1559,-856.9251 411.995,-859.5327"/>
<polygon fill="#191970" stroke="#191970" points="363.3714,-847.9806 352.9356,-849.8095 362.2342,-854.8876 363.3714,-847.9806"/>
</g>
<!-- Node141 -->
<g id="node12" class="node">
<title>Node141</title>
<g id="a_node12"><a xlink:href="test__heatshrink__dynamic_8c.html#a462faeb904a3de1b1e009a04f7d171d8" target="_top" xlink:title="regression_backreference\l_counters_should_not_roll_over">
<polygon fill="#ffffff" stroke="#000000" points="408,-799 408,-829 531,-829 531,-799 408,-799"/>
<text text-anchor="start" x="416" y="-817" font-family="Helvetica,sans-Serif" font-size="10.00" fill="#000000">regression_backreference</text>
<text text-anchor="middle" x="469.5" y="-806" font-family="Helvetica,sans-Serif" font-size="10.00" fill="#000000">_counters_should_not_roll_over</text>
</a>
</g>
</g>
<!-- Node135&#45;&gt;Node141 -->
<g id="edge14" class="edge">
<title>Node135&#45;&gt;Node141</title>
<path fill="none" stroke="#191970" d="M362.8011,-832.2169C377.3523,-829.7325 393.0481,-827.0528 407.8071,-824.5329"/>
<polygon fill="#191970" stroke="#191970" points="362.2039,-828.7681 352.9356,-833.9012 363.382,-835.6683 362.2039,-828.7681"/>
</g>
<!-- Node142 -->
<g id="node13" class="node">
<title>Node142</title>
<g id="a_node13"><a xlink:href="test__heatshrink__dynamic_8c.html#a2ed8ea21768d114fa96b07eb58475663" target="_top" xlink:title="regression_index_fail">
<polygon fill="#ffffff" stroke="#000000" points="426,-760.5 426,-779.5 513,-779.5 513,-760.5 426,-760.5"/>
<text text-anchor="middle" x="469.5" y="-767.5" font-family="Helvetica,sans-Serif" font-size="10.00" fill="#000000">regression_index_fail</text>
</a>
</g>
</g>
<!-- Node135&#45;&gt;Node142 -->
<g id="edge16" class="edge">
<title>Node135&#45;&gt;Node142</title>
<path fill="none" stroke="#191970" d="M337.6874,-821.6663C355.3037,-811.1687 377.8048,-798.7617 399,-790 408.7588,-785.9659 419.6004,-782.4453 429.7969,-779.5293"/>
<polygon fill="#191970" stroke="#191970" points="335.6962,-818.7802 328.9532,-826.9523 339.3206,-824.7689 335.6962,-818.7802"/>
</g>
<!-- Node143 -->
<g id="node14" class="node">
<title>Node143</title>
<g id="a_node14"><a xlink:href="test__heatshrink__dynamic_8c.html#a1bfe72da903d55a8610433a4f2a60d43" target="_top" xlink:title="sixty_four_k">
<polygon fill="#ffffff" stroke="#000000" points="441,-722.5 441,-741.5 498,-741.5 498,-722.5 441,-722.5"/>
<text text-anchor="middle" x="469.5" y="-729.5" font-family="Helvetica,sans-Serif" font-size="10.00" fill="#000000">sixty_four_k</text>
</a>
</g>
</g>
<!-- Node135&#45;&gt;Node143 -->
<g id="edge18" class="edge">
<title>Node135&#45;&gt;Node143</title>
<path fill="none" stroke="#191970" d="M323.5337,-818.669C340.7602,-797.9468 368.5497,-768.3357 399,-751 411.7787,-743.7249 427.4519,-739.1418 440.7728,-736.3047"/>
<polygon fill="#191970" stroke="#191970" points="320.6216,-816.703 317.0357,-826.6726 326.056,-821.1152 320.6216,-816.703"/>
</g>
<!-- Node137 -->
<g id="node8" class="node">
<title>Node137</title>
<g id="a_node8"><a xlink:href="test__heatshrink__dynamic_8c.html#a2f157eb23cb17a496326c14e12933b3b" target="_top" xlink:title="SUITE">
<polygon fill="#ffffff" stroke="#000000" points="576,-804.5 576,-823.5 615,-823.5 615,-804.5 576,-804.5"/>
<text text-anchor="middle" x="595.5" y="-811.5" font-family="Helvetica,sans-Serif" font-size="10.00" fill="#000000">SUITE</text>
</a>
</g>
</g>
<!-- Node136&#45;&gt;Node137 -->
<g id="edge7" class="edge">
<title>Node136&#45;&gt;Node137</title>
<path fill="none" stroke="#191970" d="M527.9141,-1018.6501C532.3616,-1015.9395 536.4801,-1012.7508 540,-1009 566.2545,-981.0233 588.0406,-859.2885 593.9299,-823.7649"/>
<polygon fill="#191970" stroke="#191970" points="526.2676,-1015.5614 519.0267,-1023.2957 529.5104,-1021.765 526.2676,-1015.5614"/>
</g>
<!-- Node138&#45;&gt;Node137 -->
<g id="edge9" class="edge">
<title>Node138&#45;&gt;Node137</title>
<path fill="none" stroke="#191970" d="M536.6253,-952.1708C537.7921,-951.1507 538.9192,-950.0942 540,-949 576.5072,-912.042 590.1352,-847.7057 594.1163,-823.5385"/>
<polygon fill="#191970" stroke="#191970" points="534.2752,-949.5601 528.4141,-958.3861 538.4999,-955.1414 534.2752,-949.5601"/>
</g>
<!-- Node139&#45;&gt;Node137 -->
<g id="edge11" class="edge">
<title>Node139&#45;&gt;Node137</title>
<path fill="none" stroke="#191970" d="M532.7303,-904.0544C535.2661,-902.4888 537.7035,-900.8066 540,-899 566.4566,-878.1871 584.3294,-841.1152 591.6998,-823.6314"/>
<polygon fill="#191970" stroke="#191970" points="530.8876,-901.0728 523.7912,-908.94 534.2447,-907.2153 530.8876,-901.0728"/>
</g>
<!-- Node140&#45;&gt;Node137 -->
<g id="edge13" class="edge">
<title>Node140&#45;&gt;Node137</title>
<path fill="none" stroke="#191970" d="M527.4321,-844.4629C531.6896,-842.6244 535.9144,-840.7892 540,-839 551.9067,-833.7856 565.184,-827.8107 575.7662,-823.0098"/>
<polygon fill="#191970" stroke="#191970" points="525.9044,-841.3098 518.1008,-848.4761 528.6701,-847.7403 525.9044,-841.3098"/>
</g>
<!-- Node141&#45;&gt;Node137 -->
<g id="edge15" class="edge">
<title>Node141&#45;&gt;Node137</title>
<path fill="none" stroke="#191970" d="M541.2787,-814C553.9865,-814 566.2084,-814 575.8212,-814"/>
<polygon fill="#191970" stroke="#191970" points="541.0236,-810.5001 531.0236,-814 541.0235,-817.5001 541.0236,-810.5001"/>
</g>
<!-- Node142&#45;&gt;Node137 -->
<g id="edge17" class="edge">
<title>Node142&#45;&gt;Node137</title>
<path fill="none" stroke="#191970" d="M516.5777,-782.4226C524.4545,-784.7669 532.5003,-787.3278 540,-790 552.1632,-794.3339 565.4505,-800.0436 575.9738,-804.8065"/>
<polygon fill="#191970" stroke="#191970" points="517.3235,-778.9949 506.7447,-779.5769 515.3775,-785.719 517.3235,-778.9949"/>
</g>
<!-- Node143&#45;&gt;Node137 -->
<g id="edge19" class="edge">
<title>Node143&#45;&gt;Node137</title>
<path fill="none" stroke="#191970" d="M507.9163,-738.0515C518.8275,-740.8824 530.3548,-745.0075 540,-751 562.2864,-764.8463 580.6709,-790.3675 589.6225,-804.3003"/>
<polygon fill="#191970" stroke="#191970" points="508.6712,-734.6338 498.1407,-735.7991 507.0995,-741.4551 508.6712,-734.6338"/>
</g>
<!-- Node144&#45;&gt;Node137 -->
<g id="edge21" class="edge">
<title>Node144&#45;&gt;Node137</title>
<path fill="none" stroke="#191970" d="M535.8774,-709.5391C537.3002,-710.6505 538.6775,-711.8037 540,-713 569.0823,-739.3066 586.1654,-784.5356 592.5756,-804.2916"/>
<polygon fill="#191970" stroke="#191970" points="537.5163,-706.4177 527.297,-703.6219 533.5424,-712.1803 537.5163,-706.4177"/>
</g>
<!-- Node145&#45;&gt;Node137 -->
<g id="edge23" class="edge">
<title>Node145&#45;&gt;Node137</title>
<path fill="none" stroke="#191970" d="M536.2676,-649.3396C537.568,-650.5095 538.8154,-651.7289 540,-653 582.1297,-698.2033 592.4613,-776.9077 594.8349,-804.2833"/>
<polygon fill="#191970" stroke="#191970" points="538.3523,-646.5273 528.3038,-643.169 534.0649,-652.0607 538.3523,-646.5273"/>
</g>
<!-- Node147 -->
<g id="node18" class="node">
<title>Node147</title>
<g id="a_node18"><a xlink:href="heatshrink_8c.html#a3c04138a5bfe5d72780bb7e82a18e627" target="_top" xlink:title="main">
<polygon fill="#ffffff" stroke="#000000" points="453,-564.5 453,-583.5 486,-583.5 486,-564.5 453,-564.5"/>
<text text-anchor="middle" x="469.5" y="-571.5" font-family="Helvetica,sans-Serif" font-size="10.00" fill="#000000">main</text>
</a>
</g>
</g>
<!-- Node146&#45;&gt;Node147 -->
<g id="edge25" class="edge">
<title>Node146&#45;&gt;Node147</title>
<path fill="none" stroke="#191970" d="M336.285,-600.8055C370.8132,-593.8577 425.5452,-582.8446 452.8556,-577.3492"/>
<polygon fill="#191970" stroke="#191970" points="335.3838,-597.4166 326.2707,-602.8205 336.7647,-604.279 335.3838,-597.4166"/>
</g>
<!-- Node149 -->
<g id="node20" class="node">
<title>Node149</title>
<g id="a_node20"><a xlink:href="test__heatshrink__dynamic_8c.html#ac4a70b7ac22f00448c1d17d2b29a1359" target="_top" xlink:title="SUITE">
<polygon fill="#ffffff" stroke="#000000" points="450,-306.5 450,-325.5 489,-325.5 489,-306.5 450,-306.5"/>
<text text-anchor="middle" x="469.5" y="-313.5" font-family="Helvetica,sans-Serif" font-size="10.00" fill="#000000">SUITE</text>
</a>
</g>
</g>
<!-- Node148&#45;&gt;Node149 -->
<g id="edge27" class="edge">
<title>Node148&#45;&gt;Node149</title>
<path fill="none" stroke="#191970" d="M359.4651,-542.0825C360.6917,-541.0986 361.8732,-540.0716 363,-539 430.1513,-475.1341 459.8036,-360.2851 467.4305,-325.954"/>
<polygon fill="#191970" stroke="#191970" points="357.1153,-539.4481 350.8188,-547.9689 361.0546,-545.2345 357.1153,-539.4481"/>
</g>
<!-- Node150&#45;&gt;Node149 -->
<g id="edge29" class="edge">
<title>Node150&#45;&gt;Node149</title>
<path fill="none" stroke="#191970" d="M356.9396,-493.6819C359.0604,-492.2134 361.0934,-490.654 363,-489 419.215,-440.2347 455.1124,-354.3307 465.9956,-325.6369"/>
<polygon fill="#191970" stroke="#191970" points="355.1098,-490.6983 348.4059,-498.9024 358.7627,-496.6695 355.1098,-490.6983"/>
</g>
<!-- Node151&#45;&gt;Node149 -->
<g id="edge31" class="edge">
<title>Node151&#45;&gt;Node149</title>
<path fill="none" stroke="#191970" d="M357.4511,-432.9677C359.356,-431.6766 361.2129,-430.3528 363,-429 405.5587,-396.7845 445.9933,-346.8051 462.1307,-325.8119"/>
<polygon fill="#191970" stroke="#191970" points="355.4349,-430.1017 348.8581,-438.4081 359.1794,-436.016 355.4349,-430.1017"/>
</g>
<!-- Node152&#45;&gt;Node149 -->
<g id="edge33" class="edge">
<title>Node152&#45;&gt;Node149</title>
<path fill="none" stroke="#191970" d="M355.3161,-373.7882C387.4985,-357.5007 427.5423,-337.2347 450.6471,-325.5414"/>
<polygon fill="#191970" stroke="#191970" points="353.3813,-370.8446 346.0393,-378.4831 356.5422,-377.0903 353.3813,-370.8446"/>
</g>
<!-- Node153&#45;&gt;Node149 -->
<g id="edge35" class="edge">
<title>Node153&#45;&gt;Node149</title>
<path fill="none" stroke="#191970" d="M358.4916,-334.9527C389.7762,-329.6114 427.5276,-323.166 449.967,-319.3349"/>
<polygon fill="#191970" stroke="#191970" points="357.8574,-331.5102 348.5891,-336.6433 359.0355,-338.4104 357.8574,-331.5102"/>
</g>
<!-- Node154&#45;&gt;Node149 -->
<g id="edge37" class="edge">
<title>Node154&#45;&gt;Node149</title>
<path fill="none" stroke="#191970" d="M367.1358,-299.1474C396.4725,-303.9772 429.5218,-309.4182 449.9315,-312.7784"/>
<polygon fill="#191970" stroke="#191970" points="367.3764,-295.6399 356.9407,-297.4689 366.2392,-302.547 367.3764,-295.6399"/>
</g>
<!-- Node155&#45;&gt;Node149 -->
<g id="edge39" class="edge">
<title>Node155&#45;&gt;Node149</title>
<path fill="none" stroke="#191970" d="M354.1437,-254.3336C357.1423,-255.9094 360.113,-257.4744 363,-259 394.335,-275.5592 430.7114,-295.096 451.817,-306.4625"/>
<polygon fill="#191970" stroke="#191970" points="355.6025,-251.1466 345.1209,-249.6021 352.3517,-257.3459 355.6025,-251.1466"/>
</g>
<!-- Node156&#45;&gt;Node149 -->
<g id="edge41" class="edge">
<title>Node156&#45;&gt;Node149</title>
<path fill="none" stroke="#191970" d="M357.4812,-194.9929C359.3778,-196.2949 361.2247,-197.6318 363,-199 406.5119,-232.5345 447.0389,-285.0825 462.6874,-306.4675"/>
<polygon fill="#191970" stroke="#191970" points="359.2259,-191.9542 348.915,-189.5174 355.4558,-197.8522 359.2259,-191.9542"/>
</g>
<!-- Node157&#45;&gt;Node149 -->
<g id="edge43" class="edge">
<title>Node157&#45;&gt;Node149</title>
<path fill="none" stroke="#191970" d="M357.8461,-134.5648C359.6416,-135.9855 361.3677,-137.464 363,-139 418.1083,-190.8568 454.7234,-277.4735 465.893,-306.3223"/>
<polygon fill="#191970" stroke="#191970" points="359.784,-131.6482 349.6055,-128.7073 355.7284,-137.3537 359.784,-131.6482"/>
</g>
<!-- Node158&#45;&gt;Node149 -->
<g id="edge45" class="edge">
<title>Node158&#45;&gt;Node149</title>
<path fill="none" stroke="#191970" d="M357.7588,-74.4363C359.6066,-75.8643 361.3641,-77.3839 363,-79 432.9585,-148.1101 460.9983,-271.3797 467.7812,-306.4526"/>
<polygon fill="#191970" stroke="#191970" points="359.4441,-71.3543 349.1752,-68.7463 355.5764,-77.1888 359.4441,-71.3543"/>
</g>
<!-- Node160 -->
<g id="node31" class="node">
<title>Node160</title>
<g id="a_node31"><a xlink:href="test__heatshrink__dynamic_8c.html#adc66afa12a5eaae0cd12d5cc497f0f67" target="_top" xlink:title="SUITE">
<polygon fill="#ffffff" stroke="#000000" points="450,-.5 450,-19.5 489,-19.5 489,-.5 450,-.5"/>
<text text-anchor="middle" x="469.5" y="-7.5" font-family="Helvetica,sans-Serif" font-size="10.00" fill="#000000">SUITE</text>
</a>
</g>
</g>
<!-- Node159&#45;&gt;Node160 -->
<g id="edge47" class="edge">
<title>Node159&#45;&gt;Node160</title>
<path fill="none" stroke="#191970" d="M330.1445,-10C362.8808,-10 420.0484,-10 449.9733,-10"/>
<polygon fill="#191970" stroke="#191970" points="330.0539,-6.5001 320.0539,-10 330.0539,-13.5001 330.0539,-6.5001"/>
</g>
</g>
</svg>
