<?xml version="1.0" encoding="UTF-8" standalone="no"?>
<!DOCTYPE svg PUBLIC "-//W3C//DTD SVG 1.1//EN"
 "http://www.w3.org/Graphics/SVG/1.1/DTD/svg11.dtd">
<!-- Generated by graphviz version 2.40.1 (20161225.0304)
 -->
<!-- Title: lib/heatshrink/heatshrink_encoder.h Pages: 1 -->
<svg width="260pt" height="95pt"
 viewBox="0.00 0.00 259.50 95.00" xmlns="http://www.w3.org/2000/svg" xmlns:xlink="http://www.w3.org/1999/xlink">
<g id="graph0" class="graph" transform="scale(1 1) rotate(0) translate(4 91)">
<title>lib/heatshrink/heatshrink_encoder.h</title>
<polygon fill="#ffffff" stroke="transparent" points="-4,4 -4,-91 255.5,-91 255.5,4 -4,4"/>
<!-- Node0 -->
<g id="node1" class="node">
<title>Node0</title>
<polygon fill="#bfbfbf" stroke="#000000" points="58,-56.5 58,-86.5 155,-86.5 155,-56.5 58,-56.5"/>
<text text-anchor="start" x="66" y="-74.5" font-family="Helvetica,sans-Serif" font-size="10.00" fill="#000000">lib/heatshrink/heatshrink</text>
<text text-anchor="middle" x="106.5" y="-63.5" font-family="Helvetica,sans-Serif" font-size="10.00" fill="#000000">_encoder.h</text>
</g>
<!-- Node1 -->
<g id="node2" class="node">
<title>Node1</title>
<polygon fill="#ffffff" stroke="#bfbfbf" points="0,-.5 0,-19.5 43,-19.5 43,-.5 0,-.5"/>
<text text-anchor="middle" x="21.5" y="-7.5" font-family="Helvetica,sans-Serif" font-size="10.00" fill="#000000">stddef.h</text>
</g>
<!-- Node0&#45;&gt;Node1 -->
<g id="edge1" class="edge">
<title>Node0&#45;&gt;Node1</title>
<path fill="none" stroke="#191970" d="M85.4888,-56.2977C72.7066,-47.0495 56.4054,-35.2551 43.4552,-25.8853"/>
<polygon fill="#191970" stroke="#191970" points="45.263,-22.8732 35.1096,-19.8469 41.1597,-28.5445 45.263,-22.8732"/>
</g>
<!-- Node2 -->
<g id="node3" class="node">
<title>Node2</title>
<g id="a_node3"><a xlink:href="heatshrink__common_8h.html" target="_top" xlink:title="heatshrink_common.h">
<polygon fill="#ffffff" stroke="#000000" points="61.5,-.5 61.5,-19.5 151.5,-19.5 151.5,-.5 61.5,-.5"/>
<text text-anchor="middle" x="106.5" y="-7.5" font-family="Helvetica,sans-Serif" font-size="10.00" fill="#000000">heatshrink_common.h</text>
</a>
</g>
</g>
<!-- Node0&#45;&gt;Node2 -->
<g id="edge2" class="edge">
<title>Node0&#45;&gt;Node2</title>
<path fill="none" stroke="#191970" d="M106.5,-56.2977C106.5,-48.3834 106.5,-38.6043 106.5,-30.0759"/>
<polygon fill="#191970" stroke="#191970" points="110.0001,-29.8469 106.5,-19.8469 103.0001,-29.847 110.0001,-29.8469"/>
</g>
<!-- Node3 -->
<g id="node4" class="node">
<title>Node3</title>
<g id="a_node4"><a xlink:href="heatshrink__config_8h.html" target="_top" xlink:title="heatshrink_config.h">
<polygon fill="#ffffff" stroke="#000000" points="169.5,-.5 169.5,-19.5 251.5,-19.5 251.5,-.5 169.5,-.5"/>
<text text-anchor="middle" x="210.5" y="-7.5" font-family="Helvetica,sans-Serif" font-size="10.00" fill="#000000">heatshrink_config.h</text>
</a>
</g>
</g>
<!-- Node0&#45;&gt;Node3 -->
<g id="edge3" class="edge">
<title>Node0&#45;&gt;Node3</title>
<path fill="none" stroke="#191970" d="M131.9413,-56.4554C148.2284,-46.8241 169.2673,-34.3828 185.473,-24.7996"/>
<polygon fill="#191970" stroke="#191970" points="187.5576,-27.6331 194.3837,-19.5303 183.9945,-21.6078 187.5576,-27.6331"/>
</g>
</g>
</svg>
