<?xml version="1.0" encoding="UTF-8" standalone="no"?>
<!DOCTYPE svg PUBLIC "-//W3C//DTD SVG 1.1//EN"
 "http://www.w3.org/Graphics/SVG/1.1/DTD/svg11.dtd">
<!-- Generated by graphviz version 2.40.1 (20161225.0304)
 -->
<!-- Title: push_literal_byte Pages: 1 -->
<svg width="311pt" height="66pt"
 viewBox="0.00 0.00 311.00 66.00" xmlns="http://www.w3.org/2000/svg" xmlns:xlink="http://www.w3.org/1999/xlink">
<g id="graph0" class="graph" transform="scale(1 1) rotate(0) translate(4 62)">
<title>push_literal_byte</title>
<polygon fill="#ffffff" stroke="transparent" points="-4,4 -4,-62 307,-62 307,4 -4,4"/>
<!-- Node640 -->
<g id="node1" class="node">
<title>Node640</title>
<polygon fill="#bfbfbf" stroke="#000000" points="0,-19.5 0,-38.5 73,-38.5 73,-19.5 0,-19.5"/>
<text text-anchor="middle" x="36.5" y="-26.5" font-family="Helvetica,sans-Serif" font-size="10.00" fill="#000000">push_literal_byte</text>
</g>
<!-- Node641 -->
<g id="node2" class="node">
<title>Node641</title>
<g id="a_node2"><a xlink:href="heatshrink__encoder_8c.html#ae3f741c7a40be525778c6c92c4720518" target="_top" xlink:title="get_input_offset">
<polygon fill="#ffffff" stroke="#000000" points="109,-38.5 109,-57.5 179,-57.5 179,-38.5 109,-38.5"/>
<text text-anchor="middle" x="144" y="-45.5" font-family="Helvetica,sans-Serif" font-size="10.00" fill="#000000">get_input_offset</text>
</a>
</g>
</g>
<!-- Node640&#45;&gt;Node641 -->
<g id="edge1" class="edge">
<title>Node640&#45;&gt;Node641</title>
<path fill="none" stroke="#191970" d="M73.1947,-35.4856C81.501,-36.9537 90.4135,-38.5289 99.018,-40.0497"/>
<polygon fill="#191970" stroke="#191970" points="98.4659,-43.5063 108.9225,-41.8003 99.6843,-36.6131 98.4659,-43.5063"/>
</g>
<!-- Node643 -->
<g id="node4" class="node">
<title>Node643</title>
<g id="a_node4"><a xlink:href="heatshrink__encoder_8c.html#a5219dc6b7b93fcd90ee72f9948c58f54" target="_top" xlink:title="push_bits">
<polygon fill="#ffffff" stroke="#000000" points="119.5,-.5 119.5,-19.5 168.5,-19.5 168.5,-.5 119.5,-.5"/>
<text text-anchor="middle" x="144" y="-7.5" font-family="Helvetica,sans-Serif" font-size="10.00" fill="#000000">push_bits</text>
</a>
</g>
</g>
<!-- Node640&#45;&gt;Node643 -->
<g id="edge3" class="edge">
<title>Node640&#45;&gt;Node643</title>
<path fill="none" stroke="#191970" d="M73.1947,-22.5144C84.8368,-20.4567 97.6699,-18.1886 109.1763,-16.1549"/>
<polygon fill="#191970" stroke="#191970" points="110.0602,-19.553 119.2983,-14.3659 108.8418,-12.6598 110.0602,-19.553"/>
</g>
<!-- Node642 -->
<g id="node3" class="node">
<title>Node642</title>
<g id="a_node3"><a xlink:href="heatshrink__encoder_8c.html#a9b311bf2b76215ba61eb648d970a5f11" target="_top" xlink:title="get_input_buffer_size">
<polygon fill="#ffffff" stroke="#000000" points="215,-38.5 215,-57.5 303,-57.5 303,-38.5 215,-38.5"/>
<text text-anchor="middle" x="259" y="-45.5" font-family="Helvetica,sans-Serif" font-size="10.00" fill="#000000">get_input_buffer_size</text>
</a>
</g>
</g>
<!-- Node641&#45;&gt;Node642 -->
<g id="edge2" class="edge">
<title>Node641&#45;&gt;Node642</title>
<path fill="none" stroke="#191970" d="M179.1287,-48C187.1996,-48 195.9672,-48 204.6392,-48"/>
<polygon fill="#191970" stroke="#191970" points="204.7282,-51.5001 214.7282,-48 204.7282,-44.5001 204.7282,-51.5001"/>
</g>
</g>
</svg>
