<?xml version="1.0" encoding="UTF-8" standalone="no"?>
<!DOCTYPE svg PUBLIC "-//W3C//DTD SVG 1.1//EN"
 "http://www.w3.org/Graphics/SVG/1.1/DTD/svg11.dtd">
<!-- Generated by graphviz version 2.40.1 (20161225.0304)
 -->
<!-- Title: encode Pages: 1 -->
<svg width="790pt" height="724pt"
 viewBox="0.00 0.00 790.00 723.50" xmlns="http://www.w3.org/2000/svg" xmlns:xlink="http://www.w3.org/1999/xlink">
<g id="graph0" class="graph" transform="scale(1 1) rotate(0) translate(4 719.5)">
<title>encode</title>
<polygon fill="#ffffff" stroke="transparent" points="-4,4 -4,-719.5 786,-719.5 786,4 -4,4"/>
<!-- Node62 -->
<g id="node1" class="node">
<title>Node62</title>
<polygon fill="#bfbfbf" stroke="#000000" points="0,-487 0,-506 41,-506 41,-487 0,-487"/>
<text text-anchor="middle" x="20.5" y="-494" font-family="Helvetica,sans-Serif" font-size="10.00" fill="#000000">encode</text>
</g>
<!-- Node63 -->
<g id="node2" class="node">
<title>Node63</title>
<g id="a_node2"><a xlink:href="heatshrink_8c.html#ab458cc219445a92b0d1ba2bdbc4d5d6f" target="_top" xlink:title="close_and_report">
<polygon fill="#ffffff" stroke="#000000" points="89.5,-651 89.5,-670 163.5,-670 163.5,-651 89.5,-651"/>
<text text-anchor="middle" x="126.5" y="-658" font-family="Helvetica,sans-Serif" font-size="10.00" fill="#000000">close_and_report</text>
</a>
</g>
</g>
<!-- Node62&#45;&gt;Node63 -->
<g id="edge1" class="edge">
<title>Node62&#45;&gt;Node63</title>
<path fill="none" stroke="#191970" d="M23.9258,-506.0282C31.5473,-526.5047 51.2807,-575.7446 77,-611.5 85.6057,-623.4637 97.2365,-635.1419 107.0616,-644.0949"/>
<polygon fill="#191970" stroke="#191970" points="104.9734,-646.9204 114.784,-650.9208 109.6094,-641.6756 104.9734,-646.9204"/>
</g>
<!-- Node66 -->
<g id="node5" class="node">
<title>Node66</title>
<g id="a_node5"><a xlink:href="heatshrink_8c.html#aae61ded03fcf9a4c3adfcd9937810266" target="_top" xlink:title="die">
<polygon fill="#ffffff" stroke="#000000" points="247.5,-613 247.5,-632 276.5,-632 276.5,-613 247.5,-613"/>
<text text-anchor="middle" x="262" y="-620" font-family="Helvetica,sans-Serif" font-size="10.00" fill="#000000">die</text>
</a>
</g>
</g>
<!-- Node62&#45;&gt;Node66 -->
<g id="edge4" class="edge">
<title>Node62&#45;&gt;Node66</title>
<path fill="none" stroke="#191970" d="M27.9082,-506.2498C37.8509,-518.7417 56.6332,-540.3477 77,-553.5 129.157,-587.1816 200.1154,-607.7422 237.1633,-616.8885"/>
<polygon fill="#191970" stroke="#191970" points="236.5525,-620.3411 247.0925,-619.265 238.1819,-613.5333 236.5525,-620.3411"/>
</g>
<!-- Node67 -->
<g id="node6" class="node">
<title>Node67</title>
<g id="a_node6"><a xlink:href="heatshrink_8c.html#a593e86bba4eca0be280740fcf509bc12" target="_top" xlink:title="encoder_sink_read">
<polygon fill="#ffffff" stroke="#000000" points="86.5,-525 86.5,-544 166.5,-544 166.5,-525 86.5,-525"/>
<text text-anchor="middle" x="126.5" y="-532" font-family="Helvetica,sans-Serif" font-size="10.00" fill="#000000">encoder_sink_read</text>
</a>
</g>
</g>
<!-- Node62&#45;&gt;Node67 -->
<g id="edge6" class="edge">
<title>Node62&#45;&gt;Node67</title>
<path fill="none" stroke="#191970" d="M41.1895,-503.917C55.0602,-508.8895 73.7052,-515.5736 90.0268,-521.4247"/>
<polygon fill="#191970" stroke="#191970" points="89.231,-524.8575 99.8255,-524.9374 91.5932,-518.2681 89.231,-524.8575"/>
</g>
<!-- Node95 -->
<g id="node34" class="node">
<title>Node95</title>
<g id="a_node34"><a xlink:href="heatshrink_8c.html#aa08e5b5aa13b339b363f7c1ad89cc62c" target="_top" xlink:title="handle_drop">
<polygon fill="#ffffff" stroke="#000000" points="97.5,-487 97.5,-506 155.5,-506 155.5,-487 97.5,-487"/>
<text text-anchor="middle" x="126.5" y="-494" font-family="Helvetica,sans-Serif" font-size="10.00" fill="#000000">handle_drop</text>
</a>
</g>
</g>
<!-- Node62&#45;&gt;Node95 -->
<g id="edge60" class="edge">
<title>Node62&#45;&gt;Node95</title>
<path fill="none" stroke="#191970" d="M41.1895,-496.5C54.211,-496.5 71.4403,-496.5 87.0047,-496.5"/>
<polygon fill="#191970" stroke="#191970" points="87.442,-500.0001 97.442,-496.5 87.4419,-493.0001 87.442,-500.0001"/>
</g>
<!-- Node96 -->
<g id="node35" class="node">
<title>Node96</title>
<g id="a_node35"><a xlink:href="heatshrink_8c.html#a3e5db3312d645d2f93246a5df7361bf1" target="_top" xlink:title="handle_read">
<polygon fill="#ffffff" stroke="#000000" points="97.5,-449 97.5,-468 155.5,-468 155.5,-449 97.5,-449"/>
<text text-anchor="middle" x="126.5" y="-456" font-family="Helvetica,sans-Serif" font-size="10.00" fill="#000000">handle_read</text>
</a>
</g>
</g>
<!-- Node62&#45;&gt;Node96 -->
<g id="edge61" class="edge">
<title>Node62&#45;&gt;Node96</title>
<path fill="none" stroke="#191970" d="M41.1895,-489.083C55.0602,-484.1105 73.7052,-477.4264 90.0268,-471.5753"/>
<polygon fill="#191970" stroke="#191970" points="91.5932,-474.7319 99.8255,-468.0626 89.231,-468.1425 91.5932,-474.7319"/>
</g>
<!-- Node97 -->
<g id="node36" class="node">
<title>Node97</title>
<g id="a_node36"><a xlink:href="heatshrink__encoder_8c.html#a2e8cab0e929cb612c25e434a16b6f6c0" target="_top" xlink:title="heatshrink_encoder\l_alloc">
<polygon fill="#ffffff" stroke="#000000" points="85.5,-212.5 85.5,-242.5 167.5,-242.5 167.5,-212.5 85.5,-212.5"/>
<text text-anchor="start" x="93.5" y="-230.5" font-family="Helvetica,sans-Serif" font-size="10.00" fill="#000000">heatshrink_encoder</text>
<text text-anchor="middle" x="126.5" y="-219.5" font-family="Helvetica,sans-Serif" font-size="10.00" fill="#000000">_alloc</text>
</a>
</g>
</g>
<!-- Node62&#45;&gt;Node97 -->
<g id="edge62" class="edge">
<title>Node62&#45;&gt;Node97</title>
<path fill="none" stroke="#191970" d="M24.2726,-486.9261C39.1981,-449.0491 94.3983,-308.9655 116.8792,-251.915"/>
<polygon fill="#191970" stroke="#191970" points="120.149,-253.1638 120.5589,-242.5769 113.6364,-250.5974 120.149,-253.1638"/>
</g>
<!-- Node99 -->
<g id="node38" class="node">
<title>Node99</title>
<g id="a_node38"><a xlink:href="heatshrink__encoder_8c.html#a7dab314bbd6854a56c2f54187b12b687" target="_top" xlink:title="heatshrink_encoder_free">
<polygon fill="#ffffff" stroke="#000000" points="77,-174 77,-193 176,-193 176,-174 77,-174"/>
<text text-anchor="middle" x="126.5" y="-181" font-family="Helvetica,sans-Serif" font-size="10.00" fill="#000000">heatshrink_encoder_free</text>
</a>
</g>
</g>
<!-- Node62&#45;&gt;Node99 -->
<g id="edge65" class="edge">
<title>Node62&#45;&gt;Node99</title>
<path fill="none" stroke="#191970" d="M21.1342,-486.9345C24.316,-441.5888 39.8804,-248.5988 77,-203.5 78.3253,-201.8898 79.8,-200.4082 81.3876,-199.0449"/>
<polygon fill="#191970" stroke="#191970" points="83.7657,-201.6627 90.0977,-193.1682 79.8505,-195.8599 83.7657,-201.6627"/>
</g>
<!-- Node64 -->
<g id="node3" class="node">
<title>Node64</title>
<g id="a_node3"><a xlink:href="heatshrink_8c.html#a380a7d5e663e6f16a9cf9927f0eeebe6" target="_top" xlink:title="handle_close">
<polygon fill="#ffffff" stroke="#000000" points="231.5,-689 231.5,-708 292.5,-708 292.5,-689 231.5,-689"/>
<text text-anchor="middle" x="262" y="-696" font-family="Helvetica,sans-Serif" font-size="10.00" fill="#000000">handle_close</text>
</a>
</g>
</g>
<!-- Node63&#45;&gt;Node64 -->
<g id="edge2" class="edge">
<title>Node63&#45;&gt;Node64</title>
<path fill="none" stroke="#191970" d="M160.6924,-670.089C179.1188,-675.2566 201.9759,-681.6667 221.3131,-687.0896"/>
<polygon fill="#191970" stroke="#191970" points="220.4885,-690.4934 231.0622,-689.8237 222.3788,-683.7534 220.4885,-690.4934"/>
</g>
<!-- Node65 -->
<g id="node4" class="node">
<title>Node65</title>
<g id="a_node4"><a xlink:href="heatshrink_8c.html#aa3d0dcd450adfe68f63afa4c8af2d631" target="_top" xlink:title="report">
<polygon fill="#ffffff" stroke="#000000" points="369,-696 369,-715 405,-715 405,-696 369,-696"/>
<text text-anchor="middle" x="387" y="-703" font-family="Helvetica,sans-Serif" font-size="10.00" fill="#000000">report</text>
</a>
</g>
</g>
<!-- Node63&#45;&gt;Node65 -->
<g id="edge3" class="edge">
<title>Node63&#45;&gt;Node65</title>
<path fill="none" stroke="#191970" d="M163.5047,-661.7704C201.2356,-663.6517 261.2693,-668.2682 312,-679.5 328.0243,-683.0478 345.3708,-688.9216 359.3413,-694.1894"/>
<polygon fill="#191970" stroke="#191970" points="358.2612,-697.5244 368.8502,-697.8762 360.7917,-690.9978 358.2612,-697.5244"/>
</g>
<!-- Node66&#45;&gt;Node65 -->
<g id="edge5" class="edge">
<title>Node66&#45;&gt;Node65</title>
<path fill="none" stroke="#191970" d="M276.8482,-627.8404C287.2677,-631.9997 301.2097,-638.4199 312,-646.5 331.1448,-660.8362 328.897,-672.1082 348,-686.5 351.5191,-689.1512 355.4664,-691.5829 359.4624,-693.7569"/>
<polygon fill="#191970" stroke="#191970" points="358.1835,-697.0296 368.6965,-698.3442 361.2979,-690.7606 358.1835,-697.0296"/>
</g>
<!-- Node67&#45;&gt;Node66 -->
<g id="edge48" class="edge">
<title>Node67&#45;&gt;Node66</title>
<path fill="none" stroke="#191970" d="M136.2549,-544.1311C151.3792,-558.6341 181.8917,-586.2181 212,-603.5 220.016,-608.1011 229.3569,-611.9965 237.7807,-615.0394"/>
<polygon fill="#191970" stroke="#191970" points="236.8562,-618.4216 247.4505,-618.3185 239.1042,-611.7924 236.8562,-618.4216"/>
</g>
<!-- Node68 -->
<g id="node7" class="node">
<title>Node68</title>
<g id="a_node7"><a xlink:href="heatshrink__encoder_8c.html#aa1a92f13d1ef65546bb40ece94b2066e" target="_top" xlink:title="heatshrink_encoder_sink">
<polygon fill="#ffffff" stroke="#000000" points="212,-449 212,-468 312,-468 312,-449 212,-449"/>
<text text-anchor="middle" x="262" y="-456" font-family="Helvetica,sans-Serif" font-size="10.00" fill="#000000">heatshrink_encoder_sink</text>
</a>
</g>
</g>
<!-- Node67&#45;&gt;Node68 -->
<g id="edge7" class="edge">
<title>Node67&#45;&gt;Node68</title>
<path fill="none" stroke="#191970" d="M157.6575,-524.9804C163.9891,-522.3856 170.4143,-519.2356 176,-515.5 195.3384,-502.5671 192.64,-490.4005 212,-477.5 214.8689,-475.5883 217.9572,-473.8315 221.141,-472.2249"/>
<polygon fill="#191970" stroke="#191970" points="222.5999,-475.4064 230.2635,-468.0907 219.7104,-469.0306 222.5999,-475.4064"/>
</g>
<!-- Node92 -->
<g id="node31" class="node">
<title>Node92</title>
<g id="a_node31"><a xlink:href="heatshrink__encoder_8c.html#a7de708b2cb0d016d9183b0addf6126f3" target="_top" xlink:title="heatshrink_encoder_poll">
<polygon fill="#ffffff" stroke="#000000" points="213,-525 213,-544 311,-544 311,-525 213,-525"/>
<text text-anchor="middle" x="262" y="-532" font-family="Helvetica,sans-Serif" font-size="10.00" fill="#000000">heatshrink_encoder_poll</text>
</a>
</g>
</g>
<!-- Node67&#45;&gt;Node92 -->
<g id="edge49" class="edge">
<title>Node67&#45;&gt;Node92</title>
<path fill="none" stroke="#191970" d="M166.7876,-534.5C178.0017,-534.5 190.4241,-534.5 202.4924,-534.5"/>
<polygon fill="#191970" stroke="#191970" points="202.5123,-538.0001 212.5122,-534.5 202.5122,-531.0001 202.5123,-538.0001"/>
</g>
<!-- Node93 -->
<g id="node32" class="node">
<title>Node93</title>
<g id="a_node32"><a xlink:href="heatshrink_8c.html#a1776dd831e9d89b162fd630c27436b5f" target="_top" xlink:title="handle_sink">
<polygon fill="#ffffff" stroke="#000000" points="233.5,-487 233.5,-506 290.5,-506 290.5,-487 233.5,-487"/>
<text text-anchor="middle" x="262" y="-494" font-family="Helvetica,sans-Serif" font-size="10.00" fill="#000000">handle_sink</text>
</a>
</g>
</g>
<!-- Node67&#45;&gt;Node93 -->
<g id="edge58" class="edge">
<title>Node67&#45;&gt;Node93</title>
<path fill="none" stroke="#191970" d="M160.6924,-524.911C179.874,-519.5316 203.857,-512.8058 223.6724,-507.2487"/>
<polygon fill="#191970" stroke="#191970" points="224.6323,-510.6146 233.3157,-504.5443 222.7421,-503.8746 224.6323,-510.6146"/>
</g>
<!-- Node94 -->
<g id="node33" class="node">
<title>Node94</title>
<g id="a_node33"><a xlink:href="heatshrink__encoder_8c.html#a28c572200aa461a1c7ab1d80e07feeff" target="_top" xlink:title="heatshrink_encoder\l_finish">
<polygon fill="#ffffff" stroke="#000000" points="221,-563.5 221,-593.5 303,-593.5 303,-563.5 221,-563.5"/>
<text text-anchor="start" x="229" y="-581.5" font-family="Helvetica,sans-Serif" font-size="10.00" fill="#000000">heatshrink_encoder</text>
<text text-anchor="middle" x="262" y="-570.5" font-family="Helvetica,sans-Serif" font-size="10.00" fill="#000000">_finish</text>
</a>
</g>
</g>
<!-- Node67&#45;&gt;Node94 -->
<g id="edge59" class="edge">
<title>Node67&#45;&gt;Node94</title>
<path fill="none" stroke="#191970" d="M155.9015,-544.0473C172.0742,-549.299 192.594,-555.9622 211.269,-562.0265"/>
<polygon fill="#191970" stroke="#191970" points="210.2418,-565.3728 220.834,-565.1324 212.4038,-558.715 210.2418,-565.3728"/>
</g>
<!-- Node69 -->
<g id="node8" class="node">
<title>Node69</title>
<g id="a_node8"><a xlink:href="heatshrink__encoder_8c.html#a323caf30937d6e75e99789f797957f0c" target="_top" xlink:title="is_finishing">
<polygon fill="#ffffff" stroke="#000000" points="476.5,-430 476.5,-449 530.5,-449 530.5,-430 476.5,-430"/>
<text text-anchor="middle" x="503.5" y="-437" font-family="Helvetica,sans-Serif" font-size="10.00" fill="#000000">is_finishing</text>
</a>
</g>
</g>
<!-- Node68&#45;&gt;Node69 -->
<g id="edge8" class="edge">
<title>Node68&#45;&gt;Node69</title>
<path fill="none" stroke="#191970" d="M312.039,-454.5632C357.9201,-450.9535 424.831,-445.6893 466.1889,-442.4355"/>
<polygon fill="#191970" stroke="#191970" points="466.6831,-445.9075 476.3777,-441.6338 466.134,-438.929 466.6831,-445.9075"/>
</g>
<!-- Node70 -->
<g id="node9" class="node">
<title>Node70</title>
<g id="a_node9"><a xlink:href="heatshrink__encoder_8c.html#ae3f741c7a40be525778c6c92c4720518" target="_top" xlink:title="get_input_offset">
<polygon fill="#ffffff" stroke="#000000" points="584.5,-240 584.5,-259 654.5,-259 654.5,-240 584.5,-240"/>
<text text-anchor="middle" x="619.5" y="-247" font-family="Helvetica,sans-Serif" font-size="10.00" fill="#000000">get_input_offset</text>
</a>
</g>
</g>
<!-- Node68&#45;&gt;Node70 -->
<g id="edge9" class="edge">
<title>Node68&#45;&gt;Node70</title>
<path fill="none" stroke="#191970" d="M263.8388,-448.6733C270.2435,-416.6942 294.1777,-313.9474 348,-249.5 386.5654,-203.3214 404.2588,-193.403 462,-176.5 497.4031,-166.1362 510.8478,-162.5567 545,-176.5 571.9823,-187.516 594.4839,-213.5342 607.4739,-231.337"/>
<polygon fill="#191970" stroke="#191970" points="604.7747,-233.5847 613.3732,-239.7748 610.5117,-229.5737 604.7747,-233.5847"/>
</g>
<!-- Node71 -->
<g id="node10" class="node">
<title>Node71</title>
<g id="a_node10"><a xlink:href="heatshrink__encoder_8c.html#a9b311bf2b76215ba61eb648d970a5f11" target="_top" xlink:title="get_input_buffer_size">
<polygon fill="#ffffff" stroke="#000000" points="694,-240 694,-259 782,-259 782,-240 694,-240"/>
<text text-anchor="middle" x="738" y="-247" font-family="Helvetica,sans-Serif" font-size="10.00" fill="#000000">get_input_buffer_size</text>
</a>
</g>
</g>
<!-- Node68&#45;&gt;Node71 -->
<g id="edge11" class="edge">
<title>Node68&#45;&gt;Node71</title>
<path fill="none" stroke="#191970" d="M263.6821,-448.76C271.5478,-404.3459 306.0885,-221.588 348,-184.5 455.7658,-89.1367 648.5677,-193.5497 714.8645,-234.4945"/>
<polygon fill="#191970" stroke="#191970" points="713.0267,-237.4733 723.3577,-239.8234 716.7471,-231.5438 713.0267,-237.4733"/>
</g>
<!-- Node72 -->
<g id="node11" class="node">
<title>Node72</title>
<g id="a_node11"><a xlink:href="heatshrink__encoder_8c.html#a48adb993f0964026473c63b9667f8191" target="_top" xlink:title="find_longest_match">
<polygon fill="#ffffff" stroke="#000000" points="462.5,-202 462.5,-221 544.5,-221 544.5,-202 462.5,-202"/>
<text text-anchor="middle" x="503.5" y="-209" font-family="Helvetica,sans-Serif" font-size="10.00" fill="#000000">find_longest_match</text>
</a>
</g>
</g>
<!-- Node68&#45;&gt;Node72 -->
<g id="edge12" class="edge">
<title>Node68&#45;&gt;Node72</title>
<path fill="none" stroke="#191970" d="M266.9485,-448.7926C278.9153,-425.8473 311.1658,-367.0736 348,-325.5 391.7372,-276.1352 406.1925,-265.6475 462,-230.5 464.7491,-228.7686 467.6821,-227.1045 470.6696,-225.5304"/>
<polygon fill="#191970" stroke="#191970" points="472.2402,-228.6584 479.6661,-221.1015 469.1484,-222.3782 472.2402,-228.6584"/>
</g>
<!-- Node73 -->
<g id="node12" class="node">
<title>Node73</title>
<g id="a_node12"><a xlink:href="heatshrink__encoder_8c.html#a4d5eb19aee4b08addab0bdd80e1f62d8" target="_top" xlink:title="do_indexing">
<polygon fill="#ffffff" stroke="#000000" points="358.5,-335 358.5,-354 415.5,-354 415.5,-335 358.5,-335"/>
<text text-anchor="middle" x="387" y="-342" font-family="Helvetica,sans-Serif" font-size="10.00" fill="#000000">do_indexing</text>
</a>
</g>
</g>
<!-- Node68&#45;&gt;Node73 -->
<g id="edge13" class="edge">
<title>Node68&#45;&gt;Node73</title>
<path fill="none" stroke="#191970" d="M268.824,-448.7566C282.2222,-430.1875 313.6684,-389.2867 348,-363.5 350.055,-361.9564 352.2552,-360.4868 354.5253,-359.0988"/>
<polygon fill="#191970" stroke="#191970" points="356.4022,-362.0607 363.4681,-354.1662 353.0213,-355.9312 356.4022,-362.0607"/>
</g>
<!-- Node74 -->
<g id="node13" class="node">
<title>Node74</title>
<g id="a_node13"><a xlink:href="heatshrink__encoder_8c.html#a8e16d6d715ab36d730a793591afe2324" target="_top" xlink:title="st_step_search">
<polygon fill="#ffffff" stroke="#000000" points="353.5,-373 353.5,-392 420.5,-392 420.5,-373 353.5,-373"/>
<text text-anchor="middle" x="387" y="-380" font-family="Helvetica,sans-Serif" font-size="10.00" fill="#000000">st_step_search</text>
</a>
</g>
</g>
<!-- Node68&#45;&gt;Node74 -->
<g id="edge15" class="edge">
<title>Node68&#45;&gt;Node74</title>
<path fill="none" stroke="#191970" d="M277.8313,-448.8745C299.2458,-435.8546 337.6426,-412.5093 362.7178,-397.2636"/>
<polygon fill="#191970" stroke="#191970" points="364.5709,-400.2331 371.2972,-392.0473 360.9343,-394.2519 364.5709,-400.2331"/>
</g>
<!-- Node78 -->
<g id="node17" class="node">
<title>Node78</title>
<g id="a_node17"><a xlink:href="heatshrink__encoder_8c.html#a0d4c5f8a5ea97aa1fbe657dd8a5109ba" target="_top" xlink:title="st_yield_tag_bit">
<polygon fill="#ffffff" stroke="#000000" points="352.5,-544 352.5,-563 421.5,-563 421.5,-544 352.5,-544"/>
<text text-anchor="middle" x="387" y="-551" font-family="Helvetica,sans-Serif" font-size="10.00" fill="#000000">st_yield_tag_bit</text>
</a>
</g>
</g>
<!-- Node68&#45;&gt;Node78 -->
<g id="edge23" class="edge">
<title>Node68&#45;&gt;Node78</title>
<path fill="none" stroke="#191970" d="M296.1625,-468.0676C301.8033,-470.5745 307.3268,-473.6797 312,-477.5 335.1979,-496.464 325.6806,-514.5095 348,-534.5 349.6866,-536.0106 351.5149,-537.4284 353.4283,-538.7545"/>
<polygon fill="#191970" stroke="#191970" points="351.8068,-541.8627 362.1873,-543.9832 355.3949,-535.8521 351.8068,-541.8627"/>
</g>
<!-- Node82 -->
<g id="node21" class="node">
<title>Node82</title>
<g id="a_node21"><a xlink:href="heatshrink__encoder_8c.html#a2fc159c7d9a01f00a26cbd49712aec82" target="_top" xlink:title="st_yield_literal">
<polygon fill="#ffffff" stroke="#000000" points="355,-506 355,-525 419,-525 419,-506 355,-506"/>
<text text-anchor="middle" x="387" y="-513" font-family="Helvetica,sans-Serif" font-size="10.00" fill="#000000">st_yield_literal</text>
</a>
</g>
</g>
<!-- Node68&#45;&gt;Node82 -->
<g id="edge27" class="edge">
<title>Node68&#45;&gt;Node82</title>
<path fill="none" stroke="#191970" d="M288.9753,-468.0591C296.5048,-470.9135 304.6377,-474.1734 312,-477.5 328.4868,-484.9494 331.8658,-488.3149 348,-496.5 351.1862,-498.1164 354.5308,-499.7862 357.8656,-501.434"/>
<polygon fill="#191970" stroke="#191970" points="356.5783,-504.7008 367.0984,-505.9575 359.6582,-498.4147 356.5783,-504.7008"/>
</g>
<!-- Node85 -->
<g id="node24" class="node">
<title>Node85</title>
<g id="a_node24"><a xlink:href="heatshrink__encoder_8c.html#aa61e20c524c12e2672fd275b136d9848" target="_top" xlink:title="st_yield_br_index">
<polygon fill="#ffffff" stroke="#000000" points="349.5,-620 349.5,-639 424.5,-639 424.5,-620 349.5,-620"/>
<text text-anchor="middle" x="387" y="-627" font-family="Helvetica,sans-Serif" font-size="10.00" fill="#000000">st_yield_br_index</text>
</a>
</g>
</g>
<!-- Node68&#45;&gt;Node85 -->
<g id="edge33" class="edge">
<title>Node68&#45;&gt;Node85</title>
<path fill="none" stroke="#191970" d="M299.4767,-468.1129C304.1526,-470.5686 308.5089,-473.6458 312,-477.5 353.1108,-522.8875 308.9771,-563.3053 348,-610.5 348.9899,-611.6972 350.0734,-612.8247 351.229,-613.8862"/>
<polygon fill="#191970" stroke="#191970" points="349.5144,-616.9645 359.6746,-619.9681 353.6051,-611.2841 349.5144,-616.9645"/>
</g>
<!-- Node87 -->
<g id="node26" class="node">
<title>Node87</title>
<g id="a_node26"><a xlink:href="heatshrink__encoder_8c.html#a00a38065f94d12a3ba3a04c9472b4216" target="_top" xlink:title="st_yield_br_length">
<polygon fill="#ffffff" stroke="#000000" points="348.5,-658 348.5,-677 425.5,-677 425.5,-658 348.5,-658"/>
<text text-anchor="middle" x="387" y="-665" font-family="Helvetica,sans-Serif" font-size="10.00" fill="#000000">st_yield_br_length</text>
</a>
</g>
</g>
<!-- Node68&#45;&gt;Node87 -->
<g id="edge37" class="edge">
<title>Node68&#45;&gt;Node87</title>
<path fill="none" stroke="#191970" d="M300.1763,-468.2025C304.6315,-470.6408 308.7406,-473.6892 312,-477.5 362.4822,-536.5216 300.2299,-587.2626 348,-648.5 348.9265,-649.6877 349.9463,-650.8058 351.0391,-651.8579"/>
<polygon fill="#191970" stroke="#191970" points="348.992,-654.6974 359.0968,-657.8823 353.1836,-649.0911 348.992,-654.6974"/>
</g>
<!-- Node88 -->
<g id="node27" class="node">
<title>Node88</title>
<g id="a_node27"><a xlink:href="heatshrink__encoder_8c.html#ac2fd6f71c2f249ebc292fd45fbd83b65" target="_top" xlink:title="st_save_backlog">
<polygon fill="#ffffff" stroke="#000000" points="351,-468 351,-487 423,-487 423,-468 351,-468"/>
<text text-anchor="middle" x="387" y="-475" font-family="Helvetica,sans-Serif" font-size="10.00" fill="#000000">st_save_backlog</text>
</a>
</g>
</g>
<!-- Node68&#45;&gt;Node88 -->
<g id="edge40" class="edge">
<title>Node68&#45;&gt;Node88</title>
<path fill="none" stroke="#191970" d="M312.122,-466.1185C321.5993,-467.5591 331.472,-469.0597 340.8209,-470.4808"/>
<polygon fill="#191970" stroke="#191970" points="340.3039,-473.9423 350.7163,-471.9849 341.3558,-467.0218 340.3039,-473.9423"/>
</g>
<!-- Node91 -->
<g id="node30" class="node">
<title>Node91</title>
<g id="a_node30"><a xlink:href="heatshrink__encoder_8c.html#af02bd14a139872e09672fbadb61da8a1" target="_top" xlink:title="st_flush_bit_buffer">
<polygon fill="#ffffff" stroke="#000000" points="348,-582 348,-601 426,-601 426,-582 348,-582"/>
<text text-anchor="middle" x="387" y="-589" font-family="Helvetica,sans-Serif" font-size="10.00" fill="#000000">st_flush_bit_buffer</text>
</a>
</g>
</g>
<!-- Node68&#45;&gt;Node91 -->
<g id="edge46" class="edge">
<title>Node68&#45;&gt;Node91</title>
<path fill="none" stroke="#191970" d="M298.3774,-468.0519C303.3844,-470.5255 308.1277,-473.6241 312,-477.5 343.9127,-509.4421 317.5597,-539.1518 348,-572.5 349.1869,-573.8003 350.4822,-575.0215 351.8562,-576.1673"/>
<polygon fill="#191970" stroke="#191970" points="350.1348,-579.2283 360.3796,-581.9295 354.0554,-573.4292 350.1348,-579.2283"/>
</g>
<!-- Node70&#45;&gt;Node71 -->
<g id="edge10" class="edge">
<title>Node70&#45;&gt;Node71</title>
<path fill="none" stroke="#191970" d="M654.7331,-249.5C663.8473,-249.5 673.8743,-249.5 683.7171,-249.5"/>
<polygon fill="#191970" stroke="#191970" points="683.8618,-253.0001 693.8618,-249.5 683.8618,-246.0001 683.8618,-253.0001"/>
</g>
<!-- Node73&#45;&gt;Node70 -->
<g id="edge14" class="edge">
<title>Node73&#45;&gt;Node70</title>
<path fill="none" stroke="#191970" d="M388.311,-334.7009C392.6714,-306.5078 409.5195,-225.1264 462,-192.5 493.3283,-173.0236 510.0605,-180.667 545,-192.5 568.2096,-200.3605 589.8731,-218.6725 603.7898,-232.4344"/>
<polygon fill="#191970" stroke="#191970" points="601.5627,-235.1649 611.0416,-239.898 606.5832,-230.2869 601.5627,-235.1649"/>
</g>
<!-- Node74&#45;&gt;Node69 -->
<g id="edge18" class="edge">
<title>Node74&#45;&gt;Node69</title>
<path fill="none" stroke="#191970" d="M406.4995,-392.0405C425.1486,-401.165 453.4958,-415.0344 474.7376,-425.4274"/>
<polygon fill="#191970" stroke="#191970" points="473.4162,-428.6773 483.9369,-429.9284 476.4926,-422.3896 473.4162,-428.6773"/>
</g>
<!-- Node74&#45;&gt;Node70 -->
<g id="edge19" class="edge">
<title>Node74&#45;&gt;Node70</title>
<path fill="none" stroke="#191970" d="M408.1769,-372.9675C445.2611,-356.1666 520.3584,-321.6323 545,-306.5 564.9534,-294.2467 585.9941,-277.777 600.6064,-265.6924"/>
<polygon fill="#191970" stroke="#191970" points="602.9964,-268.2561 608.4103,-259.1489 598.4987,-262.8921 602.9964,-268.2561"/>
</g>
<!-- Node74&#45;&gt;Node71 -->
<g id="edge16" class="edge">
<title>Node74&#45;&gt;Node71</title>
<path fill="none" stroke="#191970" d="M420.5238,-375.443C452.8822,-368.2 503.0099,-355.8372 545,-340.5 606.4881,-318.041 675.0485,-283.2286 711.6204,-263.8182"/>
<polygon fill="#191970" stroke="#191970" points="713.4604,-266.8034 720.6305,-259.0033 710.1612,-260.6296 713.4604,-266.8034"/>
</g>
<!-- Node74&#45;&gt;Node72 -->
<g id="edge22" class="edge">
<title>Node74&#45;&gt;Node72</title>
<path fill="none" stroke="#191970" d="M414.3254,-372.9681C418.7059,-370.4494 422.8324,-367.3309 426,-363.5 465.0229,-316.3053 422.4138,-277.2232 462,-230.5 463.1269,-229.1699 464.3666,-227.9281 465.6914,-226.7693"/>
<polygon fill="#191970" stroke="#191970" points="467.7896,-229.5736 474.0165,-221.0017 463.8032,-223.8195 467.7896,-229.5736"/>
</g>
<!-- Node75 -->
<g id="node14" class="node">
<title>Node75</title>
<g id="a_node14"><a xlink:href="heatshrink__encoder_8c.html#a69da5fdbae8296d5c7190ab953de134d" target="_top" xlink:title="get_lookahead_size">
<polygon fill="#ffffff" stroke="#000000" points="462,-278 462,-297 545,-297 545,-278 462,-278"/>
<text text-anchor="middle" x="503.5" y="-285" font-family="Helvetica,sans-Serif" font-size="10.00" fill="#000000">get_lookahead_size</text>
</a>
</g>
</g>
<!-- Node74&#45;&gt;Node75 -->
<g id="edge17" class="edge">
<title>Node74&#45;&gt;Node75</title>
<path fill="none" stroke="#191970" d="M411.695,-372.849C416.7279,-370.2489 421.7708,-367.1299 426,-363.5 447.3298,-345.1925 441.3332,-330.5528 462,-311.5 465.6333,-308.1504 469.8137,-305.0636 474.0919,-302.2977"/>
<polygon fill="#191970" stroke="#191970" points="476.0536,-305.2036 482.867,-297.0901 472.4811,-299.1838 476.0536,-305.2036"/>
</g>
<!-- Node76 -->
<g id="node15" class="node">
<title>Node76</title>
<g id="a_node15"><a xlink:href="heatshrink__encoder_8c.html#afb59e31aab4a22a8b9640824e9da7426" target="_top" xlink:title="backlog_is_filled">
<polygon fill="#ffffff" stroke="#000000" points="467.5,-240 467.5,-259 539.5,-259 539.5,-240 467.5,-240"/>
<text text-anchor="middle" x="503.5" y="-247" font-family="Helvetica,sans-Serif" font-size="10.00" fill="#000000">backlog_is_filled</text>
</a>
</g>
</g>
<!-- Node74&#45;&gt;Node76 -->
<g id="edge20" class="edge">
<title>Node74&#45;&gt;Node76</title>
<path fill="none" stroke="#191970" d="M413.6204,-372.9295C418.177,-370.3963 422.5472,-367.2826 426,-363.5 456.4403,-330.1518 431.1619,-301.4807 462,-268.5 463.3395,-267.0675 464.8078,-265.7343 466.3677,-264.4948"/>
<polygon fill="#191970" stroke="#191970" points="468.2736,-267.4304 474.7556,-259.0497 464.4622,-261.559 468.2736,-267.4304"/>
</g>
<!-- Node77 -->
<g id="node16" class="node">
<title>Node77</title>
<g id="a_node16"><a xlink:href="heatshrink__encoder_8c.html#a52bfbd33b20249a9f61813fc28c64e57" target="_top" xlink:title="backlog_is_partial">
<polygon fill="#ffffff" stroke="#000000" points="581,-411 581,-430 658,-430 658,-411 581,-411"/>
<text text-anchor="middle" x="619.5" y="-418" font-family="Helvetica,sans-Serif" font-size="10.00" fill="#000000">backlog_is_partial</text>
</a>
</g>
</g>
<!-- Node74&#45;&gt;Node77 -->
<g id="edge21" class="edge">
<title>Node74&#45;&gt;Node77</title>
<path fill="none" stroke="#191970" d="M420.8075,-388.0255C460.1834,-394.4612 525.5586,-405.1461 570.4984,-412.4911"/>
<polygon fill="#191970" stroke="#191970" points="570.1726,-415.9842 580.6062,-414.1432 571.3017,-409.0759 570.1726,-415.9842"/>
</g>
<!-- Node79 -->
<g id="node18" class="node">
<title>Node79</title>
<g id="a_node18"><a xlink:href="heatshrink__encoder_8c.html#ad075b2bdf7d816dbf4eb8b1e16d1586a" target="_top" xlink:title="can_take_byte">
<polygon fill="#ffffff" stroke="#000000" points="471,-658 471,-677 536,-677 536,-658 471,-658"/>
<text text-anchor="middle" x="503.5" y="-665" font-family="Helvetica,sans-Serif" font-size="10.00" fill="#000000">can_take_byte</text>
</a>
</g>
</g>
<!-- Node78&#45;&gt;Node79 -->
<g id="edge24" class="edge">
<title>Node78&#45;&gt;Node79</title>
<path fill="none" stroke="#191970" d="M412.9754,-563.0789C417.6966,-565.6326 422.2925,-568.7517 426,-572.5 452.2833,-599.0731 435.3999,-622.2441 462,-648.5 463.4381,-649.9195 465.0014,-651.2447 466.6508,-652.4803"/>
<polygon fill="#191970" stroke="#191970" points="465.0915,-655.6319 475.4333,-657.9338 468.7842,-649.6851 465.0915,-655.6319"/>
</g>
<!-- Node80 -->
<g id="node19" class="node">
<title>Node80</title>
<g id="a_node19"><a xlink:href="heatshrink__encoder_8c.html#a5d06eacaa1ca17bfe5537537dffa9d6e" target="_top" xlink:title="add_tag_bit">
<polygon fill="#ffffff" stroke="#000000" points="475.5,-620 475.5,-639 531.5,-639 531.5,-620 475.5,-620"/>
<text text-anchor="middle" x="503.5" y="-627" font-family="Helvetica,sans-Serif" font-size="10.00" fill="#000000">add_tag_bit</text>
</a>
</g>
</g>
<!-- Node78&#45;&gt;Node80 -->
<g id="edge25" class="edge">
<title>Node78&#45;&gt;Node80</title>
<path fill="none" stroke="#191970" d="M410.0656,-563.04C415.5112,-565.7444 421.1416,-568.9362 426,-572.5 444.7588,-586.2602 443.0775,-596.9658 462,-610.5 464.3565,-612.1855 466.8864,-613.7771 469.4921,-615.2672"/>
<polygon fill="#191970" stroke="#191970" points="468.012,-618.4421 478.5016,-619.9318 471.2305,-612.2259 468.012,-618.4421"/>
</g>
<!-- Node81 -->
<g id="node20" class="node">
<title>Node81</title>
<g id="a_node20"><a xlink:href="heatshrink__encoder_8c.html#a5219dc6b7b93fcd90ee72f9948c58f54" target="_top" xlink:title="push_bits">
<polygon fill="#ffffff" stroke="#000000" points="595,-620 595,-639 644,-639 644,-620 595,-620"/>
<text text-anchor="middle" x="619.5" y="-627" font-family="Helvetica,sans-Serif" font-size="10.00" fill="#000000">push_bits</text>
</a>
</g>
</g>
<!-- Node80&#45;&gt;Node81 -->
<g id="edge26" class="edge">
<title>Node80&#45;&gt;Node81</title>
<path fill="none" stroke="#191970" d="M531.5804,-629.5C547.5722,-629.5 567.743,-629.5 584.7293,-629.5"/>
<polygon fill="#191970" stroke="#191970" points="584.8284,-633.0001 594.8284,-629.5 584.8284,-626.0001 584.8284,-633.0001"/>
</g>
<!-- Node82&#45;&gt;Node79 -->
<g id="edge28" class="edge">
<title>Node82&#45;&gt;Node79</title>
<path fill="none" stroke="#191970" d="M414.1951,-525.1419C418.5888,-527.6495 422.7535,-530.7357 426,-534.5 460.701,-574.7362 426.8188,-608.683 462,-648.5 463.1543,-649.8064 464.4167,-651.0286 465.7601,-652.1714"/>
<polygon fill="#191970" stroke="#191970" points="463.9146,-655.1491 474.1509,-657.882 467.8531,-649.3621 463.9146,-655.1491"/>
</g>
<!-- Node83 -->
<g id="node22" class="node">
<title>Node83</title>
<g id="a_node22"><a xlink:href="heatshrink__encoder_8c.html#aa6b6e74207f47dbfc49a8d7c640ef9cd" target="_top" xlink:title="push_literal_byte">
<polygon fill="#ffffff" stroke="#000000" points="467,-544 467,-563 540,-563 540,-544 467,-544"/>
<text text-anchor="middle" x="503.5" y="-551" font-family="Helvetica,sans-Serif" font-size="10.00" fill="#000000">push_literal_byte</text>
</a>
</g>
</g>
<!-- Node82&#45;&gt;Node83 -->
<g id="edge29" class="edge">
<title>Node82&#45;&gt;Node83</title>
<path fill="none" stroke="#191970" d="M416.3979,-525.089C430.885,-529.8144 448.5576,-535.5789 464.1886,-540.6774"/>
<polygon fill="#191970" stroke="#191970" points="463.5191,-544.1405 474.1115,-543.9141 465.6899,-537.4855 463.5191,-544.1405"/>
</g>
<!-- Node84 -->
<g id="node23" class="node">
<title>Node84</title>
<g id="a_node23"><a xlink:href="heatshrink__encoder_8c.html#a3609038125fab3c5b7a5914490d82fa2" target="_top" xlink:title="on_final_literal">
<polygon fill="#ffffff" stroke="#000000" points="471,-582 471,-601 536,-601 536,-582 471,-582"/>
<text text-anchor="middle" x="503.5" y="-589" font-family="Helvetica,sans-Serif" font-size="10.00" fill="#000000">on_final_literal</text>
</a>
</g>
</g>
<!-- Node82&#45;&gt;Node84 -->
<g id="edge32" class="edge">
<title>Node82&#45;&gt;Node84</title>
<path fill="none" stroke="#191970" d="M410.0656,-525.04C415.5112,-527.7444 421.1416,-530.9362 426,-534.5 444.7588,-548.2602 443.0775,-558.9658 462,-572.5 464.3565,-574.1855 466.8864,-575.7771 469.4921,-577.2672"/>
<polygon fill="#191970" stroke="#191970" points="468.012,-580.4421 478.5016,-581.9318 471.2305,-574.2259 468.012,-580.4421"/>
</g>
<!-- Node83&#45;&gt;Node70 -->
<g id="edge30" class="edge">
<title>Node83&#45;&gt;Node70</title>
<path fill="none" stroke="#191970" d="M533.4331,-543.7851C537.7771,-541.3164 541.8404,-538.2621 545,-534.5 547.2059,-531.8735 598.0725,-333.3503 614.4613,-269.2312"/>
<polygon fill="#191970" stroke="#191970" points="617.9381,-269.762 617.0225,-259.2068 611.1559,-268.0292 617.9381,-269.762"/>
</g>
<!-- Node83&#45;&gt;Node81 -->
<g id="edge31" class="edge">
<title>Node83&#45;&gt;Node81</title>
<path fill="none" stroke="#191970" d="M526.8019,-563.0615C532.8659,-565.8464 539.2951,-569.0708 545,-572.5 565.0689,-584.5633 586.0953,-601.0564 600.673,-613.198"/>
<polygon fill="#191970" stroke="#191970" points="598.5588,-615.9938 608.4549,-619.7776 603.0784,-610.6484 598.5588,-615.9938"/>
</g>
<!-- Node85&#45;&gt;Node79 -->
<g id="edge34" class="edge">
<title>Node85&#45;&gt;Node79</title>
<path fill="none" stroke="#191970" d="M416.3979,-639.089C430.885,-643.8144 448.5576,-649.5789 464.1886,-654.6774"/>
<polygon fill="#191970" stroke="#191970" points="463.5191,-658.1405 474.1115,-657.9141 465.6899,-651.4855 463.5191,-658.1405"/>
</g>
<!-- Node86 -->
<g id="node25" class="node">
<title>Node86</title>
<g id="a_node25"><a xlink:href="heatshrink__encoder_8c.html#ac7c4eed81d350c335b605fa016466f82" target="_top" xlink:title="push_outgoing_bits">
<polygon fill="#ffffff" stroke="#000000" points="462.5,-696 462.5,-715 544.5,-715 544.5,-696 462.5,-696"/>
<text text-anchor="middle" x="503.5" y="-703" font-family="Helvetica,sans-Serif" font-size="10.00" fill="#000000">push_outgoing_bits</text>
</a>
</g>
</g>
<!-- Node85&#45;&gt;Node86 -->
<g id="edge35" class="edge">
<title>Node85&#45;&gt;Node86</title>
<path fill="none" stroke="#191970" d="M410.0656,-639.04C415.5112,-641.7444 421.1416,-644.9362 426,-648.5 444.7588,-662.2602 443.0775,-672.9658 462,-686.5 464.3565,-688.1855 466.8864,-689.7771 469.4921,-691.2672"/>
<polygon fill="#191970" stroke="#191970" points="468.012,-694.4421 478.5016,-695.9318 471.2305,-688.2259 468.012,-694.4421"/>
</g>
<!-- Node86&#45;&gt;Node81 -->
<g id="edge36" class="edge">
<title>Node86&#45;&gt;Node81</title>
<path fill="none" stroke="#191970" d="M526.8019,-695.9385C532.8659,-693.1536 539.2951,-689.9292 545,-686.5 565.0689,-674.4367 586.0953,-657.9436 600.673,-645.802"/>
<polygon fill="#191970" stroke="#191970" points="603.0784,-648.3516 608.4549,-639.2224 598.5588,-643.0062 603.0784,-648.3516"/>
</g>
<!-- Node87&#45;&gt;Node79 -->
<g id="edge38" class="edge">
<title>Node87&#45;&gt;Node79</title>
<path fill="none" stroke="#191970" d="M425.7928,-667.5C436.9419,-667.5 449.1654,-667.5 460.5498,-667.5"/>
<polygon fill="#191970" stroke="#191970" points="460.714,-671.0001 470.714,-667.5 460.7139,-664.0001 460.714,-671.0001"/>
</g>
<!-- Node87&#45;&gt;Node86 -->
<g id="edge39" class="edge">
<title>Node87&#45;&gt;Node86</title>
<path fill="none" stroke="#191970" d="M416.3979,-677.089C430.885,-681.8144 448.5576,-687.5789 464.1886,-692.6774"/>
<polygon fill="#191970" stroke="#191970" points="463.5191,-696.1405 474.1115,-695.9141 465.6899,-689.4855 463.5191,-696.1405"/>
</g>
<!-- Node88&#45;&gt;Node69 -->
<g id="edge41" class="edge">
<title>Node88&#45;&gt;Node69</title>
<path fill="none" stroke="#191970" d="M416.3979,-467.911C431.5812,-462.9585 450.2635,-456.8647 466.4273,-451.5924"/>
<polygon fill="#191970" stroke="#191970" points="467.6907,-454.8619 476.1123,-448.4333 465.5199,-448.2069 467.6907,-454.8619"/>
</g>
<!-- Node89 -->
<g id="node28" class="node">
<title>Node89</title>
<g id="a_node28"><a xlink:href="heatshrink__encoder_8c.html#a5016697d0c014235c56cfc3c7131a604" target="_top" xlink:title="has_literal">
<polygon fill="#ffffff" stroke="#000000" points="478,-468 478,-487 529,-487 529,-468 478,-468"/>
<text text-anchor="middle" x="503.5" y="-475" font-family="Helvetica,sans-Serif" font-size="10.00" fill="#000000">has_literal</text>
</a>
</g>
</g>
<!-- Node88&#45;&gt;Node89 -->
<g id="edge42" class="edge">
<title>Node88&#45;&gt;Node89</title>
<path fill="none" stroke="#191970" d="M423.2227,-477.5C437.2746,-477.5 453.3322,-477.5 467.3748,-477.5"/>
<polygon fill="#191970" stroke="#191970" points="467.6539,-481.0001 477.6539,-477.5 467.6539,-474.0001 467.6539,-481.0001"/>
</g>
<!-- Node90 -->
<g id="node29" class="node">
<title>Node90</title>
<g id="a_node29"><a xlink:href="heatshrink__encoder_8c.html#a20f6276833bfa75c34ca574dc4fac9b8" target="_top" xlink:title="save_backlog">
<polygon fill="#ffffff" stroke="#000000" points="472.5,-506 472.5,-525 534.5,-525 534.5,-506 472.5,-506"/>
<text text-anchor="middle" x="503.5" y="-513" font-family="Helvetica,sans-Serif" font-size="10.00" fill="#000000">save_backlog</text>
</a>
</g>
</g>
<!-- Node88&#45;&gt;Node90 -->
<g id="edge43" class="edge">
<title>Node88&#45;&gt;Node90</title>
<path fill="none" stroke="#191970" d="M416.3979,-487.089C430.885,-491.8144 448.5576,-497.5789 464.1886,-502.6774"/>
<polygon fill="#191970" stroke="#191970" points="463.5191,-506.1405 474.1115,-505.9141 465.6899,-499.4855 463.5191,-506.1405"/>
</g>
<!-- Node90&#45;&gt;Node71 -->
<g id="edge44" class="edge">
<title>Node90&#45;&gt;Node71</title>
<path fill="none" stroke="#191970" d="M534.8043,-507.3738C569.2274,-496.9591 624.1372,-475.7714 658,-439.5 705.1467,-388.9998 726.6782,-306.6306 734.418,-269.165"/>
<polygon fill="#191970" stroke="#191970" points="737.9089,-269.5498 736.3903,-259.0643 731.0387,-268.2082 737.9089,-269.5498"/>
</g>
<!-- Node90&#45;&gt;Node77 -->
<g id="edge45" class="edge">
<title>Node90&#45;&gt;Node77</title>
<path fill="none" stroke="#191970" d="M528.4542,-505.8695C534.114,-503.2043 539.9423,-500.0527 545,-496.5 568.9475,-479.6785 591.7808,-454.5791 605.7114,-437.8845"/>
<polygon fill="#191970" stroke="#191970" points="608.5288,-439.9679 612.1434,-430.0087 603.1071,-435.5401 608.5288,-439.9679"/>
</g>
<!-- Node91&#45;&gt;Node79 -->
<g id="edge47" class="edge">
<title>Node91&#45;&gt;Node79</title>
<path fill="none" stroke="#191970" d="M410.0656,-601.04C415.5112,-603.7444 421.1416,-606.9362 426,-610.5 444.7588,-624.2602 443.0775,-634.9658 462,-648.5 464.3565,-650.1855 466.8864,-651.7771 469.4921,-653.2672"/>
<polygon fill="#191970" stroke="#191970" points="468.012,-656.4421 478.5016,-657.9318 471.2305,-650.2259 468.012,-656.4421"/>
</g>
<!-- Node92&#45;&gt;Node73 -->
<g id="edge50" class="edge">
<title>Node92&#45;&gt;Node73</title>
<path fill="none" stroke="#191970" d="M299.5897,-524.9878C304.249,-522.5173 308.5706,-519.4092 312,-515.5 357.7828,-463.311 304.6165,-417.6998 348,-363.5 348.9413,-362.324 349.9736,-361.2158 351.0768,-360.172"/>
<polygon fill="#191970" stroke="#191970" points="353.2183,-362.9415 359.1768,-354.1809 349.0557,-357.3136 353.2183,-362.9415"/>
</g>
<!-- Node92&#45;&gt;Node74 -->
<g id="edge51" class="edge">
<title>Node92&#45;&gt;Node74</title>
<path fill="none" stroke="#191970" d="M296.8426,-524.8899C302.2837,-522.4022 307.5643,-519.3145 312,-515.5 321.6954,-507.1625 359.3829,-435.8362 377.358,-401.2099"/>
<polygon fill="#191970" stroke="#191970" points="380.5719,-402.6144 382.0589,-392.1245 374.3549,-399.3976 380.5719,-402.6144"/>
</g>
<!-- Node92&#45;&gt;Node78 -->
<g id="edge52" class="edge">
<title>Node92&#45;&gt;Node78</title>
<path fill="none" stroke="#191970" d="M311.0445,-541.9548C321.4067,-543.5298 332.287,-545.1836 342.4714,-546.7317"/>
<polygon fill="#191970" stroke="#191970" points="341.9665,-550.195 352.3789,-548.2376 343.0185,-543.2745 341.9665,-550.195"/>
</g>
<!-- Node92&#45;&gt;Node82 -->
<g id="edge53" class="edge">
<title>Node92&#45;&gt;Node82</title>
<path fill="none" stroke="#191970" d="M311.0445,-527.0452C322.1367,-525.3592 333.8224,-523.583 344.6128,-521.9428"/>
<polygon fill="#191970" stroke="#191970" points="345.2749,-525.3825 354.6354,-520.4194 344.223,-518.462 345.2749,-525.3825"/>
</g>
<!-- Node92&#45;&gt;Node85 -->
<g id="edge54" class="edge">
<title>Node92&#45;&gt;Node85</title>
<path fill="none" stroke="#191970" d="M294.3134,-544.0033C300.5819,-546.7587 306.8083,-550.2153 312,-554.5 334.82,-573.3335 325.8808,-590.8481 348,-610.5 349.6926,-612.0038 351.5256,-613.4165 353.4425,-614.7386"/>
<polygon fill="#191970" stroke="#191970" points="351.8268,-617.85 362.2099,-619.9579 355.4075,-611.8351 351.8268,-617.85"/>
</g>
<!-- Node92&#45;&gt;Node87 -->
<g id="edge55" class="edge">
<title>Node92&#45;&gt;Node87</title>
<path fill="none" stroke="#191970" d="M296.8438,-544.0579C302.412,-546.7514 307.7347,-550.1713 312,-554.5 343.3994,-586.3663 317.7816,-615.5116 348,-648.5 349.1892,-649.7982 350.4863,-651.0177 351.8619,-652.1621"/>
<polygon fill="#191970" stroke="#191970" points="350.1438,-655.2252 360.3903,-657.9197 354.0606,-649.4235 350.1438,-655.2252"/>
</g>
<!-- Node92&#45;&gt;Node88 -->
<g id="edge56" class="edge">
<title>Node92&#45;&gt;Node88</title>
<path fill="none" stroke="#191970" d="M288.9753,-524.9409C296.5048,-522.0865 304.6377,-518.8266 312,-515.5 328.4868,-508.0506 331.8658,-504.6851 348,-496.5 351.1862,-494.8836 354.5308,-493.2138 357.8656,-491.566"/>
<polygon fill="#191970" stroke="#191970" points="359.6582,-494.5853 367.0984,-487.0425 356.5783,-488.2992 359.6582,-494.5853"/>
</g>
<!-- Node92&#45;&gt;Node91 -->
<g id="edge57" class="edge">
<title>Node92&#45;&gt;Node91</title>
<path fill="none" stroke="#191970" d="M287.0954,-544.0656C295.1121,-547.247 303.983,-550.8998 312,-554.5 328.3186,-561.8282 331.959,-564.5826 348,-572.5 351.2038,-574.0813 354.5594,-575.729 357.9005,-577.3641"/>
<polygon fill="#191970" stroke="#191970" points="356.6184,-580.6329 367.1403,-581.8737 359.6887,-574.3422 356.6184,-580.6329"/>
</g>
<!-- Node97&#45;&gt;Node71 -->
<g id="edge64" class="edge">
<title>Node97&#45;&gt;Node71</title>
<path fill="none" stroke="#191970" d="M157.7212,-212.4961C163.8576,-209.3339 170.1909,-205.9165 176,-202.5 273.6488,-145.0693 273.7146,-59.5 387,-59.5 387,-59.5 387,-59.5 503.5,-59.5 611.8356,-59.5 698.1391,-183.4337 727.3331,-231.1134"/>
<polygon fill="#191970" stroke="#191970" points="724.4034,-233.0337 732.5423,-239.8167 730.4097,-229.4387 724.4034,-233.0337"/>
</g>
<!-- Node98 -->
<g id="node37" class="node">
<title>Node98</title>
<g id="a_node37"><a xlink:href="heatshrink__encoder_8c.html#a6083507c44c02daee20030e81e015987" target="_top" xlink:title="heatshrink_encoder\l_reset">
<polygon fill="#ffffff" stroke="#000000" points="221,-.5 221,-30.5 303,-30.5 303,-.5 221,-.5"/>
<text text-anchor="start" x="229" y="-18.5" font-family="Helvetica,sans-Serif" font-size="10.00" fill="#000000">heatshrink_encoder</text>
<text text-anchor="middle" x="262" y="-7.5" font-family="Helvetica,sans-Serif" font-size="10.00" fill="#000000">_reset</text>
</a>
</g>
</g>
<!-- Node97&#45;&gt;Node98 -->
<g id="edge63" class="edge">
<title>Node97&#45;&gt;Node98</title>
<path fill="none" stroke="#191970" d="M165.308,-212.3513C169.3358,-209.5536 173.0324,-206.2903 176,-202.5 220.1327,-146.133 169.9461,-103.4345 212,-45.5 214.3415,-42.2743 217.1456,-39.3311 220.2146,-36.6599"/>
<polygon fill="#191970" stroke="#191970" points="222.4038,-39.3926 228.2762,-30.5742 218.1863,-33.8058 222.4038,-39.3926"/>
</g>
</g>
</svg>
