<?xml version="1.0" encoding="UTF-8" standalone="no"?>
<!DOCTYPE svg PUBLIC "-//W3C//DTD SVG 1.1//EN"
 "http://www.w3.org/Graphics/SVG/1.1/DTD/svg11.dtd">
<!-- Generated by graphviz version 2.40.1 (20161225.0304)
 -->
<!-- Title: save_backlog Pages: 1 -->
<svg width="194pt" height="66pt"
 viewBox="0.00 0.00 194.00 66.00" xmlns="http://www.w3.org/2000/svg" xmlns:xlink="http://www.w3.org/1999/xlink">
<g id="graph0" class="graph" transform="scale(1 1) rotate(0) translate(4 62)">
<title>save_backlog</title>
<polygon fill="#ffffff" stroke="transparent" points="-4,4 -4,-62 190,-62 190,4 -4,4"/>
<!-- Node707 -->
<g id="node1" class="node">
<title>Node707</title>
<polygon fill="#bfbfbf" stroke="#000000" points="0,-19.5 0,-38.5 62,-38.5 62,-19.5 0,-19.5"/>
<text text-anchor="middle" x="31" y="-26.5" font-family="Helvetica,sans-Serif" font-size="10.00" fill="#000000">save_backlog</text>
</g>
<!-- Node708 -->
<g id="node2" class="node">
<title>Node708</title>
<g id="a_node2"><a xlink:href="heatshrink__encoder_8c.html#a52bfbd33b20249a9f61813fc28c64e57" target="_top" xlink:title="backlog_is_partial">
<polygon fill="#ffffff" stroke="#000000" points="103.5,-38.5 103.5,-57.5 180.5,-57.5 180.5,-38.5 103.5,-38.5"/>
<text text-anchor="middle" x="142" y="-45.5" font-family="Helvetica,sans-Serif" font-size="10.00" fill="#000000">backlog_is_partial</text>
</a>
</g>
</g>
<!-- Node707&#45;&gt;Node708 -->
<g id="edge1" class="edge">
<title>Node707&#45;&gt;Node708</title>
<path fill="none" stroke="#191970" d="M62.2151,-34.3431C71.8366,-35.99 82.671,-37.8446 93.181,-39.6436"/>
<polygon fill="#191970" stroke="#191970" points="92.661,-43.1054 103.1082,-41.3428 93.842,-36.2058 92.661,-43.1054"/>
</g>
<!-- Node709 -->
<g id="node3" class="node">
<title>Node709</title>
<g id="a_node3"><a xlink:href="heatshrink__encoder_8c.html#a9b311bf2b76215ba61eb648d970a5f11" target="_top" xlink:title="get_input_buffer_size">
<polygon fill="#ffffff" stroke="#000000" points="98,-.5 98,-19.5 186,-19.5 186,-.5 98,-.5"/>
<text text-anchor="middle" x="142" y="-7.5" font-family="Helvetica,sans-Serif" font-size="10.00" fill="#000000">get_input_buffer_size</text>
</a>
</g>
</g>
<!-- Node707&#45;&gt;Node709 -->
<g id="edge2" class="edge">
<title>Node707&#45;&gt;Node709</title>
<path fill="none" stroke="#191970" d="M62.2151,-23.6569C70.2285,-22.2852 79.0832,-20.7695 87.8912,-19.2619"/>
<polygon fill="#191970" stroke="#191970" points="88.5024,-22.7082 97.7685,-17.5712 87.3213,-15.8086 88.5024,-22.7082"/>
</g>
</g>
</svg>
