<?xml version="1.0" encoding="UTF-8" standalone="no"?>
<!DOCTYPE svg PUBLIC "-//W3C//DTD SVG 1.1//EN"
 "http://www.w3.org/Graphics/SVG/1.1/DTD/svg11.dtd">
<!-- Generated by graphviz version 2.40.1 (20161225.0304)
 -->
<!-- Title: handle_close Pages: 1 -->
<svg width="325pt" height="66pt"
 viewBox="0.00 0.00 325.00 66.00" xmlns="http://www.w3.org/2000/svg" xmlns:xlink="http://www.w3.org/1999/xlink">
<g id="graph0" class="graph" transform="scale(1 1) rotate(0) translate(4 62)">
<title>handle_close</title>
<polygon fill="#ffffff" stroke="transparent" points="-4,4 -4,-62 321,-62 321,4 -4,4"/>
<!-- Node136 -->
<g id="node1" class="node">
<title>Node136</title>
<polygon fill="#bfbfbf" stroke="#000000" points="0,-19.5 0,-38.5 61,-38.5 61,-19.5 0,-19.5"/>
<text text-anchor="middle" x="30.5" y="-26.5" font-family="Helvetica,sans-Serif" font-size="10.00" fill="#000000">handle_close</text>
</g>
<!-- Node137 -->
<g id="node2" class="node">
<title>Node137</title>
<g id="a_node2"><a xlink:href="heatshrink_8c.html#ab458cc219445a92b0d1ba2bdbc4d5d6f" target="_top" xlink:title="close_and_report">
<polygon fill="#ffffff" stroke="#000000" points="97,-19.5 97,-38.5 171,-38.5 171,-19.5 97,-19.5"/>
<text text-anchor="middle" x="134" y="-26.5" font-family="Helvetica,sans-Serif" font-size="10.00" fill="#000000">close_and_report</text>
</a>
</g>
</g>
<!-- Node136&#45;&gt;Node137 -->
<g id="edge1" class="edge">
<title>Node136&#45;&gt;Node137</title>
<path fill="none" stroke="#191970" d="M71.3191,-29C79.7737,-29 88.6361,-29 96.947,-29"/>
<polygon fill="#191970" stroke="#191970" points="71.2732,-25.5001 61.2732,-29 71.2732,-32.5001 71.2732,-25.5001"/>
</g>
<!-- Node138 -->
<g id="node3" class="node">
<title>Node138</title>
<g id="a_node3"><a xlink:href="heatshrink_8c.html#a92d9515cb2f33eea4832becaa17c11bb" target="_top" xlink:title="decode">
<polygon fill="#ffffff" stroke="#000000" points="207,-38.5 207,-57.5 248,-57.5 248,-38.5 207,-38.5"/>
<text text-anchor="middle" x="227.5" y="-45.5" font-family="Helvetica,sans-Serif" font-size="10.00" fill="#000000">decode</text>
</a>
</g>
</g>
<!-- Node137&#45;&gt;Node138 -->
<g id="edge2" class="edge">
<title>Node137&#45;&gt;Node138</title>
<path fill="none" stroke="#191970" d="M181.2945,-38.6106C190.2679,-40.4341 199.2146,-42.2522 206.8119,-43.796"/>
<polygon fill="#191970" stroke="#191970" points="181.7191,-35.1255 171.2223,-36.5639 180.325,-41.9853 181.7191,-35.1255"/>
</g>
<!-- Node140 -->
<g id="node5" class="node">
<title>Node140</title>
<g id="a_node5"><a xlink:href="heatshrink_8c.html#a37f19023beced8a782d3051bfd7a0bcb" target="_top" xlink:title="encode">
<polygon fill="#ffffff" stroke="#000000" points="207,-.5 207,-19.5 248,-19.5 248,-.5 207,-.5"/>
<text text-anchor="middle" x="227.5" y="-7.5" font-family="Helvetica,sans-Serif" font-size="10.00" fill="#000000">encode</text>
</a>
</g>
</g>
<!-- Node137&#45;&gt;Node140 -->
<g id="edge4" class="edge">
<title>Node137&#45;&gt;Node140</title>
<path fill="none" stroke="#191970" d="M181.2945,-19.3894C190.2679,-17.5659 199.2146,-15.7478 206.8119,-14.204"/>
<polygon fill="#191970" stroke="#191970" points="180.325,-16.0147 171.2223,-21.4361 181.7191,-22.8745 180.325,-16.0147"/>
</g>
<!-- Node139 -->
<g id="node4" class="node">
<title>Node139</title>
<g id="a_node4"><a xlink:href="heatshrink_8c.html#a3c04138a5bfe5d72780bb7e82a18e627" target="_top" xlink:title="main">
<polygon fill="#ffffff" stroke="#000000" points="284,-19.5 284,-38.5 317,-38.5 317,-19.5 284,-19.5"/>
<text text-anchor="middle" x="300.5" y="-26.5" font-family="Helvetica,sans-Serif" font-size="10.00" fill="#000000">main</text>
</a>
</g>
</g>
<!-- Node138&#45;&gt;Node139 -->
<g id="edge3" class="edge">
<title>Node138&#45;&gt;Node139</title>
<path fill="none" stroke="#191970" d="M257.9338,-40.0789C266.8236,-37.7651 276.2073,-35.3228 283.8952,-33.3218"/>
<polygon fill="#191970" stroke="#191970" points="257.0196,-36.7001 248.2236,-42.6062 258.7828,-43.4744 257.0196,-36.7001"/>
</g>
<!-- Node140&#45;&gt;Node139 -->
<g id="edge5" class="edge">
<title>Node140&#45;&gt;Node139</title>
<path fill="none" stroke="#191970" d="M257.9338,-17.9211C266.8236,-20.2349 276.2073,-22.6772 283.8952,-24.6782"/>
<polygon fill="#191970" stroke="#191970" points="258.7828,-14.5256 248.2236,-15.3938 257.0196,-21.2999 258.7828,-14.5256"/>
</g>
</g>
</svg>
