<?xml version="1.0" encoding="UTF-8" standalone="no"?>
<!DOCTYPE svg PUBLIC "-//W3C//DTD SVG 1.1//EN"
 "http://www.w3.org/Graphics/SVG/1.1/DTD/svg11.dtd">
<!-- Generated by graphviz version 2.40.1 (20161225.0304)
 -->
<!-- Title: hmac_sha256_init Pages: 1 -->
<svg width="495pt" height="151pt"
 viewBox="0.00 0.00 495.00 150.50" xmlns="http://www.w3.org/2000/svg" xmlns:xlink="http://www.w3.org/1999/xlink">
<g id="graph0" class="graph" transform="scale(1 1) rotate(0) translate(4 146.5)">
<title>hmac_sha256_init</title>
<polygon fill="#ffffff" stroke="transparent" points="-4,4 -4,-146.5 491,-146.5 491,4 -4,4"/>
<!-- Node32 -->
<g id="node1" class="node">
<title>Node32</title>
<polygon fill="#bfbfbf" stroke="#000000" points="0,-66 0,-85 77,-85 77,-66 0,-66"/>
<text text-anchor="middle" x="38.5" y="-73" font-family="Helvetica,sans-Serif" font-size="10.00" fill="#000000">hmac_sha256_init</text>
</g>
<!-- Node33 -->
<g id="node2" class="node">
<title>Node33</title>
<g id="a_node2"><a xlink:href="crypto_8h.html#a0d1e89f74b522d69161f6b213fc5abc7" target="_top" xlink:title="decrypt_aes_hmac_combined">
<polygon fill="#ffffff" stroke="#000000" points="113,-104 113,-123 230,-123 230,-104 113,-104"/>
<text text-anchor="middle" x="171.5" y="-111" font-family="Helvetica,sans-Serif" font-size="10.00" fill="#000000">decrypt_aes_hmac_combined</text>
</a>
</g>
</g>
<!-- Node32&#45;&gt;Node33 -->
<g id="edge1" class="edge">
<title>Node32&#45;&gt;Node33</title>
<path fill="none" stroke="#191970" d="M81.8669,-87.8906C100.0807,-93.0945 120.9393,-99.0541 137.9492,-103.9141"/>
<polygon fill="#191970" stroke="#191970" points="82.6383,-84.471 72.0615,-85.089 80.7152,-91.2016 82.6383,-84.471"/>
</g>
<!-- Node34 -->
<g id="node3" class="node">
<title>Node34</title>
<g id="a_node3"><a xlink:href="crypto_8h.html#a7991ec94c8faa24921947687f2d587a0" target="_top" xlink:title="encrypt_aes_hmac_combined">
<polygon fill="#ffffff" stroke="#000000" points="113,-66 113,-85 230,-85 230,-66 113,-66"/>
<text text-anchor="middle" x="171.5" y="-73" font-family="Helvetica,sans-Serif" font-size="10.00" fill="#000000">encrypt_aes_hmac_combined</text>
</a>
</g>
</g>
<!-- Node32&#45;&gt;Node34 -->
<g id="edge2" class="edge">
<title>Node32&#45;&gt;Node34</title>
<path fill="none" stroke="#191970" d="M87.4464,-75.5C95.6295,-75.5 104.1944,-75.5 112.5956,-75.5"/>
<polygon fill="#191970" stroke="#191970" points="87.3267,-72.0001 77.3266,-75.5 87.3266,-79.0001 87.3267,-72.0001"/>
</g>
<!-- Node42 -->
<g id="node11" class="node">
<title>Node42</title>
<g id="a_node11"><a xlink:href="hmac-sha256_8h.html#acdadc130fbf78b5f98339c203a057796" target="_top" xlink:title="hmac_sha256">
<polygon fill="#ffffff" stroke="#000000" points="139.5,-28 139.5,-47 203.5,-47 203.5,-28 139.5,-28"/>
<text text-anchor="middle" x="171.5" y="-35" font-family="Helvetica,sans-Serif" font-size="10.00" fill="#000000">hmac_sha256</text>
</a>
</g>
</g>
<!-- Node32&#45;&gt;Node42 -->
<g id="edge11" class="edge">
<title>Node32&#45;&gt;Node42</title>
<path fill="none" stroke="#191970" d="M81.8399,-63.1172C100.5544,-57.7702 122.0652,-51.6242 139.3256,-46.6927"/>
<polygon fill="#191970" stroke="#191970" points="80.7152,-59.7984 72.0615,-65.911 82.6383,-66.529 80.7152,-59.7984"/>
</g>
<!-- Node35 -->
<g id="node4" class="node">
<title>Node35</title>
<g id="a_node4"><a xlink:href="en61107__request_8c.html#aa3b162cf5364986ea19e831ac2b18f76" target="_top" xlink:title="en61107_received_task">
<polygon fill="#ffffff" stroke="#000000" points="266,-123 266,-142 362,-142 362,-123 266,-123"/>
<text text-anchor="middle" x="314" y="-130" font-family="Helvetica,sans-Serif" font-size="10.00" fill="#000000">en61107_received_task</text>
</a>
</g>
</g>
<!-- Node34&#45;&gt;Node35 -->
<g id="edge3" class="edge">
<title>Node34&#45;&gt;Node35</title>
<path fill="none" stroke="#191970" d="M214.0348,-88.3628C219.4607,-90.2811 224.8974,-92.3437 230,-94.5 246.6647,-101.5424 249.5648,-105.9373 266,-113.5 273.1648,-116.7969 281.0757,-120.0723 288.3731,-122.9514"/>
<polygon fill="#191970" stroke="#191970" points="214.9486,-84.9769 204.3542,-85.0766 212.6984,-91.6054 214.9486,-84.9769"/>
</g>
<!-- Node37 -->
<g id="node6" class="node">
<title>Node37</title>
<g id="a_node6"><a xlink:href="en61107__request_8h.html#a7384d014eb9e833f64ecf4a9f86f87be" target="_top" xlink:title="en61107_request_send">
<polygon fill="#ffffff" stroke="#000000" points="266.5,-85 266.5,-104 361.5,-104 361.5,-85 266.5,-85"/>
<text text-anchor="middle" x="314" y="-92" font-family="Helvetica,sans-Serif" font-size="10.00" fill="#000000">en61107_request_send</text>
</a>
</g>
</g>
<!-- Node34&#45;&gt;Node37 -->
<g id="edge5" class="edge">
<title>Node34&#45;&gt;Node37</title>
<path fill="none" stroke="#191970" d="M240.4577,-84.6944C249.1696,-85.8559 257.9272,-87.0236 266.2089,-88.1279"/>
<polygon fill="#191970" stroke="#191970" points="240.6578,-81.1901 230.2829,-83.3377 239.7326,-88.1287 240.6578,-81.1901"/>
</g>
<!-- Node38 -->
<g id="node7" class="node">
<title>Node38</title>
<g id="a_node7"><a xlink:href="kmp__request_8c.html#a3f6b790a06b933b78f40ade5e9a16131" target="_top" xlink:title="kmp_received_task">
<polygon fill="#ffffff" stroke="#000000" points="273.5,-47 273.5,-66 354.5,-66 354.5,-47 273.5,-47"/>
<text text-anchor="middle" x="314" y="-54" font-family="Helvetica,sans-Serif" font-size="10.00" fill="#000000">kmp_received_task</text>
</a>
</g>
</g>
<!-- Node34&#45;&gt;Node38 -->
<g id="edge6" class="edge">
<title>Node34&#45;&gt;Node38</title>
<path fill="none" stroke="#191970" d="M240.5014,-66.2998C251.6853,-64.8086 262.9431,-63.3076 273.1712,-61.9438"/>
<polygon fill="#191970" stroke="#191970" points="239.7326,-62.8713 230.2829,-67.6623 240.6578,-69.8099 239.7326,-62.8713"/>
</g>
<!-- Node40 -->
<g id="node9" class="node">
<title>Node40</title>
<g id="a_node9"><a xlink:href="kmp__request_8h.html#a3b022dcdc832786eb06126b5e6879604" target="_top" xlink:title="kmp_request_send">
<polygon fill="#ffffff" stroke="#000000" points="274,-6 274,-25 354,-25 354,-6 274,-6"/>
<text text-anchor="middle" x="314" y="-13" font-family="Helvetica,sans-Serif" font-size="10.00" fill="#000000">kmp_request_send</text>
</a>
</g>
</g>
<!-- Node34&#45;&gt;Node40 -->
<g id="edge8" class="edge">
<title>Node34&#45;&gt;Node40</title>
<path fill="none" stroke="#191970" d="M214.0348,-62.6372C219.4607,-60.7189 224.8974,-58.6563 230,-56.5 246.6647,-49.4576 249.7704,-45.4943 266,-37.5 274.5524,-33.2873 284.0778,-28.8666 292.3742,-25.1021"/>
<polygon fill="#191970" stroke="#191970" points="212.6984,-59.3946 204.3542,-65.9234 214.9486,-66.0231 212.6984,-59.3946"/>
</g>
<!-- Node36 -->
<g id="node5" class="node">
<title>Node36</title>
<g id="a_node5"><a xlink:href="en61107__request_8h.html#acd43242675a3f25e7c3b530eac9d8b3a" target="_top" xlink:title="en61107_request_init">
<polygon fill="#ffffff" stroke="#000000" points="398,-123 398,-142 487,-142 487,-123 398,-123"/>
<text text-anchor="middle" x="442.5" y="-130" font-family="Helvetica,sans-Serif" font-size="10.00" fill="#000000">en61107_request_init</text>
</a>
</g>
</g>
<!-- Node35&#45;&gt;Node36 -->
<g id="edge4" class="edge">
<title>Node35&#45;&gt;Node36</title>
<path fill="none" stroke="#191970" d="M372.4911,-132.5C381.0049,-132.5 389.6547,-132.5 397.8359,-132.5"/>
<polygon fill="#191970" stroke="#191970" points="372.2143,-129.0001 362.2143,-132.5 372.2142,-136.0001 372.2143,-129.0001"/>
</g>
<!-- Node39 -->
<g id="node8" class="node">
<title>Node39</title>
<g id="a_node8"><a xlink:href="kmp__request_8h.html#a048753ff9d6b448e2dcd8c85db0d6873" target="_top" xlink:title="kmp_request_init">
<polygon fill="#ffffff" stroke="#000000" points="405.5,-50 405.5,-69 479.5,-69 479.5,-50 405.5,-50"/>
<text text-anchor="middle" x="442.5" y="-57" font-family="Helvetica,sans-Serif" font-size="10.00" fill="#000000">kmp_request_init</text>
</a>
</g>
</g>
<!-- Node38&#45;&gt;Node39 -->
<g id="edge7" class="edge">
<title>Node38&#45;&gt;Node39</title>
<path fill="none" stroke="#191970" d="M364.7607,-57.6851C378.2375,-57.9997 392.5435,-58.3337 405.1599,-58.6282"/>
<polygon fill="#191970" stroke="#191970" points="364.7372,-54.1837 354.6582,-57.4492 364.5738,-61.1818 364.7372,-54.1837"/>
</g>
<!-- Node41 -->
<g id="node10" class="node">
<title>Node41</title>
<g id="a_node10"><a xlink:href="kmp__request_8c.html#a0977a4640a97d389ac3b0fef0ba7a9b6" target="_top" xlink:title="kmp_receive_timeout\l_timer_func">
<polygon fill="#ffffff" stroke="#000000" points="398.5,-.5 398.5,-30.5 486.5,-30.5 486.5,-.5 398.5,-.5"/>
<text text-anchor="start" x="406.5" y="-18.5" font-family="Helvetica,sans-Serif" font-size="10.00" fill="#000000">kmp_receive_timeout</text>
<text text-anchor="middle" x="442.5" y="-7.5" font-family="Helvetica,sans-Serif" font-size="10.00" fill="#000000">_timer_func</text>
</a>
</g>
</g>
<!-- Node40&#45;&gt;Node41 -->
<g id="edge9" class="edge">
<title>Node40&#45;&gt;Node41</title>
<path fill="none" stroke="#191970" d="M364.3879,-8.8916C375.5926,-8.6594 387.3879,-8.7128 398.3211,-9.0517"/>
<polygon fill="#191970" stroke="#191970" points="364.1995,-5.3955 354.3056,-9.1852 364.4033,-12.3926 364.1995,-5.3955"/>
</g>
<!-- Node41&#45;&gt;Node40 -->
<g id="edge10" class="edge">
<title>Node41&#45;&gt;Node40</title>
<path fill="none" stroke="#191970" d="M388.0797,-22.1793C376.7548,-22.3434 365.0126,-22.2219 354.3056,-21.8148"/>
<polygon fill="#191970" stroke="#191970" points="388.4026,-25.673 398.3211,-21.9483 388.2447,-18.6748 388.4026,-25.673"/>
</g>
</g>
</svg>
