<?xml version="1.0" encoding="UTF-8" standalone="no"?>
<!DOCTYPE svg PUBLIC "-//W3C//DTD SVG 1.1//EN"
 "http://www.w3.org/Graphics/SVG/1.1/DTD/svg11.dtd">
<!-- Generated by graphviz version 2.40.1 (20161225.0304)
 -->
<!-- Title: httpdHeader Pages: 1 -->
<svg width="500pt" height="294pt"
 viewBox="0.00 0.00 500.00 294.00" xmlns="http://www.w3.org/2000/svg" xmlns:xlink="http://www.w3.org/1999/xlink">
<g id="graph0" class="graph" transform="scale(1 1) rotate(0) translate(4 290)">
<title>httpdHeader</title>
<polygon fill="#ffffff" stroke="transparent" points="-4,4 -4,-290 496,-290 496,4 -4,4"/>
<!-- Node80 -->
<g id="node1" class="node">
<title>Node80</title>
<polygon fill="#bfbfbf" stroke="#000000" points="0,-133.5 0,-152.5 58,-152.5 58,-133.5 0,-133.5"/>
<text text-anchor="middle" x="29" y="-140.5" font-family="Helvetica,sans-Serif" font-size="10.00" fill="#000000">httpdHeader</text>
</g>
<!-- Node81 -->
<g id="node2" class="node">
<title>Node81</title>
<g id="a_node2"><a xlink:href="httpd_8c.html#a1a143f6c427d66e2561895cf193fc535" target="_top" xlink:title="httpdSend">
<polygon fill="#ffffff" stroke="#000000" points="95.5,-152.5 95.5,-171.5 146.5,-171.5 146.5,-152.5 95.5,-152.5"/>
<text text-anchor="middle" x="121" y="-159.5" font-family="Helvetica,sans-Serif" font-size="10.00" fill="#000000">httpdSend</text>
</a>
</g>
</g>
<!-- Node80&#45;&gt;Node81 -->
<g id="edge1" class="edge">
<title>Node80&#45;&gt;Node81</title>
<path fill="none" stroke="#191970" d="M58.1094,-149.0117C66.83,-150.8127 76.4911,-152.8079 85.5712,-154.6832"/>
<polygon fill="#191970" stroke="#191970" points="84.9938,-158.1377 95.495,-156.7327 86.4096,-151.2824 84.9938,-158.1377"/>
</g>
<!-- Node82 -->
<g id="node3" class="node">
<title>Node82</title>
<g id="a_node3"><a xlink:href="tinyprintf_8c.html#a9738cbc6c538d210941db282e240c7d6" target="_top" xlink:title="tfp_snprintf">
<polygon fill="#ffffff" stroke="#000000" points="94,-114.5 94,-133.5 148,-133.5 148,-114.5 94,-114.5"/>
<text text-anchor="middle" x="121" y="-121.5" font-family="Helvetica,sans-Serif" font-size="10.00" fill="#000000">tfp_snprintf</text>
</a>
</g>
</g>
<!-- Node80&#45;&gt;Node82 -->
<g id="edge2" class="edge">
<title>Node80&#45;&gt;Node82</title>
<path fill="none" stroke="#191970" d="M58.1094,-136.9883C66.3578,-135.2848 75.4477,-133.4075 84.0916,-131.6224"/>
<polygon fill="#191970" stroke="#191970" points="84.8712,-135.0353 93.9566,-129.5851 83.4553,-128.18 84.8712,-135.0353"/>
</g>
<!-- Node83 -->
<g id="node4" class="node">
<title>Node83</title>
<g id="a_node4"><a xlink:href="tinyprintf_8c.html#ac8c8a66133cf0d7009c0d73b55311a44" target="_top" xlink:title="tfp_vsnprintf">
<polygon fill="#ffffff" stroke="#000000" points="184,-114.5 184,-133.5 241,-133.5 241,-114.5 184,-114.5"/>
<text text-anchor="middle" x="212.5" y="-121.5" font-family="Helvetica,sans-Serif" font-size="10.00" fill="#000000">tfp_vsnprintf</text>
</a>
</g>
</g>
<!-- Node82&#45;&gt;Node83 -->
<g id="edge3" class="edge">
<title>Node82&#45;&gt;Node83</title>
<path fill="none" stroke="#191970" d="M148.453,-124C156.3869,-124 165.1998,-124 173.6866,-124"/>
<polygon fill="#191970" stroke="#191970" points="173.796,-127.5001 183.796,-124 173.7959,-120.5001 173.796,-127.5001"/>
</g>
<!-- Node84 -->
<g id="node5" class="node">
<title>Node84</title>
<g id="a_node5"><a xlink:href="tinyprintf_8c.html#a5877e42444463efc71a91b5fe76a6145" target="_top" xlink:title="tfp_format">
<polygon fill="#ffffff" stroke="#000000" points="286.5,-133.5 286.5,-152.5 336.5,-152.5 336.5,-133.5 286.5,-133.5"/>
<text text-anchor="middle" x="311.5" y="-140.5" font-family="Helvetica,sans-Serif" font-size="10.00" fill="#000000">tfp_format</text>
</a>
</g>
</g>
<!-- Node83&#45;&gt;Node84 -->
<g id="edge4" class="edge">
<title>Node83&#45;&gt;Node84</title>
<path fill="none" stroke="#191970" d="M241.1349,-129.4956C252.0654,-131.5934 264.6574,-134.01 276.141,-136.2139"/>
<polygon fill="#191970" stroke="#191970" points="275.8156,-139.7153 286.296,-138.1629 277.135,-132.8407 275.8156,-139.7153"/>
</g>
<!-- Node94 -->
<g id="node15" class="node">
<title>Node94</title>
<g id="a_node15"><a xlink:href="tinyprintf_8c.html#a919051024b2d729e34a54648b3f2462d" target="_top" xlink:title="_vsnprintf_putcf">
<polygon fill="#ffffff" stroke="#000000" points="277,-95.5 277,-114.5 346,-114.5 346,-95.5 277,-95.5"/>
<text text-anchor="middle" x="311.5" y="-102.5" font-family="Helvetica,sans-Serif" font-size="10.00" fill="#000000">_vsnprintf_putcf</text>
</a>
</g>
</g>
<!-- Node83&#45;&gt;Node94 -->
<g id="edge17" class="edge">
<title>Node83&#45;&gt;Node94</title>
<path fill="none" stroke="#191970" d="M241.1349,-118.5044C249.1798,-116.9604 258.1246,-115.2438 266.8652,-113.5663"/>
<polygon fill="#191970" stroke="#191970" points="267.8048,-116.9499 276.9658,-111.6278 266.4853,-110.0754 267.8048,-116.9499"/>
</g>
<!-- Node85 -->
<g id="node6" class="node">
<title>Node85</title>
<g id="a_node6"><a xlink:href="tinyprintf_8c.html#aa97593a5e53af85b608ad0910db92d77" target="_top" xlink:title="a2u">
<polygon fill="#ffffff" stroke="#000000" points="387.5,-266.5 387.5,-285.5 416.5,-285.5 416.5,-266.5 387.5,-266.5"/>
<text text-anchor="middle" x="402" y="-273.5" font-family="Helvetica,sans-Serif" font-size="10.00" fill="#000000">a2u</text>
</a>
</g>
</g>
<!-- Node84&#45;&gt;Node85 -->
<g id="edge5" class="edge">
<title>Node84&#45;&gt;Node85</title>
<path fill="none" stroke="#191970" d="M317.1641,-152.588C328.6813,-171.8884 355.952,-216.6047 382,-252 383.5752,-254.1405 385.2802,-256.3409 387.0075,-258.4998"/>
<polygon fill="#191970" stroke="#191970" points="384.4795,-260.9348 393.5525,-266.4059 389.8716,-256.4709 384.4795,-260.9348"/>
</g>
<!-- Node87 -->
<g id="node8" class="node">
<title>Node87</title>
<g id="a_node8"><a xlink:href="tinyprintf_8c.html#abcf035dd576671b0cc897de9dd8c75b0" target="_top" xlink:title="ulli2a">
<polygon fill="#ffffff" stroke="#000000" points="458,-209.5 458,-228.5 492,-228.5 492,-209.5 458,-209.5"/>
<text text-anchor="middle" x="475" y="-216.5" font-family="Helvetica,sans-Serif" font-size="10.00" fill="#000000">ulli2a</text>
</a>
</g>
</g>
<!-- Node84&#45;&gt;Node87 -->
<g id="edge7" class="edge">
<title>Node84&#45;&gt;Node87</title>
<path fill="none" stroke="#191970" d="M316.7337,-152.5518C326.7568,-169.7127 350.4943,-205.2518 382,-219 402.7268,-228.0446 428.6121,-227.1922 447.8069,-224.5651"/>
<polygon fill="#191970" stroke="#191970" points="448.3889,-228.0166 457.7072,-222.9747 447.2786,-221.1052 448.3889,-228.0166"/>
</g>
<!-- Node88 -->
<g id="node9" class="node">
<title>Node88</title>
<g id="a_node9"><a xlink:href="tinyprintf_8c.html#a1d61347854a8c290d59b4a21efcefd75" target="_top" xlink:title="uli2a">
<polygon fill="#ffffff" stroke="#000000" points="459,-114.5 459,-133.5 491,-133.5 491,-114.5 459,-114.5"/>
<text text-anchor="middle" x="475" y="-121.5" font-family="Helvetica,sans-Serif" font-size="10.00" fill="#000000">uli2a</text>
</a>
</g>
</g>
<!-- Node84&#45;&gt;Node88 -->
<g id="edge8" class="edge">
<title>Node84&#45;&gt;Node88</title>
<path fill="none" stroke="#191970" d="M329.179,-133.3343C349.5873,-122.1964 380.5591,-105.3636 382,-105 404.6189,-99.2923 430.6594,-105.7065 449.4213,-112.5819"/>
<polygon fill="#191970" stroke="#191970" points="448.1829,-115.8558 458.7698,-116.2659 450.7494,-109.3432 448.1829,-115.8558"/>
</g>
<!-- Node89 -->
<g id="node10" class="node">
<title>Node89</title>
<g id="a_node10"><a xlink:href="tinyprintf_8c.html#ac87ff66a592723f55692eaf8e3f19df8" target="_top" xlink:title="ui2a">
<polygon fill="#ffffff" stroke="#000000" points="459.5,-19.5 459.5,-38.5 490.5,-38.5 490.5,-19.5 459.5,-19.5"/>
<text text-anchor="middle" x="475" y="-26.5" font-family="Helvetica,sans-Serif" font-size="10.00" fill="#000000">ui2a</text>
</a>
</g>
</g>
<!-- Node84&#45;&gt;Node89 -->
<g id="edge9" class="edge">
<title>Node84&#45;&gt;Node89</title>
<path fill="none" stroke="#191970" d="M330.0237,-133.3811C335.2703,-130.5009 340.9311,-127.2425 346,-124 351.5079,-120.4768 418.5402,-70.8618 453.7305,-44.7762"/>
<polygon fill="#191970" stroke="#191970" points="455.9859,-47.461 461.9343,-38.6936 451.8168,-41.838 455.9859,-47.461"/>
</g>
<!-- Node90 -->
<g id="node11" class="node">
<title>Node90</title>
<g id="a_node11"><a xlink:href="tinyprintf_8c.html#a6252dbfebb2c8783c4e3107d551082dd" target="_top" xlink:title="putchw">
<polygon fill="#ffffff" stroke="#000000" points="382,-114.5 382,-133.5 422,-133.5 422,-114.5 382,-114.5"/>
<text text-anchor="middle" x="402" y="-121.5" font-family="Helvetica,sans-Serif" font-size="10.00" fill="#000000">putchw</text>
</a>
</g>
</g>
<!-- Node84&#45;&gt;Node90 -->
<g id="edge10" class="edge">
<title>Node84&#45;&gt;Node90</title>
<path fill="none" stroke="#191970" d="M336.7093,-137.7074C347.601,-135.4208 360.434,-132.7266 371.8272,-130.3346"/>
<polygon fill="#191970" stroke="#191970" points="372.7211,-133.7233 381.7886,-128.2433 371.2828,-126.8727 372.7211,-133.7233"/>
</g>
<!-- Node91 -->
<g id="node12" class="node">
<title>Node91</title>
<g id="a_node12"><a xlink:href="tinyprintf_8c.html#a49c6d2b3d4088012f2c1fe344eef69f3" target="_top" xlink:title="lli2a">
<polygon fill="#ffffff" stroke="#000000" points="387,-190.5 387,-209.5 417,-209.5 417,-190.5 387,-190.5"/>
<text text-anchor="middle" x="402" y="-197.5" font-family="Helvetica,sans-Serif" font-size="10.00" fill="#000000">lli2a</text>
</a>
</g>
</g>
<!-- Node84&#45;&gt;Node91 -->
<g id="edge11" class="edge">
<title>Node84&#45;&gt;Node91</title>
<path fill="none" stroke="#191970" d="M326.8521,-152.6693C340.8479,-161.4843 361.7509,-174.6497 377.9606,-184.8592"/>
<polygon fill="#191970" stroke="#191970" points="376.5478,-188.1057 386.8746,-190.4735 380.2784,-182.1826 376.5478,-188.1057"/>
</g>
<!-- Node92 -->
<g id="node13" class="node">
<title>Node92</title>
<g id="a_node13"><a xlink:href="tinyprintf_8c.html#afebb7696337c3f599b5e8db35c560684" target="_top" xlink:title="li2a">
<polygon fill="#ffffff" stroke="#000000" points="387.5,-152.5 387.5,-171.5 416.5,-171.5 416.5,-152.5 387.5,-152.5"/>
<text text-anchor="middle" x="402" y="-159.5" font-family="Helvetica,sans-Serif" font-size="10.00" fill="#000000">li2a</text>
</a>
</g>
</g>
<!-- Node84&#45;&gt;Node92 -->
<g id="edge13" class="edge">
<title>Node84&#45;&gt;Node92</title>
<path fill="none" stroke="#191970" d="M336.7093,-148.2926C349.4577,-150.969 364.8657,-154.2038 377.5115,-156.8588"/>
<polygon fill="#191970" stroke="#191970" points="376.8595,-160.2981 387.3653,-158.9275 378.2978,-153.4475 376.8595,-160.2981"/>
</g>
<!-- Node93 -->
<g id="node14" class="node">
<title>Node93</title>
<g id="a_node14"><a xlink:href="tinyprintf_8c.html#a90f9fd8f2133cda7f50be8d67823405c" target="_top" xlink:title="i2a">
<polygon fill="#ffffff" stroke="#000000" points="387.5,-.5 387.5,-19.5 416.5,-19.5 416.5,-.5 387.5,-.5"/>
<text text-anchor="middle" x="402" y="-7.5" font-family="Helvetica,sans-Serif" font-size="10.00" fill="#000000">i2a</text>
</a>
</g>
</g>
<!-- Node84&#45;&gt;Node93 -->
<g id="edge15" class="edge">
<title>Node84&#45;&gt;Node93</title>
<path fill="none" stroke="#191970" d="M334.2943,-133.3798C338.5834,-130.8051 342.7391,-127.6885 346,-124 374.5349,-91.7237 359.9383,-71.0038 382,-34 383.2186,-31.956 384.607,-29.9077 386.0712,-27.9166"/>
<polygon fill="#191970" stroke="#191970" points="389.1139,-29.7203 392.6831,-19.7448 383.6721,-25.3173 389.1139,-29.7203"/>
</g>
<!-- Node86 -->
<g id="node7" class="node">
<title>Node86</title>
<g id="a_node7"><a xlink:href="tinyprintf_8c.html#aa853a0c5ba64fa2546d488b86192e7e3" target="_top" xlink:title="a2d">
<polygon fill="#ffffff" stroke="#000000" points="460.5,-266.5 460.5,-285.5 489.5,-285.5 489.5,-266.5 460.5,-266.5"/>
<text text-anchor="middle" x="475" y="-273.5" font-family="Helvetica,sans-Serif" font-size="10.00" fill="#000000">a2d</text>
</a>
</g>
</g>
<!-- Node85&#45;&gt;Node86 -->
<g id="edge6" class="edge">
<title>Node85&#45;&gt;Node86</title>
<path fill="none" stroke="#191970" d="M416.7726,-276C426.3705,-276 439.1197,-276 450.2412,-276"/>
<polygon fill="#191970" stroke="#191970" points="450.2494,-279.5001 460.2493,-276 450.2493,-272.5001 450.2494,-279.5001"/>
</g>
<!-- Node91&#45;&gt;Node87 -->
<g id="edge12" class="edge">
<title>Node91&#45;&gt;Node87</title>
<path fill="none" stroke="#191970" d="M417.1256,-203.9368C426.021,-206.252 437.5313,-209.2479 447.9415,-211.9574"/>
<polygon fill="#191970" stroke="#191970" points="447.2881,-215.4038 457.8473,-214.5356 449.0513,-208.6295 447.2881,-215.4038"/>
</g>
<!-- Node92&#45;&gt;Node88 -->
<g id="edge14" class="edge">
<title>Node92&#45;&gt;Node88</title>
<path fill="none" stroke="#191970" d="M416.7726,-154.3101C426.2461,-149.3787 438.7899,-142.8491 449.8081,-137.1136"/>
<polygon fill="#191970" stroke="#191970" points="451.7286,-140.0598 458.9827,-132.3378 448.4964,-133.8506 451.7286,-140.0598"/>
</g>
<!-- Node93&#45;&gt;Node89 -->
<g id="edge16" class="edge">
<title>Node93&#45;&gt;Node89</title>
<path fill="none" stroke="#191970" d="M416.7726,-13.8449C426.181,-16.2937 438.6176,-19.5306 449.5808,-22.384"/>
<polygon fill="#191970" stroke="#191970" points="448.9343,-25.8323 459.4935,-24.9641 450.6975,-19.058 448.9343,-25.8323"/>
</g>
</g>
</svg>
