<?xml version="1.0" encoding="UTF-8" standalone="no"?>
<!DOCTYPE svg PUBLIC "-//W3C//DTD SVG 1.1//EN"
 "http://www.w3.org/Graphics/SVG/1.1/DTD/svg11.dtd">
<!-- Generated by graphviz version 2.40.1 (20161225.0304)
 -->
<!-- Title: httpdStop Pages: 1 -->
<svg width="199pt" height="142pt"
 viewBox="0.00 0.00 199.00 142.00" xmlns="http://www.w3.org/2000/svg" xmlns:xlink="http://www.w3.org/1999/xlink">
<g id="graph0" class="graph" transform="scale(1 1) rotate(0) translate(4 138)">
<title>httpdStop</title>
<polygon fill="#ffffff" stroke="transparent" points="-4,4 -4,-138 195,-138 195,4 -4,4"/>
<!-- Node235 -->
<g id="node1" class="node">
<title>Node235</title>
<polygon fill="#bfbfbf" stroke="#000000" points="0,-38.5 0,-57.5 49,-57.5 49,-38.5 0,-38.5"/>
<text text-anchor="middle" x="24.5" y="-45.5" font-family="Helvetica,sans-Serif" font-size="10.00" fill="#000000">httpdStop</text>
</g>
<!-- Node236 -->
<g id="node2" class="node">
<title>Node236</title>
<g id="a_node2"><a xlink:href="esp-open-lwip_2include_2lwip_2app_2espconn_8h.html#a63d15dda14dfcd8da278c31f048910c3" target="_top" xlink:title="espconn_delete">
<polygon fill="#ffffff" stroke="#000000" points="103.5,-114.5 103.5,-133.5 172.5,-133.5 172.5,-114.5 103.5,-114.5"/>
<text text-anchor="middle" x="138" y="-121.5" font-family="Helvetica,sans-Serif" font-size="10.00" fill="#000000">espconn_delete</text>
</a>
</g>
</g>
<!-- Node235&#45;&gt;Node236 -->
<g id="edge1" class="edge">
<title>Node235&#45;&gt;Node236</title>
<path fill="none" stroke="#191970" d="M32.5561,-57.7589C43.3362,-70.2606 63.5923,-91.8772 85,-105 88.327,-107.0394 91.9052,-108.9048 95.5753,-110.6008"/>
<polygon fill="#191970" stroke="#191970" points="94.2219,-113.8285 104.7972,-114.4707 96.9305,-107.3738 94.2219,-113.8285"/>
</g>
<!-- Node237 -->
<g id="node3" class="node">
<title>Node237</title>
<g id="a_node3"><a xlink:href="esp-open-lwip_2include_2lwip_2app_2espconn_8h.html#a9969873c3b8ee86a34496a5166cf8bfc" target="_top" xlink:title="espconn_disconnect">
<polygon fill="#ffffff" stroke="#000000" points="95.5,-76.5 95.5,-95.5 180.5,-95.5 180.5,-76.5 95.5,-76.5"/>
<text text-anchor="middle" x="138" y="-83.5" font-family="Helvetica,sans-Serif" font-size="10.00" fill="#000000">espconn_disconnect</text>
</a>
</g>
</g>
<!-- Node235&#45;&gt;Node237 -->
<g id="edge2" class="edge">
<title>Node235&#45;&gt;Node237</title>
<path fill="none" stroke="#191970" d="M49.1278,-56.2454C63.9522,-61.2087 83.1369,-67.6317 99.8856,-73.2392"/>
<polygon fill="#191970" stroke="#191970" points="98.8203,-76.5735 109.4141,-76.4294 101.0427,-69.9356 98.8203,-76.5735"/>
</g>
<!-- Node238 -->
<g id="node4" class="node">
<title>Node238</title>
<g id="a_node4"><a xlink:href="httpd_8c.html#aecb06813eefe322c349651aa5e1316f5" target="_top" xlink:title="httpdDisconnectTimerFunc">
<polygon fill="#ffffff" stroke="#000000" points="85,-38.5 85,-57.5 191,-57.5 191,-38.5 85,-38.5"/>
<text text-anchor="middle" x="138" y="-45.5" font-family="Helvetica,sans-Serif" font-size="10.00" fill="#000000">httpdDisconnectTimerFunc</text>
</a>
</g>
</g>
<!-- Node235&#45;&gt;Node238 -->
<g id="edge3" class="edge">
<title>Node235&#45;&gt;Node238</title>
<path fill="none" stroke="#191970" d="M49.1278,-42.3216C56.8018,-41.7452 65.6442,-41.4013 74.7124,-41.29"/>
<polygon fill="#191970" stroke="#191970" points="75.0054,-44.7893 84.9962,-41.2631 74.9871,-37.7893 75.0054,-44.7893"/>
</g>
<!-- Node239 -->
<g id="node5" class="node">
<title>Node239</title>
<g id="a_node5"><a xlink:href="httpd_8c.html#ab7a09edc1f3de2b70bf21ed275c22c61" target="_top" xlink:title="httpdRetireConn">
<polygon fill="#ffffff" stroke="#000000" points="102.5,-.5 102.5,-19.5 173.5,-19.5 173.5,-.5 102.5,-.5"/>
<text text-anchor="middle" x="138" y="-7.5" font-family="Helvetica,sans-Serif" font-size="10.00" fill="#000000">httpdRetireConn</text>
</a>
</g>
</g>
<!-- Node235&#45;&gt;Node239 -->
<g id="edge5" class="edge">
<title>Node235&#45;&gt;Node239</title>
<path fill="none" stroke="#191970" d="M49.1278,-39.7546C63.9522,-34.7913 83.1369,-28.3683 99.8856,-22.7608"/>
<polygon fill="#191970" stroke="#191970" points="101.0427,-26.0644 109.4141,-19.5706 98.8203,-19.4265 101.0427,-26.0644"/>
</g>
<!-- Node238&#45;&gt;Node235 -->
<g id="edge4" class="edge">
<title>Node238&#45;&gt;Node235</title>
<path fill="none" stroke="#191970" d="M84.9962,-54.7369C76.2833,-54.7979 67.4522,-54.6459 59.3291,-54.2809"/>
<polygon fill="#191970" stroke="#191970" points="59.3168,-50.7742 49.1278,-53.6784 58.904,-57.762 59.3168,-50.7742"/>
</g>
</g>
</svg>
