<?xml version="1.0" encoding="UTF-8" standalone="no"?>
<!DOCTYPE svg PUBLIC "-//W3C//DTD SVG 1.1//EN"
 "http://www.w3.org/Graphics/SVG/1.1/DTD/svg11.dtd">
<!-- Generated by graphviz version 2.40.1 (20161225.0304)
 -->
<!-- Title: httpdFindArg Pages: 1 -->
<svg width="265pt" height="28pt"
 viewBox="0.00 0.00 265.00 28.00" xmlns="http://www.w3.org/2000/svg" xmlns:xlink="http://www.w3.org/1999/xlink">
<g id="graph0" class="graph" transform="scale(1 1) rotate(0) translate(4 24)">
<title>httpdFindArg</title>
<polygon fill="#ffffff" stroke="transparent" points="-4,4 -4,-24 261,-24 261,4 -4,4"/>
<!-- Node58 -->
<g id="node1" class="node">
<title>Node58</title>
<polygon fill="#bfbfbf" stroke="#000000" points="0,-.5 0,-19.5 59,-19.5 59,-.5 0,-.5"/>
<text text-anchor="middle" x="29.5" y="-7.5" font-family="Helvetica,sans-Serif" font-size="10.00" fill="#000000">httpdFindArg</text>
</g>
<!-- Node59 -->
<g id="node2" class="node">
<title>Node59</title>
<g id="a_node2"><a xlink:href="httpd_8c.html#a45e5cfc52bcba530447be34fd5bae705" target="_top" xlink:title="httpdUrlDecode">
<polygon fill="#ffffff" stroke="#000000" points="95,-.5 95,-19.5 164,-19.5 164,-.5 95,-.5"/>
<text text-anchor="middle" x="129.5" y="-7.5" font-family="Helvetica,sans-Serif" font-size="10.00" fill="#000000">httpdUrlDecode</text>
</a>
</g>
</g>
<!-- Node58&#45;&gt;Node59 -->
<g id="edge1" class="edge">
<title>Node58&#45;&gt;Node59</title>
<path fill="none" stroke="#191970" d="M59.2325,-10C67.1731,-10 75.9346,-10 84.4985,-10"/>
<polygon fill="#191970" stroke="#191970" points="84.7781,-13.5001 94.7781,-10 84.7781,-6.5001 84.7781,-13.5001"/>
</g>
<!-- Node60 -->
<g id="node3" class="node">
<title>Node60</title>
<g id="a_node3"><a xlink:href="httpd_8c.html#a635d1e810633b2b48d28d0be7357570a" target="_top" xlink:title="httpdHexVal">
<polygon fill="#ffffff" stroke="#000000" points="200,-.5 200,-19.5 257,-19.5 257,-.5 200,-.5"/>
<text text-anchor="middle" x="228.5" y="-7.5" font-family="Helvetica,sans-Serif" font-size="10.00" fill="#000000">httpdHexVal</text>
</a>
</g>
</g>
<!-- Node59&#45;&gt;Node60 -->
<g id="edge2" class="edge">
<title>Node59&#45;&gt;Node60</title>
<path fill="none" stroke="#191970" d="M164.1254,-10C172.4501,-10 181.3935,-10 189.887,-10"/>
<polygon fill="#191970" stroke="#191970" points="189.9523,-13.5001 199.9523,-10 189.9522,-6.5001 189.9523,-13.5001"/>
</g>
</g>
</svg>
