<?xml version="1.0" encoding="UTF-8" standalone="no"?>
<!DOCTYPE svg PUBLIC "-//W3C//DTD SVG 1.1//EN"
 "http://www.w3.org/Graphics/SVG/1.1/DTD/svg11.dtd">
<!-- Generated by graphviz version 2.40.1 (20161225.0304)
 -->
<!-- Title: httpdDisconnectTimerFunc Pages: 1 -->
<svg width="320pt" height="104pt"
 viewBox="0.00 0.00 320.00 104.00" xmlns="http://www.w3.org/2000/svg" xmlns:xlink="http://www.w3.org/1999/xlink">
<g id="graph0" class="graph" transform="scale(1 1) rotate(0) translate(4 100)">
<title>httpdDisconnectTimerFunc</title>
<polygon fill="#ffffff" stroke="transparent" points="-4,4 -4,-100 316,-100 316,4 -4,4"/>
<!-- Node44 -->
<g id="node1" class="node">
<title>Node44</title>
<polygon fill="#bfbfbf" stroke="#000000" points="0,-38.5 0,-57.5 106,-57.5 106,-38.5 0,-38.5"/>
<text text-anchor="middle" x="53" y="-45.5" font-family="Helvetica,sans-Serif" font-size="10.00" fill="#000000">httpdDisconnectTimerFunc</text>
</g>
<!-- Node45 -->
<g id="node2" class="node">
<title>Node45</title>
<g id="a_node2"><a xlink:href="httpd_8c.html#afec8778692d2ecc547295eb197fa6fcd" target="_top" xlink:title="httpdStop">
<polygon fill="#ffffff" stroke="#000000" points="142,-38.5 142,-57.5 191,-57.5 191,-38.5 142,-38.5"/>
<text text-anchor="middle" x="166.5" y="-45.5" font-family="Helvetica,sans-Serif" font-size="10.00" fill="#000000">httpdStop</text>
</a>
</g>
</g>
<!-- Node44&#45;&gt;Node45 -->
<g id="edge1" class="edge">
<title>Node44&#45;&gt;Node45</title>
<path fill="none" stroke="#191970" d="M106.0945,-41.2625C114.7595,-41.2033 123.5386,-41.3547 131.6194,-41.7168"/>
<polygon fill="#191970" stroke="#191970" points="131.5833,-45.2206 141.7716,-42.314 131.9944,-38.2327 131.5833,-45.2206"/>
</g>
<!-- Node45&#45;&gt;Node44 -->
<g id="edge5" class="edge">
<title>Node45&#45;&gt;Node44</title>
<path fill="none" stroke="#191970" d="M141.7716,-53.686C134.1304,-54.2571 125.3377,-54.5984 116.3208,-54.7096"/>
<polygon fill="#191970" stroke="#191970" points="116.0849,-51.2102 106.0945,-54.7375 116.1041,-58.2101 116.0849,-51.2102"/>
</g>
<!-- Node46 -->
<g id="node3" class="node">
<title>Node46</title>
<g id="a_node3"><a xlink:href="esp-open-lwip_2include_2lwip_2app_2espconn_8h.html#a63d15dda14dfcd8da278c31f048910c3" target="_top" xlink:title="espconn_delete">
<polygon fill="#ffffff" stroke="#000000" points="235,-76.5 235,-95.5 304,-95.5 304,-76.5 235,-76.5"/>
<text text-anchor="middle" x="269.5" y="-83.5" font-family="Helvetica,sans-Serif" font-size="10.00" fill="#000000">espconn_delete</text>
</a>
</g>
</g>
<!-- Node45&#45;&gt;Node46 -->
<g id="edge2" class="edge">
<title>Node45&#45;&gt;Node46</title>
<path fill="none" stroke="#191970" d="M191.1711,-57.1019C204.0337,-61.8474 219.9942,-67.7357 234.1454,-72.9565"/>
<polygon fill="#191970" stroke="#191970" points="232.9996,-76.2644 243.5929,-76.442 235.4225,-69.697 232.9996,-76.2644"/>
</g>
<!-- Node47 -->
<g id="node4" class="node">
<title>Node47</title>
<g id="a_node4"><a xlink:href="httpd_8c.html#ab7a09edc1f3de2b70bf21ed275c22c61" target="_top" xlink:title="httpdRetireConn">
<polygon fill="#ffffff" stroke="#000000" points="234,-38.5 234,-57.5 305,-57.5 305,-38.5 234,-38.5"/>
<text text-anchor="middle" x="269.5" y="-45.5" font-family="Helvetica,sans-Serif" font-size="10.00" fill="#000000">httpdRetireConn</text>
</a>
</g>
</g>
<!-- Node45&#45;&gt;Node47 -->
<g id="edge3" class="edge">
<title>Node45&#45;&gt;Node47</title>
<path fill="none" stroke="#191970" d="M191.1711,-48C200.9222,-48 212.4537,-48 223.6276,-48"/>
<polygon fill="#191970" stroke="#191970" points="223.7275,-51.5001 233.7274,-48 223.7274,-44.5001 223.7275,-51.5001"/>
</g>
<!-- Node48 -->
<g id="node5" class="node">
<title>Node48</title>
<g id="a_node5"><a xlink:href="esp-open-lwip_2include_2lwip_2app_2espconn_8h.html#a9969873c3b8ee86a34496a5166cf8bfc" target="_top" xlink:title="espconn_disconnect">
<polygon fill="#ffffff" stroke="#000000" points="227,-.5 227,-19.5 312,-19.5 312,-.5 227,-.5"/>
<text text-anchor="middle" x="269.5" y="-7.5" font-family="Helvetica,sans-Serif" font-size="10.00" fill="#000000">espconn_disconnect</text>
</a>
</g>
</g>
<!-- Node45&#45;&gt;Node48 -->
<g id="edge4" class="edge">
<title>Node45&#45;&gt;Node48</title>
<path fill="none" stroke="#191970" d="M191.1711,-38.8981C204.0337,-34.1526 219.9942,-28.2643 234.1454,-23.0435"/>
<polygon fill="#191970" stroke="#191970" points="235.4225,-26.303 243.5929,-19.558 232.9996,-19.7356 235.4225,-26.303"/>
</g>
</g>
</svg>
