<?xml version="1.0" encoding="UTF-8" standalone="no"?>
<!DOCTYPE svg PUBLIC "-//W3C//DTD SVG 1.1//EN"
 "http://www.w3.org/Graphics/SVG/1.1/DTD/svg11.dtd">
<!-- Generated by graphviz version 2.40.1 (20161225.0304)
 -->
<!-- Title: httpdStartResponse Pages: 1 -->
<svg width="206pt" height="142pt"
 viewBox="0.00 0.00 206.00 142.00" xmlns="http://www.w3.org/2000/svg" xmlns:xlink="http://www.w3.org/1999/xlink">
<g id="graph0" class="graph" transform="scale(1 1) rotate(0) translate(4 138)">
<title>httpdStartResponse</title>
<polygon fill="#ffffff" stroke="transparent" points="-4,4 -4,-138 202,-138 202,4 -4,4"/>
<!-- Node132 -->
<g id="node1" class="node">
<title>Node132</title>
<polygon fill="#bfbfbf" stroke="#000000" points="0,-57.5 0,-76.5 83,-76.5 83,-57.5 0,-57.5"/>
<text text-anchor="middle" x="41.5" y="-64.5" font-family="Helvetica,sans-Serif" font-size="10.00" fill="#000000">httpdStartResponse</text>
</g>
<!-- Node133 -->
<g id="node2" class="node">
<title>Node133</title>
<g id="a_node2"><a xlink:href="auth_8h.html#ac81ed03345875f282828a190baba0987" target="_top" xlink:title="authBasic">
<polygon fill="#ffffff" stroke="#000000" points="134,-114.5 134,-133.5 183,-133.5 183,-114.5 134,-114.5"/>
<text text-anchor="middle" x="158.5" y="-121.5" font-family="Helvetica,sans-Serif" font-size="10.00" fill="#000000">authBasic</text>
</a>
</g>
</g>
<!-- Node132&#45;&gt;Node133 -->
<g id="edge1" class="edge">
<title>Node132&#45;&gt;Node133</title>
<path fill="none" stroke="#191970" d="M69.9689,-81.0226C84.6085,-88.2172 102.7455,-97.1058 119,-105 125.2976,-108.0585 132.1702,-111.3725 138.3912,-114.3634"/>
<polygon fill="#191970" stroke="#191970" points="71.4268,-77.8392 60.9087,-76.5668 68.3376,-84.1207 71.4268,-77.8392"/>
</g>
<!-- Node134 -->
<g id="node3" class="node">
<title>Node134</title>
<g id="a_node3"><a xlink:href="httpdespfs_8h.html#aa502116e50052d973b6eef02a6282dd3" target="_top" xlink:title="cgiEspFsHook">
<polygon fill="#ffffff" stroke="#000000" points="126,-76.5 126,-95.5 191,-95.5 191,-76.5 126,-76.5"/>
<text text-anchor="middle" x="158.5" y="-83.5" font-family="Helvetica,sans-Serif" font-size="10.00" fill="#000000">cgiEspFsHook</text>
</a>
</g>
</g>
<!-- Node132&#45;&gt;Node134 -->
<g id="edge2" class="edge">
<title>Node132&#45;&gt;Node134</title>
<path fill="none" stroke="#191970" d="M93.1504,-75.3877C104.2703,-77.1935 115.725,-79.0536 125.8774,-80.7023"/>
<polygon fill="#191970" stroke="#191970" points="93.511,-71.9005 83.0793,-73.7522 92.3889,-78.8099 93.511,-71.9005"/>
</g>
<!-- Node135 -->
<g id="node4" class="node">
<title>Node135</title>
<g id="a_node4"><a xlink:href="httpdespfs_8h.html#abc9eb26f247094e9fc41db897f6ec030" target="_top" xlink:title="cgiEspFsTemplate">
<polygon fill="#ffffff" stroke="#000000" points="119,-38.5 119,-57.5 198,-57.5 198,-38.5 119,-38.5"/>
<text text-anchor="middle" x="158.5" y="-45.5" font-family="Helvetica,sans-Serif" font-size="10.00" fill="#000000">cgiEspFsTemplate</text>
</a>
</g>
</g>
<!-- Node132&#45;&gt;Node135 -->
<g id="edge3" class="edge">
<title>Node132&#45;&gt;Node135</title>
<path fill="none" stroke="#191970" d="M93.0168,-58.634C101.6001,-57.2402 110.3869,-55.8132 118.6238,-54.4756"/>
<polygon fill="#191970" stroke="#191970" points="92.3889,-55.1901 83.0793,-60.2478 93.511,-62.0995 92.3889,-55.1901"/>
</g>
<!-- Node136 -->
<g id="node5" class="node">
<title>Node136</title>
<g id="a_node5"><a xlink:href="cgiwifi_8h.html#aa1b2a25d59b9eecb6f57b7d698686064" target="_top" xlink:title="cgiWiFiScan">
<polygon fill="#ffffff" stroke="#000000" points="129.5,-.5 129.5,-19.5 187.5,-19.5 187.5,-.5 129.5,-.5"/>
<text text-anchor="middle" x="158.5" y="-7.5" font-family="Helvetica,sans-Serif" font-size="10.00" fill="#000000">cgiWiFiScan</text>
</a>
</g>
</g>
<!-- Node132&#45;&gt;Node136 -->
<g id="edge4" class="edge">
<title>Node132&#45;&gt;Node136</title>
<path fill="none" stroke="#191970" d="M69.9689,-52.9774C84.6085,-45.7828 102.7455,-36.8942 119,-29 125.2976,-25.9415 132.1702,-22.6275 138.3912,-19.6366"/>
<polygon fill="#191970" stroke="#191970" points="68.3376,-49.8793 60.9087,-57.4332 71.4268,-56.1608 68.3376,-49.8793"/>
</g>
</g>
</svg>
