<?xml version="1.0" encoding="UTF-8" standalone="no"?>
<!DOCTYPE svg PUBLIC "-//W3C//DTD SVG 1.1//EN"
 "http://www.w3.org/Graphics/SVG/1.1/DTD/svg11.dtd">
<!-- Generated by graphviz version 2.40.1 (20161225.0304)
 -->
<!-- Title: user/httpdespfs.h Pages: 1 -->
<svg width="727pt" height="700pt"
 viewBox="0.00 0.00 726.97 700.00" xmlns="http://www.w3.org/2000/svg" xmlns:xlink="http://www.w3.org/1999/xlink">
<g id="graph0" class="graph" transform="scale(1 1) rotate(0) translate(4 696)">
<title>user/httpdespfs.h</title>
<polygon fill="#ffffff" stroke="transparent" points="-4,4 -4,-696 722.9741,-696 722.9741,4 -4,4"/>
<!-- Node0 -->
<g id="node1" class="node">
<title>Node0</title>
<polygon fill="#bfbfbf" stroke="#000000" points="508.9741,-672.5 508.9741,-691.5 582.9741,-691.5 582.9741,-672.5 508.9741,-672.5"/>
<text text-anchor="middle" x="545.9741" y="-679.5" font-family="Helvetica,sans-Serif" font-size="10.00" fill="#000000">user/httpdespfs.h</text>
</g>
<!-- Node1 -->
<g id="node2" class="node">
<title>Node1</title>
<g id="a_node2"><a xlink:href="httpd_8h.html" target="_top" xlink:title="httpd.h">
<polygon fill="#ffffff" stroke="#000000" points="497.4741,-616.5 497.4741,-635.5 536.4741,-635.5 536.4741,-616.5 497.4741,-616.5"/>
<text text-anchor="middle" x="516.9741" y="-623.5" font-family="Helvetica,sans-Serif" font-size="10.00" fill="#000000">httpd.h</text>
</a>
</g>
</g>
<!-- Node0&#45;&gt;Node1 -->
<g id="edge1" class="edge">
<title>Node0&#45;&gt;Node1</title>
<path fill="none" stroke="#191970" d="M540.9227,-672.2455C536.9722,-664.617 531.3644,-653.7881 526.5683,-644.5267"/>
<polygon fill="#191970" stroke="#191970" points="529.6742,-642.9131 521.9676,-635.6427 523.4582,-646.1321 529.6742,-642.9131"/>
</g>
<!-- Node29 -->
<g id="node30" class="node">
<title>Node29</title>
<g id="a_node30"><a xlink:href="espfs_8h.html" target="_top" xlink:title="espfs.h">
<polygon fill="#ffffff" stroke="#000000" points="554.4741,-616.5 554.4741,-635.5 595.4741,-635.5 595.4741,-616.5 554.4741,-616.5"/>
<text text-anchor="middle" x="574.9741" y="-623.5" font-family="Helvetica,sans-Serif" font-size="10.00" fill="#000000">espfs.h</text>
</a>
</g>
</g>
<!-- Node0&#45;&gt;Node29 -->
<g id="edge40" class="edge">
<title>Node0&#45;&gt;Node29</title>
<path fill="none" stroke="#191970" d="M551.0255,-672.2455C554.976,-664.617 560.5838,-653.7881 565.3799,-644.5267"/>
<polygon fill="#191970" stroke="#191970" points="568.4899,-646.1321 569.9806,-635.6427 562.274,-642.9131 568.4899,-646.1321"/>
</g>
<!-- Node2 -->
<g id="node3" class="node">
<title>Node2</title>
<g id="a_node3"><a xlink:href="c__types_8h.html" target="_top" xlink:title="c_types.h">
<polygon fill="#ffffff" stroke="#000000" points="475.4741,-56.5 475.4741,-75.5 524.4741,-75.5 524.4741,-56.5 475.4741,-56.5"/>
<text text-anchor="middle" x="499.9741" y="-63.5" font-family="Helvetica,sans-Serif" font-size="10.00" fill="#000000">c_types.h</text>
</a>
</g>
</g>
<!-- Node1&#45;&gt;Node2 -->
<g id="edge2" class="edge">
<title>Node1&#45;&gt;Node2</title>
<path fill="none" stroke="#191970" d="M536.7105,-617.379C587.5389,-594.8805 718.9741,-534.7013 718.9741,-514 718.9741,-514 718.9741,-514 718.9741,-178 718.9741,-96.2527 596.5223,-74.1359 534.7471,-68.1796"/>
<polygon fill="#191970" stroke="#191970" points="534.9371,-64.6829 524.6705,-67.2997 534.3281,-71.6564 534.9371,-64.6829"/>
</g>
<!-- Node5 -->
<g id="node6" class="node">
<title>Node5</title>
<g id="a_node6"><a xlink:href="esp8266_8h.html" target="_top" xlink:title="esp8266.h">
<polygon fill="#ffffff" stroke="#000000" points="288.9741,-560.5 288.9741,-579.5 340.9741,-579.5 340.9741,-560.5 288.9741,-560.5"/>
<text text-anchor="middle" x="314.9741" y="-567.5" font-family="Helvetica,sans-Serif" font-size="10.00" fill="#000000">esp8266.h</text>
</a>
</g>
</g>
<!-- Node1&#45;&gt;Node5 -->
<g id="edge5" class="edge">
<title>Node1&#45;&gt;Node5</title>
<path fill="none" stroke="#191970" d="M497.2377,-620.5285C463.3243,-611.1268 393.5269,-591.777 350.8274,-579.9395"/>
<polygon fill="#191970" stroke="#191970" points="351.6844,-576.5452 341.1128,-577.2464 349.8143,-583.2908 351.6844,-576.5452"/>
</g>
<!-- Node3 -->
<g id="node4" class="node">
<title>Node3</title>
<polygon fill="#ffffff" stroke="#bfbfbf" points="448.4741,-.5 448.4741,-19.5 489.4741,-19.5 489.4741,-.5 448.4741,-.5"/>
<text text-anchor="middle" x="468.9741" y="-7.5" font-family="Helvetica,sans-Serif" font-size="10.00" fill="#000000">stdint.h</text>
</g>
<!-- Node2&#45;&gt;Node3 -->
<g id="edge3" class="edge">
<title>Node2&#45;&gt;Node3</title>
<path fill="none" stroke="#191970" d="M494.5743,-56.2455C490.3514,-48.617 484.3568,-37.7881 479.23,-28.5267"/>
<polygon fill="#191970" stroke="#191970" points="482.2173,-26.6965 474.312,-19.6427 476.0931,-30.0867 482.2173,-26.6965"/>
</g>
<!-- Node4 -->
<g id="node5" class="node">
<title>Node4</title>
<polygon fill="#ffffff" stroke="#bfbfbf" points="507.4741,-.5 507.4741,-19.5 554.4741,-19.5 554.4741,-.5 507.4741,-.5"/>
<text text-anchor="middle" x="530.9741" y="-7.5" font-family="Helvetica,sans-Serif" font-size="10.00" fill="#000000">stdbool.h</text>
</g>
<!-- Node2&#45;&gt;Node4 -->
<g id="edge4" class="edge">
<title>Node2&#45;&gt;Node4</title>
<path fill="none" stroke="#191970" d="M505.3739,-56.2455C509.5968,-48.617 515.5914,-37.7881 520.7182,-28.5267"/>
<polygon fill="#191970" stroke="#191970" points="523.8551,-30.0867 525.6362,-19.6427 517.7308,-26.6965 523.8551,-30.0867"/>
</g>
<!-- Node5&#45;&gt;Node2 -->
<g id="edge10" class="edge">
<title>Node5&#45;&gt;Node2</title>
<path fill="none" stroke="#191970" d="M341.041,-568.3408C377.4867,-564.9461 444.5237,-554.6986 491.9741,-524 523.5606,-503.5647 544.9741,-495.6206 544.9741,-458 544.9741,-458 544.9741,-458 544.9741,-178 544.9741,-142.7698 525.5663,-105.5087 512.2417,-84.0783"/>
<polygon fill="#191970" stroke="#191970" points="515.1729,-82.1655 506.8086,-75.6623 509.2919,-85.9621 515.1729,-82.1655"/>
</g>
<!-- Node6 -->
<g id="node7" class="node">
<title>Node6</title>
<polygon fill="#ffffff" stroke="#bfbfbf" points="29.4741,-504.5 29.4741,-523.5 70.4741,-523.5 70.4741,-504.5 29.4741,-504.5"/>
<text text-anchor="middle" x="49.9741" y="-511.5" font-family="Helvetica,sans-Serif" font-size="10.00" fill="#000000">ctype.h</text>
</g>
<!-- Node5&#45;&gt;Node6 -->
<g id="edge6" class="edge">
<title>Node5&#45;&gt;Node6</title>
<path fill="none" stroke="#191970" d="M288.8614,-566.133C246.764,-559.638 161.1918,-545.3593 80.5784,-524.179"/>
<polygon fill="#191970" stroke="#191970" points="81.3398,-520.7598 70.7753,-521.5619 79.5342,-527.5229 81.3398,-520.7598"/>
</g>
<!-- Node7 -->
<g id="node8" class="node">
<title>Node7</title>
<polygon fill="#ffffff" stroke="#bfbfbf" points="88.4741,-504.5 88.4741,-523.5 127.4741,-523.5 127.4741,-504.5 88.4741,-504.5"/>
<text text-anchor="middle" x="107.9741" y="-511.5" font-family="Helvetica,sans-Serif" font-size="10.00" fill="#000000">stdio.h</text>
</g>
<!-- Node5&#45;&gt;Node7 -->
<g id="edge7" class="edge">
<title>Node5&#45;&gt;Node7</title>
<path fill="none" stroke="#191970" d="M288.854,-563.9355C255.7692,-556.106 196.8379,-541.6685 137.1443,-523.8737"/>
<polygon fill="#191970" stroke="#191970" points="138.1456,-520.52 127.5612,-520.9894 136.1281,-527.223 138.1456,-520.52"/>
</g>
<!-- Node8 -->
<g id="node9" class="node">
<title>Node8</title>
<polygon fill="#ffffff" stroke="#bfbfbf" points="145.9741,-504.5 145.9741,-523.5 185.9741,-523.5 185.9741,-504.5 145.9741,-504.5"/>
<text text-anchor="middle" x="165.9741" y="-511.5" font-family="Helvetica,sans-Serif" font-size="10.00" fill="#000000">stdlib.h</text>
</g>
<!-- Node5&#45;&gt;Node8 -->
<g id="edge8" class="edge">
<title>Node5&#45;&gt;Node8</title>
<path fill="none" stroke="#191970" d="M289.3601,-560.3733C263.2751,-550.5695 222.8745,-535.3854 195.4691,-525.0854"/>
<polygon fill="#191970" stroke="#191970" points="196.6029,-521.7725 186.0109,-521.5306 194.1402,-528.325 196.6029,-521.7725"/>
</g>
<!-- Node9 -->
<g id="node10" class="node">
<title>Node9</title>
<polygon fill="#ffffff" stroke="#bfbfbf" points="53.4741,-56.5 53.4741,-75.5 94.4741,-75.5 94.4741,-56.5 53.4741,-56.5"/>
<text text-anchor="middle" x="73.9741" y="-63.5" font-family="Helvetica,sans-Serif" font-size="10.00" fill="#000000">string.h</text>
</g>
<!-- Node5&#45;&gt;Node9 -->
<g id="edge9" class="edge">
<title>Node5&#45;&gt;Node9</title>
<path fill="none" stroke="#191970" d="M288.7882,-569.4197C224.2167,-567.4563 59.7294,-559.0508 19.9741,-524 -2.9223,-503.8131 .9741,-488.5246 .9741,-458 .9741,-458 .9741,-458 .9741,-178 .9741,-138.8965 32.5912,-102.7535 54.2102,-82.6105"/>
<polygon fill="#191970" stroke="#191970" points="56.8087,-84.9817 61.9196,-75.7011 52.1368,-79.7688 56.8087,-84.9817"/>
</g>
<!-- Node10 -->
<g id="node11" class="node">
<title>Node10</title>
<g id="a_node11"><a xlink:href="ets__sys_8h.html" target="_top" xlink:title="ets_sys.h">
<polygon fill="#ffffff" stroke="#000000" points="377.9741,-112.5 377.9741,-131.5 425.9741,-131.5 425.9741,-112.5 377.9741,-112.5"/>
<text text-anchor="middle" x="401.9741" y="-119.5" font-family="Helvetica,sans-Serif" font-size="10.00" fill="#000000">ets_sys.h</text>
</a>
</g>
</g>
<!-- Node5&#45;&gt;Node10 -->
<g id="edge11" class="edge">
<title>Node5&#45;&gt;Node10</title>
<path fill="none" stroke="#191970" d="M341.2683,-566.9506C393.8523,-559.2366 506.9741,-533.8296 506.9741,-458 506.9741,-458 506.9741,-458 506.9741,-234 506.9741,-189.1218 461.5502,-154.8269 430.4557,-136.6081"/>
<polygon fill="#191970" stroke="#191970" points="432.1541,-133.5478 421.7238,-131.688 428.7178,-139.6463 432.1541,-133.5478"/>
</g>
<!-- Node12 -->
<g id="node13" class="node">
<title>Node12</title>
<g id="a_node13"><a xlink:href="gpio_8h.html" target="_top" xlink:title="gpio.h">
<polygon fill="#ffffff" stroke="#000000" points="151.4741,-448.5 151.4741,-467.5 188.4741,-467.5 188.4741,-448.5 151.4741,-448.5"/>
<text text-anchor="middle" x="169.9741" y="-455.5" font-family="Helvetica,sans-Serif" font-size="10.00" fill="#000000">gpio.h</text>
</a>
</g>
</g>
<!-- Node5&#45;&gt;Node12 -->
<g id="edge14" class="edge">
<title>Node5&#45;&gt;Node12</title>
<path fill="none" stroke="#191970" d="M302.6115,-560.4509C277.6781,-541.1921 221.1408,-497.5218 190.5505,-473.8935"/>
<polygon fill="#191970" stroke="#191970" points="192.359,-470.8679 182.3054,-467.5249 188.0799,-476.4078 192.359,-470.8679"/>
</g>
<!-- Node13 -->
<g id="node14" class="node">
<title>Node13</title>
<g id="a_node14"><a xlink:href="sdk_2include_2mem_8h.html" target="_top" xlink:title="mem.h">
<polygon fill="#ffffff" stroke="#000000" points="368.4741,-504.5 368.4741,-523.5 407.4741,-523.5 407.4741,-504.5 368.4741,-504.5"/>
<text text-anchor="middle" x="387.9741" y="-511.5" font-family="Helvetica,sans-Serif" font-size="10.00" fill="#000000">mem.h</text>
</a>
</g>
</g>
<!-- Node5&#45;&gt;Node13 -->
<g id="edge15" class="edge">
<title>Node5&#45;&gt;Node13</title>
<path fill="none" stroke="#191970" d="M327.6897,-560.2455C338.5761,-551.8943 354.4624,-539.7076 367.1941,-529.9408"/>
<polygon fill="#191970" stroke="#191970" points="369.6002,-532.5063 375.4042,-523.6427 365.3395,-526.9523 369.6002,-532.5063"/>
</g>
<!-- Node14 -->
<g id="node15" class="node">
<title>Node14</title>
<g id="a_node15"><a xlink:href="osapi_8h.html" target="_top" xlink:title="osapi.h">
<polygon fill="#ffffff" stroke="#000000" points="123.4741,-112.5 123.4741,-131.5 164.4741,-131.5 164.4741,-112.5 123.4741,-112.5"/>
<text text-anchor="middle" x="143.9741" y="-119.5" font-family="Helvetica,sans-Serif" font-size="10.00" fill="#000000">osapi.h</text>
</a>
</g>
</g>
<!-- Node5&#45;&gt;Node14 -->
<g id="edge16" class="edge">
<title>Node5&#45;&gt;Node14</title>
<path fill="none" stroke="#191970" d="M295.9259,-560.4091C278.3249,-551.4068 251.5628,-537.3622 228.9741,-524 219.1598,-518.1944 149.8196,-477.1194 142.9741,-468 124.5735,-443.4872 122.9741,-432.6506 122.9741,-402 122.9741,-402 122.9741,-402 122.9741,-234 122.9741,-201.1675 131.7998,-163.834 138.0081,-141.634"/>
<polygon fill="#191970" stroke="#191970" points="141.4442,-142.3521 140.8755,-131.7725 134.7226,-140.3977 141.4442,-142.3521"/>
</g>
<!-- Node16 -->
<g id="node17" class="node">
<title>Node16</title>
<g id="a_node17"><a xlink:href="user__interface_8h.html" target="_top" xlink:title="user_interface.h">
<polygon fill="#ffffff" stroke="#000000" points="279.9741,-504.5 279.9741,-523.5 349.9741,-523.5 349.9741,-504.5 279.9741,-504.5"/>
<text text-anchor="middle" x="314.9741" y="-511.5" font-family="Helvetica,sans-Serif" font-size="10.00" fill="#000000">user_interface.h</text>
</a>
</g>
</g>
<!-- Node5&#45;&gt;Node16 -->
<g id="edge19" class="edge">
<title>Node5&#45;&gt;Node16</title>
<path fill="none" stroke="#191970" d="M314.9741,-560.2455C314.9741,-552.9382 314.9741,-542.6944 314.9741,-533.7046"/>
<polygon fill="#191970" stroke="#191970" points="318.4742,-533.6426 314.9741,-523.6427 311.4742,-533.6427 318.4742,-533.6426"/>
</g>
<!-- Node27 -->
<g id="node28" class="node">
<title>Node27</title>
<g id="a_node28"><a xlink:href="upgrade_8h.html" target="_top" xlink:title="upgrade.h">
<polygon fill="#ffffff" stroke="#000000" points="572.9741,-504.5 572.9741,-523.5 622.9741,-523.5 622.9741,-504.5 572.9741,-504.5"/>
<text text-anchor="middle" x="597.9741" y="-511.5" font-family="Helvetica,sans-Serif" font-size="10.00" fill="#000000">upgrade.h</text>
</a>
</g>
</g>
<!-- Node5&#45;&gt;Node27 -->
<g id="edge38" class="edge">
<title>Node5&#45;&gt;Node27</title>
<path fill="none" stroke="#191970" d="M341.0871,-565.6482C385.8577,-558.0596 480.0726,-541.5338 558.9741,-524 560.2407,-523.7185 561.5286,-523.4253 562.8282,-523.1235"/>
<polygon fill="#191970" stroke="#191970" points="563.961,-526.4504 572.8562,-520.6949 562.3133,-519.6471 563.961,-526.4504"/>
</g>
<!-- Node28 -->
<g id="node29" class="node">
<title>Node28</title>
<g id="a_node29"><a xlink:href="platform_8h.html" target="_top" xlink:title="platform.h">
<polygon fill="#ffffff" stroke="#000000" points="640.9741,-504.5 640.9741,-523.5 690.9741,-523.5 690.9741,-504.5 640.9741,-504.5"/>
<text text-anchor="middle" x="665.9741" y="-511.5" font-family="Helvetica,sans-Serif" font-size="10.00" fill="#000000">platform.h</text>
</a>
</g>
</g>
<!-- Node5&#45;&gt;Node28 -->
<g id="edge39" class="edge">
<title>Node5&#45;&gt;Node28</title>
<path fill="none" stroke="#191970" d="M341.0857,-567.4799C394.0361,-562.1 517.9335,-548.1429 630.972,-523.9686"/>
<polygon fill="#191970" stroke="#191970" points="631.7965,-527.3712 640.826,-521.8288 630.311,-520.5307 631.7965,-527.3712"/>
</g>
<!-- Node10&#45;&gt;Node2 -->
<g id="edge12" class="edge">
<title>Node10&#45;&gt;Node2</title>
<path fill="none" stroke="#191970" d="M419.0444,-112.2455C434.2211,-103.5731 456.6362,-90.7645 474.0304,-80.825"/>
<polygon fill="#191970" stroke="#191970" points="476.1535,-83.643 483.0994,-75.6427 472.6805,-77.5653 476.1535,-83.643"/>
</g>
<!-- Node11 -->
<g id="node12" class="node">
<title>Node11</title>
<g id="a_node12"><a xlink:href="eagle__soc_8h.html" target="_top" xlink:title="eagle_soc.h">
<polygon fill="#ffffff" stroke="#000000" points="373.4741,-56.5 373.4741,-75.5 430.4741,-75.5 430.4741,-56.5 373.4741,-56.5"/>
<text text-anchor="middle" x="401.9741" y="-63.5" font-family="Helvetica,sans-Serif" font-size="10.00" fill="#000000">eagle_soc.h</text>
</a>
</g>
</g>
<!-- Node10&#45;&gt;Node11 -->
<g id="edge13" class="edge">
<title>Node10&#45;&gt;Node11</title>
<path fill="none" stroke="#191970" d="M401.9741,-112.2455C401.9741,-104.9382 401.9741,-94.6944 401.9741,-85.7046"/>
<polygon fill="#191970" stroke="#191970" points="405.4742,-85.6426 401.9741,-75.6427 398.4742,-85.6427 405.4742,-85.6426"/>
</g>
<!-- Node14&#45;&gt;Node9 -->
<g id="edge17" class="edge">
<title>Node14&#45;&gt;Node9</title>
<path fill="none" stroke="#191970" d="M131.781,-112.2455C121.342,-103.8943 106.1086,-91.7076 93.9001,-81.9408"/>
<polygon fill="#191970" stroke="#191970" points="96.0226,-79.1566 86.0274,-75.6427 91.6497,-84.6227 96.0226,-79.1566"/>
</g>
<!-- Node15 -->
<g id="node16" class="node">
<title>Node15</title>
<polygon fill="#ffffff" stroke="#bfbfbf" points="159.9741,-56.5 159.9741,-75.5 221.9741,-75.5 221.9741,-56.5 159.9741,-56.5"/>
<text text-anchor="middle" x="190.9741" y="-63.5" font-family="Helvetica,sans-Serif" font-size="10.00" fill="#000000">user_config.h</text>
</g>
<!-- Node14&#45;&gt;Node15 -->
<g id="edge18" class="edge">
<title>Node14&#45;&gt;Node15</title>
<path fill="none" stroke="#191970" d="M152.1609,-112.2455C158.833,-104.2958 168.422,-92.8706 176.3994,-83.3656"/>
<polygon fill="#191970" stroke="#191970" points="179.1333,-85.5525 182.8811,-75.6427 173.7715,-81.0524 179.1333,-85.5525"/>
</g>
<!-- Node16&#45;&gt;Node12 -->
<g id="edge37" class="edge">
<title>Node16&#45;&gt;Node12</title>
<path fill="none" stroke="#191970" d="M290.0477,-504.3733C264.4871,-494.5016 224.8016,-479.1748 198.1248,-468.872"/>
<polygon fill="#191970" stroke="#191970" points="199.1836,-465.529 188.5942,-465.1912 196.6617,-472.059 199.1836,-465.529"/>
</g>
<!-- Node16&#45;&gt;Node15 -->
<g id="edge35" class="edge">
<title>Node16&#45;&gt;Node15</title>
<path fill="none" stroke="#191970" d="M302.3615,-504.4088C291.5258,-495.7299 275.9585,-482.17 264.9741,-468 229.0725,-421.6864 214.9741,-404.5993 214.9741,-346 214.9741,-346 214.9741,-346 214.9741,-178 214.9741,-144.8465 204.7952,-107.3737 197.6953,-85.2684"/>
<polygon fill="#191970" stroke="#191970" points="201.0005,-84.1157 194.5154,-75.7375 194.3603,-86.3312 201.0005,-84.1157"/>
</g>
<!-- Node17 -->
<g id="node18" class="node">
<title>Node17</title>
<g id="a_node18"><a xlink:href="os__type_8h.html" target="_top" xlink:title="os_type.h">
<polygon fill="#ffffff" stroke="#000000" points="243.4741,-392.5 243.4741,-411.5 292.4741,-411.5 292.4741,-392.5 243.4741,-392.5"/>
<text text-anchor="middle" x="267.9741" y="-399.5" font-family="Helvetica,sans-Serif" font-size="10.00" fill="#000000">os_type.h</text>
</a>
</g>
</g>
<!-- Node16&#45;&gt;Node17 -->
<g id="edge20" class="edge">
<title>Node16&#45;&gt;Node17</title>
<path fill="none" stroke="#191970" d="M303.3395,-504.3574C293.9557,-495.8459 281.3122,-482.5546 274.9741,-468 268.6485,-453.474 267.0985,-435.512 267.019,-421.9955"/>
<polygon fill="#191970" stroke="#191970" points="270.521,-421.9296 267.2255,-411.8604 263.5224,-421.787 270.521,-421.9296"/>
</g>
<!-- Node18 -->
<g id="node19" class="node">
<title>Node18</title>
<g id="a_node19"><a xlink:href="esp-open-lwip_2include_2lwip_2ip__addr_8h.html" target="_top" xlink:title="lwip/ip_addr.h">
<polygon fill="#ffffff" stroke="#000000" points="283.4741,-448.5 283.4741,-467.5 346.4741,-467.5 346.4741,-448.5 283.4741,-448.5"/>
<text text-anchor="middle" x="314.9741" y="-455.5" font-family="Helvetica,sans-Serif" font-size="10.00" fill="#000000">lwip/ip_addr.h</text>
</a>
</g>
</g>
<!-- Node16&#45;&gt;Node18 -->
<g id="edge22" class="edge">
<title>Node16&#45;&gt;Node18</title>
<path fill="none" stroke="#191970" d="M314.9741,-504.2455C314.9741,-496.9382 314.9741,-486.6944 314.9741,-477.7046"/>
<polygon fill="#191970" stroke="#191970" points="318.4742,-477.6426 314.9741,-467.6427 311.4742,-477.6427 318.4742,-477.6426"/>
</g>
<!-- Node25 -->
<g id="node26" class="node">
<title>Node25</title>
<g id="a_node26"><a xlink:href="esp-open-sdk_2sdk_2include_2queue_8h.html" target="_top" xlink:title="queue.h">
<polygon fill="#ffffff" stroke="#000000" points="364.9741,-448.5 364.9741,-467.5 408.9741,-467.5 408.9741,-448.5 364.9741,-448.5"/>
<text text-anchor="middle" x="386.9741" y="-455.5" font-family="Helvetica,sans-Serif" font-size="10.00" fill="#000000">queue.h</text>
</a>
</g>
</g>
<!-- Node16&#45;&gt;Node25 -->
<g id="edge34" class="edge">
<title>Node16&#45;&gt;Node25</title>
<path fill="none" stroke="#191970" d="M327.5155,-504.2455C338.2528,-495.8943 353.9214,-483.7076 366.4787,-473.9408"/>
<polygon fill="#191970" stroke="#191970" points="368.8316,-476.5449 374.5764,-467.6427 364.534,-471.0194 368.8316,-476.5449"/>
</g>
<!-- Node26 -->
<g id="node27" class="node">
<title>Node26</title>
<g id="a_node27"><a xlink:href="spi__flash_8h.html" target="_top" xlink:title="spi_flash.h">
<polygon fill="#ffffff" stroke="#000000" points="426.9741,-448.5 426.9741,-467.5 478.9741,-467.5 478.9741,-448.5 426.9741,-448.5"/>
<text text-anchor="middle" x="452.9741" y="-455.5" font-family="Helvetica,sans-Serif" font-size="10.00" fill="#000000">spi_flash.h</text>
</a>
</g>
</g>
<!-- Node16&#45;&gt;Node26 -->
<g id="edge36" class="edge">
<title>Node16&#45;&gt;Node26</title>
<path fill="none" stroke="#191970" d="M338.6971,-504.3733C361.1477,-495.2629 395.048,-481.5062 420.0996,-471.3404"/>
<polygon fill="#191970" stroke="#191970" points="421.6106,-474.5045 429.5606,-467.5011 418.9784,-468.0182 421.6106,-474.5045"/>
</g>
<!-- Node17&#45;&gt;Node10 -->
<g id="edge21" class="edge">
<title>Node17&#45;&gt;Node10</title>
<path fill="none" stroke="#191970" d="M269.1203,-392.4281C271.3324,-373.0998 275.9741,-328.0133 275.9741,-290 275.9741,-290 275.9741,-290 275.9741,-234 275.9741,-184.5649 330.8248,-151.6072 368.1463,-134.9039"/>
<polygon fill="#191970" stroke="#191970" points="369.8691,-137.9734 377.68,-130.8152 367.11,-131.5401 369.8691,-137.9734"/>
</g>
<!-- Node19 -->
<g id="node20" class="node">
<title>Node19</title>
<g id="a_node20"><a xlink:href="opt_8h.html" target="_top" xlink:title="lwip/opt.h">
<polygon fill="#ffffff" stroke="#000000" points="358.9741,-336.5 358.9741,-355.5 406.9741,-355.5 406.9741,-336.5 358.9741,-336.5"/>
<text text-anchor="middle" x="382.9741" y="-343.5" font-family="Helvetica,sans-Serif" font-size="10.00" fill="#000000">lwip/opt.h</text>
</a>
</g>
</g>
<!-- Node18&#45;&gt;Node19 -->
<g id="edge23" class="edge">
<title>Node18&#45;&gt;Node19</title>
<path fill="none" stroke="#191970" d="M330.8577,-448.2718C342.8795,-440.0755 358.8326,-427.2596 367.9741,-412 376.3716,-397.9823 380.0721,-379.7185 381.7005,-365.958"/>
<polygon fill="#191970" stroke="#191970" points="385.2177,-365.9266 382.6387,-355.6504 378.2466,-365.292 385.2177,-365.9266"/>
</g>
<!-- Node24 -->
<g id="node25" class="node">
<title>Node24</title>
<g id="a_node25"><a xlink:href="def_8h.html" target="_top" xlink:title="lwip/def.h">
<polygon fill="#ffffff" stroke="#000000" points="310.9741,-392.5 310.9741,-411.5 358.9741,-411.5 358.9741,-392.5 310.9741,-392.5"/>
<text text-anchor="middle" x="334.9741" y="-399.5" font-family="Helvetica,sans-Serif" font-size="10.00" fill="#000000">lwip/def.h</text>
</a>
</g>
</g>
<!-- Node18&#45;&gt;Node24 -->
<g id="edge31" class="edge">
<title>Node18&#45;&gt;Node24</title>
<path fill="none" stroke="#191970" d="M318.4578,-448.2455C321.1249,-440.7776 324.8874,-430.2427 328.1478,-421.1137"/>
<polygon fill="#191970" stroke="#191970" points="331.4629,-422.2373 331.5303,-411.6427 324.8707,-419.8829 331.4629,-422.2373"/>
</g>
<!-- Node20 -->
<g id="node21" class="node">
<title>Node20</title>
<g id="a_node21"><a xlink:href="lwipopts_8h.html" target="_top" xlink:title="lwipopts.h">
<polygon fill="#ffffff" stroke="#000000" points="428.9741,-280.5 428.9741,-299.5 478.9741,-299.5 478.9741,-280.5 428.9741,-280.5"/>
<text text-anchor="middle" x="453.9741" y="-287.5" font-family="Helvetica,sans-Serif" font-size="10.00" fill="#000000">lwipopts.h</text>
</a>
</g>
</g>
<!-- Node19&#45;&gt;Node20 -->
<g id="edge24" class="edge">
<title>Node19&#45;&gt;Node20</title>
<path fill="none" stroke="#191970" d="M395.3413,-336.2455C405.9295,-327.8943 421.3805,-315.7076 433.7634,-305.9408"/>
<polygon fill="#191970" stroke="#191970" points="436.0644,-308.5837 441.7486,-299.6427 431.7294,-303.0875 436.0644,-308.5837"/>
</g>
<!-- Node21 -->
<g id="node22" class="node">
<title>Node21</title>
<g id="a_node22"><a xlink:href="esp-open-sdk_2esp-open-lwip_2include_2lwip_2debug_8h.html" target="_top" xlink:title="lwip/debug.h">
<polygon fill="#ffffff" stroke="#000000" points="351.4741,-280.5 351.4741,-299.5 410.4741,-299.5 410.4741,-280.5 351.4741,-280.5"/>
<text text-anchor="middle" x="380.9741" y="-287.5" font-family="Helvetica,sans-Serif" font-size="10.00" fill="#000000">lwip/debug.h</text>
</a>
</g>
</g>
<!-- Node19&#45;&gt;Node21 -->
<g id="edge25" class="edge">
<title>Node19&#45;&gt;Node21</title>
<path fill="none" stroke="#191970" d="M382.6257,-336.2455C382.3647,-328.9382 381.9989,-318.6944 381.6778,-309.7046"/>
<polygon fill="#191970" stroke="#191970" points="385.1733,-309.5113 381.3185,-299.6427 378.1777,-309.7613 385.1733,-309.5113"/>
</g>
<!-- Node22 -->
<g id="node23" class="node">
<title>Node22</title>
<g id="a_node23"><a xlink:href="arch_8h.html" target="_top" xlink:title="lwip/arch.h">
<polygon fill="#ffffff" stroke="#000000" points="354.9741,-224.5 354.9741,-243.5 406.9741,-243.5 406.9741,-224.5 354.9741,-224.5"/>
<text text-anchor="middle" x="380.9741" y="-231.5" font-family="Helvetica,sans-Serif" font-size="10.00" fill="#000000">lwip/arch.h</text>
</a>
</g>
</g>
<!-- Node21&#45;&gt;Node22 -->
<g id="edge26" class="edge">
<title>Node21&#45;&gt;Node22</title>
<path fill="none" stroke="#191970" d="M380.9741,-280.2455C380.9741,-272.9382 380.9741,-262.6944 380.9741,-253.7046"/>
<polygon fill="#191970" stroke="#191970" points="384.4742,-253.6426 380.9741,-243.6427 377.4742,-253.6427 384.4742,-253.6426"/>
</g>
<!-- Node23 -->
<g id="node24" class="node">
<title>Node23</title>
<g id="a_node24"><a xlink:href="cc_8h.html" target="_top" xlink:title="arch/cc.h">
<polygon fill="#ffffff" stroke="#000000" points="364.4741,-168.5 364.4741,-187.5 411.4741,-187.5 411.4741,-168.5 364.4741,-168.5"/>
<text text-anchor="middle" x="387.9741" y="-175.5" font-family="Helvetica,sans-Serif" font-size="10.00" fill="#000000">arch/cc.h</text>
</a>
</g>
</g>
<!-- Node22&#45;&gt;Node23 -->
<g id="edge27" class="edge">
<title>Node22&#45;&gt;Node23</title>
<path fill="none" stroke="#191970" d="M382.1934,-224.2455C383.1068,-216.9382 384.3873,-206.6944 385.511,-197.7046"/>
<polygon fill="#191970" stroke="#191970" points="389.0013,-197.9996 386.7688,-187.6427 382.0553,-197.1313 389.0013,-197.9996"/>
</g>
<!-- Node23&#45;&gt;Node2 -->
<g id="edge28" class="edge">
<title>Node23&#45;&gt;Node2</title>
<path fill="none" stroke="#191970" d="M398.1119,-168.1828C407.6664,-158.9056 422.36,-144.5748 434.9741,-132 451.5406,-115.4851 470.2653,-96.4305 483.3476,-83.0537"/>
<polygon fill="#191970" stroke="#191970" points="485.8555,-85.4951 490.3393,-75.8958 480.848,-80.6038 485.8555,-85.4951"/>
</g>
<!-- Node23&#45;&gt;Node10 -->
<g id="edge29" class="edge">
<title>Node23&#45;&gt;Node10</title>
<path fill="none" stroke="#191970" d="M390.4127,-168.2455C392.2596,-160.8579 394.8569,-150.4689 397.1219,-141.4087"/>
<polygon fill="#191970" stroke="#191970" points="400.5335,-142.193 399.5634,-131.6427 393.7425,-140.4952 400.5335,-142.193"/>
</g>
<!-- Node23&#45;&gt;Node14 -->
<g id="edge30" class="edge">
<title>Node23&#45;&gt;Node14</title>
<path fill="none" stroke="#191970" d="M364.1341,-172.5285C319.577,-162.3023 223.7396,-140.3068 174.5195,-129.0104"/>
<polygon fill="#191970" stroke="#191970" points="175.2888,-125.5961 164.7593,-126.7704 173.7229,-132.4187 175.2888,-125.5961"/>
</g>
<!-- Node24&#45;&gt;Node19 -->
<g id="edge33" class="edge">
<title>Node24&#45;&gt;Node19</title>
<path fill="none" stroke="#191970" d="M343.3351,-392.2455C350.1491,-384.2958 359.9422,-372.8706 368.0893,-363.3656"/>
<polygon fill="#191970" stroke="#191970" points="370.8584,-365.513 374.7089,-355.6427 365.5436,-360.9575 370.8584,-365.513"/>
</g>
<!-- Node24&#45;&gt;Node22 -->
<g id="edge32" class="edge">
<title>Node24&#45;&gt;Node22</title>
<path fill="none" stroke="#191970" d="M333.669,-392.3874C331.1986,-371.2024 327.3864,-319.2585 342.9741,-280 347.2745,-269.1691 355.1338,-258.974 362.5936,-250.9477"/>
<polygon fill="#191970" stroke="#191970" points="365.2215,-253.2681 369.7735,-243.7009 360.2489,-248.3413 365.2215,-253.2681"/>
</g>
</g>
</svg>
