<?xml version="1.0" encoding="UTF-8" standalone="no"?>
<!DOCTYPE svg PUBLIC "-//W3C//DTD SVG 1.1//EN"
 "http://www.w3.org/Graphics/SVG/1.1/DTD/svg11.dtd">
<!-- Generated by graphviz version 2.40.1 (20161225.0304)
 -->
<!-- Title: httpdHexVal Pages: 1 -->
<svg width="370pt" height="66pt"
 viewBox="0.00 0.00 370.00 66.00" xmlns="http://www.w3.org/2000/svg" xmlns:xlink="http://www.w3.org/1999/xlink">
<g id="graph0" class="graph" transform="scale(1 1) rotate(0) translate(4 62)">
<title>httpdHexVal</title>
<polygon fill="#ffffff" stroke="transparent" points="-4,4 -4,-62 366,-62 366,4 -4,4"/>
<!-- Node101 -->
<g id="node1" class="node">
<title>Node101</title>
<polygon fill="#bfbfbf" stroke="#000000" points="0,-19.5 0,-38.5 57,-38.5 57,-19.5 0,-19.5"/>
<text text-anchor="middle" x="28.5" y="-26.5" font-family="Helvetica,sans-Serif" font-size="10.00" fill="#000000">httpdHexVal</text>
</g>
<!-- Node102 -->
<g id="node2" class="node">
<title>Node102</title>
<g id="a_node2"><a xlink:href="httpd_8h.html#a45e5cfc52bcba530447be34fd5bae705" target="_top" xlink:title="httpdUrlDecode">
<polygon fill="#ffffff" stroke="#000000" points="93,-19.5 93,-38.5 162,-38.5 162,-19.5 93,-19.5"/>
<text text-anchor="middle" x="127.5" y="-26.5" font-family="Helvetica,sans-Serif" font-size="10.00" fill="#000000">httpdUrlDecode</text>
</a>
</g>
</g>
<!-- Node101&#45;&gt;Node102 -->
<g id="edge1" class="edge">
<title>Node101&#45;&gt;Node102</title>
<path fill="none" stroke="#191970" d="M67.2061,-29C75.7029,-29 84.6457,-29 92.9658,-29"/>
<polygon fill="#191970" stroke="#191970" points="67.1349,-25.5001 57.1349,-29 67.1349,-32.5001 67.1349,-25.5001"/>
</g>
<!-- Node103 -->
<g id="node3" class="node">
<title>Node103</title>
<g id="a_node3"><a xlink:href="httpd_8h.html#a5024249acf005b3e40a1257a2267532b" target="_top" xlink:title="httpdFindArg">
<polygon fill="#ffffff" stroke="#000000" points="198,-19.5 198,-38.5 257,-38.5 257,-19.5 198,-19.5"/>
<text text-anchor="middle" x="227.5" y="-26.5" font-family="Helvetica,sans-Serif" font-size="10.00" fill="#000000">httpdFindArg</text>
</a>
</g>
</g>
<!-- Node102&#45;&gt;Node103 -->
<g id="edge2" class="edge">
<title>Node102&#45;&gt;Node103</title>
<path fill="none" stroke="#191970" d="M172.2254,-29C180.9085,-29 189.8061,-29 197.8551,-29"/>
<polygon fill="#191970" stroke="#191970" points="172.1945,-25.5001 162.1945,-29 172.1945,-32.5001 172.1945,-25.5001"/>
</g>
<!-- Node104 -->
<g id="node4" class="node">
<title>Node104</title>
<g id="a_node4"><a xlink:href="cgiwifi_8h.html#a7c655a56f56ecebad923c5c4daeb7f1a" target="_top" xlink:title="cgiSetup">
<polygon fill="#ffffff" stroke="#000000" points="304.5,-38.5 304.5,-57.5 350.5,-57.5 350.5,-38.5 304.5,-38.5"/>
<text text-anchor="middle" x="327.5" y="-45.5" font-family="Helvetica,sans-Serif" font-size="10.00" fill="#000000">cgiSetup</text>
</a>
</g>
</g>
<!-- Node103&#45;&gt;Node104 -->
<g id="edge3" class="edge">
<title>Node103&#45;&gt;Node104</title>
<path fill="none" stroke="#191970" d="M267.1078,-36.5255C279.7511,-38.9277 293.3219,-41.5062 304.3902,-43.6091"/>
<polygon fill="#191970" stroke="#191970" points="267.7101,-33.0774 257.2325,-34.6492 266.4035,-39.9544 267.7101,-33.0774"/>
</g>
<!-- Node105 -->
<g id="node5" class="node">
<title>Node105</title>
<g id="a_node5"><a xlink:href="cgiwifi_8h.html#a4ba43d83032eea6839857ed163af5fc9" target="_top" xlink:title="cgiWifiSetMode">
<polygon fill="#ffffff" stroke="#000000" points="293,-.5 293,-19.5 362,-19.5 362,-.5 293,-.5"/>
<text text-anchor="middle" x="327.5" y="-7.5" font-family="Helvetica,sans-Serif" font-size="10.00" fill="#000000">cgiWifiSetMode</text>
</a>
</g>
</g>
<!-- Node103&#45;&gt;Node105 -->
<g id="edge4" class="edge">
<title>Node103&#45;&gt;Node105</title>
<path fill="none" stroke="#191970" d="M267.257,-21.4462C275.6967,-19.8426 284.5432,-18.1618 292.7781,-16.5972"/>
<polygon fill="#191970" stroke="#191970" points="266.4035,-18.0456 257.2325,-23.3508 267.7101,-24.9226 266.4035,-18.0456"/>
</g>
</g>
</svg>
