<?xml version="1.0" encoding="UTF-8" standalone="no"?>
<!DOCTYPE svg PUBLIC "-//W3C//DTD SVG 1.1//EN"
 "http://www.w3.org/Graphics/SVG/1.1/DTD/svg11.dtd">
<!-- Generated by graphviz version 2.40.1 (20161225.0304)
 -->
<!-- Title: user/httpd.h Pages: 1 -->
<svg width="558pt" height="151pt"
 viewBox="0.00 0.00 558.00 151.00" xmlns="http://www.w3.org/2000/svg" xmlns:xlink="http://www.w3.org/1999/xlink">
<g id="graph0" class="graph" transform="scale(1 1) rotate(0) translate(4 147)">
<title>user/httpd.h</title>
<polygon fill="#ffffff" stroke="transparent" points="-4,4 -4,-147 554,-147 554,4 -4,4"/>
<!-- Node28 -->
<g id="node1" class="node">
<title>Node28</title>
<polygon fill="#bfbfbf" stroke="#000000" points="238,-123.5 238,-142.5 294,-142.5 294,-123.5 238,-123.5"/>
<text text-anchor="middle" x="266" y="-130.5" font-family="Helvetica,sans-Serif" font-size="10.00" fill="#000000">user/httpd.h</text>
</g>
<!-- Node29 -->
<g id="node2" class="node">
<title>Node29</title>
<g id="a_node2"><a xlink:href="auth_8c.html" target="_top" xlink:title="user/auth.c">
<polygon fill="#ffffff" stroke="#000000" points="0,-62 0,-81 54,-81 54,-62 0,-62"/>
<text text-anchor="middle" x="27" y="-69" font-family="Helvetica,sans-Serif" font-size="10.00" fill="#000000">user/auth.c</text>
</a>
</g>
</g>
<!-- Node28&#45;&gt;Node29 -->
<g id="edge1" class="edge">
<title>Node28&#45;&gt;Node29</title>
<path fill="none" stroke="#191970" d="M228.0961,-126.5676C186.8924,-119.079 119.3856,-105.3547 63,-87 57.8236,-85.315 52.3668,-83.1694 47.3104,-81.0157"/>
<polygon fill="#191970" stroke="#191970" points="227.522,-130.0204 237.9821,-128.3362 228.7548,-123.1298 227.522,-130.0204"/>
</g>
<!-- Node30 -->
<g id="node3" class="node">
<title>Node30</title>
<g id="a_node3"><a xlink:href="cgiwifi_8c.html" target="_top" xlink:title="user/cgiwifi.c">
<polygon fill="#ffffff" stroke="#000000" points="72.5,-62 72.5,-81 131.5,-81 131.5,-62 72.5,-62"/>
<text text-anchor="middle" x="102" y="-69" font-family="Helvetica,sans-Serif" font-size="10.00" fill="#000000">user/cgiwifi.c</text>
</a>
</g>
</g>
<!-- Node28&#45;&gt;Node30 -->
<g id="edge2" class="edge">
<title>Node28&#45;&gt;Node30</title>
<path fill="none" stroke="#191970" d="M229.6531,-119.9033C204.6605,-110.8296 170.7432,-98.3811 141,-87 136.1005,-85.1252 130.8721,-83.079 125.8872,-81.1059"/>
<polygon fill="#191970" stroke="#191970" points="228.5092,-123.2115 239.1034,-123.3279 230.8942,-116.6303 228.5092,-123.2115"/>
</g>
<!-- Node31 -->
<g id="node4" class="node">
<title>Node31</title>
<g id="a_node4"><a xlink:href="cgiwifi_8h.html" target="_top" xlink:title="user/cgiwifi.h">
<polygon fill="#ffffff" stroke="#000000" points="150,-62 150,-81 210,-81 210,-62 150,-62"/>
<text text-anchor="middle" x="180" y="-69" font-family="Helvetica,sans-Serif" font-size="10.00" fill="#000000">user/cgiwifi.h</text>
</a>
</g>
</g>
<!-- Node28&#45;&gt;Node31 -->
<g id="edge3" class="edge">
<title>Node28&#45;&gt;Node31</title>
<path fill="none" stroke="#191970" d="M244.2812,-117.4685C228.2491,-106.0037 206.9396,-90.765 193.3431,-81.0419"/>
<polygon fill="#191970" stroke="#191970" points="242.3924,-120.4207 252.5625,-123.3906 246.4643,-114.7268 242.3924,-120.4207"/>
</g>
<!-- Node32 -->
<g id="node5" class="node">
<title>Node32</title>
<g id="a_node5"><a xlink:href="httpd__user__init_8c.html" target="_top" xlink:title="user/httpd_user_init.c">
<polygon fill="#ffffff" stroke="#000000" points="194,-.5 194,-19.5 282,-19.5 282,-.5 194,-.5"/>
<text text-anchor="middle" x="238" y="-7.5" font-family="Helvetica,sans-Serif" font-size="10.00" fill="#000000">user/httpd_user_init.c</text>
</a>
</g>
</g>
<!-- Node28&#45;&gt;Node32 -->
<g id="edge6" class="edge">
<title>Node28&#45;&gt;Node32</title>
<path fill="none" stroke="#191970" d="M261.581,-113.5879C255.4984,-86.8678 244.7782,-39.7756 240.1869,-19.6068"/>
<polygon fill="#191970" stroke="#191970" points="258.1705,-114.3747 263.8029,-123.3484 264.9959,-112.8209 258.1705,-114.3747"/>
</g>
<!-- Node33 -->
<g id="node6" class="node">
<title>Node33</title>
<g id="a_node6"><a xlink:href="httpd_8c.html" target="_top" xlink:title="user/httpd.c">
<polygon fill="#ffffff" stroke="#000000" points="266,-62 266,-81 322,-81 322,-62 266,-62"/>
<text text-anchor="middle" x="294" y="-69" font-family="Helvetica,sans-Serif" font-size="10.00" fill="#000000">user/httpd.c</text>
</a>
</g>
</g>
<!-- Node28&#45;&gt;Node33 -->
<g id="edge5" class="edge">
<title>Node28&#45;&gt;Node33</title>
<path fill="none" stroke="#191970" d="M274.5352,-114.253C279.4944,-103.3606 285.5387,-90.0846 289.5633,-81.2449"/>
<polygon fill="#191970" stroke="#191970" points="271.3333,-112.8392 270.375,-123.3906 277.7041,-115.7398 271.3333,-112.8392"/>
</g>
<!-- Node34 -->
<g id="node7" class="node">
<title>Node34</title>
<g id="a_node7"><a xlink:href="httpdespfs_8h.html" target="_top" xlink:title="user/httpdespfs.h">
<polygon fill="#ffffff" stroke="#000000" points="340,-62 340,-81 414,-81 414,-62 340,-62"/>
<text text-anchor="middle" x="377" y="-69" font-family="Helvetica,sans-Serif" font-size="10.00" fill="#000000">user/httpdespfs.h</text>
</a>
</g>
</g>
<!-- Node28&#45;&gt;Node34 -->
<g id="edge7" class="edge">
<title>Node28&#45;&gt;Node34</title>
<path fill="none" stroke="#191970" d="M292.3241,-118.415C313.1893,-106.8546 341.7416,-91.035 359.778,-81.0419"/>
<polygon fill="#191970" stroke="#191970" points="290.3947,-115.4827 283.3438,-123.3906 293.7872,-121.6057 290.3947,-115.4827"/>
</g>
<!-- Node35 -->
<g id="node8" class="node">
<title>Node35</title>
<g id="a_node8"><a xlink:href="httpdespfs_8c.html" target="_top" xlink:title="user/httpdespfs.c">
<polygon fill="#ffffff" stroke="#000000" points="372,-.5 372,-19.5 446,-19.5 446,-.5 372,-.5"/>
<text text-anchor="middle" x="409" y="-7.5" font-family="Helvetica,sans-Serif" font-size="10.00" fill="#000000">user/httpdespfs.c</text>
</a>
</g>
</g>
<!-- Node28&#45;&gt;Node35 -->
<g id="edge10" class="edge">
<title>Node28&#45;&gt;Node35</title>
<path fill="none" stroke="#191970" d="M304.338,-127.111C346.0623,-119.8266 408.7545,-106.0182 423,-87 438.151,-66.773 423.8952,-35.2906 414.9662,-19.586"/>
<polygon fill="#191970" stroke="#191970" points="303.5003,-123.7029 294.2241,-128.8217 304.6677,-130.6049 303.5003,-123.7029"/>
</g>
<!-- Node36 -->
<g id="node9" class="node">
<title>Node36</title>
<g id="a_node9"><a xlink:href="esp-open-sdk_2esp-open-lwip_2user_2user__main_8c.html" target="_top" xlink:title="esp&#45;open&#45;lwip/user\l/user_main.c">
<polygon fill="#ffffff" stroke="#000000" points="470,-56.5 470,-86.5 550,-86.5 550,-56.5 470,-56.5"/>
<text text-anchor="start" x="478" y="-74.5" font-family="Helvetica,sans-Serif" font-size="10.00" fill="#000000">esp&#45;open&#45;lwip/user</text>
<text text-anchor="middle" x="510" y="-63.5" font-family="Helvetica,sans-Serif" font-size="10.00" fill="#000000">/user_main.c</text>
</a>
</g>
</g>
<!-- Node28&#45;&gt;Node36 -->
<g id="edge11" class="edge">
<title>Node28&#45;&gt;Node36</title>
<path fill="none" stroke="#191970" d="M304.3278,-124.219C342.7866,-115.291 403.6649,-100.8398 456,-87 460.5261,-85.8031 465.2534,-84.5101 469.9472,-83.1991"/>
<polygon fill="#191970" stroke="#191970" points="303.0542,-120.9212 294.1007,-126.5856 304.6324,-127.741 303.0542,-120.9212"/>
</g>
<!-- Node31&#45;&gt;Node32 -->
<g id="edge4" class="edge">
<title>Node31&#45;&gt;Node32</title>
<path fill="none" stroke="#191970" d="M196.1261,-54.4007C206.6642,-43.2268 220.0477,-29.0356 228.8097,-19.7449"/>
<polygon fill="#191970" stroke="#191970" points="193.3773,-52.2142 189.0625,-61.8906 198.4698,-57.0169 193.3773,-52.2142"/>
</g>
<!-- Node34&#45;&gt;Node32 -->
<g id="edge8" class="edge">
<title>Node34&#45;&gt;Node32</title>
<path fill="none" stroke="#191970" d="M346.1325,-57.8428C319.8494,-46.2139 282.7628,-29.8051 259.5662,-19.5419"/>
<polygon fill="#191970" stroke="#191970" points="344.7202,-61.0452 355.2813,-61.8906 347.5525,-54.6437 344.7202,-61.0452"/>
</g>
<!-- Node34&#45;&gt;Node35 -->
<g id="edge9" class="edge">
<title>Node34&#45;&gt;Node35</title>
<path fill="none" stroke="#191970" d="M386.7545,-52.753C392.4221,-41.8606 399.33,-28.5846 403.9295,-19.7449"/>
<polygon fill="#191970" stroke="#191970" points="383.511,-51.4041 382,-61.8906 389.7207,-54.6352 383.511,-51.4041"/>
</g>
</g>
</svg>
