<?xml version="1.0" encoding="UTF-8" standalone="no"?>
<!DOCTYPE svg PUBLIC "-//W3C//DTD SVG 1.1//EN"
 "http://www.w3.org/Graphics/SVG/1.1/DTD/svg11.dtd">
<!-- Generated by graphviz version 2.40.1 (20161225.0304)
 -->
<!-- Title: esp&#45;open&#45;lwip/include/lwip/ip.h Pages: 1 -->
<svg width="930pt" height="173pt"
 viewBox="0.00 0.00 930.00 173.00" xmlns="http://www.w3.org/2000/svg" xmlns:xlink="http://www.w3.org/1999/xlink">
<g id="graph0" class="graph" transform="scale(1 1) rotate(0) translate(4 169)">
<title>esp&#45;open&#45;lwip/include/lwip/ip.h</title>
<polygon fill="#ffffff" stroke="transparent" points="-4,4 -4,-169 926,-169 926,4 -4,4"/>
<!-- Node19 -->
<g id="node1" class="node">
<title>Node19</title>
<polygon fill="#bfbfbf" stroke="#000000" points="402.5,-134.5 402.5,-164.5 491.5,-164.5 491.5,-134.5 402.5,-134.5"/>
<text text-anchor="start" x="410.5" y="-152.5" font-family="Helvetica,sans-Serif" font-size="10.00" fill="#000000">esp&#45;open&#45;lwip/include</text>
<text text-anchor="middle" x="447" y="-141.5" font-family="Helvetica,sans-Serif" font-size="10.00" fill="#000000">/lwip/ip.h</text>
</g>
<!-- Node20 -->
<g id="node2" class="node">
<title>Node20</title>
<g id="a_node2"><a xlink:href="wifi_8h.html" target="_top" xlink:title="modules/include/wifi.h">
<polygon fill="#ffffff" stroke="#000000" points="72,-73 72,-92 162,-92 162,-73 72,-73"/>
<text text-anchor="middle" x="117" y="-80" font-family="Helvetica,sans-Serif" font-size="10.00" fill="#000000">modules/include/wifi.h</text>
</a>
</g>
</g>
<!-- Node19&#45;&gt;Node20 -->
<g id="edge1" class="edge">
<title>Node19&#45;&gt;Node20</title>
<path fill="none" stroke="#191970" d="M392.2262,-140.8577C336.3041,-131.6655 247.1423,-115.9887 171,-98 163.596,-96.2508 155.6908,-94.1286 148.2771,-92.0231"/>
<polygon fill="#191970" stroke="#191970" points="391.8373,-144.3405 402.2706,-142.4978 392.9654,-137.432 391.8373,-144.3405"/>
</g>
<!-- Node21 -->
<g id="node3" class="node">
<title>Node21</title>
<g id="a_node3"><a xlink:href="wifi_8c.html" target="_top" xlink:title="modules/wifi.c">
<polygon fill="#ffffff" stroke="#000000" points="0,-6 0,-25 64,-25 64,-6 0,-6"/>
<text text-anchor="middle" x="32" y="-13" font-family="Helvetica,sans-Serif" font-size="10.00" fill="#000000">modules/wifi.c</text>
</a>
</g>
</g>
<!-- Node19&#45;&gt;Node21 -->
<g id="edge5" class="edge">
<title>Node19&#45;&gt;Node21</title>
<path fill="none" stroke="#191970" d="M392.046,-145.2489C292.0501,-137.0621 88.286,-118.1294 63,-98 40.1359,-79.7985 34.133,-42.833 32.5586,-25.2348"/>
<polygon fill="#191970" stroke="#191970" points="392.0097,-148.7573 402.2599,-146.0772 392.5756,-141.7802 392.0097,-148.7573"/>
</g>
<!-- Node24 -->
<g id="node6" class="node">
<title>Node24</title>
<g id="a_node6"><a xlink:href="mqtt_8c.html" target="_top" xlink:title="mqtt/mqtt.c">
<polygon fill="#ffffff" stroke="#000000" points="180,-73 180,-92 234,-92 234,-73 180,-73"/>
<text text-anchor="middle" x="207" y="-80" font-family="Helvetica,sans-Serif" font-size="10.00" fill="#000000">mqtt/mqtt.c</text>
</a>
</g>
</g>
<!-- Node19&#45;&gt;Node24 -->
<g id="edge6" class="edge">
<title>Node19&#45;&gt;Node24</title>
<path fill="none" stroke="#191970" d="M392.3312,-138.1865C350.855,-129.0072 292.6948,-114.8512 243,-98 237.9735,-96.2955 232.6679,-94.1908 227.7201,-92.0879"/>
<polygon fill="#191970" stroke="#191970" points="391.7192,-141.6353 402.2363,-140.3542 393.2159,-134.7971 391.7192,-141.6353"/>
</g>
<!-- Node25 -->
<g id="node7" class="node">
<title>Node25</title>
<g id="a_node7"><a xlink:href="captdns_8c.html" target="_top" xlink:title="user/captdns.c">
<polygon fill="#ffffff" stroke="#000000" points="252.5,-73 252.5,-92 317.5,-92 317.5,-73 252.5,-73"/>
<text text-anchor="middle" x="285" y="-80" font-family="Helvetica,sans-Serif" font-size="10.00" fill="#000000">user/captdns.c</text>
</a>
</g>
</g>
<!-- Node19&#45;&gt;Node25 -->
<g id="edge7" class="edge">
<title>Node19&#45;&gt;Node25</title>
<path fill="none" stroke="#191970" d="M401.1184,-130.5243C370.8117,-117.99 332.3708,-102.0916 308.2214,-92.1039"/>
<polygon fill="#191970" stroke="#191970" points="400.0655,-133.8763 410.644,-134.4639 402.7408,-127.4077 400.0655,-133.8763"/>
</g>
<!-- Node26 -->
<g id="node8" class="node">
<title>Node26</title>
<g id="a_node8"><a xlink:href="httpd_8c.html" target="_top" xlink:title="user/httpd.c">
<polygon fill="#ffffff" stroke="#000000" points="336,-73 336,-92 392,-92 392,-73 336,-73"/>
<text text-anchor="middle" x="364" y="-80" font-family="Helvetica,sans-Serif" font-size="10.00" fill="#000000">user/httpd.c</text>
</a>
</g>
</g>
<!-- Node19&#45;&gt;Node26 -->
<g id="edge8" class="edge">
<title>Node19&#45;&gt;Node26</title>
<path fill="none" stroke="#191970" d="M420.213,-127.8767C405.2481,-115.7967 387.3512,-101.3498 375.8368,-92.055"/>
<polygon fill="#191970" stroke="#191970" points="418.1864,-130.7389 428.166,-134.2967 422.5832,-125.292 418.1864,-130.7389"/>
</g>
<!-- Node27 -->
<g id="node9" class="node">
<title>Node27</title>
<g id="a_node9"><a xlink:href="httpdespfs_8c.html" target="_top" xlink:title="user/httpdespfs.c">
<polygon fill="#ffffff" stroke="#000000" points="410,-73 410,-92 484,-92 484,-73 410,-73"/>
<text text-anchor="middle" x="447" y="-80" font-family="Helvetica,sans-Serif" font-size="10.00" fill="#000000">user/httpdespfs.c</text>
</a>
</g>
</g>
<!-- Node19&#45;&gt;Node27 -->
<g id="edge9" class="edge">
<title>Node19&#45;&gt;Node27</title>
<path fill="none" stroke="#191970" d="M447,-124.1199C447,-112.9072 447,-100.4031 447,-92.055"/>
<polygon fill="#191970" stroke="#191970" points="443.5001,-124.2966 447,-134.2967 450.5001,-124.2967 443.5001,-124.2966"/>
</g>
<!-- Node28 -->
<g id="node10" class="node">
<title>Node28</title>
<g id="a_node10"><a xlink:href="ip__frag_8h.html" target="_top" xlink:title="esp&#45;open&#45;lwip/include\l/lwip/ip_frag.h">
<polygon fill="#ffffff" stroke="#000000" points="540.5,-67.5 540.5,-97.5 629.5,-97.5 629.5,-67.5 540.5,-67.5"/>
<text text-anchor="start" x="548.5" y="-85.5" font-family="Helvetica,sans-Serif" font-size="10.00" fill="#000000">esp&#45;open&#45;lwip/include</text>
<text text-anchor="middle" x="585" y="-74.5" font-family="Helvetica,sans-Serif" font-size="10.00" fill="#000000">/lwip/ip_frag.h</text>
</a>
</g>
</g>
<!-- Node19&#45;&gt;Node28 -->
<g id="edge10" class="edge">
<title>Node19&#45;&gt;Node28</title>
<path fill="none" stroke="#191970" d="M487.0575,-130.0518C508.2623,-119.7567 533.9212,-107.2991 553.656,-97.7177"/>
<polygon fill="#191970" stroke="#191970" points="485.4371,-126.9478 477.9699,-134.4639 488.4944,-133.2448 485.4371,-126.9478"/>
</g>
<!-- Node29 -->
<g id="node11" class="node">
<title>Node29</title>
<g id="a_node11"><a xlink:href="ip_8c.html" target="_top" xlink:title="esp&#45;open&#45;lwip/lwip\l/core/ipv4/ip.c">
<polygon fill="#ffffff" stroke="#000000" points="461,-.5 461,-30.5 539,-30.5 539,-.5 461,-.5"/>
<text text-anchor="start" x="469" y="-18.5" font-family="Helvetica,sans-Serif" font-size="10.00" fill="#000000">esp&#45;open&#45;lwip/lwip</text>
<text text-anchor="middle" x="500" y="-7.5" font-family="Helvetica,sans-Serif" font-size="10.00" fill="#000000">/core/ipv4/ip.c</text>
</a>
</g>
</g>
<!-- Node19&#45;&gt;Node29 -->
<g id="edge17" class="edge">
<title>Node19&#45;&gt;Node29</title>
<path fill="none" stroke="#191970" d="M472.6251,-127.1929C480.5202,-118.8654 488.3509,-108.7895 493,-98 502.4424,-76.0863 502.5825,-47.903 501.5139,-30.7951"/>
<polygon fill="#191970" stroke="#191970" points="470.0772,-124.7904 465.4458,-134.3193 475.0087,-129.7584 470.0772,-124.7904"/>
</g>
<!-- Node32 -->
<g id="node14" class="node">
<title>Node32</title>
<g id="a_node14"><a xlink:href="espconn_8c.html" target="_top" xlink:title="esp&#45;open&#45;lwip/lwip\l/app/espconn.c">
<polygon fill="#ffffff" stroke="#000000" points="648,-67.5 648,-97.5 726,-97.5 726,-67.5 648,-67.5"/>
<text text-anchor="start" x="656" y="-85.5" font-family="Helvetica,sans-Serif" font-size="10.00" fill="#000000">esp&#45;open&#45;lwip/lwip</text>
<text text-anchor="middle" x="687" y="-74.5" font-family="Helvetica,sans-Serif" font-size="10.00" fill="#000000">/app/espconn.c</text>
</a>
</g>
</g>
<!-- Node19&#45;&gt;Node32 -->
<g id="edge14" class="edge">
<title>Node19&#45;&gt;Node32</title>
<path fill="none" stroke="#191970" d="M501.4514,-135.4836C539.7588,-125.4605 592.162,-111.4229 638,-98 641.2539,-97.0472 644.6214,-96.0357 647.9972,-95.0039"/>
<polygon fill="#191970" stroke="#191970" points="500.3265,-132.1599 491.5341,-138.0712 502.0938,-138.9331 500.3265,-132.1599"/>
</g>
<!-- Node33 -->
<g id="node15" class="node">
<title>Node33</title>
<g id="a_node15"><a xlink:href="espconn__tcp_8c.html" target="_top" xlink:title="esp&#45;open&#45;lwip/lwip\l/app/espconn_tcp.c">
<polygon fill="#ffffff" stroke="#000000" points="744,-67.5 744,-97.5 826,-97.5 826,-67.5 744,-67.5"/>
<text text-anchor="start" x="752" y="-85.5" font-family="Helvetica,sans-Serif" font-size="10.00" fill="#000000">esp&#45;open&#45;lwip/lwip</text>
<text text-anchor="middle" x="785" y="-74.5" font-family="Helvetica,sans-Serif" font-size="10.00" fill="#000000">/app/espconn_tcp.c</text>
</a>
</g>
</g>
<!-- Node19&#45;&gt;Node33 -->
<g id="edge15" class="edge">
<title>Node19&#45;&gt;Node33</title>
<path fill="none" stroke="#191970" d="M501.8504,-141.7577C560.1088,-133.0545 654.6897,-117.5492 735,-98 737.914,-97.2907 740.9075,-96.5067 743.9117,-95.679"/>
<polygon fill="#191970" stroke="#191970" points="501.1402,-138.3247 491.7605,-143.2513 502.1652,-145.2492 501.1402,-138.3247"/>
</g>
<!-- Node34 -->
<g id="node16" class="node">
<title>Node34</title>
<g id="a_node16"><a xlink:href="init_8c.html" target="_top" xlink:title="esp&#45;open&#45;lwip/lwip\l/core/init.c">
<polygon fill="#ffffff" stroke="#000000" points="844,-67.5 844,-97.5 922,-97.5 922,-67.5 844,-67.5"/>
<text text-anchor="start" x="852" y="-85.5" font-family="Helvetica,sans-Serif" font-size="10.00" fill="#000000">esp&#45;open&#45;lwip/lwip</text>
<text text-anchor="middle" x="883" y="-74.5" font-family="Helvetica,sans-Serif" font-size="10.00" fill="#000000">/core/init.c</text>
</a>
</g>
</g>
<!-- Node19&#45;&gt;Node34 -->
<g id="edge16" class="edge">
<title>Node19&#45;&gt;Node34</title>
<path fill="none" stroke="#191970" d="M501.9247,-145.3509C577.6048,-138.924 717.8867,-124.4538 835,-98 837.9042,-97.344 840.8837,-96.5888 843.8672,-95.7724"/>
<polygon fill="#191970" stroke="#191970" points="501.3584,-141.8859 491.6838,-146.2048 501.9401,-148.8617 501.3584,-141.8859"/>
</g>
<!-- Node20&#45;&gt;Node21 -->
<g id="edge2" class="edge">
<title>Node20&#45;&gt;Node21</title>
<path fill="none" stroke="#191970" d="M96.8993,-66.6559C80.5128,-53.7395 57.9061,-35.9201 44.1558,-25.0817"/>
<polygon fill="#191970" stroke="#191970" points="94.8013,-69.4588 104.8216,-72.9005 99.1347,-63.9613 94.8013,-69.4588"/>
</g>
<!-- Node22 -->
<g id="node4" class="node">
<title>Node22</title>
<g id="a_node4"><a xlink:href="esp-open-sdk_2esp-open-lwip_2user_2user__main_8c.html" target="_top" xlink:title="esp&#45;open&#45;lwip/user\l/user_main.c">
<polygon fill="#ffffff" stroke="#000000" points="82,-.5 82,-30.5 162,-30.5 162,-.5 82,-.5"/>
<text text-anchor="start" x="90" y="-18.5" font-family="Helvetica,sans-Serif" font-size="10.00" fill="#000000">esp&#45;open&#45;lwip/user</text>
<text text-anchor="middle" x="122" y="-7.5" font-family="Helvetica,sans-Serif" font-size="10.00" fill="#000000">/user_main.c</text>
</a>
</g>
</g>
<!-- Node20&#45;&gt;Node22 -->
<g id="edge3" class="edge">
<title>Node20&#45;&gt;Node22</title>
<path fill="none" stroke="#191970" d="M118.472,-62.7758C119.2415,-52.4641 120.1684,-40.0437 120.879,-30.5218"/>
<polygon fill="#191970" stroke="#191970" points="114.9704,-62.6678 117.7164,-72.9005 121.951,-63.1888 114.9704,-62.6678"/>
</g>
<!-- Node23 -->
<g id="node5" class="node">
<title>Node23</title>
<g id="a_node5"><a xlink:href="watchdog_8c.html" target="_top" xlink:title="user/watchdog.c">
<polygon fill="#ffffff" stroke="#000000" points="180.5,-6 180.5,-25 251.5,-25 251.5,-6 180.5,-6"/>
<text text-anchor="middle" x="216" y="-13" font-family="Helvetica,sans-Serif" font-size="10.00" fill="#000000">user/watchdog.c</text>
</a>
</g>
</g>
<!-- Node20&#45;&gt;Node23 -->
<g id="edge4" class="edge">
<title>Node20&#45;&gt;Node23</title>
<path fill="none" stroke="#191970" d="M139.6276,-67.1864C158.7703,-54.2312 185.6066,-36.0693 201.842,-25.0817"/>
<polygon fill="#191970" stroke="#191970" points="137.5043,-64.3971 131.1843,-72.9005 141.4277,-70.1943 137.5043,-64.3971"/>
</g>
<!-- Node28&#45;&gt;Node29 -->
<g id="edge11" class="edge">
<title>Node28&#45;&gt;Node29</title>
<path fill="none" stroke="#191970" d="M557.8055,-61.0643C545.2374,-51.1577 530.6083,-39.6265 519.2115,-30.6432"/>
<polygon fill="#191970" stroke="#191970" points="555.6919,-63.8549 565.7122,-67.2967 560.0253,-58.3574 555.6919,-63.8549"/>
</g>
<!-- Node30 -->
<g id="node12" class="node">
<title>Node30</title>
<g id="a_node12"><a xlink:href="ip__frag_8c.html" target="_top" xlink:title="esp&#45;open&#45;lwip/lwip\l/core/ipv4/ip_frag.c">
<polygon fill="#ffffff" stroke="#000000" points="557,-.5 557,-30.5 637,-30.5 637,-.5 557,-.5"/>
<text text-anchor="start" x="565" y="-18.5" font-family="Helvetica,sans-Serif" font-size="10.00" fill="#000000">esp&#45;open&#45;lwip/lwip</text>
<text text-anchor="middle" x="597" y="-7.5" font-family="Helvetica,sans-Serif" font-size="10.00" fill="#000000">/core/ipv4/ip_frag.c</text>
</a>
</g>
</g>
<!-- Node28&#45;&gt;Node30 -->
<g id="edge12" class="edge">
<title>Node28&#45;&gt;Node30</title>
<path fill="none" stroke="#191970" d="M589.5102,-57.3179C591.118,-48.3414 592.878,-38.5143 594.2878,-30.6432"/>
<polygon fill="#191970" stroke="#191970" points="586.0409,-56.8362 587.723,-67.2967 592.9312,-58.0704 586.0409,-56.8362"/>
</g>
<!-- Node31 -->
<g id="node13" class="node">
<title>Node31</title>
<g id="a_node13"><a xlink:href="memp_8c.html" target="_top" xlink:title="esp&#45;open&#45;lwip/lwip\l/core/memp.c">
<polygon fill="#ffffff" stroke="#000000" points="655,-.5 655,-30.5 733,-30.5 733,-.5 655,-.5"/>
<text text-anchor="start" x="663" y="-18.5" font-family="Helvetica,sans-Serif" font-size="10.00" fill="#000000">esp&#45;open&#45;lwip/lwip</text>
<text text-anchor="middle" x="694" y="-7.5" font-family="Helvetica,sans-Serif" font-size="10.00" fill="#000000">/core/memp.c</text>
</a>
</g>
</g>
<!-- Node28&#45;&gt;Node31 -->
<g id="edge13" class="edge">
<title>Node28&#45;&gt;Node31</title>
<path fill="none" stroke="#191970" d="M618.227,-62.0761C634.6561,-51.9774 654.1445,-39.9983 669.2428,-30.7177"/>
<polygon fill="#191970" stroke="#191970" points="616.1482,-59.2455 609.4617,-67.4639 619.8138,-65.209 616.1482,-59.2455"/>
</g>
</g>
</svg>
