<?xml version="1.0" encoding="UTF-8" standalone="no"?>
<!DOCTYPE svg PUBLIC "-//W3C//DTD SVG 1.1//EN"
 "http://www.w3.org/Graphics/SVG/1.1/DTD/svg11.dtd">
<!-- Generated by graphviz version 2.40.1 (20161225.0304)
 -->
<!-- Title: esp&#45;open&#45;lwip/lwip/core/ipv4/ip.c Pages: 1 -->
<svg width="1381pt" height="711pt"
 viewBox="0.00 0.00 1381.00 711.00" xmlns="http://www.w3.org/2000/svg" xmlns:xlink="http://www.w3.org/1999/xlink">
<g id="graph0" class="graph" transform="scale(1 1) rotate(0) translate(4 707)">
<title>esp&#45;open&#45;lwip/lwip/core/ipv4/ip.c</title>
<polygon fill="#ffffff" stroke="transparent" points="-4,4 -4,-707 1377,-707 1377,4 -4,4"/>
<!-- Node0 -->
<g id="node1" class="node">
<title>Node0</title>
<polygon fill="#bfbfbf" stroke="#000000" points="849,-672.5 849,-702.5 927,-702.5 927,-672.5 849,-672.5"/>
<text text-anchor="start" x="857" y="-690.5" font-family="Helvetica,sans-Serif" font-size="10.00" fill="#000000">esp&#45;open&#45;lwip/lwip</text>
<text text-anchor="middle" x="888" y="-679.5" font-family="Helvetica,sans-Serif" font-size="10.00" fill="#000000">/core/ipv4/ip.c</text>
</g>
<!-- Node1 -->
<g id="node2" class="node">
<title>Node1</title>
<g id="a_node2"><a xlink:href="opt_8h.html" target="_top" xlink:title="lwip/opt.h">
<polygon fill="#ffffff" stroke="#000000" points="733,-336.5 733,-355.5 781,-355.5 781,-336.5 733,-336.5"/>
<text text-anchor="middle" x="757" y="-343.5" font-family="Helvetica,sans-Serif" font-size="10.00" fill="#000000">lwip/opt.h</text>
</a>
</g>
</g>
<!-- Node0&#45;&gt;Node1 -->
<g id="edge1" class="edge">
<title>Node0&#45;&gt;Node1</title>
<path fill="none" stroke="#191970" d="M927.2529,-686.8081C1008.12,-684.5859 1189.5251,-675.2415 1235,-636 1258.2052,-615.9756 1255,-600.6506 1255,-570 1255,-570 1255,-570 1255,-458 1255,-407.3158 1209.3427,-410.0985 1162,-392 1094.4124,-366.1622 876.3585,-352.2502 791.3667,-347.6987"/>
<polygon fill="#191970" stroke="#191970" points="791.3835,-344.1949 781.2138,-347.1659 791.0166,-351.1852 791.3835,-344.1949"/>
</g>
<!-- Node12 -->
<g id="node13" class="node">
<title>Node12</title>
<polygon fill="#ffffff" stroke="#bfbfbf" points="1071.5,-56.5 1071.5,-75.5 1112.5,-75.5 1112.5,-56.5 1071.5,-56.5"/>
<text text-anchor="middle" x="1092" y="-63.5" font-family="Helvetica,sans-Serif" font-size="10.00" fill="#000000">string.h</text>
</g>
<!-- Node0&#45;&gt;Node12 -->
<g id="edge82" class="edge">
<title>Node0&#45;&gt;Node12</title>
<path fill="none" stroke="#191970" d="M927.1769,-686.4109C1010.9409,-683.3947 1204.1325,-672.5627 1257,-636 1284.4813,-616.9942 1293,-603.4132 1293,-570 1293,-570 1293,-570 1293,-178 1293,-101.0659 1179.2441,-76.4999 1122.8886,-69.0502"/>
<polygon fill="#191970" stroke="#191970" points="1123.1038,-65.5506 1112.7535,-67.8137 1122.256,-72.499 1123.1038,-65.5506"/>
</g>
<!-- Node14 -->
<g id="node15" class="node">
<title>Node14</title>
<g id="a_node15"><a xlink:href="ip_8h.html" target="_top" xlink:title="lwip/ip.h">
<polygon fill="#ffffff" stroke="#000000" points="199,-560.5 199,-579.5 243,-579.5 243,-560.5 199,-560.5"/>
<text text-anchor="middle" x="221" y="-567.5" font-family="Helvetica,sans-Serif" font-size="10.00" fill="#000000">lwip/ip.h</text>
</a>
</g>
</g>
<!-- Node0&#45;&gt;Node14 -->
<g id="edge15" class="edge">
<title>Node0&#45;&gt;Node14</title>
<path fill="none" stroke="#191970" d="M848.7856,-685.9808C739.4136,-681.4047 432.759,-666.1726 337,-636 301.2612,-624.7391 264.3846,-601.3674 242.0697,-585.6799"/>
<polygon fill="#191970" stroke="#191970" points="243.8815,-582.6721 233.7165,-579.685 239.8001,-588.3592 243.8815,-582.6721"/>
</g>
<!-- Node15 -->
<g id="node16" class="node">
<title>Node15</title>
<g id="a_node16"><a xlink:href="def_8h.html" target="_top" xlink:title="lwip/def.h">
<polygon fill="#ffffff" stroke="#000000" points="60,-392.5 60,-411.5 108,-411.5 108,-392.5 60,-392.5"/>
<text text-anchor="middle" x="84" y="-399.5" font-family="Helvetica,sans-Serif" font-size="10.00" fill="#000000">lwip/def.h</text>
</a>
</g>
</g>
<!-- Node0&#45;&gt;Node15 -->
<g id="edge35" class="edge">
<title>Node0&#45;&gt;Node15</title>
<path fill="none" stroke="#191970" d="M848.9858,-686.509C677.6005,-681.6497 0,-656.94 0,-570 0,-570 0,-570 0,-514 0,-472.9075 36.6365,-437.2426 61.5189,-417.7588"/>
<polygon fill="#191970" stroke="#191970" points="63.8679,-420.3713 69.7505,-411.5596 59.6569,-414.7795 63.8679,-420.3713"/>
</g>
<!-- Node19 -->
<g id="node20" class="node">
<title>Node19</title>
<g id="a_node20"><a xlink:href="netif_8h.html" target="_top" xlink:title="lwip/netif.h">
<polygon fill="#ffffff" stroke="#000000" points="332,-504.5 332,-523.5 384,-523.5 384,-504.5 332,-504.5"/>
<text text-anchor="middle" x="358" y="-511.5" font-family="Helvetica,sans-Serif" font-size="10.00" fill="#000000">lwip/netif.h</text>
</a>
</g>
</g>
<!-- Node0&#45;&gt;Node19 -->
<g id="edge49" class="edge">
<title>Node0&#45;&gt;Node19</title>
<path fill="none" stroke="#191970" d="M848.737,-685.5344C740.7546,-679.8153 445.0007,-661.9295 410,-636 376.8291,-611.4261 364.615,-561.4296 360.2737,-533.6756"/>
<polygon fill="#191970" stroke="#191970" points="363.7177,-533.028 358.8933,-523.5953 356.7824,-533.9777 363.7177,-533.028"/>
</g>
<!-- Node20 -->
<g id="node21" class="node">
<title>Node20</title>
<g id="a_node21"><a xlink:href="esp-open-lwip_2include_2lwip_2mem_8h.html" target="_top" xlink:title="lwip/mem.h">
<polygon fill="#ffffff" stroke="#000000" points="804,-392.5 804,-411.5 858,-411.5 858,-392.5 804,-392.5"/>
<text text-anchor="middle" x="831" y="-399.5" font-family="Helvetica,sans-Serif" font-size="10.00" fill="#000000">lwip/mem.h</text>
</a>
</g>
</g>
<!-- Node0&#45;&gt;Node20 -->
<g id="edge36" class="edge">
<title>Node0&#45;&gt;Node20</title>
<path fill="none" stroke="#191970" d="M883.3289,-672.2494C872.69,-636.7998 846.6762,-545.9277 835,-468 832.7108,-452.7218 831.723,-435.2675 831.301,-422.1472"/>
<polygon fill="#191970" stroke="#191970" points="834.7941,-421.8105 831.0573,-411.8966 827.7961,-421.977 834.7941,-421.8105"/>
</g>
<!-- Node21 -->
<g id="node22" class="node">
<title>Node21</title>
<g id="a_node22"><a xlink:href="ip__frag_8h.html" target="_top" xlink:title="lwip/ip_frag.h">
<polygon fill="#ffffff" stroke="#000000" points="419.5,-616.5 419.5,-635.5 480.5,-635.5 480.5,-616.5 419.5,-616.5"/>
<text text-anchor="middle" x="450" y="-623.5" font-family="Helvetica,sans-Serif" font-size="10.00" fill="#000000">lwip/ip_frag.h</text>
</a>
</g>
</g>
<!-- Node0&#45;&gt;Node21 -->
<g id="edge38" class="edge">
<title>Node0&#45;&gt;Node21</title>
<path fill="none" stroke="#191970" d="M848.745,-681.9882C766.0011,-670.37 574.4211,-643.4701 490.5528,-631.6941"/>
<polygon fill="#191970" stroke="#191970" points="491.026,-628.2262 480.6364,-630.3017 490.0526,-635.1582 491.026,-628.2262"/>
</g>
<!-- Node22 -->
<g id="node23" class="node">
<title>Node22</title>
<g id="a_node23"><a xlink:href="inet__chksum_8h.html" target="_top" xlink:title="lwip/inet_chksum.h">
<polygon fill="#ffffff" stroke="#000000" points="592,-504.5 592,-523.5 672,-523.5 672,-504.5 592,-504.5"/>
<text text-anchor="middle" x="632" y="-511.5" font-family="Helvetica,sans-Serif" font-size="10.00" fill="#000000">lwip/inet_chksum.h</text>
</a>
</g>
</g>
<!-- Node0&#45;&gt;Node22 -->
<g id="edge45" class="edge">
<title>Node0&#45;&gt;Node22</title>
<path fill="none" stroke="#191970" d="M865.7295,-672.4065C817.3884,-639.6441 703.2865,-562.3133 654.6254,-529.334"/>
<polygon fill="#191970" stroke="#191970" points="656.3091,-526.247 646.0675,-523.534 652.3819,-532.0416 656.3091,-526.247"/>
</g>
<!-- Node23 -->
<g id="node24" class="node">
<title>Node23</title>
<g id="a_node24"><a xlink:href="icmp_8h.html" target="_top" xlink:title="lwip/icmp.h">
<polygon fill="#ffffff" stroke="#000000" points="482,-560.5 482,-579.5 536,-579.5 536,-560.5 482,-560.5"/>
<text text-anchor="middle" x="509" y="-567.5" font-family="Helvetica,sans-Serif" font-size="10.00" fill="#000000">lwip/icmp.h</text>
</a>
</g>
</g>
<!-- Node0&#45;&gt;Node23 -->
<g id="edge50" class="edge">
<title>Node0&#45;&gt;Node23</title>
<path fill="none" stroke="#191970" d="M848.8775,-681.6447C801.4837,-673.9429 719.591,-658.6716 652,-636 610.027,-621.9213 563.9456,-599.2506 535.742,-584.4877"/>
<polygon fill="#191970" stroke="#191970" points="537.0236,-581.206 526.5477,-579.6227 533.7497,-587.3933 537.0236,-581.206"/>
</g>
<!-- Node24 -->
<g id="node25" class="node">
<title>Node24</title>
<g id="a_node25"><a xlink:href="igmp_8h.html" target="_top" xlink:title="lwip/igmp.h">
<polygon fill="#ffffff" stroke="#000000" points="292,-560.5 292,-579.5 346,-579.5 346,-560.5 292,-560.5"/>
<text text-anchor="middle" x="319" y="-567.5" font-family="Helvetica,sans-Serif" font-size="10.00" fill="#000000">lwip/igmp.h</text>
</a>
</g>
</g>
<!-- Node0&#45;&gt;Node24 -->
<g id="edge55" class="edge">
<title>Node0&#45;&gt;Node24</title>
<path fill="none" stroke="#191970" d="M848.6166,-685.6628C733.1964,-680.0018 401.2636,-661.6453 360,-636 342.872,-625.355 331.7664,-604.6345 325.4906,-589.2368"/>
<polygon fill="#191970" stroke="#191970" points="328.6765,-587.763 321.9027,-579.6164 322.1177,-590.2091 328.6765,-587.763"/>
</g>
<!-- Node25 -->
<g id="node26" class="node">
<title>Node25</title>
<g id="a_node26"><a xlink:href="raw_8h.html" target="_top" xlink:title="lwip/raw.h">
<polygon fill="#ffffff" stroke="#000000" points="916,-560.5 916,-579.5 966,-579.5 966,-560.5 916,-560.5"/>
<text text-anchor="middle" x="941" y="-567.5" font-family="Helvetica,sans-Serif" font-size="10.00" fill="#000000">lwip/raw.h</text>
</a>
</g>
</g>
<!-- Node0&#45;&gt;Node25 -->
<g id="edge60" class="edge">
<title>Node0&#45;&gt;Node25</title>
<path fill="none" stroke="#191970" d="M894.9288,-672.1389C904.5645,-650.7768 922.0001,-612.1224 932.4379,-588.982"/>
<polygon fill="#191970" stroke="#191970" points="935.7668,-590.1142 936.6881,-579.5595 929.3858,-587.236 935.7668,-590.1142"/>
</g>
<!-- Node26 -->
<g id="node27" class="node">
<title>Node26</title>
<g id="a_node27"><a xlink:href="udp_8h.html" target="_top" xlink:title="lwip/udp.h">
<polygon fill="#ffffff" stroke="#000000" points="954,-504.5 954,-523.5 1004,-523.5 1004,-504.5 954,-504.5"/>
<text text-anchor="middle" x="979" y="-511.5" font-family="Helvetica,sans-Serif" font-size="10.00" fill="#000000">lwip/udp.h</text>
</a>
</g>
</g>
<!-- Node0&#45;&gt;Node26 -->
<g id="edge62" class="edge">
<title>Node0&#45;&gt;Node26</title>
<path fill="none" stroke="#191970" d="M905.5106,-672.4821C926.3556,-653.3959 960.2024,-618.2966 975,-580 980.689,-565.2768 981.4207,-547.3294 980.8791,-533.8688"/>
<polygon fill="#191970" stroke="#191970" points="984.3645,-533.5309 980.2056,-523.7864 977.38,-533.9975 984.3645,-533.5309"/>
</g>
<!-- Node27 -->
<g id="node28" class="node">
<title>Node27</title>
<g id="a_node28"><a xlink:href="tcp__impl_8h.html" target="_top" xlink:title="lwip/tcp_impl.h">
<polygon fill="#ffffff" stroke="#000000" points="1010,-448.5 1010,-467.5 1076,-467.5 1076,-448.5 1010,-448.5"/>
<text text-anchor="middle" x="1043" y="-455.5" font-family="Helvetica,sans-Serif" font-size="10.00" fill="#000000">lwip/tcp_impl.h</text>
</a>
</g>
</g>
<!-- Node0&#45;&gt;Node27 -->
<g id="edge64" class="edge">
<title>Node0&#45;&gt;Node27</title>
<path fill="none" stroke="#191970" d="M916.0818,-672.3257C931.044,-663.2358 948.9919,-650.6147 962,-636 1004.9782,-587.7138 1028.8319,-512.7937 1038.2353,-477.5652"/>
<polygon fill="#191970" stroke="#191970" points="1041.6954,-478.1619 1040.7865,-467.6061 1034.9144,-476.4247 1041.6954,-478.1619"/>
</g>
<!-- Node28 -->
<g id="node29" class="node">
<title>Node28</title>
<g id="a_node29"><a xlink:href="snmp_8h.html" target="_top" xlink:title="lwip/snmp.h">
<polygon fill="#ffffff" stroke="#000000" points="766,-504.5 766,-523.5 822,-523.5 822,-504.5 766,-504.5"/>
<text text-anchor="middle" x="794" y="-511.5" font-family="Helvetica,sans-Serif" font-size="10.00" fill="#000000">lwip/snmp.h</text>
</a>
</g>
</g>
<!-- Node0&#45;&gt;Node28 -->
<g id="edge66" class="edge">
<title>Node0&#45;&gt;Node28</title>
<path fill="none" stroke="#191970" d="M868.7421,-672.2992C857.8547,-662.8479 844.7189,-649.8793 836,-636 815.3336,-603.1018 803.392,-558.7828 797.8391,-533.6181"/>
<polygon fill="#191970" stroke="#191970" points="801.1993,-532.5869 795.7289,-523.5136 794.3472,-534.0179 801.1993,-532.5869"/>
</g>
<!-- Node29 -->
<g id="node30" class="node">
<title>Node29</title>
<g id="a_node30"><a xlink:href="dhcp_8h.html" target="_top" xlink:title="lwip/dhcp.h">
<polygon fill="#ffffff" stroke="#000000" points="1066,-560.5 1066,-579.5 1120,-579.5 1120,-560.5 1066,-560.5"/>
<text text-anchor="middle" x="1093" y="-567.5" font-family="Helvetica,sans-Serif" font-size="10.00" fill="#000000">lwip/dhcp.h</text>
</a>
</g>
</g>
<!-- Node0&#45;&gt;Node29 -->
<g id="edge69" class="edge">
<title>Node0&#45;&gt;Node29</title>
<path fill="none" stroke="#191970" d="M927.272,-678.281C956.8391,-670.1661 997.517,-656.4242 1029,-636 1049.1478,-622.9293 1067.7213,-602.4226 1079.6107,-587.7367"/>
<polygon fill="#191970" stroke="#191970" points="1082.3718,-589.8876 1085.7999,-579.8627 1076.8684,-585.5617 1082.3718,-589.8876"/>
</g>
<!-- Node30 -->
<g id="node31" class="node">
<title>Node30</title>
<g id="a_node31"><a xlink:href="autoip_8h.html" target="_top" xlink:title="lwip/autoip.h">
<polygon fill="#ffffff" stroke="#000000" points="1081,-616.5 1081,-635.5 1139,-635.5 1139,-616.5 1081,-616.5"/>
<text text-anchor="middle" x="1110" y="-623.5" font-family="Helvetica,sans-Serif" font-size="10.00" fill="#000000">lwip/autoip.h</text>
</a>
</g>
</g>
<!-- Node0&#45;&gt;Node30 -->
<g id="edge71" class="edge">
<title>Node0&#45;&gt;Node30</title>
<path fill="none" stroke="#191970" d="M927.1781,-676.6466C967.6854,-665.425 1030.556,-648.0081 1070.9982,-636.8046"/>
<polygon fill="#191970" stroke="#191970" points="1072.067,-640.1404 1080.7696,-634.0976 1070.1982,-633.3944 1072.067,-640.1404"/>
</g>
<!-- Node31 -->
<g id="node32" class="node">
<title>Node31</title>
<g id="a_node32"><a xlink:href="stats_8h.html" target="_top" xlink:title="lwip/stats.h">
<polygon fill="#ffffff" stroke="#000000" points="844,-448.5 844,-467.5 898,-467.5 898,-448.5 844,-448.5"/>
<text text-anchor="middle" x="871" y="-455.5" font-family="Helvetica,sans-Serif" font-size="10.00" fill="#000000">lwip/stats.h</text>
</a>
</g>
</g>
<!-- Node0&#45;&gt;Node31 -->
<g id="edge73" class="edge">
<title>Node0&#45;&gt;Node31</title>
<path fill="none" stroke="#191970" d="M886.8846,-672.4419C883.9155,-632.3599 875.8188,-523.0534 872.4749,-477.9113"/>
<polygon fill="#191970" stroke="#191970" points="875.9624,-477.6122 871.7332,-467.8981 868.9816,-478.1294 875.9624,-477.6122"/>
</g>
<!-- Node34 -->
<g id="node35" class="node">
<title>Node34</title>
<g id="a_node35"><a xlink:href="lwip__napt_8h.html" target="_top" xlink:title="lwip/lwip_napt.h">
<polygon fill="#ffffff" stroke="#000000" points="1157.5,-616.5 1157.5,-635.5 1226.5,-635.5 1226.5,-616.5 1157.5,-616.5"/>
<text text-anchor="middle" x="1192" y="-623.5" font-family="Helvetica,sans-Serif" font-size="10.00" fill="#000000">lwip/lwip_napt.h</text>
</a>
</g>
</g>
<!-- Node0&#45;&gt;Node34 -->
<g id="edge79" class="edge">
<title>Node0&#45;&gt;Node34</title>
<path fill="none" stroke="#191970" d="M927.2725,-680.0751C976.302,-670.7276 1062.985,-653.9454 1147.417,-636.0789"/>
<polygon fill="#191970" stroke="#191970" points="1148.3781,-639.4529 1157.4329,-633.952 1146.924,-632.6056 1148.3781,-639.4529"/>
</g>
<!-- Node35 -->
<g id="node36" class="node">
<title>Node35</title>
<g id="a_node36"><a xlink:href="perf_8h.html" target="_top" xlink:title="arch/perf.h">
<polygon fill="#ffffff" stroke="#000000" points="1321,-616.5 1321,-635.5 1373,-635.5 1373,-616.5 1321,-616.5"/>
<text text-anchor="middle" x="1347" y="-623.5" font-family="Helvetica,sans-Serif" font-size="10.00" fill="#000000">arch/perf.h</text>
</a>
</g>
</g>
<!-- Node0&#45;&gt;Node35 -->
<g id="edge81" class="edge">
<title>Node0&#45;&gt;Node35</title>
<path fill="none" stroke="#191970" d="M927.2368,-684.2963C1001.703,-677.8588 1168.4682,-661.7296 1307,-636 1308.2668,-635.7647 1309.5532,-635.5131 1310.8502,-635.2486"/>
<polygon fill="#191970" stroke="#191970" points="1311.8485,-638.6122 1320.8508,-633.0258 1310.3296,-631.7789 1311.8485,-638.6122"/>
</g>
<!-- Node2 -->
<g id="node3" class="node">
<title>Node2</title>
<g id="a_node3"><a xlink:href="lwipopts_8h.html" target="_top" xlink:title="lwipopts.h">
<polygon fill="#ffffff" stroke="#000000" points="732,-280.5 732,-299.5 782,-299.5 782,-280.5 732,-280.5"/>
<text text-anchor="middle" x="757" y="-287.5" font-family="Helvetica,sans-Serif" font-size="10.00" fill="#000000">lwipopts.h</text>
</a>
</g>
</g>
<!-- Node1&#45;&gt;Node2 -->
<g id="edge2" class="edge">
<title>Node1&#45;&gt;Node2</title>
<path fill="none" stroke="#191970" d="M757,-336.2455C757,-328.9382 757,-318.6944 757,-309.7046"/>
<polygon fill="#191970" stroke="#191970" points="760.5001,-309.6426 757,-299.6427 753.5001,-309.6427 760.5001,-309.6426"/>
</g>
<!-- Node3 -->
<g id="node4" class="node">
<title>Node3</title>
<g id="a_node4"><a xlink:href="esp-open-sdk_2esp-open-lwip_2include_2lwip_2debug_8h.html" target="_top" xlink:title="lwip/debug.h">
<polygon fill="#ffffff" stroke="#000000" points="594.5,-280.5 594.5,-299.5 653.5,-299.5 653.5,-280.5 594.5,-280.5"/>
<text text-anchor="middle" x="624" y="-287.5" font-family="Helvetica,sans-Serif" font-size="10.00" fill="#000000">lwip/debug.h</text>
</a>
</g>
</g>
<!-- Node1&#45;&gt;Node3 -->
<g id="edge3" class="edge">
<title>Node1&#45;&gt;Node3</title>
<path fill="none" stroke="#191970" d="M734.1365,-336.3733C712.595,-327.3032 680.1162,-313.6279 656.0044,-303.4755"/>
<polygon fill="#191970" stroke="#191970" points="657.1397,-300.156 646.5652,-299.5011 654.4233,-306.6075 657.1397,-300.156"/>
</g>
<!-- Node4 -->
<g id="node5" class="node">
<title>Node4</title>
<g id="a_node5"><a xlink:href="arch_8h.html" target="_top" xlink:title="lwip/arch.h">
<polygon fill="#ffffff" stroke="#000000" points="448,-224.5 448,-243.5 500,-243.5 500,-224.5 448,-224.5"/>
<text text-anchor="middle" x="474" y="-231.5" font-family="Helvetica,sans-Serif" font-size="10.00" fill="#000000">lwip/arch.h</text>
</a>
</g>
</g>
<!-- Node3&#45;&gt;Node4 -->
<g id="edge4" class="edge">
<title>Node3&#45;&gt;Node4</title>
<path fill="none" stroke="#191970" d="M598.2141,-280.3733C573.5953,-271.1822 536.31,-257.2624 509.0125,-247.0713"/>
<polygon fill="#191970" stroke="#191970" points="510.042,-243.7198 499.4494,-243.5011 507.5937,-250.2777 510.042,-243.7198"/>
</g>
<!-- Node5 -->
<g id="node6" class="node">
<title>Node5</title>
<g id="a_node6"><a xlink:href="cc_8h.html" target="_top" xlink:title="arch/cc.h">
<polygon fill="#ffffff" stroke="#000000" points="695.5,-168.5 695.5,-187.5 742.5,-187.5 742.5,-168.5 695.5,-168.5"/>
<text text-anchor="middle" x="719" y="-175.5" font-family="Helvetica,sans-Serif" font-size="10.00" fill="#000000">arch/cc.h</text>
</a>
</g>
</g>
<!-- Node4&#45;&gt;Node5 -->
<g id="edge5" class="edge">
<title>Node4&#45;&gt;Node5</title>
<path fill="none" stroke="#191970" d="M500.2193,-228.007C544.9349,-217.7863 635.8876,-196.9971 685.2709,-185.7095"/>
<polygon fill="#191970" stroke="#191970" points="686.1775,-189.0926 695.1462,-183.4523 684.6177,-182.2686 686.1775,-189.0926"/>
</g>
<!-- Node6 -->
<g id="node7" class="node">
<title>Node6</title>
<g id="a_node7"><a xlink:href="c__types_8h.html" target="_top" xlink:title="c_types.h">
<polygon fill="#ffffff" stroke="#000000" points="720.5,-56.5 720.5,-75.5 769.5,-75.5 769.5,-56.5 720.5,-56.5"/>
<text text-anchor="middle" x="745" y="-63.5" font-family="Helvetica,sans-Serif" font-size="10.00" fill="#000000">c_types.h</text>
</a>
</g>
</g>
<!-- Node5&#45;&gt;Node6 -->
<g id="edge6" class="edge">
<title>Node5&#45;&gt;Node6</title>
<path fill="none" stroke="#191970" d="M721.2167,-168.4509C725.4765,-150.1013 734.8807,-109.5908 740.5035,-85.3693"/>
<polygon fill="#191970" stroke="#191970" points="743.9368,-86.0573 742.7889,-75.5249 737.1182,-84.4744 743.9368,-86.0573"/>
</g>
<!-- Node9 -->
<g id="node10" class="node">
<title>Node9</title>
<g id="a_node10"><a xlink:href="ets__sys_8h.html" target="_top" xlink:title="ets_sys.h">
<polygon fill="#ffffff" stroke="#000000" points="669,-112.5 669,-131.5 717,-131.5 717,-112.5 669,-112.5"/>
<text text-anchor="middle" x="693" y="-119.5" font-family="Helvetica,sans-Serif" font-size="10.00" fill="#000000">ets_sys.h</text>
</a>
</g>
</g>
<!-- Node5&#45;&gt;Node9 -->
<g id="edge9" class="edge">
<title>Node5&#45;&gt;Node9</title>
<path fill="none" stroke="#191970" d="M714.4711,-168.2455C710.9666,-160.6973 706.0073,-150.0158 701.7377,-140.8197"/>
<polygon fill="#191970" stroke="#191970" points="704.8627,-139.2389 697.477,-131.6427 698.5136,-142.1867 704.8627,-139.2389"/>
</g>
<!-- Node11 -->
<g id="node12" class="node">
<title>Node11</title>
<g id="a_node12"><a xlink:href="osapi_8h.html" target="_top" xlink:title="osapi.h">
<polygon fill="#ffffff" stroke="#000000" points="933.5,-112.5 933.5,-131.5 974.5,-131.5 974.5,-112.5 933.5,-112.5"/>
<text text-anchor="middle" x="954" y="-119.5" font-family="Helvetica,sans-Serif" font-size="10.00" fill="#000000">osapi.h</text>
</a>
</g>
</g>
<!-- Node5&#45;&gt;Node11 -->
<g id="edge12" class="edge">
<title>Node5&#45;&gt;Node11</title>
<path fill="none" stroke="#191970" d="M742.8263,-172.3222C785.6769,-162.111 875.6938,-140.6602 923.1742,-129.3457"/>
<polygon fill="#191970" stroke="#191970" points="924.2621,-132.6846 933.1784,-126.9618 922.6394,-125.8752 924.2621,-132.6846"/>
</g>
<!-- Node7 -->
<g id="node8" class="node">
<title>Node7</title>
<polygon fill="#ffffff" stroke="#bfbfbf" points="693.5,-.5 693.5,-19.5 734.5,-19.5 734.5,-.5 693.5,-.5"/>
<text text-anchor="middle" x="714" y="-7.5" font-family="Helvetica,sans-Serif" font-size="10.00" fill="#000000">stdint.h</text>
</g>
<!-- Node6&#45;&gt;Node7 -->
<g id="edge7" class="edge">
<title>Node6&#45;&gt;Node7</title>
<path fill="none" stroke="#191970" d="M739.6002,-56.2455C735.3773,-48.617 729.3827,-37.7881 724.2559,-28.5267"/>
<polygon fill="#191970" stroke="#191970" points="727.2432,-26.6965 719.3379,-19.6427 721.119,-30.0867 727.2432,-26.6965"/>
</g>
<!-- Node8 -->
<g id="node9" class="node">
<title>Node8</title>
<polygon fill="#ffffff" stroke="#bfbfbf" points="752.5,-.5 752.5,-19.5 799.5,-19.5 799.5,-.5 752.5,-.5"/>
<text text-anchor="middle" x="776" y="-7.5" font-family="Helvetica,sans-Serif" font-size="10.00" fill="#000000">stdbool.h</text>
</g>
<!-- Node6&#45;&gt;Node8 -->
<g id="edge8" class="edge">
<title>Node6&#45;&gt;Node8</title>
<path fill="none" stroke="#191970" d="M750.3998,-56.2455C754.6227,-48.617 760.6173,-37.7881 765.7441,-28.5267"/>
<polygon fill="#191970" stroke="#191970" points="768.881,-30.0867 770.6621,-19.6427 762.7568,-26.6965 768.881,-30.0867"/>
</g>
<!-- Node9&#45;&gt;Node6 -->
<g id="edge10" class="edge">
<title>Node9&#45;&gt;Node6</title>
<path fill="none" stroke="#191970" d="M702.0577,-112.2455C709.5142,-104.2155 720.2634,-92.6394 729.1417,-83.0781"/>
<polygon fill="#191970" stroke="#191970" points="731.8063,-85.3522 736.0461,-75.6427 726.6768,-80.589 731.8063,-85.3522"/>
</g>
<!-- Node10 -->
<g id="node11" class="node">
<title>Node10</title>
<g id="a_node11"><a xlink:href="eagle__soc_8h.html" target="_top" xlink:title="eagle_soc.h">
<polygon fill="#ffffff" stroke="#000000" points="645.5,-56.5 645.5,-75.5 702.5,-75.5 702.5,-56.5 645.5,-56.5"/>
<text text-anchor="middle" x="674" y="-63.5" font-family="Helvetica,sans-Serif" font-size="10.00" fill="#000000">eagle_soc.h</text>
</a>
</g>
</g>
<!-- Node9&#45;&gt;Node10 -->
<g id="edge11" class="edge">
<title>Node9&#45;&gt;Node10</title>
<path fill="none" stroke="#191970" d="M689.6905,-112.2455C687.1567,-104.7776 683.5823,-94.2427 680.485,-85.1137"/>
<polygon fill="#191970" stroke="#191970" points="683.7991,-83.9879 677.2716,-75.6427 677.1702,-86.237 683.7991,-83.9879"/>
</g>
<!-- Node11&#45;&gt;Node12 -->
<g id="edge13" class="edge">
<title>Node11&#45;&gt;Node12</title>
<path fill="none" stroke="#191970" d="M974.66,-113.6162C997.7287,-104.255 1035.2843,-89.0151 1061.6816,-78.3031"/>
<polygon fill="#191970" stroke="#191970" points="1063.2487,-81.4445 1071.1988,-74.4411 1060.6166,-74.9582 1063.2487,-81.4445"/>
</g>
<!-- Node13 -->
<g id="node14" class="node">
<title>Node13</title>
<polygon fill="#ffffff" stroke="#bfbfbf" points="923,-56.5 923,-75.5 985,-75.5 985,-56.5 923,-56.5"/>
<text text-anchor="middle" x="954" y="-63.5" font-family="Helvetica,sans-Serif" font-size="10.00" fill="#000000">user_config.h</text>
</g>
<!-- Node11&#45;&gt;Node13 -->
<g id="edge14" class="edge">
<title>Node11&#45;&gt;Node13</title>
<path fill="none" stroke="#191970" d="M954,-112.2455C954,-104.9382 954,-94.6944 954,-85.7046"/>
<polygon fill="#191970" stroke="#191970" points="957.5001,-85.6426 954,-75.6427 950.5001,-85.6427 957.5001,-85.6426"/>
</g>
<!-- Node14&#45;&gt;Node1 -->
<g id="edge16" class="edge">
<title>Node14&#45;&gt;Node1</title>
<path fill="none" stroke="#191970" d="M220.9087,-560.3182C221.2025,-546.7735 223.3128,-521.8301 234,-504 274.4332,-436.543 298.6222,-422.7692 371,-392 434.145,-365.1558 640.5032,-351.9346 722.7326,-347.631"/>
<polygon fill="#191970" stroke="#191970" points="722.9993,-351.1221 732.8076,-347.1161 722.642,-344.1312 722.9993,-351.1221"/>
</g>
<!-- Node14&#45;&gt;Node15 -->
<g id="edge17" class="edge">
<title>Node14&#45;&gt;Node15</title>
<path fill="none" stroke="#191970" d="M198.6115,-564.3652C177.4187,-557.9399 146.0853,-545.4434 127,-524 100.8578,-494.6277 90.3607,-448.3643 86.3367,-422.0547"/>
<polygon fill="#191970" stroke="#191970" points="89.7588,-421.2434 84.9458,-411.8049 82.8224,-422.1848 89.7588,-421.2434"/>
</g>
<!-- Node16 -->
<g id="node17" class="node">
<title>Node16</title>
<g id="a_node17"><a xlink:href="pbuf_8h.html" target="_top" xlink:title="lwip/pbuf.h">
<polygon fill="#ffffff" stroke="#000000" points="359,-448.5 359,-467.5 411,-467.5 411,-448.5 359,-448.5"/>
<text text-anchor="middle" x="385" y="-455.5" font-family="Helvetica,sans-Serif" font-size="10.00" fill="#000000">lwip/pbuf.h</text>
</a>
</g>
</g>
<!-- Node14&#45;&gt;Node16 -->
<g id="edge20" class="edge">
<title>Node14&#45;&gt;Node16</title>
<path fill="none" stroke="#191970" d="M223.0941,-560.0314C226.6132,-545.6754 235.0554,-519.2354 252,-504 279.0224,-479.7033 319.5398,-468.1116 348.7496,-462.6633"/>
<polygon fill="#191970" stroke="#191970" points="349.6849,-466.0543 358.9536,-460.9218 348.5072,-459.1541 349.6849,-466.0543"/>
</g>
<!-- Node17 -->
<g id="node18" class="node">
<title>Node17</title>
<g id="a_node18"><a xlink:href="err_8h.html" target="_top" xlink:title="lwip/err.h">
<polygon fill="#ffffff" stroke="#000000" points="126.5,-392.5 126.5,-411.5 173.5,-411.5 173.5,-392.5 126.5,-392.5"/>
<text text-anchor="middle" x="150" y="-399.5" font-family="Helvetica,sans-Serif" font-size="10.00" fill="#000000">lwip/err.h</text>
</a>
</g>
</g>
<!-- Node14&#45;&gt;Node17 -->
<g id="edge28" class="edge">
<title>Node14&#45;&gt;Node17</title>
<path fill="none" stroke="#191970" d="M198.8714,-564.5632C179.0123,-558.3815 151.0448,-546.144 138,-524 119.0957,-491.9094 131.6447,-446.682 141.4785,-421.2743"/>
<polygon fill="#191970" stroke="#191970" points="144.852,-422.274 145.4271,-411.6947 138.3802,-419.6063 144.852,-422.274"/>
</g>
<!-- Node18 -->
<g id="node19" class="node">
<title>Node18</title>
<g id="a_node19"><a xlink:href="esp-open-lwip_2include_2lwip_2ip__addr_8h.html" target="_top" xlink:title="lwip/ip_addr.h">
<polygon fill="#ffffff" stroke="#000000" points="494.5,-448.5 494.5,-467.5 557.5,-467.5 557.5,-448.5 494.5,-448.5"/>
<text text-anchor="middle" x="526" y="-455.5" font-family="Helvetica,sans-Serif" font-size="10.00" fill="#000000">lwip/ip_addr.h</text>
</a>
</g>
</g>
<!-- Node14&#45;&gt;Node18 -->
<g id="edge25" class="edge">
<title>Node14&#45;&gt;Node18</title>
<path fill="none" stroke="#191970" d="M232.7728,-560.3785C250.9926,-545.9716 287.6213,-518.8983 323,-504 376.2683,-481.5682 442.2166,-469.2101 484.2067,-463.0943"/>
<polygon fill="#191970" stroke="#191970" points="484.9272,-466.5276 494.3436,-461.6716 483.9542,-459.5955 484.9272,-466.5276"/>
</g>
<!-- Node14&#45;&gt;Node19 -->
<g id="edge29" class="edge">
<title>Node14&#45;&gt;Node19</title>
<path fill="none" stroke="#191970" d="M243.0114,-561.0026C265.2786,-551.9007 299.955,-537.7264 325.4089,-527.3219"/>
<polygon fill="#191970" stroke="#191970" points="326.7354,-530.5609 334.6677,-523.5373 324.0868,-524.0813 326.7354,-530.5609"/>
</g>
<!-- Node15&#45;&gt;Node1 -->
<g id="edge19" class="edge">
<title>Node15&#45;&gt;Node1</title>
<path fill="none" stroke="#191970" d="M108.3588,-393.9584C111.2484,-393.2013 114.1745,-392.5229 117,-392 235.0389,-370.1553 607.9377,-352.4887 722.9108,-347.4481"/>
<polygon fill="#191970" stroke="#191970" points="723.0706,-350.9445 732.909,-347.0131 722.7663,-343.9511 723.0706,-350.9445"/>
</g>
<!-- Node15&#45;&gt;Node4 -->
<g id="edge18" class="edge">
<title>Node15&#45;&gt;Node4</title>
<path fill="none" stroke="#191970" d="M103.4669,-392.4624C147.1215,-371.2093 256.3544,-318.7812 350,-280 379.273,-267.8772 413.0156,-255.4584 437.9044,-246.5848"/>
<polygon fill="#191970" stroke="#191970" points="439.397,-249.7692 447.6528,-243.129 437.058,-243.1715 439.397,-249.7692"/>
</g>
<!-- Node16&#45;&gt;Node1 -->
<g id="edge21" class="edge">
<title>Node16&#45;&gt;Node1</title>
<path fill="none" stroke="#191970" d="M389.6463,-448.4557C397.411,-433.6362 414.5171,-405.4053 438,-392 486.0705,-364.5588 650.3671,-352.0582 722.5338,-347.7947"/>
<polygon fill="#191970" stroke="#191970" points="723.1074,-351.2677 732.8912,-347.2024 722.7077,-344.2792 723.1074,-351.2677"/>
</g>
<!-- Node16&#45;&gt;Node17 -->
<g id="edge22" class="edge">
<title>Node16&#45;&gt;Node17</title>
<path fill="none" stroke="#191970" d="M358.953,-451.7931C316.0898,-441.5788 230.7343,-421.2388 183.4584,-409.9731"/>
<polygon fill="#191970" stroke="#191970" points="184.2376,-406.5608 173.6987,-407.6473 182.6149,-413.3702 184.2376,-406.5608"/>
</g>
<!-- Node17&#45;&gt;Node1 -->
<g id="edge23" class="edge">
<title>Node17&#45;&gt;Node1</title>
<path fill="none" stroke="#191970" d="M173.5754,-395.1061C178.3186,-393.9148 183.2927,-392.8032 188,-392 388.9009,-357.7216 634.1966,-348.8316 722.9296,-346.6604"/>
<polygon fill="#191970" stroke="#191970" points="723.0449,-350.1588 732.961,-346.4277 722.8825,-343.1607 723.0449,-350.1588"/>
</g>
<!-- Node17&#45;&gt;Node4 -->
<g id="edge24" class="edge">
<title>Node17&#45;&gt;Node4</title>
<path fill="none" stroke="#191970" d="M168.348,-392.4862C222.4636,-364.4263 381.6643,-281.8778 446.276,-248.3754"/>
<polygon fill="#191970" stroke="#191970" points="448.1852,-251.328 455.4517,-243.6177 444.963,-245.1137 448.1852,-251.328"/>
</g>
<!-- Node18&#45;&gt;Node1 -->
<g id="edge26" class="edge">
<title>Node18&#45;&gt;Node1</title>
<path fill="none" stroke="#191970" d="M539.6878,-448.329C559.5652,-434.5743 597.8884,-409.1328 633,-392 662.5123,-377.5994 697.75,-364.9323 723.1055,-356.5563"/>
<polygon fill="#191970" stroke="#191970" points="724.217,-359.8753 732.6438,-353.4535 722.0516,-353.2186 724.217,-359.8753"/>
</g>
<!-- Node18&#45;&gt;Node15 -->
<g id="edge27" class="edge">
<title>Node18&#45;&gt;Node15</title>
<path fill="none" stroke="#191970" d="M494.3684,-454.7784C410.0732,-446.1485 182.573,-422.5535 118.0919,-411.7029"/>
<polygon fill="#191970" stroke="#191970" points="118.4913,-408.2173 108.0202,-409.8317 117.2126,-415.0995 118.4913,-408.2173"/>
</g>
<!-- Node19&#45;&gt;Node1 -->
<g id="edge30" class="edge">
<title>Node19&#45;&gt;Node1</title>
<path fill="none" stroke="#191970" d="M376.5059,-504.376C401.2299,-491.5198 446.4057,-468.0344 485,-448 532.9886,-423.0891 542.7064,-411.8496 593,-392 636.7478,-374.7339 689.4381,-361.1665 723.0734,-353.3665"/>
<polygon fill="#191970" stroke="#191970" points="723.8974,-356.7685 732.8692,-351.1332 722.3414,-349.9437 723.8974,-356.7685"/>
</g>
<!-- Node19&#45;&gt;Node15 -->
<g id="edge33" class="edge">
<title>Node19&#45;&gt;Node15</title>
<path fill="none" stroke="#191970" d="M332.1373,-504.4173C307.7574,-495.3058 270.252,-481.087 238,-468 195.1944,-450.6306 146.2321,-429.4118 115.2254,-415.8043"/>
<polygon fill="#191970" stroke="#191970" points="116.3828,-412.4898 105.8198,-411.6682 113.5649,-418.8976 116.3828,-412.4898"/>
</g>
<!-- Node19&#45;&gt;Node16 -->
<g id="edge34" class="edge">
<title>Node19&#45;&gt;Node16</title>
<path fill="none" stroke="#191970" d="M362.703,-504.2455C366.3424,-496.6973 371.4924,-486.0158 375.9262,-476.8197"/>
<polygon fill="#191970" stroke="#191970" points="379.1605,-478.1704 380.3509,-467.6427 372.8551,-475.1303 379.1605,-478.1704"/>
</g>
<!-- Node19&#45;&gt;Node17 -->
<g id="edge31" class="edge">
<title>Node19&#45;&gt;Node17</title>
<path fill="none" stroke="#191970" d="M340.266,-504.4509C303.7321,-484.7788 219.896,-439.6363 176.7437,-416.4005"/>
<polygon fill="#191970" stroke="#191970" points="178.1532,-413.1843 167.6891,-411.5249 174.8344,-419.3476 178.1532,-413.1843"/>
</g>
<!-- Node19&#45;&gt;Node18 -->
<g id="edge32" class="edge">
<title>Node19&#45;&gt;Node18</title>
<path fill="none" stroke="#191970" d="M384.25,-505.25C411.9799,-496.0067 455.9838,-481.3387 487.6092,-470.7969"/>
<polygon fill="#191970" stroke="#191970" points="489.0259,-474.0141 497.4059,-467.5314 486.8123,-467.3733 489.0259,-474.0141"/>
</g>
<!-- Node20&#45;&gt;Node1 -->
<g id="edge37" class="edge">
<title>Node20&#45;&gt;Node1</title>
<path fill="none" stroke="#191970" d="M818.1102,-392.2455C807.0746,-383.8943 790.9708,-371.7076 778.0647,-361.9408"/>
<polygon fill="#191970" stroke="#191970" points="779.8283,-358.8862 769.7421,-355.6427 775.6041,-364.4681 779.8283,-358.8862"/>
</g>
<!-- Node21&#45;&gt;Node1 -->
<g id="edge39" class="edge">
<title>Node21&#45;&gt;Node1</title>
<path fill="none" stroke="#191970" d="M480.5484,-620.8366C554.6687,-607.4461 738,-568.7878 738,-514 738,-514 738,-514 738,-458 738,-425.2688 745.9852,-387.9052 751.6022,-365.6716"/>
<polygon fill="#191970" stroke="#191970" points="755.0415,-366.3545 754.1965,-355.7934 748.2711,-364.5763 755.0415,-366.3545"/>
</g>
<!-- Node21&#45;&gt;Node14 -->
<g id="edge44" class="edge">
<title>Node21&#45;&gt;Node14</title>
<path fill="none" stroke="#191970" d="M419.116,-618.4476C375.715,-607.8342 297.0716,-588.6027 253.0496,-577.8375"/>
<polygon fill="#191970" stroke="#191970" points="253.7108,-574.3961 243.1656,-575.4204 252.0479,-581.1957 253.7108,-574.3961"/>
</g>
<!-- Node21&#45;&gt;Node16 -->
<g id="edge41" class="edge">
<title>Node21&#45;&gt;Node16</title>
<path fill="none" stroke="#191970" d="M446.3191,-616.4862C435.9551,-589.6994 406.379,-513.2565 392.4398,-477.2289"/>
<polygon fill="#191970" stroke="#191970" points="395.6751,-475.8912 388.8025,-467.8279 389.1467,-478.4171 395.6751,-475.8912"/>
</g>
<!-- Node21&#45;&gt;Node17 -->
<g id="edge40" class="edge">
<title>Node21&#45;&gt;Node17</title>
<path fill="none" stroke="#191970" d="M419.1408,-622.6745C359.3619,-615.8866 230.1243,-599.4256 190,-580 156.2811,-563.6754 142.6513,-558.0366 127,-524 112.887,-493.3087 117.9557,-480.8089 126,-448 128.3743,-438.3164 133.1821,-428.4071 137.8753,-420.2776"/>
<polygon fill="#191970" stroke="#191970" points="140.9119,-422.0214 143.1792,-411.672 134.9528,-418.3486 140.9119,-422.0214"/>
</g>
<!-- Node21&#45;&gt;Node18 -->
<g id="edge43" class="edge">
<title>Node21&#45;&gt;Node18</title>
<path fill="none" stroke="#191970" d="M480.5923,-620.1285C502.6781,-614.118 530.9848,-602.3581 545,-580 565.1019,-547.9319 548.4374,-502.0651 536.1597,-476.6877"/>
<polygon fill="#191970" stroke="#191970" points="539.2601,-475.0629 531.5986,-467.745 533.0243,-478.2435 539.2601,-475.0629"/>
</g>
<!-- Node21&#45;&gt;Node19 -->
<g id="edge42" class="edge">
<title>Node21&#45;&gt;Node19</title>
<path fill="none" stroke="#191970" d="M442.1561,-616.4509C426.6758,-597.6054 391.9947,-555.3849 372.3273,-531.4419"/>
<polygon fill="#191970" stroke="#191970" points="374.876,-529.0306 365.824,-523.5249 369.4669,-533.4738 374.876,-529.0306"/>
</g>
<!-- Node22&#45;&gt;Node1 -->
<g id="edge46" class="edge">
<title>Node22&#45;&gt;Node1</title>
<path fill="none" stroke="#191970" d="M634.2224,-504.4305C639.7269,-482.4284 655.7833,-427.4188 686,-392 697.0756,-379.0177 712.7227,-368.3442 726.5103,-360.558"/>
<polygon fill="#191970" stroke="#191970" points="728.5241,-363.4495 735.6795,-355.6359 725.2133,-357.2819 728.5241,-363.4495"/>
</g>
<!-- Node22&#45;&gt;Node16 -->
<g id="edge47" class="edge">
<title>Node22&#45;&gt;Node16</title>
<path fill="none" stroke="#191970" d="M591.7655,-504.878C544.4611,-494.1531 466.6496,-476.5117 421.1772,-466.2021"/>
<polygon fill="#191970" stroke="#191970" points="421.6958,-462.7309 411.1694,-463.9331 420.148,-469.5577 421.6958,-462.7309"/>
</g>
<!-- Node22&#45;&gt;Node18 -->
<g id="edge48" class="edge">
<title>Node22&#45;&gt;Node18</title>
<path fill="none" stroke="#191970" d="M613.5362,-504.2455C596.8926,-495.4527 572.2007,-482.4079 553.2808,-472.4125"/>
<polygon fill="#191970" stroke="#191970" points="554.7291,-469.2193 544.2522,-467.6427 551.4592,-475.4086 554.7291,-469.2193"/>
</g>
<!-- Node23&#45;&gt;Node1 -->
<g id="edge51" class="edge">
<title>Node23&#45;&gt;Node1</title>
<path fill="none" stroke="#191970" d="M536.2145,-565.9427C579.2291,-559.0152 660.1917,-543.722 681,-524 725.7825,-481.5554 696.133,-447.0494 724,-392 729.0203,-382.0828 736.0453,-371.9504 742.324,-363.7284"/>
<polygon fill="#191970" stroke="#191970" points="745.2509,-365.6699 748.714,-355.657 739.7627,-361.3249 745.2509,-365.6699"/>
</g>
<!-- Node23&#45;&gt;Node16 -->
<g id="edge52" class="edge">
<title>Node23&#45;&gt;Node16</title>
<path fill="none" stroke="#191970" d="M504.0442,-560.0379C496.764,-546.1602 482.0649,-520.8236 464,-504 450.0536,-491.012 431.8095,-480.0876 416.3677,-472.1484"/>
<polygon fill="#191970" stroke="#191970" points="417.6935,-468.8993 407.1787,-467.5992 414.5877,-475.1727 417.6935,-468.8993"/>
</g>
<!-- Node23&#45;&gt;Node18 -->
<g id="edge53" class="edge">
<title>Node23&#45;&gt;Node18</title>
<path fill="none" stroke="#191970" d="M510.4494,-560.4509C513.2221,-542.184 519.3282,-501.9553 523.0102,-477.6976"/>
<polygon fill="#191970" stroke="#191970" points="526.5139,-477.9369 524.5543,-467.5249 519.5931,-476.8864 526.5139,-477.9369"/>
</g>
<!-- Node23&#45;&gt;Node19 -->
<g id="edge54" class="edge">
<title>Node23&#45;&gt;Node19</title>
<path fill="none" stroke="#191970" d="M483.0422,-560.3733C458.2593,-551.1822 420.7254,-537.2624 393.246,-527.0713"/>
<polygon fill="#191970" stroke="#191970" points="394.2121,-523.6968 383.6191,-523.5011 391.7781,-530.26 394.2121,-523.6968"/>
</g>
<!-- Node24&#45;&gt;Node1 -->
<g id="edge56" class="edge">
<title>Node24&#45;&gt;Node1</title>
<path fill="none" stroke="#191970" d="M315.901,-560.3739C312.1934,-547.316 307.172,-523.393 313,-504 332.1209,-440.3744 351.7107,-419.9111 412,-392 466.8591,-366.6028 646.7212,-352.8052 722.6693,-347.9898"/>
<polygon fill="#191970" stroke="#191970" points="722.9081,-351.4818 732.6724,-347.3697 722.4749,-344.4952 722.9081,-351.4818"/>
</g>
<!-- Node24&#45;&gt;Node16 -->
<g id="edge59" class="edge">
<title>Node24&#45;&gt;Node16</title>
<path fill="none" stroke="#191970" d="M317.1769,-560.3561C315.1348,-546.8564 313.2665,-521.966 323,-504 330.1228,-490.8528 342.8121,-480.4284 354.8636,-472.8506"/>
<polygon fill="#191970" stroke="#191970" points="356.9744,-475.6715 363.8524,-467.6126 353.4501,-469.6234 356.9744,-475.6715"/>
</g>
<!-- Node24&#45;&gt;Node18 -->
<g id="edge57" class="edge">
<title>Node24&#45;&gt;Node18</title>
<path fill="none" stroke="#191970" d="M336.6487,-560.4509C373.007,-540.7788 456.44,-495.6363 499.3848,-472.4005"/>
<polygon fill="#191970" stroke="#191970" points="501.2664,-475.362 508.396,-467.5249 497.9352,-469.2054 501.2664,-475.362"/>
</g>
<!-- Node24&#45;&gt;Node19 -->
<g id="edge58" class="edge">
<title>Node24&#45;&gt;Node19</title>
<path fill="none" stroke="#191970" d="M325.7933,-560.2455C331.2178,-552.4564 338.9661,-541.3308 345.5033,-531.9439"/>
<polygon fill="#191970" stroke="#191970" points="348.4417,-533.849 351.2846,-523.6427 342.6975,-529.8485 348.4417,-533.849"/>
</g>
<!-- Node25&#45;&gt;Node1 -->
<g id="edge61" class="edge">
<title>Node25&#45;&gt;Node1</title>
<path fill="none" stroke="#191970" d="M940.9723,-560.2729C940.3411,-530.518 934.2708,-439.8464 885,-392 859.4265,-367.1658 819.5038,-355.6248 791.0479,-350.335"/>
<polygon fill="#191970" stroke="#191970" points="791.5747,-346.8744 781.1307,-348.6558 790.4061,-353.7762 791.5747,-346.8744"/>
</g>
<!-- Node26&#45;&gt;Node1 -->
<g id="edge63" class="edge">
<title>Node26&#45;&gt;Node1</title>
<path fill="none" stroke="#191970" d="M978.7323,-504.4438C977.5521,-481.4847 971.2592,-422.8435 938,-392 916.8269,-372.3648 837.4892,-357.7836 791.1796,-350.7294"/>
<polygon fill="#191970" stroke="#191970" points="791.4075,-347.225 781.0021,-349.2191 790.38,-354.1491 791.4075,-347.225"/>
</g>
<!-- Node27&#45;&gt;Node1 -->
<g id="edge65" class="edge">
<title>Node27&#45;&gt;Node1</title>
<path fill="none" stroke="#191970" d="M1049.8246,-448.2457C1058.7661,-434.1567 1071.7801,-408.046 1058,-392 1040.807,-371.9799 867.3072,-355.2048 791.799,-348.7927"/>
<polygon fill="#191970" stroke="#191970" points="791.6568,-345.2686 781.3998,-347.9227 791.0731,-352.2443 791.6568,-345.2686"/>
</g>
<!-- Node28&#45;&gt;Node1 -->
<g id="edge67" class="edge">
<title>Node28&#45;&gt;Node1</title>
<path fill="none" stroke="#191970" d="M791.9047,-504.4862C786.0305,-477.8144 769.3139,-401.9117 761.3376,-365.695"/>
<polygon fill="#191970" stroke="#191970" points="764.7335,-364.841 759.1645,-355.8279 757.8973,-366.3467 764.7335,-364.841"/>
</g>
<!-- Node28&#45;&gt;Node18 -->
<g id="edge68" class="edge">
<title>Node28&#45;&gt;Node18</title>
<path fill="none" stroke="#191970" d="M765.8258,-508.1129C718.5088,-498.2257 622.858,-478.239 567.7243,-466.7185"/>
<polygon fill="#191970" stroke="#191970" points="568.4264,-463.2897 557.9219,-464.6702 566.9946,-470.1417 568.4264,-463.2897"/>
</g>
<!-- Node29&#45;&gt;Node1 -->
<g id="edge70" class="edge">
<title>Node29&#45;&gt;Node1</title>
<path fill="none" stroke="#191970" d="M1095.8234,-560.1234C1103.7838,-529.938 1122.9101,-438.1591 1076,-392 1055.9063,-372.228 869.7721,-355.0798 791.4608,-348.6767"/>
<polygon fill="#191970" stroke="#191970" points="791.4039,-345.1608 781.1549,-347.8454 790.841,-352.1382 791.4039,-345.1608"/>
</g>
<!-- Node30&#45;&gt;Node1 -->
<g id="edge72" class="edge">
<title>Node30&#45;&gt;Node1</title>
<path fill="none" stroke="#191970" d="M1116.6827,-616.3152C1128.9915,-597.5029 1154,-554.3199 1154,-514 1154,-514 1154,-514 1154,-458 1154,-419.5305 1131.7484,-410.4647 1098,-392 1045.6774,-363.3729 867.5142,-351.4177 791.6544,-347.5429"/>
<polygon fill="#191970" stroke="#191970" points="791.3917,-344.0258 781.2314,-347.0289 791.0468,-351.0173 791.3917,-344.0258"/>
</g>
<!-- Node31&#45;&gt;Node1 -->
<g id="edge74" class="edge">
<title>Node31&#45;&gt;Node1</title>
<path fill="none" stroke="#191970" d="M873.3155,-448.4571C876.0823,-434.6314 878.9658,-408.8455 867,-392 849.6162,-367.527 816.6283,-356.0195 791.2938,-350.6416"/>
<polygon fill="#191970" stroke="#191970" points="791.7959,-347.1745 781.3189,-348.7498 790.4916,-354.0519 791.7959,-347.1745"/>
</g>
<!-- Node31&#45;&gt;Node20 -->
<g id="edge75" class="edge">
<title>Node31&#45;&gt;Node20</title>
<path fill="none" stroke="#191970" d="M864.0325,-448.2455C858.4689,-440.4564 850.522,-429.3308 843.8171,-419.9439"/>
<polygon fill="#191970" stroke="#191970" points="846.5481,-417.7457 837.8876,-411.6427 840.852,-421.8144 846.5481,-417.7457"/>
</g>
<!-- Node32 -->
<g id="node33" class="node">
<title>Node32</title>
<g id="a_node33"><a xlink:href="memp_8h.html" target="_top" xlink:title="lwip/memp.h">
<polygon fill="#ffffff" stroke="#000000" points="990.5,-392.5 990.5,-411.5 1049.5,-411.5 1049.5,-392.5 990.5,-392.5"/>
<text text-anchor="middle" x="1020" y="-399.5" font-family="Helvetica,sans-Serif" font-size="10.00" fill="#000000">lwip/memp.h</text>
</a>
</g>
</g>
<!-- Node31&#45;&gt;Node32 -->
<g id="edge76" class="edge">
<title>Node31&#45;&gt;Node32</title>
<path fill="none" stroke="#191970" d="M896.614,-448.3733C921.0687,-439.1822 958.1054,-425.2624 985.2209,-415.0713"/>
<polygon fill="#191970" stroke="#191970" points="986.5909,-418.2956 994.7202,-411.5011 984.1281,-411.7431 986.5909,-418.2956"/>
</g>
<!-- Node32&#45;&gt;Node1 -->
<g id="edge77" class="edge">
<title>Node32&#45;&gt;Node1</title>
<path fill="none" stroke="#191970" d="M990.1928,-395.156C985.4481,-394.0866 980.5917,-393.004 976,-392 910.6077,-377.7024 834.0382,-361.8139 790.9566,-352.9521"/>
<polygon fill="#191970" stroke="#191970" points="791.5079,-349.4923 781.0081,-350.9082 790.0991,-356.3491 791.5079,-349.4923"/>
</g>
<!-- Node33 -->
<g id="node34" class="node">
<title>Node33</title>
<g id="a_node34"><a xlink:href="memp__std_8h.html" target="_top" xlink:title="lwip/memp_std.h">
<polygon fill="#ffffff" stroke="#000000" points="983.5,-336.5 983.5,-355.5 1056.5,-355.5 1056.5,-336.5 983.5,-336.5"/>
<text text-anchor="middle" x="1020" y="-343.5" font-family="Helvetica,sans-Serif" font-size="10.00" fill="#000000">lwip/memp_std.h</text>
</a>
</g>
</g>
<!-- Node32&#45;&gt;Node33 -->
<g id="edge78" class="edge">
<title>Node32&#45;&gt;Node33</title>
<path fill="none" stroke="#191970" d="M1020,-392.2455C1020,-384.9382 1020,-374.6944 1020,-365.7046"/>
<polygon fill="#191970" stroke="#191970" points="1023.5001,-365.6426 1020,-355.6427 1016.5001,-365.6427 1023.5001,-365.6426"/>
</g>
<!-- Node34&#45;&gt;Node1 -->
<g id="edge80" class="edge">
<title>Node34&#45;&gt;Node1</title>
<path fill="none" stroke="#191970" d="M1192,-616.4116C1192,-597.0538 1192,-551.9167 1192,-514 1192,-514 1192,-514 1192,-458 1192,-417.4482 1165.2307,-410.2148 1129,-392 1070.1577,-362.4174 871.8048,-350.8576 791.3417,-347.3143"/>
<polygon fill="#191970" stroke="#191970" points="791.3798,-343.8128 781.24,-346.8846 791.0822,-350.8065 791.3798,-343.8128"/>
</g>
</g>
</svg>
