<?xml version="1.0" encoding="UTF-8" standalone="no"?>
<!DOCTYPE svg PUBLIC "-//W3C//DTD SVG 1.1//EN"
 "http://www.w3.org/Graphics/SVG/1.1/DTD/svg11.dtd">
<!-- Generated by graphviz version 2.40.1 (20161225.0304)
 -->
<!-- Title: esp&#45;open&#45;lwip/lwip/core/ipv4/ip_frag.c Pages: 1 -->
<svg width="903pt" height="711pt"
 viewBox="0.00 0.00 902.50 711.00" xmlns="http://www.w3.org/2000/svg" xmlns:xlink="http://www.w3.org/1999/xlink">
<g id="graph0" class="graph" transform="scale(1 1) rotate(0) translate(4 707)">
<title>esp&#45;open&#45;lwip/lwip/core/ipv4/ip_frag.c</title>
<polygon fill="#ffffff" stroke="transparent" points="-4,4 -4,-707 898.5,-707 898.5,4 -4,4"/>
<!-- Node0 -->
<g id="node1" class="node">
<title>Node0</title>
<polygon fill="#bfbfbf" stroke="#000000" points="256.5,-672.5 256.5,-702.5 336.5,-702.5 336.5,-672.5 256.5,-672.5"/>
<text text-anchor="start" x="264.5" y="-690.5" font-family="Helvetica,sans-Serif" font-size="10.00" fill="#000000">esp&#45;open&#45;lwip/lwip</text>
<text text-anchor="middle" x="296.5" y="-679.5" font-family="Helvetica,sans-Serif" font-size="10.00" fill="#000000">/core/ipv4/ip_frag.c</text>
</g>
<!-- Node1 -->
<g id="node2" class="node">
<title>Node1</title>
<g id="a_node2"><a xlink:href="opt_8h.html" target="_top" xlink:title="lwip/opt.h">
<polygon fill="#ffffff" stroke="#000000" points="389.5,-336.5 389.5,-355.5 437.5,-355.5 437.5,-336.5 389.5,-336.5"/>
<text text-anchor="middle" x="413.5" y="-343.5" font-family="Helvetica,sans-Serif" font-size="10.00" fill="#000000">lwip/opt.h</text>
</a>
</g>
</g>
<!-- Node0&#45;&gt;Node1 -->
<g id="edge1" class="edge">
<title>Node0&#45;&gt;Node1</title>
<path fill="none" stroke="#191970" d="M281.6563,-672.2253C262.75,-651.0891 232.5,-610.8831 232.5,-570 232.5,-570 232.5,-570 232.5,-514 232.5,-434.2863 327.9744,-381.7444 380.2409,-358.9533"/>
<polygon fill="#191970" stroke="#191970" points="381.6232,-362.1689 389.4646,-355.044 378.8916,-355.7238 381.6232,-362.1689"/>
</g>
<!-- Node12 -->
<g id="node13" class="node">
<title>Node12</title>
<polygon fill="#ffffff" stroke="#bfbfbf" points="851,-56.5 851,-75.5 892,-75.5 892,-56.5 851,-56.5"/>
<text text-anchor="middle" x="871.5" y="-63.5" font-family="Helvetica,sans-Serif" font-size="10.00" fill="#000000">string.h</text>
</g>
<!-- Node0&#45;&gt;Node12 -->
<g id="edge62" class="edge">
<title>Node0&#45;&gt;Node12</title>
<path fill="none" stroke="#191970" d="M336.665,-683.888C470.7441,-671.2989 894.5,-627.0022 894.5,-570 894.5,-570 894.5,-570 894.5,-178 894.5,-144.906 884.7452,-107.4151 877.9412,-85.2901"/>
<polygon fill="#191970" stroke="#191970" points="881.2706,-84.2105 874.8937,-75.7497 874.6026,-86.3405 881.2706,-84.2105"/>
</g>
<!-- Node14 -->
<g id="node15" class="node">
<title>Node14</title>
<g id="a_node15"><a xlink:href="ip__frag_8h.html" target="_top" xlink:title="lwip/ip_frag.h">
<polygon fill="#ffffff" stroke="#000000" points="598,-616.5 598,-635.5 659,-635.5 659,-616.5 598,-616.5"/>
<text text-anchor="middle" x="628.5" y="-623.5" font-family="Helvetica,sans-Serif" font-size="10.00" fill="#000000">lwip/ip_frag.h</text>
</a>
</g>
</g>
<!-- Node0&#45;&gt;Node14 -->
<g id="edge15" class="edge">
<title>Node0&#45;&gt;Node14</title>
<path fill="none" stroke="#191970" d="M336.547,-680.0817C400.0978,-668.3094 523.3959,-645.4696 587.5237,-633.5905"/>
<polygon fill="#191970" stroke="#191970" points="588.4679,-636.9752 597.6631,-631.7123 587.1929,-630.0923 588.4679,-636.9752"/>
</g>
<!-- Node17 -->
<g id="node18" class="node">
<title>Node17</title>
<g id="a_node18"><a xlink:href="netif_8h.html" target="_top" xlink:title="lwip/netif.h">
<polygon fill="#ffffff" stroke="#000000" points="548.5,-504.5 548.5,-523.5 600.5,-523.5 600.5,-504.5 548.5,-504.5"/>
<text text-anchor="middle" x="574.5" y="-511.5" font-family="Helvetica,sans-Serif" font-size="10.00" fill="#000000">lwip/netif.h</text>
</a>
</g>
</g>
<!-- Node0&#45;&gt;Node17 -->
<g id="edge46" class="edge">
<title>Node0&#45;&gt;Node17</title>
<path fill="none" stroke="#191970" d="M320.6844,-672.4065C373.3981,-639.5079 498.1189,-561.6695 550.5857,-528.9249"/>
<polygon fill="#191970" stroke="#191970" points="552.5932,-531.7978 559.2236,-523.534 548.8871,-525.8594 552.5932,-531.7978"/>
</g>
<!-- Node19 -->
<g id="node20" class="node">
<title>Node19</title>
<g id="a_node20"><a xlink:href="def_8h.html" target="_top" xlink:title="lwip/def.h">
<polygon fill="#ffffff" stroke="#000000" points="441.5,-392.5 441.5,-411.5 489.5,-411.5 489.5,-392.5 441.5,-392.5"/>
<text text-anchor="middle" x="465.5" y="-399.5" font-family="Helvetica,sans-Serif" font-size="10.00" fill="#000000">lwip/def.h</text>
</a>
</g>
</g>
<!-- Node0&#45;&gt;Node19 -->
<g id="edge41" class="edge">
<title>Node0&#45;&gt;Node19</title>
<path fill="none" stroke="#191970" d="M256.3266,-679.6311C227.7513,-672.337 189.9024,-659.0322 163.5,-636 114.6571,-593.3919 62.3367,-555.6461 101.5,-504 111.7512,-490.4813 342.9981,-432.2363 431.4843,-410.3527"/>
<polygon fill="#191970" stroke="#191970" points="432.4312,-413.7242 441.3009,-407.9294 430.7535,-406.9282 432.4312,-413.7242"/>
</g>
<!-- Node21 -->
<g id="node22" class="node">
<title>Node21</title>
<g id="a_node22"><a xlink:href="inet__chksum_8h.html" target="_top" xlink:title="lwip/inet_chksum.h">
<polygon fill="#ffffff" stroke="#000000" points="298.5,-504.5 298.5,-523.5 378.5,-523.5 378.5,-504.5 298.5,-504.5"/>
<text text-anchor="middle" x="338.5" y="-511.5" font-family="Helvetica,sans-Serif" font-size="10.00" fill="#000000">lwip/inet_chksum.h</text>
</a>
</g>
</g>
<!-- Node0&#45;&gt;Node21 -->
<g id="edge42" class="edge">
<title>Node0&#45;&gt;Node21</title>
<path fill="none" stroke="#191970" d="M297.2216,-672.2353C298.7114,-647.9553 303.1033,-599.2686 315.5,-560 318.4429,-550.6779 323.0754,-540.9158 327.414,-532.7952"/>
<polygon fill="#191970" stroke="#191970" points="330.5946,-534.2789 332.4272,-523.8437 324.4871,-530.8584 330.5946,-534.2789"/>
</g>
<!-- Node22 -->
<g id="node23" class="node">
<title>Node22</title>
<g id="a_node23"><a xlink:href="snmp_8h.html" target="_top" xlink:title="lwip/snmp.h">
<polygon fill="#ffffff" stroke="#000000" points="110.5,-504.5 110.5,-523.5 166.5,-523.5 166.5,-504.5 110.5,-504.5"/>
<text text-anchor="middle" x="138.5" y="-511.5" font-family="Helvetica,sans-Serif" font-size="10.00" fill="#000000">lwip/snmp.h</text>
</a>
</g>
</g>
<!-- Node0&#45;&gt;Node22 -->
<g id="edge47" class="edge">
<title>Node0&#45;&gt;Node22</title>
<path fill="none" stroke="#191970" d="M256.4516,-678.4685C231.5357,-670.9469 200.5329,-657.8402 180.5,-636 153.8563,-606.9526 143.9968,-560.198 140.4361,-533.8016"/>
<polygon fill="#191970" stroke="#191970" points="143.8743,-533.069 139.2351,-523.5438 136.9218,-533.883 143.8743,-533.069"/>
</g>
<!-- Node23 -->
<g id="node24" class="node">
<title>Node23</title>
<g id="a_node24"><a xlink:href="stats_8h.html" target="_top" xlink:title="lwip/stats.h">
<polygon fill="#ffffff" stroke="#000000" points="131.5,-448.5 131.5,-467.5 185.5,-467.5 185.5,-448.5 131.5,-448.5"/>
<text text-anchor="middle" x="158.5" y="-455.5" font-family="Helvetica,sans-Serif" font-size="10.00" fill="#000000">lwip/stats.h</text>
</a>
</g>
</g>
<!-- Node0&#45;&gt;Node23 -->
<g id="edge50" class="edge">
<title>Node0&#45;&gt;Node23</title>
<path fill="none" stroke="#191970" d="M263.8404,-672.4533C248.1775,-663.773 230.3012,-651.489 218.5,-636 181.1063,-586.9212 195.7538,-562.2821 175.5,-504 172.4345,-495.1787 168.875,-485.4718 165.8076,-477.2576"/>
<polygon fill="#191970" stroke="#191970" points="169.0577,-475.9567 162.2596,-467.8304 162.5063,-478.4224 169.0577,-475.9567"/>
</g>
<!-- Node27 -->
<g id="node28" class="node">
<title>Node27</title>
<g id="a_node28"><a xlink:href="icmp_8h.html" target="_top" xlink:title="lwip/icmp.h">
<polygon fill="#ffffff" stroke="#000000" points="324.5,-560.5 324.5,-579.5 378.5,-579.5 378.5,-560.5 324.5,-560.5"/>
<text text-anchor="middle" x="351.5" y="-567.5" font-family="Helvetica,sans-Serif" font-size="10.00" fill="#000000">lwip/icmp.h</text>
</a>
</g>
</g>
<!-- Node0&#45;&gt;Node27 -->
<g id="edge57" class="edge">
<title>Node0&#45;&gt;Node27</title>
<path fill="none" stroke="#191970" d="M303.6903,-672.1389C313.7346,-650.6806 331.9463,-611.7738 342.7607,-588.6702"/>
<polygon fill="#191970" stroke="#191970" points="345.9558,-590.1002 347.0254,-579.5595 339.616,-587.1326 345.9558,-590.1002"/>
</g>
<!-- Node2 -->
<g id="node3" class="node">
<title>Node2</title>
<g id="a_node3"><a xlink:href="lwipopts_8h.html" target="_top" xlink:title="lwipopts.h">
<polygon fill="#ffffff" stroke="#000000" points="461.5,-280.5 461.5,-299.5 511.5,-299.5 511.5,-280.5 461.5,-280.5"/>
<text text-anchor="middle" x="486.5" y="-287.5" font-family="Helvetica,sans-Serif" font-size="10.00" fill="#000000">lwipopts.h</text>
</a>
</g>
</g>
<!-- Node1&#45;&gt;Node2 -->
<g id="edge2" class="edge">
<title>Node1&#45;&gt;Node2</title>
<path fill="none" stroke="#191970" d="M426.2156,-336.2455C437.102,-327.8943 452.9883,-315.7076 465.72,-305.9408"/>
<polygon fill="#191970" stroke="#191970" points="468.1261,-308.5063 473.9301,-299.6427 463.8654,-302.9523 468.1261,-308.5063"/>
</g>
<!-- Node3 -->
<g id="node4" class="node">
<title>Node3</title>
<g id="a_node4"><a xlink:href="esp-open-sdk_2esp-open-lwip_2include_2lwip_2debug_8h.html" target="_top" xlink:title="lwip/debug.h">
<polygon fill="#ffffff" stroke="#000000" points="384,-280.5 384,-299.5 443,-299.5 443,-280.5 384,-280.5"/>
<text text-anchor="middle" x="413.5" y="-287.5" font-family="Helvetica,sans-Serif" font-size="10.00" fill="#000000">lwip/debug.h</text>
</a>
</g>
</g>
<!-- Node1&#45;&gt;Node3 -->
<g id="edge3" class="edge">
<title>Node1&#45;&gt;Node3</title>
<path fill="none" stroke="#191970" d="M413.5,-336.2455C413.5,-328.9382 413.5,-318.6944 413.5,-309.7046"/>
<polygon fill="#191970" stroke="#191970" points="417.0001,-309.6426 413.5,-299.6427 410.0001,-309.6427 417.0001,-309.6426"/>
</g>
<!-- Node4 -->
<g id="node5" class="node">
<title>Node4</title>
<g id="a_node5"><a xlink:href="arch_8h.html" target="_top" xlink:title="lwip/arch.h">
<polygon fill="#ffffff" stroke="#000000" points="540.5,-224.5 540.5,-243.5 592.5,-243.5 592.5,-224.5 540.5,-224.5"/>
<text text-anchor="middle" x="566.5" y="-231.5" font-family="Helvetica,sans-Serif" font-size="10.00" fill="#000000">lwip/arch.h</text>
</a>
</g>
</g>
<!-- Node3&#45;&gt;Node4 -->
<g id="edge4" class="edge">
<title>Node3&#45;&gt;Node4</title>
<path fill="none" stroke="#191970" d="M439.8016,-280.3733C464.9128,-271.1822 502.9438,-257.2624 530.7872,-247.0713"/>
<polygon fill="#191970" stroke="#191970" points="532.3538,-250.2251 540.5416,-243.5011 529.9478,-243.6516 532.3538,-250.2251"/>
</g>
<!-- Node5 -->
<g id="node6" class="node">
<title>Node5</title>
<g id="a_node6"><a xlink:href="cc_8h.html" target="_top" xlink:title="arch/cc.h">
<polygon fill="#ffffff" stroke="#000000" points="574,-168.5 574,-187.5 621,-187.5 621,-168.5 574,-168.5"/>
<text text-anchor="middle" x="597.5" y="-175.5" font-family="Helvetica,sans-Serif" font-size="10.00" fill="#000000">arch/cc.h</text>
</a>
</g>
</g>
<!-- Node4&#45;&gt;Node5 -->
<g id="edge5" class="edge">
<title>Node4&#45;&gt;Node5</title>
<path fill="none" stroke="#191970" d="M571.8998,-224.2455C576.1227,-216.617 582.1173,-205.7881 587.2441,-196.5267"/>
<polygon fill="#191970" stroke="#191970" points="590.381,-198.0867 592.1621,-187.6427 584.2568,-194.6965 590.381,-198.0867"/>
</g>
<!-- Node6 -->
<g id="node7" class="node">
<title>Node6</title>
<g id="a_node7"><a xlink:href="c__types_8h.html" target="_top" xlink:title="c_types.h">
<polygon fill="#ffffff" stroke="#000000" points="599,-56.5 599,-75.5 648,-75.5 648,-56.5 599,-56.5"/>
<text text-anchor="middle" x="623.5" y="-63.5" font-family="Helvetica,sans-Serif" font-size="10.00" fill="#000000">c_types.h</text>
</a>
</g>
</g>
<!-- Node5&#45;&gt;Node6 -->
<g id="edge6" class="edge">
<title>Node5&#45;&gt;Node6</title>
<path fill="none" stroke="#191970" d="M599.7167,-168.4509C603.9765,-150.1013 613.3807,-109.5908 619.0035,-85.3693"/>
<polygon fill="#191970" stroke="#191970" points="622.4368,-86.0573 621.2889,-75.5249 615.6182,-84.4744 622.4368,-86.0573"/>
</g>
<!-- Node9 -->
<g id="node10" class="node">
<title>Node9</title>
<g id="a_node10"><a xlink:href="ets__sys_8h.html" target="_top" xlink:title="ets_sys.h">
<polygon fill="#ffffff" stroke="#000000" points="547.5,-112.5 547.5,-131.5 595.5,-131.5 595.5,-112.5 547.5,-112.5"/>
<text text-anchor="middle" x="571.5" y="-119.5" font-family="Helvetica,sans-Serif" font-size="10.00" fill="#000000">ets_sys.h</text>
</a>
</g>
</g>
<!-- Node5&#45;&gt;Node9 -->
<g id="edge9" class="edge">
<title>Node5&#45;&gt;Node9</title>
<path fill="none" stroke="#191970" d="M592.9711,-168.2455C589.4666,-160.6973 584.5073,-150.0158 580.2377,-140.8197"/>
<polygon fill="#191970" stroke="#191970" points="583.3627,-139.2389 575.977,-131.6427 577.0136,-142.1867 583.3627,-139.2389"/>
</g>
<!-- Node11 -->
<g id="node12" class="node">
<title>Node11</title>
<g id="a_node12"><a xlink:href="osapi_8h.html" target="_top" xlink:title="osapi.h">
<polygon fill="#ffffff" stroke="#000000" points="746,-112.5 746,-131.5 787,-131.5 787,-112.5 746,-112.5"/>
<text text-anchor="middle" x="766.5" y="-119.5" font-family="Helvetica,sans-Serif" font-size="10.00" fill="#000000">osapi.h</text>
</a>
</g>
</g>
<!-- Node5&#45;&gt;Node11 -->
<g id="edge12" class="edge">
<title>Node5&#45;&gt;Node11</title>
<path fill="none" stroke="#191970" d="M621.3551,-170.0953C651.5341,-160.0952 703.526,-142.8671 736.4032,-131.9729"/>
<polygon fill="#191970" stroke="#191970" points="737.556,-135.2781 745.9476,-128.8103 735.3542,-128.6334 737.556,-135.2781"/>
</g>
<!-- Node7 -->
<g id="node8" class="node">
<title>Node7</title>
<polygon fill="#ffffff" stroke="#bfbfbf" points="572,-.5 572,-19.5 613,-19.5 613,-.5 572,-.5"/>
<text text-anchor="middle" x="592.5" y="-7.5" font-family="Helvetica,sans-Serif" font-size="10.00" fill="#000000">stdint.h</text>
</g>
<!-- Node6&#45;&gt;Node7 -->
<g id="edge7" class="edge">
<title>Node6&#45;&gt;Node7</title>
<path fill="none" stroke="#191970" d="M618.1002,-56.2455C613.8773,-48.617 607.8827,-37.7881 602.7559,-28.5267"/>
<polygon fill="#191970" stroke="#191970" points="605.7432,-26.6965 597.8379,-19.6427 599.619,-30.0867 605.7432,-26.6965"/>
</g>
<!-- Node8 -->
<g id="node9" class="node">
<title>Node8</title>
<polygon fill="#ffffff" stroke="#bfbfbf" points="631,-.5 631,-19.5 678,-19.5 678,-.5 631,-.5"/>
<text text-anchor="middle" x="654.5" y="-7.5" font-family="Helvetica,sans-Serif" font-size="10.00" fill="#000000">stdbool.h</text>
</g>
<!-- Node6&#45;&gt;Node8 -->
<g id="edge8" class="edge">
<title>Node6&#45;&gt;Node8</title>
<path fill="none" stroke="#191970" d="M628.8998,-56.2455C633.1227,-48.617 639.1173,-37.7881 644.2441,-28.5267"/>
<polygon fill="#191970" stroke="#191970" points="647.381,-30.0867 649.1621,-19.6427 641.2568,-26.6965 647.381,-30.0867"/>
</g>
<!-- Node9&#45;&gt;Node6 -->
<g id="edge10" class="edge">
<title>Node9&#45;&gt;Node6</title>
<path fill="none" stroke="#191970" d="M580.5577,-112.2455C588.0142,-104.2155 598.7634,-92.6394 607.6417,-83.0781"/>
<polygon fill="#191970" stroke="#191970" points="610.3063,-85.3522 614.5461,-75.6427 605.1768,-80.589 610.3063,-85.3522"/>
</g>
<!-- Node10 -->
<g id="node11" class="node">
<title>Node10</title>
<g id="a_node11"><a xlink:href="eagle__soc_8h.html" target="_top" xlink:title="eagle_soc.h">
<polygon fill="#ffffff" stroke="#000000" points="524,-56.5 524,-75.5 581,-75.5 581,-56.5 524,-56.5"/>
<text text-anchor="middle" x="552.5" y="-63.5" font-family="Helvetica,sans-Serif" font-size="10.00" fill="#000000">eagle_soc.h</text>
</a>
</g>
</g>
<!-- Node9&#45;&gt;Node10 -->
<g id="edge11" class="edge">
<title>Node9&#45;&gt;Node10</title>
<path fill="none" stroke="#191970" d="M568.1905,-112.2455C565.6567,-104.7776 562.0823,-94.2427 558.985,-85.1137"/>
<polygon fill="#191970" stroke="#191970" points="562.2991,-83.9879 555.7716,-75.6427 555.6702,-86.237 562.2991,-83.9879"/>
</g>
<!-- Node11&#45;&gt;Node12 -->
<g id="edge13" class="edge">
<title>Node11&#45;&gt;Node12</title>
<path fill="none" stroke="#191970" d="M784.7896,-112.2455C801.2762,-103.4527 825.7352,-90.4079 844.4765,-80.4125"/>
<polygon fill="#191970" stroke="#191970" points="846.2435,-83.4368 853.42,-75.6427 842.9494,-77.2604 846.2435,-83.4368"/>
</g>
<!-- Node13 -->
<g id="node14" class="node">
<title>Node13</title>
<polygon fill="#ffffff" stroke="#bfbfbf" points="735.5,-56.5 735.5,-75.5 797.5,-75.5 797.5,-56.5 735.5,-56.5"/>
<text text-anchor="middle" x="766.5" y="-63.5" font-family="Helvetica,sans-Serif" font-size="10.00" fill="#000000">user_config.h</text>
</g>
<!-- Node11&#45;&gt;Node13 -->
<g id="edge14" class="edge">
<title>Node11&#45;&gt;Node13</title>
<path fill="none" stroke="#191970" d="M766.5,-112.2455C766.5,-104.9382 766.5,-94.6944 766.5,-85.7046"/>
<polygon fill="#191970" stroke="#191970" points="770.0001,-85.6426 766.5,-75.6427 763.0001,-85.6427 770.0001,-85.6426"/>
</g>
<!-- Node14&#45;&gt;Node1 -->
<g id="edge16" class="edge">
<title>Node14&#45;&gt;Node1</title>
<path fill="none" stroke="#191970" d="M659.2595,-618.2896C703.6743,-605.098 780.5,-573.6577 780.5,-514 780.5,-514 780.5,-514 780.5,-458 780.5,-388.7946 538.7502,-358.149 447.6661,-349.0586"/>
<polygon fill="#191970" stroke="#191970" points="447.8714,-345.5622 437.5799,-348.0792 447.1948,-352.5294 447.8714,-345.5622"/>
</g>
<!-- Node15 -->
<g id="node16" class="node">
<title>Node15</title>
<g id="a_node16"><a xlink:href="err_8h.html" target="_top" xlink:title="lwip/err.h">
<polygon fill="#ffffff" stroke="#000000" points="597,-392.5 597,-411.5 644,-411.5 644,-392.5 597,-392.5"/>
<text text-anchor="middle" x="620.5" y="-399.5" font-family="Helvetica,sans-Serif" font-size="10.00" fill="#000000">lwip/err.h</text>
</a>
</g>
</g>
<!-- Node14&#45;&gt;Node15 -->
<g id="edge17" class="edge">
<title>Node14&#45;&gt;Node15</title>
<path fill="none" stroke="#191970" d="M654.4027,-616.4579C671.9238,-608.8782 694.5161,-596.7567 709.5,-580 733.1113,-553.5951 741.8826,-538.4158 733.5,-504 726.8672,-476.7679 724.0879,-468.0473 704.5,-448 690.3183,-433.4857 670.5667,-422.3554 653.7793,-414.6815"/>
<polygon fill="#191970" stroke="#191970" points="654.8686,-411.3388 644.3022,-410.5632 652.0787,-417.7588 654.8686,-411.3388"/>
</g>
<!-- Node16 -->
<g id="node17" class="node">
<title>Node16</title>
<g id="a_node17"><a xlink:href="pbuf_8h.html" target="_top" xlink:title="lwip/pbuf.h">
<polygon fill="#ffffff" stroke="#000000" points="545.5,-448.5 545.5,-467.5 597.5,-467.5 597.5,-448.5 545.5,-448.5"/>
<text text-anchor="middle" x="571.5" y="-455.5" font-family="Helvetica,sans-Serif" font-size="10.00" fill="#000000">lwip/pbuf.h</text>
</a>
</g>
</g>
<!-- Node14&#45;&gt;Node16 -->
<g id="edge20" class="edge">
<title>Node14&#45;&gt;Node16</title>
<path fill="none" stroke="#191970" d="M628.6949,-616.3351C628.7696,-595.0458 626.9902,-542.9069 609.5,-504 604.7219,-493.3711 596.8048,-483.2006 589.4303,-475.1381"/>
<polygon fill="#191970" stroke="#191970" points="591.8404,-472.5955 582.373,-467.8395 586.8081,-477.4614 591.8404,-472.5955"/>
</g>
<!-- Node14&#45;&gt;Node17 -->
<g id="edge23" class="edge">
<title>Node14&#45;&gt;Node17</title>
<path fill="none" stroke="#191970" d="M623.896,-616.4509C614.9691,-597.936 595.1642,-556.8591 583.5251,-532.7187"/>
<polygon fill="#191970" stroke="#191970" points="586.5881,-531.0125 579.0924,-523.5249 580.2827,-534.0527 586.5881,-531.0125"/>
</g>
<!-- Node18 -->
<g id="node19" class="node">
<title>Node18</title>
<g id="a_node19"><a xlink:href="esp-open-lwip_2include_2lwip_2ip__addr_8h.html" target="_top" xlink:title="lwip/ip_addr.h">
<polygon fill="#ffffff" stroke="#000000" points="383,-448.5 383,-467.5 446,-467.5 446,-448.5 383,-448.5"/>
<text text-anchor="middle" x="414.5" y="-455.5" font-family="Helvetica,sans-Serif" font-size="10.00" fill="#000000">lwip/ip_addr.h</text>
</a>
</g>
</g>
<!-- Node14&#45;&gt;Node18 -->
<g id="edge33" class="edge">
<title>Node14&#45;&gt;Node18</title>
<path fill="none" stroke="#191970" d="M615.1754,-616.4068C590.5917,-598.6199 536.5843,-559.133 492.5,-524 471.8995,-507.5824 448.9525,-488.0034 433.3132,-474.4551"/>
<polygon fill="#191970" stroke="#191970" points="435.2806,-471.5277 425.4379,-467.6071 430.6874,-476.81 435.2806,-471.5277"/>
</g>
<!-- Node20 -->
<g id="node21" class="node">
<title>Node20</title>
<g id="a_node21"><a xlink:href="ip_8h.html" target="_top" xlink:title="lwip/ip.h">
<polygon fill="#ffffff" stroke="#000000" points="656.5,-560.5 656.5,-579.5 700.5,-579.5 700.5,-560.5 656.5,-560.5"/>
<text text-anchor="middle" x="678.5" y="-567.5" font-family="Helvetica,sans-Serif" font-size="10.00" fill="#000000">lwip/ip.h</text>
</a>
</g>
</g>
<!-- Node14&#45;&gt;Node20 -->
<g id="edge34" class="edge">
<title>Node14&#45;&gt;Node20</title>
<path fill="none" stroke="#191970" d="M637.2093,-616.2455C644.3073,-608.2958 654.5084,-596.8706 662.995,-587.3656"/>
<polygon fill="#191970" stroke="#191970" points="665.8411,-589.4331 669.8905,-579.6427 660.6195,-584.771 665.8411,-589.4331"/>
</g>
<!-- Node15&#45;&gt;Node1 -->
<g id="edge18" class="edge">
<title>Node15&#45;&gt;Node1</title>
<path fill="none" stroke="#191970" d="M596.7545,-395.5761C560.0626,-385.6498 489.4394,-366.544 447.3897,-355.1682"/>
<polygon fill="#191970" stroke="#191970" points="448.1732,-351.7544 437.6062,-352.5215 446.3452,-358.5115 448.1732,-351.7544"/>
</g>
<!-- Node15&#45;&gt;Node4 -->
<g id="edge19" class="edge">
<title>Node15&#45;&gt;Node4</title>
<path fill="none" stroke="#191970" d="M617.442,-392.4862C608.8689,-365.8144 584.4716,-289.9117 572.8305,-253.695"/>
<polygon fill="#191970" stroke="#191970" points="576.0512,-252.2771 569.659,-243.8279 569.387,-254.4192 576.0512,-252.2771"/>
</g>
<!-- Node16&#45;&gt;Node1 -->
<g id="edge21" class="edge">
<title>Node16&#45;&gt;Node1</title>
<path fill="none" stroke="#191970" d="M567.899,-448.1053C562.2385,-433.8414 549.9642,-407.515 531.5,-392 507.2356,-371.6113 472.8864,-359.5991 447.5013,-352.9945"/>
<polygon fill="#191970" stroke="#191970" points="448.1144,-349.5413 437.5691,-350.5647 446.451,-356.3408 448.1144,-349.5413"/>
</g>
<!-- Node16&#45;&gt;Node15 -->
<g id="edge22" class="edge">
<title>Node16&#45;&gt;Node15</title>
<path fill="none" stroke="#191970" d="M580.0351,-448.2455C586.9912,-440.2958 596.9883,-428.8706 605.3051,-419.3656"/>
<polygon fill="#191970" stroke="#191970" points="608.1116,-421.4732 612.0627,-411.6427 602.8436,-416.8637 608.1116,-421.4732"/>
</g>
<!-- Node17&#45;&gt;Node1 -->
<g id="edge24" class="edge">
<title>Node17&#45;&gt;Node1</title>
<path fill="none" stroke="#191970" d="M565.3542,-504.2786C557.1864,-495.3 545.2028,-481.3693 536.5,-468 515.8974,-436.3503 524.7676,-419.1327 498.5,-392 484.2559,-377.2868 464.2741,-366.1473 447.2629,-358.5182"/>
<polygon fill="#191970" stroke="#191970" points="448.2282,-355.1253 437.6561,-354.4314 445.4879,-361.5667 448.2282,-355.1253"/>
</g>
<!-- Node17&#45;&gt;Node15 -->
<g id="edge25" class="edge">
<title>Node17&#45;&gt;Node15</title>
<path fill="none" stroke="#191970" d="M582.8583,-504.4598C590.1785,-495.603 600.5499,-481.7496 606.5,-468 612.8965,-453.2189 616.4605,-435.2758 618.3895,-421.8316"/>
<polygon fill="#191970" stroke="#191970" points="621.8804,-422.1224 619.6516,-411.7647 614.9347,-421.2516 621.8804,-422.1224"/>
</g>
<!-- Node17&#45;&gt;Node16 -->
<g id="edge32" class="edge">
<title>Node17&#45;&gt;Node16</title>
<path fill="none" stroke="#191970" d="M573.9774,-504.2455C573.586,-496.9382 573.0372,-486.6944 572.5556,-477.7046"/>
<polygon fill="#191970" stroke="#191970" points="576.0466,-477.4411 572.0166,-467.6427 569.0566,-477.8156 576.0466,-477.4411"/>
</g>
<!-- Node17&#45;&gt;Node18 -->
<g id="edge26" class="edge">
<title>Node17&#45;&gt;Node18</title>
<path fill="none" stroke="#191970" d="M548.4371,-504.878C522.1037,-495.6613 481.1757,-481.3365 451.4907,-470.9468"/>
<polygon fill="#191970" stroke="#191970" points="452.4869,-467.5873 441.892,-467.5872 450.1744,-474.1943 452.4869,-467.5873"/>
</g>
<!-- Node17&#45;&gt;Node19 -->
<g id="edge31" class="edge">
<title>Node17&#45;&gt;Node19</title>
<path fill="none" stroke="#191970" d="M554.6143,-504.4357C539.2774,-496.3298 518.2598,-483.5555 503.5,-468 490.4647,-454.2619 480.1202,-435.2356 473.5362,-421.1395"/>
<polygon fill="#191970" stroke="#191970" points="476.6849,-419.6064 469.4219,-411.8928 470.2894,-422.452 476.6849,-419.6064"/>
</g>
<!-- Node18&#45;&gt;Node1 -->
<g id="edge27" class="edge">
<title>Node18&#45;&gt;Node1</title>
<path fill="none" stroke="#191970" d="M414.4147,-448.4509C414.2516,-430.184 413.8925,-389.9553 413.6759,-365.6976"/>
<polygon fill="#191970" stroke="#191970" points="417.1743,-365.4932 413.585,-355.5249 410.1746,-365.5558 417.1743,-365.4932"/>
</g>
<!-- Node18&#45;&gt;Node19 -->
<g id="edge28" class="edge">
<title>Node18&#45;&gt;Node19</title>
<path fill="none" stroke="#191970" d="M423.3835,-448.2455C430.6966,-440.2155 441.2391,-428.6394 449.9467,-419.0781"/>
<polygon fill="#191970" stroke="#191970" points="452.5727,-421.3928 456.7183,-411.6427 447.3972,-416.6795 452.5727,-421.3928"/>
</g>
<!-- Node19&#45;&gt;Node1 -->
<g id="edge30" class="edge">
<title>Node19&#45;&gt;Node1</title>
<path fill="none" stroke="#191970" d="M456.4423,-392.2455C448.9858,-384.2155 438.2366,-372.6394 429.3583,-363.0781"/>
<polygon fill="#191970" stroke="#191970" points="431.8232,-360.589 422.4539,-355.6427 426.6937,-365.3522 431.8232,-360.589"/>
</g>
<!-- Node19&#45;&gt;Node4 -->
<g id="edge29" class="edge">
<title>Node19&#45;&gt;Node4</title>
<path fill="none" stroke="#191970" d="M471.2196,-392.4862C487.3927,-365.5845 533.6754,-288.5994 555.2173,-252.7673"/>
<polygon fill="#191970" stroke="#191970" points="558.4387,-254.2017 560.5916,-243.8279 552.4394,-250.5949 558.4387,-254.2017"/>
</g>
<!-- Node20&#45;&gt;Node1 -->
<g id="edge35" class="edge">
<title>Node20&#45;&gt;Node1</title>
<path fill="none" stroke="#191970" d="M693.3674,-560.4382C734.9087,-532.6086 845.8851,-449.9623 794.5,-392 771.6449,-366.2195 536.9963,-352.0691 447.7226,-347.5853"/>
<polygon fill="#191970" stroke="#191970" points="447.7401,-344.082 437.5802,-347.0862 447.3961,-351.0735 447.7401,-344.082"/>
</g>
<!-- Node20&#45;&gt;Node15 -->
<g id="edge39" class="edge">
<title>Node20&#45;&gt;Node15</title>
<path fill="none" stroke="#191970" d="M690.9212,-560.18C700.5016,-551.7529 713.0135,-538.6707 718.5,-524 721.6136,-515.6743 721.1107,-512.4969 718.5,-504 706.7447,-465.7408 670.2349,-434.8536 645.2558,-417.4593"/>
<polygon fill="#191970" stroke="#191970" points="646.8945,-414.3438 636.6419,-411.6727 642.991,-420.1544 646.8945,-414.3438"/>
</g>
<!-- Node20&#45;&gt;Node16 -->
<g id="edge37" class="edge">
<title>Node20&#45;&gt;Node16</title>
<path fill="none" stroke="#191970" d="M674.9096,-560.0972C669.5302,-546.29 658.2959,-521.0366 642.5,-504 630.7353,-491.3113 614.762,-480.5591 600.9453,-472.6484"/>
<polygon fill="#191970" stroke="#191970" points="602.254,-469.3745 591.8027,-467.6368 598.8893,-475.5128 602.254,-469.3745"/>
</g>
<!-- Node20&#45;&gt;Node17 -->
<g id="edge40" class="edge">
<title>Node20&#45;&gt;Node17</title>
<path fill="none" stroke="#191970" d="M660.3846,-560.2455C644.055,-551.4527 619.829,-538.4079 601.2661,-528.4125"/>
<polygon fill="#191970" stroke="#191970" points="602.8719,-525.3021 592.4078,-523.6427 599.5532,-531.4654 602.8719,-525.3021"/>
</g>
<!-- Node20&#45;&gt;Node18 -->
<g id="edge38" class="edge">
<title>Node20&#45;&gt;Node18</title>
<path fill="none" stroke="#191970" d="M656.4165,-563.9265C628.6435,-556.0094 579.7235,-541.1341 539.5,-524 503.6642,-508.735 464.2139,-487.0276 439.4069,-472.7347"/>
<polygon fill="#191970" stroke="#191970" points="441.0592,-469.6468 430.6545,-467.6487 437.5422,-475.6992 441.0592,-469.6468"/>
</g>
<!-- Node20&#45;&gt;Node19 -->
<g id="edge36" class="edge">
<title>Node20&#45;&gt;Node19</title>
<path fill="none" stroke="#191970" d="M678.0089,-560.4396C676.9614,-547.0391 673.6899,-522.2659 663.5,-504 646.1982,-472.9858 636.8513,-466.4399 606.5,-448 572.9371,-427.6089 529.3188,-415.1873 499.5394,-408.4768"/>
<polygon fill="#191970" stroke="#191970" points="500.1356,-405.025 489.6224,-406.3377 498.6596,-411.8676 500.1356,-405.025"/>
</g>
<!-- Node21&#45;&gt;Node1 -->
<g id="edge43" class="edge">
<title>Node21&#45;&gt;Node1</title>
<path fill="none" stroke="#191970" d="M342.7472,-504.4862C354.7056,-477.6994 388.8319,-401.2565 404.9157,-365.2289"/>
<polygon fill="#191970" stroke="#191970" points="408.232,-366.3861 409.1126,-355.8279 401.84,-363.5325 408.232,-366.3861"/>
</g>
<!-- Node21&#45;&gt;Node16 -->
<g id="edge44" class="edge">
<title>Node21&#45;&gt;Node16</title>
<path fill="none" stroke="#191970" d="M378.2894,-504.4369C422.357,-493.8455 492.7855,-476.9185 535.3389,-466.6911"/>
<polygon fill="#191970" stroke="#191970" points="536.3607,-470.0453 545.2658,-464.3052 534.7248,-463.2391 536.3607,-470.0453"/>
</g>
<!-- Node21&#45;&gt;Node18 -->
<g id="edge45" class="edge">
<title>Node21&#45;&gt;Node18</title>
<path fill="none" stroke="#191970" d="M351.7382,-504.2455C363.181,-495.814 379.9296,-483.4729 393.2475,-473.6598"/>
<polygon fill="#191970" stroke="#191970" points="395.4391,-476.3924 401.4135,-467.6427 391.2867,-470.757 395.4391,-476.3924"/>
</g>
<!-- Node22&#45;&gt;Node1 -->
<g id="edge48" class="edge">
<title>Node22&#45;&gt;Node1</title>
<path fill="none" stroke="#191970" d="M131.8351,-504.4287C117.065,-481.9404 85.0544,-425.1398 113.5,-392 130.6322,-372.0406 303.5577,-355.2315 378.8161,-348.8015"/>
<polygon fill="#191970" stroke="#191970" points="379.5098,-352.2556 389.1809,-347.929 378.9225,-345.2802 379.5098,-352.2556"/>
</g>
<!-- Node22&#45;&gt;Node18 -->
<g id="edge49" class="edge">
<title>Node22&#45;&gt;Node18</title>
<path fill="none" stroke="#191970" d="M166.7398,-508.2702C215.5005,-498.3767 315.7107,-478.0442 372.6127,-466.4989"/>
<polygon fill="#191970" stroke="#191970" points="373.6071,-469.8685 382.7114,-464.4499 372.2151,-463.0083 373.6071,-469.8685"/>
</g>
<!-- Node23&#45;&gt;Node1 -->
<g id="edge51" class="edge">
<title>Node23&#45;&gt;Node1</title>
<path fill="none" stroke="#191970" d="M165.9777,-448.2962C177.6954,-433.7819 201.8201,-406.5701 228.5,-392 276.8222,-365.6108 340.4652,-354.0937 379.1107,-349.2637"/>
<polygon fill="#191970" stroke="#191970" points="379.7879,-352.7084 389.3143,-348.0719 378.9758,-345.7557 379.7879,-352.7084"/>
</g>
<!-- Node24 -->
<g id="node25" class="node">
<title>Node24</title>
<g id="a_node25"><a xlink:href="esp-open-lwip_2include_2lwip_2mem_8h.html" target="_top" xlink:title="lwip/mem.h">
<polygon fill="#ffffff" stroke="#000000" points="122.5,-392.5 122.5,-411.5 176.5,-411.5 176.5,-392.5 122.5,-392.5"/>
<text text-anchor="middle" x="149.5" y="-399.5" font-family="Helvetica,sans-Serif" font-size="10.00" fill="#000000">lwip/mem.h</text>
</a>
</g>
</g>
<!-- Node23&#45;&gt;Node24 -->
<g id="edge52" class="edge">
<title>Node23&#45;&gt;Node24</title>
<path fill="none" stroke="#191970" d="M156.9323,-448.2455C155.7579,-440.9382 154.1116,-430.6944 152.6668,-421.7046"/>
<polygon fill="#191970" stroke="#191970" points="156.0922,-420.9606 151.0497,-411.6427 149.1809,-422.0714 156.0922,-420.9606"/>
</g>
<!-- Node25 -->
<g id="node26" class="node">
<title>Node25</title>
<g id="a_node26"><a xlink:href="memp_8h.html" target="_top" xlink:title="lwip/memp.h">
<polygon fill="#ffffff" stroke="#000000" points="7,-392.5 7,-411.5 66,-411.5 66,-392.5 7,-392.5"/>
<text text-anchor="middle" x="36.5" y="-399.5" font-family="Helvetica,sans-Serif" font-size="10.00" fill="#000000">lwip/memp.h</text>
</a>
</g>
</g>
<!-- Node23&#45;&gt;Node25 -->
<g id="edge54" class="edge">
<title>Node23&#45;&gt;Node25</title>
<path fill="none" stroke="#191970" d="M137.5275,-448.3733C117.9433,-439.3838 88.5039,-425.8706 66.449,-415.7471"/>
<polygon fill="#191970" stroke="#191970" points="67.7473,-412.4919 57.1989,-411.5011 64.8271,-418.8538 67.7473,-412.4919"/>
</g>
<!-- Node24&#45;&gt;Node1 -->
<g id="edge53" class="edge">
<title>Node24&#45;&gt;Node1</title>
<path fill="none" stroke="#191970" d="M176.8151,-395.1936C181.3783,-394.0979 186.0682,-392.9972 190.5,-392 257.2661,-376.9767 335.7128,-361.2358 379.5085,-352.6184"/>
<polygon fill="#191970" stroke="#191970" points="380.2108,-356.0474 389.3497,-350.6872 378.8628,-349.1784 380.2108,-356.0474"/>
</g>
<!-- Node25&#45;&gt;Node1 -->
<g id="edge55" class="edge">
<title>Node25&#45;&gt;Node1</title>
<path fill="none" stroke="#191970" d="M66.2505,-394.8733C71.0026,-393.8405 75.876,-392.8432 80.5,-392 188.8254,-372.2463 318.3543,-356.6238 378.9938,-349.7727"/>
<polygon fill="#191970" stroke="#191970" points="379.6039,-353.2263 389.152,-348.6345 378.8244,-346.2699 379.6039,-353.2263"/>
</g>
<!-- Node26 -->
<g id="node27" class="node">
<title>Node26</title>
<g id="a_node27"><a xlink:href="memp__std_8h.html" target="_top" xlink:title="lwip/memp_std.h">
<polygon fill="#ffffff" stroke="#000000" points="0,-336.5 0,-355.5 73,-355.5 73,-336.5 0,-336.5"/>
<text text-anchor="middle" x="36.5" y="-343.5" font-family="Helvetica,sans-Serif" font-size="10.00" fill="#000000">lwip/memp_std.h</text>
</a>
</g>
</g>
<!-- Node25&#45;&gt;Node26 -->
<g id="edge56" class="edge">
<title>Node25&#45;&gt;Node26</title>
<path fill="none" stroke="#191970" d="M36.5,-392.2455C36.5,-384.9382 36.5,-374.6944 36.5,-365.7046"/>
<polygon fill="#191970" stroke="#191970" points="40.0001,-365.6426 36.5,-355.6427 33.0001,-365.6427 40.0001,-365.6426"/>
</g>
<!-- Node27&#45;&gt;Node1 -->
<g id="edge58" class="edge">
<title>Node27&#45;&gt;Node1</title>
<path fill="none" stroke="#191970" d="M329.7342,-560.3857C315.4336,-552.773 297.8748,-540.6416 289.5,-524 285.5042,-516.0599 286.5969,-512.4014 289.5,-504 310.4235,-443.4487 365.1825,-388.4299 394.4338,-362.1904"/>
<polygon fill="#191970" stroke="#191970" points="396.7612,-364.8046 401.9584,-355.5721 392.138,-359.5485 396.7612,-364.8046"/>
</g>
<!-- Node27&#45;&gt;Node16 -->
<g id="edge59" class="edge">
<title>Node27&#45;&gt;Node16</title>
<path fill="none" stroke="#191970" d="M370.2571,-560.4509C409.0611,-540.6961 498.3175,-495.2565 543.7864,-472.1088"/>
<polygon fill="#191970" stroke="#191970" points="545.4667,-475.1808 552.7904,-467.5249 542.2908,-468.9427 545.4667,-475.1808"/>
</g>
<!-- Node27&#45;&gt;Node17 -->
<g id="edge61" class="edge">
<title>Node27&#45;&gt;Node17</title>
<path fill="none" stroke="#191970" d="M378.8442,-563.1333C418.9825,-553.0537 493.9066,-534.2387 538.4843,-523.0443"/>
<polygon fill="#191970" stroke="#191970" points="539.4718,-526.4051 548.3182,-520.5748 537.7669,-519.6159 539.4718,-526.4051"/>
</g>
<!-- Node27&#45;&gt;Node18 -->
<g id="edge60" class="edge">
<title>Node27&#45;&gt;Node18</title>
<path fill="none" stroke="#191970" d="M360.3555,-560.3431C368.2221,-551.4079 379.6565,-537.5047 387.5,-524 396.1348,-509.1328 403.3469,-490.9732 408.1388,-477.4684"/>
<polygon fill="#191970" stroke="#191970" points="411.5251,-478.3822 411.4438,-467.7876 404.9005,-476.1205 411.5251,-478.3822"/>
</g>
</g>
</svg>
