<?xml version="1.0" encoding="UTF-8" standalone="no"?>
<!DOCTYPE svg PUBLIC "-//W3C//DTD SVG 1.1//EN"
 "http://www.w3.org/Graphics/SVG/1.1/DTD/svg11.dtd">
<!-- Generated by graphviz version 2.40.1 (20161225.0304)
 -->
<!-- Title: esp&#45;open&#45;lwip/include/lwip/ip_frag.h Pages: 1 -->
<svg width="280pt" height="106pt"
 viewBox="0.00 0.00 280.00 106.00" xmlns="http://www.w3.org/2000/svg" xmlns:xlink="http://www.w3.org/1999/xlink">
<g id="graph0" class="graph" transform="scale(1 1) rotate(0) translate(4 102)">
<title>esp&#45;open&#45;lwip/include/lwip/ip_frag.h</title>
<polygon fill="#ffffff" stroke="transparent" points="-4,4 -4,-102 276,-102 276,4 -4,4"/>
<!-- Node20 -->
<g id="node1" class="node">
<title>Node20</title>
<polygon fill="#bfbfbf" stroke="#000000" points="91.5,-67.5 91.5,-97.5 180.5,-97.5 180.5,-67.5 91.5,-67.5"/>
<text text-anchor="start" x="99.5" y="-85.5" font-family="Helvetica,sans-Serif" font-size="10.00" fill="#000000">esp&#45;open&#45;lwip/include</text>
<text text-anchor="middle" x="136" y="-74.5" font-family="Helvetica,sans-Serif" font-size="10.00" fill="#000000">/lwip/ip_frag.h</text>
</g>
<!-- Node21 -->
<g id="node2" class="node">
<title>Node21</title>
<g id="a_node2"><a xlink:href="ip_8c.html" target="_top" xlink:title="esp&#45;open&#45;lwip/lwip\l/core/ipv4/ip.c">
<polygon fill="#ffffff" stroke="#000000" points="0,-.5 0,-30.5 78,-30.5 78,-.5 0,-.5"/>
<text text-anchor="start" x="8" y="-18.5" font-family="Helvetica,sans-Serif" font-size="10.00" fill="#000000">esp&#45;open&#45;lwip/lwip</text>
<text text-anchor="middle" x="39" y="-7.5" font-family="Helvetica,sans-Serif" font-size="10.00" fill="#000000">/core/ipv4/ip.c</text>
</a>
</g>
</g>
<!-- Node20&#45;&gt;Node21 -->
<g id="edge1" class="edge">
<title>Node20&#45;&gt;Node21</title>
<path fill="none" stroke="#191970" d="M105.3754,-61.3469C90.9422,-51.3776 74.0533,-39.7121 60.9237,-30.6432"/>
<polygon fill="#191970" stroke="#191970" points="103.772,-64.4932 113.9892,-67.2967 107.7503,-58.7335 103.772,-64.4932"/>
</g>
<!-- Node22 -->
<g id="node3" class="node">
<title>Node22</title>
<g id="a_node3"><a xlink:href="ip__frag_8c.html" target="_top" xlink:title="esp&#45;open&#45;lwip/lwip\l/core/ipv4/ip_frag.c">
<polygon fill="#ffffff" stroke="#000000" points="96,-.5 96,-30.5 176,-30.5 176,-.5 96,-.5"/>
<text text-anchor="start" x="104" y="-18.5" font-family="Helvetica,sans-Serif" font-size="10.00" fill="#000000">esp&#45;open&#45;lwip/lwip</text>
<text text-anchor="middle" x="136" y="-7.5" font-family="Helvetica,sans-Serif" font-size="10.00" fill="#000000">/core/ipv4/ip_frag.c</text>
</a>
</g>
</g>
<!-- Node20&#45;&gt;Node22 -->
<g id="edge2" class="edge">
<title>Node20&#45;&gt;Node22</title>
<path fill="none" stroke="#191970" d="M136,-57.0249C136,-48.128 136,-38.4287 136,-30.6432"/>
<polygon fill="#191970" stroke="#191970" points="132.5001,-57.2966 136,-67.2967 139.5001,-57.2967 132.5001,-57.2966"/>
</g>
<!-- Node23 -->
<g id="node4" class="node">
<title>Node23</title>
<g id="a_node4"><a xlink:href="memp_8c.html" target="_top" xlink:title="esp&#45;open&#45;lwip/lwip\l/core/memp.c">
<polygon fill="#ffffff" stroke="#000000" points="194,-.5 194,-30.5 272,-30.5 272,-.5 194,-.5"/>
<text text-anchor="start" x="202" y="-18.5" font-family="Helvetica,sans-Serif" font-size="10.00" fill="#000000">esp&#45;open&#45;lwip/lwip</text>
<text text-anchor="middle" x="233" y="-7.5" font-family="Helvetica,sans-Serif" font-size="10.00" fill="#000000">/core/memp.c</text>
</a>
</g>
</g>
<!-- Node20&#45;&gt;Node23 -->
<g id="edge3" class="edge">
<title>Node20&#45;&gt;Node23</title>
<path fill="none" stroke="#191970" d="M166.6246,-61.3469C181.0578,-51.3776 197.9467,-39.7121 211.0763,-30.6432"/>
<polygon fill="#191970" stroke="#191970" points="164.2497,-58.7335 158.0108,-67.2967 168.228,-64.4932 164.2497,-58.7335"/>
</g>
</g>
</svg>
