<?xml version="1.0" encoding="UTF-8" standalone="no"?>
<!DOCTYPE svg PUBLIC "-//W3C//DTD SVG 1.1//EN"
 "http://www.w3.org/Graphics/SVG/1.1/DTD/svg11.dtd">
<!-- Generated by graphviz version 2.40.1 (20161225.0304)
 -->
<!-- Title: kmp_request_send Pages: 1 -->
<svg width="328pt" height="39pt"
 viewBox="0.00 0.00 328.00 39.00" xmlns="http://www.w3.org/2000/svg" xmlns:xlink="http://www.w3.org/1999/xlink">
<g id="graph0" class="graph" transform="scale(1 1) rotate(0) translate(4 35)">
<title>kmp_request_send</title>
<polygon fill="#ffffff" stroke="transparent" points="-4,4 -4,-35 324,-35 324,4 -4,4"/>
<!-- Node292 -->
<g id="node1" class="node">
<title>Node292</title>
<polygon fill="#bfbfbf" stroke="#000000" points="0,-6 0,-25 80,-25 80,-6 0,-6"/>
<text text-anchor="middle" x="40" y="-13" font-family="Helvetica,sans-Serif" font-size="10.00" fill="#000000">kmp_request_send</text>
</g>
<!-- Node293 -->
<g id="node2" class="node">
<title>Node293</title>
<g id="a_node2"><a xlink:href="kmp__request_8c.html#a0977a4640a97d389ac3b0fef0ba7a9b6" target="_top" xlink:title="kmp_receive_timeout\l_timer_func">
<polygon fill="#ffffff" stroke="#000000" points="116,-.5 116,-30.5 204,-30.5 204,-.5 116,-.5"/>
<text text-anchor="start" x="124" y="-18.5" font-family="Helvetica,sans-Serif" font-size="10.00" fill="#000000">kmp_receive_timeout</text>
<text text-anchor="middle" x="160" y="-7.5" font-family="Helvetica,sans-Serif" font-size="10.00" fill="#000000">_timer_func</text>
</a>
</g>
</g>
<!-- Node292&#45;&gt;Node293 -->
<g id="edge1" class="edge">
<title>Node292&#45;&gt;Node293</title>
<path fill="none" stroke="#191970" d="M90.4344,-15.5C98.8935,-15.5 107.613,-15.5 115.8968,-15.5"/>
<polygon fill="#191970" stroke="#191970" points="90.2921,-12.0001 80.2921,-15.5 90.2921,-19.0001 90.2921,-12.0001"/>
</g>
<!-- Node294 -->
<g id="node3" class="node">
<title>Node294</title>
<g id="a_node3"><a xlink:href="kmp__request_8h.html#a3b022dcdc832786eb06126b5e6879604" target="_top" xlink:title="kmp_request_send">
<polygon fill="#ffffff" stroke="#000000" points="240,-6 240,-25 320,-25 320,-6 240,-6"/>
<text text-anchor="middle" x="280" y="-13" font-family="Helvetica,sans-Serif" font-size="10.00" fill="#000000">kmp_request_send</text>
</a>
</g>
</g>
<!-- Node293&#45;&gt;Node294 -->
<g id="edge2" class="edge">
<title>Node293&#45;&gt;Node294</title>
<path fill="none" stroke="#191970" d="M214.1013,-8.7791C222.8076,-8.693 231.6812,-8.798 239.9792,-9.0942"/>
<polygon fill="#191970" stroke="#191970" points="213.935,-5.2815 204.0022,-8.9679 214.0659,-12.2803 213.935,-5.2815"/>
</g>
<!-- Node294&#45;&gt;Node293 -->
<g id="edge3" class="edge">
<title>Node294&#45;&gt;Node293</title>
<path fill="none" stroke="#191970" d="M229.7365,-22.1704C221.1896,-22.3113 212.3719,-22.2652 204.0022,-22.0321"/>
<polygon fill="#191970" stroke="#191970" points="230.073,-25.6629 239.9792,-21.9058 229.8921,-18.6653 230.073,-25.6629"/>
</g>
</g>
</svg>
