<?xml version="1.0" encoding="UTF-8" standalone="no"?>
<!DOCTYPE svg PUBLIC "-//W3C//DTD SVG 1.1//EN"
 "http://www.w3.org/Graphics/SVG/1.1/DTD/svg11.dtd">
<!-- Generated by graphviz version 2.40.1 (20161225.0304)
 -->
<!-- Title: kmp_fifo_put Pages: 1 -->
<svg width="360pt" height="28pt"
 viewBox="0.00 0.00 360.00 28.00" xmlns="http://www.w3.org/2000/svg" xmlns:xlink="http://www.w3.org/1999/xlink">
<g id="graph0" class="graph" transform="scale(1 1) rotate(0) translate(4 24)">
<title>kmp_fifo_put</title>
<polygon fill="#ffffff" stroke="transparent" points="-4,4 -4,-24 356,-24 356,4 -4,4"/>
<!-- Node17 -->
<g id="node1" class="node">
<title>Node17</title>
<polygon fill="#bfbfbf" stroke="#000000" points="0,-.5 0,-19.5 59,-19.5 59,-.5 0,-.5"/>
<text text-anchor="middle" x="29.5" y="-7.5" font-family="Helvetica,sans-Serif" font-size="10.00" fill="#000000">kmp_fifo_put</text>
</g>
<!-- Node18 -->
<g id="node2" class="node">
<title>Node18</title>
<g id="a_node2"><a xlink:href="uart_8c.html#a899cd55c7d84717f3e869e4ee5bfda84" target="_top" xlink:title="uart0_rx_intr_handler">
<polygon fill="#ffffff" stroke="#000000" points="95,-.5 95,-19.5 183,-19.5 183,-.5 95,-.5"/>
<text text-anchor="middle" x="139" y="-7.5" font-family="Helvetica,sans-Serif" font-size="10.00" fill="#000000">uart0_rx_intr_handler</text>
</a>
</g>
</g>
<!-- Node17&#45;&gt;Node18 -->
<g id="edge1" class="edge">
<title>Node17&#45;&gt;Node18</title>
<path fill="none" stroke="#191970" d="M69.3419,-10C77.6627,-10 86.4808,-10 94.9441,-10"/>
<polygon fill="#191970" stroke="#191970" points="69.1323,-6.5001 59.1323,-10 69.1322,-13.5001 69.1323,-6.5001"/>
</g>
<!-- Node19 -->
<g id="node3" class="node">
<title>Node19</title>
<g id="a_node3"><a xlink:href="uart_8c.html#a489b77b74dfee22fd4f0c5323ab44da6" target="_top" xlink:title="uart_config">
<polygon fill="#ffffff" stroke="#000000" points="219,-.5 219,-19.5 273,-19.5 273,-.5 219,-.5"/>
<text text-anchor="middle" x="246" y="-7.5" font-family="Helvetica,sans-Serif" font-size="10.00" fill="#000000">uart_config</text>
</a>
</g>
</g>
<!-- Node18&#45;&gt;Node19 -->
<g id="edge2" class="edge">
<title>Node18&#45;&gt;Node19</title>
<path fill="none" stroke="#191970" d="M193.1506,-10C202.0558,-10 210.937,-10 218.807,-10"/>
<polygon fill="#191970" stroke="#191970" points="193.1388,-6.5001 183.1388,-10 193.1387,-13.5001 193.1388,-6.5001"/>
</g>
<!-- Node20 -->
<g id="node4" class="node">
<title>Node20</title>
<g id="a_node4"><a xlink:href="uart_8h.html#a1fdfa60721412bedfeb7be0ebc4d1700" target="_top" xlink:title="uart_init">
<polygon fill="#ffffff" stroke="#000000" points="309,-.5 309,-19.5 352,-19.5 352,-.5 309,-.5"/>
<text text-anchor="middle" x="330.5" y="-7.5" font-family="Helvetica,sans-Serif" font-size="10.00" fill="#000000">uart_init</text>
</a>
</g>
</g>
<!-- Node19&#45;&gt;Node20 -->
<g id="edge3" class="edge">
<title>Node19&#45;&gt;Node20</title>
<path fill="none" stroke="#191970" d="M283.2902,-10C292.0768,-10 301.1536,-10 308.9721,-10"/>
<polygon fill="#191970" stroke="#191970" points="283.2015,-6.5001 273.2015,-10 283.2014,-13.5001 283.2015,-6.5001"/>
</g>
</g>
</svg>
