<?xml version="1.0" encoding="UTF-8" standalone="no"?>
<!DOCTYPE svg PUBLIC "-//W3C//DTD SVG 1.1//EN"
 "http://www.w3.org/Graphics/SVG/1.1/DTD/svg11.dtd">
<!-- Generated by graphviz version 2.40.1 (20161225.0304)
 -->
<!-- Title: kmp_get_register_timer_func Pages: 1 -->
<svg width="429pt" height="104pt"
 viewBox="0.00 0.00 429.00 104.00" xmlns="http://www.w3.org/2000/svg" xmlns:xlink="http://www.w3.org/1999/xlink">
<g id="graph0" class="graph" transform="scale(1 1) rotate(0) translate(4 100)">
<title>kmp_get_register_timer_func</title>
<polygon fill="#ffffff" stroke="transparent" points="-4,4 -4,-100 425,-100 425,4 -4,4"/>
<!-- Node47 -->
<g id="node1" class="node">
<title>Node47</title>
<polygon fill="#bfbfbf" stroke="#000000" points="0,-19.5 0,-38.5 114,-38.5 114,-19.5 0,-19.5"/>
<text text-anchor="middle" x="57" y="-26.5" font-family="Helvetica,sans-Serif" font-size="10.00" fill="#000000">kmp_get_register_timer_func</text>
</g>
<!-- Node48 -->
<g id="node2" class="node">
<title>Node48</title>
<g id="a_node2"><a xlink:href="kmp_8c.html#aff9c217307fb9210d301ba14bc2b5707" target="_top" xlink:title="kmp_get_register">
<polygon fill="#ffffff" stroke="#000000" points="150,-38.5 150,-57.5 224,-57.5 224,-38.5 150,-38.5"/>
<text text-anchor="middle" x="187" y="-45.5" font-family="Helvetica,sans-Serif" font-size="10.00" fill="#000000">kmp_get_register</text>
</a>
</g>
</g>
<!-- Node47&#45;&gt;Node48 -->
<g id="edge1" class="edge">
<title>Node47&#45;&gt;Node48</title>
<path fill="none" stroke="#191970" d="M114.0199,-37.3337C122.6531,-38.5955 131.477,-39.8851 139.8699,-41.1118"/>
<polygon fill="#191970" stroke="#191970" points="139.4508,-44.5876 149.8519,-42.5707 140.4632,-37.6612 139.4508,-44.5876"/>
</g>
<!-- Node52 -->
<g id="node6" class="node">
<title>Node52</title>
<g id="a_node6"><a xlink:href="uart_8c.html#a87f1c1c2a25d4336eb804da28ed99f7e" target="_top" xlink:title="uart0_tx_buffer">
<polygon fill="#ffffff" stroke="#000000" points="153.5,-.5 153.5,-19.5 220.5,-19.5 220.5,-.5 153.5,-.5"/>
<text text-anchor="middle" x="187" y="-7.5" font-family="Helvetica,sans-Serif" font-size="10.00" fill="#000000">uart0_tx_buffer</text>
</a>
</g>
</g>
<!-- Node47&#45;&gt;Node52 -->
<g id="edge5" class="edge">
<title>Node47&#45;&gt;Node52</title>
<path fill="none" stroke="#191970" d="M114.0199,-20.6663C123.7351,-19.2464 133.6917,-17.7912 143.0039,-16.4302"/>
<polygon fill="#191970" stroke="#191970" points="143.8079,-19.85 153.1966,-14.9405 142.7956,-12.9235 143.8079,-19.85"/>
</g>
<!-- Node49 -->
<g id="node3" class="node">
<title>Node49</title>
<g id="a_node3"><a xlink:href="kmp_8c.html#a799f8c5be2e9dd312ca86e43206634b9" target="_top" xlink:title="kmp_byte_stuff">
<polygon fill="#ffffff" stroke="#000000" points="264,-76.5 264,-95.5 331,-95.5 331,-76.5 264,-76.5"/>
<text text-anchor="middle" x="297.5" y="-83.5" font-family="Helvetica,sans-Serif" font-size="10.00" fill="#000000">kmp_byte_stuff</text>
</a>
</g>
</g>
<!-- Node48&#45;&gt;Node49 -->
<g id="edge2" class="edge">
<title>Node48&#45;&gt;Node49</title>
<path fill="none" stroke="#191970" d="M214.8838,-57.589C228.494,-62.2694 245.0682,-67.9692 259.7891,-73.0315"/>
<polygon fill="#191970" stroke="#191970" points="259.0304,-76.4718 269.6251,-76.4141 261.3069,-69.8522 259.0304,-76.4718"/>
</g>
<!-- Node50 -->
<g id="node4" class="node">
<title>Node50</title>
<g id="a_node4"><a xlink:href="kmp_8c.html#a5245dd3f5d04db2e46786675e7ae97f8" target="_top" xlink:title="kmp_crc16">
<polygon fill="#ffffff" stroke="#000000" points="271,-38.5 271,-57.5 324,-57.5 324,-38.5 271,-38.5"/>
<text text-anchor="middle" x="297.5" y="-45.5" font-family="Helvetica,sans-Serif" font-size="10.00" fill="#000000">kmp_crc16</text>
</a>
</g>
</g>
<!-- Node48&#45;&gt;Node50 -->
<g id="edge3" class="edge">
<title>Node48&#45;&gt;Node50</title>
<path fill="none" stroke="#191970" d="M224.1023,-48C235.8151,-48 248.752,-48 260.4604,-48"/>
<polygon fill="#191970" stroke="#191970" points="260.7973,-51.5001 270.7973,-48 260.7972,-44.5001 260.7973,-51.5001"/>
</g>
<!-- Node51 -->
<g id="node5" class="node">
<title>Node51</title>
<g id="a_node5"><a xlink:href="utils_8c.html#a8d9e1de95e2d6d103108a4b0ebf4d923" target="_top" xlink:title="ccit_crc16">
<polygon fill="#ffffff" stroke="#000000" points="371,-38.5 371,-57.5 421,-57.5 421,-38.5 371,-38.5"/>
<text text-anchor="middle" x="396" y="-45.5" font-family="Helvetica,sans-Serif" font-size="10.00" fill="#000000">ccit_crc16</text>
</a>
</g>
</g>
<!-- Node50&#45;&gt;Node51 -->
<g id="edge4" class="edge">
<title>Node50&#45;&gt;Node51</title>
<path fill="none" stroke="#191970" d="M324.1555,-48C335.3484,-48 348.5292,-48 360.5244,-48"/>
<polygon fill="#191970" stroke="#191970" points="360.6808,-51.5001 370.6808,-48 360.6808,-44.5001 360.6808,-51.5001"/>
</g>
<!-- Node53 -->
<g id="node7" class="node">
<title>Node53</title>
<g id="a_node7"><a xlink:href="uart_8c.html#a40bca7ca9b269f93bc9f17924a38fbe0" target="_top" xlink:title="uart_tx_one_char">
<polygon fill="#ffffff" stroke="#000000" points="260,-.5 260,-19.5 335,-19.5 335,-.5 260,-.5"/>
<text text-anchor="middle" x="297.5" y="-7.5" font-family="Helvetica,sans-Serif" font-size="10.00" fill="#000000">uart_tx_one_char</text>
</a>
</g>
</g>
<!-- Node52&#45;&gt;Node53 -->
<g id="edge6" class="edge">
<title>Node52&#45;&gt;Node53</title>
<path fill="none" stroke="#191970" d="M220.7541,-10C229.7964,-10 239.7488,-10 249.4047,-10"/>
<polygon fill="#191970" stroke="#191970" points="249.7089,-13.5001 259.7088,-10 249.7088,-6.5001 249.7089,-13.5001"/>
</g>
</g>
</svg>
