<?xml version="1.0" encoding="UTF-8" standalone="no"?>
<!DOCTYPE svg PUBLIC "-//W3C//DTD SVG 1.1//EN"
 "http://www.w3.org/Graphics/SVG/1.1/DTD/svg11.dtd">
<!-- Generated by graphviz version 2.40.1 (20161225.0304)
 -->
<!-- Title: led_blink Pages: 1 -->
<svg width="353pt" height="76pt"
 viewBox="0.00 0.00 353.00 75.50" xmlns="http://www.w3.org/2000/svg" xmlns:xlink="http://www.w3.org/1999/xlink">
<g id="graph0" class="graph" transform="scale(1 1) rotate(0) translate(4 71.5)">
<title>led_blink</title>
<polygon fill="#ffffff" stroke="transparent" points="-4,4 -4,-71.5 349,-71.5 349,4 -4,4"/>
<!-- Node0 -->
<g id="node1" class="node">
<title>Node0</title>
<polygon fill="#bfbfbf" stroke="#000000" points="0,-28 0,-47 46,-47 46,-28 0,-28"/>
<text text-anchor="middle" x="23" y="-35" font-family="Helvetica,sans-Serif" font-size="10.00" fill="#000000">led_blink</text>
</g>
<!-- Node1 -->
<g id="node2" class="node">
<title>Node1</title>
<g id="a_node2"><a xlink:href="led_8c.html#a0a23edee5e1db0cd2928c18a42ffe96f" target="_top" xlink:title="led_on">
<polygon fill="#ffffff" stroke="#000000" points="200,-48 200,-67 239,-67 239,-48 200,-48"/>
<text text-anchor="middle" x="219.5" y="-55" font-family="Helvetica,sans-Serif" font-size="10.00" fill="#000000">led_on</text>
</a>
</g>
</g>
<!-- Node0&#45;&gt;Node1 -->
<g id="edge1" class="edge">
<title>Node0&#45;&gt;Node1</title>
<path fill="none" stroke="#191970" d="M46.3128,-39.8728C82.0723,-43.5124 150.4392,-50.4709 189.7322,-54.4702"/>
<polygon fill="#191970" stroke="#191970" points="189.4561,-57.9601 199.7591,-55.4908 190.165,-50.9961 189.4561,-57.9601"/>
</g>
<!-- Node3 -->
<g id="node4" class="node">
<title>Node3</title>
<g id="a_node4"><a xlink:href="led_8c.html#af6e74a041f4ed0ac79f31a03c99733de" target="_top" xlink:title="led_single_blink_off\l_timer_func">
<polygon fill="#ffffff" stroke="#000000" points="82,-.5 82,-30.5 164,-30.5 164,-.5 82,-.5"/>
<text text-anchor="start" x="90" y="-18.5" font-family="Helvetica,sans-Serif" font-size="10.00" fill="#000000">led_single_blink_off</text>
<text text-anchor="middle" x="123" y="-7.5" font-family="Helvetica,sans-Serif" font-size="10.00" fill="#000000">_timer_func</text>
</a>
</g>
</g>
<!-- Node0&#45;&gt;Node3 -->
<g id="edge3" class="edge">
<title>Node0&#45;&gt;Node3</title>
<path fill="none" stroke="#191970" d="M46.1934,-32.3975C53.9897,-30.6823 63.0206,-28.6955 72.0914,-26.6999"/>
<polygon fill="#191970" stroke="#191970" points="72.8789,-30.1104 81.8933,-24.5435 71.3748,-23.2739 72.8789,-30.1104"/>
</g>
<!-- Node2 -->
<g id="node3" class="node">
<title>Node2</title>
<g id="a_node3"><a xlink:href="gpio_8h.html#a83bac74ff5b2158e0c86da73ada29718" target="_top" xlink:title="gpio_output_set">
<polygon fill="#ffffff" stroke="#000000" points="275,-28 275,-47 345,-47 345,-28 275,-28"/>
<text text-anchor="middle" x="310" y="-35" font-family="Helvetica,sans-Serif" font-size="10.00" fill="#000000">gpio_output_set</text>
</a>
</g>
</g>
<!-- Node1&#45;&gt;Node2 -->
<g id="edge2" class="edge">
<title>Node1&#45;&gt;Node2</title>
<path fill="none" stroke="#191970" d="M239.1372,-53.1603C246.7726,-51.4729 255.8588,-49.4649 264.935,-47.4591"/>
<polygon fill="#191970" stroke="#191970" points="265.7016,-50.8742 274.7107,-45.2987 264.191,-44.0392 265.7016,-50.8742"/>
</g>
<!-- Node4 -->
<g id="node5" class="node">
<title>Node4</title>
<g id="a_node5"><a xlink:href="led_8c.html#a7ef0b27e501c77cd25b8bb7a2de6d8bd" target="_top" xlink:title="led_off">
<polygon fill="#ffffff" stroke="#000000" points="200,-9 200,-28 239,-28 239,-9 200,-9"/>
<text text-anchor="middle" x="219.5" y="-16" font-family="Helvetica,sans-Serif" font-size="10.00" fill="#000000">led_off</text>
</a>
</g>
</g>
<!-- Node3&#45;&gt;Node4 -->
<g id="edge4" class="edge">
<title>Node3&#45;&gt;Node4</title>
<path fill="none" stroke="#191970" d="M164.2046,-16.781C172.8244,-17.0489 181.7508,-17.3264 189.8513,-17.5783"/>
<polygon fill="#191970" stroke="#191970" points="189.8251,-21.0791 199.9291,-17.8916 190.0427,-14.0824 189.8251,-21.0791"/>
</g>
<!-- Node4&#45;&gt;Node2 -->
<g id="edge5" class="edge">
<title>Node4&#45;&gt;Node2</title>
<path fill="none" stroke="#191970" d="M239.1372,-22.6227C246.6914,-24.2087 255.6656,-26.0928 264.6453,-27.978"/>
<polygon fill="#191970" stroke="#191970" points="264.2049,-31.4618 274.7107,-30.0912 265.6432,-24.6111 264.2049,-31.4618"/>
</g>
</g>
</svg>
