<?xml version="1.0" encoding="UTF-8" standalone="no"?>
<!DOCTYPE svg PUBLIC "-//W3C//DTD SVG 1.1//EN"
 "http://www.w3.org/Graphics/SVG/1.1/DTD/svg11.dtd">
<!-- Generated by graphviz version 2.40.1 (20161225.0304)
 -->
<!-- Title: led_pattern_a Pages: 1 -->
<svg width="379pt" height="66pt"
 viewBox="0.00 0.00 379.00 66.00" xmlns="http://www.w3.org/2000/svg" xmlns:xlink="http://www.w3.org/1999/xlink">
<g id="graph0" class="graph" transform="scale(1 1) rotate(0) translate(4 62)">
<title>led_pattern_a</title>
<polygon fill="#ffffff" stroke="transparent" points="-4,4 -4,-62 375,-62 375,4 -4,4"/>
<!-- Node135 -->
<g id="node1" class="node">
<title>Node135</title>
<polygon fill="#bfbfbf" stroke="#000000" points="0,-19.5 0,-38.5 62,-38.5 62,-19.5 0,-19.5"/>
<text text-anchor="middle" x="31" y="-26.5" font-family="Helvetica,sans-Serif" font-size="10.00" fill="#000000">led_pattern_a</text>
</g>
<!-- Node136 -->
<g id="node2" class="node">
<title>Node136</title>
<g id="a_node2"><a xlink:href="led_8c.html#af6a79b211d188e643a4f1cf7552ac7ee" target="_top" xlink:title="led_blinker_timer_func">
<polygon fill="#ffffff" stroke="#000000" points="98,-19.5 98,-38.5 190,-38.5 190,-19.5 98,-19.5"/>
<text text-anchor="middle" x="144" y="-26.5" font-family="Helvetica,sans-Serif" font-size="10.00" fill="#000000">led_blinker_timer_func</text>
</a>
</g>
</g>
<!-- Node135&#45;&gt;Node136 -->
<g id="edge1" class="edge">
<title>Node135&#45;&gt;Node136</title>
<path fill="none" stroke="#191970" d="M62.1769,-29C70.0651,-29 78.7836,-29 87.5021,-29"/>
<polygon fill="#191970" stroke="#191970" points="87.6871,-32.5001 97.687,-29 87.687,-25.5001 87.6871,-32.5001"/>
</g>
<!-- Node137 -->
<g id="node3" class="node">
<title>Node137</title>
<g id="a_node3"><a xlink:href="led_8c.html#a7ef0b27e501c77cd25b8bb7a2de6d8bd" target="_top" xlink:title="led_off">
<polygon fill="#ffffff" stroke="#000000" points="226,-38.5 226,-57.5 265,-57.5 265,-38.5 226,-38.5"/>
<text text-anchor="middle" x="245.5" y="-45.5" font-family="Helvetica,sans-Serif" font-size="10.00" fill="#000000">led_off</text>
</a>
</g>
</g>
<!-- Node136&#45;&gt;Node137 -->
<g id="edge2" class="edge">
<title>Node136&#45;&gt;Node137</title>
<path fill="none" stroke="#191970" d="M190.2947,-37.666C199.0196,-39.2992 207.9216,-40.9656 215.9583,-42.47"/>
<polygon fill="#191970" stroke="#191970" points="215.464,-45.9382 225.9373,-44.338 216.752,-39.0577 215.464,-45.9382"/>
</g>
<!-- Node139 -->
<g id="node5" class="node">
<title>Node139</title>
<g id="a_node5"><a xlink:href="led_8c.html#a0a23edee5e1db0cd2928c18a42ffe96f" target="_top" xlink:title="led_on">
<polygon fill="#ffffff" stroke="#000000" points="226,-.5 226,-19.5 265,-19.5 265,-.5 226,-.5"/>
<text text-anchor="middle" x="245.5" y="-7.5" font-family="Helvetica,sans-Serif" font-size="10.00" fill="#000000">led_on</text>
</a>
</g>
</g>
<!-- Node136&#45;&gt;Node139 -->
<g id="edge4" class="edge">
<title>Node136&#45;&gt;Node139</title>
<path fill="none" stroke="#191970" d="M190.2947,-20.334C199.0196,-18.7008 207.9216,-17.0344 215.9583,-15.53"/>
<polygon fill="#191970" stroke="#191970" points="216.752,-18.9423 225.9373,-13.662 215.464,-12.0618 216.752,-18.9423"/>
</g>
<!-- Node138 -->
<g id="node4" class="node">
<title>Node138</title>
<g id="a_node4"><a xlink:href="gpio_8h.html#a83bac74ff5b2158e0c86da73ada29718" target="_top" xlink:title="gpio_output_set">
<polygon fill="#ffffff" stroke="#000000" points="301,-19.5 301,-38.5 371,-38.5 371,-19.5 301,-19.5"/>
<text text-anchor="middle" x="336" y="-26.5" font-family="Helvetica,sans-Serif" font-size="10.00" fill="#000000">gpio_output_set</text>
</a>
</g>
</g>
<!-- Node137&#45;&gt;Node138 -->
<g id="edge3" class="edge">
<title>Node137&#45;&gt;Node138</title>
<path fill="none" stroke="#191970" d="M265.1372,-43.8773C272.6914,-42.2913 281.6656,-40.4072 290.6453,-38.522"/>
<polygon fill="#191970" stroke="#191970" points="291.6432,-41.8889 300.7107,-36.4088 290.2049,-35.0382 291.6432,-41.8889"/>
</g>
<!-- Node139&#45;&gt;Node138 -->
<g id="edge5" class="edge">
<title>Node139&#45;&gt;Node138</title>
<path fill="none" stroke="#191970" d="M265.1372,-14.1227C272.6914,-15.7087 281.6656,-17.5928 290.6453,-19.478"/>
<polygon fill="#191970" stroke="#191970" points="290.2049,-22.9618 300.7107,-21.5912 291.6432,-16.1111 290.2049,-22.9618"/>
</g>
</g>
</svg>
