<?xml version="1.0" encoding="UTF-8" standalone="no"?>
<!DOCTYPE svg PUBLIC "-//W3C//DTD SVG 1.1//EN"
 "http://www.w3.org/Graphics/SVG/1.1/DTD/svg11.dtd">
<!-- Generated by graphviz version 2.40.1 (20161225.0304)
 -->
<!-- Title: led_single_blink_off_timer_func Pages: 1 -->
<svg width="271pt" height="39pt"
 viewBox="0.00 0.00 271.00 39.00" xmlns="http://www.w3.org/2000/svg" xmlns:xlink="http://www.w3.org/1999/xlink">
<g id="graph0" class="graph" transform="scale(1 1) rotate(0) translate(4 35)">
<title>led_single_blink_off_timer_func</title>
<polygon fill="#ffffff" stroke="transparent" points="-4,4 -4,-35 267,-35 267,4 -4,4"/>
<!-- Node178 -->
<g id="node1" class="node">
<title>Node178</title>
<polygon fill="#bfbfbf" stroke="#000000" points="0,-.5 0,-30.5 82,-30.5 82,-.5 0,-.5"/>
<text text-anchor="start" x="8" y="-18.5" font-family="Helvetica,sans-Serif" font-size="10.00" fill="#000000">led_single_blink_off</text>
<text text-anchor="middle" x="41" y="-7.5" font-family="Helvetica,sans-Serif" font-size="10.00" fill="#000000">_timer_func</text>
</g>
<!-- Node179 -->
<g id="node2" class="node">
<title>Node179</title>
<g id="a_node2"><a xlink:href="led_8c.html#a7ef0b27e501c77cd25b8bb7a2de6d8bd" target="_top" xlink:title="led_off">
<polygon fill="#ffffff" stroke="#000000" points="118,-6 118,-25 157,-25 157,-6 118,-6"/>
<text text-anchor="middle" x="137.5" y="-13" font-family="Helvetica,sans-Serif" font-size="10.00" fill="#000000">led_off</text>
</a>
</g>
</g>
<!-- Node178&#45;&gt;Node179 -->
<g id="edge1" class="edge">
<title>Node178&#45;&gt;Node179</title>
<path fill="none" stroke="#191970" d="M82.2046,-15.5C90.8244,-15.5 99.7508,-15.5 107.8513,-15.5"/>
<polygon fill="#191970" stroke="#191970" points="107.9291,-19.0001 117.9291,-15.5 107.9291,-12.0001 107.9291,-19.0001"/>
</g>
<!-- Node180 -->
<g id="node3" class="node">
<title>Node180</title>
<g id="a_node3"><a xlink:href="gpio_8h.html#a83bac74ff5b2158e0c86da73ada29718" target="_top" xlink:title="gpio_output_set">
<polygon fill="#ffffff" stroke="#000000" points="193,-6 193,-25 263,-25 263,-6 193,-6"/>
<text text-anchor="middle" x="228" y="-13" font-family="Helvetica,sans-Serif" font-size="10.00" fill="#000000">gpio_output_set</text>
</a>
</g>
</g>
<!-- Node179&#45;&gt;Node180 -->
<g id="edge2" class="edge">
<title>Node179&#45;&gt;Node180</title>
<path fill="none" stroke="#191970" d="M157.1372,-15.5C164.6914,-15.5 173.6656,-15.5 182.6453,-15.5"/>
<polygon fill="#191970" stroke="#191970" points="182.7107,-19.0001 192.7107,-15.5 182.7106,-12.0001 182.7107,-19.0001"/>
</g>
</g>
</svg>
