<?xml version="1.0" encoding="UTF-8" standalone="no"?>
<!DOCTYPE svg PUBLIC "-//W3C//DTD SVG 1.1//EN"
 "http://www.w3.org/Graphics/SVG/1.1/DTD/svg11.dtd">
<!-- Generated by graphviz version 2.40.1 (20161225.0304)
 -->
<!-- Title: mqtt_msg_unsubscribe Pages: 1 -->
<svg width="223pt" height="66pt"
 viewBox="0.00 0.00 223.00 66.00" xmlns="http://www.w3.org/2000/svg" xmlns:xlink="http://www.w3.org/1999/xlink">
<g id="graph0" class="graph" transform="scale(1 1) rotate(0) translate(4 62)">
<title>mqtt_msg_unsubscribe</title>
<polygon fill="#ffffff" stroke="transparent" points="-4,4 -4,-62 219,-62 219,4 -4,4"/>
<!-- Node295 -->
<g id="node1" class="node">
<title>Node295</title>
<polygon fill="#bfbfbf" stroke="#000000" points="0,-19.5 0,-38.5 94,-38.5 94,-19.5 0,-19.5"/>
<text text-anchor="middle" x="47" y="-26.5" font-family="Helvetica,sans-Serif" font-size="10.00" fill="#000000">mqtt_msg_unsubscribe</text>
</g>
<!-- Node296 -->
<g id="node2" class="node">
<title>Node296</title>
<g id="a_node2"><a xlink:href="mqtt__msg_8h.html#affd61b4be51d1e29e51dfbc42489ba36" target="_top" xlink:title="mqtt_get_retain">
<polygon fill="#ffffff" stroke="#000000" points="138,-38.5 138,-57.5 207,-57.5 207,-38.5 138,-38.5"/>
<text text-anchor="middle" x="172.5" y="-45.5" font-family="Helvetica,sans-Serif" font-size="10.00" fill="#000000">mqtt_get_retain</text>
</a>
</g>
</g>
<!-- Node295&#45;&gt;Node296 -->
<g id="edge1" class="edge">
<title>Node295&#45;&gt;Node296</title>
<path fill="none" stroke="#191970" d="M104.0654,-37.6394C115.5375,-39.3762 127.2651,-41.1517 137.6975,-42.7311"/>
<polygon fill="#191970" stroke="#191970" points="104.4999,-34.1654 94.0886,-36.129 103.452,-41.0865 104.4999,-34.1654"/>
</g>
<!-- Node297 -->
<g id="node3" class="node">
<title>Node297</title>
<g id="a_node3"><a xlink:href="mqtt_8c.html#a7f28cd912dae4c1386c10026a267b579" target="_top" xlink:title="MQTT un&#45;subscibe function. ">
<polygon fill="#ffffff" stroke="#000000" points="130,-.5 130,-19.5 215,-19.5 215,-.5 130,-.5"/>
<text text-anchor="middle" x="172.5" y="-7.5" font-family="Helvetica,sans-Serif" font-size="10.00" fill="#000000">MQTT_UnSubscribe</text>
</a>
</g>
</g>
<!-- Node295&#45;&gt;Node297 -->
<g id="edge2" class="edge">
<title>Node295&#45;&gt;Node297</title>
<path fill="none" stroke="#191970" d="M104.0922,-20.3566C112.7032,-19.0529 121.4575,-17.7275 129.6994,-16.4798"/>
<polygon fill="#191970" stroke="#191970" points="103.452,-16.9135 94.0886,-21.871 104.4999,-23.8346 103.452,-16.9135"/>
</g>
</g>
</svg>
