<?xml version="1.0" encoding="UTF-8" standalone="no"?>
<!DOCTYPE svg PUBLIC "-//W3C//DTD SVG 1.1//EN"
 "http://www.w3.org/Graphics/SVG/1.1/DTD/svg11.dtd">
<!-- Generated by graphviz version 2.40.1 (20161225.0304)
 -->
<!-- Title: MQTT_Subscribe Pages: 1 -->
<svg width="445pt" height="294pt"
 viewBox="0.00 0.00 445.00 294.00" xmlns="http://www.w3.org/2000/svg" xmlns:xlink="http://www.w3.org/1999/xlink">
<g id="graph0" class="graph" transform="scale(1 1) rotate(0) translate(4 290)">
<title>MQTT_Subscribe</title>
<polygon fill="#ffffff" stroke="transparent" points="-4,4 -4,-290 441,-290 441,4 -4,4"/>
<!-- Node202 -->
<g id="node1" class="node">
<title>Node202</title>
<polygon fill="#bfbfbf" stroke="#000000" points="0,-57.5 0,-76.5 75,-76.5 75,-57.5 0,-57.5"/>
<text text-anchor="middle" x="37.5" y="-64.5" font-family="Helvetica,sans-Serif" font-size="10.00" fill="#000000">MQTT_Subscribe</text>
</g>
<!-- Node203 -->
<g id="node2" class="node">
<title>Node203</title>
<g id="a_node2"><a xlink:href="mqtt__msg_8h.html#adff62ede8c5069101032913d4434baad" target="_top" xlink:title="mqtt_msg_subscribe">
<polygon fill="#ffffff" stroke="#000000" points="111,-171.5 111,-190.5 197,-190.5 197,-171.5 111,-171.5"/>
<text text-anchor="middle" x="154" y="-178.5" font-family="Helvetica,sans-Serif" font-size="10.00" fill="#000000">mqtt_msg_subscribe</text>
</a>
</g>
</g>
<!-- Node202&#45;&gt;Node203 -->
<g id="edge1" class="edge">
<title>Node202&#45;&gt;Node203</title>
<path fill="none" stroke="#191970" d="M47.4327,-76.7196C67.2934,-96.1541 112.1123,-140.0112 136.8305,-164.1989"/>
<polygon fill="#191970" stroke="#191970" points="134.4972,-166.8126 144.0924,-171.305 139.3929,-161.8095 134.4972,-166.8126"/>
</g>
<!-- Node209 -->
<g id="node8" class="node">
<title>Node209</title>
<g id="a_node8"><a xlink:href="_meter_logger_2mqtt_2include_2queue_8h.html#acf070d5db9067c0b9598dec844313ae5" target="_top" xlink:title="QUEUE_Gets">
<polygon fill="#ffffff" stroke="#000000" points="122.5,-76.5 122.5,-95.5 185.5,-95.5 185.5,-76.5 122.5,-76.5"/>
<text text-anchor="middle" x="154" y="-83.5" font-family="Helvetica,sans-Serif" font-size="10.00" fill="#000000">QUEUE_Gets</text>
</a>
</g>
</g>
<!-- Node202&#45;&gt;Node209 -->
<g id="edge7" class="edge">
<title>Node202&#45;&gt;Node209</title>
<path fill="none" stroke="#191970" d="M75.0026,-73.1163C86.9549,-75.0656 100.2477,-77.2335 112.468,-79.2265"/>
<polygon fill="#191970" stroke="#191970" points="111.9948,-82.6955 122.4278,-80.8509 113.1216,-75.7868 111.9948,-82.6955"/>
</g>
<!-- Node214 -->
<g id="node13" class="node">
<title>Node214</title>
<g id="a_node13"><a xlink:href="_meter_logger_2mqtt_2include_2queue_8h.html#a0a04f14d06c5c3ee302764c5f3d7dc0c" target="_top" xlink:title="QUEUE_Puts">
<polygon fill="#ffffff" stroke="#000000" points="123,-38.5 123,-57.5 185,-57.5 185,-38.5 123,-38.5"/>
<text text-anchor="middle" x="154" y="-45.5" font-family="Helvetica,sans-Serif" font-size="10.00" fill="#000000">QUEUE_Puts</text>
</a>
</g>
</g>
<!-- Node202&#45;&gt;Node214 -->
<g id="edge12" class="edge">
<title>Node202&#45;&gt;Node214</title>
<path fill="none" stroke="#191970" d="M75.0026,-60.8837C87.0588,-58.9175 100.479,-56.7288 112.7865,-54.7215"/>
<polygon fill="#191970" stroke="#191970" points="113.5026,-58.151 122.8088,-53.087 112.3758,-51.2423 113.5026,-58.151"/>
</g>
<!-- Node217 -->
<g id="node16" class="node">
<title>Node217</title>
<g id="a_node16"><a xlink:href="user__interface_8h.html#adab1155f3a463f2b05a9bde65b37514f" target="_top" xlink:title="system_os_post">
<polygon fill="#ffffff" stroke="#000000" points="118.5,-.5 118.5,-19.5 189.5,-19.5 189.5,-.5 118.5,-.5"/>
<text text-anchor="middle" x="154" y="-7.5" font-family="Helvetica,sans-Serif" font-size="10.00" fill="#000000">system_os_post</text>
</a>
</g>
</g>
<!-- Node202&#45;&gt;Node217 -->
<g id="edge15" class="edge">
<title>Node202&#45;&gt;Node217</title>
<path fill="none" stroke="#191970" d="M55.1699,-57.4788C69.9639,-49.6008 91.6956,-38.2446 111,-29 114.623,-27.265 118.4424,-25.4948 122.2486,-23.7671"/>
<polygon fill="#191970" stroke="#191970" points="123.8621,-26.8798 131.5638,-19.6043 121.006,-20.4889 123.8621,-26.8798"/>
</g>
<!-- Node204 -->
<g id="node3" class="node">
<title>Node204</title>
<g id="a_node3"><a xlink:href="mqtt__msg_8c.html#aae7c66cc577ac90e9535edac4abc068c" target="_top" xlink:title="init_message">
<polygon fill="#ffffff" stroke="#000000" points="245.5,-266.5 245.5,-285.5 306.5,-285.5 306.5,-266.5 245.5,-266.5"/>
<text text-anchor="middle" x="276" y="-273.5" font-family="Helvetica,sans-Serif" font-size="10.00" fill="#000000">init_message</text>
</a>
</g>
</g>
<!-- Node203&#45;&gt;Node204 -->
<g id="edge2" class="edge">
<title>Node203&#45;&gt;Node204</title>
<path fill="none" stroke="#191970" d="M161.8967,-190.5151C175.2219,-206.0927 203.6065,-237.2745 233,-257 235.5604,-258.7183 238.3017,-260.3432 241.1146,-261.8649"/>
<polygon fill="#191970" stroke="#191970" points="239.6944,-265.0671 250.2099,-266.3618 242.7969,-258.7922 239.6944,-265.0671"/>
</g>
<!-- Node205 -->
<g id="node4" class="node">
<title>Node205</title>
<g id="a_node4"><a xlink:href="mqtt__msg_8c.html#a9a2fb8c67ff4b104dd46e72c9e97b710" target="_top" xlink:title="fail_message">
<polygon fill="#ffffff" stroke="#000000" points="245.5,-228.5 245.5,-247.5 306.5,-247.5 306.5,-228.5 245.5,-228.5"/>
<text text-anchor="middle" x="276" y="-235.5" font-family="Helvetica,sans-Serif" font-size="10.00" fill="#000000">fail_message</text>
</a>
</g>
</g>
<!-- Node203&#45;&gt;Node205 -->
<g id="edge3" class="edge">
<title>Node203&#45;&gt;Node205</title>
<path fill="none" stroke="#191970" d="M173.3967,-190.5454C189.3383,-198.3385 212.5465,-209.565 233,-219 236.8352,-220.7692 240.877,-222.5995 244.8852,-224.3939"/>
<polygon fill="#191970" stroke="#191970" points="243.5035,-227.6099 254.0634,-228.4702 246.3449,-221.2125 243.5035,-227.6099"/>
</g>
<!-- Node206 -->
<g id="node5" class="node">
<title>Node206</title>
<g id="a_node5"><a xlink:href="mqtt__msg_8c.html#ac59e26babd30c6c0ace9a174e75786f3" target="_top" xlink:title="append_message_id">
<polygon fill="#ffffff" stroke="#000000" points="233,-190.5 233,-209.5 319,-209.5 319,-190.5 233,-190.5"/>
<text text-anchor="middle" x="276" y="-197.5" font-family="Helvetica,sans-Serif" font-size="10.00" fill="#000000">append_message_id</text>
</a>
</g>
</g>
<!-- Node203&#45;&gt;Node206 -->
<g id="edge4" class="edge">
<title>Node203&#45;&gt;Node206</title>
<path fill="none" stroke="#191970" d="M197.0126,-187.6987C205.395,-189.0041 214.2751,-190.3871 222.9379,-191.7362"/>
<polygon fill="#191970" stroke="#191970" points="222.5451,-195.2172 232.9646,-193.2978 223.6223,-188.3005 222.5451,-195.2172"/>
</g>
<!-- Node207 -->
<g id="node6" class="node">
<title>Node207</title>
<g id="a_node6"><a xlink:href="mqtt__msg_8c.html#a207c99e2058080b97c21a348d693a560" target="_top" xlink:title="append_string">
<polygon fill="#ffffff" stroke="#000000" points="244,-152.5 244,-171.5 308,-171.5 308,-152.5 244,-152.5"/>
<text text-anchor="middle" x="276" y="-159.5" font-family="Helvetica,sans-Serif" font-size="10.00" fill="#000000">append_string</text>
</a>
</g>
</g>
<!-- Node203&#45;&gt;Node207 -->
<g id="edge5" class="edge">
<title>Node203&#45;&gt;Node207</title>
<path fill="none" stroke="#191970" d="M197.0126,-174.3013C208.898,-172.4503 221.784,-170.4435 233.6324,-168.5982"/>
<polygon fill="#191970" stroke="#191970" points="234.3842,-172.0234 243.7264,-167.0262 233.3069,-165.1068 234.3842,-172.0234"/>
</g>
<!-- Node208 -->
<g id="node7" class="node">
<title>Node208</title>
<g id="a_node7"><a xlink:href="mqtt__msg_8c.html#a356949afe8a334d5e91bddb4b2794921" target="_top" xlink:title="fini_message">
<polygon fill="#ffffff" stroke="#000000" points="245.5,-114.5 245.5,-133.5 306.5,-133.5 306.5,-114.5 245.5,-114.5"/>
<text text-anchor="middle" x="276" y="-121.5" font-family="Helvetica,sans-Serif" font-size="10.00" fill="#000000">fini_message</text>
</a>
</g>
</g>
<!-- Node203&#45;&gt;Node208 -->
<g id="edge6" class="edge">
<title>Node203&#45;&gt;Node208</title>
<path fill="none" stroke="#191970" d="M173.3967,-171.4546C189.3383,-163.6615 212.5465,-152.435 233,-143 236.8352,-141.2308 240.877,-139.4005 244.8852,-137.6061"/>
<polygon fill="#191970" stroke="#191970" points="246.3449,-140.7875 254.0634,-133.5298 243.5035,-134.3901 246.3449,-140.7875"/>
</g>
<!-- Node210 -->
<g id="node9" class="node">
<title>Node210</title>
<g id="a_node9"><a xlink:href="proto_8h.html#a4ce0ecd80c57cb13f47a2725036451af" target="_top" xlink:title="PROTO_ParseRb">
<polygon fill="#ffffff" stroke="#000000" points="237.5,-76.5 237.5,-95.5 314.5,-95.5 314.5,-76.5 237.5,-76.5"/>
<text text-anchor="middle" x="276" y="-83.5" font-family="Helvetica,sans-Serif" font-size="10.00" fill="#000000">PROTO_ParseRb</text>
</a>
</g>
</g>
<!-- Node209&#45;&gt;Node210 -->
<g id="edge8" class="edge">
<title>Node209&#45;&gt;Node210</title>
<path fill="none" stroke="#191970" d="M185.7356,-86C198.4615,-86 213.4145,-86 227.4491,-86"/>
<polygon fill="#191970" stroke="#191970" points="227.4613,-89.5001 237.4613,-86 227.4612,-82.5001 227.4613,-89.5001"/>
</g>
<!-- Node211 -->
<g id="node10" class="node">
<title>Node211</title>
<g id="a_node10"><a xlink:href="proto_8c.html#aef0525e6fb0717f1ae3816f5a59fbd08" target="_top" xlink:title="PROTO_Init">
<polygon fill="#ffffff" stroke="#000000" points="367.5,-124.5 367.5,-143.5 424.5,-143.5 424.5,-124.5 367.5,-124.5"/>
<text text-anchor="middle" x="396" y="-131.5" font-family="Helvetica,sans-Serif" font-size="10.00" fill="#000000">PROTO_Init</text>
</a>
</g>
</g>
<!-- Node210&#45;&gt;Node211 -->
<g id="edge9" class="edge">
<title>Node210&#45;&gt;Node211</title>
<path fill="none" stroke="#191970" d="M299.9954,-95.5982C317.9815,-102.7926 342.8176,-112.727 362.7225,-120.689"/>
<polygon fill="#191970" stroke="#191970" points="361.4615,-123.9542 372.0462,-124.4185 364.0613,-117.4548 361.4615,-123.9542"/>
</g>
<!-- Node212 -->
<g id="node11" class="node">
<title>Node212</title>
<g id="a_node11"><a xlink:href="ringbuf_8h.html#a2b4ae6481762403eec1f2072eb30217a" target="_top" xlink:title="get a character from ring buffer ">
<polygon fill="#ffffff" stroke="#000000" points="362.5,-86.5 362.5,-105.5 429.5,-105.5 429.5,-86.5 362.5,-86.5"/>
<text text-anchor="middle" x="396" y="-93.5" font-family="Helvetica,sans-Serif" font-size="10.00" fill="#000000">RINGBUF_Get</text>
</a>
</g>
</g>
<!-- Node210&#45;&gt;Node212 -->
<g id="edge10" class="edge">
<title>Node210&#45;&gt;Node212</title>
<path fill="none" stroke="#191970" d="M314.6293,-89.2191C326.6195,-90.2183 339.9194,-91.3266 352.2329,-92.3527"/>
<polygon fill="#191970" stroke="#191970" points="352.0378,-95.8485 362.2939,-93.1912 352.6192,-88.8727 352.0378,-95.8485"/>
</g>
<!-- Node213 -->
<g id="node12" class="node">
<title>Node213</title>
<g id="a_node12"><a xlink:href="proto_8c.html#ada6cc416001736d9b313d8871024e616" target="_top" xlink:title="PROTO_ParseByte">
<polygon fill="#ffffff" stroke="#000000" points="355,-48.5 355,-67.5 437,-67.5 437,-48.5 355,-48.5"/>
<text text-anchor="middle" x="396" y="-55.5" font-family="Helvetica,sans-Serif" font-size="10.00" fill="#000000">PROTO_ParseByte</text>
</a>
</g>
</g>
<!-- Node210&#45;&gt;Node213 -->
<g id="edge11" class="edge">
<title>Node210&#45;&gt;Node213</title>
<path fill="none" stroke="#191970" d="M314.6293,-76.9865C324.2899,-74.7323 334.8008,-72.2798 344.961,-69.9091"/>
<polygon fill="#191970" stroke="#191970" points="346.0167,-73.2569 354.9598,-67.576 344.4261,-66.44 346.0167,-73.2569"/>
</g>
<!-- Node215 -->
<g id="node14" class="node">
<title>Node215</title>
<g id="a_node14"><a xlink:href="proto_8h.html#aeeb0162a48bf377e468e5fca672a5df1" target="_top" xlink:title="PROTO_AddRb">
<polygon fill="#ffffff" stroke="#000000" points="241,-29.5 241,-48.5 311,-48.5 311,-29.5 241,-29.5"/>
<text text-anchor="middle" x="276" y="-36.5" font-family="Helvetica,sans-Serif" font-size="10.00" fill="#000000">PROTO_AddRb</text>
</a>
</g>
</g>
<!-- Node214&#45;&gt;Node215 -->
<g id="edge13" class="edge">
<title>Node214&#45;&gt;Node215</title>
<path fill="none" stroke="#191970" d="M185.1014,-45.7056C198.8678,-44.6901 215.3332,-43.4754 230.445,-42.3606"/>
<polygon fill="#191970" stroke="#191970" points="230.9255,-45.8348 240.6409,-41.6085 230.4104,-38.8537 230.9255,-45.8348"/>
</g>
<!-- Node216 -->
<g id="node15" class="node">
<title>Node216</title>
<g id="a_node15"><a xlink:href="ringbuf_8h.html#a717173daf1397da584236ed52bbec10a" target="_top" xlink:title="put a character into ring buffer ">
<polygon fill="#ffffff" stroke="#000000" points="363,-10.5 363,-29.5 429,-29.5 429,-10.5 363,-10.5"/>
<text text-anchor="middle" x="396" y="-17.5" font-family="Helvetica,sans-Serif" font-size="10.00" fill="#000000">RINGBUF_Put</text>
</a>
</g>
</g>
<!-- Node215&#45;&gt;Node216 -->
<g id="edge14" class="edge">
<title>Node215&#45;&gt;Node216</title>
<path fill="none" stroke="#191970" d="M311.0316,-33.4533C324.0415,-31.3934 338.9578,-29.0317 352.6246,-26.8678"/>
<polygon fill="#191970" stroke="#191970" points="353.4504,-30.2807 362.7799,-25.2598 352.3556,-23.3668 353.4504,-30.2807"/>
</g>
</g>
</svg>
