<?xml version="1.0" encoding="UTF-8" standalone="no"?>
<!DOCTYPE svg PUBLIC "-//W3C//DTD SVG 1.1//EN"
 "http://www.w3.org/Graphics/SVG/1.1/DTD/svg11.dtd">
<!-- Generated by graphviz version 2.40.1 (20161225.0304)
 -->
<!-- Title: deliver_publish Pages: 1 -->
<svg width="640pt" height="28pt"
 viewBox="0.00 0.00 640.00 28.00" xmlns="http://www.w3.org/2000/svg" xmlns:xlink="http://www.w3.org/1999/xlink">
<g id="graph0" class="graph" transform="scale(1 1) rotate(0) translate(4 24)">
<title>deliver_publish</title>
<polygon fill="#ffffff" stroke="transparent" points="-4,4 -4,-24 636,-24 636,4 -4,4"/>
<!-- Node4 -->
<g id="node1" class="node">
<title>Node4</title>
<polygon fill="#bfbfbf" stroke="#000000" points="0,-.5 0,-19.5 67,-19.5 67,-.5 0,-.5"/>
<text text-anchor="middle" x="33.5" y="-7.5" font-family="Helvetica,sans-Serif" font-size="10.00" fill="#000000">deliver_publish</text>
</g>
<!-- Node5 -->
<g id="node2" class="node">
<title>Node5</title>
<g id="a_node2"><a xlink:href="mqtt_8c.html#af470856972320b9c02da9fcb6f419fd0" target="_top" xlink:title="Client received callback function. ">
<polygon fill="#ffffff" stroke="#000000" points="103,-.5 103,-19.5 184,-19.5 184,-.5 103,-.5"/>
<text text-anchor="middle" x="143.5" y="-7.5" font-family="Helvetica,sans-Serif" font-size="10.00" fill="#000000">mqtt_tcpclient_recv</text>
</a>
</g>
</g>
<!-- Node4&#45;&gt;Node5 -->
<g id="edge1" class="edge">
<title>Node4&#45;&gt;Node5</title>
<path fill="none" stroke="#191970" d="M77.1519,-10C85.5895,-10 94.3995,-10 102.7403,-10"/>
<polygon fill="#191970" stroke="#191970" points="77.1014,-6.5001 67.1013,-10 77.1013,-13.5001 77.1014,-6.5001"/>
</g>
<!-- Node6 -->
<g id="node3" class="node">
<title>Node6</title>
<g id="a_node3"><a xlink:href="mqtt_8c.html#a36ecd969af1b9c87856f01be064a98cc" target="_top" xlink:title="Tcp client connect success callback function. ">
<polygon fill="#ffffff" stroke="#000000" points="220,-.5 220,-19.5 325,-19.5 325,-.5 220,-.5"/>
<text text-anchor="middle" x="272.5" y="-7.5" font-family="Helvetica,sans-Serif" font-size="10.00" fill="#000000">mqtt_tcpclient_connect_cb</text>
</a>
</g>
</g>
<!-- Node5&#45;&gt;Node6 -->
<g id="edge2" class="edge">
<title>Node5&#45;&gt;Node6</title>
<path fill="none" stroke="#191970" d="M194.5595,-10C202.8098,-10 211.3671,-10 219.6586,-10"/>
<polygon fill="#191970" stroke="#191970" points="194.3164,-6.5001 184.3164,-10 194.3164,-13.5001 194.3164,-6.5001"/>
</g>
<!-- Node7 -->
<g id="node4" class="node">
<title>Node7</title>
<g id="a_node4"><a xlink:href="mqtt_8c.html#ad34b681cb2f7473d8fc786c7ed468db5" target="_top" xlink:title="Begin connect to MQTT broker. ">
<polygon fill="#ffffff" stroke="#000000" points="361,-.5 361,-19.5 431,-19.5 431,-.5 361,-.5"/>
<text text-anchor="middle" x="396" y="-7.5" font-family="Helvetica,sans-Serif" font-size="10.00" fill="#000000">MQTT_Connect</text>
</a>
</g>
</g>
<!-- Node6&#45;&gt;Node7 -->
<g id="edge3" class="edge">
<title>Node6&#45;&gt;Node7</title>
<path fill="none" stroke="#191970" d="M335.4808,-10C344.2331,-10 352.9524,-10 360.935,-10"/>
<polygon fill="#191970" stroke="#191970" points="335.2334,-6.5001 325.2333,-10 335.2333,-13.5001 335.2334,-6.5001"/>
</g>
<!-- Node8 -->
<g id="node5" class="node">
<title>Node8</title>
<g id="a_node5"><a xlink:href="mqtt_8c.html#a9d88fa6efb9163d4dbf9dc750a8d4ed0" target="_top" xlink:title="MQTT_Task">
<polygon fill="#ffffff" stroke="#000000" points="467,-.5 467,-19.5 525,-19.5 525,-.5 467,-.5"/>
<text text-anchor="middle" x="496" y="-7.5" font-family="Helvetica,sans-Serif" font-size="10.00" fill="#000000">MQTT_Task</text>
</a>
</g>
</g>
<!-- Node7&#45;&gt;Node8 -->
<g id="edge4" class="edge">
<title>Node7&#45;&gt;Node8</title>
<path fill="none" stroke="#191970" d="M441.5243,-10C450.0694,-10 458.7902,-10 466.6776,-10"/>
<polygon fill="#191970" stroke="#191970" points="441.2563,-6.5001 431.2563,-10 441.2562,-13.5001 441.2563,-6.5001"/>
</g>
<!-- Node9 -->
<g id="node6" class="node">
<title>Node9</title>
<g id="a_node6"><a xlink:href="mqtt_8c.html#a25cb7ac079d1d119250dac075c45acf1" target="_top" xlink:title="MQTT initialization mqtt client function. ">
<polygon fill="#ffffff" stroke="#000000" points="561,-.5 561,-19.5 632,-19.5 632,-.5 561,-.5"/>
<text text-anchor="middle" x="596.5" y="-7.5" font-family="Helvetica,sans-Serif" font-size="10.00" fill="#000000">MQTT_InitClient</text>
</a>
</g>
</g>
<!-- Node8&#45;&gt;Node9 -->
<g id="edge5" class="edge">
<title>Node8&#45;&gt;Node9</title>
<path fill="none" stroke="#191970" d="M535.0779,-10C543.52,-10 552.4052,-10 560.7137,-10"/>
<polygon fill="#191970" stroke="#191970" points="535.0688,-6.5001 525.0688,-10 535.0687,-13.5001 535.0688,-6.5001"/>
</g>
</g>
</svg>
