<?xml version="1.0" encoding="UTF-8" standalone="no"?>
<!DOCTYPE svg PUBLIC "-//W3C//DTD SVG 1.1//EN"
 "http://www.w3.org/Graphics/SVG/1.1/DTD/svg11.dtd">
<!-- Generated by graphviz version 2.40.1 (20161225.0304)
 -->
<!-- Title: MQTT_UnSubscribe Pages: 1 -->
<svg width="463pt" height="294pt"
 viewBox="0.00 0.00 463.00 294.00" xmlns="http://www.w3.org/2000/svg" xmlns:xlink="http://www.w3.org/1999/xlink">
<g id="graph0" class="graph" transform="scale(1 1) rotate(0) translate(4 290)">
<title>MQTT_UnSubscribe</title>
<polygon fill="#ffffff" stroke="transparent" points="-4,4 -4,-290 459,-290 459,4 -4,4"/>
<!-- Node219 -->
<g id="node1" class="node">
<title>Node219</title>
<polygon fill="#bfbfbf" stroke="#000000" points="0,-57.5 0,-76.5 85,-76.5 85,-57.5 0,-57.5"/>
<text text-anchor="middle" x="42.5" y="-64.5" font-family="Helvetica,sans-Serif" font-size="10.00" fill="#000000">MQTT_UnSubscribe</text>
</g>
<!-- Node220 -->
<g id="node2" class="node">
<title>Node220</title>
<g id="a_node2"><a xlink:href="mqtt__msg_8h.html#a5b329f56f9757307102a494232b2cf92" target="_top" xlink:title="mqtt_msg_unsubscribe">
<polygon fill="#ffffff" stroke="#000000" points="121,-171.5 121,-190.5 215,-190.5 215,-171.5 121,-171.5"/>
<text text-anchor="middle" x="168" y="-178.5" font-family="Helvetica,sans-Serif" font-size="10.00" fill="#000000">mqtt_msg_unsubscribe</text>
</a>
</g>
</g>
<!-- Node219&#45;&gt;Node220 -->
<g id="edge1" class="edge">
<title>Node219&#45;&gt;Node220</title>
<path fill="none" stroke="#191970" d="M53.2001,-76.7196C74.6877,-96.2382 123.2948,-140.3913 149.8486,-164.5119"/>
<polygon fill="#191970" stroke="#191970" points="147.5716,-167.1719 157.327,-171.305 152.2783,-161.9905 147.5716,-167.1719"/>
</g>
<!-- Node226 -->
<g id="node8" class="node">
<title>Node226</title>
<g id="a_node8"><a xlink:href="_meter_logger_2mqtt_2include_2queue_8h.html#acf070d5db9067c0b9598dec844313ae5" target="_top" xlink:title="QUEUE_Gets">
<polygon fill="#ffffff" stroke="#000000" points="136.5,-76.5 136.5,-95.5 199.5,-95.5 199.5,-76.5 136.5,-76.5"/>
<text text-anchor="middle" x="168" y="-83.5" font-family="Helvetica,sans-Serif" font-size="10.00" fill="#000000">QUEUE_Gets</text>
</a>
</g>
</g>
<!-- Node219&#45;&gt;Node226 -->
<g id="edge7" class="edge">
<title>Node219&#45;&gt;Node226</title>
<path fill="none" stroke="#191970" d="M85.339,-73.4856C98.5621,-75.4875 113.1012,-77.6886 126.2498,-79.6793"/>
<polygon fill="#191970" stroke="#191970" points="126.0337,-83.1863 136.445,-81.2227 127.0816,-76.2652 126.0337,-83.1863"/>
</g>
<!-- Node231 -->
<g id="node13" class="node">
<title>Node231</title>
<g id="a_node13"><a xlink:href="_meter_logger_2mqtt_2include_2queue_8h.html#a0a04f14d06c5c3ee302764c5f3d7dc0c" target="_top" xlink:title="QUEUE_Puts">
<polygon fill="#ffffff" stroke="#000000" points="137,-38.5 137,-57.5 199,-57.5 199,-38.5 137,-38.5"/>
<text text-anchor="middle" x="168" y="-45.5" font-family="Helvetica,sans-Serif" font-size="10.00" fill="#000000">QUEUE_Puts</text>
</a>
</g>
</g>
<!-- Node219&#45;&gt;Node231 -->
<g id="edge12" class="edge">
<title>Node219&#45;&gt;Node231</title>
<path fill="none" stroke="#191970" d="M85.339,-60.5144C98.6742,-58.4955 113.3477,-56.274 126.5838,-54.2702"/>
<polygon fill="#191970" stroke="#191970" points="127.4743,-57.6753 136.8377,-52.7178 126.4264,-50.7542 127.4743,-57.6753"/>
</g>
<!-- Node234 -->
<g id="node16" class="node">
<title>Node234</title>
<g id="a_node16"><a xlink:href="user__interface_8h.html#adab1155f3a463f2b05a9bde65b37514f" target="_top" xlink:title="system_os_post">
<polygon fill="#ffffff" stroke="#000000" points="132.5,-.5 132.5,-19.5 203.5,-19.5 203.5,-.5 132.5,-.5"/>
<text text-anchor="middle" x="168" y="-7.5" font-family="Helvetica,sans-Serif" font-size="10.00" fill="#000000">system_os_post</text>
</a>
</g>
</g>
<!-- Node219&#45;&gt;Node234 -->
<g id="edge15" class="edge">
<title>Node219&#45;&gt;Node234</title>
<path fill="none" stroke="#191970" d="M61.3693,-57.4281C77.168,-49.5198 100.3773,-38.1477 121,-29 125.1861,-27.1432 129.612,-25.2562 134.0075,-23.4282"/>
<polygon fill="#191970" stroke="#191970" points="135.5459,-26.5805 143.4762,-19.5548 132.8954,-20.1016 135.5459,-26.5805"/>
</g>
<!-- Node221 -->
<g id="node3" class="node">
<title>Node221</title>
<g id="a_node3"><a xlink:href="mqtt__msg_8c.html#aae7c66cc577ac90e9535edac4abc068c" target="_top" xlink:title="init_message">
<polygon fill="#ffffff" stroke="#000000" points="263.5,-266.5 263.5,-285.5 324.5,-285.5 324.5,-266.5 263.5,-266.5"/>
<text text-anchor="middle" x="294" y="-273.5" font-family="Helvetica,sans-Serif" font-size="10.00" fill="#000000">init_message</text>
</a>
</g>
</g>
<!-- Node220&#45;&gt;Node221 -->
<g id="edge2" class="edge">
<title>Node220&#45;&gt;Node221</title>
<path fill="none" stroke="#191970" d="M176.8614,-190.9874C191.1932,-206.6777 220.9043,-237.3367 251,-257 253.733,-258.7856 256.6617,-260.4771 259.6583,-262.0603"/>
<polygon fill="#191970" stroke="#191970" points="258.2003,-265.2431 268.7238,-266.4707 261.2627,-258.9485 258.2003,-265.2431"/>
</g>
<!-- Node222 -->
<g id="node4" class="node">
<title>Node222</title>
<g id="a_node4"><a xlink:href="mqtt__msg_8c.html#a9a2fb8c67ff4b104dd46e72c9e97b710" target="_top" xlink:title="fail_message">
<polygon fill="#ffffff" stroke="#000000" points="263.5,-228.5 263.5,-247.5 324.5,-247.5 324.5,-228.5 263.5,-228.5"/>
<text text-anchor="middle" x="294" y="-235.5" font-family="Helvetica,sans-Serif" font-size="10.00" fill="#000000">fail_message</text>
</a>
</g>
</g>
<!-- Node220&#45;&gt;Node222 -->
<g id="edge3" class="edge">
<title>Node220&#45;&gt;Node222</title>
<path fill="none" stroke="#191970" d="M188.7725,-190.6028C205.5402,-198.332 229.7538,-209.443 251,-219 254.8519,-220.7327 258.9036,-222.5412 262.9169,-224.3242"/>
<polygon fill="#191970" stroke="#191970" points="261.539,-227.5418 272.0998,-228.3903 264.3732,-221.1412 261.539,-227.5418"/>
</g>
<!-- Node223 -->
<g id="node5" class="node">
<title>Node223</title>
<g id="a_node5"><a xlink:href="mqtt__msg_8c.html#ac59e26babd30c6c0ace9a174e75786f3" target="_top" xlink:title="append_message_id">
<polygon fill="#ffffff" stroke="#000000" points="251,-190.5 251,-209.5 337,-209.5 337,-190.5 251,-190.5"/>
<text text-anchor="middle" x="294" y="-197.5" font-family="Helvetica,sans-Serif" font-size="10.00" fill="#000000">append_message_id</text>
</a>
</g>
</g>
<!-- Node220&#45;&gt;Node223 -->
<g id="edge4" class="edge">
<title>Node220&#45;&gt;Node223</title>
<path fill="none" stroke="#191970" d="M215.2762,-188.129C223.5173,-189.3717 232.1418,-190.6722 240.5352,-191.9378"/>
<polygon fill="#191970" stroke="#191970" points="240.2072,-195.4279 250.6173,-193.4582 241.251,-188.5061 240.2072,-195.4279"/>
</g>
<!-- Node224 -->
<g id="node6" class="node">
<title>Node224</title>
<g id="a_node6"><a xlink:href="mqtt__msg_8c.html#a207c99e2058080b97c21a348d693a560" target="_top" xlink:title="append_string">
<polygon fill="#ffffff" stroke="#000000" points="262,-152.5 262,-171.5 326,-171.5 326,-152.5 262,-152.5"/>
<text text-anchor="middle" x="294" y="-159.5" font-family="Helvetica,sans-Serif" font-size="10.00" fill="#000000">append_string</text>
</a>
</g>
</g>
<!-- Node220&#45;&gt;Node224 -->
<g id="edge5" class="edge">
<title>Node220&#45;&gt;Node224</title>
<path fill="none" stroke="#191970" d="M215.2762,-173.871C227.2663,-172.063 240.0681,-170.1326 251.7887,-168.3652"/>
<polygon fill="#191970" stroke="#191970" points="252.3964,-171.8132 261.7627,-166.8612 251.3526,-164.8915 252.3964,-171.8132"/>
</g>
<!-- Node225 -->
<g id="node7" class="node">
<title>Node225</title>
<g id="a_node7"><a xlink:href="mqtt__msg_8c.html#a356949afe8a334d5e91bddb4b2794921" target="_top" xlink:title="fini_message">
<polygon fill="#ffffff" stroke="#000000" points="263.5,-114.5 263.5,-133.5 324.5,-133.5 324.5,-114.5 263.5,-114.5"/>
<text text-anchor="middle" x="294" y="-121.5" font-family="Helvetica,sans-Serif" font-size="10.00" fill="#000000">fini_message</text>
</a>
</g>
</g>
<!-- Node220&#45;&gt;Node225 -->
<g id="edge6" class="edge">
<title>Node220&#45;&gt;Node225</title>
<path fill="none" stroke="#191970" d="M188.7725,-171.3972C205.5402,-163.668 229.7538,-152.557 251,-143 254.8519,-141.2673 258.9036,-139.4588 262.9169,-137.6758"/>
<polygon fill="#191970" stroke="#191970" points="264.3732,-140.8588 272.0998,-133.6097 261.539,-134.4582 264.3732,-140.8588"/>
</g>
<!-- Node227 -->
<g id="node9" class="node">
<title>Node227</title>
<g id="a_node9"><a xlink:href="proto_8h.html#a4ce0ecd80c57cb13f47a2725036451af" target="_top" xlink:title="PROTO_ParseRb">
<polygon fill="#ffffff" stroke="#000000" points="255.5,-76.5 255.5,-95.5 332.5,-95.5 332.5,-76.5 255.5,-76.5"/>
<text text-anchor="middle" x="294" y="-83.5" font-family="Helvetica,sans-Serif" font-size="10.00" fill="#000000">PROTO_ParseRb</text>
</a>
</g>
</g>
<!-- Node226&#45;&gt;Node227 -->
<g id="edge8" class="edge">
<title>Node226&#45;&gt;Node227</title>
<path fill="none" stroke="#191970" d="M199.7951,-86C213.5374,-86 229.9298,-86 245.1583,-86"/>
<polygon fill="#191970" stroke="#191970" points="245.4683,-89.5001 255.4683,-86 245.4683,-82.5001 245.4683,-89.5001"/>
</g>
<!-- Node228 -->
<g id="node10" class="node">
<title>Node228</title>
<g id="a_node10"><a xlink:href="proto_8c.html#aef0525e6fb0717f1ae3816f5a59fbd08" target="_top" xlink:title="PROTO_Init">
<polygon fill="#ffffff" stroke="#000000" points="385.5,-124.5 385.5,-143.5 442.5,-143.5 442.5,-124.5 385.5,-124.5"/>
<text text-anchor="middle" x="414" y="-131.5" font-family="Helvetica,sans-Serif" font-size="10.00" fill="#000000">PROTO_Init</text>
</a>
</g>
</g>
<!-- Node227&#45;&gt;Node228 -->
<g id="edge9" class="edge">
<title>Node227&#45;&gt;Node228</title>
<path fill="none" stroke="#191970" d="M317.9954,-95.5982C335.9815,-102.7926 360.8176,-112.727 380.7225,-120.689"/>
<polygon fill="#191970" stroke="#191970" points="379.4615,-123.9542 390.0462,-124.4185 382.0613,-117.4548 379.4615,-123.9542"/>
</g>
<!-- Node229 -->
<g id="node11" class="node">
<title>Node229</title>
<g id="a_node11"><a xlink:href="ringbuf_8h.html#a2b4ae6481762403eec1f2072eb30217a" target="_top" xlink:title="get a character from ring buffer ">
<polygon fill="#ffffff" stroke="#000000" points="380.5,-86.5 380.5,-105.5 447.5,-105.5 447.5,-86.5 380.5,-86.5"/>
<text text-anchor="middle" x="414" y="-93.5" font-family="Helvetica,sans-Serif" font-size="10.00" fill="#000000">RINGBUF_Get</text>
</a>
</g>
</g>
<!-- Node227&#45;&gt;Node229 -->
<g id="edge10" class="edge">
<title>Node227&#45;&gt;Node229</title>
<path fill="none" stroke="#191970" d="M332.6293,-89.2191C344.6195,-90.2183 357.9194,-91.3266 370.2329,-92.3527"/>
<polygon fill="#191970" stroke="#191970" points="370.0378,-95.8485 380.2939,-93.1912 370.6192,-88.8727 370.0378,-95.8485"/>
</g>
<!-- Node230 -->
<g id="node12" class="node">
<title>Node230</title>
<g id="a_node12"><a xlink:href="proto_8c.html#ada6cc416001736d9b313d8871024e616" target="_top" xlink:title="PROTO_ParseByte">
<polygon fill="#ffffff" stroke="#000000" points="373,-48.5 373,-67.5 455,-67.5 455,-48.5 373,-48.5"/>
<text text-anchor="middle" x="414" y="-55.5" font-family="Helvetica,sans-Serif" font-size="10.00" fill="#000000">PROTO_ParseByte</text>
</a>
</g>
</g>
<!-- Node227&#45;&gt;Node230 -->
<g id="edge11" class="edge">
<title>Node227&#45;&gt;Node230</title>
<path fill="none" stroke="#191970" d="M332.6293,-76.9865C342.2899,-74.7323 352.8008,-72.2798 362.961,-69.9091"/>
<polygon fill="#191970" stroke="#191970" points="364.0167,-73.2569 372.9598,-67.576 362.4261,-66.44 364.0167,-73.2569"/>
</g>
<!-- Node232 -->
<g id="node14" class="node">
<title>Node232</title>
<g id="a_node14"><a xlink:href="proto_8h.html#aeeb0162a48bf377e468e5fca672a5df1" target="_top" xlink:title="PROTO_AddRb">
<polygon fill="#ffffff" stroke="#000000" points="259,-29.5 259,-48.5 329,-48.5 329,-29.5 259,-29.5"/>
<text text-anchor="middle" x="294" y="-36.5" font-family="Helvetica,sans-Serif" font-size="10.00" fill="#000000">PROTO_AddRb</text>
</a>
</g>
</g>
<!-- Node231&#45;&gt;Node232 -->
<g id="edge13" class="edge">
<title>Node231&#45;&gt;Node232</title>
<path fill="none" stroke="#191970" d="M199.1461,-45.7753C213.9717,-44.7163 231.9911,-43.4292 248.3256,-42.2625"/>
<polygon fill="#191970" stroke="#191970" points="249.0407,-45.7204 258.7659,-41.5167 248.5419,-38.7382 249.0407,-45.7204"/>
</g>
<!-- Node233 -->
<g id="node15" class="node">
<title>Node233</title>
<g id="a_node15"><a xlink:href="ringbuf_8h.html#a717173daf1397da584236ed52bbec10a" target="_top" xlink:title="put a character into ring buffer ">
<polygon fill="#ffffff" stroke="#000000" points="381,-10.5 381,-29.5 447,-29.5 447,-10.5 381,-10.5"/>
<text text-anchor="middle" x="414" y="-17.5" font-family="Helvetica,sans-Serif" font-size="10.00" fill="#000000">RINGBUF_Put</text>
</a>
</g>
</g>
<!-- Node232&#45;&gt;Node233 -->
<g id="edge14" class="edge">
<title>Node232&#45;&gt;Node233</title>
<path fill="none" stroke="#191970" d="M329.0316,-33.4533C342.0415,-31.3934 356.9578,-29.0317 370.6246,-26.8678"/>
<polygon fill="#191970" stroke="#191970" points="371.4504,-30.2807 380.7799,-25.2598 370.3556,-23.3668 371.4504,-30.2807"/>
</g>
</g>
</svg>
