<?xml version="1.0" encoding="UTF-8" standalone="no"?>
<!DOCTYPE svg PUBLIC "-//W3C//DTD SVG 1.1//EN"
 "http://www.w3.org/Graphics/SVG/1.1/DTD/svg11.dtd">
<!-- Generated by graphviz version 2.40.1 (20161225.0304)
 -->
<!-- Title: MQTT_Publish Pages: 1 -->
<svg width="428pt" height="294pt"
 viewBox="0.00 0.00 428.00 294.00" xmlns="http://www.w3.org/2000/svg" xmlns:xlink="http://www.w3.org/1999/xlink">
<g id="graph0" class="graph" transform="scale(1 1) rotate(0) translate(4 290)">
<title>MQTT_Publish</title>
<polygon fill="#ffffff" stroke="transparent" points="-4,4 -4,-290 424,-290 424,4 -4,4"/>
<!-- Node178 -->
<g id="node1" class="node">
<title>Node178</title>
<polygon fill="#bfbfbf" stroke="#000000" points="0,-57.5 0,-76.5 67,-76.5 67,-57.5 0,-57.5"/>
<text text-anchor="middle" x="33.5" y="-64.5" font-family="Helvetica,sans-Serif" font-size="10.00" fill="#000000">MQTT_Publish</text>
</g>
<!-- Node179 -->
<g id="node2" class="node">
<title>Node179</title>
<g id="a_node2"><a xlink:href="mqtt__msg_8h.html#af16842423fc1d5d802a7f329fc3a9ef9" target="_top" xlink:title="mqtt_msg_publish">
<polygon fill="#ffffff" stroke="#000000" points="103,-171.5 103,-190.5 180,-190.5 180,-171.5 103,-171.5"/>
<text text-anchor="middle" x="141.5" y="-178.5" font-family="Helvetica,sans-Serif" font-size="10.00" fill="#000000">mqtt_msg_publish</text>
</a>
</g>
</g>
<!-- Node178&#45;&gt;Node179 -->
<g id="edge1" class="edge">
<title>Node178&#45;&gt;Node179</title>
<path fill="none" stroke="#191970" d="M42.708,-76.7196C61.0399,-96.0699 102.3092,-139.6319 125.2845,-163.8837"/>
<polygon fill="#191970" stroke="#191970" points="122.897,-166.4526 132.3153,-171.305 127.9787,-161.6384 122.897,-166.4526"/>
</g>
<!-- Node185 -->
<g id="node8" class="node">
<title>Node185</title>
<g id="a_node8"><a xlink:href="_meter_logger_2mqtt_2include_2queue_8h.html#acf070d5db9067c0b9598dec844313ae5" target="_top" xlink:title="QUEUE_Gets">
<polygon fill="#ffffff" stroke="#000000" points="110,-76.5 110,-95.5 173,-95.5 173,-76.5 110,-76.5"/>
<text text-anchor="middle" x="141.5" y="-83.5" font-family="Helvetica,sans-Serif" font-size="10.00" fill="#000000">QUEUE_Gets</text>
</a>
</g>
</g>
<!-- Node178&#45;&gt;Node185 -->
<g id="edge7" class="edge">
<title>Node178&#45;&gt;Node185</title>
<path fill="none" stroke="#191970" d="M67.0799,-72.9076C77.4033,-74.7237 88.8944,-76.7453 99.6982,-78.646"/>
<polygon fill="#191970" stroke="#191970" points="99.33,-82.1349 109.7852,-80.4206 100.5429,-75.2408 99.33,-82.1349"/>
</g>
<!-- Node190 -->
<g id="node13" class="node">
<title>Node190</title>
<g id="a_node13"><a xlink:href="_meter_logger_2mqtt_2include_2queue_8h.html#a0a04f14d06c5c3ee302764c5f3d7dc0c" target="_top" xlink:title="QUEUE_Puts">
<polygon fill="#ffffff" stroke="#000000" points="110.5,-38.5 110.5,-57.5 172.5,-57.5 172.5,-38.5 110.5,-38.5"/>
<text text-anchor="middle" x="141.5" y="-45.5" font-family="Helvetica,sans-Serif" font-size="10.00" fill="#000000">QUEUE_Puts</text>
</a>
</g>
</g>
<!-- Node178&#45;&gt;Node190 -->
<g id="edge12" class="edge">
<title>Node178&#45;&gt;Node190</title>
<path fill="none" stroke="#191970" d="M67.0799,-61.0924C77.4971,-59.2598 89.1034,-57.2179 99.9926,-55.3022"/>
<polygon fill="#191970" stroke="#191970" points="100.9086,-58.6949 110.1509,-53.5151 99.6957,-51.8008 100.9086,-58.6949"/>
</g>
<!-- Node193 -->
<g id="node16" class="node">
<title>Node193</title>
<g id="a_node16"><a xlink:href="user__interface_8h.html#adab1155f3a463f2b05a9bde65b37514f" target="_top" xlink:title="system_os_post">
<polygon fill="#ffffff" stroke="#000000" points="106,-.5 106,-19.5 177,-19.5 177,-.5 106,-.5"/>
<text text-anchor="middle" x="141.5" y="-7.5" font-family="Helvetica,sans-Serif" font-size="10.00" fill="#000000">system_os_post</text>
</a>
</g>
</g>
<!-- Node178&#45;&gt;Node193 -->
<g id="edge15" class="edge">
<title>Node178&#45;&gt;Node193</title>
<path fill="none" stroke="#191970" d="M50.5298,-57.4292C64.5344,-49.6214 84.9417,-38.3875 103,-29 106.1372,-27.3691 109.4338,-25.6902 112.7229,-24.0372"/>
<polygon fill="#191970" stroke="#191970" points="114.4375,-27.0935 121.8341,-19.5079 111.3215,-20.8253 114.4375,-27.0935"/>
</g>
<!-- Node180 -->
<g id="node3" class="node">
<title>Node180</title>
<g id="a_node3"><a xlink:href="mqtt__msg_8c.html#aae7c66cc577ac90e9535edac4abc068c" target="_top" xlink:title="init_message">
<polygon fill="#ffffff" stroke="#000000" points="228.5,-266.5 228.5,-285.5 289.5,-285.5 289.5,-266.5 228.5,-266.5"/>
<text text-anchor="middle" x="259" y="-273.5" font-family="Helvetica,sans-Serif" font-size="10.00" fill="#000000">init_message</text>
</a>
</g>
</g>
<!-- Node179&#45;&gt;Node180 -->
<g id="edge2" class="edge">
<title>Node179&#45;&gt;Node180</title>
<path fill="none" stroke="#191970" d="M148.8273,-190.5507C161.2214,-206.1797 187.7476,-237.4335 216,-257 218.535,-258.7556 221.2583,-260.4069 224.0591,-261.9463"/>
<polygon fill="#191970" stroke="#191970" points="222.6229,-265.1412 233.1336,-266.4736 225.7479,-258.8774 222.6229,-265.1412"/>
</g>
<!-- Node181 -->
<g id="node4" class="node">
<title>Node181</title>
<g id="a_node4"><a xlink:href="mqtt__msg_8c.html#a9a2fb8c67ff4b104dd46e72c9e97b710" target="_top" xlink:title="fail_message">
<polygon fill="#ffffff" stroke="#000000" points="228.5,-228.5 228.5,-247.5 289.5,-247.5 289.5,-228.5 228.5,-228.5"/>
<text text-anchor="middle" x="259" y="-235.5" font-family="Helvetica,sans-Serif" font-size="10.00" fill="#000000">fail_message</text>
</a>
</g>
</g>
<!-- Node179&#45;&gt;Node181 -->
<g id="edge3" class="edge">
<title>Node179&#45;&gt;Node181</title>
<path fill="none" stroke="#191970" d="M159.7288,-190.656C174.7258,-198.5132 196.5936,-209.772 216,-219 219.6278,-220.725 223.45,-222.4891 227.2579,-224.2134"/>
<polygon fill="#191970" stroke="#191970" points="226.0166,-227.4921 236.5748,-228.3728 228.8703,-221.1002 226.0166,-227.4921"/>
</g>
<!-- Node182 -->
<g id="node5" class="node">
<title>Node182</title>
<g id="a_node5"><a xlink:href="mqtt__msg_8c.html#a207c99e2058080b97c21a348d693a560" target="_top" xlink:title="append_string">
<polygon fill="#ffffff" stroke="#000000" points="227,-190.5 227,-209.5 291,-209.5 291,-190.5 227,-190.5"/>
<text text-anchor="middle" x="259" y="-197.5" font-family="Helvetica,sans-Serif" font-size="10.00" fill="#000000">append_string</text>
</a>
</g>
</g>
<!-- Node179&#45;&gt;Node182 -->
<g id="edge4" class="edge">
<title>Node179&#45;&gt;Node182</title>
<path fill="none" stroke="#191970" d="M180.2995,-187.274C191.984,-189.1634 204.8632,-191.246 216.7594,-193.1696"/>
<polygon fill="#191970" stroke="#191970" points="216.4755,-196.6691 226.906,-194.8103 217.5929,-189.7588 216.4755,-196.6691"/>
</g>
<!-- Node183 -->
<g id="node6" class="node">
<title>Node183</title>
<g id="a_node6"><a xlink:href="mqtt__msg_8c.html#ac59e26babd30c6c0ace9a174e75786f3" target="_top" xlink:title="append_message_id">
<polygon fill="#ffffff" stroke="#000000" points="216,-152.5 216,-171.5 302,-171.5 302,-152.5 216,-152.5"/>
<text text-anchor="middle" x="259" y="-159.5" font-family="Helvetica,sans-Serif" font-size="10.00" fill="#000000">append_message_id</text>
</a>
</g>
</g>
<!-- Node179&#45;&gt;Node183 -->
<g id="edge5" class="edge">
<title>Node179&#45;&gt;Node183</title>
<path fill="none" stroke="#191970" d="M180.2995,-174.726C188.4673,-173.4053 197.2188,-171.9902 205.8103,-170.6009"/>
<polygon fill="#191970" stroke="#191970" points="206.4648,-174.0406 215.7779,-168.9891 205.3474,-167.1304 206.4648,-174.0406"/>
</g>
<!-- Node184 -->
<g id="node7" class="node">
<title>Node184</title>
<g id="a_node7"><a xlink:href="mqtt__msg_8c.html#a356949afe8a334d5e91bddb4b2794921" target="_top" xlink:title="fini_message">
<polygon fill="#ffffff" stroke="#000000" points="228.5,-114.5 228.5,-133.5 289.5,-133.5 289.5,-114.5 228.5,-114.5"/>
<text text-anchor="middle" x="259" y="-121.5" font-family="Helvetica,sans-Serif" font-size="10.00" fill="#000000">fini_message</text>
</a>
</g>
</g>
<!-- Node179&#45;&gt;Node184 -->
<g id="edge6" class="edge">
<title>Node179&#45;&gt;Node184</title>
<path fill="none" stroke="#191970" d="M159.7288,-171.344C174.7258,-163.4868 196.5936,-152.228 216,-143 219.6278,-141.275 223.45,-139.5109 227.2579,-137.7866"/>
<polygon fill="#191970" stroke="#191970" points="228.8703,-140.8998 236.5748,-133.6272 226.0166,-134.5079 228.8703,-140.8998"/>
</g>
<!-- Node186 -->
<g id="node9" class="node">
<title>Node186</title>
<g id="a_node9"><a xlink:href="proto_8h.html#a4ce0ecd80c57cb13f47a2725036451af" target="_top" xlink:title="PROTO_ParseRb">
<polygon fill="#ffffff" stroke="#000000" points="220.5,-76.5 220.5,-95.5 297.5,-95.5 297.5,-76.5 220.5,-76.5"/>
<text text-anchor="middle" x="259" y="-83.5" font-family="Helvetica,sans-Serif" font-size="10.00" fill="#000000">PROTO_ParseRb</text>
</a>
</g>
</g>
<!-- Node185&#45;&gt;Node186 -->
<g id="edge8" class="edge">
<title>Node185&#45;&gt;Node186</title>
<path fill="none" stroke="#191970" d="M173.2972,-86C184.6601,-86 197.7404,-86 210.2049,-86"/>
<polygon fill="#191970" stroke="#191970" points="210.4791,-89.5001 220.4791,-86 210.479,-82.5001 210.4791,-89.5001"/>
</g>
<!-- Node187 -->
<g id="node10" class="node">
<title>Node187</title>
<g id="a_node10"><a xlink:href="proto_8c.html#aef0525e6fb0717f1ae3816f5a59fbd08" target="_top" xlink:title="PROTO_Init">
<polygon fill="#ffffff" stroke="#000000" points="350.5,-124.5 350.5,-143.5 407.5,-143.5 407.5,-124.5 350.5,-124.5"/>
<text text-anchor="middle" x="379" y="-131.5" font-family="Helvetica,sans-Serif" font-size="10.00" fill="#000000">PROTO_Init</text>
</a>
</g>
</g>
<!-- Node186&#45;&gt;Node187 -->
<g id="edge9" class="edge">
<title>Node186&#45;&gt;Node187</title>
<path fill="none" stroke="#191970" d="M282.9954,-95.5982C300.9815,-102.7926 325.8176,-112.727 345.7225,-120.689"/>
<polygon fill="#191970" stroke="#191970" points="344.4615,-123.9542 355.0462,-124.4185 347.0613,-117.4548 344.4615,-123.9542"/>
</g>
<!-- Node188 -->
<g id="node11" class="node">
<title>Node188</title>
<g id="a_node11"><a xlink:href="ringbuf_8h.html#a2b4ae6481762403eec1f2072eb30217a" target="_top" xlink:title="get a character from ring buffer ">
<polygon fill="#ffffff" stroke="#000000" points="345.5,-86.5 345.5,-105.5 412.5,-105.5 412.5,-86.5 345.5,-86.5"/>
<text text-anchor="middle" x="379" y="-93.5" font-family="Helvetica,sans-Serif" font-size="10.00" fill="#000000">RINGBUF_Get</text>
</a>
</g>
</g>
<!-- Node186&#45;&gt;Node188 -->
<g id="edge10" class="edge">
<title>Node186&#45;&gt;Node188</title>
<path fill="none" stroke="#191970" d="M297.6293,-89.2191C309.6195,-90.2183 322.9194,-91.3266 335.2329,-92.3527"/>
<polygon fill="#191970" stroke="#191970" points="335.0378,-95.8485 345.2939,-93.1912 335.6192,-88.8727 335.0378,-95.8485"/>
</g>
<!-- Node189 -->
<g id="node12" class="node">
<title>Node189</title>
<g id="a_node12"><a xlink:href="proto_8c.html#ada6cc416001736d9b313d8871024e616" target="_top" xlink:title="PROTO_ParseByte">
<polygon fill="#ffffff" stroke="#000000" points="338,-48.5 338,-67.5 420,-67.5 420,-48.5 338,-48.5"/>
<text text-anchor="middle" x="379" y="-55.5" font-family="Helvetica,sans-Serif" font-size="10.00" fill="#000000">PROTO_ParseByte</text>
</a>
</g>
</g>
<!-- Node186&#45;&gt;Node189 -->
<g id="edge11" class="edge">
<title>Node186&#45;&gt;Node189</title>
<path fill="none" stroke="#191970" d="M297.6293,-76.9865C307.2899,-74.7323 317.8008,-72.2798 327.961,-69.9091"/>
<polygon fill="#191970" stroke="#191970" points="329.0167,-73.2569 337.9598,-67.576 327.4261,-66.44 329.0167,-73.2569"/>
</g>
<!-- Node191 -->
<g id="node14" class="node">
<title>Node191</title>
<g id="a_node14"><a xlink:href="proto_8h.html#aeeb0162a48bf377e468e5fca672a5df1" target="_top" xlink:title="PROTO_AddRb">
<polygon fill="#ffffff" stroke="#000000" points="224,-29.5 224,-48.5 294,-48.5 294,-29.5 224,-29.5"/>
<text text-anchor="middle" x="259" y="-36.5" font-family="Helvetica,sans-Serif" font-size="10.00" fill="#000000">PROTO_AddRb</text>
</a>
</g>
</g>
<!-- Node190&#45;&gt;Node191 -->
<g id="edge13" class="edge">
<title>Node190&#45;&gt;Node191</title>
<path fill="none" stroke="#191970" d="M172.6794,-45.6118C185.2487,-44.649 199.9955,-43.5195 213.7084,-42.4691"/>
<polygon fill="#191970" stroke="#191970" points="214.2366,-45.939 223.9401,-41.6854 213.7019,-38.9595 214.2366,-45.939"/>
</g>
<!-- Node192 -->
<g id="node15" class="node">
<title>Node192</title>
<g id="a_node15"><a xlink:href="ringbuf_8h.html#a717173daf1397da584236ed52bbec10a" target="_top" xlink:title="put a character into ring buffer ">
<polygon fill="#ffffff" stroke="#000000" points="346,-10.5 346,-29.5 412,-29.5 412,-10.5 346,-10.5"/>
<text text-anchor="middle" x="379" y="-17.5" font-family="Helvetica,sans-Serif" font-size="10.00" fill="#000000">RINGBUF_Put</text>
</a>
</g>
</g>
<!-- Node191&#45;&gt;Node192 -->
<g id="edge14" class="edge">
<title>Node191&#45;&gt;Node192</title>
<path fill="none" stroke="#191970" d="M294.0316,-33.4533C307.0415,-31.3934 321.9578,-29.0317 335.6246,-26.8678"/>
<polygon fill="#191970" stroke="#191970" points="336.4504,-30.2807 345.7799,-25.2598 335.3556,-23.3668 336.4504,-30.2807"/>
</g>
</g>
</svg>
