<?xml version="1.0" encoding="UTF-8" standalone="no"?>
<!DOCTYPE svg PUBLIC "-//W3C//DTD SVG 1.1//EN"
 "http://www.w3.org/Graphics/SVG/1.1/DTD/svg11.dtd">
<!-- Generated by graphviz version 2.40.1 (20161225.0304)
 -->
<!-- Title: mqtt_tcpclient_recv Pages: 1 -->
<svg width="477pt" height="595pt"
 viewBox="0.00 0.00 477.00 594.55" xmlns="http://www.w3.org/2000/svg" xmlns:xlink="http://www.w3.org/1999/xlink">
<g id="graph0" class="graph" transform="scale(1 1) rotate(0) translate(4 590.5508)">
<title>mqtt_tcpclient_recv</title>
<polygon fill="#ffffff" stroke="transparent" points="-4,4 -4,-590.5508 473,-590.5508 473,4 -4,4"/>
<!-- Node416 -->
<g id="node1" class="node">
<title>Node416</title>
<polygon fill="#bfbfbf" stroke="#000000" points="0,-266.5 0,-285.5 81,-285.5 81,-266.5 0,-266.5"/>
<text text-anchor="middle" x="40.5" y="-273.5" font-family="Helvetica,sans-Serif" font-size="10.00" fill="#000000">mqtt_tcpclient_recv</text>
</g>
<!-- Node417 -->
<g id="node2" class="node">
<title>Node417</title>
<g id="a_node2"><a xlink:href="mqtt_8c.html#aecca483fb1f2313abb9e1a905e54d6ac" target="_top" xlink:title="deliver_publish">
<polygon fill="#ffffff" stroke="#000000" points="143.5,-494.5 143.5,-513.5 210.5,-513.5 210.5,-494.5 143.5,-494.5"/>
<text text-anchor="middle" x="177" y="-501.5" font-family="Helvetica,sans-Serif" font-size="10.00" fill="#000000">deliver_publish</text>
</a>
</g>
</g>
<!-- Node416&#45;&gt;Node417 -->
<g id="edge1" class="edge">
<title>Node416&#45;&gt;Node417</title>
<path fill="none" stroke="#191970" d="M41.1391,-285.9462C43.8146,-319.1891 56.974,-427.5705 117,-485 121.7148,-489.5109 127.495,-492.9511 133.5869,-495.5748"/>
<polygon fill="#191970" stroke="#191970" points="132.7137,-498.9799 143.3083,-499.062 135.0774,-492.391 132.7137,-498.9799"/>
</g>
<!-- Node419 -->
<g id="node4" class="node">
<title>Node419</title>
<g id="a_node4"><a xlink:href="mqtt__msg_8h.html#a2507d51683ee1cda6b2b584c16b4f695" target="_top" xlink:title="mqtt_get_qos">
<polygon fill="#ffffff" stroke="#000000" points="405,-494.5 405,-513.5 467,-513.5 467,-494.5 405,-494.5"/>
<text text-anchor="middle" x="436" y="-501.5" font-family="Helvetica,sans-Serif" font-size="10.00" fill="#000000">mqtt_get_qos</text>
</a>
</g>
</g>
<!-- Node416&#45;&gt;Node419 -->
<g id="edge11" class="edge">
<title>Node416&#45;&gt;Node419</title>
<path fill="none" stroke="#191970" d="M42.1681,-285.5455C49.5507,-326.7349 80.5365,-488.7097 117,-523 198.8722,-599.9926 261.2435,-599.0326 367,-561 388.7947,-553.1621 408.6025,-535.1263 421.3478,-521.4259"/>
<polygon fill="#191970" stroke="#191970" points="424.2917,-523.3827 428.3255,-513.5857 419.0627,-518.7289 424.2917,-523.3827"/>
</g>
<!-- Node421 -->
<g id="node6" class="node">
<title>Node421</title>
<g id="a_node6"><a xlink:href="esp-open-lwip_2include_2lwip_2app_2espconn_8h.html#a9969873c3b8ee86a34496a5166cf8bfc" target="_top" xlink:title="espconn_disconnect">
<polygon fill="#ffffff" stroke="#000000" points="134.5,-380.5 134.5,-399.5 219.5,-399.5 219.5,-380.5 134.5,-380.5"/>
<text text-anchor="middle" x="177" y="-387.5" font-family="Helvetica,sans-Serif" font-size="10.00" fill="#000000">espconn_disconnect</text>
</a>
</g>
</g>
<!-- Node416&#45;&gt;Node421 -->
<g id="edge5" class="edge">
<title>Node416&#45;&gt;Node421</title>
<path fill="none" stroke="#191970" d="M45.6546,-285.6411C56.3695,-304.772 82.9142,-347.6924 117,-371 119.8834,-372.9717 122.9823,-374.7472 126.198,-376.3448"/>
<polygon fill="#191970" stroke="#191970" points="124.9217,-379.6064 135.4874,-380.3913 127.7173,-373.1889 124.9217,-379.6064"/>
</g>
<!-- Node422 -->
<g id="node7" class="node">
<title>Node422</title>
<g id="a_node7"><a xlink:href="sdk_2include_2espconn_8h.html#aaa239bcd4abe60ed2e6e1688c9b1acfd" target="_top" xlink:title="espconn_secure_disconnect">
<polygon fill="#ffffff" stroke="#000000" points="121,-342.5 121,-361.5 233,-361.5 233,-342.5 121,-342.5"/>
<text text-anchor="middle" x="177" y="-349.5" font-family="Helvetica,sans-Serif" font-size="10.00" fill="#000000">espconn_secure_disconnect</text>
</a>
</g>
</g>
<!-- Node416&#45;&gt;Node422 -->
<g id="edge6" class="edge">
<title>Node416&#45;&gt;Node422</title>
<path fill="none" stroke="#191970" d="M51.1241,-285.753C65.2282,-298.2484 91.352,-319.858 117,-333 121.2726,-335.1893 125.846,-337.1867 130.4911,-338.9937"/>
<polygon fill="#191970" stroke="#191970" points="129.4586,-342.3419 140.0531,-342.4358 131.8296,-335.7556 129.4586,-342.3419"/>
</g>
<!-- Node423 -->
<g id="node8" class="node">
<title>Node423</title>
<g id="a_node8"><a xlink:href="mqtt__msg_8h.html#a7f81b05d14bd1ccef30177c02f83d095" target="_top" xlink:title="mqtt_get_connect_return_code">
<polygon fill="#ffffff" stroke="#000000" points="117,-304.5 117,-323.5 237,-323.5 237,-304.5 117,-304.5"/>
<text text-anchor="middle" x="177" y="-311.5" font-family="Helvetica,sans-Serif" font-size="10.00" fill="#000000">mqtt_get_connect_return_code</text>
</a>
</g>
</g>
<!-- Node416&#45;&gt;Node423 -->
<g id="edge7" class="edge">
<title>Node416&#45;&gt;Node423</title>
<path fill="none" stroke="#191970" d="M74.9447,-285.589C92.4847,-290.4719 114.01,-296.4643 132.7631,-301.685"/>
<polygon fill="#191970" stroke="#191970" points="131.994,-305.1039 142.5663,-304.4141 133.8713,-298.3603 131.994,-305.1039"/>
</g>
<!-- Node424 -->
<g id="node9" class="node">
<title>Node424</title>
<g id="a_node9"><a xlink:href="mqtt__msg_8h.html#a978c9ffc0dda04260bdf808da49f7ba0" target="_top" xlink:title="mqtt_get_id">
<polygon fill="#ffffff" stroke="#000000" points="149,-456.5 149,-475.5 205,-475.5 205,-456.5 149,-456.5"/>
<text text-anchor="middle" x="177" y="-463.5" font-family="Helvetica,sans-Serif" font-size="10.00" fill="#000000">mqtt_get_id</text>
</a>
</g>
</g>
<!-- Node416&#45;&gt;Node424 -->
<g id="edge8" class="edge">
<title>Node416&#45;&gt;Node424</title>
<path fill="none" stroke="#191970" d="M42.3425,-285.7075C48.1593,-313.8027 68.686,-396.1043 117,-442 123.3141,-447.998 131.3156,-452.5652 139.4008,-456.0178"/>
<polygon fill="#191970" stroke="#191970" points="138.2426,-459.3216 148.8343,-459.5779 140.7142,-452.7725 138.2426,-459.3216"/>
</g>
<!-- Node425 -->
<g id="node10" class="node">
<title>Node425</title>
<g id="a_node10"><a xlink:href="mqtt__msg_8h.html#a6e8d943227c43545d9a0e253bfe4febd" target="_top" xlink:title="mqtt_get_type">
<polygon fill="#ffffff" stroke="#000000" points="288,-418.5 288,-437.5 352,-437.5 352,-418.5 288,-418.5"/>
<text text-anchor="middle" x="320" y="-425.5" font-family="Helvetica,sans-Serif" font-size="10.00" fill="#000000">mqtt_get_type</text>
</a>
</g>
</g>
<!-- Node416&#45;&gt;Node425 -->
<g id="edge13" class="edge">
<title>Node416&#45;&gt;Node425</title>
<path fill="none" stroke="#191970" d="M42.8315,-285.8444C49.431,-311.2933 70.8341,-379.3392 117,-409 165.3855,-440.0868 234.1224,-439.3674 277.8882,-434.6925"/>
<polygon fill="#191970" stroke="#191970" points="278.3902,-438.1577 287.9094,-433.5063 277.5672,-431.2062 278.3902,-438.1577"/>
</g>
<!-- Node426 -->
<g id="node11" class="node">
<title>Node426</title>
<g id="a_node11"><a xlink:href="mqtt__msg_8h.html#a909ec4dd399485d24351b39d64d7356c" target="_top" xlink:title="mqtt_get_total_length">
<polygon fill="#ffffff" stroke="#000000" points="132.5,-266.5 132.5,-285.5 221.5,-285.5 221.5,-266.5 132.5,-266.5"/>
<text text-anchor="middle" x="177" y="-273.5" font-family="Helvetica,sans-Serif" font-size="10.00" fill="#000000">mqtt_get_total_length</text>
</a>
</g>
</g>
<!-- Node416&#45;&gt;Node426 -->
<g id="edge12" class="edge">
<title>Node416&#45;&gt;Node426</title>
<path fill="none" stroke="#191970" d="M81.0849,-276C93.8602,-276 108.1922,-276 121.8045,-276"/>
<polygon fill="#191970" stroke="#191970" points="122.036,-279.5001 132.0359,-276 122.0359,-272.5001 122.036,-279.5001"/>
</g>
<!-- Node427 -->
<g id="node12" class="node">
<title>Node427</title>
<g id="a_node12"><a xlink:href="mqtt__msg_8h.html#a817f94301186a136c08abe582ca82401" target="_top" xlink:title="mqtt_msg_pingresp">
<polygon fill="#ffffff" stroke="#000000" points="136,-228.5 136,-247.5 218,-247.5 218,-228.5 136,-228.5"/>
<text text-anchor="middle" x="177" y="-235.5" font-family="Helvetica,sans-Serif" font-size="10.00" fill="#000000">mqtt_msg_pingresp</text>
</a>
</g>
</g>
<!-- Node416&#45;&gt;Node427 -->
<g id="edge14" class="edge">
<title>Node416&#45;&gt;Node427</title>
<path fill="none" stroke="#191970" d="M74.9447,-266.411C92.4847,-261.5281 114.01,-255.5357 132.7631,-250.315"/>
<polygon fill="#191970" stroke="#191970" points="133.8713,-253.6397 142.5663,-247.5859 131.994,-246.8961 133.8713,-253.6397"/>
</g>
<!-- Node430 -->
<g id="node15" class="node">
<title>Node430</title>
<g id="a_node15"><a xlink:href="mqtt__msg_8h.html#a203f5abf687140e00cbe5ceb271ae2a9" target="_top" xlink:title="mqtt_msg_puback">
<polygon fill="#ffffff" stroke="#000000" points="138,-152.5 138,-171.5 216,-171.5 216,-152.5 138,-152.5"/>
<text text-anchor="middle" x="177" y="-159.5" font-family="Helvetica,sans-Serif" font-size="10.00" fill="#000000">mqtt_msg_puback</text>
</a>
</g>
</g>
<!-- Node416&#45;&gt;Node430 -->
<g id="edge17" class="edge">
<title>Node416&#45;&gt;Node430</title>
<path fill="none" stroke="#191970" d="M45.6546,-266.3589C56.3695,-247.228 82.9142,-204.3076 117,-181 120.5007,-178.6063 124.319,-176.5016 128.2783,-174.6535"/>
<polygon fill="#191970" stroke="#191970" points="129.7667,-177.8259 137.689,-170.7911 127.1089,-171.3501 129.7667,-177.8259"/>
</g>
<!-- Node433 -->
<g id="node18" class="node">
<title>Node433</title>
<g id="a_node18"><a xlink:href="mqtt__msg_8h.html#a6ddf7abb65c3c9006ffb1c4cf72f4980" target="_top" xlink:title="mqtt_msg_pubcomp">
<polygon fill="#ffffff" stroke="#000000" points="135,-114.5 135,-133.5 219,-133.5 219,-114.5 135,-114.5"/>
<text text-anchor="middle" x="177" y="-121.5" font-family="Helvetica,sans-Serif" font-size="10.00" fill="#000000">mqtt_msg_pubcomp</text>
</a>
</g>
</g>
<!-- Node416&#45;&gt;Node433 -->
<g id="edge22" class="edge">
<title>Node416&#45;&gt;Node433</title>
<path fill="none" stroke="#191970" d="M43.334,-266.3444C50.9956,-241.9291 74.4621,-177.2406 117,-143 119.721,-140.8097 122.6982,-138.8702 125.825,-137.1529"/>
<polygon fill="#191970" stroke="#191970" points="127.3757,-140.2915 134.9449,-132.8782 124.4048,-133.9532 127.3757,-140.2915"/>
</g>
<!-- Node434 -->
<g id="node19" class="node">
<title>Node434</title>
<g id="a_node19"><a xlink:href="mqtt__msg_8h.html#a9a9bb0b46778aeeea9ed48a37de31232" target="_top" xlink:title="mqtt_msg_pubrec">
<polygon fill="#ffffff" stroke="#000000" points="138.5,-76.5 138.5,-95.5 215.5,-95.5 215.5,-76.5 138.5,-76.5"/>
<text text-anchor="middle" x="177" y="-83.5" font-family="Helvetica,sans-Serif" font-size="10.00" fill="#000000">mqtt_msg_pubrec</text>
</a>
</g>
</g>
<!-- Node416&#45;&gt;Node434 -->
<g id="edge27" class="edge">
<title>Node416&#45;&gt;Node434</title>
<path fill="none" stroke="#191970" d="M42.0134,-266.2409C47.0275,-237.2263 65.7907,-150.6812 117,-105 120.5825,-101.8042 124.7028,-99.1457 129.0706,-96.9342"/>
<polygon fill="#191970" stroke="#191970" points="130.4709,-100.1421 138.2909,-92.9937 127.72,-93.7052 130.4709,-100.1421"/>
</g>
<!-- Node435 -->
<g id="node20" class="node">
<title>Node435</title>
<g id="a_node20"><a xlink:href="mqtt__msg_8h.html#a144bc05ddeb251c82e48ed31d2cf16fb" target="_top" xlink:title="mqtt_msg_pubrel">
<polygon fill="#ffffff" stroke="#000000" points="140,-190.5 140,-209.5 214,-209.5 214,-190.5 140,-190.5"/>
<text text-anchor="middle" x="177" y="-197.5" font-family="Helvetica,sans-Serif" font-size="10.00" fill="#000000">mqtt_msg_pubrel</text>
</a>
</g>
</g>
<!-- Node416&#45;&gt;Node435 -->
<g id="edge32" class="edge">
<title>Node416&#45;&gt;Node435</title>
<path fill="none" stroke="#191970" d="M51.1241,-266.247C65.2282,-253.7516 91.352,-232.142 117,-219 121.2726,-216.8107 125.846,-214.8133 130.4911,-213.0063"/>
<polygon fill="#191970" stroke="#191970" points="131.8296,-216.2444 140.0531,-209.5642 129.4586,-209.6581 131.8296,-216.2444"/>
</g>
<!-- Node436 -->
<g id="node21" class="node">
<title>Node436</title>
<g id="a_node21"><a xlink:href="_meter_logger_2mqtt_2include_2queue_8h.html#a0a04f14d06c5c3ee302764c5f3d7dc0c" target="_top" xlink:title="QUEUE_Puts">
<polygon fill="#ffffff" stroke="#000000" points="146,-38.5 146,-57.5 208,-57.5 208,-38.5 146,-38.5"/>
<text text-anchor="middle" x="177" y="-45.5" font-family="Helvetica,sans-Serif" font-size="10.00" fill="#000000">QUEUE_Puts</text>
</a>
</g>
</g>
<!-- Node416&#45;&gt;Node436 -->
<g id="edge37" class="edge">
<title>Node416&#45;&gt;Node436</title>
<path fill="none" stroke="#191970" d="M41.1391,-266.0538C43.8146,-232.8109 56.974,-124.4295 117,-67 122.3736,-61.8589 129.131,-58.1084 136.1566,-55.3726"/>
<polygon fill="#191970" stroke="#191970" points="137.372,-58.6579 145.7984,-52.2355 135.2061,-52.0013 137.372,-58.6579"/>
</g>
<!-- Node439 -->
<g id="node24" class="node">
<title>Node439</title>
<g id="a_node24"><a xlink:href="user__interface_8h.html#adab1155f3a463f2b05a9bde65b37514f" target="_top" xlink:title="system_os_post">
<polygon fill="#ffffff" stroke="#000000" points="141.5,-.5 141.5,-19.5 212.5,-19.5 212.5,-.5 141.5,-.5"/>
<text text-anchor="middle" x="177" y="-7.5" font-family="Helvetica,sans-Serif" font-size="10.00" fill="#000000">system_os_post</text>
</a>
</g>
</g>
<!-- Node416&#45;&gt;Node439 -->
<g id="edge40" class="edge">
<title>Node416&#45;&gt;Node439</title>
<path fill="none" stroke="#191970" d="M42.2787,-266.2379C49.9984,-224.8567 81.7977,-64.4258 117,-29 121.1938,-24.7796 126.3182,-21.4949 131.7875,-18.9389"/>
<polygon fill="#191970" stroke="#191970" points="133.1528,-22.1636 141.2142,-15.2887 130.6251,-15.6358 133.1528,-22.1636"/>
</g>
<!-- Node418 -->
<g id="node3" class="node">
<title>Node418</title>
<g id="a_node3"><a xlink:href="mqtt__msg_8h.html#ad2fc8fef8cd7418255616ef63166c955" target="_top" xlink:title="mqtt_get_publish_data">
<polygon fill="#ffffff" stroke="#000000" points="274,-494.5 274,-513.5 366,-513.5 366,-494.5 274,-494.5"/>
<text text-anchor="middle" x="320" y="-501.5" font-family="Helvetica,sans-Serif" font-size="10.00" fill="#000000">mqtt_get_publish_data</text>
</a>
</g>
</g>
<!-- Node417&#45;&gt;Node418 -->
<g id="edge2" class="edge">
<title>Node417&#45;&gt;Node418</title>
<path fill="none" stroke="#191970" d="M210.5271,-504C226.4038,-504 245.7996,-504 263.8304,-504"/>
<polygon fill="#191970" stroke="#191970" points="263.9629,-507.5001 273.9629,-504 263.9629,-500.5001 263.9629,-507.5001"/>
</g>
<!-- Node420 -->
<g id="node5" class="node">
<title>Node420</title>
<g id="a_node5"><a xlink:href="mqtt__msg_8h.html#a5d19011be955cefc274da041bdbbd0e1" target="_top" xlink:title="mqtt_get_publish_topic">
<polygon fill="#ffffff" stroke="#000000" points="273,-532.5 273,-551.5 367,-551.5 367,-532.5 273,-532.5"/>
<text text-anchor="middle" x="320" y="-539.5" font-family="Helvetica,sans-Serif" font-size="10.00" fill="#000000">mqtt_get_publish_topic</text>
</a>
</g>
</g>
<!-- Node417&#45;&gt;Node420 -->
<g id="edge4" class="edge">
<title>Node417&#45;&gt;Node420</title>
<path fill="none" stroke="#191970" d="M210.5271,-512.9093C229.5398,-517.9616 253.599,-524.355 274.3174,-529.8606"/>
<polygon fill="#191970" stroke="#191970" points="273.6197,-533.2966 284.1832,-532.4822 275.4175,-526.5314 273.6197,-533.2966"/>
</g>
<!-- Node418&#45;&gt;Node419 -->
<g id="edge3" class="edge">
<title>Node418&#45;&gt;Node419</title>
<path fill="none" stroke="#191970" d="M366.1796,-504C375.636,-504 385.5302,-504 394.7982,-504"/>
<polygon fill="#191970" stroke="#191970" points="394.9392,-507.5001 404.9391,-504 394.9391,-500.5001 394.9392,-507.5001"/>
</g>
<!-- Node424&#45;&gt;Node419 -->
<g id="edge9" class="edge">
<title>Node424&#45;&gt;Node419</title>
<path fill="none" stroke="#191970" d="M205.2181,-467.3296C242.5097,-469.4262 310.1306,-474.4054 367,-485 376.4188,-486.7547 386.4237,-489.1761 395.8071,-491.7035"/>
<polygon fill="#191970" stroke="#191970" points="395.1152,-495.1441 405.6879,-494.4609 396.9968,-488.4017 395.1152,-495.1441"/>
</g>
<!-- Node424&#45;&gt;Node425 -->
<g id="edge10" class="edge">
<title>Node424&#45;&gt;Node425</title>
<path fill="none" stroke="#191970" d="M205.2522,-458.4924C226.0488,-452.9661 254.6644,-445.3619 278.1164,-439.1299"/>
<polygon fill="#191970" stroke="#191970" points="279.0476,-442.504 287.8133,-436.5531 277.2498,-435.7388 279.0476,-442.504"/>
</g>
<!-- Node428 -->
<g id="node13" class="node">
<title>Node428</title>
<g id="a_node13"><a xlink:href="mqtt__msg_8c.html#a356949afe8a334d5e91bddb4b2794921" target="_top" xlink:title="fini_message">
<polygon fill="#ffffff" stroke="#000000" points="289.5,-190.5 289.5,-209.5 350.5,-209.5 350.5,-190.5 289.5,-190.5"/>
<text text-anchor="middle" x="320" y="-197.5" font-family="Helvetica,sans-Serif" font-size="10.00" fill="#000000">fini_message</text>
</a>
</g>
</g>
<!-- Node427&#45;&gt;Node428 -->
<g id="edge15" class="edge">
<title>Node427&#45;&gt;Node428</title>
<path fill="none" stroke="#191970" d="M213.0849,-228.411C233.2785,-223.0449 258.5143,-216.3389 279.3966,-210.7897"/>
<polygon fill="#191970" stroke="#191970" points="280.4914,-214.1203 289.2571,-208.1695 278.6936,-207.3551 280.4914,-214.1203"/>
</g>
<!-- Node429 -->
<g id="node14" class="node">
<title>Node429</title>
<g id="a_node14"><a xlink:href="mqtt__msg_8c.html#aae7c66cc577ac90e9535edac4abc068c" target="_top" xlink:title="init_message">
<polygon fill="#ffffff" stroke="#000000" points="289.5,-152.5 289.5,-171.5 350.5,-171.5 350.5,-152.5 289.5,-152.5"/>
<text text-anchor="middle" x="320" y="-159.5" font-family="Helvetica,sans-Serif" font-size="10.00" fill="#000000">init_message</text>
</a>
</g>
</g>
<!-- Node427&#45;&gt;Node429 -->
<g id="edge16" class="edge">
<title>Node427&#45;&gt;Node429</title>
<path fill="none" stroke="#191970" d="M216.9925,-228.4631C223.9399,-225.9449 230.8883,-222.8279 237,-219 256.7165,-206.6512 253.7766,-194.1033 273,-181 275.6908,-179.1659 278.5856,-177.465 281.5692,-175.8972"/>
<polygon fill="#191970" stroke="#191970" points="283.1274,-179.032 290.6713,-171.5928 280.1348,-172.7039 283.1274,-179.032"/>
</g>
<!-- Node430&#45;&gt;Node428 -->
<g id="edge20" class="edge">
<title>Node430&#45;&gt;Node428</title>
<path fill="none" stroke="#191970" d="M213.0849,-171.589C233.2785,-176.9551 258.5143,-183.6611 279.3966,-189.2103"/>
<polygon fill="#191970" stroke="#191970" points="278.6936,-192.6449 289.2571,-191.8305 280.4914,-185.8797 278.6936,-192.6449"/>
</g>
<!-- Node430&#45;&gt;Node429 -->
<g id="edge21" class="edge">
<title>Node430&#45;&gt;Node429</title>
<path fill="none" stroke="#191970" d="M216.0754,-162C235.5622,-162 259.1259,-162 278.8856,-162"/>
<polygon fill="#191970" stroke="#191970" points="279.1252,-165.5001 289.1252,-162 279.1252,-158.5001 279.1252,-165.5001"/>
</g>
<!-- Node431 -->
<g id="node16" class="node">
<title>Node431</title>
<g id="a_node16"><a xlink:href="mqtt__msg_8c.html#ac59e26babd30c6c0ace9a174e75786f3" target="_top" xlink:title="append_message_id">
<polygon fill="#ffffff" stroke="#000000" points="277,-114.5 277,-133.5 363,-133.5 363,-114.5 277,-114.5"/>
<text text-anchor="middle" x="320" y="-121.5" font-family="Helvetica,sans-Serif" font-size="10.00" fill="#000000">append_message_id</text>
</a>
</g>
</g>
<!-- Node430&#45;&gt;Node431 -->
<g id="edge18" class="edge">
<title>Node430&#45;&gt;Node431</title>
<path fill="none" stroke="#191970" d="M213.0849,-152.411C231.6296,-147.4831 254.4265,-141.4251 274.199,-136.1709"/>
<polygon fill="#191970" stroke="#191970" points="275.1609,-139.5368 283.9266,-133.5859 273.3631,-132.7716 275.1609,-139.5368"/>
</g>
<!-- Node432 -->
<g id="node17" class="node">
<title>Node432</title>
<g id="a_node17"><a xlink:href="mqtt__msg_8c.html#a9a2fb8c67ff4b104dd46e72c9e97b710" target="_top" xlink:title="fail_message">
<polygon fill="#ffffff" stroke="#000000" points="289.5,-76.5 289.5,-95.5 350.5,-95.5 350.5,-76.5 289.5,-76.5"/>
<text text-anchor="middle" x="320" y="-83.5" font-family="Helvetica,sans-Serif" font-size="10.00" fill="#000000">fail_message</text>
</a>
</g>
</g>
<!-- Node430&#45;&gt;Node432 -->
<g id="edge19" class="edge">
<title>Node430&#45;&gt;Node432</title>
<path fill="none" stroke="#191970" d="M216.0452,-152.8028C223.3065,-150.2268 230.6105,-147.0019 237,-143 256.7165,-130.6512 253.7766,-118.1033 273,-105 275.6908,-103.1659 278.5856,-101.465 281.5692,-99.8972"/>
<polygon fill="#191970" stroke="#191970" points="283.1274,-103.032 290.6713,-95.5928 280.1348,-96.7039 283.1274,-103.032"/>
</g>
<!-- Node433&#45;&gt;Node428 -->
<g id="edge25" class="edge">
<title>Node433&#45;&gt;Node428</title>
<path fill="none" stroke="#191970" d="M216.9925,-133.5369C223.9399,-136.0551 230.8883,-139.1721 237,-143 256.7165,-155.3488 253.7766,-167.8967 273,-181 275.6908,-182.8341 278.5856,-184.535 281.5692,-186.1028"/>
<polygon fill="#191970" stroke="#191970" points="280.1348,-189.2961 290.6713,-190.4072 283.1274,-182.968 280.1348,-189.2961"/>
</g>
<!-- Node433&#45;&gt;Node429 -->
<g id="edge26" class="edge">
<title>Node433&#45;&gt;Node429</title>
<path fill="none" stroke="#191970" d="M213.0849,-133.589C233.2785,-138.9551 258.5143,-145.6611 279.3966,-151.2103"/>
<polygon fill="#191970" stroke="#191970" points="278.6936,-154.6449 289.2571,-153.8305 280.4914,-147.8797 278.6936,-154.6449"/>
</g>
<!-- Node433&#45;&gt;Node431 -->
<g id="edge23" class="edge">
<title>Node433&#45;&gt;Node431</title>
<path fill="none" stroke="#191970" d="M219.1313,-124C233.9993,-124 250.9181,-124 266.5946,-124"/>
<polygon fill="#191970" stroke="#191970" points="266.683,-127.5001 276.6829,-124 266.6829,-120.5001 266.683,-127.5001"/>
</g>
<!-- Node433&#45;&gt;Node432 -->
<g id="edge24" class="edge">
<title>Node433&#45;&gt;Node432</title>
<path fill="none" stroke="#191970" d="M213.0849,-114.411C233.2785,-109.0449 258.5143,-102.3389 279.3966,-96.7897"/>
<polygon fill="#191970" stroke="#191970" points="280.4914,-100.1203 289.2571,-94.1695 278.6936,-93.3551 280.4914,-100.1203"/>
</g>
<!-- Node434&#45;&gt;Node428 -->
<g id="edge30" class="edge">
<title>Node434&#45;&gt;Node428</title>
<path fill="none" stroke="#191970" d="M215.6211,-93.0935C223.3247,-95.8529 230.9082,-99.6834 237,-105 265.1595,-129.576 245.8136,-155.3517 273,-181 275.2327,-183.1063 277.7293,-184.9914 280.3765,-186.6764"/>
<polygon fill="#191970" stroke="#191970" points="278.7376,-189.769 289.2057,-191.4028 282.0413,-183.5976 278.7376,-189.769"/>
</g>
<!-- Node434&#45;&gt;Node429 -->
<g id="edge31" class="edge">
<title>Node434&#45;&gt;Node429</title>
<path fill="none" stroke="#191970" d="M215.7295,-95.0856C223.0946,-97.6799 230.5179,-100.9401 237,-105 256.7165,-117.3488 253.7766,-129.8967 273,-143 275.6908,-144.8341 278.5856,-146.535 281.5692,-148.1028"/>
<polygon fill="#191970" stroke="#191970" points="280.1348,-151.2961 290.6713,-152.4072 283.1274,-144.968 280.1348,-151.2961"/>
</g>
<!-- Node434&#45;&gt;Node431 -->
<g id="edge28" class="edge">
<title>Node434&#45;&gt;Node431</title>
<path fill="none" stroke="#191970" d="M213.0849,-95.589C231.6296,-100.5169 254.4265,-106.5749 274.199,-111.8291"/>
<polygon fill="#191970" stroke="#191970" points="273.3631,-115.2284 283.9266,-114.4141 275.1609,-108.4632 273.3631,-115.2284"/>
</g>
<!-- Node434&#45;&gt;Node432 -->
<g id="edge29" class="edge">
<title>Node434&#45;&gt;Node432</title>
<path fill="none" stroke="#191970" d="M215.6979,-86C235.4202,-86 259.3937,-86 279.3816,-86"/>
<polygon fill="#191970" stroke="#191970" points="279.4271,-89.5001 289.4271,-86 279.4271,-82.5001 279.4271,-89.5001"/>
</g>
<!-- Node435&#45;&gt;Node428 -->
<g id="edge35" class="edge">
<title>Node435&#45;&gt;Node428</title>
<path fill="none" stroke="#191970" d="M214.1983,-200C234.071,-200 258.5768,-200 278.998,-200"/>
<polygon fill="#191970" stroke="#191970" points="279.2585,-203.5001 289.2584,-200 279.2584,-196.5001 279.2585,-203.5001"/>
</g>
<!-- Node435&#45;&gt;Node429 -->
<g id="edge36" class="edge">
<title>Node435&#45;&gt;Node429</title>
<path fill="none" stroke="#191970" d="M213.0849,-190.411C233.2785,-185.0449 258.5143,-178.3389 279.3966,-172.7897"/>
<polygon fill="#191970" stroke="#191970" points="280.4914,-176.1203 289.2571,-170.1695 278.6936,-169.3551 280.4914,-176.1203"/>
</g>
<!-- Node435&#45;&gt;Node431 -->
<g id="edge33" class="edge">
<title>Node435&#45;&gt;Node431</title>
<path fill="none" stroke="#191970" d="M214.1525,-191.4602C222.0294,-188.7817 230.0549,-185.3499 237,-181 256.7165,-168.6512 253.7766,-156.1033 273,-143 275.6908,-141.1659 278.5856,-139.465 281.5692,-137.8972"/>
<polygon fill="#191970" stroke="#191970" points="283.1274,-141.032 290.6713,-133.5928 280.1348,-134.7039 283.1274,-141.032"/>
</g>
<!-- Node435&#45;&gt;Node432 -->
<g id="edge34" class="edge">
<title>Node435&#45;&gt;Node432</title>
<path fill="none" stroke="#191970" d="M214.0583,-193.4513C222.2931,-190.658 230.4965,-186.6758 237,-181 265.1595,-156.424 245.8136,-130.6483 273,-105 275.2327,-102.8937 277.7293,-101.0086 280.3765,-99.3236"/>
<polygon fill="#191970" stroke="#191970" points="282.0413,-102.4024 289.2057,-94.5972 278.7376,-96.231 282.0413,-102.4024"/>
</g>
<!-- Node437 -->
<g id="node22" class="node">
<title>Node437</title>
<g id="a_node22"><a xlink:href="proto_8h.html#aeeb0162a48bf377e468e5fca672a5df1" target="_top" xlink:title="PROTO_AddRb">
<polygon fill="#ffffff" stroke="#000000" points="285,-38.5 285,-57.5 355,-57.5 355,-38.5 285,-38.5"/>
<text text-anchor="middle" x="320" y="-45.5" font-family="Helvetica,sans-Serif" font-size="10.00" fill="#000000">PROTO_AddRb</text>
</a>
</g>
</g>
<!-- Node436&#45;&gt;Node437 -->
<g id="edge38" class="edge">
<title>Node436&#45;&gt;Node437</title>
<path fill="none" stroke="#191970" d="M208.0289,-48C227.5299,-48 253.0199,-48 274.7524,-48"/>
<polygon fill="#191970" stroke="#191970" points="274.7564,-51.5001 284.7563,-48 274.7563,-44.5001 274.7564,-51.5001"/>
</g>
<!-- Node438 -->
<g id="node23" class="node">
<title>Node438</title>
<g id="a_node23"><a xlink:href="ringbuf_8h.html#a717173daf1397da584236ed52bbec10a" target="_top" xlink:title="put a character into ring buffer ">
<polygon fill="#ffffff" stroke="#000000" points="403,-38.5 403,-57.5 469,-57.5 469,-38.5 403,-38.5"/>
<text text-anchor="middle" x="436" y="-45.5" font-family="Helvetica,sans-Serif" font-size="10.00" fill="#000000">RINGBUF_Put</text>
</a>
</g>
</g>
<!-- Node437&#45;&gt;Node438 -->
<g id="edge39" class="edge">
<title>Node437&#45;&gt;Node438</title>
<path fill="none" stroke="#191970" d="M355.1186,-48C366.9966,-48 380.3993,-48 392.8282,-48"/>
<polygon fill="#191970" stroke="#191970" points="392.9846,-51.5001 402.9846,-48 392.9845,-44.5001 392.9846,-51.5001"/>
</g>
</g>
</svg>
