<?xml version="1.0" encoding="UTF-8" standalone="no"?>
<!DOCTYPE svg PUBLIC "-//W3C//DTD SVG 1.1//EN"
 "http://www.w3.org/Graphics/SVG/1.1/DTD/svg11.dtd">
<!-- Generated by graphviz version 2.40.1 (20161225.0304)
 -->
<!-- Title: mqtt_tcpclient_recon_cb Pages: 1 -->
<svg width="413pt" height="28pt"
 viewBox="0.00 0.00 413.00 28.00" xmlns="http://www.w3.org/2000/svg" xmlns:xlink="http://www.w3.org/1999/xlink">
<g id="graph0" class="graph" transform="scale(1 1) rotate(0) translate(4 24)">
<title>mqtt_tcpclient_recon_cb</title>
<polygon fill="#ffffff" stroke="transparent" points="-4,4 -4,-24 409,-24 409,4 -4,4"/>
<!-- Node412 -->
<g id="node1" class="node">
<title>Node412</title>
<polygon fill="#bfbfbf" stroke="#000000" points="0,-.5 0,-19.5 98,-19.5 98,-.5 0,-.5"/>
<text text-anchor="middle" x="49" y="-7.5" font-family="Helvetica,sans-Serif" font-size="10.00" fill="#000000">mqtt_tcpclient_recon_cb</text>
</g>
<!-- Node413 -->
<g id="node2" class="node">
<title>Node413</title>
<g id="a_node2"><a xlink:href="mqtt_8c.html#ad34b681cb2f7473d8fc786c7ed468db5" target="_top" xlink:title="Begin connect to MQTT broker. ">
<polygon fill="#ffffff" stroke="#000000" points="134,-.5 134,-19.5 204,-19.5 204,-.5 134,-.5"/>
<text text-anchor="middle" x="169" y="-7.5" font-family="Helvetica,sans-Serif" font-size="10.00" fill="#000000">MQTT_Connect</text>
</a>
</g>
</g>
<!-- Node412&#45;&gt;Node413 -->
<g id="edge1" class="edge">
<title>Node412&#45;&gt;Node413</title>
<path fill="none" stroke="#191970" d="M108.2998,-10C116.9867,-10 125.6931,-10 133.6906,-10"/>
<polygon fill="#191970" stroke="#191970" points="108.1549,-6.5001 98.1548,-10 108.1548,-13.5001 108.1549,-6.5001"/>
</g>
<!-- Node414 -->
<g id="node3" class="node">
<title>Node414</title>
<g id="a_node3"><a xlink:href="mqtt_8c.html#a9d88fa6efb9163d4dbf9dc750a8d4ed0" target="_top" xlink:title="MQTT_Task">
<polygon fill="#ffffff" stroke="#000000" points="240,-.5 240,-19.5 298,-19.5 298,-.5 240,-.5"/>
<text text-anchor="middle" x="269" y="-7.5" font-family="Helvetica,sans-Serif" font-size="10.00" fill="#000000">MQTT_Task</text>
</a>
</g>
</g>
<!-- Node413&#45;&gt;Node414 -->
<g id="edge2" class="edge">
<title>Node413&#45;&gt;Node414</title>
<path fill="none" stroke="#191970" d="M214.5243,-10C223.0694,-10 231.7902,-10 239.6776,-10"/>
<polygon fill="#191970" stroke="#191970" points="214.2563,-6.5001 204.2563,-10 214.2562,-13.5001 214.2563,-6.5001"/>
</g>
<!-- Node415 -->
<g id="node4" class="node">
<title>Node415</title>
<g id="a_node4"><a xlink:href="mqtt_8c.html#a25cb7ac079d1d119250dac075c45acf1" target="_top" xlink:title="MQTT initialization mqtt client function. ">
<polygon fill="#ffffff" stroke="#000000" points="334,-.5 334,-19.5 405,-19.5 405,-.5 334,-.5"/>
<text text-anchor="middle" x="369.5" y="-7.5" font-family="Helvetica,sans-Serif" font-size="10.00" fill="#000000">MQTT_InitClient</text>
</a>
</g>
</g>
<!-- Node414&#45;&gt;Node415 -->
<g id="edge3" class="edge">
<title>Node414&#45;&gt;Node415</title>
<path fill="none" stroke="#191970" d="M308.0779,-10C316.52,-10 325.4052,-10 333.7137,-10"/>
<polygon fill="#191970" stroke="#191970" points="308.0688,-6.5001 298.0688,-10 308.0687,-13.5001 308.0688,-6.5001"/>
</g>
</g>
</svg>
