<?xml version="1.0" encoding="UTF-8" standalone="no"?>
<!DOCTYPE svg PUBLIC "-//W3C//DTD SVG 1.1//EN"
 "http://www.w3.org/Graphics/SVG/1.1/DTD/svg11.dtd">
<!-- Generated by graphviz version 2.40.1 (20161225.0304)
 -->
<!-- Title: mqtt_timer Pages: 1 -->
<svg width="367pt" height="28pt"
 viewBox="0.00 0.00 367.00 28.00" xmlns="http://www.w3.org/2000/svg" xmlns:xlink="http://www.w3.org/1999/xlink">
<g id="graph0" class="graph" transform="scale(1 1) rotate(0) translate(4 24)">
<title>mqtt_timer</title>
<polygon fill="#ffffff" stroke="transparent" points="-4,4 -4,-24 363,-24 363,4 -4,4"/>
<!-- Node454 -->
<g id="node1" class="node">
<title>Node454</title>
<polygon fill="#bfbfbf" stroke="#000000" points="0,-.5 0,-19.5 52,-19.5 52,-.5 0,-.5"/>
<text text-anchor="middle" x="26" y="-7.5" font-family="Helvetica,sans-Serif" font-size="10.00" fill="#000000">mqtt_timer</text>
</g>
<!-- Node455 -->
<g id="node2" class="node">
<title>Node455</title>
<g id="a_node2"><a xlink:href="mqtt_8c.html#ad34b681cb2f7473d8fc786c7ed468db5" target="_top" xlink:title="Begin connect to MQTT broker. ">
<polygon fill="#ffffff" stroke="#000000" points="88,-.5 88,-19.5 158,-19.5 158,-.5 88,-.5"/>
<text text-anchor="middle" x="123" y="-7.5" font-family="Helvetica,sans-Serif" font-size="10.00" fill="#000000">MQTT_Connect</text>
</a>
</g>
</g>
<!-- Node454&#45;&gt;Node455 -->
<g id="edge1" class="edge">
<title>Node454&#45;&gt;Node455</title>
<path fill="none" stroke="#191970" d="M62.4778,-10C70.8313,-10 79.6926,-10 87.9829,-10"/>
<polygon fill="#191970" stroke="#191970" points="62.2496,-6.5001 52.2496,-10 62.2496,-13.5001 62.2496,-6.5001"/>
</g>
<!-- Node456 -->
<g id="node3" class="node">
<title>Node456</title>
<g id="a_node3"><a xlink:href="mqtt_8c.html#a9d88fa6efb9163d4dbf9dc750a8d4ed0" target="_top" xlink:title="MQTT_Task">
<polygon fill="#ffffff" stroke="#000000" points="194,-.5 194,-19.5 252,-19.5 252,-.5 194,-.5"/>
<text text-anchor="middle" x="223" y="-7.5" font-family="Helvetica,sans-Serif" font-size="10.00" fill="#000000">MQTT_Task</text>
</a>
</g>
</g>
<!-- Node455&#45;&gt;Node456 -->
<g id="edge2" class="edge">
<title>Node455&#45;&gt;Node456</title>
<path fill="none" stroke="#191970" d="M168.5243,-10C177.0694,-10 185.7902,-10 193.6776,-10"/>
<polygon fill="#191970" stroke="#191970" points="168.2563,-6.5001 158.2563,-10 168.2562,-13.5001 168.2563,-6.5001"/>
</g>
<!-- Node457 -->
<g id="node4" class="node">
<title>Node457</title>
<g id="a_node4"><a xlink:href="mqtt_8c.html#a25cb7ac079d1d119250dac075c45acf1" target="_top" xlink:title="MQTT initialization mqtt client function. ">
<polygon fill="#ffffff" stroke="#000000" points="288,-.5 288,-19.5 359,-19.5 359,-.5 288,-.5"/>
<text text-anchor="middle" x="323.5" y="-7.5" font-family="Helvetica,sans-Serif" font-size="10.00" fill="#000000">MQTT_InitClient</text>
</a>
</g>
</g>
<!-- Node456&#45;&gt;Node457 -->
<g id="edge3" class="edge">
<title>Node456&#45;&gt;Node457</title>
<path fill="none" stroke="#191970" d="M262.0779,-10C270.52,-10 279.4052,-10 287.7137,-10"/>
<polygon fill="#191970" stroke="#191970" points="262.0688,-6.5001 252.0688,-10 262.0687,-13.5001 262.0688,-6.5001"/>
</g>
</g>
</svg>
