<?xml version="1.0" encoding="UTF-8" standalone="no"?>
<!DOCTYPE svg PUBLIC "-//W3C//DTD SVG 1.1//EN"
 "http://www.w3.org/Graphics/SVG/1.1/DTD/svg11.dtd">
<!-- Generated by graphviz version 2.40.1 (20161225.0304)
 -->
<!-- Title: append_message_id Pages: 1 -->
<svg width="812pt" height="256pt"
 viewBox="0.00 0.00 812.00 256.00" xmlns="http://www.w3.org/2000/svg" xmlns:xlink="http://www.w3.org/1999/xlink">
<g id="graph0" class="graph" transform="scale(1 1) rotate(0) translate(4 252)">
<title>append_message_id</title>
<polygon fill="#ffffff" stroke="transparent" points="-4,4 -4,-252 808,-252 808,4 -4,4"/>
<!-- Node3 -->
<g id="node1" class="node">
<title>Node3</title>
<polygon fill="#bfbfbf" stroke="#000000" points="0,-114.5 0,-133.5 86,-133.5 86,-114.5 0,-114.5"/>
<text text-anchor="middle" x="43" y="-121.5" font-family="Helvetica,sans-Serif" font-size="10.00" fill="#000000">append_message_id</text>
</g>
<!-- Node4 -->
<g id="node2" class="node">
<title>Node4</title>
<g id="a_node2"><a xlink:href="mqtt__msg_8c.html#a203f5abf687140e00cbe5ceb271ae2a9" target="_top" xlink:title="mqtt_msg_puback">
<polygon fill="#ffffff" stroke="#000000" points="130,-114.5 130,-133.5 208,-133.5 208,-114.5 130,-114.5"/>
<text text-anchor="middle" x="169" y="-121.5" font-family="Helvetica,sans-Serif" font-size="10.00" fill="#000000">mqtt_msg_puback</text>
</a>
</g>
</g>
<!-- Node3&#45;&gt;Node4 -->
<g id="edge1" class="edge">
<title>Node3&#45;&gt;Node4</title>
<path fill="none" stroke="#191970" d="M96.2428,-124C107.5647,-124 119.3175,-124 129.9903,-124"/>
<polygon fill="#191970" stroke="#191970" points="96.0097,-120.5001 86.0096,-124 96.0096,-127.5001 96.0097,-120.5001"/>
</g>
<!-- Node11 -->
<g id="node9" class="node">
<title>Node11</title>
<g id="a_node9"><a xlink:href="mqtt__msg_8c.html#a6ddf7abb65c3c9006ffb1c4cf72f4980" target="_top" xlink:title="mqtt_msg_pubcomp">
<polygon fill="#ffffff" stroke="#000000" points="127,-228.5 127,-247.5 211,-247.5 211,-228.5 127,-228.5"/>
<text text-anchor="middle" x="169" y="-235.5" font-family="Helvetica,sans-Serif" font-size="10.00" fill="#000000">mqtt_msg_pubcomp</text>
</a>
</g>
</g>
<!-- Node3&#45;&gt;Node11 -->
<g id="edge8" class="edge">
<title>Node3&#45;&gt;Node11</title>
<path fill="none" stroke="#191970" d="M54.2122,-142.3384C67.898,-163.3823 92.8539,-197.7209 122,-219 127.118,-222.7366 133.0749,-225.8743 138.994,-228.4544"/>
<polygon fill="#191970" stroke="#191970" points="57.0492,-140.2763 48.7426,-133.6998 51.1349,-144.021 57.0492,-140.2763"/>
</g>
<!-- Node12 -->
<g id="node10" class="node">
<title>Node12</title>
<g id="a_node10"><a xlink:href="mqtt__msg_8c.html#af16842423fc1d5d802a7f329fc3a9ef9" target="_top" xlink:title="mqtt_msg_publish">
<polygon fill="#ffffff" stroke="#000000" points="130.5,-76.5 130.5,-95.5 207.5,-95.5 207.5,-76.5 130.5,-76.5"/>
<text text-anchor="middle" x="169" y="-83.5" font-family="Helvetica,sans-Serif" font-size="10.00" fill="#000000">mqtt_msg_publish</text>
</a>
</g>
</g>
<!-- Node3&#45;&gt;Node12 -->
<g id="edge11" class="edge">
<title>Node3&#45;&gt;Node12</title>
<path fill="none" stroke="#191970" d="M84.5644,-111.4647C101.7052,-106.2952 121.2496,-100.4009 137.2151,-95.5859"/>
<polygon fill="#191970" stroke="#191970" points="83.3586,-108.1726 74.7951,-114.411 85.3798,-114.8744 83.3586,-108.1726"/>
</g>
<!-- Node21 -->
<g id="node19" class="node">
<title>Node21</title>
<g id="a_node19"><a xlink:href="mqtt__msg_8c.html#a9a9bb0b46778aeeea9ed48a37de31232" target="_top" xlink:title="mqtt_msg_pubrec">
<polygon fill="#ffffff" stroke="#000000" points="130.5,-190.5 130.5,-209.5 207.5,-209.5 207.5,-190.5 130.5,-190.5"/>
<text text-anchor="middle" x="169" y="-197.5" font-family="Helvetica,sans-Serif" font-size="10.00" fill="#000000">mqtt_msg_pubrec</text>
</a>
</g>
</g>
<!-- Node3&#45;&gt;Node21 -->
<g id="edge22" class="edge">
<title>Node3&#45;&gt;Node21</title>
<path fill="none" stroke="#191970" d="M62.2604,-139.9236C77.7391,-152.2087 100.3896,-169.0649 122,-181 128.3176,-184.4891 135.4101,-187.6924 142.1331,-190.435"/>
<polygon fill="#191970" stroke="#191970" points="64.4334,-137.1797 54.4512,-133.6291 60.0405,-142.6297 64.4334,-137.1797"/>
</g>
<!-- Node22 -->
<g id="node20" class="node">
<title>Node22</title>
<g id="a_node20"><a xlink:href="mqtt__msg_8c.html#a144bc05ddeb251c82e48ed31d2cf16fb" target="_top" xlink:title="mqtt_msg_pubrel">
<polygon fill="#ffffff" stroke="#000000" points="132,-152.5 132,-171.5 206,-171.5 206,-152.5 132,-152.5"/>
<text text-anchor="middle" x="169" y="-159.5" font-family="Helvetica,sans-Serif" font-size="10.00" fill="#000000">mqtt_msg_pubrel</text>
</a>
</g>
</g>
<!-- Node3&#45;&gt;Node22 -->
<g id="edge25" class="edge">
<title>Node3&#45;&gt;Node22</title>
<path fill="none" stroke="#191970" d="M84.5644,-136.5353C101.7052,-141.7048 121.2496,-147.5991 137.2151,-152.4141"/>
<polygon fill="#191970" stroke="#191970" points="85.3798,-133.1256 74.7951,-133.589 83.3586,-139.8274 85.3798,-133.1256"/>
</g>
<!-- Node23 -->
<g id="node21" class="node">
<title>Node23</title>
<g id="a_node21"><a xlink:href="mqtt__msg_8c.html#adff62ede8c5069101032913d4434baad" target="_top" xlink:title="mqtt_msg_subscribe">
<polygon fill="#ffffff" stroke="#000000" points="126,-38.5 126,-57.5 212,-57.5 212,-38.5 126,-38.5"/>
<text text-anchor="middle" x="169" y="-45.5" font-family="Helvetica,sans-Serif" font-size="10.00" fill="#000000">mqtt_msg_subscribe</text>
</a>
</g>
</g>
<!-- Node3&#45;&gt;Node23 -->
<g id="edge28" class="edge">
<title>Node3&#45;&gt;Node23</title>
<path fill="none" stroke="#191970" d="M62.2604,-108.0764C77.7391,-95.7913 100.3896,-78.9351 122,-67 128.3176,-63.5109 135.4101,-60.3076 142.1331,-57.565"/>
<polygon fill="#191970" stroke="#191970" points="60.0405,-105.3703 54.4512,-114.3709 64.4334,-110.8203 60.0405,-105.3703"/>
</g>
<!-- Node25 -->
<g id="node23" class="node">
<title>Node25</title>
<g id="a_node23"><a xlink:href="mqtt__msg_8c.html#a5b329f56f9757307102a494232b2cf92" target="_top" xlink:title="mqtt_msg_unsubscribe">
<polygon fill="#ffffff" stroke="#000000" points="122,-.5 122,-19.5 216,-19.5 216,-.5 122,-.5"/>
<text text-anchor="middle" x="169" y="-7.5" font-family="Helvetica,sans-Serif" font-size="10.00" fill="#000000">mqtt_msg_unsubscribe</text>
</a>
</g>
</g>
<!-- Node3&#45;&gt;Node25 -->
<g id="edge31" class="edge">
<title>Node3&#45;&gt;Node25</title>
<path fill="none" stroke="#191970" d="M54.2122,-105.6616C67.898,-84.6177 92.8539,-50.2791 122,-29 127.118,-25.2634 133.0749,-22.1257 138.994,-19.5456"/>
<polygon fill="#191970" stroke="#191970" points="51.1349,-103.979 48.7426,-114.3002 57.0492,-107.7237 51.1349,-103.979"/>
</g>
<!-- Node5 -->
<g id="node3" class="node">
<title>Node5</title>
<g id="a_node3"><a xlink:href="mqtt__msg_8h.html#affd61b4be51d1e29e51dfbc42489ba36" target="_top" xlink:title="mqtt_get_retain">
<polygon fill="#ffffff" stroke="#000000" points="260,-114.5 260,-133.5 329,-133.5 329,-114.5 260,-114.5"/>
<text text-anchor="middle" x="294.5" y="-121.5" font-family="Helvetica,sans-Serif" font-size="10.00" fill="#000000">mqtt_get_retain</text>
</a>
</g>
</g>
<!-- Node4&#45;&gt;Node5 -->
<g id="edge2" class="edge">
<title>Node4&#45;&gt;Node5</title>
<path fill="none" stroke="#191970" d="M218.3782,-124C232.2161,-124 246.9638,-124 259.7574,-124"/>
<polygon fill="#191970" stroke="#191970" points="218.0211,-120.5001 208.021,-124 218.021,-127.5001 218.0211,-120.5001"/>
</g>
<!-- Node6 -->
<g id="node4" class="node">
<title>Node6</title>
<g id="a_node4"><a xlink:href="mqtt_8c.html#af470856972320b9c02da9fcb6f419fd0" target="_top" xlink:title="Client received callback function. ">
<polygon fill="#ffffff" stroke="#000000" points="254,-171.5 254,-190.5 335,-190.5 335,-171.5 254,-171.5"/>
<text text-anchor="middle" x="294.5" y="-178.5" font-family="Helvetica,sans-Serif" font-size="10.00" fill="#000000">mqtt_tcpclient_recv</text>
</a>
</g>
</g>
<!-- Node4&#45;&gt;Node6 -->
<g id="edge3" class="edge">
<title>Node4&#45;&gt;Node6</title>
<path fill="none" stroke="#191970" d="M202.9925,-137.4282C207.388,-139.2562 211.8139,-141.1432 216,-143 236.6227,-152.1477 259.832,-163.5198 275.6307,-171.4281"/>
<polygon fill="#191970" stroke="#191970" points="204.1046,-134.1016 193.5238,-133.5548 201.4541,-140.5805 204.1046,-134.1016"/>
</g>
<!-- Node7 -->
<g id="node5" class="node">
<title>Node7</title>
<g id="a_node5"><a xlink:href="mqtt_8c.html#a36ecd969af1b9c87856f01be064a98cc" target="_top" xlink:title="Tcp client connect success callback function. ">
<polygon fill="#ffffff" stroke="#000000" points="373,-171.5 373,-190.5 478,-190.5 478,-171.5 373,-171.5"/>
<text text-anchor="middle" x="425.5" y="-178.5" font-family="Helvetica,sans-Serif" font-size="10.00" fill="#000000">mqtt_tcpclient_connect_cb</text>
</a>
</g>
</g>
<!-- Node6&#45;&gt;Node7 -->
<g id="edge4" class="edge">
<title>Node6&#45;&gt;Node7</title>
<path fill="none" stroke="#191970" d="M345.5032,-181C354.4381,-181 363.7519,-181 372.7334,-181"/>
<polygon fill="#191970" stroke="#191970" points="345.2312,-177.5001 335.2311,-181 345.2311,-184.5001 345.2312,-177.5001"/>
</g>
<!-- Node8 -->
<g id="node6" class="node">
<title>Node8</title>
<g id="a_node6"><a xlink:href="mqtt_8c.html#ad34b681cb2f7473d8fc786c7ed468db5" target="_top" xlink:title="Begin connect to MQTT broker. ">
<polygon fill="#ffffff" stroke="#000000" points="523.5,-171.5 523.5,-190.5 593.5,-190.5 593.5,-171.5 523.5,-171.5"/>
<text text-anchor="middle" x="558.5" y="-178.5" font-family="Helvetica,sans-Serif" font-size="10.00" fill="#000000">MQTT_Connect</text>
</a>
</g>
</g>
<!-- Node7&#45;&gt;Node8 -->
<g id="edge5" class="edge">
<title>Node7&#45;&gt;Node8</title>
<path fill="none" stroke="#191970" d="M488.1828,-181C500.3177,-181 512.6227,-181 523.4743,-181"/>
<polygon fill="#191970" stroke="#191970" points="488.0652,-177.5001 478.0651,-181 488.0651,-184.5001 488.0652,-177.5001"/>
</g>
<!-- Node9 -->
<g id="node7" class="node">
<title>Node9</title>
<g id="a_node7"><a xlink:href="mqtt_8c.html#a9d88fa6efb9163d4dbf9dc750a8d4ed0" target="_top" xlink:title="MQTT_Task">
<polygon fill="#ffffff" stroke="#000000" points="639,-171.5 639,-190.5 697,-190.5 697,-171.5 639,-171.5"/>
<text text-anchor="middle" x="668" y="-178.5" font-family="Helvetica,sans-Serif" font-size="10.00" fill="#000000">MQTT_Task</text>
</a>
</g>
</g>
<!-- Node8&#45;&gt;Node9 -->
<g id="edge6" class="edge">
<title>Node8&#45;&gt;Node9</title>
<path fill="none" stroke="#191970" d="M603.8746,-181C615.6354,-181 627.991,-181 638.683,-181"/>
<polygon fill="#191970" stroke="#191970" points="603.7493,-177.5001 593.7492,-181 603.7492,-184.5001 603.7493,-177.5001"/>
</g>
<!-- Node10 -->
<g id="node8" class="node">
<title>Node10</title>
<g id="a_node8"><a xlink:href="mqtt_8c.html#a25cb7ac079d1d119250dac075c45acf1" target="_top" xlink:title="MQTT initialization mqtt client function. ">
<polygon fill="#ffffff" stroke="#000000" points="733,-171.5 733,-190.5 804,-190.5 804,-171.5 733,-171.5"/>
<text text-anchor="middle" x="768.5" y="-178.5" font-family="Helvetica,sans-Serif" font-size="10.00" fill="#000000">MQTT_InitClient</text>
</a>
</g>
</g>
<!-- Node9&#45;&gt;Node10 -->
<g id="edge7" class="edge">
<title>Node9&#45;&gt;Node10</title>
<path fill="none" stroke="#191970" d="M707.0779,-181C715.52,-181 724.4052,-181 732.7137,-181"/>
<polygon fill="#191970" stroke="#191970" points="707.0688,-177.5001 697.0688,-181 707.0687,-184.5001 707.0688,-177.5001"/>
</g>
<!-- Node11&#45;&gt;Node5 -->
<g id="edge9" class="edge">
<title>Node11&#45;&gt;Node5</title>
<path fill="none" stroke="#191970" d="M209.735,-223.5175C211.941,-222.1323 214.0494,-220.6291 216,-219 238.9973,-199.7932 232.6452,-184.8729 252,-162 261.0788,-151.271 273.1621,-140.7527 282.1235,-133.5124"/>
<polygon fill="#191970" stroke="#191970" points="208.0163,-220.4678 200.8713,-228.2908 211.3353,-226.6309 208.0163,-220.4678"/>
</g>
<!-- Node11&#45;&gt;Node6 -->
<g id="edge10" class="edge">
<title>Node11&#45;&gt;Node6</title>
<path fill="none" stroke="#191970" d="M202.9925,-224.5718C207.388,-222.7438 211.8139,-220.8568 216,-219 236.6227,-209.8523 259.832,-198.4802 275.6307,-190.5719"/>
<polygon fill="#191970" stroke="#191970" points="201.4541,-221.4195 193.5238,-228.4452 204.1046,-227.8984 201.4541,-221.4195"/>
</g>
<!-- Node12&#45;&gt;Node5 -->
<g id="edge12" class="edge">
<title>Node12&#45;&gt;Node5</title>
<path fill="none" stroke="#191970" d="M210.3995,-98.5353C227.4723,-103.7048 246.9391,-109.5991 262.8412,-114.4141"/>
<polygon fill="#191970" stroke="#191970" points="211.2541,-95.1372 200.6689,-95.589 209.2255,-101.8368 211.2541,-95.1372"/>
</g>
<!-- Node13 -->
<g id="node11" class="node">
<title>Node13</title>
<g id="a_node11"><a xlink:href="mqtt_8c.html#a848a6701c4c7ec3432e38ea57c003aad" target="_top" xlink:title="MQTT publish function. ">
<polygon fill="#ffffff" stroke="#000000" points="261,-76.5 261,-95.5 328,-95.5 328,-76.5 261,-76.5"/>
<text text-anchor="middle" x="294.5" y="-83.5" font-family="Helvetica,sans-Serif" font-size="10.00" fill="#000000">MQTT_Publish</text>
</a>
</g>
</g>
<!-- Node12&#45;&gt;Node13 -->
<g id="edge13" class="edge">
<title>Node12&#45;&gt;Node13</title>
<path fill="none" stroke="#191970" d="M217.9092,-86C232.2701,-86 247.6488,-86 260.8296,-86"/>
<polygon fill="#191970" stroke="#191970" points="217.6782,-82.5001 207.6782,-86 217.6781,-89.5001 217.6782,-82.5001"/>
</g>
<!-- Node14 -->
<g id="node12" class="node">
<title>Node14</title>
<g id="a_node12"><a xlink:href="en61107__request_8c.html#aa3b162cf5364986ea19e831ac2b18f76" target="_top" xlink:title="en61107_received_task">
<polygon fill="#ffffff" stroke="#000000" points="377.5,-7.5 377.5,-26.5 473.5,-26.5 473.5,-7.5 377.5,-7.5"/>
<text text-anchor="middle" x="425.5" y="-14.5" font-family="Helvetica,sans-Serif" font-size="10.00" fill="#000000">en61107_received_task</text>
</a>
</g>
</g>
<!-- Node13&#45;&gt;Node14 -->
<g id="edge14" class="edge">
<title>Node13&#45;&gt;Node14</title>
<path fill="none" stroke="#191970" d="M328.0673,-71.9154C331.1379,-70.3525 334.159,-68.7058 337,-67 354.378,-56.566 355.5001,-49.2283 373,-39 381.1054,-34.2625 390.4249,-30.0115 398.9412,-26.5383"/>
<polygon fill="#191970" stroke="#191970" points="326.3499,-68.8569 318.8372,-76.3275 329.3689,-75.1724 326.3499,-68.8569"/>
</g>
<!-- Node16 -->
<g id="node14" class="node">
<title>Node16</title>
<g id="a_node14"><a xlink:href="en61107__request_8h.html#a7384d014eb9e833f64ecf4a9f86f87be" target="_top" xlink:title="en61107_request_send">
<polygon fill="#ffffff" stroke="#000000" points="378,-124.5 378,-143.5 473,-143.5 473,-124.5 378,-124.5"/>
<text text-anchor="middle" x="425.5" y="-131.5" font-family="Helvetica,sans-Serif" font-size="10.00" fill="#000000">en61107_request_send</text>
</a>
</g>
</g>
<!-- Node13&#45;&gt;Node16 -->
<g id="edge16" class="edge">
<title>Node13&#45;&gt;Node16</title>
<path fill="none" stroke="#191970" d="M329.7275,-99.0705C343.2514,-104.0735 358.8357,-109.8207 373,-115 381.4663,-118.0958 390.71,-121.4498 399.0488,-124.4659"/>
<polygon fill="#191970" stroke="#191970" points="330.887,-95.7677 320.2939,-95.5779 328.4566,-102.3322 330.887,-95.7677"/>
</g>
<!-- Node17 -->
<g id="node15" class="node">
<title>Node17</title>
<g id="a_node15"><a xlink:href="kmp__request_8c.html#a3f6b790a06b933b78f40ade5e9a16131" target="_top" xlink:title="kmp_received_task">
<polygon fill="#ffffff" stroke="#000000" points="385,-86.5 385,-105.5 466,-105.5 466,-86.5 385,-86.5"/>
<text text-anchor="middle" x="425.5" y="-93.5" font-family="Helvetica,sans-Serif" font-size="10.00" fill="#000000">kmp_received_task</text>
</a>
</g>
</g>
<!-- Node13&#45;&gt;Node17 -->
<g id="edge17" class="edge">
<title>Node13&#45;&gt;Node17</title>
<path fill="none" stroke="#191970" d="M338.3235,-89.3453C353.3566,-90.4929 370.1067,-91.7715 384.8752,-92.8989"/>
<polygon fill="#191970" stroke="#191970" points="338.4732,-85.8466 328.2358,-88.5752 337.9403,-92.8263 338.4732,-85.8466"/>
</g>
<!-- Node19 -->
<g id="node17" class="node">
<title>Node19</title>
<g id="a_node17"><a xlink:href="kmp__request_8h.html#a3b022dcdc832786eb06126b5e6879604" target="_top" xlink:title="kmp_request_send">
<polygon fill="#ffffff" stroke="#000000" points="385.5,-48.5 385.5,-67.5 465.5,-67.5 465.5,-48.5 385.5,-48.5"/>
<text text-anchor="middle" x="425.5" y="-55.5" font-family="Helvetica,sans-Serif" font-size="10.00" fill="#000000">kmp_request_send</text>
</a>
</g>
</g>
<!-- Node13&#45;&gt;Node19 -->
<g id="edge19" class="edge">
<title>Node13&#45;&gt;Node19</title>
<path fill="none" stroke="#191970" d="M338.4148,-76.6136C353.5868,-73.3708 370.4984,-69.7561 385.3528,-66.5811"/>
<polygon fill="#191970" stroke="#191970" points="337.2833,-73.2763 328.2358,-78.7893 338.7465,-80.1217 337.2833,-73.2763"/>
</g>
<!-- Node15 -->
<g id="node13" class="node">
<title>Node15</title>
<g id="a_node13"><a xlink:href="en61107__request_8h.html#acd43242675a3f25e7c3b530eac9d8b3a" target="_top" xlink:title="en61107_request_init">
<polygon fill="#ffffff" stroke="#000000" points="514,-4.5 514,-23.5 603,-23.5 603,-4.5 514,-4.5"/>
<text text-anchor="middle" x="558.5" y="-11.5" font-family="Helvetica,sans-Serif" font-size="10.00" fill="#000000">en61107_request_init</text>
</a>
</g>
</g>
<!-- Node14&#45;&gt;Node15 -->
<g id="edge15" class="edge">
<title>Node14&#45;&gt;Node15</title>
<path fill="none" stroke="#191970" d="M483.8131,-15.6847C493.8184,-15.459 504.0748,-15.2276 513.6577,-15.0115"/>
<polygon fill="#191970" stroke="#191970" points="483.4345,-12.1922 473.5161,-15.9169 483.5925,-19.1904 483.4345,-12.1922"/>
</g>
<!-- Node18 -->
<g id="node16" class="node">
<title>Node18</title>
<g id="a_node16"><a xlink:href="kmp__request_8h.html#a048753ff9d6b448e2dcd8c85db0d6873" target="_top" xlink:title="kmp_request_init">
<polygon fill="#ffffff" stroke="#000000" points="521.5,-92.5 521.5,-111.5 595.5,-111.5 595.5,-92.5 521.5,-92.5"/>
<text text-anchor="middle" x="558.5" y="-99.5" font-family="Helvetica,sans-Serif" font-size="10.00" fill="#000000">kmp_request_init</text>
</a>
</g>
</g>
<!-- Node17&#45;&gt;Node18 -->
<g id="edge18" class="edge">
<title>Node17&#45;&gt;Node18</title>
<path fill="none" stroke="#191970" d="M476.2711,-98.2904C491.2423,-98.9658 507.3417,-99.6921 521.2918,-100.3214"/>
<polygon fill="#191970" stroke="#191970" points="476.2747,-94.7871 466.1271,-97.8328 475.9591,-101.78 476.2747,-94.7871"/>
</g>
<!-- Node20 -->
<g id="node18" class="node">
<title>Node20</title>
<g id="a_node18"><a xlink:href="kmp__request_8c.html#a0977a4640a97d389ac3b0fef0ba7a9b6" target="_top" xlink:title="kmp_receive_timeout\l_timer_func">
<polygon fill="#ffffff" stroke="#000000" points="514.5,-43 514.5,-73 602.5,-73 602.5,-43 514.5,-43"/>
<text text-anchor="start" x="522.5" y="-61" font-family="Helvetica,sans-Serif" font-size="10.00" fill="#000000">kmp_receive_timeout</text>
<text text-anchor="middle" x="558.5" y="-50" font-family="Helvetica,sans-Serif" font-size="10.00" fill="#000000">_timer_func</text>
</a>
</g>
</g>
<!-- Node19&#45;&gt;Node20 -->
<g id="edge20" class="edge">
<title>Node19&#45;&gt;Node20</title>
<path fill="none" stroke="#191970" d="M476.0741,-51.4251C488.622,-51.1443 501.9737,-51.2012 514.1956,-51.5959"/>
<polygon fill="#191970" stroke="#191970" points="475.6536,-47.9362 465.7653,-51.7404 475.8677,-54.9329 475.6536,-47.9362"/>
</g>
<!-- Node20&#45;&gt;Node19 -->
<g id="edge21" class="edge">
<title>Node20&#45;&gt;Node19</title>
<path fill="none" stroke="#191970" d="M504.0868,-64.6499C491.2689,-64.8643 477.831,-64.7342 465.7653,-64.2596"/>
<polygon fill="#191970" stroke="#191970" points="504.2837,-68.1463 514.1956,-64.4041 504.1134,-61.1483 504.2837,-68.1463"/>
</g>
<!-- Node21&#45;&gt;Node5 -->
<g id="edge23" class="edge">
<title>Node21&#45;&gt;Node5</title>
<path fill="none" stroke="#191970" d="M205.133,-186.4499C208.8631,-184.7393 212.548,-182.9133 216,-181 241.4845,-166.8751 268.3745,-145.8101 283.1321,-133.6356"/>
<polygon fill="#191970" stroke="#191970" points="203.6672,-183.2704 195.8742,-190.4482 206.4424,-189.6968 203.6672,-183.2704"/>
</g>
<!-- Node21&#45;&gt;Node6 -->
<g id="edge24" class="edge">
<title>Node21&#45;&gt;Node6</title>
<path fill="none" stroke="#191970" d="M217.5762,-192.6458C229.6149,-190.8232 242.388,-188.8895 253.9947,-187.1323"/>
<polygon fill="#191970" stroke="#191970" points="217.0416,-189.1868 207.6782,-194.1443 218.0895,-196.1079 217.0416,-189.1868"/>
</g>
<!-- Node22&#45;&gt;Node5 -->
<g id="edge26" class="edge">
<title>Node22&#45;&gt;Node5</title>
<path fill="none" stroke="#191970" d="M210.3995,-149.4647C227.4723,-144.2952 246.9391,-138.4009 262.8412,-133.5859"/>
<polygon fill="#191970" stroke="#191970" points="209.2255,-146.1632 200.6689,-152.411 211.2541,-152.8628 209.2255,-146.1632"/>
</g>
<!-- Node22&#45;&gt;Node6 -->
<g id="edge27" class="edge">
<title>Node22&#45;&gt;Node6</title>
<path fill="none" stroke="#191970" d="M216.3675,-169.1712C228.6222,-171.0265 241.7111,-173.0081 253.6033,-174.8085"/>
<polygon fill="#191970" stroke="#191970" points="216.7256,-165.6856 206.3143,-167.6492 215.6777,-172.6067 216.7256,-165.6856"/>
</g>
<!-- Node23&#45;&gt;Node5 -->
<g id="edge29" class="edge">
<title>Node23&#45;&gt;Node5</title>
<path fill="none" stroke="#191970" d="M207.4308,-61.8972C210.4144,-63.465 213.3092,-65.1659 216,-67 235.2234,-80.1033 233.0172,-91.5506 252,-105 257.012,-108.5511 262.7939,-111.6682 268.4468,-114.2962"/>
<polygon fill="#191970" stroke="#191970" points="208.8652,-58.7039 198.3287,-57.5928 205.8726,-65.032 208.8652,-58.7039"/>
</g>
<!-- Node24 -->
<g id="node22" class="node">
<title>Node24</title>
<g id="a_node22"><a xlink:href="mqtt_8c.html#a86f8adfe29d6ec8bb5070fd030540d2f" target="_top" xlink:title="MQTT subscibe function. ">
<polygon fill="#ffffff" stroke="#000000" points="257,-38.5 257,-57.5 332,-57.5 332,-38.5 257,-38.5"/>
<text text-anchor="middle" x="294.5" y="-45.5" font-family="Helvetica,sans-Serif" font-size="10.00" fill="#000000">MQTT_Subscribe</text>
</a>
</g>
</g>
<!-- Node23&#45;&gt;Node24 -->
<g id="edge30" class="edge">
<title>Node23&#45;&gt;Node24</title>
<path fill="none" stroke="#191970" d="M222.2175,-48C233.8048,-48 245.8361,-48 256.681,-48"/>
<polygon fill="#191970" stroke="#191970" points="222.19,-44.5001 212.19,-48 222.1899,-51.5001 222.19,-44.5001"/>
</g>
<!-- Node25&#45;&gt;Node5 -->
<g id="edge32" class="edge">
<title>Node25&#45;&gt;Node5</title>
<path fill="none" stroke="#191970" d="M210.6134,-24.6492C212.5243,-25.9823 214.3355,-27.4297 216,-29 243.1864,-54.6483 225.2827,-78.8633 252,-105 255.8131,-108.7302 260.4849,-111.8 265.3193,-114.3018"/>
<polygon fill="#191970" stroke="#191970" points="212.1493,-21.4941 201.7422,-19.5084 208.6395,-27.5506 212.1493,-21.4941"/>
</g>
<!-- Node26 -->
<g id="node24" class="node">
<title>Node26</title>
<g id="a_node24"><a xlink:href="mqtt_8c.html#a7f28cd912dae4c1386c10026a267b579" target="_top" xlink:title="MQTT un&#45;subscibe function. ">
<polygon fill="#ffffff" stroke="#000000" points="252,-.5 252,-19.5 337,-19.5 337,-.5 252,-.5"/>
<text text-anchor="middle" x="294.5" y="-7.5" font-family="Helvetica,sans-Serif" font-size="10.00" fill="#000000">MQTT_UnSubscribe</text>
</a>
</g>
</g>
<!-- Node25&#45;&gt;Node26 -->
<g id="edge33" class="edge">
<title>Node25&#45;&gt;Node26</title>
<path fill="none" stroke="#191970" d="M226.0922,-10C234.7032,-10 243.4575,-10 251.6994,-10"/>
<polygon fill="#191970" stroke="#191970" points="226.0887,-6.5001 216.0886,-10 226.0886,-13.5001 226.0887,-6.5001"/>
</g>
</g>
</svg>
