<?xml version="1.0" encoding="UTF-8" standalone="no"?>
<!DOCTYPE svg PUBLIC "-//W3C//DTD SVG 1.1//EN"
 "http://www.w3.org/Graphics/SVG/1.1/DTD/svg11.dtd">
<!-- Generated by graphviz version 2.40.1 (20161225.0304)
 -->
<!-- Title: mqtt_msg_pingresp Pages: 1 -->
<svg width="187pt" height="66pt"
 viewBox="0.00 0.00 187.00 66.00" xmlns="http://www.w3.org/2000/svg" xmlns:xlink="http://www.w3.org/1999/xlink">
<g id="graph0" class="graph" transform="scale(1 1) rotate(0) translate(4 62)">
<title>mqtt_msg_pingresp</title>
<polygon fill="#ffffff" stroke="transparent" points="-4,4 -4,-62 183,-62 183,4 -4,4"/>
<!-- Node206 -->
<g id="node1" class="node">
<title>Node206</title>
<polygon fill="#bfbfbf" stroke="#000000" points="0,-19.5 0,-38.5 82,-38.5 82,-19.5 0,-19.5"/>
<text text-anchor="middle" x="41" y="-26.5" font-family="Helvetica,sans-Serif" font-size="10.00" fill="#000000">mqtt_msg_pingresp</text>
</g>
<!-- Node207 -->
<g id="node2" class="node">
<title>Node207</title>
<g id="a_node2"><a xlink:href="mqtt__msg_8c.html#a356949afe8a334d5e91bddb4b2794921" target="_top" xlink:title="fini_message">
<polygon fill="#ffffff" stroke="#000000" points="118,-38.5 118,-57.5 179,-57.5 179,-38.5 118,-38.5"/>
<text text-anchor="middle" x="148.5" y="-45.5" font-family="Helvetica,sans-Serif" font-size="10.00" fill="#000000">fini_message</text>
</a>
</g>
</g>
<!-- Node206&#45;&gt;Node207 -->
<g id="edge1" class="edge">
<title>Node206&#45;&gt;Node207</title>
<path fill="none" stroke="#191970" d="M82.2549,-36.2916C90.6738,-37.7796 99.5257,-39.3441 107.9208,-40.8279"/>
<polygon fill="#191970" stroke="#191970" points="107.418,-44.2932 117.8746,-42.5871 108.6364,-37.4 107.418,-44.2932"/>
</g>
<!-- Node208 -->
<g id="node3" class="node">
<title>Node208</title>
<g id="a_node3"><a xlink:href="mqtt__msg_8c.html#aae7c66cc577ac90e9535edac4abc068c" target="_top" xlink:title="init_message">
<polygon fill="#ffffff" stroke="#000000" points="118,-.5 118,-19.5 179,-19.5 179,-.5 118,-.5"/>
<text text-anchor="middle" x="148.5" y="-7.5" font-family="Helvetica,sans-Serif" font-size="10.00" fill="#000000">init_message</text>
</a>
</g>
</g>
<!-- Node206&#45;&gt;Node208 -->
<g id="edge2" class="edge">
<title>Node206&#45;&gt;Node208</title>
<path fill="none" stroke="#191970" d="M82.2549,-21.7084C90.6738,-20.2204 99.5257,-18.6559 107.9208,-17.1721"/>
<polygon fill="#191970" stroke="#191970" points="108.6364,-20.6 117.8746,-15.4129 107.418,-13.7068 108.6364,-20.6"/>
</g>
</g>
</svg>
