<?xml version="1.0" encoding="UTF-8" standalone="no"?>
<!DOCTYPE svg PUBLIC "-//W3C//DTD SVG 1.1//EN"
 "http://www.w3.org/Graphics/SVG/1.1/DTD/svg11.dtd">
<!-- Generated by graphviz version 2.40.1 (20161225.0304)
 -->
<!-- Title: netif_add Pages: 1 -->
<svg width="268pt" height="104pt"
 viewBox="0.00 0.00 268.00 104.00" xmlns="http://www.w3.org/2000/svg" xmlns:xlink="http://www.w3.org/1999/xlink">
<g id="graph0" class="graph" transform="scale(1 1) rotate(0) translate(4 100)">
<title>netif_add</title>
<polygon fill="#ffffff" stroke="transparent" points="-4,4 -4,-100 264,-100 264,4 -4,4"/>
<!-- Node0 -->
<g id="node1" class="node">
<title>Node0</title>
<polygon fill="#bfbfbf" stroke="#000000" points="0,-38.5 0,-57.5 47,-57.5 47,-38.5 0,-38.5"/>
<text text-anchor="middle" x="23.5" y="-45.5" font-family="Helvetica,sans-Serif" font-size="10.00" fill="#000000">netif_add</text>
</g>
<!-- Node1 -->
<g id="node2" class="node">
<title>Node1</title>
<g id="a_node2"><a xlink:href="netif_8c.html#a383f97a67057d0f3cd8bfff0534973fc" target="_top" xlink:title="netif_set_addr">
<polygon fill="#ffffff" stroke="#000000" points="83,-38.5 83,-57.5 147,-57.5 147,-38.5 83,-38.5"/>
<text text-anchor="middle" x="115" y="-45.5" font-family="Helvetica,sans-Serif" font-size="10.00" fill="#000000">netif_set_addr</text>
</a>
</g>
</g>
<!-- Node0&#45;&gt;Node1 -->
<g id="edge1" class="edge">
<title>Node0&#45;&gt;Node1</title>
<path fill="none" stroke="#191970" d="M47.0635,-48C54.9035,-48 63.8905,-48 72.7054,-48"/>
<polygon fill="#191970" stroke="#191970" points="72.8953,-51.5001 82.8953,-48 72.8953,-44.5001 72.8953,-51.5001"/>
</g>
<!-- Node2 -->
<g id="node3" class="node">
<title>Node2</title>
<g id="a_node3"><a xlink:href="netif_8c.html#ae495c5439172c15c703a84cb33806236" target="_top" xlink:title="netif_set_ipaddr">
<polygon fill="#ffffff" stroke="#000000" points="186.5,-76.5 186.5,-95.5 256.5,-95.5 256.5,-76.5 186.5,-76.5"/>
<text text-anchor="middle" x="221.5" y="-83.5" font-family="Helvetica,sans-Serif" font-size="10.00" fill="#000000">netif_set_ipaddr</text>
</a>
</g>
</g>
<!-- Node1&#45;&gt;Node2 -->
<g id="edge2" class="edge">
<title>Node1&#45;&gt;Node2</title>
<path fill="none" stroke="#191970" d="M141.8744,-57.589C154.9919,-62.2694 170.9662,-67.9692 185.1542,-73.0315"/>
<polygon fill="#191970" stroke="#191970" points="184.0395,-76.3499 194.6342,-76.4141 186.3919,-69.757 184.0395,-76.3499"/>
</g>
<!-- Node3 -->
<g id="node4" class="node">
<title>Node3</title>
<g id="a_node4"><a xlink:href="netif_8c.html#a19b1df3b0b78d7505e3c4c196730ad91" target="_top" xlink:title="netif_set_netmask">
<polygon fill="#ffffff" stroke="#000000" points="183,-38.5 183,-57.5 260,-57.5 260,-38.5 183,-38.5"/>
<text text-anchor="middle" x="221.5" y="-45.5" font-family="Helvetica,sans-Serif" font-size="10.00" fill="#000000">netif_set_netmask</text>
</a>
</g>
</g>
<!-- Node1&#45;&gt;Node3 -->
<g id="edge3" class="edge">
<title>Node1&#45;&gt;Node3</title>
<path fill="none" stroke="#191970" d="M147.2425,-48C155.3391,-48 164.2074,-48 172.9086,-48"/>
<polygon fill="#191970" stroke="#191970" points="172.9899,-51.5001 182.9899,-48 172.9899,-44.5001 172.9899,-51.5001"/>
</g>
<!-- Node4 -->
<g id="node5" class="node">
<title>Node4</title>
<g id="a_node5"><a xlink:href="netif_8c.html#aa6db00ff3e674d3ff8580c82f5215f4e" target="_top" xlink:title="netif_set_gw">
<polygon fill="#ffffff" stroke="#000000" points="192,-.5 192,-19.5 251,-19.5 251,-.5 192,-.5"/>
<text text-anchor="middle" x="221.5" y="-7.5" font-family="Helvetica,sans-Serif" font-size="10.00" fill="#000000">netif_set_gw</text>
</a>
</g>
</g>
<!-- Node1&#45;&gt;Node4 -->
<g id="edge4" class="edge">
<title>Node1&#45;&gt;Node4</title>
<path fill="none" stroke="#191970" d="M141.8744,-38.411C154.9919,-33.7306 170.9662,-28.0308 185.1542,-22.9685"/>
<polygon fill="#191970" stroke="#191970" points="186.3919,-26.243 194.6342,-19.5859 184.0395,-19.6501 186.3919,-26.243"/>
</g>
</g>
</svg>
