<?xml version="1.0" encoding="UTF-8" standalone="no"?>
<!DOCTYPE svg PUBLIC "-//W3C//DTD SVG 1.1//EN"
 "http://www.w3.org/Graphics/SVG/1.1/DTD/svg11.dtd">
<!-- Generated by graphviz version 2.40.1 (20161225.0304)
 -->
<!-- Title: esp&#45;open&#45;lwip/lwip/core/netif.c Pages: 1 -->
<svg width="669pt" height="655pt"
 viewBox="0.00 0.00 668.50 655.00" xmlns="http://www.w3.org/2000/svg" xmlns:xlink="http://www.w3.org/1999/xlink">
<g id="graph0" class="graph" transform="scale(1 1) rotate(0) translate(4 651)">
<title>esp&#45;open&#45;lwip/lwip/core/netif.c</title>
<polygon fill="#ffffff" stroke="transparent" points="-4,4 -4,-651 664.5,-651 664.5,4 -4,4"/>
<!-- Node0 -->
<g id="node1" class="node">
<title>Node0</title>
<polygon fill="#bfbfbf" stroke="#000000" points="165,-616.5 165,-646.5 243,-646.5 243,-616.5 165,-616.5"/>
<text text-anchor="start" x="173" y="-634.5" font-family="Helvetica,sans-Serif" font-size="10.00" fill="#000000">esp&#45;open&#45;lwip/lwip</text>
<text text-anchor="middle" x="204" y="-623.5" font-family="Helvetica,sans-Serif" font-size="10.00" fill="#000000">/core/netif.c</text>
</g>
<!-- Node1 -->
<g id="node2" class="node">
<title>Node1</title>
<g id="a_node2"><a xlink:href="opt_8h.html" target="_top" xlink:title="lwip/opt.h">
<polygon fill="#ffffff" stroke="#000000" points="314,-336.5 314,-355.5 362,-355.5 362,-336.5 314,-336.5"/>
<text text-anchor="middle" x="338" y="-343.5" font-family="Helvetica,sans-Serif" font-size="10.00" fill="#000000">lwip/opt.h</text>
</a>
</g>
</g>
<!-- Node0&#45;&gt;Node1 -->
<g id="edge1" class="edge">
<title>Node0&#45;&gt;Node1</title>
<path fill="none" stroke="#191970" d="M164.6667,-626.6909C105.3867,-617.0026 0,-589.2034 0,-514 0,-514 0,-514 0,-458 0,-394.4287 218.1652,-360.7129 303.9457,-349.9132"/>
<polygon fill="#191970" stroke="#191970" points="304.465,-353.3758 313.9628,-348.681 303.6103,-346.4282 304.465,-353.3758"/>
</g>
<!-- Node14 -->
<g id="node15" class="node">
<title>Node14</title>
<g id="a_node15"><a xlink:href="def_8h.html" target="_top" xlink:title="lwip/def.h">
<polygon fill="#ffffff" stroke="#000000" points="120,-392.5 120,-411.5 168,-411.5 168,-392.5 120,-392.5"/>
<text text-anchor="middle" x="144" y="-399.5" font-family="Helvetica,sans-Serif" font-size="10.00" fill="#000000">lwip/def.h</text>
</a>
</g>
</g>
<!-- Node0&#45;&gt;Node14 -->
<g id="edge15" class="edge">
<title>Node0&#45;&gt;Node14</title>
<path fill="none" stroke="#191970" d="M167.8616,-616.434C150.6755,-607.8153 130.8993,-595.591 117,-580 98.8622,-559.6546 97.6803,-550.658 92,-524 88.3134,-506.6986 89.1383,-460.6063 95,-448 100.5554,-436.0525 110.7437,-425.6949 120.3969,-417.8492"/>
<polygon fill="#191970" stroke="#191970" points="122.7557,-420.4532 128.6124,-411.6243 118.5282,-414.8739 122.7557,-420.4532"/>
</g>
<!-- Node15 -->
<g id="node16" class="node">
<title>Node15</title>
<g id="a_node16"><a xlink:href="esp-open-lwip_2include_2lwip_2ip__addr_8h.html" target="_top" xlink:title="lwip/ip_addr.h">
<polygon fill="#ffffff" stroke="#000000" points="104.5,-448.5 104.5,-467.5 167.5,-467.5 167.5,-448.5 104.5,-448.5"/>
<text text-anchor="middle" x="136" y="-455.5" font-family="Helvetica,sans-Serif" font-size="10.00" fill="#000000">lwip/ip_addr.h</text>
</a>
</g>
</g>
<!-- Node0&#45;&gt;Node15 -->
<g id="edge18" class="edge">
<title>Node0&#45;&gt;Node15</title>
<path fill="none" stroke="#191970" d="M180.4952,-616.2396C154.6565,-597.9055 114.6083,-564.4978 98,-524 90.7867,-506.4111 103.663,-487.7603 116.3378,-474.7887"/>
<polygon fill="#191970" stroke="#191970" points="118.7902,-477.2864 123.6239,-467.8584 113.9659,-472.2144 118.7902,-477.2864"/>
</g>
<!-- Node16 -->
<g id="node17" class="node">
<title>Node16</title>
<g id="a_node17"><a xlink:href="netif_8h.html" target="_top" xlink:title="lwip/netif.h">
<polygon fill="#ffffff" stroke="#000000" points="219,-504.5 219,-523.5 271,-523.5 271,-504.5 219,-504.5"/>
<text text-anchor="middle" x="245" y="-511.5" font-family="Helvetica,sans-Serif" font-size="10.00" fill="#000000">lwip/netif.h</text>
</a>
</g>
</g>
<!-- Node0&#45;&gt;Node16 -->
<g id="edge21" class="edge">
<title>Node0&#45;&gt;Node16</title>
<path fill="none" stroke="#191970" d="M207.1376,-616.4601C210.3923,-601.8154 215.9858,-579.0428 223,-560 226.3935,-550.7872 230.9757,-540.9233 235.0799,-532.7016"/>
<polygon fill="#191970" stroke="#191970" points="238.2781,-534.1354 239.7368,-523.6415 232.0524,-530.9353 238.2781,-534.1354"/>
</g>
<!-- Node19 -->
<g id="node20" class="node">
<title>Node19</title>
<g id="a_node20"><a xlink:href="tcp__impl_8h.html" target="_top" xlink:title="lwip/tcp_impl.h">
<polygon fill="#ffffff" stroke="#000000" points="365,-504.5 365,-523.5 431,-523.5 431,-504.5 365,-504.5"/>
<text text-anchor="middle" x="398" y="-511.5" font-family="Helvetica,sans-Serif" font-size="10.00" fill="#000000">lwip/tcp_impl.h</text>
</a>
</g>
</g>
<!-- Node0&#45;&gt;Node19 -->
<g id="edge31" class="edge">
<title>Node0&#45;&gt;Node19</title>
<path fill="none" stroke="#191970" d="M231.7042,-616.3389C249.8525,-606.2807 274.011,-592.6508 295,-580 322.8868,-563.1916 354.3134,-542.8444 375.0383,-529.2254"/>
<polygon fill="#191970" stroke="#191970" points="377.0667,-532.0804 383.4898,-523.6546 373.2142,-526.2358 377.0667,-532.0804"/>
</g>
<!-- Node20 -->
<g id="node21" class="node">
<title>Node20</title>
<g id="a_node21"><a xlink:href="snmp_8h.html" target="_top" xlink:title="lwip/snmp.h">
<polygon fill="#ffffff" stroke="#000000" points="107,-504.5 107,-523.5 163,-523.5 163,-504.5 107,-504.5"/>
<text text-anchor="middle" x="135" y="-511.5" font-family="Helvetica,sans-Serif" font-size="10.00" fill="#000000">lwip/snmp.h</text>
</a>
</g>
</g>
<!-- Node0&#45;&gt;Node20 -->
<g id="edge33" class="edge">
<title>Node0&#45;&gt;Node20</title>
<path fill="none" stroke="#191970" d="M194.9795,-616.1389C182.3219,-594.5843 159.3259,-555.4245 145.7818,-532.3604"/>
<polygon fill="#191970" stroke="#191970" points="148.6956,-530.4103 140.6137,-523.5595 142.6594,-533.9549 148.6956,-530.4103"/>
</g>
<!-- Node21 -->
<g id="node22" class="node">
<title>Node21</title>
<g id="a_node22"><a xlink:href="igmp_8h.html" target="_top" xlink:title="lwip/igmp.h">
<polygon fill="#ffffff" stroke="#000000" points="232,-560.5 232,-579.5 286,-579.5 286,-560.5 232,-560.5"/>
<text text-anchor="middle" x="259" y="-567.5" font-family="Helvetica,sans-Serif" font-size="10.00" fill="#000000">lwip/igmp.h</text>
</a>
</g>
</g>
<!-- Node0&#45;&gt;Node21 -->
<g id="edge36" class="edge">
<title>Node0&#45;&gt;Node21</title>
<path fill="none" stroke="#191970" d="M217.5955,-616.2977C225.3891,-607.5831 235.2047,-596.6075 243.3226,-587.5302"/>
<polygon fill="#191970" stroke="#191970" points="246.1365,-589.6341 250.1938,-579.8469 240.9187,-584.9678 246.1365,-589.6341"/>
</g>
<!-- Node22 -->
<g id="node23" class="node">
<title>Node22</title>
<g id="a_node23"><a xlink:href="etharp_8h.html" target="_top" xlink:title="netif/etharp.h">
<polygon fill="#ffffff" stroke="#000000" points="397,-560.5 397,-579.5 457,-579.5 457,-560.5 397,-560.5"/>
<text text-anchor="middle" x="427" y="-567.5" font-family="Helvetica,sans-Serif" font-size="10.00" fill="#000000">netif/etharp.h</text>
</a>
</g>
</g>
<!-- Node0&#45;&gt;Node22 -->
<g id="edge41" class="edge">
<title>Node0&#45;&gt;Node22</title>
<path fill="none" stroke="#191970" d="M243.0988,-620.7171C283.5179,-609.5702 346.3001,-592.2558 387.0351,-581.0217"/>
<polygon fill="#191970" stroke="#191970" points="388.1799,-584.3367 396.8895,-578.304 386.3188,-577.5887 388.1799,-584.3367"/>
</g>
<!-- Node23 -->
<g id="node24" class="node">
<title>Node23</title>
<g id="a_node24"><a xlink:href="stats_8h.html" target="_top" xlink:title="lwip/stats.h">
<polygon fill="#ffffff" stroke="#000000" points="486,-448.5 486,-467.5 540,-467.5 540,-448.5 486,-448.5"/>
<text text-anchor="middle" x="513" y="-455.5" font-family="Helvetica,sans-Serif" font-size="10.00" fill="#000000">lwip/stats.h</text>
</a>
</g>
</g>
<!-- Node0&#45;&gt;Node23 -->
<g id="edge43" class="edge">
<title>Node0&#45;&gt;Node23</title>
<path fill="none" stroke="#191970" d="M243.0891,-628.4149C307.6427,-622.5844 432.7209,-607.95 466,-580 496.8731,-554.0707 507.5307,-505.3896 511.1627,-478.0122"/>
<polygon fill="#191970" stroke="#191970" points="514.6816,-478.0418 512.3276,-467.7118 507.7259,-477.2551 514.6816,-478.0418"/>
</g>
<!-- Node2 -->
<g id="node3" class="node">
<title>Node2</title>
<g id="a_node3"><a xlink:href="lwipopts_8h.html" target="_top" xlink:title="lwipopts.h">
<polygon fill="#ffffff" stroke="#000000" points="287,-280.5 287,-299.5 337,-299.5 337,-280.5 287,-280.5"/>
<text text-anchor="middle" x="312" y="-287.5" font-family="Helvetica,sans-Serif" font-size="10.00" fill="#000000">lwipopts.h</text>
</a>
</g>
</g>
<!-- Node1&#45;&gt;Node2 -->
<g id="edge2" class="edge">
<title>Node1&#45;&gt;Node2</title>
<path fill="none" stroke="#191970" d="M333.4711,-336.2455C329.9666,-328.6973 325.0073,-318.0158 320.7377,-308.8197"/>
<polygon fill="#191970" stroke="#191970" points="323.8627,-307.2389 316.477,-299.6427 317.5136,-310.1867 323.8627,-307.2389"/>
</g>
<!-- Node3 -->
<g id="node4" class="node">
<title>Node3</title>
<g id="a_node4"><a xlink:href="esp-open-sdk_2esp-open-lwip_2include_2lwip_2debug_8h.html" target="_top" xlink:title="lwip/debug.h">
<polygon fill="#ffffff" stroke="#000000" points="355.5,-280.5 355.5,-299.5 414.5,-299.5 414.5,-280.5 355.5,-280.5"/>
<text text-anchor="middle" x="385" y="-287.5" font-family="Helvetica,sans-Serif" font-size="10.00" fill="#000000">lwip/debug.h</text>
</a>
</g>
</g>
<!-- Node1&#45;&gt;Node3 -->
<g id="edge3" class="edge">
<title>Node1&#45;&gt;Node3</title>
<path fill="none" stroke="#191970" d="M346.1868,-336.2455C352.8589,-328.2958 362.4479,-316.8706 370.4253,-307.3656"/>
<polygon fill="#191970" stroke="#191970" points="373.1592,-309.5525 376.907,-299.6427 367.7974,-305.0524 373.1592,-309.5525"/>
</g>
<!-- Node4 -->
<g id="node5" class="node">
<title>Node4</title>
<g id="a_node5"><a xlink:href="arch_8h.html" target="_top" xlink:title="lwip/arch.h">
<polygon fill="#ffffff" stroke="#000000" points="233,-224.5 233,-243.5 285,-243.5 285,-224.5 233,-224.5"/>
<text text-anchor="middle" x="259" y="-231.5" font-family="Helvetica,sans-Serif" font-size="10.00" fill="#000000">lwip/arch.h</text>
</a>
</g>
</g>
<!-- Node3&#45;&gt;Node4 -->
<g id="edge4" class="edge">
<title>Node3&#45;&gt;Node4</title>
<path fill="none" stroke="#191970" d="M363.3398,-280.3733C343.0228,-271.3435 312.436,-257.7494 289.625,-247.6111"/>
<polygon fill="#191970" stroke="#191970" points="290.9372,-244.3642 280.3775,-243.5011 288.0941,-250.7609 290.9372,-244.3642"/>
</g>
<!-- Node5 -->
<g id="node6" class="node">
<title>Node5</title>
<g id="a_node6"><a xlink:href="cc_8h.html" target="_top" xlink:title="arch/cc.h">
<polygon fill="#ffffff" stroke="#000000" points="235.5,-168.5 235.5,-187.5 282.5,-187.5 282.5,-168.5 235.5,-168.5"/>
<text text-anchor="middle" x="259" y="-175.5" font-family="Helvetica,sans-Serif" font-size="10.00" fill="#000000">arch/cc.h</text>
</a>
</g>
</g>
<!-- Node4&#45;&gt;Node5 -->
<g id="edge5" class="edge">
<title>Node4&#45;&gt;Node5</title>
<path fill="none" stroke="#191970" d="M259,-224.2455C259,-216.9382 259,-206.6944 259,-197.7046"/>
<polygon fill="#191970" stroke="#191970" points="262.5001,-197.6426 259,-187.6427 255.5001,-197.6427 262.5001,-197.6426"/>
</g>
<!-- Node6 -->
<g id="node7" class="node">
<title>Node6</title>
<g id="a_node7"><a xlink:href="c__types_8h.html" target="_top" xlink:title="c_types.h">
<polygon fill="#ffffff" stroke="#000000" points="172.5,-56.5 172.5,-75.5 221.5,-75.5 221.5,-56.5 172.5,-56.5"/>
<text text-anchor="middle" x="197" y="-63.5" font-family="Helvetica,sans-Serif" font-size="10.00" fill="#000000">c_types.h</text>
</a>
</g>
</g>
<!-- Node5&#45;&gt;Node6 -->
<g id="edge6" class="edge">
<title>Node5&#45;&gt;Node6</title>
<path fill="none" stroke="#191970" d="M251.0285,-168.1738C243.9157,-159.1247 233.4965,-145.1492 226,-132 217.3916,-116.9004 209.5887,-98.7604 204.2507,-85.3224"/>
<polygon fill="#191970" stroke="#191970" points="207.4013,-83.7657 200.5299,-75.7013 200.8726,-86.2906 207.4013,-83.7657"/>
</g>
<!-- Node9 -->
<g id="node10" class="node">
<title>Node9</title>
<g id="a_node10"><a xlink:href="ets__sys_8h.html" target="_top" xlink:title="ets_sys.h">
<polygon fill="#ffffff" stroke="#000000" points="235,-112.5 235,-131.5 283,-131.5 283,-112.5 235,-112.5"/>
<text text-anchor="middle" x="259" y="-119.5" font-family="Helvetica,sans-Serif" font-size="10.00" fill="#000000">ets_sys.h</text>
</a>
</g>
</g>
<!-- Node5&#45;&gt;Node9 -->
<g id="edge9" class="edge">
<title>Node5&#45;&gt;Node9</title>
<path fill="none" stroke="#191970" d="M259,-168.2455C259,-160.9382 259,-150.6944 259,-141.7046"/>
<polygon fill="#191970" stroke="#191970" points="262.5001,-141.6426 259,-131.6427 255.5001,-141.6427 262.5001,-141.6426"/>
</g>
<!-- Node11 -->
<g id="node12" class="node">
<title>Node11</title>
<g id="a_node12"><a xlink:href="osapi_8h.html" target="_top" xlink:title="osapi.h">
<polygon fill="#ffffff" stroke="#000000" points="314.5,-112.5 314.5,-131.5 355.5,-131.5 355.5,-112.5 314.5,-112.5"/>
<text text-anchor="middle" x="335" y="-119.5" font-family="Helvetica,sans-Serif" font-size="10.00" fill="#000000">osapi.h</text>
</a>
</g>
</g>
<!-- Node5&#45;&gt;Node11 -->
<g id="edge12" class="edge">
<title>Node5&#45;&gt;Node11</title>
<path fill="none" stroke="#191970" d="M272.2382,-168.2455C283.681,-159.814 300.4296,-147.4729 313.7475,-137.6598"/>
<polygon fill="#191970" stroke="#191970" points="315.9391,-140.3924 321.9135,-131.6427 311.7867,-134.757 315.9391,-140.3924"/>
</g>
<!-- Node7 -->
<g id="node8" class="node">
<title>Node7</title>
<polygon fill="#ffffff" stroke="#bfbfbf" points="145.5,-.5 145.5,-19.5 186.5,-19.5 186.5,-.5 145.5,-.5"/>
<text text-anchor="middle" x="166" y="-7.5" font-family="Helvetica,sans-Serif" font-size="10.00" fill="#000000">stdint.h</text>
</g>
<!-- Node6&#45;&gt;Node7 -->
<g id="edge7" class="edge">
<title>Node6&#45;&gt;Node7</title>
<path fill="none" stroke="#191970" d="M191.6002,-56.2455C187.3773,-48.617 181.3827,-37.7881 176.2559,-28.5267"/>
<polygon fill="#191970" stroke="#191970" points="179.2432,-26.6965 171.3379,-19.6427 173.119,-30.0867 179.2432,-26.6965"/>
</g>
<!-- Node8 -->
<g id="node9" class="node">
<title>Node8</title>
<polygon fill="#ffffff" stroke="#bfbfbf" points="204.5,-.5 204.5,-19.5 251.5,-19.5 251.5,-.5 204.5,-.5"/>
<text text-anchor="middle" x="228" y="-7.5" font-family="Helvetica,sans-Serif" font-size="10.00" fill="#000000">stdbool.h</text>
</g>
<!-- Node6&#45;&gt;Node8 -->
<g id="edge8" class="edge">
<title>Node6&#45;&gt;Node8</title>
<path fill="none" stroke="#191970" d="M202.3998,-56.2455C206.6227,-48.617 212.6173,-37.7881 217.7441,-28.5267"/>
<polygon fill="#191970" stroke="#191970" points="220.881,-30.0867 222.6621,-19.6427 214.7568,-26.6965 220.881,-30.0867"/>
</g>
<!-- Node9&#45;&gt;Node6 -->
<g id="edge10" class="edge">
<title>Node9&#45;&gt;Node6</title>
<path fill="none" stroke="#191970" d="M248.2004,-112.2455C239.1322,-104.0549 225.9794,-92.1749 215.2755,-82.5069"/>
<polygon fill="#191970" stroke="#191970" points="217.4429,-79.7482 207.6758,-75.6427 212.7509,-84.9429 217.4429,-79.7482"/>
</g>
<!-- Node10 -->
<g id="node11" class="node">
<title>Node10</title>
<g id="a_node11"><a xlink:href="eagle__soc_8h.html" target="_top" xlink:title="eagle_soc.h">
<polygon fill="#ffffff" stroke="#000000" points="239.5,-56.5 239.5,-75.5 296.5,-75.5 296.5,-56.5 239.5,-56.5"/>
<text text-anchor="middle" x="268" y="-63.5" font-family="Helvetica,sans-Serif" font-size="10.00" fill="#000000">eagle_soc.h</text>
</a>
</g>
</g>
<!-- Node9&#45;&gt;Node10 -->
<g id="edge11" class="edge">
<title>Node9&#45;&gt;Node10</title>
<path fill="none" stroke="#191970" d="M260.5677,-112.2455C261.7421,-104.9382 263.3884,-94.6944 264.8332,-85.7046"/>
<polygon fill="#191970" stroke="#191970" points="268.3191,-86.0714 266.4503,-75.6427 261.4078,-84.9606 268.3191,-86.0714"/>
</g>
<!-- Node12 -->
<g id="node13" class="node">
<title>Node12</title>
<polygon fill="#ffffff" stroke="#bfbfbf" points="314.5,-56.5 314.5,-75.5 355.5,-75.5 355.5,-56.5 314.5,-56.5"/>
<text text-anchor="middle" x="335" y="-63.5" font-family="Helvetica,sans-Serif" font-size="10.00" fill="#000000">string.h</text>
</g>
<!-- Node11&#45;&gt;Node12 -->
<g id="edge13" class="edge">
<title>Node11&#45;&gt;Node12</title>
<path fill="none" stroke="#191970" d="M335,-112.2455C335,-104.9382 335,-94.6944 335,-85.7046"/>
<polygon fill="#191970" stroke="#191970" points="338.5001,-85.6426 335,-75.6427 331.5001,-85.6427 338.5001,-85.6426"/>
</g>
<!-- Node13 -->
<g id="node14" class="node">
<title>Node13</title>
<polygon fill="#ffffff" stroke="#bfbfbf" points="374,-56.5 374,-75.5 436,-75.5 436,-56.5 374,-56.5"/>
<text text-anchor="middle" x="405" y="-63.5" font-family="Helvetica,sans-Serif" font-size="10.00" fill="#000000">user_config.h</text>
</g>
<!-- Node11&#45;&gt;Node13 -->
<g id="edge14" class="edge">
<title>Node11&#45;&gt;Node13</title>
<path fill="none" stroke="#191970" d="M347.1931,-112.2455C357.6321,-103.8943 372.8655,-91.7076 385.074,-81.9408"/>
<polygon fill="#191970" stroke="#191970" points="387.3244,-84.6227 392.9467,-75.6427 382.9515,-79.1566 387.3244,-84.6227"/>
</g>
<!-- Node14&#45;&gt;Node1 -->
<g id="edge17" class="edge">
<title>Node14&#45;&gt;Node1</title>
<path fill="none" stroke="#191970" d="M168.178,-395.0208C202.3972,-385.1431 265.1103,-367.0403 304.0039,-355.8133"/>
<polygon fill="#191970" stroke="#191970" points="305.1858,-359.1151 313.8228,-352.979 303.2443,-352.3897 305.1858,-359.1151"/>
</g>
<!-- Node14&#45;&gt;Node4 -->
<g id="edge16" class="edge">
<title>Node14&#45;&gt;Node4</title>
<path fill="none" stroke="#191970" d="M150.5124,-392.4862C169.006,-365.4695 222.0764,-287.9405 246.4663,-252.3102"/>
<polygon fill="#191970" stroke="#191970" points="249.5121,-254.0568 252.2726,-243.8279 243.7358,-250.1027 249.5121,-254.0568"/>
</g>
<!-- Node15&#45;&gt;Node1 -->
<g id="edge19" class="edge">
<title>Node15&#45;&gt;Node1</title>
<path fill="none" stroke="#191970" d="M146.1492,-448.38C161.2589,-434.4583 191.01,-408.5539 220,-392 246.7316,-376.7357 279.5161,-364.4094 303.7384,-356.3728"/>
<polygon fill="#191970" stroke="#191970" points="305.117,-359.6054 313.5525,-353.1951 302.9606,-352.9458 305.117,-359.6054"/>
</g>
<!-- Node15&#45;&gt;Node14 -->
<g id="edge20" class="edge">
<title>Node15&#45;&gt;Node14</title>
<path fill="none" stroke="#191970" d="M137.3935,-448.2455C138.4374,-440.9382 139.9008,-430.6944 141.1851,-421.7046"/>
<polygon fill="#191970" stroke="#191970" points="144.673,-422.0372 142.6225,-411.6427 137.7434,-421.0472 144.673,-422.0372"/>
</g>
<!-- Node16&#45;&gt;Node1 -->
<g id="edge22" class="edge">
<title>Node16&#45;&gt;Node1</title>
<path fill="none" stroke="#191970" d="M242.7605,-504.4994C238.1737,-482.6422 229.9728,-427.9165 253,-392 264.5917,-373.92 285.8408,-362.4201 304.1924,-355.4402"/>
<polygon fill="#191970" stroke="#191970" points="305.4498,-358.7084 313.7334,-352.1029 303.1385,-352.1009 305.4498,-358.7084"/>
</g>
<!-- Node16&#45;&gt;Node14 -->
<g id="edge27" class="edge">
<title>Node16&#45;&gt;Node14</title>
<path fill="none" stroke="#191970" d="M236.3888,-504.4509C219.3196,-485.5227 180.9859,-443.014 159.4457,-419.1279"/>
<polygon fill="#191970" stroke="#191970" points="161.8856,-416.6073 152.5894,-411.5249 156.6872,-421.2952 161.8856,-416.6073"/>
</g>
<!-- Node16&#45;&gt;Node15 -->
<g id="edge26" class="edge">
<title>Node16&#45;&gt;Node15</title>
<path fill="none" stroke="#191970" d="M226.0136,-504.2455C208.8208,-495.4125 183.2762,-482.2887 163.7868,-472.2758"/>
<polygon fill="#191970" stroke="#191970" points="165.263,-469.0993 154.7688,-467.6427 162.0641,-475.3257 165.263,-469.0993"/>
</g>
<!-- Node17 -->
<g id="node18" class="node">
<title>Node17</title>
<g id="a_node18"><a xlink:href="err_8h.html" target="_top" xlink:title="lwip/err.h">
<polygon fill="#ffffff" stroke="#000000" points="262.5,-392.5 262.5,-411.5 309.5,-411.5 309.5,-392.5 262.5,-392.5"/>
<text text-anchor="middle" x="286" y="-399.5" font-family="Helvetica,sans-Serif" font-size="10.00" fill="#000000">lwip/err.h</text>
</a>
</g>
</g>
<!-- Node16&#45;&gt;Node17 -->
<g id="edge23" class="edge">
<title>Node16&#45;&gt;Node17</title>
<path fill="none" stroke="#191970" d="M248.4956,-504.4509C255.2432,-486.0186 270.1764,-445.2254 279.0289,-421.043"/>
<polygon fill="#191970" stroke="#191970" points="282.3622,-422.1187 282.5132,-411.5249 275.7888,-419.7123 282.3622,-422.1187"/>
</g>
<!-- Node18 -->
<g id="node19" class="node">
<title>Node18</title>
<g id="a_node19"><a xlink:href="pbuf_8h.html" target="_top" xlink:title="lwip/pbuf.h">
<polygon fill="#ffffff" stroke="#000000" points="300,-448.5 300,-467.5 352,-467.5 352,-448.5 300,-448.5"/>
<text text-anchor="middle" x="326" y="-455.5" font-family="Helvetica,sans-Serif" font-size="10.00" fill="#000000">lwip/pbuf.h</text>
</a>
</g>
</g>
<!-- Node16&#45;&gt;Node18 -->
<g id="edge28" class="edge">
<title>Node16&#45;&gt;Node18</title>
<path fill="none" stroke="#191970" d="M259.1091,-504.2455C271.4209,-495.7337 289.4958,-483.2375 303.7538,-473.3801"/>
<polygon fill="#191970" stroke="#191970" points="305.8174,-476.2085 312.0526,-467.6427 301.8366,-470.4506 305.8174,-476.2085"/>
</g>
<!-- Node17&#45;&gt;Node1 -->
<g id="edge24" class="edge">
<title>Node17&#45;&gt;Node1</title>
<path fill="none" stroke="#191970" d="M295.0577,-392.2455C302.5142,-384.2155 313.2634,-372.6394 322.1417,-363.0781"/>
<polygon fill="#191970" stroke="#191970" points="324.8063,-365.3522 329.0461,-355.6427 319.6768,-360.589 324.8063,-365.3522"/>
</g>
<!-- Node17&#45;&gt;Node4 -->
<g id="edge25" class="edge">
<title>Node17&#45;&gt;Node4</title>
<path fill="none" stroke="#191970" d="M284.471,-392.4862C280.2029,-365.9293 268.0908,-290.5651 262.2409,-254.1655"/>
<polygon fill="#191970" stroke="#191970" points="265.622,-253.1458 260.5795,-243.8279 258.7107,-254.2566 265.622,-253.1458"/>
</g>
<!-- Node18&#45;&gt;Node1 -->
<g id="edge29" class="edge">
<title>Node18&#45;&gt;Node1</title>
<path fill="none" stroke="#191970" d="M327.0231,-448.4509C328.9803,-430.184 333.2905,-389.9553 335.8895,-365.6976"/>
<polygon fill="#191970" stroke="#191970" points="339.3941,-365.8409 336.9795,-355.5249 332.434,-365.0951 339.3941,-365.8409"/>
</g>
<!-- Node18&#45;&gt;Node17 -->
<g id="edge30" class="edge">
<title>Node18&#45;&gt;Node17</title>
<path fill="none" stroke="#191970" d="M319.0325,-448.2455C313.4689,-440.4564 305.522,-429.3308 298.8171,-419.9439"/>
<polygon fill="#191970" stroke="#191970" points="301.5481,-417.7457 292.8876,-411.6427 295.852,-421.8144 301.5481,-417.7457"/>
</g>
<!-- Node19&#45;&gt;Node1 -->
<g id="edge32" class="edge">
<title>Node19&#45;&gt;Node1</title>
<path fill="none" stroke="#191970" d="M400.1995,-504.4979C404.6394,-483.0952 412.7383,-430.0167 394,-392 387.7235,-379.2661 376.1006,-368.8209 365.0636,-361.1208"/>
<polygon fill="#191970" stroke="#191970" points="366.7472,-358.0412 356.4512,-355.5426 362.9418,-363.9165 366.7472,-358.0412"/>
</g>
<!-- Node20&#45;&gt;Node1 -->
<g id="edge34" class="edge">
<title>Node20&#45;&gt;Node1</title>
<path fill="none" stroke="#191970" d="M122.5788,-504.18C112.9984,-495.7529 100.4865,-482.6707 95,-468 86.2397,-444.5751 109.2648,-393.6043 111,-392 138.5989,-366.4833 246.9485,-353.7031 303.3892,-348.6652"/>
<polygon fill="#191970" stroke="#191970" points="303.9559,-352.1295 313.6196,-347.7863 303.3566,-345.1552 303.9559,-352.1295"/>
</g>
<!-- Node20&#45;&gt;Node15 -->
<g id="edge35" class="edge">
<title>Node20&#45;&gt;Node15</title>
<path fill="none" stroke="#191970" d="M135.1742,-504.2455C135.3047,-496.9382 135.4876,-486.6944 135.6481,-477.7046"/>
<polygon fill="#191970" stroke="#191970" points="139.1486,-477.7036 135.8278,-467.6427 132.1497,-477.5786 139.1486,-477.7036"/>
</g>
<!-- Node21&#45;&gt;Node1 -->
<g id="edge37" class="edge">
<title>Node21&#45;&gt;Node1</title>
<path fill="none" stroke="#191970" d="M274.574,-560.4736C298.6056,-544.7294 343.7537,-510.7307 361,-468 375.0465,-433.1974 359.3441,-389.2966 347.8633,-364.7754"/>
<polygon fill="#191970" stroke="#191970" points="350.8666,-362.9523 343.3005,-355.5358 344.5902,-366.0519 350.8666,-362.9523"/>
</g>
<!-- Node21&#45;&gt;Node15 -->
<g id="edge38" class="edge">
<title>Node21&#45;&gt;Node15</title>
<path fill="none" stroke="#191970" d="M248.5131,-560.4509C227.5443,-541.3574 180.2248,-498.2697 154.1275,-474.5063"/>
<polygon fill="#191970" stroke="#191970" points="156.2108,-471.6697 146.4604,-467.5249 151.4979,-476.8455 156.2108,-471.6697"/>
</g>
<!-- Node21&#45;&gt;Node16 -->
<g id="edge39" class="edge">
<title>Node21&#45;&gt;Node16</title>
<path fill="none" stroke="#191970" d="M256.5614,-560.2455C254.7145,-552.8579 252.1172,-542.4689 249.8522,-533.4087"/>
<polygon fill="#191970" stroke="#191970" points="253.2316,-532.4952 247.4107,-523.6427 246.4406,-534.193 253.2316,-532.4952"/>
</g>
<!-- Node21&#45;&gt;Node18 -->
<g id="edge40" class="edge">
<title>Node21&#45;&gt;Node18</title>
<path fill="none" stroke="#191970" d="M264.7124,-560.4509C275.8377,-541.8533 300.5808,-500.4919 314.995,-476.3964"/>
<polygon fill="#191970" stroke="#191970" points="318.1719,-477.9034 320.3021,-467.5249 312.1648,-474.3098 318.1719,-477.9034"/>
</g>
<!-- Node22&#45;&gt;Node1 -->
<g id="edge42" class="edge">
<title>Node22&#45;&gt;Node1</title>
<path fill="none" stroke="#191970" d="M430.5876,-560.2967C433.7841,-551.1001 438.2228,-536.8237 440,-524 446.9867,-473.5877 412.8402,-393.1528 412,-392 401.7678,-377.9605 385.8237,-367.26 371.3516,-359.7281"/>
<polygon fill="#191970" stroke="#191970" points="372.6514,-356.4681 362.1288,-355.233 369.5845,-362.7605 372.6514,-356.4681"/>
</g>
<!-- Node23&#45;&gt;Node1 -->
<g id="edge44" class="edge">
<title>Node23&#45;&gt;Node1</title>
<path fill="none" stroke="#191970" d="M524.549,-448.3327C539.3217,-434.8052 561.3743,-409.882 547,-392 525.4505,-365.1917 425.7421,-353.0992 372.2071,-348.4595"/>
<polygon fill="#191970" stroke="#191970" points="372.4069,-344.9641 362.1526,-347.6287 371.8304,-351.9404 372.4069,-344.9641"/>
</g>
<!-- Node24 -->
<g id="node25" class="node">
<title>Node24</title>
<g id="a_node25"><a xlink:href="esp-open-lwip_2include_2lwip_2mem_8h.html" target="_top" xlink:title="lwip/mem.h">
<polygon fill="#ffffff" stroke="#000000" points="484,-392.5 484,-411.5 538,-411.5 538,-392.5 484,-392.5"/>
<text text-anchor="middle" x="511" y="-399.5" font-family="Helvetica,sans-Serif" font-size="10.00" fill="#000000">lwip/mem.h</text>
</a>
</g>
</g>
<!-- Node23&#45;&gt;Node24 -->
<g id="edge45" class="edge">
<title>Node23&#45;&gt;Node24</title>
<path fill="none" stroke="#191970" d="M512.6516,-448.2455C512.3907,-440.9382 512.0248,-430.6944 511.7037,-421.7046"/>
<polygon fill="#191970" stroke="#191970" points="515.1992,-421.5113 511.3444,-411.6427 508.2036,-421.7613 515.1992,-421.5113"/>
</g>
<!-- Node25 -->
<g id="node26" class="node">
<title>Node25</title>
<g id="a_node26"><a xlink:href="memp_8h.html" target="_top" xlink:title="lwip/memp.h">
<polygon fill="#ffffff" stroke="#000000" points="594.5,-392.5 594.5,-411.5 653.5,-411.5 653.5,-392.5 594.5,-392.5"/>
<text text-anchor="middle" x="624" y="-399.5" font-family="Helvetica,sans-Serif" font-size="10.00" fill="#000000">lwip/memp.h</text>
</a>
</g>
</g>
<!-- Node23&#45;&gt;Node25 -->
<g id="edge47" class="edge">
<title>Node23&#45;&gt;Node25</title>
<path fill="none" stroke="#191970" d="M532.0816,-448.3733C549.7402,-439.4644 576.2053,-426.1127 596.2098,-416.0203"/>
<polygon fill="#191970" stroke="#191970" points="597.8158,-419.1303 605.1674,-411.5011 594.6628,-412.8806 597.8158,-419.1303"/>
</g>
<!-- Node24&#45;&gt;Node1 -->
<g id="edge46" class="edge">
<title>Node24&#45;&gt;Node1</title>
<path fill="none" stroke="#191970" d="M483.9688,-393.25C453.6536,-383.437 404.4508,-367.5101 371.664,-356.897"/>
<polygon fill="#191970" stroke="#191970" points="372.6468,-353.5364 362.0549,-353.7866 370.491,-360.1962 372.6468,-353.5364"/>
</g>
<!-- Node25&#45;&gt;Node1 -->
<g id="edge48" class="edge">
<title>Node25&#45;&gt;Node1</title>
<path fill="none" stroke="#191970" d="M594.2094,-395.0784C589.4625,-394.0191 584.6012,-392.9598 580,-392 506.0495,-376.5733 418.934,-360.5348 372.0294,-352.0734"/>
<polygon fill="#191970" stroke="#191970" points="372.562,-348.6131 362.1003,-350.2872 371.3226,-355.5025 372.562,-348.6131"/>
</g>
<!-- Node26 -->
<g id="node27" class="node">
<title>Node26</title>
<g id="a_node27"><a xlink:href="memp__std_8h.html" target="_top" xlink:title="lwip/memp_std.h">
<polygon fill="#ffffff" stroke="#000000" points="587.5,-336.5 587.5,-355.5 660.5,-355.5 660.5,-336.5 587.5,-336.5"/>
<text text-anchor="middle" x="624" y="-343.5" font-family="Helvetica,sans-Serif" font-size="10.00" fill="#000000">lwip/memp_std.h</text>
</a>
</g>
</g>
<!-- Node25&#45;&gt;Node26 -->
<g id="edge49" class="edge">
<title>Node25&#45;&gt;Node26</title>
<path fill="none" stroke="#191970" d="M624,-392.2455C624,-384.9382 624,-374.6944 624,-365.7046"/>
<polygon fill="#191970" stroke="#191970" points="627.5001,-365.6426 624,-355.6427 620.5001,-365.6427 627.5001,-365.6426"/>
</g>
</g>
</svg>
