<?xml version="1.0" encoding="UTF-8" standalone="no"?>
<!DOCTYPE svg PUBLIC "-//W3C//DTD SVG 1.1//EN"
 "http://www.w3.org/Graphics/SVG/1.1/DTD/svg11.dtd">
<!-- Generated by graphviz version 2.40.1 (20161225.0304)
 -->
<!-- Title: netif_init Pages: 1 -->
<svg width="636pt" height="294pt"
 viewBox="0.00 0.00 636.00 294.00" xmlns="http://www.w3.org/2000/svg" xmlns:xlink="http://www.w3.org/1999/xlink">
<g id="graph0" class="graph" transform="scale(1 1) rotate(0) translate(4 290)">
<title>netif_init</title>
<polygon fill="#ffffff" stroke="transparent" points="-4,4 -4,-290 632,-290 632,4 -4,4"/>
<!-- Node11 -->
<g id="node1" class="node">
<title>Node11</title>
<polygon fill="#bfbfbf" stroke="#000000" points="0,-133.5 0,-152.5 44,-152.5 44,-133.5 0,-133.5"/>
<text text-anchor="middle" x="22" y="-140.5" font-family="Helvetica,sans-Serif" font-size="10.00" fill="#000000">netif_init</text>
</g>
<!-- Node12 -->
<g id="node2" class="node">
<title>Node12</title>
<g id="a_node2"><a xlink:href="ip_8h.html#a9feb530a8af39f237202b679b5be04a1" target="_top" xlink:title="ip_input">
<polygon fill="#ffffff" stroke="#000000" points="190,-228.5 190,-247.5 233,-247.5 233,-228.5 190,-228.5"/>
<text text-anchor="middle" x="211.5" y="-235.5" font-family="Helvetica,sans-Serif" font-size="10.00" fill="#000000">ip_input</text>
</a>
</g>
</g>
<!-- Node11&#45;&gt;Node12 -->
<g id="edge1" class="edge">
<title>Node11&#45;&gt;Node12</title>
<path fill="none" stroke="#191970" d="M35.4221,-152.7419C46.9251,-160.8567 64.106,-172.4301 80,-181 113.1602,-198.8798 153.0939,-215.5483 180.1899,-226.1841"/>
<polygon fill="#191970" stroke="#191970" points="178.9666,-229.4637 189.5554,-229.8207 181.5004,-222.9383 178.9666,-229.4637"/>
</g>
<!-- Node21 -->
<g id="node11" class="node">
<title>Node21</title>
<g id="a_node11"><a xlink:href="netif_8c.html#aaaa8066c47023b576a5f403c3ba82597" target="_top" xlink:title="netif_add">
<polygon fill="#ffffff" stroke="#000000" points="85,-114.5 85,-133.5 132,-133.5 132,-114.5 85,-114.5"/>
<text text-anchor="middle" x="108.5" y="-121.5" font-family="Helvetica,sans-Serif" font-size="10.00" fill="#000000">netif_add</text>
</a>
</g>
</g>
<!-- Node11&#45;&gt;Node21 -->
<g id="edge12" class="edge">
<title>Node11&#45;&gt;Node21</title>
<path fill="none" stroke="#191970" d="M44.2759,-138.107C53.5866,-136.0619 64.6083,-133.641 74.8692,-131.3871"/>
<polygon fill="#191970" stroke="#191970" points="75.7686,-134.7731 84.7849,-129.2091 74.2668,-127.9361 75.7686,-134.7731"/>
</g>
<!-- Node26 -->
<g id="node16" class="node">
<title>Node26</title>
<g id="a_node16"><a xlink:href="netif_8c.html#af19693be401a265a52d2a56c65753121" target="_top" xlink:title="netif_set_up">
<polygon fill="#ffffff" stroke="#000000" points="80,-76.5 80,-95.5 137,-95.5 137,-76.5 80,-76.5"/>
<text text-anchor="middle" x="108.5" y="-83.5" font-family="Helvetica,sans-Serif" font-size="10.00" fill="#000000">netif_set_up</text>
</a>
</g>
</g>
<!-- Node11&#45;&gt;Node26 -->
<g id="edge17" class="edge">
<title>Node11&#45;&gt;Node26</title>
<path fill="none" stroke="#191970" d="M36.6735,-133.3307C50.0508,-124.5157 70.0298,-111.3503 85.5231,-101.1408"/>
<polygon fill="#191970" stroke="#191970" points="87.6189,-103.9514 94.0432,-95.5265 83.7672,-98.1064 87.6189,-103.9514"/>
</g>
<!-- Node27 -->
<g id="node17" class="node">
<title>Node27</title>
<g id="a_node17"><a xlink:href="tcpip_8h.html#ae510f195171bed8499ae94e264a92717" target="_top" xlink:title="tcpip_input">
<polygon fill="#ffffff" stroke="#000000" points="82,-152.5 82,-171.5 135,-171.5 135,-152.5 82,-152.5"/>
<text text-anchor="middle" x="108.5" y="-159.5" font-family="Helvetica,sans-Serif" font-size="10.00" fill="#000000">tcpip_input</text>
</a>
</g>
</g>
<!-- Node11&#45;&gt;Node27 -->
<g id="edge18" class="edge">
<title>Node11&#45;&gt;Node27</title>
<path fill="none" stroke="#191970" d="M44.2759,-147.893C52.7309,-149.7501 62.5969,-151.9172 72.0228,-153.9877"/>
<polygon fill="#191970" stroke="#191970" points="71.4725,-157.4502 81.9906,-156.1771 72.9744,-150.6132 71.4725,-157.4502"/>
</g>
<!-- Node13 -->
<g id="node3" class="node">
<title>Node13</title>
<g id="a_node3"><a xlink:href="inet__chksum_8h.html#a79a1825a9588a77b8c372a3d708974a8" target="_top" xlink:title="inet_chksum">
<polygon fill="#ffffff" stroke="#000000" points="295,-266.5 295,-285.5 354,-285.5 354,-266.5 295,-266.5"/>
<text text-anchor="middle" x="324.5" y="-273.5" font-family="Helvetica,sans-Serif" font-size="10.00" fill="#000000">inet_chksum</text>
</a>
</g>
</g>
<!-- Node12&#45;&gt;Node13 -->
<g id="edge2" class="edge">
<title>Node12&#45;&gt;Node13</title>
<path fill="none" stroke="#191970" d="M233.0204,-245.237C248.1487,-250.3243 268.7931,-257.2667 286.642,-263.269"/>
<polygon fill="#191970" stroke="#191970" points="285.6236,-266.6191 296.2177,-266.4891 287.8549,-259.9842 285.6236,-266.6191"/>
</g>
<!-- Node14 -->
<g id="node4" class="node">
<title>Node14</title>
<g id="a_node4"><a xlink:href="pbuf_8h.html#a0d26e00e2cf975274139d27ddabd7ed3" target="_top" xlink:title="pbuf_free">
<polygon fill="#ffffff" stroke="#000000" points="400,-228.5 400,-247.5 448,-247.5 448,-228.5 400,-228.5"/>
<text text-anchor="middle" x="424" y="-235.5" font-family="Helvetica,sans-Serif" font-size="10.00" fill="#000000">pbuf_free</text>
</a>
</g>
</g>
<!-- Node12&#45;&gt;Node14 -->
<g id="edge3" class="edge">
<title>Node12&#45;&gt;Node14</title>
<path fill="none" stroke="#191970" d="M233.0451,-238C269.8916,-238 345.3056,-238 389.5371,-238"/>
<polygon fill="#191970" stroke="#191970" points="389.803,-241.5001 399.803,-238 389.803,-234.5001 389.803,-241.5001"/>
</g>
<!-- Node18 -->
<g id="node8" class="node">
<title>Node18</title>
<g id="a_node8"><a xlink:href="pbuf_8h.html#a4853abdcdbbe0c4c9fc994e4e7e02b87" target="_top" xlink:title="pbuf_realloc">
<polygon fill="#ffffff" stroke="#000000" points="296,-190.5 296,-209.5 353,-209.5 353,-190.5 296,-190.5"/>
<text text-anchor="middle" x="324.5" y="-197.5" font-family="Helvetica,sans-Serif" font-size="10.00" fill="#000000">pbuf_realloc</text>
</a>
</g>
</g>
<!-- Node12&#45;&gt;Node18 -->
<g id="edge7" class="edge">
<title>Node12&#45;&gt;Node18</title>
<path fill="none" stroke="#191970" d="M233.0204,-230.763C248.1487,-225.6757 268.7931,-218.7333 286.642,-212.731"/>
<polygon fill="#191970" stroke="#191970" points="287.8549,-216.0158 296.2177,-209.5109 285.6236,-209.3809 287.8549,-216.0158"/>
</g>
<!-- Node15 -->
<g id="node5" class="node">
<title>Node15</title>
<g id="a_node5"><a xlink:href="memp_8h.html#a9d30a969401eb0626105950d6e63f3bf" target="_top" xlink:title="memp_free">
<polygon fill="#ffffff" stroke="#000000" points="485,-152.5 485,-171.5 539,-171.5 539,-152.5 485,-152.5"/>
<text text-anchor="middle" x="512" y="-159.5" font-family="Helvetica,sans-Serif" font-size="10.00" fill="#000000">memp_free</text>
</a>
</g>
</g>
<!-- Node14&#45;&gt;Node15 -->
<g id="edge4" class="edge">
<title>Node14&#45;&gt;Node15</title>
<path fill="none" stroke="#191970" d="M437.1402,-228.346C441.0135,-225.4116 445.2243,-222.1331 449,-219 464.829,-205.865 482.1073,-190.1261 494.5588,-178.5178"/>
<polygon fill="#191970" stroke="#191970" points="497.0823,-180.9496 501.9805,-171.5549 492.2928,-175.8445 497.0823,-180.9496"/>
</g>
<!-- Node16 -->
<g id="node6" class="node">
<title>Node16</title>
<g id="a_node6"><a xlink:href="esp-open-lwip_2include_2lwip_2mem_8h.html#ab270bbe39e1996d7095be3a139620ce0" target="_top" xlink:title="mem_free">
<polygon fill="#ffffff" stroke="#000000" points="487,-209.5 487,-228.5 537,-228.5 537,-209.5 487,-209.5"/>
<text text-anchor="middle" x="512" y="-216.5" font-family="Helvetica,sans-Serif" font-size="10.00" fill="#000000">mem_free</text>
</a>
</g>
</g>
<!-- Node14&#45;&gt;Node16 -->
<g id="edge5" class="edge">
<title>Node14&#45;&gt;Node16</title>
<path fill="none" stroke="#191970" d="M448.0464,-232.8082C456.9599,-230.8837 467.2595,-228.6599 476.9536,-226.5668"/>
<polygon fill="#191970" stroke="#191970" points="477.7172,-229.9827 486.7533,-224.451 476.2398,-223.1404 477.7172,-229.9827"/>
</g>
<!-- Node17 -->
<g id="node7" class="node">
<title>Node17</title>
<g id="a_node7"><a xlink:href="mem_8c.html#a24221009a2c00e9c3fa63eaa9444a076" target="_top" xlink:title="plug_holes">
<polygon fill="#ffffff" stroke="#000000" points="575,-209.5 575,-228.5 628,-228.5 628,-209.5 575,-209.5"/>
<text text-anchor="middle" x="601.5" y="-216.5" font-family="Helvetica,sans-Serif" font-size="10.00" fill="#000000">plug_holes</text>
</a>
</g>
</g>
<!-- Node16&#45;&gt;Node17 -->
<g id="edge6" class="edge">
<title>Node16&#45;&gt;Node17</title>
<path fill="none" stroke="#191970" d="M537.4077,-219C545.8937,-219 555.5288,-219 564.7031,-219"/>
<polygon fill="#191970" stroke="#191970" points="564.7797,-222.5001 574.7796,-219 564.7796,-215.5001 564.7797,-222.5001"/>
</g>
<!-- Node19 -->
<g id="node9" class="node">
<title>Node19</title>
<g id="a_node9"><a xlink:href="esp-open-lwip_2include_2lwip_2mem_8h.html#aaf260c2e52686f07d59d1d347ee952cc" target="_top" xlink:title="mem_trim">
<polygon fill="#ffffff" stroke="#000000" points="399,-190.5 399,-209.5 449,-209.5 449,-190.5 399,-190.5"/>
<text text-anchor="middle" x="424" y="-197.5" font-family="Helvetica,sans-Serif" font-size="10.00" fill="#000000">mem_trim</text>
</a>
</g>
</g>
<!-- Node18&#45;&gt;Node19 -->
<g id="edge8" class="edge">
<title>Node18&#45;&gt;Node19</title>
<path fill="none" stroke="#191970" d="M353.0127,-200C364.0923,-200 376.902,-200 388.5644,-200"/>
<polygon fill="#191970" stroke="#191970" points="388.8699,-203.5001 398.8699,-200 388.8698,-196.5001 388.8699,-203.5001"/>
</g>
<!-- Node20 -->
<g id="node10" class="node">
<title>Node20</title>
<g id="a_node10"><a xlink:href="pbuf_8c.html#ab0dd696fb4b6bc65e548944584f1738b" target="_top" xlink:title="pbuf_free">
<polygon fill="#ffffff" stroke="#000000" points="400,-152.5 400,-171.5 448,-171.5 448,-152.5 400,-152.5"/>
<text text-anchor="middle" x="424" y="-159.5" font-family="Helvetica,sans-Serif" font-size="10.00" fill="#000000">pbuf_free</text>
</a>
</g>
</g>
<!-- Node18&#45;&gt;Node20 -->
<g id="edge9" class="edge">
<title>Node18&#45;&gt;Node20</title>
<path fill="none" stroke="#191970" d="M349.6081,-190.411C362.0235,-185.6694 377.1781,-179.8817 390.5618,-174.7704"/>
<polygon fill="#191970" stroke="#191970" points="391.8365,-178.0302 399.9297,-171.1927 389.339,-171.4908 391.8365,-178.0302"/>
</g>
<!-- Node20&#45;&gt;Node15 -->
<g id="edge10" class="edge">
<title>Node20&#45;&gt;Node15</title>
<path fill="none" stroke="#191970" d="M448.0464,-162C456.2395,-162 465.6037,-162 474.5924,-162"/>
<polygon fill="#191970" stroke="#191970" points="474.8791,-165.5001 484.879,-162 474.879,-158.5001 474.8791,-165.5001"/>
</g>
<!-- Node20&#45;&gt;Node16 -->
<g id="edge11" class="edge">
<title>Node20&#45;&gt;Node16</title>
<path fill="none" stroke="#191970" d="M438.928,-171.6693C452.5372,-180.4843 472.8627,-193.6497 488.6247,-203.8592"/>
<polygon fill="#191970" stroke="#191970" points="486.9965,-206.9746 497.2925,-209.4735 490.8021,-201.0994 486.9965,-206.9746"/>
</g>
<!-- Node22 -->
<g id="node12" class="node">
<title>Node22</title>
<g id="a_node12"><a xlink:href="netif_8c.html#a383f97a67057d0f3cd8bfff0534973fc" target="_top" xlink:title="netif_set_addr">
<polygon fill="#ffffff" stroke="#000000" points="179.5,-38.5 179.5,-57.5 243.5,-57.5 243.5,-38.5 179.5,-38.5"/>
<text text-anchor="middle" x="211.5" y="-45.5" font-family="Helvetica,sans-Serif" font-size="10.00" fill="#000000">netif_set_addr</text>
</a>
</g>
</g>
<!-- Node21&#45;&gt;Node22 -->
<g id="edge13" class="edge">
<title>Node21&#45;&gt;Node22</title>
<path fill="none" stroke="#191970" d="M124.3382,-114.3517C128.5896,-111.521 133.0892,-108.2954 137,-105 154.7905,-90.0089 154.2764,-80.808 173,-67 175.0996,-65.4516 177.3447,-63.9715 179.6563,-62.5699"/>
<polygon fill="#191970" stroke="#191970" points="181.6603,-65.4621 188.7344,-57.5749 178.2858,-59.3292 181.6603,-65.4621"/>
</g>
<!-- Node23 -->
<g id="node13" class="node">
<title>Node23</title>
<g id="a_node13"><a xlink:href="netif_8c.html#ae495c5439172c15c703a84cb33806236" target="_top" xlink:title="netif_set_ipaddr">
<polygon fill="#ffffff" stroke="#000000" points="289.5,-76.5 289.5,-95.5 359.5,-95.5 359.5,-76.5 289.5,-76.5"/>
<text text-anchor="middle" x="324.5" y="-83.5" font-family="Helvetica,sans-Serif" font-size="10.00" fill="#000000">netif_set_ipaddr</text>
</a>
</g>
</g>
<!-- Node22&#45;&gt;Node23 -->
<g id="edge14" class="edge">
<title>Node22&#45;&gt;Node23</title>
<path fill="none" stroke="#191970" d="M240.0147,-57.589C254.0666,-62.3144 271.2082,-68.0789 286.3696,-73.1774"/>
<polygon fill="#191970" stroke="#191970" points="285.4004,-76.544 295.9945,-76.4141 287.6317,-69.9091 285.4004,-76.544"/>
</g>
<!-- Node24 -->
<g id="node14" class="node">
<title>Node24</title>
<g id="a_node14"><a xlink:href="netif_8c.html#a19b1df3b0b78d7505e3c4c196730ad91" target="_top" xlink:title="netif_set_netmask">
<polygon fill="#ffffff" stroke="#000000" points="286,-38.5 286,-57.5 363,-57.5 363,-38.5 286,-38.5"/>
<text text-anchor="middle" x="324.5" y="-45.5" font-family="Helvetica,sans-Serif" font-size="10.00" fill="#000000">netif_set_netmask</text>
</a>
</g>
</g>
<!-- Node22&#45;&gt;Node24 -->
<g id="edge15" class="edge">
<title>Node22&#45;&gt;Node24</title>
<path fill="none" stroke="#191970" d="M243.579,-48C253.5673,-48 264.8164,-48 275.6797,-48"/>
<polygon fill="#191970" stroke="#191970" points="275.923,-51.5001 285.9229,-48 275.9229,-44.5001 275.923,-51.5001"/>
</g>
<!-- Node25 -->
<g id="node15" class="node">
<title>Node25</title>
<g id="a_node15"><a xlink:href="netif_8c.html#aa6db00ff3e674d3ff8580c82f5215f4e" target="_top" xlink:title="netif_set_gw">
<polygon fill="#ffffff" stroke="#000000" points="295,-.5 295,-19.5 354,-19.5 354,-.5 295,-.5"/>
<text text-anchor="middle" x="324.5" y="-7.5" font-family="Helvetica,sans-Serif" font-size="10.00" fill="#000000">netif_set_gw</text>
</a>
</g>
</g>
<!-- Node22&#45;&gt;Node25 -->
<g id="edge16" class="edge">
<title>Node22&#45;&gt;Node25</title>
<path fill="none" stroke="#191970" d="M240.0147,-38.411C254.0666,-33.6856 271.2082,-27.9211 286.3696,-22.8226"/>
<polygon fill="#191970" stroke="#191970" points="287.6317,-26.0909 295.9945,-19.5859 285.4004,-19.456 287.6317,-26.0909"/>
</g>
<!-- Node27&#45;&gt;Node12 -->
<g id="edge19" class="edge">
<title>Node27&#45;&gt;Node12</title>
<path fill="none" stroke="#191970" d="M117.8825,-171.7569C129.8777,-183.8693 151.6575,-204.6762 173,-219 175.4369,-220.6355 178.035,-222.2174 180.687,-223.7235"/>
<polygon fill="#191970" stroke="#191970" points="179.2794,-226.9383 189.7556,-228.5196 182.5521,-220.7504 179.2794,-226.9383"/>
</g>
<!-- Node27&#45;&gt;Node15 -->
<g id="edge23" class="edge">
<title>Node27&#45;&gt;Node15</title>
<path fill="none" stroke="#191970" d="M134.4819,-152.4996C146.0961,-148.7363 160.0594,-144.8663 173,-143 294.4105,-125.4898 327.6465,-125.0989 449,-143 458.1147,-144.3445 467.739,-146.7276 476.6473,-149.3614"/>
<polygon fill="#191970" stroke="#191970" points="475.7463,-152.7468 486.3354,-152.3996 477.8409,-146.0676 475.7463,-152.7468"/>
</g>
<!-- Node28 -->
<g id="node18" class="node">
<title>Node28</title>
<g id="a_node18"><a xlink:href="sys_8h.html#a8bcfab4bd791dd33f69a778e7585275d" target="_top" xlink:title="sys_mbox_valid">
<polygon fill="#ffffff" stroke="#000000" points="176.5,-76.5 176.5,-95.5 246.5,-95.5 246.5,-76.5 176.5,-76.5"/>
<text text-anchor="middle" x="211.5" y="-83.5" font-family="Helvetica,sans-Serif" font-size="10.00" fill="#000000">sys_mbox_valid</text>
</a>
</g>
</g>
<!-- Node27&#45;&gt;Node28 -->
<g id="edge20" class="edge">
<title>Node27&#45;&gt;Node28</title>
<path fill="none" stroke="#191970" d="M123.8917,-152.3637C128.2274,-149.4832 132.8819,-146.229 137,-143 154.0804,-129.6071 155.7168,-123.1303 173,-110 177.0218,-106.9446 181.4444,-103.914 185.8147,-101.0876"/>
<polygon fill="#191970" stroke="#191970" points="187.9333,-103.8912 194.5667,-95.6299 184.2293,-97.9514 187.9333,-103.8912"/>
</g>
<!-- Node29 -->
<g id="node19" class="node">
<title>Node29</title>
<g id="a_node19"><a xlink:href="memp_8h.html#a5b98c976852aa0eabda9fd588be56eb8" target="_top" xlink:title="memp_malloc">
<polygon fill="#ffffff" stroke="#000000" points="180,-190.5 180,-209.5 243,-209.5 243,-190.5 180,-190.5"/>
<text text-anchor="middle" x="211.5" y="-197.5" font-family="Helvetica,sans-Serif" font-size="10.00" fill="#000000">memp_malloc</text>
</a>
</g>
</g>
<!-- Node27&#45;&gt;Node29 -->
<g id="edge21" class="edge">
<title>Node27&#45;&gt;Node29</title>
<path fill="none" stroke="#191970" d="M134.4912,-171.589C147.0557,-176.2244 162.3301,-181.8596 175.9523,-186.8853"/>
<polygon fill="#191970" stroke="#191970" points="174.9237,-190.2364 185.5171,-190.4141 177.3467,-183.6691 174.9237,-190.2364"/>
</g>
<!-- Node30 -->
<g id="node20" class="node">
<title>Node30</title>
<g id="a_node20"><a xlink:href="sys_8h.html#aa36345e48a49d67cbb0878cd4cbd2195" target="_top" xlink:title="sys_mbox_trypost">
<polygon fill="#ffffff" stroke="#000000" points="173,-152.5 173,-171.5 250,-171.5 250,-152.5 173,-152.5"/>
<text text-anchor="middle" x="211.5" y="-159.5" font-family="Helvetica,sans-Serif" font-size="10.00" fill="#000000">sys_mbox_trypost</text>
</a>
</g>
</g>
<!-- Node27&#45;&gt;Node30 -->
<g id="edge22" class="edge">
<title>Node27&#45;&gt;Node30</title>
<path fill="none" stroke="#191970" d="M135.0251,-162C143.4295,-162 153.0048,-162 162.4686,-162"/>
<polygon fill="#191970" stroke="#191970" points="162.6335,-165.5001 172.6335,-162 162.6335,-158.5001 162.6335,-165.5001"/>
</g>
</g>
</svg>
