<?xml version="1.0" encoding="UTF-8" standalone="no"?>
<!DOCTYPE svg PUBLIC "-//W3C//DTD SVG 1.1//EN"
 "http://www.w3.org/Graphics/SVG/1.1/DTD/svg11.dtd">
<!-- Generated by graphviz version 2.40.1 (20161225.0304)
 -->
<!-- Title: esp&#45;open&#45;lwip/include/lwip/opt.h Pages: 1 -->
<svg width="299pt" height="375pt"
 viewBox="0.00 0.00 298.50 375.00" xmlns="http://www.w3.org/2000/svg" xmlns:xlink="http://www.w3.org/1999/xlink">
<g id="graph0" class="graph" transform="scale(1 1) rotate(0) translate(4 371)">
<title>esp&#45;open&#45;lwip/include/lwip/opt.h</title>
<polygon fill="#ffffff" stroke="transparent" points="-4,4 -4,-371 294.5,-371 294.5,4 -4,4"/>
<!-- Node0 -->
<g id="node1" class="node">
<title>Node0</title>
<polygon fill="#bfbfbf" stroke="#000000" points="32,-336.5 32,-366.5 121,-366.5 121,-336.5 32,-336.5"/>
<text text-anchor="start" x="40" y="-354.5" font-family="Helvetica,sans-Serif" font-size="10.00" fill="#000000">esp&#45;open&#45;lwip/include</text>
<text text-anchor="middle" x="76.5" y="-343.5" font-family="Helvetica,sans-Serif" font-size="10.00" fill="#000000">/lwip/opt.h</text>
</g>
<!-- Node1 -->
<g id="node2" class="node">
<title>Node1</title>
<g id="a_node2"><a xlink:href="lwipopts_8h.html" target="_top" xlink:title="lwipopts.h">
<polygon fill="#ffffff" stroke="#000000" points="15.5,-280.5 15.5,-299.5 65.5,-299.5 65.5,-280.5 15.5,-280.5"/>
<text text-anchor="middle" x="40.5" y="-287.5" font-family="Helvetica,sans-Serif" font-size="10.00" fill="#000000">lwipopts.h</text>
</a>
</g>
</g>
<!-- Node0&#45;&gt;Node1 -->
<g id="edge1" class="edge">
<title>Node0&#45;&gt;Node1</title>
<path fill="none" stroke="#191970" d="M67.6011,-336.2977C62.7081,-327.9388 56.5974,-317.4997 51.4176,-308.6509"/>
<polygon fill="#191970" stroke="#191970" points="54.3365,-306.7089 46.2641,-299.8469 48.2953,-310.2452 54.3365,-306.7089"/>
</g>
<!-- Node2 -->
<g id="node3" class="node">
<title>Node2</title>
<g id="a_node3"><a xlink:href="esp-open-sdk_2esp-open-lwip_2include_2lwip_2debug_8h.html" target="_top" xlink:title="lwip/debug.h">
<polygon fill="#ffffff" stroke="#000000" points="84,-280.5 84,-299.5 143,-299.5 143,-280.5 84,-280.5"/>
<text text-anchor="middle" x="113.5" y="-287.5" font-family="Helvetica,sans-Serif" font-size="10.00" fill="#000000">lwip/debug.h</text>
</a>
</g>
</g>
<!-- Node0&#45;&gt;Node2 -->
<g id="edge2" class="edge">
<title>Node0&#45;&gt;Node2</title>
<path fill="none" stroke="#191970" d="M85.6461,-336.2977C90.6751,-327.9388 96.9555,-317.4997 102.2791,-308.6509"/>
<polygon fill="#191970" stroke="#191970" points="105.4197,-310.2201 107.5758,-299.8469 99.4215,-306.6114 105.4197,-310.2201"/>
</g>
<!-- Node3 -->
<g id="node4" class="node">
<title>Node3</title>
<g id="a_node4"><a xlink:href="arch_8h.html" target="_top" xlink:title="lwip/arch.h">
<polygon fill="#ffffff" stroke="#000000" points="87.5,-224.5 87.5,-243.5 139.5,-243.5 139.5,-224.5 87.5,-224.5"/>
<text text-anchor="middle" x="113.5" y="-231.5" font-family="Helvetica,sans-Serif" font-size="10.00" fill="#000000">lwip/arch.h</text>
</a>
</g>
</g>
<!-- Node2&#45;&gt;Node3 -->
<g id="edge3" class="edge">
<title>Node2&#45;&gt;Node3</title>
<path fill="none" stroke="#191970" d="M113.5,-280.2455C113.5,-272.9382 113.5,-262.6944 113.5,-253.7046"/>
<polygon fill="#191970" stroke="#191970" points="117.0001,-253.6426 113.5,-243.6427 110.0001,-253.6427 117.0001,-253.6426"/>
</g>
<!-- Node4 -->
<g id="node5" class="node">
<title>Node4</title>
<g id="a_node5"><a xlink:href="cc_8h.html" target="_top" xlink:title="arch/cc.h">
<polygon fill="#ffffff" stroke="#000000" points="90,-168.5 90,-187.5 137,-187.5 137,-168.5 90,-168.5"/>
<text text-anchor="middle" x="113.5" y="-175.5" font-family="Helvetica,sans-Serif" font-size="10.00" fill="#000000">arch/cc.h</text>
</a>
</g>
</g>
<!-- Node3&#45;&gt;Node4 -->
<g id="edge4" class="edge">
<title>Node3&#45;&gt;Node4</title>
<path fill="none" stroke="#191970" d="M113.5,-224.2455C113.5,-216.9382 113.5,-206.6944 113.5,-197.7046"/>
<polygon fill="#191970" stroke="#191970" points="117.0001,-197.6426 113.5,-187.6427 110.0001,-197.6427 117.0001,-197.6426"/>
</g>
<!-- Node5 -->
<g id="node6" class="node">
<title>Node5</title>
<g id="a_node6"><a xlink:href="c__types_8h.html" target="_top" xlink:title="c_types.h">
<polygon fill="#ffffff" stroke="#000000" points="27,-56.5 27,-75.5 76,-75.5 76,-56.5 27,-56.5"/>
<text text-anchor="middle" x="51.5" y="-63.5" font-family="Helvetica,sans-Serif" font-size="10.00" fill="#000000">c_types.h</text>
</a>
</g>
</g>
<!-- Node4&#45;&gt;Node5 -->
<g id="edge5" class="edge">
<title>Node4&#45;&gt;Node5</title>
<path fill="none" stroke="#191970" d="M105.5285,-168.1738C98.4157,-159.1247 87.9965,-145.1492 80.5,-132 71.8916,-116.9004 64.0887,-98.7604 58.7507,-85.3224"/>
<polygon fill="#191970" stroke="#191970" points="61.9013,-83.7657 55.0299,-75.7013 55.3726,-86.2906 61.9013,-83.7657"/>
</g>
<!-- Node8 -->
<g id="node9" class="node">
<title>Node8</title>
<g id="a_node9"><a xlink:href="ets__sys_8h.html" target="_top" xlink:title="ets_sys.h">
<polygon fill="#ffffff" stroke="#000000" points="89.5,-112.5 89.5,-131.5 137.5,-131.5 137.5,-112.5 89.5,-112.5"/>
<text text-anchor="middle" x="113.5" y="-119.5" font-family="Helvetica,sans-Serif" font-size="10.00" fill="#000000">ets_sys.h</text>
</a>
</g>
</g>
<!-- Node4&#45;&gt;Node8 -->
<g id="edge8" class="edge">
<title>Node4&#45;&gt;Node8</title>
<path fill="none" stroke="#191970" d="M113.5,-168.2455C113.5,-160.9382 113.5,-150.6944 113.5,-141.7046"/>
<polygon fill="#191970" stroke="#191970" points="117.0001,-141.6426 113.5,-131.6427 110.0001,-141.6427 117.0001,-141.6426"/>
</g>
<!-- Node10 -->
<g id="node11" class="node">
<title>Node10</title>
<g id="a_node11"><a xlink:href="osapi_8h.html" target="_top" xlink:title="osapi.h">
<polygon fill="#ffffff" stroke="#000000" points="169,-112.5 169,-131.5 210,-131.5 210,-112.5 169,-112.5"/>
<text text-anchor="middle" x="189.5" y="-119.5" font-family="Helvetica,sans-Serif" font-size="10.00" fill="#000000">osapi.h</text>
</a>
</g>
</g>
<!-- Node4&#45;&gt;Node10 -->
<g id="edge11" class="edge">
<title>Node4&#45;&gt;Node10</title>
<path fill="none" stroke="#191970" d="M126.7382,-168.2455C138.181,-159.814 154.9296,-147.4729 168.2475,-137.6598"/>
<polygon fill="#191970" stroke="#191970" points="170.4391,-140.3924 176.4135,-131.6427 166.2867,-134.757 170.4391,-140.3924"/>
</g>
<!-- Node6 -->
<g id="node7" class="node">
<title>Node6</title>
<polygon fill="#ffffff" stroke="#bfbfbf" points="0,-.5 0,-19.5 41,-19.5 41,-.5 0,-.5"/>
<text text-anchor="middle" x="20.5" y="-7.5" font-family="Helvetica,sans-Serif" font-size="10.00" fill="#000000">stdint.h</text>
</g>
<!-- Node5&#45;&gt;Node6 -->
<g id="edge6" class="edge">
<title>Node5&#45;&gt;Node6</title>
<path fill="none" stroke="#191970" d="M46.1002,-56.2455C41.8773,-48.617 35.8827,-37.7881 30.7559,-28.5267"/>
<polygon fill="#191970" stroke="#191970" points="33.7432,-26.6965 25.8379,-19.6427 27.619,-30.0867 33.7432,-26.6965"/>
</g>
<!-- Node7 -->
<g id="node8" class="node">
<title>Node7</title>
<polygon fill="#ffffff" stroke="#bfbfbf" points="59,-.5 59,-19.5 106,-19.5 106,-.5 59,-.5"/>
<text text-anchor="middle" x="82.5" y="-7.5" font-family="Helvetica,sans-Serif" font-size="10.00" fill="#000000">stdbool.h</text>
</g>
<!-- Node5&#45;&gt;Node7 -->
<g id="edge7" class="edge">
<title>Node5&#45;&gt;Node7</title>
<path fill="none" stroke="#191970" d="M56.8998,-56.2455C61.1227,-48.617 67.1173,-37.7881 72.2441,-28.5267"/>
<polygon fill="#191970" stroke="#191970" points="75.381,-30.0867 77.1621,-19.6427 69.2568,-26.6965 75.381,-30.0867"/>
</g>
<!-- Node8&#45;&gt;Node5 -->
<g id="edge9" class="edge">
<title>Node8&#45;&gt;Node5</title>
<path fill="none" stroke="#191970" d="M102.7004,-112.2455C93.6322,-104.0549 80.4794,-92.1749 69.7755,-82.5069"/>
<polygon fill="#191970" stroke="#191970" points="71.9429,-79.7482 62.1758,-75.6427 67.2509,-84.9429 71.9429,-79.7482"/>
</g>
<!-- Node9 -->
<g id="node10" class="node">
<title>Node9</title>
<g id="a_node10"><a xlink:href="eagle__soc_8h.html" target="_top" xlink:title="eagle_soc.h">
<polygon fill="#ffffff" stroke="#000000" points="94,-56.5 94,-75.5 151,-75.5 151,-56.5 94,-56.5"/>
<text text-anchor="middle" x="122.5" y="-63.5" font-family="Helvetica,sans-Serif" font-size="10.00" fill="#000000">eagle_soc.h</text>
</a>
</g>
</g>
<!-- Node8&#45;&gt;Node9 -->
<g id="edge10" class="edge">
<title>Node8&#45;&gt;Node9</title>
<path fill="none" stroke="#191970" d="M115.0677,-112.2455C116.2421,-104.9382 117.8884,-94.6944 119.3332,-85.7046"/>
<polygon fill="#191970" stroke="#191970" points="122.8191,-86.0714 120.9503,-75.6427 115.9078,-84.9606 122.8191,-86.0714"/>
</g>
<!-- Node11 -->
<g id="node12" class="node">
<title>Node11</title>
<polygon fill="#ffffff" stroke="#bfbfbf" points="169,-56.5 169,-75.5 210,-75.5 210,-56.5 169,-56.5"/>
<text text-anchor="middle" x="189.5" y="-63.5" font-family="Helvetica,sans-Serif" font-size="10.00" fill="#000000">string.h</text>
</g>
<!-- Node10&#45;&gt;Node11 -->
<g id="edge12" class="edge">
<title>Node10&#45;&gt;Node11</title>
<path fill="none" stroke="#191970" d="M189.5,-112.2455C189.5,-104.9382 189.5,-94.6944 189.5,-85.7046"/>
<polygon fill="#191970" stroke="#191970" points="193.0001,-85.6426 189.5,-75.6427 186.0001,-85.6427 193.0001,-85.6426"/>
</g>
<!-- Node12 -->
<g id="node13" class="node">
<title>Node12</title>
<polygon fill="#ffffff" stroke="#bfbfbf" points="228.5,-56.5 228.5,-75.5 290.5,-75.5 290.5,-56.5 228.5,-56.5"/>
<text text-anchor="middle" x="259.5" y="-63.5" font-family="Helvetica,sans-Serif" font-size="10.00" fill="#000000">user_config.h</text>
</g>
<!-- Node10&#45;&gt;Node12 -->
<g id="edge13" class="edge">
<title>Node10&#45;&gt;Node12</title>
<path fill="none" stroke="#191970" d="M201.6931,-112.2455C212.1321,-103.8943 227.3655,-91.7076 239.574,-81.9408"/>
<polygon fill="#191970" stroke="#191970" points="241.8244,-84.6227 247.4467,-75.6427 237.4515,-79.1566 241.8244,-84.6227"/>
</g>
</g>
</svg>
