<?xml version="1.0" encoding="UTF-8" standalone="no"?>
<!DOCTYPE svg PUBLIC "-//W3C//DTD SVG 1.1//EN"
 "http://www.w3.org/Graphics/SVG/1.1/DTD/svg11.dtd">
<!-- Generated by graphviz version 2.40.1 (20161225.0304)
 -->
<!-- Title: sdk/include/osapi.h Pages: 1 -->
<svg width="130pt" height="84pt"
 viewBox="0.00 0.00 129.50 84.00" xmlns="http://www.w3.org/2000/svg" xmlns:xlink="http://www.w3.org/1999/xlink">
<g id="graph0" class="graph" transform="scale(1 1) rotate(0) translate(4 80)">
<title>sdk/include/osapi.h</title>
<polygon fill="#ffffff" stroke="transparent" points="-4,4 -4,-80 125.5,-80 125.5,4 -4,4"/>
<!-- Node0 -->
<g id="node1" class="node">
<title>Node0</title>
<polygon fill="#bfbfbf" stroke="#000000" points="15.5,-56.5 15.5,-75.5 95.5,-75.5 95.5,-56.5 15.5,-56.5"/>
<text text-anchor="middle" x="55.5" y="-63.5" font-family="Helvetica,sans-Serif" font-size="10.00" fill="#000000">sdk/include/osapi.h</text>
</g>
<!-- Node1 -->
<g id="node2" class="node">
<title>Node1</title>
<polygon fill="#ffffff" stroke="#bfbfbf" points="0,-.5 0,-19.5 41,-19.5 41,-.5 0,-.5"/>
<text text-anchor="middle" x="20.5" y="-7.5" font-family="Helvetica,sans-Serif" font-size="10.00" fill="#000000">string.h</text>
</g>
<!-- Node0&#45;&gt;Node1 -->
<g id="edge1" class="edge">
<title>Node0&#45;&gt;Node1</title>
<path fill="none" stroke="#191970" d="M49.4035,-56.2455C44.5855,-48.5367 37.7249,-37.5598 31.8968,-28.2348"/>
<polygon fill="#191970" stroke="#191970" points="34.7947,-26.2677 26.5267,-19.6427 28.8587,-29.9777 34.7947,-26.2677"/>
</g>
<!-- Node2 -->
<g id="node3" class="node">
<title>Node2</title>
<polygon fill="#ffffff" stroke="#bfbfbf" points="59.5,-.5 59.5,-19.5 121.5,-19.5 121.5,-.5 59.5,-.5"/>
<text text-anchor="middle" x="90.5" y="-7.5" font-family="Helvetica,sans-Serif" font-size="10.00" fill="#000000">user_config.h</text>
</g>
<!-- Node0&#45;&gt;Node2 -->
<g id="edge2" class="edge">
<title>Node0&#45;&gt;Node2</title>
<path fill="none" stroke="#191970" d="M61.5965,-56.2455C66.4145,-48.5367 73.2751,-37.5598 79.1032,-28.2348"/>
<polygon fill="#191970" stroke="#191970" points="82.1413,-29.9777 84.4733,-19.6427 76.2053,-26.2677 82.1413,-29.9777"/>
</g>
</g>
</svg>
