<?xml version="1.0" encoding="UTF-8" standalone="no"?>
<!DOCTYPE svg PUBLIC "-//W3C//DTD SVG 1.1//EN"
 "http://www.w3.org/Graphics/SVG/1.1/DTD/svg11.dtd">
<!-- Generated by graphviz version 2.40.1 (20161225.0304)
 -->
<!-- Title: pbuf_memfind Pages: 1 -->
<svg width="266pt" height="28pt"
 viewBox="0.00 0.00 266.00 28.00" xmlns="http://www.w3.org/2000/svg" xmlns:xlink="http://www.w3.org/1999/xlink">
<g id="graph0" class="graph" transform="scale(1 1) rotate(0) translate(4 24)">
<title>pbuf_memfind</title>
<polygon fill="#ffffff" stroke="transparent" points="-4,4 -4,-24 262,-24 262,4 -4,4"/>
<!-- Node156 -->
<g id="node1" class="node">
<title>Node156</title>
<polygon fill="#bfbfbf" stroke="#000000" points="0,-.5 0,-19.5 64,-19.5 64,-.5 0,-.5"/>
<text text-anchor="middle" x="32" y="-7.5" font-family="Helvetica,sans-Serif" font-size="10.00" fill="#000000">pbuf_memfind</text>
</g>
<!-- Node157 -->
<g id="node2" class="node">
<title>Node157</title>
<g id="a_node2"><a xlink:href="pbuf_8c.html#a9c958b2d670dc831a982ea836c6bdfdb" target="_top" xlink:title="pbuf_memcmp">
<polygon fill="#ffffff" stroke="#000000" points="100,-.5 100,-19.5 166,-19.5 166,-.5 100,-.5"/>
<text text-anchor="middle" x="133" y="-7.5" font-family="Helvetica,sans-Serif" font-size="10.00" fill="#000000">pbuf_memcmp</text>
</a>
</g>
</g>
<!-- Node156&#45;&gt;Node157 -->
<g id="edge1" class="edge">
<title>Node156&#45;&gt;Node157</title>
<path fill="none" stroke="#191970" d="M64.2347,-10C72.2792,-10 81.0383,-10 89.5273,-10"/>
<polygon fill="#191970" stroke="#191970" points="89.6818,-13.5001 99.6817,-10 89.6817,-6.5001 89.6818,-13.5001"/>
</g>
<!-- Node158 -->
<g id="node3" class="node">
<title>Node158</title>
<g id="a_node3"><a xlink:href="pbuf_8c.html#a9e0f4c31d059984a431c96bf27b763e6" target="_top" xlink:title="pbuf_get_at">
<polygon fill="#ffffff" stroke="#000000" points="202,-.5 202,-19.5 258,-19.5 258,-.5 202,-.5"/>
<text text-anchor="middle" x="230" y="-7.5" font-family="Helvetica,sans-Serif" font-size="10.00" fill="#000000">pbuf_get_at</text>
</a>
</g>
</g>
<!-- Node157&#45;&gt;Node158 -->
<g id="edge2" class="edge">
<title>Node157&#45;&gt;Node158</title>
<path fill="none" stroke="#191970" d="M166.1106,-10C174.3825,-10 183.3207,-10 191.8162,-10"/>
<polygon fill="#191970" stroke="#191970" points="191.8846,-13.5001 201.8846,-10 191.8845,-6.5001 191.8846,-13.5001"/>
</g>
</g>
</svg>
