<?xml version="1.0" encoding="UTF-8" standalone="no"?>
<!DOCTYPE svg PUBLIC "-//W3C//DTD SVG 1.1//EN"
 "http://www.w3.org/Graphics/SVG/1.1/DTD/svg11.dtd">
<!-- Generated by graphviz version 2.40.1 (20161225.0304)
 -->
<!-- Title: esp&#45;open&#45;lwip/include/lwip/pbuf.h Pages: 1 -->
<svg width="2091pt" height="307pt"
 viewBox="0.00 0.00 2090.50 307.00" xmlns="http://www.w3.org/2000/svg" xmlns:xlink="http://www.w3.org/1999/xlink">
<g id="graph0" class="graph" transform="scale(1 1) rotate(0) translate(4 303)">
<title>esp&#45;open&#45;lwip/include/lwip/pbuf.h</title>
<polygon fill="#ffffff" stroke="transparent" points="-4,4 -4,-303 2086.5,-303 2086.5,4 -4,4"/>
<!-- Node15 -->
<g id="node1" class="node">
<title>Node15</title>
<polygon fill="#bfbfbf" stroke="#000000" points="1382,-268.5 1382,-298.5 1471,-298.5 1471,-268.5 1382,-268.5"/>
<text text-anchor="start" x="1390" y="-286.5" font-family="Helvetica,sans-Serif" font-size="10.00" fill="#000000">esp&#45;open&#45;lwip/include</text>
<text text-anchor="middle" x="1426.5" y="-275.5" font-family="Helvetica,sans-Serif" font-size="10.00" fill="#000000">/lwip/pbuf.h</text>
</g>
<!-- Node16 -->
<g id="node2" class="node">
<title>Node16</title>
<g id="a_node2"><a xlink:href="icmp_8h.html" target="_top" xlink:title="esp&#45;open&#45;lwip/include\l/lwip/icmp.h">
<polygon fill="#ffffff" stroke="#000000" points="189,-134.5 189,-164.5 278,-164.5 278,-134.5 189,-134.5"/>
<text text-anchor="start" x="197" y="-152.5" font-family="Helvetica,sans-Serif" font-size="10.00" fill="#000000">esp&#45;open&#45;lwip/include</text>
<text text-anchor="middle" x="233.5" y="-141.5" font-family="Helvetica,sans-Serif" font-size="10.00" fill="#000000">/lwip/icmp.h</text>
</a>
</g>
</g>
<!-- Node15&#45;&gt;Node16 -->
<g id="edge1" class="edge">
<title>Node15&#45;&gt;Node16</title>
<path fill="none" stroke="#191970" d="M1371.7175,-282.9955C1163.4439,-280.7957 427.6975,-270.3577 330.5,-232 294.5128,-217.7982 262.3987,-184.4606 245.6793,-164.786"/>
<polygon fill="#191970" stroke="#191970" points="1371.7733,-286.4962 1381.809,-283.1 1371.8458,-279.4965 1371.7733,-286.4962"/>
</g>
<!-- Node20 -->
<g id="node6" class="node">
<title>Node20</title>
<g id="a_node6"><a xlink:href="igmp_8h.html" target="_top" xlink:title="esp&#45;open&#45;lwip/include\l/lwip/igmp.h">
<polygon fill="#ffffff" stroke="#000000" points="513,-134.5 513,-164.5 602,-164.5 602,-134.5 513,-134.5"/>
<text text-anchor="start" x="521" y="-152.5" font-family="Helvetica,sans-Serif" font-size="10.00" fill="#000000">esp&#45;open&#45;lwip/include</text>
<text text-anchor="middle" x="557.5" y="-141.5" font-family="Helvetica,sans-Serif" font-size="10.00" fill="#000000">/lwip/igmp.h</text>
</a>
</g>
</g>
<!-- Node15&#45;&gt;Node20 -->
<g id="edge5" class="edge">
<title>Node15&#45;&gt;Node20</title>
<path fill="none" stroke="#191970" d="M1371.7505,-282.1978C1203.8749,-277.8907 703.711,-262.6049 637.5,-232 605.8075,-217.3506 580.0605,-184.1774 566.9404,-164.6516"/>
<polygon fill="#191970" stroke="#191970" points="1371.7655,-285.6992 1381.851,-282.454 1371.943,-278.7015 1371.7655,-285.6992"/>
</g>
<!-- Node21 -->
<g id="node7" class="node">
<title>Node21</title>
<g id="a_node7"><a xlink:href="init_8c.html" target="_top" xlink:title="esp&#45;open&#45;lwip/lwip\l/core/init.c">
<polygon fill="#ffffff" stroke="#000000" points="372.5,-67.5 372.5,-97.5 450.5,-97.5 450.5,-67.5 372.5,-67.5"/>
<text text-anchor="start" x="380.5" y="-85.5" font-family="Helvetica,sans-Serif" font-size="10.00" fill="#000000">esp&#45;open&#45;lwip/lwip</text>
<text text-anchor="middle" x="411.5" y="-74.5" font-family="Helvetica,sans-Serif" font-size="10.00" fill="#000000">/core/init.c</text>
</a>
</g>
</g>
<!-- Node15&#45;&gt;Node21 -->
<g id="edge61" class="edge">
<title>Node15&#45;&gt;Node21</title>
<path fill="none" stroke="#191970" d="M1371.8109,-282.858C1211.0646,-280.5386 742.1336,-270.5613 594.5,-232 528.1461,-214.6686 504.9725,-212.494 455.5,-165 435.5931,-145.8892 422.7219,-115.7791 416.3207,-97.7057"/>
<polygon fill="#191970" stroke="#191970" points="1371.8986,-286.3595 1381.9466,-282.9999 1371.9966,-279.3601 1371.8986,-286.3595"/>
</g>
<!-- Node22 -->
<g id="node8" class="node">
<title>Node22</title>
<g id="a_node8"><a xlink:href="memp_8c.html" target="_top" xlink:title="esp&#45;open&#45;lwip/lwip\l/core/memp.c">
<polygon fill="#ffffff" stroke="#000000" points="1002.5,-.5 1002.5,-30.5 1080.5,-30.5 1080.5,-.5 1002.5,-.5"/>
<text text-anchor="start" x="1010.5" y="-18.5" font-family="Helvetica,sans-Serif" font-size="10.00" fill="#000000">esp&#45;open&#45;lwip/lwip</text>
<text text-anchor="middle" x="1041.5" y="-7.5" font-family="Helvetica,sans-Serif" font-size="10.00" fill="#000000">/core/memp.c</text>
</a>
</g>
</g>
<!-- Node15&#45;&gt;Node22 -->
<g id="edge62" class="edge">
<title>Node15&#45;&gt;Node22</title>
<path fill="none" stroke="#191970" d="M1464.16,-263.3332C1532.539,-224.2627 1664.469,-136.0257 1601.5,-67 1566.4617,-28.5916 1202.0548,-18.445 1080.6254,-16.12"/>
<polygon fill="#191970" stroke="#191970" points="1462.3521,-260.3344 1455.3575,-268.2922 1465.7879,-266.4332 1462.3521,-260.3344"/>
</g>
<!-- Node24 -->
<g id="node10" class="node">
<title>Node24</title>
<g id="a_node10"><a xlink:href="inet__chksum_8h.html" target="_top" xlink:title="esp&#45;open&#45;lwip/include\l/lwip/inet_chksum.h">
<polygon fill="#ffffff" stroke="#000000" points="5,-67.5 5,-97.5 94,-97.5 94,-67.5 5,-67.5"/>
<text text-anchor="start" x="13" y="-85.5" font-family="Helvetica,sans-Serif" font-size="10.00" fill="#000000">esp&#45;open&#45;lwip/include</text>
<text text-anchor="middle" x="49.5" y="-74.5" font-family="Helvetica,sans-Serif" font-size="10.00" fill="#000000">/lwip/inet_chksum.h</text>
</a>
</g>
</g>
<!-- Node15&#45;&gt;Node24 -->
<g id="edge10" class="edge">
<title>Node15&#45;&gt;Node24</title>
<path fill="none" stroke="#191970" d="M1371.8572,-282.7233C1158.0701,-279.456 384.9548,-265.4196 280.5,-232 190.4133,-203.1774 101.494,-129.508 65.8266,-97.6061"/>
<polygon fill="#191970" stroke="#191970" points="1371.8536,-286.2236 1381.9054,-282.8752 1371.9595,-279.2244 1371.8536,-286.2236"/>
</g>
<!-- Node26 -->
<g id="node12" class="node">
<title>Node26</title>
<g id="a_node12"><a xlink:href="ip_8h.html" target="_top" xlink:title="esp&#45;open&#45;lwip/include\l/lwip/ip.h">
<polygon fill="#ffffff" stroke="#000000" points="1078,-134.5 1078,-164.5 1167,-164.5 1167,-134.5 1078,-134.5"/>
<text text-anchor="start" x="1086" y="-152.5" font-family="Helvetica,sans-Serif" font-size="10.00" fill="#000000">esp&#45;open&#45;lwip/include</text>
<text text-anchor="middle" x="1122.5" y="-141.5" font-family="Helvetica,sans-Serif" font-size="10.00" fill="#000000">/lwip/ip.h</text>
</a>
</g>
</g>
<!-- Node15&#45;&gt;Node26 -->
<g id="edge14" class="edge">
<title>Node15&#45;&gt;Node26</title>
<path fill="none" stroke="#191970" d="M1382.8513,-264.2601C1321.7906,-237.3452 1212.1431,-189.0137 1156.6564,-164.5558"/>
<polygon fill="#191970" stroke="#191970" points="1381.6561,-267.5582 1392.2183,-268.389 1384.4795,-261.1528 1381.6561,-267.5582"/>
</g>
<!-- Node35 -->
<g id="node21" class="node">
<title>Node35</title>
<g id="a_node21"><a xlink:href="ip__frag_8h.html" target="_top" xlink:title="esp&#45;open&#45;lwip/include\l/lwip/ip_frag.h">
<polygon fill="#ffffff" stroke="#000000" points="641,-67.5 641,-97.5 730,-97.5 730,-67.5 641,-67.5"/>
<text text-anchor="start" x="649" y="-85.5" font-family="Helvetica,sans-Serif" font-size="10.00" fill="#000000">esp&#45;open&#45;lwip/include</text>
<text text-anchor="middle" x="685.5" y="-74.5" font-family="Helvetica,sans-Serif" font-size="10.00" fill="#000000">/lwip/ip_frag.h</text>
</a>
</g>
</g>
<!-- Node15&#45;&gt;Node35 -->
<g id="edge32" class="edge">
<title>Node15&#45;&gt;Node35</title>
<path fill="none" stroke="#191970" d="M1371.543,-280.1044C1253.7132,-272.5188 980.1282,-253.1891 889.5,-232 807.9995,-212.945 771.5924,-225.2553 713.5,-165 695.5484,-146.38 689.0859,-115.8251 686.7735,-97.5875"/>
<polygon fill="#191970" stroke="#191970" points="1371.5738,-283.6135 1381.7768,-280.7589 1372.0206,-276.6277 1371.5738,-283.6135"/>
</g>
<!-- Node38 -->
<g id="node24" class="node">
<title>Node38</title>
<g id="a_node24"><a xlink:href="netbuf_8h.html" target="_top" xlink:title="esp&#45;open&#45;lwip/include\l/lwip/netbuf.h">
<polygon fill="#ffffff" stroke="#000000" points="1346,-201.5 1346,-231.5 1435,-231.5 1435,-201.5 1346,-201.5"/>
<text text-anchor="start" x="1354" y="-219.5" font-family="Helvetica,sans-Serif" font-size="10.00" fill="#000000">esp&#45;open&#45;lwip/include</text>
<text text-anchor="middle" x="1390.5" y="-208.5" font-family="Helvetica,sans-Serif" font-size="10.00" fill="#000000">/lwip/netbuf.h</text>
</a>
</g>
</g>
<!-- Node15&#45;&gt;Node38 -->
<g id="edge33" class="edge">
<title>Node15&#45;&gt;Node38</title>
<path fill="none" stroke="#191970" d="M1413.5957,-259.4837C1408.6073,-250.1996 1403.0498,-239.8565 1398.6366,-231.6432"/>
<polygon fill="#191970" stroke="#191970" points="1410.5147,-261.1443 1418.331,-268.2967 1416.681,-257.8311 1410.5147,-261.1443"/>
</g>
<!-- Node39 -->
<g id="node25" class="node">
<title>Node39</title>
<g id="a_node25"><a xlink:href="netif_8h.html" target="_top" xlink:title="esp&#45;open&#45;lwip/include\l/lwip/netif.h">
<polygon fill="#ffffff" stroke="#000000" points="898,-201.5 898,-231.5 987,-231.5 987,-201.5 898,-201.5"/>
<text text-anchor="start" x="906" y="-219.5" font-family="Helvetica,sans-Serif" font-size="10.00" fill="#000000">esp&#45;open&#45;lwip/include</text>
<text text-anchor="middle" x="942.5" y="-208.5" font-family="Helvetica,sans-Serif" font-size="10.00" fill="#000000">/lwip/netif.h</text>
</a>
</g>
</g>
<!-- Node15&#45;&gt;Node39 -->
<g id="edge34" class="edge">
<title>Node15&#45;&gt;Node39</title>
<path fill="none" stroke="#191970" d="M1371.6811,-275.9114C1274.9783,-262.5249 1075.9313,-234.9709 987.0581,-222.6682"/>
<polygon fill="#191970" stroke="#191970" points="1371.4485,-279.4125 1381.834,-277.3169 1372.4084,-272.4786 1371.4485,-279.4125"/>
</g>
<!-- Node40 -->
<g id="node26" class="node">
<title>Node40</title>
<g id="a_node26"><a xlink:href="tcpip_8h.html" target="_top" xlink:title="esp&#45;open&#45;lwip/include\l/lwip/tcpip.h">
<polygon fill="#ffffff" stroke="#000000" points="1419,-134.5 1419,-164.5 1508,-164.5 1508,-134.5 1419,-134.5"/>
<text text-anchor="start" x="1427" y="-152.5" font-family="Helvetica,sans-Serif" font-size="10.00" fill="#000000">esp&#45;open&#45;lwip/include</text>
<text text-anchor="middle" x="1463.5" y="-141.5" font-family="Helvetica,sans-Serif" font-size="10.00" fill="#000000">/lwip/tcpip.h</text>
</a>
</g>
</g>
<!-- Node15&#45;&gt;Node40 -->
<g id="edge57" class="edge">
<title>Node15&#45;&gt;Node40</title>
<path fill="none" stroke="#191970" d="M1435.783,-258.7111C1438.7683,-250.2961 1441.9578,-240.7977 1444.5,-232 1451.2323,-208.7017 1457.1792,-181.1642 1460.5565,-164.5307"/>
<polygon fill="#191970" stroke="#191970" points="1432.418,-257.7239 1432.3002,-268.3181 1438.999,-260.1097 1432.418,-257.7239"/>
</g>
<!-- Node41 -->
<g id="node27" class="node">
<title>Node41</title>
<g id="a_node27"><a xlink:href="tcpip_8c.html" target="_top" xlink:title="esp&#45;open&#45;lwip/lwip\l/api/tcpip.c">
<polygon fill="#ffffff" stroke="#000000" points="1514.5,-67.5 1514.5,-97.5 1592.5,-97.5 1592.5,-67.5 1514.5,-67.5"/>
<text text-anchor="start" x="1522.5" y="-85.5" font-family="Helvetica,sans-Serif" font-size="10.00" fill="#000000">esp&#45;open&#45;lwip/lwip</text>
<text text-anchor="middle" x="1553.5" y="-74.5" font-family="Helvetica,sans-Serif" font-size="10.00" fill="#000000">/api/tcpip.c</text>
</a>
</g>
</g>
<!-- Node15&#45;&gt;Node41 -->
<g id="edge58" class="edge">
<title>Node15&#45;&gt;Node41</title>
<path fill="none" stroke="#191970" d="M1446.94,-260.4479C1466.6874,-237.41 1496.5993,-200.4141 1517.5,-165 1530.6849,-142.6595 1541.9076,-114.603 1548.169,-97.6369"/>
<polygon fill="#191970" stroke="#191970" points="1444.0618,-258.4249 1440.1601,-268.2752 1449.3529,-263.008 1444.0618,-258.4249"/>
</g>
<!-- Node45 -->
<g id="node31" class="node">
<title>Node45</title>
<g id="a_node31"><a xlink:href="snmp__asn1_8h.html" target="_top" xlink:title="esp&#45;open&#45;lwip/include\l/lwip/snmp_asn1.h">
<polygon fill="#ffffff" stroke="#000000" points="1603,-201.5 1603,-231.5 1692,-231.5 1692,-201.5 1603,-201.5"/>
<text text-anchor="start" x="1611" y="-219.5" font-family="Helvetica,sans-Serif" font-size="10.00" fill="#000000">esp&#45;open&#45;lwip/include</text>
<text text-anchor="middle" x="1647.5" y="-208.5" font-family="Helvetica,sans-Serif" font-size="10.00" fill="#000000">/lwip/snmp_asn1.h</text>
</a>
</g>
</g>
<!-- Node15&#45;&gt;Node45 -->
<g id="edge56" class="edge">
<title>Node15&#45;&gt;Node45</title>
<path fill="none" stroke="#191970" d="M1480.9755,-266.9848C1518.4694,-255.6179 1567.6643,-240.7036 1602.8439,-230.0383"/>
<polygon fill="#191970" stroke="#191970" points="1479.7771,-263.6907 1471.2226,-269.9416 1481.808,-270.3897 1479.7771,-263.6907"/>
</g>
<!-- Node46 -->
<g id="node32" class="node">
<title>Node46</title>
<g id="a_node32"><a xlink:href="dhcpserver_8c.html" target="_top" xlink:title="esp&#45;open&#45;lwip/lwip\l/app/dhcpserver.c">
<polygon fill="#ffffff" stroke="#000000" points="1710.5,-201.5 1710.5,-231.5 1788.5,-231.5 1788.5,-201.5 1710.5,-201.5"/>
<text text-anchor="start" x="1718.5" y="-219.5" font-family="Helvetica,sans-Serif" font-size="10.00" fill="#000000">esp&#45;open&#45;lwip/lwip</text>
<text text-anchor="middle" x="1749.5" y="-208.5" font-family="Helvetica,sans-Serif" font-size="10.00" fill="#000000">/app/dhcpserver.c</text>
</a>
</g>
</g>
<!-- Node15&#45;&gt;Node46 -->
<g id="edge59" class="edge">
<title>Node15&#45;&gt;Node46</title>
<path fill="none" stroke="#191970" d="M1481.2011,-275.3606C1537.0197,-266.5641 1625.935,-251.1933 1701.5,-232 1704.3858,-231.267 1707.3517,-230.4553 1710.3255,-229.5988"/>
<polygon fill="#191970" stroke="#191970" points="1480.5148,-271.9252 1471.1744,-276.926 1481.5947,-278.8414 1480.5148,-271.9252"/>
</g>
<!-- Node47 -->
<g id="node33" class="node">
<title>Node47</title>
<g id="a_node33"><a xlink:href="espconn__udp_8c.html" target="_top" xlink:title="esp&#45;open&#45;lwip/lwip\l/app/espconn_udp.c">
<polygon fill="#ffffff" stroke="#000000" points="1806.5,-201.5 1806.5,-231.5 1890.5,-231.5 1890.5,-201.5 1806.5,-201.5"/>
<text text-anchor="start" x="1814.5" y="-219.5" font-family="Helvetica,sans-Serif" font-size="10.00" fill="#000000">esp&#45;open&#45;lwip/lwip</text>
<text text-anchor="middle" x="1848.5" y="-208.5" font-family="Helvetica,sans-Serif" font-size="10.00" fill="#000000">/app/espconn_udp.c</text>
</a>
</g>
</g>
<!-- Node15&#45;&gt;Node47 -->
<g id="edge60" class="edge">
<title>Node15&#45;&gt;Node47</title>
<path fill="none" stroke="#191970" d="M1481.4663,-278.5953C1554.3146,-271.476 1686.5744,-256.3968 1797.5,-232 1800.3922,-231.3639 1803.3582,-230.6446 1806.3344,-229.8729"/>
<polygon fill="#191970" stroke="#191970" points="1480.7772,-275.1454 1471.1589,-279.5881 1481.4484,-282.1132 1480.7772,-275.1454"/>
</g>
<!-- Node48 -->
<g id="node34" class="node">
<title>Node48</title>
<g id="a_node34"><a xlink:href="pbuf_8c.html" target="_top" xlink:title="esp&#45;open&#45;lwip/lwip\l/core/pbuf.c">
<polygon fill="#ffffff" stroke="#000000" points="1908.5,-201.5 1908.5,-231.5 1986.5,-231.5 1986.5,-201.5 1908.5,-201.5"/>
<text text-anchor="start" x="1916.5" y="-219.5" font-family="Helvetica,sans-Serif" font-size="10.00" fill="#000000">esp&#45;open&#45;lwip/lwip</text>
<text text-anchor="middle" x="1947.5" y="-208.5" font-family="Helvetica,sans-Serif" font-size="10.00" fill="#000000">/core/pbuf.c</text>
</a>
</g>
</g>
<!-- Node15&#45;&gt;Node48 -->
<g id="edge63" class="edge">
<title>Node15&#45;&gt;Node48</title>
<path fill="none" stroke="#191970" d="M1481.4315,-281.1548C1570.1979,-276.5553 1750.3062,-263.8618 1899.5,-232 1902.4117,-231.3782 1905.3967,-230.6481 1908.3841,-229.8495"/>
<polygon fill="#191970" stroke="#191970" points="1481.1361,-277.6651 1471.3248,-281.6638 1481.4882,-284.6563 1481.1361,-277.6651"/>
</g>
<!-- Node49 -->
<g id="node35" class="node">
<title>Node49</title>
<g id="a_node35"><a xlink:href="sntp_8c.html" target="_top" xlink:title="esp&#45;open&#45;lwip/lwip\l/core/sntp.c">
<polygon fill="#ffffff" stroke="#000000" points="2004.5,-201.5 2004.5,-231.5 2082.5,-231.5 2082.5,-201.5 2004.5,-201.5"/>
<text text-anchor="start" x="2012.5" y="-219.5" font-family="Helvetica,sans-Serif" font-size="10.00" fill="#000000">esp&#45;open&#45;lwip/lwip</text>
<text text-anchor="middle" x="2043.5" y="-208.5" font-family="Helvetica,sans-Serif" font-size="10.00" fill="#000000">/core/sntp.c</text>
</a>
</g>
</g>
<!-- Node15&#45;&gt;Node49 -->
<g id="edge64" class="edge">
<title>Node15&#45;&gt;Node49</title>
<path fill="none" stroke="#191970" d="M1481.3355,-282.5695C1583.4954,-279.9484 1809.4618,-269.9646 1995.5,-232 1998.4173,-231.4047 2001.4063,-230.6941 2004.3966,-229.9093"/>
<polygon fill="#191970" stroke="#191970" points="1481.1666,-279.0724 1471.2546,-282.8143 1481.3367,-286.0704 1481.1666,-279.0724"/>
</g>
<!-- Node17 -->
<g id="node3" class="node">
<title>Node17</title>
<g id="a_node3"><a xlink:href="esp-open-lwip_2include_2lwip_2app_2ping_8h.html" target="_top" xlink:title="esp&#45;open&#45;lwip/include\l/lwip/app/ping.h">
<polygon fill="#ffffff" stroke="#000000" points="151,-67.5 151,-97.5 240,-97.5 240,-67.5 151,-67.5"/>
<text text-anchor="start" x="159" y="-85.5" font-family="Helvetica,sans-Serif" font-size="10.00" fill="#000000">esp&#45;open&#45;lwip/include</text>
<text text-anchor="middle" x="195.5" y="-74.5" font-family="Helvetica,sans-Serif" font-size="10.00" fill="#000000">/lwip/app/ping.h</text>
</a>
</g>
</g>
<!-- Node16&#45;&gt;Node17 -->
<g id="edge2" class="edge">
<title>Node16&#45;&gt;Node17</title>
<path fill="none" stroke="#191970" d="M219.8788,-125.4837C214.6132,-116.1996 208.747,-105.8565 204.0887,-97.6432"/>
<polygon fill="#191970" stroke="#191970" points="216.8993,-127.325 224.8772,-134.2967 222.9882,-123.8716 216.8993,-127.325"/>
</g>
<!-- Node18 -->
<g id="node4" class="node">
<title>Node18</title>
<g id="a_node4"><a xlink:href="ip_8c.html" target="_top" xlink:title="esp&#45;open&#45;lwip/lwip\l/core/ipv4/ip.c">
<polygon fill="#ffffff" stroke="#000000" points="372.5,-.5 372.5,-30.5 450.5,-30.5 450.5,-.5 372.5,-.5"/>
<text text-anchor="start" x="380.5" y="-18.5" font-family="Helvetica,sans-Serif" font-size="10.00" fill="#000000">esp&#45;open&#45;lwip/lwip</text>
<text text-anchor="middle" x="411.5" y="-7.5" font-family="Helvetica,sans-Serif" font-size="10.00" fill="#000000">/core/ipv4/ip.c</text>
</a>
</g>
</g>
<!-- Node16&#45;&gt;Node18 -->
<g id="edge3" class="edge">
<title>Node16&#45;&gt;Node18</title>
<path fill="none" stroke="#191970" d="M257.4006,-127.5509C276.5805,-110.3411 304.5033,-86.1769 330.5,-67 348.3357,-53.8432 369.5019,-40.4566 385.724,-30.6302"/>
<polygon fill="#191970" stroke="#191970" points="254.8206,-125.1649 249.747,-134.466 259.5135,-130.3589 254.8206,-125.1649"/>
</g>
<!-- Node19 -->
<g id="node5" class="node">
<title>Node19</title>
<g id="a_node5"><a xlink:href="ip__frag_8c.html" target="_top" xlink:title="esp&#45;open&#45;lwip/lwip\l/core/ipv4/ip_frag.c">
<polygon fill="#ffffff" stroke="#000000" points="192.5,-.5 192.5,-30.5 272.5,-30.5 272.5,-.5 192.5,-.5"/>
<text text-anchor="start" x="200.5" y="-18.5" font-family="Helvetica,sans-Serif" font-size="10.00" fill="#000000">esp&#45;open&#45;lwip/lwip</text>
<text text-anchor="middle" x="232.5" y="-7.5" font-family="Helvetica,sans-Serif" font-size="10.00" fill="#000000">/core/ipv4/ip_frag.c</text>
</a>
</g>
</g>
<!-- Node16&#45;&gt;Node19 -->
<g id="edge4" class="edge">
<title>Node16&#45;&gt;Node19</title>
<path fill="none" stroke="#191970" d="M179.4532,-131.2498C164.527,-123.4397 150.0861,-112.6462 141.5,-98 134.5321,-86.1141 134.5598,-78.9022 141.5,-67 152.473,-48.1817 173.1539,-35.6897 192.0305,-27.7279"/>
<polygon fill="#191970" stroke="#191970" points="178.2335,-134.5471 188.7615,-135.7348 181.272,-128.241 178.2335,-134.5471"/>
</g>
<!-- Node20&#45;&gt;Node18 -->
<g id="edge7" class="edge">
<title>Node20&#45;&gt;Node18</title>
<path fill="none" stroke="#191970" d="M533.5879,-127.5533C503.8826,-100.2895 453.9705,-54.4797 428.1281,-30.7614"/>
<polygon fill="#191970" stroke="#191970" points="531.3017,-130.2057 541.0357,-134.389 536.035,-125.0485 531.3017,-130.2057"/>
</g>
<!-- Node20&#45;&gt;Node21 -->
<g id="edge6" class="edge">
<title>Node20&#45;&gt;Node21</title>
<path fill="none" stroke="#191970" d="M515.3879,-130.1746C492.8118,-119.8143 465.4032,-107.2364 444.4082,-97.6017"/>
<polygon fill="#191970" stroke="#191970" points="514.1862,-133.474 524.7348,-134.4639 517.1059,-127.112 514.1862,-133.474"/>
</g>
<!-- Node20&#45;&gt;Node22 -->
<g id="edge8" class="edge">
<title>Node20&#45;&gt;Node22</title>
<path fill="none" stroke="#191970" d="M540.686,-125.6461C530.1398,-107.5059 521.0301,-83.0173 535.5,-67 566.6502,-32.5184 888.69,-19.9227 1002.1811,-16.5345"/>
<polygon fill="#191970" stroke="#191970" points="537.9409,-127.8572 546.2146,-134.4751 543.8737,-124.1421 537.9409,-127.8572"/>
</g>
<!-- Node23 -->
<g id="node9" class="node">
<title>Node23</title>
<g id="a_node9"><a xlink:href="netif_8c.html" target="_top" xlink:title="esp&#45;open&#45;lwip/lwip\l/core/netif.c">
<polygon fill="#ffffff" stroke="#000000" points="544.5,-67.5 544.5,-97.5 622.5,-97.5 622.5,-67.5 544.5,-67.5"/>
<text text-anchor="start" x="552.5" y="-85.5" font-family="Helvetica,sans-Serif" font-size="10.00" fill="#000000">esp&#45;open&#45;lwip/lwip</text>
<text text-anchor="middle" x="583.5" y="-74.5" font-family="Helvetica,sans-Serif" font-size="10.00" fill="#000000">/core/netif.c</text>
</a>
</g>
</g>
<!-- Node20&#45;&gt;Node23 -->
<g id="edge9" class="edge">
<title>Node20&#45;&gt;Node23</title>
<path fill="none" stroke="#191970" d="M567.0454,-124.9021C570.5894,-115.7696 574.5027,-105.6854 577.6235,-97.6432"/>
<polygon fill="#191970" stroke="#191970" points="563.7547,-123.7078 563.3998,-134.2967 570.2805,-126.2402 563.7547,-123.7078"/>
</g>
<!-- Node24&#45;&gt;Node18 -->
<g id="edge12" class="edge">
<title>Node24&#45;&gt;Node18</title>
<path fill="none" stroke="#191970" d="M104.2829,-72.3606C178.0872,-58.7007 307.6438,-34.722 372.3767,-22.7411"/>
<polygon fill="#191970" stroke="#191970" points="103.4474,-68.9557 94.2514,-74.2173 104.7214,-75.8388 103.4474,-68.9557"/>
</g>
<!-- Node24&#45;&gt;Node19 -->
<g id="edge13" class="edge">
<title>Node24&#45;&gt;Node19</title>
<path fill="none" stroke="#191970" d="M100.1262,-63.9647C129.1566,-53.3361 165.0961,-40.1779 192.1983,-30.2553"/>
<polygon fill="#191970" stroke="#191970" points="98.7559,-60.7392 90.5688,-67.4639 101.1625,-67.3125 98.7559,-60.7392"/>
</g>
<!-- Node25 -->
<g id="node11" class="node">
<title>Node25</title>
<g id="a_node11"><a xlink:href="inet__chksum_8c.html" target="_top" xlink:title="esp&#45;open&#45;lwip/lwip\l/core/ipv4/inet_chksum.c">
<polygon fill="#ffffff" stroke="#000000" points="0,-.5 0,-30.5 99,-30.5 99,-.5 0,-.5"/>
<text text-anchor="start" x="8" y="-18.5" font-family="Helvetica,sans-Serif" font-size="10.00" fill="#000000">esp&#45;open&#45;lwip/lwip</text>
<text text-anchor="middle" x="49.5" y="-7.5" font-family="Helvetica,sans-Serif" font-size="10.00" fill="#000000">/core/ipv4/inet_chksum.c</text>
</a>
</g>
</g>
<!-- Node24&#45;&gt;Node25 -->
<g id="edge11" class="edge">
<title>Node24&#45;&gt;Node25</title>
<path fill="none" stroke="#191970" d="M49.5,-57.0249C49.5,-48.128 49.5,-38.4287 49.5,-30.6432"/>
<polygon fill="#191970" stroke="#191970" points="46.0001,-57.2966 49.5,-67.2967 53.0001,-57.2967 46.0001,-57.2966"/>
</g>
<!-- Node26&#45;&gt;Node18 -->
<g id="edge31" class="edge">
<title>Node26&#45;&gt;Node18</title>
<path fill="none" stroke="#191970" d="M1120.1557,-124.3694C1116.9551,-105.3972 1109.3878,-80.4152 1091.5,-67 1040.1754,-28.5085 588.2926,-18.2783 450.9334,-16.0462"/>
<polygon fill="#191970" stroke="#191970" points="1116.7124,-125.0206 1121.5516,-134.4457 1123.6461,-124.0599 1116.7124,-125.0206"/>
</g>
<!-- Node26&#45;&gt;Node21 -->
<g id="edge30" class="edge">
<title>Node26&#45;&gt;Node21</title>
<path fill="none" stroke="#191970" d="M1067.7266,-142.4757C1044.5428,-139.6308 1017.2274,-136.4471 992.5,-134 789.7501,-113.9353 738.1921,-118.6408 535.5,-98 507.0095,-95.0987 474.9321,-91.0684 450.5415,-87.8447"/>
<polygon fill="#191970" stroke="#191970" points="1067.3715,-145.9584 1077.7257,-143.713 1068.2312,-139.0114 1067.3715,-145.9584"/>
</g>
<!-- Node27 -->
<g id="node13" class="node">
<title>Node27</title>
<g id="a_node13"><a xlink:href="wifi_8h.html" target="_top" xlink:title="modules/include/wifi.h">
<polygon fill="#ffffff" stroke="#000000" points="1648.5,-73 1648.5,-92 1738.5,-92 1738.5,-73 1648.5,-73"/>
<text text-anchor="middle" x="1693.5" y="-80" font-family="Helvetica,sans-Serif" font-size="10.00" fill="#000000">modules/include/wifi.h</text>
</a>
</g>
</g>
<!-- Node26&#45;&gt;Node27 -->
<g id="edge15" class="edge">
<title>Node26&#45;&gt;Node27</title>
<path fill="none" stroke="#191970" d="M1177.3292,-144.6805C1266.4688,-136.6037 1448.2775,-119.125 1601.5,-98 1616.7433,-95.8984 1633.3425,-93.2221 1648.1923,-90.687"/>
<polygon fill="#191970" stroke="#191970" points="1176.8296,-141.2112 1167.1844,-145.5953 1177.4583,-148.1829 1176.8296,-141.2112"/>
</g>
<!-- Node28 -->
<g id="node14" class="node">
<title>Node28</title>
<g id="a_node14"><a xlink:href="wifi_8c.html" target="_top" xlink:title="modules/wifi.c">
<polygon fill="#ffffff" stroke="#000000" points="1454.5,-6 1454.5,-25 1518.5,-25 1518.5,-6 1454.5,-6"/>
<text text-anchor="middle" x="1486.5" y="-13" font-family="Helvetica,sans-Serif" font-size="10.00" fill="#000000">modules/wifi.c</text>
</a>
</g>
</g>
<!-- Node26&#45;&gt;Node28 -->
<g id="edge19" class="edge">
<title>Node26&#45;&gt;Node28</title>
<path fill="none" stroke="#191970" d="M1129.5189,-124.5021C1136.1579,-105.6461 1148.059,-80.7549 1167.5,-67 1213.4102,-34.5176 1383.0833,-21.3254 1454.4946,-17.132"/>
<polygon fill="#191970" stroke="#191970" points="1126.114,-123.6556 1126.3575,-134.2477 1132.7724,-125.8156 1126.114,-123.6556"/>
</g>
<!-- Node31 -->
<g id="node17" class="node">
<title>Node31</title>
<g id="a_node17"><a xlink:href="mqtt_8c.html" target="_top" xlink:title="mqtt/mqtt.c">
<polygon fill="#ffffff" stroke="#000000" points="944.5,-73 944.5,-92 998.5,-92 998.5,-73 944.5,-73"/>
<text text-anchor="middle" x="971.5" y="-80" font-family="Helvetica,sans-Serif" font-size="10.00" fill="#000000">mqtt/mqtt.c</text>
</a>
</g>
</g>
<!-- Node26&#45;&gt;Node31 -->
<g id="edge20" class="edge">
<title>Node26&#45;&gt;Node31</title>
<path fill="none" stroke="#191970" d="M1079.3665,-130.3613C1051.175,-117.8525 1015.5568,-102.0484 993.1447,-92.1039"/>
<polygon fill="#191970" stroke="#191970" points="1078.0525,-133.6073 1088.6127,-134.4639 1080.8916,-127.2088 1078.0525,-133.6073"/>
</g>
<!-- Node32 -->
<g id="node18" class="node">
<title>Node32</title>
<g id="a_node18"><a xlink:href="captdns_8c.html" target="_top" xlink:title="user/captdns.c">
<polygon fill="#ffffff" stroke="#000000" points="1017,-73 1017,-92 1082,-92 1082,-73 1017,-73"/>
<text text-anchor="middle" x="1049.5" y="-80" font-family="Helvetica,sans-Serif" font-size="10.00" fill="#000000">user/captdns.c</text>
</a>
</g>
</g>
<!-- Node26&#45;&gt;Node32 -->
<g id="edge21" class="edge">
<title>Node26&#45;&gt;Node32</title>
<path fill="none" stroke="#191970" d="M1098.2065,-127.2032C1085.1974,-115.2634 1069.8503,-101.1776 1059.9106,-92.055"/>
<polygon fill="#191970" stroke="#191970" points="1096.2011,-130.1134 1105.9352,-134.2967 1100.9344,-124.9562 1096.2011,-130.1134"/>
</g>
<!-- Node33 -->
<g id="node19" class="node">
<title>Node33</title>
<g id="a_node19"><a xlink:href="httpd_8c.html" target="_top" xlink:title="user/httpd.c">
<polygon fill="#ffffff" stroke="#000000" points="1176.5,-73 1176.5,-92 1232.5,-92 1232.5,-73 1176.5,-73"/>
<text text-anchor="middle" x="1204.5" y="-80" font-family="Helvetica,sans-Serif" font-size="10.00" fill="#000000">user/httpd.c</text>
</a>
</g>
</g>
<!-- Node26&#45;&gt;Node33 -->
<g id="edge22" class="edge">
<title>Node26&#45;&gt;Node33</title>
<path fill="none" stroke="#191970" d="M1148.9643,-127.8767C1163.7489,-115.7967 1181.4301,-101.3498 1192.8059,-92.055"/>
<polygon fill="#191970" stroke="#191970" points="1146.6363,-125.2591 1141.1071,-134.2967 1151.0654,-130.6797 1146.6363,-125.2591"/>
</g>
<!-- Node34 -->
<g id="node20" class="node">
<title>Node34</title>
<g id="a_node20"><a xlink:href="httpdespfs_8c.html" target="_top" xlink:title="user/httpdespfs.c">
<polygon fill="#ffffff" stroke="#000000" points="1250.5,-73 1250.5,-92 1324.5,-92 1324.5,-73 1250.5,-73"/>
<text text-anchor="middle" x="1287.5" y="-80" font-family="Helvetica,sans-Serif" font-size="10.00" fill="#000000">user/httpdespfs.c</text>
</a>
</g>
</g>
<!-- Node26&#45;&gt;Node34 -->
<g id="edge23" class="edge">
<title>Node26&#45;&gt;Node34</title>
<path fill="none" stroke="#191970" d="M1168.8308,-130.6869C1199.76,-118.1278 1239.1455,-102.1349 1263.8486,-92.1039"/>
<polygon fill="#191970" stroke="#191970" points="1167.4777,-127.4587 1159.5292,-134.4639 1170.1113,-133.9444 1167.4777,-127.4587"/>
</g>
<!-- Node26&#45;&gt;Node35 -->
<g id="edge24" class="edge">
<title>Node26&#45;&gt;Node35</title>
<path fill="none" stroke="#191970" d="M1067.7592,-142.5893C969.604,-130.1312 770.9327,-104.5878 739.5,-98 736.4452,-97.3598 733.3104,-96.6374 730.1633,-95.8635"/>
<polygon fill="#191970" stroke="#191970" points="1067.4298,-146.0755 1077.7907,-143.8614 1068.3104,-139.1311 1067.4298,-146.0755"/>
</g>
<!-- Node36 -->
<g id="node22" class="node">
<title>Node36</title>
<g id="a_node22"><a xlink:href="espconn_8c.html" target="_top" xlink:title="esp&#45;open&#45;lwip/lwip\l/app/espconn.c">
<polygon fill="#ffffff" stroke="#000000" points="1342.5,-67.5 1342.5,-97.5 1420.5,-97.5 1420.5,-67.5 1342.5,-67.5"/>
<text text-anchor="start" x="1350.5" y="-85.5" font-family="Helvetica,sans-Serif" font-size="10.00" fill="#000000">esp&#45;open&#45;lwip/lwip</text>
<text text-anchor="middle" x="1381.5" y="-74.5" font-family="Helvetica,sans-Serif" font-size="10.00" fill="#000000">/app/espconn.c</text>
</a>
</g>
</g>
<!-- Node26&#45;&gt;Node36 -->
<g id="edge28" class="edge">
<title>Node26&#45;&gt;Node36</title>
<path fill="none" stroke="#191970" d="M1177.1272,-137.3199C1219.8955,-127.5066 1280.7657,-112.9285 1333.5,-98 1336.3648,-97.189 1339.3153,-96.32 1342.2783,-95.4228"/>
<polygon fill="#191970" stroke="#191970" points="1176.1736,-133.9475 1167.2037,-139.5859 1177.732,-140.7718 1176.1736,-133.9475"/>
</g>
<!-- Node37 -->
<g id="node23" class="node">
<title>Node37</title>
<g id="a_node23"><a xlink:href="espconn__tcp_8c.html" target="_top" xlink:title="esp&#45;open&#45;lwip/lwip\l/app/espconn_tcp.c">
<polygon fill="#ffffff" stroke="#000000" points="844.5,-67.5 844.5,-97.5 926.5,-97.5 926.5,-67.5 844.5,-67.5"/>
<text text-anchor="start" x="852.5" y="-85.5" font-family="Helvetica,sans-Serif" font-size="10.00" fill="#000000">esp&#45;open&#45;lwip/lwip</text>
<text text-anchor="middle" x="885.5" y="-74.5" font-family="Helvetica,sans-Serif" font-size="10.00" fill="#000000">/app/espconn_tcp.c</text>
</a>
</g>
</g>
<!-- Node26&#45;&gt;Node37 -->
<g id="edge29" class="edge">
<title>Node26&#45;&gt;Node37</title>
<path fill="none" stroke="#191970" d="M1068.1143,-135.013C1030.7309,-124.9349 980.0013,-111.022 935.5,-98 932.6216,-97.1577 929.6545,-96.2751 926.6693,-95.3764"/>
<polygon fill="#191970" stroke="#191970" points="1067.2365,-138.4013 1077.8025,-137.6196 1069.0552,-131.6417 1067.2365,-138.4013"/>
</g>
<!-- Node27&#45;&gt;Node28 -->
<g id="edge16" class="edge">
<title>Node27&#45;&gt;Node28</title>
<path fill="none" stroke="#191970" d="M1654.1034,-69.7484C1613.8814,-56.7297 1552.3539,-36.815 1516.103,-25.0817"/>
<polygon fill="#191970" stroke="#191970" points="1653.2501,-73.151 1663.8419,-72.9005 1655.4057,-66.4911 1653.2501,-73.151"/>
</g>
<!-- Node29 -->
<g id="node15" class="node">
<title>Node29</title>
<g id="a_node15"><a xlink:href="esp-open-sdk_2esp-open-lwip_2user_2user__main_8c.html" target="_top" xlink:title="esp&#45;open&#45;lwip/user\l/user_main.c">
<polygon fill="#ffffff" stroke="#000000" points="1700.5,-.5 1700.5,-30.5 1780.5,-30.5 1780.5,-.5 1700.5,-.5"/>
<text text-anchor="start" x="1708.5" y="-18.5" font-family="Helvetica,sans-Serif" font-size="10.00" fill="#000000">esp&#45;open&#45;lwip/user</text>
<text text-anchor="middle" x="1740.5" y="-7.5" font-family="Helvetica,sans-Serif" font-size="10.00" fill="#000000">/user_main.c</text>
</a>
</g>
</g>
<!-- Node27&#45;&gt;Node29 -->
<g id="edge17" class="edge">
<title>Node27&#45;&gt;Node29</title>
<path fill="none" stroke="#191970" d="M1706.1952,-64.4026C1713.6373,-53.7936 1722.9275,-40.5502 1729.9623,-30.5218"/>
<polygon fill="#191970" stroke="#191970" points="1703.1115,-62.7039 1700.234,-72.9005 1708.8421,-66.7239 1703.1115,-62.7039"/>
</g>
<!-- Node30 -->
<g id="node16" class="node">
<title>Node30</title>
<g id="a_node16"><a xlink:href="watchdog_8c.html" target="_top" xlink:title="user/watchdog.c">
<polygon fill="#ffffff" stroke="#000000" points="1611,-6 1611,-25 1682,-25 1682,-6 1611,-6"/>
<text text-anchor="middle" x="1646.5" y="-13" font-family="Helvetica,sans-Serif" font-size="10.00" fill="#000000">user/watchdog.c</text>
</a>
</g>
</g>
<!-- Node27&#45;&gt;Node30 -->
<g id="edge18" class="edge">
<title>Node27&#45;&gt;Node30</title>
<path fill="none" stroke="#191970" d="M1680.8593,-64.4803C1671.9634,-51.7989 1660.406,-35.3235 1653.2215,-25.0817"/>
<polygon fill="#191970" stroke="#191970" points="1678.1579,-66.7239 1686.766,-72.9005 1683.8885,-62.7039 1678.1579,-66.7239"/>
</g>
<!-- Node35&#45;&gt;Node18 -->
<g id="edge25" class="edge">
<title>Node35&#45;&gt;Node18</title>
<path fill="none" stroke="#191970" d="M631.0115,-66.9411C561.9144,-49.0975 492.7076,-33.3693 450.5893,-24.0359"/>
<polygon fill="#191970" stroke="#191970" points="630.1991,-70.3462 640.7578,-69.4725 631.9589,-63.5709 630.1991,-70.3462"/>
</g>
<!-- Node35&#45;&gt;Node19 -->
<g id="edge26" class="edge">
<title>Node35&#45;&gt;Node19</title>
<path fill="none" stroke="#191970" d="M630.8723,-67.2317C569.4739,-56.4864 361.1005,-31.0242 272.6088,-20.3271"/>
<polygon fill="#191970" stroke="#191970" points="630.3642,-70.6975 640.8406,-69.1179 631.6658,-63.8196 630.3642,-70.6975"/>
</g>
<!-- Node35&#45;&gt;Node22 -->
<g id="edge27" class="edge">
<title>Node35&#45;&gt;Node22</title>
<path fill="none" stroke="#191970" d="M740.1396,-67.0045C839.9646,-44.6391 946.0916,-28.6392 1002.1333,-20.7937"/>
<polygon fill="#191970" stroke="#191970" points="739.169,-63.6357 730.1903,-69.2599 740.7166,-70.4625 739.169,-63.6357"/>
</g>
<!-- Node39&#45;&gt;Node16 -->
<g id="edge40" class="edge">
<title>Node39&#45;&gt;Node16</title>
<path fill="none" stroke="#191970" d="M887.554,-215.4367C775.0911,-212.5391 510.8513,-202.0289 292.5,-165 287.8013,-164.2032 282.9314,-163.2075 278.0958,-162.1076"/>
<polygon fill="#191970" stroke="#191970" points="887.5534,-218.9376 897.637,-215.6864 887.7267,-211.9398 887.5534,-218.9376"/>
</g>
<!-- Node39&#45;&gt;Node18 -->
<g id="edge52" class="edge">
<title>Node39&#45;&gt;Node18</title>
<path fill="none" stroke="#191970" d="M887.4804,-214.2656C777.245,-209.2067 533.2314,-194.9169 455.5,-165 408.2929,-146.8312 386.4388,-143.0825 363.5,-98 357.2519,-85.7204 358.4521,-79.8197 363.5,-67 369.1423,-52.6707 380.8584,-39.971 391.3026,-30.768"/>
<polygon fill="#191970" stroke="#191970" points="887.5734,-217.7733 897.7207,-214.7266 887.8882,-210.7803 887.5734,-217.7733"/>
</g>
<!-- Node39&#45;&gt;Node19 -->
<g id="edge54" class="edge">
<title>Node39&#45;&gt;Node19</title>
<path fill="none" stroke="#191970" d="M887.6742,-213.4784C756.5254,-205.9571 432.2481,-185.5188 387.5,-165 320.5504,-134.301 264.8528,-62.319 242.7357,-30.7704"/>
<polygon fill="#191970" stroke="#191970" points="887.712,-216.9861 897.8949,-214.0608 888.1103,-209.9975 887.712,-216.9861"/>
</g>
<!-- Node39&#45;&gt;Node20 -->
<g id="edge41" class="edge">
<title>Node39&#45;&gt;Node20</title>
<path fill="none" stroke="#191970" d="M888.0212,-207.0193C811.3871,-193.6829 673.2031,-169.6354 602.2335,-157.2848"/>
<polygon fill="#191970" stroke="#191970" points="887.5075,-210.4824 897.9595,-208.7488 888.7077,-203.586 887.5075,-210.4824"/>
</g>
<!-- Node39&#45;&gt;Node21 -->
<g id="edge51" class="edge">
<title>Node39&#45;&gt;Node21</title>
<path fill="none" stroke="#191970" d="M887.8923,-214.2026C785.9616,-209.2449 570.9547,-195.439 503.5,-165 469.4746,-149.646 439.2007,-117.0509 423.2976,-97.745"/>
<polygon fill="#191970" stroke="#191970" points="887.8287,-217.7035 897.9836,-214.6824 888.1612,-210.7114 887.8287,-217.7035"/>
</g>
<!-- Node39&#45;&gt;Node23 -->
<g id="edge55" class="edge">
<title>Node39&#45;&gt;Node23</title>
<path fill="none" stroke="#191970" d="M887.5805,-209.5747C840.1541,-202.335 770.4806,-188.6454 713.5,-165 671.0345,-147.378 626.9479,-116.1937 602.5882,-97.6264"/>
<polygon fill="#191970" stroke="#191970" points="887.2423,-213.0627 897.6472,-211.0655 888.2678,-206.1382 887.2423,-213.0627"/>
</g>
<!-- Node39&#45;&gt;Node26 -->
<g id="edge42" class="edge">
<title>Node39&#45;&gt;Node26</title>
<path fill="none" stroke="#191970" d="M992.5642,-197.865C1020.74,-187.3773 1055.4663,-174.4515 1081.9283,-164.6017"/>
<polygon fill="#191970" stroke="#191970" points="991.0464,-194.6953 982.8955,-201.4639 993.4883,-201.2556 991.0464,-194.6953"/>
</g>
<!-- Node39&#45;&gt;Node28 -->
<g id="edge35" class="edge">
<title>Node39&#45;&gt;Node28</title>
<path fill="none" stroke="#191970" d="M997.203,-212.6737C1064.6923,-206.926 1182.414,-193.5347 1279.5,-165 1349.5518,-144.4109 1373.3338,-144.6531 1429.5,-98 1454.8105,-76.9765 1473.8168,-42.0281 1482.0318,-25.1749"/>
<polygon fill="#191970" stroke="#191970" points="996.8936,-209.1872 987.2161,-213.4994 997.4705,-216.1634 996.8936,-209.1872"/>
</g>
<!-- Node39&#45;&gt;Node31 -->
<g id="edge36" class="edge">
<title>Node39&#45;&gt;Node31</title>
<path fill="none" stroke="#191970" d="M971.0272,-194.6569C979.6006,-186.4027 987.9356,-176.2539 992.5,-165 1002.721,-139.7993 987.4007,-108.205 977.9745,-92.4266"/>
<polygon fill="#191970" stroke="#191970" points="968.6188,-192.1156 963.5204,-201.4031 973.2978,-197.3221 968.6188,-192.1156"/>
</g>
<!-- Node39&#45;&gt;Node32 -->
<g id="edge37" class="edge">
<title>Node39&#45;&gt;Node32</title>
<path fill="none" stroke="#191970" d="M974.6693,-195.3503C985.9915,-186.8492 998.1995,-176.3649 1007.5,-165 1026.5342,-141.7406 1040.1712,-108.441 1046.1396,-92.1802"/>
<polygon fill="#191970" stroke="#191970" points="972.2954,-192.7479 966.2466,-201.4464 976.3996,-198.4185 972.2954,-192.7479"/>
</g>
<!-- Node39&#45;&gt;Node33 -->
<g id="edge38" class="edge">
<title>Node39&#45;&gt;Node33</title>
<path fill="none" stroke="#191970" d="M997.1806,-210.6926C1057.7933,-203.2063 1150.4605,-188.3087 1176.5,-165 1198.0254,-145.732 1203.0172,-109.2914 1204.1644,-92.0285"/>
<polygon fill="#191970" stroke="#191970" points="996.5121,-207.2477 987.002,-211.9177 997.3486,-214.1976 996.5121,-207.2477"/>
</g>
<!-- Node39&#45;&gt;Node34 -->
<g id="edge39" class="edge">
<title>Node39&#45;&gt;Node34</title>
<path fill="none" stroke="#191970" d="M997.1338,-209.1435C1061.7438,-199.8242 1164.8891,-182.8196 1199.5,-165 1235.0621,-146.6907 1266.5446,-109.7782 1280.2392,-92.2139"/>
<polygon fill="#191970" stroke="#191970" points="996.5175,-205.6959 987.1115,-210.5721 997.5054,-212.6258 996.5175,-205.6959"/>
</g>
<!-- Node39&#45;&gt;Node35 -->
<g id="edge43" class="edge">
<title>Node39&#45;&gt;Node35</title>
<path fill="none" stroke="#191970" d="M887.7065,-211.7853C846.258,-206.0265 789.5018,-193.2606 747.5,-165 721.9321,-147.7968 702.7333,-116.4686 692.8868,-97.7616"/>
<polygon fill="#191970" stroke="#191970" points="887.263,-215.257 897.63,-213.0717 888.1629,-208.3151 887.263,-215.257"/>
</g>
<!-- Node39&#45;&gt;Node36 -->
<g id="edge49" class="edge">
<title>Node39&#45;&gt;Node36</title>
<path fill="none" stroke="#191970" d="M997.1974,-212.3785C1056.9432,-206.62 1154.7606,-193.4759 1234.5,-165 1282.1799,-147.9729 1332.5494,-116.2829 1360.1989,-97.5237"/>
<polygon fill="#191970" stroke="#191970" points="996.8547,-208.8951 987.2214,-213.3053 997.5023,-215.8651 996.8547,-208.8951"/>
</g>
<!-- Node39&#45;&gt;Node37 -->
<g id="edge50" class="edge">
<title>Node39&#45;&gt;Node37</title>
<path fill="none" stroke="#191970" d="M914.7191,-194.6197C906.1184,-186.3113 897.5764,-176.1384 892.5,-165 882.5446,-143.1565 882.599,-114.7038 883.8401,-97.5605"/>
<polygon fill="#191970" stroke="#191970" points="912.4506,-197.2874 922.2069,-201.4185 917.1562,-192.105 912.4506,-197.2874"/>
</g>
<!-- Node39&#45;&gt;Node40 -->
<g id="edge44" class="edge">
<title>Node39&#45;&gt;Node40</title>
<path fill="none" stroke="#191970" d="M997.2463,-212.9943C1084.129,-206.8493 1258.6833,-192.1312 1404.5,-165 1409.1854,-164.1282 1414.0466,-163.084 1418.8771,-161.9549"/>
<polygon fill="#191970" stroke="#191970" points="996.826,-209.515 987.0933,-213.7014 997.3124,-216.4981 996.826,-209.515"/>
</g>
<!-- Node42 -->
<g id="node28" class="node">
<title>Node42</title>
<g id="a_node28"><a xlink:href="slipif_8h.html" target="_top" xlink:title="esp&#45;open&#45;lwip/include\l/netif/slipif.h">
<polygon fill="#ffffff" stroke="#000000" points="756,-134.5 756,-164.5 845,-164.5 845,-134.5 756,-134.5"/>
<text text-anchor="start" x="764" y="-152.5" font-family="Helvetica,sans-Serif" font-size="10.00" fill="#000000">esp&#45;open&#45;lwip/include</text>
<text text-anchor="middle" x="800.5" y="-141.5" font-family="Helvetica,sans-Serif" font-size="10.00" fill="#000000">/netif/slipif.h</text>
</a>
</g>
</g>
<!-- Node39&#45;&gt;Node42 -->
<g id="edge47" class="edge">
<title>Node39&#45;&gt;Node42</title>
<path fill="none" stroke="#191970" d="M901.5747,-197.1902C879.6989,-186.8685 853.1504,-174.3421 832.7525,-164.7177"/>
<polygon fill="#191970" stroke="#191970" points="900.095,-200.362 910.6324,-201.4639 903.0821,-194.0313 900.095,-200.362"/>
</g>
<!-- Node44 -->
<g id="node30" class="node">
<title>Node44</title>
<g id="a_node30"><a xlink:href="ip__addr_8c.html" target="_top" xlink:title="esp&#45;open&#45;lwip/lwip\l/core/ipv4/ip_addr.c">
<polygon fill="#ffffff" stroke="#000000" points="901.5,-134.5 901.5,-164.5 983.5,-164.5 983.5,-134.5 901.5,-134.5"/>
<text text-anchor="start" x="909.5" y="-152.5" font-family="Helvetica,sans-Serif" font-size="10.00" fill="#000000">esp&#45;open&#45;lwip/lwip</text>
<text text-anchor="middle" x="942.5" y="-141.5" font-family="Helvetica,sans-Serif" font-size="10.00" fill="#000000">/core/ipv4/ip_addr.c</text>
</a>
</g>
</g>
<!-- Node39&#45;&gt;Node44 -->
<g id="edge53" class="edge">
<title>Node39&#45;&gt;Node44</title>
<path fill="none" stroke="#191970" d="M942.5,-191.0249C942.5,-182.128 942.5,-172.4287 942.5,-164.6432"/>
<polygon fill="#191970" stroke="#191970" points="939.0001,-191.2966 942.5,-201.2967 946.0001,-191.2967 939.0001,-191.2966"/>
</g>
<!-- Node40&#45;&gt;Node22 -->
<g id="edge46" class="edge">
<title>Node40&#45;&gt;Node22</title>
<path fill="none" stroke="#191970" d="M1459.9316,-124.2602C1455.8794,-105.4473 1447.3374,-80.7275 1429.5,-67 1402.137,-45.9417 1173.648,-25.8587 1080.6473,-18.4764"/>
<polygon fill="#191970" stroke="#191970" points="1456.5222,-125.0707 1461.7933,-134.2613 1463.404,-123.7896 1456.5222,-125.0707"/>
</g>
<!-- Node40&#45;&gt;Node41 -->
<g id="edge45" class="edge">
<title>Node40&#45;&gt;Node41</title>
<path fill="none" stroke="#191970" d="M1492.2942,-128.0643C1505.6016,-118.1577 1521.0913,-106.6265 1533.1584,-97.6432"/>
<polygon fill="#191970" stroke="#191970" points="1489.8537,-125.5177 1483.9224,-134.2967 1494.0338,-131.1327 1489.8537,-125.5177"/>
</g>
<!-- Node43 -->
<g id="node29" class="node">
<title>Node43</title>
<g id="a_node29"><a xlink:href="slipif_8c.html" target="_top" xlink:title="esp&#45;open&#45;lwip/lwip\l/netif/slipif.c">
<polygon fill="#ffffff" stroke="#000000" points="748.5,-67.5 748.5,-97.5 826.5,-97.5 826.5,-67.5 748.5,-67.5"/>
<text text-anchor="start" x="756.5" y="-85.5" font-family="Helvetica,sans-Serif" font-size="10.00" fill="#000000">esp&#45;open&#45;lwip/lwip</text>
<text text-anchor="middle" x="787.5" y="-74.5" font-family="Helvetica,sans-Serif" font-size="10.00" fill="#000000">/netif/slipif.c</text>
</a>
</g>
</g>
<!-- Node42&#45;&gt;Node43 -->
<g id="edge48" class="edge">
<title>Node42&#45;&gt;Node43</title>
<path fill="none" stroke="#191970" d="M795.6139,-124.3179C793.8722,-115.3414 791.9655,-105.5143 790.4382,-97.6432"/>
<polygon fill="#191970" stroke="#191970" points="792.2093,-125.1464 797.5501,-134.2967 799.0812,-123.813 792.2093,-125.1464"/>
</g>
</g>
</svg>
