<?xml version="1.0" encoding="UTF-8" standalone="no"?>
<!DOCTYPE svg PUBLIC "-//W3C//DTD SVG 1.1//EN"
 "http://www.w3.org/Graphics/SVG/1.1/DTD/svg11.dtd">
<!-- Generated by graphviz version 2.40.1 (20161225.0304)
 -->
<!-- Title: pbuf_free Pages: 1 -->
<svg width="899pt" height="750pt"
 viewBox="0.00 0.00 899.00 750.00" xmlns="http://www.w3.org/2000/svg" xmlns:xlink="http://www.w3.org/1999/xlink">
<g id="graph0" class="graph" transform="scale(1 1) rotate(0) translate(4 746)">
<title>pbuf_free</title>
<polygon fill="#ffffff" stroke="transparent" points="-4,4 -4,-746 895,-746 895,4 -4,4"/>
<!-- Node91 -->
<g id="node1" class="node">
<title>Node91</title>
<polygon fill="#bfbfbf" stroke="#000000" points="0,-323.5 0,-342.5 48,-342.5 48,-323.5 0,-323.5"/>
<text text-anchor="middle" x="24" y="-330.5" font-family="Helvetica,sans-Serif" font-size="10.00" fill="#000000">pbuf_free</text>
</g>
<!-- Node92 -->
<g id="node2" class="node">
<title>Node92</title>
<g id="a_node2"><a xlink:href="espconn__tcp_8c.html#a982e86de0cf75d42f72ecc953949e415" target="_top" xlink:title="espconn_client_recv">
<polygon fill="#ffffff" stroke="#000000" points="85.5,-684.5 85.5,-703.5 170.5,-703.5 170.5,-684.5 85.5,-684.5"/>
<text text-anchor="middle" x="128" y="-691.5" font-family="Helvetica,sans-Serif" font-size="10.00" fill="#000000">espconn_client_recv</text>
</a>
</g>
</g>
<!-- Node91&#45;&gt;Node92 -->
<g id="edge1" class="edge">
<title>Node91&#45;&gt;Node92</title>
<path fill="none" stroke="#191970" d="M25.93,-352.6197C32.2595,-414.2921 53.7301,-603.2613 84,-656 90.7327,-667.7303 102.4725,-677.5919 112.133,-684.3272"/>
<polygon fill="#191970" stroke="#191970" points="29.4102,-352.246 24.9257,-342.6471 22.4454,-352.9475 29.4102,-352.246"/>
</g>
<!-- Node105 -->
<g id="node14" class="node">
<title>Node105</title>
<g id="a_node14"><a xlink:href="espconn__tcp_8c.html#afc71eebe6b5059ad2b6503c328e8d8c5" target="_top" xlink:title="espconn_server_recv">
<polygon fill="#ffffff" stroke="#000000" points="84,-627.5 84,-646.5 172,-646.5 172,-627.5 84,-627.5"/>
<text text-anchor="middle" x="128" y="-634.5" font-family="Helvetica,sans-Serif" font-size="10.00" fill="#000000">espconn_server_recv</text>
</a>
</g>
</g>
<!-- Node91&#45;&gt;Node105 -->
<g id="edge16" class="edge">
<title>Node91&#45;&gt;Node105</title>
<path fill="none" stroke="#191970" d="M26.791,-352.5802C34.7454,-406.6186 58.6006,-556.6413 84,-599 90.9554,-610.5996 102.6848,-620.4674 112.2847,-627.2382"/>
<polygon fill="#191970" stroke="#191970" points="30.2396,-351.973 25.3401,-342.5791 23.3121,-352.9781 30.2396,-351.973"/>
</g>
<!-- Node111 -->
<g id="node20" class="node">
<title>Node111</title>
<g id="a_node20"><a xlink:href="espconn__udp_8c.html#ac52ad5e01c1a769947766d4a890f1cc7" target="_top" xlink:title="espconn_udp_recv">
<polygon fill="#ffffff" stroke="#000000" points="88,-570.5 88,-589.5 168,-589.5 168,-570.5 88,-570.5"/>
<text text-anchor="middle" x="128" y="-577.5" font-family="Helvetica,sans-Serif" font-size="10.00" fill="#000000">espconn_udp_recv</text>
</a>
</g>
</g>
<!-- Node91&#45;&gt;Node111 -->
<g id="edge25" class="edge">
<title>Node91&#45;&gt;Node111</title>
<path fill="none" stroke="#191970" d="M27.2726,-352.7924C35.5896,-401.1797 58.6804,-523.8527 84,-556 88.7378,-562.0154 95.4176,-566.7312 102.1444,-570.33"/>
<polygon fill="#191970" stroke="#191970" points="30.6799,-351.9498 25.5636,-342.6722 23.7777,-353.1154 30.6799,-351.9498"/>
</g>
<!-- Node114 -->
<g id="node23" class="node">
<title>Node114</title>
<g id="a_node23"><a xlink:href="espconn__udp_8c.html#a01fa0df74518311e3eb03f2d955f9f26" target="_top" xlink:title="espconn_udp_sendto">
<polygon fill="#ffffff" stroke="#000000" points="212.5,-456.5 212.5,-475.5 300.5,-475.5 300.5,-456.5 212.5,-456.5"/>
<text text-anchor="middle" x="256.5" y="-463.5" font-family="Helvetica,sans-Serif" font-size="10.00" fill="#000000">espconn_udp_sendto</text>
</a>
</g>
</g>
<!-- Node91&#45;&gt;Node114 -->
<g id="edge28" class="edge">
<title>Node91&#45;&gt;Node114</title>
<path fill="none" stroke="#191970" d="M26.3122,-352.8658C31.0487,-383.3481 44.9435,-440.7726 84,-466 126.5144,-493.4609 188.0731,-484.6648 225.0036,-475.5147"/>
<polygon fill="#191970" stroke="#191970" points="29.7346,-352.0592 24.912,-342.6257 22.7991,-353.0077 29.7346,-352.0592"/>
</g>
<!-- Node116 -->
<g id="node25" class="node">
<title>Node116</title>
<g id="a_node25"><a xlink:href="espconn__udp_8c.html#ac963eff73234530596d6c02e6bb05e09" target="_top" xlink:title="espconn_udp_sent">
<polygon fill="#ffffff" stroke="#000000" points="478.5,-456.5 478.5,-475.5 558.5,-475.5 558.5,-456.5 478.5,-456.5"/>
<text text-anchor="middle" x="518.5" y="-463.5" font-family="Helvetica,sans-Serif" font-size="10.00" fill="#000000">espconn_udp_sent</text>
</a>
</g>
</g>
<!-- Node91&#45;&gt;Node116 -->
<g id="edge38" class="edge">
<title>Node91&#45;&gt;Node116</title>
<path fill="none" stroke="#191970" d="M25.3457,-352.6623C28.7946,-386.4377 41.0052,-455.1064 84,-489 146.4105,-538.1994 366.9959,-554.4014 440,-523 461.3713,-513.8075 457.0172,-498.4494 476,-485 481.012,-481.4489 486.7939,-478.3318 492.4468,-475.7038"/>
<polygon fill="#191970" stroke="#191970" points="28.8282,-352.3078 24.4802,-342.6463 21.8542,-352.9106 28.8282,-352.3078"/>
</g>
<!-- Node121 -->
<g id="node30" class="node">
<title>Node121</title>
<g id="a_node30"><a xlink:href="dhcpserver_8c.html#a11489c1fab4206e65914c4c46850d183" target="_top" xlink:title="handle_dhcp">
<polygon fill="#ffffff" stroke="#000000" points="361,-171.5 361,-190.5 420,-190.5 420,-171.5 361,-171.5"/>
<text text-anchor="middle" x="390.5" y="-178.5" font-family="Helvetica,sans-Serif" font-size="10.00" fill="#000000">handle_dhcp</text>
</a>
</g>
</g>
<!-- Node91&#45;&gt;Node121 -->
<g id="edge39" class="edge">
<title>Node91&#45;&gt;Node121</title>
<path fill="none" stroke="#191970" d="M28.2884,-313.6182C37.5443,-273.5683 60.4665,-183.77 84,-164 159.5451,-100.5362 208.4847,-122.5181 305,-143 330.5828,-148.429 357.8044,-162.0592 374.485,-171.4278"/>
<polygon fill="#191970" stroke="#191970" points="24.8468,-312.9694 26.0511,-323.4956 31.6738,-314.5159 24.8468,-312.9694"/>
</g>
<!-- Node123 -->
<g id="node32" class="node">
<title>Node123</title>
<g id="a_node32"><a xlink:href="ip_8c.html#a3c420dab0c6760df099a2d688fa42a26" target="_top" xlink:title="ip_input">
<polygon fill="#ffffff" stroke="#000000" points="235,-418.5 235,-437.5 278,-437.5 278,-418.5 235,-418.5"/>
<text text-anchor="middle" x="256.5" y="-425.5" font-family="Helvetica,sans-Serif" font-size="10.00" fill="#000000">ip_input</text>
</a>
</g>
</g>
<!-- Node91&#45;&gt;Node123 -->
<g id="edge41" class="edge">
<title>Node91&#45;&gt;Node123</title>
<path fill="none" stroke="#191970" d="M39.306,-349.9355C50.595,-361.4373 66.9061,-376.1183 84,-385 134.257,-411.1128 201.096,-421.8838 234.9232,-425.8902"/>
<polygon fill="#191970" stroke="#191970" points="41.7645,-347.4414 32.3451,-342.591 36.6838,-352.2567 41.7645,-347.4414"/>
</g>
<!-- Node127 -->
<g id="node36" class="node">
<title>Node127</title>
<g id="a_node36"><a xlink:href="netif_8c.html#a34e37a1e8e358760dc1c43887922c7db" target="_top" xlink:title="netif_set_link_down">
<polygon fill="#ffffff" stroke="#000000" points="349.5,-304.5 349.5,-323.5 431.5,-323.5 431.5,-304.5 349.5,-304.5"/>
<text text-anchor="middle" x="390.5" y="-311.5" font-family="Helvetica,sans-Serif" font-size="10.00" fill="#000000">netif_set_link_down</text>
</a>
</g>
</g>
<!-- Node91&#45;&gt;Node127 -->
<g id="edge53" class="edge">
<title>Node91&#45;&gt;Node127</title>
<path fill="none" stroke="#191970" d="M56.6775,-346.2147C109.8189,-365.7696 217.8005,-397.4019 305,-371 335.7341,-361.6945 365.5183,-337.2949 380.4939,-323.6278"/>
<polygon fill="#191970" stroke="#191970" points="57.6981,-342.859 47.1064,-342.6031 55.2267,-349.4082 57.6981,-342.859"/>
</g>
<!-- Node130 -->
<g id="node39" class="node">
<title>Node130</title>
<g id="a_node39"><a xlink:href="wifi_8c.html#a3cea38a15b267ddabc1e6d5cf72b5ae8" target="_top" xlink:title="my_input_ap">
<polygon fill="#ffffff" stroke="#000000" points="98.5,-76.5 98.5,-95.5 157.5,-95.5 157.5,-76.5 98.5,-76.5"/>
<text text-anchor="middle" x="128" y="-83.5" font-family="Helvetica,sans-Serif" font-size="10.00" fill="#000000">my_input_ap</text>
</a>
</g>
</g>
<!-- Node91&#45;&gt;Node130 -->
<g id="edge50" class="edge">
<title>Node91&#45;&gt;Node130</title>
<path fill="none" stroke="#191970" d="M27.2726,-313.2076C35.5896,-264.8203 58.6804,-142.1473 84,-110 88.7378,-103.9846 95.4176,-99.2688 102.1444,-95.67"/>
<polygon fill="#191970" stroke="#191970" points="23.7777,-312.8846 25.5636,-323.3278 30.6799,-314.0502 23.7777,-312.8846"/>
</g>
<!-- Node133 -->
<g id="node42" class="node">
<title>Node133</title>
<g id="a_node42"><a xlink:href="pbuf_8c.html#acfcb0a2af918658ba0afe36499c65f47" target="_top" xlink:title="pbuf_alloc">
<polygon fill="#ffffff" stroke="#000000" points="102.5,-285.5 102.5,-304.5 153.5,-304.5 153.5,-285.5 102.5,-285.5"/>
<text text-anchor="middle" x="128" y="-292.5" font-family="Helvetica,sans-Serif" font-size="10.00" fill="#000000">pbuf_alloc</text>
</a>
</g>
</g>
<!-- Node91&#45;&gt;Node133 -->
<g id="edge54" class="edge">
<title>Node91&#45;&gt;Node133</title>
<path fill="none" stroke="#191970" d="M57.7097,-320.683C72.1521,-315.406 88.7517,-309.3407 102.1919,-304.4299"/>
<polygon fill="#191970" stroke="#191970" points="56.3126,-317.4671 48.1211,-324.1865 58.7149,-324.042 56.3126,-317.4671"/>
</g>
<!-- Node134 -->
<g id="node43" class="node">
<title>Node134</title>
<g id="a_node43"><a xlink:href="pbuf_8c.html#a54ac7b116c6f53c704cbf74f35a8b35c" target="_top" xlink:title="pbuf_coalesce">
<polygon fill="#ffffff" stroke="#000000" points="224,-342.5 224,-361.5 289,-361.5 289,-342.5 224,-342.5"/>
<text text-anchor="middle" x="256.5" y="-349.5" font-family="Helvetica,sans-Serif" font-size="10.00" fill="#000000">pbuf_coalesce</text>
</a>
</g>
</g>
<!-- Node91&#45;&gt;Node134 -->
<g id="edge65" class="edge">
<title>Node91&#45;&gt;Node134</title>
<path fill="none" stroke="#191970" d="M58.0342,-335.7813C102.51,-339.4159 179.8757,-345.7382 223.7219,-349.3214"/>
<polygon fill="#191970" stroke="#191970" points="58.2578,-332.288 48.0059,-334.9618 57.6876,-339.2647 58.2578,-332.288"/>
</g>
<!-- Node135 -->
<g id="node44" class="node">
<title>Node135</title>
<g id="a_node44"><a xlink:href="dhcpserver_8c.html#a024751b98d23fc209015b3ac5a76aae9" target="_top" xlink:title="send_ack">
<polygon fill="#ffffff" stroke="#000000" points="232,-190.5 232,-209.5 281,-209.5 281,-190.5 232,-190.5"/>
<text text-anchor="middle" x="256.5" y="-197.5" font-family="Helvetica,sans-Serif" font-size="10.00" fill="#000000">send_ack</text>
</a>
</g>
</g>
<!-- Node91&#45;&gt;Node135 -->
<g id="edge71" class="edge">
<title>Node91&#45;&gt;Node135</title>
<path fill="none" stroke="#191970" d="M31.5892,-314.0909C40.8592,-293.4471 58.5186,-260.9442 84,-243 129.4231,-211.0126 196.2513,-202.749 231.9273,-200.6616"/>
<polygon fill="#191970" stroke="#191970" points="28.3177,-312.8399 27.6118,-323.4112 34.756,-315.5874 28.3177,-312.8399"/>
</g>
<!-- Node136 -->
<g id="node45" class="node">
<title>Node136</title>
<g id="a_node45"><a xlink:href="dhcpserver_8c.html#a81ead8e0f00ecfc0037e83cae928019f" target="_top" xlink:title="send_nak">
<polygon fill="#ffffff" stroke="#000000" points="232,-152.5 232,-171.5 281,-171.5 281,-152.5 232,-152.5"/>
<text text-anchor="middle" x="256.5" y="-159.5" font-family="Helvetica,sans-Serif" font-size="10.00" fill="#000000">send_nak</text>
</a>
</g>
</g>
<!-- Node91&#45;&gt;Node136 -->
<g id="edge72" class="edge">
<title>Node91&#45;&gt;Node136</title>
<path fill="none" stroke="#191970" d="M27.694,-313.3192C34.0638,-284.9987 49.8657,-233.0793 84,-205 127.1429,-169.5101 195.5106,-162.7097 231.8668,-161.7713"/>
<polygon fill="#191970" stroke="#191970" points="24.2404,-312.7361 25.6351,-323.2388 31.0944,-314.1588 24.2404,-312.7361"/>
</g>
<!-- Node137 -->
<g id="node46" class="node">
<title>Node137</title>
<g id="a_node46"><a xlink:href="dhcpserver_8c.html#aa16cfa7bae7bd0fcb895a8b2513dd60f" target="_top" xlink:title="send_offer">
<polygon fill="#ffffff" stroke="#000000" points="230.5,-228.5 230.5,-247.5 282.5,-247.5 282.5,-228.5 230.5,-228.5"/>
<text text-anchor="middle" x="256.5" y="-235.5" font-family="Helvetica,sans-Serif" font-size="10.00" fill="#000000">send_offer</text>
</a>
</g>
</g>
<!-- Node91&#45;&gt;Node137 -->
<g id="edge73" class="edge">
<title>Node91&#45;&gt;Node137</title>
<path fill="none" stroke="#191970" d="M37.8256,-315.4897C48.9409,-302.6155 65.6807,-285.7312 84,-276 131.6646,-250.6806 195.3236,-242.2144 230.4557,-239.3957"/>
<polygon fill="#191970" stroke="#191970" points="35.0721,-313.3269 31.3734,-323.2552 40.4561,-317.8004 35.0721,-313.3269"/>
</g>
<!-- Node138 -->
<g id="node47" class="node">
<title>Node138</title>
<g id="a_node47"><a xlink:href="pbuf_8c.html#abf3d29c4f43986b4cb5eb314d5b9729d" target="_top" xlink:title="pbuf_dechain">
<polygon fill="#ffffff" stroke="#000000" points="97,-38.5 97,-57.5 159,-57.5 159,-38.5 97,-38.5"/>
<text text-anchor="middle" x="128" y="-45.5" font-family="Helvetica,sans-Serif" font-size="10.00" fill="#000000">pbuf_dechain</text>
</a>
</g>
</g>
<!-- Node91&#45;&gt;Node138 -->
<g id="edge66" class="edge">
<title>Node91&#45;&gt;Node138</title>
<path fill="none" stroke="#191970" d="M26.1194,-313.343C32.387,-258.4582 52.3953,-105.0981 84,-67 87.4,-62.9015 91.85,-59.6647 96.6125,-57.115"/>
<polygon fill="#191970" stroke="#191970" points="22.6185,-313.1575 24.9913,-323.4832 29.5756,-313.9315 22.6185,-313.1575"/>
</g>
<!-- Node139 -->
<g id="node48" class="node">
<title>Node139</title>
<g id="a_node48"><a xlink:href="tcpip_8c.html#ad03556932c6347e620ceb49f39b4e33b" target="_top" xlink:title="pbuf_free_int">
<polygon fill="#ffffff" stroke="#000000" points="98,-.5 98,-19.5 158,-19.5 158,-.5 98,-.5"/>
<text text-anchor="middle" x="128" y="-7.5" font-family="Helvetica,sans-Serif" font-size="10.00" fill="#000000">pbuf_free_int</text>
</a>
</g>
</g>
<!-- Node91&#45;&gt;Node139 -->
<g id="edge67" class="edge">
<title>Node91&#45;&gt;Node139</title>
<path fill="none" stroke="#191970" d="M25.512,-313.3477C30.4894,-253.2702 48.1342,-73.4416 84,-29 87.6579,-24.4674 92.6052,-20.993 97.8632,-18.337"/>
<polygon fill="#191970" stroke="#191970" points="22.0162,-313.1553 24.7059,-323.403 28.9939,-313.7147 22.0162,-313.1553"/>
</g>
<!-- Node141 -->
<g id="node50" class="node">
<title>Node141</title>
<g id="a_node50"><a xlink:href="pbuf_8c.html#a50abfe830a33a1a47a562febee66015d" target="_top" xlink:title="pbuf_realloc">
<polygon fill="#ffffff" stroke="#000000" points="99.5,-437.5 99.5,-456.5 156.5,-456.5 156.5,-437.5 99.5,-437.5"/>
<text text-anchor="middle" x="128" y="-444.5" font-family="Helvetica,sans-Serif" font-size="10.00" fill="#000000">pbuf_realloc</text>
</a>
</g>
</g>
<!-- Node91&#45;&gt;Node141 -->
<g id="edge69" class="edge">
<title>Node91&#45;&gt;Node141</title>
<path fill="none" stroke="#191970" d="M33.1274,-351.9492C43.3463,-371.6324 61.4666,-402.3807 84,-423 90.291,-428.7566 98.2135,-433.6229 105.5964,-437.4369"/>
<polygon fill="#191970" stroke="#191970" points="36.1372,-350.1434 28.5223,-342.777 29.8814,-353.2843 36.1372,-350.1434"/>
</g>
<!-- Node93 -->
<g id="node3" class="node">
<title>Node93</title>
<g id="a_node3"><a xlink:href="espconn__tcp_8c.html#a1bf4d2aa3261188fe87a4f3c631eee15" target="_top" xlink:title="espconn_client_close">
<polygon fill="#ffffff" stroke="#000000" points="212.5,-684.5 212.5,-703.5 300.5,-703.5 300.5,-684.5 212.5,-684.5"/>
<text text-anchor="middle" x="256.5" y="-691.5" font-family="Helvetica,sans-Serif" font-size="10.00" fill="#000000">espconn_client_close</text>
</a>
</g>
</g>
<!-- Node92&#45;&gt;Node93 -->
<g id="edge2" class="edge">
<title>Node92&#45;&gt;Node93</title>
<path fill="none" stroke="#191970" d="M180.9722,-687.3433C191.332,-687.1703 202.0957,-687.2379 212.1398,-687.5461"/>
<polygon fill="#191970" stroke="#191970" points="180.6985,-683.8489 170.7886,-687.5965 180.8726,-690.8468 180.6985,-683.8489"/>
</g>
<!-- Node102 -->
<g id="node11" class="node">
<title>Node102</title>
<g id="a_node11"><a xlink:href="espconn__tcp_8c.html#a86c46016b2975352fa63c06ef75d11dc" target="_top" xlink:title="espconn_client_connect">
<polygon fill="#ffffff" stroke="#000000" points="208,-722.5 208,-741.5 305,-741.5 305,-722.5 208,-722.5"/>
<text text-anchor="middle" x="256.5" y="-729.5" font-family="Helvetica,sans-Serif" font-size="10.00" fill="#000000">espconn_client_connect</text>
</a>
</g>
</g>
<!-- Node92&#45;&gt;Node102 -->
<g id="edge13" class="edge">
<title>Node92&#45;&gt;Node102</title>
<path fill="none" stroke="#191970" d="M170.3891,-706.5353C187.87,-711.7048 207.8022,-717.5991 224.0844,-722.4141"/>
<polygon fill="#191970" stroke="#191970" points="171.008,-703.0686 160.426,-703.589 169.0229,-709.7812 171.008,-703.0686"/>
</g>
<!-- Node93&#45;&gt;Node92 -->
<g id="edge3" class="edge">
<title>Node93&#45;&gt;Node92</title>
<path fill="none" stroke="#191970" d="M201.8974,-700.6819C191.4984,-700.8297 180.7544,-700.7369 170.7886,-700.4035"/>
<polygon fill="#191970" stroke="#191970" points="202.2202,-704.1757 212.1398,-700.4539 202.0644,-697.1774 202.2202,-704.1757"/>
</g>
<!-- Node94 -->
<g id="node4" class="node">
<title>Node94</title>
<g id="a_node4"><a xlink:href="espconn__tcp_8c.html#ad1a7f8ed76cc477a4dd553c9a6d8e529" target="_top" xlink:title="espconn_tcp_disconnect">
<polygon fill="#ffffff" stroke="#000000" points="341,-684.5 341,-703.5 440,-703.5 440,-684.5 341,-684.5"/>
<text text-anchor="middle" x="390.5" y="-691.5" font-family="Helvetica,sans-Serif" font-size="10.00" fill="#000000">espconn_tcp_disconnect</text>
</a>
</g>
</g>
<!-- Node93&#45;&gt;Node94 -->
<g id="edge4" class="edge">
<title>Node93&#45;&gt;Node94</title>
<path fill="none" stroke="#191970" d="M310.8667,-694C320.7448,-694 331.0031,-694 340.7402,-694"/>
<polygon fill="#191970" stroke="#191970" points="310.748,-690.5001 300.748,-694 310.7479,-697.5001 310.748,-690.5001"/>
</g>
<!-- Node95 -->
<g id="node5" class="node">
<title>Node95</title>
<g id="a_node5"><a xlink:href="sdk_2include_2espconn_8h.html#ad6b3d2d0f556e6da81c898a6b9fa5c53" target="_top" xlink:title="espconn_abort">
<polygon fill="#ffffff" stroke="#000000" points="485.5,-684.5 485.5,-703.5 551.5,-703.5 551.5,-684.5 485.5,-684.5"/>
<text text-anchor="middle" x="518.5" y="-691.5" font-family="Helvetica,sans-Serif" font-size="10.00" fill="#000000">espconn_abort</text>
</a>
</g>
</g>
<!-- Node94&#45;&gt;Node95 -->
<g id="edge5" class="edge">
<title>Node94&#45;&gt;Node95</title>
<path fill="none" stroke="#191970" d="M450.6922,-694C462.5538,-694 474.5904,-694 485.1645,-694"/>
<polygon fill="#191970" stroke="#191970" points="450.3547,-690.5001 440.3547,-694 450.3546,-697.5001 450.3547,-690.5001"/>
</g>
<!-- Node101 -->
<g id="node10" class="node">
<title>Node101</title>
<g id="a_node10"><a xlink:href="sdk_2include_2espconn_8h.html#a9969873c3b8ee86a34496a5166cf8bfc" target="_top" xlink:title="espconn_disconnect">
<polygon fill="#ffffff" stroke="#000000" points="476,-646.5 476,-665.5 561,-665.5 561,-646.5 476,-646.5"/>
<text text-anchor="middle" x="518.5" y="-653.5" font-family="Helvetica,sans-Serif" font-size="10.00" fill="#000000">espconn_disconnect</text>
</a>
</g>
</g>
<!-- Node94&#45;&gt;Node101 -->
<g id="edge12" class="edge">
<title>Node94&#45;&gt;Node101</title>
<path fill="none" stroke="#191970" d="M432.7242,-681.4647C450.1371,-676.2952 469.9917,-670.4009 486.2105,-665.5859"/>
<polygon fill="#191970" stroke="#191970" points="431.3902,-678.2097 422.7998,-684.411 433.3824,-684.9202 431.3902,-678.2097"/>
</g>
<!-- Node96 -->
<g id="node6" class="node">
<title>Node96</title>
<g id="a_node6"><a xlink:href="mqtt_8c.html#a21ab01c5c7342eb954bdd128a5f4244b" target="_top" xlink:title="Delete tcp client and free all memory. ">
<polygon fill="#ffffff" stroke="#000000" points="597,-684.5 597,-703.5 684,-703.5 684,-684.5 597,-684.5"/>
<text text-anchor="middle" x="640.5" y="-691.5" font-family="Helvetica,sans-Serif" font-size="10.00" fill="#000000">mqtt_tcpclient_delete</text>
</a>
</g>
</g>
<!-- Node95&#45;&gt;Node96 -->
<g id="edge6" class="edge">
<title>Node95&#45;&gt;Node96</title>
<path fill="none" stroke="#191970" d="M561.6997,-694C573.1257,-694 585.4649,-694 596.9114,-694"/>
<polygon fill="#191970" stroke="#191970" points="561.515,-690.5001 551.515,-694 561.5149,-697.5001 561.515,-690.5001"/>
</g>
<!-- Node97 -->
<g id="node7" class="node">
<title>Node97</title>
<g id="a_node7"><a xlink:href="mqtt_8c.html#a9c9b677c6161329a3c3c6470a7182984" target="_top" xlink:title="Delete MQTT client and free all memory. ">
<polygon fill="#ffffff" stroke="#000000" points="720,-646.5 720,-665.5 797,-665.5 797,-646.5 720,-646.5"/>
<text text-anchor="middle" x="758.5" y="-653.5" font-family="Helvetica,sans-Serif" font-size="10.00" fill="#000000">mqtt_client_delete</text>
</a>
</g>
</g>
<!-- Node96&#45;&gt;Node97 -->
<g id="edge7" class="edge">
<title>Node96&#45;&gt;Node97</title>
<path fill="none" stroke="#191970" d="M679.8761,-681.3196C695.8198,-676.1852 713.9211,-670.3559 728.7331,-665.5859"/>
<polygon fill="#191970" stroke="#191970" points="678.7221,-678.0141 670.2764,-684.411 680.8679,-684.6771 678.7221,-678.0141"/>
</g>
<!-- Node98 -->
<g id="node8" class="node">
<title>Node98</title>
<g id="a_node8"><a xlink:href="mqtt_8c.html#a9d88fa6efb9163d4dbf9dc750a8d4ed0" target="_top" xlink:title="MQTT_Task">
<polygon fill="#ffffff" stroke="#ff0000" points="833,-684.5 833,-703.5 891,-703.5 891,-684.5 833,-684.5"/>
<text text-anchor="middle" x="862" y="-691.5" font-family="Helvetica,sans-Serif" font-size="10.00" fill="#000000">MQTT_Task</text>
</a>
</g>
</g>
<!-- Node96&#45;&gt;Node98 -->
<g id="edge9" class="edge">
<title>Node96&#45;&gt;Node98</title>
<path fill="none" stroke="#191970" d="M694.4109,-694C737.9904,-694 797.6773,-694 832.8061,-694"/>
<polygon fill="#191970" stroke="#191970" points="694.2613,-690.5001 684.2613,-694 694.2612,-697.5001 694.2613,-690.5001"/>
</g>
<!-- Node100 -->
<g id="node9" class="node">
<title>Node100</title>
<g id="a_node9"><a xlink:href="mqtt_8c.html#ad34b681cb2f7473d8fc786c7ed468db5" target="_top" xlink:title="Begin connect to MQTT broker. ">
<polygon fill="#ffffff" stroke="#000000" points="723.5,-722.5 723.5,-741.5 793.5,-741.5 793.5,-722.5 723.5,-722.5"/>
<text text-anchor="middle" x="758.5" y="-729.5" font-family="Helvetica,sans-Serif" font-size="10.00" fill="#000000">MQTT_Connect</text>
</a>
</g>
</g>
<!-- Node96&#45;&gt;Node100 -->
<g id="edge10" class="edge">
<title>Node96&#45;&gt;Node100</title>
<path fill="none" stroke="#191970" d="M679.8761,-706.6804C695.8198,-711.8148 713.9211,-717.6441 728.7331,-722.4141"/>
<polygon fill="#191970" stroke="#191970" points="680.8679,-703.3229 670.2764,-703.589 678.7221,-709.9859 680.8679,-703.3229"/>
</g>
<!-- Node97&#45;&gt;Node98 -->
<g id="edge8" class="edge">
<title>Node97&#45;&gt;Node98</title>
<path fill="none" stroke="#191970" d="M794.2293,-669.118C807.9184,-674.1439 823.2667,-679.7791 835.8909,-684.4141"/>
<polygon fill="#191970" stroke="#191970" points="795.211,-665.7501 784.6174,-665.589 792.7984,-672.3212 795.211,-665.7501"/>
</g>
<!-- Node100&#45;&gt;Node98 -->
<g id="edge11" class="edge">
<title>Node100&#45;&gt;Node98</title>
<path fill="none" stroke="#191970" d="M794.2293,-718.882C807.9184,-713.8561 823.2667,-708.2209 835.8909,-703.5859"/>
<polygon fill="#191970" stroke="#191970" points="792.7984,-715.6788 784.6174,-722.411 795.211,-722.2499 792.7984,-715.6788"/>
</g>
<!-- Node103 -->
<g id="node12" class="node">
<title>Node103</title>
<g id="a_node12"><a xlink:href="espconn__tcp_8c.html#afe66d17cd3c4b5ca9959287aec4db38b" target="_top" xlink:title="espconn_tcp_client">
<polygon fill="#ffffff" stroke="#000000" points="350,-722.5 350,-741.5 431,-741.5 431,-722.5 350,-722.5"/>
<text text-anchor="middle" x="390.5" y="-729.5" font-family="Helvetica,sans-Serif" font-size="10.00" fill="#000000">espconn_tcp_client</text>
</a>
</g>
</g>
<!-- Node102&#45;&gt;Node103 -->
<g id="edge14" class="edge">
<title>Node102&#45;&gt;Node103</title>
<path fill="none" stroke="#191970" d="M315.3833,-732C327.0462,-732 339.042,-732 349.9291,-732"/>
<polygon fill="#191970" stroke="#191970" points="315.2562,-728.5001 305.2561,-732 315.2561,-735.5001 315.2562,-728.5001"/>
</g>
<!-- Node104 -->
<g id="node13" class="node">
<title>Node104</title>
<g id="a_node13"><a xlink:href="sdk_2include_2espconn_8h.html#a949cd618667cea85b1b99d14b90dce7d" target="_top" xlink:title="espconn_connect">
<polygon fill="#ffffff" stroke="#000000" points="481,-722.5 481,-741.5 556,-741.5 556,-722.5 481,-722.5"/>
<text text-anchor="middle" x="518.5" y="-729.5" font-family="Helvetica,sans-Serif" font-size="10.00" fill="#000000">espconn_connect</text>
</a>
</g>
</g>
<!-- Node103&#45;&gt;Node104 -->
<g id="edge15" class="edge">
<title>Node103&#45;&gt;Node104</title>
<path fill="none" stroke="#191970" d="M441.5994,-732C454.6306,-732 468.4062,-732 480.6423,-732"/>
<polygon fill="#191970" stroke="#191970" points="441.352,-728.5001 431.3519,-732 441.3519,-735.5001 441.352,-728.5001"/>
</g>
<!-- Node106 -->
<g id="node15" class="node">
<title>Node106</title>
<g id="a_node15"><a xlink:href="espconn__tcp_8c.html#a1c87d6afab08e5f7f51a212a20547dee" target="_top" xlink:title="espconn_server_close">
<polygon fill="#ffffff" stroke="#000000" points="210.5,-646.5 210.5,-665.5 302.5,-665.5 302.5,-646.5 210.5,-646.5"/>
<text text-anchor="middle" x="256.5" y="-653.5" font-family="Helvetica,sans-Serif" font-size="10.00" fill="#000000">espconn_server_close</text>
</a>
</g>
</g>
<!-- Node105&#45;&gt;Node106 -->
<g id="edge17" class="edge">
<title>Node105&#45;&gt;Node106</title>
<path fill="none" stroke="#191970" d="M182.2993,-638.3512C198.7319,-640.5398 216.0545,-643.4616 229.826,-646.4598"/>
<polygon fill="#191970" stroke="#191970" points="182.5799,-634.859 172.2224,-637.0891 181.7099,-641.8048 182.5799,-634.859"/>
</g>
<!-- Node108 -->
<g id="node17" class="node">
<title>Node108</title>
<g id="a_node17"><a xlink:href="espconn__tcp_8c.html#acf0ecfba42ea8bcc55836b8dccabe511" target="_top" xlink:title="espconn_tcp_accept">
<polygon fill="#ffffff" stroke="#000000" points="476,-608.5 476,-627.5 561,-627.5 561,-608.5 476,-608.5"/>
<text text-anchor="middle" x="518.5" y="-615.5" font-family="Helvetica,sans-Serif" font-size="10.00" fill="#000000">espconn_tcp_accept</text>
</a>
</g>
</g>
<!-- Node105&#45;&gt;Node108 -->
<g id="edge24" class="edge">
<title>Node105&#45;&gt;Node108</title>
<path fill="none" stroke="#191970" d="M182.2003,-634.3629C260.6808,-630.5443 404.3629,-623.5534 475.8132,-620.077"/>
<polygon fill="#191970" stroke="#191970" points="181.8543,-630.8755 172.0362,-634.8574 182.1945,-637.8672 181.8543,-630.8755"/>
</g>
<!-- Node106&#45;&gt;Node94 -->
<g id="edge23" class="edge">
<title>Node106&#45;&gt;Node94</title>
<path fill="none" stroke="#191970" d="M299.9383,-668.3183C318.3491,-673.5393 339.4798,-679.5316 356.697,-684.4141"/>
<polygon fill="#191970" stroke="#191970" points="300.8894,-664.9501 290.3139,-665.589 298.9796,-671.6845 300.8894,-664.9501"/>
</g>
<!-- Node106&#45;&gt;Node105 -->
<g id="edge22" class="edge">
<title>Node106&#45;&gt;Node105</title>
<path fill="none" stroke="#191970" d="M200.1444,-654.3718C184.3127,-652.2142 167.8317,-649.4067 154.6253,-646.5295"/>
<polygon fill="#191970" stroke="#191970" points="200.0491,-657.8882 210.4134,-655.69 200.9404,-650.9451 200.0491,-657.8882"/>
</g>
<!-- Node107 -->
<g id="node16" class="node">
<title>Node107</title>
<g id="a_node16"><a xlink:href="espconn__tcp_8c.html#af3868ea055aae73a6f4de8866d31aceb" target="_top" xlink:title="espconn_server_poll">
<polygon fill="#ffffff" stroke="#000000" points="347.5,-646.5 347.5,-665.5 433.5,-665.5 433.5,-646.5 347.5,-646.5"/>
<text text-anchor="middle" x="390.5" y="-653.5" font-family="Helvetica,sans-Serif" font-size="10.00" fill="#000000">espconn_server_poll</text>
</a>
</g>
</g>
<!-- Node106&#45;&gt;Node107 -->
<g id="edge18" class="edge">
<title>Node106&#45;&gt;Node107</title>
<path fill="none" stroke="#191970" d="M312.6827,-656C324.3112,-656 336.3862,-656 347.4563,-656"/>
<polygon fill="#191970" stroke="#191970" points="312.6152,-652.5001 302.6152,-656 312.6152,-659.5001 312.6152,-652.5001"/>
</g>
<!-- Node107&#45;&gt;Node108 -->
<g id="edge19" class="edge">
<title>Node107&#45;&gt;Node108</title>
<path fill="none" stroke="#191970" d="M432.7242,-643.4647C450.1371,-638.2952 469.9917,-632.4009 486.2105,-627.5859"/>
<polygon fill="#191970" stroke="#191970" points="431.3902,-640.2097 422.7998,-646.411 433.3824,-646.9202 431.3902,-640.2097"/>
</g>
<!-- Node109 -->
<g id="node18" class="node">
<title>Node109</title>
<g id="a_node18"><a xlink:href="espconn__tcp_8c.html#ace125fa28aced169fba2b955f1ce76fb" target="_top" xlink:title="espconn_tcp_server">
<polygon fill="#ffffff" stroke="#000000" points="598.5,-608.5 598.5,-627.5 682.5,-627.5 682.5,-608.5 598.5,-608.5"/>
<text text-anchor="middle" x="640.5" y="-615.5" font-family="Helvetica,sans-Serif" font-size="10.00" fill="#000000">espconn_tcp_server</text>
</a>
</g>
</g>
<!-- Node108&#45;&gt;Node109 -->
<g id="edge20" class="edge">
<title>Node108&#45;&gt;Node109</title>
<path fill="none" stroke="#191970" d="M571.2838,-618C580.3743,-618 589.7129,-618 598.4718,-618"/>
<polygon fill="#191970" stroke="#191970" points="571.1697,-614.5001 561.1697,-618 571.1696,-621.5001 571.1697,-614.5001"/>
</g>
<!-- Node110 -->
<g id="node19" class="node">
<title>Node110</title>
<g id="a_node19"><a xlink:href="sdk_2include_2espconn_8h.html#abd44446e3fc4a61fdef77d473deb678b" target="_top" xlink:title="espconn_accept">
<polygon fill="#ffffff" stroke="#000000" points="723,-608.5 723,-627.5 794,-627.5 794,-608.5 723,-608.5"/>
<text text-anchor="middle" x="758.5" y="-615.5" font-family="Helvetica,sans-Serif" font-size="10.00" fill="#000000">espconn_accept</text>
</a>
</g>
</g>
<!-- Node109&#45;&gt;Node110 -->
<g id="edge21" class="edge">
<title>Node109&#45;&gt;Node110</title>
<path fill="none" stroke="#191970" d="M692.7675,-618C702.9021,-618 713.3052,-618 722.7596,-618"/>
<polygon fill="#191970" stroke="#191970" points="692.7674,-614.5001 682.7674,-618 692.7674,-621.5001 692.7674,-614.5001"/>
</g>
<!-- Node112 -->
<g id="node21" class="node">
<title>Node112</title>
<g id="a_node21"><a xlink:href="espconn__udp_8c.html#a9bec8b8f0b6b24ef4f29f4294e1f129c" target="_top" xlink:title="espconn_udp_server">
<polygon fill="#ffffff" stroke="#000000" points="213,-570.5 213,-589.5 300,-589.5 300,-570.5 213,-570.5"/>
<text text-anchor="middle" x="256.5" y="-577.5" font-family="Helvetica,sans-Serif" font-size="10.00" fill="#000000">espconn_udp_server</text>
</a>
</g>
</g>
<!-- Node111&#45;&gt;Node112 -->
<g id="edge26" class="edge">
<title>Node111&#45;&gt;Node112</title>
<path fill="none" stroke="#191970" d="M178.4963,-580C189.8227,-580 201.7475,-580 212.7716,-580"/>
<polygon fill="#191970" stroke="#191970" points="178.3057,-576.5001 168.3056,-580 178.3056,-583.5001 178.3057,-576.5001"/>
</g>
<!-- Node113 -->
<g id="node22" class="node">
<title>Node113</title>
<g id="a_node22"><a xlink:href="sdk_2include_2espconn_8h.html#ad55b9729c7629f40c8e7ae2d73f7f174" target="_top" xlink:title="espconn_create">
<polygon fill="#ffffff" stroke="#000000" points="355.5,-570.5 355.5,-589.5 425.5,-589.5 425.5,-570.5 355.5,-570.5"/>
<text text-anchor="middle" x="390.5" y="-577.5" font-family="Helvetica,sans-Serif" font-size="10.00" fill="#000000">espconn_create</text>
</a>
</g>
</g>
<!-- Node112&#45;&gt;Node113 -->
<g id="edge27" class="edge">
<title>Node112&#45;&gt;Node113</title>
<path fill="none" stroke="#191970" d="M310.2944,-580C325.4293,-580 341.5004,-580 355.2506,-580"/>
<polygon fill="#191970" stroke="#191970" points="310.006,-576.5001 300.006,-580 310.0059,-583.5001 310.006,-576.5001"/>
</g>
<!-- Node115 -->
<g id="node24" class="node">
<title>Node115</title>
<g id="a_node24"><a xlink:href="espconn__udp_8c.html#ad90679652367797548ea650f09d14f7e" target="_top" xlink:title="espconn_data_sent">
<polygon fill="#ffffff" stroke="#000000" points="349.5,-456.5 349.5,-475.5 431.5,-475.5 431.5,-456.5 349.5,-456.5"/>
<text text-anchor="middle" x="390.5" y="-463.5" font-family="Helvetica,sans-Serif" font-size="10.00" fill="#000000">espconn_data_sent</text>
</a>
</g>
</g>
<!-- Node114&#45;&gt;Node115 -->
<g id="edge29" class="edge">
<title>Node114&#45;&gt;Node115</title>
<path fill="none" stroke="#191970" d="M310.9001,-459.3572C323.7787,-459.1357 337.3017,-459.2575 349.4719,-459.7226"/>
<polygon fill="#191970" stroke="#191970" points="310.6583,-455.862 300.748,-459.6085 310.8316,-462.8599 310.6583,-455.862"/>
</g>
<!-- Node118 -->
<g id="node27" class="node">
<title>Node118</title>
<g id="a_node27"><a xlink:href="sdk_2include_2espconn_8h.html#a62219be0ac7e8dd6085915d5c0777476" target="_top" xlink:title="espconn_sendto">
<polygon fill="#ffffff" stroke="#000000" points="354.5,-494.5 354.5,-513.5 426.5,-513.5 426.5,-494.5 354.5,-494.5"/>
<text text-anchor="middle" x="390.5" y="-501.5" font-family="Helvetica,sans-Serif" font-size="10.00" fill="#000000">espconn_sendto</text>
</a>
</g>
</g>
<!-- Node114&#45;&gt;Node118 -->
<g id="edge34" class="edge">
<title>Node114&#45;&gt;Node118</title>
<path fill="none" stroke="#191970" d="M299.9383,-478.3183C318.3491,-483.5393 339.4798,-489.5316 356.697,-494.4141"/>
<polygon fill="#191970" stroke="#191970" points="300.8894,-474.9501 290.3139,-475.589 298.9796,-481.6845 300.8894,-474.9501"/>
</g>
<!-- Node115&#45;&gt;Node114 -->
<g id="edge30" class="edge">
<title>Node115&#45;&gt;Node114</title>
<path fill="none" stroke="#191970" d="M339.4598,-472.5768C326.709,-472.8584 313.1394,-472.7966 300.748,-472.3915"/>
<polygon fill="#191970" stroke="#191970" points="339.5811,-476.0749 349.4719,-472.2774 339.3718,-469.078 339.5811,-476.0749"/>
</g>
<!-- Node115&#45;&gt;Node116 -->
<g id="edge31" class="edge">
<title>Node115&#45;&gt;Node116</title>
<path fill="none" stroke="#191970" d="M441.7205,-459.3711C453.8719,-459.138 466.6641,-459.2414 478.247,-459.6812"/>
<polygon fill="#191970" stroke="#191970" points="441.6048,-455.8728 431.7046,-459.6459 441.7969,-462.8702 441.6048,-455.8728"/>
</g>
<!-- Node116&#45;&gt;Node115 -->
<g id="edge32" class="edge">
<title>Node116&#45;&gt;Node115</title>
<path fill="none" stroke="#191970" d="M467.9099,-472.6165C455.9025,-472.8588 443.2357,-472.7713 431.7046,-472.3541"/>
<polygon fill="#191970" stroke="#191970" points="468.352,-476.1054 478.247,-472.3188 468.1504,-469.1083 468.352,-476.1054"/>
</g>
<!-- Node117 -->
<g id="node26" class="node">
<title>Node117</title>
<g id="a_node26"><a xlink:href="sdk_2include_2espconn_8h.html#a579e4f1c62f7c33be01398931617e988" target="_top" xlink:title="espconn_sent">
<polygon fill="#ffffff" stroke="#000000" points="609,-456.5 609,-475.5 672,-475.5 672,-456.5 609,-456.5"/>
<text text-anchor="middle" x="640.5" y="-463.5" font-family="Helvetica,sans-Serif" font-size="10.00" fill="#000000">espconn_sent</text>
</a>
</g>
</g>
<!-- Node116&#45;&gt;Node117 -->
<g id="edge33" class="edge">
<title>Node116&#45;&gt;Node117</title>
<path fill="none" stroke="#191970" d="M568.912,-466C582.3954,-466 596.5908,-466 608.7532,-466"/>
<polygon fill="#191970" stroke="#191970" points="568.7855,-462.5001 558.7855,-466 568.7854,-469.5001 568.7855,-462.5001"/>
</g>
<!-- Node119 -->
<g id="node28" class="node">
<title>Node119</title>
<g id="a_node28"><a xlink:href="captdns_8c.html#a59c9a28ea1f015cff27b9d0c252d15f3" target="_top" xlink:title="captdnsRecv">
<polygon fill="#ffffff" stroke="#000000" points="488.5,-494.5 488.5,-513.5 548.5,-513.5 548.5,-494.5 488.5,-494.5"/>
<text text-anchor="middle" x="518.5" y="-501.5" font-family="Helvetica,sans-Serif" font-size="10.00" fill="#000000">captdnsRecv</text>
</a>
</g>
</g>
<!-- Node118&#45;&gt;Node119 -->
<g id="edge35" class="edge">
<title>Node118&#45;&gt;Node119</title>
<path fill="none" stroke="#191970" d="M437.1455,-504C454.1441,-504 472.9096,-504 488.1303,-504"/>
<polygon fill="#191970" stroke="#191970" points="436.8373,-500.5001 426.8373,-504 436.8372,-507.5001 436.8373,-500.5001"/>
</g>
<!-- Node120 -->
<g id="node29" class="node">
<title>Node120</title>
<g id="a_node29"><a xlink:href="captdns_8h.html#a88f42288d1b84cab204cca9e7f7aa9a3" target="_top" xlink:title="captdnsInit">
<polygon fill="#ffffff" stroke="#000000" points="614,-494.5 614,-513.5 667,-513.5 667,-494.5 614,-494.5"/>
<text text-anchor="middle" x="640.5" y="-501.5" font-family="Helvetica,sans-Serif" font-size="10.00" fill="#000000">captdnsInit</text>
</a>
</g>
</g>
<!-- Node119&#45;&gt;Node120 -->
<g id="edge36" class="edge">
<title>Node119&#45;&gt;Node120</title>
<path fill="none" stroke="#191970" d="M558.8753,-497.6053C576.8559,-496.9628 597.5463,-497.1917 613.5968,-498.2917"/>
<polygon fill="#191970" stroke="#191970" points="558.4824,-494.1198 548.6573,-498.0843 558.8103,-501.1121 558.4824,-494.1198"/>
</g>
<!-- Node120&#45;&gt;Node119 -->
<g id="edge37" class="edge">
<title>Node120&#45;&gt;Node119</title>
<path fill="none" stroke="#191970" d="M603.1719,-510.2763C585.6891,-511.0112 565.1357,-510.891 548.6573,-509.9157"/>
<polygon fill="#191970" stroke="#191970" points="603.8021,-513.7473 613.5968,-509.7083 603.4212,-506.7576 603.8021,-513.7473"/>
</g>
<!-- Node122 -->
<g id="node31" class="node">
<title>Node122</title>
<g id="a_node31"><a xlink:href="dhcpserver_8c.html#aa4cf55564a805b8654630547d365edcd" target="_top" xlink:title="dhcps_start">
<polygon fill="#ffffff" stroke="#000000" points="491,-171.5 491,-190.5 546,-190.5 546,-171.5 491,-171.5"/>
<text text-anchor="middle" x="518.5" y="-178.5" font-family="Helvetica,sans-Serif" font-size="10.00" fill="#000000">dhcps_start</text>
</a>
</g>
</g>
<!-- Node121&#45;&gt;Node122 -->
<g id="edge40" class="edge">
<title>Node121&#45;&gt;Node122</title>
<path fill="none" stroke="#191970" d="M430.3558,-181C449.9478,-181 473.077,-181 490.7259,-181"/>
<polygon fill="#191970" stroke="#191970" points="430.1875,-177.5001 420.1875,-181 430.1875,-184.5001 430.1875,-177.5001"/>
</g>
<!-- Node124 -->
<g id="node33" class="node">
<title>Node124</title>
<g id="a_node33"><a xlink:href="netif_8c.html#a0f4a53e47c840904f824a2a1c0d4ebf4" target="_top" xlink:title="netif_init">
<polygon fill="#ffffff" stroke="#000000" points="496.5,-380.5 496.5,-399.5 540.5,-399.5 540.5,-380.5 496.5,-380.5"/>
<text text-anchor="middle" x="518.5" y="-387.5" font-family="Helvetica,sans-Serif" font-size="10.00" fill="#000000">netif_init</text>
</a>
</g>
</g>
<!-- Node123&#45;&gt;Node124 -->
<g id="edge42" class="edge">
<title>Node123&#45;&gt;Node124</title>
<path fill="none" stroke="#191970" d="M287.6251,-414.2308C293.5667,-411.1525 299.609,-407.694 305,-404 322.905,-391.7313 320.7714,-378.8686 341,-371 393.8573,-350.4394 461.848,-368.983 496.3258,-381.2306"/>
<polygon fill="#191970" stroke="#191970" points="285.9045,-411.1767 278.4793,-418.7343 288.9969,-417.4566 285.9045,-411.1767"/>
</g>
<!-- Node123&#45;&gt;Node127 -->
<g id="edge45" class="edge">
<title>Node123&#45;&gt;Node127</title>
<path fill="none" stroke="#191970" d="M287.2684,-416.3276C293.6113,-412.9907 299.9026,-408.8983 305,-404 329.0926,-380.8485 316.8143,-361.0542 341,-338 347.2909,-332.0034 355.3641,-327.2374 363.1575,-323.5849"/>
<polygon fill="#191970" stroke="#191970" points="285.612,-413.2394 278.0716,-420.6821 288.6075,-419.5661 285.612,-413.2394"/>
</g>
<!-- Node128 -->
<g id="node37" class="node">
<title>Node128</title>
<g id="a_node37"><a xlink:href="tcpip_8c.html#ae510f195171bed8499ae94e264a92717" target="_top" xlink:title="tcpip_input">
<polygon fill="#ffffff" stroke="#000000" points="364,-380.5 364,-399.5 417,-399.5 417,-380.5 364,-380.5"/>
<text text-anchor="middle" x="390.5" y="-387.5" font-family="Helvetica,sans-Serif" font-size="10.00" fill="#000000">tcpip_input</text>
</a>
</g>
</g>
<!-- Node123&#45;&gt;Node128 -->
<g id="edge46" class="edge">
<title>Node123&#45;&gt;Node128</title>
<path fill="none" stroke="#191970" d="M287.7113,-419.149C310.8379,-412.5907 342.0166,-403.749 363.9509,-397.5289"/>
<polygon fill="#191970" stroke="#191970" points="286.6952,-415.7991 278.0294,-421.8946 288.605,-422.5336 286.6952,-415.7991"/>
</g>
<!-- Node129 -->
<g id="node38" class="node">
<title>Node129</title>
<g id="a_node38"><a xlink:href="tcpip_8c.html#a61474ad2c2c25ba58cc774e2bcc4ef5f" target="_top" xlink:title="tcpip_thread">
<polygon fill="#ffffff" stroke="#000000" points="611.5,-418.5 611.5,-437.5 669.5,-437.5 669.5,-418.5 611.5,-418.5"/>
<text text-anchor="middle" x="640.5" y="-425.5" font-family="Helvetica,sans-Serif" font-size="10.00" fill="#000000">tcpip_thread</text>
</a>
</g>
</g>
<!-- Node123&#45;&gt;Node129 -->
<g id="edge48" class="edge">
<title>Node123&#45;&gt;Node129</title>
<path fill="none" stroke="#191970" d="M288.6896,-428C362.1084,-428 541.0151,-428 611.3841,-428"/>
<polygon fill="#191970" stroke="#191970" points="288.2458,-424.5001 278.2457,-428 288.2457,-431.5001 288.2458,-424.5001"/>
</g>
<!-- Node125 -->
<g id="node34" class="node">
<title>Node125</title>
<g id="a_node34"><a xlink:href="init_8c.html#a0c1a18439524d2f4a5e51d25c0ca2ce9" target="_top" xlink:title="lwip_init">
<polygon fill="#ffffff" stroke="#000000" points="619,-380.5 619,-399.5 662,-399.5 662,-380.5 619,-380.5"/>
<text text-anchor="middle" x="640.5" y="-387.5" font-family="Helvetica,sans-Serif" font-size="10.00" fill="#000000">lwip_init</text>
</a>
</g>
</g>
<!-- Node124&#45;&gt;Node125 -->
<g id="edge43" class="edge">
<title>Node124&#45;&gt;Node125</title>
<path fill="none" stroke="#191970" d="M550.6156,-390C572.1928,-390 600.0389,-390 618.9806,-390"/>
<polygon fill="#191970" stroke="#191970" points="550.5933,-386.5001 540.5933,-390 550.5932,-393.5001 550.5933,-386.5001"/>
</g>
<!-- Node126 -->
<g id="node35" class="node">
<title>Node126</title>
<g id="a_node35"><a xlink:href="tcpip_8c.html#a1f3a88b8df6ba3b9ed1c00e0a305e3db" target="_top" xlink:title="tcpip_init">
<polygon fill="#ffffff" stroke="#000000" points="735.5,-399.5 735.5,-418.5 781.5,-418.5 781.5,-399.5 735.5,-399.5"/>
<text text-anchor="middle" x="758.5" y="-406.5" font-family="Helvetica,sans-Serif" font-size="10.00" fill="#000000">tcpip_init</text>
</a>
</g>
</g>
<!-- Node125&#45;&gt;Node126 -->
<g id="edge44" class="edge">
<title>Node125&#45;&gt;Node126</title>
<path fill="none" stroke="#191970" d="M672.2878,-395.1184C692.1881,-398.3227 717.3774,-402.3786 735.3805,-405.2774"/>
<polygon fill="#191970" stroke="#191970" points="672.5723,-391.6192 662.143,-393.4849 671.4594,-398.5302 672.5723,-391.6192"/>
</g>
<!-- Node128&#45;&gt;Node124 -->
<g id="edge47" class="edge">
<title>Node128&#45;&gt;Node124</title>
<path fill="none" stroke="#191970" d="M427.1566,-390C449.4719,-390 477.2495,-390 496.2772,-390"/>
<polygon fill="#191970" stroke="#191970" points="427.0217,-386.5001 417.0217,-390 427.0216,-393.5001 427.0217,-386.5001"/>
</g>
<!-- Node129&#45;&gt;Node126 -->
<g id="edge49" class="edge">
<title>Node129&#45;&gt;Node126</title>
<path fill="none" stroke="#191970" d="M679.5481,-421.7126C697.9728,-418.7459 719.3399,-415.3054 735.1958,-412.7524"/>
<polygon fill="#191970" stroke="#191970" points="678.985,-418.2581 669.6685,-423.3034 680.0978,-425.1691 678.985,-418.2581"/>
</g>
<!-- Node131 -->
<g id="node40" class="node">
<title>Node131</title>
<g id="a_node40"><a xlink:href="wifi_8c.html#aa87c06c3cbab2aa762551fcec59dc8f0" target="_top" xlink:title="wifi_handle_event_cb">
<polygon fill="#ffffff" stroke="#000000" points="212,-76.5 212,-95.5 301,-95.5 301,-76.5 212,-76.5"/>
<text text-anchor="middle" x="256.5" y="-83.5" font-family="Helvetica,sans-Serif" font-size="10.00" fill="#000000">wifi_handle_event_cb</text>
</a>
</g>
</g>
<!-- Node130&#45;&gt;Node131 -->
<g id="edge51" class="edge">
<title>Node130&#45;&gt;Node131</title>
<path fill="none" stroke="#191970" d="M168.0115,-86C181.8791,-86 197.5121,-86 211.7373,-86"/>
<polygon fill="#191970" stroke="#191970" points="167.8035,-82.5001 157.8035,-86 167.8034,-89.5001 167.8035,-82.5001"/>
</g>
<!-- Node132 -->
<g id="node41" class="node">
<title>Node132</title>
<g id="a_node41"><a xlink:href="wifi_8c.html#a9c38abb0900e0c7308be77d85dbf09e0" target="_top" xlink:title="wifi_connect">
<polygon fill="#ffffff" stroke="#000000" points="361.5,-76.5 361.5,-95.5 419.5,-95.5 419.5,-76.5 361.5,-76.5"/>
<text text-anchor="middle" x="390.5" y="-83.5" font-family="Helvetica,sans-Serif" font-size="10.00" fill="#000000">wifi_connect</text>
</a>
</g>
</g>
<!-- Node131&#45;&gt;Node132 -->
<g id="edge52" class="edge">
<title>Node131&#45;&gt;Node132</title>
<path fill="none" stroke="#191970" d="M311.5466,-86C328.5795,-86 346.6774,-86 361.2432,-86"/>
<polygon fill="#191970" stroke="#191970" points="311.1201,-82.5001 301.1201,-86 311.12,-89.5001 311.1201,-82.5001"/>
</g>
<!-- Node133&#45;&gt;Node114 -->
<g id="edge55" class="edge">
<title>Node133&#45;&gt;Node114</title>
<path fill="none" stroke="#191970" d="M133.3911,-314.5516C143.1461,-346.4927 166.6482,-410.0049 208,-447 212.3134,-450.859 217.5013,-453.9759 222.857,-456.4807"/>
<polygon fill="#191970" stroke="#191970" points="136.6677,-313.2852 130.5073,-304.6655 129.9478,-315.2455 136.6677,-313.2852"/>
</g>
<!-- Node133&#45;&gt;Node116 -->
<g id="edge56" class="edge">
<title>Node133&#45;&gt;Node116</title>
<path fill="none" stroke="#191970" d="M163.5083,-282.7026C226.0926,-263.462 357.2288,-234.338 440,-295 482.8558,-326.4085 451.7814,-361.7076 476,-409 485.2274,-427.0186 500.0742,-445.3437 509.5536,-456.1877"/>
<polygon fill="#191970" stroke="#191970" points="162.1889,-279.4491 153.7136,-285.8069 164.3038,-286.122 162.1889,-279.4491"/>
</g>
<!-- Node133&#45;&gt;Node127 -->
<g id="edge57" class="edge">
<title>Node133&#45;&gt;Node127</title>
<path fill="none" stroke="#191970" d="M163.6559,-297.5808C212.0315,-301.0823 298.266,-307.324 349.3367,-311.0206"/>
<polygon fill="#191970" stroke="#191970" points="163.8742,-294.0875 153.6476,-296.8564 163.3688,-301.0693 163.8742,-294.0875"/>
</g>
<!-- Node133&#45;&gt;Node134 -->
<g id="edge58" class="edge">
<title>Node133&#45;&gt;Node134</title>
<path fill="none" stroke="#191970" d="M158.7005,-308.6181C182.21,-319.0465 214.0492,-333.1697 234.9218,-342.4284"/>
<polygon fill="#191970" stroke="#191970" points="160.0683,-305.396 149.508,-304.5405 157.2299,-311.7947 160.0683,-305.396"/>
</g>
<!-- Node133&#45;&gt;Node135 -->
<g id="edge59" class="edge">
<title>Node133&#45;&gt;Node135</title>
<path fill="none" stroke="#191970" d="M142.8561,-277.3821C157.8522,-260.5128 182.3981,-235.2864 208,-219 215.325,-214.3403 223.9765,-210.5035 231.9297,-207.5277"/>
<polygon fill="#191970" stroke="#191970" points="139.8487,-275.5069 135.9296,-285.3503 145.1317,-280.0993 139.8487,-275.5069"/>
</g>
<!-- Node133&#45;&gt;Node136 -->
<g id="edge61" class="edge">
<title>Node133&#45;&gt;Node136</title>
<path fill="none" stroke="#191970" d="M136.7996,-276.1706C149.3396,-251.2088 174.5845,-207.264 208,-181 214.9677,-175.5235 223.7082,-171.4556 231.8431,-168.5204"/>
<polygon fill="#191970" stroke="#191970" points="133.5801,-274.7878 132.3517,-285.3111 139.8745,-277.8507 133.5801,-274.7878"/>
</g>
<!-- Node133&#45;&gt;Node137 -->
<g id="edge63" class="edge">
<title>Node133&#45;&gt;Node137</title>
<path fill="none" stroke="#191970" d="M158.7005,-281.3819C182.21,-270.9535 214.0492,-256.8303 234.9218,-247.5716"/>
<polygon fill="#191970" stroke="#191970" points="157.2299,-278.2053 149.508,-285.4595 160.0683,-284.604 157.2299,-278.2053"/>
</g>
<!-- Node135&#45;&gt;Node121 -->
<g id="edge60" class="edge">
<title>Node135&#45;&gt;Node121</title>
<path fill="none" stroke="#191970" d="M291.1643,-195.0849C312.7937,-192.0181 340.3374,-188.1126 360.9324,-185.1924"/>
<polygon fill="#191970" stroke="#191970" points="290.4873,-191.6458 281.0777,-196.5151 291.47,-198.5765 290.4873,-191.6458"/>
</g>
<!-- Node136&#45;&gt;Node121 -->
<g id="edge62" class="edge">
<title>Node136&#45;&gt;Node121</title>
<path fill="none" stroke="#191970" d="M291.1643,-166.9151C312.7937,-169.9819 340.3374,-173.8874 360.9324,-176.8076"/>
<polygon fill="#191970" stroke="#191970" points="291.47,-163.4235 281.0777,-165.4849 290.4873,-170.3542 291.47,-163.4235"/>
</g>
<!-- Node137&#45;&gt;Node121 -->
<g id="edge64" class="edge">
<title>Node137&#45;&gt;Node121</title>
<path fill="none" stroke="#191970" d="M291.1675,-224.6375C295.8305,-222.7763 300.5411,-220.8631 305,-219 327.1822,-209.7312 352.2927,-198.4787 369.5318,-190.6341"/>
<polygon fill="#191970" stroke="#191970" points="289.7749,-221.4243 281.7588,-228.352 292.3454,-227.9353 289.7749,-221.4243"/>
</g>
<!-- Node140 -->
<g id="node49" class="node">
<title>Node140</title>
<g id="a_node49"><a xlink:href="tcpip_8c.html#a5cdcb6b784fe0e8736a5b31a5cfbed6c" target="_top" xlink:title="pbuf_free_callback">
<polygon fill="#ffffff" stroke="#000000" points="217,-.5 217,-19.5 296,-19.5 296,-.5 217,-.5"/>
<text text-anchor="middle" x="256.5" y="-7.5" font-family="Helvetica,sans-Serif" font-size="10.00" fill="#000000">pbuf_free_callback</text>
</a>
</g>
</g>
<!-- Node139&#45;&gt;Node140 -->
<g id="edge68" class="edge">
<title>Node139&#45;&gt;Node140</title>
<path fill="none" stroke="#191970" d="M168.4238,-10C183.8672,-10 201.4502,-10 216.8233,-10"/>
<polygon fill="#191970" stroke="#191970" points="168.1276,-6.5001 158.1275,-10 168.1275,-13.5001 168.1276,-6.5001"/>
</g>
<!-- Node141&#45;&gt;Node123 -->
<g id="edge70" class="edge">
<title>Node141&#45;&gt;Node123</title>
<path fill="none" stroke="#191970" d="M166.7006,-441.2777C189.0237,-437.977 216.2625,-433.9495 234.847,-431.2016"/>
<polygon fill="#191970" stroke="#191970" points="165.8988,-437.8581 156.5183,-442.7833 166.9227,-444.7829 165.8988,-437.8581"/>
</g>
</g>
</svg>
