<?xml version="1.0" encoding="UTF-8" standalone="no"?>
<!DOCTYPE svg PUBLIC "-//W3C//DTD SVG 1.1//EN"
 "http://www.w3.org/Graphics/SVG/1.1/DTD/svg11.dtd">
<!-- Generated by graphviz version 2.40.1 (20161225.0304)
 -->
<!-- Title: pbuf_memcmp Pages: 1 -->
<svg width="262pt" height="28pt"
 viewBox="0.00 0.00 262.00 28.00" xmlns="http://www.w3.org/2000/svg" xmlns:xlink="http://www.w3.org/1999/xlink">
<g id="graph0" class="graph" transform="scale(1 1) rotate(0) translate(4 24)">
<title>pbuf_memcmp</title>
<polygon fill="#ffffff" stroke="transparent" points="-4,4 -4,-24 258,-24 258,4 -4,4"/>
<!-- Node153 -->
<g id="node1" class="node">
<title>Node153</title>
<polygon fill="#bfbfbf" stroke="#000000" points="0,-.5 0,-19.5 66,-19.5 66,-.5 0,-.5"/>
<text text-anchor="middle" x="33" y="-7.5" font-family="Helvetica,sans-Serif" font-size="10.00" fill="#000000">pbuf_memcmp</text>
</g>
<!-- Node154 -->
<g id="node2" class="node">
<title>Node154</title>
<g id="a_node2"><a xlink:href="pbuf_8c.html#ab5a23dd5534f69e34de05c624b91aa65" target="_top" xlink:title="pbuf_memfind">
<polygon fill="#ffffff" stroke="#000000" points="102,-.5 102,-19.5 166,-19.5 166,-.5 102,-.5"/>
<text text-anchor="middle" x="134" y="-7.5" font-family="Helvetica,sans-Serif" font-size="10.00" fill="#000000">pbuf_memfind</text>
</a>
</g>
</g>
<!-- Node153&#45;&gt;Node154 -->
<g id="edge1" class="edge">
<title>Node153&#45;&gt;Node154</title>
<path fill="none" stroke="#191970" d="M76.3257,-10C84.9033,-10 93.7627,-10 101.8868,-10"/>
<polygon fill="#191970" stroke="#191970" points="76.0712,-6.5001 66.0712,-10 76.0711,-13.5001 76.0712,-6.5001"/>
</g>
<!-- Node155 -->
<g id="node3" class="node">
<title>Node155</title>
<g id="a_node3"><a xlink:href="pbuf_8c.html#ad88642dbb9d8396e11c4da8d08854df7" target="_top" xlink:title="pbuf_strstr">
<polygon fill="#ffffff" stroke="#000000" points="202,-.5 202,-19.5 254,-19.5 254,-.5 202,-.5"/>
<text text-anchor="middle" x="228" y="-7.5" font-family="Helvetica,sans-Serif" font-size="10.00" fill="#000000">pbuf_strstr</text>
</a>
</g>
</g>
<!-- Node154&#45;&gt;Node155 -->
<g id="edge2" class="edge">
<title>Node154&#45;&gt;Node155</title>
<path fill="none" stroke="#191970" d="M176.2113,-10C184.9874,-10 193.9886,-10 201.9737,-10"/>
<polygon fill="#191970" stroke="#191970" points="176.0866,-6.5001 166.0866,-10 176.0865,-13.5001 176.0866,-6.5001"/>
</g>
</g>
</svg>
