<?xml version="1.0" encoding="UTF-8" standalone="no"?>
<!DOCTYPE svg PUBLIC "-//W3C//DTD SVG 1.1//EN"
 "http://www.w3.org/Graphics/SVG/1.1/DTD/svg11.dtd">
<!-- Generated by graphviz version 2.40.1 (20161225.0304)
 -->
<!-- Title: mqtt/proto.c Pages: 1 -->
<svg width="858pt" height="756pt"
 viewBox="0.00 0.00 857.50 756.00" xmlns="http://www.w3.org/2000/svg" xmlns:xlink="http://www.w3.org/1999/xlink">
<g id="graph0" class="graph" transform="scale(1 1) rotate(0) translate(4 752)">
<title>mqtt/proto.c</title>
<polygon fill="#ffffff" stroke="transparent" points="-4,4 -4,-752 853.5,-752 853.5,4 -4,4"/>
<!-- Node0 -->
<g id="node1" class="node">
<title>Node0</title>
<polygon fill="#bfbfbf" stroke="#000000" points="176,-728.5 176,-747.5 232,-747.5 232,-728.5 176,-728.5"/>
<text text-anchor="middle" x="204" y="-735.5" font-family="Helvetica,sans-Serif" font-size="10.00" fill="#000000">mqtt/proto.c</text>
</g>
<!-- Node1 -->
<g id="node2" class="node">
<title>Node1</title>
<g id="a_node2"><a xlink:href="proto_8h.html" target="_top" xlink:title="proto.h">
<polygon fill="#ffffff" stroke="#000000" points="160,-672.5 160,-691.5 200,-691.5 200,-672.5 160,-672.5"/>
<text text-anchor="middle" x="180" y="-679.5" font-family="Helvetica,sans-Serif" font-size="10.00" fill="#000000">proto.h</text>
</a>
</g>
</g>
<!-- Node0&#45;&gt;Node1 -->
<g id="edge1" class="edge">
<title>Node0&#45;&gt;Node1</title>
<path fill="none" stroke="#191970" d="M199.8195,-728.2455C196.619,-720.7776 192.104,-710.2427 188.1916,-701.1137"/>
<polygon fill="#191970" stroke="#191970" points="191.2888,-699.4554 184.1326,-691.6427 184.8548,-702.2129 191.2888,-699.4554"/>
</g>
<!-- Node4 -->
<g id="node5" class="node">
<title>Node4</title>
<g id="a_node5"><a xlink:href="ringbuf_8h.html" target="_top" xlink:title="ringbuf.h">
<polygon fill="#ffffff" stroke="#000000" points="207,-616.5 207,-635.5 253,-635.5 253,-616.5 207,-616.5"/>
<text text-anchor="middle" x="230" y="-623.5" font-family="Helvetica,sans-Serif" font-size="10.00" fill="#000000">ringbuf.h</text>
</a>
</g>
</g>
<!-- Node0&#45;&gt;Node4 -->
<g id="edge43" class="edge">
<title>Node0&#45;&gt;Node4</title>
<path fill="none" stroke="#191970" d="M206.2167,-728.4509C210.4765,-710.1013 219.8807,-669.5908 225.5035,-645.3693"/>
<polygon fill="#191970" stroke="#191970" points="228.9368,-646.0573 227.7889,-635.5249 222.1182,-644.4744 228.9368,-646.0573"/>
</g>
<!-- Node2 -->
<g id="node3" class="node">
<title>Node2</title>
<polygon fill="#ffffff" stroke="#bfbfbf" points="0,-504.5 0,-523.5 40,-523.5 40,-504.5 0,-504.5"/>
<text text-anchor="middle" x="20" y="-511.5" font-family="Helvetica,sans-Serif" font-size="10.00" fill="#000000">stdlib.h</text>
</g>
<!-- Node1&#45;&gt;Node2 -->
<g id="edge2" class="edge">
<title>Node1&#45;&gt;Node2</title>
<path fill="none" stroke="#191970" d="M170.9393,-672.4862C144.9901,-645.2396 70.1116,-566.6172 36.5806,-531.4096"/>
<polygon fill="#191970" stroke="#191970" points="38.791,-528.6555 29.3599,-523.8279 33.722,-533.4831 38.791,-528.6555"/>
</g>
<!-- Node3 -->
<g id="node4" class="node">
<title>Node3</title>
<g id="a_node4"><a xlink:href="typedef_8h.html" target="_top" xlink:title="typedef.h">
<polygon fill="#ffffff" stroke="#000000" points="184.5,-560.5 184.5,-579.5 231.5,-579.5 231.5,-560.5 184.5,-560.5"/>
<text text-anchor="middle" x="208" y="-567.5" font-family="Helvetica,sans-Serif" font-size="10.00" fill="#000000">typedef.h</text>
</a>
</g>
</g>
<!-- Node1&#45;&gt;Node3 -->
<g id="edge3" class="edge">
<title>Node1&#45;&gt;Node3</title>
<path fill="none" stroke="#191970" d="M182.3873,-672.4509C186.9747,-654.1013 197.1023,-613.5908 203.1577,-589.3693"/>
<polygon fill="#191970" stroke="#191970" points="206.5888,-590.0752 205.6188,-579.5249 199.7978,-588.3774 206.5888,-590.0752"/>
</g>
<!-- Node1&#45;&gt;Node4 -->
<g id="edge4" class="edge">
<title>Node1&#45;&gt;Node4</title>
<path fill="none" stroke="#191970" d="M188.7093,-672.2455C195.8073,-664.2958 206.0084,-652.8706 214.495,-643.3656"/>
<polygon fill="#191970" stroke="#191970" points="217.3411,-645.4331 221.3905,-635.6427 212.1195,-640.771 217.3411,-645.4331"/>
</g>
<!-- Node4&#45;&gt;Node3 -->
<g id="edge42" class="edge">
<title>Node4&#45;&gt;Node3</title>
<path fill="none" stroke="#191970" d="M226.1679,-616.2455C223.2341,-608.7776 219.0953,-598.2427 215.509,-589.1137"/>
<polygon fill="#191970" stroke="#191970" points="218.7024,-587.6704 211.7882,-579.6427 212.1871,-590.23 218.7024,-587.6704"/>
</g>
<!-- Node5 -->
<g id="node6" class="node">
<title>Node5</title>
<g id="a_node6"><a xlink:href="esp8266_8h.html" target="_top" xlink:title="esp8266.h">
<polygon fill="#ffffff" stroke="#000000" points="337,-560.5 337,-579.5 389,-579.5 389,-560.5 337,-560.5"/>
<text text-anchor="middle" x="363" y="-567.5" font-family="Helvetica,sans-Serif" font-size="10.00" fill="#000000">esp8266.h</text>
</a>
</g>
</g>
<!-- Node4&#45;&gt;Node5 -->
<g id="edge5" class="edge">
<title>Node4&#45;&gt;Node5</title>
<path fill="none" stroke="#191970" d="M252.8635,-616.3733C274.405,-607.3032 306.8838,-593.6279 330.9956,-583.4755"/>
<polygon fill="#191970" stroke="#191970" points="332.5767,-586.6075 340.4348,-579.5011 329.8603,-580.156 332.5767,-586.6075"/>
</g>
<!-- Node5&#45;&gt;Node2 -->
<g id="edge8" class="edge">
<title>Node5&#45;&gt;Node2</title>
<path fill="none" stroke="#191970" d="M336.6306,-567.8126C283.8376,-563.0786 161.3796,-550.3166 50.174,-523.9106"/>
<polygon fill="#191970" stroke="#191970" points="50.6808,-520.4323 40.1381,-521.4823 49.0345,-527.236 50.6808,-520.4323"/>
</g>
<!-- Node6 -->
<g id="node7" class="node">
<title>Node6</title>
<polygon fill="#ffffff" stroke="#bfbfbf" points="808.5,-504.5 808.5,-523.5 849.5,-523.5 849.5,-504.5 808.5,-504.5"/>
<text text-anchor="middle" x="829" y="-511.5" font-family="Helvetica,sans-Serif" font-size="10.00" fill="#000000">ctype.h</text>
</g>
<!-- Node5&#45;&gt;Node6 -->
<g id="edge6" class="edge">
<title>Node5&#45;&gt;Node6</title>
<path fill="none" stroke="#191970" d="M389.1106,-569.213C455.8823,-566.787 638.2601,-557.561 798.1671,-523.7384"/>
<polygon fill="#191970" stroke="#191970" points="799.1416,-527.1088 808.1803,-521.5814 797.6675,-520.2658 799.1416,-527.1088"/>
</g>
<!-- Node7 -->
<g id="node8" class="node">
<title>Node7</title>
<polygon fill="#ffffff" stroke="#bfbfbf" points="58.5,-504.5 58.5,-523.5 97.5,-523.5 97.5,-504.5 58.5,-504.5"/>
<text text-anchor="middle" x="78" y="-511.5" font-family="Helvetica,sans-Serif" font-size="10.00" fill="#000000">stdio.h</text>
</g>
<!-- Node5&#45;&gt;Node7 -->
<g id="edge7" class="edge">
<title>Node5&#45;&gt;Node7</title>
<path fill="none" stroke="#191970" d="M336.7957,-566.125C290.9285,-559.1366 193.2403,-543.3352 112,-524 110.541,-523.6528 109.0516,-523.281 107.5508,-522.8925"/>
<polygon fill="#191970" stroke="#191970" points="108.2536,-519.4557 97.6828,-520.1691 106.3913,-526.2034 108.2536,-519.4557"/>
</g>
<!-- Node8 -->
<g id="node9" class="node">
<title>Node8</title>
<polygon fill="#ffffff" stroke="#bfbfbf" points="151.5,-56.5 151.5,-75.5 192.5,-75.5 192.5,-56.5 151.5,-56.5"/>
<text text-anchor="middle" x="172" y="-63.5" font-family="Helvetica,sans-Serif" font-size="10.00" fill="#000000">string.h</text>
</g>
<!-- Node5&#45;&gt;Node8 -->
<g id="edge9" class="edge">
<title>Node5&#45;&gt;Node8</title>
<path fill="none" stroke="#191970" d="M336.9966,-568.7922C299.1715,-565.9363 228.0384,-556.3277 178,-524 146.6328,-503.735 126,-495.3439 126,-458 126,-458 126,-458 126,-178 126,-142.66 145.8391,-105.4332 159.4597,-84.0395"/>
<polygon fill="#191970" stroke="#191970" points="162.4179,-85.9114 165.0136,-75.6394 156.5788,-82.0507 162.4179,-85.9114"/>
</g>
<!-- Node9 -->
<g id="node10" class="node">
<title>Node9</title>
<g id="a_node10"><a xlink:href="c__types_8h.html" target="_top" xlink:title="c_types.h">
<polygon fill="#ffffff" stroke="#000000" points="520.5,-56.5 520.5,-75.5 569.5,-75.5 569.5,-56.5 520.5,-56.5"/>
<text text-anchor="middle" x="545" y="-63.5" font-family="Helvetica,sans-Serif" font-size="10.00" fill="#000000">c_types.h</text>
</a>
</g>
</g>
<!-- Node5&#45;&gt;Node9 -->
<g id="edge10" class="edge">
<title>Node5&#45;&gt;Node9</title>
<path fill="none" stroke="#191970" d="M389.0174,-568.8026C447.8423,-564.5583 586,-545.2976 586,-458 586,-458 586,-458 586,-178 586,-143.3444 568.4755,-106.1312 556.3408,-84.5174"/>
<polygon fill="#191970" stroke="#191970" points="559.2886,-82.6243 551.227,-75.7496 553.2419,-86.1511 559.2886,-82.6243"/>
</g>
<!-- Node12 -->
<g id="node13" class="node">
<title>Node12</title>
<g id="a_node13"><a xlink:href="ets__sys_8h.html" target="_top" xlink:title="ets_sys.h">
<polygon fill="#ffffff" stroke="#000000" points="486,-112.5 486,-131.5 534,-131.5 534,-112.5 486,-112.5"/>
<text text-anchor="middle" x="510" y="-119.5" font-family="Helvetica,sans-Serif" font-size="10.00" fill="#000000">ets_sys.h</text>
</a>
</g>
</g>
<!-- Node5&#45;&gt;Node12 -->
<g id="edge13" class="edge">
<title>Node5&#45;&gt;Node12</title>
<path fill="none" stroke="#191970" d="M389.1136,-566.4893C440.109,-558.0114 548,-531.4012 548,-458 548,-458 548,-458 548,-234 548,-199.6118 531.7366,-162.2832 520.489,-140.5791"/>
<polygon fill="#191970" stroke="#191970" points="523.431,-138.6605 515.607,-131.5166 517.2683,-141.9804 523.431,-138.6605"/>
</g>
<!-- Node14 -->
<g id="node15" class="node">
<title>Node14</title>
<g id="a_node15"><a xlink:href="gpio_8h.html" target="_top" xlink:title="gpio.h">
<polygon fill="#ffffff" stroke="#000000" points="192.5,-448.5 192.5,-467.5 229.5,-467.5 229.5,-448.5 192.5,-448.5"/>
<text text-anchor="middle" x="211" y="-455.5" font-family="Helvetica,sans-Serif" font-size="10.00" fill="#000000">gpio.h</text>
</a>
</g>
</g>
<!-- Node5&#45;&gt;Node14 -->
<g id="edge16" class="edge">
<title>Node5&#45;&gt;Node14</title>
<path fill="none" stroke="#191970" d="M350.0406,-560.4509C323.7914,-541.1094 264.1274,-497.1465 232.1584,-473.5904"/>
<polygon fill="#191970" stroke="#191970" points="234.0534,-470.6392 223.9266,-467.5249 229.901,-476.2746 234.0534,-470.6392"/>
</g>
<!-- Node15 -->
<g id="node16" class="node">
<title>Node15</title>
<g id="a_node16"><a xlink:href="sdk_2include_2mem_8h.html" target="_top" xlink:title="mem.h">
<polygon fill="#ffffff" stroke="#000000" points="614.5,-504.5 614.5,-523.5 653.5,-523.5 653.5,-504.5 614.5,-504.5"/>
<text text-anchor="middle" x="634" y="-511.5" font-family="Helvetica,sans-Serif" font-size="10.00" fill="#000000">mem.h</text>
</a>
</g>
</g>
<!-- Node5&#45;&gt;Node15 -->
<g id="edge17" class="edge">
<title>Node5&#45;&gt;Node15</title>
<path fill="none" stroke="#191970" d="M389.1257,-565.7594C432.9777,-558.4565 524.0507,-542.496 600,-524 601.4572,-523.6451 602.9451,-523.2672 604.4447,-522.8738"/>
<polygon fill="#191970" stroke="#191970" points="605.6103,-526.1826 614.3087,-520.1337 603.7367,-519.438 605.6103,-526.1826"/>
</g>
<!-- Node16 -->
<g id="node17" class="node">
<title>Node16</title>
<g id="a_node17"><a xlink:href="osapi_8h.html" target="_top" xlink:title="osapi.h">
<polygon fill="#ffffff" stroke="#000000" points="186.5,-112.5 186.5,-131.5 227.5,-131.5 227.5,-112.5 186.5,-112.5"/>
<text text-anchor="middle" x="207" y="-119.5" font-family="Helvetica,sans-Serif" font-size="10.00" fill="#000000">osapi.h</text>
</a>
</g>
</g>
<!-- Node5&#45;&gt;Node16 -->
<g id="edge18" class="edge">
<title>Node5&#45;&gt;Node16</title>
<path fill="none" stroke="#191970" d="M336.9842,-567.4457C283.0429,-560.5676 164,-536.4963 164,-458 164,-458 164,-458 164,-234 164,-199.1403 182.3793,-161.9899 195.1059,-140.444"/>
<polygon fill="#191970" stroke="#191970" points="198.2206,-142.0603 200.4692,-131.7069 192.2549,-138.3983 198.2206,-142.0603"/>
</g>
<!-- Node18 -->
<g id="node19" class="node">
<title>Node18</title>
<g id="a_node19"><a xlink:href="user__interface_8h.html" target="_top" xlink:title="user_interface.h">
<polygon fill="#ffffff" stroke="#000000" points="328,-504.5 328,-523.5 398,-523.5 398,-504.5 328,-504.5"/>
<text text-anchor="middle" x="363" y="-511.5" font-family="Helvetica,sans-Serif" font-size="10.00" fill="#000000">user_interface.h</text>
</a>
</g>
</g>
<!-- Node5&#45;&gt;Node18 -->
<g id="edge21" class="edge">
<title>Node5&#45;&gt;Node18</title>
<path fill="none" stroke="#191970" d="M363,-560.2455C363,-552.9382 363,-542.6944 363,-533.7046"/>
<polygon fill="#191970" stroke="#191970" points="366.5001,-533.6426 363,-523.6427 359.5001,-533.6427 366.5001,-533.6426"/>
</g>
<!-- Node29 -->
<g id="node30" class="node">
<title>Node29</title>
<g id="a_node30"><a xlink:href="upgrade_8h.html" target="_top" xlink:title="upgrade.h">
<polygon fill="#ffffff" stroke="#000000" points="672,-504.5 672,-523.5 722,-523.5 722,-504.5 672,-504.5"/>
<text text-anchor="middle" x="697" y="-511.5" font-family="Helvetica,sans-Serif" font-size="10.00" fill="#000000">upgrade.h</text>
</a>
</g>
</g>
<!-- Node5&#45;&gt;Node29 -->
<g id="edge40" class="edge">
<title>Node5&#45;&gt;Node29</title>
<path fill="none" stroke="#191970" d="M389.3026,-567.1679C440.1746,-561.4349 555.6887,-547.1742 661.9265,-524.0021"/>
<polygon fill="#191970" stroke="#191970" points="662.8398,-527.3847 671.8469,-521.8059 661.3267,-520.5502 662.8398,-527.3847"/>
</g>
<!-- Node30 -->
<g id="node31" class="node">
<title>Node30</title>
<g id="a_node31"><a xlink:href="platform_8h.html" target="_top" xlink:title="platform.h">
<polygon fill="#ffffff" stroke="#000000" points="740,-504.5 740,-523.5 790,-523.5 790,-504.5 740,-504.5"/>
<text text-anchor="middle" x="765" y="-511.5" font-family="Helvetica,sans-Serif" font-size="10.00" fill="#000000">platform.h</text>
</a>
</g>
</g>
<!-- Node5&#45;&gt;Node30 -->
<g id="edge41" class="edge">
<title>Node5&#45;&gt;Node30</title>
<path fill="none" stroke="#191970" d="M389.1148,-568.1942C448.2181,-563.7987 596.8063,-551.0157 729.9025,-523.9446"/>
<polygon fill="#191970" stroke="#191970" points="730.7796,-527.3374 739.864,-521.8853 729.3625,-520.4823 730.7796,-527.3374"/>
</g>
<!-- Node10 -->
<g id="node11" class="node">
<title>Node10</title>
<polygon fill="#ffffff" stroke="#bfbfbf" points="493.5,-.5 493.5,-19.5 534.5,-19.5 534.5,-.5 493.5,-.5"/>
<text text-anchor="middle" x="514" y="-7.5" font-family="Helvetica,sans-Serif" font-size="10.00" fill="#000000">stdint.h</text>
</g>
<!-- Node9&#45;&gt;Node10 -->
<g id="edge11" class="edge">
<title>Node9&#45;&gt;Node10</title>
<path fill="none" stroke="#191970" d="M539.6002,-56.2455C535.3773,-48.617 529.3827,-37.7881 524.2559,-28.5267"/>
<polygon fill="#191970" stroke="#191970" points="527.2432,-26.6965 519.3379,-19.6427 521.119,-30.0867 527.2432,-26.6965"/>
</g>
<!-- Node11 -->
<g id="node12" class="node">
<title>Node11</title>
<polygon fill="#ffffff" stroke="#bfbfbf" points="552.5,-.5 552.5,-19.5 599.5,-19.5 599.5,-.5 552.5,-.5"/>
<text text-anchor="middle" x="576" y="-7.5" font-family="Helvetica,sans-Serif" font-size="10.00" fill="#000000">stdbool.h</text>
</g>
<!-- Node9&#45;&gt;Node11 -->
<g id="edge12" class="edge">
<title>Node9&#45;&gt;Node11</title>
<path fill="none" stroke="#191970" d="M550.3998,-56.2455C554.6227,-48.617 560.6173,-37.7881 565.7441,-28.5267"/>
<polygon fill="#191970" stroke="#191970" points="568.881,-30.0867 570.6621,-19.6427 562.7568,-26.6965 568.881,-30.0867"/>
</g>
<!-- Node12&#45;&gt;Node9 -->
<g id="edge14" class="edge">
<title>Node12&#45;&gt;Node9</title>
<path fill="none" stroke="#191970" d="M516.0965,-112.2455C520.9145,-104.5367 527.7751,-93.5598 533.6032,-84.2348"/>
<polygon fill="#191970" stroke="#191970" points="536.6413,-85.9777 538.9733,-75.6427 530.7053,-82.2677 536.6413,-85.9777"/>
</g>
<!-- Node13 -->
<g id="node14" class="node">
<title>Node13</title>
<g id="a_node14"><a xlink:href="eagle__soc_8h.html" target="_top" xlink:title="eagle_soc.h">
<polygon fill="#ffffff" stroke="#000000" points="445.5,-56.5 445.5,-75.5 502.5,-75.5 502.5,-56.5 445.5,-56.5"/>
<text text-anchor="middle" x="474" y="-63.5" font-family="Helvetica,sans-Serif" font-size="10.00" fill="#000000">eagle_soc.h</text>
</a>
</g>
</g>
<!-- Node12&#45;&gt;Node13 -->
<g id="edge15" class="edge">
<title>Node12&#45;&gt;Node13</title>
<path fill="none" stroke="#191970" d="M503.7293,-112.2455C498.7736,-104.5367 491.717,-93.5598 485.7224,-84.2348"/>
<polygon fill="#191970" stroke="#191970" points="488.5506,-82.1618 480.1989,-75.6427 482.6624,-85.9471 488.5506,-82.1618"/>
</g>
<!-- Node16&#45;&gt;Node8 -->
<g id="edge19" class="edge">
<title>Node16&#45;&gt;Node8</title>
<path fill="none" stroke="#191970" d="M200.9035,-112.2455C196.0855,-104.5367 189.2249,-93.5598 183.3968,-84.2348"/>
<polygon fill="#191970" stroke="#191970" points="186.2947,-82.2677 178.0267,-75.6427 180.3587,-85.9777 186.2947,-82.2677"/>
</g>
<!-- Node17 -->
<g id="node18" class="node">
<title>Node17</title>
<polygon fill="#ffffff" stroke="#bfbfbf" points="234,-56.5 234,-75.5 296,-75.5 296,-56.5 234,-56.5"/>
<text text-anchor="middle" x="265" y="-63.5" font-family="Helvetica,sans-Serif" font-size="10.00" fill="#000000">user_config.h</text>
</g>
<!-- Node16&#45;&gt;Node17 -->
<g id="edge20" class="edge">
<title>Node16&#45;&gt;Node17</title>
<path fill="none" stroke="#191970" d="M217.1028,-112.2455C225.5028,-104.1352 237.6494,-92.4075 247.6084,-82.7919"/>
<polygon fill="#191970" stroke="#191970" points="250.25,-85.1066 255.0129,-75.6427 245.3878,-80.0707 250.25,-85.1066"/>
</g>
<!-- Node18&#45;&gt;Node14 -->
<g id="edge39" class="edge">
<title>Node18&#45;&gt;Node14</title>
<path fill="none" stroke="#191970" d="M336.8703,-504.3733C309.6553,-494.3467 267.1652,-478.6924 239.2035,-468.3908"/>
<polygon fill="#191970" stroke="#191970" points="240.2078,-465.0309 229.6144,-464.8579 237.7879,-471.5993 240.2078,-465.0309"/>
</g>
<!-- Node18&#45;&gt;Node17 -->
<g id="edge37" class="edge">
<title>Node18&#45;&gt;Node17</title>
<path fill="none" stroke="#191970" d="M366.1894,-504.0767C369.9116,-491.0893 375.0701,-467.6667 371,-448 350.3257,-348.1026 288,-336.0143 288,-234 288,-234 288,-234 288,-178 288,-144.906 278.2452,-107.4151 271.4412,-85.2901"/>
<polygon fill="#191970" stroke="#191970" points="274.7706,-84.2105 268.3937,-75.7497 268.1026,-86.3405 274.7706,-84.2105"/>
</g>
<!-- Node19 -->
<g id="node20" class="node">
<title>Node19</title>
<g id="a_node20"><a xlink:href="os__type_8h.html" target="_top" xlink:title="os_type.h">
<polygon fill="#ffffff" stroke="#000000" points="470.5,-392.5 470.5,-411.5 519.5,-411.5 519.5,-392.5 470.5,-392.5"/>
<text text-anchor="middle" x="495" y="-399.5" font-family="Helvetica,sans-Serif" font-size="10.00" fill="#000000">os_type.h</text>
</a>
</g>
</g>
<!-- Node18&#45;&gt;Node19 -->
<g id="edge22" class="edge">
<title>Node18&#45;&gt;Node19</title>
<path fill="none" stroke="#191970" d="M398.0885,-505.9816C431.9119,-497.4835 479.5997,-483.2111 491,-468 500.7782,-454.9533 500.9375,-436.0677 499.1415,-421.8382"/>
<polygon fill="#191970" stroke="#191970" points="502.5345,-420.9083 497.4282,-411.6251 495.6309,-422.0664 502.5345,-420.9083"/>
</g>
<!-- Node20 -->
<g id="node21" class="node">
<title>Node20</title>
<g id="a_node21"><a xlink:href="esp-open-lwip_2include_2lwip_2ip__addr_8h.html" target="_top" xlink:title="lwip/ip_addr.h">
<polygon fill="#ffffff" stroke="#000000" points="418.5,-448.5 418.5,-467.5 481.5,-467.5 481.5,-448.5 418.5,-448.5"/>
<text text-anchor="middle" x="450" y="-455.5" font-family="Helvetica,sans-Serif" font-size="10.00" fill="#000000">lwip/ip_addr.h</text>
</a>
</g>
</g>
<!-- Node18&#45;&gt;Node20 -->
<g id="edge24" class="edge">
<title>Node18&#45;&gt;Node20</title>
<path fill="none" stroke="#191970" d="M378.1542,-504.2455C391.5027,-495.6534 411.1586,-483.0014 426.5383,-473.1018"/>
<polygon fill="#191970" stroke="#191970" points="428.5051,-475.9982 435.0194,-467.6427 424.7164,-470.1121 428.5051,-475.9982"/>
</g>
<!-- Node27 -->
<g id="node28" class="node">
<title>Node27</title>
<g id="a_node28"><a xlink:href="esp-open-sdk_2sdk_2include_2queue_8h.html" target="_top" xlink:title="queue.h">
<polygon fill="#ffffff" stroke="#000000" points="248,-448.5 248,-467.5 292,-467.5 292,-448.5 248,-448.5"/>
<text text-anchor="middle" x="270" y="-455.5" font-family="Helvetica,sans-Serif" font-size="10.00" fill="#000000">queue.h</text>
</a>
</g>
</g>
<!-- Node18&#45;&gt;Node27 -->
<g id="edge36" class="edge">
<title>Node18&#45;&gt;Node27</title>
<path fill="none" stroke="#191970" d="M346.8006,-504.2455C332.3982,-495.5731 311.1268,-482.7645 294.6201,-472.825"/>
<polygon fill="#191970" stroke="#191970" points="296.386,-469.8028 286.0137,-467.6427 292.775,-475.7996 296.386,-469.8028"/>
</g>
<!-- Node28 -->
<g id="node29" class="node">
<title>Node28</title>
<g id="a_node29"><a xlink:href="spi__flash_8h.html" target="_top" xlink:title="spi_flash.h">
<polygon fill="#ffffff" stroke="#000000" points="310,-448.5 310,-467.5 362,-467.5 362,-448.5 310,-448.5"/>
<text text-anchor="middle" x="336" y="-455.5" font-family="Helvetica,sans-Serif" font-size="10.00" fill="#000000">spi_flash.h</text>
</a>
</g>
</g>
<!-- Node18&#45;&gt;Node28 -->
<g id="edge38" class="edge">
<title>Node18&#45;&gt;Node28</title>
<path fill="none" stroke="#191970" d="M358.297,-504.2455C354.6576,-496.6973 349.5076,-486.0158 345.0738,-476.8197"/>
<polygon fill="#191970" stroke="#191970" points="348.1449,-475.1303 340.6491,-467.6427 341.8395,-478.1704 348.1449,-475.1303"/>
</g>
<!-- Node19&#45;&gt;Node12 -->
<g id="edge23" class="edge">
<title>Node19&#45;&gt;Node12</title>
<path fill="none" stroke="#191970" d="M497.1491,-392.4693C501.2968,-373.2151 510,-328.2552 510,-290 510,-290 510,-290 510,-234 510,-201.7116 510,-164.1872 510,-141.8048"/>
<polygon fill="#191970" stroke="#191970" points="513.5001,-141.5883 510,-131.5884 506.5001,-141.5884 513.5001,-141.5883"/>
</g>
<!-- Node21 -->
<g id="node22" class="node">
<title>Node21</title>
<g id="a_node22"><a xlink:href="opt_8h.html" target="_top" xlink:title="lwip/opt.h">
<polygon fill="#ffffff" stroke="#000000" points="371,-336.5 371,-355.5 419,-355.5 419,-336.5 371,-336.5"/>
<text text-anchor="middle" x="395" y="-343.5" font-family="Helvetica,sans-Serif" font-size="10.00" fill="#000000">lwip/opt.h</text>
</a>
</g>
</g>
<!-- Node20&#45;&gt;Node21 -->
<g id="edge25" class="edge">
<title>Node20&#45;&gt;Node21</title>
<path fill="none" stroke="#191970" d="M431.7167,-448.4509C418.8142,-440.5902 402.5359,-428.1269 395,-412 388.2543,-397.5641 388.8373,-379.3364 390.7774,-365.6962"/>
<polygon fill="#191970" stroke="#191970" points="394.2854,-365.9605 392.5953,-355.5014 387.3941,-364.7317 394.2854,-365.9605"/>
</g>
<!-- Node26 -->
<g id="node27" class="node">
<title>Node26</title>
<g id="a_node27"><a xlink:href="def_8h.html" target="_top" xlink:title="lwip/def.h">
<polygon fill="#ffffff" stroke="#000000" points="404,-392.5 404,-411.5 452,-411.5 452,-392.5 404,-392.5"/>
<text text-anchor="middle" x="428" y="-399.5" font-family="Helvetica,sans-Serif" font-size="10.00" fill="#000000">lwip/def.h</text>
</a>
</g>
</g>
<!-- Node20&#45;&gt;Node26 -->
<g id="edge33" class="edge">
<title>Node20&#45;&gt;Node26</title>
<path fill="none" stroke="#191970" d="M446.1679,-448.2455C443.2341,-440.7776 439.0953,-430.2427 435.509,-421.1137"/>
<polygon fill="#191970" stroke="#191970" points="438.7024,-419.6704 431.7882,-411.6427 432.1871,-422.23 438.7024,-419.6704"/>
</g>
<!-- Node22 -->
<g id="node23" class="node">
<title>Node22</title>
<g id="a_node23"><a xlink:href="lwipopts_8h.html" target="_top" xlink:title="lwipopts.h">
<polygon fill="#ffffff" stroke="#000000" points="316,-280.5 316,-299.5 366,-299.5 366,-280.5 316,-280.5"/>
<text text-anchor="middle" x="341" y="-287.5" font-family="Helvetica,sans-Serif" font-size="10.00" fill="#000000">lwipopts.h</text>
</a>
</g>
</g>
<!-- Node21&#45;&gt;Node22 -->
<g id="edge26" class="edge">
<title>Node21&#45;&gt;Node22</title>
<path fill="none" stroke="#191970" d="M385.5939,-336.2455C377.8507,-328.2155 366.688,-316.6394 357.4682,-307.0781"/>
<polygon fill="#191970" stroke="#191970" points="359.7591,-304.4117 350.2983,-299.6427 354.7202,-309.2706 359.7591,-304.4117"/>
</g>
<!-- Node23 -->
<g id="node24" class="node">
<title>Node23</title>
<g id="a_node24"><a xlink:href="esp-open-sdk_2esp-open-lwip_2include_2lwip_2debug_8h.html" target="_top" xlink:title="lwip/debug.h">
<polygon fill="#ffffff" stroke="#000000" points="384.5,-280.5 384.5,-299.5 443.5,-299.5 443.5,-280.5 384.5,-280.5"/>
<text text-anchor="middle" x="414" y="-287.5" font-family="Helvetica,sans-Serif" font-size="10.00" fill="#000000">lwip/debug.h</text>
</a>
</g>
</g>
<!-- Node21&#45;&gt;Node23 -->
<g id="edge27" class="edge">
<title>Node21&#45;&gt;Node23</title>
<path fill="none" stroke="#191970" d="M398.3095,-336.2455C400.8433,-328.7776 404.4177,-318.2427 407.515,-309.1137"/>
<polygon fill="#191970" stroke="#191970" points="410.8298,-310.237 410.7284,-299.6427 404.2009,-307.9879 410.8298,-310.237"/>
</g>
<!-- Node24 -->
<g id="node25" class="node">
<title>Node24</title>
<g id="a_node25"><a xlink:href="arch_8h.html" target="_top" xlink:title="lwip/arch.h">
<polygon fill="#ffffff" stroke="#000000" points="430,-224.5 430,-243.5 482,-243.5 482,-224.5 430,-224.5"/>
<text text-anchor="middle" x="456" y="-231.5" font-family="Helvetica,sans-Serif" font-size="10.00" fill="#000000">lwip/arch.h</text>
</a>
</g>
</g>
<!-- Node23&#45;&gt;Node24 -->
<g id="edge28" class="edge">
<title>Node23&#45;&gt;Node24</title>
<path fill="none" stroke="#191970" d="M421.3158,-280.2455C427.2179,-272.3761 435.6742,-261.101 442.7594,-251.6542"/>
<polygon fill="#191970" stroke="#191970" points="445.568,-253.7427 448.768,-243.6427 439.9679,-249.5427 445.568,-253.7427"/>
</g>
<!-- Node25 -->
<g id="node26" class="node">
<title>Node25</title>
<g id="a_node26"><a xlink:href="cc_8h.html" target="_top" xlink:title="arch/cc.h">
<polygon fill="#ffffff" stroke="#000000" points="432.5,-168.5 432.5,-187.5 479.5,-187.5 479.5,-168.5 432.5,-168.5"/>
<text text-anchor="middle" x="456" y="-175.5" font-family="Helvetica,sans-Serif" font-size="10.00" fill="#000000">arch/cc.h</text>
</a>
</g>
</g>
<!-- Node24&#45;&gt;Node25 -->
<g id="edge29" class="edge">
<title>Node24&#45;&gt;Node25</title>
<path fill="none" stroke="#191970" d="M456,-224.2455C456,-216.9382 456,-206.6944 456,-197.7046"/>
<polygon fill="#191970" stroke="#191970" points="459.5001,-197.6426 456,-187.6427 452.5001,-197.6427 459.5001,-197.6426"/>
</g>
<!-- Node25&#45;&gt;Node9 -->
<g id="edge30" class="edge">
<title>Node25&#45;&gt;Node9</title>
<path fill="none" stroke="#191970" d="M457.091,-168.1264C459.0369,-154.3539 464.1829,-129.1414 477,-112 486.8475,-98.8301 501.6307,-88.1878 514.9004,-80.4698"/>
<polygon fill="#191970" stroke="#191970" points="516.6873,-83.4816 523.7662,-75.5986 513.3165,-77.3466 516.6873,-83.4816"/>
</g>
<!-- Node25&#45;&gt;Node12 -->
<g id="edge31" class="edge">
<title>Node25&#45;&gt;Node12</title>
<path fill="none" stroke="#191970" d="M465.4061,-168.2455C473.1493,-160.2155 484.312,-148.6394 493.5318,-139.0781"/>
<polygon fill="#191970" stroke="#191970" points="496.2798,-141.2706 500.7017,-131.6427 491.2409,-136.4117 496.2798,-141.2706"/>
</g>
<!-- Node25&#45;&gt;Node16 -->
<g id="edge32" class="edge">
<title>Node25&#45;&gt;Node16</title>
<path fill="none" stroke="#191970" d="M432.1248,-172.6305C386.6685,-162.4074 287.7591,-140.1627 237.5526,-128.8713"/>
<polygon fill="#191970" stroke="#191970" points="238.1394,-125.4159 227.6151,-126.6363 236.6034,-132.2453 238.1394,-125.4159"/>
</g>
<!-- Node26&#45;&gt;Node21 -->
<g id="edge35" class="edge">
<title>Node26&#45;&gt;Node21</title>
<path fill="none" stroke="#191970" d="M422.2518,-392.2455C417.7565,-384.617 411.3752,-373.7881 405.9175,-364.5267"/>
<polygon fill="#191970" stroke="#191970" points="408.7747,-362.4811 400.6823,-355.6427 402.7439,-366.035 408.7747,-362.4811"/>
</g>
<!-- Node26&#45;&gt;Node24 -->
<g id="edge34" class="edge">
<title>Node26&#45;&gt;Node24</title>
<path fill="none" stroke="#191970" d="M431.0576,-392.2784C436.5653,-374.2827 448.0409,-334.4691 453,-300 455.1982,-284.721 455.9143,-267.2667 456.0991,-254.1467"/>
<polygon fill="#191970" stroke="#191970" points="459.6002,-253.9131 456.1486,-243.8963 452.6002,-253.8792 459.6002,-253.9131"/>
</g>
</g>
</svg>
