<?xml version="1.0" encoding="UTF-8" standalone="no"?>
<!DOCTYPE svg PUBLIC "-//W3C//DTD SVG 1.1//EN"
 "http://www.w3.org/Graphics/SVG/1.1/DTD/svg11.dtd">
<!-- Generated by graphviz version 2.40.1 (20161225.0304)
 -->
<!-- Title: QUEUE_Gets Pages: 1 -->
<svg width="449pt" height="218pt"
 viewBox="0.00 0.00 449.00 218.00" xmlns="http://www.w3.org/2000/svg" xmlns:xlink="http://www.w3.org/1999/xlink">
<g id="graph0" class="graph" transform="scale(1 1) rotate(0) translate(4 214)">
<title>QUEUE_Gets</title>
<polygon fill="#ffffff" stroke="transparent" points="-4,4 -4,-214 445,-214 445,4 -4,4"/>
<!-- Node5 -->
<g id="node1" class="node">
<title>Node5</title>
<polygon fill="#bfbfbf" stroke="#000000" points="0,-76.5 0,-95.5 63,-95.5 63,-76.5 0,-76.5"/>
<text text-anchor="middle" x="31.5" y="-83.5" font-family="Helvetica,sans-Serif" font-size="10.00" fill="#000000">QUEUE_Gets</text>
</g>
<!-- Node6 -->
<g id="node2" class="node">
<title>Node6</title>
<g id="a_node2"><a xlink:href="mqtt_8c.html#a086502e2dd36681a7fb4d9a9018cfc88" target="_top" xlink:title="MQTT ping function. ">
<polygon fill="#ffffff" stroke="#000000" points="113,-152.5 113,-171.5 170,-171.5 170,-152.5 113,-152.5"/>
<text text-anchor="middle" x="141.5" y="-159.5" font-family="Helvetica,sans-Serif" font-size="10.00" fill="#000000">MQTT_Ping</text>
</a>
</g>
</g>
<!-- Node5&#45;&gt;Node6 -->
<g id="edge1" class="edge">
<title>Node5&#45;&gt;Node6</title>
<path fill="none" stroke="#191970" d="M48.6423,-102.8385C61.6898,-115.0445 80.4995,-131.3797 99,-143 104.6122,-146.5251 110.9896,-149.7413 117.0662,-152.4849"/>
<polygon fill="#191970" stroke="#191970" points="50.969,-100.2209 41.3173,-95.8512 46.1374,-105.2861 50.969,-100.2209"/>
</g>
<!-- Node7 -->
<g id="node3" class="node">
<title>Node7</title>
<g id="a_node3"><a xlink:href="mqtt_8c.html#a848a6701c4c7ec3432e38ea57c003aad" target="_top" xlink:title="MQTT publish function. ">
<polygon fill="#ffffff" stroke="#000000" points="108,-114.5 108,-133.5 175,-133.5 175,-114.5 108,-114.5"/>
<text text-anchor="middle" x="141.5" y="-121.5" font-family="Helvetica,sans-Serif" font-size="10.00" fill="#000000">MQTT_Publish</text>
</a>
</g>
</g>
<!-- Node5&#45;&gt;Node7 -->
<g id="edge2" class="edge">
<title>Node5&#45;&gt;Node7</title>
<path fill="none" stroke="#191970" d="M69.0499,-98.9718C83.7049,-104.0344 100.2039,-109.7341 113.7512,-114.4141"/>
<polygon fill="#191970" stroke="#191970" points="69.8524,-95.5461 59.2576,-95.589 67.5667,-102.1624 69.8524,-95.5461"/>
</g>
<!-- Node15 -->
<g id="node11" class="node">
<title>Node15</title>
<g id="a_node11"><a xlink:href="mqtt_8c.html#a86f8adfe29d6ec8bb5070fd030540d2f" target="_top" xlink:title="MQTT subscibe function. ">
<polygon fill="#ffffff" stroke="#000000" points="104,-76.5 104,-95.5 179,-95.5 179,-76.5 104,-76.5"/>
<text text-anchor="middle" x="141.5" y="-83.5" font-family="Helvetica,sans-Serif" font-size="10.00" fill="#000000">MQTT_Subscribe</text>
</a>
</g>
</g>
<!-- Node5&#45;&gt;Node15 -->
<g id="edge11" class="edge">
<title>Node5&#45;&gt;Node15</title>
<path fill="none" stroke="#191970" d="M73.1912,-86C83.2266,-86 93.8909,-86 103.7356,-86"/>
<polygon fill="#191970" stroke="#191970" points="73.0216,-82.5001 63.0216,-86 73.0216,-89.5001 73.0216,-82.5001"/>
</g>
<!-- Node16 -->
<g id="node12" class="node">
<title>Node16</title>
<g id="a_node12"><a xlink:href="mqtt_8c.html#a9d88fa6efb9163d4dbf9dc750a8d4ed0" target="_top" xlink:title="MQTT_Task">
<polygon fill="#ffffff" stroke="#000000" points="112.5,-38.5 112.5,-57.5 170.5,-57.5 170.5,-38.5 112.5,-38.5"/>
<text text-anchor="middle" x="141.5" y="-45.5" font-family="Helvetica,sans-Serif" font-size="10.00" fill="#000000">MQTT_Task</text>
</a>
</g>
</g>
<!-- Node5&#45;&gt;Node16 -->
<g id="edge12" class="edge">
<title>Node5&#45;&gt;Node16</title>
<path fill="none" stroke="#191970" d="M69.0499,-73.0282C83.7049,-67.9656 100.2039,-62.2659 113.7512,-57.5859"/>
<polygon fill="#191970" stroke="#191970" points="67.5667,-69.8376 59.2576,-76.411 69.8524,-76.4539 67.5667,-69.8376"/>
</g>
<!-- Node18 -->
<g id="node14" class="node">
<title>Node18</title>
<g id="a_node14"><a xlink:href="mqtt_8c.html#a7f28cd912dae4c1386c10026a267b579" target="_top" xlink:title="MQTT un&#45;subscibe function. ">
<polygon fill="#ffffff" stroke="#000000" points="99,-.5 99,-19.5 184,-19.5 184,-.5 99,-.5"/>
<text text-anchor="middle" x="141.5" y="-7.5" font-family="Helvetica,sans-Serif" font-size="10.00" fill="#000000">MQTT_UnSubscribe</text>
</a>
</g>
</g>
<!-- Node5&#45;&gt;Node18 -->
<g id="edge14" class="edge">
<title>Node5&#45;&gt;Node18</title>
<path fill="none" stroke="#191970" d="M48.6423,-69.1615C61.6898,-56.9555 80.4995,-40.6203 99,-29 104.6122,-25.4749 110.9896,-22.2587 117.0662,-19.5151"/>
<polygon fill="#191970" stroke="#191970" points="46.1374,-66.7139 41.3173,-76.1488 50.969,-71.7791 46.1374,-66.7139"/>
</g>
<!-- Node8 -->
<g id="node4" class="node">
<title>Node8</title>
<g id="a_node4"><a xlink:href="en61107__request_8c.html#aa3b162cf5364986ea19e831ac2b18f76" target="_top" xlink:title="en61107_received_task">
<polygon fill="#ffffff" stroke="#000000" points="220,-190.5 220,-209.5 316,-209.5 316,-190.5 220,-190.5"/>
<text text-anchor="middle" x="268" y="-197.5" font-family="Helvetica,sans-Serif" font-size="10.00" fill="#000000">en61107_received_task</text>
</a>
</g>
</g>
<!-- Node7&#45;&gt;Node8 -->
<g id="edge3" class="edge">
<title>Node7&#45;&gt;Node8</title>
<path fill="none" stroke="#191970" d="M176.537,-138.298C179.1321,-139.7662 181.6506,-141.3354 184,-143 202.9828,-156.4494 200.7292,-167.9665 220,-181 225.4937,-184.7156 231.8221,-187.8707 238.0436,-190.4788"/>
<polygon fill="#191970" stroke="#191970" points="178.0502,-135.1408 167.5532,-133.7038 174.863,-141.3732 178.0502,-135.1408"/>
</g>
<!-- Node10 -->
<g id="node6" class="node">
<title>Node10</title>
<g id="a_node6"><a xlink:href="en61107__request_8h.html#a7384d014eb9e833f64ecf4a9f86f87be" target="_top" xlink:title="en61107_request_send">
<polygon fill="#ffffff" stroke="#000000" points="220.5,-152.5 220.5,-171.5 315.5,-171.5 315.5,-152.5 220.5,-152.5"/>
<text text-anchor="middle" x="268" y="-159.5" font-family="Helvetica,sans-Serif" font-size="10.00" fill="#000000">en61107_request_send</text>
</a>
</g>
</g>
<!-- Node7&#45;&gt;Node10 -->
<g id="edge5" class="edge">
<title>Node7&#45;&gt;Node10</title>
<path fill="none" stroke="#191970" d="M183.2294,-136.5353C200.4382,-141.7048 220.0601,-147.5991 236.0889,-152.4141"/>
<polygon fill="#191970" stroke="#191970" points="184.0055,-133.114 173.4213,-133.589 181.9916,-139.8181 184.0055,-133.114"/>
</g>
<!-- Node11 -->
<g id="node7" class="node">
<title>Node11</title>
<g id="a_node7"><a xlink:href="kmp__request_8c.html#a3f6b790a06b933b78f40ade5e9a16131" target="_top" xlink:title="kmp_received_task">
<polygon fill="#ffffff" stroke="#000000" points="227.5,-114.5 227.5,-133.5 308.5,-133.5 308.5,-114.5 227.5,-114.5"/>
<text text-anchor="middle" x="268" y="-121.5" font-family="Helvetica,sans-Serif" font-size="10.00" fill="#000000">kmp_received_task</text>
</a>
</g>
</g>
<!-- Node7&#45;&gt;Node11 -->
<g id="edge6" class="edge">
<title>Node7&#45;&gt;Node11</title>
<path fill="none" stroke="#191970" d="M185.1471,-124C198.7315,-124 213.6545,-124 227.0478,-124"/>
<polygon fill="#191970" stroke="#191970" points="185.0676,-120.5001 175.0676,-124 185.0675,-127.5001 185.0676,-120.5001"/>
</g>
<!-- Node13 -->
<g id="node9" class="node">
<title>Node13</title>
<g id="a_node9"><a xlink:href="kmp__request_8h.html#a3b022dcdc832786eb06126b5e6879604" target="_top" xlink:title="kmp_request_send">
<polygon fill="#ffffff" stroke="#000000" points="228,-76.5 228,-95.5 308,-95.5 308,-76.5 228,-76.5"/>
<text text-anchor="middle" x="268" y="-83.5" font-family="Helvetica,sans-Serif" font-size="10.00" fill="#000000">kmp_request_send</text>
</a>
</g>
</g>
<!-- Node7&#45;&gt;Node13 -->
<g id="edge8" class="edge">
<title>Node7&#45;&gt;Node13</title>
<path fill="none" stroke="#191970" d="M183.2294,-111.4647C200.4382,-106.2952 220.0601,-100.4009 236.0889,-95.5859"/>
<polygon fill="#191970" stroke="#191970" points="181.9916,-108.1819 173.4213,-114.411 184.0055,-114.886 181.9916,-108.1819"/>
</g>
<!-- Node9 -->
<g id="node5" class="node">
<title>Node9</title>
<g id="a_node5"><a xlink:href="en61107__request_8h.html#acd43242675a3f25e7c3b530eac9d8b3a" target="_top" xlink:title="en61107_request_init">
<polygon fill="#ffffff" stroke="#000000" points="352,-190.5 352,-209.5 441,-209.5 441,-190.5 352,-190.5"/>
<text text-anchor="middle" x="396.5" y="-197.5" font-family="Helvetica,sans-Serif" font-size="10.00" fill="#000000">en61107_request_init</text>
</a>
</g>
</g>
<!-- Node8&#45;&gt;Node9 -->
<g id="edge4" class="edge">
<title>Node8&#45;&gt;Node9</title>
<path fill="none" stroke="#191970" d="M326.4911,-200C335.0049,-200 343.6547,-200 351.8359,-200"/>
<polygon fill="#191970" stroke="#191970" points="326.2143,-196.5001 316.2143,-200 326.2142,-203.5001 326.2143,-196.5001"/>
</g>
<!-- Node12 -->
<g id="node8" class="node">
<title>Node12</title>
<g id="a_node8"><a xlink:href="kmp__request_8h.html#a048753ff9d6b448e2dcd8c85db0d6873" target="_top" xlink:title="kmp_request_init">
<polygon fill="#ffffff" stroke="#000000" points="359.5,-120.5 359.5,-139.5 433.5,-139.5 433.5,-120.5 359.5,-120.5"/>
<text text-anchor="middle" x="396.5" y="-127.5" font-family="Helvetica,sans-Serif" font-size="10.00" fill="#000000">kmp_request_init</text>
</a>
</g>
</g>
<!-- Node11&#45;&gt;Node12 -->
<g id="edge7" class="edge">
<title>Node11&#45;&gt;Node12</title>
<path fill="none" stroke="#191970" d="M318.7607,-126.3701C332.2375,-126.9994 346.5435,-127.6674 359.1599,-128.2565"/>
<polygon fill="#191970" stroke="#191970" points="318.8106,-122.8688 308.6582,-125.8984 318.484,-129.8611 318.8106,-122.8688"/>
</g>
<!-- Node14 -->
<g id="node10" class="node">
<title>Node14</title>
<g id="a_node10"><a xlink:href="kmp__request_8c.html#a0977a4640a97d389ac3b0fef0ba7a9b6" target="_top" xlink:title="kmp_receive_timeout\l_timer_func">
<polygon fill="#ffffff" stroke="#000000" points="352.5,-71 352.5,-101 440.5,-101 440.5,-71 352.5,-71"/>
<text text-anchor="start" x="360.5" y="-89" font-family="Helvetica,sans-Serif" font-size="10.00" fill="#000000">kmp_receive_timeout</text>
<text text-anchor="middle" x="396.5" y="-78" font-family="Helvetica,sans-Serif" font-size="10.00" fill="#000000">_timer_func</text>
</a>
</g>
</g>
<!-- Node13&#45;&gt;Node14 -->
<g id="edge9" class="edge">
<title>Node13&#45;&gt;Node14</title>
<path fill="none" stroke="#191970" d="M318.3879,-79.3916C329.5926,-79.1594 341.3879,-79.2128 352.3211,-79.5517"/>
<polygon fill="#191970" stroke="#191970" points="318.1995,-75.8955 308.3056,-79.6852 318.4033,-82.8926 318.1995,-75.8955"/>
</g>
<!-- Node14&#45;&gt;Node13 -->
<g id="edge10" class="edge">
<title>Node14&#45;&gt;Node13</title>
<path fill="none" stroke="#191970" d="M342.0797,-92.6793C330.7548,-92.8434 319.0126,-92.7219 308.3056,-92.3148"/>
<polygon fill="#191970" stroke="#191970" points="342.4026,-96.173 352.3211,-92.4483 342.2447,-89.1748 342.4026,-96.173"/>
</g>
<!-- Node17 -->
<g id="node13" class="node">
<title>Node17</title>
<g id="a_node13"><a xlink:href="mqtt_8c.html#a25cb7ac079d1d119250dac075c45acf1" target="_top" xlink:title="MQTT initialization mqtt client function. ">
<polygon fill="#ffffff" stroke="#000000" points="232.5,-38.5 232.5,-57.5 303.5,-57.5 303.5,-38.5 232.5,-38.5"/>
<text text-anchor="middle" x="268" y="-45.5" font-family="Helvetica,sans-Serif" font-size="10.00" fill="#000000">MQTT_InitClient</text>
</a>
</g>
</g>
<!-- Node16&#45;&gt;Node17 -->
<g id="edge13" class="edge">
<title>Node16&#45;&gt;Node17</title>
<path fill="none" stroke="#191970" d="M180.9079,-48C197.3519,-48 216.3147,-48 232.3391,-48"/>
<polygon fill="#191970" stroke="#191970" points="180.5217,-44.5001 170.5217,-48 180.5216,-51.5001 180.5217,-44.5001"/>
</g>
</g>
</svg>
