<?xml version="1.0" encoding="UTF-8" standalone="no"?>
<!DOCTYPE svg PUBLIC "-//W3C//DTD SVG 1.1//EN"
 "http://www.w3.org/Graphics/SVG/1.1/DTD/svg11.dtd">
<!-- Generated by graphviz version 2.40.1 (20161225.0304)
 -->
<!-- Title: RINGBUF_Put Pages: 1 -->
<svg width="866pt" height="218pt"
 viewBox="0.00 0.00 866.00 218.00" xmlns="http://www.w3.org/2000/svg" xmlns:xlink="http://www.w3.org/1999/xlink">
<g id="graph0" class="graph" transform="scale(1 1) rotate(0) translate(4 214)">
<title>RINGBUF_Put</title>
<polygon fill="#ffffff" stroke="transparent" points="-4,4 -4,-214 862,-214 862,4 -4,4"/>
<!-- Node22 -->
<g id="node1" class="node">
<title>Node22</title>
<polygon fill="#bfbfbf" stroke="#000000" points="0,-76.5 0,-95.5 66,-95.5 66,-76.5 0,-76.5"/>
<text text-anchor="middle" x="33" y="-83.5" font-family="Helvetica,sans-Serif" font-size="10.00" fill="#000000">RINGBUF_Put</text>
</g>
<!-- Node23 -->
<g id="node2" class="node">
<title>Node23</title>
<g id="a_node2"><a xlink:href="proto_8c.html#aeeb0162a48bf377e468e5fca672a5df1" target="_top" xlink:title="PROTO_AddRb">
<polygon fill="#ffffff" stroke="#000000" points="102,-76.5 102,-95.5 172,-95.5 172,-76.5 102,-76.5"/>
<text text-anchor="middle" x="137" y="-83.5" font-family="Helvetica,sans-Serif" font-size="10.00" fill="#000000">PROTO_AddRb</text>
</a>
</g>
</g>
<!-- Node22&#45;&gt;Node23 -->
<g id="edge1" class="edge">
<title>Node22&#45;&gt;Node23</title>
<path fill="none" stroke="#191970" d="M76.3761,-86C84.9071,-86 93.7567,-86 101.9716,-86"/>
<polygon fill="#191970" stroke="#191970" points="76.1922,-82.5001 66.1922,-86 76.1922,-89.5001 76.1922,-82.5001"/>
</g>
<!-- Node24 -->
<g id="node3" class="node">
<title>Node24</title>
<g id="a_node3"><a xlink:href="queue_8c.html#a0a04f14d06c5c3ee302764c5f3d7dc0c" target="_top" xlink:title="QUEUE_Puts">
<polygon fill="#ffffff" stroke="#000000" points="208,-76.5 208,-95.5 270,-95.5 270,-76.5 208,-76.5"/>
<text text-anchor="middle" x="239" y="-83.5" font-family="Helvetica,sans-Serif" font-size="10.00" fill="#000000">QUEUE_Puts</text>
</a>
</g>
</g>
<!-- Node23&#45;&gt;Node24 -->
<g id="edge2" class="edge">
<title>Node23&#45;&gt;Node24</title>
<path fill="none" stroke="#191970" d="M182.1539,-86C190.8588,-86 199.7941,-86 207.927,-86"/>
<polygon fill="#191970" stroke="#191970" points="182.1026,-82.5001 172.1026,-86 182.1026,-89.5001 182.1026,-82.5001"/>
</g>
<!-- Node25 -->
<g id="node4" class="node">
<title>Node25</title>
<g id="a_node4"><a xlink:href="mqtt_8c.html#a086502e2dd36681a7fb4d9a9018cfc88" target="_top" xlink:title="MQTT ping function. ">
<polygon fill="#ffffff" stroke="#000000" points="320,-152.5 320,-171.5 377,-171.5 377,-152.5 320,-152.5"/>
<text text-anchor="middle" x="348.5" y="-159.5" font-family="Helvetica,sans-Serif" font-size="10.00" fill="#000000">MQTT_Ping</text>
</a>
</g>
</g>
<!-- Node24&#45;&gt;Node25 -->
<g id="edge3" class="edge">
<title>Node24&#45;&gt;Node25</title>
<path fill="none" stroke="#191970" d="M255.9941,-102.8482C268.9343,-115.059 287.6007,-131.3961 306,-143 311.6057,-146.5354 317.9808,-149.7553 324.0572,-152.4991"/>
<polygon fill="#191970" stroke="#191970" points="258.3628,-100.2702 248.7305,-95.8576 253.5087,-105.3138 258.3628,-100.2702"/>
</g>
<!-- Node26 -->
<g id="node5" class="node">
<title>Node26</title>
<g id="a_node5"><a xlink:href="mqtt_8c.html#a848a6701c4c7ec3432e38ea57c003aad" target="_top" xlink:title="MQTT publish function. ">
<polygon fill="#ffffff" stroke="#000000" points="315,-114.5 315,-133.5 382,-133.5 382,-114.5 315,-114.5"/>
<text text-anchor="middle" x="348.5" y="-121.5" font-family="Helvetica,sans-Serif" font-size="10.00" fill="#000000">MQTT_Publish</text>
</a>
</g>
</g>
<!-- Node24&#45;&gt;Node26 -->
<g id="edge4" class="edge">
<title>Node24&#45;&gt;Node26</title>
<path fill="none" stroke="#191970" d="M276.3792,-98.9718C290.9676,-104.0344 307.3917,-109.7341 320.8774,-114.4141"/>
<polygon fill="#191970" stroke="#191970" points="277.2263,-95.561 266.6315,-95.589 274.9313,-102.1741 277.2263,-95.561"/>
</g>
<!-- Node34 -->
<g id="node13" class="node">
<title>Node34</title>
<g id="a_node13"><a xlink:href="mqtt_8c.html#a86f8adfe29d6ec8bb5070fd030540d2f" target="_top" xlink:title="MQTT subscibe function. ">
<polygon fill="#ffffff" stroke="#000000" points="311,-76.5 311,-95.5 386,-95.5 386,-76.5 311,-76.5"/>
<text text-anchor="middle" x="348.5" y="-83.5" font-family="Helvetica,sans-Serif" font-size="10.00" fill="#000000">MQTT_Subscribe</text>
</a>
</g>
</g>
<!-- Node24&#45;&gt;Node34 -->
<g id="edge13" class="edge">
<title>Node24&#45;&gt;Node34</title>
<path fill="none" stroke="#191970" d="M280.221,-86C290.229,-86 300.8806,-86 310.7205,-86"/>
<polygon fill="#191970" stroke="#191970" points="280.0854,-82.5001 270.0854,-86 280.0854,-89.5001 280.0854,-82.5001"/>
</g>
<!-- Node35 -->
<g id="node14" class="node">
<title>Node35</title>
<g id="a_node14"><a xlink:href="mqtt_8c.html#af470856972320b9c02da9fcb6f419fd0" target="_top" xlink:title="Client received callback function. ">
<polygon fill="#ffffff" stroke="#000000" points="308,-38.5 308,-57.5 389,-57.5 389,-38.5 308,-38.5"/>
<text text-anchor="middle" x="348.5" y="-45.5" font-family="Helvetica,sans-Serif" font-size="10.00" fill="#000000">mqtt_tcpclient_recv</text>
</a>
</g>
</g>
<!-- Node24&#45;&gt;Node35 -->
<g id="edge14" class="edge">
<title>Node24&#45;&gt;Node35</title>
<path fill="none" stroke="#191970" d="M276.3792,-73.0282C290.9676,-67.9656 307.3917,-62.2659 320.8774,-57.5859"/>
<polygon fill="#191970" stroke="#191970" points="274.9313,-69.8259 266.6315,-76.411 277.2263,-76.439 274.9313,-69.8259"/>
</g>
<!-- Node40 -->
<g id="node19" class="node">
<title>Node40</title>
<g id="a_node19"><a xlink:href="mqtt_8c.html#a7f28cd912dae4c1386c10026a267b579" target="_top" xlink:title="MQTT un&#45;subscibe function. ">
<polygon fill="#ffffff" stroke="#000000" points="306,-.5 306,-19.5 391,-19.5 391,-.5 306,-.5"/>
<text text-anchor="middle" x="348.5" y="-7.5" font-family="Helvetica,sans-Serif" font-size="10.00" fill="#000000">MQTT_UnSubscribe</text>
</a>
</g>
</g>
<!-- Node24&#45;&gt;Node40 -->
<g id="edge19" class="edge">
<title>Node24&#45;&gt;Node40</title>
<path fill="none" stroke="#191970" d="M255.9941,-69.1518C268.9343,-56.941 287.6007,-40.6039 306,-29 311.6057,-25.4646 317.9808,-22.2447 324.0572,-19.5009"/>
<polygon fill="#191970" stroke="#191970" points="253.5087,-66.6862 248.7305,-76.1424 258.3628,-71.7298 253.5087,-66.6862"/>
</g>
<!-- Node27 -->
<g id="node6" class="node">
<title>Node27</title>
<g id="a_node6"><a xlink:href="en61107__request_8c.html#aa3b162cf5364986ea19e831ac2b18f76" target="_top" xlink:title="en61107_received_task">
<polygon fill="#ffffff" stroke="#000000" points="431.5,-190.5 431.5,-209.5 527.5,-209.5 527.5,-190.5 431.5,-190.5"/>
<text text-anchor="middle" x="479.5" y="-197.5" font-family="Helvetica,sans-Serif" font-size="10.00" fill="#000000">en61107_received_task</text>
</a>
</g>
</g>
<!-- Node26&#45;&gt;Node27 -->
<g id="edge5" class="edge">
<title>Node26&#45;&gt;Node27</title>
<path fill="none" stroke="#191970" d="M383.537,-138.298C386.1321,-139.7662 388.6506,-141.3354 391,-143 409.9828,-156.4494 407.538,-168.2538 427,-181 432.7573,-184.7706 439.3593,-187.9111 445.8947,-190.4811"/>
<polygon fill="#191970" stroke="#191970" points="385.0502,-135.1408 374.5532,-133.7038 381.863,-141.3732 385.0502,-135.1408"/>
</g>
<!-- Node29 -->
<g id="node8" class="node">
<title>Node29</title>
<g id="a_node8"><a xlink:href="en61107__request_8h.html#a7384d014eb9e833f64ecf4a9f86f87be" target="_top" xlink:title="en61107_request_send">
<polygon fill="#ffffff" stroke="#000000" points="432,-152.5 432,-171.5 527,-171.5 527,-152.5 432,-152.5"/>
<text text-anchor="middle" x="479.5" y="-159.5" font-family="Helvetica,sans-Serif" font-size="10.00" fill="#000000">en61107_request_send</text>
</a>
</g>
</g>
<!-- Node26&#45;&gt;Node29 -->
<g id="edge7" class="edge">
<title>Node26&#45;&gt;Node29</title>
<path fill="none" stroke="#191970" d="M391.2148,-136.3906C409.1547,-141.5945 429.6996,-147.5541 446.4537,-152.4141"/>
<polygon fill="#191970" stroke="#191970" points="392.136,-133.0136 381.5568,-133.589 390.1858,-139.7364 392.136,-133.0136"/>
</g>
<!-- Node30 -->
<g id="node9" class="node">
<title>Node30</title>
<g id="a_node9"><a xlink:href="kmp__request_8c.html#a3f6b790a06b933b78f40ade5e9a16131" target="_top" xlink:title="kmp_received_task">
<polygon fill="#ffffff" stroke="#000000" points="439,-114.5 439,-133.5 520,-133.5 520,-114.5 439,-114.5"/>
<text text-anchor="middle" x="479.5" y="-121.5" font-family="Helvetica,sans-Serif" font-size="10.00" fill="#000000">kmp_received_task</text>
</a>
</g>
</g>
<!-- Node26&#45;&gt;Node30 -->
<g id="edge8" class="edge">
<title>Node26&#45;&gt;Node30</title>
<path fill="none" stroke="#191970" d="M392.3235,-124C407.3566,-124 424.1067,-124 438.8752,-124"/>
<polygon fill="#191970" stroke="#191970" points="392.2358,-120.5001 382.2358,-124 392.2357,-127.5001 392.2358,-120.5001"/>
</g>
<!-- Node32 -->
<g id="node11" class="node">
<title>Node32</title>
<g id="a_node11"><a xlink:href="kmp__request_8h.html#a3b022dcdc832786eb06126b5e6879604" target="_top" xlink:title="kmp_request_send">
<polygon fill="#ffffff" stroke="#000000" points="439.5,-76.5 439.5,-95.5 519.5,-95.5 519.5,-76.5 439.5,-76.5"/>
<text text-anchor="middle" x="479.5" y="-83.5" font-family="Helvetica,sans-Serif" font-size="10.00" fill="#000000">kmp_request_send</text>
</a>
</g>
</g>
<!-- Node26&#45;&gt;Node32 -->
<g id="edge10" class="edge">
<title>Node26&#45;&gt;Node32</title>
<path fill="none" stroke="#191970" d="M391.2148,-111.6094C409.1547,-106.4055 429.6996,-100.4459 446.4537,-95.5859"/>
<polygon fill="#191970" stroke="#191970" points="390.1858,-108.2636 381.5568,-114.411 392.136,-114.9864 390.1858,-108.2636"/>
</g>
<!-- Node28 -->
<g id="node7" class="node">
<title>Node28</title>
<g id="a_node7"><a xlink:href="en61107__request_8h.html#acd43242675a3f25e7c3b530eac9d8b3a" target="_top" xlink:title="en61107_request_init">
<polygon fill="#ffffff" stroke="#000000" points="568,-190.5 568,-209.5 657,-209.5 657,-190.5 568,-190.5"/>
<text text-anchor="middle" x="612.5" y="-197.5" font-family="Helvetica,sans-Serif" font-size="10.00" fill="#000000">en61107_request_init</text>
</a>
</g>
</g>
<!-- Node27&#45;&gt;Node28 -->
<g id="edge6" class="edge">
<title>Node27&#45;&gt;Node28</title>
<path fill="none" stroke="#191970" d="M537.8131,-200C547.8184,-200 558.0748,-200 567.6577,-200"/>
<polygon fill="#191970" stroke="#191970" points="537.5161,-196.5001 527.5161,-200 537.516,-203.5001 537.5161,-196.5001"/>
</g>
<!-- Node31 -->
<g id="node10" class="node">
<title>Node31</title>
<g id="a_node10"><a xlink:href="kmp__request_8h.html#a048753ff9d6b448e2dcd8c85db0d6873" target="_top" xlink:title="kmp_request_init">
<polygon fill="#ffffff" stroke="#000000" points="575.5,-120.5 575.5,-139.5 649.5,-139.5 649.5,-120.5 575.5,-120.5"/>
<text text-anchor="middle" x="612.5" y="-127.5" font-family="Helvetica,sans-Serif" font-size="10.00" fill="#000000">kmp_request_init</text>
</a>
</g>
</g>
<!-- Node30&#45;&gt;Node31 -->
<g id="edge9" class="edge">
<title>Node30&#45;&gt;Node31</title>
<path fill="none" stroke="#191970" d="M530.2711,-126.2904C545.2423,-126.9658 561.3417,-127.6921 575.2918,-128.3214"/>
<polygon fill="#191970" stroke="#191970" points="530.2747,-122.7871 520.1271,-125.8328 529.9591,-129.78 530.2747,-122.7871"/>
</g>
<!-- Node33 -->
<g id="node12" class="node">
<title>Node33</title>
<g id="a_node12"><a xlink:href="kmp__request_8c.html#a0977a4640a97d389ac3b0fef0ba7a9b6" target="_top" xlink:title="kmp_receive_timeout\l_timer_func">
<polygon fill="#ffffff" stroke="#000000" points="568.5,-71 568.5,-101 656.5,-101 656.5,-71 568.5,-71"/>
<text text-anchor="start" x="576.5" y="-89" font-family="Helvetica,sans-Serif" font-size="10.00" fill="#000000">kmp_receive_timeout</text>
<text text-anchor="middle" x="612.5" y="-78" font-family="Helvetica,sans-Serif" font-size="10.00" fill="#000000">_timer_func</text>
</a>
</g>
</g>
<!-- Node32&#45;&gt;Node33 -->
<g id="edge11" class="edge">
<title>Node32&#45;&gt;Node33</title>
<path fill="none" stroke="#191970" d="M530.0741,-79.4251C542.622,-79.1443 555.9737,-79.2012 568.1956,-79.5959"/>
<polygon fill="#191970" stroke="#191970" points="529.6536,-75.9362 519.7653,-79.7404 529.8677,-82.9329 529.6536,-75.9362"/>
</g>
<!-- Node33&#45;&gt;Node32 -->
<g id="edge12" class="edge">
<title>Node33&#45;&gt;Node32</title>
<path fill="none" stroke="#191970" d="M558.0868,-92.6499C545.2689,-92.8643 531.831,-92.7342 519.7653,-92.2596"/>
<polygon fill="#191970" stroke="#191970" points="558.2837,-96.1463 568.1956,-92.4041 558.1134,-89.1483 558.2837,-96.1463"/>
</g>
<!-- Node36 -->
<g id="node15" class="node">
<title>Node36</title>
<g id="a_node15"><a xlink:href="mqtt_8c.html#a36ecd969af1b9c87856f01be064a98cc" target="_top" xlink:title="Tcp client connect success callback function. ">
<polygon fill="#ffffff" stroke="#000000" points="427,-35.5 427,-54.5 532,-54.5 532,-35.5 427,-35.5"/>
<text text-anchor="middle" x="479.5" y="-42.5" font-family="Helvetica,sans-Serif" font-size="10.00" fill="#000000">mqtt_tcpclient_connect_cb</text>
</a>
</g>
</g>
<!-- Node35&#45;&gt;Node36 -->
<g id="edge15" class="edge">
<title>Node35&#45;&gt;Node36</title>
<path fill="none" stroke="#191970" d="M399.5032,-46.832C408.4381,-46.6274 417.7519,-46.4141 426.7334,-46.2084"/>
<polygon fill="#191970" stroke="#191970" points="399.1483,-43.3391 389.2311,-47.0672 399.3087,-50.3373 399.1483,-43.3391"/>
</g>
<!-- Node37 -->
<g id="node16" class="node">
<title>Node37</title>
<g id="a_node16"><a xlink:href="mqtt_8c.html#ad34b681cb2f7473d8fc786c7ed468db5" target="_top" xlink:title="Begin connect to MQTT broker. ">
<polygon fill="#ffffff" stroke="#000000" points="577.5,-32.5 577.5,-51.5 647.5,-51.5 647.5,-32.5 577.5,-32.5"/>
<text text-anchor="middle" x="612.5" y="-39.5" font-family="Helvetica,sans-Serif" font-size="10.00" fill="#000000">MQTT_Connect</text>
</a>
</g>
</g>
<!-- Node36&#45;&gt;Node37 -->
<g id="edge16" class="edge">
<title>Node36&#45;&gt;Node37</title>
<path fill="none" stroke="#191970" d="M542.1828,-43.5861C554.3177,-43.3124 566.6227,-43.0348 577.4743,-42.7901"/>
<polygon fill="#191970" stroke="#191970" points="541.9836,-40.0896 532.0651,-43.8143 542.1415,-47.0878 541.9836,-40.0896"/>
</g>
<!-- Node38 -->
<g id="node17" class="node">
<title>Node38</title>
<g id="a_node17"><a xlink:href="mqtt_8c.html#a9d88fa6efb9163d4dbf9dc750a8d4ed0" target="_top" xlink:title="MQTT_Task">
<polygon fill="#ffffff" stroke="#000000" points="693,-32.5 693,-51.5 751,-51.5 751,-32.5 693,-32.5"/>
<text text-anchor="middle" x="722" y="-39.5" font-family="Helvetica,sans-Serif" font-size="10.00" fill="#000000">MQTT_Task</text>
</a>
</g>
</g>
<!-- Node37&#45;&gt;Node38 -->
<g id="edge17" class="edge">
<title>Node37&#45;&gt;Node38</title>
<path fill="none" stroke="#191970" d="M657.8746,-42C669.6354,-42 681.991,-42 692.683,-42"/>
<polygon fill="#191970" stroke="#191970" points="657.7493,-38.5001 647.7492,-42 657.7492,-45.5001 657.7493,-38.5001"/>
</g>
<!-- Node39 -->
<g id="node18" class="node">
<title>Node39</title>
<g id="a_node18"><a xlink:href="mqtt_8c.html#a25cb7ac079d1d119250dac075c45acf1" target="_top" xlink:title="MQTT initialization mqtt client function. ">
<polygon fill="#ffffff" stroke="#000000" points="787,-32.5 787,-51.5 858,-51.5 858,-32.5 787,-32.5"/>
<text text-anchor="middle" x="822.5" y="-39.5" font-family="Helvetica,sans-Serif" font-size="10.00" fill="#000000">MQTT_InitClient</text>
</a>
</g>
</g>
<!-- Node38&#45;&gt;Node39 -->
<g id="edge18" class="edge">
<title>Node38&#45;&gt;Node39</title>
<path fill="none" stroke="#191970" d="M761.0779,-42C769.52,-42 778.4052,-42 786.7137,-42"/>
<polygon fill="#191970" stroke="#191970" points="761.0688,-38.5001 751.0688,-42 761.0687,-45.5001 761.0688,-38.5001"/>
</g>
</g>
</svg>
