<?xml version="1.0" encoding="UTF-8" standalone="no"?>
<!DOCTYPE svg PUBLIC "-//W3C//DTD SVG 1.1//EN"
 "http://www.w3.org/Graphics/SVG/1.1/DTD/svg11.dtd">
<!-- Generated by graphviz version 2.40.1 (20161225.0304)
 -->
<!-- Title: sdk/include/espconn.h Pages: 1 -->
<svg width="494pt" height="84pt"
 viewBox="0.00 0.00 493.50 84.00" xmlns="http://www.w3.org/2000/svg" xmlns:xlink="http://www.w3.org/1999/xlink">
<g id="graph0" class="graph" transform="scale(1 1) rotate(0) translate(4 80)">
<title>sdk/include/espconn.h</title>
<polygon fill="#ffffff" stroke="transparent" points="-4,4 -4,-80 489.5,-80 489.5,4 -4,4"/>
<!-- Node1 -->
<g id="node1" class="node">
<title>Node1</title>
<polygon fill="#bfbfbf" stroke="#000000" points="180.5,-56.5 180.5,-75.5 271.5,-75.5 271.5,-56.5 180.5,-56.5"/>
<text text-anchor="middle" x="226" y="-63.5" font-family="Helvetica,sans-Serif" font-size="10.00" fill="#000000">sdk/include/espconn.h</text>
</g>
<!-- Node2 -->
<g id="node2" class="node">
<title>Node2</title>
<g id="a_node2"><a xlink:href="wifi_8c.html" target="_top" xlink:title="modules/wifi.c">
<polygon fill="#ffffff" stroke="#000000" points="0,-.5 0,-19.5 64,-19.5 64,-.5 0,-.5"/>
<text text-anchor="middle" x="32" y="-7.5" font-family="Helvetica,sans-Serif" font-size="10.00" fill="#000000">modules/wifi.c</text>
</a>
</g>
</g>
<!-- Node1&#45;&gt;Node2 -->
<g id="edge1" class="edge">
<title>Node1&#45;&gt;Node2</title>
<path fill="none" stroke="#191970" d="M182.9411,-53.5706C147.0658,-43.2149 96.7576,-28.6929 64.27,-19.315"/>
<polygon fill="#191970" stroke="#191970" points="182.0718,-56.9625 192.6502,-56.3733 184.0132,-50.2371 182.0718,-56.9625"/>
</g>
<!-- Node3 -->
<g id="node3" class="node">
<title>Node3</title>
<g id="a_node3"><a xlink:href="mqtt_8c.html" target="_top" xlink:title="mqtt/mqtt.c">
<polygon fill="#ffffff" stroke="#000000" points="82,-.5 82,-19.5 136,-19.5 136,-.5 82,-.5"/>
<text text-anchor="middle" x="109" y="-7.5" font-family="Helvetica,sans-Serif" font-size="10.00" fill="#000000">mqtt/mqtt.c</text>
</a>
</g>
</g>
<!-- Node1&#45;&gt;Node3 -->
<g id="edge2" class="edge">
<title>Node1&#45;&gt;Node3</title>
<path fill="none" stroke="#191970" d="M196.6958,-51.9741C175.512,-41.8348 147.4597,-28.408 128.8506,-19.5011"/>
<polygon fill="#191970" stroke="#191970" points="195.3559,-55.2129 205.887,-56.3733 198.378,-48.8989 195.3559,-55.2129"/>
</g>
<!-- Node4 -->
<g id="node4" class="node">
<title>Node4</title>
<g id="a_node4"><a xlink:href="captdns_8c.html" target="_top" xlink:title="user/captdns.c">
<polygon fill="#ffffff" stroke="#000000" points="154.5,-.5 154.5,-19.5 219.5,-19.5 219.5,-.5 154.5,-.5"/>
<text text-anchor="middle" x="187" y="-7.5" font-family="Helvetica,sans-Serif" font-size="10.00" fill="#000000">user/captdns.c</text>
</a>
</g>
</g>
<!-- Node1&#45;&gt;Node4 -->
<g id="edge3" class="edge">
<title>Node1&#45;&gt;Node4</title>
<path fill="none" stroke="#191970" d="M213.4092,-47.9209C206.8605,-38.5176 199.1176,-27.3997 193.7154,-19.6427"/>
<polygon fill="#191970" stroke="#191970" points="210.6196,-50.0397 219.2067,-56.2455 216.3639,-46.0392 210.6196,-50.0397"/>
</g>
<!-- Node5 -->
<g id="node5" class="node">
<title>Node5</title>
<g id="a_node5"><a xlink:href="httpd_8c.html" target="_top" xlink:title="user/httpd.c">
<polygon fill="#ffffff" stroke="#000000" points="238,-.5 238,-19.5 294,-19.5 294,-.5 238,-.5"/>
<text text-anchor="middle" x="266" y="-7.5" font-family="Helvetica,sans-Serif" font-size="10.00" fill="#000000">user/httpd.c</text>
</a>
</g>
</g>
<!-- Node1&#45;&gt;Node5 -->
<g id="edge4" class="edge">
<title>Node1&#45;&gt;Node5</title>
<path fill="none" stroke="#191970" d="M238.9136,-47.9209C245.6303,-38.5176 253.5717,-27.3997 259.1124,-19.6427"/>
<polygon fill="#191970" stroke="#191970" points="235.9318,-46.0738 232.9675,-56.2455 241.628,-50.1425 235.9318,-46.0738"/>
</g>
<!-- Node6 -->
<g id="node6" class="node">
<title>Node6</title>
<g id="a_node6"><a xlink:href="httpdespfs_8c.html" target="_top" xlink:title="user/httpdespfs.c">
<polygon fill="#ffffff" stroke="#000000" points="312,-.5 312,-19.5 386,-19.5 386,-.5 312,-.5"/>
<text text-anchor="middle" x="349" y="-7.5" font-family="Helvetica,sans-Serif" font-size="10.00" fill="#000000">user/httpdespfs.c</text>
</a>
</g>
</g>
<!-- Node1&#45;&gt;Node6 -->
<g id="edge5" class="edge">
<title>Node1&#45;&gt;Node6</title>
<path fill="none" stroke="#191970" d="M256.5065,-52.1109C278.8112,-41.9559 308.4799,-28.4482 328.1315,-19.5011"/>
<polygon fill="#191970" stroke="#191970" points="254.7953,-49.0442 247.1445,-56.3733 257.6959,-55.415 254.7953,-49.0442"/>
</g>
<!-- Node7 -->
<g id="node7" class="node">
<title>Node7</title>
<g id="a_node7"><a xlink:href="mesh_8h.html" target="_top" xlink:title="sdk/include/mesh.h">
<polygon fill="#ffffff" stroke="#000000" points="404.5,-.5 404.5,-19.5 485.5,-19.5 485.5,-.5 404.5,-.5"/>
<text text-anchor="middle" x="445" y="-7.5" font-family="Helvetica,sans-Serif" font-size="10.00" fill="#000000">sdk/include/mesh.h</text>
</a>
</g>
</g>
<!-- Node1&#45;&gt;Node7 -->
<g id="edge6" class="edge">
<title>Node1&#45;&gt;Node7</title>
<path fill="none" stroke="#191970" d="M273.5108,-53.8511C313.8102,-43.5462 370.8148,-28.9697 407.8438,-19.5011"/>
<polygon fill="#191970" stroke="#191970" points="272.4686,-50.5049 263.6474,-56.3733 274.2028,-57.2867 272.4686,-50.5049"/>
</g>
</g>
</svg>
