<?xml version="1.0" encoding="UTF-8" standalone="no"?>
<!DOCTYPE svg PUBLIC "-//W3C//DTD SVG 1.1//EN"
 "http://www.w3.org/Graphics/SVG/1.1/DTD/svg11.dtd">
<!-- Generated by graphviz version 2.40.1 (20161225.0304)
 -->
<!-- Title: espconn_sendto Pages: 1 -->
<svg width="873pt" height="313pt"
 viewBox="0.00 0.00 873.00 313.00" xmlns="http://www.w3.org/2000/svg" xmlns:xlink="http://www.w3.org/1999/xlink">
<g id="graph0" class="graph" transform="scale(1 1) rotate(0) translate(4 309)">
<title>espconn_sendto</title>
<polygon fill="#ffffff" stroke="transparent" points="-4,4 -4,-309 869,-309 869,4 -4,4"/>
<!-- Node211 -->
<g id="node1" class="node">
<title>Node211</title>
<polygon fill="#bfbfbf" stroke="#000000" points="0,-171.5 0,-190.5 72,-190.5 72,-171.5 0,-171.5"/>
<text text-anchor="middle" x="36" y="-178.5" font-family="Helvetica,sans-Serif" font-size="10.00" fill="#000000">espconn_sendto</text>
</g>
<!-- Node212 -->
<g id="node2" class="node">
<title>Node212</title>
<g id="a_node2"><a xlink:href="captdns_8c.html#ab898071398b359603a35c202e9c65f3b" target="_top" xlink:title="__attribute__">
<polygon fill="#ffffff" stroke="#000000" points="129,-228.5 129,-247.5 189,-247.5 189,-228.5 129,-228.5"/>
<text text-anchor="middle" x="159" y="-235.5" font-family="Helvetica,sans-Serif" font-size="10.00" fill="#000000">__attribute__</text>
</a>
</g>
</g>
<!-- Node211&#45;&gt;Node212 -->
<g id="edge1" class="edge">
<title>Node211&#45;&gt;Node212</title>
<path fill="none" stroke="#191970" d="M52.5711,-190.5309C66.9721,-198.6224 88.5221,-210.2755 108,-219 112.4544,-220.9952 117.1877,-222.9588 121.9059,-224.8224"/>
<polygon fill="#191970" stroke="#191970" points="120.8851,-228.1792 131.4755,-228.485 123.3873,-221.6417 120.8851,-228.1792"/>
</g>
<!-- Node213 -->
<g id="node3" class="node">
<title>Node213</title>
<g id="a_node3"><a xlink:href="espconn_8c.html#a2d001a99fea2fce497e392259cf01700" target="_top" xlink:title="espconn_find_connection">
<polygon fill="#ffffff" stroke="#000000" points="108,-190.5 108,-209.5 210,-209.5 210,-190.5 108,-190.5"/>
<text text-anchor="middle" x="159" y="-197.5" font-family="Helvetica,sans-Serif" font-size="10.00" fill="#000000">espconn_find_connection</text>
</a>
</g>
</g>
<!-- Node211&#45;&gt;Node213 -->
<g id="edge2" class="edge">
<title>Node211&#45;&gt;Node213</title>
<path fill="none" stroke="#191970" d="M72.2388,-186.5979C80.3737,-187.8545 89.2223,-189.2213 98.0556,-190.5858"/>
<polygon fill="#191970" stroke="#191970" points="97.5662,-194.0517 107.9833,-192.1194 98.6349,-187.1337 97.5662,-194.0517"/>
</g>
<!-- Node214 -->
<g id="node4" class="node">
<title>Node214</title>
<g id="a_node4"><a xlink:href="espconn_8c.html#acd3f1a74cab83e02797bdb8d22b8f732" target="_top" xlink:title="espconn_send">
<polygon fill="#ffffff" stroke="#000000" points="126.5,-152.5 126.5,-171.5 191.5,-171.5 191.5,-152.5 126.5,-152.5"/>
<text text-anchor="middle" x="159" y="-159.5" font-family="Helvetica,sans-Serif" font-size="10.00" fill="#000000">espconn_send</text>
</a>
</g>
</g>
<!-- Node211&#45;&gt;Node214 -->
<g id="edge3" class="edge">
<title>Node211&#45;&gt;Node214</title>
<path fill="none" stroke="#191970" d="M72.2388,-175.4021C86.0383,-173.2705 101.8916,-170.8216 116.2401,-168.6052"/>
<polygon fill="#191970" stroke="#191970" points="117.0228,-172.0259 126.3713,-167.0402 115.9541,-165.1079 117.0228,-172.0259"/>
</g>
<!-- Node215 -->
<g id="node5" class="node">
<title>Node215</title>
<g id="a_node5"><a xlink:href="espconn__udp_8h.html#a48d2c0b2c80b094235633a05c586ca07" target="_top" xlink:title="espconn_udp_sendto">
<polygon fill="#ffffff" stroke="#000000" points="115,-114.5 115,-133.5 203,-133.5 203,-114.5 115,-114.5"/>
<text text-anchor="middle" x="159" y="-121.5" font-family="Helvetica,sans-Serif" font-size="10.00" fill="#000000">espconn_udp_sendto</text>
</a>
</g>
</g>
<!-- Node211&#45;&gt;Node215 -->
<g id="edge4" class="edge">
<title>Node211&#45;&gt;Node215</title>
<path fill="none" stroke="#191970" d="M52.5711,-171.4691C66.9721,-163.3776 88.5221,-151.7245 108,-143 112.4544,-141.0048 117.1877,-139.0412 121.9059,-137.1776"/>
<polygon fill="#191970" stroke="#191970" points="123.3873,-140.3583 131.4755,-133.515 120.8851,-133.8208 123.3873,-140.3583"/>
</g>
<!-- Node216 -->
<g id="node6" class="node">
<title>Node216</title>
<g id="a_node6"><a xlink:href="pbuf_8h.html#ac6efc2aaeddfea6c95729dc86f785ba4" target="_top" xlink:title="pbuf_alloc">
<polygon fill="#ffffff" stroke="#000000" points="501,-209.5 501,-228.5 552,-228.5 552,-209.5 501,-209.5"/>
<text text-anchor="middle" x="526.5" y="-216.5" font-family="Helvetica,sans-Serif" font-size="10.00" fill="#000000">pbuf_alloc</text>
</a>
</g>
</g>
<!-- Node215&#45;&gt;Node216 -->
<g id="edge5" class="edge">
<title>Node215&#45;&gt;Node216</title>
<path fill="none" stroke="#191970" d="M194.1349,-133.5675C199.7935,-136.067 205.3207,-139.1696 210,-143 233.4771,-162.2177 220.4031,-184.7122 246,-201 321.9649,-249.3379 434.1443,-237.3464 490.8701,-226.8804"/>
<polygon fill="#191970" stroke="#191970" points="491.6431,-230.2958 500.7955,-224.9588 490.3125,-223.4234 491.6431,-230.2958"/>
</g>
<!-- Node225 -->
<g id="node15" class="node">
<title>Node225</title>
<g id="a_node15"><a xlink:href="wlan__lwip__if_8h.html#a7e70d2ab3f2caed091644850737a363e" target="_top" xlink:title="eagle_lwip_getif">
<polygon fill="#ffffff" stroke="#000000" points="491.5,-114.5 491.5,-133.5 561.5,-133.5 561.5,-114.5 491.5,-114.5"/>
<text text-anchor="middle" x="526.5" y="-121.5" font-family="Helvetica,sans-Serif" font-size="10.00" fill="#000000">eagle_lwip_getif</text>
</a>
</g>
</g>
<!-- Node215&#45;&gt;Node225 -->
<g id="edge14" class="edge">
<title>Node215&#45;&gt;Node225</title>
<path fill="none" stroke="#191970" d="M184.7358,-133.5971C223.119,-147.3466 297.9346,-171.9863 364,-181 403.6328,-186.4074 417.255,-196.8052 454,-181 475.3713,-171.8075 471.426,-157.0086 490,-143 492.0462,-141.4568 494.2357,-139.9729 496.4881,-138.5622"/>
<polygon fill="#191970" stroke="#191970" points="498.3749,-141.5151 505.3176,-133.5119 494.8994,-135.4388 498.3749,-141.5151"/>
</g>
<!-- Node226 -->
<g id="node16" class="node">
<title>Node226</title>
<g id="a_node16"><a xlink:href="user__interface_8h.html#a48d756265c0c1c35ba1fba102efe4d0a" target="_top" xlink:title="wifi_get_opmode">
<polygon fill="#ffffff" stroke="#000000" points="490,-76.5 490,-95.5 563,-95.5 563,-76.5 490,-76.5"/>
<text text-anchor="middle" x="526.5" y="-83.5" font-family="Helvetica,sans-Serif" font-size="10.00" fill="#000000">wifi_get_opmode</text>
</a>
</g>
</g>
<!-- Node215&#45;&gt;Node226 -->
<g id="edge15" class="edge">
<title>Node215&#45;&gt;Node226</title>
<path fill="none" stroke="#191970" d="M184.7358,-114.4029C223.119,-100.6534 297.9346,-76.0137 364,-67 403.6328,-61.5926 414.328,-61.8879 454,-67 464.9533,-68.4114 476.6128,-70.9754 487.3063,-73.7726"/>
<polygon fill="#191970" stroke="#191970" points="486.6382,-77.2188 497.2083,-76.4959 488.4945,-70.4694 486.6382,-77.2188"/>
</g>
<!-- Node227 -->
<g id="node17" class="node">
<title>Node227</title>
<g id="a_node17"><a xlink:href="pbuf_8h.html#a5aed441d496f607ad88ae1db2084c2d6" target="_top" xlink:title="pbuf_copy">
<polygon fill="#ffffff" stroke="#000000" points="501,-38.5 501,-57.5 552,-57.5 552,-38.5 501,-38.5"/>
<text text-anchor="middle" x="526.5" y="-45.5" font-family="Helvetica,sans-Serif" font-size="10.00" fill="#000000">pbuf_copy</text>
</a>
</g>
</g>
<!-- Node215&#45;&gt;Node227 -->
<g id="edge16" class="edge">
<title>Node215&#45;&gt;Node227</title>
<path fill="none" stroke="#191970" d="M170.4773,-114.3592C186.3169,-101.6751 216.3007,-79.8426 246,-70 330.3308,-42.0519 436.4151,-42.711 490.7785,-45.4358"/>
<polygon fill="#191970" stroke="#191970" points="490.7609,-48.9401 500.9398,-46.0004 491.1494,-41.9509 490.7609,-48.9401"/>
</g>
<!-- Node228 -->
<g id="node18" class="node">
<title>Node228</title>
<g id="a_node18"><a xlink:href="netif_8h.html#adf60dd30848a63ce3a1339c98c098acc" target="_top" xlink:title="netif_set_default">
<polygon fill="#ffffff" stroke="#000000" points="490.5,-.5 490.5,-19.5 562.5,-19.5 562.5,-.5 490.5,-.5"/>
<text text-anchor="middle" x="526.5" y="-7.5" font-family="Helvetica,sans-Serif" font-size="10.00" fill="#000000">netif_set_default</text>
</a>
</g>
</g>
<!-- Node215&#45;&gt;Node228 -->
<g id="edge17" class="edge">
<title>Node215&#45;&gt;Node228</title>
<path fill="none" stroke="#191970" d="M166.6664,-114.3287C180.5149,-97.6295 211.4878,-63.6752 246,-48 322.6623,-13.1806 422.3537,-7.9475 479.9085,-8.2945"/>
<polygon fill="#191970" stroke="#191970" points="480.1082,-11.7971 490.1498,-8.4184 480.1929,-4.7976 480.1082,-11.7971"/>
</g>
<!-- Node229 -->
<g id="node19" class="node">
<title>Node229</title>
<g id="a_node19"><a xlink:href="pbuf_8h.html#a0d26e00e2cf975274139d27ddabd7ed3" target="_top" xlink:title="pbuf_free">
<polygon fill="#ffffff" stroke="#000000" points="502.5,-152.5 502.5,-171.5 550.5,-171.5 550.5,-152.5 502.5,-152.5"/>
<text text-anchor="middle" x="526.5" y="-159.5" font-family="Helvetica,sans-Serif" font-size="10.00" fill="#000000">pbuf_free</text>
</a>
</g>
</g>
<!-- Node215&#45;&gt;Node229 -->
<g id="edge18" class="edge">
<title>Node215&#45;&gt;Node229</title>
<path fill="none" stroke="#191970" d="M190.9876,-133.594C197.5188,-136.1837 204.1706,-139.313 210,-143 228.8596,-154.9285 226.142,-167.8198 246,-178 293.4025,-202.301 310.9379,-194.3152 364,-199 403.845,-202.5179 415.1082,-208.3505 454,-199 471.7499,-194.7325 490.0481,-185.3497 503.821,-177.1011"/>
<polygon fill="#191970" stroke="#191970" points="505.9349,-179.9078 512.5708,-171.6485 502.2327,-173.9669 505.9349,-179.9078"/>
</g>
<!-- Node230 -->
<g id="node20" class="node">
<title>Node230</title>
<g id="a_node20"><a xlink:href="espconn__udp_8c.html#ad90679652367797548ea650f09d14f7e" target="_top" xlink:title="espconn_data_sent">
<polygon fill="#ffffff" stroke="#000000" points="246,-114.5 246,-133.5 328,-133.5 328,-114.5 246,-114.5"/>
<text text-anchor="middle" x="287" y="-121.5" font-family="Helvetica,sans-Serif" font-size="10.00" fill="#000000">espconn_data_sent</text>
</a>
</g>
</g>
<!-- Node215&#45;&gt;Node230 -->
<g id="edge21" class="edge">
<title>Node215&#45;&gt;Node230</title>
<path fill="none" stroke="#191970" d="M203.0503,-124C213.5723,-124 224.8937,-124 235.7103,-124"/>
<polygon fill="#191970" stroke="#191970" points="235.8837,-127.5001 245.8837,-124 235.8836,-120.5001 235.8837,-127.5001"/>
</g>
<!-- Node217 -->
<g id="node7" class="node">
<title>Node217</title>
<g id="a_node7"><a xlink:href="memp_8h.html#a5b98c976852aa0eabda9fd588be56eb8" target="_top" xlink:title="memp_malloc">
<polygon fill="#ffffff" stroke="#000000" points="599,-228.5 599,-247.5 662,-247.5 662,-228.5 599,-228.5"/>
<text text-anchor="middle" x="630.5" y="-235.5" font-family="Helvetica,sans-Serif" font-size="10.00" fill="#000000">memp_malloc</text>
</a>
</g>
</g>
<!-- Node216&#45;&gt;Node217 -->
<g id="edge6" class="edge">
<title>Node216&#45;&gt;Node217</title>
<path fill="none" stroke="#191970" d="M552.2079,-223.6966C563.2042,-225.7056 576.3294,-228.1034 588.6611,-230.3564"/>
<polygon fill="#191970" stroke="#191970" points="588.3028,-233.8488 598.7691,-232.203 589.5609,-226.9627 588.3028,-233.8488"/>
</g>
<!-- Node218 -->
<g id="node8" class="node">
<title>Node218</title>
<g id="a_node8"><a xlink:href="pbuf_8c.html#ab0dd696fb4b6bc65e548944584f1738b" target="_top" xlink:title="pbuf_free">
<polygon fill="#ffffff" stroke="#000000" points="606.5,-190.5 606.5,-209.5 654.5,-209.5 654.5,-190.5 606.5,-190.5"/>
<text text-anchor="middle" x="630.5" y="-197.5" font-family="Helvetica,sans-Serif" font-size="10.00" fill="#000000">pbuf_free</text>
</a>
</g>
</g>
<!-- Node216&#45;&gt;Node218 -->
<g id="edge7" class="edge">
<title>Node216&#45;&gt;Node218</title>
<path fill="none" stroke="#191970" d="M552.2079,-214.3034C565.4703,-211.8804 581.8291,-208.8918 596.1581,-206.274"/>
<polygon fill="#191970" stroke="#191970" points="596.9516,-209.6871 606.1597,-204.4468 595.6935,-202.801 596.9516,-209.6871"/>
</g>
<!-- Node222 -->
<g id="node12" class="node">
<title>Node222</title>
<g id="a_node12"><a xlink:href="esp-open-lwip_2include_2lwip_2mem_8h.html#a1cb005c6c44b685b8025b329a6d2bcd4" target="_top" xlink:title="mem_malloc">
<polygon fill="#ffffff" stroke="#000000" points="601,-266.5 601,-285.5 660,-285.5 660,-266.5 601,-266.5"/>
<text text-anchor="middle" x="630.5" y="-273.5" font-family="Helvetica,sans-Serif" font-size="10.00" fill="#000000">mem_malloc</text>
</a>
</g>
</g>
<!-- Node216&#45;&gt;Node222 -->
<g id="edge11" class="edge">
<title>Node216&#45;&gt;Node222</title>
<path fill="none" stroke="#191970" d="M544.1422,-228.6693C560.6016,-237.6903 585.3737,-251.2673 604.1713,-261.5698"/>
<polygon fill="#191970" stroke="#191970" points="602.6669,-264.7365 613.1184,-266.4735 606.0313,-258.598 602.6669,-264.7365"/>
</g>
<!-- Node219 -->
<g id="node9" class="node">
<title>Node219</title>
<g id="a_node9"><a xlink:href="memp_8h.html#a9d30a969401eb0626105950d6e63f3bf" target="_top" xlink:title="memp_free">
<polygon fill="#ffffff" stroke="#000000" points="710,-123.5 710,-142.5 764,-142.5 764,-123.5 710,-123.5"/>
<text text-anchor="middle" x="737" y="-130.5" font-family="Helvetica,sans-Serif" font-size="10.00" fill="#000000">memp_free</text>
</a>
</g>
</g>
<!-- Node218&#45;&gt;Node219 -->
<g id="edge8" class="edge">
<title>Node218&#45;&gt;Node219</title>
<path fill="none" stroke="#191970" d="M645.7589,-190.4005C663.3947,-179.3057 692.6311,-160.9128 713.2483,-147.9424"/>
<polygon fill="#191970" stroke="#191970" points="715.1689,-150.8692 721.7695,-142.5817 711.4414,-144.9442 715.1689,-150.8692"/>
</g>
<!-- Node220 -->
<g id="node10" class="node">
<title>Node220</title>
<g id="a_node10"><a xlink:href="esp-open-lwip_2include_2lwip_2mem_8h.html#ab270bbe39e1996d7095be3a139620ce0" target="_top" xlink:title="mem_free">
<polygon fill="#ffffff" stroke="#000000" points="712,-180.5 712,-199.5 762,-199.5 762,-180.5 712,-180.5"/>
<text text-anchor="middle" x="737" y="-187.5" font-family="Helvetica,sans-Serif" font-size="10.00" fill="#000000">mem_free</text>
</a>
</g>
</g>
<!-- Node218&#45;&gt;Node220 -->
<g id="edge9" class="edge">
<title>Node218&#45;&gt;Node220</title>
<path fill="none" stroke="#191970" d="M654.6665,-197.7308C668.5287,-196.4292 686.184,-194.7715 701.5878,-193.3251"/>
<polygon fill="#191970" stroke="#191970" points="702.1889,-196.7841 711.8179,-192.3645 701.5345,-189.8148 702.1889,-196.7841"/>
</g>
<!-- Node221 -->
<g id="node11" class="node">
<title>Node221</title>
<g id="a_node11"><a xlink:href="mem_8c.html#a24221009a2c00e9c3fa63eaa9444a076" target="_top" xlink:title="plug_holes">
<polygon fill="#ffffff" stroke="#000000" points="812,-180.5 812,-199.5 865,-199.5 865,-180.5 812,-180.5"/>
<text text-anchor="middle" x="838.5" y="-187.5" font-family="Helvetica,sans-Serif" font-size="10.00" fill="#000000">plug_holes</text>
</a>
</g>
</g>
<!-- Node220&#45;&gt;Node221 -->
<g id="edge10" class="edge">
<title>Node220&#45;&gt;Node221</title>
<path fill="none" stroke="#191970" d="M762.0899,-190C774.041,-190 788.5684,-190 801.734,-190"/>
<polygon fill="#191970" stroke="#191970" points="801.9253,-193.5001 811.9253,-190 801.9253,-186.5001 801.9253,-193.5001"/>
</g>
<!-- Node223 -->
<g id="node13" class="node">
<title>Node223</title>
<g id="a_node13"><a xlink:href="sys_8h.html#a4d4eb9afe5965fa2661dd54ff55d616a" target="_top" xlink:title="sys_mutex_lock">
<polygon fill="#ffffff" stroke="#000000" points="702,-285.5 702,-304.5 772,-304.5 772,-285.5 702,-285.5"/>
<text text-anchor="middle" x="737" y="-292.5" font-family="Helvetica,sans-Serif" font-size="10.00" fill="#000000">sys_mutex_lock</text>
</a>
</g>
</g>
<!-- Node222&#45;&gt;Node223 -->
<g id="edge12" class="edge">
<title>Node222&#45;&gt;Node223</title>
<path fill="none" stroke="#191970" d="M660.1662,-281.2926C669.9609,-283.04 681.0898,-285.0254 691.7771,-286.9321"/>
<polygon fill="#191970" stroke="#191970" points="691.3712,-290.4148 701.8305,-288.7256 692.6006,-283.5236 691.3712,-290.4148"/>
</g>
<!-- Node224 -->
<g id="node14" class="node">
<title>Node224</title>
<g id="a_node14"><a xlink:href="sys_8h.html#a5568f68898fe9d5735f9ce2f665624fb" target="_top" xlink:title="sys_mutex_unlock">
<polygon fill="#ffffff" stroke="#000000" points="698,-247.5 698,-266.5 776,-266.5 776,-247.5 698,-247.5"/>
<text text-anchor="middle" x="737" y="-254.5" font-family="Helvetica,sans-Serif" font-size="10.00" fill="#000000">sys_mutex_unlock</text>
</a>
</g>
</g>
<!-- Node222&#45;&gt;Node224 -->
<g id="edge13" class="edge">
<title>Node222&#45;&gt;Node224</title>
<path fill="none" stroke="#191970" d="M660.1662,-270.7074C668.754,-269.1753 678.3674,-267.4603 687.8096,-265.7757"/>
<polygon fill="#191970" stroke="#191970" points="688.7017,-269.1719 697.9316,-263.97 687.4723,-262.2807 688.7017,-269.1719"/>
</g>
<!-- Node229&#45;&gt;Node219 -->
<g id="edge19" class="edge">
<title>Node229&#45;&gt;Node219</title>
<path fill="none" stroke="#191970" d="M550.647,-158.6733C587.1612,-153.6429 656.72,-144.06 699.754,-138.1313"/>
<polygon fill="#191970" stroke="#191970" points="700.3957,-141.576 709.8244,-136.7439 699.4403,-134.6415 700.3957,-141.576"/>
</g>
<!-- Node229&#45;&gt;Node220 -->
<g id="edge20" class="edge">
<title>Node229&#45;&gt;Node220</title>
<path fill="none" stroke="#191970" d="M550.647,-165.212C587.7598,-170.1486 659.0094,-179.626 701.8488,-185.3243"/>
<polygon fill="#191970" stroke="#191970" points="701.4567,-188.8029 711.8309,-186.6521 702.3797,-181.864 701.4567,-188.8029"/>
</g>
<!-- Node231 -->
<g id="node21" class="node">
<title>Node231</title>
<g id="a_node21"><a xlink:href="espconn__udp_8c.html#acf012530a067499d3c1f70091f09427f" target="_top" xlink:title="espconn_data_sentcb">
<polygon fill="#ffffff" stroke="#000000" points="364,-152.5 364,-171.5 454,-171.5 454,-152.5 364,-152.5"/>
<text text-anchor="middle" x="409" y="-159.5" font-family="Helvetica,sans-Serif" font-size="10.00" fill="#000000">espconn_data_sentcb</text>
</a>
</g>
</g>
<!-- Node230&#45;&gt;Node231 -->
<g id="edge22" class="edge">
<title>Node230&#45;&gt;Node231</title>
<path fill="none" stroke="#191970" d="M317.7858,-133.589C333.1013,-138.3594 351.8166,-144.1888 368.2998,-149.3229"/>
<polygon fill="#191970" stroke="#191970" points="367.6356,-152.7818 378.2241,-152.4141 369.7174,-146.0985 367.6356,-152.7818"/>
</g>
<!-- Node232 -->
<g id="node22" class="node">
<title>Node232</title>
<g id="a_node22"><a xlink:href="espconn__udp_8c.html#ac963eff73234530596d6c02e6bb05e09" target="_top" xlink:title="espconn_udp_sent">
<polygon fill="#ffffff" stroke="#000000" points="369,-76.5 369,-95.5 449,-95.5 449,-76.5 369,-76.5"/>
<text text-anchor="middle" x="409" y="-83.5" font-family="Helvetica,sans-Serif" font-size="10.00" fill="#000000">espconn_udp_sent</text>
</a>
</g>
</g>
<!-- Node230&#45;&gt;Node232 -->
<g id="edge23" class="edge">
<title>Node230&#45;&gt;Node232</title>
<path fill="none" stroke="#191970" d="M302.9494,-114.3009C317.27,-108.1919 339.075,-100.7613 359.1969,-94.8645"/>
<polygon fill="#191970" stroke="#191970" points="360.2382,-98.2073 368.8995,-92.1055 358.3235,-91.4742 360.2382,-98.2073"/>
</g>
<!-- Node233 -->
<g id="node23" class="node">
<title>Node233</title>
<g id="a_node23"><a xlink:href="espconn__udp_8c.html#a01fa0df74518311e3eb03f2d955f9f26" target="_top" xlink:title="espconn_udp_sendto">
<polygon fill="#ffffff" stroke="#000000" points="365,-114.5 365,-133.5 453,-133.5 453,-114.5 365,-114.5"/>
<text text-anchor="middle" x="409" y="-121.5" font-family="Helvetica,sans-Serif" font-size="10.00" fill="#000000">espconn_udp_sendto</text>
</a>
</g>
</g>
<!-- Node230&#45;&gt;Node233 -->
<g id="edge31" class="edge">
<title>Node230&#45;&gt;Node233</title>
<path fill="none" stroke="#191970" d="M328.3036,-117.573C336.7501,-117.2867 345.761,-117.1907 354.5859,-117.2851"/>
<polygon fill="#191970" stroke="#191970" points="354.7491,-120.7888 364.8151,-117.4833 354.8848,-113.7901 354.7491,-120.7888"/>
</g>
<!-- Node232&#45;&gt;Node216 -->
<g id="edge24" class="edge">
<title>Node232&#45;&gt;Node216</title>
<path fill="none" stroke="#191970" d="M440.3552,-95.6953C445.3088,-98.1805 450.0809,-101.2454 454,-105 480.9888,-130.8562 468.7784,-150.2334 490,-181 495.1858,-188.5183 501.8786,-195.9523 508.1141,-202.2242"/>
<polygon fill="#191970" stroke="#191970" points="505.9931,-205.0414 515.6199,-209.4659 510.8535,-200.0038 505.9931,-205.0414"/>
</g>
<!-- Node232&#45;&gt;Node225 -->
<g id="edge25" class="edge">
<title>Node232&#45;&gt;Node225</title>
<path fill="none" stroke="#191970" d="M438.6502,-95.589C453.4009,-100.3594 471.4258,-106.1888 487.301,-111.3229"/>
<polygon fill="#191970" stroke="#191970" points="486.2675,-114.667 496.8593,-114.4141 488.4215,-108.0067 486.2675,-114.667"/>
</g>
<!-- Node232&#45;&gt;Node226 -->
<g id="edge26" class="edge">
<title>Node232&#45;&gt;Node226</title>
<path fill="none" stroke="#191970" d="M449.1082,-86C458.878,-86 469.415,-86 479.4741,-86"/>
<polygon fill="#191970" stroke="#191970" points="479.7315,-89.5001 489.7314,-86 479.7314,-82.5001 479.7315,-89.5001"/>
</g>
<!-- Node232&#45;&gt;Node227 -->
<g id="edge27" class="edge">
<title>Node232&#45;&gt;Node227</title>
<path fill="none" stroke="#191970" d="M438.6502,-76.411C454.5269,-71.2764 474.1968,-64.9151 490.8965,-59.5143"/>
<polygon fill="#191970" stroke="#191970" points="492.4125,-62.7026 500.8503,-56.2952 490.2584,-56.0422 492.4125,-62.7026"/>
</g>
<!-- Node232&#45;&gt;Node228 -->
<g id="edge28" class="edge">
<title>Node232&#45;&gt;Node228</title>
<path fill="none" stroke="#191970" d="M421.5514,-76.3758C437.1779,-64.5815 464.8798,-44.2833 490,-29 492.5175,-27.4683 495.1714,-25.9369 497.8524,-24.4455"/>
<polygon fill="#191970" stroke="#191970" points="499.7543,-27.3971 506.9128,-19.5864 496.4459,-21.2283 499.7543,-27.3971"/>
</g>
<!-- Node232&#45;&gt;Node229 -->
<g id="edge29" class="edge">
<title>Node232&#45;&gt;Node229</title>
<path fill="none" stroke="#191970" d="M436.5996,-95.5262C442.5843,-98.1633 448.7025,-101.3292 454,-105 473.1223,-118.2504 471.426,-128.9914 490,-143 492.0462,-144.5432 494.2357,-146.0271 496.4881,-147.4378"/>
<polygon fill="#191970" stroke="#191970" points="494.8994,-150.5612 505.3176,-152.4881 498.3749,-144.4849 494.8994,-150.5612"/>
</g>
<!-- Node232&#45;&gt;Node230 -->
<g id="edge30" class="edge">
<title>Node232&#45;&gt;Node230</title>
<path fill="none" stroke="#191970" d="M393.4092,-95.5458C379.3648,-101.5681 357.918,-108.9076 337.949,-114.7985"/>
<polygon fill="#191970" stroke="#191970" points="336.9529,-111.443 328.3036,-117.5619 338.8809,-118.1723 336.9529,-111.443"/>
</g>
<!-- Node233&#45;&gt;Node216 -->
<g id="edge32" class="edge">
<title>Node233&#45;&gt;Node216</title>
<path fill="none" stroke="#191970" d="M436.5996,-133.5262C442.5843,-136.1633 448.7025,-139.3292 454,-143 473.1223,-156.2504 473.9419,-164.1663 490,-181 496.4818,-187.7948 503.6344,-195.2507 509.8776,-201.7447"/>
<polygon fill="#191970" stroke="#191970" points="507.7245,-204.555 517.1803,-209.3341 512.7686,-199.7014 507.7245,-204.555"/>
</g>
<!-- Node233&#45;&gt;Node225 -->
<g id="edge33" class="edge">
<title>Node233&#45;&gt;Node225</title>
<path fill="none" stroke="#191970" d="M453.087,-124C462.2657,-124 471.9546,-124 481.1771,-124"/>
<polygon fill="#191970" stroke="#191970" points="481.3394,-127.5001 491.3394,-124 481.3394,-120.5001 481.3394,-127.5001"/>
</g>
<!-- Node233&#45;&gt;Node226 -->
<g id="edge34" class="edge">
<title>Node233&#45;&gt;Node226</title>
<path fill="none" stroke="#191970" d="M438.6502,-114.411C453.4009,-109.6406 471.4258,-103.8112 487.301,-98.6771"/>
<polygon fill="#191970" stroke="#191970" points="488.4215,-101.9933 496.8593,-95.5859 486.2675,-95.333 488.4215,-101.9933"/>
</g>
<!-- Node233&#45;&gt;Node227 -->
<g id="edge35" class="edge">
<title>Node233&#45;&gt;Node227</title>
<path fill="none" stroke="#191970" d="M436.5996,-114.4738C442.5843,-111.8367 448.7025,-108.6708 454,-105 473.1223,-91.7496 471.426,-81.0086 490,-67 492.0462,-65.4568 494.2357,-63.9729 496.4881,-62.5622"/>
<polygon fill="#191970" stroke="#191970" points="498.3749,-65.5151 505.3176,-57.5119 494.8994,-59.4388 498.3749,-65.5151"/>
</g>
<!-- Node233&#45;&gt;Node228 -->
<g id="edge36" class="edge">
<title>Node233&#45;&gt;Node228</title>
<path fill="none" stroke="#191970" d="M440.3552,-114.3047C445.3088,-111.8195 450.0809,-108.7546 454,-105 480.9888,-79.1438 464.0726,-55.9204 490,-29 491.2265,-27.7265 492.5571,-26.5216 493.9601,-25.384"/>
<polygon fill="#191970" stroke="#191970" points="496.223,-28.0801 502.5675,-19.5949 492.3163,-22.2716 496.223,-28.0801"/>
</g>
<!-- Node233&#45;&gt;Node229 -->
<g id="edge37" class="edge">
<title>Node233&#45;&gt;Node229</title>
<path fill="none" stroke="#191970" d="M438.6502,-133.589C455.1313,-138.9191 475.6999,-145.571 492.7906,-151.0982"/>
<polygon fill="#191970" stroke="#191970" points="491.8024,-154.4571 502.3942,-154.2041 493.9564,-147.7967 491.8024,-154.4571"/>
</g>
<!-- Node233&#45;&gt;Node230 -->
<g id="edge38" class="edge">
<title>Node233&#45;&gt;Node230</title>
<path fill="none" stroke="#191970" d="M364.8151,-130.5167C356.2507,-130.76 347.2067,-130.813 338.4334,-130.6757"/>
<polygon fill="#191970" stroke="#191970" points="338.3865,-127.1736 328.3036,-130.427 338.2147,-134.1715 338.3865,-127.1736"/>
</g>
</g>
</svg>
