<?xml version="1.0" encoding="UTF-8" standalone="no"?>
<!DOCTYPE svg PUBLIC "-//W3C//DTD SVG 1.1//EN"
 "http://www.w3.org/Graphics/SVG/1.1/DTD/svg11.dtd">
<!-- Generated by graphviz version 2.40.1 (20161225.0304)
 -->
<!-- Title: espconn_abort Pages: 1 -->
<svg width="789pt" height="104pt"
 viewBox="0.00 0.00 789.00 104.00" xmlns="http://www.w3.org/2000/svg" xmlns:xlink="http://www.w3.org/1999/xlink">
<g id="graph0" class="graph" transform="scale(1 1) rotate(0) translate(4 100)">
<title>espconn_abort</title>
<polygon fill="#ffffff" stroke="transparent" points="-4,4 -4,-100 785,-100 785,4 -4,4"/>
<!-- Node0 -->
<g id="node1" class="node">
<title>Node0</title>
<polygon fill="#bfbfbf" stroke="#000000" points="0,-38.5 0,-57.5 66,-57.5 66,-38.5 0,-38.5"/>
<text text-anchor="middle" x="33" y="-45.5" font-family="Helvetica,sans-Serif" font-size="10.00" fill="#000000">espconn_abort</text>
</g>
<!-- Node1 -->
<g id="node2" class="node">
<title>Node1</title>
<g id="a_node2"><a xlink:href="espconn_8c.html#a2d001a99fea2fce497e392259cf01700" target="_top" xlink:title="espconn_find_connection">
<polygon fill="#ffffff" stroke="#000000" points="102,-57.5 102,-76.5 204,-76.5 204,-57.5 102,-57.5"/>
<text text-anchor="middle" x="153" y="-64.5" font-family="Helvetica,sans-Serif" font-size="10.00" fill="#000000">espconn_find_connection</text>
</a>
</g>
</g>
<!-- Node0&#45;&gt;Node1 -->
<g id="edge1" class="edge">
<title>Node0&#45;&gt;Node1</title>
<path fill="none" stroke="#191970" d="M66.1082,-53.2421C74.0721,-54.5031 82.8329,-55.8902 91.633,-57.2836"/>
<polygon fill="#191970" stroke="#191970" points="91.1205,-60.7459 101.5448,-58.8529 92.2152,-53.8321 91.1205,-60.7459"/>
</g>
<!-- Node2 -->
<g id="node3" class="node">
<title>Node2</title>
<g id="a_node3"><a xlink:href="espconn__tcp_8h.html#a89ea8ef60c7cbcd46711f8f70103b53a" target="_top" xlink:title="espconn_tcp_disconnect">
<polygon fill="#ffffff" stroke="#000000" points="103.5,-19.5 103.5,-38.5 202.5,-38.5 202.5,-19.5 103.5,-19.5"/>
<text text-anchor="middle" x="153" y="-26.5" font-family="Helvetica,sans-Serif" font-size="10.00" fill="#000000">espconn_tcp_disconnect</text>
</a>
</g>
</g>
<!-- Node0&#45;&gt;Node2 -->
<g id="edge2" class="edge">
<title>Node0&#45;&gt;Node2</title>
<path fill="none" stroke="#191970" d="M66.1082,-42.7579C74.5653,-41.4188 83.9211,-39.9375 93.2682,-38.4575"/>
<polygon fill="#191970" stroke="#191970" points="94.0349,-41.8798 103.3645,-36.859 92.9401,-34.966 94.0349,-41.8798"/>
</g>
<!-- Node3 -->
<g id="node4" class="node">
<title>Node3</title>
<g id="a_node4"><a xlink:href="espconn__tcp_8c.html#a1c87d6afab08e5f7f51a212a20547dee" target="_top" xlink:title="espconn_server_close">
<polygon fill="#ffffff" stroke="#000000" points="240,-38.5 240,-57.5 332,-57.5 332,-38.5 240,-38.5"/>
<text text-anchor="middle" x="286" y="-45.5" font-family="Helvetica,sans-Serif" font-size="10.00" fill="#000000">espconn_server_close</text>
</a>
</g>
</g>
<!-- Node2&#45;&gt;Node3 -->
<g id="edge3" class="edge">
<title>Node2&#45;&gt;Node3</title>
<path fill="none" stroke="#191970" d="M202.5243,-36.0749C211.4319,-37.3474 220.775,-38.6821 229.8542,-39.9792"/>
<polygon fill="#191970" stroke="#191970" points="229.5609,-43.4727 239.9554,-41.4222 230.5509,-36.5431 229.5609,-43.4727"/>
</g>
<!-- Node11 -->
<g id="node12" class="node">
<title>Node11</title>
<g id="a_node12"><a xlink:href="espconn__tcp_8c.html#a1bf4d2aa3261188fe87a4f3c631eee15" target="_top" xlink:title="espconn_client_close">
<polygon fill="#ffffff" stroke="#000000" points="242,-.5 242,-19.5 330,-19.5 330,-.5 242,-.5"/>
<text text-anchor="middle" x="286" y="-7.5" font-family="Helvetica,sans-Serif" font-size="10.00" fill="#000000">espconn_client_close</text>
</a>
</g>
</g>
<!-- Node2&#45;&gt;Node11 -->
<g id="edge12" class="edge">
<title>Node2&#45;&gt;Node11</title>
<path fill="none" stroke="#191970" d="M202.5243,-21.9251C212.062,-20.5626 222.099,-19.1287 231.7766,-17.7462"/>
<polygon fill="#191970" stroke="#191970" points="232.2911,-21.2083 241.6956,-16.3292 231.3011,-14.2787 232.2911,-21.2083"/>
</g>
<!-- Node4 -->
<g id="node5" class="node">
<title>Node4</title>
<g id="a_node5"><a xlink:href="espconn__tcp_8c.html#afc71eebe6b5059ad2b6503c328e8d8c5" target="_top" xlink:title="espconn_server_recv">
<polygon fill="#ffffff" stroke="#000000" points="368,-38.5 368,-57.5 456,-57.5 456,-38.5 368,-38.5"/>
<text text-anchor="middle" x="412" y="-45.5" font-family="Helvetica,sans-Serif" font-size="10.00" fill="#000000">espconn_server_recv</text>
</a>
</g>
</g>
<!-- Node3&#45;&gt;Node4 -->
<g id="edge4" class="edge">
<title>Node3&#45;&gt;Node4</title>
<path fill="none" stroke="#191970" d="M332.2023,-41.4679C340.4911,-41.2481 349.1985,-41.1946 357.691,-41.3074"/>
<polygon fill="#191970" stroke="#191970" points="357.8277,-44.8111 367.9009,-41.5276 357.9787,-37.8127 357.8277,-44.8111"/>
</g>
<!-- Node4&#45;&gt;Node3 -->
<g id="edge11" class="edge">
<title>Node4&#45;&gt;Node3</title>
<path fill="none" stroke="#191970" d="M367.9009,-54.4724C359.6877,-54.7206 351.0023,-54.8023 342.4778,-54.7177"/>
<polygon fill="#191970" stroke="#191970" points="342.2639,-51.2134 332.2023,-54.5321 342.1374,-58.2123 342.2639,-51.2134"/>
</g>
<!-- Node5 -->
<g id="node6" class="node">
<title>Node5</title>
<g id="a_node6"><a xlink:href="user__interface_8h.html#a258edd68184bb78f062a3b375dca997c" target="_top" xlink:title="system_get_free_heap_size">
<polygon fill="#ffffff" stroke="#000000" points="492,-76.5 492,-95.5 602,-95.5 602,-76.5 492,-76.5"/>
<text text-anchor="middle" x="547" y="-83.5" font-family="Helvetica,sans-Serif" font-size="10.00" fill="#000000">system_get_free_heap_size</text>
</a>
</g>
</g>
<!-- Node4&#45;&gt;Node5 -->
<g id="edge5" class="edge">
<title>Node4&#45;&gt;Node5</title>
<path fill="none" stroke="#191970" d="M446.0662,-57.589C463.4135,-62.4719 484.7022,-68.4643 503.2492,-73.685"/>
<polygon fill="#191970" stroke="#191970" points="502.3704,-77.0735 512.9447,-76.4141 504.2671,-70.3354 502.3704,-77.0735"/>
</g>
<!-- Node6 -->
<g id="node7" class="node">
<title>Node6</title>
<g id="a_node7"><a xlink:href="pbuf_8h.html#ab0a418a2392133e6b18c7b19f7c04500" target="_top" xlink:title="pbuf_copy_partial">
<polygon fill="#ffffff" stroke="#000000" points="509,-.5 509,-19.5 585,-19.5 585,-.5 509,-.5"/>
<text text-anchor="middle" x="547" y="-7.5" font-family="Helvetica,sans-Serif" font-size="10.00" fill="#000000">pbuf_copy_partial</text>
</a>
</g>
</g>
<!-- Node4&#45;&gt;Node6 -->
<g id="edge6" class="edge">
<title>Node4&#45;&gt;Node6</title>
<path fill="none" stroke="#191970" d="M446.0662,-38.411C463.4135,-33.5281 484.7022,-27.5357 503.2492,-22.315"/>
<polygon fill="#191970" stroke="#191970" points="504.2671,-25.6646 512.9447,-19.5859 502.3704,-18.9265 504.2671,-25.6646"/>
</g>
<!-- Node7 -->
<g id="node8" class="node">
<title>Node7</title>
<g id="a_node8"><a xlink:href="pbuf_8h.html#a0d26e00e2cf975274139d27ddabd7ed3" target="_top" xlink:title="pbuf_free">
<polygon fill="#ffffff" stroke="#000000" points="523,-38.5 523,-57.5 571,-57.5 571,-38.5 523,-38.5"/>
<text text-anchor="middle" x="547" y="-45.5" font-family="Helvetica,sans-Serif" font-size="10.00" fill="#000000">pbuf_free</text>
</a>
</g>
</g>
<!-- Node4&#45;&gt;Node7 -->
<g id="edge7" class="edge">
<title>Node4&#45;&gt;Node7</title>
<path fill="none" stroke="#191970" d="M456.204,-48C474.5442,-48 495.4996,-48 512.6542,-48"/>
<polygon fill="#191970" stroke="#191970" points="512.7868,-51.5001 522.7868,-48 512.7868,-44.5001 512.7868,-51.5001"/>
</g>
<!-- Node8 -->
<g id="node9" class="node">
<title>Node8</title>
<g id="a_node9"><a xlink:href="memp_8h.html#a9d30a969401eb0626105950d6e63f3bf" target="_top" xlink:title="memp_free">
<polygon fill="#ffffff" stroke="#000000" points="638,-57.5 638,-76.5 692,-76.5 692,-57.5 638,-57.5"/>
<text text-anchor="middle" x="665" y="-64.5" font-family="Helvetica,sans-Serif" font-size="10.00" fill="#000000">memp_free</text>
</a>
</g>
</g>
<!-- Node7&#45;&gt;Node8 -->
<g id="edge8" class="edge">
<title>Node7&#45;&gt;Node8</title>
<path fill="none" stroke="#191970" d="M571.1638,-51.8908C587.5485,-54.529 609.5175,-58.0664 628.0794,-61.0552"/>
<polygon fill="#191970" stroke="#191970" points="627.5547,-64.5157 637.9839,-62.65 628.6675,-57.6047 627.5547,-64.5157"/>
</g>
<!-- Node9 -->
<g id="node10" class="node">
<title>Node9</title>
<g id="a_node10"><a xlink:href="esp-open-lwip_2include_2lwip_2mem_8h.html#ab270bbe39e1996d7095be3a139620ce0" target="_top" xlink:title="mem_free">
<polygon fill="#ffffff" stroke="#000000" points="640,-19.5 640,-38.5 690,-38.5 690,-19.5 640,-19.5"/>
<text text-anchor="middle" x="665" y="-26.5" font-family="Helvetica,sans-Serif" font-size="10.00" fill="#000000">mem_free</text>
</a>
</g>
</g>
<!-- Node7&#45;&gt;Node9 -->
<g id="edge9" class="edge">
<title>Node7&#45;&gt;Node9</title>
<path fill="none" stroke="#191970" d="M571.1638,-44.1092C588.0036,-41.3977 610.7423,-37.7364 629.6181,-34.6971"/>
<polygon fill="#191970" stroke="#191970" points="630.3289,-38.1278 639.6453,-33.0825 629.216,-31.2168 630.3289,-38.1278"/>
</g>
<!-- Node10 -->
<g id="node11" class="node">
<title>Node10</title>
<g id="a_node11"><a xlink:href="mem_8c.html#a24221009a2c00e9c3fa63eaa9444a076" target="_top" xlink:title="plug_holes">
<polygon fill="#ffffff" stroke="#000000" points="728,-19.5 728,-38.5 781,-38.5 781,-19.5 728,-19.5"/>
<text text-anchor="middle" x="754.5" y="-26.5" font-family="Helvetica,sans-Serif" font-size="10.00" fill="#000000">plug_holes</text>
</a>
</g>
</g>
<!-- Node9&#45;&gt;Node10 -->
<g id="edge10" class="edge">
<title>Node9&#45;&gt;Node10</title>
<path fill="none" stroke="#191970" d="M690.4077,-29C698.8937,-29 708.5288,-29 717.7031,-29"/>
<polygon fill="#191970" stroke="#191970" points="717.7797,-32.5001 727.7796,-29 717.7796,-25.5001 717.7797,-32.5001"/>
</g>
<!-- Node12 -->
<g id="node13" class="node">
<title>Node12</title>
<g id="a_node13"><a xlink:href="espconn__tcp_8c.html#a982e86de0cf75d42f72ecc953949e415" target="_top" xlink:title="espconn_client_recv">
<polygon fill="#ffffff" stroke="#000000" points="369.5,-.5 369.5,-19.5 454.5,-19.5 454.5,-.5 369.5,-.5"/>
<text text-anchor="middle" x="412" y="-7.5" font-family="Helvetica,sans-Serif" font-size="10.00" fill="#000000">espconn_client_recv</text>
</a>
</g>
</g>
<!-- Node11&#45;&gt;Node12 -->
<g id="edge13" class="edge">
<title>Node11&#45;&gt;Node12</title>
<path fill="none" stroke="#191970" d="M330.0687,-3.5285C339.5493,-3.2416 349.6606,-3.1763 359.4278,-3.3329"/>
<polygon fill="#191970" stroke="#191970" points="359.3588,-6.8321 369.441,-3.5763 359.529,.1658 359.3588,-6.8321"/>
</g>
<!-- Node12&#45;&gt;Node6 -->
<g id="edge14" class="edge">
<title>Node12&#45;&gt;Node6</title>
<path fill="none" stroke="#191970" d="M454.7148,-10C468.6387,-10 484.1966,-10 498.5122,-10"/>
<polygon fill="#191970" stroke="#191970" points="498.6756,-13.5001 508.6755,-10 498.6755,-6.5001 498.6756,-13.5001"/>
</g>
<!-- Node12&#45;&gt;Node7 -->
<g id="edge15" class="edge">
<title>Node12&#45;&gt;Node7</title>
<path fill="none" stroke="#191970" d="M446.0662,-19.589C466.5135,-25.3445 492.4368,-32.6415 512.8916,-38.3991"/>
<polygon fill="#191970" stroke="#191970" points="512.1638,-41.8302 522.7381,-41.1707 514.0605,-35.092 512.1638,-41.8302"/>
</g>
<!-- Node12&#45;&gt;Node11 -->
<g id="edge16" class="edge">
<title>Node12&#45;&gt;Node11</title>
<path fill="none" stroke="#191970" d="M369.441,-16.4237C360.0303,-16.7343 349.9371,-16.8232 340.1359,-16.6903"/>
<polygon fill="#191970" stroke="#191970" points="340.1424,-13.1897 330.0687,-16.4715 339.9903,-20.188 340.1424,-13.1897"/>
</g>
</g>
</svg>
