<?xml version="1.0" encoding="UTF-8" standalone="no"?>
<!DOCTYPE svg PUBLIC "-//W3C//DTD SVG 1.1//EN"
 "http://www.w3.org/Graphics/SVG/1.1/DTD/svg11.dtd">
<!-- Generated by graphviz version 2.40.1 (20161225.0304)
 -->
<!-- Title: sha256_final Pages: 1 -->
<svg width="709pt" height="180pt"
 viewBox="0.00 0.00 709.00 180.00" xmlns="http://www.w3.org/2000/svg" xmlns:xlink="http://www.w3.org/1999/xlink">
<g id="graph0" class="graph" transform="scale(1 1) rotate(0) translate(4 176)">
<title>sha256_final</title>
<polygon fill="#ffffff" stroke="transparent" points="-4,4 -4,-176 705,-176 705,4 -4,4"/>
<!-- Node14 -->
<g id="node1" class="node">
<title>Node14</title>
<polygon fill="#bfbfbf" stroke="#000000" points="0,-47.5 0,-66.5 59,-66.5 59,-47.5 0,-47.5"/>
<text text-anchor="middle" x="29.5" y="-54.5" font-family="Helvetica,sans-Serif" font-size="10.00" fill="#000000">sha256_final</text>
</g>
<!-- Node15 -->
<g id="node2" class="node">
<title>Node15</title>
<g id="a_node2"><a xlink:href="hmac-sha256_8h.html#a7fad664b062689148a6b1ee5d4bc790d" target="_top" xlink:title="hmac_sha256_final">
<polygon fill="#ffffff" stroke="#000000" points="199,-114.5 199,-133.5 281,-133.5 281,-114.5 199,-114.5"/>
<text text-anchor="middle" x="240" y="-121.5" font-family="Helvetica,sans-Serif" font-size="10.00" fill="#000000">hmac_sha256_final</text>
</a>
</g>
</g>
<!-- Node14&#45;&gt;Node15 -->
<g id="edge1" class="edge">
<title>Node14&#45;&gt;Node15</title>
<path fill="none" stroke="#191970" d="M68.8633,-69.5289C109.8228,-82.5659 173.0509,-102.6908 210.098,-114.4825"/>
<polygon fill="#191970" stroke="#191970" points="69.8036,-66.1553 59.2131,-66.4574 67.6805,-72.8255 69.8036,-66.1553"/>
</g>
<!-- Node26 -->
<g id="node13" class="node">
<title>Node26</title>
<g id="a_node13"><a xlink:href="sha256_8h.html#a76777d1023592cc7219dfded1ed1537d" target="_top" xlink:title="sha256_end">
<polygon fill="#ffffff" stroke="#000000" points="95,-9.5 95,-28.5 153,-28.5 153,-9.5 95,-9.5"/>
<text text-anchor="middle" x="124" y="-16.5" font-family="Helvetica,sans-Serif" font-size="10.00" fill="#000000">sha256_end</text>
</a>
</g>
</g>
<!-- Node14&#45;&gt;Node26 -->
<g id="edge13" class="edge">
<title>Node14&#45;&gt;Node26</title>
<path fill="none" stroke="#191970" d="M62.8522,-43.5886C75.1644,-38.6376 88.8587,-33.1309 100.1613,-28.5859"/>
<polygon fill="#191970" stroke="#191970" points="61.3185,-40.4328 53.3463,-47.411 63.9301,-46.9274 61.3185,-40.4328"/>
</g>
<!-- Node28 -->
<g id="node15" class="node">
<title>Node28</title>
<g id="a_node15"><a xlink:href="sha256_8h.html#a7f22a0894ca55160852ddcdff7a1f2fc" target="_top" xlink:title="sha256_raw">
<polygon fill="#ffffff" stroke="#000000" points="95.5,-47.5 95.5,-66.5 152.5,-66.5 152.5,-47.5 95.5,-47.5"/>
<text text-anchor="middle" x="124" y="-54.5" font-family="Helvetica,sans-Serif" font-size="10.00" fill="#000000">sha256_raw</text>
</a>
</g>
</g>
<!-- Node14&#45;&gt;Node28 -->
<g id="edge15" class="edge">
<title>Node14&#45;&gt;Node28</title>
<path fill="none" stroke="#191970" d="M69.23,-57C78.0284,-57 87.1839,-57 95.4336,-57"/>
<polygon fill="#191970" stroke="#191970" points="69.1411,-53.5001 59.1411,-57 69.1411,-60.5001 69.1411,-53.5001"/>
</g>
<!-- Node16 -->
<g id="node3" class="node">
<title>Node16</title>
<g id="a_node3"><a xlink:href="crypto_8h.html#a0d1e89f74b522d69161f6b213fc5abc7" target="_top" xlink:title="decrypt_aes_hmac_combined">
<polygon fill="#ffffff" stroke="#000000" points="327,-133.5 327,-152.5 444,-152.5 444,-133.5 327,-133.5"/>
<text text-anchor="middle" x="385.5" y="-140.5" font-family="Helvetica,sans-Serif" font-size="10.00" fill="#000000">decrypt_aes_hmac_combined</text>
</a>
</g>
</g>
<!-- Node15&#45;&gt;Node16 -->
<g id="edge2" class="edge">
<title>Node15&#45;&gt;Node16</title>
<path fill="none" stroke="#191970" d="M291.2275,-130.6895C302.7895,-132.1993 315.1486,-133.8132 326.9845,-135.3588"/>
<polygon fill="#191970" stroke="#191970" points="291.6743,-127.2182 281.3053,-129.3938 290.7679,-134.1593 291.6743,-127.2182"/>
</g>
<!-- Node17 -->
<g id="node4" class="node">
<title>Node17</title>
<g id="a_node4"><a xlink:href="crypto_8h.html#a7991ec94c8faa24921947687f2d587a0" target="_top" xlink:title="encrypt_aes_hmac_combined">
<polygon fill="#ffffff" stroke="#000000" points="327,-95.5 327,-114.5 444,-114.5 444,-95.5 327,-95.5"/>
<text text-anchor="middle" x="385.5" y="-102.5" font-family="Helvetica,sans-Serif" font-size="10.00" fill="#000000">encrypt_aes_hmac_combined</text>
</a>
</g>
</g>
<!-- Node15&#45;&gt;Node17 -->
<g id="edge3" class="edge">
<title>Node15&#45;&gt;Node17</title>
<path fill="none" stroke="#191970" d="M291.2275,-117.3105C302.7895,-115.8007 315.1486,-114.1868 326.9845,-112.6412"/>
<polygon fill="#191970" stroke="#191970" points="290.7679,-113.8407 281.3053,-118.6062 291.6743,-120.7818 290.7679,-113.8407"/>
</g>
<!-- Node25 -->
<g id="node12" class="node">
<title>Node25</title>
<g id="a_node12"><a xlink:href="hmac-sha256_8h.html#acdadc130fbf78b5f98339c203a057796" target="_top" xlink:title="hmac_sha256">
<polygon fill="#ffffff" stroke="#000000" points="353.5,-57.5 353.5,-76.5 417.5,-76.5 417.5,-57.5 353.5,-57.5"/>
<text text-anchor="middle" x="385.5" y="-64.5" font-family="Helvetica,sans-Serif" font-size="10.00" fill="#000000">hmac_sha256</text>
</a>
</g>
</g>
<!-- Node15&#45;&gt;Node25 -->
<g id="edge12" class="edge">
<title>Node15&#45;&gt;Node25</title>
<path fill="none" stroke="#191970" d="M277.0941,-110.8224C281.8123,-108.9588 286.5456,-106.9952 291,-105 307.511,-97.6044 310.3353,-93.0424 327,-86 335.3608,-82.4668 344.6188,-79.1852 353.2565,-76.3776"/>
<polygon fill="#191970" stroke="#191970" points="275.6127,-107.6417 267.5245,-114.485 278.1149,-114.1792 275.6127,-107.6417"/>
</g>
<!-- Node18 -->
<g id="node5" class="node">
<title>Node18</title>
<g id="a_node5"><a xlink:href="en61107__request_8c.html#aa3b162cf5364986ea19e831ac2b18f76" target="_top" xlink:title="en61107_received_task">
<polygon fill="#ffffff" stroke="#000000" points="480,-152.5 480,-171.5 576,-171.5 576,-152.5 480,-152.5"/>
<text text-anchor="middle" x="528" y="-159.5" font-family="Helvetica,sans-Serif" font-size="10.00" fill="#000000">en61107_received_task</text>
</a>
</g>
</g>
<!-- Node17&#45;&gt;Node18 -->
<g id="edge4" class="edge">
<title>Node17&#45;&gt;Node18</title>
<path fill="none" stroke="#191970" d="M428.0348,-117.8628C433.4607,-119.7811 438.8974,-121.8437 444,-124 460.6647,-131.0424 463.5648,-135.4373 480,-143 487.1648,-146.2969 495.0757,-149.5723 502.3731,-152.4514"/>
<polygon fill="#191970" stroke="#191970" points="428.9486,-114.4769 418.3542,-114.5766 426.6984,-121.1054 428.9486,-114.4769"/>
</g>
<!-- Node20 -->
<g id="node7" class="node">
<title>Node20</title>
<g id="a_node7"><a xlink:href="en61107__request_8h.html#a7384d014eb9e833f64ecf4a9f86f87be" target="_top" xlink:title="en61107_request_send">
<polygon fill="#ffffff" stroke="#000000" points="480.5,-114.5 480.5,-133.5 575.5,-133.5 575.5,-114.5 480.5,-114.5"/>
<text text-anchor="middle" x="528" y="-121.5" font-family="Helvetica,sans-Serif" font-size="10.00" fill="#000000">en61107_request_send</text>
</a>
</g>
</g>
<!-- Node17&#45;&gt;Node20 -->
<g id="edge6" class="edge">
<title>Node17&#45;&gt;Node20</title>
<path fill="none" stroke="#191970" d="M454.4577,-114.1944C463.1696,-115.3559 471.9272,-116.5236 480.2089,-117.6279"/>
<polygon fill="#191970" stroke="#191970" points="454.6578,-110.6901 444.2829,-112.8377 453.7326,-117.6287 454.6578,-110.6901"/>
</g>
<!-- Node21 -->
<g id="node8" class="node">
<title>Node21</title>
<g id="a_node8"><a xlink:href="kmp__request_8c.html#a3f6b790a06b933b78f40ade5e9a16131" target="_top" xlink:title="kmp_received_task">
<polygon fill="#ffffff" stroke="#000000" points="487.5,-76.5 487.5,-95.5 568.5,-95.5 568.5,-76.5 487.5,-76.5"/>
<text text-anchor="middle" x="528" y="-83.5" font-family="Helvetica,sans-Serif" font-size="10.00" fill="#000000">kmp_received_task</text>
</a>
</g>
</g>
<!-- Node17&#45;&gt;Node21 -->
<g id="edge7" class="edge">
<title>Node17&#45;&gt;Node21</title>
<path fill="none" stroke="#191970" d="M454.5014,-95.7998C465.6853,-94.3086 476.9431,-92.8076 487.1712,-91.4438"/>
<polygon fill="#191970" stroke="#191970" points="453.7326,-92.3713 444.2829,-97.1623 454.6578,-99.3099 453.7326,-92.3713"/>
</g>
<!-- Node23 -->
<g id="node10" class="node">
<title>Node23</title>
<g id="a_node10"><a xlink:href="kmp__request_8h.html#a3b022dcdc832786eb06126b5e6879604" target="_top" xlink:title="kmp_request_send">
<polygon fill="#ffffff" stroke="#000000" points="488,-35.5 488,-54.5 568,-54.5 568,-35.5 488,-35.5"/>
<text text-anchor="middle" x="528" y="-42.5" font-family="Helvetica,sans-Serif" font-size="10.00" fill="#000000">kmp_request_send</text>
</a>
</g>
</g>
<!-- Node17&#45;&gt;Node23 -->
<g id="edge9" class="edge">
<title>Node17&#45;&gt;Node23</title>
<path fill="none" stroke="#191970" d="M428.0348,-92.1372C433.4607,-90.2189 438.8974,-88.1563 444,-86 460.6647,-78.9576 463.7704,-74.9943 480,-67 488.5524,-62.7873 498.0778,-58.3666 506.3742,-54.6021"/>
<polygon fill="#191970" stroke="#191970" points="426.6984,-88.8946 418.3542,-95.4234 428.9486,-95.5231 426.6984,-88.8946"/>
</g>
<!-- Node19 -->
<g id="node6" class="node">
<title>Node19</title>
<g id="a_node6"><a xlink:href="en61107__request_8h.html#acd43242675a3f25e7c3b530eac9d8b3a" target="_top" xlink:title="en61107_request_init">
<polygon fill="#ffffff" stroke="#000000" points="612,-152.5 612,-171.5 701,-171.5 701,-152.5 612,-152.5"/>
<text text-anchor="middle" x="656.5" y="-159.5" font-family="Helvetica,sans-Serif" font-size="10.00" fill="#000000">en61107_request_init</text>
</a>
</g>
</g>
<!-- Node18&#45;&gt;Node19 -->
<g id="edge5" class="edge">
<title>Node18&#45;&gt;Node19</title>
<path fill="none" stroke="#191970" d="M586.4911,-162C595.0049,-162 603.6547,-162 611.8359,-162"/>
<polygon fill="#191970" stroke="#191970" points="586.2143,-158.5001 576.2143,-162 586.2142,-165.5001 586.2143,-158.5001"/>
</g>
<!-- Node22 -->
<g id="node9" class="node">
<title>Node22</title>
<g id="a_node9"><a xlink:href="kmp__request_8h.html#a048753ff9d6b448e2dcd8c85db0d6873" target="_top" xlink:title="kmp_request_init">
<polygon fill="#ffffff" stroke="#000000" points="619.5,-79.5 619.5,-98.5 693.5,-98.5 693.5,-79.5 619.5,-79.5"/>
<text text-anchor="middle" x="656.5" y="-86.5" font-family="Helvetica,sans-Serif" font-size="10.00" fill="#000000">kmp_request_init</text>
</a>
</g>
</g>
<!-- Node21&#45;&gt;Node22 -->
<g id="edge8" class="edge">
<title>Node21&#45;&gt;Node22</title>
<path fill="none" stroke="#191970" d="M578.7607,-87.1851C592.2375,-87.4997 606.5435,-87.8337 619.1599,-88.1282"/>
<polygon fill="#191970" stroke="#191970" points="578.7372,-83.6837 568.6582,-86.9492 578.5738,-90.6818 578.7372,-83.6837"/>
</g>
<!-- Node24 -->
<g id="node11" class="node">
<title>Node24</title>
<g id="a_node11"><a xlink:href="kmp__request_8c.html#a0977a4640a97d389ac3b0fef0ba7a9b6" target="_top" xlink:title="kmp_receive_timeout\l_timer_func">
<polygon fill="#ffffff" stroke="#000000" points="612.5,-30 612.5,-60 700.5,-60 700.5,-30 612.5,-30"/>
<text text-anchor="start" x="620.5" y="-48" font-family="Helvetica,sans-Serif" font-size="10.00" fill="#000000">kmp_receive_timeout</text>
<text text-anchor="middle" x="656.5" y="-37" font-family="Helvetica,sans-Serif" font-size="10.00" fill="#000000">_timer_func</text>
</a>
</g>
</g>
<!-- Node23&#45;&gt;Node24 -->
<g id="edge10" class="edge">
<title>Node23&#45;&gt;Node24</title>
<path fill="none" stroke="#191970" d="M578.3879,-38.3916C589.5926,-38.1594 601.3879,-38.2128 612.3211,-38.5517"/>
<polygon fill="#191970" stroke="#191970" points="578.1995,-34.8955 568.3056,-38.6852 578.4033,-41.8926 578.1995,-34.8955"/>
</g>
<!-- Node24&#45;&gt;Node23 -->
<g id="edge11" class="edge">
<title>Node24&#45;&gt;Node23</title>
<path fill="none" stroke="#191970" d="M602.0797,-51.6793C590.7548,-51.8434 579.0126,-51.7219 568.3056,-51.3148"/>
<polygon fill="#191970" stroke="#191970" points="602.4026,-55.173 612.3211,-51.4483 602.2447,-48.1748 602.4026,-55.173"/>
</g>
<!-- Node27 -->
<g id="node14" class="node">
<title>Node27</title>
<g id="a_node14"><a xlink:href="sha256_8h.html#ac7c8a54223a5ad418d26d8b47de9b2ca" target="_top" xlink:title="sha256_data">
<polygon fill="#ffffff" stroke="#000000" points="210,-.5 210,-19.5 270,-19.5 270,-.5 210,-.5"/>
<text text-anchor="middle" x="240" y="-7.5" font-family="Helvetica,sans-Serif" font-size="10.00" fill="#000000">sha256_data</text>
</a>
</g>
</g>
<!-- Node26&#45;&gt;Node27 -->
<g id="edge14" class="edge">
<title>Node26&#45;&gt;Node27</title>
<path fill="none" stroke="#191970" d="M163.4348,-15.9404C178.6397,-14.7607 195.7475,-13.4334 209.9291,-12.3331"/>
<polygon fill="#191970" stroke="#191970" points="162.971,-12.4658 153.2717,-16.7289 163.5125,-19.4448 162.971,-12.4658"/>
</g>
<!-- Node29 -->
<g id="node16" class="node">
<title>Node29</title>
<g id="a_node16"><a xlink:href="crypto_8h.html#adcbe39568432d42d61fed9ce126d330b" target="_top" xlink:title="init_aes_hmac_combined">
<polygon fill="#ffffff" stroke="#000000" points="189,-38.5 189,-57.5 291,-57.5 291,-38.5 189,-38.5"/>
<text text-anchor="middle" x="240" y="-45.5" font-family="Helvetica,sans-Serif" font-size="10.00" fill="#000000">init_aes_hmac_combined</text>
</a>
</g>
</g>
<!-- Node28&#45;&gt;Node29 -->
<g id="edge16" class="edge">
<title>Node28&#45;&gt;Node29</title>
<path fill="none" stroke="#191970" d="M162.7879,-53.9906C171.0679,-53.3482 179.9368,-52.6601 188.6062,-51.9874"/>
<polygon fill="#191970" stroke="#191970" points="162.3734,-50.5121 152.6742,-54.7753 162.915,-57.4912 162.3734,-50.5121"/>
</g>
<!-- Node30 -->
<g id="node17" class="node">
<title>Node30</title>
<g id="a_node17"><a xlink:href="hmac-sha256_8h.html#a553a08d76959d7d64d25927fa418af1f" target="_top" xlink:title="hmac_sha256_init">
<polygon fill="#ffffff" stroke="#000000" points="201.5,-76.5 201.5,-95.5 278.5,-95.5 278.5,-76.5 201.5,-76.5"/>
<text text-anchor="middle" x="240" y="-83.5" font-family="Helvetica,sans-Serif" font-size="10.00" fill="#000000">hmac_sha256_init</text>
</a>
</g>
</g>
<!-- Node28&#45;&gt;Node30 -->
<g id="edge17" class="edge">
<title>Node28&#45;&gt;Node30</title>
<path fill="none" stroke="#191970" d="M162.4203,-66.6051C175.0122,-69.753 188.999,-73.2498 201.5902,-76.3975"/>
<polygon fill="#191970" stroke="#191970" points="163.2245,-63.1985 152.6742,-64.1685 161.5267,-69.9895 163.2245,-63.1985"/>
</g>
<!-- Node30&#45;&gt;Node16 -->
<g id="edge18" class="edge">
<title>Node30&#45;&gt;Node16</title>
<path fill="none" stroke="#191970" d="M277.0941,-99.1776C281.8123,-101.0412 286.5456,-103.0048 291,-105 307.511,-112.3956 310.3353,-116.9576 327,-124 335.1641,-127.4501 344.1837,-130.6602 352.6458,-133.4234"/>
<polygon fill="#191970" stroke="#191970" points="278.1149,-95.8208 267.5245,-95.515 275.6127,-102.3583 278.1149,-95.8208"/>
</g>
<!-- Node30&#45;&gt;Node17 -->
<g id="edge19" class="edge">
<title>Node30&#45;&gt;Node17</title>
<path fill="none" stroke="#191970" d="M288.6481,-92.3527C300.9312,-93.9566 314.2477,-95.6956 326.9616,-97.3558"/>
<polygon fill="#191970" stroke="#191970" points="288.9784,-88.8662 278.6093,-91.0418 288.0719,-95.8072 288.9784,-88.8662"/>
</g>
<!-- Node30&#45;&gt;Node25 -->
<g id="edge20" class="edge">
<title>Node30&#45;&gt;Node25</title>
<path fill="none" stroke="#191970" d="M288.7319,-79.6364C309.9283,-76.8685 334.1887,-73.7004 353.1157,-71.2289"/>
<polygon fill="#191970" stroke="#191970" points="288.0719,-76.1928 278.6093,-80.9582 288.9784,-83.1338 288.0719,-76.1928"/>
</g>
</g>
</svg>
