<?xml version="1.0" encoding="UTF-8" standalone="no"?>
<!DOCTYPE svg PUBLIC "-//W3C//DTD SVG 1.1//EN"
 "http://www.w3.org/Graphics/SVG/1.1/DTD/svg11.dtd">
<!-- Generated by graphviz version 2.40.1 (20161225.0304)
 -->
<!-- Title: sha256_raw Pages: 1 -->
<svg width="613pt" height="151pt"
 viewBox="0.00 0.00 613.00 150.50" xmlns="http://www.w3.org/2000/svg" xmlns:xlink="http://www.w3.org/1999/xlink">
<g id="graph0" class="graph" transform="scale(1 1) rotate(0) translate(4 146.5)">
<title>sha256_raw</title>
<polygon fill="#ffffff" stroke="transparent" points="-4,4 -4,-146.5 609,-146.5 609,4 -4,4"/>
<!-- Node53 -->
<g id="node1" class="node">
<title>Node53</title>
<polygon fill="#bfbfbf" stroke="#000000" points="0,-47 0,-66 57,-66 57,-47 0,-47"/>
<text text-anchor="middle" x="28.5" y="-54" font-family="Helvetica,sans-Serif" font-size="10.00" fill="#000000">sha256_raw</text>
</g>
<!-- Node54 -->
<g id="node2" class="node">
<title>Node54</title>
<g id="a_node2"><a xlink:href="hmac-sha256_8h.html#a553a08d76959d7d64d25927fa418af1f" target="_top" xlink:title="hmac_sha256_init">
<polygon fill="#ffffff" stroke="#000000" points="105.5,-66 105.5,-85 182.5,-85 182.5,-66 105.5,-66"/>
<text text-anchor="middle" x="144" y="-73" font-family="Helvetica,sans-Serif" font-size="10.00" fill="#000000">hmac_sha256_init</text>
</a>
</g>
</g>
<!-- Node53&#45;&gt;Node54 -->
<g id="edge1" class="edge">
<title>Node53&#45;&gt;Node54</title>
<path fill="none" stroke="#191970" d="M67.0325,-62.8387C79.3531,-64.8654 92.9909,-67.1089 105.3218,-69.1374"/>
<polygon fill="#191970" stroke="#191970" points="67.4861,-59.3663 57.0506,-61.1966 66.3498,-66.2735 67.4861,-59.3663"/>
</g>
<!-- Node65 -->
<g id="node13" class="node">
<title>Node65</title>
<g id="a_node13"><a xlink:href="crypto_8h.html#adcbe39568432d42d61fed9ce126d330b" target="_top" xlink:title="init_aes_hmac_combined">
<polygon fill="#ffffff" stroke="#000000" points="93,-28 93,-47 195,-47 195,-28 93,-28"/>
<text text-anchor="middle" x="144" y="-35" font-family="Helvetica,sans-Serif" font-size="10.00" fill="#000000">init_aes_hmac_combined</text>
</a>
</g>
</g>
<!-- Node53&#45;&gt;Node65 -->
<g id="edge13" class="edge">
<title>Node53&#45;&gt;Node65</title>
<path fill="none" stroke="#191970" d="M67.1207,-50.1468C75.365,-48.7906 84.1957,-47.3379 92.8277,-45.9179"/>
<polygon fill="#191970" stroke="#191970" points="66.3498,-46.7265 57.0506,-51.8034 67.4861,-53.6337 66.3498,-46.7265"/>
</g>
<!-- Node55 -->
<g id="node3" class="node">
<title>Node55</title>
<g id="a_node3"><a xlink:href="crypto_8h.html#a0d1e89f74b522d69161f6b213fc5abc7" target="_top" xlink:title="decrypt_aes_hmac_combined">
<polygon fill="#ffffff" stroke="#000000" points="231,-104 231,-123 348,-123 348,-104 231,-104"/>
<text text-anchor="middle" x="289.5" y="-111" font-family="Helvetica,sans-Serif" font-size="10.00" fill="#000000">decrypt_aes_hmac_combined</text>
</a>
</g>
</g>
<!-- Node54&#45;&gt;Node55 -->
<g id="edge2" class="edge">
<title>Node54&#45;&gt;Node55</title>
<path fill="none" stroke="#191970" d="M190.6532,-87.6843C210.8534,-92.96 234.1481,-99.0438 253.0482,-103.9799"/>
<polygon fill="#191970" stroke="#191970" points="191.2757,-84.2296 180.7158,-85.089 189.5068,-91.0024 191.2757,-84.2296"/>
</g>
<!-- Node56 -->
<g id="node4" class="node">
<title>Node56</title>
<g id="a_node4"><a xlink:href="crypto_8h.html#a7991ec94c8faa24921947687f2d587a0" target="_top" xlink:title="encrypt_aes_hmac_combined">
<polygon fill="#ffffff" stroke="#000000" points="231,-66 231,-85 348,-85 348,-66 231,-66"/>
<text text-anchor="middle" x="289.5" y="-73" font-family="Helvetica,sans-Serif" font-size="10.00" fill="#000000">encrypt_aes_hmac_combined</text>
</a>
</g>
</g>
<!-- Node54&#45;&gt;Node56 -->
<g id="edge3" class="edge">
<title>Node54&#45;&gt;Node56</title>
<path fill="none" stroke="#191970" d="M192.6481,-75.5C204.9312,-75.5 218.2477,-75.5 230.9616,-75.5"/>
<polygon fill="#191970" stroke="#191970" points="192.6094,-72.0001 182.6093,-75.5 192.6093,-79.0001 192.6094,-72.0001"/>
</g>
<!-- Node64 -->
<g id="node12" class="node">
<title>Node64</title>
<g id="a_node12"><a xlink:href="hmac-sha256_8h.html#acdadc130fbf78b5f98339c203a057796" target="_top" xlink:title="hmac_sha256">
<polygon fill="#ffffff" stroke="#000000" points="257.5,-28 257.5,-47 321.5,-47 321.5,-28 257.5,-28"/>
<text text-anchor="middle" x="289.5" y="-35" font-family="Helvetica,sans-Serif" font-size="10.00" fill="#000000">hmac_sha256</text>
</a>
</g>
</g>
<!-- Node54&#45;&gt;Node64 -->
<g id="edge12" class="edge">
<title>Node54&#45;&gt;Node64</title>
<path fill="none" stroke="#191970" d="M190.4313,-63.3736C212.2073,-57.6864 237.6194,-51.0496 257.254,-45.9216"/>
<polygon fill="#191970" stroke="#191970" points="189.5068,-59.9976 180.7158,-65.911 191.2757,-66.7704 189.5068,-59.9976"/>
</g>
<!-- Node57 -->
<g id="node5" class="node">
<title>Node57</title>
<g id="a_node5"><a xlink:href="en61107__request_8c.html#aa3b162cf5364986ea19e831ac2b18f76" target="_top" xlink:title="en61107_received_task">
<polygon fill="#ffffff" stroke="#000000" points="384,-123 384,-142 480,-142 480,-123 384,-123"/>
<text text-anchor="middle" x="432" y="-130" font-family="Helvetica,sans-Serif" font-size="10.00" fill="#000000">en61107_received_task</text>
</a>
</g>
</g>
<!-- Node56&#45;&gt;Node57 -->
<g id="edge4" class="edge">
<title>Node56&#45;&gt;Node57</title>
<path fill="none" stroke="#191970" d="M332.0348,-88.3628C337.4607,-90.2811 342.8974,-92.3437 348,-94.5 364.6647,-101.5424 367.5648,-105.9373 384,-113.5 391.1648,-116.7969 399.0757,-120.0723 406.3731,-122.9514"/>
<polygon fill="#191970" stroke="#191970" points="332.9486,-84.9769 322.3542,-85.0766 330.6984,-91.6054 332.9486,-84.9769"/>
</g>
<!-- Node59 -->
<g id="node7" class="node">
<title>Node59</title>
<g id="a_node7"><a xlink:href="en61107__request_8h.html#a7384d014eb9e833f64ecf4a9f86f87be" target="_top" xlink:title="en61107_request_send">
<polygon fill="#ffffff" stroke="#000000" points="384.5,-85 384.5,-104 479.5,-104 479.5,-85 384.5,-85"/>
<text text-anchor="middle" x="432" y="-92" font-family="Helvetica,sans-Serif" font-size="10.00" fill="#000000">en61107_request_send</text>
</a>
</g>
</g>
<!-- Node56&#45;&gt;Node59 -->
<g id="edge6" class="edge">
<title>Node56&#45;&gt;Node59</title>
<path fill="none" stroke="#191970" d="M358.4577,-84.6944C367.1696,-85.8559 375.9272,-87.0236 384.2089,-88.1279"/>
<polygon fill="#191970" stroke="#191970" points="358.6578,-81.1901 348.2829,-83.3377 357.7326,-88.1287 358.6578,-81.1901"/>
</g>
<!-- Node60 -->
<g id="node8" class="node">
<title>Node60</title>
<g id="a_node8"><a xlink:href="kmp__request_8c.html#a3f6b790a06b933b78f40ade5e9a16131" target="_top" xlink:title="kmp_received_task">
<polygon fill="#ffffff" stroke="#000000" points="391.5,-47 391.5,-66 472.5,-66 472.5,-47 391.5,-47"/>
<text text-anchor="middle" x="432" y="-54" font-family="Helvetica,sans-Serif" font-size="10.00" fill="#000000">kmp_received_task</text>
</a>
</g>
</g>
<!-- Node56&#45;&gt;Node60 -->
<g id="edge7" class="edge">
<title>Node56&#45;&gt;Node60</title>
<path fill="none" stroke="#191970" d="M358.5014,-66.2998C369.6853,-64.8086 380.9431,-63.3076 391.1712,-61.9438"/>
<polygon fill="#191970" stroke="#191970" points="357.7326,-62.8713 348.2829,-67.6623 358.6578,-69.8099 357.7326,-62.8713"/>
</g>
<!-- Node62 -->
<g id="node10" class="node">
<title>Node62</title>
<g id="a_node10"><a xlink:href="kmp__request_8h.html#a3b022dcdc832786eb06126b5e6879604" target="_top" xlink:title="kmp_request_send">
<polygon fill="#ffffff" stroke="#000000" points="392,-6 392,-25 472,-25 472,-6 392,-6"/>
<text text-anchor="middle" x="432" y="-13" font-family="Helvetica,sans-Serif" font-size="10.00" fill="#000000">kmp_request_send</text>
</a>
</g>
</g>
<!-- Node56&#45;&gt;Node62 -->
<g id="edge9" class="edge">
<title>Node56&#45;&gt;Node62</title>
<path fill="none" stroke="#191970" d="M332.0348,-62.6372C337.4607,-60.7189 342.8974,-58.6563 348,-56.5 364.6647,-49.4576 367.7704,-45.4943 384,-37.5 392.5524,-33.2873 402.0778,-28.8666 410.3742,-25.1021"/>
<polygon fill="#191970" stroke="#191970" points="330.6984,-59.3946 322.3542,-65.9234 332.9486,-66.0231 330.6984,-59.3946"/>
</g>
<!-- Node58 -->
<g id="node6" class="node">
<title>Node58</title>
<g id="a_node6"><a xlink:href="en61107__request_8h.html#acd43242675a3f25e7c3b530eac9d8b3a" target="_top" xlink:title="en61107_request_init">
<polygon fill="#ffffff" stroke="#000000" points="516,-123 516,-142 605,-142 605,-123 516,-123"/>
<text text-anchor="middle" x="560.5" y="-130" font-family="Helvetica,sans-Serif" font-size="10.00" fill="#000000">en61107_request_init</text>
</a>
</g>
</g>
<!-- Node57&#45;&gt;Node58 -->
<g id="edge5" class="edge">
<title>Node57&#45;&gt;Node58</title>
<path fill="none" stroke="#191970" d="M490.4911,-132.5C499.0049,-132.5 507.6547,-132.5 515.8359,-132.5"/>
<polygon fill="#191970" stroke="#191970" points="490.2143,-129.0001 480.2143,-132.5 490.2142,-136.0001 490.2143,-129.0001"/>
</g>
<!-- Node61 -->
<g id="node9" class="node">
<title>Node61</title>
<g id="a_node9"><a xlink:href="kmp__request_8h.html#a048753ff9d6b448e2dcd8c85db0d6873" target="_top" xlink:title="kmp_request_init">
<polygon fill="#ffffff" stroke="#000000" points="523.5,-50 523.5,-69 597.5,-69 597.5,-50 523.5,-50"/>
<text text-anchor="middle" x="560.5" y="-57" font-family="Helvetica,sans-Serif" font-size="10.00" fill="#000000">kmp_request_init</text>
</a>
</g>
</g>
<!-- Node60&#45;&gt;Node61 -->
<g id="edge8" class="edge">
<title>Node60&#45;&gt;Node61</title>
<path fill="none" stroke="#191970" d="M482.7607,-57.6851C496.2375,-57.9997 510.5435,-58.3337 523.1599,-58.6282"/>
<polygon fill="#191970" stroke="#191970" points="482.7372,-54.1837 472.6582,-57.4492 482.5738,-61.1818 482.7372,-54.1837"/>
</g>
<!-- Node63 -->
<g id="node11" class="node">
<title>Node63</title>
<g id="a_node11"><a xlink:href="kmp__request_8c.html#a0977a4640a97d389ac3b0fef0ba7a9b6" target="_top" xlink:title="kmp_receive_timeout\l_timer_func">
<polygon fill="#ffffff" stroke="#000000" points="516.5,-.5 516.5,-30.5 604.5,-30.5 604.5,-.5 516.5,-.5"/>
<text text-anchor="start" x="524.5" y="-18.5" font-family="Helvetica,sans-Serif" font-size="10.00" fill="#000000">kmp_receive_timeout</text>
<text text-anchor="middle" x="560.5" y="-7.5" font-family="Helvetica,sans-Serif" font-size="10.00" fill="#000000">_timer_func</text>
</a>
</g>
</g>
<!-- Node62&#45;&gt;Node63 -->
<g id="edge10" class="edge">
<title>Node62&#45;&gt;Node63</title>
<path fill="none" stroke="#191970" d="M482.3879,-8.8916C493.5926,-8.6594 505.3879,-8.7128 516.3211,-9.0517"/>
<polygon fill="#191970" stroke="#191970" points="482.1995,-5.3955 472.3056,-9.1852 482.4033,-12.3926 482.1995,-5.3955"/>
</g>
<!-- Node63&#45;&gt;Node62 -->
<g id="edge11" class="edge">
<title>Node63&#45;&gt;Node62</title>
<path fill="none" stroke="#191970" d="M506.0797,-22.1793C494.7548,-22.3434 483.0126,-22.2219 472.3056,-21.8148"/>
<polygon fill="#191970" stroke="#191970" points="506.4026,-25.673 516.3211,-21.9483 506.2447,-18.6748 506.4026,-25.673"/>
</g>
</g>
</svg>
