<?xml version="1.0" encoding="UTF-8" standalone="no"?>
<!DOCTYPE svg PUBLIC "-//W3C//DTD SVG 1.1//EN"
 "http://www.w3.org/Graphics/SVG/1.1/DTD/svg11.dtd">
<!-- Generated by graphviz version 2.40.1 (20161225.0304)
 -->
<!-- Title: esp&#45;open&#45;lwip/include/lwip/snmp.h Pages: 1 -->
<svg width="312pt" height="543pt"
 viewBox="0.00 0.00 312.00 543.00" xmlns="http://www.w3.org/2000/svg" xmlns:xlink="http://www.w3.org/1999/xlink">
<g id="graph0" class="graph" transform="scale(1 1) rotate(0) translate(4 539)">
<title>esp&#45;open&#45;lwip/include/lwip/snmp.h</title>
<polygon fill="#ffffff" stroke="transparent" points="-4,4 -4,-539 308,-539 308,4 -4,4"/>
<!-- Node0 -->
<g id="node1" class="node">
<title>Node0</title>
<polygon fill="#bfbfbf" stroke="#000000" points="48.5,-504.5 48.5,-534.5 137.5,-534.5 137.5,-504.5 48.5,-504.5"/>
<text text-anchor="start" x="56.5" y="-522.5" font-family="Helvetica,sans-Serif" font-size="10.00" fill="#000000">esp&#45;open&#45;lwip/include</text>
<text text-anchor="middle" x="93" y="-511.5" font-family="Helvetica,sans-Serif" font-size="10.00" fill="#000000">/lwip/snmp.h</text>
</g>
<!-- Node1 -->
<g id="node2" class="node">
<title>Node1</title>
<g id="a_node2"><a xlink:href="opt_8h.html" target="_top" xlink:title="lwip/opt.h">
<polygon fill="#ffffff" stroke="#000000" points="74,-336.5 74,-355.5 122,-355.5 122,-336.5 74,-336.5"/>
<text text-anchor="middle" x="98" y="-343.5" font-family="Helvetica,sans-Serif" font-size="10.00" fill="#000000">lwip/opt.h</text>
</a>
</g>
</g>
<!-- Node0&#45;&gt;Node1 -->
<g id="edge1" class="edge">
<title>Node0&#45;&gt;Node1</title>
<path fill="none" stroke="#191970" d="M88.8757,-504.3118C86.3287,-494.1271 83.3058,-480.3652 82,-468 78.1674,-431.708 86.5752,-389.5235 92.5935,-365.4727"/>
<polygon fill="#191970" stroke="#191970" points="95.9828,-366.3458 95.1379,-355.7847 89.2124,-364.5676 95.9828,-366.3458"/>
</g>
<!-- Node14 -->
<g id="node15" class="node">
<title>Node14</title>
<g id="a_node15"><a xlink:href="esp-open-lwip_2include_2lwip_2ip__addr_8h.html" target="_top" xlink:title="lwip/ip_addr.h">
<polygon fill="#ffffff" stroke="#000000" points="91.5,-448.5 91.5,-467.5 154.5,-467.5 154.5,-448.5 91.5,-448.5"/>
<text text-anchor="middle" x="123" y="-455.5" font-family="Helvetica,sans-Serif" font-size="10.00" fill="#000000">lwip/ip_addr.h</text>
</a>
</g>
</g>
<!-- Node0&#45;&gt;Node14 -->
<g id="edge15" class="edge">
<title>Node0&#45;&gt;Node14</title>
<path fill="none" stroke="#191970" d="M100.4157,-504.2977C104.4499,-496.0277 109.4773,-485.7215 113.764,-476.9339"/>
<polygon fill="#191970" stroke="#191970" points="116.958,-478.3691 118.1966,-467.8469 110.6666,-475.3001 116.958,-478.3691"/>
</g>
<!-- Node2 -->
<g id="node3" class="node">
<title>Node2</title>
<g id="a_node3"><a xlink:href="lwipopts_8h.html" target="_top" xlink:title="lwipopts.h">
<polygon fill="#ffffff" stroke="#000000" points="0,-280.5 0,-299.5 50,-299.5 50,-280.5 0,-280.5"/>
<text text-anchor="middle" x="25" y="-287.5" font-family="Helvetica,sans-Serif" font-size="10.00" fill="#000000">lwipopts.h</text>
</a>
</g>
</g>
<!-- Node1&#45;&gt;Node2 -->
<g id="edge2" class="edge">
<title>Node1&#45;&gt;Node2</title>
<path fill="none" stroke="#191970" d="M85.2844,-336.2455C74.398,-327.8943 58.5117,-315.7076 45.78,-305.9408"/>
<polygon fill="#191970" stroke="#191970" points="47.6346,-302.9523 37.5699,-299.6427 43.3739,-308.5063 47.6346,-302.9523"/>
</g>
<!-- Node3 -->
<g id="node4" class="node">
<title>Node3</title>
<g id="a_node4"><a xlink:href="esp-open-sdk_2esp-open-lwip_2include_2lwip_2debug_8h.html" target="_top" xlink:title="lwip/debug.h">
<polygon fill="#ffffff" stroke="#000000" points="68.5,-280.5 68.5,-299.5 127.5,-299.5 127.5,-280.5 68.5,-280.5"/>
<text text-anchor="middle" x="98" y="-287.5" font-family="Helvetica,sans-Serif" font-size="10.00" fill="#000000">lwip/debug.h</text>
</a>
</g>
</g>
<!-- Node1&#45;&gt;Node3 -->
<g id="edge3" class="edge">
<title>Node1&#45;&gt;Node3</title>
<path fill="none" stroke="#191970" d="M98,-336.2455C98,-328.9382 98,-318.6944 98,-309.7046"/>
<polygon fill="#191970" stroke="#191970" points="101.5001,-309.6426 98,-299.6427 94.5001,-309.6427 101.5001,-309.6426"/>
</g>
<!-- Node4 -->
<g id="node5" class="node">
<title>Node4</title>
<g id="a_node5"><a xlink:href="arch_8h.html" target="_top" xlink:title="lwip/arch.h">
<polygon fill="#ffffff" stroke="#000000" points="101,-224.5 101,-243.5 153,-243.5 153,-224.5 101,-224.5"/>
<text text-anchor="middle" x="127" y="-231.5" font-family="Helvetica,sans-Serif" font-size="10.00" fill="#000000">lwip/arch.h</text>
</a>
</g>
</g>
<!-- Node3&#45;&gt;Node4 -->
<g id="edge4" class="edge">
<title>Node3&#45;&gt;Node4</title>
<path fill="none" stroke="#191970" d="M103.0514,-280.2455C107.0019,-272.617 112.6097,-261.7881 117.4058,-252.5267"/>
<polygon fill="#191970" stroke="#191970" points="120.5159,-254.1321 122.0065,-243.6427 114.2999,-250.9131 120.5159,-254.1321"/>
</g>
<!-- Node5 -->
<g id="node6" class="node">
<title>Node5</title>
<g id="a_node6"><a xlink:href="cc_8h.html" target="_top" xlink:title="arch/cc.h">
<polygon fill="#ffffff" stroke="#000000" points="103.5,-168.5 103.5,-187.5 150.5,-187.5 150.5,-168.5 103.5,-168.5"/>
<text text-anchor="middle" x="127" y="-175.5" font-family="Helvetica,sans-Serif" font-size="10.00" fill="#000000">arch/cc.h</text>
</a>
</g>
</g>
<!-- Node4&#45;&gt;Node5 -->
<g id="edge5" class="edge">
<title>Node4&#45;&gt;Node5</title>
<path fill="none" stroke="#191970" d="M127,-224.2455C127,-216.9382 127,-206.6944 127,-197.7046"/>
<polygon fill="#191970" stroke="#191970" points="130.5001,-197.6426 127,-187.6427 123.5001,-197.6427 130.5001,-197.6426"/>
</g>
<!-- Node6 -->
<g id="node7" class="node">
<title>Node6</title>
<g id="a_node7"><a xlink:href="c__types_8h.html" target="_top" xlink:title="c_types.h">
<polygon fill="#ffffff" stroke="#000000" points="40.5,-56.5 40.5,-75.5 89.5,-75.5 89.5,-56.5 40.5,-56.5"/>
<text text-anchor="middle" x="65" y="-63.5" font-family="Helvetica,sans-Serif" font-size="10.00" fill="#000000">c_types.h</text>
</a>
</g>
</g>
<!-- Node5&#45;&gt;Node6 -->
<g id="edge6" class="edge">
<title>Node5&#45;&gt;Node6</title>
<path fill="none" stroke="#191970" d="M119.0285,-168.1738C111.9157,-159.1247 101.4965,-145.1492 94,-132 85.3916,-116.9004 77.5887,-98.7604 72.2507,-85.3224"/>
<polygon fill="#191970" stroke="#191970" points="75.4013,-83.7657 68.5299,-75.7013 68.8726,-86.2906 75.4013,-83.7657"/>
</g>
<!-- Node9 -->
<g id="node10" class="node">
<title>Node9</title>
<g id="a_node10"><a xlink:href="ets__sys_8h.html" target="_top" xlink:title="ets_sys.h">
<polygon fill="#ffffff" stroke="#000000" points="103,-112.5 103,-131.5 151,-131.5 151,-112.5 103,-112.5"/>
<text text-anchor="middle" x="127" y="-119.5" font-family="Helvetica,sans-Serif" font-size="10.00" fill="#000000">ets_sys.h</text>
</a>
</g>
</g>
<!-- Node5&#45;&gt;Node9 -->
<g id="edge9" class="edge">
<title>Node5&#45;&gt;Node9</title>
<path fill="none" stroke="#191970" d="M127,-168.2455C127,-160.9382 127,-150.6944 127,-141.7046"/>
<polygon fill="#191970" stroke="#191970" points="130.5001,-141.6426 127,-131.6427 123.5001,-141.6427 130.5001,-141.6426"/>
</g>
<!-- Node11 -->
<g id="node12" class="node">
<title>Node11</title>
<g id="a_node12"><a xlink:href="osapi_8h.html" target="_top" xlink:title="osapi.h">
<polygon fill="#ffffff" stroke="#000000" points="182.5,-112.5 182.5,-131.5 223.5,-131.5 223.5,-112.5 182.5,-112.5"/>
<text text-anchor="middle" x="203" y="-119.5" font-family="Helvetica,sans-Serif" font-size="10.00" fill="#000000">osapi.h</text>
</a>
</g>
</g>
<!-- Node5&#45;&gt;Node11 -->
<g id="edge12" class="edge">
<title>Node5&#45;&gt;Node11</title>
<path fill="none" stroke="#191970" d="M140.2382,-168.2455C151.681,-159.814 168.4296,-147.4729 181.7475,-137.6598"/>
<polygon fill="#191970" stroke="#191970" points="183.9391,-140.3924 189.9135,-131.6427 179.7867,-134.757 183.9391,-140.3924"/>
</g>
<!-- Node7 -->
<g id="node8" class="node">
<title>Node7</title>
<polygon fill="#ffffff" stroke="#bfbfbf" points="13.5,-.5 13.5,-19.5 54.5,-19.5 54.5,-.5 13.5,-.5"/>
<text text-anchor="middle" x="34" y="-7.5" font-family="Helvetica,sans-Serif" font-size="10.00" fill="#000000">stdint.h</text>
</g>
<!-- Node6&#45;&gt;Node7 -->
<g id="edge7" class="edge">
<title>Node6&#45;&gt;Node7</title>
<path fill="none" stroke="#191970" d="M59.6002,-56.2455C55.3773,-48.617 49.3827,-37.7881 44.2559,-28.5267"/>
<polygon fill="#191970" stroke="#191970" points="47.2432,-26.6965 39.3379,-19.6427 41.119,-30.0867 47.2432,-26.6965"/>
</g>
<!-- Node8 -->
<g id="node9" class="node">
<title>Node8</title>
<polygon fill="#ffffff" stroke="#bfbfbf" points="72.5,-.5 72.5,-19.5 119.5,-19.5 119.5,-.5 72.5,-.5"/>
<text text-anchor="middle" x="96" y="-7.5" font-family="Helvetica,sans-Serif" font-size="10.00" fill="#000000">stdbool.h</text>
</g>
<!-- Node6&#45;&gt;Node8 -->
<g id="edge8" class="edge">
<title>Node6&#45;&gt;Node8</title>
<path fill="none" stroke="#191970" d="M70.3998,-56.2455C74.6227,-48.617 80.6173,-37.7881 85.7441,-28.5267"/>
<polygon fill="#191970" stroke="#191970" points="88.881,-30.0867 90.6621,-19.6427 82.7568,-26.6965 88.881,-30.0867"/>
</g>
<!-- Node9&#45;&gt;Node6 -->
<g id="edge10" class="edge">
<title>Node9&#45;&gt;Node6</title>
<path fill="none" stroke="#191970" d="M116.2004,-112.2455C107.1322,-104.0549 93.9794,-92.1749 83.2755,-82.5069"/>
<polygon fill="#191970" stroke="#191970" points="85.4429,-79.7482 75.6758,-75.6427 80.7509,-84.9429 85.4429,-79.7482"/>
</g>
<!-- Node10 -->
<g id="node11" class="node">
<title>Node10</title>
<g id="a_node11"><a xlink:href="eagle__soc_8h.html" target="_top" xlink:title="eagle_soc.h">
<polygon fill="#ffffff" stroke="#000000" points="107.5,-56.5 107.5,-75.5 164.5,-75.5 164.5,-56.5 107.5,-56.5"/>
<text text-anchor="middle" x="136" y="-63.5" font-family="Helvetica,sans-Serif" font-size="10.00" fill="#000000">eagle_soc.h</text>
</a>
</g>
</g>
<!-- Node9&#45;&gt;Node10 -->
<g id="edge11" class="edge">
<title>Node9&#45;&gt;Node10</title>
<path fill="none" stroke="#191970" d="M128.5677,-112.2455C129.7421,-104.9382 131.3884,-94.6944 132.8332,-85.7046"/>
<polygon fill="#191970" stroke="#191970" points="136.3191,-86.0714 134.4503,-75.6427 129.4078,-84.9606 136.3191,-86.0714"/>
</g>
<!-- Node12 -->
<g id="node13" class="node">
<title>Node12</title>
<polygon fill="#ffffff" stroke="#bfbfbf" points="182.5,-56.5 182.5,-75.5 223.5,-75.5 223.5,-56.5 182.5,-56.5"/>
<text text-anchor="middle" x="203" y="-63.5" font-family="Helvetica,sans-Serif" font-size="10.00" fill="#000000">string.h</text>
</g>
<!-- Node11&#45;&gt;Node12 -->
<g id="edge13" class="edge">
<title>Node11&#45;&gt;Node12</title>
<path fill="none" stroke="#191970" d="M203,-112.2455C203,-104.9382 203,-94.6944 203,-85.7046"/>
<polygon fill="#191970" stroke="#191970" points="206.5001,-85.6426 203,-75.6427 199.5001,-85.6427 206.5001,-85.6426"/>
</g>
<!-- Node13 -->
<g id="node14" class="node">
<title>Node13</title>
<polygon fill="#ffffff" stroke="#bfbfbf" points="242,-56.5 242,-75.5 304,-75.5 304,-56.5 242,-56.5"/>
<text text-anchor="middle" x="273" y="-63.5" font-family="Helvetica,sans-Serif" font-size="10.00" fill="#000000">user_config.h</text>
</g>
<!-- Node11&#45;&gt;Node13 -->
<g id="edge14" class="edge">
<title>Node11&#45;&gt;Node13</title>
<path fill="none" stroke="#191970" d="M215.1931,-112.2455C225.6321,-103.8943 240.8655,-91.7076 253.074,-81.9408"/>
<polygon fill="#191970" stroke="#191970" points="255.3244,-84.6227 260.9467,-75.6427 250.9515,-79.1566 255.3244,-84.6227"/>
</g>
<!-- Node14&#45;&gt;Node1 -->
<g id="edge16" class="edge">
<title>Node14&#45;&gt;Node1</title>
<path fill="none" stroke="#191970" d="M120.8685,-448.4509C116.7726,-430.1013 107.7301,-389.5908 102.3235,-365.3693"/>
<polygon fill="#191970" stroke="#191970" points="105.7206,-364.5222 100.1261,-355.5249 98.8888,-366.0472 105.7206,-364.5222"/>
</g>
<!-- Node15 -->
<g id="node16" class="node">
<title>Node15</title>
<g id="a_node16"><a xlink:href="def_8h.html" target="_top" xlink:title="lwip/def.h">
<polygon fill="#ffffff" stroke="#000000" points="129,-392.5 129,-411.5 177,-411.5 177,-392.5 129,-392.5"/>
<text text-anchor="middle" x="153" y="-399.5" font-family="Helvetica,sans-Serif" font-size="10.00" fill="#000000">lwip/def.h</text>
</a>
</g>
</g>
<!-- Node14&#45;&gt;Node15 -->
<g id="edge17" class="edge">
<title>Node14&#45;&gt;Node15</title>
<path fill="none" stroke="#191970" d="M128.2256,-448.2455C132.3123,-440.617 138.1135,-429.7881 143.075,-420.5267"/>
<polygon fill="#191970" stroke="#191970" points="146.1972,-422.1103 147.8343,-411.6427 140.0268,-418.8047 146.1972,-422.1103"/>
</g>
<!-- Node15&#45;&gt;Node1 -->
<g id="edge19" class="edge">
<title>Node15&#45;&gt;Node1</title>
<path fill="none" stroke="#191970" d="M143.4197,-392.2455C135.4542,-384.1352 123.9359,-372.4075 114.4921,-362.7919"/>
<polygon fill="#191970" stroke="#191970" points="116.9747,-360.3247 107.4705,-355.6427 111.9805,-365.2297 116.9747,-360.3247"/>
</g>
<!-- Node15&#45;&gt;Node4 -->
<g id="edge18" class="edge">
<title>Node15&#45;&gt;Node4</title>
<path fill="none" stroke="#191970" d="M151.8539,-392.4816C149.3367,-371.9044 142.9896,-321.7618 136,-280 134.5593,-271.3922 132.7461,-261.9231 131.1254,-253.8252"/>
<polygon fill="#191970" stroke="#191970" points="134.517,-252.9401 129.0877,-243.8421 127.6584,-254.3401 134.517,-252.9401"/>
</g>
</g>
</svg>
