<?xml version="1.0" encoding="UTF-8" standalone="no"?>
<!DOCTYPE svg PUBLIC "-//W3C//DTD SVG 1.1//EN"
 "http://www.w3.org/Graphics/SVG/1.1/DTD/svg11.dtd">
<!-- Generated by graphviz version 2.40.1 (20161225.0304)
 -->
<!-- Title: include/driver/spi_register.h Pages: 1 -->
<svg width="166pt" height="151pt"
 viewBox="0.00 0.00 166.00 151.00" xmlns="http://www.w3.org/2000/svg" xmlns:xlink="http://www.w3.org/1999/xlink">
<g id="graph0" class="graph" transform="scale(1 1) rotate(0) translate(4 147)">
<title>include/driver/spi_register.h</title>
<polygon fill="#ffffff" stroke="transparent" points="-4,4 -4,-147 162,-147 162,4 -4,4"/>
<!-- Node1 -->
<g id="node1" class="node">
<title>Node1</title>
<polygon fill="#bfbfbf" stroke="#000000" points="51,-112.5 51,-142.5 124,-142.5 124,-112.5 51,-112.5"/>
<text text-anchor="start" x="59" y="-130.5" font-family="Helvetica,sans-Serif" font-size="10.00" fill="#000000">include/driver/spi</text>
<text text-anchor="middle" x="87.5" y="-119.5" font-family="Helvetica,sans-Serif" font-size="10.00" fill="#000000">_register.h</text>
</g>
<!-- Node2 -->
<g id="node2" class="node">
<title>Node2</title>
<g id="a_node2"><a xlink:href="spi_8h.html" target="_top" xlink:title="include/driver/spi.h">
<polygon fill="#ffffff" stroke="#000000" points="48,-56.5 48,-75.5 127,-75.5 127,-56.5 48,-56.5"/>
<text text-anchor="middle" x="87.5" y="-63.5" font-family="Helvetica,sans-Serif" font-size="10.00" fill="#000000">include/driver/spi.h</text>
</a>
</g>
</g>
<!-- Node1&#45;&gt;Node2 -->
<g id="edge1" class="edge">
<title>Node1&#45;&gt;Node2</title>
<path fill="none" stroke="#191970" d="M87.5,-102.2849C87.5,-92.9858 87.5,-82.9883 87.5,-75.8469"/>
<polygon fill="#191970" stroke="#191970" points="84.0001,-102.2977 87.5,-112.2977 91.0001,-102.2978 84.0001,-102.2977"/>
</g>
<!-- Node3 -->
<g id="node3" class="node">
<title>Node3</title>
<g id="a_node3"><a xlink:href="ext__spi__flash_8c.html" target="_top" xlink:title="driver/ext_spi_flash.c">
<polygon fill="#ffffff" stroke="#000000" points="0,-.5 0,-19.5 87,-19.5 87,-.5 0,-.5"/>
<text text-anchor="middle" x="43.5" y="-7.5" font-family="Helvetica,sans-Serif" font-size="10.00" fill="#000000">driver/ext_spi_flash.c</text>
</a>
</g>
</g>
<!-- Node2&#45;&gt;Node3 -->
<g id="edge2" class="edge">
<title>Node2&#45;&gt;Node3</title>
<path fill="none" stroke="#191970" d="M73.5231,-48.2112C66.0871,-38.7472 57.234,-27.4797 51.0764,-19.6427"/>
<polygon fill="#191970" stroke="#191970" points="70.9054,-50.5447 79.8358,-56.2455 76.4097,-46.22 70.9054,-50.5447"/>
</g>
<!-- Node4 -->
<g id="node4" class="node">
<title>Node4</title>
<g id="a_node4"><a xlink:href="spi_8c.html" target="_top" xlink:title="driver/spi.c">
<polygon fill="#ffffff" stroke="#000000" points="105,-.5 105,-19.5 158,-19.5 158,-.5 105,-.5"/>
<text text-anchor="middle" x="131.5" y="-7.5" font-family="Helvetica,sans-Serif" font-size="10.00" fill="#000000">driver/spi.c</text>
</a>
</g>
</g>
<!-- Node2&#45;&gt;Node4 -->
<g id="edge3" class="edge">
<title>Node2&#45;&gt;Node4</title>
<path fill="none" stroke="#191970" d="M101.4769,-48.2112C108.9129,-38.7472 117.766,-27.4797 123.9236,-19.6427"/>
<polygon fill="#191970" stroke="#191970" points="98.5903,-46.22 95.1642,-56.2455 104.0946,-50.5447 98.5903,-46.22"/>
</g>
</g>
</svg>
