<?xml version="1.0" encoding="UTF-8" standalone="no"?>
<!DOCTYPE svg PUBLIC "-//W3C//DTD SVG 1.1//EN"
 "http://www.w3.org/Graphics/SVG/1.1/DTD/svg11.dtd">
<!-- Generated by graphviz version 2.40.1 (20161225.0304)
 -->
<!-- Title: spi_init Pages: 1 -->
<svg width="161pt" height="142pt"
 viewBox="0.00 0.00 161.00 142.00" xmlns="http://www.w3.org/2000/svg" xmlns:xlink="http://www.w3.org/1999/xlink">
<g id="graph0" class="graph" transform="scale(1 1) rotate(0) translate(4 138)">
<title>spi_init</title>
<polygon fill="#ffffff" stroke="transparent" points="-4,4 -4,-138 157,-138 157,4 -4,4"/>
<!-- Node4 -->
<g id="node1" class="node">
<title>Node4</title>
<polygon fill="#bfbfbf" stroke="#000000" points="0,-57.5 0,-76.5 40,-76.5 40,-57.5 0,-57.5"/>
<text text-anchor="middle" x="20" y="-64.5" font-family="Helvetica,sans-Serif" font-size="10.00" fill="#000000">spi_init</text>
</g>
<!-- Node5 -->
<g id="node2" class="node">
<title>Node5</title>
<g id="a_node2"><a xlink:href="spi_8c.html#abe2becfd7876ae0dae398b6ba50cade3" target="_top" xlink:title="spi_clock">
<polygon fill="#ffffff" stroke="#000000" points="91,-114.5 91,-133.5 138,-133.5 138,-114.5 91,-114.5"/>
<text text-anchor="middle" x="114.5" y="-121.5" font-family="Helvetica,sans-Serif" font-size="10.00" fill="#000000">spi_clock</text>
</a>
</g>
</g>
<!-- Node4&#45;&gt;Node5 -->
<g id="edge1" class="edge">
<title>Node4&#45;&gt;Node5</title>
<path fill="none" stroke="#191970" d="M33.019,-76.5883C44.1617,-84.6094 60.7702,-96.1313 76,-105 78.8341,-106.6504 81.8313,-108.2947 84.8518,-109.8863"/>
<polygon fill="#191970" stroke="#191970" points="83.3431,-113.0456 93.8436,-114.4563 86.5147,-106.8053 83.3431,-113.0456"/>
</g>
<!-- Node6 -->
<g id="node3" class="node">
<title>Node6</title>
<g id="a_node3"><a xlink:href="spi_8c.html#a007018d09bc43ec6e4d5614bcc943334" target="_top" xlink:title="spi_init_gpio">
<polygon fill="#ffffff" stroke="#000000" points="85.5,-76.5 85.5,-95.5 143.5,-95.5 143.5,-76.5 85.5,-76.5"/>
<text text-anchor="middle" x="114.5" y="-83.5" font-family="Helvetica,sans-Serif" font-size="10.00" fill="#000000">spi_init_gpio</text>
</a>
</g>
</g>
<!-- Node4&#45;&gt;Node6 -->
<g id="edge2" class="edge">
<title>Node4&#45;&gt;Node6</title>
<path fill="none" stroke="#191970" d="M40.041,-71.0294C50.2842,-73.0889 63.1154,-75.6687 75.2266,-78.1038"/>
<polygon fill="#191970" stroke="#191970" points="74.6643,-81.5607 85.158,-80.1005 76.0441,-74.698 74.6643,-81.5607"/>
</g>
<!-- Node7 -->
<g id="node4" class="node">
<title>Node7</title>
<g id="a_node4"><a xlink:href="spi_8c.html#acfa45a83322cfa93f1de5e872a1f0fb3" target="_top" xlink:title="spi_rx_byte_order">
<polygon fill="#ffffff" stroke="#000000" points="76,-38.5 76,-57.5 153,-57.5 153,-38.5 76,-38.5"/>
<text text-anchor="middle" x="114.5" y="-45.5" font-family="Helvetica,sans-Serif" font-size="10.00" fill="#000000">spi_rx_byte_order</text>
</a>
</g>
</g>
<!-- Node4&#45;&gt;Node7 -->
<g id="edge3" class="edge">
<title>Node4&#45;&gt;Node7</title>
<path fill="none" stroke="#191970" d="M40.041,-62.9706C47.6803,-61.4347 56.7589,-59.6093 65.9048,-57.7705"/>
<polygon fill="#191970" stroke="#191970" points="66.6767,-61.1854 75.7906,-55.7828 65.2968,-54.3227 66.6767,-61.1854"/>
</g>
<!-- Node8 -->
<g id="node5" class="node">
<title>Node8</title>
<g id="a_node5"><a xlink:href="spi_8c.html#a5ebc44f7360d551888843c00376e0de5" target="_top" xlink:title="spi_tx_byte_order">
<polygon fill="#ffffff" stroke="#000000" points="76.5,-.5 76.5,-19.5 152.5,-19.5 152.5,-.5 76.5,-.5"/>
<text text-anchor="middle" x="114.5" y="-7.5" font-family="Helvetica,sans-Serif" font-size="10.00" fill="#000000">spi_tx_byte_order</text>
</a>
</g>
</g>
<!-- Node4&#45;&gt;Node8 -->
<g id="edge4" class="edge">
<title>Node4&#45;&gt;Node8</title>
<path fill="none" stroke="#191970" d="M33.019,-57.4117C44.1617,-49.3906 60.7702,-37.8687 76,-29 78.8341,-27.3496 81.8313,-25.7053 84.8518,-24.1137"/>
<polygon fill="#191970" stroke="#191970" points="86.5147,-27.1947 93.8436,-19.5437 83.3431,-20.9544 86.5147,-27.1947"/>
</g>
</g>
</svg>
