<?xml version="1.0" encoding="UTF-8" standalone="no"?>
<!DOCTYPE svg PUBLIC "-//W3C//DTD SVG 1.1//EN"
 "http://www.w3.org/Graphics/SVG/1.1/DTD/svg11.dtd">
<!-- Generated by graphviz version 2.40.1 (20161225.0304)
 -->
<!-- Title: spi_rx_byte_order Pages: 1 -->
<svg width="175pt" height="66pt"
 viewBox="0.00 0.00 175.00 66.00" xmlns="http://www.w3.org/2000/svg" xmlns:xlink="http://www.w3.org/1999/xlink">
<g id="graph0" class="graph" transform="scale(1 1) rotate(0) translate(4 62)">
<title>spi_rx_byte_order</title>
<polygon fill="#ffffff" stroke="transparent" points="-4,4 -4,-62 171,-62 171,4 -4,4"/>
<!-- Node17 -->
<g id="node1" class="node">
<title>Node17</title>
<polygon fill="#bfbfbf" stroke="#000000" points="0,-19.5 0,-38.5 77,-38.5 77,-19.5 0,-19.5"/>
<text text-anchor="middle" x="38.5" y="-26.5" font-family="Helvetica,sans-Serif" font-size="10.00" fill="#000000">spi_rx_byte_order</text>
</g>
<!-- Node18 -->
<g id="node2" class="node">
<title>Node18</title>
<g id="a_node2"><a xlink:href="ext__spi__flash_8h.html#a292607e88dd8cb8213d0bad78679210d" target="_top" xlink:title="ext_spi_init">
<polygon fill="#ffffff" stroke="#000000" points="113,-38.5 113,-57.5 167,-57.5 167,-38.5 113,-38.5"/>
<text text-anchor="middle" x="140" y="-45.5" font-family="Helvetica,sans-Serif" font-size="10.00" fill="#000000">ext_spi_init</text>
</a>
</g>
</g>
<!-- Node17&#45;&gt;Node18 -->
<g id="edge1" class="edge">
<title>Node17&#45;&gt;Node18</title>
<path fill="none" stroke="#191970" d="M87.058,-38.0897C95.9071,-39.7462 104.8453,-41.4193 112.7936,-42.9072"/>
<polygon fill="#191970" stroke="#191970" points="87.6356,-34.6371 77.1623,-36.2373 86.3476,-41.5176 87.6356,-34.6371"/>
</g>
<!-- Node19 -->
<g id="node3" class="node">
<title>Node19</title>
<g id="a_node3"><a xlink:href="spi_8h.html#ab1b1ee052705fb788f5f312bb5dff9b3" target="_top" xlink:title="spi_init">
<polygon fill="#ffffff" stroke="#000000" points="120,-.5 120,-19.5 160,-19.5 160,-.5 120,-.5"/>
<text text-anchor="middle" x="140" y="-7.5" font-family="Helvetica,sans-Serif" font-size="10.00" fill="#000000">spi_init</text>
</a>
</g>
</g>
<!-- Node17&#45;&gt;Node19 -->
<g id="edge2" class="edge">
<title>Node17&#45;&gt;Node19</title>
<path fill="none" stroke="#191970" d="M87.2196,-19.8801C98.7738,-17.7172 110.4686,-15.528 119.9033,-13.7619"/>
<polygon fill="#191970" stroke="#191970" points="86.3476,-16.4824 77.1623,-21.7627 87.6356,-23.3629 86.3476,-16.4824"/>
</g>
</g>
</svg>
