<?xml version="1.0" encoding="UTF-8" standalone="no"?>
<!DOCTYPE svg PUBLIC "-//W3C//DTD SVG 1.1//EN"
 "http://www.w3.org/Graphics/SVG/1.1/DTD/svg11.dtd">
<!-- Generated by graphviz version 2.40.1 (20161225.0304)
 -->
<!-- Title: ip_info Pages: 1 -->
<svg width="62pt" height="204pt"
 viewBox="0.00 0.00 62.00 204.00" xmlns="http://www.w3.org/2000/svg" xmlns:xlink="http://www.w3.org/1999/xlink">
<g id="graph0" class="graph" transform="scale(1 1) rotate(0) translate(4 200)">
<title>ip_info</title>
<polygon fill="#ffffff" stroke="transparent" points="-4,4 -4,-200 58,-200 58,4 -4,4"/>
<!-- Node1 -->
<g id="node1" class="node">
<title>Node1</title>
<polygon fill="#bfbfbf" stroke="#000000" points="1.5,-.5 1.5,-57.5 40.5,-57.5 40.5,-.5 1.5,-.5"/>
<text text-anchor="middle" x="21" y="-45.5" font-family="Helvetica,sans-Serif" font-size="10.00" fill="#000000">ip_info</text>
<polyline fill="none" stroke="#000000" points="1.5,-38.5 40.5,-38.5 "/>
<text text-anchor="middle" x="21" y="-26.5" font-family="Helvetica,sans-Serif" font-size="10.00" fill="#000000"> </text>
<polyline fill="none" stroke="#000000" points="1.5,-19.5 40.5,-19.5 "/>
<text text-anchor="middle" x="21" y="-7.5" font-family="Helvetica,sans-Serif" font-size="10.00" fill="#000000"> </text>
</g>
<!-- Node2 -->
<g id="node2" class="node">
<title>Node2</title>
<g id="a_node2"><a xlink:href="structip__addr.html" target="_top" xlink:title="{ip_addr\n|+ addr\l+ addr\l|}">
<polygon fill="#ffffff" stroke="#000000" points="0,-127.5 0,-195.5 42,-195.5 42,-127.5 0,-127.5"/>
<text text-anchor="middle" x="21" y="-183.5" font-family="Helvetica,sans-Serif" font-size="10.00" fill="#000000">ip_addr</text>
<polyline fill="none" stroke="#000000" points="0,-176.5 42,-176.5 "/>
<text text-anchor="start" x="8" y="-164.5" font-family="Helvetica,sans-Serif" font-size="10.00" fill="#000000">+ addr</text>
<text text-anchor="start" x="8" y="-153.5" font-family="Helvetica,sans-Serif" font-size="10.00" fill="#000000">+ addr</text>
<polyline fill="none" stroke="#000000" points="0,-146.5 42,-146.5 "/>
<text text-anchor="middle" x="21" y="-134.5" font-family="Helvetica,sans-Serif" font-size="10.00" fill="#000000"> </text>
</a>
</g>
</g>
<!-- Node2&#45;&gt;Node1 -->
<g id="edge1" class="edge">
<title>Node2&#45;&gt;Node1</title>
<path fill="none" stroke="#404040" d="M21,-127.378C21,-109.8093 21,-88.2632 21,-69.818"/>
<polygon fill="none" stroke="#404040" points="21.0001,-69.6307 17,-63.6307 21,-57.6307 25,-63.6307 21.0001,-69.6307"/>
<text text-anchor="middle" x="37.5" y="-101" font-family="Helvetica,sans-Serif" font-size="10.00" fill="#000000"> +gw</text>
<text text-anchor="middle" x="37.5" y="-90" font-family="Helvetica,sans-Serif" font-size="10.00" fill="#000000">+netmask</text>
<text text-anchor="middle" x="37.5" y="-79" font-family="Helvetica,sans-Serif" font-size="10.00" fill="#000000">+ip</text>
</g>
</g>
</svg>
