<?xml version="1.0" encoding="UTF-8" standalone="no"?>
<!DOCTYPE svg PUBLIC "-//W3C//DTD SVG 1.1//EN"
 "http://www.w3.org/Graphics/SVG/1.1/DTD/svg11.dtd">
<!-- Generated by graphviz version 2.40.1 (20161225.0304)
 -->
<!-- Title: UartBuffer Pages: 1 -->
<svg width="125pt" height="132pt"
 viewBox="0.00 0.00 125.00 132.00" xmlns="http://www.w3.org/2000/svg" xmlns:xlink="http://www.w3.org/1999/xlink">
<g id="graph0" class="graph" transform="scale(1 1) rotate(0) translate(4 128)">
<title>UartBuffer</title>
<polygon fill="#ffffff" stroke="transparent" points="-4,4 -4,-128 121,-128 121,4 -4,4"/>
<!-- Node1 -->
<g id="node1" class="node">
<title>Node1</title>
<polygon fill="#bfbfbf" stroke="#000000" points="0,-.5 0,-123.5 65,-123.5 65,-.5 0,-.5"/>
<text text-anchor="middle" x="32.5" y="-111.5" font-family="Helvetica,sans-Serif" font-size="10.00" fill="#000000">UartBuffer</text>
<polyline fill="none" stroke="#000000" points="0,-104.5 65,-104.5 "/>
<text text-anchor="start" x="8" y="-92.5" font-family="Helvetica,sans-Serif" font-size="10.00" fill="#000000">+ UartBuffSize</text>
<text text-anchor="start" x="8" y="-81.5" font-family="Helvetica,sans-Serif" font-size="10.00" fill="#000000">+ pUartBuff</text>
<text text-anchor="start" x="8" y="-70.5" font-family="Helvetica,sans-Serif" font-size="10.00" fill="#000000">+ pInPos</text>
<text text-anchor="start" x="8" y="-59.5" font-family="Helvetica,sans-Serif" font-size="10.00" fill="#000000">+ pOutPos</text>
<text text-anchor="start" x="8" y="-48.5" font-family="Helvetica,sans-Serif" font-size="10.00" fill="#000000">+ BuffState</text>
<text text-anchor="start" x="8" y="-37.5" font-family="Helvetica,sans-Serif" font-size="10.00" fill="#000000">+ Space</text>
<text text-anchor="start" x="8" y="-26.5" font-family="Helvetica,sans-Serif" font-size="10.00" fill="#000000">+ TcpControl</text>
<polyline fill="none" stroke="#000000" points="0,-19.5 65,-19.5 "/>
<text text-anchor="middle" x="32.5" y="-7.5" font-family="Helvetica,sans-Serif" font-size="10.00" fill="#000000"> </text>
</g>
<!-- Node1&#45;&gt;Node1 -->
<g id="edge1" class="edge">
<title>Node1&#45;&gt;Node1</title>
<path fill="none" stroke="#404040" d="M65.0425,-85.2273C75.1012,-84.7581 83,-77.0156 83,-62 83,-53.3191 80.36,-47.0691 76.1889,-43.25"/>
<polygon fill="none" stroke="#404040" points="76.1777,-43.2456 69.1191,-44.7209 65.0425,-38.7727 72.1011,-37.2974 76.1777,-43.2456"/>
<text text-anchor="middle" x="100" y="-59.5" font-family="Helvetica,sans-Serif" font-size="10.00" fill="#000000"> +nextBuff</text>
</g>
</g>
</svg>
