<?xml version="1.0" encoding="UTF-8" standalone="no"?>
<!DOCTYPE svg PUBLIC "-//W3C//DTD SVG 1.1//EN"
 "http://www.w3.org/Graphics/SVG/1.1/DTD/svg11.dtd">
<!-- Generated by graphviz version 2.40.1 (20161225.0304)
 -->
<!-- Title: memp Pages: 1 -->
<svg width="84pt" height="66pt"
 viewBox="0.00 0.00 84.00 66.00" xmlns="http://www.w3.org/2000/svg" xmlns:xlink="http://www.w3.org/1999/xlink">
<g id="graph0" class="graph" transform="scale(1 1) rotate(0) translate(4 62)">
<title>memp</title>
<polygon fill="#ffffff" stroke="transparent" points="-4,4 -4,-62 80,-62 80,4 -4,4"/>
<!-- Node1 -->
<g id="node1" class="node">
<title>Node1</title>
<polygon fill="#bfbfbf" stroke="#000000" points="0,-.5 0,-57.5 37,-57.5 37,-.5 0,-.5"/>
<text text-anchor="middle" x="18.5" y="-45.5" font-family="Helvetica,sans-Serif" font-size="10.00" fill="#000000">memp</text>
<polyline fill="none" stroke="#000000" points="0,-38.5 37,-38.5 "/>
<text text-anchor="middle" x="18.5" y="-26.5" font-family="Helvetica,sans-Serif" font-size="10.00" fill="#000000"> </text>
<polyline fill="none" stroke="#000000" points="0,-19.5 37,-19.5 "/>
<text text-anchor="middle" x="18.5" y="-7.5" font-family="Helvetica,sans-Serif" font-size="10.00" fill="#000000"> </text>
</g>
<!-- Node1&#45;&gt;Node1 -->
<g id="edge1" class="edge">
<title>Node1&#45;&gt;Node1</title>
<path fill="none" stroke="#404040" d="M37.28,-39.5537C46.6458,-41.014 55,-37.4961 55,-29 55,-24.6192 52.7789,-21.5619 49.3432,-19.8282"/>
<polygon fill="none" stroke="#404040" points="49.202,-19.8121 42.7857,-23.1032 37.28,-18.4463 43.6963,-15.1552 49.202,-19.8121"/>
<text text-anchor="middle" x="65.5" y="-26.5" font-family="Helvetica,sans-Serif" font-size="10.00" fill="#000000"> +next</text>
</g>
</g>
</svg>
