<?xml version="1.0" encoding="UTF-8" standalone="no"?>
<!DOCTYPE svg PUBLIC "-//W3C//DTD SVG 1.1//EN"
 "http://www.w3.org/Graphics/SVG/1.1/DTD/svg11.dtd">
<!-- Generated by graphviz version 2.40.1 (20161225.0304)
 -->
<!-- Title: esp&#45;open&#45;lwip/include/lwip/sys.h Pages: 1 -->
<svg width="358pt" height="487pt"
 viewBox="0.00 0.00 358.00 487.00" xmlns="http://www.w3.org/2000/svg" xmlns:xlink="http://www.w3.org/1999/xlink">
<g id="graph0" class="graph" transform="scale(1 1) rotate(0) translate(4 483)">
<title>esp&#45;open&#45;lwip/include/lwip/sys.h</title>
<polygon fill="#ffffff" stroke="transparent" points="-4,4 -4,-483 354,-483 354,4 -4,4"/>
<!-- Node0 -->
<g id="node1" class="node">
<title>Node0</title>
<polygon fill="#bfbfbf" stroke="#000000" points="131.5,-448.5 131.5,-478.5 220.5,-478.5 220.5,-448.5 131.5,-448.5"/>
<text text-anchor="start" x="139.5" y="-466.5" font-family="Helvetica,sans-Serif" font-size="10.00" fill="#000000">esp&#45;open&#45;lwip/include</text>
<text text-anchor="middle" x="176" y="-455.5" font-family="Helvetica,sans-Serif" font-size="10.00" fill="#000000">/lwip/sys.h</text>
</g>
<!-- Node1 -->
<g id="node2" class="node">
<title>Node1</title>
<g id="a_node2"><a xlink:href="opt_8h.html" target="_top" xlink:title="lwip/opt.h">
<polygon fill="#ffffff" stroke="#000000" points="74,-336.5 74,-355.5 122,-355.5 122,-336.5 74,-336.5"/>
<text text-anchor="middle" x="98" y="-343.5" font-family="Helvetica,sans-Serif" font-size="10.00" fill="#000000">lwip/opt.h</text>
</a>
</g>
</g>
<!-- Node0&#45;&gt;Node1 -->
<g id="edge1" class="edge">
<title>Node0&#45;&gt;Node1</title>
<path fill="none" stroke="#191970" d="M152.924,-448.3277C140.6339,-439.1547 126.1975,-426.4531 117,-412 108.0088,-397.8711 103.1643,-379.3789 100.6229,-365.5643"/>
<polygon fill="#191970" stroke="#191970" points="104.0747,-364.9845 99.0432,-355.6607 97.1621,-366.0872 104.0747,-364.9845"/>
</g>
<!-- Node10 -->
<g id="node11" class="node">
<title>Node10</title>
<g id="a_node11"><a xlink:href="eagle__soc_8h.html" target="_top" xlink:title="eagle_soc.h">
<polygon fill="#ffffff" stroke="#000000" points="151.5,-56.5 151.5,-75.5 208.5,-75.5 208.5,-56.5 151.5,-56.5"/>
<text text-anchor="middle" x="180" y="-63.5" font-family="Helvetica,sans-Serif" font-size="10.00" fill="#000000">eagle_soc.h</text>
</a>
</g>
</g>
<!-- Node0&#45;&gt;Node10 -->
<g id="edge15" class="edge">
<title>Node0&#45;&gt;Node10</title>
<path fill="none" stroke="#191970" d="M181.6416,-448.1544C189.2884,-425.9438 202,-383.398 202,-346 202,-346 202,-346 202,-178 202,-145.1132 192.754,-107.7958 186.2501,-85.6138"/>
<polygon fill="#191970" stroke="#191970" points="189.5104,-84.3059 183.2462,-75.7614 182.8147,-86.3474 189.5104,-84.3059"/>
</g>
<!-- Node14 -->
<g id="node15" class="node">
<title>Node14</title>
<g id="a_node15"><a xlink:href="err_8h.html" target="_top" xlink:title="lwip/err.h">
<polygon fill="#ffffff" stroke="#000000" points="126.5,-392.5 126.5,-411.5 173.5,-411.5 173.5,-392.5 126.5,-392.5"/>
<text text-anchor="middle" x="150" y="-399.5" font-family="Helvetica,sans-Serif" font-size="10.00" fill="#000000">lwip/err.h</text>
</a>
</g>
</g>
<!-- Node0&#45;&gt;Node14 -->
<g id="edge16" class="edge">
<title>Node0&#45;&gt;Node14</title>
<path fill="none" stroke="#191970" d="M169.573,-448.2977C166.1143,-440.1166 161.8133,-429.943 158.1246,-421.2179"/>
<polygon fill="#191970" stroke="#191970" points="161.2807,-419.6947 154.1629,-411.8469 154.8332,-422.4205 161.2807,-419.6947"/>
</g>
<!-- Node15 -->
<g id="node16" class="node">
<title>Node15</title>
<g id="a_node16"><a xlink:href="sys__arch_8h.html" target="_top" xlink:title="arch/sys_arch.h">
<polygon fill="#ffffff" stroke="#000000" points="230.5,-392.5 230.5,-411.5 299.5,-411.5 299.5,-392.5 230.5,-392.5"/>
<text text-anchor="middle" x="265" y="-399.5" font-family="Helvetica,sans-Serif" font-size="10.00" fill="#000000">arch/sys_arch.h</text>
</a>
</g>
</g>
<!-- Node0&#45;&gt;Node15 -->
<g id="edge19" class="edge">
<title>Node0&#45;&gt;Node15</title>
<path fill="none" stroke="#191970" d="M198,-448.2977C211.5968,-438.9022 228.9966,-426.8787 242.6567,-417.4395"/>
<polygon fill="#191970" stroke="#191970" points="244.7785,-420.2276 251.0158,-411.6633 240.7991,-414.4688 244.7785,-420.2276"/>
</g>
<!-- Node2 -->
<g id="node3" class="node">
<title>Node2</title>
<g id="a_node3"><a xlink:href="lwipopts_8h.html" target="_top" xlink:title="lwipopts.h">
<polygon fill="#ffffff" stroke="#000000" points="0,-280.5 0,-299.5 50,-299.5 50,-280.5 0,-280.5"/>
<text text-anchor="middle" x="25" y="-287.5" font-family="Helvetica,sans-Serif" font-size="10.00" fill="#000000">lwipopts.h</text>
</a>
</g>
</g>
<!-- Node1&#45;&gt;Node2 -->
<g id="edge2" class="edge">
<title>Node1&#45;&gt;Node2</title>
<path fill="none" stroke="#191970" d="M85.2844,-336.2455C74.398,-327.8943 58.5117,-315.7076 45.78,-305.9408"/>
<polygon fill="#191970" stroke="#191970" points="47.6346,-302.9523 37.5699,-299.6427 43.3739,-308.5063 47.6346,-302.9523"/>
</g>
<!-- Node3 -->
<g id="node4" class="node">
<title>Node3</title>
<g id="a_node4"><a xlink:href="esp-open-sdk_2esp-open-lwip_2include_2lwip_2debug_8h.html" target="_top" xlink:title="lwip/debug.h">
<polygon fill="#ffffff" stroke="#000000" points="68.5,-280.5 68.5,-299.5 127.5,-299.5 127.5,-280.5 68.5,-280.5"/>
<text text-anchor="middle" x="98" y="-287.5" font-family="Helvetica,sans-Serif" font-size="10.00" fill="#000000">lwip/debug.h</text>
</a>
</g>
</g>
<!-- Node1&#45;&gt;Node3 -->
<g id="edge3" class="edge">
<title>Node1&#45;&gt;Node3</title>
<path fill="none" stroke="#191970" d="M98,-336.2455C98,-328.9382 98,-318.6944 98,-309.7046"/>
<polygon fill="#191970" stroke="#191970" points="101.5001,-309.6426 98,-299.6427 94.5001,-309.6427 101.5001,-309.6426"/>
</g>
<!-- Node4 -->
<g id="node5" class="node">
<title>Node4</title>
<g id="a_node5"><a xlink:href="arch_8h.html" target="_top" xlink:title="lwip/arch.h">
<polygon fill="#ffffff" stroke="#000000" points="122,-224.5 122,-243.5 174,-243.5 174,-224.5 122,-224.5"/>
<text text-anchor="middle" x="148" y="-231.5" font-family="Helvetica,sans-Serif" font-size="10.00" fill="#000000">lwip/arch.h</text>
</a>
</g>
</g>
<!-- Node3&#45;&gt;Node4 -->
<g id="edge4" class="edge">
<title>Node3&#45;&gt;Node4</title>
<path fill="none" stroke="#191970" d="M106.7093,-280.2455C113.8073,-272.2958 124.0084,-260.8706 132.495,-251.3656"/>
<polygon fill="#191970" stroke="#191970" points="135.3411,-253.4331 139.3905,-243.6427 130.1195,-248.771 135.3411,-253.4331"/>
</g>
<!-- Node5 -->
<g id="node6" class="node">
<title>Node5</title>
<g id="a_node6"><a xlink:href="cc_8h.html" target="_top" xlink:title="arch/cc.h">
<polygon fill="#ffffff" stroke="#000000" points="125.5,-168.5 125.5,-187.5 172.5,-187.5 172.5,-168.5 125.5,-168.5"/>
<text text-anchor="middle" x="149" y="-175.5" font-family="Helvetica,sans-Serif" font-size="10.00" fill="#000000">arch/cc.h</text>
</a>
</g>
</g>
<!-- Node4&#45;&gt;Node5 -->
<g id="edge5" class="edge">
<title>Node4&#45;&gt;Node5</title>
<path fill="none" stroke="#191970" d="M148.1742,-224.2455C148.3047,-216.9382 148.4876,-206.6944 148.6481,-197.7046"/>
<polygon fill="#191970" stroke="#191970" points="152.1486,-197.7036 148.8278,-187.6427 145.1497,-197.5786 152.1486,-197.7036"/>
</g>
<!-- Node6 -->
<g id="node7" class="node">
<title>Node6</title>
<g id="a_node7"><a xlink:href="c__types_8h.html" target="_top" xlink:title="c_types.h">
<polygon fill="#ffffff" stroke="#000000" points="80.5,-56.5 80.5,-75.5 129.5,-75.5 129.5,-56.5 80.5,-56.5"/>
<text text-anchor="middle" x="105" y="-63.5" font-family="Helvetica,sans-Serif" font-size="10.00" fill="#000000">c_types.h</text>
</a>
</g>
</g>
<!-- Node5&#45;&gt;Node6 -->
<g id="edge6" class="edge">
<title>Node5&#45;&gt;Node6</title>
<path fill="none" stroke="#191970" d="M140.2567,-168.1539C132.8916,-159.3116 122.6742,-145.6552 117,-132 110.8552,-117.2124 107.8494,-99.2698 106.3834,-85.8274"/>
<polygon fill="#191970" stroke="#191970" points="109.8599,-85.4088 105.4789,-75.7623 102.888,-86.0354 109.8599,-85.4088"/>
</g>
<!-- Node9 -->
<g id="node10" class="node">
<title>Node9</title>
<g id="a_node10"><a xlink:href="ets__sys_8h.html" target="_top" xlink:title="ets_sys.h">
<polygon fill="#ffffff" stroke="#000000" points="126,-112.5 126,-131.5 174,-131.5 174,-112.5 126,-112.5"/>
<text text-anchor="middle" x="150" y="-119.5" font-family="Helvetica,sans-Serif" font-size="10.00" fill="#000000">ets_sys.h</text>
</a>
</g>
</g>
<!-- Node5&#45;&gt;Node9 -->
<g id="edge9" class="edge">
<title>Node5&#45;&gt;Node9</title>
<path fill="none" stroke="#191970" d="M149.1742,-168.2455C149.3047,-160.9382 149.4876,-150.6944 149.6481,-141.7046"/>
<polygon fill="#191970" stroke="#191970" points="153.1486,-141.7036 149.8278,-131.6427 146.1497,-141.5786 153.1486,-141.7036"/>
</g>
<!-- Node11 -->
<g id="node12" class="node">
<title>Node11</title>
<g id="a_node12"><a xlink:href="osapi_8h.html" target="_top" xlink:title="osapi.h">
<polygon fill="#ffffff" stroke="#000000" points="230.5,-112.5 230.5,-131.5 271.5,-131.5 271.5,-112.5 230.5,-112.5"/>
<text text-anchor="middle" x="251" y="-119.5" font-family="Helvetica,sans-Serif" font-size="10.00" fill="#000000">osapi.h</text>
</a>
</g>
</g>
<!-- Node5&#45;&gt;Node11 -->
<g id="edge12" class="edge">
<title>Node5&#45;&gt;Node11</title>
<path fill="none" stroke="#191970" d="M166.767,-168.2455C182.7095,-159.4928 206.3259,-146.527 224.4989,-136.5496"/>
<polygon fill="#191970" stroke="#191970" points="226.3552,-139.5233 233.4366,-131.6427 222.9863,-133.3873 226.3552,-139.5233"/>
</g>
<!-- Node7 -->
<g id="node8" class="node">
<title>Node7</title>
<polygon fill="#ffffff" stroke="#bfbfbf" points="53.5,-.5 53.5,-19.5 94.5,-19.5 94.5,-.5 53.5,-.5"/>
<text text-anchor="middle" x="74" y="-7.5" font-family="Helvetica,sans-Serif" font-size="10.00" fill="#000000">stdint.h</text>
</g>
<!-- Node6&#45;&gt;Node7 -->
<g id="edge7" class="edge">
<title>Node6&#45;&gt;Node7</title>
<path fill="none" stroke="#191970" d="M99.6002,-56.2455C95.3773,-48.617 89.3827,-37.7881 84.2559,-28.5267"/>
<polygon fill="#191970" stroke="#191970" points="87.2432,-26.6965 79.3379,-19.6427 81.119,-30.0867 87.2432,-26.6965"/>
</g>
<!-- Node8 -->
<g id="node9" class="node">
<title>Node8</title>
<polygon fill="#ffffff" stroke="#bfbfbf" points="112.5,-.5 112.5,-19.5 159.5,-19.5 159.5,-.5 112.5,-.5"/>
<text text-anchor="middle" x="136" y="-7.5" font-family="Helvetica,sans-Serif" font-size="10.00" fill="#000000">stdbool.h</text>
</g>
<!-- Node6&#45;&gt;Node8 -->
<g id="edge8" class="edge">
<title>Node6&#45;&gt;Node8</title>
<path fill="none" stroke="#191970" d="M110.3998,-56.2455C114.6227,-48.617 120.6173,-37.7881 125.7441,-28.5267"/>
<polygon fill="#191970" stroke="#191970" points="128.881,-30.0867 130.6621,-19.6427 122.7568,-26.6965 128.881,-30.0867"/>
</g>
<!-- Node9&#45;&gt;Node6 -->
<g id="edge10" class="edge">
<title>Node9&#45;&gt;Node6</title>
<path fill="none" stroke="#191970" d="M142.1616,-112.2455C135.838,-104.3761 126.7776,-93.101 119.1864,-83.6542"/>
<polygon fill="#191970" stroke="#191970" points="121.7408,-81.2454 112.7486,-75.6427 116.2842,-85.6302 121.7408,-81.2454"/>
</g>
<!-- Node9&#45;&gt;Node10 -->
<g id="edge11" class="edge">
<title>Node9&#45;&gt;Node10</title>
<path fill="none" stroke="#191970" d="M155.2256,-112.2455C159.3123,-104.617 165.1135,-93.7881 170.075,-84.5267"/>
<polygon fill="#191970" stroke="#191970" points="173.1972,-86.1103 174.8343,-75.6427 167.0268,-82.8047 173.1972,-86.1103"/>
</g>
<!-- Node12 -->
<g id="node13" class="node">
<title>Node12</title>
<polygon fill="#ffffff" stroke="#bfbfbf" points="228.5,-56.5 228.5,-75.5 269.5,-75.5 269.5,-56.5 228.5,-56.5"/>
<text text-anchor="middle" x="249" y="-63.5" font-family="Helvetica,sans-Serif" font-size="10.00" fill="#000000">string.h</text>
</g>
<!-- Node11&#45;&gt;Node12 -->
<g id="edge13" class="edge">
<title>Node11&#45;&gt;Node12</title>
<path fill="none" stroke="#191970" d="M250.6516,-112.2455C250.3907,-104.9382 250.0248,-94.6944 249.7037,-85.7046"/>
<polygon fill="#191970" stroke="#191970" points="253.1992,-85.5113 249.3444,-75.6427 246.2036,-85.7613 253.1992,-85.5113"/>
</g>
<!-- Node13 -->
<g id="node14" class="node">
<title>Node13</title>
<polygon fill="#ffffff" stroke="#bfbfbf" points="288,-56.5 288,-75.5 350,-75.5 350,-56.5 288,-56.5"/>
<text text-anchor="middle" x="319" y="-63.5" font-family="Helvetica,sans-Serif" font-size="10.00" fill="#000000">user_config.h</text>
</g>
<!-- Node11&#45;&gt;Node13 -->
<g id="edge14" class="edge">
<title>Node11&#45;&gt;Node13</title>
<path fill="none" stroke="#191970" d="M262.8447,-112.2455C272.888,-103.9746 287.4995,-91.9416 299.3004,-82.2232"/>
<polygon fill="#191970" stroke="#191970" points="301.7967,-84.7015 307.291,-75.6427 297.3467,-79.298 301.7967,-84.7015"/>
</g>
<!-- Node14&#45;&gt;Node1 -->
<g id="edge17" class="edge">
<title>Node14&#45;&gt;Node1</title>
<path fill="none" stroke="#191970" d="M140.9423,-392.2455C133.4858,-384.2155 122.7366,-372.6394 113.8583,-363.0781"/>
<polygon fill="#191970" stroke="#191970" points="116.3232,-360.589 106.9539,-355.6427 111.1937,-365.3522 116.3232,-360.589"/>
</g>
<!-- Node14&#45;&gt;Node4 -->
<g id="edge18" class="edge">
<title>Node14&#45;&gt;Node4</title>
<path fill="none" stroke="#191970" d="M149.8867,-392.4862C149.5706,-365.9293 148.6734,-290.5651 148.2401,-254.1655"/>
<polygon fill="#191970" stroke="#191970" points="151.7359,-253.7855 148.117,-243.8279 144.7364,-253.8689 151.7359,-253.7855"/>
</g>
</g>
</svg>
