<?xml version="1.0" encoding="UTF-8" standalone="no"?>
<!DOCTYPE svg PUBLIC "-//W3C//DTD SVG 1.1//EN"
 "http://www.w3.org/Graphics/SVG/1.1/DTD/svg11.dtd">
<!-- Generated by graphviz version 2.40.1 (20161225.0304)
 -->
<!-- Title: sys_mbox_valid Pages: 1 -->
<svg width="474pt" height="107pt"
 viewBox="0.00 0.00 474.00 107.00" xmlns="http://www.w3.org/2000/svg" xmlns:xlink="http://www.w3.org/1999/xlink">
<g id="graph0" class="graph" transform="scale(1 1) rotate(0) translate(4 103)">
<title>sys_mbox_valid</title>
<polygon fill="#ffffff" stroke="transparent" points="-4,4 -4,-103 470,-103 470,4 -4,4"/>
<!-- Node38 -->
<g id="node1" class="node">
<title>Node38</title>
<polygon fill="#bfbfbf" stroke="#000000" points="0,-22.5 0,-41.5 70,-41.5 70,-22.5 0,-22.5"/>
<text text-anchor="middle" x="35" y="-29.5" font-family="Helvetica,sans-Serif" font-size="10.00" fill="#000000">sys_mbox_valid</text>
</g>
<!-- Node39 -->
<g id="node2" class="node">
<title>Node39</title>
<g id="a_node2"><a xlink:href="tcpip_8c.html#ab1d3ef23817d7703fa75ed67bd45ea1d" target="_top" xlink:title="tcpip_callback_with\l_block">
<polygon fill="#ffffff" stroke="#000000" points="106,-39 106,-69 187,-69 187,-39 106,-39"/>
<text text-anchor="start" x="114" y="-57" font-family="Helvetica,sans-Serif" font-size="10.00" fill="#000000">tcpip_callback_with</text>
<text text-anchor="middle" x="146.5" y="-46" font-family="Helvetica,sans-Serif" font-size="10.00" fill="#000000">_block</text>
</a>
</g>
</g>
<!-- Node38&#45;&gt;Node39 -->
<g id="edge1" class="edge">
<title>Node38&#45;&gt;Node39</title>
<path fill="none" stroke="#191970" d="M80.286,-40.9354C88.6665,-42.5889 97.3743,-44.307 105.6146,-45.9329"/>
<polygon fill="#191970" stroke="#191970" points="80.7677,-37.463 70.2793,-38.9609 79.4126,-44.3306 80.7677,-37.463"/>
</g>
<!-- Node42 -->
<g id="node5" class="node">
<title>Node42</title>
<g id="a_node5"><a xlink:href="tcpip_8c.html#ae510f195171bed8499ae94e264a92717" target="_top" xlink:title="tcpip_input">
<polygon fill="#ffffff" stroke="#000000" points="120,-.5 120,-19.5 173,-19.5 173,-.5 120,-.5"/>
<text text-anchor="middle" x="146.5" y="-7.5" font-family="Helvetica,sans-Serif" font-size="10.00" fill="#000000">tcpip_input</text>
</a>
</g>
</g>
<!-- Node38&#45;&gt;Node42 -->
<g id="edge4" class="edge">
<title>Node38&#45;&gt;Node42</title>
<path fill="none" stroke="#191970" d="M80.3488,-23.0523C93.8013,-20.3979 108.0915,-17.5784 119.9346,-15.2416"/>
<polygon fill="#191970" stroke="#191970" points="79.4126,-19.6694 70.2793,-25.0391 80.7677,-26.537 79.4126,-19.6694"/>
</g>
<!-- Node40 -->
<g id="node3" class="node">
<title>Node40</title>
<g id="a_node3"><a xlink:href="tcpip_8c.html#a5cdcb6b784fe0e8736a5b31a5cfbed6c" target="_top" xlink:title="pbuf_free_callback">
<polygon fill="#ffffff" stroke="#000000" points="224.5,-79.5 224.5,-98.5 303.5,-98.5 303.5,-79.5 224.5,-79.5"/>
<text text-anchor="middle" x="264" y="-86.5" font-family="Helvetica,sans-Serif" font-size="10.00" fill="#000000">pbuf_free_callback</text>
</a>
</g>
</g>
<!-- Node39&#45;&gt;Node40 -->
<g id="edge2" class="edge">
<title>Node39&#45;&gt;Node40</title>
<path fill="none" stroke="#191970" d="M197.0276,-69.0508C208.8259,-72.5652 221.0755,-76.214 231.8222,-79.4151"/>
<polygon fill="#191970" stroke="#191970" points="197.8491,-65.6436 187.266,-66.1431 195.8507,-72.3523 197.8491,-65.6436"/>
</g>
<!-- Node41 -->
<g id="node4" class="node">
<title>Node41</title>
<g id="a_node4"><a xlink:href="tcpip_8c.html#a55b4de3765c6a37b3f2b26a11603771c" target="_top" xlink:title="mem_free_callback">
<polygon fill="#ffffff" stroke="#000000" points="223,-41.5 223,-60.5 305,-60.5 305,-41.5 223,-41.5"/>
<text text-anchor="middle" x="264" y="-48.5" font-family="Helvetica,sans-Serif" font-size="10.00" fill="#000000">mem_free_callback</text>
</a>
</g>
</g>
<!-- Node39&#45;&gt;Node41 -->
<g id="edge3" class="edge">
<title>Node39&#45;&gt;Node41</title>
<path fill="none" stroke="#191970" d="M197.475,-52.6985C205.9746,-52.4815 214.6951,-52.2588 222.9081,-52.0492"/>
<polygon fill="#191970" stroke="#191970" points="197.1734,-49.205 187.266,-52.9592 197.3521,-56.2027 197.1734,-49.205"/>
</g>
<!-- Node43 -->
<g id="node6" class="node">
<title>Node43</title>
<g id="a_node6"><a xlink:href="netif_8c.html#a0f4a53e47c840904f824a2a1c0d4ebf4" target="_top" xlink:title="netif_init">
<polygon fill="#ffffff" stroke="#000000" points="242,-.5 242,-19.5 286,-19.5 286,-.5 242,-.5"/>
<text text-anchor="middle" x="264" y="-7.5" font-family="Helvetica,sans-Serif" font-size="10.00" fill="#000000">netif_init</text>
</a>
</g>
</g>
<!-- Node42&#45;&gt;Node43 -->
<g id="edge5" class="edge">
<title>Node42&#45;&gt;Node43</title>
<path fill="none" stroke="#191970" d="M183.374,-10C202.5394,-10 225.3283,-10 241.7805,-10"/>
<polygon fill="#191970" stroke="#191970" points="183.1626,-6.5001 173.1626,-10 183.1625,-13.5001 183.1626,-6.5001"/>
</g>
<!-- Node44 -->
<g id="node7" class="node">
<title>Node44</title>
<g id="a_node7"><a xlink:href="init_8c.html#a0c1a18439524d2f4a5e51d25c0ca2ce9" target="_top" xlink:title="lwip_init">
<polygon fill="#ffffff" stroke="#000000" points="341,-.5 341,-19.5 384,-19.5 384,-.5 341,-.5"/>
<text text-anchor="middle" x="362.5" y="-7.5" font-family="Helvetica,sans-Serif" font-size="10.00" fill="#000000">lwip_init</text>
</a>
</g>
</g>
<!-- Node43&#45;&gt;Node44 -->
<g id="edge6" class="edge">
<title>Node43&#45;&gt;Node44</title>
<path fill="none" stroke="#191970" d="M296.496,-10C311.0873,-10 327.9062,-10 340.9142,-10"/>
<polygon fill="#191970" stroke="#191970" points="296.3512,-6.5001 286.3512,-10 296.3511,-13.5001 296.3512,-6.5001"/>
</g>
<!-- Node45 -->
<g id="node8" class="node">
<title>Node45</title>
<g id="a_node8"><a xlink:href="tcpip_8c.html#a1f3a88b8df6ba3b9ed1c00e0a305e3db" target="_top" xlink:title="tcpip_init">
<polygon fill="#ffffff" stroke="#000000" points="420,-.5 420,-19.5 466,-19.5 466,-.5 420,-.5"/>
<text text-anchor="middle" x="443" y="-7.5" font-family="Helvetica,sans-Serif" font-size="10.00" fill="#000000">tcpip_init</text>
</a>
</g>
</g>
<!-- Node44&#45;&gt;Node45 -->
<g id="edge7" class="edge">
<title>Node44&#45;&gt;Node45</title>
<path fill="none" stroke="#191970" d="M394.1809,-10C402.7827,-10 411.9321,-10 419.9572,-10"/>
<polygon fill="#191970" stroke="#191970" points="394.0726,-6.5001 384.0725,-10 394.0725,-13.5001 394.0726,-6.5001"/>
</g>
</g>
</svg>
