<?xml version="1.0" encoding="UTF-8" standalone="no"?>
<!DOCTYPE svg PUBLIC "-//W3C//DTD SVG 1.1//EN"
 "http://www.w3.org/Graphics/SVG/1.1/DTD/svg11.dtd">
<!-- Generated by graphviz version 2.40.1 (20161225.0304)
 -->
<!-- Title: esp&#45;open&#45;lwip/lwip/core/sys_arch.c Pages: 1 -->
<svg width="556pt" height="543pt"
 viewBox="0.00 0.00 556.00 543.00" xmlns="http://www.w3.org/2000/svg" xmlns:xlink="http://www.w3.org/1999/xlink">
<g id="graph0" class="graph" transform="scale(1 1) rotate(0) translate(4 539)">
<title>esp&#45;open&#45;lwip/lwip/core/sys_arch.c</title>
<polygon fill="#ffffff" stroke="transparent" points="-4,4 -4,-539 552,-539 552,4 -4,4"/>
<!-- Node0 -->
<g id="node1" class="node">
<title>Node0</title>
<polygon fill="#bfbfbf" stroke="#000000" points="167,-504.5 167,-534.5 245,-534.5 245,-504.5 167,-504.5"/>
<text text-anchor="start" x="175" y="-522.5" font-family="Helvetica,sans-Serif" font-size="10.00" fill="#000000">esp&#45;open&#45;lwip/lwip</text>
<text text-anchor="middle" x="206" y="-511.5" font-family="Helvetica,sans-Serif" font-size="10.00" fill="#000000">/core/sys_arch.c</text>
</g>
<!-- Node1 -->
<g id="node2" class="node">
<title>Node1</title>
<g id="a_node2"><a xlink:href="c__types_8h.html" target="_top" xlink:title="c_types.h">
<polygon fill="#ffffff" stroke="#000000" points="81.5,-56.5 81.5,-75.5 130.5,-75.5 130.5,-56.5 81.5,-56.5"/>
<text text-anchor="middle" x="106" y="-63.5" font-family="Helvetica,sans-Serif" font-size="10.00" fill="#000000">c_types.h</text>
</a>
</g>
</g>
<!-- Node0&#45;&gt;Node1 -->
<g id="edge1" class="edge">
<title>Node0&#45;&gt;Node1</title>
<path fill="none" stroke="#191970" d="M166.7681,-514.8996C106.9991,-505.4638 0,-477.9635 0,-402 0,-402 0,-402 0,-178 0,-132.9213 45.8565,-98.6897 77.2472,-80.5376"/>
<polygon fill="#191970" stroke="#191970" points="79.0226,-83.5552 86.0622,-75.6372 75.6214,-77.437 79.0226,-83.5552"/>
</g>
<!-- Node4 -->
<g id="node5" class="node">
<title>Node4</title>
<g id="a_node5"><a xlink:href="ets__sys_8h.html" target="_top" xlink:title="ets_sys.h">
<polygon fill="#ffffff" stroke="#000000" points="82,-112.5 82,-131.5 130,-131.5 130,-112.5 82,-112.5"/>
<text text-anchor="middle" x="106" y="-119.5" font-family="Helvetica,sans-Serif" font-size="10.00" fill="#000000">ets_sys.h</text>
</a>
</g>
</g>
<!-- Node0&#45;&gt;Node4 -->
<g id="edge4" class="edge">
<title>Node0&#45;&gt;Node4</title>
<path fill="none" stroke="#191970" d="M189.5454,-504.1703C169.8748,-484.77 137.6544,-449.354 122,-412 100.8629,-361.5635 106,-344.6865 106,-290 106,-290 106,-290 106,-234 106,-201.7116 106,-164.1872 106,-141.8048"/>
<polygon fill="#191970" stroke="#191970" points="109.5001,-141.5883 106,-131.5884 102.5001,-141.5884 109.5001,-141.5883"/>
</g>
<!-- Node5 -->
<g id="node6" class="node">
<title>Node5</title>
<g id="a_node6"><a xlink:href="eagle__soc_8h.html" target="_top" xlink:title="eagle_soc.h">
<polygon fill="#ffffff" stroke="#000000" points="341.5,-56.5 341.5,-75.5 398.5,-75.5 398.5,-56.5 341.5,-56.5"/>
<text text-anchor="middle" x="370" y="-63.5" font-family="Helvetica,sans-Serif" font-size="10.00" fill="#000000">eagle_soc.h</text>
</a>
</g>
</g>
<!-- Node0&#45;&gt;Node5 -->
<g id="edge27" class="edge">
<title>Node0&#45;&gt;Node5</title>
<path fill="none" stroke="#191970" d="M245.4272,-514.4789C304.2129,-504.5388 408,-476.4476 408,-402 408,-402 408,-402 408,-178 408,-143.6118 391.7366,-106.2832 380.489,-84.5791"/>
<polygon fill="#191970" stroke="#191970" points="383.431,-82.6605 375.607,-75.5166 377.2683,-85.9804 383.431,-82.6605"/>
</g>
<!-- Node6 -->
<g id="node7" class="node">
<title>Node6</title>
<g id="a_node7"><a xlink:href="osapi_8h.html" target="_top" xlink:title="osapi.h">
<polygon fill="#ffffff" stroke="#000000" points="436.5,-112.5 436.5,-131.5 477.5,-131.5 477.5,-112.5 436.5,-112.5"/>
<text text-anchor="middle" x="457" y="-119.5" font-family="Helvetica,sans-Serif" font-size="10.00" fill="#000000">osapi.h</text>
</a>
</g>
</g>
<!-- Node0&#45;&gt;Node6 -->
<g id="edge7" class="edge">
<title>Node0&#45;&gt;Node6</title>
<path fill="none" stroke="#191970" d="M245.2208,-514.3908C299.9286,-506.5687 395.4351,-490.1685 422,-468 446.5998,-447.4715 451,-434.0401 451,-402 451,-402 451,-402 451,-234 451,-201.6653 453.5245,-164.1547 455.2984,-141.7876"/>
<polygon fill="#191970" stroke="#191970" points="458.8065,-141.833 456.1403,-131.5791 451.8302,-141.2576 458.8065,-141.833"/>
</g>
<!-- Node9 -->
<g id="node10" class="node">
<title>Node9</title>
<g id="a_node10"><a xlink:href="os__type_8h.html" target="_top" xlink:title="os_type.h">
<polygon fill="#ffffff" stroke="#000000" points="28.5,-336.5 28.5,-355.5 77.5,-355.5 77.5,-336.5 28.5,-336.5"/>
<text text-anchor="middle" x="53" y="-343.5" font-family="Helvetica,sans-Serif" font-size="10.00" fill="#000000">os_type.h</text>
</a>
</g>
</g>
<!-- Node0&#45;&gt;Node9 -->
<g id="edge10" class="edge">
<title>Node0&#45;&gt;Node9</title>
<path fill="none" stroke="#191970" d="M166.8542,-511.5514C141.0255,-504.3564 108.3238,-491.2039 88,-468 62.4533,-438.8332 55.4899,-392.1234 53.6329,-365.7666"/>
<polygon fill="#191970" stroke="#191970" points="57.115,-365.3302 53.1002,-355.5255 50.1245,-365.6938 57.115,-365.3302"/>
</g>
<!-- Node10 -->
<g id="node11" class="node">
<title>Node10</title>
<g id="a_node11"><a xlink:href="opt_8h.html" target="_top" xlink:title="lwip/opt.h">
<polygon fill="#ffffff" stroke="#000000" points="185,-336.5 185,-355.5 233,-355.5 233,-336.5 185,-336.5"/>
<text text-anchor="middle" x="209" y="-343.5" font-family="Helvetica,sans-Serif" font-size="10.00" fill="#000000">lwip/opt.h</text>
</a>
</g>
</g>
<!-- Node0&#45;&gt;Node10 -->
<g id="edge12" class="edge">
<title>Node0&#45;&gt;Node10</title>
<path fill="none" stroke="#191970" d="M206.261,-504.4065C206.8015,-473.1485 208.0434,-401.3214 208.6516,-366.1492"/>
<polygon fill="#191970" stroke="#191970" points="212.1581,-365.797 208.8316,-355.738 205.1592,-365.676 212.1581,-365.797"/>
</g>
<!-- Node15 -->
<g id="node16" class="node">
<title>Node15</title>
<g id="a_node16"><a xlink:href="sys_8h.html" target="_top" xlink:title="lwip/sys.h">
<polygon fill="#ffffff" stroke="#000000" points="244.5,-448.5 244.5,-467.5 293.5,-467.5 293.5,-448.5 244.5,-448.5"/>
<text text-anchor="middle" x="269" y="-455.5" font-family="Helvetica,sans-Serif" font-size="10.00" fill="#000000">lwip/sys.h</text>
</a>
</g>
</g>
<!-- Node0&#45;&gt;Node15 -->
<g id="edge20" class="edge">
<title>Node0&#45;&gt;Node15</title>
<path fill="none" stroke="#191970" d="M221.573,-504.2977C230.6825,-495.4052 242.2034,-484.1586 251.6091,-474.9769"/>
<polygon fill="#191970" stroke="#191970" points="254.202,-477.3368 258.9129,-467.8469 249.3122,-472.3278 254.202,-477.3368"/>
</g>
<!-- Node2 -->
<g id="node3" class="node">
<title>Node2</title>
<polygon fill="#ffffff" stroke="#bfbfbf" points="54.5,-.5 54.5,-19.5 95.5,-19.5 95.5,-.5 54.5,-.5"/>
<text text-anchor="middle" x="75" y="-7.5" font-family="Helvetica,sans-Serif" font-size="10.00" fill="#000000">stdint.h</text>
</g>
<!-- Node1&#45;&gt;Node2 -->
<g id="edge2" class="edge">
<title>Node1&#45;&gt;Node2</title>
<path fill="none" stroke="#191970" d="M100.6002,-56.2455C96.3773,-48.617 90.3827,-37.7881 85.2559,-28.5267"/>
<polygon fill="#191970" stroke="#191970" points="88.2432,-26.6965 80.3379,-19.6427 82.119,-30.0867 88.2432,-26.6965"/>
</g>
<!-- Node3 -->
<g id="node4" class="node">
<title>Node3</title>
<polygon fill="#ffffff" stroke="#bfbfbf" points="113.5,-.5 113.5,-19.5 160.5,-19.5 160.5,-.5 113.5,-.5"/>
<text text-anchor="middle" x="137" y="-7.5" font-family="Helvetica,sans-Serif" font-size="10.00" fill="#000000">stdbool.h</text>
</g>
<!-- Node1&#45;&gt;Node3 -->
<g id="edge3" class="edge">
<title>Node1&#45;&gt;Node3</title>
<path fill="none" stroke="#191970" d="M111.3998,-56.2455C115.6227,-48.617 121.6173,-37.7881 126.7441,-28.5267"/>
<polygon fill="#191970" stroke="#191970" points="129.881,-30.0867 131.6621,-19.6427 123.7568,-26.6965 129.881,-30.0867"/>
</g>
<!-- Node4&#45;&gt;Node1 -->
<g id="edge5" class="edge">
<title>Node4&#45;&gt;Node1</title>
<path fill="none" stroke="#191970" d="M106,-112.2455C106,-104.9382 106,-94.6944 106,-85.7046"/>
<polygon fill="#191970" stroke="#191970" points="109.5001,-85.6426 106,-75.6427 102.5001,-85.6427 109.5001,-85.6426"/>
</g>
<!-- Node4&#45;&gt;Node5 -->
<g id="edge6" class="edge">
<title>Node4&#45;&gt;Node5</title>
<path fill="none" stroke="#191970" d="M130.3633,-116.832C176.2922,-107.0895 276.0156,-85.9361 331.2422,-74.2214"/>
<polygon fill="#191970" stroke="#191970" points="332.2833,-77.5785 341.3393,-72.0795 330.8307,-70.7308 332.2833,-77.5785"/>
</g>
<!-- Node7 -->
<g id="node8" class="node">
<title>Node7</title>
<polygon fill="#ffffff" stroke="#bfbfbf" points="426.5,-56.5 426.5,-75.5 467.5,-75.5 467.5,-56.5 426.5,-56.5"/>
<text text-anchor="middle" x="447" y="-63.5" font-family="Helvetica,sans-Serif" font-size="10.00" fill="#000000">string.h</text>
</g>
<!-- Node6&#45;&gt;Node7 -->
<g id="edge8" class="edge">
<title>Node6&#45;&gt;Node7</title>
<path fill="none" stroke="#191970" d="M455.2581,-112.2455C453.9533,-104.9382 452.124,-94.6944 450.5187,-85.7046"/>
<polygon fill="#191970" stroke="#191970" points="453.9254,-84.8717 448.7219,-75.6427 447.0344,-86.1022 453.9254,-84.8717"/>
</g>
<!-- Node8 -->
<g id="node9" class="node">
<title>Node8</title>
<polygon fill="#ffffff" stroke="#bfbfbf" points="486,-56.5 486,-75.5 548,-75.5 548,-56.5 486,-56.5"/>
<text text-anchor="middle" x="517" y="-63.5" font-family="Helvetica,sans-Serif" font-size="10.00" fill="#000000">user_config.h</text>
</g>
<!-- Node6&#45;&gt;Node8 -->
<g id="edge9" class="edge">
<title>Node6&#45;&gt;Node8</title>
<path fill="none" stroke="#191970" d="M467.4512,-112.2455C476.2269,-104.0549 488.9554,-92.1749 499.314,-82.5069"/>
<polygon fill="#191970" stroke="#191970" points="501.7461,-85.0246 506.6686,-75.6427 496.9699,-79.9072 501.7461,-85.0246"/>
</g>
<!-- Node9&#45;&gt;Node4 -->
<g id="edge11" class="edge">
<title>Node9&#45;&gt;Node4</title>
<path fill="none" stroke="#191970" d="M54.8447,-336.2879C60.016,-309.3823 75.3655,-231.6653 92,-168 94.289,-159.2394 97.1516,-149.6444 99.6909,-141.4948"/>
<polygon fill="#191970" stroke="#191970" points="103.0768,-142.3962 102.7672,-131.8059 96.405,-140.2778 103.0768,-142.3962"/>
</g>
<!-- Node11 -->
<g id="node12" class="node">
<title>Node11</title>
<g id="a_node12"><a xlink:href="lwipopts_8h.html" target="_top" xlink:title="lwipopts.h">
<polygon fill="#ffffff" stroke="#000000" points="257,-280.5 257,-299.5 307,-299.5 307,-280.5 257,-280.5"/>
<text text-anchor="middle" x="282" y="-287.5" font-family="Helvetica,sans-Serif" font-size="10.00" fill="#000000">lwipopts.h</text>
</a>
</g>
</g>
<!-- Node10&#45;&gt;Node11 -->
<g id="edge13" class="edge">
<title>Node10&#45;&gt;Node11</title>
<path fill="none" stroke="#191970" d="M221.7156,-336.2455C232.602,-327.8943 248.4883,-315.7076 261.22,-305.9408"/>
<polygon fill="#191970" stroke="#191970" points="263.6261,-308.5063 269.4301,-299.6427 259.3654,-302.9523 263.6261,-308.5063"/>
</g>
<!-- Node12 -->
<g id="node13" class="node">
<title>Node12</title>
<g id="a_node13"><a xlink:href="esp-open-sdk_2esp-open-lwip_2include_2lwip_2debug_8h.html" target="_top" xlink:title="lwip/debug.h">
<polygon fill="#ffffff" stroke="#000000" points="179.5,-280.5 179.5,-299.5 238.5,-299.5 238.5,-280.5 179.5,-280.5"/>
<text text-anchor="middle" x="209" y="-287.5" font-family="Helvetica,sans-Serif" font-size="10.00" fill="#000000">lwip/debug.h</text>
</a>
</g>
</g>
<!-- Node10&#45;&gt;Node12 -->
<g id="edge14" class="edge">
<title>Node10&#45;&gt;Node12</title>
<path fill="none" stroke="#191970" d="M209,-336.2455C209,-328.9382 209,-318.6944 209,-309.7046"/>
<polygon fill="#191970" stroke="#191970" points="212.5001,-309.6426 209,-299.6427 205.5001,-309.6427 212.5001,-309.6426"/>
</g>
<!-- Node13 -->
<g id="node14" class="node">
<title>Node13</title>
<g id="a_node14"><a xlink:href="arch_8h.html" target="_top" xlink:title="lwip/arch.h">
<polygon fill="#ffffff" stroke="#000000" points="134,-224.5 134,-243.5 186,-243.5 186,-224.5 134,-224.5"/>
<text text-anchor="middle" x="160" y="-231.5" font-family="Helvetica,sans-Serif" font-size="10.00" fill="#000000">lwip/arch.h</text>
</a>
</g>
</g>
<!-- Node12&#45;&gt;Node13 -->
<g id="edge15" class="edge">
<title>Node12&#45;&gt;Node13</title>
<path fill="none" stroke="#191970" d="M200.4649,-280.2455C193.5088,-272.2958 183.5117,-260.8706 175.1949,-251.3656"/>
<polygon fill="#191970" stroke="#191970" points="177.6564,-248.8637 168.4373,-243.6427 172.3884,-253.4732 177.6564,-248.8637"/>
</g>
<!-- Node14 -->
<g id="node15" class="node">
<title>Node14</title>
<g id="a_node15"><a xlink:href="cc_8h.html" target="_top" xlink:title="arch/cc.h">
<polygon fill="#ffffff" stroke="#000000" points="135.5,-168.5 135.5,-187.5 182.5,-187.5 182.5,-168.5 135.5,-168.5"/>
<text text-anchor="middle" x="159" y="-175.5" font-family="Helvetica,sans-Serif" font-size="10.00" fill="#000000">arch/cc.h</text>
</a>
</g>
</g>
<!-- Node13&#45;&gt;Node14 -->
<g id="edge16" class="edge">
<title>Node13&#45;&gt;Node14</title>
<path fill="none" stroke="#191970" d="M159.8258,-224.2455C159.6953,-216.9382 159.5124,-206.6944 159.3519,-197.7046"/>
<polygon fill="#191970" stroke="#191970" points="162.8503,-197.5786 159.1722,-187.6427 155.8514,-197.7036 162.8503,-197.5786"/>
</g>
<!-- Node14&#45;&gt;Node1 -->
<g id="edge17" class="edge">
<title>Node14&#45;&gt;Node1</title>
<path fill="none" stroke="#191970" d="M157.0925,-168.2289C154.2796,-155.0066 148.3223,-130.898 139,-112 134.0825,-102.0314 127.0695,-91.893 120.7721,-83.6803"/>
<polygon fill="#191970" stroke="#191970" points="123.3217,-81.2636 114.3527,-75.6237 117.847,-85.6257 123.3217,-81.2636"/>
</g>
<!-- Node14&#45;&gt;Node4 -->
<g id="edge18" class="edge">
<title>Node14&#45;&gt;Node4</title>
<path fill="none" stroke="#191970" d="M149.7681,-168.2455C142.1683,-160.2155 131.2123,-148.6394 122.1632,-139.0781"/>
<polygon fill="#191970" stroke="#191970" points="124.542,-136.4998 115.1261,-131.6427 119.4579,-141.3115 124.542,-136.4998"/>
</g>
<!-- Node14&#45;&gt;Node6 -->
<g id="edge19" class="edge">
<title>Node14&#45;&gt;Node6</title>
<path fill="none" stroke="#191970" d="M182.6326,-173.559C236.1372,-163.5044 366.5136,-139.0042 426.2216,-127.7839"/>
<polygon fill="#191970" stroke="#191970" points="426.9987,-131.1992 436.1803,-125.9124 425.7059,-124.3196 426.9987,-131.1992"/>
</g>
<!-- Node15&#45;&gt;Node5 -->
<g id="edge22" class="edge">
<title>Node15&#45;&gt;Node5</title>
<path fill="none" stroke="#191970" d="M287.525,-448.3812C316.6828,-431.7571 370,-394.7005 370,-346 370,-346 370,-346 370,-178 370,-145.7116 370,-108.1872 370,-85.8048"/>
<polygon fill="#191970" stroke="#191970" points="373.5001,-85.5883 370,-75.5884 366.5001,-85.5884 373.5001,-85.5883"/>
</g>
<!-- Node15&#45;&gt;Node10 -->
<g id="edge21" class="edge">
<title>Node15&#45;&gt;Node10</title>
<path fill="none" stroke="#191970" d="M283.3769,-448.4244C300.7604,-435.6219 326.1502,-412.1956 313,-392 297.6351,-368.4032 267.1098,-356.8213 243.0859,-351.1908"/>
<polygon fill="#191970" stroke="#191970" points="243.7571,-347.7555 233.2511,-349.1244 242.3178,-354.6059 243.7571,-347.7555"/>
</g>
<!-- Node16 -->
<g id="node17" class="node">
<title>Node16</title>
<g id="a_node17"><a xlink:href="err_8h.html" target="_top" xlink:title="lwip/err.h">
<polygon fill="#ffffff" stroke="#000000" points="130.5,-392.5 130.5,-411.5 177.5,-411.5 177.5,-392.5 130.5,-392.5"/>
<text text-anchor="middle" x="154" y="-399.5" font-family="Helvetica,sans-Serif" font-size="10.00" fill="#000000">lwip/err.h</text>
</a>
</g>
</g>
<!-- Node15&#45;&gt;Node16 -->
<g id="edge23" class="edge">
<title>Node15&#45;&gt;Node16</title>
<path fill="none" stroke="#191970" d="M249.2308,-448.3733C230.8531,-439.4241 203.2688,-425.9917 182.5107,-415.8835"/>
<polygon fill="#191970" stroke="#191970" points="184.0343,-412.7325 173.5112,-411.5011 180.9696,-419.026 184.0343,-412.7325"/>
</g>
<!-- Node17 -->
<g id="node18" class="node">
<title>Node17</title>
<g id="a_node18"><a xlink:href="sys__arch_8h.html" target="_top" xlink:title="arch/sys_arch.h">
<polygon fill="#ffffff" stroke="#000000" points="234.5,-392.5 234.5,-411.5 303.5,-411.5 303.5,-392.5 234.5,-392.5"/>
<text text-anchor="middle" x="269" y="-399.5" font-family="Helvetica,sans-Serif" font-size="10.00" fill="#000000">arch/sys_arch.h</text>
</a>
</g>
</g>
<!-- Node15&#45;&gt;Node17 -->
<g id="edge26" class="edge">
<title>Node15&#45;&gt;Node17</title>
<path fill="none" stroke="#191970" d="M269,-448.2455C269,-440.9382 269,-430.6944 269,-421.7046"/>
<polygon fill="#191970" stroke="#191970" points="272.5001,-421.6426 269,-411.6427 265.5001,-421.6427 272.5001,-421.6426"/>
</g>
<!-- Node16&#45;&gt;Node10 -->
<g id="edge24" class="edge">
<title>Node16&#45;&gt;Node10</title>
<path fill="none" stroke="#191970" d="M163.5803,-392.2455C171.5458,-384.1352 183.0641,-372.4075 192.5079,-362.7919"/>
<polygon fill="#191970" stroke="#191970" points="195.0195,-365.2297 199.5295,-355.6427 190.0253,-360.3247 195.0195,-365.2297"/>
</g>
<!-- Node16&#45;&gt;Node13 -->
<g id="edge25" class="edge">
<title>Node16&#45;&gt;Node13</title>
<path fill="none" stroke="#191970" d="M154.3398,-392.4862C155.2882,-365.9293 157.9798,-290.5651 159.2798,-254.1655"/>
<polygon fill="#191970" stroke="#191970" points="162.7898,-253.9465 159.649,-243.8279 155.7942,-253.6966 162.7898,-253.9465"/>
</g>
</g>
</svg>
