<?xml version="1.0" encoding="UTF-8" standalone="no"?>
<!DOCTYPE svg PUBLIC "-//W3C//DTD SVG 1.1//EN"
 "http://www.w3.org/Graphics/SVG/1.1/DTD/svg11.dtd">
<!-- Generated by graphviz version 2.40.1 (20161225.0304)
 -->
<!-- Title: tcpip_input Pages: 1 -->
<svg width="302pt" height="28pt"
 viewBox="0.00 0.00 302.00 28.00" xmlns="http://www.w3.org/2000/svg" xmlns:xlink="http://www.w3.org/1999/xlink">
<g id="graph0" class="graph" transform="scale(1 1) rotate(0) translate(4 24)">
<title>tcpip_input</title>
<polygon fill="#ffffff" stroke="transparent" points="-4,4 -4,-24 298,-24 298,4 -4,4"/>
<!-- Node87 -->
<g id="node1" class="node">
<title>Node87</title>
<polygon fill="#bfbfbf" stroke="#000000" points="0,-.5 0,-19.5 53,-19.5 53,-.5 0,-.5"/>
<text text-anchor="middle" x="26.5" y="-7.5" font-family="Helvetica,sans-Serif" font-size="10.00" fill="#000000">tcpip_input</text>
</g>
<!-- Node88 -->
<g id="node2" class="node">
<title>Node88</title>
<g id="a_node2"><a xlink:href="netif_8c.html#a0f4a53e47c840904f824a2a1c0d4ebf4" target="_top" xlink:title="netif_init">
<polygon fill="#ffffff" stroke="#000000" points="89,-.5 89,-19.5 133,-19.5 133,-.5 89,-.5"/>
<text text-anchor="middle" x="111" y="-7.5" font-family="Helvetica,sans-Serif" font-size="10.00" fill="#000000">netif_init</text>
</a>
</g>
</g>
<!-- Node87&#45;&gt;Node88 -->
<g id="edge1" class="edge">
<title>Node87&#45;&gt;Node88</title>
<path fill="none" stroke="#191970" d="M63.2768,-10C72.0332,-10 81.1085,-10 88.9641,-10"/>
<polygon fill="#191970" stroke="#191970" points="63.2364,-6.5001 53.2363,-10 63.2363,-13.5001 63.2364,-6.5001"/>
</g>
<!-- Node89 -->
<g id="node3" class="node">
<title>Node89</title>
<g id="a_node3"><a xlink:href="init_8c.html#a0c1a18439524d2f4a5e51d25c0ca2ce9" target="_top" xlink:title="lwip_init">
<polygon fill="#ffffff" stroke="#000000" points="169,-.5 169,-19.5 212,-19.5 212,-.5 169,-.5"/>
<text text-anchor="middle" x="190.5" y="-7.5" font-family="Helvetica,sans-Serif" font-size="10.00" fill="#000000">lwip_init</text>
</a>
</g>
</g>
<!-- Node88&#45;&gt;Node89 -->
<g id="edge2" class="edge">
<title>Node88&#45;&gt;Node89</title>
<path fill="none" stroke="#191970" d="M143.2517,-10C151.8258,-10 160.883,-10 168.7484,-10"/>
<polygon fill="#191970" stroke="#191970" points="143.1452,-6.5001 133.1452,-10 143.1451,-13.5001 143.1452,-6.5001"/>
</g>
<!-- Node90 -->
<g id="node4" class="node">
<title>Node90</title>
<g id="a_node4"><a xlink:href="tcpip_8c.html#a1f3a88b8df6ba3b9ed1c00e0a305e3db" target="_top" xlink:title="tcpip_init">
<polygon fill="#ffffff" stroke="#000000" points="248,-.5 248,-19.5 294,-19.5 294,-.5 248,-.5"/>
<text text-anchor="middle" x="271" y="-7.5" font-family="Helvetica,sans-Serif" font-size="10.00" fill="#000000">tcpip_init</text>
</a>
</g>
</g>
<!-- Node89&#45;&gt;Node90 -->
<g id="edge3" class="edge">
<title>Node89&#45;&gt;Node90</title>
<path fill="none" stroke="#191970" d="M222.1809,-10C230.7827,-10 239.9321,-10 247.9572,-10"/>
<polygon fill="#191970" stroke="#191970" points="222.0726,-6.5001 212.0725,-10 222.0725,-13.5001 222.0726,-6.5001"/>
</g>
</g>
</svg>
