<?xml version="1.0" encoding="UTF-8" standalone="no"?>
<!DOCTYPE svg PUBLIC "-//W3C//DTD SVG 1.1//EN"
 "http://www.w3.org/Graphics/SVG/1.1/DTD/svg11.dtd">
<!-- Generated by graphviz version 2.40.1 (20161225.0304)
 -->
<!-- Title: pbuf_free_callback Pages: 1 -->
<svg width="501pt" height="332pt"
 viewBox="0.00 0.00 501.00 332.00" xmlns="http://www.w3.org/2000/svg" xmlns:xlink="http://www.w3.org/1999/xlink">
<g id="graph0" class="graph" transform="scale(1 1) rotate(0) translate(4 328)">
<title>pbuf_free_callback</title>
<polygon fill="#ffffff" stroke="transparent" points="-4,4 -4,-328 497,-328 497,4 -4,4"/>
<!-- Node13 -->
<g id="node1" class="node">
<title>Node13</title>
<polygon fill="#bfbfbf" stroke="#000000" points="0,-174.5 0,-193.5 79,-193.5 79,-174.5 0,-174.5"/>
<text text-anchor="middle" x="39.5" y="-181.5" font-family="Helvetica,sans-Serif" font-size="10.00" fill="#000000">pbuf_free_callback</text>
</g>
<!-- Node14 -->
<g id="node2" class="node">
<title>Node14</title>
<g id="a_node2"><a xlink:href="tcpip_8c.html#ad03556932c6347e620ceb49f39b4e33b" target="_top" xlink:title="pbuf_free_int">
<polygon fill="#ffffff" stroke="#000000" points="125.5,-250.5 125.5,-269.5 185.5,-269.5 185.5,-250.5 125.5,-250.5"/>
<text text-anchor="middle" x="155.5" y="-257.5" font-family="Helvetica,sans-Serif" font-size="10.00" fill="#000000">pbuf_free_int</text>
</a>
</g>
</g>
<!-- Node13&#45;&gt;Node14 -->
<g id="edge1" class="edge">
<title>Node13&#45;&gt;Node14</title>
<path fill="none" stroke="#191970" d="M54.1915,-193.6255C73.8898,-206.5312 109.0724,-229.5819 132.3509,-244.8334"/>
<polygon fill="#191970" stroke="#191970" points="130.6451,-247.9 140.9278,-250.4527 134.4813,-242.0448 130.6451,-247.9"/>
</g>
<!-- Node19 -->
<g id="node7" class="node">
<title>Node19</title>
<g id="a_node7"><a xlink:href="tcpip_8c.html#ab1d3ef23817d7703fa75ed67bd45ea1d" target="_top" xlink:title="tcpip_callback_with\l_block">
<polygon fill="#ffffff" stroke="#000000" points="115,-147 115,-177 196,-177 196,-147 115,-147"/>
<text text-anchor="start" x="123" y="-165" font-family="Helvetica,sans-Serif" font-size="10.00" fill="#000000">tcpip_callback_with</text>
<text text-anchor="middle" x="155.5" y="-154" font-family="Helvetica,sans-Serif" font-size="10.00" fill="#000000">_block</text>
</a>
</g>
</g>
<!-- Node13&#45;&gt;Node19 -->
<g id="edge6" class="edge">
<title>Node13&#45;&gt;Node19</title>
<path fill="none" stroke="#191970" d="M79.0962,-176.4904C87.3988,-174.9157 96.2627,-173.2347 104.9038,-171.5958"/>
<polygon fill="#191970" stroke="#191970" points="105.7256,-175.0024 114.8983,-169.7003 104.4212,-168.125 105.7256,-175.0024"/>
</g>
<!-- Node15 -->
<g id="node3" class="node">
<title>Node15</title>
<g id="a_node3"><a xlink:href="pbuf_8h.html#a0d26e00e2cf975274139d27ddabd7ed3" target="_top" xlink:title="pbuf_free">
<polygon fill="#ffffff" stroke="#000000" points="249,-304.5 249,-323.5 297,-323.5 297,-304.5 249,-304.5"/>
<text text-anchor="middle" x="273" y="-311.5" font-family="Helvetica,sans-Serif" font-size="10.00" fill="#000000">pbuf_free</text>
</a>
</g>
</g>
<!-- Node14&#45;&gt;Node15 -->
<g id="edge2" class="edge">
<title>Node14&#45;&gt;Node15</title>
<path fill="none" stroke="#191970" d="M176.2362,-269.5298C194.7471,-278.037 222.0817,-290.5992 242.9811,-300.2041"/>
<polygon fill="#191970" stroke="#191970" points="241.5279,-303.3881 252.0759,-304.3838 244.4511,-297.0277 241.5279,-303.3881"/>
</g>
<!-- Node16 -->
<g id="node4" class="node">
<title>Node16</title>
<g id="a_node4"><a xlink:href="esp-open-lwip_2include_2lwip_2mem_8h.html#ab270bbe39e1996d7095be3a139620ce0" target="_top" xlink:title="mem_free">
<polygon fill="#ffffff" stroke="#000000" points="352,-304.5 352,-323.5 402,-323.5 402,-304.5 352,-304.5"/>
<text text-anchor="middle" x="377" y="-311.5" font-family="Helvetica,sans-Serif" font-size="10.00" fill="#000000">mem_free</text>
</a>
</g>
</g>
<!-- Node15&#45;&gt;Node16 -->
<g id="edge3" class="edge">
<title>Node15&#45;&gt;Node16</title>
<path fill="none" stroke="#191970" d="M297.1211,-314C310.3513,-314 326.9999,-314 341.6693,-314"/>
<polygon fill="#191970" stroke="#191970" points="341.924,-317.5001 351.9239,-314 341.9239,-310.5001 341.924,-317.5001"/>
</g>
<!-- Node18 -->
<g id="node6" class="node">
<title>Node18</title>
<g id="a_node6"><a xlink:href="memp_8h.html#a9d30a969401eb0626105950d6e63f3bf" target="_top" xlink:title="memp_free">
<polygon fill="#ffffff" stroke="#000000" points="350,-266.5 350,-285.5 404,-285.5 404,-266.5 350,-266.5"/>
<text text-anchor="middle" x="377" y="-273.5" font-family="Helvetica,sans-Serif" font-size="10.00" fill="#000000">memp_free</text>
</a>
</g>
</g>
<!-- Node15&#45;&gt;Node18 -->
<g id="edge5" class="edge">
<title>Node15&#45;&gt;Node18</title>
<path fill="none" stroke="#191970" d="M297.1211,-305.1865C310.1872,-300.4124 326.5875,-294.4199 341.1226,-289.109"/>
<polygon fill="#191970" stroke="#191970" points="342.6321,-292.2839 350.8236,-285.5645 340.2297,-285.709 342.6321,-292.2839"/>
</g>
<!-- Node17 -->
<g id="node5" class="node">
<title>Node17</title>
<g id="a_node5"><a xlink:href="mem_8c.html#a24221009a2c00e9c3fa63eaa9444a076" target="_top" xlink:title="plug_holes">
<polygon fill="#ffffff" stroke="#000000" points="440,-304.5 440,-323.5 493,-323.5 493,-304.5 440,-304.5"/>
<text text-anchor="middle" x="466.5" y="-311.5" font-family="Helvetica,sans-Serif" font-size="10.00" fill="#000000">plug_holes</text>
</a>
</g>
</g>
<!-- Node16&#45;&gt;Node17 -->
<g id="edge4" class="edge">
<title>Node16&#45;&gt;Node17</title>
<path fill="none" stroke="#191970" d="M402.4077,-314C410.8937,-314 420.5288,-314 429.7031,-314"/>
<polygon fill="#191970" stroke="#191970" points="429.7797,-317.5001 439.7796,-314 429.7796,-310.5001 429.7797,-317.5001"/>
</g>
<!-- Node19&#45;&gt;Node18 -->
<g id="edge11" class="edge">
<title>Node19&#45;&gt;Node18</title>
<path fill="none" stroke="#191970" d="M162.9358,-177.2133C174.4454,-198.9542 198.7635,-238.3402 232,-257 264.9728,-275.5118 308.6592,-278.9147 339.4321,-278.5233"/>
<polygon fill="#191970" stroke="#191970" points="339.8376,-282.0137 349.7395,-278.2451 339.6487,-275.0162 339.8376,-282.0137"/>
</g>
<!-- Node20 -->
<g id="node8" class="node">
<title>Node20</title>
<g id="a_node8"><a xlink:href="sys_8h.html#a8bcfab4bd791dd33f69a778e7585275d" target="_top" xlink:title="sys_mbox_valid">
<polygon fill="#ffffff" stroke="#000000" points="238,-228.5 238,-247.5 308,-247.5 308,-228.5 238,-228.5"/>
<text text-anchor="middle" x="273" y="-235.5" font-family="Helvetica,sans-Serif" font-size="10.00" fill="#000000">sys_mbox_valid</text>
</a>
</g>
</g>
<!-- Node19&#45;&gt;Node20 -->
<g id="edge7" class="edge">
<title>Node19&#45;&gt;Node20</title>
<path fill="none" stroke="#191970" d="M173.6132,-177.1775C188.6618,-189.3659 210.9395,-206.457 232,-219 234.831,-220.686 237.8366,-222.3302 240.8834,-223.901"/>
<polygon fill="#191970" stroke="#191970" points="239.4922,-227.1166 250.0137,-228.3611 242.5647,-220.827 239.4922,-227.1166"/>
</g>
<!-- Node21 -->
<g id="node9" class="node">
<title>Node21</title>
<g id="a_node9"><a xlink:href="memp_8h.html#a5b98c976852aa0eabda9fd588be56eb8" target="_top" xlink:title="memp_malloc">
<polygon fill="#ffffff" stroke="#000000" points="241.5,-190.5 241.5,-209.5 304.5,-209.5 304.5,-190.5 241.5,-190.5"/>
<text text-anchor="middle" x="273" y="-197.5" font-family="Helvetica,sans-Serif" font-size="10.00" fill="#000000">memp_malloc</text>
</a>
</g>
</g>
<!-- Node19&#45;&gt;Node21 -->
<g id="edge8" class="edge">
<title>Node19&#45;&gt;Node21</title>
<path fill="none" stroke="#191970" d="M196.266,-175.1839C208.3834,-179.1027 221.6303,-183.3868 233.6553,-187.2758"/>
<polygon fill="#191970" stroke="#191970" points="232.8255,-190.6858 243.4174,-190.4328 234.9796,-184.0255 232.8255,-190.6858"/>
</g>
<!-- Node22 -->
<g id="node10" class="node">
<title>Node22</title>
<g id="a_node10"><a xlink:href="sys_8h.html#a9d068386a3c53dd01b8af99c3ef77555" target="_top" xlink:title="sys_mbox_post">
<polygon fill="#ffffff" stroke="#000000" points="238.5,-152.5 238.5,-171.5 307.5,-171.5 307.5,-152.5 238.5,-152.5"/>
<text text-anchor="middle" x="273" y="-159.5" font-family="Helvetica,sans-Serif" font-size="10.00" fill="#000000">sys_mbox_post</text>
</a>
</g>
</g>
<!-- Node19&#45;&gt;Node22 -->
<g id="edge9" class="edge">
<title>Node19&#45;&gt;Node22</title>
<path fill="none" stroke="#191970" d="M196.266,-162C206.5067,-162 217.5542,-162 227.9891,-162"/>
<polygon fill="#191970" stroke="#191970" points="228.1673,-165.5001 238.1672,-162 228.1672,-158.5001 228.1673,-165.5001"/>
</g>
<!-- Node23 -->
<g id="node11" class="node">
<title>Node23</title>
<g id="a_node11"><a xlink:href="sys_8h.html#aa36345e48a49d67cbb0878cd4cbd2195" target="_top" xlink:title="sys_mbox_trypost">
<polygon fill="#ffffff" stroke="#000000" points="234.5,-114.5 234.5,-133.5 311.5,-133.5 311.5,-114.5 234.5,-114.5"/>
<text text-anchor="middle" x="273" y="-121.5" font-family="Helvetica,sans-Serif" font-size="10.00" fill="#000000">sys_mbox_trypost</text>
</a>
</g>
</g>
<!-- Node19&#45;&gt;Node23 -->
<g id="edge10" class="edge">
<title>Node19&#45;&gt;Node23</title>
<path fill="none" stroke="#191970" d="M196.266,-148.8161C208.3834,-144.8973 221.6303,-140.6132 233.6553,-136.7242"/>
<polygon fill="#191970" stroke="#191970" points="234.9796,-139.9745 243.4174,-133.5672 232.8255,-133.3142 234.9796,-139.9745"/>
</g>
<!-- Node24 -->
<g id="node12" class="node">
<title>Node24</title>
<g id="a_node12"><a xlink:href="sys_8h.html#a8d364c5037778acb21c3df675db81b4f" target="_top" xlink:title="sys_arch_sem_wait">
<polygon fill="#ffffff" stroke="#000000" points="232,-76.5 232,-95.5 314,-95.5 314,-76.5 232,-76.5"/>
<text text-anchor="middle" x="273" y="-83.5" font-family="Helvetica,sans-Serif" font-size="10.00" fill="#000000">sys_arch_sem_wait</text>
</a>
</g>
</g>
<!-- Node19&#45;&gt;Node24 -->
<g id="edge12" class="edge">
<title>Node19&#45;&gt;Node24</title>
<path fill="none" stroke="#191970" d="M173.6132,-146.8225C188.6618,-134.6341 210.9395,-117.543 232,-105 234.831,-103.314 237.8366,-101.6698 240.8834,-100.099"/>
<polygon fill="#191970" stroke="#191970" points="242.5647,-103.173 250.0137,-95.6389 239.4922,-96.8834 242.5647,-103.173"/>
</g>
<!-- Node25 -->
<g id="node13" class="node">
<title>Node25</title>
<g id="a_node13"><a xlink:href="sys_8h.html#af99da9e34a71855285c535183133dfde" target="_top" xlink:title="sys_sem_new">
<polygon fill="#ffffff" stroke="#000000" points="241,-38.5 241,-57.5 305,-57.5 305,-38.5 241,-38.5"/>
<text text-anchor="middle" x="273" y="-45.5" font-family="Helvetica,sans-Serif" font-size="10.00" fill="#000000">sys_sem_new</text>
</a>
</g>
</g>
<!-- Node19&#45;&gt;Node25 -->
<g id="edge13" class="edge">
<title>Node19&#45;&gt;Node25</title>
<path fill="none" stroke="#191970" d="M164.64,-146.6901C177.489,-126.2464 202.6355,-89.9505 232,-67 234.0553,-65.3937 236.2683,-63.8841 238.5634,-62.4732"/>
<polygon fill="#191970" stroke="#191970" points="240.5496,-65.3772 247.6625,-57.525 237.2054,-59.2277 240.5496,-65.3772"/>
</g>
<!-- Node26 -->
<g id="node14" class="node">
<title>Node26</title>
<g id="a_node14"><a xlink:href="sys_8h.html#a83b781f96c30e915c752065a757da283" target="_top" xlink:title="sys_sem_free">
<polygon fill="#ffffff" stroke="#000000" points="241.5,-.5 241.5,-19.5 304.5,-19.5 304.5,-.5 241.5,-.5"/>
<text text-anchor="middle" x="273" y="-7.5" font-family="Helvetica,sans-Serif" font-size="10.00" fill="#000000">sys_sem_free</text>
</a>
</g>
</g>
<!-- Node19&#45;&gt;Node26 -->
<g id="edge14" class="edge">
<title>Node19&#45;&gt;Node26</title>
<path fill="none" stroke="#191970" d="M160.6893,-146.853C170.6137,-119.8852 194.6727,-63.1783 232,-29 233.6454,-27.4934 235.4312,-26.087 237.3059,-24.7773"/>
<polygon fill="#191970" stroke="#191970" points="239.1312,-27.764 245.9344,-19.6419 235.5511,-21.7487 239.1312,-27.764"/>
</g>
</g>
</svg>
