<?xml version="1.0" encoding="UTF-8" standalone="no"?>
<!DOCTYPE svg PUBLIC "-//W3C//DTD SVG 1.1//EN"
 "http://www.w3.org/Graphics/SVG/1.1/DTD/svg11.dtd">
<!-- Generated by graphviz version 2.40.1 (20161225.0304)
 -->
<!-- Title: mem_free_callback Pages: 1 -->
<svg width="325pt" height="332pt"
 viewBox="0.00 0.00 325.00 332.00" xmlns="http://www.w3.org/2000/svg" xmlns:xlink="http://www.w3.org/1999/xlink">
<g id="graph0" class="graph" transform="scale(1 1) rotate(0) translate(4 328)">
<title>mem_free_callback</title>
<polygon fill="#ffffff" stroke="transparent" points="-4,4 -4,-328 321,-328 321,4 -4,4"/>
<!-- Node0 -->
<g id="node1" class="node">
<title>Node0</title>
<polygon fill="#bfbfbf" stroke="#000000" points="0,-174.5 0,-193.5 82,-193.5 82,-174.5 0,-174.5"/>
<text text-anchor="middle" x="41" y="-181.5" font-family="Helvetica,sans-Serif" font-size="10.00" fill="#000000">mem_free_callback</text>
</g>
<!-- Node1 -->
<g id="node2" class="node">
<title>Node1</title>
<g id="a_node2"><a xlink:href="esp-open-lwip_2include_2lwip_2mem_8h.html#ab270bbe39e1996d7095be3a139620ce0" target="_top" xlink:title="mem_free">
<polygon fill="#ffffff" stroke="#000000" points="133.5,-250.5 133.5,-269.5 183.5,-269.5 183.5,-250.5 133.5,-250.5"/>
<text text-anchor="middle" x="158.5" y="-257.5" font-family="Helvetica,sans-Serif" font-size="10.00" fill="#000000">mem_free</text>
</a>
</g>
</g>
<!-- Node0&#45;&gt;Node1 -->
<g id="edge1" class="edge">
<title>Node0&#45;&gt;Node1</title>
<path fill="none" stroke="#191970" d="M55.8815,-193.6255C75.8345,-206.5312 111.472,-229.5819 135.0516,-244.8334"/>
<polygon fill="#191970" stroke="#191970" points="133.4418,-247.9605 143.7394,-250.4527 137.2436,-242.0828 133.4418,-247.9605"/>
</g>
<!-- Node3 -->
<g id="node4" class="node">
<title>Node3</title>
<g id="a_node4"><a xlink:href="tcpip_8c.html#ab1d3ef23817d7703fa75ed67bd45ea1d" target="_top" xlink:title="tcpip_callback_with\l_block">
<polygon fill="#ffffff" stroke="#000000" points="118,-147 118,-177 199,-177 199,-147 118,-147"/>
<text text-anchor="start" x="126" y="-165" font-family="Helvetica,sans-Serif" font-size="10.00" fill="#000000">tcpip_callback_with</text>
<text text-anchor="middle" x="158.5" y="-154" font-family="Helvetica,sans-Serif" font-size="10.00" fill="#000000">_block</text>
</a>
</g>
</g>
<!-- Node0&#45;&gt;Node3 -->
<g id="edge3" class="edge">
<title>Node0&#45;&gt;Node3</title>
<path fill="none" stroke="#191970" d="M82.0958,-176.3055C90.3723,-174.7558 99.1641,-173.1097 107.7257,-171.5067"/>
<polygon fill="#191970" stroke="#191970" points="108.4408,-174.9337 117.6258,-169.653 107.1525,-168.0533 108.4408,-174.9337"/>
</g>
<!-- Node2 -->
<g id="node3" class="node">
<title>Node2</title>
<g id="a_node3"><a xlink:href="mem_8c.html#a24221009a2c00e9c3fa63eaa9444a076" target="_top" xlink:title="plug_holes">
<polygon fill="#ffffff" stroke="#000000" points="249.5,-304.5 249.5,-323.5 302.5,-323.5 302.5,-304.5 249.5,-304.5"/>
<text text-anchor="middle" x="276" y="-311.5" font-family="Helvetica,sans-Serif" font-size="10.00" fill="#000000">plug_holes</text>
</a>
</g>
</g>
<!-- Node1&#45;&gt;Node2 -->
<g id="edge2" class="edge">
<title>Node1&#45;&gt;Node2</title>
<path fill="none" stroke="#191970" d="M179.2362,-269.5298C197.7471,-278.037 225.0817,-290.5992 245.9811,-300.2041"/>
<polygon fill="#191970" stroke="#191970" points="244.5279,-303.3881 255.0759,-304.3838 247.4511,-297.0277 244.5279,-303.3881"/>
</g>
<!-- Node4 -->
<g id="node5" class="node">
<title>Node4</title>
<g id="a_node5"><a xlink:href="sys_8h.html#a8bcfab4bd791dd33f69a778e7585275d" target="_top" xlink:title="sys_mbox_valid">
<polygon fill="#ffffff" stroke="#000000" points="241,-266.5 241,-285.5 311,-285.5 311,-266.5 241,-266.5"/>
<text text-anchor="middle" x="276" y="-273.5" font-family="Helvetica,sans-Serif" font-size="10.00" fill="#000000">sys_mbox_valid</text>
</a>
</g>
</g>
<!-- Node3&#45;&gt;Node4 -->
<g id="edge4" class="edge">
<title>Node3&#45;&gt;Node4</title>
<path fill="none" stroke="#191970" d="M167.64,-177.3099C180.489,-197.7536 205.6355,-234.0495 235,-257 237.0553,-258.6063 239.2683,-260.1159 241.5634,-261.5268"/>
<polygon fill="#191970" stroke="#191970" points="240.2054,-264.7723 250.6625,-266.475 243.5496,-258.6228 240.2054,-264.7723"/>
</g>
<!-- Node5 -->
<g id="node6" class="node">
<title>Node5</title>
<g id="a_node6"><a xlink:href="memp_8h.html#a5b98c976852aa0eabda9fd588be56eb8" target="_top" xlink:title="memp_malloc">
<polygon fill="#ffffff" stroke="#000000" points="244.5,-228.5 244.5,-247.5 307.5,-247.5 307.5,-228.5 244.5,-228.5"/>
<text text-anchor="middle" x="276" y="-235.5" font-family="Helvetica,sans-Serif" font-size="10.00" fill="#000000">memp_malloc</text>
</a>
</g>
</g>
<!-- Node3&#45;&gt;Node5 -->
<g id="edge5" class="edge">
<title>Node3&#45;&gt;Node5</title>
<path fill="none" stroke="#191970" d="M176.6132,-177.1775C191.6618,-189.3659 213.9395,-206.457 235,-219 237.831,-220.686 240.8366,-222.3302 243.8834,-223.901"/>
<polygon fill="#191970" stroke="#191970" points="242.4922,-227.1166 253.0137,-228.3611 245.5647,-220.827 242.4922,-227.1166"/>
</g>
<!-- Node6 -->
<g id="node7" class="node">
<title>Node6</title>
<g id="a_node7"><a xlink:href="sys_8h.html#a9d068386a3c53dd01b8af99c3ef77555" target="_top" xlink:title="sys_mbox_post">
<polygon fill="#ffffff" stroke="#000000" points="241.5,-190.5 241.5,-209.5 310.5,-209.5 310.5,-190.5 241.5,-190.5"/>
<text text-anchor="middle" x="276" y="-197.5" font-family="Helvetica,sans-Serif" font-size="10.00" fill="#000000">sys_mbox_post</text>
</a>
</g>
</g>
<!-- Node3&#45;&gt;Node6 -->
<g id="edge6" class="edge">
<title>Node3&#45;&gt;Node6</title>
<path fill="none" stroke="#191970" d="M199.266,-175.1839C211.3834,-179.1027 224.6303,-183.3868 236.6553,-187.2758"/>
<polygon fill="#191970" stroke="#191970" points="235.8255,-190.6858 246.4174,-190.4328 237.9796,-184.0255 235.8255,-190.6858"/>
</g>
<!-- Node7 -->
<g id="node8" class="node">
<title>Node7</title>
<g id="a_node8"><a xlink:href="sys_8h.html#aa36345e48a49d67cbb0878cd4cbd2195" target="_top" xlink:title="sys_mbox_trypost">
<polygon fill="#ffffff" stroke="#000000" points="237.5,-152.5 237.5,-171.5 314.5,-171.5 314.5,-152.5 237.5,-152.5"/>
<text text-anchor="middle" x="276" y="-159.5" font-family="Helvetica,sans-Serif" font-size="10.00" fill="#000000">sys_mbox_trypost</text>
</a>
</g>
</g>
<!-- Node3&#45;&gt;Node7 -->
<g id="edge7" class="edge">
<title>Node3&#45;&gt;Node7</title>
<path fill="none" stroke="#191970" d="M199.266,-162C208.2235,-162 217.7983,-162 227.0405,-162"/>
<polygon fill="#191970" stroke="#191970" points="227.2832,-165.5001 237.2832,-162 227.2832,-158.5001 227.2832,-165.5001"/>
</g>
<!-- Node8 -->
<g id="node9" class="node">
<title>Node8</title>
<g id="a_node9"><a xlink:href="memp_8h.html#a9d30a969401eb0626105950d6e63f3bf" target="_top" xlink:title="memp_free">
<polygon fill="#ffffff" stroke="#000000" points="249,-114.5 249,-133.5 303,-133.5 303,-114.5 249,-114.5"/>
<text text-anchor="middle" x="276" y="-121.5" font-family="Helvetica,sans-Serif" font-size="10.00" fill="#000000">memp_free</text>
</a>
</g>
</g>
<!-- Node3&#45;&gt;Node8 -->
<g id="edge8" class="edge">
<title>Node3&#45;&gt;Node8</title>
<path fill="none" stroke="#191970" d="M199.266,-148.8161C212.2368,-144.6213 226.5018,-140.0079 239.177,-135.9087"/>
<polygon fill="#191970" stroke="#191970" points="240.5086,-139.1566 248.9463,-132.7493 238.3545,-132.4963 240.5086,-139.1566"/>
</g>
<!-- Node9 -->
<g id="node10" class="node">
<title>Node9</title>
<g id="a_node10"><a xlink:href="sys_8h.html#a8d364c5037778acb21c3df675db81b4f" target="_top" xlink:title="sys_arch_sem_wait">
<polygon fill="#ffffff" stroke="#000000" points="235,-76.5 235,-95.5 317,-95.5 317,-76.5 235,-76.5"/>
<text text-anchor="middle" x="276" y="-83.5" font-family="Helvetica,sans-Serif" font-size="10.00" fill="#000000">sys_arch_sem_wait</text>
</a>
</g>
</g>
<!-- Node3&#45;&gt;Node9 -->
<g id="edge9" class="edge">
<title>Node3&#45;&gt;Node9</title>
<path fill="none" stroke="#191970" d="M176.6132,-146.8225C191.6618,-134.6341 213.9395,-117.543 235,-105 237.831,-103.314 240.8366,-101.6698 243.8834,-100.099"/>
<polygon fill="#191970" stroke="#191970" points="245.5647,-103.173 253.0137,-95.6389 242.4922,-96.8834 245.5647,-103.173"/>
</g>
<!-- Node10 -->
<g id="node11" class="node">
<title>Node10</title>
<g id="a_node11"><a xlink:href="sys_8h.html#af99da9e34a71855285c535183133dfde" target="_top" xlink:title="sys_sem_new">
<polygon fill="#ffffff" stroke="#000000" points="244,-38.5 244,-57.5 308,-57.5 308,-38.5 244,-38.5"/>
<text text-anchor="middle" x="276" y="-45.5" font-family="Helvetica,sans-Serif" font-size="10.00" fill="#000000">sys_sem_new</text>
</a>
</g>
</g>
<!-- Node3&#45;&gt;Node10 -->
<g id="edge10" class="edge">
<title>Node3&#45;&gt;Node10</title>
<path fill="none" stroke="#191970" d="M167.64,-146.6901C180.489,-126.2464 205.6355,-89.9505 235,-67 237.0553,-65.3937 239.2683,-63.8841 241.5634,-62.4732"/>
<polygon fill="#191970" stroke="#191970" points="243.5496,-65.3772 250.6625,-57.525 240.2054,-59.2277 243.5496,-65.3772"/>
</g>
<!-- Node11 -->
<g id="node12" class="node">
<title>Node11</title>
<g id="a_node12"><a xlink:href="sys_8h.html#a83b781f96c30e915c752065a757da283" target="_top" xlink:title="sys_sem_free">
<polygon fill="#ffffff" stroke="#000000" points="244.5,-.5 244.5,-19.5 307.5,-19.5 307.5,-.5 244.5,-.5"/>
<text text-anchor="middle" x="276" y="-7.5" font-family="Helvetica,sans-Serif" font-size="10.00" fill="#000000">sys_sem_free</text>
</a>
</g>
</g>
<!-- Node3&#45;&gt;Node11 -->
<g id="edge11" class="edge">
<title>Node3&#45;&gt;Node11</title>
<path fill="none" stroke="#191970" d="M163.6893,-146.853C173.6137,-119.8852 197.6727,-63.1783 235,-29 236.6454,-27.4934 238.4312,-26.087 240.3059,-24.7773"/>
<polygon fill="#191970" stroke="#191970" points="242.1312,-27.764 248.9344,-19.6419 238.5511,-21.7487 242.1312,-27.764"/>
</g>
</g>
</svg>
