<?xml version="1.0" encoding="UTF-8" standalone="no"?>
<!DOCTYPE svg PUBLIC "-//W3C//DTD SVG 1.1//EN"
 "http://www.w3.org/Graphics/SVG/1.1/DTD/svg11.dtd">
<!-- Generated by graphviz version 2.40.1 (20161225.0304)
 -->
<!-- Title: sys_timeout Pages: 1 -->
<svg width="241pt" height="28pt"
 viewBox="0.00 0.00 241.00 28.00" xmlns="http://www.w3.org/2000/svg" xmlns:xlink="http://www.w3.org/1999/xlink">
<g id="graph0" class="graph" transform="scale(1 1) rotate(0) translate(4 24)">
<title>sys_timeout</title>
<polygon fill="#ffffff" stroke="transparent" points="-4,4 -4,-24 237,-24 237,4 -4,4"/>
<!-- Node1 -->
<g id="node1" class="node">
<title>Node1</title>
<polygon fill="#bfbfbf" stroke="#000000" points="0,-.5 0,-19.5 57,-19.5 57,-.5 0,-.5"/>
<text text-anchor="middle" x="28.5" y="-7.5" font-family="Helvetica,sans-Serif" font-size="10.00" fill="#000000">sys_timeout</text>
</g>
<!-- Node2 -->
<g id="node2" class="node">
<title>Node2</title>
<g id="a_node2"><a xlink:href="tcpip_8c.html#a61474ad2c2c25ba58cc774e2bcc4ef5f" target="_top" xlink:title="tcpip_thread">
<polygon fill="#ffffff" stroke="#000000" points="93,-.5 93,-19.5 151,-19.5 151,-.5 93,-.5"/>
<text text-anchor="middle" x="122" y="-7.5" font-family="Helvetica,sans-Serif" font-size="10.00" fill="#000000">tcpip_thread</text>
</a>
</g>
</g>
<!-- Node1&#45;&gt;Node2 -->
<g id="edge1" class="edge">
<title>Node1&#45;&gt;Node2</title>
<path fill="none" stroke="#191970" d="M67.2805,-10C75.8758,-10 84.8414,-10 92.9685,-10"/>
<polygon fill="#191970" stroke="#191970" points="67.0612,-6.5001 57.0611,-10 67.0611,-13.5001 67.0612,-6.5001"/>
</g>
<!-- Node3 -->
<g id="node3" class="node">
<title>Node3</title>
<g id="a_node3"><a xlink:href="tcpip_8c.html#a1f3a88b8df6ba3b9ed1c00e0a305e3db" target="_top" xlink:title="tcpip_init">
<polygon fill="#ffffff" stroke="#000000" points="187,-.5 187,-19.5 233,-19.5 233,-.5 187,-.5"/>
<text text-anchor="middle" x="210" y="-7.5" font-family="Helvetica,sans-Serif" font-size="10.00" fill="#000000">tcpip_init</text>
</a>
</g>
</g>
<!-- Node2&#45;&gt;Node3 -->
<g id="edge2" class="edge">
<title>Node2&#45;&gt;Node3</title>
<path fill="none" stroke="#191970" d="M161.3713,-10C170.1163,-10 179.1079,-10 186.9437,-10"/>
<polygon fill="#191970" stroke="#191970" points="161.3028,-6.5001 151.3027,-10 161.3027,-13.5001 161.3028,-6.5001"/>
</g>
</g>
</svg>
