<?xml version="1.0" encoding="UTF-8" standalone="no"?>
<!DOCTYPE svg PUBLIC "-//W3C//DTD SVG 1.1//EN"
 "http://www.w3.org/Graphics/SVG/1.1/DTD/svg11.dtd">
<!-- Generated by graphviz version 2.40.1 (20161225.0304)
 -->
<!-- Title: sys_timeouts_init Pages: 1 -->
<svg width="243pt" height="28pt"
 viewBox="0.00 0.00 243.00 28.00" xmlns="http://www.w3.org/2000/svg" xmlns:xlink="http://www.w3.org/1999/xlink">
<g id="graph0" class="graph" transform="scale(1 1) rotate(0) translate(4 24)">
<title>sys_timeouts_init</title>
<polygon fill="#ffffff" stroke="transparent" points="-4,4 -4,-24 239,-24 239,4 -4,4"/>
<!-- Node5 -->
<g id="node1" class="node">
<title>Node5</title>
<polygon fill="#bfbfbf" stroke="#000000" points="0,-.5 0,-19.5 74,-19.5 74,-.5 0,-.5"/>
<text text-anchor="middle" x="37" y="-7.5" font-family="Helvetica,sans-Serif" font-size="10.00" fill="#000000">sys_timeouts_init</text>
</g>
<!-- Node6 -->
<g id="node2" class="node">
<title>Node6</title>
<g id="a_node2"><a xlink:href="init_8c.html#a0c1a18439524d2f4a5e51d25c0ca2ce9" target="_top" xlink:title="lwip_init">
<polygon fill="#ffffff" stroke="#000000" points="110,-.5 110,-19.5 153,-19.5 153,-.5 110,-.5"/>
<text text-anchor="middle" x="131.5" y="-7.5" font-family="Helvetica,sans-Serif" font-size="10.00" fill="#000000">lwip_init</text>
</a>
</g>
</g>
<!-- Node5&#45;&gt;Node6 -->
<g id="edge1" class="edge">
<title>Node5&#45;&gt;Node6</title>
<path fill="none" stroke="#191970" d="M84.1437,-10C93.1225,-10 102.1064,-10 109.7985,-10"/>
<polygon fill="#191970" stroke="#191970" points="84.0777,-6.5001 74.0777,-10 84.0776,-13.5001 84.0777,-6.5001"/>
</g>
<!-- Node7 -->
<g id="node3" class="node">
<title>Node7</title>
<g id="a_node3"><a xlink:href="tcpip_8c.html#a1f3a88b8df6ba3b9ed1c00e0a305e3db" target="_top" xlink:title="tcpip_init">
<polygon fill="#ffffff" stroke="#000000" points="189,-.5 189,-19.5 235,-19.5 235,-.5 189,-.5"/>
<text text-anchor="middle" x="212" y="-7.5" font-family="Helvetica,sans-Serif" font-size="10.00" fill="#000000">tcpip_init</text>
</a>
</g>
</g>
<!-- Node6&#45;&gt;Node7 -->
<g id="edge2" class="edge">
<title>Node6&#45;&gt;Node7</title>
<path fill="none" stroke="#191970" d="M163.1809,-10C171.7827,-10 180.9321,-10 188.9572,-10"/>
<polygon fill="#191970" stroke="#191970" points="163.0726,-6.5001 153.0725,-10 163.0725,-13.5001 163.0726,-6.5001"/>
</g>
</g>
</svg>
