<?xml version="1.0" encoding="UTF-8" standalone="no"?>
<!DOCTYPE svg PUBLIC "-//W3C//DTD SVG 1.1//EN"
 "http://www.w3.org/Graphics/SVG/1.1/DTD/svg11.dtd">
<!-- Generated by graphviz version 2.40.1 (20161225.0304)
 -->
<!-- Title: tfp_vsprintf Pages: 1 -->
<svg width="308pt" height="294pt"
 viewBox="0.00 0.00 308.00 294.00" xmlns="http://www.w3.org/2000/svg" xmlns:xlink="http://www.w3.org/1999/xlink">
<g id="graph0" class="graph" transform="scale(1 1) rotate(0) translate(4 290)">
<title>tfp_vsprintf</title>
<polygon fill="#ffffff" stroke="transparent" points="-4,4 -4,-290 304,-290 304,4 -4,4"/>
<!-- Node603 -->
<g id="node1" class="node">
<title>Node603</title>
<polygon fill="#bfbfbf" stroke="#000000" points="0,-152.5 0,-171.5 53,-171.5 53,-152.5 0,-152.5"/>
<text text-anchor="middle" x="26.5" y="-159.5" font-family="Helvetica,sans-Serif" font-size="10.00" fill="#000000">tfp_vsprintf</text>
</g>
<!-- Node604 -->
<g id="node2" class="node">
<title>Node604</title>
<g id="a_node2"><a xlink:href="tinyprintf_8c.html#a201ed27aef4ad159120d31700a6e0371" target="_top" xlink:title="_vsprintf_putcf">
<polygon fill="#ffffff" stroke="#000000" points="89,-171.5 89,-190.5 154,-190.5 154,-171.5 89,-171.5"/>
<text text-anchor="middle" x="121.5" y="-178.5" font-family="Helvetica,sans-Serif" font-size="10.00" fill="#000000">_vsprintf_putcf</text>
</a>
</g>
</g>
<!-- Node603&#45;&gt;Node604 -->
<g id="edge1" class="edge">
<title>Node603&#45;&gt;Node604</title>
<path fill="none" stroke="#191970" d="M53.2156,-167.3431C61.1835,-168.9367 70.1234,-170.7247 78.8432,-172.4686"/>
<polygon fill="#191970" stroke="#191970" points="78.4149,-175.9522 88.9071,-174.4814 79.7877,-169.0882 78.4149,-175.9522"/>
</g>
<!-- Node605 -->
<g id="node3" class="node">
<title>Node605</title>
<g id="a_node3"><a xlink:href="tinyprintf_8c.html#a5877e42444463efc71a91b5fe76a6145" target="_top" xlink:title="tfp_format">
<polygon fill="#ffffff" stroke="#000000" points="96.5,-133.5 96.5,-152.5 146.5,-152.5 146.5,-133.5 96.5,-133.5"/>
<text text-anchor="middle" x="121.5" y="-140.5" font-family="Helvetica,sans-Serif" font-size="10.00" fill="#000000">tfp_format</text>
</a>
</g>
</g>
<!-- Node603&#45;&gt;Node605 -->
<g id="edge2" class="edge">
<title>Node603&#45;&gt;Node605</title>
<path fill="none" stroke="#191970" d="M53.2156,-156.6569C63.4465,-154.6107 75.2797,-152.2441 86.1922,-150.0616"/>
<polygon fill="#191970" stroke="#191970" points="87.1708,-153.4352 96.2902,-148.042 85.7979,-146.5712 87.1708,-153.4352"/>
</g>
<!-- Node606 -->
<g id="node4" class="node">
<title>Node606</title>
<g id="a_node4"><a xlink:href="tinyprintf_8c.html#aa97593a5e53af85b608ad0910db92d77" target="_top" xlink:title="a2u">
<polygon fill="#ffffff" stroke="#000000" points="195.5,-266.5 195.5,-285.5 224.5,-285.5 224.5,-266.5 195.5,-266.5"/>
<text text-anchor="middle" x="210" y="-273.5" font-family="Helvetica,sans-Serif" font-size="10.00" fill="#000000">a2u</text>
</a>
</g>
</g>
<!-- Node605&#45;&gt;Node606 -->
<g id="edge3" class="edge">
<title>Node605&#45;&gt;Node606</title>
<path fill="none" stroke="#191970" d="M142.6875,-152.5555C146.8437,-155.1615 150.8769,-158.3071 154,-162 183.1567,-196.4761 165.0057,-219.3968 190,-257 190.4176,-257.6282 190.8594,-258.251 191.3211,-258.8667"/>
<polygon fill="#191970" stroke="#191970" points="188.7628,-261.2561 198.0627,-266.3318 193.9579,-256.5644 188.7628,-261.2561"/>
</g>
<!-- Node608 -->
<g id="node6" class="node">
<title>Node608</title>
<g id="a_node6"><a xlink:href="tinyprintf_8c.html#a90f9fd8f2133cda7f50be8d67823405c" target="_top" xlink:title="i2a">
<polygon fill="#ffffff" stroke="#000000" points="195.5,-228.5 195.5,-247.5 224.5,-247.5 224.5,-228.5 195.5,-228.5"/>
<text text-anchor="middle" x="210" y="-235.5" font-family="Helvetica,sans-Serif" font-size="10.00" fill="#000000">i2a</text>
</a>
</g>
</g>
<!-- Node605&#45;&gt;Node608 -->
<g id="edge5" class="edge">
<title>Node605&#45;&gt;Node608</title>
<path fill="none" stroke="#191970" d="M141.0229,-152.5551C145.5518,-155.259 150.1641,-158.4469 154,-162 174.6218,-181.1014 172.9856,-191.6252 190,-214 191.6087,-216.1155 193.3343,-218.3004 195.0731,-220.4507"/>
<polygon fill="#191970" stroke="#191970" points="192.5475,-222.8882 201.625,-228.3516 197.9358,-218.4198 192.5475,-222.8882"/>
</g>
<!-- Node609 -->
<g id="node7" class="node">
<title>Node609</title>
<g id="a_node7"><a xlink:href="tinyprintf_8c.html#ac87ff66a592723f55692eaf8e3f19df8" target="_top" xlink:title="ui2a">
<polygon fill="#ffffff" stroke="#000000" points="267.5,-209.5 267.5,-228.5 298.5,-228.5 298.5,-209.5 267.5,-209.5"/>
<text text-anchor="middle" x="283" y="-216.5" font-family="Helvetica,sans-Serif" font-size="10.00" fill="#000000">ui2a</text>
</a>
</g>
</g>
<!-- Node605&#45;&gt;Node609 -->
<g id="edge12" class="edge">
<title>Node605&#45;&gt;Node609</title>
<path fill="none" stroke="#191970" d="M138.0955,-152.5036C154.9682,-162.112 180.0062,-176.207 190,-181 212.5289,-191.8047 238.9657,-202.4163 257.8823,-209.6675"/>
<polygon fill="#191970" stroke="#191970" points="256.6951,-212.9605 267.2864,-213.2331 259.1769,-206.4151 256.6951,-212.9605"/>
</g>
<!-- Node610 -->
<g id="node8" class="node">
<title>Node610</title>
<g id="a_node8"><a xlink:href="tinyprintf_8c.html#afebb7696337c3f599b5e8db35c560684" target="_top" xlink:title="li2a">
<polygon fill="#ffffff" stroke="#000000" points="195.5,-152.5 195.5,-171.5 224.5,-171.5 224.5,-152.5 195.5,-152.5"/>
<text text-anchor="middle" x="210" y="-159.5" font-family="Helvetica,sans-Serif" font-size="10.00" fill="#000000">li2a</text>
</a>
</g>
</g>
<!-- Node605&#45;&gt;Node610 -->
<g id="edge7" class="edge">
<title>Node605&#45;&gt;Node610</title>
<path fill="none" stroke="#191970" d="M146.6238,-148.3938C158.7974,-151.0074 173.3624,-154.1343 185.4583,-156.7312"/>
<polygon fill="#191970" stroke="#191970" points="184.8183,-160.1734 195.3302,-158.8505 186.2877,-153.3294 184.8183,-160.1734"/>
</g>
<!-- Node611 -->
<g id="node9" class="node">
<title>Node611</title>
<g id="a_node9"><a xlink:href="tinyprintf_8c.html#a1d61347854a8c290d59b4a21efcefd75" target="_top" xlink:title="uli2a">
<polygon fill="#ffffff" stroke="#000000" points="267,-133.5 267,-152.5 299,-152.5 299,-133.5 267,-133.5"/>
<text text-anchor="middle" x="283" y="-140.5" font-family="Helvetica,sans-Serif" font-size="10.00" fill="#000000">uli2a</text>
</a>
</g>
</g>
<!-- Node605&#45;&gt;Node611 -->
<g id="edge13" class="edge">
<title>Node605&#45;&gt;Node611</title>
<path fill="none" stroke="#191970" d="M146.7344,-143C176.6007,-143 226.1051,-143 256.5096,-143"/>
<polygon fill="#191970" stroke="#191970" points="256.7754,-146.5001 266.7753,-143 256.7753,-139.5001 256.7754,-146.5001"/>
</g>
<!-- Node612 -->
<g id="node10" class="node">
<title>Node612</title>
<g id="a_node10"><a xlink:href="tinyprintf_8c.html#a49c6d2b3d4088012f2c1fe344eef69f3" target="_top" xlink:title="lli2a">
<polygon fill="#ffffff" stroke="#000000" points="195,-76.5 195,-95.5 225,-95.5 225,-76.5 195,-76.5"/>
<text text-anchor="middle" x="210" y="-83.5" font-family="Helvetica,sans-Serif" font-size="10.00" fill="#000000">lli2a</text>
</a>
</g>
</g>
<!-- Node605&#45;&gt;Node612 -->
<g id="edge9" class="edge">
<title>Node605&#45;&gt;Node612</title>
<path fill="none" stroke="#191970" d="M136.5128,-133.3307C150.1994,-124.5157 170.6404,-111.3503 186.4919,-101.1408"/>
<polygon fill="#191970" stroke="#191970" points="188.6969,-103.8838 195.2089,-95.5265 184.9065,-97.9988 188.6969,-103.8838"/>
</g>
<!-- Node613 -->
<g id="node11" class="node">
<title>Node613</title>
<g id="a_node11"><a xlink:href="tinyprintf_8c.html#abcf035dd576671b0cc897de9dd8c75b0" target="_top" xlink:title="ulli2a">
<polygon fill="#ffffff" stroke="#000000" points="266,-57.5 266,-76.5 300,-76.5 300,-57.5 266,-57.5"/>
<text text-anchor="middle" x="283" y="-64.5" font-family="Helvetica,sans-Serif" font-size="10.00" fill="#000000">ulli2a</text>
</a>
</g>
</g>
<!-- Node605&#45;&gt;Node613 -->
<g id="edge14" class="edge">
<title>Node605&#45;&gt;Node613</title>
<path fill="none" stroke="#191970" d="M126.5106,-133.4567C136.1282,-116.3094 159.0025,-80.7916 190,-67 210.6615,-57.8072 236.5529,-58.6735 255.7667,-61.3436"/>
<polygon fill="#191970" stroke="#191970" points="255.2454,-64.8048 265.6784,-62.9602 256.3723,-57.896 255.2454,-64.8048"/>
</g>
<!-- Node614 -->
<g id="node12" class="node">
<title>Node614</title>
<g id="a_node12"><a xlink:href="tinyprintf_8c.html#a6252dbfebb2c8783c4e3107d551082dd" target="_top" xlink:title="putchw">
<polygon fill="#ffffff" stroke="#000000" points="190,-.5 190,-19.5 230,-19.5 230,-.5 190,-.5"/>
<text text-anchor="middle" x="210" y="-7.5" font-family="Helvetica,sans-Serif" font-size="10.00" fill="#000000">putchw</text>
</a>
</g>
</g>
<!-- Node605&#45;&gt;Node614 -->
<g id="edge11" class="edge">
<title>Node605&#45;&gt;Node614</title>
<path fill="none" stroke="#191970" d="M126.9534,-133.3906C138.0539,-114.0518 164.3972,-69.2699 190,-34 191.5612,-31.8493 193.2575,-29.6426 194.98,-27.4802"/>
<polygon fill="#191970" stroke="#191970" points="197.8447,-29.5081 201.5221,-19.572 192.4511,-25.0462 197.8447,-29.5081"/>
</g>
<!-- Node607 -->
<g id="node5" class="node">
<title>Node607</title>
<g id="a_node5"><a xlink:href="tinyprintf_8c.html#aa853a0c5ba64fa2546d488b86192e7e3" target="_top" xlink:title="a2d">
<polygon fill="#ffffff" stroke="#000000" points="268.5,-266.5 268.5,-285.5 297.5,-285.5 297.5,-266.5 268.5,-266.5"/>
<text text-anchor="middle" x="283" y="-273.5" font-family="Helvetica,sans-Serif" font-size="10.00" fill="#000000">a2d</text>
</a>
</g>
</g>
<!-- Node606&#45;&gt;Node607 -->
<g id="edge4" class="edge">
<title>Node606&#45;&gt;Node607</title>
<path fill="none" stroke="#191970" d="M224.7726,-276C234.3705,-276 247.1197,-276 258.2412,-276"/>
<polygon fill="#191970" stroke="#191970" points="258.2494,-279.5001 268.2493,-276 258.2493,-272.5001 258.2494,-279.5001"/>
</g>
<!-- Node608&#45;&gt;Node609 -->
<g id="edge6" class="edge">
<title>Node608&#45;&gt;Node609</title>
<path fill="none" stroke="#191970" d="M224.7726,-234.1551C234.181,-231.7063 246.6176,-228.4694 257.5808,-225.616"/>
<polygon fill="#191970" stroke="#191970" points="258.6975,-228.942 267.4935,-223.0359 256.9343,-222.1677 258.6975,-228.942"/>
</g>
<!-- Node610&#45;&gt;Node611 -->
<g id="edge8" class="edge">
<title>Node610&#45;&gt;Node611</title>
<path fill="none" stroke="#191970" d="M224.7726,-158.1551C234.0547,-155.7392 246.2843,-152.5561 257.1385,-149.7311"/>
<polygon fill="#191970" stroke="#191970" points="258.1867,-153.0749 266.9827,-147.1689 256.4235,-146.3006 258.1867,-153.0749"/>
</g>
<!-- Node612&#45;&gt;Node613 -->
<g id="edge10" class="edge">
<title>Node612&#45;&gt;Node613</title>
<path fill="none" stroke="#191970" d="M225.1256,-82.0632C234.021,-79.748 245.5313,-76.7521 255.9415,-74.0426"/>
<polygon fill="#191970" stroke="#191970" points="257.0513,-77.3705 265.8473,-71.4644 255.2881,-70.5962 257.0513,-77.3705"/>
</g>
</g>
</svg>
