<?xml version="1.0" encoding="UTF-8" standalone="no"?>
<!DOCTYPE svg PUBLIC "-//W3C//DTD SVG 1.1//EN"
 "http://www.w3.org/Graphics/SVG/1.1/DTD/svg11.dtd">
<!-- Generated by graphviz version 2.40.1 (20161225.0304)
 -->
<!-- Title: uart0_rx_intr_handler Pages: 1 -->
<svg width="345pt" height="142pt"
 viewBox="0.00 0.00 345.00 142.00" xmlns="http://www.w3.org/2000/svg" xmlns:xlink="http://www.w3.org/1999/xlink">
<g id="graph0" class="graph" transform="scale(1 1) rotate(0) translate(4 138)">
<title>uart0_rx_intr_handler</title>
<polygon fill="#ffffff" stroke="transparent" points="-4,4 -4,-138 341,-138 341,4 -4,4"/>
<!-- Node0 -->
<g id="node1" class="node">
<title>Node0</title>
<polygon fill="#bfbfbf" stroke="#000000" points="0,-57.5 0,-76.5 88,-76.5 88,-57.5 0,-57.5"/>
<text text-anchor="middle" x="44" y="-64.5" font-family="Helvetica,sans-Serif" font-size="10.00" fill="#000000">uart0_rx_intr_handler</text>
</g>
<!-- Node1 -->
<g id="node2" class="node">
<title>Node1</title>
<g id="a_node2"><a xlink:href="en61107__request_8c.html#ad614196da23286f90ffe16126e2b254e" target="_top" xlink:title="en61107_fifo_put">
<polygon fill="#ffffff" stroke="#000000" points="132.5,-114.5 132.5,-133.5 206.5,-133.5 206.5,-114.5 132.5,-114.5"/>
<text text-anchor="middle" x="169.5" y="-121.5" font-family="Helvetica,sans-Serif" font-size="10.00" fill="#000000">en61107_fifo_put</text>
</a>
</g>
</g>
<!-- Node0&#45;&gt;Node1 -->
<g id="edge1" class="edge">
<title>Node0&#45;&gt;Node1</title>
<path fill="none" stroke="#191970" d="M63.6043,-76.634C79.7257,-84.4785 103.2166,-95.7309 124,-105 127.9579,-106.7652 132.1298,-108.5752 136.2762,-110.3434"/>
<polygon fill="#191970" stroke="#191970" points="135.218,-113.6954 145.7924,-114.3522 137.9356,-107.2445 135.218,-113.6954"/>
</g>
<!-- Node3 -->
<g id="node4" class="node">
<title>Node3</title>
<g id="a_node4"><a xlink:href="en61107__request_8c.html#a55f8feefc9d9579a91b4303e5f9950f2" target="_top" xlink:title="en61107_is_eod_char">
<polygon fill="#ffffff" stroke="#000000" points="124,-76.5 124,-95.5 215,-95.5 215,-76.5 124,-76.5"/>
<text text-anchor="middle" x="169.5" y="-83.5" font-family="Helvetica,sans-Serif" font-size="10.00" fill="#000000">en61107_is_eod_char</text>
</a>
</g>
</g>
<!-- Node0&#45;&gt;Node3 -->
<g id="edge3" class="edge">
<title>Node0&#45;&gt;Node3</title>
<path fill="none" stroke="#191970" d="M88.2466,-73.6987C96.5651,-74.9581 105.3601,-76.2896 113.9712,-77.5933"/>
<polygon fill="#191970" stroke="#191970" points="113.5447,-81.0685 123.9559,-79.1049 114.5925,-74.1473 113.5447,-81.0685"/>
</g>
<!-- Node4 -->
<g id="node5" class="node">
<title>Node4</title>
<g id="a_node5"><a xlink:href="kmp__request_8c.html#a3a189e5f8a1ffa68dacbe1a0e7080c65" target="_top" xlink:title="kmp_fifo_put">
<polygon fill="#ffffff" stroke="#000000" points="140,-38.5 140,-57.5 199,-57.5 199,-38.5 140,-38.5"/>
<text text-anchor="middle" x="169.5" y="-45.5" font-family="Helvetica,sans-Serif" font-size="10.00" fill="#000000">kmp_fifo_put</text>
</a>
</g>
</g>
<!-- Node0&#45;&gt;Node4 -->
<g id="edge4" class="edge">
<title>Node0&#45;&gt;Node4</title>
<path fill="none" stroke="#191970" d="M88.2466,-60.3013C101.7223,-58.2612 116.4483,-56.0317 129.6176,-54.038"/>
<polygon fill="#191970" stroke="#191970" points="130.4284,-57.4552 139.7918,-52.4977 129.3805,-50.5341 130.4284,-57.4552"/>
</g>
<!-- Node6 -->
<g id="node7" class="node">
<title>Node6</title>
<g id="a_node7"><a xlink:href="user__interface_8h.html#adab1155f3a463f2b05a9bde65b37514f" target="_top" xlink:title="system_os_post">
<polygon fill="#ffffff" stroke="#000000" points="134,-.5 134,-19.5 205,-19.5 205,-.5 134,-.5"/>
<text text-anchor="middle" x="169.5" y="-7.5" font-family="Helvetica,sans-Serif" font-size="10.00" fill="#000000">system_os_post</text>
</a>
</g>
</g>
<!-- Node0&#45;&gt;Node6 -->
<g id="edge6" class="edge">
<title>Node0&#45;&gt;Node6</title>
<path fill="none" stroke="#191970" d="M63.6043,-57.366C79.7257,-49.5215 103.2166,-38.2691 124,-29 127.9579,-27.2348 132.1298,-25.4248 136.2762,-23.6566"/>
<polygon fill="#191970" stroke="#191970" points="137.9356,-26.7555 145.7924,-19.6478 135.218,-20.3046 137.9356,-26.7555"/>
</g>
<!-- Node2 -->
<g id="node3" class="node">
<title>Node2</title>
<g id="a_node3"><a xlink:href="en61107__request_8c.html#a9984f86f367d70ca77edce2accd01c64" target="_top" xlink:title="en61107_fifo_in_use">
<polygon fill="#ffffff" stroke="#000000" points="251,-114.5 251,-133.5 337,-133.5 337,-114.5 251,-114.5"/>
<text text-anchor="middle" x="294" y="-121.5" font-family="Helvetica,sans-Serif" font-size="10.00" fill="#000000">en61107_fifo_in_use</text>
</a>
</g>
</g>
<!-- Node1&#45;&gt;Node2 -->
<g id="edge2" class="edge">
<title>Node1&#45;&gt;Node2</title>
<path fill="none" stroke="#191970" d="M206.517,-124C217.1635,-124 228.9952,-124 240.4286,-124"/>
<polygon fill="#191970" stroke="#191970" points="240.7713,-127.5001 250.7713,-124 240.7712,-120.5001 240.7713,-127.5001"/>
</g>
<!-- Node5 -->
<g id="node6" class="node">
<title>Node5</title>
<g id="a_node6"><a xlink:href="kmp__request_8c.html#a50794131d44d1f5c42484104202be6df" target="_top" xlink:title="kmp_fifo_in_use">
<polygon fill="#ffffff" stroke="#000000" points="258.5,-38.5 258.5,-57.5 329.5,-57.5 329.5,-38.5 258.5,-38.5"/>
<text text-anchor="middle" x="294" y="-45.5" font-family="Helvetica,sans-Serif" font-size="10.00" fill="#000000">kmp_fifo_in_use</text>
</a>
</g>
</g>
<!-- Node4&#45;&gt;Node5 -->
<g id="edge5" class="edge">
<title>Node4&#45;&gt;Node5</title>
<path fill="none" stroke="#191970" d="M199.0048,-48C213.5154,-48 231.3444,-48 247.6221,-48"/>
<polygon fill="#191970" stroke="#191970" points="248.0443,-51.5001 258.0443,-48 248.0442,-44.5001 248.0443,-51.5001"/>
</g>
</g>
</svg>
