<?xml version="1.0" encoding="UTF-8" standalone="no"?>
<!DOCTYPE svg PUBLIC "-//W3C//DTD SVG 1.1//EN"
 "http://www.w3.org/Graphics/SVG/1.1/DTD/svg11.dtd">
<!-- Generated by graphviz version 2.40.1 (20161225.0304)
 -->
<!-- Title: uart_set_baudrate Pages: 1 -->
<svg width="1061pt" height="373pt"
 viewBox="0.00 0.00 1061.00 372.72" xmlns="http://www.w3.org/2000/svg" xmlns:xlink="http://www.w3.org/1999/xlink">
<g id="graph0" class="graph" transform="scale(1 1) rotate(0) translate(4 368.7168)">
<title>uart_set_baudrate</title>
<polygon fill="#ffffff" stroke="transparent" points="-4,4 -4,-368.7168 1057,-368.7168 1057,4 -4,4"/>
<!-- Node60 -->
<g id="node1" class="node">
<title>Node60</title>
<polygon fill="#bfbfbf" stroke="#000000" points="0,-144.2168 0,-163.2168 77,-163.2168 77,-144.2168 0,-144.2168"/>
<text text-anchor="middle" x="38.5" y="-151.2168" font-family="Helvetica,sans-Serif" font-size="10.00" fill="#000000">uart_set_baudrate</text>
</g>
<!-- Node61 -->
<g id="node2" class="node">
<title>Node61</title>
<g id="a_node2"><a xlink:href="en61107__request_8h.html#a8376fb3e6dfde4cc59e5fa0574a6e499" target="_top" xlink:title="en61107_delayed_uart\l_change_setting_timer_func">
<polygon fill="#ffffff" stroke="#000000" points="113,-160.7168 113,-190.7168 224,-190.7168 224,-160.7168 113,-160.7168"/>
<text text-anchor="start" x="121" y="-178.7168" font-family="Helvetica,sans-Serif" font-size="10.00" fill="#000000">en61107_delayed_uart</text>
<text text-anchor="middle" x="168.5" y="-167.7168" font-family="Helvetica,sans-Serif" font-size="10.00" fill="#000000">_change_setting_timer_func</text>
</a>
</g>
</g>
<!-- Node60&#45;&gt;Node61 -->
<g id="edge1" class="edge">
<title>Node60&#45;&gt;Node61</title>
<path fill="none" stroke="#191970" d="M87.1632,-161.9521C95.5624,-163.3735 104.3506,-164.8608 112.9161,-166.3103"/>
<polygon fill="#191970" stroke="#191970" points="87.5962,-158.4757 77.1523,-160.258 86.4281,-165.3776 87.5962,-158.4757"/>
</g>
<!-- Node62 -->
<g id="node3" class="node">
<title>Node62</title>
<g id="a_node3"><a xlink:href="en61107__request_8h.html#a353102f2f89ad4ed996501752c0ac59c" target="_top" xlink:title="en61107_uart_send_en61107\l_ident">
<polygon fill="#ffffff" stroke="#000000" points="260,-138.7168 260,-168.7168 377,-168.7168 377,-138.7168 260,-138.7168"/>
<text text-anchor="start" x="268" y="-156.7168" font-family="Helvetica,sans-Serif" font-size="10.00" fill="#000000">en61107_uart_send_en61107</text>
<text text-anchor="middle" x="318.5" y="-145.7168" font-family="Helvetica,sans-Serif" font-size="10.00" fill="#000000">_ident</text>
</a>
</g>
</g>
<!-- Node60&#45;&gt;Node62 -->
<g id="edge25" class="edge">
<title>Node60&#45;&gt;Node62</title>
<path fill="none" stroke="#191970" d="M87.3884,-151.4667C95.9238,-151.1542 104.7192,-150.8835 113,-150.7168 162.3233,-149.7241 174.6729,-149.934 224,-150.7168 235.5708,-150.9004 247.9355,-151.2104 259.7793,-151.5633"/>
<polygon fill="#191970" stroke="#191970" points="87.0145,-147.9784 77.158,-151.8642 87.2864,-154.9732 87.0145,-147.9784"/>
</g>
<!-- Node64 -->
<g id="node5" class="node">
<title>Node64</title>
<g id="a_node5"><a xlink:href="en61107__request_8h.html#a8b6b61143d95d3af3813f8be1aaf3447" target="_top" xlink:title="en61107_uart_send_en61107">
<polygon fill="#ffffff" stroke="#000000" points="679,-77.2168 679,-96.2168 796,-96.2168 796,-77.2168 679,-77.2168"/>
<text text-anchor="middle" x="737.5" y="-84.2168" font-family="Helvetica,sans-Serif" font-size="10.00" fill="#000000">en61107_uart_send_en61107</text>
</a>
</g>
</g>
<!-- Node60&#45;&gt;Node64 -->
<g id="edge24" class="edge">
<title>Node60&#45;&gt;Node64</title>
<path fill="none" stroke="#191970" d="M87.0827,-142.04C131.7771,-131.6772 200.0175,-116.8098 260,-107.7168 383.6094,-88.9785 415.1227,-86.7238 540,-80.7168 585.7249,-78.5173 597.2452,-79.2658 643,-80.7168 654.5839,-81.0842 666.9544,-81.7043 678.7999,-82.41"/>
<polygon fill="#191970" stroke="#191970" points="86.0243,-138.6929 77.0819,-144.3748 87.6158,-145.5096 86.0243,-138.6929"/>
</g>
<!-- Node67 -->
<g id="node8" class="node">
<title>Node67</title>
<g id="a_node8"><a xlink:href="en61107__request_8h.html#afdb1795bdd4212fc7e028a9e5668fab4" target="_top" xlink:title="en61107_uart_send_standard\l_data_1">
<polygon fill="#ffffff" stroke="#000000" points="679,-164.7168 679,-194.7168 796,-194.7168 796,-164.7168 679,-164.7168"/>
<text text-anchor="start" x="687" y="-182.7168" font-family="Helvetica,sans-Serif" font-size="10.00" fill="#000000">en61107_uart_send_standard</text>
<text text-anchor="middle" x="737.5" y="-171.7168" font-family="Helvetica,sans-Serif" font-size="10.00" fill="#000000">_data_1</text>
</a>
</g>
</g>
<!-- Node60&#45;&gt;Node67 -->
<g id="edge27" class="edge">
<title>Node60&#45;&gt;Node67</title>
<path fill="none" stroke="#191970" d="M59.5576,-168.9993C74.0078,-178.9018 93.946,-191.4486 113,-199.7168 274.5372,-269.8134 327.9824,-268.7779 504,-263.7168 565.8544,-261.9383 589.036,-285.9993 643,-255.7168 667.5133,-241.961 657.0952,-221.3322 679,-203.7168 683.1918,-200.3459 687.9222,-197.3861 692.8313,-194.8036"/>
<polygon fill="#191970" stroke="#191970" points="61.5259,-166.1048 51.3265,-163.2372 57.5115,-171.8393 61.5259,-166.1048"/>
</g>
<!-- Node68 -->
<g id="node9" class="node">
<title>Node68</title>
<g id="a_node9"><a xlink:href="en61107__request_8h.html#a10b80328698f459ae2251fe146cdc375" target="_top" xlink:title="en61107_uart_send_standard\l_data_2">
<polygon fill="#ffffff" stroke="#000000" points="679,-115.7168 679,-145.7168 796,-145.7168 796,-115.7168 679,-115.7168"/>
<text text-anchor="start" x="687" y="-133.7168" font-family="Helvetica,sans-Serif" font-size="10.00" fill="#000000">en61107_uart_send_standard</text>
<text text-anchor="middle" x="737.5" y="-122.7168" font-family="Helvetica,sans-Serif" font-size="10.00" fill="#000000">_data_2</text>
</a>
</g>
</g>
<!-- Node60&#45;&gt;Node68 -->
<g id="edge28" class="edge">
<title>Node60&#45;&gt;Node68</title>
<path fill="none" stroke="#191970" d="M42.5471,-133.9816C50.1593,-102.6225 69.8885,-42.3465 113,-16.7168 212.7086,42.5598 570.6807,-72.7236 694.7789,-115.5758"/>
<polygon fill="#191970" stroke="#191970" points="39.049,-133.5846 40.2699,-144.1089 45.8785,-135.1203 39.049,-133.5846"/>
</g>
<!-- Node69 -->
<g id="node10" class="node">
<title>Node69</title>
<g id="a_node10"><a xlink:href="en61107__request_8h.html#a74c2d949e6bb3b65cdf794a0643dd67d" target="_top" xlink:title="en61107_uart_send_inst\l_values">
<polygon fill="#ffffff" stroke="#000000" points="688,-213.7168 688,-243.7168 787,-243.7168 787,-213.7168 688,-213.7168"/>
<text text-anchor="start" x="696" y="-231.7168" font-family="Helvetica,sans-Serif" font-size="10.00" fill="#000000">en61107_uart_send_inst</text>
<text text-anchor="middle" x="737.5" y="-220.7168" font-family="Helvetica,sans-Serif" font-size="10.00" fill="#000000">_values</text>
</a>
</g>
</g>
<!-- Node60&#45;&gt;Node69 -->
<g id="edge26" class="edge">
<title>Node60&#45;&gt;Node69</title>
<path fill="none" stroke="#191970" d="M50.0238,-171.755C84.2154,-222.822 190.7172,-364.7168 318.5,-364.7168 318.5,-364.7168 318.5,-364.7168 458.5,-364.7168 567.8881,-364.7168 679.2286,-279.2001 720.6419,-243.7908"/>
<polygon fill="#191970" stroke="#191970" points="52.9068,-169.769 44.4921,-163.3313 47.0556,-173.6114 52.9068,-169.769"/>
</g>
<!-- Node61&#45;&gt;Node62 -->
<g id="edge2" class="edge">
<title>Node61&#45;&gt;Node62</title>
<path fill="none" stroke="#191970" d="M234.2514,-166.0733C242.7682,-164.8242 251.4465,-163.5513 259.8381,-162.3206"/>
<polygon fill="#191970" stroke="#191970" points="233.7407,-162.6107 224.3545,-167.5248 234.7565,-169.5366 233.7407,-162.6107"/>
</g>
<!-- Node61&#45;&gt;Node64 -->
<g id="edge20" class="edge">
<title>Node61&#45;&gt;Node64</title>
<path fill="none" stroke="#191970" d="M200.4689,-155.4134C217.4843,-145.6293 239.1537,-134.7367 260,-128.7168 406.3131,-86.4657 587.4474,-83.1584 678.8533,-84.7078"/>
<polygon fill="#191970" stroke="#191970" points="198.3574,-152.5957 191.5295,-160.697 201.9191,-158.6219 198.3574,-152.5957"/>
</g>
<!-- Node61&#45;&gt;Node67 -->
<g id="edge21" class="edge">
<title>Node61&#45;&gt;Node67</title>
<path fill="none" stroke="#191970" d="M214.9155,-194.3503C301.5395,-226.2898 492.658,-283.3003 643,-231.7168 662.1726,-225.1385 661.4619,-213.8795 679,-203.7168 684.509,-200.5246 690.5246,-197.5469 696.5344,-194.8504"/>
<polygon fill="#191970" stroke="#191970" points="215.9664,-191.0065 205.374,-190.7768 213.5112,-197.5618 215.9664,-191.0065"/>
</g>
<!-- Node61&#45;&gt;Node68 -->
<g id="edge22" class="edge">
<title>Node61&#45;&gt;Node68</title>
<path fill="none" stroke="#191970" d="M199.5629,-155.0673C216.6256,-144.965 238.6168,-133.8876 260,-128.7168 407.2557,-93.1085 587.6064,-109.3586 678.7588,-121.5733"/>
<polygon fill="#191970" stroke="#191970" points="197.3291,-152.3308 190.6259,-160.5356 200.9825,-158.3018 197.3291,-152.3308"/>
</g>
<!-- Node61&#45;&gt;Node69 -->
<g id="edge23" class="edge">
<title>Node61&#45;&gt;Node69</title>
<path fill="none" stroke="#191970" d="M192.9471,-197.4909C210.4072,-211.8105 235.1212,-229.6939 260,-239.7168 418.0284,-303.3815 475.0249,-284.187 643,-255.7168 659.3181,-252.951 676.8376,-248.4048 692.3051,-243.8245"/>
<polygon fill="#191970" stroke="#191970" points="194.8953,-194.5561 184.9895,-190.7976 190.3894,-199.9131 194.8953,-194.5561"/>
</g>
<!-- Node63 -->
<g id="node4" class="node">
<title>Node63</title>
<g id="a_node4"><a xlink:href="en61107__request_8h.html#a22f1fee248eec0eeacf220c69b878a28" target="_top" xlink:title="en61107_receive_timeout\l_timer_func">
<polygon fill="#ffffff" stroke="#000000" points="540,-153.7168 540,-183.7168 643,-183.7168 643,-153.7168 540,-153.7168"/>
<text text-anchor="start" x="548" y="-171.7168" font-family="Helvetica,sans-Serif" font-size="10.00" fill="#000000">en61107_receive_timeout</text>
<text text-anchor="middle" x="591.5" y="-160.7168" font-family="Helvetica,sans-Serif" font-size="10.00" fill="#000000">_timer_func</text>
</a>
</g>
</g>
<!-- Node62&#45;&gt;Node63 -->
<g id="edge3" class="edge">
<title>Node62&#45;&gt;Node63</title>
<path fill="none" stroke="#191970" d="M387.2561,-151.5457C434.6837,-152.9293 496.7284,-156.5149 539.934,-160.4641"/>
<polygon fill="#191970" stroke="#191970" points="387.154,-148.0419 377.0653,-151.2774 386.9697,-155.0394 387.154,-148.0419"/>
</g>
<!-- Node70 -->
<g id="node11" class="node">
<title>Node70</title>
<g id="a_node11"><a xlink:href="en61107__request_8h.html#a2fa4e9967afddae0c1dedbc914dcee36" target="_top" xlink:title="en61107_meter_wake\l_up_timer_func">
<polygon fill="#ffffff" stroke="#000000" points="413,-191.7168 413,-221.7168 504,-221.7168 504,-191.7168 413,-191.7168"/>
<text text-anchor="start" x="421" y="-209.7168" font-family="Helvetica,sans-Serif" font-size="10.00" fill="#000000">en61107_meter_wake</text>
<text text-anchor="middle" x="458.5" y="-198.7168" font-family="Helvetica,sans-Serif" font-size="10.00" fill="#000000">_up_timer_func</text>
</a>
</g>
</g>
<!-- Node62&#45;&gt;Node70 -->
<g id="edge17" class="edge">
<title>Node62&#45;&gt;Node70</title>
<path fill="none" stroke="#191970" d="M367.817,-172.3868C384.4673,-178.6902 402.833,-185.6429 418.6567,-191.6333"/>
<polygon fill="#191970" stroke="#191970" points="368.8354,-169.03 358.2439,-168.7627 366.357,-175.5766 368.8354,-169.03"/>
</g>
<!-- Node63&#45;&gt;Node62 -->
<g id="edge4" class="edge">
<title>Node63&#45;&gt;Node62</title>
<path fill="none" stroke="#191970" d="M529.844,-171.0813C484.0815,-169.9282 422.0732,-166.4896 377.0653,-162.592"/>
<polygon fill="#191970" stroke="#191970" points="529.8595,-174.5824 539.934,-171.3029 530.0133,-167.5841 529.8595,-174.5824"/>
</g>
<!-- Node63&#45;&gt;Node64 -->
<g id="edge5" class="edge">
<title>Node63&#45;&gt;Node64</title>
<path fill="none" stroke="#191970" d="M617.0461,-147.0639C633.8048,-133.7086 656.6765,-117.0292 679,-105.7168 686.2392,-102.0484 694.336,-98.8835 702.1432,-96.2465"/>
<polygon fill="#191970" stroke="#191970" points="614.4317,-144.6781 608.8749,-153.6988 618.8442,-150.1123 614.4317,-144.6781"/>
</g>
<!-- Node63&#45;&gt;Node67 -->
<g id="edge8" class="edge">
<title>Node63&#45;&gt;Node67</title>
<path fill="none" stroke="#191970" d="M653.4961,-166.7064C661.8912,-167.2335 670.485,-167.897 678.8196,-168.6625"/>
<polygon fill="#191970" stroke="#191970" points="653.5672,-163.2049 643.3852,-166.1335 653.1712,-170.1937 653.5672,-163.2049"/>
</g>
<!-- Node63&#45;&gt;Node68 -->
<g id="edge11" class="edge">
<title>Node63&#45;&gt;Node68</title>
<path fill="none" stroke="#191970" d="M636.712,-150.6542C650.0356,-146.7292 664.8109,-142.771 678.8491,-139.3494"/>
<polygon fill="#191970" stroke="#191970" points="635.4007,-147.3942 626.8425,-153.6398 637.4276,-154.0943 635.4007,-147.3942"/>
</g>
<!-- Node63&#45;&gt;Node69 -->
<g id="edge14" class="edge">
<title>Node63&#45;&gt;Node69</title>
<path fill="none" stroke="#191970" d="M652.7158,-187.2028C673.9907,-195.6592 696.6372,-205.4618 713.1682,-213.5338"/>
<polygon fill="#191970" stroke="#191970" points="653.9729,-183.9363 643.3852,-183.547 651.4192,-190.4539 653.9729,-183.9363"/>
</g>
<!-- Node65 -->
<g id="node6" class="node">
<title>Node65</title>
<g id="a_node6"><a xlink:href="en61107__request_8c.html#aa3b162cf5364986ea19e831ac2b18f76" target="_top" xlink:title="en61107_received_task">
<polygon fill="#ffffff" stroke="#000000" points="832,-145.2168 832,-164.2168 928,-164.2168 928,-145.2168 832,-145.2168"/>
<text text-anchor="middle" x="880" y="-152.2168" font-family="Helvetica,sans-Serif" font-size="10.00" fill="#000000">en61107_received_task</text>
</a>
</g>
</g>
<!-- Node64&#45;&gt;Node65 -->
<g id="edge6" class="edge">
<title>Node64&#45;&gt;Node65</title>
<path fill="none" stroke="#191970" d="M780.9114,-99.6592C786.0593,-101.5326 791.1895,-103.5625 796,-105.7168 821.5782,-117.1718 849.3043,-134.3742 865.6378,-145.0538"/>
<polygon fill="#191970" stroke="#191970" points="781.6643,-96.2163 771.0696,-96.2579 779.3778,-102.8324 781.6643,-96.2163"/>
</g>
<!-- Node66 -->
<g id="node7" class="node">
<title>Node66</title>
<g id="a_node7"><a xlink:href="en61107__request_8h.html#acd43242675a3f25e7c3b530eac9d8b3a" target="_top" xlink:title="en61107_request_init">
<polygon fill="#ffffff" stroke="#000000" points="964,-145.2168 964,-164.2168 1053,-164.2168 1053,-145.2168 964,-145.2168"/>
<text text-anchor="middle" x="1008.5" y="-152.2168" font-family="Helvetica,sans-Serif" font-size="10.00" fill="#000000">en61107_request_init</text>
</a>
</g>
</g>
<!-- Node65&#45;&gt;Node66 -->
<g id="edge7" class="edge">
<title>Node65&#45;&gt;Node66</title>
<path fill="none" stroke="#191970" d="M938.4911,-154.7168C947.0049,-154.7168 955.6547,-154.7168 963.8359,-154.7168"/>
<polygon fill="#191970" stroke="#191970" points="938.2143,-151.2169 928.2143,-154.7168 938.2142,-158.2169 938.2143,-151.2169"/>
</g>
<!-- Node67&#45;&gt;Node63 -->
<g id="edge9" class="edge">
<title>Node67&#45;&gt;Node63</title>
<path fill="none" stroke="#191970" d="M668.8346,-181.2828C660.2735,-180.6797 651.6327,-179.9463 643.3852,-179.1185"/>
<polygon fill="#191970" stroke="#191970" points="668.6144,-184.7758 678.8196,-181.9289 669.0665,-177.7904 668.6144,-184.7758"/>
</g>
<!-- Node67&#45;&gt;Node65 -->
<g id="edge10" class="edge">
<title>Node67&#45;&gt;Node65</title>
<path fill="none" stroke="#191970" d="M806.3266,-167.642C814.9263,-166.1333 823.5732,-164.6163 831.7653,-163.179"/>
<polygon fill="#191970" stroke="#191970" points="805.5277,-164.2286 796.2829,-169.404 806.7373,-171.1233 805.5277,-164.2286"/>
</g>
<!-- Node68&#45;&gt;Node63 -->
<g id="edge12" class="edge">
<title>Node68&#45;&gt;Node63</title>
<path fill="none" stroke="#191970" d="M692.3775,-148.753C676.8699,-153.3235 659.387,-157.9407 643.3852,-161.705"/>
<polygon fill="#191970" stroke="#191970" points="693.6903,-152.0126 702.2477,-145.7657 691.6625,-145.3127 693.6903,-152.0126"/>
</g>
<!-- Node68&#45;&gt;Node65 -->
<g id="edge13" class="edge">
<title>Node68&#45;&gt;Node65</title>
<path fill="none" stroke="#191970" d="M806.3266,-142.3087C814.9263,-143.757 823.5732,-145.2134 831.7653,-146.5931"/>
<polygon fill="#191970" stroke="#191970" points="806.7254,-138.8266 796.2829,-140.6171 805.5627,-145.7294 806.7254,-138.8266"/>
</g>
<!-- Node69&#45;&gt;Node63 -->
<g id="edge15" class="edge">
<title>Node69&#45;&gt;Node63</title>
<path fill="none" stroke="#191970" d="M678.3084,-211.033C656.3597,-202.3617 632.6825,-192.1396 615.6089,-183.7909"/>
<polygon fill="#191970" stroke="#191970" points="677.3233,-214.4053 687.9119,-214.7696 679.8617,-207.8817 677.3233,-214.4053"/>
</g>
<!-- Node69&#45;&gt;Node65 -->
<g id="edge16" class="edge">
<title>Node69&#45;&gt;Node65</title>
<path fill="none" stroke="#191970" d="M784.1042,-209.4253C788.1571,-207.5594 792.1703,-205.6428 796,-203.7168 820.7365,-191.2768 848.253,-174.6659 864.8357,-164.3335"/>
<polygon fill="#191970" stroke="#191970" points="782.3357,-206.3824 774.6428,-213.6673 785.1995,-212.7698 782.3357,-206.3824"/>
</g>
<!-- Node70&#45;&gt;Node63 -->
<g id="edge18" class="edge">
<title>Node70&#45;&gt;Node63</title>
<path fill="none" stroke="#191970" d="M514.0886,-190.8344C522.5764,-188.4093 531.308,-185.9145 539.7098,-183.514"/>
<polygon fill="#191970" stroke="#191970" points="512.9247,-187.5268 504.2711,-193.6394 514.8478,-194.2574 512.9247,-187.5268"/>
</g>
<!-- Node71 -->
<g id="node12" class="node">
<title>Node71</title>
<g id="a_node12"><a xlink:href="en61107__request_8h.html#a7384d014eb9e833f64ecf4a9f86f87be" target="_top" xlink:title="en61107_request_send">
<polygon fill="#ffffff" stroke="#000000" points="544,-203.2168 544,-222.2168 639,-222.2168 639,-203.2168 544,-203.2168"/>
<text text-anchor="middle" x="591.5" y="-210.2168" font-family="Helvetica,sans-Serif" font-size="10.00" fill="#000000">en61107_request_send</text>
</a>
</g>
</g>
<!-- Node70&#45;&gt;Node71 -->
<g id="edge19" class="edge">
<title>Node70&#45;&gt;Node71</title>
<path fill="none" stroke="#191970" d="M514.34,-209.2359C524.1479,-209.6784 534.2735,-210.1352 543.8332,-210.5664"/>
<polygon fill="#191970" stroke="#191970" points="514.4187,-205.736 504.2711,-208.7817 514.1031,-212.7289 514.4187,-205.736"/>
</g>
</g>
</svg>
