<?xml version="1.0" encoding="UTF-8" standalone="no"?>
<!DOCTYPE svg PUBLIC "-//W3C//DTD SVG 1.1//EN"
 "http://www.w3.org/Graphics/SVG/1.1/DTD/svg11.dtd">
<!-- Generated by graphviz version 2.40.1 (20161225.0304)
 -->
<!-- Title: uart0_tx_buffer Pages: 1 -->
<svg width="904pt" height="305pt"
 viewBox="0.00 0.00 904.00 304.74" xmlns="http://www.w3.org/2000/svg" xmlns:xlink="http://www.w3.org/1999/xlink">
<g id="graph0" class="graph" transform="scale(1 1) rotate(0) translate(4 300.7439)">
<title>uart0_tx_buffer</title>
<polygon fill="#ffffff" stroke="transparent" points="-4,4 -4,-300.7439 900,-300.7439 900,4 -4,4"/>
<!-- Node5 -->
<g id="node1" class="node">
<title>Node5</title>
<polygon fill="#bfbfbf" stroke="#000000" points="0,-114.5 0,-133.5 67,-133.5 67,-114.5 0,-114.5"/>
<text text-anchor="middle" x="33.5" y="-121.5" font-family="Helvetica,sans-Serif" font-size="10.00" fill="#000000">uart0_tx_buffer</text>
</g>
<!-- Node6 -->
<g id="node2" class="node">
<title>Node6</title>
<g id="a_node2"><a xlink:href="en61107__request_8h.html#a8b6b61143d95d3af3813f8be1aaf3447" target="_top" xlink:title="en61107_uart_send_en61107">
<polygon fill="#ffffff" stroke="#000000" points="522,-254.5 522,-273.5 639,-273.5 639,-254.5 522,-254.5"/>
<text text-anchor="middle" x="580.5" y="-261.5" font-family="Helvetica,sans-Serif" font-size="10.00" fill="#000000">en61107_uart_send_en61107</text>
</a>
</g>
</g>
<!-- Node5&#45;&gt;Node6 -->
<g id="edge1" class="edge">
<title>Node5&#45;&gt;Node6</title>
<path fill="none" stroke="#191970" d="M40.3083,-143.0651C50.1643,-167.8074 70.8288,-210.4707 103,-233 239.9453,-328.9019 456.6735,-293.1787 543.1118,-273.5122"/>
<polygon fill="#191970" stroke="#191970" points="43.5634,-141.7777 36.744,-133.6693 37.0185,-144.2606 43.5634,-141.7777"/>
</g>
<!-- Node9 -->
<g id="node5" class="node">
<title>Node9</title>
<g id="a_node5"><a xlink:href="en61107__request_8h.html#a353102f2f89ad4ed996501752c0ac59c" target="_top" xlink:title="en61107_uart_send_en61107\l_ident">
<polygon fill="#ffffff" stroke="#000000" points="103,-156 103,-186 220,-186 220,-156 103,-156"/>
<text text-anchor="start" x="111" y="-174" font-family="Helvetica,sans-Serif" font-size="10.00" fill="#000000">en61107_uart_send_en61107</text>
<text text-anchor="middle" x="161.5" y="-163" font-family="Helvetica,sans-Serif" font-size="10.00" fill="#000000">_ident</text>
</a>
</g>
</g>
<!-- Node5&#45;&gt;Node9 -->
<g id="edge4" class="edge">
<title>Node5&#45;&gt;Node9</title>
<path fill="none" stroke="#191970" d="M68.9261,-137.008C84.9203,-142.8809 103.9105,-149.8539 120.5159,-155.9512"/>
<polygon fill="#191970" stroke="#191970" points="69.9963,-133.6726 59.4027,-133.5112 67.5835,-140.2436 69.9963,-133.6726"/>
</g>
<!-- Node11 -->
<g id="node7" class="node">
<title>Node11</title>
<g id="a_node7"><a xlink:href="en61107__request_8h.html#afdb1795bdd4212fc7e028a9e5668fab4" target="_top" xlink:title="en61107_uart_send_standard\l_data_1">
<polygon fill="#ffffff" stroke="#000000" points="522,-205 522,-235 639,-235 639,-205 522,-205"/>
<text text-anchor="start" x="530" y="-223" font-family="Helvetica,sans-Serif" font-size="10.00" fill="#000000">en61107_uart_send_standard</text>
<text text-anchor="middle" x="580.5" y="-212" font-family="Helvetica,sans-Serif" font-size="10.00" fill="#000000">_data_1</text>
</a>
</g>
</g>
<!-- Node5&#45;&gt;Node11 -->
<g id="edge21" class="edge">
<title>Node5&#45;&gt;Node11</title>
<path fill="none" stroke="#191970" d="M46.7576,-141.9328C59.546,-158.0947 80.2668,-181.4843 103,-196 163.6541,-234.7292 185.0337,-237.0566 256,-249 356.8389,-265.9709 384.757,-257.3646 486,-243 499.207,-241.1262 513.2621,-238.2185 526.3841,-235.0936"/>
<polygon fill="#191970" stroke="#191970" points="49.3756,-139.5955 40.5066,-133.7998 43.8255,-143.8613 49.3756,-139.5955"/>
</g>
<!-- Node12 -->
<g id="node8" class="node">
<title>Node12</title>
<g id="a_node8"><a xlink:href="en61107__request_8h.html#a10b80328698f459ae2251fe146cdc375" target="_top" xlink:title="en61107_uart_send_standard\l_data_2">
<polygon fill="#ffffff" stroke="#000000" points="522,-156 522,-186 639,-186 639,-156 522,-156"/>
<text text-anchor="start" x="530" y="-174" font-family="Helvetica,sans-Serif" font-size="10.00" fill="#000000">en61107_uart_send_standard</text>
<text text-anchor="middle" x="580.5" y="-163" font-family="Helvetica,sans-Serif" font-size="10.00" fill="#000000">_data_2</text>
</a>
</g>
</g>
<!-- Node5&#45;&gt;Node12 -->
<g id="edge22" class="edge">
<title>Node5&#45;&gt;Node12</title>
<path fill="none" stroke="#191970" d="M77.582,-123.0882C158.8606,-122.0825 337.5999,-123.0243 486,-146 500.9261,-148.3109 516.8956,-152.0366 531.379,-155.9141"/>
<polygon fill="#191970" stroke="#191970" points="77.185,-119.5934 67.2352,-123.2337 77.2835,-126.5927 77.185,-119.5934"/>
</g>
<!-- Node13 -->
<g id="node9" class="node">
<title>Node13</title>
<g id="a_node9"><a xlink:href="en61107__request_8h.html#a74c2d949e6bb3b65cdf794a0643dd67d" target="_top" xlink:title="en61107_uart_send_inst\l_values">
<polygon fill="#ffffff" stroke="#000000" points="531,-107 531,-137 630,-137 630,-107 531,-107"/>
<text text-anchor="start" x="539" y="-125" font-family="Helvetica,sans-Serif" font-size="10.00" fill="#000000">en61107_uart_send_inst</text>
<text text-anchor="middle" x="580.5" y="-114" font-family="Helvetica,sans-Serif" font-size="10.00" fill="#000000">_values</text>
</a>
</g>
</g>
<!-- Node5&#45;&gt;Node13 -->
<g id="edge20" class="edge">
<title>Node5&#45;&gt;Node13</title>
<path fill="none" stroke="#191970" d="M77.0471,-113.8519C85.6049,-112.2482 94.5492,-110.8427 103,-110 272.3822,-93.1096 316.1171,-99.2569 486,-110 500.5244,-110.9185 516.2298,-112.6235 530.588,-114.4657"/>
<polygon fill="#191970" stroke="#191970" points="76.3566,-110.4206 67.2312,-115.8037 77.7218,-117.2862 76.3566,-110.4206"/>
</g>
<!-- Node16 -->
<g id="node12" class="node">
<title>Node16</title>
<g id="a_node12"><a xlink:href="kmp__request_8c.html#aeadc3768548ef2bed49c3f2fcaf57c20" target="_top" xlink:title="kmp_get_register_timer_func">
<polygon fill="#ffffff" stroke="#000000" points="104.5,-.5 104.5,-19.5 218.5,-19.5 218.5,-.5 104.5,-.5"/>
<text text-anchor="middle" x="161.5" y="-7.5" font-family="Helvetica,sans-Serif" font-size="10.00" fill="#000000">kmp_get_register_timer_func</text>
</a>
</g>
</g>
<!-- Node5&#45;&gt;Node16 -->
<g id="edge23" class="edge">
<title>Node5&#45;&gt;Node16</title>
<path fill="none" stroke="#191970" d="M42.5645,-105.3074C53.8641,-83.8941 75.1345,-49.173 103,-29 108.3629,-25.1176 114.5594,-22.0013 120.8712,-19.5077"/>
<polygon fill="#191970" stroke="#191970" points="39.3697,-103.8686 37.9595,-114.3691 45.6102,-107.0398 39.3697,-103.8686"/>
</g>
<!-- Node19 -->
<g id="node15" class="node">
<title>Node19</title>
<g id="a_node15"><a xlink:href="kmp__request_8c.html#a7e59cff48c3c08aed48914a3a843d4b8" target="_top" xlink:title="kmp_get_serial_timer_func">
<polygon fill="#ffffff" stroke="#000000" points="108,-38.5 108,-57.5 215,-57.5 215,-38.5 108,-38.5"/>
<text text-anchor="middle" x="161.5" y="-45.5" font-family="Helvetica,sans-Serif" font-size="10.00" fill="#000000">kmp_get_serial_timer_func</text>
</a>
</g>
</g>
<!-- Node5&#45;&gt;Node19 -->
<g id="edge27" class="edge">
<title>Node5&#45;&gt;Node19</title>
<path fill="none" stroke="#191970" d="M52.7106,-107.534C66.1785,-96.5281 84.9346,-82.2438 103,-72 112.7403,-66.4768 124.0058,-61.5449 134.0349,-57.6098"/>
<polygon fill="#191970" stroke="#191970" points="50.1292,-105.1289 44.6844,-114.2176 54.6086,-110.5081 50.1292,-105.1289"/>
</g>
<!-- Node7 -->
<g id="node3" class="node">
<title>Node7</title>
<g id="a_node3"><a xlink:href="en61107__request_8c.html#aa3b162cf5364986ea19e831ac2b18f76" target="_top" xlink:title="en61107_received_task">
<polygon fill="#ffffff" stroke="#000000" points="675,-185.5 675,-204.5 771,-204.5 771,-185.5 675,-185.5"/>
<text text-anchor="middle" x="723" y="-192.5" font-family="Helvetica,sans-Serif" font-size="10.00" fill="#000000">en61107_received_task</text>
</a>
</g>
</g>
<!-- Node6&#45;&gt;Node7 -->
<g id="edge2" class="edge">
<title>Node6&#45;&gt;Node7</title>
<path fill="none" stroke="#191970" d="M624.1207,-251.0294C629.2012,-249.168 634.2584,-247.1487 639,-245 664.8152,-233.3017 692.696,-215.5884 708.9618,-204.686"/>
<polygon fill="#191970" stroke="#191970" points="622.6963,-247.819 614.3985,-254.4066 624.9933,-254.4314 622.6963,-247.819"/>
</g>
<!-- Node8 -->
<g id="node4" class="node">
<title>Node8</title>
<g id="a_node4"><a xlink:href="en61107__request_8h.html#acd43242675a3f25e7c3b530eac9d8b3a" target="_top" xlink:title="en61107_request_init">
<polygon fill="#ffffff" stroke="#000000" points="807,-185.5 807,-204.5 896,-204.5 896,-185.5 807,-185.5"/>
<text text-anchor="middle" x="851.5" y="-192.5" font-family="Helvetica,sans-Serif" font-size="10.00" fill="#000000">en61107_request_init</text>
</a>
</g>
</g>
<!-- Node7&#45;&gt;Node8 -->
<g id="edge3" class="edge">
<title>Node7&#45;&gt;Node8</title>
<path fill="none" stroke="#191970" d="M781.4911,-195C790.0049,-195 798.6547,-195 806.8359,-195"/>
<polygon fill="#191970" stroke="#191970" points="781.2143,-191.5001 771.2143,-195 781.2142,-198.5001 781.2143,-191.5001"/>
</g>
<!-- Node10 -->
<g id="node6" class="node">
<title>Node10</title>
<g id="a_node6"><a xlink:href="en61107__request_8h.html#a22f1fee248eec0eeacf220c69b878a28" target="_top" xlink:title="en61107_receive_timeout\l_timer_func">
<polygon fill="#ffffff" stroke="#000000" points="383,-156 383,-186 486,-186 486,-156 383,-156"/>
<text text-anchor="start" x="391" y="-174" font-family="Helvetica,sans-Serif" font-size="10.00" fill="#000000">en61107_receive_timeout</text>
<text text-anchor="middle" x="434.5" y="-163" font-family="Helvetica,sans-Serif" font-size="10.00" fill="#000000">_timer_func</text>
</a>
</g>
</g>
<!-- Node9&#45;&gt;Node10 -->
<g id="edge5" class="edge">
<title>Node9&#45;&gt;Node10</title>
<path fill="none" stroke="#191970" d="M230.2561,-165.051C277.6837,-163.8287 339.7284,-164.0053 382.934,-165.5806"/>
<polygon fill="#191970" stroke="#191970" points="229.9611,-161.558 220.0653,-165.3427 230.1614,-168.5551 229.9611,-161.558"/>
</g>
<!-- Node14 -->
<g id="node10" class="node">
<title>Node14</title>
<g id="a_node10"><a xlink:href="en61107__request_8h.html#a2fa4e9967afddae0c1dedbc914dcee36" target="_top" xlink:title="en61107_meter_wake\l_up_timer_func">
<polygon fill="#ffffff" stroke="#000000" points="256,-209 256,-239 347,-239 347,-209 256,-209"/>
<text text-anchor="start" x="264" y="-227" font-family="Helvetica,sans-Serif" font-size="10.00" fill="#000000">en61107_meter_wake</text>
<text text-anchor="middle" x="301.5" y="-216" font-family="Helvetica,sans-Serif" font-size="10.00" fill="#000000">_up_timer_func</text>
</a>
</g>
</g>
<!-- Node9&#45;&gt;Node14 -->
<g id="edge17" class="edge">
<title>Node9&#45;&gt;Node14</title>
<path fill="none" stroke="#191970" d="M210.817,-189.67C227.4673,-195.9733 245.833,-202.9261 261.6567,-208.9165"/>
<polygon fill="#191970" stroke="#191970" points="211.8354,-186.3132 201.2439,-186.0459 209.357,-192.8598 211.8354,-186.3132"/>
</g>
<!-- Node10&#45;&gt;Node6 -->
<g id="edge7" class="edge">
<title>Node10&#45;&gt;Node6</title>
<path fill="none" stroke="#191970" d="M468.6824,-191.7916C474.6507,-195.9138 480.6537,-200.3978 486,-205 504.1265,-220.6038 501.9417,-231.9725 522,-245 527.9106,-248.8388 534.6619,-251.9611 541.4275,-254.4812"/>
<polygon fill="#191970" stroke="#191970" points="470.3072,-188.6685 460.0437,-186.0394 466.4275,-194.4951 470.3072,-188.6685"/>
</g>
<!-- Node10&#45;&gt;Node9 -->
<g id="edge6" class="edge">
<title>Node10&#45;&gt;Node9</title>
<path fill="none" stroke="#191970" d="M372.844,-176.7522C327.0815,-178.1135 265.0732,-178.0819 220.0653,-176.6573"/>
<polygon fill="#191970" stroke="#191970" points="373.0548,-180.2472 382.934,-176.4194 372.824,-173.251 373.0548,-180.2472"/>
</g>
<!-- Node10&#45;&gt;Node11 -->
<g id="edge8" class="edge">
<title>Node10&#45;&gt;Node11</title>
<path fill="none" stroke="#191970" d="M496.0574,-184.9839C515.3788,-191.2159 535.797,-198.4605 551.715,-204.8394"/>
<polygon fill="#191970" stroke="#191970" points="496.9753,-181.6034 486.3852,-181.921 494.862,-188.2767 496.9753,-181.6034"/>
</g>
<!-- Node10&#45;&gt;Node12 -->
<g id="edge11" class="edge">
<title>Node10&#45;&gt;Node12</title>
<path fill="none" stroke="#191970" d="M496.4961,-164.3186C504.8912,-164.2132 513.485,-164.2292 521.8196,-164.3668"/>
<polygon fill="#191970" stroke="#191970" points="496.3181,-160.8212 486.3852,-164.5075 496.4489,-167.82 496.3181,-160.8212"/>
</g>
<!-- Node10&#45;&gt;Node13 -->
<g id="edge14" class="edge">
<title>Node10&#45;&gt;Node13</title>
<path fill="none" stroke="#191970" d="M472.4725,-152.2502C490.2717,-145.4574 511.7124,-138.1184 530.7845,-132.2503"/>
<polygon fill="#191970" stroke="#191970" points="471.0358,-149.0539 462.9969,-155.955 473.5848,-155.5733 471.0358,-149.0539"/>
</g>
<!-- Node11&#45;&gt;Node7 -->
<g id="edge10" class="edge">
<title>Node11&#45;&gt;Node7</title>
<path fill="none" stroke="#191970" d="M649.3266,-207.9252C657.9263,-206.4164 666.5732,-204.8994 674.7653,-203.4622"/>
<polygon fill="#191970" stroke="#191970" points="648.5277,-204.5118 639.2829,-209.6872 649.7373,-211.4065 648.5277,-204.5118"/>
</g>
<!-- Node11&#45;&gt;Node10 -->
<g id="edge9" class="edge">
<title>Node11&#45;&gt;Node10</title>
<path fill="none" stroke="#191970" d="M512.2744,-203.8395C494.8889,-198.0983 477.1407,-191.7231 462.9969,-186.045"/>
<polygon fill="#191970" stroke="#191970" points="511.2784,-207.1959 521.8705,-206.9553 513.4402,-200.5381 511.2784,-207.1959"/>
</g>
<!-- Node12&#45;&gt;Node7 -->
<g id="edge13" class="edge">
<title>Node12&#45;&gt;Node7</title>
<path fill="none" stroke="#191970" d="M649.3266,-182.5918C657.9263,-184.0402 666.5732,-185.4965 674.7653,-186.8763"/>
<polygon fill="#191970" stroke="#191970" points="649.7254,-179.1098 639.2829,-180.9003 648.5627,-186.0126 649.7254,-179.1098"/>
</g>
<!-- Node12&#45;&gt;Node10 -->
<g id="edge12" class="edge">
<title>Node12&#45;&gt;Node10</title>
<path fill="none" stroke="#191970" d="M511.5554,-177.7407C503.0857,-177.7795 494.543,-177.6967 486.3852,-177.4925"/>
<polygon fill="#191970" stroke="#191970" points="511.8568,-181.2379 521.8196,-177.6332 511.7834,-174.2382 511.8568,-181.2379"/>
</g>
<!-- Node13&#45;&gt;Node7 -->
<g id="edge16" class="edge">
<title>Node13&#45;&gt;Node7</title>
<path fill="none" stroke="#191970" d="M628.6283,-141.114C632.1638,-142.7104 635.6534,-144.3474 639,-146 663.8263,-158.2598 691.3175,-174.9214 707.8705,-185.3135"/>
<polygon fill="#191970" stroke="#191970" points="629.7933,-137.8034 619.229,-137.0004 626.9868,-144.2162 629.7933,-137.8034"/>
</g>
<!-- Node13&#45;&gt;Node10 -->
<g id="edge15" class="edge">
<title>Node13&#45;&gt;Node10</title>
<path fill="none" stroke="#191970" d="M542.0996,-140.9129C525.0595,-147.4031 504.7473,-154.376 486.3852,-160.079"/>
<polygon fill="#191970" stroke="#191970" points="543.6717,-144.0566 551.715,-137.1606 541.1268,-137.5355 543.6717,-144.0566"/>
</g>
<!-- Node14&#45;&gt;Node10 -->
<g id="edge18" class="edge">
<title>Node14&#45;&gt;Node10</title>
<path fill="none" stroke="#191970" d="M348.795,-205.1531C364.4949,-198.8968 381.7568,-192.018 396.6489,-186.0835"/>
<polygon fill="#191970" stroke="#191970" points="347.2506,-202.0008 339.2567,-208.9541 349.842,-208.5035 347.2506,-202.0008"/>
</g>
<!-- Node15 -->
<g id="node11" class="node">
<title>Node15</title>
<g id="a_node11"><a xlink:href="en61107__request_8h.html#a7384d014eb9e833f64ecf4a9f86f87be" target="_top" xlink:title="en61107_request_send">
<polygon fill="#ffffff" stroke="#000000" points="387,-214.5 387,-233.5 482,-233.5 482,-214.5 387,-214.5"/>
<text text-anchor="middle" x="434.5" y="-221.5" font-family="Helvetica,sans-Serif" font-size="10.00" fill="#000000">en61107_request_send</text>
</a>
</g>
</g>
<!-- Node14&#45;&gt;Node15 -->
<g id="edge19" class="edge">
<title>Node14&#45;&gt;Node15</title>
<path fill="none" stroke="#191970" d="M357.34,-224C367.1479,-224 377.2735,-224 386.8332,-224"/>
<polygon fill="#191970" stroke="#191970" points="357.2711,-220.5001 347.2711,-224 357.271,-227.5001 357.2711,-220.5001"/>
</g>
<!-- Node17 -->
<g id="node13" class="node">
<title>Node17</title>
<g id="a_node13"><a xlink:href="kmp__request_8h.html#a3b022dcdc832786eb06126b5e6879604" target="_top" xlink:title="kmp_request_send">
<polygon fill="#ffffff" stroke="#000000" points="261.5,-16.5 261.5,-35.5 341.5,-35.5 341.5,-16.5 261.5,-16.5"/>
<text text-anchor="middle" x="301.5" y="-23.5" font-family="Helvetica,sans-Serif" font-size="10.00" fill="#000000">kmp_request_send</text>
</a>
</g>
</g>
<!-- Node16&#45;&gt;Node17 -->
<g id="edge24" class="edge">
<title>Node16&#45;&gt;Node17</title>
<path fill="none" stroke="#191970" d="M228.9162,-17.7047C239.9405,-18.9646 251.0503,-20.2343 261.15,-21.3886"/>
<polygon fill="#191970" stroke="#191970" points="229.1801,-14.2122 218.8473,-16.554 228.3852,-21.1669 229.1801,-14.2122"/>
</g>
<!-- Node18 -->
<g id="node14" class="node">
<title>Node18</title>
<g id="a_node14"><a xlink:href="kmp__request_8c.html#a0977a4640a97d389ac3b0fef0ba7a9b6" target="_top" xlink:title="kmp_receive_timeout\l_timer_func">
<polygon fill="#ffffff" stroke="#000000" points="390.5,-11 390.5,-41 478.5,-41 478.5,-11 390.5,-11"/>
<text text-anchor="start" x="398.5" y="-29" font-family="Helvetica,sans-Serif" font-size="10.00" fill="#000000">kmp_receive_timeout</text>
<text text-anchor="middle" x="434.5" y="-18" font-family="Helvetica,sans-Serif" font-size="10.00" fill="#000000">_timer_func</text>
</a>
</g>
</g>
<!-- Node17&#45;&gt;Node18 -->
<g id="edge25" class="edge">
<title>Node17&#45;&gt;Node18</title>
<path fill="none" stroke="#191970" d="M352.0741,-19.4251C364.622,-19.1443 377.9737,-19.2012 390.1956,-19.5959"/>
<polygon fill="#191970" stroke="#191970" points="351.6536,-15.9362 341.7653,-19.7404 351.8677,-22.9329 351.6536,-15.9362"/>
</g>
<!-- Node18&#45;&gt;Node17 -->
<g id="edge26" class="edge">
<title>Node18&#45;&gt;Node17</title>
<path fill="none" stroke="#191970" d="M380.0868,-32.6499C367.2689,-32.8643 353.831,-32.7342 341.7653,-32.2596"/>
<polygon fill="#191970" stroke="#191970" points="380.2837,-36.1463 390.1956,-32.4041 380.1134,-29.1483 380.2837,-36.1463"/>
</g>
<!-- Node19&#45;&gt;Node17 -->
<g id="edge28" class="edge">
<title>Node19&#45;&gt;Node17</title>
<path fill="none" stroke="#191970" d="M225.3711,-37.9631C237.5559,-36.0484 249.9903,-34.0944 261.1823,-32.3356"/>
<polygon fill="#191970" stroke="#191970" points="224.5627,-34.5471 215.2273,-39.5571 225.6494,-41.4623 224.5627,-34.5471"/>
</g>
</g>
</svg>
