<?xml version="1.0" encoding="UTF-8" standalone="no"?>
<!DOCTYPE svg PUBLIC "-//W3C//DTD SVG 1.1//EN"
 "http://www.w3.org/Graphics/SVG/1.1/DTD/svg11.dtd">
<!-- Generated by graphviz version 2.40.1 (20161225.0304)
 -->
<!-- Title: wifi_softap_set_dhcps_lease Pages: 1 -->
<svg width="234pt" height="104pt"
 viewBox="0.00 0.00 234.00 104.00" xmlns="http://www.w3.org/2000/svg" xmlns:xlink="http://www.w3.org/1999/xlink">
<g id="graph0" class="graph" transform="scale(1 1) rotate(0) translate(4 100)">
<title>wifi_softap_set_dhcps_lease</title>
<polygon fill="#ffffff" stroke="transparent" points="-4,4 -4,-100 230,-100 230,4 -4,4"/>
<!-- Node362 -->
<g id="node1" class="node">
<title>Node362</title>
<polygon fill="#bfbfbf" stroke="#000000" points="0,-33 0,-63 90,-63 90,-33 0,-33"/>
<text text-anchor="start" x="8" y="-51" font-family="Helvetica,sans-Serif" font-size="10.00" fill="#000000">wifi_softap_set_dhcps</text>
<text text-anchor="middle" x="45" y="-40" font-family="Helvetica,sans-Serif" font-size="10.00" fill="#000000">_lease</text>
</g>
<!-- Node363 -->
<g id="node2" class="node">
<title>Node363</title>
<g id="a_node2"><a xlink:href="user__interface_8h.html#a70c442301412fe5d3711a8f0b8c7b7b5" target="_top" xlink:title="wifi_get_ip_info">
<polygon fill="#ffffff" stroke="#000000" points="142,-76.5 142,-95.5 210,-95.5 210,-76.5 142,-76.5"/>
<text text-anchor="middle" x="176" y="-83.5" font-family="Helvetica,sans-Serif" font-size="10.00" fill="#000000">wifi_get_ip_info</text>
</a>
</g>
</g>
<!-- Node362&#45;&gt;Node363 -->
<g id="edge1" class="edge">
<title>Node362&#45;&gt;Node363</title>
<path fill="none" stroke="#191970" d="M90.0828,-61.0774C104.1379,-65.1545 119.5867,-69.6358 133.4616,-73.6606"/>
<polygon fill="#191970" stroke="#191970" points="132.665,-77.0738 143.2442,-76.4983 134.6152,-70.3509 132.665,-77.0738"/>
</g>
<!-- Node364 -->
<g id="node3" class="node">
<title>Node364</title>
<g id="a_node3"><a xlink:href="user__interface_8h.html#a48d756265c0c1c35ba1fba102efe4d0a" target="_top" xlink:title="wifi_get_opmode">
<polygon fill="#ffffff" stroke="#000000" points="139.5,-38.5 139.5,-57.5 212.5,-57.5 212.5,-38.5 139.5,-38.5"/>
<text text-anchor="middle" x="176" y="-45.5" font-family="Helvetica,sans-Serif" font-size="10.00" fill="#000000">wifi_get_opmode</text>
</a>
</g>
</g>
<!-- Node362&#45;&gt;Node364 -->
<g id="edge2" class="edge">
<title>Node362&#45;&gt;Node364</title>
<path fill="none" stroke="#191970" d="M90.0828,-48C102.5721,-48 116.1619,-48 128.77,-48"/>
<polygon fill="#191970" stroke="#191970" points="129.0842,-51.5001 139.0842,-48 129.0842,-44.5001 129.0842,-51.5001"/>
</g>
<!-- Node365 -->
<g id="node4" class="node">
<title>Node365</title>
<g id="a_node4"><a xlink:href="user__interface_8h.html#a0fd4c4454b23c6532a8dcbfbcbaa4e13" target="_top" xlink:title="wifi_softap_dhcps_status">
<polygon fill="#ffffff" stroke="#000000" points="126,-.5 126,-19.5 226,-19.5 226,-.5 126,-.5"/>
<text text-anchor="middle" x="176" y="-7.5" font-family="Helvetica,sans-Serif" font-size="10.00" fill="#000000">wifi_softap_dhcps_status</text>
</a>
</g>
</g>
<!-- Node362&#45;&gt;Node365 -->
<g id="edge3" class="edge">
<title>Node362&#45;&gt;Node365</title>
<path fill="none" stroke="#191970" d="M90.0828,-34.9226C104.1379,-30.8455 119.5867,-26.3642 133.4616,-22.3394"/>
<polygon fill="#191970" stroke="#191970" points="134.6152,-25.6491 143.2442,-19.5017 132.665,-18.9262 134.6152,-25.6491"/>
</g>
</g>
</svg>
