<?xml version="1.0" encoding="UTF-8" standalone="no"?>
<!DOCTYPE svg PUBLIC "-//W3C//DTD SVG 1.1//EN"
 "http://www.w3.org/Graphics/SVG/1.1/DTD/svg11.dtd">
<!-- Generated by graphviz version 2.40.1 (20161225.0304)
 -->
<!-- Title: system_param_save_with_protect Pages: 1 -->
<svg width="773pt" height="142pt"
 viewBox="0.00 0.00 773.00 142.00" xmlns="http://www.w3.org/2000/svg" xmlns:xlink="http://www.w3.org/1999/xlink">
<g id="graph0" class="graph" transform="scale(1 1) rotate(0) translate(4 138)">
<title>system_param_save_with_protect</title>
<polygon fill="#ffffff" stroke="transparent" points="-4,4 -4,-138 769,-138 769,4 -4,4"/>
<!-- Node103 -->
<g id="node1" class="node">
<title>Node103</title>
<polygon fill="#bfbfbf" stroke="#000000" points="0,-52 0,-82 103,-82 103,-52 0,-52"/>
<text text-anchor="start" x="8" y="-70" font-family="Helvetica,sans-Serif" font-size="10.00" fill="#000000">system_param_save_with</text>
<text text-anchor="middle" x="51.5" y="-59" font-family="Helvetica,sans-Serif" font-size="10.00" fill="#000000">_protect</text>
</g>
<!-- Node104 -->
<g id="node2" class="node">
<title>Node104</title>
<g id="a_node2"><a xlink:href="config_8h.html#acd3c633ba5f49d7bb46d6e4efa31ddb2" target="_top" xlink:title="cfg_save">
<polygon fill="#ffffff" stroke="#000000" points="139,-57.5 139,-76.5 186,-76.5 186,-57.5 139,-57.5"/>
<text text-anchor="middle" x="162.5" y="-64.5" font-family="Helvetica,sans-Serif" font-size="10.00" fill="#000000">cfg_save</text>
</a>
</g>
</g>
<!-- Node103&#45;&gt;Node104 -->
<g id="edge1" class="edge">
<title>Node103&#45;&gt;Node104</title>
<path fill="none" stroke="#191970" d="M113.3252,-67C122.3421,-67 131.1334,-67 138.7303,-67"/>
<polygon fill="#191970" stroke="#191970" points="113.1005,-63.5001 103.1005,-67 113.1005,-70.5001 113.1005,-63.5001"/>
</g>
<!-- Node105 -->
<g id="node3" class="node">
<title>Node105</title>
<g id="a_node3"><a xlink:href="config_8h.html#a92adb6c5103eed30e16185a9cd233e51" target="_top" xlink:title="cfg_load">
<polygon fill="#ffffff" stroke="#000000" points="247.5,-113.5 247.5,-132.5 292.5,-132.5 292.5,-113.5 247.5,-113.5"/>
<text text-anchor="middle" x="270" y="-120.5" font-family="Helvetica,sans-Serif" font-size="10.00" fill="#000000">cfg_load</text>
</a>
</g>
</g>
<!-- Node104&#45;&gt;Node105 -->
<g id="edge2" class="edge">
<title>Node104&#45;&gt;Node105</title>
<path fill="none" stroke="#191970" d="M184.7811,-82.182C195.7255,-89.2921 209.269,-97.5871 222,-104 230.0043,-108.0319 239.0795,-111.8131 247.1675,-114.9242"/>
<polygon fill="#191970" stroke="#191970" points="186.5456,-79.1528 176.274,-76.5555 182.684,-84.9913 186.5456,-79.1528"/>
</g>
<!-- Node107 -->
<g id="node5" class="node">
<title>Node107</title>
<g id="a_node5"><a xlink:href="config_8h.html#a1e0d59e84f6bbc2564bcdf595b6972da" target="_top" xlink:title="config_save_timer_func">
<polygon fill="#ffffff" stroke="#000000" points="222,-57.5 222,-76.5 318,-76.5 318,-57.5 222,-57.5"/>
<text text-anchor="middle" x="270" y="-64.5" font-family="Helvetica,sans-Serif" font-size="10.00" fill="#000000">config_save_timer_func</text>
</a>
</g>
</g>
<!-- Node104&#45;&gt;Node107 -->
<g id="edge4" class="edge">
<title>Node104&#45;&gt;Node107</title>
<path fill="none" stroke="#191970" d="M196.253,-67C204.3495,-67 213.1521,-67 221.7639,-67"/>
<polygon fill="#191970" stroke="#191970" points="196.0914,-63.5001 186.0913,-67 196.0913,-70.5001 196.0914,-63.5001"/>
</g>
<!-- Node115 -->
<g id="node13" class="node">
<title>Node115</title>
<g id="a_node13"><a xlink:href="cgiwifi_8h.html#a7c655a56f56ecebad923c5c4daeb7f1a" target="_top" xlink:title="cgiSetup">
<polygon fill="#ffffff" stroke="#000000" points="247,-19.5 247,-38.5 293,-38.5 293,-19.5 247,-19.5"/>
<text text-anchor="middle" x="270" y="-26.5" font-family="Helvetica,sans-Serif" font-size="10.00" fill="#000000">cgiSetup</text>
</a>
</g>
</g>
<!-- Node104&#45;&gt;Node115 -->
<g id="edge14" class="edge">
<title>Node104&#45;&gt;Node115</title>
<path fill="none" stroke="#191970" d="M195.9226,-55.1855C212.4464,-49.3445 231.976,-42.441 246.8333,-37.1892"/>
<polygon fill="#191970" stroke="#191970" points="194.3531,-52.028 186.0913,-58.6607 196.6861,-58.6278 194.3531,-52.028"/>
</g>
<!-- Node106 -->
<g id="node4" class="node">
<title>Node106</title>
<g id="a_node4"><a xlink:href="cgiwifi_8h.html#ace460e5ac8fd74afa8616bfc82561b26" target="_top" xlink:title="tplSetup">
<polygon fill="#ffffff" stroke="#000000" points="370,-113.5 370,-132.5 414,-132.5 414,-113.5 370,-113.5"/>
<text text-anchor="middle" x="392" y="-120.5" font-family="Helvetica,sans-Serif" font-size="10.00" fill="#000000">tplSetup</text>
</a>
</g>
</g>
<!-- Node105&#45;&gt;Node106 -->
<g id="edge3" class="edge">
<title>Node105&#45;&gt;Node106</title>
<path fill="none" stroke="#191970" d="M302.8585,-123C324.0969,-123 351.1643,-123 369.8714,-123"/>
<polygon fill="#191970" stroke="#191970" points="302.6614,-119.5001 292.6613,-123 302.6613,-126.5001 302.6614,-119.5001"/>
</g>
<!-- Node107&#45;&gt;Node107 -->
<g id="edge13" class="edge">
<title>Node107&#45;&gt;Node107</title>
<path fill="none" stroke="#191970" d="M250.3713,-86.4C251.6822,-91.3146 258.2251,-95 270,-95 288.8398,-95 294.2857,-85.5653 286.3377,-76.7571"/>
<polygon fill="#191970" stroke="#191970" points="253.7447,-87.3516 253.6623,-76.7571 247.1199,-85.0906 253.7447,-87.3516"/>
</g>
<!-- Node108 -->
<g id="node6" class="node">
<title>Node108</title>
<g id="a_node6"><a xlink:href="config_8h.html#ab4af9f95b39f096bb0fa8d73eb5a342e" target="_top" xlink:title="cfg_save_defered">
<polygon fill="#ffffff" stroke="#000000" points="354,-57.5 354,-76.5 430,-76.5 430,-57.5 354,-57.5"/>
<text text-anchor="middle" x="392" y="-64.5" font-family="Helvetica,sans-Serif" font-size="10.00" fill="#000000">cfg_save_defered</text>
</a>
</g>
</g>
<!-- Node107&#45;&gt;Node108 -->
<g id="edge5" class="edge">
<title>Node107&#45;&gt;Node108</title>
<path fill="none" stroke="#191970" d="M328.3384,-67C337.0241,-67 345.7818,-67 353.9055,-67"/>
<polygon fill="#191970" stroke="#191970" points="328.2177,-63.5001 318.2176,-67 328.2176,-70.5001 328.2177,-63.5001"/>
</g>
<!-- Node109 -->
<g id="node7" class="node">
<title>Node109</title>
<g id="a_node7"><a xlink:href="ac__out_8h.html#a1573f96ac038a6a1b29a6f21403a2341" target="_top" xlink:title="ac_thermo_open">
<polygon fill="#ffffff" stroke="#000000" points="481.5,-114.5 481.5,-133.5 554.5,-133.5 554.5,-114.5 481.5,-114.5"/>
<text text-anchor="middle" x="518" y="-121.5" font-family="Helvetica,sans-Serif" font-size="10.00" fill="#000000">ac_thermo_open</text>
</a>
</g>
</g>
<!-- Node108&#45;&gt;Node109 -->
<g id="edge6" class="edge">
<title>Node108&#45;&gt;Node109</title>
<path fill="none" stroke="#191970" d="M418.0954,-81.4051C432.0966,-88.8764 449.7665,-97.8989 466,-105 473.6611,-108.3513 482.1207,-111.6191 489.9513,-114.4731"/>
<polygon fill="#191970" stroke="#191970" points="419.5136,-78.1933 409.0513,-76.5232 416.1886,-84.3532 419.5136,-78.1933"/>
</g>
<!-- Node112 -->
<g id="node10" class="node">
<title>Node112</title>
<g id="a_node10"><a xlink:href="ac__out_8h.html#a3bc674b019d5e2e4d15e7abe7c69029f" target="_top" xlink:title="ac_thermo_close">
<polygon fill="#ffffff" stroke="#000000" points="481,-76.5 481,-95.5 555,-95.5 555,-76.5 481,-76.5"/>
<text text-anchor="middle" x="518" y="-83.5" font-family="Helvetica,sans-Serif" font-size="10.00" fill="#000000">ac_thermo_close</text>
</a>
</g>
</g>
<!-- Node108&#45;&gt;Node112 -->
<g id="edge9" class="edge">
<title>Node108&#45;&gt;Node112</title>
<path fill="none" stroke="#191970" d="M440.2191,-74.2711C453.6929,-76.3029 468.1225,-78.4788 480.8494,-80.3979"/>
<polygon fill="#191970" stroke="#191970" points="440.5562,-70.7825 430.1461,-72.7522 439.5124,-77.7042 440.5562,-70.7825"/>
</g>
<!-- Node113 -->
<g id="node11" class="node">
<title>Node113</title>
<g id="a_node11"><a xlink:href="cron_8h.html#abede8d12ed6e5d5f3412eda37b325d03" target="_top" xlink:title="add_cron_job_from_query">
<polygon fill="#ffffff" stroke="#000000" points="466,-38.5 466,-57.5 570,-57.5 570,-38.5 466,-38.5"/>
<text text-anchor="middle" x="518" y="-45.5" font-family="Helvetica,sans-Serif" font-size="10.00" fill="#000000">add_cron_job_from_query</text>
</a>
</g>
</g>
<!-- Node108&#45;&gt;Node113 -->
<g id="edge11" class="edge">
<title>Node108&#45;&gt;Node113</title>
<path fill="none" stroke="#191970" d="M440.0871,-59.7488C448.4219,-58.4919 457.1261,-57.1794 465.5696,-55.9062"/>
<polygon fill="#191970" stroke="#191970" points="439.5124,-56.2958 430.1461,-61.2478 440.5562,-63.2175 439.5124,-56.2958"/>
</g>
<!-- Node114 -->
<g id="node12" class="node">
<title>Node114</title>
<g id="a_node12"><a xlink:href="cron_8h.html#ad014b7bf4eab144ea9fc5669d896714b" target="_top" xlink:title="clear_cron_jobs">
<polygon fill="#ffffff" stroke="#000000" points="483.5,-.5 483.5,-19.5 552.5,-19.5 552.5,-.5 483.5,-.5"/>
<text text-anchor="middle" x="518" y="-7.5" font-family="Helvetica,sans-Serif" font-size="10.00" fill="#000000">clear_cron_jobs</text>
</a>
</g>
</g>
<!-- Node108&#45;&gt;Node114 -->
<g id="edge12" class="edge">
<title>Node108&#45;&gt;Node114</title>
<path fill="none" stroke="#191970" d="M418.0954,-52.5949C432.0966,-45.1236 449.7665,-36.1011 466,-29 473.6611,-25.6487 482.1207,-22.3809 489.9513,-19.5269"/>
<polygon fill="#191970" stroke="#191970" points="416.1886,-49.6468 409.0513,-57.4768 419.5136,-55.8067 416.1886,-49.6468"/>
</g>
<!-- Node110 -->
<g id="node8" class="node">
<title>Node110</title>
<g id="a_node8"><a xlink:href="cron_8c.html#a2782af03df9b913cfa565a0770e1afe1" target="_top" xlink:title="minute_timer_func">
<polygon fill="#ffffff" stroke="#000000" points="606,-95.5 606,-114.5 684,-114.5 684,-95.5 606,-95.5"/>
<text text-anchor="middle" x="645" y="-102.5" font-family="Helvetica,sans-Serif" font-size="10.00" fill="#000000">minute_timer_func</text>
</a>
</g>
</g>
<!-- Node109&#45;&gt;Node110 -->
<g id="edge7" class="edge">
<title>Node109&#45;&gt;Node110</title>
<path fill="none" stroke="#191970" d="M564.7637,-117.0039C578.2124,-114.9918 592.7396,-112.8185 605.6889,-110.8812"/>
<polygon fill="#191970" stroke="#191970" points="564.1057,-113.5633 554.7337,-118.5044 565.1415,-120.4862 564.1057,-113.5633"/>
</g>
<!-- Node111 -->
<g id="node9" class="node">
<title>Node111</title>
<g id="a_node9"><a xlink:href="cron_8h.html#ae130c5973bad35b56776750c7a34db12" target="_top" xlink:title="cron_init">
<polygon fill="#ffffff" stroke="#000000" points="720,-95.5 720,-114.5 765,-114.5 765,-95.5 720,-95.5"/>
<text text-anchor="middle" x="742.5" y="-102.5" font-family="Helvetica,sans-Serif" font-size="10.00" fill="#000000">cron_init</text>
</a>
</g>
</g>
<!-- Node110&#45;&gt;Node111 -->
<g id="edge8" class="edge">
<title>Node110&#45;&gt;Node111</title>
<path fill="none" stroke="#191970" d="M694.2132,-105C703.2251,-105 712.2159,-105 719.9536,-105"/>
<polygon fill="#191970" stroke="#191970" points="694.0952,-101.5001 684.0952,-105 694.0952,-108.5001 694.0952,-101.5001"/>
</g>
<!-- Node112&#45;&gt;Node110 -->
<g id="edge10" class="edge">
<title>Node112&#45;&gt;Node110</title>
<path fill="none" stroke="#191970" d="M565.0931,-93.0454C578.5184,-95.0539 592.9941,-97.2196 605.888,-99.1486"/>
<polygon fill="#191970" stroke="#191970" points="565.4829,-89.5649 555.0751,-91.5467 564.4471,-96.4878 565.4829,-89.5649"/>
</g>
</g>
</svg>
