<?xml version="1.0" encoding="UTF-8" standalone="no"?>
<!DOCTYPE svg PUBLIC "-//W3C//DTD SVG 1.1//EN"
 "http://www.w3.org/Graphics/SVG/1.1/DTD/svg11.dtd">
<!-- Generated by graphviz version 2.40.1 (20161225.0304)
 -->
<!-- Title: wifi_station_get_config Pages: 1 -->
<svg width="1131pt" height="170pt"
 viewBox="0.00 0.00 1131.00 170.00" xmlns="http://www.w3.org/2000/svg" xmlns:xlink="http://www.w3.org/1999/xlink">
<g id="graph0" class="graph" transform="scale(1 1) rotate(0) translate(4 166)">
<title>wifi_station_get_config</title>
<polygon fill="#ffffff" stroke="transparent" points="-4,4 -4,-166 1127,-166 1127,4 -4,4"/>
<!-- Node428 -->
<g id="node1" class="node">
<title>Node428</title>
<polygon fill="#bfbfbf" stroke="#000000" points="0,-28.5 0,-47.5 92,-47.5 92,-28.5 0,-28.5"/>
<text text-anchor="middle" x="46" y="-35.5" font-family="Helvetica,sans-Serif" font-size="10.00" fill="#000000">wifi_station_get_config</text>
</g>
<!-- Node429 -->
<g id="node2" class="node">
<title>Node429</title>
<g id="a_node2"><a xlink:href="wifi_8c.html#a0be23fd8148c6a3abf21c739359bed52" target="_top" xlink:title="wifi_default">
<polygon fill="#ffffff" stroke="#000000" points="129.5,-66.5 129.5,-85.5 183.5,-85.5 183.5,-66.5 129.5,-66.5"/>
<text text-anchor="middle" x="156.5" y="-73.5" font-family="Helvetica,sans-Serif" font-size="10.00" fill="#000000">wifi_default</text>
</a>
</g>
</g>
<!-- Node428&#45;&gt;Node429 -->
<g id="edge1" class="edge">
<title>Node428&#45;&gt;Node429</title>
<path fill="none" stroke="#191970" d="M83.4453,-50.8771C98.5115,-56.0583 115.5556,-61.9196 129.3891,-66.6768"/>
<polygon fill="#191970" stroke="#191970" points="84.4785,-47.5313 73.8838,-47.589 82.2021,-54.1508 84.4785,-47.5313"/>
</g>
<!-- Node434 -->
<g id="node7" class="node">
<title>Node434</title>
<g id="a_node7"><a xlink:href="wifi_8c.html#aa87c06c3cbab2aa762551fcec59dc8f0" target="_top" xlink:title="wifi_handle_event_cb">
<polygon fill="#ffffff" stroke="#000000" points="940,-47.5 940,-66.5 1029,-66.5 1029,-47.5 940,-47.5"/>
<text text-anchor="middle" x="984.5" y="-54.5" font-family="Helvetica,sans-Serif" font-size="10.00" fill="#000000">wifi_handle_event_cb</text>
</a>
</g>
</g>
<!-- Node428&#45;&gt;Node434 -->
<g id="edge20" class="edge">
<title>Node428&#45;&gt;Node434</title>
<path fill="none" stroke="#191970" d="M89.0618,-25.8165C132.1882,-14.702 200.6423,0 261,0 261,0 261,0 757,0 834.1594,0 921.7446,-31.233 962.0413,-47.4595"/>
<polygon fill="#191970" stroke="#191970" points="87.9764,-22.4829 79.1953,-28.411 89.7566,-29.2527 87.9764,-22.4829"/>
</g>
<!-- Node441 -->
<g id="node14" class="node">
<title>Node441</title>
<g id="a_node14"><a xlink:href="wifi_8c.html#ac4389ba687a71cbb616f05b02427eb2a" target="_top" xlink:title="wifi_fallback">
<polygon fill="#ffffff" stroke="#000000" points="128,-28.5 128,-47.5 185,-47.5 185,-28.5 128,-28.5"/>
<text text-anchor="middle" x="156.5" y="-35.5" font-family="Helvetica,sans-Serif" font-size="10.00" fill="#000000">wifi_fallback</text>
</a>
</g>
</g>
<!-- Node428&#45;&gt;Node441 -->
<g id="edge18" class="edge">
<title>Node428&#45;&gt;Node441</title>
<path fill="none" stroke="#191970" d="M102.4882,-38C111.2627,-38 119.9956,-38 127.8009,-38"/>
<polygon fill="#191970" stroke="#191970" points="102.2217,-34.5001 92.2217,-38 102.2217,-41.5001 102.2217,-34.5001"/>
</g>
<!-- Node430 -->
<g id="node3" class="node">
<title>Node430</title>
<g id="a_node3"><a xlink:href="wifi_8c.html#a1ef15ecd9e69811f6db10215c7196281" target="_top" xlink:title="wifi_scan_done_cb">
<polygon fill="#ffffff" stroke="#000000" points="221,-66.5 221,-85.5 301,-85.5 301,-66.5 221,-66.5"/>
<text text-anchor="middle" x="261" y="-73.5" font-family="Helvetica,sans-Serif" font-size="10.00" fill="#000000">wifi_scan_done_cb</text>
</a>
</g>
</g>
<!-- Node429&#45;&gt;Node430 -->
<g id="edge2" class="edge">
<title>Node429&#45;&gt;Node430</title>
<path fill="none" stroke="#191970" d="M193.7005,-76C202.5373,-76 212.0019,-76 220.9594,-76"/>
<polygon fill="#191970" stroke="#191970" points="193.6834,-72.5001 183.6833,-76 193.6833,-79.5001 193.6834,-72.5001"/>
</g>
<!-- Node431 -->
<g id="node4" class="node">
<title>Node431</title>
<g id="a_node4"><a xlink:href="wifi_8c.html#ae7011f25db54676b86fefe2caa450a4a" target="_top" xlink:title="wifi_scan_timer_func">
<polygon fill="#ffffff" stroke="#000000" points="337,-66.5 337,-85.5 424,-85.5 424,-66.5 337,-66.5"/>
<text text-anchor="middle" x="380.5" y="-73.5" font-family="Helvetica,sans-Serif" font-size="10.00" fill="#000000">wifi_scan_timer_func</text>
</a>
</g>
</g>
<!-- Node430&#45;&gt;Node431 -->
<g id="edge3" class="edge">
<title>Node430&#45;&gt;Node431</title>
<path fill="none" stroke="#191970" d="M311.3466,-76C319.8733,-76 328.662,-76 336.9946,-76"/>
<polygon fill="#191970" stroke="#191970" points="311.1242,-72.5001 301.1242,-76 311.1242,-79.5001 311.1242,-72.5001"/>
</g>
<!-- Node432 -->
<g id="node5" class="node">
<title>Node432</title>
<g id="a_node5"><a xlink:href="wifi_8c.html#a0d197abbbedf42c0522e20b43884c920" target="_top" xlink:title="acl_check_packet">
<polygon fill="#ffffff" stroke="#000000" points="719,-47.5 719,-66.5 795,-66.5 795,-47.5 719,-47.5"/>
<text text-anchor="middle" x="757" y="-54.5" font-family="Helvetica,sans-Serif" font-size="10.00" fill="#000000">acl_check_packet</text>
</a>
</g>
</g>
<!-- Node431&#45;&gt;Node432 -->
<g id="edge4" class="edge">
<title>Node431&#45;&gt;Node432</title>
<path fill="none" stroke="#191970" d="M434.3346,-68.8767C470.3867,-64.4733 518.9486,-59.2472 562,-57 616.4311,-54.1588 679.5251,-54.8913 718.8569,-55.8262"/>
<polygon fill="#191970" stroke="#191970" points="433.5345,-65.449 424.0412,-70.153 434.3959,-72.3958 433.5345,-65.449"/>
</g>
<!-- Node436 -->
<g id="node9" class="node">
<title>Node436</title>
<g id="a_node9"><a xlink:href="wifi_8c.html#a5831b420da0012d53c979c375714d382" target="_top" xlink:title="wifi_start_scan">
<polygon fill="#ffffff" stroke="#000000" points="460,-104.5 460,-123.5 526,-123.5 526,-104.5 460,-104.5"/>
<text text-anchor="middle" x="493" y="-111.5" font-family="Helvetica,sans-Serif" font-size="10.00" fill="#000000">wifi_start_scan</text>
</a>
</g>
</g>
<!-- Node431&#45;&gt;Node436 -->
<g id="edge8" class="edge">
<title>Node431&#45;&gt;Node436</title>
<path fill="none" stroke="#191970" d="M433.9142,-87.2998C450.3491,-92.7626 467.1077,-99.1048 478.5588,-104.4243"/>
<polygon fill="#191970" stroke="#191970" points="434.9093,-83.9432 424.3176,-84.1993 432.7573,-90.6042 434.9093,-83.9432"/>
</g>
<!-- Node433 -->
<g id="node6" class="node">
<title>Node433</title>
<g id="a_node6"><a xlink:href="wifi_8c.html#a3cea38a15b267ddabc1e6d5cf72b5ae8" target="_top" xlink:title="my_input_ap">
<polygon fill="#ffffff" stroke="#000000" points="841,-47.5 841,-66.5 900,-66.5 900,-47.5 841,-47.5"/>
<text text-anchor="middle" x="870.5" y="-54.5" font-family="Helvetica,sans-Serif" font-size="10.00" fill="#000000">my_input_ap</text>
</a>
</g>
</g>
<!-- Node432&#45;&gt;Node433 -->
<g id="edge5" class="edge">
<title>Node432&#45;&gt;Node433</title>
<path fill="none" stroke="#191970" d="M805.1424,-57C817.2974,-57 829.9917,-57 840.9246,-57"/>
<polygon fill="#191970" stroke="#191970" points="805.1096,-53.5001 795.1096,-57 805.1096,-60.5001 805.1096,-53.5001"/>
</g>
<!-- Node433&#45;&gt;Node434 -->
<g id="edge6" class="edge">
<title>Node433&#45;&gt;Node434</title>
<path fill="none" stroke="#191970" d="M910.2281,-57C919.8266,-57 930.1467,-57 939.9502,-57"/>
<polygon fill="#191970" stroke="#191970" points="910.1546,-53.5001 900.1546,-57 910.1545,-60.5001 910.1546,-53.5001"/>
</g>
<!-- Node435 -->
<g id="node8" class="node">
<title>Node435</title>
<g id="a_node8"><a xlink:href="wifi_8c.html#a9c38abb0900e0c7308be77d85dbf09e0" target="_top" xlink:title="wifi_connect">
<polygon fill="#ffffff" stroke="#000000" points="1065,-85.5 1065,-104.5 1123,-104.5 1123,-85.5 1065,-85.5"/>
<text text-anchor="middle" x="1094" y="-92.5" font-family="Helvetica,sans-Serif" font-size="10.00" fill="#000000">wifi_connect</text>
</a>
</g>
</g>
<!-- Node434&#45;&gt;Node435 -->
<g id="edge7" class="edge">
<title>Node434&#45;&gt;Node435</title>
<path fill="none" stroke="#191970" d="M1021.8792,-69.9718C1036.4676,-75.0344 1052.8917,-80.7341 1066.3774,-85.4141"/>
<polygon fill="#191970" stroke="#191970" points="1022.7263,-66.561 1012.1315,-66.589 1020.4313,-73.1741 1022.7263,-66.561"/>
</g>
<!-- Node436&#45;&gt;Node430 -->
<g id="edge13" class="edge">
<title>Node436&#45;&gt;Node430</title>
<path fill="none" stroke="#191970" d="M449.7785,-110.1861C418.3428,-107.0605 374.8414,-102.0068 337,-95 323.2256,-92.4495 308.2324,-88.8756 295.2309,-85.5148"/>
<polygon fill="#191970" stroke="#191970" points="449.6601,-113.691 459.9512,-111.1723 450.3356,-106.7236 449.6601,-113.691"/>
</g>
<!-- Node436&#45;&gt;Node431 -->
<g id="edge9" class="edge">
<title>Node436&#45;&gt;Node431</title>
<path fill="none" stroke="#191970" d="M450.2416,-106.1315C430.8424,-100.0929 409.1681,-92.1575 395.2074,-85.6991"/>
<polygon fill="#191970" stroke="#191970" points="449.2468,-109.4872 459.831,-109.0135 451.2616,-102.7834 449.2468,-109.4872"/>
</g>
<!-- Node436&#45;&gt;Node435 -->
<g id="edge14" class="edge">
<title>Node436&#45;&gt;Node435</title>
<path fill="none" stroke="#191970" d="M536.5991,-114C588.943,-114 679.3886,-114 757,-114 757,-114 757,-114 870.5,-114 940.401,-114 1022.1587,-104.6588 1064.7797,-99.076"/>
<polygon fill="#191970" stroke="#191970" points="536.3399,-110.5001 526.3399,-114 536.3398,-117.5001 536.3399,-110.5001"/>
</g>
<!-- Node437 -->
<g id="node10" class="node">
<title>Node437</title>
<g id="a_node10"><a xlink:href="wifi_8c.html#a189ec83a0503a6fc45b102014a80403b" target="_top" xlink:title="wifi_scan_timeout_timer_func">
<polygon fill="#ffffff" stroke="#000000" points="562,-66.5 562,-85.5 677,-85.5 677,-66.5 562,-66.5"/>
<text text-anchor="middle" x="619.5" y="-73.5" font-family="Helvetica,sans-Serif" font-size="10.00" fill="#000000">wifi_scan_timeout_timer_func</text>
</a>
</g>
</g>
<!-- Node436&#45;&gt;Node437 -->
<g id="edge10" class="edge">
<title>Node436&#45;&gt;Node437</title>
<path fill="none" stroke="#191970" d="M534.7294,-101.4647C551.9382,-96.2952 571.5601,-90.4009 587.5889,-85.5859"/>
<polygon fill="#191970" stroke="#191970" points="533.4916,-98.1819 524.9213,-104.411 535.5055,-104.886 533.4916,-98.1819"/>
</g>
<!-- Node438 -->
<g id="node11" class="node">
<title>Node438</title>
<g id="a_node11"><a xlink:href="watchdog_8c.html#a47b6861ffbed37fef88aa644f10ba917" target="_top" xlink:title="wifi_reconnect_timer_func">
<polygon fill="#ffffff" stroke="#000000" points="567.5,-142.5 567.5,-161.5 671.5,-161.5 671.5,-142.5 567.5,-142.5"/>
<text text-anchor="middle" x="619.5" y="-149.5" font-family="Helvetica,sans-Serif" font-size="10.00" fill="#000000">wifi_reconnect_timer_func</text>
</a>
</g>
</g>
<!-- Node436&#45;&gt;Node438 -->
<g id="edge15" class="edge">
<title>Node436&#45;&gt;Node438</title>
<path fill="none" stroke="#191970" d="M534.7294,-126.5353C551.9382,-131.7048 571.5601,-137.5991 587.5889,-142.4141"/>
<polygon fill="#191970" stroke="#191970" points="535.5055,-123.114 524.9213,-123.589 533.4916,-129.8181 535.5055,-123.114"/>
</g>
<!-- Node437&#45;&gt;Node431 -->
<g id="edge12" class="edge">
<title>Node437&#45;&gt;Node431</title>
<path fill="none" stroke="#191970" d="M551.6457,-76C510.6773,-76 459.6812,-76 424.0584,-76"/>
<polygon fill="#191970" stroke="#191970" points="551.8299,-79.5001 561.8299,-76 551.8298,-72.5001 551.8299,-79.5001"/>
</g>
<!-- Node437&#45;&gt;Node432 -->
<g id="edge11" class="edge">
<title>Node437&#45;&gt;Node432</title>
<path fill="none" stroke="#191970" d="M687.0258,-66.6692C697.9731,-65.1564 708.9618,-63.638 718.8812,-62.2673"/>
<polygon fill="#191970" stroke="#191970" points="686.4424,-63.2164 677.0157,-68.0524 687.4007,-70.1505 686.4424,-63.2164"/>
</g>
<!-- Node439 -->
<g id="node12" class="node">
<title>Node439</title>
<g id="a_node12"><a xlink:href="watchdog_8c.html#aeb03c505b5b589ae4d89b2ae11dd1711" target="_top" xlink:title="watchdog_timer_func">
<polygon fill="#ffffff" stroke="#000000" points="713,-142.5 713,-161.5 801,-161.5 801,-142.5 713,-142.5"/>
<text text-anchor="middle" x="757" y="-149.5" font-family="Helvetica,sans-Serif" font-size="10.00" fill="#000000">watchdog_timer_func</text>
</a>
</g>
</g>
<!-- Node438&#45;&gt;Node439 -->
<g id="edge16" class="edge">
<title>Node438&#45;&gt;Node439</title>
<path fill="none" stroke="#191970" d="M682.1396,-152C692.5015,-152 703.05,-152 712.8335,-152"/>
<polygon fill="#191970" stroke="#191970" points="681.8751,-148.5001 671.8751,-152 681.8751,-155.5001 681.8751,-148.5001"/>
</g>
<!-- Node440 -->
<g id="node13" class="node">
<title>Node440</title>
<g id="a_node13"><a xlink:href="watchdog_8h.html#ab148f2150b52df5b60e312dded3a2934" target="_top" xlink:title="start_watchdog">
<polygon fill="#ffffff" stroke="#000000" points="837,-142.5 837,-161.5 904,-161.5 904,-142.5 837,-142.5"/>
<text text-anchor="middle" x="870.5" y="-149.5" font-family="Helvetica,sans-Serif" font-size="10.00" fill="#000000">start_watchdog</text>
</a>
</g>
</g>
<!-- Node439&#45;&gt;Node440 -->
<g id="edge17" class="edge">
<title>Node439&#45;&gt;Node440</title>
<path fill="none" stroke="#191970" d="M811.3182,-152C820.0028,-152 828.7635,-152 836.7847,-152"/>
<polygon fill="#191970" stroke="#191970" points="811.2071,-148.5001 801.2071,-152 811.207,-155.5001 811.2071,-148.5001"/>
</g>
<!-- Node441&#45;&gt;Node430 -->
<g id="edge19" class="edge">
<title>Node441&#45;&gt;Node430</title>
<path fill="none" stroke="#191970" d="M192.5745,-51.118C206.3959,-56.1439 221.8925,-61.7791 234.6387,-66.4141"/>
<polygon fill="#191970" stroke="#191970" points="193.4638,-47.7172 182.8698,-47.589 191.0716,-54.2958 193.4638,-47.7172"/>
</g>
</g>
</svg>
