<?xml version="1.0" encoding="UTF-8" standalone="no"?>
<!DOCTYPE svg PUBLIC "-//W3C//DTD SVG 1.1//EN"
 "http://www.w3.org/Graphics/SVG/1.1/DTD/svg11.dtd">
<!-- Generated by graphviz version 2.40.1 (20161225.0304)
 -->
<!-- Title: wifi_station_scan Pages: 1 -->
<svg width="904pt" height="158pt"
 viewBox="0.00 0.00 904.00 157.84" xmlns="http://www.w3.org/2000/svg" xmlns:xlink="http://www.w3.org/1999/xlink">
<g id="graph0" class="graph" transform="scale(1 1) rotate(0) translate(4 153.8373)">
<title>wifi_station_scan</title>
<polygon fill="#ffffff" stroke="transparent" points="-4,4 -4,-153.8373 900,-153.8373 900,4 -4,4"/>
<!-- Node478 -->
<g id="node1" class="node">
<title>Node478</title>
<polygon fill="#bfbfbf" stroke="#000000" points="0,-38.5 0,-57.5 74,-57.5 74,-38.5 0,-38.5"/>
<text text-anchor="middle" x="37" y="-45.5" font-family="Helvetica,sans-Serif" font-size="10.00" fill="#000000">wifi_station_scan</text>
</g>
<!-- Node479 -->
<g id="node2" class="node">
<title>Node479</title>
<g id="a_node2"><a xlink:href="wifi_8c.html#ae7011f25db54676b86fefe2caa450a4a" target="_top" xlink:title="wifi_scan_timer_func">
<polygon fill="#ffffff" stroke="#000000" points="110,-76.5 110,-95.5 197,-95.5 197,-76.5 110,-76.5"/>
<text text-anchor="middle" x="153.5" y="-83.5" font-family="Helvetica,sans-Serif" font-size="10.00" fill="#000000">wifi_scan_timer_func</text>
</a>
</g>
</g>
<!-- Node478&#45;&gt;Node479 -->
<g id="edge1" class="edge">
<title>Node478&#45;&gt;Node479</title>
<path fill="none" stroke="#191970" d="M76.3216,-60.8259C91.9534,-65.9247 109.6258,-71.6891 124.1115,-76.4141"/>
<polygon fill="#191970" stroke="#191970" points="76.9903,-57.3626 66.3979,-57.589 74.8195,-64.0175 76.9903,-57.3626"/>
</g>
<!-- Node490 -->
<g id="node13" class="node">
<title>Node490</title>
<g id="a_node13"><a xlink:href="cgiwifi_8c.html#ad14fc148ee7c69e5c3ba0357263016d7" target="_top" xlink:title="wifiStartScan">
<polygon fill="#ffffff" stroke="#000000" points="123.5,-19.5 123.5,-38.5 183.5,-38.5 183.5,-19.5 123.5,-19.5"/>
<text text-anchor="middle" x="153.5" y="-26.5" font-family="Helvetica,sans-Serif" font-size="10.00" fill="#000000">wifiStartScan</text>
</a>
</g>
</g>
<!-- Node478&#45;&gt;Node490 -->
<g id="edge17" class="edge">
<title>Node478&#45;&gt;Node490</title>
<path fill="none" stroke="#191970" d="M84.0896,-40.3201C97.3114,-38.1638 111.3302,-35.8775 123.2817,-33.9283"/>
<polygon fill="#191970" stroke="#191970" points="83.4878,-36.872 74.1816,-41.936 84.6146,-43.7807 83.4878,-36.872"/>
</g>
<!-- Node480 -->
<g id="node3" class="node">
<title>Node480</title>
<g id="a_node3"><a xlink:href="wifi_8c.html#a0d197abbbedf42c0522e20b43884c920" target="_top" xlink:title="acl_check_packet">
<polygon fill="#ffffff" stroke="#000000" points="492,-114.5 492,-133.5 568,-133.5 568,-114.5 492,-114.5"/>
<text text-anchor="middle" x="530" y="-121.5" font-family="Helvetica,sans-Serif" font-size="10.00" fill="#000000">acl_check_packet</text>
</a>
</g>
</g>
<!-- Node479&#45;&gt;Node480 -->
<g id="edge2" class="edge">
<title>Node479&#45;&gt;Node480</title>
<path fill="none" stroke="#191970" d="M180.2481,-100.4315C195.3686,-108.0791 214.8309,-117.0875 233,-123 325.0994,-152.9706 353.8043,-154.2665 450,-143 465.8797,-141.1402 483.1772,-137.271 497.6124,-133.5066"/>
<polygon fill="#191970" stroke="#191970" points="181.4866,-97.1318 170.9961,-95.6487 178.2721,-103.35 181.4866,-97.1318"/>
</g>
<!-- Node484 -->
<g id="node7" class="node">
<title>Node484</title>
<g id="a_node7"><a xlink:href="wifi_8c.html#a5831b420da0012d53c979c375714d382" target="_top" xlink:title="wifi_start_scan">
<polygon fill="#ffffff" stroke="#000000" points="233,-76.5 233,-95.5 299,-95.5 299,-76.5 233,-76.5"/>
<text text-anchor="middle" x="266" y="-83.5" font-family="Helvetica,sans-Serif" font-size="10.00" fill="#000000">wifi_start_scan</text>
</a>
</g>
</g>
<!-- Node479&#45;&gt;Node484 -->
<g id="edge6" class="edge">
<title>Node479&#45;&gt;Node484</title>
<path fill="none" stroke="#191970" d="M207.446,-79.255C216.1453,-79.217 224.9182,-79.3945 232.9306,-79.7876"/>
<polygon fill="#191970" stroke="#191970" points="207.2669,-75.7571 197.3176,-79.3987 207.3662,-82.7564 207.2669,-75.7571"/>
</g>
<!-- Node481 -->
<g id="node4" class="node">
<title>Node481</title>
<g id="a_node4"><a xlink:href="wifi_8c.html#a3cea38a15b267ddabc1e6d5cf72b5ae8" target="_top" xlink:title="my_input_ap">
<polygon fill="#ffffff" stroke="#000000" points="614,-114.5 614,-133.5 673,-133.5 673,-114.5 614,-114.5"/>
<text text-anchor="middle" x="643.5" y="-121.5" font-family="Helvetica,sans-Serif" font-size="10.00" fill="#000000">my_input_ap</text>
</a>
</g>
</g>
<!-- Node480&#45;&gt;Node481 -->
<g id="edge3" class="edge">
<title>Node480&#45;&gt;Node481</title>
<path fill="none" stroke="#191970" d="M578.1424,-124C590.2974,-124 602.9917,-124 613.9246,-124"/>
<polygon fill="#191970" stroke="#191970" points="578.1096,-120.5001 568.1096,-124 578.1096,-127.5001 578.1096,-120.5001"/>
</g>
<!-- Node482 -->
<g id="node5" class="node">
<title>Node482</title>
<g id="a_node5"><a xlink:href="wifi_8c.html#aa87c06c3cbab2aa762551fcec59dc8f0" target="_top" xlink:title="wifi_handle_event_cb">
<polygon fill="#ffffff" stroke="#000000" points="713,-114.5 713,-133.5 802,-133.5 802,-114.5 713,-114.5"/>
<text text-anchor="middle" x="757.5" y="-121.5" font-family="Helvetica,sans-Serif" font-size="10.00" fill="#000000">wifi_handle_event_cb</text>
</a>
</g>
</g>
<!-- Node481&#45;&gt;Node482 -->
<g id="edge4" class="edge">
<title>Node481&#45;&gt;Node482</title>
<path fill="none" stroke="#191970" d="M683.2281,-124C692.8266,-124 703.1467,-124 712.9502,-124"/>
<polygon fill="#191970" stroke="#191970" points="683.1546,-120.5001 673.1546,-124 683.1545,-127.5001 683.1546,-120.5001"/>
</g>
<!-- Node483 -->
<g id="node6" class="node">
<title>Node483</title>
<g id="a_node6"><a xlink:href="wifi_8c.html#a9c38abb0900e0c7308be77d85dbf09e0" target="_top" xlink:title="wifi_connect">
<polygon fill="#ffffff" stroke="#000000" points="838,-95.5 838,-114.5 896,-114.5 896,-95.5 838,-95.5"/>
<text text-anchor="middle" x="867" y="-102.5" font-family="Helvetica,sans-Serif" font-size="10.00" fill="#000000">wifi_connect</text>
</a>
</g>
</g>
<!-- Node482&#45;&gt;Node483 -->
<g id="edge5" class="edge">
<title>Node482&#45;&gt;Node483</title>
<path fill="none" stroke="#191970" d="M812.0501,-114.5347C820.9655,-112.9877 829.8878,-111.4396 837.8717,-110.0542"/>
<polygon fill="#191970" stroke="#191970" points="811.2922,-111.1138 802.0378,-116.272 812.489,-118.0107 811.2922,-111.1138"/>
</g>
<!-- Node484&#45;&gt;Node479 -->
<g id="edge7" class="edge">
<title>Node484&#45;&gt;Node479</title>
<path fill="none" stroke="#191970" d="M222.6718,-92.5891C214.3582,-92.7995 205.6465,-92.8035 197.3176,-92.6013"/>
<polygon fill="#191970" stroke="#191970" points="223.0659,-96.0771 232.9306,-92.2124 222.8089,-89.0818 223.0659,-96.0771"/>
</g>
<!-- Node484&#45;&gt;Node483 -->
<g id="edge13" class="edge">
<title>Node484&#45;&gt;Node483</title>
<path fill="none" stroke="#191970" d="M309.5991,-86C361.943,-86 452.3886,-86 530,-86 530,-86 530,-86 643.5,-86 713.401,-86 795.1587,-95.3412 837.7797,-100.924"/>
<polygon fill="#191970" stroke="#191970" points="309.3399,-82.5001 299.3399,-86 309.3398,-89.5001 309.3399,-82.5001"/>
</g>
<!-- Node485 -->
<g id="node8" class="node">
<title>Node485</title>
<g id="a_node8"><a xlink:href="wifi_8c.html#a189ec83a0503a6fc45b102014a80403b" target="_top" xlink:title="wifi_scan_timeout_timer_func">
<polygon fill="#ffffff" stroke="#000000" points="335,-114.5 335,-133.5 450,-133.5 450,-114.5 335,-114.5"/>
<text text-anchor="middle" x="392.5" y="-121.5" font-family="Helvetica,sans-Serif" font-size="10.00" fill="#000000">wifi_scan_timeout_timer_func</text>
</a>
</g>
</g>
<!-- Node484&#45;&gt;Node485 -->
<g id="edge8" class="edge">
<title>Node484&#45;&gt;Node485</title>
<path fill="none" stroke="#191970" d="M307.7294,-98.5353C324.9382,-103.7048 344.5601,-109.5991 360.5889,-114.4141"/>
<polygon fill="#191970" stroke="#191970" points="308.5055,-95.114 297.9213,-95.589 306.4916,-101.8181 308.5055,-95.114"/>
</g>
<!-- Node486 -->
<g id="node9" class="node">
<title>Node486</title>
<g id="a_node9"><a xlink:href="wifi_8c.html#a1ef15ecd9e69811f6db10215c7196281" target="_top" xlink:title="wifi_scan_done_cb">
<polygon fill="#ffffff" stroke="#000000" points="352.5,-.5 352.5,-19.5 432.5,-19.5 432.5,-.5 352.5,-.5"/>
<text text-anchor="middle" x="392.5" y="-7.5" font-family="Helvetica,sans-Serif" font-size="10.00" fill="#000000">wifi_scan_done_cb</text>
</a>
</g>
</g>
<!-- Node484&#45;&gt;Node486 -->
<g id="edge11" class="edge">
<title>Node484&#45;&gt;Node486</title>
<path fill="none" stroke="#191970" d="M288.2945,-70.3145C291.9256,-67.6098 295.6065,-64.7744 299,-62 315.8037,-48.2615 316.2787,-39.9828 335,-29 341.4385,-25.2229 348.7284,-22.0794 355.9024,-19.5087"/>
<polygon fill="#191970" stroke="#191970" points="286.0976,-67.5845 280.0709,-76.2983 290.2162,-73.2447 286.0976,-67.5845"/>
</g>
<!-- Node487 -->
<g id="node10" class="node">
<title>Node487</title>
<g id="a_node10"><a xlink:href="watchdog_8c.html#a47b6861ffbed37fef88aa644f10ba917" target="_top" xlink:title="wifi_reconnect_timer_func">
<polygon fill="#ffffff" stroke="#000000" points="340.5,-38.5 340.5,-57.5 444.5,-57.5 444.5,-38.5 340.5,-38.5"/>
<text text-anchor="middle" x="392.5" y="-45.5" font-family="Helvetica,sans-Serif" font-size="10.00" fill="#000000">wifi_reconnect_timer_func</text>
</a>
</g>
</g>
<!-- Node484&#45;&gt;Node487 -->
<g id="edge14" class="edge">
<title>Node484&#45;&gt;Node487</title>
<path fill="none" stroke="#191970" d="M307.7294,-73.4647C324.9382,-68.2952 344.5601,-62.4009 360.5889,-57.5859"/>
<polygon fill="#191970" stroke="#191970" points="306.4916,-70.1819 297.9213,-76.411 308.5055,-76.886 306.4916,-70.1819"/>
</g>
<!-- Node485&#45;&gt;Node479 -->
<g id="edge10" class="edge">
<title>Node485&#45;&gt;Node479</title>
<path fill="none" stroke="#191970" d="M324.4545,-117.6526C296.0711,-114.5499 262.8295,-110.3227 233,-105 218.7505,-102.4574 203.2352,-98.9246 189.725,-95.5943"/>
<polygon fill="#191970" stroke="#191970" points="324.3612,-121.1625 334.6765,-118.7448 325.1049,-114.2021 324.3612,-121.1625"/>
</g>
<!-- Node485&#45;&gt;Node480 -->
<g id="edge9" class="edge">
<title>Node485&#45;&gt;Node480</title>
<path fill="none" stroke="#191970" d="M460.0258,-124C470.9731,-124 481.9618,-124 491.8812,-124"/>
<polygon fill="#191970" stroke="#191970" points="460.0157,-120.5001 450.0157,-124 460.0156,-127.5001 460.0157,-120.5001"/>
</g>
<!-- Node486&#45;&gt;Node479 -->
<g id="edge12" class="edge">
<title>Node486&#45;&gt;Node479</title>
<path fill="none" stroke="#191970" d="M352.8273,-22.6156C305.288,-37.7327 226.6894,-62.7264 183.7695,-76.3745"/>
<polygon fill="#191970" stroke="#191970" points="354.0071,-25.9132 362.4763,-19.5473 351.8858,-19.2423 354.0071,-25.9132"/>
</g>
<!-- Node488 -->
<g id="node11" class="node">
<title>Node488</title>
<g id="a_node11"><a xlink:href="watchdog_8c.html#aeb03c505b5b589ae4d89b2ae11dd1711" target="_top" xlink:title="watchdog_timer_func">
<polygon fill="#ffffff" stroke="#000000" points="486,-38.5 486,-57.5 574,-57.5 574,-38.5 486,-38.5"/>
<text text-anchor="middle" x="530" y="-45.5" font-family="Helvetica,sans-Serif" font-size="10.00" fill="#000000">watchdog_timer_func</text>
</a>
</g>
</g>
<!-- Node487&#45;&gt;Node488 -->
<g id="edge15" class="edge">
<title>Node487&#45;&gt;Node488</title>
<path fill="none" stroke="#191970" d="M455.1396,-48C465.5015,-48 476.05,-48 485.8335,-48"/>
<polygon fill="#191970" stroke="#191970" points="454.8751,-44.5001 444.8751,-48 454.8751,-51.5001 454.8751,-44.5001"/>
</g>
<!-- Node489 -->
<g id="node12" class="node">
<title>Node489</title>
<g id="a_node12"><a xlink:href="watchdog_8h.html#ab148f2150b52df5b60e312dded3a2934" target="_top" xlink:title="start_watchdog">
<polygon fill="#ffffff" stroke="#000000" points="610,-38.5 610,-57.5 677,-57.5 677,-38.5 610,-38.5"/>
<text text-anchor="middle" x="643.5" y="-45.5" font-family="Helvetica,sans-Serif" font-size="10.00" fill="#000000">start_watchdog</text>
</a>
</g>
</g>
<!-- Node488&#45;&gt;Node489 -->
<g id="edge16" class="edge">
<title>Node488&#45;&gt;Node489</title>
<path fill="none" stroke="#191970" d="M584.3182,-48C593.0028,-48 601.7635,-48 609.7847,-48"/>
<polygon fill="#191970" stroke="#191970" points="584.2071,-44.5001 574.2071,-48 584.207,-51.5001 584.2071,-44.5001"/>
</g>
<!-- Node491 -->
<g id="node14" class="node">
<title>Node491</title>
<g id="a_node14"><a xlink:href="cgiwifi_8h.html#aa1b2a25d59b9eecb6f57b7d698686064" target="_top" xlink:title="cgiWiFiScan">
<polygon fill="#ffffff" stroke="#000000" points="237,-.5 237,-19.5 295,-19.5 295,-.5 237,-.5"/>
<text text-anchor="middle" x="266" y="-7.5" font-family="Helvetica,sans-Serif" font-size="10.00" fill="#000000">cgiWiFiScan</text>
</a>
</g>
</g>
<!-- Node490&#45;&gt;Node491 -->
<g id="edge18" class="edge">
<title>Node490&#45;&gt;Node491</title>
<path fill="none" stroke="#191970" d="M193.7179,-22.2076C207.9931,-19.7967 223.7714,-17.1319 236.9348,-14.9088"/>
<polygon fill="#191970" stroke="#191970" points="192.9254,-18.7918 183.6479,-23.9083 194.0912,-25.6941 192.9254,-18.7918"/>
</g>
</g>
</svg>
