<?xml version="1.0" encoding="UTF-8" standalone="no"?>
<!DOCTYPE svg PUBLIC "-//W3C//DTD SVG 1.1//EN"
 "http://www.w3.org/Graphics/SVG/1.1/DTD/svg11.dtd">
<!-- Generated by graphviz version 2.40.1 (20161225.0304)
 -->
<!-- Title: mw_to_w_str Pages: 1 -->
<svg width="227pt" height="78pt"
 viewBox="0.00 0.00 227.00 77.50" xmlns="http://www.w3.org/2000/svg" xmlns:xlink="http://www.w3.org/1999/xlink">
<g id="graph0" class="graph" transform="scale(1 1) rotate(0) translate(4 73.5)">
<title>mw_to_w_str</title>
<polygon fill="#ffffff" stroke="transparent" points="-4,4 -4,-73.5 223,-73.5 223,4 -4,4"/>
<!-- Node156 -->
<g id="node1" class="node">
<title>Node156</title>
<polygon fill="#bfbfbf" stroke="#000000" points="0,-22.5 0,-41.5 61,-41.5 61,-22.5 0,-22.5"/>
<text text-anchor="middle" x="30.5" y="-29.5" font-family="Helvetica,sans-Serif" font-size="10.00" fill="#000000">mw_to_w_str</text>
</g>
<!-- Node157 -->
<g id="node2" class="node">
<title>Node157</title>
<g id="a_node2"><a xlink:href="en61107__request_8h.html#a1d55ddd328b48520e19f10b6c0b6036c" target="_top" xlink:title="en61107_get_received\l_energy_kwh">
<polygon fill="#ffffff" stroke="#000000" points="111.5,-39 111.5,-69 204.5,-69 204.5,-39 111.5,-39"/>
<text text-anchor="start" x="119.5" y="-57" font-family="Helvetica,sans-Serif" font-size="10.00" fill="#000000">en61107_get_received</text>
<text text-anchor="middle" x="158" y="-46" font-family="Helvetica,sans-Serif" font-size="10.00" fill="#000000">_energy_kwh</text>
</a>
</g>
</g>
<!-- Node156&#45;&gt;Node157 -->
<g id="edge1" class="edge">
<title>Node156&#45;&gt;Node157</title>
<path fill="none" stroke="#191970" d="M70.958,-38.981C83.7748,-41.1925 98.0478,-43.6553 111.2675,-45.9363"/>
<polygon fill="#191970" stroke="#191970" points="71.489,-35.521 61.0394,-37.2695 70.2987,-42.419 71.489,-35.521"/>
</g>
<!-- Node158 -->
<g id="node3" class="node">
<title>Node158</title>
<g id="a_node3"><a xlink:href="kmp__request_8h.html#a38fdfecab4840fcd8b3c3074e715cf60" target="_top" xlink:title="kmp_get_received_energy_kwh">
<polygon fill="#ffffff" stroke="#000000" points="97,-.5 97,-19.5 219,-19.5 219,-.5 97,-.5"/>
<text text-anchor="middle" x="158" y="-7.5" font-family="Helvetica,sans-Serif" font-size="10.00" fill="#000000">kmp_get_received_energy_kwh</text>
</a>
</g>
</g>
<!-- Node156&#45;&gt;Node158 -->
<g id="edge2" class="edge">
<title>Node156&#45;&gt;Node158</title>
<path fill="none" stroke="#191970" d="M71.1485,-24.9861C81.2059,-23.2507 92.1504,-21.3623 102.7733,-19.5293"/>
<polygon fill="#191970" stroke="#191970" points="70.2987,-21.581 61.0394,-26.7305 71.489,-28.479 70.2987,-21.581"/>
</g>
</g>
</svg>
