<?xml version="1.0" encoding="UTF-8" standalone="no"?>
<!DOCTYPE svg PUBLIC "-//W3C//DTD SVG 1.1//EN"
 "http://www.w3.org/Graphics/SVG/1.1/DTD/svg11.dtd">
<!-- Generated by graphviz version 2.40.1 (20161225.0304)
 -->
<!-- Title: divide_str_by_10 Pages: 1 -->
<svg width="477pt" height="39pt"
 viewBox="0.00 0.00 477.00 39.00" xmlns="http://www.w3.org/2000/svg" xmlns:xlink="http://www.w3.org/1999/xlink">
<g id="graph0" class="graph" transform="scale(1 1) rotate(0) translate(4 35)">
<title>divide_str_by_10</title>
<polygon fill="#ffffff" stroke="transparent" points="-4,4 -4,-35 473,-35 473,4 -4,4"/>
<!-- Node70 -->
<g id="node1" class="node">
<title>Node70</title>
<polygon fill="#bfbfbf" stroke="#000000" points="0,-6 0,-25 73,-25 73,-6 0,-6"/>
<text text-anchor="middle" x="36.5" y="-13" font-family="Helvetica,sans-Serif" font-size="10.00" fill="#000000">divide_str_by_10</text>
</g>
<!-- Node71 -->
<g id="node2" class="node">
<title>Node71</title>
<g id="a_node2"><a xlink:href="en61107_8h.html#a5a71fa85ca3ccb0abfcb8f122affbbdd" target="_top" xlink:title="parse_mc66cde_standard\l_data_1_frame">
<polygon fill="#ffffff" stroke="#000000" points="109,-.5 109,-30.5 212,-30.5 212,-.5 109,-.5"/>
<text text-anchor="start" x="117" y="-18.5" font-family="Helvetica,sans-Serif" font-size="10.00" fill="#000000">parse_mc66cde_standard</text>
<text text-anchor="middle" x="160.5" y="-7.5" font-family="Helvetica,sans-Serif" font-size="10.00" fill="#000000">_data_1_frame</text>
</a>
</g>
</g>
<!-- Node70&#45;&gt;Node71 -->
<g id="edge1" class="edge">
<title>Node70&#45;&gt;Node71</title>
<path fill="none" stroke="#191970" d="M83.2621,-15.5C91.5385,-15.5 100.2011,-15.5 108.6089,-15.5"/>
<polygon fill="#191970" stroke="#191970" points="83.0335,-12.0001 73.0334,-15.5 83.0334,-19.0001 83.0335,-12.0001"/>
</g>
<!-- Node72 -->
<g id="node3" class="node">
<title>Node72</title>
<g id="a_node3"><a xlink:href="en61107__request_8c.html#aa3b162cf5364986ea19e831ac2b18f76" target="_top" xlink:title="en61107_received_task">
<polygon fill="#ffffff" stroke="#000000" points="248,-6 248,-25 344,-25 344,-6 248,-6"/>
<text text-anchor="middle" x="296" y="-13" font-family="Helvetica,sans-Serif" font-size="10.00" fill="#000000">en61107_received_task</text>
</a>
</g>
</g>
<!-- Node71&#45;&gt;Node72 -->
<g id="edge2" class="edge">
<title>Node71&#45;&gt;Node72</title>
<path fill="none" stroke="#191970" d="M222.3647,-15.5C230.8491,-15.5 239.4575,-15.5 247.6523,-15.5"/>
<polygon fill="#191970" stroke="#191970" points="222.1133,-12.0001 212.1133,-15.5 222.1132,-19.0001 222.1133,-12.0001"/>
</g>
<!-- Node73 -->
<g id="node4" class="node">
<title>Node73</title>
<g id="a_node4"><a xlink:href="en61107__request_8h.html#acd43242675a3f25e7c3b530eac9d8b3a" target="_top" xlink:title="en61107_request_init">
<polygon fill="#ffffff" stroke="#000000" points="380,-6 380,-25 469,-25 469,-6 380,-6"/>
<text text-anchor="middle" x="424.5" y="-13" font-family="Helvetica,sans-Serif" font-size="10.00" fill="#000000">en61107_request_init</text>
</a>
</g>
</g>
<!-- Node72&#45;&gt;Node73 -->
<g id="edge3" class="edge">
<title>Node72&#45;&gt;Node73</title>
<path fill="none" stroke="#191970" d="M354.4911,-15.5C363.0049,-15.5 371.6547,-15.5 379.8359,-15.5"/>
<polygon fill="#191970" stroke="#191970" points="354.2143,-12.0001 344.2143,-15.5 354.2142,-19.0001 354.2143,-12.0001"/>
</g>
</g>
</svg>
