<?xml version="1.0" encoding="UTF-8" standalone="no"?>
<!DOCTYPE svg PUBLIC "-//W3C//DTD SVG 1.1//EN"
 "http://www.w3.org/Graphics/SVG/1.1/DTD/svg11.dtd">
<!-- Generated by graphviz version 2.40.1 (20161225.0304)
 -->
<!-- Title: mw_to_w_str Pages: 1 -->
<svg width="597pt" height="294pt"
 viewBox="0.00 0.00 597.00 294.00" xmlns="http://www.w3.org/2000/svg" xmlns:xlink="http://www.w3.org/1999/xlink">
<g id="graph0" class="graph" transform="scale(1 1) rotate(0) translate(4 290)">
<title>mw_to_w_str</title>
<polygon fill="#ffffff" stroke="transparent" points="-4,4 -4,-290 593,-290 593,4 -4,4"/>
<!-- Node140 -->
<g id="node1" class="node">
<title>Node140</title>
<polygon fill="#bfbfbf" stroke="#000000" points="0,-171.5 0,-190.5 61,-190.5 61,-171.5 0,-171.5"/>
<text text-anchor="middle" x="30.5" y="-178.5" font-family="Helvetica,sans-Serif" font-size="10.00" fill="#000000">mw_to_w_str</text>
</g>
<!-- Node141 -->
<g id="node2" class="node">
<title>Node141</title>
<g id="a_node2"><a xlink:href="utils_8c.html#a84a001f12bbadea0d207701a1dfd63fa" target="_top" xlink:title="kw_to_w_str">
<polygon fill="#ffffff" stroke="#000000" points="97,-171.5 97,-190.5 155,-190.5 155,-171.5 97,-171.5"/>
<text text-anchor="middle" x="126" y="-178.5" font-family="Helvetica,sans-Serif" font-size="10.00" fill="#000000">kw_to_w_str</text>
</a>
</g>
</g>
<!-- Node140&#45;&gt;Node141 -->
<g id="edge1" class="edge">
<title>Node140&#45;&gt;Node141</title>
<path fill="none" stroke="#191970" d="M61.2425,-181C69.3831,-181 78.2824,-181 86.8058,-181"/>
<polygon fill="#191970" stroke="#191970" points="86.9397,-184.5001 96.9396,-181 86.9396,-177.5001 86.9397,-184.5001"/>
</g>
<!-- Node142 -->
<g id="node3" class="node">
<title>Node142</title>
<g id="a_node3"><a xlink:href="utils_8c.html#af7f86262824738791bf4a3328d09aacf" target="_top" xlink:title="int_pow">
<polygon fill="#ffffff" stroke="#000000" points="197,-190.5 197,-209.5 239,-209.5 239,-190.5 197,-190.5"/>
<text text-anchor="middle" x="218" y="-197.5" font-family="Helvetica,sans-Serif" font-size="10.00" fill="#000000">int_pow</text>
</a>
</g>
</g>
<!-- Node141&#45;&gt;Node142 -->
<g id="edge2" class="edge">
<title>Node141&#45;&gt;Node142</title>
<path fill="none" stroke="#191970" d="M155.1094,-187.0117C165.2958,-189.1154 176.7654,-191.4842 187.0934,-193.6171"/>
<polygon fill="#191970" stroke="#191970" points="186.4498,-197.058 196.951,-195.6529 187.8656,-190.2026 186.4498,-197.058"/>
</g>
<!-- Node143 -->
<g id="node4" class="node">
<title>Node143</title>
<g id="a_node4"><a xlink:href="tinyprintf_8c.html#a9738cbc6c538d210941db282e240c7d6" target="_top" xlink:title="tfp_snprintf">
<polygon fill="#ffffff" stroke="#000000" points="191,-152.5 191,-171.5 245,-171.5 245,-152.5 191,-152.5"/>
<text text-anchor="middle" x="218" y="-159.5" font-family="Helvetica,sans-Serif" font-size="10.00" fill="#000000">tfp_snprintf</text>
</a>
</g>
</g>
<!-- Node141&#45;&gt;Node143 -->
<g id="edge3" class="edge">
<title>Node141&#45;&gt;Node143</title>
<path fill="none" stroke="#191970" d="M155.1094,-174.9883C163.3578,-173.2848 172.4477,-171.4075 181.0916,-169.6224"/>
<polygon fill="#191970" stroke="#191970" points="181.8712,-173.0353 190.9566,-167.5851 180.4553,-166.18 181.8712,-173.0353"/>
</g>
<!-- Node144 -->
<g id="node5" class="node">
<title>Node144</title>
<g id="a_node5"><a xlink:href="tinyprintf_8c.html#ac8c8a66133cf0d7009c0d73b55311a44" target="_top" xlink:title="tfp_vsnprintf">
<polygon fill="#ffffff" stroke="#000000" points="281,-152.5 281,-171.5 338,-171.5 338,-152.5 281,-152.5"/>
<text text-anchor="middle" x="309.5" y="-159.5" font-family="Helvetica,sans-Serif" font-size="10.00" fill="#000000">tfp_vsnprintf</text>
</a>
</g>
</g>
<!-- Node143&#45;&gt;Node144 -->
<g id="edge4" class="edge">
<title>Node143&#45;&gt;Node144</title>
<path fill="none" stroke="#191970" d="M245.453,-162C253.3869,-162 262.1998,-162 270.6866,-162"/>
<polygon fill="#191970" stroke="#191970" points="270.796,-165.5001 280.796,-162 270.7959,-158.5001 270.796,-165.5001"/>
</g>
<!-- Node145 -->
<g id="node6" class="node">
<title>Node145</title>
<g id="a_node6"><a xlink:href="tinyprintf_8c.html#a919051024b2d729e34a54648b3f2462d" target="_top" xlink:title="_vsnprintf_putcf">
<polygon fill="#ffffff" stroke="#000000" points="374,-171.5 374,-190.5 443,-190.5 443,-171.5 374,-171.5"/>
<text text-anchor="middle" x="408.5" y="-178.5" font-family="Helvetica,sans-Serif" font-size="10.00" fill="#000000">_vsnprintf_putcf</text>
</a>
</g>
</g>
<!-- Node144&#45;&gt;Node145 -->
<g id="edge5" class="edge">
<title>Node144&#45;&gt;Node145</title>
<path fill="none" stroke="#191970" d="M338.1349,-167.4956C346.1798,-169.0396 355.1246,-170.7562 363.8652,-172.4337"/>
<polygon fill="#191970" stroke="#191970" points="363.4853,-175.9246 373.9658,-174.3722 364.8048,-169.0501 363.4853,-175.9246"/>
</g>
<!-- Node146 -->
<g id="node7" class="node">
<title>Node146</title>
<g id="a_node7"><a xlink:href="tinyprintf_8c.html#a5877e42444463efc71a91b5fe76a6145" target="_top" xlink:title="tfp_format">
<polygon fill="#ffffff" stroke="#000000" points="383.5,-133.5 383.5,-152.5 433.5,-152.5 433.5,-133.5 383.5,-133.5"/>
<text text-anchor="middle" x="408.5" y="-140.5" font-family="Helvetica,sans-Serif" font-size="10.00" fill="#000000">tfp_format</text>
</a>
</g>
</g>
<!-- Node144&#45;&gt;Node146 -->
<g id="edge6" class="edge">
<title>Node144&#45;&gt;Node146</title>
<path fill="none" stroke="#191970" d="M338.1349,-156.5044C349.0654,-154.4066 361.6574,-151.99 373.141,-149.7861"/>
<polygon fill="#191970" stroke="#191970" points="374.135,-153.1593 383.296,-147.8371 372.8156,-146.2847 374.135,-153.1593"/>
</g>
<!-- Node147 -->
<g id="node8" class="node">
<title>Node147</title>
<g id="a_node8"><a xlink:href="tinyprintf_8c.html#aa97593a5e53af85b608ad0910db92d77" target="_top" xlink:title="a2u">
<polygon fill="#ffffff" stroke="#000000" points="484.5,-266.5 484.5,-285.5 513.5,-285.5 513.5,-266.5 484.5,-266.5"/>
<text text-anchor="middle" x="499" y="-273.5" font-family="Helvetica,sans-Serif" font-size="10.00" fill="#000000">a2u</text>
</a>
</g>
</g>
<!-- Node146&#45;&gt;Node147 -->
<g id="edge7" class="edge">
<title>Node146&#45;&gt;Node147</title>
<path fill="none" stroke="#191970" d="M431.3467,-152.5743C435.6321,-155.1523 439.7729,-158.2819 443,-162 472.5961,-196.0996 454.0057,-219.3968 479,-257 479.4176,-257.6282 479.8594,-258.251 480.3211,-258.8667"/>
<polygon fill="#191970" stroke="#191970" points="477.7628,-261.2561 487.0627,-266.3318 482.9579,-256.5644 477.7628,-261.2561"/>
</g>
<!-- Node149 -->
<g id="node10" class="node">
<title>Node149</title>
<g id="a_node10"><a xlink:href="tinyprintf_8c.html#a90f9fd8f2133cda7f50be8d67823405c" target="_top" xlink:title="i2a">
<polygon fill="#ffffff" stroke="#000000" points="484.5,-228.5 484.5,-247.5 513.5,-247.5 513.5,-228.5 484.5,-228.5"/>
<text text-anchor="middle" x="499" y="-235.5" font-family="Helvetica,sans-Serif" font-size="10.00" fill="#000000">i2a</text>
</a>
</g>
</g>
<!-- Node146&#45;&gt;Node149 -->
<g id="edge9" class="edge">
<title>Node146&#45;&gt;Node149</title>
<path fill="none" stroke="#191970" d="M429.6013,-152.5998C434.2918,-155.2662 439.041,-158.4261 443,-162 463.8649,-180.8356 461.9856,-191.6252 479,-214 480.6087,-216.1155 482.3343,-218.3004 484.0731,-220.4507"/>
<polygon fill="#191970" stroke="#191970" points="481.5475,-222.8882 490.625,-228.3516 486.9358,-218.4198 481.5475,-222.8882"/>
</g>
<!-- Node150 -->
<g id="node11" class="node">
<title>Node150</title>
<g id="a_node11"><a xlink:href="tinyprintf_8c.html#ac87ff66a592723f55692eaf8e3f19df8" target="_top" xlink:title="ui2a">
<polygon fill="#ffffff" stroke="#000000" points="556.5,-209.5 556.5,-228.5 587.5,-228.5 587.5,-209.5 556.5,-209.5"/>
<text text-anchor="middle" x="572" y="-216.5" font-family="Helvetica,sans-Serif" font-size="10.00" fill="#000000">ui2a</text>
</a>
</g>
</g>
<!-- Node146&#45;&gt;Node150 -->
<g id="edge16" class="edge">
<title>Node146&#45;&gt;Node150</title>
<path fill="none" stroke="#191970" d="M426.2348,-152.6864C445.3486,-163.1056 473.7507,-178.5215 479,-181 501.5939,-191.668 528.023,-202.2959 546.9201,-209.588"/>
<polygon fill="#191970" stroke="#191970" points="545.7224,-212.8771 556.313,-213.1773 548.2212,-206.3382 545.7224,-212.8771"/>
</g>
<!-- Node151 -->
<g id="node12" class="node">
<title>Node151</title>
<g id="a_node12"><a xlink:href="tinyprintf_8c.html#afebb7696337c3f599b5e8db35c560684" target="_top" xlink:title="li2a">
<polygon fill="#ffffff" stroke="#000000" points="484.5,-152.5 484.5,-171.5 513.5,-171.5 513.5,-152.5 484.5,-152.5"/>
<text text-anchor="middle" x="499" y="-159.5" font-family="Helvetica,sans-Serif" font-size="10.00" fill="#000000">li2a</text>
</a>
</g>
</g>
<!-- Node146&#45;&gt;Node151 -->
<g id="edge11" class="edge">
<title>Node146&#45;&gt;Node151</title>
<path fill="none" stroke="#191970" d="M433.7093,-148.2926C446.4577,-150.969 461.8657,-154.2038 474.5115,-156.8588"/>
<polygon fill="#191970" stroke="#191970" points="473.8595,-160.2981 484.3653,-158.9275 475.2978,-153.4475 473.8595,-160.2981"/>
</g>
<!-- Node152 -->
<g id="node13" class="node">
<title>Node152</title>
<g id="a_node13"><a xlink:href="tinyprintf_8c.html#a1d61347854a8c290d59b4a21efcefd75" target="_top" xlink:title="uli2a">
<polygon fill="#ffffff" stroke="#000000" points="556,-133.5 556,-152.5 588,-152.5 588,-133.5 556,-133.5"/>
<text text-anchor="middle" x="572" y="-140.5" font-family="Helvetica,sans-Serif" font-size="10.00" fill="#000000">uli2a</text>
</a>
</g>
</g>
<!-- Node146&#45;&gt;Node152 -->
<g id="edge17" class="edge">
<title>Node146&#45;&gt;Node152</title>
<path fill="none" stroke="#191970" d="M433.6886,-143C464.0045,-143 514.6753,-143 545.5452,-143"/>
<polygon fill="#191970" stroke="#191970" points="545.9482,-146.5001 555.9481,-143 545.9481,-139.5001 545.9482,-146.5001"/>
</g>
<!-- Node153 -->
<g id="node14" class="node">
<title>Node153</title>
<g id="a_node14"><a xlink:href="tinyprintf_8c.html#a49c6d2b3d4088012f2c1fe344eef69f3" target="_top" xlink:title="lli2a">
<polygon fill="#ffffff" stroke="#000000" points="484,-76.5 484,-95.5 514,-95.5 514,-76.5 484,-76.5"/>
<text text-anchor="middle" x="499" y="-83.5" font-family="Helvetica,sans-Serif" font-size="10.00" fill="#000000">lli2a</text>
</a>
</g>
</g>
<!-- Node146&#45;&gt;Node153 -->
<g id="edge13" class="edge">
<title>Node146&#45;&gt;Node153</title>
<path fill="none" stroke="#191970" d="M423.8521,-133.3307C437.8479,-124.5157 458.7509,-111.3503 474.9606,-101.1408"/>
<polygon fill="#191970" stroke="#191970" points="477.2784,-103.8174 483.8746,-95.5265 473.5478,-97.8943 477.2784,-103.8174"/>
</g>
<!-- Node154 -->
<g id="node15" class="node">
<title>Node154</title>
<g id="a_node15"><a xlink:href="tinyprintf_8c.html#abcf035dd576671b0cc897de9dd8c75b0" target="_top" xlink:title="ulli2a">
<polygon fill="#ffffff" stroke="#000000" points="555,-57.5 555,-76.5 589,-76.5 589,-57.5 555,-57.5"/>
<text text-anchor="middle" x="572" y="-64.5" font-family="Helvetica,sans-Serif" font-size="10.00" fill="#000000">ulli2a</text>
</a>
</g>
</g>
<!-- Node146&#45;&gt;Node154 -->
<g id="edge18" class="edge">
<title>Node146&#45;&gt;Node154</title>
<path fill="none" stroke="#191970" d="M413.7337,-133.4482C423.7568,-116.2873 447.4943,-80.7482 479,-67 499.7268,-57.9554 525.6121,-58.8078 544.8069,-61.4349"/>
<polygon fill="#191970" stroke="#191970" points="544.2786,-64.8948 554.7072,-63.0253 545.3889,-57.9834 544.2786,-64.8948"/>
</g>
<!-- Node155 -->
<g id="node16" class="node">
<title>Node155</title>
<g id="a_node16"><a xlink:href="tinyprintf_8c.html#a6252dbfebb2c8783c4e3107d551082dd" target="_top" xlink:title="putchw">
<polygon fill="#ffffff" stroke="#000000" points="479,-.5 479,-19.5 519,-19.5 519,-.5 479,-.5"/>
<text text-anchor="middle" x="499" y="-7.5" font-family="Helvetica,sans-Serif" font-size="10.00" fill="#000000">putchw</text>
</a>
</g>
</g>
<!-- Node146&#45;&gt;Node155 -->
<g id="edge15" class="edge">
<title>Node146&#45;&gt;Node155</title>
<path fill="none" stroke="#191970" d="M414.1641,-133.412C425.6813,-114.1116 452.952,-69.3953 479,-34 480.5752,-31.8595 482.2802,-29.6591 484.0075,-27.5002"/>
<polygon fill="#191970" stroke="#191970" points="486.8716,-29.5291 490.5525,-19.5941 481.4795,-25.0652 486.8716,-29.5291"/>
</g>
<!-- Node148 -->
<g id="node9" class="node">
<title>Node148</title>
<g id="a_node9"><a xlink:href="tinyprintf_8c.html#aa853a0c5ba64fa2546d488b86192e7e3" target="_top" xlink:title="a2d">
<polygon fill="#ffffff" stroke="#000000" points="557.5,-266.5 557.5,-285.5 586.5,-285.5 586.5,-266.5 557.5,-266.5"/>
<text text-anchor="middle" x="572" y="-273.5" font-family="Helvetica,sans-Serif" font-size="10.00" fill="#000000">a2d</text>
</a>
</g>
</g>
<!-- Node147&#45;&gt;Node148 -->
<g id="edge8" class="edge">
<title>Node147&#45;&gt;Node148</title>
<path fill="none" stroke="#191970" d="M513.7726,-276C523.3705,-276 536.1197,-276 547.2412,-276"/>
<polygon fill="#191970" stroke="#191970" points="547.2494,-279.5001 557.2493,-276 547.2493,-272.5001 547.2494,-279.5001"/>
</g>
<!-- Node149&#45;&gt;Node150 -->
<g id="edge10" class="edge">
<title>Node149&#45;&gt;Node150</title>
<path fill="none" stroke="#191970" d="M513.7726,-234.1551C523.181,-231.7063 535.6176,-228.4694 546.5808,-225.616"/>
<polygon fill="#191970" stroke="#191970" points="547.6975,-228.942 556.4935,-223.0359 545.9343,-222.1677 547.6975,-228.942"/>
</g>
<!-- Node151&#45;&gt;Node152 -->
<g id="edge12" class="edge">
<title>Node151&#45;&gt;Node152</title>
<path fill="none" stroke="#191970" d="M513.7726,-158.1551C523.0547,-155.7392 535.2843,-152.5561 546.1385,-149.7311"/>
<polygon fill="#191970" stroke="#191970" points="547.1867,-153.0749 555.9827,-147.1689 545.4235,-146.3006 547.1867,-153.0749"/>
</g>
<!-- Node153&#45;&gt;Node154 -->
<g id="edge14" class="edge">
<title>Node153&#45;&gt;Node154</title>
<path fill="none" stroke="#191970" d="M514.1256,-82.0632C523.021,-79.748 534.5313,-76.7521 544.9415,-74.0426"/>
<polygon fill="#191970" stroke="#191970" points="546.0513,-77.3705 554.8473,-71.4644 544.2881,-70.5962 546.0513,-77.3705"/>
</g>
</g>
</svg>
