<?xml version="1.0" encoding="UTF-8" standalone="no"?>
<!DOCTYPE svg PUBLIC "-//W3C//DTD SVG 1.1//EN"
 "http://www.w3.org/Graphics/SVG/1.1/DTD/svg11.dtd">
<!-- Generated by graphviz version 2.40.1 (20161225.0304)
 -->
<!-- Title: ccit_crc16 Pages: 1 -->
<svg width="774pt" height="283pt"
 viewBox="0.00 0.00 774.00 283.00" xmlns="http://www.w3.org/2000/svg" xmlns:xlink="http://www.w3.org/1999/xlink">
<g id="graph0" class="graph" transform="scale(1 1) rotate(0) translate(4 279)">
<title>ccit_crc16</title>
<polygon fill="#ffffff" stroke="transparent" points="-4,4 -4,-279 770,-279 770,4 -4,4"/>
<!-- Node1 -->
<g id="node1" class="node">
<title>Node1</title>
<polygon fill="#bfbfbf" stroke="#000000" points="0,-217.5 0,-236.5 50,-236.5 50,-217.5 0,-217.5"/>
<text text-anchor="middle" x="25" y="-224.5" font-family="Helvetica,sans-Serif" font-size="10.00" fill="#000000">ccit_crc16</text>
</g>
<!-- Node2 -->
<g id="node2" class="node">
<title>Node2</title>
<g id="a_node2"><a xlink:href="config_8h.html#a92adb6c5103eed30e16185a9cd233e51" target="_top" xlink:title="cfg_load">
<polygon fill="#ffffff" stroke="#000000" points="200.5,-255.5 200.5,-274.5 245.5,-274.5 245.5,-255.5 200.5,-255.5"/>
<text text-anchor="middle" x="223" y="-262.5" font-family="Helvetica,sans-Serif" font-size="10.00" fill="#000000">cfg_load</text>
</a>
</g>
</g>
<!-- Node1&#45;&gt;Node2 -->
<g id="edge1" class="edge">
<title>Node1&#45;&gt;Node2</title>
<path fill="none" stroke="#191970" d="M59.8737,-238.9414C68.3511,-241.5437 77.4414,-244.0872 86,-246 125.8382,-254.9035 173.1804,-260.3607 200.4926,-263.0224"/>
<polygon fill="#191970" stroke="#191970" points="60.8624,-235.5833 50.2722,-235.8939 58.7447,-242.2553 60.8624,-235.5833"/>
</g>
<!-- Node4 -->
<g id="node4" class="node">
<title>Node4</title>
<g id="a_node4"><a xlink:href="config_8h.html#acd3c633ba5f49d7bb46d6e4efa31ddb2" target="_top" xlink:title="cfg_save">
<polygon fill="#ffffff" stroke="#000000" points="89,-217.5 89,-236.5 136,-236.5 136,-217.5 89,-217.5"/>
<text text-anchor="middle" x="112.5" y="-224.5" font-family="Helvetica,sans-Serif" font-size="10.00" fill="#000000">cfg_save</text>
</a>
</g>
</g>
<!-- Node1&#45;&gt;Node4 -->
<g id="edge3" class="edge">
<title>Node1&#45;&gt;Node4</title>
<path fill="none" stroke="#191970" d="M60.3598,-227C69.9063,-227 80.0065,-227 88.7491,-227"/>
<polygon fill="#191970" stroke="#191970" points="60.3087,-223.5001 50.3086,-227 60.3086,-230.5001 60.3087,-223.5001"/>
</g>
<!-- Node14 -->
<g id="node14" class="node">
<title>Node14</title>
<g id="a_node14"><a xlink:href="kmp_8h.html#a5245dd3f5d04db2e46786675e7ae97f8" target="_top" xlink:title="kmp_crc16">
<polygon fill="#ffffff" stroke="#000000" points="86,-76.5 86,-95.5 139,-95.5 139,-76.5 86,-76.5"/>
<text text-anchor="middle" x="112.5" y="-83.5" font-family="Helvetica,sans-Serif" font-size="10.00" fill="#000000">kmp_crc16</text>
</a>
</g>
</g>
<!-- Node1&#45;&gt;Node14 -->
<g id="edge16" class="edge">
<title>Node1&#45;&gt;Node14</title>
<path fill="none" stroke="#191970" d="M36.4309,-208.5798C55.2168,-178.3077 91.9765,-119.0722 106.4437,-95.7593"/>
<polygon fill="#191970" stroke="#191970" points="33.3132,-206.9661 31.0142,-217.3085 39.2611,-210.6571 33.3132,-206.9661"/>
</g>
<!-- Node3 -->
<g id="node3" class="node">
<title>Node3</title>
<g id="a_node3"><a xlink:href="cgiwifi_8h.html#ace460e5ac8fd74afa8616bfc82561b26" target="_top" xlink:title="tplSetup">
<polygon fill="#ffffff" stroke="#000000" points="342,-255.5 342,-274.5 386,-274.5 386,-255.5 342,-255.5"/>
<text text-anchor="middle" x="364" y="-262.5" font-family="Helvetica,sans-Serif" font-size="10.00" fill="#000000">tplSetup</text>
</a>
</g>
</g>
<!-- Node2&#45;&gt;Node3 -->
<g id="edge2" class="edge">
<title>Node2&#45;&gt;Node3</title>
<path fill="none" stroke="#191970" d="M255.9579,-265C282.4048,-265 318.8029,-265 341.867,-265"/>
<polygon fill="#191970" stroke="#191970" points="255.6541,-261.5001 245.6541,-265 255.6541,-268.5001 255.6541,-261.5001"/>
</g>
<!-- Node4&#45;&gt;Node2 -->
<g id="edge4" class="edge">
<title>Node4&#45;&gt;Node2</title>
<path fill="none" stroke="#191970" d="M146.107,-238.5571C163.7238,-244.6154 184.8276,-251.8728 200.4659,-257.2507"/>
<polygon fill="#191970" stroke="#191970" points="146.7997,-235.0943 136.205,-235.152 144.5233,-241.7138 146.7997,-235.0943"/>
</g>
<!-- Node5 -->
<g id="node5" class="node">
<title>Node5</title>
<g id="a_node5"><a xlink:href="cgiwifi_8h.html#a7c655a56f56ecebad923c5c4daeb7f1a" target="_top" xlink:title="cgiSetup">
<polygon fill="#ffffff" stroke="#000000" points="200,-217.5 200,-236.5 246,-236.5 246,-217.5 200,-217.5"/>
<text text-anchor="middle" x="223" y="-224.5" font-family="Helvetica,sans-Serif" font-size="10.00" fill="#000000">cgiSetup</text>
</a>
</g>
</g>
<!-- Node4&#45;&gt;Node5 -->
<g id="edge5" class="edge">
<title>Node4&#45;&gt;Node5</title>
<path fill="none" stroke="#191970" d="M146.4564,-227C163.7206,-227 184.2597,-227 199.7135,-227"/>
<polygon fill="#191970" stroke="#191970" points="146.2051,-223.5001 136.205,-227 146.205,-230.5001 146.2051,-223.5001"/>
</g>
<!-- Node6 -->
<g id="node6" class="node">
<title>Node6</title>
<g id="a_node6"><a xlink:href="config_8h.html#a1e0d59e84f6bbc2564bcdf595b6972da" target="_top" xlink:title="config_save_timer_func">
<polygon fill="#ffffff" stroke="#000000" points="175,-161.5 175,-180.5 271,-180.5 271,-161.5 175,-161.5"/>
<text text-anchor="middle" x="223" y="-168.5" font-family="Helvetica,sans-Serif" font-size="10.00" fill="#000000">config_save_timer_func</text>
</a>
</g>
</g>
<!-- Node4&#45;&gt;Node6 -->
<g id="edge6" class="edge">
<title>Node4&#45;&gt;Node6</title>
<path fill="none" stroke="#191970" d="M140.92,-212.5971C160.7293,-202.558 186.6153,-189.4393 203.9729,-180.6427"/>
<polygon fill="#191970" stroke="#191970" points="139.0854,-209.603 131.7476,-217.2455 142.2498,-215.847 139.0854,-209.603"/>
</g>
<!-- Node6&#45;&gt;Node6 -->
<g id="edge15" class="edge">
<title>Node6&#45;&gt;Node6</title>
<path fill="none" stroke="#191970" d="M202.6306,-190.4C203.991,-195.3146 210.7808,-199 223,-199 242.5508,-199 248.2022,-189.5653 239.9542,-180.7571"/>
<polygon fill="#191970" stroke="#191970" points="206.0065,-191.3518 206.0458,-180.7571 199.4081,-189.0149 206.0065,-191.3518"/>
</g>
<!-- Node7 -->
<g id="node7" class="node">
<title>Node7</title>
<g id="a_node7"><a xlink:href="config_8h.html#ab4af9f95b39f096bb0fa8d73eb5a342e" target="_top" xlink:title="cfg_save_defered">
<polygon fill="#ffffff" stroke="#000000" points="326,-171.5 326,-190.5 402,-190.5 402,-171.5 326,-171.5"/>
<text text-anchor="middle" x="364" y="-178.5" font-family="Helvetica,sans-Serif" font-size="10.00" fill="#000000">cfg_save_defered</text>
</a>
</g>
</g>
<!-- Node6&#45;&gt;Node7 -->
<g id="edge7" class="edge">
<title>Node6&#45;&gt;Node7</title>
<path fill="none" stroke="#191970" d="M281.3727,-175.1399C296.393,-176.2052 312.1706,-177.3242 325.8666,-178.2955"/>
<polygon fill="#191970" stroke="#191970" points="281.3524,-171.6298 271.1298,-174.4135 280.8571,-178.6122 281.3524,-171.6298"/>
</g>
<!-- Node8 -->
<g id="node8" class="node">
<title>Node8</title>
<g id="a_node8"><a xlink:href="ac__out_8h.html#a3bc674b019d5e2e4d15e7abe7c69029f" target="_top" xlink:title="ac_thermo_close">
<polygon fill="#ffffff" stroke="#000000" points="472,-247.5 472,-266.5 546,-266.5 546,-247.5 472,-247.5"/>
<text text-anchor="middle" x="509" y="-254.5" font-family="Helvetica,sans-Serif" font-size="10.00" fill="#000000">ac_thermo_close</text>
</a>
</g>
</g>
<!-- Node7&#45;&gt;Node8 -->
<g id="edge8" class="edge">
<title>Node7&#45;&gt;Node8</title>
<path fill="none" stroke="#191970" d="M386.2174,-196.3654C404.6255,-208.6621 431.7649,-225.8074 457,-238 464.1831,-241.4706 472.1745,-244.6879 479.6951,-247.4515"/>
<polygon fill="#191970" stroke="#191970" points="387.9304,-193.2987 377.6863,-190.5953 384.0087,-199.097 387.9304,-193.2987"/>
</g>
<!-- Node11 -->
<g id="node11" class="node">
<title>Node11</title>
<g id="a_node11"><a xlink:href="ac__out_8h.html#a1573f96ac038a6a1b29a6f21403a2341" target="_top" xlink:title="ac_thermo_open">
<polygon fill="#ffffff" stroke="#000000" points="472.5,-209.5 472.5,-228.5 545.5,-228.5 545.5,-209.5 472.5,-209.5"/>
<text text-anchor="middle" x="509" y="-216.5" font-family="Helvetica,sans-Serif" font-size="10.00" fill="#000000">ac_thermo_open</text>
</a>
</g>
</g>
<!-- Node7&#45;&gt;Node11 -->
<g id="edge11" class="edge">
<title>Node7&#45;&gt;Node11</title>
<path fill="none" stroke="#191970" d="M410.4928,-193.1843C430.6237,-198.46 453.8383,-204.5438 472.6735,-209.4799"/>
<polygon fill="#191970" stroke="#191970" points="411.1503,-189.7385 400.5896,-190.589 409.3757,-196.5098 411.1503,-189.7385"/>
</g>
<!-- Node12 -->
<g id="node12" class="node">
<title>Node12</title>
<g id="a_node12"><a xlink:href="cron_8h.html#abede8d12ed6e5d5f3412eda37b325d03" target="_top" xlink:title="add_cron_job_from_query">
<polygon fill="#ffffff" stroke="#000000" points="457,-171.5 457,-190.5 561,-190.5 561,-171.5 457,-171.5"/>
<text text-anchor="middle" x="509" y="-178.5" font-family="Helvetica,sans-Serif" font-size="10.00" fill="#000000">add_cron_job_from_query</text>
</a>
</g>
</g>
<!-- Node7&#45;&gt;Node12 -->
<g id="edge13" class="edge">
<title>Node7&#45;&gt;Node12</title>
<path fill="none" stroke="#191970" d="M412.2587,-181C426.6136,-181 442.4014,-181 456.9845,-181"/>
<polygon fill="#191970" stroke="#191970" points="412.0971,-177.5001 402.097,-181 412.097,-184.5001 412.0971,-177.5001"/>
</g>
<!-- Node13 -->
<g id="node13" class="node">
<title>Node13</title>
<g id="a_node13"><a xlink:href="cron_8h.html#ad014b7bf4eab144ea9fc5669d896714b" target="_top" xlink:title="clear_cron_jobs">
<polygon fill="#ffffff" stroke="#000000" points="474.5,-133.5 474.5,-152.5 543.5,-152.5 543.5,-133.5 474.5,-133.5"/>
<text text-anchor="middle" x="509" y="-140.5" font-family="Helvetica,sans-Serif" font-size="10.00" fill="#000000">clear_cron_jobs</text>
</a>
</g>
</g>
<!-- Node7&#45;&gt;Node13 -->
<g id="edge14" class="edge">
<title>Node7&#45;&gt;Node13</title>
<path fill="none" stroke="#191970" d="M410.4813,-168.8187C431.2411,-163.3782 455.2823,-157.0777 474.4186,-152.0627"/>
<polygon fill="#191970" stroke="#191970" points="409.3757,-165.4902 400.5896,-171.411 411.1503,-172.2615 409.3757,-165.4902"/>
</g>
<!-- Node9 -->
<g id="node9" class="node">
<title>Node9</title>
<g id="a_node9"><a xlink:href="cron_8c.html#a2782af03df9b913cfa565a0770e1afe1" target="_top" xlink:title="minute_timer_func">
<polygon fill="#ffffff" stroke="#000000" points="602,-228.5 602,-247.5 680,-247.5 680,-228.5 602,-228.5"/>
<text text-anchor="middle" x="641" y="-235.5" font-family="Helvetica,sans-Serif" font-size="10.00" fill="#000000">minute_timer_func</text>
</a>
</g>
</g>
<!-- Node8&#45;&gt;Node9 -->
<g id="edge9" class="edge">
<title>Node8&#45;&gt;Node9</title>
<path fill="none" stroke="#191970" d="M556.2093,-250.2047C571.1669,-248.0517 587.5293,-245.6965 601.8562,-243.6343"/>
<polygon fill="#191970" stroke="#191970" points="555.5199,-246.7678 546.1206,-251.6569 556.5173,-253.6964 555.5199,-246.7678"/>
</g>
<!-- Node10 -->
<g id="node10" class="node">
<title>Node10</title>
<g id="a_node10"><a xlink:href="cron_8h.html#ae130c5973bad35b56776750c7a34db12" target="_top" xlink:title="cron_init">
<polygon fill="#ffffff" stroke="#000000" points="721,-228.5 721,-247.5 766,-247.5 766,-228.5 721,-228.5"/>
<text text-anchor="middle" x="743.5" y="-235.5" font-family="Helvetica,sans-Serif" font-size="10.00" fill="#000000">cron_init</text>
</a>
</g>
</g>
<!-- Node9&#45;&gt;Node10 -->
<g id="edge10" class="edge">
<title>Node9&#45;&gt;Node10</title>
<path fill="none" stroke="#191970" d="M690.2322,-238C700.9613,-238 711.8085,-238 720.889,-238"/>
<polygon fill="#191970" stroke="#191970" points="690.0433,-234.5001 680.0433,-238 690.0432,-241.5001 690.0433,-234.5001"/>
</g>
<!-- Node11&#45;&gt;Node9 -->
<g id="edge12" class="edge">
<title>Node11&#45;&gt;Node9</title>
<path fill="none" stroke="#191970" d="M555.8682,-225.7462C570.8491,-227.9025 587.2696,-230.2661 601.6582,-232.3372"/>
<polygon fill="#191970" stroke="#191970" points="556.166,-222.2531 545.7694,-224.2926 555.1687,-229.1817 556.166,-222.2531"/>
</g>
<!-- Node15 -->
<g id="node15" class="node">
<title>Node15</title>
<g id="a_node15"><a xlink:href="kmp_8h.html#a34231e78fbbe5298fcb35be737edb9e3" target="_top" xlink:title="kmp_decode_frame">
<polygon fill="#ffffff" stroke="#000000" points="181.5,-114.5 181.5,-133.5 264.5,-133.5 264.5,-114.5 181.5,-114.5"/>
<text text-anchor="middle" x="223" y="-121.5" font-family="Helvetica,sans-Serif" font-size="10.00" fill="#000000">kmp_decode_frame</text>
</a>
</g>
</g>
<!-- Node14&#45;&gt;Node15 -->
<g id="edge17" class="edge">
<title>Node14&#45;&gt;Node15</title>
<path fill="none" stroke="#191970" d="M148.8309,-98.4939C163.9701,-103.7001 181.2648,-109.6476 195.3434,-114.4891"/>
<polygon fill="#191970" stroke="#191970" points="149.8436,-95.141 139.249,-95.1987 147.5672,-101.7606 149.8436,-95.141"/>
</g>
<!-- Node18 -->
<g id="node18" class="node">
<title>Node18</title>
<g id="a_node18"><a xlink:href="kmp_8h.html#aff9c217307fb9210d301ba14bc2b5707" target="_top" xlink:title="kmp_get_register">
<polygon fill="#ffffff" stroke="#000000" points="186,-76.5 186,-95.5 260,-95.5 260,-76.5 186,-76.5"/>
<text text-anchor="middle" x="223" y="-83.5" font-family="Helvetica,sans-Serif" font-size="10.00" fill="#000000">kmp_get_register</text>
</a>
</g>
</g>
<!-- Node14&#45;&gt;Node18 -->
<g id="edge20" class="edge">
<title>Node14&#45;&gt;Node18</title>
<path fill="none" stroke="#191970" d="M149.5186,-86C161.1476,-86 173.9903,-86 185.6427,-86"/>
<polygon fill="#191970" stroke="#191970" points="149.249,-82.5001 139.249,-86 149.2489,-89.5001 149.249,-82.5001"/>
</g>
<!-- Node22 -->
<g id="node22" class="node">
<title>Node22</title>
<g id="a_node22"><a xlink:href="kmp_8h.html#a4d6c33fbffbf96fd508400df943be676" target="_top" xlink:title="kmp_get_serial">
<polygon fill="#ffffff" stroke="#000000" points="189.5,-38.5 189.5,-57.5 256.5,-57.5 256.5,-38.5 189.5,-38.5"/>
<text text-anchor="middle" x="223" y="-45.5" font-family="Helvetica,sans-Serif" font-size="10.00" fill="#000000">kmp_get_serial</text>
</a>
</g>
</g>
<!-- Node14&#45;&gt;Node22 -->
<g id="edge25" class="edge">
<title>Node14&#45;&gt;Node22</title>
<path fill="none" stroke="#191970" d="M148.8309,-73.5061C163.9701,-68.2999 181.2648,-62.3524 195.3434,-57.5109"/>
<polygon fill="#191970" stroke="#191970" points="147.5672,-70.2394 139.249,-76.8013 149.8436,-76.859 147.5672,-70.2394"/>
</g>
<!-- Node24 -->
<g id="node24" class="node">
<title>Node24</title>
<g id="a_node24"><a xlink:href="kmp_8h.html#a8370089568397cfb3b14ca73f6a8ab5f" target="_top" xlink:title="kmp_get_type">
<polygon fill="#ffffff" stroke="#000000" points="191,-.5 191,-19.5 255,-19.5 255,-.5 191,-.5"/>
<text text-anchor="middle" x="223" y="-7.5" font-family="Helvetica,sans-Serif" font-size="10.00" fill="#000000">kmp_get_type</text>
</a>
</g>
</g>
<!-- Node14&#45;&gt;Node24 -->
<g id="edge28" class="edge">
<title>Node14&#45;&gt;Node24</title>
<path fill="none" stroke="#191970" d="M127.9363,-68.919C139.8373,-56.5432 157.2199,-40.1016 175,-29 180.8537,-25.345 187.5286,-22.1698 194.0011,-19.5165"/>
<polygon fill="#191970" stroke="#191970" points="125.2408,-66.6768 120.958,-76.3675 130.3492,-71.4627 125.2408,-66.6768"/>
</g>
<!-- Node16 -->
<g id="node16" class="node">
<title>Node16</title>
<g id="a_node16"><a xlink:href="kmp__request_8c.html#a3f6b790a06b933b78f40ade5e9a16131" target="_top" xlink:title="kmp_received_task">
<polygon fill="#ffffff" stroke="#000000" points="323.5,-114.5 323.5,-133.5 404.5,-133.5 404.5,-114.5 323.5,-114.5"/>
<text text-anchor="middle" x="364" y="-121.5" font-family="Helvetica,sans-Serif" font-size="10.00" fill="#000000">kmp_received_task</text>
</a>
</g>
</g>
<!-- Node15&#45;&gt;Node16 -->
<g id="edge18" class="edge">
<title>Node15&#45;&gt;Node16</title>
<path fill="none" stroke="#191970" d="M274.8008,-124C290.772,-124 308.1233,-124 323.2406,-124"/>
<polygon fill="#191970" stroke="#191970" points="274.5421,-120.5001 264.542,-124 274.542,-127.5001 274.5421,-120.5001"/>
</g>
<!-- Node17 -->
<g id="node17" class="node">
<title>Node17</title>
<g id="a_node17"><a xlink:href="kmp__request_8h.html#a048753ff9d6b448e2dcd8c85db0d6873" target="_top" xlink:title="kmp_request_init">
<polygon fill="#ffffff" stroke="#000000" points="472,-95.5 472,-114.5 546,-114.5 546,-95.5 472,-95.5"/>
<text text-anchor="middle" x="509" y="-102.5" font-family="Helvetica,sans-Serif" font-size="10.00" fill="#000000">kmp_request_init</text>
</a>
</g>
</g>
<!-- Node16&#45;&gt;Node17 -->
<g id="edge19" class="edge">
<title>Node16&#45;&gt;Node17</title>
<path fill="none" stroke="#191970" d="M414.7013,-117.3564C433.5613,-114.8851 454.5912,-112.1294 471.997,-109.8487"/>
<polygon fill="#191970" stroke="#191970" points="414.2369,-113.8872 404.7765,-118.6569 415.1465,-120.8279 414.2369,-113.8872"/>
</g>
<!-- Node19 -->
<g id="node19" class="node">
<title>Node19</title>
<g id="a_node19"><a xlink:href="kmp__request_8c.html#aeadc3768548ef2bed49c3f2fcaf57c20" target="_top" xlink:title="kmp_get_register_timer_func">
<polygon fill="#ffffff" stroke="#000000" points="307,-76.5 307,-95.5 421,-95.5 421,-76.5 307,-76.5"/>
<text text-anchor="middle" x="364" y="-83.5" font-family="Helvetica,sans-Serif" font-size="10.00" fill="#000000">kmp_get_register_timer_func</text>
</a>
</g>
</g>
<!-- Node18&#45;&gt;Node19 -->
<g id="edge21" class="edge">
<title>Node18&#45;&gt;Node19</title>
<path fill="none" stroke="#191970" d="M270.0799,-86C281.8282,-86 294.5553,-86 306.7357,-86"/>
<polygon fill="#191970" stroke="#191970" points="270.0461,-82.5001 260.0461,-86 270.0461,-89.5001 270.0461,-82.5001"/>
</g>
<!-- Node20 -->
<g id="node20" class="node">
<title>Node20</title>
<g id="a_node20"><a xlink:href="kmp__request_8h.html#a3b022dcdc832786eb06126b5e6879604" target="_top" xlink:title="kmp_request_send">
<polygon fill="#ffffff" stroke="#000000" points="469,-48.5 469,-67.5 549,-67.5 549,-48.5 469,-48.5"/>
<text text-anchor="middle" x="509" y="-55.5" font-family="Helvetica,sans-Serif" font-size="10.00" fill="#000000">kmp_request_send</text>
</a>
</g>
</g>
<!-- Node19&#45;&gt;Node20 -->
<g id="edge22" class="edge">
<title>Node19&#45;&gt;Node20</title>
<path fill="none" stroke="#191970" d="M423.4005,-74.5296C438.6955,-71.576 454.7951,-68.4671 468.8531,-65.7525"/>
<polygon fill="#191970" stroke="#191970" points="422.6502,-71.1097 413.4952,-76.4423 423.9775,-77.9827 422.6502,-71.1097"/>
</g>
<!-- Node21 -->
<g id="node21" class="node">
<title>Node21</title>
<g id="a_node21"><a xlink:href="kmp__request_8c.html#a0977a4640a97d389ac3b0fef0ba7a9b6" target="_top" xlink:title="kmp_receive_timeout\l_timer_func">
<polygon fill="#ffffff" stroke="#000000" points="597,-43 597,-73 685,-73 685,-43 597,-43"/>
<text text-anchor="start" x="605" y="-61" font-family="Helvetica,sans-Serif" font-size="10.00" fill="#000000">kmp_receive_timeout</text>
<text text-anchor="middle" x="641" y="-50" font-family="Helvetica,sans-Serif" font-size="10.00" fill="#000000">_timer_func</text>
</a>
</g>
</g>
<!-- Node20&#45;&gt;Node21 -->
<g id="edge23" class="edge">
<title>Node20&#45;&gt;Node21</title>
<path fill="none" stroke="#191970" d="M559.4341,-51.4197C571.7353,-51.1469 584.8015,-51.203 596.7878,-51.5881"/>
<polygon fill="#191970" stroke="#191970" points="559.2109,-47.9248 549.3216,-51.7263 559.4231,-54.9216 559.2109,-47.9248"/>
</g>
<!-- Node21&#45;&gt;Node20 -->
<g id="edge24" class="edge">
<title>Node21&#45;&gt;Node20</title>
<path fill="none" stroke="#191970" d="M586.5058,-64.658C574.0594,-64.8589 561.0497,-64.7308 549.3216,-64.2737"/>
<polygon fill="#191970" stroke="#191970" points="586.8744,-68.1503 596.7878,-64.4119 586.7069,-61.1523 586.8744,-68.1503"/>
</g>
<!-- Node23 -->
<g id="node23" class="node">
<title>Node23</title>
<g id="a_node23"><a xlink:href="kmp__request_8c.html#a7e59cff48c3c08aed48914a3a843d4b8" target="_top" xlink:title="kmp_get_serial_timer_func">
<polygon fill="#ffffff" stroke="#000000" points="310.5,-38.5 310.5,-57.5 417.5,-57.5 417.5,-38.5 310.5,-38.5"/>
<text text-anchor="middle" x="364" y="-45.5" font-family="Helvetica,sans-Serif" font-size="10.00" fill="#000000">kmp_get_serial_timer_func</text>
</a>
</g>
</g>
<!-- Node22&#45;&gt;Node23 -->
<g id="edge26" class="edge">
<title>Node22&#45;&gt;Node23</title>
<path fill="none" stroke="#191970" d="M266.9469,-48C280.7101,-48 296.0545,-48 310.4057,-48"/>
<polygon fill="#191970" stroke="#191970" points="266.773,-44.5001 256.773,-48 266.773,-51.5001 266.773,-44.5001"/>
</g>
<!-- Node23&#45;&gt;Node20 -->
<g id="edge27" class="edge">
<title>Node23&#45;&gt;Node20</title>
<path fill="none" stroke="#191970" d="M427.6467,-52.3894C441.6203,-53.3531 456.0394,-54.3475 468.7854,-55.2266"/>
<polygon fill="#191970" stroke="#191970" points="427.7978,-48.8916 417.5807,-51.6952 427.3161,-55.875 427.7978,-48.8916"/>
</g>
</g>
</svg>
