<?xml version="1.0" encoding="UTF-8" standalone="no"?>
<!DOCTYPE svg PUBLIC "-//W3C//DTD SVG 1.1//EN"
 "http://www.w3.org/Graphics/SVG/1.1/DTD/svg11.dtd">
<!-- Generated by graphviz version 2.40.1 (20161225.0304)
 -->
<!-- Title: reset_watchdog Pages: 1 -->
<svg width="315pt" height="28pt"
 viewBox="0.00 0.00 315.00 28.00" xmlns="http://www.w3.org/2000/svg" xmlns:xlink="http://www.w3.org/1999/xlink">
<g id="graph0" class="graph" transform="scale(1 1) rotate(0) translate(4 24)">
<title>reset_watchdog</title>
<polygon fill="#ffffff" stroke="transparent" points="-4,4 -4,-24 311,-24 311,4 -4,4"/>
<!-- Node8 -->
<g id="node1" class="node">
<title>Node8</title>
<polygon fill="#bfbfbf" stroke="#000000" points="0,-.5 0,-19.5 69,-19.5 69,-.5 0,-.5"/>
<text text-anchor="middle" x="34.5" y="-7.5" font-family="Helvetica,sans-Serif" font-size="10.00" fill="#000000">reset_watchdog</text>
</g>
<!-- Node9 -->
<g id="node2" class="node">
<title>Node9</title>
<g id="a_node2"><a xlink:href="unix__time_8c.html#af98c0bacc67f2d0702b0ac4f130faa16" target="_top" xlink:title="get_uptime">
<polygon fill="#ffffff" stroke="#000000" points="105,-.5 105,-19.5 159,-19.5 159,-.5 105,-.5"/>
<text text-anchor="middle" x="132" y="-7.5" font-family="Helvetica,sans-Serif" font-size="10.00" fill="#000000">get_uptime</text>
</a>
</g>
</g>
<!-- Node8&#45;&gt;Node9 -->
<g id="edge1" class="edge">
<title>Node8&#45;&gt;Node9</title>
<path fill="none" stroke="#191970" d="M69.1494,-10C77.3853,-10 86.2087,-10 94.5629,-10"/>
<polygon fill="#191970" stroke="#191970" points="94.8145,-13.5001 104.8145,-10 94.8145,-6.5001 94.8145,-13.5001"/>
</g>
<!-- Node10 -->
<g id="node3" class="node">
<title>Node10</title>
<g id="a_node3"><a xlink:href="esp-open-lwip_2include_2lwip_2sntp_8h.html#a557f2d3fcbc53da30e4f1b51ea5842e7" target="_top" xlink:title="sntp_get_current_timestamp">
<polygon fill="#ffffff" stroke="#000000" points="195,-.5 195,-19.5 307,-19.5 307,-.5 195,-.5"/>
<text text-anchor="middle" x="251" y="-7.5" font-family="Helvetica,sans-Serif" font-size="10.00" fill="#000000">sntp_get_current_timestamp</text>
</a>
</g>
</g>
<!-- Node9&#45;&gt;Node10 -->
<g id="edge2" class="edge">
<title>Node9&#45;&gt;Node10</title>
<path fill="none" stroke="#191970" d="M159.0029,-10C166.7754,-10 175.6151,-10 184.6686,-10"/>
<polygon fill="#191970" stroke="#191970" points="184.9356,-13.5001 194.9356,-10 184.9356,-6.5001 184.9356,-13.5001"/>
</g>
</g>
</svg>
