<?xml version="1.0" encoding="UTF-8" standalone="no"?>
<!DOCTYPE svg PUBLIC "-//W3C//DTD SVG 1.1//EN"
 "http://www.w3.org/Graphics/SVG/1.1/DTD/svg11.dtd">
<!-- Generated by graphviz version 2.40.1 (20161225.0304)
 -->
<!-- Title: my_output_ap Pages: 1 -->
<svg width="291pt" height="28pt"
 viewBox="0.00 0.00 291.00 28.00" xmlns="http://www.w3.org/2000/svg" xmlns:xlink="http://www.w3.org/1999/xlink">
<g id="graph0" class="graph" transform="scale(1 1) rotate(0) translate(4 24)">
<title>my_output_ap</title>
<polygon fill="#ffffff" stroke="transparent" points="-4,4 -4,-24 287,-24 287,4 -4,4"/>
<!-- Node87 -->
<g id="node1" class="node">
<title>Node87</title>
<polygon fill="#bfbfbf" stroke="#000000" points="0,-.5 0,-19.5 64,-19.5 64,-.5 0,-.5"/>
<text text-anchor="middle" x="32" y="-7.5" font-family="Helvetica,sans-Serif" font-size="10.00" fill="#000000">my_output_ap</text>
</g>
<!-- Node88 -->
<g id="node2" class="node">
<title>Node88</title>
<g id="a_node2"><a xlink:href="wifi_8c.html#aa87c06c3cbab2aa762551fcec59dc8f0" target="_top" xlink:title="wifi_handle_event_cb">
<polygon fill="#ffffff" stroke="#000000" points="100,-.5 100,-19.5 189,-19.5 189,-.5 100,-.5"/>
<text text-anchor="middle" x="144.5" y="-7.5" font-family="Helvetica,sans-Serif" font-size="10.00" fill="#000000">wifi_handle_event_cb</text>
</a>
</g>
</g>
<!-- Node87&#45;&gt;Node88 -->
<g id="edge1" class="edge">
<title>Node87&#45;&gt;Node88</title>
<path fill="none" stroke="#191970" d="M74.4119,-10C82.669,-10 91.3503,-10 99.6822,-10"/>
<polygon fill="#191970" stroke="#191970" points="74.238,-6.5001 64.238,-10 74.238,-13.5001 74.238,-6.5001"/>
</g>
<!-- Node89 -->
<g id="node3" class="node">
<title>Node89</title>
<g id="a_node3"><a xlink:href="wifi_8c.html#a9c38abb0900e0c7308be77d85dbf09e0" target="_top" xlink:title="wifi_connect">
<polygon fill="#ffffff" stroke="#000000" points="225,-.5 225,-19.5 283,-19.5 283,-.5 225,-.5"/>
<text text-anchor="middle" x="254" y="-7.5" font-family="Helvetica,sans-Serif" font-size="10.00" fill="#000000">wifi_connect</text>
</a>
</g>
</g>
<!-- Node88&#45;&gt;Node89 -->
<g id="edge2" class="edge">
<title>Node88&#45;&gt;Node89</title>
<path fill="none" stroke="#191970" d="M199.0501,-10C207.9655,-10 216.8878,-10 224.8717,-10"/>
<polygon fill="#191970" stroke="#191970" points="199.0379,-6.5001 189.0378,-10 199.0378,-13.5001 199.0379,-6.5001"/>
</g>
</g>
</svg>
