<?xml version="1.0" encoding="UTF-8" standalone="no"?>
<!DOCTYPE svg PUBLIC "-//W3C//DTD SVG 1.1//EN"
 "http://www.w3.org/Graphics/SVG/1.1/DTD/svg11.dtd">
<!-- Generated by graphviz version 2.40.1 (20161225.0304)
 -->
<!-- Title: wifi_start_scan Pages: 1 -->
<svg width="775pt" height="194pt"
 viewBox="0.00 0.00 775.00 193.68" xmlns="http://www.w3.org/2000/svg" xmlns:xlink="http://www.w3.org/1999/xlink">
<g id="graph0" class="graph" transform="scale(1 1) rotate(0) translate(4 189.6849)">
<title>wifi_start_scan</title>
<polygon fill="#ffffff" stroke="transparent" points="-4,4 -4,-189.6849 771,-189.6849 771,4 -4,4"/>
<!-- Node543 -->
<g id="node1" class="node">
<title>Node543</title>
<polygon fill="#bfbfbf" stroke="#000000" points="0,-70.5 0,-89.5 66,-89.5 66,-70.5 0,-70.5"/>
<text text-anchor="middle" x="33" y="-77.5" font-family="Helvetica,sans-Serif" font-size="10.00" fill="#000000">wifi_start_scan</text>
</g>
<!-- Node544 -->
<g id="node2" class="node">
<title>Node544</title>
<g id="a_node2"><a xlink:href="wifi_8c.html#a9c38abb0900e0c7308be77d85dbf09e0" target="_top" xlink:title="wifi_connect">
<polygon fill="#ffffff" stroke="#000000" points="709,-130.5 709,-149.5 767,-149.5 767,-130.5 709,-130.5"/>
<text text-anchor="middle" x="738" y="-137.5" font-family="Helvetica,sans-Serif" font-size="10.00" fill="#000000">wifi_connect</text>
</a>
</g>
</g>
<!-- Node543&#45;&gt;Node544 -->
<g id="edge1" class="edge">
<title>Node543&#45;&gt;Node544</title>
<path fill="none" stroke="#191970" d="M42.8715,-98.3439C54.3165,-117.5901 75.1033,-146.957 102,-161 179.1895,-201.3014 209.9229,-180 297,-180 297,-180 297,-180 518.5,-180 587.6424,-180 667.0799,-160.5528 708.8401,-148.7782"/>
<polygon fill="#191970" stroke="#191970" points="45.8723,-96.5405 37.8861,-89.5783 39.7876,-100.0011 45.8723,-96.5405"/>
</g>
<!-- Node545 -->
<g id="node3" class="node">
<title>Node545</title>
<g id="a_node3"><a xlink:href="watchdog_8c.html#a47b6861ffbed37fef88aa644f10ba917" target="_top" xlink:title="wifi_reconnect_timer_func">
<polygon fill="#ffffff" stroke="#000000" points="107.5,-132.5 107.5,-151.5 211.5,-151.5 211.5,-132.5 107.5,-132.5"/>
<text text-anchor="middle" x="159.5" y="-139.5" font-family="Helvetica,sans-Serif" font-size="10.00" fill="#000000">wifi_reconnect_timer_func</text>
</a>
</g>
</g>
<!-- Node543&#45;&gt;Node545 -->
<g id="edge2" class="edge">
<title>Node543&#45;&gt;Node545</title>
<path fill="none" stroke="#191970" d="M54.6162,-95.3376C67.8508,-104.247 85.3845,-115.2139 102,-123 109.6161,-126.5689 118.0873,-129.7627 126.1355,-132.4674"/>
<polygon fill="#191970" stroke="#191970" points="56.4298,-92.3373 46.2047,-89.5627 52.4678,-98.1081 56.4298,-92.3373"/>
</g>
<!-- Node548 -->
<g id="node6" class="node">
<title>Node548</title>
<g id="a_node6"><a xlink:href="wifi_8c.html#a1ef15ecd9e69811f6db10215c7196281" target="_top" xlink:title="wifi_scan_done_cb">
<polygon fill="#ffffff" stroke="#000000" points="119.5,-94.5 119.5,-113.5 199.5,-113.5 199.5,-94.5 119.5,-94.5"/>
<text text-anchor="middle" x="159.5" y="-101.5" font-family="Helvetica,sans-Serif" font-size="10.00" fill="#000000">wifi_scan_done_cb</text>
</a>
</g>
</g>
<!-- Node543&#45;&gt;Node548 -->
<g id="edge5" class="edge">
<title>Node543&#45;&gt;Node548</title>
<path fill="none" stroke="#191970" d="M76.1073,-88.1785C90.0805,-90.8295 105.5183,-93.7584 119.2736,-96.3681"/>
<polygon fill="#191970" stroke="#191970" points="76.7136,-84.7311 66.2364,-86.3057 75.4087,-91.6084 76.7136,-84.7311"/>
</g>
<!-- Node549 -->
<g id="node7" class="node">
<title>Node549</title>
<g id="a_node7"><a xlink:href="wifi_8c.html#ae7011f25db54676b86fefe2caa450a4a" target="_top" xlink:title="wifi_scan_timer_func">
<polygon fill="#ffffff" stroke="#000000" points="253.5,-47.5 253.5,-66.5 340.5,-66.5 340.5,-47.5 253.5,-47.5"/>
<text text-anchor="middle" x="297" y="-54.5" font-family="Helvetica,sans-Serif" font-size="10.00" fill="#000000">wifi_scan_timer_func</text>
</a>
</g>
</g>
<!-- Node543&#45;&gt;Node549 -->
<g id="edge15" class="edge">
<title>Node543&#45;&gt;Node549</title>
<path fill="none" stroke="#191970" d="M76.1077,-71.0992C124.9443,-64.7145 204.1063,-57.8081 253.2195,-55.6399"/>
<polygon fill="#191970" stroke="#191970" points="75.6051,-67.6352 66.1685,-72.4518 76.5491,-74.5713 75.6051,-67.6352"/>
</g>
<!-- Node553 -->
<g id="node11" class="node">
<title>Node553</title>
<g id="a_node11"><a xlink:href="wifi_8c.html#a189ec83a0503a6fc45b102014a80403b" target="_top" xlink:title="wifi_scan_timeout_timer_func">
<polygon fill="#ffffff" stroke="#000000" points="102,-.5 102,-19.5 217,-19.5 217,-.5 102,-.5"/>
<text text-anchor="middle" x="159.5" y="-7.5" font-family="Helvetica,sans-Serif" font-size="10.00" fill="#000000">wifi_scan_timeout_timer_func</text>
</a>
</g>
</g>
<!-- Node543&#45;&gt;Node553 -->
<g id="edge12" class="edge">
<title>Node543&#45;&gt;Node553</title>
<path fill="none" stroke="#191970" d="M54.2055,-64.3123C67.527,-54.8542 85.2948,-42.947 102,-34 112.0126,-28.6375 123.4848,-23.6364 133.535,-19.6024"/>
<polygon fill="#191970" stroke="#191970" points="51.8244,-61.7143 45.761,-70.4025 55.9191,-67.3918 51.8244,-61.7143"/>
</g>
<!-- Node546 -->
<g id="node4" class="node">
<title>Node546</title>
<g id="a_node4"><a xlink:href="watchdog_8c.html#aeb03c505b5b589ae4d89b2ae11dd1711" target="_top" xlink:title="watchdog_timer_func">
<polygon fill="#ffffff" stroke="#000000" points="253,-132.5 253,-151.5 341,-151.5 341,-132.5 253,-132.5"/>
<text text-anchor="middle" x="297" y="-139.5" font-family="Helvetica,sans-Serif" font-size="10.00" fill="#000000">watchdog_timer_func</text>
</a>
</g>
</g>
<!-- Node545&#45;&gt;Node546 -->
<g id="edge3" class="edge">
<title>Node545&#45;&gt;Node546</title>
<path fill="none" stroke="#191970" d="M222.1396,-142C232.5015,-142 243.05,-142 252.8335,-142"/>
<polygon fill="#191970" stroke="#191970" points="221.8751,-138.5001 211.8751,-142 221.8751,-145.5001 221.8751,-138.5001"/>
</g>
<!-- Node547 -->
<g id="node5" class="node">
<title>Node547</title>
<g id="a_node5"><a xlink:href="watchdog_8h.html#ab148f2150b52df5b60e312dded3a2934" target="_top" xlink:title="start_watchdog">
<polygon fill="#ffffff" stroke="#000000" points="381.5,-132.5 381.5,-151.5 448.5,-151.5 448.5,-132.5 381.5,-132.5"/>
<text text-anchor="middle" x="415" y="-139.5" font-family="Helvetica,sans-Serif" font-size="10.00" fill="#000000">start_watchdog</text>
</a>
</g>
</g>
<!-- Node546&#45;&gt;Node547 -->
<g id="edge4" class="edge">
<title>Node546&#45;&gt;Node547</title>
<path fill="none" stroke="#191970" d="M351.3343,-142C361.5011,-142 371.8539,-142 381.1748,-142"/>
<polygon fill="#191970" stroke="#191970" points="351.2746,-138.5001 341.2746,-142 351.2745,-145.5001 351.2746,-138.5001"/>
</g>
<!-- Node548&#45;&gt;Node549 -->
<g id="edge6" class="edge">
<title>Node548&#45;&gt;Node549</title>
<path fill="none" stroke="#191970" d="M196.955,-91.1972C219.596,-83.4581 247.9938,-73.7512 268.7443,-66.6583"/>
<polygon fill="#191970" stroke="#191970" points="195.6556,-87.9425 187.3252,-94.4888 197.9197,-94.5662 195.6556,-87.9425"/>
</g>
<!-- Node549&#45;&gt;Node543 -->
<g id="edge11" class="edge">
<title>Node549&#45;&gt;Node543</title>
<path fill="none" stroke="#191970" d="M242.9699,-67.2769C189.8828,-73.7362 110.5706,-80.3422 66.1685,-81.7688"/>
<polygon fill="#191970" stroke="#191970" points="243.7341,-70.7085 253.2195,-65.9886 242.861,-63.7631 243.7341,-70.7085"/>
</g>
<!-- Node550 -->
<g id="node8" class="node">
<title>Node550</title>
<g id="a_node8"><a xlink:href="wifi_8c.html#a0d197abbbedf42c0522e20b43884c920" target="_top" xlink:title="acl_check_packet">
<polygon fill="#ffffff" stroke="#000000" points="377,-47.5 377,-66.5 453,-66.5 453,-47.5 377,-47.5"/>
<text text-anchor="middle" x="415" y="-54.5" font-family="Helvetica,sans-Serif" font-size="10.00" fill="#000000">acl_check_packet</text>
</a>
</g>
</g>
<!-- Node549&#45;&gt;Node550 -->
<g id="edge7" class="edge">
<title>Node549&#45;&gt;Node550</title>
<path fill="none" stroke="#191970" d="M350.7384,-57C359.4719,-57 368.3603,-57 376.6302,-57"/>
<polygon fill="#191970" stroke="#191970" points="350.6036,-53.5001 340.6036,-57 350.6036,-60.5001 350.6036,-53.5001"/>
</g>
<!-- Node551 -->
<g id="node9" class="node">
<title>Node551</title>
<g id="a_node9"><a xlink:href="wifi_8c.html#a3cea38a15b267ddabc1e6d5cf72b5ae8" target="_top" xlink:title="my_input_ap">
<polygon fill="#ffffff" stroke="#000000" points="489,-69.5 489,-88.5 548,-88.5 548,-69.5 489,-69.5"/>
<text text-anchor="middle" x="518.5" y="-76.5" font-family="Helvetica,sans-Serif" font-size="10.00" fill="#000000">my_input_ap</text>
</a>
</g>
</g>
<!-- Node550&#45;&gt;Node551 -->
<g id="edge8" class="edge">
<title>Node550&#45;&gt;Node551</title>
<path fill="none" stroke="#191970" d="M463.0514,-67.2138C471.8387,-69.0816 480.7688,-70.9798 488.8216,-72.6915"/>
<polygon fill="#191970" stroke="#191970" points="463.7547,-63.7852 453.2455,-65.1295 462.2993,-70.6322 463.7547,-63.7852"/>
</g>
<!-- Node552 -->
<g id="node10" class="node">
<title>Node552</title>
<g id="a_node10"><a xlink:href="wifi_8c.html#aa87c06c3cbab2aa762551fcec59dc8f0" target="_top" xlink:title="wifi_handle_event_cb">
<polygon fill="#ffffff" stroke="#000000" points="584,-111.5 584,-130.5 673,-130.5 673,-111.5 584,-111.5"/>
<text text-anchor="middle" x="628.5" y="-118.5" font-family="Helvetica,sans-Serif" font-size="10.00" fill="#000000">wifi_handle_event_cb</text>
</a>
</g>
</g>
<!-- Node551&#45;&gt;Node552 -->
<g id="edge9" class="edge">
<title>Node551&#45;&gt;Node552</title>
<path fill="none" stroke="#191970" d="M553.1572,-92.2328C569.4014,-98.4351 588.4014,-105.6896 603.2573,-111.3619"/>
<polygon fill="#191970" stroke="#191970" points="554.0514,-88.8278 543.4607,-88.5305 551.5544,-95.3673 554.0514,-88.8278"/>
</g>
<!-- Node552&#45;&gt;Node544 -->
<g id="edge10" class="edge">
<title>Node552&#45;&gt;Node544</title>
<path fill="none" stroke="#191970" d="M683.0501,-130.4653C691.9655,-132.0123 700.8878,-133.5604 708.8717,-134.9458"/>
<polygon fill="#191970" stroke="#191970" points="683.489,-126.9893 673.0378,-128.728 682.2922,-133.8862 683.489,-126.9893"/>
</g>
<!-- Node553&#45;&gt;Node549 -->
<g id="edge14" class="edge">
<title>Node553&#45;&gt;Node549</title>
<path fill="none" stroke="#191970" d="M196.955,-22.8028C219.596,-30.5419 247.9938,-40.2488 268.7443,-47.3417"/>
<polygon fill="#191970" stroke="#191970" points="197.9197,-19.4338 187.3252,-19.5112 195.6556,-26.0575 197.9197,-19.4338"/>
</g>
<!-- Node553&#45;&gt;Node550 -->
<g id="edge13" class="edge">
<title>Node553&#45;&gt;Node550</title>
<path fill="none" stroke="#191970" d="M227.7238,-18.9067C261.8793,-23.7757 303.7783,-30.3697 341,-38 354.1237,-40.6903 368.4104,-44.2152 380.8997,-47.4975"/>
<polygon fill="#191970" stroke="#191970" points="227.7764,-15.3797 217.3861,-17.4518 226.8007,-22.3114 227.7764,-15.3797"/>
</g>
</g>
</svg>
