<?xml version="1.0" encoding="UTF-8" standalone="no"?>
<!DOCTYPE svg PUBLIC "-//W3C//DTD SVG 1.1//EN"
 "http://www.w3.org/Graphics/SVG/1.1/DTD/svg11.dtd">
<!-- Generated by graphviz version 2.40.1 (20161225.0304)
 -->
<!-- Title: wifi_scan_timer_func Pages: 1 -->
<svg width="889pt" height="408pt"
 viewBox="0.00 0.00 889.00 408.00" xmlns="http://www.w3.org/2000/svg" xmlns:xlink="http://www.w3.org/1999/xlink">
<g id="graph0" class="graph" transform="scale(1 1) rotate(0) translate(4 404)">
<title>wifi_scan_timer_func</title>
<polygon fill="#ffffff" stroke="transparent" points="-4,4 -4,-404 885,-404 885,4 -4,4"/>
<!-- Node429 -->
<g id="node1" class="node">
<title>Node429</title>
<polygon fill="#bfbfbf" stroke="#000000" points="0,-70.5 0,-89.5 87,-89.5 87,-70.5 0,-70.5"/>
<text text-anchor="middle" x="43.5" y="-77.5" font-family="Helvetica,sans-Serif" font-size="10.00" fill="#000000">wifi_scan_timer_func</text>
</g>
<!-- Node430 -->
<g id="node2" class="node">
<title>Node430</title>
<g id="a_node2"><a xlink:href="wifi_8c.html#a79205b29f65bdd821ad9452bdbf0b747" target="_top" xlink:title="wifi_get_rssi">
<polygon fill="#ffffff" stroke="#000000" points="151.5,-170.5 151.5,-189.5 209.5,-189.5 209.5,-170.5 151.5,-170.5"/>
<text text-anchor="middle" x="180.5" y="-177.5" font-family="Helvetica,sans-Serif" font-size="10.00" fill="#000000">wifi_get_rssi</text>
</a>
</g>
</g>
<!-- Node429&#45;&gt;Node430 -->
<g id="edge1" class="edge">
<title>Node429&#45;&gt;Node430</title>
<path fill="none" stroke="#191970" d="M50.49,-89.6954C63.1205,-106.5462 91.3872,-141.3148 123,-161 128.6225,-164.5011 134.9601,-167.4297 141.3201,-169.8556"/>
<polygon fill="#191970" stroke="#191970" points="140.6389,-173.3224 151.2336,-173.2638 142.9148,-166.7027 140.6389,-173.3224"/>
</g>
<!-- Node431 -->
<g id="node3" class="node">
<title>Node431</title>
<g id="a_node3"><a xlink:href="wifi_8c.html#a1ef15ecd9e69811f6db10215c7196281" target="_top" xlink:title="wifi_scan_done_cb">
<polygon fill="#ffffff" stroke="#000000" points="140.5,-132.5 140.5,-151.5 220.5,-151.5 220.5,-132.5 140.5,-132.5"/>
<text text-anchor="middle" x="180.5" y="-139.5" font-family="Helvetica,sans-Serif" font-size="10.00" fill="#000000">wifi_scan_done_cb</text>
</a>
</g>
</g>
<!-- Node429&#45;&gt;Node431 -->
<g id="edge2" class="edge">
<title>Node429&#45;&gt;Node431</title>
<path fill="none" stroke="#191970" d="M59.2257,-89.5835C74.9731,-98.9196 100.0931,-113.1126 123,-123 128.0073,-125.1613 133.3464,-127.2269 138.6771,-129.1468"/>
<polygon fill="#191970" stroke="#191970" points="137.5951,-132.476 148.1899,-132.4344 139.8817,-125.8599 137.5951,-132.476"/>
</g>
<!-- Node461 -->
<g id="node33" class="node">
<title>Node461</title>
<g id="a_node33"><a xlink:href="wifi_8c.html#a5831b420da0012d53c979c375714d382" target="_top" xlink:title="wifi_start_scan">
<polygon fill="#ffffff" stroke="#000000" points="290.5,-47.5 290.5,-66.5 356.5,-66.5 356.5,-47.5 290.5,-47.5"/>
<text text-anchor="middle" x="323.5" y="-54.5" font-family="Helvetica,sans-Serif" font-size="10.00" fill="#000000">wifi_start_scan</text>
</a>
</g>
</g>
<!-- Node429&#45;&gt;Node461 -->
<g id="edge48" class="edge">
<title>Node429&#45;&gt;Node461</title>
<path fill="none" stroke="#191970" d="M87.25,-71.3438C139.8814,-64.7648 227.6881,-57.5578 280.1435,-55.5159"/>
<polygon fill="#191970" stroke="#191970" points="280.2662,-59.0138 290.1423,-55.1781 280.0298,-52.0178 280.2662,-59.0138"/>
</g>
<!-- Node463 -->
<g id="node35" class="node">
<title>Node463</title>
<g id="a_node35"><a xlink:href="wifi_8c.html#a189ec83a0503a6fc45b102014a80403b" target="_top" xlink:title="wifi_scan_timeout_timer_func">
<polygon fill="#ffffff" stroke="#000000" points="123,-94.5 123,-113.5 238,-113.5 238,-94.5 123,-94.5"/>
<text text-anchor="middle" x="180.5" y="-101.5" font-family="Helvetica,sans-Serif" font-size="10.00" fill="#000000">wifi_scan_timeout_timer_func</text>
</a>
</g>
</g>
<!-- Node429&#45;&gt;Node463 -->
<g id="edge46" class="edge">
<title>Node429&#45;&gt;Node463</title>
<path fill="none" stroke="#191970" d="M87.2243,-87.6597C96.4072,-89.2684 106.2767,-90.9974 116.0365,-92.7071"/>
<polygon fill="#191970" stroke="#191970" points="115.6802,-96.1979 126.1341,-94.4761 116.8881,-89.3029 115.6802,-96.1979"/>
</g>
<!-- Node464 -->
<g id="node36" class="node">
<title>Node464</title>
<g id="a_node36"><a xlink:href="user__interface_8h.html#ac80b0607b1cb20c161c681581c998626" target="_top" xlink:title="wifi_station_scan">
<polygon fill="#ffffff" stroke="#000000" points="143.5,-.5 143.5,-19.5 217.5,-19.5 217.5,-.5 143.5,-.5"/>
<text text-anchor="middle" x="180.5" y="-7.5" font-family="Helvetica,sans-Serif" font-size="10.00" fill="#000000">wifi_station_scan</text>
</a>
</g>
</g>
<!-- Node429&#45;&gt;Node464 -->
<g id="edge49" class="edge">
<title>Node429&#45;&gt;Node464</title>
<path fill="none" stroke="#191970" d="M58.7145,-70.4059C74.4821,-60.6528 99.9953,-45.397 123,-34 130.3606,-30.3534 138.4139,-26.7584 146.1012,-23.5053"/>
<polygon fill="#191970" stroke="#191970" points="147.6616,-26.6475 155.5631,-19.5894 144.9847,-20.1795 147.6616,-26.6475"/>
</g>
<!-- Node432 -->
<g id="node4" class="node">
<title>Node432</title>
<g id="a_node4"><a xlink:href="led_8c.html#aa00afefe8ba48ccd7df635fbc7d4c9fc" target="_top" xlink:title="led_pattern_a">
<polygon fill="#ffffff" stroke="#000000" points="292.5,-123.5 292.5,-142.5 354.5,-142.5 354.5,-123.5 292.5,-123.5"/>
<text text-anchor="middle" x="323.5" y="-130.5" font-family="Helvetica,sans-Serif" font-size="10.00" fill="#000000">led_pattern_a</text>
</a>
</g>
</g>
<!-- Node431&#45;&gt;Node432 -->
<g id="edge3" class="edge">
<title>Node431&#45;&gt;Node432</title>
<path fill="none" stroke="#191970" d="M220.714,-139.469C239.9006,-138.2615 262.8312,-136.8183 282.1609,-135.6018"/>
<polygon fill="#191970" stroke="#191970" points="282.4309,-139.0918 292.1912,-134.9705 281.9911,-132.1056 282.4309,-139.0918"/>
</g>
<!-- Node437 -->
<g id="node9" class="node">
<title>Node437</title>
<g id="a_node9"><a xlink:href="led_8c.html#a7cd1d03b4baad9cb20bf1a43046f61a2" target="_top" xlink:title="led_stop_pattern">
<polygon fill="#ffffff" stroke="#000000" points="287.5,-85.5 287.5,-104.5 359.5,-104.5 359.5,-85.5 287.5,-85.5"/>
<text text-anchor="middle" x="323.5" y="-92.5" font-family="Helvetica,sans-Serif" font-size="10.00" fill="#000000">led_stop_pattern</text>
</a>
</g>
</g>
<!-- Node431&#45;&gt;Node437 -->
<g id="edge9" class="edge">
<title>Node431&#45;&gt;Node437</title>
<path fill="none" stroke="#191970" d="M209.4382,-132.4888C231.004,-125.4008 260.692,-115.6432 284.3737,-107.8597"/>
<polygon fill="#191970" stroke="#191970" points="285.7069,-111.1058 294.114,-104.6583 283.5211,-104.4558 285.7069,-111.1058"/>
</g>
<!-- Node438 -->
<g id="node10" class="node">
<title>Node438</title>
<g id="a_node10"><a xlink:href="wifi_8c.html#a0be23fd8148c6a3abf21c739359bed52" target="_top" xlink:title="wifi_default">
<polygon fill="#ffffff" stroke="#000000" points="296.5,-298.5 296.5,-317.5 350.5,-317.5 350.5,-298.5 296.5,-298.5"/>
<text text-anchor="middle" x="323.5" y="-305.5" font-family="Helvetica,sans-Serif" font-size="10.00" fill="#000000">wifi_default</text>
</a>
</g>
</g>
<!-- Node431&#45;&gt;Node438 -->
<g id="edge11" class="edge">
<title>Node431&#45;&gt;Node438</title>
<path fill="none" stroke="#191970" d="M220.5812,-149.5741C227.0606,-152.292 233.205,-155.9844 238,-161 278.8371,-203.7162 234.1857,-245.3289 274,-289 277.5902,-292.938 282.0879,-296.0665 286.8992,-298.5503"/>
<polygon fill="#191970" stroke="#191970" points="285.8089,-301.8898 296.3815,-302.5755 288.5442,-295.4463 285.8089,-301.8898"/>
</g>
<!-- Node459 -->
<g id="node31" class="node">
<title>Node459</title>
<g id="a_node31"><a xlink:href="wifi_8c.html#ac4389ba687a71cbb616f05b02427eb2a" target="_top" xlink:title="wifi_fallback">
<polygon fill="#ffffff" stroke="#000000" points="295,-161.5 295,-180.5 352,-180.5 352,-161.5 295,-161.5"/>
<text text-anchor="middle" x="323.5" y="-168.5" font-family="Helvetica,sans-Serif" font-size="10.00" fill="#000000">wifi_fallback</text>
</a>
</g>
</g>
<!-- Node431&#45;&gt;Node459 -->
<g id="edge35" class="edge">
<title>Node431&#45;&gt;Node459</title>
<path fill="none" stroke="#191970" d="M220.714,-150.1553C240.8332,-154.2354 265.0692,-159.1504 284.9531,-163.1828"/>
<polygon fill="#191970" stroke="#191970" points="284.4134,-166.6445 294.9095,-165.2019 285.8047,-159.7842 284.4134,-166.6445"/>
</g>
<!-- Node460 -->
<g id="node32" class="node">
<title>Node460</title>
<g id="a_node32"><a xlink:href="wifi_8c.html#a5ca49e6386831cffe58dbcc5d8845cc5" target="_top" xlink:title="wifi_scan_result_cb\l_unregister">
<polygon fill="#ffffff" stroke="#000000" points="282.5,-249 282.5,-279 364.5,-279 364.5,-249 282.5,-249"/>
<text text-anchor="start" x="290.5" y="-267" font-family="Helvetica,sans-Serif" font-size="10.00" fill="#000000">wifi_scan_result_cb</text>
<text text-anchor="middle" x="323.5" y="-256" font-family="Helvetica,sans-Serif" font-size="10.00" fill="#000000">_unregister</text>
</a>
</g>
</g>
<!-- Node431&#45;&gt;Node460 -->
<g id="edge42" class="edge">
<title>Node431&#45;&gt;Node460</title>
<path fill="none" stroke="#191970" d="M220.5634,-150.4493C226.8932,-153.073 232.9913,-156.507 238,-161 266.7221,-186.7649 247.044,-212.3927 274,-240 274.9007,-240.9225 275.8441,-241.8145 276.8232,-242.6765"/>
<polygon fill="#191970" stroke="#191970" points="274.8029,-245.536 284.9109,-248.7109 278.989,-239.9255 274.8029,-245.536"/>
</g>
<!-- Node431&#45;&gt;Node461 -->
<g id="edge43" class="edge">
<title>Node431&#45;&gt;Node461</title>
<path fill="none" stroke="#191970" d="M220.063,-132.4308C226.3787,-129.9384 232.6022,-126.8385 238,-123 259.4434,-107.7512 252.9237,-91.7522 274,-76 276.4643,-74.1582 279.1288,-72.4735 281.8993,-70.9362"/>
<polygon fill="#191970" stroke="#191970" points="283.5293,-74.0355 290.9936,-66.5165 280.4696,-67.7397 283.5293,-74.0355"/>
</g>
<!-- Node462 -->
<g id="node34" class="node">
<title>Node462</title>
<g id="a_node34"><a xlink:href="user__interface_8h.html#ad61f32757e670d1a2feb7e445992fd1a" target="_top" xlink:title="wifi_station_get_connect\l_status">
<polygon fill="#ffffff" stroke="#000000" points="274,-200 274,-230 373,-230 373,-200 274,-200"/>
<text text-anchor="start" x="282" y="-218" font-family="Helvetica,sans-Serif" font-size="10.00" fill="#000000">wifi_station_get_connect</text>
<text text-anchor="middle" x="323.5" y="-207" font-family="Helvetica,sans-Serif" font-size="10.00" fill="#000000">_status</text>
</a>
</g>
</g>
<!-- Node431&#45;&gt;Node462 -->
<g id="edge45" class="edge">
<title>Node431&#45;&gt;Node462</title>
<path fill="none" stroke="#191970" d="M216.0036,-151.5136C223.4802,-154.1222 231.1673,-157.2794 238,-161 256.044,-170.8254 256.7348,-178.8628 274,-190 276.7103,-191.7483 279.5589,-193.4672 282.4632,-195.1343"/>
<polygon fill="#191970" stroke="#191970" points="280.8095,-198.2192 291.2606,-199.9585 284.1752,-192.0814 280.8095,-198.2192"/>
</g>
<!-- Node433 -->
<g id="node5" class="node">
<title>Node433</title>
<g id="a_node5"><a xlink:href="led_8c.html#af6a79b211d188e643a4f1cf7552ac7ee" target="_top" xlink:title="led_blinker_timer_func">
<polygon fill="#ffffff" stroke="#000000" points="413,-102.5 413,-121.5 505,-121.5 505,-102.5 413,-102.5"/>
<text text-anchor="middle" x="459" y="-109.5" font-family="Helvetica,sans-Serif" font-size="10.00" fill="#000000">led_blinker_timer_func</text>
</a>
</g>
</g>
<!-- Node432&#45;&gt;Node433 -->
<g id="edge4" class="edge">
<title>Node432&#45;&gt;Node433</title>
<path fill="none" stroke="#191970" d="M354.5864,-128.1822C368.886,-125.966 386.3039,-123.2665 402.7838,-120.7125"/>
<polygon fill="#191970" stroke="#191970" points="403.5413,-124.1369 412.8873,-119.1466 402.4692,-117.2195 403.5413,-124.1369"/>
</g>
<!-- Node434 -->
<g id="node6" class="node">
<title>Node434</title>
<g id="a_node6"><a xlink:href="led_8c.html#a0a23edee5e1db0cd2928c18a42ffe96f" target="_top" xlink:title="led_on">
<polygon fill="#ffffff" stroke="#000000" points="567.5,-102.5 567.5,-121.5 606.5,-121.5 606.5,-102.5 567.5,-102.5"/>
<text text-anchor="middle" x="587" y="-109.5" font-family="Helvetica,sans-Serif" font-size="10.00" fill="#000000">led_on</text>
</a>
</g>
</g>
<!-- Node433&#45;&gt;Node434 -->
<g id="edge5" class="edge">
<title>Node433&#45;&gt;Node434</title>
<path fill="none" stroke="#191970" d="M505.2109,-112C522.5494,-112 541.78,-112 557.2357,-112"/>
<polygon fill="#191970" stroke="#191970" points="557.2631,-115.5001 567.263,-112 557.263,-108.5001 557.2631,-115.5001"/>
</g>
<!-- Node436 -->
<g id="node8" class="node">
<title>Node436</title>
<g id="a_node8"><a xlink:href="led_8c.html#a7ef0b27e501c77cd25b8bb7a2de6d8bd" target="_top" xlink:title="led_off">
<polygon fill="#ffffff" stroke="#000000" points="567.5,-64.5 567.5,-83.5 606.5,-83.5 606.5,-64.5 567.5,-64.5"/>
<text text-anchor="middle" x="587" y="-71.5" font-family="Helvetica,sans-Serif" font-size="10.00" fill="#000000">led_off</text>
</a>
</g>
</g>
<!-- Node433&#45;&gt;Node436 -->
<g id="edge7" class="edge">
<title>Node433&#45;&gt;Node436</title>
<path fill="none" stroke="#191970" d="M491.2998,-102.411C511.7335,-96.3447 537.9351,-88.5661 557.7544,-82.6823"/>
<polygon fill="#191970" stroke="#191970" points="558.8822,-85.9985 567.4725,-79.7972 556.8899,-79.288 558.8822,-85.9985"/>
</g>
<!-- Node435 -->
<g id="node7" class="node">
<title>Node435</title>
<g id="a_node7"><a xlink:href="gpio_8h.html#a83bac74ff5b2158e0c86da73ada29718" target="_top" xlink:title="gpio_output_set">
<polygon fill="#ffffff" stroke="#000000" points="665,-83.5 665,-102.5 735,-102.5 735,-83.5 665,-83.5"/>
<text text-anchor="middle" x="700" y="-90.5" font-family="Helvetica,sans-Serif" font-size="10.00" fill="#000000">gpio_output_set</text>
</a>
</g>
</g>
<!-- Node434&#45;&gt;Node435 -->
<g id="edge6" class="edge">
<title>Node434&#45;&gt;Node435</title>
<path fill="none" stroke="#191970" d="M606.6831,-108.6905C619.879,-106.4717 637.8207,-103.4549 654.4473,-100.6593"/>
<polygon fill="#191970" stroke="#191970" points="655.2943,-104.0661 664.5755,-98.9563 654.1335,-97.163 655.2943,-104.0661"/>
</g>
<!-- Node436&#45;&gt;Node435 -->
<g id="edge8" class="edge">
<title>Node436&#45;&gt;Node435</title>
<path fill="none" stroke="#191970" d="M606.6831,-77.3095C619.879,-79.5283 637.8207,-82.5451 654.4473,-85.3407"/>
<polygon fill="#191970" stroke="#191970" points="654.1335,-88.837 664.5755,-87.0437 655.2943,-81.9339 654.1335,-88.837"/>
</g>
<!-- Node437&#45;&gt;Node436 -->
<g id="edge10" class="edge">
<title>Node437&#45;&gt;Node436</title>
<path fill="none" stroke="#191970" d="M359.5861,-92.1241C412.0016,-87.9467 508.246,-80.2764 557.0006,-76.3908"/>
<polygon fill="#191970" stroke="#191970" points="557.5179,-79.8608 567.2082,-75.5773 556.9617,-72.8829 557.5179,-79.8608"/>
</g>
<!-- Node439 -->
<g id="node11" class="node">
<title>Node439</title>
<g id="a_node11"><a xlink:href="tinyprintf_8c.html#a9738cbc6c538d210941db282e240c7d6" target="_top" xlink:title="tfp_snprintf">
<polygon fill="#ffffff" stroke="#000000" points="432,-254.5 432,-273.5 486,-273.5 486,-254.5 432,-254.5"/>
<text text-anchor="middle" x="459" y="-261.5" font-family="Helvetica,sans-Serif" font-size="10.00" fill="#000000">tfp_snprintf</text>
</a>
</g>
</g>
<!-- Node438&#45;&gt;Node439 -->
<g id="edge12" class="edge">
<title>Node438&#45;&gt;Node439</title>
<path fill="none" stroke="#191970" d="M350.5948,-299.2017C371.1811,-292.5168 399.7145,-283.2514 422.3404,-275.9042"/>
<polygon fill="#191970" stroke="#191970" points="423.522,-279.2005 431.9522,-272.7831 421.3601,-272.5427 423.522,-279.2005"/>
</g>
<!-- Node452 -->
<g id="node24" class="node">
<title>Node452</title>
<g id="a_node24"><a xlink:href="wifi_8c.html#a2091cde351b02dbc8bd9d52273488bba" target="_top" xlink:title="wifi_get_rssi_timer_func">
<polygon fill="#ffffff" stroke="#000000" points="410.5,-380.5 410.5,-399.5 507.5,-399.5 507.5,-380.5 410.5,-380.5"/>
<text text-anchor="middle" x="459" y="-387.5" font-family="Helvetica,sans-Serif" font-size="10.00" fill="#000000">wifi_get_rssi_timer_func</text>
</a>
</g>
</g>
<!-- Node438&#45;&gt;Node452 -->
<g id="edge28" class="edge">
<title>Node438&#45;&gt;Node452</title>
<path fill="none" stroke="#191970" d="M334.4497,-317.6069C350.1041,-330.9697 380.1834,-355.2916 409,-371 412.669,-373.0001 416.5931,-374.8841 420.5693,-376.631"/>
<polygon fill="#191970" stroke="#191970" points="419.2662,-379.8795 429.8457,-380.4486 421.9302,-373.4062 419.2662,-379.8795"/>
</g>
<!-- Node454 -->
<g id="node26" class="node">
<title>Node454</title>
<g id="a_node26"><a xlink:href="user__interface_8h.html#a77323412cda193d0b8f18652e4d08e77" target="_top" xlink:title="wifi_set_opmode_current">
<polygon fill="#ffffff" stroke="#000000" points="409,-216.5 409,-235.5 509,-235.5 509,-216.5 409,-216.5"/>
<text text-anchor="middle" x="459" y="-223.5" font-family="Helvetica,sans-Serif" font-size="10.00" fill="#000000">wifi_set_opmode_current</text>
</a>
</g>
</g>
<!-- Node438&#45;&gt;Node454 -->
<g id="edge30" class="edge">
<title>Node438&#45;&gt;Node454</title>
<path fill="none" stroke="#191970" d="M350.7344,-300.4187C358.354,-297.5571 366.3599,-293.7986 373,-289 393.479,-274.2003 388.4962,-259.7653 409,-245 411.5185,-243.1863 414.2317,-241.5224 417.0457,-240"/>
<polygon fill="#191970" stroke="#191970" points="418.7395,-243.07 426.2622,-235.6094 415.729,-236.7504 418.7395,-243.07"/>
</g>
<!-- Node455 -->
<g id="node27" class="node">
<title>Node455</title>
<g id="a_node27"><a xlink:href="user__interface_8h.html#ab03cd1e7e4ad93cd241c94bd57430384" target="_top" xlink:title="wifi_station_connect">
<polygon fill="#ffffff" stroke="#000000" points="417,-178.5 417,-197.5 501,-197.5 501,-178.5 417,-178.5"/>
<text text-anchor="middle" x="459" y="-185.5" font-family="Helvetica,sans-Serif" font-size="10.00" fill="#000000">wifi_station_connect</text>
</a>
</g>
</g>
<!-- Node438&#45;&gt;Node455 -->
<g id="edge31" class="edge">
<title>Node438&#45;&gt;Node455</title>
<path fill="none" stroke="#191970" d="M350.6144,-301.8871C358.579,-299.032 366.8055,-294.9088 373,-289 401.8005,-261.5276 380.1536,-234.4241 409,-207 410.6405,-205.4404 412.4218,-204.0056 414.3024,-202.6859"/>
<polygon fill="#191970" stroke="#191970" points="416.1613,-205.6538 423.0534,-197.6071 412.6476,-199.5995 416.1613,-205.6538"/>
</g>
<!-- Node456 -->
<g id="node28" class="node">
<title>Node456</title>
<g id="a_node28"><a xlink:href="user__interface_8h.html#aba69e9646b1f29d8a72972787400f4f1" target="_top" xlink:title="wifi_station_disconnect">
<polygon fill="#ffffff" stroke="#000000" points="412,-140.5 412,-159.5 506,-159.5 506,-140.5 412,-140.5"/>
<text text-anchor="middle" x="459" y="-147.5" font-family="Helvetica,sans-Serif" font-size="10.00" fill="#000000">wifi_station_disconnect</text>
</a>
</g>
</g>
<!-- Node438&#45;&gt;Node456 -->
<g id="edge32" class="edge">
<title>Node438&#45;&gt;Node456</title>
<path fill="none" stroke="#191970" d="M350.5524,-302.5148C358.7028,-299.6805 367.0528,-295.4111 373,-289 410.8682,-248.1779 371.0635,-209.7586 409,-169 410.3523,-167.5471 411.8274,-166.2043 413.3954,-164.9634"/>
<polygon fill="#191970" stroke="#191970" points="415.3128,-167.8919 421.8699,-159.5699 411.5543,-161.9864 415.3128,-167.8919"/>
</g>
<!-- Node457 -->
<g id="node29" class="node">
<title>Node457</title>
<g id="a_node29"><a xlink:href="user__interface_8h.html#a1f0be53caaf81058292a1e6559bdaa36" target="_top" xlink:title="wifi_station_get_config">
<polygon fill="#ffffff" stroke="#000000" points="413,-342.5 413,-361.5 505,-361.5 505,-342.5 413,-342.5"/>
<text text-anchor="middle" x="459" y="-349.5" font-family="Helvetica,sans-Serif" font-size="10.00" fill="#000000">wifi_station_get_config</text>
</a>
</g>
</g>
<!-- Node438&#45;&gt;Node457 -->
<g id="edge33" class="edge">
<title>Node438&#45;&gt;Node457</title>
<path fill="none" stroke="#191970" d="M350.5948,-316.7983C370.4191,-323.2357 397.6129,-332.0662 419.8042,-339.2722"/>
<polygon fill="#191970" stroke="#191970" points="419.0116,-342.6947 429.6037,-342.4543 421.1736,-336.0369 419.0116,-342.6947"/>
</g>
<!-- Node458 -->
<g id="node30" class="node">
<title>Node458</title>
<g id="a_node30"><a xlink:href="user__interface_8h.html#afd1188add491eee183d4ee2daa37dca6" target="_top" xlink:title="wifi_station_set_config\l_current">
<polygon fill="#ffffff" stroke="#000000" points="413,-293 413,-323 505,-323 505,-293 413,-293"/>
<text text-anchor="start" x="421" y="-311" font-family="Helvetica,sans-Serif" font-size="10.00" fill="#000000">wifi_station_set_config</text>
<text text-anchor="middle" x="459" y="-300" font-family="Helvetica,sans-Serif" font-size="10.00" fill="#000000">_current</text>
</a>
</g>
</g>
<!-- Node438&#45;&gt;Node458 -->
<g id="edge34" class="edge">
<title>Node438&#45;&gt;Node458</title>
<path fill="none" stroke="#191970" d="M350.5948,-308C365.5131,-308 384.6047,-308 402.5973,-308"/>
<polygon fill="#191970" stroke="#191970" points="402.7343,-311.5001 412.7343,-308 402.7342,-304.5001 402.7343,-311.5001"/>
</g>
<!-- Node440 -->
<g id="node12" class="node">
<title>Node440</title>
<g id="a_node12"><a xlink:href="tinyprintf_8c.html#ac8c8a66133cf0d7009c0d73b55311a44" target="_top" xlink:title="tfp_vsnprintf">
<polygon fill="#ffffff" stroke="#000000" points="558.5,-254.5 558.5,-273.5 615.5,-273.5 615.5,-254.5 558.5,-254.5"/>
<text text-anchor="middle" x="587" y="-261.5" font-family="Helvetica,sans-Serif" font-size="10.00" fill="#000000">tfp_vsnprintf</text>
</a>
</g>
</g>
<!-- Node439&#45;&gt;Node440 -->
<g id="edge13" class="edge">
<title>Node439&#45;&gt;Node440</title>
<path fill="none" stroke="#191970" d="M486.1455,-264C504.1432,-264 528.0395,-264 548.054,-264"/>
<polygon fill="#191970" stroke="#191970" points="548.1147,-267.5001 558.1147,-264 548.1147,-260.5001 548.1147,-267.5001"/>
</g>
<!-- Node441 -->
<g id="node13" class="node">
<title>Node441</title>
<g id="a_node13"><a xlink:href="tinyprintf_8c.html#a5877e42444463efc71a91b5fe76a6145" target="_top" xlink:title="tfp_format">
<polygon fill="#ffffff" stroke="#000000" points="675,-235.5 675,-254.5 725,-254.5 725,-235.5 675,-235.5"/>
<text text-anchor="middle" x="700" y="-242.5" font-family="Helvetica,sans-Serif" font-size="10.00" fill="#000000">tfp_format</text>
</a>
</g>
</g>
<!-- Node440&#45;&gt;Node441 -->
<g id="edge14" class="edge">
<title>Node440&#45;&gt;Node441</title>
<path fill="none" stroke="#191970" d="M615.5147,-259.2055C630.532,-256.6805 649.0781,-253.5621 664.9648,-250.8909"/>
<polygon fill="#191970" stroke="#191970" points="665.6755,-254.3206 674.9567,-249.2108 664.5147,-247.4175 665.6755,-254.3206"/>
</g>
<!-- Node451 -->
<g id="node23" class="node">
<title>Node451</title>
<g id="a_node23"><a xlink:href="tinyprintf_8c.html#a919051024b2d729e34a54648b3f2462d" target="_top" xlink:title="_vsnprintf_putcf">
<polygon fill="#ffffff" stroke="#000000" points="665.5,-273.5 665.5,-292.5 734.5,-292.5 734.5,-273.5 665.5,-273.5"/>
<text text-anchor="middle" x="700" y="-280.5" font-family="Helvetica,sans-Serif" font-size="10.00" fill="#000000">_vsnprintf_putcf</text>
</a>
</g>
</g>
<!-- Node440&#45;&gt;Node451 -->
<g id="edge27" class="edge">
<title>Node440&#45;&gt;Node451</title>
<path fill="none" stroke="#191970" d="M615.5147,-268.7945C627.6021,-270.8269 641.9757,-273.2437 655.4085,-275.5023"/>
<polygon fill="#191970" stroke="#191970" points="655.0019,-278.983 665.4438,-277.1897 656.1626,-272.0799 655.0019,-278.983"/>
</g>
<!-- Node442 -->
<g id="node14" class="node">
<title>Node442</title>
<g id="a_node14"><a xlink:href="tinyprintf_8c.html#aa97593a5e53af85b608ad0910db92d77" target="_top" xlink:title="a2u">
<polygon fill="#ffffff" stroke="#000000" points="776.5,-368.5 776.5,-387.5 805.5,-387.5 805.5,-368.5 776.5,-368.5"/>
<text text-anchor="middle" x="791" y="-375.5" font-family="Helvetica,sans-Serif" font-size="10.00" fill="#000000">a2u</text>
</a>
</g>
</g>
<!-- Node441&#45;&gt;Node442 -->
<g id="edge15" class="edge">
<title>Node441&#45;&gt;Node442</title>
<path fill="none" stroke="#191970" d="M723.1241,-254.572C727.4755,-257.1502 731.6915,-260.2805 735,-264 763.6325,-296.1897 748.9383,-316.9962 771,-354 772.2186,-356.044 773.607,-358.0923 775.0712,-360.0834"/>
<polygon fill="#191970" stroke="#191970" points="772.6721,-362.6827 781.6831,-368.2552 778.1139,-358.2797 772.6721,-362.6827"/>
</g>
<!-- Node444 -->
<g id="node16" class="node">
<title>Node444</title>
<g id="a_node16"><a xlink:href="tinyprintf_8c.html#abcf035dd576671b0cc897de9dd8c75b0" target="_top" xlink:title="ulli2a">
<polygon fill="#ffffff" stroke="#000000" points="847,-311.5 847,-330.5 881,-330.5 881,-311.5 847,-311.5"/>
<text text-anchor="middle" x="864" y="-318.5" font-family="Helvetica,sans-Serif" font-size="10.00" fill="#000000">ulli2a</text>
</a>
</g>
</g>
<!-- Node441&#45;&gt;Node444 -->
<g id="edge17" class="edge">
<title>Node441&#45;&gt;Node444</title>
<path fill="none" stroke="#191970" d="M721.8879,-254.6445C726.5208,-257.2756 731.1639,-260.409 735,-264 756.8742,-284.4767 744.759,-306.5368 771,-321 790.9245,-331.9818 817.0905,-330.8745 836.5909,-327.6591"/>
<polygon fill="#191970" stroke="#191970" points="837.4997,-331.0485 846.6567,-325.7193 836.175,-324.1749 837.4997,-331.0485"/>
</g>
<!-- Node445 -->
<g id="node17" class="node">
<title>Node445</title>
<g id="a_node17"><a xlink:href="tinyprintf_8c.html#a1d61347854a8c290d59b4a21efcefd75" target="_top" xlink:title="uli2a">
<polygon fill="#ffffff" stroke="#000000" points="848,-225.5 848,-244.5 880,-244.5 880,-225.5 848,-225.5"/>
<text text-anchor="middle" x="864" y="-232.5" font-family="Helvetica,sans-Serif" font-size="10.00" fill="#000000">uli2a</text>
</a>
</g>
</g>
<!-- Node441&#45;&gt;Node445 -->
<g id="edge18" class="edge">
<title>Node441&#45;&gt;Node445</title>
<path fill="none" stroke="#191970" d="M725.1904,-246.3332C747.7289,-247.2091 781.6437,-247.7452 811,-245 819.8817,-244.1694 829.4926,-242.5722 838.06,-240.8939"/>
<polygon fill="#191970" stroke="#191970" points="838.7961,-244.3158 847.8738,-238.8527 837.3706,-237.4625 838.7961,-244.3158"/>
</g>
<!-- Node446 -->
<g id="node18" class="node">
<title>Node446</title>
<g id="a_node18"><a xlink:href="tinyprintf_8c.html#ac87ff66a592723f55692eaf8e3f19df8" target="_top" xlink:title="ui2a">
<polygon fill="#ffffff" stroke="#000000" points="848.5,-168.5 848.5,-187.5 879.5,-187.5 879.5,-168.5 848.5,-168.5"/>
<text text-anchor="middle" x="864" y="-175.5" font-family="Helvetica,sans-Serif" font-size="10.00" fill="#000000">ui2a</text>
</a>
</g>
</g>
<!-- Node441&#45;&gt;Node446 -->
<g id="edge19" class="edge">
<title>Node441&#45;&gt;Node446</title>
<path fill="none" stroke="#191970" d="M715.9287,-235.3479C730.0453,-227.0701 751.4007,-215.2137 771,-207 793.2421,-197.6788 819.5601,-189.7441 838.5126,-184.5433"/>
<polygon fill="#191970" stroke="#191970" points="839.4584,-187.9134 848.2113,-181.9438 837.6461,-181.152 839.4584,-187.9134"/>
</g>
<!-- Node447 -->
<g id="node19" class="node">
<title>Node447</title>
<g id="a_node19"><a xlink:href="tinyprintf_8c.html#a6252dbfebb2c8783c4e3107d551082dd" target="_top" xlink:title="putchw">
<polygon fill="#ffffff" stroke="#000000" points="771,-102.5 771,-121.5 811,-121.5 811,-102.5 771,-102.5"/>
<text text-anchor="middle" x="791" y="-109.5" font-family="Helvetica,sans-Serif" font-size="10.00" fill="#000000">putchw</text>
</a>
</g>
</g>
<!-- Node441&#45;&gt;Node447 -->
<g id="edge20" class="edge">
<title>Node441&#45;&gt;Node447</title>
<path fill="none" stroke="#191970" d="M704.9502,-235.2982C715.5762,-214.9176 741.974,-166.5997 771,-131 771.5826,-130.2855 772.1906,-129.571 772.8171,-128.8605"/>
<polygon fill="#191970" stroke="#191970" points="775.4322,-131.1919 779.906,-121.588 770.4196,-126.3058 775.4322,-131.1919"/>
</g>
<!-- Node448 -->
<g id="node20" class="node">
<title>Node448</title>
<g id="a_node20"><a xlink:href="tinyprintf_8c.html#a49c6d2b3d4088012f2c1fe344eef69f3" target="_top" xlink:title="lli2a">
<polygon fill="#ffffff" stroke="#000000" points="776,-292.5 776,-311.5 806,-311.5 806,-292.5 776,-292.5"/>
<text text-anchor="middle" x="791" y="-299.5" font-family="Helvetica,sans-Serif" font-size="10.00" fill="#000000">lli2a</text>
</a>
</g>
</g>
<!-- Node441&#45;&gt;Node448 -->
<g id="edge21" class="edge">
<title>Node441&#45;&gt;Node448</title>
<path fill="none" stroke="#191970" d="M718.3591,-254.5251C723.7807,-257.4559 729.6846,-260.7647 735,-264 746.4884,-270.9927 758.8994,-279.3295 769.1109,-286.4103"/>
<polygon fill="#191970" stroke="#191970" points="767.2414,-289.374 777.44,-292.2442 771.2572,-283.6405 767.2414,-289.374"/>
</g>
<!-- Node449 -->
<g id="node21" class="node">
<title>Node449</title>
<g id="a_node21"><a xlink:href="tinyprintf_8c.html#afebb7696337c3f599b5e8db35c560684" target="_top" xlink:title="li2a">
<polygon fill="#ffffff" stroke="#000000" points="776.5,-216.5 776.5,-235.5 805.5,-235.5 805.5,-216.5 776.5,-216.5"/>
<text text-anchor="middle" x="791" y="-223.5" font-family="Helvetica,sans-Serif" font-size="10.00" fill="#000000">li2a</text>
</a>
</g>
</g>
<!-- Node441&#45;&gt;Node449 -->
<g id="edge23" class="edge">
<title>Node441&#45;&gt;Node449</title>
<path fill="none" stroke="#191970" d="M725.3486,-239.7074C738.1674,-237.031 753.6605,-233.7962 766.3762,-231.1412"/>
<polygon fill="#191970" stroke="#191970" points="767.2109,-234.5425 776.2845,-229.0725 765.7802,-227.6903 767.2109,-234.5425"/>
</g>
<!-- Node450 -->
<g id="node22" class="node">
<title>Node450</title>
<g id="a_node22"><a xlink:href="tinyprintf_8c.html#a90f9fd8f2133cda7f50be8d67823405c" target="_top" xlink:title="i2a">
<polygon fill="#ffffff" stroke="#000000" points="776.5,-140.5 776.5,-159.5 805.5,-159.5 805.5,-140.5 776.5,-140.5"/>
<text text-anchor="middle" x="791" y="-147.5" font-family="Helvetica,sans-Serif" font-size="10.00" fill="#000000">i2a</text>
</a>
</g>
</g>
<!-- Node441&#45;&gt;Node450 -->
<g id="edge25" class="edge">
<title>Node441&#45;&gt;Node450</title>
<path fill="none" stroke="#191970" d="M709.3959,-235.1911C724.8018,-219.108 755.6202,-186.935 774.662,-167.0562"/>
<polygon fill="#191970" stroke="#191970" points="777.4009,-169.2566 781.7908,-159.614 772.3458,-164.4144 777.4009,-169.2566"/>
</g>
<!-- Node443 -->
<g id="node15" class="node">
<title>Node443</title>
<g id="a_node15"><a xlink:href="tinyprintf_8c.html#aa853a0c5ba64fa2546d488b86192e7e3" target="_top" xlink:title="a2d">
<polygon fill="#ffffff" stroke="#000000" points="849.5,-368.5 849.5,-387.5 878.5,-387.5 878.5,-368.5 849.5,-368.5"/>
<text text-anchor="middle" x="864" y="-375.5" font-family="Helvetica,sans-Serif" font-size="10.00" fill="#000000">a2d</text>
</a>
</g>
</g>
<!-- Node442&#45;&gt;Node443 -->
<g id="edge16" class="edge">
<title>Node442&#45;&gt;Node443</title>
<path fill="none" stroke="#191970" d="M805.7726,-378C815.3705,-378 828.1197,-378 839.2412,-378"/>
<polygon fill="#191970" stroke="#191970" points="839.2494,-381.5001 849.2493,-378 839.2493,-374.5001 839.2494,-381.5001"/>
</g>
<!-- Node448&#45;&gt;Node444 -->
<g id="edge22" class="edge">
<title>Node448&#45;&gt;Node444</title>
<path fill="none" stroke="#191970" d="M806.1256,-305.9368C815.021,-308.252 826.5313,-311.2479 836.9415,-313.9574"/>
<polygon fill="#191970" stroke="#191970" points="836.2881,-317.4038 846.8473,-316.5356 838.0513,-310.6295 836.2881,-317.4038"/>
</g>
<!-- Node449&#45;&gt;Node445 -->
<g id="edge24" class="edge">
<title>Node449&#45;&gt;Node445</title>
<path fill="none" stroke="#191970" d="M805.7726,-227.8213C814.9591,-228.9539 827.0325,-230.4424 837.8024,-231.7702"/>
<polygon fill="#191970" stroke="#191970" points="837.6295,-235.2753 847.9827,-233.0253 838.4861,-228.3279 837.6295,-235.2753"/>
</g>
<!-- Node450&#45;&gt;Node446 -->
<g id="edge26" class="edge">
<title>Node450&#45;&gt;Node446</title>
<path fill="none" stroke="#191970" d="M805.7726,-155.6662C815.278,-159.3121 827.8744,-164.1436 838.9194,-168.38"/>
<polygon fill="#191970" stroke="#191970" points="837.9033,-171.7389 848.4935,-172.0523 840.4102,-165.2031 837.9033,-171.7389"/>
</g>
<!-- Node453 -->
<g id="node25" class="node">
<title>Node453</title>
<g id="a_node25"><a xlink:href="user__interface_8h.html#af8572ea9f6e1b7785e9df6941932bb3d" target="_top" xlink:title="wifi_station_get_rssi">
<polygon fill="#ffffff" stroke="#000000" points="545,-380.5 545,-399.5 629,-399.5 629,-380.5 545,-380.5"/>
<text text-anchor="middle" x="587" y="-387.5" font-family="Helvetica,sans-Serif" font-size="10.00" fill="#000000">wifi_station_get_rssi</text>
</a>
</g>
</g>
<!-- Node452&#45;&gt;Node453 -->
<g id="edge29" class="edge">
<title>Node452&#45;&gt;Node453</title>
<path fill="none" stroke="#191970" d="M507.7565,-390C516.4905,-390 525.6268,-390 534.4618,-390"/>
<polygon fill="#191970" stroke="#191970" points="534.6528,-393.5001 544.6528,-390 534.6528,-386.5001 534.6528,-393.5001"/>
</g>
<!-- Node459&#45;&gt;Node439 -->
<g id="edge36" class="edge">
<title>Node459&#45;&gt;Node439</title>
<path fill="none" stroke="#191970" d="M352.1014,-178.5308C359.4076,-181.3419 366.9104,-185.087 373,-190 395.7378,-208.3445 386.2315,-226.6936 409,-245 413.0573,-248.2621 417.7354,-251.0067 422.5679,-253.304"/>
<polygon fill="#191970" stroke="#191970" points="421.3509,-256.5882 431.9287,-257.1888 424.0341,-250.1229 421.3509,-256.5882"/>
</g>
<!-- Node459&#45;&gt;Node454 -->
<g id="edge37" class="edge">
<title>Node459&#45;&gt;Node454</title>
<path fill="none" stroke="#191970" d="M349.5938,-180.5976C357.1883,-183.5034 365.4665,-186.7807 373,-190 389.2709,-196.953 392.7175,-200.0743 409,-207 413.5156,-208.9207 418.2975,-210.8581 423.0433,-212.7233"/>
<polygon fill="#191970" stroke="#191970" points="422.0475,-216.0905 432.6371,-216.4224 424.5658,-209.5591 422.0475,-216.0905"/>
</g>
<!-- Node459&#45;&gt;Node455 -->
<g id="edge38" class="edge">
<title>Node459&#45;&gt;Node455</title>
<path fill="none" stroke="#191970" d="M352.2361,-174.6053C368.0984,-176.5954 388.289,-179.1285 406.8329,-181.455"/>
<polygon fill="#191970" stroke="#191970" points="406.5697,-184.9494 416.9276,-182.7215 407.4411,-178.0038 406.5697,-184.9494"/>
</g>
<!-- Node459&#45;&gt;Node456 -->
<g id="edge39" class="edge">
<title>Node459&#45;&gt;Node456</title>
<path fill="none" stroke="#191970" d="M352.2361,-166.5464C366.7177,-164.3021 384.8068,-161.4986 401.9569,-158.8406"/>
<polygon fill="#191970" stroke="#191970" points="402.5658,-162.2881 411.9118,-157.2978 401.4937,-155.3707 402.5658,-162.2881"/>
</g>
<!-- Node459&#45;&gt;Node457 -->
<g id="edge40" class="edge">
<title>Node459&#45;&gt;Node457</title>
<path fill="none" stroke="#191970" d="M352.0141,-176.7874C359.7535,-179.613 367.5033,-183.8015 373,-190 416.4836,-239.0355 365.4343,-284.0374 409,-333 410.1883,-334.3355 411.4805,-335.5775 412.8545,-336.7327"/>
<polygon fill="#191970" stroke="#191970" points="411.1929,-339.8306 421.4605,-342.4434 415.0634,-333.9979 411.1929,-339.8306"/>
</g>
<!-- Node459&#45;&gt;Node458 -->
<g id="edge41" class="edge">
<title>Node459&#45;&gt;Node458</title>
<path fill="none" stroke="#191970" d="M352.063,-177.4183C359.6224,-180.2477 367.264,-184.2802 373,-190 404.3848,-221.2959 379.1718,-250.217 409,-283 410.1899,-284.3078 411.4638,-285.5561 412.8035,-286.7467"/>
<polygon fill="#191970" stroke="#191970" points="410.9719,-289.748 421.072,-292.9479 415.1719,-284.148 410.9719,-289.748"/>
</g>
<!-- Node461&#45;&gt;Node429 -->
<g id="edge44" class="edge">
<title>Node461&#45;&gt;Node429</title>
<path fill="none" stroke="#191970" d="M290.1423,-64.3021C242.5163,-70.7934 154.5027,-78.322 97.5134,-81.0221"/>
<polygon fill="#191970" stroke="#191970" points="97.0883,-77.5372 87.25,-81.4688 97.3927,-84.5306 97.0883,-77.5372"/>
</g>
<!-- Node463&#45;&gt;Node461 -->
<g id="edge47" class="edge">
<title>Node463&#45;&gt;Node461</title>
<path fill="none" stroke="#191970" d="M209.4382,-94.4888C231.004,-87.4008 260.692,-77.6432 284.3737,-69.8597"/>
<polygon fill="#191970" stroke="#191970" points="285.7069,-73.1058 294.114,-66.6583 283.5211,-66.4558 285.7069,-73.1058"/>
</g>
</g>
</svg>
