<?xml version="1.0" encoding="UTF-8" standalone="no"?>
<!DOCTYPE svg PUBLIC "-//W3C//DTD SVG 1.1//EN"
 "http://www.w3.org/Graphics/SVG/1.1/DTD/svg11.dtd">
<!-- Generated by graphviz version 2.40.1 (20161225.0304)
 -->
<!-- Title: wifi_get_rssi Pages: 1 -->
<svg width="888pt" height="158pt"
 viewBox="0.00 0.00 888.00 157.84" xmlns="http://www.w3.org/2000/svg" xmlns:xlink="http://www.w3.org/1999/xlink">
<g id="graph0" class="graph" transform="scale(1 1) rotate(0) translate(4 153.8373)">
<title>wifi_get_rssi</title>
<polygon fill="#ffffff" stroke="transparent" points="-4,4 -4,-153.8373 884,-153.8373 884,4 -4,4"/>
<!-- Node227 -->
<g id="node1" class="node">
<title>Node227</title>
<polygon fill="#bfbfbf" stroke="#000000" points="0,-76.5 0,-95.5 58,-95.5 58,-76.5 0,-76.5"/>
<text text-anchor="middle" x="29" y="-83.5" font-family="Helvetica,sans-Serif" font-size="10.00" fill="#000000">wifi_get_rssi</text>
</g>
<!-- Node228 -->
<g id="node2" class="node">
<title>Node228</title>
<g id="a_node2"><a xlink:href="wifi_8c.html#ae7011f25db54676b86fefe2caa450a4a" target="_top" xlink:title="wifi_scan_timer_func">
<polygon fill="#ffffff" stroke="#000000" points="94,-76.5 94,-95.5 181,-95.5 181,-76.5 94,-76.5"/>
<text text-anchor="middle" x="137.5" y="-83.5" font-family="Helvetica,sans-Serif" font-size="10.00" fill="#000000">wifi_scan_timer_func</text>
</a>
</g>
</g>
<!-- Node227&#45;&gt;Node228 -->
<g id="edge1" class="edge">
<title>Node227&#45;&gt;Node228</title>
<path fill="none" stroke="#191970" d="M68.202,-86C76.4602,-86 85.2235,-86 93.6401,-86"/>
<polygon fill="#191970" stroke="#191970" points="68.076,-82.5001 58.076,-86 68.076,-89.5001 68.076,-82.5001"/>
</g>
<!-- Node229 -->
<g id="node3" class="node">
<title>Node229</title>
<g id="a_node3"><a xlink:href="wifi_8c.html#a0d197abbbedf42c0522e20b43884c920" target="_top" xlink:title="acl_check_packet">
<polygon fill="#ffffff" stroke="#000000" points="476,-114.5 476,-133.5 552,-133.5 552,-114.5 476,-114.5"/>
<text text-anchor="middle" x="514" y="-121.5" font-family="Helvetica,sans-Serif" font-size="10.00" fill="#000000">acl_check_packet</text>
</a>
</g>
</g>
<!-- Node228&#45;&gt;Node229 -->
<g id="edge2" class="edge">
<title>Node228&#45;&gt;Node229</title>
<path fill="none" stroke="#191970" d="M164.2481,-100.4315C179.3686,-108.0791 198.8309,-117.0875 217,-123 309.0994,-152.9706 337.8043,-154.2665 434,-143 449.8797,-141.1402 467.1772,-137.271 481.6124,-133.5066"/>
<polygon fill="#191970" stroke="#191970" points="165.4866,-97.1318 154.9961,-95.6487 162.2721,-103.35 165.4866,-97.1318"/>
</g>
<!-- Node233 -->
<g id="node7" class="node">
<title>Node233</title>
<g id="a_node7"><a xlink:href="wifi_8c.html#a5831b420da0012d53c979c375714d382" target="_top" xlink:title="wifi_start_scan">
<polygon fill="#ffffff" stroke="#000000" points="217,-76.5 217,-95.5 283,-95.5 283,-76.5 217,-76.5"/>
<text text-anchor="middle" x="250" y="-83.5" font-family="Helvetica,sans-Serif" font-size="10.00" fill="#000000">wifi_start_scan</text>
</a>
</g>
</g>
<!-- Node228&#45;&gt;Node233 -->
<g id="edge6" class="edge">
<title>Node228&#45;&gt;Node233</title>
<path fill="none" stroke="#191970" d="M191.446,-79.255C200.1453,-79.217 208.9182,-79.3945 216.9306,-79.7876"/>
<polygon fill="#191970" stroke="#191970" points="191.2669,-75.7571 181.3176,-79.3987 191.3662,-82.7564 191.2669,-75.7571"/>
</g>
<!-- Node230 -->
<g id="node4" class="node">
<title>Node230</title>
<g id="a_node4"><a xlink:href="wifi_8c.html#a3cea38a15b267ddabc1e6d5cf72b5ae8" target="_top" xlink:title="my_input_ap">
<polygon fill="#ffffff" stroke="#000000" points="598,-114.5 598,-133.5 657,-133.5 657,-114.5 598,-114.5"/>
<text text-anchor="middle" x="627.5" y="-121.5" font-family="Helvetica,sans-Serif" font-size="10.00" fill="#000000">my_input_ap</text>
</a>
</g>
</g>
<!-- Node229&#45;&gt;Node230 -->
<g id="edge3" class="edge">
<title>Node229&#45;&gt;Node230</title>
<path fill="none" stroke="#191970" d="M562.1424,-124C574.2974,-124 586.9917,-124 597.9246,-124"/>
<polygon fill="#191970" stroke="#191970" points="562.1096,-120.5001 552.1096,-124 562.1096,-127.5001 562.1096,-120.5001"/>
</g>
<!-- Node231 -->
<g id="node5" class="node">
<title>Node231</title>
<g id="a_node5"><a xlink:href="wifi_8c.html#aa87c06c3cbab2aa762551fcec59dc8f0" target="_top" xlink:title="wifi_handle_event_cb">
<polygon fill="#ffffff" stroke="#000000" points="697,-114.5 697,-133.5 786,-133.5 786,-114.5 697,-114.5"/>
<text text-anchor="middle" x="741.5" y="-121.5" font-family="Helvetica,sans-Serif" font-size="10.00" fill="#000000">wifi_handle_event_cb</text>
</a>
</g>
</g>
<!-- Node230&#45;&gt;Node231 -->
<g id="edge4" class="edge">
<title>Node230&#45;&gt;Node231</title>
<path fill="none" stroke="#191970" d="M667.2281,-124C676.8266,-124 687.1467,-124 696.9502,-124"/>
<polygon fill="#191970" stroke="#191970" points="667.1546,-120.5001 657.1546,-124 667.1545,-127.5001 667.1546,-120.5001"/>
</g>
<!-- Node232 -->
<g id="node6" class="node">
<title>Node232</title>
<g id="a_node6"><a xlink:href="wifi_8c.html#a9c38abb0900e0c7308be77d85dbf09e0" target="_top" xlink:title="wifi_connect">
<polygon fill="#ffffff" stroke="#000000" points="822,-95.5 822,-114.5 880,-114.5 880,-95.5 822,-95.5"/>
<text text-anchor="middle" x="851" y="-102.5" font-family="Helvetica,sans-Serif" font-size="10.00" fill="#000000">wifi_connect</text>
</a>
</g>
</g>
<!-- Node231&#45;&gt;Node232 -->
<g id="edge5" class="edge">
<title>Node231&#45;&gt;Node232</title>
<path fill="none" stroke="#191970" d="M796.0501,-114.5347C804.9655,-112.9877 813.8878,-111.4396 821.8717,-110.0542"/>
<polygon fill="#191970" stroke="#191970" points="795.2922,-111.1138 786.0378,-116.272 796.489,-118.0107 795.2922,-111.1138"/>
</g>
<!-- Node233&#45;&gt;Node228 -->
<g id="edge7" class="edge">
<title>Node233&#45;&gt;Node228</title>
<path fill="none" stroke="#191970" d="M206.6718,-92.5891C198.3582,-92.7995 189.6465,-92.8035 181.3176,-92.6013"/>
<polygon fill="#191970" stroke="#191970" points="207.0659,-96.0771 216.9306,-92.2124 206.8089,-89.0818 207.0659,-96.0771"/>
</g>
<!-- Node233&#45;&gt;Node232 -->
<g id="edge13" class="edge">
<title>Node233&#45;&gt;Node232</title>
<path fill="none" stroke="#191970" d="M293.5991,-86C345.943,-86 436.3886,-86 514,-86 514,-86 514,-86 627.5,-86 697.401,-86 779.1587,-95.3412 821.7797,-100.924"/>
<polygon fill="#191970" stroke="#191970" points="293.3399,-82.5001 283.3399,-86 293.3398,-89.5001 293.3399,-82.5001"/>
</g>
<!-- Node234 -->
<g id="node8" class="node">
<title>Node234</title>
<g id="a_node8"><a xlink:href="wifi_8c.html#a189ec83a0503a6fc45b102014a80403b" target="_top" xlink:title="wifi_scan_timeout_timer_func">
<polygon fill="#ffffff" stroke="#000000" points="319,-114.5 319,-133.5 434,-133.5 434,-114.5 319,-114.5"/>
<text text-anchor="middle" x="376.5" y="-121.5" font-family="Helvetica,sans-Serif" font-size="10.00" fill="#000000">wifi_scan_timeout_timer_func</text>
</a>
</g>
</g>
<!-- Node233&#45;&gt;Node234 -->
<g id="edge8" class="edge">
<title>Node233&#45;&gt;Node234</title>
<path fill="none" stroke="#191970" d="M291.7294,-98.5353C308.9382,-103.7048 328.5601,-109.5991 344.5889,-114.4141"/>
<polygon fill="#191970" stroke="#191970" points="292.5055,-95.114 281.9213,-95.589 290.4916,-101.8181 292.5055,-95.114"/>
</g>
<!-- Node235 -->
<g id="node9" class="node">
<title>Node235</title>
<g id="a_node9"><a xlink:href="wifi_8c.html#a1ef15ecd9e69811f6db10215c7196281" target="_top" xlink:title="wifi_scan_done_cb">
<polygon fill="#ffffff" stroke="#000000" points="336.5,-.5 336.5,-19.5 416.5,-19.5 416.5,-.5 336.5,-.5"/>
<text text-anchor="middle" x="376.5" y="-7.5" font-family="Helvetica,sans-Serif" font-size="10.00" fill="#000000">wifi_scan_done_cb</text>
</a>
</g>
</g>
<!-- Node233&#45;&gt;Node235 -->
<g id="edge11" class="edge">
<title>Node233&#45;&gt;Node235</title>
<path fill="none" stroke="#191970" d="M266.7937,-69.054C280.0068,-56.5252 299.4033,-39.828 319,-29 325.7176,-25.2882 333.2796,-22.1484 340.6583,-19.5561"/>
<polygon fill="#191970" stroke="#191970" points="264.1475,-66.7452 259.4192,-76.2265 269.0281,-71.7632 264.1475,-66.7452"/>
</g>
<!-- Node236 -->
<g id="node10" class="node">
<title>Node236</title>
<g id="a_node10"><a xlink:href="watchdog_8c.html#a47b6861ffbed37fef88aa644f10ba917" target="_top" xlink:title="wifi_reconnect_timer_func">
<polygon fill="#ffffff" stroke="#000000" points="324.5,-38.5 324.5,-57.5 428.5,-57.5 428.5,-38.5 324.5,-38.5"/>
<text text-anchor="middle" x="376.5" y="-45.5" font-family="Helvetica,sans-Serif" font-size="10.00" fill="#000000">wifi_reconnect_timer_func</text>
</a>
</g>
</g>
<!-- Node233&#45;&gt;Node236 -->
<g id="edge14" class="edge">
<title>Node233&#45;&gt;Node236</title>
<path fill="none" stroke="#191970" d="M291.7294,-73.4647C308.9382,-68.2952 328.5601,-62.4009 344.5889,-57.5859"/>
<polygon fill="#191970" stroke="#191970" points="290.4916,-70.1819 281.9213,-76.411 292.5055,-76.886 290.4916,-70.1819"/>
</g>
<!-- Node234&#45;&gt;Node228 -->
<g id="edge10" class="edge">
<title>Node234&#45;&gt;Node228</title>
<path fill="none" stroke="#191970" d="M308.4545,-117.6526C280.0711,-114.5499 246.8295,-110.3227 217,-105 202.7505,-102.4574 187.2352,-98.9246 173.725,-95.5943"/>
<polygon fill="#191970" stroke="#191970" points="308.3612,-121.1625 318.6765,-118.7448 309.1049,-114.2021 308.3612,-121.1625"/>
</g>
<!-- Node234&#45;&gt;Node229 -->
<g id="edge9" class="edge">
<title>Node234&#45;&gt;Node229</title>
<path fill="none" stroke="#191970" d="M444.0258,-124C454.9731,-124 465.9618,-124 475.8812,-124"/>
<polygon fill="#191970" stroke="#191970" points="444.0157,-120.5001 434.0157,-124 444.0156,-127.5001 444.0157,-120.5001"/>
</g>
<!-- Node235&#45;&gt;Node228 -->
<g id="edge12" class="edge">
<title>Node235&#45;&gt;Node228</title>
<path fill="none" stroke="#191970" d="M336.8273,-22.6156C289.288,-37.7327 210.6894,-62.7264 167.7695,-76.3745"/>
<polygon fill="#191970" stroke="#191970" points="338.0071,-25.9132 346.4763,-19.5473 335.8858,-19.2423 338.0071,-25.9132"/>
</g>
<!-- Node237 -->
<g id="node11" class="node">
<title>Node237</title>
<g id="a_node11"><a xlink:href="watchdog_8c.html#aeb03c505b5b589ae4d89b2ae11dd1711" target="_top" xlink:title="watchdog_timer_func">
<polygon fill="#ffffff" stroke="#000000" points="470,-38.5 470,-57.5 558,-57.5 558,-38.5 470,-38.5"/>
<text text-anchor="middle" x="514" y="-45.5" font-family="Helvetica,sans-Serif" font-size="10.00" fill="#000000">watchdog_timer_func</text>
</a>
</g>
</g>
<!-- Node236&#45;&gt;Node237 -->
<g id="edge15" class="edge">
<title>Node236&#45;&gt;Node237</title>
<path fill="none" stroke="#191970" d="M439.1396,-48C449.5015,-48 460.05,-48 469.8335,-48"/>
<polygon fill="#191970" stroke="#191970" points="438.8751,-44.5001 428.8751,-48 438.8751,-51.5001 438.8751,-44.5001"/>
</g>
<!-- Node238 -->
<g id="node12" class="node">
<title>Node238</title>
<g id="a_node12"><a xlink:href="watchdog_8h.html#ab148f2150b52df5b60e312dded3a2934" target="_top" xlink:title="start_watchdog">
<polygon fill="#ffffff" stroke="#000000" points="594,-38.5 594,-57.5 661,-57.5 661,-38.5 594,-38.5"/>
<text text-anchor="middle" x="627.5" y="-45.5" font-family="Helvetica,sans-Serif" font-size="10.00" fill="#000000">start_watchdog</text>
</a>
</g>
</g>
<!-- Node237&#45;&gt;Node238 -->
<g id="edge16" class="edge">
<title>Node237&#45;&gt;Node238</title>
<path fill="none" stroke="#191970" d="M568.3182,-48C577.0028,-48 585.7635,-48 593.7847,-48"/>
<polygon fill="#191970" stroke="#191970" points="568.2071,-44.5001 558.2071,-48 568.207,-51.5001 568.2071,-44.5001"/>
</g>
</g>
</svg>
