<?xml version="1.0" encoding="UTF-8" standalone="no"?>
<!DOCTYPE svg PUBLIC "-//W3C//DTD SVG 1.1//EN"
 "http://www.w3.org/Graphics/SVG/1.1/DTD/svg11.dtd">
<!-- Generated by graphviz version 2.40.1 (20161225.0304)
 -->
<!-- Title: wifi_scan_done_cb Pages: 1 -->
<svg width="1107pt" height="371pt"
 viewBox="0.00 0.00 1107.00 371.00" xmlns="http://www.w3.org/2000/svg" xmlns:xlink="http://www.w3.org/1999/xlink">
<g id="graph0" class="graph" transform="scale(1 1) rotate(0) translate(4 367)">
<title>wifi_scan_done_cb</title>
<polygon fill="#ffffff" stroke="transparent" points="-4,4 -4,-367 1103,-367 1103,4 -4,4"/>
<!-- Node247 -->
<g id="node1" class="node">
<title>Node247</title>
<polygon fill="#bfbfbf" stroke="#000000" points="0,-116.5 0,-135.5 80,-135.5 80,-116.5 0,-116.5"/>
<text text-anchor="middle" x="40" y="-123.5" font-family="Helvetica,sans-Serif" font-size="10.00" fill="#000000">wifi_scan_done_cb</text>
</g>
<!-- Node248 -->
<g id="node2" class="node">
<title>Node248</title>
<g id="a_node2"><a xlink:href="led_8c.html#aa00afefe8ba48ccd7df635fbc7d4c9fc" target="_top" xlink:title="led_pattern_a">
<polygon fill="#ffffff" stroke="#000000" points="510.5,-343.5 510.5,-362.5 572.5,-362.5 572.5,-343.5 510.5,-343.5"/>
<text text-anchor="middle" x="541.5" y="-350.5" font-family="Helvetica,sans-Serif" font-size="10.00" fill="#000000">led_pattern_a</text>
</a>
</g>
</g>
<!-- Node247&#45;&gt;Node248 -->
<g id="edge1" class="edge">
<title>Node247&#45;&gt;Node248</title>
<path fill="none" stroke="#191970" d="M43.4543,-135.5192C52.2091,-158.4531 77.3532,-217.4202 116,-252 226.6909,-351.0425 416.6905,-357.693 500.1428,-355.3222"/>
<polygon fill="#191970" stroke="#191970" points="500.3774,-358.8163 510.2513,-354.975 500.137,-351.8204 500.3774,-358.8163"/>
</g>
<!-- Node253 -->
<g id="node7" class="node">
<title>Node253</title>
<g id="a_node7"><a xlink:href="led_8c.html#a7cd1d03b4baad9cb20bf1a43046f61a2" target="_top" xlink:title="led_stop_pattern">
<polygon fill="#ffffff" stroke="#000000" points="505.5,-305.5 505.5,-324.5 577.5,-324.5 577.5,-305.5 505.5,-305.5"/>
<text text-anchor="middle" x="541.5" y="-312.5" font-family="Helvetica,sans-Serif" font-size="10.00" fill="#000000">led_stop_pattern</text>
</a>
</g>
</g>
<!-- Node247&#45;&gt;Node253 -->
<g id="edge7" class="edge">
<title>Node247&#45;&gt;Node253</title>
<path fill="none" stroke="#191970" d="M45.3725,-135.7911C56.2747,-154.8092 82.8024,-196.9809 116,-221 232.8219,-305.523 411.5518,-316.2929 495.2495,-316.2792"/>
<polygon fill="#191970" stroke="#191970" points="495.4743,-319.7781 505.4549,-316.2231 495.4359,-312.7782 495.4743,-319.7781"/>
</g>
<!-- Node254 -->
<g id="node8" class="node">
<title>Node254</title>
<g id="a_node8"><a xlink:href="wifi_8c.html#a0be23fd8148c6a3abf21c739359bed52" target="_top" xlink:title="wifi_default">
<polygon fill="#ffffff" stroke="#000000" points="514.5,-152.5 514.5,-171.5 568.5,-171.5 568.5,-152.5 514.5,-152.5"/>
<text text-anchor="middle" x="541.5" y="-159.5" font-family="Helvetica,sans-Serif" font-size="10.00" fill="#000000">wifi_default</text>
</a>
</g>
</g>
<!-- Node247&#45;&gt;Node254 -->
<g id="edge9" class="edge">
<title>Node247&#45;&gt;Node254</title>
<path fill="none" stroke="#191970" d="M80.0337,-125.8297C154.3909,-125.9562 318.7412,-128.3163 456,-145 471.9909,-146.9437 489.4647,-150.2098 504.4241,-153.3628"/>
<polygon fill="#191970" stroke="#191970" points="503.8152,-156.812 514.3297,-155.5098 505.2981,-149.9708 503.8152,-156.812"/>
</g>
<!-- Node275 -->
<g id="node29" class="node">
<title>Node275</title>
<g id="a_node29"><a xlink:href="wifi_8c.html#ac4389ba687a71cbb616f05b02427eb2a" target="_top" xlink:title="wifi_fallback">
<polygon fill="#ffffff" stroke="#000000" points="513,-113.5 513,-132.5 570,-132.5 570,-113.5 513,-113.5"/>
<text text-anchor="middle" x="541.5" y="-120.5" font-family="Helvetica,sans-Serif" font-size="10.00" fill="#000000">wifi_fallback</text>
</a>
</g>
</g>
<!-- Node247&#45;&gt;Node275 -->
<g id="edge33" class="edge">
<title>Node247&#45;&gt;Node275</title>
<path fill="none" stroke="#191970" d="M80.042,-117.213C91.5878,-115.0638 104.2425,-113.0739 116,-112 266.4847,-98.2552 305.198,-102.3391 456,-112 471.2634,-112.9778 487.9658,-114.9279 502.526,-116.9182"/>
<polygon fill="#191970" stroke="#191970" points="502.3057,-120.4219 512.6982,-118.3612 503.289,-113.4913 502.3057,-120.4219"/>
</g>
<!-- Node276 -->
<g id="node30" class="node">
<title>Node276</title>
<g id="a_node30"><a xlink:href="wifi_8c.html#a5ca49e6386831cffe58dbcc5d8845cc5" target="_top" xlink:title="wifi_scan_result_cb\l_unregister">
<polygon fill="#ffffff" stroke="#000000" points="500.5,-61 500.5,-91 582.5,-91 582.5,-61 500.5,-61"/>
<text text-anchor="start" x="508.5" y="-79" font-family="Helvetica,sans-Serif" font-size="10.00" fill="#000000">wifi_scan_result_cb</text>
<text text-anchor="middle" x="541.5" y="-68" font-family="Helvetica,sans-Serif" font-size="10.00" fill="#000000">_unregister</text>
</a>
</g>
</g>
<!-- Node247&#45;&gt;Node276 -->
<g id="edge40" class="edge">
<title>Node247&#45;&gt;Node276</title>
<path fill="none" stroke="#191970" d="M66.3634,-116.3835C80.8213,-111.5282 99.178,-106.0371 116,-103 249.3251,-78.929 409.5112,-75.4762 489.9953,-75.4634"/>
<polygon fill="#191970" stroke="#191970" points="490.3384,-78.9639 500.3444,-75.481 490.3504,-71.9639 490.3384,-78.9639"/>
</g>
<!-- Node277 -->
<g id="node31" class="node">
<title>Node277</title>
<g id="a_node31"><a xlink:href="wifi_8c.html#a5831b420da0012d53c979c375714d382" target="_top" xlink:title="wifi_start_scan">
<polygon fill="#ffffff" stroke="#000000" points="116,-192.5 116,-211.5 182,-211.5 182,-192.5 116,-192.5"/>
<text text-anchor="middle" x="149" y="-199.5" font-family="Helvetica,sans-Serif" font-size="10.00" fill="#000000">wifi_start_scan</text>
</a>
</g>
</g>
<!-- Node247&#45;&gt;Node277 -->
<g id="edge41" class="edge">
<title>Node247&#45;&gt;Node277</title>
<path fill="none" stroke="#191970" d="M53.8049,-135.6255C72.2326,-148.4741 105.0818,-171.3781 126.9568,-186.6305"/>
<polygon fill="#191970" stroke="#191970" points="125.1024,-189.6042 135.3072,-192.4527 129.1061,-183.8622 125.1024,-189.6042"/>
</g>
<!-- Node283 -->
<g id="node37" class="node">
<title>Node283</title>
<g id="a_node37"><a xlink:href="user__interface_8h.html#ad61f32757e670d1a2feb7e445992fd1a" target="_top" xlink:title="wifi_station_get_connect\l_status">
<polygon fill="#ffffff" stroke="#000000" points="492,-7 492,-37 591,-37 591,-7 492,-7"/>
<text text-anchor="start" x="500" y="-25" font-family="Helvetica,sans-Serif" font-size="10.00" fill="#000000">wifi_station_get_connect</text>
<text text-anchor="middle" x="541.5" y="-14" font-family="Helvetica,sans-Serif" font-size="10.00" fill="#000000">_status</text>
</a>
</g>
</g>
<!-- Node247&#45;&gt;Node283 -->
<g id="edge56" class="edge">
<title>Node247&#45;&gt;Node283</title>
<path fill="none" stroke="#191970" d="M56.6465,-116.4166C71.6835,-108.1782 94.6627,-96.6103 116,-90 242.9048,-50.6849 398.5082,-33.1923 481.9196,-26.1651"/>
<polygon fill="#191970" stroke="#191970" points="482.2925,-29.6463 491.9725,-25.3396 481.7196,-22.6698 482.2925,-29.6463"/>
</g>
<!-- Node249 -->
<g id="node3" class="node">
<title>Node249</title>
<g id="a_node3"><a xlink:href="led_8c.html#af6a79b211d188e643a4f1cf7552ac7ee" target="_top" xlink:title="led_blinker_timer_func">
<polygon fill="#ffffff" stroke="#000000" points="631,-343.5 631,-362.5 723,-362.5 723,-343.5 631,-343.5"/>
<text text-anchor="middle" x="677" y="-350.5" font-family="Helvetica,sans-Serif" font-size="10.00" fill="#000000">led_blinker_timer_func</text>
</a>
</g>
</g>
<!-- Node248&#45;&gt;Node249 -->
<g id="edge2" class="edge">
<title>Node248&#45;&gt;Node249</title>
<path fill="none" stroke="#191970" d="M572.5864,-353C586.886,-353 604.3039,-353 620.7838,-353"/>
<polygon fill="#191970" stroke="#191970" points="620.8873,-356.5001 630.8873,-353 620.8873,-349.5001 620.8873,-356.5001"/>
</g>
<!-- Node250 -->
<g id="node4" class="node">
<title>Node250</title>
<g id="a_node4"><a xlink:href="led_8c.html#a0a23edee5e1db0cd2928c18a42ffe96f" target="_top" xlink:title="led_on">
<polygon fill="#ffffff" stroke="#000000" points="785.5,-343.5 785.5,-362.5 824.5,-362.5 824.5,-343.5 785.5,-343.5"/>
<text text-anchor="middle" x="805" y="-350.5" font-family="Helvetica,sans-Serif" font-size="10.00" fill="#000000">led_on</text>
</a>
</g>
</g>
<!-- Node249&#45;&gt;Node250 -->
<g id="edge3" class="edge">
<title>Node249&#45;&gt;Node250</title>
<path fill="none" stroke="#191970" d="M723.2109,-353C740.5494,-353 759.78,-353 775.2357,-353"/>
<polygon fill="#191970" stroke="#191970" points="775.2631,-356.5001 785.263,-353 775.263,-349.5001 775.2631,-356.5001"/>
</g>
<!-- Node252 -->
<g id="node6" class="node">
<title>Node252</title>
<g id="a_node6"><a xlink:href="led_8c.html#a7ef0b27e501c77cd25b8bb7a2de6d8bd" target="_top" xlink:title="led_off">
<polygon fill="#ffffff" stroke="#000000" points="785.5,-305.5 785.5,-324.5 824.5,-324.5 824.5,-305.5 785.5,-305.5"/>
<text text-anchor="middle" x="805" y="-312.5" font-family="Helvetica,sans-Serif" font-size="10.00" fill="#000000">led_off</text>
</a>
</g>
</g>
<!-- Node249&#45;&gt;Node252 -->
<g id="edge5" class="edge">
<title>Node249&#45;&gt;Node252</title>
<path fill="none" stroke="#191970" d="M709.2998,-343.411C729.7335,-337.3447 755.9351,-329.5661 775.7544,-323.6823"/>
<polygon fill="#191970" stroke="#191970" points="776.8822,-326.9985 785.4725,-320.7972 774.8899,-320.288 776.8822,-326.9985"/>
</g>
<!-- Node251 -->
<g id="node5" class="node">
<title>Node251</title>
<g id="a_node5"><a xlink:href="gpio_8h.html#a83bac74ff5b2158e0c86da73ada29718" target="_top" xlink:title="gpio_output_set">
<polygon fill="#ffffff" stroke="#000000" points="883,-324.5 883,-343.5 953,-343.5 953,-324.5 883,-324.5"/>
<text text-anchor="middle" x="918" y="-331.5" font-family="Helvetica,sans-Serif" font-size="10.00" fill="#000000">gpio_output_set</text>
</a>
</g>
</g>
<!-- Node250&#45;&gt;Node251 -->
<g id="edge4" class="edge">
<title>Node250&#45;&gt;Node251</title>
<path fill="none" stroke="#191970" d="M824.6831,-349.6905C837.879,-347.4717 855.8207,-344.4549 872.4473,-341.6593"/>
<polygon fill="#191970" stroke="#191970" points="873.2943,-345.0661 882.5755,-339.9563 872.1335,-338.163 873.2943,-345.0661"/>
</g>
<!-- Node252&#45;&gt;Node251 -->
<g id="edge6" class="edge">
<title>Node252&#45;&gt;Node251</title>
<path fill="none" stroke="#191970" d="M824.6831,-318.3095C837.879,-320.5283 855.8207,-323.5451 872.4473,-326.3407"/>
<polygon fill="#191970" stroke="#191970" points="872.1335,-329.837 882.5755,-328.0437 873.2943,-322.9339 872.1335,-329.837"/>
</g>
<!-- Node253&#45;&gt;Node252 -->
<g id="edge8" class="edge">
<title>Node253&#45;&gt;Node252</title>
<path fill="none" stroke="#191970" d="M577.5861,-315C630.0016,-315 726.246,-315 775.0006,-315"/>
<polygon fill="#191970" stroke="#191970" points="775.2082,-318.5001 785.2082,-315 775.2081,-311.5001 775.2082,-318.5001"/>
</g>
<!-- Node255 -->
<g id="node9" class="node">
<title>Node255</title>
<g id="a_node9"><a xlink:href="user__interface_8h.html#aba69e9646b1f29d8a72972787400f4f1" target="_top" xlink:title="wifi_station_disconnect">
<polygon fill="#ffffff" stroke="#000000" points="630,-26.5 630,-45.5 724,-45.5 724,-26.5 630,-26.5"/>
<text text-anchor="middle" x="677" y="-33.5" font-family="Helvetica,sans-Serif" font-size="10.00" fill="#000000">wifi_station_disconnect</text>
</a>
</g>
</g>
<!-- Node254&#45;&gt;Node255 -->
<g id="edge10" class="edge">
<title>Node254&#45;&gt;Node255</title>
<path fill="none" stroke="#191970" d="M568.7043,-155.3828C576.6731,-152.3688 584.8794,-148.0697 591,-142 620.7131,-112.5341 596.9815,-84.1547 627,-55 628.6237,-53.423 630.3915,-51.974 632.2613,-50.6431"/>
<polygon fill="#191970" stroke="#191970" points="634.1239,-53.6083 640.981,-45.5317 630.5839,-47.5693 634.1239,-53.6083"/>
</g>
<!-- Node256 -->
<g id="node10" class="node">
<title>Node256</title>
<g id="a_node10"><a xlink:href="user__interface_8h.html#a77323412cda193d0b8f18652e4d08e77" target="_top" xlink:title="wifi_set_opmode_current">
<polygon fill="#ffffff" stroke="#000000" points="627,-228.5 627,-247.5 727,-247.5 727,-228.5 627,-228.5"/>
<text text-anchor="middle" x="677" y="-235.5" font-family="Helvetica,sans-Serif" font-size="10.00" fill="#000000">wifi_set_opmode_current</text>
</a>
</g>
</g>
<!-- Node254&#45;&gt;Node256 -->
<g id="edge11" class="edge">
<title>Node254&#45;&gt;Node256</title>
<path fill="none" stroke="#191970" d="M553.9821,-171.6337C570.1618,-183.8064 599.5617,-204.8693 627,-219 630.8079,-220.9611 634.8668,-222.8323 638.9627,-224.5823"/>
<polygon fill="#191970" stroke="#191970" points="637.9029,-227.929 648.4858,-228.4312 640.5259,-221.439 637.9029,-227.929"/>
</g>
<!-- Node257 -->
<g id="node11" class="node">
<title>Node257</title>
<g id="a_node11"><a xlink:href="user__interface_8h.html#a1f0be53caaf81058292a1e6559bdaa36" target="_top" xlink:title="wifi_station_get_config">
<polygon fill="#ffffff" stroke="#000000" points="631,-190.5 631,-209.5 723,-209.5 723,-190.5 631,-190.5"/>
<text text-anchor="middle" x="677" y="-197.5" font-family="Helvetica,sans-Serif" font-size="10.00" fill="#000000">wifi_station_get_config</text>
</a>
</g>
</g>
<!-- Node254&#45;&gt;Node257 -->
<g id="edge12" class="edge">
<title>Node254&#45;&gt;Node257</title>
<path fill="none" stroke="#191970" d="M568.5948,-169.5985C586.9963,-174.7591 611.7476,-181.7004 632.9536,-187.6475"/>
<polygon fill="#191970" stroke="#191970" points="632.1492,-191.0569 642.7228,-190.3872 634.0394,-184.3169 632.1492,-191.0569"/>
</g>
<!-- Node258 -->
<g id="node12" class="node">
<title>Node258</title>
<g id="a_node12"><a xlink:href="tinyprintf_8c.html#a9738cbc6c538d210941db282e240c7d6" target="_top" xlink:title="tfp_snprintf">
<polygon fill="#ffffff" stroke="#000000" points="650,-152.5 650,-171.5 704,-171.5 704,-152.5 650,-152.5"/>
<text text-anchor="middle" x="677" y="-159.5" font-family="Helvetica,sans-Serif" font-size="10.00" fill="#000000">tfp_snprintf</text>
</a>
</g>
</g>
<!-- Node254&#45;&gt;Node258 -->
<g id="edge13" class="edge">
<title>Node254&#45;&gt;Node258</title>
<path fill="none" stroke="#191970" d="M568.5948,-162C588.9965,-162 617.2033,-162 639.7303,-162"/>
<polygon fill="#191970" stroke="#191970" points="639.9522,-165.5001 649.9522,-162 639.9521,-158.5001 639.9522,-165.5001"/>
</g>
<!-- Node271 -->
<g id="node25" class="node">
<title>Node271</title>
<g id="a_node25"><a xlink:href="user__interface_8h.html#afd1188add491eee183d4ee2daa37dca6" target="_top" xlink:title="wifi_station_set_config\l_current">
<polygon fill="#ffffff" stroke="#000000" points="631,-103 631,-133 723,-133 723,-103 631,-103"/>
<text text-anchor="start" x="639" y="-121" font-family="Helvetica,sans-Serif" font-size="10.00" fill="#000000">wifi_station_set_config</text>
<text text-anchor="middle" x="677" y="-110" font-family="Helvetica,sans-Serif" font-size="10.00" fill="#000000">_current</text>
</a>
</g>
</g>
<!-- Node254&#45;&gt;Node271 -->
<g id="edge29" class="edge">
<title>Node254&#45;&gt;Node271</title>
<path fill="none" stroke="#191970" d="M568.5948,-153.2017C583.6518,-148.3123 602.9602,-142.0424 621.0991,-136.1523"/>
<polygon fill="#191970" stroke="#191970" points="622.3041,-139.441 630.7343,-133.0236 620.1421,-132.7832 622.3041,-139.441"/>
</g>
<!-- Node272 -->
<g id="node26" class="node">
<title>Node272</title>
<g id="a_node26"><a xlink:href="user__interface_8h.html#ab03cd1e7e4ad93cd241c94bd57430384" target="_top" xlink:title="wifi_station_connect">
<polygon fill="#ffffff" stroke="#000000" points="635,-64.5 635,-83.5 719,-83.5 719,-64.5 635,-64.5"/>
<text text-anchor="middle" x="677" y="-71.5" font-family="Helvetica,sans-Serif" font-size="10.00" fill="#000000">wifi_station_connect</text>
</a>
</g>
</g>
<!-- Node254&#45;&gt;Node272 -->
<g id="edge30" class="edge">
<title>Node254&#45;&gt;Node272</title>
<path fill="none" stroke="#191970" d="M568.6387,-154.134C576.3394,-151.1097 584.413,-147.1183 591,-142 612.3389,-125.4192 605.4895,-109.3576 627,-93 629.4346,-91.1486 632.0705,-89.4591 634.8155,-87.9204"/>
<polygon fill="#191970" stroke="#191970" points="636.3959,-91.0437 643.8416,-83.5063 633.3206,-84.7554 636.3959,-91.0437"/>
</g>
<!-- Node273 -->
<g id="node27" class="node">
<title>Node273</title>
<g id="a_node27"><a xlink:href="wifi_8c.html#a2091cde351b02dbc8bd9d52273488bba" target="_top" xlink:title="wifi_get_rssi_timer_func">
<polygon fill="#ffffff" stroke="#000000" points="628.5,-266.5 628.5,-285.5 725.5,-285.5 725.5,-266.5 628.5,-266.5"/>
<text text-anchor="middle" x="677" y="-273.5" font-family="Helvetica,sans-Serif" font-size="10.00" fill="#000000">wifi_get_rssi_timer_func</text>
</a>
</g>
</g>
<!-- Node254&#45;&gt;Node273 -->
<g id="edge31" class="edge">
<title>Node254&#45;&gt;Node273</title>
<path fill="none" stroke="#191970" d="M547.8665,-171.737C560.6968,-190.6604 591.4856,-232.6738 627,-257 629.7197,-258.8629 632.6467,-260.5746 635.671,-262.141"/>
<polygon fill="#191970" stroke="#191970" points="634.3801,-265.3999 644.9266,-266.411 637.3126,-259.0438 634.3801,-265.3999"/>
</g>
<!-- Node259 -->
<g id="node13" class="node">
<title>Node259</title>
<g id="a_node13"><a xlink:href="tinyprintf_8c.html#ac8c8a66133cf0d7009c0d73b55311a44" target="_top" xlink:title="tfp_vsnprintf">
<polygon fill="#ffffff" stroke="#000000" points="776.5,-152.5 776.5,-171.5 833.5,-171.5 833.5,-152.5 776.5,-152.5"/>
<text text-anchor="middle" x="805" y="-159.5" font-family="Helvetica,sans-Serif" font-size="10.00" fill="#000000">tfp_vsnprintf</text>
</a>
</g>
</g>
<!-- Node258&#45;&gt;Node259 -->
<g id="edge14" class="edge">
<title>Node258&#45;&gt;Node259</title>
<path fill="none" stroke="#191970" d="M704.1455,-162C722.1432,-162 746.0395,-162 766.054,-162"/>
<polygon fill="#191970" stroke="#191970" points="766.1147,-165.5001 776.1147,-162 766.1147,-158.5001 766.1147,-165.5001"/>
</g>
<!-- Node260 -->
<g id="node14" class="node">
<title>Node260</title>
<g id="a_node14"><a xlink:href="tinyprintf_8c.html#a5877e42444463efc71a91b5fe76a6145" target="_top" xlink:title="tfp_format">
<polygon fill="#ffffff" stroke="#000000" points="893,-133.5 893,-152.5 943,-152.5 943,-133.5 893,-133.5"/>
<text text-anchor="middle" x="918" y="-140.5" font-family="Helvetica,sans-Serif" font-size="10.00" fill="#000000">tfp_format</text>
</a>
</g>
</g>
<!-- Node259&#45;&gt;Node260 -->
<g id="edge15" class="edge">
<title>Node259&#45;&gt;Node260</title>
<path fill="none" stroke="#191970" d="M833.5147,-157.2055C848.532,-154.6805 867.0781,-151.5621 882.9648,-148.8909"/>
<polygon fill="#191970" stroke="#191970" points="883.6755,-152.3206 892.9567,-147.2108 882.5147,-145.4175 883.6755,-152.3206"/>
</g>
<!-- Node270 -->
<g id="node24" class="node">
<title>Node270</title>
<g id="a_node24"><a xlink:href="tinyprintf_8c.html#a919051024b2d729e34a54648b3f2462d" target="_top" xlink:title="_vsnprintf_putcf">
<polygon fill="#ffffff" stroke="#000000" points="883.5,-171.5 883.5,-190.5 952.5,-190.5 952.5,-171.5 883.5,-171.5"/>
<text text-anchor="middle" x="918" y="-178.5" font-family="Helvetica,sans-Serif" font-size="10.00" fill="#000000">_vsnprintf_putcf</text>
</a>
</g>
</g>
<!-- Node259&#45;&gt;Node270 -->
<g id="edge28" class="edge">
<title>Node259&#45;&gt;Node270</title>
<path fill="none" stroke="#191970" d="M833.5147,-166.7945C845.6021,-168.8269 859.9757,-171.2437 873.4085,-173.5023"/>
<polygon fill="#191970" stroke="#191970" points="873.0019,-176.983 883.4438,-175.1897 874.1626,-170.0799 873.0019,-176.983"/>
</g>
<!-- Node261 -->
<g id="node15" class="node">
<title>Node261</title>
<g id="a_node15"><a xlink:href="tinyprintf_8c.html#aa97593a5e53af85b608ad0910db92d77" target="_top" xlink:title="a2u">
<polygon fill="#ffffff" stroke="#000000" points="994.5,-266.5 994.5,-285.5 1023.5,-285.5 1023.5,-266.5 994.5,-266.5"/>
<text text-anchor="middle" x="1009" y="-273.5" font-family="Helvetica,sans-Serif" font-size="10.00" fill="#000000">a2u</text>
</a>
</g>
</g>
<!-- Node260&#45;&gt;Node261 -->
<g id="edge16" class="edge">
<title>Node260&#45;&gt;Node261</title>
<path fill="none" stroke="#191970" d="M941.1241,-152.572C945.4755,-155.1502 949.6915,-158.2805 953,-162 981.6325,-194.1897 966.9383,-214.9962 989,-252 990.2186,-254.044 991.607,-256.0923 993.0712,-258.0834"/>
<polygon fill="#191970" stroke="#191970" points="990.6721,-260.6827 999.6831,-266.2552 996.1139,-256.2797 990.6721,-260.6827"/>
</g>
<!-- Node263 -->
<g id="node17" class="node">
<title>Node263</title>
<g id="a_node17"><a xlink:href="tinyprintf_8c.html#abcf035dd576671b0cc897de9dd8c75b0" target="_top" xlink:title="ulli2a">
<polygon fill="#ffffff" stroke="#000000" points="1065,-209.5 1065,-228.5 1099,-228.5 1099,-209.5 1065,-209.5"/>
<text text-anchor="middle" x="1082" y="-216.5" font-family="Helvetica,sans-Serif" font-size="10.00" fill="#000000">ulli2a</text>
</a>
</g>
</g>
<!-- Node260&#45;&gt;Node263 -->
<g id="edge18" class="edge">
<title>Node260&#45;&gt;Node263</title>
<path fill="none" stroke="#191970" d="M939.8879,-152.6445C944.5208,-155.2756 949.1639,-158.409 953,-162 974.8742,-182.4767 962.759,-204.5368 989,-219 1008.9245,-229.9818 1035.0905,-228.8745 1054.5909,-225.6591"/>
<polygon fill="#191970" stroke="#191970" points="1055.4997,-229.0485 1064.6567,-223.7193 1054.175,-222.1749 1055.4997,-229.0485"/>
</g>
<!-- Node264 -->
<g id="node18" class="node">
<title>Node264</title>
<g id="a_node18"><a xlink:href="tinyprintf_8c.html#a1d61347854a8c290d59b4a21efcefd75" target="_top" xlink:title="uli2a">
<polygon fill="#ffffff" stroke="#000000" points="1066,-123.5 1066,-142.5 1098,-142.5 1098,-123.5 1066,-123.5"/>
<text text-anchor="middle" x="1082" y="-130.5" font-family="Helvetica,sans-Serif" font-size="10.00" fill="#000000">uli2a</text>
</a>
</g>
</g>
<!-- Node260&#45;&gt;Node264 -->
<g id="edge19" class="edge">
<title>Node260&#45;&gt;Node264</title>
<path fill="none" stroke="#191970" d="M943.1904,-144.3332C965.7289,-145.2091 999.6437,-145.7452 1029,-143 1037.8817,-142.1694 1047.4926,-140.5722 1056.06,-138.8939"/>
<polygon fill="#191970" stroke="#191970" points="1056.7961,-142.3158 1065.8738,-136.8527 1055.3706,-135.4625 1056.7961,-142.3158"/>
</g>
<!-- Node265 -->
<g id="node19" class="node">
<title>Node265</title>
<g id="a_node19"><a xlink:href="tinyprintf_8c.html#ac87ff66a592723f55692eaf8e3f19df8" target="_top" xlink:title="ui2a">
<polygon fill="#ffffff" stroke="#000000" points="1066.5,-66.5 1066.5,-85.5 1097.5,-85.5 1097.5,-66.5 1066.5,-66.5"/>
<text text-anchor="middle" x="1082" y="-73.5" font-family="Helvetica,sans-Serif" font-size="10.00" fill="#000000">ui2a</text>
</a>
</g>
</g>
<!-- Node260&#45;&gt;Node265 -->
<g id="edge20" class="edge">
<title>Node260&#45;&gt;Node265</title>
<path fill="none" stroke="#191970" d="M933.9287,-133.3479C948.0453,-125.0701 969.4007,-113.2137 989,-105 1011.2421,-95.6788 1037.5601,-87.7441 1056.5126,-82.5433"/>
<polygon fill="#191970" stroke="#191970" points="1057.4584,-85.9134 1066.2113,-79.9438 1055.6461,-79.152 1057.4584,-85.9134"/>
</g>
<!-- Node266 -->
<g id="node20" class="node">
<title>Node266</title>
<g id="a_node20"><a xlink:href="tinyprintf_8c.html#a6252dbfebb2c8783c4e3107d551082dd" target="_top" xlink:title="putchw">
<polygon fill="#ffffff" stroke="#000000" points="989,-.5 989,-19.5 1029,-19.5 1029,-.5 989,-.5"/>
<text text-anchor="middle" x="1009" y="-7.5" font-family="Helvetica,sans-Serif" font-size="10.00" fill="#000000">putchw</text>
</a>
</g>
</g>
<!-- Node260&#45;&gt;Node266 -->
<g id="edge21" class="edge">
<title>Node260&#45;&gt;Node266</title>
<path fill="none" stroke="#191970" d="M922.9502,-133.2982C933.5762,-112.9176 959.974,-64.5997 989,-29 989.5826,-28.2855 990.1906,-27.571 990.8171,-26.8605"/>
<polygon fill="#191970" stroke="#191970" points="993.4322,-29.1919 997.906,-19.588 988.4196,-24.3058 993.4322,-29.1919"/>
</g>
<!-- Node267 -->
<g id="node21" class="node">
<title>Node267</title>
<g id="a_node21"><a xlink:href="tinyprintf_8c.html#a49c6d2b3d4088012f2c1fe344eef69f3" target="_top" xlink:title="lli2a">
<polygon fill="#ffffff" stroke="#000000" points="994,-190.5 994,-209.5 1024,-209.5 1024,-190.5 994,-190.5"/>
<text text-anchor="middle" x="1009" y="-197.5" font-family="Helvetica,sans-Serif" font-size="10.00" fill="#000000">lli2a</text>
</a>
</g>
</g>
<!-- Node260&#45;&gt;Node267 -->
<g id="edge22" class="edge">
<title>Node260&#45;&gt;Node267</title>
<path fill="none" stroke="#191970" d="M936.3591,-152.5251C941.7807,-155.4559 947.6846,-158.7647 953,-162 964.4884,-168.9927 976.8994,-177.3295 987.1109,-184.4103"/>
<polygon fill="#191970" stroke="#191970" points="985.2414,-187.374 995.44,-190.2442 989.2572,-181.6405 985.2414,-187.374"/>
</g>
<!-- Node268 -->
<g id="node22" class="node">
<title>Node268</title>
<g id="a_node22"><a xlink:href="tinyprintf_8c.html#afebb7696337c3f599b5e8db35c560684" target="_top" xlink:title="li2a">
<polygon fill="#ffffff" stroke="#000000" points="994.5,-114.5 994.5,-133.5 1023.5,-133.5 1023.5,-114.5 994.5,-114.5"/>
<text text-anchor="middle" x="1009" y="-121.5" font-family="Helvetica,sans-Serif" font-size="10.00" fill="#000000">li2a</text>
</a>
</g>
</g>
<!-- Node260&#45;&gt;Node268 -->
<g id="edge24" class="edge">
<title>Node260&#45;&gt;Node268</title>
<path fill="none" stroke="#191970" d="M943.3486,-137.7074C956.1674,-135.031 971.6605,-131.7962 984.3762,-129.1412"/>
<polygon fill="#191970" stroke="#191970" points="985.2109,-132.5425 994.2845,-127.0725 983.7802,-125.6903 985.2109,-132.5425"/>
</g>
<!-- Node269 -->
<g id="node23" class="node">
<title>Node269</title>
<g id="a_node23"><a xlink:href="tinyprintf_8c.html#a90f9fd8f2133cda7f50be8d67823405c" target="_top" xlink:title="i2a">
<polygon fill="#ffffff" stroke="#000000" points="994.5,-38.5 994.5,-57.5 1023.5,-57.5 1023.5,-38.5 994.5,-38.5"/>
<text text-anchor="middle" x="1009" y="-45.5" font-family="Helvetica,sans-Serif" font-size="10.00" fill="#000000">i2a</text>
</a>
</g>
</g>
<!-- Node260&#45;&gt;Node269 -->
<g id="edge26" class="edge">
<title>Node260&#45;&gt;Node269</title>
<path fill="none" stroke="#191970" d="M927.3959,-133.1911C942.8018,-117.108 973.6202,-84.935 992.662,-65.0562"/>
<polygon fill="#191970" stroke="#191970" points="995.4009,-67.2566 999.7908,-57.614 990.3458,-62.4144 995.4009,-67.2566"/>
</g>
<!-- Node262 -->
<g id="node16" class="node">
<title>Node262</title>
<g id="a_node16"><a xlink:href="tinyprintf_8c.html#aa853a0c5ba64fa2546d488b86192e7e3" target="_top" xlink:title="a2d">
<polygon fill="#ffffff" stroke="#000000" points="1067.5,-266.5 1067.5,-285.5 1096.5,-285.5 1096.5,-266.5 1067.5,-266.5"/>
<text text-anchor="middle" x="1082" y="-273.5" font-family="Helvetica,sans-Serif" font-size="10.00" fill="#000000">a2d</text>
</a>
</g>
</g>
<!-- Node261&#45;&gt;Node262 -->
<g id="edge17" class="edge">
<title>Node261&#45;&gt;Node262</title>
<path fill="none" stroke="#191970" d="M1023.7726,-276C1033.3705,-276 1046.1197,-276 1057.2412,-276"/>
<polygon fill="#191970" stroke="#191970" points="1057.2494,-279.5001 1067.2493,-276 1057.2493,-272.5001 1057.2494,-279.5001"/>
</g>
<!-- Node267&#45;&gt;Node263 -->
<g id="edge23" class="edge">
<title>Node267&#45;&gt;Node263</title>
<path fill="none" stroke="#191970" d="M1024.1256,-203.9368C1033.021,-206.252 1044.5313,-209.2479 1054.9415,-211.9574"/>
<polygon fill="#191970" stroke="#191970" points="1054.2881,-215.4038 1064.8473,-214.5356 1056.0513,-208.6295 1054.2881,-215.4038"/>
</g>
<!-- Node268&#45;&gt;Node264 -->
<g id="edge25" class="edge">
<title>Node268&#45;&gt;Node264</title>
<path fill="none" stroke="#191970" d="M1023.7726,-125.8213C1032.9591,-126.9539 1045.0325,-128.4424 1055.8024,-129.7702"/>
<polygon fill="#191970" stroke="#191970" points="1055.6295,-133.2753 1065.9827,-131.0253 1056.4861,-126.3279 1055.6295,-133.2753"/>
</g>
<!-- Node269&#45;&gt;Node265 -->
<g id="edge27" class="edge">
<title>Node269&#45;&gt;Node265</title>
<path fill="none" stroke="#191970" d="M1023.7726,-53.6662C1033.278,-57.3121 1045.8744,-62.1436 1056.9194,-66.38"/>
<polygon fill="#191970" stroke="#191970" points="1055.9033,-69.7389 1066.4935,-70.0523 1058.4102,-63.2031 1055.9033,-69.7389"/>
</g>
<!-- Node274 -->
<g id="node28" class="node">
<title>Node274</title>
<g id="a_node28"><a xlink:href="user__interface_8h.html#af8572ea9f6e1b7785e9df6941932bb3d" target="_top" xlink:title="wifi_station_get_rssi">
<polygon fill="#ffffff" stroke="#000000" points="763,-266.5 763,-285.5 847,-285.5 847,-266.5 763,-266.5"/>
<text text-anchor="middle" x="805" y="-273.5" font-family="Helvetica,sans-Serif" font-size="10.00" fill="#000000">wifi_station_get_rssi</text>
</a>
</g>
</g>
<!-- Node273&#45;&gt;Node274 -->
<g id="edge32" class="edge">
<title>Node273&#45;&gt;Node274</title>
<path fill="none" stroke="#191970" d="M725.7565,-276C734.4905,-276 743.6268,-276 752.4618,-276"/>
<polygon fill="#191970" stroke="#191970" points="752.6528,-279.5001 762.6528,-276 752.6528,-272.5001 752.6528,-279.5001"/>
</g>
<!-- Node275&#45;&gt;Node255 -->
<g id="edge34" class="edge">
<title>Node275&#45;&gt;Node255</title>
<path fill="none" stroke="#191970" d="M567.973,-113.404C575.8207,-109.8675 584.1424,-105.3831 591,-100 611.1468,-84.1853 606.2984,-70.0812 627,-55 629.5085,-53.1725 632.2143,-51.4984 635.023,-49.9687"/>
<polygon fill="#191970" stroke="#191970" points="636.7192,-53.0372 644.2291,-45.5638 633.6979,-46.7227 636.7192,-53.0372"/>
</g>
<!-- Node275&#45;&gt;Node256 -->
<g id="edge35" class="edge">
<title>Node275&#45;&gt;Node256</title>
<path fill="none" stroke="#191970" d="M570.0656,-130.4063C577.5382,-133.3847 585.134,-137.4669 591,-143 618.1888,-168.6458 599.5455,-193.6388 627,-219 628.6904,-220.5615 630.522,-221.9987 632.4517,-223.3211"/>
<polygon fill="#191970" stroke="#191970" points="630.9835,-226.5124 641.4065,-228.4127 634.4435,-220.4273 630.9835,-226.5124"/>
</g>
<!-- Node275&#45;&gt;Node257 -->
<g id="edge36" class="edge">
<title>Node275&#45;&gt;Node257</title>
<path fill="none" stroke="#191970" d="M570.0545,-132.1206C577.2046,-135.0422 584.6429,-138.6676 591,-143 610.2246,-156.1015 607.64,-168.0995 627,-181 629.8689,-182.9117 632.9572,-184.6685 636.141,-186.2751"/>
<polygon fill="#191970" stroke="#191970" points="634.7104,-189.4694 645.2635,-190.4093 637.5999,-183.0936 634.7104,-189.4694"/>
</g>
<!-- Node275&#45;&gt;Node258 -->
<g id="edge37" class="edge">
<title>Node275&#45;&gt;Node258</title>
<path fill="none" stroke="#191970" d="M570.2361,-131.2709C590.5811,-137.1267 618.0464,-145.0318 640.0248,-151.3577"/>
<polygon fill="#191970" stroke="#191970" points="639.1137,-154.7375 649.6916,-154.14 641.0499,-148.0106 639.1137,-154.7375"/>
</g>
<!-- Node275&#45;&gt;Node271 -->
<g id="edge38" class="edge">
<title>Node275&#45;&gt;Node271</title>
<path fill="none" stroke="#191970" d="M570.2361,-121.9396C584.9774,-121.3957 603.4569,-120.7138 620.8789,-120.0709"/>
<polygon fill="#191970" stroke="#191970" points="621.1141,-123.5647 630.9782,-119.6982 620.8559,-116.5695 621.1141,-123.5647"/>
</g>
<!-- Node275&#45;&gt;Node272 -->
<g id="edge39" class="edge">
<title>Node275&#45;&gt;Node272</title>
<path fill="none" stroke="#191970" d="M567.9474,-113.436C588.8384,-105.8813 618.202,-95.2628 641.1973,-86.9471"/>
<polygon fill="#191970" stroke="#191970" points="642.4055,-90.2321 650.6193,-83.5399 640.025,-83.6493 642.4055,-90.2321"/>
</g>
<!-- Node278 -->
<g id="node32" class="node">
<title>Node278</title>
<g id="a_node32"><a xlink:href="wifi_8c.html#ae7011f25db54676b86fefe2caa450a4a" target="_top" xlink:title="wifi_scan_timer_func">
<polygon fill="#ffffff" stroke="#000000" points="218,-230.5 218,-249.5 305,-249.5 305,-230.5 218,-230.5"/>
<text text-anchor="middle" x="261.5" y="-237.5" font-family="Helvetica,sans-Serif" font-size="10.00" fill="#000000">wifi_scan_timer_func</text>
</a>
</g>
</g>
<!-- Node277&#45;&gt;Node278 -->
<g id="edge42" class="edge">
<title>Node277&#45;&gt;Node278</title>
<path fill="none" stroke="#191970" d="M182.1452,-206.9797C199.965,-212.128 221.5292,-219.6062 237.6779,-226.3203"/>
<polygon fill="#191970" stroke="#191970" points="236.3864,-229.5755 246.9511,-230.3743 239.1904,-223.1616 236.3864,-229.5755"/>
</g>
<!-- Node278&#45;&gt;Node277 -->
<g id="edge55" class="edge">
<title>Node278&#45;&gt;Node277</title>
<path fill="none" stroke="#191970" d="M217.6472,-231.7896C202.4145,-227.0132 185.9054,-221.1157 172.8953,-215.7101"/>
<polygon fill="#191970" stroke="#191970" points="174.2725,-212.4925 163.7074,-211.6991 171.4718,-218.9078 174.2725,-212.4925"/>
</g>
<!-- Node279 -->
<g id="node33" class="node">
<title>Node279</title>
<g id="a_node33"><a xlink:href="wifi_8c.html#a79205b29f65bdd821ad9452bdbf0b747" target="_top" xlink:title="wifi_get_rssi">
<polygon fill="#ffffff" stroke="#000000" points="369.5,-268.5 369.5,-287.5 427.5,-287.5 427.5,-268.5 369.5,-268.5"/>
<text text-anchor="middle" x="398.5" y="-275.5" font-family="Helvetica,sans-Serif" font-size="10.00" fill="#000000">wifi_get_rssi</text>
</a>
</g>
</g>
<!-- Node278&#45;&gt;Node279 -->
<g id="edge43" class="edge">
<title>Node278&#45;&gt;Node279</title>
<path fill="none" stroke="#191970" d="M296.0709,-249.589C315.4649,-254.9684 339.7133,-261.6942 359.7481,-267.2513"/>
<polygon fill="#191970" stroke="#191970" points="358.9265,-270.6555 369.4982,-269.9557 360.7975,-263.9101 358.9265,-270.6555"/>
</g>
<!-- Node280 -->
<g id="node34" class="node">
<title>Node280</title>
<g id="a_node34"><a xlink:href="wifi_8c.html#a189ec83a0503a6fc45b102014a80403b" target="_top" xlink:title="wifi_scan_timeout_timer_func">
<polygon fill="#ffffff" stroke="#000000" points="341,-192.5 341,-211.5 456,-211.5 456,-192.5 341,-192.5"/>
<text text-anchor="middle" x="398.5" y="-199.5" font-family="Helvetica,sans-Serif" font-size="10.00" fill="#000000">wifi_scan_timeout_timer_func</text>
</a>
</g>
</g>
<!-- Node278&#45;&gt;Node280 -->
<g id="edge44" class="edge">
<title>Node278&#45;&gt;Node280</title>
<path fill="none" stroke="#191970" d="M296.0709,-230.411C313.6752,-225.5281 335.2793,-219.5357 354.101,-214.315"/>
<polygon fill="#191970" stroke="#191970" points="355.2395,-217.6315 363.9402,-211.5859 353.3685,-210.8862 355.2395,-217.6315"/>
</g>
<!-- Node281 -->
<g id="node35" class="node">
<title>Node281</title>
<g id="a_node35"><a xlink:href="user__interface_8h.html#ac80b0607b1cb20c161c681581c998626" target="_top" xlink:title="wifi_station_scan">
<polygon fill="#ffffff" stroke="#000000" points="361.5,-230.5 361.5,-249.5 435.5,-249.5 435.5,-230.5 361.5,-230.5"/>
<text text-anchor="middle" x="398.5" y="-237.5" font-family="Helvetica,sans-Serif" font-size="10.00" fill="#000000">wifi_station_scan</text>
</a>
</g>
</g>
<!-- Node278&#45;&gt;Node281 -->
<g id="edge46" class="edge">
<title>Node278&#45;&gt;Node281</title>
<path fill="none" stroke="#191970" d="M305.2243,-240C319.8582,-240 336.2357,-240 351.1344,-240"/>
<polygon fill="#191970" stroke="#191970" points="351.1731,-243.5001 361.173,-240 351.173,-236.5001 351.1731,-243.5001"/>
</g>
<!-- Node282 -->
<g id="node36" class="node">
<title>Node282</title>
<g id="a_node36"><a xlink:href="wifi_8c.html#a1ef15ecd9e69811f6db10215c7196281" target="_top" xlink:title="wifi_scan_done_cb">
<polygon fill="#ffffff" stroke="#000000" points="358.5,-154.5 358.5,-173.5 438.5,-173.5 438.5,-154.5 358.5,-154.5"/>
<text text-anchor="middle" x="398.5" y="-161.5" font-family="Helvetica,sans-Serif" font-size="10.00" fill="#000000">wifi_scan_done_cb</text>
</a>
</g>
</g>
<!-- Node278&#45;&gt;Node282 -->
<g id="edge47" class="edge">
<title>Node278&#45;&gt;Node282</title>
<path fill="none" stroke="#191970" d="M272.6377,-230.3259C287.3999,-217.916 314.6615,-196.3985 341,-183 345.2285,-180.8489 349.7529,-178.8658 354.3375,-177.0584"/>
<polygon fill="#191970" stroke="#191970" points="355.5776,-180.3316 363.7569,-173.5973 353.1633,-173.7611 355.5776,-180.3316"/>
</g>
<!-- Node280&#45;&gt;Node277 -->
<g id="edge45" class="edge">
<title>Node280&#45;&gt;Node277</title>
<path fill="none" stroke="#191970" d="M340.8226,-202C295.5452,-202 233.4918,-202 192.3698,-202"/>
<polygon fill="#191970" stroke="#191970" points="192.1317,-198.5001 182.1317,-202 192.1316,-205.5001 192.1317,-198.5001"/>
</g>
<!-- Node282&#45;&gt;Node248 -->
<g id="edge50" class="edge">
<title>Node282&#45;&gt;Node248</title>
<path fill="none" stroke="#191970" d="M438.7491,-171.4168C445.2114,-174.1507 451.3066,-177.8892 456,-183 502.6655,-233.8157 446.5507,-282.0937 492,-334 494.653,-337.0299 497.8449,-339.5791 501.314,-341.7234"/>
<polygon fill="#191970" stroke="#191970" points="499.8519,-344.9056 510.3595,-346.2628 502.9917,-338.6493 499.8519,-344.9056"/>
</g>
<!-- Node282&#45;&gt;Node253 -->
<g id="edge52" class="edge">
<title>Node282&#45;&gt;Node253</title>
<path fill="none" stroke="#191970" d="M438.6273,-173.3326C444.8081,-175.8472 450.8409,-179.0159 456,-183 495.4559,-213.4692 522.1217,-267.619 534.1719,-296.1734"/>
<polygon fill="#191970" stroke="#191970" points="530.9339,-297.5024 537.9467,-305.4442 537.4171,-294.8626 530.9339,-297.5024"/>
</g>
<!-- Node282&#45;&gt;Node254 -->
<g id="edge51" class="edge">
<title>Node282&#45;&gt;Node254</title>
<path fill="none" stroke="#191970" d="M438.714,-163.4376C459.2553,-163.1503 484.0879,-162.803 504.1987,-162.5217"/>
<polygon fill="#191970" stroke="#191970" points="504.2872,-166.0209 514.2372,-162.3813 504.1892,-159.0216 504.2872,-166.0209"/>
</g>
<!-- Node282&#45;&gt;Node275 -->
<g id="edge49" class="edge">
<title>Node282&#45;&gt;Node275</title>
<path fill="none" stroke="#191970" d="M431.6665,-154.4907C452.9882,-148.3775 480.7668,-140.413 503.0526,-134.0234"/>
<polygon fill="#191970" stroke="#191970" points="504.2146,-137.3313 512.8626,-131.2107 502.2853,-130.6024 504.2146,-137.3313"/>
</g>
<!-- Node282&#45;&gt;Node276 -->
<g id="edge48" class="edge">
<title>Node282&#45;&gt;Node276</title>
<path fill="none" stroke="#191970" d="M412.9181,-154.393C431.1495,-142.3276 463.5914,-121.1316 492,-104 496.2169,-101.457 500.6695,-98.8421 505.106,-96.2799"/>
<polygon fill="#191970" stroke="#191970" points="507.1637,-99.1352 514.109,-91.1343 503.6902,-93.0577 507.1637,-99.1352"/>
</g>
<!-- Node282&#45;&gt;Node277 -->
<g id="edge54" class="edge">
<title>Node282&#45;&gt;Node277</title>
<path fill="none" stroke="#191970" d="M358.2024,-170.1375C312.6938,-177.0687 238.9194,-188.3049 192.2351,-195.4151"/>
<polygon fill="#191970" stroke="#191970" points="191.4907,-191.988 182.1317,-196.9539 192.5447,-198.9082 191.4907,-191.988"/>
</g>
<!-- Node282&#45;&gt;Node283 -->
<g id="edge53" class="edge">
<title>Node282&#45;&gt;Node283</title>
<path fill="none" stroke="#191970" d="M404.8093,-154.257C418.665,-133.3973 453.5939,-83.6623 492,-51 495.4652,-48.053 499.2695,-45.2345 503.1816,-42.5925"/>
<polygon fill="#191970" stroke="#191970" points="505.2578,-45.4203 511.8283,-37.109 501.5089,-39.5088 505.2578,-45.4203"/>
</g>
</g>
</svg>
