<?xml version="1.0" encoding="UTF-8" standalone="no"?>
<!DOCTYPE svg PUBLIC "-//W3C//DTD SVG 1.1//EN"
 "http://www.w3.org/Graphics/SVG/1.1/DTD/svg11.dtd">
<!-- Generated by graphviz version 2.40.1 (20161225.0304)
 -->
<!-- Title: eagle_lwip_getif Pages: 1 -->
<svg width="535pt" height="218pt"
 viewBox="0.00 0.00 535.00 218.00" xmlns="http://www.w3.org/2000/svg" xmlns:xlink="http://www.w3.org/1999/xlink">
<g id="graph0" class="graph" transform="scale(1 1) rotate(0) translate(4 214)">
<title>eagle_lwip_getif</title>
<polygon fill="#ffffff" stroke="transparent" points="-4,4 -4,-214 531,-214 531,4 -4,4"/>
<!-- Node1 -->
<g id="node1" class="node">
<title>Node1</title>
<polygon fill="#bfbfbf" stroke="#000000" points="0,-114.5 0,-133.5 70,-133.5 70,-114.5 0,-114.5"/>
<text text-anchor="middle" x="35" y="-121.5" font-family="Helvetica,sans-Serif" font-size="10.00" fill="#000000">eagle_lwip_getif</text>
</g>
<!-- Node2 -->
<g id="node2" class="node">
<title>Node2</title>
<g id="a_node2"><a xlink:href="dhcpserver_8c.html#aa4cf55564a805b8654630547d365edcd" target="_top" xlink:title="dhcps_start">
<polygon fill="#ffffff" stroke="#000000" points="122.5,-190.5 122.5,-209.5 177.5,-209.5 177.5,-190.5 122.5,-190.5"/>
<text text-anchor="middle" x="150" y="-197.5" font-family="Helvetica,sans-Serif" font-size="10.00" fill="#000000">dhcps_start</text>
</a>
</g>
</g>
<!-- Node1&#45;&gt;Node2 -->
<g id="edge1" class="edge">
<title>Node1&#45;&gt;Node2</title>
<path fill="none" stroke="#191970" d="M53.1326,-140.8414C66.9076,-153.0488 86.7121,-169.3846 106,-181 111.8449,-184.5199 118.4598,-187.7342 124.7518,-190.4777"/>
<polygon fill="#191970" stroke="#191970" points="55.161,-137.9572 45.3933,-133.8531 50.4697,-143.1526 55.161,-137.9572"/>
</g>
<!-- Node3 -->
<g id="node3" class="node">
<title>Node3</title>
<g id="a_node3"><a xlink:href="dhcpserver_8c.html#a64b76b9033af6ccbb89b4963a70c9a22" target="_top" xlink:title="dhcps_stop">
<polygon fill="#ffffff" stroke="#000000" points="122.5,-152.5 122.5,-171.5 177.5,-171.5 177.5,-152.5 122.5,-152.5"/>
<text text-anchor="middle" x="150" y="-159.5" font-family="Helvetica,sans-Serif" font-size="10.00" fill="#000000">dhcps_stop</text>
</a>
</g>
</g>
<!-- Node1&#45;&gt;Node3 -->
<g id="edge2" class="edge">
<title>Node1&#45;&gt;Node3</title>
<path fill="none" stroke="#191970" d="M73.5967,-136.7537C89.5112,-142.0124 107.5995,-147.9894 122.18,-152.8073"/>
<polygon fill="#191970" stroke="#191970" points="74.6126,-133.4033 64.0194,-133.589 72.4163,-140.0498 74.6126,-133.4033"/>
</g>
<!-- Node4 -->
<g id="node4" class="node">
<title>Node4</title>
<g id="a_node4"><a xlink:href="espconn__udp_8c.html#a01fa0df74518311e3eb03f2d955f9f26" target="_top" xlink:title="espconn_udp_sendto">
<polygon fill="#ffffff" stroke="#000000" points="106,-114.5 106,-133.5 194,-133.5 194,-114.5 106,-114.5"/>
<text text-anchor="middle" x="150" y="-121.5" font-family="Helvetica,sans-Serif" font-size="10.00" fill="#000000">espconn_udp_sendto</text>
</a>
</g>
</g>
<!-- Node1&#45;&gt;Node4 -->
<g id="edge3" class="edge">
<title>Node1&#45;&gt;Node4</title>
<path fill="none" stroke="#191970" d="M80.1529,-124C88.5636,-124 97.3443,-124 105.7282,-124"/>
<polygon fill="#191970" stroke="#191970" points="80.1287,-120.5001 70.1287,-124 80.1286,-127.5001 80.1287,-120.5001"/>
</g>
<!-- Node9 -->
<g id="node9" class="node">
<title>Node9</title>
<g id="a_node9"><a xlink:href="espconn__udp_8c.html#ac963eff73234530596d6c02e6bb05e09" target="_top" xlink:title="espconn_udp_sent">
<polygon fill="#ffffff" stroke="#000000" points="348,-114.5 348,-133.5 428,-133.5 428,-114.5 348,-114.5"/>
<text text-anchor="middle" x="388" y="-121.5" font-family="Helvetica,sans-Serif" font-size="10.00" fill="#000000">espconn_udp_sent</text>
</a>
</g>
</g>
<!-- Node1&#45;&gt;Node9 -->
<g id="edge13" class="edge">
<title>Node1&#45;&gt;Node9</title>
<path fill="none" stroke="#191970" d="M73.3679,-111.7733C83.8402,-108.9761 95.2623,-106.4119 106,-105 196.7742,-93.0642 221.1304,-93.8134 312,-105 327.1185,-106.8612 343.5551,-110.7305 357.2628,-114.4947"/>
<polygon fill="#191970" stroke="#191970" points="72.3528,-108.4229 63.6717,-114.4965 74.2457,-115.1621 72.3528,-108.4229"/>
</g>
<!-- Node11 -->
<g id="node11" class="node">
<title>Node11</title>
<g id="a_node11"><a xlink:href="ip_8c.html#a81facf31eb2f115e66227f648153ed79" target="_top" xlink:title="ip_route">
<polygon fill="#ffffff" stroke="#000000" points="128,-38.5 128,-57.5 172,-57.5 172,-38.5 128,-38.5"/>
<text text-anchor="middle" x="150" y="-45.5" font-family="Helvetica,sans-Serif" font-size="10.00" fill="#000000">ip_route</text>
</a>
</g>
</g>
<!-- Node1&#45;&gt;Node11 -->
<g id="edge14" class="edge">
<title>Node1&#45;&gt;Node11</title>
<path fill="none" stroke="#191970" d="M54.9131,-108.3137C68.8765,-97.5911 88.1622,-83.3266 106,-72 114.0802,-66.8693 123.3402,-61.7166 131.2743,-57.5082"/>
<polygon fill="#191970" stroke="#191970" points="52.7255,-105.5811 46.9672,-114.4745 57.0147,-111.1131 52.7255,-105.5811"/>
</g>
<!-- Node5 -->
<g id="node5" class="node">
<title>Node5</title>
<g id="a_node5"><a xlink:href="sdk_2include_2espconn_8h.html#a62219be0ac7e8dd6085915d5c0777476" target="_top" xlink:title="espconn_sendto">
<polygon fill="#ffffff" stroke="#000000" points="235,-152.5 235,-171.5 307,-171.5 307,-152.5 235,-152.5"/>
<text text-anchor="middle" x="271" y="-159.5" font-family="Helvetica,sans-Serif" font-size="10.00" fill="#000000">espconn_sendto</text>
</a>
</g>
</g>
<!-- Node4&#45;&gt;Node5 -->
<g id="edge4" class="edge">
<title>Node4&#45;&gt;Node5</title>
<path fill="none" stroke="#191970" d="M190.3771,-136.6804C206.7262,-141.8148 225.2878,-147.6441 240.4764,-152.4141"/>
<polygon fill="#191970" stroke="#191970" points="191.1227,-133.2461 180.5334,-133.589 189.0253,-139.9245 191.1227,-133.2461"/>
</g>
<!-- Node8 -->
<g id="node8" class="node">
<title>Node8</title>
<g id="a_node8"><a xlink:href="espconn__udp_8c.html#ad90679652367797548ea650f09d14f7e" target="_top" xlink:title="espconn_data_sent">
<polygon fill="#ffffff" stroke="#000000" points="230,-114.5 230,-133.5 312,-133.5 312,-114.5 230,-114.5"/>
<text text-anchor="middle" x="271" y="-121.5" font-family="Helvetica,sans-Serif" font-size="10.00" fill="#000000">espconn_data_sent</text>
</a>
</g>
</g>
<!-- Node4&#45;&gt;Node8 -->
<g id="edge8" class="edge">
<title>Node4&#45;&gt;Node8</title>
<path fill="none" stroke="#191970" d="M204.279,-117.2818C212.7897,-117.1945 221.4664,-117.2869 229.6258,-117.5592"/>
<polygon fill="#191970" stroke="#191970" points="203.9574,-113.7872 194.0261,-117.4775 204.0911,-120.7859 203.9574,-113.7872"/>
</g>
<!-- Node6 -->
<g id="node6" class="node">
<title>Node6</title>
<g id="a_node6"><a xlink:href="captdns_8c.html#a59c9a28ea1f015cff27b9d0c252d15f3" target="_top" xlink:title="captdnsRecv">
<polygon fill="#ffffff" stroke="#000000" points="358,-152.5 358,-171.5 418,-171.5 418,-152.5 358,-152.5"/>
<text text-anchor="middle" x="388" y="-159.5" font-family="Helvetica,sans-Serif" font-size="10.00" fill="#000000">captdnsRecv</text>
</a>
</g>
</g>
<!-- Node5&#45;&gt;Node6 -->
<g id="edge5" class="edge">
<title>Node5&#45;&gt;Node6</title>
<path fill="none" stroke="#191970" d="M317.2451,-162C330.8707,-162 345.4249,-162 357.7686,-162"/>
<polygon fill="#191970" stroke="#191970" points="317.0586,-158.5001 307.0585,-162 317.0585,-165.5001 317.0586,-158.5001"/>
</g>
<!-- Node7 -->
<g id="node7" class="node">
<title>Node7</title>
<g id="a_node7"><a xlink:href="captdns_8h.html#a88f42288d1b84cab204cca9e7f7aa9a3" target="_top" xlink:title="captdnsInit">
<polygon fill="#ffffff" stroke="#000000" points="469,-152.5 469,-171.5 522,-171.5 522,-152.5 469,-152.5"/>
<text text-anchor="middle" x="495.5" y="-159.5" font-family="Helvetica,sans-Serif" font-size="10.00" fill="#000000">captdnsInit</text>
</a>
</g>
</g>
<!-- Node6&#45;&gt;Node7 -->
<g id="edge6" class="edge">
<title>Node6&#45;&gt;Node7</title>
<path fill="none" stroke="#191970" d="M428.2799,-155.442C441.8124,-155.0487 456.5625,-155.2597 468.7888,-156.075"/>
<polygon fill="#191970" stroke="#191970" points="428.0764,-151.9474 418.2308,-155.8607 428.3679,-158.9413 428.0764,-151.9474"/>
</g>
<!-- Node7&#45;&gt;Node6 -->
<g id="edge7" class="edge">
<title>Node7&#45;&gt;Node6</title>
<path fill="none" stroke="#191970" d="M458.6186,-168.4454C445.4487,-168.936 430.7753,-168.834 418.2308,-168.1393"/>
<polygon fill="#191970" stroke="#191970" points="458.9808,-171.9316 468.7888,-167.925 458.623,-164.9407 458.9808,-171.9316"/>
</g>
<!-- Node8&#45;&gt;Node4 -->
<g id="edge12" class="edge">
<title>Node8&#45;&gt;Node4</title>
<path fill="none" stroke="#191970" d="M219.4625,-130.6837C210.9954,-130.8098 202.2889,-130.756 194.0261,-130.5225"/>
<polygon fill="#191970" stroke="#191970" points="219.7123,-134.1789 229.6258,-130.4408 219.5449,-127.1809 219.7123,-134.1789"/>
</g>
<!-- Node8&#45;&gt;Node9 -->
<g id="edge9" class="edge">
<title>Node8&#45;&gt;Node9</title>
<path fill="none" stroke="#191970" d="M322.4899,-117.2933C331.0073,-117.1877 339.7258,-117.2754 347.9092,-117.5563"/>
<polygon fill="#191970" stroke="#191970" points="322.1706,-113.7993 312.2498,-117.5179 322.3242,-120.7976 322.1706,-113.7993"/>
</g>
<!-- Node9&#45;&gt;Node8 -->
<g id="edge11" class="edge">
<title>Node9&#45;&gt;Node8</title>
<path fill="none" stroke="#191970" d="M337.7113,-130.6905C329.2145,-130.8143 320.4819,-130.7448 312.2498,-130.4821"/>
<polygon fill="#191970" stroke="#191970" points="337.9968,-134.1848 347.9092,-130.4437 337.8274,-127.1868 337.9968,-134.1848"/>
</g>
<!-- Node10 -->
<g id="node10" class="node">
<title>Node10</title>
<g id="a_node10"><a xlink:href="sdk_2include_2espconn_8h.html#a579e4f1c62f7c33be01398931617e988" target="_top" xlink:title="espconn_sent">
<polygon fill="#ffffff" stroke="#000000" points="464,-114.5 464,-133.5 527,-133.5 527,-114.5 464,-114.5"/>
<text text-anchor="middle" x="495.5" y="-121.5" font-family="Helvetica,sans-Serif" font-size="10.00" fill="#000000">espconn_sent</text>
</a>
</g>
</g>
<!-- Node9&#45;&gt;Node10 -->
<g id="edge10" class="edge">
<title>Node9&#45;&gt;Node10</title>
<path fill="none" stroke="#191970" d="M438.1713,-124C446.9079,-124 455.7712,-124 463.8324,-124"/>
<polygon fill="#191970" stroke="#191970" points="438.0291,-120.5001 428.029,-124 438.029,-127.5001 438.0291,-120.5001"/>
</g>
<!-- Node12 -->
<g id="node12" class="node">
<title>Node12</title>
<g id="a_node12"><a xlink:href="ip_8c.html#a67e0618e1375dc07b5a035522c3f603b" target="_top" xlink:title="ip_router">
<polygon fill="#ffffff" stroke="#000000" points="248,-38.5 248,-57.5 294,-57.5 294,-38.5 248,-38.5"/>
<text text-anchor="middle" x="271" y="-45.5" font-family="Helvetica,sans-Serif" font-size="10.00" fill="#000000">ip_router</text>
</a>
</g>
</g>
<!-- Node11&#45;&gt;Node12 -->
<g id="edge15" class="edge">
<title>Node11&#45;&gt;Node12</title>
<path fill="none" stroke="#191970" d="M182.3827,-48C202.976,-48 229.1589,-48 247.7103,-48"/>
<polygon fill="#191970" stroke="#191970" points="182.1933,-44.5001 172.1933,-48 182.1932,-51.5001 182.1933,-44.5001"/>
</g>
<!-- Node13 -->
<g id="node13" class="node">
<title>Node13</title>
<g id="a_node13"><a xlink:href="ip_8c.html#aada620fb6df3b1116290a88cb85a85ab" target="_top" xlink:title="ip_output">
<polygon fill="#ffffff" stroke="#000000" points="247.5,-.5 247.5,-19.5 294.5,-19.5 294.5,-.5 247.5,-.5"/>
<text text-anchor="middle" x="271" y="-7.5" font-family="Helvetica,sans-Serif" font-size="10.00" fill="#000000">ip_output</text>
</a>
</g>
</g>
<!-- Node11&#45;&gt;Node13 -->
<g id="edge16" class="edge">
<title>Node11&#45;&gt;Node13</title>
<path fill="none" stroke="#191970" d="M181.7527,-38.0281C202.2866,-31.5794 228.5766,-23.323 247.2927,-17.4453"/>
<polygon fill="#191970" stroke="#191970" points="180.6852,-34.6947 172.1933,-41.0302 182.7826,-41.3731 180.6852,-34.6947"/>
</g>
</g>
</svg>
